<svg width="300" height="300" viewBox="0 0 300 300" fill="none" xmlns="http://www.w3.org/2000/svg">
<path d="M201.101 143C200.701 142.6 200.401 142.2 200.001 141.8C199.801 141.7 200.001 141.3 199.401 141.6C199.101 141.7 199.401 141.1 199.401 141C199.001 140.7 198.701 140.3 198.301 139.9C197.901 139.6 197.401 139.4 197.101 139.1C196.701 138.8 196.601 138.2 196.101 138.1C195.601 138 195.701 137.4 195.401 137.2C195.001 137 194.701 136.7 194.601 136.3C194.601 136 194.501 135.6 194.201 135.5C194.001 135.5 193.701 135.5 193.601 135.4C193.501 135.3 193.601 134.9 193.001 135.2C193.001 135.2 193.001 135.1 193.001 135C193.201 134.6 193.001 134.4 192.701 134.5C192.401 134.5 192.301 134.5 192.201 134.3C191.901 134 191.601 133.7 191.401 133.4C191.201 133.1 191.201 132.8 191.001 132.5C190.801 132.2 190.401 132.2 190.401 131.7C190.401 131.3 190.201 131.1 190.001 130.9C189.901 130.8 190.001 130.4 189.401 130.8C189.701 129.9 188.601 130.3 188.401 129.8C188.201 129.3 187.801 129 187.401 128.7C187.401 128.7 187.401 128.4 186.901 128.7C186.801 128.7 186.601 128.7 186.701 128.6C186.901 127.9 186.401 127.9 186.201 127.5C186.001 127.1 185.501 127 185.501 126.3C185.501 126 185.501 125.8 184.901 126C184.601 126.1 184.701 125.8 184.501 125.7C184.401 125.7 184.101 125.7 184.001 125.7C184.001 125.7 184.001 125.4 184.001 125.2C183.101 125.2 183.301 124.1 182.701 123.8C182.101 123.5 181.701 122.9 181.401 122.4C181.201 122.1 181.101 121.7 181.801 120.8C182.101 120.4 182.501 120 182.801 119.9C183.101 119.9 183.301 119.8 183.401 119.9C183.601 119.9 183.801 120 184.001 120.1C184.401 120.3 185.101 120.1 185.201 120.7C185.201 120.9 185.601 120.7 185.201 121.2V121.3C186.201 121.2 186.201 122 186.601 122.3C187.001 122.6 187.801 122.5 187.901 123.1C188.501 122.9 188.701 123.1 188.701 123.5C188.901 124.7 189.901 125.1 190.501 125.8C191.101 126.6 191.801 127.2 192.501 128C192.601 128.1 193.001 128 192.901 128.3C192.901 128.6 193.101 128.6 193.301 128.8C193.401 128.9 193.701 129 193.701 129.2C193.701 130.2 194.601 130.5 195.001 131.1C195.501 131.7 196.001 132.3 196.601 132.8C197.001 133.1 197.601 133.2 197.801 133.6C197.801 133.8 198.301 133.7 198.001 134.3C198.001 134.5 198.401 134.3 198.501 134.3C198.801 134.5 199.001 134.8 199.201 135C199.501 135.3 199.801 135.7 200.101 136C200.301 136.2 200.701 136.2 200.901 136.4C201.101 136.6 201.301 136.8 201.501 137C201.701 137.3 201.801 137.7 202.001 138C202.201 138.3 202.701 138.4 202.701 138.9C202.701 139.7 203.401 140 203.801 140.6C204.201 141.1 204.601 141.6 205.201 142C205.501 142.2 205.401 142.8 205.601 143.1C205.701 143.2 204.801 144.4 204.401 144.7L204.201 144.8C203.601 144.8 202.901 145.1 202.601 144.8C202.201 144.3 201.801 143.9 201.401 143.5L201.101 143Z" fill="black"/>
<path d="M136.501 121.901C135.601 122.501 134.701 123.201 134.101 124.101C133.901 124.401 133.401 124.601 133.701 125.301C133.801 125.601 133.101 125.601 132.901 126.001C132.501 127.001 132.101 127.901 132.001 129.001C131.801 130.101 132.001 131.101 131.901 132.201C131.901 133.301 131.501 134.401 131.901 135.501C132.201 136.501 131.701 137.301 131.801 138.201C131.901 139.201 132.001 140.201 131.801 141.101C131.601 141.801 131.401 142.501 131.601 143.201C131.601 143.601 132.001 144.001 132.001 144.501C132.001 144.901 131.701 145.401 132.401 145.801C132.401 145.801 132.401 146.001 132.301 146.101C131.901 146.601 132.001 147.201 132.301 147.501C132.601 147.901 132.601 148.201 132.601 148.601C132.701 149.601 132.801 150.501 132.801 151.501C132.801 152.201 132.701 153.001 132.701 153.701C132.701 154.501 133.101 155.201 132.801 156.001C132.601 156.701 132.701 157.401 132.801 158.101C132.801 158.501 132.601 159.001 133.301 159.201V159.401C132.601 160.601 133.801 161.601 133.801 162.701C133.801 163.901 134.101 165.101 134.301 166.201C134.301 166.501 134.301 166.901 134.701 167.101C134.901 167.101 134.901 167.501 134.901 167.701C134.401 168.701 134.901 169.501 134.901 170.401C134.901 171.401 135.401 172.401 135.101 173.501C135.001 174.001 135.001 174.601 135.601 175.001C135.901 175.201 135.701 175.701 135.901 176.101C136.001 176.401 136.301 176.601 136.401 176.901C136.401 177.201 136.301 177.501 136.201 177.701C136.201 177.701 136.201 177.901 136.201 178.001C137.101 179.401 136.501 181.001 137.001 182.501C137.501 184.001 137.701 185.501 137.901 187.001C138.001 187.801 137.901 188.701 137.001 189.501C136.501 189.901 136.001 190.001 135.601 189.701C135.301 189.501 135.001 189.201 134.901 188.901C134.701 188.401 134.501 188.001 134.301 187.501C133.901 186.601 133.201 185.701 133.301 184.701C133.301 184.401 133.001 184.101 133.401 183.701V183.501C132.401 182.301 132.601 180.801 132.301 179.501C132.001 178.401 131.201 177.301 131.301 176.101C130.601 175.601 130.501 174.801 130.601 174.101C130.901 171.701 130.001 169.501 129.801 167.101C129.501 164.701 129.101 162.401 128.901 160.001C128.901 159.601 128.401 159.301 128.701 158.801C128.901 158.301 128.701 157.801 128.601 157.301C128.601 156.801 128.401 156.301 128.501 155.901C129.001 154.001 128.401 152.201 128.301 150.301C128.301 148.401 128.201 146.601 127.901 144.701C127.801 143.601 127.401 142.501 127.501 141.301C127.501 140.801 127.201 140.301 127.801 139.801C128.001 139.701 127.501 139.201 127.501 138.901C127.501 138.101 127.501 137.301 127.501 136.501C127.501 135.401 127.501 134.301 127.501 133.201C127.501 132.501 127.301 131.801 127.301 131.101C127.301 130.401 127.301 129.601 127.601 128.901C127.801 128.001 128.201 127.101 128.601 126.101C129.001 125.201 129.101 124.001 129.801 123.201C130.501 122.501 131.001 121.801 131.701 121.101C132.301 120.401 133.001 119.701 133.701 119.201C135.201 118.201 136.801 117.401 138.301 116.701C139.201 116.301 140.201 116.501 141.001 116.201C141.401 116.101 142.401 117.301 142.301 117.901C142.301 118.001 142.301 118.101 142.301 118.201C141.601 118.901 141.101 119.801 140.201 120.101C138.901 120.501 137.701 121.101 136.601 121.801L136.501 121.901Z" fill="black"/>
<path d="M183.101 149.301C183.501 149.101 183.801 149.001 184.201 148.701C184.301 148.701 184.601 148.701 184.501 148.201C184.501 147.901 184.901 148.401 185.001 148.301C185.301 148.101 185.701 148.001 186.001 147.801C186.301 147.601 186.501 147.201 186.801 147.001C187.101 146.801 187.601 147.001 187.801 146.501C188.001 146.101 188.401 146.501 188.601 146.201C188.801 146.001 189.101 145.801 189.501 145.901C189.801 145.901 190.101 146.101 190.201 145.901C190.201 145.801 190.201 145.401 190.401 145.401C190.501 145.401 190.801 145.601 190.701 144.901C190.701 144.901 190.701 144.901 190.901 144.901C191.201 145.201 191.401 145.101 191.401 144.901C191.401 144.601 191.501 144.601 191.601 144.501C191.901 144.401 192.201 144.201 192.501 144.201C192.701 144.201 193.001 144.201 193.301 144.201C193.501 144.201 193.701 143.801 194.001 144.001C194.301 144.201 194.501 144.101 194.701 144.001C194.801 144.001 195.101 144.201 194.901 143.501C195.501 144.201 195.501 143.001 195.901 143.101C196.301 143.101 196.601 142.901 197.001 142.801C197.001 142.801 197.301 142.901 197.201 142.401C197.201 142.201 197.201 142.201 197.401 142.301C197.901 142.801 198.001 142.301 198.301 142.301C198.601 142.301 198.901 141.901 199.301 142.301C199.501 142.501 199.701 142.501 199.701 141.901C199.701 141.601 199.901 141.901 200.001 141.701C200.001 141.701 200.001 141.301 200.201 141.301C200.201 141.301 200.401 141.501 200.501 141.601C200.801 140.801 201.501 141.601 201.901 141.201C202.301 140.901 202.801 140.801 203.301 140.801C203.601 140.801 203.901 140.801 204.401 141.901C204.601 142.401 204.801 142.901 204.701 143.301C204.701 143.601 204.701 143.801 204.601 143.901C204.501 144.001 204.401 144.201 204.301 144.301C204.101 144.601 203.901 145.201 203.601 145.001C203.501 145.001 203.501 145.301 203.201 144.801C203.001 145.701 202.501 145.301 202.101 145.501C201.801 145.701 201.601 146.401 201.201 146.201C201.201 146.901 201.001 146.801 200.701 146.701C199.801 146.301 199.301 146.901 198.601 147.101C197.901 147.201 197.301 147.601 196.601 147.801C196.501 147.801 196.601 148.201 196.301 148.001C196.101 147.801 196.001 148.001 195.801 148.101C195.701 148.101 195.601 148.301 195.401 148.201C194.601 147.801 194.301 148.401 193.701 148.501C193.201 148.601 192.601 148.801 192.201 149.201C191.901 149.401 191.801 149.901 191.401 149.901C191.201 149.901 191.201 150.301 190.901 149.801C190.801 149.701 190.901 150.101 190.801 150.201C190.601 150.301 190.401 150.401 190.201 150.501C189.901 150.601 189.601 150.701 189.301 150.901C189.101 151.001 189.101 151.301 188.901 151.501C188.701 151.601 188.601 151.701 188.301 151.801C188.001 151.801 187.701 151.801 187.401 151.801C187.101 151.801 187.001 152.201 186.601 152.101C185.901 151.901 185.601 152.301 185.201 152.501C184.701 152.701 184.301 152.801 183.901 153.201C183.701 153.401 183.201 153.101 183.001 153.201C182.901 153.201 182.101 152.001 181.901 151.601V151.401C181.901 150.901 181.801 150.101 182.101 150.001C182.501 149.901 182.901 149.601 183.301 149.401L183.101 149.301Z" fill="black"/>
<path d="M163.701 143.101C163.701 142.901 163.701 142.701 163.701 142.601C163.701 142.601 163.901 142.501 163.401 142.401C163.101 142.401 163.801 142.301 163.701 142.201C163.701 142.001 163.701 141.901 163.701 141.701C163.701 141.501 163.401 141.401 163.401 141.201C163.401 141.001 163.701 140.901 163.401 140.701C163.101 140.501 163.601 140.501 163.501 140.301C163.401 140.201 163.301 140.001 163.501 139.901C163.701 139.901 163.901 139.701 163.801 139.601C163.801 139.601 163.401 139.401 163.501 139.401C163.501 139.401 163.801 139.401 163.201 139.201C163.201 139.201 163.201 139.201 163.401 139.201C163.801 139.201 163.801 139.201 163.501 139.001C163.201 139.001 163.301 138.901 163.301 138.801C163.301 138.701 163.301 138.501 163.301 138.401C163.301 138.401 163.601 138.201 163.701 138.201C163.701 138.201 163.501 137.901 163.801 137.901C164.101 137.901 164.101 137.801 164.101 137.701C164.101 137.701 164.401 137.701 163.801 137.501C164.601 137.501 163.601 137.101 163.801 137.001C164.001 136.901 163.901 136.701 164.001 136.501C164.001 136.501 164.201 136.501 163.801 136.301C163.601 136.201 163.601 136.301 163.801 136.301C164.401 136.301 164.101 136.101 164.201 136.001C164.401 135.901 164.201 135.701 164.601 135.701C164.801 135.701 164.901 135.701 164.401 135.401C164.201 135.301 164.401 135.401 164.401 135.201L164.101 135.001C164.101 135.001 164.301 135.001 164.501 135.001C163.901 134.601 164.901 134.701 164.801 134.401C164.801 134.101 164.801 134.001 165.001 133.801C165.001 133.801 165.301 133.701 166.401 134.001C166.901 134.201 167.401 134.401 167.701 134.601C167.901 134.701 168.101 134.801 168.101 134.901C168.101 134.901 168.301 135.101 168.301 135.201C168.401 135.401 168.901 135.701 168.601 135.701C168.601 135.701 168.801 135.901 168.301 135.701C169.001 136.101 168.401 136.101 168.401 136.301C168.401 136.401 169.001 136.801 168.701 136.801C169.301 137.101 169.101 137.101 168.901 137.101C168.201 137.101 168.501 137.501 168.401 137.801C168.201 138.001 168.301 138.301 168.201 138.601C168.201 138.601 168.501 138.801 168.201 138.801C167.901 138.801 168.201 138.901 168.201 139.001C168.201 139.001 168.301 139.101 168.201 139.201C167.501 139.201 167.901 139.601 167.801 139.801C167.801 140.001 167.601 140.201 167.801 140.401C167.801 140.501 168.201 140.701 168.101 140.801C168.101 140.801 168.401 140.901 167.801 140.901C167.601 140.901 168.101 140.901 168.101 141.001C168.101 141.001 168.101 141.201 168.101 141.301C168.101 141.401 168.101 141.501 168.101 141.701L168.401 141.901V142.101C168.401 142.101 168.101 142.301 168.001 142.401C168.001 142.501 168.201 142.601 168.001 142.701C167.501 142.901 167.701 143.101 167.701 143.301C167.701 143.501 167.701 143.701 167.701 143.801C167.701 143.801 167.301 144.001 167.301 144.101C167.301 144.101 165.801 144.301 165.301 144.401H165.101C164.601 144.401 163.901 144.301 163.901 144.101C163.901 143.901 163.901 143.701 163.901 143.501L163.701 143.101Z" fill="black"/>
<path d="M174.201 143.8C174.201 143.6 174.201 143.4 174.201 143.3C174.201 143.3 174.401 143.2 173.901 143.1C173.601 143.1 174.301 143 174.201 142.9C174.201 142.7 174.201 142.6 174.201 142.4C174.201 142.2 173.901 142.1 173.901 141.9C173.901 141.7 174.201 141.6 173.901 141.4C173.601 141.2 174.101 141.2 174.001 141C173.901 140.9 173.801 140.7 174.001 140.6C174.201 140.6 174.401 140.4 174.301 140.3C174.301 140.3 173.901 140.1 174.001 140.1C174.001 140.1 174.301 140.1 173.701 139.9C173.701 139.9 173.701 139.9 173.901 139.9C174.301 139.9 174.301 139.9 174.001 139.7C173.701 139.7 173.801 139.6 173.801 139.5C173.801 139.4 173.801 139.2 173.801 139.1C173.801 139.1 174.101 138.9 174.201 138.9C174.201 138.9 174.001 138.6 174.301 138.6C174.601 138.6 174.601 138.5 174.601 138.4C174.601 138.4 174.901 138.4 174.301 138.2C175.101 138.2 174.101 137.8 174.301 137.7C174.501 137.6 174.401 137.4 174.501 137.2C174.501 137.2 174.701 137.2 174.301 137C174.101 136.9 174.101 137 174.301 137C174.901 137 174.601 136.8 174.701 136.7C174.901 136.6 174.701 136.4 175.101 136.4C175.301 136.4 175.401 136.4 174.901 136.1C174.701 136 174.901 136.1 174.901 135.9L174.601 135.7C174.601 135.7 174.801 135.7 175.001 135.7C174.401 135.3 175.401 135.4 175.301 135.1C175.301 134.8 175.301 134.7 175.501 134.5C175.501 134.5 175.801 134.4 176.901 134.7C177.401 134.9 177.901 135.1 178.201 135.3C178.401 135.4 178.601 135.5 178.601 135.6C178.601 135.6 178.801 135.8 178.801 135.9C178.901 136.1 179.401 136.4 179.101 136.4C179.101 136.4 179.301 136.6 178.801 136.4C179.501 136.8 178.901 136.8 178.901 137C178.901 137.1 179.501 137.5 179.201 137.5C179.801 137.8 179.601 137.8 179.401 137.8C178.701 137.8 179.001 138.2 178.901 138.5C178.701 138.7 178.801 139 178.701 139.3C178.701 139.3 179.001 139.5 178.701 139.5C178.401 139.5 178.701 139.6 178.701 139.7C178.701 139.7 178.801 139.8 178.701 139.9C178.001 139.9 178.401 140.3 178.301 140.5C178.301 140.7 178.101 140.9 178.301 141.1C178.301 141.2 178.701 141.4 178.601 141.5C178.601 141.5 178.901 141.6 178.301 141.6C178.101 141.6 178.601 141.6 178.601 141.7C178.601 141.7 178.601 141.9 178.601 142C178.601 142.1 178.601 142.2 178.601 142.4L178.901 142.6V142.8C178.901 142.8 178.601 143 178.501 143.1C178.501 143.2 178.701 143.3 178.501 143.4C178.001 143.6 178.201 143.8 178.201 144C178.201 144.2 178.201 144.4 178.201 144.5C178.201 144.5 177.801 144.7 177.801 144.8C177.801 144.8 176.301 145 175.801 145.1H175.601C175.101 145.1 174.401 145 174.401 144.8C174.401 144.6 174.401 144.4 174.401 144.2L174.201 143.8Z" fill="black"/>
<path d="M182.301 153.398C181.401 153.398 180.601 153.398 179.701 153.398C179.401 153.398 179.001 153.198 178.701 153.698C178.501 153.998 178.201 153.298 177.901 153.398C177.101 153.398 176.301 153.398 175.501 153.398C174.701 153.398 173.901 153.698 173.101 153.798C172.301 153.798 171.501 153.598 170.801 153.898C170.201 154.198 169.601 153.698 168.901 153.898C168.201 153.998 167.601 154.098 166.901 153.898C166.401 153.698 166.001 153.498 165.501 153.598C165.201 153.598 164.901 153.998 164.601 153.998C164.301 153.998 164.001 153.698 163.701 154.398C163.701 154.398 163.501 154.398 163.501 154.298C163.201 153.898 162.801 153.898 162.501 154.298C162.201 154.598 162.001 154.498 161.801 154.598C161.101 154.598 160.501 154.598 159.801 154.598C159.301 154.598 158.801 154.298 158.301 154.298C157.801 154.298 157.201 154.498 156.701 154.298C156.201 153.998 155.801 153.998 155.301 153.998C155.001 153.998 154.701 153.698 154.501 154.398C154.501 154.398 154.401 154.398 154.301 154.398C153.501 153.598 152.801 154.698 152.001 154.398C151.201 154.198 150.401 154.398 149.601 154.398C149.401 154.398 149.101 154.198 149.001 154.698C149.001 154.898 148.701 154.898 148.601 154.698C148.001 154.098 147.401 154.498 146.801 154.398C146.101 154.298 145.401 154.598 144.701 154.098C144.401 153.898 144.001 153.798 143.601 154.398C143.401 154.698 143.101 154.398 142.801 154.398C142.601 154.398 142.401 154.698 142.201 154.698C142.001 154.698 141.801 154.498 141.701 154.398C141.701 154.398 141.601 154.398 141.501 154.398C140.501 155.098 139.501 154.198 138.401 154.398C137.401 154.598 136.301 154.498 135.301 154.398C134.701 154.398 134.101 154.198 133.701 152.998C133.501 152.498 133.501 151.898 133.701 151.598C133.901 151.398 134.101 151.098 134.301 151.098C134.601 150.998 134.901 150.898 135.301 150.798C136.001 150.598 136.601 149.998 137.301 150.298C137.501 150.298 137.801 150.098 137.901 150.598C137.901 150.598 138.001 150.698 138.101 150.598C139.001 149.798 140.001 150.298 140.901 150.198C141.701 150.198 142.401 149.498 143.201 149.698C143.601 149.098 144.101 149.198 144.601 149.298C146.201 149.898 147.701 149.498 149.301 149.498C150.901 149.498 152.501 149.498 154.101 149.498C154.401 149.498 154.601 149.098 154.901 149.498C155.201 149.798 155.601 149.498 155.901 149.498C156.201 149.498 156.501 149.398 156.901 149.498C158.201 150.098 159.401 149.698 160.701 149.798C161.901 149.798 163.201 149.798 164.401 149.698C165.201 149.598 165.901 149.198 166.701 149.298C167.001 149.298 167.401 148.998 167.701 149.598C167.701 149.798 168.101 149.298 168.301 149.298C168.801 149.298 169.301 149.298 169.901 149.298C170.601 149.298 171.301 149.298 172.101 149.298C172.501 149.298 173.001 148.998 173.401 148.898C173.901 148.898 174.301 148.898 174.801 148.898C175.401 148.898 176.001 149.198 176.601 149.198C177.201 149.198 177.801 148.998 178.401 149.198C179.501 149.698 180.601 149.398 181.601 149.398C182.701 149.398 183.701 149.398 184.801 149.398C185.401 149.398 186.001 149.798 186.601 149.798C186.901 149.798 187.301 151.298 187.201 151.798C187.201 151.798 187.201 151.998 187.101 151.998C186.501 152.498 186.001 153.198 185.301 153.198C184.301 153.198 183.301 153.198 182.301 153.198V153.398Z" fill="black"/>
<path d="M184.2 196.799C184.3 195.999 184.5 195.299 184.6 194.499C184.6 194.199 184.9 193.999 184.4 193.599C184.2 193.399 184.8 193.199 184.8 192.999C184.8 192.299 185 191.599 185.1 190.799C185.1 190.099 185 189.399 185.1 188.699C185.1 187.999 185.5 187.299 185.2 186.599C185 185.999 185.5 185.499 185.4 184.999C185.4 184.399 185.3 183.799 185.5 183.199C185.7 182.799 185.9 182.399 185.8 181.999C185.8 181.699 185.4 181.499 185.4 181.199C185.4 180.899 185.7 180.599 185.1 180.399C185.1 180.399 185.1 180.299 185.2 180.199C185.6 179.899 185.6 179.599 185.2 179.299C184.9 179.099 184.9 178.899 184.9 178.699C184.9 178.099 184.8 177.499 184.8 176.899C184.8 176.499 185 175.999 185 175.499C185 174.999 184.7 174.599 185 174.099C185.3 173.599 185.2 173.199 185.2 172.799C185.2 172.599 185.4 172.199 184.8 172.099C184.8 172.099 184.8 171.999 184.8 171.899C185.6 171.099 184.4 170.599 184.5 169.799C184.6 169.099 184.5 168.299 184.3 167.599C184.3 167.399 184.4 167.199 184 166.999C183.8 166.999 183.8 166.699 183.9 166.599C184.5 165.999 184 165.399 184.1 164.899C184.1 164.199 183.8 163.599 184.3 162.899C184.5 162.599 184.6 162.199 184 161.899C183.7 161.799 184 161.399 184 161.199C184 160.999 183.7 160.799 183.6 160.599C183.6 160.399 183.8 160.299 183.9 160.099C183.9 160.099 183.9 159.999 183.9 159.899C183.2 158.899 184.1 157.999 183.9 156.999C183.7 155.999 183.9 154.999 184 153.999C184.1 153.499 184.3 152.899 185.5 152.699C186 152.599 186.6 152.699 186.9 152.899C187.1 153.099 187.3 153.299 187.4 153.499C187.4 153.799 187.6 154.099 187.6 154.399C187.7 154.999 188.3 155.599 187.9 156.199C187.8 156.399 188.1 156.599 187.6 156.799C187.6 156.799 187.5 156.799 187.6 156.899C188.4 157.699 187.9 158.499 187.9 159.399C187.9 160.099 188.6 160.799 188.4 161.499C189.1 161.899 189 162.299 188.8 162.699C188.2 164.099 188.8 165.499 188.8 166.899C188.8 168.299 189.1 169.799 189.2 171.199C189.2 171.399 189.6 171.599 189.4 171.899C189.2 172.199 189.4 172.499 189.4 172.899C189.4 173.199 189.6 173.499 189.4 173.799C188.8 174.999 189.4 176.099 189.4 177.299C189.4 178.499 189.4 179.599 189.6 180.799C189.7 181.499 190 182.199 189.9 182.999C189.9 183.299 190.2 183.599 189.6 183.899C189.4 183.899 189.9 184.299 189.9 184.499C189.9 184.999 189.9 185.499 189.9 185.999C189.9 186.699 189.7 187.399 189.7 187.999C189.7 188.399 189.9 188.799 189.9 189.299C189.9 189.699 189.9 190.199 189.7 190.599C189.6 191.099 189.3 191.599 189.1 192.199C189 192.699 189.1 193.399 188.8 193.899C188.1 194.799 188.2 195.799 188 196.799C187.8 197.799 187.6 198.699 187.5 199.699C187.5 200.299 186.9 200.699 186.8 201.199C186.8 201.399 185.2 201.499 184.8 201.299C184.8 201.299 184.6 201.299 184.6 201.199C184.2 200.599 183.6 199.999 183.8 199.399C184 198.499 184.1 197.599 184.3 196.799H184.2Z" fill="black"/>
<path d="M180.999 204.398C180.199 204.198 179.399 203.998 178.499 203.898C178.199 203.898 177.899 203.498 177.499 203.898C177.299 204.098 177.099 203.398 176.799 203.398C175.999 203.298 175.299 202.998 174.499 202.898C173.699 202.798 172.999 202.798 172.199 202.598C171.499 202.498 170.799 201.998 169.999 202.098C169.299 202.098 168.899 201.498 168.299 201.498C167.699 201.498 166.999 201.298 166.499 200.898C166.099 200.598 165.799 200.198 165.299 200.198C164.999 200.198 164.699 200.398 164.399 200.198C164.099 200.098 163.899 199.698 163.499 200.198C163.499 200.198 163.399 200.098 163.299 199.998C163.099 199.498 162.799 199.398 162.399 199.598C162.099 199.798 161.899 199.598 161.599 199.598C160.999 199.398 160.399 199.198 159.799 198.898C159.399 198.698 158.999 198.298 158.599 198.098C158.199 197.898 157.499 197.898 157.199 197.498C156.899 196.998 156.499 196.898 155.999 196.698C155.799 196.698 155.599 196.198 155.099 196.698C155.099 196.698 154.999 196.698 154.899 196.698C154.499 195.698 153.399 196.398 152.799 195.898C152.199 195.398 151.399 195.198 150.699 194.898C150.499 194.898 150.399 194.598 149.999 194.898C149.899 194.998 149.699 194.898 149.599 194.798C149.299 193.998 148.599 194.098 148.099 193.698C147.499 193.298 146.799 193.298 146.399 192.498C146.199 192.198 145.899 191.898 145.399 192.298C145.099 192.498 144.999 192.098 144.699 191.998C144.499 191.998 144.199 192.098 143.999 191.998C143.799 191.998 143.799 191.598 143.699 191.498C143.699 191.498 143.699 191.498 143.599 191.498C142.399 191.698 141.899 190.398 140.999 190.098C139.999 189.798 139.199 189.198 138.299 188.698C137.799 188.398 137.399 187.898 137.699 186.798C137.799 186.298 138.099 185.798 138.499 185.598C138.799 185.498 139.099 185.398 139.199 185.398C139.499 185.398 139.899 185.498 140.199 185.598C140.799 185.698 141.599 185.598 142.099 186.098C142.199 186.298 142.599 186.098 142.499 186.598V186.698C143.599 186.398 144.199 187.298 144.999 187.598C145.699 187.898 146.599 187.598 147.199 188.198C147.799 187.798 148.199 188.198 148.499 188.498C149.499 189.798 151.099 189.998 152.399 190.698C153.699 191.398 155.099 191.898 156.499 192.498C156.699 192.598 157.099 192.398 157.199 192.698C157.399 192.998 157.799 192.998 158.099 193.098C158.399 193.198 158.699 193.198 158.899 193.498C159.799 194.498 160.999 194.598 162.099 195.098C163.199 195.598 164.299 195.998 165.399 196.198C166.099 196.298 166.899 196.198 167.499 196.598C167.799 196.798 168.199 196.598 168.299 197.198C168.299 197.398 168.699 196.998 168.899 197.098C169.399 197.098 169.799 197.398 170.299 197.498C170.899 197.698 171.599 197.898 172.299 198.098C172.699 198.098 173.199 198.098 173.599 198.098C173.999 198.098 174.499 198.298 174.899 198.398C175.399 198.598 175.899 198.998 176.399 199.198C176.899 199.398 177.599 199.198 177.999 199.698C178.899 200.398 179.899 200.398 180.899 200.698C181.899 200.998 182.899 201.198 183.899 201.298C184.499 201.298 184.899 201.898 185.399 201.998C185.699 201.998 185.699 203.598 185.499 203.998C185.499 203.998 185.499 204.198 185.399 204.198C184.799 204.498 184.099 205.198 183.499 204.998C182.599 204.798 181.599 204.598 180.699 204.398H180.999Z" fill="black"/>
<path d="M121.9 154.999C120.6 154.799 119.4 154.499 118.1 154.299C117.6 154.299 117.2 153.899 116.6 154.299C116.3 154.499 116 153.699 115.6 153.599C114.4 153.399 113.3 152.799 112.2 152.499C111.1 152.099 109.9 151.899 108.8 151.399C107.7 150.999 106.8 150.099 105.6 149.899C104.6 149.699 104.1 148.799 103.3 148.399C102.4 147.999 101.5 147.399 100.9 146.699C100.7 146.399 100.5 146.099 100.2 145.899L100 145.699L99.7 145.399C99.5 145.199 99.3 145.099 99 144.899C98.4 144.499 97.6 144.199 97 143.599C96.5 143.099 96.2 142.499 94.9 142.099C94.8 142.099 94.7 141.799 94.7 141.699C94.7 141.199 94.2 140.599 93.3 139.999C92.4 139.499 92.1 138.999 91.6 138.599L89.9 136.799L89.1 135.899L88.5 135.199H88.9C90.6 135.499 92.8 136.099 94.4 136.299C95.2 136.399 96 136.499 96.7 136.499C97.4 136.499 98.2 136.699 99 136.899C100.5 137.299 101.5 137.299 102.7 137.399C103.1 137.399 103.2 137.399 103.4 137.399C103.6 137.399 103.8 137.399 104 136.999H104.2C105.3 137.899 106.4 136.799 107.5 137.099C108.7 137.399 109.9 137.299 111.1 137.499C111.4 137.499 111.7 137.799 112.1 137.399C112.2 137.299 112.6 137.299 112.7 137.399C113.5 138.199 114.5 137.999 115.4 138.299C116.4 138.699 117.6 138.799 118.4 139.599C118.8 139.999 119.3 140.299 120 139.999C120.4 139.899 120.7 140.399 121.1 140.499C121.4 140.599 121.8 140.499 122.1 140.699C122.3 140.899 122.5 141.199 122.6 141.499C122.6 141.499 122.7 141.599 122.8 141.699C124.6 142.199 125.2 143.899 126.3 144.999C127.5 145.999 128.4 147.299 129.3 148.599C129.8 149.299 130.1 150.099 129.5 151.199C129.2 151.699 128.8 151.999 128.3 151.899C128 151.899 127.6 151.699 127.4 151.499C127.1 151.199 126.7 150.899 126.3 150.599C125.6 149.999 124.6 149.599 124.2 148.699C124.1 148.399 123.6 148.399 123.9 147.899V147.699C122.5 147.299 122 146.099 121 145.399C120.1 144.799 119 144.799 118.3 144.099C117.5 144.399 117 144.099 116.6 143.699C115 142.299 112.8 142.299 110.7 141.899C108.6 141.499 106.4 141.499 104.1 141.399C103.7 141.399 103.4 141.699 102.9 141.399C102.6 141.299 102.6 141.199 102.6 141.299C102.6 141.299 102.6 141.299 102.5 141.299C102.5 141.299 102.5 141.399 102.2 141.299C101.8 140.999 101.4 140.899 101.2 140.899C100.9 140.899 100.8 140.899 100.6 140.899C100.6 140.899 100.3 140.899 100.5 140.899C100.7 141.199 101.1 141.699 101.7 141.999C102.2 142.299 102.2 141.799 103.2 142.799C103.5 143.099 104.1 143.099 104.1 143.799C104.1 143.999 104.7 143.799 105 143.999L106.8 145.099C107.6 145.599 108.5 146.099 109.4 146.499C110 146.699 110.6 146.799 111.2 146.999C111.8 147.199 112.4 147.399 112.9 147.699C113.6 148.099 114.3 148.499 115 148.899C115.8 149.299 116.7 149.199 117.3 149.699C118.6 150.599 120.1 150.699 121.5 150.999C122.9 151.299 124.4 151.499 125.9 151.499C126.7 151.499 127.5 151.999 128.3 151.999C128.7 151.999 129.2 153.499 129.1 153.999C129.1 153.999 129.1 154.199 128.9 154.199C128.1 154.599 127.2 155.399 126.3 155.299C125.6 155.299 124.8 155.199 124.1 155.099L121.9 154.799V154.999Z" fill="black"/>
<path d="M126.801 163.001C126.101 164.101 125.201 165.001 124.401 165.901C124.101 166.201 123.601 166.401 123.501 167.101C123.501 167.501 122.701 167.301 122.401 167.601C121.501 168.401 120.501 169.001 119.501 169.701C118.601 170.301 117.701 171.101 116.701 171.601C115.701 172.101 114.501 172.301 113.701 173.001C112.901 173.601 112.001 173.401 111.201 173.701C110.801 173.901 110.301 174.101 109.901 174.201C109.701 174.201 109.501 174.301 109.201 174.401H108.801C108.601 174.401 108.401 174.501 108.201 174.501C107.101 174.601 106.101 174.601 105.101 175.001C104.401 175.201 103.601 175.701 102.901 175.701C102.301 175.701 102.001 175.501 100.801 176.101C100.801 176.101 100.601 176.101 100.601 175.901C100.601 175.401 99.9008 175.401 99.1008 175.701C98.3008 175.901 97.9008 175.801 97.5008 175.801H96.0008C95.6008 175.601 95.2008 175.601 94.8008 175.501L95.7008 174.501C96.7008 173.501 97.9008 172.401 98.8008 171.601C99.3008 171.101 99.6008 170.701 100.001 170.201C100.401 169.701 100.901 169.201 101.401 168.801C102.601 168.001 103.201 167.301 104.001 166.501C104.001 166.501 104.301 166.301 104.301 166.201C104.301 166.201 104.501 166.101 104.501 166.001C104.601 165.901 104.701 165.701 104.501 165.301C104.501 165.301 104.501 165.101 104.701 165.101C106.001 165.001 106.001 163.501 106.901 162.901C107.801 162.301 108.501 161.401 109.301 160.701C109.501 160.501 109.901 160.401 109.801 159.901C109.801 159.701 110.001 159.501 110.201 159.501C111.201 159.501 111.601 158.601 112.401 158.101C113.201 157.601 113.801 156.701 114.901 156.501C115.401 156.501 115.901 156.201 115.901 155.401C115.901 155.001 116.501 155.001 116.801 154.701C117.001 154.501 117.101 154.101 117.401 153.901C117.601 153.801 118.001 153.901 118.201 153.801C118.201 153.801 118.401 153.801 118.401 153.701C119.301 152.401 121.101 152.501 122.401 151.701C123.701 150.901 125.301 150.601 126.901 150.401C127.801 150.301 128.701 150.401 129.301 151.501C129.601 152.001 129.601 152.501 129.301 152.901C129.101 153.201 128.801 153.401 128.601 153.501C128.201 153.601 127.801 153.901 127.401 154.001C126.601 154.301 126.001 155.101 125.101 155.101C124.801 155.101 124.601 155.501 124.301 155.101H124.101C123.301 156.201 122.101 156.301 121.101 156.901C120.201 157.401 119.801 158.501 118.801 158.801C118.801 159.601 118.101 159.901 117.601 160.101C115.601 160.801 114.301 162.501 112.801 163.801C111.201 165.201 109.701 166.701 108.201 168.201C107.901 168.401 108.001 168.901 107.501 169.001C107.201 169.101 107.201 169.001 107.201 169.101V169.201C107.201 169.201 107.201 169.301 107.001 169.401C106.501 169.401 106.201 169.701 106.001 169.901C105.801 170.101 105.801 170.201 105.701 170.401C105.701 170.401 105.701 170.401 105.501 170.601C105.301 170.801 105.501 170.801 105.501 170.801C105.601 170.801 105.701 170.801 105.901 170.801C106.201 170.801 106.501 170.701 106.801 170.501C107.001 170.501 107.201 170.201 107.401 170.101C107.501 170.001 107.601 169.901 107.701 169.901C107.701 169.901 107.701 169.901 107.801 169.901C108.001 169.901 108.201 169.901 108.501 170.101C108.701 170.201 108.901 169.701 109.201 169.601C109.801 169.401 110.501 169.201 111.101 169.001C112.001 168.701 112.901 168.401 113.701 168.001C114.201 167.701 114.601 167.301 115.101 167.001C115.601 166.701 116.101 166.401 116.601 166.201C117.301 165.901 118.001 165.701 118.601 165.401C119.301 165.001 119.701 164.301 120.401 164.101C121.701 163.601 122.501 162.501 123.301 161.501C124.101 160.501 124.901 159.401 125.301 158.201C125.501 157.501 126.201 157.101 126.401 156.401C126.401 156.101 128.001 155.901 128.501 156.201C128.501 156.201 128.701 156.301 128.701 156.401C129.001 157.301 129.401 158.301 129.001 159.201C128.401 160.501 127.701 161.901 126.901 163.101L126.801 163.001Z" fill="black"/>
<path d="M144.901 148.301C144.701 147.801 144.401 147.401 144.101 147.001C144.001 146.901 144.101 146.501 143.501 146.701C143.201 146.701 143.701 146.301 143.501 146.101C143.201 145.801 143.001 145.301 142.701 145.001C142.401 144.701 141.901 144.501 141.601 144.301C141.301 144.101 141.201 143.601 140.701 143.601C140.301 143.601 140.301 143.101 140.001 143.001C139.701 143.001 139.301 142.801 139.101 142.501C139.001 142.301 138.801 141.901 138.601 142.001C138.401 142.001 138.201 142.301 138.101 142.201C138.001 142.201 137.901 141.801 137.601 142.401C137.601 142.401 137.601 142.401 137.601 142.201C137.601 141.801 137.301 141.801 137.201 142.001C137.101 142.201 137.001 142.201 136.901 142.201C136.601 142.201 136.401 142.201 136.101 142.201C135.901 142.201 135.701 142.001 135.501 142.001C135.301 142.001 135.201 142.301 134.901 142.101C134.601 141.901 134.401 142.101 134.201 142.101C134.101 142.101 133.801 142.001 134.001 142.601C133.201 142.101 133.501 143.301 133.201 143.301C132.801 143.301 132.701 143.701 132.701 143.801C132.701 143.801 132.501 143.801 132.901 144.001C133.101 144.001 133.101 144.001 132.901 144.001C132.301 144.001 132.601 144.201 132.501 144.301C132.501 144.601 132.701 144.801 132.401 145.201C132.201 145.401 132.201 145.701 132.801 145.701C133.101 145.701 132.801 146.001 133.001 146.101C133.001 146.101 133.401 146.201 133.401 146.301C133.401 146.301 133.301 146.601 133.201 146.701C134.001 147.001 133.401 147.901 133.901 148.301C134.301 148.701 134.501 149.301 134.801 149.901C134.901 150.201 134.901 150.601 134.101 151.401C133.701 151.801 133.301 152.101 132.901 152.101C132.601 152.101 132.401 152.101 132.201 152.101C132.001 152.001 131.801 151.901 131.601 151.701C131.201 151.401 130.501 151.301 130.601 150.701C130.601 150.501 130.301 150.501 130.601 150.201V150.101C129.601 149.901 129.801 149.101 129.501 148.501C129.301 148.001 128.501 147.801 128.501 147.101C127.801 147.101 127.801 146.601 127.901 146.201C128.101 145.501 127.901 144.901 127.901 144.101C127.901 143.401 127.901 142.401 128.301 141.601C128.701 140.801 129.201 140.201 129.701 139.801C130.201 139.301 130.601 139.001 131.201 138.601C131.401 138.501 131.301 138.101 131.701 138.201C132.001 138.301 132.201 138.001 132.501 137.901C132.701 137.801 132.901 137.501 133.201 137.601C134.401 137.901 135.201 137.301 136.301 137.301C137.301 137.301 138.201 137.601 139.201 137.701C139.801 137.701 140.501 137.701 140.901 138.001C141.101 138.201 141.501 138.001 141.401 138.601C141.401 138.801 141.801 138.501 141.901 138.601C142.301 138.801 142.601 139.001 142.901 139.201C143.301 139.501 143.701 139.901 144.201 140.201C144.501 140.401 144.901 140.401 145.101 140.601C145.401 140.801 145.601 141.101 145.801 141.401C146.001 141.801 146.101 142.201 146.301 142.601C146.501 143.001 147.001 143.201 147.001 143.701C147.001 144.601 147.601 145.101 147.901 145.701C148.201 146.301 148.501 147.001 148.901 147.501C149.101 147.801 148.901 148.401 149.001 148.701C149.001 148.901 147.901 149.701 147.401 149.901H147.201C146.601 149.801 145.801 149.801 145.701 149.401C145.501 148.801 145.201 148.301 144.901 147.801V148.301Z" fill="black"/>
<path d="M151.399 118.398C151.599 118.998 151.699 119.598 151.799 120.098C151.799 120.298 151.699 120.598 152.199 120.698C152.499 120.698 151.899 121.098 151.999 121.298C152.199 121.798 152.199 122.398 152.399 122.898C152.599 123.398 152.899 123.898 152.999 124.398C153.199 124.898 152.999 125.498 153.399 125.998C153.699 126.398 153.399 126.898 153.399 127.298C153.599 127.698 153.699 128.198 153.499 128.698C153.399 128.998 153.199 129.398 153.299 129.698C153.299 129.898 153.699 130.098 153.699 130.298C153.699 130.498 153.399 130.798 154.099 130.898C154.099 130.898 154.099 130.998 153.999 131.098C153.599 131.398 153.699 131.598 153.999 131.798C154.299 131.998 154.299 132.098 154.299 132.298C154.299 132.798 154.399 133.198 154.299 133.698C154.299 134.098 153.999 134.398 153.999 134.798C153.999 135.198 154.199 135.598 153.999 135.898C153.699 136.198 153.699 136.598 153.699 136.898C153.699 137.098 153.399 137.298 153.999 137.498C153.999 137.498 153.999 137.498 153.999 137.598C153.099 138.098 154.199 138.698 153.999 139.198C153.799 139.698 153.799 140.298 153.699 140.898C153.699 141.098 153.499 141.198 153.899 141.398C154.099 141.398 153.999 141.598 153.899 141.698C153.199 141.998 153.499 142.498 153.299 142.898C153.099 143.398 153.299 143.898 152.699 144.298C152.399 144.498 152.299 144.698 152.699 145.098C152.899 145.298 152.699 145.498 152.699 145.598C152.699 145.798 152.899 145.998 152.899 146.098C152.899 146.198 152.599 146.298 152.499 146.398C152.499 146.398 152.499 146.398 152.499 146.498C152.899 147.398 151.799 147.798 151.699 148.598C151.599 149.398 151.099 150.198 150.399 150.898C149.999 151.298 149.399 151.598 148.499 150.898C148.099 150.598 147.699 150.098 147.599 149.798C147.599 149.598 147.399 149.298 147.499 149.198C147.499 148.998 147.499 148.798 147.499 148.598C147.499 148.198 147.199 147.698 147.699 147.498C147.799 147.498 147.699 147.198 148.099 147.298H148.199C147.699 146.498 148.399 146.098 148.499 145.498C148.599 144.998 148.199 144.398 148.499 143.998C147.999 143.598 148.099 143.298 148.499 143.098C148.999 142.698 149.099 142.198 149.199 141.698C149.199 141.198 149.199 140.698 149.399 140.198C149.699 139.198 149.599 138.198 149.799 137.198C149.799 136.998 149.499 136.898 149.799 136.698C150.099 136.498 149.799 136.298 149.799 135.998C149.799 135.798 149.699 135.598 149.799 135.398C150.499 134.598 150.099 133.798 150.099 132.998C150.099 132.198 150.099 131.398 149.899 130.598C149.799 130.098 149.399 129.698 149.399 129.198C149.399 128.998 149.099 128.798 149.599 128.498C149.799 128.498 149.299 128.298 149.199 128.098C149.199 127.798 149.099 127.398 148.999 127.098C148.999 126.598 148.899 126.198 148.799 125.698C148.799 125.398 148.399 125.198 148.299 124.898C148.199 124.598 148.099 124.298 148.099 123.998C148.099 123.598 148.199 123.198 148.199 122.798C148.199 122.398 147.799 122.098 147.999 121.598C148.299 120.798 147.999 120.198 147.799 119.498C147.699 118.798 147.599 118.098 147.199 117.498C146.999 117.098 147.399 116.598 147.299 116.298C147.299 116.098 148.599 115.498 149.099 115.398H149.299C149.899 115.698 150.699 115.798 150.699 116.298C150.799 116.998 150.999 117.598 151.199 118.298L151.399 118.398Z" fill="black"/>
<path d="M152.101 104.099C153.501 102.699 155.101 101.499 156.701 100.299C157.301 99.7992 158.101 99.6992 158.501 98.7992C158.701 98.3992 159.701 98.5992 160.201 98.1992C161.801 97.2992 163.601 96.6992 165.301 96.0992C167.001 95.4992 168.701 94.8992 170.501 94.5992C172.301 94.2992 174.101 94.5992 175.901 94.1992C177.401 93.8992 178.701 94.5992 180.201 94.6992C181.701 94.7992 183.301 94.9992 184.701 95.6992C185.201 95.8992 185.701 96.1992 186.201 96.3992C186.701 96.5992 187.201 96.7992 187.701 96.9992C188.301 97.1992 189.001 97.0992 189.701 97.3992C190.301 97.6992 190.901 98.2992 191.701 97.9992C191.701 97.9992 192.001 98.1992 192.101 98.3992C192.601 99.0992 193.301 99.4992 194.001 99.5992C194.701 99.6992 195.101 100.099 195.601 100.399C196.901 101.399 198.201 102.599 199.201 104.199C199.901 105.499 200.201 106.999 200.201 108.499C200.201 110.099 200.001 111.799 199.101 112.799C198.201 113.799 197.501 114.699 196.801 115.499C196.601 115.699 196.301 115.899 196.001 116.199C195.801 116.399 195.601 116.699 195.601 117.099C195.601 117.099 195.401 117.299 195.301 117.399C194.301 117.699 193.601 118.199 192.901 118.799C192.201 119.399 191.401 119.999 190.501 120.199C188.701 120.699 186.801 121.299 185.001 121.699C184.501 121.699 184.001 121.699 183.601 122.199C183.501 122.399 182.901 122.499 182.701 122.399C182.001 122.099 181.301 122.099 180.601 122.199C179.901 122.199 179.201 122.299 178.501 122.199C176.901 122.099 175.301 122.199 173.801 121.699C173.201 121.399 172.301 121.299 171.401 121.699C171.001 121.899 170.301 121.599 169.701 121.599C169.201 121.599 168.801 121.799 168.301 121.699C167.901 121.699 167.601 121.399 167.201 121.199C167.101 121.199 166.901 121.199 166.801 121.199C164.501 121.499 162.501 120.299 160.301 120.099C158.101 119.899 155.901 119.499 153.801 119.199C152.601 118.999 151.401 118.699 150.701 117.499C150.401 116.999 150.401 116.399 150.901 116.099C151.301 115.899 151.801 115.699 152.201 115.699C152.901 115.699 153.601 115.699 154.401 115.599C155.901 115.599 157.401 115.299 158.801 115.799C159.201 115.999 159.801 115.799 160.101 116.299C160.101 116.299 160.301 116.399 160.401 116.399C162.501 115.899 164.401 116.799 166.401 117.099C168.101 117.299 169.801 116.899 171.401 117.399C172.401 116.899 173.401 117.099 174.301 117.399C177.501 118.299 180.801 117.899 183.901 117.499C187.001 117.099 190.101 115.999 192.401 114.299C192.801 113.999 192.901 113.499 193.501 113.299C194.101 113.099 194.401 112.399 194.801 111.999C195.101 111.599 195.301 110.999 195.601 110.699C196.301 109.899 196.501 108.999 196.201 108.099C195.901 107.199 195.301 106.299 194.501 105.499C193.001 103.799 190.701 102.499 188.401 101.599C187.001 100.999 185.401 100.899 184.001 100.299C183.401 100.099 182.601 100.299 182.101 99.4992C182.001 99.2992 181.301 99.4992 180.801 99.4992C179.801 99.3992 178.701 99.1992 177.701 99.0992C176.301 98.9992 174.801 98.8992 173.401 99.0992C172.501 99.0992 171.701 99.4992 170.801 99.6992C169.901 99.8992 169.001 100.099 168.101 100.199C167.001 100.399 165.801 100.599 164.701 100.999C163.501 101.399 162.501 102.199 161.401 102.499C159.201 103.099 157.601 104.599 156.001 105.999C154.401 107.399 152.901 109.099 151.801 110.899C151.201 111.899 150.201 112.699 149.701 113.799C149.701 113.799 149.701 113.899 149.501 113.999L149.301 112.499C149.401 113.099 149.001 114.299 148.501 114.499C148.401 114.499 148.301 114.499 148.201 114.499C148.001 114.399 147.801 114.299 147.601 114.199H147.301C147.301 114.099 147.301 113.099 147.301 113.099C147.301 112.499 147.301 111.999 147.501 111.399C147.601 110.799 147.801 110.299 148.201 109.699C149.501 107.799 150.801 105.999 152.401 104.399L152.101 104.099Z" fill="black"/>
</svg>
