<svg width="300" height="300" viewBox="0 0 300 300" fill="none" xmlns="http://www.w3.org/2000/svg">
<path d="M176.6 132.902C174.9 131.102 173.2 129.202 171.5 127.402C170.8 126.702 170.4 125.902 169.3 125.502C168.8 125.302 168.6 124.202 168 123.602C166.4 121.902 164.8 120.202 163.2 118.502C161.6 116.902 160 115.702 158.4 115.202C156.8 114.602 154.7 114.102 152.5 114.402C150.7 114.602 149 114.102 147.3 114.302C145.4 114.502 143.5 114.702 141.7 114.602C140.4 114.602 139 114.502 137.7 114.802C136.9 115.002 136.2 115.402 135.3 115.502C134.5 115.602 133.5 115.502 132.9 116.302C132.9 116.302 132.5 116.302 132.3 116.302C131.3 116.102 130.3 116.302 129.6 116.802C129 117.202 128.3 117.402 127.7 117.502C125.9 118.002 124.1 118.502 122.5 119.102C121.3 119.502 120.1 119.902 119.1 120.502C118 121.202 117.5 122.302 116.7 123.102C115.9 123.902 115.5 125.002 115.2 126.202C115 126.902 114.6 127.602 115.2 128.302C115.2 128.302 115.2 128.602 115.2 128.702C114.1 130.702 115.2 132.902 115 135.002C114.8 137.302 115 139.602 115 141.902C115 142.502 114.9 143.202 115.4 143.702C115.6 143.902 115.6 144.502 115.5 144.802C115 146.502 115.5 148.302 115.5 150.102C115.5 152.102 116.1 154.102 115.8 156.102C115.7 157.002 115.8 158.102 116.4 159.102C116.7 159.502 116.6 160.502 116.8 161.302C116.9 161.902 117.3 162.402 117.4 163.002C117.4 163.502 117.4 164.002 117.3 164.602C117.3 164.802 117.3 164.902 117.3 165.102C118.4 167.902 118 170.902 118.7 173.802C119.4 176.702 119.9 179.702 120.3 182.602C120.6 184.202 120.7 185.902 119.8 187.302C119.4 187.902 118.8 188.002 118.4 187.302C118.1 186.802 117.7 186.302 117.6 185.702C117.3 184.802 117 183.902 116.8 183.002C116.3 181.202 115.4 179.402 115.3 177.402C115.3 176.802 114.9 176.102 115.3 175.502C115.3 175.502 115.3 175.202 115.3 175.002C114.1 172.502 114.1 169.702 113.6 167.102C113.2 164.802 112.2 162.702 112.2 160.402C111.4 159.202 111.3 157.702 111.4 156.402C111.5 151.802 110.7 147.302 110.6 142.702C110.6 140.402 110.5 138.002 110.5 135.702C110.5 133.402 110.5 131.002 110.8 128.602C110.8 127.802 110.6 127.002 111.1 126.002C111.5 125.102 111.7 123.902 112.1 122.802C112.5 121.802 112.9 120.702 113.6 120.002C116.6 116.802 120.3 114.902 123.8 113.802C127.3 112.802 130.9 112.002 134.5 111.302C136.7 110.802 138.8 110.202 141.1 110.102C142.1 110.102 143 109.602 144 110.102C144.3 110.302 145.1 109.802 145.8 109.702C147.3 109.602 148.9 109.602 150.4 109.602C152.5 109.602 154.6 109.602 157 110.002C158.4 110.202 159.9 110.302 161.4 111.002C162.9 111.702 164.2 112.802 165.2 113.802C166.5 115.202 167.4 116.502 168.5 117.802C169.6 119.102 171.1 120.302 172 121.702C173.8 124.302 176.1 126.402 178.1 128.702C180.2 131.002 182.2 133.302 184.4 135.502C185.6 136.702 186.4 138.202 187.5 139.502C188 140.102 187.7 141.902 187.1 142.002C187 142.002 186.8 142.002 186.7 142.002C185.2 141.102 183.6 140.502 182.4 139.002C180.5 136.902 178.5 134.802 176.6 132.802V132.902Z" fill="black"/>
<path d="M166.101 147.302C166.501 147.102 166.801 147.002 167.201 146.702C167.301 146.702 167.601 146.702 167.501 146.202C167.501 145.902 167.901 146.402 168.001 146.402C168.301 146.202 168.701 146.102 169.001 145.902C169.301 145.702 169.501 145.302 169.801 145.102C170.101 144.902 170.601 145.102 170.801 144.602C171.001 144.202 171.401 144.602 171.601 144.302C171.801 144.102 172.101 143.902 172.501 144.002C172.801 144.002 173.101 144.202 173.201 144.002C173.201 143.902 173.201 143.502 173.401 143.502C173.501 143.502 173.801 143.702 173.701 143.002C173.701 143.002 173.701 143.002 173.901 143.002C174.201 143.302 174.401 143.202 174.401 143.002C174.401 142.702 174.501 142.702 174.601 142.602C174.901 142.502 175.201 142.302 175.501 142.302C175.701 142.302 176.001 142.302 176.301 142.302C176.501 142.302 176.701 141.902 177.001 142.102C177.301 142.302 177.501 142.202 177.701 142.102C177.801 142.102 178.101 142.302 177.901 141.602C178.501 142.302 178.501 141.102 178.901 141.202C179.301 141.202 179.601 141.002 180.001 140.902C180.001 140.902 180.301 141.002 180.201 140.502C180.201 140.302 180.201 140.302 180.401 140.402C180.901 140.902 181.001 140.402 181.301 140.402C181.601 140.402 181.901 140.002 182.301 140.402C182.501 140.602 182.701 140.602 182.701 140.002C182.701 139.702 182.901 140.002 183.001 139.802C183.001 139.802 183.001 139.402 183.201 139.402C183.201 139.402 183.401 139.602 183.501 139.702C183.801 138.902 184.501 139.702 184.901 139.302C185.301 139.002 185.801 138.902 186.301 138.902C186.601 138.902 186.901 138.902 187.401 140.002C187.601 140.502 187.801 141.002 187.701 141.402C187.701 141.702 187.701 141.902 187.601 142.002C187.501 142.102 187.401 142.302 187.301 142.402C187.101 142.702 186.901 143.302 186.601 143.102C186.501 143.102 186.501 143.402 186.201 142.902C186.001 143.802 185.501 143.402 185.101 143.602C184.801 143.802 184.601 144.502 184.201 144.302C184.201 145.002 184.001 144.902 183.701 144.802C182.801 144.402 182.301 145.002 181.601 145.202C180.901 145.302 180.301 145.702 179.601 145.902C179.501 145.902 179.601 146.302 179.301 146.102C179.101 145.902 179.001 146.102 178.801 146.202C178.701 146.202 178.601 146.402 178.401 146.302C177.601 145.902 177.301 146.502 176.701 146.602C176.201 146.702 175.601 146.902 175.201 147.302C174.901 147.502 174.801 148.002 174.401 148.002C174.201 148.002 174.201 148.402 173.901 147.902C173.801 147.802 173.901 148.202 173.801 148.302C173.601 148.402 173.401 148.502 173.201 148.602C172.901 148.702 172.601 148.802 172.301 149.002C172.101 149.102 172.101 149.402 171.901 149.602C171.701 149.702 171.601 149.802 171.301 149.902C171.001 149.902 170.701 149.902 170.401 149.902C170.101 149.902 170.001 150.302 169.601 150.202C168.901 150.002 168.601 150.402 168.201 150.602C167.701 150.802 167.301 150.902 166.901 151.302C166.701 151.502 166.201 151.202 166.001 151.302C165.901 151.302 165.101 150.102 164.901 149.702V149.502C164.901 149.002 164.801 148.202 165.101 148.102C165.501 148.002 165.901 147.702 166.301 147.502L166.101 147.302Z" fill="black"/>
<path d="M146.699 141.101C146.699 140.901 146.699 140.701 146.699 140.601C146.699 140.601 146.899 140.501 146.399 140.401C146.099 140.401 146.799 140.301 146.699 140.201C146.699 140.001 146.699 139.901 146.699 139.701C146.699 139.501 146.399 139.401 146.399 139.201C146.399 139.001 146.699 138.901 146.399 138.701C146.099 138.501 146.599 138.501 146.499 138.301C146.399 138.201 146.299 138.001 146.499 137.901C146.699 137.901 146.899 137.701 146.799 137.601C146.799 137.601 146.399 137.401 146.499 137.401C146.499 137.401 146.799 137.401 146.199 137.201C146.199 137.201 146.199 137.201 146.399 137.201C146.799 137.201 146.799 137.201 146.499 137.001C146.199 137.001 146.299 136.901 146.299 136.801C146.299 136.701 146.299 136.501 146.299 136.401C146.299 136.401 146.599 136.201 146.699 136.201C146.699 136.201 146.499 135.901 146.799 135.901C147.099 135.901 147.099 135.801 147.099 135.701C147.099 135.701 147.399 135.701 146.799 135.501C147.599 135.501 146.599 135.101 146.799 135.001C146.999 134.901 146.899 134.701 146.999 134.501C146.999 134.501 147.199 134.501 146.799 134.301C146.599 134.201 146.599 134.301 146.799 134.301C147.399 134.301 147.099 134.101 147.199 134.001C147.399 133.901 147.199 133.701 147.599 133.701C147.799 133.701 147.899 133.701 147.399 133.401C147.199 133.301 147.399 133.401 147.399 133.201L147.099 133.001C147.099 133.001 147.299 133.001 147.499 133.001C146.899 132.601 147.899 132.701 147.799 132.401C147.799 132.101 147.799 132.001 147.999 131.801C147.999 131.801 148.299 131.701 149.399 132.001C149.899 132.201 150.399 132.401 150.699 132.601C150.899 132.701 151.099 132.801 151.099 132.901C151.099 132.901 151.299 133.101 151.299 133.201C151.399 133.401 151.899 133.701 151.599 133.701C151.599 133.701 151.799 133.901 151.299 133.701C151.999 134.101 151.399 134.101 151.399 134.301C151.399 134.401 151.999 134.801 151.699 134.801C152.299 135.101 152.099 135.101 151.899 135.101C151.199 135.101 151.499 135.501 151.399 135.801C151.199 136.001 151.299 136.301 151.199 136.601C151.199 136.601 151.499 136.801 151.199 136.801C150.899 136.801 151.199 136.901 151.199 137.001C151.199 137.001 151.299 137.101 151.199 137.201C150.499 137.201 150.899 137.601 150.799 137.801C150.799 138.001 150.599 138.201 150.799 138.401C150.799 138.501 151.199 138.701 151.099 138.801C151.099 138.801 151.399 138.901 150.799 138.901C150.599 138.901 151.099 138.901 151.099 139.001C151.099 139.001 151.099 139.201 151.099 139.301C151.099 139.401 151.099 139.501 151.099 139.701L151.399 139.901V140.101C151.399 140.101 151.099 140.301 150.999 140.401C150.999 140.501 151.199 140.601 150.999 140.701C150.499 140.901 150.699 141.101 150.699 141.301C150.699 141.501 150.699 141.701 150.699 141.801C150.699 141.801 150.299 142.001 150.299 142.101C150.299 142.101 148.799 142.301 148.299 142.401H148.099C147.599 142.401 146.899 142.301 146.899 142.101C146.899 141.901 146.899 141.701 146.899 141.501L146.699 141.101Z" fill="black"/>
<path d="M157.1 141.902C157.1 141.702 157.1 141.502 157.1 141.402C157.1 141.402 157.3 141.302 156.8 141.202C156.5 141.202 157.2 141.102 157.1 141.002C157.1 140.802 157.1 140.702 157.1 140.502C157.1 140.302 156.8 140.202 156.8 140.002C156.8 139.802 157.1 139.702 156.8 139.502C156.5 139.302 157 139.302 156.9 139.102C156.8 139.002 156.7 138.802 156.9 138.702C157.1 138.702 157.3 138.502 157.2 138.402C157.2 138.402 156.8 138.202 156.9 138.202C156.9 138.202 157.2 138.202 156.6 138.002C156.6 138.002 156.6 138.002 156.8 138.002C157.2 138.002 157.2 138.002 156.9 137.802C156.6 137.802 156.7 137.702 156.7 137.602C156.7 137.502 156.7 137.302 156.7 137.202C156.7 137.202 157 137.002 157.1 137.002C157.1 137.002 156.9 136.702 157.2 136.702C157.5 136.702 157.5 136.602 157.5 136.502C157.5 136.502 157.8 136.502 157.2 136.302C158 136.302 157 135.902 157.2 135.802C157.4 135.702 157.3 135.502 157.4 135.302C157.4 135.302 157.6 135.302 157.2 135.102C157 135.002 157 135.102 157.2 135.102C157.8 135.102 157.5 134.902 157.6 134.802C157.8 134.702 157.6 134.502 158 134.502C158.2 134.502 158.3 134.502 157.8 134.202C157.6 134.102 157.8 134.202 157.8 134.002L157.5 133.802C157.5 133.802 157.7 133.802 157.9 133.802C157.3 133.402 158.3 133.502 158.2 133.202C158.2 132.902 158.2 132.802 158.4 132.602C158.4 132.602 158.7 132.502 159.8 132.802C160.3 133.002 160.8 133.202 161.1 133.402C161.3 133.502 161.5 133.602 161.5 133.702C161.5 133.702 161.7 133.902 161.7 134.002C161.8 134.202 162.3 134.502 162 134.502C162 134.502 162.2 134.702 161.7 134.502C162.4 134.902 161.8 134.902 161.8 135.102C161.8 135.202 162.4 135.602 162.1 135.602C162.7 135.902 162.5 135.902 162.3 135.902C161.6 135.902 161.9 136.302 161.8 136.602C161.6 136.802 161.7 137.102 161.6 137.402C161.6 137.402 161.9 137.602 161.6 137.602C161.3 137.602 161.6 137.702 161.6 137.802C161.6 137.802 161.7 137.902 161.6 138.002C160.9 138.002 161.3 138.402 161.2 138.602C161.2 138.802 161 139.002 161.2 139.202C161.2 139.302 161.6 139.502 161.5 139.602C161.5 139.602 161.8 139.702 161.2 139.702C161 139.702 161.5 139.702 161.5 139.802C161.5 139.802 161.5 140.002 161.5 140.102C161.5 140.202 161.5 140.302 161.5 140.502L161.8 140.702V140.902C161.8 140.902 161.5 141.102 161.4 141.202C161.4 141.302 161.6 141.402 161.4 141.502C160.9 141.702 161.1 141.902 161.1 142.102C161.1 142.302 161.1 142.502 161.1 142.602C161.1 142.602 160.7 142.802 160.7 142.902C160.7 142.902 159.2 143.102 158.7 143.202H158.5C158 143.202 157.3 143.102 157.3 142.902C157.3 142.702 157.3 142.502 157.3 142.302L157.1 141.902Z" fill="black"/>
<path d="M188.2 143.801C188.5 144.501 188.7 145.301 189.1 146.001C189.2 146.301 189.1 146.601 189.7 146.801C190 146.801 189.5 147.301 189.7 147.601C190 148.301 190.1 149.001 190.4 149.701C190.7 150.401 191.1 151.001 191.4 151.701C191.4 151.901 191.5 152.001 191.5 152.201V152.501L191.7 153.001C191.8 153.601 192 154.201 192.1 154.801C192.3 155.701 191.7 156.401 191.1 157.001L190.8 157.301C190.5 157.701 190 157.901 189.5 158.101C189.3 158.201 189 158.301 188.8 158.401H188.6H188.5H188.3C187.8 158.401 187.3 158.401 187 158.601C186.8 158.801 186.6 159.101 186.3 159.201C186 159.201 185.6 159.201 185.6 159.801H185.4C185 159.501 184.7 159.601 184.5 160.001C184.3 160.301 184.1 160.401 183.9 160.401C183.3 160.601 182.7 160.801 182.1 160.901C181.6 160.901 181.1 160.901 180.7 160.901C180.2 160.901 179.8 161.301 179.3 161.101C178.8 160.901 178.4 161.001 178 161.101C177.8 161.101 177.4 160.901 177.3 161.601C177.3 161.601 177.2 161.601 177.1 161.601C176.3 160.901 175.8 162.101 175 162.001C174.2 161.901 173.5 162.101 172.7 162.201C172.5 162.201 172.3 162.101 172.1 162.501C172.1 162.701 171.8 162.701 171.7 162.501C171 161.901 170.1 162.301 169.2 161.901H169C168 161.301 167.1 160.801 166.9 159.901C166.9 159.501 166.7 159.101 166 159.001C165.7 159.001 165.7 158.501 165.5 158.301C165.3 158.101 165 158.001 164.9 157.801C164.9 157.601 164.9 157.401 164.9 157.101C164.9 157.101 164.9 157.001 164.9 156.901C163.9 156.101 164.4 154.801 164 153.901C163.6 152.901 163.5 151.901 163.5 151.001C163.5 150.501 163.5 149.901 164.7 149.401C165.2 149.201 165.7 149.101 166.1 149.301C166.4 149.401 166.6 149.601 166.7 149.801C166.8 150.101 167 150.301 167.1 150.601C167.4 151.201 168 151.601 167.8 152.201C167.8 152.401 168.1 152.501 167.6 152.801V152.901C168.5 153.501 168.2 154.301 168.5 155.001C168.8 155.601 169.6 155.801 169.6 156.401C170.3 156.401 170.4 156.701 170.4 156.901C170.4 157.301 170.5 157.501 170.6 157.601C170.7 157.601 171.2 157.601 172.1 157.601C173.5 157.601 174.8 157.301 176.2 157.101C176.4 157.101 176.6 156.701 176.9 156.901C177.2 157.101 177.5 156.901 177.8 156.801C178.1 156.801 178.3 156.601 178.6 156.701C179.8 157.101 180.8 156.501 181.8 156.201C182.9 156.001 183.9 155.701 184.9 155.201C185.5 154.901 186 154.301 186.6 154.201C186.7 154.201 186.9 154.101 187 154.001C187 154.001 187 154.001 187.3 154.301C187.4 154.401 187.3 154.001 187.3 154.001C187.3 154.001 187.3 154.001 187.4 154.001C187.4 153.901 187.4 153.801 187.4 153.701C187.4 153.501 187.3 153.401 187.2 153.301C187.1 153.101 186.9 153.001 186.9 152.801C186.7 152.401 186.6 152.001 186.5 151.601C186.5 151.101 186.5 150.501 186.4 150.001C186.3 149.501 185.9 149.001 186 148.501C186.2 147.401 185.6 146.601 185.3 145.701C185 144.801 184.7 143.901 184.2 143.101C183.9 142.601 184.2 142.001 184 141.501C184 141.301 185.1 140.401 185.6 140.301C185.6 140.301 185.8 140.301 185.9 140.301C186.5 140.601 187.4 140.801 187.6 141.301C187.9 142.201 188.3 143.001 188.6 143.801H188.2Z" fill="black"/>
<path d="M165.5 178.899C165.5 178.599 165.6 178.199 165.5 177.899C165.5 177.799 165.8 177.699 165.2 177.499C164.9 177.499 165.6 177.399 165.6 177.199C165.6 176.899 165.6 176.599 165.6 176.199C165.6 175.899 165.4 175.499 165.4 175.199C165.4 174.899 165.7 174.599 165.4 174.299C165.2 173.999 165.7 173.799 165.6 173.599C165.6 173.299 165.5 172.999 165.7 172.799C165.9 172.599 166.1 172.499 166 172.299C166 172.199 165.6 171.999 165.7 171.899C165.7 171.799 166 171.699 165.4 171.499C165.4 171.499 165.4 171.499 165.6 171.499C166 171.499 166 171.299 165.7 171.099C165.4 170.999 165.5 170.899 165.5 170.799C165.5 170.499 165.5 170.299 165.5 169.999C165.5 169.799 165.8 169.599 165.9 169.399C165.9 169.199 165.7 168.899 166.1 168.799C166.4 168.599 166.4 168.499 166.5 168.299C166.5 168.199 166.8 168.099 166.2 167.899C167.1 167.699 166 167.299 166.2 166.999C166.4 166.699 166.3 166.399 166.3 165.999C166.3 165.999 166.5 165.799 166.1 165.699C165.9 165.699 165.9 165.599 166.1 165.499C166.8 165.299 166.4 164.999 166.5 164.799C166.7 164.499 166.4 164.199 166.9 163.999C167.1 163.999 167.2 163.799 166.7 163.499C166.4 163.499 166.7 163.299 166.7 163.199C166.7 163.199 166.4 162.999 166.4 162.899C166.4 162.899 166.6 162.799 166.8 162.699C166.2 162.199 167.1 161.899 167 161.499C166.9 161.099 167 160.699 167.1 160.199C167.1 159.999 167.4 159.799 168.5 159.699C169 159.699 169.6 159.699 169.9 159.899C170.1 159.899 170.3 160.099 170.4 160.199C170.4 160.299 170.6 160.499 170.7 160.599C170.9 160.899 171.4 161.199 171 161.499C171 161.499 171.2 161.699 170.7 161.699C171.4 162.199 170.9 162.499 170.9 162.899C170.9 163.199 171.5 163.599 171.2 163.899C171.8 164.099 171.7 164.299 171.5 164.499C170.8 165.099 171.1 165.699 171 166.399C170.8 166.999 170.9 167.699 170.7 168.299C170.7 168.399 171 168.499 170.7 168.599C170.4 168.599 170.7 168.899 170.6 168.999C170.6 169.099 170.7 169.299 170.6 169.399C169.9 169.799 170.2 170.399 170.1 170.899C170 171.399 169.9 171.899 170 172.399C170 172.699 170.4 173.099 170.2 173.299C170.2 173.399 170.5 173.599 169.8 173.699C169.6 173.699 170.1 173.899 170.1 173.999C170.1 174.199 170.1 174.399 170.1 174.599C170.1 174.899 170 175.199 170.1 175.499C170.1 175.699 170.3 175.899 170.4 176.099C170.4 176.299 170.4 176.499 170.4 176.699C170.3 176.899 170.1 177.099 170 177.399C170 177.599 170.2 177.899 169.9 178.099C169.3 178.499 169.6 178.899 169.4 179.399C169.3 179.799 169.2 180.199 169.3 180.699C169.3 180.999 168.8 181.099 168.8 181.399C168.8 181.499 167.3 181.399 166.8 181.399H166.6C166.2 181.099 165.5 180.799 165.5 180.599C165.6 180.199 165.6 179.799 165.7 179.399L165.5 178.899Z" fill="black"/>
<path d="M169.9 181.398C169.5 181.398 169 181.398 168.6 181.398C168.4 181.398 168.3 181.098 168.1 181.698C168 181.998 167.9 181.298 167.7 181.298C167.3 181.298 166.9 181.198 166.5 181.198C166.1 181.198 165.7 181.398 165.3 181.398C164.9 181.398 164.5 180.998 164.1 181.298C163.7 181.498 163.5 180.898 163.2 180.998C162.8 180.998 162.5 180.998 162.2 180.698C162 180.498 161.8 180.198 161.6 180.198C161.4 180.198 161.2 180.498 161.1 180.398C161 180.398 160.9 179.998 160.6 180.598C160.6 180.598 160.6 180.598 160.6 180.398C160.6 179.998 160.4 179.898 160.1 180.098C159.9 180.298 159.8 180.298 159.7 180.198C159.4 180.198 159 180.098 158.7 179.898C158.5 179.798 158.3 179.498 158.1 179.298C157.9 179.098 157.5 179.298 157.4 178.898C157.3 178.498 157.1 178.398 156.8 178.398C156.7 178.398 156.6 177.998 156.3 178.598C156.3 177.698 155.5 178.598 155.2 178.198C154.9 177.798 154.5 177.798 154.1 177.598C154 177.598 154 177.298 153.7 177.598C153.6 177.698 153.5 177.598 153.5 177.598C153.5 176.898 153.1 177.098 152.8 176.798C152.6 176.498 152.1 176.598 152 175.998C152 175.698 151.9 175.498 151.4 175.998C151.2 176.198 151.2 175.898 151 175.798C150.9 175.798 150.6 175.998 150.6 175.898C150.6 175.898 150.6 175.598 150.6 175.498C149.8 175.798 149.9 174.698 149.3 174.598C148.8 174.398 148.4 174.098 148 173.598C147.8 173.398 147.7 172.998 148.2 171.998C148.5 171.498 148.8 171.098 149.1 170.898C149.3 170.798 149.5 170.698 149.7 170.698C149.9 170.698 150.1 170.698 150.3 170.698C150.7 170.698 151.2 170.498 151.3 170.898C151.3 170.998 151.6 170.898 151.3 171.298V171.398C152.1 170.998 152.1 171.698 152.5 171.898C152.8 172.098 153.5 171.698 153.6 172.098C154.1 171.698 154.2 171.898 154.3 172.098C154.6 172.998 155.4 172.998 156 173.398C156.6 173.798 157.3 173.998 157.9 174.398C158 174.398 158.2 174.198 158.3 174.398C158.3 174.698 158.6 174.598 158.7 174.598C158.8 174.598 159 174.598 159.1 174.798C159.4 175.598 160.1 175.398 160.6 175.698C161.1 175.898 161.7 176.198 162.2 176.198C162.6 176.198 163 175.898 163.3 176.198C163.4 176.198 163.7 175.998 163.7 176.598C163.7 176.798 163.9 176.398 164 176.398C164.2 176.398 164.5 176.398 164.7 176.498C165 176.498 165.3 176.698 165.7 176.698C165.9 176.698 166.1 176.498 166.3 176.498C166.5 176.498 166.7 176.498 166.9 176.498C167.1 176.598 167.4 176.898 167.6 176.898C167.9 176.998 168.2 176.698 168.4 176.998C168.8 177.498 169.4 177.298 169.9 177.398C170.4 177.398 170.9 177.598 171.4 177.398C171.7 177.398 171.9 177.798 172.2 177.798C172.3 177.798 172.5 179.298 172.5 179.798V179.998C172.2 180.498 172 181.198 171.6 181.198C171.1 181.198 170.6 181.198 170.1 181.198L169.9 181.398Z" fill="black"/>
<path d="M182.9 177.7C182.7 177.7 182.5 177.8 182.3 178C182.3 178 182.1 177.8 182.2 178.4C182.2 178.7 181.9 178.1 181.9 178.2C181.7 178.3 181.5 178.3 181.3 178.5C181.1 178.6 181 178.9 180.9 179.1C180.7 179.2 180.4 179.1 180.4 179.4C180.4 179.7 180 179.4 179.9 179.4C179.8 179.6 179.7 179.7 179.4 179.6C179.2 179.5 179 179.3 179 179.5V179.9C179 179.9 178.7 179.7 179 180.3C179 180.3 179 180.3 178.9 180.2C178.7 179.8 178.6 179.9 178.6 180.2C178.6 180.5 178.6 180.5 178.6 180.5C178.5 180.5 178.3 180.7 178.1 180.7C178 180.7 177.8 180.5 177.6 180.5C177.5 180.5 177.4 180.8 177.2 180.5C177 180.3 176.9 180.3 176.8 180.3C176.8 180.3 176.6 180.1 176.8 180.7C176.3 180 176.5 181.1 176.3 180.9C176 180.8 175.9 180.9 175.7 181.1C175.7 181.1 175.5 181 175.7 181.4C175.7 181.6 175.7 181.6 175.7 181.4C175.4 180.8 175.3 181.3 175.1 181.2C174.9 181.2 174.8 181.5 174.5 181.1C174.4 180.9 174.2 180.9 174.3 181.4C174.3 181.7 174.2 181.4 174.1 181.5C174.1 181.5 174.1 181.8 174.1 181.9C174.1 181.9 173.9 181.7 173.9 181.6C173.9 182.3 173.3 181.6 173.1 181.8C172.9 182 172.6 182.1 172.3 182C172.1 182 171.9 181.9 171.5 180.8C171.3 180.3 171.2 179.8 171.1 179.4C171.1 179.2 171.1 178.9 171.1 178.9C171.1 178.8 171.1 178.6 171.2 178.5C171.3 178.3 171.3 177.7 171.6 177.9C171.6 177.9 171.6 177.7 171.8 178.1C171.8 177.3 172.2 177.7 172.4 177.6C172.6 177.5 172.6 176.8 172.8 177C172.8 176.4 172.8 176.4 173 176.6C173.6 177.1 173.8 176.6 174.2 176.6C174.6 176.6 174.9 176.4 175.3 176.3C175.3 176.3 175.3 175.9 175.5 176.2C175.7 176.4 175.7 176.2 175.8 176.2C175.8 176.2 175.9 176 176 176.2C176.5 176.7 176.7 176.2 177 176.2C177.3 176.2 177.6 176.2 177.8 175.9C177.9 175.7 178 175.4 178.2 175.4C178.2 175.4 178.2 175.1 178.5 175.6C178.5 175.7 178.5 175.3 178.5 175.3C178.5 175.3 178.7 175.2 178.8 175.1C179 175.1 179.1 175.1 179.3 174.9C179.3 174.9 179.3 174.6 179.5 174.5C179.5 174.5 179.7 174.4 179.8 174.4C180 174.4 180.2 174.6 180.3 174.6C180.5 174.6 180.5 174.3 180.7 174.5C181.1 174.9 181.3 174.5 181.5 174.5C181.8 174.5 182 174.4 182.2 174.2C182.3 174.1 182.6 174.5 182.8 174.4C182.8 174.4 183.6 175.7 183.8 176.1V176.3C183.8 176.8 184 177.5 183.8 177.5C183.5 177.5 183.3 177.7 183.1 177.8L182.9 177.7Z" fill="black"/>
<path d="M127.801 111.002C127.601 110.402 127.401 109.802 127.001 109.202C126.901 109.002 127.001 108.702 126.401 108.702C126.101 108.702 126.601 108.202 126.401 108.102C126.001 107.702 125.801 107.202 125.401 106.802C125.001 106.402 124.501 106.302 124.001 106.102C123.601 105.902 123.301 105.402 122.801 105.602C122.401 105.702 122.201 105.202 121.801 105.202C121.401 105.202 121.001 105.302 120.601 105.202C120.301 105.002 120.001 104.902 119.701 105.002C119.501 105.102 119.401 105.502 119.201 105.502C119.001 105.502 118.701 105.402 118.801 106.002C118.801 106.002 118.701 106.002 118.601 106.002C118.301 105.702 118.001 105.802 118.001 106.202C118.001 106.502 117.801 106.602 117.701 106.602C117.301 106.802 117.001 107.102 116.601 107.302C116.301 107.502 115.901 107.502 115.601 107.602C115.301 107.802 115.201 108.302 114.701 108.302C114.201 108.302 114.001 108.602 113.801 108.802C113.701 108.902 113.301 108.902 113.801 109.402C112.801 109.402 113.501 110.402 113.101 110.602C112.701 110.902 112.801 111.402 112.801 111.702C112.801 111.702 112.601 111.902 113.101 111.902C113.301 111.902 113.301 111.902 113.101 112.002C112.501 112.402 113.101 112.702 113.101 113.102C113.101 113.602 113.701 114.002 113.501 114.702C113.501 115.002 113.501 115.402 114.101 115.302C114.401 115.302 114.301 115.702 114.401 115.802C114.501 115.902 114.801 115.902 114.901 116.102C114.901 116.202 114.901 116.502 114.801 116.602V116.702C115.801 117.102 115.401 118.302 116.001 118.902C116.601 119.502 116.901 120.302 117.301 121.102C117.501 121.502 117.601 122.002 116.701 122.902C116.301 123.302 115.801 123.602 115.501 123.602C115.201 123.602 114.901 123.602 114.801 123.402C114.601 123.202 114.301 123.002 114.101 122.902C113.701 122.502 112.901 122.302 112.901 121.702C112.901 121.502 112.501 121.502 112.901 121.102V121.002C111.801 120.702 111.901 119.802 111.501 119.102C111.101 118.502 110.301 118.202 110.201 117.502C109.501 117.502 109.401 117.002 109.401 116.602C109.401 115.802 109.201 115.202 108.901 114.502C108.601 113.802 108.301 112.902 108.301 111.902C108.301 109.902 109.101 108.202 110.101 106.902C110.301 106.702 110.101 106.302 110.501 106.202C110.901 106.202 111.001 105.702 111.201 105.502C111.401 105.302 111.501 105.002 111.901 104.902C113.201 104.602 113.801 103.602 114.901 103.002C115.901 102.502 117.001 102.002 118.101 101.502C118.801 101.202 119.501 100.702 120.301 100.802C120.601 100.802 121.001 100.502 121.301 101.102C121.301 101.302 121.701 100.802 121.901 100.802C122.501 100.802 123.001 100.902 123.601 101.102C124.401 101.302 125.101 101.602 125.801 102.002C126.201 102.202 126.801 102.202 127.201 102.502C127.601 102.802 128.001 103.102 128.301 103.502C128.701 104.002 128.901 104.602 129.201 105.102C129.501 105.602 130.101 106.002 130.101 106.602C130.101 107.802 130.801 108.502 131.101 109.502C131.401 110.402 131.601 111.302 132.001 112.202C132.201 112.702 131.801 113.302 132.001 113.702C132.001 113.902 130.701 114.602 130.201 114.602C130.201 114.602 130.001 114.602 129.901 114.602C129.301 114.302 128.501 114.002 128.401 113.502C128.301 112.702 128.001 112.002 127.701 111.302L127.801 111.002Z" fill="black"/>
<path d="M167.501 114.999C167.801 114.499 168.101 113.999 168.201 113.399C168.201 113.199 168.601 112.999 168.201 112.699C168.001 112.499 168.701 112.499 168.701 112.299C168.701 111.699 169.001 111.199 168.901 110.599C168.901 109.999 168.701 109.499 168.601 108.999C168.601 108.699 168.601 108.499 168.601 108.199C168.601 107.899 168.601 107.699 168.301 107.499C168.001 107.099 168.301 106.599 168.101 106.299C167.801 105.899 167.601 105.499 167.601 105.099C167.601 104.799 167.601 104.399 167.401 104.199C167.201 104.099 166.901 104.199 166.801 103.999C166.801 103.899 166.801 103.499 166.201 103.799C166.201 103.799 166.201 103.799 166.201 103.599C166.401 103.199 166.201 102.999 165.901 103.199C165.601 103.299 165.501 103.199 165.401 103.199C165.101 102.999 164.701 102.899 164.401 102.699C164.201 102.499 164.001 102.199 163.701 102.099C163.401 101.899 163.001 102.099 162.801 101.799C162.501 101.499 162.201 101.399 161.901 101.399C161.701 101.399 161.501 101.099 161.401 101.699C161.401 101.699 161.401 101.699 161.301 101.699C160.701 100.899 160.301 101.999 159.801 101.899C159.201 101.799 158.701 102.099 158.201 102.299C158.101 102.299 157.801 102.299 157.901 102.699C157.901 102.899 157.801 102.899 157.701 102.899C157.101 102.499 156.801 102.999 156.401 103.099C155.901 103.199 155.601 103.699 155.001 103.599C154.701 103.599 154.401 103.599 154.601 104.199C154.601 104.499 154.401 104.399 154.301 104.499C154.301 104.599 154.301 104.899 154.301 104.999C154.301 104.999 154.001 104.999 153.901 104.999C154.001 105.399 153.901 105.499 153.701 105.699C153.501 105.899 153.301 106.099 153.301 106.399C153.301 106.999 153.301 107.699 153.301 108.399C153.301 108.799 153.101 109.299 152.001 109.699C151.501 109.899 150.901 109.899 150.601 109.699C150.301 109.599 150.101 109.399 150.001 109.299C149.901 108.999 149.701 108.799 149.601 108.499C149.401 107.899 148.801 107.299 149.201 106.699C149.201 106.499 149.001 106.199 149.601 106.099C149.601 106.099 149.701 106.099 149.601 105.999C148.901 104.999 149.801 103.999 150.201 103.199C150.601 102.399 150.701 101.399 151.501 100.999C151.501 100.199 152.001 99.9989 152.401 99.8989C153.201 99.6989 153.901 99.4989 154.501 99.0989C155.101 98.7989 155.801 98.3989 156.501 98.1989C157.901 97.7989 159.401 97.2989 160.901 97.2989C161.201 97.2989 161.401 96.8989 161.701 97.2989C162.001 97.5989 162.401 97.2989 162.701 97.3989C163.001 97.3989 163.401 97.3989 163.601 97.4989C164.701 98.3989 165.901 98.2989 167.001 98.9989C168.101 99.6989 169.001 100.499 169.901 101.399C170.401 101.899 171.201 102.399 171.401 103.199C171.401 103.499 171.901 103.699 171.501 104.199C171.401 104.299 171.901 104.399 172.001 104.599C172.201 104.999 172.301 105.499 172.501 105.999C172.701 106.699 172.801 107.399 172.901 107.999C173.001 108.399 173.301 108.799 173.301 109.199C173.301 109.599 173.301 110.099 173.301 110.499C173.201 111.099 172.901 111.599 172.801 112.099C172.701 112.699 172.801 113.299 172.401 113.799C171.601 114.599 171.501 115.699 171.001 116.499C170.401 117.399 169.801 118.199 169.201 118.999C168.801 119.499 168.101 119.499 167.701 119.799C167.501 119.999 166.401 118.999 166.201 118.499V118.299C166.201 117.699 166.101 116.899 166.401 116.599C166.901 116.199 167.301 115.699 167.601 115.099L167.501 114.999Z" fill="black"/>
<path d="M179.3 187.5C179.4 187 179.6 186.4 179.6 185.9C179.6 185.7 179.9 185.5 179.4 185.2C179.2 185 179.8 185 179.8 184.8C179.8 184.3 180 183.8 180.1 183.3C180.1 182.8 180.1 182.3 180.1 181.8C180.1 181.3 180.5 180.9 180.3 180.3C180.1 179.8 180.7 179.6 180.6 179.2C180.6 178.8 180.6 178.3 180.9 178C181.1 177.7 181.4 177.5 181.3 177.2C181.3 177 181 176.8 181 176.6C181 176.4 181.4 176.3 180.8 176C180.8 176 180.8 176 181 175.9C181.4 175.8 181.5 175.5 181.2 175.3C181 175.1 181 175 181 174.8C181 174.4 181 174 181.2 173.6C181.2 173.3 181.6 173 181.7 172.7C181.8 172.4 181.6 172 181.9 171.7C182.2 171.4 182.3 171.2 182.3 170.9C182.3 170.7 182.6 170.6 182 170.3C182 170.3 182 170.3 182 170.2C182.9 169.8 181.9 169.2 182.2 168.8C182.5 168.3 182.4 167.8 182.5 167.3C182.5 167.2 182.7 167 182.3 166.9C182.1 166.9 182.1 166.7 182.3 166.6C183 166.3 182.6 165.9 182.8 165.5C183 165.1 182.8 164.6 183.3 164.2C183.5 164 183.7 163.8 183.1 163.5C182.8 163.4 183.1 163.2 183.1 163C183.1 162.9 182.8 162.7 182.8 162.6C182.8 162.5 183.1 162.4 183.2 162.3C183.2 162.3 183.2 162.3 183.2 162.2C182.6 161.5 183.6 161 183.5 160.3C183.4 159.6 183.5 159 183.7 158.3C183.7 157.9 184 157.6 185.2 157.5C185.7 157.5 186.3 157.5 186.6 157.7C186.8 157.8 187 158 187.1 158.1C187.1 158.3 187.3 158.5 187.4 158.8C187.5 159.2 188 159.7 187.7 160.1C187.6 160.2 187.9 160.4 187.4 160.5C188.1 161.2 187.5 161.7 187.5 162.3C187.5 162.8 188.1 163.4 187.7 163.8C188.3 164.2 188.1 164.5 187.9 164.7C187.1 165.6 187.4 166.7 187.2 167.6C187 168.6 186.9 169.6 186.7 170.6C186.7 170.8 187 171 186.7 171.1C186.4 171.2 186.6 171.5 186.5 171.7C186.5 171.9 186.5 172.1 186.4 172.3C185.6 173 185.9 173.8 185.7 174.6C185.5 175.4 185.3 176.1 185.3 177C185.3 177.5 185.6 178 185.3 178.5C185.3 178.7 185.5 179 184.9 179.1C184.7 179.1 185.1 179.4 185.1 179.5C185.1 179.8 185 180.2 184.9 180.5C184.9 181 184.7 181.4 184.7 181.9C184.7 182.2 184.9 182.5 184.9 182.8C184.9 183.1 184.9 183.4 184.7 183.7C184.6 184.1 184.3 184.4 184.1 184.7C184 185.1 184.1 185.5 183.8 185.8C183.2 186.4 183.3 187.1 183.1 187.8C182.9 188.5 182.7 189.1 182.7 189.8C182.7 190.2 182.1 190.4 182 190.8C182 191 180.5 190.8 180 190.7C180 190.7 179.8 190.7 179.8 190.6C179.4 190.1 178.8 189.6 178.9 189.2C179.1 188.6 179.2 188 179.3 187.4V187.5Z" fill="black"/>
</svg>
