<svg width="300" height="300" viewBox="0 0 300 300" fill="none" xmlns="http://www.w3.org/2000/svg">
<path d="M176.6 132.902C174.9 131.102 173.2 129.202 171.5 127.402C170.8 126.702 170.4 125.902 169.3 125.502C168.8 125.302 168.6 124.202 168 123.602C166.4 121.902 164.8 120.202 163.2 118.502C161.6 116.902 160 115.702 158.4 115.202C156.8 114.602 154.7 114.102 152.5 114.402C150.7 114.602 149 114.102 147.3 114.302C145.4 114.502 143.5 114.702 141.7 114.602C140.4 114.602 139 114.502 137.7 114.802C136.9 115.002 136.2 115.402 135.3 115.502C134.5 115.602 133.5 115.502 132.9 116.302C132.9 116.302 132.5 116.302 132.3 116.302C131.3 116.102 130.3 116.302 129.6 116.802C129 117.202 128.3 117.402 127.7 117.502C125.9 118.002 124.1 118.502 122.5 119.102C121.3 119.502 120.1 119.902 119.1 120.502C118 121.202 117.5 122.302 116.7 123.102C115.9 123.902 115.5 125.002 115.2 126.202C115 126.902 114.6 127.602 115.2 128.302C115.2 128.302 115.2 128.602 115.2 128.702C114.1 130.702 115.2 132.902 115 135.002C114.8 137.302 115 139.602 115 141.902C115 142.502 114.9 143.202 115.4 143.702C115.6 143.902 115.6 144.502 115.5 144.802C115 146.502 115.5 148.302 115.5 150.102C115.5 152.102 116.1 154.102 115.8 156.102C115.7 157.002 115.8 158.102 116.4 159.102C116.7 159.502 116.6 160.502 116.8 161.302C116.9 161.902 117.3 162.402 117.4 163.002C117.4 163.502 117.4 164.002 117.3 164.602C117.3 164.802 117.3 164.902 117.3 165.102C118.4 167.902 118 170.902 118.7 173.802C119.4 176.702 119.9 179.702 120.3 182.602C120.6 184.202 120.7 185.902 119.8 187.302C119.4 187.902 118.8 188.002 118.4 187.302C118.1 186.802 117.7 186.302 117.6 185.702C117.3 184.802 117 183.902 116.8 183.002C116.3 181.202 115.4 179.402 115.3 177.402C115.3 176.802 114.9 176.102 115.3 175.502C115.3 175.502 115.3 175.202 115.3 175.002C114.1 172.502 114.1 169.702 113.6 167.102C113.2 164.802 112.2 162.702 112.2 160.402C111.4 159.202 111.3 157.702 111.4 156.402C111.5 151.802 110.7 147.302 110.6 142.702C110.6 140.402 110.5 138.002 110.5 135.702C110.5 133.402 110.5 131.002 110.8 128.602C110.8 127.802 110.6 127.002 111.1 126.002C111.5 125.102 111.7 123.902 112.1 122.802C112.5 121.802 112.9 120.702 113.6 120.002C116.6 116.802 120.3 114.902 123.8 113.802C127.3 112.802 130.9 112.002 134.5 111.302C136.7 110.802 138.8 110.202 141.1 110.102C142.1 110.102 143 109.602 144 110.102C144.3 110.302 145.1 109.802 145.8 109.702C147.3 109.602 148.9 109.602 150.4 109.602C152.5 109.602 154.6 109.602 157 110.002C158.4 110.202 159.9 110.302 161.4 111.002C162.9 111.702 164.2 112.802 165.2 113.802C166.5 115.202 167.4 116.502 168.5 117.802C169.6 119.102 171.1 120.302 172 121.702C173.8 124.302 176.1 126.402 178.1 128.702C180.2 131.002 182.2 133.302 184.4 135.502C185.6 136.702 186.4 138.202 187.5 139.502C188 140.102 187.7 141.902 187.1 142.002C187 142.002 186.8 142.002 186.7 142.002C185.2 141.102 183.6 140.502 182.4 139.002C180.5 136.902 178.5 134.802 176.6 132.802V132.902Z" fill="black"/>
<path d="M166.101 147.302C166.501 147.102 166.801 147.002 167.201 146.702C167.301 146.702 167.601 146.702 167.501 146.202C167.501 145.902 167.901 146.402 168.001 146.402C168.301 146.202 168.701 146.102 169.001 145.902C169.301 145.702 169.501 145.302 169.801 145.102C170.101 144.902 170.601 145.102 170.801 144.602C171.001 144.202 171.401 144.602 171.601 144.302C171.801 144.102 172.101 143.902 172.501 144.002C172.801 144.002 173.101 144.202 173.201 144.002C173.201 143.902 173.201 143.502 173.401 143.502C173.501 143.502 173.801 143.702 173.701 143.002C173.701 143.002 173.701 143.002 173.901 143.002C174.201 143.302 174.401 143.202 174.401 143.002C174.401 142.702 174.501 142.702 174.601 142.602C174.901 142.502 175.201 142.302 175.501 142.302C175.701 142.302 176.001 142.302 176.301 142.302C176.501 142.302 176.701 141.902 177.001 142.102C177.301 142.302 177.501 142.202 177.701 142.102C177.801 142.102 178.101 142.302 177.901 141.602C178.501 142.302 178.501 141.102 178.901 141.202C179.301 141.202 179.601 141.002 180.001 140.902C180.001 140.902 180.301 141.002 180.201 140.502C180.201 140.302 180.201 140.302 180.401 140.402C180.901 140.902 181.001 140.402 181.301 140.402C181.601 140.402 181.901 140.002 182.301 140.402C182.501 140.602 182.701 140.602 182.701 140.002C182.701 139.702 182.901 140.002 183.001 139.802C183.001 139.802 183.001 139.402 183.201 139.402C183.201 139.402 183.401 139.602 183.501 139.702C183.801 138.902 184.501 139.702 184.901 139.302C185.301 139.002 185.801 138.902 186.301 138.902C186.601 138.902 186.901 138.902 187.401 140.002C187.601 140.502 187.801 141.002 187.701 141.402C187.701 141.702 187.701 141.902 187.601 142.002C187.501 142.102 187.401 142.302 187.301 142.402C187.101 142.702 186.901 143.302 186.601 143.102C186.501 143.102 186.501 143.402 186.201 142.902C186.001 143.802 185.501 143.402 185.101 143.602C184.801 143.802 184.601 144.502 184.201 144.302C184.201 145.002 184.001 144.902 183.701 144.802C182.801 144.402 182.301 145.002 181.601 145.202C180.901 145.302 180.301 145.702 179.601 145.902C179.501 145.902 179.601 146.302 179.301 146.102C179.101 145.902 179.001 146.102 178.801 146.202C178.701 146.202 178.601 146.402 178.401 146.302C177.601 145.902 177.301 146.502 176.701 146.602C176.201 146.702 175.601 146.902 175.201 147.302C174.901 147.502 174.801 148.002 174.401 148.002C174.201 148.002 174.201 148.402 173.901 147.902C173.801 147.802 173.901 148.202 173.801 148.302C173.601 148.402 173.401 148.502 173.201 148.602C172.901 148.702 172.601 148.802 172.301 149.002C172.101 149.102 172.101 149.402 171.901 149.602C171.701 149.702 171.601 149.802 171.301 149.902C171.001 149.902 170.701 149.902 170.401 149.902C170.101 149.902 170.001 150.302 169.601 150.202C168.901 150.002 168.601 150.402 168.201 150.602C167.701 150.802 167.301 150.902 166.901 151.302C166.701 151.502 166.201 151.202 166.001 151.302C165.901 151.302 165.101 150.102 164.901 149.702V149.502C164.901 149.002 164.801 148.202 165.101 148.102C165.501 148.002 165.901 147.702 166.301 147.502L166.101 147.302Z" fill="black"/>
<path d="M168.6 166.202C168.6 165.902 168.5 165.502 168.3 165.202C168.3 165.102 168.5 164.902 167.9 164.902C167.6 164.902 168.2 164.602 168.2 164.502C168.1 164.202 168.1 163.902 167.9 163.602C167.8 163.302 167.5 163.102 167.3 162.802C167.2 162.502 167.3 162.102 167 161.902C166.7 161.702 167.1 161.402 167 161.202C166.8 161.002 166.7 160.702 166.8 160.402C166.9 160.202 167.1 160.002 166.9 159.802C166.9 159.802 166.5 159.702 166.5 159.602C166.5 159.502 166.7 159.302 166.1 159.302C166.1 159.302 166.1 159.302 166.2 159.202C166.6 159.002 166.5 158.802 166.2 158.802C165.9 158.802 165.9 158.702 165.9 158.602C165.9 158.402 165.7 158.102 165.7 157.902C165.7 157.702 165.9 157.502 165.9 157.302C165.9 157.102 165.6 157.002 165.9 156.702C166.2 156.402 166.1 156.302 166 156.102C166 156.102 166.2 155.802 165.6 155.902C166.3 155.402 165.2 155.402 165.3 155.102C165.4 154.802 165.3 154.502 165.1 154.202C165.1 154.202 165.2 154.002 164.8 154.002C164.6 154.002 164.6 154.002 164.7 153.902C165.2 153.502 164.8 153.402 164.9 153.102C164.9 152.802 164.6 152.602 164.9 152.202C165.1 152.002 165.1 151.902 164.5 151.902C164.2 151.902 164.5 151.702 164.4 151.602C164.4 151.602 164 151.602 164 151.502C164 151.502 164.2 151.302 164.3 151.202C163.6 151.002 164.3 150.402 164 150.102C163.7 149.802 163.7 149.402 163.6 149.002C163.6 148.802 163.6 148.502 164.7 148.002C165.2 147.802 165.7 147.602 166 147.602C166.2 147.602 166.5 147.602 166.6 147.602C166.7 147.602 166.9 147.802 167 147.902C167.3 148.102 167.9 148.202 167.7 148.502C167.7 148.602 168 148.602 167.5 148.802C168.4 148.902 168 149.402 168.1 149.802C168.2 150.102 168.9 150.202 168.7 150.602C169.4 150.602 169.3 150.802 169.2 151.002C168.7 151.802 169.3 152.202 169.4 152.902C169.4 153.502 169.7 154.102 169.8 154.702C169.8 154.802 170.2 154.802 170 155.002C169.8 155.202 170 155.302 170 155.402C170 155.502 170.2 155.602 170 155.802C169.5 156.402 170 156.802 170 157.302C170 157.802 170 158.302 170.4 158.702C170.6 159.002 171 159.202 170.9 159.502C170.9 159.602 171.2 159.702 170.7 159.902C170.5 159.902 171 159.902 171.1 160.102C171.1 160.302 171.2 160.502 171.3 160.702C171.3 161.002 171.3 161.302 171.5 161.502C171.5 161.702 171.9 161.802 172 161.902C172.1 162.102 172.1 162.202 172.1 162.402C172.1 162.602 171.9 162.902 171.9 163.102C171.9 163.302 172.2 163.502 172 163.802C171.6 164.302 172 164.702 172 165.102C172 165.502 172.1 165.902 172.3 166.302C172.4 166.502 172 166.802 172.1 167.102C172.1 167.102 170.7 167.702 170.2 167.802H170C169.5 167.802 168.7 167.802 168.7 167.402C168.7 167.002 168.5 166.702 168.4 166.302L168.6 166.202Z" fill="black"/>
<path d="M162.2 186.203C162.3 185.803 162.5 185.403 162.5 185.003C162.5 184.803 162.8 184.803 162.4 184.503C162.2 184.303 162.8 184.403 162.8 184.203C162.8 183.803 163.1 183.503 163.1 183.103C163.1 182.703 163.1 182.303 163.1 181.903C163.1 181.503 163.6 181.303 163.4 180.803C163.2 180.403 163.8 180.303 163.8 180.003C163.8 179.703 163.8 179.303 164.1 179.103C164.3 178.903 164.6 178.803 164.6 178.603C164.6 178.403 164.3 178.203 164.4 178.103C164.4 178.003 164.8 177.903 164.2 177.603C164.2 177.603 164.2 177.603 164.4 177.603C164.8 177.603 164.9 177.403 164.6 177.203C164.4 177.003 164.5 176.903 164.5 176.803C164.5 176.503 164.6 176.203 164.8 175.903C164.9 175.703 165.2 175.603 165.4 175.403C165.5 175.203 165.4 174.903 165.7 174.703C166.1 174.603 166.1 174.403 166.2 174.203C166.2 174.103 166.6 174.003 166 173.703C166.9 173.703 166 173.003 166.3 172.703C166.6 172.403 166.6 172.003 166.7 171.703C166.7 171.703 166.9 171.603 166.5 171.303C166.4 171.303 166.4 171.103 166.5 171.103C167.2 171.103 166.9 170.603 167.1 170.403C167.3 170.103 167.1 169.703 167.7 169.603C167.9 169.603 168.1 169.403 167.6 169.103C167.4 168.903 167.6 168.903 167.6 168.803C167.6 168.703 167.3 168.503 167.4 168.403C167.4 168.403 167.7 168.403 167.8 168.303C167.3 167.703 168.3 167.503 168.2 167.003C168.2 166.703 168.2 166.603 168.2 166.303C168.2 166.003 168.4 165.703 168.6 165.303C168.8 164.903 169.3 164.503 170.4 165.103C170.9 165.303 171.3 165.703 171.5 166.003C171.6 166.203 171.8 166.403 171.8 166.503C171.8 166.603 171.9 166.803 172 166.903C172.1 167.103 172.6 167.403 172.2 167.703C172.1 167.703 172.3 168.003 171.8 167.903C172.5 168.503 171.8 168.903 171.8 169.303C171.8 169.703 172.2 170.203 171.8 170.503C172.3 170.903 172.2 171.103 171.9 171.203C171 171.703 171.2 172.503 170.9 173.203C170.6 173.903 170.4 174.603 170.1 175.303C170.1 175.403 170.4 175.603 170.1 175.703C169.8 175.703 169.9 176.003 169.9 176.103C169.9 176.203 169.9 176.403 169.7 176.503C168.9 176.803 169.1 177.503 168.8 178.003C168.5 178.503 168.3 179.003 168.3 179.603C168.3 180.003 168.5 180.403 168.3 180.703C168.2 180.803 168.5 181.103 167.9 181.003C167.7 181.003 168.1 181.303 168.1 181.403C168.1 181.603 168 181.903 167.9 182.103C167.8 182.403 167.6 182.703 167.6 183.103C167.6 183.303 167.7 183.603 167.7 183.803C167.7 184.003 167.7 184.203 167.5 184.403C167.3 184.603 167.1 184.803 166.9 185.103C166.8 185.303 166.9 185.703 166.6 185.903C166 186.203 166.1 186.803 165.9 187.203C165.7 187.603 165.5 188.103 165.5 188.603C165.5 188.903 165 189.003 164.9 189.203C164.9 189.303 163.4 189.203 162.9 189.003H162.7C162.3 188.603 161.7 188.203 161.8 187.903C162 187.403 162.1 187.003 162.2 186.503V186.203Z" fill="black"/>
<path d="M151.001 135.801C151.001 136.001 150.901 136.101 150.901 136.301C150.901 136.301 150.601 136.301 151.101 136.601C151.401 136.601 150.701 136.601 150.701 136.601C150.701 136.801 150.701 136.901 150.701 137.101C150.701 137.301 150.901 137.501 150.901 137.601C150.901 137.801 150.601 137.901 150.901 138.101C151.201 138.301 150.601 138.301 150.701 138.401C150.801 138.601 150.901 138.701 150.701 138.801C150.501 138.801 150.301 138.901 150.401 139.001C150.401 139.001 150.801 139.201 150.701 139.201C150.701 139.201 150.401 139.201 151.001 139.401C151.001 139.401 151.001 139.401 150.801 139.401C150.401 139.401 150.401 139.401 150.701 139.601C151.001 139.601 150.901 139.701 150.901 139.801C150.901 139.901 150.901 140.101 150.901 140.201C150.901 140.201 150.601 140.401 150.501 140.501C150.501 140.501 150.701 140.701 150.401 140.801C150.101 140.801 150.101 141.001 150.101 141.101C150.101 141.101 149.801 141.201 150.401 141.301C149.601 141.401 150.601 141.601 150.401 141.801C150.201 142.001 150.401 142.101 150.401 142.301C150.401 142.301 150.201 142.301 150.701 142.401C150.901 142.401 150.901 142.401 150.701 142.401C150.101 142.501 150.501 142.601 150.301 142.801C150.201 142.901 150.501 143.101 150.001 143.201C149.801 143.201 149.701 143.401 150.301 143.401C150.601 143.401 150.301 143.501 150.301 143.601C150.301 143.601 150.601 143.601 150.601 143.701C150.601 143.701 150.401 143.701 150.301 143.801C151.001 144.001 150.101 144.201 150.301 144.401C150.501 144.601 150.401 144.801 150.301 145.001C150.301 145.101 150.101 145.301 148.901 145.401C148.401 145.401 147.801 145.501 147.501 145.501C147.301 145.501 147.001 145.501 147.001 145.501C146.901 145.501 146.801 145.401 146.701 145.301C146.501 145.201 145.901 145.101 146.201 144.901C146.201 144.901 146.001 144.901 146.501 144.701C145.701 144.501 146.201 144.301 146.101 144.101C146.101 143.901 145.401 143.801 145.701 143.601C145.101 143.601 145.201 143.401 145.401 143.301C146.101 142.901 145.601 142.601 145.701 142.201C145.701 141.801 145.701 141.501 145.701 141.101C145.701 141.101 145.401 141.001 145.701 140.901C146.001 140.901 145.701 140.701 145.701 140.701C145.701 140.701 145.601 140.501 145.701 140.501C146.401 140.301 146.001 139.901 146.101 139.701C146.201 139.401 146.301 139.101 146.101 138.801C146.101 138.601 145.701 138.401 145.901 138.201C145.901 138.201 145.601 138.001 146.201 138.001C146.401 138.001 145.901 137.901 145.901 137.801C145.901 137.701 145.901 137.601 145.901 137.401C145.901 137.201 146.001 137.101 145.901 136.901C145.901 136.801 145.701 136.601 145.601 136.501C145.601 136.401 145.601 136.301 145.601 136.201C145.701 136.101 145.901 136.001 146.001 135.901C146.001 135.801 145.901 135.601 146.201 135.501C146.801 135.401 146.601 135.101 146.701 134.801C146.801 134.601 146.901 134.401 146.901 134.101C146.901 133.901 147.401 134.001 147.401 133.801C147.401 133.801 148.901 134.101 149.301 134.201H149.501C149.901 134.501 150.601 134.801 150.501 134.901C150.401 135.101 150.401 135.301 150.301 135.501L151.001 135.801Z" fill="black"/>
<path d="M162.3 135.801C162.3 136.001 162.2 136.101 162.2 136.301C162.2 136.301 161.9 136.301 162.4 136.601C162.7 136.601 162 136.601 162 136.601C162 136.801 162 136.901 162 137.101C162 137.301 162.2 137.501 162.2 137.601C162.2 137.801 161.9 137.901 162.2 138.101C162.5 138.301 161.9 138.301 162 138.401C162.1 138.601 162.2 138.701 162 138.801C161.8 138.801 161.6 138.901 161.7 139.001C161.7 139.001 162.1 139.201 162 139.201C162 139.201 161.7 139.201 162.3 139.401C162.3 139.401 162.3 139.401 162.1 139.401C161.7 139.401 161.7 139.401 162 139.601C162.3 139.601 162.2 139.701 162.2 139.801C162.2 139.901 162.2 140.101 162.2 140.201C162.2 140.201 161.9 140.401 161.8 140.501C161.8 140.501 162 140.701 161.7 140.801C161.4 140.801 161.4 141.001 161.4 141.101C161.4 141.101 161.1 141.201 161.7 141.301C160.9 141.401 161.9 141.601 161.7 141.801C161.5 142.001 161.7 142.101 161.7 142.301C161.7 142.301 161.5 142.301 162 142.401C162.2 142.401 162.2 142.401 162 142.401C161.4 142.501 161.8 142.601 161.6 142.801C161.5 142.901 161.8 143.101 161.3 143.201C161.1 143.201 161 143.401 161.6 143.401C161.9 143.401 161.6 143.501 161.6 143.601C161.6 143.601 161.9 143.601 161.9 143.701C161.9 143.701 161.7 143.701 161.6 143.801C162.3 144.001 161.4 144.201 161.6 144.401C161.8 144.601 161.7 144.801 161.6 145.001C161.6 145.101 161.4 145.301 160.2 145.401C159.7 145.401 159.1 145.501 158.8 145.501C158.6 145.501 158.3 145.501 158.3 145.501C158.2 145.501 158.1 145.401 158 145.301C157.8 145.201 157.2 145.101 157.5 144.901C157.5 144.901 157.3 144.901 157.8 144.701C157 144.501 157.5 144.301 157.4 144.101C157.4 143.901 156.7 143.801 157 143.601C156.4 143.601 156.5 143.401 156.7 143.301C157.4 142.901 156.9 142.601 157 142.201C157 141.801 157 141.501 157 141.101C157 141.101 156.7 141.001 157 140.901C157.3 140.901 157 140.701 157 140.701C157 140.701 156.9 140.501 157 140.501C157.7 140.301 157.3 139.901 157.4 139.701C157.5 139.401 157.6 139.101 157.4 138.801C157.4 138.601 157 138.401 157.2 138.201C157.2 138.201 156.9 138.001 157.5 138.001C157.7 138.001 157.2 137.901 157.2 137.801C157.2 137.701 157.2 137.601 157.2 137.401C157.2 137.201 157.3 137.101 157.2 136.901C157.2 136.801 157 136.601 156.9 136.501C156.9 136.401 156.9 136.301 156.9 136.201C157 136.101 157.2 136.001 157.3 135.901C157.3 135.801 157.2 135.601 157.5 135.501C158.1 135.401 157.9 135.101 158 134.801C158.1 134.601 158.2 134.401 158.2 134.101C158.2 133.901 158.7 134.001 158.7 133.801C158.7 133.801 160.2 134.101 160.6 134.201H160.8C161.2 134.501 161.9 134.801 161.8 134.901C161.7 135.101 161.7 135.301 161.6 135.501L162.3 135.801Z" fill="black"/>
<path d="M162.599 169.701C162.399 169.701 162.099 169.801 161.899 169.901C161.899 169.901 161.699 169.701 161.699 170.301C161.699 170.601 161.499 170.001 161.399 170.001C161.199 170.101 160.899 170.001 160.699 170.201C160.499 170.201 160.299 170.601 159.999 170.601C159.799 170.601 159.499 170.401 159.299 170.701C159.099 171.001 158.899 170.501 158.699 170.701C158.499 170.801 158.299 170.901 158.099 170.701C157.999 170.501 157.799 170.301 157.699 170.401C157.699 170.401 157.499 170.801 157.399 170.701C157.399 170.701 157.199 170.401 157.099 171.001C157.099 171.001 157.099 171.001 157.099 170.801C157.099 170.401 156.899 170.401 156.799 170.701C156.699 171.001 156.599 170.901 156.499 170.901C156.299 170.901 156.099 170.901 155.899 170.901C155.799 170.901 155.699 170.601 155.499 170.501C155.399 170.501 155.099 170.701 155.099 170.301C155.099 170.001 154.899 169.901 154.799 169.901C154.799 169.901 154.799 169.601 154.499 170.201C154.499 169.401 153.999 170.301 153.799 170.001C153.599 169.701 153.399 169.801 153.099 169.701C153.099 169.701 153.099 169.501 152.799 169.901C152.799 170.001 152.599 170.001 152.699 169.901C152.699 169.201 152.499 169.501 152.299 169.401C152.199 169.201 151.799 169.401 151.899 168.801C151.899 168.601 151.899 168.401 151.499 168.801C151.299 169.001 151.399 168.801 151.299 168.801L150.999 169.001C150.999 169.001 150.999 168.701 150.999 168.601C150.399 169.001 150.599 168.101 150.299 168.001C149.899 168.001 149.699 167.701 149.499 167.401C149.499 167.201 149.399 167.001 150.099 166.101C150.399 165.701 150.799 165.301 151.099 165.101C151.299 165.001 151.499 164.801 151.599 164.801C151.699 164.801 151.899 164.801 151.999 164.701C152.199 164.701 152.699 164.301 152.599 164.701C152.599 164.701 152.799 164.601 152.599 165.001C153.199 164.501 153.099 165.001 153.299 165.001C153.499 165.001 153.899 164.601 153.899 165.001C154.299 164.501 154.299 164.601 154.299 164.801C154.299 165.501 154.799 165.301 154.999 165.501C155.299 165.701 155.599 165.701 155.899 165.901C155.899 165.901 156.099 165.601 156.099 165.901C156.099 166.201 156.199 165.901 156.299 166.001H156.499C156.599 166.701 156.999 166.401 157.199 166.501C157.499 166.501 157.699 166.701 157.999 166.501C158.199 166.501 158.299 166.101 158.499 166.201C158.499 166.201 158.599 165.901 158.699 166.501C158.699 166.701 158.699 166.201 158.799 166.201C158.899 166.201 158.999 166.201 159.099 166.201C159.199 166.201 159.399 166.201 159.499 166.201C159.499 166.201 159.699 165.901 159.699 165.801C159.699 165.801 159.899 165.801 159.999 165.801C160.099 165.801 160.299 166.001 160.399 166.101C160.499 166.101 160.599 165.801 160.799 166.101C161.099 166.501 161.299 166.201 161.499 166.201C161.699 166.201 161.999 166.201 162.099 166.001C162.099 165.901 162.499 166.301 162.599 166.301C162.599 166.301 163.299 167.601 163.499 168.101V168.301C163.499 168.801 163.699 169.501 163.499 169.501C163.199 169.501 162.899 169.701 162.699 169.801L162.599 169.701Z" fill="black"/>
<path d="M125.699 165.398C124.899 165.398 124.099 165.198 123.299 164.998C122.999 164.998 122.799 164.598 122.299 164.998C121.999 165.198 121.999 164.498 121.799 164.398C121.099 164.198 120.599 163.698 119.999 163.398C119.399 163.098 118.799 162.898 118.199 162.498C117.699 162.098 117.399 161.498 116.799 161.398C116.199 161.298 116.299 160.598 115.799 160.398C115.299 160.098 114.899 159.798 114.599 159.198C114.399 158.798 114.399 158.298 113.999 157.998C113.799 157.798 113.399 157.798 113.199 157.398C113.099 157.098 113.199 156.698 112.499 156.698C112.499 156.698 112.499 156.498 112.499 156.398C112.799 155.898 112.599 155.598 112.299 155.398C111.999 155.198 111.999 154.898 111.899 154.698C111.799 153.998 111.799 153.298 111.899 152.598C111.999 152.098 112.299 151.598 112.499 151.198C112.699 150.698 112.599 150.098 113.099 149.798C113.599 149.498 113.799 149.098 113.999 148.798C114.199 148.598 114.499 148.498 114.199 147.998C114.199 147.998 114.199 147.898 114.299 147.898C114.899 147.898 114.999 147.598 115.199 147.298C115.399 146.898 115.499 146.498 115.899 146.398C116.699 146.098 117.299 145.598 117.999 145.298C118.199 145.298 118.399 145.298 118.499 144.798C118.499 144.598 118.699 144.498 118.899 144.598C119.599 144.998 120.099 144.598 120.699 144.598C121.299 144.598 121.999 144.298 122.599 144.798C122.899 144.998 123.199 145.198 123.599 144.598C123.799 144.298 124.099 144.598 124.299 144.598C124.499 144.598 124.699 144.398 124.899 144.398C125.099 144.398 125.199 144.698 125.299 144.898C125.299 144.898 125.299 144.898 125.399 144.898C126.499 144.498 127.099 145.698 127.899 145.998C128.799 146.298 129.499 146.798 130.199 147.498C130.599 147.798 130.799 148.298 130.199 149.398C129.999 149.898 129.599 150.298 129.199 150.398C128.899 150.398 128.699 150.598 128.499 150.498C128.299 150.498 127.999 150.398 127.799 150.298C127.299 150.198 126.699 150.298 126.499 149.898C126.499 149.798 126.099 149.898 126.299 149.398V149.298C125.399 149.698 125.099 148.998 124.499 148.898C123.999 148.798 123.399 149.298 122.999 148.898C122.699 149.498 122.399 149.398 122.199 149.198C121.799 148.798 121.299 148.798 120.899 148.898C120.499 148.898 120.099 149.198 119.699 149.298C118.799 149.498 118.199 150.098 117.599 150.598C117.599 150.698 117.699 150.998 117.399 150.998C117.099 150.998 117.199 151.198 117.099 151.398C117.099 151.498 117.099 151.698 116.899 151.798C115.999 152.098 116.199 152.998 116.199 153.598C116.199 154.198 116.199 154.898 116.599 155.398C116.899 155.698 117.399 155.798 117.599 156.198C117.599 156.398 118.099 156.198 117.799 156.898C117.799 157.098 118.199 156.898 118.299 156.898C118.599 157.098 118.799 157.398 119.099 157.598C119.499 157.998 119.799 158.298 120.299 158.598C120.599 158.798 120.899 158.798 121.199 158.898C121.499 158.998 121.699 159.198 121.899 159.398C122.099 159.698 122.299 159.998 122.599 160.298C122.899 160.498 123.299 160.498 123.499 160.798C123.899 161.498 124.599 161.398 125.099 161.498C125.699 161.598 126.299 161.598 126.799 161.298C126.999 161.198 127.499 161.498 127.799 161.298C127.799 161.298 128.999 162.298 129.199 162.698V162.898C129.099 163.598 128.899 164.498 128.199 164.698C127.199 164.998 126.299 165.098 125.399 165.098L125.699 165.398Z" fill="black"/>
<path d="M164.401 127.701C163.201 127.701 162.001 127.501 160.701 127.401C160.201 127.401 159.801 127.101 159.301 127.401C159.001 127.601 158.701 126.901 158.301 126.901C157.201 126.701 156.101 126.401 155.001 126.201C153.901 126.001 152.801 125.801 151.701 125.501C150.601 125.201 149.701 124.401 148.601 124.301C147.601 124.101 147.101 123.301 146.201 122.901C145.301 122.501 144.401 122.001 143.801 121.201C143.701 121.101 143.601 120.901 143.501 120.801V120.701C143.501 120.601 143.501 120.501 143.301 120.501C143.301 120.501 143.201 120.601 143.101 120.701C143.101 120.701 142.901 120.101 143.101 121.201C143.101 121.201 143.101 121.101 143.101 120.901C143.001 120.101 142.901 120.001 143.101 120.601C143.101 120.601 143.101 120.601 143.101 120.701C143.101 120.901 143.101 121.001 143.101 121.101C143.101 121.001 142.901 120.401 142.801 120.401V120.701C142.801 120.701 142.801 120.701 142.701 120.701C142.401 120.401 142.401 120.701 142.401 120.901C142.401 120.901 142.101 121.101 142.701 121.301C142.701 121.301 142.701 121.301 142.701 121.401C141.701 122.301 142.601 123.501 142.201 124.601C141.701 125.601 141.701 126.801 141.401 127.901C141.401 128.201 141.101 128.501 141.401 128.801C141.501 128.901 141.401 129.301 141.401 129.401C140.501 130.001 140.701 131.001 140.301 131.701C139.901 132.601 139.801 133.601 139.001 134.301C138.701 134.601 138.401 135.101 138.701 135.801C138.901 136.101 138.401 136.401 138.301 136.801C138.301 137.101 138.301 137.501 138.301 137.701C138.301 137.901 137.901 138.101 137.701 138.201C137.701 138.201 137.601 138.301 137.601 138.401C137.601 140.001 136.101 140.801 135.601 142.201C135.001 143.501 134.201 144.701 133.301 145.901C132.801 146.501 132.201 147.101 130.901 146.901C130.301 146.801 129.901 146.501 129.801 146.001C129.801 145.701 129.801 145.301 129.801 145.101C130.001 144.701 130.101 144.301 130.301 143.901C130.601 143.101 130.601 142.101 131.301 141.501C131.501 141.301 131.401 140.901 132.001 140.901C132.001 140.901 132.201 140.901 132.201 140.801C132.201 139.401 133.201 138.601 133.601 137.401C134.001 136.501 133.901 135.301 134.501 134.501C134.201 133.701 134.501 133.201 134.901 132.701C136.301 131.101 136.501 129.001 137.101 127.001C137.801 125.001 138.101 123.001 138.501 121.001C138.501 120.801 138.301 119.901 138.701 119.301C138.901 119.001 138.901 118.601 139.001 118.101C139.001 117.601 139.001 117.101 139.001 116.601C139.001 115.801 139.001 114.701 139.201 114.101V113.701C140.101 113.901 140.501 113.701 140.901 113.401L141.201 113.001V112.801C141.301 112.801 141.401 112.801 141.401 112.801C141.401 113.101 141.401 113.401 141.601 113.601C141.901 113.901 142.301 114.101 143.301 114.201C143.501 114.201 143.701 114.201 144.001 114.201C144.001 114.301 144.001 114.401 144.001 114.401V114.701L144.201 115.101L144.601 115.801L144.801 116.201V116.401H145.001L145.401 116.801C145.701 117.101 145.901 117.401 146.201 117.601L146.601 117.901C146.601 117.901 146.701 118.001 146.801 118.101C147.101 118.401 147.601 118.401 147.501 119.101C147.501 119.301 148.101 119.101 148.301 119.301C148.801 119.601 149.401 119.901 149.901 120.301C150.701 120.701 151.501 121.101 152.401 121.401C152.901 121.601 153.501 121.601 154.101 121.701C154.701 121.801 155.201 122.001 155.701 122.301C156.401 122.601 157.001 123.001 157.701 123.201C158.401 123.401 159.301 123.301 159.901 123.701C161.201 124.401 162.601 124.301 163.901 124.501C165.301 124.601 166.601 124.701 168.001 124.501C168.801 124.401 169.501 124.801 170.301 124.701C170.601 124.701 171.401 126.001 171.301 126.601C171.301 126.601 171.301 126.801 171.201 126.901C170.501 127.501 169.801 128.301 168.901 128.301C167.501 128.301 166.101 128.401 164.701 128.301L164.401 127.701Z" fill="black"/>
<path d="M118.201 182.301C118.201 181.901 118.401 181.501 118.501 181.101C118.501 181.001 118.801 180.901 118.301 180.601C118.101 180.501 118.701 180.501 118.701 180.301C118.701 179.901 118.901 179.601 119.001 179.201C119.001 178.801 119.001 178.401 119.001 178.101C119.001 177.701 119.401 177.501 119.201 177.101C119.001 176.701 119.601 176.601 119.601 176.301C119.601 176.001 119.601 175.701 119.901 175.401C120.101 175.201 120.401 175.101 120.401 174.901C120.401 174.801 120.101 174.501 120.201 174.401C120.201 174.301 120.601 174.201 120.001 173.901C120.001 173.901 120.001 173.901 120.201 173.901C120.601 173.901 120.701 173.701 120.401 173.501C120.201 173.301 120.301 173.201 120.301 173.101C120.301 172.801 120.401 172.501 120.601 172.201C120.701 172.001 121.001 171.901 121.201 171.701C121.301 171.501 121.201 171.201 121.501 171.101C121.901 171.101 121.901 170.801 122.001 170.601C122.001 170.501 122.401 170.501 121.801 170.101C122.701 170.101 121.801 169.401 122.101 169.101C122.401 168.801 122.401 168.401 122.601 168.101C122.601 168.101 122.801 168.001 122.501 167.701C122.401 167.701 122.401 167.501 122.501 167.501C123.201 167.501 122.901 167.101 123.201 166.901C123.401 166.701 123.301 166.201 123.901 166.101C124.101 166.101 124.301 165.901 123.901 165.501C123.701 165.301 123.901 165.301 123.901 165.201C123.901 165.101 123.701 164.901 123.701 164.801C123.701 164.801 124.001 164.801 124.101 164.801C123.701 164.101 124.701 164.001 124.701 163.601C124.701 163.101 125.001 162.701 125.301 162.301C125.501 162.101 125.701 161.901 126.901 162.301C127.401 162.501 127.901 162.701 128.101 163.001C128.301 163.201 128.401 163.401 128.501 163.501C128.501 163.701 128.501 163.901 128.601 164.001C128.601 164.301 129.001 164.801 128.601 165.001C128.501 165.001 128.701 165.301 128.201 165.101C128.701 165.801 128.101 166.001 128.001 166.401C128.001 166.701 128.301 167.301 128.001 167.501C128.501 167.901 128.301 168.101 128.001 168.201C127.101 168.601 127.201 169.401 126.901 170.001C126.501 170.601 126.401 171.301 126.101 171.901C126.101 172.001 126.301 172.201 126.101 172.301C125.801 172.301 125.901 172.601 125.901 172.701C125.901 172.801 125.901 173.001 125.701 173.101C124.901 173.401 125.101 174.001 124.801 174.501C124.601 175.001 124.301 175.501 124.301 176.101C124.301 176.401 124.501 176.901 124.301 177.101C124.201 177.201 124.501 177.501 123.901 177.401C123.701 177.401 124.101 177.701 124.101 177.701C124.101 177.901 124.001 178.101 123.901 178.401C123.901 178.701 123.701 179.001 123.601 179.301C123.601 179.501 123.801 179.701 123.801 179.901C123.801 180.101 123.801 180.301 123.601 180.501C123.501 180.701 123.201 180.901 123.101 181.101C123.001 181.301 123.101 181.701 122.801 181.801C122.201 182.101 122.301 182.601 122.101 183.101C121.901 183.501 121.801 184.001 121.801 184.501C121.801 184.801 121.301 184.901 121.201 185.101C121.201 185.201 119.701 185.101 119.201 184.901C119.201 184.901 119.001 184.901 119.001 184.801C118.601 184.401 118.001 184.001 118.101 183.801C118.301 183.401 118.301 182.901 118.401 182.501L118.201 182.301Z" fill="black"/>
<path d="M119.899 196.199C119.499 196.699 118.999 197.099 118.599 197.599C118.399 197.799 118.099 197.599 118.199 198.299C118.199 198.599 117.699 198.299 117.499 198.299C116.999 198.699 116.499 198.899 115.999 199.199C115.499 199.499 114.999 199.899 114.499 200.099C113.899 200.299 113.299 200.099 112.699 200.499C112.199 200.799 111.699 200.299 111.299 200.399C110.799 200.399 110.199 200.399 109.799 200.099C109.499 199.799 109.199 199.499 108.799 199.499C108.499 199.499 108.199 199.699 107.899 199.499C107.599 199.299 107.499 198.899 106.899 199.199C106.899 199.199 106.899 198.999 106.899 198.899C106.899 198.399 106.699 198.099 106.299 197.999C105.899 197.999 105.799 197.599 105.699 197.399C105.399 196.799 105.199 196.199 105.199 195.599C105.199 195.199 105.399 194.699 105.399 194.299C105.399 193.899 105.199 193.399 105.599 192.999C105.999 192.699 105.999 192.299 106.099 191.999C106.099 191.799 106.499 191.699 105.999 191.299V191.199C106.999 190.999 106.199 189.999 106.699 189.599C107.199 189.199 107.399 188.599 107.899 188.099C107.999 187.999 108.299 187.999 107.999 187.499C107.999 187.299 107.999 187.199 108.199 187.199C108.999 187.299 109.099 186.799 109.599 186.599C110.099 186.399 110.399 185.899 111.099 186.099C111.399 186.099 111.699 186.099 111.699 185.499C111.699 185.199 112.099 185.399 112.199 185.199C112.299 185.199 112.399 184.799 112.499 184.699C112.599 184.699 112.799 184.799 112.999 184.899C112.999 184.899 112.999 184.899 113.099 184.899C113.699 184.099 114.599 184.899 115.299 184.599C115.999 184.399 116.799 184.399 117.499 184.599C117.899 184.599 118.299 184.899 118.399 186.099C118.399 186.599 118.399 187.199 118.199 187.499C118.099 187.699 117.899 187.899 117.799 187.999C117.599 187.999 117.399 188.199 117.299 188.299C116.899 188.499 116.599 188.999 116.299 188.699C116.199 188.699 116.099 188.899 115.999 188.399C115.599 189.199 115.099 188.799 114.699 188.899C114.299 188.999 114.199 189.699 113.799 189.599C113.799 190.299 113.599 190.199 113.399 190.099C112.899 189.899 112.599 190.099 112.299 190.299C111.999 190.499 111.899 190.799 111.599 190.999C111.099 191.399 110.799 192.099 110.499 192.699C110.499 192.799 110.799 192.999 110.499 192.999C110.199 192.999 110.399 193.299 110.299 193.399C110.299 193.499 110.299 193.699 110.299 193.799C109.599 194.199 109.999 194.799 110.099 195.299C110.099 195.499 110.099 195.699 110.199 195.799C110.199 195.899 110.399 195.999 110.499 195.999C110.699 195.999 111.099 195.799 111.299 195.999C111.399 195.999 111.599 195.799 111.599 196.399C111.599 196.599 111.799 196.099 111.899 196.099C112.099 196.099 112.299 196.099 112.499 196.099C112.799 196.099 113.099 196.099 113.399 196.099C113.599 196.099 113.699 195.799 113.899 195.599C114.099 195.499 114.199 195.399 114.399 195.399C114.699 195.399 114.999 195.399 115.199 195.399C115.499 195.399 115.599 194.999 115.899 194.999C116.599 195.099 116.799 194.599 117.199 194.299C117.599 193.999 117.899 193.599 117.999 193.099C117.999 192.799 118.599 192.799 118.699 192.499C118.699 192.399 120.199 192.599 120.699 192.799C120.699 192.799 120.899 192.799 120.899 192.899C121.199 193.399 121.799 193.999 121.499 194.499C121.099 195.099 120.799 195.799 120.299 196.399L119.899 196.199Z" fill="black"/>
<path d="M115.299 203.798C115.099 204.398 114.799 204.998 114.599 205.598C114.599 205.798 114.199 205.898 114.599 206.398C114.799 206.598 114.099 206.598 113.999 206.798C113.699 207.398 113.299 207.898 112.899 208.398C112.499 208.898 112.099 209.598 111.499 209.998C110.899 210.398 110.099 210.498 109.599 210.998C109.099 211.498 108.499 210.998 107.999 211.298C107.499 211.498 106.899 211.598 106.399 211.298C105.999 211.098 105.699 210.898 105.299 210.998C105.099 210.998 104.799 211.298 104.599 211.298C104.399 211.298 104.199 210.898 103.899 211.498C103.899 211.498 103.799 211.498 103.799 211.298C103.599 210.898 103.399 210.798 103.099 211.098C102.899 211.298 102.699 211.298 102.499 211.198C101.999 211.198 101.599 211.098 101.099 210.898C100.599 210.698 99.9992 210.298 99.4992 209.898C98.9992 209.598 98.2992 209.298 98.0992 208.698C98.0992 208.498 98.0992 208.298 97.9992 208.198C97.9992 207.898 97.6992 207.598 97.6992 207.198C97.6992 206.898 97.8992 206.498 97.1992 206.398C97.1992 206.398 97.1992 206.298 97.1992 206.198C97.5992 205.698 97.5992 205.398 97.5992 204.898C97.5992 204.498 97.5992 203.898 97.8992 203.498L98.3992 202.898C98.4992 202.798 98.5992 202.598 98.6992 202.498C98.8992 202.198 99.0992 201.898 99.2992 201.698C99.3992 201.598 99.6992 201.598 99.4992 201.098C99.4992 200.898 99.4992 200.798 99.6992 200.798C100.499 200.898 100.599 200.298 100.999 200.098C101.499 199.898 101.799 199.298 102.499 199.398C102.799 199.398 103.099 199.398 103.099 198.698C103.099 198.398 103.399 198.498 103.599 198.398C103.699 198.298 103.799 197.998 103.899 197.898C103.999 197.898 104.299 197.898 104.399 197.998C104.399 197.998 104.399 197.998 104.499 197.998C104.999 197.098 106.099 197.598 106.799 197.298C107.499 196.898 108.399 196.898 109.199 196.898C109.699 196.898 110.099 197.098 110.399 198.198C110.499 198.698 110.499 199.298 110.399 199.598C110.299 199.798 110.199 200.098 109.999 200.098C109.799 200.098 109.599 200.398 109.399 200.498C108.999 200.698 108.699 201.298 108.299 201.098C108.199 201.098 108.099 201.398 107.899 200.898C107.899 200.898 107.899 200.898 107.799 200.898C107.499 201.798 106.799 201.498 106.299 201.698C105.899 201.898 105.799 202.698 105.299 202.598C105.299 203.298 105.099 203.298 104.799 203.298C103.699 203.198 103.299 204.098 102.599 204.698C102.299 204.998 101.999 205.298 101.899 205.498C101.899 205.498 101.899 205.698 101.799 205.798C101.499 205.898 101.799 205.898 101.799 205.898C101.599 206.198 101.799 206.298 101.799 206.398C101.799 206.398 101.899 206.398 102.099 206.398C102.299 206.398 102.499 206.398 102.699 206.498C103.499 206.698 104.199 206.998 104.999 206.898C105.499 206.898 105.899 206.498 106.299 206.698C106.499 206.698 106.599 206.398 106.799 206.998C106.799 207.198 106.999 206.698 107.099 206.698C107.399 206.698 107.599 206.698 107.799 206.598C108.099 206.598 108.399 206.498 108.699 206.298C108.799 206.198 108.899 205.898 108.999 205.698C109.099 205.598 109.199 205.398 109.399 205.398C109.599 205.298 109.899 205.198 110.199 204.998C110.399 204.798 110.399 204.398 110.699 204.298C111.399 203.998 111.499 203.298 111.699 202.698C111.799 202.398 111.999 202.098 112.099 201.798V201.598C112.099 201.598 112.099 201.498 112.099 201.398C112.099 201.398 112.099 201.398 112.599 201.198C112.999 201.098 113.299 200.798 113.299 200.798C113.299 200.798 113.299 200.798 113.299 200.898C113.299 200.498 113.199 199.998 113.299 199.698C113.299 199.698 113.299 199.498 113.399 199.498C113.599 199.398 113.899 199.298 114.199 199.398C114.499 199.398 114.799 199.598 115.099 199.698C115.599 199.998 115.899 200.498 115.899 200.898C115.899 201.498 115.899 201.998 115.699 202.598C115.599 202.998 115.499 203.298 115.399 203.598L115.299 203.798Z" fill="black"/>
<path d="M107.401 213.401C107.401 214.101 107.201 214.801 107.101 215.501C107.101 215.801 106.701 216.001 107.101 216.401C107.301 216.601 106.601 216.701 106.601 216.901C106.401 217.601 106.101 218.201 105.801 218.901C105.501 219.601 105.301 220.301 104.901 220.901C104.501 221.501 103.701 221.901 103.401 222.601C103.101 223.201 102.301 223.101 101.801 223.501C101.301 223.901 100.601 224.301 99.9008 224.201C99.4008 224.201 98.9008 224.001 98.5008 224.201C98.2008 224.201 98.0008 224.601 97.7008 224.601C97.4008 224.601 97.1008 224.301 96.8008 224.901C96.8008 224.901 96.7008 224.901 96.6008 224.701C96.3008 224.301 96.0008 224.301 95.7008 224.501C95.4008 224.701 95.2008 224.701 95.0008 224.601C94.4008 224.601 93.9008 224.401 93.4008 224.301C93.2008 224.301 93.0008 224.101 92.8008 224.001L91.9008 223.501C91.3008 223.201 90.5008 222.801 90.3008 222.101C90.3008 221.701 90.1008 221.401 90.0008 221.201L89.7008 220.401C89.7008 220.101 89.8008 219.801 89.2008 219.701C89.2008 219.701 89.2008 219.601 89.2008 219.501C89.5008 219.101 89.4008 218.701 89.2008 218.401C89.0008 218.001 88.8008 217.601 89.0008 217.301C89.3008 216.501 89.3008 215.801 89.5008 215.001C89.5008 214.801 89.8008 214.701 89.5008 214.301C89.4008 214.201 89.5008 214.001 89.5008 213.901C90.3008 213.601 90.2008 212.901 90.6008 212.501C91.0008 212.001 91.2008 211.301 92.0008 211.101C92.3008 211.101 92.6008 210.901 92.4008 210.201C92.4008 209.901 92.7008 209.901 92.9008 209.701C93.0008 209.501 92.9008 209.201 93.1008 209.101C93.2008 209.001 93.5008 209.101 93.7008 209.101H93.8008C94.1008 208.001 95.4008 208.301 96.0008 207.701C96.7008 207.101 97.5008 206.801 98.4008 206.601C98.9008 206.501 99.4008 206.501 100.001 207.501C100.301 207.901 100.501 208.501 100.401 208.801C100.401 209.101 100.301 209.301 100.201 209.401C100.001 209.601 99.8008 209.801 99.7008 210.001C99.3008 210.401 99.1008 211.001 98.6008 211.001C98.4008 211.001 98.4008 211.301 98.1008 211.001H98.0008C97.8008 212.001 97.1008 211.901 96.6008 212.301C96.2008 212.701 96.3008 213.401 95.7008 213.601C96.0008 214.201 95.7008 214.401 95.4008 214.401C94.3008 214.701 94.2008 215.801 93.8008 216.501C93.4008 217.301 93.4008 218.201 93.5008 219.001C93.5008 219.101 93.9008 219.201 93.7008 219.401C93.6008 219.501 93.6008 219.601 93.7008 219.701C93.7008 219.701 93.8008 219.701 93.7008 219.801C93.5008 220.101 93.7008 220.301 93.7008 220.301C93.9008 220.301 94.5008 220.401 94.9008 220.501C95.7008 220.701 96.5008 220.901 97.3008 220.801C97.8008 220.801 98.1008 220.301 98.5008 220.401C98.7008 220.401 98.7008 220.001 99.1008 220.501C99.2008 220.601 99.1008 220.201 99.3008 220.101C99.5008 219.901 99.8008 219.901 100.001 219.701C100.301 219.501 100.601 219.301 100.901 218.901C101.001 218.701 101.001 218.401 101.101 218.101C101.101 217.901 101.301 217.701 101.501 217.501C101.701 217.301 102.101 217.101 102.301 216.801C102.501 216.501 102.301 216.001 102.701 215.801C103.401 215.301 103.301 214.501 103.401 213.801C103.401 213.401 103.501 213.101 103.601 212.701C103.601 212.501 103.601 212.301 103.601 212.101C103.601 211.901 103.601 211.701 103.601 211.701H103.901C104.101 211.701 104.201 211.701 104.301 211.601C104.501 211.601 104.601 211.501 104.601 211.501L104.901 211.301C104.901 211.301 104.901 211.301 104.901 211.201V211.001C104.901 211.001 104.701 210.901 104.601 210.801C104.401 210.701 104.201 210.601 104.201 210.501C104.201 210.501 104.201 210.301 104.201 210.201C104.601 209.601 105.301 209.301 106.001 209.301C106.301 209.301 106.801 209.501 107.101 209.901C107.401 210.201 107.501 210.501 107.601 210.801C107.601 211.301 107.601 211.601 107.601 211.801V212.401C107.601 212.801 107.601 213.201 107.501 213.601L107.401 213.401Z" fill="black"/>
<path d="M77.8008 233.799C78.0008 233.499 78.2008 233.199 78.3008 232.899C78.3008 232.799 78.6008 232.899 78.3008 232.399C78.1008 232.199 78.7008 232.399 78.8008 232.399C78.9008 232.099 79.2008 231.899 79.3008 231.599C79.4008 231.299 79.4008 230.899 79.6008 230.599C79.7008 230.299 80.2008 230.299 80.1008 229.799C80.1008 229.399 80.6008 229.599 80.7008 229.299C80.7008 228.999 80.9008 228.799 81.3008 228.699C81.6008 228.699 81.8008 228.699 81.9008 228.499C81.9008 228.399 81.8008 228.099 81.9008 227.999C81.9008 227.999 82.3008 227.999 81.9008 227.499C81.9008 227.499 81.9008 227.499 82.1008 227.499C82.5008 227.699 82.6008 227.499 82.4008 227.299C82.3008 226.999 82.4008 226.999 82.4008 226.899C82.6008 226.699 82.8008 226.499 83.0008 226.399C83.2008 226.299 83.5008 226.399 83.7008 226.199C83.9008 226.199 83.9008 225.799 84.2008 225.899C84.5008 225.999 84.7008 225.899 84.8008 225.799C84.8008 225.799 85.2008 225.799 84.8008 225.299C85.6008 225.799 85.1008 224.699 85.5008 224.699C85.9008 224.699 86.1008 224.399 86.3008 224.099C86.3008 224.099 86.5008 224.099 86.3008 223.699C86.3008 223.599 86.3008 223.499 86.3008 223.599C86.9008 223.999 86.8008 223.599 87.1008 223.499C87.4008 223.499 87.5008 222.999 88.0008 223.299C88.2008 223.399 88.4008 223.399 88.2008 222.799C88.2008 222.499 88.4008 222.699 88.4008 222.599V222.199C88.4008 222.199 88.6008 222.299 88.8008 222.399C88.8008 221.599 89.6008 222.199 89.9008 221.799C90.2008 221.399 90.6008 221.299 91.0008 221.199C91.2008 221.199 91.5008 221.199 92.2008 222.199C92.5008 222.599 92.7008 223.099 92.8008 223.499C92.8008 223.699 92.8008 223.999 92.8008 224.099C92.8008 224.199 92.7008 224.399 92.6008 224.499C92.5008 224.799 92.6008 225.299 92.2008 225.199C92.1008 225.199 92.2008 225.499 91.9008 224.999C91.9008 225.899 91.5008 225.499 91.2008 225.799C91.0008 225.999 91.1008 226.699 90.7008 226.599C90.9008 227.199 90.7008 227.199 90.5008 227.099C89.7008 226.799 89.5008 227.499 89.0008 227.799C88.5008 228.099 88.1008 228.499 87.7008 228.799C87.7008 228.799 87.7008 229.199 87.5008 228.999C87.3008 228.899 87.3008 229.099 87.2008 229.199C87.2008 229.199 87.2008 229.499 86.9008 229.399C86.1008 229.199 86.1008 229.799 85.7008 229.999C85.3008 230.199 85.0008 230.499 84.8008 230.899C84.7008 231.199 84.8008 231.599 84.5008 231.699C84.4008 231.699 84.5008 232.099 84.0008 231.699C83.9008 231.699 84.1008 231.999 84.0008 232.099C84.0008 232.299 83.8008 232.399 83.7008 232.499C83.5008 232.699 83.3008 232.899 83.2008 233.099C83.2008 233.199 83.2008 233.499 83.2008 233.699C83.2008 233.899 83.0008 233.999 82.9008 234.099C82.7008 234.199 82.4008 234.299 82.3008 234.399C82.1008 234.499 82.3008 234.899 81.9008 234.899C81.3008 234.899 81.3008 235.399 81.0008 235.699C80.8008 235.899 80.7008 236.099 80.6008 236.299L79.7008 234.499V234.399C79.7008 234.399 79.7008 234.399 79.7008 234.499C79.7008 234.499 79.7008 234.699 79.8008 234.799C80.0008 235.199 80.3008 235.599 80.4008 235.799V235.999C80.4008 236.599 79.9008 237.499 79.2008 237.399C78.7008 237.399 78.2008 237.099 77.7008 236.799L76.3008 235.799L77.2008 234.299L77.5008 233.899L77.8008 233.799Z" fill="black"/>
<path d="M98.4 238.499V238.199C98.2 238.099 98.2 237.899 98.1 237.799C98.1 237.799 98.2 237.499 97.7 237.599C97.4 237.599 98 237.299 97.9 237.199C97.7 236.999 97.7 236.699 97.5 236.499C97.3 236.299 97 236.199 96.9 235.899C96.7 235.699 96.9 235.299 96.5 235.199C96.2 235.199 96.5 234.699 96.3 234.599C96.1 234.499 95.9 234.299 96 233.999C96 233.799 96.2 233.599 96 233.499C95.9 233.499 95.6 233.499 95.5 233.499C95.5 233.499 95.7 233.199 95.1 233.399C95.1 233.399 95.1 233.399 95.1 233.299C95.4 232.999 95.3 232.899 95.1 232.999C94.8 232.999 94.8 232.999 94.8 232.899C94.7 232.699 94.6 232.499 94.5 232.299C94.5 232.099 94.6 231.899 94.5 231.699C94.5 231.499 94.1 231.499 94.3 231.199C94.5 230.899 94.4 230.799 94.3 230.699C94.3 230.699 94.5 230.399 93.9 230.699C94.5 230.099 93.4 230.399 93.5 230.099C93.5 229.799 93.3 229.599 93.2 229.399C93.2 229.399 93.2 229.199 92.9 229.399C92.7 229.399 92.7 229.399 92.8 229.399C93.3 228.899 92.8 228.899 92.8 228.699C92.8 228.399 92.4 228.399 92.8 227.899C92.9 227.699 93 227.499 92.4 227.699C92.1 227.699 92.4 227.599 92.2 227.499C92.2 227.499 91.9 227.499 91.8 227.499C91.8 227.499 91.9 227.299 92 227.199C91.3 227.199 91.9 226.499 91.5 226.299C91.2 226.099 91.1 225.799 91 225.399C91 225.199 91 224.999 91.9 224.299C92.3 223.999 92.8 223.699 93.1 223.599C93.3 223.599 93.6 223.499 93.7 223.599C93.8 223.599 94 223.599 94.1 223.699C94.4 223.699 95 223.699 94.8 224.099C94.8 224.199 95.1 224.099 94.7 224.399C95.5 224.299 95.2 224.799 95.5 225.099C95.7 225.299 96.4 225.199 96.2 225.599C96.8 225.399 96.8 225.599 96.7 225.899C96.4 226.699 97 226.899 97.2 227.399C97.4 227.899 97.7 228.299 97.9 228.799C97.9 228.799 98.3 228.799 98.1 228.999C97.9 229.199 98.1 229.199 98.2 229.299C98.2 229.299 98.4 229.399 98.3 229.599C97.9 230.299 98.4 230.499 98.6 230.899C98.7 231.299 98.9 231.699 99.2 231.999C99.4 232.199 99.8 232.299 99.8 232.499C99.8 232.599 100.2 232.499 99.7 232.899C99.6 232.999 100 232.899 100.1 232.899C100.2 232.999 100.3 233.199 100.3 233.399C100.4 233.599 100.5 233.899 100.6 234.099C100.6 234.199 101 234.199 101.1 234.399C101.2 234.499 101.3 234.699 101.3 234.799C101.3 234.999 101.3 235.299 101.3 235.499C101.3 235.699 101.7 235.799 101.5 236.099C101.2 236.599 101.5 236.899 101.7 237.199C101.8 237.699 102 238.099 102.1 238.899C102.1 239.399 101.6 239.899 101.3 240.299C101.3 240.399 100.8 240.299 100.5 239.999C100.1 239.699 99.8 239.399 99.7 239.199C99.7 239.199 99.6 239.099 99.5 238.999C99.5 238.999 99.5 238.999 99.1 238.999C98.9 238.999 98.2 238.999 98.4 238.999V238.799V238.499Z" fill="black"/>
<path d="M93.6991 239.5C93.3991 239.5 93.0991 239.6 92.7991 239.8C92.6991 239.8 92.4991 239.6 92.4991 240.2C92.4991 240.5 92.2991 239.9 92.1991 239.9C91.8991 240 91.6991 239.9 91.3991 240.1C91.0991 240.1 90.8991 240.4 90.5991 240.5C90.2991 240.5 90.0991 240.3 89.7991 240.6C89.5991 240.9 89.3991 240.4 89.1991 240.5C88.9991 240.6 88.6991 240.7 88.4991 240.5C88.3991 240.3 88.1991 240.1 88.0991 240.2C87.9991 240.2 87.8991 240.6 87.7991 240.5C87.7991 240.5 87.5991 240.2 87.4991 240.8C87.4991 240.8 87.4991 240.8 87.4991 240.6C87.4991 240.2 87.2991 240.2 87.1991 240.5C87.0991 240.8 86.9991 240.7 86.8991 240.7C86.6991 240.7 86.3991 240.7 86.1991 240.6C85.9991 240.6 85.8991 240.3 85.7991 240.2C85.5991 240.2 85.3991 240.3 85.2991 240C85.2991 239.7 85.0991 239.7 84.8991 239.6C84.8991 239.6 84.7991 239.3 84.5991 239.9C84.5991 239 84.0991 240 83.8991 239.8C83.6991 239.5 83.3991 239.6 83.1991 239.5C83.1991 239.5 83.1991 239.3 82.8991 239.7C82.8991 239.8 82.7991 239.8 82.7991 239.7C82.7991 239 82.4991 239.3 82.3991 239.2C82.1991 239 81.8991 239.2 81.8991 238.7C81.8991 238.5 81.8991 238.3 81.4991 238.8C81.3991 239 81.3991 238.8 81.2991 238.8C81.2991 238.8 81.0991 239.1 80.9991 239C80.9991 239 80.9991 238.7 80.9991 238.6C80.4991 239.1 80.4991 238.2 80.1991 238.2C79.7991 238.2 79.5991 238.1 79.2991 237.9C79.1991 237.8 79.0991 237.6 79.2991 236.4C79.3991 235.9 79.5991 235.4 79.7991 235.1C79.8991 234.9 80.0991 234.7 80.1991 234.7C80.2991 234.7 80.4991 234.6 80.5991 234.5C80.8991 234.4 81.1991 234 81.2991 234.3C81.2991 234.4 81.4991 234.1 81.2991 234.6C81.7991 234 81.8991 234.6 82.1991 234.6C82.3991 234.6 82.7991 234.1 82.9991 234.4C83.2991 233.8 83.3991 234 83.4991 234.2C83.6991 235 84.1991 234.7 84.5991 234.9C84.9991 235.1 85.3991 235.1 85.7991 235.3C85.7991 235.3 85.9991 235 85.9991 235.3C85.9991 235.6 86.1991 235.3 86.2991 235.4H86.4991C86.6991 236.1 87.0991 235.8 87.3991 235.9C87.6991 236 87.9991 236.1 88.3991 235.9C88.5991 235.9 88.7991 235.5 88.9991 235.6C88.9991 235.6 89.1991 235.3 89.1991 235.9C89.1991 236.1 89.2991 235.6 89.3991 235.6C89.4991 235.6 89.6991 235.6 89.7991 235.6C89.9991 235.6 90.1991 235.6 90.2991 235.6C90.3991 235.6 90.4991 235.3 90.5991 235.2C90.6991 235.2 90.7991 235.2 90.8991 235.2C90.9991 235.2 91.1991 235.5 91.3991 235.5C91.5991 235.5 91.5991 235.2 91.7991 235.5C92.1991 235.9 92.3991 235.6 92.5991 235.6C92.8991 235.6 93.0991 235.6 93.2991 235.3C93.3991 235.2 93.6991 235.6 93.8991 235.5C93.8991 235.5 94.6991 236.8 94.8991 237.2V237.4C94.8991 237.9 95.0991 238.6 94.8991 238.7C94.5991 238.7 94.2991 238.9 93.8991 239L93.6991 239.5Z" fill="black"/>
<path d="M177 196.602C176.7 197.002 176.4 197.302 176.2 197.602C176.1 197.702 175.8 197.602 176 198.202C176.1 198.502 175.6 198.102 175.5 198.202C175.2 198.502 174.8 198.702 174.5 198.902C174.2 199.102 173.9 199.502 173.5 199.702C173.1 199.902 172.6 199.702 172.3 200.102C172 200.402 171.6 199.902 171.3 200.102C171 200.202 170.6 200.302 170.2 200.102C170 199.902 169.8 199.602 169.5 199.702C169.3 199.702 169.1 200.002 169 199.902C168.9 199.902 168.8 199.502 168.4 200.102C168.4 200.102 168.4 200.102 168.4 199.902C168.4 199.502 168.2 199.402 167.9 199.602C167.7 199.802 167.6 199.702 167.4 199.602C167.1 199.502 166.7 199.302 166.4 199.002C166.2 198.802 166.1 198.402 166 198.202C165.9 198.002 165.4 197.902 165.5 197.602C165.5 197.202 165.5 197.002 165.3 196.902C165.3 196.802 165.3 196.502 164.8 196.802C165.3 196.102 164.2 196.302 164.2 195.802C164.2 195.302 163.9 195.002 163.8 194.702C163.8 194.702 163.9 194.402 163.4 194.502C163.2 194.502 163.2 194.502 163.3 194.302C163.8 193.902 163.3 193.702 163.4 193.402C163.4 193.102 163.1 192.802 163.6 192.402C163.8 192.202 163.9 192.102 163.3 192.002C163 192.002 163.3 191.802 163.3 191.702L163 191.502C163 191.502 163.2 191.302 163.3 191.202C162.6 190.802 163.5 190.302 163.3 189.902C163.1 189.502 163.3 189.102 163.3 188.602C163.3 188.402 163.6 188.202 164.7 188.102C165.2 188.102 165.8 188.102 166.1 188.102C166.3 188.102 166.6 188.302 166.6 188.302C166.6 188.402 166.8 188.602 166.9 188.702C167.1 188.902 167.6 189.202 167.3 189.402C167.3 189.402 167.5 189.602 167 189.602C167.8 189.902 167.3 190.302 167.4 190.602C167.4 190.902 168.1 191.102 167.9 191.402C168.5 191.402 168.4 191.602 168.3 191.802C167.7 192.402 168.3 192.802 168.3 193.202C168.3 193.702 168.6 194.002 168.8 194.302C168.8 194.302 169.2 194.302 169 194.402C168.8 194.602 169 194.602 169.1 194.602C169.1 194.602 169.3 194.602 169.2 194.802C168.9 195.502 169.5 195.402 169.7 195.602C169.9 195.802 170.2 196.002 170.5 196.002C170.7 196.002 171 195.702 171.1 195.802C171.1 195.802 171.3 195.502 171.3 196.102C171.3 196.302 171.4 195.802 171.5 195.802C171.6 195.802 171.7 195.802 171.8 195.802C172 195.802 172.1 195.802 172.3 195.802C172.3 195.802 172.3 195.502 172.5 195.402C172.5 195.402 172.6 195.302 172.7 195.302C172.8 195.302 173 195.402 173.2 195.402C173.4 195.402 173.2 195.102 173.6 195.202C174.1 195.402 174.2 195.002 174.4 194.902C174.6 194.702 174.8 194.502 174.8 194.202C174.8 194.002 175.3 194.202 175.4 193.902C175.4 193.902 176.9 194.102 177.4 194.302C177.4 194.302 177.6 194.302 177.6 194.402C178 194.802 178.6 195.302 178.4 195.602C178.1 196.002 177.9 196.502 177.6 196.902L177 196.602Z" fill="black"/>
<path d="M172.8 195.001C172.8 194.901 172.9 194.801 172.9 194.701C172.9 194.701 173.2 194.701 172.7 194.501C172.4 194.501 173.1 194.501 173.1 194.501C173.1 194.401 173.1 194.301 173.1 194.101C173.1 194.001 172.8 193.801 172.8 193.701C172.8 193.601 173 193.501 172.8 193.401C172.5 193.401 173 193.201 172.8 193.101C172.7 193.101 172.6 193.001 172.8 192.801C172.9 192.701 173.1 192.601 173 192.501H172.6C172.6 192.501 172.8 192.301 172.2 192.501C172.2 192.501 172.2 192.501 172.3 192.501C172.7 192.301 172.6 192.301 172.3 192.301C172 192.301 172.1 192.301 172 192.301C172 192.301 171.9 192.201 171.9 192.101C171.9 192.101 172.1 191.801 172.1 191.701C172.1 191.601 171.8 191.701 172.1 191.501C172.3 191.301 172.2 191.201 172.1 191.101C172.1 191.101 172.2 190.801 171.7 191.201C172.2 190.501 171.3 191.201 171.4 191.001C171.4 190.801 171.2 190.801 171.1 190.701C171.1 190.701 171.1 190.501 170.8 190.901C170.7 191.001 170.7 191.001 170.8 190.901C171.1 190.301 170.8 190.601 170.8 190.401C170.8 190.201 170.5 190.401 170.7 189.901C170.7 189.701 170.7 189.601 170.4 190.001C170.2 190.201 170.4 190.001 170.2 190.001C170.2 190.001 170 190.201 169.9 190.201C169.9 190.201 169.9 190.001 169.9 189.901C169.4 190.401 169.7 189.501 169.4 189.601C169.2 189.601 169 189.601 168.9 189.401C168.9 189.401 168.8 189.101 169 188.001C169.1 187.501 169.3 187.001 169.4 186.701C169.5 186.501 169.6 186.301 169.7 186.201C169.8 186.201 169.9 186.001 170 186.001C170.2 185.901 170.6 185.401 170.7 185.801C170.7 185.901 170.9 185.601 170.7 186.101C171.2 185.501 171.3 186.101 171.5 186.101C171.7 186.101 172.2 185.701 172.3 186.101C172.7 185.601 172.8 185.801 172.8 186.101C172.8 186.901 173.5 186.801 173.8 187.201C174.1 187.601 174.5 187.801 174.8 188.201C174.8 188.201 175.2 188.101 175 188.301C174.9 188.501 175 188.501 175.2 188.601C175.2 188.601 175.4 188.601 175.4 188.801C175.1 189.501 175.6 189.601 175.8 190.001C175.9 190.401 176 190.801 176.3 191.101C176.5 191.301 176.9 191.401 176.8 191.701C176.8 191.801 177.1 191.901 176.6 192.101C176.4 192.101 176.9 192.101 176.9 192.201C176.9 192.401 176.9 192.501 176.9 192.701C176.9 192.901 176.9 193.201 176.9 193.401C176.9 193.501 177.2 193.701 177.2 193.801C177.2 194.001 177.2 194.101 177.2 194.301C177.2 194.501 176.9 194.701 176.8 194.901C176.8 195.101 176.9 195.401 176.6 195.501C176 195.701 176.2 196.101 175.9 196.401C175.7 196.701 175.5 197.001 175.4 197.401C175.4 197.601 174.8 197.401 174.7 197.601C174.7 197.601 173.5 196.801 173.1 196.401C173.1 196.401 173 196.301 172.9 196.201C172.6 195.801 172.1 195.301 172.2 195.301C172.3 195.301 172.4 195.101 172.4 195.001H172.8Z" fill="black"/>
<path d="M179.801 197.898C180.601 198.198 181.201 198.698 181.801 199.198C182.001 199.398 182.001 199.698 182.601 199.598C182.901 199.598 182.601 200.098 182.701 200.298C183.101 200.698 183.301 201.198 183.701 201.498C184.001 201.798 184.401 201.898 184.801 202.298C185.001 202.498 185.101 202.698 185.301 202.998C185.501 203.298 185.601 203.498 186.001 203.798C186.601 204.298 186.401 205.198 186.601 205.798C186.801 206.498 186.801 207.398 186.301 207.898C185.901 208.298 185.501 208.598 185.301 209.098C185.201 209.398 185.201 209.798 184.901 209.998C184.601 210.198 184.201 210.198 184.301 210.798C184.301 210.798 184.101 210.798 184.001 210.798C183.501 210.598 183.201 210.798 183.101 211.098C183.001 211.398 182.701 211.498 182.501 211.498C181.901 211.698 181.301 211.798 180.801 211.798C180.401 211.798 180.001 211.498 179.701 211.498C179.301 211.498 178.901 211.698 178.601 211.298C178.301 210.998 178.001 210.898 177.601 210.898C177.401 210.898 177.301 210.498 177.001 211.098H176.901C176.601 210.198 175.701 211.098 175.201 210.598C174.701 210.198 174.101 209.998 173.501 209.698C173.401 209.698 173.301 209.398 172.901 209.698C172.801 209.698 172.601 209.698 172.601 209.498C172.601 208.698 172.001 208.598 171.701 208.198C171.401 207.698 170.801 207.298 170.901 206.598C170.901 206.298 170.901 205.998 170.301 205.898C170.001 205.898 170.201 205.498 170.001 205.298C170.001 205.098 169.601 204.998 169.501 204.898C169.501 204.698 169.701 204.498 169.701 204.398V204.298C169.301 203.898 169.301 203.398 169.501 202.998C169.601 202.498 169.801 202.098 169.801 201.698C169.801 200.798 170.301 199.798 170.901 199.098C171.301 198.698 171.801 198.398 172.801 199.098C173.201 199.398 173.501 199.898 173.701 200.198C173.701 200.398 173.901 200.698 173.801 200.798C173.801 200.998 173.801 201.198 173.801 201.298C173.801 201.598 174.201 202.098 173.801 202.198C173.701 202.198 174.001 202.398 173.401 202.398C174.101 202.898 173.601 203.198 173.701 203.598C173.701 203.898 174.501 204.098 174.301 204.398C174.901 204.398 174.901 204.398 174.801 204.698C174.601 205.098 174.801 205.398 175.001 205.598C175.201 205.798 175.501 205.998 175.801 206.198C176.301 206.698 177.001 206.898 177.801 207.098C177.901 207.098 178.101 206.798 178.201 207.098C178.201 207.398 178.501 207.198 178.701 207.198C178.901 207.198 179.001 207.198 179.201 207.198C179.801 207.898 180.501 207.498 181.001 207.498C181.501 207.498 182.001 207.398 182.101 207.098C182.101 206.898 181.901 206.698 182.101 206.698C182.101 206.698 181.801 206.598 182.401 206.698C182.601 206.698 182.101 206.598 182.101 206.598C182.101 206.598 182.101 206.498 182.101 206.398C182.101 206.198 181.901 206.098 181.801 205.998C181.601 205.898 181.301 205.798 181.101 205.698C180.901 205.498 180.601 205.298 180.501 204.998C180.301 204.598 180.201 204.198 180.101 203.898C179.901 203.598 179.501 203.498 179.601 203.098C179.601 202.398 179.101 202.198 178.901 202.098C178.701 201.898 178.301 201.798 178.101 201.898C178.101 201.898 177.801 201.498 177.701 201.598C177.701 201.598 177.701 201.598 177.501 201.398C177.401 201.398 177.201 201.198 177.101 200.998C176.801 200.698 176.401 200.398 176.201 200.198L176.101 199.998C176.101 199.298 176.401 198.298 177.101 198.198C178.201 197.998 179.101 198.198 180.001 198.498L179.801 197.898Z" fill="black"/>
<path d="M185.801 208.598C186.301 208.898 186.801 209.298 187.401 209.598C187.601 209.698 187.701 210.098 188.201 209.798C188.501 209.698 188.201 210.298 188.501 210.398C189.001 210.698 189.501 211.298 190.001 211.698C190.501 212.098 191.101 212.598 191.501 213.198C191.901 213.898 191.901 214.598 192.301 215.298C192.701 215.898 192.301 216.598 192.301 217.198C192.301 217.898 192.301 218.698 191.701 219.298C191.301 219.698 190.901 219.998 190.601 220.398C190.401 220.698 190.401 221.098 190.101 221.298C189.801 221.498 189.401 221.398 189.401 222.098C189.401 222.098 189.201 222.098 189.101 222.098C188.601 221.898 188.301 222.098 188.101 222.398C187.901 222.698 187.701 222.798 187.401 222.798C186.701 222.998 186.001 222.998 185.401 222.998C184.901 222.998 184.401 222.598 184.001 222.498C183.601 222.298 183.001 222.498 182.701 221.998C182.401 221.598 182.101 221.398 181.701 221.298C181.501 221.298 181.401 220.798 181.001 221.298H180.901C180.901 220.298 179.801 220.898 179.401 220.398C179.001 219.898 178.501 219.698 177.901 219.298C177.701 219.198 177.701 218.898 177.201 219.098C177.001 219.098 176.801 219.098 176.801 218.798C176.801 217.898 176.101 217.498 175.901 216.698C175.701 215.898 175.401 215.098 175.901 214.398C176.101 214.098 176.301 213.798 175.901 213.298C175.701 213.098 176.001 212.798 176.101 212.498C176.101 212.298 176.001 211.998 176.101 211.798C176.101 211.598 176.501 211.598 176.701 211.498C176.701 211.498 176.701 211.498 176.701 211.298C176.701 210.698 177.001 210.298 177.401 210.098C177.801 209.798 178.201 209.598 178.501 209.298C179.001 208.598 179.701 208.198 180.301 207.798C180.301 207.798 180.601 207.598 180.901 207.498C181.201 207.398 181.801 207.198 182.601 207.498C182.801 207.498 182.901 207.598 183.101 207.798C183.401 207.998 183.601 208.198 183.701 208.498C184.001 209.098 183.901 209.498 183.701 209.698C183.601 209.998 183.401 210.198 183.201 210.298C183.001 210.398 182.701 210.598 182.201 210.498C181.801 210.498 181.701 210.198 181.701 209.998C181.701 209.898 181.701 209.798 181.901 209.698C181.901 209.698 181.901 209.698 182.001 209.598C182.001 209.698 182.001 209.698 182.001 209.698C182.001 209.698 182.001 209.898 182.201 210.198C182.201 210.198 182.301 210.398 182.401 210.498C182.401 210.498 182.401 210.598 182.401 210.698C182.201 211.098 182.201 211.798 181.701 211.798C181.501 211.798 181.701 212.098 181.201 211.798H181.101C181.201 212.698 180.501 212.698 180.301 213.098C180.101 213.498 180.601 213.998 180.301 214.098C180.901 214.398 180.701 214.498 180.501 214.598C180.201 214.798 180.101 214.998 180.201 215.098C180.201 215.198 180.401 215.198 180.601 215.498C180.801 215.798 181.301 216.098 181.701 216.398L182.901 217.198C183.001 217.198 183.301 216.998 183.301 217.398C183.301 217.698 183.601 217.598 183.801 217.698C184.001 217.698 184.201 217.698 184.201 217.898C184.401 218.298 184.701 218.498 185.001 218.498C185.301 218.498 185.601 218.498 185.901 218.498C186.501 218.498 187.101 218.398 187.301 217.998C187.501 217.698 187.301 217.398 187.501 217.298C187.501 217.298 187.301 217.098 187.901 217.198C188.101 217.198 187.701 216.998 187.601 216.898C187.601 216.698 187.601 216.598 187.601 216.398C187.601 216.098 187.601 215.798 187.401 215.598C187.301 215.398 187.001 215.398 186.901 215.298C186.801 215.198 186.701 214.998 186.601 214.798C186.501 214.598 186.501 214.198 186.301 213.898C186.101 213.598 185.701 213.598 185.601 213.198C185.401 212.398 184.701 212.198 184.101 211.798C183.801 211.598 183.601 211.398 183.401 211.298C183.401 211.298 183.301 211.298 183.201 211.298C183.201 211.298 183.201 210.298 183.201 210.698V210.798C183.201 210.698 183.001 210.498 182.901 210.498C182.901 210.498 182.801 210.498 182.701 210.498C182.301 210.498 181.801 210.498 181.501 210.498C181.501 210.498 181.301 210.498 181.301 210.298C180.901 209.498 181.301 207.998 182.301 207.798C182.701 207.798 183.101 207.698 183.501 207.698C183.801 207.698 184.201 207.798 184.501 207.898C185.101 208.098 185.501 208.298 185.801 208.498V208.598Z" fill="black"/>
<path d="M191.601 230.701V230.501L191.401 230.201C191.401 230.001 191.201 229.801 191.101 229.701C191.101 229.601 191.101 229.301 190.601 229.401C190.301 229.401 190.801 229.001 190.701 228.901C190.501 228.601 190.301 228.201 190.101 228.001C189.901 227.701 189.501 227.601 189.201 227.301C188.901 227.101 188.901 226.601 188.501 226.501C188.101 226.501 188.301 225.901 188.001 225.801C187.701 225.701 187.401 225.501 187.401 225.201V225.001C187.401 225.001 187.401 225.001 187.401 224.901L187.201 225.201C187.201 225.201 187.201 224.901 187.101 225.501C187.101 225.501 187.101 225.501 187.101 225.301C187.101 224.801 187.101 224.801 187.101 225.201C187.101 225.501 187.101 225.501 187.101 225.501C187.101 225.501 187.001 225.101 186.901 225.001C186.701 224.701 186.701 224.801 186.601 224.901C186.601 224.901 186.301 224.801 186.801 225.301C186.401 225.001 186.501 225.201 186.601 225.301C186.701 225.401 186.901 225.501 186.801 225.501C186.801 225.501 186.601 225.701 186.601 225.901C186.601 226.101 186.601 226.301 186.501 226.501C186.501 226.601 186.301 226.701 186.701 226.901C186.801 226.901 186.801 227.101 186.701 227.101C186.001 227.201 186.301 227.601 186.101 227.901C185.901 228.201 186.101 228.601 185.501 228.901C185.301 228.901 185.101 229.201 185.601 229.501C185.801 229.601 185.601 229.801 185.601 229.901C185.601 230.001 185.901 230.201 185.801 230.301C185.801 230.301 185.501 230.401 185.401 230.501C185.901 231.201 184.901 231.501 185.001 232.001C185.001 232.601 184.901 233.101 184.601 233.601C184.501 233.901 184.201 234.101 183.101 234.101C182.601 234.101 182.001 234.001 181.701 233.801C181.501 233.701 181.301 233.501 181.301 233.401C181.301 233.201 181.101 233.001 181.101 232.801C181.001 232.401 180.501 232.001 180.901 231.701C181.001 231.701 180.701 231.401 181.301 231.401C180.601 230.701 181.301 230.401 181.301 229.901C181.301 229.501 180.801 228.901 181.301 228.601C180.701 228.201 180.901 228.001 181.201 227.801C182.101 227.201 181.801 226.301 182.101 225.501C182.101 225.301 182.201 225.101 182.301 224.901L182.501 224.201C182.701 223.501 182.901 222.701 183.101 222.001C183.101 221.801 183.001 221.201 183.301 221.201C183.601 221.201 183.501 220.601 183.601 220.301C183.601 220.001 183.601 219.501 183.901 219.501C184.201 219.401 184.401 219.101 184.501 218.801C184.501 218.801 184.601 218.801 184.701 218.801H184.901C184.901 218.901 185.301 219.101 185.301 219.101C185.601 219.201 185.801 219.301 186.101 219.501C187.001 220.101 187.801 220.601 188.801 221.101C189.101 221.301 189.401 221.401 189.701 221.501C189.901 221.501 190.001 221.601 190.201 221.801C190.201 221.801 190.301 221.901 190.401 222.001C190.401 222.001 190.401 222.001 190.501 222.101C190.601 222.301 191.001 222.101 190.701 222.701C190.701 222.901 191.101 222.701 191.201 222.701C191.501 222.901 191.601 223.101 191.901 223.301C192.201 223.601 192.401 224.001 192.701 224.301C192.901 224.501 193.301 224.501 193.501 224.701C193.701 224.901 193.901 225.101 194.001 225.401C194.101 225.701 194.101 226.101 194.301 226.501C194.401 226.801 194.901 227.001 194.801 227.501C194.601 228.301 195.101 228.701 195.301 229.301C195.501 230.001 195.701 230.701 195.801 231.801C195.801 232.401 195.101 232.901 194.701 233.401C194.601 233.501 194.201 233.401 193.901 233.101C193.601 232.801 193.301 232.401 193.101 232.201C193.101 232.201 193.101 232.001 193.001 232.001C193.001 231.901 192.901 231.801 192.801 231.701C192.801 231.701 192.601 231.601 192.301 231.501H192.201C192.201 231.501 192.201 231.501 192.201 231.401C192.201 231.301 192.201 231.101 192.101 231.001L191.601 230.701Z" fill="black"/>
<path d="M192.6 233.901C192.4 234.201 192.2 234.401 192 234.701C192 234.801 191.7 234.701 192 235.201C192.1 235.401 191.6 235.001 191.6 235.201C191.4 235.401 191.1 235.501 190.9 235.701C190.7 235.901 190.5 236.201 190.2 236.401C189.9 236.601 189.6 236.401 189.4 236.701C189.2 237.001 188.9 236.601 188.8 236.701C188.6 236.801 188.4 236.901 188.2 236.701C188 236.501 187.9 236.301 187.8 236.401C187.8 236.401 187.6 236.801 187.5 236.801C187.5 236.801 187.3 236.501 187.2 237.101C187.2 237.101 187.2 237.101 187.2 236.901C187.2 236.501 187 236.501 186.9 236.801C186.8 237.101 186.7 237.001 186.7 237.001C186.5 237.001 186.3 237.001 186.2 237.001C186.1 237.001 186 236.701 185.9 236.601C185.8 236.601 185.6 236.801 185.5 236.401C185.5 236.101 185.3 236.101 185.2 236.001C185.2 236.001 185.2 235.701 184.9 236.301C184.9 235.501 184.5 236.401 184.3 236.201C184.2 235.901 183.9 236.001 183.7 236.001C183.7 236.001 183.7 235.801 183.5 236.201C183.5 236.301 183.4 236.301 183.4 236.201C183.4 235.601 183.2 235.901 183.1 235.701C183 235.501 182.7 235.701 182.7 235.201C182.7 235.001 182.7 234.801 182.3 235.301C182.2 235.501 182.2 235.301 182.1 235.301C182.1 235.301 181.9 235.501 181.8 235.501C181.8 235.501 181.8 235.301 181.8 235.101C181.3 235.601 181.4 234.701 181.1 234.701C180.8 234.701 180.6 234.501 180.4 234.301C180.3 234.201 180.3 233.901 180.8 232.901C181 232.401 181.3 232.001 181.5 231.701C181.7 231.501 181.8 231.301 181.9 231.301C182 231.301 182.1 231.201 182.2 231.101C182.4 231.001 182.8 230.601 182.8 230.901C182.8 230.901 183 230.801 182.8 231.201C183.3 230.601 183.3 231.201 183.5 231.201C183.7 231.201 184.1 230.701 184.1 231.001C184.4 230.501 184.5 230.601 184.5 230.801C184.5 231.501 185 231.201 185.2 231.401C185.5 231.601 185.8 231.601 186.1 231.701C186.1 231.701 186.3 231.401 186.3 231.701C186.3 232.001 186.4 231.701 186.5 231.801C186.5 231.801 186.7 231.701 186.7 231.801C186.7 232.501 187.1 232.201 187.4 232.301C187.6 232.401 187.8 232.501 188.1 232.301C188.2 232.301 188.4 231.901 188.5 232.001C188.5 232.001 188.5 231.701 188.6 232.301C188.6 232.501 188.6 232.001 188.6 232.001C188.6 232.001 188.7 232.001 188.8 232.001H189C189 232.001 189 231.701 189 231.601C189 231.601 189.2 231.801 189.2 231.901C189.2 231.901 189.2 231.701 189.3 231.901C189.7 232.201 189.6 231.901 189.7 231.901C189.7 231.901 189.9 231.901 189.7 231.801H190.1C190.1 231.801 190.5 231.801 190.9 231.801C191.3 231.801 191.8 231.801 192.1 231.801H192.3C192.8 232.001 193.5 232.301 193.3 232.601C193.1 233.001 193 233.401 192.8 233.701L192.6 233.901Z" fill="black"/>
</svg>
