<svg width="300" height="300" viewBox="0 0 300 300" fill="none" xmlns="http://www.w3.org/2000/svg">
<path d="M179.6 136.2C178.4 135 177.3 133.7 176.1 132.5C175.7 132.1 175.4 131.4 174.6 131.3C174.2 131.3 174.2 130.4 173.8 129.9C172.7 128.8 171.6 127.6 170.5 126.4C169.4 125.3 168.2 124.3 167.1 123.2C166 122.1 165.1 120.8 163.9 119.9C162.8 119.2 162.4 118 161.5 117.3C160.6 116.6 159.7 116 158.9 115.4C158.3 114.9 157.7 114.5 156.8 114.4C156.3 114.4 155.8 114.6 155.2 114.5C154.7 114.5 154.1 114.1 153.6 114.7C153.6 114.7 153.3 114.7 153.2 114.5C152.6 114.1 151.9 114.1 151.3 114.3C150.8 114.6 150.4 114.5 149.9 114.5C148.6 114.5 147.4 114.5 146.1 114.5C145.2 114.5 144.2 114.3 143.2 114.3C142.2 114.3 141.2 114.7 140.2 114.5C139.2 114.3 138.4 114.5 137.5 114.5C137 114.5 136.4 114.4 136 115.1C136 115.1 135.8 115.1 135.7 115.1C134.1 114.5 132.9 115.9 131.4 116C129.9 116.1 128.4 116.6 126.9 117.1C126.5 117.2 126 117.1 125.8 117.7C125.8 117.9 125.3 118 125.1 118C123.8 117.7 122.9 118.5 121.8 118.8C120.6 119.2 119.7 120 118.5 120.3C118 120.4 117.4 120.8 117.4 121.7C117.4 122.1 116.9 122.3 116.7 122.7C116.6 123 116.7 123.4 116.5 123.7C116.4 123.9 116 124.1 115.8 124.3C115.8 124.3 115.7 124.5 115.7 124.6C115.7 125.5 115.4 126.3 115.1 127.1C114.8 127.9 114.5 128.9 114.5 129.8C114.5 130.8 114.5 131.7 114.5 132.7C114.5 133.7 114.5 134.7 114.4 135.7C114.4 136.8 114.2 137.9 113 138.7C112.5 139.1 111.9 139.1 111.6 138.6C111.4 138.3 111.1 137.8 111.1 137.4C111 136.8 110.9 136.1 110.8 135.5C110.6 134.2 110 132.9 110.4 131.5C110.5 131.1 110.2 130.5 110.8 130.2C110.8 130.2 110.9 130 110.8 129.9C110.2 128 110.9 126 111.5 124.1C111.7 123.3 111.9 122.4 112.2 121.5C112.5 120.6 112.9 119.8 113.6 119.1C113.8 117.9 114.8 117 115.8 116.5C117.5 115.7 119 114.9 120.6 114.3C122.1 113.7 123.7 113.1 125.2 112.8C128.3 112 131.4 111.3 134.6 110.8C135.1 110.8 135.5 110.3 136.2 110.5C136.8 110.7 137.6 110.4 138.3 110.3C138.9 110.3 139.6 110 140.2 110.1C142.7 110.5 145.2 110 147.7 110C148.9 110 150.2 110 151.4 110C152.6 110 153.9 110 155.2 110.1C156.8 110.1 158.6 110.1 160.2 111.1C160.9 111.5 161.8 111.6 162.1 112.5C162.1 112.7 163 112.8 163.4 113.1C164.3 113.8 165.1 114.6 165.8 115.4C166.8 116.5 167.7 117.5 168.7 118.5C169.3 119.1 170.1 119.6 170.7 120.2C171.4 120.8 172 121.5 172.6 122.2C173.3 123.1 174 124.1 174.7 125C175.5 125.9 176.5 126.6 177.1 127.7C178.2 129.6 179.8 131 181.2 132.6C182.6 134.2 184 135.7 185.5 137.2C186.4 138 186.7 139.2 187.5 140C187.9 140.4 187.3 141.9 186.8 142.1C186.8 142.1 186.6 142.1 186.5 142.1C185.4 141.6 184.1 141.3 183.3 140.3C182 138.8 180.7 137.5 179.4 136.1L179.6 136.2Z" fill="black"/>
<path d="M116.3 161.199C116.3 161.699 116.3 162.099 116.5 162.599C116.5 162.799 116.3 162.999 116.9 163.099C117.2 163.099 116.6 163.399 116.6 163.599C116.7 163.999 116.7 164.499 116.8 164.899C116.9 165.299 117.2 165.699 117.3 166.099C117.4 166.499 117.3 166.999 117.6 167.399C117.9 167.699 117.5 168.099 117.6 168.399C117.8 168.699 117.9 169.099 117.7 169.499C117.6 169.799 117.4 170.099 117.6 170.299C117.6 170.399 118 170.499 118 170.699C118 170.899 117.8 171.099 118.4 171.099C118.4 171.099 118.4 171.099 118.3 171.199C117.9 171.399 118 171.599 118.3 171.699C118.6 171.699 118.6 171.899 118.6 172.099C118.6 172.499 118.8 172.799 118.8 173.199C118.8 173.499 118.6 173.799 118.6 174.099C118.6 174.399 118.9 174.599 118.6 174.999C118.3 175.299 118.4 175.599 118.5 175.799C118.5 175.899 118.3 176.199 118.9 176.199C118.2 176.799 119.3 176.999 119.2 177.399C119.1 177.899 119.3 178.299 119.4 178.699C119.4 178.799 119.3 178.999 119.7 178.999C119.9 178.999 119.9 179.099 119.8 179.199C119.2 179.599 119.7 179.899 119.6 180.299C119.6 180.699 119.9 180.999 119.6 181.499C119.4 181.699 119.4 181.899 120 181.999C120.3 181.999 120 182.299 120.1 182.399C120.1 182.499 120.5 182.599 120.5 182.699C120.5 182.699 120.3 182.899 120.2 183.099C121 183.499 120.2 184.199 120.5 184.799C120.8 185.299 120.8 185.899 120.8 186.499C120.8 186.799 120.7 187.199 119.6 187.599C119.1 187.799 118.6 187.899 118.2 187.799C117.9 187.799 117.7 187.699 117.6 187.599C117.5 187.399 117.3 187.299 117.2 187.099C116.9 186.799 116.3 186.499 116.6 186.099C116.6 185.999 116.3 185.899 116.8 185.699C115.9 185.399 116.3 184.699 116.2 184.199C116.1 183.799 115.4 183.499 115.6 182.999C114.9 182.899 115 182.599 115.1 182.299C115.6 181.299 115 180.599 114.9 179.699C114.9 178.799 114.6 177.999 114.5 177.099C114.5 176.999 114.1 176.899 114.3 176.699C114.5 176.499 114.3 176.299 114.3 176.099C114.3 175.899 114.1 175.799 114.3 175.599C114.8 174.799 114.3 174.199 114.3 173.499C114.3 172.799 114.2 172.099 113.9 171.499C113.7 171.099 113.3 170.699 113.4 170.299C113.4 170.099 113.1 169.999 113.6 169.699C113.8 169.699 113.3 169.499 113.2 169.399C113.2 169.099 113.1 168.799 113 168.499C113 168.099 113 167.699 112.8 167.299C112.8 167.099 112.4 166.899 112.3 166.599C112.2 166.399 112.2 166.099 112.2 165.799C112.2 165.499 112.4 165.099 112.4 164.799C112.4 164.499 112.1 164.199 112.4 163.799C112.8 163.099 112.4 162.599 112.4 161.999C112.4 161.399 112.4 160.799 112.1 160.199C112 159.899 112.4 159.499 112.4 159.199C112.4 158.999 113.8 158.699 114.3 158.699H114.5C115 158.999 115.8 159.199 115.8 159.499C115.8 159.999 115.9 160.599 116 161.099L116.3 161.199Z" fill="black"/>
<path d="M166.101 147.298C166.501 147.098 166.801 146.998 167.201 146.698C167.301 146.698 167.601 146.698 167.501 146.198C167.501 145.898 167.901 146.398 168.001 146.398C168.301 146.198 168.701 146.098 169.001 145.898C169.301 145.698 169.501 145.298 169.801 145.098C170.101 144.898 170.601 145.098 170.801 144.598C171.001 144.198 171.401 144.598 171.601 144.298C171.801 144.098 172.101 143.898 172.501 143.998C172.801 143.998 173.101 144.198 173.201 143.998C173.201 143.898 173.201 143.498 173.401 143.498C173.501 143.498 173.801 143.698 173.701 142.998C173.701 142.998 173.701 142.998 173.901 142.998C174.201 143.298 174.401 143.198 174.401 142.998C174.401 142.698 174.501 142.698 174.601 142.598C174.901 142.498 175.201 142.298 175.501 142.298C175.701 142.298 176.001 142.298 176.301 142.298C176.501 142.298 176.701 141.898 177.001 142.098C177.301 142.298 177.501 142.198 177.701 142.098C177.801 142.098 178.101 142.298 177.901 141.598C178.501 142.298 178.501 141.098 178.901 141.198C179.301 141.198 179.601 140.998 180.001 140.898C180.001 140.898 180.301 140.998 180.201 140.498C180.201 140.298 180.201 140.298 180.401 140.398C180.901 140.898 181.001 140.398 181.301 140.398C181.601 140.398 181.901 139.998 182.301 140.398C182.501 140.598 182.701 140.598 182.701 139.998C182.701 139.698 182.901 139.998 183.001 139.798C183.001 139.798 183.001 139.398 183.201 139.398C183.201 139.398 183.401 139.598 183.501 139.698C183.801 138.898 184.501 139.698 184.901 139.298C185.301 138.998 185.801 138.898 186.301 138.898C186.601 138.898 186.901 138.898 187.401 139.998C187.601 140.498 187.801 140.998 187.701 141.398C187.701 141.698 187.701 141.898 187.601 141.998C187.501 142.098 187.401 142.298 187.301 142.398C187.101 142.698 186.901 143.298 186.601 143.098C186.501 143.098 186.501 143.398 186.201 142.898C186.001 143.798 185.501 143.398 185.101 143.598C184.801 143.798 184.601 144.498 184.201 144.298C184.201 144.998 184.001 144.898 183.701 144.798C182.801 144.398 182.301 144.998 181.601 145.198C180.901 145.298 180.301 145.698 179.601 145.898C179.501 145.898 179.601 146.298 179.301 146.098C179.101 145.898 179.001 146.098 178.801 146.198C178.701 146.198 178.601 146.398 178.401 146.298C177.601 145.898 177.301 146.498 176.701 146.598C176.201 146.698 175.601 146.898 175.201 147.298C174.901 147.498 174.801 147.998 174.401 147.998C174.201 147.998 174.201 148.398 173.901 147.898C173.801 147.798 173.901 148.198 173.801 148.298C173.601 148.398 173.401 148.498 173.201 148.598C172.901 148.698 172.601 148.798 172.301 148.998C172.101 149.098 172.101 149.398 171.901 149.598C171.701 149.698 171.601 149.798 171.301 149.898C171.001 149.898 170.701 149.898 170.401 149.898C170.101 149.898 170.001 150.298 169.601 150.198C168.901 149.998 168.601 150.398 168.201 150.598C167.701 150.798 167.301 150.898 166.901 151.298C166.701 151.498 166.201 151.198 166.001 151.298C165.901 151.298 165.101 150.098 164.901 149.698V149.498C164.901 148.998 164.801 148.198 165.101 148.098C165.501 147.998 165.901 147.698 166.301 147.498L166.101 147.298Z" fill="black"/>
<path d="M146.699 141.101C146.699 140.901 146.699 140.701 146.699 140.601C146.699 140.601 146.899 140.501 146.399 140.401C146.099 140.401 146.799 140.301 146.699 140.201C146.699 140.001 146.699 139.901 146.699 139.701C146.699 139.501 146.399 139.401 146.399 139.201C146.399 139.001 146.699 138.901 146.399 138.701C146.099 138.501 146.599 138.501 146.499 138.301C146.399 138.201 146.299 138.001 146.499 137.901C146.699 137.901 146.899 137.701 146.799 137.601C146.799 137.601 146.399 137.401 146.499 137.401C146.499 137.401 146.799 137.401 146.199 137.201C146.199 137.201 146.199 137.201 146.399 137.201C146.799 137.201 146.799 137.201 146.499 137.001C146.199 137.001 146.299 136.901 146.299 136.801C146.299 136.701 146.299 136.501 146.299 136.401C146.299 136.401 146.599 136.201 146.699 136.201C146.699 136.201 146.499 135.901 146.799 135.901C147.099 135.901 147.099 135.801 147.099 135.701C147.099 135.701 147.399 135.701 146.799 135.501C147.599 135.501 146.599 135.101 146.799 135.001C146.999 134.901 146.899 134.701 146.999 134.501C146.999 134.501 147.199 134.501 146.799 134.301C146.599 134.201 146.599 134.301 146.799 134.301C147.399 134.301 147.099 134.101 147.199 134.001C147.399 133.901 147.199 133.701 147.599 133.701C147.799 133.701 147.899 133.701 147.399 133.401C147.199 133.301 147.399 133.401 147.399 133.201L147.099 133.001C147.099 133.001 147.299 133.001 147.499 133.001C146.899 132.601 147.899 132.701 147.799 132.401C147.799 132.101 147.799 132.001 147.999 131.801C147.999 131.801 148.299 131.701 149.399 132.001C149.899 132.201 150.399 132.401 150.699 132.601C150.899 132.701 151.099 132.801 151.099 132.901C151.099 132.901 151.299 133.101 151.299 133.201C151.399 133.401 151.899 133.701 151.599 133.701C151.599 133.701 151.799 133.901 151.299 133.701C151.999 134.101 151.399 134.101 151.399 134.301C151.399 134.401 151.999 134.801 151.699 134.801C152.299 135.101 152.099 135.101 151.899 135.101C151.199 135.101 151.499 135.501 151.399 135.801C151.199 136.001 151.299 136.301 151.199 136.601C151.199 136.601 151.499 136.801 151.199 136.801C150.899 136.801 151.199 136.901 151.199 137.001C151.199 137.001 151.299 137.101 151.199 137.201C150.499 137.201 150.899 137.601 150.799 137.801C150.799 138.001 150.599 138.201 150.799 138.401C150.799 138.501 151.199 138.701 151.099 138.801C151.099 138.801 151.399 138.901 150.799 138.901C150.599 138.901 151.099 138.901 151.099 139.001C151.099 139.001 151.099 139.201 151.099 139.301C151.099 139.401 151.099 139.501 151.099 139.701L151.399 139.901V140.101C151.399 140.101 151.099 140.301 150.999 140.401C150.999 140.501 151.199 140.601 150.999 140.701C150.499 140.901 150.699 141.101 150.699 141.301C150.699 141.501 150.699 141.701 150.699 141.801C150.699 141.801 150.299 142.001 150.299 142.101C150.299 142.101 148.799 142.301 148.299 142.401H148.099C147.599 142.401 146.899 142.301 146.899 142.101C146.899 141.901 146.899 141.701 146.899 141.501L146.699 141.101Z" fill="black"/>
<path d="M157.1 141.902C157.1 141.702 157.1 141.502 157.1 141.402C157.1 141.402 157.3 141.302 156.8 141.202C156.5 141.202 157.2 141.102 157.1 141.002C157.1 140.802 157.1 140.702 157.1 140.502C157.1 140.302 156.8 140.202 156.8 140.002C156.8 139.802 157.1 139.702 156.8 139.502C156.5 139.302 157 139.302 156.9 139.102C156.8 139.002 156.7 138.802 156.9 138.702C157.1 138.702 157.3 138.502 157.2 138.402C157.2 138.402 156.8 138.202 156.9 138.202C156.9 138.202 157.2 138.202 156.6 138.002C156.6 138.002 156.6 138.002 156.8 138.002C157.2 138.002 157.2 138.002 156.9 137.802C156.6 137.802 156.7 137.702 156.7 137.602C156.7 137.502 156.7 137.302 156.7 137.202C156.7 137.202 157 137.002 157.1 137.002C157.1 137.002 156.9 136.702 157.2 136.702C157.5 136.702 157.5 136.602 157.5 136.502C157.5 136.502 157.8 136.502 157.2 136.302C158 136.302 157 135.902 157.2 135.802C157.4 135.702 157.3 135.502 157.4 135.302C157.4 135.302 157.6 135.302 157.2 135.102C157 135.002 157 135.102 157.2 135.102C157.8 135.102 157.5 134.902 157.6 134.802C157.8 134.702 157.6 134.502 158 134.502C158.2 134.502 158.3 134.502 157.8 134.202C157.6 134.102 157.8 134.202 157.8 134.002L157.5 133.802C157.5 133.802 157.7 133.802 157.9 133.802C157.3 133.402 158.3 133.502 158.2 133.202C158.2 132.902 158.2 132.802 158.4 132.602C158.4 132.602 158.7 132.502 159.8 132.802C160.3 133.002 160.8 133.202 161.1 133.402C161.3 133.502 161.5 133.602 161.5 133.702C161.5 133.702 161.7 133.902 161.7 134.002C161.8 134.202 162.3 134.502 162 134.502C162 134.502 162.2 134.702 161.7 134.502C162.4 134.902 161.8 134.902 161.8 135.102C161.8 135.202 162.4 135.602 162.1 135.602C162.7 135.902 162.5 135.902 162.3 135.902C161.6 135.902 161.9 136.302 161.8 136.602C161.6 136.802 161.7 137.102 161.6 137.402C161.6 137.402 161.9 137.602 161.6 137.602C161.3 137.602 161.6 137.702 161.6 137.802C161.6 137.802 161.7 137.902 161.6 138.002C160.9 138.002 161.3 138.402 161.2 138.602C161.2 138.802 161 139.002 161.2 139.202C161.2 139.302 161.6 139.502 161.5 139.602C161.5 139.602 161.8 139.702 161.2 139.702C161 139.702 161.5 139.702 161.5 139.802C161.5 139.802 161.5 140.002 161.5 140.102C161.5 140.202 161.5 140.302 161.5 140.502L161.8 140.702V140.902C161.8 140.902 161.5 141.102 161.4 141.202C161.4 141.302 161.6 141.402 161.4 141.502C160.9 141.702 161.1 141.902 161.1 142.102C161.1 142.302 161.1 142.502 161.1 142.602C161.1 142.602 160.7 142.802 160.7 142.902C160.7 142.902 159.2 143.102 158.7 143.202H158.5C158 143.202 157.3 143.102 157.3 142.902C157.3 142.702 157.3 142.502 157.3 142.302L157.1 141.902Z" fill="black"/>
<path d="M171.501 152.002C172.401 153.002 173.201 154.002 174.001 154.902C174.301 155.302 174.401 155.802 175.201 155.802C175.601 155.802 175.401 156.602 175.701 156.902C176.501 157.802 177.201 158.802 178.001 159.702C178.401 160.202 178.801 160.502 179.201 161.002C179.801 161.702 180.401 162.402 181.101 163.302C182.101 164.502 182.801 165.702 183.701 167.002C183.201 167.202 182.701 167.302 182.301 167.502C181.601 167.802 180.701 168.002 179.901 168.202C179.001 168.302 178.201 168.502 177.501 168.702C177.301 168.702 177.101 168.802 176.901 168.902H176.401C176.201 169.102 175.901 169.202 175.601 169.202C175.101 169.302 174.601 169.302 174.101 169.202C173.401 169.202 172.601 169.002 171.901 169.202C171.501 169.302 171.101 169.702 170.601 169.702C170.101 169.702 169.601 169.502 169.201 170.102C169.201 170.102 169.001 170.102 168.901 170.002C168.401 169.602 167.801 169.702 167.401 170.002C167.001 170.302 166.601 170.202 166.301 170.202C165.301 170.202 164.201 170.202 163.201 170.002C162.401 169.902 161.701 169.602 160.901 169.402C160.101 169.302 159.201 169.402 158.501 169.002C157.801 168.602 157.101 168.402 156.401 168.302C156.001 168.302 155.601 167.802 155.101 168.302C155.101 168.302 154.901 168.302 154.801 168.302C153.901 167.202 152.501 167.902 151.401 167.302C150.301 166.702 149.001 166.402 147.901 165.902C147.601 165.802 147.301 165.402 146.901 165.702C146.701 165.702 146.401 165.702 146.301 165.402C145.801 164.402 144.701 164.202 143.901 163.602C143.001 162.902 142.001 162.402 141.401 161.302C141.201 160.802 140.801 160.302 140.001 160.302C139.601 160.302 139.401 159.702 139.101 159.402C138.801 159.202 138.401 159.102 138.201 158.802C138.001 158.602 138.001 158.202 137.901 157.902C137.901 157.902 137.901 157.702 137.701 157.702C137.001 157.202 136.501 156.402 136.301 155.602L135.901 154.402C135.801 154.002 135.701 153.602 135.501 153.202C134.701 151.702 134.401 149.902 134.301 148.202C134.301 147.302 134.401 146.302 135.501 145.702C136.001 145.402 136.601 145.402 136.901 145.702C137.201 146.002 137.401 146.202 137.501 146.502C137.601 147.002 137.701 147.402 137.901 147.802C138.101 148.202 138.301 148.702 138.501 149.102C138.701 149.502 138.901 149.902 138.901 150.402C138.901 150.702 139.201 150.902 138.901 151.302V151.502C139.501 151.902 139.701 152.502 140.001 153.002C140.101 153.302 140.201 153.602 140.301 153.902C140.401 154.202 140.601 154.502 140.801 154.702C141.101 155.102 141.501 155.502 141.901 155.802C142.301 156.102 142.701 156.402 143.001 156.902C143.801 156.902 144.201 157.402 144.501 157.902C145.601 159.802 147.701 160.602 149.601 161.602C151.501 162.602 153.601 163.302 155.801 163.902C156.201 163.902 156.601 163.702 156.901 164.102C157.201 164.502 157.801 164.402 158.301 164.502C158.701 164.502 159.201 164.502 159.601 164.802C161.201 165.802 163.101 165.602 164.801 165.702C166.501 165.902 168.301 165.902 170.101 165.702C171.201 165.502 172.201 165.102 173.201 165.102C173.701 165.102 174.101 164.702 174.601 165.102C174.801 165.202 175.101 164.702 175.401 164.602H175.801C175.801 164.502 176.001 164.502 176.001 164.502C176.101 164.502 176.301 164.502 176.401 164.502C176.401 164.502 176.401 164.402 176.201 164.302C176.101 164.202 175.701 164.102 175.601 164.102C175.601 164.102 175.501 164.102 175.401 163.902L175.201 163.702L174.901 163.302C174.401 162.602 174.101 161.802 173.601 161.102C173.101 160.402 172.301 159.802 172.001 159.002C171.401 157.502 170.201 156.402 169.201 155.202C168.201 154.002 167.201 152.802 166.101 151.702C165.501 151.102 165.301 150.202 164.701 149.502C164.401 149.202 165.101 147.802 165.601 147.602C165.601 147.602 165.801 147.602 165.901 147.602C166.801 147.902 167.901 148.002 168.501 148.702C169.401 149.802 170.501 150.902 171.401 152.002H171.501Z" fill="black"/>
<path d="M160 187.002L160.5 186.002C160.5 185.802 160.6 185.702 160.7 185.502C160.7 185.502 161.1 185.002 160.4 185.502C160 185.702 161 185.002 161 184.902V184.802H160.8C160.6 184.902 160.5 185.002 160.3 185.002C160.1 185.002 160 185.202 159.8 185.302H159.6C159.3 185.302 159 185.402 158.7 185.402C157.5 185.502 156.4 185.202 155.3 185.402C154.3 185.602 153.6 184.902 152.7 184.802C151.7 184.702 150.8 184.502 150 183.902C149.4 183.502 148.9 183.002 148.3 182.902C147.9 182.802 147.4 182.902 147 182.702C146.6 182.502 146.4 182.002 145.7 182.402C145.7 182.402 145.5 182.202 145.5 182.102C145.3 181.502 144.9 181.202 144.4 181.302C143.9 181.302 143.7 181.102 143.4 180.902C142.6 180.402 141.9 179.802 141.2 179.202C140.7 178.702 140.3 178.102 139.9 177.502C139.4 177.002 138.7 176.602 138.5 175.902C138.3 175.202 137.8 174.802 137.4 174.302C137.2 174.002 137.1 173.502 136.4 173.702C136.4 173.702 136.3 173.702 136.3 173.502C136.3 172.202 134.8 172.002 134.3 170.902C133.9 169.802 133.1 168.802 132.7 167.702C132.6 167.402 132.7 167.002 132.1 166.902C131.9 166.902 131.8 166.502 131.9 166.302C132.1 165.802 132 165.302 131.9 164.902C131.8 164.502 131.6 164.002 131.6 163.602C131.6 163.102 131.5 162.602 131.5 162.102C131.5 161.602 131.5 161.102 131.7 160.602C131.9 160.202 132 159.602 131.5 159.102C131.2 158.902 131.5 158.402 131.5 158.002C131.5 157.702 131.2 157.402 131.3 157.102C131.3 156.802 131.6 156.602 131.7 156.402V156.202C131.3 154.702 132.4 153.502 132.6 152.102C132.8 150.702 133.2 149.402 133.8 148.102C134.1 147.402 134.5 146.702 135.7 146.602C136.3 146.602 136.8 146.702 137 147.102C137.2 147.402 137.3 147.702 137.3 148.002C137.3 148.402 137.3 148.902 137.3 149.302C137.3 150.202 137.5 151.102 137 151.902C136.8 152.102 137 152.502 136.5 152.602C136.5 152.602 136.4 152.702 136.4 152.802C136.9 154.102 136.1 155.102 136 156.302C135.9 157.302 136.4 158.302 136 159.202C136.6 159.802 136.5 160.302 136.3 160.802C135.6 162.602 136.3 164.402 136.9 166.002C137.4 167.702 138.5 169.202 139.7 170.702C139.9 171.002 140.4 171.002 140.4 171.402C140.4 171.902 140.9 172.102 141.2 172.402C141.5 172.702 141.8 172.902 142 173.302C142.6 174.902 144 175.702 145.2 176.702C146.3 177.702 147.6 178.602 149 179.202C149.9 179.502 150.8 179.602 151.6 180.002C151.9 180.202 152.4 180.002 152.6 180.702C152.6 180.902 153.1 180.602 153.4 180.702C154 180.802 154.6 181.002 155.2 181.102C156 181.202 156.9 181.402 157.7 181.302C158.2 181.302 158.7 181.002 159.2 180.902C159.3 180.902 159.5 180.902 159.6 180.902H159.7H159.8L160.2 180.802L161.1 180.602C161.4 180.602 161.7 180.602 162 180.402C162.8 180.202 163.6 180.002 164.4 179.702C165.2 179.502 165.9 179.302 166.7 179.002C167 178.902 167.4 178.802 167.7 178.602V179.102V179.402V179.802C167.4 180.302 167.3 180.902 167 181.502C166.3 182.902 165.9 183.902 165.6 185.002C165.2 186.002 164.8 187.202 164.3 188.202C163.6 189.502 162.9 190.802 162.2 192.102C161.8 192.802 161 193.202 160.5 193.802C160.3 194.102 158.8 193.602 158.5 193.202C158.5 193.202 158.4 193.002 158.4 192.902C158.4 192.002 158.2 191.102 158.7 190.402C159.4 189.402 160 188.302 160.5 187.302L160 187.002Z" fill="black"/>
<path d="M114.801 158.399C114.001 158.499 113.201 158.599 112.401 158.699C112.101 158.699 111.801 158.499 111.501 159.099C111.401 159.399 111.001 158.799 110.801 158.799C110.001 158.899 109.301 158.799 108.501 158.799C107.801 158.799 107.001 158.999 106.301 158.999C105.601 158.999 104.801 158.599 104.001 158.799C103.301 158.999 102.801 158.299 102.101 158.299C101.401 158.299 100.601 157.999 100.001 157.399C99.6009 156.999 99.3009 156.499 98.8009 156.199C98.5009 155.999 98.0009 155.999 97.8009 155.699C97.6009 155.399 97.6009 154.899 96.9009 154.999C96.9009 154.999 96.9009 154.799 96.9009 154.699C97.0009 154.099 96.9009 153.699 96.4009 153.499C96.0009 153.199 96.0009 152.899 95.9009 152.599C95.7009 151.599 95.7009 150.599 96.1009 149.599C96.4009 148.899 96.9009 148.399 97.3009 147.899C97.7009 147.399 97.9009 146.699 98.5009 146.499C99.1009 146.299 99.4009 145.999 99.8009 145.699C100.001 145.499 100.401 145.599 100.201 144.899C100.201 144.899 100.201 144.799 100.301 144.899C101.401 145.199 101.401 143.899 102.101 143.699C102.901 143.499 103.501 142.999 104.201 142.599C104.401 142.599 104.701 142.599 104.601 142.099C104.601 141.899 104.801 141.799 104.901 141.899C105.701 142.199 106.101 141.599 106.701 141.499C107.401 141.399 107.901 140.899 108.701 141.099C109.001 141.199 109.401 141.199 109.601 140.499C109.601 140.199 110.101 140.399 110.301 140.199C110.501 140.099 110.601 139.799 110.801 139.699C111.001 139.699 111.201 139.799 111.401 139.899C111.401 139.899 111.501 139.899 111.601 139.899C112.501 138.999 113.701 139.799 114.801 139.599C115.901 139.399 117.101 139.599 118.301 140.099C118.901 140.399 119.501 140.899 119.201 142.099C119.101 142.599 118.701 143.099 118.401 143.299C118.101 143.399 117.901 143.499 117.701 143.499C117.401 143.499 117.201 143.499 116.901 143.499C116.401 143.499 115.901 143.999 115.401 143.599C115.301 143.499 115.101 143.799 115.001 143.299C115.001 143.299 115.001 143.199 114.901 143.299C114.201 144.099 113.501 143.599 112.801 143.799C112.201 143.999 111.801 144.699 111.101 144.599C110.901 145.299 110.501 145.299 110.101 145.299C108.701 145.099 107.601 145.999 106.401 146.499C105.201 146.999 104.101 147.699 103.001 148.399C102.801 148.499 102.901 148.899 102.501 148.799C102.201 148.799 102.101 149.099 101.901 149.199C101.701 149.299 101.701 149.599 101.401 149.599C100.901 149.599 100.601 149.999 100.401 150.299C100.201 150.599 100.201 150.899 100.201 151.199C100.101 151.699 100.201 152.499 100.901 152.899C101.301 153.199 101.801 153.199 102.101 153.499C102.201 153.699 102.601 153.499 102.501 154.099C102.501 154.299 102.901 153.899 103.001 153.999C103.301 153.999 103.701 154.199 104.001 154.299C104.501 154.399 105.101 154.499 105.701 154.499C106.101 154.499 106.401 154.299 106.801 154.199C107.201 154.199 107.601 154.199 107.901 154.199C108.401 154.199 108.901 154.499 109.301 154.599C109.801 154.599 110.301 154.399 110.801 154.599C111.701 155.099 112.601 154.699 113.501 154.599C114.401 154.599 115.301 154.399 116.201 154.099C116.701 153.899 117.301 154.299 117.701 154.099C117.901 154.099 118.601 155.399 118.701 155.899C118.701 155.899 118.701 156.099 118.701 156.199C118.301 156.799 118.001 157.599 117.401 157.699C116.501 157.799 115.601 158.099 114.701 158.199L114.801 158.399Z" fill="black"/>
<path d="M162.1 122.601C161.1 122.701 160.1 122.801 159.2 123.001C158.8 123.001 158.4 122.801 158.1 123.401C157.9 123.701 157.5 123.101 157.2 123.201C156.3 123.401 155.4 123.401 154.5 123.601C153.6 123.801 152.8 124.101 151.9 124.301C151 124.501 150.1 124.301 149.3 124.701C148.6 125.101 147.9 124.701 147.2 124.801C146.5 125.001 145.7 125.201 144.9 125.001C144.3 124.901 143.8 124.701 143.3 125.001C143 125.101 142.7 125.501 142.3 125.501C142 125.501 141.5 125.301 141.3 126.001C141.3 126.001 141.1 126.001 141 125.901C140.6 125.501 140.1 125.601 139.9 125.901C139.6 126.201 139.4 126.201 139.1 126.201C138.4 126.301 137.6 126.401 136.8 126.501C136.2 126.501 135.6 126.401 135.1 126.401C134.5 126.401 133.9 126.801 133.3 126.501C132.7 126.301 132.2 126.301 131.7 126.501C131.4 126.501 131 126.301 130.8 127.001C130.8 127.001 130.7 127.001 130.6 127.001C130.1 126.601 129.7 126.801 129.3 127.001C129.1 127.001 128.9 127.201 128.7 127.301C128.6 127.301 128.5 127.301 128.5 127.301C128.3 127.201 128.2 127.301 128.2 127.301C128.2 127.301 128.2 127.301 128.2 127.401C128.2 127.401 128 127.401 128.5 127.501C128.7 127.501 128.7 127.501 128.5 127.501C128.5 127.501 128.5 127.501 128.4 127.501C128.4 127.501 128.4 127.601 128.4 127.701C128.4 127.801 128.4 127.901 128.4 128.001C128.4 128.201 128.4 128.401 128.4 128.601C128.4 129.001 128.4 129.401 128.4 129.801C128.3 130.701 128.4 131.601 127.8 132.501C127.5 132.801 127.3 133.301 127.8 133.901C128 134.201 127.6 134.601 127.6 134.901C127.6 135.201 127.7 135.501 127.6 135.801C127.6 136.001 127.2 136.201 127 136.301C127 136.301 126.9 136.401 126.9 136.501C126.9 137.301 126.4 137.901 125.9 138.401C125.4 138.901 124.7 139.301 124.2 139.901C123.2 141.001 121.7 141.801 120 142.001C119.1 142.101 118 141.901 117.7 140.601C117.6 140.001 117.7 139.501 118 139.201C118.2 139.001 118.4 138.801 118.6 138.701C118.9 138.701 119.2 138.401 119.4 138.301C119.9 138.001 120.2 137.301 120.8 137.201C121 137.201 121 136.801 121.4 137.201C121.4 137.201 121.5 137.201 121.6 137.201C121.6 136.601 121.9 136.301 122.2 136.001C122.5 135.701 122.8 135.401 123 135.001C123.3 134.301 123 133.401 123.5 132.801C123 132.201 123.2 131.801 123.5 131.401C124 130.701 124.1 129.901 124.1 129.201C124.1 128.801 124.1 128.401 124.1 128.001V127.001C123.9 126.601 123.9 126.201 124 125.801C124 125.301 124.2 124.901 124.4 124.401C125.1 123.201 126.3 122.701 127.7 122.501L129.1 122.301H130.2C130.5 122.101 130.7 121.801 131.1 122.001C131.5 122.201 131.9 122.001 132.3 122.001C132.7 122.001 133 121.801 133.4 121.901C134.9 122.401 136.3 121.901 137.7 121.701C139.1 121.701 140.5 121.501 141.9 121.201C142.7 121.001 143.6 120.601 144.4 120.601C144.8 120.601 145.1 120.201 145.6 120.801C145.7 121.001 146 120.501 146.2 120.401C146.8 120.301 147.4 120.201 148 120.201C148.8 120.201 149.6 120.001 150.5 119.901C151 119.901 151.5 119.501 152 119.401C152.5 119.301 153 119.201 153.6 119.201C154.3 119.201 155 119.301 155.6 119.301C156.3 119.301 157 118.901 157.7 119.101C159 119.501 160.2 119.101 161.4 119.001C162.6 119.001 163.8 118.801 165 118.501C165.7 118.301 166.4 118.801 167 118.701C167.3 118.701 167.9 120.101 167.8 120.601C167.8 120.601 167.8 120.801 167.7 120.801C167.1 121.301 166.6 122.101 165.8 122.201C164.7 122.201 163.6 122.401 162.5 122.601H162.1Z" fill="black"/>
</svg>
