<svg width="300" height="300" viewBox="0 0 300 300" fill="none" xmlns="http://www.w3.org/2000/svg">
<path d="M179.599 136.098C178.399 134.798 177.299 133.598 176.099 132.298C175.599 131.798 175.399 131.198 174.499 131.098C174.099 131.098 174.099 130.198 173.699 129.698C172.599 128.598 171.499 127.298 170.399 126.198C169.299 125.098 168.099 124.098 166.999 122.998C165.899 121.898 164.999 120.498 163.799 119.698C162.699 118.898 162.299 117.798 161.399 117.098C160.399 116.398 159.599 115.898 158.799 115.298C158.199 114.798 157.499 114.398 156.699 114.398C156.199 114.398 155.699 114.598 155.099 114.498C154.599 114.498 153.999 114.098 153.399 114.698C153.399 114.698 153.099 114.698 152.999 114.498C152.399 114.098 151.599 114.098 151.099 114.298C150.599 114.598 150.199 114.498 149.699 114.498C148.399 114.498 147.099 114.498 145.899 114.498C144.899 114.498 143.999 114.298 142.999 114.298C141.999 114.298 140.999 114.698 139.999 114.498C138.999 114.298 138.199 114.498 137.199 114.498C136.699 114.498 135.999 114.398 135.699 115.098C135.699 115.098 135.499 115.098 135.399 115.098C133.799 114.498 132.599 115.898 131.099 115.998C129.499 116.098 127.999 116.698 126.499 117.098C126.099 117.198 125.599 117.098 125.399 117.698C125.399 117.898 124.899 117.998 124.699 117.998C123.399 117.698 122.499 118.498 121.499 118.898C120.299 119.298 119.499 120.198 118.299 120.598C117.799 120.798 117.199 121.198 117.399 121.998C117.399 122.398 116.899 122.698 116.799 123.098C116.699 123.398 116.799 123.798 116.699 124.098C116.599 124.398 116.299 124.498 116.099 124.798C116.099 124.798 115.999 124.998 116.099 125.098C116.099 125.998 115.899 126.898 115.699 127.698C115.399 128.598 115.199 129.498 115.199 130.498C115.199 132.398 115.199 134.498 115.199 136.498C115.199 137.598 114.999 138.798 113.799 139.598C113.299 139.998 112.699 139.998 112.399 139.598C112.199 139.198 111.899 138.798 111.899 138.398C111.799 137.698 111.699 137.098 111.599 136.498C111.399 135.198 110.899 133.798 111.099 132.498C111.099 132.098 110.899 131.498 111.399 131.198C111.399 131.198 111.499 130.998 111.399 130.898C110.699 128.998 111.399 126.998 111.899 124.998C112.099 124.198 112.199 123.298 112.399 122.398C112.599 121.498 112.999 120.598 113.599 119.898C113.599 118.698 114.699 117.698 115.599 117.098C117.199 116.098 118.799 115.298 120.399 114.598C121.999 113.898 123.499 113.298 125.099 112.898C128.199 112.098 131.399 111.298 134.599 110.798C135.099 110.798 135.599 110.298 136.199 110.498C136.799 110.698 137.599 110.398 138.299 110.298C138.899 110.298 139.599 109.998 140.199 110.098C142.799 110.498 145.299 109.898 147.799 109.898C150.299 109.898 152.899 109.898 155.399 109.998C156.999 109.998 158.799 109.998 160.499 110.798C161.199 111.098 162.099 111.298 162.399 112.198C162.399 112.398 163.299 112.498 163.699 112.798C164.699 113.498 165.399 114.298 166.199 115.098C167.199 116.198 168.099 117.198 169.199 118.198C169.799 118.798 170.599 119.298 171.199 119.898C171.899 120.498 172.499 121.198 173.099 121.898C173.799 122.798 174.499 123.798 175.199 124.698C175.999 125.598 176.999 126.398 177.599 127.398C178.699 129.298 180.299 130.698 181.699 132.298C183.099 133.898 184.499 135.498 186.099 136.898C186.999 137.698 187.399 138.898 188.199 139.698C188.599 140.098 187.999 141.598 187.499 141.798C187.499 141.798 187.299 141.798 187.199 141.798C186.099 141.298 184.799 140.998 183.999 139.998C182.699 138.498 181.299 137.098 179.999 135.698L179.599 136.098Z" fill="black"/>
<path d="M116.598 160.998C116.598 161.498 116.598 161.998 116.798 162.398C116.798 162.598 116.598 162.798 117.198 162.898C117.498 162.898 116.898 163.198 116.898 163.398C116.998 163.798 116.998 164.298 117.098 164.698C117.198 165.098 117.498 165.498 117.598 165.898C117.698 166.298 117.498 166.798 117.898 167.198C118.198 167.498 117.798 167.898 117.898 168.198C118.098 168.498 118.198 168.898 117.998 169.298C117.898 169.598 117.698 169.898 117.798 170.098C117.798 170.198 118.198 170.398 118.198 170.498C118.198 170.698 117.998 170.898 118.598 170.898C118.598 170.898 118.598 170.898 118.498 170.998C118.098 171.198 118.198 171.398 118.498 171.598C118.798 171.698 118.798 171.798 118.798 171.998C118.798 172.398 118.998 172.698 118.998 173.098C118.998 173.398 118.798 173.698 118.798 173.998C118.798 174.298 119.098 174.598 118.798 174.898C118.498 175.198 118.598 175.498 118.598 175.698C118.598 175.798 118.398 176.098 118.998 176.098C118.198 176.698 119.398 176.898 119.298 177.298C119.198 177.798 119.298 178.198 119.498 178.598C119.498 178.698 119.398 178.898 119.798 178.898C119.998 178.898 119.998 178.998 119.898 179.098C119.298 179.498 119.798 179.798 119.698 180.198C119.698 180.598 119.998 180.898 119.598 181.398C119.398 181.598 119.398 181.798 119.998 181.898C120.298 181.898 119.998 182.198 120.098 182.298C120.098 182.398 120.498 182.498 120.498 182.598C120.498 182.598 120.298 182.798 120.198 182.998C120.998 183.398 120.198 184.198 120.498 184.698C120.798 185.198 120.798 185.798 120.798 186.398C120.798 186.698 120.698 187.098 119.598 187.498C119.098 187.698 118.598 187.798 118.198 187.698C117.898 187.698 117.698 187.598 117.598 187.498C117.498 187.298 117.298 187.198 117.198 186.998C116.898 186.698 116.298 186.398 116.598 185.998C116.598 185.898 116.298 185.798 116.798 185.598C115.898 185.198 116.298 184.598 116.198 184.098C116.098 183.698 115.398 183.398 115.598 182.898C114.898 182.798 114.998 182.498 115.098 182.198C115.598 181.198 115.098 180.398 114.998 179.598C114.998 178.698 114.698 177.798 114.598 176.998C114.598 176.798 114.198 176.798 114.498 176.598C114.698 176.398 114.498 176.198 114.498 175.998C114.498 175.798 114.298 175.698 114.498 175.498C114.998 174.698 114.498 174.098 114.498 173.398C114.498 172.698 114.498 171.998 114.098 171.298C113.898 170.898 113.498 170.498 113.598 170.098C113.598 169.898 113.298 169.798 113.798 169.498C113.998 169.498 113.498 169.298 113.398 169.198C113.398 168.898 113.298 168.598 113.298 168.298C113.298 167.898 113.298 167.498 113.098 167.098C113.098 166.898 112.698 166.698 112.698 166.398C112.698 166.198 112.598 165.898 112.598 165.598C112.598 165.298 112.798 164.898 112.798 164.598C112.798 164.298 112.498 163.898 112.798 163.598C113.198 162.898 112.798 162.398 112.798 161.798C112.798 161.198 112.798 160.598 112.498 159.998C112.398 159.698 112.798 159.298 112.798 158.998C112.798 158.798 114.198 158.398 114.698 158.398H114.898C115.398 158.698 116.198 158.798 116.198 159.198C116.198 159.798 116.298 160.298 116.398 160.798L116.598 160.998Z" fill="black"/>
<path d="M166.099 147.298C166.499 147.098 166.799 146.998 167.199 146.698C167.299 146.698 167.599 146.698 167.499 146.198C167.499 145.898 167.899 146.398 167.999 146.398C168.299 146.198 168.699 146.098 168.999 145.898C169.299 145.698 169.499 145.298 169.799 145.098C170.099 144.898 170.599 145.098 170.799 144.598C170.999 144.198 171.399 144.598 171.599 144.298C171.799 144.098 172.099 143.898 172.499 143.998C172.799 143.998 173.099 144.198 173.199 143.998C173.199 143.898 173.199 143.498 173.399 143.498C173.499 143.498 173.799 143.698 173.699 142.998C173.699 142.998 173.699 142.998 173.899 142.998C174.199 143.298 174.399 143.198 174.399 142.998C174.399 142.698 174.499 142.698 174.599 142.598C174.899 142.498 175.199 142.298 175.499 142.298C175.699 142.298 175.999 142.298 176.299 142.298C176.499 142.298 176.699 141.898 176.999 142.098C177.299 142.298 177.499 142.198 177.699 142.098C177.799 142.098 178.099 142.298 177.899 141.598C178.499 142.298 178.499 141.098 178.899 141.198C179.299 141.198 179.599 140.998 179.999 140.898C179.999 140.898 180.299 140.998 180.199 140.498C180.199 140.298 180.199 140.298 180.399 140.398C180.899 140.898 180.999 140.398 181.299 140.398C181.599 140.398 181.899 139.998 182.299 140.398C182.499 140.598 182.699 140.598 182.699 139.998C182.699 139.698 182.899 139.998 182.999 139.798C182.999 139.798 182.999 139.398 183.199 139.398C183.199 139.398 183.399 139.598 183.499 139.698C183.799 138.898 184.499 139.698 184.899 139.298C185.299 138.998 185.799 138.898 186.299 138.898C186.599 138.898 186.899 138.898 187.399 139.998C187.599 140.498 187.799 140.998 187.699 141.398C187.699 141.698 187.699 141.898 187.599 141.998C187.499 142.098 187.399 142.298 187.299 142.398C187.099 142.698 186.899 143.298 186.599 143.098C186.499 143.098 186.499 143.398 186.199 142.898C185.999 143.798 185.499 143.398 185.099 143.598C184.799 143.798 184.599 144.498 184.199 144.298C184.199 144.998 183.999 144.898 183.699 144.798C182.799 144.398 182.299 144.998 181.599 145.198C180.899 145.298 180.299 145.698 179.599 145.898C179.499 145.898 179.599 146.298 179.299 146.098C179.099 145.898 178.999 146.098 178.799 146.198C178.699 146.198 178.599 146.398 178.399 146.298C177.599 145.898 177.299 146.498 176.699 146.598C176.199 146.698 175.599 146.898 175.199 147.298C174.899 147.498 174.799 147.998 174.399 147.998C174.199 147.998 174.199 148.398 173.899 147.898C173.799 147.798 173.899 148.198 173.799 148.298C173.599 148.398 173.399 148.498 173.199 148.598C172.899 148.698 172.599 148.798 172.299 148.998C172.099 149.098 172.099 149.398 171.899 149.598C171.699 149.698 171.599 149.798 171.299 149.898C170.999 149.898 170.699 149.898 170.399 149.898C170.099 149.898 169.999 150.298 169.599 150.198C168.899 149.998 168.599 150.398 168.199 150.598C167.699 150.798 167.299 150.898 166.899 151.298C166.699 151.498 166.199 151.198 165.999 151.298C165.899 151.298 165.099 150.098 164.899 149.698V149.498C164.899 148.998 164.799 148.198 165.099 148.098C165.499 147.998 165.899 147.698 166.299 147.498L166.099 147.298Z" fill="black"/>
<path d="M146.699 141.097C146.699 140.897 146.699 140.697 146.699 140.597C146.699 140.597 146.899 140.497 146.399 140.397C146.099 140.397 146.799 140.297 146.699 140.197C146.699 139.997 146.699 139.897 146.699 139.697C146.699 139.497 146.399 139.397 146.399 139.197C146.399 138.997 146.699 138.897 146.399 138.697C146.099 138.497 146.599 138.497 146.499 138.297C146.399 138.197 146.299 137.997 146.499 137.897C146.699 137.897 146.899 137.697 146.799 137.597C146.799 137.597 146.399 137.397 146.499 137.397C146.499 137.397 146.799 137.397 146.199 137.197C146.199 137.197 146.199 137.197 146.399 137.197C146.799 137.197 146.799 137.197 146.499 136.997C146.199 136.997 146.299 136.897 146.299 136.797C146.299 136.697 146.299 136.497 146.299 136.397C146.299 136.397 146.599 136.197 146.699 136.197C146.699 136.197 146.499 135.897 146.799 135.897C147.099 135.897 147.099 135.797 147.099 135.697C147.099 135.697 147.399 135.697 146.799 135.497C147.599 135.497 146.599 135.097 146.799 134.997C146.999 134.897 146.899 134.697 146.999 134.497C146.999 134.497 147.199 134.497 146.799 134.297C146.599 134.197 146.599 134.297 146.799 134.297C147.399 134.297 147.099 134.097 147.199 133.997C147.399 133.897 147.199 133.697 147.599 133.697C147.799 133.697 147.899 133.697 147.399 133.397C147.199 133.297 147.399 133.397 147.399 133.197L147.099 132.997C147.099 132.997 147.299 132.997 147.499 132.997C146.899 132.597 147.899 132.697 147.799 132.397C147.799 132.097 147.799 131.997 147.999 131.797C147.999 131.797 148.299 131.697 149.399 131.997C149.899 132.197 150.399 132.397 150.699 132.597C150.899 132.697 151.099 132.797 151.099 132.897C151.099 132.897 151.299 133.097 151.299 133.197C151.399 133.397 151.899 133.697 151.599 133.697C151.599 133.697 151.799 133.897 151.299 133.697C151.999 134.097 151.399 134.097 151.399 134.297C151.399 134.397 151.999 134.797 151.699 134.797C152.299 135.097 152.099 135.097 151.899 135.097C151.199 135.097 151.499 135.497 151.399 135.797C151.199 135.997 151.299 136.297 151.199 136.597C151.199 136.597 151.499 136.797 151.199 136.797C150.899 136.797 151.199 136.897 151.199 136.997C151.199 136.997 151.299 137.097 151.199 137.197C150.499 137.197 150.899 137.597 150.799 137.797C150.799 137.997 150.599 138.197 150.799 138.397C150.799 138.497 151.199 138.697 151.099 138.797C151.099 138.797 151.399 138.897 150.799 138.897C150.599 138.897 151.099 138.897 151.099 138.997C151.099 138.997 151.099 139.197 151.099 139.297C151.099 139.397 151.099 139.497 151.099 139.697L151.399 139.897V140.097C151.399 140.097 151.099 140.297 150.999 140.397C150.999 140.497 151.199 140.597 150.999 140.697C150.499 140.897 150.699 141.097 150.699 141.297C150.699 141.497 150.699 141.697 150.699 141.797C150.699 141.797 150.299 141.997 150.299 142.097C150.299 142.097 148.799 142.297 148.299 142.397H148.099C147.599 142.397 146.899 142.297 146.899 142.097C146.899 141.897 146.899 141.697 146.899 141.497L146.699 141.097Z" fill="black"/>
<path d="M157.1 141.898C157.1 141.698 157.1 141.498 157.1 141.398C157.1 141.398 157.3 141.298 156.8 141.198C156.5 141.198 157.2 141.098 157.1 140.998C157.1 140.798 157.1 140.698 157.1 140.498C157.1 140.298 156.8 140.198 156.8 139.998C156.8 139.798 157.1 139.698 156.8 139.498C156.5 139.298 157 139.298 156.9 139.098C156.8 138.998 156.7 138.798 156.9 138.698C157.1 138.698 157.3 138.498 157.2 138.398C157.2 138.398 156.8 138.198 156.9 138.198C156.9 138.198 157.2 138.198 156.6 137.998C156.6 137.998 156.6 137.998 156.8 137.998C157.2 137.998 157.2 137.998 156.9 137.798C156.6 137.798 156.7 137.698 156.7 137.598C156.7 137.498 156.7 137.298 156.7 137.198C156.7 137.198 157 136.998 157.1 136.998C157.1 136.998 156.9 136.698 157.2 136.698C157.5 136.698 157.5 136.598 157.5 136.498C157.5 136.498 157.8 136.498 157.2 136.298C158 136.298 157 135.898 157.2 135.798C157.4 135.698 157.3 135.498 157.4 135.298C157.4 135.298 157.6 135.298 157.2 135.098C157 134.998 157 135.098 157.2 135.098C157.8 135.098 157.5 134.898 157.6 134.798C157.8 134.698 157.6 134.498 158 134.498C158.2 134.498 158.3 134.498 157.8 134.198C157.6 134.098 157.8 134.198 157.8 133.998L157.5 133.798C157.5 133.798 157.7 133.798 157.9 133.798C157.3 133.398 158.3 133.498 158.2 133.198C158.2 132.898 158.2 132.798 158.4 132.598C158.4 132.598 158.7 132.498 159.8 132.798C160.3 132.998 160.8 133.198 161.1 133.398C161.3 133.498 161.5 133.598 161.5 133.698C161.5 133.698 161.7 133.898 161.7 133.998C161.8 134.198 162.3 134.498 162 134.498C162 134.498 162.2 134.698 161.7 134.498C162.4 134.898 161.8 134.898 161.8 135.098C161.8 135.198 162.4 135.598 162.1 135.598C162.7 135.898 162.5 135.898 162.3 135.898C161.6 135.898 161.9 136.298 161.8 136.598C161.6 136.798 161.7 137.098 161.6 137.398C161.6 137.398 161.9 137.598 161.6 137.598C161.3 137.598 161.6 137.698 161.6 137.798C161.6 137.798 161.7 137.898 161.6 137.998C160.9 137.998 161.3 138.398 161.2 138.598C161.2 138.798 161 138.998 161.2 139.198C161.2 139.298 161.6 139.498 161.5 139.598C161.5 139.598 161.8 139.698 161.2 139.698C161 139.698 161.5 139.698 161.5 139.798C161.5 139.798 161.5 139.998 161.5 140.098C161.5 140.198 161.5 140.298 161.5 140.498L161.8 140.698V140.898C161.8 140.898 161.5 141.098 161.4 141.198C161.4 141.298 161.6 141.398 161.4 141.498C160.9 141.698 161.1 141.898 161.1 142.098C161.1 142.298 161.1 142.498 161.1 142.598C161.1 142.598 160.7 142.798 160.7 142.898C160.7 142.898 159.2 143.098 158.7 143.198H158.5C158 143.198 157.3 143.098 157.3 142.898C157.3 142.698 157.3 142.498 157.3 142.298L157.1 141.898Z" fill="black"/>
<path d="M171.499 151.998C172.399 152.998 173.199 153.998 173.999 154.898C174.299 155.298 174.399 155.798 175.199 155.798C175.599 155.798 175.399 156.598 175.699 156.898C176.499 157.798 177.199 158.798 177.999 159.698C178.399 160.198 178.799 160.498 179.199 160.998C179.799 161.698 180.399 162.398 181.099 163.298C182.099 164.498 182.799 165.698 183.699 166.998C183.199 167.198 182.699 167.298 182.299 167.498C181.599 167.798 180.699 167.998 179.899 168.198C178.999 168.298 178.199 168.498 177.499 168.698C177.299 168.698 177.099 168.798 176.899 168.898H176.399C176.199 169.098 175.899 169.198 175.599 169.198C175.099 169.298 174.599 169.298 174.099 169.198C173.399 169.198 172.599 168.998 171.899 169.198C171.499 169.298 171.099 169.698 170.599 169.698C170.099 169.698 169.599 169.498 169.199 170.098C169.199 170.098 168.999 170.098 168.899 169.998C168.399 169.598 167.799 169.698 167.399 169.998C166.999 170.298 166.599 170.198 166.299 170.198C165.299 170.198 164.199 170.198 163.199 169.998C162.399 169.898 161.699 169.598 160.899 169.398C160.099 169.298 159.199 169.398 158.499 168.998C157.799 168.598 157.099 168.398 156.399 168.298C155.999 168.298 155.599 167.798 155.099 168.298C155.099 168.298 154.899 168.298 154.799 168.298C153.899 167.198 152.499 167.898 151.399 167.298C150.299 166.698 148.999 166.398 147.899 165.898C147.599 165.798 147.299 165.398 146.899 165.698C146.699 165.698 146.399 165.698 146.299 165.398C145.799 164.398 144.699 164.198 143.899 163.598C142.999 162.898 141.999 162.398 141.399 161.298C141.199 160.798 140.799 160.298 139.999 160.298C139.599 160.298 139.399 159.698 139.099 159.398C138.799 159.198 138.399 159.098 138.199 158.798C137.999 158.598 137.999 158.198 137.899 157.898C137.899 157.898 137.899 157.698 137.699 157.698C136.999 157.198 136.499 156.398 136.299 155.598L135.899 154.398C135.799 153.998 135.699 153.598 135.499 153.198C134.699 151.698 134.399 149.898 134.299 148.198C134.299 147.298 134.399 146.298 135.499 145.698C135.999 145.398 136.599 145.398 136.899 145.698C137.199 145.998 137.399 146.198 137.499 146.498C137.599 146.998 137.699 147.398 137.899 147.798C138.099 148.198 138.299 148.698 138.499 149.098C138.699 149.498 138.899 149.898 138.899 150.398C138.899 150.698 139.199 150.898 138.899 151.298V151.498C139.499 151.898 139.699 152.498 139.999 152.998C140.099 153.298 140.199 153.598 140.299 153.898C140.399 154.198 140.599 154.498 140.799 154.698C141.099 155.098 141.499 155.498 141.899 155.798C142.299 156.098 142.699 156.398 142.999 156.898C143.799 156.898 144.199 157.398 144.499 157.898C145.599 159.798 147.699 160.598 149.599 161.598C151.499 162.598 153.599 163.298 155.799 163.898C156.199 163.898 156.599 163.698 156.899 164.098C157.199 164.498 157.799 164.398 158.299 164.498C158.699 164.498 159.199 164.498 159.599 164.798C161.199 165.798 163.099 165.598 164.799 165.698C166.499 165.898 168.299 165.898 170.099 165.698C171.199 165.498 172.199 165.098 173.199 165.098C173.699 165.098 174.099 164.698 174.599 165.098C174.799 165.198 175.099 164.698 175.399 164.598H175.799C175.799 164.498 175.999 164.498 175.999 164.498C176.099 164.498 176.299 164.498 176.399 164.498C176.399 164.498 176.399 164.398 176.199 164.298C176.099 164.198 175.699 164.098 175.599 164.098C175.599 164.098 175.499 164.098 175.399 163.898L175.199 163.698L174.899 163.298C174.399 162.598 174.099 161.798 173.599 161.098C173.099 160.398 172.299 159.798 171.999 158.998C171.399 157.498 170.199 156.398 169.199 155.198C168.199 153.998 167.199 152.798 166.099 151.698C165.499 151.098 165.299 150.198 164.699 149.498C164.399 149.198 165.099 147.798 165.599 147.598C165.599 147.598 165.799 147.598 165.899 147.598C166.799 147.898 167.899 147.998 168.499 148.698C169.399 149.798 170.499 150.898 171.399 151.998H171.499Z" fill="black"/>
<path d="M160 186.998L160.5 185.998C160.5 185.798 160.6 185.698 160.7 185.498C160.7 185.498 161.1 184.998 160.4 185.498C160 185.698 161 184.998 161 184.898V184.798H160.8C160.6 184.898 160.5 184.998 160.3 184.998C160.1 184.998 160 185.198 159.8 185.298H159.6C159.3 185.298 159 185.398 158.7 185.398C157.5 185.498 156.4 185.198 155.3 185.398C154.3 185.598 153.6 184.898 152.7 184.798C151.7 184.698 150.8 184.498 150 183.898C149.4 183.498 148.9 182.998 148.3 182.898C147.9 182.798 147.4 182.898 147 182.698C146.6 182.498 146.4 181.998 145.7 182.398C145.7 182.398 145.5 182.198 145.5 182.098C145.3 181.498 144.9 181.198 144.4 181.298C143.9 181.298 143.7 181.098 143.4 180.898C142.6 180.398 141.9 179.798 141.2 179.198C140.7 178.698 140.3 178.098 139.9 177.498C139.4 176.998 138.7 176.598 138.5 175.898C138.3 175.198 137.8 174.798 137.4 174.298C137.2 173.998 137.1 173.498 136.4 173.698C136.4 173.698 136.3 173.698 136.3 173.498C136.3 172.198 134.8 171.998 134.3 170.898C133.9 169.798 133.1 168.798 132.7 167.698C132.6 167.398 132.7 166.998 132.1 166.898C131.9 166.898 131.8 166.498 131.9 166.298C132.1 165.798 132 165.298 131.9 164.898C131.8 164.498 131.6 163.998 131.6 163.598C131.6 163.098 131.5 162.598 131.5 162.098C131.5 161.598 131.5 161.098 131.7 160.598C131.9 160.198 132 159.598 131.5 159.098C131.2 158.898 131.5 158.398 131.5 157.998C131.5 157.698 131.2 157.398 131.3 157.098C131.3 156.798 131.6 156.598 131.7 156.398V156.198C131.3 154.698 132.4 153.498 132.6 152.098C132.8 150.698 133.2 149.398 133.8 148.098C134.1 147.398 134.5 146.698 135.7 146.598C136.3 146.598 136.8 146.698 137 147.098C137.2 147.398 137.3 147.698 137.3 147.998C137.3 148.398 137.3 148.898 137.3 149.298C137.3 150.198 137.5 151.098 137 151.898C136.8 152.098 137 152.498 136.5 152.598C136.5 152.598 136.4 152.698 136.4 152.798C136.9 154.098 136.1 155.098 136 156.298C135.9 157.298 136.4 158.298 136 159.198C136.6 159.798 136.5 160.298 136.3 160.798C135.6 162.598 136.3 164.398 136.9 165.998C137.4 167.698 138.5 169.198 139.7 170.698C139.9 170.998 140.4 170.998 140.4 171.398C140.4 171.898 140.9 172.098 141.2 172.398C141.5 172.698 141.8 172.898 142 173.298C142.6 174.898 144 175.698 145.2 176.698C146.3 177.698 147.6 178.598 149 179.198C149.9 179.498 150.8 179.598 151.6 179.998C151.9 180.198 152.4 179.998 152.6 180.698C152.6 180.898 153.1 180.598 153.4 180.698C154 180.798 154.6 180.998 155.2 181.098C156 181.198 156.9 181.398 157.7 181.298C158.2 181.298 158.7 180.998 159.2 180.898C159.3 180.898 159.5 180.898 159.6 180.898H159.7H159.8L160.2 180.798L161.1 180.598C161.4 180.598 161.7 180.598 162 180.398C162.8 180.198 163.6 179.998 164.4 179.698C165.2 179.498 165.9 179.298 166.7 178.998C167 178.898 167.4 178.798 167.7 178.598V179.098V179.398V179.798C167.4 180.298 167.3 180.898 167 181.498C166.3 182.898 165.9 183.898 165.6 184.998C165.2 185.998 164.8 187.198 164.3 188.198C163.6 189.498 162.9 190.798 162.2 192.098C161.8 192.798 161 193.198 160.5 193.798C160.3 194.098 158.8 193.598 158.5 193.198C158.5 193.198 158.4 192.998 158.4 192.898C158.4 191.998 158.2 191.098 158.7 190.398C159.4 189.398 160 188.298 160.5 187.298L160 186.998Z" fill="black"/>
<path d="M116.301 159.1C115.401 159.6 114.401 160 113.401 160.4C113.001 160.6 112.601 160.4 112.401 161.1C112.301 161.4 111.701 160.9 111.401 161.1C110.501 161.4 109.501 161.5 108.501 161.8C107.601 162 106.601 162.3 105.701 162.4C104.701 162.5 103.801 162.2 102.801 162.4C102.001 162.6 101.301 162 100.501 162.1C99.7007 162.1 98.7007 162 98.0007 161.4C97.4007 161 97.0007 160.6 96.3007 160.3C95.9007 160.1 95.4007 160.2 95.0007 159.8C94.6007 159.5 94.5007 158.9 93.7007 158.9C93.7007 158.9 93.6007 158.6 93.6007 158.5C93.6007 157.8 93.4007 157.3 92.9007 156.9C92.5007 156.5 92.4007 156.1 92.4007 155.7C92.2007 154.5 92.4007 153.4 92.8007 152.4C93.1007 151.7 93.6007 151.1 94.0007 150.5C94.4007 149.9 94.6007 149.1 95.3007 148.8C95.9007 148.5 96.3007 148.1 96.8007 147.7C97.0007 147.5 97.5007 147.4 97.3007 146.8C97.3007 146.8 97.3007 146.7 97.5007 146.7C98.1007 146.7 98.5007 146.4 98.8007 146C99.1007 145.6 99.4007 145.2 99.9007 145C100.901 144.7 101.701 144.1 102.601 143.7C102.801 143.6 103.201 143.7 103.201 143.1C103.201 142.9 103.501 142.8 103.601 142.9C104.501 143.2 105.101 142.7 105.801 142.6C106.601 142.5 107.401 142 108.301 142.3C108.701 142.4 109.201 142.5 109.501 141.8C109.601 141.5 110.101 141.8 110.401 141.6C110.601 141.6 110.801 141.2 111.101 141.2C111.301 141.2 111.501 141.4 111.801 141.4C111.801 141.4 111.901 141.4 112.001 141.4C113.101 140.6 114.401 141.4 115.601 141.1C116.901 140.9 118.301 141 119.601 141.4C120.401 141.6 121.101 142.1 121.101 143.3C121.101 143.9 120.801 144.3 120.501 144.6C120.201 144.7 120.001 144.9 119.801 144.9C119.501 144.9 119.101 144.9 118.801 144.9C118.101 144.9 117.501 145.4 116.801 145.1C116.601 145.1 116.301 145.3 116.201 144.8C116.201 144.8 116.101 144.7 116.001 144.8C115.101 145.6 114.101 145.2 113.101 145.4C112.201 145.6 111.501 146.3 110.601 146.2C110.201 146.9 109.701 146.9 109.201 146.8C107.401 146.5 106.001 147.4 104.501 147.9C103.001 148.4 101.601 149.3 100.401 150.2C100.201 150.4 100.201 150.8 99.9007 150.8C99.5007 150.8 99.4007 151.2 99.2007 151.4C99.0007 151.6 98.9007 151.9 98.6007 152.1C98.0007 152.3 97.6007 152.8 97.4007 153.3C97.2007 153.8 97.1007 154.3 97.0007 154.8C96.8007 155.7 97.0007 156.5 97.8007 157C98.3007 157.3 98.9007 157.3 99.5007 157.6C99.7007 157.8 100.101 157.6 100.301 158.2C100.301 158.4 100.701 158 100.901 158C101.401 158 101.901 158.1 102.401 158.2C103.101 158.2 103.901 158.4 104.601 158.2C105.001 158.2 105.501 157.9 105.901 157.8C106.401 157.7 106.801 157.7 107.301 157.7C107.901 157.7 108.501 157.8 109.101 157.7C109.701 157.7 110.301 157.2 110.901 157.3C112.101 157.5 113.101 156.8 114.101 156.4C115.101 156 116.101 155.5 117.001 154.7C117.501 154.3 118.201 154.4 118.701 154C118.901 153.8 120.201 154.7 120.401 155.2C120.401 155.2 120.401 155.4 120.401 155.5C120.201 156.3 120.101 157.3 119.401 157.7C118.401 158.3 117.401 159 116.301 159.5V159.1Z" fill="black"/>
<path d="M199.8 114.401C198.2 114.801 196.6 115.201 195.1 115.701C194.5 115.901 193.9 115.701 193.4 116.501C193.2 116.801 192.4 116.401 191.9 116.501C190.5 117.001 189 117.301 187.5 117.801C186.1 118.301 184.7 118.901 183.3 119.301C181.9 119.801 180.4 119.901 179.1 120.601C178 121.201 176.8 121.001 175.7 121.501C174.5 122.001 173.3 122.401 172.1 122.501C171.2 122.501 170.3 122.601 169.5 123.001C169 123.201 168.6 123.701 168 123.801C167.5 123.901 166.8 123.801 166.5 124.601C166.5 124.601 166.2 124.601 166.1 124.601C165.4 124.401 164.7 124.601 164.3 125.001C163.9 125.401 163.5 125.501 163.1 125.601C161.9 126.001 160.7 126.401 159.5 126.701C158.6 126.901 157.6 127.001 156.7 127.201C155.8 127.401 154.8 128.001 153.9 128.001C152.9 128.001 152.1 128.301 151.3 128.601C150.8 128.801 150.2 128.601 150 129.401C150 129.401 149.8 129.501 149.7 129.401C148.1 129.101 147.1 130.601 145.6 130.801C144.1 131.101 142.7 131.701 141.3 132.201C140.9 132.301 140.5 132.301 140.3 132.901C140.3 133.101 139.8 133.301 139.6 133.201C138.3 133.001 137.3 133.701 136.2 134.001C134.9 134.301 133.8 135.101 132.4 135.101C131.8 135.101 131 135.301 130.6 136.001C130.4 136.401 129.7 136.301 129.3 136.601C128.9 136.801 128.7 137.201 128.3 137.301C128 137.401 127.6 137.301 127.2 137.301C127.1 137.301 127 137.301 126.9 137.401C125.3 138.701 123.3 138.601 121.5 139.501C119.8 140.401 117.9 141.101 116.1 141.701C115.1 142.101 114 142.301 112.9 141.501C112.4 141.201 112.2 140.601 112.5 140.201C112.7 139.801 113 139.501 113.3 139.301C113.8 139.001 114.4 138.601 114.9 138.301C116 137.601 116.9 136.701 118.2 136.401C118.6 136.401 118.9 135.901 119.4 136.201C119.4 136.201 119.6 136.201 119.7 136.201C121 134.801 122.9 134.601 124.5 134.001C125.9 133.401 127 132.301 128.5 132.001C129.1 131.101 130 130.901 130.9 130.801C133.9 130.401 136.6 129.001 139.4 128.101L148 125.201C148.5 125.001 148.8 124.601 149.5 124.601C150.1 124.601 150.7 124.301 151.4 124.001C152 123.801 152.5 123.501 153.1 123.501C155.5 123.501 157.7 122.301 160 121.701C162.3 121.101 164.5 120.401 166.7 119.601C168 119.101 169.3 118.401 170.7 118.101C171.3 118.001 171.8 117.501 172.6 117.901C172.8 118.001 173.2 117.401 173.6 117.301C174.5 117.001 175.5 116.701 176.4 116.501C177.7 116.101 179 115.801 180.3 115.301C181.1 115.001 181.8 114.601 182.6 114.301C183.4 114.001 184.3 113.801 185.1 113.601C186.2 113.401 187.3 113.301 188.4 113.001C189.5 112.701 190.6 112.201 191.7 112.101C193.8 112.101 195.7 111.201 197.6 110.801C199.6 110.301 201.5 109.801 203.4 109.201C204.5 108.801 205.6 109.001 206.7 108.701C207.2 108.601 208.3 109.801 208.2 110.301C208.2 110.401 208.2 110.501 208.1 110.601C207.2 111.301 206.4 112.301 205.2 112.601C203.4 113.001 201.6 113.601 199.8 114.101V114.401Z" fill="black"/>
<path d="M184.7 132.798C185.3 132.598 186 132.298 186.6 131.998C186.8 131.898 187.2 131.998 187.2 131.398C187.2 131.098 187.7 131.598 187.9 131.398C188.5 130.998 189.1 130.798 189.7 130.498C190.3 130.198 190.7 129.698 191.3 129.298C191.8 128.898 192.6 128.898 193 128.298C193.3 127.798 194 127.998 194.4 127.698C194.8 127.298 195.3 126.998 195.9 126.898C196.3 126.898 196.8 126.898 197.1 126.598C197.3 126.398 197.3 125.998 197.6 125.898C197.8 125.798 198.2 125.898 198.1 125.198C198.1 125.198 198.2 125.198 198.3 125.198C198.7 125.398 199 125.198 199.1 124.898C199.1 124.598 199.3 124.498 199.5 124.398C200 124.098 200.4 123.798 200.9 123.598C201.3 123.398 201.7 123.398 202.1 123.298C202.5 123.098 202.7 122.598 203.2 122.698C203.7 122.698 204 122.498 204.3 122.298C204.5 122.198 204.9 122.298 204.7 121.698C204.7 121.698 204.7 121.698 204.8 121.698C205.8 122.098 205.7 120.798 206.4 120.598C207.1 120.398 207.6 119.898 208.1 119.498C208.2 119.398 208.5 119.498 208.4 118.998C208.4 118.798 208.4 118.698 208.6 118.798C209.4 118.998 209.5 118.498 209.9 118.298C210.4 118.098 210.6 117.598 211.2 117.598C211.5 117.598 211.8 117.498 211.4 116.898C211.2 116.698 211.6 116.698 211.6 116.498C211.6 116.398 211.4 116.098 211.5 116.098C211.5 116.098 211.8 116.098 211.9 116.098C211.9 115.898 211.7 115.798 211.8 115.798C211.8 115.798 211.8 115.698 211.9 115.598C212 115.398 212.2 115.198 212 114.998C211.7 114.598 211.6 114.298 211.5 114.098C211.5 114.098 211.5 113.798 211.5 112.698C211.5 112.198 211.5 111.598 211.7 111.298C211.9 111.098 212.2 110.898 212.4 110.898C212.8 110.898 213.2 110.998 213.6 111.198C214.4 111.498 215.4 111.998 215.5 112.898C215.5 113.198 215.9 113.398 215.5 113.698V113.898C216 114.298 216.2 114.898 216.2 115.398C216.2 115.998 216 116.498 215.9 117.098C215.8 117.598 215.8 117.998 215.7 118.498C215.7 118.998 215.4 119.398 215.1 119.698C215.3 120.498 214.8 120.898 214.4 121.098C212.8 121.798 211.9 122.898 210.7 123.598C209.5 124.298 208.4 125.098 207.3 125.798C207.1 125.898 207.1 126.298 206.8 126.198C206.4 126.198 206.3 126.498 206 126.598C205.8 126.698 205.6 126.998 205.3 126.998C204.1 126.998 203.4 127.898 202.4 128.398C201.5 128.898 200.5 129.398 199.7 129.998C199.2 130.398 198.8 130.998 198.2 131.198C197.9 131.198 197.8 131.698 197.3 131.298C197.2 131.198 197.1 131.698 197 131.798C196.6 132.098 196.2 132.198 195.8 132.398C195.3 132.698 194.7 132.898 194.2 133.298C193.9 133.498 193.7 133.898 193.4 134.098C193.1 134.298 192.7 134.498 192.3 134.598C191.8 134.798 191.3 134.798 190.8 134.998C190.3 135.198 189.9 135.698 189.4 135.598C188.4 135.598 187.6 136.198 186.7 136.498C185.8 136.798 184.8 137.098 183.9 137.498C183.3 137.698 182.7 137.298 182.2 137.398C181.9 137.398 181.5 135.998 181.6 135.498V135.298C182 134.798 182.3 133.998 182.7 133.998C183.4 133.998 184.1 133.598 184.8 133.398L184.7 132.798Z" fill="black"/>
</svg>
