<svg width="300" height="300" viewBox="0 0 300 300" fill="none" xmlns="http://www.w3.org/2000/svg">
<path d="M176.6 132.902C174.9 131.102 173.2 129.202 171.5 127.402C170.8 126.702 170.4 125.902 169.3 125.502C168.8 125.302 168.6 124.202 168 123.602C166.4 121.902 164.8 120.202 163.2 118.502C161.6 116.902 160 115.702 158.4 115.202C156.8 114.602 154.7 114.102 152.5 114.402C150.7 114.602 149 114.102 147.3 114.302C145.4 114.502 143.5 114.702 141.7 114.602C140.4 114.602 139 114.502 137.7 114.802C136.9 115.002 136.2 115.402 135.3 115.502C134.5 115.602 133.5 115.502 132.9 116.302C132.9 116.302 132.5 116.302 132.3 116.302C131.3 116.102 130.3 116.302 129.6 116.802C129 117.202 128.3 117.402 127.7 117.502C125.9 118.002 124.1 118.502 122.5 119.102C121.3 119.502 120.1 119.902 119.1 120.502C118 121.202 117.5 122.302 116.7 123.102C115.9 123.902 115.5 125.002 115.2 126.202C115 126.902 114.6 127.602 115.2 128.302C115.2 128.302 115.2 128.602 115.2 128.702C114.1 130.702 115.2 132.902 115 135.002C114.8 137.302 115 139.602 115 141.902C115 142.502 114.9 143.202 115.4 143.702C115.6 143.902 115.6 144.502 115.5 144.802C115 146.502 115.5 148.302 115.5 150.102C115.5 152.102 116.1 154.102 115.8 156.102C115.7 157.002 115.8 158.102 116.4 159.102C116.7 159.502 116.6 160.502 116.8 161.302C116.9 161.902 117.3 162.402 117.4 163.002C117.4 163.502 117.4 164.002 117.3 164.602C117.3 164.802 117.3 164.902 117.3 165.102C118.4 167.902 118 170.902 118.7 173.802C119.4 176.702 119.9 179.702 120.3 182.602C120.6 184.202 120.7 185.902 119.8 187.302C119.4 187.902 118.8 188.002 118.4 187.302C118.1 186.802 117.7 186.302 117.6 185.702C117.3 184.802 117 183.902 116.8 183.002C116.3 181.202 115.4 179.402 115.3 177.402C115.3 176.802 114.9 176.102 115.3 175.502C115.3 175.502 115.3 175.202 115.3 175.002C114.1 172.502 114.1 169.702 113.6 167.102C113.2 164.802 112.2 162.702 112.2 160.402C111.4 159.202 111.3 157.702 111.4 156.402C111.5 151.802 110.7 147.302 110.6 142.702C110.6 140.402 110.5 138.002 110.5 135.702C110.5 133.402 110.5 131.002 110.8 128.602C110.8 127.802 110.6 127.002 111.1 126.002C111.5 125.102 111.7 123.902 112.1 122.802C112.5 121.802 112.9 120.702 113.6 120.002C116.6 116.802 120.3 114.902 123.8 113.802C127.3 112.802 130.9 112.002 134.5 111.302C136.7 110.802 138.8 110.202 141.1 110.102C142.1 110.102 143 109.602 144 110.102C144.3 110.302 145.1 109.802 145.8 109.702C147.3 109.602 148.9 109.602 150.4 109.602C152.5 109.602 154.6 109.602 157 110.002C158.4 110.202 159.9 110.302 161.4 111.002C162.9 111.702 164.2 112.802 165.2 113.802C166.5 115.202 167.4 116.502 168.5 117.802C169.6 119.102 171.1 120.302 172 121.702C173.7 124.302 176.1 126.402 178.1 128.702C180.2 131.002 182.2 133.302 184.4 135.502C185.6 136.702 186.4 138.202 187.5 139.502C188 140.102 187.7 141.902 187.1 142.002C187 142.002 186.8 142.002 186.7 142.002C185.2 141.102 183.6 140.502 182.4 139.002C180.5 136.902 178.5 134.802 176.6 132.802V132.902Z" fill="black"/>
<path d="M166.101 147.302C166.501 147.102 166.801 147.002 167.201 146.702C167.301 146.702 167.601 146.702 167.501 146.202C167.501 145.902 167.901 146.402 168.001 146.402C168.301 146.202 168.701 146.102 169.001 145.902C169.301 145.702 169.501 145.302 169.801 145.102C170.101 144.902 170.601 145.102 170.801 144.602C171.001 144.202 171.401 144.602 171.601 144.302C171.801 144.102 172.101 143.902 172.501 144.002C172.801 144.002 173.101 144.202 173.201 144.002C173.201 143.902 173.201 143.502 173.401 143.502C173.501 143.502 173.801 143.702 173.701 143.002C173.701 143.002 173.701 143.002 173.901 143.002C174.201 143.302 174.401 143.202 174.401 143.002C174.401 142.702 174.501 142.702 174.601 142.602C174.901 142.502 175.201 142.302 175.501 142.302C175.701 142.302 176.001 142.302 176.301 142.302C176.501 142.302 176.701 141.902 177.001 142.102C177.301 142.302 177.501 142.202 177.701 142.102C177.801 142.102 178.101 142.302 177.901 141.602C178.501 142.302 178.501 141.102 178.901 141.202C179.301 141.202 179.601 141.002 180.001 140.902C180.001 140.902 180.301 141.002 180.201 140.502C180.201 140.302 180.201 140.302 180.401 140.402C180.901 140.902 181.001 140.402 181.301 140.402C181.601 140.402 181.901 140.002 182.301 140.402C182.501 140.602 182.701 140.602 182.701 140.002C182.701 139.702 182.901 140.002 183.001 139.802C183.001 139.802 183.001 139.402 183.201 139.402C183.201 139.402 183.401 139.602 183.501 139.702C183.801 138.902 184.501 139.702 184.901 139.302C185.301 139.002 185.801 138.902 186.301 138.902C186.601 138.902 186.901 138.902 187.401 140.002C187.601 140.502 187.801 141.002 187.701 141.402C187.701 141.702 187.701 141.902 187.601 142.002C187.501 142.102 187.401 142.302 187.301 142.402C187.101 142.702 186.901 143.302 186.601 143.102C186.501 143.102 186.501 143.402 186.201 142.902C186.001 143.802 185.501 143.402 185.101 143.602C184.801 143.802 184.601 144.502 184.201 144.302C184.201 145.002 184.001 144.902 183.701 144.802C182.801 144.402 182.301 145.002 181.601 145.202C180.901 145.302 180.301 145.702 179.601 145.902C179.501 145.902 179.601 146.302 179.301 146.102C179.101 145.902 179.001 146.102 178.801 146.202C178.701 146.202 178.601 146.402 178.401 146.302C177.601 145.902 177.301 146.502 176.701 146.602C176.201 146.702 175.601 146.902 175.201 147.302C174.901 147.502 174.801 148.002 174.401 148.002C174.201 148.002 174.201 148.402 173.901 147.902C173.801 147.802 173.901 148.202 173.801 148.302C173.601 148.402 173.401 148.502 173.201 148.602C172.901 148.702 172.601 148.802 172.301 149.002C172.101 149.102 172.101 149.402 171.901 149.602C171.701 149.702 171.601 149.802 171.301 149.902C171.001 149.902 170.701 149.902 170.401 149.902C170.101 149.902 170.001 150.302 169.601 150.202C168.901 150.002 168.601 150.402 168.201 150.602C167.701 150.802 167.301 150.902 166.901 151.302C166.701 151.502 166.201 151.202 166.001 151.302C165.901 151.302 165.101 150.102 164.901 149.702V149.502C164.901 149.002 164.801 148.202 165.101 148.102C165.501 148.002 165.901 147.702 166.301 147.502L166.101 147.302Z" fill="black"/>
<path d="M146.699 141.101C146.699 140.901 146.699 140.701 146.699 140.601C146.699 140.601 146.899 140.501 146.399 140.401C146.099 140.401 146.799 140.301 146.699 140.201C146.699 140.001 146.699 139.901 146.699 139.701C146.699 139.501 146.399 139.401 146.399 139.201C146.399 139.001 146.699 138.901 146.399 138.701C146.099 138.501 146.599 138.501 146.499 138.301C146.399 138.201 146.299 138.001 146.499 137.901C146.699 137.901 146.899 137.701 146.799 137.601C146.799 137.601 146.399 137.401 146.499 137.401C146.499 137.401 146.799 137.401 146.199 137.201C146.199 137.201 146.199 137.201 146.399 137.201C146.799 137.201 146.799 137.201 146.499 137.001C146.199 137.001 146.299 136.901 146.299 136.801C146.299 136.701 146.299 136.501 146.299 136.401C146.299 136.401 146.599 136.201 146.699 136.201C146.699 136.201 146.499 135.901 146.799 135.901C147.099 135.901 147.099 135.801 147.099 135.701C147.099 135.701 147.399 135.701 146.799 135.501C147.599 135.501 146.599 135.101 146.799 135.001C146.999 134.901 146.899 134.701 146.999 134.501C146.999 134.501 147.199 134.501 146.799 134.301C146.599 134.201 146.599 134.301 146.799 134.301C147.399 134.301 147.099 134.101 147.199 134.001C147.399 133.901 147.199 133.701 147.599 133.701C147.799 133.701 147.899 133.701 147.399 133.401C147.199 133.301 147.399 133.401 147.399 133.201L147.099 133.001C147.099 133.001 147.299 133.001 147.499 133.001C146.899 132.601 147.899 132.701 147.799 132.401C147.799 132.101 147.799 132.001 147.999 131.801C147.999 131.801 148.299 131.701 149.399 132.001C149.899 132.201 150.399 132.401 150.699 132.601C150.899 132.701 151.099 132.801 151.099 132.901C151.099 132.901 151.299 133.101 151.299 133.201C151.399 133.401 151.899 133.701 151.599 133.701C151.599 133.701 151.799 133.901 151.299 133.701C151.999 134.101 151.399 134.101 151.399 134.301C151.399 134.401 151.999 134.801 151.699 134.801C152.299 135.101 152.099 135.101 151.899 135.101C151.199 135.101 151.499 135.501 151.399 135.801C151.199 136.001 151.299 136.301 151.199 136.601C151.199 136.601 151.499 136.801 151.199 136.801C150.899 136.801 151.199 136.901 151.199 137.001C151.199 137.001 151.299 137.101 151.199 137.201C150.499 137.201 150.899 137.601 150.799 137.801C150.799 138.001 150.599 138.201 150.799 138.401C150.799 138.501 151.199 138.701 151.099 138.801C151.099 138.801 151.399 138.901 150.799 138.901C150.599 138.901 151.099 138.901 151.099 139.001C151.099 139.001 151.099 139.201 151.099 139.301C151.099 139.401 151.099 139.501 151.099 139.701L151.399 139.901V140.101C151.399 140.101 151.099 140.301 150.999 140.401C150.999 140.501 151.199 140.601 150.999 140.701C150.499 140.901 150.699 141.101 150.699 141.301C150.699 141.501 150.699 141.701 150.699 141.801C150.699 141.801 150.299 142.001 150.299 142.101C150.299 142.101 148.799 142.301 148.299 142.401H148.099C147.599 142.401 146.899 142.301 146.899 142.101C146.899 141.901 146.899 141.701 146.899 141.501L146.699 141.101Z" fill="black"/>
<path d="M157.1 141.902C157.1 141.702 157.1 141.502 157.1 141.402C157.1 141.402 157.3 141.302 156.8 141.202C156.5 141.202 157.2 141.102 157.1 141.002C157.1 140.802 157.1 140.702 157.1 140.502C157.1 140.302 156.8 140.202 156.8 140.002C156.8 139.802 157.1 139.702 156.8 139.502C156.5 139.302 157 139.302 156.9 139.102C156.8 139.002 156.7 138.802 156.9 138.702C157.1 138.702 157.3 138.502 157.2 138.402C157.2 138.402 156.8 138.202 156.9 138.202C156.9 138.202 157.2 138.202 156.6 138.002C156.6 138.002 156.6 138.002 156.8 138.002C157.2 138.002 157.2 138.002 156.9 137.802C156.6 137.802 156.7 137.702 156.7 137.602C156.7 137.502 156.7 137.302 156.7 137.202C156.7 137.202 157 137.002 157.1 137.002C157.1 137.002 156.9 136.702 157.2 136.702C157.5 136.702 157.5 136.602 157.5 136.502C157.5 136.502 157.8 136.502 157.2 136.302C158 136.302 157 135.902 157.2 135.802C157.4 135.702 157.3 135.502 157.4 135.302C157.4 135.302 157.6 135.302 157.2 135.102C157 135.002 157 135.102 157.2 135.102C157.8 135.102 157.5 134.902 157.6 134.802C157.8 134.702 157.6 134.502 158 134.502C158.2 134.502 158.3 134.502 157.8 134.202C157.6 134.102 157.8 134.202 157.8 134.002L157.5 133.802C157.5 133.802 157.7 133.802 157.9 133.802C157.3 133.402 158.3 133.502 158.2 133.202C158.2 132.902 158.2 132.802 158.4 132.602C158.4 132.602 158.7 132.502 159.8 132.802C160.3 133.002 160.8 133.202 161.1 133.402C161.3 133.502 161.5 133.602 161.5 133.702C161.5 133.702 161.7 133.902 161.7 134.002C161.8 134.202 162.3 134.502 162 134.502C162 134.502 162.2 134.702 161.7 134.502C162.4 134.902 161.8 134.902 161.8 135.102C161.8 135.202 162.4 135.602 162.1 135.602C162.7 135.902 162.5 135.902 162.3 135.902C161.6 135.902 161.9 136.302 161.8 136.602C161.6 136.802 161.7 137.102 161.6 137.402C161.6 137.402 161.9 137.602 161.6 137.602C161.3 137.602 161.6 137.702 161.6 137.802C161.6 137.802 161.7 137.902 161.6 138.002C160.9 138.002 161.3 138.402 161.2 138.602C161.2 138.802 161 139.002 161.2 139.202C161.2 139.302 161.6 139.502 161.5 139.602C161.5 139.602 161.8 139.702 161.2 139.702C161 139.702 161.5 139.702 161.5 139.802C161.5 139.802 161.5 140.002 161.5 140.102C161.5 140.202 161.5 140.302 161.5 140.502L161.8 140.702V140.902C161.8 140.902 161.5 141.102 161.4 141.202C161.4 141.302 161.6 141.402 161.4 141.502C160.9 141.702 161.1 141.902 161.1 142.102C161.1 142.302 161.1 142.502 161.1 142.602C161.1 142.602 160.7 142.802 160.7 142.902C160.7 142.902 159.2 143.102 158.7 143.202H158.5C158 143.202 157.3 143.102 157.3 142.902C157.3 142.702 157.3 142.502 157.3 142.302L157.1 141.902Z" fill="black"/>
<path d="M148 98.0008C147.8 95.8008 147.5 93.5008 146.9 91.3008C146.7 90.5008 146.7 89.6008 145.9 88.9008C145.5 88.6008 145.9 87.6008 145.6 86.9008C145.2 85.9008 144.8 85.1008 144.4 84.5008C144 83.9008 143.4 83.5008 142.7 83.4008C141.4 83.1008 139.7 83.8008 138.1 84.7008C137.3 85.1008 136.5 85.6008 135.6 86.2008C134.8 86.8008 134 87.4008 133.6 88.1008C133.2 88.7008 132.9 89.1008 132.6 89.5008C132.4 89.9008 132.1 90.4008 132.2 91.1008C132.2 92.5008 132.8 94.2008 132.7 96.3008C132.7 97.4008 132.5 98.5008 132.2 99.6008H128.5C128.5 99.2008 128.4 98.9008 128.3 98.6008C128 98.0008 127.5 97.5008 127.2 96.9008C126.9 96.3008 126.7 95.5008 125.9 95.4008C125.9 95.4008 125.7 95.1008 125.7 94.9008C125.6 94.1008 124.8 93.5008 124.2 93.3008C123.6 93.2008 123.2 92.9008 122.7 92.6008C121.4 91.9008 120.1 91.5008 118.7 91.4008C117.7 91.3008 116.6 91.2008 115.6 91.4008C115.1 91.5008 114.6 91.8008 114.3 92.1008C113.9 92.4008 113.6 92.7008 113.2 93.0008C112.4 93.5008 112 94.5008 111.7 95.5008C111.6 96.1008 111.2 96.8008 111.8 97.3008C111.8 97.3008 111.8 97.6008 111.8 97.7008C111.4 98.5008 111.6 99.5008 111.9 100.301C112.1 100.701 112.3 101.201 112.5 101.601V101.901C112.7 102.001 112.7 102.101 112.8 102.301C113 102.701 113.2 103.201 113.3 103.701C114.1 106.101 115.3 108.501 116.4 110.901C114.8 110.501 113.2 110.001 111.7 109.601C110.5 109.301 109.4 108.801 108.4 109.101C108.2 109.101 107.8 109.101 107.4 109.101C107.2 109.101 107 109.101 106.9 109.001C105.5 108.201 103.9 108.601 102.3 108.601C100.5 108.601 98.9999 109.201 97.5999 109.501C96.9999 109.501 96.2999 110.101 96.5999 110.901C96.6999 111.201 96.2999 111.601 96.3999 112.101C96.3999 112.501 96.6999 112.801 96.7999 113.101C96.7999 113.401 96.7999 113.801 96.7999 114.101C96.7999 114.201 96.7999 114.301 96.8999 114.401C97.5999 115.201 98.2999 116.101 99.0999 117.101C99.8999 118.101 100.7 119.201 101.8 120.001C103.9 121.601 106.1 123.301 108.3 124.701C109.6 125.501 110.8 126.301 111.3 127.801C111.5 128.501 111.3 129.001 110.5 129.001C110 129.001 109.3 129.001 108.8 128.801C108 128.501 107.1 128.101 106.3 127.801C104.6 127.001 102.8 126.401 101.4 125.001C101 124.601 100.2 124.401 100.2 123.601C100.2 123.601 99.9999 123.301 99.8999 123.301C98.6999 122.801 97.5999 121.901 96.6999 121.001C95.7999 120.001 94.8999 118.901 94.0999 117.701C93.3999 116.701 92.6999 115.601 92.1999 114.301C91.7999 113.001 91.6999 111.501 92.1999 110.001C92.1999 109.101 92.4999 108.101 93.1999 107.301C93.7999 106.501 94.6999 106.001 95.4999 105.601C96.8999 105.001 98.0999 104.801 99.2999 104.601C100.5 104.401 101.6 104.301 102.8 104.201C103.9 104.201 105.1 104.201 106.3 104.201C106.9 104.201 107.5 104.201 108 104.301C108 104.301 108.2 104.301 108.3 104.301L108.9 104.501C108.9 104.501 108.9 104.201 108.8 104.101C108.8 104.001 108.7 103.801 108.6 103.701L108.4 103.101L108.2 102.401C108.1 102.001 108 101.501 107.9 101.101C107.7 100.201 107.6 99.2008 107.5 98.3008C107.5 97.4008 107.1 96.7008 107.5 95.6008C107.9 94.7008 108 93.4008 108.5 92.3008C108.9 91.3008 109.5 90.2008 110.4 89.6008C112.2 88.2008 114.1 87.4008 116.1 87.1008C118.1 86.7008 120.1 86.8008 122 87.4008C125.7 88.6008 128.8 91.2008 130.8 94.5008C131.6 95.8008 132.2 97.1008 132.6 98.6008H128.3C128.3 98.0008 128.3 97.4008 128.4 96.8008C128.4 96.1008 128 95.3008 128.4 94.3008C128.5 94.0008 128 93.3008 127.9 92.6008C127.7 91.1008 127.7 89.1008 128.6 87.3008C129.2 86.1008 130 85.1008 130.9 84.3008C131.8 83.5008 132.6 82.9008 133.4 82.3008C134.5 81.5008 135.5 80.6008 136.7 80.0008C138 79.4008 139.5 78.8008 141.3 78.8008C142.4 78.8008 143.6 79.0008 144.6 79.5008C145.7 80.0008 146.6 80.8008 147.3 81.7008C148 82.6008 148.6 83.5008 149 84.4008C149.4 85.3008 149.7 86.1008 149.8 86.9008C150.3 90.0008 151.2 92.9008 151.5 95.9008C151.8 98.9008 151.8 102.001 151.7 105.001C151.7 106.701 150.9 108.201 150.6 109.801C150.4 110.601 148.8 111.201 148.4 110.801C148.4 110.801 148.2 110.601 148.2 110.501C148.1 108.901 147.6 107.401 147.8 105.701C148.1 103.201 148.1 100.601 147.9 98.0008H148Z" fill="black"/>
<path d="M166 147.298C166.1 146.998 166.3 146.698 166.3 146.298C166.3 146.198 166.6 146.098 166.2 145.798C166 145.598 166.6 145.798 166.6 145.598C166.6 145.298 166.8 144.998 166.9 144.698C166.9 144.398 166.9 143.998 166.9 143.698C166.9 143.398 167.3 143.198 167.1 142.798C166.9 142.498 167.5 142.398 167.5 142.198C167.5 141.898 167.5 141.598 167.8 141.498C168 141.398 168.3 141.298 168.3 141.098C168.3 140.998 168 140.698 168.1 140.598C168.1 140.598 168.5 140.498 167.9 140.098C167.9 140.098 167.9 140.098 168.1 140.098C168.5 140.098 168.6 139.998 168.3 139.798C168.1 139.598 168.2 139.498 168.2 139.398C168.2 139.098 168.4 138.898 168.5 138.698C168.6 138.498 168.9 138.498 169 138.298C169.1 138.098 169 137.798 169.3 137.798C169.7 137.798 169.7 137.598 169.8 137.398C169.8 137.398 170.2 137.398 169.6 136.998C170.5 136.998 169.6 136.398 169.9 136.198C170.2 135.998 170.2 135.598 170.3 135.298C170.3 135.298 170.5 135.298 170.2 134.998C170.1 134.998 170.1 134.798 170.2 134.798C170.9 134.798 170.6 134.498 170.8 134.298C171 134.098 170.8 133.698 171.4 133.698C171.6 133.698 171.8 133.598 171.4 133.198C171.2 132.998 171.4 132.998 171.4 132.898C171.4 132.898 171.2 132.598 171.2 132.498C171.2 132.498 171.5 132.498 171.6 132.498C171.2 131.798 172.2 131.898 172.2 131.398C172.2 130.998 172.5 130.598 172.8 130.198C173 129.998 173.3 129.798 174.4 130.298C174.9 130.498 175.3 130.898 175.5 131.098C175.7 131.298 175.8 131.498 175.8 131.598C175.8 131.698 175.8 131.898 175.9 131.998C175.9 132.298 176.3 132.698 175.9 132.798C175.8 132.798 176 132.998 175.5 132.798C176.1 133.498 175.5 133.598 175.3 133.898C175.3 134.198 175.6 134.698 175.3 134.898C175.8 135.298 175.6 135.498 175.3 135.498C174.4 135.698 174.6 136.498 174.3 136.998C174 137.498 173.8 138.098 173.5 138.598C173.5 138.598 173.7 138.898 173.5 138.898C173.2 138.898 173.3 139.098 173.3 139.198C173.3 139.298 173.3 139.498 173.1 139.498C172.3 139.698 172.5 140.298 172.2 140.698C171.9 141.098 171.7 141.498 171.7 141.998C171.7 142.298 171.9 142.698 171.7 142.898C171.7 142.898 171.9 143.198 171.3 143.098C171.1 143.098 171.5 143.298 171.5 143.398C171.5 143.598 171.4 143.798 171.3 143.998C171.2 144.298 171.1 144.498 171 144.798C171 144.998 171.1 145.198 171.1 145.398C171.1 145.598 171.1 145.698 170.9 145.898C170.8 146.098 170.5 146.198 170.3 146.398C170.2 146.598 170.3 146.898 170 146.998C169.4 147.198 169.5 147.698 169.3 148.098C169.1 148.498 168.9 148.798 168.9 149.298C168.9 149.498 168.3 149.598 168.3 149.798C168.3 149.898 166.8 149.598 166.4 149.398C166.4 149.398 166.2 149.398 166.2 149.298C165.8 148.898 165.2 148.498 165.3 148.298C165.5 147.998 165.6 147.598 165.7 147.198L166 147.298Z" fill="black"/>
<path d="M172.3 158.799C173.1 160.799 173.8 162.899 174.5 164.999C174.8 165.799 174.8 166.699 175.5 167.399C175.9 167.799 175.5 168.699 175.6 169.399C176.1 171.499 176.3 173.599 176.4 175.699C176.5 177.799 176.6 179.899 176.2 181.999C175.8 184.099 174.8 186.099 174.1 188.099C173.4 189.899 172 190.899 170.8 192.199C170.1 192.899 169.4 193.599 168.4 194.099C167.5 194.599 166.4 194.999 165.2 194.999C163.5 194.999 162.1 194.399 160.8 193.999C160 193.699 159.2 193.599 158.4 193.199C158.1 192.999 157.7 192.699 157.4 192.499C157.2 192.399 157 192.299 156.8 192.199H156.7C156.7 192.199 156.7 192.199 156.6 192.399C156.6 192.399 156.6 192.399 156.6 192.199C156.6 191.799 156.4 191.499 156.4 191.799C156.4 192.199 156.4 192.199 156.4 192.199C156.4 191.999 156.1 191.599 156.1 191.699C156.1 191.699 156.1 191.799 156.1 191.899V192.099C156.1 192.099 156.1 191.999 155.8 192.699C155 194.199 154.1 195.399 152.9 196.399C152.2 196.999 151.2 197.099 150.8 197.999C150.8 197.999 150.5 198.199 150.3 198.199C149 198.199 148 198.399 146.8 198.599C145.7 198.799 144.4 198.799 143.3 198.399L142.4 197.999L141.5 197.599C141 197.299 140.5 196.999 140 196.599C139 195.899 138.1 195.099 137.4 194.199C137.3 194.099 137.2 193.999 137.1 193.799C137.1 193.799 137.1 193.799 137.1 193.699C137.1 193.699 136.9 193.699 136.8 193.799C136.8 193.899 136.8 193.999 136.8 193.799C136.8 193.599 136.8 193.399 136.8 193.299C136.8 193.099 136.8 192.999 136.7 192.999C136.7 192.999 136.7 192.999 136.6 192.799C136.6 192.599 136.6 192.499 136.5 192.499C136.5 192.799 136.5 192.899 136.3 192.499C136.3 192.399 136.1 192.499 136.1 192.699C136.1 192.899 136.1 193.199 136.4 193.499C136.6 193.799 136.4 193.699 136.4 193.799V194.199C136.4 194.499 136.4 194.799 136.4 194.999C136.4 195.199 136.2 195.399 136 195.699C135.8 196.099 135.5 196.399 135.3 196.699C135.2 196.899 135 197.099 134.9 197.299C134.3 198.299 133.2 198.999 132 199.099C131.4 199.099 130.7 199.099 130.4 199.099C130 199.099 129.8 198.999 129.4 198.899C128.1 198.599 126.8 198.299 125.4 197.999C124 197.699 122.5 197.199 121.1 196.399C119.7 195.499 118.5 194.299 117.7 192.799C117.2 191.999 116.9 190.999 117 190.099C117 189.199 117.4 188.299 118 187.799C118.6 187.399 119.1 187.599 119.4 188.099C119.6 188.499 119.8 188.899 120 189.299C120.2 189.899 120.6 190.499 121 190.999C121.4 191.499 122 191.899 122.6 192.199C123.2 192.499 123.7 192.799 124.3 193.199C124.7 193.499 125.3 193.399 125.5 193.999C125.5 193.999 125.7 194.199 125.8 194.199C126.9 194.099 127.9 194.199 129 194.399L130.7 194.699H131.2C131.2 194.699 131.4 194.699 131.5 194.699C131.7 194.699 131.8 194.499 131.8 194.299C131.8 194.099 131.8 194.099 131.8 193.599V192.899C131.9 192.899 132 192.599 132 192.599V192.399L132.1 192.099C132.3 191.199 132.5 190.299 132.7 189.399C132.6 187.999 132.6 186.499 132.6 184.699C133.3 184.499 133.8 184.599 134.2 184.699C134.9 184.699 135.1 184.699 135.3 184.399C135.7 184.699 136 184.999 137.8 184.799L138.5 186.599L139.2 188.199L140 189.599L140.8 190.699C141.4 191.499 141.9 191.999 142.5 192.499C143.1 192.999 143.8 193.399 144.5 193.699C145.8 194.199 147.5 194.299 148.9 193.899C149.4 193.699 149.6 193.299 150.2 193.299C150.8 193.299 151.2 192.699 151.4 192.299C151.5 192.099 151.6 191.899 151.7 191.699C151.7 191.599 151.7 191.499 151.8 191.399C151.8 191.399 151.8 191.299 151.8 191.199V190.999C151.8 190.899 151.8 190.799 151.8 190.699C151.8 190.399 151.8 190.199 151.9 189.899V188.899C151.8 188.799 151.7 188.499 151.6 188.299L151.4 187.699C151.4 187.299 151 186.799 150.8 186.199C151.1 185.999 151.3 185.899 151.5 185.699C151.6 185.599 151.8 185.399 151.9 185.299C152.1 184.999 152.1 184.799 152.1 184.599C152.1 184.199 152 183.899 151.9 183.599C151.9 183.699 152 183.799 152.1 183.799C152.5 184.099 153.1 184.399 154.6 184.199C155.8 185.899 156.8 186.899 157.8 187.699L158.6 188.299C158.7 188.299 158.9 188.499 159 188.599H159.2C159.5 188.899 159.8 189.099 160.1 189.299C160.9 189.699 161.7 189.999 162.4 190.199C163.1 190.399 163.7 190.499 164.3 190.499C164.8 190.499 165.1 190.099 165.9 190.399C166.1 190.399 166.4 189.799 166.7 189.499C167.1 189.199 167.5 188.799 167.8 188.399L168.4 187.799L168.9 187.099C169.8 185.899 170.6 184.499 171 182.999C171.3 182.099 171.2 181.099 171.4 180.099C171.4 179.099 171.6 177.999 171.7 176.999C171.8 175.699 172 174.299 171.9 172.999C171.9 171.599 171.3 170.199 171.2 168.799C171.1 166.199 170 163.799 169.1 161.299C168.2 158.799 167.3 156.299 166.3 153.799C165.7 152.399 165.8 150.899 165.3 149.399C165.1 148.699 166.3 147.399 166.9 147.599C167 147.599 167.1 147.699 167.2 147.799C168 149.099 169.1 150.099 169.6 151.599C170.3 153.899 171.2 156.099 172.1 158.399L172.3 158.799Z" fill="black"/>
</svg>
