<svg width="300" height="300" viewBox="0 0 300 300" fill="none" xmlns="http://www.w3.org/2000/svg">
<path d="M179.999 136.599C178.899 135.399 177.799 134.199 176.699 133.099C176.299 132.699 176.099 132.099 175.199 131.999C174.799 131.999 174.899 131.099 174.499 130.699C173.399 129.699 172.499 128.499 171.399 127.499C170.399 126.499 169.199 125.599 168.199 124.599C167.199 123.599 166.399 122.299 165.199 121.499C164.199 120.799 163.799 119.699 162.899 118.899C161.999 118.099 161.099 117.399 160.499 116.599C159.999 115.999 159.499 115.399 158.899 115.199C158.499 115.099 157.999 115.199 157.499 115.099C157.099 114.999 156.599 114.599 156.099 115.099C156.099 115.099 155.899 114.999 155.799 114.899C155.399 114.399 154.699 114.399 154.199 114.599C153.699 114.799 153.299 114.799 152.899 114.799C151.699 114.799 150.499 114.799 149.299 114.799C148.399 114.799 147.499 114.499 146.599 114.499C145.699 114.499 144.699 114.799 143.799 114.499C142.899 114.299 142.099 114.299 141.199 114.499C140.699 114.499 140.099 114.299 139.799 114.999C139.799 114.999 139.599 114.999 139.499 114.999C137.999 114.299 136.799 115.599 135.399 115.599C133.999 115.599 132.499 115.999 131.099 116.399C130.699 116.399 130.299 116.399 129.999 116.899C129.999 117.099 129.499 117.199 129.299 117.099C128.099 116.699 127.099 117.399 125.999 117.599C124.699 117.799 123.699 118.499 122.399 118.399C121.899 118.399 121.099 118.599 120.899 119.299C120.799 119.699 120.199 119.699 119.799 119.899C119.499 120.099 119.399 120.499 119.199 120.699C118.999 120.899 118.599 120.799 118.399 120.899C118.399 120.899 118.199 120.899 118.199 121.099C117.899 121.799 117.399 122.299 116.899 122.899C116.399 123.399 115.899 124.099 115.699 124.899C115.299 126.499 114.899 128.199 114.699 129.899C114.599 130.899 114.299 131.899 113.199 132.599C112.699 132.899 112.099 132.899 111.799 132.399C111.599 132.099 111.399 131.699 111.299 131.299C111.299 130.699 111.099 130.099 111.099 129.399C111.099 128.099 110.699 126.699 111.299 125.399C111.499 124.999 111.299 124.399 111.899 124.199C111.899 124.199 112.099 123.999 112.099 123.899C111.999 121.899 113.399 120.199 114.799 118.699C115.899 117.499 116.999 115.999 118.599 115.399C119.099 114.399 120.199 114.099 121.099 113.899C122.699 113.699 124.099 113.299 125.599 112.899C126.999 112.499 128.399 111.999 129.899 111.799C132.899 111.199 135.799 110.599 138.799 110.299C139.299 110.299 139.699 109.799 140.299 110.099C140.899 110.299 141.599 110.099 142.199 109.999C142.799 109.999 143.399 109.799 143.999 109.899C146.399 110.399 148.699 109.899 151.099 110.099C153.399 110.199 155.799 110.299 158.399 110.799C159.899 111.099 161.699 111.599 162.999 112.699C163.499 113.199 164.299 113.399 164.299 114.299C164.299 114.499 165.099 114.599 165.399 114.899C166.099 115.599 166.799 116.299 167.399 116.999C168.299 117.999 169.199 118.999 170.099 119.899C170.699 120.499 171.399 120.899 171.999 121.399C172.599 121.999 173.199 122.599 173.699 123.299C174.399 124.099 174.999 125.099 175.699 125.899C176.399 126.799 177.399 127.399 177.899 128.399C178.899 130.199 180.399 131.499 181.699 132.999C182.999 134.499 184.299 135.999 185.799 137.299C186.599 138.099 186.899 139.199 187.699 139.999C187.999 140.399 187.399 141.899 186.899 142.099C186.899 142.099 186.699 142.099 186.599 142.099C185.499 141.599 184.299 141.399 183.499 140.499C182.299 139.099 180.999 137.799 179.799 136.499L179.999 136.599Z" fill="black"/>
<path d="M115.8 157.699C115.8 158.199 115.8 158.799 116 159.299C116 159.499 115.8 159.699 116.4 159.899C116.7 159.899 116.1 160.199 116.1 160.399C116.2 160.899 116.2 161.399 116.3 161.899C116.4 162.399 116.7 162.799 116.9 163.299C117 163.799 116.9 164.299 117.2 164.699C117.5 165.099 117.1 165.499 117.2 165.899C117.4 166.299 117.5 166.699 117.4 167.099C117.3 167.399 117.1 167.699 117.3 167.999C117.3 168.199 117.7 168.299 117.7 168.499C117.7 168.699 117.5 168.899 118.1 168.999C118.1 168.999 118.1 169.099 118 169.199C117.6 169.499 117.7 169.699 118 169.799C118.3 169.899 118.3 170.099 118.3 170.199C118.4 170.599 118.5 170.999 118.5 171.399C118.5 171.699 118.3 172.099 118.3 172.399C118.3 172.699 118.6 172.999 118.3 173.399C118.1 173.699 118.1 173.999 118.2 174.299C118.2 174.499 118 174.699 118.6 174.699C118.6 174.699 118.6 174.699 118.6 174.799C117.9 175.399 119 175.699 118.9 176.199C118.8 176.699 119 177.199 119.1 177.699C119.1 177.799 119 177.999 119.4 177.999C119.6 177.999 119.6 178.099 119.5 178.199C118.9 178.699 119.4 178.999 119.4 179.399C119.4 179.899 119.7 180.199 119.4 180.799C119.2 180.999 119.2 181.299 119.8 181.399C120.1 181.399 119.8 181.699 119.9 181.899C119.9 181.999 120.3 182.099 120.3 182.199C120.3 182.299 120.1 182.499 120 182.599C120 182.599 120 182.599 120 182.699C120.8 183.199 120 183.999 120.3 184.599C120.6 185.199 120.6 185.899 120.7 186.499C120.7 186.899 120.7 187.299 119.5 187.699C119 187.899 118.5 187.999 118.1 187.899C117.8 187.899 117.6 187.799 117.5 187.599C117.4 187.399 117.2 187.199 117.1 187.099C116.8 186.699 116.2 186.399 116.4 185.899C116.4 185.799 116.1 185.699 116.6 185.499C116.6 185.499 116.6 185.499 116.6 185.399C115.7 184.999 116.1 184.299 115.9 183.699C115.8 183.199 115 182.899 115.2 182.299C114.5 182.099 114.6 181.799 114.7 181.499C115.2 180.399 114.6 179.499 114.5 178.499C114.5 177.499 114.1 176.499 114 175.499C114 175.299 113.6 175.299 113.8 174.999C114 174.799 113.8 174.599 113.8 174.399C113.8 174.199 113.6 173.999 113.8 173.799C114.3 172.899 113.8 172.199 113.8 171.399C113.8 170.599 113.7 169.799 113.4 169.099C113.2 168.599 112.8 168.199 112.9 167.699C112.9 167.499 112.6 167.299 113.1 166.999C113.3 166.999 112.8 166.799 112.7 166.699C112.6 166.399 112.6 166.099 112.5 165.699C112.5 165.299 112.5 164.799 112.3 164.399C112.3 164.099 111.9 163.899 111.8 163.599C111.7 163.299 111.7 162.999 111.7 162.699C111.7 162.299 111.9 161.899 111.9 161.599C111.9 161.199 111.6 160.899 111.9 160.499C112.3 159.799 111.9 159.099 111.9 158.399C111.9 157.699 111.9 156.999 111.6 156.399C111.5 155.999 111.9 155.599 111.9 155.299C111.9 155.099 113.3 154.699 113.8 154.699H114C114.5 154.999 115.3 155.299 115.3 155.699C115.3 156.299 115.4 156.899 115.5 157.499L115.8 157.699Z" fill="black"/>
<path d="M159.899 147.899C160.399 147.699 160.899 147.499 161.299 147.299C161.499 147.299 161.699 147.299 161.699 146.799C161.699 146.499 162.099 146.999 162.299 146.899C162.699 146.699 163.199 146.599 163.599 146.299C163.999 146.099 164.399 145.699 164.799 145.499C165.199 145.299 165.799 145.399 166.099 144.899C166.399 144.499 166.899 144.899 167.199 144.599C167.499 144.399 167.899 144.099 168.299 144.199C168.599 144.199 168.899 144.399 169.199 144.199C169.299 144.099 169.399 143.699 169.599 143.699C169.799 143.699 169.999 143.899 169.999 143.199C169.999 143.199 170.099 143.199 170.199 143.199C170.499 143.499 170.699 143.399 170.799 143.199C170.799 142.899 170.999 142.899 171.099 142.799C171.499 142.599 171.799 142.499 172.199 142.399C172.499 142.399 172.799 142.399 173.099 142.399C173.399 142.399 173.599 141.999 173.999 142.199C174.399 142.399 174.599 142.299 174.899 142.199C174.999 142.199 175.299 142.399 175.199 141.699C175.899 142.399 175.999 141.199 176.499 141.299C176.999 141.299 177.399 141.099 177.899 140.899C177.999 140.899 178.199 140.899 178.199 140.499C178.199 140.299 178.299 140.299 178.399 140.399C178.899 140.899 179.199 140.399 179.499 140.399C179.899 140.399 180.199 139.999 180.799 140.399C180.999 140.599 181.299 140.599 181.299 139.999C181.299 139.699 181.599 139.999 181.699 139.799C181.799 139.799 181.799 139.399 181.999 139.399C181.999 139.399 182.299 139.599 182.399 139.599C182.799 138.799 183.599 139.499 184.099 139.199C184.599 138.899 185.199 138.799 185.799 138.699C186.099 138.699 186.499 138.699 186.999 139.799C187.199 140.299 187.399 140.799 187.299 141.199C187.299 141.499 187.299 141.699 187.099 141.799C186.899 141.899 186.799 142.099 186.599 142.299C186.299 142.599 186.099 143.199 185.599 142.999C185.499 142.999 185.399 143.299 185.199 142.799C185.199 142.799 185.199 142.799 185.099 142.799C184.799 143.699 184.099 143.299 183.599 143.499C183.199 143.699 182.899 144.399 182.399 144.299C182.399 144.999 181.999 144.999 181.699 144.799C180.599 144.399 179.899 145.099 178.999 145.199C178.099 145.399 177.199 145.699 176.399 145.899C176.199 145.899 176.199 146.299 175.999 146.099C175.799 145.899 175.599 146.099 175.399 146.199C175.199 146.199 175.099 146.399 174.899 146.299C173.999 145.899 173.399 146.499 172.699 146.599C171.999 146.799 171.299 146.899 170.699 147.299C170.299 147.499 169.999 147.999 169.599 147.999C169.399 147.999 169.299 148.399 168.999 147.899C168.899 147.799 168.899 148.199 168.799 148.299C168.499 148.399 168.199 148.499 167.999 148.599C167.599 148.699 167.199 148.799 166.799 148.999C166.599 149.099 166.399 149.399 166.199 149.599C165.999 149.699 165.699 149.799 165.499 149.899C165.199 149.899 164.799 149.899 164.499 149.899C164.199 149.899 163.899 150.299 163.499 150.199C162.699 149.999 162.299 150.399 161.699 150.599C161.099 150.799 160.599 150.999 160.099 151.399C159.799 151.599 159.299 151.299 158.999 151.399C158.899 151.399 157.999 150.299 157.799 149.799V149.599C157.799 148.999 157.799 148.199 158.199 148.099C158.799 147.899 159.299 147.599 159.799 147.399L159.899 147.899Z" fill="black"/>
<path d="M146.699 141.097C146.699 140.897 146.699 140.697 146.699 140.597C146.699 140.597 146.899 140.497 146.399 140.397C146.099 140.397 146.799 140.297 146.699 140.197C146.699 139.997 146.699 139.897 146.699 139.697C146.699 139.497 146.399 139.397 146.399 139.197C146.399 138.997 146.699 138.897 146.399 138.697C146.099 138.497 146.599 138.497 146.499 138.297C146.399 138.197 146.299 137.997 146.499 137.897C146.699 137.897 146.899 137.697 146.799 137.597C146.799 137.597 146.399 137.397 146.499 137.397C146.499 137.397 146.799 137.397 146.199 137.197C146.199 137.197 146.199 137.197 146.399 137.197C146.799 137.197 146.799 137.197 146.499 136.997C146.199 136.997 146.299 136.897 146.299 136.797C146.299 136.697 146.299 136.497 146.299 136.397C146.299 136.397 146.599 136.197 146.699 136.197C146.699 136.197 146.499 135.897 146.799 135.897C147.099 135.897 147.099 135.797 147.099 135.697C147.099 135.697 147.399 135.697 146.799 135.497C147.599 135.497 146.599 135.097 146.799 134.997C146.999 134.897 146.899 134.697 146.999 134.497C146.999 134.497 147.199 134.497 146.799 134.297C146.599 134.197 146.599 134.297 146.799 134.297C147.399 134.297 147.099 134.097 147.199 133.997C147.399 133.897 147.199 133.697 147.599 133.697C147.799 133.697 147.899 133.697 147.399 133.397C147.199 133.297 147.399 133.397 147.399 133.197L147.099 132.997C147.099 132.997 147.299 132.997 147.499 132.997C146.899 132.597 147.899 132.697 147.799 132.397C147.799 132.097 147.799 131.997 147.999 131.797C147.999 131.797 148.299 131.697 149.399 131.997C149.899 132.197 150.399 132.397 150.699 132.597C150.899 132.697 151.099 132.797 151.099 132.897C151.099 132.897 151.299 133.097 151.299 133.197C151.399 133.397 151.899 133.697 151.599 133.697C151.599 133.697 151.799 133.897 151.299 133.697C151.999 134.097 151.399 134.097 151.399 134.297C151.399 134.397 151.999 134.797 151.699 134.797C152.299 135.097 152.099 135.097 151.899 135.097C151.199 135.097 151.499 135.497 151.399 135.797C151.199 135.997 151.299 136.297 151.199 136.597C151.199 136.597 151.499 136.797 151.199 136.797C150.899 136.797 151.199 136.897 151.199 136.997C151.199 136.997 151.299 137.097 151.199 137.197C150.499 137.197 150.899 137.597 150.799 137.797C150.799 137.997 150.599 138.197 150.799 138.397C150.799 138.497 151.199 138.697 151.099 138.797C151.099 138.797 151.399 138.897 150.799 138.897C150.599 138.897 151.099 138.897 151.099 138.997C151.099 138.997 151.099 139.197 151.099 139.297C151.099 139.397 151.099 139.497 151.099 139.697L151.399 139.897V140.097C151.399 140.097 151.099 140.297 150.999 140.397C150.999 140.497 151.199 140.597 150.999 140.697C150.499 140.897 150.699 141.097 150.699 141.297C150.699 141.497 150.699 141.697 150.699 141.797C150.699 141.797 150.299 141.997 150.299 142.097C150.299 142.097 148.799 142.297 148.299 142.397H148.099C147.599 142.397 146.899 142.297 146.899 142.097C146.899 141.897 146.899 141.697 146.899 141.497L146.699 141.097Z" fill="black"/>
<path d="M157.1 141.898C157.1 141.698 157.1 141.498 157.1 141.398C157.1 141.398 157.3 141.298 156.8 141.198C156.5 141.198 157.2 141.098 157.1 140.998C157.1 140.798 157.1 140.698 157.1 140.498C157.1 140.298 156.8 140.198 156.8 139.998C156.8 139.798 157.1 139.698 156.8 139.498C156.5 139.298 157 139.298 156.9 139.098C156.8 138.998 156.7 138.798 156.9 138.698C157.1 138.698 157.3 138.498 157.2 138.398C157.2 138.398 156.8 138.198 156.9 138.198C156.9 138.198 157.2 138.198 156.6 137.998C156.6 137.998 156.6 137.998 156.8 137.998C157.2 137.998 157.2 137.998 156.9 137.798C156.6 137.798 156.7 137.698 156.7 137.598C156.7 137.498 156.7 137.298 156.7 137.198C156.7 137.198 157 136.998 157.1 136.998C157.1 136.998 156.9 136.698 157.2 136.698C157.5 136.698 157.5 136.598 157.5 136.498C157.5 136.498 157.8 136.498 157.2 136.298C158 136.298 157 135.898 157.2 135.798C157.4 135.698 157.3 135.498 157.4 135.298C157.4 135.298 157.6 135.298 157.2 135.098C157 134.998 157 135.098 157.2 135.098C157.8 135.098 157.5 134.898 157.6 134.798C157.8 134.698 157.6 134.498 158 134.498C158.2 134.498 158.3 134.498 157.8 134.198C157.6 134.098 157.8 134.198 157.8 133.998L157.5 133.798C157.5 133.798 157.7 133.798 157.9 133.798C157.3 133.398 158.3 133.498 158.2 133.198C158.2 132.898 158.2 132.798 158.4 132.598C158.4 132.598 158.7 132.498 159.8 132.798C160.3 132.998 160.8 133.198 161.1 133.398C161.3 133.498 161.5 133.598 161.5 133.698C161.5 133.698 161.7 133.898 161.7 133.998C161.8 134.198 162.3 134.498 162 134.498C162 134.498 162.2 134.698 161.7 134.498C162.4 134.898 161.8 134.898 161.8 135.098C161.8 135.198 162.4 135.598 162.1 135.598C162.7 135.898 162.5 135.898 162.3 135.898C161.6 135.898 161.9 136.298 161.8 136.598C161.6 136.798 161.7 137.098 161.6 137.398C161.6 137.398 161.9 137.598 161.6 137.598C161.3 137.598 161.6 137.698 161.6 137.798C161.6 137.798 161.7 137.898 161.6 137.998C160.9 137.998 161.3 138.398 161.2 138.598C161.2 138.798 161 138.998 161.2 139.198C161.2 139.298 161.6 139.498 161.5 139.598C161.5 139.598 161.8 139.698 161.2 139.698C161 139.698 161.5 139.698 161.5 139.798C161.5 139.798 161.5 139.998 161.5 140.098C161.5 140.198 161.5 140.298 161.5 140.498L161.8 140.698V140.898C161.8 140.898 161.5 141.098 161.4 141.198C161.4 141.298 161.6 141.398 161.4 141.498C160.9 141.698 161.1 141.898 161.1 142.098C161.1 142.298 161.1 142.498 161.1 142.598C161.1 142.598 160.7 142.798 160.7 142.898C160.7 142.898 159.2 143.098 158.7 143.198H158.5C158 143.198 157.3 143.098 157.3 142.898C157.3 142.698 157.3 142.498 157.3 142.298L157.1 141.898Z" fill="black"/>
<path d="M124.2 115.402C123.5 114.802 122.9 114.302 122.2 113.702C121.9 113.502 121.9 113.102 121.3 113.302C121 113.302 121.2 112.702 121 112.502C120.4 112.002 119.8 111.402 119.2 110.902C118.6 110.402 117.9 110.002 117.3 109.502C116.7 109.002 116.4 108.202 115.7 108.002C115.1 107.802 115 107.002 114.5 106.702C114 106.402 113.5 106.102 113.2 105.502C113 105.102 112.8 104.702 112.4 104.602C112.2 104.602 111.8 104.602 111.6 104.602C111.4 104.502 111.3 104.102 110.8 104.602C110.8 104.602 110.8 104.602 110.8 104.402C110.8 103.902 110.4 103.802 110.2 104.002C109.9 104.202 109.8 104.102 109.6 104.002C109.2 104.002 108.7 104.002 108.3 103.802C108.3 103.802 108.2 103.802 108.1 103.802C108.1 103.602 108.1 103.602 108 103.602C107.9 103.602 108 103.802 107.8 103.702C107.7 103.702 107.5 103.702 107.4 103.902C107.3 104.002 107.2 104.202 107.2 104.402C107.2 104.602 106.8 104.802 107.4 105.002C107.4 105.002 107.4 105.002 107.4 105.102C106.9 105.302 107 105.602 107.1 105.902C107.2 106.202 107.4 106.502 107.3 106.802C107.1 107.402 107.3 108.102 107.5 108.802C107.5 109.002 107.4 109.202 107.9 109.302C108.1 109.302 108.1 109.502 108 109.602C107.5 110.202 108 110.702 108 111.302C108 112.002 108.5 112.502 108.3 113.202C108.2 113.502 108.3 113.902 108.9 114.002C109.2 114.002 109.1 114.402 109.2 114.602C109.3 114.802 109.6 114.802 109.7 115.002C109.7 115.102 109.7 115.402 109.6 115.602V115.702C110.6 116.302 110.2 117.502 110.8 118.302C111.4 119.102 111.8 119.902 112.2 120.802C112.4 121.302 112.6 121.802 111.8 122.802C111.5 123.202 111 123.502 110.6 123.502C110.3 123.502 110 123.502 109.8 123.302C109.5 123.102 109.3 122.902 109 122.702C108.5 122.202 107.7 121.902 107.6 121.202C107.6 121.002 107.2 120.902 107.6 120.502V120.302C106.5 119.902 106.5 118.702 106.1 117.902C105.7 117.202 104.8 116.702 104.8 115.802C104 115.602 104 115.102 104 114.602C104.1 112.902 103.2 111.502 103 109.802C102.8 108.102 102.5 106.302 103 104.402C103 104.102 102.8 103.702 103.2 103.402C103.6 103.102 103.5 102.602 103.7 102.202C103.7 102.002 103.8 101.802 103.9 101.602C104 101.302 104.2 101.102 104.4 100.902C105.3 100.202 106.2 99.8016 107.2 99.5016C108.3 99.3016 108.9 99.3016 109.7 99.5016C111.2 99.8016 112.5 100.302 113.8 100.902C114.6 101.202 115.5 101.402 116.1 102.002C116.3 102.302 116.8 102.202 116.7 102.902C116.7 103.102 117.2 102.902 117.4 103.102C117.8 103.402 118.2 103.802 118.6 104.202C119.1 104.702 119.6 105.302 120.2 105.702C120.5 106.002 121 106.102 121.3 106.402C121.6 106.702 122 107.002 122.2 107.302C122.5 107.702 122.8 108.302 123.1 108.702C123.5 109.102 124.1 109.302 124.3 109.902C124.7 111.002 125.7 111.502 126.4 112.202C127.1 112.902 127.9 113.602 128.8 114.102C129.3 114.402 129.4 115.102 129.8 115.502C130 115.702 129.4 117.002 129 117.402L128.8 117.502C128.1 117.502 127.2 117.802 126.7 117.302C126 116.602 125.2 116.102 124.5 115.402H124.2Z" fill="black"/>
<path d="M156.999 111.798C156.699 111.098 156.399 110.398 156.099 109.798C155.999 109.598 156.099 109.198 155.499 109.198C155.199 109.198 155.699 108.698 155.499 108.498C155.199 107.898 154.999 107.298 154.599 106.698C154.299 106.098 153.799 105.698 153.399 105.198C153.099 104.698 152.999 103.998 152.399 103.598C151.899 103.298 152.099 102.598 151.699 102.298C151.299 101.898 150.899 101.498 150.799 100.998C150.799 100.598 150.699 100.198 150.399 99.8984C150.199 99.7984 149.799 99.7984 149.699 99.5984C149.599 99.3984 149.699 98.9984 148.999 99.2984C148.999 99.2984 148.999 99.1984 148.999 99.0984C149.199 98.5984 148.999 98.3984 148.599 98.3984C148.299 98.3984 148.199 98.2984 147.999 98.0984C147.599 97.6984 147.299 97.3984 146.899 96.8984C146.699 96.5984 146.499 96.0984 146.399 95.8984C146.399 95.7984 146.199 95.9984 146.299 95.6984C146.299 95.3984 146.099 95.3984 145.999 95.3984C145.999 95.3984 145.699 95.1984 145.999 95.7984C145.899 95.5984 145.799 95.5984 145.799 95.5984C145.799 95.5984 145.699 95.6984 145.699 95.8984C145.699 96.1984 145.699 96.3984 145.499 96.4984C144.999 96.7984 144.899 97.2984 144.699 97.7984C144.699 97.8984 144.399 97.9984 144.699 98.2984C144.799 98.3984 144.699 98.4984 144.699 98.5984C143.999 98.7984 144.199 99.2984 143.999 99.6984C143.799 100.198 143.999 100.698 143.499 101.098C143.299 101.298 143.099 101.598 143.699 101.898C143.999 101.998 143.699 102.298 143.699 102.498C143.699 102.698 143.999 102.798 143.999 102.998C143.999 103.098 143.799 103.298 143.699 103.398C143.699 103.398 143.699 103.398 143.699 103.498C144.399 104.198 143.699 105.098 143.899 105.898C144.199 106.698 144.299 107.498 144.399 108.398C144.399 108.898 144.399 109.398 143.299 109.998C142.799 110.298 142.299 110.398 141.899 110.198C141.599 110.198 141.399 109.998 141.299 109.798C141.099 109.598 140.999 109.298 140.799 109.098C140.499 108.598 139.899 108.098 139.999 107.498C139.999 107.298 139.699 107.098 140.199 106.898V106.798C139.299 106.098 139.699 105.198 139.599 104.398C139.499 103.698 138.799 102.998 139.099 102.198C138.499 101.798 138.599 101.198 138.799 100.798C139.599 99.3984 139.499 97.7984 140.299 96.2984C140.699 95.5984 141.099 94.8984 141.599 94.1984C141.799 93.8984 142.099 93.4984 142.399 93.1984C142.699 92.8984 143.099 92.5984 143.599 92.1984C143.899 91.9984 144.099 91.4984 144.699 91.5984C145.199 91.6984 145.699 91.3984 146.199 91.3984C146.699 91.3984 147.199 91.3984 147.599 91.6984C147.999 91.9984 148.299 92.2984 148.599 92.6984L149.399 93.4984C149.799 93.8984 150.199 94.1984 150.599 94.6984C151.299 95.5984 151.899 96.3984 152.699 97.1984C153.199 97.6984 153.899 97.9984 154.199 98.5984C154.299 98.8984 154.799 98.8984 154.399 99.4984C154.399 99.6984 154.799 99.5984 154.999 99.7984C155.299 100.198 155.499 100.598 155.799 100.998C156.099 101.498 156.399 102.098 156.799 102.598C156.999 102.898 157.399 103.098 157.699 103.498C157.899 103.798 158.099 104.198 158.299 104.598C158.499 105.098 158.499 105.698 158.699 106.098C158.899 106.598 159.299 106.998 159.299 107.498C159.299 108.498 159.799 109.298 160.099 110.098C160.399 110.898 160.799 111.698 161.299 112.398C161.599 112.798 161.299 113.398 161.599 113.798C161.699 113.998 160.599 114.998 160.099 115.198H159.899C159.199 114.998 158.399 114.998 158.099 114.398C157.699 113.598 157.299 112.798 156.899 112.098L156.999 111.798Z" fill="black"/>
<path d="M160.6 160.999C160.9 162.799 161.2 164.599 161.7 166.399C161.9 167.099 161.8 167.799 162.5 168.399C162.8 168.699 162.5 169.499 162.6 170.099C163.1 171.699 163.5 173.399 164.1 174.999C164.2 175.399 164.4 175.799 164.6 176.199L164.9 176.799C164.9 176.999 165 176.999 165.1 177.099C165.1 177.099 165.1 177.099 165.3 177.099H165.5C165.6 177.099 165.8 177.099 165.9 176.999H166H166.3H166.9C167.7 176.899 168.6 176.699 169.3 176.499C170.6 175.999 171.9 176.299 173.2 175.999C174.6 175.599 176 175.299 177.4 175.299C178.4 175.299 179.4 175.299 180.4 174.999C181 174.799 181.5 174.399 182.2 174.299C182.8 174.199 183.6 174.299 184 173.599C184 173.599 184.3 173.599 184.5 173.599C185.3 173.899 186.1 173.599 186.6 173.299C187.1 172.899 187.6 172.799 188.1 172.699C189.5 172.299 190.8 171.999 192.2 171.699C193.2 171.499 194.3 171.499 195.4 171.199C196.5 170.999 197.5 170.399 198.6 170.399C199.7 170.399 200.6 170.099 201.6 169.799C202.1 169.599 202.9 169.799 203.1 168.999C203.3 169.199 203.4 169.199 203.5 169.199C203.6 169.199 203.5 168.999 203.5 168.899C203.5 168.899 203.5 168.799 203.4 168.699C203.4 168.699 203.4 168.499 203.4 168.399C203.4 167.999 203.3 167.599 203.4 167.199C203.6 165.499 203.4 163.799 203.3 162.099C203.3 161.599 203.4 161.099 202.9 160.699C202.7 160.599 202.7 160.099 202.8 159.799C203.3 158.499 202.8 157.199 202.8 155.899C202.8 154.399 202.3 152.999 202.6 151.399C202.7 150.699 202.7 149.899 202 149.199C201.7 148.899 201.9 148.099 201.7 147.599C201.6 147.199 201.3 146.999 201.2 146.799C201.2 146.599 201.3 146.499 201.3 146.299C201.1 146.299 200.9 146.299 200.6 146.299L199.3 145.899C198.3 145.499 197.2 145.099 196.2 144.999C194 144.699 191.8 144.299 189.7 143.899C188.5 143.699 187.3 143.299 186.6 142.099C186.3 141.499 186.4 140.999 186.9 140.699C187.3 140.499 187.8 140.299 188.2 140.399C188.9 140.399 189.6 140.399 190.3 140.399C191.8 140.399 193.3 140.099 194.7 140.699C195.1 140.899 195.7 140.699 196 141.299C196 141.299 196.2 141.499 196.3 141.399C197.4 141.199 198.4 141.399 199.4 141.599C199.9 141.699 200.4 141.899 200.9 141.999C201.4 142.199 202 142.299 202.7 142.599C203.2 142.799 203.8 143.199 204.4 143.699C204.9 144.199 205.3 144.799 205.6 145.299C206.2 146.399 206.3 147.399 206.3 148.199C207.1 149.099 207.1 150.199 207 151.199C206.7 154.699 207.5 157.999 207.6 161.499L207.8 166.699V167.999V169.699C207.8 170.499 207.6 171.199 207.2 171.799C206.8 172.399 206.2 172.799 205.5 173.099C205.3 173.099 205 173.299 204.8 173.399L204.4 173.599C204.3 173.599 204.3 173.599 204.2 173.699C203.9 173.799 203.7 173.899 203.3 173.899C202.6 173.899 201.9 174.299 201.1 174.499C200.4 174.699 199.8 174.999 199.1 174.999C196.3 174.999 193.8 176.199 191.1 176.699C188.5 177.299 185.8 177.799 183.2 178.499C181.6 178.899 180.1 179.599 178.4 179.799C177.7 179.799 177 180.299 176.2 179.799C176 179.699 175.4 180.199 175 180.299C173.9 180.499 172.8 180.699 171.6 180.899C170 181.099 168.5 181.299 166.9 181.599L164.9 181.999C164.1 182.199 163.2 182.399 162.4 182.499C162.2 182.499 161.9 182.599 161.8 182.499L161.5 181.799L161 180.399C160.7 179.499 160.2 178.299 160.2 177.999C159.8 176.699 159.6 175.499 159.3 174.199C159 172.899 158.3 171.599 158.2 170.299C158.1 167.899 157.3 165.699 156.9 163.299C156.5 160.999 156.2 158.599 155.9 156.199C155.9 155.499 155.9 154.799 156 154.199C156.1 153.499 156.3 152.899 156.3 152.199C156.3 151.499 157.9 150.899 158.4 151.199C158.4 151.199 158.6 151.399 158.6 151.499C158.8 152.099 159 152.699 159.2 153.299C159.4 153.899 159.6 154.499 159.6 155.199C159.6 157.199 159.9 159.199 160.3 161.299L160.6 160.999Z" fill="black"/>
<path d="M176.9 168.1C176.9 167.9 176.9 167.8 176.7 167.6C176.7 167.6 176.9 167.4 176.4 167.6C176.1 167.6 176.7 167.4 176.7 167.3C176.6 167.2 176.7 167 176.5 166.9C176.4 166.8 176.1 166.7 176 166.6C175.9 166.5 176.1 166.2 175.8 166.2C175.5 166.2 175.9 165.9 175.8 165.8C175.6 165.8 175.5 165.6 175.8 165.4C175.9 165.3 176.1 165.1 176 165H175.6C175.6 165 175.8 164.8 175.2 165C175.2 165 175.2 165 175.3 165C175.7 164.8 175.6 164.8 175.3 164.8C175 164.8 175 164.8 175 164.8C175 164.7 174.9 164.6 174.9 164.4C174.9 164.3 175.1 164.1 175.1 164C175.1 163.9 174.8 163.9 175.1 163.7C175.4 163.5 175.3 163.4 175.3 163.3C175.3 163.3 175.5 163.1 174.9 163.3C175.7 162.9 174.6 163.1 174.7 162.9C174.9 162.7 174.7 162.6 174.7 162.4C174.7 162.4 174.8 162.3 174.4 162.4C174.2 162.4 174.2 162.4 174.4 162.4C175 162.1 174.6 162.1 174.6 162C174.6 161.8 174.4 161.8 174.8 161.5C175 161.4 175.1 161.3 174.5 161.4C174.2 161.4 174.5 161.4 174.5 161.3C174.5 161.3 174.2 161.3 174.1 161.3C174.1 161.3 174.3 161.2 174.4 161.1C173.7 161.1 174.5 160.6 174.3 160.5C174.1 160.3 174.1 160.1 174.1 159.9C174.1 159.8 174.3 159.6 175.4 159.3C175.9 159.2 176.4 159 176.8 159C177 159 177.3 159 177.3 159C177.4 159 177.5 159 177.7 159.1C177.9 159.1 178.5 159.1 178.2 159.4C178.2 159.4 178.4 159.4 177.9 159.6C178.7 159.6 178.2 159.9 178.3 160C178.3 160.1 179 160.1 178.8 160.3C179.4 160.3 179.3 160.3 179.2 160.5C178.6 161 179.2 161.1 179.2 161.4C179.2 161.7 179.4 162 179.4 162.3C179.4 162.3 179.8 162.3 179.5 162.4C179.3 162.5 179.5 162.5 179.5 162.6C179.5 162.6 179.7 162.6 179.5 162.8C178.9 163.2 179.4 163.3 179.4 163.6C179.4 163.8 179.4 164.1 179.6 164.3C179.7 164.4 180.1 164.4 180 164.6C180 164.6 180.3 164.6 179.8 164.9C179.6 164.9 180.1 164.9 180.1 164.9C180.1 164.9 180.1 165.1 180.2 165.2C180.2 165.3 180.2 165.5 180.3 165.6C180.3 165.6 180.6 165.6 180.7 165.7C180.7 165.7 180.8 165.8 180.7 165.9C180.7 166 180.5 166.2 180.5 166.3C180.5 166.4 180.8 166.5 180.5 166.6C180.1 167 180.4 167.1 180.5 167.3C180.5 167.5 180.5 167.7 180.7 167.9C180.8 167.9 180.4 168.3 180.4 168.4C180.4 168.4 179.1 169 178.6 169.2H178.4C177.9 169.2 177.2 169.4 177.2 169.2C177.2 169 177.1 168.8 177 168.6L176.9 168.1Z" fill="black"/>
<path d="M187 167.499C187 167.299 187 167.099 187 166.899C187 166.899 187.2 166.699 186.7 166.699C186.4 166.699 187.1 166.599 187 166.499C187 166.299 187 166.099 187 165.999C187 165.799 186.7 165.699 186.6 165.499C186.6 165.299 186.8 165.099 186.5 164.999C186.2 164.899 186.7 164.699 186.5 164.599C186.4 164.499 186.3 164.299 186.5 164.099C186.7 163.999 186.9 163.899 186.8 163.799C186.8 163.799 186.4 163.699 186.4 163.599C186.4 163.599 186.7 163.399 186.1 163.399C186.1 163.399 186.1 163.399 186.2 163.399C186.6 163.399 186.6 163.199 186.2 163.199C185.9 163.199 186 163.199 185.9 162.999C185.9 162.899 185.9 162.699 185.9 162.499C185.9 162.399 186.2 162.299 186.2 162.099C186.2 161.999 186 161.899 186.2 161.699C186.5 161.599 186.5 161.499 186.5 161.399C186.5 161.399 186.8 161.299 186.1 161.199C186.9 160.999 185.8 160.899 186.1 160.699C186.3 160.499 186.1 160.299 186.1 160.099C186.1 160.099 186.3 159.999 185.8 159.999C185.6 159.999 185.6 159.999 185.8 159.999C186.4 159.799 186 159.699 186.1 159.599C186.2 159.399 185.9 159.299 186.4 159.099C186.6 159.099 186.7 158.899 186.1 158.899C185.8 158.899 186.1 158.799 186.1 158.699C186.1 158.699 185.8 158.699 185.8 158.599C185.8 158.599 186 158.599 186.1 158.499C185.4 158.299 186.3 157.999 186.1 157.799C185.9 157.599 186 157.299 186.1 157.099C186.1 156.999 186.3 156.799 187.5 156.699C188 156.699 188.6 156.699 188.9 156.699C189.1 156.699 189.4 156.699 189.4 156.799C189.5 156.799 189.6 156.899 189.7 156.999C189.9 157.099 190.4 157.299 190.2 157.399C190.2 157.399 190.4 157.399 189.9 157.599C190.7 157.799 190.2 157.999 190.3 158.199C190.3 158.399 191 158.499 190.7 158.699C191.3 158.699 191.2 158.899 191 158.999C190.4 159.399 190.8 159.699 190.8 160.099C190.8 160.499 190.8 160.799 190.8 161.199C190.8 161.199 191.2 161.199 190.8 161.399C190.5 161.399 190.8 161.599 190.8 161.599C190.8 161.599 190.9 161.699 190.8 161.799C190.2 162.099 190.6 162.399 190.5 162.699C190.5 162.999 190.5 163.299 190.5 163.499C190.6 163.699 191 163.799 190.8 163.999C190.8 163.999 191.1 164.099 190.5 164.199C190.3 164.199 190.8 164.199 190.8 164.299C190.8 164.399 190.8 164.499 190.8 164.599C190.8 164.799 190.8 164.899 190.8 165.099C190.8 165.099 191.1 165.299 191.2 165.399C191.2 165.399 191.2 165.599 191.2 165.699C191.2 165.799 190.9 165.999 190.9 166.099C190.9 166.199 191.1 166.399 190.9 166.499C190.4 166.799 190.7 166.999 190.6 167.199C190.6 167.399 190.6 167.699 190.6 167.899C190.6 167.999 190.2 168.199 190.2 168.299C190.2 168.299 188.7 168.599 188.2 168.599H188C187.5 168.599 186.8 168.499 186.8 168.299C186.8 168.099 186.8 167.899 186.8 167.599L187 167.499Z" fill="black"/>
<path d="M171 187.299C171 187.099 171 186.899 171 186.699C171 186.699 171.3 186.599 170.7 186.399C170.4 186.399 171.1 186.399 171.1 186.299C171.1 186.099 171.1 185.899 171.1 185.699C171.1 185.499 170.9 185.299 170.8 185.099C170.8 184.899 171.1 184.799 170.8 184.599C170.5 184.399 171 184.299 170.9 184.199C170.8 183.999 170.7 183.899 170.9 183.699C171.1 183.699 171.3 183.499 171.2 183.399C171.2 183.399 170.8 183.199 170.9 183.199C170.9 183.199 171.2 183.099 170.6 182.999C170.6 182.999 170.6 182.999 170.8 182.999C171.2 182.999 171.2 182.899 170.9 182.799C170.6 182.799 170.7 182.699 170.7 182.599C170.7 182.399 170.7 182.299 170.7 182.099C170.7 181.999 171 181.899 171.1 181.799C171.1 181.699 170.9 181.499 171.2 181.399C171.5 181.399 171.5 181.199 171.5 181.099C171.5 181.099 171.8 180.999 171.2 180.899C172 180.799 171 180.499 171.2 180.399C171.4 180.199 171.2 179.999 171.2 179.799C171.2 179.799 171.4 179.799 170.9 179.599C170.7 179.599 170.7 179.599 170.9 179.599C171.5 179.499 171.2 179.299 171.3 179.199C171.4 178.999 171.1 178.899 171.6 178.699C171.8 178.699 171.9 178.499 171.3 178.399C171 178.399 171.3 178.299 171.3 178.199C171.3 178.199 171 178.099 171 177.999C171 177.999 171.2 177.999 171.3 177.899C170.6 177.599 171.5 177.399 171.3 177.199C171.1 176.999 171.3 176.699 171.3 176.499C171.3 176.399 171.5 176.199 172.7 176.199C173.2 176.199 173.8 176.199 174.1 176.199C174.3 176.199 174.6 176.199 174.6 176.299C174.7 176.299 174.8 176.499 174.9 176.499C175.1 176.699 175.6 176.799 175.3 176.999C175.3 176.999 175.5 177.099 175 177.099C175.8 177.299 175.3 177.599 175.3 177.799C175.3 177.999 176 178.199 175.7 178.399C176.3 178.499 176.2 178.699 176 178.699C175.3 178.999 175.7 179.399 175.6 179.799C175.5 180.199 175.6 180.599 175.5 180.899C175.5 180.899 175.8 180.999 175.5 181.099C175.2 181.099 175.5 181.299 175.5 181.299C175.5 181.299 175.6 181.499 175.5 181.499C174.8 181.799 175.2 182.099 175.1 182.399C175.1 182.699 174.9 182.999 175.1 183.299C175.1 183.499 175.5 183.699 175.4 183.899C175.4 183.899 175.7 184.099 175.1 184.099C174.9 184.099 175.4 184.199 175.4 184.299C175.4 184.399 175.4 184.599 175.4 184.699C175.4 184.899 175.4 184.999 175.4 185.199C175.4 185.299 175.7 185.399 175.7 185.599C175.7 185.699 175.7 185.799 175.7 185.899C175.7 185.999 175.4 186.099 175.3 186.299C175.3 186.399 175.5 186.599 175.2 186.699C174.7 186.899 174.9 187.199 174.8 187.399C174.8 187.599 174.6 187.899 174.8 188.199C174.8 188.399 174.3 188.399 174.3 188.599C174.3 188.599 172.8 188.599 172.3 188.399H172.1C171.7 188.199 171 187.999 171 187.799C171.1 187.599 171 187.399 171.1 187.099L171 187.299Z" fill="black"/>
<path d="M110.301 154.5C109.001 154.8 107.601 155.1 106.301 155.4C105.801 155.5 105.201 155.4 104.801 156C104.601 156.3 104.001 155.8 103.501 155.9C102.201 156.2 100.901 156.3 99.6008 156.5C98.3008 156.7 97.1008 157 95.8008 157.2C94.5008 157.3 93.2008 157 92.0008 157.4C90.9008 157.6 90.0008 157.1 88.9008 157.1C87.8008 157.1 86.7008 157.1 85.6008 156.7C84.9008 156.4 84.1008 156 83.3008 156C82.8008 156 82.3008 156.1 81.7008 156C81.2008 155.8 80.8008 155.4 80.1008 155.8C80.1008 155.8 79.9008 155.6 79.8008 155.5C79.4008 154.9 78.8008 154.6 78.2008 154.6C77.6008 154.6 77.3008 154.3 76.9008 154.1C76.6008 153.9 76.4008 153.7 76.1008 153.5C75.7008 153.2 75.3008 152.8 75.0008 152.4C74.3008 151.6 73.9008 150.7 73.8008 149.7C73.8008 149 73.8008 148.2 74.2008 147.6C74.5008 147 75.0008 146.4 75.6008 146C75.9008 145.8 76.1008 145.5 76.4008 145.3L76.9008 144.9C77.2008 144.6 77.6008 144.4 77.9008 144.2C78.7008 144 79.3008 143.5 79.9008 143.1C80.2008 142.8 80.8008 142.8 80.8008 142.1C80.8008 142.1 80.9008 141.9 81.0008 141.9C82.5008 141.9 82.9008 140.3 84.1008 139.8C85.3008 139.3 86.4008 138.5 87.5008 137.9C87.8008 137.7 88.2008 137.7 88.3008 137.2C88.3008 137 88.6008 136.8 88.9008 136.8C90.1008 136.9 90.8008 136.1 91.7008 135.8C92.8008 135.4 93.7008 134.7 94.9008 134.7C95.4008 134.7 96.1008 134.6 96.4008 133.8C96.6008 133.5 97.2008 133.5 97.5008 133.3C97.8008 133.1 98.0008 132.8 98.3008 132.7C98.6008 132.7 98.9008 132.7 99.2008 132.7C99.2008 132.7 99.4008 132.7 99.5008 132.7C100.901 131.6 102.701 131.9 104.301 131.4C105.901 130.8 107.601 130.5 109.201 130.3C110.101 130.2 111.101 130.3 111.901 131.3C112.201 131.8 112.301 132.3 111.901 132.7C111.701 133 111.401 133.3 111.101 133.4C110.601 133.6 110.101 133.8 109.701 134C108.701 134.4 107.901 135.1 106.801 135.1C106.501 135.1 106.201 135.5 105.801 135.1H105.601C104.401 136.2 102.901 136.1 101.601 136.6C100.501 137 99.6008 138 98.3008 138.2C97.9008 139 97.1008 139.2 96.4008 139.3C93.9008 139.6 92.0008 141 89.8008 142.1C87.6008 143.1 85.6008 144.5 83.6008 145.8C83.3008 146 83.2008 146.5 82.6008 146.6C82.1008 146.6 81.7008 147.2 81.3008 147.5C80.9008 147.8 80.6008 148.2 80.1008 148.4C79.6008 148.6 79.2008 148.8 78.8008 149C78.6008 149 78.5008 149.2 78.4008 149.3C78.2008 149.6 78.4008 149.9 78.6008 150.1C78.6008 150.1 78.6008 150.2 78.7008 150.3C78.7008 150.3 79.0008 150.5 79.1008 150.7C79.4008 150.9 79.8008 151.2 80.2008 151.4C80.9008 151.8 81.8008 152.1 82.6008 152.3C83.7008 152.5 84.8008 152.4 85.9008 152.8C86.4008 152.9 86.9008 152.7 87.3008 153.3C87.4008 153.5 87.9008 153.1 88.2008 153.1C89.0008 153.1 89.7008 153.2 90.5008 153.3C91.6008 153.3 92.7008 153.4 93.7008 153.3C94.4008 153.3 95.0008 153 95.7008 152.9C96.4008 152.8 97.1008 152.8 97.8008 152.7C98.7008 152.7 99.6008 152.8 100.501 152.7C101.401 152.7 102.301 152.2 103.201 152.3C104.901 152.5 106.501 151.9 108.101 151.6C109.701 151.3 111.401 151 112.901 150.4C113.801 150.1 114.801 150.4 115.701 150.1C116.101 150 117.001 151.3 117.001 151.8C117.001 151.9 117.001 152 116.901 152.1C116.101 152.8 115.501 153.7 114.501 153.9C113.001 154.2 111.501 154.6 110.001 155L110.301 154.5Z" fill="black"/>
<path d="M185.1 130.298C186.1 129.898 187 129.498 188 129.098C188.3 128.898 188.8 129.098 189 128.298C189 127.998 189.7 128.298 190 128.298C190.9 127.798 191.8 127.498 192.6 126.998C193.4 126.498 194.2 125.898 195 125.398C195.8 124.898 196.8 124.698 197.4 123.998C198 123.398 198.7 123.498 199.2 122.998C199.7 122.498 200 122.098 200.5 121.898C200.8 121.798 201.2 121.598 201.1 121.298C201.1 121.098 200.8 120.998 200.8 120.898C200.8 120.898 201 120.498 200.4 120.598C200.4 120.598 200.4 120.598 200.4 120.398C200.7 120.098 200.4 119.798 200.2 119.898C199.9 119.898 199.8 119.898 199.7 119.798C199.5 119.698 199.3 119.598 199.2 119.498L198.5 119.198C198.1 118.998 197.7 118.698 197.2 118.598C196.7 118.498 196.1 118.798 195.5 118.398C194.9 118.098 194.4 118.098 193.8 118.098C193.5 118.098 193.1 117.798 192.9 118.498C192.9 118.498 192.8 118.498 192.7 118.498C191.8 117.698 190.9 118.798 190 118.698C189 118.598 188.1 118.698 187.1 118.898C186.8 118.898 186.6 118.798 186.4 119.298C186.4 119.498 186.1 119.498 185.9 119.398C185.1 118.898 184.4 119.398 183.7 119.398C182.9 119.398 182.1 119.798 181.2 119.498C180.8 119.398 180.3 119.398 180 119.998C179.9 120.298 179.4 120.098 179.1 120.298C178.9 120.398 178.7 120.698 178.5 120.798C178.3 120.798 178 120.698 177.8 120.598C177.8 120.598 177.7 120.598 177.6 120.598C176.6 121.498 175.2 120.998 174.1 121.498C173 121.998 171.8 122.298 170.6 122.698C169.9 122.898 169.2 122.998 168.4 122.098C168 121.698 167.8 121.198 168 120.798C168.1 120.498 168.3 120.198 168.5 120.098C168.8 119.898 169.2 119.598 169.5 119.398C170.2 118.898 170.8 118.198 171.7 118.198C172 118.198 172.2 117.798 172.6 118.198H172.8C173.7 117.098 175 117.298 176.1 116.898C177 116.598 177.8 115.798 178.9 115.798C179.3 115.098 180 114.998 180.6 115.098C182.7 115.398 184.5 114.598 186.5 114.498C188.5 114.398 190.5 114.098 192.5 114.098C192.8 114.098 193.1 113.698 193.5 113.998C193.9 114.298 194.4 113.998 194.8 113.998C195.2 113.998 195.6 113.898 196 113.998C196.8 114.298 197.6 114.498 198.5 114.598C199.4 114.698 200.3 114.898 201.2 115.398C202.1 115.898 202.9 116.498 203.6 117.298C204.3 118.098 204.8 119.098 205.1 120.198C205.3 120.898 205.3 121.698 205.2 122.398C205.1 123.098 204.8 123.798 204.4 124.398C204 124.798 203.9 125.498 203.1 125.398C202.9 125.398 202.8 125.998 202.6 126.198C202 126.698 201.4 127.098 200.8 127.398C200 127.898 199.2 128.298 198.4 128.698C197.9 128.998 197.6 129.498 197.1 129.798C196.6 130.098 196.1 130.398 195.6 130.598C194.9 130.898 194.2 130.998 193.5 131.198C192.8 131.498 192.2 132.098 191.4 132.098C190 132.098 188.9 132.998 187.6 133.398C186.3 133.898 185.1 134.298 183.9 134.898C183.2 135.198 182.4 134.898 181.7 135.198C181.4 135.298 180.5 134.098 180.4 133.598C180.4 133.598 180.4 133.398 180.4 133.298C180.9 132.598 181.3 131.698 182 131.498C183.1 131.198 184.2 130.698 185.3 130.198L185.1 130.298Z" fill="black"/>
</svg>
