<svg width="300" height="300" viewBox="0 0 300 300" fill="none" xmlns="http://www.w3.org/2000/svg">
<path d="M183.701 140.601C183.301 140.101 182.901 139.601 182.401 139.201C182.201 139.001 182.201 138.701 181.701 138.901C181.401 138.901 181.701 138.401 181.601 138.201C181.101 137.801 180.801 137.301 180.301 136.901C179.901 136.501 179.301 136.201 178.901 135.901C178.501 135.501 178.301 134.901 177.701 134.701C177.201 134.501 177.201 133.901 176.801 133.601C176.401 133.301 176.001 133.001 175.801 132.501C175.701 132.101 175.601 131.701 175.301 131.501C175.101 131.401 174.701 131.501 174.601 131.301C174.501 131.101 174.501 130.801 173.901 131.001C173.901 131.001 173.901 130.901 173.901 130.801C174.001 130.301 173.901 130.201 173.501 130.201C173.201 130.201 173.101 130.101 172.901 130.001C172.501 129.701 172.201 129.301 171.901 128.901C171.701 128.601 171.601 128.201 171.401 127.901C171.201 127.601 170.701 127.501 170.701 127.001C170.701 126.501 170.401 126.301 170.201 126.001C170.101 125.901 170.201 125.501 169.501 125.801C169.701 124.801 168.501 125.201 168.301 124.601C168.101 124.001 167.501 123.701 167.101 123.301C167.001 123.201 167.101 122.901 166.601 123.101C166.401 123.101 166.301 123.101 166.301 122.901C166.501 122.101 165.901 122.101 165.601 121.701C165.301 121.201 164.801 121.101 164.801 120.301C164.801 120.001 164.701 119.701 164.101 119.901C163.801 119.901 163.801 119.601 163.701 119.501C163.601 119.501 163.301 119.501 163.101 119.401C163.101 119.401 163.101 119.101 163.101 118.901C162.101 118.901 162.301 117.701 161.601 117.401C161.001 117.101 160.501 116.601 160.101 116.201C159.801 116.001 159.701 115.601 160.001 114.501C160.101 114.001 160.401 113.501 160.701 113.301C160.901 113.201 161.201 113.001 161.401 113.101C161.701 113.101 162.001 113.101 162.201 113.301C162.801 113.401 163.501 113.301 163.801 114.001C163.801 114.201 164.201 114.001 164.001 114.601V114.701C165.101 114.701 165.301 115.501 165.801 116.001C166.301 116.401 167.101 116.401 167.301 117.001C168.001 116.801 168.201 117.201 168.201 117.501C168.501 118.801 169.601 119.301 170.301 120.301C171.001 121.201 171.901 122.001 172.701 122.901C172.801 123.101 173.201 122.901 173.201 123.301C173.201 123.601 173.501 123.701 173.701 123.901C173.901 124.101 174.101 124.201 174.201 124.401C174.301 125.501 175.301 125.901 175.801 126.701C176.401 127.401 177.001 128.101 177.701 128.701C178.201 129.001 178.801 129.201 179.101 129.701C179.201 129.901 179.601 129.901 179.401 130.401C179.401 130.601 179.801 130.401 179.901 130.501C180.201 130.701 180.401 131.101 180.701 131.301C181.101 131.701 181.401 132.101 181.801 132.501C182.001 132.701 182.401 132.801 182.701 133.001C183.001 133.201 183.201 133.501 183.401 133.701C183.601 134.101 183.801 134.501 184.001 134.901C184.301 135.301 184.801 135.401 184.901 135.901C185.101 136.801 185.801 137.201 186.301 137.901C186.801 138.501 187.301 139.101 187.901 139.601C188.301 139.901 188.201 140.501 188.501 140.801C188.601 140.901 187.801 142.201 187.301 142.401H187.101C186.501 142.401 185.701 142.601 185.401 142.201C185.001 141.601 184.401 141.101 183.901 140.601H183.701Z" fill="black"/>
<path d="M166.101 147.302C166.501 147.102 166.801 147.002 167.201 146.702C167.301 146.702 167.601 146.702 167.501 146.202C167.501 145.902 167.901 146.402 168.001 146.402C168.301 146.202 168.701 146.102 169.001 145.902C169.301 145.702 169.501 145.302 169.801 145.102C170.101 144.902 170.601 145.102 170.801 144.602C171.001 144.202 171.401 144.602 171.601 144.302C171.801 144.102 172.101 143.902 172.501 144.002C172.801 144.002 173.101 144.202 173.201 144.002C173.201 143.902 173.201 143.502 173.401 143.502C173.501 143.502 173.801 143.702 173.701 143.002C173.701 143.002 173.701 143.002 173.901 143.002C174.201 143.302 174.401 143.202 174.401 143.002C174.401 142.702 174.501 142.702 174.601 142.602C174.901 142.502 175.201 142.302 175.501 142.302C175.701 142.302 176.001 142.302 176.301 142.302C176.501 142.302 176.701 141.902 177.001 142.102C177.301 142.302 177.501 142.202 177.701 142.102C177.801 142.102 178.101 142.302 177.901 141.602C178.501 142.302 178.501 141.102 178.901 141.202C179.301 141.202 179.601 141.002 180.001 140.902C180.001 140.902 180.301 141.002 180.201 140.502C180.201 140.302 180.201 140.302 180.401 140.402C180.901 140.902 181.001 140.402 181.301 140.402C181.601 140.402 181.901 140.002 182.301 140.402C182.501 140.602 182.701 140.602 182.701 140.002C182.701 139.702 182.901 140.002 183.001 139.802C183.001 139.802 183.001 139.402 183.201 139.402C183.201 139.402 183.401 139.602 183.501 139.702C183.801 138.902 184.501 139.702 184.901 139.302C185.301 139.002 185.801 138.902 186.301 138.902C186.601 138.902 186.901 138.902 187.401 140.002C187.601 140.502 187.801 141.002 187.701 141.402C187.701 141.702 187.701 141.902 187.601 142.002C187.501 142.102 187.401 142.302 187.301 142.402C187.101 142.702 186.901 143.302 186.601 143.102C186.501 143.102 186.501 143.402 186.201 142.902C186.001 143.802 185.501 143.402 185.101 143.602C184.801 143.802 184.601 144.502 184.201 144.302C184.201 145.002 184.001 144.902 183.701 144.802C182.801 144.402 182.301 145.002 181.601 145.202C180.901 145.302 180.301 145.702 179.601 145.902C179.501 145.902 179.601 146.302 179.301 146.102C179.101 145.902 179.001 146.102 178.801 146.202C178.701 146.202 178.601 146.402 178.401 146.302C177.601 145.902 177.301 146.502 176.701 146.602C176.201 146.702 175.601 146.902 175.201 147.302C174.901 147.502 174.801 148.002 174.401 148.002C174.201 148.002 174.201 148.402 173.901 147.902C173.801 147.802 173.901 148.202 173.801 148.302C173.601 148.402 173.401 148.502 173.201 148.602C172.901 148.702 172.601 148.802 172.301 149.002C172.101 149.102 172.101 149.402 171.901 149.602C171.701 149.702 171.601 149.802 171.301 149.902C171.001 149.902 170.701 149.902 170.401 149.902C170.101 149.902 170.001 150.302 169.601 150.202C168.901 150.002 168.601 150.402 168.201 150.602C167.701 150.802 167.301 150.902 166.901 151.302C166.701 151.502 166.201 151.202 166.001 151.302C165.901 151.302 165.101 150.102 164.901 149.702V149.502C164.901 149.002 164.801 148.202 165.101 148.102C165.501 148.002 165.901 147.702 166.301 147.502L166.101 147.302Z" fill="black"/>
<path d="M168.602 166.202C168.602 165.902 168.502 165.502 168.302 165.202C168.302 165.102 168.502 164.902 167.902 164.902C167.602 164.902 168.202 164.602 168.202 164.502C168.102 164.202 168.102 163.902 167.902 163.602C167.802 163.302 167.502 163.102 167.302 162.802C167.202 162.502 167.302 162.102 167.002 161.902C166.702 161.702 167.102 161.402 167.002 161.202C166.802 161.002 166.702 160.702 166.802 160.402C166.902 160.202 167.102 160.002 166.902 159.802C166.902 159.802 166.502 159.702 166.502 159.602C166.502 159.502 166.702 159.302 166.102 159.302C166.102 159.302 166.102 159.302 166.202 159.202C166.602 159.002 166.502 158.802 166.202 158.802C165.902 158.802 165.902 158.702 165.902 158.602C165.902 158.402 165.702 158.102 165.702 157.902C165.702 157.702 165.902 157.502 165.902 157.302C165.902 157.102 165.602 157.002 165.902 156.702C166.202 156.402 166.102 156.302 166.002 156.102C166.002 156.102 166.202 155.802 165.602 155.902C166.302 155.402 165.202 155.402 165.302 155.102C165.402 154.802 165.302 154.502 165.102 154.202C165.102 154.202 165.202 154.002 164.802 154.002C164.602 154.002 164.602 154.002 164.702 153.902C165.202 153.502 164.802 153.402 164.902 153.102C164.902 152.802 164.602 152.602 164.902 152.202C165.102 152.002 165.102 151.902 164.502 151.902C164.202 151.902 164.502 151.702 164.402 151.602C164.402 151.602 164.002 151.602 164.002 151.502C164.002 151.502 164.202 151.302 164.302 151.202C163.602 151.002 164.302 150.402 164.002 150.102C163.702 149.802 163.702 149.402 163.602 149.002C163.602 148.802 163.602 148.502 164.702 148.002C165.202 147.802 165.702 147.602 166.002 147.602C166.202 147.602 166.502 147.602 166.602 147.602C166.702 147.602 166.902 147.802 167.002 147.902C167.302 148.102 167.902 148.202 167.702 148.502C167.702 148.602 168.002 148.602 167.502 148.802C168.402 148.902 168.002 149.402 168.102 149.802C168.202 150.102 168.902 150.202 168.702 150.602C169.402 150.602 169.302 150.802 169.202 151.002C168.702 151.802 169.302 152.202 169.402 152.902C169.402 153.502 169.702 154.102 169.802 154.702C169.802 154.802 170.202 154.802 170.002 155.002C169.802 155.202 170.002 155.302 170.002 155.402C170.002 155.502 170.202 155.602 170.002 155.802C169.502 156.402 170.002 156.802 170.002 157.302C170.002 157.802 170.002 158.302 170.402 158.702C170.602 159.002 171.002 159.202 170.902 159.502C170.902 159.602 171.202 159.702 170.702 159.902C170.502 159.902 171.002 159.902 171.102 160.102C171.102 160.302 171.202 160.502 171.302 160.702C171.302 161.002 171.302 161.302 171.502 161.502C171.502 161.702 171.902 161.802 172.002 161.902C172.102 162.102 172.102 162.202 172.102 162.402C172.102 162.602 171.902 162.902 171.902 163.102C171.902 163.302 172.202 163.502 172.002 163.802C171.602 164.302 172.002 164.702 172.002 165.102C172.002 165.502 172.102 165.902 172.302 166.302C172.402 166.502 172.002 166.802 172.102 167.102C172.102 167.102 170.702 167.702 170.202 167.802H170.002C169.502 167.802 168.702 167.802 168.702 167.402C168.702 167.002 168.502 166.702 168.402 166.302L168.602 166.202Z" fill="black"/>
<path d="M162.2 186.203C162.3 185.803 162.5 185.403 162.5 185.003C162.5 184.803 162.8 184.803 162.4 184.503C162.2 184.303 162.8 184.403 162.8 184.203C162.8 183.803 163.1 183.503 163.1 183.103C163.1 182.703 163.1 182.303 163.1 181.903C163.1 181.503 163.6 181.303 163.4 180.803C163.2 180.403 163.8 180.303 163.8 180.003C163.8 179.703 163.8 179.303 164.1 179.103C164.3 178.903 164.6 178.803 164.6 178.603C164.6 178.403 164.3 178.203 164.4 178.103C164.4 178.003 164.8 177.903 164.2 177.603C164.2 177.603 164.2 177.603 164.4 177.603C164.8 177.603 164.9 177.403 164.6 177.203C164.4 177.003 164.5 176.903 164.5 176.803C164.5 176.503 164.6 176.203 164.8 175.903C164.9 175.703 165.2 175.603 165.4 175.403C165.5 175.203 165.4 174.903 165.7 174.703C166.1 174.603 166.1 174.403 166.2 174.203C166.2 174.103 166.6 174.003 166 173.703C166.9 173.703 166 173.003 166.3 172.703C166.6 172.403 166.6 172.003 166.7 171.703C166.7 171.703 166.9 171.603 166.5 171.303C166.4 171.303 166.4 171.103 166.5 171.103C167.2 171.103 166.9 170.603 167.1 170.403C167.3 170.103 167.1 169.703 167.7 169.603C167.9 169.603 168.1 169.403 167.6 169.103C167.4 168.903 167.6 168.903 167.6 168.803C167.6 168.703 167.3 168.503 167.4 168.403C167.4 168.403 167.7 168.403 167.8 168.303C167.3 167.703 168.3 167.503 168.2 167.003C168.2 166.703 168.2 166.603 168.2 166.303C168.2 166.003 168.4 165.703 168.6 165.303C168.8 164.903 169.3 164.503 170.4 165.103C170.9 165.303 171.3 165.703 171.5 166.003C171.6 166.203 171.8 166.403 171.8 166.503C171.8 166.603 171.9 166.803 172 166.903C172.1 167.103 172.6 167.403 172.2 167.703C172.1 167.703 172.3 168.003 171.8 167.903C172.5 168.503 171.8 168.903 171.8 169.303C171.8 169.703 172.2 170.203 171.8 170.503C172.3 170.903 172.2 171.103 171.9 171.203C171 171.703 171.2 172.503 170.9 173.203C170.6 173.903 170.4 174.603 170.1 175.303C170.1 175.403 170.4 175.603 170.1 175.703C169.8 175.703 169.9 176.003 169.9 176.103C169.9 176.203 169.9 176.403 169.7 176.503C168.9 176.803 169.1 177.503 168.8 178.003C168.5 178.503 168.3 179.003 168.3 179.603C168.3 180.003 168.5 180.403 168.3 180.703C168.2 180.803 168.5 181.103 167.9 181.003C167.7 181.003 168.1 181.303 168.1 181.403C168.1 181.603 168 181.903 167.9 182.103C167.8 182.403 167.6 182.703 167.6 183.103C167.6 183.303 167.7 183.603 167.7 183.803C167.7 184.003 167.7 184.203 167.5 184.403C167.3 184.603 167.1 184.803 166.9 185.103C166.8 185.303 166.9 185.703 166.6 185.903C166 186.203 166.1 186.803 165.9 187.203C165.7 187.603 165.5 188.103 165.5 188.603C165.5 188.903 165 189.003 164.9 189.203C164.9 189.303 163.4 189.203 162.9 189.003H162.7C162.3 188.603 161.7 188.203 161.8 187.903C162 187.403 162.1 187.003 162.2 186.503V186.203Z" fill="black"/>
<path d="M151.001 135.801C151.001 136.001 150.901 136.101 150.901 136.301C150.901 136.301 150.601 136.301 151.101 136.601C151.401 136.601 150.701 136.601 150.701 136.601C150.701 136.801 150.701 136.901 150.701 137.101C150.701 137.301 150.901 137.501 150.901 137.601C150.901 137.801 150.601 137.901 150.901 138.101C151.201 138.301 150.601 138.301 150.701 138.401C150.801 138.601 150.901 138.701 150.701 138.801C150.501 138.801 150.301 138.901 150.401 139.001C150.401 139.001 150.801 139.201 150.701 139.201C150.701 139.201 150.401 139.201 151.001 139.401C151.001 139.401 151.001 139.401 150.801 139.401C150.401 139.401 150.401 139.401 150.701 139.601C151.001 139.601 150.901 139.701 150.901 139.801C150.901 139.901 150.901 140.101 150.901 140.201C150.901 140.201 150.601 140.401 150.501 140.501C150.501 140.501 150.701 140.701 150.401 140.801C150.101 140.801 150.101 141.001 150.101 141.101C150.101 141.101 149.801 141.201 150.401 141.301C149.601 141.401 150.601 141.601 150.401 141.801C150.201 142.001 150.401 142.101 150.401 142.301C150.401 142.301 150.201 142.301 150.701 142.401C150.901 142.401 150.901 142.401 150.701 142.401C150.101 142.501 150.501 142.601 150.301 142.801C150.201 142.901 150.501 143.101 150.001 143.201C149.801 143.201 149.701 143.401 150.301 143.401C150.601 143.401 150.301 143.501 150.301 143.601C150.301 143.601 150.601 143.601 150.601 143.701C150.601 143.701 150.401 143.701 150.301 143.801C151.001 144.001 150.101 144.201 150.301 144.401C150.501 144.601 150.401 144.801 150.301 145.001C150.301 145.101 150.101 145.301 148.901 145.401C148.401 145.401 147.801 145.501 147.501 145.501C147.301 145.501 147.001 145.501 147.001 145.501C146.901 145.501 146.801 145.401 146.701 145.301C146.501 145.201 145.901 145.101 146.201 144.901C146.201 144.901 146.001 144.901 146.501 144.701C145.701 144.501 146.201 144.301 146.101 144.101C146.101 143.901 145.401 143.801 145.701 143.601C145.101 143.601 145.201 143.401 145.401 143.301C146.101 142.901 145.601 142.601 145.701 142.201C145.701 141.801 145.701 141.501 145.701 141.101C145.701 141.101 145.401 141.001 145.701 140.901C146.001 140.901 145.701 140.701 145.701 140.701C145.701 140.701 145.601 140.501 145.701 140.501C146.401 140.301 146.001 139.901 146.101 139.701C146.201 139.401 146.301 139.101 146.101 138.801C146.101 138.601 145.701 138.401 145.901 138.201C145.901 138.201 145.601 138.001 146.201 138.001C146.401 138.001 145.901 137.901 145.901 137.801C145.901 137.701 145.901 137.601 145.901 137.401C145.901 137.201 146.001 137.101 145.901 136.901C145.901 136.801 145.701 136.601 145.601 136.501C145.601 136.401 145.601 136.301 145.601 136.201C145.701 136.101 145.901 136.001 146.001 135.901C146.001 135.801 145.901 135.601 146.201 135.501C146.801 135.401 146.601 135.101 146.701 134.801C146.801 134.601 146.901 134.401 146.901 134.101C146.901 133.901 147.401 134.001 147.401 133.801C147.401 133.801 148.901 134.101 149.301 134.201H149.501C149.901 134.501 150.601 134.801 150.501 134.901C150.401 135.101 150.401 135.301 150.301 135.501L151.001 135.801Z" fill="black"/>
<path d="M162.302 135.801C162.302 136.001 162.202 136.101 162.202 136.301C162.202 136.301 161.902 136.301 162.402 136.601C162.702 136.601 162.002 136.601 162.002 136.601C162.002 136.801 162.002 136.901 162.002 137.101C162.002 137.301 162.202 137.501 162.202 137.601C162.202 137.801 161.902 137.901 162.202 138.101C162.502 138.301 161.902 138.301 162.002 138.401C162.102 138.601 162.202 138.701 162.002 138.801C161.802 138.801 161.602 138.901 161.702 139.001C161.702 139.001 162.102 139.201 162.002 139.201C162.002 139.201 161.702 139.201 162.302 139.401C162.302 139.401 162.302 139.401 162.102 139.401C161.702 139.401 161.702 139.401 162.002 139.601C162.302 139.601 162.202 139.701 162.202 139.801C162.202 139.901 162.202 140.101 162.202 140.201C162.202 140.201 161.902 140.401 161.802 140.501C161.802 140.501 162.002 140.701 161.702 140.801C161.402 140.801 161.402 141.001 161.402 141.101C161.402 141.101 161.102 141.201 161.702 141.301C160.902 141.401 161.902 141.601 161.702 141.801C161.502 142.001 161.702 142.101 161.702 142.301C161.702 142.301 161.502 142.301 162.002 142.401C162.202 142.401 162.202 142.401 162.002 142.401C161.402 142.501 161.802 142.601 161.602 142.801C161.502 142.901 161.802 143.101 161.302 143.201C161.102 143.201 161.002 143.401 161.602 143.401C161.902 143.401 161.602 143.501 161.602 143.601C161.602 143.601 161.902 143.601 161.902 143.701C161.902 143.701 161.702 143.701 161.602 143.801C162.302 144.001 161.402 144.201 161.602 144.401C161.802 144.601 161.702 144.801 161.602 145.001C161.602 145.101 161.402 145.301 160.202 145.401C159.702 145.401 159.102 145.501 158.802 145.501C158.602 145.501 158.302 145.501 158.302 145.501C158.202 145.501 158.102 145.401 158.002 145.301C157.802 145.201 157.202 145.101 157.502 144.901C157.502 144.901 157.302 144.901 157.802 144.701C157.002 144.501 157.502 144.301 157.402 144.101C157.402 143.901 156.702 143.801 157.002 143.601C156.402 143.601 156.502 143.401 156.702 143.301C157.402 142.901 156.902 142.601 157.002 142.201C157.002 141.801 157.002 141.501 157.002 141.101C157.002 141.101 156.702 141.001 157.002 140.901C157.302 140.901 157.002 140.701 157.002 140.701C157.002 140.701 156.902 140.501 157.002 140.501C157.702 140.301 157.302 139.901 157.402 139.701C157.502 139.401 157.602 139.101 157.402 138.801C157.402 138.601 157.002 138.401 157.202 138.201C157.202 138.201 156.902 138.001 157.502 138.001C157.702 138.001 157.202 137.901 157.202 137.801C157.202 137.701 157.202 137.601 157.202 137.401C157.202 137.201 157.302 137.101 157.202 136.901C157.202 136.801 157.002 136.601 156.902 136.501C156.902 136.401 156.902 136.301 156.902 136.201C157.002 136.101 157.202 136.001 157.302 135.901C157.302 135.801 157.202 135.601 157.502 135.501C158.102 135.401 157.902 135.101 158.002 134.801C158.102 134.601 158.202 134.401 158.202 134.101C158.202 133.901 158.702 134.001 158.702 133.801C158.702 133.801 160.202 134.101 160.602 134.201H160.802C161.202 134.501 161.902 134.801 161.802 134.901C161.702 135.101 161.702 135.301 161.602 135.501L162.302 135.801Z" fill="black"/>
<path d="M162.601 169.701C162.401 169.701 162.101 169.801 161.901 169.901C161.901 169.901 161.701 169.701 161.701 170.301C161.701 170.601 161.501 170.001 161.401 170.001C161.201 170.101 160.901 170.001 160.701 170.201C160.501 170.201 160.301 170.601 160.001 170.601C159.801 170.601 159.501 170.401 159.301 170.701C159.101 171.001 158.901 170.501 158.701 170.701C158.501 170.801 158.301 170.901 158.101 170.701C158.001 170.501 157.801 170.301 157.701 170.401C157.701 170.401 157.501 170.801 157.401 170.701C157.401 170.701 157.201 170.401 157.101 171.001C157.101 171.001 157.101 171.001 157.101 170.801C157.101 170.401 156.901 170.401 156.801 170.701C156.701 171.001 156.601 170.901 156.501 170.901C156.301 170.901 156.101 170.901 155.901 170.901C155.801 170.901 155.701 170.601 155.501 170.501C155.401 170.501 155.101 170.701 155.101 170.301C155.101 170.001 154.901 169.901 154.801 169.901C154.801 169.901 154.801 169.601 154.501 170.201C154.501 169.401 154.001 170.301 153.801 170.001C153.601 169.701 153.401 169.801 153.101 169.701C153.101 169.701 153.101 169.501 152.801 169.901C152.801 170.001 152.601 170.001 152.701 169.901C152.701 169.201 152.501 169.501 152.301 169.401C152.201 169.201 151.801 169.401 151.901 168.801C151.901 168.601 151.901 168.401 151.501 168.801C151.301 169.001 151.401 168.801 151.301 168.801L151.001 169.001C151.001 169.001 151.001 168.701 151.001 168.601C150.401 169.001 150.601 168.101 150.301 168.001C149.901 168.001 149.701 167.701 149.501 167.401C149.501 167.201 149.401 167.001 150.101 166.101C150.401 165.701 150.801 165.301 151.101 165.101C151.301 165.001 151.501 164.801 151.601 164.801C151.701 164.801 151.901 164.801 152.001 164.701C152.201 164.701 152.701 164.301 152.601 164.701C152.601 164.701 152.801 164.601 152.601 165.001C153.201 164.501 153.101 165.001 153.301 165.001C153.501 165.001 153.901 164.601 153.901 165.001C154.301 164.501 154.301 164.601 154.301 164.801C154.301 165.501 154.801 165.301 155.001 165.501C155.301 165.701 155.601 165.701 155.901 165.901C155.901 165.901 156.101 165.601 156.101 165.901C156.101 166.201 156.201 165.901 156.301 166.001H156.501C156.601 166.701 157.001 166.401 157.201 166.501C157.501 166.501 157.701 166.701 158.001 166.501C158.201 166.501 158.301 166.101 158.501 166.201C158.501 166.201 158.601 165.901 158.701 166.501C158.701 166.701 158.701 166.201 158.801 166.201C158.901 166.201 159.001 166.201 159.101 166.201C159.201 166.201 159.401 166.201 159.501 166.201C159.501 166.201 159.701 165.901 159.701 165.801C159.701 165.801 159.901 165.801 160.001 165.801C160.101 165.801 160.301 166.001 160.401 166.101C160.501 166.101 160.601 165.801 160.801 166.101C161.101 166.501 161.301 166.201 161.501 166.201C161.701 166.201 162.001 166.201 162.101 166.001C162.101 165.901 162.501 166.301 162.601 166.301C162.601 166.301 163.301 167.601 163.501 168.101V168.301C163.501 168.801 163.701 169.501 163.501 169.501C163.201 169.501 162.901 169.701 162.701 169.801L162.601 169.701Z" fill="black"/>
<path d="M127.8 166.299C127 166.299 126.1 166.199 125.3 166.099C125 166.099 124.7 165.799 124.3 166.299C124.1 166.499 123.9 165.899 123.6 165.799C122.8 165.799 122 165.399 121.2 165.199C120.4 164.999 119.6 164.899 118.8 164.599C118 164.299 117.5 163.599 116.6 163.299C115.8 163.099 115.7 162.299 115.1 161.899C114.5 161.499 113.9 160.899 113.7 160.199C113.5 159.699 113.5 159.099 113.2 158.699C113 158.399 112.6 158.299 112.5 157.899C112.5 157.599 112.5 157.099 111.9 156.999C111.9 156.999 111.9 156.799 111.9 156.699C112.2 156.199 112.1 155.799 111.9 155.599C111.6 155.299 111.6 155.099 111.6 154.799C111.6 153.999 111.6 153.299 111.6 152.499C111.7 151.999 112 151.499 112.2 150.999C112.4 150.499 112.2 149.799 112.7 149.399C113.1 148.999 113.3 148.599 113.5 148.099C113.6 147.799 114 147.699 113.5 147.099C113.5 147.099 113.5 146.999 113.5 146.899C114.1 146.699 114.2 146.299 114.4 145.899C114.6 145.499 114.7 144.899 115.2 144.699C116.1 144.199 116.9 143.499 117.9 143.099C118.2 143.099 118.5 143.099 118.6 142.599C118.6 142.399 118.9 142.299 119.1 142.399C119.9 142.899 120.6 142.399 121.3 142.499C122.1 142.599 122.8 142.399 123.5 142.899C123.8 143.099 124.2 143.299 124.6 142.799C124.8 142.599 125.1 142.799 125.4 142.799C125.6 142.799 125.9 142.599 126.1 142.599C126.3 142.599 126.4 142.899 126.6 143.099C126.6 143.099 126.7 143.099 126.8 143.099C128 142.699 128.8 143.899 129.9 144.299C131 144.699 132 145.399 132.8 146.399C133.3 146.899 133.5 147.699 132.8 148.599C132.5 148.999 132 149.299 131.6 149.299C131.3 149.299 131.1 149.299 130.9 149.299C130.7 149.199 130.4 149.099 130.2 148.999C129.7 148.799 129 148.999 128.8 148.399C128.8 148.199 128.4 148.399 128.5 147.899V147.799C127.5 148.199 127.1 147.499 126.3 147.299C125.7 147.199 124.9 147.599 124.3 147.299C123.8 147.899 123.5 147.699 123.1 147.499C121.9 146.699 120.7 147.199 119.8 147.399C118.8 147.599 118.3 148.199 117.7 149.099C117.7 149.299 117.8 149.599 117.5 149.599C117.2 149.599 117.2 149.999 117.2 150.299C117.2 150.499 117.2 150.799 116.9 150.999C116 151.799 116.2 152.899 116.1 153.799C116 154.699 116.1 155.699 116.5 156.499C116.8 156.999 117.3 157.299 117.5 157.799C117.5 157.999 118 157.999 117.7 158.599C117.7 158.799 118.1 158.599 118.2 158.699C118.5 158.899 118.7 159.199 119 159.499C119.4 159.899 119.8 160.199 120.3 160.399C120.6 160.499 121 160.399 121.3 160.599C121.6 160.599 122 160.799 122.3 160.999C122.7 161.199 123 161.599 123.5 161.699C124 161.899 124.5 161.699 124.9 162.099C125.7 162.799 126.7 162.599 127.6 162.699C128.5 162.799 129.5 162.899 130.4 162.699C130.9 162.699 131.4 163.099 132 163.099C132.3 163.099 132.6 164.599 132.5 165.099C132.5 165.099 132.5 165.299 132.4 165.299C131.9 165.799 131.4 166.499 130.8 166.499C129.9 166.499 129 166.499 128 166.499L127.8 166.299Z" fill="black"/>
<path d="M160.2 117C159.5 117.3 158.8 117.7 158.2 118.1C158 118.3 157.6 118.1 157.6 118.8C157.6 119.1 157 118.7 156.8 118.8C156.2 119.2 155.5 119.5 155 120C154.4 120.4 154 121 153.4 121.5C152.9 121.9 152.1 122.1 151.7 122.8C151.4 123.4 150.7 123.3 150.3 123.7C149.9 124.2 149.4 124.6 148.8 124.8C148.4 124.9 147.9 125 147.6 125.4C147.4 125.6 147.4 126 147.2 126.2C147 126.4 146.6 126.3 146.8 127C146.8 127 146.7 127 146.5 127C146 126.9 145.7 127.1 145.7 127.5C145.7 127.9 145.5 128 145.3 128.1C144.8 128.5 144.4 128.9 143.9 129.3C143.5 129.6 143 129.7 142.6 129.9C142.2 130.2 142 130.7 141.4 130.7C140.9 130.7 140.5 131 140.2 131.3C140 131.5 139.6 131.4 139.9 132C139.9 132 139.9 132.1 139.8 132C138.7 131.8 138.9 133.1 138.2 133.4C137.5 133.7 137 134.3 136.5 134.8C136.4 134.9 136.1 134.9 136.3 135.4C136.3 135.6 136.3 135.7 136.1 135.7C135.3 135.7 135.1 136.3 134.7 136.6C134.2 137 133.9 137.6 133.2 137.7C132.9 137.7 132.5 137.9 132.8 138.6C132.9 138.9 132.5 138.9 132.4 139.1C132.4 139.3 132.4 139.6 132.3 139.7C132.3 139.8 131.9 139.7 131.7 139.8C131.7 139.8 131.7 139.8 131.7 139.9C131.7 141 130.4 141.1 130.1 142C129.8 142.8 129.2 143.5 128.8 144.3C128.5 144.7 128.2 145 127 144.9C126.5 144.9 125.9 144.6 125.7 144.3C125.5 144 125.4 143.8 125.5 143.6C125.5 143.3 125.5 142.9 125.6 142.6C125.7 141.9 125.6 141.1 126.2 140.6C126.4 140.5 126.2 140.1 126.8 140.2C126.8 140.2 127 140.2 126.9 140.2C126.7 139 127.7 138.5 128.3 137.8C128.7 137.2 128.8 136.2 129.5 135.8C129.3 135.1 129.8 134.8 130.2 134.6C131.7 134 132.5 132.6 133.7 131.7C134.9 130.7 136 129.7 137.2 128.8C137.4 128.6 137.3 128.2 137.7 128.3C138.1 128.3 138.2 127.9 138.5 127.7C138.7 127.5 138.9 127.2 139.2 127.2C140.5 127 141.2 125.9 142.1 125.3C143 124.6 144 124 144.8 123.1C145.3 122.6 145.6 121.9 146.3 121.5C146.6 121.4 146.6 120.9 147.2 121.2C147.4 121.2 147.3 120.7 147.5 120.6C147.9 120.3 148.3 120 148.7 119.7C149.3 119.3 149.8 118.9 150.4 118.5C150.7 118.2 150.9 117.8 151.2 117.5C151.5 117.2 151.9 116.9 152.3 116.8C152.8 116.6 153.4 116.4 153.9 116.2C154.4 116 154.8 115.4 155.4 115.3C156.5 115.3 157.3 114.5 158.3 114.1C159.2 113.7 160.2 113.3 161.1 112.7C161.6 112.4 162.3 112.7 162.8 112.4C163 112.3 163.9 113.5 164 114C164 114 164 114.2 164 114.3C163.7 114.9 163.5 115.8 163 116C162.2 116.3 161.4 116.7 160.6 117.1L160.2 117Z" fill="black"/>
<path d="M186.6 112.598C188.4 111.198 190 109.598 191.3 107.898C191.8 107.198 192.5 106.698 192.5 105.698C192.5 105.398 192.7 105.198 193 104.998C193.1 104.898 193.3 104.798 193.4 104.598C193.5 104.498 193.7 104.298 193.7 104.298L194 103.698C194 103.598 194 103.498 194.1 103.398V103.198H194.2C194 103.198 193.8 103.198 193.6 103.198C193.4 103.198 193.3 103.198 193.1 103.298H192.8L192.1 103.498C191 103.598 190 103.798 188.9 103.898C186.8 104.098 184.6 103.998 182.6 104.598C180.9 105.098 179.3 104.898 177.7 105.298C176 105.798 174.4 106.398 172.7 106.698C171.5 106.998 170.3 107.298 169.3 107.898C168.7 108.298 168.2 108.898 167.5 109.298C166.9 109.698 166 109.998 165.9 110.898C165.9 110.898 165.6 111.098 165.4 111.098C164.5 111.298 163.8 111.998 163.6 112.698C163.4 113.298 163 113.698 162.7 114.198C162.3 114.698 162 115.198 161.8 115.698L157.7 112.498L160 110.298C161 109.398 162 108.598 162.9 107.598C163.8 106.598 164.5 105.298 165.5 104.398C166.5 103.498 167.1 102.498 167.7 101.498C168 100.898 168.7 100.298 168.4 99.4983C168.4 99.4983 168.4 99.1983 168.6 99.0983C169.4 98.3983 169.7 97.3983 169.9 96.4983C170.1 95.4983 170.2 94.4983 170.5 93.5983C171.2 91.6983 171.4 89.5983 171.4 87.4983C171.4 86.9983 171.6 86.3983 171.1 85.8983C170.9 85.6983 170.9 85.1983 171 84.8983C171.2 84.1983 171.2 83.3984 171 82.7984C171 82.4984 170.8 82.1983 170.6 81.8983V81.6983H170.5C170.5 81.6983 170.5 81.6983 170.5 81.5983C170.5 81.5983 170.5 81.3983 170.4 81.3983C170.4 81.3983 170.3 81.2983 170.2 81.3983C170.2 81.3983 170.1 81.3983 170 81.4983C170 81.4983 170 81.4983 169.8 81.4983H169.6L169.3 81.6983C168.6 82.0983 167.7 82.7984 167.4 83.7984C167.3 84.2984 166.4 84.6983 165.9 85.1983C165.5 85.5983 165.3 86.1983 165 86.5983C164.7 86.8983 164.2 87.0983 163.8 87.3983C163.7 87.3983 163.6 87.5983 163.5 87.6983C162.9 88.8983 162.1 89.7984 161.5 90.7984C160.8 91.7984 160.2 92.7983 160 94.0983C159.6 96.4983 159.6 99.0984 159.9 101.798C160 103.298 160.2 104.898 159.3 106.098C158.9 106.698 158.4 106.798 157.9 106.198C157.6 105.798 157.2 105.198 157.1 104.698C156.8 103.798 156.6 102.898 156.3 101.998C155.9 100.198 155.2 98.1983 155.6 96.1983C155.7 95.5983 155.6 94.7984 156.1 94.2984C156.1 94.2984 156.3 93.9984 156.3 93.8983C156.2 92.4984 156.5 90.9983 157.2 89.6983C157.8 88.3983 158.7 87.1983 159.5 86.0983C160.9 84.1983 162 82.1983 163.9 80.8983C164.4 79.5983 165.5 78.6983 166.6 77.9983H166.8C166.8 77.7983 166.8 77.7983 167 77.6983L167.6 77.1983C168 76.8983 168.4 76.5984 168.8 76.2984C169.2 75.9984 169.6 75.8984 170 75.7984C170.3 75.7984 170.7 75.6984 171.2 75.7984C172 75.9984 172.7 76.4983 173.3 77.1983C173.9 77.8983 174.5 78.6983 174.9 79.5983C175.5 80.8983 175.8 82.0984 176.1 83.2984C176.3 84.4984 176.4 85.6983 176.4 86.8983C176.4 91.6983 175.2 96.2983 173.2 100.498C172.9 101.198 172.9 101.998 172.2 102.698C171.6 103.298 171.2 104.398 170.6 105.198C170.1 105.998 169.7 106.898 169 107.498C166.4 109.998 164.2 112.798 161.6 115.198L161.1 115.598L158.2 113.398C159.1 111.798 160.2 110.398 161.5 109.198C162.7 107.998 164.1 106.898 165.4 105.898C167.2 104.598 169.1 103.298 171.2 102.598C172.1 102.298 172.9 101.698 174 101.898C174.3 101.898 175 101.298 175.6 101.098C177 100.698 178.5 100.398 180 100.098C182 99.7983 184.1 99.5984 186.1 99.2984C187.3 99.1984 188.5 98.7983 189.7 98.6983C190.3 98.6983 191 98.5983 191.6 98.4983C192.4 98.4983 193.3 98.4984 194.1 98.3983C196.4 98.3983 198.8 98.2983 201.1 98.1983C200.9 98.6983 200.6 99.2984 200.4 99.7984C199.9 101.198 199.3 102.498 198.8 103.898C198.5 104.598 198.2 105.298 197.8 105.898L197.6 106.298L197.4 106.598C197.3 106.798 197.2 106.998 197 107.098C194.9 109.498 193.1 112.098 190.7 114.098C188.3 116.098 185.7 117.798 182.9 119.198C181.3 119.998 179.6 120.098 178 120.598C177.2 120.798 175.9 119.598 176.1 118.998C176.1 118.898 176.2 118.798 176.3 118.698C177 118.298 177.6 117.798 178.3 117.398C179 116.998 179.6 116.498 180.4 116.198C182.8 115.298 185 113.898 186.9 112.398L186.6 112.598Z" fill="black"/>
<path d="M147.7 106.3C146.8 106.6 146 107 145.2 107.4C144.9 107.6 144.5 107.4 144.4 108.1C144.4 108.4 143.8 108.1 143.5 108.1C142.8 108.6 142 108.9 141.3 109.4C140.6 109.9 140 110.5 139.4 111C138.8 111.5 137.9 111.8 137.4 112.5C137 113.1 136.2 113.1 135.8 113.6C135.3 114.1 134.8 114.6 134.2 114.9C133.7 115.1 133.2 115.3 132.9 115.7C132.7 116 132.7 116.4 132.5 116.6C132.3 116.8 131.8 116.9 132.1 117.5C132.1 117.5 131.9 117.5 131.8 117.5C131.3 117.5 131 117.8 131 118.2C131 118.6 130.8 118.7 130.7 118.9C130.3 119.4 129.8 120 129.3 120.5C128.9 120.9 128.4 121.1 128 121.5C127.6 121.9 127.5 122.5 126.9 122.7C126.3 122.9 126.1 123.3 125.8 123.8C125.6 124 125.2 124.1 125.6 124.7V124.8C124.4 125 125 126.3 124.4 126.9C124.1 127.2 123.9 127.6 123.7 127.9L123.2 129.1C123.2 129.3 122.8 129.4 123.2 129.8C123.3 129.9 123.2 130.2 123.1 130.2C122.2 130.5 122.3 131.3 122 131.8C121.6 132.4 121.6 133.2 120.9 133.7C120.6 133.9 120.3 134.3 120.8 134.8C121 135.1 120.6 135.3 120.6 135.6C120.6 135.8 120.8 136.1 120.7 136.3C120.7 136.5 120.4 136.6 120.2 136.7C120.2 136.7 120.2 136.8 120.2 136.9C120.5 138.1 119.4 138.9 119.4 139.9C119.4 141 119.2 142 119.1 143C119.1 143.6 118.9 144.1 117.7 144.6C117.2 144.8 116.6 144.9 116.3 144.6C116 144.4 115.8 144.2 115.7 143.9C115.6 143.5 115.5 143.1 115.4 142.8C115.2 142 114.8 141.2 115.2 140.4C115.3 140.2 115.1 139.8 115.6 139.7C115.6 139.7 115.7 139.6 115.7 139.5C115.1 138.3 115.9 137.3 116.1 136.3C116.3 135.4 116 134.4 116.5 133.6C116.1 132.9 116.4 132.4 116.7 132C117.3 131.3 117.8 130.5 118.1 129.6L118.6 128.3C118.8 127.9 119 127.5 119.2 127.1C120.1 125.5 121 123.9 122 122.4C122.2 122.1 122 121.7 122.5 121.6C122.9 121.5 123 121 123.2 120.7C123.4 120.4 123.5 120 123.9 119.8C125.3 119.1 125.8 117.7 126.9 116.7C127.9 115.7 128.9 114.7 129.8 113.6C130.3 112.9 130.8 112.1 131.5 111.6C131.8 111.4 131.9 110.9 132.6 111.1C132.8 111.1 132.8 110.6 132.9 110.4C133.3 110 133.8 109.6 134.3 109.3C134.9 108.8 135.7 108.4 136.3 107.8C136.7 107.5 137 107 137.4 106.7C137.8 106.4 138.3 106.1 138.8 105.9C139.4 105.6 140.1 105.4 140.7 105.2C141.3 104.9 141.9 104.3 142.6 104.3C143.9 104.2 144.9 103.5 146.1 103C147.3 102.6 148.4 102.2 149.5 101.7C150.1 101.4 150.9 101.7 151.5 101.5C151.8 101.5 152.6 102.7 152.6 103.2C152.6 103.2 152.6 103.4 152.6 103.5C152.1 104.1 151.8 105 151.1 105.2C150.1 105.4 149.1 105.9 148.2 106.2L147.7 106.3Z" fill="black"/>
<path d="M114.7 192.199C111.7 193.099 108.6 193.499 105.4 193.199C103.8 193.099 102.2 192.799 100.7 192.299C99.8996 192.099 99.1996 191.799 98.3996 191.399C97.6996 190.999 96.9996 190.699 96.1996 190.199C95.5996 189.799 94.9996 189.299 94.5996 188.499C94.0996 187.799 93.8996 186.899 93.7996 186.099C93.7996 185.299 93.7996 184.699 93.7996 184.099C93.7996 183.499 93.7996 182.999 93.6996 182.399C93.5996 181.199 94.3996 178.999 95.1996 176.899C95.6996 175.599 96.3996 174.399 97.2996 173.299C98.2996 172.199 99.4996 171.299 101 170.899L104.5 169.799L103.3 173.299C102.7 175.099 101.6 176.699 100.2 177.899C98.7996 179.099 97.1996 179.999 95.5996 180.599C92.6996 181.599 89.4996 181.799 86.4996 180.699C84.9996 180.199 83.5996 179.399 82.3996 178.399C81.1996 177.399 80.1996 176.199 79.3996 174.899C77.7996 172.299 76.9996 169.299 76.9996 166.299C76.9996 163.299 77.7996 160.299 78.9996 157.699C79.9996 155.499 81.3996 153.699 82.7996 152.099C84.1996 150.499 85.6996 148.999 87.0996 147.499C89.5996 144.799 92.3996 142.299 95.2996 140.099L98.6996 142.999C98.1996 143.899 97.5996 144.699 96.8996 145.499C94.4996 148.199 91.3996 149.999 88.3996 151.399C86.4996 152.299 84.6996 153.199 82.3996 153.599C80.2996 153.999 77.8996 153.899 75.8996 154.399C75.6996 154.399 74.7996 154.299 74.2996 154.099C71.9996 153.499 69.1996 152.799 67.2996 152.199C65.3996 151.599 63.7996 150.599 62.3996 149.299C60.3996 147.599 58.8996 145.299 57.8996 142.899C56.9996 140.499 56.5996 137.899 56.5996 135.399C56.5996 131.599 57.8996 127.999 59.5996 124.799C61.3996 121.499 63.6996 118.199 66.2996 115.999C68.8996 113.799 71.3996 111.899 73.9996 109.999C75.4996 108.899 77.4996 107.999 78.3996 106.699C78.3996 106.599 79.0996 106.199 79.3996 106.099C81.8996 105.099 84.1996 103.899 86.5996 102.699C88.9996 101.499 91.6996 100.399 94.6996 100.399C96.2996 100.399 97.7996 100.599 99.3996 101.099C100.9 101.599 102.5 102.299 103.8 103.399C105.1 104.499 106.3 105.999 106.7 108.099C106.9 109.199 106.7 110.499 106.2 111.499C105.7 112.499 104.8 113.299 104 113.799C102.3 114.899 100.4 114.999 99.0996 115.699C98.5996 115.999 96.8996 116.199 96.0996 116.099C93.8996 115.899 91.5996 115.599 89.3996 115.099C87.1996 114.599 84.8996 113.799 82.8996 112.199C81.7996 111.299 80.7996 110.199 79.9996 108.899C79.1996 107.599 78.7996 106.199 78.4996 104.799C77.9996 101.999 78.4996 99.0995 79.7996 96.7995C80.2996 95.7995 80.9996 94.5994 81.8996 93.4994C82.6996 92.3994 83.5996 91.2994 84.4996 90.1994C84.8996 89.6994 85.6996 89.0994 86.4996 88.5994C87.3996 88.0994 88.3996 87.5994 89.1996 87.0994C90.5996 86.3994 91.7996 85.5994 93.1996 85.0994C94.3996 84.6994 95.6996 84.5994 96.8996 84.3994C97.2996 84.3994 97.6996 84.1994 98.0996 84.0994C101.5 82.9994 105 82.4995 108.6 82.2995C112.2 82.1995 115.7 82.3994 119.3 82.6994C126.5 83.1994 133.6 85.0994 140.2 88.0994C141.1 88.4994 142 88.9994 142.9 89.3994C143.8 89.8994 144.6 90.3994 145.4 90.9994C147 92.1994 148.3 93.7995 148.6 95.2995C148.7 95.9995 148.6 96.3994 148.4 96.3994C148.1 96.3994 147.8 96.1994 147.2 95.6994C146.4 94.8994 145.2 94.2994 144.1 93.6994C143.2 93.1994 142.2 92.7995 141.2 92.2995C140.7 92.0995 140.2 91.8994 139.7 91.6994C139.2 91.4994 138.7 91.2994 138.2 91.0994C134.1 89.4994 129.9 88.6994 125.6 87.5994C124.2 87.2994 122.6 87.2994 121.5 86.5994C121.4 86.5994 120.8 86.3994 120.5 86.3994C117.5 86.3994 114.5 86.3994 111.4 86.3994C108.4 86.3994 105.3 86.6994 102.3 87.1994C97.1996 88.1994 92.4996 90.0994 88.4996 92.4994C87.5996 93.4994 86.5996 94.4994 85.7996 95.4994C84.9996 96.4994 84.2996 97.4994 83.6996 98.6994C82.7996 100.599 82.4996 102.899 82.9996 104.899C83.4996 106.899 84.8996 108.399 86.8996 109.399C90.8996 111.299 96.3996 111.499 100.5 110.199C101 109.999 101.4 109.799 101.6 109.599C101.9 109.399 102 109.199 102.1 108.999C102.1 108.799 102.1 108.599 102.1 108.299C102.1 107.999 101.8 107.599 101.6 107.299C100.5 105.799 98.3996 104.899 96.1996 104.699C91.7996 104.299 86.9996 106.699 82.3996 109.099C80.8996 109.899 79.7996 110.999 77.8996 111.899C76.0996 112.799 74.1996 114.399 72.4996 115.799C70.8996 117.099 69.3996 118.699 67.9996 119.899C65.0996 122.499 62.7996 125.899 61.5996 129.599C60.4996 133.299 60.4996 137.299 61.6996 140.799C62.2996 142.499 63.2996 144.099 64.5996 145.399C65.8996 146.699 67.4996 147.699 69.1996 148.399C72.6996 149.799 76.6996 149.999 80.4996 149.399C85.1996 148.599 89.4996 146.399 92.5996 143.199C93.2996 142.499 93.7996 141.599 94.2996 140.699L97.5996 143.499C96.7996 144.099 95.9996 144.699 95.0996 145.099C94.4996 145.399 93.2996 146.999 92.2996 147.899C89.8996 150.199 87.4996 152.699 85.3996 155.299C83.9996 157.099 82.6996 158.999 81.8996 160.899C81.4996 161.899 81.1996 162.899 81.0996 163.899C80.9996 164.899 80.8996 165.999 81.0996 166.999C81.3996 169.499 82.5996 171.799 84.0996 173.599C84.8996 174.499 85.8996 175.299 86.8996 175.799C87.8996 176.299 89.0996 176.599 90.2996 176.699C93.2996 176.899 96.6996 175.599 98.2996 173.099C98.5996 172.699 98.6996 172.299 98.8996 171.799L101.7 174.599C100.7 174.899 99.7996 175.799 99.0996 176.899C98.3996 177.999 97.9996 179.399 97.6996 180.799C97.4996 181.599 97.3996 182.399 97.2996 183.299C97.1996 184.199 97.0996 185.099 97.0996 185.599C97.0996 185.899 97.0996 185.999 97.1996 186.199C97.1996 186.399 97.3996 186.499 97.5996 186.699C97.9996 187.099 98.7996 187.499 99.4996 187.799C102.4 189.099 105.8 189.499 109.1 189.099C112.4 188.699 115.6 187.699 118.5 185.899C121.3 184.199 123.7 181.699 124.8 178.899C125.4 177.299 125.7 175.699 125.7 173.999C125.7 172.299 125.2 170.599 124.3 169.199C123.8 168.599 123.5 167.699 123.2 166.899C122.9 166.199 122.7 165.499 123.2 165.499C123.4 165.499 123.7 165.599 124 165.799C124.9 166.399 125.7 166.999 126.5 167.799C127.2 168.599 127.8 169.499 128.3 170.499C129.2 172.499 129.7 174.899 129.2 177.399C128.5 181.199 126.3 184.399 123.6 186.799C120.9 189.199 117.7 190.799 114.3 191.899L114.7 192.199Z" fill="black"/>
</svg>
