<svg width="300" height="300" viewBox="0 0 300 300" fill="none" xmlns="http://www.w3.org/2000/svg">
<path d="M184.499 141.401C184.199 141.101 183.899 140.701 183.599 140.501C183.499 140.401 183.599 140.101 182.999 140.301C182.699 140.401 183.099 139.901 182.999 139.801C182.699 139.601 182.499 139.201 182.199 138.901C181.899 138.701 181.499 138.501 181.199 138.301C180.899 138.101 180.799 137.601 180.299 137.501C179.899 137.501 179.999 136.901 179.699 136.801C179.399 136.601 179.099 136.501 179.099 136.101C179.099 135.801 179.099 135.501 178.799 135.401C178.699 135.401 178.299 135.401 178.199 135.401C178.199 135.301 178.199 135.001 177.699 135.401C177.699 135.401 177.699 135.401 177.699 135.201C177.899 134.801 177.699 134.701 177.399 134.801C177.099 134.801 177.099 134.801 176.999 134.801C176.699 134.601 176.499 134.401 176.299 134.101C176.199 133.901 176.199 133.501 175.999 133.301C175.899 133.101 175.499 133.101 175.499 132.701C175.499 132.301 175.399 132.201 175.199 132.001C175.199 132.001 175.199 131.601 174.699 132.001C174.999 131.201 173.999 131.601 173.899 131.201C173.799 130.801 173.399 130.601 173.099 130.301C173.099 130.301 173.099 130.001 172.699 130.301C172.599 130.301 172.499 130.301 172.499 130.201C172.799 129.601 172.299 129.601 172.099 129.301C171.999 129.001 171.499 128.901 171.599 128.301C171.599 128.101 171.599 127.801 170.999 128.101C170.699 128.201 170.799 127.901 170.699 127.901C170.599 127.901 170.299 127.901 170.199 127.901C170.199 127.901 170.199 127.601 170.199 127.501C169.399 127.501 169.699 126.601 169.199 126.401C168.699 126.201 168.399 125.701 168.099 125.301C167.899 125.101 167.899 124.701 168.599 123.801C168.899 123.401 169.299 123.001 169.599 122.901C169.799 122.901 170.099 122.701 170.199 122.801C170.399 122.801 170.599 122.801 170.799 122.901C171.199 123.001 171.799 122.901 171.799 123.301C171.799 123.401 172.099 123.301 171.799 123.701V123.801C172.699 123.601 172.599 124.301 172.999 124.601C173.299 124.901 173.999 124.601 174.099 125.201C174.699 124.901 174.799 125.201 174.799 125.501C174.799 126.501 175.699 126.801 176.199 127.401C176.699 128.001 177.299 128.501 177.799 129.201C177.799 129.301 178.199 129.201 178.099 129.401C178.099 129.701 178.299 129.701 178.399 129.801C178.499 129.901 178.699 129.901 178.699 130.201C178.699 131.101 179.399 131.301 179.699 131.801C180.099 132.301 180.399 132.801 180.999 133.101C181.299 133.301 181.799 133.301 181.999 133.701C181.999 133.901 182.399 133.701 182.099 134.301C182.099 134.401 182.399 134.301 182.499 134.301C182.699 134.501 182.899 134.701 182.999 134.901C183.199 135.201 183.499 135.501 183.699 135.701C183.899 135.801 184.199 135.801 184.399 135.901C184.599 136.001 184.799 136.201 184.899 136.401C184.999 136.701 185.099 137.001 185.199 137.301C185.399 137.601 185.799 137.601 185.799 138.001C185.799 138.701 186.299 139.001 186.699 139.401C186.999 139.801 187.299 140.201 187.799 140.501C188.099 140.701 187.799 141.201 188.099 141.401C188.099 141.401 187.199 142.601 186.799 142.901L186.599 143.001C186.099 143.101 185.399 143.401 185.199 143.101C184.899 142.701 184.599 142.401 184.199 142.001L184.499 141.401Z" fill="black"/>
<path d="M119.9 178.7C119.9 178.9 119.9 179 119.9 179.2C119.9 179.2 119.7 179.3 120.2 179.4C120.5 179.4 119.8 179.5 119.9 179.6C119.9 179.7 119.9 179.9 119.9 180C119.9 180.1 120.2 180.3 120.3 180.4C120.3 180.5 120.1 180.7 120.4 180.8C120.7 180.8 120.2 181.1 120.4 181.2C120.5 181.3 120.6 181.4 120.4 181.6C120.2 181.7 120 181.8 120.1 181.9C120.1 181.9 120.5 181.9 120.5 182C120.5 182 120.2 182.1 120.9 182.1C120.9 182.1 120.9 182.1 120.8 182.1C120.4 182.2 120.4 182.3 120.8 182.3C121.1 182.3 121 182.3 121.1 182.4C121.1 182.5 121.1 182.6 121.1 182.8C121.1 182.8 120.8 183 120.8 183.1C120.8 183.2 121 183.3 120.8 183.4C120.5 183.5 120.5 183.6 120.5 183.7C120.5 183.7 120.2 183.8 120.9 183.8C120.1 184 121.2 184.1 121 184.2C120.8 184.4 121 184.5 121 184.7C121 184.7 120.8 184.8 121.3 184.7C121.5 184.7 121.5 184.7 121.3 184.7C120.7 184.9 121.1 185 121 185.1C120.9 185.2 121.2 185.3 120.7 185.5C120.5 185.5 120.4 185.7 121 185.7C121.3 185.7 121 185.7 121 185.8H121.3C121.3 185.8 121.1 185.8 121 185.9C121.7 186 120.8 186.3 121 186.5C121.2 186.7 121.2 186.9 121 187.1C121 187.2 120.8 187.3 119.7 187.6C119.2 187.6 118.6 187.8 118.3 187.8C118.1 187.8 117.8 187.8 117.8 187.8C117.7 187.8 117.6 187.8 117.5 187.7C117.3 187.7 116.8 187.5 117 187.4C117 187.4 116.8 187.4 117.3 187.2C116.5 187.2 117 186.9 116.9 186.7C116.9 186.6 116.2 186.5 116.4 186.3C115.8 186.3 115.9 186.2 116 186.1C116.6 185.7 116.2 185.5 116.2 185.2C116.2 184.9 116.2 184.6 116.2 184.3C116.2 184.3 115.8 184.3 116.2 184.2C116.5 184.2 116.2 184.1 116.2 184C116.2 184 116.1 183.9 116.2 183.8C116.8 183.5 116.4 183.3 116.5 183.1C116.5 182.9 116.5 182.6 116.4 182.4C116.3 182.3 115.9 182.2 116 182C116 182 115.7 182 116.3 181.8C116.5 181.8 116 181.8 116 181.8C116 181.8 116 181.6 116 181.5C116 181.4 116 181.2 116 181.1C116 181.1 115.7 181 115.6 180.9C115.6 180.9 115.6 180.7 115.6 180.6C115.6 180.5 115.9 180.4 115.9 180.2C115.9 180.1 115.7 180 115.9 179.9C116.4 179.6 116.1 179.5 116.1 179.3C116.1 179.1 116.1 178.9 116.1 178.7C116.1 178.6 116.5 178.4 116.5 178.3C116.5 178.3 118 178 118.5 178H118.7C119.2 178 119.9 178 119.9 178.2C119.9 178.4 119.9 178.6 119.9 178.7Z" fill="black"/>
<path d="M166.099 147.302C166.499 147.102 166.799 147.002 167.199 146.702C167.299 146.702 167.599 146.702 167.499 146.202C167.499 145.902 167.899 146.402 167.999 146.402C168.299 146.202 168.699 146.102 168.999 145.902C169.299 145.702 169.499 145.302 169.799 145.102C170.099 144.902 170.599 145.102 170.799 144.602C170.999 144.202 171.399 144.602 171.599 144.302C171.799 144.102 172.099 143.902 172.499 144.002C172.799 144.002 173.099 144.202 173.199 144.002C173.199 143.902 173.199 143.502 173.399 143.502C173.499 143.502 173.799 143.702 173.699 143.002C173.699 143.002 173.699 143.002 173.899 143.002C174.199 143.302 174.399 143.202 174.399 143.002C174.399 142.702 174.499 142.702 174.599 142.602C174.899 142.502 175.199 142.302 175.499 142.302C175.699 142.302 175.999 142.302 176.299 142.302C176.499 142.302 176.699 141.902 176.999 142.102C177.299 142.302 177.499 142.202 177.699 142.102C177.799 142.102 178.099 142.302 177.899 141.602C178.499 142.302 178.499 141.102 178.899 141.202C179.299 141.202 179.599 141.002 179.999 140.902C179.999 140.902 180.299 141.002 180.199 140.502C180.199 140.302 180.199 140.302 180.399 140.402C180.899 140.902 180.999 140.402 181.299 140.402C181.599 140.402 181.899 140.002 182.299 140.402C182.499 140.602 182.699 140.602 182.699 140.002C182.699 139.702 182.899 140.002 182.999 139.802C182.999 139.802 182.999 139.402 183.199 139.402C183.199 139.402 183.399 139.602 183.499 139.702C183.799 138.902 184.499 139.702 184.899 139.302C185.299 139.002 185.799 138.902 186.299 138.902C186.599 138.902 186.899 138.902 187.399 140.002C187.599 140.502 187.799 141.002 187.699 141.402C187.699 141.702 187.699 141.902 187.599 142.002C187.499 142.102 187.399 142.302 187.299 142.402C187.099 142.702 186.899 143.302 186.599 143.102C186.499 143.102 186.499 143.402 186.199 142.902C185.999 143.802 185.499 143.402 185.099 143.602C184.799 143.802 184.599 144.502 184.199 144.302C184.199 145.002 183.999 144.902 183.699 144.802C182.799 144.402 182.299 145.002 181.599 145.202C180.899 145.302 180.299 145.702 179.599 145.902C179.499 145.902 179.599 146.302 179.299 146.102C179.099 145.902 178.999 146.102 178.799 146.202C178.699 146.202 178.599 146.402 178.399 146.302C177.599 145.902 177.299 146.502 176.699 146.602C176.199 146.702 175.599 146.902 175.199 147.302C174.899 147.502 174.799 148.002 174.399 148.002C174.199 148.002 174.199 148.402 173.899 147.902C173.799 147.802 173.899 148.202 173.799 148.302C173.599 148.402 173.399 148.502 173.199 148.602C172.899 148.702 172.599 148.802 172.299 149.002C172.099 149.102 172.099 149.402 171.899 149.602C171.699 149.702 171.599 149.802 171.299 149.902C170.999 149.902 170.699 149.902 170.399 149.902C170.099 149.902 169.999 150.302 169.599 150.202C168.899 150.002 168.599 150.402 168.199 150.602C167.699 150.802 167.299 150.902 166.899 151.302C166.699 151.502 166.199 151.202 165.999 151.302C165.899 151.302 165.099 150.102 164.899 149.702V149.502C164.899 149.002 164.799 148.202 165.099 148.102C165.499 148.002 165.899 147.702 166.299 147.502L166.099 147.302Z" fill="black"/>
<path d="M146.699 141.101C146.699 140.901 146.699 140.701 146.699 140.601C146.699 140.601 146.899 140.501 146.399 140.401C146.099 140.401 146.799 140.301 146.699 140.201C146.699 140.001 146.699 139.901 146.699 139.701C146.699 139.501 146.399 139.401 146.399 139.201C146.399 139.001 146.699 138.901 146.399 138.701C146.099 138.501 146.599 138.501 146.499 138.301C146.399 138.201 146.299 138.001 146.499 137.901C146.699 137.901 146.899 137.701 146.799 137.601C146.799 137.601 146.399 137.401 146.499 137.401C146.499 137.401 146.799 137.401 146.199 137.201C146.199 137.201 146.199 137.201 146.399 137.201C146.799 137.201 146.799 137.201 146.499 137.001C146.199 137.001 146.299 136.901 146.299 136.801C146.299 136.701 146.299 136.501 146.299 136.401C146.299 136.401 146.599 136.201 146.699 136.201C146.699 136.201 146.499 135.901 146.799 135.901C147.099 135.901 147.099 135.801 147.099 135.701C147.099 135.701 147.399 135.701 146.799 135.501C147.599 135.501 146.599 135.101 146.799 135.001C146.999 134.901 146.899 134.701 146.999 134.501C146.999 134.501 147.199 134.501 146.799 134.301C146.599 134.201 146.599 134.301 146.799 134.301C147.399 134.301 147.099 134.101 147.199 134.001C147.399 133.901 147.199 133.701 147.599 133.701C147.799 133.701 147.899 133.701 147.399 133.401C147.199 133.301 147.399 133.401 147.399 133.201L147.099 133.001C147.099 133.001 147.299 133.001 147.499 133.001C146.899 132.601 147.899 132.701 147.799 132.401C147.799 132.101 147.799 132.001 147.999 131.801C147.999 131.801 148.299 131.701 149.399 132.001C149.899 132.201 150.399 132.401 150.699 132.601C150.899 132.701 151.099 132.801 151.099 132.901C151.099 132.901 151.299 133.101 151.299 133.201C151.399 133.401 151.899 133.701 151.599 133.701C151.599 133.701 151.799 133.901 151.299 133.701C151.999 134.101 151.399 134.101 151.399 134.301C151.399 134.401 151.999 134.801 151.699 134.801C152.299 135.101 152.099 135.101 151.899 135.101C151.199 135.101 151.499 135.501 151.399 135.801C151.199 136.001 151.299 136.301 151.199 136.601C151.199 136.601 151.499 136.801 151.199 136.801C150.899 136.801 151.199 136.901 151.199 137.001C151.199 137.001 151.299 137.101 151.199 137.201C150.499 137.201 150.899 137.601 150.799 137.801C150.799 138.001 150.599 138.201 150.799 138.401C150.799 138.501 151.199 138.701 151.099 138.801C151.099 138.801 151.399 138.901 150.799 138.901C150.599 138.901 151.099 138.901 151.099 139.001C151.099 139.001 151.099 139.201 151.099 139.301C151.099 139.401 151.099 139.501 151.099 139.701L151.399 139.901V140.101C151.399 140.101 151.099 140.301 150.999 140.401C150.999 140.501 151.199 140.601 150.999 140.701C150.499 140.901 150.699 141.101 150.699 141.301C150.699 141.501 150.699 141.701 150.699 141.801C150.699 141.801 150.299 142.001 150.299 142.101C150.299 142.101 148.799 142.301 148.299 142.401H148.099C147.599 142.401 146.899 142.301 146.899 142.101C146.899 141.901 146.899 141.701 146.899 141.501L146.699 141.101Z" fill="black"/>
<path d="M157.1 141.902C157.1 141.702 157.1 141.502 157.1 141.402C157.1 141.402 157.3 141.302 156.8 141.202C156.5 141.202 157.2 141.102 157.1 141.002C157.1 140.802 157.1 140.702 157.1 140.502C157.1 140.302 156.8 140.202 156.8 140.002C156.8 139.802 157.1 139.702 156.8 139.502C156.5 139.302 157 139.302 156.9 139.102C156.8 139.002 156.7 138.802 156.9 138.702C157.1 138.702 157.3 138.502 157.2 138.402C157.2 138.402 156.8 138.202 156.9 138.202C156.9 138.202 157.2 138.202 156.6 138.002C156.6 138.002 156.6 138.002 156.8 138.002C157.2 138.002 157.2 138.002 156.9 137.802C156.6 137.802 156.7 137.702 156.7 137.602C156.7 137.502 156.7 137.302 156.7 137.202C156.7 137.202 157 137.002 157.1 137.002C157.1 137.002 156.9 136.702 157.2 136.702C157.5 136.702 157.5 136.602 157.5 136.502C157.5 136.502 157.8 136.502 157.2 136.302C158 136.302 157 135.902 157.2 135.802C157.4 135.702 157.3 135.502 157.4 135.302C157.4 135.302 157.6 135.302 157.2 135.102C157 135.002 157 135.102 157.2 135.102C157.8 135.102 157.5 134.902 157.6 134.802C157.8 134.702 157.6 134.502 158 134.502C158.2 134.502 158.3 134.502 157.8 134.202C157.6 134.102 157.8 134.202 157.8 134.002L157.5 133.802C157.5 133.802 157.7 133.802 157.9 133.802C157.3 133.402 158.3 133.502 158.2 133.202C158.2 132.902 158.2 132.802 158.4 132.602C158.4 132.602 158.7 132.502 159.8 132.802C160.3 133.002 160.8 133.202 161.1 133.402C161.3 133.502 161.5 133.602 161.5 133.702C161.5 133.702 161.7 133.902 161.7 134.002C161.8 134.202 162.3 134.502 162 134.502C162 134.502 162.2 134.702 161.7 134.502C162.4 134.902 161.8 134.902 161.8 135.102C161.8 135.202 162.4 135.602 162.1 135.602C162.7 135.902 162.5 135.902 162.3 135.902C161.6 135.902 161.9 136.302 161.8 136.602C161.6 136.802 161.7 137.102 161.6 137.402C161.6 137.402 161.9 137.602 161.6 137.602C161.3 137.602 161.6 137.702 161.6 137.802C161.6 137.802 161.7 137.902 161.6 138.002C160.9 138.002 161.3 138.402 161.2 138.602C161.2 138.802 161 139.002 161.2 139.202C161.2 139.302 161.6 139.502 161.5 139.602C161.5 139.602 161.8 139.702 161.2 139.702C161 139.702 161.5 139.702 161.5 139.802C161.5 139.802 161.5 140.002 161.5 140.102C161.5 140.202 161.5 140.302 161.5 140.502L161.8 140.702V140.902C161.8 140.902 161.5 141.102 161.4 141.202C161.4 141.302 161.6 141.402 161.4 141.502C160.9 141.702 161.1 141.902 161.1 142.102C161.1 142.302 161.1 142.502 161.1 142.602C161.1 142.602 160.7 142.802 160.7 142.902C160.7 142.902 159.2 143.102 158.7 143.202H158.5C158 143.202 157.3 143.102 157.3 142.902C157.3 142.702 157.3 142.502 157.3 142.302L157.1 141.902Z" fill="black"/>
<path d="M171.499 152.002C172.399 153.002 173.199 154.002 173.999 154.902C174.299 155.302 174.399 155.802 175.199 155.802C175.599 155.802 175.399 156.602 175.699 156.902C176.499 157.802 177.199 158.802 177.999 159.702C178.399 160.202 178.799 160.502 179.199 161.002C179.799 161.702 180.399 162.402 181.099 163.302C182.099 164.502 182.799 165.702 183.699 167.002C183.199 167.202 182.699 167.302 182.299 167.502C181.599 167.802 180.699 168.002 179.899 168.202C178.999 168.302 178.199 168.502 177.499 168.702C177.299 168.702 177.099 168.802 176.899 168.902H176.399C176.199 169.102 175.899 169.202 175.599 169.202C175.099 169.302 174.599 169.302 174.099 169.202C173.399 169.202 172.599 169.002 171.899 169.202C171.499 169.302 171.099 169.702 170.599 169.702C170.099 169.702 169.599 169.502 169.199 170.102C169.199 170.102 168.999 170.102 168.899 170.002C168.399 169.602 167.799 169.702 167.399 170.002C166.999 170.302 166.599 170.202 166.299 170.202C165.299 170.202 164.199 170.202 163.199 170.002C162.399 169.902 161.699 169.602 160.899 169.402C160.099 169.302 159.199 169.402 158.499 169.002C157.799 168.602 157.099 168.402 156.399 168.302C155.999 168.302 155.599 167.802 155.099 168.302C155.099 168.302 154.899 168.302 154.799 168.302C153.899 167.202 152.499 167.902 151.399 167.302C150.299 166.702 148.999 166.402 147.899 165.902C147.599 165.802 147.299 165.402 146.899 165.702C146.699 165.702 146.399 165.702 146.299 165.402C145.799 164.402 144.699 164.202 143.899 163.602C142.999 162.902 141.999 162.402 141.399 161.302C141.199 160.802 140.799 160.302 139.999 160.302C139.599 160.302 139.399 159.702 139.099 159.402C138.799 159.202 138.399 159.102 138.199 158.802C137.999 158.602 137.999 158.202 137.899 157.902C137.899 157.902 137.899 157.702 137.699 157.702C136.999 157.202 136.499 156.402 136.299 155.602L135.899 154.402C135.799 154.002 135.699 153.602 135.499 153.202C134.699 151.702 134.399 149.902 134.299 148.202C134.299 147.302 134.399 146.302 135.499 145.702C135.999 145.402 136.599 145.402 136.899 145.702C137.199 146.002 137.399 146.202 137.499 146.502C137.599 147.002 137.699 147.402 137.899 147.802C138.099 148.202 138.299 148.702 138.499 149.102C138.699 149.502 138.899 149.902 138.899 150.402C138.899 150.702 139.199 150.902 138.899 151.302V151.502C139.499 151.902 139.699 152.502 139.999 153.002C140.099 153.302 140.199 153.602 140.299 153.902C140.399 154.202 140.599 154.502 140.799 154.702C141.099 155.102 141.499 155.502 141.899 155.802C142.299 156.102 142.699 156.402 142.999 156.902C143.799 156.902 144.199 157.402 144.499 157.902C145.599 159.802 147.699 160.602 149.599 161.602C151.499 162.602 153.599 163.302 155.799 163.902C156.199 163.902 156.599 163.702 156.899 164.102C157.199 164.502 157.799 164.402 158.299 164.502C158.699 164.502 159.199 164.502 159.599 164.802C161.199 165.802 163.099 165.602 164.799 165.702C166.499 165.902 168.299 165.902 170.099 165.702C171.199 165.502 172.199 165.102 173.199 165.102C173.699 165.102 174.099 164.702 174.599 165.102C174.799 165.202 175.099 164.702 175.399 164.602H175.799C175.799 164.502 175.999 164.502 175.999 164.502C176.099 164.502 176.299 164.502 176.399 164.502C176.399 164.502 176.399 164.402 176.199 164.302C176.099 164.202 175.699 164.102 175.599 164.102C175.599 164.102 175.499 164.102 175.399 163.902L175.199 163.702L174.899 163.302C174.399 162.602 174.099 161.802 173.599 161.102C173.099 160.402 172.299 159.802 171.999 159.002C171.399 157.502 170.199 156.402 169.199 155.202C168.199 154.002 167.199 152.802 166.099 151.702C165.499 151.102 165.299 150.202 164.699 149.502C164.399 149.202 165.099 147.802 165.599 147.602C165.599 147.602 165.799 147.602 165.899 147.602C166.799 147.902 167.899 148.002 168.499 148.702C169.399 149.802 170.499 150.902 171.399 152.002H171.499Z" fill="black"/>
<path d="M160 187.002L160.5 186.002C160.5 185.802 160.6 185.702 160.7 185.502C160.7 185.502 161.1 185.002 160.4 185.502C160 185.702 161 185.002 161 184.902V184.802H160.8C160.6 184.902 160.5 185.002 160.3 185.002C160.1 185.002 160 185.202 159.8 185.302H159.6C159.3 185.302 159 185.402 158.7 185.402C157.5 185.502 156.4 185.202 155.3 185.402C154.3 185.602 153.6 184.902 152.7 184.802C151.7 184.702 150.8 184.502 150 183.902C149.4 183.502 148.9 183.002 148.3 182.902C147.9 182.802 147.4 182.902 147 182.702C146.6 182.502 146.4 182.002 145.7 182.402C145.7 182.402 145.5 182.202 145.5 182.102C145.3 181.502 144.9 181.202 144.4 181.302C143.9 181.302 143.7 181.102 143.4 180.902C142.6 180.402 141.9 179.802 141.2 179.202C140.7 178.702 140.3 178.102 139.9 177.502C139.4 177.002 138.7 176.602 138.5 175.902C138.3 175.202 137.8 174.802 137.4 174.302C137.2 174.002 137.1 173.502 136.4 173.702C136.4 173.702 136.3 173.702 136.3 173.502C136.3 172.202 134.8 172.002 134.3 170.902C133.9 169.802 133.1 168.802 132.7 167.702C132.6 167.402 132.7 167.002 132.1 166.902C131.9 166.902 131.8 166.502 131.9 166.302C132.1 165.802 132 165.302 131.9 164.902C131.8 164.502 131.6 164.002 131.6 163.602C131.6 163.102 131.5 162.602 131.5 162.102C131.5 161.602 131.5 161.102 131.7 160.602C131.9 160.202 132 159.602 131.5 159.102C131.2 158.902 131.5 158.402 131.5 158.002C131.5 157.702 131.2 157.402 131.3 157.102C131.3 156.802 131.6 156.602 131.7 156.402V156.202C131.3 154.702 132.4 153.502 132.6 152.102C132.8 150.702 133.2 149.402 133.8 148.102C134.1 147.402 134.5 146.702 135.7 146.602C136.3 146.602 136.8 146.702 137 147.102C137.2 147.402 137.3 147.702 137.3 148.002C137.3 148.402 137.3 148.902 137.3 149.302C137.3 150.202 137.5 151.102 137 151.902C136.8 152.102 137 152.502 136.5 152.602C136.5 152.602 136.4 152.702 136.4 152.802C136.9 154.102 136.1 155.102 136 156.302C135.9 157.302 136.4 158.302 136 159.202C136.6 159.802 136.5 160.302 136.3 160.802C135.6 162.602 136.3 164.402 136.9 166.002C137.4 167.702 138.5 169.202 139.7 170.702C139.9 171.002 140.4 171.002 140.4 171.402C140.4 171.902 140.9 172.102 141.2 172.402C141.5 172.702 141.8 172.902 142 173.302C142.6 174.902 144 175.702 145.2 176.702C146.3 177.702 147.6 178.602 149 179.202C149.9 179.502 150.8 179.602 151.6 180.002C151.9 180.202 152.4 180.002 152.6 180.702C152.6 180.902 153.1 180.602 153.4 180.702C154 180.802 154.6 181.002 155.2 181.102C156 181.202 156.9 181.402 157.7 181.302C158.2 181.302 158.7 181.002 159.2 180.902C159.3 180.902 159.5 180.902 159.6 180.902H159.7H159.8L160.2 180.802L161.1 180.602C161.4 180.602 161.7 180.602 162 180.402C162.8 180.202 163.6 180.002 164.4 179.702C165.2 179.502 165.9 179.302 166.7 179.002C167 178.902 167.4 178.802 167.7 178.602V179.102V179.402V179.802C167.4 180.302 167.3 180.902 167 181.502C166.3 182.902 165.9 183.902 165.6 185.002C165.2 186.002 164.8 187.202 164.3 188.202C163.6 189.502 162.9 190.802 162.2 192.102C161.8 192.802 161 193.202 160.5 193.802C160.3 194.102 158.8 193.602 158.5 193.202C158.5 193.202 158.4 193.002 158.4 192.902C158.4 192.002 158.2 191.102 158.7 190.402C159.4 189.402 160 188.302 160.5 187.302L160 187.002Z" fill="black"/>
<path d="M116 163.102C115 163.402 113.9 163.702 112.8 164.002C112.4 164.102 111.9 164.002 111.6 164.602C111.4 164.902 110.9 164.402 110.6 164.502C109.6 164.802 108.5 164.802 107.5 164.902C106.5 165.002 105.4 165.302 104.4 165.302C103.3 165.302 102.3 164.902 101.3 165.002C100.4 165.102 99.7 164.402 98.9 164.302C98 164.202 97.1 163.902 96.4 163.302C95.9 162.902 95.4 162.402 94.8 162.202C94.4 162.002 93.9 162.202 93.6 161.802C93.3 161.502 93.1 161.102 92.4 161.302C92.4 161.302 92.3 161.102 92.3 161.002C92.3 160.502 91.6 159.902 91 159.502C90.6 159.302 90.4 158.902 90.3 158.602C90.3 158.402 90.2 158.202 90.1 158.102C90.1 157.702 90 157.302 90 156.902C90 156.502 90 156.002 90.1 155.902C90.1 155.402 90.3 155.002 90.4 154.502C90.6 153.802 91 153.202 91.3 152.602C91.6 151.902 91.7 151.102 92.2 150.602C92.8 150.102 93.1 149.602 93.5 149.002C93.7 148.702 94.2 148.502 94 147.902C94 147.902 94 147.702 94.2 147.702C94.9 147.602 95.2 147.202 95.6 146.702C95.9 146.202 96.3 145.702 96.8 145.502C97.9 145.102 98.8 144.502 99.8 144.002C100.1 143.902 100.4 144.002 100.5 143.402C100.5 143.202 100.8 143.102 101 143.202C101.9 143.502 102.6 142.902 103.4 142.802C104.3 142.702 105.1 142.102 106.1 142.402C106.5 142.502 107 142.502 107.4 141.902C107.6 141.602 108 141.802 108.4 141.702C108.7 141.702 108.9 141.302 109.2 141.302C109.4 141.302 109.7 141.502 109.9 141.602H110.1C111.4 140.802 112.8 141.602 114.1 141.602C115.5 141.502 116.8 141.602 118.2 142.002C118.9 142.202 119.7 142.602 119.9 143.802C119.9 144.402 119.9 144.902 119.5 145.102C119.2 145.302 118.9 145.402 118.7 145.402C118.3 145.402 117.9 145.402 117.5 145.402C116.7 145.402 115.9 145.902 115.2 145.502C115 145.402 114.7 145.702 114.5 145.202C114.5 145.202 114.4 145.102 114.3 145.202C113.2 145.902 112.2 145.402 111.1 145.602C110.2 145.702 109.4 146.502 108.5 146.302C108.1 147.002 107.5 147.002 107 146.902C105.1 146.602 103.5 147.602 101.8 148.202C100.1 148.802 98.7 149.602 97.7 150.702C97.5 150.902 97.7 151.302 97.2 151.302C96.8 151.302 96.8 151.802 96.6 152.102C96.4 152.402 96.4 152.702 96.1 152.902C94.9 153.802 94.9 155.302 94.6 156.502V156.902C94.6 156.902 94.5 157.102 94.6 157.202C94.6 157.402 94.7 157.502 94.9 157.602C95.2 157.902 95.6 158.102 96 158.302C96.7 158.702 97.5 158.802 98.2 159.202C98.5 159.402 98.9 159.202 99 159.902C99 160.102 99.5 159.802 99.7 159.902C100.2 160.002 100.8 160.202 101.3 160.302C102.1 160.502 102.8 160.602 103.6 160.702C104.1 160.702 104.6 160.502 105 160.502C105.5 160.502 106 160.502 106.5 160.502C107.1 160.502 107.8 160.702 108.5 160.702C109.2 160.702 109.8 160.302 110.5 160.402C111.8 160.702 113 160.102 114.2 159.802C115.4 159.502 116.6 159.102 117.8 158.602C118.4 158.302 119.2 158.602 119.9 158.202C120.2 158.102 121.2 159.302 121.2 159.802C121.2 159.802 121.2 160.002 121.2 160.102C120.7 160.802 120.4 161.702 119.6 162.002C118.4 162.402 117.3 162.802 116.1 163.202L116 163.102Z" fill="black"/>
<path d="M90.999 143.499C91.299 142.499 91.699 141.599 92.099 140.699C92.299 140.399 92.599 140.199 92.399 139.499C92.299 139.199 92.999 139.199 93.199 138.899C93.699 138.099 94.299 137.399 94.899 136.699C94.999 136.499 95.199 136.299 95.299 136.199C95.299 136.199 95.299 136.099 95.299 135.999C95.299 135.899 95.299 135.799 95.299 135.799C95.299 135.799 95.399 135.799 95.499 135.699C95.099 135.699 95.799 135.599 95.499 135.599C95.199 135.599 95.099 135.599 95.199 135.399C95.199 135.399 95.199 135.199 95.199 135.099C95.099 134.999 94.799 134.699 94.499 134.599C94.199 134.399 93.699 134.399 93.399 134.099C93.099 133.799 92.999 133.299 92.299 133.399C92.299 133.399 92.299 133.199 92.299 133.099C92.299 132.499 92.099 132.099 91.699 131.799C91.299 131.599 91.199 131.199 91.099 130.799C90.699 129.799 90.599 128.599 90.899 127.499C91.099 126.699 91.699 125.999 92.099 125.499C92.499 124.899 92.799 124.099 93.399 123.899C93.999 123.699 94.399 123.299 94.799 122.999C94.999 122.799 95.499 122.799 95.199 122.199C95.199 122.199 95.199 122.099 95.299 122.099C96.499 122.199 96.399 120.899 97.199 120.499C97.999 120.199 98.699 119.499 99.399 119.099C99.599 118.999 99.899 119.099 99.899 118.499C99.899 118.299 100.099 118.199 100.299 118.199C101.199 118.399 101.599 117.799 102.199 117.599C102.899 117.399 103.499 116.799 104.399 116.899C104.799 116.899 105.199 116.899 105.399 116.199C105.399 115.899 105.899 115.999 106.199 115.899C106.399 115.799 106.499 115.399 106.699 115.399C106.899 115.399 107.099 115.399 107.399 115.499C107.399 115.499 107.499 115.499 107.599 115.499C108.499 114.499 109.799 115.099 110.799 114.699C111.899 114.299 112.999 114.199 114.199 114.199C114.799 114.199 115.499 114.299 115.999 115.399C116.199 115.899 116.199 116.499 115.999 116.799C115.799 117.099 115.599 117.299 115.499 117.399C115.199 117.499 114.899 117.699 114.599 117.799C113.999 118.099 113.399 118.699 112.699 118.499C112.499 118.499 112.299 118.799 111.999 118.299C111.999 118.299 111.899 118.299 111.799 118.299C111.099 119.199 110.099 118.999 109.299 119.299C108.599 119.599 108.099 120.399 107.299 120.399C107.099 121.099 106.599 121.199 106.199 121.199C104.599 121.199 103.399 122.299 102.099 122.899C100.799 123.599 99.599 124.599 98.399 125.499C98.199 125.699 98.299 126.099 97.899 126.099C97.499 126.099 97.399 126.499 97.199 126.699C96.999 126.899 96.899 127.199 96.599 127.299C95.999 127.499 95.699 127.799 95.499 128.199C95.299 128.599 95.399 128.899 95.299 129.199C95.299 129.899 95.599 130.799 96.399 131.299C96.599 131.499 96.899 131.499 97.199 131.599C97.399 131.599 97.399 131.599 97.699 131.799C97.999 131.999 98.299 132.099 98.599 132.299C98.899 132.499 99.199 132.499 99.599 132.599C99.899 132.699 100.199 132.899 100.199 133.199C100.199 133.399 101.299 133.199 101.799 133.399C102.899 133.699 103.899 134.099 104.899 134.399L105.599 134.599H105.999C105.999 134.699 106.299 134.799 106.299 134.799L104.999 135.499C104.599 135.699 104.099 135.999 103.599 136.299C102.699 136.799 102.199 137.299 101.299 137.899C100.799 138.199 100.499 138.499 100.099 138.799C99.699 139.099 99.299 139.299 98.899 139.699C98.699 139.799 98.499 139.999 98.299 140.099C98.099 140.199 97.899 140.399 97.699 140.599C97.299 140.999 97.199 141.599 96.799 141.899C95.899 142.399 95.699 143.499 95.299 144.299C94.999 145.199 94.699 146.099 94.699 147.099C94.699 147.599 94.199 148.099 94.299 148.599C94.299 148.799 92.899 149.299 92.399 149.299H92.199C91.899 148.999 91.599 148.699 91.399 148.399C91.199 148.099 90.999 147.699 90.999 147.299C91.199 146.199 91.299 144.999 91.599 143.899L90.999 143.499Z" fill="black"/>
<path d="M125.999 127.702H126.199C126.199 127.802 126.199 127.902 126.299 127.902H126.399C126.399 127.702 126.499 127.602 126.599 127.502V127.302C126.699 127.302 126.799 127.102 126.799 127.002C126.799 126.802 126.999 126.702 126.999 126.302C128.299 126.602 129.499 126.802 130.799 127.002H131.699L132.199 127.102H133.199C134.599 127.302 135.999 127.302 137.299 127.102C138.599 127.102 139.999 127.102 141.199 126.402C141.799 126.002 143.099 126.402 144.099 125.902C145.499 125.302 146.699 124.502 147.599 123.402C148.099 122.902 148.499 122.302 148.699 121.702C148.699 121.502 148.799 121.402 148.899 121.202V120.902C148.899 120.902 148.999 120.902 148.999 120.702V120.402C149.099 120.002 149.199 119.702 149.099 119.202C149.099 118.802 149.099 118.302 149.099 117.802C149.099 117.102 148.999 116.302 148.899 115.602H149.199H149.399C149.399 115.602 149.499 115.602 149.599 115.602L150.499 115.902L152.399 116.602L154.299 117.302L155.699 117.702C157.099 118.102 158.599 118.502 159.999 118.902C163.199 119.802 166.399 120.902 169.599 121.202C172.299 121.502 174.699 122.402 177.299 122.602C180.099 122.802 182.999 123.002 185.699 123.402C186.699 123.502 187.699 123.702 188.699 123.702C189.199 123.702 189.699 123.702 190.199 123.702C190.699 123.702 191.199 123.702 191.599 123.702C192.099 123.702 192.499 123.502 192.699 123.302C192.899 123.102 192.899 123.002 193.199 122.702C193.399 122.402 193.699 122.002 193.899 121.502C194.099 121.002 194.199 120.402 193.899 119.902C193.899 119.902 194.099 119.402 194.199 119.202C194.799 118.202 194.799 116.702 194.299 115.902C193.899 115.102 193.699 114.502 193.299 113.902C192.799 113.102 192.099 112.502 191.199 112.002C190.299 111.502 189.099 111.202 187.899 111.002C187.399 111.002 186.999 110.902 186.499 110.802C186.299 110.802 185.999 110.802 185.799 110.802H185.399H185.199H184.799C182.799 110.802 180.699 111.002 178.499 111.302C178.299 111.302 177.999 111.302 177.799 111.402C176.999 110.002 176.499 109.802 176.299 109.402C176.299 109.402 176.299 109.202 176.499 109.102C176.799 108.602 177.099 108.102 176.999 106.802C178.599 105.802 179.799 104.902 180.699 104.002C180.899 103.802 181.099 103.602 181.199 103.402L181.499 103.102L181.699 102.902C181.899 102.702 181.999 102.502 182.099 102.302C182.299 101.902 182.399 101.402 182.199 101.002C182.199 101.002 182.199 100.602 182.299 100.502C182.999 99.4016 182.799 98.2016 181.999 97.4016C181.299 96.6016 180.099 96.0016 178.899 95.3016C177.599 94.6016 176.099 94.1016 174.499 93.8016C172.899 93.5016 171.299 93.4016 169.699 93.4016C168.799 93.4016 167.899 93.3016 167.099 93.8016C166.799 94.0016 165.999 94.1016 165.499 94.1016C163.099 93.8016 160.699 94.9016 158.499 95.9016C157.199 96.4016 156.099 97.2016 154.999 98.0016L154.199 98.6016C153.999 98.8016 153.699 99.0016 153.499 99.2016L152.699 99.9016C152.699 99.9016 152.399 100.302 152.199 100.602L151.599 101.402C151.499 101.602 151.299 101.702 151.199 102.002C151.099 102.302 150.899 102.502 150.799 102.802C150.599 102.802 150.499 102.802 150.299 102.802C150.099 102.802 149.899 102.802 149.799 102.802C149.599 102.802 149.399 102.902 149.199 103.002C149.099 103.002 148.999 103.002 148.999 103.102H148.799C148.799 103.302 148.699 103.302 148.599 103.302C148.499 103.302 147.999 102.802 146.599 102.402C146.499 102.402 146.399 102.402 146.199 102.402C146.199 102.202 146.199 102.002 146.199 101.902V101.602C146.099 101.602 145.799 101.002 145.799 101.002C145.699 100.802 145.499 100.702 145.399 100.602C145.199 100.502 145.199 100.502 145.199 100.402C144.999 100.302 144.699 100.102 144.499 100.002C144.099 99.7016 143.799 99.3016 143.299 99.0016C143.099 99.0016 142.899 98.8016 142.799 98.8016C141.099 98.8016 139.199 98.8016 137.199 99.0016C135.099 99.2016 132.999 99.5016 131.099 100.302C127.199 101.802 123.499 103.802 120.899 106.802C119.399 108.402 118.199 110.202 116.699 111.402C115.999 111.902 115.399 111.802 115.499 110.702C115.499 109.902 115.699 108.902 116.099 108.102C116.699 106.702 117.499 105.402 118.399 104.302C120.299 101.902 122.499 99.6016 125.499 98.4016C126.399 98.0016 127.399 97.3016 128.299 97.5016C128.399 97.5016 128.799 97.5016 128.999 97.3016C130.799 96.2016 132.899 95.6016 134.899 95.2016C136.899 94.8016 139.099 94.6016 141.399 94.6016C142.899 94.6016 144.399 94.8016 145.999 95.4016C146.799 95.7016 147.499 96.1016 148.199 96.6016C148.499 96.8016 148.899 97.2016 149.099 97.4016C149.099 97.4016 149.099 97.4016 149.199 97.5016C149.199 97.5016 149.299 97.7016 149.299 98.0016C149.299 98.0016 149.299 97.9016 149.299 97.8016C149.299 97.6016 149.299 97.4016 149.299 97.2016L149.799 96.7016C150.099 96.4016 150.499 96.1016 150.799 95.7016C151.199 95.4016 151.499 95.1016 151.899 94.8016C152.299 94.5016 152.699 94.2016 153.099 94.0016C154.699 92.9016 156.299 92.1016 157.999 91.4016C161.399 90.0016 164.999 89.2016 168.599 89.1016C172.299 89.1016 175.999 89.5016 179.599 90.9016C181.399 91.6016 183.199 92.6016 184.699 94.3016C185.399 95.1016 186.099 96.2016 186.399 97.3016C186.699 98.5016 186.799 99.7016 186.699 100.802C186.499 102.302 186.399 103.702 185.299 105.002C185.199 105.102 185.099 105.202 184.999 105.402L184.799 105.602C184.799 105.602 184.799 105.602 184.699 105.702C184.699 105.702 184.599 105.902 184.499 105.902C184.499 105.902 184.499 105.902 184.399 106.002C184.399 106.002 184.299 106.102 184.199 106.202C184.199 106.202 184.099 106.302 183.699 106.502H183.599C183.199 106.802 183.599 106.802 184.099 106.802H184.999H185.199H185.299H185.699C186.199 106.802 186.699 106.802 187.199 106.802C189.199 106.902 191.199 107.302 193.199 108.302C194.599 109.002 195.999 110.102 196.899 111.502C197.799 112.902 198.399 114.502 198.599 116.002C198.799 117.602 198.799 119.102 198.499 120.602C198.399 121.402 198.199 122.102 197.899 122.802C197.599 123.502 197.399 124.202 196.999 125.002C196.699 125.502 196.399 125.902 195.999 126.402C195.599 126.902 194.999 127.302 194.399 127.502C193.199 128.002 192.099 128.102 191.299 128.202C189.599 128.202 187.899 128.302 186.299 128.202C184.899 128.102 183.299 128.302 181.999 127.602C181.599 127.402 180.199 127.702 179.299 127.602C176.999 127.402 174.699 127.102 172.499 126.702C169.399 126.202 166.199 125.502 163.199 124.702C161.299 124.302 159.399 124.002 157.499 123.402C156.499 123.102 155.499 122.802 154.599 122.502L153.899 122.202H153.699L153.599 122.002L153.399 122.402C152.999 123.502 152.299 124.602 151.599 125.502C150.599 126.802 149.399 127.902 147.999 128.702C146.599 129.502 145.199 130.002 143.799 130.202C141.199 130.602 138.799 130.702 136.299 130.702C135.099 130.702 133.899 130.702 132.699 130.602H131.399C131.199 130.502 130.999 130.402 130.899 130.402C130.599 130.402 130.199 130.202 129.899 130.202C129.899 130.202 129.899 130.202 129.999 130.202H130.199C130.299 130.202 130.499 130.402 130.499 130.602C130.599 130.802 130.699 131.002 130.699 131.202C130.699 131.202 130.699 131.602 130.699 131.902C130.699 132.202 130.599 132.502 130.499 132.802C130.299 133.402 129.999 133.902 129.799 134.402C129.199 135.402 128.599 136.202 127.899 136.902C126.099 139.002 123.899 140.302 121.799 141.902C120.799 142.702 118.599 142.302 118.699 141.602C118.699 141.502 118.799 141.302 118.999 141.102C120.799 139.302 121.999 137.402 123.999 135.502C124.799 134.702 125.699 133.802 126.299 133.002C126.599 132.602 126.799 132.202 126.999 131.802C126.999 131.602 127.099 131.402 127.199 131.202C127.199 131.202 127.199 131.002 127.199 130.902V130.702V130.302C127.199 129.302 127.199 128.402 127.199 127.902C127.199 127.402 126.999 127.202 126.799 127.302C126.799 127.302 126.699 127.402 126.399 127.502H126.199C126.499 127.702 123.199 125.502 124.599 126.502L124.799 126.602L125.099 126.802L126.299 127.402L125.999 127.702Z" fill="black"/>
<path d="M123.2 165.198C123.6 165.798 123.9 166.398 124.3 167.098C124.4 167.298 124.3 167.698 124.9 167.798C125.2 167.798 124.7 168.298 124.8 168.498C125 169.098 125.1 169.798 125.2 170.498C125.2 171.198 125.5 171.898 125.4 172.598C125.4 173.298 124.9 173.898 124.9 174.698C124.9 175.398 124.3 175.598 124.1 176.098C123.9 176.698 123.6 177.198 123 177.498C122.6 177.698 122.2 177.798 121.9 178.198C121.8 178.398 121.8 178.798 121.5 178.998C121.3 179.198 120.9 178.998 121 179.698C121 179.698 120.8 179.698 120.7 179.698C120.2 179.498 119.9 179.698 119.8 179.998C119.7 180.298 119.5 180.398 119.3 180.498C118.7 180.798 118.1 180.998 117.4 180.998C116.9 180.998 116.4 180.798 116 180.798C115.6 180.798 115.1 180.998 114.7 180.698C114.3 180.398 114 180.298 113.6 180.298C113.4 180.298 113.2 179.898 112.9 180.498H112.8C112.4 179.598 111.5 180.498 111 179.998C110.5 179.598 109.8 179.498 109.2 179.198C109 179.198 109 178.898 108.6 179.198C108.5 179.298 108.3 179.198 108.3 179.098C108.2 178.298 107.6 178.398 107.2 177.998C106.8 177.598 106.2 177.498 106.1 176.698C106.1 176.398 105.9 176.098 105.3 176.298C105 176.398 105 175.998 104.8 175.898C104.6 175.898 104.3 175.898 104.2 175.698C104.1 175.598 104.2 175.298 104.2 175.098C104.2 175.098 104.2 175.098 104.2 174.998C103.1 174.798 103.3 173.498 102.8 172.798C102.2 172.098 101.9 170.998 101.9 169.898C101.9 169.298 102.2 168.498 103.4 168.498C103.9 168.498 104.5 168.698 104.7 168.898C104.9 169.098 105.1 169.198 105.2 169.298C105.2 169.498 105.4 169.598 105.5 169.698C105.7 169.998 106.3 170.098 106.1 170.498C106.1 170.598 106.4 170.598 106 170.898V170.998C106.9 170.998 106.7 171.698 107.1 172.198C107.4 172.598 108.2 172.498 108.3 172.998C108.9 172.698 109 172.998 109.1 173.298C109.3 174.398 110.4 174.598 111.2 175.098C112 175.598 112.9 175.798 113.8 176.098C114 176.098 114.2 175.798 114.3 176.098C114.4 176.398 114.7 176.198 114.9 176.198C115.1 176.198 115.3 176.198 115.4 176.198C116.1 176.898 116.8 176.498 117.3 176.398C117.9 176.398 118.5 176.098 119 175.598C119.3 175.298 119.3 174.798 119.6 174.598C119.7 174.598 119.6 174.198 120.2 174.398C120.4 174.398 120.1 174.098 120.2 173.998C120.2 173.798 120.5 173.498 120.6 173.298C120.8 172.998 120.9 172.698 120.9 172.298C120.9 172.098 120.7 171.798 120.7 171.598C120.7 171.398 120.7 171.198 120.7 170.998C120.7 170.698 121 170.398 121 170.098C121 169.798 120.7 169.498 120.8 169.198C121.1 168.498 120.6 167.998 120.4 167.498C120.1 166.998 119.8 166.398 119.3 166.098C119 165.898 119.1 165.298 118.8 165.098C118.7 165.098 119.3 163.698 119.7 163.298L119.9 163.198C120.5 163.098 121.3 162.798 121.7 163.198C122.3 163.798 122.8 164.398 123.3 165.098L123.2 165.198Z" fill="black"/>
</svg>
