<svg width="300" height="300" viewBox="0 0 300 300" fill="none" xmlns="http://www.w3.org/2000/svg">
<path d="M176.6 132.902C174.9 131.102 173.2 129.202 171.5 127.402C170.8 126.702 170.4 125.902 169.3 125.502C168.8 125.302 168.6 124.202 168 123.602C166.4 121.902 164.8 120.202 163.2 118.502C161.6 116.902 160 115.702 158.4 115.202C156.8 114.602 154.7 114.102 152.5 114.402C150.7 114.602 149 114.102 147.3 114.302C145.4 114.502 143.5 114.702 141.7 114.602C140.4 114.602 139 114.502 137.7 114.802C136.9 115.002 136.2 115.402 135.3 115.502C134.5 115.602 133.5 115.502 132.9 116.302C132.9 116.302 132.5 116.302 132.3 116.302C131.3 116.102 130.3 116.302 129.6 116.802C129 117.202 128.3 117.402 127.7 117.502C125.9 118.002 124.1 118.502 122.5 119.102C121.3 119.502 120.1 119.902 119.1 120.502C118 121.202 117.5 122.302 116.7 123.102C115.9 123.902 115.5 125.002 115.2 126.202C115 126.902 114.6 127.602 115.2 128.302C115.2 128.302 115.2 128.602 115.2 128.702C114.1 130.702 115.2 132.902 115 135.002C114.8 137.302 115 139.602 115 141.902C115 142.502 114.9 143.202 115.4 143.702C115.6 143.902 115.6 144.502 115.5 144.802C115 146.502 115.5 148.302 115.5 150.102C115.5 152.102 116.1 154.102 115.8 156.102C115.7 157.002 115.8 158.102 116.4 159.102C116.7 159.502 116.6 160.502 116.8 161.302C116.9 161.902 117.3 162.402 117.4 163.002C117.4 163.502 117.4 164.002 117.3 164.602C117.3 164.802 117.3 164.902 117.3 165.102C118.4 167.902 118 170.902 118.7 173.802C119.4 176.702 119.9 179.702 120.3 182.602C120.6 184.202 120.7 185.902 119.8 187.302C119.4 187.902 118.8 188.002 118.4 187.302C118.1 186.802 117.7 186.302 117.6 185.702C117.3 184.802 117 183.902 116.8 183.002C116.3 181.202 115.4 179.402 115.3 177.402C115.3 176.802 114.9 176.102 115.3 175.502C115.3 175.502 115.3 175.202 115.3 175.002C114.1 172.502 114.1 169.702 113.6 167.102C113.2 164.802 112.2 162.702 112.2 160.402C111.4 159.202 111.3 157.702 111.4 156.402C111.5 151.802 110.7 147.302 110.6 142.702C110.6 140.402 110.5 138.002 110.5 135.702C110.5 133.402 110.5 131.002 110.8 128.602C110.8 127.802 110.6 127.002 111.1 126.002C111.5 125.102 111.7 123.902 112.1 122.802C112.5 121.802 112.9 120.702 113.6 120.002C116.6 116.802 120.3 114.902 123.8 113.802C127.3 112.802 130.9 112.002 134.5 111.302C136.7 110.802 138.8 110.202 141.1 110.102C142.1 110.102 143 109.602 144 110.102C144.3 110.302 145.1 109.802 145.8 109.702C147.3 109.602 148.9 109.602 150.4 109.602C152.5 109.602 154.6 109.602 157 110.002C158.4 110.202 159.9 110.302 161.4 111.002C162.9 111.702 164.2 112.802 165.2 113.802C166.5 115.202 167.4 116.502 168.5 117.802C169.6 119.102 171.1 120.302 172 121.702C173.8 124.302 176.1 126.402 178.1 128.702C180.2 131.002 182.2 133.302 184.4 135.502C185.6 136.702 186.4 138.202 187.5 139.502C188 140.102 187.7 141.902 187.1 142.002C187 142.002 186.8 142.002 186.7 142.002C185.2 141.102 183.6 140.502 182.4 139.002C180.5 136.902 178.5 134.802 176.6 132.802V132.902Z" fill="black"/>
<path d="M166.101 147.302C166.501 147.102 166.801 147.002 167.201 146.702C167.301 146.702 167.601 146.702 167.501 146.202C167.501 145.902 167.901 146.402 168.001 146.402C168.301 146.202 168.701 146.102 169.001 145.902C169.301 145.702 169.501 145.302 169.801 145.102C170.101 144.902 170.601 145.102 170.801 144.602C171.001 144.202 171.401 144.602 171.601 144.302C171.801 144.102 172.101 143.902 172.501 144.002C172.801 144.002 173.101 144.202 173.201 144.002C173.201 143.902 173.201 143.502 173.401 143.502C173.501 143.502 173.801 143.702 173.701 143.002C173.701 143.002 173.701 143.002 173.901 143.002C174.201 143.302 174.401 143.202 174.401 143.002C174.401 142.702 174.501 142.702 174.601 142.602C174.901 142.502 175.201 142.302 175.501 142.302C175.701 142.302 176.001 142.302 176.301 142.302C176.501 142.302 176.701 141.902 177.001 142.102C177.301 142.302 177.501 142.202 177.701 142.102C177.801 142.102 178.101 142.302 177.901 141.602C178.501 142.302 178.501 141.102 178.901 141.202C179.301 141.202 179.601 141.002 180.001 140.902C180.001 140.902 180.301 141.002 180.201 140.502C180.201 140.302 180.201 140.302 180.401 140.402C180.901 140.902 181.001 140.402 181.301 140.402C181.601 140.402 181.901 140.002 182.301 140.402C182.501 140.602 182.701 140.602 182.701 140.002C182.701 139.702 182.901 140.002 183.001 139.802C183.001 139.802 183.001 139.402 183.201 139.402C183.201 139.402 183.401 139.602 183.501 139.702C183.801 138.902 184.501 139.702 184.901 139.302C185.301 139.002 185.801 138.902 186.301 138.902C186.601 138.902 186.901 138.902 187.401 140.002C187.601 140.502 187.801 141.002 187.701 141.402C187.701 141.702 187.701 141.902 187.601 142.002C187.501 142.102 187.401 142.302 187.301 142.402C187.101 142.702 186.901 143.302 186.601 143.102C186.501 143.102 186.501 143.402 186.201 142.902C186.001 143.802 185.501 143.402 185.101 143.602C184.801 143.802 184.601 144.502 184.201 144.302C184.201 145.002 184.001 144.902 183.701 144.802C182.801 144.402 182.301 145.002 181.601 145.202C180.901 145.302 180.301 145.702 179.601 145.902C179.501 145.902 179.601 146.302 179.301 146.102C179.101 145.902 179.001 146.102 178.801 146.202C178.701 146.202 178.601 146.402 178.401 146.302C177.601 145.902 177.301 146.502 176.701 146.602C176.201 146.702 175.601 146.902 175.201 147.302C174.901 147.502 174.801 148.002 174.401 148.002C174.201 148.002 174.201 148.402 173.901 147.902C173.801 147.802 173.901 148.202 173.801 148.302C173.601 148.402 173.401 148.502 173.201 148.602C172.901 148.702 172.601 148.802 172.301 149.002C172.101 149.102 172.101 149.402 171.901 149.602C171.701 149.702 171.601 149.802 171.301 149.902C171.001 149.902 170.701 149.902 170.401 149.902C170.101 149.902 170.001 150.302 169.601 150.202C168.901 150.002 168.601 150.402 168.201 150.602C167.701 150.802 167.301 150.902 166.901 151.302C166.701 151.502 166.201 151.202 166.001 151.302C165.901 151.302 165.101 150.102 164.901 149.702V149.502C164.901 149.002 164.801 148.202 165.101 148.102C165.501 148.002 165.901 147.702 166.301 147.502L166.101 147.302Z" fill="black"/>
<path d="M168.6 166.202C168.6 165.902 168.5 165.502 168.3 165.202C168.3 165.102 168.5 164.902 167.9 164.902C167.6 164.902 168.2 164.602 168.2 164.502C168.1 164.202 168.1 163.902 167.9 163.602C167.8 163.302 167.5 163.102 167.3 162.802C167.2 162.502 167.3 162.102 167 161.902C166.7 161.702 167.1 161.402 167 161.202C166.8 161.002 166.7 160.702 166.8 160.402C166.9 160.202 167.1 160.002 166.9 159.802C166.9 159.802 166.5 159.702 166.5 159.602C166.5 159.502 166.7 159.302 166.1 159.302C166.1 159.302 166.1 159.302 166.2 159.202C166.6 159.002 166.5 158.802 166.2 158.802C165.9 158.802 165.9 158.702 165.9 158.602C165.9 158.402 165.7 158.102 165.7 157.902C165.7 157.702 165.9 157.502 165.9 157.302C165.9 157.102 165.6 157.002 165.9 156.702C166.2 156.402 166.1 156.302 166 156.102C166 156.102 166.2 155.802 165.6 155.902C166.3 155.402 165.2 155.402 165.3 155.102C165.4 154.802 165.3 154.502 165.1 154.202C165.1 154.202 165.2 154.002 164.8 154.002C164.6 154.002 164.6 154.002 164.7 153.902C165.2 153.502 164.8 153.402 164.9 153.102C164.9 152.802 164.6 152.602 164.9 152.202C165.1 152.002 165.1 151.902 164.5 151.902C164.2 151.902 164.5 151.702 164.4 151.602C164.4 151.602 164 151.602 164 151.502C164 151.502 164.2 151.302 164.3 151.202C163.6 151.002 164.3 150.402 164 150.102C163.7 149.802 163.7 149.402 163.6 149.002C163.6 148.802 163.6 148.502 164.7 148.002C165.2 147.802 165.7 147.602 166 147.602C166.2 147.602 166.5 147.602 166.6 147.602C166.7 147.602 166.9 147.802 167 147.902C167.3 148.102 167.9 148.202 167.7 148.502C167.7 148.602 168 148.602 167.5 148.802C168.4 148.902 168 149.402 168.1 149.802C168.2 150.102 168.9 150.202 168.7 150.602C169.4 150.602 169.3 150.802 169.2 151.002C168.7 151.802 169.3 152.202 169.4 152.902C169.4 153.502 169.7 154.102 169.8 154.702C169.8 154.802 170.2 154.802 170 155.002C169.8 155.202 170 155.302 170 155.402C170 155.502 170.2 155.602 170 155.802C169.5 156.402 170 156.802 170 157.302C170 157.802 170 158.302 170.4 158.702C170.6 159.002 171 159.202 170.9 159.502C170.9 159.602 171.2 159.702 170.7 159.902C170.5 159.902 171 159.902 171.1 160.102C171.1 160.302 171.2 160.502 171.3 160.702C171.3 161.002 171.3 161.302 171.5 161.502C171.5 161.702 171.9 161.802 172 161.902C172.1 162.102 172.1 162.202 172.1 162.402C172.1 162.602 171.9 162.902 171.9 163.102C171.9 163.302 172.2 163.502 172 163.802C171.6 164.302 172 164.702 172 165.102C172 165.502 172.1 165.902 172.3 166.302C172.4 166.502 172 166.802 172.1 167.102C172.1 167.102 170.7 167.702 170.2 167.802H170C169.5 167.802 168.7 167.802 168.7 167.402C168.7 167.002 168.5 166.702 168.4 166.302L168.6 166.202Z" fill="black"/>
<path d="M162.2 186.203C162.3 185.803 162.5 185.403 162.5 185.003C162.5 184.803 162.8 184.803 162.4 184.503C162.2 184.303 162.8 184.403 162.8 184.203C162.8 183.803 163.1 183.503 163.1 183.103C163.1 182.703 163.1 182.303 163.1 181.903C163.1 181.503 163.6 181.303 163.4 180.803C163.2 180.403 163.8 180.303 163.8 180.003C163.8 179.703 163.8 179.303 164.1 179.103C164.3 178.903 164.6 178.803 164.6 178.603C164.6 178.403 164.3 178.203 164.4 178.103C164.4 178.003 164.8 177.903 164.2 177.603C164.2 177.603 164.2 177.603 164.4 177.603C164.8 177.603 164.9 177.403 164.6 177.203C164.4 177.003 164.5 176.903 164.5 176.803C164.5 176.503 164.6 176.203 164.8 175.903C164.9 175.703 165.2 175.603 165.4 175.403C165.5 175.203 165.4 174.903 165.7 174.703C166.1 174.603 166.1 174.403 166.2 174.203C166.2 174.103 166.6 174.003 166 173.703C166.9 173.703 166 173.003 166.3 172.703C166.6 172.403 166.6 172.003 166.7 171.703C166.7 171.703 166.9 171.603 166.5 171.303C166.4 171.303 166.4 171.103 166.5 171.103C167.2 171.103 166.9 170.603 167.1 170.403C167.3 170.103 167.1 169.703 167.7 169.603C167.9 169.603 168.1 169.403 167.6 169.103C167.4 168.903 167.6 168.903 167.6 168.803C167.6 168.703 167.3 168.503 167.4 168.403C167.4 168.403 167.7 168.403 167.8 168.303C167.3 167.703 168.3 167.503 168.2 167.003C168.2 166.703 168.2 166.603 168.2 166.303C168.2 166.003 168.4 165.703 168.6 165.303C168.8 164.903 169.3 164.503 170.4 165.103C170.9 165.303 171.3 165.703 171.5 166.003C171.6 166.203 171.8 166.403 171.8 166.503C171.8 166.603 171.9 166.803 172 166.903C172.1 167.103 172.6 167.403 172.2 167.703C172.1 167.703 172.3 168.003 171.8 167.903C172.5 168.503 171.8 168.903 171.8 169.303C171.8 169.703 172.2 170.203 171.8 170.503C172.3 170.903 172.2 171.103 171.9 171.203C171 171.703 171.2 172.503 170.9 173.203C170.6 173.903 170.4 174.603 170.1 175.303C170.1 175.403 170.4 175.603 170.1 175.703C169.8 175.703 169.9 176.003 169.9 176.103C169.9 176.203 169.9 176.403 169.7 176.503C168.9 176.803 169.1 177.503 168.8 178.003C168.5 178.503 168.3 179.003 168.3 179.603C168.3 180.003 168.5 180.403 168.3 180.703C168.2 180.803 168.5 181.103 167.9 181.003C167.7 181.003 168.1 181.303 168.1 181.403C168.1 181.603 168 181.903 167.9 182.103C167.8 182.403 167.6 182.703 167.6 183.103C167.6 183.303 167.7 183.603 167.7 183.803C167.7 184.003 167.7 184.203 167.5 184.403C167.3 184.603 167.1 184.803 166.9 185.103C166.8 185.303 166.9 185.703 166.6 185.903C166 186.203 166.1 186.803 165.9 187.203C165.7 187.603 165.5 188.103 165.5 188.603C165.5 188.903 165 189.003 164.9 189.203C164.9 189.303 163.4 189.203 162.9 189.003H162.7C162.3 188.603 161.7 188.203 161.8 187.903C162 187.403 162.1 187.003 162.2 186.503V186.203Z" fill="black"/>
<path d="M151.001 135.801C151.001 136.001 150.901 136.101 150.901 136.301C150.901 136.301 150.601 136.301 151.101 136.601C151.401 136.601 150.701 136.601 150.701 136.601C150.701 136.801 150.701 136.901 150.701 137.101C150.701 137.301 150.901 137.501 150.901 137.601C150.901 137.801 150.601 137.901 150.901 138.101C151.201 138.301 150.601 138.301 150.701 138.401C150.801 138.601 150.901 138.701 150.701 138.801C150.501 138.801 150.301 138.901 150.401 139.001C150.401 139.001 150.801 139.201 150.701 139.201C150.701 139.201 150.401 139.201 151.001 139.401C151.001 139.401 151.001 139.401 150.801 139.401C150.401 139.401 150.401 139.401 150.701 139.601C151.001 139.601 150.901 139.701 150.901 139.801C150.901 139.901 150.901 140.101 150.901 140.201C150.901 140.201 150.601 140.401 150.501 140.501C150.501 140.501 150.701 140.701 150.401 140.801C150.101 140.801 150.101 141.001 150.101 141.101C150.101 141.101 149.801 141.201 150.401 141.301C149.601 141.401 150.601 141.601 150.401 141.801C150.201 142.001 150.401 142.101 150.401 142.301C150.401 142.301 150.201 142.301 150.701 142.401C150.901 142.401 150.901 142.401 150.701 142.401C150.101 142.501 150.501 142.601 150.301 142.801C150.201 142.901 150.501 143.101 150.001 143.201C149.801 143.201 149.701 143.401 150.301 143.401C150.601 143.401 150.301 143.501 150.301 143.601C150.301 143.601 150.601 143.601 150.601 143.701C150.601 143.701 150.401 143.701 150.301 143.801C151.001 144.001 150.101 144.201 150.301 144.401C150.501 144.601 150.401 144.801 150.301 145.001C150.301 145.101 150.101 145.301 148.901 145.401C148.401 145.401 147.801 145.501 147.501 145.501C147.301 145.501 147.001 145.501 147.001 145.501C146.901 145.501 146.801 145.401 146.701 145.301C146.501 145.201 145.901 145.101 146.201 144.901C146.201 144.901 146.001 144.901 146.501 144.701C145.701 144.501 146.201 144.301 146.101 144.101C146.101 143.901 145.401 143.801 145.701 143.601C145.101 143.601 145.201 143.401 145.401 143.301C146.101 142.901 145.601 142.601 145.701 142.201C145.701 141.801 145.701 141.501 145.701 141.101C145.701 141.101 145.401 141.001 145.701 140.901C146.001 140.901 145.701 140.701 145.701 140.701C145.701 140.701 145.601 140.501 145.701 140.501C146.401 140.301 146.001 139.901 146.101 139.701C146.201 139.401 146.301 139.101 146.101 138.801C146.101 138.601 145.701 138.401 145.901 138.201C145.901 138.201 145.601 138.001 146.201 138.001C146.401 138.001 145.901 137.901 145.901 137.801C145.901 137.701 145.901 137.601 145.901 137.401C145.901 137.201 146.001 137.101 145.901 136.901C145.901 136.801 145.701 136.601 145.601 136.501C145.601 136.401 145.601 136.301 145.601 136.201C145.701 136.101 145.901 136.001 146.001 135.901C146.001 135.801 145.901 135.601 146.201 135.501C146.801 135.401 146.601 135.101 146.701 134.801C146.801 134.601 146.901 134.401 146.901 134.101C146.901 133.901 147.401 134.001 147.401 133.801C147.401 133.801 148.901 134.101 149.301 134.201H149.501C149.901 134.501 150.601 134.801 150.501 134.901C150.401 135.101 150.401 135.301 150.301 135.501L151.001 135.801Z" fill="black"/>
<path d="M162.3 135.801C162.3 136.001 162.2 136.101 162.2 136.301C162.2 136.301 161.9 136.301 162.4 136.601C162.7 136.601 162 136.601 162 136.601C162 136.801 162 136.901 162 137.101C162 137.301 162.2 137.501 162.2 137.601C162.2 137.801 161.9 137.901 162.2 138.101C162.5 138.301 161.9 138.301 162 138.401C162.1 138.601 162.2 138.701 162 138.801C161.8 138.801 161.6 138.901 161.7 139.001C161.7 139.001 162.1 139.201 162 139.201C162 139.201 161.7 139.201 162.3 139.401C162.3 139.401 162.3 139.401 162.1 139.401C161.7 139.401 161.7 139.401 162 139.601C162.3 139.601 162.2 139.701 162.2 139.801C162.2 139.901 162.2 140.101 162.2 140.201C162.2 140.201 161.9 140.401 161.8 140.501C161.8 140.501 162 140.701 161.7 140.801C161.4 140.801 161.4 141.001 161.4 141.101C161.4 141.101 161.1 141.201 161.7 141.301C160.9 141.401 161.9 141.601 161.7 141.801C161.5 142.001 161.7 142.101 161.7 142.301C161.7 142.301 161.5 142.301 162 142.401C162.2 142.401 162.2 142.401 162 142.401C161.4 142.501 161.8 142.601 161.6 142.801C161.5 142.901 161.8 143.101 161.3 143.201C161.1 143.201 161 143.401 161.6 143.401C161.9 143.401 161.6 143.501 161.6 143.601C161.6 143.601 161.9 143.601 161.9 143.701C161.9 143.701 161.7 143.701 161.6 143.801C162.3 144.001 161.4 144.201 161.6 144.401C161.8 144.601 161.7 144.801 161.6 145.001C161.6 145.101 161.4 145.301 160.2 145.401C159.7 145.401 159.1 145.501 158.8 145.501C158.6 145.501 158.3 145.501 158.3 145.501C158.2 145.501 158.1 145.401 158 145.301C157.8 145.201 157.2 145.101 157.5 144.901C157.5 144.901 157.3 144.901 157.8 144.701C157 144.501 157.5 144.301 157.4 144.101C157.4 143.901 156.7 143.801 157 143.601C156.4 143.601 156.5 143.401 156.7 143.301C157.4 142.901 156.9 142.601 157 142.201C157 141.801 157 141.501 157 141.101C157 141.101 156.7 141.001 157 140.901C157.3 140.901 157 140.701 157 140.701C157 140.701 156.9 140.501 157 140.501C157.7 140.301 157.3 139.901 157.4 139.701C157.5 139.401 157.6 139.101 157.4 138.801C157.4 138.601 157 138.401 157.2 138.201C157.2 138.201 156.9 138.001 157.5 138.001C157.7 138.001 157.2 137.901 157.2 137.801C157.2 137.701 157.2 137.601 157.2 137.401C157.2 137.201 157.3 137.101 157.2 136.901C157.2 136.801 157 136.601 156.9 136.501C156.9 136.401 156.9 136.301 156.9 136.201C157 136.101 157.2 136.001 157.3 135.901C157.3 135.801 157.2 135.601 157.5 135.501C158.1 135.401 157.9 135.101 158 134.801C158.1 134.601 158.2 134.401 158.2 134.101C158.2 133.901 158.7 134.001 158.7 133.801C158.7 133.801 160.2 134.101 160.6 134.201H160.8C161.2 134.501 161.9 134.801 161.8 134.901C161.7 135.101 161.7 135.301 161.6 135.501L162.3 135.801Z" fill="black"/>
<path d="M162.599 169.701C162.399 169.701 162.099 169.801 161.899 169.901C161.899 169.901 161.699 169.701 161.699 170.301C161.699 170.601 161.499 170.001 161.399 170.001C161.199 170.101 160.899 170.001 160.699 170.201C160.499 170.201 160.299 170.601 159.999 170.601C159.799 170.601 159.499 170.401 159.299 170.701C159.099 171.001 158.899 170.501 158.699 170.701C158.499 170.801 158.299 170.901 158.099 170.701C157.999 170.501 157.799 170.301 157.699 170.401C157.699 170.401 157.499 170.801 157.399 170.701C157.399 170.701 157.199 170.401 157.099 171.001C157.099 171.001 157.099 171.001 157.099 170.801C157.099 170.401 156.899 170.401 156.799 170.701C156.699 171.001 156.599 170.901 156.499 170.901C156.299 170.901 156.099 170.901 155.899 170.901C155.799 170.901 155.699 170.601 155.499 170.501C155.399 170.501 155.099 170.701 155.099 170.301C155.099 170.001 154.899 169.901 154.799 169.901C154.799 169.901 154.799 169.601 154.499 170.201C154.499 169.401 153.999 170.301 153.799 170.001C153.599 169.701 153.399 169.801 153.099 169.701C153.099 169.701 153.099 169.501 152.799 169.901C152.799 170.001 152.599 170.001 152.699 169.901C152.699 169.201 152.499 169.501 152.299 169.401C152.199 169.201 151.799 169.401 151.899 168.801C151.899 168.601 151.899 168.401 151.499 168.801C151.299 169.001 151.399 168.801 151.299 168.801L150.999 169.001C150.999 169.001 150.999 168.701 150.999 168.601C150.399 169.001 150.599 168.101 150.299 168.001C149.899 168.001 149.699 167.701 149.499 167.401C149.499 167.201 149.399 167.001 150.099 166.101C150.399 165.701 150.799 165.301 151.099 165.101C151.299 165.001 151.499 164.801 151.599 164.801C151.699 164.801 151.899 164.801 151.999 164.701C152.199 164.701 152.699 164.301 152.599 164.701C152.599 164.701 152.799 164.601 152.599 165.001C153.199 164.501 153.099 165.001 153.299 165.001C153.499 165.001 153.899 164.601 153.899 165.001C154.299 164.501 154.299 164.601 154.299 164.801C154.299 165.501 154.799 165.301 154.999 165.501C155.299 165.701 155.599 165.701 155.899 165.901C155.899 165.901 156.099 165.601 156.099 165.901C156.099 166.201 156.199 165.901 156.299 166.001H156.499C156.599 166.701 156.999 166.401 157.199 166.501C157.499 166.501 157.699 166.701 157.999 166.501C158.199 166.501 158.299 166.101 158.499 166.201C158.499 166.201 158.599 165.901 158.699 166.501C158.699 166.701 158.699 166.201 158.799 166.201C158.899 166.201 158.999 166.201 159.099 166.201C159.199 166.201 159.399 166.201 159.499 166.201C159.499 166.201 159.699 165.901 159.699 165.801C159.699 165.801 159.899 165.801 159.999 165.801C160.099 165.801 160.299 166.001 160.399 166.101C160.499 166.101 160.599 165.801 160.799 166.101C161.099 166.501 161.299 166.201 161.499 166.201C161.699 166.201 161.999 166.201 162.099 166.001C162.099 165.901 162.499 166.301 162.599 166.301C162.599 166.301 163.299 167.601 163.499 168.101V168.301C163.499 168.801 163.699 169.501 163.499 169.501C163.199 169.501 162.899 169.701 162.699 169.801L162.599 169.701Z" fill="black"/>
<path d="M180.399 122.3C181.499 121.8 182.499 121.3 183.499 120.7C183.899 120.5 184.399 120.5 184.499 119.8C184.499 119.5 185.199 119.8 185.499 119.5C186.399 118.8 187.299 118.3 187.999 117.6C188.699 116.9 189.099 116.1 189.499 115.3C189.899 114.6 190.399 113.9 190.099 113.2C189.899 112.7 190.299 112.1 190.099 111.5C189.799 110.9 189.399 110.4 189.199 109.7C188.999 109.2 188.799 108.7 188.399 108.4C188.099 108.2 187.699 108.4 187.399 108.1C187.199 107.9 186.899 107.5 186.399 107.9C186.399 107.9 186.299 107.8 186.199 107.7C186.099 107.2 185.599 107 185.199 107.1C184.799 107.2 184.599 107.1 184.299 107.1L181.899 106.5C181.299 106.3 180.699 106 179.999 105.9C179.299 105.7 178.599 105.9 177.999 105.6C177.399 105.3 176.799 105.2 176.099 105.2C175.699 105.2 175.299 104.9 174.999 105.5H174.799C173.799 104.7 172.799 105.8 171.799 105.7C170.699 105.6 169.699 105.9 168.699 106.1C168.399 106.1 168.099 106.1 167.899 106.5C167.899 106.7 167.599 106.7 167.399 106.7C166.499 106.3 165.799 106.8 164.999 107C164.099 107.2 163.299 107.7 162.299 107.6C161.899 107.6 161.299 107.6 161.099 108.4C161.099 108.7 160.499 108.7 160.199 108.9C159.999 109.1 159.899 109.4 159.599 109.6C159.399 109.7 159.099 109.6 158.799 109.6C158.799 109.6 158.599 109.6 158.599 109.7C157.799 111 156.099 110.9 154.899 111.8C153.699 112.7 152.199 113.4 150.699 113.9C149.799 114.2 148.799 114.3 147.999 113.3C147.599 112.9 147.499 112.3 147.799 111.9C147.999 111.6 148.199 111.3 148.399 111.2C148.799 111 149.099 110.7 149.499 110.5C150.199 110 150.699 109.2 151.699 109C151.999 109 152.099 108.5 152.599 108.9H152.799C153.499 107.6 154.799 107.4 155.999 106.7C156.899 106.1 157.599 105 158.799 104.7C159.099 103.8 159.899 103.6 160.599 103.6C162.999 103.4 165.099 102.3 167.399 102C169.699 101.6 172.099 101.4 174.399 101.4C174.799 101.4 175.099 101 175.599 101.4C175.999 101.7 176.599 101.4 177.099 101.5C177.599 101.5 178.099 101.5 178.499 101.6C180.199 102.4 182.099 102.2 183.899 102.8C185.699 103.3 187.499 104 189.299 105C190.399 105.6 191.599 106.2 192.299 107.4C192.599 107.9 193.199 108.2 192.999 109C192.999 109.2 193.599 109.5 193.699 109.8C194.099 110.6 194.299 111.6 194.399 112.5C194.499 113.9 194.299 115.2 193.799 116.5C193.499 117.3 193.399 118.1 192.999 118.7C192.599 119.4 192.099 120 191.499 120.5C190.799 121.1 189.899 121.6 189.199 122.1C188.399 122.6 187.799 123.4 186.899 123.6C185.299 124 184.099 125 182.699 125.6C181.299 126.2 179.899 126.8 178.599 127.6C177.799 128 176.899 127.8 176.199 128.2C175.799 128.4 174.799 127.2 174.699 126.7C174.699 126.6 174.699 126.5 174.699 126.4C175.299 125.7 175.699 124.7 176.499 124.4C177.799 123.9 178.999 123.3 180.199 122.7L180.399 122.3Z" fill="black"/>
<path d="M152.6 114.301C151.9 114.801 151.2 115.201 150.5 115.801C150.3 116.001 149.8 116.001 149.9 116.601C149.9 116.901 149.3 116.601 149.1 116.801C148.5 117.301 147.8 117.701 147.2 118.201C146.6 118.701 146.1 119.301 145.5 119.801C144.9 120.301 144.1 120.501 143.7 121.201C143.3 121.801 142.6 121.701 142.2 122.201C141.7 122.701 141.2 123.101 140.6 123.301C140.1 123.401 139.6 123.501 139.3 123.901C139.1 124.101 139.1 124.501 138.8 124.701C138.6 124.901 138.1 124.801 138.3 125.501C138.3 125.501 138.1 125.501 138 125.501C137.5 125.401 137.2 125.601 137.2 126.001C137.2 126.401 137 126.501 136.8 126.601C136.3 127.001 135.8 127.401 135.2 127.801C134.8 128.101 134.2 128.201 133.8 128.401C133.4 128.701 133.1 129.201 132.5 129.301C131.9 129.301 131.6 129.601 131.2 129.901C131 130.101 130.6 130.001 130.8 130.701C130.8 130.701 130.8 130.801 130.7 130.801C129.6 130.601 129.7 131.901 128.9 132.201C128.1 132.501 127.6 133.101 127 133.601C126.8 133.701 126.5 133.701 126.7 134.201C126.7 134.401 126.6 134.501 126.4 134.501C125.5 134.401 125.3 135.001 124.7 135.301C124.1 135.601 123.7 136.301 122.9 136.301C122.5 136.301 122.2 136.501 122.2 137.201C122.2 137.501 121.8 137.501 121.6 137.701C121.5 137.901 121.5 138.201 121.3 138.301C121.2 138.401 120.9 138.301 120.7 138.301C120.7 138.301 120.6 138.301 120.6 138.401C120.2 139.501 118.9 139.501 118.2 140.201C117.5 141.001 116.7 141.601 115.8 142.101C115.3 142.401 114.8 142.601 113.7 142.001C113.2 141.701 112.9 141.301 112.9 140.901C112.9 140.601 112.9 140.301 113 140.101C113.2 139.801 113.4 139.501 113.5 139.201C113.9 138.601 114.1 137.801 114.8 137.601C115 137.601 115 137.101 115.5 137.401H115.7C115.9 136.201 117 136.001 117.7 135.401C118.3 134.901 118.5 133.901 119.3 133.601C119.3 132.801 119.7 132.601 120.2 132.501C121.8 132.101 122.8 130.801 124.1 129.901C125.4 129.001 126.6 128.001 127.9 127.101C128.1 126.901 128.1 126.501 128.5 126.501C128.9 126.501 129.1 126.101 129.4 125.901C129.7 125.701 129.8 125.401 130.2 125.401C131.6 125.201 132.3 124.101 133.4 123.401C134.4 122.701 135.5 122.001 136.4 121.201C136.9 120.701 137.3 120.001 138 119.601C138.3 119.501 138.4 119.001 139 119.301C139.2 119.301 139.1 118.801 139.3 118.701C139.7 118.401 140.1 118.101 140.5 117.801C141.1 117.401 141.7 117.001 142.2 116.501C142.5 116.201 142.7 115.801 143.1 115.501C143.4 115.201 143.8 114.901 144.2 114.701C144.7 114.401 145.3 114.301 145.8 114.001C146.3 113.701 146.7 113.101 147.3 113.001C148.5 112.801 149.2 112.001 150.1 111.401C151 110.801 151.9 110.301 152.7 109.601C153.2 109.201 153.9 109.301 154.4 109.001C154.6 108.801 155.8 109.901 156 110.301C156 110.301 156 110.501 156 110.601C155.8 111.301 155.8 112.201 155.2 112.501C154.4 113.001 153.6 113.601 152.8 114.101L152.6 114.301Z" fill="black"/>
<path d="M125.7 163.799C124.9 163.399 124.3 162.899 123.5 162.499C123.2 162.399 123.1 161.999 122.5 162.199C122.2 162.299 122.3 161.599 122 161.499C121.3 161.099 120.7 160.599 120 160.099C119.3 159.699 118.6 159.299 117.9 158.799C117.3 158.299 116.9 157.499 116.1 157.099C115.4 156.699 115.4 155.899 115 155.399C114.5 154.899 114 154.299 113.9 153.499C113.9 152.999 113.9 152.399 113.6 151.999C113.4 151.699 113 151.499 113 151.199C113 150.899 113.1 150.499 112.4 150.299C112.4 150.299 112.4 150.099 112.4 149.999C112.7 149.599 112.6 149.099 112.4 148.899C112.1 148.599 112.1 148.299 112.1 148.099C112.1 147.299 112.1 146.499 112.3 145.699C112.5 145.099 112.9 144.599 113.1 144.099C113.4 143.599 113.4 142.799 114 142.499C114.5 142.199 114.8 141.699 115.2 141.299C115.4 140.999 115.9 140.999 115.6 140.399C115.6 140.399 115.6 140.299 115.7 140.299C116.3 140.299 116.6 139.999 116.9 139.599C117.2 139.199 117.5 138.799 118 138.699C119 138.499 120 137.999 121 137.899C121.3 137.899 121.5 137.999 121.8 137.599C121.8 137.399 122.2 137.399 122.3 137.599C123 138.299 123.7 137.999 124.3 138.199C125 138.499 125.8 138.399 126.4 138.999C126.6 139.299 127 139.499 127.5 139.099C127.8 138.899 128 139.299 128.3 139.299C128.5 139.299 128.8 139.199 129.1 139.299C129.3 139.299 129.4 139.699 129.5 139.899C129.5 139.899 129.5 139.899 129.7 139.899C131 139.899 131.5 141.299 132.5 141.899C133.5 142.599 134.3 143.599 134.8 144.799C135.1 145.399 135.2 146.199 134.2 146.999C133.8 147.299 133.2 147.399 132.8 147.299C132.5 147.299 132.3 147.099 132.2 146.999C132 146.799 131.8 146.599 131.6 146.499C131.2 146.099 130.5 146.099 130.4 145.499C130.4 145.299 130 145.499 130.3 144.899V144.799C129.3 144.899 129 144.099 128.3 143.699C127.7 143.399 126.9 143.699 126.4 143.199C125.8 143.699 125.5 143.399 125.2 143.199C124.7 142.699 124.1 142.499 123.4 142.399C122.8 142.399 122.2 142.399 121.7 142.399C120.6 142.399 119.8 142.799 119 143.499C118.9 143.599 119 143.999 118.7 143.899C118.4 143.899 118.4 144.199 118.2 144.399C118.1 144.599 118.1 144.799 117.8 144.899C117.3 145.099 117 145.499 116.9 145.999C116.8 146.399 116.8 146.899 116.7 147.299C116.6 148.199 116.6 149.199 117 150.099C117.3 150.599 117.8 151.099 117.9 151.599C117.9 151.899 118.4 151.899 117.9 152.399C117.8 152.599 118.3 152.499 118.4 152.699C118.7 152.999 118.9 153.399 119.1 153.699C119.5 154.199 119.8 154.599 120.3 154.999C120.6 155.199 121 155.299 121.3 155.499C121.6 155.699 121.9 155.999 122.2 156.199C122.5 156.599 122.8 156.999 123.2 157.399C123.6 157.799 124.2 157.799 124.5 158.299C125 159.199 126 159.499 126.9 160.099C127.3 160.399 127.7 160.599 128 160.699C128.3 160.799 128.6 160.799 128.6 160.699C128.6 160.699 128.7 160.699 128.8 160.799L129 160.899C129 160.899 129.3 161.099 129.8 161.199C130.2 161.199 130.7 161.199 131 161.399C131 161.399 131.2 161.499 131.2 161.599C131.4 162.499 131 163.999 129.9 164.299C129.5 164.399 129.1 164.499 128.6 164.499C128.2 164.499 127.8 164.499 127.5 164.399C126.8 164.199 126.2 163.999 125.8 163.699L125.7 163.799Z" fill="black"/>
<path d="M136.5 128.2C136.5 128.5 136.5 128.8 136.6 129.1C136.6 129.2 136.4 129.3 136.9 129.4C137.2 129.4 136.5 129.6 136.6 129.7C136.6 130 136.6 130.3 136.6 130.5C136.6 130.8 136.9 131 137 131.3C137 131.6 136.8 131.9 137.1 132.1C137.4 132.3 136.9 132.5 137.1 132.7C137.2 132.9 137.3 133.2 137.1 133.4C136.9 133.6 136.7 133.7 136.8 133.9C136.8 134 137.2 134.1 137.2 134.2C137.2 134.3 136.9 134.4 137.5 134.5C137.5 134.5 137.5 134.5 137.4 134.5C137 134.6 137 134.7 137.3 134.8C137.6 134.8 137.5 135 137.5 135.1C137.5 135.3 137.5 135.6 137.5 135.8C137.5 136 137.2 136.1 137.1 136.3C137.1 136.5 137.3 136.7 137 136.8C136.7 137 136.7 137.1 136.7 137.3C136.7 137.3 136.4 137.5 137 137.6C136.2 137.8 137.2 138.1 137 138.4C136.8 138.7 136.9 139 136.9 139.2C136.9 139.2 136.7 139.3 137.2 139.5C137.4 139.5 137.4 139.6 137.2 139.6C136.6 139.7 136.9 140 136.8 140.2C136.7 140.4 136.9 140.7 136.4 140.9C136.2 140.9 136.1 141.1 136.6 141.3C136.9 141.3 136.6 141.5 136.6 141.6C136.6 141.6 136.9 141.8 136.9 141.9C136.9 141.9 136.7 141.9 136.5 142C137.1 142.5 136.2 142.7 136.3 143C136.4 143.4 136.3 143.7 136.1 144.1C136.1 144.3 135.8 144.5 134.6 144.4C134.1 144.4 133.5 144.3 133.2 144.1C133 144 132.8 143.9 132.7 143.8C132.7 143.7 132.5 143.5 132.4 143.4C132.2 143.2 131.8 142.9 132.1 142.7C132.1 142.7 131.9 142.5 132.4 142.5C131.7 142.1 132.2 141.9 132.2 141.6C132.2 141.3 131.6 141 131.9 140.8C131.3 140.6 131.4 140.4 131.6 140.3C132.3 139.9 131.9 139.3 132.1 138.8C132.2 138.3 132.1 137.8 132.3 137.3C132.3 137.3 132 137.1 132.3 137C132.6 137 132.3 136.8 132.3 136.7C132.3 136.6 132.2 136.5 132.3 136.4C133 136 132.6 135.6 132.7 135.2C132.7 134.8 132.9 134.4 132.7 134C132.7 133.8 132.3 133.5 132.4 133.3C132.4 133.2 132.1 133.1 132.7 133C132.9 133 132.4 132.9 132.4 132.8C132.4 132.6 132.4 132.5 132.4 132.3C132.4 132.1 132.4 131.8 132.4 131.6C132.4 131.5 132.1 131.3 132 131.2C132 131.1 132 130.9 132 130.8C132 130.6 132.3 130.4 132.3 130.2C132.3 130 132.1 129.8 132.3 129.6C132.8 129.2 132.5 128.9 132.5 128.5C132.5 128.2 132.5 127.8 132.4 127.5C132.4 127.3 132.8 127.1 132.8 126.9C132.8 126.9 134.2 126.5 134.7 126.5H134.9C135.4 126.6 136.1 126.7 136.1 127C136.1 127.3 136.1 127.7 136.1 128L136.5 128.2Z" fill="black"/>
<path d="M116.499 180.001C116.799 179.701 116.999 179.401 117.199 179.001C117.199 178.901 117.599 178.901 117.199 178.401C116.999 178.201 117.599 178.401 117.699 178.401C117.899 178.101 118.199 177.801 118.399 177.501C118.599 177.201 118.599 176.701 118.799 176.401C118.999 176.101 119.399 175.901 119.399 175.501C119.399 175.101 119.899 175.201 119.999 174.901C119.999 174.601 120.199 174.301 120.599 174.201C120.899 174.201 121.199 174.101 121.199 173.801C121.199 173.601 120.999 173.401 121.199 173.201C121.299 173.101 121.599 173.201 121.199 172.701C121.199 172.701 121.199 172.701 121.399 172.701C121.799 172.801 121.899 172.701 121.799 172.401C121.699 172.101 121.799 172.101 121.799 172.001C121.999 171.701 122.099 171.501 122.399 171.201C122.599 171.001 122.899 171.001 123.099 170.801C123.299 170.601 123.199 170.301 123.599 170.201C123.999 170.201 124.099 170.001 124.199 169.801C124.199 169.701 124.599 169.801 124.199 169.301C125.099 169.501 124.399 168.601 124.799 168.401C125.199 168.201 125.299 167.801 125.499 167.501C125.499 167.501 125.799 167.501 125.499 167.101C125.399 167.001 125.499 166.901 125.499 166.901C126.199 167.001 125.999 166.601 126.299 166.401C126.599 166.201 126.499 165.801 127.099 165.801C127.399 165.801 127.599 165.801 127.099 165.201C126.899 165.001 127.199 165.001 127.299 164.901C127.299 164.801 127.099 164.601 127.199 164.501C127.199 164.501 127.499 164.501 127.599 164.501C127.299 163.701 128.299 163.801 128.399 163.301C128.499 162.801 128.899 162.401 129.199 162.101C129.399 161.901 129.699 161.801 130.799 162.201C131.299 162.401 131.699 162.701 131.899 163.001C132.099 163.201 132.199 163.401 132.199 163.501C132.199 163.701 132.199 163.901 132.199 164.101C132.199 164.501 132.499 165.001 131.999 165.101C131.899 165.101 131.999 165.401 131.599 165.101H131.499C131.899 165.901 131.199 166.001 130.999 166.401C130.799 166.701 131.099 167.401 130.699 167.601C131.099 168.101 130.899 168.301 130.599 168.301C129.599 168.501 129.599 169.401 129.099 170.001C128.599 170.601 128.199 171.301 127.799 171.901C127.799 172.001 127.899 172.301 127.599 172.301C127.299 172.301 127.399 172.501 127.299 172.701C127.299 172.801 127.299 173.001 126.999 173.101C126.099 173.201 126.099 173.901 125.699 174.401C125.299 174.801 124.899 175.301 124.699 175.901C124.599 176.301 124.699 176.801 124.299 177.001C124.199 177.001 124.299 177.401 123.799 177.201C123.599 177.201 123.899 177.501 123.799 177.601C123.699 177.801 123.499 178.001 123.399 178.201C123.199 178.501 122.899 178.701 122.799 179.001C122.799 179.201 122.799 179.501 122.699 179.701C122.699 179.901 122.499 180.101 122.299 180.201C122.099 180.401 121.699 180.501 121.499 180.701C121.299 180.901 121.299 181.301 120.899 181.401C120.199 181.501 120.099 182.101 119.699 182.401C119.299 182.801 118.999 183.201 118.799 183.601C118.699 183.901 118.099 183.801 117.899 184.001C117.899 184.101 116.499 183.301 116.199 183.001C116.199 183.001 116.099 182.901 115.999 182.801C115.799 182.301 115.399 181.601 115.599 181.401C115.899 181.101 116.199 180.701 116.499 180.301V180.001Z" fill="black"/>
</svg>
