<svg width="300" height="300" viewBox="0 0 300 300" fill="none" xmlns="http://www.w3.org/2000/svg">
<path d="M184.099 141C183.699 140.6 183.399 140.2 182.999 139.8C182.799 139.7 182.999 139.3 182.399 139.6C182.099 139.7 182.399 139.1 182.399 139C181.999 138.7 181.699 138.3 181.299 137.9C180.899 137.6 180.399 137.4 180.099 137.1C179.699 136.8 179.599 136.2 179.099 136.1C178.599 136 178.699 135.4 178.399 135.2C177.999 135 177.699 134.7 177.599 134.3C177.599 134 177.499 133.6 177.199 133.5C176.999 133.5 176.699 133.5 176.599 133.4C176.499 133.3 176.599 132.9 175.999 133.2C175.999 133.2 175.999 133.1 175.999 133C176.199 132.6 175.999 132.4 175.699 132.5C175.399 132.5 175.299 132.5 175.199 132.3C174.899 132 174.599 131.7 174.399 131.4C174.199 131.1 174.199 130.8 173.999 130.5C173.799 130.2 173.399 130.2 173.399 129.7C173.399 129.3 173.199 129.1 172.999 128.9C172.899 128.8 172.999 128.4 172.399 128.8C172.699 127.9 171.599 128.3 171.399 127.8C171.199 127.3 170.799 127 170.399 126.7C170.399 126.7 170.399 126.4 169.899 126.7C169.799 126.7 169.599 126.7 169.699 126.6C169.899 125.9 169.399 125.9 169.199 125.5C168.999 125.1 168.499 125 168.499 124.3C168.499 124 168.499 123.8 167.899 124C167.599 124.1 167.699 123.8 167.499 123.7C167.399 123.7 167.099 123.7 166.999 123.7C166.999 123.7 166.999 123.4 166.999 123.2C166.099 123.2 166.299 122.1 165.699 121.8C165.099 121.5 164.699 120.9 164.399 120.4C164.199 120.1 164.099 119.7 164.799 118.8C165.099 118.4 165.499 118 165.799 117.9C166.099 117.9 166.299 117.8 166.399 117.9C166.599 117.9 166.799 118 166.999 118.1C167.399 118.3 168.099 118.1 168.199 118.7C168.199 118.9 168.599 118.7 168.199 119.2V119.3C169.199 119.2 169.199 120 169.599 120.3C169.999 120.6 170.799 120.5 170.899 121.1C171.499 120.9 171.699 121.1 171.699 121.5C171.899 122.7 172.899 123.1 173.499 123.8C174.099 124.6 174.799 125.2 175.499 126C175.599 126.1 175.999 126 175.899 126.3C175.899 126.6 176.099 126.6 176.299 126.8C176.399 126.9 176.699 127 176.699 127.2C176.699 128.2 177.599 128.5 177.999 129.1C178.499 129.7 178.999 130.3 179.599 130.8C179.999 131.1 180.599 131.2 180.799 131.6C180.799 131.8 181.299 131.7 180.999 132.3C180.999 132.5 181.399 132.3 181.499 132.3C181.799 132.5 181.999 132.8 182.199 133C182.499 133.3 182.799 133.7 183.099 134C183.299 134.2 183.699 134.2 183.899 134.4C184.099 134.6 184.299 134.8 184.499 135C184.699 135.3 184.799 135.7 184.999 136C185.199 136.3 185.699 136.4 185.699 136.9C185.699 137.7 186.399 138 186.799 138.6C187.199 139.1 187.599 139.6 188.199 140C188.499 140.2 188.399 140.8 188.599 141.1C188.699 141.2 187.799 142.4 187.399 142.7L187.199 142.8C186.599 142.8 185.899 143.1 185.599 142.8C185.199 142.3 184.799 141.9 184.399 141.5L184.099 141Z" fill="black"/>
<path d="M114.2 133.502C114.2 134.002 114.3 134.402 114.4 134.902C114.4 135.102 114.2 135.302 114.8 135.402C115.1 135.402 114.5 135.702 114.5 135.902C114.6 136.302 114.6 136.802 114.8 137.202C114.9 137.602 115.2 138.002 115.4 138.402C115.5 138.802 115.4 139.302 115.7 139.602C116 139.902 115.6 140.302 115.7 140.602C115.9 140.902 116 141.302 115.9 141.702C115.8 142.002 115.6 142.302 115.8 142.502C115.8 142.602 116.2 142.702 116.2 142.902C116.2 143.102 116 143.302 116.6 143.302C116.6 143.302 116.6 143.302 116.5 143.402C116.1 143.602 116.2 143.802 116.5 143.902C116.8 143.902 116.8 144.102 116.8 144.302C116.8 144.702 117 145.002 117 145.402C117 145.702 116.8 146.002 116.8 146.302C116.8 146.602 117.1 146.802 116.8 147.202C116.5 147.502 116.6 147.802 116.6 148.002C116.6 148.102 116.4 148.402 117 148.402C116.3 149.002 117.4 149.202 117.3 149.602C117.2 150.102 117.3 150.502 117.5 150.902C117.5 151.002 117.4 151.202 117.8 151.202C118 151.202 118 151.302 117.8 151.402C117.2 151.802 117.7 152.102 117.6 152.502C117.6 152.902 117.9 153.202 117.5 153.702C117.3 153.902 117.2 154.102 117.9 154.202C118.2 154.202 117.9 154.502 118 154.602C118 154.702 118.4 154.802 118.4 154.902C118.4 154.902 118.2 155.102 118.1 155.202C118.8 155.702 118.1 156.302 118.3 156.902C118.6 157.402 118.6 158.002 118.5 158.602C118.5 158.902 118.3 159.302 117.2 159.602C116.7 159.802 116.1 159.802 115.8 159.702C115.5 159.702 115.3 159.502 115.2 159.402C115.1 159.202 114.9 159.102 114.8 158.902C114.6 158.602 114 158.302 114.2 157.902C114.2 157.802 114 157.702 114.4 157.502C113.5 157.102 114 156.502 113.9 156.002C113.8 155.602 113.1 155.302 113.3 154.802C112.6 154.702 112.7 154.402 112.9 154.102C113.4 153.202 112.9 152.402 112.9 151.502C112.9 150.602 112.6 149.802 112.5 148.902C112.5 148.802 112.1 148.702 112.4 148.502C112.6 148.302 112.4 148.102 112.4 147.902C112.4 147.702 112.2 147.602 112.4 147.402C112.9 146.602 112.4 146.002 112.4 145.302C112.4 144.602 112.3 143.902 112 143.302C111.8 142.902 111.4 142.602 111.5 142.102C111.5 141.902 111.2 141.802 111.7 141.502C111.9 141.502 111.4 141.302 111.3 141.202C111.2 140.902 111.2 140.602 111.1 140.402C111.1 140.002 111.1 139.602 110.9 139.202C110.9 139.002 110.5 138.802 110.4 138.502C110.3 138.302 110.3 138.002 110.3 137.702C110.3 137.402 110.5 137.002 110.5 136.702C110.5 136.402 110.2 136.102 110.4 135.702C110.8 135.002 110.4 134.502 110.4 133.902C110.4 133.302 110.4 132.702 110.1 132.202C110 131.902 110.4 131.502 110.4 131.202C110.4 131.002 111.8 130.602 112.3 130.602H112.5C113 130.802 113.8 131.002 113.8 131.402C113.8 131.902 113.9 132.502 114 133.002L114.2 133.502Z" fill="black"/>
<path d="M166.101 147.298C166.501 147.098 166.801 146.998 167.201 146.698C167.301 146.698 167.601 146.698 167.501 146.198C167.501 145.898 167.901 146.398 168.001 146.398C168.301 146.198 168.701 146.098 169.001 145.898C169.301 145.698 169.501 145.298 169.801 145.098C170.101 144.898 170.601 145.098 170.801 144.598C171.001 144.198 171.401 144.598 171.601 144.298C171.801 144.098 172.101 143.898 172.501 143.998C172.801 143.998 173.101 144.198 173.201 143.998C173.201 143.898 173.201 143.498 173.401 143.498C173.501 143.498 173.801 143.698 173.701 142.998C173.701 142.998 173.701 142.998 173.901 142.998C174.201 143.298 174.401 143.198 174.401 142.998C174.401 142.698 174.501 142.698 174.601 142.598C174.901 142.498 175.201 142.298 175.501 142.298C175.701 142.298 176.001 142.298 176.301 142.298C176.501 142.298 176.701 141.898 177.001 142.098C177.301 142.298 177.501 142.198 177.701 142.098C177.801 142.098 178.101 142.298 177.901 141.598C178.501 142.298 178.501 141.098 178.901 141.198C179.301 141.198 179.601 140.998 180.001 140.898C180.001 140.898 180.301 140.998 180.201 140.498C180.201 140.298 180.201 140.298 180.401 140.398C180.901 140.898 181.001 140.398 181.301 140.398C181.601 140.398 181.901 139.998 182.301 140.398C182.501 140.598 182.701 140.598 182.701 139.998C182.701 139.698 182.901 139.998 183.001 139.798C183.001 139.798 183.001 139.398 183.201 139.398C183.201 139.398 183.401 139.598 183.501 139.698C183.801 138.898 184.501 139.698 184.901 139.298C185.301 138.998 185.801 138.898 186.301 138.898C186.601 138.898 186.901 138.898 187.401 139.998C187.601 140.498 187.801 140.998 187.701 141.398C187.701 141.698 187.701 141.898 187.601 141.998C187.501 142.098 187.401 142.298 187.301 142.398C187.101 142.698 186.901 143.298 186.601 143.098C186.501 143.098 186.501 143.398 186.201 142.898C186.001 143.798 185.501 143.398 185.101 143.598C184.801 143.798 184.601 144.498 184.201 144.298C184.201 144.998 184.001 144.898 183.701 144.798C182.801 144.398 182.301 144.998 181.601 145.198C180.901 145.298 180.301 145.698 179.601 145.898C179.501 145.898 179.601 146.298 179.301 146.098C179.101 145.898 179.001 146.098 178.801 146.198C178.701 146.198 178.601 146.398 178.401 146.298C177.601 145.898 177.301 146.498 176.701 146.598C176.201 146.698 175.601 146.898 175.201 147.298C174.901 147.498 174.801 147.998 174.401 147.998C174.201 147.998 174.201 148.398 173.901 147.898C173.801 147.798 173.901 148.198 173.801 148.298C173.601 148.398 173.401 148.498 173.201 148.598C172.901 148.698 172.601 148.798 172.301 148.998C172.101 149.098 172.101 149.398 171.901 149.598C171.701 149.698 171.601 149.798 171.301 149.898C171.001 149.898 170.701 149.898 170.401 149.898C170.101 149.898 170.001 150.298 169.601 150.198C168.901 149.998 168.601 150.398 168.201 150.598C167.701 150.798 167.301 150.898 166.901 151.298C166.701 151.498 166.201 151.198 166.001 151.298C165.901 151.298 165.101 150.098 164.901 149.698V149.498C164.901 148.998 164.801 148.198 165.101 148.098C165.501 147.998 165.901 147.698 166.301 147.498L166.101 147.298Z" fill="black"/>
<path d="M146.699 141.101C146.699 140.901 146.699 140.701 146.699 140.601C146.699 140.601 146.899 140.501 146.399 140.401C146.099 140.401 146.799 140.301 146.699 140.201C146.699 140.001 146.699 139.901 146.699 139.701C146.699 139.501 146.399 139.401 146.399 139.201C146.399 139.001 146.699 138.901 146.399 138.701C146.099 138.501 146.599 138.501 146.499 138.301C146.399 138.201 146.299 138.001 146.499 137.901C146.699 137.901 146.899 137.701 146.799 137.601C146.799 137.601 146.399 137.401 146.499 137.401C146.499 137.401 146.799 137.401 146.199 137.201C146.199 137.201 146.199 137.201 146.399 137.201C146.799 137.201 146.799 137.201 146.499 137.001C146.199 137.001 146.299 136.901 146.299 136.801C146.299 136.701 146.299 136.501 146.299 136.401C146.299 136.401 146.599 136.201 146.699 136.201C146.699 136.201 146.499 135.901 146.799 135.901C147.099 135.901 147.099 135.801 147.099 135.701C147.099 135.701 147.399 135.701 146.799 135.501C147.599 135.501 146.599 135.101 146.799 135.001C146.999 134.901 146.899 134.701 146.999 134.501C146.999 134.501 147.199 134.501 146.799 134.301C146.599 134.201 146.599 134.301 146.799 134.301C147.399 134.301 147.099 134.101 147.199 134.001C147.399 133.901 147.199 133.701 147.599 133.701C147.799 133.701 147.899 133.701 147.399 133.401C147.199 133.301 147.399 133.401 147.399 133.201L147.099 133.001C147.099 133.001 147.299 133.001 147.499 133.001C146.899 132.601 147.899 132.701 147.799 132.401C147.799 132.101 147.799 132.001 147.999 131.801C147.999 131.801 148.299 131.701 149.399 132.001C149.899 132.201 150.399 132.401 150.699 132.601C150.899 132.701 151.099 132.801 151.099 132.901C151.099 132.901 151.299 133.101 151.299 133.201C151.399 133.401 151.899 133.701 151.599 133.701C151.599 133.701 151.799 133.901 151.299 133.701C151.999 134.101 151.399 134.101 151.399 134.301C151.399 134.401 151.999 134.801 151.699 134.801C152.299 135.101 152.099 135.101 151.899 135.101C151.199 135.101 151.499 135.501 151.399 135.801C151.199 136.001 151.299 136.301 151.199 136.601C151.199 136.601 151.499 136.801 151.199 136.801C150.899 136.801 151.199 136.901 151.199 137.001C151.199 137.001 151.299 137.101 151.199 137.201C150.499 137.201 150.899 137.601 150.799 137.801C150.799 138.001 150.599 138.201 150.799 138.401C150.799 138.501 151.199 138.701 151.099 138.801C151.099 138.801 151.399 138.901 150.799 138.901C150.599 138.901 151.099 138.901 151.099 139.001C151.099 139.001 151.099 139.201 151.099 139.301C151.099 139.401 151.099 139.501 151.099 139.701L151.399 139.901V140.101C151.399 140.101 151.099 140.301 150.999 140.401C150.999 140.501 151.199 140.601 150.999 140.701C150.499 140.901 150.699 141.101 150.699 141.301C150.699 141.501 150.699 141.701 150.699 141.801C150.699 141.801 150.299 142.001 150.299 142.101C150.299 142.101 148.799 142.301 148.299 142.401H148.099C147.599 142.401 146.899 142.301 146.899 142.101C146.899 141.901 146.899 141.701 146.899 141.501L146.699 141.101Z" fill="black"/>
<path d="M157.1 141.898C157.1 141.698 157.1 141.498 157.1 141.398C157.1 141.398 157.3 141.298 156.8 141.198C156.5 141.198 157.2 141.098 157.1 140.998C157.1 140.798 157.1 140.698 157.1 140.498C157.1 140.298 156.8 140.198 156.8 139.998C156.8 139.798 157.1 139.698 156.8 139.498C156.5 139.298 157 139.298 156.9 139.098C156.8 138.998 156.7 138.798 156.9 138.698C157.1 138.698 157.3 138.498 157.2 138.398C157.2 138.398 156.8 138.198 156.9 138.198C156.9 138.198 157.2 138.198 156.6 137.998C156.6 137.998 156.6 137.998 156.8 137.998C157.2 137.998 157.2 137.998 156.9 137.798C156.6 137.798 156.7 137.698 156.7 137.598C156.7 137.498 156.7 137.298 156.7 137.198C156.7 137.198 157 136.998 157.1 136.998C157.1 136.998 156.9 136.698 157.2 136.698C157.5 136.698 157.5 136.598 157.5 136.498C157.5 136.498 157.8 136.498 157.2 136.298C158 136.298 157 135.898 157.2 135.798C157.4 135.698 157.3 135.498 157.4 135.298C157.4 135.298 157.6 135.298 157.2 135.098C157 134.998 157 135.098 157.2 135.098C157.8 135.098 157.5 134.898 157.6 134.798C157.8 134.698 157.6 134.498 158 134.498C158.2 134.498 158.3 134.498 157.8 134.198C157.6 134.098 157.8 134.198 157.8 133.998L157.5 133.798C157.5 133.798 157.7 133.798 157.9 133.798C157.3 133.398 158.3 133.498 158.2 133.198C158.2 132.898 158.2 132.798 158.4 132.598C158.4 132.598 158.7 132.498 159.8 132.798C160.3 132.998 160.8 133.198 161.1 133.398C161.3 133.498 161.5 133.598 161.5 133.698C161.5 133.698 161.7 133.898 161.7 133.998C161.8 134.198 162.3 134.498 162 134.498C162 134.498 162.2 134.698 161.7 134.498C162.4 134.898 161.8 134.898 161.8 135.098C161.8 135.198 162.4 135.598 162.1 135.598C162.7 135.898 162.5 135.898 162.3 135.898C161.6 135.898 161.9 136.298 161.8 136.598C161.6 136.798 161.7 137.098 161.6 137.398C161.6 137.398 161.9 137.598 161.6 137.598C161.3 137.598 161.6 137.698 161.6 137.798C161.6 137.798 161.7 137.898 161.6 137.998C160.9 137.998 161.3 138.398 161.2 138.598C161.2 138.798 161 138.998 161.2 139.198C161.2 139.298 161.6 139.498 161.5 139.598C161.5 139.598 161.8 139.698 161.2 139.698C161 139.698 161.5 139.698 161.5 139.798C161.5 139.798 161.5 139.998 161.5 140.098C161.5 140.198 161.5 140.298 161.5 140.498L161.8 140.698V140.898C161.8 140.898 161.5 141.098 161.4 141.198C161.4 141.298 161.6 141.398 161.4 141.498C160.9 141.698 161.1 141.898 161.1 142.098C161.1 142.298 161.1 142.498 161.1 142.598C161.1 142.598 160.7 142.798 160.7 142.898C160.7 142.898 159.2 143.098 158.7 143.198H158.5C158 143.198 157.3 143.098 157.3 142.898C157.3 142.698 157.3 142.498 157.3 142.298L157.1 141.898Z" fill="black"/>
<path d="M185.701 112.101C183.701 112.701 181.801 113.301 179.801 113.901C179.101 114.101 178.301 114.101 177.701 114.901C177.401 115.301 176.501 114.901 175.801 115.101C174.001 115.701 172.101 116.201 170.301 116.801C168.501 117.401 166.801 118.101 165.101 118.701C163.301 119.301 161.401 119.501 159.801 120.301C158.401 121.001 156.901 120.901 155.501 121.401C154.001 122.001 152.501 122.501 151.001 122.701C149.901 122.801 148.801 122.901 147.701 123.301C147.101 123.601 146.501 124.001 145.801 124.201C145.101 124.401 144.301 124.301 143.901 125.101C143.901 125.101 143.501 125.101 143.401 125.101C142.601 124.901 141.701 125.101 141.101 125.601C140.601 126.001 140.001 126.101 139.501 126.301C138.001 126.801 136.501 127.201 134.901 127.601C133.701 127.901 132.601 127.901 131.401 128.201C130.201 128.501 129.001 129.101 127.801 129.101C126.601 129.101 125.601 129.401 124.501 129.701C123.901 129.901 123.101 129.701 122.801 130.501C122.801 130.501 122.501 130.601 122.401 130.601C120.401 130.301 119.001 131.801 117.201 132.001C115.301 132.301 113.501 132.901 111.601 133.401C111.101 133.501 110.501 133.401 110.201 134.001C110.101 134.201 109.601 134.301 109.301 134.301C107.801 134.001 106.401 134.801 105.001 135.001C103.401 135.301 101.801 136.001 100.101 135.901C99.4007 135.901 98.4007 135.901 97.7007 136.801C97.4007 137.201 96.5007 137.101 96.0007 137.301C95.5007 137.501 95.1007 137.801 94.6007 138.001C94.2007 138.101 93.7007 138.001 93.3007 138.001C93.2007 138.001 93.0007 138.001 92.9007 138.001C90.7007 139.201 88.2007 138.901 85.8007 139.701C83.5007 140.401 81.0007 140.901 78.6007 141.401C77.3007 141.701 75.9007 141.801 74.7007 140.901C74.2007 140.501 74.1007 140.001 74.5007 139.501C74.9007 139.201 75.3007 138.801 75.7007 138.701C76.4007 138.401 77.2007 138.101 77.9007 137.901C79.4007 137.401 80.8007 136.501 82.4007 136.401C82.9007 136.401 83.4007 135.901 83.9007 136.401C83.9007 136.401 84.2007 136.401 84.3007 136.401C86.2007 135.101 88.5007 135.101 90.6007 134.501C92.4007 134.001 94.0007 133.001 95.9007 132.801C96.8007 131.901 98.0007 131.801 99.0007 131.701C102.701 131.501 106.201 130.101 109.801 129.301C113.501 128.501 117.101 127.401 120.701 126.501C121.301 126.301 121.801 125.901 122.601 125.901C123.301 125.901 124.201 125.501 125.001 125.301C125.701 125.101 126.501 124.801 127.201 124.701C130.201 124.601 133.001 123.401 135.801 122.701C138.601 122.001 141.501 121.301 144.301 120.301C146.001 119.701 147.601 118.901 149.401 118.501C150.201 118.301 150.801 117.801 151.701 118.201C152.001 118.301 152.501 117.701 153.001 117.501C154.201 117.101 155.401 116.801 156.501 116.501C158.101 116.001 159.801 115.601 161.401 115.001C162.401 114.701 163.301 114.101 164.301 113.801C165.301 113.401 166.401 113.101 167.401 112.901C168.701 112.601 170.101 112.401 171.501 112.001C172.901 111.701 174.201 110.901 175.601 110.801C178.201 110.501 180.501 109.601 183.001 108.901C185.401 108.201 187.901 107.501 190.201 106.601C191.501 106.101 192.901 106.201 194.301 105.801C194.901 105.601 196.201 106.701 196.101 107.301C196.101 107.401 196.101 107.501 195.901 107.601C194.701 108.501 193.801 109.501 192.201 110.001C190.001 110.601 187.801 111.401 185.501 112.101H185.701Z" fill="black"/>
<path d="M159.099 104.498C158.399 102.598 157.699 100.698 156.899 98.8984C156.599 98.1984 156.499 97.3984 155.699 96.8984C155.299 96.5984 155.699 95.6984 155.299 95.0984C154.499 93.3984 153.799 91.5984 152.899 90.0984C151.999 88.5984 150.999 87.2984 149.899 86.3984C149.399 85.8984 148.799 85.4984 148.199 85.1984C147.599 84.8984 146.899 84.6984 146.299 84.7984C145.199 84.9984 144.099 84.5984 142.899 85.0984C141.799 85.5984 140.699 86.2984 139.599 86.9984C138.799 87.4984 137.899 87.9984 137.399 88.8984C137.099 89.3984 136.999 90.0984 136.699 90.5984C136.399 91.0984 135.799 91.5984 136.099 92.4984C136.099 92.4984 135.899 92.7984 135.699 92.8984C134.999 93.3984 134.399 94.3984 133.999 95.1984C133.599 95.9984 132.899 96.5984 132.099 96.9984C130.899 97.5984 129.599 97.8984 128.499 97.7984C127.299 97.7984 126.299 97.3984 125.399 96.9984C123.999 96.2984 123.099 95.3984 122.099 94.6984C121.099 93.8984 120.099 93.5984 119.399 92.9984C118.699 92.3984 117.799 92.0984 116.899 91.9984C116.399 91.9984 115.699 91.5984 115.299 92.2984C115.299 92.2984 115.099 92.2984 114.999 92.2984C114.199 91.9984 113.399 92.0984 112.799 92.4984C112.099 92.7984 111.499 93.2984 110.799 93.5984C109.299 94.0984 108.199 95.2984 107.399 96.4984C107.199 96.8984 106.799 97.0984 106.999 97.6984C106.999 97.8984 106.999 98.2984 106.699 98.3984C105.699 99.1984 105.699 100.598 105.499 101.798C105.199 103.198 105.499 104.698 105.299 106.198C105.199 106.898 105.299 107.798 105.999 108.398C106.299 108.698 106.199 109.498 106.499 109.998C106.699 110.398 107.099 110.798 107.199 111.198C107.299 111.598 107.199 111.998 107.199 112.398C107.199 112.498 107.199 112.698 107.299 112.798C108.699 114.798 108.799 117.298 109.799 119.598C110.799 121.898 111.499 124.398 111.799 127.098C111.999 128.498 111.799 130.098 110.699 131.098C110.199 131.498 109.599 131.498 109.299 130.898C109.099 130.498 108.799 129.998 108.699 129.598C108.599 128.898 108.299 128.198 108.099 127.498C107.699 126.098 106.799 124.798 106.599 123.298C106.599 122.798 106.099 122.398 106.399 121.798C106.399 121.798 106.399 121.498 106.399 121.398C104.999 119.698 104.599 117.498 103.799 115.398C103.099 113.698 101.899 111.998 101.699 109.998C100.799 109.098 100.699 107.698 100.699 106.598C100.699 104.598 100.699 102.498 101.099 100.498C101.399 98.3984 101.999 96.2984 103.199 94.4984C104.399 92.5984 106.099 90.9984 107.999 89.8984C109.899 88.7984 111.999 88.0984 114.199 87.8984C114.599 87.8984 114.899 87.7984 115.299 87.6984C115.699 87.6984 116.099 87.6984 116.499 87.6984C116.899 87.8984 117.399 87.8984 117.899 87.9984C118.399 87.9984 118.899 88.0984 119.399 88.1984C120.299 88.3984 121.199 88.5984 121.899 89.1984C123.299 90.2984 124.399 91.2984 125.599 91.9984C126.699 92.6984 127.799 93.0984 128.799 93.1984C129.799 93.1984 130.399 93.0984 131.099 92.1984C131.799 91.3984 132.299 89.9984 133.099 88.5984C133.999 86.8984 134.899 85.0984 136.599 83.7984C137.299 83.2984 137.899 82.3984 138.899 82.3984C139.199 82.3984 139.699 81.5984 140.199 81.2984C141.499 80.5984 142.999 80.2984 144.399 80.1984C146.499 79.9984 148.599 80.3984 150.599 81.3984C151.799 81.9984 152.899 82.5984 153.899 83.4984C154.899 84.3984 155.599 85.4984 156.199 86.5984C156.899 87.9984 157.299 89.3984 157.899 90.6984C158.399 91.9984 159.299 93.2984 159.599 94.6984C160.099 97.2984 161.299 99.4984 162.199 101.898C162.999 104.298 163.799 106.698 164.799 109.098C165.299 110.398 165.199 111.798 165.599 113.198C165.799 113.798 164.599 115.098 164.099 114.998C163.999 114.998 163.899 114.998 163.799 114.798C162.999 113.598 161.899 112.698 161.499 111.198C160.899 108.998 160.099 106.898 159.299 104.698L159.099 104.498Z" fill="black"/>
<path d="M145.1 184.601C145.2 183.201 145.4 181.801 145.5 180.301C145.5 179.801 145.8 179.301 145.4 178.601C145.2 178.301 145.8 177.901 145.9 177.401C145.9 176.101 146.2 174.701 146.3 173.401C146.3 172.101 146.3 170.801 146.3 169.501C146.3 168.201 146.8 166.901 146.6 165.701C146.4 164.601 147 163.701 147 162.701C147 161.601 147 160.501 147.4 159.401L147.6 158.801V158.501C147.7 158.401 147.7 158.501 147.8 158.401C147.8 158.301 147.9 158.201 147.8 158.101C147.8 158.001 147.4 158.101 147.4 158.101C147.4 158.101 147.4 158.101 147.4 158.001C147.4 158.001 147.3 158.001 146.9 158.401C146.9 158.401 146.9 158.401 146.9 158.201C147.1 157.801 146.9 157.801 146.8 158.201C146.8 158.301 146.6 158.401 146.4 158.501C146.2 158.501 146 158.501 145.8 158.501C144.7 158.601 143.6 158.701 142.5 158.801C141.7 158.801 140.8 158.701 140 158.701C139.1 158.701 138.3 159.101 137.4 158.801C136.6 158.601 135.8 158.601 135.1 158.801C134.7 158.801 134.1 158.601 133.8 159.301C133.8 159.301 133.6 159.301 133.5 159.301C132.2 158.601 131 159.801 129.7 159.701C128.4 159.701 127 159.901 125.7 160.001C125.3 160.001 125 159.901 124.7 160.401C124.6 160.601 124.2 160.601 124 160.501C123 160.001 122 160.501 120.9 160.501C119.7 160.501 118.6 160.901 117.4 160.501C116.9 160.301 116.2 160.301 115.7 160.901C115.5 161.201 114.9 160.901 114.5 161.101C114.2 161.101 113.8 161.501 113.5 161.501C113.2 161.501 112.9 161.301 112.6 161.201C112.6 161.201 112.4 161.201 112.3 161.201C110.7 162.001 108.9 161.201 107.3 161.601C105.6 161.901 103.9 162.001 102.2 162.101C101.3 162.101 100.3 162.101 99.5002 160.901C99.2002 160.401 99.1002 159.901 99.5002 159.501C99.8002 159.201 100.1 159.001 100.4 158.901C100.9 158.701 101.5 158.601 102 158.401C103.1 158.101 104.1 157.501 105.3 157.701C105.7 157.701 106 157.401 106.4 157.901C106.4 157.901 106.6 157.901 106.7 157.901C108.1 157.001 109.7 157.401 111.3 157.201C112.6 157.001 113.8 156.301 115.1 156.501C115.8 155.801 116.6 155.801 117.4 156.001C120 156.401 122.6 155.801 125.2 155.601C127.8 155.501 130.4 155.101 133 155.001C133.4 155.001 133.8 154.601 134.3 154.801C134.8 155.001 135.4 154.801 136 154.801C136.5 154.801 137.1 154.601 137.6 154.701C139.7 155.201 141.7 154.701 143.8 154.501H145.3L147 154.301C148.6 154.201 150.3 154.001 152 153.801V154.101C152 155.101 152 156.101 152 157.201C152 157.701 152 158.301 152 158.901V159.601C152 159.801 151.9 159.901 151.9 160.101C151.8 160.601 152.1 161.201 151.4 161.701C151.2 161.801 151.6 162.401 151.6 162.701C151.6 163.601 151.4 164.401 151.4 165.301C151.3 166.501 151.1 167.701 151.1 168.901C151.1 169.601 151.2 170.401 151.2 171.101C151.2 171.901 151.2 172.601 151 173.401C150.8 174.401 150.5 175.301 150.4 176.201C150.2 177.201 150.4 178.301 150 179.201C149.3 180.901 149.4 182.701 149.2 184.501C149 186.201 148.7 188.001 148.7 189.801C148.7 190.801 148.1 191.701 148 192.601C148 193.101 146.4 193.501 145.9 193.301C145.9 193.301 145.7 193.201 145.7 193.101C145.3 192.101 144.7 191.201 144.9 190.101C145.1 188.501 145.2 186.901 145.4 185.301L145.1 184.601Z" fill="black"/>
<path d="M160.501 178.002C160.501 177.502 160.601 176.902 160.601 176.402C160.601 176.202 160.901 176.002 160.401 175.702C160.101 175.602 160.801 175.402 160.801 175.202C160.801 174.702 160.901 174.202 160.901 173.702C160.901 173.202 160.701 172.702 160.701 172.202C160.701 171.702 161.001 171.202 160.701 170.702C160.501 170.302 161.001 169.902 160.901 169.502C160.901 169.102 160.801 168.602 161.101 168.302C161.301 168.002 161.601 167.802 161.501 167.402C161.501 167.202 161.201 167.002 161.201 166.802C161.201 166.602 161.501 166.402 160.901 166.202C160.901 166.202 160.901 166.202 161.101 166.102C161.501 165.902 161.501 165.702 161.301 165.502C161.001 165.302 161.101 165.202 161.101 165.002C161.101 164.602 161.101 164.202 161.301 163.702C161.301 163.402 161.701 163.102 161.801 162.802C161.901 162.502 161.701 162.102 162.001 161.802C162.301 161.502 162.401 161.202 162.401 160.902C162.401 160.702 162.701 160.602 162.101 160.402C162.101 160.402 162.101 160.402 162.101 160.302C163.001 159.902 162.001 159.302 162.201 158.902C162.501 158.402 162.401 157.902 162.401 157.402C162.401 157.302 162.601 157.102 162.201 157.002C162.001 157.002 162.001 156.802 162.201 156.702C162.901 156.402 162.501 156.002 162.701 155.602C162.901 155.202 162.701 154.702 163.201 154.302C163.401 154.102 163.601 153.902 163.001 153.602C162.701 153.502 163.001 153.302 163.001 153.102C163.001 153.002 162.701 152.802 162.701 152.702C162.701 152.602 163.001 152.502 163.101 152.402C163.101 152.402 163.101 152.402 163.101 152.302C162.501 151.602 163.501 151.102 163.401 150.402C163.401 149.702 163.401 149.102 163.701 148.402C163.801 148.002 164.001 147.702 165.201 147.602C165.701 147.602 166.301 147.602 166.601 147.802C166.801 147.902 167.001 148.102 167.101 148.202C167.101 148.402 167.301 148.602 167.301 148.902C167.401 149.302 167.901 149.802 167.601 150.202C167.501 150.302 167.801 150.502 167.301 150.602C168.001 151.302 167.401 151.802 167.301 152.402C167.301 152.902 167.801 153.502 167.501 153.902C168.101 154.302 167.901 154.602 167.701 154.802C166.901 155.702 167.201 156.702 167.001 157.702C166.801 158.702 166.701 159.702 166.601 160.702C166.601 160.902 166.901 161.102 166.601 161.202C166.301 161.402 166.501 161.602 166.501 161.802C166.501 162.002 166.501 162.202 166.501 162.402C165.801 163.102 166.001 163.902 165.901 164.702C165.701 165.502 165.601 166.202 165.701 167.002C165.701 167.502 166.001 168.002 165.801 168.502C165.801 168.702 166.001 168.902 165.401 169.102C165.201 169.102 165.701 169.402 165.701 169.502C165.701 169.802 165.701 170.202 165.701 170.502C165.701 171.002 165.601 171.402 165.601 171.902C165.601 172.202 165.801 172.502 165.901 172.802C165.901 173.102 165.901 173.402 165.901 173.702C165.801 174.102 165.501 174.402 165.401 174.802C165.301 175.202 165.501 175.602 165.201 175.902C164.601 176.502 164.801 177.202 164.701 177.902C164.601 178.602 164.501 179.202 164.501 179.902C164.501 180.302 164.001 180.602 164.001 181.002C164.001 181.202 162.501 181.302 162.001 181.102H161.801C161.401 180.702 160.701 180.302 160.801 179.902C160.901 179.302 160.901 178.702 161.001 178.002H160.501Z" fill="black"/>
<path d="M177.901 184.802C178.201 183.802 178.501 182.902 178.701 181.902C178.701 181.502 179.101 181.302 178.701 180.702C178.501 180.402 179.201 180.302 179.301 179.902C179.501 179.002 179.901 178.102 180.101 177.202C180.301 176.302 180.401 175.402 180.701 174.502C180.901 173.602 181.501 172.902 181.601 171.902C181.601 171.102 182.301 170.602 182.501 169.902C182.701 169.102 182.901 168.402 183.401 167.802C183.801 167.402 184.201 167.002 184.301 166.402C184.301 166.102 184.301 165.602 184.301 165.302C184.501 165.002 184.901 164.702 184.401 164.202C184.401 164.202 184.501 164.102 184.601 164.002C185.101 163.802 185.301 163.402 185.201 163.002C185.101 162.602 185.201 162.402 185.301 162.102C185.601 161.402 185.901 160.702 186.301 160.002C186.301 159.802 186.301 160.002 186.401 159.902C186.401 159.902 186.401 159.902 186.501 159.902C186.501 159.902 186.701 159.902 186.701 159.802C186.801 159.702 186.501 159.802 186.901 159.502C187.201 159.302 187.301 159.202 187.401 159.102C187.401 159.102 187.301 159.102 187.201 159.102C187.201 159.102 187.201 158.802 186.601 159.402C186.901 159.002 186.601 159.102 186.501 159.202L186.301 159.402C186.301 159.402 186.301 159.402 186.101 159.402C185.201 159.202 184.301 159.402 183.301 159.402C183.101 159.402 182.801 159.202 182.601 159.702C182.601 159.902 182.301 159.902 182.101 159.702C181.401 159.102 180.701 159.402 180.001 159.302C179.201 159.202 178.401 159.402 177.601 158.902C177.301 158.702 176.801 158.602 176.401 159.102C176.201 159.402 175.801 159.102 175.501 159.102C175.301 159.102 175.001 159.402 174.801 159.402C174.601 159.402 174.401 159.202 174.201 159.002C174.201 159.002 174.101 159.002 174.001 159.002C172.801 159.602 171.701 158.702 170.501 158.902C169.301 159.102 168.101 158.902 166.901 158.902C166.201 158.902 165.601 158.602 165.201 157.502C165.001 157.002 165.001 156.402 165.201 156.102C165.401 155.902 165.601 155.602 165.901 155.602C166.301 155.502 166.701 155.402 167.001 155.302C167.801 155.102 168.501 154.602 169.301 154.902C169.501 154.902 169.801 154.702 170.001 155.202C170.001 155.202 170.101 155.302 170.201 155.202C171.301 154.402 172.301 155.002 173.401 154.902C174.301 154.902 175.201 154.202 176.101 154.502C176.601 153.902 177.201 154.002 177.701 154.202C179.501 154.902 181.301 154.502 183.101 154.602C184.001 154.602 184.901 154.602 185.801 154.602H190.401C190.901 154.602 191.801 154.302 192.201 154.602C192.501 154.802 193.301 154.702 194.001 154.602C194.001 154.602 194.001 154.702 194.001 154.802C193.701 155.402 193.601 155.902 193.101 156.602C192.101 157.902 191.501 158.902 191.001 160.002L190.601 160.802C190.501 161.002 190.301 161.402 190.301 161.502C190.201 161.802 190.001 162.202 189.901 162.502C189.201 163.702 188.601 165.002 188.201 166.302C187.901 167.102 187.901 168.002 187.501 168.802C187.301 169.102 187.501 169.602 186.801 169.702C186.601 169.702 186.801 170.202 186.801 170.402C186.601 171.002 186.401 171.502 186.201 172.002C185.901 172.802 185.601 173.502 185.401 174.302C185.301 174.802 185.401 175.302 185.201 175.802C185.101 176.302 184.901 176.802 184.701 177.302C184.401 177.902 184.001 178.402 183.701 179.102C183.401 179.702 183.501 180.502 183.001 181.002C182.201 182.002 182.001 183.202 181.701 184.402C181.301 185.502 180.901 186.702 180.801 187.902C180.801 188.402 180.401 188.702 180.201 189.102L178.301 192.102L177.401 189.602C177.401 189.402 177.201 189.202 177.101 189.002C176.901 188.702 177.801 187.502 178.301 187.302C178.301 187.302 178.501 187.302 178.601 187.302C179.001 187.402 179.501 187.502 180.001 187.702L177.101 188.302C177.001 188.002 176.901 187.702 177.101 187.302C177.401 186.202 177.701 185.102 178.001 184.002L177.901 184.802Z" fill="black"/>
<path d="M103.3 190.799C103.1 190.299 103 189.699 102.7 189.199C102.7 188.999 102.8 188.699 102.2 188.699C101.9 188.699 102.5 188.299 102.4 188.099C102.2 187.599 102.1 187.099 102 186.599C101.8 186.099 101.5 185.699 101.3 185.199C101.1 184.699 101.3 184.099 100.9 183.699C100.5 183.299 100.9 182.899 100.8 182.499C100.6 182.099 100.4 181.699 100.6 181.199C100.7 180.899 100.9 180.499 100.7 180.299C100.6 180.099 100.3 179.999 100.2 179.799C100.2 179.599 100.4 179.399 99.8 179.299C99.8 179.299 99.8 179.199 99.9 179.099C100.3 178.799 100.2 178.599 99.9 178.499C99.6 178.399 99.6 178.199 99.6 178.099C99.5 177.699 99.4 177.299 99.4 176.899C99.4 176.599 99.6 176.199 99.6 175.899C99.6 175.599 99.3 175.299 99.5 174.899C99.7 174.499 99.7 174.299 99.6 173.999C99.6 173.799 99.8 173.599 99.2 173.599C99.2 173.599 99.2 173.599 99.2 173.499C99.9 172.899 98.8 172.599 98.9 172.099C99 171.599 98.8 171.099 98.7 170.599C98.7 170.499 98.8 170.299 98.3 170.299C98.1 170.299 98.1 170.099 98.2 170.099C98.7 169.599 98.2 169.299 98.3 168.899C98.3 168.399 98 168.099 98.3 167.499C98.5 167.299 98.5 166.999 97.9 166.899C97.6 166.899 97.9 166.599 97.8 166.399C97.8 166.299 97.4 166.199 97.4 166.099C97.4 165.999 97.6 165.799 97.7 165.699C97.7 165.699 97.7 165.699 97.7 165.599C96.9 165.099 97.7 164.299 97.4 163.699C97.1 163.099 97 162.399 97 161.799C97 161.399 97 160.999 98.2 160.599C98.7 160.399 99.2 160.299 99.6 160.399C99.9 160.399 100.1 160.599 100.2 160.699C100.3 160.899 100.5 161.099 100.6 161.199C100.9 161.599 101.5 161.899 101.3 162.399C101.3 162.499 101.6 162.599 101.1 162.899C101.1 162.899 101.1 162.899 101.1 162.999C102 163.399 101.6 164.099 101.8 164.699C101.9 165.199 102.7 165.499 102.5 166.099C103.2 166.299 103.1 166.599 103 166.899C102.5 167.999 103.2 168.899 103.3 169.899C103.3 170.899 103.7 171.899 103.8 172.899C103.8 173.099 104.2 173.099 104 173.399C103.8 173.599 104 173.799 104 174.099C104 174.299 104.2 174.499 104 174.699C103.5 175.599 104 176.299 104.1 177.099C104.1 177.899 104.3 178.699 104.6 179.399C104.8 179.899 105.2 180.299 105.2 180.699C105.2 180.899 105.6 181.099 105 181.399C104.8 181.399 105.3 181.599 105.4 181.699C105.5 181.999 105.5 182.299 105.6 182.699C105.6 183.099 105.7 183.599 105.9 183.999C105.9 184.299 106.3 184.499 106.4 184.699C106.5 184.999 106.6 185.199 106.6 185.499C106.6 185.899 106.5 186.299 106.6 186.599C106.6 186.999 107 187.299 106.8 187.699C106.5 188.499 106.9 188.999 107.1 189.699C107.3 190.299 107.4 190.999 107.8 191.499C108 191.799 107.7 192.299 107.8 192.599C107.8 192.699 106.6 193.599 106.1 193.699H105.9C105.3 193.499 104.5 193.499 104.4 193.099C104.2 192.499 103.9 191.899 103.7 191.299L103.3 190.799Z" fill="black"/>
<path d="M152.9 108.398C152.1 108.598 151.3 108.798 150.5 109.098C150.2 109.198 149.8 109.098 149.7 109.698C149.7 109.998 149.1 109.498 148.9 109.598C148.2 109.898 147.4 109.998 146.6 110.298C145.9 110.598 145.2 110.998 144.5 111.298C143.8 111.598 142.9 111.498 142.3 111.998C141.8 112.398 141.1 112.098 140.5 112.398C139.9 112.698 139.3 112.898 138.6 112.898C138.1 112.898 137.6 112.798 137.2 112.898C136.9 112.998 136.8 113.398 136.5 113.498C136.2 113.498 135.8 113.398 135.7 114.098H135.5C135.1 113.798 134.7 113.898 134.5 114.198C134.3 114.498 134.1 114.598 133.9 114.598C133.3 114.798 132.7 114.998 132 115.098C131.5 115.098 131 115.098 130.5 115.098C130 115.098 129.5 115.598 129 115.398C128.5 115.198 128 115.398 127.6 115.398C127.3 115.398 127 115.298 126.9 115.898C126.9 115.898 126.8 115.898 126.7 115.898C125.8 115.298 125.3 116.498 124.5 116.498C123.7 116.498 123 116.798 122.2 116.998C122 116.998 121.7 116.998 121.7 117.398C121.7 117.598 121.5 117.598 121.3 117.598C120.6 117.098 120.1 117.598 119.5 117.598C118.8 117.598 118.2 118.098 117.4 117.798C117.1 117.698 116.7 117.698 116.5 118.298C116.5 118.598 116 118.398 115.8 118.498C115.6 118.498 115.5 118.898 115.3 118.998C115.1 118.998 114.9 118.898 114.7 118.798C114.7 118.798 114.6 118.798 114.5 118.798C113.7 119.698 112.5 118.998 111.6 119.498C110.7 119.898 109.6 120.098 108.6 120.198C108 120.198 107.4 120.198 106.8 119.198C106.5 118.698 106.4 118.198 106.6 117.798C106.7 117.498 106.9 117.298 107 117.198C107.3 116.998 107.6 116.798 107.8 116.698C108.4 116.398 108.9 115.698 109.6 115.798C109.8 115.798 110 115.498 110.3 115.898C110.3 115.898 110.4 115.898 110.5 115.898C111.2 114.898 112.2 115.198 113.1 114.898C113.8 114.698 114.4 113.898 115.2 113.998C115.5 113.298 116 113.298 116.4 113.398C118 113.698 119.4 112.898 120.9 112.598C122.4 112.298 123.9 111.798 125.4 111.498C125.7 111.498 125.8 110.998 126.2 111.198C126.5 111.398 126.9 111.098 127.2 110.998C127.5 110.998 127.8 110.698 128.1 110.798C129.4 111.098 130.5 110.398 131.7 110.198C132.9 109.998 134.1 109.698 135.2 109.198C135.9 108.898 136.5 108.398 137.3 108.298C137.6 108.298 137.9 107.898 138.3 108.298C138.4 108.398 138.6 107.898 138.8 107.798C139.3 107.598 139.8 107.498 140.3 107.398C141 107.198 141.7 107.098 142.3 106.798C142.7 106.598 143 106.298 143.4 106.098C143.8 105.898 144.3 105.798 144.7 105.698C145.3 105.698 145.9 105.698 146.4 105.598C147 105.498 147.5 105.098 148.1 105.198C149.3 105.398 150.2 104.898 151.2 104.598C152.2 104.398 153.2 104.098 154.2 103.698C154.7 103.498 155.4 103.698 156 103.698C156.3 103.698 157 104.898 157.1 105.398C157.1 105.398 157.1 105.598 157.1 105.698C156.7 106.298 156.4 107.198 155.8 107.298C154.9 107.498 154 107.798 153 108.098L152.9 108.398Z" fill="black"/>
</svg>
