<svg width="300" height="300" viewBox="0 0 300 300" fill="none" xmlns="http://www.w3.org/2000/svg">
<path d="M181.501 138.198C180.701 137.298 179.901 136.398 179.001 135.498C178.701 135.198 178.601 134.698 177.801 134.698C177.401 134.698 177.601 133.998 177.301 133.698C176.501 132.898 175.801 131.998 174.901 131.198C174.101 130.398 173.201 129.798 172.401 128.998C171.601 128.198 171.101 127.198 170.101 126.698C169.301 126.198 169.101 125.298 168.401 124.698C167.701 124.098 167.001 123.498 166.501 122.598C166.201 121.998 165.901 121.398 165.401 120.998C165.101 120.698 164.601 120.698 164.301 120.298C164.001 119.998 163.901 119.498 163.201 119.598C163.201 119.598 163.101 119.398 163.101 119.298C163.101 118.698 162.701 118.298 162.301 118.298C161.901 118.298 161.701 117.998 161.501 117.798C160.901 117.198 160.301 116.798 159.701 116.298C159.301 115.998 159.001 115.498 158.501 115.298C158.001 114.998 157.301 115.098 156.801 114.698C156.301 114.298 155.701 114.198 155.101 114.198C154.801 114.198 154.401 113.798 154.001 114.498H153.801C152.801 113.598 151.701 114.698 150.701 114.498C149.601 114.298 148.501 114.498 147.401 114.498C147.101 114.498 146.801 114.298 146.501 114.798C146.501 114.998 146.101 114.998 145.901 114.798C145.101 114.198 144.201 114.598 143.401 114.598C142.401 114.598 141.501 114.898 140.501 114.598C140.101 114.398 139.501 114.398 139.101 114.998C138.901 115.298 138.401 114.998 138.101 115.198C137.801 115.198 137.601 115.598 137.301 115.598C137.101 115.598 136.801 115.398 136.501 115.398H136.301C135.001 116.298 133.501 115.598 132.201 116.098C130.901 116.598 129.401 116.798 128.001 117.098C127.201 117.198 126.401 117.298 125.601 116.298C125.201 115.898 125.101 115.298 125.301 114.898C125.501 114.598 125.701 114.298 126.001 114.198C126.401 113.998 126.801 113.698 127.301 113.498C128.201 113.098 129.001 112.298 130.001 112.398C130.301 112.398 130.601 112.098 131.001 112.398H131.201C132.301 111.298 133.801 111.598 135.101 111.298C136.201 111.098 137.201 110.298 138.401 110.398C138.901 109.698 139.701 109.698 140.401 109.798C142.701 110.198 144.901 109.598 147.201 109.598C149.501 109.598 151.801 109.598 154.101 109.598C154.501 109.598 154.901 109.298 155.301 109.598C155.701 109.898 156.301 109.798 156.901 109.798C157.401 109.798 157.901 109.798 158.401 110.098C159.301 110.698 160.201 110.998 161.201 111.498C162.101 111.998 163.001 112.498 163.801 113.098C165.301 114.398 166.401 115.798 167.701 116.898C168.501 117.598 169.501 118.098 170.101 118.998C170.401 119.398 170.901 119.498 170.801 120.198C170.801 120.398 171.401 120.398 171.601 120.598C172.101 121.098 172.601 121.698 173.101 122.198C173.801 122.898 174.501 123.698 175.201 124.398C175.601 124.798 176.201 125.098 176.701 125.498C177.201 125.898 177.601 126.398 178.001 126.898C178.501 127.598 178.901 128.298 179.401 128.898C179.901 129.598 180.701 129.998 181.101 130.798C181.801 132.298 183.001 133.198 184.001 134.298C185.001 135.398 186.001 136.598 187.101 137.598C187.701 138.198 187.901 139.098 188.501 139.698C188.801 139.998 188.001 141.398 187.601 141.598C187.601 141.598 187.401 141.598 187.301 141.598C186.401 141.298 185.401 141.298 184.801 140.598C183.901 139.498 182.901 138.598 182.001 137.598L181.501 138.198Z" fill="black"/>
<path d="M116.401 152.899C116.401 153.499 116.401 154.199 116.401 154.799C116.401 154.999 116.201 155.299 116.701 155.499C117.001 155.599 116.301 155.799 116.401 156.099C116.401 156.699 116.401 157.299 116.401 157.799C116.401 158.399 116.701 158.899 116.801 159.499C116.801 160.099 116.601 160.599 117.001 161.199C117.301 161.599 116.801 162.099 117.001 162.499C117.201 162.999 117.301 163.399 117.001 163.899C116.901 164.199 116.701 164.599 116.801 164.899C116.801 165.099 117.201 165.299 117.201 165.499C117.201 165.699 117.001 165.999 117.601 166.099C117.601 166.099 117.601 166.199 117.501 166.299C117.101 166.599 117.201 166.799 117.501 166.999C117.801 167.099 117.801 167.299 117.801 167.499C117.801 167.999 118.001 168.399 118.001 168.899C118.001 169.299 117.801 169.599 117.801 169.999C117.801 170.399 118.101 170.699 117.901 171.099C117.701 171.499 117.701 171.799 117.801 172.099C117.801 172.299 117.601 172.599 118.201 172.599C118.201 172.599 118.201 172.599 118.201 172.699C117.501 173.399 118.701 173.699 118.601 174.299C118.601 174.899 118.801 175.499 118.901 175.999C118.901 176.199 118.801 176.399 119.301 176.399C119.501 176.399 119.501 176.599 119.401 176.699C118.901 177.299 119.401 177.599 119.401 178.099C119.401 178.599 119.801 179.099 119.401 179.699C119.201 179.999 119.201 180.299 119.801 180.399C120.101 180.399 119.801 180.799 120.001 180.899C120.001 180.999 120.401 181.099 120.401 181.299C120.401 181.399 120.201 181.599 120.101 181.799C120.101 181.799 120.101 181.799 120.101 181.899C120.901 182.499 120.101 183.399 120.501 184.099C120.801 184.799 120.901 185.599 121.001 186.299C121.001 186.699 121.001 187.199 119.901 187.699C119.401 187.899 118.901 187.999 118.501 187.899C118.201 187.899 118.001 187.699 117.901 187.599C117.801 187.399 117.601 187.199 117.401 186.999C117.101 186.599 116.501 186.199 116.701 185.699C116.701 185.499 116.401 185.399 116.901 185.199V185.099C116.001 184.599 116.401 183.799 116.201 183.199C116.001 182.599 115.301 182.199 115.501 181.599C114.801 181.399 114.901 180.999 115.001 180.699C115.401 179.499 114.801 178.399 114.601 177.299C114.501 176.099 114.101 174.999 114.001 173.899C114.001 173.699 113.601 173.599 113.801 173.299C114.001 172.999 113.801 172.799 113.801 172.499C113.801 172.299 113.601 171.999 113.801 171.799C114.301 170.799 113.801 169.899 113.701 168.999C113.701 168.099 113.601 167.099 113.301 166.199C113.101 165.699 112.701 165.099 112.801 164.499C112.801 164.299 112.501 163.999 113.001 163.699C113.201 163.699 112.701 163.399 112.701 163.299C112.701 162.899 112.701 162.499 112.701 162.099C112.701 161.599 112.701 160.999 112.701 160.499C112.701 160.199 112.401 159.899 112.301 159.499C112.301 159.199 112.301 158.799 112.301 158.499C112.301 158.099 112.601 157.599 112.601 157.199C112.601 156.799 112.401 156.299 112.601 155.899C113.101 155.099 112.801 154.299 112.901 153.499C112.901 152.699 113.001 151.899 112.901 151.099C112.901 150.699 113.301 150.299 113.301 149.799C113.301 149.599 114.801 149.299 115.301 149.399H115.501C116.001 149.799 116.701 150.199 116.601 150.699C116.601 151.399 116.601 152.099 116.601 152.799L116.401 152.899Z" fill="black"/>
<path d="M166.101 147.298C166.501 147.098 166.801 146.998 167.201 146.698C167.301 146.698 167.601 146.698 167.501 146.198C167.501 145.898 167.901 146.398 168.001 146.398C168.301 146.198 168.701 146.098 169.001 145.898C169.301 145.698 169.501 145.298 169.801 145.098C170.101 144.898 170.601 145.098 170.801 144.598C171.001 144.198 171.401 144.598 171.601 144.298C171.801 144.098 172.101 143.898 172.501 143.998C172.801 143.998 173.101 144.198 173.201 143.998C173.201 143.898 173.201 143.498 173.401 143.498C173.501 143.498 173.801 143.698 173.701 142.998C173.701 142.998 173.701 142.998 173.901 142.998C174.201 143.298 174.401 143.198 174.401 142.998C174.401 142.698 174.501 142.698 174.601 142.598C174.901 142.498 175.201 142.298 175.501 142.298C175.701 142.298 176.001 142.298 176.301 142.298C176.501 142.298 176.701 141.898 177.001 142.098C177.301 142.298 177.501 142.198 177.701 142.098C177.801 142.098 178.101 142.298 177.901 141.598C178.501 142.298 178.501 141.098 178.901 141.198C179.301 141.198 179.601 140.998 180.001 140.898C180.001 140.898 180.301 140.998 180.201 140.498C180.201 140.298 180.201 140.298 180.401 140.398C180.901 140.898 181.001 140.398 181.301 140.398C181.601 140.398 181.901 139.998 182.301 140.398C182.501 140.598 182.701 140.598 182.701 139.998C182.701 139.698 182.901 139.998 183.001 139.798C183.001 139.798 183.001 139.398 183.201 139.398C183.201 139.398 183.401 139.598 183.501 139.698C183.801 138.898 184.501 139.698 184.901 139.298C185.301 138.998 185.801 138.898 186.301 138.898C186.601 138.898 186.901 138.898 187.401 139.998C187.601 140.498 187.801 140.998 187.701 141.398C187.701 141.698 187.701 141.898 187.601 141.998C187.501 142.098 187.401 142.298 187.301 142.398C187.101 142.698 186.901 143.298 186.601 143.098C186.501 143.098 186.501 143.398 186.201 142.898C186.001 143.798 185.501 143.398 185.101 143.598C184.801 143.798 184.601 144.498 184.201 144.298C184.201 144.998 184.001 144.898 183.701 144.798C182.801 144.398 182.301 144.998 181.601 145.198C180.901 145.298 180.301 145.698 179.601 145.898C179.501 145.898 179.601 146.298 179.301 146.098C179.101 145.898 179.001 146.098 178.801 146.198C178.701 146.198 178.601 146.398 178.401 146.298C177.601 145.898 177.301 146.498 176.701 146.598C176.201 146.698 175.601 146.898 175.201 147.298C174.901 147.498 174.801 147.998 174.401 147.998C174.201 147.998 174.201 148.398 173.901 147.898C173.801 147.798 173.901 148.198 173.801 148.298C173.601 148.398 173.401 148.498 173.201 148.598C172.901 148.698 172.601 148.798 172.301 148.998C172.101 149.098 172.101 149.398 171.901 149.598C171.701 149.698 171.601 149.798 171.301 149.898C171.001 149.898 170.701 149.898 170.401 149.898C170.101 149.898 170.001 150.298 169.601 150.198C168.901 149.998 168.601 150.398 168.201 150.598C167.701 150.798 167.301 150.898 166.901 151.298C166.701 151.498 166.201 151.198 166.001 151.298C165.901 151.298 165.101 150.098 164.901 149.698V149.498C164.901 148.998 164.801 148.198 165.101 148.098C165.501 147.998 165.901 147.698 166.301 147.498L166.101 147.298Z" fill="black"/>
<path d="M146.701 141.097C146.701 140.897 146.701 140.697 146.701 140.597C146.701 140.597 146.901 140.497 146.401 140.397C146.101 140.397 146.801 140.297 146.701 140.197C146.701 139.997 146.701 139.897 146.701 139.697C146.701 139.497 146.401 139.397 146.401 139.197C146.401 138.997 146.701 138.897 146.401 138.697C146.101 138.497 146.601 138.497 146.501 138.297C146.401 138.197 146.301 137.997 146.501 137.897C146.701 137.897 146.901 137.697 146.801 137.597C146.801 137.597 146.401 137.397 146.501 137.397C146.501 137.397 146.801 137.397 146.201 137.197C146.201 137.197 146.201 137.197 146.401 137.197C146.801 137.197 146.801 137.197 146.501 136.997C146.201 136.997 146.301 136.897 146.301 136.797C146.301 136.697 146.301 136.497 146.301 136.397C146.301 136.397 146.601 136.197 146.701 136.197C146.701 136.197 146.501 135.897 146.801 135.897C147.101 135.897 147.101 135.797 147.101 135.697C147.101 135.697 147.401 135.697 146.801 135.497C147.601 135.497 146.601 135.097 146.801 134.997C147.001 134.897 146.901 134.697 147.001 134.497C147.001 134.497 147.201 134.497 146.801 134.297C146.601 134.197 146.601 134.297 146.801 134.297C147.401 134.297 147.101 134.097 147.201 133.997C147.401 133.897 147.201 133.697 147.601 133.697C147.801 133.697 147.901 133.697 147.401 133.397C147.201 133.297 147.401 133.397 147.401 133.197L147.101 132.997C147.101 132.997 147.301 132.997 147.501 132.997C146.901 132.597 147.901 132.697 147.801 132.397C147.801 132.097 147.801 131.997 148.001 131.797C148.001 131.797 148.301 131.697 149.401 131.997C149.901 132.197 150.401 132.397 150.701 132.597C150.901 132.697 151.101 132.797 151.101 132.897C151.101 132.897 151.301 133.097 151.301 133.197C151.401 133.397 151.901 133.697 151.601 133.697C151.601 133.697 151.801 133.897 151.301 133.697C152.001 134.097 151.401 134.097 151.401 134.297C151.401 134.397 152.001 134.797 151.701 134.797C152.301 135.097 152.101 135.097 151.901 135.097C151.201 135.097 151.501 135.497 151.401 135.797C151.201 135.997 151.301 136.297 151.201 136.597C151.201 136.597 151.501 136.797 151.201 136.797C150.901 136.797 151.201 136.897 151.201 136.997C151.201 136.997 151.301 137.097 151.201 137.197C150.501 137.197 150.901 137.597 150.801 137.797C150.801 137.997 150.601 138.197 150.801 138.397C150.801 138.497 151.201 138.697 151.101 138.797C151.101 138.797 151.401 138.897 150.801 138.897C150.601 138.897 151.101 138.897 151.101 138.997C151.101 138.997 151.101 139.197 151.101 139.297C151.101 139.397 151.101 139.497 151.101 139.697L151.401 139.897V140.097C151.401 140.097 151.101 140.297 151.001 140.397C151.001 140.497 151.201 140.597 151.001 140.697C150.501 140.897 150.701 141.097 150.701 141.297C150.701 141.497 150.701 141.697 150.701 141.797C150.701 141.797 150.301 141.997 150.301 142.097C150.301 142.097 148.801 142.297 148.301 142.397H148.101C147.601 142.397 146.901 142.297 146.901 142.097C146.901 141.897 146.901 141.697 146.901 141.497L146.701 141.097Z" fill="black"/>
<path d="M157.102 141.898C157.102 141.698 157.102 141.498 157.102 141.398C157.102 141.398 157.302 141.298 156.802 141.198C156.502 141.198 157.202 141.098 157.102 140.998C157.102 140.798 157.102 140.698 157.102 140.498C157.102 140.298 156.802 140.198 156.802 139.998C156.802 139.798 157.102 139.698 156.802 139.498C156.502 139.298 157.002 139.298 156.902 139.098C156.802 138.998 156.702 138.798 156.902 138.698C157.102 138.698 157.302 138.498 157.202 138.398C157.202 138.398 156.802 138.198 156.902 138.198C156.902 138.198 157.202 138.198 156.602 137.998C156.602 137.998 156.602 137.998 156.802 137.998C157.202 137.998 157.202 137.998 156.902 137.798C156.602 137.798 156.702 137.698 156.702 137.598C156.702 137.498 156.702 137.298 156.702 137.198C156.702 137.198 157.002 136.998 157.102 136.998C157.102 136.998 156.902 136.698 157.202 136.698C157.502 136.698 157.502 136.598 157.502 136.498C157.502 136.498 157.802 136.498 157.202 136.298C158.002 136.298 157.002 135.898 157.202 135.798C157.402 135.698 157.302 135.498 157.402 135.298C157.402 135.298 157.602 135.298 157.202 135.098C157.002 134.998 157.002 135.098 157.202 135.098C157.802 135.098 157.502 134.898 157.602 134.798C157.802 134.698 157.602 134.498 158.002 134.498C158.202 134.498 158.302 134.498 157.802 134.198C157.602 134.098 157.802 134.198 157.802 133.998L157.502 133.798C157.502 133.798 157.702 133.798 157.902 133.798C157.302 133.398 158.302 133.498 158.202 133.198C158.202 132.898 158.202 132.798 158.402 132.598C158.402 132.598 158.702 132.498 159.802 132.798C160.302 132.998 160.802 133.198 161.102 133.398C161.302 133.498 161.502 133.598 161.502 133.698C161.502 133.698 161.702 133.898 161.702 133.998C161.802 134.198 162.302 134.498 162.002 134.498C162.002 134.498 162.202 134.698 161.702 134.498C162.402 134.898 161.802 134.898 161.802 135.098C161.802 135.198 162.402 135.598 162.102 135.598C162.702 135.898 162.502 135.898 162.302 135.898C161.602 135.898 161.902 136.298 161.802 136.598C161.602 136.798 161.702 137.098 161.602 137.398C161.602 137.398 161.902 137.598 161.602 137.598C161.302 137.598 161.602 137.698 161.602 137.798C161.602 137.798 161.702 137.898 161.602 137.998C160.902 137.998 161.302 138.398 161.202 138.598C161.202 138.798 161.002 138.998 161.202 139.198C161.202 139.298 161.602 139.498 161.502 139.598C161.502 139.598 161.802 139.698 161.202 139.698C161.002 139.698 161.502 139.698 161.502 139.798C161.502 139.798 161.502 139.998 161.502 140.098C161.502 140.198 161.502 140.298 161.502 140.498L161.802 140.698V140.898C161.802 140.898 161.502 141.098 161.402 141.198C161.402 141.298 161.602 141.398 161.402 141.498C160.902 141.698 161.102 141.898 161.102 142.098C161.102 142.298 161.102 142.498 161.102 142.598C161.102 142.598 160.702 142.798 160.702 142.898C160.702 142.898 159.202 143.098 158.702 143.198H158.502C158.002 143.198 157.302 143.098 157.302 142.898C157.302 142.698 157.302 142.498 157.302 142.298L157.102 141.898Z" fill="black"/>
<path d="M107.999 129.401C106.099 128.401 104.299 127.201 102.599 125.801C101.999 125.301 101.599 124.501 100.599 124.201C100.099 124.001 100.099 123.001 99.599 122.401C98.399 120.701 97.499 118.701 96.999 116.701C96.499 114.801 96.099 112.701 96.199 110.701C96.199 108.701 96.999 106.801 97.299 104.901C97.599 103.201 98.599 102.101 99.199 100.701C99.899 99.2008 100.699 97.7008 101.899 96.6008C102.699 95.8008 103.599 95.1008 104.199 94.1008C104.599 93.5008 104.799 92.8008 105.299 92.3008C105.799 91.8008 106.599 91.4008 106.499 90.5008C106.499 90.5008 106.799 90.3008 106.999 90.2008C107.799 90.0008 108.499 89.3008 108.799 88.7008C109.099 88.1008 109.499 87.7008 109.899 87.4008C111.099 86.3008 112.299 85.3008 113.599 84.4008C114.599 83.7008 115.599 83.2008 116.599 82.6008C117.599 81.9008 118.599 81.0008 119.699 80.6008C120.799 80.2008 121.699 79.7008 122.699 79.1008C123.199 78.8008 123.999 78.7008 124.199 77.9008C124.199 77.9008 124.399 77.7008 124.499 77.7008C124.899 77.7008 125.299 77.6008 125.699 77.4008L127.899 80.6008C126.799 81.4008 126.199 82.7008 125.099 83.5008C123.599 84.5008 122.399 85.9008 121.199 87.2008C120.899 87.5008 120.399 87.8008 120.499 88.4008C120.499 88.6008 120.199 89.0008 119.999 89.1008C118.699 89.7008 118.199 91.0008 117.399 92.0008C116.499 93.2008 116.099 94.6008 115.099 95.8008C114.699 96.3008 114.299 97.1008 114.799 98.0008C114.999 98.4008 114.599 99.0008 114.599 99.5008C114.599 99.9008 114.899 100.301 114.799 100.701C114.799 101.001 114.599 101.401 114.499 101.801C114.499 101.901 114.499 102.001 114.499 102.101C114.899 103.101 114.999 104.101 115.099 105.101C115.199 106.101 115.399 107.201 115.899 108.101C116.999 109.901 118.099 111.701 119.599 113.101C120.399 113.901 121.199 114.701 121.399 116.101C121.399 116.701 121.199 117.201 120.599 117.201C120.099 117.201 119.599 117.201 119.099 116.901C118.799 116.701 118.399 116.501 117.999 116.301C117.699 116.101 117.299 115.901 116.999 115.601C115.699 114.601 114.199 113.601 113.499 112.001C113.299 111.501 112.699 111.101 112.999 110.501C112.999 110.501 112.999 110.201 112.899 110.101C111.199 108.401 110.899 105.801 110.499 103.601C110.199 101.701 109.599 99.6008 110.299 97.6008C110.099 97.0008 110.099 96.3008 110.299 95.7008C110.499 95.1008 110.699 94.5008 110.999 94.0008C112.999 90.5008 114.999 87.2008 117.599 84.4008C120.099 81.8008 122.699 79.5008 125.299 77.3008L127.699 80.9008L127.099 81.2008C126.599 81.5008 126.299 82.0008 125.499 82.1008C124.799 82.2008 124.199 82.8008 123.499 83.2008C122.899 83.6008 122.299 84.1008 121.699 84.3008C118.999 85.3008 116.899 87.3008 114.799 89.0008C112.599 90.7008 110.499 92.6008 108.699 94.7008C107.599 96.0008 106.799 97.5008 105.699 98.7008C105.199 99.2008 105.099 100.001 104.199 100.301C103.899 100.301 103.999 101.201 103.799 101.601C103.299 102.601 102.799 103.501 102.299 104.501C101.699 105.901 101.199 107.301 100.999 108.801C100.899 109.701 100.999 110.601 100.999 111.501C100.999 112.401 100.999 113.301 101.199 114.201C101.199 115.301 101.399 116.501 101.799 117.601C101.999 118.201 102.399 118.701 102.699 119.201C103.099 119.701 103.399 120.201 103.599 120.701C104.099 121.701 104.799 122.501 105.699 123.301C106.599 124.001 107.499 124.601 108.499 125.201C110.399 126.401 112.599 127.301 114.899 128.001C116.199 128.401 117.199 129.201 118.499 129.501C119.099 129.601 119.599 131.301 119.199 131.701C119.199 131.701 118.999 131.901 118.899 131.901C117.499 132.001 116.099 132.401 114.599 131.901C112.399 131.201 110.199 130.401 107.999 129.301V129.401Z" fill="black"/>
<path d="M116.999 152.298C115.899 152.798 114.699 153.198 113.599 153.598C113.199 153.798 112.599 153.598 112.299 154.298C112.099 154.598 111.499 154.098 111.099 154.298C109.999 154.598 108.799 154.698 107.599 154.798C106.399 154.898 105.299 155.098 103.999 154.998C102.799 154.998 101.699 154.298 100.399 154.298C99.2992 154.298 98.6992 153.398 97.7992 152.998C96.7992 152.598 95.8992 151.998 95.2992 151.098C94.8992 150.498 94.5992 149.798 93.9992 149.298C93.6992 148.998 93.1992 148.898 92.8992 148.398C92.6992 147.998 92.5992 147.398 91.8992 147.398C91.8992 147.398 91.8992 147.198 91.8992 146.998C91.9992 146.398 91.6992 145.898 91.2992 145.598C90.8992 145.398 90.7992 144.998 90.5992 144.698C90.1992 143.798 89.7992 142.798 89.6992 141.798C89.5992 141.098 89.6992 140.298 89.5992 139.598C89.5992 138.798 89.1992 138.098 89.3992 137.298C89.5992 136.598 89.5992 135.898 89.5992 135.298C89.5992 134.898 89.8992 134.498 89.1992 134.198V133.998C89.5992 133.398 89.5992 133.098 89.4992 131.998C89.4992 131.098 89.2992 129.998 89.4992 129.098V128.398C89.5992 128.298 89.5992 128.198 89.6992 128.098H90.0992C90.5992 128.098 91.0992 128.098 91.5992 128.098C92.5992 128.098 93.5992 128.098 94.4992 128.098C94.7992 128.098 95.0992 128.298 95.3992 127.798C95.3992 127.598 95.7992 127.598 95.8992 127.798C96.6992 128.498 97.4992 128.098 98.3992 128.198C99.2992 128.298 100.299 128.098 101.199 128.598C101.599 128.798 102.099 128.898 102.599 128.398C102.799 128.098 103.299 128.398 103.599 128.398C103.899 128.398 104.199 128.098 104.399 128.098C104.599 128.098 104.899 128.298 105.099 128.498H105.299C106.699 127.898 107.999 128.798 109.399 128.698C110.799 128.598 112.199 128.698 113.599 128.798C114.399 128.798 115.199 129.098 115.599 130.198C115.799 130.698 115.799 131.298 115.499 131.598C115.299 131.798 114.999 132.098 114.699 132.098C114.299 132.098 113.799 132.298 113.399 132.398C112.499 132.598 111.599 133.098 110.699 132.798C110.399 132.798 110.099 132.998 109.799 132.498C109.799 132.498 109.699 132.398 109.599 132.498C108.299 133.298 107.099 132.698 105.799 132.698C104.699 132.698 103.699 133.298 102.599 132.998C101.999 133.598 101.299 133.498 100.699 133.298C98.5992 132.598 96.4992 132.998 94.3992 132.798H94.0992H93.8992H93.6992H93.5992V133.998C93.5992 134.298 93.8992 134.598 93.5992 134.998C93.2992 135.398 93.5992 135.898 93.5992 136.298C93.5992 136.698 93.7992 137.098 93.5992 137.498C93.0992 139.098 93.7992 140.598 94.1992 142.098C94.5992 143.598 95.1992 144.998 96.1992 146.098C96.7992 146.798 97.5992 147.198 98.0992 147.898C98.2992 148.198 98.7992 148.198 98.6992 148.898C98.6992 149.098 99.1992 148.898 99.3992 149.098C99.8992 149.398 100.399 149.698 100.899 149.898C101.599 150.198 102.399 150.498 103.199 150.598C103.699 150.598 104.199 150.598 104.699 150.498C105.199 150.498 105.799 150.498 106.299 150.498C106.999 150.498 107.699 150.698 108.399 150.698C109.099 150.698 109.799 150.298 110.599 150.398C111.999 150.598 113.299 149.898 114.499 149.398C115.799 148.898 117.099 148.398 118.299 147.598C118.999 147.198 119.899 147.298 120.599 146.898C120.899 146.698 122.099 147.798 122.199 148.298C122.199 148.298 122.199 148.498 122.199 148.598C121.699 149.398 121.399 150.398 120.599 150.698C119.399 151.298 118.199 151.898 116.899 152.498L116.999 152.298Z" fill="black"/>
<path d="M141.601 164.099C139.801 165.099 137.901 166.399 136.001 167.799C135.401 168.199 135.101 168.299 134.301 168.999C134.301 168.999 134.101 168.999 134.001 168.999C133.701 168.999 134.401 167.199 134.401 166.599C134.401 164.799 134.601 162.799 134.701 160.899V159.399C134.801 158.999 134.801 158.799 134.901 158.399C134.901 157.799 134.901 157.199 135.001 156.599C135.201 155.399 135.701 154.299 135.701 153.099C135.701 152.199 136.101 151.399 136.401 150.699C136.701 149.999 137.001 149.399 137.301 148.499C137.501 147.799 137.701 147.099 137.901 146.499L138.201 145.499C138.301 145.199 138.401 144.899 138.601 144.699C138.901 145.099 139.201 145.399 139.401 145.799C140.301 147.099 141.001 148.299 141.801 148.999C142.301 149.499 143.001 149.699 143.601 150.399C143.701 150.499 143.901 150.799 144.001 150.899C144.001 150.899 144.101 151.099 144.201 151.099C144.401 151.199 144.601 151.299 144.901 151.099C144.901 151.099 145.001 151.299 145.001 151.399C145.001 151.999 145.501 152.299 145.901 152.299C146.301 152.299 146.601 152.499 146.801 152.699C147.501 153.199 148.301 153.699 149.001 154.199C149.601 154.599 150.001 155.099 150.601 155.499C151.201 155.899 152.001 155.999 152.501 156.499C153.001 156.999 153.601 157.299 154.201 157.499C154.501 157.599 154.901 157.999 155.401 157.499H155.601C156.301 158.699 157.701 157.899 158.601 158.399C159.601 158.799 160.701 158.899 161.801 159.099C162.101 159.099 162.401 159.399 162.701 158.899C162.801 158.699 163.101 158.799 163.301 158.899C163.701 159.199 164.101 159.299 164.501 159.399C164.901 159.399 165.301 159.399 165.801 159.399C165.901 159.399 166.001 159.399 166.201 159.399C166.201 159.399 166.201 159.399 166.301 159.399H166.401C166.401 159.399 166.601 159.399 166.901 159.699C167.201 159.899 167.701 159.999 166.901 159.399C166.701 159.299 166.701 159.299 166.901 159.299C166.901 159.299 167.101 159.299 167.001 159.299C167.001 159.299 166.801 159.199 166.601 159.099H166.401C166.401 158.999 166.701 159.099 166.901 159.099C166.401 158.899 166.501 159.099 166.601 158.899V158.599C166.501 158.599 166.201 158.099 166.201 158.099C166.001 157.699 165.901 157.399 165.601 157.099C164.701 155.799 164.001 154.299 163.501 152.799C163.201 151.999 163.001 150.999 163.901 150.099C164.301 149.699 164.801 149.499 165.201 149.699C165.501 149.899 165.801 150.099 166.001 150.299C166.301 150.699 166.601 151.099 166.801 151.399C167.401 152.199 168.201 152.799 168.401 153.699C168.401 153.999 168.901 154.199 168.601 154.599V154.799C169.301 155.199 169.601 155.699 170.001 156.199L170.301 156.799L170.801 157.499C171.101 157.999 171.401 158.499 171.801 158.899C172.301 159.499 172.901 160.199 173.601 160.899C174.301 161.599 175.001 162.299 175.601 162.999C175.301 162.999 174.801 163.099 174.201 163.099C174.001 163.699 172.301 163.899 170.901 163.799C169.701 163.799 168.601 163.799 167.601 163.799C167.101 163.799 166.601 163.799 166.101 163.799H165.201C164.601 163.799 164.001 163.799 163.401 163.799C162.801 163.799 162.201 163.799 161.601 163.599C159.201 163.199 156.801 162.699 154.401 161.899C154.001 161.799 153.501 161.899 153.201 161.499C152.901 161.099 152.201 160.999 151.701 160.799C151.301 160.599 150.701 160.499 150.401 160.199C149.701 159.499 148.901 158.999 148.001 158.499L146.701 157.799C146.301 157.499 145.901 157.299 145.501 156.999C144.701 156.499 144.001 155.799 143.301 155.199C142.901 154.899 142.601 154.599 142.201 154.299L141.601 153.799L141.301 153.599L141.101 153.399C140.901 153.399 140.801 153.399 140.701 153.399C140.601 153.399 140.601 153.399 140.501 153.299C140.501 153.099 140.401 152.899 140.301 152.699C140.201 152.499 140.301 153.399 140.301 153.399C140.301 153.599 140.301 153.699 140.201 153.799C140.201 153.899 140.201 153.999 140.201 153.999V154.299C140.001 154.799 139.901 155.299 139.801 155.799C139.701 156.399 139.801 156.999 139.801 157.699C139.801 158.299 139.601 158.999 139.501 159.599C139.501 159.599 139.201 159.799 139.101 159.999C139.101 160.099 139.101 160.099 139.101 160.199C139.101 160.199 139.101 160.199 139.001 160.599V160.899C138.801 160.899 138.801 160.899 138.801 160.999C138.801 161.099 139.001 160.999 139.201 160.999C139.401 160.899 139.601 160.699 139.701 160.699C139.801 160.699 139.901 160.699 140.101 160.499L141.201 159.899C141.901 159.499 142.601 159.099 143.301 158.699C144.101 158.199 145.101 158.399 145.901 157.999C146.301 157.799 147.301 158.999 147.401 159.499C147.401 159.599 147.401 159.699 147.401 159.799C146.801 160.499 146.401 161.499 145.501 161.899C144.901 162.199 144.201 162.499 143.601 162.799L142.701 163.299L141.701 163.899L141.601 164.099Z" fill="black"/>
<path d="M157.7 184.301C157.7 183.701 157.7 183.101 157.7 182.501C157.7 182.301 158 182.101 157.4 181.801C157.1 181.701 157.8 181.501 157.8 181.301C157.8 181.001 157.8 180.701 157.8 180.501V180.101V179.901C157.8 179.701 157.5 179.701 157.5 179.601C157.5 179.601 157.5 179.501 157.5 179.401C157.5 179.401 157.5 179.401 157.2 179.501C157 179.801 157.2 179.301 157.1 179.401C157 179.401 156.8 179.401 156.7 179.401C156.4 179.401 156.2 179.301 156 179.101C155.7 178.801 155.4 178.501 155.1 178.501C154.9 178.501 154.6 178.701 154.4 178.601C154.2 178.601 154.1 178.201 153.6 178.601C153.6 178.601 153.6 178.501 153.6 178.401C153.6 177.901 153.3 177.801 153 178.001C152.7 178.201 152.6 178.001 152.4 178.001C151.9 177.801 151.5 177.601 151.1 177.301C150.8 177.101 150.6 176.701 150.3 176.401C150 176.201 149.5 176.101 149.4 175.701C149.3 175.301 149 175.101 148.7 174.901C148.5 174.801 148.5 174.401 148 174.901C148 173.901 147 174.401 146.7 173.901C146.4 173.401 145.9 173.101 145.4 172.701C145.3 172.601 145.3 172.401 144.9 172.601C144.8 172.601 144.6 172.601 144.6 172.401C144.7 171.701 144.2 171.601 143.9 171.201C143.6 170.801 143.1 170.601 143.1 169.901C143.1 169.601 143.1 169.301 142.4 169.501C142.1 169.501 142.2 169.201 142 169.101C141.9 169.101 141.6 169.101 141.4 168.901C141.4 168.801 141.4 168.501 141.4 168.401C141.4 168.401 141.4 168.401 141.4 168.301C140.4 168.001 140.7 166.901 140.2 166.201C139.7 165.501 139.4 164.601 139.3 163.701C139.2 162.901 139.3 162.401 139.7 161.901C139.9 161.701 140.2 161.401 140.7 161.201C140.9 161.201 141.2 161.101 141.5 161.201C141.8 161.201 142 161.401 142.1 161.601C142.3 161.901 142.1 162.201 142 162.401C142 162.501 141.9 162.601 141.8 162.701C141.8 162.701 141.8 162.701 141.8 162.801C141.8 162.801 142 163.001 142.1 163.001C142.3 163.001 142.4 163.101 142.4 163.001C142.4 163.001 142.3 163.001 142.2 163.001H142.1L142.8 162.801C143.1 163.101 143.7 163.301 143.6 163.701C143.6 163.801 143.9 163.801 143.5 164.101V164.201C144.4 164.301 144.2 165.001 144.6 165.401C144.9 165.801 145.7 165.701 145.8 166.301C146.4 166.101 146.6 166.301 146.6 166.701C146.8 167.901 147.8 168.301 148.5 169.001C149.2 169.801 150 170.401 150.7 171.001C150.8 171.101 151.2 171.001 151.1 171.301C151.1 171.601 151.4 171.601 151.6 171.701C151.8 171.801 152 171.801 152.1 172.101C152.4 173.101 153.3 173.201 153.9 173.601C154.5 174.001 155.2 174.401 156 174.501C156.5 174.501 157 174.401 157.4 174.601C157.6 174.701 157.8 174.401 157.9 175.001C157.9 175.201 158.2 174.801 158.3 174.801C158.3 174.801 158.6 174.801 158.7 174.801H159.2L160.2 175.001C161 175.001 161.8 175.201 162.7 175.201C162.7 175.201 162.7 175.301 162.7 175.401C162.7 175.901 162.9 176.301 162.9 176.801C162.9 177.401 162.9 178.001 162.7 178.601C162.7 179.001 162.5 179.401 162.4 179.701C162.4 180.001 162.2 180.101 162.2 180.301C162.2 180.701 162.4 181.101 162.1 181.501C161.6 182.201 161.8 182.901 161.7 183.601C161.7 184.301 161.6 185.001 161.7 185.701C161.7 186.101 161.3 186.501 161.3 186.901C161.3 187.101 159.8 187.401 159.3 187.301H159.1C158.6 186.901 157.9 186.601 157.9 186.101C157.9 185.401 157.9 184.801 157.9 184.101L157.7 184.301Z" fill="black"/>
<path d="M175.299 115.699C176.199 114.399 177.099 113.199 177.699 111.799C177.899 111.299 178.399 110.899 178.099 110.099C177.899 109.699 178.699 109.499 178.799 108.999C179.099 107.699 179.499 106.299 179.499 104.899C179.499 103.499 179.199 102.199 178.899 100.899C178.599 99.5992 178.499 98.1992 177.799 97.0992C177.199 96.1992 177.199 95.0992 176.599 94.1992C175.899 93.2992 175.199 92.3992 174.699 91.2992C174.299 90.5992 173.999 89.7992 173.299 89.2992C172.899 88.9992 172.299 88.8992 171.899 88.4992C171.499 88.1992 171.299 87.4992 170.499 87.7992C170.499 87.7992 170.299 87.5992 170.299 87.3992C170.099 86.6992 169.499 86.3992 168.999 86.2992C168.499 86.2992 168.199 85.9992 167.799 85.7992C166.799 85.1992 165.799 84.6992 164.699 84.0992C163.899 83.6992 163.199 83.0992 162.399 82.7992C161.499 82.3992 160.499 82.3992 159.799 81.8992C159.099 81.3992 158.399 81.1992 157.699 81.0992L158.799 77.4992H159.099C159.599 77.8992 160.099 78.3992 160.799 78.0992C160.799 78.0992 161.099 78.0992 161.099 78.2992C161.399 78.6992 161.699 78.9992 161.999 79.1992C162.299 79.3992 162.699 79.5992 162.999 79.7992C163.699 80.1992 164.499 80.5992 164.999 81.1992C166.099 82.5992 167.199 83.8992 168.099 85.2992C168.399 85.6992 168.399 86.1992 168.999 86.3992C169.199 86.3992 169.499 86.8992 169.399 87.1992C169.399 88.5992 170.099 89.6992 170.399 90.9992C170.599 92.4992 171.199 93.8992 170.699 95.3992C170.499 95.9992 170.399 96.7992 170.899 97.5992C171.199 97.9992 170.899 98.6992 170.799 99.1992C170.799 99.5992 170.999 100.099 170.899 100.599C170.899 100.999 170.499 101.299 170.299 101.599C170.299 101.699 170.299 101.799 170.299 101.899C170.399 104.199 168.799 105.899 167.999 107.799C167.199 109.799 165.899 111.499 164.399 113.099C163.599 113.999 162.599 114.699 161.299 114.399C160.699 114.299 160.299 113.899 160.399 113.299C160.399 112.899 160.599 112.499 160.799 112.199C161.099 111.699 161.399 111.199 161.699 110.699C162.299 109.699 162.599 108.399 163.499 107.599C163.799 107.299 163.699 106.799 164.299 106.799C164.299 106.799 164.499 106.699 164.499 106.599C164.499 104.799 165.699 103.499 166.099 101.899C166.499 100.499 166.099 99.0992 166.499 97.7992C165.899 96.9992 166.099 96.1992 166.199 95.4992C166.499 94.1992 166.299 92.8992 165.899 91.5992C165.499 90.2992 164.899 89.0992 164.299 87.9992C163.099 85.5992 161.199 83.6992 158.999 82.2992C158.599 82.0992 158.099 82.1992 157.799 81.6992C157.599 81.4992 157.399 81.3992 157.199 81.2992L158.399 77.1992C158.799 77.1992 159.199 77.1992 159.499 77.3992C160.099 77.4992 160.799 77.5992 161.299 77.8992C163.499 79.1992 165.899 79.7992 168.099 80.9992C170.299 82.1992 172.299 83.6992 174.299 85.2992C175.499 86.1992 176.799 87.0992 177.699 88.3992C178.099 88.9992 178.799 89.2992 178.699 90.1992C178.699 90.4992 179.399 90.6992 179.599 91.0992C180.199 91.9992 180.699 92.9992 181.099 93.9992C181.699 95.3992 182.199 96.7992 182.599 98.1992C182.899 99.0992 183.299 99.8992 183.499 100.799C183.699 101.799 183.799 102.799 183.699 103.699C183.699 104.999 183.299 106.199 183.099 107.399C182.799 108.599 182.799 109.999 182.099 111.099C180.899 113.099 179.999 115.099 178.799 116.799C177.499 118.499 176.199 120.099 174.899 121.799C174.199 122.699 173.099 123.199 172.299 123.999C171.899 124.399 170.399 123.899 170.199 123.399C170.199 123.399 170.199 123.199 170.199 123.099C170.599 121.999 170.799 120.799 171.699 119.899C172.999 118.599 174.099 117.199 175.199 115.799L175.299 115.699Z" fill="black"/>
</svg>
