<svg width="300" height="300" viewBox="0 0 300 300" fill="none" xmlns="http://www.w3.org/2000/svg">
<path d="M171.299 132.902C169.599 131.102 167.899 129.202 166.199 127.402C165.499 126.702 165.099 125.902 163.999 125.502C163.499 125.302 163.299 124.202 162.699 123.602C161.099 121.902 159.499 120.202 157.899 118.502C156.299 116.902 154.699 115.702 153.099 115.202C151.499 114.602 149.399 114.102 147.199 114.402C145.399 114.602 143.699 114.102 141.999 114.302C140.099 114.502 138.199 114.702 136.399 114.602C135.099 114.602 133.699 114.502 132.399 114.802C131.599 115.002 130.899 115.402 129.999 115.502C129.199 115.602 128.199 115.502 127.599 116.302C127.599 116.302 127.199 116.302 126.999 116.302C125.999 116.102 124.999 116.302 124.299 116.802C123.699 117.202 122.999 117.402 122.399 117.502C120.599 118.002 118.799 118.502 117.199 119.102C115.999 119.502 114.799 119.902 113.799 120.502C112.699 121.202 112.199 122.302 111.399 123.102C110.599 123.902 110.199 125.002 109.899 126.202C109.699 126.902 109.299 127.602 109.899 128.302C109.899 128.302 109.899 128.602 109.899 128.702C108.799 130.702 109.899 132.902 109.699 135.002C109.499 137.302 109.699 139.602 109.699 141.902C109.699 142.502 109.599 143.202 110.099 143.702C110.299 143.902 110.299 144.502 110.199 144.802C109.699 146.502 110.199 148.302 110.199 150.102C110.199 152.102 110.799 154.102 110.499 156.102C110.399 157.002 110.499 158.102 111.099 159.102C111.399 159.502 111.299 160.502 111.499 161.302C111.599 161.902 111.999 162.402 112.099 163.002C112.099 163.502 112.099 164.002 111.999 164.602C111.999 164.802 111.999 164.902 111.999 165.102C113.099 167.902 112.699 170.902 113.399 173.802C114.099 176.702 114.599 179.702 114.999 182.602C115.299 184.202 115.399 185.902 114.499 187.302C114.099 187.902 113.499 188.002 113.099 187.302C112.799 186.802 112.399 186.302 112.299 185.702C111.999 184.802 111.699 183.902 111.499 183.002C110.999 181.202 110.099 179.402 109.999 177.402C109.999 176.802 109.599 176.102 109.999 175.502C109.999 175.502 109.999 175.202 109.999 175.002C108.799 172.502 108.799 169.702 108.299 167.102C107.899 164.802 106.899 162.702 106.899 160.402C106.099 159.202 105.999 157.702 106.099 156.402C106.199 151.802 105.399 147.302 105.299 142.702C105.299 140.402 105.199 138.002 105.199 135.702C105.199 133.402 105.199 131.002 105.499 128.602C105.499 127.802 105.299 127.002 105.799 126.002C106.199 125.102 106.399 123.902 106.799 122.802C107.199 121.802 107.599 120.702 108.299 120.002C111.299 116.802 114.999 114.902 118.499 113.802C121.999 112.802 125.599 112.002 129.199 111.302C131.399 110.802 133.499 110.202 135.799 110.102C136.799 110.102 137.699 109.602 138.699 110.102C138.999 110.302 139.799 109.802 140.499 109.702C141.999 109.602 143.599 109.602 145.099 109.602C147.199 109.602 149.299 109.602 151.699 110.002C153.099 110.202 154.599 110.302 156.099 111.002C157.599 111.702 158.899 112.802 159.899 113.802C161.199 115.202 162.099 116.502 163.199 117.802C164.299 119.102 165.799 120.302 166.699 121.702C168.399 124.302 170.799 126.402 172.799 128.702C174.899 131.002 176.899 133.302 179.099 135.502C180.299 136.702 181.099 138.202 182.199 139.502C182.699 140.102 182.399 141.902 181.799 142.002C181.699 142.002 181.499 142.002 181.399 142.002C179.899 141.102 178.299 140.502 177.099 139.002C175.199 136.902 173.199 134.802 171.299 132.802V132.902Z" fill="black"/>
<path d="M141.398 141.101C141.398 140.901 141.398 140.701 141.398 140.601C141.398 140.601 141.598 140.501 141.098 140.401C140.798 140.401 141.498 140.301 141.398 140.201C141.398 140.001 141.398 139.901 141.398 139.701C141.398 139.501 141.098 139.401 141.098 139.201C141.098 139.001 141.398 138.901 141.098 138.701C140.798 138.501 141.298 138.501 141.198 138.301C141.098 138.201 140.998 138.001 141.198 137.901C141.398 137.901 141.598 137.701 141.498 137.601C141.498 137.601 141.098 137.401 141.198 137.401C141.198 137.401 141.498 137.401 140.898 137.201C140.898 137.201 140.898 137.201 141.098 137.201C141.498 137.201 141.498 137.201 141.198 137.001C140.898 137.001 140.998 136.901 140.998 136.801C140.998 136.701 140.998 136.501 140.998 136.401C140.998 136.401 141.298 136.201 141.398 136.201C141.398 136.201 141.198 135.901 141.498 135.901C141.798 135.901 141.798 135.801 141.798 135.701C141.798 135.701 142.098 135.701 141.498 135.501C142.298 135.501 141.298 135.101 141.498 135.001C141.698 134.901 141.598 134.701 141.698 134.501C141.698 134.501 141.898 134.501 141.498 134.301C141.298 134.201 141.298 134.301 141.498 134.301C142.098 134.301 141.798 134.101 141.898 134.001C142.098 133.901 141.898 133.701 142.298 133.701C142.498 133.701 142.598 133.701 142.098 133.401C141.898 133.301 142.098 133.401 142.098 133.201L141.798 133.001C141.798 133.001 141.998 133.001 142.198 133.001C141.598 132.601 142.598 132.701 142.498 132.401C142.498 132.101 142.498 132.001 142.698 131.801C142.698 131.801 142.998 131.701 144.098 132.001C144.598 132.201 145.098 132.401 145.398 132.601C145.598 132.701 145.798 132.801 145.798 132.901C145.798 132.901 145.998 133.101 145.998 133.201C146.098 133.401 146.598 133.701 146.298 133.701C146.298 133.701 146.498 133.901 145.998 133.701C146.698 134.101 146.098 134.101 146.098 134.301C146.098 134.401 146.698 134.801 146.398 134.801C146.998 135.101 146.798 135.101 146.598 135.101C145.898 135.101 146.198 135.501 146.098 135.801C145.898 136.001 145.998 136.301 145.898 136.601C145.898 136.601 146.198 136.801 145.898 136.801C145.598 136.801 145.898 136.901 145.898 137.001C145.898 137.001 145.998 137.101 145.898 137.201C145.198 137.201 145.598 137.601 145.498 137.801C145.498 138.001 145.298 138.201 145.498 138.401C145.498 138.501 145.898 138.701 145.798 138.801C145.798 138.801 146.098 138.901 145.498 138.901C145.298 138.901 145.798 138.901 145.798 139.001C145.798 139.001 145.798 139.201 145.798 139.301C145.798 139.401 145.798 139.501 145.798 139.701L146.098 139.901V140.101C146.098 140.101 145.798 140.301 145.698 140.401C145.698 140.501 145.898 140.601 145.698 140.701C145.198 140.901 145.398 141.101 145.398 141.301C145.398 141.501 145.398 141.701 145.398 141.801C145.398 141.801 144.998 142.001 144.998 142.101C144.998 142.101 143.498 142.301 142.998 142.401H142.798C142.298 142.401 141.598 142.301 141.598 142.101C141.598 141.901 141.598 141.701 141.598 141.501L141.398 141.101Z" fill="black"/>
<path d="M151.799 141.902C151.799 141.702 151.799 141.502 151.799 141.402C151.799 141.402 151.999 141.302 151.499 141.202C151.199 141.202 151.899 141.102 151.799 141.002C151.799 140.802 151.799 140.702 151.799 140.502C151.799 140.302 151.499 140.202 151.499 140.002C151.499 139.802 151.799 139.702 151.499 139.502C151.199 139.302 151.699 139.302 151.599 139.102C151.499 139.002 151.399 138.802 151.599 138.702C151.799 138.702 151.999 138.502 151.899 138.402C151.899 138.402 151.499 138.202 151.599 138.202C151.599 138.202 151.899 138.202 151.299 138.002C151.299 138.002 151.299 138.002 151.499 138.002C151.899 138.002 151.899 138.002 151.599 137.802C151.299 137.802 151.399 137.702 151.399 137.602C151.399 137.502 151.399 137.302 151.399 137.202C151.399 137.202 151.699 137.002 151.799 137.002C151.799 137.002 151.599 136.702 151.899 136.702C152.199 136.702 152.199 136.602 152.199 136.502C152.199 136.502 152.499 136.502 151.899 136.302C152.699 136.302 151.699 135.902 151.899 135.802C152.099 135.702 151.999 135.502 152.099 135.302C152.099 135.302 152.299 135.302 151.899 135.102C151.699 135.002 151.699 135.102 151.899 135.102C152.499 135.102 152.199 134.902 152.299 134.802C152.499 134.702 152.299 134.502 152.699 134.502C152.899 134.502 152.999 134.502 152.499 134.202C152.299 134.102 152.499 134.202 152.499 134.002L152.199 133.802C152.199 133.802 152.399 133.802 152.599 133.802C151.999 133.402 152.999 133.502 152.899 133.202C152.899 132.902 152.899 132.802 153.099 132.602C153.099 132.602 153.399 132.502 154.499 132.802C154.999 133.002 155.499 133.202 155.799 133.402C155.999 133.502 156.199 133.602 156.199 133.702C156.199 133.702 156.399 133.902 156.399 134.002C156.499 134.202 156.999 134.502 156.699 134.502C156.699 134.502 156.899 134.702 156.399 134.502C157.099 134.902 156.499 134.902 156.499 135.102C156.499 135.202 157.099 135.602 156.799 135.602C157.399 135.902 157.199 135.902 156.999 135.902C156.299 135.902 156.599 136.302 156.499 136.602C156.299 136.802 156.399 137.102 156.299 137.402C156.299 137.402 156.599 137.602 156.299 137.602C155.999 137.602 156.299 137.702 156.299 137.802C156.299 137.802 156.399 137.902 156.299 138.002C155.599 138.002 155.999 138.402 155.899 138.602C155.899 138.802 155.699 139.002 155.899 139.202C155.899 139.302 156.299 139.502 156.199 139.602C156.199 139.602 156.499 139.702 155.899 139.702C155.699 139.702 156.199 139.702 156.199 139.802C156.199 139.802 156.199 140.002 156.199 140.102C156.199 140.202 156.199 140.302 156.199 140.502L156.499 140.702V140.902C156.499 140.902 156.199 141.102 156.099 141.202C156.099 141.302 156.299 141.402 156.099 141.502C155.599 141.702 155.799 141.902 155.799 142.102C155.799 142.302 155.799 142.502 155.799 142.602C155.799 142.602 155.399 142.802 155.399 142.902C155.399 142.902 153.899 143.102 153.399 143.202H153.199C152.699 143.202 151.999 143.102 151.999 142.902C151.999 142.702 151.999 142.502 151.999 142.302L151.799 141.902Z" fill="black"/>
<path d="M140 148.199C139.8 148.399 139.7 148.599 139.5 148.899C139.5 148.899 139.2 148.899 139.5 149.299C139.7 149.499 139.1 149.199 139.1 149.299C139.1 149.499 138.8 149.699 138.7 149.899C138.6 150.099 138.6 150.499 138.5 150.699C138.4 150.899 138 150.899 138.1 151.299C138.1 151.599 137.7 151.399 137.6 151.699C137.6 151.899 137.4 152.199 137.1 152.099C136.9 152.099 136.6 152.099 136.6 152.199C136.6 152.299 136.7 152.599 136.6 152.699C136.6 152.699 136.3 152.699 136.6 153.199C136.6 153.199 136.6 153.199 136.4 153.199C136.1 152.999 136 153.099 136.1 153.299C136.1 153.599 136.1 153.599 136.1 153.699C135.9 153.899 135.8 153.999 135.5 154.099C135.3 154.099 135.1 154.099 134.9 154.099C134.7 154.099 134.7 154.499 134.4 154.299C134.1 154.099 134 154.299 133.8 154.299C133.8 154.299 133.5 154.099 133.7 154.699C133.1 154.099 133.3 155.199 132.9 155.099C132.5 154.999 132.2 155.199 131.9 155.299C131.9 155.299 131.7 155.199 131.6 155.599C131.6 155.799 131.5 155.799 131.4 155.599C131.1 154.999 130.8 155.399 130.5 155.299C130.2 155.199 129.8 155.299 129.5 154.799C129.5 154.599 129.3 154.399 128.9 154.899C128.7 155.099 128.7 154.899 128.5 154.899C128.4 154.899 128.2 155.099 128.1 155.099C128.1 155.099 128.1 154.799 128.1 154.699C127.7 154.899 127.5 154.699 127.4 154.399C127.3 154.099 127.2 153.799 126.9 153.699C126.4 153.399 126.1 152.799 126 152.299C126 151.999 126 151.599 127.1 151.199C127.6 150.999 128.1 150.899 128.5 150.899C128.7 150.899 129 150.899 129 150.899C129.1 150.899 129.2 150.899 129.4 150.899C129.6 150.899 130.1 150.699 129.9 150.899C129.9 150.899 130.1 150.799 129.7 151.099C130.3 150.599 130 151.099 130.2 151.099C130.3 151.099 130.7 150.599 130.6 150.899C130.9 150.299 130.8 150.399 130.8 150.599C130.8 150.899 130.8 150.999 130.9 150.999C131 150.999 131.1 150.899 131.2 150.999C131.4 150.999 131.7 150.899 132 150.799C132 150.799 132 150.399 132.1 150.699C132.3 150.899 132.3 150.699 132.3 150.699C132.3 150.699 132.3 150.499 132.5 150.699C133.1 151.099 133.1 150.699 133.4 150.499C133.7 150.399 134 150.199 134.1 149.899C134.1 149.699 134.1 149.299 134.3 149.299C134.3 149.299 134.3 148.999 134.7 149.299C134.8 149.399 134.6 148.999 134.6 148.999C134.6 148.899 134.8 148.799 134.9 148.699C135 148.599 135.2 148.499 135.3 148.299C135.3 148.199 135.3 147.899 135.3 147.799C135.3 147.699 135.4 147.599 135.5 147.499C135.7 147.499 135.9 147.499 136.1 147.399C136.2 147.399 136.1 146.999 136.4 147.099C137 147.099 137 146.799 137.2 146.599C137.4 146.399 137.6 146.199 137.7 145.899C137.7 145.699 138.2 145.899 138.3 145.699C138.3 145.699 139.6 146.399 140 146.699C140 146.699 140.2 146.799 140.2 146.899C140.5 147.299 141 147.799 140.8 147.999C140.6 148.199 140.4 148.499 140.3 148.699L140 148.199Z" fill="black"/>
<path d="M192.299 146.398C192.599 146.698 192.999 147.098 193.299 147.498C193.399 147.598 193.699 147.998 193.999 148.298C194.199 148.598 194.399 148.898 194.599 149.298C194.899 149.998 194.799 150.798 194.599 151.598L194.199 153.198C193.999 153.898 193.499 154.498 193.799 155.398C193.899 155.798 193.099 156.298 192.899 156.898C192.299 158.598 191.499 160.198 190.699 161.798C189.999 163.398 189.299 164.998 188.399 166.498C187.999 167.298 187.399 167.998 186.899 168.698L186.499 169.198L185.899 170.098C185.499 170.698 184.999 171.298 184.599 171.998C184.199 172.598 183.799 173.098 183.499 173.598L182.899 174.298C182.699 174.098 182.499 173.798 182.299 173.598C181.499 172.598 180.699 171.698 179.899 170.798C179.499 170.398 179.099 169.998 178.699 169.498C178.399 169.198 178.199 168.998 177.999 168.698C177.799 168.398 177.499 168.198 177.299 167.898L176.999 167.498L176.899 167.298C176.899 167.098 176.899 166.898 176.799 166.698C176.799 166.498 176.599 166.398 176.399 166.498C176.199 166.698 176.399 167.198 176.299 167.198C176.399 166.998 175.499 167.798 175.499 168.598C175.499 168.598 175.199 168.798 174.999 168.898C174.599 168.998 174.199 169.198 173.799 169.498C173.299 169.898 172.799 170.298 172.399 170.698C171.599 171.498 170.699 171.898 169.899 172.298L167.699 173.298C167.099 171.398 166.399 169.398 165.799 167.598C165.499 166.598 165.299 165.598 164.999 164.598C164.999 164.398 164.899 164.398 164.799 164.398C164.799 164.398 164.799 164.398 164.799 163.998C164.799 163.698 164.399 163.998 164.199 164.098H164.099C163.999 164.198 163.799 164.298 163.699 164.398C163.499 164.598 163.299 164.798 163.299 165.198C163.299 165.198 163.099 165.398 162.999 165.398C161.199 165.698 160.399 167.498 158.899 168.198L158.299 168.498C158.099 168.598 157.999 168.698 157.599 168.898C157.299 169.098 156.999 169.298 156.699 169.398L155.699 169.898C154.999 170.198 154.399 170.298 153.699 170.198C152.999 170.098 152.399 169.698 151.899 169.198C151.699 168.898 151.499 168.598 151.299 168.198C151.099 167.798 150.899 167.498 150.599 167.198C150.499 167.198 150.299 166.798 150.199 166.498V166.298L150.099 166.198V165.998C150.299 164.598 149.499 163.398 149.199 161.998C149.199 161.598 148.999 161.298 148.899 160.898L148.699 160.298C148.699 160.198 148.699 160.098 148.799 159.598C148.799 159.398 148.799 159.098 148.799 158.998C148.799 158.998 148.499 159.398 148.399 159.798C148.399 160.198 148.299 159.798 148.199 159.998C148.199 160.098 148.199 160.398 148.199 160.398C148.199 160.398 148.199 160.398 147.999 160.398C147.999 160.398 147.799 160.398 147.699 160.498C147.499 160.498 147.299 160.598 147.099 160.698C146.999 160.698 146.899 160.798 146.799 160.898C146.499 161.398 146.099 161.798 145.699 162.098L145.399 162.398L144.799 162.898L143.499 163.798C142.699 164.398 141.899 164.798 141.099 165.398V165.198C140.999 165.198 140.799 164.898 140.799 164.898L140.399 164.298C140.099 163.898 139.799 163.498 139.499 163.098C139.199 162.698 138.899 162.298 138.599 161.898L138.199 161.298L137.899 160.798C137.599 160.298 137.299 159.798 136.999 159.198C136.499 158.098 135.999 156.998 135.599 155.898C135.199 154.698 134.899 153.298 135.799 152.098C136.199 151.598 136.699 151.498 137.199 151.898C137.499 152.198 137.899 152.498 138.099 152.898C138.399 153.498 138.799 154.098 139.099 154.698C139.799 155.898 140.799 156.798 141.299 158.198C141.299 158.398 141.499 158.598 141.599 158.798C141.599 158.898 141.599 158.998 141.499 159.198V159.398C141.799 159.398 141.899 159.398 141.999 159.398C141.999 159.398 141.999 159.498 142.199 159.398C142.199 159.398 142.299 159.298 142.399 159.298C142.699 159.098 142.699 159.298 143.699 158.398C144.399 157.898 144.899 157.198 145.499 156.598C146.599 155.598 147.799 154.498 149.099 153.698C149.899 152.598 150.799 151.698 151.699 150.998C151.899 151.898 152.099 152.898 152.299 153.898C152.599 155.698 152.899 157.298 153.199 158.798L153.399 159.498L153.599 160.098C153.699 160.498 153.799 160.898 153.999 161.298C154.299 162.098 154.499 162.898 154.799 163.598L155.199 164.598C155.199 164.598 155.199 164.698 155.199 164.798C155.199 164.798 155.199 164.998 155.299 164.998H155.499C155.499 164.998 155.599 164.998 155.699 164.898L156.399 164.498C157.799 163.598 159.199 162.698 160.599 161.698C161.099 161.398 161.299 160.798 161.999 160.598C162.199 160.598 162.899 160.098 163.399 159.698C163.899 159.298 164.499 158.798 164.999 158.398C165.699 157.898 166.299 157.298 166.999 156.798C167.199 157.198 167.399 157.598 167.499 157.998C167.899 159.298 168.399 160.398 168.799 161.398L169.799 163.798L170.599 165.698C170.599 165.898 170.799 166.098 170.799 166.298V166.598H170.899C170.899 166.598 171.099 166.598 171.199 166.498C171.399 166.498 171.499 166.298 171.699 166.198C171.699 166.198 171.999 165.998 172.199 165.798C172.399 165.598 172.599 165.498 172.799 165.298C172.999 165.098 173.099 164.898 173.299 164.698L173.499 164.398C173.499 164.298 173.799 163.998 173.899 163.798L174.499 162.898C174.699 162.598 174.899 162.398 175.099 162.198C175.499 161.798 175.999 161.498 176.699 161.398C177.299 161.398 177.899 161.398 178.399 161.798C178.899 162.098 179.499 162.598 179.899 163.198C180.099 163.398 180.299 163.698 180.499 163.898C180.699 164.098 180.799 164.198 180.899 164.298C181.099 164.598 181.299 164.898 181.299 165.298C181.299 165.598 182.099 165.698 182.399 166.098V166.298C182.499 166.298 182.599 166.298 182.599 166.298C182.599 166.298 182.599 166.298 182.599 166.398L182.799 166.598L182.899 166.398C182.899 166.398 182.899 166.298 182.999 166.198L183.199 165.798C183.299 165.598 183.399 165.498 183.499 165.298C183.999 164.498 184.199 163.598 184.699 162.798C185.099 161.998 185.599 161.098 186.099 160.298C186.699 159.298 187.399 158.298 187.999 157.198C188.599 156.098 188.799 154.798 189.499 153.798C190.099 152.798 190.499 151.798 190.899 150.698V150.298C190.999 150.298 190.999 150.198 190.999 150.198C190.999 150.198 190.999 149.998 190.999 149.898C190.999 149.898 190.999 149.698 190.899 149.698L190.599 149.398C189.199 147.698 187.599 146.098 185.799 144.798C184.799 143.998 184.199 142.898 183.199 142.198C182.699 141.898 182.899 140.198 183.399 139.898C183.399 139.898 183.599 139.898 183.699 139.898C184.999 140.198 186.399 140.398 187.499 141.298C189.099 142.698 190.799 144.198 192.299 145.798V146.398Z" fill="black"/>
<path d="M140.201 177.702C141.001 177.702 141.801 177.702 142.601 177.602C142.901 177.602 143.201 177.802 143.501 177.302C143.601 177.002 144.001 177.602 144.201 177.602C144.901 177.502 145.701 177.602 146.401 177.402C147.101 177.402 147.801 177.002 148.501 176.902C149.201 176.902 150.001 177.102 150.601 176.702C151.201 176.402 151.701 176.902 152.301 176.702C152.901 176.502 153.501 176.402 154.101 176.702C154.501 176.802 155.001 177.002 155.401 176.902C155.701 176.902 155.901 176.502 156.201 176.502C156.501 176.502 156.801 176.802 157.001 176.102C157.001 176.102 157.101 176.102 157.201 176.202C157.501 176.602 157.901 176.502 158.101 176.202C158.301 175.902 158.501 175.902 158.801 175.902C159.401 175.902 160.001 175.802 160.601 175.902C161.101 175.902 161.501 176.102 162.001 176.202C162.501 176.202 163.001 175.902 163.401 176.202C163.901 176.502 164.301 176.402 164.701 176.402C164.901 176.402 165.201 176.702 165.401 176.002C165.401 176.002 165.501 176.002 165.601 176.002C166.301 176.802 167.001 175.702 167.701 175.802C168.401 176.002 169.201 175.802 169.901 175.802C170.101 175.802 170.301 176.002 170.501 175.502C170.501 175.302 170.801 175.302 170.901 175.502C171.501 176.102 172.001 175.702 172.601 175.802C173.201 175.802 173.901 175.602 174.501 176.002C174.801 176.202 175.201 176.302 175.501 175.702C175.601 175.402 176.001 175.702 176.201 175.702C176.401 175.702 176.601 175.402 176.801 175.302C177.001 175.302 177.101 175.502 177.301 175.602C177.301 175.602 177.401 175.602 177.501 175.602C178.001 175.202 178.401 175.302 178.901 175.402C179.001 175.402 178.901 175.502 179.101 175.602H179.201C179.201 175.602 179.201 175.502 179.201 175.402V175.102C179.401 174.602 179.701 174.102 180.901 174.102C181.401 174.102 182.001 174.202 182.201 174.502C182.401 174.702 182.601 175.002 182.601 175.202C182.601 175.502 182.601 175.802 182.601 176.102C182.601 176.802 182.801 178.302 182.301 179.102C182.301 179.202 182.301 179.502 182.201 179.602C182.001 179.602 181.801 179.602 181.601 179.302C181.601 179.302 181.401 179.302 181.301 179.302C180.901 179.702 180.101 179.802 179.401 179.802H178.901H178.601C178.401 179.802 178.201 179.802 178.001 179.802C177.301 179.802 176.601 180.602 175.901 180.302C175.501 181.002 175.101 180.902 174.601 180.702C173.101 180.102 171.701 180.702 170.301 180.702C168.801 180.702 167.401 180.902 165.901 180.902C165.701 180.902 165.501 181.302 165.201 181.002C164.901 180.802 164.601 181.002 164.301 181.002C164.001 181.002 163.701 181.202 163.401 181.002C162.201 180.402 161.101 180.902 160.001 180.802C158.901 180.802 157.701 180.802 156.601 181.002C155.901 181.102 155.201 181.502 154.501 181.402C154.201 181.402 153.901 181.702 153.601 181.102C153.601 180.902 153.301 181.402 153.101 181.402C152.601 181.402 152.201 181.402 151.701 181.402C151.001 181.402 150.401 181.402 149.701 181.502C149.301 181.502 148.901 181.802 148.501 181.902C148.101 181.902 147.701 182.002 147.201 181.902C146.701 181.902 146.101 181.702 145.601 181.602C145.001 181.602 144.501 181.902 143.901 181.602C142.901 181.102 141.901 181.502 140.901 181.402C139.901 181.402 138.901 181.402 138.001 181.602C137.501 181.702 136.901 181.202 136.401 181.302C136.101 181.302 135.701 179.902 135.801 179.402V179.202C136.301 178.702 136.701 178.002 137.401 178.002C138.301 178.002 139.201 178.002 140.101 177.902L140.201 177.702Z" fill="black"/>
<path d="M147.499 186.402C147.499 186.302 147.499 186.202 147.499 186.002C147.499 186.002 147.799 186.002 147.199 185.802C146.899 185.802 147.599 185.802 147.599 185.802C147.599 185.702 147.599 185.602 147.599 185.402C147.599 185.302 147.399 185.102 147.299 185.002C147.299 184.902 147.599 184.802 147.299 184.702C146.999 184.602 147.499 184.602 147.399 184.502C147.299 184.402 147.199 184.302 147.399 184.202C147.599 184.202 147.799 184.202 147.699 184.002C147.699 184.002 147.299 183.902 147.399 183.802C147.399 183.802 147.699 183.802 147.099 183.602C147.099 183.602 147.099 183.602 147.199 183.602C147.599 183.602 147.599 183.602 147.299 183.502C146.999 183.502 147.099 183.502 147.099 183.402C147.099 183.402 147.099 183.202 147.099 183.102C147.099 183.102 147.399 183.002 147.499 182.902C147.499 182.902 147.299 182.702 147.499 182.702C147.799 182.702 147.799 182.602 147.799 182.502C147.799 182.502 148.099 182.502 147.499 182.402C148.299 182.402 147.299 182.202 147.499 182.102C147.699 182.002 147.499 181.902 147.499 181.802C147.499 181.802 147.699 181.802 147.199 181.802C146.999 181.802 146.999 181.802 147.199 181.802C147.799 181.802 147.399 181.602 147.599 181.502C147.699 181.402 147.399 181.302 147.899 181.202C148.099 181.202 148.199 181.102 147.599 181.102C147.299 181.102 147.599 181.102 147.599 181.002H147.299C147.299 181.002 147.499 181.002 147.599 181.002C146.899 180.902 147.799 180.702 147.599 180.602L146.199 179.502L149.699 178.202C150.299 178.002 150.899 178.202 151.299 178.502C151.499 178.702 151.799 179.102 151.099 180.002C150.799 180.402 150.399 180.802 150.199 181.002C150.199 181.002 149.999 181.202 149.999 181.302L151.499 180.302C152.099 180.402 151.699 180.602 151.699 180.702C151.699 180.802 152.399 180.902 152.099 181.102C152.699 181.102 152.599 181.302 152.399 181.302C151.699 181.602 152.199 181.802 152.099 182.102C152.099 182.402 152.099 182.702 152.099 182.902C152.099 182.902 152.399 183.002 152.099 183.002C151.799 183.002 152.099 183.102 152.099 183.202C152.099 183.202 152.199 183.302 152.099 183.402C151.399 183.602 151.799 183.802 151.699 184.002C151.699 184.202 151.499 184.402 151.699 184.602C151.699 184.702 152.099 184.902 151.999 185.002C151.999 185.002 152.299 185.202 151.699 185.102C151.499 185.102 151.999 185.202 151.999 185.202C151.999 185.202 151.999 185.402 151.999 185.502C151.999 185.602 151.999 185.702 151.999 185.902C151.999 185.902 152.299 186.102 152.299 186.202V186.402C152.299 186.402 151.999 186.502 151.899 186.602C151.899 186.602 152.099 186.902 151.799 186.902C151.299 186.902 151.499 187.202 151.399 187.402C151.399 187.502 151.199 187.702 151.299 187.902L149.599 187.202C149.399 187.202 150.099 187.102 150.299 187.102H150.499C150.999 187.502 151.399 188.602 150.499 189.102C150.199 189.302 149.699 189.402 149.299 189.302L146.899 189.002L147.699 186.902C147.699 186.902 147.699 186.702 147.699 186.602L147.499 186.402Z" fill="black"/>
</svg>
