<svg width="300" height="300" viewBox="0 0 300 300" fill="none" xmlns="http://www.w3.org/2000/svg">
<path d="M184.298 141.2C183.998 140.8 183.698 140.5 183.298 140.1C183.198 140 183.298 139.7 182.698 139.9C182.398 140 182.698 139.5 182.698 139.3C182.298 139 182.098 138.6 181.698 138.3C181.398 138 180.898 137.8 180.498 137.6C180.198 137.3 180.098 136.8 179.498 136.7C178.998 136.7 179.198 136 178.898 135.9C178.598 135.7 178.198 135.5 178.198 135.1C178.198 134.8 178.198 134.4 177.898 134.3C177.698 134.3 177.398 134.3 177.298 134.2C177.298 134.1 177.298 133.7 176.698 134.1C176.698 134.1 176.698 134 176.698 133.9C176.898 133.5 176.698 133.3 176.398 133.4C176.098 133.4 175.998 133.4 175.898 133.3C175.598 133 175.298 132.8 175.098 132.5C174.898 132.3 174.898 131.9 174.798 131.6C174.598 131.3 174.198 131.3 174.298 130.9C174.298 130.5 174.198 130.3 173.998 130.1C173.898 130 173.998 129.7 173.398 130.1C173.698 129.2 172.598 129.6 172.498 129.2C172.298 128.7 171.898 128.5 171.598 128.2C171.598 128.2 171.598 127.9 171.098 128.2C170.998 128.2 170.898 128.2 170.898 128.1C171.098 127.4 170.598 127.4 170.398 127.1C170.198 126.7 169.698 126.6 169.798 126C169.798 125.7 169.798 125.5 169.198 125.7C168.898 125.8 168.998 125.5 168.898 125.4C168.798 125.4 168.498 125.4 168.398 125.4C168.398 125.4 168.398 125.1 168.398 124.9C167.498 124.9 167.798 123.9 167.298 123.6C166.798 123.3 166.398 122.8 166.098 122.3C165.898 122 165.798 121.7 166.498 120.7C166.798 120.3 167.198 119.9 167.598 119.8C167.798 119.8 168.098 119.6 168.198 119.7C168.398 119.7 168.598 119.8 168.798 119.9C169.198 120 169.798 119.9 169.898 120.4C169.898 120.5 170.198 120.4 169.898 120.9V121C170.798 120.8 170.798 121.6 171.198 121.9C171.498 122.2 172.298 122.1 172.398 122.6C172.998 122.4 173.098 122.6 173.198 123C173.298 124.1 174.198 124.4 174.798 125.2C175.298 125.9 175.998 126.5 176.598 127.2C176.598 127.3 177.098 127.2 176.998 127.5C176.998 127.8 177.198 127.8 177.398 128C177.498 128.1 177.798 128.2 177.698 128.4C177.698 129.4 178.498 129.6 178.898 130.2C179.298 130.8 179.798 131.3 180.398 131.7C180.798 131.9 181.298 132 181.498 132.4C181.498 132.6 181.998 132.4 181.698 133C181.698 133.2 182.098 133 182.198 133C182.398 133.2 182.598 133.4 182.798 133.6C183.098 133.9 183.299 134.2 183.598 134.5C183.799 134.7 184.098 134.7 184.398 134.8C184.598 134.9 184.798 135.1 184.898 135.4C185.098 135.7 185.098 136.1 185.298 136.4C185.498 136.7 185.898 136.8 185.998 137.2C185.998 138 186.598 138.3 186.998 138.8C187.398 139.3 187.698 139.8 188.198 140.1C188.498 140.3 188.299 140.9 188.598 141.1C188.698 141.2 187.798 142.4 187.398 142.7L187.198 142.8C186.598 142.8 185.898 143.1 185.698 142.8C185.398 142.3 184.998 142 184.598 141.6L184.298 141.2Z" fill="black"/>
<path d="M115.099 126.502C114.899 127.502 114.699 128.502 114.599 129.502C114.599 129.902 114.299 130.302 114.799 130.702C115.099 130.902 114.399 131.302 114.399 131.602C114.399 132.602 114.399 133.602 114.399 134.702C114.399 135.702 114.699 136.702 114.699 137.702C114.699 138.702 114.499 139.702 114.799 140.702C115.099 141.502 114.599 142.302 114.799 143.102C114.999 143.902 115.099 144.802 114.899 145.602C114.799 146.202 114.599 146.801 114.699 147.401C114.699 147.801 115.099 148.102 115.199 148.502C115.199 148.902 114.999 149.302 115.599 149.602C115.599 149.602 115.599 149.801 115.499 149.901C115.099 150.301 115.199 150.802 115.499 151.102C115.799 151.402 115.799 151.702 115.799 152.002C115.899 152.802 115.999 153.702 116.099 154.502C116.099 155.102 115.999 155.801 115.999 156.401C115.999 157.101 116.399 157.701 116.199 158.401C115.999 159.001 116.099 159.602 116.199 160.201C116.199 160.501 115.999 161.001 116.699 161.201C116.699 161.201 116.699 161.301 116.699 161.401C115.999 162.501 117.199 163.302 117.199 164.302C117.199 165.302 117.499 166.301 117.599 167.401C117.599 167.701 117.599 168.001 117.999 168.201C118.199 168.201 118.199 168.501 118.099 168.701C117.599 169.602 118.099 170.302 118.099 171.102C118.099 172.002 118.599 172.802 118.199 173.802C118.099 174.202 117.999 174.702 118.699 175.102C118.999 175.302 118.799 175.702 118.899 176.102C118.899 176.402 119.299 176.602 119.399 176.802C119.399 177.002 119.299 177.302 119.199 177.502V177.701C120.099 178.902 119.499 180.302 119.899 181.602C120.299 182.902 120.499 184.202 120.699 185.502C120.699 186.201 120.699 187.002 119.699 187.701C119.199 188.002 118.699 188.101 118.299 187.901C117.999 187.701 117.699 187.502 117.599 187.302C117.399 186.902 117.199 186.502 116.999 186.102C116.599 185.302 115.999 184.602 116.099 183.602C116.099 183.302 115.799 183.102 116.199 182.701V182.502C115.199 181.502 115.499 180.202 115.199 179.002C114.999 178.002 114.199 177.102 114.299 176.102C113.599 175.702 113.599 175.001 113.699 174.401C113.999 172.301 113.199 170.401 112.999 168.401C112.799 166.401 112.399 164.302 112.099 162.302C112.099 162.002 111.699 161.702 111.899 161.302C112.099 160.902 111.899 160.402 111.799 160.002C111.799 159.602 111.599 159.202 111.699 158.802C112.099 157.102 111.599 155.601 111.499 153.901C111.499 152.301 111.299 150.702 110.999 149.102C110.799 148.102 110.399 147.202 110.499 146.202C110.499 145.802 110.199 145.301 110.699 144.901C110.899 144.801 110.399 144.402 110.299 144.102C110.299 143.402 110.299 142.702 110.199 142.102C110.199 141.202 110.199 140.202 110.099 139.302C110.099 138.702 109.799 138.202 109.699 137.602C109.699 137.002 109.699 136.402 109.699 135.802C109.699 135.002 109.999 134.302 110.099 133.502C110.099 132.702 109.899 131.902 110.199 131.102C110.799 129.702 110.699 128.202 110.999 126.702C111.399 125.202 111.799 123.802 112.399 122.302C112.699 121.402 113.599 121.002 114.099 120.302C114.399 120.002 115.799 120.502 116.099 121.002C116.099 121.002 116.099 121.202 116.099 121.302C116.099 122.102 116.299 123.002 115.899 123.602C115.299 124.502 114.999 125.602 114.699 126.702L115.099 126.502Z" fill="black"/>
<path d="M166.099 147.298C166.499 147.098 166.799 146.998 167.199 146.698C167.299 146.698 167.599 146.698 167.499 146.198C167.499 145.898 167.899 146.398 167.999 146.398C168.299 146.198 168.699 146.098 168.999 145.898C169.299 145.698 169.499 145.298 169.799 145.098C170.099 144.898 170.599 145.098 170.799 144.598C170.999 144.198 171.399 144.598 171.599 144.298C171.799 144.098 172.099 143.898 172.499 143.998C172.799 143.998 173.099 144.198 173.199 143.998C173.199 143.898 173.199 143.498 173.399 143.498C173.499 143.498 173.799 143.698 173.699 142.998C173.699 142.998 173.699 142.998 173.899 142.998C174.199 143.298 174.399 143.198 174.399 142.998C174.399 142.698 174.499 142.698 174.599 142.598C174.899 142.498 175.199 142.298 175.499 142.298C175.699 142.298 175.999 142.298 176.299 142.298C176.499 142.298 176.699 141.898 176.999 142.098C177.299 142.298 177.499 142.198 177.699 142.098C177.799 142.098 178.099 142.298 177.899 141.598C178.499 142.298 178.499 141.098 178.899 141.198C179.299 141.198 179.599 140.998 179.999 140.898C179.999 140.898 180.299 140.998 180.199 140.498C180.199 140.298 180.199 140.298 180.399 140.398C180.899 140.898 180.999 140.398 181.299 140.398C181.599 140.398 181.899 139.998 182.299 140.398C182.499 140.598 182.699 140.598 182.699 139.998C182.699 139.698 182.899 139.998 182.999 139.798C182.999 139.798 182.999 139.398 183.199 139.398C183.199 139.398 183.399 139.598 183.499 139.698C183.799 138.898 184.499 139.698 184.899 139.298C185.299 138.998 185.799 138.898 186.299 138.898C186.599 138.898 186.899 138.898 187.399 139.998C187.599 140.498 187.799 140.998 187.699 141.398C187.699 141.698 187.699 141.898 187.599 141.998C187.499 142.098 187.399 142.298 187.299 142.398C187.099 142.698 186.899 143.298 186.599 143.098C186.499 143.098 186.499 143.398 186.199 142.898C185.999 143.798 185.499 143.398 185.099 143.598C184.799 143.798 184.599 144.498 184.199 144.298C184.199 144.998 183.999 144.898 183.699 144.798C182.799 144.398 182.299 144.998 181.599 145.198C180.899 145.298 180.299 145.698 179.599 145.898C179.499 145.898 179.599 146.298 179.299 146.098C179.099 145.898 178.999 146.098 178.799 146.198C178.699 146.198 178.599 146.398 178.399 146.298C177.599 145.898 177.299 146.498 176.699 146.598C176.199 146.698 175.599 146.898 175.199 147.298C174.899 147.498 174.799 147.998 174.399 147.998C174.199 147.998 174.199 148.398 173.899 147.898C173.799 147.798 173.899 148.198 173.799 148.298C173.599 148.398 173.399 148.498 173.199 148.598C172.899 148.698 172.599 148.798 172.299 148.998C172.099 149.098 172.099 149.398 171.899 149.598C171.699 149.698 171.599 149.798 171.299 149.898C170.999 149.898 170.699 149.898 170.399 149.898C170.099 149.898 169.999 150.298 169.599 150.198C168.899 149.998 168.599 150.398 168.199 150.598C167.699 150.798 167.299 150.898 166.899 151.298C166.699 151.498 166.199 151.198 165.999 151.298C165.899 151.298 165.099 150.098 164.899 149.698V149.498C164.899 148.998 164.799 148.198 165.099 148.098C165.499 147.998 165.899 147.698 166.299 147.498L166.099 147.298Z" fill="black"/>
<path d="M168.6 166.202C168.6 165.902 168.5 165.502 168.3 165.202C168.3 165.102 168.5 164.902 167.9 164.902C167.6 164.902 168.2 164.602 168.2 164.502C168.1 164.202 168.1 163.902 167.9 163.602C167.8 163.302 167.5 163.102 167.3 162.802C167.2 162.502 167.3 162.102 167 161.902C166.7 161.702 167.1 161.402 167 161.202C166.8 161.002 166.7 160.702 166.8 160.402C166.9 160.202 167.1 160.002 166.9 159.802C166.9 159.802 166.5 159.702 166.5 159.602C166.5 159.502 166.7 159.302 166.1 159.302C166.1 159.302 166.1 159.302 166.2 159.202C166.6 159.002 166.5 158.802 166.2 158.802C165.9 158.802 165.9 158.702 165.9 158.602C165.9 158.402 165.7 158.102 165.7 157.902C165.7 157.702 165.9 157.502 165.9 157.302C165.9 157.102 165.6 157.002 165.9 156.702C166.2 156.402 166.1 156.302 166 156.102C166 156.102 166.2 155.802 165.6 155.902C166.3 155.402 165.2 155.402 165.3 155.102C165.4 154.802 165.3 154.502 165.1 154.202C165.1 154.202 165.2 154.002 164.8 154.002C164.6 154.002 164.6 154.002 164.7 153.902C165.2 153.502 164.8 153.402 164.9 153.102C164.9 152.802 164.6 152.602 164.9 152.202C165.1 152.002 165.1 151.902 164.5 151.902C164.2 151.902 164.5 151.702 164.4 151.602C164.4 151.602 164 151.602 164 151.502C164 151.502 164.2 151.302 164.3 151.202C163.6 151.002 164.3 150.402 164 150.102C163.7 149.802 163.7 149.402 163.6 149.002C163.6 148.802 163.6 148.502 164.7 148.002C165.2 147.802 165.7 147.602 166 147.602C166.2 147.602 166.5 147.602 166.6 147.602C166.7 147.602 166.9 147.802 167 147.902C167.3 148.102 167.9 148.202 167.7 148.502C167.7 148.602 168 148.602 167.5 148.802C168.4 148.902 168 149.402 168.1 149.802C168.2 150.102 168.9 150.202 168.7 150.602C169.4 150.602 169.3 150.802 169.2 151.002C168.7 151.802 169.3 152.202 169.4 152.902C169.4 153.502 169.7 154.102 169.8 154.702C169.8 154.802 170.2 154.802 170 155.002C169.8 155.202 170 155.302 170 155.402C170 155.502 170.2 155.602 170 155.802C169.5 156.402 170 156.802 170 157.302C170 157.802 170 158.302 170.4 158.702C170.6 159.002 171 159.202 170.9 159.502C170.9 159.602 171.2 159.702 170.7 159.902C170.5 159.902 171 159.902 171.1 160.102C171.1 160.302 171.2 160.502 171.3 160.702C171.3 161.002 171.3 161.302 171.5 161.502C171.5 161.702 171.9 161.802 172 161.902C172.1 162.102 172.1 162.202 172.1 162.402C172.1 162.602 171.9 162.902 171.9 163.102C171.9 163.302 172.2 163.502 172 163.802C171.6 164.302 172 164.702 172 165.102C172 165.502 172.1 165.902 172.3 166.302C172.4 166.502 172 166.802 172.1 167.102C172.1 167.102 170.7 167.702 170.2 167.802H170C169.5 167.802 168.7 167.802 168.7 167.402C168.7 167.002 168.5 166.702 168.4 166.302L168.6 166.202Z" fill="black"/>
<path d="M162.2 186.199C162.3 185.799 162.5 185.399 162.5 184.999C162.5 184.799 162.8 184.799 162.4 184.499C162.2 184.299 162.8 184.399 162.8 184.199C162.8 183.799 163.1 183.499 163.1 183.099C163.1 182.699 163.1 182.299 163.1 181.899C163.1 181.499 163.6 181.299 163.4 180.799C163.2 180.399 163.8 180.299 163.8 179.999C163.8 179.699 163.8 179.299 164.1 179.099C164.3 178.899 164.6 178.799 164.6 178.599C164.6 178.399 164.3 178.199 164.4 178.099C164.4 177.999 164.8 177.899 164.2 177.599C164.2 177.599 164.2 177.599 164.4 177.599C164.8 177.599 164.9 177.399 164.6 177.199C164.4 176.999 164.5 176.899 164.5 176.799C164.5 176.499 164.6 176.199 164.8 175.899C164.9 175.699 165.2 175.599 165.4 175.399C165.5 175.199 165.4 174.899 165.7 174.699C166.1 174.599 166.1 174.399 166.2 174.199C166.2 174.099 166.6 173.999 166 173.699C166.9 173.699 166 172.999 166.3 172.699C166.6 172.399 166.6 171.999 166.7 171.699C166.7 171.699 166.9 171.599 166.5 171.299C166.4 171.299 166.4 171.099 166.5 171.099C167.2 171.099 166.9 170.599 167.1 170.399C167.3 170.099 167.1 169.699 167.7 169.599C167.9 169.599 168.1 169.399 167.6 169.099C167.4 168.899 167.6 168.899 167.6 168.799C167.6 168.699 167.3 168.499 167.4 168.399C167.4 168.399 167.7 168.399 167.8 168.299C167.3 167.699 168.3 167.499 168.2 166.999C168.2 166.699 168.2 166.599 168.2 166.299C168.2 165.999 168.4 165.699 168.6 165.299C168.8 164.899 169.3 164.499 170.4 165.099C170.9 165.299 171.3 165.699 171.5 165.999C171.6 166.199 171.8 166.399 171.8 166.499C171.8 166.599 171.9 166.799 172 166.899C172.1 167.099 172.6 167.399 172.2 167.699C172.1 167.699 172.3 167.999 171.8 167.899C172.5 168.499 171.8 168.899 171.8 169.299C171.8 169.699 172.2 170.199 171.8 170.499C172.3 170.899 172.2 171.099 171.9 171.199C171 171.699 171.2 172.499 170.9 173.199C170.6 173.899 170.4 174.599 170.1 175.299C170.1 175.399 170.4 175.599 170.1 175.699C169.8 175.699 169.9 175.999 169.9 176.099C169.9 176.199 169.9 176.399 169.7 176.499C168.9 176.799 169.1 177.499 168.8 177.999C168.5 178.499 168.3 178.999 168.3 179.599C168.3 179.999 168.5 180.399 168.3 180.699C168.2 180.799 168.5 181.099 167.9 180.999C167.7 180.999 168.1 181.299 168.1 181.399C168.1 181.599 168 181.899 167.9 182.099C167.8 182.399 167.6 182.699 167.6 183.099C167.6 183.299 167.7 183.599 167.7 183.799C167.7 183.999 167.7 184.199 167.5 184.399C167.3 184.599 167.1 184.799 166.9 185.099C166.8 185.299 166.9 185.699 166.6 185.899C166 186.199 166.1 186.799 165.9 187.199C165.7 187.599 165.5 188.099 165.5 188.599C165.5 188.899 165 188.999 164.9 189.199C164.9 189.299 163.4 189.199 162.9 188.999H162.7C162.3 188.599 161.7 188.199 161.8 187.899C162 187.399 162.1 186.999 162.2 186.499V186.199Z" fill="black"/>
<path d="M157.6 168.101C157.5 167.801 157.4 167.601 157.2 167.401C157.2 167.401 157.2 167.101 156.8 167.401C156.6 167.501 157 167.101 156.9 167.001C156.7 166.801 156.6 166.601 156.3 166.501C156.1 166.401 155.7 166.401 155.5 166.301C155.3 166.301 155.2 165.901 154.9 166.101C154.6 166.301 154.6 165.801 154.4 165.801C154.2 165.801 154 165.801 153.8 165.601C153.7 165.401 153.6 165.201 153.4 165.301C153.3 165.301 153.2 165.701 153.1 165.701C153.1 165.701 152.9 165.401 152.8 166.001C152.8 166.001 152.8 166.001 152.8 165.901C152.7 165.501 152.6 165.501 152.5 165.901C152.5 166.201 152.4 166.101 152.3 166.201C152.1 166.201 152 166.301 151.8 166.301C151.7 166.301 151.5 166.101 151.3 166.101C151.1 166.101 151.1 166.401 150.8 166.201C150.5 166.001 150.4 166.201 150.3 166.201C150.3 166.201 150 166.101 150.3 166.601C149.6 166.101 150.1 167.101 149.8 167.101C149.5 167.101 149.4 167.401 149.2 167.701C149.2 167.701 149 167.701 149.2 168.001C149.3 168.101 149.2 168.201 149.2 168.101C148.6 167.901 148.8 168.301 148.6 168.401C148.4 168.501 148.6 168.901 148 168.901C147.8 168.901 147.6 169.001 148 169.401C148.2 169.601 148 169.601 148 169.701L148.2 170.001C148.2 170.001 147.9 170.001 147.8 170.001C148.3 170.601 147.4 170.601 147.4 171.101C147.4 171.501 147.4 171.901 147.2 172.301C147.2 172.501 146.9 172.701 145.7 172.701C145.2 172.701 144.6 172.701 144.3 172.501C144.1 172.401 143.9 172.301 143.8 172.201C143.8 172.001 143.6 171.901 143.5 171.701C143.4 171.401 142.9 170.901 143.2 170.701C143.3 170.701 143 170.401 143.6 170.501C142.9 169.901 143.6 169.501 143.6 169.101C143.6 168.701 143.2 168.101 143.6 167.801C143.1 167.301 143.3 167.101 143.6 167.001C144.6 166.501 144.6 165.601 145.3 165.001C145.9 164.401 146.5 163.701 147.2 163.201C147.3 163.201 147.2 162.701 147.5 162.901C147.8 163.001 147.9 162.701 148 162.601C148.2 162.601 148.3 162.301 148.5 162.401C149.4 162.701 149.9 162.101 150.7 162.001C151.4 162.001 152.1 162.001 152.8 161.701C153.2 161.701 153.7 161.301 154.1 161.501C154.3 161.501 154.5 161.301 154.6 161.901C154.6 162.101 154.9 161.701 155 161.701C155.3 161.701 155.6 161.901 155.9 162.001C156.3 162.201 156.7 162.401 157.1 162.501C157.3 162.501 157.7 162.501 158 162.601C158.3 162.701 158.5 162.901 158.7 163.101C158.9 163.401 159 163.801 159.2 164.101C159.4 164.401 159.9 164.501 159.8 165.001C159.8 165.801 160.3 166.201 160.5 166.701C160.7 167.301 160.9 167.801 161.1 168.401C161.3 168.701 160.8 169.101 160.9 169.401C160.9 169.601 159.5 169.901 159 169.901H158.8C158.3 169.701 157.6 169.701 157.6 169.401C157.6 169.101 157.5 168.801 157.3 168.501L157.6 168.101Z" fill="black"/>
<path d="M149.499 137.402C149.299 137.602 148.999 137.702 148.899 137.902C148.899 137.902 148.599 137.902 148.899 138.302C148.999 138.502 148.499 138.102 148.499 138.202C148.299 138.402 148.099 138.502 147.899 138.702C147.799 138.902 147.699 139.202 147.599 139.402C147.499 139.602 147.099 139.602 147.099 140.002C147.099 140.302 146.699 140.102 146.599 140.302C146.599 140.502 146.399 140.702 146.099 140.702C145.899 140.702 145.599 140.702 145.599 140.802C145.599 140.902 145.699 141.202 145.599 141.302C145.599 141.302 145.299 141.302 145.599 141.702C145.599 141.702 145.599 141.702 145.399 141.702C144.999 141.502 144.999 141.602 145.099 141.902C145.199 142.102 145.099 142.202 145.099 142.202C144.999 142.402 144.899 142.502 144.699 142.702C144.599 142.702 144.299 142.702 144.099 142.802C143.899 142.802 144.099 143.202 143.699 143.102C143.399 143.102 143.299 143.102 143.199 143.202C143.199 143.202 142.899 143.202 143.199 143.602C142.399 143.202 143.099 144.102 142.799 144.202C142.499 144.202 142.399 144.602 142.299 144.802C142.299 144.802 142.099 144.802 142.299 145.102C142.399 145.202 142.299 145.302 142.299 145.202C141.699 145.002 141.899 145.402 141.699 145.402C141.499 145.502 141.599 145.902 140.999 145.702C140.799 145.702 140.599 145.702 140.999 146.102C141.199 146.302 140.999 146.202 140.999 146.302C140.999 146.302 141.199 146.602 141.199 146.702C141.199 146.702 140.899 146.702 140.799 146.702C141.199 147.302 140.199 147.102 140.199 147.502C140.199 147.902 139.899 148.102 139.699 148.302C139.599 148.402 139.299 148.502 138.299 148.002C137.799 147.802 137.399 147.502 137.099 147.202C136.899 147.002 136.799 146.802 136.799 146.802C136.799 146.702 136.799 146.502 136.799 146.302C136.799 146.002 136.399 145.502 136.799 145.502C136.899 145.502 136.799 145.202 137.199 145.502C136.699 144.802 137.299 144.802 137.499 144.502C137.599 144.302 137.299 143.702 137.599 143.602C137.199 143.102 137.399 143.002 137.599 143.002C138.499 143.002 138.399 142.302 138.799 141.902C139.199 141.502 139.499 141.002 139.899 140.602C139.899 140.602 139.699 140.202 139.999 140.302C140.299 140.302 140.199 140.202 140.299 140.102C140.299 140.102 140.299 139.802 140.499 139.902C141.299 140.002 141.299 139.402 141.599 139.202C141.899 138.902 142.299 138.702 142.499 138.302C142.599 138.002 142.499 137.602 142.799 137.502C142.899 137.502 142.799 137.102 143.299 137.502C143.399 137.502 143.299 137.202 143.299 137.102C143.299 136.902 143.499 136.802 143.699 136.702C143.899 136.502 144.099 136.402 144.199 136.202C144.199 136.102 144.199 135.802 144.299 135.602C144.299 135.402 144.499 135.302 144.699 135.302C144.899 135.302 145.199 135.302 145.399 135.202C145.599 135.202 145.599 134.802 145.899 134.802C146.499 135.002 146.599 134.502 146.999 134.302C147.299 134.102 147.599 133.902 147.899 133.602C147.999 133.402 148.499 133.702 148.599 133.602C148.599 133.602 149.599 134.702 149.899 135.102C149.899 135.102 149.899 135.302 149.999 135.302C150.099 135.802 150.399 136.502 150.199 136.602C149.899 136.702 149.699 137.002 149.399 137.202L149.499 137.402Z" fill="black"/>
<path d="M139.599 134.201C139.799 134.401 139.899 134.701 140.099 134.801C140.099 134.801 140.099 135.101 140.499 134.801C140.699 134.701 140.299 135.201 140.399 135.201C140.599 135.401 140.699 135.601 140.899 135.801C141.099 135.901 141.399 136.001 141.599 136.101C141.799 136.201 141.799 136.601 142.199 136.601C142.499 136.601 142.299 137.001 142.499 137.101C142.699 137.101 142.899 137.301 142.899 137.601C142.899 137.801 142.899 138.101 142.999 138.101C143.099 138.101 143.399 138.001 143.499 138.101C143.499 138.101 143.499 138.401 143.899 138.101C143.899 138.101 143.899 138.101 143.899 138.301C143.699 138.701 143.799 138.701 144.099 138.601C144.299 138.501 144.399 138.601 144.399 138.601C144.599 138.701 144.699 138.801 144.899 139.001C144.899 139.101 144.899 139.401 144.999 139.601C144.999 139.801 145.399 139.601 145.299 140.001C145.299 140.301 145.299 140.401 145.399 140.501C145.399 140.501 145.399 140.801 145.799 140.501C145.399 141.301 146.299 140.601 146.399 140.901C146.399 141.201 146.799 141.301 146.999 141.401C146.999 141.401 146.999 141.601 147.299 141.401C147.399 141.301 147.499 141.401 147.399 141.401C147.199 142.001 147.599 141.801 147.599 142.001C147.699 142.201 148.099 142.101 147.899 142.701C147.899 142.901 147.899 143.101 148.299 142.701C148.499 142.501 148.399 142.701 148.499 142.701C148.499 142.701 148.799 142.501 148.899 142.501C148.899 142.501 148.899 142.801 148.899 142.901C149.499 142.501 149.299 143.501 149.699 143.501C150.099 143.501 150.299 143.801 150.499 144.001C150.599 144.101 150.699 144.401 150.199 145.401C149.999 145.901 149.699 146.301 149.399 146.601C149.199 146.801 148.999 146.901 148.999 146.901C148.899 146.901 148.699 146.901 148.499 146.901C148.199 146.901 147.699 147.301 147.699 146.901C147.699 146.801 147.399 146.901 147.699 146.501C146.999 147.001 146.999 146.401 146.699 146.201C146.499 146.101 145.899 146.401 145.799 146.101C145.299 146.501 145.199 146.301 145.199 146.101C145.199 145.201 144.499 145.301 144.099 144.901C143.699 144.501 143.199 144.201 142.799 143.801C142.799 143.801 142.399 144.001 142.499 143.701C142.499 143.401 142.399 143.501 142.299 143.401C142.299 143.401 141.999 143.401 142.099 143.201C142.199 142.401 141.599 142.401 141.399 142.101C141.099 141.801 140.899 141.401 140.499 141.201C140.199 141.101 139.799 141.201 139.699 140.901C139.699 140.801 139.299 140.901 139.699 140.401C139.699 140.301 139.399 140.401 139.299 140.401C139.099 140.401 138.999 140.201 138.899 140.001C138.699 139.801 138.599 139.601 138.399 139.501C138.299 139.501 137.999 139.501 137.799 139.401C137.599 139.401 137.499 139.201 137.499 139.001C137.499 138.801 137.499 138.501 137.399 138.301C137.399 138.101 136.999 138.101 136.999 137.801C137.199 137.201 136.699 137.101 136.499 136.701C136.299 136.401 136.099 136.101 135.799 135.801C135.599 135.701 135.899 135.201 135.799 135.101C135.799 135.101 136.899 134.101 137.299 133.801C137.299 133.801 137.499 133.801 137.499 133.701C137.999 133.601 138.699 133.301 138.799 133.501C138.899 133.801 139.199 134.001 139.399 134.301L139.599 134.201Z" fill="black"/>
<path d="M168.499 134.399C168.299 134.599 167.999 134.699 167.899 134.899C167.899 134.899 167.599 134.899 167.899 135.299C167.999 135.499 167.499 135.099 167.499 135.199C167.299 135.399 167.099 135.499 166.899 135.699C166.799 135.899 166.699 136.199 166.599 136.499C166.499 136.699 166.099 136.699 166.099 137.099C166.099 137.399 165.699 137.199 165.599 137.399C165.599 137.599 165.399 137.799 165.099 137.799C164.899 137.799 164.599 137.799 164.599 137.899C164.599 137.999 164.699 138.299 164.599 138.399C164.599 138.399 164.299 138.399 164.599 138.799C164.599 138.799 164.599 138.799 164.399 138.799C163.999 138.599 163.999 138.699 164.099 138.999C164.199 139.199 164.099 139.299 164.099 139.299C163.999 139.499 163.899 139.599 163.699 139.799C163.599 139.799 163.299 139.799 163.099 139.899C162.899 139.899 163.099 140.299 162.699 140.199C162.399 140.199 162.299 140.199 162.199 140.299C162.199 140.299 161.899 140.299 162.199 140.699C161.399 140.299 162.099 141.199 161.799 141.299C161.499 141.299 161.399 141.699 161.299 141.899C161.299 141.899 161.099 141.899 161.299 142.199C161.399 142.299 161.299 142.399 161.299 142.299C160.699 142.099 160.899 142.499 160.699 142.499C160.499 142.599 160.599 142.999 159.999 142.799C159.799 142.799 159.599 142.799 159.999 143.199C160.199 143.399 159.999 143.299 159.999 143.399C159.999 143.399 160.199 143.699 160.199 143.799C160.199 143.799 159.899 143.799 159.799 143.799C160.199 144.399 159.199 144.199 159.199 144.599C159.199 144.999 158.899 145.199 158.699 145.399C158.599 145.499 158.299 145.599 157.299 145.099C156.799 144.899 156.399 144.599 156.099 144.299C155.899 144.099 155.799 143.899 155.799 143.899C155.799 143.799 155.799 143.599 155.799 143.399C155.799 143.099 155.399 142.599 155.799 142.599C155.899 142.599 155.799 142.299 156.199 142.599C155.699 141.899 156.299 141.899 156.499 141.599C156.599 141.399 156.299 140.799 156.599 140.699C156.199 140.199 156.399 140.099 156.599 140.099C157.499 140.099 157.399 139.399 157.799 138.999C158.199 138.599 158.499 138.099 158.899 137.699C158.899 137.699 158.699 137.299 158.999 137.399C159.299 137.399 159.199 137.299 159.299 137.199C159.299 137.199 159.299 136.899 159.499 136.999C160.299 137.099 160.299 136.499 160.599 136.299C160.899 135.999 161.299 135.799 161.499 135.399C161.599 135.099 161.499 134.699 161.799 134.599C161.899 134.599 161.799 134.199 162.299 134.599C162.399 134.599 162.299 134.299 162.299 134.199C162.299 133.999 162.499 133.899 162.699 133.799C162.899 133.599 163.099 133.499 163.199 133.299C163.199 133.199 163.199 132.899 163.299 132.699C163.299 132.499 163.499 132.399 163.699 132.399C163.899 132.399 164.199 132.399 164.399 132.299C164.599 132.299 164.599 131.899 164.899 131.899C165.499 132.099 165.599 131.599 165.999 131.399C166.299 131.199 166.599 130.999 166.899 130.699C166.999 130.499 167.499 130.799 167.599 130.699C167.599 130.699 168.599 131.799 168.899 132.199C168.899 132.199 168.899 132.399 168.999 132.399C169.099 132.899 169.399 133.599 169.199 133.699C168.899 133.799 168.699 134.099 168.399 134.299L168.499 134.399Z" fill="black"/>
<path d="M158.599 131.201C158.799 131.401 158.899 131.701 159.099 131.801C159.099 131.801 159.099 132.101 159.499 131.801C159.699 131.701 159.299 132.201 159.399 132.201C159.599 132.401 159.699 132.601 159.899 132.801C160.099 132.901 160.399 133.001 160.599 133.101C160.799 133.201 160.799 133.601 161.199 133.601C161.499 133.601 161.299 134.001 161.499 134.101C161.699 134.101 161.899 134.301 161.899 134.601C161.899 134.801 161.899 135.101 161.999 135.101C162.099 135.101 162.399 135.001 162.499 135.101C162.499 135.101 162.499 135.401 162.899 135.101C162.899 135.101 162.899 135.101 162.899 135.301C162.699 135.701 162.799 135.701 163.099 135.601C163.299 135.501 163.399 135.601 163.399 135.601C163.599 135.701 163.699 135.801 163.899 136.001C163.899 136.101 163.899 136.401 163.999 136.601C163.999 136.801 164.399 136.601 164.299 137.001C164.299 137.301 164.299 137.401 164.399 137.501C164.399 137.501 164.399 137.801 164.799 137.501C164.399 138.301 165.299 137.601 165.399 137.901C165.399 138.201 165.799 138.301 165.999 138.401C165.999 138.401 165.999 138.601 166.299 138.401C166.399 138.301 166.499 138.401 166.399 138.401C166.199 139.001 166.599 138.801 166.599 139.001C166.699 139.201 167.099 139.101 166.899 139.701C166.899 139.901 166.899 140.101 167.299 139.701C167.499 139.501 167.399 139.701 167.499 139.701C167.499 139.701 167.799 139.501 167.899 139.501C167.899 139.501 167.899 139.801 167.899 139.901C168.499 139.501 168.299 140.501 168.699 140.501C169.099 140.501 169.299 140.801 169.499 141.001C169.599 141.101 169.699 141.401 169.199 142.401C168.999 142.901 168.699 143.301 168.399 143.601C168.199 143.801 167.999 143.901 167.999 143.901C167.899 143.901 167.699 143.901 167.499 143.901C167.199 143.901 166.699 144.301 166.699 143.901C166.699 143.801 166.399 143.901 166.699 143.501C165.999 144.001 165.999 143.401 165.699 143.201C165.499 143.101 164.899 143.401 164.799 143.101C164.299 143.501 164.199 143.301 164.199 143.101C164.199 142.201 163.499 142.301 163.099 141.901C162.699 141.501 162.199 141.201 161.799 140.801C161.799 140.801 161.399 141.001 161.499 140.701C161.499 140.401 161.399 140.501 161.299 140.401C161.299 140.401 160.999 140.401 161.099 140.201C161.199 139.401 160.599 139.401 160.399 139.101C160.099 138.801 159.899 138.401 159.499 138.201C159.199 138.101 158.799 138.201 158.699 137.901C158.699 137.801 158.299 137.901 158.699 137.401C158.699 137.301 158.399 137.401 158.299 137.401C158.099 137.401 157.999 137.201 157.899 137.001C157.699 136.801 157.599 136.601 157.399 136.501C157.299 136.501 156.999 136.501 156.799 136.401C156.599 136.401 156.499 136.201 156.499 136.001C156.499 135.801 156.499 135.501 156.399 135.301C156.399 135.101 155.999 135.101 155.999 134.801C156.199 134.201 155.699 134.101 155.499 133.701C155.299 133.401 155.099 133.101 154.799 132.801C154.599 132.701 154.899 132.201 154.799 132.101C154.799 132.101 155.899 131.101 156.299 130.801C156.299 130.801 156.499 130.801 156.499 130.701C156.999 130.601 157.699 130.301 157.799 130.501C157.899 130.801 158.199 131.001 158.399 131.301L158.599 131.201Z" fill="black"/>
<path d="M162.201 94.9001C160.901 95.3001 159.601 95.5001 158.401 95.9001C157.901 96.0001 157.401 95.9001 157.001 96.5001C156.801 96.8001 156.201 96.3001 155.801 96.4001C154.601 96.7001 153.401 96.8001 152.201 97.1001C151.001 97.4001 149.901 97.8001 148.801 98.0001C147.701 98.2001 146.401 98.1001 145.401 98.6001C144.501 99.0001 143.501 98.6001 142.701 99.0001C141.801 99.3001 140.801 99.5001 139.801 99.5001C139.101 99.5001 138.401 99.4001 137.701 99.6001C137.301 99.8001 137.001 100.2 136.501 100.2C136.101 100.2 135.501 100.2 135.301 100.8C135.301 100.8 135.101 100.8 135.001 100.8C134.501 100.5 133.901 100.7 133.601 101C133.301 101.4 133.001 101.4 132.601 101.5C131.701 101.8 130.801 102.1 129.801 102.3C129.101 102.5 128.401 102.5 127.701 102.6C127.001 102.8 126.301 103.3 125.601 103.3C124.801 103.3 124.201 103.5 123.601 103.8C123.301 104 122.701 103.8 122.701 104.6C122.701 104.6 122.601 104.7 122.501 104.7C121.201 104.4 120.801 105.9 119.801 106.3C118.801 106.7 118.101 107.5 117.401 108.3C117.201 108.5 116.901 108.6 117.101 109.1C117.101 109.3 117.101 109.5 116.901 109.5C116.001 109.7 115.901 110.6 115.501 111.2C115.101 112 115.101 112.9 114.501 113.7C114.201 114 114.001 114.6 114.601 115.1C114.901 115.3 114.601 115.7 114.601 116.1C114.601 116.4 114.901 116.6 115.001 116.9C115.001 117.1 114.801 117.4 114.701 117.6V117.8C115.501 118.9 115.001 120.4 115.801 121.6C116.501 122.8 117.101 124 117.901 125.2C118.301 125.9 118.601 126.6 118.101 127.8C117.901 128.3 117.501 128.7 117.001 128.6C116.601 128.6 116.301 128.4 116.001 128.2C115.601 127.9 115.201 127.5 114.801 127.2C114.101 126.5 113.001 125.8 112.801 124.7C112.801 124.4 112.301 124.1 112.601 123.6C112.601 123.6 112.601 123.4 112.601 123.3C111.301 122.3 111.201 120.6 110.901 119.1C110.601 117.8 109.901 116.6 110.201 115.2C109.601 114.4 109.801 113.5 110.201 112.8C110.801 111.5 111.201 110.2 111.801 109C112.401 107.8 113.101 106.5 114.001 105.5C115.901 103.5 118.101 102 120.401 100.9C120.801 100.7 121.001 100.2 121.601 100.3C122.101 100.3 122.601 99.9001 123.101 99.7001C123.601 99.5001 124.001 99.2001 124.501 99.2001C125.501 99.2001 126.401 98.9001 127.401 98.6001C128.301 98.3001 129.201 97.9001 130.101 97.7001C131.001 97.5001 132.001 97.3001 132.901 97.1001C133.801 96.9001 134.701 96.6001 135.601 96.4001C136.701 96.1001 137.801 95.5001 138.901 95.4001C139.401 95.4001 139.801 94.9001 140.401 95.4001C140.601 95.5001 140.901 95.0001 141.201 94.9001C142.001 94.7001 142.701 94.6001 143.501 94.5001C144.601 94.3001 145.601 94.2001 146.701 94.0001C147.301 93.9001 147.901 93.5001 148.601 93.3001C149.301 93.1001 149.901 93.0001 150.601 93.0001C151.501 93.0001 152.301 93.0001 153.201 92.9001C154.101 92.9001 154.901 92.4001 155.801 92.5001C157.501 92.7001 158.901 92.1001 160.501 91.8001C161.301 91.6001 162.001 91.5001 162.801 91.3001C163.501 91.1001 164.301 90.8001 165.001 90.5001C165.801 90.2001 166.701 90.4001 167.501 90.1001C167.901 90.0001 168.901 91.1001 169.001 91.7001C169.001 91.8001 169.001 91.9001 169.001 92.0001C168.301 92.7001 167.801 93.7001 166.801 94.0001C165.301 94.4001 163.901 94.9001 162.501 95.3001L162.201 94.9001Z" fill="black"/>
<path d="M181.6 98.3015C181.1 98.5015 180.6 98.6015 180.1 98.9015C179.9 98.9015 179.6 98.9015 179.6 99.4015C179.6 99.7015 179.2 99.2015 179 99.2015C178.6 99.4015 178.1 99.5015 177.6 99.8015C177.2 100.001 176.8 100.401 176.4 100.601C176 100.801 175.4 100.701 175.1 101.201C174.8 101.601 174.3 101.201 174 101.501C173.7 101.801 173.3 102.001 172.8 101.901C172.5 101.901 172.1 101.701 171.9 101.901C171.8 102.001 171.7 102.401 171.5 102.401C171.3 102.401 171 102.301 171.1 102.901C171.1 102.901 171 102.901 170.9 102.901C170.6 102.601 170.4 102.701 170.3 103.001C170.3 103.301 170.1 103.301 170 103.401C169.6 103.601 169.2 103.701 168.8 103.801C168.5 103.801 168.1 103.801 167.8 103.801C167.5 103.801 167.3 104.201 166.9 104.101C166.5 103.901 166.3 104.101 166 104.101C165.8 104.101 165.6 104.001 165.7 104.601C165 104.001 164.9 105.201 164.4 105.101C163.9 105.101 163.4 105.401 163 105.601C162.9 105.601 162.7 105.601 162.7 106.001C162.7 106.201 162.6 106.201 162.5 106.101C161.9 105.601 161.7 106.101 161.3 106.101C160.9 106.101 160.5 106.601 160 106.301C159.8 106.201 159.5 106.201 159.5 106.801C159.5 107.101 159.2 106.901 159.1 107.001C159 107.001 159 107.401 158.9 107.401C158.8 107.401 158.6 107.301 158.5 107.201C158.5 107.201 158.5 107.201 158.4 107.201C158 108.001 157.1 107.401 156.6 107.801C156.1 108.201 155.4 108.401 154.8 108.501C154.4 108.501 154 108.501 153.4 107.501C153.1 107.101 152.9 106.501 152.9 106.201C152.9 105.901 152.9 105.701 153.1 105.601C153.3 105.401 153.4 105.201 153.5 105.101C153.8 104.801 154 104.101 154.5 104.201C154.7 104.201 154.7 103.901 155 104.301H155.1C155.4 103.401 156.1 103.601 156.6 103.401C157 103.201 157.3 102.401 157.8 102.501C157.8 101.801 158.2 101.801 158.5 101.901C159.6 102.201 160.4 101.401 161.3 101.201C162.3 100.901 163.1 100.501 164.1 100.201C164.3 100.201 164.3 99.8015 164.6 100.001C164.9 100.201 165 100.001 165.2 99.8015C165.4 99.8015 165.5 99.5015 165.8 99.6015C166.8 99.9015 167.3 99.3015 168.1 99.1015C168.8 98.9015 169.6 98.7015 170.3 98.3015C170.7 98.0015 171 97.6015 171.5 97.5015C171.7 97.5015 171.8 97.1015 172.2 97.5015C172.3 97.6015 172.3 97.1015 172.4 97.1015C172.7 96.9015 173 96.9015 173.3 96.7015C173.7 96.5015 174.2 96.4015 174.6 96.2015C174.8 96.1015 175 95.7015 175.2 95.6015C175.4 95.4015 175.7 95.3015 176 95.3015C176.4 95.3015 176.8 95.3015 177.1 95.3015C177.5 95.3015 177.7 94.8015 178.2 95.0015C179 95.2015 179.5 94.8015 180.2 94.6015C180.8 94.4015 181.5 94.2015 182.1 93.9015C182.4 93.7015 182.9 94.1015 183.3 93.9015C183.5 93.9015 184.2 95.1015 184.3 95.6015V95.8015C184.1 96.4015 184.1 97.2015 183.7 97.3015C183.1 97.4015 182.6 97.7015 182 97.9015L181.6 98.3015Z" fill="black"/>
<path d="M189.4 108.201C189.1 108.401 188.7 108.501 188.4 108.801C188.3 108.801 188 108.801 188.2 109.301C188.2 109.601 187.8 109.101 187.7 109.201C187.4 109.401 187.1 109.501 186.8 109.701C186.5 109.901 186.3 110.301 186.1 110.501C185.8 110.701 185.4 110.601 185.2 111.001C185.1 111.401 184.6 111.001 184.4 111.301C184.2 111.501 184 111.701 183.6 111.701C183.3 111.701 183.1 111.501 182.9 111.701C182.9 111.801 182.9 112.201 182.7 112.201C182.6 112.201 182.3 112.101 182.5 112.701C182.5 112.701 182.5 112.701 182.4 112.701C182.1 112.401 182 112.501 182 112.701C182 113.001 182 113.001 181.8 113.101C181.6 113.301 181.3 113.401 181 113.501C180.8 113.501 180.5 113.501 180.3 113.501C180.1 113.501 180 113.901 179.7 113.701C179.4 113.501 179.2 113.601 179 113.701C178.9 113.701 178.7 113.501 178.8 114.201C178.2 113.601 178.3 114.701 177.9 114.601C177.5 114.601 177.2 114.801 176.9 115.001C176.9 115.001 176.7 115.001 176.7 115.401C176.7 115.601 176.7 115.601 176.6 115.501C176.1 115.001 176 115.501 175.7 115.501C175.4 115.501 175.2 115.901 174.7 115.501C174.5 115.401 174.3 115.301 174.4 115.901C174.4 116.201 174.2 115.901 174.1 116.101C174.1 116.101 174.1 116.501 174 116.501C174 116.501 173.8 116.301 173.7 116.301C173.5 117.101 172.8 116.301 172.4 116.701C172 117.001 171.6 117.101 171.1 117.201C170.8 117.201 170.5 117.201 170 116.101C169.8 115.601 169.6 115.101 169.6 114.801C169.6 114.501 169.6 114.301 169.6 114.201C169.6 114.101 169.8 113.901 169.9 113.801C170.1 113.501 170.2 112.901 170.5 113.101C170.6 113.101 170.6 112.801 170.8 113.301C170.8 112.401 171.4 112.801 171.8 112.601C172.1 112.401 172.2 111.701 172.6 111.901C172.6 111.201 172.8 111.301 173 111.401C173.8 111.801 174.3 111.101 174.9 111.001C175.5 110.801 176.1 110.501 176.7 110.301C176.8 110.301 176.7 109.901 177 110.101C177.2 110.301 177.3 110.101 177.4 110.001C177.5 110.001 177.6 109.801 177.8 109.901C178.5 110.301 178.9 109.701 179.4 109.601C179.9 109.401 180.4 109.301 180.8 108.901C181 108.701 181.2 108.201 181.5 108.201C181.6 108.201 181.6 107.801 182 108.201C182.1 108.301 182 107.901 182 107.801C182.2 107.701 182.4 107.601 182.6 107.501C182.9 107.401 183.2 107.301 183.4 107.101C183.5 107.001 183.6 106.701 183.7 106.501C183.8 106.401 184 106.301 184.2 106.201C184.4 106.201 184.8 106.201 185 106.201C185.3 106.201 185.3 105.801 185.7 105.901C186.3 106.101 186.6 105.701 187 105.501C187.4 105.301 187.8 105.201 188.1 104.801C188.3 104.601 188.7 104.901 188.9 104.801C188.9 104.801 189.9 105.901 190.1 106.401V106.601C190.1 107.101 190.3 107.901 190.1 108.001C189.7 108.201 189.4 108.401 189 108.601L189.4 108.201Z" fill="black"/>
<path d="M129.101 120.902C129.901 121.002 130.801 121.102 131.601 121.202C131.901 121.202 132.201 121.502 132.601 121.002C132.801 120.702 133.001 121.402 133.301 121.402C134.101 121.402 134.901 121.502 135.701 121.502C136.501 121.502 137.301 121.302 138.001 121.302C138.801 121.302 139.501 121.602 140.301 121.302C140.901 121.002 141.501 121.602 142.101 121.502C142.801 121.402 143.401 121.302 144.101 121.502C144.601 121.702 145.001 121.902 145.501 121.802C145.801 121.802 146.101 121.402 146.401 121.402C146.701 121.402 147.001 121.702 147.301 121.102C147.301 121.102 147.501 121.102 147.501 121.202C147.801 121.602 148.201 121.602 148.501 121.202C148.701 120.902 149.001 120.902 149.201 120.902C149.801 120.902 150.501 120.802 151.201 120.902C151.701 120.902 152.201 121.102 152.701 121.202C153.201 121.202 153.701 120.902 154.201 121.202C154.701 121.502 155.101 121.402 155.601 121.402C155.901 121.402 156.201 121.602 156.401 121.002C156.401 121.002 156.501 121.002 156.601 121.002C157.401 121.802 158.101 120.602 158.801 120.702C159.601 120.802 160.401 120.602 161.201 120.502C161.401 120.502 161.701 120.602 161.801 120.102C161.801 119.902 162.101 119.902 162.201 120.002C162.901 120.502 163.401 120.002 164.001 120.102C164.701 120.102 165.301 119.702 166.101 120.102C166.401 120.302 166.801 120.302 167.101 119.702C167.201 119.402 167.601 119.702 167.801 119.502C168.001 119.502 168.101 119.102 168.301 119.102C168.501 119.102 168.701 119.302 168.901 119.302C168.901 119.302 169.001 119.302 169.101 119.302C170.001 118.502 171.101 119.102 172.101 118.802C173.101 118.402 174.101 118.302 175.101 118.102C175.701 118.102 176.301 118.102 176.901 119.102C177.201 119.602 177.301 120.102 177.201 120.502C177.101 120.802 176.901 121.002 176.701 121.102C176.401 121.302 176.101 121.502 175.801 121.602C175.201 121.902 174.701 122.602 173.901 122.502C173.701 122.502 173.501 122.802 173.201 122.302C173.201 122.302 173.101 122.302 173.001 122.302C172.301 123.302 171.201 123.002 170.301 123.202C169.501 123.402 168.901 124.202 168.001 124.002C167.701 124.702 167.101 124.702 166.701 124.602C165.001 124.202 163.501 124.902 161.901 125.002C160.301 125.002 158.701 125.402 157.101 125.502C156.801 125.502 156.601 125.902 156.301 125.602C156.001 125.402 155.601 125.602 155.301 125.602C155.001 125.602 154.601 125.802 154.301 125.602C153.001 125.002 151.801 125.602 150.501 125.502C149.201 125.502 148.001 125.502 146.701 125.602C145.901 125.702 145.201 126.102 144.401 125.902C144.101 125.902 143.701 126.202 143.401 125.602C143.401 125.402 143.001 125.902 142.801 125.902C142.301 125.902 141.701 125.902 141.201 125.902C140.501 125.902 139.701 125.902 139.001 125.902C138.601 125.902 138.101 126.102 137.601 126.202C137.101 126.202 136.701 126.202 136.201 126.202C135.601 126.102 135.001 125.802 134.401 125.702C133.801 125.602 133.101 125.802 132.601 125.502C131.601 124.902 130.501 125.002 129.401 124.902C128.301 124.702 127.301 124.502 126.201 124.502C126.201 124.502 126.001 124.502 125.901 124.502L127.801 121.702C128.001 122.202 127.901 122.802 128.201 123.202C128.301 123.402 127.201 124.502 126.701 124.602C126.701 124.602 126.501 124.602 126.401 124.602C125.701 124.302 124.801 124.202 124.501 123.602C124.501 123.502 122.801 120.002 122.801 120.002L126.401 120.702C127.301 120.902 128.201 120.902 129.201 121.102L129.101 120.902Z" fill="black"/>
<path d="M120.099 165.099C118.899 164.499 117.799 163.799 116.799 163.099C116.399 162.799 116.199 162.299 115.499 162.399C115.099 162.399 115.199 161.699 114.899 161.399C113.999 160.699 113.199 159.799 112.399 158.799C111.599 157.899 110.699 156.899 110.199 155.599C109.699 154.299 109.799 152.699 109.799 151.299C109.799 149.999 110.599 149.199 110.999 148.299C111.399 147.199 112.099 146.199 113.099 145.599C113.799 145.199 114.499 144.899 115.099 144.399C115.499 144.099 115.699 143.599 116.199 143.399C116.699 143.199 117.299 143.199 117.499 142.499C117.499 142.499 117.799 142.499 117.899 142.499C118.499 142.699 119.099 142.499 119.499 142.199C119.899 141.899 120.299 141.799 120.699 141.799C121.899 141.699 123.099 141.799 124.199 142.099C125.099 142.399 125.799 142.899 126.499 143.299C127.199 143.699 128.199 144.099 128.599 144.799C128.999 145.599 129.499 145.999 129.999 146.599C130.299 146.899 130.299 147.499 131.099 147.499C131.099 147.499 131.299 147.599 131.199 147.699C131.199 148.499 131.499 148.999 131.899 149.499C132.299 149.999 132.699 150.599 132.699 151.299C132.699 151.399 128.199 152.399 128.199 152.399C128.199 151.299 127.799 150.299 127.599 149.199C127.599 148.899 127.599 148.599 127.199 148.399C126.999 148.399 126.999 147.999 126.999 147.799C127.499 146.899 126.999 146.099 126.999 145.199C126.999 144.199 126.599 143.299 126.999 142.199C127.199 141.799 127.199 141.199 126.599 140.699C126.299 140.499 126.599 139.999 126.399 139.599C126.399 139.299 125.999 138.999 125.999 138.799C125.999 138.599 126.199 138.299 126.299 137.999V137.799C125.599 136.399 126.299 134.899 126.299 133.499C126.099 132.099 126.199 130.599 126.299 129.099C126.299 128.299 126.599 127.499 127.799 126.999C128.299 126.799 128.899 126.799 129.199 127.199C129.399 127.499 129.599 127.699 129.699 127.999C129.699 128.399 129.899 128.899 129.999 129.299C130.199 130.199 130.699 131.099 130.399 131.999C130.399 132.299 130.599 132.599 130.099 132.899C130.099 132.899 129.999 133.099 130.099 133.099C130.899 134.299 130.399 135.599 130.499 136.799C130.499 137.899 131.299 138.799 131.099 139.899C131.799 140.399 131.699 141.099 131.599 141.699C131.199 143.799 131.899 145.899 132.199 147.899C132.399 148.999 132.599 150.099 132.799 151.199L128.499 152.099C128.299 151.399 128.099 150.699 127.699 149.999C127.599 149.699 127.099 149.699 127.199 149.299C127.199 148.899 126.799 148.699 126.499 148.399C126.299 148.199 125.899 147.999 125.799 147.699C125.499 146.999 124.899 146.599 124.199 146.399C123.599 146.099 122.899 146.099 122.199 145.999C120.899 145.799 119.399 145.999 118.199 146.699C117.499 147.199 116.999 147.899 116.399 148.299C116.099 148.499 116.099 148.999 115.499 148.899C115.299 148.899 115.499 149.399 115.399 149.599C115.199 150.099 114.899 150.499 114.699 150.999C114.499 151.699 114.399 152.299 114.499 152.899C114.499 153.299 114.899 153.599 115.099 153.899C115.299 154.299 115.499 154.699 115.799 155.099C116.099 155.599 116.299 156.299 116.799 156.799C117.299 157.399 117.999 157.699 118.399 158.399C119.099 159.699 120.399 160.299 121.499 160.899C122.599 161.599 123.799 162.099 125.099 162.199C125.799 162.199 126.399 162.799 127.099 162.799C127.399 162.799 127.999 164.199 127.899 164.699C127.899 164.699 127.899 164.899 127.799 164.899C126.999 165.499 126.099 166.199 124.999 165.999C123.499 165.699 121.999 165.299 120.599 164.599L120.099 165.099Z" fill="black"/>
</svg>
