<svg width="300" height="300" viewBox="0 0 300 300" fill="none" xmlns="http://www.w3.org/2000/svg">
<path d="M184.5 141.399C184.2 141.099 183.9 140.699 183.6 140.499C183.5 140.399 183.6 140.099 183 140.399C182.8 140.499 183 139.999 183 139.899C182.7 139.699 182.4 139.299 182.1 139.099C181.8 138.899 181.3 138.699 181 138.499C180.7 138.299 180.6 137.799 180.1 137.699C179.7 137.699 179.8 137.099 179.5 136.999C179.2 136.899 178.9 136.699 178.8 136.299C178.8 135.999 178.8 135.699 178.5 135.599C178.3 135.599 178 135.599 177.9 135.599C177.9 135.499 177.9 135.199 177.3 135.599C177.3 135.599 177.3 135.599 177.3 135.399C177.5 134.999 177.3 134.899 177 134.999C176.7 135.099 176.7 134.999 176.6 134.999C176.3 134.799 176.1 134.599 175.9 134.299C175.7 134.099 175.7 133.699 175.6 133.499C175.5 133.299 175.1 133.299 175.1 132.899C175.1 132.499 175 132.399 174.8 132.199C174.8 132.199 174.8 131.799 174.3 132.199C174.6 131.299 173.6 131.899 173.4 131.399C173.3 130.999 172.8 130.799 172.5 130.499C172.5 130.499 172.5 130.199 172.1 130.499C172 130.499 171.9 130.499 171.9 130.499C172.1 129.799 171.6 129.899 171.5 129.599C171.3 129.299 170.9 129.199 171 128.599C171 128.299 171 128.099 170.4 128.399C170.1 128.499 170.2 128.199 170.1 128.199C170 128.199 169.7 128.199 169.6 128.199C169.6 128.199 169.6 127.899 169.6 127.799C168.8 127.799 169 126.899 168.5 126.599C168 126.299 167.7 125.899 167.4 125.399C167.2 125.199 167.2 124.799 167.9 123.899C168.2 123.499 168.6 123.099 168.9 122.999C169.1 122.999 169.4 122.799 169.5 122.899C169.7 122.899 169.9 122.899 170.1 122.999C170.5 123.099 171.1 122.999 171.1 123.399C171.1 123.499 171.4 123.399 171.1 123.799V123.899C172 123.699 171.9 124.399 172.3 124.699C172.6 124.899 173.3 124.699 173.4 125.299C174 124.999 174.1 125.299 174.1 125.599C174.1 126.599 175.1 126.899 175.6 127.499C176.1 128.099 176.7 128.599 177.3 129.199C177.3 129.199 177.7 129.199 177.7 129.399C177.7 129.699 177.9 129.699 178 129.799C178.1 129.899 178.3 129.899 178.3 130.099C178.3 130.999 179 131.199 179.5 131.599C179.9 132.099 180.3 132.599 180.9 132.899C181.2 133.099 181.8 133.099 182 133.499C182 133.699 182.4 133.499 182.2 134.099C182.2 134.299 182.5 134.099 182.6 134.099C182.8 134.199 183 134.499 183.2 134.599C183.5 134.899 183.7 135.099 184 135.399C184.2 135.499 184.5 135.499 184.7 135.599C184.9 135.699 185.1 135.899 185.2 136.099C185.4 136.399 185.4 136.699 185.6 136.999C185.8 137.299 186.2 137.299 186.2 137.699C186.2 138.499 186.8 138.699 187.1 139.099C187.4 139.499 187.8 139.999 188.3 140.299C188.6 140.499 188.3 140.999 188.6 141.199C188.6 141.299 187.8 142.399 187.3 142.699L187.1 142.799C186.6 142.899 185.8 143.199 185.7 142.899C185.4 142.499 185 142.199 184.7 141.799L184.5 141.399Z" fill="black"/>
<path d="M123.6 118.001C123.3 118.101 122.9 118.201 122.6 118.401C122.5 118.401 122.3 118.301 122.3 118.801C122.3 119.101 122 118.501 121.9 118.601C121.6 118.801 121.3 118.801 121 119.001C120.7 119.201 120.6 119.501 120.3 119.701C120.1 119.901 119.7 119.801 119.6 120.201C119.6 120.601 119.1 120.201 119 120.501C118.9 120.701 118.7 120.901 118.4 120.901C118.2 120.901 117.9 120.901 117.8 121.001C117.8 121.101 117.9 121.401 117.8 121.501C117.8 121.501 117.4 121.501 117.8 122.001C117.8 122.001 117.8 122.001 117.6 122.001C117.2 121.801 117.2 122.001 117.3 122.201C117.5 122.401 117.3 122.501 117.3 122.501C117.2 122.701 117.1 122.901 116.9 123.001C116.8 123.101 116.5 123.101 116.3 123.301C116.1 123.401 116.3 123.701 116 123.801C115.6 123.801 115.6 124.001 115.5 124.201C115.5 124.201 115.1 124.201 115.7 124.601C114.8 124.601 115.7 125.201 115.5 125.401C115.2 125.601 115.3 126.001 115.2 126.301C115.2 126.301 115 126.401 115.4 126.601C115.6 126.601 115.5 126.701 115.4 126.801C114.7 126.801 115.1 127.201 114.9 127.401C114.7 127.701 114.9 128.001 114.4 128.201C114.2 128.201 114 128.401 114.6 128.701C114.9 128.801 114.6 128.901 114.6 129.001C114.6 129.001 114.9 129.201 114.9 129.301C114.9 129.301 114.7 129.401 114.5 129.501C115.1 130.001 114.2 130.301 114.4 130.801C114.6 131.201 114.4 131.701 114.4 132.101C114.4 132.301 114.1 132.601 113 132.701C112.5 132.701 111.9 132.701 111.6 132.701C111.4 132.701 111.1 132.501 111.1 132.401C111 132.301 110.9 132.101 110.8 132.001C110.6 131.701 110.1 131.401 110.4 131.101C110.4 131.101 110.2 130.901 110.7 130.801C109.9 130.301 110.5 129.901 110.5 129.501C110.5 129.101 109.9 128.701 110.2 128.401C109.6 128.101 109.7 127.901 110 127.701C110.8 127.101 110.5 126.201 110.8 125.501C111.1 124.801 111.2 124.001 111.6 123.201C111.6 123.101 111.4 122.801 111.6 122.801C111.9 122.801 111.8 122.501 111.9 122.301C111.9 122.201 111.9 121.901 112.1 121.901C113 121.601 112.9 120.901 113.4 120.401C113.8 119.901 114.3 119.501 114.6 118.901C114.8 118.601 114.8 118.001 115.2 117.901C115.4 117.901 115.2 117.401 115.8 117.901C115.9 118.001 115.8 117.601 115.8 117.501C116 117.301 116.2 117.201 116.4 117.001C116.7 116.801 117 116.601 117.3 116.401C117.5 116.301 117.5 115.901 117.7 115.801C117.9 115.601 118.1 115.501 118.3 115.501C118.6 115.501 118.9 115.501 119.2 115.501C119.5 115.501 119.7 115.101 120 115.201C120.7 115.501 121 115.101 121.5 115.001C122 114.901 122.5 114.801 122.9 114.501C123.1 114.301 123.5 114.801 123.8 114.701C123.9 114.701 124.5 116.001 124.6 116.501V116.701C124.5 117.201 124.5 118.001 124.2 118.001C123.8 118.001 123.4 118.201 123 118.401L123.6 118.001Z" fill="black"/>
<path d="M166.101 147.302C166.501 147.102 166.801 147.002 167.201 146.702C167.301 146.702 167.601 146.702 167.501 146.202C167.501 145.902 167.901 146.402 168.001 146.402C168.301 146.202 168.701 146.102 169.001 145.902C169.301 145.702 169.501 145.302 169.801 145.102C170.101 144.902 170.601 145.102 170.801 144.602C171.001 144.202 171.401 144.602 171.601 144.302C171.801 144.102 172.101 143.902 172.501 144.002C172.801 144.002 173.101 144.202 173.201 144.002C173.201 143.902 173.201 143.502 173.401 143.502C173.501 143.502 173.801 143.702 173.701 143.002C173.701 143.002 173.701 143.002 173.901 143.002C174.201 143.302 174.401 143.202 174.401 143.002C174.401 142.702 174.501 142.702 174.601 142.602C174.901 142.502 175.201 142.302 175.501 142.302C175.701 142.302 176.001 142.302 176.301 142.302C176.501 142.302 176.701 141.902 177.001 142.102C177.301 142.302 177.501 142.202 177.701 142.102C177.801 142.102 178.101 142.302 177.901 141.602C178.501 142.302 178.501 141.102 178.901 141.202C179.301 141.202 179.601 141.002 180.001 140.902C180.001 140.902 180.301 141.002 180.201 140.502C180.201 140.302 180.201 140.302 180.401 140.402C180.901 140.902 181.001 140.402 181.301 140.402C181.601 140.402 181.901 140.002 182.301 140.402C182.501 140.602 182.701 140.602 182.701 140.002C182.701 139.702 182.901 140.002 183.001 139.802C183.001 139.802 183.001 139.402 183.201 139.402C183.201 139.402 183.401 139.602 183.501 139.702C183.801 138.902 184.501 139.702 184.901 139.302C185.301 139.002 185.801 138.902 186.301 138.902C186.601 138.902 186.901 138.902 187.401 140.002C187.601 140.502 187.801 141.002 187.701 141.402C187.701 141.702 187.701 141.902 187.601 142.002C187.501 142.102 187.401 142.302 187.301 142.402C187.101 142.702 186.901 143.302 186.601 143.102C186.501 143.102 186.501 143.402 186.201 142.902C186.001 143.802 185.501 143.402 185.101 143.602C184.801 143.802 184.601 144.502 184.201 144.302C184.201 145.002 184.001 144.902 183.701 144.802C182.801 144.402 182.301 145.002 181.601 145.202C180.901 145.302 180.301 145.702 179.601 145.902C179.501 145.902 179.601 146.302 179.301 146.102C179.101 145.902 179.001 146.102 178.801 146.202C178.701 146.202 178.601 146.402 178.401 146.302C177.601 145.902 177.301 146.502 176.701 146.602C176.201 146.702 175.601 146.902 175.201 147.302C174.901 147.502 174.801 148.002 174.401 148.002C174.201 148.002 174.201 148.402 173.901 147.902C173.801 147.802 173.901 148.202 173.801 148.302C173.601 148.402 173.401 148.502 173.201 148.602C172.901 148.702 172.601 148.802 172.301 149.002C172.101 149.102 172.101 149.402 171.901 149.602C171.701 149.702 171.601 149.802 171.301 149.902C171.001 149.902 170.701 149.902 170.401 149.902C170.101 149.902 170.001 150.302 169.601 150.202C168.901 150.002 168.601 150.402 168.201 150.602C167.701 150.802 167.301 150.902 166.901 151.302C166.701 151.502 166.201 151.202 166.001 151.302C165.901 151.302 165.101 150.102 164.901 149.702V149.502C164.901 149.002 164.801 148.202 165.101 148.102C165.501 148.002 165.901 147.702 166.301 147.502L166.101 147.302Z" fill="black"/>
<path d="M168.6 166.202C168.6 165.902 168.5 165.502 168.3 165.202C168.3 165.102 168.5 164.902 167.9 164.902C167.6 164.902 168.2 164.602 168.2 164.502C168.1 164.202 168.1 163.902 167.9 163.602C167.8 163.302 167.5 163.102 167.3 162.802C167.2 162.502 167.3 162.102 167 161.902C166.7 161.702 167.1 161.402 167 161.202C166.8 161.002 166.7 160.702 166.8 160.402C166.9 160.202 167.1 160.002 166.9 159.802C166.9 159.802 166.5 159.702 166.5 159.602C166.5 159.502 166.7 159.302 166.1 159.302C166.1 159.302 166.1 159.302 166.2 159.202C166.6 159.002 166.5 158.802 166.2 158.802C165.9 158.802 165.9 158.702 165.9 158.602C165.9 158.402 165.7 158.102 165.7 157.902C165.7 157.702 165.9 157.502 165.9 157.302C165.9 157.102 165.6 157.002 165.9 156.702C166.2 156.402 166.1 156.302 166 156.102C166 156.102 166.2 155.802 165.6 155.902C166.3 155.402 165.2 155.402 165.3 155.102C165.4 154.802 165.3 154.502 165.1 154.202C165.1 154.202 165.2 154.002 164.8 154.002C164.6 154.002 164.6 154.002 164.7 153.902C165.2 153.502 164.8 153.402 164.9 153.102C164.9 152.802 164.6 152.602 164.9 152.202C165.1 152.002 165.1 151.902 164.5 151.902C164.2 151.902 164.5 151.702 164.4 151.602C164.4 151.602 164 151.602 164 151.502C164 151.502 164.2 151.302 164.3 151.202C163.6 151.002 164.3 150.402 164 150.102C163.7 149.802 163.7 149.402 163.6 149.002C163.6 148.802 163.6 148.502 164.7 148.002C165.2 147.802 165.7 147.602 166 147.602C166.2 147.602 166.5 147.602 166.6 147.602C166.7 147.602 166.9 147.802 167 147.902C167.3 148.102 167.9 148.202 167.7 148.502C167.7 148.602 168 148.602 167.5 148.802C168.4 148.902 168 149.402 168.1 149.802C168.2 150.102 168.9 150.202 168.7 150.602C169.4 150.602 169.3 150.802 169.2 151.002C168.7 151.802 169.3 152.202 169.4 152.902C169.4 153.502 169.7 154.102 169.8 154.702C169.8 154.802 170.2 154.802 170 155.002C169.8 155.202 170 155.302 170 155.402C170 155.502 170.2 155.602 170 155.802C169.5 156.402 170 156.802 170 157.302C170 157.802 170 158.302 170.4 158.702C170.6 159.002 171 159.202 170.9 159.502C170.9 159.602 171.2 159.702 170.7 159.902C170.5 159.902 171 159.902 171.1 160.102C171.1 160.302 171.2 160.502 171.3 160.702C171.3 161.002 171.3 161.302 171.5 161.502C171.5 161.702 171.9 161.802 172 161.902C172.1 162.102 172.1 162.202 172.1 162.402C172.1 162.602 171.9 162.902 171.9 163.102C171.9 163.302 172.2 163.502 172 163.802C171.6 164.302 172 164.702 172 165.102C172 165.502 172.1 165.902 172.3 166.302C172.4 166.502 172 166.802 172.1 167.102C172.1 167.102 170.7 167.702 170.2 167.802H170C169.5 167.802 168.7 167.802 168.7 167.402C168.7 167.002 168.5 166.702 168.4 166.302L168.6 166.202Z" fill="black"/>
<path d="M162.2 186.199C162.3 185.799 162.5 185.399 162.5 184.999C162.5 184.799 162.8 184.799 162.4 184.499C162.2 184.299 162.8 184.399 162.8 184.199C162.8 183.799 163.1 183.499 163.1 183.099C163.1 182.699 163.1 182.299 163.1 181.899C163.1 181.499 163.6 181.299 163.4 180.799C163.2 180.399 163.8 180.299 163.8 179.999C163.8 179.699 163.8 179.299 164.1 179.099C164.3 178.899 164.6 178.799 164.6 178.599C164.6 178.399 164.3 178.199 164.4 178.099C164.4 177.999 164.8 177.899 164.2 177.599C164.2 177.599 164.2 177.599 164.4 177.599C164.8 177.599 164.9 177.399 164.6 177.199C164.4 176.999 164.5 176.899 164.5 176.799C164.5 176.499 164.6 176.199 164.8 175.899C164.9 175.699 165.2 175.599 165.4 175.399C165.5 175.199 165.4 174.899 165.7 174.699C166.1 174.599 166.1 174.399 166.2 174.199C166.2 174.099 166.6 173.999 166 173.699C166.9 173.699 166 172.999 166.3 172.699C166.6 172.399 166.6 171.999 166.7 171.699C166.7 171.699 166.9 171.599 166.5 171.299C166.4 171.299 166.4 171.099 166.5 171.099C167.2 171.099 166.9 170.599 167.1 170.399C167.3 170.099 167.1 169.699 167.7 169.599C167.9 169.599 168.1 169.399 167.6 169.099C167.4 168.899 167.6 168.899 167.6 168.799C167.6 168.699 167.3 168.499 167.4 168.399C167.4 168.399 167.7 168.399 167.8 168.299C167.3 167.699 168.3 167.499 168.2 166.999C168.2 166.699 168.2 166.599 168.2 166.299C168.2 165.999 168.4 165.699 168.6 165.299C168.8 164.899 169.3 164.499 170.4 165.099C170.9 165.299 171.3 165.699 171.5 165.999C171.6 166.199 171.8 166.399 171.8 166.499C171.8 166.599 171.9 166.799 172 166.899C172.1 167.099 172.6 167.399 172.2 167.699C172.1 167.699 172.3 167.999 171.8 167.899C172.5 168.499 171.8 168.899 171.8 169.299C171.8 169.699 172.2 170.199 171.8 170.499C172.3 170.899 172.2 171.099 171.9 171.199C171 171.699 171.2 172.499 170.9 173.199C170.6 173.899 170.4 174.599 170.1 175.299C170.1 175.399 170.4 175.599 170.1 175.699C169.8 175.699 169.9 175.999 169.9 176.099C169.9 176.199 169.9 176.399 169.7 176.499C168.9 176.799 169.1 177.499 168.8 177.999C168.5 178.499 168.3 178.999 168.3 179.599C168.3 179.999 168.5 180.399 168.3 180.699C168.2 180.799 168.5 181.099 167.9 180.999C167.7 180.999 168.1 181.299 168.1 181.399C168.1 181.599 168 181.899 167.9 182.099C167.8 182.399 167.6 182.699 167.6 183.099C167.6 183.299 167.7 183.599 167.7 183.799C167.7 183.999 167.7 184.199 167.5 184.399C167.3 184.599 167.1 184.799 166.9 185.099C166.8 185.299 166.9 185.699 166.6 185.899C166 186.199 166.1 186.799 165.9 187.199C165.7 187.599 165.5 188.099 165.5 188.599C165.5 188.899 165 188.999 164.9 189.199C164.9 189.299 163.4 189.199 162.9 188.999H162.7C162.3 188.599 161.7 188.199 161.8 187.899C162 187.399 162.1 186.999 162.2 186.499V186.199Z" fill="black"/>
<path d="M157.6 168.101C157.5 167.801 157.4 167.601 157.2 167.401C157.2 167.401 157.2 167.101 156.8 167.401C156.6 167.501 157 167.101 156.9 167.001C156.7 166.801 156.6 166.601 156.3 166.501C156.1 166.401 155.7 166.401 155.5 166.301C155.3 166.301 155.2 165.901 154.9 166.101C154.6 166.301 154.6 165.801 154.4 165.801C154.2 165.801 154 165.801 153.8 165.601C153.7 165.401 153.6 165.201 153.4 165.301C153.3 165.301 153.2 165.701 153.1 165.701C153.1 165.701 152.9 165.401 152.8 166.001C152.8 166.001 152.8 166.001 152.8 165.901C152.7 165.501 152.6 165.501 152.5 165.901C152.5 166.201 152.4 166.101 152.3 166.201C152.1 166.201 152 166.301 151.8 166.301C151.7 166.301 151.5 166.101 151.3 166.101C151.1 166.101 151.1 166.401 150.8 166.201C150.5 166.001 150.4 166.201 150.3 166.201C150.3 166.201 150 166.101 150.3 166.601C149.6 166.101 150.1 167.101 149.8 167.101C149.5 167.101 149.4 167.401 149.2 167.701C149.2 167.701 149 167.701 149.2 168.001C149.3 168.101 149.2 168.201 149.2 168.101C148.6 167.901 148.8 168.301 148.6 168.401C148.4 168.501 148.6 168.901 148 168.901C147.8 168.901 147.6 169.001 148 169.401C148.2 169.601 148 169.601 148 169.701L148.2 170.001C148.2 170.001 147.9 170.001 147.8 170.001C148.3 170.601 147.4 170.601 147.4 171.101C147.4 171.501 147.4 171.901 147.2 172.301C147.2 172.501 146.9 172.701 145.7 172.701C145.2 172.701 144.6 172.701 144.3 172.501C144.1 172.401 143.9 172.301 143.8 172.201C143.8 172.001 143.6 171.901 143.5 171.701C143.4 171.401 142.9 170.901 143.2 170.701C143.3 170.701 143 170.401 143.6 170.501C142.9 169.901 143.6 169.501 143.6 169.101C143.6 168.701 143.2 168.101 143.6 167.801C143.1 167.301 143.3 167.101 143.6 167.001C144.6 166.501 144.6 165.601 145.3 165.001C145.9 164.401 146.5 163.701 147.2 163.201C147.3 163.201 147.2 162.701 147.5 162.901C147.8 163.001 147.9 162.701 148 162.601C148.2 162.601 148.3 162.301 148.5 162.401C149.4 162.701 149.9 162.101 150.7 162.001C151.4 162.001 152.1 162.001 152.8 161.701C153.2 161.701 153.7 161.301 154.1 161.501C154.3 161.501 154.5 161.301 154.6 161.901C154.6 162.101 154.9 161.701 155 161.701C155.3 161.701 155.6 161.901 155.9 162.001C156.3 162.201 156.7 162.401 157.1 162.501C157.3 162.501 157.7 162.501 158 162.601C158.3 162.701 158.5 162.901 158.7 163.101C158.9 163.401 159 163.801 159.2 164.101C159.4 164.401 159.9 164.501 159.8 165.001C159.8 165.801 160.3 166.201 160.5 166.701C160.7 167.301 160.9 167.801 161.1 168.401C161.3 168.701 160.8 169.101 160.9 169.401C160.9 169.601 159.5 169.901 159 169.901H158.8C158.3 169.701 157.6 169.701 157.6 169.401C157.6 169.101 157.5 168.801 157.3 168.501L157.6 168.101Z" fill="black"/>
<path d="M149.501 137.399C149.301 137.599 149.001 137.699 148.901 137.899C148.901 137.899 148.601 137.899 148.901 138.299C149.001 138.499 148.501 138.099 148.501 138.199C148.301 138.399 148.101 138.499 147.901 138.699C147.801 138.899 147.701 139.199 147.601 139.499C147.501 139.699 147.101 139.699 147.101 140.099C147.101 140.399 146.701 140.199 146.601 140.399C146.601 140.599 146.401 140.799 146.101 140.799C145.901 140.799 145.601 140.799 145.601 140.899C145.601 140.999 145.701 141.299 145.601 141.399C145.601 141.399 145.301 141.399 145.601 141.799C145.601 141.799 145.601 141.799 145.401 141.799C145.001 141.599 145.001 141.699 145.101 141.999C145.201 142.199 145.101 142.299 145.101 142.299C145.001 142.499 144.901 142.599 144.701 142.799C144.601 142.799 144.301 142.799 144.101 142.899C143.901 142.899 144.101 143.299 143.701 143.199C143.401 143.199 143.301 143.199 143.201 143.299C143.201 143.299 142.901 143.299 143.201 143.699C142.401 143.299 143.101 144.199 142.801 144.299C142.501 144.299 142.401 144.699 142.301 144.899C142.301 144.899 142.101 144.899 142.301 145.199C142.401 145.299 142.301 145.399 142.301 145.299C141.701 145.099 141.901 145.499 141.701 145.499C141.501 145.599 141.601 145.999 141.001 145.799C140.801 145.799 140.601 145.799 141.001 146.199C141.201 146.399 141.001 146.299 141.001 146.399C141.001 146.399 141.201 146.699 141.201 146.799C141.201 146.799 140.901 146.799 140.801 146.799C141.201 147.399 140.201 147.199 140.201 147.599C140.201 147.999 139.901 148.199 139.701 148.399C139.601 148.499 139.301 148.599 138.301 148.099C137.801 147.899 137.401 147.599 137.101 147.299C136.901 147.099 136.801 146.899 136.801 146.899C136.801 146.799 136.801 146.599 136.801 146.399C136.801 146.099 136.401 145.599 136.801 145.599C136.901 145.599 136.801 145.299 137.201 145.599C136.701 144.899 137.301 144.899 137.501 144.599C137.601 144.399 137.301 143.799 137.601 143.699C137.201 143.199 137.401 143.099 137.601 143.099C138.501 143.099 138.401 142.399 138.801 141.999C139.201 141.599 139.501 141.099 139.901 140.699C139.901 140.699 139.701 140.299 140.001 140.399C140.301 140.399 140.201 140.299 140.301 140.199C140.301 140.199 140.301 139.899 140.501 139.999C141.301 140.099 141.301 139.499 141.601 139.299C141.901 138.999 142.301 138.799 142.501 138.399C142.601 138.099 142.501 137.699 142.801 137.599C142.901 137.599 142.801 137.199 143.301 137.599C143.401 137.599 143.301 137.299 143.301 137.199C143.301 136.999 143.501 136.899 143.701 136.799C143.901 136.599 144.101 136.499 144.201 136.299C144.201 136.199 144.201 135.899 144.301 135.699C144.301 135.499 144.501 135.399 144.701 135.399C144.901 135.399 145.201 135.399 145.401 135.299C145.601 135.299 145.601 134.899 145.901 134.899C146.501 135.099 146.601 134.599 147.001 134.399C147.301 134.199 147.601 133.999 147.901 133.699C148.001 133.499 148.501 133.799 148.601 133.699C148.601 133.699 149.601 134.799 149.901 135.199C149.901 135.199 149.901 135.399 150.001 135.399C150.101 135.899 150.401 136.599 150.201 136.699C149.901 136.799 149.701 137.099 149.401 137.299L149.501 137.399Z" fill="black"/>
<path d="M139.601 134.201C139.801 134.401 139.901 134.701 140.101 134.801C140.101 134.801 140.101 135.101 140.501 134.801C140.701 134.701 140.301 135.201 140.401 135.201C140.601 135.401 140.701 135.601 140.901 135.801C141.101 135.901 141.401 136.001 141.601 136.101C141.801 136.201 141.801 136.601 142.201 136.601C142.501 136.601 142.301 137.001 142.501 137.101C142.701 137.101 142.901 137.301 142.901 137.601C142.901 137.801 142.901 138.101 143.001 138.101C143.101 138.101 143.401 138.001 143.501 138.101C143.501 138.101 143.501 138.401 143.901 138.101C143.901 138.101 143.901 138.101 143.901 138.301C143.701 138.701 143.801 138.701 144.101 138.601C144.301 138.501 144.401 138.601 144.401 138.601C144.601 138.701 144.701 138.801 144.901 139.001C144.901 139.101 144.901 139.401 145.001 139.601C145.001 139.801 145.401 139.601 145.301 140.001C145.301 140.301 145.301 140.401 145.401 140.501C145.401 140.501 145.401 140.801 145.801 140.501C145.401 141.301 146.301 140.601 146.401 140.901C146.401 141.201 146.801 141.301 147.001 141.401C147.001 141.401 147.001 141.601 147.301 141.401C147.401 141.301 147.501 141.401 147.401 141.401C147.201 142.001 147.601 141.801 147.601 142.001C147.701 142.201 148.101 142.101 147.901 142.701C147.901 142.901 147.901 143.101 148.301 142.701C148.501 142.501 148.401 142.701 148.501 142.701C148.501 142.701 148.801 142.501 148.901 142.501C148.901 142.501 148.901 142.801 148.901 142.901C149.501 142.501 149.301 143.501 149.701 143.501C150.101 143.501 150.301 143.801 150.501 144.001C150.601 144.101 150.701 144.401 150.201 145.401C150.001 145.901 149.701 146.301 149.401 146.601C149.201 146.801 149.001 146.901 149.001 146.901C148.901 146.901 148.701 146.901 148.501 146.901C148.201 146.901 147.701 147.301 147.701 146.901C147.701 146.801 147.401 146.901 147.701 146.501C147.001 147.001 147.001 146.401 146.701 146.201C146.501 146.101 145.901 146.401 145.801 146.101C145.301 146.501 145.201 146.301 145.201 146.101C145.201 145.201 144.501 145.301 144.101 144.901C143.701 144.501 143.201 144.201 142.801 143.801C142.801 143.801 142.401 144.001 142.501 143.701C142.501 143.401 142.401 143.501 142.301 143.401C142.301 143.401 142.001 143.401 142.101 143.201C142.201 142.401 141.601 142.401 141.401 142.101C141.101 141.801 140.901 141.401 140.501 141.201C140.201 141.101 139.801 141.201 139.701 140.901C139.701 140.801 139.301 140.901 139.701 140.401C139.701 140.301 139.401 140.401 139.301 140.401C139.101 140.401 139.001 140.201 138.901 140.001C138.701 139.801 138.601 139.601 138.401 139.501C138.301 139.501 138.001 139.501 137.801 139.401C137.601 139.401 137.501 139.201 137.501 139.001C137.501 138.801 137.501 138.501 137.401 138.301C137.401 138.101 137.001 138.101 137.001 137.801C137.201 137.201 136.701 137.101 136.501 136.701C136.301 136.401 136.101 136.101 135.801 135.801C135.601 135.701 135.901 135.201 135.801 135.101C135.801 135.101 136.901 134.101 137.301 133.801C137.301 133.801 137.501 133.801 137.501 133.701C138.001 133.601 138.701 133.301 138.801 133.501C138.901 133.801 139.201 134.001 139.401 134.301L139.601 134.201Z" fill="black"/>
<path d="M168.501 134.399C168.301 134.599 168.001 134.699 167.901 134.899C167.901 134.899 167.601 134.899 167.901 135.299C168.001 135.499 167.501 135.099 167.501 135.199C167.301 135.399 167.101 135.499 166.901 135.699C166.801 135.899 166.701 136.199 166.601 136.499C166.501 136.699 166.101 136.699 166.101 137.099C166.101 137.399 165.701 137.199 165.601 137.399C165.601 137.599 165.401 137.799 165.101 137.799C164.901 137.799 164.601 137.799 164.601 137.899C164.601 137.999 164.701 138.299 164.601 138.399C164.601 138.399 164.301 138.399 164.601 138.799C164.601 138.799 164.601 138.799 164.401 138.799C164.001 138.599 164.001 138.699 164.101 138.999C164.201 139.199 164.101 139.299 164.101 139.299C164.001 139.499 163.901 139.599 163.701 139.799C163.601 139.799 163.301 139.799 163.101 139.899C162.901 139.899 163.101 140.299 162.701 140.199C162.401 140.199 162.301 140.199 162.201 140.299C162.201 140.299 161.901 140.299 162.201 140.699C161.401 140.299 162.101 141.199 161.801 141.299C161.501 141.299 161.401 141.699 161.301 141.899C161.301 141.899 161.101 141.899 161.301 142.199C161.401 142.299 161.301 142.399 161.301 142.299C160.701 142.099 160.901 142.499 160.701 142.499C160.501 142.599 160.601 142.999 160.001 142.799C159.801 142.799 159.601 142.799 160.001 143.199C160.201 143.399 160.001 143.299 160.001 143.399C160.001 143.399 160.201 143.699 160.201 143.799C160.201 143.799 159.901 143.799 159.801 143.799C160.201 144.399 159.201 144.199 159.201 144.599C159.201 144.999 158.901 145.199 158.701 145.399C158.601 145.499 158.301 145.599 157.301 145.099C156.801 144.899 156.401 144.599 156.101 144.299C155.901 144.099 155.801 143.899 155.801 143.899C155.801 143.799 155.801 143.599 155.801 143.399C155.801 143.099 155.401 142.599 155.801 142.599C155.901 142.599 155.801 142.299 156.201 142.599C155.701 141.899 156.301 141.899 156.501 141.599C156.601 141.399 156.301 140.799 156.601 140.699C156.201 140.199 156.401 140.099 156.601 140.099C157.501 140.099 157.401 139.399 157.801 138.999C158.201 138.599 158.501 138.099 158.901 137.699C158.901 137.699 158.701 137.299 159.001 137.399C159.301 137.399 159.201 137.299 159.301 137.199C159.301 137.199 159.301 136.899 159.501 136.999C160.301 137.099 160.301 136.499 160.601 136.299C160.901 135.999 161.301 135.799 161.501 135.399C161.601 135.099 161.501 134.699 161.801 134.599C161.901 134.599 161.801 134.199 162.301 134.599C162.401 134.599 162.301 134.299 162.301 134.199C162.301 133.999 162.501 133.899 162.701 133.799C162.901 133.599 163.101 133.499 163.201 133.299C163.201 133.199 163.201 132.899 163.301 132.699C163.301 132.499 163.501 132.399 163.701 132.399C163.901 132.399 164.201 132.399 164.401 132.299C164.601 132.299 164.601 131.899 164.901 131.899C165.501 132.099 165.601 131.599 166.001 131.399C166.301 131.199 166.601 130.999 166.901 130.699C167.001 130.499 167.501 130.799 167.601 130.699C167.601 130.699 168.601 131.799 168.901 132.199C168.901 132.199 168.901 132.399 169.001 132.399C169.101 132.899 169.401 133.599 169.201 133.699C168.901 133.799 168.701 134.099 168.401 134.299L168.501 134.399Z" fill="black"/>
<path d="M158.601 131.201C158.801 131.401 158.901 131.701 159.101 131.801C159.101 131.801 159.101 132.101 159.501 131.801C159.701 131.701 159.301 132.201 159.401 132.201C159.601 132.401 159.701 132.601 159.901 132.801C160.101 132.901 160.401 133.001 160.601 133.101C160.801 133.201 160.801 133.601 161.201 133.601C161.501 133.601 161.301 134.001 161.501 134.101C161.701 134.101 161.901 134.301 161.901 134.601C161.901 134.801 161.901 135.101 162.001 135.101C162.101 135.101 162.401 135.001 162.501 135.101C162.501 135.101 162.501 135.401 162.901 135.101C162.901 135.101 162.901 135.101 162.901 135.301C162.701 135.701 162.801 135.701 163.101 135.601C163.301 135.501 163.401 135.601 163.401 135.601C163.601 135.701 163.701 135.801 163.901 136.001C163.901 136.101 163.901 136.401 164.001 136.601C164.001 136.801 164.401 136.601 164.301 137.001C164.301 137.301 164.301 137.401 164.401 137.501C164.401 137.501 164.401 137.801 164.801 137.501C164.401 138.301 165.301 137.601 165.401 137.901C165.401 138.201 165.801 138.301 166.001 138.401C166.001 138.401 166.001 138.601 166.301 138.401C166.401 138.301 166.501 138.401 166.401 138.401C166.201 139.001 166.601 138.801 166.601 139.001C166.701 139.201 167.101 139.101 166.901 139.701C166.901 139.901 166.901 140.101 167.301 139.701C167.501 139.501 167.401 139.701 167.501 139.701C167.501 139.701 167.801 139.501 167.901 139.501C167.901 139.501 167.901 139.801 167.901 139.901C168.501 139.501 168.301 140.501 168.701 140.501C169.101 140.501 169.301 140.801 169.501 141.001C169.601 141.101 169.701 141.401 169.201 142.401C169.001 142.901 168.701 143.301 168.401 143.601C168.201 143.801 168.001 143.901 168.001 143.901C167.901 143.901 167.701 143.901 167.501 143.901C167.201 143.901 166.701 144.301 166.701 143.901C166.701 143.801 166.401 143.901 166.701 143.501C166.001 144.001 166.001 143.401 165.701 143.201C165.501 143.101 164.901 143.401 164.801 143.101C164.301 143.501 164.201 143.301 164.201 143.101C164.201 142.201 163.501 142.301 163.101 141.901C162.701 141.501 162.201 141.201 161.801 140.801C161.801 140.801 161.401 141.001 161.501 140.701C161.501 140.401 161.401 140.501 161.301 140.401C161.301 140.401 161.001 140.401 161.101 140.201C161.201 139.401 160.601 139.401 160.401 139.101C160.101 138.801 159.901 138.401 159.501 138.201C159.201 138.101 158.801 138.201 158.701 137.901C158.701 137.801 158.301 137.901 158.701 137.401C158.701 137.301 158.401 137.401 158.301 137.401C158.101 137.401 158.001 137.201 157.901 137.001C157.701 136.801 157.601 136.601 157.401 136.501C157.301 136.501 157.001 136.501 156.801 136.401C156.601 136.401 156.501 136.201 156.501 136.001C156.501 135.801 156.501 135.501 156.401 135.301C156.401 135.101 156.001 135.101 156.001 134.801C156.201 134.201 155.701 134.101 155.501 133.701C155.301 133.401 155.101 133.101 154.801 132.801C154.601 132.701 154.901 132.201 154.801 132.101C154.801 132.101 155.901 131.101 156.301 130.801C156.301 130.801 156.501 130.801 156.501 130.701C157.001 130.601 157.701 130.301 157.801 130.501C157.901 130.801 158.201 131.001 158.401 131.301L158.601 131.201Z" fill="black"/>
<path d="M127.6 163.2C126.9 163.4 126.2 163.5 125.4 163.6C125.1 163.6 124.9 163.4 124.6 163.9C124.4 164.2 124.2 163.5 124 163.5C123.3 163.5 122.7 163.3 122.1 163.2C121.5 163.1 120.8 163.1 120.2 162.9C119.6 162.7 119.2 162.2 118.6 162.2C118 162.2 117.9 161.5 117.5 161.4C117 161.2 116.6 161 116.3 160.6C116.1 160.3 116 159.9 115.6 159.7C115.4 159.6 114.9 159.6 114.7 159.2C114.6 159 114.5 158.7 114.3 158.5C114.2 158.5 114.1 158.4 113.8 158.4C113.8 158.4 113.8 158.2 113.8 158.1C114 157.6 113.9 157.2 113.6 157C113.3 156.8 113.3 156.6 113.3 156.4C113.3 155.8 113.2 155.5 113.3 155C113.3 154.6 113.6 154.3 113.6 153.9C113.6 153.5 113.4 153.1 113.7 152.7C114 152.3 114 152 114.1 151.6C114.1 151.4 114.5 151.2 113.9 150.9V150.8C114.4 150.6 114.4 150.3 114.4 149.9C114.4 149.5 114.4 149.1 114.6 148.8C115.1 148.2 115.5 147.5 116 146.9C116.2 146.7 116.4 146.7 116.3 146.3C116.3 146.1 116.4 146 116.6 146C117.4 146.2 117.7 145.6 118.3 145.5C118.9 145.4 119.5 144.9 120.1 145.3C120.4 145.5 120.7 145.5 120.9 144.9C121 144.6 121.3 144.9 121.5 144.8C121.7 144.8 121.8 144.5 122 144.5C122.1 144.5 122.3 144.7 122.4 144.8C122.4 144.8 122.4 144.8 122.5 144.8C122.9 144.5 123.4 144.6 123.8 144.8C124.2 145 124.6 145.2 125.1 145.3C126 145.3 127 145.9 127.8 146.7C128.2 147.1 128.5 147.8 127.8 148.7C127.4 149.1 126.9 149.3 126.6 149.4C126.3 149.4 126.1 149.5 126 149.4C125.8 149.4 125.6 149.4 125.5 149.4C125.1 149.4 124.7 149.7 124.5 149.4C124.5 149.3 124.2 149.5 124.3 149C123.7 149.6 123.3 149 122.8 149C122.4 149 122 149.7 121.6 149.4C121.4 150.1 121.2 150 121 149.8C120.6 149.5 120.2 149.6 119.9 149.8C119.6 150 119.4 150.2 119.2 150.3C118.7 150.6 118.5 151.2 118.3 151.9C118.3 152 118.6 152.2 118.3 152.3C118 152.3 118.2 152.6 118.2 152.8C118.2 153 118.3 153.2 118.2 153.3C117.5 154 117.9 154.8 117.9 155.6C117.9 156 117.9 156.3 117.9 156.5C117.9 156.7 117.9 156.8 118.1 156.9C118.1 156.9 118.1 156.9 118.2 156.9C118.3 156.9 118.8 156.9 119.1 157.2C119.2 157.4 119.6 157.2 119.4 157.8C119.4 158 119.8 157.8 119.9 157.8C120.2 157.9 120.4 158.1 120.7 158.3C121.1 158.5 121.4 158.8 121.8 158.9C122 158.9 122.4 158.9 122.6 158.9C122.8 158.9 123.1 159 123.3 159.1C123.6 159.3 123.8 159.5 124.1 159.7C124.4 159.8 124.7 159.6 125 159.9C125.5 160.4 126.1 160.1 126.6 160.1C127.1 160.1 127.6 159.9 127.9 159.5C127.9 159.5 128 159.5 128.1 159.5C128.1 159.5 128.1 159.5 128.2 159.5C128.2 159.5 128.5 159.8 128.6 159.9C128.9 160.2 129 160.3 129.1 160.3H129.3C129.3 160.3 129.4 160.3 129.4 160.2C129.4 160.2 129.4 160.2 129.4 160C129.4 159.8 129.4 159.6 129.4 159.5C129.4 159.4 129.6 159.3 129.7 159.3C130.2 159.3 130.5 159.5 130.8 159.8C130.9 160 131 160.1 131.1 160.4C131.1 160.7 131.1 160.9 131.1 161.1C131 161.9 130.6 162.4 130.4 162.5C129.6 163 128.9 163.4 128.1 163.6L127.6 163.2Z" fill="black"/>
<path d="M136.8 176.401C137.8 178.801 138.5 181.201 139.1 183.801C139.3 184.801 139.1 185.801 139.8 186.701C140.1 187.201 139.5 188.201 139.6 189.101C139.6 191.501 139.3 194.001 138.7 196.401C138.1 198.701 137.3 201.101 135.9 203.201C134.5 205.301 132.4 206.901 130.7 208.401C129.1 209.801 127.2 210.201 125.3 210.901C123.3 211.701 121.1 212.001 119.1 211.801C117.6 211.601 116.2 211.301 114.8 211.101C113.9 211.101 113 211.101 112.1 210.901C111.2 210.601 110.4 210.101 109.4 210.401C109.4 210.401 109 210.201 108.8 210.001C108 209.301 107 208.901 106.1 208.801C105.3 208.801 104.6 208.401 103.9 208.001C102.9 207.501 102 206.801 101.1 206.001C100.2 205.201 99.4996 204.101 98.8996 203.001C98.0996 201.401 97.8996 199.701 97.7996 198.101C97.5996 196.501 97.2996 194.801 97.5996 193.401C97.7996 192.701 97.8996 192.001 97.8996 191.301C97.8996 190.601 97.8996 189.901 97.9996 189.201C97.9996 188.401 98.4996 187.501 97.9996 186.801C97.9996 186.801 97.9996 186.401 97.9996 186.301C98.4996 185.201 98.6996 184.201 98.6996 183.001C98.6996 182.401 98.6996 181.901 98.6996 181.301C98.6996 180.701 98.8996 180.201 99.0996 179.701C99.7996 177.501 100.3 175.201 101 172.901C101.2 172.301 101.6 171.701 101.3 171.101C101.3 170.901 101.3 170.201 101.6 170.001C102.7 168.601 103 166.801 103.6 165.101C104.4 163.301 104.8 161.301 105.9 159.601C106.4 158.901 106.9 157.801 106.6 156.701C106.5 156.201 107 155.401 107.2 154.701C107.3 154.101 107.2 153.501 107.4 152.901C107.5 152.401 107.9 152.001 108.2 151.601C108.2 151.501 108.3 151.301 108.3 151.101C108.5 148.201 110 145.701 110.4 142.901L110.6 141.801V140.701C110.8 140.001 110.9 139.301 111 138.601C111.1 137.901 111.2 137.201 111.2 136.501L111.4 134.401C111.4 132.901 111.6 131.301 112.7 130.101C113.2 129.601 113.7 129.501 114.1 130.101C114.4 130.601 114.6 131.201 114.7 131.801C114.8 132.701 115.1 133.701 115.1 134.601C115.1 135.601 115.3 136.501 115.3 137.501C115.3 138.501 115.3 139.501 115 140.401C114.8 141.001 115 141.801 114.5 142.201C114.5 142.201 114.3 142.501 114.3 142.601C114.4 144.001 114.3 145.301 113.9 146.601C113.5 147.901 113.1 149.201 112.8 150.501C112.2 152.701 112.2 155.001 111.2 157.101C111.4 158.501 110.8 159.901 110.2 161.001C108.1 165.001 107 169.301 105.6 173.401C104.2 177.601 103.2 181.901 102.5 186.101C102.5 186.801 102.7 187.501 102.3 188.301C102.1 188.701 102.1 189.201 102 189.601C102 190.101 102 190.601 102 191.001C102 191.901 102 192.801 102 193.601C101.3 196.901 102.3 200.301 104.2 202.101C105.2 203.101 106.5 203.901 108.1 204.501C109.7 205.201 111.2 205.701 112.9 206.101C114.9 206.601 116.9 206.601 118.8 206.701C119.6 206.701 120.4 206.401 121.3 206.901C121.6 207.001 122.2 206.501 122.7 206.301C123.9 206.001 125.2 205.601 126.3 205.001C127.9 204.201 129.4 203.201 130.6 201.801C131.3 201.001 131.8 200.001 132.3 199.101C132.8 198.101 133.4 197.101 133.8 196.101C134.4 194.801 134.9 193.401 135.2 191.901C135.5 190.401 135.2 188.701 135.5 187.201C135.9 184.301 135 181.501 134 178.801C133.1 176.101 131.8 173.401 130.2 171.001C129.3 169.601 128.9 168.101 128 166.701C127.6 166.101 128.2 164.401 128.8 164.301C128.9 164.301 129.1 164.301 129.2 164.401C130.5 165.501 132 166.401 133 168.001C134.4 170.501 135.8 173.001 137 175.701L136.8 176.401Z" fill="black"/>
<path d="M164.201 199.8C164.301 201.1 164.701 202.5 165.301 203.6C165.501 204 165.601 204.6 166.301 204.7C166.601 204.7 166.401 205.5 166.801 205.8C167.701 206.7 168.601 207.5 169.701 208C170.801 208.5 172.001 208.6 173.001 208.6C174.001 208.6 175.301 208.7 176.201 208.1C177.001 207.5 178.001 207.6 178.701 207C179.501 206.3 180.301 205.6 181.201 205.1C181.901 204.7 182.601 204.3 183.001 203.6C183.301 203.2 183.301 202.6 183.601 202.2C183.901 201.8 184.501 201.5 184.201 200.8C184.201 200.8 184.401 200.6 184.501 200.6C185.101 200.4 185.401 199.8 185.401 199.3C185.401 198.8 185.601 198.5 185.701 198.1C186.101 197.1 186.601 196.1 187.001 195.1C187.301 194.4 187.801 193.7 188.001 192.9C188.301 192.1 188.201 191.1 188.601 190.4C189.001 189.7 189.101 188.9 189.101 188.1C189.101 187.7 189.401 187.1 188.801 186.8C188.801 186.8 188.801 186.6 188.801 186.5C189.601 185.2 188.401 184 188.501 182.7C188.501 181.3 188.101 180 187.801 178.6C187.801 178.2 187.801 177.8 187.301 177.6C187.101 177.6 187.001 177.1 187.101 176.9C187.501 175.7 186.801 174.8 186.601 173.7C186.401 172.5 185.701 171.4 185.801 170.1C185.801 169.5 185.801 168.8 184.901 168.4C184.501 168.2 184.601 167.6 184.401 167.2C184.201 166.9 183.801 166.6 183.701 166.3C183.601 166 183.701 165.6 183.701 165.3C183.701 165.3 183.701 165.1 183.601 165C182.301 163.6 182.501 161.6 181.501 160.1C180.601 158.5 179.801 156.9 179.001 155.2C178.601 154.3 178.201 153.3 178.901 152.1C179.201 151.6 179.701 151.3 180.201 151.5C180.601 151.7 180.901 151.9 181.201 152.2C181.601 152.7 182.001 153.1 182.301 153.6C183.001 154.6 184.101 155.4 184.401 156.6C184.401 157 185.001 157.3 184.601 157.8C184.601 157.8 184.601 158 184.601 158.1C186.001 159.3 186.201 161.1 186.901 162.6C187.501 163.9 188.601 165 188.801 166.5C189.701 167 189.901 168 189.901 168.8C190.101 171.7 191.401 174.4 191.901 177.2C192.501 180.1 193.001 183 193.101 186.1C193.101 186.6 193.501 187.1 193.101 187.7C192.801 188.3 193.001 189 192.901 189.7C192.901 190.3 192.901 191 192.701 191.5C191.701 193.8 191.401 196.1 190.401 198.3C189.401 200.5 188.201 202.5 186.901 204.5C186.101 205.7 185.401 207 184.201 208C183.701 208.4 183.401 209.1 182.501 209.1C182.301 209.1 182.101 209.8 181.701 210.1C180.901 210.7 179.901 211.3 179.001 211.7C177.601 212.3 176.101 212.8 174.601 213C173.701 213.1 172.701 213.4 171.701 213.3C170.701 213.3 169.601 213 168.701 212.5C167.501 212 166.501 211.2 165.601 210.4C164.601 209.6 163.401 208.8 162.901 207.7C161.901 205.6 160.801 203.7 160.401 201.5C160.001 199.3 160.101 197.2 160.401 195.1C160.601 193.9 161.401 193 161.801 191.9C162.001 191.4 163.601 191.4 164.001 191.8C164.001 191.8 164.101 192 164.101 192.1C164.101 193.2 164.501 194.2 164.201 195.2C163.801 196.7 163.701 198.3 163.901 199.8H164.201Z" fill="black"/>
<path d="M129.9 122.399C129.9 122.799 130 123.299 130.1 123.699C130.1 123.899 129.9 124.099 130.5 124.099C130.8 124.099 130.2 124.399 130.2 124.499C130.3 124.899 130.2 125.299 130.4 125.699C130.5 126.099 130.8 126.499 130.9 126.799C131 127.199 130.7 127.599 131.1 127.999C131.4 128.299 130.9 128.599 131.1 128.899C131.2 129.199 131.4 129.599 131.1 129.899C130.9 130.099 130.7 130.399 130.9 130.599C130.9 130.699 131.3 130.899 131.3 130.999C131.3 131.199 131 131.299 131.6 131.399C131.6 131.399 131.6 131.399 131.5 131.499C131.1 131.699 131.1 131.899 131.5 131.999C131.8 132.099 131.7 132.199 131.8 132.399C131.8 132.699 131.8 133.099 131.8 133.399C131.8 133.699 131.5 133.899 131.5 134.199C131.5 134.499 131.7 134.699 131.5 134.999C131.2 135.199 131.2 135.499 131.2 135.699C131.2 135.799 130.9 135.999 131.5 136.099C130.7 136.399 131.7 136.899 131.5 137.299C131.3 137.699 131.4 138.099 131.4 138.499C131.4 138.599 131.2 138.699 131.6 138.899C131.8 138.899 131.8 139.099 131.6 139.099C130.9 139.299 131.3 139.699 131.1 139.999C130.9 140.299 131.1 140.799 130.6 141.099C130.4 141.199 130.2 141.399 130.7 141.699C130.9 141.899 130.7 141.999 130.7 142.099C130.7 142.199 131 142.399 130.9 142.499C130.9 142.599 130.6 142.599 130.5 142.699C131 143.499 129.9 143.699 129.8 144.299C129.8 144.899 129.4 145.499 128.9 145.899C128.7 146.199 128.3 146.399 127.3 145.899C126.8 145.699 126.4 145.299 126.2 144.999C126.1 144.799 125.9 144.599 125.9 144.499C125.9 144.299 125.9 144.099 125.9 143.999C125.9 143.699 125.5 143.199 125.9 143.099C126 143.099 125.8 142.799 126.3 142.999C125.7 142.299 126.3 142.199 126.4 141.799C126.4 141.499 125.9 140.999 126.3 140.699C125.7 140.399 125.9 140.199 126.1 140.099C126.9 139.599 126.5 138.799 126.7 138.099C126.9 137.399 126.8 136.599 126.9 135.899C126.9 135.799 126.6 135.599 126.9 135.499C127.2 135.399 126.9 135.199 126.9 134.999C126.9 134.899 126.8 134.699 126.9 134.599C127.6 133.999 127.2 133.399 127.3 132.799C127.3 132.199 127.4 131.599 127.3 130.999C127.2 130.599 126.8 130.299 126.9 129.899C126.9 129.699 126.6 129.599 127.2 129.399C127.4 129.399 126.9 129.199 126.9 129.099C126.9 128.899 126.9 128.599 126.9 128.399C126.9 128.099 126.9 127.699 126.8 127.399C126.8 127.199 126.5 126.999 126.4 126.799C126.4 126.599 126.3 126.399 126.4 126.199C126.4 125.899 126.6 125.599 126.6 125.299C126.6 124.999 126.3 124.799 126.6 124.399C127 123.799 126.6 123.399 126.6 122.799C126.6 122.299 126.6 121.799 126.3 121.299C126.2 120.999 126.6 120.699 126.5 120.399C126.5 120.299 127.9 119.799 128.4 119.699H128.6C129.1 119.899 129.9 119.999 129.9 120.299C129.9 120.799 130.1 121.299 130.2 121.799L129.9 122.399Z" fill="black"/>
<path d="M134.7 106.099C136.4 104.999 138.2 104.099 140 103.199C140.7 102.899 141.5 102.799 142 102.099C142.3 101.699 143.2 102.099 143.8 101.799C145.6 101.099 147.4 100.799 149.2 100.499C151 100.099 152.8 99.7992 154.6 99.6992C156.4 99.6992 158.3 99.9992 160 99.8992C161.5 99.7992 162.8 100.499 164.2 100.699C165.7 100.899 167.3 101.299 168.7 101.999C169.7 102.499 170.6 103.199 171.7 103.599C172.3 103.899 173.1 103.899 173.7 104.399C174.3 104.799 174.8 105.499 175.7 105.499C175.7 105.499 176 105.799 176 105.999C176.3 106.799 177 107.499 177.7 107.899C178.3 108.299 178.7 108.799 179 109.299C180 110.699 180.7 112.399 181.1 114.099C181.4 115.399 181.3 116.799 181.1 118.099C180.9 119.499 180.9 120.999 179.9 122.199C179.4 122.799 178.9 123.299 178.3 123.799C177.7 124.299 176.9 124.699 176.3 124.899C175.5 125.199 174.7 124.899 174.3 125.699C174.3 125.699 174 125.699 173.9 125.699C172.1 125.099 170.4 126.299 168.6 126.099C166.8 125.899 164.9 125.999 163.1 125.799C162.6 125.799 162.1 125.499 161.6 125.899C161.4 125.999 160.9 125.899 160.7 125.899C159.4 125.099 158 125.299 156.6 124.899C155.1 124.499 153.5 124.399 152 123.599C151.4 123.199 150.5 122.899 149.6 123.299C149.2 123.499 148.5 122.999 147.9 122.899C147.4 122.899 146.9 122.899 146.5 122.899C146.1 122.899 145.8 122.499 145.4 122.299C145.3 122.299 145.2 122.199 145 122.199C142.6 122.199 140.7 120.699 138.7 120.399C136.6 120.199 134.8 119.999 133.1 120.399C132.2 120.699 131.4 120.899 130.1 120.599C129.5 120.499 129 120.099 129.2 119.499C129.3 118.999 129.6 118.499 130 118.199C130.6 117.699 131.3 117.199 132.1 116.899C133.6 116.199 135.3 115.499 137 115.999C137.5 116.099 138.2 115.999 138.5 116.499C138.5 116.499 138.7 116.699 138.8 116.599C141.1 116.199 143 117.399 145 117.899C146.7 118.299 148.4 118.199 150 118.899C151.1 118.499 152.1 118.899 153 119.299C156.1 120.699 159.5 120.899 162.8 121.299C166.1 121.699 169.5 121.699 172.8 121.299C173.4 121.299 173.8 120.799 174.4 120.999C174.7 120.999 174.9 120.999 175.1 120.999C175.3 120.999 175.3 120.799 175.4 120.699C175.6 120.499 175.7 120.099 176 119.799C176.7 118.999 176.9 117.799 176.9 116.699C176.9 115.599 176.5 114.399 176 113.399C175.1 111.199 173.6 109.299 171.4 108.099C170.1 107.299 168.6 106.999 167.3 106.299C166.7 105.999 166 106.099 165.5 105.399C165.4 105.199 164.6 105.399 164.2 105.399C163.2 105.199 162.1 104.899 161 104.799C159.5 104.599 158 104.399 156.5 104.399C155.6 104.399 154.7 104.599 153.8 104.699C152.9 104.699 151.9 104.899 151 104.899C149.8 104.899 148.6 104.899 147.4 105.199C146.2 105.399 145 105.999 143.8 106.199C141.5 106.499 139.6 107.699 137.6 108.799C135.7 109.899 133.8 111.199 132.2 112.799C131.3 113.699 130.1 114.199 129.3 115.099C128.9 115.499 127.3 115.099 127 114.699C127 114.699 127 114.499 127 114.399C127.5 113.099 127.8 111.699 129 110.699C130.7 109.199 132.5 107.699 134.4 106.499L134.7 106.099Z" fill="black"/>
</svg>
