<svg width="300" height="300" viewBox="0 0 300 300" fill="none" xmlns="http://www.w3.org/2000/svg">
<path d="M184.099 141C183.699 140.6 183.399 140.2 182.999 139.8C182.799 139.7 182.999 139.3 182.399 139.6C182.099 139.7 182.399 139.1 182.399 139C181.999 138.7 181.699 138.3 181.299 137.9C180.899 137.6 180.399 137.4 180.099 137.1C179.699 136.8 179.599 136.2 179.099 136.1C178.599 136 178.699 135.4 178.399 135.2C177.999 135 177.699 134.7 177.599 134.3C177.599 134 177.499 133.6 177.199 133.5C176.999 133.5 176.699 133.5 176.599 133.4C176.499 133.3 176.599 132.9 175.999 133.2C175.999 133.2 175.999 133.1 175.999 133C176.199 132.6 175.999 132.4 175.699 132.5C175.399 132.5 175.299 132.5 175.199 132.3C174.899 132 174.599 131.7 174.399 131.4C174.199 131.1 174.199 130.8 173.999 130.5C173.799 130.2 173.399 130.2 173.399 129.7C173.399 129.3 173.199 129.1 172.999 128.9C172.899 128.8 172.999 128.4 172.399 128.8C172.699 127.9 171.599 128.3 171.399 127.8C171.199 127.3 170.799 127 170.399 126.7C170.399 126.7 170.399 126.4 169.899 126.7C169.799 126.7 169.599 126.7 169.699 126.6C169.899 125.9 169.399 125.9 169.199 125.5C168.999 125.1 168.499 125 168.499 124.3C168.499 124 168.499 123.8 167.899 124C167.599 124.1 167.699 123.8 167.499 123.7C167.399 123.7 167.099 123.7 166.999 123.7C166.999 123.7 166.999 123.4 166.999 123.2C166.099 123.2 166.299 122.1 165.699 121.8C165.099 121.5 164.699 120.9 164.399 120.4C164.199 120.1 164.099 119.7 164.799 118.8C165.099 118.4 165.499 118 165.799 117.9C166.099 117.9 166.299 117.8 166.399 117.9C166.599 117.9 166.799 118 166.999 118.1C167.399 118.3 168.099 118.1 168.199 118.7C168.199 118.9 168.599 118.7 168.199 119.2V119.3C169.199 119.2 169.199 120 169.599 120.3C169.999 120.6 170.799 120.5 170.899 121.1C171.499 120.9 171.699 121.1 171.699 121.5C171.899 122.7 172.899 123.1 173.499 123.8C174.099 124.6 174.799 125.2 175.499 126C175.599 126.1 175.999 126 175.899 126.3C175.899 126.6 176.099 126.6 176.299 126.8C176.399 126.9 176.699 127 176.699 127.2C176.699 128.2 177.599 128.5 177.999 129.1C178.499 129.7 178.999 130.3 179.599 130.8C179.999 131.1 180.599 131.2 180.799 131.6C180.799 131.8 181.299 131.7 180.999 132.3C180.999 132.5 181.399 132.3 181.499 132.3C181.799 132.5 181.999 132.8 182.199 133C182.499 133.3 182.799 133.7 183.099 134C183.299 134.2 183.699 134.2 183.899 134.4C184.099 134.6 184.299 134.8 184.499 135C184.699 135.3 184.799 135.7 184.999 136C185.199 136.3 185.699 136.4 185.699 136.9C185.699 137.7 186.399 138 186.799 138.6C187.199 139.1 187.599 139.6 188.199 140C188.499 140.2 188.399 140.8 188.599 141.1C188.699 141.2 187.799 142.4 187.399 142.7L187.199 142.8C186.599 142.8 185.899 143.1 185.599 142.8C185.199 142.3 184.799 141.9 184.399 141.5L184.099 141Z" fill="black"/>
<path d="M115.099 126.502C114.899 127.502 114.699 128.502 114.599 129.502C114.599 129.902 114.299 130.302 114.799 130.702C115.099 130.902 114.399 131.302 114.399 131.602C114.399 132.602 114.399 133.602 114.399 134.702C114.399 135.702 114.699 136.702 114.699 137.702C114.699 138.702 114.499 139.702 114.799 140.702C115.099 141.502 114.599 142.302 114.799 143.102C114.999 143.902 115.099 144.802 114.899 145.602C114.799 146.202 114.599 146.801 114.699 147.401C114.699 147.801 115.099 148.102 115.199 148.502C115.199 148.902 114.999 149.302 115.599 149.602C115.599 149.602 115.599 149.801 115.499 149.901C115.099 150.301 115.199 150.802 115.499 151.102C115.799 151.402 115.799 151.702 115.799 152.002C115.899 152.802 115.999 153.702 116.099 154.502C116.099 155.102 115.999 155.801 115.999 156.401C115.999 157.101 116.399 157.701 116.199 158.401C115.999 159.001 116.099 159.602 116.199 160.201C116.199 160.501 115.999 161.001 116.699 161.201C116.699 161.201 116.699 161.301 116.699 161.401C115.999 162.501 117.199 163.302 117.199 164.302C117.199 165.302 117.499 166.301 117.599 167.401C117.599 167.701 117.599 168.001 117.999 168.201C118.199 168.201 118.199 168.501 118.099 168.701C117.599 169.602 118.099 170.302 118.099 171.102C118.099 172.002 118.599 172.802 118.199 173.802C118.099 174.202 117.999 174.702 118.699 175.102C118.999 175.302 118.799 175.702 118.899 176.102C118.899 176.402 119.299 176.602 119.399 176.802C119.399 177.002 119.299 177.302 119.199 177.502V177.701C120.099 178.902 119.499 180.302 119.899 181.602C120.299 182.902 120.499 184.202 120.699 185.502C120.699 186.201 120.699 187.002 119.699 187.701C119.199 188.002 118.699 188.101 118.299 187.901C117.999 187.701 117.699 187.502 117.599 187.302C117.399 186.902 117.199 186.502 116.999 186.102C116.599 185.302 115.999 184.602 116.099 183.602C116.099 183.302 115.799 183.102 116.199 182.701V182.502C115.199 181.502 115.499 180.202 115.199 179.002C114.999 178.002 114.199 177.102 114.299 176.102C113.599 175.702 113.599 175.001 113.699 174.401C113.999 172.301 113.199 170.401 112.999 168.401C112.799 166.401 112.399 164.302 112.099 162.302C112.099 162.002 111.699 161.702 111.899 161.302C112.099 160.902 111.899 160.402 111.799 160.002C111.799 159.602 111.599 159.202 111.699 158.802C112.099 157.102 111.599 155.601 111.499 153.901C111.499 152.301 111.299 150.702 110.999 149.102C110.799 148.102 110.399 147.202 110.499 146.202C110.499 145.802 110.199 145.301 110.699 144.901C110.899 144.801 110.399 144.402 110.299 144.102C110.299 143.402 110.299 142.702 110.199 142.102C110.199 141.202 110.199 140.202 110.099 139.302C110.099 138.702 109.799 138.202 109.699 137.602C109.699 137.002 109.699 136.402 109.699 135.802C109.699 135.002 109.999 134.302 110.099 133.502C110.099 132.702 109.899 131.902 110.199 131.102C110.799 129.702 110.699 128.202 110.999 126.702C111.399 125.202 111.799 123.802 112.399 122.302C112.699 121.402 113.599 121.002 114.099 120.302C114.399 120.002 115.799 120.502 116.099 121.002C116.099 121.002 116.099 121.202 116.099 121.302C116.099 122.102 116.299 123.002 115.899 123.602C115.299 124.502 114.999 125.602 114.699 126.702L115.099 126.502Z" fill="black"/>
<path d="M166.099 147.298C166.499 147.098 166.799 146.998 167.199 146.698C167.299 146.698 167.599 146.698 167.499 146.198C167.499 145.898 167.899 146.398 167.999 146.398C168.299 146.198 168.699 146.098 168.999 145.898C169.299 145.698 169.499 145.298 169.799 145.098C170.099 144.898 170.599 145.098 170.799 144.598C170.999 144.198 171.399 144.598 171.599 144.298C171.799 144.098 172.099 143.898 172.499 143.998C172.799 143.998 173.099 144.198 173.199 143.998C173.199 143.898 173.199 143.498 173.399 143.498C173.499 143.498 173.799 143.698 173.699 142.998C173.699 142.998 173.699 142.998 173.899 142.998C174.199 143.298 174.399 143.198 174.399 142.998C174.399 142.698 174.499 142.698 174.599 142.598C174.899 142.498 175.199 142.298 175.499 142.298C175.699 142.298 175.999 142.298 176.299 142.298C176.499 142.298 176.699 141.898 176.999 142.098C177.299 142.298 177.499 142.198 177.699 142.098C177.799 142.098 178.099 142.298 177.899 141.598C178.499 142.298 178.499 141.098 178.899 141.198C179.299 141.198 179.599 140.998 179.999 140.898C179.999 140.898 180.299 140.998 180.199 140.498C180.199 140.298 180.199 140.298 180.399 140.398C180.899 140.898 180.999 140.398 181.299 140.398C181.599 140.398 181.899 139.998 182.299 140.398C182.499 140.598 182.699 140.598 182.699 139.998C182.699 139.698 182.899 139.998 182.999 139.798C182.999 139.798 182.999 139.398 183.199 139.398C183.199 139.398 183.399 139.598 183.499 139.698C183.799 138.898 184.499 139.698 184.899 139.298C185.299 138.998 185.799 138.898 186.299 138.898C186.599 138.898 186.899 138.898 187.399 139.998C187.599 140.498 187.799 140.998 187.699 141.398C187.699 141.698 187.699 141.898 187.599 141.998C187.499 142.098 187.399 142.298 187.299 142.398C187.099 142.698 186.899 143.298 186.599 143.098C186.499 143.098 186.499 143.398 186.199 142.898C185.999 143.798 185.499 143.398 185.099 143.598C184.799 143.798 184.599 144.498 184.199 144.298C184.199 144.998 183.999 144.898 183.699 144.798C182.799 144.398 182.299 144.998 181.599 145.198C180.899 145.298 180.299 145.698 179.599 145.898C179.499 145.898 179.599 146.298 179.299 146.098C179.099 145.898 178.999 146.098 178.799 146.198C178.699 146.198 178.599 146.398 178.399 146.298C177.599 145.898 177.299 146.498 176.699 146.598C176.199 146.698 175.599 146.898 175.199 147.298C174.899 147.498 174.799 147.998 174.399 147.998C174.199 147.998 174.199 148.398 173.899 147.898C173.799 147.798 173.899 148.198 173.799 148.298C173.599 148.398 173.399 148.498 173.199 148.598C172.899 148.698 172.599 148.798 172.299 148.998C172.099 149.098 172.099 149.398 171.899 149.598C171.699 149.698 171.599 149.798 171.299 149.898C170.999 149.898 170.699 149.898 170.399 149.898C170.099 149.898 169.999 150.298 169.599 150.198C168.899 149.998 168.599 150.398 168.199 150.598C167.699 150.798 167.299 150.898 166.899 151.298C166.699 151.498 166.199 151.198 165.999 151.298C165.899 151.298 165.099 150.098 164.899 149.698V149.498C164.899 148.998 164.799 148.198 165.099 148.098C165.499 147.998 165.899 147.698 166.299 147.498L166.099 147.298Z" fill="black"/>
<path d="M168.6 166.202C168.6 165.902 168.5 165.502 168.3 165.202C168.3 165.102 168.5 164.902 167.9 164.902C167.6 164.902 168.2 164.602 168.2 164.502C168.1 164.202 168.1 163.902 167.9 163.602C167.8 163.302 167.5 163.102 167.3 162.802C167.2 162.502 167.3 162.102 167 161.902C166.7 161.702 167.1 161.402 167 161.202C166.8 161.002 166.7 160.702 166.8 160.402C166.9 160.202 167.1 160.002 166.9 159.802C166.9 159.802 166.5 159.702 166.5 159.602C166.5 159.502 166.7 159.302 166.1 159.302C166.1 159.302 166.1 159.302 166.2 159.202C166.6 159.002 166.5 158.802 166.2 158.802C165.9 158.802 165.9 158.702 165.9 158.602C165.9 158.402 165.7 158.102 165.7 157.902C165.7 157.702 165.9 157.502 165.9 157.302C165.9 157.102 165.6 157.002 165.9 156.702C166.2 156.402 166.1 156.302 166 156.102C166 156.102 166.2 155.802 165.6 155.902C166.3 155.402 165.2 155.402 165.3 155.102C165.4 154.802 165.3 154.502 165.1 154.202C165.1 154.202 165.2 154.002 164.8 154.002C164.6 154.002 164.6 154.002 164.7 153.902C165.2 153.502 164.8 153.402 164.9 153.102C164.9 152.802 164.6 152.602 164.9 152.202C165.1 152.002 165.1 151.902 164.5 151.902C164.2 151.902 164.5 151.702 164.4 151.602C164.4 151.602 164 151.602 164 151.502C164 151.502 164.2 151.302 164.3 151.202C163.6 151.002 164.3 150.402 164 150.102C163.7 149.802 163.7 149.402 163.6 149.002C163.6 148.802 163.6 148.502 164.7 148.002C165.2 147.802 165.7 147.602 166 147.602C166.2 147.602 166.5 147.602 166.6 147.602C166.7 147.602 166.9 147.802 167 147.902C167.3 148.102 167.9 148.202 167.7 148.502C167.7 148.602 168 148.602 167.5 148.802C168.4 148.902 168 149.402 168.1 149.802C168.2 150.102 168.9 150.202 168.7 150.602C169.4 150.602 169.3 150.802 169.2 151.002C168.7 151.802 169.3 152.202 169.4 152.902C169.4 153.502 169.7 154.102 169.8 154.702C169.8 154.802 170.2 154.802 170 155.002C169.8 155.202 170 155.302 170 155.402C170 155.502 170.2 155.602 170 155.802C169.5 156.402 170 156.802 170 157.302C170 157.802 170 158.302 170.4 158.702C170.6 159.002 171 159.202 170.9 159.502C170.9 159.602 171.2 159.702 170.7 159.902C170.5 159.902 171 159.902 171.1 160.102C171.1 160.302 171.2 160.502 171.3 160.702C171.3 161.002 171.3 161.302 171.5 161.502C171.5 161.702 171.9 161.802 172 161.902C172.1 162.102 172.1 162.202 172.1 162.402C172.1 162.602 171.9 162.902 171.9 163.102C171.9 163.302 172.2 163.502 172 163.802C171.6 164.302 172 164.702 172 165.102C172 165.502 172.1 165.902 172.3 166.302C172.4 166.502 172 166.802 172.1 167.102C172.1 167.102 170.7 167.702 170.2 167.802H170C169.5 167.802 168.7 167.802 168.7 167.402C168.7 167.002 168.5 166.702 168.4 166.302L168.6 166.202Z" fill="black"/>
<path d="M162.2 186.199C162.3 185.799 162.5 185.399 162.5 184.999C162.5 184.799 162.8 184.799 162.4 184.499C162.2 184.299 162.8 184.399 162.8 184.199C162.8 183.799 163.1 183.499 163.1 183.099C163.1 182.699 163.1 182.299 163.1 181.899C163.1 181.499 163.6 181.299 163.4 180.799C163.2 180.399 163.8 180.299 163.8 179.999C163.8 179.699 163.8 179.299 164.1 179.099C164.3 178.899 164.6 178.799 164.6 178.599C164.6 178.399 164.3 178.199 164.4 178.099C164.4 177.999 164.8 177.899 164.2 177.599C164.2 177.599 164.2 177.599 164.4 177.599C164.8 177.599 164.9 177.399 164.6 177.199C164.4 176.999 164.5 176.899 164.5 176.799C164.5 176.499 164.6 176.199 164.8 175.899C164.9 175.699 165.2 175.599 165.4 175.399C165.5 175.199 165.4 174.899 165.7 174.699C166.1 174.599 166.1 174.399 166.2 174.199C166.2 174.099 166.6 173.999 166 173.699C166.9 173.699 166 172.999 166.3 172.699C166.6 172.399 166.6 171.999 166.7 171.699C166.7 171.699 166.9 171.599 166.5 171.299C166.4 171.299 166.4 171.099 166.5 171.099C167.2 171.099 166.9 170.599 167.1 170.399C167.3 170.099 167.1 169.699 167.7 169.599C167.9 169.599 168.1 169.399 167.6 169.099C167.4 168.899 167.6 168.899 167.6 168.799C167.6 168.699 167.3 168.499 167.4 168.399C167.4 168.399 167.7 168.399 167.8 168.299C167.3 167.699 168.3 167.499 168.2 166.999C168.2 166.699 168.2 166.599 168.2 166.299C168.2 165.999 168.4 165.699 168.6 165.299C168.8 164.899 169.3 164.499 170.4 165.099C170.9 165.299 171.3 165.699 171.5 165.999C171.6 166.199 171.8 166.399 171.8 166.499C171.8 166.599 171.9 166.799 172 166.899C172.1 167.099 172.6 167.399 172.2 167.699C172.1 167.699 172.3 167.999 171.8 167.899C172.5 168.499 171.8 168.899 171.8 169.299C171.8 169.699 172.2 170.199 171.8 170.499C172.3 170.899 172.2 171.099 171.9 171.199C171 171.699 171.2 172.499 170.9 173.199C170.6 173.899 170.4 174.599 170.1 175.299C170.1 175.399 170.4 175.599 170.1 175.699C169.8 175.699 169.9 175.999 169.9 176.099C169.9 176.199 169.9 176.399 169.7 176.499C168.9 176.799 169.1 177.499 168.8 177.999C168.5 178.499 168.3 178.999 168.3 179.599C168.3 179.999 168.5 180.399 168.3 180.699C168.2 180.799 168.5 181.099 167.9 180.999C167.7 180.999 168.1 181.299 168.1 181.399C168.1 181.599 168 181.899 167.9 182.099C167.8 182.399 167.6 182.699 167.6 183.099C167.6 183.299 167.7 183.599 167.7 183.799C167.7 183.999 167.7 184.199 167.5 184.399C167.3 184.599 167.1 184.799 166.9 185.099C166.8 185.299 166.9 185.699 166.6 185.899C166 186.199 166.1 186.799 165.9 187.199C165.7 187.599 165.5 188.099 165.5 188.599C165.5 188.899 165 188.999 164.9 189.199C164.9 189.299 163.4 189.199 162.9 188.999H162.7C162.3 188.599 161.7 188.199 161.8 187.899C162 187.399 162.1 186.999 162.2 186.499V186.199Z" fill="black"/>
<path d="M157.6 168.101C157.5 167.801 157.4 167.601 157.2 167.401C157.2 167.401 157.2 167.101 156.8 167.401C156.6 167.501 157 167.101 156.9 167.001C156.7 166.801 156.6 166.601 156.3 166.501C156.1 166.401 155.7 166.401 155.5 166.301C155.3 166.301 155.2 165.901 154.9 166.101C154.6 166.301 154.6 165.801 154.4 165.801C154.2 165.801 154 165.801 153.8 165.601C153.7 165.401 153.6 165.201 153.4 165.301C153.3 165.301 153.2 165.701 153.1 165.701C153.1 165.701 152.9 165.401 152.8 166.001C152.8 166.001 152.8 166.001 152.8 165.901C152.7 165.501 152.6 165.501 152.5 165.901C152.5 166.201 152.4 166.101 152.3 166.201C152.1 166.201 152 166.301 151.8 166.301C151.7 166.301 151.5 166.101 151.3 166.101C151.1 166.101 151.1 166.401 150.8 166.201C150.5 166.001 150.4 166.201 150.3 166.201C150.3 166.201 150 166.101 150.3 166.601C149.6 166.101 150.1 167.101 149.8 167.101C149.5 167.101 149.4 167.401 149.2 167.701C149.2 167.701 149 167.701 149.2 168.001C149.3 168.101 149.2 168.201 149.2 168.101C148.6 167.901 148.8 168.301 148.6 168.401C148.4 168.501 148.6 168.901 148 168.901C147.8 168.901 147.6 169.001 148 169.401C148.2 169.601 148 169.601 148 169.701L148.2 170.001C148.2 170.001 147.9 170.001 147.8 170.001C148.3 170.601 147.4 170.601 147.4 171.101C147.4 171.501 147.4 171.901 147.2 172.301C147.2 172.501 146.9 172.701 145.7 172.701C145.2 172.701 144.6 172.701 144.3 172.501C144.1 172.401 143.9 172.301 143.8 172.201C143.8 172.001 143.6 171.901 143.5 171.701C143.4 171.401 142.9 170.901 143.2 170.701C143.3 170.701 143 170.401 143.6 170.501C142.9 169.901 143.6 169.501 143.6 169.101C143.6 168.701 143.2 168.101 143.6 167.801C143.1 167.301 143.3 167.101 143.6 167.001C144.6 166.501 144.6 165.601 145.3 165.001C145.9 164.401 146.5 163.701 147.2 163.201C147.3 163.201 147.2 162.701 147.5 162.901C147.8 163.001 147.9 162.701 148 162.601C148.2 162.601 148.3 162.301 148.5 162.401C149.4 162.701 149.9 162.101 150.7 162.001C151.4 162.001 152.1 162.001 152.8 161.701C153.2 161.701 153.7 161.301 154.1 161.501C154.3 161.501 154.5 161.301 154.6 161.901C154.6 162.101 154.9 161.701 155 161.701C155.3 161.701 155.6 161.901 155.9 162.001C156.3 162.201 156.7 162.401 157.1 162.501C157.3 162.501 157.7 162.501 158 162.601C158.3 162.701 158.5 162.901 158.7 163.101C158.9 163.401 159 163.801 159.2 164.101C159.4 164.401 159.9 164.501 159.8 165.001C159.8 165.801 160.3 166.201 160.5 166.701C160.7 167.301 160.9 167.801 161.1 168.401C161.3 168.701 160.8 169.101 160.9 169.401C160.9 169.601 159.5 169.901 159 169.901H158.8C158.3 169.701 157.6 169.701 157.6 169.401C157.6 169.101 157.5 168.801 157.3 168.501L157.6 168.101Z" fill="black"/>
<path d="M149.499 137.399C149.299 137.599 148.999 137.699 148.899 137.899C148.899 137.899 148.599 137.899 148.899 138.299C148.999 138.499 148.499 138.099 148.499 138.199C148.299 138.399 148.099 138.499 147.899 138.699C147.799 138.899 147.699 139.199 147.599 139.499C147.499 139.699 147.099 139.699 147.099 140.099C147.099 140.399 146.699 140.199 146.599 140.399C146.599 140.599 146.399 140.799 146.099 140.799C145.899 140.799 145.599 140.799 145.599 140.899C145.599 140.999 145.699 141.299 145.599 141.399C145.599 141.399 145.299 141.399 145.599 141.799C145.599 141.799 145.599 141.799 145.399 141.799C144.999 141.599 144.999 141.699 145.099 141.999C145.199 142.199 145.099 142.299 145.099 142.299C144.999 142.499 144.899 142.599 144.699 142.799C144.599 142.799 144.299 142.799 144.099 142.899C143.899 142.899 144.099 143.299 143.699 143.199C143.399 143.199 143.299 143.199 143.199 143.299C143.199 143.299 142.899 143.299 143.199 143.699C142.399 143.299 143.099 144.199 142.799 144.299C142.499 144.299 142.399 144.699 142.299 144.899C142.299 144.899 142.099 144.899 142.299 145.199C142.399 145.299 142.299 145.399 142.299 145.299C141.699 145.099 141.899 145.499 141.699 145.499C141.499 145.599 141.599 145.999 140.999 145.799C140.799 145.799 140.599 145.799 140.999 146.199C141.199 146.399 140.999 146.299 140.999 146.399C140.999 146.399 141.199 146.699 141.199 146.799C141.199 146.799 140.899 146.799 140.799 146.799C141.199 147.399 140.199 147.199 140.199 147.599C140.199 147.999 139.899 148.199 139.699 148.399C139.599 148.499 139.299 148.599 138.299 148.099C137.799 147.899 137.399 147.599 137.099 147.299C136.899 147.099 136.799 146.899 136.799 146.899C136.799 146.799 136.799 146.599 136.799 146.399C136.799 146.099 136.399 145.599 136.799 145.599C136.899 145.599 136.799 145.299 137.199 145.599C136.699 144.899 137.299 144.899 137.499 144.599C137.599 144.399 137.299 143.799 137.599 143.699C137.199 143.199 137.399 143.099 137.599 143.099C138.499 143.099 138.399 142.399 138.799 141.999C139.199 141.599 139.499 141.099 139.899 140.699C139.899 140.699 139.699 140.299 139.999 140.399C140.299 140.399 140.199 140.299 140.299 140.199C140.299 140.199 140.299 139.899 140.499 139.999C141.299 140.099 141.299 139.499 141.599 139.299C141.899 138.999 142.299 138.799 142.499 138.399C142.599 138.099 142.499 137.699 142.799 137.599C142.899 137.599 142.799 137.199 143.299 137.599C143.399 137.599 143.299 137.299 143.299 137.199C143.299 136.999 143.499 136.899 143.699 136.799C143.899 136.599 144.099 136.499 144.199 136.299C144.199 136.199 144.199 135.899 144.299 135.699C144.299 135.499 144.499 135.399 144.699 135.399C144.899 135.399 145.199 135.399 145.399 135.299C145.599 135.299 145.599 134.899 145.899 134.899C146.499 135.099 146.599 134.599 146.999 134.399C147.299 134.199 147.599 133.999 147.899 133.699C147.999 133.499 148.499 133.799 148.599 133.699C148.599 133.699 149.599 134.799 149.899 135.199C149.899 135.199 149.899 135.399 149.999 135.399C150.099 135.899 150.399 136.599 150.199 136.699C149.899 136.799 149.699 137.099 149.399 137.299L149.499 137.399Z" fill="black"/>
<path d="M139.599 134.201C139.799 134.401 139.899 134.701 140.099 134.801C140.099 134.801 140.099 135.101 140.499 134.801C140.699 134.701 140.299 135.201 140.399 135.201C140.599 135.401 140.699 135.601 140.899 135.801C141.099 135.901 141.399 136.001 141.699 136.101C141.899 136.201 141.899 136.601 142.299 136.601C142.599 136.601 142.399 137.001 142.599 137.101C142.799 137.101 142.999 137.301 142.999 137.601C142.999 137.801 142.999 138.101 143.099 138.101C143.199 138.101 143.499 138.001 143.599 138.101C143.599 138.101 143.599 138.401 143.999 138.101C143.999 138.101 143.999 138.101 143.999 138.301C143.799 138.701 143.899 138.701 144.199 138.601C144.399 138.501 144.499 138.601 144.499 138.601C144.699 138.701 144.799 138.801 144.999 139.001C144.999 139.101 144.999 139.401 145.099 139.601C145.099 139.801 145.499 139.601 145.399 140.001C145.399 140.301 145.399 140.401 145.499 140.501C145.499 140.501 145.499 140.801 145.899 140.501C145.499 141.301 146.399 140.601 146.499 140.901C146.499 141.201 146.899 141.301 147.099 141.401C147.099 141.401 147.099 141.601 147.399 141.401C147.499 141.301 147.599 141.401 147.499 141.401C147.299 142.001 147.699 141.801 147.699 142.001C147.799 142.201 148.199 142.101 147.999 142.701C147.999 142.901 147.999 143.101 148.399 142.701C148.599 142.501 148.499 142.701 148.599 142.701C148.599 142.701 148.899 142.501 148.999 142.501C148.999 142.501 148.999 142.801 148.999 142.901C149.599 142.501 149.399 143.501 149.799 143.501C150.199 143.501 150.399 143.801 150.599 144.001C150.699 144.101 150.799 144.401 150.299 145.401C150.099 145.901 149.799 146.301 149.499 146.601C149.299 146.801 149.099 146.901 149.099 146.901C148.999 146.901 148.799 146.901 148.599 146.901C148.299 146.901 147.799 147.301 147.799 146.901C147.799 146.801 147.499 146.901 147.799 146.501C147.099 147.001 147.099 146.401 146.799 146.201C146.599 146.101 145.999 146.401 145.899 146.101C145.399 146.501 145.299 146.301 145.299 146.101C145.299 145.201 144.599 145.301 144.199 144.901C143.799 144.501 143.299 144.201 142.899 143.801C142.899 143.801 142.499 144.001 142.599 143.701C142.599 143.401 142.499 143.501 142.399 143.401C142.399 143.401 142.099 143.401 142.199 143.201C142.299 142.401 141.699 142.401 141.499 142.101C141.199 141.801 140.999 141.401 140.599 141.201C140.299 141.101 139.899 141.201 139.799 140.901C139.799 140.801 139.399 140.901 139.799 140.401C139.799 140.301 139.499 140.401 139.399 140.401C139.199 140.401 139.099 140.201 138.999 140.001C138.799 139.801 138.699 139.601 138.499 139.501C138.399 139.501 138.099 139.501 137.899 139.401C137.699 139.401 137.599 139.201 137.599 139.001C137.599 138.801 137.599 138.501 137.499 138.301C137.499 138.101 137.099 138.101 137.099 137.801C137.299 137.201 136.799 137.101 136.599 136.701C136.399 136.401 136.199 136.101 135.899 135.801C135.699 135.701 135.999 135.201 135.899 135.101C135.899 135.101 136.999 134.101 137.399 133.801C137.399 133.801 137.599 133.801 137.599 133.701C138.099 133.601 138.799 133.301 138.899 133.501C138.999 133.801 139.299 134.001 139.499 134.301L139.599 134.201Z" fill="black"/>
<path d="M168.499 134.399C168.299 134.599 167.999 134.699 167.899 134.899C167.899 134.899 167.599 134.899 167.899 135.299C167.999 135.499 167.499 135.099 167.499 135.199C167.299 135.399 167.099 135.499 166.899 135.699C166.799 135.899 166.699 136.199 166.599 136.499C166.499 136.699 166.099 136.699 166.099 137.099C166.099 137.399 165.699 137.199 165.599 137.399C165.599 137.599 165.399 137.799 165.099 137.799C164.899 137.799 164.599 137.799 164.599 137.899C164.599 137.999 164.699 138.299 164.599 138.399C164.599 138.399 164.299 138.399 164.599 138.799C164.599 138.799 164.599 138.799 164.399 138.799C163.999 138.599 163.999 138.699 164.099 138.999C164.199 139.199 164.099 139.299 164.099 139.299C163.999 139.499 163.899 139.599 163.699 139.799C163.599 139.799 163.299 139.799 163.099 139.899C162.899 139.899 163.099 140.299 162.699 140.199C162.399 140.199 162.299 140.199 162.199 140.299C162.199 140.299 161.899 140.299 162.199 140.699C161.399 140.299 162.099 141.199 161.799 141.299C161.499 141.299 161.399 141.699 161.299 141.899C161.299 141.899 161.099 141.899 161.299 142.199C161.399 142.299 161.299 142.399 161.299 142.299C160.699 142.099 160.899 142.499 160.699 142.499C160.499 142.599 160.599 142.999 159.999 142.799C159.799 142.799 159.599 142.799 159.999 143.199C160.199 143.399 159.999 143.299 159.999 143.399C159.999 143.399 160.199 143.699 160.199 143.799C160.199 143.799 159.899 143.799 159.799 143.799C160.199 144.399 159.199 144.199 159.199 144.599C159.199 144.999 158.899 145.199 158.699 145.399C158.599 145.499 158.299 145.599 157.299 145.099C156.799 144.899 156.399 144.599 156.099 144.299C155.899 144.099 155.799 143.899 155.799 143.899C155.799 143.799 155.799 143.599 155.799 143.399C155.799 143.099 155.399 142.599 155.799 142.599C155.899 142.599 155.799 142.299 156.199 142.599C155.699 141.899 156.299 141.899 156.499 141.599C156.599 141.399 156.299 140.799 156.599 140.699C156.199 140.199 156.399 140.099 156.599 140.099C157.499 140.099 157.399 139.399 157.799 138.999C158.199 138.599 158.499 138.099 158.899 137.699C158.899 137.699 158.699 137.299 158.999 137.399C159.299 137.399 159.199 137.299 159.299 137.199C159.299 137.199 159.299 136.899 159.499 136.999C160.299 137.099 160.299 136.499 160.599 136.299C160.899 135.999 161.299 135.799 161.499 135.399C161.599 135.099 161.499 134.699 161.799 134.599C161.899 134.599 161.799 134.199 162.299 134.599C162.399 134.599 162.299 134.299 162.299 134.199C162.299 133.999 162.499 133.899 162.699 133.799C162.899 133.599 163.099 133.499 163.199 133.299C163.199 133.199 163.199 132.899 163.299 132.699C163.299 132.499 163.499 132.399 163.699 132.399C163.899 132.399 164.199 132.399 164.399 132.299C164.599 132.299 164.599 131.899 164.899 131.899C165.499 132.099 165.599 131.599 165.999 131.399C166.299 131.199 166.599 130.999 166.899 130.699C166.999 130.499 167.499 130.799 167.599 130.699C167.599 130.699 168.599 131.799 168.899 132.199C168.899 132.199 168.899 132.399 168.999 132.399C169.099 132.899 169.399 133.599 169.199 133.699C168.899 133.799 168.699 134.099 168.399 134.299L168.499 134.399Z" fill="black"/>
<path d="M158.599 131.201C158.799 131.401 158.899 131.701 159.099 131.801C159.099 131.801 159.099 132.101 159.499 131.801C159.699 131.701 159.299 132.201 159.399 132.201C159.599 132.401 159.699 132.601 159.899 132.801C160.099 132.901 160.399 133.001 160.699 133.101C160.899 133.201 160.899 133.601 161.299 133.601C161.599 133.601 161.399 134.001 161.599 134.101C161.799 134.101 161.999 134.301 161.999 134.601C161.999 134.801 161.999 135.101 162.099 135.101C162.199 135.101 162.499 135.001 162.599 135.101C162.599 135.101 162.599 135.401 162.999 135.101C162.999 135.101 162.999 135.101 162.999 135.301C162.799 135.701 162.899 135.701 163.199 135.601C163.399 135.501 163.499 135.601 163.499 135.601C163.699 135.701 163.799 135.801 163.999 136.001C163.999 136.101 163.999 136.401 164.099 136.601C164.099 136.801 164.499 136.601 164.399 137.001C164.399 137.301 164.399 137.401 164.499 137.501C164.499 137.501 164.499 137.801 164.899 137.501C164.499 138.301 165.399 137.601 165.499 137.901C165.499 138.201 165.899 138.301 166.099 138.401C166.099 138.401 166.099 138.601 166.399 138.401C166.499 138.301 166.599 138.401 166.499 138.401C166.299 139.001 166.699 138.801 166.699 139.001C166.799 139.201 167.199 139.101 166.999 139.701C166.999 139.901 166.999 140.101 167.399 139.701C167.599 139.501 167.499 139.701 167.599 139.701C167.599 139.701 167.899 139.501 167.999 139.501C167.999 139.501 167.999 139.801 167.999 139.901C168.599 139.501 168.399 140.501 168.799 140.501C169.199 140.501 169.399 140.801 169.599 141.001C169.699 141.101 169.799 141.401 169.299 142.401C169.099 142.901 168.799 143.301 168.499 143.601C168.299 143.801 168.099 143.901 168.099 143.901C167.999 143.901 167.799 143.901 167.599 143.901C167.299 143.901 166.799 144.301 166.799 143.901C166.799 143.801 166.499 143.901 166.799 143.501C166.099 144.001 166.099 143.401 165.799 143.201C165.599 143.101 164.999 143.401 164.899 143.101C164.399 143.501 164.299 143.301 164.299 143.101C164.299 142.201 163.599 142.301 163.199 141.901C162.799 141.501 162.299 141.201 161.899 140.801C161.899 140.801 161.499 141.001 161.599 140.701C161.599 140.401 161.499 140.501 161.399 140.401C161.399 140.401 161.099 140.401 161.199 140.201C161.299 139.401 160.699 139.401 160.499 139.101C160.199 138.801 159.999 138.401 159.599 138.201C159.299 138.101 158.899 138.201 158.799 137.901C158.799 137.801 158.399 137.901 158.799 137.401C158.799 137.301 158.499 137.401 158.399 137.401C158.199 137.401 158.099 137.201 157.999 137.001C157.799 136.801 157.699 136.601 157.499 136.501C157.399 136.501 157.099 136.501 156.899 136.401C156.699 136.401 156.599 136.201 156.599 136.001C156.599 135.801 156.599 135.501 156.499 135.301C156.499 135.101 156.099 135.101 156.099 134.801C156.299 134.201 155.799 134.101 155.599 133.701C155.399 133.401 155.199 133.101 154.899 132.801C154.699 132.701 154.999 132.201 154.899 132.101C154.899 132.101 155.999 131.101 156.399 130.801C156.399 130.801 156.599 130.801 156.599 130.701C157.099 130.601 157.799 130.301 157.899 130.501C157.999 130.801 158.299 131.001 158.499 131.301L158.599 131.201Z" fill="black"/>
<path d="M125.099 163.9C124.399 163.9 123.799 163.7 123.099 163.7C122.799 163.7 122.599 163.4 122.299 163.9C122.099 164.1 121.999 163.5 121.699 163.5C120.999 163.5 120.399 163.2 119.699 163.1C118.999 163 118.299 162.9 117.599 162.7C116.899 162.5 116.399 161.8 115.699 161.7C114.999 161.6 114.899 160.8 114.399 160.5C113.799 160.1 113.299 159.6 113.099 158.9C112.999 158.4 112.999 157.9 112.699 157.5C112.499 157.3 112.099 157.1 111.999 156.8C111.999 156.5 112.099 156.1 111.399 156C111.399 156 111.399 155.8 111.499 155.7C111.799 155.3 111.799 154.9 111.499 154.7C111.199 154.4 111.299 154.2 111.299 153.9C111.299 153.2 111.299 152.5 111.599 151.9C111.799 151.4 112.199 151 112.399 150.6C112.699 150.2 112.699 149.5 113.199 149.3C113.699 149.1 113.999 148.7 114.199 148.4C114.399 148.2 114.799 148.2 114.499 147.6C114.499 147.6 114.499 147.5 114.599 147.5C115.199 147.5 115.399 147.3 115.599 146.9C115.799 146.6 115.999 146.2 116.399 146.1C117.199 145.9 117.799 145.4 118.499 145.1C118.699 145.1 118.899 145.1 118.999 144.6C118.999 144.4 119.199 144.3 119.399 144.4C120.099 144.9 120.599 144.4 121.199 144.4C121.799 144.4 122.499 144.1 123.099 144.6C123.399 144.8 123.699 144.9 124.099 144.4C124.299 144.1 124.599 144.4 124.799 144.4C124.999 144.4 125.199 144.1 125.499 144.2C125.699 144.2 125.799 144.5 125.899 144.6C125.899 144.6 125.999 144.6 126.099 144.6C126.699 144.4 127.199 144.6 127.599 145C127.999 145.3 128.399 145.7 128.799 145.9C129.699 146.3 130.399 147 130.999 147.6C131.299 148 131.499 148.4 130.999 149.4C130.699 149.9 130.299 150.3 129.999 150.4C129.699 150.4 129.499 150.5 129.299 150.4C129.099 150.4 128.799 150.2 128.599 150.2C128.099 150 127.399 150.2 127.299 149.7C127.299 149.5 126.899 149.7 127.099 149.2V149.1C126.199 149.4 125.999 148.8 125.499 148.6C124.999 148.6 124.499 149 124.099 148.7C123.799 149.3 123.499 149.2 123.299 149C122.399 148.3 121.399 149 120.499 149.2C119.599 149.4 118.799 150 118.199 150.5C118.099 150.5 118.199 150.9 117.899 150.9C117.599 150.9 117.599 151.1 117.499 151.3C117.399 151.4 117.499 151.7 117.199 151.7C116.299 152 116.299 152.9 116.199 153.5C115.999 154.2 115.999 154.9 116.299 155.5C116.499 155.9 116.999 156 116.999 156.4C116.999 156.6 117.399 156.4 116.999 157C116.999 157.1 117.399 157 117.399 157C117.599 157.2 117.799 157.4 117.999 157.6C118.299 157.9 118.599 158.1 119.099 158.3C119.399 158.3 119.699 158.3 119.999 158.3C120.299 158.3 120.499 158.5 120.799 158.6C121.099 158.8 121.399 159.1 121.799 159.2C122.199 159.4 122.699 159.2 122.999 159.5C123.699 160.1 124.499 160 125.299 160.1C126.099 160.3 126.899 160.4 127.799 160.4C128.299 160.4 128.599 161 129.099 161.1C129.299 161.1 129.299 162.6 129.099 163.1C129.099 163.1 129.099 163.3 128.999 163.3C128.499 163.7 127.999 164.3 127.499 164.2C126.799 164 126.099 164 125.399 163.9H125.099Z" fill="black"/>
<path d="M131.2 120.1C131.2 120.6 131.2 121.1 131.4 121.5C131.4 121.7 131.2 121.9 131.7 122C132 122 131.4 122.3 131.4 122.5C131.5 122.9 131.4 123.4 131.5 123.8C131.5 124.2 131.8 124.7 131.9 125.1C131.9 125.5 131.7 126 132 126.4C132.3 126.8 131.8 127.1 132 127.4C132.1 127.8 132.2 128.1 132 128.5C131.8 128.8 131.6 129 131.7 129.3C131.7 129.5 132.1 129.6 132.1 129.8C132.1 130 131.8 130.1 132.4 130.3C132.4 130.3 132.4 130.3 132.3 130.4C131.9 130.6 131.9 130.8 132.2 130.9C132.5 131.1 132.4 131.2 132.4 131.3C132.4 131.7 132.4 132.1 132.4 132.4C132.4 132.7 132.1 132.9 132 133.2C132 133.5 132.2 133.8 131.9 134.1C131.6 134.3 131.6 134.6 131.6 134.9C131.6 135 131.3 135.2 131.9 135.4C131 135.8 132.1 136.3 131.9 136.7C131.6 137.1 131.8 137.6 131.7 138C131.7 138.1 131.5 138.2 131.9 138.4C132.1 138.4 132.1 138.6 131.9 138.6C131.2 138.9 131.6 139.3 131.4 139.6C131.2 140 131.4 140.4 130.9 140.7C130.7 140.8 130.5 141 131.1 141.3C131.4 141.4 131.1 141.6 131.1 141.7C131.1 141.8 131.4 142 131.4 142.1C131.4 142.1 131.1 142.3 131 142.3C131.6 143 130.6 143.4 130.7 144C130.7 144.6 130.6 145.2 130.4 145.7C130.3 146 130 146.3 128.9 146.3C128.4 146.3 127.8 146.2 127.5 146C127.3 145.9 127.1 145.7 127 145.6C127 145.4 126.8 145.2 126.8 145C126.7 144.6 126.2 144.2 126.6 143.9C126.7 143.9 126.4 143.6 127 143.6C126.3 143 127 142.6 127 142.1C127 141.7 126.5 141.2 126.8 140.8C126.2 140.5 126.4 140.2 126.6 140C127.4 139.3 127 138.4 127.2 137.6C127.4 136.8 127.4 135.9 127.5 135.1C127.5 135 127.2 134.8 127.5 134.7C127.8 134.6 127.5 134.3 127.5 134.2C127.5 134 127.4 133.8 127.5 133.7C128.2 133.1 127.8 132.4 127.9 131.7C127.9 131 128.1 130.4 127.9 129.7C127.9 129.3 127.5 128.9 127.6 128.5C127.6 128.3 127.3 128.1 127.9 128C128.1 128 127.6 127.8 127.6 127.7C127.6 127.4 127.6 127.1 127.6 126.9C127.6 126.5 127.6 126.1 127.6 125.8C127.6 125.6 127.3 125.3 127.2 125.1C127.2 124.9 127.2 124.6 127.2 124.4C127.2 124.1 127.4 123.8 127.5 123.5C127.5 123.2 127.2 122.9 127.5 122.5C128 121.9 127.7 121.3 127.6 120.8C127.6 120.2 127.6 119.7 127.4 119.1C127.3 118.8 127.7 118.4 127.7 118.1C127.7 118 129.1 117.5 129.6 117.5H129.8C130.3 117.8 131.1 117.9 131.1 118.3C131.1 118.9 131.2 119.4 131.3 119.9L131.2 120.1Z" fill="black"/>
<path d="M166.6 107.698C166.7 105.898 166.8 104.098 166.7 102.298C166.7 101.598 166.9 100.898 166.4 100.298C166.1 99.9984 166.7 99.2984 166.7 98.6984C166.5 96.9984 166.5 95.1984 166 94.3984C165.9 94.1984 165.8 94.0984 165.6 93.9984C165.5 93.9984 165.4 93.9984 165.2 93.8984C164.8 93.8984 164.1 93.8984 163.3 93.8984C162.5 93.8984 161.7 93.8984 160.9 93.8984C160.1 93.8984 159.3 93.8984 158.5 94.0984C157.2 94.4984 155.9 93.9984 154.7 94.1984C154 94.2984 153.3 94.3984 152.7 94.4984C152 94.4984 151.3 94.5984 150.6 94.5984C149.6 94.5984 148.6 94.5984 147.7 94.7984C147.1 94.9984 146.6 95.3984 145.9 95.4984C145.3 95.4984 144.5 95.4984 144.1 96.1984C144.1 96.1984 143.8 96.1984 143.6 96.1984C142.9 95.8984 142.1 96.1984 141.6 96.4984C141.1 96.8984 140.7 96.9984 140.2 97.0984C138.9 97.3984 137.5 97.7984 136.2 98.0984C135.2 98.2984 134.1 98.3984 133.1 98.5984C132 98.7984 131 99.3984 129.9 99.3984C128.8 99.3984 127.9 99.6984 127 99.9984C126.5 100.198 125.7 99.9984 125.5 100.798C125.5 100.798 125.3 100.898 125.2 100.898C123.4 100.598 122.2 102.098 120.6 102.398C118.9 102.698 117.3 103.398 115.7 103.998C115.3 104.198 114.8 104.098 114.5 104.698C114.5 104.898 114 105.098 113.7 104.998C112.3 104.798 111.2 105.698 110.1 106.098C108.8 106.598 107.5 107.498 106.2 107.698C105.6 107.698 104.9 108.198 105.1 108.898C105.1 109.198 104.8 109.298 104.8 109.498C104.8 109.698 105 109.898 105 110.098C105 110.298 104.8 110.498 104.7 110.798V110.998C105.2 111.698 105.5 112.498 105.9 113.398C106.3 114.398 106.6 115.398 107.3 116.198C108.5 117.898 109.7 119.598 111 121.298C111.7 122.198 112.4 123.198 112.1 124.598C112 125.198 111.6 125.598 111 125.498C110.6 125.398 110.1 125.198 109.7 124.898C109.2 124.398 108.6 123.998 108.1 123.498C107 122.498 105.7 121.698 105.1 120.198C104.9 119.798 104.3 119.498 104.6 118.898C104.6 118.898 104.6 118.598 104.5 118.598C103.6 117.998 103 117.098 102.6 116.198C102.1 115.298 101.7 114.298 101.3 113.198C100.9 112.298 100.5 111.398 100.3 110.198C100.1 108.998 100.3 107.598 101.3 106.498C101.4 105.698 101.9 104.998 102.4 104.598C102.9 104.098 103.5 103.798 104.1 103.598C105.9 102.998 107.4 102.298 109 101.598C110.6 100.898 112.2 100.198 113.8 99.6984C117.1 98.6984 120.2 97.4984 123.5 96.4984C124.1 96.2984 124.4 95.7984 125.2 95.8984C125.9 95.8984 126.6 95.4984 127.3 95.2984C128 95.0984 128.6 94.7984 129.3 94.6984C132 94.5984 134.5 93.4984 137.2 92.8984C139.8 92.2984 142.4 91.7984 145 91.1984C146.6 90.7984 148.1 90.1984 149.8 90.0984C150.5 90.0984 151.2 89.5984 152 90.0984C152.2 90.1984 152.8 89.6984 153.3 89.6984C154.4 89.4984 155.6 89.4984 156.7 89.3984C158.3 89.2984 159.9 89.3984 161.4 89.1984C162.4 89.1984 163.3 88.8984 164.3 88.8984C164.8 88.8984 165.5 88.8984 166.2 89.0984C166.9 89.2984 167.8 89.5984 168.6 90.2984C169.5 91.0984 170 92.0984 170.3 92.9984C170.6 93.8984 170.6 94.6984 170.7 95.3984C170.7 96.1984 170.9 96.7984 170.9 97.4984C170.9 98.1984 171 98.7984 170.9 99.4984C170.5 101.898 170.8 104.198 170.6 106.498C170.4 108.798 170.2 111.098 170 113.498C170 114.798 169.2 115.898 169 117.198C168.9 117.798 167.3 118.298 166.8 117.998C166.8 117.998 166.6 117.798 166.6 117.698C166.4 116.398 165.8 115.198 166.1 113.798C166.5 111.798 166.6 109.798 166.7 107.698H166.6Z" fill="black"/>
<path d="M165.199 118.001C164.499 118.001 163.899 118.001 163.199 118.201C162.999 118.201 162.699 118.001 162.499 118.601C162.399 118.901 162.099 118.301 161.899 118.301C161.299 118.401 160.699 118.301 160.099 118.501C159.499 118.601 158.899 118.901 158.299 119.001C157.699 119.101 157.099 118.901 156.499 119.201C155.999 119.501 155.499 119.001 155.099 119.201C154.599 119.401 154.099 119.501 153.599 119.201C153.199 119.101 152.899 118.901 152.499 119.001C152.299 119.001 152.099 119.401 151.899 119.401C151.699 119.401 151.399 119.101 151.299 119.801C151.299 119.801 151.199 119.801 151.099 119.701C150.799 119.301 150.499 119.401 150.399 119.701C150.199 120.001 149.999 120.001 149.899 120.001C149.399 120.001 148.899 120.101 148.399 120.101C147.999 120.101 147.599 119.901 147.199 119.801C146.799 119.801 146.399 120.101 145.999 119.801C145.599 119.501 145.299 119.601 144.899 119.601C144.699 119.601 144.399 119.301 144.299 120.001C144.299 120.001 144.299 120.001 144.199 120.001C143.599 119.201 143.099 120.301 142.499 120.201C141.899 120.001 141.299 120.201 140.699 120.201C140.499 120.201 140.299 120.001 140.199 120.501C140.199 120.701 139.999 120.701 139.899 120.501C139.399 119.901 138.999 120.301 138.499 120.201C137.999 120.201 137.499 120.401 136.899 120.001C136.699 119.801 136.299 119.701 136.099 120.301C135.999 120.601 135.699 120.301 135.499 120.401C135.299 120.401 135.199 120.701 135.099 120.801C134.999 120.801 134.799 120.601 134.699 120.501C134.699 120.501 134.699 120.501 134.599 120.501C133.899 121.201 132.999 120.401 132.299 120.601C131.499 120.801 130.699 120.801 129.899 120.801C129.499 120.801 128.999 120.601 128.599 119.501C128.399 119.001 128.399 118.401 128.599 118.101C128.699 117.901 128.899 117.601 128.999 117.501C129.199 117.401 129.499 117.201 129.699 117.101C130.199 116.901 130.599 116.301 131.199 116.501C131.399 116.501 131.499 116.301 131.699 116.801C131.699 116.801 131.699 116.901 131.799 116.801C132.399 116.001 133.199 116.401 133.899 116.301C134.499 116.301 134.999 115.501 135.699 115.801C135.999 115.101 136.399 115.201 136.699 115.401C137.899 116.001 139.099 115.401 140.299 115.401C141.499 115.401 142.699 115.201 143.899 115.201C144.099 115.201 144.299 114.801 144.499 115.101C144.699 115.301 144.999 115.101 145.299 115.101C145.499 115.101 145.799 114.901 145.999 115.101C146.999 115.701 147.899 115.201 148.899 115.201C149.799 115.201 150.799 115.201 151.699 115.001C152.299 114.901 152.799 114.501 153.399 114.601C153.599 114.601 153.899 114.301 154.199 114.901C154.199 115.101 154.499 114.601 154.599 114.601C154.999 114.601 155.399 114.601 155.799 114.501C156.299 114.501 156.899 114.501 157.399 114.401C157.699 114.401 157.999 114.101 158.399 114.001C158.699 114.001 159.099 113.901 159.399 114.001C159.799 114.001 160.299 114.201 160.699 114.301C161.199 114.301 161.599 114.001 162.099 114.301C162.999 114.801 163.699 114.401 164.599 114.401C165.399 114.401 166.199 114.401 166.999 114.201C167.499 114.101 167.899 114.601 168.399 114.501C168.599 114.501 168.999 115.901 168.899 116.401V116.601C168.499 117.101 168.099 117.901 167.599 117.801C166.899 117.801 166.099 117.801 165.399 117.901L165.199 118.001Z" fill="black"/>
<path d="M119.601 177.698C119.801 177.498 119.901 177.198 120.001 176.898C120.001 176.798 120.301 176.898 119.901 176.498C119.701 176.298 120.301 176.498 120.301 176.498C120.301 176.198 120.601 175.998 120.601 175.698C120.601 175.398 120.601 175.098 120.601 174.798C120.601 174.498 121.001 174.398 120.801 173.998C120.601 173.698 121.201 173.698 121.101 173.398C121.101 173.098 121.101 172.898 121.401 172.698C121.601 172.598 121.901 172.498 121.801 172.298C121.801 172.198 121.501 171.998 121.601 171.898C121.601 171.898 122.001 171.798 121.401 171.498C121.401 171.498 121.401 171.498 121.601 171.498C122.001 171.498 122.101 171.398 121.801 171.198C121.601 170.998 121.601 170.898 121.701 170.898C121.701 170.598 121.801 170.398 122.001 170.198C122.101 169.998 122.401 169.898 122.501 169.798C122.601 169.598 122.501 169.298 122.801 169.298C123.201 169.298 123.201 169.098 123.301 168.898C123.301 168.898 123.701 168.898 123.101 168.498C124.001 168.498 123.101 167.898 123.401 167.698C123.701 167.498 123.701 167.098 123.801 166.798C123.801 166.798 124.001 166.798 123.601 166.498C123.501 166.498 123.501 166.298 123.601 166.298C124.301 166.298 124.001 165.998 124.201 165.798C124.401 165.598 124.201 165.198 124.801 165.198C125.001 165.198 125.201 165.098 124.801 164.698C124.601 164.498 124.801 164.498 124.801 164.398C124.801 164.398 124.601 164.098 124.601 163.998C124.601 163.998 124.901 163.998 125.001 163.998C124.601 163.298 125.601 163.398 125.601 162.998C125.601 162.598 125.901 162.198 126.201 161.898C126.401 161.698 126.601 161.598 127.701 162.098C128.201 162.298 128.701 162.598 128.901 162.798C129.101 162.998 129.201 163.198 129.201 163.298C129.201 163.498 129.201 163.598 129.301 163.798C129.301 164.098 129.701 164.598 129.301 164.698C129.201 164.698 129.401 164.998 128.901 164.698C129.401 165.398 128.901 165.398 128.701 165.798C128.701 166.098 129.001 166.598 128.701 166.698C129.201 167.098 129.001 167.198 128.701 167.298C127.801 167.498 128.001 168.198 127.701 168.698C127.401 169.198 127.201 169.798 127.001 170.298C127.001 170.298 127.301 170.598 127.001 170.598C126.701 170.598 126.901 170.798 126.801 170.898C126.801 170.998 126.801 171.198 126.701 171.198C125.901 171.398 126.101 171.998 125.901 172.398C125.701 172.798 125.501 173.198 125.401 173.698C125.401 173.998 125.601 174.398 125.401 174.598C125.401 174.598 125.601 174.898 125.001 174.898C124.801 174.898 125.201 175.098 125.201 175.198C125.201 175.398 125.101 175.598 125.001 175.798C124.901 176.098 124.801 176.298 124.701 176.598C124.701 176.798 124.801 176.998 124.801 177.198C124.801 177.398 124.801 177.598 124.601 177.698C124.401 177.898 124.101 177.998 124.001 178.198C123.801 178.398 124.001 178.798 123.601 178.798C122.901 178.998 122.901 179.498 122.601 179.798C122.301 180.198 122.001 180.498 121.801 180.898C121.801 181.198 121.201 180.998 121.001 181.198C121.001 181.198 119.701 180.398 119.401 180.098C119.401 180.098 119.301 179.998 119.201 179.898C119.001 179.398 118.501 178.798 118.701 178.698C118.901 178.498 119.101 178.198 119.301 177.898L119.601 177.698Z" fill="black"/>
</svg>
