<svg width="300" height="300" viewBox="0 0 300 300" fill="none" xmlns="http://www.w3.org/2000/svg">
<path d="M183.701 140.601C183.301 140.101 182.901 139.601 182.401 139.201C182.201 139.001 182.201 138.701 181.701 138.901C181.401 138.901 181.701 138.401 181.601 138.201C181.101 137.801 180.801 137.301 180.301 136.901C179.901 136.501 179.301 136.201 178.901 135.901C178.501 135.501 178.301 134.901 177.701 134.701C177.201 134.501 177.201 133.901 176.801 133.601C176.401 133.301 176.001 133.001 175.801 132.501C175.701 132.101 175.601 131.701 175.301 131.501C175.101 131.401 174.701 131.501 174.601 131.301C174.501 131.101 174.501 130.801 173.901 131.001C173.901 131.001 173.901 130.901 173.901 130.801C174.001 130.301 173.901 130.201 173.501 130.201C173.201 130.201 173.101 130.101 172.901 130.001C172.501 129.701 172.201 129.301 171.901 128.901C171.701 128.601 171.601 128.201 171.401 127.901C171.201 127.601 170.701 127.501 170.701 127.001C170.701 126.501 170.401 126.301 170.201 126.001C170.101 125.901 170.201 125.501 169.501 125.801C169.701 124.801 168.501 125.201 168.301 124.601C168.101 124.001 167.501 123.701 167.101 123.301C167.001 123.201 167.101 122.901 166.601 123.101C166.401 123.101 166.301 123.101 166.301 122.901C166.501 122.101 165.901 122.101 165.601 121.701C165.301 121.201 164.801 121.101 164.801 120.301C164.801 120.001 164.701 119.701 164.101 119.901C163.801 119.901 163.801 119.601 163.701 119.501C163.601 119.501 163.301 119.501 163.101 119.401C163.101 119.401 163.101 119.101 163.101 118.901C162.101 118.901 162.301 117.701 161.601 117.401C161.001 117.101 160.501 116.601 160.101 116.201C159.801 116.001 159.701 115.601 160.001 114.501C160.101 114.001 160.401 113.501 160.701 113.301C160.901 113.201 161.201 113.001 161.401 113.101C161.701 113.101 162.001 113.101 162.201 113.301C162.801 113.401 163.501 113.301 163.801 114.001C163.801 114.201 164.201 114.001 164.001 114.601V114.701C165.101 114.701 165.301 115.501 165.801 116.001C166.301 116.401 167.101 116.401 167.301 117.001C168.001 116.801 168.201 117.201 168.201 117.501C168.501 118.801 169.601 119.301 170.301 120.301C171.001 121.201 171.901 122.001 172.701 122.901C172.801 123.101 173.201 122.901 173.201 123.301C173.201 123.601 173.501 123.701 173.701 123.901C173.901 124.101 174.101 124.201 174.201 124.401C174.301 125.501 175.301 125.901 175.801 126.701C176.401 127.401 177.001 128.101 177.701 128.701C178.201 129.001 178.801 129.201 179.101 129.701C179.201 129.901 179.601 129.901 179.401 130.401C179.401 130.601 179.801 130.401 179.901 130.501C180.201 130.701 180.401 131.101 180.701 131.301C181.101 131.701 181.401 132.101 181.801 132.501C182.001 132.701 182.401 132.801 182.701 133.001C183.001 133.201 183.201 133.501 183.401 133.701C183.601 134.101 183.801 134.501 184.001 134.901C184.301 135.301 184.801 135.401 184.901 135.901C185.101 136.801 185.801 137.201 186.301 137.901C186.801 138.501 187.301 139.101 187.901 139.601C188.301 139.901 188.201 140.501 188.501 140.801C188.601 140.901 187.801 142.201 187.301 142.401H187.101C186.501 142.401 185.701 142.601 185.401 142.201C185.001 141.601 184.401 141.101 183.901 140.601H183.701Z" fill="black"/>
<path d="M114.401 137.801C114.401 138.701 114.401 139.601 114.401 140.501C114.401 140.801 114.201 141.201 114.701 141.501C115.001 141.701 114.301 142.001 114.401 142.301C114.401 143.101 114.401 144.001 114.601 144.801C114.701 145.601 115.001 146.401 115.101 147.201C115.201 148.001 115.001 148.801 115.401 149.601C115.701 150.201 115.301 150.901 115.401 151.501C115.601 152.201 115.701 152.901 115.601 153.501C115.501 154.001 115.301 154.501 115.501 155.001C115.601 155.301 116.001 155.501 116.001 155.901C116.001 156.201 115.801 156.601 116.401 156.801C116.401 156.801 116.401 157.001 116.301 157.001C115.901 157.401 116.001 157.801 116.301 158.001C116.601 158.201 116.601 158.501 116.601 158.701C116.701 159.401 116.801 160.101 116.901 160.701C116.901 161.201 116.801 161.801 116.801 162.301C116.801 162.801 117.201 163.401 117.001 163.901C116.801 164.401 116.901 164.901 117.001 165.401C117.001 165.701 116.801 166.001 117.501 166.201C117.501 166.201 117.501 166.301 117.501 166.401C116.801 167.301 118.001 167.901 117.901 168.701C117.901 169.501 118.101 170.401 118.301 171.201C118.301 171.401 118.301 171.701 118.701 171.801C118.901 171.801 118.901 172.101 118.801 172.201C118.301 172.901 118.801 173.501 118.801 174.101C118.801 174.801 119.201 175.501 118.801 176.301C118.701 176.601 118.601 177.101 119.301 177.301C119.601 177.401 119.301 177.801 119.501 178.101C119.501 178.301 119.901 178.501 119.901 178.701C119.901 178.901 119.701 179.101 119.701 179.301C119.701 179.301 119.701 179.401 119.701 179.501C120.501 180.401 119.901 181.601 120.201 182.601C120.601 183.601 120.701 184.701 120.801 185.801C120.801 186.401 120.801 187.001 119.701 187.601C119.201 187.901 118.701 188.001 118.301 187.801C118.001 187.701 117.801 187.501 117.701 187.301C117.501 187.001 117.401 186.701 117.201 186.401C116.901 185.801 116.201 185.201 116.401 184.401C116.401 184.201 116.101 184.001 116.601 183.701C116.601 183.701 116.601 183.601 116.601 183.501C115.601 182.701 116.001 181.601 115.701 180.701C115.501 179.901 114.701 179.201 114.801 178.401C114.101 178.101 114.101 177.501 114.201 177.001C114.601 175.301 113.801 173.701 113.601 172.101C113.401 170.401 113.001 168.801 112.801 167.201C112.801 166.901 112.401 166.701 112.601 166.401C112.801 166.101 112.601 165.701 112.501 165.301C112.501 165.001 112.301 164.601 112.401 164.301C112.901 162.901 112.301 161.701 112.201 160.401C112.201 159.101 112.001 157.801 111.701 156.501C111.501 155.701 111.101 155.001 111.101 154.201C111.101 153.901 110.701 153.501 111.301 153.101C111.501 153.001 111.001 152.701 110.901 152.501C110.801 152.001 110.801 151.401 110.701 150.901C110.701 150.101 110.701 149.401 110.501 148.601C110.501 148.101 110.101 147.701 110.001 147.201C109.901 146.701 109.901 146.201 110.001 145.701C110.001 145.101 110.201 144.501 110.201 143.801C110.201 143.201 109.901 142.501 110.201 141.901C110.701 140.701 110.401 139.601 110.401 138.501C110.401 137.401 110.401 136.201 110.401 135.101C110.401 134.501 110.801 133.901 110.901 133.301C110.901 133.001 112.401 132.701 112.901 132.801C112.901 132.801 113.101 132.801 113.101 132.901C113.601 133.501 114.301 134.101 114.201 134.801C114.201 135.801 114.201 136.801 114.201 137.801H114.401Z" fill="black"/>
<path d="M166.101 147.302C166.501 147.102 166.801 147.002 167.201 146.702C167.301 146.702 167.601 146.702 167.501 146.202C167.501 145.902 167.901 146.402 168.001 146.402C168.301 146.202 168.701 146.102 169.001 145.902C169.301 145.702 169.501 145.302 169.801 145.102C170.101 144.902 170.601 145.102 170.801 144.602C171.001 144.202 171.401 144.602 171.601 144.302C171.801 144.102 172.101 143.902 172.501 144.002C172.801 144.002 173.101 144.202 173.201 144.002C173.201 143.902 173.201 143.502 173.401 143.502C173.501 143.502 173.801 143.702 173.701 143.002C173.701 143.002 173.701 143.002 173.901 143.002C174.201 143.302 174.401 143.202 174.401 143.002C174.401 142.702 174.501 142.702 174.601 142.602C174.901 142.502 175.201 142.302 175.501 142.302C175.701 142.302 176.001 142.302 176.301 142.302C176.501 142.302 176.701 141.902 177.001 142.102C177.301 142.302 177.501 142.202 177.701 142.102C177.801 142.102 178.101 142.302 177.901 141.602C178.501 142.302 178.501 141.102 178.901 141.202C179.301 141.202 179.601 141.002 180.001 140.902C180.001 140.902 180.301 141.002 180.201 140.502C180.201 140.302 180.201 140.302 180.401 140.402C180.901 140.902 181.001 140.402 181.301 140.402C181.601 140.402 181.901 140.002 182.301 140.402C182.501 140.602 182.701 140.602 182.701 140.002C182.701 139.702 182.901 140.002 183.001 139.802C183.001 139.802 183.001 139.402 183.201 139.402C183.201 139.402 183.401 139.602 183.501 139.702C183.801 138.902 184.501 139.702 184.901 139.302C185.301 139.002 185.801 138.902 186.301 138.902C186.601 138.902 186.901 138.902 187.401 140.002C187.601 140.502 187.801 141.002 187.701 141.402C187.701 141.702 187.701 141.902 187.601 142.002C187.501 142.102 187.401 142.302 187.301 142.402C187.101 142.702 186.901 143.302 186.601 143.102C186.501 143.102 186.501 143.402 186.201 142.902C186.001 143.802 185.501 143.402 185.101 143.602C184.801 143.802 184.601 144.502 184.201 144.302C184.201 145.002 184.001 144.902 183.701 144.802C182.801 144.402 182.301 145.002 181.601 145.202C180.901 145.302 180.301 145.702 179.601 145.902C179.501 145.902 179.601 146.302 179.301 146.102C179.101 145.902 179.001 146.102 178.801 146.202C178.701 146.202 178.601 146.402 178.401 146.302C177.601 145.902 177.301 146.502 176.701 146.602C176.201 146.702 175.601 146.902 175.201 147.302C174.901 147.502 174.801 148.002 174.401 148.002C174.201 148.002 174.201 148.402 173.901 147.902C173.801 147.802 173.901 148.202 173.801 148.302C173.601 148.402 173.401 148.502 173.201 148.602C172.901 148.702 172.601 148.802 172.301 149.002C172.101 149.102 172.101 149.402 171.901 149.602C171.701 149.702 171.601 149.802 171.301 149.902C171.001 149.902 170.701 149.902 170.401 149.902C170.101 149.902 170.001 150.302 169.601 150.202C168.901 150.002 168.601 150.402 168.201 150.602C167.701 150.802 167.301 150.902 166.901 151.302C166.701 151.502 166.201 151.202 166.001 151.302C165.901 151.302 165.101 150.102 164.901 149.702V149.502C164.901 149.002 164.801 148.202 165.101 148.102C165.501 148.002 165.901 147.702 166.301 147.502L166.101 147.302Z" fill="black"/>
<path d="M168.602 166.202C168.602 165.902 168.502 165.502 168.302 165.202C168.302 165.102 168.502 164.902 167.902 164.902C167.602 164.902 168.202 164.602 168.202 164.502C168.102 164.202 168.102 163.902 167.902 163.602C167.802 163.302 167.502 163.102 167.302 162.802C167.202 162.502 167.302 162.102 167.002 161.902C166.702 161.702 167.102 161.402 167.002 161.202C166.802 161.002 166.702 160.702 166.802 160.402C166.902 160.202 167.102 160.002 166.902 159.802C166.902 159.802 166.502 159.702 166.502 159.602C166.502 159.502 166.702 159.302 166.102 159.302C166.102 159.302 166.102 159.302 166.202 159.202C166.602 159.002 166.502 158.802 166.202 158.802C165.902 158.802 165.902 158.702 165.902 158.602C165.902 158.402 165.702 158.102 165.702 157.902C165.702 157.702 165.902 157.502 165.902 157.302C165.902 157.102 165.602 157.002 165.902 156.702C166.202 156.402 166.102 156.302 166.002 156.102C166.002 156.102 166.202 155.802 165.602 155.902C166.302 155.402 165.202 155.402 165.302 155.102C165.402 154.802 165.302 154.502 165.102 154.202C165.102 154.202 165.202 154.002 164.802 154.002C164.602 154.002 164.602 154.002 164.702 153.902C165.202 153.502 164.802 153.402 164.902 153.102C164.902 152.802 164.602 152.602 164.902 152.202C165.102 152.002 165.102 151.902 164.502 151.902C164.202 151.902 164.502 151.702 164.402 151.602C164.402 151.602 164.002 151.602 164.002 151.502C164.002 151.502 164.202 151.302 164.302 151.202C163.602 151.002 164.302 150.402 164.002 150.102C163.702 149.802 163.702 149.402 163.602 149.002C163.602 148.802 163.602 148.502 164.702 148.002C165.202 147.802 165.702 147.602 166.002 147.602C166.202 147.602 166.502 147.602 166.602 147.602C166.702 147.602 166.902 147.802 167.002 147.902C167.302 148.102 167.902 148.202 167.702 148.502C167.702 148.602 168.002 148.602 167.502 148.802C168.402 148.902 168.002 149.402 168.102 149.802C168.202 150.102 168.902 150.202 168.702 150.602C169.402 150.602 169.302 150.802 169.202 151.002C168.702 151.802 169.302 152.202 169.402 152.902C169.402 153.502 169.702 154.102 169.802 154.702C169.802 154.802 170.202 154.802 170.002 155.002C169.802 155.202 170.002 155.302 170.002 155.402C170.002 155.502 170.202 155.602 170.002 155.802C169.502 156.402 170.002 156.802 170.002 157.302C170.002 157.802 170.002 158.302 170.402 158.702C170.602 159.002 171.002 159.202 170.902 159.502C170.902 159.602 171.202 159.702 170.702 159.902C170.502 159.902 171.002 159.902 171.102 160.102C171.102 160.302 171.202 160.502 171.302 160.702C171.302 161.002 171.302 161.302 171.502 161.502C171.502 161.702 171.902 161.802 172.002 161.902C172.102 162.102 172.102 162.202 172.102 162.402C172.102 162.602 171.902 162.902 171.902 163.102C171.902 163.302 172.202 163.502 172.002 163.802C171.602 164.302 172.002 164.702 172.002 165.102C172.002 165.502 172.102 165.902 172.302 166.302C172.402 166.502 172.002 166.802 172.102 167.102C172.102 167.102 170.702 167.702 170.202 167.802H170.002C169.502 167.802 168.702 167.802 168.702 167.402C168.702 167.002 168.502 166.702 168.402 166.302L168.602 166.202Z" fill="black"/>
<path d="M162.2 186.203C162.3 185.803 162.5 185.403 162.5 185.003C162.5 184.803 162.8 184.803 162.4 184.503C162.2 184.303 162.8 184.403 162.8 184.203C162.8 183.803 163.1 183.503 163.1 183.103C163.1 182.703 163.1 182.303 163.1 181.903C163.1 181.503 163.6 181.303 163.4 180.803C163.2 180.403 163.8 180.303 163.8 180.003C163.8 179.703 163.8 179.303 164.1 179.103C164.3 178.903 164.6 178.803 164.6 178.603C164.6 178.403 164.3 178.203 164.4 178.103C164.4 178.003 164.8 177.903 164.2 177.603C164.2 177.603 164.2 177.603 164.4 177.603C164.8 177.603 164.9 177.403 164.6 177.203C164.4 177.003 164.5 176.903 164.5 176.803C164.5 176.503 164.6 176.203 164.8 175.903C164.9 175.703 165.2 175.603 165.4 175.403C165.5 175.203 165.4 174.903 165.7 174.703C166.1 174.603 166.1 174.403 166.2 174.203C166.2 174.103 166.6 174.003 166 173.703C166.9 173.703 166 173.003 166.3 172.703C166.6 172.403 166.6 172.003 166.7 171.703C166.7 171.703 166.9 171.603 166.5 171.303C166.4 171.303 166.4 171.103 166.5 171.103C167.2 171.103 166.9 170.603 167.1 170.403C167.3 170.103 167.1 169.703 167.7 169.603C167.9 169.603 168.1 169.403 167.6 169.103C167.4 168.903 167.6 168.903 167.6 168.803C167.6 168.703 167.3 168.503 167.4 168.403C167.4 168.403 167.7 168.403 167.8 168.303C167.3 167.703 168.3 167.503 168.2 167.003C168.2 166.703 168.2 166.603 168.2 166.303C168.2 166.003 168.4 165.703 168.6 165.303C168.8 164.903 169.3 164.503 170.4 165.103C170.9 165.303 171.3 165.703 171.5 166.003C171.6 166.203 171.8 166.403 171.8 166.503C171.8 166.603 171.9 166.803 172 166.903C172.1 167.103 172.6 167.403 172.2 167.703C172.1 167.703 172.3 168.003 171.8 167.903C172.5 168.503 171.8 168.903 171.8 169.303C171.8 169.703 172.2 170.203 171.8 170.503C172.3 170.903 172.2 171.103 171.9 171.203C171 171.703 171.2 172.503 170.9 173.203C170.6 173.903 170.4 174.603 170.1 175.303C170.1 175.403 170.4 175.603 170.1 175.703C169.8 175.703 169.9 176.003 169.9 176.103C169.9 176.203 169.9 176.403 169.7 176.503C168.9 176.803 169.1 177.503 168.8 178.003C168.5 178.503 168.3 179.003 168.3 179.603C168.3 180.003 168.5 180.403 168.3 180.703C168.2 180.803 168.5 181.103 167.9 181.003C167.7 181.003 168.1 181.303 168.1 181.403C168.1 181.603 168 181.903 167.9 182.103C167.8 182.403 167.6 182.703 167.6 183.103C167.6 183.303 167.7 183.603 167.7 183.803C167.7 184.003 167.7 184.203 167.5 184.403C167.3 184.603 167.1 184.803 166.9 185.103C166.8 185.303 166.9 185.703 166.6 185.903C166 186.203 166.1 186.803 165.9 187.203C165.7 187.603 165.5 188.103 165.5 188.603C165.5 188.903 165 189.003 164.9 189.203C164.9 189.303 163.4 189.203 162.9 189.003H162.7C162.3 188.603 161.7 188.203 161.8 187.903C162 187.403 162.1 187.003 162.2 186.503V186.203Z" fill="black"/>
<path d="M157.6 168.101C157.5 167.801 157.4 167.601 157.2 167.401C157.2 167.401 157.2 167.101 156.8 167.401C156.6 167.501 157 167.101 156.9 167.001C156.7 166.801 156.6 166.601 156.3 166.501C156.1 166.401 155.7 166.401 155.5 166.301C155.3 166.301 155.2 165.901 154.9 166.101C154.6 166.301 154.6 165.801 154.4 165.801C154.2 165.801 154 165.801 153.8 165.601C153.7 165.401 153.6 165.201 153.4 165.301C153.3 165.301 153.2 165.701 153.1 165.701C153.1 165.701 152.9 165.401 152.8 166.001C152.8 166.001 152.8 166.001 152.8 165.901C152.7 165.501 152.6 165.501 152.5 165.901C152.5 166.201 152.4 166.101 152.3 166.201C152.1 166.201 152 166.301 151.8 166.301C151.7 166.301 151.5 166.101 151.3 166.101C151.1 166.101 151.1 166.401 150.8 166.201C150.5 166.001 150.4 166.201 150.3 166.201C150.3 166.201 150 166.101 150.3 166.601C149.6 166.101 150.1 167.101 149.8 167.101C149.5 167.101 149.4 167.401 149.2 167.701C149.2 167.701 149 167.701 149.2 168.001C149.3 168.101 149.2 168.201 149.2 168.101C148.6 167.901 148.8 168.301 148.6 168.401C148.4 168.501 148.6 168.901 148 168.901C147.8 168.901 147.6 169.001 148 169.401C148.2 169.601 148 169.601 148 169.701L148.2 170.001C148.2 170.001 147.9 170.001 147.8 170.001C148.3 170.601 147.4 170.601 147.4 171.101C147.4 171.501 147.4 171.901 147.2 172.301C147.2 172.501 146.9 172.701 145.7 172.701C145.2 172.701 144.6 172.701 144.3 172.501C144.1 172.401 143.9 172.301 143.8 172.201C143.8 172.001 143.6 171.901 143.5 171.701C143.4 171.401 142.9 170.901 143.2 170.701C143.3 170.701 143 170.401 143.6 170.501C142.9 169.901 143.6 169.501 143.6 169.101C143.6 168.701 143.2 168.101 143.6 167.801C143.1 167.301 143.3 167.101 143.6 167.001C144.6 166.501 144.6 165.601 145.3 165.001C145.9 164.401 146.5 163.701 147.2 163.201C147.3 163.201 147.2 162.701 147.5 162.901C147.8 163.001 147.9 162.701 148 162.601C148.2 162.601 148.3 162.301 148.5 162.401C149.4 162.701 149.9 162.101 150.7 162.001C151.4 162.001 152.1 162.001 152.8 161.701C153.2 161.701 153.7 161.301 154.1 161.501C154.3 161.501 154.5 161.301 154.6 161.901C154.6 162.101 154.9 161.701 155 161.701C155.3 161.701 155.6 161.901 155.9 162.001C156.3 162.201 156.7 162.401 157.1 162.501C157.3 162.501 157.7 162.501 158 162.601C158.3 162.701 158.5 162.901 158.7 163.101C158.9 163.401 159 163.801 159.2 164.101C159.4 164.401 159.9 164.501 159.8 165.001C159.8 165.801 160.3 166.201 160.5 166.701C160.7 167.301 160.9 167.801 161.1 168.401C161.3 168.701 160.8 169.101 160.9 169.401C160.9 169.601 159.5 169.901 159 169.901H158.8C158.3 169.701 157.6 169.701 157.6 169.401C157.6 169.101 157.5 168.801 157.3 168.501L157.6 168.101Z" fill="black"/>
<path d="M149.501 137.402C149.301 137.602 149.001 137.702 148.901 137.902C148.901 137.902 148.601 137.902 148.901 138.302C149.001 138.502 148.501 138.102 148.501 138.202C148.301 138.402 148.101 138.502 147.901 138.702C147.801 138.902 147.701 139.202 147.601 139.402C147.501 139.602 147.101 139.602 147.101 140.002C147.101 140.302 146.701 140.102 146.601 140.302C146.601 140.502 146.401 140.702 146.101 140.702C145.901 140.702 145.601 140.702 145.601 140.802C145.601 140.902 145.701 141.202 145.601 141.302C145.601 141.302 145.301 141.302 145.601 141.702C145.601 141.702 145.601 141.702 145.401 141.702C145.001 141.502 145.001 141.602 145.101 141.902C145.201 142.102 145.101 142.202 145.101 142.202C145.001 142.402 144.901 142.502 144.701 142.702C144.601 142.702 144.301 142.702 144.101 142.802C143.901 142.802 144.101 143.202 143.701 143.102C143.401 143.102 143.301 143.102 143.201 143.202C143.201 143.202 142.901 143.202 143.201 143.602C142.401 143.202 143.101 144.102 142.801 144.202C142.501 144.202 142.401 144.602 142.301 144.802C142.301 144.802 142.101 144.802 142.301 145.102C142.401 145.202 142.301 145.302 142.301 145.202C141.701 145.002 141.901 145.402 141.701 145.402C141.501 145.502 141.601 145.902 141.001 145.702C140.801 145.702 140.601 145.702 141.001 146.102C141.201 146.302 141.001 146.202 141.001 146.302C141.001 146.302 141.201 146.602 141.201 146.702C141.201 146.702 140.901 146.702 140.801 146.702C141.201 147.302 140.201 147.102 140.201 147.502C140.201 147.902 139.901 148.102 139.701 148.302C139.601 148.402 139.301 148.502 138.301 148.002C137.801 147.802 137.401 147.502 137.101 147.202C136.901 147.002 136.801 146.802 136.801 146.802C136.801 146.702 136.801 146.502 136.801 146.302C136.801 146.002 136.401 145.502 136.801 145.502C136.901 145.502 136.801 145.202 137.201 145.502C136.701 144.802 137.301 144.802 137.501 144.502C137.601 144.302 137.301 143.702 137.601 143.602C137.201 143.102 137.401 143.002 137.601 143.002C138.501 143.002 138.401 142.302 138.801 141.902C139.201 141.502 139.501 141.002 139.901 140.602C139.901 140.602 139.701 140.202 140.001 140.302C140.301 140.302 140.201 140.202 140.301 140.102C140.301 140.102 140.301 139.802 140.501 139.902C141.301 140.002 141.301 139.402 141.601 139.202C141.901 138.902 142.301 138.702 142.501 138.302C142.601 138.002 142.501 137.602 142.801 137.502C142.901 137.502 142.801 137.102 143.301 137.502C143.401 137.502 143.301 137.202 143.301 137.102C143.301 136.902 143.501 136.802 143.701 136.702C143.901 136.502 144.101 136.402 144.201 136.202C144.201 136.102 144.201 135.802 144.301 135.602C144.301 135.402 144.501 135.302 144.701 135.302C144.901 135.302 145.201 135.302 145.401 135.202C145.601 135.202 145.601 134.802 145.901 134.802C146.501 135.002 146.601 134.502 147.001 134.302C147.301 134.102 147.601 133.902 147.901 133.602C148.001 133.402 148.501 133.702 148.601 133.602C148.601 133.602 149.601 134.702 149.901 135.102C149.901 135.102 149.901 135.302 150.001 135.302C150.101 135.802 150.401 136.502 150.201 136.602C149.901 136.702 149.701 137.002 149.401 137.202L149.501 137.402Z" fill="black"/>
<path d="M139.601 134.201C139.801 134.401 139.901 134.701 140.101 134.801C140.101 134.801 140.101 135.101 140.501 134.801C140.701 134.701 140.3 135.201 140.4 135.201C140.6 135.401 140.7 135.601 140.9 135.801C141.1 135.901 141.401 136.001 141.701 136.101C141.901 136.201 141.901 136.601 142.301 136.601C142.601 136.601 142.401 137.001 142.601 137.101C142.801 137.101 143.001 137.301 143.001 137.601C143.001 137.801 143.001 138.101 143.101 138.101C143.201 138.101 143.501 138.001 143.601 138.101C143.601 138.101 143.601 138.401 144.001 138.101C144.001 138.101 144.001 138.101 144.001 138.301C143.801 138.701 143.901 138.701 144.201 138.601C144.401 138.501 144.501 138.601 144.501 138.601C144.701 138.701 144.801 138.801 145.001 139.001C145.001 139.101 145.001 139.401 145.101 139.601C145.101 139.801 145.5 139.601 145.4 140.001C145.4 140.301 145.401 140.401 145.501 140.501C145.501 140.501 145.5 140.801 145.9 140.501C145.5 141.301 146.401 140.601 146.501 140.901C146.501 141.201 146.901 141.301 147.101 141.401C147.101 141.401 147.1 141.601 147.4 141.401C147.5 141.301 147.601 141.401 147.501 141.401C147.301 142.001 147.701 141.801 147.701 142.001C147.801 142.201 148.201 142.101 148.001 142.701C148.001 142.901 148 143.101 148.4 142.701C148.6 142.501 148.501 142.701 148.601 142.701C148.601 142.701 148.901 142.501 149.001 142.501C149.001 142.501 149.001 142.801 149.001 142.901C149.601 142.501 149.401 143.501 149.801 143.501C150.201 143.501 150.401 143.801 150.601 144.001C150.701 144.101 150.801 144.401 150.301 145.401C150.101 145.901 149.801 146.301 149.501 146.601C149.301 146.801 149.101 146.901 149.101 146.901C149.001 146.901 148.801 146.901 148.601 146.901C148.301 146.901 147.801 147.301 147.801 146.901C147.801 146.801 147.501 146.901 147.801 146.501C147.101 147.001 147.101 146.401 146.801 146.201C146.601 146.101 146 146.401 145.9 146.101C145.4 146.501 145.301 146.301 145.301 146.101C145.301 145.201 144.601 145.301 144.201 144.901C143.801 144.501 143.3 144.201 142.9 143.801C142.9 143.801 142.501 144.001 142.601 143.701C142.601 143.401 142.5 143.501 142.4 143.401C142.4 143.401 142.101 143.401 142.201 143.201C142.301 142.401 141.701 142.401 141.501 142.101C141.201 141.801 141.001 141.401 140.601 141.201C140.301 141.101 139.901 141.201 139.801 140.901C139.801 140.801 139.401 140.901 139.801 140.401C139.801 140.301 139.5 140.401 139.4 140.401C139.2 140.401 139.101 140.201 139.001 140.001C138.801 139.801 138.701 139.601 138.501 139.501C138.401 139.501 138.1 139.501 137.9 139.401C137.7 139.401 137.601 139.201 137.601 139.001C137.601 138.801 137.601 138.501 137.501 138.301C137.501 138.101 137.101 138.101 137.101 137.801C137.301 137.201 136.801 137.101 136.601 136.701C136.401 136.401 136.2 136.101 135.9 135.801C135.7 135.701 136 135.201 135.9 135.101C135.9 135.101 137 134.101 137.4 133.801C137.4 133.801 137.601 133.801 137.601 133.701C138.101 133.601 138.8 133.301 138.9 133.501C139 133.801 139.301 134.001 139.501 134.301L139.601 134.201Z" fill="black"/>
<path d="M168.501 134.402C168.301 134.602 168.001 134.702 167.901 134.902C167.901 134.902 167.601 134.902 167.901 135.302C168.001 135.502 167.501 135.102 167.501 135.202C167.301 135.402 167.101 135.502 166.901 135.702C166.801 135.902 166.701 136.202 166.601 136.402C166.501 136.602 166.101 136.602 166.101 137.002C166.101 137.302 165.701 137.102 165.601 137.302C165.601 137.502 165.401 137.702 165.101 137.702C164.901 137.702 164.601 137.702 164.601 137.802C164.601 137.902 164.701 138.202 164.601 138.302C164.601 138.302 164.301 138.302 164.601 138.702C164.601 138.702 164.601 138.702 164.401 138.702C164.001 138.502 164.001 138.602 164.101 138.902C164.201 139.102 164.101 139.202 164.101 139.202C164.001 139.402 163.901 139.502 163.701 139.702C163.601 139.702 163.301 139.702 163.101 139.802C162.901 139.802 163.101 140.202 162.701 140.102C162.401 140.102 162.301 140.102 162.201 140.202C162.201 140.202 161.901 140.202 162.201 140.602C161.401 140.202 162.101 141.102 161.801 141.202C161.501 141.202 161.401 141.602 161.301 141.802C161.301 141.802 161.101 141.802 161.301 142.102C161.401 142.202 161.301 142.302 161.301 142.202C160.701 142.002 160.901 142.402 160.701 142.402C160.501 142.502 160.601 142.902 160.001 142.702C159.801 142.702 159.601 142.702 160.001 143.102C160.201 143.302 160.001 143.202 160.001 143.302C160.001 143.302 160.201 143.602 160.201 143.702C160.201 143.702 159.901 143.702 159.801 143.702C160.201 144.302 159.201 144.102 159.201 144.502C159.201 144.902 158.901 145.102 158.701 145.302C158.601 145.402 158.301 145.502 157.301 145.002C156.801 144.802 156.401 144.502 156.101 144.202C155.901 144.002 155.801 143.802 155.801 143.802C155.801 143.702 155.801 143.502 155.801 143.302C155.801 143.002 155.401 142.502 155.801 142.502C155.901 142.502 155.801 142.202 156.201 142.502C155.701 141.802 156.301 141.802 156.501 141.502C156.601 141.302 156.301 140.702 156.601 140.602C156.201 140.102 156.401 140.002 156.601 140.002C157.501 140.002 157.401 139.302 157.801 138.902C158.201 138.502 158.501 138.002 158.901 137.602C158.901 137.602 158.701 137.202 159.001 137.302C159.301 137.302 159.201 137.202 159.301 137.102C159.301 137.102 159.301 136.802 159.501 136.902C160.301 137.002 160.301 136.402 160.601 136.202C160.901 135.902 161.301 135.702 161.501 135.302C161.601 135.002 161.501 134.602 161.801 134.502C161.901 134.502 161.801 134.102 162.301 134.502C162.401 134.502 162.301 134.202 162.301 134.102C162.301 133.902 162.501 133.802 162.701 133.702C162.901 133.502 163.101 133.402 163.201 133.202C163.201 133.102 163.201 132.802 163.301 132.602C163.301 132.402 163.501 132.302 163.701 132.302C163.901 132.302 164.201 132.302 164.401 132.202C164.601 132.202 164.601 131.802 164.901 131.802C165.501 132.002 165.601 131.502 166.001 131.302C166.301 131.102 166.601 130.902 166.901 130.602C167.001 130.402 167.501 130.702 167.601 130.602C167.601 130.602 168.601 131.702 168.901 132.102C168.901 132.102 168.901 132.302 169.001 132.302C169.101 132.802 169.401 133.502 169.201 133.602C168.901 133.702 168.701 134.002 168.401 134.202L168.501 134.402Z" fill="black"/>
<path d="M158.601 131.201C158.801 131.401 158.901 131.701 159.101 131.801C159.101 131.801 159.101 132.101 159.501 131.801C159.701 131.701 159.3 132.201 159.4 132.201C159.6 132.401 159.7 132.601 159.9 132.801C160.1 132.901 160.401 133.001 160.701 133.101C160.901 133.201 160.901 133.601 161.301 133.601C161.601 133.601 161.401 134.001 161.601 134.101C161.801 134.101 162.001 134.301 162.001 134.601C162.001 134.801 162.001 135.101 162.101 135.101C162.201 135.101 162.501 135.001 162.601 135.101C162.601 135.101 162.601 135.401 163.001 135.101C163.001 135.101 163.001 135.101 163.001 135.301C162.801 135.701 162.901 135.701 163.201 135.601C163.401 135.501 163.501 135.601 163.501 135.601C163.701 135.701 163.801 135.801 164.001 136.001C164.001 136.101 164.001 136.401 164.101 136.601C164.101 136.801 164.5 136.601 164.4 137.001C164.4 137.301 164.401 137.401 164.501 137.501C164.501 137.501 164.5 137.801 164.9 137.501C164.5 138.301 165.401 137.601 165.501 137.901C165.501 138.201 165.901 138.301 166.101 138.401C166.101 138.401 166.1 138.601 166.4 138.401C166.5 138.301 166.601 138.401 166.501 138.401C166.301 139.001 166.701 138.801 166.701 139.001C166.801 139.201 167.201 139.101 167.001 139.701C167.001 139.901 167 140.101 167.4 139.701C167.6 139.501 167.501 139.701 167.601 139.701C167.601 139.701 167.901 139.501 168.001 139.501C168.001 139.501 168.001 139.801 168.001 139.901C168.601 139.501 168.401 140.501 168.801 140.501C169.201 140.501 169.401 140.801 169.601 141.001C169.701 141.101 169.801 141.401 169.301 142.401C169.101 142.901 168.801 143.301 168.501 143.601C168.301 143.801 168.101 143.901 168.101 143.901C168.001 143.901 167.801 143.901 167.601 143.901C167.301 143.901 166.801 144.301 166.801 143.901C166.801 143.801 166.501 143.901 166.801 143.501C166.101 144.001 166.101 143.401 165.801 143.201C165.601 143.101 165 143.401 164.9 143.101C164.4 143.501 164.301 143.301 164.301 143.101C164.301 142.201 163.601 142.301 163.201 141.901C162.801 141.501 162.3 141.201 161.9 140.801C161.9 140.801 161.501 141.001 161.601 140.701C161.601 140.401 161.5 140.501 161.4 140.401C161.4 140.401 161.101 140.401 161.201 140.201C161.301 139.401 160.701 139.401 160.501 139.101C160.201 138.801 160.001 138.401 159.601 138.201C159.301 138.101 158.901 138.201 158.801 137.901C158.801 137.801 158.401 137.901 158.801 137.401C158.801 137.301 158.5 137.401 158.4 137.401C158.2 137.401 158.101 137.201 158.001 137.001C157.801 136.801 157.701 136.601 157.501 136.501C157.401 136.501 157.1 136.501 156.9 136.401C156.7 136.401 156.601 136.201 156.601 136.001C156.601 135.801 156.601 135.501 156.501 135.301C156.501 135.101 156.101 135.101 156.101 134.801C156.301 134.201 155.801 134.101 155.601 133.701C155.401 133.401 155.2 133.101 154.9 132.801C154.7 132.701 155 132.201 154.9 132.101C154.9 132.101 156 131.101 156.4 130.801C156.4 130.801 156.601 130.801 156.601 130.701C157.101 130.601 157.8 130.301 157.9 130.501C158 130.801 158.301 131.001 158.501 131.301L158.601 131.201Z" fill="black"/>
<path d="M162.5 116.598C161.5 116.898 160.5 117.198 159.6 117.598C159.2 117.698 158.8 117.598 158.6 118.298C158.6 118.598 157.9 118.098 157.6 118.298C156.7 118.698 155.8 118.898 154.9 119.298C154 119.698 153.2 120.198 152.4 120.598C151.6 120.998 150.5 121.098 149.8 121.698C149.2 122.198 148.3 121.998 147.7 122.398C147 122.798 146.3 123.198 145.5 123.198C144.9 123.198 144.3 123.198 143.8 123.598C143.5 123.798 143.3 124.198 143 124.298C142.7 124.398 142.2 124.298 142.1 124.998C142.1 124.998 141.9 124.998 141.8 124.998C141.3 124.798 140.9 124.998 140.7 125.398C140.5 125.798 140.3 125.798 140 125.998C139.3 126.298 138.6 126.698 137.8 126.898C137.2 127.098 136.6 127.098 136 127.298C135.4 127.498 134.9 127.998 134.3 127.998C133.7 127.998 133.2 128.198 132.6 128.398C132.3 128.498 131.8 128.398 131.9 129.098C131.9 129.098 131.8 129.198 131.7 129.098C130.5 128.698 130.2 130.098 129.2 130.298C128.3 130.498 127.4 131.098 126.6 131.498C126.4 131.598 126 131.498 126 132.098C126 132.298 125.8 132.398 125.6 132.398C124.7 132.098 124.2 132.798 123.5 133.098C122.7 133.398 122.1 133.998 121.1 133.898C120.7 133.898 120.2 133.898 120.1 134.698C120.1 134.998 119.6 134.998 119.3 135.198C119.1 135.398 119 135.698 118.8 135.798C118.6 135.898 118.3 135.798 118.1 135.798C118.1 135.798 118 135.798 117.9 135.798C117.1 136.898 115.6 136.698 114.6 137.498C113.6 138.198 112.5 138.798 111.3 139.298C110.7 139.598 110 139.798 109 138.998C108.6 138.698 108.3 138.198 108.4 137.698C108.4 137.398 108.6 137.098 108.8 136.898C109.1 136.598 109.4 136.298 109.7 135.998C110.3 135.398 110.7 134.598 111.6 134.398C111.9 134.398 112 133.898 112.4 134.298H112.6C113.2 133.098 114.5 132.998 115.4 132.398C116.2 131.898 116.8 130.898 117.7 130.698C117.9 129.898 118.5 129.698 119.1 129.598C121.1 129.298 122.6 128.098 124.3 127.298C126.1 126.498 127.8 125.598 129.5 124.898C129.8 124.798 129.9 124.298 130.4 124.398C130.8 124.398 131.2 124.098 131.6 123.898C132 123.698 132.3 123.398 132.7 123.398C134.3 123.398 135.6 122.398 137 121.898C138.4 121.398 139.8 120.798 141.1 120.098C141.9 119.698 142.6 118.998 143.5 118.798C143.9 118.798 144.1 118.198 144.7 118.598C144.9 118.698 145 118.198 145.3 117.998C145.9 117.698 146.5 117.498 147.1 117.298C147.9 116.998 148.8 116.698 149.5 116.298C150 116.098 150.4 115.698 150.9 115.398C151.4 115.098 151.9 114.998 152.5 114.798C153.2 114.598 153.9 114.598 154.6 114.398C155.3 114.198 155.9 113.698 156.7 113.698C158.1 113.698 159.2 113.098 160.5 112.698C161.7 112.298 163 111.998 164.2 111.498C164.9 111.198 165.7 111.498 166.3 111.298C166.6 111.198 167.5 112.498 167.5 112.998C167.5 112.998 167.5 113.198 167.5 113.298C167 113.998 166.6 114.798 165.8 114.998C164.7 115.298 163.6 115.698 162.4 116.098L162.5 116.598Z" fill="black"/>
<path d="M155.799 193.498C154.099 193.698 152.499 193.698 150.799 193.798C150.199 193.798 149.599 193.598 148.899 194.098C148.599 194.398 147.999 193.698 147.399 193.798C145.899 193.798 144.299 193.798 142.799 193.798C141.299 193.798 139.899 193.998 138.299 193.998C136.799 193.998 135.199 193.498 133.599 193.498C132.099 193.498 131.099 192.498 129.799 191.898C129.099 191.598 128.399 191.098 127.799 190.498C127.199 189.898 126.699 189.098 126.399 188.098C126.099 186.798 126.299 185.698 126.099 184.798C125.999 184.298 125.599 183.798 125.599 183.198C125.599 182.598 125.799 181.998 125.199 181.498C125.199 181.498 125.199 181.198 125.299 181.098C125.699 180.498 125.599 179.698 125.299 179.198C124.999 178.698 125.099 178.198 125.099 177.798C125.099 176.498 125.099 175.098 125.399 173.798C125.599 172.798 125.899 171.898 126.099 170.998C126.299 169.998 126.099 168.998 126.599 168.098C126.999 167.298 127.099 166.398 127.199 165.598C127.199 165.098 127.599 164.598 126.999 164.198C126.999 164.198 126.999 163.998 126.999 163.898C127.899 162.598 126.799 161.298 126.899 160.098C126.899 158.798 126.399 157.498 125.899 156.398C125.799 156.098 125.799 155.698 125.199 155.798C124.999 155.798 124.799 155.598 124.899 155.398C124.899 154.898 124.699 154.598 124.399 154.398C124.099 154.198 123.799 154.198 123.599 153.998C122.899 153.698 122.199 153.998 121.099 153.998C120.599 153.998 119.999 154.198 119.799 154.998C119.799 155.398 119.199 155.398 118.899 155.798C118.699 155.998 118.599 156.498 118.399 156.698C118.199 156.898 117.899 156.898 117.599 156.998C117.599 156.998 117.499 157.098 117.499 157.198C117.299 157.998 116.999 158.398 116.799 158.998C116.499 159.498 116.299 160.198 116.499 160.898C116.899 162.198 117.499 163.198 118.599 163.998C119.199 164.398 119.799 164.798 120.199 165.998C120.399 166.498 120.399 167.098 119.899 167.398C119.499 167.598 118.999 167.698 118.599 167.598C117.899 167.498 117.199 167.298 116.499 166.998C115.799 166.698 115.099 166.298 114.499 165.798C113.899 165.298 113.399 164.598 113.099 163.798C112.999 163.298 112.499 162.798 112.899 162.298C112.899 162.298 112.899 161.998 112.899 161.898C112.299 160.998 112.199 159.798 112.299 158.698C112.499 157.598 112.999 156.498 113.499 155.598C114.399 153.998 115.199 152.398 116.799 151.598C117.199 150.498 118.399 149.998 119.399 149.798C120.299 149.598 121.299 149.498 122.299 149.398C123.299 149.398 124.399 149.498 125.399 149.898C127.399 150.698 128.799 152.298 129.599 153.898C131.099 157.198 131.499 160.598 131.299 163.698C131.299 164.198 131.599 164.698 131.299 165.298C130.999 165.898 131.099 166.598 130.999 167.298C130.999 167.898 130.999 168.598 130.699 169.098C129.699 171.298 129.699 173.698 129.499 175.798C129.299 177.998 129.299 180.298 129.599 182.498C129.799 183.798 130.199 185.498 130.299 186.098C130.299 186.398 130.799 186.398 130.599 187.098C130.599 187.298 131.099 187.298 131.399 187.398C131.899 187.798 132.599 188.098 133.399 188.398C134.399 188.798 135.599 189.098 136.799 189.098C137.599 189.098 138.299 188.998 139.099 188.898C139.899 188.898 140.799 188.898 141.699 188.998C142.799 189.098 143.799 189.398 144.899 189.398C145.999 189.398 147.199 189.198 148.199 189.398C150.199 189.898 152.099 189.598 154.099 189.498C155.999 189.498 157.999 189.198 159.899 188.798C160.899 188.598 161.899 188.798 162.799 188.598V191.398C162.699 191.398 162.599 191.398 162.499 191.398C161.999 191.298 161.699 189.698 162.099 189.198C162.099 189.198 162.299 188.998 162.399 188.998C162.799 188.998 163.199 188.898 163.499 188.798L167.499 187.998L163.499 191.198C162.899 191.698 162.199 192.198 161.299 192.298C159.399 192.598 157.499 192.898 155.699 193.098L155.799 193.498Z" fill="black"/>
<path d="M164.7 152C164.3 152 163.8 152.1 163.4 152.3C163.3 152.3 163 152.2 163.1 152.8C163.1 153.1 162.7 152.6 162.6 152.7C162.3 152.9 161.8 153.1 161.4 153.4C161 153.7 160.7 154.2 160.3 154.5C159.9 154.9 159.2 154.9 158.8 155.5C158.4 156 157.8 155.7 157.3 156C156.8 156.3 156.1 156.5 155.4 156.3C154.9 156.1 154.5 155.9 154.1 155.9C153.8 155.9 153.5 156.2 153.3 156.1C153.1 156.1 152.9 155.7 152.5 156.1C152.5 156.1 152.5 156.1 152.4 155.9C152.4 155.4 152 155.4 151.8 155.5C151.5 155.7 151.4 155.5 151.2 155.5C150.8 155.4 150.4 155.2 150.1 155C149.9 154.9 149.7 154.5 149.5 154.4C149.3 154.3 149 154.5 148.9 154.2C148.7 153.9 148.5 153.9 148.3 153.9C148.2 153.9 148 153.6 147.9 154.3C147.5 153.5 147.2 154.6 146.8 154.5C146.4 154.4 146 154.7 145.6 154.8C145.5 154.8 145.3 154.8 145.4 155.2C145.4 155.4 145.4 155.4 145.2 155.3C144.6 154.9 144.5 155.3 144.1 155.4C143.7 155.4 143.4 155.9 142.8 155.7C142.5 155.7 142.3 155.7 142.4 156.3C142.4 156.6 142.1 156.5 142 156.6C142 156.7 142 157 141.9 157.1C141.9 157.1 141.6 157.1 141.5 157C141.4 157.9 140.4 157.4 140.1 157.9C139.8 158.4 139.5 158.6 139.2 158.9C139 159.1 138.8 159.1 137.6 158.9C137.1 158.8 136.6 158.6 136.3 158.3C136.1 158.1 136 157.8 136 157.7C136 157.4 136 157.1 136.1 156.9C136.2 156.4 136.1 155.6 136.8 155.4C137 155.4 136.9 155 137.4 155.3H137.5C137.5 154.2 138.4 154.2 138.9 153.8C139.3 153.5 139.5 152.6 140.1 152.6C140.1 151.9 140.4 151.8 140.8 151.9C142.1 151.9 142.8 151.1 143.9 150.7C145 150.4 146.2 149.9 147.5 149.8C147.7 149.8 147.9 149.4 148.2 149.7C148.5 150 148.8 149.7 149.1 149.7C149.4 149.7 149.7 149.7 149.9 149.8C150.8 150.6 151.8 150.6 152.5 151C153.2 151.4 153.9 151.8 154.5 151.8C154.9 151.8 155.2 151.5 155.4 151.6C155.5 151.6 155.6 151.3 155.8 151.9C155.8 152.1 155.8 151.6 156 151.6C156.2 151.6 156.4 151.5 156.6 151.4C156.9 151.3 157.2 151.2 157.5 150.9C157.7 150.7 157.8 150.4 158 150.2C158.2 150 158.4 149.8 158.7 149.7C159.1 149.5 159.5 149.5 159.9 149.3C160.3 149.1 160.6 148.6 161.2 148.7C162.2 148.8 162.9 148.3 163.7 148.2C164.5 148.1 165.3 148.1 166.2 148C166.7 148 167.1 148.5 167.5 148.5C167.7 148.5 167.7 150 167.5 150.5C167.5 150.5 167.5 150.7 167.4 150.7C167 151.1 166.6 151.8 166.3 151.7C165.8 151.7 165.3 151.7 164.8 151.7L164.7 152Z" fill="black"/>
<path d="M130.499 130.7C130.499 131 130.499 131.2 130.499 131.5C130.499 131.6 130.199 131.7 130.799 131.8C131.099 131.8 130.399 131.9 130.399 132C130.399 132.3 130.399 132.5 130.399 132.8C130.399 133.1 130.699 133.3 130.699 133.6C130.699 133.9 130.399 134.1 130.699 134.4C130.999 134.6 130.499 134.8 130.599 135C130.699 135.2 130.799 135.5 130.599 135.7C130.399 135.9 130.199 136 130.299 136.2C130.299 136.3 130.699 136.4 130.599 136.5C130.599 136.6 130.299 136.7 130.899 136.8C130.899 136.8 130.899 136.8 130.699 136.8C130.299 136.8 130.299 137 130.599 137.1C130.899 137.2 130.799 137.3 130.799 137.4C130.799 137.6 130.799 137.9 130.799 138.1C130.799 138.3 130.499 138.4 130.399 138.6C130.399 138.8 130.599 139 130.199 139.2C129.899 139.3 129.899 139.5 129.799 139.7C129.799 139.7 129.499 139.9 130.099 140.1C129.199 140.2 130.199 140.7 129.999 141C129.699 141.2 129.799 141.6 129.699 141.9C129.699 141.9 129.499 142 129.899 142.2C129.999 142.2 129.999 142.4 129.899 142.4C129.199 142.4 129.499 142.8 129.299 143C129.099 143.2 129.299 143.6 128.699 143.7C128.499 143.7 128.299 143.8 128.699 144.2C128.899 144.4 128.699 144.4 128.699 144.5C128.699 144.5 128.899 144.8 128.899 144.9C128.899 144.9 128.599 144.9 128.499 144.9C128.899 145.6 127.899 145.5 127.799 146C127.799 146.5 127.399 146.8 126.999 147C126.799 147.1 126.499 147.2 125.599 146.5C125.199 146.2 124.799 145.8 124.599 145.5C124.499 145.3 124.299 145.1 124.299 145C124.299 144.9 124.299 144.7 124.299 144.6C124.299 144.3 123.999 143.9 124.299 143.9C124.399 143.9 124.199 143.7 124.599 143.9C124.099 143.2 124.599 143.3 124.699 143.1C124.699 142.9 124.299 142.4 124.699 142.3C124.199 141.9 124.299 141.9 124.599 141.8C125.399 141.7 125.099 141.1 125.299 140.7C125.499 140.3 125.499 139.8 125.699 139.3C125.699 139.3 125.399 139.1 125.699 139C125.999 139 125.699 138.8 125.799 138.7C125.799 138.7 125.699 138.5 125.799 138.4C126.499 138.1 126.199 137.7 126.299 137.3C126.399 136.9 126.499 136.5 126.299 136.1C126.299 135.8 125.899 135.6 125.999 135.3C125.999 135.2 125.699 135.1 126.299 135C126.499 135 125.999 134.9 125.999 134.8C125.999 134.6 125.999 134.5 125.999 134.3C125.999 134.1 125.999 133.8 125.999 133.6C125.999 133.4 125.699 133.3 125.699 133.1C125.699 132.9 125.699 132.8 125.699 132.6C125.699 132.4 125.999 132.2 126.099 132C126.099 131.8 125.899 131.5 126.199 131.4C126.699 131.1 126.499 130.7 126.599 130.3C126.699 129.9 126.799 129.5 126.699 129.1C126.699 128.9 127.199 128.7 127.199 128.5C127.199 128.4 128.699 128.5 129.199 128.7H129.399C129.799 129 130.499 129.3 130.399 129.4C130.299 129.7 130.299 130 130.299 130.3L130.499 130.7Z" fill="black"/>
<path d="M169.701 101.6C170.201 100.6 170.601 99.6 171.101 98.6C171.501 97.6 171.901 96.6 172.101 95.8C172.201 95.2 172.501 94.5 171.901 94C171.601 93.8 172.101 93.1 171.801 92.6C171.001 91.2 169.801 89.9 168.201 89.3C166.601 88.6 164.801 88.5 163.001 88.5C161.201 88.5 159.101 88.3 157.201 88.8C155.601 89.2 154.101 88.8 152.501 89.1C150.901 89.4 149.201 89.7 147.501 89.8C146.301 89.8 145.101 89.8 143.901 90.2C143.201 90.4 142.601 90.9 141.801 91C141.101 91.1 140.201 91 139.701 91.8C139.701 91.8 139.301 91.8 139.101 91.8C138.201 91.6 137.301 91.8 136.701 92.3C136.101 92.7 135.601 92.9 135.001 93C133.401 93.5 131.801 94 130.201 94.5C129.001 94.9 127.701 95 126.501 95.4C125.201 95.8 124.001 96.6 122.801 96.8C121.501 97 120.501 97.4 119.401 97.9C118.801 98.2 117.901 98.2 117.701 99C117.701 99 117.401 99.2 117.301 99.2C116.201 99.2 115.401 99.7 114.601 100.3C113.801 100.9 113.001 101.5 112.101 101.9C110.201 102.7 108.401 103.8 106.701 104.9C106.201 105.2 105.601 105.3 105.401 106C105.401 106.2 104.901 106.5 104.601 106.6C103.001 106.8 102.001 108 101.001 108.9C100.401 109.4 100.001 110 99.7007 110.6C99.3007 111.2 99.1007 111.8 98.7007 112.4C98.4007 112.9 98.2007 113.8 98.9007 114.5C99.2007 114.8 99.0007 115.5 99.2007 116.1C99.4007 116.5 99.8007 116.9 99.9007 117.3C100.001 117.7 99.9007 118.1 100.001 118.6C100.001 118.7 100.001 118.9 100.201 119C101.801 120.8 102.501 123.4 104.101 125.4C105.801 127.4 107.301 129.4 109.101 131.4C110.001 132.5 111.001 133.6 110.901 135.1C110.901 135.8 110.501 136.2 109.801 136C109.301 135.9 108.701 135.6 108.301 135.3C107.601 134.8 106.901 134.2 106.301 133.7C105.001 132.6 103.401 131.6 102.501 129.9C102.201 129.4 101.601 129.1 101.701 128.4C101.701 128.4 101.701 128.1 101.501 128C100.501 127.3 99.7007 126.3 99.0007 125.2C98.3007 124.1 97.8007 123 97.1007 121.9C96.1007 120 94.6007 118.2 94.4007 115.7C93.6007 114.5 93.7007 112.6 94.2007 111.2C95.1007 108.7 96.8007 106.6 98.5007 105.1C100.201 103.6 102.001 102.4 103.801 101.4C107.401 99.3 111.101 97.3 114.901 95.6C115.501 95.3 116.001 94.7 116.801 94.6C117.601 94.6 118.501 93.9 119.301 93.6C120.101 93.3 120.801 92.8 121.601 92.7C123.201 92.4 124.801 91.9 126.301 91.3C127.901 90.8 129.401 90.1 131.001 89.7C134.101 88.8 137.301 88 140.501 87.1C142.401 86.6 144.301 85.8 146.301 85.7C147.201 85.7 148.001 85.1 148.901 85.7C149.201 85.8 149.901 85.3 150.401 85.2C151.801 84.9 153.101 84.9 154.501 84.7C156.401 84.5 158.301 84.4 160.201 84.3C161.401 84.3 162.601 84 163.901 84C165.201 84 166.601 84.3 168.001 84.7C168.801 85 169.701 85.4 170.501 85.9C171.301 86.4 172.001 87 172.701 87.6C173.401 88.3 174.101 89 174.701 89.8C175.301 90.6 175.701 91.6 175.901 92.6C176.001 93.5 176.101 94.5 175.901 95.4C175.901 96.3 175.601 97.1 175.401 97.9C174.901 99.5 174.401 100.7 173.801 102C172.601 104.5 171.301 107.1 170.101 109.6C169.401 111 168.301 112.1 167.501 113.4C167.101 114 165.401 114.1 165.101 113.6C165.101 113.6 165.101 113.4 165.101 113.2C165.501 111.7 165.501 110.1 166.301 108.7C167.601 106.5 168.601 104.3 169.701 102V101.6Z" fill="black"/>
<path d="M130.6 96.7996C130.1 97.2996 129.5 97.7996 129.1 98.3996C128.9 98.5996 128.5 98.5996 128.7 99.1996C128.8 99.4996 128.2 99.1996 128 99.3996C127.6 99.8996 127.1 100.4 126.7 101C126.3 101.5 126 102.2 125.7 102.7C125.3 103.2 124.7 103.6 124.5 104.3C124.4 104.9 123.7 105 123.5 105.5C123.3 106 123 106.5 122.5 106.8C122.1 107 121.7 107.2 121.6 107.6C121.6 107.8 121.6 108.2 121.5 108.4C121.3 108.6 121 108.7 121.3 109.2C121.3 109.2 121.2 109.2 121.1 109.2C120.6 109.2 120.5 109.5 120.6 109.8C120.7 110.1 120.6 110.3 120.5 110.5C120.2 111 119.9 111.5 119.6 111.9C119.3 112.2 118.9 112.5 118.7 112.8C118.4 113.1 118.4 113.7 118 113.9C117.5 114.1 117.4 114.5 117.2 114.8C117.1 115 116.7 115.1 117.2 115.6V115.7C116.1 115.9 116.8 117 116.4 117.4C115.9 117.9 115.7 118.6 115.5 119.2C115.5 119.4 115.2 119.5 115.5 119.8C115.6 119.9 115.5 120.1 115.5 120.1C114.7 120.3 114.8 120.9 114.5 121.4C114.2 121.9 114.2 122.5 113.5 122.9C113.2 123.1 113 123.3 113.4 123.8C113.6 124 113.2 124.2 113.2 124.4C113.2 124.6 113.4 124.8 113.3 125C113.3 125.1 113 125.2 112.8 125.3C112.8 125.3 112.8 125.3 112.8 125.4C113.1 126.4 112 126.9 111.9 127.8C111.8 128.7 111.4 129.5 111.1 130.3C110.9 130.7 110.6 131.2 109.4 131.2C108.9 131.2 108.3 131.1 108.1 130.8C107.9 130.6 107.7 130.3 107.7 130.2C107.7 129.9 107.7 129.6 107.7 129.3C107.7 128.7 107.3 128 107.8 127.5C107.9 127.3 107.8 127 108.3 127.1C108.3 127.1 108.4 127.1 108.4 127C107.9 126 108.7 125.3 108.9 124.6C109.1 123.9 108.8 123.1 109.3 122.5C108.8 121.9 109.1 121.5 109.5 121.2C110.1 120.7 110.4 120.1 110.7 119.4C111 118.8 111.2 118.1 111.5 117.5C112.2 116.3 112.8 115 113.5 113.7C113.6 113.5 113.5 113.1 113.8 113C114.2 112.9 114.1 112.5 114.3 112.2C114.4 112 114.5 111.6 114.7 111.5C115.8 110.9 116.1 109.7 116.7 108.8C117.4 107.9 118 107 118.5 106C118.8 105.4 118.9 104.6 119.4 104.2C119.6 104 119.5 103.6 120.2 103.7C120.4 103.7 120.2 103.3 120.2 103.1C120.4 102.7 120.7 102.4 121 102C121.4 101.5 121.8 101 122.2 100.5C122.4 100.2 122.5 99.6996 122.7 99.3996C122.9 98.9996 123.2 98.6996 123.5 98.4996C123.9 98.1996 124.4 97.8996 124.8 97.5996C125.2 97.1996 125.4 96.5996 125.9 96.4996C126.9 96.1996 127.4 95.2996 128.1 94.5996C128.8 93.9996 129.5 93.2996 130.1 92.5996C130.4 92.1996 131.1 92.1996 131.5 91.8996C131.7 91.6996 132.9 92.5996 133.2 93.0996V93.2996C133.2 93.9996 133.3 94.7996 132.9 95.1996C132.2 95.6996 131.7 96.2996 131.1 96.8996L130.6 96.7996Z" fill="black"/>
<path d="M156.5 92.3006C155.8 92.8006 155.1 93.3006 154.5 93.8006C154.3 94.0006 153.9 94.0006 154 94.6006C154 94.9006 153.4 94.6006 153.2 94.8006C152.6 95.3006 152 95.8006 151.5 96.4006C151 97.0006 150.5 97.6006 150.1 98.2006C149.6 98.8006 148.8 99.1006 148.6 99.8006C148.3 100.401 147.6 100.501 147.3 101.001C147 101.501 146.6 102.101 146 102.401C145.6 102.601 145.1 102.801 144.9 103.201C144.8 103.501 144.9 103.901 144.6 104.101C144.4 104.301 144 104.401 144.3 105.001C144.3 105.001 144.2 105.001 144.1 105.001C143.6 105.001 143.4 105.301 143.4 105.701C143.4 106.101 143.3 106.201 143.2 106.401C142.8 106.901 142.4 107.401 142 107.901C141.7 108.201 141.2 108.501 140.9 108.801C140.6 109.201 140.5 109.701 139.9 109.901C139.4 110.101 139.1 110.501 138.9 110.801C138.8 111.001 138.3 111.101 138.7 111.601V111.701C137.6 111.801 138.1 113.101 137.5 113.601C136.9 114.101 136.6 114.901 136.2 115.601C136.2 115.801 135.8 115.901 136.2 116.301C136.3 116.401 136.2 116.601 136.1 116.701C135.3 116.901 135.3 117.601 134.9 118.001C134.5 118.501 134.4 119.301 133.7 119.601C133.4 119.801 133.1 120.101 133.5 120.601C133.7 120.901 133.3 121.001 133.2 121.301C133.2 121.501 133.3 121.801 133.2 122.001C133.2 122.201 132.8 122.201 132.7 122.301C132.7 122.301 132.7 122.301 132.7 122.401C132.9 123.601 131.7 124.101 131.5 125.101C131.3 126.101 130.8 127.001 130.4 127.901C130.2 128.401 129.8 128.901 128.6 128.801C128.1 128.801 127.5 128.601 127.3 128.301C127.1 128.101 127 127.801 127 127.601C127 127.301 127 126.901 127 126.601C127 125.901 126.8 125.101 127.3 124.601C127.5 124.401 127.3 124.101 127.8 124.101C127.8 124.101 127.9 124.101 127.9 124.001C127.5 122.901 128.4 122.201 128.7 121.301C129 120.601 128.7 119.601 129.4 119.001C129 118.301 129.4 117.901 129.8 117.601C130.5 117.101 130.9 116.401 131.2 115.701C131.6 115.001 131.9 114.301 132.3 113.601C133.2 112.301 134 110.901 134.9 109.501C135.1 109.301 134.9 108.901 135.3 108.801C135.7 108.801 135.7 108.301 135.9 108.001C136.1 107.701 136.2 107.401 136.5 107.201C137.8 106.601 138.2 105.301 139.1 104.401C140 103.501 140.8 102.501 141.5 101.501C141.9 100.901 142.2 100.101 142.8 99.6006C143.1 99.4006 143.1 98.9006 143.7 99.1006C143.9 99.1006 143.7 98.6006 143.9 98.5006C144.2 98.1006 144.6 97.7006 145 97.4006C145.5 96.9006 146.1 96.4006 146.6 95.9006C146.9 95.6006 147 95.1006 147.3 94.7006C147.6 94.3006 148 94.0006 148.3 93.8006C148.8 93.5006 149.4 93.2006 149.9 92.9006C150.4 92.5006 150.7 91.9006 151.3 91.8006C152.5 91.5006 153.1 90.6006 154 90.0006C154.9 89.4006 155.8 88.8006 156.6 88.1006C157.1 87.7006 157.8 87.8006 158.3 87.5006C158.5 87.3006 159.6 88.4006 159.8 88.8006C159.8 88.8006 159.8 89.0006 159.8 89.1006C159.6 89.8006 159.6 90.7006 159 91.0006C158.2 91.5006 157.4 92.1006 156.7 92.6006L156.5 92.3006Z" fill="black"/>
<path d="M162.5 115.998C162.1 115.798 161.6 115.598 161.2 115.498C161 115.498 161 115.098 160.6 115.498C160.4 115.698 160.5 115.098 160.3 114.998C159.9 114.998 159.5 114.598 159.1 114.498C158.7 114.398 158.2 114.498 157.8 114.298C157.4 114.198 157.1 113.698 156.6 113.898C156.2 113.998 156.1 113.398 155.7 113.398C155.3 113.398 155 113.298 154.7 112.898C154.5 112.598 154.4 112.298 154.1 112.298C153.9 112.298 153.7 112.498 153.5 112.398C153.4 112.398 153.3 111.998 152.9 112.498C152.9 112.498 152.9 112.498 152.9 112.298C152.9 111.898 152.7 111.798 152.5 111.998C152.3 112.198 152.2 112.098 152 111.998C151.7 111.898 151.3 111.798 151 111.598C150.8 111.498 150.6 111.098 150.4 110.998C150.2 110.798 149.8 110.998 149.7 110.598C149.6 110.198 149.4 110.098 149.1 109.998C149 109.998 148.9 109.598 148.6 110.198C148.6 109.298 147.8 110.198 147.5 109.798C147.2 109.498 146.8 109.398 146.4 109.298C146.3 109.298 146.2 109.098 146 109.498C146 109.598 145.8 109.598 145.8 109.498C145.8 108.798 145.3 109.098 145 108.898C144.7 108.698 144.3 108.898 144.1 108.298C144.1 108.098 143.8 107.898 143.5 108.298C143.3 108.498 143.3 108.298 143.1 108.298C143 108.298 142.8 108.598 142.7 108.498C142.7 108.498 142.6 108.198 142.5 108.098C141.8 108.598 141.6 107.598 141 107.698C140.5 107.698 140 107.598 139.5 107.398C139.2 107.398 139 107.098 138.9 105.898C138.9 105.398 138.9 104.798 139.1 104.498C139.2 104.298 139.4 104.098 139.5 103.998C139.7 103.998 139.9 103.798 140.1 103.798C140.5 103.698 141 103.198 141.3 103.598C141.4 103.698 141.6 103.398 141.6 103.998C142.3 103.298 142.7 103.998 143.2 103.998C143.6 103.998 144.2 103.598 144.6 103.998C145 103.498 145.3 103.698 145.5 103.998C146.1 104.898 147.1 104.798 147.9 105.198C148.7 105.598 149.5 105.798 150.3 106.198C150.4 106.198 150.7 105.998 150.7 106.298C150.7 106.598 151 106.498 151.2 106.598C151.4 106.598 151.6 106.598 151.7 106.798C152 107.698 152.8 107.598 153.4 107.898C154 108.198 154.6 108.598 155.2 108.698C155.6 108.698 156.1 108.698 156.4 108.898C156.5 108.998 156.8 108.798 156.7 109.398C156.7 109.598 157 109.198 157.1 109.298C157.4 109.298 157.6 109.498 157.9 109.598C158.2 109.798 158.6 109.998 158.9 110.098C159.1 110.098 159.4 110.098 159.7 110.098C159.9 110.098 160.2 110.198 160.4 110.398C160.6 110.598 160.8 110.898 161.1 111.098C161.4 111.298 161.8 111.098 161.9 111.498C162.2 112.198 162.8 112.198 163.3 112.398C163.8 112.598 164.3 112.898 164.9 112.898C165.2 112.898 165.3 113.498 165.6 113.598C165.7 113.598 165.5 115.098 165.3 115.598C165.3 115.598 165.3 115.798 165.2 115.798C164.8 116.098 164.3 116.698 163.9 116.598C163.4 116.398 162.9 116.198 162.4 115.998H162.5Z" fill="black"/>
<path d="M169.3 102.498C169 102.298 168.7 102.098 168.4 101.998C168.3 101.998 168.3 101.698 167.9 101.998C167.7 102.198 167.9 101.598 167.8 101.598C167.5 101.598 167.2 101.298 166.9 101.198C166.6 101.198 166.2 101.198 165.9 101.098C165.6 101.098 165.4 100.598 165 100.798C164.6 100.898 164.7 100.398 164.4 100.398C164.1 100.398 163.8 100.398 163.7 99.9981C163.7 99.7981 163.5 99.4981 163.3 99.4981C163.2 99.4981 162.9 99.7981 162.8 99.6981C162.8 99.6981 162.7 99.2981 162.3 99.8981C162.3 99.8981 162.3 99.8981 162.3 99.6981C162.3 99.2981 162.2 99.1981 162 99.3981C161.8 99.5981 161.7 99.4981 161.6 99.4981C161.3 99.4981 161.1 99.2981 160.9 99.1981C160.7 99.0981 160.7 98.7981 160.5 98.5981C160.3 98.4981 160 98.5981 160 98.2981C160 97.8981 159.8 97.8981 159.6 97.7981C159.6 97.7981 159.5 97.3981 159.2 97.9981C159.2 97.0981 158.5 97.9981 158.3 97.6981C158.1 97.3981 157.7 97.3981 157.4 97.2981C157.4 97.2981 157.3 97.0981 157.1 97.4981C157.1 97.5981 156.9 97.5981 156.9 97.4981C156.9 96.7981 156.5 97.0981 156.3 96.8981C156.1 96.6981 155.7 96.8981 155.6 96.2981C155.6 96.0981 155.4 95.8981 155.1 96.2981C154.9 96.4981 154.9 96.2981 154.8 96.2981L154.5 96.4981C154.5 96.4981 154.5 96.1981 154.5 96.0981C153.9 96.5981 153.8 95.5981 153.4 95.5981C153 95.5981 152.6 95.3981 152.2 95.1981C152 95.0981 151.8 94.7981 152.1 93.6981C152.1 93.1981 152.4 92.6981 152.6 92.3981C152.7 92.1981 152.9 91.9981 153 91.9981C153.2 91.9981 153.3 91.8981 153.5 91.7981C153.8 91.7981 154.3 91.2981 154.4 91.6981C154.4 91.7981 154.7 91.5981 154.6 92.0981C155.2 91.4981 155.4 92.0981 155.8 92.0981C156.1 92.0981 156.6 91.6981 156.9 92.0981C157.3 91.5981 157.5 91.7981 157.6 91.9981C158 92.8981 158.7 92.6981 159.3 92.9981C159.9 93.2981 160.5 93.4981 161.1 93.7981C161.2 93.7981 161.4 93.5981 161.4 93.7981C161.4 94.0981 161.6 93.9981 161.8 93.9981C161.9 93.9981 162.1 93.9981 162.2 94.1981C162.4 94.9981 163 94.8981 163.5 95.0981C163.9 95.3981 164.4 95.5981 164.9 95.6981C165.2 95.6981 165.7 95.5981 165.9 95.7981C165.9 95.8981 166.3 95.6981 166.1 96.2981C166.1 96.4981 166.4 96.0981 166.5 96.0981C166.7 96.0981 166.9 96.2981 167.1 96.3981C167.4 96.4981 167.6 96.6981 167.9 96.7981C168.1 96.7981 168.4 96.7981 168.5 96.7981C168.7 96.7981 168.9 96.8981 169 97.0981C169.2 97.2981 169.3 97.5981 169.5 97.6981C169.7 97.8981 170.1 97.6981 170.1 98.0981C170.3 98.7981 170.8 98.6981 171.1 98.9981C171.5 99.2981 171.8 99.4981 172.3 99.5981C172.6 99.5981 172.5 100.198 172.7 100.298C172.8 100.298 172.2 101.698 171.9 102.098C171.9 102.098 171.8 102.298 171.7 102.298C171.3 102.598 170.7 103.098 170.5 102.898C170.2 102.598 169.8 102.498 169.5 102.298L169.3 102.498Z" fill="black"/>
</svg>
