<svg width="300" height="300" viewBox="0 0 300 300" fill="none" xmlns="http://www.w3.org/2000/svg">
<path d="M176.6 132.902C174.9 131.102 173.2 129.202 171.5 127.402C170.8 126.702 170.4 125.902 169.3 125.502C168.8 125.302 168.6 124.202 168 123.602C166.4 121.902 164.8 120.202 163.2 118.502C161.6 116.902 160 115.702 158.4 115.202C156.8 114.602 154.7 114.102 152.5 114.402C150.7 114.602 149 114.102 147.3 114.302C145.4 114.502 143.5 114.702 141.7 114.602C140.4 114.602 139 114.502 137.7 114.802C136.9 115.002 136.2 115.402 135.3 115.502C134.5 115.602 133.5 115.502 132.9 116.302C132.9 116.302 132.5 116.302 132.3 116.302C131.3 116.102 130.3 116.302 129.6 116.802C129 117.202 128.3 117.402 127.7 117.502C125.9 118.002 124.1 118.502 122.5 119.102C121.3 119.502 120.1 119.902 119.1 120.502C118 121.202 117.5 122.302 116.7 123.102C115.9 123.902 115.5 125.002 115.2 126.202C115 126.902 114.6 127.602 115.2 128.302C115.2 128.302 115.2 128.602 115.2 128.702C114.1 130.702 115.2 132.902 115 135.002C114.8 137.302 115 139.602 115 141.902C115 142.502 114.9 143.202 115.4 143.702C115.6 143.902 115.6 144.502 115.5 144.802C115 146.502 115.5 148.302 115.5 150.102C115.5 152.102 116.1 154.102 115.8 156.102C115.7 157.002 115.8 158.102 116.4 159.102C116.7 159.502 116.6 160.502 116.8 161.302C116.9 161.902 117.3 162.402 117.4 163.002C117.4 163.502 117.4 164.002 117.3 164.602C117.3 164.802 117.3 164.902 117.3 165.102C118.4 167.902 118 170.902 118.7 173.802C119.4 176.702 119.9 179.702 120.3 182.602C120.6 184.202 120.7 185.902 119.8 187.302C119.4 187.902 118.8 188.002 118.4 187.302C118.1 186.802 117.7 186.302 117.6 185.702C117.3 184.802 117 183.902 116.8 183.002C116.3 181.202 115.4 179.402 115.3 177.402C115.3 176.802 114.9 176.102 115.3 175.502C115.3 175.502 115.3 175.202 115.3 175.002C114.1 172.502 114.1 169.702 113.6 167.102C113.2 164.802 112.2 162.702 112.2 160.402C111.4 159.202 111.3 157.702 111.4 156.402C111.5 151.802 110.7 147.302 110.6 142.702C110.6 140.402 110.5 138.002 110.5 135.702C110.5 133.402 110.5 131.002 110.8 128.602C110.8 127.802 110.6 127.002 111.1 126.002C111.5 125.102 111.7 123.902 112.1 122.802C112.5 121.802 112.9 120.702 113.6 120.002C116.6 116.802 120.3 114.902 123.8 113.802C127.3 112.802 130.9 112.002 134.5 111.302C136.7 110.802 138.8 110.202 141.1 110.102C142.1 110.102 143 109.602 144 110.102C144.3 110.302 145.1 109.802 145.8 109.702C147.3 109.602 148.9 109.602 150.4 109.602C152.5 109.602 154.6 109.602 157 110.002C158.4 110.202 159.9 110.302 161.4 111.002C162.9 111.702 164.2 112.802 165.2 113.802C166.5 115.202 167.4 116.502 168.5 117.802C169.6 119.102 171.1 120.302 172 121.702C173.8 124.302 176.1 126.402 178.1 128.702C180.2 131.002 182.2 133.302 184.4 135.502C185.6 136.702 186.4 138.202 187.5 139.502C188 140.102 187.7 141.902 187.1 142.002C187 142.002 186.8 142.002 186.7 142.002C185.2 141.102 183.6 140.502 182.4 139.002C180.5 136.902 178.5 134.802 176.6 132.802V132.902Z" fill="black"/>
<path d="M166.101 147.302C166.501 147.102 166.801 147.002 167.201 146.702C167.301 146.702 167.601 146.702 167.501 146.202C167.501 145.902 167.901 146.402 168.001 146.402C168.301 146.202 168.701 146.102 169.001 145.902C169.301 145.702 169.501 145.302 169.801 145.102C170.101 144.902 170.601 145.102 170.801 144.602C171.001 144.202 171.401 144.602 171.601 144.302C171.801 144.102 172.101 143.902 172.501 144.002C172.801 144.002 173.101 144.202 173.201 144.002C173.201 143.902 173.201 143.502 173.401 143.502C173.501 143.502 173.801 143.702 173.701 143.002C173.701 143.002 173.701 143.002 173.901 143.002C174.201 143.302 174.401 143.202 174.401 143.002C174.401 142.702 174.501 142.702 174.601 142.602C174.901 142.502 175.201 142.302 175.501 142.302C175.701 142.302 176.001 142.302 176.301 142.302C176.501 142.302 176.701 141.902 177.001 142.102C177.301 142.302 177.501 142.202 177.701 142.102C177.801 142.102 178.101 142.302 177.901 141.602C178.501 142.302 178.501 141.102 178.901 141.202C179.301 141.202 179.601 141.002 180.001 140.902C180.001 140.902 180.301 141.002 180.201 140.502C180.201 140.302 180.201 140.302 180.401 140.402C180.901 140.902 181.001 140.402 181.301 140.402C181.601 140.402 181.901 140.002 182.301 140.402C182.501 140.602 182.701 140.602 182.701 140.002C182.701 139.702 182.901 140.002 183.001 139.802C183.001 139.802 183.001 139.402 183.201 139.402C183.201 139.402 183.401 139.602 183.501 139.702C183.801 138.902 184.501 139.702 184.901 139.302C185.301 139.002 185.801 138.902 186.301 138.902C186.601 138.902 186.901 138.902 187.401 140.002C187.601 140.502 187.801 141.002 187.701 141.402C187.701 141.702 187.701 141.902 187.601 142.002C187.501 142.102 187.401 142.302 187.301 142.402C187.101 142.702 186.901 143.302 186.601 143.102C186.501 143.102 186.501 143.402 186.201 142.902C186.001 143.802 185.501 143.402 185.101 143.602C184.801 143.802 184.601 144.502 184.201 144.302C184.201 145.002 184.001 144.902 183.701 144.802C182.801 144.402 182.301 145.002 181.601 145.202C180.901 145.302 180.301 145.702 179.601 145.902C179.501 145.902 179.601 146.302 179.301 146.102C179.101 145.902 179.001 146.102 178.801 146.202C178.701 146.202 178.601 146.402 178.401 146.302C177.601 145.902 177.301 146.502 176.701 146.602C176.201 146.702 175.601 146.902 175.201 147.302C174.901 147.502 174.801 148.002 174.401 148.002C174.201 148.002 174.201 148.402 173.901 147.902C173.801 147.802 173.901 148.202 173.801 148.302C173.601 148.402 173.401 148.502 173.201 148.602C172.901 148.702 172.601 148.802 172.301 149.002C172.101 149.102 172.101 149.402 171.901 149.602C171.701 149.702 171.601 149.802 171.301 149.902C171.001 149.902 170.701 149.902 170.401 149.902C170.101 149.902 170.001 150.302 169.601 150.202C168.901 150.002 168.601 150.402 168.201 150.602C167.701 150.802 167.301 150.902 166.901 151.302C166.701 151.502 166.201 151.202 166.001 151.302C165.901 151.302 165.101 150.102 164.901 149.702V149.502C164.901 149.002 164.801 148.202 165.101 148.102C165.501 148.002 165.901 147.702 166.301 147.502L166.101 147.302Z" fill="black"/>
<path d="M146.699 141.101C146.699 140.901 146.699 140.701 146.699 140.601C146.699 140.601 146.899 140.501 146.399 140.401C146.099 140.401 146.799 140.301 146.699 140.201C146.699 140.001 146.699 139.901 146.699 139.701C146.699 139.501 146.399 139.401 146.399 139.201C146.399 139.001 146.699 138.901 146.399 138.701C146.099 138.501 146.599 138.501 146.499 138.301C146.399 138.201 146.299 138.001 146.499 137.901C146.699 137.901 146.899 137.701 146.799 137.601C146.799 137.601 146.399 137.401 146.499 137.401C146.499 137.401 146.799 137.401 146.199 137.201C146.199 137.201 146.199 137.201 146.399 137.201C146.799 137.201 146.799 137.201 146.499 137.001C146.199 137.001 146.299 136.901 146.299 136.801C146.299 136.701 146.299 136.501 146.299 136.401C146.299 136.401 146.599 136.201 146.699 136.201C146.699 136.201 146.499 135.901 146.799 135.901C147.099 135.901 147.099 135.801 147.099 135.701C147.099 135.701 147.399 135.701 146.799 135.501C147.599 135.501 146.599 135.101 146.799 135.001C146.999 134.901 146.899 134.701 146.999 134.501C146.999 134.501 147.199 134.501 146.799 134.301C146.599 134.201 146.599 134.301 146.799 134.301C147.399 134.301 147.099 134.101 147.199 134.001C147.399 133.901 147.199 133.701 147.599 133.701C147.799 133.701 147.899 133.701 147.399 133.401C147.199 133.301 147.399 133.401 147.399 133.201L147.099 133.001C147.099 133.001 147.299 133.001 147.499 133.001C146.899 132.601 147.899 132.701 147.799 132.401C147.799 132.101 147.799 132.001 147.999 131.801C147.999 131.801 148.299 131.701 149.399 132.001C149.899 132.201 150.399 132.401 150.699 132.601C150.899 132.701 151.099 132.801 151.099 132.901C151.099 132.901 151.299 133.101 151.299 133.201C151.399 133.401 151.899 133.701 151.599 133.701C151.599 133.701 151.799 133.901 151.299 133.701C151.999 134.101 151.399 134.101 151.399 134.301C151.399 134.401 151.999 134.801 151.699 134.801C152.299 135.101 152.099 135.101 151.899 135.101C151.199 135.101 151.499 135.501 151.399 135.801C151.199 136.001 151.299 136.301 151.199 136.601C151.199 136.601 151.499 136.801 151.199 136.801C150.899 136.801 151.199 136.901 151.199 137.001C151.199 137.001 151.299 137.101 151.199 137.201C150.499 137.201 150.899 137.601 150.799 137.801C150.799 138.001 150.599 138.201 150.799 138.401C150.799 138.501 151.199 138.701 151.099 138.801C151.099 138.801 151.399 138.901 150.799 138.901C150.599 138.901 151.099 138.901 151.099 139.001C151.099 139.001 151.099 139.201 151.099 139.301C151.099 139.401 151.099 139.501 151.099 139.701L151.399 139.901V140.101C151.399 140.101 151.099 140.301 150.999 140.401C150.999 140.501 151.199 140.601 150.999 140.701C150.499 140.901 150.699 141.101 150.699 141.301C150.699 141.501 150.699 141.701 150.699 141.801C150.699 141.801 150.299 142.001 150.299 142.101C150.299 142.101 148.799 142.301 148.299 142.401H148.099C147.599 142.401 146.899 142.301 146.899 142.101C146.899 141.901 146.899 141.701 146.899 141.501L146.699 141.101Z" fill="black"/>
<path d="M157.1 141.902C157.1 141.702 157.1 141.502 157.1 141.402C157.1 141.402 157.3 141.302 156.8 141.202C156.5 141.202 157.2 141.102 157.1 141.002C157.1 140.802 157.1 140.702 157.1 140.502C157.1 140.302 156.8 140.202 156.8 140.002C156.8 139.802 157.1 139.702 156.8 139.502C156.5 139.302 157 139.302 156.9 139.102C156.8 139.002 156.7 138.802 156.9 138.702C157.1 138.702 157.3 138.502 157.2 138.402C157.2 138.402 156.8 138.202 156.9 138.202C156.9 138.202 157.2 138.202 156.6 138.002C156.6 138.002 156.6 138.002 156.8 138.002C157.2 138.002 157.2 138.002 156.9 137.802C156.6 137.802 156.7 137.702 156.7 137.602C156.7 137.502 156.7 137.302 156.7 137.202C156.7 137.202 157 137.002 157.1 137.002C157.1 137.002 156.9 136.702 157.2 136.702C157.5 136.702 157.5 136.602 157.5 136.502C157.5 136.502 157.8 136.502 157.2 136.302C158 136.302 157 135.902 157.2 135.802C157.4 135.702 157.3 135.502 157.4 135.302C157.4 135.302 157.6 135.302 157.2 135.102C157 135.002 157 135.102 157.2 135.102C157.8 135.102 157.5 134.902 157.6 134.802C157.8 134.702 157.6 134.502 158 134.502C158.2 134.502 158.3 134.502 157.8 134.202C157.6 134.102 157.8 134.202 157.8 134.002L157.5 133.802C157.5 133.802 157.7 133.802 157.9 133.802C157.3 133.402 158.3 133.502 158.2 133.202C158.2 132.902 158.2 132.802 158.4 132.602C158.4 132.602 158.7 132.502 159.8 132.802C160.3 133.002 160.8 133.202 161.1 133.402C161.3 133.502 161.5 133.602 161.5 133.702C161.5 133.702 161.7 133.902 161.7 134.002C161.8 134.202 162.3 134.502 162 134.502C162 134.502 162.2 134.702 161.7 134.502C162.4 134.902 161.8 134.902 161.8 135.102C161.8 135.202 162.4 135.602 162.1 135.602C162.7 135.902 162.5 135.902 162.3 135.902C161.6 135.902 161.9 136.302 161.8 136.602C161.6 136.802 161.7 137.102 161.6 137.402C161.6 137.402 161.9 137.602 161.6 137.602C161.3 137.602 161.6 137.702 161.6 137.802C161.6 137.802 161.7 137.902 161.6 138.002C160.9 138.002 161.3 138.402 161.2 138.602C161.2 138.802 161 139.002 161.2 139.202C161.2 139.302 161.6 139.502 161.5 139.602C161.5 139.602 161.8 139.702 161.2 139.702C161 139.702 161.5 139.702 161.5 139.802C161.5 139.802 161.5 140.002 161.5 140.102C161.5 140.202 161.5 140.302 161.5 140.502L161.8 140.702V140.902C161.8 140.902 161.5 141.102 161.4 141.202C161.4 141.302 161.6 141.402 161.4 141.502C160.9 141.702 161.1 141.902 161.1 142.102C161.1 142.302 161.1 142.502 161.1 142.602C161.1 142.602 160.7 142.802 160.7 142.902C160.7 142.902 159.2 143.102 158.7 143.202H158.5C158 143.202 157.3 143.102 157.3 142.902C157.3 142.702 157.3 142.502 157.3 142.302L157.1 141.902Z" fill="black"/>
<path d="M195.4 146.7C195.9 147.7 196.3 148.8 196.7 149.8C196.8 150.2 196.7 150.7 197.3 151C197.6 151.2 197.1 151.7 197.2 152.1C197.5 153.1 197.5 154.2 197.6 155.3C197.6 156.3 197.9 157.4 197.8 158.4C197.8 159.5 197.2 160.4 197.2 161.5C197.2 162.4 196.5 163 196.2 163.8C196 164.7 195.6 165.5 194.9 166.1C194.4 166.6 193.9 166.9 193.6 167.5C193.4 167.9 193.5 168.3 193.2 168.6C192.9 168.9 192.4 169 192.7 169.7C192.7 169.7 192.5 169.8 192.4 169.8C191.8 169.8 191.5 170.2 191.4 170.6C191.4 171 191.1 171.2 190.8 171.4C190.6 171.6 190.5 171.7 190.2 171.9C189.9 172.2 189.6 172.4 189.3 172.6C188.7 173 188 173.4 187.4 173.7C186.4 174.1 185.5 174.3 184.6 174.7C184.4 174.7 184.3 174.8 184.1 174.9L183.7 175.1C183.5 174.4 183.3 173.6 183.3 172.6C183.3 171.9 183.3 171.3 183.2 170.8C183.2 170.3 183 169.9 182.9 169.5C182.9 169.3 182.8 168.9 182.7 168.8C182.7 168.7 182.5 168.6 182.2 168.6C182.2 168.6 182.2 168.6 182.2 168.4C182.6 167.3 181.3 167 181.1 166.2C180.9 165.3 180.2 164.7 179.7 164C179.6 163.8 179.5 163.5 179.1 163.6C178.9 163.6 178.8 163.5 178.8 163.3C178.8 162.4 178.1 162.1 177.8 161.6C177.4 161 176.6 160.6 176.4 159.7C176.3 159.3 176 158.9 175.3 159.1C175 159.1 174.9 158.7 174.6 158.6C174.4 158.5 174 158.6 173.8 158.4C173.6 158.3 173.6 158 173.5 157.8C173.5 157.8 173.5 157.7 173.3 157.7C172 157.6 171.6 156.2 170.5 155.7C169.4 155.2 168.4 154.5 167.4 153.9C166.8 153.5 166.3 153 166.5 151.8C166.5 151.2 166.8 150.8 167.2 150.6C167.5 150.5 167.8 150.4 168.1 150.5C168.5 150.6 168.9 150.7 169.3 150.8C170.1 151 171.1 151 171.6 151.6C171.8 151.8 172.2 151.7 172.1 152.3C172.1 152.3 172.1 152.5 172.2 152.5C173.6 152.5 174.3 153.5 175.2 154.1C176 154.6 177.2 154.7 177.8 155.6C178.6 155.5 179.1 156 179.3 156.5C180.3 158.3 182 159.5 183.1 161.2C184.2 162.9 185.4 164.6 186.1 166.6C186.2 166.9 186.7 167.1 186.6 167.6C186.4 167.8 186.6 168 186.6 168C186.6 168 186.7 168 186.6 168.2C186.6 168.4 186.5 168.6 186.5 168.8C186.5 169 186.5 169 186.6 168.9C186.6 168.9 186.8 168.9 186.9 168.7C187.1 168.6 187.2 168.4 187.4 168.3H187.5H187.6L187.8 168.1C188.1 167.9 188.3 167.7 188.6 167.5C189.1 167 189.5 166.5 189.9 166C190.3 165.3 190.5 164.5 191 163.9C191.2 163.6 191.1 163.2 191.8 163.1C192 163.1 191.8 162.6 191.8 162.4L192.4 160.9C192.6 160.2 192.9 159.5 193 158.7C193 158.2 192.9 157.8 192.9 157.3C192.9 156.8 192.9 156.4 192.9 155.9C192.9 155.3 193.2 154.7 193.2 154.1C193.2 153.5 192.8 152.9 193 152.2C193.2 151 192.6 149.9 192.2 148.9C191.8 147.8 191.2 146.8 190.4 146C190 145.5 190 144.8 189.5 144.3C189.3 144.1 190 142.7 190.5 142.5C190.5 142.5 190.7 142.5 190.8 142.5C191.6 142.7 192.7 142.7 193.2 143.4C193.9 144.5 194.7 145.5 195.3 146.7H195.4Z" fill="black"/>
<path d="M170.1 186.698C169.9 185.898 169.8 185.198 169.6 184.498C169.6 184.198 169.8 183.898 169.2 183.698C168.9 183.598 169.5 183.298 169.5 182.998C169.4 182.398 169.5 181.698 169.3 181.098C169.3 180.498 168.9 179.998 168.8 179.498C168.7 178.998 168.8 178.398 168.5 177.898C168.1 177.498 168.5 176.998 168.4 176.598C168.2 176.198 168 175.698 168.1 175.198C168.1 174.798 168.3 174.498 168.1 174.098C168 173.898 167.6 173.798 167.6 173.598C167.6 173.398 167.8 173.098 167.1 173.098C167.1 173.098 167.1 172.998 167.2 172.898C167.5 172.598 167.4 172.298 167.2 172.198C166.9 172.098 166.9 171.898 166.8 171.698C166.6 171.198 166.5 170.798 166.4 170.298C166.4 169.898 166.4 169.498 166.4 169.098C166.4 168.698 166 168.398 166.2 167.998C166.4 167.598 166.2 167.198 166.2 166.898C166.2 166.698 166.4 166.398 165.7 166.398C165.7 166.398 165.7 166.398 165.7 166.298C166.4 165.498 165.2 165.198 165.2 164.598C165.2 163.898 165 163.398 164.8 162.698C164.8 162.498 164.9 162.298 164.4 162.298C164.2 162.298 164.2 162.098 164.3 161.998C164.8 161.398 164.3 160.998 164.4 160.498C164.4 159.898 164.1 159.398 164.5 158.798C164.7 158.498 164.8 158.198 164.2 157.998C163.9 157.898 164.2 157.598 164.2 157.398C164.2 157.198 163.9 157.098 163.9 156.898C163.9 156.798 164.1 156.598 164.2 156.498C164.2 156.498 164.2 156.498 164.2 156.398C163.5 155.498 164.5 154.698 164.4 153.898C164.4 152.998 164.5 152.098 164.8 151.298C164.9 150.798 165.3 150.398 166.5 150.398C167 150.398 167.6 150.598 167.8 150.898C168 151.098 168.2 151.298 168.2 151.398C168.2 151.598 168.3 151.898 168.4 152.098C168.4 152.598 168.9 153.098 168.6 153.498C168.5 153.598 168.8 153.798 168.3 153.898C169 154.598 168.5 155.198 168.5 155.798C168.5 156.398 169.2 156.898 168.9 157.398C169.5 157.698 169.5 157.998 169.3 158.298C168.7 159.398 169.3 160.498 169.5 161.598C169.6 162.698 170 163.798 170.2 164.998C170.2 165.198 170.6 165.298 170.4 165.598C170.2 165.898 170.4 166.098 170.5 166.298C170.5 166.498 170.8 166.698 170.7 166.998C170.3 168.098 171 168.898 171.1 169.798C171.3 170.698 171.5 171.698 171.9 172.498C172.1 172.998 172.6 173.498 172.6 174.098C172.6 174.398 173 174.498 172.5 174.898C172.4 174.998 172.8 175.098 172.9 175.298C173 175.698 173.1 176.098 173.1 176.498C173.2 177.098 173.2 177.598 173.4 178.198C173.4 178.498 173.8 178.898 173.9 179.198C173.9 179.598 174 179.998 173.9 180.298C173.9 180.798 173.7 181.198 173.6 181.598C173.6 182.098 173.9 182.498 173.6 182.898C173.2 183.698 173.6 184.398 173.6 184.998C173.6 185.598 173.9 186.198 174.3 186.598C174.5 186.798 174.3 187.298 174.6 187.498C174.6 187.498 174 188.898 173.7 189.298L173.5 189.398C172.8 189.398 171.9 189.598 171.5 188.998C170.9 188.198 170.5 187.298 170.2 186.398L170.1 186.698Z" fill="black"/>
<path d="M139.3 190.698C139.3 191.398 139.3 192.098 139.3 192.698C139.3 192.898 139 193.198 139.5 193.498C139.8 193.698 139.1 193.798 139.1 193.998C139.1 194.598 138.9 195.098 138.9 195.698C138.9 196.298 138.9 196.998 138.8 197.598C138.6 198.298 138.1 198.898 137.9 199.698C137.7 200.398 136.9 200.598 136.6 200.998C136.2 201.498 135.7 201.998 135.1 201.998C134.6 201.998 134.2 201.998 133.9 202.298C133.7 202.398 133.6 202.798 133.3 202.898C133 202.898 132.7 202.798 132.6 203.398C132.6 203.398 132.5 203.398 132.4 203.298C132 202.998 131.7 202.998 131.5 203.298C131.3 203.598 131.1 203.598 130.9 203.598C130.3 203.598 129.7 203.698 129.1 203.598C128.7 203.598 128.2 203.198 127.8 203.098C127.4 202.998 126.8 203.098 126.5 202.698C126.2 202.298 125.8 202.198 125.5 201.998C125.3 201.998 125.2 201.498 124.7 201.998H124.6C124.4 200.998 123.4 201.598 122.9 200.998C122.5 200.398 121.9 200.098 121.4 199.598C121.3 199.498 121.3 199.198 120.8 199.398C120.6 199.398 120.5 199.398 120.5 199.198C120.6 198.398 120 198.198 119.8 197.698C119.6 197.198 119 196.798 119.2 195.998C119.2 195.698 119.2 195.398 118.6 195.298C118.3 195.298 118.4 194.898 118.3 194.698C118.2 194.598 117.9 194.498 117.8 194.298C117.8 194.198 117.9 193.898 118 193.798V193.698C117.1 193.098 117.8 191.998 117.6 191.298C117.3 190.498 117.3 189.698 117.4 188.898C117.4 188.498 117.6 187.998 118.8 187.798C119.3 187.698 119.9 187.798 120.2 187.798C120.4 187.898 120.7 188.098 120.7 188.198C120.7 188.398 120.9 188.598 121 188.798C121.2 189.198 121.8 189.598 121.5 190.098C121.5 190.198 121.7 190.398 121.2 190.498C121.2 190.498 121.2 190.498 121.2 190.598C122.1 191.098 121.6 191.698 121.8 192.198C122 192.698 122.7 192.898 122.6 193.398C123.3 193.398 123.3 193.698 123.2 193.998C123 195.098 123.9 195.598 124.4 196.198C124.9 196.898 125.7 197.398 126.4 197.798C126.5 197.798 126.8 197.598 126.8 197.898C126.8 198.198 127.1 198.098 127.3 198.198C127.5 198.198 127.7 198.198 127.8 198.398C128.3 199.198 129.1 198.898 129.7 198.998C130.4 198.998 131.1 198.998 131.7 198.698C132.1 198.498 132.3 197.998 132.7 197.998C132.9 197.998 132.8 197.598 133.3 197.998C133.4 198.098 133.3 197.698 133.3 197.598C133.5 197.398 133.6 197.298 133.8 197.098C134 196.898 134.2 196.698 134.2 196.398C134.2 196.198 134.1 195.898 134.1 195.698C134.1 195.498 134.1 195.198 134.3 194.998C134.4 194.698 134.7 194.298 134.8 193.998C134.9 193.598 134.8 193.198 135 192.798C135.6 192.198 135.4 191.498 135.5 190.798C135.5 190.198 135.5 189.498 135.3 188.998C135.2 188.698 135.6 188.298 135.4 187.998C135.4 187.898 136.6 187.098 137.1 186.898H137.3C137.9 187.098 138.8 187.298 138.8 187.898C138.9 188.698 139.1 189.598 139.1 190.298L139.3 190.698Z" fill="black"/>
<path d="M157.1 190.698C157.1 191.398 157.1 192.098 157.1 192.698C157.1 192.898 156.8 193.198 157.3 193.498C157.6 193.698 156.9 193.798 156.9 193.998C156.9 194.598 156.7 195.098 156.7 195.698C156.7 196.298 156.7 196.998 156.6 197.598C156.4 198.298 155.9 198.898 155.7 199.698C155.5 200.398 154.7 200.598 154.4 200.998C154 201.498 153.5 201.998 152.9 201.998C152.4 201.998 152 201.998 151.7 202.298C151.5 202.398 151.4 202.798 151.1 202.898C150.8 202.898 150.5 202.798 150.4 203.398C150.4 203.398 150.3 203.398 150.2 203.298C149.8 202.998 149.5 202.998 149.3 203.298C149.1 203.598 148.9 203.598 148.7 203.598C148.1 203.598 147.5 203.698 146.9 203.598C146.5 203.598 146 203.198 145.6 203.098C145.2 202.998 144.6 203.098 144.3 202.698C144 202.298 143.6 202.198 143.3 201.998C143.1 201.998 143 201.498 142.5 201.998H142.4C142.2 200.998 141.2 201.598 140.7 200.998C140.3 200.398 139.7 200.098 139.2 199.598C139.1 199.498 139.1 199.198 138.6 199.398C138.4 199.398 138.3 199.398 138.3 199.198C138.4 198.398 137.8 198.198 137.6 197.698C137.4 197.198 136.8 196.798 137 195.998C137 195.698 137 195.398 136.4 195.298C136.1 195.298 136.2 194.898 136.1 194.698C136 194.598 135.7 194.498 135.6 194.298C135.6 194.198 135.7 193.898 135.8 193.798V193.698C134.9 193.098 135.6 191.998 135.4 191.298C135.1 190.498 135.1 189.698 135.2 188.898C135.2 188.498 135.4 187.998 136.6 187.798C137.1 187.698 137.7 187.798 138 187.798C138.2 187.898 138.5 188.098 138.5 188.198C138.5 188.398 138.7 188.598 138.8 188.798C139 189.198 139.6 189.598 139.3 190.098C139.3 190.198 139.5 190.398 139 190.498C139 190.498 139 190.498 139 190.598C139.9 191.098 139.4 191.698 139.6 192.198C139.8 192.698 140.5 192.898 140.4 193.398C141.1 193.398 141.1 193.698 141 193.998C140.8 195.098 141.7 195.598 142.2 196.198C142.7 196.898 143.5 197.398 144.2 197.798C144.3 197.798 144.6 197.598 144.6 197.898C144.6 198.198 144.9 198.098 145.1 198.198C145.3 198.198 145.5 198.198 145.6 198.398C146.1 199.198 146.9 198.898 147.5 198.998C148.2 198.998 148.9 198.998 149.5 198.698C149.9 198.498 150.1 197.998 150.5 197.998C150.7 197.998 150.6 197.598 151.1 197.998C151.2 198.098 151.1 197.698 151.1 197.598C151.3 197.398 151.4 197.298 151.6 197.098C151.8 196.898 152 196.698 152 196.398C152 196.198 151.9 195.898 151.9 195.698C151.9 195.498 151.9 195.198 152.1 194.998C152.2 194.698 152.5 194.298 152.6 193.998C152.7 193.598 152.6 193.198 152.8 192.798C153.4 192.198 153.2 191.498 153.3 190.798C153.3 190.198 153.3 189.498 153.1 188.998C153 188.698 153.4 188.298 153.2 187.998C153.2 187.898 154.4 187.098 154.9 186.898H155.1C155.7 187.098 156.6 187.298 156.6 187.898C156.7 188.698 156.9 189.598 156.9 190.298L157.1 190.698Z" fill="black"/>
<path d="M175.001 190.698C175.001 191.398 175.001 192.098 175.001 192.698C175.001 192.898 174.701 193.198 175.201 193.498C175.501 193.698 174.801 193.798 174.801 193.998C174.801 194.598 174.601 195.098 174.601 195.698C174.601 196.298 174.601 196.998 174.501 197.598C174.301 198.298 173.801 198.898 173.601 199.698C173.401 200.398 172.601 200.598 172.301 200.998C171.901 201.498 171.401 201.998 170.801 201.998C170.301 201.998 169.901 201.998 169.601 202.298C169.401 202.398 169.301 202.798 169.001 202.898C168.701 202.898 168.401 202.798 168.301 203.398C168.301 203.398 168.201 203.398 168.101 203.298C167.701 202.998 167.401 202.998 167.201 203.298C167.001 203.598 166.801 203.598 166.601 203.598C166.001 203.598 165.401 203.698 164.801 203.598C164.401 203.598 163.901 203.198 163.501 203.098C163.101 202.998 162.501 203.098 162.201 202.698C161.901 202.298 161.501 202.198 161.201 201.998C161.001 201.998 160.901 201.498 160.401 201.998H160.301C160.101 200.998 159.101 201.598 158.601 200.998C158.201 200.398 157.601 200.098 157.101 199.598C157.001 199.498 157.001 199.198 156.501 199.398C156.301 199.398 156.201 199.398 156.201 199.198C156.301 198.398 155.701 198.198 155.501 197.698C155.301 197.198 154.701 196.798 154.901 195.998C154.901 195.698 154.901 195.398 154.301 195.298C154.001 195.298 154.101 194.898 154.001 194.698C153.901 194.598 153.601 194.498 153.501 194.298C153.501 194.198 153.601 193.898 153.701 193.798V193.698C152.801 193.098 153.501 191.998 153.301 191.298C153.001 190.498 153.001 189.698 153.101 188.898C153.101 188.498 153.301 187.998 154.501 187.798C155.001 187.698 155.601 187.798 155.901 187.798C156.101 187.898 156.401 188.098 156.401 188.198C156.401 188.398 156.601 188.598 156.701 188.798C156.901 189.198 157.501 189.598 157.201 190.098C157.201 190.198 157.401 190.398 156.901 190.498C156.901 190.498 156.901 190.498 156.901 190.598C157.801 191.098 157.301 191.698 157.501 192.198C157.701 192.698 158.401 192.898 158.301 193.398C159.001 193.398 159.001 193.698 158.901 193.998C158.701 195.098 159.601 195.598 160.101 196.198C160.601 196.898 161.401 197.398 162.101 197.798C162.201 197.798 162.501 197.598 162.501 197.898C162.501 198.198 162.801 198.098 163.001 198.198C163.201 198.198 163.401 198.198 163.501 198.398C164.001 199.198 164.801 198.898 165.401 198.998C166.101 198.998 166.801 198.998 167.401 198.698C167.801 198.498 168.001 197.998 168.401 197.998C168.601 197.998 168.501 197.598 169.001 197.998C169.101 198.098 169.001 197.698 169.001 197.598C169.201 197.398 169.301 197.298 169.501 197.098C169.701 196.898 169.901 196.698 169.901 196.398C169.901 196.198 169.801 195.898 169.801 195.698C169.801 195.498 169.801 195.198 170.001 194.998C170.101 194.698 170.401 194.298 170.501 193.998C170.601 193.598 170.501 193.198 170.701 192.798C171.301 192.198 171.101 191.498 171.201 190.798C171.201 190.198 171.201 189.498 171.001 188.998C170.901 188.698 171.301 188.298 171.101 187.998C171.101 187.898 172.301 187.098 172.801 186.898H173.001C173.601 187.098 174.501 187.298 174.501 187.898C174.601 188.698 174.801 189.598 174.801 190.298L175.001 190.698Z" fill="black"/>
</svg>
