<svg width="300" height="300" viewBox="0 0 300 300" fill="none" xmlns="http://www.w3.org/2000/svg">
<path d="M191.201 141.798C190.101 140.598 189.001 139.398 187.901 138.298C187.501 137.898 187.301 137.298 186.401 137.198C186.001 137.198 186.101 136.298 185.701 135.898C184.601 134.898 183.701 133.698 182.601 132.698C181.601 131.698 180.401 130.798 179.401 129.798C178.401 128.798 177.601 127.498 176.401 126.698C175.401 125.998 175.001 124.898 174.101 124.098C173.201 123.298 172.301 122.598 171.701 121.798C171.201 121.198 170.701 120.598 170.101 120.398C169.701 120.298 169.201 120.398 168.701 120.298C168.301 120.198 167.801 119.798 167.301 120.298C167.301 120.298 167.101 120.198 167.001 120.098C166.601 119.598 165.901 119.598 165.401 119.798C164.901 119.998 164.501 119.998 164.101 119.998C162.901 119.998 161.701 119.998 160.501 119.998C159.601 119.998 158.701 119.698 157.801 119.698C156.901 119.698 155.901 119.998 155.001 119.698C154.101 119.498 153.301 119.498 152.401 119.698C151.901 119.698 151.301 119.498 151.001 120.198C151.001 120.198 150.801 120.198 150.701 120.198C149.201 119.498 148.001 120.798 146.601 120.798C145.201 120.798 143.701 121.198 142.301 121.598C141.901 121.598 141.501 121.598 141.201 122.098C141.201 122.298 140.701 122.398 140.501 122.298C139.301 121.898 138.301 122.598 137.201 122.798C135.901 122.998 134.901 123.698 133.601 123.598C133.101 123.598 132.301 123.798 132.101 124.498C132.001 124.898 131.401 124.898 131.001 125.098C130.701 125.298 130.601 125.698 130.401 125.898C130.201 126.098 129.801 125.998 129.601 126.098C129.601 126.098 129.401 126.098 129.401 126.298C129.101 126.998 128.601 127.498 128.101 128.098C127.601 128.598 127.101 129.298 126.901 130.098C126.501 131.698 126.101 133.398 125.901 135.098C125.801 136.098 125.501 137.098 124.401 137.798C123.901 138.098 123.301 138.098 123.001 137.598C122.801 137.298 122.601 136.898 122.501 136.498C122.501 135.898 122.301 135.298 122.301 134.598C122.301 133.298 121.901 131.898 122.501 130.598C122.701 130.198 122.501 129.598 123.101 129.398C123.101 129.398 123.301 129.198 123.301 129.098C123.201 127.098 124.601 125.398 126.001 123.898C127.101 122.698 128.201 121.198 129.801 120.598C130.301 119.598 131.401 119.298 132.301 119.098C133.901 118.898 135.301 118.498 136.801 118.098C138.201 117.698 139.601 117.198 141.101 116.998C144.101 116.398 147.001 115.798 150.001 115.498C150.501 115.498 150.901 114.998 151.501 115.298C152.101 115.498 152.801 115.298 153.401 115.198C154.001 115.198 154.601 114.998 155.201 115.098C157.601 115.598 159.901 115.098 162.301 115.298C164.601 115.398 167.001 115.498 169.601 115.998C171.101 116.298 172.901 116.798 174.201 117.898C174.701 118.398 175.501 118.598 175.501 119.498C175.501 119.698 176.301 119.798 176.601 120.098C177.301 120.798 178.001 121.498 178.601 122.198C179.501 123.198 180.401 124.198 181.301 125.098C181.901 125.698 182.601 126.098 183.201 126.598C183.801 127.198 184.401 127.798 184.901 128.498C185.601 129.298 186.201 130.298 186.901 131.098C187.601 131.998 188.601 132.598 189.101 133.598C190.101 135.398 191.601 136.698 192.901 138.198C194.201 139.698 195.501 141.198 197.001 142.498C197.801 143.298 198.101 144.398 198.901 145.198C199.201 145.598 198.601 147.098 198.101 147.298C198.101 147.298 197.901 147.298 197.801 147.298C196.701 146.798 195.501 146.598 194.701 145.698C193.501 144.298 192.201 142.998 191.001 141.698L191.201 141.798Z" fill="black"/>
<path d="M157.801 146.296C157.801 146.096 157.801 145.896 157.801 145.796C157.801 145.796 158.001 145.696 157.501 145.596C157.201 145.596 157.901 145.496 157.801 145.396C157.801 145.196 157.801 145.096 157.801 144.896C157.801 144.696 157.501 144.596 157.501 144.396C157.501 144.196 157.801 144.096 157.501 143.896C157.201 143.696 157.701 143.696 157.601 143.496C157.501 143.396 157.401 143.196 157.601 143.096C157.801 143.096 158.001 142.896 157.901 142.796C157.901 142.796 157.501 142.596 157.601 142.596C157.601 142.596 157.901 142.596 157.301 142.396C157.301 142.396 157.301 142.396 157.501 142.396C157.901 142.396 157.901 142.396 157.601 142.196C157.301 142.196 157.401 142.096 157.401 141.996C157.401 141.896 157.401 141.696 157.401 141.596C157.401 141.596 157.701 141.396 157.801 141.396C157.801 141.396 157.601 141.096 157.901 141.096C158.201 141.096 158.201 140.996 158.201 140.896C158.201 140.896 158.501 140.896 157.901 140.696C158.701 140.696 157.701 140.296 157.901 140.196C158.101 140.096 158.001 139.896 158.101 139.696C158.101 139.696 158.301 139.696 157.901 139.496C157.701 139.396 157.701 139.496 157.901 139.496C158.501 139.496 158.201 139.296 158.301 139.196C158.501 139.096 158.301 138.896 158.701 138.896C158.901 138.896 159.001 138.896 158.501 138.596C158.301 138.496 158.501 138.596 158.501 138.396L158.201 138.196C158.201 138.196 158.401 138.196 158.601 138.196C158.001 137.796 159.001 137.896 158.901 137.596C158.901 137.296 158.901 137.196 159.101 136.996C159.101 136.996 159.401 136.896 160.501 137.196C161.001 137.396 161.501 137.596 161.801 137.796C162.001 137.896 162.201 137.996 162.201 138.096C162.201 138.096 162.401 138.296 162.401 138.396C162.501 138.596 163.001 138.896 162.701 138.896C162.701 138.896 162.901 139.096 162.401 138.896C163.101 139.296 162.501 139.296 162.501 139.496C162.501 139.596 163.101 139.996 162.801 139.996C163.401 140.296 163.201 140.296 163.001 140.296C162.301 140.296 162.601 140.696 162.501 140.996C162.301 141.196 162.401 141.496 162.301 141.796C162.301 141.796 162.601 141.996 162.301 141.996C162.001 141.996 162.301 142.096 162.301 142.196C162.301 142.196 162.401 142.296 162.301 142.396C161.601 142.396 162.001 142.796 161.901 142.996C161.901 143.196 161.701 143.396 161.901 143.596C161.901 143.696 162.301 143.896 162.201 143.996C162.201 143.996 162.501 144.096 161.901 144.096C161.701 144.096 162.201 144.096 162.201 144.196C162.201 144.196 162.201 144.396 162.201 144.496C162.201 144.596 162.201 144.696 162.201 144.896L162.501 145.096V145.296C162.501 145.296 162.201 145.496 162.101 145.596C162.101 145.696 162.301 145.796 162.101 145.896C161.601 146.096 161.801 146.296 161.801 146.496C161.801 146.696 161.801 146.896 161.801 146.996C161.801 146.996 161.401 147.196 161.401 147.296C161.401 147.296 159.901 147.496 159.401 147.596H159.201C158.701 147.596 158.001 147.496 158.001 147.296C158.001 147.096 158.001 146.896 158.001 146.696L157.801 146.296Z" fill="black"/>
<path d="M168.201 147.097C168.201 146.897 168.201 146.697 168.201 146.597C168.201 146.597 168.401 146.497 167.901 146.397C167.601 146.397 168.301 146.297 168.201 146.197C168.201 145.997 168.201 145.897 168.201 145.697C168.201 145.497 167.901 145.397 167.901 145.197C167.901 144.997 168.201 144.897 167.901 144.697C167.601 144.497 168.101 144.497 168.001 144.297C167.901 144.197 167.801 143.997 168.001 143.897C168.201 143.897 168.401 143.697 168.301 143.597C168.301 143.597 167.901 143.397 168.001 143.397C168.001 143.397 168.301 143.397 167.701 143.197C167.701 143.197 167.701 143.197 167.901 143.197C168.301 143.197 168.301 143.197 168.001 142.997C167.701 142.997 167.801 142.897 167.801 142.797C167.801 142.697 167.801 142.497 167.801 142.397C167.801 142.397 168.101 142.197 168.201 142.197C168.201 142.197 168.001 141.897 168.301 141.897C168.601 141.897 168.601 141.797 168.601 141.697C168.601 141.697 168.901 141.697 168.301 141.497C169.101 141.497 168.101 141.097 168.301 140.997C168.501 140.897 168.401 140.697 168.501 140.497C168.501 140.497 168.701 140.497 168.301 140.297C168.101 140.197 168.101 140.297 168.301 140.297C168.901 140.297 168.601 140.097 168.701 139.997C168.901 139.897 168.701 139.697 169.101 139.697C169.301 139.697 169.401 139.697 168.901 139.397C168.701 139.297 168.901 139.397 168.901 139.197L168.601 138.997C168.601 138.997 168.801 138.997 169.001 138.997C168.401 138.597 169.401 138.697 169.301 138.397C169.301 138.097 169.301 137.997 169.501 137.797C169.501 137.797 169.801 137.697 170.901 137.997C171.401 138.197 171.901 138.397 172.201 138.597C172.401 138.697 172.601 138.797 172.601 138.897C172.601 138.897 172.801 139.097 172.801 139.197C172.901 139.397 173.401 139.697 173.101 139.697C173.101 139.697 173.301 139.897 172.801 139.697C173.501 140.097 172.901 140.097 172.901 140.297C172.901 140.397 173.501 140.797 173.201 140.797C173.801 141.097 173.601 141.097 173.401 141.097C172.701 141.097 173.001 141.497 172.901 141.797C172.701 141.997 172.801 142.297 172.701 142.597C172.701 142.597 173.001 142.797 172.701 142.797C172.401 142.797 172.701 142.897 172.701 142.997C172.701 142.997 172.801 143.097 172.701 143.197C172.001 143.197 172.401 143.597 172.301 143.797C172.301 143.997 172.101 144.197 172.301 144.397C172.301 144.497 172.701 144.697 172.601 144.797C172.601 144.797 172.901 144.897 172.301 144.897C172.101 144.897 172.601 144.897 172.601 144.997C172.601 144.997 172.601 145.197 172.601 145.297C172.601 145.397 172.601 145.497 172.601 145.697L172.901 145.897V146.097C172.901 146.097 172.601 146.297 172.501 146.397C172.501 146.497 172.701 146.597 172.501 146.697C172.001 146.897 172.201 147.097 172.201 147.297C172.201 147.497 172.201 147.697 172.201 147.797C172.201 147.797 171.801 147.997 171.801 148.097C171.801 148.097 170.301 148.297 169.801 148.397H169.601C169.101 148.397 168.401 148.297 168.401 148.097C168.401 147.897 168.401 147.697 168.401 147.497L168.201 147.097Z" fill="black"/>
<path d="M186.6 194.598C187.2 193.998 187.8 193.498 188.4 192.798C188.6 192.598 189 192.498 188.8 191.898C188.8 191.598 189.4 191.898 189.6 191.598C190.1 190.998 190.7 190.498 191.1 189.898C191.5 189.298 191.8 188.598 192.2 187.998C192.6 187.398 193.3 186.998 193.4 186.198C193.5 185.598 194.2 185.398 194.4 184.798C194.6 184.198 194.8 183.698 195.3 183.198L195.5 182.998C195.5 182.998 195.6 182.998 195.7 182.998C195.7 182.998 195.8 182.898 195.8 182.798C195.8 182.798 195.4 182.698 195.4 182.598C195.4 182.598 195.6 182.398 195 182.598C195 182.598 195 182.598 195.1 182.598C195.4 182.298 195.4 182.298 194.9 182.298C194.5 182.298 194.4 182.098 194.2 181.898C193.8 181.398 193.3 180.998 192.9 180.498C192.6 180.098 192.5 179.598 192.2 179.198C191.9 178.798 191.3 178.598 191.2 178.098C191.1 177.598 190.8 177.298 190.5 176.898C190.3 176.698 190.3 176.298 189.7 176.598C189.7 176.598 189.6 176.598 189.6 176.498C189.6 175.398 188.4 175.698 188 174.998C187.6 174.298 186.9 173.898 186.3 173.398C186.1 173.298 186.1 172.998 185.7 173.198C185.5 173.198 185.4 173.198 185.4 172.998C185.4 172.198 184.7 171.998 184.3 171.598C183.9 171.098 183.2 170.798 183 169.998C183 169.698 182.7 169.298 182 169.598C181.7 169.698 181.6 169.298 181.4 169.198C181.2 169.198 180.9 169.198 180.7 169.098C180.6 168.998 180.6 168.698 180.5 168.498C180.5 168.498 180.5 168.498 180.4 168.398C179.2 168.398 179 166.998 178.1 166.598C177.2 166.098 176.4 165.498 175.7 164.798C175.3 164.398 174.9 163.998 175.3 162.798C175.5 162.298 175.8 161.798 176.1 161.698C176.4 161.698 176.7 161.498 176.9 161.698C177.2 161.698 177.6 161.898 177.9 161.998C178.5 162.198 179.4 162.198 179.8 162.798C179.9 162.998 180.3 162.898 180.1 163.398C180.1 163.398 180.1 163.598 180.1 163.498C181.3 163.498 181.7 164.398 182.5 164.898C183.2 165.298 184.1 165.298 184.6 166.098C185.3 165.898 185.7 166.298 185.9 166.698C186.7 168.198 188.1 168.898 189.2 169.998C190.3 171.098 191.5 172.198 192.6 173.298C192.8 173.498 193.2 173.398 193.2 173.798C193.2 174.198 193.6 174.298 193.9 174.598C194.1 174.798 194.5 174.998 194.5 175.298C194.9 176.698 196 177.298 196.8 178.298C197.2 178.798 197.6 179.298 198 179.698L198.9 180.698C199.2 181.098 199.6 181.398 199.9 181.798C199.9 181.898 200.2 181.998 200.2 182.098V182.498C200.1 182.498 199.8 183.398 199.8 183.398C199.8 183.698 199.6 183.998 199.5 184.298C199.5 184.498 199.4 184.598 199.3 184.798V184.998C199.2 184.998 199.1 185.098 199.1 185.098C198.9 185.398 199.1 185.898 198.3 185.898C198.1 185.898 198.3 186.398 198.3 186.598C198.1 187.098 197.7 187.498 197.5 187.998C197.1 188.598 196.6 189.198 196.2 189.898C196 190.298 195.9 190.798 195.6 191.198C195.3 191.598 195 191.998 194.7 192.298C194.2 192.698 193.7 192.998 193.3 193.398C192.8 193.798 192.6 194.498 192 194.698C190.9 195.098 190.3 196.098 189.5 196.798C188.7 197.498 187.9 198.198 187.2 198.998C186.8 199.498 186.1 199.498 185.6 199.898C185.4 200.098 184.1 199.198 183.9 198.798V198.598C184 197.898 183.9 196.998 184.4 196.598C185.2 195.998 185.8 195.298 186.5 194.698L186.6 194.598Z" fill="black"/>
<path d="M179.4 193.799C179.5 193.799 179.6 193.899 179.7 193.799C179.7 193.799 179.7 194.099 179.9 193.599C180 193.399 179.9 193.999 179.9 193.999C180 193.999 180.1 193.999 180.2 193.999C180.3 193.999 180.5 193.799 180.6 193.799C180.7 193.799 180.7 194.099 180.9 193.799C181.1 193.599 180.9 194.099 181.1 193.999C181.2 193.999 181.3 193.899 181.3 194.099C181.3 194.299 181.3 194.499 181.3 194.399L181.5 194.099C181.5 194.099 181.5 194.399 181.7 193.799C181.7 193.799 181.7 193.799 181.7 193.899C181.7 194.299 181.7 194.299 181.7 193.999C181.8 193.799 181.8 193.799 181.9 193.799H182.1C182.1 193.799 182.1 194.099 182.1 194.199C182.1 194.199 182.3 193.999 182.3 194.299C182.3 194.599 182.3 194.599 182.3 194.599C182.3 194.599 182.3 194.899 182.5 194.299C182.3 195.099 182.8 194.099 182.8 194.299C182.8 194.499 183 194.399 183.1 194.399C183.1 194.399 183.1 194.599 183.3 194.199C183.3 193.999 183.3 193.999 183.3 194.199C183.2 194.799 183.3 194.499 183.4 194.599C183.4 194.699 183.6 194.499 183.5 194.999C183.5 195.199 183.5 195.299 183.7 194.799C183.8 194.599 183.7 194.799 183.8 194.799L184 194.499C184 194.499 184 194.699 184 194.799C184.3 194.199 184.2 195.099 184.3 194.999C184.5 194.899 184.6 194.999 184.7 195.099C184.7 195.099 184.7 195.399 184.4 196.499C184.3 196.999 184.1 197.499 183.9 197.799C183.9 197.999 183.7 198.199 183.7 198.299C183.7 198.299 183.5 198.499 183.5 198.599C183.4 198.799 183.1 199.199 183.1 198.899C183.1 198.899 183 199.099 183.1 198.599C182.7 199.299 182.8 198.799 182.7 198.799C182.6 198.799 182.3 199.399 182.3 199.099C182 199.699 182 199.599 182 199.399C182 198.699 181.7 199.099 181.5 198.899C181.3 198.799 181.1 198.799 181 198.699C181 198.699 180.8 198.999 180.9 198.699C180.9 198.399 180.9 198.699 180.8 198.699C180.8 198.699 180.7 198.799 180.7 198.699C180.7 197.999 180.5 198.399 180.4 198.199C180.3 198.099 180.2 197.999 180 198.099C179.9 198.099 179.7 198.499 179.6 198.299C179.6 198.299 179.4 198.499 179.6 197.999C179.6 197.799 179.5 198.299 179.4 198.299C179.4 198.299 179.3 198.299 179.2 198.299C179.2 198.299 179 198.299 178.9 198.299C178.9 198.299 178.7 198.499 178.6 198.599C178.6 198.599 178.5 198.599 178.4 198.599C178.4 198.599 178.4 198.299 178.4 198.199C178.4 198.199 178.2 198.399 178.2 198.099C178.2 197.599 178 197.799 177.9 197.699C177.8 197.699 177.7 197.499 177.5 197.599V197.099C177.5 197.099 177.9 195.699 178.1 195.199V194.999C178.3 194.599 178.6 193.899 178.7 193.999C178.7 194.099 178.9 193.999 179 194.099L179.4 193.799Z" fill="black"/>
<path d="M177.2 208.198C177.1 207.998 177 207.698 176.9 207.498C176.9 207.498 177.1 207.298 176.5 207.298C176.2 207.298 176.8 207.098 176.8 206.998C176.7 206.798 176.8 206.598 176.6 206.398C176.6 206.198 176.3 205.998 176.2 205.798C176.2 205.598 176.4 205.398 176.1 205.198C175.8 205.098 176.3 204.898 176.1 204.798C176 204.698 175.9 204.498 176.1 204.298C176.3 204.198 176.5 204.098 176.4 203.998C176.4 203.998 176 203.898 176 203.798C176 203.798 176.3 203.698 175.7 203.598C175.7 203.598 175.7 203.598 175.8 203.598C176.2 203.598 176.2 203.398 175.9 203.398C175.6 203.398 175.7 203.298 175.7 203.198C175.7 203.098 175.7 202.898 175.7 202.798C175.7 202.698 176 202.598 176.1 202.498C176.1 202.398 175.9 202.298 176.1 202.198C176.4 202.198 176.4 201.998 176.4 201.898C176.4 201.898 176.7 201.798 176.1 201.698C176.9 201.598 175.9 201.398 176.1 201.198C176.3 200.998 176.1 200.898 176.1 200.698C176.1 200.698 176.3 200.698 175.8 200.498C175.6 200.498 175.6 200.498 175.8 200.498C176.4 200.498 176.1 200.298 176.2 200.098C176.3 199.998 176.1 199.798 176.6 199.698C176.8 199.698 176.9 199.598 176.4 199.398C176.1 199.398 176.4 199.298 176.4 199.198C176.4 199.198 176.1 199.098 176.1 198.998C176.1 198.998 176.3 198.998 176.5 198.998C175.9 198.698 176.8 198.598 176.6 198.298C176.4 198.098 176.6 197.798 176.6 197.598C176.6 197.498 176.9 197.398 178 197.498C178.5 197.498 179.1 197.598 179.4 197.698C179.6 197.698 179.8 197.898 179.9 197.898C179.9 197.898 180.1 198.098 180.2 198.098C180.4 198.298 180.9 198.498 180.6 198.598C180.6 198.598 180.8 198.698 180.3 198.598C181.1 198.898 180.5 198.998 180.6 199.198C180.6 199.398 181.2 199.598 181 199.698C181.6 199.898 181.5 199.898 181.3 199.998C180.6 200.198 181 200.598 180.9 200.898C180.8 201.198 180.9 201.498 180.9 201.798C180.9 201.798 181.2 201.898 180.9 201.998C180.6 201.998 180.9 202.098 180.9 202.198C180.9 202.198 181 202.298 180.9 202.398C180.2 202.598 180.6 202.898 180.5 203.098C180.5 203.298 180.4 203.598 180.5 203.798C180.6 203.898 180.9 204.098 180.8 204.198C180.8 204.198 181.1 204.298 180.5 204.398C180.3 204.398 180.8 204.398 180.8 204.498C180.8 204.498 180.8 204.698 180.8 204.798C180.8 204.898 180.8 204.998 180.8 205.198C180.8 205.198 181.1 205.298 181.2 205.398C181.2 205.398 181.2 205.498 181.2 205.598C181.2 205.598 180.9 205.798 180.9 205.898C180.9 205.998 181.1 205.998 180.9 206.198C180.4 206.498 180.7 206.498 180.7 206.698C180.7 206.798 180.7 206.998 180.9 206.998C180.9 206.998 180.6 207.298 180.7 207.398C180.7 207.398 180.7 207.398 180.5 207.598C180.4 207.598 180.2 207.798 180.1 207.998C179.8 208.298 179.4 208.598 179.2 208.798L179 208.898C178.6 209.098 177.9 209.398 177.8 209.198C177.7 208.898 177.5 208.698 177.4 208.398L177.2 208.198Z" fill="black"/>
<path d="M193 213.402C192.7 213.402 192.5 213.402 192.2 213.402C192.2 213.402 192 213.102 191.9 213.702C191.9 214.002 191.8 213.302 191.7 213.302C191.5 213.302 191.2 213.302 191 213.302C190.8 213.302 190.5 213.502 190.3 213.602C190.1 213.602 189.9 213.302 189.6 213.602C189.4 213.902 189.3 213.302 189.1 213.402C188.9 213.402 188.7 213.502 188.5 213.302C188.4 213.102 188.3 212.902 188.1 213.002C188.1 213.002 187.9 213.402 187.8 213.302C187.8 213.302 187.7 213.002 187.5 213.602C187.5 213.602 187.5 213.602 187.5 213.402C187.5 213.002 187.4 213.002 187.2 213.202C187.1 213.502 187 213.402 186.9 213.402C186.7 213.402 186.5 213.402 186.3 213.302C186.2 213.302 186.1 213.002 185.9 212.902C185.8 212.902 185.5 213.102 185.5 212.702C185.5 212.402 185.3 212.402 185.2 212.302C185.2 212.302 185.2 212.002 184.9 212.602C184.9 211.702 184.4 212.702 184.2 212.502C184 212.202 183.8 212.302 183.5 212.302C183.5 212.302 183.5 212.102 183.2 212.502C183.2 212.702 183.1 212.602 183.1 212.502C183.1 211.802 182.8 212.202 182.7 212.002C182.5 211.802 182.3 212.002 182.2 211.502C182.2 211.302 182.1 211.102 181.8 211.702C181.7 211.902 181.7 211.702 181.6 211.702C181.6 211.702 181.4 212.002 181.3 212.002C181.3 212.002 181.3 211.702 181.3 211.602C180.8 212.102 180.8 211.202 180.5 211.302C180.2 211.302 179.9 211.202 179.6 211.002C179.5 210.902 179.4 210.702 179.6 209.502C179.7 209.002 179.9 208.502 180.1 208.202C180.2 208.002 180.4 207.802 180.4 207.802C180.5 207.802 180.6 207.602 180.8 207.602C181 207.502 181.4 207.002 181.5 207.402C181.5 207.502 181.7 207.202 181.5 207.702C182 207.002 182.1 207.702 182.3 207.702C182.5 207.702 182.9 207.202 183 207.502C183.3 206.902 183.4 207.102 183.4 207.302C183.6 208.102 184.1 207.702 184.5 207.902C184.9 208.102 185.3 208.102 185.7 208.302C185.7 208.302 185.9 208.002 185.9 208.302C185.9 208.602 186.1 208.302 186.2 208.402H186.4C186.6 209.102 187 208.802 187.3 208.902C187.6 209.002 187.9 209.202 188.3 209.102C188.5 209.102 188.8 208.702 188.9 208.902C188.9 208.902 189.1 208.602 189.1 209.202C189.1 209.402 189.2 208.902 189.3 208.902C189.4 208.902 189.6 208.902 189.7 208.902C189.9 208.902 190.1 208.902 190.3 208.902C190.4 208.902 190.6 208.602 190.7 208.602C190.8 208.602 190.9 208.602 191.1 208.602C191.2 208.602 191.4 208.902 191.5 209.002C191.7 209.002 191.8 208.802 192 209.102C192.2 209.602 192.6 209.402 192.8 209.502C193.1 209.502 193.4 209.602 193.7 209.502C193.9 209.502 194 209.902 194.2 209.902C194.2 209.902 194.3 211.402 194.2 211.902V212.102C194 212.602 193.8 213.302 193.7 213.202C193.4 213.202 193.1 213.202 192.8 213.202L193 213.402Z" fill="black"/>
<path d="M217.001 191.499C216.701 191.999 216.401 192.499 216.101 192.899C216.001 193.099 215.701 193.099 216.001 193.599C216.201 193.799 215.501 193.599 215.401 193.799C215.201 194.299 214.801 194.599 214.501 195.099C214.201 195.499 214.101 196.099 213.801 196.499C213.501 196.899 213.001 197.099 212.901 197.699C212.901 198.199 212.201 198.099 212.001 198.499C211.801 198.899 211.601 199.299 211.101 199.399C210.801 199.399 210.401 199.499 210.301 199.799C210.301 199.999 210.301 200.299 210.201 200.499C210.101 200.599 209.701 200.499 210.001 201.099C210.001 201.099 209.901 201.099 209.801 201.099C209.401 200.899 209.201 201.099 209.301 201.499C209.301 201.799 209.301 201.899 209.101 201.999C208.801 202.299 208.501 202.599 208.201 202.899C207.901 203.099 207.601 203.099 207.301 203.299C207.001 203.499 207.001 203.899 206.501 203.899C206.101 203.899 205.901 204.099 205.701 204.299C205.601 204.399 205.201 204.299 205.601 204.899C204.701 204.599 205.101 205.699 204.601 205.899C204.101 206.099 203.801 206.499 203.501 206.899C203.501 206.899 203.201 206.899 203.501 207.399C203.501 207.499 203.501 207.699 203.401 207.599C202.701 207.399 202.701 207.899 202.401 208.099C202.001 208.299 201.901 208.799 201.301 208.699C201.001 208.699 200.801 208.699 201.001 209.299C201.101 209.599 200.801 209.499 200.701 209.699C200.701 209.799 200.701 210.099 200.701 210.199C200.701 210.199 200.401 210.199 200.201 210.199C200.201 211.099 199.201 210.899 198.901 211.499C198.601 212.099 198.201 212.499 197.701 212.899C197.401 213.099 197.101 213.299 196.001 212.699C195.501 212.399 195.101 212.099 195.001 211.799C194.901 211.599 194.801 211.299 194.801 211.199C194.801 210.999 194.901 210.699 194.901 210.499C195.001 210.099 194.901 209.399 195.401 209.299C195.601 209.299 195.401 208.899 195.901 209.299H196.001C195.801 208.299 196.601 208.199 197.001 207.799C197.301 207.399 197.201 206.599 197.701 206.499C197.401 205.899 197.701 205.699 198.101 205.699C199.301 205.499 199.701 204.499 200.401 203.899C201.201 203.299 201.801 202.599 202.601 201.899C202.701 201.799 202.601 201.399 202.901 201.499C203.201 201.499 203.201 201.299 203.401 201.099C203.501 200.999 203.601 200.699 203.801 200.699C204.801 200.699 205.101 199.899 205.701 199.399C206.301 198.899 206.901 198.499 207.301 197.799C207.501 197.399 207.601 196.799 208.001 196.599C208.201 196.599 208.001 196.099 208.601 196.399C208.801 196.399 208.601 195.999 208.601 195.899C208.801 195.599 209.001 195.399 209.201 195.199C209.501 194.899 209.801 194.599 210.001 194.199C210.101 193.999 210.101 193.599 210.201 193.399C210.301 193.199 210.501 192.999 210.701 192.799C211.001 192.599 211.301 192.499 211.601 192.199C211.901 191.999 211.801 191.499 212.301 191.399C213.101 191.199 213.201 190.499 213.601 189.999C214.001 189.499 214.301 188.999 214.501 188.399C214.501 188.099 215.201 187.999 215.301 187.699C215.301 187.599 216.801 187.999 217.201 188.299C217.201 188.299 217.401 188.399 217.401 188.499C217.701 188.999 218.201 189.699 217.901 189.999C217.601 190.499 217.301 191.099 216.901 191.699L217.001 191.499Z" fill="black"/>
<path d="M215.7 182.599C215.7 181.899 215.7 181.199 215.5 180.499C215.5 180.199 215.7 179.899 215.1 179.699C214.8 179.699 215.4 179.299 215.3 178.999C215.1 178.399 215.1 177.699 214.9 177.099C214.7 176.499 214.3 175.899 214.1 175.299C213.9 174.699 214 173.999 213.5 173.499C213.1 173.099 213.5 172.499 213.1 171.999C212.8 171.499 212.5 171.099 212.6 170.499C212.6 170.099 212.6 169.599 212.4 169.299C212.2 169.099 211.9 168.999 211.8 168.799C211.8 168.599 211.8 168.199 211.2 168.299C211.2 168.299 211.2 168.199 211.2 168.099C211.5 167.699 211.2 167.399 210.9 167.299C210.6 167.299 210.5 167.099 210.4 166.899C210.1 166.399 209.8 165.999 209.6 165.499C209.4 165.099 209.4 164.699 209.3 164.299C209.1 163.899 208.7 163.699 208.7 163.199C208.7 162.699 208.5 162.399 208.3 162.099C208.2 161.899 208.3 161.499 207.6 161.699C207.6 161.699 207.6 161.699 207.6 161.599C207.9 160.599 206.7 160.699 206.5 160.099C206.3 159.399 205.8 158.999 205.4 158.499C205.3 158.399 205.4 158.099 204.9 158.199C204.7 158.199 204.6 158.199 204.6 157.999C204.8 157.199 204.2 156.999 203.9 156.599C203.6 156.099 203 155.799 203 154.999C203 154.699 202.9 154.299 202.2 154.499C201.9 154.499 201.9 154.199 201.7 154.099C201.5 153.999 201.2 154.099 201.1 153.899C201 153.799 201.1 153.499 201.1 153.299C201.1 153.299 201.1 153.299 201.1 153.199C200.1 152.999 200.1 151.699 199.4 151.099C198.7 150.399 198.1 149.499 197.7 148.299C197.5 147.699 197.5 146.899 198.5 146.299C199 145.999 199.5 145.999 199.9 146.099C200.2 146.099 200.4 146.299 200.5 146.399C200.7 146.599 200.9 146.799 201 146.899C201.4 147.199 202 147.299 202.1 147.899C202.1 148.099 202.5 147.999 202.1 148.499V148.599C203.1 148.599 203.2 149.599 203.8 150.099C204.3 150.599 205.2 150.699 205.4 151.399C206.1 151.299 206.3 151.699 206.4 152.099C206.7 153.599 207.9 154.399 208.7 155.499C209.5 156.699 210.3 157.799 211.1 158.899C211.2 159.099 211.6 159.099 211.6 159.499C211.6 159.899 211.9 159.999 212 160.299C212.1 160.499 212.4 160.699 212.4 160.999C212.4 162.299 213.3 162.999 213.8 163.999C214.3 164.999 214.7 165.999 215.3 166.899C215.7 167.499 216.3 167.899 216.4 168.599C216.4 168.899 216.9 169.099 216.4 169.499C216.3 169.599 216.8 169.699 216.9 169.899C217.1 170.299 217.2 170.799 217.4 171.199C217.6 171.799 217.8 172.399 218 173.099C218.1 173.499 218.5 173.799 218.6 174.199C218.8 174.599 218.9 174.999 218.9 175.399C218.9 175.899 218.9 176.499 218.9 176.999C218.9 177.499 219.3 178.099 219.1 178.599C218.7 179.599 219.1 180.599 219.1 181.499C219.1 182.499 219.1 183.399 219.1 184.399C219.1 184.999 218.6 185.399 218.6 185.899C218.6 186.199 217.1 186.299 216.6 186.199C216.6 186.199 216.4 186.199 216.4 186.099C216 185.599 215.3 185.099 215.4 184.599C215.5 183.799 215.4 182.999 215.4 182.199L215.7 182.599Z" fill="black"/>
<path d="M152.099 174.102C152.399 174.802 152.699 175.402 152.899 176.102L153.299 177.102L153.699 178.402C154.099 179.502 154.099 180.702 153.399 181.702C153.099 182.202 152.599 182.502 152.099 182.902L150.999 183.602C150.099 184.202 149.099 184.502 148.399 185.502C148.099 186.002 146.899 186.002 146.099 186.502C143.899 187.902 141.599 189.202 139.399 190.702C137.299 192.102 135.199 193.602 133.099 195.002C131.999 195.702 130.799 196.402 129.299 196.902C127.799 197.402 126.299 197.702 124.799 197.802C123.499 197.902 122.299 197.602 121.299 197.302C120.199 196.902 119.199 196.502 118.199 196.202C115.999 195.502 113.999 194.502 112.199 193.402C110.899 192.602 109.599 191.702 108.199 191.202C107.299 190.902 106.399 190.802 105.499 190.302C104.599 189.902 103.799 189.202 102.799 189.402C102.799 189.402 102.399 189.102 102.199 189.002C101.399 188.202 100.299 187.702 99.3992 187.502C98.4992 187.402 97.8992 187.002 97.0992 186.702C95.0992 185.802 93.1992 184.902 91.1992 183.802C89.6992 183.002 88.3992 182.002 86.9992 181.102C86.2992 180.602 85.4992 180.202 84.6992 179.702C83.9992 179.202 83.1992 178.702 82.5992 177.902C81.9992 177.102 81.2992 176.202 80.8992 175.102C80.5992 174.002 80.4992 173.102 80.4992 172.302C80.4992 171.402 80.7992 170.302 80.1992 169.502C80.1992 169.502 80.1992 169.102 80.1992 168.902C81.1992 166.402 80.4992 163.702 81.3992 161.202C82.1992 158.602 82.8992 156.002 83.7992 153.502C83.9992 152.802 84.4992 152.202 84.2992 151.402C84.2992 151.102 84.4992 150.402 84.6992 150.102C85.3992 149.302 85.6992 148.402 86.1992 147.302C86.4992 146.702 86.7992 146.102 87.1992 145.602C87.5992 145.002 88.0992 144.502 88.5992 144.202C89.7992 143.302 90.7992 142.802 91.7992 142.202C92.8992 141.602 93.9992 141.202 95.1992 140.902C96.1992 140.702 97.4992 140.302 98.4992 139.402C98.9992 139.002 100.199 138.902 100.999 138.702C101.699 138.502 102.299 138.102 102.999 137.902C103.599 137.802 104.199 137.902 104.799 137.902C104.999 137.902 105.199 137.902 105.399 137.902C108.699 136.702 112.199 137.302 115.499 136.902C118.899 136.502 122.199 136.502 125.499 136.302C127.299 136.202 129.199 136.202 130.599 137.102C131.199 137.502 131.299 138.102 130.599 138.502C130.099 138.802 129.399 139.102 128.799 139.302C127.699 139.502 126.699 139.802 125.699 139.902C123.599 140.302 121.399 140.902 119.199 140.802C118.499 140.802 117.699 141.102 117.099 140.602C117.099 140.602 116.699 140.602 116.599 140.602C113.699 141.602 110.599 141.202 107.699 141.702C105.199 142.102 102.999 143.102 100.599 143.602C99.4992 144.602 97.9992 145.002 96.6992 145.302C95.4992 145.602 94.3992 146.002 93.3992 146.602C92.2992 147.102 91.2992 147.802 90.7992 148.302C90.2992 148.802 89.9992 149.702 89.4992 151.002L88.1992 154.602C86.3992 159.302 84.9992 164.202 84.5992 169.002C84.5992 169.802 84.8992 170.502 84.5992 171.502C84.4992 171.902 84.4992 172.502 84.5992 173.002C84.5992 173.502 84.7992 173.902 84.8992 174.102C84.9992 174.502 85.4992 174.802 86.0992 175.502C87.3992 176.902 89.0992 178.002 90.7992 178.902C92.4992 179.902 94.2992 180.702 96.0992 181.602C99.6992 183.402 103.299 185.202 106.999 186.802C109.299 187.802 111.599 188.502 113.799 189.702C114.699 190.202 115.899 190.402 116.599 191.402C116.799 191.702 117.899 191.702 118.499 191.902C119.999 192.502 121.399 193.102 122.899 193.402C124.899 193.902 126.699 193.902 128.399 193.102C129.499 192.602 130.399 191.702 131.699 190.802C132.899 190.002 134.199 189.202 135.499 188.402C137.199 187.502 138.899 186.702 140.499 185.702C142.199 184.702 143.799 183.402 145.499 182.702C146.299 182.302 147.099 182.002 147.899 181.502L148.999 180.902L149.899 180.402C149.999 180.402 150.099 180.302 150.199 180.102C150.199 180.002 150.199 179.802 150.199 179.702L149.499 177.902C148.299 174.702 146.899 171.702 145.099 168.802C144.099 167.202 143.499 165.502 142.399 164.002C141.899 163.302 142.399 161.502 142.999 161.402C143.099 161.402 143.299 161.402 143.399 161.602C144.899 162.802 146.499 163.902 147.699 165.802C149.399 168.602 150.899 171.502 152.199 174.602L152.099 174.102Z" fill="black"/>
<path d="M157.3 177.3C158.2 177.7 159.2 178.2 160.2 178.5C160.6 178.6 160.8 179 161.4 178.6C161.7 178.4 161.8 179.1 162.2 179.2C162.7 179.3 163.1 179.5 163.6 179.6L164.3 179.8C164.4 179.8 164.5 179.8 164.5 179.8C164.5 179.8 164.5 179.8 164.6 179.8C164.9 179.8 165 179.6 165.1 179.6C165.1 179.6 165.3 179.6 165.4 179.7C165.5 179.7 165.6 179.7 165.4 179.5C165.2 179.3 165.3 179.4 165.5 179.5C165.7 179.6 166.1 179.8 165.9 179.7C165.5 179.5 165.3 179.4 165.5 179.4H165.7C166 179.5 166.2 179.5 165.9 179.4C165.7 179.3 165.2 179.1 165.2 179.1C165.2 179.1 165.4 179 164.7 179.1C164.7 179.1 164.7 179.1 164.9 179.1C165.3 179 165.1 178.8 164.9 178.9C164.5 178.8 164.3 178.5 164.1 178.2C163.6 177.5 163.1 176.7 162.7 175.9C162.4 175.3 162.3 174.6 162.1 174C161.9 173.4 161.3 172.8 161.3 172.1C161.3 171.4 161.1 170.9 160.9 170.3C160.8 170 160.9 169.5 160.2 169.5C160.2 169.5 160.1 169.4 160.2 169.3C160.6 168.1 159.3 167.6 159.2 166.5C159.1 165.5 158.7 164.5 158.4 163.6C158.4 163.3 158.4 163 157.9 162.9C157.7 162.9 157.6 162.6 157.7 162.4C157.8 162.2 157.8 162 157.8 161.8C157.8 161.8 157.8 161.6 157.8 161.5V161.3C157.8 161.3 157.7 161.3 157.8 161.1C157.8 161.1 157.8 161 157.8 160.9C157.7 160.9 157.7 160.9 157.6 160.6C157.6 160.5 157.5 160.4 157.4 160.5C157.4 160.5 157.3 160.5 157.2 160.5C157.1 160.5 157 160.7 156.9 160.9C156.7 161.2 156.3 160.9 156 161.1C155.8 161.1 155.6 161.5 155.3 161.5C155.1 161.5 154.8 161.3 154.6 161.3C154.6 161.3 154.5 161.3 154.4 161.3C153.3 162.2 152 161.6 150.8 162C149.6 162.5 148.4 162.7 147.2 163C146.5 163.2 145.8 163.2 145 162.3C144.6 161.9 144.4 161.4 144.6 161C144.7 160.7 144.9 160.4 145.1 160.3C145.5 160.1 145.8 159.8 146.2 159.6C146.9 159.2 147.6 158.4 148.5 158.5C148.8 158.5 149 158.1 149.4 158.5H149.6C150.5 157.4 151.8 157.7 153 157.4C154 157.2 154.8 156.4 155.9 156.5C156.1 156.1 156.4 156 156.7 155.9C157.3 155.8 157.9 155.9 158.4 155.9C159.3 155.9 160.2 155.9 161 155.9C161.3 157.2 161.6 158.5 162 159.7L162.4 160.8C162.5 161.1 162.6 161.5 162.7 161.8C163.1 163.7 163.8 165.5 164.4 167.3C164.5 167.6 164.9 167.7 164.8 168.2C164.7 168.6 165 169 165.2 169.4C165.3 169.7 165.6 170.1 165.6 170.4C165.6 172 166.6 173.2 167.3 174.4C167.5 174.7 167.7 175 167.8 175.3C167.8 175.5 168 175.6 168.1 175.8V176C168.3 176 168.3 176.1 168.4 176.3C168.8 176.8 169.1 177.3 169.6 177.8C169.8 178.1 170 178.3 170.3 178.6L171.2 179.4C171.5 179.7 172.1 180.1 172.6 180.5L174.3 181.7L176.2 183.1C176.8 183.6 177.5 184.1 177.9 184.5C178.3 184.9 179.2 185.5 179.8 185.9C179.4 185.9 178.7 185.7 177.7 185.3C177.4 185.2 177.5 185.3 177.7 185.5C177.9 185.7 178 185.8 178 185.9C178 185.9 177.9 185.9 177.8 185.9C177.7 185.9 177.8 185.9 177.4 185.9L175.8 185.7C174.3 185.5 172.9 185.3 171.6 185.2C170.8 185.2 170.1 185.2 169.2 185.2C168.2 185.2 167.1 184.9 166.1 184.6C165.4 184.4 164.7 184.2 164.1 183.9L163.6 183.7C163.4 183.7 163.4 183.7 163.3 183.6C163.1 183.6 163 183.4 162.8 183.4C162.1 183.1 161.2 183.1 160.6 182.6C159.5 181.7 158.1 181.4 156.8 180.8C155.6 180.2 154.4 179.6 153.1 179C152.4 178.7 152 177.9 151.4 177.5C151.1 177.3 151.4 175.8 151.8 175.5L152 175.4C152.9 175.4 153.8 175.1 154.4 175.4C155.4 176 156.5 176.5 157.5 177L157.3 177.3Z" fill="black"/>
<path d="M198.601 128.199C199.601 126.599 200.501 124.899 201.201 123.199C201.501 122.599 202.001 121.999 201.801 121.099C201.701 120.699 202.501 120.299 202.701 119.799C202.901 119.099 202.901 118.599 202.801 118.099C202.701 117.599 202.401 116.999 201.801 116.499C201.301 115.899 200.601 115.399 200.001 114.799C199.401 114.199 198.701 113.599 198.101 112.999C196.801 111.799 195.801 110.299 194.401 109.399C193.201 108.599 192.601 107.399 191.501 106.499C190.301 105.599 189.201 104.699 188.201 103.499C187.501 102.699 186.901 101.799 186.001 101.299C185.501 100.899 184.801 100.799 184.301 100.299C183.801 99.899 183.401 99.199 182.601 99.299C182.601 99.299 182.401 98.999 182.301 98.899C182.001 98.099 181.301 97.599 180.701 97.499C180.101 97.399 179.701 96.999 179.301 96.699C178.101 95.799 176.901 94.999 175.801 94.099C174.901 93.399 174.201 92.599 173.401 91.999C172.501 91.399 171.401 91.099 170.701 90.599C170.001 89.999 169.101 89.799 168.301 89.799C167.801 89.799 167.201 89.499 166.901 90.199C166.901 90.199 166.701 90.199 166.601 90.199C165.901 89.899 165.101 90.199 164.501 90.699C163.901 91.099 163.301 91.699 162.601 91.999C161.101 92.599 159.601 93.899 158.201 94.899C157.801 95.199 157.301 95.299 157.201 95.999C157.201 96.199 156.801 96.499 156.501 96.599C155.101 96.899 154.101 97.999 152.901 98.699C151.601 99.499 150.501 100.599 148.901 101.199C148.201 101.399 147.401 101.899 147.101 102.799C147.001 103.199 146.201 103.499 145.701 103.799C145.301 104.099 145.201 104.599 144.801 104.899C144.501 105.099 144.101 105.199 143.701 105.299C143.601 105.299 143.501 105.399 143.401 105.499C142.301 107.299 140.701 107.999 140.701 109.799C140.701 111.499 141.101 113.299 142.201 114.699C142.801 115.499 143.301 116.099 143.501 117.499C143.501 118.099 143.501 118.699 142.801 118.699C142.301 118.699 141.701 118.699 141.301 118.399C140.601 117.999 139.801 117.499 139.301 116.899C138.101 115.699 136.901 114.199 136.801 112.199C136.801 111.599 136.401 110.899 137.001 110.499C137.001 110.499 137.101 110.199 137.001 110.099C136.701 108.899 137.001 107.499 137.501 106.299C138.101 105.099 139.001 104.199 139.801 103.399C141.201 101.999 142.301 100.399 143.901 99.599C144.301 98.499 145.401 97.899 146.301 97.499C149.601 95.999 152.201 93.599 155.101 91.599C156.601 90.599 158.001 89.599 159.601 88.599C161.201 87.599 163.001 86.599 165.101 86.099C165.801 85.899 166.401 85.499 167.301 85.699C168.101 85.899 169.201 85.699 170.201 85.999C171.001 86.199 171.901 86.399 172.601 86.799C175.301 88.699 177.701 90.099 179.901 91.799C182.101 93.499 184.301 95.299 186.601 96.999C188.001 97.999 189.501 98.799 190.801 100.099C191.301 100.599 192.101 100.899 192.301 101.799C192.301 102.099 193.201 102.199 193.501 102.499C194.401 103.299 195.301 104.099 196.101 104.899C197.301 105.999 198.501 107.199 199.701 108.299C200.401 108.999 201.301 109.499 202.101 110.199C202.901 110.899 203.601 111.699 204.301 112.499C205.201 113.599 206.201 114.899 206.801 116.799C207.101 117.799 207.201 118.999 207.101 119.899C207.001 120.899 206.701 121.699 206.301 122.299C204.901 124.399 204.001 126.799 202.801 128.899C201.501 130.999 200.101 133.099 198.801 135.099C198.001 136.299 196.801 136.999 195.901 137.999C195.501 138.499 193.801 138.099 193.601 137.599C193.601 137.499 193.601 137.399 193.601 137.299C194.101 135.999 194.301 134.699 195.201 133.599C196.601 131.999 197.701 130.199 198.801 128.299L198.601 128.199Z" fill="black"/>
</svg>
