<svg width="300" height="300" viewBox="0 0 300 300" fill="none" xmlns="http://www.w3.org/2000/svg">
<path d="M184.099 141C183.699 140.6 183.399 140.2 182.999 139.8C182.799 139.7 182.999 139.3 182.399 139.6C182.099 139.7 182.399 139.1 182.399 139C181.999 138.7 181.699 138.3 181.299 137.9C180.899 137.6 180.399 137.4 180.099 137.1C179.699 136.8 179.599 136.2 179.099 136.1C178.599 136 178.699 135.4 178.399 135.2C177.999 135 177.699 134.7 177.599 134.3C177.599 134 177.499 133.6 177.199 133.5C176.999 133.5 176.699 133.5 176.599 133.4C176.499 133.3 176.599 132.9 175.999 133.2C175.999 133.2 175.999 133.1 175.999 133C176.199 132.6 175.999 132.4 175.699 132.5C175.399 132.5 175.299 132.5 175.199 132.3C174.899 132 174.599 131.7 174.399 131.4C174.199 131.1 174.199 130.8 173.999 130.5C173.799 130.2 173.399 130.2 173.399 129.7C173.399 129.3 173.199 129.1 172.999 128.9C172.899 128.8 172.999 128.4 172.399 128.8C172.699 127.9 171.599 128.3 171.399 127.8C171.199 127.3 170.799 127 170.399 126.7C170.399 126.7 170.399 126.4 169.899 126.7C169.799 126.7 169.599 126.7 169.699 126.6C169.899 125.9 169.399 125.9 169.199 125.5C168.999 125.1 168.499 125 168.499 124.3C168.499 124 168.499 123.8 167.899 124C167.599 124.1 167.699 123.8 167.499 123.7C167.399 123.7 167.099 123.7 166.999 123.7C166.999 123.7 166.999 123.4 166.999 123.2C166.099 123.2 166.299 122.1 165.699 121.8C165.099 121.5 164.699 120.9 164.399 120.4C164.199 120.1 164.099 119.7 164.799 118.8C165.099 118.4 165.499 118 165.799 117.9C166.099 117.9 166.299 117.8 166.399 117.9C166.599 117.9 166.799 118 166.999 118.1C167.399 118.3 168.099 118.1 168.199 118.7C168.199 118.9 168.599 118.7 168.199 119.2V119.3C169.199 119.2 169.199 120 169.599 120.3C169.999 120.6 170.799 120.5 170.899 121.1C171.499 120.9 171.699 121.1 171.699 121.5C171.899 122.7 172.899 123.1 173.499 123.8C174.099 124.6 174.799 125.2 175.499 126C175.599 126.1 175.999 126 175.899 126.3C175.899 126.6 176.099 126.6 176.299 126.8C176.399 126.9 176.699 127 176.699 127.2C176.699 128.2 177.599 128.5 177.999 129.1C178.499 129.7 178.999 130.3 179.599 130.8C179.999 131.1 180.599 131.2 180.799 131.6C180.799 131.8 181.299 131.7 180.999 132.3C180.999 132.5 181.399 132.3 181.499 132.3C181.799 132.5 181.999 132.8 182.199 133C182.499 133.3 182.799 133.7 183.099 134C183.299 134.2 183.699 134.2 183.899 134.4C184.099 134.6 184.299 134.8 184.499 135C184.699 135.3 184.799 135.7 184.999 136C185.199 136.3 185.699 136.4 185.699 136.9C185.699 137.7 186.399 138 186.799 138.6C187.199 139.1 187.599 139.6 188.199 140C188.499 140.2 188.399 140.8 188.599 141.1C188.699 141.2 187.799 142.4 187.399 142.7L187.199 142.8C186.599 142.8 185.899 143.1 185.599 142.8C185.199 142.3 184.799 141.9 184.399 141.5L184.099 141Z" fill="black"/>
<path d="M117.1 166.502C117.1 166.902 117.1 167.302 117.3 167.602C117.3 167.702 117.1 167.902 117.7 168.002C118 168.002 117.4 168.302 117.4 168.402C117.5 168.702 117.5 169.102 117.6 169.402C117.7 169.702 118 170.002 118.1 170.402C118.2 170.702 118 171.102 118.4 171.402C118.7 171.602 118.3 172.002 118.4 172.202C118.6 172.502 118.7 172.702 118.5 173.102C118.4 173.302 118.2 173.602 118.3 173.802C118.3 173.902 118.7 174.002 118.7 174.102C118.7 174.202 118.5 174.402 119.1 174.402C119.1 174.402 119.1 174.402 119 174.502C118.6 174.702 118.7 174.902 119 174.902C119.3 174.902 119.3 175.102 119.3 175.202C119.3 175.502 119.5 175.802 119.5 176.102C119.5 176.302 119.3 176.602 119.3 176.802C119.3 177.002 119.6 177.202 119.3 177.502C119 177.802 119.1 178.002 119.1 178.202C119.1 178.302 118.9 178.502 119.5 178.502C118.7 179.002 119.9 179.102 119.7 179.502C119.6 179.902 119.7 180.202 119.9 180.602C119.9 180.602 119.8 180.802 120.2 180.802C120.4 180.802 120.4 180.802 120.2 181.002C119.6 181.402 120.1 181.602 120 181.902C120 182.202 120.3 182.502 119.9 182.902C119.7 183.102 119.6 183.302 120.2 183.302C120.5 183.302 120.2 183.502 120.3 183.602C120.3 183.602 120.6 183.702 120.7 183.802C120.7 183.802 120.5 184.002 120.4 184.102C121.1 184.402 120.4 185.002 120.6 185.402C120.9 185.802 120.9 186.302 120.9 186.802C120.9 187.102 120.8 187.302 119.7 187.702C119.2 187.902 118.7 188.002 118.3 187.902C118 187.902 117.8 187.902 117.7 187.702C117.6 187.602 117.4 187.502 117.3 187.302C117.1 187.002 116.5 186.902 116.7 186.502C116.7 186.402 116.5 186.302 116.9 186.202C116 185.902 116.5 185.402 116.4 185.002C116.3 184.702 115.6 184.402 115.8 184.002C115.1 184.002 115.2 183.702 115.4 183.402C115.9 182.602 115.4 182.002 115.4 181.302C115.4 180.602 115.2 179.902 115.1 179.202C115.1 179.102 114.7 179.002 115 178.902C115.2 178.702 115 178.602 115 178.402C115 178.302 114.8 178.102 115 178.002C115.6 177.302 115 176.902 115 176.302C115 175.702 115 175.202 114.7 174.702C114.5 174.402 114.1 174.102 114.2 173.802C114.2 173.602 113.9 173.602 114.4 173.302C114.6 173.302 114.1 173.202 114.1 173.102C114.1 172.902 114.1 172.602 114 172.402C114 172.102 114 171.802 113.8 171.502C113.8 171.302 113.5 171.202 113.4 171.002C113.4 170.802 113.3 170.602 113.3 170.402C113.3 170.102 113.5 169.802 113.5 169.602C113.5 169.302 113.2 169.102 113.5 168.802C113.9 168.202 113.5 167.802 113.5 167.302C113.5 166.802 113.5 166.302 113.2 165.902C113.1 165.602 113.5 165.302 113.5 165.102C113.5 165.002 114.9 164.602 115.4 164.602H115.6C116.1 164.802 116.9 164.902 116.9 165.202C116.9 165.602 117 166.102 117.1 166.502Z" fill="black"/>
<path d="M166.099 147.298C166.499 147.098 166.799 146.998 167.199 146.698C167.299 146.698 167.599 146.698 167.499 146.198C167.499 145.898 167.899 146.398 167.999 146.398C168.299 146.198 168.699 146.098 168.999 145.898C169.299 145.698 169.499 145.298 169.799 145.098C170.099 144.898 170.599 145.098 170.799 144.598C170.999 144.198 171.399 144.598 171.599 144.298C171.799 144.098 172.099 143.898 172.499 143.998C172.799 143.998 173.099 144.198 173.199 143.998C173.199 143.898 173.199 143.498 173.399 143.498C173.499 143.498 173.799 143.698 173.699 142.998C173.699 142.998 173.699 142.998 173.899 142.998C174.199 143.298 174.399 143.198 174.399 142.998C174.399 142.698 174.499 142.698 174.599 142.598C174.899 142.498 175.199 142.298 175.499 142.298C175.699 142.298 175.999 142.298 176.299 142.298C176.499 142.298 176.699 141.898 176.999 142.098C177.299 142.298 177.499 142.198 177.699 142.098C177.799 142.098 178.099 142.298 177.899 141.598C178.499 142.298 178.499 141.098 178.899 141.198C179.299 141.198 179.599 140.998 179.999 140.898C179.999 140.898 180.299 140.998 180.199 140.498C180.199 140.298 180.199 140.298 180.399 140.398C180.899 140.898 180.999 140.398 181.299 140.398C181.599 140.398 181.899 139.998 182.299 140.398C182.499 140.598 182.699 140.598 182.699 139.998C182.699 139.698 182.899 139.998 182.999 139.798C182.999 139.798 182.999 139.398 183.199 139.398C183.199 139.398 183.399 139.598 183.499 139.698C183.799 138.898 184.499 139.698 184.899 139.298C185.299 138.998 185.799 138.898 186.299 138.898C186.599 138.898 186.899 138.898 187.399 139.998C187.599 140.498 187.799 140.998 187.699 141.398C187.699 141.698 187.699 141.898 187.599 141.998C187.499 142.098 187.399 142.298 187.299 142.398C187.099 142.698 186.899 143.298 186.599 143.098C186.499 143.098 186.499 143.398 186.199 142.898C185.999 143.798 185.499 143.398 185.099 143.598C184.799 143.798 184.599 144.498 184.199 144.298C184.199 144.998 183.999 144.898 183.699 144.798C182.799 144.398 182.299 144.998 181.599 145.198C180.899 145.298 180.299 145.698 179.599 145.898C179.499 145.898 179.599 146.298 179.299 146.098C179.099 145.898 178.999 146.098 178.799 146.198C178.699 146.198 178.599 146.398 178.399 146.298C177.599 145.898 177.299 146.498 176.699 146.598C176.199 146.698 175.599 146.898 175.199 147.298C174.899 147.498 174.799 147.998 174.399 147.998C174.199 147.998 174.199 148.398 173.899 147.898C173.799 147.798 173.899 148.198 173.799 148.298C173.599 148.398 173.399 148.498 173.199 148.598C172.899 148.698 172.599 148.798 172.299 148.998C172.099 149.098 172.099 149.398 171.899 149.598C171.699 149.698 171.599 149.798 171.299 149.898C170.999 149.898 170.699 149.898 170.399 149.898C170.099 149.898 169.999 150.298 169.599 150.198C168.899 149.998 168.599 150.398 168.199 150.598C167.699 150.798 167.299 150.898 166.899 151.298C166.699 151.498 166.199 151.198 165.999 151.298C165.899 151.298 165.099 150.098 164.899 149.698V149.498C164.899 148.998 164.799 148.198 165.099 148.098C165.499 147.998 165.899 147.698 166.299 147.498L166.099 147.298Z" fill="black"/>
<path d="M146.699 141.101C146.699 140.901 146.699 140.701 146.699 140.601C146.699 140.601 146.899 140.501 146.399 140.401C146.099 140.401 146.799 140.301 146.699 140.201C146.699 140.001 146.699 139.901 146.699 139.701C146.699 139.501 146.399 139.401 146.399 139.201C146.399 139.001 146.699 138.901 146.399 138.701C146.099 138.501 146.599 138.501 146.499 138.301C146.399 138.201 146.299 138.001 146.499 137.901C146.699 137.901 146.899 137.701 146.799 137.601C146.799 137.601 146.399 137.401 146.499 137.401C146.499 137.401 146.799 137.401 146.199 137.201C146.199 137.201 146.199 137.201 146.399 137.201C146.799 137.201 146.799 137.201 146.499 137.001C146.199 137.001 146.299 136.901 146.299 136.801C146.299 136.701 146.299 136.501 146.299 136.401C146.299 136.401 146.599 136.201 146.699 136.201C146.699 136.201 146.499 135.901 146.799 135.901C147.099 135.901 147.099 135.801 147.099 135.701C147.099 135.701 147.399 135.701 146.799 135.501C147.599 135.501 146.599 135.101 146.799 135.001C146.999 134.901 146.899 134.701 146.999 134.501C146.999 134.501 147.199 134.501 146.799 134.301C146.599 134.201 146.599 134.301 146.799 134.301C147.399 134.301 147.099 134.101 147.199 134.001C147.399 133.901 147.199 133.701 147.599 133.701C147.799 133.701 147.899 133.701 147.399 133.401C147.199 133.301 147.399 133.401 147.399 133.201L147.099 133.001C147.099 133.001 147.299 133.001 147.499 133.001C146.899 132.601 147.899 132.701 147.799 132.401C147.799 132.101 147.799 132.001 147.999 131.801C147.999 131.801 148.299 131.701 149.399 132.001C149.899 132.201 150.399 132.401 150.699 132.601C150.899 132.701 151.099 132.801 151.099 132.901C151.099 132.901 151.299 133.101 151.299 133.201C151.399 133.401 151.899 133.701 151.599 133.701C151.599 133.701 151.799 133.901 151.299 133.701C151.999 134.101 151.399 134.101 151.399 134.301C151.399 134.401 151.999 134.801 151.699 134.801C152.299 135.101 152.099 135.101 151.899 135.101C151.199 135.101 151.499 135.501 151.399 135.801C151.199 136.001 151.299 136.301 151.199 136.601C151.199 136.601 151.499 136.801 151.199 136.801C150.899 136.801 151.199 136.901 151.199 137.001C151.199 137.001 151.299 137.101 151.199 137.201C150.499 137.201 150.899 137.601 150.799 137.801C150.799 138.001 150.599 138.201 150.799 138.401C150.799 138.501 151.199 138.701 151.099 138.801C151.099 138.801 151.399 138.901 150.799 138.901C150.599 138.901 151.099 138.901 151.099 139.001C151.099 139.001 151.099 139.201 151.099 139.301C151.099 139.401 151.099 139.501 151.099 139.701L151.399 139.901V140.101C151.399 140.101 151.099 140.301 150.999 140.401C150.999 140.501 151.199 140.601 150.999 140.701C150.499 140.901 150.699 141.101 150.699 141.301C150.699 141.501 150.699 141.701 150.699 141.801C150.699 141.801 150.299 142.001 150.299 142.101C150.299 142.101 148.799 142.301 148.299 142.401H148.099C147.599 142.401 146.899 142.301 146.899 142.101C146.899 141.901 146.899 141.701 146.899 141.501L146.699 141.101Z" fill="black"/>
<path d="M157.1 141.898C157.1 141.698 157.1 141.498 157.1 141.398C157.1 141.398 157.3 141.298 156.8 141.198C156.5 141.198 157.2 141.098 157.1 140.998C157.1 140.798 157.1 140.698 157.1 140.498C157.1 140.298 156.8 140.198 156.8 139.998C156.8 139.798 157.1 139.698 156.8 139.498C156.5 139.298 157 139.298 156.9 139.098C156.8 138.998 156.7 138.798 156.9 138.698C157.1 138.698 157.3 138.498 157.2 138.398C157.2 138.398 156.8 138.198 156.9 138.198C156.9 138.198 157.2 138.198 156.6 137.998C156.6 137.998 156.6 137.998 156.8 137.998C157.2 137.998 157.2 137.998 156.9 137.798C156.6 137.798 156.7 137.698 156.7 137.598C156.7 137.498 156.7 137.298 156.7 137.198C156.7 137.198 157 136.998 157.1 136.998C157.1 136.998 156.9 136.698 157.2 136.698C157.5 136.698 157.5 136.598 157.5 136.498C157.5 136.498 157.8 136.498 157.2 136.298C158 136.298 157 135.898 157.2 135.798C157.4 135.698 157.3 135.498 157.4 135.298C157.4 135.298 157.6 135.298 157.2 135.098C157 134.998 157 135.098 157.2 135.098C157.8 135.098 157.5 134.898 157.6 134.798C157.8 134.698 157.6 134.498 158 134.498C158.2 134.498 158.3 134.498 157.8 134.198C157.6 134.098 157.8 134.198 157.8 133.998L157.5 133.798C157.5 133.798 157.7 133.798 157.9 133.798C157.3 133.398 158.3 133.498 158.2 133.198C158.2 132.898 158.2 132.798 158.4 132.598C158.4 132.598 158.7 132.498 159.8 132.798C160.3 132.998 160.8 133.198 161.1 133.398C161.3 133.498 161.5 133.598 161.5 133.698C161.5 133.698 161.7 133.898 161.7 133.998C161.8 134.198 162.3 134.498 162 134.498C162 134.498 162.2 134.698 161.7 134.498C162.4 134.898 161.8 134.898 161.8 135.098C161.8 135.198 162.4 135.598 162.1 135.598C162.7 135.898 162.5 135.898 162.3 135.898C161.6 135.898 161.9 136.298 161.8 136.598C161.6 136.798 161.7 137.098 161.6 137.398C161.6 137.398 161.9 137.598 161.6 137.598C161.3 137.598 161.6 137.698 161.6 137.798C161.6 137.798 161.7 137.898 161.6 137.998C160.9 137.998 161.3 138.398 161.2 138.598C161.2 138.798 161 138.998 161.2 139.198C161.2 139.298 161.6 139.498 161.5 139.598C161.5 139.598 161.8 139.698 161.2 139.698C161 139.698 161.5 139.698 161.5 139.798C161.5 139.798 161.5 139.998 161.5 140.098C161.5 140.198 161.5 140.298 161.5 140.498L161.8 140.698V140.898C161.8 140.898 161.5 141.098 161.4 141.198C161.4 141.298 161.6 141.398 161.4 141.498C160.9 141.698 161.1 141.898 161.1 142.098C161.1 142.298 161.1 142.498 161.1 142.598C161.1 142.598 160.7 142.798 160.7 142.898C160.7 142.898 159.2 143.098 158.7 143.198H158.5C158 143.198 157.3 143.098 157.3 142.898C157.3 142.698 157.3 142.498 157.3 142.298L157.1 141.898Z" fill="black"/>
<path d="M171.499 152.002C172.399 153.002 173.199 154.002 173.999 154.902C174.299 155.302 174.399 155.802 175.199 155.802C175.599 155.802 175.399 156.602 175.699 156.902C176.499 157.802 177.199 158.802 177.999 159.702C178.399 160.202 178.799 160.502 179.199 161.002C179.799 161.702 180.399 162.402 181.099 163.302C182.099 164.502 182.799 165.702 183.699 167.002C183.199 167.202 182.699 167.302 182.299 167.502C181.599 167.802 180.699 168.002 179.899 168.202C178.999 168.302 178.199 168.502 177.499 168.702C177.299 168.702 177.099 168.802 176.899 168.902H176.399C176.199 169.102 175.899 169.202 175.599 169.202C175.099 169.302 174.599 169.302 174.099 169.202C173.399 169.202 172.599 169.002 171.899 169.202C171.499 169.302 171.099 169.702 170.599 169.702C170.099 169.702 169.599 169.502 169.199 170.102C169.199 170.102 168.999 170.102 168.899 170.002C168.399 169.602 167.799 169.702 167.399 170.002C166.999 170.302 166.599 170.202 166.299 170.202C165.299 170.202 164.199 170.202 163.199 170.002C162.399 169.902 161.699 169.602 160.899 169.402C160.099 169.302 159.199 169.402 158.499 169.002C157.799 168.602 157.099 168.402 156.399 168.302C155.999 168.302 155.599 167.802 155.099 168.302C155.099 168.302 154.899 168.302 154.799 168.302C153.899 167.202 152.499 167.902 151.399 167.302C150.299 166.702 148.999 166.402 147.899 165.902C147.599 165.802 147.299 165.402 146.899 165.702C146.699 165.702 146.399 165.702 146.299 165.402C145.799 164.402 144.699 164.202 143.899 163.602C142.999 162.902 141.999 162.402 141.399 161.302C141.199 160.802 140.799 160.302 139.999 160.302C139.599 160.302 139.399 159.702 139.099 159.402C138.799 159.202 138.399 159.102 138.199 158.802C137.999 158.602 137.999 158.202 137.899 157.902C137.899 157.902 137.899 157.702 137.699 157.702C136.999 157.202 136.499 156.402 136.299 155.602L135.899 154.402C135.799 154.002 135.699 153.602 135.499 153.202C134.699 151.702 134.399 149.902 134.299 148.202C134.299 147.302 134.399 146.302 135.499 145.702C135.999 145.402 136.599 145.402 136.899 145.702C137.199 146.002 137.399 146.202 137.499 146.502C137.599 147.002 137.699 147.402 137.899 147.802C138.099 148.202 138.299 148.702 138.499 149.102C138.699 149.502 138.899 149.902 138.899 150.402C138.899 150.702 139.199 150.902 138.899 151.302V151.502C139.499 151.902 139.699 152.502 139.999 153.002C140.099 153.302 140.199 153.602 140.299 153.902C140.399 154.202 140.599 154.502 140.799 154.702C141.099 155.102 141.499 155.502 141.899 155.802C142.299 156.102 142.699 156.402 142.999 156.902C143.799 156.902 144.199 157.402 144.499 157.902C145.599 159.802 147.699 160.602 149.599 161.602C151.499 162.602 153.599 163.302 155.799 163.902C156.199 163.902 156.599 163.702 156.899 164.102C157.199 164.502 157.799 164.402 158.299 164.502C158.699 164.502 159.199 164.502 159.599 164.802C161.199 165.802 163.099 165.602 164.799 165.702C166.499 165.902 168.299 165.902 170.099 165.702C171.199 165.502 172.199 165.102 173.199 165.102C173.699 165.102 174.099 164.702 174.599 165.102C174.799 165.202 175.099 164.702 175.399 164.602H175.799C175.799 164.502 175.999 164.502 175.999 164.502C176.099 164.502 176.299 164.502 176.399 164.502C176.399 164.502 176.399 164.402 176.199 164.302C176.099 164.202 175.699 164.102 175.599 164.102C175.599 164.102 175.499 164.102 175.399 163.902L175.199 163.702L174.899 163.302C174.399 162.602 174.099 161.802 173.599 161.102C173.099 160.402 172.299 159.802 171.999 159.002C171.399 157.502 170.199 156.402 169.199 155.202C168.199 154.002 167.199 152.802 166.099 151.702C165.499 151.102 165.299 150.202 164.699 149.502C164.399 149.202 165.099 147.802 165.599 147.602C165.599 147.602 165.799 147.602 165.899 147.602C166.799 147.902 167.899 148.002 168.499 148.702C169.399 149.802 170.499 150.902 171.399 152.002H171.499Z" fill="black"/>
<path d="M160 187.002L160.5 186.002C160.5 185.802 160.6 185.702 160.7 185.502C160.7 185.502 161.1 185.002 160.4 185.502C160 185.702 161 185.002 161 184.902V184.802H160.8C160.6 184.902 160.5 185.002 160.3 185.002C160.1 185.002 160 185.202 159.8 185.302H159.6C159.3 185.302 159 185.402 158.7 185.402C157.5 185.502 156.4 185.202 155.3 185.402C154.3 185.602 153.6 184.902 152.7 184.802C151.7 184.702 150.8 184.502 150 183.902C149.4 183.502 148.9 183.002 148.3 182.902C147.9 182.802 147.4 182.902 147 182.702C146.6 182.502 146.4 182.002 145.7 182.402C145.7 182.402 145.5 182.202 145.5 182.102C145.3 181.502 144.9 181.202 144.4 181.302C143.9 181.302 143.7 181.102 143.4 180.902C142.6 180.402 141.9 179.802 141.2 179.202C140.7 178.702 140.3 178.102 139.9 177.502C139.4 177.002 138.7 176.602 138.5 175.902C138.3 175.202 137.8 174.802 137.4 174.302C137.2 174.002 137.1 173.502 136.4 173.702C136.4 173.702 136.3 173.702 136.3 173.502C136.3 172.202 134.8 172.002 134.3 170.902C133.9 169.802 133.1 168.802 132.7 167.702C132.6 167.402 132.7 167.002 132.1 166.902C131.9 166.902 131.8 166.502 131.9 166.302C132.1 165.802 132 165.302 131.9 164.902C131.8 164.502 131.6 164.002 131.6 163.602C131.6 163.102 131.5 162.602 131.5 162.102C131.5 161.602 131.5 161.102 131.7 160.602C131.9 160.202 132 159.602 131.5 159.102C131.2 158.902 131.5 158.402 131.5 158.002C131.5 157.702 131.2 157.402 131.3 157.102C131.3 156.802 131.6 156.602 131.7 156.402V156.202C131.3 154.702 132.4 153.502 132.6 152.102C132.8 150.702 133.2 149.402 133.8 148.102C134.1 147.402 134.5 146.702 135.7 146.602C136.3 146.602 136.8 146.702 137 147.102C137.2 147.402 137.3 147.702 137.3 148.002C137.3 148.402 137.3 148.902 137.3 149.302C137.3 150.202 137.5 151.102 137 151.902C136.8 152.102 137 152.502 136.5 152.602C136.5 152.602 136.4 152.702 136.4 152.802C136.9 154.102 136.1 155.102 136 156.302C135.9 157.302 136.4 158.302 136 159.202C136.6 159.802 136.5 160.302 136.3 160.802C135.6 162.602 136.3 164.402 136.9 166.002C137.4 167.702 138.5 169.202 139.7 170.702C139.9 171.002 140.4 171.002 140.4 171.402C140.4 171.902 140.9 172.102 141.2 172.402C141.5 172.702 141.8 172.902 142 173.302C142.6 174.902 144 175.702 145.2 176.702C146.3 177.702 147.6 178.602 149 179.202C149.9 179.502 150.8 179.602 151.6 180.002C151.9 180.202 152.4 180.002 152.6 180.702C152.6 180.902 153.1 180.602 153.4 180.702C154 180.802 154.6 181.002 155.2 181.102C156 181.202 156.9 181.402 157.7 181.302C158.2 181.302 158.7 181.002 159.2 180.902C159.3 180.902 159.5 180.902 159.6 180.902H159.7H159.8L160.2 180.802L161.1 180.602C161.4 180.602 161.7 180.602 162 180.402C162.8 180.202 163.6 180.002 164.4 179.702C165.2 179.502 165.9 179.302 166.7 179.002C167 178.902 167.4 178.802 167.7 178.602V179.102V179.402V179.802C167.4 180.302 167.3 180.902 167 181.502C166.3 182.902 165.9 183.902 165.6 185.002C165.2 186.002 164.8 187.202 164.3 188.202C163.6 189.502 162.9 190.802 162.2 192.102C161.8 192.802 161 193.202 160.5 193.802C160.3 194.102 158.8 193.602 158.5 193.202C158.5 193.202 158.4 193.002 158.4 192.902C158.4 192.002 158.2 191.102 158.7 190.402C159.4 189.402 160 188.302 160.5 187.302L160 187.002Z" fill="black"/>
<path d="M165.201 152.499C164.701 152.799 164.301 152.999 163.901 153.399C163.801 153.499 163.401 153.399 163.601 153.999C163.601 154.299 163.101 153.899 163.001 153.999C162.701 154.399 162.201 154.599 161.901 154.999L160.601 157.099C160.301 157.499 160.001 157.899 159.701 158.299C159.401 158.699 159.101 159.099 158.801 159.699C158.801 159.699 158.801 159.899 158.701 159.899C158.401 159.799 158.201 159.399 157.901 158.999C157.701 158.599 157.401 158.299 157.201 158.099C156.601 157.699 155.901 157.099 155.501 156.299C155.301 155.999 155.201 155.699 155.101 155.499C155.101 155.399 155.001 155.299 154.901 155.199C154.901 155.199 154.801 155.099 154.701 154.999C154.501 154.999 154.201 154.999 154.001 154.799C153.901 154.599 154.001 154.299 153.301 154.599C153.301 154.599 153.301 154.499 153.301 154.399C153.401 153.999 153.301 153.799 152.901 153.899C152.601 153.899 152.501 153.899 152.401 153.699C152.101 153.399 151.701 153.099 151.401 152.699C151.201 152.399 151.101 151.999 150.901 151.699C150.701 151.399 150.301 151.399 150.301 150.999C150.301 150.599 150.101 150.399 149.901 150.299C149.801 150.299 149.901 149.899 149.401 150.299C149.401 149.799 149.301 149.799 149.001 149.899C148.801 149.899 148.501 150.099 148.401 149.899C148.301 149.699 148.101 149.599 147.901 149.599C147.701 149.599 147.501 149.599 147.301 149.599C147.201 149.599 147.101 149.399 146.901 149.799C146.901 149.999 146.701 149.999 146.701 149.799C146.401 149.099 146.001 149.499 145.701 149.399C145.301 149.299 144.901 149.599 144.401 149.099C144.201 148.899 143.901 148.799 143.701 149.399C143.701 149.699 143.401 149.399 143.201 149.399C143.101 149.399 142.901 149.699 142.801 149.799C142.701 149.799 142.501 149.599 142.401 149.499C142.401 149.499 142.401 149.499 142.301 149.499C141.601 150.199 140.801 149.399 140.101 149.499C139.301 149.699 138.501 149.499 137.701 149.399C137.301 149.399 136.801 148.999 136.801 147.799C136.801 147.299 136.901 146.699 137.201 146.399C137.401 146.199 137.501 145.999 137.701 145.999C137.901 145.999 138.101 145.799 138.301 145.799C138.701 145.699 139.101 145.099 139.501 145.499C139.601 145.499 139.801 145.299 139.901 145.799C140.501 144.999 141.101 145.499 141.701 145.399C142.201 145.399 142.701 144.699 143.301 144.899C143.601 144.299 144.001 144.299 144.301 144.499C145.501 145.099 146.701 144.699 148.001 144.999C149.301 145.299 150.701 145.699 151.901 146.499C152.101 146.599 152.501 146.499 152.501 146.899C152.501 147.299 152.901 147.299 153.101 147.499C153.301 147.699 153.601 147.699 153.601 147.999C153.801 149.099 154.601 149.399 155.201 150.099C155.701 150.799 156.301 151.399 157.001 151.899C157.201 151.999 157.501 152.199 157.701 152.299H157.901C157.901 152.399 158.001 152.499 158.001 152.499C158.001 152.499 158.201 152.299 158.001 152.899C158.001 153.099 158.201 152.699 158.201 152.599C158.201 152.599 158.201 152.599 158.301 152.699C158.301 152.699 158.301 152.699 158.401 152.499V152.099H158.501C158.901 151.799 159.301 151.699 159.701 151.399C160.101 151.099 160.301 150.599 160.801 150.499C161.801 150.399 162.201 149.699 163.001 149.299C163.701 148.899 164.401 148.599 165.101 148.099C165.501 147.799 166.101 148.099 166.501 147.999C166.701 147.999 167.501 149.199 167.601 149.699V149.899C167.401 150.499 167.401 151.299 167.001 151.399C166.401 151.599 165.901 151.899 165.401 152.199L165.201 152.499Z" fill="black"/>
<path d="M115.599 163.299C114.599 163.599 113.499 163.899 112.499 164.099C112.099 164.199 111.699 164.099 111.299 164.599C111.099 164.899 110.599 164.299 110.299 164.399C109.299 164.599 108.299 164.599 107.299 164.699C106.299 164.799 105.299 164.999 104.399 165.099C103.399 165.099 102.399 164.699 101.499 164.899C100.599 165.099 99.9992 164.499 99.1992 164.399C98.3992 164.399 97.3992 164.199 96.5992 163.699C95.9992 163.299 95.4992 162.799 94.7992 162.499C94.3992 162.299 93.7992 162.299 93.3992 161.899C92.9992 161.499 92.8992 160.899 92.0992 160.799C92.0992 160.799 92.0992 160.499 92.0992 160.399C92.0992 159.699 91.9992 159.099 91.5992 158.699C91.2992 158.299 91.1992 157.799 91.1992 157.399C91.1992 156.199 91.3992 155.099 91.7992 154.099C92.0992 153.399 92.6992 152.799 93.0992 152.299C93.4992 151.699 93.7992 150.899 94.4992 150.599C95.1992 150.299 95.5992 149.899 96.0992 149.499C96.3992 149.299 96.8992 149.199 96.6992 148.599C96.6992 148.599 96.6992 148.499 96.8992 148.499C98.1992 148.499 98.3992 147.199 99.3992 146.799C100.399 146.499 101.299 145.899 102.199 145.499C102.499 145.399 102.799 145.499 102.899 144.899C102.899 144.699 103.199 144.599 103.399 144.699C104.299 144.999 104.899 144.399 105.699 144.299C106.599 144.199 107.299 143.699 108.299 143.899C108.699 143.999 109.199 143.999 109.499 143.299C109.599 142.999 110.099 143.199 110.399 142.999C110.599 142.899 110.799 142.599 111.099 142.499C111.299 142.499 111.599 142.599 111.799 142.699H111.999C113.199 141.899 114.599 142.699 115.999 142.499C117.399 142.299 118.799 142.499 120.199 143.099C120.999 143.299 121.699 143.899 121.699 145.099C121.699 145.699 121.399 146.099 120.999 146.299C120.699 146.399 120.399 146.599 120.199 146.499C119.799 146.499 119.499 146.499 119.099 146.499C118.399 146.499 117.699 146.899 116.999 146.499C116.799 146.399 116.499 146.699 116.399 146.199C116.399 146.199 116.299 146.099 116.199 146.199C115.199 146.999 114.199 146.499 113.199 146.699C112.299 146.899 111.599 147.599 110.699 147.499C110.399 148.199 109.799 148.199 109.299 148.199C107.399 147.999 105.799 148.899 104.299 149.499C102.699 150.099 101.199 150.899 99.7992 151.799C99.5992 151.999 99.5992 152.399 99.1992 152.399C98.7992 152.399 98.5992 152.799 98.3992 152.999C98.1992 153.199 98.0992 153.499 97.7992 153.599C96.4992 154.099 96.1992 155.399 95.9992 156.399C95.6992 157.399 95.8992 158.299 96.5992 158.799C96.9992 159.099 97.6992 159.099 98.2992 159.499C98.5992 159.699 98.9992 159.499 99.0992 160.099C99.0992 160.299 99.5992 159.899 99.7992 159.999C100.299 159.999 100.899 160.199 101.499 160.299C102.299 160.399 103.099 160.599 103.799 160.599C104.299 160.599 104.799 160.399 105.199 160.299C105.699 160.299 106.199 160.299 106.699 160.299C107.299 160.299 107.999 160.499 108.599 160.499C109.299 160.499 109.899 160.199 110.599 160.299C111.899 160.599 112.999 160.099 114.099 159.799C115.299 159.499 116.399 159.199 117.399 158.599C117.999 158.299 118.799 158.499 119.299 158.199C119.599 158.099 120.599 159.199 120.799 159.699C120.799 159.699 120.799 159.899 120.799 159.999C120.399 160.699 120.099 161.699 119.299 161.999C118.199 162.399 116.999 162.899 115.899 163.299H115.599Z" fill="black"/>
<path d="M128.4 124.1C128.4 124.5 128.4 124.9 128.4 125.4C128.4 125.6 128.2 125.7 128.7 125.9C129 125.9 128.3 126.1 128.4 126.3C128.4 126.7 128.4 127.1 128.4 127.5C128.4 127.9 128.6 128.3 128.7 128.7C128.7 129.1 128.4 129.5 128.7 129.8C128.9 130.1 128.4 130.4 128.5 130.7C128.5 131 128.6 131.4 128.3 131.7C128.1 131.9 127.8 132.1 127.9 132.3C127.9 132.5 128.2 132.6 128.2 132.8C128.2 132.9 127.9 133 128.4 133.3C128.4 133.3 128.4 133.3 128.2 133.3C127.8 133.3 127.8 133.6 128 133.8C128.2 134 128.2 134.1 128.2 134.2C128.2 134.5 128.2 134.9 128 135.2C127.9 135.4 127.6 135.6 127.5 135.8C127.4 136 127.5 136.4 127.2 136.5C126.8 136.6 126.8 136.9 126.7 137.1C126.7 137.2 126.3 137.3 126.9 137.6C126 137.6 126.9 138.4 126.6 138.7C126.3 139 126.3 139.4 126.1 139.8C126.1 139.9 125.9 139.9 126.2 140.2C126.3 140.2 126.3 140.4 126.2 140.4C125.5 140.4 125.7 140.9 125.5 141.1C125.3 141.4 125.4 141.8 124.8 141.9C124.6 141.9 124.4 142.1 124.8 142.5C125 142.7 124.7 142.7 124.7 142.9C124.7 143 124.9 143.2 124.9 143.3C124.9 143.3 124.6 143.3 124.5 143.3C124.9 144.1 123.8 144.1 123.7 144.6C123.7 145.1 123.2 145.7 123.1 145.6C123.1 145.6 122.8 145.6 121.7 145.6C121.2 145.6 120.7 145.6 120.3 145.4C120.1 145.3 119.8 145.1 119.8 144.9C119.8 144.7 119.7 144.4 119.8 144.2C119.8 143.7 119.6 143.1 119.9 143C120 143 119.9 142.7 120.3 143C119.8 142.3 120.5 142.2 120.6 141.8C120.7 141.5 120.3 140.9 120.7 140.7C120.2 140.2 120.4 140.1 120.7 140C121.6 139.7 121.4 138.9 121.8 138.3C122.1 137.7 122.3 137 122.5 136.4C122.5 136.3 122.2 136.1 122.5 136C122.8 136 122.6 135.7 122.7 135.6C122.7 135.5 122.7 135.3 122.8 135.2C123.6 134.9 123.3 134.2 123.5 133.7C123.7 133.2 123.9 132.7 123.8 132.1C123.8 131.8 123.5 131.4 123.7 131.1C123.7 131 123.5 130.8 124.1 130.7C124.3 130.7 123.8 130.5 123.8 130.4C123.8 130.2 123.8 130 123.8 129.7C123.8 129.4 123.9 129.1 123.8 128.8C123.8 128.6 123.5 128.4 123.5 128.2C123.5 128 123.5 127.8 123.5 127.6C123.5 127.4 123.8 127.1 123.9 126.9C123.9 126.6 123.7 126.4 123.9 126.1C124.4 125.6 124.2 125.2 124.2 124.7C124.2 124.2 124.2 123.8 124.1 123.3C124.1 123 124.5 122.8 124.5 122.5C124.5 122.4 125.9 122 126.4 122H126.6C127.1 122.2 127.8 122.4 127.8 122.7C127.8 123.2 127.8 123.7 127.8 124.1H128.4Z" fill="black"/>
<path d="M140.5 120.398C143.4 120.298 146.3 120.198 149.1 119.898C150.2 119.898 151.3 119.898 152.4 119.398C152.9 119.098 154 119.598 155 119.498C157.7 119.198 160.4 118.998 163 118.598C165.5 118.198 168 117.498 170.3 116.698C172.6 115.898 174.9 115.098 176.7 113.498C176.7 113.498 176.8 113.498 176.8 113.398C176.8 113.398 176.8 113.398 176.8 113.298C176.8 113.298 176.8 113.298 176.9 113.198C176.9 113.198 176.9 113.098 176.9 112.998C176.7 112.698 176.5 112.298 176.2 112.098C175 110.798 173.2 109.798 171.5 108.498C170.3 107.598 169.1 106.598 167.7 105.998C166.8 105.598 165.9 105.498 165 104.998C164.1 104.598 163.3 103.898 162.2 104.098C162.2 104.098 161.8 103.898 161.6 103.698C160.8 102.898 159.6 102.498 158.7 102.498C157.8 102.498 157.1 102.198 156.4 101.998C154.4 101.398 152.3 100.898 150.2 100.398C148.6 100.098 147.1 99.5984 145.5 99.2984C143.8 98.9984 142.1 99.2983 140.5 98.8983C139 98.4983 137.5 98.5984 136.1 98.7984C135.3 98.8984 134.3 98.7983 133.9 99.6983C133.9 99.6983 133.6 99.8983 133.5 99.8983C132.4 99.8983 131.4 100.498 130.7 101.298C129.9 102.098 129.4 102.998 128.6 103.798C127.1 105.498 126.3 107.898 126 110.198C126 110.798 125.7 111.498 126 112.098C126 112.098 126 112.298 126 112.398C126 112.598 126 112.898 126 113.098C126 113.598 126 114.198 126 114.498C126 115.298 125.9 116.098 125.9 116.898C124.3 116.898 122.9 116.898 121.4 116.898H120.8H120.5H119.9C119.5 116.898 119.1 116.898 118.7 116.898C116.4 116.898 114.2 117.398 112 117.298C111.1 117.298 109.7 117.498 108.9 118.398C108.7 118.598 108.3 118.698 108 118.898C107.6 118.998 107.2 119.098 106.8 119.298C106.2 119.598 105.9 120.098 105.3 120.398C104.9 120.698 104.3 120.798 103.9 120.898C103.8 120.898 103.7 120.998 103.6 121.098C103.3 121.598 103.5 121.598 103.4 121.998C103.4 122.398 103.4 123.198 103.4 123.998C103.4 125.598 103.4 127.198 103.8 128.798C104.6 131.998 105.6 135.098 107 138.098C107.7 139.798 108.5 141.398 108.3 143.098C108.2 143.898 107.7 144.198 107 143.698C106.5 143.298 105.9 142.798 105.5 142.298C104.9 141.398 104.2 140.398 103.6 139.498C102.4 137.498 101.1 135.498 100.7 133.098C100.6 132.398 100.1 131.598 100.4 130.898C100.4 130.898 100.4 130.498 100.4 130.398C99.6996 128.898 99.2996 127.298 99.1996 125.698C99.1996 124.898 99.1996 124.098 99.0996 123.198C99.0996 122.298 99.0996 121.298 99.4996 120.198C99.7996 119.198 100.5 118.398 101.1 117.798C101.7 117.198 102.3 116.798 102.9 116.298C104.1 115.398 105.4 114.698 106.8 114.298C108.1 113.098 110 112.798 111.6 112.698C113.7 112.598 115.7 112.498 117.7 112.398H120.7C120.7 112.298 120.9 112.298 120.9 112.298H121H121.2C121.2 112.198 121.2 112.098 121.2 111.898C121.2 111.798 121.2 111.198 121.2 111.198C121.2 110.798 121.2 110.398 121.3 110.098C121.7 107.198 122.6 104.298 124.3 101.698C125.9 99.1983 128.3 96.9983 131.2 95.6983C132.2 95.2983 133 94.5983 134.2 94.6983C135.4 94.6983 136.8 94.3984 138 94.2984C139.1 94.2984 140.3 94.1984 141.3 94.2984C143.4 94.6984 145.6 94.9984 147.7 95.2984C149.8 95.5984 152 95.9983 154 96.4983C158.1 97.5983 162.1 99.1984 166.1 100.798C168.5 101.798 170.9 102.698 173.1 104.198C174 104.798 175.2 105.198 175.8 106.298C176 106.598 177.1 106.898 177.7 107.398C178.5 107.998 179.2 108.798 179.8 109.698C180 109.898 180.1 110.098 180.2 110.398C180.4 110.698 180.6 111.098 180.7 111.398C181 112.098 181.3 112.798 181.3 113.598C181.3 114.598 180.8 115.598 179.9 116.198C179.7 116.398 179.5 116.498 179.3 116.698L178.7 117.098L177.9 117.598C176.8 118.298 175.7 118.898 174.5 119.498C173.1 120.198 171.7 120.998 170.2 121.498C168.6 121.998 167 122.398 165.4 122.598C163.4 122.898 161.4 122.898 159.4 123.098C157.4 123.198 155.3 123.698 153.3 123.598C149.6 123.398 146.1 123.898 142.4 123.998C138.8 124.098 135.2 124.198 131.6 124.398C129.6 124.498 127.7 124.098 125.7 124.098C124.8 124.098 123.5 122.698 123.9 122.198C123.9 122.198 124.1 121.998 124.3 121.998C126.2 121.498 128 120.698 130.2 120.698C133.5 120.698 136.8 120.498 140 120.398H140.5Z" fill="black"/>
</svg>
