<svg width="300" height="300" viewBox="0 0 300 300" fill="none" xmlns="http://www.w3.org/2000/svg">
<path d="M179.7 136.3C178.5 135.1 177.4 133.8 176.2 132.6C175.8 132.2 175.5 131.5 174.7 131.4C174.3 131.4 174.3 130.5 173.9 130.1C172.8 129 171.8 127.8 170.6 126.7C169.5 125.6 168.3 124.7 167.2 123.6C166.1 122.5 165.3 121.2 164 120.3C162.9 119.6 162.5 118.4 161.7 117.7C160.8 117 159.9 116.4 159.1 115.7C158.6 115.2 157.9 114.7 157.1 114.7C156.6 114.7 156.1 114.9 155.6 114.7C155.1 114.7 154.5 114.3 154 114.9C154 114.9 153.7 114.9 153.6 114.7C153 114.3 152.3 114.3 151.8 114.5C151.3 114.8 150.9 114.7 150.4 114.7C149.1 114.7 147.9 114.7 146.6 114.7C145.7 114.7 144.7 114.5 143.8 114.5C142.8 114.5 141.8 114.9 140.9 114.7C140 114.5 139.1 114.7 138.2 114.7C137.7 114.7 137.1 114.6 136.7 115.3C136.7 115.3 136.5 115.3 136.4 115.3C134.8 114.7 133.6 116 132.1 116.1C130.6 116.2 129.1 116.7 127.6 117.1C127.2 117.2 126.7 117.1 126.5 117.7C126.5 117.9 126 118 125.8 118C124.5 117.7 123.5 118.4 122.5 118.7C121.3 119.1 120.4 119.8 119.1 120.1C118.6 120.2 117.9 120.6 117.9 121.4C117.9 121.8 117.4 122 117.2 122.3C117 122.6 117.1 123 116.9 123.3C116.8 123.5 116.4 123.7 116.2 123.9L116.1 124.1C116.1 125 115.8 125.7 115.4 126.5C115.1 127.3 114.8 128.2 114.7 129.1C114.7 131 114.6 132.9 114.5 134.9C114.5 136 114.3 137.1 113.1 137.9C112.6 138.2 112 138.3 111.7 137.8C111.5 137.5 111.2 137.1 111.2 136.7C111.1 136.1 111 135.4 110.9 134.8C110.7 133.5 110.2 132.2 110.5 130.8C110.6 130.4 110.3 129.8 110.9 129.5C110.9 129.5 111 129.3 110.9 129.2C110.3 127.3 111.1 125.3 111.8 123.4C112.1 122.6 112.3 121.7 112.6 120.9C112.9 120.1 113.4 119.2 114.2 118.6C114.4 117.4 115.5 116.6 116.5 116.2C118.2 115.5 119.7 114.8 121.3 114.3C122.8 113.7 124.3 113.2 125.8 112.8C128.9 112.1 132 111.3 135.1 110.9C135.6 110.9 136 110.4 136.7 110.6C137.3 110.8 138.1 110.5 138.7 110.4C139.3 110.4 140 110.1 140.6 110.2C143.1 110.6 145.6 110.1 148.1 110.2C149.3 110.2 150.6 110.2 151.8 110.2C153 110.2 154.3 110.2 155.6 110.3C157.2 110.3 159 110.4 160.6 111.4C161.3 111.8 162.1 112 162.4 112.9C162.4 113.1 163.3 113.2 163.6 113.5C164.5 114.2 165.2 115 165.9 115.8C166.9 116.8 167.8 117.9 168.8 118.9C169.4 119.5 170.2 120 170.8 120.5C171.5 121.1 172.1 121.8 172.6 122.5C173.3 123.4 173.9 124.4 174.7 125.2C175.5 126.1 176.5 126.8 177.1 127.8C178.2 129.7 179.8 131 181.2 132.6C182.6 134.2 184 135.7 185.5 137.2C186.4 138 186.7 139.1 187.5 140C187.9 140.4 187.3 141.9 186.8 142.1C186.8 142.1 186.6 142.1 186.5 142.1C185.4 141.6 184.1 141.3 183.3 140.3C182 138.9 180.7 137.5 179.4 136.1L179.7 136.3Z" fill="black"/>
<path d="M116.599 163.4C116.599 163.8 116.599 164.3 116.799 164.7C116.799 164.9 116.599 165.1 117.199 165.1C117.499 165.1 116.899 165.4 116.899 165.5C116.999 165.9 116.999 166.3 117.099 166.7C117.199 167.1 117.499 167.4 117.599 167.8C117.699 168.2 117.499 168.6 117.899 168.9C118.199 169.2 117.799 169.6 117.899 169.8C118.099 170.1 118.199 170.4 117.999 170.8C117.899 171.1 117.699 171.3 117.799 171.5C117.799 171.6 118.199 171.7 118.199 171.9C118.199 172.1 117.999 172.3 118.599 172.3C118.599 172.3 118.599 172.3 118.499 172.4C118.099 172.6 118.199 172.8 118.499 172.9C118.799 172.9 118.799 173.1 118.799 173.2C118.799 173.5 118.999 173.9 118.999 174.2C118.999 174.5 118.799 174.7 118.799 175C118.799 175.3 119.099 175.5 118.799 175.8C118.499 176.1 118.599 176.3 118.599 176.6C118.599 176.7 118.399 176.9 118.999 176.9C118.299 177.4 119.399 177.6 119.299 178C119.199 178.4 119.299 178.8 119.499 179.2C119.499 179.3 119.399 179.5 119.799 179.5C119.999 179.5 119.999 179.6 119.899 179.7C119.299 180.1 119.799 180.4 119.699 180.7C119.699 181.1 119.999 181.4 119.599 181.8C119.399 182 119.399 182.2 119.999 182.3C120.299 182.3 119.999 182.6 120.099 182.7C120.099 182.7 120.499 182.8 120.499 182.9C120.499 182.9 120.299 183.1 120.199 183.2C120.999 183.6 120.199 184.3 120.399 184.7C120.699 185.2 120.699 185.7 120.699 186.3C120.699 186.6 120.599 186.9 119.499 187.3C118.999 187.5 118.499 187.6 118.099 187.5C117.799 187.5 117.599 187.4 117.499 187.3C117.399 187.2 117.199 187 117.099 186.9C116.799 186.6 116.299 186.4 116.499 186C116.499 185.9 116.199 185.8 116.699 185.6C115.799 185.3 116.299 184.7 116.099 184.3C115.999 183.9 115.299 183.7 115.499 183.2C114.799 183.1 114.899 182.8 114.999 182.6C115.499 181.7 114.999 181 114.899 180.2C114.899 179.4 114.599 178.6 114.499 177.8C114.499 177.7 114.099 177.6 114.399 177.4C114.599 177.2 114.399 177 114.399 176.9C114.399 176.7 114.199 176.6 114.399 176.4C114.899 175.7 114.399 175.1 114.399 174.5C114.399 173.9 114.399 173.2 113.999 172.6C113.799 172.2 113.399 171.9 113.499 171.5C113.499 171.3 113.199 171.2 113.699 171C113.899 171 113.399 170.8 113.299 170.7C113.299 170.4 113.199 170.2 113.199 169.9C113.199 169.5 113.199 169.2 112.999 168.8C112.999 168.6 112.599 168.4 112.599 168.2C112.499 168 112.499 167.7 112.499 167.5C112.499 167.2 112.699 166.9 112.699 166.6C112.699 166.3 112.399 166 112.699 165.7C113.099 165.1 112.699 164.6 112.699 164C112.699 163.5 112.699 162.9 112.399 162.4C112.299 162.1 112.699 161.8 112.699 161.5C112.699 161.4 114.099 161 114.599 161H114.799C115.299 161.2 116.099 161.4 116.099 161.7C116.099 162.2 116.199 162.7 116.299 163.2L116.599 163.4Z" fill="black"/>
<path d="M166.101 147.298C166.501 147.098 166.801 146.998 167.201 146.698C167.301 146.698 167.601 146.698 167.501 146.198C167.501 145.898 167.901 146.398 168.001 146.398C168.301 146.198 168.701 146.098 169.001 145.898C169.301 145.698 169.501 145.298 169.801 145.098C170.101 144.898 170.601 145.098 170.801 144.598C171.001 144.198 171.401 144.598 171.601 144.298C171.801 144.098 172.101 143.898 172.501 143.998C172.801 143.998 173.101 144.198 173.201 143.998C173.201 143.898 173.201 143.498 173.401 143.498C173.501 143.498 173.801 143.698 173.701 142.998C173.701 142.998 173.701 142.998 173.901 142.998C174.201 143.298 174.401 143.198 174.401 142.998C174.401 142.698 174.501 142.698 174.601 142.598C174.901 142.498 175.201 142.298 175.501 142.298C175.701 142.298 176.001 142.298 176.301 142.298C176.501 142.298 176.701 141.898 177.001 142.098C177.301 142.298 177.501 142.198 177.701 142.098C177.801 142.098 178.101 142.298 177.901 141.598C178.501 142.298 178.501 141.098 178.901 141.198C179.301 141.198 179.601 140.998 180.001 140.898C180.001 140.898 180.301 140.998 180.201 140.498C180.201 140.298 180.201 140.298 180.401 140.398C180.901 140.898 181.001 140.398 181.301 140.398C181.601 140.398 181.901 139.998 182.301 140.398C182.501 140.598 182.701 140.598 182.701 139.998C182.701 139.698 182.901 139.998 183.001 139.798C183.001 139.798 183.001 139.398 183.201 139.398C183.201 139.398 183.401 139.598 183.501 139.698C183.801 138.898 184.501 139.698 184.901 139.298C185.301 138.998 185.801 138.898 186.301 138.898C186.601 138.898 186.901 138.898 187.401 139.998C187.601 140.498 187.801 140.998 187.701 141.398C187.701 141.698 187.701 141.898 187.601 141.998C187.501 142.098 187.401 142.298 187.301 142.398C187.101 142.698 186.901 143.298 186.601 143.098C186.501 143.098 186.501 143.398 186.201 142.898C186.001 143.798 185.501 143.398 185.101 143.598C184.801 143.798 184.601 144.498 184.201 144.298C184.201 144.998 184.001 144.898 183.701 144.798C182.801 144.398 182.301 144.998 181.601 145.198C180.901 145.298 180.301 145.698 179.601 145.898C179.501 145.898 179.601 146.298 179.301 146.098C179.101 145.898 179.001 146.098 178.801 146.198C178.701 146.198 178.601 146.398 178.401 146.298C177.601 145.898 177.301 146.498 176.701 146.598C176.201 146.698 175.601 146.898 175.201 147.298C174.901 147.498 174.801 147.998 174.401 147.998C174.201 147.998 174.201 148.398 173.901 147.898C173.801 147.798 173.901 148.198 173.801 148.298C173.601 148.398 173.401 148.498 173.201 148.598C172.901 148.698 172.601 148.798 172.301 148.998C172.101 149.098 172.101 149.398 171.901 149.598C171.701 149.698 171.601 149.798 171.301 149.898C171.001 149.898 170.701 149.898 170.401 149.898C170.101 149.898 170.001 150.298 169.601 150.198C168.901 149.998 168.601 150.398 168.201 150.598C167.701 150.798 167.301 150.898 166.901 151.298C166.701 151.498 166.201 151.198 166.001 151.298C165.901 151.298 165.101 150.098 164.901 149.698V149.498C164.901 148.998 164.801 148.198 165.101 148.098C165.501 147.998 165.901 147.698 166.301 147.498L166.101 147.298Z" fill="black"/>
<path d="M146.699 141.101C146.699 140.901 146.699 140.701 146.699 140.601C146.699 140.601 146.899 140.501 146.399 140.401C146.099 140.401 146.799 140.301 146.699 140.201C146.699 140.001 146.699 139.901 146.699 139.701C146.699 139.501 146.399 139.401 146.399 139.201C146.399 139.001 146.699 138.901 146.399 138.701C146.099 138.501 146.599 138.501 146.499 138.301C146.399 138.201 146.299 138.001 146.499 137.901C146.699 137.901 146.899 137.701 146.799 137.601C146.799 137.601 146.399 137.401 146.499 137.401C146.499 137.401 146.799 137.401 146.199 137.201C146.199 137.201 146.199 137.201 146.399 137.201C146.799 137.201 146.799 137.201 146.499 137.001C146.199 137.001 146.299 136.901 146.299 136.801C146.299 136.701 146.299 136.501 146.299 136.401C146.299 136.401 146.599 136.201 146.699 136.201C146.699 136.201 146.499 135.901 146.799 135.901C147.099 135.901 147.099 135.801 147.099 135.701C147.099 135.701 147.399 135.701 146.799 135.501C147.599 135.501 146.599 135.101 146.799 135.001C146.999 134.901 146.899 134.701 146.999 134.501C146.999 134.501 147.199 134.501 146.799 134.301C146.599 134.201 146.599 134.301 146.799 134.301C147.399 134.301 147.099 134.101 147.199 134.001C147.399 133.901 147.199 133.701 147.599 133.701C147.799 133.701 147.899 133.701 147.399 133.401C147.199 133.301 147.399 133.401 147.399 133.201L147.099 133.001C147.099 133.001 147.299 133.001 147.499 133.001C146.899 132.601 147.899 132.701 147.799 132.401C147.799 132.101 147.799 132.001 147.999 131.801C147.999 131.801 148.299 131.701 149.399 132.001C149.899 132.201 150.399 132.401 150.699 132.601C150.899 132.701 151.099 132.801 151.099 132.901C151.099 132.901 151.299 133.101 151.299 133.201C151.399 133.401 151.899 133.701 151.599 133.701C151.599 133.701 151.799 133.901 151.299 133.701C151.999 134.101 151.399 134.101 151.399 134.301C151.399 134.401 151.999 134.801 151.699 134.801C152.299 135.101 152.099 135.101 151.899 135.101C151.199 135.101 151.499 135.501 151.399 135.801C151.199 136.001 151.299 136.301 151.199 136.601C151.199 136.601 151.499 136.801 151.199 136.801C150.899 136.801 151.199 136.901 151.199 137.001C151.199 137.001 151.299 137.101 151.199 137.201C150.499 137.201 150.899 137.601 150.799 137.801C150.799 138.001 150.599 138.201 150.799 138.401C150.799 138.501 151.199 138.701 151.099 138.801C151.099 138.801 151.399 138.901 150.799 138.901C150.599 138.901 151.099 138.901 151.099 139.001C151.099 139.001 151.099 139.201 151.099 139.301C151.099 139.401 151.099 139.501 151.099 139.701L151.399 139.901V140.101C151.399 140.101 151.099 140.301 150.999 140.401C150.999 140.501 151.199 140.601 150.999 140.701C150.499 140.901 150.699 141.101 150.699 141.301C150.699 141.501 150.699 141.701 150.699 141.801C150.699 141.801 150.299 142.001 150.299 142.101C150.299 142.101 148.799 142.301 148.299 142.401H148.099C147.599 142.401 146.899 142.301 146.899 142.101C146.899 141.901 146.899 141.701 146.899 141.501L146.699 141.101Z" fill="black"/>
<path d="M157.1 141.902C157.1 141.702 157.1 141.502 157.1 141.402C157.1 141.402 157.3 141.302 156.8 141.202C156.5 141.202 157.2 141.102 157.1 141.002C157.1 140.802 157.1 140.702 157.1 140.502C157.1 140.302 156.8 140.202 156.8 140.002C156.8 139.802 157.1 139.702 156.8 139.502C156.5 139.302 157 139.302 156.9 139.102C156.8 139.002 156.7 138.802 156.9 138.702C157.1 138.702 157.3 138.502 157.2 138.402C157.2 138.402 156.8 138.202 156.9 138.202C156.9 138.202 157.2 138.202 156.6 138.002C156.6 138.002 156.6 138.002 156.8 138.002C157.2 138.002 157.2 138.002 156.9 137.802C156.6 137.802 156.7 137.702 156.7 137.602C156.7 137.502 156.7 137.302 156.7 137.202C156.7 137.202 157 137.002 157.1 137.002C157.1 137.002 156.9 136.702 157.2 136.702C157.5 136.702 157.5 136.602 157.5 136.502C157.5 136.502 157.8 136.502 157.2 136.302C158 136.302 157 135.902 157.2 135.802C157.4 135.702 157.3 135.502 157.4 135.302C157.4 135.302 157.6 135.302 157.2 135.102C157 135.002 157 135.102 157.2 135.102C157.8 135.102 157.5 134.902 157.6 134.802C157.8 134.702 157.6 134.502 158 134.502C158.2 134.502 158.3 134.502 157.8 134.202C157.6 134.102 157.8 134.202 157.8 134.002L157.5 133.802C157.5 133.802 157.7 133.802 157.9 133.802C157.3 133.402 158.3 133.502 158.2 133.202C158.2 132.902 158.2 132.802 158.4 132.602C158.4 132.602 158.7 132.502 159.8 132.802C160.3 133.002 160.8 133.202 161.1 133.402C161.3 133.502 161.5 133.602 161.5 133.702C161.5 133.702 161.7 133.902 161.7 134.002C161.8 134.202 162.3 134.502 162 134.502C162 134.502 162.2 134.702 161.7 134.502C162.4 134.902 161.8 134.902 161.8 135.102C161.8 135.202 162.4 135.602 162.1 135.602C162.7 135.902 162.5 135.902 162.3 135.902C161.6 135.902 161.9 136.302 161.8 136.602C161.6 136.802 161.7 137.102 161.6 137.402C161.6 137.402 161.9 137.602 161.6 137.602C161.3 137.602 161.6 137.702 161.6 137.802C161.6 137.802 161.7 137.902 161.6 138.002C160.9 138.002 161.3 138.402 161.2 138.602C161.2 138.802 161 139.002 161.2 139.202C161.2 139.302 161.6 139.502 161.5 139.602C161.5 139.602 161.8 139.702 161.2 139.702C161 139.702 161.5 139.702 161.5 139.802C161.5 139.802 161.5 140.002 161.5 140.102C161.5 140.202 161.5 140.302 161.5 140.502L161.8 140.702V140.902C161.8 140.902 161.5 141.102 161.4 141.202C161.4 141.302 161.6 141.402 161.4 141.502C160.9 141.702 161.1 141.902 161.1 142.102C161.1 142.302 161.1 142.502 161.1 142.602C161.1 142.602 160.7 142.802 160.7 142.902C160.7 142.902 159.2 143.102 158.7 143.202H158.5C158 143.202 157.3 143.102 157.3 142.902C157.3 142.702 157.3 142.502 157.3 142.302L157.1 141.902Z" fill="black"/>
<path d="M147.5 154.401C148.2 154.701 148.8 155.101 149.5 155.401C149.8 155.501 149.9 155.901 150.4 155.601C150.7 155.401 150.6 156.101 150.8 156.201C151.4 156.501 152 156.901 152.6 157.201C153.2 157.501 153.8 157.601 154.4 157.801C155 158.001 155.4 158.601 156.1 158.601C156.7 158.601 156.9 159.201 157.3 159.301C157.8 159.301 158.3 159.501 158.7 159.901C159 160.201 159.2 160.501 159.6 160.501C159.8 160.501 160.1 160.201 160.3 160.301C160.5 160.301 160.7 160.701 161 160.101C161 160.101 161.1 160.101 161.1 160.301C161.2 160.801 161.6 160.801 161.8 160.501C162 160.301 162.2 160.301 162.4 160.401C162.9 160.401 163.5 160.501 164 160.701C164.4 160.801 164.8 161.101 165.2 161.201C165.4 161.201 165.6 161.201 165.9 161.201C165.9 161.201 165.9 161.201 166 161.401C166.1 161.701 166.3 161.701 166.4 161.801C166.4 161.801 166.8 162.201 166.4 161.401C166.9 162.101 166.9 161.801 166.7 161.501C166.7 161.401 166.5 161.301 166.6 161.301C166.8 161.401 166.6 161.101 166.6 161.001C166.6 161.001 166.8 161.001 166.3 160.801C166.1 160.801 166.1 160.801 166.3 160.801C166.6 160.801 166.7 160.801 166.7 160.801C166.7 160.801 166.6 160.501 166.6 160.301C166.6 159.701 166.2 159.201 166.5 158.601C166.6 158.301 166.7 158.001 166 157.801C165.7 157.801 165.9 157.401 165.8 157.201C165.8 157.001 165.4 157.001 165.3 156.801C165.3 156.701 165.4 156.501 165.5 156.301V156.201C164.6 155.601 165.3 154.501 164.9 153.801C164.5 153.001 164.3 152.201 164.1 151.401C164.1 150.901 164.1 150.401 165 149.801C165.4 149.501 166 149.301 166.3 149.401C166.6 149.401 166.8 149.601 167 149.701C167.2 149.901 167.4 150.101 167.6 150.401C168 150.901 168.6 151.201 168.5 151.901C168.5 152.101 168.8 152.201 168.4 152.501V152.601C169.4 153.101 169.1 154.001 169.4 154.801C169.6 155.401 170.4 155.901 170.3 156.601C171 156.801 171 157.201 170.9 157.701C170.7 158.401 170.9 159.101 171 159.701L171.4 161.201C171.5 161.801 171.7 162.401 171.8 162.901C171.9 163.701 172.1 164.501 172.3 165.301L172.6 166.501C172.6 166.901 172.8 167.401 172.8 167.701L170.6 167.001C170.2 166.901 170 167.201 169.3 166.701C168.7 166.301 168.2 166.301 167.7 166.201C167.2 166.101 166.7 166.201 166.3 165.901C166.1 165.801 165.9 165.701 165.6 165.601C165.5 165.601 165.4 165.501 165.2 165.401C165 165.401 164.7 165.301 164.5 165.201C164 165.201 163.5 165.201 162.9 165.001C161.9 164.801 160.8 164.501 159.7 164.401C159 164.401 158.3 164.401 157.6 164.101C157.3 164.001 156.9 164.101 156.9 163.501C156.9 163.301 156.5 163.601 156.3 163.501C155.9 163.401 155.4 163.101 155 162.901C154.4 162.601 153.9 162.301 153.3 162.101C152.9 162.001 152.5 162.001 152.1 161.901C151.7 161.801 151.4 161.601 151.1 161.301C150.7 161.001 150.4 160.601 150 160.301C149.6 160.001 149 160.001 148.7 159.501C148.2 158.601 147.3 158.401 146.6 158.001C145.9 157.601 145.1 157.101 144.3 156.901C143.8 156.801 143.6 156.201 143.2 156.001C143 156.001 143.2 154.401 143.4 154.001C143.4 154.001 143.5 153.801 143.6 153.801C144.2 153.501 144.9 153.001 145.5 153.301C146.3 153.701 147.1 154.001 147.8 154.401H147.5Z" fill="black"/>
<path d="M151.3 163.201C150.9 163.401 150.4 163.501 150 163.701C149.8 163.701 149.6 163.701 149.6 164.201C149.6 164.501 149.2 164.001 149.1 164.001C148.7 164.201 148.3 164.301 147.9 164.501C147.5 164.701 147.2 165.101 146.8 165.301C146.4 165.501 145.9 165.401 145.6 165.901C145.4 166.301 144.9 165.901 144.6 166.201C144 166.601 143.3 166.901 142.7 166.901C142.3 166.901 141.9 166.801 141.5 167.101C141.2 167.301 140.9 167.801 140.5 167.901C140.2 167.901 140.1 167.801 139.4 168.701C139.4 168.701 139.3 168.701 139.3 168.601C139.3 168.201 139 168.301 138.5 168.801C138 169.201 137.9 169.301 137.6 169.401C137 169.601 136.3 169.901 135.8 170.001C135.4 170.001 135.3 169.901 134.9 170.001C134.9 170.001 134.7 170.001 134.6 170.101H134.4C134.4 169.701 134.5 169.501 134.8 169.101C135.4 168.301 135.5 167.901 135.6 167.501C135.6 167.301 136.2 166.701 135.3 167.201C135.3 167.201 135.3 167.201 135.3 167.101C136 166.401 136 166.101 135.9 165.901C135.9 165.701 135.6 165.501 135.9 165.101C136.4 164.301 136.5 163.601 136.7 162.901C136.7 162.701 137.1 162.501 136.7 162.301C136.5 162.301 136.7 162.001 136.7 161.901C137.6 161.301 137.5 160.801 137.8 160.201C137.9 160.001 138 159.901 138.1 159.701V159.401C138.3 159.201 138.5 159.101 138.8 159.001C139.1 159.001 139.3 158.801 138.8 158.301C138.6 158.101 138.9 158.001 139 157.901C139 157.801 138.8 157.501 138.9 157.401C138.9 157.401 139.2 157.401 139.4 157.301C139.1 156.401 140.2 156.401 140.4 155.801C140.6 155.201 141 154.701 141.4 154.301C141.6 154.101 142 153.901 143 154.301C143.5 154.501 143.9 154.901 144.1 155.201C144.2 155.401 144.4 155.601 144.3 155.801C144.3 156.001 144.3 156.201 144.3 156.401C144.3 156.801 144.5 157.401 144.1 157.501C144 157.501 144.1 157.801 143.7 157.601H143.6C144 158.401 143.3 158.601 143.1 159.001C142.9 159.401 143.3 160.001 142.8 160.301C143.2 160.801 143 161.001 142.8 161.101C142.6 161.201 142.4 161.301 142.2 161.501C142.2 161.601 142.2 161.601 142.2 161.601V161.801C142 162.001 142.1 162.101 142 162.301C141.6 162.701 141.9 162.401 141.9 162.501C141.9 162.501 142.1 162.301 141.9 162.601C141.8 162.701 141.7 162.901 141.5 163.001C141.4 163.101 141.3 163.201 141.3 163.201C141.4 163.201 141.6 163.001 141.7 163.001C141.8 163.001 142 163.001 142.3 162.701C142.5 162.501 142.6 162.101 142.7 162.201C142.7 162.201 142.7 161.901 142.8 162.501C142.8 162.701 142.8 162.201 142.8 162.201C142.8 162.201 143.1 162.101 143.4 162.001C143.8 161.901 144.2 161.701 144.5 161.501C144.7 161.401 144.9 161.101 145.1 160.901C145.3 160.701 145.6 160.701 145.8 160.601C146.1 160.601 146.5 160.601 146.8 160.601C147.1 160.601 147.4 160.201 147.8 160.301C148.5 160.601 149 160.101 149.6 159.901C150.2 159.701 150.7 159.601 151.3 159.201C151.6 159.001 152.1 159.401 152.4 159.201C152.5 159.201 153.3 160.401 153.4 160.901V161.101C153.3 161.701 153.3 162.401 152.9 162.501C152.4 162.601 151.9 162.901 151.4 163.101L151.3 163.201Z" fill="black"/>
<path d="M170.301 169.5C169.901 169.9 169.501 170.2 169.201 170.5C169.101 170.6 168.801 170.5 169.001 171.1C169.001 171.4 168.501 171 168.401 171.1C168.101 171.4 167.701 171.7 167.301 172C167.001 172.3 166.701 172.8 166.401 173.1C166.101 173.4 165.501 173.4 165.301 173.9C165.101 174.3 164.601 174.1 164.301 174.4C164.001 174.7 163.701 175 163.301 174.9C163.001 174.9 162.601 174.8 162.401 175C162.301 175.1 162.301 175.5 162.101 175.5C161.901 175.5 161.601 175.4 161.801 176C161.801 176 161.801 176 161.601 176C161.101 175.8 160.801 176 160.601 176.3C160.401 176.7 160.201 176.7 159.901 176.8C159.201 177.1 158.601 177.3 158.001 177.4C157.801 177.4 157.601 177.4 157.401 177.4H157.101C157.101 177.4 157.001 177.3 156.901 177.2C156.601 177.1 156.101 177.2 155.901 176.9C155.901 176.7 155.801 176.6 155.601 176.5C155.501 176.4 155.401 176.2 155.301 176.1C155.301 176 155.301 175.6 154.801 176C155.001 175.5 155.001 175.2 154.801 175.1C154.601 174.9 154.401 174.7 154.401 174.3C154.601 173.3 154.501 172.6 154.601 171.8C154.601 171.6 154.801 171.4 154.401 171.2C154.201 171.2 154.301 170.8 154.401 170.8C155.101 170.5 154.701 170.1 154.901 169.8C155.101 169.4 154.901 169 155.401 168.7C155.601 168.6 155.801 168.4 155.201 168.1C154.901 168 155.201 167.8 155.201 167.7C155.201 167.6 154.901 167.4 154.901 167.3C154.901 167.2 155.201 167.1 155.301 167.1C154.701 166.4 155.701 166.1 155.701 165.4C155.701 164.7 156.001 163.9 156.501 163.1C156.801 162.7 157.501 162.3 158.401 163C158.801 163.3 159.101 163.8 159.301 164.1C159.301 164.3 159.501 164.5 159.501 164.6C159.501 164.7 159.501 164.9 159.501 165C159.501 165.3 160.001 165.6 159.701 165.8C159.601 165.8 159.901 166 159.301 166C160.001 166.6 159.301 167 159.301 167.4C159.301 167.8 159.801 168.3 159.501 168.7C160.101 169 159.901 169.3 159.701 169.5C159.301 169.9 159.201 170.3 159.201 170.7C159.201 171.1 159.201 171.7 159.201 171.6C159.201 171.6 159.201 171.8 159.201 171.9C159.201 171.9 159.201 172 159.201 172.1C158.901 172.4 159.201 172.2 159.201 172.3C159.001 172.7 159.101 172.8 159.201 172.7C159.301 172.7 159.401 172.5 159.501 172.5C159.501 172.5 159.701 172.5 159.801 172.5C159.801 172.5 159.801 172.5 159.901 172.5C160.001 172.5 160.201 172.3 160.301 172.2C160.601 171.9 160.801 171.5 161.201 171.4C161.401 171.4 161.401 171 161.801 171.4C161.901 171.5 161.801 171.1 161.901 171C162.101 170.8 162.301 170.7 162.601 170.6C162.901 170.4 163.201 170.3 163.501 170C163.701 169.8 163.701 169.5 163.801 169.4C164.001 169.2 164.101 169.1 164.401 169C164.701 168.9 165.001 168.9 165.301 168.8C165.601 168.7 165.601 168.3 166.001 168.3C166.701 168.3 167.001 167.8 167.401 167.5C167.801 167.2 168.201 166.8 168.501 166.3C168.701 166 169.201 166.2 169.401 165.9C169.401 165.8 170.701 166.6 171.101 167L171.201 167.2C171.301 167.7 171.701 168.5 171.401 168.7C171.001 169.1 170.601 169.5 170.201 169.9L170.301 169.5Z" fill="black"/>
<path d="M158.401 189.799C158.401 189.599 158.601 189.399 158.601 189.199C158.601 189.199 158.901 189.199 158.401 188.899C158.201 188.799 158.801 188.899 158.801 188.899C158.801 188.699 159.001 188.599 159.001 188.399C159.001 188.199 158.901 187.999 158.901 187.799C158.901 187.599 159.201 187.499 159.001 187.299C158.801 187.099 159.301 187.099 159.201 186.899C159.201 186.699 159.201 186.499 159.401 186.499C159.601 186.499 159.801 186.499 159.801 186.299L159.501 185.999C159.501 185.999 159.801 185.999 159.301 185.699C159.301 185.699 159.301 185.699 159.501 185.699C159.901 185.699 159.901 185.699 159.701 185.499C159.501 185.299 159.501 185.299 159.501 185.299C159.501 185.099 159.501 184.999 159.701 184.899C159.701 184.899 160.001 184.799 160.101 184.699C160.201 184.699 160.001 184.399 160.301 184.399C160.601 184.399 160.601 184.299 160.701 184.199C160.701 184.199 161.001 184.199 160.401 183.899C161.201 183.999 160.301 183.499 160.501 183.399C160.801 183.299 160.701 183.099 160.701 182.899C160.701 182.899 160.901 182.899 160.501 182.699C160.401 182.699 160.401 182.599 160.501 182.599C161.101 182.599 160.801 182.399 161.001 182.299C161.201 182.199 161.001 181.899 161.501 181.899C161.701 181.899 161.901 181.899 161.301 181.599C161.101 181.499 161.301 181.499 161.301 181.399L161.001 181.199C161.001 181.199 161.201 181.199 161.401 181.199C160.901 180.699 161.801 180.799 161.701 180.499C161.701 180.199 161.701 179.999 161.901 179.799C161.901 179.699 162.201 179.599 163.301 179.899C163.801 179.999 164.301 180.199 164.601 180.399C164.801 180.499 165.001 180.599 165.001 180.699C165.001 180.799 165.201 180.899 165.201 180.999C165.301 181.199 165.801 181.499 165.501 181.599C165.501 181.599 165.701 181.799 165.201 181.599C165.901 182.099 165.301 182.099 165.201 182.299C165.201 182.499 165.701 182.899 165.401 182.999C166.001 183.299 165.801 183.399 165.601 183.399C164.801 183.499 165.101 183.999 164.901 184.299C164.701 184.599 164.601 184.999 164.501 185.299C164.501 185.299 164.801 185.499 164.501 185.499C164.201 185.499 164.401 185.599 164.401 185.699V185.899C163.701 185.899 164.001 186.399 163.801 186.599C163.601 186.799 163.501 187.099 163.501 187.399C163.501 187.599 163.801 187.899 163.601 187.999C163.601 187.999 163.801 188.199 163.201 188.099C163.001 188.099 163.401 188.299 163.401 188.299C163.401 188.399 163.401 188.499 163.301 188.599C163.301 188.799 163.101 188.899 163.101 189.099C163.101 189.199 163.301 189.399 163.301 189.499C163.301 189.599 163.301 189.699 163.201 189.799C163.101 189.899 162.801 189.999 162.701 190.099C162.601 190.199 162.801 190.399 162.501 190.499C161.901 190.499 162.101 190.899 161.901 191.099C161.801 191.299 161.601 191.499 161.701 191.799C161.701 191.999 161.201 191.899 161.201 191.999C161.201 191.999 159.801 191.599 159.301 191.399C159.301 191.399 159.101 191.399 159.101 191.299C158.701 190.999 158.101 190.599 158.201 190.499C158.301 190.299 158.401 190.099 158.501 189.899L158.401 189.799Z" fill="black"/>
<path d="M120.6 158.702C119.5 159.602 118.1 160.402 116.4 160.802C115.8 161.002 115.1 160.802 114.5 161.302C114.1 161.602 113.6 160.902 113 160.802C111.5 160.602 110.2 160.002 109 159.402C107.8 158.802 106.6 158.302 105.6 157.602C104.5 156.902 103.7 155.802 102.6 155.102C101.6 154.502 101.4 153.502 100.6 152.702C99.8004 151.902 99.1004 151.002 98.8004 150.002C98.5004 149.302 98.4004 148.502 97.9004 147.902C97.6004 147.502 97.1004 147.302 96.9004 146.902C96.7004 146.502 96.7004 145.902 96.0004 145.802C96.0004 145.802 96.0004 145.602 96.0004 145.402C96.1004 144.802 95.8004 144.302 95.4004 144.002C95.0004 143.802 94.9004 143.502 94.7004 143.102C94.2004 142.202 93.7004 141.302 93.3004 140.402C93.3004 140.202 93.2004 140.102 93.1004 139.902C93.1004 139.702 93.1004 139.602 92.9004 139.202C92.6004 138.502 92.4004 137.902 92.1004 137.302C91.8004 136.702 91.4004 136.002 91.0004 135.302C90.6004 134.602 90.3004 134.002 90.2004 133.502C90.1004 132.602 89.6004 131.602 89.0004 130.502C88.8004 130.202 88.8004 130.002 88.7004 129.702C88.7004 129.502 88.5004 129.402 88.3004 129.102L88.1004 128.902C88.1004 128.902 88.1004 128.702 87.9004 128.602C87.9004 128.602 88.1004 128.602 88.3004 128.702C90.0004 129.702 90.7004 129.902 91.5004 130.002C92.2004 130.102 93.1004 130.202 94.2004 130.602C95.3004 131.102 96.3004 131.502 97.4004 131.802C98.3004 132.102 99.1004 132.402 100 132.702C100.3 132.802 100.6 133.102 101 132.702C101.2 132.602 101.5 132.702 101.6 132.902C102.2 133.802 103.3 133.802 104.1 134.302C105 134.802 106.1 134.902 106.9 135.802C107.2 136.202 107.8 136.502 108.5 136.202C108.8 136.102 109.2 136.502 109.6 136.602C109.9 136.602 110.3 136.602 110.6 136.602C110.9 136.702 111 137.002 111.2 137.202L111.4 137.302C113.1 137.302 114.1 138.802 115.6 139.302C117.1 139.802 118.5 140.602 119.9 141.402C120.7 141.802 121.4 142.402 121.4 143.702C121.4 144.302 121.1 144.802 120.7 144.902C120.4 144.902 120 145.102 119.7 144.902C119.2 144.802 118.7 144.702 118.3 144.502C117.3 144.202 116.2 144.302 115.4 143.602C115.2 143.402 114.7 143.502 114.7 142.902C114.7 142.902 114.6 142.702 114.5 142.702C112.9 142.802 111.9 141.802 110.6 141.302C109.5 140.902 108.2 141.002 107.2 140.302C106.3 140.602 105.7 140.302 105.1 139.802C103.2 138.302 100.8 137.802 98.7004 136.902L97.6004 136.402C97.5004 136.402 97.4004 136.402 97.3004 136.302C97.1004 136.302 96.9004 136.202 96.7004 136.102C96.7004 136.102 96.7004 136.202 96.9004 136.302C96.9004 136.302 97.1004 136.502 96.8004 136.302C96.3004 136.002 96.8004 136.302 96.8004 136.502C96.8004 136.502 97.1004 136.802 96.8004 136.702C96.4004 136.702 96.5004 137.002 96.7004 137.302L97.3004 138.302C97.5004 138.702 97.8004 139.102 98.0004 139.602C98.8004 141.302 99.6004 143.002 100.6 144.502C101.2 145.402 102.1 146.202 102.5 147.202C102.7 147.602 103.2 147.802 103 148.502C103 148.702 103.6 148.802 103.7 149.002C104.2 149.502 104.6 150.102 105.1 150.702C105.8 151.402 106.4 152.202 107.2 152.802C107.7 153.202 108.3 153.302 108.8 153.602C109.3 153.902 109.9 154.302 110.4 154.602C111 155.102 111.6 155.602 112.2 155.902C112.9 156.202 113.6 156.102 114.2 156.502C115.3 157.102 116.5 156.502 117.6 155.802C118.8 155.102 119.9 154.002 121.2 152.802C121.9 152.102 123 152.002 123.8 151.402C124.3 151.102 125.4 152.202 125.5 152.802C125.5 152.902 125.5 153.002 125.5 153.102C125 153.902 124.8 154.802 124.1 155.402C123 156.202 122 157.302 120.7 158.302L120.6 158.702Z" fill="black"/>
<path d="M134.5 118.499C134.5 118.999 134.4 119.399 134.4 119.899C134.4 120.099 134.1 120.299 134.7 120.499C135 120.599 134.3 120.799 134.3 120.899C134.3 121.399 134.3 121.899 134.3 122.399C134.3 122.899 134.5 123.399 134.5 123.899C134.5 124.399 134.2 124.799 134.5 125.299C134.7 125.699 134.2 125.999 134.3 126.399C134.3 126.799 134.3 127.299 134.1 127.599C133.9 127.899 133.6 128.099 133.7 128.399C133.7 128.599 134 128.799 134 128.999C134 129.199 133.6 129.299 134.2 129.599C134.2 129.599 134.2 129.599 134 129.699C133.6 129.799 133.5 130.099 133.8 130.299C134 130.499 134 130.699 133.9 130.799C133.9 131.199 133.7 131.599 133.6 131.999C133.5 132.299 133.1 132.499 133 132.799C132.8 133.099 133 133.499 132.6 133.699C132.2 133.899 132.1 134.199 132 134.399C132 134.599 131.6 134.599 132.1 134.999C131.1 135.099 131.9 135.999 131.5 136.399C131.1 136.799 130.9 137.299 130.7 137.799C130.7 137.899 130.4 137.999 130.7 138.299C130.8 138.399 130.7 138.599 130.7 138.599C130 138.599 130 139.099 129.7 139.399C129.3 139.699 129.3 140.299 128.6 140.299C128.3 140.299 128.1 140.399 128.3 140.999C128.4 141.299 128.1 141.199 128 141.399C128 141.499 128 141.799 128 141.899C128 141.899 127.7 141.899 127.5 141.899C127.5 142.899 126.3 142.699 125.9 143.199C125.5 143.799 124.8 144.099 124.2 144.399C123.8 144.599 123.4 144.599 122.6 143.699C122.3 143.299 122 142.799 122 142.399C122 142.099 122 141.899 122 141.799C122.1 141.599 122.2 141.399 122.3 141.299C122.5 140.999 122.5 140.299 122.9 140.399C123 140.399 122.9 140.099 123.3 140.399H123.4C123.4 139.499 124 139.599 124.3 139.199C124.6 138.899 124.4 138.199 124.9 137.999C124.6 137.399 124.9 137.299 125.1 137.199C126.1 136.999 126.3 135.999 126.8 135.399C127.3 134.699 127.6 133.899 128 133.199C128 133.099 127.8 132.799 128.1 132.799C128.4 132.799 128.3 132.499 128.4 132.299C128.4 132.099 128.4 131.899 128.6 131.799C129.5 131.399 129.3 130.599 129.5 129.899C129.8 129.299 130 128.599 130 127.899C130 127.499 129.7 126.999 130 126.599C130 126.399 129.8 126.199 130.4 126.099C130.6 126.099 130.2 125.799 130.1 125.699C130.1 125.399 130.1 125.099 130.2 124.799C130.2 124.399 130.3 123.999 130.3 123.599C130.3 123.299 130.1 123.099 130 122.799C130 122.499 130 122.299 130 121.999C130 121.699 130.3 121.399 130.4 120.999C130.4 120.599 130.2 120.299 130.5 119.899C131 119.299 130.8 118.599 131 117.899C131.1 117.199 131.3 116.599 131.3 115.799C131.3 115.399 131.9 115.099 132 114.799C132 114.599 133.5 114.799 134 115.099C134 115.099 134.2 115.099 134.2 115.199C134.5 115.699 135.2 116.099 135.1 116.399C134.9 116.899 134.9 117.399 134.8 117.899L134.5 118.499Z" fill="black"/>
</svg>
