<svg width="300" height="300" viewBox="0 0 300 300" fill="none" xmlns="http://www.w3.org/2000/svg">
<path d="M184.1 141C183.7 140.6 183.4 140.2 183 139.8C182.8 139.7 183 139.3 182.4 139.6C182.1 139.7 182.4 139.1 182.4 139C182 138.7 181.7 138.3 181.3 137.9C180.9 137.6 180.4 137.4 180.1 137.1C179.7 136.8 179.6 136.2 179.1 136.1C178.6 136 178.7 135.4 178.4 135.2C178 135 177.7 134.7 177.6 134.3C177.6 134 177.5 133.6 177.2 133.5C177 133.5 176.7 133.5 176.6 133.4C176.5 133.3 176.6 132.9 176 133.2C176 133.2 176 133.1 176 133C176.2 132.6 176 132.4 175.7 132.5C175.4 132.5 175.3 132.5 175.2 132.3C174.9 132 174.6 131.7 174.4 131.4C174.2 131.1 174.2 130.8 174 130.5C173.8 130.2 173.4 130.2 173.4 129.7C173.4 129.3 173.2 129.1 173 128.9C172.9 128.8 173 128.4 172.4 128.8C172.7 127.9 171.6 128.3 171.4 127.8C171.2 127.3 170.8 127 170.4 126.7C170.4 126.7 170.4 126.4 169.9 126.7C169.8 126.7 169.6 126.7 169.7 126.6C169.9 125.9 169.4 125.9 169.2 125.5C169 125.1 168.5 125 168.5 124.3C168.5 124 168.5 123.8 167.9 124C167.6 124.1 167.7 123.8 167.5 123.7C167.4 123.7 167.1 123.7 167 123.7C167 123.7 167 123.4 167 123.2C166.1 123.2 166.3 122.1 165.7 121.8C165.1 121.5 164.7 120.9 164.4 120.4C164.2 120.1 164.1 119.7 164.8 118.8C165.1 118.4 165.5 118 165.8 117.9C166.1 117.9 166.3 117.8 166.4 117.9C166.6 117.9 166.8 118 167 118.1C167.4 118.3 168.1 118.1 168.2 118.7C168.2 118.9 168.6 118.7 168.2 119.2V119.3C169.2 119.2 169.2 120 169.6 120.3C170 120.6 170.8 120.5 170.9 121.1C171.5 120.9 171.7 121.1 171.7 121.5C171.9 122.7 172.9 123.1 173.5 123.8C174.1 124.6 174.8 125.2 175.5 126C175.6 126.1 176 126 175.9 126.3C175.9 126.6 176.1 126.6 176.3 126.8C176.4 126.9 176.7 127 176.7 127.2C176.7 128.2 177.6 128.5 178 129.1C178.5 129.7 179 130.3 179.6 130.8C180 131.1 180.6 131.2 180.8 131.6C180.8 131.8 181.3 131.7 181 132.3C181 132.5 181.4 132.3 181.5 132.3C181.8 132.5 182 132.8 182.2 133C182.5 133.3 182.8 133.7 183.1 134C183.3 134.2 183.7 134.2 183.9 134.4C184.1 134.6 184.3 134.8 184.5 135C184.7 135.3 184.8 135.7 185 136C185.2 136.3 185.7 136.4 185.7 136.9C185.7 137.7 186.4 138 186.8 138.6C187.2 139.1 187.6 139.6 188.2 140C188.5 140.2 188.4 140.8 188.6 141.1C188.7 141.2 187.8 142.4 187.4 142.7L187.2 142.8C186.6 142.8 185.9 143.1 185.6 142.8C185.2 142.3 184.8 141.9 184.4 141.5L184.1 141Z" fill="black"/>
<path d="M135.3 115.2C134.7 115.2 134.1 115.4 133.6 115.5C133.4 115.5 133.1 115.3 133 115.9C133 116.2 132.6 115.6 132.4 115.7C131.9 115.9 131.3 115.9 130.8 116.1C130.3 116.3 129.8 116.6 129.3 116.8C128.8 117 128.2 116.8 127.8 117.3C127.4 117.7 126.9 117.3 126.6 117.5C126.2 117.7 125.8 117.9 125.3 117.8C124.9 117.8 124.6 117.6 124.3 117.8C124.1 117.9 124.1 118.3 123.9 118.3C123.7 118.3 123.4 118.2 123.5 118.8C123.5 118.8 123.4 118.8 123.3 118.8C123 118.5 122.7 118.6 122.7 118.9C122.7 119.2 122.5 119.2 122.4 119.3C122 119.5 121.7 119.7 121.3 119.8C121 119.8 120.6 119.8 120.4 119.9C120.1 120 120 120.4 119.6 120.3C119.2 120.3 119 120.3 118.8 120.6C118.7 120.6 118.4 120.6 118.7 121.2C117.8 120.9 118.3 122 117.9 122.1C117.5 122.3 117.3 122.8 117.1 123.2C117.1 123.3 116.8 123.3 117.1 123.6C117.2 123.7 117.1 123.8 117.1 123.8C116.4 123.8 116.6 124.3 116.3 124.6C116 124.9 116.2 125.4 115.6 125.7C115.3 125.8 115.2 126 115.6 126.4C115.8 126.6 115.6 126.7 115.6 126.9C115.6 127 115.9 127.2 115.8 127.3C115.8 127.4 115.5 127.5 115.4 127.6C115.4 127.6 115.4 127.6 115.4 127.7C115.9 128.4 115 128.9 115.1 129.6C115.2 130.3 115.1 131 115 131.7C115 132.1 114.7 132.5 113.6 132.7C113.1 132.8 112.5 132.7 112.2 132.7C112 132.6 111.7 132.4 111.7 132.3C111.7 132.1 111.5 131.8 111.4 131.6C111.2 131.1 110.7 130.6 111 130.1C111.1 130 110.8 129.7 111.3 129.7C111.3 129.7 111.4 129.7 111.3 129.6C110.6 128.9 111.2 128.2 111.3 127.5C111.3 126.9 110.8 126.2 111.3 125.7C110.8 125.2 111 124.8 111.3 124.6C112.3 123.6 112.3 122.3 113.1 121.2C113.8 120.1 114.6 119 115.6 118.1C115.8 118 115.6 117.6 116.1 117.6C116.5 117.6 116.6 117.3 116.8 117.1C117 116.9 117.2 116.7 117.4 116.7C118.6 116.7 119.2 115.9 120.1 115.6C121 115.3 121.9 115 122.7 114.6C123.2 114.3 123.6 113.8 124.2 113.8C124.4 113.8 124.6 113.4 125 113.8C125.1 113.9 125.2 113.4 125.3 113.4C125.6 113.2 126 113.2 126.4 113.1C126.9 113 127.4 112.9 127.9 112.7C128.2 112.6 128.4 112.3 128.7 112.1C129 112 129.3 111.9 129.7 111.9C130.1 111.9 130.6 111.9 131 111.9C131.4 111.9 131.8 111.5 132.3 111.7C133.2 112.1 133.8 111.7 134.6 111.6C135.4 111.6 136.1 111.5 136.8 111.2C137.2 111.1 137.7 111.5 138.1 111.5C138.3 111.5 138.7 112.9 138.7 113.4V113.6C138.4 114.1 138.1 114.9 137.6 114.9C136.9 114.9 136.3 115.1 135.6 115.2H135.3Z" fill="black"/>
<path d="M118.8 176.601C118.8 176.801 118.8 177.001 118.9 177.201C118.9 177.201 118.7 177.401 119.2 177.401C119.5 177.401 118.9 177.601 118.9 177.601C119 177.801 118.9 178.001 119 178.101C119 178.301 119.3 178.401 119.4 178.601C119.4 178.801 119.2 179.001 119.6 179.101C119.9 179.101 119.4 179.401 119.6 179.501C119.8 179.601 119.9 179.801 119.6 180.001C119.5 180.101 119.3 180.301 119.4 180.401C119.4 180.401 119.8 180.401 119.8 180.501C119.8 180.501 119.5 180.701 120.2 180.601C120.2 180.601 120.2 180.601 120.1 180.601C119.7 180.701 119.8 180.801 120.1 180.801C120.4 180.801 120.4 180.801 120.4 180.901C120.4 181.001 120.5 181.201 120.4 181.401C120.4 181.501 120.2 181.701 120.1 181.801C120.1 181.901 120.4 182.001 120.1 182.201C119.8 182.401 119.9 182.501 119.9 182.601C119.9 182.601 119.6 182.801 120.3 182.701C119.5 183.001 120.6 183.001 120.4 183.201C120.2 183.401 120.4 183.601 120.4 183.801C120.4 183.801 120.2 183.901 120.7 183.801C120.9 183.801 120.9 183.801 120.7 183.801C120.1 184.101 120.5 184.101 120.4 184.301C120.4 184.501 120.6 184.601 120.2 184.801C120 184.901 119.9 185.001 120.5 185.001C120.8 185.001 120.5 185.101 120.5 185.201C120.5 185.201 120.8 185.201 120.9 185.201C120.9 185.201 120.7 185.301 120.6 185.401C121.3 185.501 120.5 185.901 120.6 186.101C120.8 186.301 120.8 186.601 120.7 186.801C120.7 186.901 120.5 187.101 119.4 187.401C118.9 187.501 118.4 187.601 118 187.601C117.8 187.601 117.5 187.601 117.5 187.601C117.4 187.601 117.3 187.501 117.1 187.401C116.9 187.301 116.3 187.201 116.6 187.001C116.6 187.001 116.4 187.001 116.9 186.801C116.1 186.801 116.6 186.401 116.5 186.201C116.5 186.001 115.8 186.001 116 185.701C115.4 185.701 115.4 185.601 115.6 185.401C116.2 184.901 115.6 184.601 115.7 184.301C115.7 183.901 115.6 183.601 115.5 183.201C115.5 183.201 115.1 183.201 115.4 183.001C115.6 182.901 115.4 182.801 115.4 182.801C115.4 182.801 115.2 182.701 115.4 182.601C116 182.201 115.6 182.001 115.6 181.701C115.6 181.401 115.6 181.101 115.4 180.901C115.3 180.701 114.9 180.601 115 180.401C115 180.401 114.7 180.401 115.3 180.101C115.5 180.101 115 180.101 115 180.101C115 180.001 115 179.901 115 179.701C115 179.501 115 179.401 114.9 179.201C114.9 179.201 114.6 179.101 114.5 179.001C114.5 179.001 114.5 178.801 114.5 178.701C114.5 178.601 114.7 178.401 114.8 178.201C114.8 178.101 114.5 178.001 114.8 177.801C115.3 177.501 115 177.301 115 177.001C115 176.701 115 176.501 114.8 176.301C114.8 176.201 115.2 176.001 115.1 175.801C115.1 175.801 116.5 175.401 117 175.301H117.2C117.7 175.301 118.4 175.301 118.4 175.501C118.4 175.701 118.4 175.901 118.5 176.201L118.8 176.601Z" fill="black"/>
<path d="M166.1 147.298C166.5 147.098 166.8 146.998 167.2 146.698C167.3 146.698 167.6 146.698 167.5 146.198C167.5 145.898 167.9 146.398 168 146.398C168.3 146.198 168.7 146.098 169 145.898C169.3 145.698 169.5 145.298 169.8 145.098C170.1 144.898 170.6 145.098 170.8 144.598C171 144.198 171.4 144.598 171.6 144.298C171.8 144.098 172.1 143.898 172.5 143.998C172.8 143.998 173.1 144.198 173.2 143.998C173.2 143.898 173.2 143.498 173.4 143.498C173.5 143.498 173.8 143.698 173.7 142.998C173.7 142.998 173.7 142.998 173.9 142.998C174.2 143.298 174.4 143.198 174.4 142.998C174.4 142.698 174.5 142.698 174.6 142.598C174.9 142.498 175.2 142.298 175.5 142.298C175.7 142.298 176 142.298 176.3 142.298C176.5 142.298 176.7 141.898 177 142.098C177.3 142.298 177.5 142.198 177.7 142.098C177.8 142.098 178.1 142.298 177.9 141.598C178.5 142.298 178.5 141.098 178.9 141.198C179.3 141.198 179.6 140.998 180 140.898C180 140.898 180.3 140.998 180.2 140.498C180.2 140.298 180.2 140.298 180.4 140.398C180.9 140.898 181 140.398 181.3 140.398C181.6 140.398 181.9 139.998 182.3 140.398C182.5 140.598 182.7 140.598 182.7 139.998C182.7 139.698 182.9 139.998 183 139.798C183 139.798 183 139.398 183.2 139.398C183.2 139.398 183.4 139.598 183.5 139.698C183.8 138.898 184.5 139.698 184.9 139.298C185.3 138.998 185.8 138.898 186.3 138.898C186.6 138.898 186.9 138.898 187.4 139.998C187.6 140.498 187.8 140.998 187.7 141.398C187.7 141.698 187.7 141.898 187.6 141.998C187.5 142.098 187.4 142.298 187.3 142.398C187.1 142.698 186.9 143.298 186.6 143.098C186.5 143.098 186.5 143.398 186.2 142.898C186 143.798 185.5 143.398 185.1 143.598C184.8 143.798 184.6 144.498 184.2 144.298C184.2 144.998 184 144.898 183.7 144.798C182.8 144.398 182.3 144.998 181.6 145.198C180.9 145.298 180.3 145.698 179.6 145.898C179.5 145.898 179.6 146.298 179.3 146.098C179.1 145.898 179 146.098 178.8 146.198C178.7 146.198 178.6 146.398 178.4 146.298C177.6 145.898 177.3 146.498 176.7 146.598C176.2 146.698 175.6 146.898 175.2 147.298C174.9 147.498 174.8 147.998 174.4 147.998C174.2 147.998 174.2 148.398 173.9 147.898C173.8 147.798 173.9 148.198 173.8 148.298C173.6 148.398 173.4 148.498 173.2 148.598C172.9 148.698 172.6 148.798 172.3 148.998C172.1 149.098 172.1 149.398 171.9 149.598C171.7 149.698 171.6 149.798 171.3 149.898C171 149.898 170.7 149.898 170.4 149.898C170.1 149.898 170 150.298 169.6 150.198C168.9 149.998 168.6 150.398 168.2 150.598C167.7 150.798 167.3 150.898 166.9 151.298C166.7 151.498 166.2 151.198 166 151.298C165.9 151.298 165.1 150.098 164.9 149.698V149.498C164.9 148.998 164.8 148.198 165.1 148.098C165.5 147.998 165.9 147.698 166.3 147.498L166.1 147.298Z" fill="black"/>
<path d="M168.6 166.202C168.6 165.902 168.5 165.502 168.3 165.202C168.3 165.102 168.5 164.902 167.9 164.902C167.6 164.902 168.2 164.602 168.2 164.502C168.1 164.202 168.1 163.902 167.9 163.602C167.8 163.302 167.5 163.102 167.3 162.802C167.2 162.502 167.3 162.102 167 161.902C166.7 161.702 167.1 161.402 167 161.202C166.8 161.002 166.7 160.702 166.8 160.402C166.9 160.202 167.1 160.002 166.9 159.802C166.9 159.802 166.5 159.702 166.5 159.602C166.5 159.502 166.7 159.302 166.1 159.302C166.1 159.302 166.1 159.302 166.2 159.202C166.6 159.002 166.5 158.802 166.2 158.802C165.9 158.802 165.9 158.702 165.9 158.602C165.9 158.402 165.7 158.102 165.7 157.902C165.7 157.702 165.9 157.502 165.9 157.302C165.9 157.102 165.6 157.002 165.9 156.702C166.2 156.402 166.1 156.302 166 156.102C166 156.102 166.2 155.802 165.6 155.902C166.3 155.402 165.2 155.402 165.3 155.102C165.4 154.802 165.3 154.502 165.1 154.202C165.1 154.202 165.2 154.002 164.8 154.002C164.6 154.002 164.6 154.002 164.7 153.902C165.2 153.502 164.8 153.402 164.9 153.102C164.9 152.802 164.6 152.602 164.9 152.202C165.1 152.002 165.1 151.902 164.5 151.902C164.2 151.902 164.5 151.702 164.4 151.602C164.4 151.602 164 151.602 164 151.502C164 151.502 164.2 151.302 164.3 151.202C163.6 151.002 164.3 150.402 164 150.102C163.7 149.802 163.7 149.402 163.6 149.002C163.6 148.802 163.6 148.502 164.7 148.002C165.2 147.802 165.7 147.602 166 147.602C166.2 147.602 166.5 147.602 166.6 147.602C166.7 147.602 166.9 147.802 167 147.902C167.3 148.102 167.9 148.202 167.7 148.502C167.7 148.602 168 148.602 167.5 148.802C168.4 148.902 168 149.402 168.1 149.802C168.2 150.102 168.9 150.202 168.7 150.602C169.4 150.602 169.3 150.802 169.2 151.002C168.7 151.802 169.3 152.202 169.4 152.902C169.4 153.502 169.7 154.102 169.8 154.702C169.8 154.802 170.2 154.802 170 155.002C169.8 155.202 170 155.302 170 155.402C170 155.502 170.2 155.602 170 155.802C169.5 156.402 170 156.802 170 157.302C170 157.802 170 158.302 170.4 158.702C170.6 159.002 171 159.202 170.9 159.502C170.9 159.602 171.2 159.702 170.7 159.902C170.5 159.902 171 159.902 171.1 160.102C171.1 160.302 171.2 160.502 171.3 160.702C171.3 161.002 171.3 161.302 171.5 161.502C171.5 161.702 171.9 161.802 172 161.902C172.1 162.102 172.1 162.202 172.1 162.402C172.1 162.602 171.9 162.902 171.9 163.102C171.9 163.302 172.2 163.502 172 163.802C171.6 164.302 172 164.702 172 165.102C172 165.502 172.1 165.902 172.3 166.302C172.4 166.502 172 166.802 172.1 167.102C172.1 167.102 170.7 167.702 170.2 167.802H170C169.5 167.802 168.7 167.802 168.7 167.402C168.7 167.002 168.5 166.702 168.4 166.302L168.6 166.202Z" fill="black"/>
<path d="M162.2 186.199C162.3 185.799 162.5 185.399 162.5 184.999C162.5 184.799 162.8 184.799 162.4 184.499C162.2 184.299 162.8 184.399 162.8 184.199C162.8 183.799 163.1 183.499 163.1 183.099C163.1 182.699 163.1 182.299 163.1 181.899C163.1 181.499 163.6 181.299 163.4 180.799C163.2 180.399 163.8 180.299 163.8 179.999C163.8 179.699 163.8 179.299 164.1 179.099C164.3 178.899 164.6 178.799 164.6 178.599C164.6 178.399 164.3 178.199 164.4 178.099C164.4 177.999 164.8 177.899 164.2 177.599C164.2 177.599 164.2 177.599 164.4 177.599C164.8 177.599 164.9 177.399 164.6 177.199C164.4 176.999 164.5 176.899 164.5 176.799C164.5 176.499 164.6 176.199 164.8 175.899C164.9 175.699 165.2 175.599 165.4 175.399C165.5 175.199 165.4 174.899 165.7 174.699C166.1 174.599 166.1 174.399 166.2 174.199C166.2 174.099 166.6 173.999 166 173.699C166.9 173.699 166 172.999 166.3 172.699C166.6 172.399 166.6 171.999 166.7 171.699C166.7 171.699 166.9 171.599 166.5 171.299C166.4 171.299 166.4 171.099 166.5 171.099C167.2 171.099 166.9 170.599 167.1 170.399C167.3 170.099 167.1 169.699 167.7 169.599C167.9 169.599 168.1 169.399 167.6 169.099C167.4 168.899 167.6 168.899 167.6 168.799C167.6 168.699 167.3 168.499 167.4 168.399C167.4 168.399 167.7 168.399 167.8 168.299C167.3 167.699 168.3 167.499 168.2 166.999C168.2 166.699 168.2 166.599 168.2 166.299C168.2 165.999 168.4 165.699 168.6 165.299C168.8 164.899 169.3 164.499 170.4 165.099C170.9 165.299 171.3 165.699 171.5 165.999C171.6 166.199 171.8 166.399 171.8 166.499C171.8 166.599 171.9 166.799 172 166.899C172.1 167.099 172.6 167.399 172.2 167.699C172.1 167.699 172.3 167.999 171.8 167.899C172.5 168.499 171.8 168.899 171.8 169.299C171.8 169.699 172.2 170.199 171.8 170.499C172.3 170.899 172.2 171.099 171.9 171.199C171 171.699 171.2 172.499 170.9 173.199C170.6 173.899 170.4 174.599 170.1 175.299C170.1 175.399 170.4 175.599 170.1 175.699C169.8 175.699 169.9 175.999 169.9 176.099C169.9 176.199 169.9 176.399 169.7 176.499C168.9 176.799 169.1 177.499 168.8 177.999C168.5 178.499 168.3 178.999 168.3 179.599C168.3 179.999 168.5 180.399 168.3 180.699C168.2 180.799 168.5 181.099 167.9 180.999C167.7 180.999 168.1 181.299 168.1 181.399C168.1 181.599 168 181.899 167.9 182.099C167.8 182.399 167.6 182.699 167.6 183.099C167.6 183.299 167.7 183.599 167.7 183.799C167.7 183.999 167.7 184.199 167.5 184.399C167.3 184.599 167.1 184.799 166.9 185.099C166.8 185.299 166.9 185.699 166.6 185.899C166 186.199 166.1 186.799 165.9 187.199C165.7 187.599 165.5 188.099 165.5 188.599C165.5 188.899 165 188.999 164.9 189.199C164.9 189.299 163.4 189.199 162.9 188.999H162.7C162.3 188.599 161.7 188.199 161.8 187.899C162 187.399 162.1 186.999 162.2 186.499V186.199Z" fill="black"/>
<path d="M151 135.801C151 136.001 150.9 136.101 150.9 136.301C150.9 136.301 150.6 136.301 151.1 136.601C151.4 136.601 150.7 136.601 150.7 136.601C150.7 136.801 150.7 136.901 150.7 137.101C150.7 137.301 150.9 137.501 150.9 137.601C150.9 137.801 150.6 137.901 150.9 138.101C151.2 138.301 150.6 138.301 150.7 138.401C150.8 138.601 150.9 138.701 150.7 138.801C150.5 138.801 150.3 138.901 150.4 139.001C150.4 139.001 150.8 139.201 150.7 139.201C150.7 139.201 150.4 139.201 151 139.401C151 139.401 151 139.401 150.8 139.401C150.4 139.401 150.4 139.401 150.7 139.601C151 139.601 150.9 139.701 150.9 139.801C150.9 139.901 150.9 140.101 150.9 140.201C150.9 140.201 150.6 140.401 150.5 140.501C150.5 140.501 150.7 140.701 150.4 140.801C150.1 140.801 150.1 141.001 150.1 141.101C150.1 141.101 149.8 141.201 150.4 141.301C149.6 141.401 150.6 141.601 150.4 141.801C150.2 142.001 150.4 142.101 150.4 142.301C150.4 142.301 150.2 142.301 150.7 142.401C150.9 142.401 150.9 142.401 150.7 142.401C150.1 142.501 150.5 142.601 150.3 142.801C150.2 142.901 150.5 143.101 150 143.201C149.8 143.201 149.7 143.401 150.3 143.401C150.6 143.401 150.3 143.501 150.3 143.601C150.3 143.601 150.6 143.601 150.6 143.701C150.6 143.701 150.4 143.701 150.3 143.801C151 144.001 150.1 144.201 150.3 144.401C150.5 144.601 150.4 144.801 150.3 145.001C150.3 145.101 150.1 145.301 148.9 145.401C148.4 145.401 147.8 145.501 147.5 145.501C147.3 145.501 147 145.501 147 145.501C146.9 145.501 146.8 145.401 146.7 145.301C146.5 145.201 145.9 145.101 146.2 144.901C146.2 144.901 146 144.901 146.5 144.701C145.7 144.501 146.2 144.301 146.1 144.101C146.1 143.901 145.4 143.801 145.7 143.601C145.1 143.601 145.2 143.401 145.4 143.301C146.1 142.901 145.6 142.601 145.7 142.201C145.7 141.801 145.7 141.501 145.7 141.101C145.7 141.101 145.4 141.001 145.7 140.901C146 140.901 145.7 140.701 145.7 140.701C145.7 140.701 145.6 140.501 145.7 140.501C146.4 140.301 146 139.901 146.1 139.701C146.2 139.401 146.3 139.101 146.1 138.801C146.1 138.601 145.7 138.401 145.9 138.201C145.9 138.201 145.6 138.001 146.2 138.001C146.4 138.001 145.9 137.901 145.9 137.801C145.9 137.701 145.9 137.601 145.9 137.401C145.9 137.201 146 137.101 145.9 136.901C145.9 136.801 145.7 136.601 145.6 136.501C145.6 136.401 145.6 136.301 145.6 136.201C145.7 136.101 145.9 136.001 146 135.901C146 135.801 145.9 135.601 146.2 135.501C146.8 135.401 146.6 135.101 146.7 134.801C146.8 134.601 146.9 134.401 146.9 134.101C146.9 133.901 147.4 134.001 147.4 133.801C147.4 133.801 148.9 134.101 149.3 134.201H149.5C149.9 134.501 150.6 134.801 150.5 134.901C150.4 135.101 150.4 135.301 150.3 135.501L151 135.801Z" fill="black"/>
<path d="M162.3 135.801C162.3 136.001 162.2 136.101 162.2 136.301C162.2 136.301 161.9 136.301 162.4 136.601C162.7 136.601 162 136.601 162 136.601C162 136.801 162 136.901 162 137.101C162 137.301 162.2 137.501 162.2 137.601C162.2 137.801 161.9 137.901 162.2 138.101C162.5 138.301 161.9 138.301 162 138.401C162.1 138.601 162.2 138.701 162 138.801C161.8 138.801 161.6 138.901 161.7 139.001C161.7 139.001 162.1 139.201 162 139.201C162 139.201 161.7 139.201 162.3 139.401C162.3 139.401 162.3 139.401 162.1 139.401C161.7 139.401 161.7 139.401 162 139.601C162.3 139.601 162.2 139.701 162.2 139.801C162.2 139.901 162.2 140.101 162.2 140.201C162.2 140.201 161.9 140.401 161.8 140.501C161.8 140.501 162 140.701 161.7 140.801C161.4 140.801 161.4 141.001 161.4 141.101C161.4 141.101 161.1 141.201 161.7 141.301C160.9 141.401 161.9 141.601 161.7 141.801C161.5 142.001 161.7 142.101 161.7 142.301C161.7 142.301 161.5 142.301 162 142.401C162.2 142.401 162.2 142.401 162 142.401C161.4 142.501 161.8 142.601 161.6 142.801C161.5 142.901 161.8 143.101 161.3 143.201C161.1 143.201 161 143.401 161.6 143.401C161.9 143.401 161.6 143.501 161.6 143.601C161.6 143.601 161.9 143.601 161.9 143.701C161.9 143.701 161.7 143.701 161.6 143.801C162.3 144.001 161.4 144.201 161.6 144.401C161.8 144.601 161.7 144.801 161.6 145.001C161.6 145.101 161.4 145.301 160.2 145.401C159.7 145.401 159.1 145.501 158.8 145.501C158.6 145.501 158.3 145.501 158.3 145.501C158.2 145.501 158.1 145.401 158 145.301C157.8 145.201 157.2 145.101 157.5 144.901C157.5 144.901 157.3 144.901 157.8 144.701C157 144.501 157.5 144.301 157.4 144.101C157.4 143.901 156.7 143.801 157 143.601C156.4 143.601 156.5 143.401 156.7 143.301C157.4 142.901 156.9 142.601 157 142.201C157 141.801 157 141.501 157 141.101C157 141.101 156.7 141.001 157 140.901C157.3 140.901 157 140.701 157 140.701C157 140.701 156.9 140.501 157 140.501C157.7 140.301 157.3 139.901 157.4 139.701C157.5 139.401 157.6 139.101 157.4 138.801C157.4 138.601 157 138.401 157.2 138.201C157.2 138.201 156.9 138.001 157.5 138.001C157.7 138.001 157.2 137.901 157.2 137.801C157.2 137.701 157.2 137.601 157.2 137.401C157.2 137.201 157.3 137.101 157.2 136.901C157.2 136.801 157 136.601 156.9 136.501C156.9 136.401 156.9 136.301 156.9 136.201C157 136.101 157.2 136.001 157.3 135.901C157.3 135.801 157.2 135.601 157.5 135.501C158.1 135.401 157.9 135.101 158 134.801C158.1 134.601 158.2 134.401 158.2 134.101C158.2 133.901 158.7 134.001 158.7 133.801C158.7 133.801 160.2 134.101 160.6 134.201H160.8C161.2 134.501 161.9 134.801 161.8 134.901C161.7 135.101 161.7 135.301 161.6 135.501L162.3 135.801Z" fill="black"/>
<path d="M162.6 169.701C162.4 169.701 162.1 169.801 161.9 169.901C161.9 169.901 161.7 169.701 161.7 170.301C161.7 170.601 161.5 170.001 161.4 170.001C161.2 170.101 160.9 170.001 160.7 170.201C160.5 170.201 160.3 170.601 160 170.601C159.8 170.601 159.5 170.401 159.3 170.701C159.1 171.001 158.9 170.501 158.7 170.701C158.5 170.801 158.3 170.901 158.1 170.701C158 170.501 157.8 170.301 157.7 170.401C157.7 170.401 157.5 170.801 157.4 170.701C157.4 170.701 157.2 170.401 157.1 171.001C157.1 171.001 157.1 171.001 157.1 170.801C157.1 170.401 156.9 170.401 156.8 170.701C156.7 171.001 156.6 170.901 156.5 170.901C156.3 170.901 156.1 170.901 155.9 170.901C155.8 170.901 155.7 170.601 155.5 170.501C155.4 170.501 155.1 170.701 155.1 170.301C155.1 170.001 154.9 169.901 154.8 169.901C154.8 169.901 154.8 169.601 154.5 170.201C154.5 169.401 154 170.301 153.8 170.001C153.6 169.701 153.4 169.801 153.1 169.701C153.1 169.701 153.1 169.501 152.8 169.901C152.8 170.001 152.6 170.001 152.7 169.901C152.7 169.201 152.5 169.501 152.3 169.401C152.2 169.201 151.8 169.401 151.9 168.801C151.9 168.601 151.9 168.401 151.5 168.801C151.3 169.001 151.4 168.801 151.3 168.801L151 169.001C151 169.001 151 168.701 151 168.601C150.4 169.001 150.6 168.101 150.3 168.001C149.9 168.001 149.7 167.701 149.5 167.401C149.5 167.201 149.4 167.001 150.1 166.101C150.4 165.701 150.8 165.301 151.1 165.101C151.3 165.001 151.5 164.801 151.6 164.801C151.7 164.801 151.9 164.801 152 164.701C152.2 164.701 152.7 164.301 152.6 164.701C152.6 164.701 152.8 164.601 152.6 165.001C153.2 164.501 153.1 165.001 153.3 165.001C153.5 165.001 153.9 164.601 153.9 165.001C154.3 164.501 154.3 164.601 154.3 164.801C154.3 165.501 154.8 165.301 155 165.501C155.3 165.701 155.6 165.701 155.9 165.901C155.9 165.901 156.1 165.601 156.1 165.901C156.1 166.201 156.2 165.901 156.3 166.001H156.5C156.6 166.701 157 166.401 157.2 166.501C157.5 166.501 157.7 166.701 158 166.501C158.2 166.501 158.3 166.101 158.5 166.201C158.5 166.201 158.6 165.901 158.7 166.501C158.7 166.701 158.7 166.201 158.8 166.201C158.9 166.201 159 166.201 159.1 166.201C159.2 166.201 159.4 166.201 159.5 166.201C159.5 166.201 159.7 165.901 159.7 165.801C159.7 165.801 159.9 165.801 160 165.801C160.1 165.801 160.3 166.001 160.4 166.101C160.5 166.101 160.6 165.801 160.8 166.101C161.1 166.501 161.3 166.201 161.5 166.201C161.7 166.201 162 166.201 162.1 166.001C162.1 165.901 162.5 166.301 162.6 166.301C162.6 166.301 163.3 167.601 163.5 168.101V168.301C163.5 168.801 163.7 169.501 163.5 169.501C163.2 169.501 162.9 169.701 162.7 169.801L162.6 169.701Z" fill="black"/>
<path d="M99.1005 150.299C99.1005 151.099 99.1005 151.899 99.4005 152.699C99.6005 153.499 99.9005 154.299 100.2 155.099C100.5 155.699 100.5 156.399 101.3 156.799C101.7 156.999 101.4 157.799 101.7 158.399C102.6 159.899 103.4 161.399 104.3 162.999C105.2 164.599 106 165.999 106.9 167.199C107.7 168.299 108.4 169.299 109.5 169.299C110.4 169.299 111.4 169.799 112.7 169.599C114.1 169.399 115.5 169.199 116.8 169.299C117.8 169.299 118.8 169.399 119.8 169.199C120.4 168.999 120.9 168.599 121.6 168.499C122.2 168.499 123 168.499 123.3 167.799C123.3 167.799 123.6 167.799 123.8 167.799C124.5 168.099 125.3 167.799 125.7 167.399C126.1 166.999 126.5 166.899 127 166.699C128.1 166.199 129.2 165.599 130.1 164.999C130.7 164.499 131.4 164.099 131.9 163.499C132.4 162.799 132.3 161.899 132.7 161.199C133.1 160.399 133.1 159.499 133 158.599C133 158.099 133.2 157.399 132.5 157.099C132.5 157.099 132.5 156.899 132.5 156.799C133 155.099 131.6 153.699 131.5 151.999C131.4 150.299 130.8 148.699 130.2 147.199C130.1 146.799 130.1 146.299 129.5 146.099C129.3 146.099 129.1 145.599 129.1 145.399C129.2 144.099 128.3 143.099 127.7 142.199C127.4 141.699 126.9 141.199 126.5 140.799C126.1 140.399 125.7 140.099 125.2 139.599C124.9 139.199 124.2 138.799 123.4 139.299C123.1 139.499 122.5 139.099 122 139.099C121.6 139.099 121.2 139.399 120.8 139.399C120.5 139.399 120.1 139.199 119.8 139.099C119.7 139.099 119.6 139.099 119.5 139.099C117.6 139.899 115.3 139.399 113.3 139.999C111.2 140.599 109.1 141.099 107 141.699C105.8 141.999 104.6 142.299 103.5 141.499C103 141.199 102.7 140.699 103.1 140.099C103.4 139.699 103.7 139.399 104.1 139.099C104.7 138.799 105.4 138.399 106 138.099C107.3 137.499 108.6 136.499 110.2 136.399C110.7 136.399 111.2 135.899 111.7 136.399H112C113.8 135.199 116 135.299 118.1 134.999C119.9 134.799 121.8 134.099 123.8 134.699C125 134.299 126.4 134.799 127.5 135.599C129.3 136.899 130.7 138.499 131.8 140.099C132.9 141.699 133.7 143.399 134.3 145.099C135.5 148.599 136.1 152.099 136.8 155.499C136.9 156.099 137.3 156.599 137.2 157.399C137 158.099 137.3 158.999 137.3 159.899C137.3 160.699 137.3 161.599 137 162.299C136.4 163.899 135.6 165.399 134.6 166.699C133.6 167.999 132.3 168.999 131 169.699C128.3 171.099 125.5 171.699 122.8 172.299C121.2 172.699 119.6 173.299 117.9 173.399C117.2 173.399 116.4 173.899 115.7 173.399C115.5 173.299 114.8 173.799 114.4 173.799C113.3 173.899 112.1 173.999 110.7 173.799C109.8 173.799 108.8 173.599 107.8 173.199C106.8 172.799 105.9 172.199 105.1 171.499C104.2 170.699 103.3 169.899 102.7 168.899C102.1 167.899 101.6 166.999 101.2 166.099C100.7 164.999 100.4 163.799 99.8005 162.699C99.2005 161.499 98.3005 160.399 97.9005 159.099C97.3005 156.699 96.0005 154.499 95.7005 151.799C95.5005 149.099 95.9005 146.499 97.1005 143.899C97.8005 142.399 99.2005 141.599 100.6 140.799C100.9 140.599 101.5 140.799 101.9 140.999C102.3 141.299 102.6 141.699 102.6 141.999C102.6 142.099 102.6 142.199 102.5 142.299C102.3 142.499 102.1 142.699 102 142.999C101.8 143.199 101.7 143.499 101.6 143.699C101.4 144.199 101.2 144.599 100.9 145.099C99.9005 146.399 99.5005 148.299 99.5005 149.999L99.1005 150.299Z" fill="black"/>
<path d="M149.3 101.001C148.5 100.401 147.5 100.001 146.3 99.9008C145.9 99.9008 145.4 99.5008 144.9 100.001C144.6 100.201 144.2 99.6008 143.8 99.6008C142.6 99.6008 141.3 99.6008 140.1 99.6008C138.9 99.6008 137.7 99.9008 136.5 100.101C135.3 100.201 134.1 100.101 133 100.501C132.1 100.901 131.1 100.501 130.2 100.801C129.2 101.101 128.3 101.401 127.3 101.401C126.6 101.401 125.8 101.401 125.2 101.701C124.8 101.901 124.5 102.301 124 102.401C123.6 102.501 123 102.401 122.9 103.101C122.9 103.101 122.7 103.101 122.5 103.101C121.9 102.901 121.4 103.101 121.1 103.501C120.9 103.901 120.5 104.001 120.2 104.201C119.3 104.601 118.5 105.101 117.6 105.501C116.9 105.801 116.2 106.001 115.5 106.301C114.8 106.701 114.3 107.301 113.6 107.501C112.9 107.701 112.3 108.101 111.8 108.601C111.5 108.801 111 108.901 111.2 109.601C111.2 109.601 111.2 109.801 111 109.801C109.6 110.001 109.6 111.601 108.8 112.201C108.4 112.501 108.1 112.901 108 113.301C107.9 113.701 107.8 113.901 107.8 114.401C107.8 114.601 107.6 114.901 108.1 115.201C108.3 115.201 108.3 115.601 108.1 115.801C107.5 116.701 108 117.601 107.9 118.601C107.9 119.701 108.3 120.701 107.9 121.801C107.8 122.301 107.8 122.901 108.4 123.301C108.7 123.501 108.5 124.001 108.7 124.401C108.8 124.701 109.1 124.901 109.2 125.201C109.2 125.501 109.2 125.801 109.1 126.101C109.1 126.101 109.1 126.301 109.1 126.401C110.1 127.701 109.7 129.401 110.4 130.801C111.1 132.201 111.6 133.701 112.2 135.101C112.5 135.901 112.7 136.801 112 137.801C111.7 138.301 111.2 138.501 110.7 138.401C110.4 138.301 110 138.101 109.8 137.801C109.5 137.401 109.1 137.001 108.8 136.501C108.2 135.601 107.3 134.801 107.1 133.701C107.1 133.301 106.6 133.101 107.1 132.601C107.1 132.601 107.1 132.401 107.1 132.301C105.9 131.201 105.9 129.501 105.4 128.101C105 126.901 104.1 125.801 104.1 124.501C103.3 123.901 103.3 123.001 103.4 122.301C103.5 121.001 103.4 119.701 103.4 118.401C103.4 117.801 103.3 117.101 103.2 116.501C103.2 115.901 103.1 115.201 103.2 114.501C103.2 113.701 103.4 112.801 103.7 112.001C104 111.101 104.5 110.401 104.9 109.801C105.4 109.201 105.8 108.701 106.3 108.201C106.7 107.701 107.2 107.201 107.7 106.801C108 106.501 108.1 106.001 108.7 105.801C109.3 105.701 109.6 105.101 110.1 104.701C110.5 104.401 110.9 103.901 111.4 103.801C113.5 103.101 115 101.801 116.9 100.901C118.8 100.101 120.7 99.3008 122.6 98.6008C123.7 98.1008 124.8 97.5008 126.1 97.3008C126.6 97.3008 127.1 96.8008 127.7 97.3008C127.9 97.4008 128.3 96.9008 128.6 96.8008C129.4 96.6008 130.3 96.5008 131.1 96.4008C132.3 96.2008 133.4 96.2008 134.6 96.0008C135.3 96.0008 136 95.6008 136.7 95.5008C137.4 95.4008 138.2 95.4008 139 95.5008C140 95.5008 140.9 95.8008 141.8 95.8008C142.8 95.8008 143.8 95.6008 144.7 95.9008C146.5 96.5008 148.4 96.5008 150.3 97.5008C152.2 98.5008 153.5 100.201 154.6 101.701C155.2 102.601 155.2 103.601 155.6 104.501C155.8 104.901 154.7 106.101 154.2 106.101C154.1 106.101 154 106.101 153.9 106.101C153.1 105.501 152.1 105.101 151.7 104.201C151.1 102.901 150.2 102.001 149.3 101.301V101.001Z" fill="black"/>
<path d="M149.2 106.999C151.1 106.399 153.1 105.899 155.1 105.499C155.8 105.299 156.6 105.499 157.3 104.799C157.7 104.499 158.5 104.999 159.1 104.899C161 104.599 162.9 104.599 164.7 104.499C166.5 104.499 168.4 104.299 170.2 104.499C172 104.599 173.8 105.199 175.6 105.199C177.2 105.199 178.4 106.099 179.9 106.499C180.7 106.699 181.5 106.999 182.3 107.399C183.1 107.799 184 108.399 184.6 109.399C185.1 110.099 185.4 110.999 185.5 111.899C185.5 112.699 185.5 113.499 185.4 114.299C185.3 115.199 185.1 116.199 184.5 116.999C183.9 117.699 183.1 118.099 182.9 119.099C182.9 119.099 182.5 119.299 182.3 119.299C181.4 119.499 180.6 119.999 180.2 120.499C179.8 121.099 179.2 121.299 178.7 121.599C177.2 122.299 175.7 122.899 174.1 123.299C172.9 123.599 171.8 123.599 170.6 123.799C169.4 123.999 168.2 124.499 167.1 124.499C166 124.499 164.9 124.599 163.9 124.799C163.3 124.899 162.6 124.799 162.2 125.399C162.2 125.399 161.9 125.399 161.8 125.399C160 124.899 158.4 126.199 156.6 126.199C154.8 126.199 152.9 126.599 151.1 126.699C150.6 126.699 150.1 126.699 149.7 127.099C149.6 127.299 149 127.299 148.8 127.199C147.4 126.699 146 127.199 144.6 127.099C143 127.099 141.4 127.299 139.7 126.799C139 126.599 138.1 126.399 137.2 126.899C136.8 127.099 136 126.799 135.4 126.799C135.1 126.799 134.9 126.799 134.6 126.799H134.2C134.2 126.799 134.2 126.599 134 126.399C134 126.499 134 126.599 134 126.599C134 126.699 134 126.599 133.9 126.799V126.999V127.699C133.9 128.199 133.9 128.699 133.9 129.199C133.9 131.699 133.4 134.399 132.2 136.799C131.5 138.099 130.4 139.399 128.9 139.299C128.2 139.299 127.9 138.899 128 138.299C128 137.899 128.1 137.399 128.3 136.999C128.6 136.399 128.8 135.699 129 135.099C129.4 133.799 129.2 132.399 129.7 131.099C129.9 130.699 129.7 130.099 130.2 129.799C130.2 129.799 130.3 129.599 130.3 129.499C130.1 128.999 130 128.499 130 127.999C130 127.799 130 127.499 130 127.299V126.399C130 124.599 130 122.899 130 121.199C131.4 121.499 132.8 121.699 134.4 121.799H135H135.3H135.5H136.1C136.5 121.799 136.9 121.799 137.3 121.999C138.3 121.499 139.4 121.599 140.3 121.899C143.6 122.699 147.1 121.999 150.6 121.899C154.1 121.699 157.6 121.199 161.1 120.699C161.7 120.699 162.1 120.199 162.9 120.299C163.6 120.399 164.4 120.099 165.1 119.999C165.8 119.899 166.5 119.599 167.2 119.599C170 119.599 172.6 118.699 175.1 117.899C176.3 117.499 177.5 116.999 178.6 116.399C179.7 115.799 180.8 114.999 181.3 114.199C181.7 113.699 181.8 113.199 181.7 112.799C181.7 112.599 181.7 112.399 181.7 112.299V111.999C181.5 111.799 181 111.799 180.8 110.999C180.8 110.799 180 110.999 179.6 110.799C178.7 110.399 177.7 110.099 176.6 109.799C175.2 109.399 173.6 109.099 172.1 108.899C171.2 108.799 170.2 108.899 169.3 108.899C168.3 108.899 167.3 108.899 166.4 108.699C165.2 108.599 163.9 108.399 162.7 108.399C161.4 108.399 160.1 108.799 158.8 108.699C156.4 108.499 154.2 109.199 151.9 109.799C149.7 110.399 147.5 111.099 145.6 112.299C144.6 112.999 143.3 113.199 142.4 113.999C142 114.299 140.4 113.899 140.2 113.399C140.2 113.299 140.2 113.199 140.2 113.099C140.8 111.799 141.5 110.399 142.9 109.599C145 108.399 147.2 107.499 149.4 106.799L149.2 106.999Z" fill="black"/>
</svg>
