<svg width="300" height="300" viewBox="0 0 300 300" fill="none" xmlns="http://www.w3.org/2000/svg">
<path d="M196.6 150.699C196 149.999 195.4 149.399 194.7 148.699C194.5 148.499 194.4 147.999 193.8 148.199C193.5 148.199 193.8 147.599 193.5 147.399C192.9 146.799 192.4 146.199 191.7 145.599C191.1 144.999 190.4 144.599 189.8 143.999C189.2 143.399 188.8 142.599 188.1 142.299C187.4 141.999 187.4 141.199 186.9 140.799C186.3 140.399 185.8 139.899 185.5 139.299C185.3 138.799 185.1 138.299 184.7 137.999C184.4 137.799 184 137.799 183.8 137.599C183.6 137.399 183.6 136.899 182.9 137.199C182.9 137.199 182.9 136.999 182.9 136.899C182.9 136.399 182.7 136.099 182.3 136.099C181.9 136.099 181.8 135.899 181.6 135.699C181.1 135.199 180.6 134.699 180.2 134.199C179.9 133.799 179.7 133.299 179.4 132.799C179.1 132.399 178.5 132.099 178.4 131.599C178.3 130.999 177.9 130.699 177.6 130.299C177.4 130.099 177.4 129.699 176.8 129.899C176.8 129.899 176.7 129.899 176.7 129.799C176.7 128.699 175.5 128.899 175.1 128.299C174.7 127.699 174 127.299 173.5 126.999C173.3 126.999 173.3 126.699 172.9 126.999C172.8 127.099 172.6 126.999 172.6 126.999C172.4 126.199 171.8 126.399 171.3 126.199C170.7 125.899 170.1 126.199 169.5 125.499C169.2 125.299 168.9 125.099 168.5 125.699C168.3 125.999 168 125.699 167.8 125.699C167.6 125.699 167.4 125.999 167.2 125.999C167 125.999 166.9 125.799 166.7 125.599C166.7 125.599 166.6 125.599 166.5 125.599C165.5 126.199 164.4 125.299 163.4 125.599C162.4 125.799 161.3 125.699 160.2 125.599C159.6 125.599 159 125.399 158.5 124.299C158.3 123.799 158.3 123.199 158.5 122.899C158.7 122.599 158.9 122.399 159.1 122.299C159.4 122.199 159.8 121.999 160.1 121.899C160.8 121.699 161.5 121.099 162.2 121.399C162.4 121.399 162.7 121.199 162.9 121.699C162.9 121.699 163 121.799 163.1 121.699C164.1 120.899 165.1 121.399 166.1 121.399C166.9 121.399 167.8 120.799 168.7 121.099C169.2 120.499 169.8 120.699 170.3 120.899C171.2 121.299 172.1 121.599 173 121.799C173.9 121.999 174.9 122.299 175.7 122.899C177.4 123.999 178.8 125.199 180 126.499C180.2 126.699 180.6 126.699 180.7 127.099C180.7 127.499 181.1 127.699 181.4 127.899C181.6 128.099 182 128.299 182.1 128.599C182.5 129.999 183.7 130.699 184.5 131.699C185.3 132.699 186.2 133.699 187.2 134.499C187.8 134.999 188.6 135.299 189 135.999C189.2 136.299 189.7 136.299 189.5 136.999C189.5 137.199 190 137.099 190.2 137.199C190.6 137.599 191 137.999 191.3 138.399C191.8 138.899 192.3 139.499 192.9 139.999C193.2 140.299 193.7 140.499 194.1 140.799C194.5 141.099 194.8 141.499 195.1 141.899C195.5 142.399 195.7 142.999 196.1 143.499C196.5 143.999 197.1 144.299 197.3 144.899C197.7 146.099 198.6 146.699 199.4 147.599C200.1 148.499 200.8 149.299 201.7 149.999C202.2 150.399 202.2 151.199 202.6 151.599C202.8 151.799 202 153.099 201.5 153.399C201.5 153.399 201.3 153.399 201.2 153.399C200.4 153.299 199.5 153.399 199.1 152.799C198.5 151.999 197.7 151.299 197 150.499L196.6 150.699Z" fill="black"/>
<path d="M133.399 131.1C132.499 131.7 131.599 132.4 130.999 133.3C130.799 133.6 130.299 133.8 130.599 134.5C130.699 134.8 129.999 134.8 129.799 135.2C129.399 136.2 128.999 137.1 128.899 138.2C128.699 139.3 128.899 140.3 128.799 141.4C128.799 142.5 128.399 143.6 128.799 144.7C129.099 145.7 128.599 146.5 128.699 147.4C128.799 148.4 128.899 149.4 128.699 150.3C128.499 151 128.299 151.7 128.499 152.4C128.499 152.8 128.899 153.2 128.899 153.7C128.899 154.1 128.599 154.6 129.299 155C129.299 155 129.299 155.2 129.199 155.3C128.799 155.8 128.899 156.4 129.199 156.7C129.499 157.1 129.499 157.4 129.499 157.8C129.599 158.8 129.699 159.7 129.699 160.7C129.699 161.4 129.599 162.2 129.599 162.9C129.599 163.7 129.999 164.4 129.699 165.2C129.499 165.9 129.599 166.6 129.699 167.3C129.699 167.7 129.499 168.2 130.199 168.4V168.6C129.499 169.8 130.699 170.8 130.699 171.9C130.699 173.1 130.999 174.3 131.199 175.4C131.199 175.7 131.199 176.1 131.599 176.3C131.799 176.3 131.799 176.7 131.799 176.9C131.299 177.9 131.799 178.7 131.799 179.6C131.799 180.6 132.299 181.6 131.999 182.7C131.899 183.2 131.899 183.8 132.499 184.2C132.799 184.4 132.599 184.9 132.799 185.3C132.899 185.6 133.199 185.8 133.299 186.1C133.299 186.4 133.199 186.7 133.099 186.9C133.099 186.9 133.099 187.1 133.099 187.2C133.999 188.6 133.399 190.2 133.899 191.7C134.399 193.2 134.599 194.7 134.799 196.2C134.899 197 134.799 197.9 133.899 198.7C133.399 199.1 132.899 199.2 132.499 198.9C132.199 198.7 131.899 198.4 131.799 198.1C131.599 197.6 131.399 197.2 131.199 196.7C130.799 195.8 130.099 194.9 130.199 193.9C130.199 193.6 129.899 193.3 130.299 192.9V192.7C129.299 191.5 129.499 190 129.199 188.7C128.899 187.6 128.099 186.5 128.199 185.3C127.499 184.8 127.399 184 127.499 183.3C127.799 180.9 126.899 178.7 126.699 176.3C126.399 173.9 125.999 171.6 125.799 169.2C125.799 168.8 125.299 168.5 125.599 168C125.799 167.5 125.599 167 125.499 166.5C125.499 166 125.299 165.5 125.399 165.1C125.899 163.2 125.299 161.4 125.199 159.5C125.199 157.6 125.099 155.8 124.799 153.9C124.699 152.8 124.299 151.7 124.399 150.5C124.399 150 124.099 149.5 124.699 149C124.899 148.9 124.399 148.4 124.399 148.1C124.399 147.3 124.399 146.5 124.399 145.7C124.399 144.6 124.399 143.5 124.399 142.4C124.399 141.7 124.199 141 124.199 140.3C124.199 139.6 124.199 138.8 124.499 138.1C124.699 137.2 125.099 136.3 125.499 135.3C125.899 134.4 125.999 133.2 126.699 132.4C127.399 131.7 127.899 131 128.599 130.3C129.199 129.6 129.899 128.9 130.599 128.4C132.099 127.4 133.699 126.6 135.199 125.9C136.099 125.5 137.099 125.7 137.899 125.4C138.299 125.3 139.299 126.5 139.199 127.1C139.199 127.2 139.199 127.3 139.199 127.4C138.499 128.1 137.999 129 137.099 129.3C135.799 129.7 134.599 130.3 133.499 131L133.399 131.1Z" fill="black"/>
<path d="M160.6 152.3C160.6 152.1 160.6 151.9 160.6 151.8C160.6 151.8 160.8 151.7 160.3 151.6C160 151.6 160.7 151.5 160.6 151.4C160.6 151.2 160.6 151.1 160.6 150.9C160.6 150.7 160.3 150.6 160.3 150.4C160.3 150.2 160.6 150.1 160.3 149.9C160 149.7 160.5 149.7 160.4 149.5C160.3 149.4 160.2 149.2 160.4 149.1C160.6 149.1 160.8 148.9 160.7 148.8C160.7 148.8 160.3 148.6 160.4 148.6C160.4 148.6 160.7 148.6 160.1 148.4C160.1 148.4 160.1 148.4 160.3 148.4C160.7 148.4 160.7 148.4 160.4 148.2C160.1 148.2 160.2 148.1 160.2 148C160.2 147.9 160.2 147.7 160.2 147.6C160.2 147.6 160.5 147.4 160.6 147.4C160.6 147.4 160.4 147.1 160.7 147.1C161 147.1 161 147 161 146.9C161 146.9 161.3 146.9 160.7 146.7C161.5 146.7 160.5 146.3 160.7 146.2C160.9 146.1 160.8 145.9 160.9 145.7C160.9 145.7 161.1 145.7 160.7 145.5C160.5 145.4 160.5 145.5 160.7 145.5C161.3 145.5 161 145.3 161.1 145.2C161.3 145.1 161.1 144.9 161.5 144.9C161.7 144.9 161.8 144.9 161.3 144.6C161.1 144.5 161.3 144.6 161.3 144.4L161 144.2C161 144.2 161.2 144.2 161.4 144.2C160.8 143.8 161.8 143.9 161.7 143.6C161.7 143.3 161.7 143.2 161.9 143C161.9 143 162.2 142.9 163.3 143.2C163.8 143.4 164.3 143.6 164.6 143.8C164.8 143.9 165 144 165 144.1C165 144.1 165.2 144.3 165.2 144.4C165.3 144.6 165.8 144.9 165.5 144.9C165.5 144.9 165.7 145.1 165.2 144.9C165.9 145.3 165.3 145.3 165.3 145.5C165.3 145.6 165.9 146 165.6 146C166.2 146.3 166 146.3 165.8 146.3C165.1 146.3 165.4 146.7 165.3 147C165.1 147.2 165.2 147.5 165.1 147.8C165.1 147.8 165.4 148 165.1 148C164.8 148 165.1 148.1 165.1 148.2C165.1 148.2 165.2 148.3 165.1 148.4C164.4 148.4 164.8 148.8 164.7 149C164.7 149.2 164.5 149.4 164.7 149.6C164.7 149.7 165.1 149.9 165 150C165 150 165.3 150.1 164.7 150.1C164.5 150.1 165 150.1 165 150.2C165 150.2 165 150.4 165 150.5C165 150.6 165 150.7 165 150.9L165.3 151.1V151.3C165.3 151.3 165 151.5 164.9 151.6C164.9 151.7 165.1 151.8 164.9 151.9C164.4 152.1 164.6 152.3 164.6 152.5C164.6 152.7 164.6 152.9 164.6 153C164.6 153 164.2 153.2 164.2 153.3C164.2 153.3 162.7 153.5 162.2 153.6H162C161.5 153.6 160.8 153.5 160.8 153.3C160.8 153.1 160.8 152.9 160.8 152.7L160.6 152.3Z" fill="black"/>
<path d="M171 153.101C171 152.901 171 152.701 171 152.601C171 152.601 171.2 152.501 170.7 152.401C170.4 152.401 171.1 152.301 171 152.201C171 152.001 171 151.901 171 151.701C171 151.501 170.7 151.401 170.7 151.201C170.7 151.001 171 150.901 170.7 150.701C170.4 150.501 170.9 150.501 170.8 150.301C170.7 150.201 170.6 150.001 170.8 149.901C171 149.901 171.2 149.701 171.1 149.601C171.1 149.601 170.7 149.401 170.8 149.401C170.8 149.401 171.1 149.401 170.5 149.201C170.5 149.201 170.5 149.201 170.7 149.201C171.1 149.201 171.1 149.201 170.8 149.001C170.5 149.001 170.6 148.901 170.6 148.801C170.6 148.701 170.6 148.501 170.6 148.401C170.6 148.401 170.9 148.201 171 148.201C171 148.201 170.8 147.901 171.1 147.901C171.4 147.901 171.4 147.801 171.4 147.701C171.4 147.701 171.7 147.701 171.1 147.501C171.9 147.501 170.9 147.101 171.1 147.001C171.3 146.901 171.2 146.701 171.3 146.501C171.3 146.501 171.5 146.501 171.1 146.301C170.9 146.201 170.9 146.301 171.1 146.301C171.7 146.301 171.4 146.101 171.5 146.001C171.7 145.901 171.5 145.701 171.9 145.701C172.1 145.701 172.2 145.701 171.7 145.401C171.5 145.301 171.7 145.401 171.7 145.201L171.4 145.001C171.4 145.001 171.6 145.001 171.8 145.001C171.2 144.601 172.2 144.701 172.1 144.401C172.1 144.101 172.1 144.001 172.3 143.801C172.3 143.801 172.6 143.701 173.7 144.001C174.2 144.201 174.7 144.401 175 144.601C175.2 144.701 175.4 144.801 175.4 144.901C175.4 144.901 175.6 145.101 175.6 145.201C175.7 145.401 176.2 145.701 175.9 145.701C175.9 145.701 176.1 145.901 175.6 145.701C176.3 146.101 175.7 146.101 175.7 146.301C175.7 146.401 176.3 146.801 176 146.801C176.6 147.101 176.4 147.101 176.2 147.101C175.5 147.101 175.8 147.501 175.7 147.801C175.5 148.001 175.6 148.301 175.5 148.601C175.5 148.601 175.8 148.801 175.5 148.801C175.2 148.801 175.5 148.901 175.5 149.001C175.5 149.001 175.6 149.101 175.5 149.201C174.8 149.201 175.2 149.601 175.1 149.801C175.1 150.001 174.9 150.201 175.1 150.401C175.1 150.501 175.5 150.701 175.4 150.801C175.4 150.801 175.7 150.901 175.1 150.901C174.9 150.901 175.4 150.901 175.4 151.001C175.4 151.001 175.4 151.201 175.4 151.301C175.4 151.401 175.4 151.501 175.4 151.701L175.7 151.901V152.101C175.7 152.101 175.4 152.301 175.3 152.401C175.3 152.501 175.5 152.601 175.3 152.701C174.8 152.901 175 153.101 175 153.301C175 153.501 175 153.701 175 153.801C175 153.801 174.6 154.001 174.6 154.101C174.6 154.101 173.1 154.301 172.6 154.401H172.4C171.9 154.401 171.2 154.301 171.2 154.101C171.2 153.901 171.2 153.701 171.2 153.501L171 153.101Z" fill="black"/>
<path d="M202.3 175.902C201.6 175.902 201 176.002 200.3 176.202C200.1 176.202 199.8 176.002 199.6 176.602C199.6 176.902 199.2 176.302 199 176.302C198.4 176.402 197.7 176.302 197.1 176.502C196.5 176.602 195.9 176.902 195.3 177.002C194.7 177.102 194.1 176.902 193.5 177.202C193 177.502 192.5 177.002 192 177.202C191.5 177.402 191 177.502 190.5 177.202C190.1 177.002 189.8 176.802 189.4 177.002C189.2 177.002 189 177.402 188.7 177.402C188.5 177.402 188.2 177.102 188 177.802C188 177.802 187.9 177.802 187.8 177.702C187.5 177.302 187.2 177.302 187 177.702C186.8 178.002 186.6 177.902 186.4 178.002C185.9 178.002 185.4 178.002 184.8 178.002C184.4 178.002 184 177.702 183.6 177.702C183.2 177.702 182.8 177.902 182.4 177.702C182 177.402 181.7 177.402 181.3 177.402C181.1 177.402 180.9 177.102 180.7 177.702C180.7 177.702 180.7 177.702 180.6 177.702C180 176.802 179.4 177.902 178.8 177.702C178.2 177.502 177.5 177.602 176.9 177.602C176.7 177.602 176.6 177.402 176.4 177.802C176.4 178.002 176.2 178.002 176.1 177.802C175.7 177.102 175.2 177.502 174.7 177.402C174.2 177.202 173.6 177.402 173.1 176.902C172.9 176.702 172.6 176.502 172.3 177.102C172.1 177.402 171.9 177.102 171.7 177.102C171.5 177.102 171.3 177.402 171.2 177.402C171.1 177.402 170.9 177.102 170.8 177.002C170.8 177.002 170.8 177.002 170.7 177.002C169.8 177.602 169.1 176.602 168.3 176.702C167.5 176.702 166.7 176.702 165.9 176.402C165.5 176.302 165 176.002 164.9 174.902C164.9 174.402 164.9 173.802 165.2 173.502C165.4 173.302 165.6 173.102 165.7 173.002C166 173.002 166.2 172.802 166.5 172.802C167 172.702 167.6 172.202 168.1 172.602C168.2 172.702 168.5 172.402 168.5 173.002C168.5 173.002 168.5 173.102 168.6 173.002C169.4 172.302 170 173.002 170.7 173.002C171.3 173.002 171.9 172.502 172.5 172.802C172.9 172.202 173.3 172.302 173.6 172.602C174.7 173.402 175.9 173.002 177.1 173.202C178.3 173.402 179.5 173.302 180.7 173.402C180.9 173.402 181.1 173.102 181.3 173.402C181.5 173.702 181.8 173.402 182.1 173.402C182.3 173.402 182.6 173.302 182.8 173.402C183.7 174.102 184.7 173.702 185.6 173.702C186.5 173.702 187.5 173.802 188.4 173.702C189 173.602 189.5 173.202 190.1 173.302C190.3 173.302 190.6 173.002 190.9 173.602C190.9 173.802 191.2 173.302 191.3 173.302C191.7 173.302 192.1 173.302 192.5 173.302C193 173.302 193.6 173.302 194.1 173.202C194.4 173.202 194.7 172.902 195.1 172.802C195.4 172.802 195.8 172.702 196.1 172.802C196.5 172.802 197 173.002 197.4 173.002C197.9 173.002 198.3 172.702 198.8 173.002C199.7 173.402 200.4 173.002 201.3 173.002C201.7 173.002 202.1 173.002 202.5 172.902C202.7 172.902 202.9 172.802 203.1 172.902C203.1 172.802 203.1 172.902 203.1 172.702C203.1 172.702 203.1 172.702 203.3 172.802C203.6 173.202 204.1 173.502 204.2 173.402C204.2 173.402 204.2 173.402 204.1 173.402C204.4 173.202 204.7 172.702 205 172.602C205 172.602 205.2 172.602 205.3 172.602C205.5 172.702 205.8 173.002 205.9 173.402C206 173.802 206 174.102 205.9 174.502C205.8 175.102 205.5 175.602 205.1 175.802C204.8 176.002 204.5 176.102 204.2 176.202C203.9 176.302 203.4 176.402 203.3 176.402L202.2 176.602L202.3 175.902Z" fill="black"/>
<path d="M204.3 172.699C204.3 172.299 204.3 171.899 204.3 171.499C204.3 171.299 204.6 171.199 204 170.999C203.7 170.999 204.4 170.799 204.4 170.699C204.4 170.299 204.4 169.899 204.4 169.599C204.4 169.199 204.1 168.899 204.1 168.499C204.1 168.099 204.3 167.799 204.1 167.399C203.8 167.099 204.3 166.799 204.1 166.499C204 166.199 203.9 165.899 204.1 165.599C204.3 165.399 204.5 165.199 204.4 164.899C204.4 164.799 204 164.599 204 164.499C204 164.399 204.3 164.199 203.7 164.099C203.7 164.099 203.7 164.099 203.8 163.999C204.2 163.799 204.2 163.699 203.8 163.499C203.5 163.399 203.6 163.299 203.5 163.199C203.5 162.899 203.5 162.599 203.5 162.299C203.5 162.099 203.8 161.799 203.8 161.599C203.8 161.399 203.6 161.099 203.8 160.899C204.1 160.699 204.1 160.399 204.1 160.199C204.1 160.099 204.4 159.899 203.7 159.799C204.5 159.399 203.4 159.099 203.6 158.699C203.8 158.299 203.6 157.899 203.6 157.499C203.6 157.399 203.8 157.299 203.3 157.199C203.1 157.199 203.1 157.099 203.3 156.999C203.9 156.699 203.5 156.399 203.6 156.199C203.6 156.099 203.6 155.899 203.6 155.899C203.6 155.899 203.6 155.899 203.9 155.699C204.1 155.599 204.1 155.399 203.6 155.699C203.6 155.699 203.4 155.899 203.3 155.899C203.3 155.899 203.5 155.699 203.5 155.599C203 156.099 203.7 155.399 203.1 155.499C202.7 155.599 202.1 155.499 201.4 155.199C201 154.999 200.6 154.599 200.9 153.499C201.1 152.999 201.4 152.499 201.6 152.299C201.8 152.099 201.9 151.899 202 151.899C202.1 151.899 202.3 151.799 202.4 151.699C202.7 151.599 203 151.099 203.2 151.399C203.2 151.499 203.5 151.199 203.5 151.699C203.8 151.299 204.1 151.299 204.5 151.499C204.9 151.599 205.2 151.899 205.5 151.999C205.8 152.099 206.2 152.199 206.5 152.299C206.8 152.399 207.1 152.599 207.2 152.999C207.9 152.999 208.1 153.499 208 153.999C208 154.399 208 154.799 208 155.099C208 155.399 208 155.599 208 155.799C208 156.299 208.2 156.599 208.1 156.999C208.1 157.799 208.1 158.499 208.1 159.299C208.1 159.399 208.5 159.499 208.1 159.699C207.8 159.899 208.1 159.999 208.1 160.199C208.1 160.399 208.3 160.499 208.1 160.699C207.5 161.299 207.9 161.899 207.8 162.499C207.8 163.099 207.8 163.699 207.8 164.299C207.9 164.699 208.3 164.999 208.1 165.399C208.1 165.599 208.4 165.699 207.8 165.899C207.6 165.899 208.1 166.099 208.1 166.199C208.1 166.499 208.1 166.699 208.1 166.999C208.1 167.399 208.1 167.699 208.1 168.099C208.1 168.299 208.4 168.499 208.4 168.799C208.4 168.999 208.4 169.299 208.4 169.499C208.4 169.799 208.1 170.099 208 170.399C208 170.699 208.2 170.999 208 171.299C207.5 171.799 207.7 172.299 207.6 172.899C207.6 173.399 207.4 173.899 207.5 174.499C207.5 174.799 207 174.999 207 175.299C207 175.399 205.5 175.499 205 175.299H204.8C204.4 174.999 203.7 174.699 203.7 174.399C203.8 173.999 203.7 173.499 203.8 172.999L204.3 172.699Z" fill="black"/>
<path d="M174.501 195.3C174.501 194.9 174.401 194.6 174.301 194.2C174.301 194.1 174.501 193.9 173.901 193.8C173.601 193.8 174.201 193.5 174.201 193.4C174.101 193.1 174.101 192.7 174.001 192.4C173.901 192.1 173.601 191.8 173.501 191.5C173.401 191.2 173.501 190.8 173.201 190.5C172.901 190.3 173.301 189.9 173.201 189.7C173.001 189.4 172.901 189.2 173.001 188.9C173.101 188.7 173.301 188.4 173.101 188.2C173.101 188.1 172.701 188 172.701 187.9C172.701 187.8 172.901 187.6 172.301 187.6C172.301 187.6 172.301 187.6 172.401 187.5C172.801 187.3 172.701 187.1 172.401 187.1C172.101 187.1 172.101 186.9 172.101 186.8C172.101 186.5 171.901 186.3 171.901 186C171.901 185.8 172.101 185.5 172.101 185.3C172.101 185.1 171.801 184.9 172.101 184.6C172.301 184.3 172.301 184.1 172.201 183.9C172.201 183.8 172.401 183.6 171.801 183.6C172.501 183.1 171.401 183 171.501 182.7C171.601 182.3 171.401 182 171.301 181.7C171.301 181.7 171.401 181.5 171.001 181.5C170.801 181.5 170.801 181.5 170.901 181.3C171.401 180.9 171.001 180.7 171.001 180.4C171.001 180.1 170.701 179.9 171.001 179.4C171.201 179.2 171.201 179 170.601 179C170.301 179 170.601 178.8 170.501 178.7C170.501 178.7 170.101 178.7 170.101 178.5C170.101 178.5 170.301 178.3 170.401 178.2C169.601 177.9 170.401 177.3 170.101 177C169.801 176.7 169.801 176.5 169.801 176.3C169.801 176.2 169.901 176.1 170.601 175.2C170.901 174.8 171.301 174.4 171.601 174.2C171.801 174.1 172.101 174 172.201 174.1C172.401 174.1 172.601 174.3 172.801 174.4C173.201 174.6 173.801 174.8 173.701 175.3C173.701 175.4 174.001 175.5 173.501 175.7C174.401 175.9 174.001 176.5 174.201 176.9C174.301 177.2 175.001 177.4 174.901 177.8C175.601 177.8 175.501 178.1 175.401 178.3C174.901 179.1 175.501 179.7 175.601 180.4C175.601 181.1 175.901 181.8 176.101 182.4C176.101 182.5 176.501 182.5 176.301 182.7C176.101 182.9 176.301 183 176.301 183.2C176.301 183.3 176.501 183.4 176.301 183.6C175.801 184.3 176.301 184.7 176.301 185.3C176.301 185.8 176.401 186.4 176.701 186.9C176.901 187.2 177.301 187.4 177.201 187.8C177.201 188 177.501 188 177.001 188.3C176.801 188.3 177.301 188.4 177.401 188.5C177.401 188.7 177.501 188.9 177.601 189.2C177.601 189.5 177.601 189.8 177.801 190.1C177.801 190.3 178.201 190.4 178.301 190.6C178.401 190.8 178.401 191 178.401 191.2C178.401 191.5 178.201 191.8 178.201 192C178.201 192.3 178.501 192.5 178.201 192.8C177.801 193.4 178.201 193.8 178.201 194.3C178.201 194.8 178.201 195.2 178.501 195.7C178.601 195.9 178.201 196.3 178.201 196.5C178.201 196.6 176.801 197 176.301 197.1H176.101C175.601 196.9 174.801 196.8 174.801 196.6C174.801 196.2 174.701 195.8 174.601 195.3H174.501Z" fill="black"/>
<path d="M153.2 129.901C153.2 129.101 153 128.301 152.8 127.601C152.8 127.301 152.9 127.001 152.3 126.801C152 126.801 152.6 126.301 152.5 126.001C152.3 125.301 152.2 124.601 151.9 123.901C151.6 123.201 151.2 122.601 150.9 122.001C150.6 121.401 150.6 120.601 150 120.101C149.5 119.701 149.7 119.001 149.4 118.601C149 118.101 148.7 117.601 148.6 117.001C148.6 116.501 148.6 116.101 148.2 115.801C148 115.601 147.6 115.601 147.5 115.301C147.5 115.201 147.5 115.001 147.3 114.901C147.1 114.801 147.2 114.901 147.1 114.801C147.1 114.801 147.1 114.801 146.9 114.801C146.9 114.801 146.8 114.801 146.7 114.901C146.7 114.901 146.7 114.901 146.8 114.801C147.1 114.501 147 114.401 146.8 114.601C146.6 114.801 146.7 114.801 146.7 114.801C146.7 114.801 146.6 114.501 146.5 114.501L146.3 114.801C146.2 115.001 146 115.101 145.8 115.201C145.3 115.201 145 115.601 144.8 115.901C144.7 116.101 144.3 116.101 144.6 116.701V116.801C143.5 116.801 144 118.001 143.5 118.401C143 118.901 142.7 119.601 142.4 120.201C142.4 120.401 142.1 120.501 142.4 120.801C142.5 120.901 142.4 121.101 142.4 121.101C141.6 121.301 141.7 122.001 141.4 122.401C141 122.901 141.1 123.601 140.4 124.101C140.1 124.301 139.9 124.601 140.4 125.101C140.6 125.301 140.2 125.501 140.2 125.801C140.2 126.001 140.4 126.301 140.3 126.401C140.3 126.601 140 126.601 139.8 126.801C139.8 126.801 139.8 126.801 139.8 127.001C140.2 128.101 139 128.701 138.9 129.701C138.9 130.701 138.4 131.701 138.2 132.501C138 132.901 137.8 133.301 136.6 133.501C136.1 133.601 135.5 133.601 135.2 133.301C135 133.101 134.8 132.901 134.7 132.601C134.7 132.201 134.6 131.901 134.6 131.501C134.6 130.801 134.2 130.001 134.6 129.501C134.7 129.301 134.6 129.001 135 129.001C135 129.001 135.1 129.001 135.1 128.901C134.6 127.801 135.3 127.101 135.5 126.201C135.7 125.501 135.3 124.501 135.8 123.901C135.3 123.301 135.6 122.801 136 122.501C137.2 121.301 137.4 119.701 138.2 118.301C139 116.901 139.8 115.401 140.8 114.101C141 113.901 140.8 113.501 141.3 113.401C141.7 113.401 141.8 112.901 142 112.601C142.2 112.301 142.4 112.001 142.7 111.901C143 111.801 143.4 111.601 143.6 111.401C144 111.101 144.4 110.801 144.8 110.501C145.2 110.201 145.6 109.901 146 109.701C146.4 109.501 146.8 109.301 147.2 109.301C147.7 109.301 148.1 109.501 148.4 109.801L149.3 110.801L149.8 111.301C150 111.501 150.1 111.701 150.2 111.901L150.4 112.201L150.6 112.401L150.9 112.801C151.4 113.401 152.1 113.801 152.4 114.601C152.5 114.901 153 115.001 152.6 115.601C152.5 115.801 153 115.801 153.2 116.001C153.5 116.401 153.7 116.901 153.9 117.401C154.2 118.101 154.5 118.801 154.8 119.401C155 119.801 155.4 120.101 155.6 120.501C155.8 120.901 156 121.401 156.1 121.801C156.2 122.401 156.1 123.001 156.3 123.601C156.4 124.201 156.8 124.801 156.7 125.401C156.4 126.601 156.9 127.601 156.9 128.701C156.9 129.801 157 130.801 157.2 131.901C157.2 132.301 157 132.801 156.9 133.201L155.4 132.801V132.601C155.4 132.601 155.4 132.601 155.5 132.601C155.5 132.601 155.5 132.601 155.6 132.601C155.7 132.601 155.8 132.601 155.9 132.601C156.1 132.601 156.3 132.501 156.4 132.601C156.5 132.601 156.6 132.701 156.6 132.901C156.6 133.301 156.6 133.701 156.4 134.101C156.2 134.501 155.7 134.901 155 134.901L153.7 133.301C153.5 133.101 153.3 132.801 153.4 132.501C153.4 131.601 153.4 130.701 153.2 129.901Z" fill="black"/>
<path d="M177.301 126.498C177.401 125.898 177.601 125.198 177.701 124.598C177.701 124.398 178.001 124.198 177.501 123.798C177.301 123.598 177.901 123.498 177.901 123.298C177.901 122.698 178.101 122.098 178.101 121.498C178.101 120.898 177.901 120.298 177.901 119.698C177.901 119.098 178.201 118.498 177.901 117.998C177.601 117.498 178.101 117.098 177.901 116.598C177.801 116.098 177.701 115.598 177.901 115.098C178.001 114.698 178.201 114.398 178.101 113.998C178.101 113.798 177.701 113.598 177.701 113.398C177.701 113.298 177.701 113.198 177.701 113.198C177.701 113.198 177.601 113.198 177.301 113.198C177.301 113.198 177.301 113.198 177.401 113.198C177.801 112.998 177.701 112.898 177.401 113.098C177.101 113.298 177.201 113.298 177.201 113.298C177.201 113.298 177.201 113.098 177.301 112.998C177.301 112.898 177.301 112.798 177.301 112.798C177.301 112.798 177.101 113.198 177.201 112.798C177.201 112.398 177.101 112.498 177.001 112.598C177.001 112.598 176.801 112.398 177.001 112.998C176.801 112.698 176.801 112.698 176.601 112.998C176.501 113.298 176.401 113.598 176.101 113.698C175.501 113.898 175.101 114.398 174.701 114.798C174.601 114.898 174.301 114.798 174.501 115.298C174.501 115.498 174.501 115.598 174.301 115.498C173.601 115.298 173.501 115.898 173.101 116.198C172.601 116.498 172.501 116.998 171.801 117.098C171.501 117.098 171.201 117.298 171.501 117.898C171.801 118.498 171.201 118.198 171.201 118.398C171.201 118.598 171.201 118.798 171.201 118.998C171.201 119.098 170.901 118.998 170.701 118.998C170.701 119.998 169.601 119.998 169.201 120.698C168.901 121.398 168.301 122.098 167.601 122.698C167.201 123.098 166.601 123.398 165.601 122.698C165.101 122.398 164.801 121.998 164.701 121.598C164.701 121.298 164.601 121.098 164.701 120.898C164.701 120.698 164.801 120.398 164.901 120.198C165.101 119.698 164.901 118.998 165.501 118.798C165.701 118.798 165.501 118.398 166.001 118.598H166.101C165.901 117.498 166.801 117.198 167.301 116.598C167.701 116.098 167.601 115.198 168.301 114.898C168.101 114.198 168.501 113.998 168.901 113.798C170.301 113.298 170.901 112.098 171.901 111.398C172.401 110.998 172.901 110.598 173.401 110.198C173.701 109.998 173.901 109.798 174.201 109.598L174.601 109.298C174.801 109.098 175.101 108.998 175.301 108.798C175.601 108.598 175.801 107.998 176.201 108.098C176.601 108.098 177.001 107.698 177.401 107.398C177.801 107.198 178.201 106.798 178.501 106.698C179.201 106.698 179.801 106.398 180.601 105.898C180.801 106.598 181.001 107.198 181.101 107.998L181.501 110.398C181.601 111.198 181.801 111.998 182.001 112.698C182.201 113.298 182.601 113.898 182.501 114.498C182.501 114.798 182.801 114.998 182.301 115.298C182.101 115.298 182.601 115.598 182.601 115.798C182.601 116.198 182.601 116.698 182.601 117.098C182.601 117.698 182.601 118.298 182.601 118.898C182.601 119.298 182.901 119.598 182.901 119.998C182.901 120.398 182.901 120.798 182.901 121.198C182.801 121.698 182.501 122.098 182.401 122.598C182.301 123.098 182.401 123.598 182.101 124.098C181.501 124.898 181.601 125.798 181.301 126.698C181.101 127.498 180.801 128.398 180.701 129.298C180.701 129.798 180.001 130.098 179.901 130.498C179.901 130.698 178.301 130.498 177.901 130.298C177.901 130.298 177.701 130.198 177.701 130.098C177.401 129.498 176.801 128.898 177.001 128.498C177.301 127.798 177.401 127.098 177.601 126.398L177.301 126.498Z" fill="black"/>
<path d="M130.101 100.099C130.901 99.7992 131.801 99.5992 132.701 99.3992C133.001 99.2992 133.401 99.4992 133.601 98.8992C133.701 98.5992 134.101 99.1992 134.401 99.0992C135.201 98.8992 136.001 98.9992 136.801 98.8992C137.601 98.8992 138.401 98.6992 139.201 98.6992C140.001 98.6992 140.801 99.0992 141.601 98.9992C142.301 98.8992 142.801 99.4992 143.401 99.4992C144.101 99.4992 144.701 99.6992 145.301 100.099C145.701 100.399 146.001 100.799 146.501 100.799C146.801 100.799 147.201 100.599 147.401 100.799C147.701 100.899 147.801 101.299 148.301 100.799C148.301 100.799 148.401 100.899 148.401 100.999C148.501 101.499 148.901 101.599 149.201 101.499C149.501 101.399 149.701 101.499 150.001 101.499C150.601 101.799 151.201 101.999 151.701 102.399C152.101 102.699 152.401 103.099 152.801 103.399C153.201 103.699 153.801 103.699 154.001 104.199C154.201 104.699 154.601 104.899 155.001 105.099C155.201 105.199 155.301 105.599 155.801 105.199H155.901C156.101 106.299 157.301 105.799 157.801 106.399C158.301 106.999 159.101 107.399 159.701 107.999C159.901 108.099 159.901 108.399 160.401 108.199C160.601 108.199 160.801 108.199 160.801 108.499C160.801 109.399 161.501 109.599 161.901 110.199C162.301 110.799 163.001 111.299 162.901 112.199C162.901 112.599 162.901 112.999 163.701 113.099C164.001 113.099 163.901 113.599 164.101 113.799C164.201 113.999 164.601 114.099 164.701 114.299C164.701 114.499 164.701 114.699 164.601 114.999C164.601 114.999 164.601 115.099 164.601 115.199C165.601 116.099 164.901 117.399 165.101 118.499C165.301 119.599 165.101 120.799 164.901 121.899C164.701 122.499 164.401 123.099 163.201 123.099C162.701 123.099 162.101 122.899 161.901 122.599C161.701 122.399 161.601 122.099 161.501 121.999C161.501 121.699 161.501 121.399 161.401 121.099C161.401 120.499 160.801 119.999 161.101 119.499C161.101 119.299 160.901 119.099 161.401 118.999C161.401 118.999 161.501 118.999 161.401 118.899C160.601 118.199 161.001 117.499 160.801 116.699C160.601 116.099 159.801 115.799 159.801 115.099C159.101 115.099 159.001 114.699 159.001 114.299C159.001 112.899 157.801 112.199 156.901 111.399C156.001 110.499 154.801 109.699 153.701 108.999C153.501 108.899 153.101 108.999 153.001 108.699C153.001 108.299 152.501 108.299 152.201 108.199C152.001 108.099 151.601 107.999 151.501 107.699C150.901 106.599 149.701 106.299 148.701 105.799C147.801 105.199 146.801 104.699 145.701 104.399C145.101 104.199 144.301 104.399 143.801 103.999C143.601 103.899 143.201 103.999 143.101 103.399C143.101 103.199 142.701 103.599 142.501 103.499C142.101 103.499 141.601 103.299 141.201 103.199C140.601 103.099 140.001 102.899 139.401 102.899C139.001 102.899 138.601 103.099 138.301 103.099C137.901 103.099 137.601 103.099 137.201 103.099C136.701 103.099 136.301 102.799 135.801 102.799C135.301 102.799 134.801 103.099 134.301 102.799C133.301 102.399 132.501 102.799 131.701 103.099C130.901 103.299 130.001 103.599 129.301 104.199C128.901 104.499 128.301 104.299 127.901 104.599C127.701 104.699 126.601 103.799 126.301 103.299V103.099C126.501 102.399 126.501 101.499 127.101 101.099C128.001 100.599 128.901 100.199 129.901 99.7992L130.101 100.099Z" fill="black"/>
<path d="M102.999 116.501C103.399 116.201 103.799 115.901 104.199 115.501C104.299 115.401 104.599 115.501 104.499 114.901C104.499 114.601 104.899 115.001 105.099 114.901C105.399 114.601 105.899 114.401 106.199 114.101C106.499 113.801 106.799 113.301 107.199 113.101C107.599 112.801 108.099 112.801 108.299 112.301C108.499 111.901 108.999 112.201 109.299 111.901C109.599 111.601 109.899 111.401 110.299 111.401C110.599 111.401 110.999 111.501 111.199 111.401C111.299 111.301 111.299 110.901 111.499 110.901C111.699 110.901 111.899 111.001 111.799 110.401C111.799 110.401 111.899 110.401 111.999 110.401C112.299 110.701 112.499 110.601 112.599 110.301C112.599 110.001 112.799 110.001 112.899 109.901C113.299 109.701 113.599 109.601 113.999 109.501C114.299 109.501 114.599 109.501 114.899 109.501C115.199 109.501 115.399 109.101 115.799 109.301C116.199 109.501 116.399 109.401 116.699 109.301C116.899 109.301 117.099 109.501 117.099 108.801C117.699 109.501 117.899 108.401 118.399 108.501C118.899 108.601 119.299 108.401 119.799 108.301C119.899 108.301 120.099 108.401 120.099 108.001C120.099 107.801 120.199 107.801 120.299 108.001C120.699 108.601 120.999 108.101 121.399 108.201C121.799 108.201 122.199 108.001 122.599 108.401C122.799 108.601 122.999 108.701 123.199 108.101C123.199 107.801 123.499 108.101 123.599 108.101C123.699 108.101 123.799 107.801 123.999 107.801C124.099 107.801 124.199 108.001 124.299 108.101C124.299 108.101 124.299 108.101 124.399 108.101C124.999 107.401 125.599 108.301 126.199 108.101C126.799 107.901 127.399 108.101 127.999 108.101C128.299 108.101 128.699 108.401 128.799 109.601C128.799 110.101 128.799 110.701 128.599 111.001C128.499 111.201 128.299 111.401 128.199 111.501C127.999 111.501 127.799 111.701 127.699 111.801C127.299 112.001 126.999 112.501 126.599 112.201C126.499 112.201 126.399 112.401 126.299 111.901C125.799 112.701 125.299 112.101 124.899 112.201C124.499 112.201 124.099 112.901 123.699 112.601C123.499 113.201 123.299 113.201 122.999 113.001C122.599 112.701 122.199 112.701 121.799 112.701C121.399 112.701 120.999 112.901 120.599 112.901C119.799 112.901 118.999 113.201 118.199 113.301C118.099 113.301 117.999 113.701 117.799 113.501C117.599 113.301 117.399 113.501 117.299 113.501C117.099 113.501 116.999 113.701 116.799 113.501C115.999 113.101 115.499 113.601 114.899 113.801C114.299 114.001 113.599 114.101 113.099 114.501C112.799 114.801 112.599 115.201 112.199 115.301C111.999 115.301 111.999 115.701 111.599 115.301C111.499 115.201 111.599 115.601 111.499 115.701C111.299 115.901 110.999 116.001 110.799 116.101C110.499 116.301 110.099 116.401 109.799 116.701C109.599 116.801 109.599 117.201 109.399 117.301C109.199 117.501 108.999 117.601 108.799 117.701C108.499 117.701 108.199 117.701 107.899 117.901C107.599 118.001 107.499 118.401 107.099 118.401C106.399 118.401 106.099 118.801 105.599 119.201C105.099 119.501 104.699 119.801 104.399 120.301C104.199 120.601 103.699 120.301 103.399 120.601C103.299 120.601 102.099 119.801 101.799 119.401L101.699 119.201C101.699 118.601 101.299 117.901 101.699 117.701C102.199 117.401 102.499 116.901 102.999 116.601V116.501Z" fill="black"/>
<path d="M93.0003 140.399C93.2003 139.899 93.4003 139.399 93.6003 138.899C93.6003 138.699 94.0003 138.699 93.6003 138.199C93.4003 137.999 94.1003 138.199 94.1003 137.999C94.3003 137.599 94.6003 137.199 94.8003 136.799C95.0003 136.399 95.0003 135.899 95.2003 135.499C95.4003 135.099 95.9003 134.899 95.9003 134.399C95.9003 133.899 96.5003 133.999 96.6003 133.599C96.7003 133.199 96.9003 132.899 97.3003 132.699C97.6003 132.699 97.9003 132.499 98.0003 132.299C98.0003 132.099 98.0003 131.799 98.0003 131.699C98.1003 131.599 98.5003 131.699 98.0003 131.099C98.0003 131.099 98.1003 131.099 98.2003 131.099C98.6003 131.199 98.8003 131.099 98.7003 130.799C98.7003 130.499 98.7003 130.399 98.8003 130.299C99.0003 129.999 99.3003 129.699 99.6003 129.499C99.8003 129.299 100.2 129.299 100.5 129.199C100.8 128.999 100.8 128.599 101.2 128.699C101.6 128.699 101.8 128.599 102 128.399C102.1 128.399 102.4 128.399 102.1 127.899C102.9 128.299 102.6 127.199 103.1 127.099C103.6 127.099 103.9 126.599 104.2 126.299C104.3 126.299 104.5 126.299 104.4 125.899C104.4 125.699 104.4 125.699 104.6 125.699C105.2 126.099 105.3 125.499 105.7 125.399C106.1 125.399 106.3 124.899 106.9 125.099C107.1 125.099 107.4 125.099 107.3 124.599C107.3 124.299 107.6 124.499 107.7 124.299C107.7 124.199 107.7 123.899 107.9 123.799C107.9 123.799 108.2 123.899 108.3 123.999C108.6 123.199 109.4 123.699 109.9 123.299C110.4 122.899 111 122.699 111.5 122.699C111.8 122.699 112.2 122.699 112.8 123.699C113 124.199 113.2 124.699 113.2 124.999C113.2 125.299 113.2 125.499 113.1 125.599C113 125.699 112.9 125.899 112.7 126.099C112.4 126.399 112.3 126.999 111.9 126.899C111.8 126.899 111.8 127.199 111.5 126.699C111.4 127.599 110.8 127.299 110.4 127.599C110.1 127.799 110 128.499 109.5 128.499C109.6 129.199 109.3 129.199 109.1 129.099C108.1 128.899 107.7 129.699 107 129.999C106.3 130.399 105.7 130.899 105.1 131.299C105 131.299 105.1 131.699 104.8 131.599C104.5 131.499 104.5 131.799 104.4 131.899C104.3 131.999 104.2 132.199 104 132.199C103.1 132.099 102.9 132.799 102.4 133.199C101.9 133.599 101.4 133.999 101.1 134.599C100.9 134.999 100.9 135.399 100.6 135.699C100.5 135.699 100.6 136.099 100.1 135.899C99.9003 135.899 100.1 136.199 100.1 136.299C100 136.499 99.8003 136.699 99.6003 136.899C99.4003 137.199 99.1003 137.399 99.0003 137.799C99.0003 137.999 99.0003 138.299 99.0003 138.499C99.0003 138.699 98.8003 138.899 98.6003 139.099C98.4003 139.299 98.1003 139.399 97.9003 139.599C97.7003 139.799 97.8003 140.199 97.4003 140.299C96.7003 140.499 96.7003 141.099 96.5003 141.499C96.3003 141.899 96.1003 142.299 96.2003 142.799C96.2003 142.999 95.7003 143.199 95.7003 143.399C95.7003 143.399 94.2003 143.699 93.7003 143.699H93.5003C93.0003 143.399 92.3003 142.899 92.4003 142.499C92.6003 141.899 92.7003 141.199 92.9003 140.599L93.0003 140.399Z" fill="black"/>
<path d="M100.8 167.099C100.4 166.799 100 166.499 99.5004 166.199C99.3004 166.199 99.3004 165.799 98.8004 166.099C98.6004 166.299 98.8004 165.599 98.6004 165.499C98.2004 165.299 97.8004 164.899 97.4004 164.599C97.0004 164.399 96.5004 164.199 96.1004 163.999C95.7004 163.699 95.5004 163.199 94.9004 163.099C94.4004 163.099 94.5004 162.399 94.1004 162.199C93.7004 161.999 93.4004 161.699 93.3004 161.299C93.3004 161.099 93.3004 160.999 93.2004 160.799C93.2004 160.599 93.0004 160.399 92.8004 160.299C92.6004 160.099 92.1004 159.999 91.9004 159.799C91.7004 159.499 91.9004 159.199 91.1004 159.099C91.1004 159.099 91.1004 158.899 91.1004 158.799C91.4004 158.399 91.3004 158.099 91.1004 157.799C90.8004 157.499 90.9004 157.299 91.0004 156.999C91.2004 156.299 91.6004 155.599 91.9004 154.999C92.1004 154.799 92.4004 154.599 92.6004 154.399C92.8004 154.199 92.7004 153.699 93.1004 153.599C93.5004 153.599 93.6004 153.299 93.8004 152.999C93.8004 152.899 94.2004 152.899 93.8004 152.399C94.7004 152.399 94.1004 151.499 94.5004 151.199C94.9004 150.899 95.1004 150.399 95.3004 149.999C95.3004 149.899 95.6004 149.899 95.3004 149.499C95.2004 149.399 95.3004 149.299 95.3004 149.299C96.0004 149.299 95.9004 148.799 96.2004 148.599C96.5004 148.299 96.6004 147.799 97.2004 147.799C97.5004 147.799 97.7004 147.699 97.4004 147.099C97.2004 146.899 97.6004 146.899 97.6004 146.699C97.6004 146.599 97.5004 146.299 97.6004 146.199C97.6004 146.199 97.9004 146.199 98.1004 146.199C98.0004 145.299 99.0004 145.399 99.3004 144.799C99.6004 144.199 100 143.799 100.5 143.399C100.8 143.199 101.1 142.999 102.1 143.599C102.5 143.899 103 144.199 103.1 144.599C103.2 144.799 103.3 145.099 103.3 145.199C103.3 145.399 103.3 145.599 103.2 145.799C103.1 146.199 103.2 146.799 102.8 146.899C102.7 146.899 102.8 147.199 102.3 146.899H102.2C102.5 147.799 101.7 147.899 101.4 148.299C101.2 148.699 101.4 149.399 100.9 149.599C101.3 150.199 100.9 150.299 100.7 150.399C99.6004 150.699 99.5004 151.699 98.9004 152.399C98.3004 153.099 97.9004 153.899 97.4004 154.599C97.4004 154.699 97.5004 154.999 97.2004 154.999C96.9004 154.999 97.0004 155.299 96.9004 155.499C96.9004 155.699 96.9004 155.899 96.6004 155.899C96.1004 155.999 95.9004 156.299 95.7004 156.599C95.7004 156.799 95.5004 156.899 95.5004 157.099C95.5004 157.099 95.5004 157.199 95.5004 157.299C95.5004 157.299 95.3004 157.499 95.3004 157.599C95.3004 157.699 95.4004 157.799 95.5004 157.899C95.5004 157.899 95.7004 157.899 95.8004 157.899C95.8004 157.899 95.8004 157.899 96.0004 157.899C96.0004 157.899 96.1004 157.999 96.2004 158.099C96.2004 158.299 96.6004 158.099 96.3004 158.699C96.3004 158.899 96.7004 158.699 96.7004 158.699C96.9004 158.899 97.1004 159.099 97.3004 159.299C97.6004 159.599 97.8004 159.899 98.2004 160.099C98.4004 160.199 98.7004 160.099 99.0004 160.299C99.2004 160.399 99.4004 160.599 99.6004 160.799C99.8004 161.099 99.9004 161.399 100.1 161.699C100.3 161.999 100.8 161.899 100.9 162.399C101.1 163.199 101.7 163.299 102.2 163.699C102.7 164.099 103.2 164.499 103.7 164.699C104 164.799 104 165.399 104.3 165.599C104.4 165.599 103.8 166.999 103.5 167.399C103.5 167.399 103.4 167.499 103.3 167.599C102.8 167.799 102.1 168.199 101.8 167.999C101.4 167.599 100.8 167.299 100.4 166.999L100.8 167.099Z" fill="black"/>
<path d="M102.901 180.8C102.901 180.5 102.901 180.3 102.801 180C102.801 179.9 103.001 179.8 102.501 179.7C102.201 179.7 102.901 179.5 102.801 179.4C102.801 179.2 102.801 178.9 102.801 178.6C102.801 178.4 102.501 178.1 102.501 177.9C102.501 177.6 102.801 177.4 102.501 177.1C102.201 176.9 102.801 176.7 102.701 176.5C102.601 176.3 102.501 176 102.801 175.9C103.001 175.8 103.201 175.7 103.201 175.5C103.201 175.4 102.801 175.3 102.901 175.2C102.901 175.2 103.201 175.1 102.601 174.9C102.601 174.9 102.601 174.9 102.801 174.9C103.201 174.9 103.201 174.8 103.001 174.6C102.801 174.5 102.801 174.4 102.801 174.3C102.801 174.1 102.801 173.9 103.001 173.7C103.001 173.6 103.401 173.5 103.501 173.3C103.601 173.2 103.401 172.9 103.701 172.9C104.001 172.9 104.101 172.7 104.101 172.6C104.101 172.6 104.401 172.6 103.901 172.2C104.701 172.2 103.901 171.7 104.101 171.5C104.401 171.4 104.401 171.1 104.501 170.8C104.501 170.8 104.701 170.8 104.401 170.5C104.301 170.5 104.301 170.3 104.401 170.4C105.001 170.5 104.801 170.2 105.001 170.1C105.201 170 105.001 169.6 105.601 169.7C105.801 169.7 106.001 169.7 105.601 169.3C105.401 169.1 105.601 169.2 105.601 169.1C105.601 169.1 105.401 168.8 105.401 168.7C105.401 168.7 105.701 168.7 105.801 168.7C105.501 168 106.401 168.3 106.401 168C106.401 167.6 106.801 167.4 107.101 167.2C107.301 167.2 107.501 167.1 108.401 167.8C108.801 168.1 109.201 168.5 109.401 168.8C109.501 169 109.701 169.2 109.701 169.3C109.701 169.4 109.701 169.6 109.701 169.7C109.701 170 110.001 170.4 109.701 170.4C109.701 170.4 109.701 170.6 109.401 170.4C109.901 171.1 109.401 170.9 109.201 171.1C109.201 171.3 109.501 171.8 109.201 171.8C109.701 172.2 109.501 172.3 109.301 172.3C108.501 172.3 108.701 172.8 108.501 173.1C108.201 173.4 108.201 173.8 108.001 174.1C108.001 174.1 108.301 174.3 108.001 174.3C107.701 174.3 107.901 174.4 107.901 174.5C107.901 174.5 107.901 174.7 107.801 174.7C107.101 174.7 107.401 175.2 107.201 175.5C107.101 175.8 106.901 176.1 107.001 176.4C107.001 176.6 107.401 176.8 107.201 177C107.201 177 107.501 177.2 106.901 177.2C106.701 177.2 107.201 177.3 107.201 177.4C107.201 177.5 107.201 177.6 107.201 177.8C107.201 178 107.201 178.1 107.201 178.3C107.201 178.4 107.501 178.5 107.501 178.6C107.501 178.7 107.501 178.8 107.501 178.9C107.501 179 107.201 179.2 107.201 179.3C107.201 179.4 107.401 179.6 107.201 179.7C106.701 180 107.001 180.2 107.001 180.5C107.001 180.8 107.001 181 107.201 181.2C107.301 181.3 106.801 181.6 106.901 181.7C106.901 181.7 105.501 182.2 105.001 182.3H104.801C104.301 182.3 103.601 182.3 103.601 182C103.601 181.7 103.501 181.4 103.401 181.1L102.901 180.8Z" fill="black"/>
<path d="M110.901 191.501C110.901 191.201 110.901 190.801 110.901 190.501C110.901 190.401 111.101 190.201 110.601 190.101C110.301 190.101 111.001 189.901 110.901 189.801C110.901 189.501 110.901 189.201 110.901 188.801C110.901 188.501 110.601 188.201 110.501 187.901C110.501 187.601 110.701 187.301 110.501 187.001C110.201 186.701 110.701 186.501 110.601 186.301C110.501 186.001 110.401 185.801 110.601 185.501C110.801 185.301 111.001 185.101 110.901 185.001C110.901 184.901 110.501 184.801 110.601 184.601C110.601 184.501 110.901 184.401 110.301 184.201C110.301 184.201 110.301 184.201 110.501 184.201C110.901 184.101 110.901 183.901 110.601 183.801C110.301 183.701 110.401 183.601 110.401 183.501C110.401 183.201 110.401 183.001 110.401 182.701C110.401 182.501 110.701 182.301 110.801 182.101C110.801 181.901 110.601 181.701 110.901 181.501C111.201 181.301 111.201 181.201 111.301 181.001C111.301 180.901 111.601 180.801 111.001 180.601C111.901 180.401 110.801 180.001 111.001 179.701C111.301 179.401 111.101 179.101 111.201 178.801C111.201 178.801 111.401 178.701 111.001 178.501C110.801 178.501 110.801 178.401 111.001 178.301C111.701 178.201 111.301 177.901 111.501 177.601C111.701 177.401 111.501 177.001 112.001 176.801C112.201 176.801 112.401 176.601 111.801 176.301C111.501 176.201 111.801 176.101 111.801 176.001C111.801 176.001 111.501 175.801 111.501 175.701C111.501 175.701 111.801 175.701 111.901 175.601C111.301 175.101 112.301 174.901 112.201 174.401C112.201 174.001 112.201 173.601 112.501 173.201C112.601 173.001 112.801 172.801 114.001 173.001C114.501 173.001 115.101 173.201 115.301 173.401C115.501 173.501 115.701 173.701 115.801 173.701C115.801 173.801 116.001 174.001 116.001 174.101C116.101 174.401 116.601 174.701 116.301 174.901C116.201 174.901 116.501 175.101 116.001 175.101C116.701 175.601 116.101 175.801 116.001 176.201C116.001 176.501 116.601 176.901 116.201 177.101C116.801 177.401 116.601 177.501 116.401 177.701C115.601 178.101 116.001 178.801 115.801 179.301C115.601 179.901 115.601 180.401 115.501 181.001C115.501 181.001 115.801 181.201 115.501 181.301C115.201 181.301 115.501 181.501 115.501 181.701C115.501 181.801 115.601 182.001 115.501 182.001C114.801 182.401 115.101 182.901 115.001 183.301C114.901 183.701 114.801 184.201 115.001 184.701C115.001 185.001 115.401 185.301 115.301 185.501C115.301 185.601 115.601 185.801 115.001 185.801C114.801 185.801 115.301 186.001 115.301 186.001C115.301 186.201 115.301 186.401 115.301 186.601C115.301 186.901 115.301 187.101 115.301 187.401C115.301 187.601 115.601 187.701 115.601 187.901C115.601 188.101 115.601 188.201 115.601 188.401C115.601 188.601 115.301 188.801 115.301 189.001C115.301 189.201 115.501 189.401 115.301 189.701C114.801 190.101 115.101 190.501 115.001 190.901C115.001 191.301 115.001 191.701 115.101 192.101C115.101 192.301 114.701 192.601 114.701 192.801C114.701 192.901 113.301 193.201 112.701 193.201H112.501C112.001 193.001 111.301 192.901 111.301 192.601C111.301 192.201 111.301 191.801 111.301 191.401L110.901 191.501Z" fill="black"/>
<path d="M120 197.602C120 197.502 120 197.302 119.9 197.202C119.9 197.202 120.1 197.002 119.6 197.202C119.3 197.202 119.9 197.002 119.9 197.002C119.9 197.002 119.9 196.802 119.8 196.702C119.8 196.702 119.5 196.602 119.4 196.502C119.4 196.502 119.6 196.202 119.2 196.202C118.9 196.202 119.4 196.002 119.2 195.902C119 195.902 118.9 195.802 119.2 195.602C119.3 195.502 119.5 195.302 119.4 195.302H119C119 195.302 119.2 195.102 118.6 195.302C118.6 195.302 118.6 195.302 118.7 195.302C119.1 195.102 119 195.102 118.7 195.102C118.4 195.102 118.5 195.102 118.4 195.102C118.4 195.102 118.3 194.902 118.4 194.802C118.4 194.802 118.6 194.602 118.6 194.502C118.6 194.502 118.3 194.502 118.6 194.302C118.9 194.102 118.8 194.102 118.8 194.002C118.8 194.002 119 193.802 118.4 194.002C119.1 193.602 118.1 193.902 118.2 193.702C118.3 193.502 118.2 193.502 118.1 193.402C118.1 193.402 118.2 193.302 117.8 193.402C117.6 193.402 117.6 193.402 117.8 193.402C118.3 193.102 118 193.102 118 193.002C118 192.902 117.8 192.902 118.2 192.602C118.4 192.502 118.4 192.402 117.9 192.602C117.6 192.602 117.9 192.602 117.8 192.602H117.5C117.5 192.602 117.7 192.502 117.8 192.402C117.1 192.502 117.8 192.002 117.6 192.002C117.4 192.002 117.4 191.802 117.4 191.602C117.4 191.602 117.5 191.302 118.5 190.802C118.9 190.502 119.4 190.302 119.7 190.202C119.9 190.202 120.1 190.002 120.2 190.002C120.3 190.002 120.5 190.002 120.6 190.002C120.8 190.002 121.4 189.902 121.1 190.102C121.1 190.102 121.3 190.102 120.9 190.302C121.7 190.102 121.3 190.502 121.4 190.602C121.5 190.602 122.1 190.602 121.9 190.802C122.5 190.602 122.4 190.802 122.3 190.802C121.8 191.302 122.3 191.402 122.3 191.702C122.3 192.002 122.5 192.202 122.6 192.502C122.6 192.502 123 192.502 122.7 192.602C122.5 192.702 122.7 192.702 122.7 192.802C122.7 192.802 122.9 192.802 122.7 193.002C122.2 193.402 122.7 193.502 122.7 193.702C122.7 193.902 122.7 194.102 122.9 194.302C123 194.302 123.4 194.302 123.3 194.602C123.3 194.602 123.6 194.602 123.1 194.902C122.9 194.902 123.4 194.902 123.4 194.902V195.102C123.4 195.202 123.4 195.302 123.5 195.402C123.5 195.402 123.8 195.402 123.9 195.502C123.9 195.502 124 195.602 123.9 195.702C123.9 195.802 123.7 196.002 123.6 196.102C123.6 196.202 123.9 196.202 123.6 196.402C123.2 196.702 123.5 196.802 123.4 197.002C123.4 197.202 123.4 197.402 123.6 197.502C123.6 197.502 123.2 197.802 123.3 197.902C123.3 197.902 121.9 198.302 121.4 198.402H121.2C120.7 198.402 120 198.402 120 198.402C120 198.202 120 198.102 120 198.002V197.602Z" fill="black"/>
</svg>
