<svg width="300" height="300" viewBox="0 0 300 300" fill="none" xmlns="http://www.w3.org/2000/svg">
<path d="M183.401 161.601C181.701 159.801 180.001 157.901 178.301 156.101C177.601 155.401 177.201 154.601 176.101 154.201C175.601 154.001 175.401 152.901 174.801 152.301C173.201 150.601 171.601 148.901 170.001 147.201C168.401 145.601 166.801 144.401 165.201 143.901C163.601 143.301 161.501 142.801 159.301 143.101C157.501 143.301 155.801 142.801 154.101 143.001C152.201 143.201 150.301 143.401 148.501 143.301C147.201 143.301 145.801 143.201 144.501 143.501C143.701 143.701 143.001 144.101 142.101 144.201C141.301 144.301 140.301 144.201 139.701 145.001C139.701 145.001 139.301 145.001 139.101 145.001C138.101 144.801 137.101 145.001 136.401 145.501C135.801 145.901 135.101 146.101 134.501 146.201C132.701 146.701 130.901 147.201 129.301 147.801C128.101 148.201 126.901 148.601 125.901 149.201C124.801 149.901 124.301 151.001 123.501 151.801C122.701 152.601 122.301 153.701 122.001 154.901C121.801 155.601 121.401 156.301 122.001 157.001C122.001 157.001 122.001 157.301 122.001 157.401C120.901 159.401 122.001 161.601 121.801 163.701C121.601 166.001 121.801 168.301 121.801 170.601C121.801 171.201 121.701 171.901 122.201 172.401C122.401 172.601 122.401 173.201 122.301 173.501C121.801 175.201 122.301 177.001 122.301 178.801C122.301 180.801 122.901 182.801 122.601 184.801C122.501 185.701 122.601 186.801 123.201 187.801C123.501 188.201 123.401 189.201 123.601 190.001C123.701 190.601 124.101 191.101 124.201 191.701C124.201 192.201 124.201 192.701 124.101 193.301C124.101 193.501 124.101 193.601 124.101 193.801C125.201 196.601 124.801 199.601 125.501 202.501C126.201 205.401 126.701 208.401 127.101 211.301C127.401 212.901 127.501 214.601 126.601 216.001C126.201 216.601 125.601 216.701 125.201 216.001C124.901 215.501 124.501 215.001 124.401 214.401C124.101 213.501 123.801 212.601 123.601 211.701C123.101 209.901 122.201 208.101 122.101 206.101C122.101 205.501 121.701 204.801 122.101 204.201C122.101 204.201 122.101 203.901 122.101 203.701C120.901 201.201 120.901 198.401 120.401 195.801C120.001 193.501 119.001 191.401 119.001 189.101C118.201 187.901 118.101 186.401 118.201 185.101C118.301 180.501 117.501 176.001 117.401 171.401C117.401 169.101 117.301 166.701 117.301 164.401C117.301 162.101 117.301 159.701 117.601 157.301C117.601 156.501 117.401 155.701 117.901 154.701C118.301 153.801 118.501 152.601 118.901 151.501C119.301 150.501 119.701 149.401 120.401 148.701C123.401 145.501 127.101 143.601 130.601 142.501C134.101 141.501 137.701 140.701 141.301 140.001C143.501 139.501 145.601 138.901 147.901 138.801C148.901 138.801 149.801 138.301 150.801 138.801C151.101 139.001 151.901 138.501 152.601 138.401C154.101 138.301 155.701 138.301 157.201 138.301C159.301 138.301 161.401 138.301 163.801 138.701C165.201 138.901 166.701 139.001 168.201 139.701C169.701 140.401 171.001 141.501 172.001 142.501C173.301 143.901 174.201 145.201 175.301 146.501C176.401 147.801 177.901 149.001 178.801 150.401C180.501 153.001 182.901 155.101 184.901 157.401C187.001 159.701 189.001 162.001 191.201 164.201C192.401 165.401 193.201 166.901 194.301 168.201C194.801 168.801 194.501 170.601 193.901 170.701C193.801 170.701 193.601 170.701 193.501 170.701C192.001 169.801 190.401 169.201 189.201 167.701C187.301 165.601 185.301 163.501 183.401 161.501V161.601Z" fill="black"/>
<path d="M172.902 176.002C173.302 175.802 173.602 175.702 174.002 175.402C174.102 175.402 174.402 175.402 174.302 174.902C174.302 174.602 174.702 175.102 174.802 175.102C175.102 174.902 175.502 174.802 175.802 174.602C176.102 174.402 176.302 174.002 176.602 173.802C176.902 173.602 177.402 173.802 177.602 173.302C177.802 172.902 178.202 173.302 178.402 173.002C178.602 172.802 178.902 172.602 179.302 172.702C179.602 172.702 179.902 172.902 180.002 172.702C180.002 172.602 180.002 172.202 180.202 172.202C180.302 172.202 180.602 172.402 180.502 171.702C180.502 171.702 180.502 171.702 180.702 171.702C181.002 172.002 181.202 171.902 181.202 171.702C181.202 171.402 181.302 171.402 181.402 171.302C181.702 171.202 182.002 171.002 182.302 171.002C182.502 171.002 182.802 171.002 183.102 171.002C183.302 171.002 183.502 170.602 183.802 170.802C184.102 171.002 184.302 170.902 184.502 170.802C184.602 170.802 184.902 171.002 184.702 170.302C185.302 171.002 185.302 169.802 185.702 169.902C186.102 169.902 186.402 169.702 186.802 169.602C186.802 169.602 187.102 169.702 187.002 169.202C187.002 169.002 187.002 169.002 187.202 169.102C187.702 169.602 187.802 169.102 188.102 169.102C188.402 169.102 188.702 168.702 189.102 169.102C189.302 169.302 189.502 169.302 189.502 168.702C189.502 168.402 189.702 168.702 189.802 168.502C189.802 168.502 189.802 168.102 190.002 168.102C190.002 168.102 190.202 168.302 190.302 168.402C190.602 167.602 191.302 168.402 191.702 168.002C192.102 167.702 192.602 167.602 193.102 167.602C193.402 167.602 193.702 167.602 194.202 168.702C194.402 169.202 194.602 169.702 194.502 170.102C194.502 170.402 194.502 170.602 194.402 170.702C194.302 170.802 194.202 171.002 194.102 171.102C193.902 171.402 193.702 172.002 193.402 171.802C193.302 171.802 193.302 172.102 193.002 171.602C192.802 172.502 192.302 172.102 191.902 172.302C191.602 172.502 191.402 173.202 191.002 173.002C191.002 173.702 190.802 173.602 190.502 173.502C189.602 173.102 189.102 173.702 188.402 173.902C187.702 174.002 187.102 174.402 186.402 174.602C186.302 174.602 186.402 175.002 186.102 174.802C185.902 174.602 185.802 174.802 185.602 174.902C185.502 174.902 185.402 175.102 185.202 175.002C184.402 174.602 184.102 175.202 183.502 175.302C183.002 175.402 182.402 175.602 182.002 176.002C181.702 176.202 181.602 176.702 181.202 176.702C181.002 176.702 181.002 177.102 180.702 176.602C180.602 176.502 180.702 176.902 180.602 177.002C180.402 177.102 180.202 177.202 180.002 177.302C179.702 177.402 179.402 177.502 179.102 177.702C178.902 177.802 178.902 178.102 178.702 178.302C178.502 178.402 178.402 178.502 178.102 178.602C177.802 178.602 177.502 178.602 177.202 178.602C176.902 178.602 176.802 179.002 176.402 178.902C175.702 178.702 175.402 179.102 175.002 179.302C174.502 179.502 174.102 179.602 173.702 180.002C173.502 180.202 173.002 179.902 172.802 180.002C172.702 180.002 171.902 178.802 171.702 178.402V178.202C171.702 177.702 171.602 176.902 171.902 176.802C172.302 176.702 172.702 176.402 173.102 176.202L172.902 176.002Z" fill="black"/>
<path d="M153.5 169.703C153.5 169.503 153.5 169.303 153.5 169.203C153.5 169.203 153.7 169.103 153.2 169.003C152.9 169.003 153.6 168.903 153.5 168.803C153.5 168.603 153.5 168.503 153.5 168.303C153.5 168.103 153.2 168.003 153.2 167.803C153.2 167.603 153.5 167.503 153.2 167.303C152.9 167.103 153.4 167.103 153.3 166.903C153.2 166.803 153.1 166.603 153.3 166.503C153.5 166.503 153.7 166.303 153.6 166.203C153.6 166.203 153.2 166.003 153.3 166.003C153.3 166.003 153.6 166.003 153 165.803C153 165.803 153 165.803 153.2 165.803C153.6 165.803 153.6 165.803 153.3 165.603C153 165.603 153.1 165.503 153.1 165.403C153.1 165.303 153.1 165.103 153.1 165.003C153.1 165.003 153.4 164.803 153.5 164.803C153.5 164.803 153.3 164.503 153.6 164.503C153.9 164.503 153.9 164.403 153.9 164.303C153.9 164.303 154.2 164.303 153.6 164.103C154.4 164.103 153.4 163.703 153.6 163.603C153.8 163.503 153.7 163.303 153.8 163.103C153.8 163.103 154 163.103 153.6 162.903C153.4 162.803 153.4 162.903 153.6 162.903C154.2 162.903 153.9 162.703 154 162.603C154.2 162.503 154 162.303 154.4 162.303C154.6 162.303 154.7 162.303 154.2 162.003C154 161.903 154.2 162.003 154.2 161.803L153.9 161.603C153.9 161.603 154.1 161.603 154.3 161.603C153.7 161.203 154.7 161.303 154.6 161.003C154.6 160.703 154.6 160.603 154.8 160.403C154.8 160.403 155.1 160.303 156.2 160.603C156.7 160.803 157.2 161.003 157.5 161.203C157.7 161.303 157.9 161.403 157.9 161.503C157.9 161.503 158.1 161.703 158.1 161.803C158.2 162.003 158.7 162.303 158.4 162.303C158.4 162.303 158.6 162.503 158.1 162.303C158.8 162.703 158.2 162.703 158.2 162.903C158.2 163.003 158.8 163.403 158.5 163.403C159.1 163.703 158.9 163.703 158.7 163.703C158 163.703 158.3 164.103 158.2 164.403C158 164.603 158.1 164.903 158 165.203C158 165.203 158.3 165.403 158 165.403C157.7 165.403 158 165.503 158 165.603C158 165.603 158.1 165.703 158 165.803C157.3 165.803 157.7 166.203 157.6 166.403C157.6 166.603 157.4 166.803 157.6 167.003C157.6 167.103 158 167.303 157.9 167.403C157.9 167.403 158.2 167.503 157.6 167.503C157.4 167.503 157.9 167.503 157.9 167.603C157.9 167.603 157.9 167.803 157.9 167.903C157.9 168.003 157.9 168.103 157.9 168.303L158.2 168.503V168.703C158.2 168.703 157.9 168.903 157.8 169.003C157.8 169.103 158 169.203 157.8 169.303C157.3 169.503 157.5 169.703 157.5 169.903C157.5 170.103 157.5 170.303 157.5 170.403C157.5 170.403 157.1 170.603 157.1 170.703C157.1 170.703 155.6 170.903 155.1 171.003H154.9C154.4 171.003 153.7 170.903 153.7 170.703C153.7 170.503 153.7 170.303 153.7 170.103L153.5 169.703Z" fill="black"/>
<path d="M163.9 170.5C163.9 170.3 163.9 170.1 163.9 170C163.9 170 164.1 169.9 163.6 169.8C163.3 169.8 164 169.7 163.9 169.6C163.9 169.4 163.9 169.3 163.9 169.1C163.9 168.9 163.6 168.8 163.6 168.6C163.6 168.4 163.9 168.3 163.6 168.1C163.3 167.9 163.8 167.9 163.7 167.7C163.6 167.6 163.5 167.4 163.7 167.3C163.9 167.3 164.1 167.1 164 167C164 167 163.6 166.8 163.7 166.8C163.7 166.8 164 166.8 163.4 166.6C163.4 166.6 163.4 166.6 163.6 166.6C164 166.6 164 166.6 163.7 166.4C163.4 166.4 163.5 166.3 163.5 166.2C163.5 166.1 163.5 165.9 163.5 165.8C163.5 165.8 163.8 165.6 163.9 165.6C163.9 165.6 163.7 165.3 164 165.3C164.3 165.3 164.3 165.2 164.3 165.1C164.3 165.1 164.6 165.1 164 164.9C164.8 164.9 163.8 164.5 164 164.4C164.2 164.3 164.1 164.1 164.2 163.9C164.2 163.9 164.4 163.9 164 163.7C163.8 163.6 163.8 163.7 164 163.7C164.6 163.7 164.3 163.5 164.4 163.4C164.6 163.3 164.4 163.1 164.8 163.1C165 163.1 165.1 163.1 164.6 162.8C164.4 162.7 164.6 162.8 164.6 162.6L164.3 162.4C164.3 162.4 164.5 162.4 164.7 162.4C164.1 162 165.1 162.1 165 161.8C165 161.5 165 161.4 165.2 161.2C165.2 161.2 165.5 161.1 166.6 161.4C167.1 161.6 167.6 161.8 167.9 162C168.1 162.1 168.3 162.2 168.3 162.3C168.3 162.3 168.5 162.5 168.5 162.6C168.6 162.8 169.1 163.1 168.8 163.1C168.8 163.1 169 163.3 168.5 163.1C169.2 163.5 168.6 163.5 168.6 163.7C168.6 163.8 169.2 164.2 168.9 164.2C169.5 164.5 169.3 164.5 169.1 164.5C168.4 164.5 168.7 164.9 168.6 165.2C168.4 165.4 168.5 165.7 168.4 166C168.4 166 168.7 166.2 168.4 166.2C168.1 166.2 168.4 166.3 168.4 166.4C168.4 166.4 168.5 166.5 168.4 166.6C167.7 166.6 168.1 167 168 167.2C168 167.4 167.8 167.6 168 167.8C168 167.9 168.4 168.1 168.3 168.2C168.3 168.2 168.6 168.3 168 168.3C167.8 168.3 168.3 168.3 168.3 168.4C168.3 168.4 168.3 168.6 168.3 168.7C168.3 168.8 168.3 168.9 168.3 169.1L168.6 169.3V169.5C168.6 169.5 168.3 169.7 168.2 169.8C168.2 169.9 168.4 170 168.2 170.1C167.7 170.3 167.9 170.5 167.9 170.7C167.9 170.9 167.9 171.1 167.9 171.2C167.9 171.2 167.5 171.4 167.5 171.5C167.5 171.5 166 171.7 165.5 171.8H165.3C164.8 171.8 164.1 171.7 164.1 171.5C164.1 171.3 164.1 171.1 164.1 170.9L163.9 170.5Z" fill="black"/>
<path d="M172.901 209.601C172.901 209.001 172.901 208.401 172.701 207.901C172.701 207.701 172.901 207.401 172.301 207.301C172.001 207.301 172.601 206.901 172.601 206.701C172.501 206.201 172.601 205.601 172.401 205.101C172.301 204.601 172.001 204.101 171.901 203.601C171.801 203.101 172.001 202.501 171.601 202.101C171.301 201.701 171.701 201.301 171.601 200.801C171.401 200.401 171.301 199.901 171.501 199.501C171.601 199.201 171.801 198.801 171.701 198.501C171.701 198.301 171.301 198.201 171.301 198.001C171.301 197.801 171.501 197.501 170.901 197.401C170.901 197.401 170.901 197.301 171.001 197.201C171.401 196.901 171.301 196.701 171.001 196.501C170.701 196.401 170.701 196.201 170.701 196.001C170.701 195.601 170.501 195.101 170.501 194.701C170.501 194.401 170.701 194.001 170.701 193.701C170.701 193.301 170.401 193.001 170.701 192.701C171.001 192.301 170.901 192.001 170.901 191.701C170.901 191.501 171.101 191.301 170.501 191.201C170.501 191.201 170.501 191.201 170.501 191.101C171.301 190.501 170.101 190.101 170.301 189.601C170.501 189.001 170.301 188.501 170.201 188.001C170.201 187.901 170.301 187.701 169.901 187.601C169.701 187.601 169.701 187.401 169.901 187.301C170.501 186.801 170.101 186.501 170.101 186.001C170.101 185.501 169.801 185.101 170.301 184.601C170.501 184.401 170.601 184.101 170.001 183.901C169.701 183.901 170.001 183.601 169.901 183.401C169.901 183.301 169.601 183.201 169.501 183.001C169.501 182.901 169.701 182.701 169.801 182.601C169.801 182.601 169.801 182.601 169.801 182.501C169.101 181.901 169.801 181.101 169.601 180.401C169.301 179.701 169.401 179.001 169.401 178.301V177.701C169.501 177.301 169.701 177.001 169.901 176.801C170.101 176.601 170.401 176.401 170.801 176.201C171.001 176.201 171.301 176.101 171.601 176.201C172.001 176.201 172.301 176.401 172.401 176.701C172.601 177.101 172.301 177.301 172.101 177.501L171.901 177.701C171.901 177.701 171.901 177.801 172.001 177.901C172.101 178.001 172.301 178.101 172.301 178.101C172.401 178.101 172.301 178.101 172.101 178.101H172.901V178.301C173.101 178.701 173.701 179.101 173.501 179.601C173.501 179.701 173.701 179.901 173.201 180.101C173.201 180.101 173.101 180.101 173.201 180.201C174.001 180.701 173.601 181.401 173.701 182.001C173.801 182.501 174.501 183.001 174.301 183.501C175.001 183.701 174.901 184.101 174.701 184.401C174.101 185.501 174.701 186.501 174.701 187.601C174.701 188.701 174.901 189.701 175.001 190.801C175.001 191.001 175.401 191.101 175.101 191.301C174.901 191.501 175.101 191.801 175.101 192.001C175.101 192.201 175.301 192.401 175.101 192.601C174.501 193.501 175.101 194.301 175.101 195.101C175.101 195.901 175.101 196.801 175.401 197.601C175.601 198.101 176.001 198.601 175.901 199.101C175.901 199.301 176.201 199.501 175.701 199.801C175.501 199.801 176.001 200.001 176.101 200.201C176.101 200.501 176.101 200.901 176.201 201.201C176.201 201.701 176.201 202.201 176.401 202.601C176.401 202.901 176.701 203.201 176.801 203.401C176.801 203.701 176.901 204.001 176.901 204.301C176.901 204.701 176.701 205.101 176.701 205.501C176.701 205.901 177.001 206.301 176.701 206.701C176.301 207.501 176.701 208.201 176.701 208.901C176.701 209.601 176.701 210.401 176.901 211.101C177.001 211.501 176.501 211.901 176.601 212.301C176.601 212.501 175.201 212.901 174.701 212.801H174.501C174.001 212.501 173.201 212.201 173.301 211.701C173.301 211.001 173.201 210.401 173.101 209.701L172.901 209.601Z" fill="black"/>
<path d="M150.4 179.401C150.4 179.801 150.3 180.101 150.3 180.501C150.3 180.601 150 180.701 150.5 181.001C150.7 181.101 150.1 181.001 150.1 181.201C150.1 181.501 149.9 181.801 149.8 182.101C149.8 182.401 149.8 182.801 149.7 183.101C149.7 183.401 149.2 183.501 149.3 184.001C149.3 184.401 148.8 184.301 148.8 184.601C148.8 184.901 148.6 185.201 148.3 185.201C148 185.201 147.8 185.201 147.7 185.401C147.7 185.501 147.8 185.801 147.7 185.901C147.6 185.901 147.3 185.901 147.7 186.401C147.7 186.401 147.7 186.401 147.5 186.401C147.1 186.201 147 186.301 147.1 186.601C147.1 186.901 147.1 186.901 147.1 187.001C146.9 187.201 146.7 187.401 146.4 187.501C146.2 187.501 145.9 187.501 145.7 187.501C145.5 187.501 145.4 187.901 145.1 187.701C144.8 187.501 144.7 187.601 144.5 187.701C144.5 187.701 144.2 187.501 144.3 188.101C143.7 187.401 143.8 188.501 143.5 188.401C143.1 188.301 142.9 188.501 142.6 188.601C142.6 188.601 142.4 188.501 142.4 188.901C142.4 189.101 142.4 189.101 142.3 188.901C142 188.301 141.8 188.701 141.5 188.701C141.2 188.701 141 188.901 140.7 188.501C140.6 188.301 140.4 188.201 140.3 188.801C140.3 189.101 140.1 188.801 140 188.801C140 188.801 139.9 189.101 139.8 189.101C139.8 189.101 139.7 188.901 139.6 188.801C139.2 189.501 138.8 188.601 138.5 188.801C138.1 189.001 137.7 188.801 137.4 188.801C137.2 188.801 137 188.501 137 187.401C137 186.901 137 186.301 137.2 186.001C137.2 185.801 137.4 185.601 137.4 185.501C137.5 185.501 137.6 185.301 137.7 185.201C137.9 185.001 138.1 184.501 138.3 184.801C138.3 184.801 138.4 184.601 138.5 185.101C138.8 184.301 139 184.801 139.3 184.801C139.5 184.801 139.7 184.101 139.9 184.401C139.9 183.801 140.1 183.901 140.2 184.001C140.7 184.601 141 184.101 141.4 184.101C141.8 184.101 142.2 183.901 142.6 183.801C142.6 183.801 142.6 183.401 142.8 183.701C143 183.901 143 183.701 143.1 183.701C143.1 183.701 143.1 183.501 143.3 183.701C143.9 184.101 144 183.701 144.3 183.501C144.6 183.401 144.9 183.201 145 182.901C145 182.701 145 182.301 145.2 182.301C145.2 182.301 145.1 182.001 145.6 182.301C145.7 182.301 145.4 182.001 145.5 182.001C145.5 181.901 145.6 181.801 145.7 181.701C145.8 181.601 145.9 181.401 146 181.301C146 181.201 145.8 181.001 145.8 180.901C145.8 180.801 145.8 180.701 145.9 180.601C146 180.601 146.3 180.501 146.4 180.401C146.5 180.301 146.3 180.101 146.6 180.001C147.2 179.901 147 179.601 147 179.401C147 179.201 147.1 178.901 147 178.701C147 178.601 147.4 178.401 147.4 178.301C147.4 178.301 148.8 177.901 149.3 177.801H149.5C150 177.901 150.7 178.101 150.7 178.401C150.7 178.801 150.7 179.201 150.7 179.601L150.4 179.401Z" fill="black"/>
<path d="M169.501 192.901C169.001 193.201 168.501 193.501 168.101 193.801C167.901 193.901 167.601 193.801 167.701 194.401C167.701 194.701 167.201 194.201 167.101 194.401C166.601 194.701 166.101 194.901 165.601 195.101C165.101 195.301 164.601 195.701 164.101 195.901C163.601 196.101 163.001 195.901 162.501 196.301C162.101 196.601 161.601 196.201 161.201 196.301C160.701 196.401 160.201 196.501 159.801 196.301C159.501 196.101 159.201 195.901 158.901 195.901C158.701 195.901 158.501 196.201 158.201 196.201C158.001 196.201 157.801 195.801 157.501 196.401C157.501 196.401 157.501 196.401 157.401 196.201C157.301 195.801 157.001 195.701 156.801 196.001C156.601 196.201 156.401 196.101 156.201 196.101C155.701 196.101 155.301 195.901 154.901 195.701C154.601 195.501 154.401 195.201 154.101 195.001C153.801 194.801 153.301 195.001 153.201 194.501C153.001 194.101 152.801 194.001 152.501 193.801C152.301 193.801 152.301 193.401 151.901 193.801C151.901 192.801 150.901 193.501 150.601 193.001C150.301 192.501 149.801 192.301 149.301 192.001C149.201 192.001 149.201 191.701 148.801 192.001C148.701 192.001 148.501 192.001 148.601 191.901C148.701 191.201 148.201 191.201 147.901 190.801C147.701 190.401 147.101 190.201 147.201 189.601C147.201 189.301 147.201 189.101 146.501 189.201C146.201 189.201 146.301 188.901 146.101 188.901C146.001 188.901 145.701 188.901 145.601 188.801C145.601 188.801 145.601 188.501 145.601 188.301C144.701 188.201 145.001 187.101 144.501 186.601C144.001 186.101 143.701 185.501 143.501 184.901C143.401 184.601 143.401 184.101 144.301 183.401C144.701 183.101 145.201 182.801 145.601 182.801C145.901 182.801 146.101 182.801 146.201 182.801C146.401 182.901 146.601 183.001 146.801 183.101C147.201 183.301 147.801 183.401 147.801 183.901C147.801 184.101 148.101 184.001 147.801 184.401V184.501C148.701 184.501 148.601 185.201 149.001 185.601C149.301 185.901 150.101 185.901 150.101 186.401C150.701 186.201 150.801 186.401 150.801 186.801C150.801 187.901 151.801 188.201 152.401 188.801C153.001 189.401 153.701 189.801 154.401 190.301C154.501 190.301 154.801 190.101 154.801 190.501C154.801 190.801 155.101 190.701 155.201 190.801C155.301 190.801 155.601 190.801 155.601 191.001C155.901 191.901 156.701 191.801 157.301 192.001C157.901 192.301 158.501 192.501 159.201 192.401C159.601 192.401 160.001 192.101 160.401 192.201C160.601 192.201 160.701 191.901 160.901 192.501C160.901 192.701 161.101 192.201 161.201 192.201C161.501 192.201 161.701 192.201 162.001 192.201C162.401 192.201 162.701 192.201 163.101 192.001C163.301 192.001 163.501 191.601 163.601 191.501C163.801 191.401 164.001 191.301 164.201 191.301C164.501 191.301 164.801 191.301 165.101 191.301C165.401 191.301 165.601 190.901 166.001 191.001C166.701 191.201 167.101 190.701 167.601 190.401C168.101 190.101 168.601 189.801 169.001 189.301C169.201 189.001 169.801 189.301 170.101 189.001C170.201 188.901 171.301 189.901 171.601 190.301V190.501C171.601 191.101 171.801 191.901 171.501 192.101C171.001 192.401 170.501 192.801 170.001 193.201L169.501 192.901Z" fill="black"/>
<path d="M126.1 129.401C126.1 129.701 126.1 130.001 126.3 130.301C126.3 130.401 126.1 130.601 126.7 130.601C127 130.601 126.4 130.801 126.4 130.901C126.5 131.201 126.4 131.401 126.6 131.701C126.7 131.901 127 132.201 127.1 132.401C127.2 132.601 127 133.001 127.3 133.201C127.6 133.401 127.2 133.701 127.3 133.801C127.5 134.001 127.6 134.201 127.3 134.501C127.2 134.701 127 134.901 127.1 135.001C127.1 135.001 127.5 135.101 127.5 135.201C127.5 135.301 127.3 135.501 127.9 135.401C127.9 135.401 127.9 135.401 127.8 135.501C127.4 135.701 127.5 135.801 127.8 135.801C128.1 135.801 128.1 135.901 128.1 136.001C128.1 136.201 128.2 136.401 128.2 136.701C128.2 136.901 128 137.101 128 137.301C128 137.501 128.3 137.601 128 137.801C127.7 138.001 127.8 138.201 127.8 138.301C127.8 138.301 127.5 138.501 128.2 138.501C127.4 138.901 128.5 139.001 128.4 139.201C128.2 139.501 128.4 139.701 128.5 140.001C128.5 140.001 128.4 140.201 128.8 140.201C129 140.201 129 140.201 128.8 140.301C128.2 140.601 128.6 140.701 128.6 141.001C128.6 141.301 128.9 141.401 128.4 141.701C128.2 141.801 128.1 142.001 128.7 142.001C129 142.001 128.7 142.201 128.8 142.201C128.8 142.201 129.1 142.201 129.2 142.401C129.2 142.401 129 142.601 128.9 142.601C129.6 142.801 128.8 143.301 129 143.601C129.2 143.901 129.2 144.301 129.2 144.601C129.2 144.801 129 145.001 127.9 145.301C127.4 145.401 126.9 145.501 126.5 145.501C126.3 145.501 126 145.501 125.9 145.401C125.8 145.401 125.6 145.201 125.5 145.101C125.3 144.901 124.7 144.801 124.9 144.501C124.9 144.501 124.7 144.401 125.2 144.201C124.4 144.001 124.8 143.601 124.7 143.301C124.7 143.001 123.9 142.901 124.2 142.601C123.6 142.601 123.6 142.401 123.8 142.201C124.4 141.601 123.8 141.101 123.8 140.601C123.8 140.101 123.6 139.601 123.6 139.001C123.6 139.001 123.2 138.901 123.5 138.701C123.7 138.601 123.5 138.501 123.5 138.401C123.5 138.301 123.3 138.201 123.5 138.101C124.1 137.601 123.6 137.201 123.6 136.801C123.6 136.401 123.6 136.001 123.4 135.601C123.3 135.401 122.9 135.201 123 134.901C123 134.801 122.7 134.701 123.2 134.501C123.4 134.501 122.9 134.501 122.9 134.401C122.9 134.201 122.9 134.101 122.8 133.901C122.8 133.701 122.8 133.401 122.7 133.201C122.7 133.101 122.4 133.001 122.3 132.801C122.3 132.701 122.2 132.501 122.3 132.301C122.3 132.101 122.5 131.901 122.5 131.701C122.5 131.501 122.2 131.301 122.5 131.101C122.9 130.601 122.6 130.301 122.6 130.001C122.6 129.601 122.6 129.301 122.4 129.201C122.4 129.201 122.8 128.901 122.7 128.901C122.7 128.901 123 128.701 123.3 128.401C123.6 128.101 124 127.701 124.2 127.601L124.4 127.501C124.9 127.401 125.8 127.401 125.9 127.801C126.1 128.401 126.2 128.801 126.2 129.101L126.1 129.401Z" fill="black"/>
<path d="M144.601 125.701C145.101 124.701 145.801 124.201 146.301 123.801L147.801 122.601C148.801 121.901 149.701 121.101 150.501 120.401C151.101 119.901 151.901 119.401 152.101 118.501C152.101 118.001 153.201 117.901 153.601 117.201C154.701 115.501 155.801 113.701 156.401 111.801C157.001 109.901 157.101 107.901 157.001 105.901C157.001 104.001 157.001 101.901 156.101 100.301C155.401 98.9015 155.201 97.4015 154.301 96.1015C153.301 94.8015 152.201 93.5015 151.301 92.2015C150.601 91.3015 149.801 90.3015 148.801 89.7015C148.101 89.3015 147.401 89.2015 146.701 88.8015C146.101 88.4015 145.401 87.8015 144.601 88.2015C144.601 88.2015 144.301 88.0015 144.201 87.9015C143.601 87.2015 142.601 87.0015 141.801 87.0015C141.101 87.0015 140.501 87.0015 139.901 86.8015C138.201 86.4015 136.501 86.3015 134.901 86.1015C133.601 86.1015 132.401 85.7015 131.101 85.8015C130.401 85.8015 129.701 85.9015 129.101 86.1015C128.801 86.1015 128.401 86.2015 128.101 86.2015C127.801 86.2015 127.501 86.2015 127.101 86.2015C125.801 86.2015 124.701 86.5015 123.501 86.9015C122.901 87.1015 122.001 87.2015 121.701 88.0015C121.701 88.0015 121.401 88.2015 121.301 88.2015C120.201 88.2015 119.401 88.7015 118.601 89.3015C117.801 89.9015 117.101 90.6015 116.201 91.1015C114.401 92.2015 112.901 93.6015 111.601 95.2015C111.201 95.6015 110.701 95.9015 110.801 96.6015C110.801 96.8015 110.501 97.3015 110.301 97.4015C109.001 98.2015 108.701 99.8015 108.301 101.201C107.801 102.801 108.001 104.501 107.701 106.301C107.601 107.101 107.701 108.101 108.401 108.901C108.801 109.201 108.701 110.101 109.001 110.701C109.201 111.201 109.601 111.601 109.801 112.101C110.001 112.501 109.901 113.001 110.001 113.501C110.001 113.601 110.001 113.801 110.201 113.901C111.101 114.901 111.601 116.101 112.301 117.201C112.901 118.301 113.601 119.501 114.501 120.501C116.401 122.401 118.301 124.201 120.501 125.601C121.701 126.401 122.901 127.101 123.501 128.501C123.801 129.101 123.701 129.701 122.901 129.801C122.301 129.801 121.701 129.801 121.101 129.701C120.201 129.401 119.301 129.101 118.401 128.701C116.701 127.901 114.801 127.001 113.501 125.401C113.101 124.901 112.401 124.601 112.401 123.901C112.401 123.801 112.301 123.601 112.201 123.501C109.801 122.101 108.601 119.401 107.301 117.101C106.201 115.101 104.701 113.201 104.301 110.801C103.301 109.701 103.101 108.001 103.201 106.601C103.301 104.201 103.501 101.701 104.201 99.3015C104.901 96.9015 106.001 94.6015 107.701 92.8015C110.901 89.3015 114.601 86.3015 119.001 84.4015C119.701 84.1015 120.201 83.5015 121.201 83.4015C122.101 83.4015 123.101 82.8015 124.101 82.5015C125.001 82.2015 126.001 81.9015 126.901 81.9015C130.601 81.9015 134.201 81.5015 137.901 82.0015C139.701 82.3015 141.501 82.7015 143.201 83.2015C144.101 83.5015 144.901 83.7015 145.801 84.0015C146.701 84.3015 147.501 84.7015 148.401 85.1015C150.401 86.1015 152.501 87.2015 154.101 88.9015C154.801 89.6015 155.701 90.2015 155.901 91.3015C155.901 91.6015 156.901 92.1015 157.201 92.6015C158.201 93.9015 158.901 95.3015 159.501 96.7015C160.401 98.7015 160.901 100.901 161.301 103.101C161.501 104.401 161.801 105.801 161.801 107.101C161.801 108.501 161.601 110.001 161.201 111.301C160.701 113.001 159.901 114.701 159.101 116.201C158.201 117.801 157.401 119.601 156.001 120.801C153.501 123.001 151.001 124.901 148.801 126.701C148.301 127.101 148.101 127.301 148.001 127.501C147.501 127.901 148.801 130.901 149.201 133.201C149.601 135.001 149.201 136.601 149.201 138.301C149.201 139.101 147.701 140.101 147.201 139.801C147.201 139.801 147.001 139.601 147.001 139.501C146.601 137.901 145.801 136.601 145.601 134.901C145.501 133.701 145.201 132.401 144.901 131.201C144.701 130.601 144.501 129.901 144.301 129.001C144.301 128.601 144.201 128.101 144.301 127.601C144.301 127.101 144.501 126.501 144.701 126.001V125.801L144.601 125.701Z" fill="black"/>
<path d="M143.5 133.701C143.2 133.701 142.8 133.801 142.5 134.001C142.4 134.001 142.2 133.801 142.2 134.401C142.2 134.701 141.9 134.101 141.8 134.101C141.5 134.301 141.2 134.201 140.9 134.401C140.6 134.501 140.4 134.801 140.1 135.001C139.8 135.101 139.4 135.001 139.2 135.301C139 135.601 138.7 135.301 138.5 135.301C138.3 135.501 138 135.601 137.7 135.501C137.5 135.401 137.2 135.201 137.1 135.401C137.1 135.401 137 135.801 136.9 135.801C136.8 135.801 136.6 135.601 136.6 136.201C136.6 136.201 136.6 136.201 136.5 136.101C136.3 135.701 136.1 135.801 136.1 136.101C136.1 136.401 136 136.401 135.9 136.401C135.7 136.501 135.4 136.601 135.1 136.601C134.9 136.601 134.6 136.401 134.4 136.401C134.2 136.401 134.1 136.701 133.8 136.401C133.5 136.201 133.4 136.201 133.2 136.301C133.1 136.301 132.9 136.101 133 136.701C132.5 136.001 132.5 137.101 132.1 137.001C131.7 136.901 131.5 137.101 131.2 137.201C131.2 137.201 131 137.101 131 137.501C131 137.701 131 137.701 130.9 137.601C130.5 137.101 130.4 137.501 130.1 137.401C129.8 137.401 129.6 137.701 129.2 137.401C129 137.201 128.8 137.201 128.9 137.801C128.9 138.101 128.7 137.801 128.6 137.901C128.6 137.901 128.6 138.301 128.4 138.301C128.4 138.301 128.2 138.101 128.1 138.001C127.9 138.701 127.3 138.001 126.9 138.301C126.6 138.601 126.1 138.601 125.7 138.601C125.5 138.601 125.2 138.501 124.8 137.401C124.6 136.901 124.5 136.401 124.5 136.001C124.5 135.701 124.5 135.501 124.5 135.401C124.5 135.301 124.7 135.101 124.8 135.001C125 134.701 125.1 134.201 125.4 134.401C125.5 134.401 125.5 134.101 125.7 134.601C125.8 133.701 126.3 134.101 126.7 134.001C127 133.901 127.1 133.201 127.5 133.401C127.5 132.701 127.7 132.801 127.9 132.901C128.7 133.401 129.1 132.801 129.8 132.701C130.4 132.701 131 132.401 131.6 132.301C131.7 132.301 131.7 131.901 131.9 132.101C132.1 132.301 132.2 132.101 132.3 132.101C132.4 132.101 132.5 131.901 132.7 132.101C133.3 132.601 133.7 132.101 134.2 132.101C134.7 132.101 135.2 132.001 135.6 131.701C135.9 131.501 136.1 131.101 136.4 131.201C136.5 131.201 136.6 130.901 136.9 131.401C136.9 131.601 136.9 131.101 137 131.001C137.2 130.901 137.4 130.901 137.6 130.801C137.9 130.801 138.2 130.701 138.4 130.601C138.6 130.601 138.7 130.201 138.8 130.101C139 130.001 139.1 129.901 139.3 130.001C139.5 130.001 139.8 130.201 140.1 130.201C140.3 130.201 140.5 129.901 140.8 130.101C141.3 130.501 141.7 130.101 142.1 130.101C142.5 130.101 142.9 130.001 143.3 129.801C143.5 129.701 143.9 130.101 144.1 130.001C144.2 130.001 144.7 131.401 144.8 131.901V132.101C144.8 132.601 144.7 133.401 144.4 133.401C144 133.401 143.6 133.601 143.3 133.701H143.5Z" fill="black"/>
<path d="M132.099 110.601C132.299 109.801 132.399 109.001 132.699 108.101C132.899 107.201 133.199 106.301 133.699 105.301C134.099 104.601 134.799 104.101 135.199 103.101C135.399 102.601 136.499 102.701 137.199 102.401C139.199 101.701 141.299 102.001 143.099 103.001C144.899 104.001 146.299 105.701 146.899 107.601C147.399 109.501 146.899 111.501 146.599 113.301C146.299 115.001 144.999 115.901 144.099 117.001C143.099 118.201 141.799 119.101 140.299 119.501C139.299 119.801 138.199 119.901 137.299 120.201C136.699 120.401 136.199 120.801 135.499 120.801C134.899 120.801 134.199 120.601 133.599 121.201C133.599 121.201 133.299 121.201 133.099 121.001C132.399 120.601 131.699 120.501 131.099 120.701C130.499 120.901 130.099 120.801 129.599 120.701C128.299 120.501 126.899 120.201 125.499 119.701C124.499 119.301 123.499 118.601 122.599 117.901C121.599 117.201 120.399 116.301 119.999 115.201C119.599 114.001 119.199 113.001 118.999 111.801C118.899 111.101 119.199 110.301 118.699 109.701C118.699 109.701 118.699 109.401 118.699 109.301C119.299 108.401 119.699 107.601 120.099 106.701C120.499 105.901 120.999 105.001 121.799 104.501C122.599 104.001 123.499 103.401 124.399 103.101C125.299 102.701 126.499 102.401 127.699 102.601C128.399 102.601 128.999 103.101 129.799 103.001C130.099 103.001 130.799 103.401 130.999 103.801C131.499 104.701 131.799 105.501 132.199 106.101C132.499 106.801 132.799 107.401 132.899 108.001C133.199 109.301 133.899 110.601 133.799 112.001C133.799 112.601 133.799 113.401 134.599 113.901C134.899 114.201 134.799 114.901 134.999 115.301C135.099 115.701 135.499 116.001 135.599 116.401C135.599 116.701 135.599 117.101 135.399 117.501C135.399 117.601 135.399 117.701 135.399 117.801C136.399 119.701 135.699 121.801 135.999 123.701C136.299 125.701 136.299 127.801 136.099 129.801C136.099 130.901 135.699 132.101 134.499 132.701C133.999 133.001 133.399 132.901 133.099 132.501C132.899 132.101 132.699 131.801 132.699 131.401C132.699 130.801 132.499 130.201 132.499 129.601C132.299 128.401 131.799 127.201 131.999 125.901C131.999 125.501 131.799 125.101 132.199 124.701C132.199 124.701 132.199 124.501 132.199 124.401C131.299 122.801 131.699 121.001 131.399 119.401C131.099 118.001 130.299 116.701 130.199 115.301C129.399 114.701 129.299 113.801 129.299 112.901C129.299 111.501 128.899 110.101 128.399 108.801C128.199 108.201 127.899 107.701 127.699 107.401C127.499 107.101 127.399 107.101 127.199 107.001C126.799 106.801 125.699 107.001 124.899 107.701C123.999 108.401 123.299 109.301 123.099 110.101C123.099 110.401 123.299 110.601 123.099 110.901C122.799 111.201 123.099 111.601 123.299 112.001C123.399 112.401 123.799 112.601 123.899 113.001C124.099 113.901 124.799 114.501 125.699 115.001C126.599 115.501 127.599 115.701 128.599 116.001C130.699 116.501 132.899 116.901 134.999 116.601C136.299 116.401 137.299 115.801 138.399 115.501C138.899 115.401 139.199 114.801 139.899 115.101C140.099 115.101 140.299 114.501 140.499 114.301C141.099 113.801 141.599 113.301 141.999 112.701C142.499 111.901 142.799 111.001 142.799 110.001C142.799 109.401 142.399 108.901 142.199 108.501C141.999 108.001 141.699 107.601 141.499 107.301C141.199 106.901 140.699 106.401 139.999 106.201C139.699 106.201 139.299 106.201 138.999 106.201C138.699 106.201 138.399 106.401 138.099 106.401C137.499 106.401 137.099 106.801 136.799 107.501C136.499 108.201 136.299 109.101 136.099 110.001C135.599 111.901 135.299 113.801 135.099 115.801C135.099 116.901 134.399 117.901 134.399 118.901C134.399 119.401 132.899 120.001 132.399 119.801C132.399 119.801 132.199 119.701 132.199 119.601C131.799 118.501 131.199 117.401 131.399 116.101C131.699 114.201 131.899 112.301 132.299 110.501L132.099 110.601Z" fill="black"/>
</svg>
