<svg width="300" height="300" viewBox="0 0 300 300" fill="none" xmlns="http://www.w3.org/2000/svg">
<path d="M184.101 141C183.701 140.6 183.401 140.2 183.001 139.8C182.801 139.7 183.001 139.3 182.401 139.6C182.101 139.7 182.401 139.1 182.401 139C182.001 138.7 181.701 138.3 181.301 137.9C180.901 137.6 180.401 137.4 180.101 137.1C179.701 136.8 179.601 136.2 179.101 136.1C178.601 136 178.701 135.4 178.401 135.2C178.001 135 177.701 134.7 177.601 134.3C177.601 134 177.501 133.6 177.201 133.5C177.001 133.5 176.701 133.5 176.601 133.4C176.501 133.3 176.601 132.9 176.001 133.2C176.001 133.2 176.001 133.1 176.001 133C176.201 132.6 176.001 132.4 175.701 132.5C175.401 132.5 175.301 132.5 175.201 132.3C174.901 132 174.601 131.7 174.401 131.4C174.201 131.1 174.201 130.8 174.001 130.5C173.801 130.2 173.401 130.2 173.401 129.7C173.401 129.3 173.201 129.1 173.001 128.9C172.901 128.8 173.001 128.4 172.401 128.8C172.701 127.9 171.601 128.3 171.401 127.8C171.201 127.3 170.801 127 170.401 126.7C170.401 126.7 170.401 126.4 169.901 126.7C169.801 126.7 169.601 126.7 169.701 126.6C169.901 125.9 169.401 125.9 169.201 125.5C169.001 125.1 168.501 125 168.501 124.3C168.501 124 168.501 123.8 167.901 124C167.601 124.1 167.701 123.8 167.501 123.7C167.401 123.7 167.101 123.7 167.001 123.7C167.001 123.7 167.001 123.4 167.001 123.2C166.101 123.2 166.301 122.1 165.701 121.8C165.101 121.5 164.701 120.9 164.401 120.4C164.201 120.1 164.101 119.7 164.801 118.8C165.101 118.4 165.501 118 165.801 117.9C166.101 117.9 166.301 117.8 166.401 117.9C166.601 117.9 166.801 118 167.001 118.1C167.401 118.3 168.101 118.1 168.201 118.7C168.201 118.9 168.601 118.7 168.201 119.2V119.3C169.201 119.2 169.201 120 169.601 120.3C170.001 120.6 170.801 120.5 170.901 121.1C171.501 120.9 171.701 121.1 171.701 121.5C171.901 122.7 172.901 123.1 173.501 123.8C174.101 124.6 174.801 125.2 175.501 126C175.601 126.1 176.001 126 175.901 126.3C175.901 126.6 176.101 126.6 176.301 126.8C176.401 126.9 176.701 127 176.701 127.2C176.701 128.2 177.601 128.5 178.001 129.1C178.501 129.7 179.001 130.3 179.601 130.8C180.001 131.1 180.601 131.2 180.801 131.6C180.801 131.8 181.301 131.7 181.001 132.3C181.001 132.5 181.401 132.3 181.501 132.3C181.801 132.5 182.001 132.8 182.201 133C182.501 133.3 182.801 133.7 183.101 134C183.301 134.2 183.701 134.2 183.901 134.4C184.101 134.6 184.301 134.8 184.501 135C184.701 135.3 184.801 135.7 185.001 136C185.201 136.3 185.701 136.4 185.701 136.9C185.701 137.7 186.401 138 186.801 138.6C187.201 139.1 187.601 139.6 188.201 140C188.501 140.2 188.401 140.8 188.601 141.1C188.701 141.2 187.801 142.4 187.401 142.7L187.201 142.8C186.601 142.8 185.901 143.1 185.601 142.8C185.201 142.3 184.801 141.9 184.401 141.5L184.101 141Z" fill="black"/>
<path d="M119.501 119.901C118.601 120.501 117.701 121.201 117.101 122.101C116.901 122.401 116.401 122.601 116.701 123.301C116.801 123.601 116.101 123.601 115.901 124.001C115.501 125.001 115.101 125.901 115.001 127.001C114.801 128.101 115.001 129.101 114.901 130.201C114.901 131.301 114.501 132.401 114.901 133.501C115.201 134.501 114.701 135.301 114.801 136.201C114.901 137.201 115.001 138.201 114.801 139.101C114.601 139.801 114.401 140.501 114.601 141.201C114.601 141.601 115.001 142.001 115.001 142.501C115.001 142.901 114.701 143.401 115.401 143.801C115.401 143.801 115.401 144.001 115.301 144.101C114.901 144.601 115.001 145.201 115.301 145.501C115.601 145.901 115.601 146.201 115.601 146.601C115.701 147.601 115.801 148.501 115.801 149.501C115.801 150.201 115.701 151.001 115.701 151.701C115.701 152.501 116.101 153.201 115.801 154.001C115.601 154.701 115.701 155.401 115.801 156.101C115.801 156.501 115.601 157.001 116.301 157.201V157.401C115.601 158.601 116.801 159.601 116.801 160.701C116.801 161.901 117.101 163.101 117.301 164.201C117.301 164.501 117.301 164.901 117.701 165.101C117.901 165.101 117.901 165.501 117.901 165.701C117.401 166.701 117.901 167.501 117.901 168.401C117.901 169.401 118.401 170.401 118.101 171.501C118.001 172.001 118.001 172.601 118.601 173.001C118.901 173.201 118.701 173.701 118.901 174.101C119.001 174.401 119.301 174.601 119.401 174.901C119.401 175.201 119.301 175.501 119.201 175.701C119.201 175.701 119.201 175.901 119.201 176.001C120.101 177.401 119.501 179.001 120.001 180.501C120.501 182.001 120.701 183.501 120.901 185.001C121.001 185.801 120.901 186.701 120.001 187.501C119.501 187.901 119.001 188.001 118.601 187.701C118.301 187.501 118.001 187.201 117.901 186.901C117.701 186.401 117.501 186.001 117.301 185.501C116.901 184.601 116.201 183.701 116.301 182.701C116.301 182.401 116.001 182.101 116.401 181.701V181.501C115.401 180.301 115.601 178.801 115.301 177.501C115.001 176.401 114.201 175.301 114.301 174.101C113.601 173.601 113.501 172.801 113.601 172.101C113.901 169.701 113.001 167.501 112.801 165.101C112.501 162.701 112.101 160.401 111.901 158.001C111.901 157.601 111.401 157.301 111.701 156.801C111.901 156.301 111.701 155.801 111.601 155.301C111.601 154.801 111.401 154.301 111.501 153.901C112.001 152.001 111.401 150.201 111.301 148.301C111.301 146.401 111.201 144.601 110.901 142.701C110.801 141.601 110.401 140.501 110.501 139.301C110.501 138.801 110.201 138.301 110.801 137.801C111.001 137.701 110.501 137.201 110.501 136.901C110.501 136.101 110.501 135.301 110.501 134.501C110.501 133.401 110.501 132.301 110.501 131.201C110.501 130.501 110.301 129.801 110.301 129.101C110.301 128.401 110.301 127.601 110.601 126.901C110.801 126.001 111.201 125.101 111.601 124.101C112.001 123.201 112.101 122.001 112.801 121.201C113.501 120.501 114.001 119.801 114.701 119.101C115.301 118.401 116.001 117.701 116.701 117.201C118.201 116.201 119.801 115.401 121.301 114.701C122.201 114.301 123.201 114.501 124.001 114.201C124.401 114.101 125.401 115.301 125.301 115.901C125.301 116.001 125.301 116.101 125.301 116.201C124.601 116.901 124.101 117.801 123.201 118.101C121.901 118.501 120.701 119.101 119.601 119.801L119.501 119.901Z" fill="black"/>
<path d="M166.101 147.302C166.501 147.102 166.801 147.002 167.201 146.702C167.301 146.702 167.601 146.702 167.501 146.202C167.501 145.902 167.901 146.402 168.001 146.402C168.301 146.202 168.701 146.102 169.001 145.902C169.301 145.702 169.501 145.302 169.801 145.102C170.101 144.902 170.601 145.102 170.801 144.602C171.001 144.202 171.401 144.602 171.601 144.302C171.801 144.102 172.101 143.902 172.501 144.002C172.801 144.002 173.101 144.202 173.201 144.002C173.201 143.902 173.201 143.502 173.401 143.502C173.501 143.502 173.801 143.702 173.701 143.002C173.701 143.002 173.701 143.002 173.901 143.002C174.201 143.302 174.401 143.202 174.401 143.002C174.401 142.702 174.501 142.702 174.601 142.602C174.901 142.502 175.201 142.302 175.501 142.302C175.701 142.302 176.001 142.302 176.301 142.302C176.501 142.302 176.701 141.902 177.001 142.102C177.301 142.302 177.501 142.202 177.701 142.102C177.801 142.102 178.101 142.302 177.901 141.602C178.501 142.302 178.501 141.102 178.901 141.202C179.301 141.202 179.601 141.002 180.001 140.902C180.001 140.902 180.301 141.002 180.201 140.502C180.201 140.302 180.201 140.302 180.401 140.402C180.901 140.902 181.001 140.402 181.301 140.402C181.601 140.402 181.901 140.002 182.301 140.402C182.501 140.602 182.701 140.602 182.701 140.002C182.701 139.702 182.901 140.002 183.001 139.802C183.001 139.802 183.001 139.402 183.201 139.402C183.201 139.402 183.401 139.602 183.501 139.702C183.801 138.902 184.501 139.702 184.901 139.302C185.301 139.002 185.801 138.902 186.301 138.902C186.601 138.902 186.901 138.902 187.401 140.002C187.601 140.502 187.801 141.002 187.701 141.402C187.701 141.702 187.701 141.902 187.601 142.002C187.501 142.102 187.401 142.302 187.301 142.402C187.101 142.702 186.901 143.302 186.601 143.102C186.501 143.102 186.501 143.402 186.201 142.902C186.001 143.802 185.501 143.402 185.101 143.602C184.801 143.802 184.601 144.502 184.201 144.302C184.201 145.002 184.001 144.902 183.701 144.802C182.801 144.402 182.301 145.002 181.601 145.202C180.901 145.302 180.301 145.702 179.601 145.902C179.501 145.902 179.601 146.302 179.301 146.102C179.101 145.902 179.001 146.102 178.801 146.202C178.701 146.202 178.601 146.402 178.401 146.302C177.601 145.902 177.301 146.502 176.701 146.602C176.201 146.702 175.601 146.902 175.201 147.302C174.901 147.502 174.801 148.002 174.401 148.002C174.201 148.002 174.201 148.402 173.901 147.902C173.801 147.802 173.901 148.202 173.801 148.302C173.601 148.402 173.401 148.502 173.201 148.602C172.901 148.702 172.601 148.802 172.301 149.002C172.101 149.102 172.101 149.402 171.901 149.602C171.701 149.702 171.601 149.802 171.301 149.902C171.001 149.902 170.701 149.902 170.401 149.902C170.101 149.902 170.001 150.302 169.601 150.202C168.901 150.002 168.601 150.402 168.201 150.602C167.701 150.802 167.301 150.902 166.901 151.302C166.701 151.502 166.201 151.202 166.001 151.302C165.901 151.302 165.101 150.102 164.901 149.702V149.502C164.901 149.002 164.801 148.202 165.101 148.102C165.501 148.002 165.901 147.702 166.301 147.502L166.101 147.302Z" fill="black"/>
<path d="M168.602 166.202C168.602 165.902 168.502 165.502 168.302 165.202C168.302 165.102 168.502 164.902 167.902 164.902C167.602 164.902 168.202 164.602 168.202 164.502C168.102 164.202 168.102 163.902 167.902 163.602C167.802 163.302 167.502 163.102 167.302 162.802C167.202 162.502 167.302 162.102 167.002 161.902C166.702 161.702 167.102 161.402 167.002 161.202C166.802 161.002 166.702 160.702 166.802 160.402C166.902 160.202 167.102 160.002 166.902 159.802C166.902 159.802 166.502 159.702 166.502 159.602C166.502 159.502 166.702 159.302 166.102 159.302C166.102 159.302 166.102 159.302 166.202 159.202C166.602 159.002 166.502 158.802 166.202 158.802C165.902 158.802 165.902 158.702 165.902 158.602C165.902 158.402 165.702 158.102 165.702 157.902C165.702 157.702 165.902 157.502 165.902 157.302C165.902 157.102 165.602 157.002 165.902 156.702C166.202 156.402 166.102 156.302 166.002 156.102C166.002 156.102 166.202 155.802 165.602 155.902C166.302 155.402 165.202 155.402 165.302 155.102C165.402 154.802 165.302 154.502 165.102 154.202C165.102 154.202 165.202 154.002 164.802 154.002C164.602 154.002 164.602 154.002 164.702 153.902C165.202 153.502 164.802 153.402 164.902 153.102C164.902 152.802 164.602 152.602 164.902 152.202C165.102 152.002 165.102 151.902 164.502 151.902C164.202 151.902 164.502 151.702 164.402 151.602C164.402 151.602 164.002 151.602 164.002 151.502C164.002 151.502 164.202 151.302 164.302 151.202C163.602 151.002 164.302 150.402 164.002 150.102C163.702 149.802 163.702 149.402 163.602 149.002C163.602 148.802 163.602 148.502 164.702 148.002C165.202 147.802 165.702 147.602 166.002 147.602C166.202 147.602 166.502 147.602 166.602 147.602C166.702 147.602 166.902 147.802 167.002 147.902C167.302 148.102 167.902 148.202 167.702 148.502C167.702 148.602 168.002 148.602 167.502 148.802C168.402 148.902 168.002 149.402 168.102 149.802C168.202 150.102 168.902 150.202 168.702 150.602C169.402 150.602 169.302 150.802 169.202 151.002C168.702 151.802 169.302 152.202 169.402 152.902C169.402 153.502 169.702 154.102 169.802 154.702C169.802 154.802 170.202 154.802 170.002 155.002C169.802 155.202 170.002 155.302 170.002 155.402C170.002 155.502 170.202 155.602 170.002 155.802C169.502 156.402 170.002 156.802 170.002 157.302C170.002 157.802 170.002 158.302 170.402 158.702C170.602 159.002 171.002 159.202 170.902 159.502C170.902 159.602 171.202 159.702 170.702 159.902C170.502 159.902 171.002 159.902 171.102 160.102C171.102 160.302 171.202 160.502 171.302 160.702C171.302 161.002 171.302 161.302 171.502 161.502C171.502 161.702 171.902 161.802 172.002 161.902C172.102 162.102 172.102 162.202 172.102 162.402C172.102 162.602 171.902 162.902 171.902 163.102C171.902 163.302 172.202 163.502 172.002 163.802C171.602 164.302 172.002 164.702 172.002 165.102C172.002 165.502 172.102 165.902 172.302 166.302C172.402 166.502 172.002 166.802 172.102 167.102C172.102 167.102 170.702 167.702 170.202 167.802H170.002C169.502 167.802 168.702 167.802 168.702 167.402C168.702 167.002 168.502 166.702 168.402 166.302L168.602 166.202Z" fill="black"/>
<path d="M162.2 186.203C162.3 185.803 162.5 185.403 162.5 185.003C162.5 184.803 162.8 184.803 162.4 184.503C162.2 184.303 162.8 184.403 162.8 184.203C162.8 183.803 163.1 183.503 163.1 183.103C163.1 182.703 163.1 182.303 163.1 181.903C163.1 181.503 163.6 181.303 163.4 180.803C163.2 180.403 163.8 180.303 163.8 180.003C163.8 179.703 163.8 179.303 164.1 179.103C164.3 178.903 164.6 178.803 164.6 178.603C164.6 178.403 164.3 178.203 164.4 178.103C164.4 178.003 164.8 177.903 164.2 177.603C164.2 177.603 164.2 177.603 164.4 177.603C164.8 177.603 164.9 177.403 164.6 177.203C164.4 177.003 164.5 176.903 164.5 176.803C164.5 176.503 164.6 176.203 164.8 175.903C164.9 175.703 165.2 175.603 165.4 175.403C165.5 175.203 165.4 174.903 165.7 174.703C166.1 174.603 166.1 174.403 166.2 174.203C166.2 174.103 166.6 174.003 166 173.703C166.9 173.703 166 173.003 166.3 172.703C166.6 172.403 166.6 172.003 166.7 171.703C166.7 171.703 166.9 171.603 166.5 171.303C166.4 171.303 166.4 171.103 166.5 171.103C167.2 171.103 166.9 170.603 167.1 170.403C167.3 170.103 167.1 169.703 167.7 169.603C167.9 169.603 168.1 169.403 167.6 169.103C167.4 168.903 167.6 168.903 167.6 168.803C167.6 168.703 167.3 168.503 167.4 168.403C167.4 168.403 167.7 168.403 167.8 168.303C167.3 167.703 168.3 167.503 168.2 167.003C168.2 166.703 168.2 166.603 168.2 166.303C168.2 166.003 168.4 165.703 168.6 165.303C168.8 164.903 169.3 164.503 170.4 165.103C170.9 165.303 171.3 165.703 171.5 166.003C171.6 166.203 171.8 166.403 171.8 166.503C171.8 166.603 171.9 166.803 172 166.903C172.1 167.103 172.6 167.403 172.2 167.703C172.1 167.703 172.3 168.003 171.8 167.903C172.5 168.503 171.8 168.903 171.8 169.303C171.8 169.703 172.2 170.203 171.8 170.503C172.3 170.903 172.2 171.103 171.9 171.203C171 171.703 171.2 172.503 170.9 173.203C170.6 173.903 170.4 174.603 170.1 175.303C170.1 175.403 170.4 175.603 170.1 175.703C169.8 175.703 169.9 176.003 169.9 176.103C169.9 176.203 169.9 176.403 169.7 176.503C168.9 176.803 169.1 177.503 168.8 178.003C168.5 178.503 168.3 179.003 168.3 179.603C168.3 180.003 168.5 180.403 168.3 180.703C168.2 180.803 168.5 181.103 167.9 181.003C167.7 181.003 168.1 181.303 168.1 181.403C168.1 181.603 168 181.903 167.9 182.103C167.8 182.403 167.6 182.703 167.6 183.103C167.6 183.303 167.7 183.603 167.7 183.803C167.7 184.003 167.7 184.203 167.5 184.403C167.3 184.603 167.1 184.803 166.9 185.103C166.8 185.303 166.9 185.703 166.6 185.903C166 186.203 166.1 186.803 165.9 187.203C165.7 187.603 165.5 188.103 165.5 188.603C165.5 188.903 165 189.003 164.9 189.203C164.9 189.303 163.4 189.203 162.9 189.003H162.7C162.3 188.603 161.7 188.203 161.8 187.903C162 187.403 162.1 187.003 162.2 186.503V186.203Z" fill="black"/>
<path d="M140 130.202C140.2 130.202 140.3 130.202 140.5 130.202C140.5 130.202 140.7 130.402 140.7 129.902C140.7 129.602 140.8 130.302 140.9 130.202C141 130.202 141.2 130.202 141.4 130.102C141.5 130.102 141.7 129.802 141.8 129.702C141.9 129.702 142.1 129.902 142.2 129.502C142.2 129.202 142.5 129.702 142.6 129.502C142.7 129.402 142.8 129.202 143 129.502C143.1 129.602 143.3 129.802 143.3 129.702V129.302C143.3 129.302 143.5 129.602 143.3 128.902C143.3 128.902 143.3 128.902 143.3 129.002C143.5 129.402 143.5 129.302 143.5 129.002C143.5 128.702 143.5 128.702 143.5 128.702C143.6 128.702 143.7 128.602 143.9 128.702C144 128.702 144.2 128.902 144.3 128.902C144.4 128.902 144.4 128.602 144.6 128.902C144.8 129.202 144.9 129.102 144.9 129.102C144.9 129.102 145.1 129.302 144.9 128.702C145.3 129.402 145.1 128.402 145.3 128.502C145.5 128.602 145.6 128.502 145.8 128.402C145.8 128.402 145.9 128.502 145.8 128.102C145.8 127.902 145.8 127.902 145.8 128.102C146.1 128.602 146.1 128.202 146.3 128.302C146.5 128.302 146.5 128.002 146.8 128.402C146.9 128.602 147.1 128.602 146.8 128.102C146.8 127.802 146.8 128.102 146.9 128.002C146.9 128.002 146.9 127.702 146.9 127.602C146.9 127.602 147.1 127.802 147.1 127.902C147 127.202 147.5 127.902 147.7 127.702C147.7 127.502 148 127.402 148.2 127.402C148.3 127.402 148.5 127.502 149.1 128.502C149.4 128.902 149.6 129.402 149.8 129.702C149.8 129.902 149.9 130.102 149.9 130.202C149.9 130.302 149.9 130.502 149.9 130.602C149.9 130.802 149.9 131.402 149.7 131.202C149.7 131.202 149.7 131.402 149.4 131.002C149.6 131.802 149.1 131.402 149 131.602C148.9 131.702 149 132.402 148.7 132.202C148.9 132.802 148.7 132.802 148.5 132.602C147.9 132.102 147.7 132.602 147.4 132.702C147 132.702 146.7 133.002 146.3 133.002C146.3 133.002 146.3 133.402 146.1 133.102C146 132.902 145.9 133.102 145.9 133.102C145.9 133.102 145.8 133.302 145.7 133.102C145.2 132.502 145.1 133.102 144.8 133.102C144.5 133.102 144.2 133.102 144 133.302C143.9 133.402 143.8 133.802 143.6 133.702C143.6 133.702 143.6 134.002 143.3 133.402C143.3 133.202 143.3 133.702 143.3 133.702C143.2 133.702 143.1 133.702 142.9 133.702C142.7 133.702 142.6 133.702 142.4 133.802C142.4 133.802 142.2 134.102 142.2 134.202C142.2 134.202 142 134.202 141.9 134.202C141.8 134.202 141.6 134.002 141.4 133.902C141.3 133.902 141.1 134.102 141 133.902C140.7 133.402 140.5 133.702 140.2 133.702C140 133.702 139.7 133.702 139.5 133.702C139.4 133.702 139.2 133.302 139.1 133.302C139.1 133.302 138.9 131.802 138.9 131.302V131.102C139 130.602 139.1 129.902 139.2 129.902C139.4 129.902 139.6 129.902 139.8 129.902L140 130.202Z" fill="black"/>
<path d="M156.902 129.302C157.002 129.302 157.102 129.302 157.202 129.302C157.202 129.302 157.302 129.502 157.202 129.002C157.202 128.702 157.302 129.302 157.402 129.302C157.402 129.302 157.602 129.302 157.702 129.202C157.702 129.202 157.802 128.902 157.902 128.802C157.902 128.802 158.202 129.002 158.202 128.602C158.202 128.302 158.402 128.802 158.502 128.602C158.502 128.502 158.602 128.402 158.802 128.602C158.902 128.802 159.002 128.902 159.102 128.802V128.402C159.102 128.402 159.302 128.702 159.102 128.002C159.102 128.002 159.102 128.002 159.102 128.102C159.202 128.502 159.302 128.402 159.202 128.102C159.202 127.802 159.202 127.902 159.202 127.802C159.202 127.802 159.302 127.702 159.402 127.802C159.402 127.802 159.602 128.002 159.702 128.102C159.702 128.102 159.702 127.802 159.902 128.102C160.102 128.402 160.102 128.302 160.202 128.302C160.202 128.302 160.402 128.602 160.202 127.902C160.502 128.702 160.302 127.602 160.502 127.802C160.702 128.002 160.702 127.802 160.802 127.802C160.802 127.802 160.902 127.902 160.802 127.502C160.802 127.302 160.802 127.302 160.802 127.502C161.102 128.102 161.002 127.702 161.102 127.802C161.202 127.802 161.202 127.602 161.502 128.002C161.602 128.202 161.702 128.302 161.502 127.702V127.402C161.502 127.402 161.602 127.602 161.702 127.702C161.602 127.002 162.002 127.802 162.102 127.602C162.102 127.402 162.302 127.402 162.502 127.402C162.502 127.402 162.702 127.602 163.202 128.602C163.402 129.102 163.602 129.602 163.702 129.902C163.702 130.102 163.802 130.402 163.802 130.402C163.802 130.502 163.802 130.602 163.802 130.802C163.802 131.002 163.802 131.502 163.702 131.302C163.702 131.302 163.702 131.502 163.502 131.102C163.702 131.902 163.302 131.502 163.202 131.602C163.202 131.602 163.202 132.302 163.002 132.102C163.202 132.702 163.002 132.602 163.002 132.502C162.602 132.002 162.502 132.502 162.202 132.502C161.902 132.502 161.702 132.702 161.502 132.702C161.502 132.702 161.502 133.102 161.502 132.802C161.402 132.602 161.402 132.802 161.302 132.802C161.302 132.802 161.302 133.002 161.202 132.802C160.802 132.202 160.802 132.702 160.602 132.602C160.402 132.602 160.202 132.602 160.102 132.802C160.102 132.902 160.002 133.302 159.902 133.202C159.902 133.202 159.902 133.502 159.702 132.902C159.702 132.702 159.702 133.202 159.702 133.202C159.702 133.202 159.602 133.202 159.502 133.202C159.402 133.202 159.302 133.202 159.202 133.202C159.202 133.202 159.202 133.502 159.102 133.602C159.102 133.602 159.002 133.602 158.902 133.602C158.802 133.602 158.702 133.402 158.602 133.302C158.502 133.302 158.502 133.502 158.302 133.302C158.002 132.802 157.902 133.102 157.802 133.102C157.602 133.102 157.502 133.102 157.302 133.202C157.302 133.202 157.102 132.802 157.002 132.802C157.002 132.802 156.702 131.402 156.602 130.902V130.702C156.602 130.202 156.602 129.502 156.602 129.502C156.702 129.502 156.902 129.502 157.002 129.502L156.902 129.302Z" fill="black"/>
<path d="M159.501 160.6C159.501 160.6 159.701 160.6 159.801 160.5C159.801 160.5 160.001 160.5 159.801 160.3C159.801 160.2 160.001 160.4 160.001 160.3C160.001 160.3 160.201 160.2 160.201 160.1C160.201 160.1 160.101 160 160.001 159.9C160.001 159.9 160.301 159.7 160.001 159.8C159.701 159.9 160.301 159.6 160.101 159.6C159.901 159.6 159.801 159.7 160.101 159.5C160.201 159.3 160.301 159.1 160.201 159.2L159.901 159.6C159.901 159.6 159.901 159.3 159.701 160C159.701 160 159.701 160 159.701 159.8C159.901 159.4 159.701 159.4 159.701 159.7C159.701 160 159.701 159.9 159.701 160C159.501 160 159.301 159.8 159.101 159.7C158.901 159.7 158.701 160 158.501 159.7C158.301 159.4 158.101 159.5 157.901 159.5C157.801 159.5 157.601 159.3 157.701 159.9C157.201 159.2 157.201 160.3 156.801 160.2C156.401 160.1 156.201 160.3 155.901 160.4C155.901 160.4 155.701 160.3 155.701 160.7C155.701 160.9 155.701 160.9 155.601 160.8C155.201 160.3 155.101 160.8 154.801 160.7C154.501 160.7 154.401 161 153.901 160.7C153.701 160.5 153.501 160.5 153.601 161.1C153.601 161.4 153.401 161.1 153.401 161.3V161.7C153.401 161.7 153.201 161.5 153.101 161.5C153.101 162.3 152.301 161.6 152.101 162C151.801 162.3 151.501 162.5 151.101 162.6C150.901 162.6 150.601 162.6 149.801 161.8C149.401 161.4 149.101 161 149.001 160.6C149.001 160.4 148.901 160.1 149.001 160C149.001 159.8 149.101 159.6 149.201 159.5C149.301 159.2 149.301 158.6 149.801 158.6C149.901 158.6 149.801 158.3 150.201 158.7C150.201 157.8 150.801 158.1 151.201 157.8C151.501 157.6 151.601 156.9 152.001 157C152.001 156.3 152.201 156.3 152.501 156.4C153.401 156.8 153.901 156.1 154.701 156C155.401 155.9 156.101 155.6 156.801 155.5C156.901 155.5 157.001 155.1 157.201 155.3C157.401 155.5 157.501 155.3 157.701 155.3C157.801 155.3 158.001 155.1 158.101 155.3C158.401 155.6 158.701 155.6 159.001 155.5C159.101 155.5 159.301 155.5 159.401 155.4C159.501 155.4 159.801 155.4 160.001 155.4C160.901 155.4 161.701 155.4 162.501 155.4C163.001 155.4 163.701 155.4 164.001 155.8C164.101 156 164.601 155.8 164.301 156.4C164.301 156.5 164.701 156.4 164.801 156.5C165.101 156.8 165.201 157.1 165.301 157.4C165.501 157.9 165.401 158.3 165.501 158.7C165.501 159 165.701 159.2 165.701 159.5C165.701 159.8 165.601 160.1 165.301 160.4C165.001 160.8 164.501 161.1 164.001 161.5C163.601 161.8 163.301 162.4 162.601 162.6C161.901 162.7 161.501 162.9 161.001 163.1C160.501 163.3 160.001 163.6 159.601 163.7C159.101 163.8 158.701 163.8 158.401 163.7C158.001 163.7 157.801 163.7 157.401 163.6C157.401 163.6 157.201 163.6 157.201 163.4C157.201 163.4 157.201 163.4 157.201 163.3C157.201 163.3 157.201 163.3 157.101 163.1C156.801 162.6 156.701 162.1 156.701 161.4C156.701 161 157.301 160.7 157.801 160.9C158.201 161.1 158.501 161.8 158.401 161.6H158.601L159.601 160.6C159.601 160.6 159.801 160.6 159.901 160.6H159.501Z" fill="black"/>
<path d="M173.199 103.802C173.399 103.302 173.499 102.902 173.399 102.502C173.399 102.102 172.999 101.702 172.599 101.302C172.299 101.002 171.899 100.502 171.199 100.802C170.899 100.902 170.599 100.202 170.099 100.002C168.699 99.7016 167.199 99.3016 165.699 99.2016C164.199 99.2016 162.699 99.2016 161.199 99.4016C159.699 99.4016 158.099 99.3016 156.599 99.7016C155.299 100.102 154.099 99.7016 152.899 99.9016C151.599 100.102 150.199 100.302 148.899 100.202C147.899 100.202 147 100.002 146.099 100.202C145.5 100.302 144.999 100.702 144.399 100.702C143.799 100.702 143.099 100.502 142.699 101.202C142.699 101.202 142.399 101.202 142.199 101.202C141.499 100.902 140.799 101.002 140.299 101.302C139.799 101.602 139.399 101.702 138.899 101.702C137.599 101.902 136.299 102.102 134.999 102.202C133.999 102.302 132.999 102.202 131.999 102.302C130.999 102.402 129.999 102.902 128.999 102.802C127.999 102.802 127.099 102.902 126.199 103.102C125.699 103.202 124.999 103.102 124.799 103.802C124.799 103.802 124.599 103.902 124.499 103.802C123.699 103.602 122.999 103.802 122.299 104.202C121.599 104.602 120.999 105.002 120.199 105.102C118.699 105.402 117.199 106.102 115.799 106.702C115.399 106.902 114.899 106.902 114.799 107.502C114.799 107.702 114.399 107.902 114.099 107.902C112.799 107.802 111.899 108.702 110.799 109.202C109.499 109.702 108.599 110.602 107.199 111.002C106.599 111.102 105.899 111.502 105.899 112.402C105.899 112.802 105.199 113.002 104.999 113.402C104.799 113.702 104.799 114.102 104.599 114.402C104.399 114.602 104.099 114.702 103.899 114.802C103.899 114.802 103.799 114.902 103.799 115.002C103.799 115.802 103.799 116.002 103.699 116.502C103.699 116.702 103.699 116.902 103.699 117.002C103.699 117.102 103.699 117.202 103.999 117.302C104.299 117.302 104.699 117.402 105.099 117.502L106.499 117.802C107.399 118.002 108.399 118.102 109.399 118.202C110.499 118.302 111.499 118.502 112.399 119.502C112.799 120.002 112.799 120.502 112.399 120.902C112.099 121.202 111.599 121.402 111.199 121.502C110.499 121.602 109.799 121.702 109.199 121.802C107.799 121.902 106.299 122.302 104.899 121.802C104.499 121.602 103.899 121.802 103.599 121.202C103.599 121.202 103.399 121.002 103.299 121.002C102.699 121.002 101.999 120.902 101.399 120.502C100.699 120.102 100.199 119.402 99.8995 118.702C99.2995 117.302 99.3995 115.902 99.6995 114.602C100.299 112.502 101.099 110.702 102.599 109.602C102.899 108.402 103.899 107.802 104.799 107.402C106.399 106.702 107.899 105.902 109.299 105.102L111.499 103.902C112.199 103.502 112.999 103.202 113.699 102.902C116.799 101.702 119.899 100.502 123.099 99.7016C123.599 99.6016 123.999 99.1016 124.699 99.2016C125.399 99.2016 126.099 98.9016 126.799 98.8016C127.399 98.7016 128.099 98.4016 128.699 98.4016C131.299 98.5016 133.799 97.7016 136.299 97.4016C138.799 97.1016 141.299 96.9016 143.799 96.5016C145.299 96.2016 146.799 95.8016 148.399 95.8016C149.099 95.8016 149.699 95.4016 150.399 95.9016C150.599 96.1016 151.199 95.6016 151.599 95.5016C152.599 95.4016 153.699 95.3016 154.699 95.3016C156.199 95.2016 157.599 95.1016 159.099 95.0016C160 95.0016 160.899 94.7016 161.799 94.6016C162.799 94.6016 163.799 94.6016 164.799 94.6016C166.099 94.8016 167.299 95.1016 168.499 95.4016C169.099 95.5016 169.799 95.6016 170.499 95.8016C171.199 95.9016 171.899 96.2016 172.499 96.6016C173.599 97.3016 174.699 98.0016 175.699 99.2016C176.699 100.302 177.399 102.002 177.199 103.602C176.999 105.202 176.199 106.502 175.199 107.402C174.299 108.402 173.099 109.102 172.099 109.702C170.899 110.402 169.699 110.302 168.599 110.702C168.099 110.902 166.799 109.902 166.799 109.402C166.799 109.302 166.799 109.202 166.899 109.102C167.799 108.102 168.599 107.102 169.799 106.602C170.599 106.302 171.399 105.902 171.999 105.402C172.599 104.902 172.999 104.402 173.299 103.802H173.199Z" fill="black"/>
<path d="M168.199 87.3008C167.299 85.2008 166.299 83.1008 165.299 81.1008C164.899 80.3008 164.699 79.4008 163.899 78.9008C163.499 78.6008 163.599 77.6008 163.299 76.9008L162.499 75.5008L161.799 74.2008C161.599 73.9008 161.499 73.6008 161.299 73.4008H161.199C161.199 73.3008 161.199 73.2008 161.199 73.2008C161.099 73.5008 160.999 73.8008 160.899 74.0008V74.3008L160.699 74.5008C160.699 74.5008 160.699 74.6008 160.599 74.7008L160.399 75.0008C159.099 76.9008 157.099 78.5008 155.099 79.9008C153.299 81.1008 151.299 81.1008 149.399 81.3008C147.399 81.6008 145.199 81.3008 143.399 80.6008C142.099 80.0008 140.899 79.3008 139.599 78.8008C138.799 78.5008 137.999 78.3008 137.199 77.8008C136.499 77.3008 135.899 76.5008 134.899 76.6008C134.899 76.6008 134.599 76.3008 134.499 76.1008C134.099 75.2008 133.199 74.5008 132.499 74.2008C131.799 73.9008 131.299 73.4008 130.899 72.9008L130.399 72.4008C130.399 72.4008 130.199 72.1008 130.099 72.4008C130.099 72.4008 130.099 72.6008 129.999 72.7008L129.799 73.2008C129.699 73.5008 129.599 73.9008 129.399 74.2008C129.099 74.9008 128.899 75.6008 128.399 76.1008C127.599 77.2008 126.999 78.4008 126.299 79.5008C125.899 80.2008 125.199 80.7008 125.299 81.6008C125.299 81.6008 125.099 81.9008 124.999 82.0008C123.999 82.6008 123.299 83.5008 122.599 84.4008C121.899 85.3008 121.099 86.2008 120.099 86.8008C117.999 88.0008 115.899 89.2008 113.599 89.9008C112.999 90.1008 112.299 90.1008 111.799 90.7008C111.599 90.9008 110.999 91.0008 110.599 91.0008C108.699 90.7008 106.899 91.1008 105.099 91.0008C104.599 91.0008 104.099 90.9008 103.499 90.8008L101.999 90.6008C101.999 90.6008 101.899 90.6008 101.799 90.5008C101.799 90.5008 101.599 90.3008 101.299 90.1008C101.099 90.0008 100.999 90.5008 101.499 91.0008C101.599 91.1008 101.599 91.2008 101.499 91.3008C101.499 91.3008 101.499 91.3008 101.499 91.5008V91.8008C101.499 92.0008 101.499 92.2008 101.499 92.3008C101.499 92.9008 101.799 93.4008 101.799 94.0008C101.799 94.5008 101.499 94.9008 101.399 95.4008C101.399 95.5008 101.399 95.7008 101.399 95.9008C101.999 98.6008 101.099 101.301 101.399 104.001C101.699 106.701 101.799 109.501 101.899 112.201C101.899 113.701 101.899 115.301 100.899 116.401C100.399 116.901 99.8992 117.001 99.4992 116.401C99.1992 115.901 98.8992 115.401 98.7992 114.901C98.5992 114.001 98.3992 113.201 98.1992 112.301C97.8992 110.501 97.1992 108.801 97.3992 106.901C97.3992 106.301 97.0992 105.701 97.5992 105.201C97.5992 105.201 97.5992 104.901 97.5992 104.801C96.6992 102.401 97.1992 99.8008 97.1992 97.3008C97.1992 96.2008 96.9992 95.2008 96.8992 94.1008C96.8992 93.6008 96.8992 93.0008 96.8992 92.5008C96.8992 92.2008 96.8992 92.0008 96.8992 91.7008V91.3008L96.9992 90.7008C96.7992 89.7008 96.6992 88.6008 96.6992 87.5008C96.6992 86.3008 96.8992 85.2008 96.9992 84.2008C97.1992 84.3008 97.4992 84.4008 97.6992 84.5008C98.7992 84.9008 99.7992 85.4008 100.699 85.7008L102.199 86.2008H102.599C102.599 86.3008 102.699 86.4008 102.699 86.4008H102.799H103.099C103.599 86.6008 103.999 86.7008 104.499 86.7008C104.999 86.7008 105.399 86.8008 105.899 86.7008C107.799 86.7008 109.699 86.4008 111.499 85.9008C115.199 85.0008 118.499 82.8008 120.899 79.8008C121.299 79.3008 121.299 78.6008 121.999 78.1008C122.599 77.6008 122.899 76.7008 123.299 75.9008C123.699 75.2008 123.899 74.4008 124.299 73.7008C124.699 73.2008 124.999 72.7008 125.299 72.1008C125.399 71.8008 125.599 71.5008 125.699 71.3008L125.899 70.8008L126.199 70.0008C126.899 68.0008 127.599 65.9008 128.299 63.8008C129.199 64.8008 130.099 65.7008 130.999 66.8008L132.399 68.4008L133.599 69.7008C134.199 70.3008 134.699 70.9008 135.299 71.4008C136.499 72.5008 137.699 73.5008 138.999 74.3008C140.599 75.3008 142.399 75.8008 143.999 76.4008C144.699 76.7008 145.599 76.5008 146.199 77.2008C146.399 77.4008 147.199 77.0008 147.599 77.0008C148.799 77.0008 149.999 76.9008 150.999 76.6008C152.499 76.2008 153.799 75.4008 154.999 74.2008C155.299 73.8008 155.599 73.4008 155.899 73.0008L156.299 72.3008L156.499 72.0008L156.899 71.4008C158.099 69.4008 159.299 66.9008 160.499 64.8008L160.899 64.2008C161.599 65.4008 162.299 66.8008 162.899 68.0008C163.499 69.2008 164.199 70.4008 164.799 71.6008L165.299 72.5008L165.599 73.0008L166.199 74.1008C166.599 74.8008 166.999 75.5008 167.199 76.3008C168.099 79.1008 169.599 81.6008 170.799 84.3008C171.999 87.0008 172.999 89.6008 174.199 92.3008C174.899 93.8008 174.899 95.4008 175.499 96.9008C175.799 97.6008 174.699 99.0008 174.099 98.9008C173.999 98.9008 173.899 98.8008 173.799 98.7008C172.799 97.4008 171.699 96.3008 171.099 94.7008C170.199 92.3008 169.199 89.9008 168.099 87.5008L168.199 87.3008Z" fill="black"/>
<path d="M131.3 89.2992C131.3 89.2992 131.3 89.0992 131.3 88.9992C131.3 88.9992 131.5 88.9992 131 88.8992C130.7 88.8992 131.4 88.8992 131.3 88.8992C131.3 88.8992 131.3 88.6992 131.3 88.5992C131.3 88.5992 131 88.3992 131 88.2992C131 88.2992 131.2 88.0992 131 88.0992C130.7 88.0992 131.2 87.9992 131.1 87.8992C131 87.8992 130.9 87.7992 131.1 87.6992C131.3 87.6992 131.5 87.5992 131.4 87.4992H131C131 87.4992 131.3 87.4992 130.7 87.4992C130.7 87.4992 130.7 87.4992 130.8 87.4992C131.2 87.4992 131.2 87.4992 130.8 87.3992C130.5 87.3992 130.6 87.3992 130.5 87.3992C130.5 87.3992 130.5 87.2992 130.5 87.1992C130.5 87.1992 130.8 87.0992 130.8 86.9992C130.8 86.9992 130.6 86.9992 130.8 86.7992C131.1 86.7992 131.1 86.6992 131.1 86.5992C131.1 86.5992 131.4 86.5992 130.7 86.5992C131.5 86.3992 130.4 86.4992 130.7 86.3992C130.9 86.2992 130.7 86.1992 130.7 86.0992C130.7 86.0992 130.9 86.0992 130.4 86.0992C130.2 86.0992 130.2 86.0992 130.4 86.0992C131 85.9992 130.6 85.8992 130.7 85.8992C130.8 85.8992 130.5 85.7992 131 85.5992C131.2 85.5992 131.3 85.4992 130.7 85.5992H130.4C130.4 85.5992 130.6 85.5992 130.7 85.4992C130 85.4992 130.9 85.1992 130.7 85.1992C130.5 85.1992 130.6 84.9992 130.7 84.8992C130.7 84.8992 130.9 84.6992 132 84.4992C132.5 84.3992 133 84.2992 133.4 84.1992C133.6 84.1992 133.9 84.1992 133.9 84.1992C134 84.1992 134.1 84.1992 134.2 84.1992C134.4 84.1992 134.9 84.1992 134.7 84.3992C134.7 84.3992 134.9 84.3992 134.4 84.4992C135.2 84.4992 134.7 84.6992 134.8 84.7992C134.8 84.7992 135.5 84.7992 135.3 84.9992C135.9 84.9992 135.8 84.9992 135.7 85.0992C135.1 85.3992 135.5 85.4992 135.5 85.7992C135.5 85.9992 135.5 86.1992 135.5 86.3992C135.5 86.3992 135.9 86.3992 135.5 86.4992C135.2 86.4992 135.5 86.4992 135.5 86.5992C135.5 86.5992 135.6 86.5992 135.5 86.6992C134.9 86.8992 135.3 86.9992 135.2 87.1992C135.2 87.3992 135.1 87.4992 135.2 87.6992C135.3 87.6992 135.7 87.8992 135.5 87.9992C135.5 87.9992 135.8 87.9992 135.2 88.0992C135 88.0992 135.5 88.0992 135.5 88.0992C135.5 88.0992 135.5 88.1992 135.5 88.2992C135.5 88.2992 135.5 88.4992 135.5 88.5992C135.5 88.5992 135.8 88.6992 135.8 88.7992C135.8 88.7992 135.8 88.8992 135.8 88.9992C135.8 88.9992 135.5 89.0992 135.4 89.1992C135.4 89.1992 135.6 89.3992 135.4 89.3992C134.9 89.4992 135.1 89.6992 135.1 89.7992C135.1 89.8992 135 90.0992 135.1 90.1992C135.1 90.1992 134.7 90.2992 134.7 90.3992C134.7 90.3992 134.3 90.3992 133.9 90.3992C133.5 90.3992 133 90.3992 132.7 90.3992H132.5C132 90.2992 131.3 90.1992 131.4 90.0992C131.4 89.9992 131.4 89.8992 131.4 89.7992L131.3 89.2992Z" fill="black"/>
<path d="M127.6 168.302C126.8 168.302 126.1 168.102 125.3 168.002C125 168.002 124.8 167.602 124.4 168.002C124.2 168.202 124.1 167.502 123.8 167.502C123.1 167.402 122.5 167.002 121.8 166.802C121.2 166.602 120.4 166.502 119.8 166.202C119.2 165.902 118.7 165.302 118 165.202C117.4 165.102 117.2 164.402 116.8 164.102C116.3 163.802 115.8 163.502 115.5 162.902C115.3 162.502 115.2 162.002 114.9 161.802C114.7 161.702 114.3 161.702 114.1 161.402C114 161.202 114 160.802 113.3 161.002C113.3 161.002 113.3 160.802 113.3 160.702C113.5 160.202 113.3 160.002 112.9 159.902C112.5 159.902 112.5 159.702 112.3 159.502C112 159.002 111.6 158.502 111.4 157.802C111.2 157.302 111.3 156.702 111.2 156.002C111.2 155.402 110.9 154.602 111.2 154.002C111.6 153.502 111.7 153.002 111.9 152.602C112 152.302 112.4 152.202 111.9 151.702C111.9 151.702 111.9 151.602 111.9 151.502C112.5 151.402 112.6 151.102 112.7 150.702C112.8 150.302 112.9 149.902 113.2 149.702C113.9 149.302 114.4 148.602 115 148.202C115.2 148.102 115.4 148.202 115.4 147.602C115.4 147.402 115.6 147.302 115.7 147.302C116.5 147.602 116.9 147.002 117.5 146.802C118.2 146.702 118.7 146.202 119.5 146.502C119.8 146.602 120.2 146.702 120.4 146.102C120.5 145.802 120.9 146.102 121.1 146.002C121.3 146.002 121.5 145.702 121.7 145.602C121.9 145.602 122 145.802 122.2 145.902C122.2 145.902 122.3 145.902 122.4 145.902C123.4 145.202 124.3 146.202 125.2 146.202C126.2 146.202 127.1 146.602 127.9 147.002C128.4 147.202 128.8 147.602 128.6 148.802C128.6 149.302 128.3 149.802 128 150.002C127.8 150.202 127.5 150.302 127.4 150.302C127.1 150.302 126.9 150.302 126.6 150.302C126.1 150.302 125.5 150.702 125.1 150.302C125 150.202 124.7 150.402 124.7 149.902C123.9 150.502 123.4 149.902 122.8 149.902C122.3 149.902 121.8 150.602 121.3 150.402C121.1 151.102 120.8 151.002 120.5 150.902C119.4 150.502 118.6 151.302 117.8 151.702C117 152.202 116.3 152.902 115.9 153.602C115.9 153.702 116.1 154.002 115.8 154.002C115.5 154.002 115.6 154.302 115.6 154.402C115.6 154.502 115.6 154.702 115.6 154.702C115.3 154.802 115.2 155.102 115.3 155.402C115.3 155.702 115.6 156.002 115.8 156.402C116.2 157.202 116.6 158.002 117.3 158.502C117.7 158.902 118.3 159.002 118.6 159.502C118.7 159.702 119.1 159.602 118.9 160.202C118.9 160.402 119.3 160.202 119.4 160.202C119.7 160.402 119.9 160.702 120.2 160.902C120.6 161.202 121 161.502 121.4 161.702C121.7 161.802 122.1 161.702 122.3 161.802C122.6 161.902 122.9 162.002 123.1 162.202C123.4 162.402 123.7 162.802 124.1 163.002C124.5 163.202 125 163.002 125.3 163.402C125.9 164.102 126.7 164.002 127.4 164.102C127.8 164.102 128.1 164.202 128.5 164.202C128.9 164.202 129.2 164.202 129.4 164.102C129.6 164.102 129.9 164.402 129.9 164.402C129.9 164.402 130.2 164.702 130.6 164.902C131 165.102 131.5 165.302 131.6 165.502L131.7 165.702C131.7 166.502 131.2 167.702 130.4 167.802C129.8 167.902 129.3 167.902 128.8 167.902H127.5L127.6 168.302Z" fill="black"/>
<path d="M131.199 116.901C131.199 117.501 131.199 118.101 131.199 118.601C131.199 118.801 130.999 119.001 131.499 119.301C131.799 119.401 131.099 119.601 131.199 119.801C131.199 120.301 131.199 120.901 131.199 121.401C131.199 121.901 131.499 122.401 131.499 123.001C131.499 123.501 131.299 124.101 131.499 124.601C131.799 125.001 131.299 125.401 131.399 125.801C131.499 126.201 131.599 126.701 131.399 127.101C131.199 127.401 130.999 127.701 131.099 128.001C131.099 128.201 131.499 128.401 131.399 128.601C131.399 128.801 131.099 129.001 131.699 129.201C131.699 129.201 131.699 129.301 131.499 129.301C131.099 129.501 131.099 129.801 131.399 129.901C131.699 130.101 131.599 130.201 131.599 130.401C131.599 130.801 131.599 131.301 131.599 131.701C131.599 132.001 131.299 132.301 131.199 132.701C131.199 133.001 131.399 133.401 131.099 133.701C130.799 134.001 130.799 134.301 130.799 134.601C130.799 134.801 130.499 135.001 131.099 135.201C131.099 135.201 131.099 135.201 131.099 135.301C130.199 135.801 131.299 136.301 131.099 136.801C130.899 137.301 130.999 137.901 130.899 138.401C130.899 138.501 130.699 138.701 131.099 138.901C131.299 138.901 131.299 139.101 131.099 139.201C130.399 139.501 130.799 140.001 130.599 140.401C130.399 140.901 130.599 141.301 130.199 141.801C129.999 142.001 129.799 142.201 130.399 142.501C130.699 142.601 130.399 142.801 130.399 143.001C130.399 143.101 130.699 143.301 130.699 143.401C130.699 143.501 130.399 143.601 130.299 143.701C130.299 143.701 130.299 143.701 130.299 143.801C130.899 144.501 129.899 145.101 129.999 145.801C130.099 146.501 129.999 147.201 129.799 147.901C129.799 148.301 129.499 148.601 128.299 148.701C127.799 148.701 127.199 148.701 126.899 148.501C126.699 148.401 126.499 148.201 126.399 148.101C126.399 147.901 126.199 147.601 126.199 147.401C126.099 146.901 125.599 146.501 125.899 146.001C125.999 145.901 125.699 145.701 126.199 145.601C125.499 144.901 126.099 144.401 126.099 143.801C126.099 143.301 125.499 142.701 125.899 142.201C125.299 141.901 125.399 141.501 125.699 141.301C126.499 140.301 126.099 139.301 126.299 138.301C126.499 137.301 126.499 136.201 126.599 135.201C126.599 135.001 126.299 134.901 126.599 134.701C126.899 134.501 126.599 134.301 126.599 134.001C126.599 133.801 126.499 133.601 126.599 133.401C127.299 132.601 126.899 131.801 127.099 131.001C127.099 130.201 127.299 129.401 127.099 128.601C127.099 128.101 126.699 127.601 126.799 127.101C126.799 126.901 126.499 126.701 127.099 126.501C127.299 126.501 126.799 126.201 126.799 126.101C126.799 125.801 126.799 125.401 126.799 125.101C126.799 124.601 126.799 124.201 126.799 123.701C126.799 123.401 126.499 123.101 126.499 122.801C126.499 122.501 126.499 122.201 126.499 121.901C126.499 121.501 126.799 121.101 126.799 120.801C126.799 120.401 126.599 120.001 126.799 119.601C127.299 118.901 126.999 118.201 127.099 117.501C127.099 116.801 127.099 116.101 127.099 115.401C127.099 115.001 127.499 114.601 127.499 114.201C127.499 114.001 128.999 113.701 129.499 113.801H129.699C130.199 114.201 130.899 114.501 130.899 114.901C130.899 115.601 130.899 116.201 130.899 116.901H131.199Z" fill="black"/>
<path d="M172.401 120.9C171.601 121.1 170.801 121.3 170.101 121.6C169.801 121.6 169.501 121.5 169.301 122.1C169.201 122.4 168.801 121.8 168.501 121.9C167.801 122.1 167.001 122.1 166.301 122.3C165.601 122.5 164.901 122.7 164.201 122.8C163.501 122.9 162.801 122.7 162.101 123C161.501 123.3 161.001 122.8 160.401 123C159.801 123.1 159.201 123.2 158.601 123C158.201 122.8 157.801 122.6 157.401 122.7C157.101 122.7 156.901 123.1 156.601 123.1C156.301 123.1 156.001 122.8 155.801 123.4C155.801 123.4 155.701 123.4 155.601 123.3C155.301 122.9 155.001 122.9 154.801 123.2C154.601 123.5 154.401 123.4 154.201 123.4C153.601 123.4 153.001 123.4 152.501 123.4C152.101 123.4 151.601 123.1 151.201 123C150.701 123 150.201 123.2 149.801 122.9C149.401 122.6 149.001 122.6 148.601 122.6C148.401 122.6 148.101 122.3 147.901 122.9H147.801C147.201 122 146.401 123.1 145.701 122.9C145.001 122.6 144.201 122.7 143.501 122.6C143.301 122.6 143.101 122.4 142.901 122.8C142.901 123 142.601 122.9 142.501 122.8C142.101 122.1 141.401 122.4 140.901 122.1C140.301 121.9 139.601 122 139.101 121.3C138.901 121 138.601 120.8 138.101 121.3C137.901 121.5 137.601 121.2 137.401 121.1C137.201 121.1 136.901 121.3 136.701 121.2C136.501 121.2 136.501 120.9 136.301 120.7C136.301 120.7 136.301 120.7 136.101 120.7C134.901 121 134.401 119.7 133.501 119.4C132.501 119.1 131.701 118.5 130.901 117.8C130.501 117.4 130.101 116.9 130.601 115.8C130.801 115.3 131.201 114.9 131.601 114.8C131.901 114.8 132.101 114.6 132.301 114.8C132.601 114.8 132.901 114.9 133.101 115C133.701 115.2 134.401 115 134.701 115.5C134.801 115.7 135.101 115.5 135.001 116V116.1C136.001 115.7 136.401 116.5 137.201 116.8C137.801 117 138.601 116.6 139.101 117.1C139.601 116.6 140.001 116.8 140.301 117.1C141.301 118.1 142.701 117.9 144.001 118.1C145.301 118.4 146.601 118.4 147.901 118.5C148.101 118.5 148.301 118.2 148.601 118.5C148.801 118.8 149.201 118.5 149.501 118.5C149.801 118.5 150.101 118.4 150.301 118.5C151.301 119.2 152.401 118.8 153.501 118.9C154.601 118.9 155.701 119.1 156.701 118.9C157.401 118.9 158.001 118.5 158.701 118.6C159.001 118.6 159.301 118.3 159.501 118.9C159.501 119.1 159.801 118.6 160.001 118.6C160.401 118.6 160.901 118.6 161.301 118.6C161.901 118.6 162.501 118.6 163.101 118.6C163.501 118.6 163.801 118.3 164.201 118.2C164.601 118.2 165.001 118.1 165.301 118.1C165.801 118.1 166.301 118.3 166.801 118.3C167.301 118.3 167.801 117.9 168.301 118.1C169.301 118.4 170.101 118 170.901 117.8C171.701 117.6 172.601 117.4 173.301 116.9C173.701 116.7 174.301 116.9 174.801 116.7C175.001 116.7 176.001 117.8 176.101 118.2C176.101 118.2 176.101 118.4 176.101 118.5C175.901 119.1 175.701 120 175.101 120.2C174.201 120.5 173.401 120.9 172.501 121.2L172.401 120.9Z" fill="black"/>
<path d="M174.001 110.601C173.301 110.601 172.501 110.601 171.801 110.701C171.501 110.701 171.201 110.501 171.001 111.001C170.901 111.301 170.601 110.701 170.301 110.701C169.601 110.801 168.901 110.701 168.201 110.901C167.501 110.901 166.901 111.301 166.201 111.401C165.501 111.401 164.801 111.201 164.201 111.601C163.701 111.901 163.101 111.401 162.601 111.601C162.001 111.801 161.501 111.901 160.901 111.601C160.501 111.401 160.101 111.301 159.701 111.401C159.501 111.401 159.201 111.801 159.001 111.801C158.701 111.801 158.401 111.501 158.301 112.201C158.301 112.201 158.201 112.201 158.101 112.101C157.801 111.701 157.501 111.801 157.301 112.101C157.101 112.401 156.901 112.401 156.701 112.401C156.101 112.401 155.601 112.501 155.001 112.401C154.601 112.401 154.101 112.201 153.701 112.101C153.301 112.101 152.801 112.401 152.401 112.101C152.001 111.801 151.601 111.901 151.201 111.901C151.001 111.901 150.701 111.601 150.601 112.301C150.601 112.301 150.601 112.301 150.501 112.301C149.801 111.501 149.301 112.701 148.601 112.501C147.901 112.301 147.201 112.501 146.601 112.601C146.401 112.601 146.201 112.501 146.101 112.901C146.101 113.101 145.901 113.101 145.801 112.901C145.201 112.301 144.801 112.801 144.201 112.701C143.601 112.701 143.101 113.001 142.401 112.701C142.101 112.501 141.801 112.501 141.601 113.101C141.601 113.401 141.201 113.101 141.001 113.301C140.801 113.301 140.701 113.701 140.601 113.701C140.501 113.701 140.301 113.501 140.101 113.401H140.001C139.301 114.201 138.301 113.401 137.501 113.901C136.701 114.301 135.901 114.401 135.001 114.501C134.501 114.501 134.001 114.501 133.401 113.501C133.101 113.001 132.901 112.501 133.001 112.101C133.001 111.801 133.201 111.601 133.301 111.501C133.501 111.301 133.801 111.101 134.001 110.901C134.501 110.601 134.901 109.901 135.601 110.001C135.801 110.001 135.901 109.701 136.201 110.201H136.301C136.901 109.201 137.801 109.601 138.601 109.401C139.301 109.201 139.801 108.501 140.601 108.601C140.901 107.901 141.401 108.001 141.801 108.101C143.201 108.601 144.501 108.001 145.901 107.901C147.301 107.901 148.601 107.701 150.001 107.601C150.201 107.601 150.401 107.201 150.701 107.501C151.001 107.701 151.301 107.501 151.601 107.501C151.901 107.501 152.101 107.301 152.401 107.501C153.501 108.101 154.501 107.601 155.601 107.601C156.701 107.601 157.701 107.601 158.801 107.401C159.401 107.301 160.101 106.901 160.701 107.001C161.001 107.001 161.301 106.701 161.601 107.301C161.601 107.501 161.901 107.001 162.101 107.001C162.501 107.001 163.001 107.001 163.401 107.001C164.001 107.001 164.601 107.001 165.201 106.901C165.601 106.901 165.901 106.601 166.301 106.501C166.701 106.501 167.101 106.401 167.501 106.501C168.001 106.501 168.501 106.701 169.001 106.801C169.501 106.801 170.001 106.501 170.501 106.801C171.401 107.301 172.301 106.901 173.301 107.001C174.201 107.001 175.101 107.001 176.001 106.801C176.501 106.801 177.001 107.201 177.501 107.101C177.701 107.101 178.101 108.501 178.101 109.001V109.201C177.601 109.701 177.201 110.401 176.701 110.401C175.901 110.401 175.001 110.401 174.201 110.501L174.001 110.601Z" fill="black"/>
</svg>
