<svg width="300" height="300" viewBox="0 0 300 300" fill="none" xmlns="http://www.w3.org/2000/svg">
<path d="M166.099 147.298C166.499 147.098 166.799 146.998 167.199 146.698C167.299 146.698 167.599 146.698 167.499 146.198C167.499 145.898 167.899 146.398 167.999 146.398C168.299 146.198 168.699 146.098 168.999 145.898C169.299 145.698 169.499 145.298 169.799 145.098C170.099 144.898 170.599 145.098 170.799 144.598C170.999 144.198 171.399 144.598 171.599 144.298C171.799 144.098 172.099 143.898 172.499 143.998C172.799 143.998 173.099 144.198 173.199 143.998C173.199 143.898 173.199 143.498 173.399 143.498C173.499 143.498 173.799 143.698 173.699 142.998C173.699 142.998 173.699 142.998 173.899 142.998C174.199 143.298 174.399 143.198 174.399 142.998C174.399 142.698 174.499 142.698 174.599 142.598C174.899 142.498 175.199 142.298 175.499 142.298C175.699 142.298 175.999 142.298 176.299 142.298C176.499 142.298 176.699 141.898 176.999 142.098C177.299 142.298 177.499 142.198 177.699 142.098C177.799 142.098 178.099 142.298 177.899 141.598C178.499 142.298 178.499 141.098 178.899 141.198C179.299 141.198 179.599 140.998 179.999 140.898C179.999 140.898 180.299 140.998 180.199 140.498C180.199 140.298 180.199 140.298 180.399 140.398C180.899 140.898 180.999 140.398 181.299 140.398C181.599 140.398 181.899 139.998 182.299 140.398C182.499 140.598 182.699 140.598 182.699 139.998C182.699 139.698 182.899 139.998 182.999 139.798C182.999 139.798 182.999 139.398 183.199 139.398C183.199 139.398 183.399 139.598 183.499 139.698C183.799 138.898 184.499 139.698 184.899 139.298C185.299 138.998 185.799 138.898 186.299 138.898C186.599 138.898 186.899 138.898 187.399 139.998C187.599 140.498 187.799 140.998 187.699 141.398C187.699 141.698 187.699 141.898 187.599 141.998C187.499 142.098 187.399 142.298 187.299 142.398C187.099 142.698 186.899 143.298 186.599 143.098C186.499 143.098 186.499 143.398 186.199 142.898C185.999 143.798 185.499 143.398 185.099 143.598C184.799 143.798 184.599 144.498 184.199 144.298C184.199 144.998 183.999 144.898 183.699 144.798C182.799 144.398 182.299 144.998 181.599 145.198C180.899 145.298 180.299 145.698 179.599 145.898C179.499 145.898 179.599 146.298 179.299 146.098C179.099 145.898 178.999 146.098 178.799 146.198C178.699 146.198 178.599 146.398 178.399 146.298C177.599 145.898 177.299 146.498 176.699 146.598C176.199 146.698 175.599 146.898 175.199 147.298C174.899 147.498 174.799 147.998 174.399 147.998C174.199 147.998 174.199 148.398 173.899 147.898C173.799 147.798 173.899 148.198 173.799 148.298C173.599 148.398 173.399 148.498 173.199 148.598C172.899 148.698 172.599 148.798 172.299 148.998C172.099 149.098 172.099 149.398 171.899 149.598C171.699 149.698 171.599 149.798 171.299 149.898C170.999 149.898 170.699 149.898 170.399 149.898C170.099 149.898 169.999 150.298 169.599 150.198C168.899 149.998 168.599 150.398 168.199 150.598C167.699 150.798 167.299 150.898 166.899 151.298C166.699 151.498 166.199 151.198 165.999 151.298C165.899 151.298 165.099 150.098 164.899 149.698V149.498C164.899 148.998 164.799 148.198 165.099 148.098C165.499 147.998 165.899 147.698 166.299 147.498L166.099 147.298Z" fill="black"/>
<path d="M168.598 166.198C168.598 165.898 168.498 165.498 168.298 165.198C168.298 165.098 168.498 164.898 167.898 164.898C167.598 164.898 168.198 164.598 168.198 164.498C168.098 164.198 168.098 163.898 167.898 163.598C167.798 163.298 167.498 163.098 167.298 162.798C167.198 162.498 167.298 162.098 166.998 161.898C166.698 161.698 167.098 161.398 166.998 161.198C166.798 160.998 166.698 160.698 166.798 160.398C166.898 160.198 167.098 159.998 166.898 159.798C166.898 159.798 166.498 159.698 166.498 159.598C166.498 159.498 166.698 159.298 166.098 159.298C166.098 159.298 166.098 159.298 166.198 159.198C166.598 158.998 166.498 158.798 166.198 158.798C165.898 158.798 165.898 158.698 165.898 158.598C165.898 158.398 165.698 158.098 165.698 157.898C165.698 157.698 165.898 157.498 165.898 157.298C165.898 157.098 165.598 156.998 165.898 156.698C166.198 156.398 166.098 156.298 165.998 156.098C165.998 156.098 166.198 155.798 165.598 155.898C166.298 155.398 165.198 155.398 165.298 155.098C165.398 154.798 165.298 154.498 165.098 154.198C165.098 154.198 165.198 153.998 164.798 153.998C164.598 153.998 164.598 153.998 164.698 153.898C165.198 153.498 164.798 153.398 164.898 153.098C164.898 152.798 164.598 152.598 164.898 152.198C165.098 151.998 165.098 151.898 164.498 151.898C164.198 151.898 164.498 151.698 164.398 151.598C164.398 151.598 163.998 151.598 163.998 151.498C163.998 151.498 164.198 151.298 164.298 151.198C163.598 150.998 164.298 150.398 163.998 150.098C163.698 149.798 163.698 149.398 163.598 148.998C163.598 148.798 163.598 148.498 164.698 147.998C165.198 147.798 165.698 147.598 165.998 147.598C166.198 147.598 166.498 147.598 166.598 147.598C166.698 147.598 166.898 147.798 166.998 147.898C167.298 148.098 167.898 148.198 167.698 148.498C167.698 148.598 167.998 148.598 167.498 148.798C168.398 148.898 167.998 149.398 168.098 149.798C168.198 150.098 168.898 150.198 168.698 150.598C169.398 150.598 169.298 150.798 169.198 150.998C168.698 151.798 169.298 152.198 169.398 152.898C169.398 153.498 169.698 154.098 169.798 154.698C169.798 154.798 170.198 154.798 169.998 154.998C169.798 155.198 169.998 155.298 169.998 155.398C169.998 155.498 170.198 155.598 169.998 155.798C169.498 156.398 169.998 156.798 169.998 157.298C169.998 157.798 169.998 158.298 170.398 158.698C170.598 158.998 170.998 159.198 170.898 159.498C170.898 159.598 171.198 159.698 170.698 159.898C170.498 159.898 170.998 159.898 171.098 160.098C171.098 160.298 171.198 160.498 171.298 160.698C171.298 160.998 171.298 161.298 171.498 161.498C171.498 161.698 171.898 161.798 171.998 161.898C172.098 162.098 172.098 162.198 172.098 162.398C172.098 162.598 171.898 162.898 171.898 163.098C171.898 163.298 172.198 163.498 171.998 163.798C171.598 164.298 171.998 164.698 171.998 165.098C171.998 165.498 172.098 165.898 172.298 166.298C172.398 166.498 171.998 166.798 172.098 167.098C172.098 167.098 170.698 167.698 170.198 167.798H169.998C169.498 167.798 168.698 167.798 168.698 167.398C168.698 166.998 168.498 166.698 168.398 166.298L168.598 166.198Z" fill="black"/>
<path d="M162.198 186.199C162.298 185.799 162.498 185.399 162.498 184.999C162.498 184.799 162.798 184.799 162.398 184.499C162.198 184.299 162.798 184.399 162.798 184.199C162.798 183.799 163.098 183.499 163.098 183.099C163.098 182.699 163.098 182.299 163.098 181.899C163.098 181.499 163.598 181.299 163.398 180.799C163.198 180.399 163.798 180.299 163.798 179.999C163.798 179.699 163.798 179.299 164.098 179.099C164.298 178.899 164.598 178.799 164.598 178.599C164.598 178.399 164.298 178.199 164.398 178.099C164.398 177.999 164.798 177.899 164.198 177.599C164.198 177.599 164.198 177.599 164.398 177.599C164.798 177.599 164.898 177.399 164.598 177.199C164.398 176.999 164.498 176.899 164.498 176.799C164.498 176.499 164.598 176.199 164.798 175.899C164.898 175.699 165.198 175.599 165.398 175.399C165.498 175.199 165.398 174.899 165.698 174.699C166.098 174.599 166.098 174.399 166.198 174.199C166.198 174.099 166.598 173.999 165.998 173.699C166.898 173.699 165.998 172.999 166.298 172.699C166.598 172.399 166.598 171.999 166.698 171.699C166.698 171.699 166.898 171.599 166.498 171.299C166.398 171.299 166.398 171.099 166.498 171.099C167.198 171.099 166.898 170.599 167.098 170.399C167.298 170.099 167.098 169.699 167.698 169.599C167.898 169.599 168.098 169.399 167.598 169.099C167.398 168.899 167.598 168.899 167.598 168.799C167.598 168.699 167.298 168.499 167.398 168.399C167.398 168.399 167.698 168.399 167.798 168.299C167.298 167.699 168.298 167.499 168.198 166.999C168.198 166.699 168.198 166.599 168.198 166.299C168.198 165.999 168.398 165.699 168.598 165.299C168.798 164.899 169.298 164.499 170.398 165.099C170.898 165.299 171.298 165.699 171.498 165.999C171.598 166.199 171.798 166.399 171.798 166.499C171.798 166.599 171.898 166.799 171.998 166.899C172.098 167.099 172.598 167.399 172.198 167.699C172.098 167.699 172.298 167.999 171.798 167.899C172.498 168.499 171.798 168.899 171.798 169.299C171.798 169.699 172.198 170.199 171.798 170.499C172.298 170.899 172.198 171.099 171.898 171.199C170.998 171.699 171.198 172.499 170.898 173.199C170.598 173.899 170.398 174.599 170.098 175.299C170.098 175.399 170.398 175.599 170.098 175.699C169.798 175.699 169.898 175.999 169.898 176.099C169.898 176.199 169.898 176.399 169.698 176.499C168.898 176.799 169.098 177.499 168.798 177.999C168.498 178.499 168.298 178.999 168.298 179.599C168.298 179.999 168.498 180.399 168.298 180.699C168.198 180.799 168.498 181.099 167.898 180.999C167.698 180.999 168.098 181.299 168.098 181.399C168.098 181.599 167.998 181.899 167.898 182.099C167.798 182.399 167.598 182.699 167.598 183.099C167.598 183.299 167.698 183.599 167.698 183.799C167.698 183.999 167.698 184.199 167.498 184.399C167.298 184.599 167.098 184.799 166.898 185.099C166.798 185.299 166.898 185.699 166.598 185.899C165.998 186.199 166.098 186.799 165.898 187.199C165.698 187.599 165.498 188.099 165.498 188.599C165.498 188.899 164.998 188.999 164.898 189.199C164.898 189.299 163.398 189.199 162.898 188.999H162.698C162.298 188.599 161.698 188.199 161.798 187.899C161.998 187.399 162.098 186.999 162.198 186.499V186.199Z" fill="black"/>
<path d="M162.599 169.697C162.399 169.697 162.099 169.797 161.899 169.897C161.899 169.897 161.699 169.697 161.699 170.297C161.699 170.597 161.499 169.997 161.399 169.997C161.199 170.097 160.899 169.997 160.699 170.197C160.499 170.197 160.299 170.597 159.999 170.597C159.799 170.597 159.499 170.397 159.299 170.697C159.099 170.997 158.899 170.497 158.699 170.697C158.499 170.797 158.299 170.897 158.099 170.697C157.999 170.497 157.799 170.297 157.699 170.397C157.699 170.397 157.499 170.797 157.399 170.697C157.399 170.697 157.199 170.397 157.099 170.997C157.099 170.997 157.099 170.997 157.099 170.797C157.099 170.397 156.899 170.397 156.799 170.697C156.699 170.997 156.599 170.897 156.499 170.897C156.299 170.897 156.099 170.897 155.899 170.897C155.799 170.897 155.699 170.597 155.499 170.497C155.399 170.497 155.099 170.697 155.099 170.297C155.099 169.997 154.899 169.897 154.799 169.897C154.799 169.897 154.799 169.597 154.499 170.197C154.499 169.397 153.999 170.297 153.799 169.997C153.599 169.697 153.399 169.797 153.099 169.697C153.099 169.697 153.099 169.497 152.799 169.897C152.799 169.997 152.599 169.997 152.699 169.897C152.699 169.197 152.499 169.497 152.299 169.397C152.199 169.197 151.799 169.397 151.899 168.797C151.899 168.597 151.899 168.397 151.499 168.797C151.299 168.997 151.399 168.797 151.299 168.797L150.999 168.997C150.999 168.997 150.999 168.697 150.999 168.597C150.399 168.997 150.599 168.097 150.299 167.997C149.899 167.997 149.699 167.697 149.499 167.397C149.499 167.197 149.399 166.997 150.099 166.097C150.399 165.697 150.799 165.297 151.099 165.097C151.299 164.997 151.499 164.797 151.599 164.797C151.699 164.797 151.899 164.797 151.999 164.697C152.199 164.697 152.699 164.297 152.599 164.697C152.599 164.697 152.799 164.597 152.599 164.997C153.199 164.497 153.099 164.997 153.299 164.997C153.499 164.997 153.899 164.597 153.899 164.997C154.299 164.497 154.299 164.597 154.299 164.797C154.299 165.497 154.799 165.297 154.999 165.497C155.299 165.697 155.599 165.697 155.899 165.897C155.899 165.897 156.099 165.597 156.099 165.897C156.099 166.197 156.199 165.897 156.299 165.997H156.499C156.599 166.697 156.999 166.397 157.199 166.497C157.499 166.497 157.699 166.697 157.999 166.497C158.199 166.497 158.299 166.097 158.499 166.197C158.499 166.197 158.599 165.897 158.699 166.497C158.699 166.697 158.699 166.197 158.799 166.197C158.899 166.197 158.999 166.197 159.099 166.197C159.199 166.197 159.399 166.197 159.499 166.197C159.499 166.197 159.699 165.897 159.699 165.797C159.699 165.797 159.899 165.797 159.999 165.797C160.099 165.797 160.299 165.997 160.399 166.097C160.499 166.097 160.599 165.797 160.799 166.097C161.099 166.497 161.299 166.197 161.499 166.197C161.699 166.197 161.999 166.197 162.099 165.997C162.099 165.897 162.499 166.297 162.599 166.297C162.599 166.297 163.299 167.597 163.499 168.097V168.297C163.499 168.797 163.699 169.497 163.499 169.497C163.199 169.497 162.899 169.697 162.699 169.797L162.599 169.697Z" fill="black"/>
<path d="M134.201 161.999C133.301 163.399 132.001 164.199 130.801 164.899C130.301 165.099 129.801 165.099 129.501 165.799C129.301 166.099 128.701 165.699 128.301 165.799C127.101 166.199 125.901 166.299 124.801 166.499C123.701 166.699 122.601 166.999 121.501 167.099C120.401 167.199 119.301 166.899 118.201 167.299C117.301 167.599 116.501 166.999 115.601 167.099C114.701 167.099 113.701 167.099 112.801 166.799C112.201 166.499 111.601 166.199 110.901 166.199C110.501 166.199 109.901 166.399 109.301 166.199C108.901 165.999 108.401 165.599 107.801 165.399C107.601 165.399 107.401 165.299 107.201 165.299C107.201 165.299 107.001 164.999 106.901 164.799C106.701 163.899 106.401 163.399 106.001 163.099C105.601 162.799 105.501 162.499 105.301 162.199C104.901 161.299 104.601 160.299 104.401 159.299C104.301 158.599 104.401 157.799 104.301 156.999C104.301 156.199 103.901 155.399 104.101 154.699C104.401 153.999 104.301 153.299 104.401 152.599C104.401 152.199 104.701 151.799 104.101 151.399V151.199C105.001 150.199 104.101 148.999 104.601 147.799C104.901 147.199 105.101 146.499 105.501 145.799C105.801 145.099 106.301 144.399 106.901 143.899C107.201 143.599 107.701 143.499 107.701 142.899C107.701 142.699 108.101 142.399 108.301 142.499C109.501 142.499 110.301 141.899 111.201 141.699C112.201 141.499 113.101 140.999 114.201 141.199C114.701 141.199 115.201 141.199 115.601 140.599C115.801 140.299 116.301 140.499 116.701 140.299C117.001 140.199 117.201 139.899 117.501 139.799C117.701 139.799 118.001 139.899 118.301 139.999H118.501C119.901 139.099 121.401 139.899 122.801 139.599C124.301 139.299 125.801 139.399 127.201 139.599C128.001 139.599 128.801 139.899 129.301 141.099C129.501 141.599 129.401 142.199 129.101 142.499C128.801 142.699 128.601 142.899 128.301 142.999C127.901 142.999 127.401 143.199 127.001 143.299C126.101 143.499 125.301 143.999 124.401 143.699C124.101 143.699 123.801 143.899 123.601 143.399C123.601 143.399 123.401 143.299 123.401 143.399C122.301 144.199 121.001 143.799 119.801 143.999C118.801 144.199 117.901 144.999 116.901 144.899C116.501 145.599 115.801 145.699 115.201 145.599C114.201 145.599 113.101 145.699 112.201 145.999C111.301 146.299 110.601 146.699 110.101 147.099C109.801 147.299 109.701 147.499 109.501 147.699C109.301 147.899 109.201 148.299 109.101 148.699C108.901 149.499 108.701 150.499 108.601 151.399C108.601 151.699 108.901 151.999 108.601 152.399C108.301 152.699 108.601 153.199 108.601 153.599C108.601 153.999 108.801 154.399 108.601 154.799C108.101 156.399 108.801 157.899 109.201 159.399C109.401 159.999 109.601 160.599 109.801 161.299C110.001 161.899 110.301 162.299 110.501 162.299C110.501 162.299 110.601 162.299 110.701 162.299C111.101 162.299 112.401 162.299 113.301 162.499C113.701 162.599 114.201 162.299 114.501 162.999C114.601 163.199 115.001 162.799 115.301 162.799C116.001 162.799 116.601 162.799 117.301 162.899C118.201 162.899 119.201 162.899 120.101 162.899C120.701 162.899 121.201 162.599 121.801 162.499C122.401 162.499 123.001 162.399 123.601 162.299C124.301 162.299 125.101 162.399 125.901 162.299C126.601 162.299 127.301 161.799 128.001 161.899C129.401 161.999 130.401 161.199 131.101 160.599C131.801 159.899 132.101 159.199 132.001 157.799C132.001 156.999 132.501 156.199 132.701 155.199C132.701 154.999 133.201 154.799 133.701 154.799C134.201 154.799 134.601 154.899 134.901 155.099C134.901 155.099 135.101 155.199 135.101 155.299C135.301 156.099 136.001 156.599 135.901 157.499C135.901 158.099 135.901 158.899 135.701 159.699C135.501 160.599 135.201 161.499 134.701 162.199L134.201 161.999Z" fill="black"/>
<path d="M185.7 132.702C185.7 131.202 185.7 129.702 185.4 128.302C185.4 127.802 185.4 127.202 184.8 126.702C184.5 126.502 185 125.802 184.8 125.302C184.4 124.002 184.1 122.602 183.6 121.402C183.4 120.802 183 120.202 182.7 119.602C182.4 119.102 182 118.402 181.7 118.002L181.5 117.702C181.5 117.602 181.5 117.502 181.3 117.502C181.1 117.502 181.3 117.502 180.7 117.702C179.6 118.202 178.5 118.002 177.4 118.302C176.3 118.702 175.1 119.002 173.9 119.002C173 119.002 172.2 119.002 171.4 119.302C170.9 119.502 170.5 119.902 169.9 120.002C169.4 120.002 168.7 120.002 168.4 120.702C168.4 120.702 168.1 120.702 168 120.702C167.4 120.402 166.7 120.702 166.3 121.002C165.9 121.402 165.5 121.402 165.1 121.502C164 121.802 162.8 122.102 161.7 122.302C160.8 122.502 159.9 122.502 159 122.602C158.1 122.802 157.2 123.302 156.3 123.202C155.4 123.202 154.6 123.402 153.8 123.602C153.3 123.702 152.7 123.602 152.5 124.302C152.5 124.302 152.3 124.402 152.2 124.302C150.7 123.902 149.7 125.302 148.3 125.502C146.9 125.702 145.6 126.302 144.2 126.802C143.8 126.902 143.4 126.802 143.2 127.402C143.2 127.602 142.8 127.702 142.5 127.702C141.3 127.402 140.4 128.202 139.3 128.502C138.1 128.802 137.1 129.602 135.7 129.602C135.1 129.602 134.4 129.802 134.1 130.602C133.9 131.002 133.3 131.002 132.9 131.202C132.6 131.402 132.4 131.802 132 132.002C131.7 132.102 131.3 132.002 131 132.002C131 132.002 130.8 132.002 130.7 132.102C130.4 132.402 130 132.702 129.6 132.902H129.4C129.4 132.902 129.4 132.902 129.4 133.002V133.202C129.4 133.302 129.4 133.402 129.4 133.502C129.8 135.202 130.1 136.902 130.6 138.602C130.8 139.502 131 140.502 130.2 141.602C129.8 142.102 129.3 142.302 128.9 142.002C128.6 141.802 128.2 141.502 128 141.202C127.7 140.702 127.4 140.102 127.1 139.602C126.5 138.502 125.7 137.402 125.7 136.102C125.7 135.702 125.3 135.302 125.7 134.902C125.7 134.902 125.7 134.702 125.7 134.602C125.6 134.402 125.5 134.202 125.4 134.002C125.4 133.802 125.2 133.602 125.2 133.202C125.1 132.502 125.1 131.802 125.3 131.102C125.6 130.402 126.1 129.902 126.6 129.502C126.9 129.302 127.2 129.102 127.5 129.002L127.9 128.802H128.2C129.5 128.002 130.5 126.802 131.9 126.502C132.4 125.602 133.3 125.302 134.1 125.202C137 124.702 139.5 123.302 142.2 122.402C145 121.502 147.7 120.602 150.5 119.802C151 119.702 151.3 119.202 151.9 119.302C152.5 119.402 153.1 119.002 153.7 118.802C154.3 118.602 154.8 118.402 155.4 118.402C157.7 118.402 159.8 117.502 162 117.002C164.2 116.502 166.4 116.102 168.5 115.402C169.8 115.002 171 114.402 172.4 114.202C173 114.202 173.5 113.702 174.2 114.202C174.4 114.302 174.8 113.802 175.2 113.702C176.1 113.402 177 113.302 177.9 113.102L179.5 112.802H180C180.2 112.702 180.5 112.602 180.7 112.602C181.2 112.602 181.7 112.602 182.2 112.702C182.6 112.802 182.9 112.902 183.3 113.102C183.9 113.402 184.5 113.902 185 114.402C185.4 114.802 185.7 115.302 186 115.702C186.5 116.502 186.8 117.302 187.1 118.202C187.5 119.302 187.6 120.402 187.9 121.502C188.2 122.602 188.7 123.702 188.7 124.902C188.7 127.002 189.1 129.002 189.1 131.002C189.1 133.002 189 135.002 188.8 137.102C188.8 138.302 188 139.202 187.8 140.302C187.7 140.802 186.1 141.102 185.7 140.802C185.7 140.802 185.5 140.602 185.5 140.502C185.3 139.402 184.8 138.402 185 137.302C185.3 135.702 185.4 134.002 185.4 132.302L185.7 132.702Z" fill="black"/>
<path d="M169.5 149.299C168.9 149.499 168.3 149.699 167.7 149.899C167.5 149.899 167.2 149.899 167.1 150.399C167.1 150.699 166.6 150.199 166.4 150.299C165.9 150.599 165.3 150.599 164.7 150.899C164.2 151.099 163.7 151.499 163.1 151.699C162.6 151.899 161.9 151.799 161.5 152.299C161.1 152.699 160.6 152.299 160.2 152.599C159.8 152.899 159.3 153.099 158.8 152.999C158.4 152.999 158 152.799 157.7 152.999C157.5 153.099 157.4 153.499 157.2 153.499C157 153.499 156.7 153.299 156.7 153.999C156.7 153.999 156.6 153.999 156.5 153.999C156.2 153.699 155.9 153.799 155.8 153.999C155.7 154.299 155.5 154.299 155.3 154.399C154.8 154.599 154.4 154.699 153.9 154.799C153.5 154.799 153.1 154.799 152.7 154.799C152.3 154.799 152 155.199 151.6 154.999C151.2 154.799 150.9 154.899 150.5 154.999C150.3 154.999 150 154.799 150 155.499C150 155.499 150 155.499 149.9 155.499C149.2 154.799 148.9 155.999 148.3 155.899C147.7 155.899 147.1 156.099 146.5 156.299C146.3 156.299 146.1 156.199 146.1 156.699C146.1 156.899 145.9 156.899 145.8 156.799C145.2 156.299 144.9 156.799 144.4 156.799C143.9 156.799 143.4 157.199 142.8 156.799C142.5 156.599 142.2 156.599 142.1 157.199C142.1 157.499 141.7 157.199 141.6 157.399C141.5 157.399 141.4 157.799 141.2 157.799C141.1 157.799 140.9 157.599 140.7 157.499C140.7 157.499 140.7 157.499 140.6 157.499C140 158.299 139.1 157.499 138.4 157.899C137.7 158.199 136.9 158.299 136.1 158.299C135.7 158.299 135.2 158.299 134.7 157.099C134.5 156.599 134.4 156.099 134.5 155.699C134.5 155.399 134.7 155.199 134.8 155.099C135 154.999 135.2 154.799 135.4 154.699C135.8 154.399 136.2 153.799 136.8 153.999C137 153.999 137.1 153.699 137.3 154.199H137.4C137.9 153.299 138.7 153.699 139.3 153.499C139.9 153.299 140.3 152.599 140.9 152.799C141.1 152.099 141.5 152.099 141.8 152.299C143 152.699 144.1 151.999 145.2 151.899C146.3 151.699 147.4 151.399 148.6 151.199C148.8 151.199 148.9 150.799 149.2 150.999C149.5 151.199 149.7 150.999 149.9 150.899C150.1 150.899 150.3 150.699 150.6 150.799C151.6 151.199 152.4 150.599 153.3 150.399C154.2 150.199 155.1 150.099 155.9 149.699C156.4 149.499 156.8 148.999 157.4 148.999C157.6 148.999 157.8 148.599 158.2 148.999C158.3 149.099 158.4 148.599 158.5 148.599C158.8 148.399 159.2 148.399 159.6 148.299C160.1 148.199 160.6 147.999 161.1 147.799C161.4 147.699 161.6 147.299 161.9 147.199C162.2 146.999 162.5 146.899 162.9 146.899C163.3 146.899 163.8 146.899 164.2 146.899C164.6 146.899 165 146.399 165.5 146.599C166.4 146.799 167.1 146.399 167.8 146.199C168.6 145.999 169.3 145.799 170 145.399C170.4 145.199 170.9 145.499 171.3 145.399C171.5 145.399 172.2 146.599 172.3 147.099V147.299C172.1 147.899 171.9 148.699 171.4 148.799C170.7 148.999 170 149.299 169.3 149.499L169.5 149.299Z" fill="black"/>
<path d="M139.6 140.298C139.6 140.298 139.6 140.098 139.5 140.098C139.5 140.098 139.7 139.898 139.2 140.098C139 140.198 139.5 139.898 139.5 139.898C139.4 139.898 139.5 139.798 139.4 139.698C139.4 139.698 139.1 139.698 139 139.698C139 139.698 139.1 139.498 138.8 139.498C138.5 139.498 138.9 139.298 138.8 139.298C138.7 139.298 138.6 139.298 138.8 139.098C138.9 138.998 139.1 138.898 139 138.898C139 138.898 138.6 138.998 138.6 138.898C138.6 138.898 138.8 138.698 138.3 138.898C138.3 138.898 138.3 138.898 138.4 138.898C138.8 138.698 138.7 138.698 138.4 138.798C138.1 138.798 138.2 138.798 138.1 138.798C138.1 138.798 138 138.798 138.1 138.598C138.1 138.598 138.3 138.398 138.4 138.298C138.4 138.298 138.2 138.298 138.4 138.098C138.7 137.898 138.6 137.898 138.6 137.898C138.6 137.898 138.9 137.698 138.2 137.898C138.9 137.498 137.9 137.898 138.1 137.698C138.3 137.598 138.1 137.498 138.1 137.498C138.1 137.498 138.3 137.498 137.8 137.498C137.6 137.498 137.6 137.498 137.8 137.498C138.4 137.198 138 137.298 138.1 137.198C138.1 137.098 137.9 137.198 138.3 136.898C138.5 136.898 138.6 136.698 138 136.898H137.7C137.7 136.898 137.9 136.898 138 136.798C137.3 136.798 138.2 136.498 138 136.498C137.8 136.498 137.8 136.298 138 136.198C138 136.198 138.2 135.998 139.3 135.698C139.8 135.598 140.3 135.398 140.7 135.398C140.9 135.398 141.2 135.398 141.2 135.398C141.3 135.398 141.4 135.398 141.5 135.398C141.7 135.398 142.2 135.398 142 135.398C142 135.398 142.2 135.398 141.7 135.498C142.5 135.398 142 135.498 142.1 135.598C142.1 135.598 142.8 135.598 142.5 135.598C143.1 135.398 143 135.598 142.8 135.598C142.2 135.898 142.7 135.898 142.6 135.998C142.6 136.098 142.6 136.198 142.6 136.298C142 136.598 142.4 136.598 142.4 136.698C142.4 136.798 142.4 136.898 142.5 136.898C142.6 136.898 142.9 136.898 142.9 136.898C142.9 136.898 143.2 136.898 142.7 137.098C142.6 137.098 143 137.098 143 137.098V137.198H143.3C143.3 137.198 143.1 137.398 143.1 137.498C143.1 137.498 143.3 137.498 143.1 137.598C142.7 137.898 143 137.898 142.9 137.998C142.9 137.998 142.9 138.198 143 138.198L142.7 138.498C142.7 138.498 142.4 138.698 142 138.998C141.6 139.198 141.2 139.498 141 139.598C141 139.598 140.8 139.598 140.8 139.698C140.4 139.898 139.7 140.298 139.7 140.198C139.7 140.098 139.7 139.998 139.6 139.998V140.298Z" fill="black"/>
<path d="M149.001 138.298C149.001 138.298 149.001 138.098 148.901 138.098C148.901 138.098 149.101 137.898 148.601 138.098C148.401 138.198 148.901 137.898 148.901 137.898C148.801 137.898 148.901 137.798 148.801 137.698C148.801 137.698 148.501 137.698 148.401 137.698C148.401 137.698 148.501 137.498 148.201 137.498C147.901 137.498 148.301 137.298 148.201 137.298C148.101 137.298 148.001 137.298 148.201 137.098C148.301 136.998 148.501 136.898 148.401 136.898C148.401 136.898 148.001 136.998 148.001 136.898C148.001 136.898 148.201 136.698 147.701 136.898C147.701 136.898 147.701 136.898 147.801 136.898C148.201 136.698 148.101 136.698 147.801 136.798C147.501 136.798 147.601 136.798 147.501 136.798C147.501 136.798 147.401 136.798 147.501 136.598C147.501 136.598 147.701 136.398 147.801 136.298C147.801 136.298 147.601 136.298 147.801 136.098C148.101 135.898 148.001 135.898 148.001 135.898C148.001 135.898 148.301 135.698 147.601 135.898C148.301 135.498 147.301 135.898 147.501 135.698C147.701 135.598 147.501 135.498 147.501 135.498C147.501 135.498 147.701 135.498 147.201 135.498C147.001 135.498 147.001 135.498 147.201 135.498C147.801 135.198 147.401 135.298 147.501 135.198C147.501 135.098 147.301 135.198 147.701 134.898C147.901 134.898 148.001 134.698 147.401 134.898H147.101C147.101 134.898 147.301 134.898 147.401 134.798C146.701 134.798 147.601 134.498 147.401 134.498C147.201 134.498 147.201 134.298 147.401 134.198C147.401 134.198 147.601 133.998 148.701 133.698C149.201 133.598 149.701 133.398 150.101 133.398C150.301 133.398 150.601 133.398 150.601 133.398C150.701 133.398 150.801 133.398 150.901 133.398C151.101 133.398 151.601 133.398 151.401 133.398C151.401 133.398 151.601 133.398 151.101 133.498C151.901 133.398 151.401 133.498 151.501 133.598C151.501 133.598 152.201 133.598 151.901 133.598C152.501 133.398 152.401 133.598 152.201 133.598C151.601 133.898 152.101 133.898 152.001 133.998C152.001 134.098 152.001 134.198 152.001 134.298C151.401 134.598 151.801 134.598 151.801 134.698C151.801 134.798 151.801 134.898 151.901 134.898C152.001 134.898 152.301 134.898 152.301 134.898C152.301 134.898 152.601 134.898 152.101 135.098C152.001 135.098 152.401 135.098 152.401 135.098V135.198H152.701C152.701 135.198 152.501 135.398 152.501 135.498C152.501 135.498 152.701 135.498 152.501 135.598C152.101 135.898 152.401 135.898 152.301 135.998C152.301 135.998 152.301 136.198 152.401 136.198L152.101 136.498C152.101 136.498 151.801 136.698 151.401 136.998C151.001 137.198 150.601 137.498 150.401 137.598C150.401 137.598 150.201 137.598 150.201 137.698C149.801 137.898 149.101 138.298 149.101 138.198C149.101 138.098 149.101 137.998 149.001 137.998V138.298Z" fill="black"/>
<path d="M158.501 136.298C158.501 136.298 158.501 136.098 158.401 136.098C158.401 136.098 158.601 135.898 158.101 136.098C157.901 136.198 158.401 135.898 158.401 135.898C158.301 135.898 158.401 135.798 158.301 135.698C158.301 135.698 158.001 135.698 157.901 135.698C157.901 135.698 158.001 135.498 157.701 135.498C157.401 135.498 157.801 135.298 157.701 135.298C157.601 135.298 157.501 135.298 157.701 135.098C157.801 134.998 158.001 134.898 157.901 134.898C157.901 134.898 157.501 134.998 157.501 134.898C157.501 134.898 157.701 134.698 157.201 134.898C157.201 134.898 157.201 134.898 157.301 134.898C157.701 134.698 157.601 134.698 157.301 134.798C157.001 134.798 157.101 134.798 157.001 134.798C157.001 134.798 156.901 134.798 157.001 134.598C157.001 134.598 157.201 134.398 157.301 134.298C157.301 134.298 157.101 134.298 157.301 134.098C157.601 133.898 157.501 133.898 157.501 133.898C157.501 133.898 157.801 133.698 157.101 133.898C157.801 133.498 156.801 133.898 157.001 133.698C157.201 133.598 157.001 133.498 157.001 133.498C157.001 133.498 157.201 133.498 156.701 133.498C156.501 133.498 156.501 133.498 156.701 133.498C157.301 133.198 156.901 133.298 157.001 133.198C157.001 133.098 156.801 133.198 157.201 132.898C157.401 132.898 157.501 132.698 156.901 132.898H156.601C156.601 132.898 156.801 132.898 156.901 132.798C156.201 132.798 157.101 132.498 156.901 132.498C156.701 132.498 156.701 132.298 156.901 132.198C156.901 132.198 157.101 131.998 158.201 131.698C158.701 131.598 159.201 131.398 159.601 131.398C159.801 131.398 160.101 131.398 160.101 131.398C160.201 131.398 160.301 131.398 160.401 131.398C160.601 131.398 161.101 131.398 160.901 131.398C160.901 131.398 161.101 131.398 160.601 131.498C161.401 131.398 160.901 131.498 161.001 131.598C161.001 131.598 161.701 131.598 161.401 131.598C162.001 131.398 161.901 131.598 161.701 131.598C161.101 131.898 161.601 131.898 161.501 131.998C161.501 132.098 161.501 132.198 161.501 132.298C160.901 132.598 161.301 132.598 161.301 132.698C161.301 132.798 161.301 132.898 161.401 132.898C161.501 132.898 161.801 132.898 161.801 132.898C161.801 132.898 162.101 132.898 161.601 133.098C161.501 133.098 161.901 133.098 161.901 133.098V133.198H162.201C162.201 133.198 162.001 133.398 162.001 133.498C162.001 133.498 162.201 133.498 162.001 133.598C161.601 133.898 161.901 133.898 161.801 133.998C161.801 133.998 161.801 134.198 161.901 134.198L161.601 134.498C161.601 134.498 161.301 134.698 160.901 134.998C160.501 135.198 160.101 135.498 159.901 135.598C159.901 135.598 159.701 135.598 159.701 135.698C159.301 135.898 158.601 136.298 158.601 136.198C158.601 136.098 158.601 135.998 158.501 135.998V136.298Z" fill="black"/>
<path d="M138.9 170.698C139.5 172.298 140 173.798 140.6 175.398C140.8 175.998 140.8 176.698 141.5 177.098C141.9 177.298 141.5 178.098 141.7 178.598C142.3 179.998 142.6 181.598 143.2 182.998C143.7 184.398 144.4 185.898 144.7 187.498C144.7 187.898 144.8 188.298 144.9 188.798C144.9 188.998 144.9 189.198 144.9 189.398V190.198C144.9 190.898 144.9 191.498 144.7 192.098C144.5 192.698 144.1 193.198 143.7 193.698C143.3 194.098 142.8 194.298 142.2 194.498H141.8C141.8 194.598 141.6 194.698 141.6 194.698C141.4 194.698 141.3 194.698 141.1 194.798C140.5 194.898 139.8 194.998 139.2 195.198C137.9 195.598 136.5 195.898 135.1 195.798C134.1 195.798 133.2 195.498 132.3 195.698C131.7 195.698 131.2 196.098 130.5 196.098C129.9 196.098 129.3 195.798 128.7 196.398C128.7 196.398 128.4 196.398 128.3 196.198C127.7 195.798 126.9 195.698 126.4 195.998C125.9 196.198 125.4 196.198 125 196.098C123.7 196.098 122.5 195.998 121.2 195.798C120.3 195.698 119.3 195.398 118.4 195.198C117.4 194.998 116.3 195.198 115.4 194.798C114.5 194.398 113.6 194.298 112.7 194.198C112.2 194.198 111.6 193.798 111.1 194.398C111.1 194.398 110.9 194.398 110.8 194.398C109.4 193.398 107.9 194.298 106.4 193.798C105.6 193.598 104.8 193.398 103.9 193.098C103.5 192.998 103 192.798 102.6 192.698C102.4 192.698 102.2 192.498 101.9 192.398C101.7 192.398 101.5 192.198 101.1 191.998C100.4 191.598 99.8997 191.098 99.0997 190.898C98.7997 190.898 98.2997 190.198 98.2997 189.798C98.1997 188.698 98.2997 187.798 98.6997 186.798C98.8997 186.298 99.1997 185.898 99.3997 185.398C99.4997 185.098 99.6997 184.898 99.7997 184.598C100.6 183.498 101 182.198 102 181.298C102.5 180.898 102.9 180.298 102.8 179.398C102.8 178.998 103.3 178.598 103.5 178.098C103.7 177.698 103.6 177.298 103.8 176.898C104 176.598 104.3 176.398 104.6 176.198C104.6 176.198 104.7 175.998 104.8 175.898C105.2 173.898 106.9 172.598 107.7 170.798C108.5 168.998 109.6 167.298 110.6 165.598C111.2 164.698 111.9 163.798 113.2 163.698C113.8 163.698 114.3 163.898 114.3 164.498C114.3 164.898 114.3 165.398 114.3 165.698C114.1 166.298 113.9 166.898 113.7 167.498C113.3 168.698 113.1 169.998 112.2 170.998C111.9 171.298 112 171.898 111.3 171.898C111.3 171.898 111.1 171.998 111.1 172.098C110.9 173.998 109.6 175.298 108.8 176.898C108.1 178.198 107.9 179.798 107 180.998C107.1 181.998 106.6 182.798 106 183.498C105 184.598 104.2 185.898 103.5 187.198V187.398C103.4 187.398 103.3 187.398 103.3 187.398C103.3 187.598 103.3 187.598 103.3 187.698C103.3 187.798 103.5 187.898 103.5 187.998C103.5 187.998 103.7 188.098 103.9 188.198C104.2 188.298 104.4 188.398 104.7 188.498C105.3 188.698 105.9 188.898 106.6 188.998C108 189.298 109.5 189.498 110.9 189.698C111.4 189.698 111.9 189.498 112.4 189.798C112.9 190.098 113.7 189.998 114.3 190.098C114.9 190.098 115.5 190.098 116.1 190.298C118.4 191.198 120.8 190.998 123.1 191.298C125.4 191.598 127.8 191.798 130.1 191.698C131.5 191.698 132.8 191.298 134.2 191.298C134.8 191.298 135.3 190.898 136 191.398C136.2 191.498 136.6 190.998 137 190.898C137.9 190.698 138.7 190.498 139.6 190.198C139.7 190.198 139.9 190.098 140 190.098C140 190.098 140.1 190.098 140.2 189.998C140.2 189.898 140.2 189.798 140.2 189.598C140.2 188.898 139.8 188.198 139.6 187.498C139.4 186.798 139.2 185.998 139 185.198C138.8 184.198 138.6 182.998 138.4 181.998C138.1 180.898 137.5 179.898 137.4 178.698C137.2 176.598 136.3 174.798 135.7 172.898C135.1 170.998 134.4 169.098 133.5 167.298C133 166.298 133.1 165.098 132.6 164.098C132.4 163.598 133.5 162.398 134 162.398C134.1 162.398 134.2 162.398 134.3 162.498C135.2 163.298 136.2 163.998 136.7 165.198C137.3 166.998 138.1 168.698 138.7 170.498L138.9 170.698Z" fill="black"/>
<path d="M170.801 182.801C171.701 182.501 172.501 182.301 173.401 181.901C173.701 181.801 174.101 181.901 174.301 181.301C174.301 181.001 174.901 181.501 175.201 181.301C176.001 180.901 176.801 180.701 177.501 180.301C178.201 179.901 178.901 179.401 179.601 178.901C180.301 178.501 181.201 178.301 181.701 177.701C182.101 177.101 182.901 177.301 183.401 176.801C183.901 176.301 184.401 175.901 185.101 175.701C185.601 175.601 186.101 175.501 186.301 175.101C186.501 174.901 186.401 174.501 186.601 174.301C186.801 174.101 187.201 174.101 186.801 173.601C186.801 173.601 186.901 173.601 187.001 173.601C187.501 173.601 187.601 173.401 187.401 173.101C187.201 172.801 187.401 172.701 187.401 172.601C187.401 172.201 187.501 171.801 187.601 171.301C187.601 171.001 187.801 170.601 187.801 170.201C187.801 169.801 187.401 169.401 187.501 168.901C187.601 168.401 187.501 168.001 187.201 167.701C187.101 167.501 187.201 167.101 186.501 167.201C186.501 167.201 186.401 167.201 186.501 167.101C186.801 166.001 185.401 166.101 185.101 165.401C184.701 164.601 184.101 164.101 183.501 163.501C183.301 163.301 183.301 163.001 182.801 163.201C182.601 163.201 182.501 163.101 182.501 162.901C182.501 162.001 181.801 161.701 181.401 161.201C181.001 160.601 180.301 160.201 180.101 159.301C180.101 158.901 179.801 158.501 179.101 158.601C178.801 158.601 178.701 158.201 178.501 158.001C178.301 157.901 178.001 157.901 177.801 157.701C177.701 157.601 177.801 157.301 177.701 157.001C177.701 157.001 177.701 156.901 177.601 156.901C176.401 156.501 176.301 155.101 175.401 154.401C174.501 153.701 173.801 152.801 173.201 151.901C172.801 151.401 172.501 150.801 173.201 149.701C173.501 149.201 173.901 148.801 174.301 148.801C174.601 148.801 174.901 148.801 175.101 148.901C175.401 149.101 175.701 149.301 176.001 149.501C176.601 149.901 177.501 150.101 177.801 150.801C177.801 151.001 178.301 151.001 178.001 151.501V151.701C179.201 151.901 179.501 153.001 180.201 153.701C180.801 154.301 181.801 154.501 182.201 155.301C183.001 155.301 183.301 155.701 183.401 156.201C184.001 157.901 185.501 158.901 186.501 160.201C187.601 161.501 188.901 162.801 189.901 164.401C190.101 164.701 190.501 164.701 190.501 165.201C190.501 165.601 190.901 166.001 191.101 166.401C191.301 166.801 191.601 167.101 191.601 167.601C191.601 168.501 191.601 169.301 191.801 170.101C191.901 170.901 192.001 171.801 191.801 172.601C191.501 174.301 190.501 175.901 189.601 177.101C189.001 177.901 188.501 178.801 187.701 179.201C187.401 179.401 187.201 179.901 186.601 179.601C186.401 179.601 186.401 180.101 186.201 180.201C185.701 180.501 185.201 180.801 184.701 181.101C184.001 181.501 183.301 181.901 182.601 182.301C182.201 182.601 181.901 183.001 181.401 183.301C181.001 183.601 180.501 183.801 180.001 184.001C179.401 184.201 178.701 184.301 178.101 184.501C177.401 184.701 176.901 185.201 176.201 185.201C174.901 185.201 173.901 185.801 172.701 186.101C171.501 186.401 170.401 186.701 169.301 187.101C168.701 187.301 167.901 187.001 167.301 187.101C167.001 187.101 166.301 185.801 166.301 185.301C166.301 185.301 166.301 185.101 166.301 185.001C166.801 184.401 167.201 183.601 167.901 183.501C168.901 183.301 169.901 183.001 170.901 182.701L170.801 182.801Z" fill="black"/>
<path d="M162.499 112.9C161.899 111.7 161.199 110.5 160.199 109.4C159.899 109 159.699 108.4 158.999 108.4C158.599 108.4 158.699 107.6 158.399 107.3C157.399 106.5 156.599 105.8 155.699 105.7C154.899 105.7 153.899 106.1 152.799 106.6C151.799 107.1 150.499 107.4 149.799 108.4C149.199 109.2 148.199 109.4 147.599 110.2C146.999 111 146.499 111.9 145.799 112.6C145.699 112.7 145.599 112.9 145.399 113L145.199 113.2V113.4C145.199 113.4 145.199 113.6 145.099 113.6C144.799 114.3 144.499 114.8 144.299 115.6C144.099 116.5 143.999 117.7 143.699 118.8C143.299 118.6 142.899 118.1 142.499 117.9C142.099 117.6 141.699 117.5 141.399 117.6C141.399 117.6 140.999 117.2 140.799 117C140.399 116.5 139.899 116.1 139.499 115.7C139.099 115.4 138.499 115.1 138.299 115.1C137.799 115.1 137.499 114.8 137.099 114.6C136.099 114 135.099 113.3 134.299 112.7C133.699 112.3 133.199 111.8 132.699 111.6C132.099 111.4 131.599 111.6 130.899 111.6C130.199 111.4 129.599 111.6 128.999 111.9C128.599 112.1 128.099 112 128.099 112.8C128.099 112.8 127.999 112.9 127.899 112.9C126.399 112.9 125.999 114.5 124.899 115.1C123.699 115.7 122.799 116.7 121.899 117.7C121.699 118 121.299 118.1 121.399 118.6C121.399 118.8 121.199 119.1 120.999 119.1C119.899 119.4 119.499 120.4 118.899 121.2C118.099 122.1 117.799 123.1 116.899 123.9C116.499 124.2 116.099 124.8 116.499 125.5C116.699 125.8 116.199 126.2 116.099 126.6C116.099 126.9 116.199 127.3 116.099 127.6C116.099 127.9 115.699 128.1 115.499 128.3C115.499 128.3 115.499 128.5 115.499 128.6C115.799 130.4 114.599 131.9 114.499 133.7C114.299 135.5 113.899 137.4 113.199 139.3C112.799 140.3 112.199 141.4 110.799 141.5C110.199 141.5 109.699 141.3 109.599 140.8C109.599 140.4 109.499 140 109.599 139.7C109.699 139.2 109.799 138.6 109.799 138.1C109.899 137 109.699 135.8 110.199 134.7C110.399 134.4 110.199 133.9 110.699 133.7L110.799 133.5C110.299 131.8 111.099 130.2 111.399 128.6C111.699 127.2 111.399 125.6 112.199 124.2C111.899 123.2 112.399 122.3 112.999 121.6C114.999 119.2 116.399 116.6 118.499 114.6C120.699 112.5 122.899 110.7 125.399 109.1C125.799 108.8 126.099 108.3 126.799 108.2C127.399 108.2 128.099 107.7 128.799 107.4C129.399 107.2 130.099 106.9 130.899 106.9C132.299 107 133.799 107.3 135.099 107.8C136.399 108.3 137.399 108.9 138.299 109.6C139.199 110.2 140.099 110.9 140.999 111.5C141.399 111.7 141.599 111.9 141.899 112C141.899 111.7 141.899 111.5 141.899 111.3V111.1V110.9C142.099 110.7 142.199 110.6 142.299 110.4C142.699 109.9 142.799 109.1 143.599 108.9C143.799 108.9 143.799 108.1 144.099 107.8C144.699 107 145.499 106.2 146.199 105.6C147.299 104.7 148.499 103.9 149.699 103.1C150.499 102.6 151.199 102.1 151.999 101.7C152.899 101.3 153.899 101 154.999 101C155.699 101 156.499 101.1 157.299 101.4C157.999 101.7 158.699 102 159.199 102.4C160.399 103.2 161.499 103.8 162.099 104.8C163.199 106.6 164.599 108.1 165.599 109.9C166.599 111.7 167.299 113.6 167.899 115.5C168.199 116.6 167.899 117.6 168.099 118.7L168.299 120.6L166.499 120.3H166.399C165.899 120.3 165.499 118.7 165.799 118.2C165.799 118.2 165.899 118 165.999 118C166.299 118 166.599 117.8 166.899 117.7L165.499 119.1C164.999 118.5 164.599 117.9 164.499 117.2C164.199 115.7 163.599 114.2 162.899 112.8L162.499 112.9Z" fill="black"/>
</svg>
