<svg width="300" height="300" viewBox="0 0 300 300" fill="none" xmlns="http://www.w3.org/2000/svg">
<path d="M178.701 135.201C177.401 133.801 176.101 132.301 174.701 131.001C174.201 130.501 173.901 129.801 173.001 129.601C172.501 129.601 172.501 128.601 172.101 128.101C170.801 126.801 169.601 125.401 168.401 124.201C167.201 123.001 165.801 121.801 164.501 120.601C163.301 119.401 162.301 117.801 161.001 117.101C159.901 116.501 159.301 115.601 158.201 115.301C157.101 115.001 155.801 114.901 154.401 114.501C153.401 114.301 152.401 114.001 151.401 114.101C150.801 114.101 150.201 114.501 149.501 114.401C148.901 114.401 148.101 114.101 147.601 114.801C147.601 114.801 147.301 114.801 147.101 114.701C146.401 114.301 145.501 114.401 145.001 114.701C144.401 115.001 143.901 115.001 143.401 115.101C142.001 115.201 140.501 115.401 139.101 115.501C138.001 115.501 136.901 115.501 135.801 115.601C134.701 115.701 133.501 116.201 132.501 116.101C131.401 116.101 130.401 116.201 129.401 116.501C128.801 116.601 128.101 116.501 127.801 117.301C127.801 117.301 127.601 117.401 127.401 117.301C125.601 116.901 124.301 118.401 122.801 118.801C121.201 119.201 119.801 120.101 118.701 121.001C118.401 121.201 118.001 121.401 118.101 122.001C118.101 122.201 117.901 122.501 117.701 122.601C116.501 123.001 116.301 124.301 115.901 125.401C115.401 126.701 115.401 128.101 114.801 129.501C114.501 130.101 114.401 131.001 114.901 131.801C115.201 132.201 114.901 132.901 114.901 133.501C114.901 134.001 115.201 134.401 115.201 134.901C115.201 135.301 114.901 135.701 114.801 136.101C114.801 136.201 114.801 136.401 114.801 136.501C115.101 137.701 115.001 138.801 114.801 139.901C114.701 140.901 114.501 142.401 114.601 142.201C114.701 142.301 114.801 142.401 114.901 142.601L115.201 143.201L115.401 143.701C115.701 144.401 115.901 145.001 116.101 145.601L116.601 147.401L117.001 149.201C117.301 150.501 117.301 151.901 116.401 152.901C116.001 153.401 115.401 153.501 115.001 153.001C114.701 152.701 114.401 152.301 114.201 151.801C114.001 151.101 113.701 150.401 113.401 149.801C112.901 148.401 112.001 147.201 111.801 145.801C111.801 145.401 111.301 145.101 111.601 144.701C111.601 144.701 111.601 144.501 111.601 144.401H111.401C111.401 144.301 111.201 144.101 111.201 144.101C111.001 144.001 110.901 143.801 110.801 143.601C110.601 143.201 110.501 142.801 110.401 142.401C110.401 141.701 110.301 141.101 110.401 140.601C110.401 139.501 110.601 138.501 110.601 137.401C110.601 135.601 110.001 133.901 110.301 132.101C109.701 131.101 109.901 129.801 110.201 128.801C110.701 127.001 111.201 125.101 111.901 123.201C112.601 121.301 113.701 119.401 115.301 118.001C116.901 116.601 118.701 115.601 120.501 114.901C122.301 114.201 124.101 113.601 125.801 113.201C126.401 113.001 126.801 112.601 127.601 112.701C128.301 112.701 129.101 112.401 129.901 112.201C130.601 112.001 131.301 111.701 132.001 111.801C134.901 111.901 137.701 111.101 140.501 110.901C143.301 110.701 146.201 110.601 149.001 110.401C150.701 110.401 152.401 110.001 154.201 110.201C155.001 110.301 155.901 110.101 156.601 110.801C156.801 111.001 157.601 110.701 158.201 110.801C159.501 111.101 160.901 111.701 162.101 112.401C163.701 113.501 165.001 114.801 166.101 116.001C166.801 116.701 167.601 117.201 168.401 117.901C169.201 118.601 169.901 119.401 170.501 120.201C171.301 121.201 172.101 122.301 172.901 123.301C173.801 124.301 174.901 125.201 175.601 126.301C176.901 128.401 178.701 130.001 180.301 131.801C181.901 133.601 183.501 135.401 185.201 137.001C186.201 137.901 186.701 139.201 187.601 140.201C188.001 140.701 187.601 142.301 187.001 142.401C186.901 142.401 186.801 142.401 186.701 142.401C185.501 141.801 184.101 141.401 183.101 140.301C181.701 138.601 180.101 137.101 178.601 135.501L178.701 135.201Z" fill="black"/>
<path d="M166.101 147.302C166.501 147.102 166.801 147.002 167.201 146.702C167.301 146.702 167.601 146.702 167.501 146.202C167.501 145.902 167.901 146.402 168.001 146.402C168.301 146.202 168.701 146.102 169.001 145.902C169.301 145.702 169.501 145.302 169.801 145.102C170.101 144.902 170.601 145.102 170.801 144.602C171.001 144.202 171.401 144.602 171.601 144.302C171.801 144.102 172.101 143.902 172.501 144.002C172.801 144.002 173.101 144.202 173.201 144.002C173.201 143.902 173.201 143.502 173.401 143.502C173.501 143.502 173.801 143.702 173.701 143.002C173.701 143.002 173.701 143.002 173.901 143.002C174.201 143.302 174.401 143.202 174.401 143.002C174.401 142.702 174.501 142.702 174.601 142.602C174.901 142.502 175.201 142.302 175.501 142.302C175.701 142.302 176.001 142.302 176.301 142.302C176.501 142.302 176.701 141.902 177.001 142.102C177.301 142.302 177.501 142.202 177.701 142.102C177.801 142.102 178.101 142.302 177.901 141.602C178.501 142.302 178.501 141.102 178.901 141.202C179.301 141.202 179.601 141.002 180.001 140.902C180.001 140.902 180.301 141.002 180.201 140.502C180.201 140.302 180.201 140.302 180.401 140.402C180.901 140.902 181.001 140.402 181.301 140.402C181.601 140.402 181.901 140.002 182.301 140.402C182.501 140.602 182.701 140.602 182.701 140.002C182.701 139.702 182.901 140.002 183.001 139.802C183.001 139.802 183.001 139.402 183.201 139.402C183.201 139.402 183.401 139.602 183.501 139.702C183.801 138.902 184.501 139.702 184.901 139.302C185.301 139.002 185.801 138.902 186.301 138.902C186.601 138.902 186.901 138.902 187.401 140.002C187.601 140.502 187.801 141.002 187.701 141.402C187.701 141.702 187.701 141.902 187.601 142.002C187.501 142.102 187.401 142.302 187.301 142.402C187.101 142.702 186.901 143.302 186.601 143.102C186.501 143.102 186.501 143.402 186.201 142.902C186.001 143.802 185.501 143.402 185.101 143.602C184.801 143.802 184.601 144.502 184.201 144.302C184.201 145.002 184.001 144.902 183.701 144.802C182.801 144.402 182.301 145.002 181.601 145.202C180.901 145.302 180.301 145.702 179.601 145.902C179.501 145.902 179.601 146.302 179.301 146.102C179.101 145.902 179.001 146.102 178.801 146.202C178.701 146.202 178.601 146.402 178.401 146.302C177.601 145.902 177.301 146.502 176.701 146.602C176.201 146.702 175.601 146.902 175.201 147.302C174.901 147.502 174.801 148.002 174.401 148.002C174.201 148.002 174.201 148.402 173.901 147.902C173.801 147.802 173.901 148.202 173.801 148.302C173.601 148.402 173.401 148.502 173.201 148.602C172.901 148.702 172.601 148.802 172.301 149.002C172.101 149.102 172.101 149.402 171.901 149.602C171.701 149.702 171.601 149.802 171.301 149.902C171.001 149.902 170.701 149.902 170.401 149.902C170.101 149.902 170.001 150.302 169.601 150.202C168.901 150.002 168.601 150.402 168.201 150.602C167.701 150.802 167.301 150.902 166.901 151.302C166.701 151.502 166.201 151.202 166.001 151.302C165.901 151.302 165.101 150.102 164.901 149.702V149.502C164.901 149.002 164.801 148.202 165.101 148.102C165.501 148.002 165.901 147.702 166.301 147.502L166.101 147.302Z" fill="black"/>
<path d="M168.602 166.202C168.602 165.902 168.502 165.502 168.302 165.202C168.302 165.102 168.502 164.902 167.902 164.902C167.602 164.902 168.202 164.602 168.202 164.502C168.102 164.202 168.102 163.902 167.902 163.602C167.802 163.302 167.502 163.102 167.302 162.802C167.202 162.502 167.302 162.102 167.002 161.902C166.702 161.702 167.102 161.402 167.002 161.202C166.802 161.002 166.702 160.702 166.802 160.402C166.902 160.202 167.102 160.002 166.902 159.802C166.902 159.802 166.502 159.702 166.502 159.602C166.502 159.502 166.702 159.302 166.102 159.302C166.102 159.302 166.102 159.302 166.202 159.202C166.602 159.002 166.502 158.802 166.202 158.802C165.902 158.802 165.902 158.702 165.902 158.602C165.902 158.402 165.702 158.102 165.702 157.902C165.702 157.702 165.902 157.502 165.902 157.302C165.902 157.102 165.602 157.002 165.902 156.702C166.202 156.402 166.102 156.302 166.002 156.102C166.002 156.102 166.202 155.802 165.602 155.902C166.302 155.402 165.202 155.402 165.302 155.102C165.402 154.802 165.302 154.502 165.102 154.202C165.102 154.202 165.202 154.002 164.802 154.002C164.602 154.002 164.602 154.002 164.702 153.902C165.202 153.502 164.802 153.402 164.902 153.102C164.902 152.802 164.602 152.602 164.902 152.202C165.102 152.002 165.102 151.902 164.502 151.902C164.202 151.902 164.502 151.702 164.402 151.602C164.402 151.602 164.002 151.602 164.002 151.502C164.002 151.502 164.202 151.302 164.302 151.202C163.602 151.002 164.302 150.402 164.002 150.102C163.702 149.802 163.702 149.402 163.602 149.002C163.602 148.802 163.602 148.502 164.702 148.002C165.202 147.802 165.702 147.602 166.002 147.602C166.202 147.602 166.502 147.602 166.602 147.602C166.702 147.602 166.902 147.802 167.002 147.902C167.302 148.102 167.902 148.202 167.702 148.502C167.702 148.602 168.002 148.602 167.502 148.802C168.402 148.902 168.002 149.402 168.102 149.802C168.202 150.102 168.902 150.202 168.702 150.602C169.402 150.602 169.302 150.802 169.202 151.002C168.702 151.802 169.302 152.202 169.402 152.902C169.402 153.502 169.702 154.102 169.802 154.702C169.802 154.802 170.202 154.802 170.002 155.002C169.802 155.202 170.002 155.302 170.002 155.402C170.002 155.502 170.202 155.602 170.002 155.802C169.502 156.402 170.002 156.802 170.002 157.302C170.002 157.802 170.002 158.302 170.402 158.702C170.602 159.002 171.002 159.202 170.902 159.502C170.902 159.602 171.202 159.702 170.702 159.902C170.502 159.902 171.002 159.902 171.102 160.102C171.102 160.302 171.202 160.502 171.302 160.702C171.302 161.002 171.302 161.302 171.502 161.502C171.502 161.702 171.902 161.802 172.002 161.902C172.102 162.102 172.102 162.202 172.102 162.402C172.102 162.602 171.902 162.902 171.902 163.102C171.902 163.302 172.202 163.502 172.002 163.802C171.602 164.302 172.002 164.702 172.002 165.102C172.002 165.502 172.102 165.902 172.302 166.302C172.402 166.502 172.002 166.802 172.102 167.102C172.102 167.102 170.702 167.702 170.202 167.802H170.002C169.502 167.802 168.702 167.802 168.702 167.402C168.702 167.002 168.502 166.702 168.402 166.302L168.602 166.202Z" fill="black"/>
<path d="M162.2 186.199C162.3 185.799 162.5 185.399 162.5 184.999C162.5 184.799 162.8 184.799 162.4 184.499C162.2 184.299 162.8 184.399 162.8 184.199C162.8 183.799 163.1 183.499 163.1 183.099C163.1 182.699 163.1 182.299 163.1 181.899C163.1 181.499 163.6 181.299 163.4 180.799C163.2 180.399 163.8 180.299 163.8 179.999C163.8 179.699 163.8 179.299 164.1 179.099C164.3 178.899 164.6 178.799 164.6 178.599C164.6 178.399 164.3 178.199 164.4 178.099C164.4 177.999 164.8 177.899 164.2 177.599C164.2 177.599 164.2 177.599 164.4 177.599C164.8 177.599 164.9 177.399 164.6 177.199C164.4 176.999 164.5 176.899 164.5 176.799C164.5 176.499 164.6 176.199 164.8 175.899C164.9 175.699 165.2 175.599 165.4 175.399C165.5 175.199 165.4 174.899 165.7 174.699C166.1 174.599 166.1 174.399 166.2 174.199C166.2 174.099 166.6 173.999 166 173.699C166.9 173.699 166 172.999 166.3 172.699C166.6 172.399 166.6 171.999 166.7 171.699C166.7 171.699 166.9 171.599 166.5 171.299C166.4 171.299 166.4 171.099 166.5 171.099C167.2 171.099 166.9 170.599 167.1 170.399C167.3 170.099 167.1 169.699 167.7 169.599C167.9 169.599 168.1 169.399 167.6 169.099C167.4 168.899 167.6 168.899 167.6 168.799C167.6 168.699 167.3 168.499 167.4 168.399C167.4 168.399 167.7 168.399 167.8 168.299C167.3 167.699 168.3 167.499 168.2 166.999C168.2 166.699 168.2 166.599 168.2 166.299C168.2 165.999 168.4 165.699 168.6 165.299C168.8 164.899 169.3 164.499 170.4 165.099C170.9 165.299 171.3 165.699 171.5 165.999C171.6 166.199 171.8 166.399 171.8 166.499C171.8 166.599 171.9 166.799 172 166.899C172.1 167.099 172.6 167.399 172.2 167.699C172.1 167.699 172.3 167.999 171.8 167.899C172.5 168.499 171.8 168.899 171.8 169.299C171.8 169.699 172.2 170.199 171.8 170.499C172.3 170.899 172.2 171.099 171.9 171.199C171 171.699 171.2 172.499 170.9 173.199C170.6 173.899 170.4 174.599 170.1 175.299C170.1 175.399 170.4 175.599 170.1 175.699C169.8 175.699 169.9 175.999 169.9 176.099C169.9 176.199 169.9 176.399 169.7 176.499C168.9 176.799 169.1 177.499 168.8 177.999C168.5 178.499 168.3 178.999 168.3 179.599C168.3 179.999 168.5 180.399 168.3 180.699C168.2 180.799 168.5 181.099 167.9 180.999C167.7 180.999 168.1 181.299 168.1 181.399C168.1 181.599 168 181.899 167.9 182.099C167.8 182.399 167.6 182.699 167.6 183.099C167.6 183.299 167.7 183.599 167.7 183.799C167.7 183.999 167.7 184.199 167.5 184.399C167.3 184.599 167.1 184.799 166.9 185.099C166.8 185.299 166.9 185.699 166.6 185.899C166 186.199 166.1 186.799 165.9 187.199C165.7 187.599 165.5 188.099 165.5 188.599C165.5 188.899 165 188.999 164.9 189.199C164.9 189.299 163.4 189.199 162.9 188.999H162.7C162.3 188.599 161.7 188.199 161.8 187.899C162 187.399 162.1 186.999 162.2 186.499V186.199Z" fill="black"/>
<path d="M151.001 135.801C151.001 136.001 150.901 136.101 150.901 136.301C150.901 136.301 150.601 136.301 151.101 136.601C151.401 136.601 150.701 136.601 150.701 136.601C150.701 136.801 150.701 136.901 150.701 137.101C150.701 137.301 150.901 137.501 150.901 137.601C150.901 137.801 150.601 137.901 150.901 138.101C151.201 138.301 150.601 138.301 150.701 138.401C150.801 138.601 150.901 138.701 150.701 138.801C150.501 138.801 150.301 138.901 150.401 139.001C150.401 139.001 150.801 139.201 150.701 139.201C150.701 139.201 150.401 139.201 151.001 139.401C151.001 139.401 151.001 139.401 150.801 139.401C150.401 139.401 150.401 139.401 150.701 139.601C151.001 139.601 150.901 139.701 150.901 139.801C150.901 139.901 150.901 140.101 150.901 140.201C150.901 140.201 150.601 140.401 150.501 140.501C150.501 140.501 150.701 140.701 150.401 140.801C150.101 140.801 150.101 141.001 150.101 141.101C150.101 141.101 149.801 141.201 150.401 141.301C149.601 141.401 150.601 141.601 150.401 141.801C150.201 142.001 150.401 142.101 150.401 142.301C150.401 142.301 150.201 142.301 150.701 142.401C150.901 142.401 150.901 142.401 150.701 142.401C150.101 142.501 150.501 142.601 150.301 142.801C150.201 142.901 150.501 143.101 150.001 143.201C149.801 143.201 149.701 143.401 150.301 143.401C150.601 143.401 150.301 143.501 150.301 143.601C150.301 143.601 150.601 143.601 150.601 143.701C150.601 143.701 150.401 143.701 150.301 143.801C151.001 144.001 150.101 144.201 150.301 144.401C150.501 144.601 150.401 144.801 150.301 145.001C150.301 145.101 150.101 145.301 148.901 145.401C148.401 145.401 147.801 145.501 147.501 145.501C147.301 145.501 147.001 145.501 147.001 145.501C146.901 145.501 146.801 145.401 146.701 145.301C146.501 145.201 145.901 145.101 146.201 144.901C146.201 144.901 146.001 144.901 146.501 144.701C145.701 144.501 146.201 144.301 146.101 144.101C146.101 143.901 145.401 143.801 145.701 143.601C145.101 143.601 145.201 143.401 145.401 143.301C146.101 142.901 145.601 142.601 145.701 142.201C145.701 141.801 145.701 141.501 145.701 141.101C145.701 141.101 145.401 141.001 145.701 140.901C146.001 140.901 145.701 140.701 145.701 140.701C145.701 140.701 145.601 140.501 145.701 140.501C146.401 140.301 146.001 139.901 146.101 139.701C146.201 139.401 146.301 139.101 146.101 138.801C146.101 138.601 145.701 138.401 145.901 138.201C145.901 138.201 145.601 138.001 146.201 138.001C146.401 138.001 145.901 137.901 145.901 137.801C145.901 137.701 145.901 137.601 145.901 137.401C145.901 137.201 146.001 137.101 145.901 136.901C145.901 136.801 145.701 136.601 145.601 136.501C145.601 136.401 145.601 136.301 145.601 136.201C145.701 136.101 145.901 136.001 146.001 135.901C146.001 135.801 145.901 135.601 146.201 135.501C146.801 135.401 146.601 135.101 146.701 134.801C146.801 134.601 146.901 134.401 146.901 134.101C146.901 133.901 147.401 134.001 147.401 133.801C147.401 133.801 148.901 134.101 149.301 134.201H149.501C149.901 134.501 150.601 134.801 150.501 134.901C150.401 135.101 150.401 135.301 150.301 135.501L151.001 135.801Z" fill="black"/>
<path d="M162.3 135.801C162.3 136.001 162.2 136.101 162.2 136.301C162.2 136.301 161.9 136.301 162.4 136.601C162.7 136.601 162 136.601 162 136.601C162 136.801 162 136.901 162 137.101C162 137.301 162.2 137.501 162.2 137.601C162.2 137.801 161.9 137.901 162.2 138.101C162.5 138.301 161.9 138.301 162 138.401C162.1 138.601 162.2 138.701 162 138.801C161.8 138.801 161.6 138.901 161.7 139.001C161.7 139.001 162.1 139.201 162 139.201C162 139.201 161.7 139.201 162.3 139.401C162.3 139.401 162.3 139.401 162.1 139.401C161.7 139.401 161.7 139.401 162 139.601C162.3 139.601 162.2 139.701 162.2 139.801C162.2 139.901 162.2 140.101 162.2 140.201C162.2 140.201 161.9 140.401 161.8 140.501C161.8 140.501 162 140.701 161.7 140.801C161.4 140.801 161.4 141.001 161.4 141.101C161.4 141.101 161.1 141.201 161.7 141.301C160.9 141.401 161.9 141.601 161.7 141.801C161.5 142.001 161.7 142.101 161.7 142.301C161.7 142.301 161.5 142.301 162 142.401C162.2 142.401 162.2 142.401 162 142.401C161.4 142.501 161.8 142.601 161.6 142.801C161.5 142.901 161.8 143.101 161.3 143.201C161.1 143.201 161 143.401 161.6 143.401C161.9 143.401 161.6 143.501 161.6 143.601C161.6 143.601 161.9 143.601 161.9 143.701C161.9 143.701 161.7 143.701 161.6 143.801C162.3 144.001 161.4 144.201 161.6 144.401C161.8 144.601 161.7 144.801 161.6 145.001C161.6 145.101 161.4 145.301 160.2 145.401C159.7 145.401 159.1 145.501 158.8 145.501C158.6 145.501 158.3 145.501 158.3 145.501C158.2 145.501 158.1 145.401 158 145.301C157.8 145.201 157.2 145.101 157.5 144.901C157.5 144.901 157.3 144.901 157.8 144.701C157 144.501 157.5 144.301 157.4 144.101C157.4 143.901 156.7 143.801 157 143.601C156.4 143.601 156.5 143.401 156.7 143.301C157.4 142.901 156.9 142.601 157 142.201C157 141.801 157 141.501 157 141.101C157 141.101 156.7 141.001 157 140.901C157.3 140.901 157 140.701 157 140.701C157 140.701 156.9 140.501 157 140.501C157.7 140.301 157.3 139.901 157.4 139.701C157.5 139.401 157.6 139.101 157.4 138.801C157.4 138.601 157 138.401 157.2 138.201C157.2 138.201 156.9 138.001 157.5 138.001C157.7 138.001 157.2 137.901 157.2 137.801C157.2 137.701 157.2 137.601 157.2 137.401C157.2 137.201 157.3 137.101 157.2 136.901C157.2 136.801 157 136.601 156.9 136.501C156.9 136.401 156.9 136.301 156.9 136.201C157 136.101 157.2 136.001 157.3 135.901C157.3 135.801 157.2 135.601 157.5 135.501C158.1 135.401 157.9 135.101 158 134.801C158.1 134.601 158.2 134.401 158.2 134.101C158.2 133.901 158.7 134.001 158.7 133.801C158.7 133.801 160.2 134.101 160.6 134.201H160.8C161.2 134.501 161.9 134.801 161.8 134.901C161.7 135.101 161.7 135.301 161.6 135.501L162.3 135.801Z" fill="black"/>
<path d="M162.601 169.701C162.401 169.701 162.101 169.801 161.901 169.901C161.901 169.901 161.701 169.701 161.701 170.301C161.701 170.601 161.501 170.001 161.401 170.001C161.201 170.101 160.901 170.001 160.701 170.201C160.501 170.201 160.301 170.601 160.001 170.601C159.801 170.601 159.501 170.401 159.301 170.701C159.101 171.001 158.901 170.501 158.701 170.701C158.501 170.801 158.301 170.901 158.101 170.701C158.001 170.501 157.801 170.301 157.701 170.401C157.701 170.401 157.501 170.801 157.401 170.701C157.401 170.701 157.201 170.401 157.101 171.001C157.101 171.001 157.101 171.001 157.101 170.801C157.101 170.401 156.901 170.401 156.801 170.701C156.701 171.001 156.601 170.901 156.501 170.901C156.301 170.901 156.101 170.901 155.901 170.901C155.801 170.901 155.701 170.601 155.501 170.501C155.401 170.501 155.101 170.701 155.101 170.301C155.101 170.001 154.901 169.901 154.801 169.901C154.801 169.901 154.801 169.601 154.501 170.201C154.501 169.401 154.001 170.301 153.801 170.001C153.601 169.701 153.401 169.801 153.101 169.701C153.101 169.701 153.101 169.501 152.801 169.901C152.801 170.001 152.601 170.001 152.701 169.901C152.701 169.201 152.501 169.501 152.301 169.401C152.201 169.201 151.801 169.401 151.901 168.801C151.901 168.601 151.901 168.401 151.501 168.801C151.301 169.001 151.401 168.801 151.301 168.801L151.001 169.001C151.001 169.001 151.001 168.701 151.001 168.601C150.401 169.001 150.601 168.101 150.301 168.001C149.901 168.001 149.701 167.701 149.501 167.401C149.501 167.201 149.401 167.001 150.101 166.101C150.401 165.701 150.801 165.301 151.101 165.101C151.301 165.001 151.501 164.801 151.601 164.801C151.701 164.801 151.901 164.801 152.001 164.701C152.201 164.701 152.701 164.301 152.601 164.701C152.601 164.701 152.801 164.601 152.601 165.001C153.201 164.501 153.101 165.001 153.301 165.001C153.501 165.001 153.901 164.601 153.901 165.001C154.301 164.501 154.301 164.601 154.301 164.801C154.301 165.501 154.801 165.301 155.001 165.501C155.301 165.701 155.601 165.701 155.901 165.901C155.901 165.901 156.101 165.601 156.101 165.901C156.101 166.201 156.201 165.901 156.301 166.001H156.501C156.601 166.701 157.001 166.401 157.201 166.501C157.501 166.501 157.701 166.701 158.001 166.501C158.201 166.501 158.301 166.101 158.501 166.201C158.501 166.201 158.601 165.901 158.701 166.501C158.701 166.701 158.701 166.201 158.801 166.201C158.901 166.201 159.001 166.201 159.101 166.201C159.201 166.201 159.401 166.201 159.501 166.201C159.501 166.201 159.701 165.901 159.701 165.801C159.701 165.801 159.901 165.801 160.001 165.801C160.101 165.801 160.301 166.001 160.401 166.101C160.501 166.101 160.601 165.801 160.801 166.101C161.101 166.501 161.301 166.201 161.501 166.201C161.701 166.201 162.001 166.201 162.101 166.001C162.101 165.901 162.501 166.301 162.601 166.301C162.601 166.301 163.301 167.601 163.501 168.101V168.301C163.501 168.801 163.701 169.501 163.501 169.501C163.201 169.501 162.901 169.701 162.701 169.801L162.601 169.701Z" fill="black"/>
<path d="M183.799 122.999C185.199 122.099 186.599 121.199 187.799 120.099C188.299 119.699 188.899 119.499 188.999 118.699C188.999 118.299 189.899 118.399 190.299 117.999C191.399 116.899 192.499 115.799 193.399 114.599C194.299 113.399 194.899 112.099 195.499 110.799C196.099 109.599 196.899 108.299 196.999 106.999C196.999 105.899 197.599 104.999 197.499 103.899C197.399 102.799 197.099 101.799 196.999 100.699C196.999 99.8992 196.799 99.0992 196.299 98.3993C196.199 98.1993 195.899 98.0992 195.699 97.8992C195.499 97.6992 195.299 97.5992 195.099 97.3992C194.999 97.1992 194.899 96.9993 194.699 96.7993C194.499 96.5993 194.299 96.4992 193.899 96.5992C193.899 96.5992 193.799 96.3993 193.699 96.2993C193.699 95.9993 193.499 95.7992 193.299 95.5992C193.099 95.4992 192.799 95.3992 192.599 95.3992C192.099 95.3992 191.899 95.3993 191.499 95.2993C190.599 95.0993 189.599 94.9992 188.499 94.9992C187.699 94.9992 186.699 94.8992 185.799 94.9992C184.799 94.9992 183.799 95.5992 182.799 95.4992C181.799 95.3992 180.999 95.5993 180.099 95.7993C179.599 95.8993 178.899 95.7992 178.699 96.4992C178.699 96.4992 178.499 96.5992 178.399 96.4992C176.699 96.0992 175.699 97.5992 174.199 97.8992C172.699 98.1992 171.299 98.8992 169.799 99.5992C169.399 99.7992 168.899 99.7992 168.799 100.399C168.799 100.599 168.399 100.799 168.099 100.799C166.799 100.799 165.899 101.599 164.799 102.099C163.499 102.599 162.499 103.599 161.099 103.799C160.499 103.899 159.699 104.199 159.499 105.099C159.399 105.499 158.699 105.599 158.299 105.999C157.999 106.299 157.799 106.699 157.399 106.899C157.099 107.099 156.699 107.099 156.299 107.199C156.199 107.199 156.099 107.199 155.999 107.399C154.599 109.099 152.399 109.399 150.599 110.499C148.799 111.699 146.699 112.499 144.599 113.199C143.399 113.599 142.099 113.699 141.099 112.699C140.599 112.299 140.499 111.699 140.899 111.299C141.199 110.999 141.499 110.699 141.899 110.499C142.499 110.199 142.999 109.899 143.599 109.599C144.699 108.999 145.699 107.999 146.999 107.699C147.399 107.599 147.699 107.099 148.199 107.399C148.199 107.399 148.399 107.399 148.499 107.399C149.699 105.899 151.499 105.399 153.099 104.399C154.399 103.499 155.299 102.199 156.799 101.599C157.199 100.599 158.199 100.099 158.999 99.7993C162.099 98.6993 164.699 96.7992 167.699 95.5992C170.699 94.3992 173.799 93.0993 176.899 92.2993C177.399 92.0993 177.799 91.6993 178.499 91.7993C179.199 91.7993 179.899 91.4993 180.599 91.2993C181.199 91.1993 181.899 90.8992 182.499 90.8992C183.799 90.8992 185.099 90.8992 186.399 90.5992C187.699 90.3992 189.099 90.1992 190.499 90.3992C191.899 90.4992 193.399 90.9992 194.699 91.6992C195.999 92.3992 197.199 93.2992 198.199 94.3992C199.399 95.6992 200.599 97.0993 200.999 98.7993C201.199 99.4993 201.699 100.199 201.299 101.099C201.199 101.299 201.699 101.899 201.799 102.399C201.899 103.599 201.799 104.899 201.699 105.999C201.499 107.599 200.899 109.199 200.399 110.699C200.099 111.599 199.799 112.599 199.399 113.499C198.899 114.399 198.399 115.299 197.699 115.999C196.899 116.999 195.899 117.799 195.099 118.699C194.199 119.599 193.399 120.699 192.399 121.399C190.399 122.499 188.799 124.099 186.899 125.299C184.999 126.499 182.999 127.499 180.999 128.499C179.899 129.099 178.599 128.999 177.499 129.399C176.899 129.599 175.799 128.399 175.899 127.899C175.899 127.799 175.899 127.699 175.999 127.599C176.899 126.799 177.599 125.799 178.799 125.299C180.499 124.599 182.199 123.699 183.799 122.799V122.999Z" fill="black"/>
<path d="M115.899 141.102C116.399 140.502 116.899 139.902 117.399 139.302C117.599 139.102 117.999 139.002 117.799 138.402C117.699 138.102 118.399 138.402 118.499 138.102C118.899 137.502 119.499 137.002 119.899 136.402C120.299 135.802 120.599 135.202 121.099 134.602C121.499 134.002 122.199 133.702 122.499 133.002C122.699 132.402 123.399 132.402 123.699 131.902C123.999 131.402 124.399 130.902 124.999 130.602C125.399 130.402 125.899 130.302 126.099 129.902C126.199 129.702 126.099 129.302 126.399 129.102C126.599 128.902 126.999 128.902 126.699 128.302C126.699 128.302 126.799 128.302 126.899 128.302C127.399 128.302 127.599 128.102 127.599 127.802C127.599 127.402 127.699 127.302 127.899 127.202C128.299 126.802 128.699 126.302 129.099 125.902C129.399 125.602 129.899 125.502 130.299 125.202C130.699 124.902 130.799 124.402 131.299 124.302C131.799 124.302 132.099 123.902 132.399 123.602C132.599 123.402 132.999 123.402 132.599 122.802C132.599 122.802 132.599 122.702 132.699 122.702C133.799 122.702 133.499 121.602 134.099 121.202C134.699 120.802 135.099 120.202 135.599 119.702C135.699 119.602 135.999 119.502 135.799 119.102C135.799 118.902 135.799 118.802 135.999 118.802C136.799 118.802 136.899 118.202 137.399 117.902C137.899 117.502 138.099 116.902 138.899 116.802C139.199 116.802 139.599 116.602 139.399 115.902C139.399 115.602 139.699 115.602 139.799 115.402C139.799 115.202 139.799 114.902 139.999 114.802C140.099 114.702 140.399 114.802 140.599 114.702C140.599 114.702 140.599 114.702 140.699 114.602C140.899 113.502 142.099 113.502 142.599 112.702C143.099 111.902 143.799 111.302 144.499 110.702C144.899 110.402 145.399 110.102 146.499 110.702C146.999 110.902 147.399 111.302 147.499 111.702C147.499 112.002 147.499 112.302 147.499 112.402C147.399 112.702 147.299 113.002 147.099 113.202C146.799 113.802 146.799 114.502 146.199 114.802C145.999 114.802 146.099 115.202 145.599 115.002H145.499C145.499 116.102 144.499 116.402 143.999 117.002C143.499 117.502 143.499 118.502 142.799 118.802C142.999 119.502 142.599 119.802 142.199 119.902C140.699 120.402 140.099 121.702 139.099 122.702C137.999 123.602 137.099 124.702 136.099 125.702C135.899 125.902 136.099 126.302 135.599 126.302C135.199 126.302 135.099 126.702 134.899 126.902C134.699 127.102 134.599 127.402 134.299 127.502C133.099 127.802 132.599 128.902 131.699 129.602C130.899 130.302 130.099 131.102 129.399 132.002C128.999 132.502 128.799 133.302 128.199 133.702C127.999 133.902 127.999 134.302 127.399 134.102C127.199 134.102 127.399 134.502 127.299 134.702C126.999 135.102 126.699 135.402 126.399 135.702C125.999 136.202 125.499 136.602 125.099 137.102C124.899 137.402 124.799 137.902 124.599 138.202C124.399 138.502 124.099 138.802 123.799 139.102C123.399 139.402 122.899 139.702 122.499 140.002C122.099 140.402 121.899 140.902 121.399 141.102C120.399 141.502 119.999 142.402 119.299 143.002C118.699 143.702 117.999 144.402 117.599 145.202C117.299 145.702 116.599 145.702 116.299 146.102C116.199 146.302 114.799 145.702 114.399 145.302L114.299 145.102C114.299 144.402 113.999 143.602 114.299 143.102C114.899 142.402 115.399 141.702 115.999 141.002L115.899 141.102Z" fill="black"/>
<path d="M125.701 164.401C125.001 164.101 124.301 163.701 123.601 163.401C123.301 163.301 123.201 162.901 122.701 163.201C122.401 163.301 122.501 162.701 122.301 162.501C121.701 162.101 121.101 161.601 120.501 161.201C119.901 160.801 119.201 160.401 118.701 159.901C118.201 159.401 117.901 158.601 117.201 158.201C116.601 157.901 116.701 157.101 116.301 156.701C115.901 156.201 115.501 155.701 115.501 155.001C115.501 154.501 115.501 154.001 115.301 153.701C115.101 153.501 114.801 153.301 114.701 153.001C114.701 152.701 114.801 152.401 114.201 152.301V152.101C114.501 151.701 114.401 151.401 114.201 151.201C113.901 151.001 113.901 150.801 113.901 150.501C113.801 149.901 113.701 149.201 113.901 148.501C113.901 148.001 114.201 147.501 114.301 147.101C114.401 146.601 114.301 146.001 114.701 145.601C115.101 145.201 115.301 144.701 115.501 144.301C115.601 144.001 116.001 143.901 115.601 143.301C115.601 143.301 115.601 143.101 115.701 143.101C116.301 142.901 116.501 142.601 116.801 142.101C117.101 141.701 117.401 141.101 117.901 141.001C119.001 140.701 120.101 140.401 121.001 140.401C121.201 140.401 121.401 140.601 121.701 140.201C121.701 140.001 122.001 140.001 122.101 140.201C122.501 140.901 123.101 140.601 123.601 140.701C124.201 140.901 124.901 140.701 125.401 141.301C125.601 141.601 125.901 141.701 126.401 141.301C126.601 141.101 126.901 141.401 127.101 141.401C127.301 141.401 127.601 141.201 127.801 141.301C128.001 141.301 128.101 141.601 128.201 141.801C128.201 141.801 128.201 141.801 128.401 141.801C129.001 141.701 129.501 141.901 129.901 142.301C130.301 142.601 130.601 143.101 131.101 143.301C132.101 143.801 132.901 144.601 133.401 145.601C133.701 146.101 133.901 146.801 133.001 147.701C132.601 148.101 132.101 148.301 131.701 148.201C131.401 148.201 131.201 148.201 131.001 148.101C130.801 148.001 130.601 147.801 130.401 147.701C130.001 147.501 129.301 147.501 129.201 147.001C129.201 146.801 128.801 147.001 129.101 146.501V146.401C128.101 146.701 127.901 145.901 127.301 145.701C126.801 145.501 126.101 146.001 125.601 145.501C125.101 146.001 124.801 145.801 124.601 145.501C124.101 145.101 123.501 144.901 122.901 144.801C122.301 144.801 121.601 144.801 121.101 144.701C120.601 144.701 120.301 144.701 120.101 144.701C120.001 144.701 119.801 144.901 119.601 145.201C119.601 145.201 119.801 145.601 119.501 145.601C119.201 145.601 119.301 145.901 119.201 146.101C119.201 146.301 119.201 146.501 119.001 146.601C118.601 146.901 118.501 147.301 118.401 147.801C118.401 148.201 118.401 148.701 118.401 149.101C118.401 150.001 118.401 150.901 118.801 151.701C119.001 152.201 119.501 152.601 119.601 153.101C119.601 153.301 120.001 153.401 119.601 153.901C119.501 154.001 120.001 154.001 120.101 154.101C120.301 154.401 120.501 154.701 120.701 155.001C121.001 155.401 121.201 155.901 121.601 156.201C121.801 156.401 122.201 156.501 122.501 156.701C122.801 156.901 123.001 157.101 123.201 157.401C123.401 157.701 123.601 158.201 123.901 158.501C124.201 158.801 124.701 158.901 124.901 159.301C125.301 160.201 126.101 160.301 126.801 160.701C127.501 161.101 128.201 161.401 129.101 161.501C129.501 161.501 129.801 162.201 130.301 162.301C130.501 162.301 130.501 163.901 130.301 164.301C130.301 164.301 130.301 164.501 130.201 164.501C129.601 164.801 129.001 165.401 128.401 165.201C127.601 164.901 126.701 164.601 125.901 164.301L125.701 164.401Z" fill="black"/>
<path d="M135.301 128.499C135.301 128.799 135.301 129.099 135.301 129.499C135.301 129.599 135.101 129.799 135.601 129.899C135.901 129.899 135.201 130.099 135.301 130.199C135.301 130.499 135.301 130.799 135.301 131.099C135.301 131.399 135.601 131.699 135.701 131.999C135.701 132.299 135.501 132.599 135.701 132.899C136.001 133.099 135.501 133.399 135.601 133.599C135.701 133.799 135.801 134.099 135.601 134.299C135.401 134.499 135.201 134.599 135.301 134.799C135.301 134.899 135.701 134.999 135.601 135.099C135.601 135.199 135.301 135.299 135.901 135.499C135.901 135.499 135.901 135.499 135.701 135.499C135.301 135.499 135.301 135.699 135.601 135.899C135.901 135.999 135.801 136.099 135.801 136.199C135.801 136.499 135.801 136.699 135.801 136.999C135.801 137.199 135.501 137.299 135.401 137.499C135.401 137.699 135.601 137.899 135.301 138.099C135.001 138.199 135.001 138.399 135.001 138.599C135.001 138.599 134.701 138.799 135.301 138.899C134.401 139.099 135.501 139.499 135.301 139.799C135.001 140.099 135.201 140.399 135.101 140.699C135.101 140.699 134.901 140.799 135.301 140.999C135.501 140.999 135.501 141.099 135.301 141.199C134.601 141.299 135.001 141.599 134.801 141.799C134.601 141.999 134.801 142.399 134.301 142.499C134.101 142.499 133.901 142.699 134.501 142.899C134.801 142.999 134.501 143.099 134.501 143.199C134.501 143.199 134.801 143.399 134.801 143.499C134.801 143.499 134.501 143.499 134.401 143.599C135.001 144.099 134.001 144.299 134.101 144.699C134.101 145.099 134.101 145.499 133.801 145.799C133.701 145.999 133.501 146.199 132.301 145.999C131.801 145.999 131.301 145.799 131.001 145.599C130.801 145.499 130.601 145.299 130.501 145.299C130.501 145.199 130.301 144.999 130.301 144.899C130.201 144.599 129.701 144.299 130.101 144.099C130.201 144.099 129.901 143.899 130.401 143.999C129.701 143.499 130.301 143.299 130.401 142.999C130.401 142.699 129.901 142.299 130.201 142.099C129.601 141.799 129.801 141.699 130.001 141.599C130.801 141.199 130.401 140.599 130.601 140.099C130.801 139.599 130.801 138.999 130.901 138.499C130.901 138.499 130.601 138.299 130.901 138.199C131.201 138.199 130.901 137.999 130.901 137.899C130.901 137.799 130.801 137.699 130.901 137.599C131.601 137.199 131.201 136.799 131.401 136.299C131.401 135.899 131.601 135.399 131.401 134.999C131.401 134.699 131.001 134.499 131.101 134.199C131.101 134.099 130.801 133.999 131.401 133.899C131.601 133.899 131.101 133.799 131.101 133.699C131.101 133.499 131.101 133.299 131.101 133.199C131.101 132.999 131.101 132.699 131.101 132.499C131.101 132.299 130.801 132.199 130.801 132.099C130.801 131.899 130.801 131.799 130.801 131.599C130.801 131.399 131.101 131.199 131.101 130.999C131.101 130.799 130.901 130.599 131.101 130.399C131.601 129.999 131.301 129.599 131.301 129.299C131.301 128.899 131.301 128.599 131.201 128.199C131.201 127.999 131.601 127.799 131.601 127.599C131.601 127.599 133.001 127.199 133.501 127.199H133.701C134.201 127.399 134.901 127.499 134.901 127.699C134.901 128.099 134.901 128.399 134.901 128.799L135.301 128.499Z" fill="black"/>
<path d="M96.7005 179.002C96.5005 178.302 96.4005 177.502 96.3005 176.702C96.3005 176.402 96.5005 176.102 96.0005 175.702C95.7005 175.502 96.4005 175.202 96.4005 175.002C96.4005 174.202 96.7005 173.502 96.9005 172.902C97.1005 172.202 97.1005 171.602 97.3005 171.002C97.5005 170.402 98.0005 170.002 98.0005 169.302C98.0005 168.702 98.6005 168.502 98.7005 168.102C98.8005 167.602 99.0005 167.102 99.4005 166.802C99.7005 166.602 100.101 166.402 100.201 166.002C100.201 165.802 100.101 165.402 100.201 165.202C100.301 165.002 100.701 164.902 100.201 164.402C100.201 164.402 100.301 164.402 100.401 164.402C100.901 164.402 101.001 164.102 100.901 163.802C100.801 163.502 100.901 163.402 100.901 163.202C101.101 162.702 101.401 162.302 101.701 161.902C101.901 161.602 102.301 161.402 102.601 161.102C102.901 160.802 102.901 160.302 103.301 160.102C103.801 160.002 103.901 159.702 104.101 159.402C104.201 159.202 104.601 159.202 104.101 158.702V158.602C105.101 158.602 104.601 157.502 105.101 157.102C105.601 156.702 105.901 156.102 106.201 155.602C106.201 155.502 106.601 155.402 106.201 155.002C106.201 154.902 106.201 154.702 106.301 154.702C107.101 154.702 107.101 154.102 107.501 153.802C107.901 153.502 108.101 152.902 108.801 152.802C109.101 152.802 109.401 152.602 109.101 152.002C109.001 151.702 109.301 151.702 109.401 151.502C109.401 151.402 109.401 151.102 109.401 150.902C109.401 150.802 109.701 150.902 109.901 150.902C109.901 149.902 110.901 149.902 111.101 149.302C111.301 148.702 111.601 148.202 111.901 147.702C112.101 147.402 112.301 147.202 113.501 147.102C114.001 147.102 114.601 147.102 114.901 147.402C115.101 147.602 115.301 147.802 115.301 148.002C115.301 148.302 115.301 148.602 115.301 148.902C115.301 149.502 115.501 150.302 115.001 150.702C114.801 150.802 115.001 151.202 114.501 151.002H114.401C114.701 152.102 113.801 152.502 113.401 153.102C113.101 153.602 113.101 154.502 112.501 154.802C112.801 155.502 112.501 155.702 112.101 155.802C110.901 156.202 110.501 157.402 109.701 158.302C108.901 159.202 108.301 160.102 107.601 161.102C107.501 161.302 107.601 161.602 107.301 161.602C107.001 161.602 107.001 162.002 106.801 162.202C106.701 162.402 106.601 162.702 106.401 162.802C105.301 163.202 105.201 164.202 104.601 164.902C104.101 165.602 103.501 166.402 103.201 167.302C103.001 167.802 103.001 168.502 102.701 168.902C102.501 169.102 102.701 169.502 102.101 169.402C101.901 169.402 102.201 169.802 102.101 169.902C102.001 170.302 101.801 170.602 101.601 170.902C101.401 171.402 101.101 171.802 100.901 172.302C100.801 172.602 100.901 173.002 100.901 173.302C100.901 173.602 100.701 173.902 100.501 174.102C100.301 174.402 100.001 174.702 99.8005 175.002C99.6005 175.302 99.8005 175.702 99.6005 175.902C99.0005 176.402 99.4005 177.002 99.5005 177.702C99.5005 178.302 99.8005 179.002 100.201 179.602C100.401 180.002 100.201 180.502 100.301 180.902C100.301 181.102 99.2005 182.002 98.7005 182.102H98.5005C97.9005 181.902 97.1005 181.902 96.9005 181.402C96.6005 180.702 96.3005 179.902 96.0005 179.102L96.7005 179.002Z" fill="black"/>
<path d="M131.6 172.302C131.9 173.102 132 173.902 132.2 174.702C132.2 175.002 132.1 175.302 132.6 175.602C132.9 175.702 132.3 176.102 132.3 176.402C132.4 177.202 132.3 178.002 132.3 178.902C132.3 179.802 132.2 180.802 131.6 181.802C131 182.802 130.1 183.202 129.5 183.902C129 184.602 128.2 184.402 127.6 184.702C127 185.102 126.4 185.302 125.7 185.302C125.2 185.302 124.8 185.102 124.4 185.302C124.2 185.402 124 185.802 123.7 185.802C123.4 185.802 123.1 185.602 122.9 186.302C122.9 186.302 122.7 186.302 122.7 186.202C122.3 185.802 122 185.902 121.8 186.202C121.6 186.502 121.4 186.502 121.2 186.502C120.6 186.602 120 186.702 119.4 186.702C118.9 186.702 118.5 186.502 118 186.402C117.5 186.402 117 186.702 116.6 186.402C116.2 186.102 115.8 186.102 115.3 186.102C115.1 186.102 114.8 185.802 114.6 186.402H114.5C113.8 185.602 113.1 186.602 112.5 186.402C111.8 186.202 111.1 186.302 110.4 186.202C110.2 186.202 110 186.002 109.8 186.402C109.8 186.602 109.5 186.602 109.4 186.402C108.9 185.702 108.3 186.102 107.8 185.902C107.2 185.702 106.5 185.902 105.9 185.302C105.7 185.102 105.3 184.902 104.9 185.302C104.7 185.502 104.4 185.302 104.2 185.302C104 185.302 103.7 185.502 103.5 185.502C103.3 185.502 103.2 185.202 103.1 185.002C103.1 185.002 103 185.002 102.9 185.002C101.8 185.402 101.1 184.202 100.1 184.002C99.0998 183.802 98.1998 183.202 97.3998 182.502C96.8998 182.102 96.5998 181.602 96.9998 180.502C97.1998 180.002 97.5998 179.602 97.8998 179.502C98.1998 179.502 98.3998 179.302 98.5998 179.402C98.8998 179.402 99.1998 179.502 99.3998 179.602C99.8998 179.702 100.6 179.602 101 180.002C101.1 180.202 101.4 180.002 101.3 180.502V180.602C102.3 180.202 102.7 180.902 103.5 181.002C104.1 181.102 104.9 180.702 105.4 181.002C105.9 180.402 106.2 180.602 106.6 180.902C107.7 181.802 109.1 181.402 110.4 181.602C111.7 181.802 113.1 181.802 114.4 181.802C114.6 181.802 114.8 181.502 115.1 181.802C115.3 182.102 115.7 181.802 116 181.802C116.3 181.802 116.5 181.702 116.8 181.802C117.8 182.402 118.9 182.002 119.9 182.002C120.9 182.002 122 182.002 122.9 181.602C123.5 181.402 124 180.902 124.6 180.902C124.9 180.902 125 180.502 125.4 180.902C125.5 181.002 125.6 180.502 125.7 180.502C126 180.302 126.4 180.202 126.7 180.102C127.1 179.902 127.5 179.702 127.7 179.402C127.8 179.202 127.7 179.002 127.7 178.802C127.7 178.702 127.7 178.502 127.9 178.402C128 178.202 128.3 177.902 128.3 177.502C128.3 177.102 128.1 176.602 128.3 176.202C128.7 175.302 128.3 174.502 128.2 173.702C128 172.902 127.8 172.102 127.3 171.402C127 171.002 127.3 170.402 127 170.002C126.9 169.802 128 168.802 128.4 168.602C128.4 168.602 128.6 168.602 128.7 168.602C129.4 168.802 130.3 168.902 130.5 169.502C130.9 170.402 131.3 171.202 131.5 172.102L131.6 172.302Z" fill="black"/>
<path d="M174.7 180.102C175.6 180.102 176.5 180.102 177.4 180.102C177.7 180.102 178.1 180.302 178.4 179.702C178.5 179.402 178.9 180.002 179.2 180.002C180 179.802 180.8 179.802 181.6 179.602C182.4 179.402 183.1 179.002 183.8 178.702C184.5 178.402 185.3 178.402 185.8 177.802C186.2 177.302 186.9 177.502 187.2 177.002C187.6 176.602 187.9 176.202 188.4 175.902C188.8 175.702 189.2 175.502 189.3 175.102C189.3 174.902 189.1 174.502 189.3 174.302C189.3 174.102 189.7 173.902 189.1 173.602C189.1 173.602 189.1 173.602 189.3 173.502C189.7 173.402 189.7 173.002 189.4 172.902C189.1 172.802 189.1 172.602 189.1 172.502C189 172.102 188.8 171.602 188.6 171.102C188.5 170.702 188.5 170.202 188.3 169.702C188.1 169.202 187.6 168.802 187.6 168.202C187.6 167.602 187.3 167.202 187.1 166.802C187 166.602 187.1 166.102 186.4 166.302C186.4 166.302 186.3 166.302 186.4 166.202C186.7 165.102 185.3 165.002 185 164.202C184.7 163.402 184.1 162.802 183.6 162.102C183.5 161.902 183.5 161.602 183 161.702C182.8 161.702 182.7 161.602 182.7 161.402C182.8 160.502 182.1 160.202 181.8 159.702C181.4 159.002 180.7 158.702 180.6 157.802C180.6 157.402 180.4 157.002 179.7 157.202C179.4 157.202 179.4 156.802 179.1 156.702C178.9 156.602 178.6 156.702 178.4 156.502C178.3 156.402 178.4 156.102 178.3 155.902C178.3 155.902 178.3 155.802 178.2 155.802C177 155.602 176.8 154.302 175.9 153.902C175 153.502 174.2 152.902 173.4 152.502C172.9 152.202 172.5 151.902 172.5 150.702C172.5 150.202 172.6 149.602 173 149.402C173.3 149.202 173.6 149.102 173.8 149.102C174.2 149.102 174.6 149.102 175 149.202C175.8 149.302 176.8 149.202 177.3 149.902C177.5 150.102 177.9 150.002 177.8 150.602C177.8 150.602 177.8 150.802 177.9 150.802C179.2 150.802 179.8 151.902 180.7 152.602C181.4 153.202 182.5 153.402 182.9 154.202C183.7 154.202 184 154.702 184.2 155.202C184.9 157.002 186.3 158.102 187.2 159.502C188.2 161.002 189.3 162.402 190.2 163.902C190.4 164.202 190.8 164.202 190.8 164.602C190.8 165.002 191.2 165.302 191.3 165.602C191.5 165.902 191.8 166.202 191.8 166.502C191.8 168.002 193 169.102 193.5 170.702C194 172.302 194 174.202 193.5 175.802C193.3 176.802 193 177.902 192.3 178.702C192 179.002 191.9 179.602 191.2 179.502C191 179.502 191 180.102 190.8 180.302C190.3 180.802 189.7 181.202 189.1 181.502C188.3 182.002 187.4 182.302 186.6 182.702C186.1 182.902 185.7 183.302 185.2 183.502C184.7 183.702 184.1 183.902 183.6 183.902C182.9 183.902 182.2 183.902 181.5 183.902C180.8 183.902 180.1 184.302 179.4 184.102C178.1 183.702 176.9 184.102 175.7 184.002C174.5 184.002 173.3 183.802 172 183.802C171.3 183.802 170.7 183.202 170.1 183.102C169.8 183.102 169.6 181.502 169.9 181.102C169.9 181.102 170 180.902 170.1 180.902C170.8 180.502 171.4 179.902 172.1 180.002C173.1 180.202 174.1 180.202 175.1 180.202L174.7 180.102Z" fill="black"/>
</svg>
