<svg width="300" height="300" viewBox="0 0 300 300" fill="none" xmlns="http://www.w3.org/2000/svg">
<path d="M179.999 136.599C178.899 135.399 177.799 134.199 176.699 133.099C176.299 132.699 176.099 132.099 175.199 131.999C174.799 131.999 174.899 131.099 174.499 130.699C173.399 129.699 172.499 128.499 171.399 127.499C170.399 126.499 169.199 125.599 168.199 124.599C167.199 123.599 166.399 122.299 165.199 121.499C164.199 120.799 163.799 119.699 162.899 118.899C161.999 118.099 161.099 117.399 160.499 116.599C159.999 115.999 159.499 115.399 158.899 115.199C158.499 115.099 157.999 115.199 157.499 115.099C157.099 114.999 156.599 114.599 156.099 115.099C156.099 115.099 155.899 114.999 155.799 114.899C155.399 114.399 154.699 114.399 154.199 114.599C153.699 114.799 153.299 114.799 152.899 114.799C151.699 114.799 150.499 114.799 149.299 114.799C148.399 114.799 147.499 114.499 146.599 114.499C145.699 114.499 144.699 114.799 143.799 114.499C142.899 114.299 142.099 114.299 141.199 114.499C140.699 114.499 140.099 114.299 139.799 114.999C139.799 114.999 139.599 114.999 139.499 114.999C137.999 114.299 136.799 115.599 135.399 115.599C133.999 115.599 132.499 115.999 131.099 116.399C130.699 116.399 130.299 116.399 129.999 116.899C129.999 117.099 129.499 117.199 129.299 117.099C128.099 116.699 127.099 117.399 125.999 117.599C124.699 117.799 123.699 118.499 122.399 118.399C121.899 118.399 121.099 118.599 120.899 119.299C120.799 119.699 120.199 119.699 119.799 119.899C119.499 120.099 119.399 120.499 119.199 120.699C118.999 120.899 118.599 120.799 118.399 120.899C118.399 120.899 118.199 120.899 118.199 121.099C117.899 121.799 117.399 122.299 116.899 122.899C116.399 123.399 115.899 124.099 115.699 124.899C115.299 126.499 114.899 128.199 114.699 129.899C114.599 130.899 114.299 131.899 113.199 132.599C112.699 132.899 112.099 132.899 111.799 132.399C111.599 132.099 111.399 131.699 111.299 131.299C111.299 130.699 111.099 130.099 111.099 129.399C111.099 128.099 110.699 126.699 111.299 125.399C111.499 124.999 111.299 124.399 111.899 124.199C111.899 124.199 112.099 123.999 112.099 123.899C111.999 121.899 113.399 120.199 114.799 118.699C115.899 117.499 116.999 115.999 118.599 115.399C119.099 114.399 120.199 114.099 121.099 113.899C122.699 113.699 124.099 113.299 125.599 112.899C126.999 112.499 128.399 111.999 129.899 111.799C132.899 111.199 135.799 110.599 138.799 110.299C139.299 110.299 139.699 109.799 140.299 110.099C140.899 110.299 141.599 110.099 142.199 109.999C142.799 109.999 143.399 109.799 143.999 109.899C146.399 110.399 148.699 109.899 151.099 110.099C153.399 110.199 155.799 110.299 158.399 110.799C159.899 111.099 161.699 111.599 162.999 112.699C163.499 113.199 164.299 113.399 164.299 114.299C164.299 114.499 165.099 114.599 165.399 114.899C166.099 115.599 166.799 116.299 167.399 116.999C168.299 117.999 169.199 118.999 170.099 119.899C170.699 120.499 171.399 120.899 171.999 121.399C172.599 121.999 173.199 122.599 173.699 123.299C174.399 124.099 174.999 125.099 175.699 125.899C176.399 126.799 177.399 127.399 177.899 128.399C178.899 130.199 180.399 131.499 181.699 132.999C182.999 134.499 184.299 135.999 185.799 137.299C186.599 138.099 186.899 139.199 187.699 139.999C187.999 140.399 187.399 141.899 186.899 142.099C186.899 142.099 186.699 142.099 186.599 142.099C185.499 141.599 184.299 141.399 183.499 140.499C182.299 139.099 180.999 137.799 179.799 136.499L179.999 136.599Z" fill="black"/>
<path d="M166.099 147.298C166.499 147.098 166.799 146.998 167.199 146.698C167.299 146.698 167.599 146.698 167.499 146.198C167.499 145.898 167.899 146.398 167.999 146.398C168.299 146.198 168.699 146.098 168.999 145.898C169.299 145.698 169.499 145.298 169.799 145.098C170.099 144.898 170.599 145.098 170.799 144.598C170.999 144.198 171.399 144.598 171.599 144.298C171.799 144.098 172.099 143.898 172.499 143.998C172.799 143.998 173.099 144.198 173.199 143.998C173.199 143.898 173.199 143.498 173.399 143.498C173.499 143.498 173.799 143.698 173.699 142.998C173.699 142.998 173.699 142.998 173.899 142.998C174.199 143.298 174.399 143.198 174.399 142.998C174.399 142.698 174.499 142.698 174.599 142.598C174.899 142.498 175.199 142.298 175.499 142.298C175.699 142.298 175.999 142.298 176.299 142.298C176.499 142.298 176.699 141.898 176.999 142.098C177.299 142.298 177.499 142.198 177.699 142.098C177.799 142.098 178.099 142.298 177.899 141.598C178.499 142.298 178.499 141.098 178.899 141.198C179.299 141.198 179.599 140.998 179.999 140.898C179.999 140.898 180.299 140.998 180.199 140.498C180.199 140.298 180.199 140.298 180.399 140.398C180.899 140.898 180.999 140.398 181.299 140.398C181.599 140.398 181.899 139.998 182.299 140.398C182.499 140.598 182.699 140.598 182.699 139.998C182.699 139.698 182.899 139.998 182.999 139.798C182.999 139.798 182.999 139.398 183.199 139.398C183.199 139.398 183.399 139.598 183.499 139.698C183.799 138.898 184.499 139.698 184.899 139.298C185.299 138.998 185.799 138.898 186.299 138.898C186.599 138.898 186.899 138.898 187.399 139.998C187.599 140.498 187.799 140.998 187.699 141.398C187.699 141.698 187.699 141.898 187.599 141.998C187.499 142.098 187.399 142.298 187.299 142.398C187.099 142.698 186.899 143.298 186.599 143.098C186.499 143.098 186.499 143.398 186.199 142.898C185.999 143.798 185.499 143.398 185.099 143.598C184.799 143.798 184.599 144.498 184.199 144.298C184.199 144.998 183.999 144.898 183.699 144.798C182.799 144.398 182.299 144.998 181.599 145.198C180.899 145.298 180.299 145.698 179.599 145.898C179.499 145.898 179.599 146.298 179.299 146.098C179.099 145.898 178.999 146.098 178.799 146.198C178.699 146.198 178.599 146.398 178.399 146.298C177.599 145.898 177.299 146.498 176.699 146.598C176.199 146.698 175.599 146.898 175.199 147.298C174.899 147.498 174.799 147.998 174.399 147.998C174.199 147.998 174.199 148.398 173.899 147.898C173.799 147.798 173.899 148.198 173.799 148.298C173.599 148.398 173.399 148.498 173.199 148.598C172.899 148.698 172.599 148.798 172.299 148.998C172.099 149.098 172.099 149.398 171.899 149.598C171.699 149.698 171.599 149.798 171.299 149.898C170.999 149.898 170.699 149.898 170.399 149.898C170.099 149.898 169.999 150.298 169.599 150.198C168.899 149.998 168.599 150.398 168.199 150.598C167.699 150.798 167.299 150.898 166.899 151.298C166.699 151.498 166.199 151.198 165.999 151.298C165.899 151.298 165.099 150.098 164.899 149.698V149.498C164.899 148.998 164.799 148.198 165.099 148.098C165.499 147.998 165.899 147.698 166.299 147.498L166.099 147.298Z" fill="black"/>
<path d="M168.6 166.198C168.6 165.898 168.5 165.498 168.3 165.198C168.3 165.098 168.5 164.898 167.9 164.898C167.6 164.898 168.2 164.598 168.2 164.498C168.1 164.198 168.1 163.898 167.9 163.598C167.8 163.298 167.5 163.098 167.3 162.798C167.2 162.498 167.3 162.098 167 161.898C166.7 161.698 167.1 161.398 167 161.198C166.8 160.998 166.7 160.698 166.8 160.398C166.9 160.198 167.1 159.998 166.9 159.798C166.9 159.798 166.5 159.698 166.5 159.598C166.5 159.498 166.7 159.298 166.1 159.298C166.1 159.298 166.1 159.298 166.2 159.198C166.6 158.998 166.5 158.798 166.2 158.798C165.9 158.798 165.9 158.698 165.9 158.598C165.9 158.398 165.7 158.098 165.7 157.898C165.7 157.698 165.9 157.498 165.9 157.298C165.9 157.098 165.6 156.998 165.9 156.698C166.2 156.398 166.1 156.298 166 156.098C166 156.098 166.2 155.798 165.6 155.898C166.3 155.398 165.2 155.398 165.3 155.098C165.4 154.798 165.3 154.498 165.1 154.198C165.1 154.198 165.2 153.998 164.8 153.998C164.6 153.998 164.6 153.998 164.7 153.898C165.2 153.498 164.8 153.398 164.9 153.098C164.9 152.798 164.6 152.598 164.9 152.198C165.1 151.998 165.1 151.898 164.5 151.898C164.2 151.898 164.5 151.698 164.4 151.598C164.4 151.598 164 151.598 164 151.498C164 151.498 164.2 151.298 164.3 151.198C163.6 150.998 164.3 150.398 164 150.098C163.7 149.798 163.7 149.398 163.6 148.998C163.6 148.798 163.6 148.498 164.7 147.998C165.2 147.798 165.7 147.598 166 147.598C166.2 147.598 166.5 147.598 166.6 147.598C166.7 147.598 166.9 147.798 167 147.898C167.3 148.098 167.9 148.198 167.7 148.498C167.7 148.598 168 148.598 167.5 148.798C168.4 148.898 168 149.398 168.1 149.798C168.2 150.098 168.9 150.198 168.7 150.598C169.4 150.598 169.3 150.798 169.2 150.998C168.7 151.798 169.3 152.198 169.4 152.898C169.4 153.498 169.7 154.098 169.8 154.698C169.8 154.798 170.2 154.798 170 154.998C169.8 155.198 170 155.298 170 155.398C170 155.498 170.2 155.598 170 155.798C169.5 156.398 170 156.798 170 157.298C170 157.798 170 158.298 170.4 158.698C170.6 158.998 171 159.198 170.9 159.498C170.9 159.598 171.2 159.698 170.7 159.898C170.5 159.898 171 159.898 171.1 160.098C171.1 160.298 171.2 160.498 171.3 160.698C171.3 160.998 171.3 161.298 171.5 161.498C171.5 161.698 171.9 161.798 172 161.898C172.1 162.098 172.1 162.198 172.1 162.398C172.1 162.598 171.9 162.898 171.9 163.098C171.9 163.298 172.2 163.498 172 163.798C171.6 164.298 172 164.698 172 165.098C172 165.498 172.1 165.898 172.3 166.298C172.4 166.498 172 166.798 172.1 167.098C172.1 167.098 170.7 167.698 170.2 167.798H170C169.5 167.798 168.7 167.798 168.7 167.398C168.7 166.998 168.5 166.698 168.4 166.298L168.6 166.198Z" fill="black"/>
<path d="M162.2 186.199C162.3 185.799 162.5 185.399 162.5 184.999C162.5 184.799 162.8 184.799 162.4 184.499C162.2 184.299 162.8 184.399 162.8 184.199C162.8 183.799 163.1 183.499 163.1 183.099C163.1 182.699 163.1 182.299 163.1 181.899C163.1 181.499 163.6 181.299 163.4 180.799C163.2 180.399 163.8 180.299 163.8 179.999C163.8 179.699 163.8 179.299 164.1 179.099C164.3 178.899 164.6 178.799 164.6 178.599C164.6 178.399 164.3 178.199 164.4 178.099C164.4 177.999 164.8 177.899 164.2 177.599C164.2 177.599 164.2 177.599 164.4 177.599C164.8 177.599 164.9 177.399 164.6 177.199C164.4 176.999 164.5 176.899 164.5 176.799C164.5 176.499 164.6 176.199 164.8 175.899C164.9 175.699 165.2 175.599 165.4 175.399C165.5 175.199 165.4 174.899 165.7 174.699C166.1 174.599 166.1 174.399 166.2 174.199C166.2 174.099 166.6 173.999 166 173.699C166.9 173.699 166 172.999 166.3 172.699C166.6 172.399 166.6 171.999 166.7 171.699C166.7 171.699 166.9 171.599 166.5 171.299C166.4 171.299 166.4 171.099 166.5 171.099C167.2 171.099 166.9 170.599 167.1 170.399C167.3 170.099 167.1 169.699 167.7 169.599C167.9 169.599 168.1 169.399 167.6 169.099C167.4 168.899 167.6 168.899 167.6 168.799C167.6 168.699 167.3 168.499 167.4 168.399C167.4 168.399 167.7 168.399 167.8 168.299C167.3 167.699 168.3 167.499 168.2 166.999C168.2 166.699 168.2 166.599 168.2 166.299C168.2 165.999 168.4 165.699 168.6 165.299C168.8 164.899 169.3 164.499 170.4 165.099C170.9 165.299 171.3 165.699 171.5 165.999C171.6 166.199 171.8 166.399 171.8 166.499C171.8 166.599 171.9 166.799 172 166.899C172.1 167.099 172.6 167.399 172.2 167.699C172.1 167.699 172.3 167.999 171.8 167.899C172.5 168.499 171.8 168.899 171.8 169.299C171.8 169.699 172.2 170.199 171.8 170.499C172.3 170.899 172.2 171.099 171.9 171.199C171 171.699 171.2 172.499 170.9 173.199C170.6 173.899 170.4 174.599 170.1 175.299C170.1 175.399 170.4 175.599 170.1 175.699C169.8 175.699 169.9 175.999 169.9 176.099C169.9 176.199 169.9 176.399 169.7 176.499C168.9 176.799 169.1 177.499 168.8 177.999C168.5 178.499 168.3 178.999 168.3 179.599C168.3 179.999 168.5 180.399 168.3 180.699C168.2 180.799 168.5 181.099 167.9 180.999C167.7 180.999 168.1 181.299 168.1 181.399C168.1 181.599 168 181.899 167.9 182.099C167.8 182.399 167.6 182.699 167.6 183.099C167.6 183.299 167.7 183.599 167.7 183.799C167.7 183.999 167.7 184.199 167.5 184.399C167.3 184.599 167.1 184.799 166.9 185.099C166.8 185.299 166.9 185.699 166.6 185.899C166 186.199 166.1 186.799 165.9 187.199C165.7 187.599 165.5 188.099 165.5 188.599C165.5 188.899 165 188.999 164.9 189.199C164.9 189.299 163.4 189.199 162.9 188.999H162.7C162.3 188.599 161.7 188.199 161.8 187.899C162 187.399 162.1 186.999 162.2 186.499V186.199Z" fill="black"/>
<path d="M150.999 135.801C150.999 136.001 150.899 136.101 150.899 136.301C150.899 136.301 150.599 136.301 151.099 136.601C151.399 136.601 150.699 136.601 150.699 136.601C150.699 136.801 150.699 136.901 150.699 137.101C150.699 137.301 150.899 137.501 150.899 137.601C150.899 137.801 150.599 137.901 150.899 138.101C151.199 138.301 150.599 138.301 150.699 138.401C150.799 138.601 150.899 138.701 150.699 138.801C150.499 138.801 150.299 138.901 150.399 139.001C150.399 139.001 150.799 139.201 150.699 139.201C150.699 139.201 150.399 139.201 150.999 139.401C150.999 139.401 150.999 139.401 150.799 139.401C150.399 139.401 150.399 139.401 150.699 139.601C150.999 139.601 150.899 139.701 150.899 139.801C150.899 139.901 150.899 140.101 150.899 140.201C150.899 140.201 150.599 140.401 150.499 140.501C150.499 140.501 150.699 140.701 150.399 140.801C150.099 140.801 150.099 141.001 150.099 141.101C150.099 141.101 149.799 141.201 150.399 141.301C149.599 141.401 150.599 141.601 150.399 141.801C150.199 142.001 150.399 142.101 150.399 142.301C150.399 142.301 150.199 142.301 150.699 142.401C150.899 142.401 150.899 142.401 150.699 142.401C150.099 142.501 150.499 142.601 150.299 142.801C150.199 142.901 150.499 143.101 149.999 143.201C149.799 143.201 149.699 143.401 150.299 143.401C150.599 143.401 150.299 143.501 150.299 143.601C150.299 143.601 150.599 143.601 150.599 143.701C150.599 143.701 150.399 143.701 150.299 143.801C150.999 144.001 150.099 144.201 150.299 144.401C150.499 144.601 150.399 144.801 150.299 145.001C150.299 145.101 150.099 145.301 148.899 145.401C148.399 145.401 147.799 145.501 147.499 145.501C147.299 145.501 146.999 145.501 146.999 145.501C146.899 145.501 146.799 145.401 146.699 145.301C146.499 145.201 145.899 145.101 146.199 144.901C146.199 144.901 145.999 144.901 146.499 144.701C145.699 144.501 146.199 144.301 146.099 144.101C146.099 143.901 145.399 143.801 145.699 143.601C145.099 143.601 145.199 143.401 145.399 143.301C146.099 142.901 145.599 142.601 145.699 142.201C145.699 141.801 145.699 141.501 145.699 141.101C145.699 141.101 145.399 141.001 145.699 140.901C145.999 140.901 145.699 140.701 145.699 140.701C145.699 140.701 145.599 140.501 145.699 140.501C146.399 140.301 145.999 139.901 146.099 139.701C146.199 139.401 146.299 139.101 146.099 138.801C146.099 138.601 145.699 138.401 145.899 138.201C145.899 138.201 145.599 138.001 146.199 138.001C146.399 138.001 145.899 137.901 145.899 137.801C145.899 137.701 145.899 137.601 145.899 137.401C145.899 137.201 145.999 137.101 145.899 136.901C145.899 136.801 145.699 136.601 145.599 136.501C145.599 136.401 145.599 136.301 145.599 136.201C145.699 136.101 145.899 136.001 145.999 135.901C145.999 135.801 145.899 135.601 146.199 135.501C146.799 135.401 146.599 135.101 146.699 134.801C146.799 134.601 146.899 134.401 146.899 134.101C146.899 133.901 147.399 134.001 147.399 133.801C147.399 133.801 148.899 134.101 149.299 134.201H149.499C149.899 134.501 150.599 134.801 150.499 134.901C150.399 135.101 150.399 135.301 150.299 135.501L150.999 135.801Z" fill="black"/>
<path d="M162.3 135.801C162.3 136.001 162.2 136.101 162.2 136.301C162.2 136.301 161.9 136.301 162.4 136.601C162.7 136.601 162 136.601 162 136.601C162 136.801 162 136.901 162 137.101C162 137.301 162.2 137.501 162.2 137.601C162.2 137.801 161.9 137.901 162.2 138.101C162.5 138.301 161.9 138.301 162 138.401C162.1 138.601 162.2 138.701 162 138.801C161.8 138.801 161.6 138.901 161.7 139.001C161.7 139.001 162.1 139.201 162 139.201C162 139.201 161.7 139.201 162.3 139.401C162.3 139.401 162.3 139.401 162.1 139.401C161.7 139.401 161.7 139.401 162 139.601C162.3 139.601 162.2 139.701 162.2 139.801C162.2 139.901 162.2 140.101 162.2 140.201C162.2 140.201 161.9 140.401 161.8 140.501C161.8 140.501 162 140.701 161.7 140.801C161.4 140.801 161.4 141.001 161.4 141.101C161.4 141.101 161.1 141.201 161.7 141.301C160.9 141.401 161.9 141.601 161.7 141.801C161.5 142.001 161.7 142.101 161.7 142.301C161.7 142.301 161.5 142.301 162 142.401C162.2 142.401 162.2 142.401 162 142.401C161.4 142.501 161.8 142.601 161.6 142.801C161.5 142.901 161.8 143.101 161.3 143.201C161.1 143.201 161 143.401 161.6 143.401C161.9 143.401 161.6 143.501 161.6 143.601C161.6 143.601 161.9 143.601 161.9 143.701C161.9 143.701 161.7 143.701 161.6 143.801C162.3 144.001 161.4 144.201 161.6 144.401C161.8 144.601 161.7 144.801 161.6 145.001C161.6 145.101 161.4 145.301 160.2 145.401C159.7 145.401 159.1 145.501 158.8 145.501C158.6 145.501 158.3 145.501 158.3 145.501C158.2 145.501 158.1 145.401 158 145.301C157.8 145.201 157.2 145.101 157.5 144.901C157.5 144.901 157.3 144.901 157.8 144.701C157 144.501 157.5 144.301 157.4 144.101C157.4 143.901 156.7 143.801 157 143.601C156.4 143.601 156.5 143.401 156.7 143.301C157.4 142.901 156.9 142.601 157 142.201C157 141.801 157 141.501 157 141.101C157 141.101 156.7 141.001 157 140.901C157.3 140.901 157 140.701 157 140.701C157 140.701 156.9 140.501 157 140.501C157.7 140.301 157.3 139.901 157.4 139.701C157.5 139.401 157.6 139.101 157.4 138.801C157.4 138.601 157 138.401 157.2 138.201C157.2 138.201 156.9 138.001 157.5 138.001C157.7 138.001 157.2 137.901 157.2 137.801C157.2 137.701 157.2 137.601 157.2 137.401C157.2 137.201 157.3 137.101 157.2 136.901C157.2 136.801 157 136.601 156.9 136.501C156.9 136.401 156.9 136.301 156.9 136.201C157 136.101 157.2 136.001 157.3 135.901C157.3 135.801 157.2 135.601 157.5 135.501C158.1 135.401 157.9 135.101 158 134.801C158.1 134.601 158.2 134.401 158.2 134.101C158.2 133.901 158.7 134.001 158.7 133.801C158.7 133.801 160.2 134.101 160.6 134.201H160.8C161.2 134.501 161.9 134.801 161.8 134.901C161.7 135.101 161.7 135.301 161.6 135.501L162.3 135.801Z" fill="black"/>
<path d="M162.599 169.697C162.399 169.697 162.099 169.797 161.899 169.897C161.899 169.897 161.699 169.697 161.699 170.297C161.699 170.597 161.499 169.997 161.399 169.997C161.199 170.097 160.899 169.997 160.699 170.197C160.499 170.197 160.299 170.597 159.999 170.597C159.799 170.597 159.499 170.397 159.299 170.697C159.099 170.997 158.899 170.497 158.699 170.697C158.499 170.797 158.299 170.897 158.099 170.697C157.999 170.497 157.799 170.297 157.699 170.397C157.699 170.397 157.499 170.797 157.399 170.697C157.399 170.697 157.199 170.397 157.099 170.997C157.099 170.997 157.099 170.997 157.099 170.797C157.099 170.397 156.899 170.397 156.799 170.697C156.699 170.997 156.599 170.897 156.499 170.897C156.299 170.897 156.099 170.897 155.899 170.897C155.799 170.897 155.699 170.597 155.499 170.497C155.399 170.497 155.099 170.697 155.099 170.297C155.099 169.997 154.899 169.897 154.799 169.897C154.799 169.897 154.799 169.597 154.499 170.197C154.499 169.397 153.999 170.297 153.799 169.997C153.599 169.697 153.399 169.797 153.099 169.697C153.099 169.697 153.099 169.497 152.799 169.897C152.799 169.997 152.599 169.997 152.699 169.897C152.699 169.197 152.499 169.497 152.299 169.397C152.199 169.197 151.799 169.397 151.899 168.797C151.899 168.597 151.899 168.397 151.499 168.797C151.299 168.997 151.399 168.797 151.299 168.797L150.999 168.997C150.999 168.997 150.999 168.697 150.999 168.597C150.399 168.997 150.599 168.097 150.299 167.997C149.899 167.997 149.699 167.697 149.499 167.397C149.499 167.197 149.399 166.997 150.099 166.097C150.399 165.697 150.799 165.297 151.099 165.097C151.299 164.997 151.499 164.797 151.599 164.797C151.699 164.797 151.899 164.797 151.999 164.697C152.199 164.697 152.699 164.297 152.599 164.697C152.599 164.697 152.799 164.597 152.599 164.997C153.199 164.497 153.099 164.997 153.299 164.997C153.499 164.997 153.899 164.597 153.899 164.997C154.299 164.497 154.299 164.597 154.299 164.797C154.299 165.497 154.799 165.297 154.999 165.497C155.299 165.697 155.599 165.697 155.899 165.897C155.899 165.897 156.099 165.597 156.099 165.897C156.099 166.197 156.199 165.897 156.299 165.997H156.499C156.599 166.697 156.999 166.397 157.199 166.497C157.499 166.497 157.699 166.697 157.999 166.497C158.199 166.497 158.299 166.097 158.499 166.197C158.499 166.197 158.599 165.897 158.699 166.497C158.699 166.697 158.699 166.197 158.799 166.197C158.899 166.197 158.999 166.197 159.099 166.197C159.199 166.197 159.399 166.197 159.499 166.197C159.499 166.197 159.699 165.897 159.699 165.797C159.699 165.797 159.899 165.797 159.999 165.797C160.099 165.797 160.299 165.997 160.399 166.097C160.499 166.097 160.599 165.797 160.799 166.097C161.099 166.497 161.299 166.197 161.499 166.197C161.699 166.197 161.999 166.197 162.099 165.997C162.099 165.897 162.499 166.297 162.599 166.297C162.599 166.297 163.299 167.597 163.499 168.097V168.297C163.499 168.797 163.699 169.497 163.499 169.497C163.199 169.497 162.899 169.697 162.699 169.797L162.599 169.697Z" fill="black"/>
<path d="M135.299 196.299C135.599 194.799 135.699 193.299 135.299 191.799C135.099 191.299 135.299 190.599 134.499 190.199C134.099 189.999 134.499 189.199 134.199 188.699C133.499 187.299 132.699 185.899 131.799 184.399C130.899 182.999 129.899 181.699 129.199 179.799C128.899 178.899 128.699 177.799 128.699 176.699C128.699 175.599 128.999 174.599 129.199 173.599C129.599 171.799 130.899 170.899 131.699 169.699C132.599 168.399 133.699 167.399 134.699 166.599C135.499 166.099 136.299 165.599 136.699 164.799C136.999 164.299 136.999 163.799 137.299 163.299C137.599 162.899 138.099 162.499 137.699 161.799C137.699 161.799 137.899 161.599 137.999 161.499C138.599 161.099 138.799 160.499 138.599 159.899C138.399 159.399 138.599 158.999 138.599 158.599C138.699 157.499 138.599 156.399 138.599 155.299C138.499 154.499 138.499 153.599 138.199 152.699C137.899 151.799 137.199 150.999 136.999 149.999C136.799 148.999 136.299 148.199 135.899 147.299C135.599 146.799 135.599 146.099 134.799 145.899C134.799 145.899 134.599 145.699 134.599 145.599C134.599 143.799 133.099 142.599 132.799 140.899C132.499 139.099 131.999 137.399 131.699 135.599C131.699 135.099 131.699 134.599 131.299 134.199C131.099 134.099 131.099 133.499 131.199 133.299C131.799 131.899 131.399 130.499 131.699 129.099C131.999 127.599 131.999 125.899 132.999 124.499C133.399 123.899 133.799 123.099 133.599 122.099C133.599 121.599 134.099 120.999 134.299 120.499C134.499 119.999 134.499 119.499 134.699 119.099C134.899 118.699 135.299 118.499 135.699 118.199C135.699 118.199 135.899 117.999 135.899 117.899C136.299 116.699 137.099 115.799 138.099 115.099C138.999 114.299 139.999 113.699 140.999 112.899C142.899 111.399 145.299 110.399 147.899 110.099C149.299 109.899 150.899 110.199 151.599 111.499C151.899 112.099 151.699 112.599 151.199 112.899C150.799 113.099 150.399 113.299 149.999 113.299C149.399 113.299 148.799 113.599 148.199 113.699C146.999 114.099 146.099 114.999 144.899 115.299C144.499 115.299 144.299 115.899 143.699 115.599C143.699 115.599 143.499 115.599 143.399 115.599C142.399 117.199 140.799 117.899 139.799 119.399C138.899 120.599 138.699 122.099 137.899 123.399C138.099 124.399 137.699 125.199 137.299 125.899C136.599 127.199 136.199 128.599 136.099 130.099C135.999 131.599 136.099 133.099 136.199 134.499C136.399 137.499 137.399 140.499 138.599 143.299C138.799 143.799 139.299 143.999 139.399 144.699C139.399 145.299 139.999 145.899 140.299 146.599C140.599 147.199 141.099 147.699 141.199 148.399C141.499 149.699 141.999 150.999 142.499 152.399C142.999 153.799 143.299 155.199 143.299 156.699C143.299 159.599 142.499 162.499 141.199 165.099C140.399 166.699 139.399 168.299 138.099 169.299C137.599 169.799 137.299 170.499 136.399 170.499C136.099 170.499 135.999 171.299 135.799 171.599C135.199 172.299 134.599 172.999 134.099 173.799C133.499 174.799 133.099 175.899 133.199 176.799C133.199 177.399 133.699 177.999 133.999 178.599C134.299 179.299 134.699 180.099 135.099 180.899C135.599 181.899 135.999 183.099 136.599 184.199C137.199 185.299 138.099 186.499 138.299 187.799C138.499 188.999 138.899 190.199 139.099 191.499C139.299 192.799 139.399 194.099 139.299 195.399C138.999 197.999 137.999 200.299 136.499 202.399C135.699 203.599 134.399 204.199 133.299 204.999C132.999 205.199 132.499 204.999 132.099 204.799C131.699 204.599 131.299 204.199 131.299 203.899C131.299 203.799 131.299 203.699 131.299 203.599C131.999 202.599 132.299 201.499 133.099 200.599C134.299 199.399 134.999 197.699 135.399 195.999L135.299 196.299Z" fill="black"/>
<path d="M92.7 195.8C92.3 194 92.9 192.5 93.2 191.3C93.3 190.8 93.8 190.5 93.4 189.9C93.2 189.6 94 189.4 94.2 189C94.6 187.9 95.3 186.9 95.8 185.9C96.3 184.9 96.8 183.8 97.5 182.9C98.2 182 99.2 181.3 99.7 180.3C100.2 179.4 101.1 179.3 101.4 178.7C101.8 178.1 101.9 177.7 102.2 177.4C102.4 177.2 102.6 176.8 102.4 176.5C102.3 176.3 101.9 176.2 101.7 175.9C101.6 175.6 101.7 175.1 100.9 175.2C100.9 175.2 100.9 175 100.9 174.9C101 174.3 100.7 173.9 100.3 173.8C99.9 173.6 99.7 173.3 99.5 173C98.9 172.1 98.4 171.1 98.2 170C98 169.2 98 168.4 98 167.6C98 166.8 97.6 165.9 97.9 165.2C98.2 164.4 98.2 163.7 98.3 163C98.3 162.6 98.7 162.2 98.2 161.7C98.2 161.7 98.2 161.5 98.2 161.4C98.8 160.9 98.8 160.3 98.9 159.7C98.9 159.1 99 158.4 99.4 157.9C100.2 156.9 100.8 155.8 101.5 154.8C101.7 154.6 102.1 154.4 101.9 153.9C101.9 153.7 102 153.5 102.2 153.4C103.2 153.2 103.5 152.3 104.2 151.8C104.9 151.2 105.3 150.4 106.2 150C106.6 149.8 107 149.5 106.7 148.8C106.6 148.5 107 148.3 107.1 148C107.1 147.8 107.1 147.4 107.1 147.2C107.1 147 107.5 146.9 107.7 146.8C107.7 146.8 107.7 146.7 107.7 146.6C107.7 145.2 108.9 144.4 109 143.2C109.1 142 109.4 140.8 109.5 139.6C109.5 138.9 109.7 138.3 110.8 137.6C111.3 137.3 111.8 137.2 112.2 137.6C112.5 137.8 112.7 138.1 112.8 138.4C112.9 138.9 113.1 139.3 113.2 139.8C113.4 140.8 113.8 141.8 113.4 142.8C113.3 143.1 113.4 143.5 112.9 143.7C112.9 143.7 112.8 143.8 112.8 143.9C113.3 145.4 112.3 146.6 111.8 147.9C111.4 149 111.4 150.3 110.5 151.2C110.7 152.1 110.1 152.7 109.6 153.1C107.6 154.5 106.4 156.3 105.1 157.8C104.4 158.5 103.9 159.3 103.4 160.1C103 160.9 102.7 161.7 102.4 162.6C102.4 162.9 102.6 163.2 102.3 163.5C102 163.8 102.1 164.3 102.1 164.6C102.1 165 102.2 165.3 102.1 165.7C101.5 167.2 102.2 168.6 102.7 169.9C103 170.6 103.3 171.2 103.7 171.9C104.1 172.6 104.7 173.3 105.2 174.1C105.5 174.6 105.9 175.2 106.2 175.9C106.5 176.6 106.6 177.4 106.4 178.3C106.3 179 106.4 179.9 105.5 180.1C105.3 180.1 105.4 180.9 105.2 181.2C104.7 182 104.1 182.6 103.6 183.1C102.9 183.8 102.3 184.4 101.7 185.1C101.4 185.5 101.2 186.1 100.9 186.6C100.6 187.1 100.3 187.6 99.9 188C99.4 188.6 98.9 189.1 98.5 189.7C98.1 190.3 98 191.2 97.5 191.7C97 192.2 96.7 192.8 96.5 193.5C96.3 194.1 96.2 194.7 96.2 195.1C96.2 195.5 96.2 195.8 96.4 196.2C96.6 196.6 97 197 97.6 197.4C98.2 197.9 98.5 198.8 99.1 199.5C99.2 199.7 99.1 200.1 98.9 200.5C98.7 200.9 98.3 201.2 98 201.3C98 201.3 97.8 201.3 97.7 201.3C96.9 201 96 201.2 95.4 200.5C94.9 200 94.4 199.5 93.8 198.8C93.3 198.1 92.7 197.3 92.5 196.3L92.7 195.8Z" fill="black"/>
<path d="M190.5 197.299C190.5 196.399 190.5 195.499 190.2 194.599C190.1 194.299 190.2 193.899 189.6 193.799C189.3 193.799 189.7 193.199 189.6 192.999C189.4 192.599 189.1 192.299 188.9 191.999C188.6 191.699 188.3 191.299 187.9 190.899C187.2 190.199 186.2 189.599 185.5 188.499C184.7 187.399 184.5 185.699 184.3 184.299C184.3 183.599 184.4 183.099 184.7 182.599C185 182.099 185.2 181.699 185.4 181.299C185.7 180.399 186.2 179.599 186.7 179.099C187.1 178.699 187.5 178.399 187.5 177.899C187.5 177.599 187.3 177.299 187.3 177.099C187.3 176.899 187.6 176.499 187 176.299C187 176.299 187 176.199 187.1 176.099C187.5 175.799 187.4 175.299 187.1 175.099C186.8 174.799 186.8 174.599 186.7 174.299C186.5 173.599 186.4 172.999 186.2 172.499C186.1 172.099 186.1 171.699 185.9 171.299C185.7 170.899 185.1 170.799 184.9 170.299C184.7 169.799 184.2 169.499 183.7 169.299C183.4 169.199 183.2 168.699 182.7 169.299H182.5C182 168.199 180.6 168.799 179.7 168.099C179.6 167.999 179.4 167.899 179.3 167.799C179.1 167.699 178.8 167.499 178.6 167.399C178.2 167.099 177.7 166.799 177.4 166.399C176.9 165.799 176.6 164.999 176.5 164.299C176.5 163.799 176.7 163.299 176.3 162.799C176.2 162.599 176.3 161.999 176.5 161.899C177 161.499 177.2 161.099 177.4 160.699C177.6 160.299 177.7 159.899 177.8 159.699C178.2 159.099 178 158.399 178.6 157.699C178.8 157.399 179 156.999 178.4 156.599C178.1 156.399 178.4 156.099 178.3 155.799C178.3 155.599 177.9 155.399 177.9 155.199C177.9 154.999 178 154.799 178.1 154.599C178.1 154.599 178.1 154.499 178.1 154.399C177.6 153.999 177.5 153.599 177.4 153.099C177.3 152.599 177.1 152.099 176.7 151.699C175.9 150.999 175.2 150.299 174.3 149.699C173.8 149.399 173.4 148.999 173.4 147.699C173.4 147.099 173.5 146.599 173.9 146.399C174.2 146.199 174.6 146.199 174.8 146.199C175.3 146.299 175.7 146.399 176.2 146.499C177.1 146.799 178.2 146.999 178.8 147.999C179 148.299 179.4 148.399 179.2 148.899V149.099C180.7 149.599 181 151.199 181.5 152.499C181.9 153.599 182.8 154.599 182.6 155.899C183.3 156.499 183.1 157.399 182.9 158.099C182.4 159.299 182.1 160.399 181.6 161.599C181.4 162.099 181.2 162.499 181.1 162.899C180.9 163.399 181 163.299 181 163.399C181 163.399 181 163.599 181 163.699C181 163.699 181.1 163.699 181.2 163.799L182 164.199L184 165.099C184.3 165.199 184.8 165.099 185 165.499C185.3 165.899 185.8 165.999 186.3 166.199C186.7 166.399 187.2 166.599 187.5 166.999C188.1 167.799 188.8 168.599 189.4 169.499C190 170.399 190.4 171.299 190.7 172.199C190.9 173.099 191 173.999 191.1 174.799C191.1 175.699 191.3 176.599 191.2 177.599C191.2 178.799 191 180.299 190.3 181.099C190 181.499 190.1 182.099 189.4 182.099C189.2 182.099 189.4 182.699 189.3 182.899C189 183.499 188.8 183.899 188.7 184.299C188.5 184.799 188.5 185.199 188.7 185.599C188.8 185.899 189.2 185.999 189.5 186.299C189.8 186.599 190.1 186.999 190.4 187.399C190.8 187.999 191.2 188.699 191.7 189.399C192.2 190.099 193.1 190.899 193.2 191.799C193.5 193.499 194.1 194.999 194.1 196.699C194.1 198.299 193.8 199.899 193.3 201.499C193 202.399 192.2 202.899 191.7 203.599C191.4 203.999 190 203.399 189.7 202.999C189.7 202.999 189.6 202.799 189.6 202.699C189.6 201.899 189.3 200.999 189.6 200.499C190.1 199.599 190.2 198.599 190.3 197.499L190.5 197.299Z" fill="black"/>
<path d="M161.799 203.201C161.699 202.901 161.599 202.601 161.399 202.301C161.399 202.201 161.499 202.001 160.999 202.101C160.699 202.101 161.299 201.801 161.199 201.701C160.999 201.401 160.999 201.101 160.899 200.901C160.699 200.601 160.499 200.401 160.299 200.101C160.199 199.801 160.299 199.501 159.999 199.301C159.699 199.101 160.099 198.801 159.999 198.601C159.799 198.401 159.699 198.101 159.999 197.801C160.199 197.601 160.299 197.401 160.199 197.201C160.199 197.101 159.799 197.001 159.799 196.901C159.799 196.801 160.099 196.601 159.399 196.601C159.399 196.601 159.399 196.601 159.499 196.601C159.899 196.501 159.899 196.301 159.499 196.201C159.199 196.201 159.199 196.001 159.199 195.901C159.199 195.601 159.199 195.401 159.199 195.101C159.199 194.901 159.499 194.701 159.599 194.501C159.599 194.301 159.399 194.101 159.699 193.901C159.999 193.701 159.999 193.601 159.999 193.401C159.999 193.301 160.299 193.201 159.699 193.101C160.599 192.901 159.499 192.501 159.699 192.201C159.999 191.901 159.899 191.601 159.899 191.301C159.899 191.301 160.099 191.201 159.699 191.001C159.599 191.001 159.599 190.801 159.699 190.801C160.399 190.801 160.099 190.401 160.199 190.201C160.399 190.001 160.199 189.701 160.699 189.601C160.899 189.601 161.099 189.501 160.599 189.201C160.399 189.101 160.599 189.001 160.599 189.001C160.599 189.001 160.299 188.801 160.299 188.701C160.299 188.701 160.599 188.701 160.699 188.701C160.099 188.201 161.099 188.201 160.899 187.901C160.799 187.601 160.899 187.401 160.899 187.301C160.899 187.201 161.099 187.101 162.299 186.901C162.799 186.901 163.399 186.701 163.699 186.801C163.899 186.801 164.199 186.901 164.199 187.001C164.199 187.101 164.399 187.301 164.499 187.401C164.699 187.701 165.199 188.001 164.899 188.301C164.899 188.301 165.099 188.501 164.599 188.501C165.299 189.001 164.599 189.301 164.599 189.601C164.599 189.901 165.099 190.401 164.699 190.501C165.299 190.801 165.099 191.001 164.899 191.001C164.099 191.301 164.399 191.801 164.199 192.201C163.999 192.601 163.999 193.101 163.899 193.501C163.899 193.501 164.199 193.701 163.899 193.701C163.599 193.701 163.899 193.901 163.899 194.001C163.899 194.001 163.999 194.201 163.899 194.301C163.199 194.601 163.599 195.001 163.499 195.401C163.499 195.801 163.399 196.101 163.499 196.501C163.599 196.701 163.999 196.901 163.899 197.101C163.899 197.201 164.199 197.201 163.599 197.401C163.399 197.401 163.899 197.401 163.899 197.501C163.899 197.601 163.899 197.801 163.899 197.901C163.899 198.101 163.899 198.301 164.099 198.501C164.099 198.601 164.399 198.701 164.499 198.801C164.499 198.901 164.599 199.001 164.599 199.201C164.599 199.401 164.399 199.601 164.399 199.801C164.399 200.001 164.699 200.101 164.499 200.301C164.099 200.801 164.499 201.001 164.499 201.301C164.499 201.601 164.699 201.901 164.999 202.101C165.199 202.201 164.799 202.601 164.999 202.801C164.999 202.801 163.899 203.801 163.399 204.001H163.199C162.699 204.001 161.999 204.301 161.899 204.001C161.799 203.601 161.599 203.301 161.399 203.001L161.799 203.201Z" fill="black"/>
<path d="M121.099 202.898C120.499 202.498 119.999 201.998 119.499 201.498C119.499 201.498 119.499 201.398 119.399 201.298C119.399 201.298 119.399 201.298 119.099 201.498C118.899 201.698 119.299 201.098 119.199 201.098C119.199 201.098 119.099 200.798 118.999 200.798C118.999 200.798 118.899 200.998 118.799 201.098C118.799 201.098 118.799 200.698 118.799 200.798V201.198C118.799 200.798 118.799 201.898 118.799 201.198C118.799 201.498 118.799 201.598 118.799 201.398C118.799 201.198 118.599 200.998 118.599 201.198C118.599 201.198 118.599 201.298 118.599 201.398C118.599 201.598 118.599 201.698 118.599 201.698C118.599 201.698 118.399 201.498 118.699 201.998C118.699 201.998 118.699 201.998 118.699 201.898C118.599 201.698 118.499 201.698 118.499 201.698C118.499 201.698 118.399 201.898 118.399 202.098C118.399 202.498 118.299 202.598 118.099 202.698C117.699 203.098 117.299 203.498 116.799 203.698C116.399 203.898 115.999 203.898 115.599 204.098C115.199 204.298 114.899 204.698 114.399 204.598C113.899 204.498 113.599 204.598 113.299 204.698C113.099 204.698 112.799 204.598 112.799 205.198C112.799 205.198 112.799 205.198 112.699 205.198C111.899 204.498 111.599 205.698 110.999 205.598C110.399 205.498 109.799 205.598 109.099 205.698C108.899 205.698 108.799 205.498 108.599 205.998C108.599 206.198 108.399 206.198 108.299 205.998C107.899 205.398 107.399 205.698 106.899 205.598C106.399 205.398 105.799 205.598 105.399 205.098C105.199 204.898 104.999 204.698 104.599 205.198C104.399 205.398 104.199 205.198 103.999 205.198C103.799 205.198 103.599 205.398 103.499 205.398C103.399 205.398 103.299 205.098 103.199 204.998C103.199 204.998 103.199 204.998 103.099 204.998C102.199 205.398 101.699 204.298 100.899 204.198C100.099 204.098 99.399 203.598 98.699 202.998C98.299 202.698 97.999 202.198 98.599 201.198C98.799 200.698 99.1991 200.298 99.4991 200.198C99.6991 200.098 99.999 199.998 100.099 199.998C100.299 199.998 100.499 199.998 100.699 199.998C101.099 199.998 101.699 199.798 101.899 200.198C101.899 200.298 102.199 200.198 102.099 200.598V200.698C102.899 200.198 103.199 200.798 103.799 200.898C104.299 200.898 104.899 200.498 105.299 200.898C105.699 200.298 105.899 200.498 106.199 200.698C106.999 201.498 107.999 201.098 108.799 201.198C109.699 201.198 110.599 201.098 111.399 200.898C111.499 200.898 111.599 200.498 111.799 200.698C111.999 200.898 112.199 200.698 112.299 200.598C112.499 200.598 112.599 200.298 112.799 200.398C113.699 200.698 114.099 199.998 114.699 199.698C114.999 199.498 115.299 199.298 115.499 199.098C115.499 199.098 115.899 198.698 115.999 198.398C116.199 198.098 116.399 197.798 116.499 197.298L116.699 196.798V196.498L116.799 196.098C116.999 195.998 117.299 195.898 117.499 195.798C117.699 195.798 117.899 195.798 118.099 195.798C118.299 195.798 118.399 195.498 118.599 195.998C118.599 196.098 118.699 195.698 118.799 195.698C118.999 195.698 119.099 195.598 119.099 195.498C119.099 195.498 119.099 195.398 119.199 195.398C119.199 195.498 119.199 195.398 119.399 195.398C119.499 195.398 119.599 195.398 119.799 195.398C119.799 195.398 119.899 195.398 119.999 195.398C119.999 195.398 120.199 195.398 120.199 195.498C120.399 195.598 120.499 195.698 120.799 195.798C121.099 195.798 121.299 195.798 121.699 195.798C121.699 196.098 121.799 196.398 121.899 196.698C121.899 196.998 121.899 197.298 121.999 197.498C121.999 197.898 122.199 198.298 122.299 198.598C122.299 198.598 122.299 198.698 122.399 198.798C122.399 198.798 122.399 198.798 122.399 198.898C122.399 198.898 122.399 198.998 122.499 199.098C122.699 199.298 122.899 199.498 123.099 199.598C123.499 199.998 123.899 200.298 124.499 200.398C124.799 200.398 124.899 200.998 125.199 201.098C125.299 201.098 125.199 202.598 125.199 203.098C125.199 203.098 125.199 203.298 125.099 203.298C124.599 203.698 123.999 204.298 123.399 203.998C122.699 203.598 121.899 203.298 121.199 202.798L121.099 202.898Z" fill="black"/>
<path d="M179.5 204.198C179 204.198 178.6 204.098 178.2 203.898C178 203.898 177.8 203.698 177.7 203.698C177.6 203.698 177.6 203.698 177.5 203.698C177.5 203.698 177.5 203.398 177.3 203.898C177.3 204.198 177.3 203.498 177.3 203.398C177.3 203.398 177.2 203.298 177.1 203.198C177.1 203.198 177.1 203.498 177.1 203.598C177.1 203.598 177.1 203.498 177.1 203.398C177.1 203.298 177.1 203.398 177.1 203.798C177 203.398 177.2 204.398 177.1 203.798C177.1 204.098 177.2 204.198 177.1 203.898C177 203.698 176.8 203.498 176.9 203.698C176.9 203.798 177.2 204.198 177.1 204.198C177.1 204.198 176.9 203.998 177.3 204.498C177.3 204.498 177.3 204.498 177.2 204.398C176.9 204.098 176.9 204.198 177.1 204.398C177.4 204.398 177.2 204.698 177.1 204.898C176.8 205.498 176.4 205.998 175.8 206.398C175.4 206.698 174.8 206.698 174.4 206.898C174 206.998 173.6 207.498 173.1 207.298C172.7 207.098 172.3 207.198 172 207.298C171.8 207.298 171.6 206.998 171.4 207.698C171.4 207.698 171.4 207.698 171.3 207.698C170.8 206.898 170.2 207.998 169.7 207.698C169.2 207.398 168.7 207.498 168.2 207.398C168.1 207.398 168 207.198 167.7 207.598C167.7 207.698 167.5 207.698 167.4 207.598C167.2 206.898 166.7 207.198 166.3 206.998C165.9 206.798 165.4 206.998 165.1 206.298C165 205.998 164.8 205.898 164.4 206.298C164.2 206.498 164.1 206.198 163.9 206.198C163.8 206.198 163.5 206.398 163.4 206.298C163.3 206.298 163.3 205.998 163.2 205.898C162.3 206.198 162.1 205.098 161.5 204.898C160.8 204.698 160.3 204.298 159.9 203.798C159.6 203.498 159.5 203.198 160 202.098C160.2 201.598 160.6 201.198 160.9 200.998C161.1 200.898 161.4 200.798 161.5 200.798C161.7 200.798 161.9 200.798 162.1 200.798C162.5 200.798 163.1 200.598 163.2 200.998C163.2 201.098 163.5 200.998 163.3 201.398V201.498C164.1 201.098 164.2 201.698 164.7 201.898C165.1 201.998 165.7 201.598 165.9 201.998C166.3 201.498 166.5 201.698 166.7 201.998C167.2 202.898 168.1 202.698 168.8 202.898C169.6 203.098 170.4 203.098 171 203.198C171.1 203.198 171.2 202.798 171.3 203.198C171.4 203.498 171.6 203.198 171.7 203.198C171.8 203.198 171.9 202.998 172 203.198C172.3 203.498 172.5 203.398 172.6 203.398C172.7 203.398 172.8 203.198 172.9 203.098C172.9 203.098 173 202.998 173.1 202.898C173.1 202.898 173.1 202.898 173.1 202.798V202.698V202.498C173.3 201.898 173.3 201.198 173.4 200.498C173.4 199.598 173.4 198.398 173.7 197.898C173.8 197.698 173.7 196.898 174.1 197.598C174.2 197.798 174 196.798 174.1 196.598C174.1 196.098 174.3 195.798 174.4 195.298L174.7 194.398V193.898C174.9 193.798 174.9 193.898 174.9 193.798C174.9 193.598 174.9 192.898 174.9 192.598C174.9 192.298 175 191.998 175.2 191.798C175.4 191.598 175.6 191.598 176 190.898L176.3 191.798C176.7 193.098 177 193.898 177.3 194.898C177.6 195.798 177.9 196.698 178.1 197.698C178.5 199.498 178.7 200.198 179.1 200.698C179.1 200.798 179.3 200.798 179.3 200.898C179.3 200.898 179.3 200.898 179.4 200.898H179.7C179.7 200.898 180 201.198 180.1 201.098C180.1 201.098 180.4 201.198 180.9 201.298C181.3 201.298 181.8 201.398 182.1 201.498C182.1 201.498 182.3 201.498 182.3 201.598C182.6 202.198 182.9 203.198 182.3 203.698C181.4 204.298 180.5 204.698 179.4 204.698L179.5 204.198Z" fill="black"/>
</svg>
