<svg width="300" height="300" viewBox="0 0 300 300" fill="none" xmlns="http://www.w3.org/2000/svg">
<path d="M176.6 132.902C174.9 131.102 173.2 129.202 171.5 127.402C170.8 126.702 170.4 125.902 169.3 125.502C168.8 125.302 168.6 124.202 168 123.602C166.4 121.902 164.8 120.202 163.2 118.502C161.6 116.902 160 115.702 158.4 115.202C156.8 114.602 154.7 114.102 152.5 114.402C150.7 114.602 149 114.102 147.3 114.302C145.4 114.502 143.5 114.702 141.7 114.602C140.4 114.602 139 114.502 137.7 114.802C136.9 115.002 136.2 115.402 135.3 115.502C134.5 115.602 133.5 115.502 132.9 116.302C132.9 116.302 132.5 116.302 132.3 116.302C131.3 116.102 130.3 116.302 129.6 116.802C129 117.202 128.3 117.402 127.7 117.502C125.9 118.002 124.1 118.502 122.5 119.102C121.3 119.502 120.1 119.902 119.1 120.502C118 121.202 117.5 122.302 116.7 123.102C115.9 123.902 115.5 125.002 115.2 126.202C115 126.902 114.6 127.602 115.2 128.302C115.2 128.302 115.2 128.602 115.2 128.702C114.1 130.702 115.2 132.902 115 135.002C114.8 137.302 115 139.602 115 141.902C115 142.502 114.9 143.202 115.4 143.702C115.6 143.902 115.6 144.502 115.5 144.802C115 146.502 115.5 148.302 115.5 150.102C115.5 152.102 116.1 154.102 115.8 156.102C115.7 157.002 115.8 158.102 116.4 159.102C116.7 159.502 116.6 160.502 116.8 161.302C116.9 161.902 117.3 162.402 117.4 163.002C117.4 163.502 117.4 164.002 117.3 164.602C117.3 164.802 117.3 164.902 117.3 165.102C118.4 167.902 118 170.902 118.7 173.802C119.4 176.702 119.9 179.702 120.3 182.602C120.6 184.202 120.7 185.902 119.8 187.302C119.4 187.902 118.8 188.002 118.4 187.302C118.1 186.802 117.7 186.302 117.6 185.702C117.3 184.802 117 183.902 116.8 183.002C116.3 181.202 115.4 179.402 115.3 177.402C115.3 176.802 114.9 176.102 115.3 175.502C115.3 175.502 115.3 175.202 115.3 175.002C114.1 172.502 114.1 169.702 113.6 167.102C113.2 164.802 112.2 162.702 112.2 160.402C111.4 159.202 111.3 157.702 111.4 156.402C111.5 151.802 110.7 147.302 110.6 142.702C110.6 140.402 110.5 138.002 110.5 135.702C110.5 133.402 110.5 131.002 110.8 128.602C110.8 127.802 110.6 127.002 111.1 126.002C111.5 125.102 111.7 123.902 112.1 122.802C112.5 121.802 112.9 120.702 113.6 120.002C116.6 116.802 120.3 114.902 123.8 113.802C127.3 112.802 130.9 112.002 134.5 111.302C136.7 110.802 138.8 110.202 141.1 110.102C142.1 110.102 143 109.602 144 110.102C144.3 110.302 145.1 109.802 145.8 109.702C147.3 109.602 148.9 109.602 150.4 109.602C152.5 109.602 154.6 109.602 157 110.002C158.4 110.202 159.9 110.302 161.4 111.002C162.9 111.702 164.2 112.802 165.2 113.802C166.5 115.202 167.4 116.502 168.5 117.802C169.6 119.102 171.1 120.302 172 121.702C173.8 124.302 176.1 126.402 178.1 128.702C180.2 131.002 182.2 133.302 184.4 135.502C185.6 136.702 186.4 138.202 187.5 139.502C188 140.102 187.7 141.902 187.1 142.002C187 142.002 186.8 142.002 186.7 142.002C185.2 141.102 183.6 140.502 182.4 139.002C180.5 136.902 178.5 134.802 176.6 132.802V132.902Z" fill="black"/>
<path d="M166.101 147.302C166.501 147.102 166.801 147.002 167.201 146.702C167.301 146.702 167.601 146.702 167.501 146.202C167.501 145.902 167.901 146.402 168.001 146.402C168.301 146.202 168.701 146.102 169.001 145.902C169.301 145.702 169.501 145.302 169.801 145.102C170.101 144.902 170.601 145.102 170.801 144.602C171.001 144.202 171.401 144.602 171.601 144.302C171.801 144.102 172.101 143.902 172.501 144.002C172.801 144.002 173.101 144.202 173.201 144.002C173.201 143.902 173.201 143.502 173.401 143.502C173.501 143.502 173.801 143.702 173.701 143.002C173.701 143.002 173.701 143.002 173.901 143.002C174.201 143.302 174.401 143.202 174.401 143.002C174.401 142.702 174.501 142.702 174.601 142.602C174.901 142.502 175.201 142.302 175.501 142.302C175.701 142.302 176.001 142.302 176.301 142.302C176.501 142.302 176.701 141.902 177.001 142.102C177.301 142.302 177.501 142.202 177.701 142.102C177.801 142.102 178.101 142.302 177.901 141.602C178.501 142.302 178.501 141.102 178.901 141.202C179.301 141.202 179.601 141.002 180.001 140.902C180.001 140.902 180.301 141.002 180.201 140.502C180.201 140.302 180.201 140.302 180.401 140.402C180.901 140.902 181.001 140.402 181.301 140.402C181.601 140.402 181.901 140.002 182.301 140.402C182.501 140.602 182.701 140.602 182.701 140.002C182.701 139.702 182.901 140.002 183.001 139.802C183.001 139.802 183.001 139.402 183.201 139.402C183.201 139.402 183.401 139.602 183.501 139.702C183.801 138.902 184.501 139.702 184.901 139.302C185.301 139.002 185.801 138.902 186.301 138.902C186.601 138.902 186.901 138.902 187.401 140.002C187.601 140.502 187.801 141.002 187.701 141.402C187.701 141.702 187.701 141.902 187.601 142.002C187.501 142.102 187.401 142.302 187.301 142.402C187.101 142.702 186.901 143.302 186.601 143.102C186.501 143.102 186.501 143.402 186.201 142.902C186.001 143.802 185.501 143.402 185.101 143.602C184.801 143.802 184.601 144.502 184.201 144.302C184.201 145.002 184.001 144.902 183.701 144.802C182.801 144.402 182.301 145.002 181.601 145.202C180.901 145.302 180.301 145.702 179.601 145.902C179.501 145.902 179.601 146.302 179.301 146.102C179.101 145.902 179.001 146.102 178.801 146.202C178.701 146.202 178.601 146.402 178.401 146.302C177.601 145.902 177.301 146.502 176.701 146.602C176.201 146.702 175.601 146.902 175.201 147.302C174.901 147.502 174.801 148.002 174.401 148.002C174.201 148.002 174.201 148.402 173.901 147.902C173.801 147.802 173.901 148.202 173.801 148.302C173.601 148.402 173.401 148.502 173.201 148.602C172.901 148.702 172.601 148.802 172.301 149.002C172.101 149.102 172.101 149.402 171.901 149.602C171.701 149.702 171.601 149.802 171.301 149.902C171.001 149.902 170.701 149.902 170.401 149.902C170.101 149.902 170.001 150.302 169.601 150.202C168.901 150.002 168.601 150.402 168.201 150.602C167.701 150.802 167.301 150.902 166.901 151.302C166.701 151.502 166.201 151.202 166.001 151.302C165.901 151.302 165.101 150.102 164.901 149.702V149.502C164.901 149.002 164.801 148.202 165.101 148.102C165.501 148.002 165.901 147.702 166.301 147.502L166.101 147.302Z" fill="black"/>
<path d="M168.6 166.202C168.6 165.902 168.5 165.502 168.3 165.202C168.3 165.102 168.5 164.902 167.9 164.902C167.6 164.902 168.2 164.602 168.2 164.502C168.1 164.202 168.1 163.902 167.9 163.602C167.8 163.302 167.5 163.102 167.3 162.802C167.2 162.502 167.3 162.102 167 161.902C166.7 161.702 167.1 161.402 167 161.202C166.8 161.002 166.7 160.702 166.8 160.402C166.9 160.202 167.1 160.002 166.9 159.802C166.9 159.802 166.5 159.702 166.5 159.602C166.5 159.502 166.7 159.302 166.1 159.302C166.1 159.302 166.1 159.302 166.2 159.202C166.6 159.002 166.5 158.802 166.2 158.802C165.9 158.802 165.9 158.702 165.9 158.602C165.9 158.402 165.7 158.102 165.7 157.902C165.7 157.702 165.9 157.502 165.9 157.302C165.9 157.102 165.6 157.002 165.9 156.702C166.2 156.402 166.1 156.302 166 156.102C166 156.102 166.2 155.802 165.6 155.902C166.3 155.402 165.2 155.402 165.3 155.102C165.4 154.802 165.3 154.502 165.1 154.202C165.1 154.202 165.2 154.002 164.8 154.002C164.6 154.002 164.6 154.002 164.7 153.902C165.2 153.502 164.8 153.402 164.9 153.102C164.9 152.802 164.6 152.602 164.9 152.202C165.1 152.002 165.1 151.902 164.5 151.902C164.2 151.902 164.5 151.702 164.4 151.602C164.4 151.602 164 151.602 164 151.502C164 151.502 164.2 151.302 164.3 151.202C163.6 151.002 164.3 150.402 164 150.102C163.7 149.802 163.7 149.402 163.6 149.002C163.6 148.802 163.6 148.502 164.7 148.002C165.2 147.802 165.7 147.602 166 147.602C166.2 147.602 166.5 147.602 166.6 147.602C166.7 147.602 166.9 147.802 167 147.902C167.3 148.102 167.9 148.202 167.7 148.502C167.7 148.602 168 148.602 167.5 148.802C168.4 148.902 168 149.402 168.1 149.802C168.2 150.102 168.9 150.202 168.7 150.602C169.4 150.602 169.3 150.802 169.2 151.002C168.7 151.802 169.3 152.202 169.4 152.902C169.4 153.502 169.7 154.102 169.8 154.702C169.8 154.802 170.2 154.802 170 155.002C169.8 155.202 170 155.302 170 155.402C170 155.502 170.2 155.602 170 155.802C169.5 156.402 170 156.802 170 157.302C170 157.802 170 158.302 170.4 158.702C170.6 159.002 171 159.202 170.9 159.502C170.9 159.602 171.2 159.702 170.7 159.902C170.5 159.902 171 159.902 171.1 160.102C171.1 160.302 171.2 160.502 171.3 160.702C171.3 161.002 171.3 161.302 171.5 161.502C171.5 161.702 171.9 161.802 172 161.902C172.1 162.102 172.1 162.202 172.1 162.402C172.1 162.602 171.9 162.902 171.9 163.102C171.9 163.302 172.2 163.502 172 163.802C171.6 164.302 172 164.702 172 165.102C172 165.502 172.1 165.902 172.3 166.302C172.4 166.502 172 166.802 172.1 167.102C172.1 167.102 170.7 167.702 170.2 167.802H170C169.5 167.802 168.7 167.802 168.7 167.402C168.7 167.002 168.5 166.702 168.4 166.302L168.6 166.202Z" fill="black"/>
<path d="M162.2 186.203C162.3 185.803 162.5 185.403 162.5 185.003C162.5 184.803 162.8 184.803 162.4 184.503C162.2 184.303 162.8 184.403 162.8 184.203C162.8 183.803 163.1 183.503 163.1 183.103C163.1 182.703 163.1 182.303 163.1 181.903C163.1 181.503 163.6 181.303 163.4 180.803C163.2 180.403 163.8 180.303 163.8 180.003C163.8 179.703 163.8 179.303 164.1 179.103C164.3 178.903 164.6 178.803 164.6 178.603C164.6 178.403 164.3 178.203 164.4 178.103C164.4 178.003 164.8 177.903 164.2 177.603C164.2 177.603 164.2 177.603 164.4 177.603C164.8 177.603 164.9 177.403 164.6 177.203C164.4 177.003 164.5 176.903 164.5 176.803C164.5 176.503 164.6 176.203 164.8 175.903C164.9 175.703 165.2 175.603 165.4 175.403C165.5 175.203 165.4 174.903 165.7 174.703C166.1 174.603 166.1 174.403 166.2 174.203C166.2 174.103 166.6 174.003 166 173.703C166.9 173.703 166 173.003 166.3 172.703C166.6 172.403 166.6 172.003 166.7 171.703C166.7 171.703 166.9 171.603 166.5 171.303C166.4 171.303 166.4 171.103 166.5 171.103C167.2 171.103 166.9 170.603 167.1 170.403C167.3 170.103 167.1 169.703 167.7 169.603C167.9 169.603 168.1 169.403 167.6 169.103C167.4 168.903 167.6 168.903 167.6 168.803C167.6 168.703 167.3 168.503 167.4 168.403C167.4 168.403 167.7 168.403 167.8 168.303C167.3 167.703 168.3 167.503 168.2 167.003C168.2 166.703 168.2 166.603 168.2 166.303C168.2 166.003 168.4 165.703 168.6 165.303C168.8 164.903 169.3 164.503 170.4 165.103C170.9 165.303 171.3 165.703 171.5 166.003C171.6 166.203 171.8 166.403 171.8 166.503C171.8 166.603 171.9 166.803 172 166.903C172.1 167.103 172.6 167.403 172.2 167.703C172.1 167.703 172.3 168.003 171.8 167.903C172.5 168.503 171.8 168.903 171.8 169.303C171.8 169.703 172.2 170.203 171.8 170.503C172.3 170.903 172.2 171.103 171.9 171.203C171 171.703 171.2 172.503 170.9 173.203C170.6 173.903 170.4 174.603 170.1 175.303C170.1 175.403 170.4 175.603 170.1 175.703C169.8 175.703 169.9 176.003 169.9 176.103C169.9 176.203 169.9 176.403 169.7 176.503C168.9 176.803 169.1 177.503 168.8 178.003C168.5 178.503 168.3 179.003 168.3 179.603C168.3 180.003 168.5 180.403 168.3 180.703C168.2 180.803 168.5 181.103 167.9 181.003C167.7 181.003 168.1 181.303 168.1 181.403C168.1 181.603 168 181.903 167.9 182.103C167.8 182.403 167.6 182.703 167.6 183.103C167.6 183.303 167.7 183.603 167.7 183.803C167.7 184.003 167.7 184.203 167.5 184.403C167.3 184.603 167.1 184.803 166.9 185.103C166.8 185.303 166.9 185.703 166.6 185.903C166 186.203 166.1 186.803 165.9 187.203C165.7 187.603 165.5 188.103 165.5 188.603C165.5 188.903 165 189.003 164.9 189.203C164.9 189.303 163.4 189.203 162.9 189.003H162.7C162.3 188.603 161.7 188.203 161.8 187.903C162 187.403 162.1 187.003 162.2 186.503V186.203Z" fill="black"/>
<path d="M151.001 135.801C151.001 136.001 150.901 136.101 150.901 136.301C150.901 136.301 150.601 136.301 151.101 136.601C151.401 136.601 150.701 136.601 150.701 136.601C150.701 136.801 150.701 136.901 150.701 137.101C150.701 137.301 150.901 137.501 150.901 137.601C150.901 137.801 150.601 137.901 150.901 138.101C151.201 138.301 150.601 138.301 150.701 138.401C150.801 138.601 150.901 138.701 150.701 138.801C150.501 138.801 150.301 138.901 150.401 139.001C150.401 139.001 150.801 139.201 150.701 139.201C150.701 139.201 150.401 139.201 151.001 139.401C151.001 139.401 151.001 139.401 150.801 139.401C150.401 139.401 150.401 139.401 150.701 139.601C151.001 139.601 150.901 139.701 150.901 139.801C150.901 139.901 150.901 140.101 150.901 140.201C150.901 140.201 150.601 140.401 150.501 140.501C150.501 140.501 150.701 140.701 150.401 140.801C150.101 140.801 150.101 141.001 150.101 141.101C150.101 141.101 149.801 141.201 150.401 141.301C149.601 141.401 150.601 141.601 150.401 141.801C150.201 142.001 150.401 142.101 150.401 142.301C150.401 142.301 150.201 142.301 150.701 142.401C150.901 142.401 150.901 142.401 150.701 142.401C150.101 142.501 150.501 142.601 150.301 142.801C150.201 142.901 150.501 143.101 150.001 143.201C149.801 143.201 149.701 143.401 150.301 143.401C150.601 143.401 150.301 143.501 150.301 143.601C150.301 143.601 150.601 143.601 150.601 143.701C150.601 143.701 150.401 143.701 150.301 143.801C151.001 144.001 150.101 144.201 150.301 144.401C150.501 144.601 150.401 144.801 150.301 145.001C150.301 145.101 150.101 145.301 148.901 145.401C148.401 145.401 147.801 145.501 147.501 145.501C147.301 145.501 147.001 145.501 147.001 145.501C146.901 145.501 146.801 145.401 146.701 145.301C146.501 145.201 145.901 145.101 146.201 144.901C146.201 144.901 146.001 144.901 146.501 144.701C145.701 144.501 146.201 144.301 146.101 144.101C146.101 143.901 145.401 143.801 145.701 143.601C145.101 143.601 145.201 143.401 145.401 143.301C146.101 142.901 145.601 142.601 145.701 142.201C145.701 141.801 145.701 141.501 145.701 141.101C145.701 141.101 145.401 141.001 145.701 140.901C146.001 140.901 145.701 140.701 145.701 140.701C145.701 140.701 145.601 140.501 145.701 140.501C146.401 140.301 146.001 139.901 146.101 139.701C146.201 139.401 146.301 139.101 146.101 138.801C146.101 138.601 145.701 138.401 145.901 138.201C145.901 138.201 145.601 138.001 146.201 138.001C146.401 138.001 145.901 137.901 145.901 137.801C145.901 137.701 145.901 137.601 145.901 137.401C145.901 137.201 146.001 137.101 145.901 136.901C145.901 136.801 145.701 136.601 145.601 136.501C145.601 136.401 145.601 136.301 145.601 136.201C145.701 136.101 145.901 136.001 146.001 135.901C146.001 135.801 145.901 135.601 146.201 135.501C146.801 135.401 146.601 135.101 146.701 134.801C146.801 134.601 146.901 134.401 146.901 134.101C146.901 133.901 147.401 134.001 147.401 133.801C147.401 133.801 148.901 134.101 149.301 134.201H149.501C149.901 134.501 150.601 134.801 150.501 134.901C150.401 135.101 150.401 135.301 150.301 135.501L151.001 135.801Z" fill="black"/>
<path d="M162.3 135.801C162.3 136.001 162.2 136.101 162.2 136.301C162.2 136.301 161.9 136.301 162.4 136.601C162.7 136.601 162 136.601 162 136.601C162 136.801 162 136.901 162 137.101C162 137.301 162.2 137.501 162.2 137.601C162.2 137.801 161.9 137.901 162.2 138.101C162.5 138.301 161.9 138.301 162 138.401C162.1 138.601 162.2 138.701 162 138.801C161.8 138.801 161.6 138.901 161.7 139.001C161.7 139.001 162.1 139.201 162 139.201C162 139.201 161.7 139.201 162.3 139.401C162.3 139.401 162.3 139.401 162.1 139.401C161.7 139.401 161.7 139.401 162 139.601C162.3 139.601 162.2 139.701 162.2 139.801C162.2 139.901 162.2 140.101 162.2 140.201C162.2 140.201 161.9 140.401 161.8 140.501C161.8 140.501 162 140.701 161.7 140.801C161.4 140.801 161.4 141.001 161.4 141.101C161.4 141.101 161.1 141.201 161.7 141.301C160.9 141.401 161.9 141.601 161.7 141.801C161.5 142.001 161.7 142.101 161.7 142.301C161.7 142.301 161.5 142.301 162 142.401C162.2 142.401 162.2 142.401 162 142.401C161.4 142.501 161.8 142.601 161.6 142.801C161.5 142.901 161.8 143.101 161.3 143.201C161.1 143.201 161 143.401 161.6 143.401C161.9 143.401 161.6 143.501 161.6 143.601C161.6 143.601 161.9 143.601 161.9 143.701C161.9 143.701 161.7 143.701 161.6 143.801C162.3 144.001 161.4 144.201 161.6 144.401C161.8 144.601 161.7 144.801 161.6 145.001C161.6 145.101 161.4 145.301 160.2 145.401C159.7 145.401 159.1 145.501 158.8 145.501C158.6 145.501 158.3 145.501 158.3 145.501C158.2 145.501 158.1 145.401 158 145.301C157.8 145.201 157.2 145.101 157.5 144.901C157.5 144.901 157.3 144.901 157.8 144.701C157 144.501 157.5 144.301 157.4 144.101C157.4 143.901 156.7 143.801 157 143.601C156.4 143.601 156.5 143.401 156.7 143.301C157.4 142.901 156.9 142.601 157 142.201C157 141.801 157 141.501 157 141.101C157 141.101 156.7 141.001 157 140.901C157.3 140.901 157 140.701 157 140.701C157 140.701 156.9 140.501 157 140.501C157.7 140.301 157.3 139.901 157.4 139.701C157.5 139.401 157.6 139.101 157.4 138.801C157.4 138.601 157 138.401 157.2 138.201C157.2 138.201 156.9 138.001 157.5 138.001C157.7 138.001 157.2 137.901 157.2 137.801C157.2 137.701 157.2 137.601 157.2 137.401C157.2 137.201 157.3 137.101 157.2 136.901C157.2 136.801 157 136.601 156.9 136.501C156.9 136.401 156.9 136.301 156.9 136.201C157 136.101 157.2 136.001 157.3 135.901C157.3 135.801 157.2 135.601 157.5 135.501C158.1 135.401 157.9 135.101 158 134.801C158.1 134.601 158.2 134.401 158.2 134.101C158.2 133.901 158.7 134.001 158.7 133.801C158.7 133.801 160.2 134.101 160.6 134.201H160.8C161.2 134.501 161.9 134.801 161.8 134.901C161.7 135.101 161.7 135.301 161.6 135.501L162.3 135.801Z" fill="black"/>
<path d="M162.599 169.701C162.399 169.701 162.099 169.801 161.899 169.901C161.899 169.901 161.699 169.701 161.699 170.301C161.699 170.601 161.499 170.001 161.399 170.001C161.199 170.101 160.899 170.001 160.699 170.201C160.499 170.201 160.299 170.601 159.999 170.601C159.799 170.601 159.499 170.401 159.299 170.701C159.099 171.001 158.899 170.501 158.699 170.701C158.499 170.801 158.299 170.901 158.099 170.701C157.999 170.501 157.799 170.301 157.699 170.401C157.699 170.401 157.499 170.801 157.399 170.701C157.399 170.701 157.199 170.401 157.099 171.001C157.099 171.001 157.099 171.001 157.099 170.801C157.099 170.401 156.899 170.401 156.799 170.701C156.699 171.001 156.599 170.901 156.499 170.901C156.299 170.901 156.099 170.901 155.899 170.901C155.799 170.901 155.699 170.601 155.499 170.501C155.399 170.501 155.099 170.701 155.099 170.301C155.099 170.001 154.899 169.901 154.799 169.901C154.799 169.901 154.799 169.601 154.499 170.201C154.499 169.401 153.999 170.301 153.799 170.001C153.599 169.701 153.399 169.801 153.099 169.701C153.099 169.701 153.099 169.501 152.799 169.901C152.799 170.001 152.599 170.001 152.699 169.901C152.699 169.201 152.499 169.501 152.299 169.401C152.199 169.201 151.799 169.401 151.899 168.801C151.899 168.601 151.899 168.401 151.499 168.801C151.299 169.001 151.399 168.801 151.299 168.801L150.999 169.001C150.999 169.001 150.999 168.701 150.999 168.601C150.399 169.001 150.599 168.101 150.299 168.001C149.899 168.001 149.699 167.701 149.499 167.401C149.499 167.201 149.399 167.001 150.099 166.101C150.399 165.701 150.799 165.301 151.099 165.101C151.299 165.001 151.499 164.801 151.599 164.801C151.699 164.801 151.899 164.801 151.999 164.701C152.199 164.701 152.699 164.301 152.599 164.701C152.599 164.701 152.799 164.601 152.599 165.001C153.199 164.501 153.099 165.001 153.299 165.001C153.499 165.001 153.899 164.601 153.899 165.001C154.299 164.501 154.299 164.601 154.299 164.801C154.299 165.501 154.799 165.301 154.999 165.501C155.299 165.701 155.599 165.701 155.899 165.901C155.899 165.901 156.099 165.601 156.099 165.901C156.099 166.201 156.199 165.901 156.299 166.001H156.499C156.599 166.701 156.999 166.401 157.199 166.501C157.499 166.501 157.699 166.701 157.999 166.501C158.199 166.501 158.299 166.101 158.499 166.201C158.499 166.201 158.599 165.901 158.699 166.501C158.699 166.701 158.699 166.201 158.799 166.201C158.899 166.201 158.999 166.201 159.099 166.201C159.199 166.201 159.399 166.201 159.499 166.201C159.499 166.201 159.699 165.901 159.699 165.801C159.699 165.801 159.899 165.801 159.999 165.801C160.099 165.801 160.299 166.001 160.399 166.101C160.499 166.101 160.599 165.801 160.799 166.101C161.099 166.501 161.299 166.201 161.499 166.201C161.699 166.201 161.999 166.201 162.099 166.001C162.099 165.901 162.499 166.301 162.599 166.301C162.599 166.301 163.299 167.601 163.499 168.101V168.301C163.499 168.801 163.699 169.501 163.499 169.501C163.199 169.501 162.899 169.701 162.699 169.801L162.599 169.701Z" fill="black"/>
<path d="M130.101 159.1C130.101 158.3 130.101 157.5 130.101 156.7C130.101 156.4 130.301 156.1 129.801 155.9C129.501 155.8 130.101 155.5 130.101 155.2C130.001 154.5 129.901 153.9 129.701 153.3C129.501 152.7 129.001 152.3 128.701 151.8C128.401 151.4 128.301 150.8 127.701 150.7C127.301 150.7 127.301 150.1 126.801 150C126.401 150 126.001 150 125.601 149.6C125.301 149.4 125.001 149.1 124.601 149.3C124.401 149.3 124.201 149.7 124.001 149.7C123.801 149.7 123.501 149.5 123.501 150.1C123.501 150.1 123.401 150.1 123.301 150C123.001 149.7 122.701 149.8 122.601 150.1C122.601 150.4 122.401 150.4 122.201 150.5C121.801 150.7 121.401 151 120.901 151.2C120.601 151.4 120.101 151.4 119.801 151.6C119.401 151.8 119.301 152.3 118.801 152.4C118.301 152.4 118.001 152.8 117.801 153.1C117.701 153.2 117.301 153.3 117.801 153.7C117.301 153.7 117.301 153.9 117.401 154C117.501 154.1 117.701 154.3 117.601 154.5C117.601 154.7 117.601 155.1 117.601 155.4C117.601 155.7 117.801 156 117.901 156.4C117.901 156.6 117.901 156.8 118.301 156.8C118.501 156.8 118.501 157 118.501 157.1C118.001 157.7 118.501 158.1 118.701 158.6C118.801 159.2 119.301 159.6 119.201 160.3C119.201 160.6 119.201 161 119.901 160.9C120.201 160.9 120.101 161.2 120.301 161.4C120.401 161.5 120.801 161.4 120.901 161.6C120.901 161.7 120.901 162 120.901 162.2C120.901 162.2 120.901 162.2 120.901 162.3C121.901 162.5 121.801 163.7 122.601 164.1C123.401 164.5 124.001 165.1 124.701 165.6C125.101 165.9 125.401 166.2 125.201 167.4C125.201 167.9 124.901 168.4 124.601 168.6C124.301 168.7 124.101 168.9 123.801 168.8C123.501 168.8 123.101 168.7 122.801 168.6C122.101 168.4 121.201 168.5 120.801 167.8C120.701 167.6 120.301 167.7 120.501 167.2V167C119.301 167 118.901 165.9 118.201 165.2C117.601 164.6 116.601 164.4 116.401 163.5C115.601 163.5 115.401 162.9 115.301 162.4C115.101 160.6 114.001 159.3 113.701 157.6C113.501 156.7 113.401 156 113.301 155C113.301 154.5 113.301 153.9 113.301 153.3C113.401 152.7 113.701 152.1 113.901 151.6C114.101 151.3 113.901 150.8 114.401 150.6C114.801 150.5 115.001 150 115.201 149.7C115.401 149.5 115.601 149.1 115.901 149C117.301 148.5 118.101 147.4 119.301 146.8C120.501 146.2 121.901 145.7 123.301 145.4C124.101 145.2 125.101 144.8 126.001 145.1C126.401 145.2 126.901 145 127.101 145.6C127.101 145.8 127.601 145.5 127.901 145.6C128.501 145.8 129.101 146.1 129.701 146.5C130.501 147 131.101 147.7 131.701 148.4C132.101 148.8 132.601 149.2 132.901 149.6C133.201 150.1 133.401 150.6 133.601 151.1C133.801 151.8 133.701 152.5 133.801 153.1C133.801 153.8 134.201 154.4 134.001 155.1C133.601 156.3 133.801 157.3 133.801 158.3C133.801 159.3 133.701 160.3 133.801 161.2C133.901 161.7 133.501 162.2 133.501 162.7C133.501 162.9 132.201 163.5 131.601 163.5C131.601 163.5 131.401 163.5 131.301 163.5C130.701 163 129.901 162.6 129.901 161.9C129.901 160.9 129.901 159.9 129.901 159L130.101 159.1Z" fill="black"/>
<path d="M104.401 135.502C104.601 135.502 104.701 135.702 104.901 135.702C104.901 135.702 104.901 136.002 105.201 135.502C105.301 135.302 105.201 135.902 105.201 135.902C105.401 135.902 105.501 136.002 105.601 136.002C105.801 136.002 106.001 135.902 106.101 135.902C106.301 135.902 106.301 136.202 106.501 135.902C106.701 135.702 106.601 136.202 106.801 136.102C107.001 136.102 107.101 136.102 107.101 136.302C107.101 136.502 107.101 136.702 107.201 136.702L107.501 136.402C107.501 136.402 107.501 136.702 107.801 136.202C107.801 136.202 107.801 136.202 107.801 136.402C107.701 136.802 107.801 136.802 107.901 136.602C108.101 136.402 108.101 136.402 108.101 136.402C108.201 136.402 108.401 136.402 108.401 136.602C108.401 136.602 108.401 136.902 108.401 137.002C108.401 137.102 108.701 136.902 108.601 137.202C108.601 137.502 108.601 137.502 108.701 137.602C108.701 137.602 108.701 137.902 109.001 137.402C108.701 138.202 109.401 137.402 109.401 137.602C109.401 137.902 109.601 137.802 109.801 137.902C109.801 137.902 109.801 138.102 110.001 137.702C110.001 137.602 110.101 137.602 110.001 137.702C109.801 138.302 110.001 138.002 110.101 138.202C110.101 138.402 110.401 138.202 110.301 138.702C110.301 138.902 110.301 139.002 110.601 138.602C110.801 138.402 110.601 138.602 110.801 138.602C110.801 138.602 111.001 138.402 111.101 138.402C111.101 138.402 111.101 138.602 111.101 138.702C111.601 138.202 111.301 139.102 111.601 139.102C111.901 139.102 112.001 139.202 112.101 139.402C112.101 139.502 112.101 139.702 111.601 140.702C111.301 141.102 111.001 141.602 110.801 141.902C110.601 142.102 110.501 142.202 110.401 142.302C110.301 142.302 110.201 142.402 110.101 142.502C109.901 142.502 109.501 143.002 109.601 142.702C109.601 142.702 109.401 142.802 109.601 142.402C109.001 143.002 109.201 142.402 109.001 142.402C108.901 142.402 108.401 142.802 108.401 142.502C108.001 143.002 108.001 142.902 108.001 142.702C108.101 142.002 107.701 142.202 107.501 142.002C107.301 141.802 107.001 141.702 106.801 141.602C106.801 141.602 106.601 141.902 106.601 141.602C106.601 141.302 106.601 141.502 106.501 141.502C106.501 141.502 106.301 141.502 106.401 141.502C106.501 140.802 106.101 141.102 106.001 140.902C105.801 140.702 105.701 140.602 105.401 140.602C105.201 140.602 105.001 140.902 104.901 140.702C104.901 140.702 104.701 140.902 104.901 140.302C104.901 140.102 104.701 140.502 104.701 140.502C104.601 140.502 104.501 140.502 104.501 140.502C104.401 140.502 104.301 140.402 104.201 140.402C104.201 140.402 104.001 140.602 103.901 140.602H103.701C103.701 140.502 103.701 140.302 103.601 140.202C103.601 140.202 103.301 140.302 103.301 140.002C103.301 139.502 103.001 139.602 102.901 139.502C102.701 139.402 102.601 139.302 102.401 139.302C102.301 139.302 102.401 138.802 102.301 138.802C102.301 138.802 102.701 137.402 102.901 136.902V136.702C103.201 136.302 103.501 135.602 103.601 135.702C103.801 135.802 103.901 135.802 104.101 135.902L104.401 135.502Z" fill="black"/>
<path d="M102.9 120.599C102.9 120.899 102.9 121.199 102.9 121.499C102.9 121.599 102.6 121.699 103.2 121.899C103.5 121.899 102.8 121.999 102.8 122.099C102.8 122.399 102.8 122.699 102.8 122.899C102.8 123.199 103.1 123.499 103.1 123.699C103.1 123.999 102.8 124.199 103.1 124.499C103.4 124.699 102.9 124.899 103 125.099C103.1 125.299 103.2 125.499 103 125.799C102.8 125.999 102.6 126.099 102.7 126.299C102.7 126.299 103.1 126.499 103.1 126.599C103.1 126.599 102.8 126.799 103.4 126.899C103.4 126.899 103.4 126.899 103.3 126.899C102.9 126.999 102.9 127.199 103.3 127.199C103.6 127.199 103.6 127.299 103.6 127.399C103.6 127.599 103.6 127.799 103.6 127.999C103.6 128.199 103.4 128.299 103.3 128.499C103.3 128.699 103.6 128.799 103.3 128.999C103 129.199 103.1 129.299 103.1 129.499C103.1 129.499 102.9 129.699 103.5 129.699C102.7 130.099 103.9 130.099 103.7 130.399C103.6 130.699 103.7 130.899 103.9 131.099C103.9 131.099 103.8 131.299 104.2 131.099C104.4 131.099 104.4 131.099 104.3 131.099C103.8 131.499 104.2 131.499 104.2 131.799C104.2 132.099 104.5 132.199 104.2 132.599C104 132.799 104 132.899 104.6 132.799C104.9 132.799 104.6 132.999 104.8 132.999H105.2C105.2 132.999 105 133.199 105 133.299C105.8 133.299 105 134.099 105.4 134.399C105.7 134.699 105.8 135.099 105.8 135.599C105.8 135.799 105.8 136.099 104.7 136.599C104.2 136.799 103.7 136.999 103.4 136.999C103.2 136.999 102.9 136.999 102.8 136.999C102.7 136.999 102.5 136.899 102.4 136.799C102.1 136.699 101.6 136.599 101.8 136.299C101.8 136.299 101.5 136.299 102 135.999C101.1 135.999 101.5 135.499 101.3 135.199C101.1 134.999 100.5 134.999 100.6 134.599C100 134.599 100 134.499 100.1 134.199C100.5 133.399 99.8 132.999 99.7 132.299C99.6 131.699 99.3 131.099 99.2 130.399C99.2 130.299 98.8 130.299 99.1 130.099C99.3 129.899 99.1 129.799 99.1 129.699C99.1 129.599 98.9 129.499 99.1 129.299C99.7 128.699 99.2 128.299 99.2 127.799C99.2 127.299 99.2 126.799 99.1 126.399C99 126.099 98.6 125.799 98.8 125.499C98.8 125.399 98.5 125.199 99.1 125.099C99.3 125.099 98.8 124.999 98.8 124.899C98.8 124.699 98.8 124.499 98.8 124.299C98.8 123.999 98.8 123.799 98.8 123.499C98.8 123.299 98.5 123.199 98.5 122.999C98.5 122.799 98.5 122.599 98.5 122.499C98.5 122.299 98.8 122.099 98.9 121.899C98.9 121.699 98.7 121.399 99 121.199C99.5 120.799 99.3 120.399 99.4 119.999C99.4 119.599 99.6 119.199 99.4 118.799C99.4 118.599 99.9 118.399 99.9 118.199C99.9 118.199 101.4 118.199 101.9 118.199H102.1C102.5 118.499 103.2 118.699 103.2 118.899C103.1 119.199 103.2 119.599 103.1 119.899L102.9 120.599Z" fill="black"/>
<path d="M106.9 121.502C106.8 121.502 106.7 121.502 106.5 121.502C106.5 121.502 106.5 121.202 106.3 121.802C106.3 122.102 106.3 121.402 106.3 121.402C106.2 121.402 106.1 121.402 105.9 121.402C105.8 121.402 105.6 121.602 105.5 121.702C105.4 121.702 105.3 121.402 105.1 121.702C105 122.002 105 121.402 104.9 121.502C104.8 121.602 104.7 121.702 104.6 121.502C104.6 121.302 104.6 121.102 104.5 121.202C104.5 121.202 104.3 121.602 104.3 121.502C104.3 121.502 104.3 121.202 104.1 121.802C104.1 121.802 104.1 121.802 104.1 121.602C104.1 121.202 104.1 121.202 104 121.502C104 121.802 103.9 121.702 103.8 121.702C103.7 121.702 103.6 121.702 103.5 121.702C103.5 121.702 103.5 121.402 103.4 121.302C103.4 121.302 103.2 121.502 103.2 121.202C103.2 120.902 103.2 120.902 103.1 120.902C103.1 120.902 103.1 120.602 102.9 121.202C102.9 120.402 102.6 121.402 102.6 121.202C102.6 121.002 102.4 121.102 102.3 121.102C102.3 121.102 102.3 120.902 102.2 121.402C102.2 121.602 102.2 121.602 102.2 121.402C102.2 120.802 102.1 121.102 102 121.002C102 120.902 101.8 121.102 101.8 120.602C101.8 120.402 101.8 120.302 101.6 120.802C101.6 121.102 101.6 120.802 101.5 120.802C101.5 120.802 101.4 121.102 101.3 121.102C101.3 121.102 101.3 120.902 101.3 120.802C101 121.402 101.1 120.502 100.9 120.702C100.7 120.802 100.6 120.702 100.4 120.702C100.4 120.702 100.3 120.402 100.4 119.302C100.4 118.802 100.6 118.202 100.7 117.902C100.7 117.702 100.8 117.502 100.9 117.402C100.9 117.402 101 117.202 101.1 117.102C101.2 116.902 101.4 116.402 101.5 116.702C101.5 116.702 101.6 116.502 101.5 117.002C101.8 116.202 101.8 116.802 102 116.802C102.1 116.802 102.4 116.202 102.4 116.502C102.6 115.902 102.6 116.002 102.7 116.202C102.7 116.902 103.1 116.502 103.3 116.602C103.5 116.702 103.8 116.602 104 116.802C104 116.802 104.1 116.502 104.1 116.802C104.1 117.102 104.1 116.802 104.2 116.802C104.2 116.802 104.3 116.702 104.3 116.802C104.3 117.502 104.6 117.102 104.8 117.202C105 117.302 105.1 117.402 105.3 117.202C105.4 117.202 105.6 116.802 105.7 117.002C105.7 117.002 105.9 116.702 105.7 117.302C105.7 117.502 105.8 117.002 105.8 117.002H106C106.1 117.002 106.2 117.002 106.3 117.002C106.3 117.002 106.5 116.702 106.6 116.702C106.6 116.702 106.7 116.702 106.8 116.702C106.8 116.702 106.9 117.002 107 117.102C107 117.102 107.2 116.902 107.2 117.202C107.2 117.702 107.5 117.502 107.6 117.602C107.7 117.602 107.9 117.802 108.1 117.602C108.2 117.602 108.1 118.102 108.3 118.102C108.3 118.102 108.1 119.602 108 120.102V120.302C107.8 120.702 107.6 121.402 107.5 121.402C107.4 121.302 107.2 121.402 107.1 121.302L106.9 121.502Z" fill="black"/>
<path d="M120.2 95.9014C119.8 96.1014 119.4 96.2014 119 96.4014C118.9 96.4014 118.6 96.4014 118.7 96.9014C118.7 97.2014 118.3 96.7014 118.2 96.8014C117.9 97.0014 117.5 97.1014 117.2 97.4014C116.9 97.6014 116.7 98.0014 116.4 98.3014C116.1 98.6014 115.6 98.5014 115.5 99.0014C115.4 99.4014 114.9 99.2014 114.7 99.4014C114.5 99.7014 114.3 99.9014 113.9 100.001C113.6 100.001 113.3 100.001 113.2 100.201C113.2 100.301 113.2 100.701 113.2 100.801C113.1 100.801 112.8 100.801 113.1 101.301C113.1 101.301 113.1 101.301 112.9 101.301C112.5 101.101 112.4 101.301 112.5 101.601C112.5 101.901 112.5 101.901 112.5 102.001C112.3 102.201 112.1 102.501 111.8 102.701C111.6 102.801 111.3 102.901 111.1 103.001C110.9 103.101 110.9 103.501 110.5 103.501C110.1 103.501 110 103.701 109.8 103.901C109.8 104.001 109.4 103.901 109.8 104.401C108.9 104.201 109.6 105.101 109.2 105.301C108.8 105.501 108.7 105.901 108.5 106.201C108.5 106.201 108.2 106.201 108.5 106.601C108.6 106.701 108.5 106.801 108.5 106.801C107.8 106.801 108 107.201 107.7 107.401C107.4 107.601 107.5 108.101 106.9 108.201C106.6 108.201 106.4 108.401 106.9 108.801C107.1 109.001 106.8 109.001 106.9 109.201C106.9 109.301 107.1 109.501 107.1 109.601C107.1 109.601 106.8 109.601 106.7 109.601C107.1 110.301 106.1 110.401 106.1 111.001C106.1 111.501 105.9 112.001 105.7 112.401C105.6 112.701 105.3 112.901 104.2 112.801C103.7 112.801 103.1 112.601 102.9 112.401C102.7 112.201 102.5 112.101 102.5 112.001C102.5 111.801 102.4 111.601 102.3 111.401C102.3 111.001 101.8 110.501 102.3 110.201C102.4 110.201 102.2 109.901 102.7 110.001C102.1 109.301 102.7 108.901 103 108.401C103.1 108.001 102.7 107.301 103.2 107.001C102.7 106.501 103 106.301 103.2 106.101C103.7 105.901 104 105.501 104.2 105.101C104.4 104.701 104.6 104.301 104.8 103.901C105.4 103.201 105.8 102.401 106.4 101.701C106.5 101.601 106.4 101.301 106.6 101.301C106.9 101.301 106.9 101.001 107 100.901C107.1 100.801 107.1 100.501 107.4 100.501C108.4 100.501 108.5 99.6014 109.1 99.2014C109.7 98.8014 110.2 98.3014 110.6 97.7014C110.9 97.4014 111 96.8014 111.4 96.6014C111.6 96.6014 111.5 96.1014 112 96.6014C112.1 96.7014 112 96.2014 112 96.2014C112.2 96.0014 112.5 95.8014 112.7 95.7014C113 95.4014 113.4 95.3014 113.7 95.0014C113.9 94.8014 114 94.5014 114.2 94.3014C114.4 94.1014 114.6 94.0014 114.9 93.9014C115.2 93.9014 115.6 93.9014 115.9 93.7014C116.2 93.6014 116.4 93.2014 116.9 93.3014C117.7 93.5014 118.1 93.0014 118.7 92.8014C119.3 92.6014 119.9 92.4014 120.4 92.2014C120.7 92.0014 121.2 92.4014 121.5 92.3014C121.7 92.3014 122.2 93.6014 122.3 94.1014V94.3014C122.1 94.8014 122.1 95.6014 121.8 95.7014C121.3 95.7014 120.9 96.0014 120.4 96.2014L120.2 95.9014Z" fill="black"/>
<path d="M125.1 105.099C125 104.899 124.9 104.699 124.8 104.499C124.8 104.499 124.9 104.199 124.4 104.499C124.1 104.499 124.7 104.199 124.6 104.199C124.4 103.999 124.4 103.799 124.3 103.699C124.1 103.499 123.9 103.499 123.7 103.299C123.5 103.099 123.7 102.799 123.3 102.799C123 102.799 123.3 102.399 123.2 102.299C123 102.299 122.9 102.099 123 101.799C123 101.599 123.2 101.399 123 101.299H122.6C122.6 101.299 122.8 100.999 122.2 101.299C122.2 101.299 122.2 101.299 122.3 101.199C122.6 100.899 122.6 100.899 122.3 100.899C122 100.899 122 100.899 122 100.899C121.9 100.799 121.8 100.599 121.8 100.399C121.8 100.299 121.9 99.9992 121.9 99.8992C121.9 99.7992 121.6 99.6992 121.8 99.4992C122 99.2992 122 99.1992 121.8 98.9992C121.8 98.9992 122 98.6992 121.4 98.9992C122.1 98.4992 121 98.7992 121.1 98.4992C121.2 98.1992 121 98.0992 120.9 97.8992C120.9 97.8992 121 97.6992 120.6 97.8992C120.4 97.8992 120.4 97.8992 120.5 97.8992C121 97.4992 120.5 97.4992 120.6 97.2992C120.6 97.0992 120.3 96.9992 120.6 96.6992C120.8 96.4992 120.8 96.3992 120.2 96.5992C119.9 96.5992 120.2 96.4992 120.1 96.3992C120.1 96.3992 119.8 96.3992 119.7 96.3992C119.7 96.3992 119.9 96.1992 120 96.0992C119.3 96.0992 120 95.4992 119.7 95.2992C119.4 95.0992 119.4 94.7992 119.4 94.5992C119.4 94.3992 119.4 94.1992 120.5 93.6992C121 93.4992 121.5 93.1992 121.8 93.1992C122 93.1992 122.3 93.1992 122.3 93.1992C122.4 93.1992 122.6 93.1992 122.7 93.2992C122.9 93.2992 123.5 93.2992 123.3 93.5992C123.3 93.5992 123.5 93.5992 123.1 93.8992C123.9 93.7992 123.5 94.1992 123.7 94.3992C123.8 94.5992 124.5 94.3992 124.3 94.7992C124.9 94.5992 124.9 94.7992 124.7 94.9992C124.3 95.5992 124.8 95.7992 124.9 96.1992C124.9 96.5992 125.2 96.8992 125.4 97.2992C125.4 97.2992 125.8 97.2992 125.6 97.4992C125.4 97.6992 125.6 97.6992 125.6 97.7992C125.6 97.7992 125.8 97.7992 125.6 97.9992C125.1 98.5992 125.6 98.6992 125.7 98.9992C125.7 99.2992 125.9 99.5992 126.1 99.7992C126.3 99.8992 126.7 99.8992 126.6 100.199C126.6 100.199 126.9 100.199 126.4 100.599C126.3 100.599 126.7 100.599 126.7 100.599C126.8 100.599 126.8 100.799 126.9 100.899C126.9 101.099 127 101.199 127.2 101.399C127.2 101.399 127.6 101.399 127.7 101.499C127.8 101.499 127.9 101.699 127.9 101.799C127.9 101.999 127.8 102.199 127.9 102.399C127.9 102.599 128.2 102.599 128.1 102.799C127.8 103.299 128.1 103.399 128.2 103.699C128.2 103.999 128.4 104.199 128.6 104.399C128.7 104.399 128.4 104.899 128.4 104.999C128.4 104.999 127.2 105.899 126.8 106.099H126.6C126.1 106.199 125.4 106.399 125.4 106.299C125.4 105.999 125.2 105.799 125 105.599L125.1 105.099Z" fill="black"/>
<path d="M147.699 86.8984C147.199 86.8984 146.799 86.8984 146.399 86.8984C146.199 86.8984 146.099 86.6984 145.899 87.1984C145.899 87.4984 145.699 86.7984 145.499 86.7984C145.099 86.7984 144.699 86.7984 144.299 86.7984C143.899 86.7984 143.499 87.0984 143.199 87.0984C142.799 87.0984 142.499 86.8984 142.099 87.0984C141.799 87.3984 141.499 86.8984 141.299 87.0984C140.999 87.1984 140.699 87.2984 140.399 87.0984C140.199 86.9984 139.899 86.7984 139.799 86.8984C139.699 86.8984 139.599 87.2984 139.499 87.2984C139.399 87.2984 139.199 87.0984 139.199 87.6984C139.199 87.6984 139.199 87.6984 139.099 87.5984C138.899 87.1984 138.699 87.2984 138.699 87.5984C138.699 87.8984 138.499 87.8984 138.499 87.8984C138.199 87.8984 137.999 88.0984 137.699 88.0984C137.499 88.0984 137.199 87.9984 136.999 87.9984C136.799 87.9984 136.599 88.3984 136.299 88.0984C135.999 87.8984 135.799 87.9984 135.599 88.0984C135.499 88.0984 135.199 87.8984 135.399 88.5984C134.799 87.9984 134.899 89.0984 134.499 89.0984C134.099 89.0984 133.799 89.3984 133.499 89.4984C133.499 89.4984 133.199 89.4984 133.399 89.8984C133.399 90.0984 133.399 90.0984 133.299 89.9984C132.799 89.5984 132.699 89.9984 132.399 89.9984C132.099 89.9984 131.899 90.4984 131.399 90.1984C131.199 90.0984 130.899 90.0984 131.099 90.6984C131.099 90.9984 130.899 90.7984 130.799 90.8984V91.2984C130.799 91.2984 130.499 91.1984 130.399 91.0984C130.399 91.8984 129.499 91.3984 129.099 91.7984C128.799 92.1984 128.299 92.3984 127.799 92.5984C127.499 92.6984 127.199 92.6984 126.399 91.7984C126.099 91.3984 125.799 90.8984 125.699 90.5984C125.699 90.2984 125.699 90.0984 125.699 89.9984C125.699 89.7984 125.799 89.5984 125.899 89.4984C126.099 89.1984 126.099 88.4984 126.499 88.5984C126.599 88.5984 126.499 88.2984 126.899 88.5984H126.999C126.999 87.6984 127.599 87.8984 127.999 87.5984C128.299 87.3984 128.299 86.5984 128.799 86.5984C128.699 85.8984 128.999 85.8984 129.299 85.9984C130.299 86.1984 130.799 85.3984 131.599 85.0984C132.399 84.7984 133.099 84.3984 133.899 84.0984C133.999 84.0984 133.999 83.6984 134.299 83.8984C134.499 84.0984 134.699 83.8984 134.799 83.7984C134.999 83.7984 135.099 83.5984 135.299 83.5984C136.099 83.9984 136.599 83.3984 137.299 83.2984C137.999 83.1984 138.599 83.0984 139.199 82.7984C139.599 82.5984 139.899 82.1984 140.399 82.2984C140.599 82.2984 140.699 81.9984 140.999 82.4984C140.999 82.6984 141.199 82.1984 141.299 82.1984C141.599 82.1984 141.899 82.1984 142.099 82.1984C142.499 82.1984 142.899 82.1984 143.199 82.1984C143.399 82.1984 143.699 81.8984 143.899 81.8984C144.099 81.8984 144.399 81.8984 144.599 81.8984C144.899 81.8984 145.199 82.1984 145.499 82.2984C145.799 82.2984 146.099 82.0984 146.399 82.2984C146.899 82.7984 147.399 82.5984 147.899 82.5984C148.399 82.5984 148.899 82.5984 149.299 82.5984C149.599 82.5984 149.799 82.9984 150.099 82.8984C150.199 82.8984 150.599 84.2984 150.599 84.7984V84.9984C150.399 85.4984 150.199 86.2984 149.799 86.1984C149.299 86.1984 148.699 86.1984 148.199 86.1984L147.699 86.8984Z" fill="black"/>
<path d="M146 99.9C146 99.6 146 99.3 146 99.1C146 99 146.3 98.9 145.7 98.8C145.4 98.8 146.1 98.7 146.1 98.6C146.1 98.3 146.1 98.1 146.1 97.8C146.1 97.5 145.8 97.3 145.8 97C145.8 96.7 146.1 96.5 145.8 96.2C145.5 96 146 95.8 145.9 95.6C145.8 95.4 145.7 95.2 145.9 95C146.1 94.9 146.3 94.7 146.2 94.6C146.2 94.6 145.8 94.4 145.9 94.3C145.9 94.3 146.2 94.1 145.6 94C145.6 94 145.6 94 145.8 94C146.2 94 146.2 93.8 145.9 93.7C145.6 93.6 145.7 93.5 145.7 93.4C145.7 93.2 145.7 93 145.7 92.8C145.7 92.6 146 92.5 146.1 92.3C146.1 92.1 145.9 91.9 146.2 91.8C146.5 91.7 146.5 91.5 146.5 91.4C146.5 91.4 146.8 91.2 146.2 91.1C147 90.9 146 90.6 146.2 90.4C146.4 90.2 146.2 89.9 146.2 89.6C146.2 89.6 146.4 89.5 145.9 89.4C145.7 89.4 145.7 89.3 145.9 89.3C146.5 89.1 146.2 88.9 146.3 88.7C146.4 88.5 146.2 88.2 146.7 88C146.9 88 147 87.8 146.5 87.6C146.2 87.6 146.5 87.4 146.5 87.3L146.2 87.1C146.2 87.1 146.4 87 146.6 86.9C146 86.5 146.9 86.3 146.7 85.9C146.5 85.6 146.7 85.2 146.7 84.9C146.7 84.7 147 84.5 148.1 84.5C148.6 84.5 149.2 84.5 149.5 84.6C149.7 84.6 150 84.8 150 84.8C150 84.9 150.2 85 150.3 85.1C150.5 85.3 151 85.6 150.7 85.8C150.7 85.8 150.9 86 150.4 86C151.2 86.3 150.6 86.6 150.7 86.9C150.7 87.2 151.3 87.4 151.1 87.7C151.7 87.9 151.6 88 151.4 88.2C150.7 88.7 151.1 89.2 151 89.7C150.9 90.2 151 90.7 150.9 91.2C150.9 91.2 151.2 91.4 150.9 91.5C150.6 91.5 150.9 91.7 150.9 91.8C150.9 91.9 151 92 150.9 92.1C150.2 92.5 150.6 92.9 150.5 93.3C150.5 93.7 150.3 94.1 150.5 94.5C150.5 94.8 150.9 95 150.8 95.3C150.8 95.4 151.1 95.5 150.5 95.6C150.3 95.6 150.8 95.7 150.8 95.8C150.8 96 150.8 96.1 150.8 96.3C150.8 96.5 150.8 96.8 150.8 97C150.8 97.1 151.1 97.3 151.1 97.4C151.1 97.6 151.1 97.7 151.1 97.8C151.1 98 150.8 98.2 150.7 98.3C150.7 98.5 150.9 98.7 150.7 98.9C150.2 99.2 150.4 99.6 150.3 99.9C150.3 100.2 150.2 100.6 150.3 100.9C150.3 101.1 149.8 101.2 149.8 101.4C149.8 101.4 148.3 101.5 147.8 101.4H147.6C147.1 101.2 146.4 101 146.5 100.8C146.5 100.5 146.5 100.2 146.5 99.8L146 99.9Z" fill="black"/>
<path d="M162.1 111.299C162.5 110.499 162.9 109.799 163.2 108.999C163.3 108.699 163.7 108.499 163.4 107.999C163.2 107.699 163.9 107.699 164.1 107.499C164.4 106.799 164.8 106.099 165.1 105.299C165.4 104.599 165.5 103.799 165.8 103.099C166.1 102.399 166.7 101.799 166.8 100.999C166.8 100.299 167.5 99.9992 167.7 99.3992C167.9 98.7992 168.1 98.0992 168.6 97.6992C169 97.3992 169.4 96.9992 169.5 96.5992C169.5 96.2992 169.5 95.8992 169.5 95.6992C169.7 95.3992 170 95.2992 169.5 94.7992C169.5 94.7992 169.6 94.6992 169.7 94.6992C170.2 94.6992 170.4 94.1992 170.2 93.8992C170.1 93.4992 170.2 93.3992 170.3 93.0992C170.6 92.4992 170.8 91.8992 171.2 91.2992C171.5 90.8992 171.9 90.4992 172.1 90.1992C172.2 90.1992 171.9 90.0992 172.3 89.9992C172.7 89.8992 172.8 89.6992 172.8 89.5992C172.8 89.5992 172.9 89.4992 172.9 89.3992C172.9 89.3992 172.7 89.3992 172.3 89.6992C172.8 89.3992 172.5 89.3992 172.3 89.4992C172.1 89.5992 171.9 89.7992 171.9 89.6992C171.9 89.6992 171.9 89.6992 171.9 89.5992H171.6L170.4 89.3992C170.2 89.3992 170 89.1992 169.7 89.5992C169.7 89.6992 169.4 89.6992 169.3 89.5992C168.8 88.8992 168.2 89.1992 167.6 88.9992C166.9 88.7992 166.2 88.9992 165.6 88.3992C165.3 88.1992 165 87.9992 164.5 88.4992C164.3 88.6992 164 88.4992 163.8 88.4992C163.6 88.4992 163.4 88.7992 163.2 88.7992C163 88.7992 162.9 88.4992 162.7 88.3992C162.7 88.3992 162.6 88.3992 162.5 88.3992C161.4 88.9992 160.5 87.9992 159.5 88.0992C158.5 88.1992 157.5 88.0992 156.5 87.8992C155.9 87.8992 155.4 87.5992 155 86.3992C154.8 85.8992 154.9 85.2992 155.1 84.9992C155.3 84.7992 155.5 84.5992 155.7 84.4992C156 84.4992 156.4 84.2992 156.7 84.1992C157.4 83.9992 158.1 83.5992 158.7 83.8992C158.9 83.9992 159.2 83.6992 159.3 84.1992C159.3 84.1992 159.4 84.2992 159.4 84.1992C160.4 83.4992 161.3 84.0992 162.2 84.1992C163 84.1992 163.8 83.6992 164.6 84.0992C165.1 83.4992 165.6 83.6992 166 83.8992C167.5 84.7992 169.1 84.5992 170.7 84.8992C171.1 84.8992 171.5 85.0992 171.9 85.0992L173.6 85.3992C175 85.6992 176.4 85.9992 177.8 86.2992C178 86.2992 178.4 86.2992 178.7 86.2992C178.9 86.2992 179 86.2992 179.1 86.2992C179.1 86.3992 178.9 86.5992 178.8 86.6992C178.2 87.2992 178.2 87.7992 177.9 88.3992C177.7 88.8992 177.5 89.3992 177.1 89.8992C176.7 90.3992 176.3 90.8992 176 91.2992C175.9 91.4992 175.7 91.7992 175.6 91.8992C175.6 91.9992 175.4 92.1992 175.4 92.2992C175.1 92.8992 174.9 93.4992 174.6 93.9992C174 95.0992 173.4 96.0992 173 97.2992C172.8 97.9992 172.7 98.7992 172.3 99.4992C172.1 99.7992 172.3 100.199 171.6 100.199C171.4 100.199 171.6 100.699 171.6 100.899C171.4 101.399 171.2 101.799 170.9 102.299C170.6 102.899 170.2 103.599 169.9 104.199C169.7 104.599 169.8 105.099 169.6 105.499C169.5 105.899 169.2 106.299 169 106.699C168.7 107.199 168.2 107.599 167.9 108.099C167.6 108.599 167.5 109.299 167 109.699C166.1 110.399 165.8 111.499 165.3 112.399C164.8 113.299 164.3 114.299 163.9 115.299C163.7 115.899 163 116.099 162.7 116.699C162.6 116.899 161.1 116.699 160.7 116.299C160.7 116.299 160.6 116.199 160.5 116.099C160.3 115.399 159.9 114.599 160.3 113.999C160.8 113.199 161.2 112.299 161.6 111.399L162.1 111.299Z" fill="black"/>
<path d="M125.001 170.699C124.801 170.899 124.601 170.999 124.501 171.299C124.501 171.299 124.201 171.299 124.501 171.699C124.701 171.899 124.101 171.599 124.101 171.699C124.001 171.899 123.801 171.999 123.801 172.199C123.501 172.199 123.401 172.099 123.201 172.099C123.201 172.099 123.201 172.099 123.101 172.099C123.101 172.099 123.201 172.099 123.301 171.999L123.901 171.499C123.901 171.499 123.901 171.699 123.901 171.599C124.001 171.599 124.101 171.499 124.001 171.599C124.001 171.799 124.001 171.999 124.001 171.899C124.001 171.899 124.001 171.499 124.101 171.599C124.101 171.599 124.101 171.899 124.101 171.299C124.101 171.299 124.101 171.299 124.101 171.399C124.101 171.799 124.201 171.699 124.101 171.399C124.101 171.199 124.101 171.199 124.101 171.199C124.101 171.199 124.301 171.399 124.401 171.399C124.401 171.399 124.201 171.199 124.601 171.399C124.901 171.599 125.001 171.499 125.001 171.399C125.001 171.399 125.401 171.399 124.601 171.199C125.101 171.299 125.101 171.199 124.901 171.199C124.701 171.199 124.401 171.099 124.601 171.099C124.901 171.099 124.701 170.999 124.601 170.999C124.601 170.999 124.901 170.999 124.201 170.999C123.901 170.999 124.001 170.999 124.201 170.999C125.101 170.699 124.501 170.799 124.701 170.799C124.801 170.699 124.401 170.799 125.001 170.399C125.201 170.199 125.301 170.099 124.601 170.599C124.301 170.799 124.601 170.599 124.501 170.599L124.201 170.899C124.201 170.899 124.401 170.699 124.501 170.599C124.201 170.899 124.301 170.899 124.301 170.799C124.301 170.699 124.301 170.499 124.301 170.599C124.201 170.799 124.201 170.699 124.101 170.599C123.901 170.599 123.701 170.399 123.501 169.299C123.401 168.799 123.301 168.199 123.301 167.899C123.301 167.699 123.301 167.399 123.501 167.299C123.601 167.199 123.701 166.999 123.901 166.899C124.201 166.699 124.701 166.099 125.101 166.399C125.201 166.399 125.501 166.199 125.401 166.699C125.801 166.299 126.101 166.299 126.401 166.399C126.701 166.399 126.901 166.599 127.101 166.699C127.501 166.699 128.401 166.499 128.601 166.899C129.301 166.599 129.501 166.899 129.501 167.199C129.501 167.699 129.701 168.099 129.901 168.499C130.101 168.899 130.301 169.299 130.301 169.799C130.301 170.699 130.201 171.699 129.701 172.499C129.701 172.599 129.901 172.899 129.501 172.899C129.101 172.899 129.201 173.199 129.101 173.399C129.001 173.499 129.001 173.799 128.701 173.799C128.101 173.799 127.801 173.999 127.501 174.199C127.201 174.399 126.901 174.599 126.501 174.699C125.701 174.899 124.901 174.999 124.101 175.199C123.601 175.299 123.001 175.599 122.501 175.399C122.301 175.299 121.901 175.499 122.001 174.899C122.001 174.699 121.601 174.999 121.501 174.899C121.201 174.799 120.901 174.499 120.601 174.299C120.401 174.099 120.201 173.899 120.101 173.599C119.901 173.299 119.801 172.999 119.701 172.599C119.601 172.199 119.301 171.699 119.301 171.299C119.301 170.799 119.401 170.399 119.601 170.099C119.801 169.699 120.201 169.499 120.401 169.299C120.601 169.099 120.601 168.699 121.001 168.599C121.701 168.599 121.801 167.999 122.301 167.699C122.701 167.399 123.101 167.099 123.401 166.799C123.601 166.599 124.101 166.799 124.301 166.799C124.401 166.799 125.301 167.899 125.501 168.399V168.599C125.501 169.099 125.801 169.799 125.601 169.899C125.301 169.999 125.101 170.199 124.901 170.399L125.001 170.699Z" fill="black"/>
</svg>
