<svg width="300" height="300" viewBox="0 0 300 300" fill="none" xmlns="http://www.w3.org/2000/svg">
<path d="M184.101 141C183.701 140.6 183.401 140.2 183.001 139.8C182.801 139.7 183.001 139.3 182.401 139.6C182.101 139.7 182.401 139.1 182.401 139C182.001 138.7 181.701 138.3 181.301 137.9C180.901 137.6 180.401 137.4 180.101 137.1C179.701 136.8 179.601 136.2 179.101 136.1C178.601 136 178.701 135.4 178.401 135.2C178.001 135 177.701 134.7 177.601 134.3C177.601 134 177.501 133.6 177.201 133.5C177.001 133.5 176.701 133.5 176.601 133.4C176.501 133.3 176.601 132.9 176.001 133.2C176.001 133.2 176.001 133.1 176.001 133C176.201 132.6 176.001 132.4 175.701 132.5C175.401 132.5 175.301 132.5 175.201 132.3C174.901 132 174.601 131.7 174.401 131.4C174.201 131.1 174.201 130.8 174.001 130.5C173.801 130.2 173.401 130.2 173.401 129.7C173.401 129.3 173.201 129.1 173.001 128.9C172.901 128.8 173.001 128.4 172.401 128.8C172.701 127.9 171.601 128.3 171.401 127.8C171.201 127.3 170.801 127 170.401 126.7C170.401 126.7 170.401 126.4 169.901 126.7C169.801 126.7 169.601 126.7 169.701 126.6C169.901 125.9 169.401 125.9 169.201 125.5C169.001 125.1 168.501 125 168.501 124.3C168.501 124 168.501 123.8 167.901 124C167.601 124.1 167.701 123.8 167.501 123.7C167.401 123.7 167.101 123.7 167.001 123.7C167.001 123.7 167.001 123.4 167.001 123.2C166.101 123.2 166.301 122.1 165.701 121.8C165.101 121.5 164.701 120.9 164.401 120.4C164.201 120.1 164.101 119.7 164.801 118.8C165.101 118.4 165.501 118 165.801 117.9C166.101 117.9 166.301 117.8 166.401 117.9C166.601 117.9 166.801 118 167.001 118.1C167.401 118.3 168.101 118.1 168.201 118.7C168.201 118.9 168.601 118.7 168.201 119.2V119.3C169.201 119.2 169.201 120 169.601 120.3C170.001 120.6 170.801 120.5 170.901 121.1C171.501 120.9 171.701 121.1 171.701 121.5C171.901 122.7 172.901 123.1 173.501 123.8C174.101 124.6 174.801 125.2 175.501 126C175.601 126.1 176.001 126 175.901 126.3C175.901 126.6 176.101 126.6 176.301 126.8C176.401 126.9 176.701 127 176.701 127.2C176.701 128.2 177.601 128.5 178.001 129.1C178.501 129.7 179.001 130.3 179.601 130.8C180.001 131.1 180.601 131.2 180.801 131.6C180.801 131.8 181.301 131.7 181.001 132.3C181.001 132.5 181.401 132.3 181.501 132.3C181.801 132.5 182.001 132.8 182.201 133C182.501 133.3 182.801 133.7 183.101 134C183.301 134.2 183.701 134.2 183.901 134.4C184.101 134.6 184.301 134.8 184.501 135C184.701 135.3 184.801 135.7 185.001 136C185.201 136.3 185.701 136.4 185.701 136.9C185.701 137.7 186.401 138 186.801 138.6C187.201 139.1 187.601 139.6 188.201 140C188.501 140.2 188.401 140.8 188.601 141.1C188.701 141.2 187.801 142.4 187.401 142.7L187.201 142.8C186.601 142.8 185.901 143.1 185.601 142.8C185.201 142.3 184.801 141.9 184.401 141.5L184.101 141Z" fill="black"/>
<path d="M116.3 161.601C116.3 162.101 116.3 162.501 116.5 163.001C116.5 163.201 116.3 163.401 116.9 163.501C117.2 163.501 116.6 163.801 116.6 164.001C116.7 164.401 116.7 164.901 116.8 165.301C116.9 165.701 117.2 166.101 117.3 166.501C117.4 166.901 117.3 167.401 117.6 167.701C117.9 168.001 117.5 168.401 117.6 168.701C117.8 169.001 117.9 169.401 117.7 169.801C117.6 170.101 117.4 170.401 117.5 170.601C117.5 170.701 117.9 170.801 117.9 171.001C117.9 171.201 117.7 171.401 118.3 171.401C118.3 171.401 118.3 171.401 118.2 171.501C117.8 171.701 117.9 171.901 118.2 172.001C118.5 172.001 118.5 172.201 118.5 172.301C118.5 172.601 118.7 173.001 118.7 173.401C118.7 173.701 118.5 174.001 118.5 174.301C118.5 174.601 118.8 174.801 118.5 175.101C118.2 175.401 118.3 175.701 118.4 175.901C118.4 176.001 118.2 176.301 118.8 176.301C118.1 176.901 119.2 177.101 119.1 177.501C119 178.001 119.1 178.401 119.3 178.801C119.3 178.901 119.2 179.101 119.6 179.101C119.8 179.101 119.8 179.201 119.7 179.301C119.1 179.701 119.6 180.001 119.5 180.301C119.5 180.701 119.8 181.001 119.5 181.501C119.3 181.701 119.3 181.901 119.9 182.001C120.2 182.001 119.9 182.301 120 182.401C120 182.501 120.4 182.601 120.4 182.701C120.4 182.701 120.2 182.901 120.1 183.001C120.9 183.401 120.1 184.101 120.4 184.601C120.7 185.101 120.7 185.701 120.7 186.301C120.7 186.601 120.6 187.001 119.5 187.401C119 187.601 118.5 187.701 118.1 187.601C117.8 187.601 117.6 187.501 117.5 187.401C117.4 187.201 117.2 187.101 117.1 186.901C116.8 186.601 116.3 186.301 116.5 185.901C116.5 185.801 116.2 185.701 116.7 185.501C115.8 185.201 116.2 184.601 116.1 184.101C116 183.701 115.3 183.401 115.5 182.901C114.8 182.801 114.9 182.501 115 182.201C115.5 181.201 114.9 180.501 114.8 179.601C114.8 178.701 114.5 177.901 114.4 177.001C114.4 176.901 114 176.801 114.2 176.601C114.4 176.401 114.2 176.201 114.2 176.001C114.2 175.801 114 175.701 114.2 175.501C114.7 174.701 114.2 174.101 114.2 173.401C114.2 172.701 114.1 172.001 113.8 171.401C113.6 171.001 113.2 170.701 113.3 170.201C113.3 170.001 113 169.901 113.5 169.601C113.7 169.601 113.2 169.401 113.1 169.301C113.1 169.001 113 168.701 112.9 168.501C112.9 168.101 112.9 167.701 112.7 167.301C112.7 167.101 112.3 166.901 112.2 166.601C112.1 166.401 112.1 166.101 112.1 165.801C112.1 165.501 112.3 165.101 112.3 164.801C112.3 164.501 112 164.201 112.3 163.801C112.7 163.101 112.3 162.601 112.3 162.001C112.3 161.401 112.3 160.801 112 160.301C111.9 160.001 112.3 159.601 112.3 159.301C112.3 159.101 113.7 158.801 114.2 158.801H114.4C114.9 159.101 115.7 159.201 115.7 159.601C115.7 160.101 115.8 160.701 115.9 161.201L116.3 161.601Z" fill="black"/>
<path d="M166.101 147.298C166.501 147.098 166.801 146.998 167.201 146.698C167.301 146.698 167.601 146.698 167.501 146.198C167.501 145.898 167.901 146.398 168.001 146.398C168.301 146.198 168.701 146.098 169.001 145.898C169.301 145.698 169.501 145.298 169.801 145.098C170.101 144.898 170.601 145.098 170.801 144.598C171.001 144.198 171.401 144.598 171.601 144.298C171.801 144.098 172.101 143.898 172.501 143.998C172.801 143.998 173.101 144.198 173.201 143.998C173.201 143.898 173.201 143.498 173.401 143.498C173.501 143.498 173.801 143.698 173.701 142.998C173.701 142.998 173.701 142.998 173.901 142.998C174.201 143.298 174.401 143.198 174.401 142.998C174.401 142.698 174.501 142.698 174.601 142.598C174.901 142.498 175.201 142.298 175.501 142.298C175.701 142.298 176.001 142.298 176.301 142.298C176.501 142.298 176.701 141.898 177.001 142.098C177.301 142.298 177.501 142.198 177.701 142.098C177.801 142.098 178.101 142.298 177.901 141.598C178.501 142.298 178.501 141.098 178.901 141.198C179.301 141.198 179.601 140.998 180.001 140.898C180.001 140.898 180.301 140.998 180.201 140.498C180.201 140.298 180.201 140.298 180.401 140.398C180.901 140.898 181.001 140.398 181.301 140.398C181.601 140.398 181.901 139.998 182.301 140.398C182.501 140.598 182.701 140.598 182.701 139.998C182.701 139.698 182.901 139.998 183.001 139.798C183.001 139.798 183.001 139.398 183.201 139.398C183.201 139.398 183.401 139.598 183.501 139.698C183.801 138.898 184.501 139.698 184.901 139.298C185.301 138.998 185.801 138.898 186.301 138.898C186.601 138.898 186.901 138.898 187.401 139.998C187.601 140.498 187.801 140.998 187.701 141.398C187.701 141.698 187.701 141.898 187.601 141.998C187.501 142.098 187.401 142.298 187.301 142.398C187.101 142.698 186.901 143.298 186.601 143.098C186.501 143.098 186.501 143.398 186.201 142.898C186.001 143.798 185.501 143.398 185.101 143.598C184.801 143.798 184.601 144.498 184.201 144.298C184.201 144.998 184.001 144.898 183.701 144.798C182.801 144.398 182.301 144.998 181.601 145.198C180.901 145.298 180.301 145.698 179.601 145.898C179.501 145.898 179.601 146.298 179.301 146.098C179.101 145.898 179.001 146.098 178.801 146.198C178.701 146.198 178.601 146.398 178.401 146.298C177.601 145.898 177.301 146.498 176.701 146.598C176.201 146.698 175.601 146.898 175.201 147.298C174.901 147.498 174.801 147.998 174.401 147.998C174.201 147.998 174.201 148.398 173.901 147.898C173.801 147.798 173.901 148.198 173.801 148.298C173.601 148.398 173.401 148.498 173.201 148.598C172.901 148.698 172.601 148.798 172.301 148.998C172.101 149.098 172.101 149.398 171.901 149.598C171.701 149.698 171.601 149.798 171.301 149.898C171.001 149.898 170.701 149.898 170.401 149.898C170.101 149.898 170.001 150.298 169.601 150.198C168.901 149.998 168.601 150.398 168.201 150.598C167.701 150.798 167.301 150.898 166.901 151.298C166.701 151.498 166.201 151.198 166.001 151.298C165.901 151.298 165.101 150.098 164.901 149.698V149.498C164.901 148.998 164.801 148.198 165.101 148.098C165.501 147.998 165.901 147.698 166.301 147.498L166.101 147.298Z" fill="black"/>
<path d="M146.701 141.101C146.701 140.901 146.701 140.701 146.701 140.601C146.701 140.601 146.901 140.501 146.401 140.401C146.101 140.401 146.801 140.301 146.701 140.201C146.701 140.001 146.701 139.901 146.701 139.701C146.701 139.501 146.401 139.401 146.401 139.201C146.401 139.001 146.701 138.901 146.401 138.701C146.101 138.501 146.601 138.501 146.501 138.301C146.401 138.201 146.301 138.001 146.501 137.901C146.701 137.901 146.901 137.701 146.801 137.601C146.801 137.601 146.401 137.401 146.501 137.401C146.501 137.401 146.801 137.401 146.201 137.201C146.201 137.201 146.201 137.201 146.401 137.201C146.801 137.201 146.801 137.201 146.501 137.001C146.201 137.001 146.301 136.901 146.301 136.801C146.301 136.701 146.301 136.501 146.301 136.401C146.301 136.401 146.601 136.201 146.701 136.201C146.701 136.201 146.501 135.901 146.801 135.901C147.101 135.901 147.101 135.801 147.101 135.701C147.101 135.701 147.401 135.701 146.801 135.501C147.601 135.501 146.601 135.101 146.801 135.001C147.001 134.901 146.901 134.701 147.001 134.501C147.001 134.501 147.201 134.501 146.801 134.301C146.601 134.201 146.601 134.301 146.801 134.301C147.401 134.301 147.101 134.101 147.201 134.001C147.401 133.901 147.201 133.701 147.601 133.701C147.801 133.701 147.901 133.701 147.401 133.401C147.201 133.301 147.401 133.401 147.401 133.201L147.101 133.001C147.101 133.001 147.301 133.001 147.501 133.001C146.901 132.601 147.901 132.701 147.801 132.401C147.801 132.101 147.801 132.001 148.001 131.801C148.001 131.801 148.301 131.701 149.401 132.001C149.901 132.201 150.401 132.401 150.701 132.601C150.901 132.701 151.101 132.801 151.101 132.901C151.101 132.901 151.301 133.101 151.301 133.201C151.401 133.401 151.901 133.701 151.601 133.701C151.601 133.701 151.801 133.901 151.301 133.701C152.001 134.101 151.401 134.101 151.401 134.301C151.401 134.401 152.001 134.801 151.701 134.801C152.301 135.101 152.101 135.101 151.901 135.101C151.201 135.101 151.501 135.501 151.401 135.801C151.201 136.001 151.301 136.301 151.201 136.601C151.201 136.601 151.501 136.801 151.201 136.801C150.901 136.801 151.201 136.901 151.201 137.001C151.201 137.001 151.301 137.101 151.201 137.201C150.501 137.201 150.901 137.601 150.801 137.801C150.801 138.001 150.601 138.201 150.801 138.401C150.801 138.501 151.201 138.701 151.101 138.801C151.101 138.801 151.401 138.901 150.801 138.901C150.601 138.901 151.101 138.901 151.101 139.001C151.101 139.001 151.101 139.201 151.101 139.301C151.101 139.401 151.101 139.501 151.101 139.701L151.401 139.901V140.101C151.401 140.101 151.101 140.301 151.001 140.401C151.001 140.501 151.201 140.601 151.001 140.701C150.501 140.901 150.701 141.101 150.701 141.301C150.701 141.501 150.701 141.701 150.701 141.801C150.701 141.801 150.301 142.001 150.301 142.101C150.301 142.101 148.801 142.301 148.301 142.401H148.101C147.601 142.401 146.901 142.301 146.901 142.101C146.901 141.901 146.901 141.701 146.901 141.501L146.701 141.101Z" fill="black"/>
<path d="M157.1 141.898C157.1 141.698 157.1 141.498 157.1 141.398C157.1 141.398 157.3 141.298 156.8 141.198C156.5 141.198 157.2 141.098 157.1 140.998C157.1 140.798 157.1 140.698 157.1 140.498C157.1 140.298 156.8 140.198 156.8 139.998C156.8 139.798 157.1 139.698 156.8 139.498C156.5 139.298 157 139.298 156.9 139.098C156.8 138.998 156.7 138.798 156.9 138.698C157.1 138.698 157.3 138.498 157.2 138.398C157.2 138.398 156.8 138.198 156.9 138.198C156.9 138.198 157.2 138.198 156.6 137.998C156.6 137.998 156.6 137.998 156.8 137.998C157.2 137.998 157.2 137.998 156.9 137.798C156.6 137.798 156.7 137.698 156.7 137.598C156.7 137.498 156.7 137.298 156.7 137.198C156.7 137.198 157 136.998 157.1 136.998C157.1 136.998 156.9 136.698 157.2 136.698C157.5 136.698 157.5 136.598 157.5 136.498C157.5 136.498 157.8 136.498 157.2 136.298C158 136.298 157 135.898 157.2 135.798C157.4 135.698 157.3 135.498 157.4 135.298C157.4 135.298 157.6 135.298 157.2 135.098C157 134.998 157 135.098 157.2 135.098C157.8 135.098 157.5 134.898 157.6 134.798C157.8 134.698 157.6 134.498 158 134.498C158.2 134.498 158.3 134.498 157.8 134.198C157.6 134.098 157.8 134.198 157.8 133.998L157.5 133.798C157.5 133.798 157.7 133.798 157.9 133.798C157.3 133.398 158.3 133.498 158.2 133.198C158.2 132.898 158.2 132.798 158.4 132.598C158.4 132.598 158.7 132.498 159.8 132.798C160.3 132.998 160.8 133.198 161.1 133.398C161.3 133.498 161.5 133.598 161.5 133.698C161.5 133.698 161.7 133.898 161.7 133.998C161.8 134.198 162.3 134.498 162 134.498C162 134.498 162.2 134.698 161.7 134.498C162.4 134.898 161.8 134.898 161.8 135.098C161.8 135.198 162.4 135.598 162.1 135.598C162.7 135.898 162.5 135.898 162.3 135.898C161.6 135.898 161.9 136.298 161.8 136.598C161.6 136.798 161.7 137.098 161.6 137.398C161.6 137.398 161.9 137.598 161.6 137.598C161.3 137.598 161.6 137.698 161.6 137.798C161.6 137.798 161.7 137.898 161.6 137.998C160.9 137.998 161.3 138.398 161.2 138.598C161.2 138.798 161 138.998 161.2 139.198C161.2 139.298 161.6 139.498 161.5 139.598C161.5 139.598 161.8 139.698 161.2 139.698C161 139.698 161.5 139.698 161.5 139.798C161.5 139.798 161.5 139.998 161.5 140.098C161.5 140.198 161.5 140.298 161.5 140.498L161.8 140.698V140.898C161.8 140.898 161.5 141.098 161.4 141.198C161.4 141.298 161.6 141.398 161.4 141.498C160.9 141.698 161.1 141.898 161.1 142.098C161.1 142.298 161.1 142.498 161.1 142.598C161.1 142.598 160.7 142.798 160.7 142.898C160.7 142.898 159.2 143.098 158.7 143.198H158.5C158 143.198 157.3 143.098 157.3 142.898C157.3 142.698 157.3 142.498 157.3 142.298L157.1 141.898Z" fill="black"/>
<path d="M171.501 152.002C172.401 153.002 173.201 154.002 174.001 154.902C174.301 155.302 174.401 155.802 175.201 155.802C175.601 155.802 175.401 156.602 175.701 156.902C176.501 157.802 177.201 158.802 178.001 159.702C178.401 160.202 178.801 160.502 179.201 161.002C179.801 161.702 180.401 162.402 181.101 163.302C182.101 164.502 182.801 165.702 183.701 167.002C183.201 167.202 182.701 167.302 182.301 167.502C181.601 167.802 180.701 168.002 179.901 168.202C179.001 168.302 178.201 168.502 177.501 168.702C177.301 168.702 177.101 168.802 176.901 168.902H176.401C176.201 169.102 175.901 169.202 175.601 169.202C175.101 169.302 174.601 169.302 174.101 169.202C173.401 169.202 172.601 169.002 171.901 169.202C171.501 169.302 171.101 169.702 170.601 169.702C170.101 169.702 169.601 169.502 169.201 170.102C169.201 170.102 169.001 170.102 168.901 170.002C168.401 169.602 167.801 169.702 167.401 170.002C167.001 170.302 166.601 170.202 166.301 170.202C165.301 170.202 164.201 170.202 163.201 170.002C162.401 169.902 161.701 169.602 160.901 169.402C160.101 169.302 159.201 169.402 158.501 169.002C157.801 168.602 157.101 168.402 156.401 168.302C156.001 168.302 155.601 167.802 155.101 168.302C155.101 168.302 154.901 168.302 154.801 168.302C153.901 167.202 152.501 167.902 151.401 167.302C150.301 166.702 149.001 166.402 147.901 165.902C147.601 165.802 147.301 165.402 146.901 165.702C146.701 165.702 146.401 165.702 146.301 165.402C145.801 164.402 144.701 164.202 143.901 163.602C143.001 162.902 142.001 162.402 141.401 161.302C141.201 160.802 140.801 160.302 140.001 160.302C139.601 160.302 139.401 159.702 139.101 159.402C138.801 159.202 138.401 159.102 138.201 158.802C138.001 158.602 138.001 158.202 137.901 157.902C137.901 157.902 137.901 157.702 137.701 157.702C137.001 157.202 136.501 156.402 136.301 155.602L135.901 154.402C135.801 154.002 135.701 153.602 135.501 153.202C134.701 151.702 134.401 149.902 134.301 148.202C134.301 147.302 134.401 146.302 135.501 145.702C136.001 145.402 136.601 145.402 136.901 145.702C137.201 146.002 137.401 146.202 137.501 146.502C137.601 147.002 137.701 147.402 137.901 147.802C138.101 148.202 138.301 148.702 138.501 149.102C138.701 149.502 138.901 149.902 138.901 150.402C138.901 150.702 139.201 150.902 138.901 151.302V151.502C139.501 151.902 139.701 152.502 140.001 153.002C140.101 153.302 140.201 153.602 140.301 153.902C140.401 154.202 140.601 154.502 140.801 154.702C141.101 155.102 141.501 155.502 141.901 155.802C142.301 156.102 142.701 156.402 143.001 156.902C143.801 156.902 144.201 157.402 144.501 157.902C145.601 159.802 147.701 160.602 149.601 161.602C151.501 162.602 153.601 163.302 155.801 163.902C156.201 163.902 156.601 163.702 156.901 164.102C157.201 164.502 157.801 164.402 158.301 164.502C158.701 164.502 159.201 164.502 159.601 164.802C161.201 165.802 163.101 165.602 164.801 165.702C166.501 165.902 168.301 165.902 170.101 165.702C171.201 165.502 172.201 165.102 173.201 165.102C173.701 165.102 174.101 164.702 174.601 165.102C174.801 165.202 175.101 164.702 175.401 164.602H175.801C175.801 164.502 176.001 164.502 176.001 164.502C176.101 164.502 176.301 164.502 176.401 164.502C176.401 164.502 176.401 164.402 176.201 164.302C176.101 164.202 175.701 164.102 175.601 164.102C175.601 164.102 175.501 164.102 175.401 163.902L175.201 163.702L174.901 163.302C174.401 162.602 174.101 161.802 173.601 161.102C173.101 160.402 172.301 159.802 172.001 159.002C171.401 157.502 170.201 156.402 169.201 155.202C168.201 154.002 167.201 152.802 166.101 151.702C165.501 151.102 165.301 150.202 164.701 149.502C164.401 149.202 165.101 147.802 165.601 147.602C165.601 147.602 165.801 147.602 165.901 147.602C166.801 147.902 167.901 148.002 168.501 148.702C169.401 149.802 170.501 150.902 171.401 152.002H171.501Z" fill="black"/>
<path d="M160 187.002L160.5 186.002C160.5 185.802 160.6 185.702 160.7 185.502C160.7 185.502 161.1 185.002 160.4 185.502C160 185.702 161 185.002 161 184.902V184.802H160.8C160.6 184.902 160.5 185.002 160.3 185.002C160.1 185.002 160 185.202 159.8 185.302H159.6C159.3 185.302 159 185.402 158.7 185.402C157.5 185.502 156.4 185.202 155.3 185.402C154.3 185.602 153.6 184.902 152.7 184.802C151.7 184.702 150.8 184.502 150 183.902C149.4 183.502 148.9 183.002 148.3 182.902C147.9 182.802 147.4 182.902 147 182.702C146.6 182.502 146.4 182.002 145.7 182.402C145.7 182.402 145.5 182.202 145.5 182.102C145.3 181.502 144.9 181.202 144.4 181.302C143.9 181.302 143.7 181.102 143.4 180.902C142.6 180.402 141.9 179.802 141.2 179.202C140.7 178.702 140.3 178.102 139.9 177.502C139.4 177.002 138.7 176.602 138.5 175.902C138.3 175.202 137.8 174.802 137.4 174.302C137.2 174.002 137.1 173.502 136.4 173.702C136.4 173.702 136.3 173.702 136.3 173.502C136.3 172.202 134.8 172.002 134.3 170.902C133.9 169.802 133.1 168.802 132.7 167.702C132.6 167.402 132.7 167.002 132.1 166.902C131.9 166.902 131.8 166.502 131.9 166.302C132.1 165.802 132 165.302 131.9 164.902C131.8 164.502 131.6 164.002 131.6 163.602C131.6 163.102 131.5 162.602 131.5 162.102C131.5 161.602 131.5 161.102 131.7 160.602C131.9 160.202 132 159.602 131.5 159.102C131.2 158.902 131.5 158.402 131.5 158.002C131.5 157.702 131.2 157.402 131.3 157.102C131.3 156.802 131.6 156.602 131.7 156.402V156.202C131.3 154.702 132.4 153.502 132.6 152.102C132.8 150.702 133.2 149.402 133.8 148.102C134.1 147.402 134.5 146.702 135.7 146.602C136.3 146.602 136.8 146.702 137 147.102C137.2 147.402 137.3 147.702 137.3 148.002C137.3 148.402 137.3 148.902 137.3 149.302C137.3 150.202 137.5 151.102 137 151.902C136.8 152.102 137 152.502 136.5 152.602C136.5 152.602 136.4 152.702 136.4 152.802C136.9 154.102 136.1 155.102 136 156.302C135.9 157.302 136.4 158.302 136 159.202C136.6 159.802 136.5 160.302 136.3 160.802C135.6 162.602 136.3 164.402 136.9 166.002C137.4 167.702 138.5 169.202 139.7 170.702C139.9 171.002 140.4 171.002 140.4 171.402C140.4 171.902 140.9 172.102 141.2 172.402C141.5 172.702 141.8 172.902 142 173.302C142.6 174.902 144 175.702 145.2 176.702C146.3 177.702 147.6 178.602 149 179.202C149.9 179.502 150.8 179.602 151.6 180.002C151.9 180.202 152.4 180.002 152.6 180.702C152.6 180.902 153.1 180.602 153.4 180.702C154 180.802 154.6 181.002 155.2 181.102C156 181.202 156.9 181.402 157.7 181.302C158.2 181.302 158.7 181.002 159.2 180.902C159.3 180.902 159.5 180.902 159.6 180.902H159.7H159.8L160.2 180.802L161.1 180.602C161.4 180.602 161.7 180.602 162 180.402C162.8 180.202 163.6 180.002 164.4 179.702C165.2 179.502 165.9 179.302 166.7 179.002C167 178.902 167.4 178.802 167.7 178.602V179.102V179.402V179.802C167.4 180.302 167.3 180.902 167 181.502C166.3 182.902 165.9 183.902 165.6 185.002C165.2 186.002 164.8 187.202 164.3 188.202C163.6 189.502 162.9 190.802 162.2 192.102C161.8 192.802 161 193.202 160.5 193.802C160.3 194.102 158.8 193.602 158.5 193.202C158.5 193.202 158.4 193.002 158.4 192.902C158.4 192.002 158.2 191.102 158.7 190.402C159.4 189.402 160 188.302 160.5 187.302L160 187.002Z" fill="black"/>
<path d="M114.7 158.799C113.8 158.999 112.9 159.099 112.1 159.199C111.8 159.199 111.4 158.999 111.1 159.599C110.9 159.899 110.6 159.299 110.3 159.299C109.5 159.399 108.6 159.299 107.8 159.299C107 159.299 106.2 159.499 105.4 159.499C104.6 159.499 103.8 159.099 103 159.299C102.3 159.499 101.8 158.899 101.1 158.799C100.4 158.799 99.6004 158.699 99.0004 158.199C98.5004 157.799 98.1004 157.399 97.6004 157.199C97.3004 157.099 96.8004 157.199 96.4004 156.799C96.1004 156.499 95.9004 155.999 95.2004 156.099C95.2004 156.099 95.1004 155.899 95.1004 155.699C95.1004 155.099 94.8004 154.599 94.4004 154.399C94.0004 154.199 93.9004 153.799 93.8004 153.499C93.5004 152.599 93.4004 151.599 93.5004 150.699C93.5004 149.999 94.0004 149.399 94.2004 148.799C94.4004 148.199 94.5004 147.399 95.0004 146.999C95.6004 146.599 95.8004 146.099 96.2004 145.699C96.4004 145.399 96.9004 145.399 96.6004 144.699C96.6004 144.699 96.6004 144.599 96.7004 144.599C97.3004 144.599 97.6004 144.299 97.9004 143.899C98.2004 143.499 98.4004 143.099 98.9004 142.899C99.8004 142.599 100.5 142.099 101.4 141.699C101.6 141.699 101.9 141.699 102 141.199C102 140.999 102.2 140.899 102.4 140.999C103.2 141.399 103.7 140.799 104.3 140.799C105 140.799 105.6 140.299 106.4 140.599C106.7 140.699 107.2 140.699 107.4 140.099C107.5 139.799 107.9 139.999 108.2 139.899C108.4 139.899 108.6 139.499 108.8 139.499C109 139.499 109.2 139.699 109.4 139.699C109.4 139.699 109.5 139.699 109.6 139.699C110.6 138.899 111.8 139.699 112.9 139.499C114 139.299 115.2 139.499 116.4 139.799C117 139.999 117.7 140.399 117.7 141.599C117.7 142.099 117.5 142.699 117.2 142.899C117 143.099 116.7 143.199 116.5 143.199C116.2 143.199 115.9 143.199 115.6 143.299C115 143.299 114.4 143.799 113.8 143.499C113.6 143.399 113.4 143.699 113.3 143.199C113.3 143.199 113.3 143.099 113.2 143.199C112.4 143.999 111.6 143.499 110.7 143.699C110 143.799 109.4 144.599 108.7 144.399C108.4 145.099 108 145.099 107.5 144.999C105.9 144.699 104.6 145.499 103.3 145.899C102 146.299 100.9 146.999 100 147.799C99.8004 147.899 100 148.299 99.6004 148.299C99.3004 148.299 99.3004 148.599 99.2004 148.799C99.1004 148.999 99.1004 149.199 98.9004 149.299C98.4004 149.499 98.2004 149.999 98.1004 150.399C98.1004 150.799 98.1004 151.299 98.1004 151.699C98.1004 152.499 98.4004 153.199 99.1004 153.599C99.5004 153.799 100.1 153.699 100.6 154.099C100.8 154.199 101.2 153.999 101.3 154.599C101.3 154.799 101.7 154.399 101.9 154.399C102.3 154.399 102.8 154.599 103.3 154.699C103.9 154.799 104.6 154.999 105.2 154.999C105.6 154.999 106 154.799 106.4 154.799C106.8 154.799 107.2 154.799 107.6 154.799C108.1 154.799 108.6 155.099 109.2 155.199C109.8 155.199 110.3 154.999 110.8 155.199C111.8 155.599 112.8 155.199 113.8 155.199C114.8 155.099 115.7 154.899 116.7 154.599C117.2 154.399 117.8 154.699 118.4 154.599C118.6 154.599 119.5 155.799 119.5 156.299C119.5 156.299 119.5 156.499 119.5 156.599C119.1 157.199 118.8 158.099 118.1 158.199C117.1 158.399 116.1 158.699 115.2 158.899L114.7 158.799Z" fill="black"/>
<path d="M158.901 199.8C158.101 200 157.301 200.1 156.501 200.3C156.201 200.3 155.901 200.2 155.601 200.8C155.501 201.1 155.101 200.5 154.801 200.6C154.101 200.8 153.301 200.8 152.601 200.9C151.901 201 151.201 201.3 150.401 201.4C149.701 201.4 148.901 201.2 148.201 201.5C147.601 201.8 147.001 201.3 146.501 201.4C145.901 201.4 145.201 201.6 144.601 201.3C144.201 201.1 143.801 200.9 143.301 200.9C143.001 200.9 142.701 201.2 142.401 201.2C142.101 201.2 141.901 200.8 141.501 201.4C141.501 201.4 141.401 201.4 141.301 201.2C141.101 200.8 140.701 200.7 140.401 201C140.101 201.2 139.901 201.2 139.701 201.2C139.101 201.2 138.501 201.1 137.901 200.9C137.501 200.8 137.001 200.5 136.601 200.3C136.101 200.1 135.601 200.3 135.201 199.9C134.801 199.5 134.401 199.4 134.001 199.3C133.801 199.3 133.601 198.9 133.201 199.5H133.101C132.601 198.5 131.701 199.4 131.101 199C130.501 198.6 129.701 198.5 129.001 198.3C128.801 198.3 128.701 198 128.301 198.3C128.201 198.4 128.001 198.3 127.901 198.3C127.601 197.5 126.901 197.7 126.401 197.4C125.801 197.1 125.101 197.1 124.701 196.4C124.501 196.1 124.201 195.9 123.701 196.4C123.501 196.6 123.301 196.2 123.001 196.2C122.801 196.2 122.501 196.4 122.301 196.2C122.101 196.2 122.101 195.9 122.001 195.7C122.001 195.7 122.001 195.7 121.801 195.7C120.601 195.9 120.001 194.7 118.901 194.1C117.801 193.5 116.801 192.4 116.401 191C116.101 190.3 116.201 189.2 117.401 188.8C117.901 188.6 118.501 188.8 118.801 188.9C119.001 189 119.301 189.1 119.301 189.3C119.401 189.5 119.601 189.6 119.801 189.8C120.101 190.1 120.801 190.1 120.801 190.5C120.801 190.7 121.101 190.5 120.801 191V191.1C121.701 190.8 122.001 191.6 122.801 191.8C123.401 192 124.301 191.7 124.801 192.2C125.401 191.8 125.801 192 126.101 192.3C127.101 193.4 128.601 193.4 129.901 194C131.201 194.5 132.501 194.8 133.901 195.2C134.101 195.2 134.401 195 134.601 195.3C134.801 195.6 135.201 195.5 135.501 195.6C135.801 195.6 136.101 195.6 136.301 195.8C137.201 196.7 138.401 196.5 139.401 196.8C140.401 197.1 141.501 197.3 142.601 197.2C143.301 197.2 143.901 196.9 144.601 197.1C144.901 197.1 145.201 196.9 145.401 197.5C145.401 197.7 145.801 197.2 145.901 197.2C146.301 197.2 146.801 197.2 147.201 197.2C147.801 197.2 148.401 197.2 149.001 197.2C149.401 197.2 149.701 196.9 150.101 196.8C150.501 196.8 150.901 196.8 151.301 196.8C151.801 196.8 152.301 197 152.801 197C153.301 197 153.801 196.7 154.301 196.9C155.301 197.3 156.201 196.9 157.101 196.7C158.001 196.5 158.901 196.4 159.701 196C160.201 195.8 160.801 196.1 161.301 196C161.501 196 162.301 197.2 162.401 197.7C162.401 197.7 162.401 197.9 162.401 198C162.101 198.6 161.801 199.5 161.201 199.6C160.301 199.8 159.401 200.1 158.501 200.3L158.901 199.8Z" fill="black"/>
<path d="M162.8 151.9C162.1 152.1 161.4 152.4 160.8 152.8C160.7 152.8 160.5 152.8 160.4 153C160.2 153.1 160 153.3 159.9 153.7C159.7 154.1 159.1 153.7 158.7 153.9C158.1 154.1 157.4 154.1 156.9 153.9C156.3 153.7 155.8 153.2 155.3 152.8C155 152.6 154.9 152.5 154.7 152.4C154.5 152.4 154.4 152.2 154.2 152.1C153.9 151.9 153.6 151.8 153.3 151.6C152.7 151.2 152.3 150.6 151.5 150.5C150.9 150.5 150.7 149.7 150.1 149.6C149.5 149.4 148.9 149.3 148.5 148.8C148.2 148.5 147.9 148.1 147.4 148.1C147.1 148.1 146.8 148.3 146.5 148.1C146.3 148 146 147.6 145.7 148.1C145.7 148.1 145.6 148.1 145.6 147.9C145.4 147.4 145.1 147.4 144.8 147.6C144.5 147.8 144.3 147.7 144.1 147.6C143.5 147.6 142.9 147.4 142.4 147.3C142 147.3 141.6 146.9 141.1 146.8C140.6 146.7 140.1 147 139.7 146.6C139.3 146.3 138.9 146.3 138.4 146.3C138.2 146.3 137.9 146 137.7 146.7H137.6C136.8 145.9 136.3 147.1 135.6 147C134.9 147 134.2 147.2 133.5 147.4C133.3 147.4 133.1 147.4 133 147.8C133 148 132.8 148 132.7 148C132 147.5 131.6 148.1 131 148.2C130.4 148.3 129.9 148.8 129.1 148.6C128.8 148.6 128.4 148.6 128.4 149.3C128.4 149.6 128 149.5 127.8 149.7C127.7 149.8 127.6 150.2 127.5 150.3C127.4 150.3 127.1 150.3 126.9 150.3H126.8C126.4 151.3 125.2 151.1 124.5 151.8C123.9 152.5 123.2 153.1 122.4 153.6C122 153.9 121.5 154.2 120.4 153.6C119.9 153.4 119.5 153 119.4 152.6C119.4 152.3 119.4 152 119.4 151.8C119.6 151.5 119.7 151.1 119.9 150.9C120.2 150.3 120.4 149.4 121.1 149.2C121.3 149.2 121.3 148.7 121.8 149H122C122.2 147.8 123.4 147.6 124.1 147C124.8 146.5 125.1 145.6 126 145.4C126.1 144.6 126.7 144.5 127.2 144.4C129 144.4 130.3 143.3 132 143C133.6 142.7 135.3 142.3 137 142.2C137.3 142.2 137.5 141.8 137.9 142.1C138.2 142.4 138.6 142.1 139 142.1C139.3 142.1 139.7 142 140 142.1C141.3 142.8 142.6 142.5 143.9 142.8C145.2 143.1 146.4 143.5 147.7 143.7C148.5 143.8 149.3 143.8 150 144.2C150.3 144.4 150.8 144.2 150.8 144.9C150.8 145.1 151.3 144.9 151.5 144.9C152 145.1 152.5 145.4 153 145.7C153.7 146.1 154.3 146.5 155 146.9C155.4 147.1 155.9 147.2 156.3 147.4C156.7 147.7 157.1 148 157.5 148.3C157.6 148.4 157.7 148.5 157.8 148.7C157.8 148.7 157.8 148.7 157.8 148.8V149C157.8 149 157.8 149 157.9 149C157.9 149 157.9 149 158 149C158 149 158.1 149.2 158.3 149.1C158.6 149 158.8 148.9 159.1 148.7C159.6 148.4 160.1 148.1 160.7 148C161.8 147.6 163 147.4 164.1 147.1C164.8 146.9 165.4 147.4 166 147.4C166.3 147.4 166.7 148.9 166.6 149.4C166.6 149.4 166.6 149.6 166.5 149.6C166 150.1 165.6 150.8 165 150.8C164.2 150.8 163.4 151.1 162.6 151.3L162.8 151.9Z" fill="black"/>
<path d="M131.5 121.6C131.5 122.1 131.5 122.6 131.5 123.1C131.5 123.3 131.3 123.5 131.8 123.7C132.1 123.7 131.4 124 131.5 124.2C131.5 124.7 131.5 125.2 131.5 125.6C131.5 126.1 131.7 126.6 131.8 127C131.8 127.5 131.5 127.9 131.8 128.4C132 128.8 131.5 129.1 131.5 129.5C131.5 129.9 131.5 130.4 131.2 130.7C131 130.9 130.7 131.2 130.7 131.5C130.7 131.7 131 131.9 130.9 132.1C130.9 132.3 130.5 132.4 131 132.7C131 132.7 131 132.7 130.8 132.7C130.3 132.7 130.3 133 130.5 133.2C130.7 133.5 130.6 133.6 130.5 133.7C130.4 134.1 130.2 134.5 130 134.9C129.8 135.2 129.5 135.4 129.2 135.6C129 135.9 129 136.3 128.6 136.4C128.2 136.4 128 136.7 127.8 137C127.7 137.1 127.3 137.1 127.8 137.6C126.9 137.5 127.4 138.5 126.9 138.8C126.4 139 126.1 139.5 125.7 139.9C125.6 139.9 125.4 139.9 125.6 140.4C125.6 140.6 125.6 140.7 125.4 140.6C124.7 140.3 124.6 140.9 124.2 141C123.7 141.1 123.5 141.7 122.8 141.4C122.5 141.4 122.3 141.4 122.3 142C122.3 142.3 122 142.1 121.9 142.3C121.8 142.4 121.8 142.7 121.6 142.8C121.5 142.8 121.3 142.7 121.1 142.6C121.1 142.6 121.1 142.6 121 142.6C120.5 143.5 119.6 142.8 119 143.1C118.7 143.2 118.3 143.3 117.9 143.3C117.5 143.3 117.2 143.3 116.8 143.3C116.4 143.3 116 143 115.9 141.8C115.9 141.3 115.9 140.7 116.1 140.4C116.2 140.2 116.3 140 116.5 139.9C116.7 139.9 116.8 139.7 117 139.6C117.3 139.4 117.6 138.9 117.9 139.1C118 139.1 118.1 138.9 118.2 139.4C118.5 138.5 119 139 119.4 138.8C119.8 138.7 119.8 137.9 120.3 138C120.3 137.3 120.4 137.3 120.7 137.4C121.6 137.6 122 136.9 122.6 136.5C123.2 136.1 123.7 135.5 124.2 134.9C124.2 134.9 124.1 134.5 124.4 134.6C124.7 134.6 124.6 134.4 124.7 134.2C124.7 134.1 124.7 133.9 125 133.8C125.9 133.6 125.8 132.9 126.1 132.4C126.4 131.9 126.7 131.3 126.7 130.6C126.7 130.2 126.5 129.8 126.7 129.4C126.7 129.3 126.5 129 127.1 129C127.3 129 126.9 128.7 126.9 128.6C126.9 128.3 126.9 128.1 127 127.8C127 127.4 127.1 127.1 127.1 126.7C127.1 126.5 126.9 126.2 126.8 126C126.8 125.8 126.8 125.5 126.8 125.3C126.8 125 127.1 124.7 127.2 124.4C127.2 124.1 127 123.8 127.2 123.4C127.7 122.8 127.4 122.3 127.4 121.7C127.4 121.1 127.4 120.5 127.2 120C127.2 119.7 127.6 119.3 127.5 119C127.5 118.9 128.9 118.5 129.4 118.5H129.6C130.1 118.8 130.9 119 130.8 119.4C130.8 120 130.8 120.5 130.9 121.1L131.5 121.6Z" fill="black"/>
<path d="M100.999 124.502C102.799 121.702 105.199 119.602 107.599 117.802C108.499 117.102 109.599 116.702 110.299 115.602C110.699 115.102 111.899 115.002 112.799 114.502C115.199 113.002 117.899 111.902 120.499 110.902C121.799 110.402 122.999 109.902 124.499 109.502C125.999 109.102 127.699 108.802 129.599 109.502C129.899 109.502 130.199 109.702 130.499 109.802C130.599 109.802 130.499 109.802 130.599 109.802C130.599 109.802 130.699 109.802 130.799 110.002C130.799 110.002 130.799 110.202 130.899 110.202V110.002C131.099 109.802 130.999 109.802 131.299 109.102C132.299 106.802 134.099 105.402 135.599 103.702C137.199 101.902 139.299 100.302 141.399 99.4016C142.999 98.7016 144.499 98.2016 145.999 97.4016C146.899 96.9016 147.699 96.3016 148.799 96.0016C149.799 95.7016 150.999 95.6016 151.699 94.7016C151.699 94.7016 152.199 94.7016 152.499 94.7016C153.699 94.8016 154.999 94.5016 155.799 94.0016C156.599 93.5016 157.399 93.4016 158.199 93.2016C160.499 92.7016 162.799 92.4016 165.099 92.2016C166.899 92.1016 168.599 92.2016 170.399 92.3016C172.199 92.3016 174.299 92.3016 175.999 92.8016C177.699 93.4016 179.299 93.8016 180.999 94.6016C181.999 95.0016 182.799 95.9016 183.899 95.9016C183.999 95.9016 184.299 96.2016 184.399 96.3016C185.299 97.6016 186.299 98.7016 187.199 100.002C188.099 101.302 188.799 102.802 188.799 104.502C188.799 106.202 188.399 108.102 187.599 109.602C186.799 111.102 185.699 112.402 184.499 113.402C183.899 114.002 183.099 114.302 182.699 115.102C182.599 115.402 181.899 115.902 181.399 116.002C179.199 116.602 177.199 117.802 175.099 118.402C172.699 119.102 170.299 119.902 167.799 119.802C166.699 119.802 165.299 119.802 164.199 120.602C163.699 120.902 162.499 120.802 161.599 120.902C160.899 121.002 160.199 121.302 159.499 121.402C158.899 121.402 158.299 121.302 157.599 121.202C157.399 121.202 157.199 121.202 156.999 121.202C153.499 122.002 150.099 121.202 146.499 121.402C142.899 121.602 139.199 121.302 135.599 120.502C133.599 120.102 131.599 119.302 130.699 117.802C130.299 117.102 130.499 116.602 131.399 116.502C131.999 116.502 132.699 116.502 133.399 116.502C134.499 116.702 135.499 116.802 136.599 116.902C138.799 117.102 140.899 116.802 143.199 117.202C143.899 117.302 144.699 117.002 145.299 117.602C145.299 117.602 145.699 117.702 145.799 117.602C148.799 116.902 151.999 117.302 155.099 117.102C157.799 116.902 160.199 116.102 162.899 116.102C164.299 115.302 165.899 115.202 167.399 115.102C172.499 114.902 177.399 113.002 181.099 110.102C182.999 108.702 184.299 106.902 184.399 105.102C184.499 103.202 183.499 101.102 181.999 99.7016C181.499 99.2016 180.799 99.1016 180.199 98.5016C179.599 97.8016 178.499 97.6016 177.499 97.3016C176.599 97.0016 175.599 97.0016 174.699 96.7016C172.799 96.1016 170.799 96.0016 168.699 96.1016C166.699 96.1016 164.599 96.4016 162.599 96.7016C158.599 97.2016 154.499 98.1016 150.699 99.5016C148.399 100.402 146.299 101.602 144.199 102.702C143.299 103.202 142.599 104.002 141.399 104.102C141.099 104.102 140.599 105.102 140.099 105.502C138.899 106.602 137.799 107.702 136.799 109.002C136.499 109.402 136.099 109.902 135.899 110.302C135.699 110.502 135.599 110.802 135.499 111.002C135.399 111.102 135.099 111.702 134.899 112.102C134.799 112.302 134.699 112.502 134.599 112.802L134.299 113.602C134.099 114.102 133.899 114.702 133.699 115.302L133.099 117.002L132.799 117.802C132.799 118.002 132.799 117.902 132.599 118.202C132.599 118.402 132.299 119.002 131.999 119.902L130.199 115.902L129.499 114.502C129.499 114.502 129.499 114.302 129.299 114.202L129.099 114.002C128.999 114.002 128.899 113.802 128.699 113.702C128.499 113.702 128.499 113.702 128.499 113.702H128.399H128.199C127.999 113.702 127.899 113.702 127.699 113.702C126.799 113.702 125.599 113.902 124.199 114.302C122.399 114.802 120.599 115.302 118.799 116.002C116.999 116.702 115.299 117.902 113.599 118.702C110.399 120.102 107.599 122.502 105.499 124.902C104.399 126.102 103.599 127.502 103.099 128.902C102.899 129.602 102.699 130.302 102.699 131.102C102.699 131.802 102.699 132.602 102.999 133.302C103.199 134.102 103.399 134.802 103.699 135.602C103.999 136.302 104.499 137.002 105.099 137.402C105.199 137.502 105.399 137.702 105.499 137.902C105.599 138.102 105.699 138.402 105.799 138.602C105.999 139.102 106.099 139.702 105.799 139.902C105.699 139.902 105.499 140.002 105.299 139.902C103.099 139.602 100.699 138.302 99.6993 135.702C98.9993 133.802 98.7993 131.802 98.9993 129.802C99.2993 127.802 100.099 126.002 101.099 124.502H100.999Z" fill="black"/>
</svg>
