<svg width="300" height="300" viewBox="0 0 300 300" fill="none" xmlns="http://www.w3.org/2000/svg">
<path d="M176.6 132.902C174.9 131.102 173.2 129.202 171.5 127.402C170.8 126.702 170.4 125.902 169.3 125.502C168.8 125.302 168.6 124.202 168 123.602C166.4 121.902 164.8 120.202 163.2 118.502C161.6 116.902 160 115.702 158.4 115.202C156.8 114.602 154.7 114.102 152.5 114.402C150.7 114.602 149 114.102 147.3 114.302C145.4 114.502 143.5 114.702 141.7 114.602C140.4 114.602 139 114.502 137.7 114.802C136.9 115.002 136.2 115.402 135.3 115.502C134.5 115.602 133.5 115.502 132.9 116.302C132.9 116.302 132.5 116.302 132.3 116.302C131.3 116.102 130.3 116.302 129.6 116.802C129 117.202 128.3 117.402 127.7 117.502C125.9 118.002 124.1 118.502 122.5 119.102C121.3 119.502 120.1 119.902 119.1 120.502C118 121.202 117.5 122.302 116.7 123.102C115.9 123.902 115.5 125.002 115.2 126.202C115 126.902 114.6 127.602 115.2 128.302C115.2 128.302 115.2 128.602 115.2 128.702C114.1 130.702 115.2 132.902 115 135.002C114.8 137.302 115 139.602 115 141.902C115 142.502 114.9 143.202 115.4 143.702C115.6 143.902 115.6 144.502 115.5 144.802C115 146.502 115.5 148.302 115.5 150.102C115.5 152.102 116.1 154.102 115.8 156.102C115.7 157.002 115.8 158.102 116.4 159.102C116.7 159.502 116.6 160.502 116.8 161.302C116.9 161.902 117.3 162.402 117.4 163.002C117.4 163.502 117.4 164.002 117.3 164.602C117.3 164.802 117.3 164.902 117.3 165.102C118.4 167.902 118 170.902 118.7 173.802C119.4 176.702 119.9 179.702 120.3 182.602C120.6 184.202 120.7 185.902 119.8 187.302C119.4 187.902 118.8 188.002 118.4 187.302C118.1 186.802 117.7 186.302 117.6 185.702C117.3 184.802 117 183.902 116.8 183.002C116.3 181.202 115.4 179.402 115.3 177.402C115.3 176.802 114.9 176.102 115.3 175.502C115.3 175.502 115.3 175.202 115.3 175.002C114.1 172.502 114.1 169.702 113.6 167.102C113.2 164.802 112.2 162.702 112.2 160.402C111.4 159.202 111.3 157.702 111.4 156.402C111.5 151.802 110.7 147.302 110.6 142.702C110.6 140.402 110.5 138.002 110.5 135.702C110.5 133.402 110.5 131.002 110.8 128.602C110.8 127.802 110.6 127.002 111.1 126.002C111.5 125.102 111.7 123.902 112.1 122.802C112.5 121.802 112.9 120.702 113.6 120.002C116.6 116.802 120.3 114.902 123.8 113.802C127.3 112.802 130.9 112.002 134.5 111.302C136.7 110.802 138.8 110.202 141.1 110.102C142.1 110.102 143 109.602 144 110.102C144.3 110.302 145.1 109.802 145.8 109.702C147.3 109.602 148.9 109.602 150.4 109.602C152.5 109.602 154.6 109.602 157 110.002C158.4 110.202 159.9 110.302 161.4 111.002C162.9 111.702 164.2 112.802 165.2 113.802C166.5 115.202 167.4 116.502 168.5 117.802C169.6 119.102 171.1 120.302 172 121.702C173.7 124.302 176.1 126.402 178.1 128.702C180.2 131.002 182.2 133.302 184.4 135.502C185.6 136.702 186.4 138.202 187.5 139.502C188 140.102 187.7 141.902 187.1 142.002C187 142.002 186.8 142.002 186.7 142.002C185.2 141.102 183.6 140.502 182.4 139.002C180.5 136.902 178.5 134.802 176.6 132.802V132.902Z" fill="black"/>
<path d="M166.101 147.302C166.501 147.102 166.801 147.002 167.201 146.702C167.301 146.702 167.601 146.702 167.501 146.202C167.501 145.902 167.901 146.402 168.001 146.402C168.301 146.202 168.701 146.102 169.001 145.902C169.301 145.702 169.501 145.302 169.801 145.102C170.101 144.902 170.601 145.102 170.801 144.602C171.001 144.202 171.401 144.602 171.601 144.302C171.801 144.102 172.101 143.902 172.501 144.002C172.801 144.002 173.101 144.202 173.201 144.002C173.201 143.902 173.201 143.502 173.401 143.502C173.501 143.502 173.801 143.702 173.701 143.002C173.701 143.002 173.701 143.002 173.901 143.002C174.201 143.302 174.401 143.202 174.401 143.002C174.401 142.702 174.501 142.702 174.601 142.602C174.901 142.502 175.201 142.302 175.501 142.302C175.701 142.302 176.001 142.302 176.301 142.302C176.501 142.302 176.701 141.902 177.001 142.102C177.301 142.302 177.501 142.202 177.701 142.102C177.801 142.102 178.101 142.302 177.901 141.602C178.501 142.302 178.501 141.102 178.901 141.202C179.301 141.202 179.601 141.002 180.001 140.902C180.001 140.902 180.301 141.002 180.201 140.502C180.201 140.302 180.201 140.302 180.401 140.402C180.901 140.902 181.001 140.402 181.301 140.402C181.601 140.402 181.901 140.002 182.301 140.402C182.501 140.602 182.701 140.602 182.701 140.002C182.701 139.702 182.901 140.002 183.001 139.802C183.001 139.802 183.001 139.402 183.201 139.402C183.201 139.402 183.401 139.602 183.501 139.702C183.801 138.902 184.501 139.702 184.901 139.302C185.301 139.002 185.801 138.902 186.301 138.902C186.601 138.902 186.901 138.902 187.401 140.002C187.601 140.502 187.801 141.002 187.701 141.402C187.701 141.702 187.701 141.902 187.601 142.002C187.501 142.102 187.401 142.302 187.301 142.402C187.101 142.702 186.901 143.302 186.601 143.102C186.501 143.102 186.501 143.402 186.201 142.902C186.001 143.802 185.501 143.402 185.101 143.602C184.801 143.802 184.601 144.502 184.201 144.302C184.201 145.002 184.001 144.902 183.701 144.802C182.801 144.402 182.301 145.002 181.601 145.202C180.901 145.302 180.301 145.702 179.601 145.902C179.501 145.902 179.601 146.302 179.301 146.102C179.101 145.902 179.001 146.102 178.801 146.202C178.701 146.202 178.601 146.402 178.401 146.302C177.601 145.902 177.301 146.502 176.701 146.602C176.201 146.702 175.601 146.902 175.201 147.302C174.901 147.502 174.801 148.002 174.401 148.002C174.201 148.002 174.201 148.402 173.901 147.902C173.801 147.802 173.901 148.202 173.801 148.302C173.601 148.402 173.401 148.502 173.201 148.602C172.901 148.702 172.601 148.802 172.301 149.002C172.101 149.102 172.101 149.402 171.901 149.602C171.701 149.702 171.601 149.802 171.301 149.902C171.001 149.902 170.701 149.902 170.401 149.902C170.101 149.902 170.001 150.302 169.601 150.202C168.901 150.002 168.601 150.402 168.201 150.602C167.701 150.802 167.301 150.902 166.901 151.302C166.701 151.502 166.201 151.202 166.001 151.302C165.901 151.302 165.101 150.102 164.901 149.702V149.502C164.901 149.002 164.801 148.202 165.101 148.102C165.501 148.002 165.901 147.702 166.301 147.502L166.101 147.302Z" fill="black"/>
<path d="M146.699 141.101C146.699 140.901 146.699 140.701 146.699 140.601C146.699 140.601 146.899 140.501 146.399 140.401C146.099 140.401 146.799 140.301 146.699 140.201C146.699 140.001 146.699 139.901 146.699 139.701C146.699 139.501 146.399 139.401 146.399 139.201C146.399 139.001 146.699 138.901 146.399 138.701C146.099 138.501 146.599 138.501 146.499 138.301C146.399 138.201 146.299 138.001 146.499 137.901C146.699 137.901 146.899 137.701 146.799 137.601C146.799 137.601 146.399 137.401 146.499 137.401C146.499 137.401 146.799 137.401 146.199 137.201C146.199 137.201 146.199 137.201 146.399 137.201C146.799 137.201 146.799 137.201 146.499 137.001C146.199 137.001 146.299 136.901 146.299 136.801C146.299 136.701 146.299 136.501 146.299 136.401C146.299 136.401 146.599 136.201 146.699 136.201C146.699 136.201 146.499 135.901 146.799 135.901C147.099 135.901 147.099 135.801 147.099 135.701C147.099 135.701 147.399 135.701 146.799 135.501C147.599 135.501 146.599 135.101 146.799 135.001C146.999 134.901 146.899 134.701 146.999 134.501C146.999 134.501 147.199 134.501 146.799 134.301C146.599 134.201 146.599 134.301 146.799 134.301C147.399 134.301 147.099 134.101 147.199 134.001C147.399 133.901 147.199 133.701 147.599 133.701C147.799 133.701 147.899 133.701 147.399 133.401C147.199 133.301 147.399 133.401 147.399 133.201L147.099 133.001C147.099 133.001 147.299 133.001 147.499 133.001C146.899 132.601 147.899 132.701 147.799 132.401C147.799 132.101 147.799 132.001 147.999 131.801C147.999 131.801 148.299 131.701 149.399 132.001C149.899 132.201 150.399 132.401 150.699 132.601C150.899 132.701 151.099 132.801 151.099 132.901C151.099 132.901 151.299 133.101 151.299 133.201C151.399 133.401 151.899 133.701 151.599 133.701C151.599 133.701 151.799 133.901 151.299 133.701C151.999 134.101 151.399 134.101 151.399 134.301C151.399 134.401 151.999 134.801 151.699 134.801C152.299 135.101 152.099 135.101 151.899 135.101C151.199 135.101 151.499 135.501 151.399 135.801C151.199 136.001 151.299 136.301 151.199 136.601C151.199 136.601 151.499 136.801 151.199 136.801C150.899 136.801 151.199 136.901 151.199 137.001C151.199 137.001 151.299 137.101 151.199 137.201C150.499 137.201 150.899 137.601 150.799 137.801C150.799 138.001 150.599 138.201 150.799 138.401C150.799 138.501 151.199 138.701 151.099 138.801C151.099 138.801 151.399 138.901 150.799 138.901C150.599 138.901 151.099 138.901 151.099 139.001C151.099 139.001 151.099 139.201 151.099 139.301C151.099 139.401 151.099 139.501 151.099 139.701L151.399 139.901V140.101C151.399 140.101 151.099 140.301 150.999 140.401C150.999 140.501 151.199 140.601 150.999 140.701C150.499 140.901 150.699 141.101 150.699 141.301C150.699 141.501 150.699 141.701 150.699 141.801C150.699 141.801 150.299 142.001 150.299 142.101C150.299 142.101 148.799 142.301 148.299 142.401H148.099C147.599 142.401 146.899 142.301 146.899 142.101C146.899 141.901 146.899 141.701 146.899 141.501L146.699 141.101Z" fill="black"/>
<path d="M157.1 141.902C157.1 141.702 157.1 141.502 157.1 141.402C157.1 141.402 157.3 141.302 156.8 141.202C156.5 141.202 157.2 141.102 157.1 141.002C157.1 140.802 157.1 140.702 157.1 140.502C157.1 140.302 156.8 140.202 156.8 140.002C156.8 139.802 157.1 139.702 156.8 139.502C156.5 139.302 157 139.302 156.9 139.102C156.8 139.002 156.7 138.802 156.9 138.702C157.1 138.702 157.3 138.502 157.2 138.402C157.2 138.402 156.8 138.202 156.9 138.202C156.9 138.202 157.2 138.202 156.6 138.002C156.6 138.002 156.6 138.002 156.8 138.002C157.2 138.002 157.2 138.002 156.9 137.802C156.6 137.802 156.7 137.702 156.7 137.602C156.7 137.502 156.7 137.302 156.7 137.202C156.7 137.202 157 137.002 157.1 137.002C157.1 137.002 156.9 136.702 157.2 136.702C157.5 136.702 157.5 136.602 157.5 136.502C157.5 136.502 157.8 136.502 157.2 136.302C158 136.302 157 135.902 157.2 135.802C157.4 135.702 157.3 135.502 157.4 135.302C157.4 135.302 157.6 135.302 157.2 135.102C157 135.002 157 135.102 157.2 135.102C157.8 135.102 157.5 134.902 157.6 134.802C157.8 134.702 157.6 134.502 158 134.502C158.2 134.502 158.3 134.502 157.8 134.202C157.6 134.102 157.8 134.202 157.8 134.002L157.5 133.802C157.5 133.802 157.7 133.802 157.9 133.802C157.3 133.402 158.3 133.502 158.2 133.202C158.2 132.902 158.2 132.802 158.4 132.602C158.4 132.602 158.7 132.502 159.8 132.802C160.3 133.002 160.8 133.202 161.1 133.402C161.3 133.502 161.5 133.602 161.5 133.702C161.5 133.702 161.7 133.902 161.7 134.002C161.8 134.202 162.3 134.502 162 134.502C162 134.502 162.2 134.702 161.7 134.502C162.4 134.902 161.8 134.902 161.8 135.102C161.8 135.202 162.4 135.602 162.1 135.602C162.7 135.902 162.5 135.902 162.3 135.902C161.6 135.902 161.9 136.302 161.8 136.602C161.6 136.802 161.7 137.102 161.6 137.402C161.6 137.402 161.9 137.602 161.6 137.602C161.3 137.602 161.6 137.702 161.6 137.802C161.6 137.802 161.7 137.902 161.6 138.002C160.9 138.002 161.3 138.402 161.2 138.602C161.2 138.802 161 139.002 161.2 139.202C161.2 139.302 161.6 139.502 161.5 139.602C161.5 139.602 161.8 139.702 161.2 139.702C161 139.702 161.5 139.702 161.5 139.802C161.5 139.802 161.5 140.002 161.5 140.102C161.5 140.202 161.5 140.302 161.5 140.502L161.8 140.702V140.902C161.8 140.902 161.5 141.102 161.4 141.202C161.4 141.302 161.6 141.402 161.4 141.502C160.9 141.702 161.1 141.902 161.1 142.102C161.1 142.302 161.1 142.502 161.1 142.602C161.1 142.602 160.7 142.802 160.7 142.902C160.7 142.902 159.2 143.102 158.7 143.202H158.5C158 143.202 157.3 143.102 157.3 142.902C157.3 142.702 157.3 142.502 157.3 142.302L157.1 141.902Z" fill="black"/>
<path d="M165.299 123.298C164.599 123.398 163.899 123.498 163.199 123.698C162.899 123.698 162.599 123.598 162.499 124.098C162.499 124.398 162.099 123.798 161.799 123.898C161.199 124.098 160.499 124.098 159.899 124.298C159.299 124.498 158.699 124.798 158.099 124.998C157.499 125.198 156.799 124.998 156.299 125.498C155.799 125.898 155.299 125.498 154.799 125.698C154.299 125.898 153.799 126.098 153.199 125.998C152.799 125.998 152.399 125.798 151.999 125.998C151.799 126.098 151.599 126.498 151.399 126.498C151.199 126.498 150.799 126.298 150.799 126.998C150.799 126.998 150.699 126.998 150.599 126.898C150.299 126.598 149.999 126.698 149.799 126.898C149.699 127.198 149.499 127.198 149.299 127.298C148.799 127.498 148.299 127.598 147.699 127.698C147.299 127.698 146.899 127.698 146.499 127.698C146.099 127.698 145.699 128.098 145.299 127.898C144.899 127.698 144.499 127.898 144.099 127.898C143.899 127.898 143.599 127.698 143.599 128.398C143.599 128.398 143.599 128.398 143.499 128.398C142.699 127.698 142.399 128.898 141.699 128.898C140.999 128.898 140.399 129.198 139.799 129.298C139.599 129.298 139.399 129.298 139.399 129.698C139.399 129.898 139.199 129.898 139.099 129.798C138.499 129.298 138.099 129.798 137.599 129.798C136.999 129.798 136.599 130.298 135.899 129.898C135.599 129.798 135.299 129.698 135.099 130.398C135.099 130.698 134.699 130.498 134.499 130.598C134.299 130.598 134.299 130.998 134.099 131.098C133.999 131.098 133.799 130.998 133.599 130.898H133.499C132.899 131.798 131.899 131.098 131.099 131.498C130.299 131.898 129.499 131.998 128.699 132.198C128.199 132.198 127.699 132.198 127.099 131.198C126.799 130.698 126.699 130.198 126.799 129.798C126.799 129.498 126.999 129.298 127.099 129.198C127.299 128.998 127.599 128.798 127.799 128.698C128.299 128.398 128.599 127.698 129.199 127.798C129.399 127.798 129.499 127.498 129.799 127.898H129.899C130.399 126.898 131.299 127.198 131.999 126.998C132.599 126.798 132.999 125.998 133.699 126.098C133.899 125.398 134.299 125.398 134.699 125.498C136.099 125.798 137.199 125.098 138.499 124.798C139.799 124.598 140.999 124.198 142.299 123.898C142.499 123.898 142.599 123.498 142.899 123.698C143.199 123.898 143.499 123.698 143.699 123.598C143.999 123.598 144.199 123.298 144.499 123.398C145.599 123.798 146.499 123.198 147.499 122.998C148.499 122.798 149.499 122.698 150.399 122.298C150.999 122.098 151.499 121.598 152.099 121.598C152.399 121.598 152.599 121.198 152.999 121.698C153.099 121.798 153.299 121.398 153.399 121.298C153.799 121.198 154.199 121.098 154.599 120.998C155.199 120.898 155.799 120.798 156.299 120.598C156.599 120.498 156.899 120.198 157.299 120.098C157.699 119.998 157.999 119.898 158.399 119.898C158.899 119.898 159.399 119.998 159.899 119.898C160.399 119.898 160.899 119.498 161.399 119.698C162.399 119.998 163.199 119.698 163.999 119.498C164.899 119.498 165.699 119.298 166.599 119.098C167.099 118.998 167.599 119.398 168.099 119.298C168.299 119.298 168.799 120.698 168.799 121.198V121.398C168.399 121.898 168.099 122.698 167.599 122.698C166.799 122.698 165.999 122.898 165.299 123.098V123.298Z" fill="black"/>
<path d="M133.099 157.8C132.799 157.3 132.599 156.8 132.299 156.4C132.199 156.2 132.299 155.9 131.799 156C131.499 156 131.999 155.6 131.899 155.4C131.599 155 131.499 154.5 131.299 154C131.099 153.6 130.699 153.2 130.499 152.8C130.299 152.4 130.399 151.8 129.899 151.5C129.499 151.2 129.899 150.7 129.699 150.4C129.499 150 129.299 149.7 129.399 149.2C129.399 148.9 129.599 148.5 129.399 148.3C129.299 148.1 128.899 148.1 128.899 147.9C128.899 147.7 129.099 147.5 128.399 147.4C128.399 147.4 128.399 147.3 128.499 147.2C128.899 146.9 128.799 146.7 128.499 146.6C128.199 146.6 128.199 146.4 128.199 146.2C128.099 145.8 127.999 145.4 127.999 145C127.999 144.7 128.199 144.4 128.199 144C128.199 143.7 127.899 143.4 128.199 143.1C128.499 142.8 128.399 142.5 128.399 142.2C128.399 142 128.599 141.8 127.999 141.8C128.799 141.2 127.599 140.9 127.799 140.4C127.999 139.9 127.799 139.4 127.699 139C127.699 138.9 127.899 138.7 127.399 138.6C127.199 138.6 127.199 138.4 127.399 138.4C127.999 138 127.599 137.6 127.699 137.3C127.699 136.9 127.499 136.5 127.899 136C128.099 135.8 128.199 135.6 127.599 135.4C127.299 135.4 127.599 135.1 127.599 135C127.599 134.9 127.299 134.8 127.199 134.7C127.199 134.6 127.399 134.5 127.499 134.4C127.499 134.4 127.499 134.4 127.499 134.3C126.799 133.7 127.699 133.1 127.499 132.5C127.299 131.9 127.299 131.3 127.499 130.7C127.499 130.4 127.699 130 128.799 129.7C129.299 129.6 129.899 129.6 130.199 129.7C130.399 129.7 130.699 129.9 130.699 130C130.799 130.2 130.899 130.4 130.999 130.6C131.199 131 131.799 131.3 131.499 131.7C131.499 131.8 131.699 132 131.199 132.1C131.999 132.6 131.499 133.2 131.599 133.7C131.599 134.2 132.299 134.6 132.099 135C132.699 135.2 132.699 135.5 132.499 135.8C131.899 136.7 132.499 137.6 132.499 138.5C132.499 139.4 132.699 140.3 132.799 141.2C132.799 141.4 133.199 141.4 132.899 141.6C132.699 141.8 132.899 142 132.899 142.2C132.899 142.4 133.099 142.5 132.899 142.7C132.399 143.5 132.899 144.1 132.899 144.8C132.899 145.5 132.999 146.2 133.399 146.8C133.599 147.2 133.999 147.5 133.999 148C133.999 148.2 134.399 148.3 133.799 148.6C133.699 148.6 134.099 148.7 134.199 148.8C134.299 149.1 134.399 149.3 134.499 149.6C134.599 150 134.699 150.4 134.899 150.7C134.999 150.9 135.299 151.1 135.499 151.3C135.599 151.5 135.699 151.7 135.799 152C135.799 152.3 135.799 152.7 135.799 153C135.799 153.3 136.299 153.5 136.199 153.9C135.999 154.6 136.499 155.1 136.699 155.6C136.899 156.1 137.199 156.7 137.599 157.1C137.799 157.3 137.599 157.9 137.799 158.1C137.799 158.2 136.799 159.2 136.299 159.5H136.099C135.499 159.5 134.699 159.5 134.599 159.2C134.299 158.7 133.999 158.2 133.699 157.6L133.099 157.8Z" fill="black"/>
<path d="M166.5 150.801C166 151.001 165.4 151.201 164.9 151.401C164.7 151.401 164.4 151.401 164.4 151.901C164.4 152.201 164 151.701 163.8 151.801C163.3 152.101 162.8 152.101 162.3 152.401C161.8 152.601 161.4 153.001 160.9 153.201C160.4 153.401 159.8 153.301 159.4 153.801C159.1 154.201 158.5 153.801 158.2 154.101C157.8 154.401 157.4 154.601 156.9 154.501C156.5 154.501 156.2 154.301 155.9 154.501C155.7 154.601 155.7 155.001 155.4 155.001C155.2 155.001 154.9 154.801 154.9 155.501C154.9 155.501 154.8 155.501 154.7 155.501C154.4 155.201 154.1 155.301 154 155.501C154 155.801 153.8 155.801 153.6 155.901C153.2 156.101 152.8 156.201 152.3 156.301C152 156.301 151.6 156.301 151.2 156.301C150.8 156.301 150.6 156.701 150.2 156.501C149.8 156.301 149.5 156.401 149.2 156.501C149 156.501 148.7 156.301 148.8 157.001C148.8 157.001 148.8 157.001 148.7 157.001C148 156.301 147.8 157.501 147.2 157.401C146.6 157.401 146.1 157.601 145.6 157.801C145.5 157.801 145.3 157.801 145.2 158.201C145.2 158.401 145 158.401 144.9 158.301C144.4 157.801 144 158.301 143.6 158.301C143.1 158.301 142.7 158.701 142.1 158.301C141.9 158.101 141.6 158.101 141.5 158.701C141.5 159.001 141.2 158.701 141 158.901C140.9 158.901 140.8 159.301 140.7 159.301C140.6 159.301 140.4 159.101 140.3 159.001C140.3 159.001 140.3 159.001 140.2 159.001C139.7 159.801 138.8 159.001 138.2 159.401C137.6 159.701 136.9 159.801 136.1 159.801C135.7 159.801 135.3 159.801 134.8 158.601C134.6 158.101 134.5 157.601 134.6 157.201C134.6 156.901 134.8 156.701 134.9 156.601C135.1 156.501 135.3 156.301 135.5 156.201C135.9 155.901 136.2 155.301 136.7 155.501C136.9 155.501 137 155.201 137.2 155.701C137.2 155.701 137.2 155.701 137.3 155.701C137.7 154.801 138.4 155.201 139 155.001C139.5 154.801 139.9 154.101 140.4 154.301C140.5 153.601 140.9 153.601 141.2 153.801C142.4 154.201 143.3 153.501 144.3 153.401C145.3 153.201 146.3 152.901 147.3 152.601C147.5 152.601 147.5 152.201 147.8 152.401C148.1 152.601 148.2 152.401 148.5 152.301C148.7 152.301 148.9 152.101 149.1 152.201C150.1 152.601 150.8 152.001 151.6 151.801C152.4 151.601 153.2 151.501 153.9 151.101C154.3 150.901 154.7 150.401 155.2 150.401C155.4 150.401 155.5 150.001 155.9 150.401C156 150.501 156.1 150.001 156.2 150.001C156.5 149.801 156.8 149.801 157.2 149.701C157.7 149.601 158.1 149.401 158.5 149.201C158.8 149.101 159 148.701 159.2 148.601C159.5 148.401 159.8 148.301 160.1 148.301C160.5 148.301 160.9 148.301 161.3 148.301C161.7 148.301 162 147.801 162.4 148.001C163.2 148.201 163.8 147.801 164.5 147.601C165.2 147.401 165.9 147.201 166.5 146.801C166.8 146.601 167.4 146.901 167.7 146.801C167.9 146.801 168.6 148.001 168.8 148.501V148.701C168.6 149.301 168.5 150.101 168.1 150.201C167.5 150.401 166.9 150.701 166.2 150.901L166.5 150.801Z" fill="black"/>
<path d="M164 183.599C164.2 182.999 164.4 182.399 164.5 181.699C164.5 181.499 164.9 181.299 164.5 180.899C164.3 180.699 164.9 180.599 165 180.399C165 179.799 165.3 179.199 165.4 178.599C165.4 177.999 165.4 177.399 165.4 176.799C165.4 176.199 165.8 175.699 165.6 175.099C165.4 174.599 166 174.199 165.9 173.699C165.9 173.199 165.9 172.699 166.1 172.199C166.3 171.899 166.6 171.599 166.5 171.199C166.5 170.999 166.2 170.699 166.2 170.499C166.2 170.299 166.5 170.099 165.9 169.799C165.9 169.799 165.9 169.699 166.1 169.699C166.5 169.499 166.5 169.199 166.3 168.999C166.1 168.799 166.1 168.599 166.1 168.399C166.1 167.899 166.1 167.399 166.3 166.899C166.3 166.499 166.7 166.199 166.8 165.799C166.9 165.399 166.7 164.999 167 164.599C167.3 164.299 167.4 163.899 167.4 163.599C167.4 163.399 167.7 163.199 167.1 162.899C167.1 162.899 167.1 162.899 167.1 162.799C168 162.299 167 161.599 167.2 160.999C167.5 160.399 167.4 159.799 167.5 159.099C167.5 158.899 167.7 158.799 167.3 158.599C167.1 158.599 167.2 158.299 167.3 158.299C168 157.899 167.7 157.399 167.8 156.899C168 156.399 167.8 155.799 168.4 155.299C168.6 155.099 168.8 154.799 168.3 154.399C168.1 154.199 168.3 153.999 168.3 153.799C168.3 153.599 168 153.399 168.1 153.299C168.1 153.199 168.4 153.099 168.5 152.899C168.5 152.899 168.5 152.899 168.5 152.799C168 151.899 169 151.299 169 150.399C169 149.599 169.3 148.799 169.6 147.999C169.8 147.599 170.1 147.199 171.3 147.199C171.8 147.199 172.4 147.399 172.6 147.599C172.8 147.799 173 147.999 173 148.199C173 148.499 173 148.699 173.1 148.999C173.1 149.499 173.5 150.099 173.1 150.599C173 150.699 173.2 150.999 172.7 150.999C173.3 151.799 172.7 152.399 172.6 153.099C172.6 153.699 173.1 154.399 172.6 154.899C173.2 155.299 173 155.699 172.8 155.999C171.9 156.999 172.2 158.299 172 159.399C171.8 160.599 171.7 161.799 171.5 162.999C171.5 163.199 171.8 163.399 171.5 163.599C171.2 163.799 171.4 164.099 171.4 164.399C171.4 164.599 171.4 164.899 171.3 165.099C170.5 165.999 170.8 166.999 170.7 167.899C170.5 168.799 170.4 169.799 170.4 170.799C170.4 171.399 170.7 171.999 170.4 172.599C170.4 172.799 170.6 173.199 170 173.299C169.8 173.299 170.2 173.599 170.2 173.799C170.2 174.199 170.2 174.599 170 174.999C170 175.599 169.8 176.099 169.7 176.699C169.7 176.999 169.9 177.399 169.8 177.799C169.8 178.199 169.8 178.499 169.6 178.899C169.4 179.299 169.1 179.699 169 180.199C168.8 180.699 169 181.199 168.6 181.599C167.9 182.299 167.9 183.199 167.6 183.999C167.3 184.799 167 185.599 166.8 186.399C166.8 186.599 166.6 186.999 166 187.499C165.7 187.699 165.2 187.999 164.7 188.099C164.7 188.099 164.3 188.099 164.1 188.099C163.9 188.099 163.7 187.899 163.5 187.799C163.2 187.499 163 187.299 162.9 186.999C162.9 186.799 162.9 186.499 162.9 186.199C163 185.899 163.4 185.599 163.8 185.599C164.2 185.599 164.3 185.899 164.3 186.099C164.3 186.399 164.3 186.299 164.3 186.299C164.3 186.299 164.3 186.299 164.5 186.299C164.5 186.299 164.5 186.299 164.4 186.299V186.099C164.4 186.099 164.4 186.099 164.2 185.899C164.2 185.899 164 185.699 163.8 185.599C163.8 185.599 163.6 185.499 163.5 185.399C163.4 185.399 163.1 185.199 163.2 185.299C163.2 185.299 163.2 185.299 163.2 185.099V184.799L163.5 184.299L163.8 183.299L164 183.599Z" fill="black"/>
<path d="M84.8 132.599C85.3 132.399 85.8 132.199 86.2 131.899C86.4 131.799 86.7 131.899 86.6 131.399C86.6 131.099 87 131.599 87.2 131.499C87.6 131.199 88.1 131.099 88.6 130.899C89 130.699 89.4 130.299 89.9 130.099C90.3 129.899 90.9 129.999 91.3 129.499C91.6 129.099 92.1 129.499 92.5 129.299C92.9 129.099 93.3 128.899 93.7 128.999C94 129.099 94.4 129.299 94.6 129.099C94.8 129.099 94.9 128.699 95.1 128.699C95.3 128.699 95.5 128.899 95.6 128.299C95.6 128.299 95.7 128.299 95.8 128.399C96.1 128.799 96.3 128.699 96.5 128.399C96.6 128.099 96.8 128.099 97 128.099C97.4 128.099 97.9 127.999 98.3 128.099C98.6 128.099 99 128.399 99.3 128.499C99.6 128.499 100 128.299 100.3 128.699C100.6 128.999 100.9 128.999 101.2 129.099C101.4 129.099 101.5 129.399 101.8 128.799C101.8 128.799 101.8 128.799 101.9 128.799C102.2 129.699 102.9 128.799 103.4 129.099C103.9 129.399 104.4 129.399 104.9 129.599C105 129.599 105.1 129.899 105.4 129.499C105.4 129.399 105.6 129.399 105.7 129.499C105.8 130.199 106.4 129.999 106.7 130.299C107.1 130.599 107.6 130.499 107.8 131.199C107.8 131.499 108.1 131.699 108.5 131.199C108.7 130.999 108.8 131.399 109 131.399C109.1 131.399 109.4 131.299 109.5 131.399C109.6 131.399 109.5 131.699 109.6 131.899C110.5 131.699 110.6 132.899 111.2 133.099C111.8 133.399 112.3 133.899 112.8 134.499C113 134.799 113.2 135.199 112.5 136.199C112.2 136.599 111.8 136.999 111.4 137.099C111.2 137.099 110.9 137.299 110.8 137.199C110.6 137.199 110.4 137.199 110.2 136.999C109.8 136.899 109.2 136.999 109.1 136.599C109.1 136.499 108.8 136.599 109.1 136.199V136.099C108.2 136.399 108.2 135.699 107.7 135.499C107.3 135.299 106.7 135.599 106.4 135.199C105.9 135.599 105.7 135.399 105.6 135.199C105.2 134.199 104.2 134.299 103.5 133.999C102.8 133.599 101.9 133.499 101.1 133.299C101 133.299 100.8 133.599 100.7 133.299C100.6 132.999 100.4 133.199 100.2 133.199C100 133.199 99.9 133.199 99.7 133.199C99.1 132.499 98.4 132.899 97.8 132.799C97.1 132.799 96.5 132.799 95.8 132.999C95.4 133.199 95.1 133.599 94.7 133.499C94.5 133.499 94.4 133.799 94.1 133.299C94.1 133.099 94 133.599 93.9 133.699C93.6 133.799 93.4 133.899 93.1 133.899C92.7 133.899 92.3 134.099 92 134.299C91.8 134.399 91.6 134.699 91.4 134.899C91.2 134.999 91 135.099 90.7 135.199C90.4 135.199 90 135.199 89.7 135.199C89.4 135.199 89.2 135.699 88.7 135.499C87.9 135.299 87.5 135.799 86.9 135.999C86.3 136.199 85.8 136.499 85.3 136.899C85 137.099 84.5 136.899 84.2 136.899C84.1 136.899 83.2 135.799 83 135.299V135.099C83 134.499 83 133.699 83.4 133.599C84 133.399 84.5 133.099 85 132.799L84.8 132.599Z" fill="black"/>
<path d="M109.201 140.398C108.701 140.698 108.201 140.998 107.801 141.298C107.601 141.398 107.301 141.298 107.401 141.898C107.401 142.198 106.901 141.698 106.801 141.898C106.401 142.198 105.801 142.298 105.401 142.598C104.901 142.798 104.501 143.198 104.101 143.498C103.601 143.698 103.001 143.498 102.601 143.998C102.201 144.398 101.701 143.998 101.401 144.198C101.001 144.398 100.601 144.598 100.101 144.398C99.8008 144.298 99.4008 144.098 99.2008 144.198C99.0008 144.198 98.9008 144.598 98.6008 144.598C98.4008 144.598 98.2008 144.298 98.0008 144.998C98.0008 144.998 97.9008 144.998 97.8008 144.898C97.6008 144.498 97.3008 144.498 97.1008 144.898C96.9008 145.198 96.8008 145.098 96.6008 145.098C96.1008 145.098 95.7008 145.098 95.2008 145.098C94.9008 145.098 94.6008 144.798 94.2008 144.598C93.9008 144.498 93.5008 144.698 93.2008 144.298C92.9008 143.898 92.7008 143.898 92.4008 143.798C92.2008 143.798 92.1008 143.398 91.8008 143.998C91.8008 143.998 91.8008 143.998 91.7008 143.998C91.4008 143.098 90.7008 143.998 90.2008 143.598C89.8008 143.198 89.2008 143.198 88.7008 142.998C88.6008 142.998 88.5008 142.698 88.2008 142.998C88.1008 143.098 87.9008 142.998 87.9008 142.998C87.9008 142.298 87.3008 142.398 87.0008 142.098C86.7008 141.798 86.1008 141.798 86.0008 141.098C86.0008 140.798 85.8008 140.598 85.3008 140.898C85.1008 141.098 85.0008 140.698 84.9008 140.698C84.8008 140.698 84.5008 140.798 84.4008 140.698C84.3008 140.698 84.4008 140.398 84.4008 140.198C83.4008 140.298 83.5008 139.198 82.9008 138.798C82.3008 138.498 81.8008 137.898 81.5008 137.298C81.3008 136.998 81.2008 136.498 81.9008 135.598C82.2008 135.198 82.7008 134.898 83.0008 134.798C83.3008 134.798 83.5008 134.698 83.6008 134.798C83.8008 134.798 84.0008 134.898 84.2008 134.998C84.6008 135.098 85.2008 134.998 85.3008 135.498C85.3008 135.598 85.6008 135.498 85.3008 135.998V136.098C86.2008 135.898 86.2008 136.598 86.7008 136.898C87.1008 137.098 87.8008 136.898 87.9008 137.298C88.4008 136.898 88.6008 137.098 88.7008 137.398C89.0008 138.398 90.0008 138.398 90.7008 138.798C91.4008 139.198 92.3008 139.398 93.0008 139.698C93.1008 139.698 93.3008 139.398 93.4008 139.698C93.4008 139.998 93.7008 139.798 93.9008 139.898C94.1008 139.898 94.3008 139.898 94.4008 139.998C94.9008 140.798 95.7008 140.498 96.3008 140.598C97.0008 140.698 97.6008 140.798 98.3008 140.598C98.7008 140.498 99.1008 140.098 99.5008 140.198C99.7008 140.198 99.8008 139.898 100.101 140.398C100.101 140.598 100.301 140.098 100.401 139.998C100.701 139.998 100.901 139.898 101.201 139.798C101.601 139.798 101.901 139.598 102.301 139.498C102.501 139.398 102.701 139.098 102.801 138.998C103.001 138.898 103.201 138.798 103.501 138.798C103.801 138.798 104.201 138.798 104.501 138.798C104.801 138.798 105.001 138.298 105.401 138.398C106.101 138.598 106.501 138.098 107.001 137.798C107.501 137.498 108.001 137.198 108.401 136.798C108.601 136.598 109.201 136.798 109.401 136.498C109.501 136.498 110.701 137.298 111.001 137.698L111.101 137.898C111.101 138.498 111.401 139.298 111.101 139.498C110.601 139.898 110.101 140.298 109.601 140.698L109.201 140.398Z" fill="black"/>
<path d="M91.9992 161.599C91.6992 160.999 91.4992 160.399 91.2992 159.799C91.2992 159.599 91.3992 159.299 90.7992 159.199C90.4992 159.199 91.0992 158.799 90.9992 158.599C90.7992 157.999 90.9992 157.399 90.8992 156.899C90.8992 156.299 90.6992 155.799 90.6992 155.199C90.6992 154.599 91.0992 154.099 90.9992 153.499C90.8992 152.999 91.4992 152.699 91.5992 152.299C91.5992 151.799 91.7992 151.299 92.2992 151.099C92.5992 150.899 92.9992 150.699 92.9992 150.399C92.9992 150.199 92.8992 149.899 92.9992 149.699C93.0992 149.499 93.4992 149.499 92.9992 148.999C92.9992 148.999 93.0992 148.999 93.1992 148.999C93.6992 148.999 93.7992 148.899 93.6992 148.499C93.6992 148.199 93.6992 148.099 93.7992 147.999C94.0992 147.599 94.3992 147.299 94.6992 146.999C94.9992 146.799 95.3992 146.799 95.6992 146.599C95.9992 146.399 96.0992 145.999 96.4992 145.999C96.8992 145.999 97.0992 145.799 97.3992 145.699C97.4992 145.599 97.8992 145.699 97.5992 145.099C98.4992 145.499 98.1992 144.299 98.6992 144.199C99.1992 144.099 99.5992 143.699 99.9992 143.399C100.099 143.399 100.299 143.399 100.199 142.999C100.199 142.799 100.199 142.799 100.399 142.799C100.999 143.099 101.199 142.599 101.499 142.499C101.899 142.399 102.099 141.899 102.699 142.099C102.999 142.099 103.199 142.099 103.099 141.499C103.099 141.199 103.299 141.299 103.399 141.199C103.399 141.099 103.399 140.799 103.499 140.699C103.499 140.699 103.799 140.699 103.899 140.799C103.999 139.899 104.999 140.299 105.299 139.899C105.699 139.399 106.099 139.099 106.599 138.799C106.899 138.599 107.199 138.599 108.199 139.299C108.599 139.599 108.999 139.999 109.099 140.399C109.099 140.699 109.199 140.899 109.099 140.999C109.099 141.199 108.899 141.399 108.899 141.599C108.699 141.999 108.699 142.699 108.199 142.699C107.999 142.699 108.099 142.999 107.699 142.699H107.599C107.599 143.699 106.799 143.599 106.399 143.999C105.999 144.299 105.999 145.099 105.399 145.099C105.499 145.799 105.199 145.799 104.899 145.799C103.699 145.799 103.199 146.599 102.399 146.999C101.599 147.399 100.899 147.999 100.199 148.499C100.099 148.499 100.199 148.899 99.8992 148.799C99.5992 148.699 99.5992 148.999 99.3992 149.099C99.2992 149.199 99.1992 149.399 98.9992 149.399C98.0992 149.399 97.7992 150.099 97.2992 150.499C96.7992 150.899 96.2992 151.399 96.0992 151.999C95.8992 152.399 96.0992 152.899 95.6992 153.099C95.5992 153.199 95.6992 153.499 95.1992 153.399C94.9992 153.399 95.3992 153.699 95.2992 153.799C95.2992 153.999 95.0992 154.299 94.9992 154.499C94.8992 154.799 94.6992 155.099 94.6992 155.399C94.6992 155.599 94.8992 155.799 94.8992 155.999C94.8992 156.199 94.8992 156.399 94.8992 156.599C94.8992 156.799 94.5992 157.099 94.5992 157.399C94.5992 157.699 94.8992 157.899 94.5992 158.199C94.1992 158.799 94.5992 159.199 94.6992 159.699C94.7992 160.099 95.0992 160.599 95.3992 160.899C95.5992 160.999 95.3992 161.599 95.5992 161.699C95.5992 161.699 94.8992 163.099 94.5992 163.399L94.3992 163.499C93.7992 163.599 92.9992 163.899 92.6992 163.499C92.2992 162.899 91.7992 162.299 91.4992 161.599H91.9992Z" fill="black"/>
<path d="M112.899 139.4C112.899 139.9 113.099 140.5 113.199 141.2C113.199 141.4 112.999 141.7 113.599 141.9C113.899 142 113.299 142.3 113.299 142.5C113.299 143.1 113.299 143.7 113.299 144.3C113.299 144.9 113.499 145.5 113.499 146.1C113.499 146.7 113.099 147.2 113.299 147.8C113.499 148.3 112.899 148.6 112.899 149.1C112.899 149.6 112.799 150.1 112.399 150.5C112.099 150.8 111.799 151 111.799 151.3C111.799 151.5 111.999 151.8 111.799 152C111.699 152.2 111.299 152.3 111.799 152.7C111.799 152.7 111.699 152.7 111.599 152.7C111.099 152.7 110.999 153 111.199 153.3C111.299 153.6 111.199 153.7 111.199 153.9C110.999 154.3 110.799 154.8 110.399 155.2C110.199 155.5 109.799 155.6 109.499 155.9C109.199 156.2 109.199 156.7 108.699 156.7C108.299 156.7 107.999 157 107.799 157.3C107.699 157.4 107.299 157.4 107.699 158C106.699 157.8 107.099 159 106.599 159.2C105.999 159.4 105.699 159.9 105.299 160.3C105.199 160.4 104.899 160.3 105.099 160.8C105.099 161 105.099 161.1 104.899 161C104.199 160.8 103.999 161.3 103.599 161.5C103.099 161.7 102.799 162.2 102.099 162.1C101.799 162.1 101.499 162.1 101.599 162.7C101.599 163 101.299 162.9 101.099 163C100.999 163.1 100.999 163.4 100.799 163.5C100.699 163.5 100.499 163.5 100.299 163.4C100.299 163.4 100.299 163.4 100.199 163.4C99.6992 164.3 98.5992 163.8 97.8992 164.1C97.0992 164.5 96.1992 164.5 95.2992 164.4C94.7992 164.4 94.2992 164.1 94.1992 162.9C94.1992 162.4 94.1992 161.8 94.4992 161.5C94.5992 161.3 94.7992 161.1 94.8992 161C95.0992 161 95.2992 160.8 95.3992 160.7C95.7992 160.5 95.9992 160 96.3992 160.2C96.4992 160.2 96.5992 160 96.7992 160.4C97.0992 159.5 97.6992 159.9 98.1992 159.6C98.5992 159.4 98.6992 158.6 99.1992 158.7C99.1992 158 99.3992 158 99.6992 158C100.799 158 101.399 157.2 102.099 156.7C102.499 156.4 102.799 156.1 103.199 155.8C103.499 155.5 103.899 155.1 104.199 154.8C104.299 154.7 104.199 154.3 104.499 154.4C104.799 154.4 104.799 154.1 104.899 154C104.999 153.9 104.999 153.6 105.299 153.6C106.299 153.4 106.399 152.5 106.899 152C107.099 151.7 107.299 151.4 107.499 151.1C107.699 150.8 107.799 150.4 107.899 150.1C107.999 149.7 107.899 149.1 108.099 148.7C108.199 148.5 107.999 148.2 108.599 148.3C108.799 148.3 108.399 148 108.399 147.9C108.399 147.6 108.599 147.3 108.599 147C108.599 146.6 108.899 146.2 108.799 145.8C108.799 145.5 108.599 145.3 108.599 145C108.599 144.7 108.599 144.5 108.599 144.2C108.699 143.9 108.899 143.6 108.999 143.2C108.999 142.9 108.799 142.5 108.999 142.2C109.499 141.5 109.099 141 108.999 140.3C108.999 139.6 108.799 138.8 108.599 138C108.499 137.5 108.999 137.1 108.999 136.6C108.999 136.3 110.499 136.3 110.999 136.4H111.199C111.599 136.8 112.299 137 112.299 137.4C112.299 137.9 112.299 138.5 112.499 139.1L112.899 139.4Z" fill="black"/>
</svg>
