<svg width="300" height="300" viewBox="0 0 300 300" fill="none" xmlns="http://www.w3.org/2000/svg">
<path d="M184.5 141.4C184.2 141.1 183.9 140.8 183.6 140.5C183.5 140.5 183.6 140.1 183 140.4C182.8 140.5 183 140 183 139.9C182.7 139.7 182.5 139.3 182.1 139.1C181.8 138.9 181.3 138.8 181 138.5C180.7 138.3 180.6 137.8 180.1 137.8C179.7 137.8 179.8 137.2 179.5 137.1C179.2 137 178.9 136.8 178.8 136.4C178.8 136.1 178.8 135.8 178.5 135.7C178.3 135.7 178 135.7 177.9 135.7C177.9 135.6 177.9 135.3 177.3 135.7C177.3 135.7 177.3 135.7 177.3 135.5C177.5 135.1 177.3 135 177 135.1C176.7 135.2 176.7 135.1 176.6 135.1C176.3 134.9 176.1 134.7 175.9 134.4C175.7 134.2 175.7 133.9 175.6 133.6C175.5 133.4 175.1 133.4 175.1 133C175.1 132.6 174.9 132.5 174.8 132.3C174.8 132.3 174.8 131.9 174.3 132.3C174.6 131.4 173.6 132 173.4 131.5C173.2 131.1 172.8 130.9 172.5 130.6C172.5 130.6 172.5 130.3 172.1 130.6C172 130.6 171.9 130.6 171.9 130.6C172.1 129.9 171.6 130 171.5 129.7C171.3 129.4 170.9 129.3 171 128.7C171 128.4 171 128.2 170.4 128.5C170.2 128.6 170.2 128.3 170.1 128.3C170 128.3 169.7 128.3 169.6 128.3C169.6 128.3 169.6 128 169.6 127.9C168.8 127.9 169 127 168.5 126.8C168 126.6 167.7 126.1 167.4 125.7C167.2 125.5 167.2 125.1 167.9 124.2C168.2 123.8 168.6 123.4 168.9 123.3C169.1 123.3 169.4 123.1 169.5 123.2C169.7 123.2 169.9 123.2 170.1 123.3C170.5 123.4 171.1 123.3 171.1 123.7C171.1 123.8 171.4 123.7 171.1 124.1V124.2C172 124 171.9 124.7 172.3 125C172.6 125.2 173.3 125 173.4 125.5C174 125.2 174.1 125.5 174.1 125.8C174.1 126.8 175 127 175.5 127.6C176 128.2 176.6 128.7 177.2 129.2C177.2 129.2 177.6 129.2 177.6 129.4C177.6 129.7 177.8 129.7 177.9 129.8C178 129.9 178.2 129.9 178.2 130.1C178.2 131 178.9 131.1 179.4 131.6C179.8 132.1 180.2 132.5 180.8 132.8C181.1 133 181.7 133 181.9 133.3C181.9 133.5 182.3 133.3 182.1 133.9C182.1 134.1 182.4 133.9 182.5 133.9C182.7 134 182.9 134.2 183.1 134.4C183.4 134.7 183.6 134.9 183.9 135.1C184.1 135.2 184.4 135.2 184.6 135.3C184.8 135.4 185 135.6 185.1 135.8C185.3 136.1 185.3 136.4 185.5 136.7C185.7 137 186.1 137 186.1 137.4C186.1 138.1 186.7 138.4 187 138.8C187.3 139.2 187.7 139.7 188.1 140C188.4 140.2 188.1 140.7 188.4 140.9C188.4 141 187.5 142.1 187.1 142.4L186.9 142.5C186.4 142.6 185.7 142.9 185.5 142.6C185.2 142.2 184.8 141.9 184.5 141.5V141.4Z" fill="black"/>
<path d="M114.401 133.801C114.401 134.001 114.401 134.201 114.401 134.301C114.401 134.301 114.201 134.401 114.701 134.501C115.001 134.501 114.301 134.601 114.401 134.701C114.401 134.901 114.401 135.001 114.401 135.201C114.401 135.401 114.701 135.501 114.801 135.701C114.801 135.901 114.601 136.001 114.901 136.201C115.201 136.301 114.701 136.501 114.901 136.601C115.001 136.701 115.101 136.901 114.901 137.001C114.701 137.101 114.501 137.201 114.601 137.301C114.601 137.301 115.001 137.401 115.001 137.501C115.001 137.501 114.701 137.601 115.301 137.701C115.301 137.701 115.301 137.701 115.201 137.701C114.801 137.701 114.801 137.901 115.201 137.901C115.501 137.901 115.401 137.901 115.501 138.001C115.501 138.101 115.501 138.301 115.501 138.401C115.501 138.501 115.201 138.601 115.201 138.701C115.201 138.801 115.401 138.901 115.201 139.001C114.901 139.101 114.901 139.201 114.901 139.301C114.901 139.301 114.601 139.401 115.301 139.501C114.501 139.701 115.601 139.801 115.301 140.001C115.101 140.201 115.301 140.301 115.301 140.501C115.301 140.501 115.101 140.601 115.601 140.601C115.801 140.601 115.801 140.601 115.601 140.601C115.001 140.801 115.401 140.901 115.301 141.001C115.201 141.201 115.501 141.301 115.001 141.501C114.801 141.501 114.701 141.701 115.301 141.701C115.601 141.701 115.301 141.801 115.301 141.901C115.301 141.901 115.601 141.901 115.601 142.001C115.601 142.001 115.401 142.001 115.301 142.101C116.001 142.301 115.101 142.501 115.301 142.801C115.501 143.001 115.401 143.201 115.301 143.501C115.301 143.601 115.101 143.801 113.901 143.901C113.401 143.901 112.801 143.901 112.501 143.901C112.301 143.901 112.001 143.901 112.001 143.801C111.901 143.801 111.801 143.701 111.701 143.601C111.501 143.501 111.001 143.401 111.201 143.201C111.201 143.201 111.001 143.201 111.501 143.101C110.701 142.901 111.201 142.701 111.101 142.501C111.101 142.301 110.401 142.201 110.701 142.001C110.101 142.001 110.201 141.801 110.401 141.701C111.101 141.301 110.601 141.001 110.701 140.701C110.701 140.401 110.701 140.001 110.701 139.701C110.701 139.701 110.301 139.701 110.701 139.501C111.001 139.501 110.701 139.401 110.701 139.301C110.701 139.301 110.601 139.201 110.701 139.101C111.301 138.801 110.901 138.601 111.001 138.301C111.001 138.001 111.101 137.801 111.001 137.501C110.901 137.301 110.501 137.201 110.701 137.001C110.701 137.001 110.401 136.901 111.001 136.801C111.201 136.801 110.701 136.801 110.701 136.701C110.701 136.601 110.701 136.501 110.701 136.401C110.701 136.201 110.701 136.101 110.701 135.901C110.701 135.901 110.401 135.701 110.301 135.601C110.301 135.601 110.301 135.401 110.301 135.301C110.301 135.201 110.601 135.001 110.601 134.901C110.601 134.801 110.401 134.601 110.601 134.501C111.101 134.301 110.801 134.001 110.901 133.801C110.901 133.601 111.001 133.301 110.901 133.101C110.901 133.001 111.301 132.801 111.301 132.701C111.301 132.701 112.801 132.601 113.301 132.701H113.501C114.001 132.801 114.701 133.001 114.601 133.101C114.601 133.301 114.601 133.501 114.601 133.701L114.401 133.801Z" fill="black"/>
<path d="M116.8 162.798C116.8 163.198 116.8 163.698 117 164.098C117 164.298 116.8 164.498 117.4 164.598C117.7 164.598 117.1 164.898 117.1 164.998C117.2 165.398 117.2 165.798 117.3 166.198C117.4 166.598 117.7 166.998 117.8 167.398C117.9 167.798 117.7 168.198 118.1 168.598C118.4 168.898 118 169.298 118.1 169.598C118.3 169.898 118.4 170.298 118.2 170.598C118.1 170.898 117.9 171.098 118 171.398C118 171.498 118.4 171.598 118.4 171.798C118.4 171.998 118.2 172.198 118.8 172.198C118.8 172.198 118.8 172.198 118.7 172.298C118.3 172.498 118.4 172.698 118.7 172.798C119 172.798 119 172.998 119 173.098C119 173.398 119.2 173.798 119.2 174.098C119.2 174.398 119 174.698 119 174.898C119 175.198 119.3 175.398 119 175.698C118.7 175.998 118.8 176.198 118.8 176.498C118.8 176.598 118.6 176.798 119.2 176.898C118.4 177.398 119.6 177.598 119.4 178.098C119.3 178.498 119.4 178.898 119.6 179.298C119.6 179.398 119.5 179.598 119.9 179.598C120.1 179.598 120.1 179.698 119.9 179.798C119.3 180.198 119.8 180.498 119.7 180.798C119.7 181.198 120 181.498 119.6 181.898C119.4 182.098 119.3 182.298 120 182.398C120.3 182.398 120 182.698 120.1 182.798C120.1 182.798 120.5 182.998 120.5 183.098C120.5 183.098 120.3 183.298 120.2 183.398C120.9 183.798 120.2 184.498 120.4 184.998C120.7 185.498 120.7 185.998 120.7 186.598C120.7 186.898 120.6 187.198 119.5 187.598C119 187.798 118.5 187.898 118.1 187.798C117.8 187.798 117.6 187.698 117.5 187.598C117.4 187.498 117.2 187.298 117.1 187.198C116.8 186.898 116.3 186.698 116.5 186.298C116.5 186.198 116.2 186.098 116.7 185.898C115.8 185.598 116.3 184.998 116.1 184.498C116 184.098 115.3 183.798 115.5 183.398C114.8 183.298 114.9 182.998 115 182.698C115.5 181.798 115 181.098 114.9 180.198C114.9 179.398 114.6 178.598 114.5 177.698C114.5 177.598 114.1 177.498 114.4 177.298C114.6 177.098 114.4 176.898 114.4 176.798C114.4 176.598 114.2 176.498 114.4 176.298C114.9 175.598 114.4 174.998 114.4 174.298C114.4 173.698 114.4 172.998 114.1 172.398C113.9 171.998 113.5 171.698 113.6 171.298C113.6 171.098 113.3 170.998 113.8 170.698C114 170.698 113.5 170.498 113.4 170.398C113.4 170.098 113.4 169.898 113.3 169.598C113.3 169.198 113.3 168.798 113.1 168.498C113.1 168.298 112.8 168.098 112.7 167.898C112.7 167.698 112.6 167.398 112.6 167.198C112.6 166.898 112.8 166.598 112.8 166.198C112.8 165.898 112.5 165.598 112.8 165.298C113.2 164.698 112.8 164.198 112.8 163.598C112.8 162.998 112.8 162.498 112.5 161.998C112.4 161.698 112.8 161.298 112.8 160.998C112.8 160.898 114.2 160.498 114.7 160.398H114.9C115.4 160.598 116.2 160.798 116.2 161.098C116.2 161.598 116.3 162.098 116.4 162.598L116.8 162.798Z" fill="black"/>
<path d="M166.101 147.298C166.501 147.098 166.801 146.998 167.201 146.698C167.301 146.698 167.601 146.698 167.501 146.198C167.501 145.898 167.901 146.398 168.001 146.398C168.301 146.198 168.701 146.098 169.001 145.898C169.301 145.698 169.501 145.298 169.801 145.098C170.101 144.898 170.601 145.098 170.801 144.598C171.001 144.198 171.401 144.598 171.601 144.298C171.801 144.098 172.101 143.898 172.501 143.998C172.801 143.998 173.101 144.198 173.201 143.998C173.201 143.898 173.201 143.498 173.401 143.498C173.501 143.498 173.801 143.698 173.701 142.998C173.701 142.998 173.701 142.998 173.901 142.998C174.201 143.298 174.401 143.198 174.401 142.998C174.401 142.698 174.501 142.698 174.601 142.598C174.901 142.498 175.201 142.298 175.501 142.298C175.701 142.298 176.001 142.298 176.301 142.298C176.501 142.298 176.701 141.898 177.001 142.098C177.301 142.298 177.501 142.198 177.701 142.098C177.801 142.098 178.101 142.298 177.901 141.598C178.501 142.298 178.501 141.098 178.901 141.198C179.301 141.198 179.601 140.998 180.001 140.898C180.001 140.898 180.301 140.998 180.201 140.498C180.201 140.298 180.201 140.298 180.401 140.398C180.901 140.898 181.001 140.398 181.301 140.398C181.601 140.398 181.901 139.998 182.301 140.398C182.501 140.598 182.701 140.598 182.701 139.998C182.701 139.698 182.901 139.998 183.001 139.798C183.001 139.798 183.001 139.398 183.201 139.398C183.201 139.398 183.401 139.598 183.501 139.698C183.801 138.898 184.501 139.698 184.901 139.298C185.301 138.998 185.801 138.898 186.301 138.898C186.601 138.898 186.901 138.898 187.401 139.998C187.601 140.498 187.801 140.998 187.701 141.398C187.701 141.698 187.701 141.898 187.601 141.998C187.501 142.098 187.401 142.298 187.301 142.398C187.101 142.698 186.901 143.298 186.601 143.098C186.501 143.098 186.501 143.398 186.201 142.898C186.001 143.798 185.501 143.398 185.101 143.598C184.801 143.798 184.601 144.498 184.201 144.298C184.201 144.998 184.001 144.898 183.701 144.798C182.801 144.398 182.301 144.998 181.601 145.198C180.901 145.298 180.301 145.698 179.601 145.898C179.501 145.898 179.601 146.298 179.301 146.098C179.101 145.898 179.001 146.098 178.801 146.198C178.701 146.198 178.601 146.398 178.401 146.298C177.601 145.898 177.301 146.498 176.701 146.598C176.201 146.698 175.601 146.898 175.201 147.298C174.901 147.498 174.801 147.998 174.401 147.998C174.201 147.998 174.201 148.398 173.901 147.898C173.801 147.798 173.901 148.198 173.801 148.298C173.601 148.398 173.401 148.498 173.201 148.598C172.901 148.698 172.601 148.798 172.301 148.998C172.101 149.098 172.101 149.398 171.901 149.598C171.701 149.698 171.601 149.798 171.301 149.898C171.001 149.898 170.701 149.898 170.401 149.898C170.101 149.898 170.001 150.298 169.601 150.198C168.901 149.998 168.601 150.398 168.201 150.598C167.701 150.798 167.301 150.898 166.901 151.298C166.701 151.498 166.201 151.198 166.001 151.298C165.901 151.298 165.101 150.098 164.901 149.698V149.498C164.901 148.998 164.801 148.198 165.101 148.098C165.501 147.998 165.901 147.698 166.301 147.498L166.101 147.298Z" fill="black"/>
<path d="M146.701 141.101C146.701 140.901 146.701 140.701 146.701 140.601C146.701 140.601 146.901 140.501 146.401 140.401C146.101 140.401 146.801 140.301 146.701 140.201C146.701 140.001 146.701 139.901 146.701 139.701C146.701 139.501 146.401 139.401 146.401 139.201C146.401 139.001 146.701 138.901 146.401 138.701C146.101 138.501 146.601 138.501 146.501 138.301C146.401 138.201 146.301 138.001 146.501 137.901C146.701 137.901 146.901 137.701 146.801 137.601C146.801 137.601 146.401 137.401 146.501 137.401C146.501 137.401 146.801 137.401 146.201 137.201C146.201 137.201 146.201 137.201 146.401 137.201C146.801 137.201 146.801 137.201 146.501 137.001C146.201 137.001 146.301 136.901 146.301 136.801C146.301 136.701 146.301 136.501 146.301 136.401C146.301 136.401 146.601 136.201 146.701 136.201C146.701 136.201 146.501 135.901 146.801 135.901C147.101 135.901 147.101 135.801 147.101 135.701C147.101 135.701 147.401 135.701 146.801 135.501C147.601 135.501 146.601 135.101 146.801 135.001C147.001 134.901 146.901 134.701 147.001 134.501C147.001 134.501 147.201 134.501 146.801 134.301C146.601 134.201 146.601 134.301 146.801 134.301C147.401 134.301 147.101 134.101 147.201 134.001C147.401 133.901 147.201 133.701 147.601 133.701C147.801 133.701 147.901 133.701 147.401 133.401C147.201 133.301 147.401 133.401 147.401 133.201L147.101 133.001C147.101 133.001 147.301 133.001 147.501 133.001C146.901 132.601 147.901 132.701 147.801 132.401C147.801 132.101 147.801 132.001 148.001 131.801C148.001 131.801 148.301 131.701 149.401 132.001C149.901 132.201 150.401 132.401 150.701 132.601C150.901 132.701 151.101 132.801 151.101 132.901C151.101 132.901 151.301 133.101 151.301 133.201C151.401 133.401 151.901 133.701 151.601 133.701C151.601 133.701 151.801 133.901 151.301 133.701C152.001 134.101 151.401 134.101 151.401 134.301C151.401 134.401 152.001 134.801 151.701 134.801C152.301 135.101 152.101 135.101 151.901 135.101C151.201 135.101 151.501 135.501 151.401 135.801C151.201 136.001 151.301 136.301 151.201 136.601C151.201 136.601 151.501 136.801 151.201 136.801C150.901 136.801 151.201 136.901 151.201 137.001C151.201 137.001 151.301 137.101 151.201 137.201C150.501 137.201 150.901 137.601 150.801 137.801C150.801 138.001 150.601 138.201 150.801 138.401C150.801 138.501 151.201 138.701 151.101 138.801C151.101 138.801 151.401 138.901 150.801 138.901C150.601 138.901 151.101 138.901 151.101 139.001C151.101 139.001 151.101 139.201 151.101 139.301C151.101 139.401 151.101 139.501 151.101 139.701L151.401 139.901V140.101C151.401 140.101 151.101 140.301 151.001 140.401C151.001 140.501 151.201 140.601 151.001 140.701C150.501 140.901 150.701 141.101 150.701 141.301C150.701 141.501 150.701 141.701 150.701 141.801C150.701 141.801 150.301 142.001 150.301 142.101C150.301 142.101 148.801 142.301 148.301 142.401H148.101C147.601 142.401 146.901 142.301 146.901 142.101C146.901 141.901 146.901 141.701 146.901 141.501L146.701 141.101Z" fill="black"/>
<path d="M157.102 141.898C157.102 141.698 157.102 141.498 157.102 141.398C157.102 141.398 157.302 141.298 156.802 141.198C156.502 141.198 157.202 141.098 157.102 140.998C157.102 140.798 157.102 140.698 157.102 140.498C157.102 140.298 156.802 140.198 156.802 139.998C156.802 139.798 157.102 139.698 156.802 139.498C156.502 139.298 157.002 139.298 156.902 139.098C156.802 138.998 156.702 138.798 156.902 138.698C157.102 138.698 157.302 138.498 157.202 138.398C157.202 138.398 156.802 138.198 156.902 138.198C156.902 138.198 157.202 138.198 156.602 137.998C156.602 137.998 156.602 137.998 156.802 137.998C157.202 137.998 157.202 137.998 156.902 137.798C156.602 137.798 156.702 137.698 156.702 137.598C156.702 137.498 156.702 137.298 156.702 137.198C156.702 137.198 157.002 136.998 157.102 136.998C157.102 136.998 156.902 136.698 157.202 136.698C157.502 136.698 157.502 136.598 157.502 136.498C157.502 136.498 157.802 136.498 157.202 136.298C158.002 136.298 157.002 135.898 157.202 135.798C157.402 135.698 157.302 135.498 157.402 135.298C157.402 135.298 157.602 135.298 157.202 135.098C157.002 134.998 157.002 135.098 157.202 135.098C157.802 135.098 157.502 134.898 157.602 134.798C157.802 134.698 157.602 134.498 158.002 134.498C158.202 134.498 158.302 134.498 157.802 134.198C157.602 134.098 157.802 134.198 157.802 133.998L157.502 133.798C157.502 133.798 157.702 133.798 157.902 133.798C157.302 133.398 158.302 133.498 158.202 133.198C158.202 132.898 158.202 132.798 158.402 132.598C158.402 132.598 158.702 132.498 159.802 132.798C160.302 132.998 160.802 133.198 161.102 133.398C161.302 133.498 161.502 133.598 161.502 133.698C161.502 133.698 161.702 133.898 161.702 133.998C161.802 134.198 162.302 134.498 162.002 134.498C162.002 134.498 162.202 134.698 161.702 134.498C162.402 134.898 161.802 134.898 161.802 135.098C161.802 135.198 162.402 135.598 162.102 135.598C162.702 135.898 162.502 135.898 162.302 135.898C161.602 135.898 161.902 136.298 161.802 136.598C161.602 136.798 161.702 137.098 161.602 137.398C161.602 137.398 161.902 137.598 161.602 137.598C161.302 137.598 161.602 137.698 161.602 137.798C161.602 137.798 161.702 137.898 161.602 137.998C160.902 137.998 161.302 138.398 161.202 138.598C161.202 138.798 161.002 138.998 161.202 139.198C161.202 139.298 161.602 139.498 161.502 139.598C161.502 139.598 161.802 139.698 161.202 139.698C161.002 139.698 161.502 139.698 161.502 139.798C161.502 139.798 161.502 139.998 161.502 140.098C161.502 140.198 161.502 140.298 161.502 140.498L161.802 140.698V140.898C161.802 140.898 161.502 141.098 161.402 141.198C161.402 141.298 161.602 141.398 161.402 141.498C160.902 141.698 161.102 141.898 161.102 142.098C161.102 142.298 161.102 142.498 161.102 142.598C161.102 142.598 160.702 142.798 160.702 142.898C160.702 142.898 159.202 143.098 158.702 143.198H158.502C158.002 143.198 157.302 143.098 157.302 142.898C157.302 142.698 157.302 142.498 157.302 142.298L157.102 141.898Z" fill="black"/>
<path d="M171.501 152.002C172.401 153.002 173.201 154.002 174.001 154.902C174.301 155.302 174.401 155.802 175.201 155.802C175.601 155.802 175.401 156.602 175.701 156.902C176.501 157.802 177.201 158.802 178.001 159.702C178.401 160.202 178.801 160.502 179.201 161.002C179.801 161.702 180.401 162.402 181.101 163.302C182.101 164.502 182.801 165.702 183.701 167.002C183.201 167.202 182.701 167.302 182.301 167.502C181.601 167.802 180.701 168.002 179.901 168.202C179.001 168.302 178.201 168.502 177.501 168.702C177.301 168.702 177.101 168.802 176.901 168.902H176.401C176.201 169.102 175.901 169.202 175.601 169.202C175.101 169.302 174.601 169.302 174.101 169.202C173.401 169.202 172.601 169.002 171.901 169.202C171.501 169.302 171.101 169.702 170.601 169.702C170.101 169.702 169.601 169.502 169.201 170.102C169.201 170.102 169.001 170.102 168.901 170.002C168.401 169.602 167.801 169.702 167.401 170.002C167.001 170.302 166.601 170.202 166.301 170.202C165.301 170.202 164.201 170.202 163.201 170.002C162.401 169.902 161.701 169.602 160.901 169.402C160.101 169.302 159.201 169.402 158.501 169.002C157.801 168.602 157.101 168.402 156.401 168.302C156.001 168.302 155.601 167.802 155.101 168.302C155.101 168.302 154.901 168.302 154.801 168.302C153.901 167.202 152.501 167.902 151.401 167.302C150.301 166.702 149.001 166.402 147.901 165.902C147.601 165.802 147.301 165.402 146.901 165.702C146.701 165.702 146.401 165.702 146.301 165.402C145.801 164.402 144.701 164.202 143.901 163.602C143.001 162.902 142.001 162.402 141.401 161.302C141.201 160.802 140.801 160.302 140.001 160.302C139.601 160.302 139.401 159.702 139.101 159.402C138.801 159.202 138.401 159.102 138.201 158.802C138.001 158.602 138.001 158.202 137.901 157.902C137.901 157.902 137.901 157.702 137.701 157.702C137.001 157.202 136.501 156.402 136.301 155.602L135.901 154.402C135.801 154.002 135.701 153.602 135.501 153.202C134.701 151.702 134.401 149.902 134.301 148.202C134.301 147.302 134.401 146.302 135.501 145.702C136.001 145.402 136.601 145.402 136.901 145.702C137.201 146.002 137.401 146.202 137.501 146.502C137.601 147.002 137.701 147.402 137.901 147.802C138.101 148.202 138.301 148.702 138.501 149.102C138.701 149.502 138.901 149.902 138.901 150.402C138.901 150.702 139.201 150.902 138.901 151.302V151.502C139.501 151.902 139.701 152.502 140.001 153.002C140.101 153.302 140.201 153.602 140.301 153.902C140.401 154.202 140.601 154.502 140.801 154.702C141.101 155.102 141.501 155.502 141.901 155.802C142.301 156.102 142.701 156.402 143.001 156.902C143.801 156.902 144.201 157.402 144.501 157.902C145.601 159.802 147.701 160.602 149.601 161.602C151.501 162.602 153.601 163.302 155.801 163.902C156.201 163.902 156.601 163.702 156.901 164.102C157.201 164.502 157.801 164.402 158.301 164.502C158.701 164.502 159.201 164.502 159.601 164.802C161.201 165.802 163.101 165.602 164.801 165.702C166.501 165.902 168.301 165.902 170.101 165.702C171.201 165.502 172.201 165.102 173.201 165.102C173.701 165.102 174.101 164.702 174.601 165.102C174.801 165.202 175.101 164.702 175.401 164.602H175.801C175.801 164.502 176.001 164.502 176.001 164.502C176.101 164.502 176.301 164.502 176.401 164.502C176.401 164.502 176.401 164.402 176.201 164.302C176.101 164.202 175.701 164.102 175.601 164.102C175.601 164.102 175.501 164.102 175.401 163.902L175.201 163.702L174.901 163.302C174.401 162.602 174.101 161.802 173.601 161.102C173.101 160.402 172.301 159.802 172.001 159.002C171.401 157.502 170.201 156.402 169.201 155.202C168.201 154.002 167.201 152.802 166.101 151.702C165.501 151.102 165.301 150.202 164.701 149.502C164.401 149.202 165.101 147.802 165.601 147.602C165.601 147.602 165.801 147.602 165.901 147.602C166.801 147.902 167.901 148.002 168.501 148.702C169.401 149.802 170.501 150.902 171.401 152.002H171.501Z" fill="black"/>
<path d="M160.002 187.002L160.502 186.002C160.502 185.802 160.602 185.702 160.702 185.502C160.702 185.502 161.102 185.002 160.402 185.502C160.002 185.702 161.002 185.002 161.002 184.902V184.802H160.802C160.602 184.902 160.502 185.002 160.302 185.002C160.102 185.002 160.002 185.202 159.802 185.302H159.602C159.302 185.302 159.002 185.402 158.702 185.402C157.502 185.502 156.402 185.202 155.302 185.402C154.302 185.602 153.602 184.902 152.702 184.802C151.702 184.702 150.802 184.502 150.002 183.902C149.402 183.502 148.902 183.002 148.302 182.902C147.902 182.802 147.402 182.902 147.002 182.702C146.602 182.502 146.402 182.002 145.702 182.402C145.702 182.402 145.502 182.202 145.502 182.102C145.302 181.502 144.902 181.202 144.402 181.302C143.902 181.302 143.702 181.102 143.402 180.902C142.602 180.402 141.902 179.802 141.202 179.202C140.702 178.702 140.302 178.102 139.902 177.502C139.402 177.002 138.702 176.602 138.502 175.902C138.302 175.202 137.802 174.802 137.402 174.302C137.202 174.002 137.102 173.502 136.402 173.702C136.402 173.702 136.302 173.702 136.302 173.502C136.302 172.202 134.802 172.002 134.302 170.902C133.902 169.802 133.102 168.802 132.702 167.702C132.602 167.402 132.702 167.002 132.102 166.902C131.902 166.902 131.802 166.502 131.902 166.302C132.102 165.802 132.002 165.302 131.902 164.902C131.802 164.502 131.602 164.002 131.602 163.602C131.602 163.102 131.502 162.602 131.502 162.102C131.502 161.602 131.502 161.102 131.702 160.602C131.902 160.202 132.002 159.602 131.502 159.102C131.202 158.902 131.502 158.402 131.502 158.002C131.502 157.702 131.202 157.402 131.302 157.102C131.302 156.802 131.602 156.602 131.702 156.402V156.202C131.302 154.702 132.402 153.502 132.602 152.102C132.802 150.702 133.202 149.402 133.802 148.102C134.102 147.402 134.502 146.702 135.702 146.602C136.302 146.602 136.802 146.702 137.002 147.102C137.202 147.402 137.302 147.702 137.302 148.002C137.302 148.402 137.302 148.902 137.302 149.302C137.302 150.202 137.502 151.102 137.002 151.902C136.802 152.102 137.002 152.502 136.502 152.602C136.502 152.602 136.402 152.702 136.402 152.802C136.902 154.102 136.102 155.102 136.002 156.302C135.902 157.302 136.402 158.302 136.002 159.202C136.602 159.802 136.502 160.302 136.302 160.802C135.602 162.602 136.302 164.402 136.902 166.002C137.402 167.702 138.502 169.202 139.702 170.702C139.902 171.002 140.402 171.002 140.402 171.402C140.402 171.902 140.902 172.102 141.202 172.402C141.502 172.702 141.802 172.902 142.002 173.302C142.602 174.902 144.002 175.702 145.202 176.702C146.302 177.702 147.602 178.602 149.002 179.202C149.902 179.502 150.802 179.602 151.602 180.002C151.902 180.202 152.402 180.002 152.602 180.702C152.602 180.902 153.102 180.602 153.402 180.702C154.002 180.802 154.602 181.002 155.202 181.102C156.002 181.202 156.902 181.402 157.702 181.302C158.202 181.302 158.702 181.002 159.202 180.902C159.302 180.902 159.502 180.902 159.602 180.902H159.702H159.802L160.202 180.802L161.102 180.602C161.402 180.602 161.702 180.602 162.002 180.402C162.802 180.202 163.602 180.002 164.402 179.702C165.202 179.502 165.902 179.302 166.702 179.002C167.002 178.902 167.402 178.802 167.702 178.602V179.102V179.402V179.802C167.402 180.302 167.302 180.902 167.002 181.502C166.302 182.902 165.902 183.902 165.602 185.002C165.202 186.002 164.802 187.202 164.302 188.202C163.602 189.502 162.902 190.802 162.202 192.102C161.802 192.802 161.002 193.202 160.502 193.802C160.302 194.102 158.802 193.602 158.502 193.202C158.502 193.202 158.402 193.002 158.402 192.902C158.402 192.002 158.202 191.102 158.702 190.402C159.402 189.402 160.002 188.302 160.502 187.302L160.002 187.002Z" fill="black"/>
<path d="M115.9 161.8C115.5 161.9 115 162 114.6 162.1C114.2 162.1 113.7 162.3 113.3 162.4C113 162.4 112.6 162.2 112.3 162.8C112.1 163.1 111.8 162.5 111.5 162.5C110.7 162.6 109.8 162.5 108.9 162.5C108.1 162.5 107.2 162.6 106.4 162.5C105.6 162.5 104.8 161.9 103.9 161.9C103.1 161.9 102.7 161.2 102.1 161.1C101.4 160.9 100.7 160.6 100.2 160.1C99.8 159.7 99.5 159.2 99 158.8C98.7 158.6 98.2 158.5 97.9 158.1C97.6 157.7 97.6 157.1 96.9 156.9C96.9 156.9 96.9 156.6 96.9 156.5C97.1 155.9 97 155.4 96.8 155C96.5 154.6 96.6 154.3 96.6 154C96.6 153.1 96.9 152.2 97.2 151.5C97.5 150.9 97.9 150.5 98.2 150C98.5 149.5 98.7 148.8 99.2 148.5C99.8 148.2 100.1 147.9 100.4 147.5C100.6 147.3 101 147.3 100.8 146.6C100.8 146.6 100.8 146.5 100.9 146.5C102.1 146.5 102 145.2 102.9 144.9C103.8 144.6 104.5 144.1 105.3 143.7C105.5 143.6 105.8 143.7 105.8 143.2C105.8 143 106 142.9 106.2 143C107 143.4 107.5 142.8 108.2 142.7C108.9 142.7 109.6 142.2 110.4 142.5C110.7 142.6 111.2 142.7 111.4 142.1C111.5 141.8 111.9 142.1 112.2 141.9C112.4 141.9 112.6 141.5 112.8 141.5C113 141.5 113.2 141.7 113.4 141.8C113.4 141.8 113.5 141.8 113.6 141.8C114.7 141.1 115.9 142 117.1 142.1C118.4 142.2 119.7 142.9 120.7 143.8C121.3 144.3 121.7 145.2 121 146.2C120.7 146.6 120.2 146.9 119.8 146.9C119.5 146.9 119.2 146.9 119.1 146.9C118.9 146.8 118.6 146.7 118.4 146.6C117.9 146.4 117.3 146.7 117 146.3C116.9 146.2 116.6 146.3 116.7 145.9C115.9 146.5 115.3 145.9 114.5 145.9C113.8 145.9 113.2 146.7 112.5 146.5C112.2 147.2 111.8 147.1 111.3 147C109.8 146.6 108.6 147.4 107.4 147.8C106.1 148.2 105.1 149 104.1 149.8C103.9 149.9 104.1 150.3 103.7 150.3C103.4 150.3 103.3 150.6 103.1 150.8C102.9 151 102.9 151.3 102.6 151.4C101.5 151.8 101.4 153 101.1 153.8C100.8 154.6 100.8 155.5 101.2 155.8C101.5 156 102 156 102.4 156.4C102.6 156.6 103 156.4 103 157.1C103 157.3 103.4 157.1 103.6 157.1C104 157.2 104.4 157.5 104.8 157.6C105.4 157.8 105.9 158 106.5 158.1C106.9 158.1 107.3 158 107.6 158C108 158 108.4 158 108.7 158.2C109.2 158.3 109.6 158.6 110.1 158.6C110.6 158.6 111.1 158.4 111.6 158.6C112.6 159 113.5 158.6 114.3 158.4C115.2 158.2 116.1 158 116.9 157.5C117.3 157.2 118 157.5 118.4 157.2C118.6 157.1 119.7 158.2 119.9 158.6C119.9 158.6 119.9 158.8 119.9 158.9C119.7 159.6 119.5 160.5 118.8 160.8C117.8 161.2 116.9 161.6 115.9 161.9V161.8Z" fill="black"/>
<path d="M96.7005 127.098C96.9005 127.098 97.1005 127.298 97.4005 127.298C97.4005 127.298 97.5005 127.598 97.7005 127.098C97.8005 126.798 97.7005 127.498 97.9005 127.498C98.1005 127.498 98.4005 127.598 98.6005 127.598C98.9005 127.598 99.1005 127.398 99.4005 127.398C99.7005 127.398 99.9005 127.698 100.201 127.398C100.501 127.198 100.601 127.698 100.801 127.598C101.001 127.598 101.301 127.498 101.401 127.698C101.501 127.898 101.601 128.098 101.801 127.998C101.901 127.998 102.001 127.598 102.101 127.698C102.101 127.698 102.301 127.998 102.401 127.398C102.401 127.398 102.401 127.398 102.401 127.598C102.401 127.998 102.601 127.998 102.701 127.698C102.801 127.398 102.901 127.498 103.001 127.498C103.201 127.498 103.401 127.498 103.601 127.498C103.801 127.498 103.901 127.798 104.001 127.898C104.201 127.898 104.401 127.698 104.501 128.098C104.601 128.398 104.801 128.398 104.901 128.498C104.901 128.498 105.001 128.798 105.201 128.198C105.301 129.098 105.701 127.998 105.901 128.198C106.101 128.398 106.401 128.298 106.701 128.398C106.701 128.398 106.801 128.598 106.901 128.198C106.901 127.998 107.001 127.998 107.001 128.198C107.101 128.898 107.401 128.498 107.501 128.598C107.701 128.798 108.001 128.498 108.101 128.998C108.101 129.198 108.301 129.298 108.501 128.798C108.501 128.498 108.701 128.798 108.801 128.798L109.001 128.498C109.001 128.498 109.001 128.698 109.101 128.898C109.501 128.298 109.701 129.198 110.101 129.098C110.501 128.998 110.801 129.098 111.101 129.198C111.301 129.198 111.401 129.498 111.401 130.598C111.401 131.098 111.401 131.698 111.201 131.998C111.201 132.198 111.001 132.398 110.901 132.498C110.801 132.498 110.701 132.698 110.501 132.798C110.301 132.998 110.001 133.498 109.801 133.098C109.801 133.098 109.601 133.298 109.601 132.798C109.201 133.498 109.001 132.998 108.701 132.998C108.401 132.998 108.101 133.598 107.901 133.298C107.701 133.898 107.501 133.798 107.401 133.598C107.001 132.898 106.401 133.198 105.901 133.098C105.401 132.898 104.901 132.898 104.401 132.798C104.401 132.798 104.201 133.098 104.101 132.798C104.101 132.498 103.901 132.798 103.801 132.698C103.701 132.698 103.601 132.798 103.501 132.698C103.201 131.998 102.701 132.298 102.301 132.198C101.901 132.098 101.501 131.898 101.101 132.098C100.801 132.098 100.501 132.498 100.301 132.298C100.301 132.298 100.001 132.498 100.001 131.898C100.001 131.698 99.8005 132.198 99.8005 132.198C99.6005 132.198 99.5005 132.198 99.3005 132.198C99.1005 132.198 98.8005 132.098 98.6005 132.198C98.5005 132.198 98.3005 132.398 98.1005 132.498C97.9005 132.498 97.8005 132.498 97.6005 132.498C97.4005 132.398 97.3005 132.098 97.1005 132.098C96.9005 132.098 96.6005 132.198 96.5005 131.898C96.2005 131.298 95.8005 131.498 95.4005 131.298C95.0005 131.098 94.7005 130.998 94.2005 130.898C93.9005 130.898 94.0005 130.298 93.7005 130.198C93.6005 130.198 94.1005 128.798 94.4005 128.298L94.5005 128.098C94.9005 127.798 95.3005 127.198 95.4005 127.298C95.6005 127.498 95.9005 127.498 96.1005 127.598L96.7005 127.098Z" fill="black"/>
<path d="M135.601 104.598C134.901 104.098 134.101 103.698 133.301 103.398C133.001 103.298 132.801 102.898 132.301 103.398C132.101 103.598 132.001 102.898 131.701 102.798C130.901 102.598 130.101 102.298 129.301 102.198C128.901 102.198 128.501 102.198 128.101 102.198C127.701 102.198 127.301 102.198 126.901 102.198C126.101 102.198 125.301 101.898 124.601 102.298C124.001 102.598 123.401 102.298 122.801 102.498C122.501 102.598 122.201 102.798 121.901 102.798C121.601 102.798 121.301 102.998 120.901 102.898C120.401 102.898 119.901 102.898 119.501 103.098C119.301 103.298 119.101 103.698 118.801 103.798C118.501 103.898 118.101 103.798 118.201 104.498C118.201 104.498 118.001 104.498 117.901 104.498C117.401 104.298 117.101 104.498 117.001 104.898C117.001 105.298 116.701 105.398 116.501 105.498C116.001 105.898 115.401 106.298 114.801 106.698C114.401 106.998 113.801 107.098 113.401 107.398C112.901 107.698 112.701 108.298 112.101 108.398C111.501 108.498 111.201 108.898 110.801 109.198C110.601 109.398 110.101 109.398 110.401 110.098C110.401 110.098 110.401 110.198 110.301 110.198C109.101 110.198 109.301 111.598 108.601 111.998C107.901 112.498 107.401 113.198 106.801 113.898C106.701 114.098 106.301 114.098 106.601 114.598C106.601 114.798 106.601 114.998 106.401 114.998C105.501 114.998 105.401 115.898 104.901 116.298C104.301 116.798 104.101 117.598 103.301 117.898C102.901 117.998 102.601 118.298 102.801 118.998C102.901 119.298 102.501 119.498 102.401 119.698C102.401 119.898 102.401 120.298 102.301 120.398C102.201 120.598 101.901 120.598 101.701 120.698C101.701 120.698 101.701 120.698 101.601 120.898C101.601 122.198 100.201 122.698 99.8008 123.698C99.4008 124.798 98.8008 125.698 98.2008 126.698C97.9008 127.198 97.4008 127.698 96.2008 127.598C95.6008 127.598 95.1008 127.298 95.0008 126.898C94.9008 126.598 94.8008 126.298 94.8008 126.098C94.8008 125.698 94.9008 125.298 95.0008 124.998C95.2008 124.198 95.0008 123.298 95.7008 122.798C95.9008 122.598 95.7008 122.198 96.3008 122.298C96.3008 122.298 96.5008 122.298 96.5008 122.198C96.3008 120.898 97.4008 120.198 97.9008 119.298C98.3008 118.498 98.3008 117.398 99.1008 116.798C98.9008 115.998 99.3008 115.598 99.8008 115.298C101.401 114.198 102.201 112.498 103.401 111.198C104.701 109.898 105.901 108.398 107.201 107.198C107.401 106.998 107.401 106.498 107.801 106.498C108.201 106.498 108.401 105.998 108.701 105.698C109.001 105.398 109.201 105.098 109.501 104.998C111.001 104.498 111.901 103.298 113.101 102.498C114.401 101.698 115.601 100.898 116.901 100.098C117.701 99.5984 118.401 98.8984 119.401 98.6984C119.801 98.6984 120.101 98.1984 120.701 98.6984C120.901 98.7984 121.101 98.2984 121.401 98.1984C122.001 97.9984 122.701 97.8984 123.301 97.7984C123.701 97.7984 124.201 97.6984 124.701 97.6984C125.201 97.6984 125.601 97.6984 126.101 97.6984C126.601 97.6984 127.201 97.3984 127.801 97.3984C128.401 97.3984 129.001 97.3984 129.501 97.5984C130.201 97.7984 130.901 98.0984 131.601 98.3984C132.301 98.5984 133.201 98.5984 133.701 99.0984C134.801 99.9984 136.101 100.298 137.201 100.998C137.801 101.298 138.301 101.798 138.801 102.098C139.301 102.498 139.901 102.898 140.401 103.298C141.001 103.798 141.201 104.598 141.601 105.098C141.801 105.398 141.001 106.598 140.501 106.898C140.501 106.898 140.301 106.898 140.201 106.898C139.401 106.798 138.601 106.898 138.101 106.398C137.401 105.698 136.601 105.098 135.801 104.598H135.601Z" fill="black"/>
<path d="M186.399 113.602C185.699 112.902 185.099 112.302 184.299 111.702C183.999 111.502 183.899 111.002 183.299 111.202C182.999 111.202 183.199 110.602 182.899 110.402C182.199 109.902 181.599 109.302 180.899 108.702C180.199 108.202 179.399 107.902 178.699 107.402C177.999 107.002 177.499 106.202 176.599 106.002C175.899 105.802 175.599 105.102 174.999 104.802C174.299 104.502 173.699 104.202 173.199 103.602C172.799 103.202 172.499 102.702 171.999 102.602C171.699 102.602 171.299 102.602 170.999 102.502C170.699 102.302 170.499 101.902 169.999 102.302C169.999 102.302 169.899 102.202 169.899 102.102C169.799 101.602 169.399 101.402 168.999 101.502C168.599 101.602 168.399 101.502 168.199 101.402C167.499 101.102 166.899 100.902 166.299 100.502C165.799 100.202 165.399 99.8017 164.999 99.6017C164.499 99.3017 163.799 99.4017 163.499 98.9017C163.099 98.4017 162.599 98.3017 162.199 98.1017C161.899 98.1017 161.699 97.6017 161.299 98.1017C161.299 98.1017 161.199 98.1017 161.099 98.1017C160.599 97.1017 159.599 98.0017 159.099 97.7017C158.499 97.4017 157.699 97.7017 156.999 97.7017C156.799 97.7017 156.499 97.7017 156.499 98.1017C156.499 98.3017 156.299 98.3017 156.099 98.3017C155.399 97.8017 154.899 98.4017 154.199 98.5017C153.499 98.6017 152.899 99.2017 152.099 99.0017C151.699 99.0017 151.299 99.0017 151.199 99.7017C151.199 100.002 150.699 99.9017 150.499 100.102C150.299 100.302 150.299 100.602 150.099 100.702C149.899 100.702 149.699 100.702 149.499 100.702C149.499 100.702 149.399 100.702 149.299 100.702C148.799 101.802 147.399 101.702 146.699 102.502C145.999 103.302 145.099 104.002 144.299 104.702C143.899 105.102 143.299 105.402 142.199 105.002C141.699 104.802 141.299 104.402 141.199 104.002C141.199 103.702 141.199 103.402 141.199 103.102C141.399 102.802 141.599 102.402 141.699 102.102C142.099 101.402 142.299 100.502 143.099 100.202C143.299 100.202 143.399 99.7017 143.899 99.9017H144.099C144.399 98.6017 145.699 98.3017 146.599 97.7017C147.399 97.2017 147.799 96.1017 148.799 95.9017C148.999 95.1017 149.599 94.9017 150.199 94.9017C152.199 94.7017 153.699 93.7017 155.799 93.3017C156.799 93.1017 157.899 93.0017 158.999 93.1017C160.099 93.1017 161.199 93.4017 162.099 93.7017C162.399 93.8017 162.799 93.5017 163.099 93.9017C163.399 94.3017 163.899 94.2017 164.199 94.4017C164.499 94.5017 164.999 94.5017 165.199 94.8017C166.299 95.9017 167.799 96.1017 168.999 96.8017C170.299 97.5017 171.499 98.2017 172.799 98.7017C173.599 99.0017 174.499 99.1017 175.199 99.7017C175.499 99.9017 175.999 99.8017 175.999 100.502C175.999 100.702 176.499 100.502 176.699 100.602C177.199 100.902 177.699 101.202 178.199 101.602C178.899 102.102 179.599 102.602 180.299 103.002C180.699 103.302 181.299 103.402 181.699 103.602C182.199 103.902 182.599 104.202 182.999 104.602C183.499 105.102 183.899 105.702 184.399 106.102C184.899 106.602 185.599 106.902 185.999 107.502C186.599 108.702 187.699 109.302 188.499 110.302C189.299 111.202 190.199 112.102 191.099 112.902C191.599 113.402 191.699 114.202 192.099 114.702C192.299 114.902 191.499 116.202 190.999 116.402C190.999 116.402 190.799 116.402 190.699 116.402C189.899 116.202 188.999 116.302 188.599 115.702C187.899 114.902 187.199 114.102 186.399 113.402V113.602Z" fill="black"/>
<path d="M168.301 122.802C168.701 122.602 169.101 122.502 169.401 122.302C169.501 122.302 169.801 122.302 169.701 121.802C169.701 121.502 170.101 122.002 170.201 122.002C170.501 121.802 170.901 121.702 171.201 121.502C171.501 121.302 171.801 120.902 172.101 120.702C172.401 120.502 172.901 120.602 173.101 120.102C173.301 119.702 173.701 120.102 173.901 119.802C174.101 119.602 174.401 119.302 174.801 119.402C175.101 119.402 175.401 119.602 175.501 119.402C175.501 119.302 175.501 118.902 175.701 118.902C175.801 118.902 176.101 119.002 175.901 118.402C175.901 118.402 175.901 118.402 176.101 118.402C176.401 118.702 176.601 118.602 176.601 118.302C176.601 118.002 176.701 118.002 176.801 117.902C177.101 117.702 177.301 117.602 177.701 117.502C177.901 117.502 178.201 117.502 178.501 117.502C178.701 117.502 178.901 117.102 179.201 117.302C179.501 117.502 179.701 117.302 179.901 117.302C180.001 117.302 180.301 117.402 180.101 116.802C180.801 117.402 180.601 116.302 181.101 116.302C181.501 116.302 181.801 116.002 182.201 115.802C182.201 115.802 182.501 115.802 182.401 115.402C182.401 115.202 182.401 115.202 182.501 115.302C183.001 115.702 183.101 115.302 183.401 115.302C183.801 115.302 183.901 114.902 184.401 115.202C184.601 115.302 184.801 115.302 184.701 114.702C184.701 114.402 184.901 114.602 185.001 114.502C185.001 114.502 185.001 114.102 185.101 114.102C185.101 114.102 185.401 114.202 185.501 114.302C185.701 113.502 186.501 114.102 186.801 113.702C187.201 113.302 187.601 113.202 188.101 113.102C188.401 113.102 188.701 113.102 189.401 114.002C189.701 114.402 189.901 114.902 190.001 115.302C190.001 115.602 190.001 115.802 190.001 115.902C190.001 116.102 189.801 116.202 189.701 116.402C189.501 116.702 189.401 117.302 189.001 117.202C188.901 117.202 188.901 117.502 188.601 117.102C188.601 118.002 187.901 117.702 187.501 118.002C187.201 118.202 187.101 118.902 186.701 118.802C186.701 119.502 186.501 119.502 186.201 119.402C185.201 119.102 184.801 119.802 184.101 120.102C183.401 120.302 182.701 120.702 182.001 121.002C181.901 121.002 182.001 121.402 181.701 121.202C181.501 121.002 181.401 121.202 181.201 121.402C181.101 121.402 181.001 121.702 180.801 121.602C180.001 121.302 179.601 121.902 179.101 122.102C178.501 122.302 178.001 122.502 177.501 122.902C177.201 123.102 177.001 123.602 176.701 123.602C176.501 123.602 176.501 124.002 176.101 123.602C176.001 123.502 176.101 123.902 176.001 124.002C175.801 124.202 175.601 124.202 175.301 124.302C175.001 124.402 174.701 124.602 174.401 124.802C174.201 124.902 174.101 125.202 174.001 125.402C173.801 125.502 173.601 125.602 173.401 125.702C173.101 125.702 172.801 125.702 172.501 125.702C172.201 125.702 172.101 126.102 171.701 126.002C171.001 125.802 170.701 126.202 170.201 126.402C169.701 126.602 169.201 126.702 168.801 127.102C168.601 127.302 168.101 126.902 167.901 127.102C167.801 127.102 167.001 125.902 166.801 125.402V125.202C166.801 124.702 166.801 123.902 167.101 123.802C167.601 123.702 167.901 123.402 168.401 123.202L168.301 122.802Z" fill="black"/>
<path d="M138.9 113.602C139.3 113.602 139.7 113.802 140.2 113.802C140.4 113.802 140.5 114.102 140.7 113.602C140.8 113.402 140.9 114.002 141 114.002C141.4 114.002 141.8 114.202 142.2 114.302C142.6 114.302 143 114.302 143.4 114.302C143.8 114.302 144.1 114.802 144.5 114.602C144.9 114.402 145 115.002 145.3 115.002C145.7 115.002 146 115.002 146.2 115.402C146.4 115.702 146.5 115.902 146.7 115.902C146.9 115.902 147.1 115.702 147.3 115.702C147.4 115.702 147.5 116.102 147.8 115.602C147.8 115.602 147.8 115.602 147.8 115.802C147.8 116.202 148 116.302 148.2 116.102C148.4 115.902 148.5 116.002 148.6 116.102C148.9 116.202 149.2 116.402 149.5 116.602C149.7 116.802 149.8 117.102 150 117.302C150.2 117.502 150.6 117.302 150.6 117.802C150.6 118.202 150.8 118.302 151 118.402C151.1 118.402 151 118.802 151.5 118.402C151.4 119.302 152.3 118.602 152.5 119.002C152.7 119.402 153.1 119.502 153.5 119.802C153.5 119.802 153.5 120.102 153.9 119.802C154 119.702 154.1 119.802 154.1 119.802C153.9 120.502 154.4 120.402 154.6 120.702C154.8 121.002 155.3 121.002 155.2 121.602C155.2 121.902 155.2 122.102 155.8 121.802C156 121.702 156 122.002 156.1 122.002C156.2 122.002 156.5 122.002 156.6 122.002C156.6 122.002 156.6 122.302 156.6 122.402C157.3 122.202 157 123.102 157.3 123.102C157.5 123.102 157.5 123.102 157.6 123.102C157.6 123.202 157.6 123.402 158 124.402C158.1 124.802 158.3 125.402 158.2 125.702C158.2 126.002 158.1 126.202 157.9 126.302C157.7 126.402 157.5 126.602 157.2 126.702C156.8 126.902 156 127.202 155.6 126.702C155.5 126.602 155.2 126.702 155.3 126.202V126.102C154.4 126.502 154.2 125.602 153.8 125.402C153.6 125.302 153.3 125.202 153.1 125.202C152.9 125.202 152.7 125.202 152.7 124.902C152.1 125.202 152 124.902 152 124.702C152 123.802 151.1 123.602 150.7 123.202C150.2 122.702 149.6 122.402 149 122.002C149 122.002 148.6 122.202 148.7 121.902C148.7 121.602 148.5 121.702 148.4 121.602C148.3 121.602 148.1 121.602 148.1 121.402C148 120.502 147.3 120.602 146.8 120.302C146.4 120.002 145.9 119.702 145.3 119.602C145 119.602 144.5 119.702 144.3 119.502C144.2 119.402 143.9 119.602 144 119.002C144 118.802 143.7 119.202 143.6 119.202C143.4 119.202 143.2 119.102 143 119.002C142.7 118.902 142.4 118.802 142.1 118.702C141.9 118.702 141.7 118.802 141.5 118.902C141.3 118.902 141.1 118.902 140.9 118.702C140.7 118.602 140.5 118.302 140.3 118.202C140.1 118.102 139.7 118.202 139.5 118.002C139.1 117.402 138.6 117.602 138.2 117.402C137.7 117.302 137.3 117.102 136.8 117.202C136.5 117.202 136.3 116.702 136.1 116.702C136 116.702 135.9 115.202 136.1 114.702V114.502C136.4 114.102 136.8 113.402 137.1 113.502C137.6 113.602 138.1 113.602 138.6 113.702L138.9 113.602Z" fill="black"/>
<path d="M119.601 143.098C120.001 142.698 120.401 142.198 120.801 141.698C120.901 141.498 121.301 141.498 121.001 140.998C120.901 140.698 121.501 140.998 121.601 140.798C121.901 140.298 122.301 139.898 122.601 139.498C122.901 138.998 123.101 138.498 123.301 137.998C123.601 137.498 124.101 137.298 124.201 136.698C124.201 136.198 124.901 136.098 125.001 135.698C125.201 135.298 125.401 134.798 125.801 134.598C126.101 134.398 126.501 134.298 126.601 133.898C126.601 133.698 126.501 133.398 126.601 133.198C126.701 132.998 127.101 132.998 126.601 132.498C126.601 132.498 126.701 132.498 126.801 132.498C127.301 132.498 127.401 132.298 127.201 131.998C127.101 131.698 127.201 131.598 127.201 131.398C127.401 130.998 127.601 130.598 127.901 130.198C128.101 129.898 128.501 129.698 128.701 129.498C128.901 129.198 128.901 128.698 129.301 128.598C129.701 128.498 129.901 128.198 130.001 127.898C130.001 127.698 130.401 127.698 130.001 127.198C130.001 127.198 130.001 127.198 130.001 127.098C131.001 127.098 130.201 125.998 130.701 125.698C131.101 125.298 131.301 124.698 131.501 124.198C131.501 124.098 131.801 123.998 131.501 123.698C131.401 123.598 131.501 123.398 131.501 123.398C132.201 123.298 132.101 122.698 132.301 122.398C132.601 121.998 132.501 121.398 133.201 121.198C133.501 121.098 133.701 120.898 133.201 120.398C133.001 120.198 133.301 120.098 133.301 119.898C133.301 119.698 133.101 119.498 133.101 119.398C133.101 119.298 133.401 119.298 133.601 119.198C133.601 119.198 133.601 119.198 133.601 119.098C133.201 118.198 134.301 117.898 134.401 117.098C134.401 116.398 134.801 115.698 135.101 114.998C135.301 114.598 135.601 114.298 136.701 114.398C137.201 114.398 137.801 114.598 138.001 114.798C138.201 114.998 138.401 115.198 138.401 115.398C138.401 115.698 138.401 115.898 138.501 116.198C138.501 116.698 138.901 117.298 138.501 117.698C138.401 117.798 138.501 118.098 138.101 117.998H138.001C138.501 118.898 137.801 119.398 137.601 119.998C137.401 120.598 137.801 121.298 137.401 121.798C137.901 122.298 137.601 122.598 137.401 122.898C136.301 123.698 136.301 124.898 135.701 125.898C135.101 126.898 134.701 127.998 134.101 128.998C134.101 129.198 134.201 129.498 133.901 129.598C133.601 129.598 133.601 129.998 133.501 130.198C133.401 130.398 133.401 130.698 133.201 130.798C132.201 131.298 132.101 132.298 131.501 132.998C131.001 133.698 130.501 134.498 130.101 135.298C129.901 135.798 129.901 136.498 129.401 136.898C129.201 137.098 129.401 137.498 128.701 137.298C128.501 137.298 128.701 137.698 128.701 137.798C128.501 138.098 128.301 138.398 128.101 138.698C127.801 139.098 127.401 139.498 127.201 139.998C127.001 140.298 127.001 140.698 126.901 140.998C126.701 141.298 126.501 141.598 126.301 141.798C126.001 142.098 125.501 142.298 125.201 142.598C124.901 142.898 124.801 143.398 124.301 143.598C123.401 143.898 123.101 144.598 122.501 145.198C121.901 145.698 121.401 146.298 120.901 146.898C120.601 147.298 120.001 147.198 119.701 147.498C119.601 147.598 118.301 146.798 118.001 146.398L117.901 146.198C117.901 145.598 117.601 144.798 117.901 144.498C118.401 144.098 118.901 143.498 119.301 142.998L119.601 143.098Z" fill="black"/>
<path d="M168.1 121.5C167.9 121.6 167.7 121.7 167.6 121.9C167.6 121.9 167.3 121.8 167.6 122.3C167.7 122.5 167.3 122.1 167.2 122.1C167.1 122.3 166.8 122.3 166.7 122.5C166.6 122.7 166.5 123 166.4 123.1C166.3 123.3 165.9 123.1 166 123.5C166 123.8 165.6 123.5 165.6 123.7C165.6 123.9 165.4 124.1 165.2 124C165 124 164.8 123.8 164.8 124V124.4C164.8 124.4 164.5 124.2 164.8 124.8C164.8 124.8 164.8 124.8 164.7 124.8C164.4 124.5 164.3 124.6 164.4 124.8C164.4 125.1 164.4 125.1 164.4 125.1C164.3 125.2 164.2 125.3 164 125.4C163.9 125.4 163.6 125.4 163.5 125.4C163.4 125.4 163.5 125.7 163.1 125.5C162.8 125.3 162.7 125.4 162.6 125.5C162.6 125.5 162.3 125.3 162.6 125.9C162 125.3 162.4 126.3 162.2 126.3C161.9 126.3 161.8 126.5 161.7 126.6C161.7 126.6 161.5 126.6 161.7 126.9C161.7 127 161.7 127.1 161.7 127C161.2 126.6 161.3 127 161.1 127C160.9 127 160.9 127.3 160.5 127C160.3 126.9 160.2 126.8 160.5 127.4C160.6 127.6 160.4 127.4 160.4 127.6C160.4 127.6 160.4 127.9 160.4 128C160.4 128 160.2 127.9 160.1 127.8C160.3 128.5 159.6 127.8 159.4 128.2C159.3 128.5 159 128.6 158.8 128.6C158.7 128.6 158.4 128.6 157.7 127.7C157.4 127.3 157.1 126.8 156.9 126.5C156.9 126.3 156.7 126.1 156.7 126C156.7 125.9 156.7 125.7 156.7 125.6C156.7 125.3 156.6 124.8 156.9 125C156.9 125 156.9 124.8 157.2 125.2C156.9 124.4 157.4 124.7 157.6 124.5C157.7 124.3 157.6 123.7 157.9 123.8C157.6 123.2 157.9 123.2 158 123.3C158.7 123.6 158.8 123 159.2 122.9C159.6 122.8 159.9 122.5 160.2 122.3C160.2 122.3 160.2 121.9 160.3 122.1C160.5 122.3 160.5 122.1 160.5 122.1C160.5 122.1 160.5 121.9 160.7 122C161.3 122.4 161.4 121.9 161.7 121.8C162 121.7 162.3 121.6 162.5 121.3C162.6 121.1 162.5 120.7 162.8 120.7C162.8 120.7 162.8 120.4 163.2 120.8C163.3 120.9 163.2 120.5 163.2 120.5C163.2 120.4 163.4 120.3 163.5 120.3C163.7 120.2 163.8 120.1 163.9 120C163.9 120 163.9 119.6 163.9 119.5C163.9 119.4 164.1 119.3 164.2 119.3C164.4 119.3 164.6 119.3 164.8 119.3C165 119.3 164.9 119 165.2 119.1C165.7 119.4 165.8 119.1 166 118.9C166.3 118.8 166.5 118.7 166.7 118.4C166.7 118.3 167.2 118.6 167.3 118.5C167.3 118.5 168.3 119.6 168.5 120.1C168.5 120.1 168.5 120.3 168.6 120.3C168.7 120.8 169 121.4 168.9 121.5C168.7 121.5 168.5 121.8 168.3 121.9L168.1 121.5Z" fill="black"/>
</svg>
