<svg width="300" height="300" viewBox="0 0 300 300" fill="none" xmlns="http://www.w3.org/2000/svg">
<path d="M183.199 140.102C182.699 139.502 182.199 139.002 181.599 138.402C181.399 138.202 181.399 137.802 180.799 138.002C180.499 138.002 180.799 137.402 180.599 137.302C180.099 136.802 179.599 136.202 179.099 135.802C178.599 135.302 177.899 135.002 177.399 134.502C176.899 134.002 176.599 133.302 175.899 133.102C175.299 132.902 175.299 132.202 174.899 131.802C174.399 131.502 173.899 131.102 173.699 130.502C173.499 130.102 173.399 129.602 173.099 129.402C172.899 129.302 172.499 129.402 172.299 129.102C172.099 128.902 172.099 128.502 171.499 128.802C171.499 128.802 171.499 128.702 171.499 128.602C171.599 128.102 171.399 127.902 170.999 127.902C170.599 127.902 170.499 127.702 170.399 127.602C169.999 127.202 169.599 126.802 169.199 126.302C168.899 125.902 168.799 125.502 168.599 125.102C168.299 124.702 167.799 124.602 167.699 124.002C167.699 123.502 167.299 123.202 167.099 122.902C166.899 122.702 166.999 122.302 166.399 122.602C166.399 122.602 166.299 122.602 166.299 122.502C166.399 121.402 165.199 121.702 164.899 121.102C164.599 120.402 163.999 120.002 163.499 119.502C163.399 119.402 163.399 119.102 162.899 119.302C162.699 119.302 162.599 119.302 162.599 119.102C162.699 118.302 162.099 118.202 161.799 117.802C161.499 117.302 160.899 117.202 160.799 116.502C160.799 116.202 160.599 115.902 159.999 116.302C159.799 116.502 159.699 116.102 159.499 116.102C159.299 116.102 159.099 116.202 158.999 116.102C158.899 116.102 158.899 115.802 158.799 115.602C158.799 115.602 158.799 115.602 158.699 115.602C157.799 115.902 157.399 114.902 156.599 114.902C155.799 114.902 154.999 114.802 154.199 114.602C153.699 114.602 153.299 114.302 152.999 113.202C152.899 112.702 152.899 112.102 153.099 111.802C153.299 111.602 153.499 111.302 153.599 111.302C153.899 111.302 154.199 111.102 154.499 111.002C155.099 110.802 155.799 110.402 156.399 110.702C156.599 110.802 156.899 110.602 156.999 111.102C156.999 111.102 156.999 111.202 157.099 111.102C158.099 110.502 158.999 111.202 159.899 111.502C160.699 111.702 161.699 111.502 162.299 112.302C162.999 112.002 163.399 112.502 163.699 112.902C164.499 114.402 165.799 115.202 166.699 116.202C167.599 117.302 168.599 118.202 169.499 119.302C169.699 119.502 170.099 119.302 169.999 119.802C169.999 120.202 170.399 120.302 170.599 120.502C170.799 120.702 171.099 120.802 171.199 121.102C171.499 122.302 172.499 122.902 173.199 123.702C173.899 124.502 174.599 125.402 175.499 126.102C175.999 126.502 176.699 126.802 177.099 127.302C177.299 127.502 177.699 127.502 177.499 128.102C177.499 128.302 177.899 128.102 178.099 128.302C178.399 128.602 178.699 129.002 178.999 129.302C179.399 129.802 179.799 130.302 180.299 130.702C180.599 131.002 180.999 131.102 181.299 131.302C181.599 131.602 181.899 131.902 182.099 132.202C182.399 132.602 182.599 133.102 182.899 133.602C183.199 134.002 183.799 134.302 183.899 134.802C184.199 135.802 184.999 136.402 185.599 137.102C186.199 137.802 186.799 138.502 187.499 139.102C187.899 139.402 187.899 140.102 188.199 140.502C188.399 140.702 187.499 141.902 187.099 142.202H186.899C186.199 142.202 185.399 142.202 184.999 141.802C184.499 141.102 183.799 140.502 183.199 139.902V140.102Z" fill="black"/>
<path d="M115.3 156.401C115.5 156.901 115.6 157.501 115.9 158.001C115.9 158.201 115.9 158.501 116.4 158.501C116.7 158.501 116.2 158.901 116.2 159.101C116.4 159.601 116.5 160.101 116.8 160.601C117 161.101 117.4 161.501 117.6 162.001C117.8 162.501 117.6 163.101 118.1 163.501C118.5 163.801 118.1 164.401 118.3 164.701C118.5 165.101 118.7 165.501 118.6 166.001C118.6 166.401 118.4 166.701 118.6 167.001C118.7 167.201 119.1 167.301 119.1 167.501C119.1 167.701 118.9 168.001 119.5 168.001C119.5 168.001 119.5 168.101 119.4 168.201C119 168.501 119.1 168.801 119.4 168.901C119.7 169.001 119.7 169.201 119.7 169.401C119.7 169.901 119.9 170.301 119.9 170.801C119.9 171.201 119.7 171.501 119.6 171.901C119.6 172.301 119.9 172.601 119.6 173.001C119.3 173.301 119.3 173.701 119.3 174.001C119.3 174.201 119 174.401 119.7 174.501C119.7 174.501 119.7 174.501 119.7 174.601C118.9 175.101 120 175.601 119.7 176.101C119.5 176.601 119.7 177.101 119.7 177.601C119.7 177.701 119.5 177.901 120 178.001C120.2 178.001 120.2 178.201 120 178.201C119.4 178.601 119.8 179.001 119.7 179.401C119.7 179.801 120 180.301 119.5 180.701C119.3 180.901 119.2 181.201 119.8 181.301C120.1 181.301 119.8 181.601 119.9 181.801C119.9 181.901 120.3 182.001 120.3 182.101C120.3 182.201 120.1 182.401 120 182.501C120 182.501 120 182.501 120 182.601C120.8 183.101 120 183.901 120.2 184.501C120.5 185.101 120.5 185.801 120.6 186.501C120.6 186.901 120.5 187.301 119.4 187.701C118.9 187.901 118.4 188.001 118 187.901C117.7 187.901 117.5 187.701 117.4 187.601C117.3 187.401 117.1 187.201 117 187.001C116.7 186.601 116.1 186.301 116.3 185.801C116.3 185.601 116 185.501 116.5 185.301C116.5 185.301 116.5 185.301 116.5 185.201C115.6 184.701 116 184.001 115.9 183.401C115.8 182.901 115.1 182.501 115.3 181.901C114.6 181.701 114.7 181.301 114.9 181.001C115.4 179.901 114.9 178.901 114.9 177.801C114.9 176.701 114.9 175.701 114.9 174.601C114.9 174.401 114.5 174.301 114.9 174.101C115.2 173.901 114.9 173.701 114.9 173.401C114.9 173.201 114.7 173.001 114.9 172.801C115.5 172.001 115.1 171.301 115 170.501C115 169.701 114.9 169.001 114.6 168.301C114.4 167.901 113.9 167.501 114 167.001C114 166.801 113.6 166.701 114.2 166.301C114.3 166.301 113.9 166.101 113.8 166.001C113.7 165.701 113.6 165.401 113.5 165.101C113.4 164.701 113.3 164.201 113.1 163.801C113 163.501 112.7 163.401 112.5 163.101C112.4 162.801 112.3 162.601 112.2 162.301C112.2 161.901 112.2 161.501 112.2 161.101C112.2 160.701 111.7 160.401 111.9 160.001C112.2 159.201 111.7 158.601 111.5 157.901C111.3 157.201 111.1 156.601 110.8 156.001C110.6 155.701 111 155.101 110.8 154.801C110.8 154.601 112 153.901 112.5 153.801H112.7C113.3 154.001 114.1 154.101 114.2 154.501C114.4 155.101 114.6 155.701 114.8 156.301L115.3 156.401Z" fill="black"/>
<path d="M166.101 147.302C166.501 147.102 166.801 147.002 167.201 146.702C167.301 146.702 167.601 146.702 167.501 146.202C167.501 145.902 167.901 146.402 168.001 146.402C168.301 146.202 168.701 146.102 169.001 145.902C169.301 145.702 169.501 145.302 169.801 145.102C170.101 144.902 170.601 145.102 170.801 144.602C171.001 144.202 171.401 144.602 171.601 144.302C171.801 144.102 172.101 143.902 172.501 144.002C172.801 144.002 173.101 144.202 173.201 144.002C173.201 143.902 173.201 143.502 173.401 143.502C173.501 143.502 173.801 143.702 173.701 143.002C173.701 143.002 173.701 143.002 173.901 143.002C174.201 143.302 174.401 143.202 174.401 143.002C174.401 142.702 174.501 142.702 174.601 142.602C174.901 142.502 175.201 142.302 175.501 142.302C175.701 142.302 176.001 142.302 176.301 142.302C176.501 142.302 176.701 141.902 177.001 142.102C177.301 142.302 177.501 142.202 177.701 142.102C177.801 142.102 178.101 142.302 177.901 141.602C178.501 142.302 178.501 141.102 178.901 141.202C179.301 141.202 179.601 141.002 180.001 140.902C180.001 140.902 180.301 141.002 180.201 140.502C180.201 140.302 180.201 140.302 180.401 140.402C180.901 140.902 181.001 140.402 181.301 140.402C181.601 140.402 181.901 140.002 182.301 140.402C182.501 140.602 182.701 140.602 182.701 140.002C182.701 139.702 182.901 140.002 183.001 139.802C183.001 139.802 183.001 139.402 183.201 139.402C183.201 139.402 183.401 139.602 183.501 139.702C183.801 138.902 184.501 139.702 184.901 139.302C185.301 139.002 185.801 138.902 186.301 138.902C186.601 138.902 186.901 138.902 187.401 140.002C187.601 140.502 187.801 141.002 187.701 141.402C187.701 141.702 187.701 141.902 187.601 142.002C187.501 142.102 187.401 142.302 187.301 142.402C187.101 142.702 186.901 143.302 186.601 143.102C186.501 143.102 186.501 143.402 186.201 142.902C186.001 143.802 185.501 143.402 185.101 143.602C184.801 143.802 184.601 144.502 184.201 144.302C184.201 145.002 184.001 144.902 183.701 144.802C182.801 144.402 182.301 145.002 181.601 145.202C180.901 145.302 180.301 145.702 179.601 145.902C179.501 145.902 179.601 146.302 179.301 146.102C179.101 145.902 179.001 146.102 178.801 146.202C178.701 146.202 178.601 146.402 178.401 146.302C177.601 145.902 177.301 146.502 176.701 146.602C176.201 146.702 175.601 146.902 175.201 147.302C174.901 147.502 174.801 148.002 174.401 148.002C174.201 148.002 174.201 148.402 173.901 147.902C173.801 147.802 173.901 148.202 173.801 148.302C173.601 148.402 173.401 148.502 173.201 148.602C172.901 148.702 172.601 148.802 172.301 149.002C172.101 149.102 172.101 149.402 171.901 149.602C171.701 149.702 171.601 149.802 171.301 149.902C171.001 149.902 170.701 149.902 170.401 149.902C170.101 149.902 170.001 150.302 169.601 150.202C168.901 150.002 168.601 150.402 168.201 150.602C167.701 150.802 167.301 150.902 166.901 151.302C166.701 151.502 166.201 151.202 166.001 151.302C165.901 151.302 165.101 150.102 164.901 149.702V149.502C164.901 149.002 164.801 148.202 165.101 148.102C165.501 148.002 165.901 147.702 166.301 147.502L166.101 147.302Z" fill="black"/>
<path d="M168.6 166.202C168.6 165.902 168.5 165.502 168.3 165.202C168.3 165.102 168.5 164.902 167.9 164.902C167.6 164.902 168.2 164.602 168.2 164.502C168.1 164.202 168.1 163.902 167.9 163.602C167.8 163.302 167.5 163.102 167.3 162.802C167.2 162.502 167.3 162.102 167 161.902C166.7 161.702 167.1 161.402 167 161.202C166.8 161.002 166.7 160.702 166.8 160.402C166.9 160.202 167.1 160.002 166.9 159.802C166.9 159.802 166.5 159.702 166.5 159.602C166.5 159.502 166.7 159.302 166.1 159.302C166.1 159.302 166.1 159.302 166.2 159.202C166.6 159.002 166.5 158.802 166.2 158.802C165.9 158.802 165.9 158.702 165.9 158.602C165.9 158.402 165.7 158.102 165.7 157.902C165.7 157.702 165.9 157.502 165.9 157.302C165.9 157.102 165.6 157.002 165.9 156.702C166.2 156.402 166.1 156.302 166 156.102C166 156.102 166.2 155.802 165.6 155.902C166.3 155.402 165.2 155.402 165.3 155.102C165.4 154.802 165.3 154.502 165.1 154.202C165.1 154.202 165.2 154.002 164.8 154.002C164.6 154.002 164.6 154.002 164.7 153.902C165.2 153.502 164.8 153.402 164.9 153.102C164.9 152.802 164.6 152.602 164.9 152.202C165.1 152.002 165.1 151.902 164.5 151.902C164.2 151.902 164.5 151.702 164.4 151.602C164.4 151.602 164 151.602 164 151.502C164 151.502 164.2 151.302 164.3 151.202C163.6 151.002 164.3 150.402 164 150.102C163.7 149.802 163.7 149.402 163.6 149.002C163.6 148.802 163.6 148.502 164.7 148.002C165.2 147.802 165.7 147.602 166 147.602C166.2 147.602 166.5 147.602 166.6 147.602C166.7 147.602 166.9 147.802 167 147.902C167.3 148.102 167.9 148.202 167.7 148.502C167.7 148.602 168 148.602 167.5 148.802C168.4 148.902 168 149.402 168.1 149.802C168.2 150.102 168.9 150.202 168.7 150.602C169.4 150.602 169.3 150.802 169.2 151.002C168.7 151.802 169.3 152.202 169.4 152.902C169.4 153.502 169.7 154.102 169.8 154.702C169.8 154.802 170.2 154.802 170 155.002C169.8 155.202 170 155.302 170 155.402C170 155.502 170.2 155.602 170 155.802C169.5 156.402 170 156.802 170 157.302C170 157.802 170 158.302 170.4 158.702C170.6 159.002 171 159.202 170.9 159.502C170.9 159.602 171.2 159.702 170.7 159.902C170.5 159.902 171 159.902 171.1 160.102C171.1 160.302 171.2 160.502 171.3 160.702C171.3 161.002 171.3 161.302 171.5 161.502C171.5 161.702 171.9 161.802 172 161.902C172.1 162.102 172.1 162.202 172.1 162.402C172.1 162.602 171.9 162.902 171.9 163.102C171.9 163.302 172.2 163.502 172 163.802C171.6 164.302 172 164.702 172 165.102C172 165.502 172.1 165.902 172.3 166.302C172.4 166.502 172 166.802 172.1 167.102C172.1 167.102 170.7 167.702 170.2 167.802H170C169.5 167.802 168.7 167.802 168.7 167.402C168.7 167.002 168.5 166.702 168.4 166.302L168.6 166.202Z" fill="black"/>
<path d="M162.2 186.203C162.3 185.803 162.5 185.403 162.5 185.003C162.5 184.803 162.8 184.803 162.4 184.503C162.2 184.303 162.8 184.403 162.8 184.203C162.8 183.803 163.1 183.503 163.1 183.103C163.1 182.703 163.1 182.303 163.1 181.903C163.1 181.503 163.6 181.303 163.4 180.803C163.2 180.403 163.8 180.303 163.8 180.003C163.8 179.703 163.8 179.303 164.1 179.103C164.3 178.903 164.6 178.803 164.6 178.603C164.6 178.403 164.3 178.203 164.4 178.103C164.4 178.003 164.8 177.903 164.2 177.603C164.2 177.603 164.2 177.603 164.4 177.603C164.8 177.603 164.9 177.403 164.6 177.203C164.4 177.003 164.5 176.903 164.5 176.803C164.5 176.503 164.6 176.203 164.8 175.903C164.9 175.703 165.2 175.603 165.4 175.403C165.5 175.203 165.4 174.903 165.7 174.703C166.1 174.603 166.1 174.403 166.2 174.203C166.2 174.103 166.6 174.003 166 173.703C166.9 173.703 166 173.003 166.3 172.703C166.6 172.403 166.6 172.003 166.7 171.703C166.7 171.703 166.9 171.603 166.5 171.303C166.4 171.303 166.4 171.103 166.5 171.103C167.2 171.103 166.9 170.603 167.1 170.403C167.3 170.103 167.1 169.703 167.7 169.603C167.9 169.603 168.1 169.403 167.6 169.103C167.4 168.903 167.6 168.903 167.6 168.803C167.6 168.703 167.3 168.503 167.4 168.403C167.4 168.403 167.7 168.403 167.8 168.303C167.3 167.703 168.3 167.503 168.2 167.003C168.2 166.703 168.2 166.603 168.2 166.303C168.2 166.003 168.4 165.703 168.6 165.303C168.8 164.903 169.3 164.503 170.4 165.103C170.9 165.303 171.3 165.703 171.5 166.003C171.6 166.203 171.8 166.403 171.8 166.503C171.8 166.603 171.9 166.803 172 166.903C172.1 167.103 172.6 167.403 172.2 167.703C172.1 167.703 172.3 168.003 171.8 167.903C172.5 168.503 171.8 168.903 171.8 169.303C171.8 169.703 172.2 170.203 171.8 170.503C172.3 170.903 172.2 171.103 171.9 171.203C171 171.703 171.2 172.503 170.9 173.203C170.6 173.903 170.4 174.603 170.1 175.303C170.1 175.403 170.4 175.603 170.1 175.703C169.8 175.703 169.9 176.003 169.9 176.103C169.9 176.203 169.9 176.403 169.7 176.503C168.9 176.803 169.1 177.503 168.8 178.003C168.5 178.503 168.3 179.003 168.3 179.603C168.3 180.003 168.5 180.403 168.3 180.703C168.2 180.803 168.5 181.103 167.9 181.003C167.7 181.003 168.1 181.303 168.1 181.403C168.1 181.603 168 181.903 167.9 182.103C167.8 182.403 167.6 182.703 167.6 183.103C167.6 183.303 167.7 183.603 167.7 183.803C167.7 184.003 167.7 184.203 167.5 184.403C167.3 184.603 167.1 184.803 166.9 185.103C166.8 185.303 166.9 185.703 166.6 185.903C166 186.203 166.1 186.803 165.9 187.203C165.7 187.603 165.5 188.103 165.5 188.603C165.5 188.903 165 189.003 164.9 189.203C164.9 189.303 163.4 189.203 162.9 189.003H162.7C162.3 188.603 161.7 188.203 161.8 187.903C162 187.403 162.1 187.003 162.2 186.503V186.203Z" fill="black"/>
<path d="M150.999 135.801C150.999 136.001 150.899 136.101 150.899 136.301C150.899 136.301 150.599 136.301 151.099 136.601C151.399 136.601 150.699 136.601 150.699 136.601C150.699 136.801 150.699 136.901 150.699 137.101C150.699 137.301 150.899 137.501 150.899 137.601C150.899 137.801 150.599 137.901 150.899 138.101C151.199 138.301 150.599 138.301 150.699 138.401C150.799 138.601 150.899 138.701 150.699 138.801C150.499 138.801 150.299 138.901 150.399 139.001C150.399 139.001 150.799 139.201 150.699 139.201C150.699 139.201 150.399 139.201 150.999 139.401C150.999 139.401 150.999 139.401 150.799 139.401C150.399 139.401 150.399 139.401 150.699 139.601C150.999 139.601 150.899 139.701 150.899 139.801C150.899 139.901 150.899 140.101 150.899 140.201C150.899 140.201 150.599 140.401 150.499 140.501C150.499 140.501 150.699 140.701 150.399 140.801C150.099 140.801 150.099 141.001 150.099 141.101C150.099 141.101 149.799 141.201 150.399 141.301C149.599 141.401 150.599 141.601 150.399 141.801C150.199 142.001 150.399 142.101 150.399 142.301C150.399 142.301 150.199 142.301 150.699 142.401C150.899 142.401 150.899 142.401 150.699 142.401C150.099 142.501 150.499 142.601 150.299 142.801C150.199 142.901 150.499 143.101 149.999 143.201C149.799 143.201 149.699 143.401 150.299 143.401C150.599 143.401 150.299 143.501 150.299 143.601C150.299 143.601 150.599 143.601 150.599 143.701C150.599 143.701 150.399 143.701 150.299 143.801C150.999 144.001 150.099 144.201 150.299 144.401C150.499 144.601 150.399 144.801 150.299 145.001C150.299 145.101 150.099 145.301 148.899 145.401C148.399 145.401 147.799 145.501 147.499 145.501C147.299 145.501 146.999 145.501 146.999 145.501C146.899 145.501 146.799 145.401 146.699 145.301C146.499 145.201 145.899 145.101 146.199 144.901C146.199 144.901 145.999 144.901 146.499 144.701C145.699 144.501 146.199 144.301 146.099 144.101C146.099 143.901 145.399 143.801 145.699 143.601C145.099 143.601 145.199 143.401 145.399 143.301C146.099 142.901 145.599 142.601 145.699 142.201C145.699 141.801 145.699 141.501 145.699 141.101C145.699 141.101 145.399 141.001 145.699 140.901C145.999 140.901 145.699 140.701 145.699 140.701C145.699 140.701 145.599 140.501 145.699 140.501C146.399 140.301 145.999 139.901 146.099 139.701C146.199 139.401 146.299 139.101 146.099 138.801C146.099 138.601 145.699 138.401 145.899 138.201C145.899 138.201 145.599 138.001 146.199 138.001C146.399 138.001 145.899 137.901 145.899 137.801C145.899 137.701 145.899 137.601 145.899 137.401C145.899 137.201 145.999 137.101 145.899 136.901C145.899 136.801 145.699 136.601 145.599 136.501C145.599 136.401 145.599 136.301 145.599 136.201C145.699 136.101 145.899 136.001 145.999 135.901C145.999 135.801 145.899 135.601 146.199 135.501C146.799 135.401 146.599 135.101 146.699 134.801C146.799 134.601 146.899 134.401 146.899 134.101C146.899 133.901 147.399 134.001 147.399 133.801C147.399 133.801 148.899 134.101 149.299 134.201H149.499C149.899 134.501 150.599 134.801 150.499 134.901C150.399 135.101 150.399 135.301 150.299 135.501L150.999 135.801Z" fill="black"/>
<path d="M162.3 135.801C162.3 136.001 162.2 136.101 162.2 136.301C162.2 136.301 161.9 136.301 162.4 136.601C162.7 136.601 162 136.601 162 136.601C162 136.801 162 136.901 162 137.101C162 137.301 162.2 137.501 162.2 137.601C162.2 137.801 161.9 137.901 162.2 138.101C162.5 138.301 161.9 138.301 162 138.401C162.1 138.601 162.2 138.701 162 138.801C161.8 138.801 161.6 138.901 161.7 139.001C161.7 139.001 162.1 139.201 162 139.201C162 139.201 161.7 139.201 162.3 139.401C162.3 139.401 162.3 139.401 162.1 139.401C161.7 139.401 161.7 139.401 162 139.601C162.3 139.601 162.2 139.701 162.2 139.801C162.2 139.901 162.2 140.101 162.2 140.201C162.2 140.201 161.9 140.401 161.8 140.501C161.8 140.501 162 140.701 161.7 140.801C161.4 140.801 161.4 141.001 161.4 141.101C161.4 141.101 161.1 141.201 161.7 141.301C160.9 141.401 161.9 141.601 161.7 141.801C161.5 142.001 161.7 142.101 161.7 142.301C161.7 142.301 161.5 142.301 162 142.401C162.2 142.401 162.2 142.401 162 142.401C161.4 142.501 161.8 142.601 161.6 142.801C161.5 142.901 161.8 143.101 161.3 143.201C161.1 143.201 161 143.401 161.6 143.401C161.9 143.401 161.6 143.501 161.6 143.601C161.6 143.601 161.9 143.601 161.9 143.701C161.9 143.701 161.7 143.701 161.6 143.801C162.3 144.001 161.4 144.201 161.6 144.401C161.8 144.601 161.7 144.801 161.6 145.001C161.6 145.101 161.4 145.301 160.2 145.401C159.7 145.401 159.1 145.501 158.8 145.501C158.6 145.501 158.3 145.501 158.3 145.501C158.2 145.501 158.1 145.401 158 145.301C157.8 145.201 157.2 145.101 157.5 144.901C157.5 144.901 157.3 144.901 157.8 144.701C157 144.501 157.5 144.301 157.4 144.101C157.4 143.901 156.7 143.801 157 143.601C156.4 143.601 156.5 143.401 156.7 143.301C157.4 142.901 156.9 142.601 157 142.201C157 141.801 157 141.501 157 141.101C157 141.101 156.7 141.001 157 140.901C157.3 140.901 157 140.701 157 140.701C157 140.701 156.9 140.501 157 140.501C157.7 140.301 157.3 139.901 157.4 139.701C157.5 139.401 157.6 139.101 157.4 138.801C157.4 138.601 157 138.401 157.2 138.201C157.2 138.201 156.9 138.001 157.5 138.001C157.7 138.001 157.2 137.901 157.2 137.801C157.2 137.701 157.2 137.601 157.2 137.401C157.2 137.201 157.3 137.101 157.2 136.901C157.2 136.801 157 136.601 156.9 136.501C156.9 136.401 156.9 136.301 156.9 136.201C157 136.101 157.2 136.001 157.3 135.901C157.3 135.801 157.2 135.601 157.5 135.501C158.1 135.401 157.9 135.101 158 134.801C158.1 134.601 158.2 134.401 158.2 134.101C158.2 133.901 158.7 134.001 158.7 133.801C158.7 133.801 160.2 134.101 160.6 134.201H160.8C161.2 134.501 161.9 134.801 161.8 134.901C161.7 135.101 161.7 135.301 161.6 135.501L162.3 135.801Z" fill="black"/>
<path d="M162.599 169.701C162.399 169.701 162.099 169.801 161.899 169.901C161.899 169.901 161.699 169.701 161.699 170.301C161.699 170.601 161.499 170.001 161.399 170.001C161.199 170.101 160.899 170.001 160.699 170.201C160.499 170.201 160.299 170.601 159.999 170.601C159.799 170.601 159.499 170.401 159.299 170.701C159.099 171.001 158.899 170.501 158.699 170.701C158.499 170.801 158.299 170.901 158.099 170.701C157.999 170.501 157.799 170.301 157.699 170.401C157.699 170.401 157.499 170.801 157.399 170.701C157.399 170.701 157.199 170.401 157.099 171.001C157.099 171.001 157.099 171.001 157.099 170.801C157.099 170.401 156.899 170.401 156.799 170.701C156.699 171.001 156.599 170.901 156.499 170.901C156.299 170.901 156.099 170.901 155.899 170.901C155.799 170.901 155.699 170.601 155.499 170.501C155.399 170.501 155.099 170.701 155.099 170.301C155.099 170.001 154.899 169.901 154.799 169.901C154.799 169.901 154.799 169.601 154.499 170.201C154.499 169.401 153.999 170.301 153.799 170.001C153.599 169.701 153.399 169.801 153.099 169.701C153.099 169.701 153.099 169.501 152.799 169.901C152.799 170.001 152.599 170.001 152.699 169.901C152.699 169.201 152.499 169.501 152.299 169.401C152.199 169.201 151.799 169.401 151.899 168.801C151.899 168.601 151.899 168.401 151.499 168.801C151.299 169.001 151.399 168.801 151.299 168.801L150.999 169.001C150.999 169.001 150.999 168.701 150.999 168.601C150.399 169.001 150.599 168.101 150.299 168.001C149.899 168.001 149.699 167.701 149.499 167.401C149.499 167.201 149.399 167.001 150.099 166.101C150.399 165.701 150.799 165.301 151.099 165.101C151.299 165.001 151.499 164.801 151.599 164.801C151.699 164.801 151.899 164.801 151.999 164.701C152.199 164.701 152.699 164.301 152.599 164.701C152.599 164.701 152.799 164.601 152.599 165.001C153.199 164.501 153.099 165.001 153.299 165.001C153.499 165.001 153.899 164.601 153.899 165.001C154.299 164.501 154.299 164.601 154.299 164.801C154.299 165.501 154.799 165.301 154.999 165.501C155.299 165.701 155.599 165.701 155.899 165.901C155.899 165.901 156.099 165.601 156.099 165.901C156.099 166.201 156.199 165.901 156.299 166.001H156.499C156.599 166.701 156.999 166.401 157.199 166.501C157.499 166.501 157.699 166.701 157.999 166.501C158.199 166.501 158.299 166.101 158.499 166.201C158.499 166.201 158.599 165.901 158.699 166.501C158.699 166.701 158.699 166.201 158.799 166.201C158.899 166.201 158.999 166.201 159.099 166.201C159.199 166.201 159.399 166.201 159.499 166.201C159.499 166.201 159.699 165.901 159.699 165.801C159.699 165.801 159.899 165.801 159.999 165.801C160.099 165.801 160.299 166.001 160.399 166.101C160.499 166.101 160.599 165.801 160.799 166.101C161.099 166.501 161.299 166.201 161.499 166.201C161.699 166.201 161.999 166.201 162.099 166.001C162.099 165.901 162.499 166.301 162.599 166.301C162.599 166.301 163.299 167.601 163.499 168.101V168.301C163.499 168.801 163.699 169.501 163.499 169.501C163.199 169.501 162.899 169.701 162.699 169.801L162.599 169.701Z" fill="black"/>
<path d="M125.999 164.799C125.199 164.799 124.399 164.799 123.699 164.799C123.399 164.799 123.199 164.499 122.799 164.999C122.599 165.199 122.399 164.599 122.199 164.499C121.499 164.499 120.899 164.099 120.199 163.999C119.599 163.799 118.799 163.799 118.199 163.499C117.599 163.199 117.099 162.599 116.399 162.499C115.799 162.399 115.599 161.699 115.199 161.399C114.699 161.099 114.099 160.599 113.899 159.899C113.799 159.399 113.699 158.899 113.399 158.599C113.199 158.399 112.799 158.199 112.699 157.899C112.699 157.599 112.699 157.199 112.099 157.199V156.999C112.399 156.599 112.299 156.299 112.099 156.099C111.799 155.899 111.799 155.699 111.799 155.499C111.699 154.899 111.599 154.299 111.799 153.699C111.799 153.199 112.099 152.799 112.199 152.399C112.299 151.899 112.199 151.399 112.499 150.999C112.899 150.599 112.999 150.199 113.199 149.799C113.299 149.499 113.699 149.399 113.199 148.899C113.199 148.899 113.199 148.799 113.199 148.699C113.799 148.599 113.899 148.199 113.999 147.799C114.099 147.399 114.299 146.899 114.699 146.699C115.499 146.299 116.099 145.699 116.799 145.399C116.999 145.399 117.299 145.399 117.299 144.899C117.299 144.699 117.499 144.599 117.699 144.699C118.399 145.099 118.899 144.699 119.499 144.699C120.099 144.699 120.799 144.399 121.399 144.799C121.699 144.999 121.999 145.099 122.299 144.499C122.499 144.199 122.799 144.499 122.999 144.499C123.199 144.499 123.399 144.199 123.599 144.199C123.799 144.199 123.899 144.499 123.999 144.599C123.999 144.599 123.999 144.599 124.199 144.599C125.299 144.099 125.899 145.199 126.799 145.399C127.699 145.599 128.599 146.099 129.299 146.699C129.699 146.999 129.999 147.499 129.599 148.599C129.399 149.099 128.999 149.499 128.699 149.699C128.399 149.799 128.199 149.899 128.099 149.899C127.899 149.899 127.599 149.899 127.399 149.899C126.899 149.899 126.299 150.099 126.099 149.699C126.099 149.599 125.699 149.699 125.799 149.299V149.199C124.999 149.699 124.599 149.099 123.999 148.999C123.499 148.999 122.899 149.499 122.499 149.199C122.199 149.799 121.899 149.699 121.699 149.499C120.699 148.899 119.799 149.499 119.099 149.699C118.299 149.999 117.799 150.499 117.499 150.999C117.499 151.099 117.699 151.399 117.399 151.399C117.099 151.399 117.199 151.699 117.199 151.899C117.199 152.099 117.199 152.299 117.099 152.399C116.299 152.999 116.699 153.899 116.599 154.699C116.599 155.499 116.599 156.299 116.999 156.899C117.199 157.299 117.699 157.399 117.799 157.799C117.799 157.999 118.199 157.799 117.799 158.399C117.799 158.599 118.199 158.399 118.299 158.399C118.499 158.599 118.699 158.799 118.999 158.999C119.299 159.299 119.699 159.599 120.099 159.699C120.299 159.799 120.699 159.699 120.999 159.699C121.299 159.699 121.499 159.899 121.799 159.999C122.099 160.199 122.399 160.499 122.699 160.699C122.999 160.899 123.499 160.699 123.799 160.999C124.399 161.599 125.099 161.399 125.699 161.399C126.299 161.399 126.999 161.399 127.599 160.999C127.899 160.799 128.399 161.199 128.699 160.999C128.799 160.999 129.799 162.099 129.999 162.499V162.699C129.799 163.299 129.699 164.199 129.099 164.399C128.199 164.599 127.399 164.899 126.499 164.999L125.999 164.799Z" fill="black"/>
<path d="M149 115.201L148.1 115.601C147.8 115.701 147.5 115.901 147.2 116.101C147 116.201 146.6 116.101 146.7 116.701C146.7 117.001 146.2 116.601 146 116.701C145.5 117.101 144.9 117.401 144.5 117.801C144 118.201 143.7 118.801 143.3 119.201C142.9 119.601 142.2 119.801 142.1 120.501C142 121.001 141.3 121.001 141.1 121.501C140.9 122.001 140.6 122.401 140.1 122.701C139.8 122.901 139.4 123.101 139.3 123.401C139.3 123.601 139.4 124.001 139.3 124.201C139.2 124.401 138.8 124.501 139.3 124.901C139.3 124.901 139.2 124.901 139.1 124.901C138.6 124.901 138.5 125.201 138.7 125.501C138.9 125.801 138.7 125.901 138.7 126.101C138.5 126.601 138.3 127.001 138.1 127.501C137.9 127.801 137.6 128.101 137.4 128.501C137.2 128.901 137.4 129.401 136.9 129.701C136.5 130.001 136.4 130.401 136.3 130.701C136.3 130.901 135.9 131.101 136.5 131.401V131.501C135.5 131.901 136.5 132.801 136.1 133.401C135.7 134.001 135.7 134.701 135.6 135.401C135.6 135.601 135.3 135.701 135.7 136.001C135.8 136.001 135.8 136.301 135.7 136.401C135 136.701 135.2 137.401 134.9 137.901C134.6 138.501 134.7 139.101 134.1 139.601C133.8 139.801 133.6 140.101 134.1 140.601C134.3 140.801 133.9 141.001 133.9 141.301C133.9 141.501 134.1 141.801 134 142.001C134 142.201 133.7 142.201 133.5 142.301C133.5 142.301 133.5 142.301 133.5 142.401C133.6 143.001 133.4 143.401 133 143.801C132.7 144.201 132.3 144.501 132.1 145.001C131.8 145.901 131.1 146.701 130.4 147.501C130 147.901 129.5 148.201 128.4 147.701C127.9 147.501 127.5 147.101 127.4 146.701C127.4 146.401 127.3 146.101 127.4 146.001C127.5 145.701 127.6 145.501 127.7 145.201C127.9 144.701 127.7 144.001 128.2 143.701C128.4 143.701 128.2 143.301 128.7 143.401H128.8C128.5 142.401 129.2 142.001 129.5 141.301C129.7 140.701 129.4 139.901 129.8 139.401C129.3 138.901 129.6 138.501 129.8 138.301C130.8 137.301 130.7 135.901 131.1 134.701C131.5 133.401 131.8 132.101 132.2 130.801C132.2 130.601 132 130.301 132.3 130.101C132.6 129.901 132.5 129.501 132.6 129.201C132.6 128.901 132.6 128.601 132.9 128.401C133.9 127.601 133.8 126.401 134.3 125.401C134.8 124.401 135.3 123.401 135.8 122.301C136.1 121.701 136.2 120.901 136.7 120.401C136.9 120.201 136.8 119.701 137.5 119.901C137.7 119.901 137.5 119.401 137.5 119.301C137.8 118.901 138.1 118.601 138.4 118.201L139.8 116.801C140.1 116.501 140.2 116.001 140.5 115.701C140.8 115.401 141.1 115.101 141.5 114.901C142 114.601 142.5 114.501 143 114.201C143.5 114.001 143.8 113.401 144.5 113.401C145.6 113.401 146.3 112.701 147.3 112.301C147.8 112.101 148.2 112.001 148.7 111.801C149.2 111.601 149.6 111.501 150.1 111.301C150.6 111.101 151.2 111.401 151.7 111.301C152 111.301 152.6 112.601 152.6 113.101C152.6 113.101 152.6 113.301 152.6 113.401C152.2 114.001 152 114.701 151.5 114.801C150.7 114.901 150 115.201 149.3 115.501L149 115.201Z" fill="black"/>
<path d="M103.799 153.201C102.499 152.301 101.299 151.201 100.199 150.101C99.799 149.701 99.599 149.101 98.799 148.901C98.399 148.901 98.599 148.001 98.199 147.501C97.299 146.201 96.699 144.701 96.399 143.001C96.099 141.301 96.199 139.601 96.599 138.201C96.999 136.701 97.799 135.701 97.999 134.301C98.199 133.201 98.999 132.401 99.399 131.401C99.799 130.301 100.299 129.101 101.199 128.301C101.799 127.701 102.499 127.101 102.999 126.401C103.299 125.901 103.399 125.301 103.899 124.901C104.299 124.501 104.899 124.301 104.799 123.601C104.799 123.601 104.999 123.501 105.199 123.501C105.899 123.501 106.299 123.001 106.399 122.501C106.399 122.001 106.699 121.801 106.999 121.601C107.599 120.901 108.199 120.101 108.799 119.201C109.299 118.601 109.999 118.001 110.499 117.301C111.099 116.601 111.499 115.601 112.299 115.201C113.099 114.701 113.699 114.201 114.199 113.601C114.499 113.301 115.099 113.101 114.999 112.401C114.999 112.401 115.099 112.201 115.199 112.201C116.699 111.901 116.899 110.301 118.099 109.601C119.299 108.901 120.199 107.801 121.399 107.001C121.699 106.801 122.099 106.701 122.199 106.101C122.199 105.901 122.499 105.601 122.799 105.601C124.099 105.601 124.799 104.601 125.999 104.201C127.199 103.801 128.499 103.001 129.899 103.201C130.499 103.201 131.199 103.201 131.899 102.701C132.199 102.401 132.899 102.701 133.299 102.601C133.699 102.601 134.099 102.301 134.499 102.301C134.799 102.301 135.099 102.601 135.499 102.701C135.499 102.701 135.699 102.701 135.799 102.701C137.699 102.201 139.299 103.401 141.099 103.601C142.899 103.801 144.699 104.401 146.299 105.001C147.199 105.401 148.099 105.901 148.399 107.201C148.399 107.801 148.299 108.301 147.799 108.501C147.399 108.601 146.999 108.701 146.699 108.701C146.199 108.701 145.599 108.601 145.099 108.501C143.999 108.401 142.899 108.501 141.899 108.001C141.599 107.801 141.099 108.001 140.999 107.501L140.799 107.401C139.199 107.801 137.799 107.101 136.299 106.901C134.999 106.801 133.899 107.401 132.699 107.101C132.099 107.801 131.399 107.701 130.799 107.701C129.699 107.601 128.599 107.901 127.599 108.501C126.599 109.001 125.599 109.801 124.599 110.401C122.599 111.801 120.599 113.701 118.699 115.401C118.399 115.701 118.299 116.201 117.799 116.401C117.299 116.501 116.999 117.101 116.599 117.501C116.299 117.901 115.999 118.301 115.599 118.601C113.899 119.601 113.099 121.601 111.699 123.401C110.999 124.301 110.199 125.101 109.399 125.901C108.599 126.701 107.799 127.401 107.199 128.101C106.399 129.001 105.999 130.001 105.299 130.901C104.999 131.301 104.999 131.901 104.299 132.001C104.099 132.001 104.299 132.701 104.099 133.001L103.099 135.201C102.599 136.301 102.199 137.401 101.799 138.501C101.599 139.201 101.599 139.901 101.499 140.401L101.199 142.101C101.199 142.701 100.999 143.401 101.199 144.101C101.399 144.901 102.099 145.501 102.299 146.301C102.799 147.901 104.199 148.901 105.399 150.001C106.599 151.001 107.999 151.801 109.499 152.201C110.299 152.401 110.999 153.001 111.899 153.101C112.299 153.101 112.899 154.601 112.699 155.101C112.699 155.101 112.599 155.301 112.499 155.301C111.499 155.801 110.299 156.401 109.099 156.001C107.299 155.501 105.599 154.701 104.099 153.701L103.799 153.201Z" fill="black"/>
<path d="M175.5 123.601C175.8 123.201 176 122.701 176 122.101C176 121.901 176.3 121.601 175.7 121.401C175.4 121.401 176 121.001 176 120.801C175.8 120.201 175.8 119.501 175.4 118.901C175.1 118.301 174.6 117.701 174.2 117.001C173.8 116.301 173.8 115.401 173.2 114.701C172.7 114.101 173 113.401 172.7 112.801C172.4 112.201 172.1 111.601 172.1 110.901C172.1 110.401 172.1 109.901 171.9 109.501C171.7 109.301 171.4 109.101 171.3 108.901C171.3 108.701 171.3 108.301 170.7 108.301C170.7 108.301 170.7 108.201 170.7 108.101C171 107.701 170.7 107.401 170.4 107.301C170.1 107.301 170 107.101 169.9 106.901L169 105.701C168.8 105.401 168.7 105.001 168.4 104.701C168.1 104.401 167.6 104.401 167.4 104.001C167.2 103.601 166.8 103.401 166.5 103.301C166.3 103.301 166.1 102.901 165.8 103.401H165.7C165.3 102.401 164.4 103.401 163.9 103.101C163.3 102.801 162.5 103.001 161.8 103.101C161.6 103.101 161.4 102.901 161.3 103.401C161.3 103.601 161.1 103.601 161 103.501C160.4 102.901 159.9 103.501 159.3 103.501C158.6 103.501 158.1 103.901 157.3 103.601C157 103.501 156.6 103.501 156.4 104.101C156.4 104.401 156 104.201 155.8 104.401C155.6 104.501 155.6 104.801 155.4 104.901C155.3 104.901 155 104.801 154.8 104.801H154.7C154.2 105.701 153 105.301 152.4 106.001C151.8 106.601 151.2 107.101 150.8 107.601C150.5 107.901 150.2 108.101 149 108.001C148.5 108.001 147.9 107.801 147.7 107.401C147.6 107.101 147.4 106.801 147.5 106.601C147.5 106.201 147.7 105.801 147.8 105.501C148.1 104.801 148.3 103.801 149.1 103.401C149.3 103.401 149.4 102.901 149.9 103.201H150.1C150.5 101.901 151.8 101.801 152.6 101.401C153.4 101.001 153.9 100.101 154.9 100.101C155.2 99.4008 155.7 99.3008 156.2 99.4008C158 99.6008 159.5 98.8008 161.3 98.8008C163.1 98.8008 164.9 98.8008 166.7 99.3008C167 99.3008 167.4 99.1008 167.6 99.5008C167.8 99.9008 168.3 99.8008 168.7 100.001C169 100.201 169.5 100.201 169.7 100.501C170.2 101.201 170.8 101.601 171.3 102.101C171.9 102.601 172.5 103.101 172.9 103.701C173.8 104.901 174.3 106.201 175 107.401C175.4 108.101 176 108.801 176.1 109.601C176.1 109.901 176.6 110.201 176.1 110.701C176 110.801 176.5 111.001 176.6 111.201C176.8 111.701 176.9 112.201 177.1 112.601C177.3 113.201 177.5 113.901 177.8 114.501C178 114.901 178.4 115.201 178.6 115.501C178.8 115.901 179 116.301 179.2 116.801C179.4 117.401 179.4 118.101 179.5 118.801C179.6 119.501 180.1 120.201 179.8 121.001C179.6 121.701 179.5 122.401 179.4 123.101C179.3 123.801 179.1 124.501 178.8 125.201C178.1 126.601 176.9 127.601 175.4 128.201C174.5 128.601 173.6 128.201 172.8 128.001C172.6 128.001 172.5 127.501 172.5 127.101C172.5 126.601 172.7 126.201 172.8 126.001C172.8 126.001 172.9 125.801 173 125.801C173.6 125.501 173.8 124.801 174 124.801C174.5 124.801 175 124.401 175.2 124.001L175.5 123.601Z" fill="black"/>
</svg>
