<svg width="300" height="300" viewBox="0 0 300 300" fill="none" xmlns="http://www.w3.org/2000/svg">
<path d="M180.8 137.498C179.9 136.498 178.9 135.398 177.9 134.498C177.5 134.098 177.4 133.598 176.6 133.498C176.2 133.498 176.3 132.698 176 132.398C175.1 131.498 174.2 130.498 173.3 129.598C172.4 128.698 171.4 127.998 170.5 127.098C169.6 126.198 168.9 125.098 167.9 124.398C167 123.798 166.7 122.798 165.9 122.198C165.1 121.498 164.3 120.798 163.7 119.898C163.3 119.198 163 118.498 162.4 118.098C162 117.798 161.5 117.798 161.2 117.398C160.9 117.098 160.7 116.598 160.1 116.898C160.1 116.898 160 116.698 160 116.598C160 115.998 159.4 115.798 159 115.898C158.6 115.898 158.4 115.898 158.1 115.798C157.3 115.498 156.5 115.398 155.6 115.198C154.9 115.098 154.2 114.798 153.5 114.698C152.7 114.598 151.8 114.898 151.1 114.498C150.4 114.198 149.6 114.198 148.9 114.198C148.5 114.198 148 113.898 147.7 114.598C147.7 114.598 147.5 114.598 147.4 114.598C146.2 113.798 145 114.898 143.8 114.798C142.5 114.698 141.3 114.898 140 115.098C139.7 115.098 139.3 115.098 139 115.498C139 115.698 138.6 115.698 138.4 115.598C137.4 115.098 136.5 115.598 135.5 115.598C134.4 115.598 133.4 116.098 132.2 115.898C131.7 115.798 131 115.898 130.6 116.498C130.4 116.798 129.8 116.698 129.5 116.798C129.2 116.898 128.9 117.298 128.6 117.298C128.3 117.298 128 117.298 127.7 117.198C127.7 117.198 127.5 117.198 127.4 117.198C126 118.298 124.3 117.798 122.9 118.498C121.5 119.198 120.2 119.698 119 120.498C118.3 120.898 117.7 121.198 116.5 120.898C115.9 120.698 115.5 120.398 115.5 119.898C115.5 119.498 115.6 119.098 115.8 118.798C116.2 118.298 116.5 117.898 116.9 117.498C117.7 116.698 118.5 115.598 119.8 115.398C120.2 115.398 120.5 114.898 120.9 115.298C120.9 115.298 121.1 115.298 121.2 115.298C122.4 113.998 124.1 113.998 125.5 113.598C126.7 113.198 127.8 112.298 129.1 112.298C129.7 111.498 130.5 111.498 131.3 111.498C133.9 111.698 136.4 110.798 139 110.598C141.6 110.398 144.2 110.098 146.8 110.098C147.2 110.098 147.6 109.698 148.1 109.998C148.6 110.198 149.2 109.998 149.8 109.998C150.3 109.998 150.9 109.898 151.4 109.998C153.4 110.698 155.5 110.398 157.7 110.998C158.8 111.298 159.9 111.698 160.9 112.298C161.9 112.898 162.8 113.598 163.7 114.198C164.7 114.998 165.9 115.698 166.6 116.698C166.9 117.098 167.5 117.298 167.5 118.098C167.5 118.298 168.1 118.398 168.4 118.598C169 119.198 169.5 119.798 170.1 120.398C170.9 121.198 171.6 122.098 172.5 122.898C173 123.398 173.7 123.698 174.2 124.198C174.7 124.698 175.3 125.198 175.7 125.798C176.3 126.498 176.8 127.398 177.4 128.098C178 128.898 178.9 129.398 179.3 130.298C180.1 131.898 181.5 132.998 182.6 134.298C183.7 135.598 184.9 136.898 186.1 137.998C186.8 138.698 187 139.698 187.7 140.298C188 140.598 187.3 142.098 186.8 142.298C186.8 142.298 186.6 142.298 186.5 142.298C185.5 141.898 184.4 141.798 183.7 140.998C182.7 139.798 181.6 138.698 180.5 137.498H180.8Z" fill="black"/>
<path d="M115.099 145.497C115.099 146.297 115.099 146.997 115.099 147.797C115.099 148.097 114.899 148.397 115.399 148.697C115.699 148.797 114.999 149.097 115.099 149.397C115.099 150.097 115.099 150.797 115.199 151.497C115.199 152.197 115.599 152.797 115.699 153.497C115.799 154.197 115.599 154.897 115.899 155.497C116.199 155.997 115.799 156.597 115.899 157.097C116.099 157.697 116.199 158.197 115.999 158.797C115.899 159.197 115.699 159.697 115.899 159.997C115.899 160.197 116.299 160.397 116.399 160.697C116.399 160.997 116.199 161.297 116.799 161.397C116.799 161.397 116.799 161.497 116.699 161.597C116.299 161.897 116.399 162.297 116.699 162.497C116.999 162.697 116.999 162.897 116.999 163.097C117.099 163.697 117.199 164.197 117.199 164.797C117.199 165.197 117.099 165.697 117.099 166.097C117.099 166.597 117.499 166.997 117.199 167.397C116.999 167.897 117.099 168.297 117.199 168.697C117.199 168.897 116.999 169.297 117.699 169.297C117.699 169.297 117.699 169.297 117.699 169.397C116.999 170.197 118.199 170.697 118.099 171.397C118.099 172.097 118.299 172.797 118.499 173.497C118.499 173.697 118.399 173.897 118.899 173.997C119.099 173.997 119.099 174.197 118.999 174.297C118.499 174.897 118.999 175.397 118.999 175.997C118.999 176.597 119.399 177.197 118.999 177.897C118.799 178.197 118.799 178.597 119.399 178.797C119.699 178.797 119.399 179.197 119.599 179.397C119.599 179.597 119.999 179.697 119.999 179.897C119.999 180.097 119.799 180.297 119.799 180.397V180.497C120.599 181.297 119.899 182.297 120.299 183.197C120.699 184.097 120.799 184.997 120.799 185.897C120.799 186.397 120.799 186.997 119.699 187.497C119.199 187.697 118.699 187.897 118.299 187.697C117.999 187.597 117.799 187.497 117.699 187.297C117.499 186.997 117.399 186.797 117.199 186.497C116.899 185.997 116.299 185.497 116.399 184.897C116.399 184.697 116.099 184.497 116.599 184.297V184.197C115.699 183.597 115.999 182.597 115.799 181.897C115.599 181.197 114.899 180.697 114.999 179.897C114.299 179.597 114.299 179.197 114.399 178.797C114.799 177.297 114.099 175.997 113.899 174.697C113.699 173.297 113.399 171.897 113.199 170.497C113.199 170.297 112.799 170.097 112.999 169.797C113.199 169.497 112.999 169.197 112.899 168.897C112.899 168.597 112.699 168.397 112.799 168.097C113.299 166.897 112.799 165.897 112.599 164.697C112.599 163.597 112.399 162.497 112.099 161.397C111.899 160.697 111.499 160.097 111.499 159.397C111.499 159.097 111.199 158.797 111.699 158.497C111.899 158.497 111.399 158.197 111.299 157.997C111.299 157.497 111.199 157.097 111.199 156.597C111.199 155.997 111.199 155.297 110.999 154.697C110.999 154.297 110.699 153.897 110.599 153.497C110.599 153.097 110.499 152.697 110.599 152.297C110.599 151.797 110.799 151.197 110.899 150.697C110.899 150.197 110.699 149.597 110.899 149.097C111.399 148.097 111.099 147.197 111.199 146.197C111.199 145.197 111.199 144.297 111.199 143.297C111.199 142.797 111.599 142.297 111.699 141.697C111.699 141.497 113.199 141.197 113.699 141.297C113.699 141.297 113.899 141.297 113.899 141.397C114.399 141.897 115.099 142.397 114.999 142.997C114.999 143.897 114.999 144.697 114.999 145.597L115.099 145.497Z" fill="black"/>
<path d="M146.699 141.097C146.699 140.897 146.699 140.697 146.699 140.597C146.699 140.597 146.899 140.497 146.399 140.397C146.099 140.397 146.799 140.297 146.699 140.197C146.699 139.997 146.699 139.897 146.699 139.697C146.699 139.497 146.399 139.397 146.399 139.197C146.399 138.997 146.699 138.897 146.399 138.697C146.099 138.497 146.599 138.497 146.499 138.297C146.399 138.197 146.299 137.997 146.499 137.897C146.699 137.897 146.899 137.697 146.799 137.597C146.799 137.597 146.399 137.397 146.499 137.397C146.499 137.397 146.799 137.397 146.199 137.197C146.199 137.197 146.199 137.197 146.399 137.197C146.799 137.197 146.799 137.197 146.499 136.997C146.199 136.997 146.299 136.897 146.299 136.797C146.299 136.697 146.299 136.497 146.299 136.397C146.299 136.397 146.599 136.197 146.699 136.197C146.699 136.197 146.499 135.897 146.799 135.897C147.099 135.897 147.099 135.797 147.099 135.697C147.099 135.697 147.399 135.697 146.799 135.497C147.599 135.497 146.599 135.097 146.799 134.997C146.999 134.897 146.899 134.697 146.999 134.497C146.999 134.497 147.199 134.497 146.799 134.297C146.599 134.197 146.599 134.297 146.799 134.297C147.399 134.297 147.099 134.097 147.199 133.997C147.399 133.897 147.199 133.697 147.599 133.697C147.799 133.697 147.899 133.697 147.399 133.397C147.199 133.297 147.399 133.397 147.399 133.197L147.099 132.997C147.099 132.997 147.299 132.997 147.499 132.997C146.899 132.597 147.899 132.697 147.799 132.397C147.799 132.097 147.799 131.997 147.999 131.797C147.999 131.797 148.299 131.697 149.399 131.997C149.899 132.197 150.399 132.397 150.699 132.597C150.899 132.697 151.099 132.797 151.099 132.897C151.099 132.897 151.299 133.097 151.299 133.197C151.399 133.397 151.899 133.697 151.599 133.697C151.599 133.697 151.799 133.897 151.299 133.697C151.999 134.097 151.399 134.097 151.399 134.297C151.399 134.397 151.999 134.797 151.699 134.797C152.299 135.097 152.099 135.097 151.899 135.097C151.199 135.097 151.499 135.497 151.399 135.797C151.199 135.997 151.299 136.297 151.199 136.597C151.199 136.597 151.499 136.797 151.199 136.797C150.899 136.797 151.199 136.897 151.199 136.997C151.199 136.997 151.299 137.097 151.199 137.197C150.499 137.197 150.899 137.597 150.799 137.797C150.799 137.997 150.599 138.197 150.799 138.397C150.799 138.497 151.199 138.697 151.099 138.797C151.099 138.797 151.399 138.897 150.799 138.897C150.599 138.897 151.099 138.897 151.099 138.997C151.099 138.997 151.099 139.197 151.099 139.297C151.099 139.397 151.099 139.497 151.099 139.697L151.399 139.897V140.097C151.399 140.097 151.099 140.297 150.999 140.397C150.999 140.497 151.199 140.597 150.999 140.697C150.499 140.897 150.699 141.097 150.699 141.297C150.699 141.497 150.699 141.697 150.699 141.797C150.699 141.797 150.299 141.997 150.299 142.097C150.299 142.097 148.799 142.297 148.299 142.397H148.099C147.599 142.397 146.899 142.297 146.899 142.097C146.899 141.897 146.899 141.697 146.899 141.497L146.699 141.097Z" fill="black"/>
<path d="M157.1 141.898C157.1 141.698 157.1 141.498 157.1 141.398C157.1 141.398 157.3 141.298 156.8 141.198C156.5 141.198 157.2 141.098 157.1 140.998C157.1 140.798 157.1 140.698 157.1 140.498C157.1 140.298 156.8 140.198 156.8 139.998C156.8 139.798 157.1 139.698 156.8 139.498C156.5 139.298 157 139.298 156.9 139.098C156.8 138.998 156.7 138.798 156.9 138.698C157.1 138.698 157.3 138.498 157.2 138.398C157.2 138.398 156.8 138.198 156.9 138.198C156.9 138.198 157.2 138.198 156.6 137.998C156.6 137.998 156.6 137.998 156.8 137.998C157.2 137.998 157.2 137.998 156.9 137.798C156.6 137.798 156.7 137.698 156.7 137.598C156.7 137.498 156.7 137.298 156.7 137.198C156.7 137.198 157 136.998 157.1 136.998C157.1 136.998 156.9 136.698 157.2 136.698C157.5 136.698 157.5 136.598 157.5 136.498C157.5 136.498 157.8 136.498 157.2 136.298C158 136.298 157 135.898 157.2 135.798C157.4 135.698 157.3 135.498 157.4 135.298C157.4 135.298 157.6 135.298 157.2 135.098C157 134.998 157 135.098 157.2 135.098C157.8 135.098 157.5 134.898 157.6 134.798C157.8 134.698 157.6 134.498 158 134.498C158.2 134.498 158.3 134.498 157.8 134.198C157.6 134.098 157.8 134.198 157.8 133.998L157.5 133.798C157.5 133.798 157.7 133.798 157.9 133.798C157.3 133.398 158.3 133.498 158.2 133.198C158.2 132.898 158.2 132.798 158.4 132.598C158.4 132.598 158.7 132.498 159.8 132.798C160.3 132.998 160.8 133.198 161.1 133.398C161.3 133.498 161.5 133.598 161.5 133.698C161.5 133.698 161.7 133.898 161.7 133.998C161.8 134.198 162.3 134.498 162 134.498C162 134.498 162.2 134.698 161.7 134.498C162.4 134.898 161.8 134.898 161.8 135.098C161.8 135.198 162.4 135.598 162.1 135.598C162.7 135.898 162.5 135.898 162.3 135.898C161.6 135.898 161.9 136.298 161.8 136.598C161.6 136.798 161.7 137.098 161.6 137.398C161.6 137.398 161.9 137.598 161.6 137.598C161.3 137.598 161.6 137.698 161.6 137.798C161.6 137.798 161.7 137.898 161.6 137.998C160.9 137.998 161.3 138.398 161.2 138.598C161.2 138.798 161 138.998 161.2 139.198C161.2 139.298 161.6 139.498 161.5 139.598C161.5 139.598 161.8 139.698 161.2 139.698C161 139.698 161.5 139.698 161.5 139.798C161.5 139.798 161.5 139.998 161.5 140.098C161.5 140.198 161.5 140.298 161.5 140.498L161.8 140.698V140.898C161.8 140.898 161.5 141.098 161.4 141.198C161.4 141.298 161.6 141.398 161.4 141.498C160.9 141.698 161.1 141.898 161.1 142.098C161.1 142.298 161.1 142.498 161.1 142.598C161.1 142.598 160.7 142.798 160.7 142.898C160.7 142.898 159.2 143.098 158.7 143.198H158.5C158 143.198 157.3 143.098 157.3 142.898C157.3 142.698 157.3 142.498 157.3 142.298L157.1 141.898Z" fill="black"/>
<path d="M116.1 141.599C114.5 142.499 112.9 143.399 111.4 144.199C110.8 144.499 110.1 144.599 109.7 145.399C109.5 145.799 108.6 145.399 108.1 145.799C106.6 146.599 105 147.099 103.5 147.799C102 148.399 100.5 149.199 98.8998 149.699C97.2998 150.199 95.4998 150.299 93.8998 150.699C92.4998 151.099 91.0998 150.699 89.6998 150.699C88.1998 150.699 86.5998 150.499 85.1998 149.799C84.1998 149.299 83.2998 148.599 82.3998 148.199C81.7998 147.899 81.0998 147.799 80.4998 147.299C79.8998 146.899 79.5998 146.099 78.6998 146.099C78.6998 146.099 78.4998 145.799 78.3998 145.599C78.1998 144.799 77.5998 144.099 76.9998 143.599C76.3998 143.199 76.1998 142.699 75.8998 142.099C75.1998 140.599 74.6999 138.799 74.7999 137.099C74.7999 135.799 75.2998 134.599 75.6998 133.399C76.0998 132.199 76.4998 130.899 77.3998 130.099C78.2998 129.299 78.8998 128.499 79.6998 127.699C80.0998 127.299 80.7999 126.999 80.7999 126.199C80.7999 126.199 80.9998 125.999 81.0998 125.999C81.9998 125.799 82.6999 125.299 83.3998 124.699C84.0998 124.099 84.6998 123.599 85.4998 123.299C87.1998 122.799 88.7998 121.999 90.3998 121.499C90.7999 121.399 91.2998 121.399 91.5998 120.799C91.5998 120.599 92.0998 120.499 92.3998 120.499C93.7998 120.799 94.8998 120.099 96.0998 119.799C97.4998 119.499 98.7999 118.799 100.3 118.899C100.9 118.899 101.8 118.899 102.4 118.099C102.7 117.799 103.4 117.799 103.9 117.699C104.3 117.499 104.7 117.199 105.1 117.099C105.5 117.099 105.9 117.099 106.3 117.199C106.4 117.199 106.6 117.199 106.7 117.199C108.8 116.199 111.1 116.899 113.3 116.699C115.6 116.599 117.9 116.999 120.2 117.799C121.4 118.199 122.6 118.999 122.8 120.399C122.8 120.999 122.6 121.499 122 121.599C121.6 121.599 121.1 121.599 120.7 121.599C120.1 121.399 119.5 121.299 118.9 121.299C117.6 121.099 116.4 121.299 115.1 120.999C114.7 120.899 114.2 121.099 113.9 120.599C113.9 120.599 113.7 120.499 113.6 120.599C111.8 121.299 110.1 120.899 108.3 121.199C106.8 121.499 105.5 122.399 103.9 122.499C103.2 123.299 102.2 123.499 101.3 123.499C98.0998 123.699 95.0998 124.999 92.0998 125.799C89.0998 126.599 86.2998 127.799 83.9998 129.499C83.5998 129.799 83.4999 130.299 82.8998 130.499C82.2998 130.699 81.9998 131.299 81.5998 131.799C81.2998 132.199 80.9998 132.799 80.6998 133.099C79.8998 133.799 79.3998 134.799 79.1998 135.799C78.9998 136.799 79.0998 137.799 79.1998 138.799C79.4998 140.799 80.7998 142.699 82.5998 143.899C83.6998 144.699 84.9998 144.999 86.1998 145.599C86.4998 145.699 86.6998 145.699 86.9998 145.799C87.2998 145.799 87.4998 145.999 87.6998 146.299C87.7998 146.499 88.4999 146.199 88.7999 146.199C89.6999 146.199 90.6998 146.399 91.5998 146.299C92.8998 146.299 94.2998 146.099 95.5998 145.799C96.3998 145.599 97.0998 145.199 97.8998 144.899C98.6998 144.599 99.5998 144.299 100.4 144.099C101.5 143.799 102.6 143.599 103.7 143.199C104.8 142.799 105.9 141.999 107 141.799C109.2 141.399 110.9 140.099 112.8 139.099C114.7 138.099 116.5 136.999 118.2 135.699C119.1 134.999 120.2 134.799 120.7 133.999C120.8 133.799 121.3 133.799 121.7 133.799C122.2 133.799 122.7 133.799 122.9 134.099C122.9 134.099 123 134.299 122.9 134.399C122.7 135.799 122.1 137.399 120.9 138.199C119.1 139.399 117.5 140.499 115.7 141.499L116.1 141.599Z" fill="black"/>
<path d="M158.3 106.7C158.2 105.4 158 104.1 157.7 102.8C157.6 102.3 157.7 101.8 157.1 101.4C156.8 101.2 157.3 100.6 157.1 100.2C156.7 99.1003 156.4 97.9003 155.9 96.8003C155.4 95.8003 154.7 94.9003 154 94.0003C153.4 93.1003 152.9 92.0003 151.9 91.4003C151.1 90.9003 150.8 90.0003 150.1 89.6003C149.3 89.1003 148.5 88.7003 147.8 88.1003C147.3 87.7003 146.8 87.2003 146.2 87.1003C145.8 87.1003 145.4 87.2003 145 87.1003C144.6 87.0003 144.2 86.6003 143.8 87.2003C143.8 87.2003 143.6 87.2003 143.5 87.0003C143.1 86.6003 142.5 86.6003 142.2 86.8003C141.8 87.1003 141.5 87.1003 141.2 87.1003L138.3 87.4003C137.5 87.4003 136.8 87.4003 136 87.4003C135.2 87.4003 134.6 88.0003 133.9 87.9003C133.2 87.9003 132.6 88.1003 132 88.4003C131.7 88.6003 131.2 88.5003 131.3 89.2003C131.3 89.2003 131.3 89.3003 131.1 89.3003C130.5 89.3003 130.1 89.6003 129.9 90.1003C129.7 90.5003 129.6 91.0003 129.3 91.3003C128.7 92.0003 128.7 92.9003 128.7 93.7003C128.7 93.9003 128.6 94.2003 129.1 94.4003C129.3 94.4003 129.4 94.7003 129.3 94.8003C128.9 95.7003 129.6 96.4003 129.9 97.1003C130.3 98.0003 131 98.7003 131.3 99.9003C131.3 100.4 131.7 101 132.5 101.1C132.9 101.1 133 101.7 133.2 102C133.4 102.2 133.8 102.3 134 102.5C134.2 102.7 134.2 103 134.3 103.3C134.3 103.3 134.3 103.5 134.5 103.5C136 104.2 136.4 105.8 137.8 106.7C139.1 107.6 140.4 108.7 141.6 109.8C142.3 110.4 142.9 111.1 142.7 112.4C142.6 113 142.2 113.4 141.7 113.4C141.3 113.4 140.9 113.4 140.6 113.2C140.1 113 139.7 112.7 139.2 112.5C138.3 112 137.1 111.8 136.4 110.8C136.2 110.5 135.7 110.5 135.8 109.9C135.8 109.9 135.8 109.7 135.7 109.7C134 109.4 133.2 107.9 132.1 106.8C131.2 105.9 129.8 105.3 129.2 104.1C128.2 103.9 127.8 103.1 127.6 102.4C127.1 101.2 126.4 100 125.8 98.7003C125.2 97.4003 124.6 96.1003 124.4 94.5003C124.2 92.9003 124.4 91.1003 125.2 89.6003C125.9 88.1003 127 86.9003 128.2 85.9003C128.6 85.6003 128.8 85.0003 129.5 84.9003C130.1 84.9003 130.7 84.3003 131.3 84.1003C131.8 83.9003 132.4 83.5003 132.9 83.5003C135.2 83.5003 137.1 82.8003 139.2 82.6003C141.3 82.4003 143.4 82.4003 145.7 82.7003C147 82.9003 148.5 83.0003 149.7 83.8003C150.2 84.1003 150.9 84.1003 151.1 84.9003C151.1 85.1003 151.8 85.1003 152.2 85.2003C153 85.7003 153.7 86.3003 154.3 87.0003C155.2 87.9003 156 88.9003 156.8 89.9003C157.3 90.5003 157.9 91.0003 158.4 91.6003C158.9 92.3003 159.3 93.0003 159.6 93.8003C160 94.8003 160.2 95.8003 160.4 96.7003C160.7 97.7003 161.2 98.7003 161.2 99.7003C161.2 101.6 161.7 103.3 161.8 105C162 106.7 162 108.5 162.3 110.2C162.4 111.2 162 112.1 162 113C162 113.4 160.6 114.1 160.1 113.9C160.1 113.9 159.9 113.9 159.9 113.7C159.4 112.8 158.6 112 158.6 110.9C158.6 109.4 158.4 107.8 158.3 106.3V106.7Z" fill="black"/>
<path d="M193.601 144.4C194.401 145.7 195.001 147.1 195.501 148.7C195.701 149.3 195.501 149.9 196.201 150.4C196.501 150.7 196.001 151.3 196.001 151.9C196.201 153.4 196.001 154.9 195.601 156.4C195.301 157.8 194.801 159.3 193.901 160.6C193.001 161.9 191.701 162.6 190.701 163.7C189.901 164.6 188.701 164.7 187.801 165.2C186.801 165.8 185.701 166.3 184.601 166.4C183.801 166.4 183.001 166.4 182.201 166.8C181.701 167 181.301 167.4 180.801 167.5C180.301 167.5 179.701 167.4 179.301 168.1C179.301 168.1 179.001 168.1 178.901 168C178.301 167.7 177.601 167.7 177.201 168C176.701 168.3 176.301 168.2 175.901 168.2C174.701 168.2 173.501 168 172.301 167.7C171.401 167.4 170.601 167 169.801 166.5C168.901 166.1 167.801 165.8 167.301 165.1C166.701 164.3 166.101 163.8 165.401 163.2C165.001 162.9 164.901 162.3 164.101 162.4C164.101 162.4 163.901 162.3 163.901 162.2C163.801 161.4 163.301 160.9 162.801 160.4C162.501 160.1 162.301 159.9 162.101 159.6C161.901 159.3 161.701 159 161.601 158.6C161.201 157.1 160.701 155.6 160.701 154C160.701 153.6 160.901 153.1 160.501 152.7C160.401 152.5 160.401 152.1 160.501 151.9C161.301 150.8 161.401 149.6 162.001 148.5C162.701 147.4 163.201 146.2 164.401 145.5C164.901 145.2 165.401 144.8 165.401 143.9C165.401 143.5 166.001 143.3 166.301 142.9C166.501 142.6 166.601 142.2 166.801 141.9C167.001 141.7 167.401 141.7 167.701 141.5C167.701 141.5 167.901 141.4 167.901 141.3C168.801 139.6 170.801 139.3 172.201 138.2C173.601 137.1 175.301 136.4 177.001 135.8C177.901 135.5 179.001 135.3 179.901 136.2C180.301 136.6 180.501 137.1 180.201 137.6C180.001 137.9 179.801 138.2 179.501 138.4C179.101 138.7 178.601 139 178.201 139.2C177.301 139.8 176.701 140.6 175.701 140.9C175.401 140.9 175.201 141.4 174.701 141.1H174.501C173.701 142.5 172.301 142.8 171.201 143.8C170.301 144.6 169.901 145.8 168.901 146.5C168.901 147.4 168.401 147.9 167.801 148.2C166.801 148.9 166.201 149.7 165.801 150.7C165.401 151.6 165.301 152.5 165.201 153.5C165.101 155.4 165.901 157.4 167.201 159.1C167.401 159.4 167.901 159.4 168.001 159.9C168.001 160.4 168.601 160.6 169.001 160.9C169.301 161.1 169.801 161.3 170.001 161.6C170.501 162.3 171.301 162.7 172.101 163C172.901 163.3 173.801 163.4 174.701 163.5C176.401 163.8 178.301 163.8 180.101 163.3C181.201 163 182.201 162.4 183.201 162.2C183.701 162.1 184.001 161.6 184.701 162C184.901 162.1 185.101 161.5 185.401 161.4C186.101 161.1 186.801 160.8 187.401 160.4C188.301 159.9 189.101 159.4 189.701 158.7C190.101 158.3 190.301 157.7 190.501 157.3L191.301 155.9C191.601 155.3 192.001 154.6 192.201 153.9C192.401 153.1 192.101 152.3 192.201 151.5C192.501 150 191.801 148.6 191.201 147.2C190.601 145.8 189.601 144.5 188.501 143.5C187.801 142.9 187.601 142 186.901 141.4C186.601 141.1 187.101 139.6 187.501 139.3C187.501 139.3 187.701 139.3 187.801 139.3C188.801 139.6 190.001 139.6 190.801 140.5C191.901 141.8 193.001 143.1 193.901 144.5L193.601 144.4Z" fill="black"/>
<path d="M160.4 182.802C160.4 182.702 160.5 182.602 160.5 182.502C160.3 182.502 160.2 182.402 160 182.302C160 182.302 160 182.302 159.9 182.202C159.9 182.202 159.9 182.202 159.8 182.202C159.8 182.202 159.6 182.202 159.4 182.302C159.1 182.502 159 181.702 158.7 181.602C157.8 181.302 157 180.802 156.2 180.402C155.4 180.002 154.5 179.802 153.6 179.402C152.8 179.002 152.1 178.302 151.2 178.102C150.4 177.902 150.1 177.102 149.4 176.802C148.7 176.402 147.9 176.002 147.5 175.302C147.2 174.802 146.9 174.202 146.4 173.902C146.1 173.702 145.6 173.702 145.4 173.302C145.2 173.002 145.1 172.502 144.4 172.602C144.4 172.602 144.4 172.402 144.4 172.302C144.4 171.702 144.2 171.302 143.7 171.202C143.3 171.102 143.2 170.702 143 170.502C142.8 170.102 142.6 169.702 142.4 169.302L142.2 168.602V168.302C142.1 168.202 142 168.002 142 167.802C141.8 166.702 141.8 165.702 141.9 164.802C141.9 163.902 141.9 162.702 142.2 162.102C142.4 161.802 142.5 161.502 142.6 161.102C142.6 160.902 142.6 160.702 142.7 160.502L142.9 160.102C143.4 160.302 144.1 160.902 144.1 160.102C144.1 160.102 144.3 160.102 144.4 160.202C145.4 161.002 145.9 161.202 146.7 161.302C147 161.302 147.4 161.302 147.8 161.502C148 161.502 148.2 161.502 148.4 161.602C148.6 161.602 148.8 161.802 148.9 161.802C149.7 162.302 150.6 162.402 151.4 162.702C151.6 162.702 151.8 163.002 152.2 162.702C152.3 162.602 152.6 162.702 152.6 162.702C153 163.502 153.8 163.302 154.4 163.602C155.1 163.902 155.9 163.802 156.5 164.402C156.8 164.702 157.2 164.802 157.7 164.402C157.9 164.202 158.2 164.402 158.5 164.402C158.7 164.402 159 164.102 159.2 164.102C159.4 164.102 159.5 164.402 159.7 164.502C159.7 164.502 159.8 164.502 159.9 164.502C161 163.902 162 164.802 163.1 164.502C164.1 164.202 165.2 164.102 166.2 164.002C166.8 164.002 167.4 164.002 168.1 164.802C168.5 165.202 168.7 165.702 168.5 166.102C168.4 166.402 168.2 166.702 168 166.802C167.7 167.002 167.3 167.302 167 167.402C166.3 167.802 165.6 168.502 164.7 168.302C164.4 168.302 164.2 168.602 163.9 168.102C163.9 168.102 163.8 168.102 163.7 168.102C162.7 169.002 161.4 168.502 160.3 168.502C159.4 168.502 158.4 169.102 157.4 168.702C156.8 169.302 156.2 169.002 155.7 168.702C154 167.702 152.1 167.702 150.3 167.002L147.7 166.102L147.2 165.902H147C147 165.902 147.1 166.302 146.9 165.902C146.9 165.802 146.8 165.702 146.7 165.702V165.802C146.7 165.802 146.8 166.102 146.7 166.002C146.3 165.802 146.3 166.102 146.3 166.302C146.3 166.402 146.3 166.502 146.4 166.602V166.802C146.5 166.902 146.6 167.102 146.6 167.202C147 168.302 147.6 169.402 148.6 170.202C149.2 170.702 150 171.002 150.5 171.602C150.7 171.902 151.2 171.802 151.1 172.502C151.1 172.702 151.6 172.502 151.8 172.602C152.3 172.902 152.7 173.202 153.2 173.502C153.8 173.902 154.5 174.402 155.2 174.702C155.6 174.902 156.2 174.902 156.6 175.102C157.1 175.302 157.5 175.502 157.9 175.802C158.4 176.202 158.9 176.602 159.5 177.002C160.1 177.402 160.8 177.402 161.3 177.902C161.3 178.002 161.5 178.102 161.6 178.202C161.6 178.202 161.6 178.202 161.8 178.302L162.1 178.502C162.5 178.702 162.9 178.902 163.3 179.102C164.1 179.502 165 179.802 165.8 180.102C165.8 180.302 165.6 180.602 165.5 180.802C165.1 181.802 164.7 182.702 164.3 183.602L164 184.202L163.8 184.602C163.7 184.902 163.6 185.202 163.5 185.502C163.3 186.202 162.6 186.602 162.4 187.202C162.3 187.502 160.8 187.302 160.3 187.002C160.3 187.002 160.1 186.902 160.1 186.802C159.9 186.002 159.5 185.202 159.8 184.502C160 184.002 160.3 183.502 160.5 183.002L160.7 182.402L160.4 182.802Z" fill="black"/>
<path d="M176.701 150.698C176.701 150.798 176.701 150.898 176.701 150.998C176.701 150.998 176.401 150.998 177.001 151.198C177.301 151.198 176.601 151.198 176.601 151.198C176.601 151.298 176.601 151.398 176.601 151.498C176.601 151.598 176.801 151.698 176.901 151.798C176.901 151.798 176.601 151.898 176.901 152.098C177.201 152.198 176.701 152.198 176.801 152.298C176.901 152.298 177.001 152.498 176.801 152.498C176.601 152.498 176.401 152.498 176.501 152.598C176.501 152.598 176.901 152.698 176.801 152.798C176.801 152.798 176.501 152.798 177.101 152.898C177.101 152.898 177.101 152.898 177.001 152.898C176.601 152.898 176.601 152.898 176.901 152.998C177.201 152.998 177.101 152.998 177.101 153.098V153.298C177.101 153.298 176.801 153.298 176.701 153.398C176.701 153.398 176.901 153.498 176.701 153.598C176.401 153.598 176.401 153.598 176.401 153.698C176.401 153.698 176.101 153.698 176.701 153.798C175.901 153.798 176.901 153.998 176.701 154.098C176.501 154.098 176.701 154.298 176.701 154.398C176.701 154.398 176.501 154.398 177.001 154.398C177.201 154.398 177.201 154.398 177.001 154.398C176.401 154.398 176.701 154.498 176.601 154.598C176.501 154.598 176.801 154.798 176.301 154.798C176.101 154.798 176.001 154.798 176.601 154.898H176.901C176.901 154.898 176.701 154.898 176.601 154.898C177.301 154.998 176.401 155.098 176.601 155.298C176.801 155.398 176.701 155.498 176.601 155.698C176.601 155.698 176.401 155.798 175.201 155.898C174.701 155.898 174.101 155.898 173.801 155.898C173.601 155.898 173.301 155.898 173.301 155.898C173.201 155.898 173.101 155.898 173.001 155.798C172.801 155.798 172.301 155.598 172.601 155.498C172.601 155.498 172.401 155.498 172.901 155.498C172.101 155.398 172.601 155.198 172.601 155.098C172.601 154.998 171.901 154.898 172.201 154.798C171.601 154.798 171.701 154.598 171.901 154.598C172.601 154.398 172.101 154.198 172.201 153.998C172.301 153.798 172.201 153.598 172.201 153.298C172.201 153.298 171.901 153.298 172.201 153.198C172.501 153.198 172.201 153.198 172.201 153.098C172.201 153.098 172.101 152.998 172.201 152.998C172.901 152.898 172.501 152.698 172.601 152.498C172.601 152.298 172.801 152.198 172.601 151.998C172.601 151.898 172.201 151.698 172.301 151.698C172.301 151.698 172.001 151.598 172.601 151.698C172.801 151.698 172.301 151.698 172.301 151.598C172.301 151.598 172.301 151.498 172.301 151.398C172.301 151.398 172.301 151.198 172.301 151.098L172.001 150.898C172.001 150.898 172.001 150.798 172.001 150.698C172.001 150.698 172.301 150.598 172.401 150.498C172.401 150.498 172.201 150.298 172.501 150.298C173.001 150.298 172.801 150.098 172.901 149.898C172.901 149.798 173.101 149.598 172.901 149.498C172.901 149.498 173.401 149.498 173.401 149.398C173.401 149.398 173.801 149.398 174.201 149.498C174.601 149.498 175.101 149.698 175.401 149.798H175.601C176.001 149.998 176.701 150.198 176.701 150.298C176.701 150.298 176.701 150.498 176.701 150.598V150.698Z" fill="black"/>
<path d="M185.4 150.698C185.4 150.798 185.4 150.898 185.4 150.998C185.4 150.998 185.1 150.998 185.7 151.198C186 151.198 185.3 151.198 185.3 151.198C185.3 151.298 185.3 151.398 185.3 151.498C185.3 151.598 185.5 151.698 185.6 151.798C185.6 151.798 185.3 151.898 185.6 152.098C185.9 152.198 185.4 152.198 185.5 152.298C185.6 152.298 185.7 152.498 185.5 152.498C185.3 152.498 185.1 152.498 185.2 152.598C185.2 152.598 185.6 152.698 185.5 152.798C185.5 152.798 185.2 152.798 185.8 152.898C185.8 152.898 185.8 152.898 185.7 152.898C185.3 152.898 185.3 152.898 185.6 152.998C185.9 152.998 185.8 152.998 185.8 153.098V153.298C185.8 153.298 185.5 153.298 185.4 153.398C185.4 153.398 185.6 153.498 185.4 153.598C185.1 153.598 185.1 153.598 185.1 153.698C185.1 153.698 184.8 153.698 185.4 153.798C184.6 153.798 185.6 153.998 185.4 154.098C185.2 154.098 185.4 154.298 185.4 154.398C185.4 154.398 185.2 154.398 185.7 154.398C185.9 154.398 185.9 154.398 185.7 154.398C185.1 154.398 185.4 154.498 185.3 154.598C185.2 154.598 185.5 154.798 185 154.798C184.8 154.798 184.7 154.798 185.3 154.898H185.6C185.6 154.898 185.4 154.898 185.3 154.898C186 154.998 185.1 155.098 185.3 155.298C185.5 155.398 185.4 155.498 185.3 155.698C185.3 155.698 185.1 155.798 183.9 155.898C183.4 155.898 182.8 155.898 182.5 155.898C182.3 155.898 182 155.898 182 155.898C181.9 155.898 181.8 155.898 181.7 155.798C181.5 155.798 181 155.598 181.3 155.498C181.3 155.498 181.1 155.498 181.6 155.498C180.8 155.398 181.3 155.198 181.3 155.098C181.3 154.998 180.6 154.898 180.9 154.798C180.3 154.798 180.4 154.598 180.6 154.598C181.3 154.398 180.8 154.198 180.9 153.998C181 153.798 180.9 153.598 180.9 153.298C180.9 153.298 180.6 153.298 180.9 153.198C181.2 153.198 180.9 153.198 180.9 153.098C180.9 153.098 180.8 152.998 180.9 152.998C181.6 152.898 181.2 152.698 181.3 152.498C181.3 152.298 181.5 152.198 181.3 151.998C181.3 151.898 180.9 151.698 181 151.698C181 151.698 180.7 151.598 181.3 151.698C181.5 151.698 181 151.698 181 151.598C181 151.598 181 151.498 181 151.398C181 151.398 181 151.198 181 151.098L180.7 150.898C180.7 150.898 180.7 150.798 180.7 150.698C180.7 150.698 181 150.598 181.1 150.498C181.1 150.498 180.9 150.298 181.2 150.298C181.7 150.298 181.5 150.098 181.6 149.898C181.6 149.798 181.8 149.598 181.6 149.498C181.6 149.498 182.1 149.498 182.1 149.398C182.1 149.398 182.5 149.398 182.9 149.498C183.3 149.498 183.8 149.698 184.1 149.798H184.3C184.7 149.998 185.4 150.198 185.4 150.298C185.4 150.298 185.4 150.498 185.4 150.598V150.698Z" fill="black"/>
</svg>
