<svg width="300" height="300" viewBox="0 0 300 300" fill="none" xmlns="http://www.w3.org/2000/svg">
<path d="M208.6 159.102C208.3 158.802 208 158.502 207.7 158.202C207.6 158.202 207.7 157.802 207.2 158.102C207 158.202 207.2 157.702 207.2 157.602C206.9 157.402 206.7 157.002 206.3 156.802C206 156.602 205.6 156.502 205.2 156.202C204.9 156.002 204.8 155.502 204.3 155.502C203.9 155.502 204 154.902 203.7 154.802C203.4 154.702 203.1 154.502 203 154.102C203 153.802 203 153.502 202.7 153.402C202.5 153.402 202.2 153.402 202.1 153.402C202.1 153.302 202.1 153.002 201.6 153.402C201.6 153.402 201.6 153.402 201.6 153.202C201.8 152.802 201.6 152.702 201.3 152.802C201 152.902 201 152.802 200.9 152.802C200.6 152.602 200.4 152.402 200.2 152.102C200.1 151.902 200 151.602 199.9 151.302C199.8 151.102 199.4 151.102 199.4 150.702C199.4 150.302 199.3 150.202 199.1 150.002C199.1 150.002 199.1 149.602 198.6 150.002C198.9 149.102 197.9 149.702 197.7 149.302C197.6 148.902 197.2 148.702 196.9 148.402C196.9 148.402 196.9 148.102 196.5 148.402C196.4 148.402 196.3 148.402 196.3 148.402C196.5 147.702 196 147.802 195.9 147.502C195.7 147.202 195.3 147.102 195.4 146.502C195.4 146.202 195.4 146.002 194.8 146.302C194.6 146.402 194.6 146.102 194.5 146.102C194.4 146.102 194.1 146.102 194 146.102C194 146.102 194 145.802 194 145.702C193.2 145.702 193.5 144.802 193 144.602C192.5 144.402 192.2 143.902 191.9 143.502C191.7 143.302 191.7 142.902 192.4 142.002C192.7 141.602 193.1 141.202 193.4 141.102C193.6 141.002 193.9 140.902 194 140.902C194.2 140.902 194.4 140.902 194.6 141.002C195 141.102 195.6 141.002 195.6 141.402C195.6 141.502 195.9 141.402 195.6 141.802V141.902C196.5 141.702 196.4 142.402 196.8 142.602C197.1 142.802 197.8 142.602 197.9 143.102C198.5 142.802 198.6 143.102 198.6 143.302C198.6 144.302 199.5 144.502 200 145.102C200.5 145.702 201.1 146.202 201.7 146.702C201.7 146.702 202.1 146.702 202 146.902C202 147.202 202.2 147.202 202.3 147.302C202.4 147.402 202.6 147.402 202.6 147.602C202.6 148.502 203.3 148.602 203.7 149.102C204.1 149.602 204.5 150.002 205.1 150.302C205.4 150.502 206 150.502 206.1 150.802C206.1 151.002 206.5 150.802 206.2 151.402C206.2 151.602 206.5 151.402 206.6 151.402C206.8 151.502 207 151.702 207.2 151.902C207.5 152.202 207.7 152.402 208 152.602C208.2 152.702 208.5 152.702 208.7 152.802C208.9 152.902 209.1 153.102 209.2 153.302C209.4 153.602 209.4 153.902 209.6 154.202C209.8 154.502 210.2 154.502 210.2 154.902C210.2 155.602 210.8 155.802 211.1 156.302C211.4 156.702 211.8 157.102 212.2 157.402C212.5 157.602 212.2 158.102 212.5 158.302C212.5 158.302 211.6 159.502 211.2 159.802L211 159.902C210.5 160.002 209.8 160.302 209.6 160.102C209.3 159.702 209 159.402 208.6 159.002V159.102Z" fill="black"/>
<path d="M146.901 135.901C146.401 136.101 145.901 136.201 145.501 136.501C145.301 136.501 145.101 136.501 145.101 137.001C145.101 137.301 144.701 136.801 144.601 136.901C144.201 137.201 143.801 137.301 143.501 137.601C143.201 137.901 143.001 138.301 142.701 138.601C142.401 138.901 141.901 139.001 141.901 139.501C141.901 139.901 141.301 139.801 141.201 140.101C141.201 140.401 141.001 140.801 140.601 140.901C140.301 141.001 140.001 141.101 140.001 141.401C140.001 141.601 140.201 141.801 140.101 142.001C140.101 142.101 139.701 142.201 140.201 142.501C140.201 142.501 140.201 142.501 140.001 142.501C139.601 142.501 139.501 142.701 139.701 142.901C139.901 143.101 139.901 143.201 139.801 143.301C139.801 143.601 139.701 144.001 139.501 144.301C139.501 144.601 139.101 144.801 139.001 145.001C138.901 145.301 139.101 145.601 138.801 145.901C138.501 146.101 138.401 146.401 138.401 146.701C138.401 146.901 138.101 147.001 138.701 147.201C137.801 147.601 138.901 148.101 138.701 148.601C138.501 149.101 138.601 149.601 138.701 150.101C138.701 150.201 138.501 150.401 139.001 150.501C139.201 150.501 139.201 150.701 139.001 150.801C138.401 151.201 138.801 151.601 138.701 151.901C138.601 152.301 138.901 152.801 138.401 153.201C138.201 153.401 138.101 153.601 138.701 153.901C139.001 154.001 138.701 154.201 138.701 154.401C138.701 154.501 139.001 154.701 139.001 154.801C139.001 154.901 138.801 155.001 138.701 155.101C138.701 155.101 138.701 155.101 138.701 155.201C139.401 155.801 138.501 156.501 138.701 157.101C138.901 157.701 138.801 158.401 138.701 159.001C138.701 159.401 138.501 159.701 137.301 160.001C136.801 160.101 136.201 160.201 135.901 160.001C135.701 159.901 135.401 159.801 135.401 159.701C135.401 159.501 135.201 159.301 135.101 159.101C134.901 158.701 134.401 158.301 134.601 157.801C134.601 157.701 134.401 157.501 134.901 157.401C134.101 156.801 134.601 156.201 134.601 155.601C134.601 155.101 133.901 154.601 134.201 154.101C133.601 153.801 133.701 153.501 133.901 153.201C134.601 152.201 134.101 151.201 134.201 150.201C134.301 149.201 134.201 148.101 134.401 147.101C134.401 146.901 134.101 146.701 134.401 146.501C134.701 146.301 134.501 146.101 134.501 145.801C134.501 145.601 134.501 145.301 134.601 145.201C135.401 144.501 135.101 143.601 135.401 142.701C135.701 141.901 136.001 141.101 136.201 140.201C136.301 139.701 136.201 139.001 136.601 138.601C136.801 138.401 136.601 138.001 137.201 138.101C137.401 138.101 137.201 137.701 137.201 137.601C137.401 137.201 137.601 137.001 137.901 136.601C138.201 136.201 138.701 135.801 139.001 135.401C139.201 135.101 139.301 134.801 139.501 134.501C139.701 134.201 140.001 134.001 140.301 133.901C140.701 133.701 141.201 133.701 141.601 133.501C142.001 133.301 142.301 132.901 142.801 132.901C143.701 133.001 144.201 132.501 144.901 132.301C145.601 132.101 146.301 131.901 146.901 131.601C147.301 131.401 147.701 131.801 148.101 131.601C148.301 131.601 148.901 132.901 149.001 133.401V133.601C148.801 134.101 148.701 134.901 148.301 135.001C147.701 135.101 147.201 135.301 146.601 135.501L146.901 135.901Z" fill="black"/>
<path d="M141.201 184.099C141.201 184.499 141.201 184.899 141.401 185.199C141.401 185.299 141.201 185.499 141.801 185.599C142.101 185.599 141.501 185.899 141.501 185.999C141.601 186.299 141.601 186.699 141.701 186.999C141.801 187.299 142.101 187.599 142.201 187.999C142.301 188.299 142.101 188.699 142.501 188.999C142.801 189.199 142.401 189.599 142.501 189.799C142.701 190.099 142.801 190.299 142.601 190.699C142.501 190.899 142.301 191.199 142.401 191.399C142.401 191.499 142.801 191.599 142.801 191.699C142.801 191.799 142.601 191.999 143.201 191.999C143.201 191.999 143.201 191.999 143.101 192.099C142.701 192.299 142.801 192.499 143.101 192.499C143.401 192.499 143.401 192.699 143.401 192.799C143.401 193.099 143.601 193.399 143.601 193.699C143.601 193.899 143.401 194.199 143.401 194.399C143.401 194.599 143.701 194.799 143.401 195.099C143.101 195.399 143.201 195.599 143.201 195.799C143.201 195.899 143.001 196.099 143.601 196.099C142.801 196.599 144.001 196.699 143.801 197.099C143.701 197.499 143.801 197.799 144.001 198.199C144.001 198.199 143.901 198.399 144.301 198.399C144.501 198.399 144.501 198.399 144.301 198.599C143.701 198.999 144.201 199.199 144.101 199.499C144.101 199.799 144.401 200.099 144.001 200.499C143.801 200.699 143.701 200.899 144.301 200.899C144.601 200.899 144.301 201.099 144.401 201.199C144.401 201.199 144.701 201.299 144.801 201.399C144.801 201.399 144.601 201.599 144.501 201.699C145.201 201.999 144.501 202.599 144.701 202.999C145.001 203.399 145.001 203.899 145.001 204.399C145.001 204.699 144.901 204.899 143.801 205.299C143.301 205.499 142.801 205.599 142.401 205.499C142.101 205.499 141.901 205.499 141.801 205.299C141.701 205.199 141.501 205.099 141.401 204.899C141.201 204.599 140.601 204.499 140.801 204.099C140.801 203.999 140.601 203.899 141.001 203.799C140.101 203.499 140.601 202.999 140.501 202.599C140.401 202.299 139.701 201.999 139.901 201.599C139.201 201.599 139.301 201.299 139.501 200.999C140.001 200.199 139.501 199.599 139.501 198.899C139.501 198.199 139.301 197.499 139.201 196.799C139.201 196.699 138.801 196.599 139.101 196.499C139.301 196.299 139.101 196.199 139.101 195.999C139.101 195.899 138.901 195.699 139.101 195.599C139.701 194.899 139.101 194.499 139.101 193.899C139.101 193.299 139.101 192.799 138.801 192.299C138.601 191.999 138.201 191.699 138.301 191.399C138.301 191.199 138.001 191.199 138.501 190.899C138.701 190.899 138.201 190.799 138.201 190.699C138.201 190.499 138.201 190.199 138.101 189.999C138.101 189.699 138.101 189.399 137.901 189.099C137.901 188.899 137.601 188.799 137.501 188.599C137.501 188.399 137.401 188.199 137.401 187.999C137.401 187.699 137.601 187.399 137.601 187.199C137.601 186.899 137.301 186.699 137.601 186.399C138.001 185.799 137.601 185.399 137.601 184.899C137.601 184.399 137.601 183.899 137.301 183.499C137.201 183.199 137.601 182.899 137.601 182.699C137.601 182.599 139.001 182.199 139.501 182.199H139.701C140.201 182.399 141.001 182.499 141.001 182.799C141.001 183.199 141.101 183.699 141.201 184.099Z" fill="black"/>
<path d="M190.101 164.9C190.501 164.7 190.801 164.6 191.201 164.3C191.301 164.3 191.601 164.3 191.501 163.8C191.501 163.5 191.901 164 192.001 164C192.301 163.8 192.701 163.7 193.001 163.5C193.301 163.3 193.501 162.9 193.801 162.7C194.101 162.5 194.601 162.7 194.801 162.2C195.001 161.8 195.401 162.2 195.601 161.9C195.801 161.7 196.101 161.5 196.501 161.6C196.801 161.6 197.101 161.8 197.201 161.6C197.201 161.5 197.201 161.1 197.401 161.1C197.501 161.1 197.801 161.3 197.701 160.6C197.701 160.6 197.701 160.6 197.901 160.6C198.201 160.9 198.401 160.8 198.401 160.6C198.401 160.3 198.501 160.3 198.601 160.2C198.901 160.1 199.201 159.9 199.501 159.9C199.701 159.9 200.001 159.9 200.301 159.9C200.501 159.9 200.701 159.5 201.001 159.7C201.301 159.9 201.501 159.8 201.701 159.7C201.801 159.7 202.101 159.9 201.901 159.2C202.501 159.9 202.501 158.7 202.901 158.8C203.301 158.8 203.601 158.6 204.001 158.5C204.001 158.5 204.301 158.6 204.201 158.1C204.201 157.9 204.201 157.9 204.401 158C204.901 158.5 205.001 158 205.301 158C205.601 158 205.901 157.6 206.301 158C206.501 158.2 206.701 158.2 206.701 157.6C206.701 157.3 206.901 157.6 207.001 157.4C207.001 157.4 207.001 157 207.201 157C207.201 157 207.401 157.2 207.501 157.3C207.801 156.5 208.501 157.3 208.901 156.9C209.301 156.6 209.801 156.5 210.301 156.5C210.601 156.5 210.901 156.5 211.401 157.6C211.601 158.1 211.801 158.6 211.701 159C211.701 159.3 211.701 159.5 211.601 159.6C211.501 159.7 211.401 159.9 211.301 160C211.101 160.3 210.901 160.9 210.601 160.7C210.501 160.7 210.501 161 210.201 160.5C210.001 161.4 209.501 161 209.101 161.2C208.801 161.4 208.601 162.1 208.201 161.9C208.201 162.6 208.001 162.5 207.701 162.4C206.801 162 206.301 162.6 205.601 162.8C204.901 162.9 204.301 163.3 203.601 163.5C203.501 163.5 203.601 163.9 203.301 163.7C203.101 163.5 203.001 163.7 202.801 163.8C202.701 163.8 202.601 164 202.401 163.9C201.601 163.5 201.301 164.1 200.701 164.2C200.201 164.3 199.601 164.5 199.201 164.9C198.901 165.1 198.801 165.6 198.401 165.6C198.201 165.6 198.201 166 197.901 165.5C197.801 165.4 197.901 165.8 197.801 165.9C197.601 166 197.401 166.1 197.201 166.2C196.901 166.3 196.601 166.4 196.301 166.6C196.101 166.7 196.101 167 195.901 167.2C195.701 167.3 195.601 167.4 195.301 167.5C195.001 167.5 194.701 167.5 194.401 167.5C194.101 167.5 194.001 167.9 193.601 167.8C192.901 167.6 192.601 168 192.201 168.2C191.701 168.4 191.301 168.5 190.901 168.9C190.701 169.1 190.201 168.8 190.001 168.9C189.901 168.9 189.101 167.7 188.901 167.3V167.1C188.901 166.6 188.801 165.8 189.101 165.7C189.501 165.6 189.901 165.3 190.301 165.1L190.101 164.9Z" fill="black"/>
<path d="M170.701 158.699C170.701 158.499 170.701 158.299 170.701 158.199C170.701 158.199 170.901 158.099 170.401 157.999C170.101 157.999 170.801 157.899 170.701 157.799C170.701 157.599 170.701 157.499 170.701 157.299C170.701 157.099 170.401 156.999 170.401 156.799C170.401 156.599 170.701 156.499 170.401 156.299C170.101 156.099 170.601 156.099 170.501 155.899C170.401 155.799 170.301 155.599 170.501 155.499C170.701 155.499 170.901 155.299 170.801 155.199C170.801 155.199 170.401 154.999 170.501 154.999C170.501 154.999 170.801 154.999 170.201 154.799C170.201 154.799 170.201 154.799 170.401 154.799C170.801 154.799 170.801 154.799 170.501 154.599C170.201 154.599 170.301 154.499 170.301 154.399C170.301 154.299 170.301 154.099 170.301 153.999C170.301 153.999 170.601 153.799 170.701 153.799C170.701 153.799 170.501 153.499 170.801 153.499C171.101 153.499 171.101 153.399 171.101 153.299C171.101 153.299 171.401 153.299 170.801 153.099C171.601 153.099 170.601 152.699 170.801 152.599C171.001 152.499 170.901 152.299 171.001 152.099C171.001 152.099 171.201 152.099 170.801 151.899C170.601 151.799 170.601 151.899 170.801 151.899C171.401 151.899 171.101 151.699 171.201 151.599C171.401 151.499 171.201 151.299 171.601 151.299C171.801 151.299 171.901 151.299 171.401 150.999C171.201 150.899 171.401 150.999 171.401 150.799L171.101 150.599C171.101 150.599 171.301 150.599 171.501 150.599C170.901 150.199 171.901 150.299 171.801 149.999C171.801 149.699 171.801 149.599 172.001 149.399C172.001 149.399 172.301 149.299 173.401 149.599C173.901 149.799 174.401 149.999 174.701 150.199C174.901 150.299 175.101 150.399 175.101 150.499C175.101 150.499 175.301 150.699 175.301 150.799C175.401 150.999 175.901 151.299 175.601 151.299C175.601 151.299 175.801 151.499 175.301 151.299C176.001 151.699 175.401 151.699 175.401 151.899C175.401 151.999 176.001 152.399 175.701 152.399C176.301 152.699 176.101 152.699 175.901 152.699C175.201 152.699 175.501 153.099 175.401 153.399C175.201 153.599 175.301 153.899 175.201 154.199C175.201 154.199 175.501 154.399 175.201 154.399C174.901 154.399 175.201 154.499 175.201 154.599C175.201 154.599 175.301 154.699 175.201 154.799C174.501 154.799 174.901 155.199 174.801 155.399C174.801 155.599 174.601 155.799 174.801 155.999C174.801 156.099 175.201 156.299 175.101 156.399C175.101 156.399 175.401 156.499 174.801 156.499C174.601 156.499 175.101 156.499 175.101 156.599C175.101 156.599 175.101 156.799 175.101 156.899C175.101 156.999 175.101 157.099 175.101 157.299L175.401 157.499V157.699C175.401 157.699 175.101 157.899 175.001 157.999C175.001 158.099 175.201 158.199 175.001 158.299C174.501 158.499 174.701 158.699 174.701 158.899C174.701 159.099 174.701 159.299 174.701 159.399C174.701 159.399 174.301 159.599 174.301 159.699C174.301 159.699 172.801 159.899 172.301 159.999H172.101C171.601 159.999 170.901 159.899 170.901 159.699C170.901 159.499 170.901 159.299 170.901 159.099L170.701 158.699Z" fill="black"/>
<path d="M181.201 159.5C181.201 159.3 181.201 159.1 181.201 159C181.201 159 181.401 158.9 180.901 158.8C180.601 158.8 181.301 158.7 181.201 158.6C181.201 158.4 181.201 158.3 181.201 158.1C181.201 157.9 180.901 157.8 180.901 157.6C180.901 157.4 181.201 157.3 180.901 157.1C180.601 156.9 181.101 156.9 181.001 156.7C180.901 156.6 180.801 156.4 181.001 156.3C181.201 156.3 181.401 156.1 181.301 156C181.301 156 180.901 155.8 181.001 155.8C181.001 155.8 181.301 155.8 180.701 155.6C180.701 155.6 180.701 155.6 180.901 155.6C181.301 155.6 181.301 155.6 181.001 155.4C180.701 155.4 180.801 155.3 180.801 155.2C180.801 155.1 180.801 154.9 180.801 154.8C180.801 154.8 181.101 154.6 181.201 154.6C181.201 154.6 181.001 154.3 181.301 154.3C181.601 154.3 181.601 154.2 181.601 154.1C181.601 154.1 181.901 154.1 181.301 153.9C182.101 153.9 181.101 153.5 181.301 153.4C181.501 153.3 181.401 153.1 181.501 152.9C181.501 152.9 181.701 152.9 181.301 152.7C181.101 152.6 181.101 152.7 181.301 152.7C181.901 152.7 181.601 152.5 181.701 152.4C181.901 152.3 181.701 152.1 182.101 152.1C182.301 152.1 182.401 152.1 181.901 151.8C181.701 151.7 181.901 151.8 181.901 151.6L181.601 151.4C181.601 151.4 181.801 151.4 182.001 151.4C181.401 151 182.401 151.1 182.301 150.8C182.301 150.5 182.301 150.4 182.501 150.2C182.501 150.2 182.801 150.1 183.901 150.4C184.401 150.6 184.901 150.8 185.201 151C185.401 151.1 185.601 151.2 185.601 151.3C185.601 151.3 185.801 151.5 185.801 151.6C185.901 151.8 186.401 152.1 186.101 152.1C186.101 152.1 186.301 152.3 185.801 152.1C186.501 152.5 185.901 152.5 185.901 152.7C185.901 152.8 186.501 153.2 186.201 153.2C186.801 153.5 186.601 153.5 186.401 153.5C185.701 153.5 186.001 153.9 185.901 154.2C185.701 154.4 185.801 154.7 185.701 155C185.701 155 186.001 155.2 185.701 155.2C185.401 155.2 185.701 155.3 185.701 155.4C185.701 155.4 185.801 155.5 185.701 155.6C185.001 155.6 185.401 156 185.301 156.2C185.301 156.4 185.101 156.6 185.301 156.8C185.301 156.9 185.701 157.1 185.601 157.2C185.601 157.2 185.901 157.3 185.301 157.3C185.101 157.3 185.601 157.3 185.601 157.4C185.601 157.4 185.601 157.6 185.601 157.7C185.601 157.8 185.601 157.9 185.601 158.1L185.901 158.3V158.5C185.901 158.5 185.601 158.7 185.501 158.8C185.501 158.9 185.701 159 185.501 159.1C185.001 159.3 185.201 159.5 185.201 159.7C185.201 159.9 185.201 160.1 185.201 160.2C185.201 160.2 184.801 160.4 184.801 160.5C184.801 160.5 183.301 160.7 182.801 160.8H182.601C182.101 160.8 181.401 160.7 181.401 160.5C181.401 160.3 181.401 160.1 181.401 159.9L181.201 159.5Z" fill="black"/>
<path d="M195.6 169.599C196.5 170.599 197.3 171.599 198.1 172.499C198.4 172.899 198.5 173.399 199.3 173.399C199.7 173.399 199.5 174.199 199.8 174.499C200.6 175.399 201.3 176.399 202.1 177.299C202.5 177.799 202.9 178.099 203.3 178.599C203.9 179.299 204.5 179.999 205.2 180.899C206.2 182.099 206.9 183.299 207.8 184.599C207.3 184.799 206.8 184.899 206.4 185.099C205.7 185.399 204.8 185.599 204 185.799C203.1 185.899 202.3 186.099 201.6 186.299C201.4 186.299 201.2 186.399 201 186.499H200.5C200.3 186.699 200 186.799 199.7 186.799C199.2 186.899 198.7 186.899 198.2 186.799C197.5 186.799 196.7 186.599 196 186.799C195.6 186.899 195.2 187.299 194.7 187.299C194.2 187.299 193.7 187.099 193.3 187.699C193.3 187.699 193.1 187.699 193 187.599C192.5 187.199 191.9 187.299 191.5 187.599C191.1 187.899 190.7 187.799 190.4 187.799C189.4 187.799 188.3 187.799 187.3 187.599C186.5 187.499 185.8 187.199 185 186.999C184.2 186.899 183.3 186.999 182.6 186.599C181.9 186.199 181.2 185.999 180.5 185.899C180.1 185.899 179.7 185.399 179.2 185.899C179.2 185.899 179 185.899 178.9 185.899C178 184.799 176.6 185.499 175.5 184.899C174.4 184.299 173.1 183.999 172 183.499C171.7 183.399 171.4 182.999 171 183.299C170.8 183.299 170.5 183.299 170.4 182.999C169.9 181.999 168.8 181.799 168 181.199C167.1 180.499 166.1 179.999 165.5 178.899C165.3 178.399 164.9 177.899 164.1 177.899C163.7 177.899 163.5 177.299 163.2 176.999C162.9 176.799 162.5 176.699 162.3 176.399C162.1 176.199 162.1 175.799 162 175.499C162 175.499 162 175.299 161.8 175.299C161.1 174.799 160.6 173.999 160.4 173.199L160 171.999C159.9 171.599 159.8 171.199 159.6 170.799C158.8 169.299 158.5 167.499 158.4 165.799C158.4 164.899 158.5 163.899 159.6 163.299C160.1 162.999 160.7 162.999 161 163.299C161.3 163.599 161.5 163.799 161.6 164.099C161.7 164.599 161.8 164.999 162 165.399C162.2 165.799 162.4 166.299 162.6 166.699C162.8 167.099 163 167.499 163 167.999C163 168.299 163.3 168.499 163 168.899V169.099C163.6 169.499 163.8 170.099 164.1 170.599C164.2 170.899 164.3 171.199 164.4 171.499C164.5 171.799 164.7 172.099 164.9 172.299C165.2 172.699 165.6 173.099 166 173.399C166.4 173.699 166.8 173.999 167.1 174.499C167.9 174.499 168.3 174.999 168.6 175.499C169.7 177.399 171.8 178.199 173.7 179.199C175.6 180.199 177.7 180.899 179.9 181.499C180.3 181.499 180.7 181.299 181 181.699C181.3 182.099 181.9 181.999 182.4 182.099C182.8 182.099 183.3 182.099 183.7 182.399C185.3 183.399 187.2 183.199 188.9 183.299C190.6 183.499 192.4 183.499 194.2 183.299C195.3 183.099 196.3 182.699 197.3 182.699C197.8 182.699 198.2 182.299 198.7 182.699C198.9 182.799 199.2 182.299 199.5 182.199H199.9C199.9 182.099 200.1 182.099 200.1 182.099C200.2 182.099 200.4 182.099 200.5 182.099C200.5 182.099 200.5 181.999 200.3 181.899C200.2 181.799 199.8 181.699 199.7 181.699C199.7 181.699 199.6 181.699 199.5 181.499L199.3 181.299L199 180.899C198.5 180.199 198.2 179.399 197.7 178.699C197.2 177.999 196.4 177.399 196.1 176.599C195.5 175.099 194.3 173.999 193.3 172.799C192.3 171.599 191.3 170.399 190.2 169.299C189.6 168.699 189.4 167.799 188.8 167.099C188.5 166.799 189.2 165.399 189.7 165.199C189.7 165.199 189.9 165.199 190 165.199C190.9 165.499 192 165.599 192.6 166.299C193.5 167.399 194.6 168.499 195.5 169.599H195.6Z" fill="black"/>
<path d="M184.002 204.599L184.502 203.599C184.502 203.399 184.602 203.299 184.702 203.099C184.702 203.099 185.102 202.599 184.402 203.099C184.002 203.299 185.002 202.599 185.002 202.499V202.399H184.802C184.602 202.499 184.502 202.599 184.302 202.599C184.102 202.599 184.002 202.799 183.802 202.899H183.602C183.302 202.899 183.002 202.999 182.702 202.999C181.502 203.099 180.402 202.799 179.302 202.999C178.302 203.199 177.602 202.499 176.702 202.399C175.702 202.299 174.802 202.099 174.002 201.499C173.402 201.099 172.902 200.599 172.302 200.499C171.902 200.399 171.402 200.499 171.002 200.299C170.602 200.099 170.402 199.599 169.702 199.999C169.702 199.999 169.502 199.799 169.502 199.699C169.302 199.099 168.902 198.799 168.402 198.899C167.902 198.899 167.702 198.699 167.402 198.499C166.602 197.999 165.902 197.399 165.202 196.799C164.702 196.299 164.302 195.699 163.902 195.099C163.402 194.599 162.702 194.199 162.502 193.499C162.302 192.799 161.802 192.399 161.402 191.899C161.202 191.599 161.102 191.099 160.402 191.299C160.402 191.299 160.302 191.299 160.302 191.099C160.302 189.799 158.802 189.599 158.302 188.499C157.902 187.399 157.102 186.399 156.702 185.299C156.602 184.999 156.702 184.599 156.102 184.499C155.902 184.499 155.802 184.099 155.902 183.899C156.102 183.399 156.002 182.899 155.902 182.499C155.802 182.099 155.602 181.599 155.602 181.199C155.602 180.699 155.502 180.199 155.502 179.699C155.502 179.199 155.502 178.699 155.702 178.199C155.902 177.799 156.002 177.199 155.502 176.699C155.202 176.499 155.502 175.999 155.502 175.599C155.502 175.299 155.202 174.999 155.302 174.699C155.302 174.399 155.602 174.199 155.702 173.999V173.799C155.302 172.299 156.402 171.099 156.602 169.699C156.802 168.299 157.202 166.999 157.802 165.699C158.102 164.999 158.502 164.299 159.702 164.199C160.302 164.199 160.802 164.299 161.002 164.699C161.202 164.999 161.302 165.299 161.302 165.599C161.302 165.999 161.302 166.499 161.302 166.899C161.302 167.799 161.502 168.699 161.002 169.499C160.802 169.699 161.002 170.099 160.502 170.199C160.502 170.199 160.402 170.299 160.402 170.399C160.902 171.699 160.102 172.699 160.002 173.899C159.902 174.899 160.402 175.899 160.002 176.799C160.602 177.399 160.502 177.899 160.302 178.399C159.602 180.199 160.302 181.999 160.902 183.599C161.402 185.299 162.502 186.799 163.702 188.299C163.902 188.599 164.402 188.599 164.402 188.999C164.402 189.499 164.902 189.699 165.202 189.999C165.502 190.299 165.802 190.499 166.002 190.899C166.602 192.499 168.002 193.299 169.202 194.299C170.302 195.299 171.602 196.199 173.002 196.799C173.902 197.099 174.802 197.199 175.602 197.599C175.902 197.799 176.402 197.599 176.602 198.299C176.602 198.499 177.102 198.199 177.402 198.299C178.002 198.399 178.602 198.599 179.202 198.699C180.002 198.799 180.902 198.999 181.702 198.899C182.202 198.899 182.702 198.599 183.202 198.499C183.302 198.499 183.502 198.499 183.602 198.499H183.702H183.802L184.202 198.399L185.102 198.199C185.402 198.199 185.702 198.199 186.002 197.999C186.802 197.799 187.602 197.599 188.402 197.299C189.202 197.099 189.902 196.899 190.702 196.599C191.002 196.499 191.402 196.399 191.702 196.199V196.699V196.999V197.399C191.402 197.899 191.302 198.499 191.002 199.099C190.302 200.499 189.902 201.499 189.602 202.599C189.202 203.599 188.802 204.799 188.302 205.799C187.602 207.099 186.902 208.399 186.202 209.699C185.802 210.399 185.002 210.799 184.502 211.399C184.302 211.699 182.802 211.199 182.502 210.799C182.502 210.799 182.402 210.599 182.402 210.499C182.402 209.599 182.202 208.699 182.702 207.999C183.402 206.999 184.002 205.899 184.502 204.899L184.002 204.599Z" fill="black"/>
<path d="M123.999 143.099C122.199 143.799 120.299 144.399 118.499 144.899C117.799 145.099 116.999 144.899 116.399 145.699C116.099 145.999 115.299 145.499 114.599 145.699C112.799 145.999 110.899 145.999 109.099 145.999C107.299 145.999 105.499 145.999 103.799 145.899C101.999 145.699 100.299 145.099 98.5992 144.999C97.0992 144.999 95.9992 144.099 94.5992 143.799C93.1992 143.499 91.6992 142.999 90.4992 142.299C89.5992 141.799 88.6992 141.199 87.7992 140.899C87.1992 140.699 86.4992 140.799 85.8992 140.499C85.2992 140.199 84.7992 139.699 83.9992 139.999C83.9992 139.999 83.8992 139.999 83.7992 139.899C83.7992 139.899 83.6992 139.799 83.4992 139.599C82.4992 138.699 81.2992 138.099 79.9992 137.799C78.6992 137.499 77.8992 136.999 76.8992 136.599L74.6992 135.599C76.3992 134.499 78.0992 133.399 79.7992 132.399C80.6992 131.799 81.6992 131.299 82.4992 130.899L83.0992 130.599L83.4992 130.399C83.6992 130.299 83.9992 130.199 84.1992 129.999C85.1992 129.499 86.0992 128.599 87.0992 128.299C88.1992 127.999 88.9992 127.499 89.8992 126.999C90.3992 126.699 91.0992 126.599 91.1992 125.799C91.1992 125.799 91.3992 125.599 91.4992 125.599C93.2992 125.599 94.1992 123.799 95.9992 123.199C97.7992 122.599 99.5992 121.799 101.599 121.499C102.099 121.499 102.699 121.499 103.199 121.099C103.399 120.899 103.899 120.899 104.199 121.099C105.699 121.699 107.099 121.499 108.499 121.899C110.099 122.299 111.699 122.399 112.999 123.399C113.599 123.799 114.399 124.199 115.299 123.899C115.699 123.799 116.399 124.299 116.899 124.499C117.399 124.599 117.899 124.499 118.299 124.699C118.699 124.899 118.899 125.299 119.299 125.499C119.299 125.499 119.499 125.599 119.699 125.699C122.099 126.099 123.699 128.099 125.699 129.399C127.699 130.699 129.499 132.499 130.899 134.499C131.699 135.599 132.299 136.899 131.699 138.199C131.399 138.799 130.999 138.999 130.399 138.799C129.999 138.599 129.599 138.299 129.299 137.999C128.799 137.499 128.399 136.999 127.899 136.599C126.899 135.699 125.599 135.099 124.799 133.999C124.499 133.699 123.999 133.499 123.999 132.899C123.999 132.899 123.899 132.699 123.799 132.699C121.899 132.199 120.599 130.799 118.799 129.899C117.299 129.199 115.699 129.099 114.199 128.299C113.099 128.599 112.199 128.099 111.399 127.699C108.499 126.099 105.299 125.899 102.499 126.099C99.5992 126.299 96.7992 127.899 93.8992 129.499C93.3992 129.799 93.0992 130.299 92.3992 130.399C91.6992 130.399 91.0992 131.099 90.4992 131.399C89.8992 131.699 89.3992 132.199 88.6992 132.399C87.3992 132.799 86.1992 133.399 85.0992 134.099C84.5992 134.399 84.3992 134.599 83.9992 134.799L83.6992 134.999C83.9992 135.199 84.2992 135.299 84.6992 135.499L85.3992 135.799C85.8992 135.999 86.4992 136.199 86.9992 136.399C88.4992 136.999 90.0992 137.299 91.4992 137.999C92.0992 138.299 92.8992 138.199 93.2992 138.999C93.3992 139.199 94.1992 138.999 94.5992 139.099C95.5992 139.399 96.6992 139.699 97.6992 140.099C99.0992 140.499 100.599 140.899 101.999 141.099C102.899 141.199 103.799 141.099 104.699 141.099C105.599 141.099 106.599 141.199 107.499 141.399C108.699 141.499 109.799 141.799 110.999 141.799C112.199 141.799 113.399 141.399 114.599 141.499C116.799 141.699 118.899 140.799 120.999 140.099C123.099 139.399 125.199 138.599 127.199 137.499C128.299 136.899 129.599 136.799 130.699 136.299C131.199 135.999 132.599 136.999 132.599 137.599C132.599 137.699 132.599 137.799 132.499 137.899C131.599 138.899 130.899 139.999 129.599 140.599C127.599 141.499 125.699 142.399 123.699 143.199L123.999 143.099Z" fill="black"/>
<path d="M140.699 181.599C139.799 181.799 138.799 181.999 137.899 182.199C137.499 182.199 137.199 182.099 136.899 182.699C136.799 182.999 136.299 182.399 135.999 182.499C135.099 182.699 134.199 182.699 133.399 182.799C132.499 182.899 131.699 183.199 130.799 183.199C129.899 183.199 128.999 182.899 128.099 183.099C127.299 183.299 126.699 182.599 125.899 182.499C125.099 182.399 124.199 182.099 123.599 181.499C123.099 180.999 122.799 180.499 122.199 180.199C121.899 179.999 121.399 179.999 121.099 179.699C120.799 179.399 120.799 178.899 119.999 178.999C119.999 178.999 119.999 178.799 119.999 178.699C119.999 178.099 119.799 177.699 119.399 177.499C118.999 177.299 118.899 176.999 118.699 176.599C118.299 175.699 117.999 174.699 118.099 173.599C118.099 172.799 118.499 172.099 118.699 171.399C118.999 170.699 118.999 169.799 119.599 169.399C120.199 168.999 120.499 168.499 120.899 168.099C121.099 167.799 121.599 167.799 121.299 167.099C121.299 167.099 121.299 166.999 121.399 166.999C122.599 166.999 122.599 165.599 123.499 165.199C124.399 164.899 125.099 164.199 125.899 163.799C126.099 163.699 126.399 163.799 126.399 163.199C126.399 162.999 126.599 162.899 126.799 162.899C127.699 163.199 128.199 162.599 128.899 162.399C129.699 162.199 130.399 161.699 131.299 161.999C131.699 162.099 132.099 162.099 132.399 161.499C132.499 161.199 132.999 161.399 133.299 161.299C133.499 161.299 133.699 160.899 133.999 160.899C134.199 160.899 134.399 161.099 134.699 161.199C134.699 161.199 134.799 161.199 134.899 161.199C135.999 160.399 137.299 161.199 138.399 161.099C139.599 160.999 140.799 161.099 141.999 161.399C142.199 161.399 142.299 161.399 142.499 161.599C142.699 161.599 142.999 161.799 143.199 161.999C143.599 162.399 143.799 162.899 143.499 163.599C143.399 163.899 143.199 164.199 142.999 164.399C142.799 164.599 142.699 164.699 142.599 164.699C142.399 164.699 142.199 164.899 141.999 164.899C141.899 164.899 141.799 164.899 141.699 164.899C141.599 164.899 141.399 164.899 141.199 164.899C140.499 164.899 139.799 165.399 139.199 165.099C138.999 164.999 138.699 165.299 138.599 164.799C138.599 164.799 138.499 164.699 138.499 164.799C137.599 165.599 136.699 165.099 135.799 165.199C134.999 165.299 134.399 166.099 133.599 165.899C133.299 166.599 132.799 166.599 132.399 166.499C130.799 166.199 129.499 167.199 128.199 167.799C126.799 168.399 125.599 169.299 124.499 170.199C124.299 170.399 124.499 170.699 124.099 170.699C123.699 170.699 123.699 171.099 123.499 171.299C123.399 171.499 123.299 171.799 123.099 171.899C122.599 172.099 122.399 172.599 122.299 172.999C122.299 173.399 122.299 173.899 122.299 174.299C122.299 175.199 122.899 176.099 123.699 176.699C124.199 177.099 124.899 177.199 125.299 177.599C125.499 177.799 125.899 177.599 125.899 178.199C125.899 178.399 126.299 178.099 126.499 178.099C126.899 178.199 127.299 178.299 127.799 178.399C128.399 178.499 129.099 178.699 129.699 178.599C130.099 178.599 130.499 178.399 130.899 178.299C131.299 178.299 131.799 178.299 132.199 178.299C132.799 178.299 133.399 178.499 133.999 178.499C134.599 178.499 135.199 178.199 135.799 178.399C136.899 178.799 137.999 178.399 138.999 178.199C139.999 177.999 141.099 177.799 141.999 177.299C142.499 176.999 143.199 177.299 143.799 177.099C143.999 176.999 144.999 178.199 145.099 178.699C145.099 178.699 145.099 178.899 145.099 178.999C144.699 179.699 144.399 180.599 143.699 180.799C142.599 181.099 141.599 181.499 140.499 181.699L140.699 181.599Z" fill="black"/>
<path d="M153.4 140.499C153.4 140.899 153.2 141.399 153.2 141.799C153.2 141.999 152.9 142.099 153.4 142.399C153.6 142.499 153 142.599 153 142.699C153 143.099 152.8 143.499 152.8 143.899C152.8 144.299 152.9 144.699 152.9 145.199C152.9 145.599 152.5 145.999 152.8 146.399C153 146.799 152.5 146.999 152.5 147.299C152.5 147.699 152.5 147.999 152.3 148.299C152.1 148.499 151.8 148.699 151.9 148.999C151.9 149.199 152.2 149.399 152.2 149.499C152.2 149.599 151.8 149.799 152.4 149.999C152.4 149.999 152.4 149.999 152.2 149.999C151.8 149.999 151.7 150.299 152 150.499C152.2 150.699 152.2 150.799 152.2 150.899C152.2 151.299 152.1 151.599 152 151.899C151.9 152.199 151.6 152.399 151.5 152.599C151.4 152.899 151.5 153.199 151.2 153.399C150.8 153.599 150.8 153.799 150.7 154.099C150.7 154.199 150.3 154.299 150.9 154.599C150 154.699 150.9 155.499 150.5 155.799C150.1 156.099 150.1 156.599 149.9 157.099C149.9 157.199 149.6 157.299 150 157.599C150.1 157.699 150 157.799 150 157.799C149.3 157.799 149.5 158.299 149.2 158.599C148.9 158.899 148.9 159.399 148.3 159.499C148 159.499 147.8 159.699 148.2 160.199C148.4 160.399 148 160.399 148 160.599C148 160.699 148.1 160.999 148 161.099C148 161.099 147.7 161.099 147.5 161.099C147.5 161.999 146.5 161.899 146.2 162.399C145.9 162.999 145.2 163.499 144.1 163.799C143.6 163.899 142.9 163.799 142.6 162.699C142.5 162.199 142.5 161.599 142.6 161.299C142.6 161.099 142.6 160.799 142.8 160.799C142.8 160.699 142.9 160.499 143 160.399C143 160.199 142.9 159.599 143.2 159.699C143.3 159.699 143.2 159.399 143.6 159.699C143.4 158.799 144 158.899 144.2 158.599C144.4 158.299 144.1 157.599 144.5 157.499C144.1 156.999 144.3 156.899 144.5 156.799C145.4 156.599 145.4 155.699 145.8 155.099C146.2 154.499 146.4 153.699 146.7 153.099C146.7 152.999 146.4 152.799 146.7 152.699C147 152.699 146.9 152.399 146.9 152.199C146.9 152.099 146.9 151.899 147 151.799C147.8 151.399 147.6 150.699 147.8 150.099C148 149.499 148.2 148.899 148.2 148.299C148.2 147.899 147.9 147.499 148.2 147.099C148.2 146.899 148 146.699 148.6 146.699C148.8 146.699 148.4 146.399 148.4 146.299C148.4 145.999 148.4 145.799 148.5 145.499C148.5 145.099 148.7 144.799 148.7 144.399C148.7 144.199 148.5 143.899 148.5 143.699C148.5 143.499 148.5 143.199 148.6 142.999C148.7 142.699 149 142.499 149.1 142.199C149.2 141.899 149.1 141.499 149.3 141.299C149.9 140.899 149.8 140.299 149.9 139.699C150.1 139.199 150.2 138.599 150.2 138.099C150.2 137.799 150.7 137.599 150.8 137.299C150.8 137.199 152.3 137.299 152.8 137.399C152.8 137.399 153 137.399 153 137.499C153.4 137.899 154.1 138.299 153.9 138.599C153.7 139.099 153.7 139.599 153.6 140.099L153.4 140.499Z" fill="black"/>
<path d="M199.5 141.299C198.6 141.599 197.8 141.799 196.9 142.099C196.6 142.199 196.2 142.099 196 142.599C195.9 142.899 195.4 142.399 195.1 142.499C194.3 142.799 193.4 142.799 192.6 142.999C191.8 143.199 191 143.499 190.1 143.699C189.3 143.799 188.4 143.599 187.6 143.899C186.9 144.199 186.3 143.699 185.6 143.799C184.9 143.899 184.2 143.999 183.5 143.699C183 143.499 182.6 143.299 182.1 143.299C181.8 143.299 181.5 143.599 181.2 143.599C180.9 143.599 180.6 143.299 180.3 143.899C180.3 143.899 180.1 143.899 180.1 143.699C179.8 143.299 179.4 143.299 179.1 143.499C178.8 143.799 178.6 143.699 178.3 143.699C177.6 143.699 177 143.699 176.3 143.599C175.8 143.599 175.3 143.299 174.8 143.199C174.3 143.199 173.7 143.399 173.3 143.099C172.8 142.799 172.4 142.799 171.9 142.799C171.6 142.799 171.3 142.499 171.1 143.099C171.1 143.099 171 143.099 170.9 143.099C170.1 142.299 169.3 143.299 168.6 143.099C167.8 142.899 166.9 142.999 166.1 142.999C165.9 142.999 165.6 142.799 165.4 143.199C165.4 143.399 165.1 143.399 165 143.199C164.4 142.499 163.7 142.899 163.1 142.699C162.4 142.499 161.6 142.699 160.9 142.099C160.6 141.899 160.2 141.699 159.7 142.099C159.5 142.299 159.2 142.099 158.9 142.099C158.7 142.099 158.4 142.299 158.2 142.299C158 142.299 157.9 141.999 157.7 141.799C157.7 141.799 157.6 141.799 157.5 141.799C156.3 142.199 155.4 141.099 154.3 140.899C153.7 140.899 153.2 140.699 152.7 140.499C152.4 140.399 152.2 140.299 151.9 140.199C151.6 140.099 151.4 139.999 151.1 139.799C150.8 139.599 150.3 139.299 150.1 138.799C149.9 138.299 149.9 137.799 150.2 137.199C150.5 136.699 151 136.499 151.4 136.399C151.6 136.399 151.9 136.399 152 136.399C152.2 136.399 152.4 136.399 152.7 136.399C153.3 136.399 154.1 136.199 154.6 136.699C154.8 136.899 155.1 136.699 155.1 137.199C155.1 137.199 155.1 137.299 155.2 137.299C156.3 136.799 157 137.599 157.9 137.699C158.7 137.799 159.5 137.299 160.2 137.699C160.7 137.099 161.2 137.299 161.6 137.599C163 138.499 164.6 138.199 166.1 138.299C167.7 138.499 169.3 138.399 170.9 138.499C171.2 138.499 171.4 138.199 171.7 138.499C172 138.799 172.4 138.499 172.7 138.499C173 138.499 173.4 138.399 173.7 138.499C174.9 139.199 176.3 138.899 177.6 138.999C178.9 139.199 180.1 139.299 181.4 139.199C182.2 139.199 182.9 138.899 183.7 138.999C184 138.999 184.4 138.799 184.7 139.399C184.7 139.599 185.1 139.099 185.3 139.099C185.8 139.099 186.3 139.099 186.8 139.099C187.5 139.099 188.2 139.099 188.9 139.099C189.3 139.099 189.7 138.799 190.1 138.699C190.5 138.599 191 138.499 191.4 138.499C192 138.499 192.5 138.599 193.1 138.499C193.7 138.499 194.2 138.099 194.8 138.199C195.9 138.499 196.9 137.899 197.9 137.699C198.9 137.499 200 137.199 200.9 136.699C201.5 136.399 202.1 136.699 202.7 136.599C203 136.599 203.8 137.799 203.8 138.299C203.8 138.299 203.8 138.499 203.8 138.599C203.4 139.199 203.1 140.099 202.4 140.299C201.4 140.499 200.5 140.899 199.5 141.199V141.299Z" fill="black"/>
<path d="M201 131.899C200.4 131.099 199.8 130.299 199.1 129.699C198.8 129.499 198.7 128.999 198.1 129.199C197.8 129.199 197.9 128.599 197.7 128.399C197.3 128.099 197 127.899 196.6 127.599C196.2 127.299 195.9 127.099 195.5 126.899C195.1 126.699 194.7 126.599 194.3 126.399C193.9 126.299 193.5 126.099 193 125.999C192.6 125.899 192.2 125.599 191.8 125.499C191.4 125.299 191 125.199 190.5 125.199C189.7 125.199 189.2 124.599 188.5 124.599C187.7 124.599 187 124.599 186.3 124.199C185.8 123.899 185.3 123.699 184.7 123.699C184.4 123.699 184 123.999 183.7 123.999C183.4 123.999 183 123.699 182.7 124.299C182.7 124.299 182.5 124.299 182.5 124.199C182.1 123.799 181.7 123.799 181.4 124.099C181.1 124.399 180.8 124.399 180.6 124.399C179.8 124.399 179.1 124.499 178.3 124.499C177.7 124.499 177.1 124.299 176.5 124.299C175.9 124.299 175.3 124.699 174.7 124.499C174.1 124.299 173.6 124.499 173 124.499C172.7 124.499 172.3 124.399 172.2 124.999C172.2 124.999 172.1 124.999 172 124.999C170.9 124.399 170.3 125.699 169.4 125.699C168.4 125.699 167.6 126.199 166.7 126.499C166.5 126.499 166.1 126.499 166.1 126.999C166.1 127.199 165.8 127.299 165.7 127.199C164.8 126.899 164.3 127.499 163.6 127.699C162.8 127.899 162.2 128.499 161.2 128.499C160.8 128.499 160.3 128.499 160.2 129.299C160.2 129.599 159.7 129.599 159.4 129.799C159.2 129.999 159.1 130.299 158.9 130.399C158.7 130.499 158.4 130.399 158.2 130.399C158.2 130.399 158.1 130.399 158 130.499C157.3 131.699 155.9 131.599 155 132.399C154.6 132.799 154.1 133.199 153.6 133.599C153.1 133.999 152.6 134.299 152.1 134.699C151.6 135.099 150.9 135.399 149.8 134.799C149.3 134.599 148.9 134.099 148.9 133.699C148.9 133.399 148.9 132.999 149.1 132.799C149.3 132.499 149.6 132.099 149.8 131.799C150.3 131.099 150.6 130.199 151.5 129.899C151.8 129.899 151.9 129.399 152.3 129.699H152.5C153 128.399 154.3 128.099 155.3 127.499C156.1 126.899 156.7 125.899 157.7 125.699C157.9 124.899 158.6 124.699 159.1 124.599C161.2 124.299 162.8 123.099 164.8 122.499C166.7 121.899 168.7 121.199 170.6 120.799C170.9 120.799 171.2 120.299 171.6 120.499C172 120.699 172.5 120.399 172.9 120.299C173.3 120.299 173.7 119.999 174.1 120.099C175.8 120.499 177.3 119.899 178.9 119.899C180.5 119.899 182.1 119.899 183.7 119.899C184.7 119.899 185.7 119.599 186.7 119.899C187.1 119.999 187.6 119.699 187.9 120.399C187.9 120.599 188.5 120.199 188.7 120.199C189.4 120.199 190 120.499 190.7 120.599C191.6 120.899 192.5 121.199 193.4 121.399C194 121.499 194.6 121.599 195.2 121.699C195.8 121.899 196.4 122.199 196.9 122.499C197.6 122.999 198.1 123.499 198.8 123.999C199.1 124.299 199.5 124.499 199.8 124.699C200.1 124.899 200.5 125.199 200.7 125.599C201.5 126.899 202.6 127.799 203.5 128.899C204.3 129.999 205 131.199 205.9 132.199C206.4 132.799 206.4 133.599 206.8 134.199C207 134.499 206 135.699 205.5 135.899C205.5 135.899 205.3 135.899 205.2 135.899C204.4 135.599 203.4 135.499 203 134.799C202.4 133.799 201.7 132.799 201 131.899Z" fill="black"/>
<path d="M195.601 112.5C196.301 112.2 197.001 111.9 197.601 111.5C198.301 111.1 198.901 110.8 199.501 110.4C200.001 110.1 200.601 110 200.801 109.3C200.801 108.9 201.701 109.1 202.101 108.8C202.701 108.4 203.201 108 203.801 107.6C204.301 107.2 204.901 106.8 205.401 106.3C205.901 105.8 206.401 105.4 206.801 104.8C207.201 104.3 207.701 103.8 208.101 103.3C209.001 102.3 210.101 101.5 210.701 100.3C211.201 99.3 212.201 98.8 212.701 97.9C213.201 96.9 213.801 95.9 214.601 95.1C215.101 94.5 215.801 93.9 216.001 93.2C216.001 93 215.701 92.9 215.801 92.8C215.801 92.8 216.301 92.5 215.401 92.8C215.401 92.8 215.401 92.8 215.601 92.7C216.201 92.3 216.301 92.1 215.801 92.4C215.301 92.8 215.401 92.7 215.301 92.7H215.001H214.301C213.901 92.7 213.401 92.7 213.001 92.7C212.101 92.8 211.201 93.3 210.301 93.1C209.401 93 208.601 93.1 207.801 93.3C207.301 93.3 206.701 93.3 206.501 93.9C206.501 93.9 206.301 93.9 206.201 93.9C204.701 93.3 203.601 94.6 202.201 94.7C200.801 94.7 199.601 95.3 198.501 95.8C198.201 95.9 197.801 95.9 197.801 96.5C197.801 96.7 197.501 96.9 197.301 96.8C196.201 96.8 195.601 97.7 194.901 98.3C194.001 99 193.401 100.1 192.201 100.6C191.701 100.8 191.101 101.3 191.201 102.1C191.201 102.5 190.601 102.7 190.401 103.1C190.201 103.4 190.301 103.8 190.101 104.1C190.001 104.3 189.601 104.4 189.401 104.6C189.401 104.6 189.301 104.7 189.301 104.8C189.301 105.6 189.001 106.1 188.701 106.8C188.401 107.4 188.201 108.2 188.201 109C188.301 110.6 188.501 112.4 188.501 114.4C188.501 115.5 188.301 116.7 187.101 117.3C186.601 117.6 186.001 117.5 185.701 117.1C185.501 116.8 185.301 116.4 185.201 116.1C185.201 115.5 185.001 115 184.801 114.5C184.501 113.4 183.901 112.2 184.101 110.9C184.101 110.5 183.901 110 184.401 109.7C184.401 109.7 184.501 109.5 184.401 109.4C183.601 107.6 184.401 105.6 185.101 103.8C185.701 102.3 186.201 100.6 187.401 99.6C187.401 98.5 188.201 97.9 188.901 97.5C190.101 96.7 191.201 95.7 192.301 94.7C193.401 93.7 194.701 92.6 196.201 92C197.701 91.3 199.301 90.9 200.701 90.6C202.201 90.3 203.601 90 205.001 89.8C205.501 89.8 205.801 89.3 206.401 89.5C207.001 89.7 207.601 89.3 208.201 89.2C208.801 89.1 209.301 88.9 209.901 88.9C211.001 89 212.201 88.9 213.301 88.7L215.201 88.3C216.101 88.1 217.101 87.9 218.001 87.8L220.701 87.4L222.001 87.2H222.701C222.701 87.1 223.001 87 223.001 87V87.2C222.301 88.9 221.601 90.5 220.901 92.2L220.301 93.8L220.001 94.6L219.801 95V95.3C219.501 96 219.101 96.6 218.701 97.2C218.301 97.7 218.301 98.4 217.501 98.6C217.301 98.6 217.301 99.4 217.101 99.7C216.601 100.6 216.001 101.3 215.401 102.1C215.001 102.7 214.501 103.1 214.101 103.7C213.701 104.2 213.201 104.7 212.801 105.2C212.301 105.8 211.901 106.6 211.301 107.2C210.701 107.8 210.101 108.5 209.401 109C208.501 109.7 207.601 110.2 206.601 110.8C205.701 111.5 204.901 112.3 203.801 112.7C202.801 113.1 201.901 113.5 201.101 114C200.201 114.5 199.401 115 198.501 115.4C196.701 116.2 194.901 117 193.001 117.7C192.501 117.9 191.901 118 191.401 118C190.901 118 190.301 118 189.801 118.2C189.301 118.3 188.301 117.1 188.401 116.5C188.401 116.4 188.401 116.3 188.501 116.2C189.401 115.5 190.101 114.6 191.101 114.2C191.901 114 192.701 113.7 193.501 113.4C194.301 113.1 195.101 112.8 195.801 112.4L195.601 112.5Z" fill="black"/>
</svg>
