<svg width="300" height="300" viewBox="0 0 300 300" fill="none" xmlns="http://www.w3.org/2000/svg">
<path d="M181.2 159.402C179.5 157.602 177.8 155.702 176.1 153.902C175.4 153.202 175 152.402 173.9 152.002C173.4 151.802 173.2 150.702 172.6 150.102C171 148.402 169.4 146.702 167.8 145.002C166.2 143.402 164.6 142.202 163 141.702C161.4 141.102 159.3 140.602 157.1 140.902C155.3 141.102 153.6 140.602 151.9 140.802C150 141.002 148.1 141.202 146.3 141.102C145 141.102 143.6 141.002 142.3 141.302C141.5 141.502 140.8 141.902 139.9 142.002C139.1 142.102 138.1 142.002 137.5 142.802C137.5 142.802 137.1 142.802 136.9 142.802C135.9 142.602 134.9 142.802 134.2 143.302C133.6 143.702 132.9 143.902 132.3 144.002C130.5 144.502 128.7 145.002 127.1 145.602C125.9 146.002 124.7 146.402 123.7 147.002C122.6 147.702 122.1 148.802 121.3 149.602C120.5 150.402 120.1 151.502 119.8 152.702C119.6 153.402 119.2 154.102 119.8 154.802C119.8 154.802 119.8 155.102 119.8 155.202C118.7 157.202 119.8 159.402 119.6 161.502C119.4 163.802 119.6 166.102 119.6 168.402C119.6 169.002 119.5 169.702 120 170.202C120.2 170.402 120.2 171.002 120.1 171.302C119.6 173.002 120.1 174.802 120.1 176.602C120.1 178.602 120.7 180.602 120.4 182.602C120.3 183.502 120.4 184.602 121 185.602C121.3 186.002 121.2 187.002 121.4 187.802C121.5 188.402 121.9 188.902 122 189.502C122 190.002 122 190.502 121.9 191.102C121.9 191.302 121.9 191.402 121.9 191.602C123 194.402 122.6 197.402 123.3 200.302C124 203.202 124.5 206.202 124.9 209.102C125.2 210.702 125.3 212.402 124.4 213.802C124 214.402 123.4 214.502 123 213.802C122.7 213.302 122.3 212.802 122.2 212.202C121.9 211.302 121.6 210.402 121.4 209.502C120.9 207.702 120 205.902 119.9 203.902C119.9 203.302 119.5 202.602 119.9 202.002C119.9 202.002 119.9 201.702 119.9 201.502C118.7 199.002 118.7 196.202 118.2 193.602C117.8 191.302 116.8 189.202 116.8 186.902C116 185.702 115.9 184.202 116 182.902C116.1 178.302 115.3 173.802 115.2 169.202C115.2 166.902 115.1 164.502 115.1 162.202C115.1 159.902 115.1 157.502 115.4 155.102C115.4 154.302 115.2 153.502 115.7 152.502C116.1 151.602 116.3 150.402 116.7 149.302C117.1 148.302 117.5 147.202 118.2 146.502C121.2 143.302 124.9 141.402 128.4 140.302C131.9 139.302 135.5 138.502 139.1 137.802C141.3 137.302 143.4 136.702 145.7 136.602C146.7 136.602 147.6 136.102 148.6 136.602C148.9 136.802 149.7 136.302 150.4 136.202C151.9 136.102 153.5 136.102 155 136.102C157.1 136.102 159.2 136.102 161.6 136.502C163 136.702 164.5 136.802 166 137.502C167.5 138.202 168.8 139.302 169.8 140.302C171.1 141.702 172 143.002 173.1 144.302C174.2 145.602 175.7 146.802 176.6 148.202C178.3 150.802 180.7 152.902 182.7 155.202C184.8 157.502 186.8 159.802 189 162.002C190.2 163.202 191 164.702 192.1 166.002C192.6 166.602 192.3 168.402 191.7 168.502C191.6 168.502 191.4 168.502 191.3 168.502C189.8 167.602 188.2 167.002 187 165.502C185.1 163.402 183.1 161.302 181.2 159.302V159.402Z" fill="black"/>
<path d="M170.599 173.703C170.999 173.503 171.299 173.403 171.699 173.103C171.799 173.103 172.099 173.103 171.999 172.603C171.999 172.303 172.399 172.803 172.499 172.703C172.799 172.503 173.199 172.403 173.499 172.203C173.799 172.003 173.999 171.603 174.299 171.403C174.599 171.203 175.099 171.403 175.299 170.903C175.499 170.503 175.899 170.903 176.099 170.603C176.299 170.403 176.599 170.203 176.999 170.303C177.299 170.303 177.599 170.503 177.699 170.303C177.699 170.203 177.699 169.803 177.899 169.803C177.999 169.803 178.299 170.003 178.199 169.303C178.199 169.303 178.199 169.303 178.399 169.303C178.699 169.603 178.899 169.503 178.899 169.303C178.899 169.003 178.999 169.003 179.099 168.903C179.399 168.803 179.699 168.603 179.999 168.603C180.199 168.603 180.499 168.603 180.799 168.603C180.999 168.603 181.199 168.203 181.499 168.403C181.799 168.603 181.999 168.503 182.199 168.403C182.299 168.403 182.599 168.603 182.399 167.903C182.999 168.603 182.999 167.403 183.399 167.503C183.799 167.503 184.099 167.303 184.499 167.203C184.499 167.203 184.799 167.303 184.699 166.803C184.699 166.603 184.699 166.603 184.899 166.703C185.399 167.203 185.499 166.703 185.799 166.703C186.099 166.703 186.399 166.303 186.799 166.703C186.999 166.903 187.199 166.903 187.199 166.303C187.199 166.003 187.399 166.303 187.499 166.103C187.499 166.103 187.499 165.703 187.699 165.703C187.699 165.703 187.899 165.903 187.999 166.003C188.299 165.203 188.999 166.003 189.399 165.603C189.799 165.303 190.299 165.203 190.799 165.203C191.099 165.203 191.399 165.203 191.899 166.303C192.099 166.803 192.299 167.303 192.199 167.703C192.199 168.003 192.199 168.203 192.099 168.303C191.999 168.403 191.899 168.603 191.799 168.703C191.599 169.003 191.399 169.603 191.099 169.403C190.999 169.403 190.999 169.703 190.699 169.203C190.499 170.103 189.999 169.703 189.599 169.903C189.299 170.103 189.099 170.803 188.699 170.603C188.699 171.303 188.499 171.203 188.199 171.103C187.299 170.703 186.799 171.303 186.099 171.503C185.399 171.603 184.799 172.003 184.099 172.203C183.999 172.203 184.099 172.603 183.799 172.403C183.599 172.203 183.499 172.403 183.299 172.503C183.199 172.503 183.099 172.703 182.899 172.603C182.099 172.203 181.799 172.803 181.199 172.903C180.699 173.003 180.099 173.203 179.699 173.603C179.399 173.803 179.299 174.303 178.899 174.303C178.699 174.303 178.699 174.703 178.399 174.203C178.299 174.103 178.399 174.503 178.299 174.603C178.099 174.703 177.899 174.803 177.699 174.903C177.399 175.003 177.099 175.103 176.799 175.303C176.599 175.403 176.599 175.703 176.399 175.903C176.199 176.003 176.099 176.103 175.799 176.203C175.499 176.203 175.199 176.203 174.899 176.203C174.599 176.203 174.499 176.603 174.099 176.503C173.399 176.303 173.099 176.703 172.699 176.903C172.199 177.103 171.799 177.203 171.399 177.603C171.199 177.803 170.699 177.503 170.499 177.603C170.399 177.603 169.599 176.403 169.399 176.003V175.803C169.399 175.303 169.299 174.503 169.599 174.403C169.999 174.303 170.399 174.003 170.799 173.803L170.599 173.703Z" fill="black"/>
<path d="M151.299 167.504C151.299 167.304 151.299 167.104 151.299 167.004C151.299 167.004 151.499 166.904 150.999 166.804C150.699 166.804 151.399 166.704 151.299 166.604C151.299 166.404 151.299 166.304 151.299 166.104C151.299 165.904 150.999 165.804 150.999 165.604C150.999 165.404 151.299 165.304 150.999 165.104C150.699 164.904 151.199 164.904 151.099 164.704C150.999 164.604 150.899 164.404 151.099 164.304C151.299 164.304 151.499 164.104 151.399 164.004C151.399 164.004 150.999 163.804 151.099 163.804C151.099 163.804 151.399 163.804 150.799 163.604C150.799 163.604 150.799 163.604 150.999 163.604C151.399 163.604 151.399 163.603 151.099 163.403C150.799 163.403 150.899 163.304 150.899 163.204C150.899 163.104 150.899 162.904 150.899 162.804C150.899 162.804 151.199 162.604 151.299 162.604C151.299 162.604 151.099 162.304 151.399 162.304C151.699 162.304 151.699 162.204 151.699 162.104C151.699 162.104 151.999 162.103 151.399 161.903C152.199 161.903 151.199 161.503 151.399 161.403C151.599 161.303 151.499 161.103 151.599 160.903C151.599 160.903 151.799 160.904 151.399 160.704C151.199 160.604 151.199 160.704 151.399 160.704C151.999 160.704 151.699 160.503 151.799 160.403C151.999 160.303 151.799 160.104 152.199 160.104C152.399 160.104 152.499 160.104 151.999 159.804C151.799 159.704 151.999 159.804 151.999 159.604L151.699 159.403C151.699 159.403 151.899 159.403 152.099 159.403C151.499 159.003 152.499 159.104 152.399 158.804C152.399 158.504 152.399 158.404 152.599 158.204C152.599 158.204 152.899 158.103 153.999 158.403C154.499 158.603 154.999 158.804 155.299 159.004C155.499 159.104 155.699 159.204 155.699 159.304C155.699 159.304 155.899 159.504 155.899 159.604C155.999 159.804 156.499 160.104 156.199 160.104C156.199 160.104 156.399 160.304 155.899 160.104C156.599 160.504 155.999 160.504 155.999 160.704C155.999 160.804 156.599 161.204 156.299 161.204C156.899 161.504 156.699 161.504 156.499 161.504C155.799 161.504 156.099 161.904 155.999 162.204C155.799 162.404 155.899 162.704 155.799 163.004C155.799 163.004 156.099 163.204 155.799 163.204C155.499 163.204 155.799 163.303 155.799 163.403C155.799 163.403 155.899 163.504 155.799 163.604C155.099 163.604 155.499 164.004 155.399 164.204C155.399 164.404 155.199 164.604 155.399 164.804C155.399 164.904 155.799 165.104 155.699 165.204C155.699 165.204 155.999 165.304 155.399 165.304C155.199 165.304 155.699 165.303 155.699 165.403C155.699 165.403 155.699 165.604 155.699 165.704C155.699 165.804 155.699 165.904 155.699 166.104L155.999 166.304V166.504C155.999 166.504 155.699 166.704 155.599 166.804C155.599 166.904 155.799 167.004 155.599 167.104C155.099 167.304 155.299 167.504 155.299 167.704C155.299 167.904 155.299 168.104 155.299 168.204C155.299 168.204 154.899 168.404 154.899 168.504C154.899 168.504 153.399 168.704 152.899 168.804H152.699C152.199 168.804 151.499 168.704 151.499 168.504C151.499 168.304 151.499 168.103 151.499 167.903L151.299 167.504Z" fill="black"/>
<path d="M161.699 168.3C161.699 168.1 161.699 167.9 161.699 167.8C161.699 167.8 161.899 167.7 161.399 167.6C161.099 167.6 161.799 167.5 161.699 167.4C161.699 167.2 161.699 167.1 161.699 166.9C161.699 166.7 161.399 166.6 161.399 166.4C161.399 166.2 161.699 166.1 161.399 165.9C161.099 165.7 161.599 165.7 161.499 165.5C161.399 165.4 161.299 165.2 161.499 165.1C161.699 165.1 161.899 164.9 161.799 164.8C161.799 164.8 161.399 164.6 161.499 164.6C161.499 164.6 161.799 164.6 161.199 164.4C161.199 164.4 161.199 164.4 161.399 164.4C161.799 164.4 161.799 164.4 161.499 164.2C161.199 164.2 161.299 164.1 161.299 164C161.299 163.9 161.299 163.7 161.299 163.6C161.299 163.6 161.599 163.4 161.699 163.4C161.699 163.4 161.499 163.1 161.799 163.1C162.099 163.1 162.099 163 162.099 162.9C162.099 162.9 162.399 162.9 161.799 162.7C162.599 162.7 161.599 162.3 161.799 162.2C161.999 162.1 161.899 161.9 161.999 161.7C161.999 161.7 162.199 161.7 161.799 161.5C161.599 161.4 161.599 161.5 161.799 161.5C162.399 161.5 162.099 161.3 162.199 161.2C162.399 161.1 162.199 160.9 162.599 160.9C162.799 160.9 162.899 160.9 162.399 160.6C162.199 160.5 162.399 160.6 162.399 160.4L162.099 160.2C162.099 160.2 162.299 160.2 162.499 160.2C161.899 159.8 162.899 159.9 162.799 159.6C162.799 159.3 162.799 159.2 162.999 159C162.999 159 163.299 158.9 164.399 159.2C164.899 159.4 165.399 159.6 165.699 159.8C165.899 159.9 166.099 160 166.099 160.1C166.099 160.1 166.299 160.3 166.299 160.4C166.399 160.6 166.899 160.9 166.599 160.9C166.599 160.9 166.799 161.1 166.299 160.9C166.999 161.3 166.399 161.3 166.399 161.5C166.399 161.6 166.999 162 166.699 162C167.299 162.3 167.099 162.3 166.899 162.3C166.199 162.3 166.499 162.7 166.399 163C166.199 163.2 166.299 163.5 166.199 163.8C166.199 163.8 166.499 164 166.199 164C165.899 164 166.199 164.1 166.199 164.2C166.199 164.2 166.299 164.3 166.199 164.4C165.499 164.4 165.899 164.8 165.799 165C165.799 165.2 165.599 165.4 165.799 165.6C165.799 165.7 166.199 165.9 166.099 166C166.099 166 166.399 166.1 165.799 166.1C165.599 166.1 166.099 166.1 166.099 166.2C166.099 166.2 166.099 166.4 166.099 166.5C166.099 166.6 166.099 166.7 166.099 166.9L166.399 167.1V167.3C166.399 167.3 166.099 167.5 165.999 167.6C165.999 167.7 166.199 167.8 165.999 167.9C165.499 168.1 165.699 168.3 165.699 168.5C165.699 168.7 165.699 168.9 165.699 169C165.699 169 165.299 169.2 165.299 169.3C165.299 169.3 163.799 169.5 163.299 169.6H163.099C162.599 169.6 161.899 169.5 161.899 169.3C161.899 169.1 161.899 168.9 161.899 168.7L161.699 168.3Z" fill="black"/>
<path d="M126.3 118.499C124.6 118.499 122.8 118.499 121 118.299C120.3 118.299 119.7 117.899 118.9 118.299C118.5 118.499 118 117.699 117.4 117.499C115.7 116.999 114.1 116.099 112.7 114.999C111.3 113.999 110 112.799 109 111.299C108 109.899 107.5 108.199 106.7 106.699C106 105.399 106.2 104.099 105.9 102.799C105.7 102.099 105.6 101.399 105.6 100.699C105.6 100.299 105.6 99.9991 105.6 99.5991C105.6 99.2991 105.6 98.5991 105.8 98.0991C106.1 96.6991 106.4 95.4991 106.6 94.0991H107C107.9 94.0991 108.7 93.9991 109.8 94.0991C110.3 94.0991 110.9 94.3991 111.4 94.3991C111.7 94.3991 112 94.3991 112.3 94.1991C112.3 94.1991 112.6 94.2991 112.7 94.3991C113.3 94.8991 114 95.0991 114.6 94.8991C115.2 94.6991 115.6 94.8991 116.1 94.8991C117.4 95.1991 118.7 95.4991 120 95.9991C120.9 96.2991 121.8 96.8991 122.7 97.2991C123.7 97.6991 124.8 97.7991 125.6 98.4991C126.4 99.0991 127.2 99.4991 128.1 99.8991C128.6 100.099 129 100.699 129.7 100.299C129.7 100.299 129.9 100.299 130 100.499C130.5 101.299 131.2 101.599 132 101.999C132.8 102.299 133.6 102.699 134.1 103.399C135.3 104.799 136.4 106.099 137.3 107.599C137.5 107.999 137.6 108.499 138.2 108.599C138.4 108.599 138.7 109.099 138.6 109.299C138.6 110.699 139.5 111.699 139.8 112.899C140.2 114.299 141 115.499 140.9 116.999C140.9 117.599 140.9 118.399 141.7 118.999C142 119.299 141.9 119.999 142.1 120.499C142.3 120.899 142.6 121.299 142.7 121.699C142.7 122.099 142.7 122.499 142.6 122.799C142.6 122.899 142.6 122.999 142.6 123.099C143.6 125.099 142.9 127.199 143.2 129.299C143.5 131.399 143.3 133.499 143.1 135.599C142.9 136.799 142.6 137.899 141.3 138.499C140.7 138.799 140.2 138.699 139.9 138.199C139.7 137.799 139.5 137.399 139.5 136.999C139.5 136.399 139.5 135.699 139.4 135.099C139.4 133.799 138.8 132.599 139.1 131.299C139.1 130.899 138.9 130.399 139.4 130.099C139.4 130.099 139.5 129.899 139.4 129.799C138.6 128.099 138.9 126.399 138.6 124.599C138.3 123.099 137.4 121.899 137.4 120.399C136.6 119.799 136.5 118.799 136.4 117.999C136.2 115.099 134.6 112.399 133.3 109.999C132.6 108.799 131.8 107.599 130.9 106.699C130 105.799 128.9 104.999 127.7 104.299C127.3 104.099 126.8 104.199 126.4 103.699C126 103.199 125.3 103.099 124.7 102.899C124.2 102.699 123.5 102.599 123.1 102.199C121.2 100.699 118.8 100.299 116.5 99.6991C115.4 99.3991 114.2 98.9991 113.1 98.7991C112.5 98.6991 112 98.5991 111.4 98.4991C111.1 98.4991 110.8 98.4991 110.5 98.3991H110.3H110.2C110 98.3991 109.8 98.4991 109.8 98.5991C109.8 98.7991 109.8 98.9991 109.8 99.0991C109.8 99.0991 109.8 99.0991 109.8 99.2991C109.8 99.5991 109.8 99.8991 109.4 100.199C109.2 100.399 109.7 100.899 109.8 101.199L110 102.499C110 102.899 110.2 103.399 110.2 103.799C110.5 104.999 110.9 106.199 111.4 107.299C111.8 107.999 112.3 108.399 112.8 108.999L114.2 110.699C114.8 111.399 115.4 112.099 116.2 112.599C117 113.099 118.1 113.199 118.9 113.699C120.6 114.699 122.6 114.499 124.6 114.599C126.6 114.599 128.7 114.599 130.8 114.399C132 114.399 133.1 114.799 134.3 114.899C134.9 114.899 135.5 116.499 135.2 116.999C135.2 116.999 135.1 117.199 135 117.199C133.9 117.599 132.9 118.299 131.6 118.199C129.8 118.199 127.9 118.199 125.9 118.299L126.3 118.499Z" fill="black"/>
<path d="M149.499 112.302C150.899 111.902 152.199 111.402 153.399 110.802C153.899 110.602 154.399 110.602 154.699 109.802C154.699 109.402 155.499 109.802 155.899 109.502C156.899 108.802 157.999 108.102 158.899 107.202C159.699 106.302 160.299 105.302 160.799 104.302C161.299 103.302 161.999 102.402 161.999 101.302C161.999 100.302 162.599 99.5016 162.599 98.6016C162.599 97.6016 162.599 96.5016 162.799 95.4016C162.999 94.6016 163.199 93.9016 162.999 93.1016C162.999 92.6016 162.599 92.2016 162.499 91.7016C162.499 91.2016 162.699 90.7016 161.999 90.3016C161.999 90.3016 161.999 90.0016 162.099 90.0016C162.499 90.0016 162.399 89.6016 162.099 89.8016C161.799 90.0016 161.899 90.0016 161.899 90.0016C161.899 90.0016 161.899 90.0016 161.899 89.9016H161.599C161.599 90.0016 160.999 90.3016 160.999 90.3016C160.099 90.6016 159.399 91.3016 158.499 91.4016C157.599 91.4016 156.899 91.8016 156.099 92.1016C155.699 92.3016 155.099 92.2016 154.999 92.9016C154.999 92.9016 154.799 93.0016 154.699 93.0016C153.199 92.7016 152.499 94.2016 151.299 94.6016C150.099 95.0016 148.999 95.7016 147.999 96.4016C147.699 96.6016 147.299 96.6016 147.399 97.2016C147.399 97.4016 147.199 97.6016 146.999 97.6016C145.899 97.6016 145.499 98.6016 144.899 99.2016C144.499 99.5016 144.299 100.002 143.999 100.402C143.799 100.802 143.399 101.202 142.999 101.602C142.799 101.802 142.599 102.002 142.499 102.202C142.499 102.502 142.499 102.802 142.599 103.102C142.799 103.402 142.399 103.802 142.299 104.202C142.299 104.502 142.499 104.902 142.299 105.202C142.299 105.502 141.899 105.702 141.799 105.902C141.799 105.902 141.799 106.102 141.799 106.202C142.199 107.802 141.199 109.302 141.399 111.002C141.599 112.702 141.599 114.402 141.599 116.102C141.599 117.102 141.599 118.102 140.499 118.802C139.999 119.102 139.499 119.202 139.099 118.802C138.799 118.502 138.599 118.202 138.499 117.902C138.399 117.402 138.199 116.802 137.999 116.302C137.699 115.202 137.099 114.102 137.399 112.802C137.399 112.402 137.199 112.002 137.699 111.702C137.699 111.702 137.799 111.502 137.699 111.402C136.899 109.802 137.499 108.102 137.699 106.402C137.899 105.002 137.499 103.402 138.299 102.002C137.999 101.002 138.499 100.102 138.999 99.4016C139.999 98.2016 140.899 96.9016 141.899 95.8016C142.899 94.6016 143.999 93.6016 145.199 92.8016C147.699 91.2016 150.299 89.9016 152.799 88.9016C153.199 88.7016 153.499 88.2016 154.099 88.3016C154.699 88.3016 155.199 87.9016 155.699 87.7016C156.199 87.5016 156.599 87.2016 157.199 87.1016C158.299 87.0016 159.199 86.6016 160.099 86.1016C160.899 85.7016 161.699 85.2016 162.499 84.6016L164.799 83.0016L165.399 82.6016V82.8016L165.499 83.1016V83.7016C165.599 83.7016 165.799 84.9016 165.799 84.9016L166.199 87.3016C166.399 88.6016 166.599 89.9016 166.799 91.2016C166.999 92.5016 167.399 93.9016 167.299 95.2016C167.299 95.8016 167.599 96.4016 166.999 97.0016C166.799 97.2016 167.299 97.7016 167.199 98.1016C167.199 99.0016 167.099 100.002 166.899 101.002C166.699 102.302 166.299 103.702 165.699 105.102C165.399 105.902 165.199 106.802 164.699 107.602C164.199 108.402 163.599 109.102 162.999 109.802C162.199 110.602 161.199 111.202 160.299 111.802C159.399 112.402 158.499 113.302 157.399 113.602C155.399 114.102 153.799 115.102 151.899 115.702C150.099 116.302 148.299 116.802 146.599 117.402C145.599 117.802 144.599 117.502 143.599 117.802C143.199 117.902 142.099 116.702 142.199 116.202C142.199 116.102 142.199 116.002 142.299 115.902C143.099 115.202 143.799 114.202 144.899 113.902C146.499 113.502 148.099 113.002 149.599 112.502L149.499 112.302Z" fill="black"/>
<path d="M163.099 206.799C163.099 205.599 163.099 204.399 163.099 203.199C163.099 202.799 163.399 202.299 162.799 201.799C162.699 201.799 162.799 201.799 162.799 201.699C162.899 201.699 163.099 201.599 163.099 201.499C163.099 201.299 163.099 201.099 163.099 200.899C162.999 200.899 162.899 200.899 162.699 200.899C162.699 200.899 162.499 200.899 162.399 200.899H162.299C162.299 200.899 162.199 200.899 162.099 200.899C161.499 200.899 160.899 200.899 160.299 200.899C159.099 200.699 157.999 200.099 156.799 199.899C155.699 199.699 155.199 198.799 154.299 198.399C153.399 197.899 152.499 197.199 151.999 196.299C151.599 195.599 151.399 194.899 150.899 194.399C150.599 194.099 150.099 193.899 149.899 193.399C149.699 192.999 149.699 192.399 148.999 192.299C148.999 192.299 148.999 191.999 148.999 191.899C149.199 191.299 148.999 190.699 148.599 190.399C148.199 190.099 148.199 189.699 148.099 189.299C147.799 188.299 147.699 187.199 147.699 186.199C147.699 185.399 147.999 184.599 148.199 183.899C148.199 183.699 148.199 183.499 148.199 183.299C148.199 182.999 148.299 182.699 148.399 182.399C148.399 182.099 148.499 181.799 148.699 181.499C148.799 181.199 148.999 180.999 149.199 180.799C149.999 180.099 150.899 179.699 151.999 179.599C152.599 179.599 153.199 179.899 153.799 179.299H154.099C154.699 179.799 155.199 179.899 155.799 179.999C156.399 179.999 156.999 179.999 157.499 180.399C158.399 181.099 159.399 181.399 160.299 181.799C160.499 181.799 160.699 182.199 161.099 181.799C161.199 181.699 161.499 181.799 161.599 181.899C162.099 182.699 162.899 182.599 163.599 182.899C164.399 183.199 165.299 183.099 166.099 183.699C166.399 183.999 166.899 184.099 167.399 183.599C167.399 183.599 167.599 183.599 167.599 183.499H167.699V183.199C167.699 183.199 167.899 183.399 167.999 183.499C167.999 183.299 167.799 183.199 167.799 183.199C167.799 183.199 167.899 183.199 167.999 183.199V183.099V182.799C167.999 182.599 167.999 182.499 167.999 182.299C167.799 180.899 167.799 179.499 167.999 178.199C167.999 177.399 168.199 176.699 169.299 176.099C169.799 175.899 170.399 175.799 170.699 176.099C170.899 176.299 171.199 176.599 171.199 176.899C171.299 177.299 171.399 177.799 171.599 178.199C171.799 179.099 172.399 179.899 172.099 180.899C172.099 181.199 172.299 181.499 171.799 181.799C171.799 181.799 171.699 181.999 171.799 181.999C172.599 182.799 172.199 185.499 172.199 187.299V187.599V187.799H172.099L171.499 187.899L170.299 188.099C169.499 188.199 168.499 188.299 167.599 188.099C167.499 188.099 167.299 188.199 167.199 188.299C167.199 188.299 166.999 188.299 166.899 188.399C166.699 188.399 166.499 188.399 166.399 188.399C165.999 188.399 165.699 188.299 165.399 188.099C163.299 187.099 160.999 186.999 158.899 185.999C156.799 184.999 154.899 183.999 153.399 183.599C152.999 183.599 153.099 183.899 152.999 183.599C152.899 183.299 152.799 183.599 152.799 183.599C152.799 183.599 152.799 183.799 152.599 183.799C152.399 183.799 152.299 183.799 152.199 183.999C152.099 184.299 151.999 184.699 151.999 184.999C151.999 185.699 151.999 186.399 151.999 187.099C151.999 188.499 152.499 189.999 153.299 191.099C153.799 191.799 154.499 192.299 154.999 192.999C155.199 193.299 155.699 193.299 155.599 193.999C155.599 194.199 156.099 193.999 156.299 194.199C156.799 194.499 157.199 194.899 157.699 195.099C158.399 195.499 159.099 195.899 159.899 195.999C160.399 196.099 160.899 195.999 161.399 195.999C161.599 195.999 161.899 195.999 162.099 195.999H162.599C162.899 195.999 163.199 195.999 163.499 195.999C164.899 195.999 166.199 195.999 167.399 195.999C167.399 196.099 167.399 196.299 167.399 196.499C167.299 197.299 167.299 197.999 167.199 198.699C167.199 199.399 167.199 200.199 166.899 200.899C166.699 201.699 166.599 201.799 166.599 202.199C166.599 202.499 166.599 202.899 166.599 203.199C166.599 203.899 166.599 204.599 166.599 205.299C166.599 206.699 166.599 208.099 166.899 209.399C167.099 210.199 166.599 210.899 166.799 211.699C166.799 211.999 165.499 212.799 164.999 212.699C164.999 212.699 164.799 212.699 164.699 212.599C164.099 211.899 163.299 211.299 163.199 210.399C163.199 209.099 162.999 207.699 162.899 206.399L163.099 206.799Z" fill="black"/>
</svg>
