<svg width="300" height="300" viewBox="0 0 300 300" fill="none" xmlns="http://www.w3.org/2000/svg">
<path d="M179.499 136.101C178.299 134.801 177.199 133.501 175.899 132.301C175.399 131.801 175.199 131.201 174.299 131.101C173.899 131.101 173.899 130.101 173.499 129.701C172.299 128.601 171.299 127.301 170.199 126.201C169.099 125.101 167.899 124.101 166.699 123.001C165.599 121.901 164.699 120.501 163.499 119.701C162.399 118.901 161.999 117.801 161.099 117.101C160.099 116.401 159.299 115.901 158.399 115.301C157.799 114.901 156.999 114.401 156.199 114.401C155.699 114.401 155.199 114.601 154.599 114.601C154.099 114.601 153.399 114.201 152.899 114.801C152.899 114.801 152.599 114.801 152.499 114.601C151.899 114.201 151.099 114.201 150.599 114.501C150.099 114.801 149.599 114.701 149.199 114.701C147.899 114.701 146.599 114.801 145.299 114.801C144.299 114.801 143.399 114.601 142.399 114.601C141.399 114.601 140.299 115.001 139.399 114.801C138.399 114.601 137.499 114.801 136.599 114.801C136.099 114.801 135.399 114.701 135.099 115.401C135.099 115.401 134.899 115.401 134.799 115.401C133.199 114.801 131.899 116.201 130.399 116.301C128.799 116.401 127.299 117.001 125.799 117.401C125.399 117.501 124.899 117.401 124.699 118.001C124.699 118.201 124.199 118.301 123.999 118.301C122.699 118.101 121.799 118.801 120.799 119.201C119.599 119.701 118.899 120.501 117.699 121.001C117.199 121.201 116.599 121.701 116.799 122.501C116.799 122.901 116.399 123.201 116.199 123.601C116.099 123.901 116.199 124.401 116.099 124.701C116.099 125.001 115.699 125.201 115.499 125.401C115.499 125.401 115.499 125.601 115.499 125.701C115.699 127.501 114.599 129.201 114.699 131.201C114.699 132.201 114.699 133.201 114.699 134.201C114.699 135.201 114.699 136.201 114.699 137.301C114.699 138.401 114.499 139.601 113.299 140.401C112.799 140.801 112.199 140.801 111.899 140.401C111.699 140.001 111.399 139.601 111.399 139.201C111.299 138.501 111.199 137.901 111.099 137.201C110.899 135.901 110.399 134.501 110.599 133.101C110.599 132.701 110.399 132.201 110.899 131.801C110.899 131.801 110.999 131.601 110.899 131.501C110.199 129.601 110.899 127.601 111.199 125.601C111.499 123.901 111.499 122.001 112.699 120.501C112.699 119.301 113.599 118.201 114.599 117.601C116.199 116.501 117.799 115.601 119.399 114.901C120.999 114.201 122.499 113.501 124.099 113.101C127.299 112.301 130.399 111.401 133.599 110.901C134.099 110.901 134.599 110.401 135.199 110.501C135.799 110.701 136.599 110.301 137.299 110.201C137.899 110.201 138.599 109.901 139.199 110.001C141.799 110.401 144.299 109.801 146.899 109.801C149.399 109.801 151.999 109.801 154.499 109.801C156.099 109.801 157.899 109.801 159.599 110.501C160.299 110.801 161.199 110.901 161.599 111.801C161.599 112.101 162.499 112.101 162.899 112.401C163.899 113.101 164.699 113.901 165.399 114.701C166.399 115.801 167.399 116.901 168.399 117.901C168.999 118.501 169.799 119.001 170.399 119.601C171.099 120.201 171.699 120.901 172.299 121.601C172.999 122.501 173.699 123.501 174.399 124.401C175.199 125.301 176.199 126.101 176.799 127.101C177.899 129.001 179.599 130.401 180.999 132.001C182.399 133.601 183.799 135.201 185.399 136.701C186.299 137.501 186.699 138.701 187.499 139.501C187.899 139.901 187.299 141.501 186.799 141.601C186.799 141.601 186.599 141.601 186.499 141.601C185.399 141.101 184.099 140.801 183.199 139.801C181.899 138.301 180.499 136.901 179.199 135.501L179.499 136.101Z" fill="black"/>
<path d="M116.398 162C116.398 162.5 116.398 162.9 116.598 163.4C116.598 163.6 116.398 163.8 116.998 163.9C117.298 163.9 116.698 164.2 116.698 164.4C116.798 164.8 116.798 165.3 116.898 165.7C116.998 166.1 117.298 166.5 117.398 166.9C117.498 167.3 117.398 167.8 117.698 168.1C117.998 168.4 117.598 168.8 117.698 169.1C117.898 169.4 117.998 169.8 117.798 170.1C117.698 170.4 117.498 170.7 117.598 170.9C117.598 171 117.998 171.1 117.998 171.3C117.998 171.5 117.798 171.7 118.398 171.7C118.398 171.7 118.398 171.7 118.298 171.8C117.898 172 117.998 172.2 118.298 172.3C118.598 172.3 118.598 172.5 118.598 172.6C118.598 172.9 118.798 173.3 118.798 173.6C118.798 173.9 118.598 174.2 118.598 174.4C118.598 174.7 118.898 174.9 118.598 175.2C118.298 175.5 118.398 175.7 118.498 176C118.498 176.1 118.298 176.4 118.898 176.4C118.198 177 119.298 177.1 119.198 177.6C119.098 178.1 119.198 178.5 119.398 178.9C119.398 179 119.298 179.2 119.698 179.2C119.898 179.2 119.898 179.3 119.798 179.4C119.198 179.8 119.698 180.1 119.598 180.4C119.598 180.8 119.898 181.1 119.498 181.6C119.298 181.8 119.298 182 119.898 182.1C120.198 182.1 119.898 182.4 119.998 182.5C119.998 182.6 120.398 182.7 120.398 182.8C120.398 182.8 120.198 183 120.098 183.1C120.898 183.5 120.098 184.2 120.398 184.7C120.698 185.2 120.698 185.8 120.698 186.3C120.698 186.6 120.598 187 119.498 187.4C118.998 187.6 118.498 187.7 118.098 187.6C117.798 187.6 117.598 187.5 117.498 187.4C117.398 187.2 117.198 187.1 117.098 187C116.798 186.7 116.298 186.4 116.498 186C116.498 185.9 116.198 185.8 116.698 185.6C115.798 185.3 116.198 184.7 116.098 184.2C115.998 183.8 115.298 183.5 115.498 183C114.798 182.9 114.898 182.6 114.998 182.3C115.498 181.4 114.998 180.6 114.798 179.8C114.798 178.9 114.498 178.1 114.398 177.3C114.398 177.2 113.998 177.1 114.198 176.9C114.398 176.7 114.198 176.5 114.198 176.3C114.198 176.1 113.998 176 114.198 175.8C114.698 175 114.198 174.4 114.198 173.8C114.198 173.1 114.198 172.5 113.798 171.8C113.598 171.4 113.198 171.1 113.298 170.6C113.298 170.4 112.998 170.3 113.498 170C113.698 170 113.198 169.8 113.098 169.7C113.098 169.4 112.998 169.2 112.898 168.9C112.898 168.5 112.898 168.1 112.698 167.8C112.698 167.6 112.298 167.4 112.198 167.2C112.098 167 112.098 166.7 112.098 166.5C112.098 166.2 112.298 165.8 112.298 165.5C112.298 165.2 111.998 164.9 112.298 164.5C112.698 163.8 112.298 163.3 112.298 162.7C112.298 162.1 112.298 161.5 111.998 161C111.898 160.7 112.298 160.3 112.298 160C112.298 159.9 113.698 159.5 114.198 159.5H114.398C114.898 159.7 115.698 159.9 115.698 160.3C115.698 160.8 115.798 161.3 115.898 161.9L116.398 162Z" fill="black"/>
<path d="M166.099 147.302C166.499 147.102 166.799 147.002 167.199 146.702C167.299 146.702 167.599 146.702 167.499 146.202C167.499 145.902 167.899 146.402 167.999 146.402C168.299 146.202 168.699 146.102 168.999 145.902C169.299 145.702 169.499 145.302 169.799 145.102C170.099 144.902 170.599 145.102 170.799 144.602C170.999 144.202 171.399 144.602 171.599 144.302C171.799 144.102 172.099 143.902 172.499 144.002C172.799 144.002 173.099 144.202 173.199 144.002C173.199 143.902 173.199 143.502 173.399 143.502C173.499 143.502 173.799 143.702 173.699 143.002C173.699 143.002 173.699 143.002 173.899 143.002C174.199 143.302 174.399 143.202 174.399 143.002C174.399 142.702 174.499 142.702 174.599 142.602C174.899 142.502 175.199 142.302 175.499 142.302C175.699 142.302 175.999 142.302 176.299 142.302C176.499 142.302 176.699 141.902 176.999 142.102C177.299 142.302 177.499 142.202 177.699 142.102C177.799 142.102 178.099 142.302 177.899 141.602C178.499 142.302 178.499 141.102 178.899 141.202C179.299 141.202 179.599 141.002 179.999 140.902C179.999 140.902 180.299 141.002 180.199 140.502C180.199 140.302 180.199 140.302 180.399 140.402C180.899 140.902 180.999 140.402 181.299 140.402C181.599 140.402 181.899 140.002 182.299 140.402C182.499 140.602 182.699 140.602 182.699 140.002C182.699 139.702 182.899 140.002 182.999 139.802C182.999 139.802 182.999 139.402 183.199 139.402C183.199 139.402 183.399 139.602 183.499 139.702C183.799 138.902 184.499 139.702 184.899 139.302C185.299 139.002 185.799 138.902 186.299 138.902C186.599 138.902 186.899 138.902 187.399 140.002C187.599 140.502 187.799 141.002 187.699 141.402C187.699 141.702 187.699 141.902 187.599 142.002C187.499 142.102 187.399 142.302 187.299 142.402C187.099 142.702 186.899 143.302 186.599 143.102C186.499 143.102 186.499 143.402 186.199 142.902C185.999 143.802 185.499 143.402 185.099 143.602C184.799 143.802 184.599 144.502 184.199 144.302C184.199 145.002 183.999 144.902 183.699 144.802C182.799 144.402 182.299 145.002 181.599 145.202C180.899 145.302 180.299 145.702 179.599 145.902C179.499 145.902 179.599 146.302 179.299 146.102C179.099 145.902 178.999 146.102 178.799 146.202C178.699 146.202 178.599 146.402 178.399 146.302C177.599 145.902 177.299 146.502 176.699 146.602C176.199 146.702 175.599 146.902 175.199 147.302C174.899 147.502 174.799 148.002 174.399 148.002C174.199 148.002 174.199 148.402 173.899 147.902C173.799 147.802 173.899 148.202 173.799 148.302C173.599 148.402 173.399 148.502 173.199 148.602C172.899 148.702 172.599 148.802 172.299 149.002C172.099 149.102 172.099 149.402 171.899 149.602C171.699 149.702 171.599 149.802 171.299 149.902C170.999 149.902 170.699 149.902 170.399 149.902C170.099 149.902 169.999 150.302 169.599 150.202C168.899 150.002 168.599 150.402 168.199 150.602C167.699 150.802 167.299 150.902 166.899 151.302C166.699 151.502 166.199 151.202 165.999 151.302C165.899 151.302 165.099 150.102 164.899 149.702V149.502C164.899 149.002 164.799 148.202 165.099 148.102C165.499 148.002 165.899 147.702 166.299 147.502L166.099 147.302Z" fill="black"/>
<path d="M146.699 141.101C146.699 140.901 146.699 140.701 146.699 140.601C146.699 140.601 146.899 140.501 146.399 140.401C146.099 140.401 146.799 140.301 146.699 140.201C146.699 140.001 146.699 139.901 146.699 139.701C146.699 139.501 146.399 139.401 146.399 139.201C146.399 139.001 146.699 138.901 146.399 138.701C146.099 138.501 146.599 138.501 146.499 138.301C146.399 138.201 146.299 138.001 146.499 137.901C146.699 137.901 146.899 137.701 146.799 137.601C146.799 137.601 146.399 137.401 146.499 137.401C146.499 137.401 146.799 137.401 146.199 137.201C146.199 137.201 146.199 137.201 146.399 137.201C146.799 137.201 146.799 137.201 146.499 137.001C146.199 137.001 146.299 136.901 146.299 136.801C146.299 136.701 146.299 136.501 146.299 136.401C146.299 136.401 146.599 136.201 146.699 136.201C146.699 136.201 146.499 135.901 146.799 135.901C147.099 135.901 147.099 135.801 147.099 135.701C147.099 135.701 147.399 135.701 146.799 135.501C147.599 135.501 146.599 135.101 146.799 135.001C146.999 134.901 146.899 134.701 146.999 134.501C146.999 134.501 147.199 134.501 146.799 134.301C146.599 134.201 146.599 134.301 146.799 134.301C147.399 134.301 147.099 134.101 147.199 134.001C147.399 133.901 147.199 133.701 147.599 133.701C147.799 133.701 147.899 133.701 147.399 133.401C147.199 133.301 147.399 133.401 147.399 133.201L147.099 133.001C147.099 133.001 147.299 133.001 147.499 133.001C146.899 132.601 147.899 132.701 147.799 132.401C147.799 132.101 147.799 132.001 147.999 131.801C147.999 131.801 148.299 131.701 149.399 132.001C149.899 132.201 150.399 132.401 150.699 132.601C150.899 132.701 151.099 132.801 151.099 132.901C151.099 132.901 151.299 133.101 151.299 133.201C151.399 133.401 151.899 133.701 151.599 133.701C151.599 133.701 151.799 133.901 151.299 133.701C151.999 134.101 151.399 134.101 151.399 134.301C151.399 134.401 151.999 134.801 151.699 134.801C152.299 135.101 152.099 135.101 151.899 135.101C151.199 135.101 151.499 135.501 151.399 135.801C151.199 136.001 151.299 136.301 151.199 136.601C151.199 136.601 151.499 136.801 151.199 136.801C150.899 136.801 151.199 136.901 151.199 137.001C151.199 137.001 151.299 137.101 151.199 137.201C150.499 137.201 150.899 137.601 150.799 137.801C150.799 138.001 150.599 138.201 150.799 138.401C150.799 138.501 151.199 138.701 151.099 138.801C151.099 138.801 151.399 138.901 150.799 138.901C150.599 138.901 151.099 138.901 151.099 139.001C151.099 139.001 151.099 139.201 151.099 139.301C151.099 139.401 151.099 139.501 151.099 139.701L151.399 139.901V140.101C151.399 140.101 151.099 140.301 150.999 140.401C150.999 140.501 151.199 140.601 150.999 140.701C150.499 140.901 150.699 141.101 150.699 141.301C150.699 141.501 150.699 141.701 150.699 141.801C150.699 141.801 150.299 142.001 150.299 142.101C150.299 142.101 148.799 142.301 148.299 142.401H148.099C147.599 142.401 146.899 142.301 146.899 142.101C146.899 141.901 146.899 141.701 146.899 141.501L146.699 141.101Z" fill="black"/>
<path d="M157.1 141.902C157.1 141.702 157.1 141.502 157.1 141.402C157.1 141.402 157.3 141.302 156.8 141.202C156.5 141.202 157.2 141.102 157.1 141.002C157.1 140.802 157.1 140.702 157.1 140.502C157.1 140.302 156.8 140.202 156.8 140.002C156.8 139.802 157.1 139.702 156.8 139.502C156.5 139.302 157 139.302 156.9 139.102C156.8 139.002 156.7 138.802 156.9 138.702C157.1 138.702 157.3 138.502 157.2 138.402C157.2 138.402 156.8 138.202 156.9 138.202C156.9 138.202 157.2 138.202 156.6 138.002C156.6 138.002 156.6 138.002 156.8 138.002C157.2 138.002 157.2 138.002 156.9 137.802C156.6 137.802 156.7 137.702 156.7 137.602C156.7 137.502 156.7 137.302 156.7 137.202C156.7 137.202 157 137.002 157.1 137.002C157.1 137.002 156.9 136.702 157.2 136.702C157.5 136.702 157.5 136.602 157.5 136.502C157.5 136.502 157.8 136.502 157.2 136.302C158 136.302 157 135.902 157.2 135.802C157.4 135.702 157.3 135.502 157.4 135.302C157.4 135.302 157.6 135.302 157.2 135.102C157 135.002 157 135.102 157.2 135.102C157.8 135.102 157.5 134.902 157.6 134.802C157.8 134.702 157.6 134.502 158 134.502C158.2 134.502 158.3 134.502 157.8 134.202C157.6 134.102 157.8 134.202 157.8 134.002L157.5 133.802C157.5 133.802 157.7 133.802 157.9 133.802C157.3 133.402 158.3 133.502 158.2 133.202C158.2 132.902 158.2 132.802 158.4 132.602C158.4 132.602 158.7 132.502 159.8 132.802C160.3 133.002 160.8 133.202 161.1 133.402C161.3 133.502 161.5 133.602 161.5 133.702C161.5 133.702 161.7 133.902 161.7 134.002C161.8 134.202 162.3 134.502 162 134.502C162 134.502 162.2 134.702 161.7 134.502C162.4 134.902 161.8 134.902 161.8 135.102C161.8 135.202 162.4 135.602 162.1 135.602C162.7 135.902 162.5 135.902 162.3 135.902C161.6 135.902 161.9 136.302 161.8 136.602C161.6 136.802 161.7 137.102 161.6 137.402C161.6 137.402 161.9 137.602 161.6 137.602C161.3 137.602 161.6 137.702 161.6 137.802C161.6 137.802 161.7 137.902 161.6 138.002C160.9 138.002 161.3 138.402 161.2 138.602C161.2 138.802 161 139.002 161.2 139.202C161.2 139.302 161.6 139.502 161.5 139.602C161.5 139.602 161.8 139.702 161.2 139.702C161 139.702 161.5 139.702 161.5 139.802C161.5 139.802 161.5 140.002 161.5 140.102C161.5 140.202 161.5 140.302 161.5 140.502L161.8 140.702V140.902C161.8 140.902 161.5 141.102 161.4 141.202C161.4 141.302 161.6 141.402 161.4 141.502C160.9 141.702 161.1 141.902 161.1 142.102C161.1 142.302 161.1 142.502 161.1 142.602C161.1 142.602 160.7 142.802 160.7 142.902C160.7 142.902 159.2 143.102 158.7 143.202H158.5C158 143.202 157.3 143.102 157.3 142.902C157.3 142.702 157.3 142.502 157.3 142.302L157.1 141.902Z" fill="black"/>
<path d="M160.2 108.801C160.2 107.801 160.1 106.701 160 105.701C160 105.301 160.2 104.901 159.6 104.501C159.3 104.301 159.9 103.901 159.9 103.501C159.8 102.501 159.9 101.501 159.8 100.601C159.8 99.7006 159.5 98.7006 159.4 97.8006C159.4 96.9006 159.6 95.9006 159.4 95.0006C159.1 94.2006 159.6 93.5006 159.5 92.8006V92.2006L159.4 91.9006C159.4 91.8006 159.4 91.8006 159.4 91.8006C159.4 91.8006 159.4 91.8006 159.5 91.6006C159.7 91.4006 159.9 91.0006 159.7 91.0006L159.3 91.3006C159.3 91.3006 159.5 90.6006 159 91.8006C159 91.9006 159 91.7006 159.1 91.5006C159.4 90.6006 159.4 90.5006 159.1 91.2006C158.9 91.8006 158.9 91.8006 158.9 91.8006C158.9 91.9006 158.9 92.0006 158.9 91.8006C158.9 91.7006 158.9 91.3006 158.9 91.3006C158.9 91.3006 158.9 91.7006 158.7 91.5006C158.6 91.4006 158.5 91.5006 158.4 91.5006V91.7006C158.1 92.0006 157.6 92.1006 158 92.7006C158 92.7006 158 92.8006 157.9 92.9006C156.7 93.2006 157.2 94.6006 156.5 95.2006C155.8 95.9006 155.4 96.8006 154.9 97.6006C154.8 97.8006 154.5 98.0006 154.7 98.4006C154.7 98.6006 154.7 98.8006 154.5 98.8006C153.6 99.1006 153.5 99.9006 153 100.501C152.5 101.101 152.3 102.001 151.4 102.401C151 102.601 150.7 102.901 150.9 103.601C151 103.901 150.6 104.101 150.5 104.401C150.5 104.601 150.5 105.001 150.4 105.201C150.3 105.401 150 105.401 149.8 105.601C149.8 105.601 149.7 105.701 149.7 105.801C149.7 107.201 148.2 107.701 147.7 108.901C147.2 110.001 146.5 111.001 145.7 112.001C145.3 112.501 144.8 113.001 143.5 112.801C143 112.701 142.5 112.401 142.4 112.001C142.4 111.701 142.3 111.401 142.4 111.101C142.5 110.701 142.6 110.301 142.7 109.901C143 109.101 142.9 108.201 143.6 107.601C143.8 107.401 143.7 107.001 144.3 107.101C144.3 107.101 144.5 107.101 144.5 107.001C144.5 105.701 145.5 105.001 146 104.001C146.5 103.201 146.4 102.101 147.2 101.401C146.9 100.601 147.4 100.201 147.8 99.8006C149.4 98.6006 150 96.8006 151.1 95.2006C152.2 93.7006 153.1 92.0006 154.2 90.4006C154.4 90.1006 154.2 89.7006 154.7 89.5006C154.9 89.5006 155 89.3006 155.1 89.1006C155.3 88.8006 155.5 88.4006 155.7 88.1006C156.1 87.5006 156.4 86.8006 156.8 86.4006C157.2 86.0006 157.6 85.6006 158 85.2006C158.3 84.8006 158.7 84.2006 159 83.9006C159.6 83.2006 160.2 82.3006 160.8 81.6006L161.2 81.1006L161.4 80.9006H161.5C161.5 80.7006 161.5 80.8006 161.5 80.9006C161.5 81.0006 162 82.6006 162 82.6006C162.3 83.6006 162.6 84.5006 162.9 85.3006C163.1 85.8006 163.3 86.3006 163.5 87.0006C163.7 87.6006 163.9 88.4006 163.8 89.2006C163.8 89.9006 164.2 90.6006 163.6 91.3006C163.6 91.4006 163.6 91.6006 163.6 91.8006C163.6 92.0006 163.8 92.1006 163.8 92.2006C163.8 92.8006 163.8 93.5006 163.8 94.1006C163.8 95.0006 163.8 95.8006 163.8 96.7006C163.8 97.2006 164.1 97.7006 164.1 98.2006C164.1 98.7006 164.1 99.3006 164.1 99.8006C164.1 100.501 163.8 101.201 163.8 101.901C163.8 102.601 164.1 103.301 163.8 104.001C163.3 105.301 163.7 106.501 163.8 107.801C163.8 109.101 163.8 110.301 164.2 111.501C164.3 112.201 163.9 112.901 164 113.601C164 113.901 162.6 114.501 162.1 114.501C162.1 114.501 161.9 114.501 161.9 114.401C161.4 113.801 160.6 113.201 160.5 112.401C160.5 111.201 160.3 110.001 160.2 108.901V108.801Z" fill="black"/>
<path d="M118.501 159.801L115.901 160.101C115.601 160.101 115.201 159.901 114.901 160.501C114.701 160.801 114.401 160.201 114.101 160.201C113.301 160.301 112.501 160.201 111.701 160.201C110.901 160.201 110.101 160.501 109.401 160.501C108.601 160.501 107.901 160.201 107.101 160.501C106.401 160.701 105.801 160.101 105.201 160.101C104.501 160.101 103.701 160.001 103.001 159.501C102.501 159.101 102.101 158.701 101.601 158.601C101.301 158.501 100.801 158.601 100.501 158.301C100.201 158.101 100.101 157.601 99.4008 157.801C99.4008 157.801 99.3008 157.601 99.3008 157.501C99.3008 156.901 99.0008 156.501 98.6008 156.301C98.2008 156.101 98.0008 155.801 97.9008 155.501C97.5008 154.601 97.3008 153.701 97.3008 152.801C97.3008 152.101 97.6008 151.501 97.7008 150.901C97.9008 150.301 97.7008 149.501 98.3008 149.001C98.8008 148.601 99.0008 148.101 99.3008 147.601C99.5008 147.301 99.9008 147.201 99.6008 146.601C99.6008 146.601 99.6008 146.501 99.7008 146.401C100.301 146.401 100.501 146.001 100.801 145.501C101.001 145.101 101.201 144.601 101.601 144.401C102.501 144.001 103.201 143.401 104.001 143.001C104.201 142.901 104.501 143.001 104.501 142.401C104.501 142.201 104.701 142.101 104.901 142.201C105.701 142.501 106.201 142.001 106.901 141.901C107.601 141.901 108.301 141.401 109.101 141.701C109.401 141.901 109.901 141.901 110.201 141.301C110.301 141.001 110.701 141.301 111.001 141.201C111.201 141.201 111.401 140.801 111.601 140.801C111.801 140.801 112.001 141.001 112.201 141.101C112.201 141.101 112.301 141.101 112.401 141.101C113.501 140.401 114.601 141.401 115.601 141.301C116.701 141.301 117.801 141.601 118.801 142.001C119.401 142.201 119.901 142.601 119.901 143.801C119.901 144.301 119.701 144.901 119.301 145.101C119.101 145.301 118.801 145.401 118.601 145.401C118.301 145.401 118.001 145.401 117.701 145.401C117.101 145.401 116.401 145.801 115.901 145.401C115.701 145.301 115.501 145.501 115.401 145.001C115.401 145.001 115.401 144.901 115.301 145.001C114.401 145.701 113.701 145.101 112.901 145.201C112.201 145.201 111.601 145.901 110.901 145.701C110.601 146.401 110.201 146.301 109.801 146.201C108.401 145.801 107.201 146.601 106.001 147.101C104.801 147.601 103.801 148.401 103.101 149.201C103.001 149.301 103.101 149.701 102.801 149.701C102.501 149.701 102.501 150.001 102.401 150.201C102.401 150.401 102.401 150.601 102.101 150.801C101.701 151.101 101.501 151.501 101.501 152.001C101.501 152.401 101.501 152.801 101.601 153.201C101.601 154.001 102.101 154.701 102.801 155.001C103.301 155.201 103.801 155.101 104.301 155.501C104.501 155.601 104.801 155.401 104.901 156.001C104.901 156.201 105.301 155.801 105.401 155.801C105.801 155.801 106.201 156.001 106.701 156.001C107.301 156.001 107.901 156.201 108.601 156.201C109.001 156.201 109.401 156.001 109.801 155.901C110.201 155.901 110.601 155.901 111.101 155.901C111.601 155.901 112.101 156.201 112.701 156.301C113.301 156.301 113.801 156.101 114.301 156.301C115.301 156.801 116.301 156.401 117.201 156.301C118.201 156.301 119.101 156.101 120.001 155.801C120.501 155.601 121.101 156.001 121.601 155.801C121.801 155.801 122.601 157.001 122.701 157.601C122.701 157.601 122.701 157.801 122.701 157.901C122.301 158.501 122.001 159.401 121.301 159.501C120.301 159.701 119.401 159.901 118.401 160.101L118.501 159.801Z" fill="black"/>
<path d="M159.8 187.598V185.698V184.698V184.498V184.298C159.8 184.098 160 183.798 159.6 183.898H159.5C159.2 184.198 159.7 183.698 159.5 183.598H159.3H159.2L159 183.498C158.7 183.398 158.4 183.198 158.1 183.098C157.5 182.798 156.9 182.498 156.3 182.198C155.2 181.598 154 180.998 153 180.098C152 179.298 151.3 178.098 150.3 177.298C149.4 176.598 149.3 175.498 148.7 174.598C148.1 173.698 147.5 172.598 147.4 171.498C147.4 170.698 147.4 169.898 147.1 169.198C147 168.698 146.5 168.298 146.5 167.798C146.5 167.298 146.7 166.698 146 166.298C146 166.298 146 165.998 146.1 165.898C146.5 165.298 146.5 164.698 146.2 164.298C145.9 163.798 146 163.498 146 162.998V162.798V162.398V161.698C146.2 161.198 146.2 160.698 146.4 160.298C146.5 159.798 146.6 159.398 146.8 158.898L147.3 157.698C147.5 157.098 147.8 156.598 148.1 156.098L148.5 155.298L148.7 154.898L148.9 154.598V154.398C149.5 154.898 150 155.298 150.5 155.798C151 156.298 151.6 156.798 152 157.498C152.5 158.098 152.9 158.598 153.4 159.098C153.6 159.298 153.9 159.498 154.1 159.698L154.5 159.998C154.8 160.198 155 160.698 155.6 160.298C155.6 160.298 155.8 160.298 155.8 160.398C156.3 161.698 157.7 161.198 158.6 161.798C159.5 162.398 160.6 162.698 161.7 162.998C162 162.998 162.2 163.398 162.6 162.998C162.7 162.898 163 162.998 163.1 162.998C163.4 163.398 163.9 163.498 164.2 163.598C164.3 163.598 164.3 163.598 164.4 163.598C164.6 163.698 164.6 163.598 164.9 163.698H165.1C165.3 163.898 165.4 163.498 164.7 163.198C164.4 163.098 164.7 163.098 164.7 162.998V162.798C164.4 162.698 164.4 162.498 164.3 162.398C164.3 162.098 164.4 161.798 164.5 161.498C164.5 161.498 164.5 161.298 164.5 161.198C163.6 159.698 164.3 158.098 164 156.498C163.7 154.898 163.7 153.298 163.7 151.698C163.7 150.798 163.9 149.898 165.1 149.298C165.6 148.998 166.2 149.098 166.5 149.398C166.7 149.698 167 149.998 167 150.298C167 150.798 167.2 151.298 167.3 151.698C167.5 152.698 168.1 153.598 167.9 154.598C167.9 154.898 168.2 155.298 167.7 155.598V155.798C168.6 157.098 168.2 158.498 168.5 159.798C168.6 160.398 168.9 160.898 169.1 161.398C169.2 161.698 169.3 161.898 169.4 162.298C169.5 162.798 169.6 163.398 169.7 163.898C170.6 165.198 170.9 166.898 170.9 167.998V168.698C169.8 168.498 168.8 168.398 167.8 168.298C166.8 168.298 165.9 168.198 164.9 167.998H164.2C164 167.898 163.7 167.898 163.5 167.798H162.6C162 167.498 161.4 167.398 160.9 167.198C158.5 166.398 156.1 165.398 153.9 164.098C153.5 163.898 153 163.998 152.7 163.398C152.5 162.898 151.7 162.598 151.8 162.698C151.8 162.698 151.7 162.698 151.6 162.498C151.6 162.198 151.3 161.898 151.2 161.698C151.2 161.698 151.2 161.598 151.1 161.598C151.1 161.598 151.1 161.598 151.1 161.698C151.1 161.798 151.1 161.898 151.1 161.998C151.1 162.198 151.1 162.398 151 162.598C151 162.698 151 162.798 150.9 163.098C150.9 163.498 150.9 163.898 150.8 164.398C150.8 165.198 150.8 166.098 151 166.898C151.2 167.898 151.8 168.798 151.9 169.798C151.9 170.198 152.4 170.498 152.1 171.098C152 171.298 152.6 171.498 152.7 171.698C153 172.298 153.3 172.898 153.7 173.498C154.2 174.298 154.8 175.098 155.5 175.698C155.9 176.098 156.5 176.298 157 176.598C157.5 176.898 158 177.298 158.4 177.698C159 178.198 159.5 178.798 160.2 179.098C160.5 179.298 160.9 179.398 161.3 179.598C161.6 179.598 162 179.798 162.4 179.998C162.8 180.098 163.1 180.298 163.4 180.498C163.7 180.698 164 180.798 164.2 180.898C164.2 181.598 164.1 182.198 164.1 182.798V183.698V184.498C164.1 185.198 164.1 185.898 164.1 186.598C164.1 188.198 164.1 189.798 164.1 191.398C164.1 192.298 163.7 193.098 163.7 193.998C163.7 194.398 162.2 194.998 161.7 194.798C161.7 194.798 161.5 194.798 161.5 194.598C161 193.698 160.3 192.898 160.3 191.998C160.3 190.498 160.3 189.098 160.3 187.598H159.8Z" fill="black"/>
<path d="M131.5 117.8C131.7 118.6 131.6 119.3 131.7 119.8C131.7 120 131.5 120.2 132 120.4C132.3 120.5 131.6 120.7 131.6 120.9C131.6 121.4 131.6 121.9 131.6 122.4C131.6 122.9 131.8 123.4 131.9 123.9C131.9 124.4 131.6 124.9 131.9 125.3C132.1 125.7 131.6 126 131.7 126.4C131.7 126.8 131.8 127.2 131.6 127.6C131.4 127.9 131.2 128.1 131.2 128.4C131.2 128.6 131.6 128.8 131.5 129C131.5 129.2 131.2 129.4 131.8 129.6C131.8 129.6 131.8 129.6 131.6 129.7C131.2 129.9 131.2 130.1 131.4 130.3C131.6 130.5 131.6 130.6 131.6 130.8C131.6 131.2 131.6 131.7 131.4 132.1C131.3 132.4 131 132.7 130.9 133C130.8 133.3 130.9 133.8 130.6 134C130.2 134.2 130.1 134.5 130 134.8C130 135 129.6 135.1 130.1 135.4C130.1 135.4 130.1 135.4 130.1 135.5C129.1 135.7 129.9 136.6 129.5 137C129 137.4 128.9 138 128.5 138.5C128.5 138.6 128.2 138.7 128.5 139C128.5 139.1 128.5 139.3 128.4 139.3C127.6 139.3 127.6 139.8 127.3 140.1C126.9 140.4 126.7 140.9 126 140.9C125.7 140.9 125.4 140.9 125.6 141.6C125.6 141.9 125.3 141.8 125.2 142C125.2 142.1 125.2 142.4 125.1 142.5C125.1 142.5 124.8 142.5 124.6 142.5C124.4 143.4 123.4 143.1 122.9 143.6C122.4 144.1 121.8 144.4 121.2 144.6C120.9 144.7 120.5 144.7 119.7 143.9C119.4 143.5 119.1 143 119.1 142.7C119.1 142.4 119.1 142.2 119.1 142.1C119.2 141.9 119.3 141.7 119.4 141.5C119.6 141.1 119.7 140.5 120.2 140.5C120.4 140.5 120.3 140.2 120.7 140.5H120.8C120.8 139.5 121.6 139.7 122 139.4C122.3 139.1 122.3 138.4 122.8 138.3C122.6 137.7 122.8 137.6 123.2 137.6C124.3 137.6 124.5 136.7 125 136.1C125.5 135.5 125.8 134.8 126.1 134.1C126.1 134 125.9 133.7 126.1 133.7C126.4 133.7 126.3 133.4 126.3 133.2C126.3 133 126.3 132.8 126.5 132.7C127.3 132.2 127.1 131.4 127.2 130.8C127.4 130.1 127.5 129.4 127.4 128.6C127.4 128.1 127 127.7 127.2 127.2C127.2 127 127 126.8 127.6 126.6C127.8 126.6 127.3 126.3 127.3 126.2C127.3 125.9 127.3 125.6 127.3 125.3C127.3 124.9 127.4 124.4 127.3 124C127.3 123.7 127.1 123.5 127 123.2C127 122.9 127 122.7 127 122.4C127 122.1 127.3 121.7 127.4 121.4C127.4 121 127.2 120.7 127.4 120.3C127.9 119.7 127.7 119 127.7 118.6C127.7 118.4 127.7 118.3 127.7 118.2C127.5 118.3 128 118 128 118C128 118 128 118 127.9 118.1C127.9 118.1 128.1 117.6 128 117.5C128 117.5 128 117.3 127.9 117.2C127.7 116.8 127.3 116.4 127.3 116.2C127.3 116.2 127.3 116 127.3 115.9C127.5 115.6 127.8 115.2 128.2 114.9C128.6 114.7 129.1 114.6 129.5 114.8C130.1 115.1 130.5 115.5 130.9 116C131.3 116.5 131.5 117 131.6 117.5L131.5 117.8Z" fill="black"/>
</svg>
