<svg width="300" height="300" viewBox="0 0 300 300" fill="none" xmlns="http://www.w3.org/2000/svg">
<path d="M179.999 136.599C178.899 135.399 177.799 134.199 176.699 133.099C176.299 132.699 176.099 132.099 175.199 131.999C174.799 131.999 174.899 131.099 174.499 130.699C173.399 129.699 172.499 128.499 171.399 127.499C170.399 126.499 169.199 125.599 168.199 124.599C167.199 123.599 166.399 122.299 165.199 121.499C164.199 120.799 163.799 119.699 162.899 118.899C161.999 118.099 161.099 117.399 160.499 116.599C159.999 115.999 159.499 115.399 158.899 115.199C158.499 115.099 157.999 115.199 157.499 115.099C157.099 114.999 156.599 114.599 156.099 115.099C156.099 115.099 155.899 114.999 155.799 114.899C155.399 114.399 154.699 114.399 154.199 114.599C153.699 114.799 153.299 114.799 152.899 114.799C151.699 114.799 150.499 114.799 149.299 114.799C148.399 114.799 147.499 114.499 146.599 114.499C145.699 114.499 144.699 114.799 143.799 114.499C142.899 114.299 142.099 114.299 141.199 114.499C140.699 114.499 140.099 114.299 139.799 114.999C139.799 114.999 139.599 114.999 139.499 114.999C137.999 114.299 136.799 115.599 135.399 115.599C133.999 115.599 132.499 115.999 131.099 116.399C130.699 116.399 130.299 116.399 129.999 116.899C129.999 117.099 129.499 117.199 129.299 117.099C128.099 116.699 127.099 117.399 125.999 117.599C124.699 117.799 123.699 118.499 122.399 118.399C121.899 118.399 121.099 118.599 120.899 119.299C120.799 119.699 120.199 119.699 119.799 119.899C119.499 120.099 119.399 120.499 119.199 120.699C118.999 120.899 118.599 120.799 118.399 120.899C118.399 120.899 118.199 120.899 118.199 121.099C117.899 121.799 117.399 122.299 116.899 122.899C116.399 123.399 115.899 124.099 115.699 124.899C115.299 126.499 114.899 128.199 114.699 129.899C114.599 130.899 114.299 131.899 113.199 132.599C112.699 132.899 112.099 132.899 111.799 132.399C111.599 132.099 111.399 131.699 111.299 131.299C111.299 130.699 111.099 130.099 111.099 129.399C111.099 128.099 110.699 126.699 111.299 125.399C111.499 124.999 111.299 124.399 111.899 124.199C111.899 124.199 112.099 123.999 112.099 123.899C111.999 121.899 113.399 120.199 114.799 118.699C115.899 117.499 116.999 115.999 118.599 115.399C119.099 114.399 120.199 114.099 121.099 113.899C122.699 113.699 124.099 113.299 125.599 112.899C126.999 112.499 128.399 111.999 129.899 111.799C132.899 111.199 135.799 110.599 138.799 110.299C139.299 110.299 139.699 109.799 140.299 110.099C140.899 110.299 141.599 110.099 142.199 109.999C142.799 109.999 143.399 109.799 143.999 109.899C146.399 110.399 148.699 109.899 151.099 110.099C153.399 110.199 155.799 110.299 158.399 110.799C159.899 111.099 161.699 111.599 162.999 112.699C163.499 113.199 164.299 113.399 164.299 114.299C164.299 114.499 165.099 114.599 165.399 114.899C166.099 115.599 166.799 116.299 167.399 116.999C168.299 117.999 169.199 118.999 170.099 119.899C170.699 120.499 171.399 120.899 171.999 121.399C172.599 121.999 173.199 122.599 173.699 123.299C174.399 124.099 174.999 125.099 175.699 125.899C176.399 126.799 177.399 127.399 177.899 128.399C178.899 130.199 180.399 131.499 181.699 132.999C182.999 134.499 184.299 135.999 185.799 137.299C186.599 138.099 186.899 139.199 187.699 139.999C187.999 140.399 187.399 141.899 186.899 142.099C186.899 142.099 186.699 142.099 186.599 142.099C185.499 141.599 184.299 141.399 183.499 140.499C182.299 139.099 180.999 137.799 179.799 136.499L179.999 136.599Z" fill="black"/>
<path d="M166.099 147.298C166.499 147.098 166.799 146.998 167.199 146.698C167.299 146.698 167.599 146.698 167.499 146.198C167.499 145.898 167.899 146.398 167.999 146.398C168.299 146.198 168.699 146.098 168.999 145.898C169.299 145.698 169.499 145.298 169.799 145.098C170.099 144.898 170.599 145.098 170.799 144.598C170.999 144.198 171.399 144.598 171.599 144.298C171.799 144.098 172.099 143.898 172.499 143.998C172.799 143.998 173.099 144.198 173.199 143.998C173.199 143.898 173.199 143.498 173.399 143.498C173.499 143.498 173.799 143.698 173.699 142.998C173.699 142.998 173.699 142.998 173.899 142.998C174.199 143.298 174.399 143.198 174.399 142.998C174.399 142.698 174.499 142.698 174.599 142.598C174.899 142.498 175.199 142.298 175.499 142.298C175.699 142.298 175.999 142.298 176.299 142.298C176.499 142.298 176.699 141.898 176.999 142.098C177.299 142.298 177.499 142.198 177.699 142.098C177.799 142.098 178.099 142.298 177.899 141.598C178.499 142.298 178.499 141.098 178.899 141.198C179.299 141.198 179.599 140.998 179.999 140.898C179.999 140.898 180.299 140.998 180.199 140.498C180.199 140.298 180.199 140.298 180.399 140.398C180.899 140.898 180.999 140.398 181.299 140.398C181.599 140.398 181.899 139.998 182.299 140.398C182.499 140.598 182.699 140.598 182.699 139.998C182.699 139.698 182.899 139.998 182.999 139.798C182.999 139.798 182.999 139.398 183.199 139.398C183.199 139.398 183.399 139.598 183.499 139.698C183.799 138.898 184.499 139.698 184.899 139.298C185.299 138.998 185.799 138.898 186.299 138.898C186.599 138.898 186.899 138.898 187.399 139.998C187.599 140.498 187.799 140.998 187.699 141.398C187.699 141.698 187.699 141.898 187.599 141.998C187.499 142.098 187.399 142.298 187.299 142.398C187.099 142.698 186.899 143.298 186.599 143.098C186.499 143.098 186.499 143.398 186.199 142.898C185.999 143.798 185.499 143.398 185.099 143.598C184.799 143.798 184.599 144.498 184.199 144.298C184.199 144.998 183.999 144.898 183.699 144.798C182.799 144.398 182.299 144.998 181.599 145.198C180.899 145.298 180.299 145.698 179.599 145.898C179.499 145.898 179.599 146.298 179.299 146.098C179.099 145.898 178.999 146.098 178.799 146.198C178.699 146.198 178.599 146.398 178.399 146.298C177.599 145.898 177.299 146.498 176.699 146.598C176.199 146.698 175.599 146.898 175.199 147.298C174.899 147.498 174.799 147.998 174.399 147.998C174.199 147.998 174.199 148.398 173.899 147.898C173.799 147.798 173.899 148.198 173.799 148.298C173.599 148.398 173.399 148.498 173.199 148.598C172.899 148.698 172.599 148.798 172.299 148.998C172.099 149.098 172.099 149.398 171.899 149.598C171.699 149.698 171.599 149.798 171.299 149.898C170.999 149.898 170.699 149.898 170.399 149.898C170.099 149.898 169.999 150.298 169.599 150.198C168.899 149.998 168.599 150.398 168.199 150.598C167.699 150.798 167.299 150.898 166.899 151.298C166.699 151.498 166.199 151.198 165.999 151.298C165.899 151.298 165.099 150.098 164.899 149.698V149.498C164.899 148.998 164.799 148.198 165.099 148.098C165.499 147.998 165.899 147.698 166.299 147.498L166.099 147.298Z" fill="black"/>
<path d="M168.6 166.198C168.6 165.898 168.5 165.498 168.3 165.198C168.3 165.098 168.5 164.898 167.9 164.898C167.6 164.898 168.2 164.598 168.2 164.498C168.1 164.198 168.1 163.898 167.9 163.598C167.8 163.298 167.5 163.098 167.3 162.798C167.2 162.498 167.3 162.098 167 161.898C166.7 161.698 167.1 161.398 167 161.198C166.8 160.998 166.7 160.698 166.8 160.398C166.9 160.198 167.1 159.998 166.9 159.798C166.9 159.798 166.5 159.698 166.5 159.598C166.5 159.498 166.7 159.298 166.1 159.298C166.1 159.298 166.1 159.298 166.2 159.198C166.6 158.998 166.5 158.798 166.2 158.798C165.9 158.798 165.9 158.698 165.9 158.598C165.9 158.398 165.7 158.098 165.7 157.898C165.7 157.698 165.9 157.498 165.9 157.298C165.9 157.098 165.6 156.998 165.9 156.698C166.2 156.398 166.1 156.298 166 156.098C166 156.098 166.2 155.798 165.6 155.898C166.3 155.398 165.2 155.398 165.3 155.098C165.4 154.798 165.3 154.498 165.1 154.198C165.1 154.198 165.2 153.998 164.8 153.998C164.6 153.998 164.6 153.998 164.7 153.898C165.2 153.498 164.8 153.398 164.9 153.098C164.9 152.798 164.6 152.598 164.9 152.198C165.1 151.998 165.1 151.898 164.5 151.898C164.2 151.898 164.5 151.698 164.4 151.598C164.4 151.598 164 151.598 164 151.498C164 151.498 164.2 151.298 164.3 151.198C163.6 150.998 164.3 150.398 164 150.098C163.7 149.798 163.7 149.398 163.6 148.998C163.6 148.798 163.6 148.498 164.7 147.998C165.2 147.798 165.7 147.598 166 147.598C166.2 147.598 166.5 147.598 166.6 147.598C166.7 147.598 166.9 147.798 167 147.898C167.3 148.098 167.9 148.198 167.7 148.498C167.7 148.598 168 148.598 167.5 148.798C168.4 148.898 168 149.398 168.1 149.798C168.2 150.098 168.9 150.198 168.7 150.598C169.4 150.598 169.3 150.798 169.2 150.998C168.7 151.798 169.3 152.198 169.4 152.898C169.4 153.498 169.7 154.098 169.8 154.698C169.8 154.798 170.2 154.798 170 154.998C169.8 155.198 170 155.298 170 155.398C170 155.498 170.2 155.598 170 155.798C169.5 156.398 170 156.798 170 157.298C170 157.798 170 158.298 170.4 158.698C170.6 158.998 171 159.198 170.9 159.498C170.9 159.598 171.2 159.698 170.7 159.898C170.5 159.898 171 159.898 171.1 160.098C171.1 160.298 171.2 160.498 171.3 160.698C171.3 160.998 171.3 161.298 171.5 161.498C171.5 161.698 171.9 161.798 172 161.898C172.1 162.098 172.1 162.198 172.1 162.398C172.1 162.598 171.9 162.898 171.9 163.098C171.9 163.298 172.2 163.498 172 163.798C171.6 164.298 172 164.698 172 165.098C172 165.498 172.1 165.898 172.3 166.298C172.4 166.498 172 166.798 172.1 167.098C172.1 167.098 170.7 167.698 170.2 167.798H170C169.5 167.798 168.7 167.798 168.7 167.398C168.7 166.998 168.5 166.698 168.4 166.298L168.6 166.198Z" fill="black"/>
<path d="M162.2 186.199C162.3 185.799 162.5 185.399 162.5 184.999C162.5 184.799 162.8 184.799 162.4 184.499C162.2 184.299 162.8 184.399 162.8 184.199C162.8 183.799 163.1 183.499 163.1 183.099C163.1 182.699 163.1 182.299 163.1 181.899C163.1 181.499 163.6 181.299 163.4 180.799C163.2 180.399 163.8 180.299 163.8 179.999C163.8 179.699 163.8 179.299 164.1 179.099C164.3 178.899 164.6 178.799 164.6 178.599C164.6 178.399 164.3 178.199 164.4 178.099C164.4 177.999 164.8 177.899 164.2 177.599C164.2 177.599 164.2 177.599 164.4 177.599C164.8 177.599 164.9 177.399 164.6 177.199C164.4 176.999 164.5 176.899 164.5 176.799C164.5 176.499 164.6 176.199 164.8 175.899C164.9 175.699 165.2 175.599 165.4 175.399C165.5 175.199 165.4 174.899 165.7 174.699C166.1 174.599 166.1 174.399 166.2 174.199C166.2 174.099 166.6 173.999 166 173.699C166.9 173.699 166 172.999 166.3 172.699C166.6 172.399 166.6 171.999 166.7 171.699C166.7 171.699 166.9 171.599 166.5 171.299C166.4 171.299 166.4 171.099 166.5 171.099C167.2 171.099 166.9 170.599 167.1 170.399C167.3 170.099 167.1 169.699 167.7 169.599C167.9 169.599 168.1 169.399 167.6 169.099C167.4 168.899 167.6 168.899 167.6 168.799C167.6 168.699 167.3 168.499 167.4 168.399C167.4 168.399 167.7 168.399 167.8 168.299C167.3 167.699 168.3 167.499 168.2 166.999C168.2 166.699 168.2 166.599 168.2 166.299C168.2 165.999 168.4 165.699 168.6 165.299C168.8 164.899 169.3 164.499 170.4 165.099C170.9 165.299 171.3 165.699 171.5 165.999C171.6 166.199 171.8 166.399 171.8 166.499C171.8 166.599 171.9 166.799 172 166.899C172.1 167.099 172.6 167.399 172.2 167.699C172.1 167.699 172.3 167.999 171.8 167.899C172.5 168.499 171.8 168.899 171.8 169.299C171.8 169.699 172.2 170.199 171.8 170.499C172.3 170.899 172.2 171.099 171.9 171.199C171 171.699 171.2 172.499 170.9 173.199C170.6 173.899 170.4 174.599 170.1 175.299C170.1 175.399 170.4 175.599 170.1 175.699C169.8 175.699 169.9 175.999 169.9 176.099C169.9 176.199 169.9 176.399 169.7 176.499C168.9 176.799 169.1 177.499 168.8 177.999C168.5 178.499 168.3 178.999 168.3 179.599C168.3 179.999 168.5 180.399 168.3 180.699C168.2 180.799 168.5 181.099 167.9 180.999C167.7 180.999 168.1 181.299 168.1 181.399C168.1 181.599 168 181.899 167.9 182.099C167.8 182.399 167.6 182.699 167.6 183.099C167.6 183.299 167.7 183.599 167.7 183.799C167.7 183.999 167.7 184.199 167.5 184.399C167.3 184.599 167.1 184.799 166.9 185.099C166.8 185.299 166.9 185.699 166.6 185.899C166 186.199 166.1 186.799 165.9 187.199C165.7 187.599 165.5 188.099 165.5 188.599C165.5 188.899 165 188.999 164.9 189.199C164.9 189.299 163.4 189.199 162.9 188.999H162.7C162.3 188.599 161.7 188.199 161.8 187.899C162 187.399 162.1 186.999 162.2 186.499V186.199Z" fill="black"/>
<path d="M150.4 134.797C150.2 134.797 150.1 134.897 149.9 135.097C149.9 135.097 149.7 134.997 149.9 135.497C150 135.697 149.6 135.197 149.6 135.297C149.5 135.397 149.3 135.497 149.2 135.597C149.1 135.697 149.1 135.997 149 136.197C149 136.297 148.6 136.197 148.7 136.497C148.7 136.797 148.4 136.497 148.3 136.597C148.3 136.797 148.3 136.897 148 136.797C147.8 136.797 147.6 136.597 147.6 136.797C147.6 136.797 147.8 137.197 147.6 137.197C147.6 137.197 147.3 137.097 147.6 137.597C147.6 137.597 147.6 137.597 147.5 137.597C147.2 137.297 147.1 137.397 147.3 137.597C147.4 137.797 147.3 137.797 147.3 137.897C147.3 137.997 147.1 138.097 147 138.197C146.9 138.197 146.7 138.197 146.5 138.197C146.4 138.197 146.5 138.497 146.2 138.397C145.9 138.197 145.9 138.397 145.8 138.397C145.8 138.397 145.5 138.297 145.9 138.797C145.2 138.297 145.9 139.197 145.6 139.197C145.3 139.197 145.3 139.397 145.2 139.497C145.2 139.497 145 139.497 145.3 139.797C145.4 139.897 145.3 139.997 145.3 139.897C144.8 139.597 144.9 139.897 144.8 139.897C144.6 139.897 144.8 140.197 144.3 139.997C144.1 139.997 144 139.997 144.3 140.297C144.5 140.497 144.3 140.297 144.3 140.497L144.5 140.797C144.5 140.797 144.3 140.797 144.2 140.697C144.6 141.297 143.8 140.897 143.8 141.197C143.8 141.497 143.6 141.597 143.4 141.697C143.3 141.697 143.1 141.697 142.1 141.197C141.7 140.897 141.2 140.597 141 140.397C140.8 140.197 140.7 140.097 140.6 139.997C140.6 139.897 140.6 139.697 140.5 139.597C140.5 139.397 140.1 138.897 140.5 138.897C140.6 138.897 140.4 138.697 140.8 138.897C140.3 138.197 140.8 138.397 140.9 138.197C140.9 137.997 140.6 137.497 140.9 137.497C140.5 136.997 140.7 136.997 140.9 136.997C141.7 137.097 141.6 136.497 141.9 136.297C142.2 136.097 142.4 135.697 142.8 135.497C142.8 135.497 142.6 135.197 142.8 135.297C143 135.397 143 135.297 143 135.197C143 135.197 143 134.997 143.2 135.097C143.9 135.397 143.8 134.897 144.1 134.697C144.4 134.597 144.6 134.397 144.8 134.097C144.8 133.897 144.8 133.497 145 133.497C145 133.497 145 133.197 145.4 133.497C145.5 133.597 145.4 133.197 145.4 133.197C145.4 133.097 145.6 132.997 145.7 132.997C145.8 132.897 146 132.797 146.1 132.697C146.1 132.697 146.1 132.297 146.1 132.197C146.1 132.097 146.3 131.997 146.4 131.997C146.6 131.997 146.8 131.997 147 131.997C147.2 131.997 147.1 131.697 147.4 131.797C147.9 132.097 148 131.797 148.2 131.697C148.5 131.697 148.7 131.497 148.9 131.297C148.9 131.197 149.4 131.597 149.5 131.497C149.5 131.497 150.3 132.697 150.5 133.197V133.397C150.5 133.897 150.8 134.597 150.7 134.597C150.5 134.597 150.3 134.797 150.1 134.897L150.4 134.797Z" fill="black"/>
<path d="M161.599 132.8C161.499 132.8 161.299 132.9 161.199 133.1C161.199 133.1 160.999 133 161.199 133.4C161.299 133.6 160.899 133.1 160.899 133.2C160.899 133.3 160.699 133.4 160.599 133.5C160.599 133.6 160.599 133.9 160.499 134C160.499 134.1 160.099 134 160.199 134.3C160.199 134.6 159.899 134.3 159.899 134.4C159.899 134.6 159.899 134.7 159.599 134.6C159.399 134.6 159.199 134.4 159.199 134.6C159.199 134.6 159.399 135 159.299 135C159.299 135 158.999 134.9 159.399 135.4C159.399 135.4 159.399 135.4 159.299 135.4C158.999 135.1 158.999 135.2 159.099 135.4C159.199 135.6 159.099 135.6 159.099 135.7C159.099 135.8 158.999 135.9 158.799 135.9C158.799 135.9 158.499 135.9 158.399 135.9C158.299 135.9 158.399 136.2 158.099 136C157.799 135.8 157.799 136 157.699 136C157.699 136 157.399 135.9 157.799 136.3C157.099 135.8 157.799 136.7 157.599 136.6C157.399 136.6 157.399 136.8 157.299 136.9C157.299 136.9 157.099 136.9 157.399 137.2C157.399 137.4 157.499 137.3 157.399 137.2C156.899 136.8 157.099 137.2 156.899 137.2C156.699 137.2 156.899 137.5 156.399 137.2C156.199 137.2 156.099 137.1 156.399 137.5C156.599 137.7 156.399 137.5 156.399 137.6L156.599 137.9C156.599 137.9 156.399 137.8 156.299 137.8C156.699 138.4 155.899 137.9 155.899 138.2C155.899 138.5 155.799 138.6 155.599 138.6C155.499 138.6 155.299 138.6 154.299 138C153.899 137.7 153.399 137.4 153.199 137.1C152.999 136.9 152.899 136.8 152.899 136.7C152.899 136.6 152.899 136.5 152.799 136.3C152.799 136.1 152.399 135.6 152.799 135.7C152.799 135.7 152.699 135.5 153.099 135.7C152.599 135.1 153.099 135.2 153.199 135.1C153.199 134.9 152.899 134.4 153.199 134.5C152.799 134 152.899 134 153.199 134.1C153.899 134.3 153.799 133.8 154.099 133.6C154.399 133.4 154.599 133.1 154.799 132.9C154.799 132.9 154.599 132.6 154.799 132.7C154.999 132.8 154.899 132.7 154.999 132.6C154.999 132.6 154.999 132.4 155.199 132.5C155.799 132.8 155.799 132.3 155.999 132.2C156.199 132.1 156.499 132 156.599 131.7C156.599 131.5 156.599 131.2 156.799 131.2C156.799 131.2 156.799 130.9 157.199 131.3C157.299 131.4 157.099 131 157.199 131C157.199 130.9 157.399 130.9 157.399 130.8C157.499 130.8 157.699 130.6 157.699 130.5C157.699 130.5 157.699 130.2 157.699 130.1C157.699 130 157.799 129.9 157.899 129.9C157.999 129.9 158.299 129.9 158.399 129.9C158.499 129.9 158.399 129.6 158.699 129.7C159.199 130 159.199 129.7 159.399 129.6C159.599 129.6 159.799 129.4 159.899 129.2C159.899 129.1 160.299 129.4 160.399 129.4C160.399 129.4 161.299 130.6 161.499 131C161.499 131 161.499 131.2 161.599 131.2C161.799 131.7 162.099 132.3 161.899 132.3C161.699 132.3 161.599 132.5 161.399 132.6L161.599 132.8Z" fill="black"/>
<path d="M143.898 156.399C144.098 156.599 144.298 156.899 144.598 157.099C144.598 157.099 144.598 157.399 145.098 157.099C145.298 156.899 144.998 157.499 145.098 157.499C145.398 157.599 145.598 157.899 145.898 157.999C146.198 158.099 146.498 157.999 146.798 158.199C147.098 158.199 147.198 158.699 147.598 158.499C147.898 158.299 147.898 158.899 148.198 158.899C148.498 158.899 148.698 158.899 148.898 159.199C148.998 159.399 149.098 159.699 149.298 159.599C149.398 159.599 149.598 159.299 149.698 159.299C149.698 159.299 149.898 159.599 150.098 158.999C150.098 158.999 150.098 158.999 150.098 159.199C150.098 159.599 150.298 159.599 150.398 159.399C150.498 159.099 150.598 159.199 150.698 159.199C150.898 159.199 151.198 159.199 151.398 159.199C151.598 159.199 151.698 159.499 151.898 159.599C152.098 159.599 152.298 159.399 152.498 159.599C152.698 159.899 152.898 159.899 152.998 159.799C152.998 159.799 153.298 160.099 153.298 159.399C153.698 160.199 153.798 159.099 154.098 159.199C154.398 159.299 154.698 159.199 154.998 158.999C154.998 158.999 155.198 159.099 155.098 158.699C155.098 158.499 155.098 158.499 155.198 158.599C155.598 159.099 155.698 158.599 155.898 158.599C156.198 158.599 156.298 158.199 156.698 158.599C156.898 158.699 157.098 158.799 156.898 158.199C156.898 157.899 157.098 158.199 157.098 157.999V157.599C157.098 157.599 157.298 157.699 157.398 157.799C157.398 156.999 158.098 157.599 158.298 157.199C158.498 156.799 158.798 156.599 159.098 156.399C159.298 156.299 159.598 156.299 160.498 156.899C160.898 157.199 161.398 157.499 161.498 157.799C161.598 157.999 161.698 158.199 161.698 158.399C161.698 158.599 161.698 158.799 161.698 158.999C161.698 159.399 161.698 159.999 161.298 159.999C161.198 159.999 161.298 160.299 160.898 159.999H160.798C160.898 160.899 160.198 160.799 159.898 161.099C159.598 161.399 159.598 162.099 159.098 162.099C159.198 162.799 158.898 162.799 158.598 162.699C157.598 162.499 156.998 163.199 156.198 163.299C155.398 163.499 154.598 163.699 153.798 163.799C153.698 163.799 153.598 164.199 153.398 163.899C153.198 163.699 152.998 163.899 152.898 163.899C152.698 163.899 152.598 164.099 152.398 163.899C151.698 163.299 151.098 163.699 150.498 163.499C149.898 163.399 149.298 163.199 148.598 163.199C148.198 163.199 147.698 163.499 147.398 163.199C147.298 163.099 146.998 163.399 146.998 162.799C146.998 162.599 146.698 162.999 146.598 162.999C146.298 162.999 146.098 162.799 145.798 162.699C145.498 162.599 145.098 162.399 144.798 162.199C144.598 162.199 144.298 162.199 143.998 162.199C143.798 162.199 143.498 161.999 143.398 161.799C143.198 161.599 142.998 161.199 142.798 160.999C142.598 160.799 142.098 160.799 142.098 160.399C142.098 159.699 141.398 159.499 141.098 158.999C140.798 158.499 140.398 158.099 139.998 157.699C139.798 157.499 139.998 156.899 139.898 156.699C139.898 156.599 141.098 155.699 141.498 155.499H141.698C142.198 155.499 142.898 155.299 142.998 155.499C143.098 155.799 143.398 156.099 143.598 156.299L143.898 156.399Z" fill="black"/>
<path d="M127.1 166.298C126.5 166.298 125.9 166.098 125.3 165.998C125.1 165.998 124.9 165.698 124.5 166.098C124.3 166.298 124.2 165.698 124 165.598C123.4 165.598 122.9 165.198 122.3 165.098C121.7 164.998 121.1 164.898 120.5 164.698C119.9 164.498 119.6 163.898 118.9 163.798C118.3 163.798 118.2 162.998 117.8 162.798C117.3 162.498 116.9 162.198 116.7 161.598C116.6 161.198 116.6 160.798 116.3 160.498C116.1 160.298 115.7 160.298 115.6 160.098C115.6 159.898 115.6 159.498 115 159.598C115 159.598 115 159.498 115 159.398C115.3 158.998 115.1 158.698 114.8 158.598C114.5 158.498 114.4 158.298 114.4 158.098C114.2 157.498 114.1 156.898 114.1 156.298C114.1 155.798 114.3 155.398 114.4 154.898C114.4 154.498 114.3 153.898 114.7 153.498C115.1 153.198 115.2 152.798 115.3 152.498C115.3 152.298 115.7 152.198 115.3 151.798V151.698C116.3 151.498 115.6 150.598 116 150.198C116.5 149.798 116.5 149.298 117 148.598C117.1 148.398 117.4 148.398 117.2 147.898C117.2 147.698 117.3 147.498 117.5 147.498C117.7 147.498 118 147.498 118.1 147.398C118.6 147.198 119.1 146.798 119.5 146.698C120.1 146.698 120.6 146.198 121.2 146.598C121.5 146.798 121.8 146.798 122 146.198C122.1 145.898 122.4 146.198 122.6 146.198C122.8 146.198 123 145.898 123.2 145.898C123.4 145.898 123.5 146.198 123.7 146.298C123.7 146.298 123.8 146.298 123.9 146.298C124.4 145.998 124.9 146.198 125.3 146.398C125.7 146.698 126.1 146.998 126.6 147.198C127.6 147.598 128.2 148.298 128.5 148.698C128.7 148.898 128.7 149.198 128.3 150.298C128.1 150.798 127.9 151.298 127.6 151.498C127.4 151.598 127.1 151.698 126.9 151.698C126.6 151.698 126.3 151.598 126.1 151.498C125.6 151.298 124.9 151.498 124.9 150.998C124.9 150.898 124.6 150.998 124.9 150.598C124.5 150.798 124.4 150.798 124.2 150.698C124 150.698 123.9 150.398 123.7 150.398C123.3 150.398 123 150.998 122.6 150.798C122.4 151.398 122.2 151.398 122 151.198C121.7 150.998 121.4 150.998 121.1 150.998C121 150.998 120.9 150.998 120.8 150.998C120.8 150.998 120.8 150.998 120.7 151.098C120.5 151.198 120.3 151.698 120 152.198L119.4 153.398C119.4 153.498 119.6 153.798 119.4 153.798C119.1 153.798 119.2 154.098 119.2 154.298C119.2 154.398 119.2 154.598 119.1 154.698C118.3 155.098 118.7 155.798 118.8 156.398C118.8 156.998 119 157.598 119.5 158.098C119.8 158.398 120.3 158.498 120.4 158.898C120.4 159.098 120.8 158.898 120.4 159.498C120.4 159.598 120.7 159.498 120.8 159.498C121 159.598 121.2 159.798 121.4 159.998C121.7 160.198 122 160.498 122.3 160.598C122.5 160.598 122.8 160.598 123.1 160.598C123.3 160.598 123.6 160.798 123.8 160.898C124.1 161.098 124.3 161.398 124.6 161.598C124.9 161.798 125.3 161.598 125.6 161.898C126.1 162.498 126.8 162.398 127.4 162.598C127.7 162.598 128 162.698 128.4 162.798C128.6 162.798 128.7 162.798 128.9 162.798H129.2C129.2 162.798 129.2 163.298 129.2 163.098V162.998V162.798V163.098C129.4 163.498 129.7 163.898 129.9 163.998H130.1C130.2 163.998 130.3 163.998 130.4 163.898C130.6 163.898 130.8 163.798 130.9 163.798C130.9 163.798 131.1 163.798 131.2 163.898C131.3 164.098 131.4 164.498 131.4 164.898C131.4 165.198 131.2 165.498 131.1 165.798C130.8 166.298 130.4 166.598 130 166.598C129.7 166.598 129.3 166.598 129.1 166.598H128.6C128.3 166.598 127.9 166.598 127.6 166.498L127.1 166.298Z" fill="black"/>
<path d="M138.1 113.602C138.1 114.302 137.9 114.902 137.9 115.602C137.9 115.902 137.6 116.102 138.1 116.402C138.3 116.602 137.7 116.702 137.7 117.002C137.7 117.602 137.5 118.202 137.5 118.902C137.5 119.502 137.6 120.202 137.5 120.802C137.5 121.402 137.1 122.002 137.3 122.602C137.5 123.202 136.9 123.502 136.9 124.002C136.9 124.502 136.9 125.102 136.6 125.502C136.4 125.802 136.1 126.102 136.1 126.502C136.1 126.702 136.4 127.002 136.3 127.302C136.3 127.502 135.9 127.702 136.5 128.102C136.5 128.102 136.5 128.202 136.3 128.202C135.8 128.302 135.8 128.602 136 128.902C136.2 129.202 136.1 129.302 136.1 129.502C136.1 130.002 135.9 130.502 135.7 131.002C135.6 131.402 135.2 131.702 135.1 132.002C134.9 132.402 135.1 132.902 134.7 133.102C134.3 133.402 134.2 133.702 134.1 134.102C134.1 134.302 133.7 134.502 134.3 134.802V134.902C133.3 135.202 134.2 136.102 133.8 136.602C133.4 137.102 133.4 137.802 133.2 138.402C133.2 138.602 132.9 138.702 133.3 139.002C133.4 139.102 133.3 139.302 133.3 139.302C132.6 139.502 132.8 140.102 132.5 140.502C132.2 141.002 132.3 141.602 131.6 141.902C131.3 142.002 131.1 142.302 131.6 142.802C131.8 143.002 131.5 143.202 131.4 143.402C131.4 143.602 131.6 143.802 131.5 144.002C131.5 144.102 131.2 144.202 131 144.302C131 144.302 131 144.302 131 144.402C131.3 145.402 130.2 145.802 130 146.602C129.9 147.402 129.5 148.102 129 148.802C128.8 149.202 128.4 149.502 127.2 149.302C126.7 149.302 126.2 149.002 126 148.702C125.8 148.502 125.7 148.202 125.7 148.102C125.7 147.802 125.7 147.602 125.7 147.302C125.7 146.802 125.5 146.102 125.9 145.702C126 145.602 125.9 145.302 126.4 145.402H126.5C126 144.502 126.8 144.002 127 143.302C127.2 142.702 126.8 142.002 127.3 141.502C126.8 141.002 127.1 140.602 127.3 140.402C128.3 139.502 128.3 138.302 128.8 137.202C129.3 136.102 129.5 134.902 129.9 133.802C129.9 133.602 129.7 133.302 130 133.202C130.3 133.102 130.2 132.702 130.3 132.502C130.3 132.302 130.3 132.002 130.5 131.802C131.4 131.102 131.3 130.102 131.6 129.202C131.9 128.302 132.2 127.402 132.2 126.502C132.2 125.902 132 125.302 132.2 124.802C132.3 124.602 132 124.302 132.7 124.102C132.9 124.102 132.5 123.802 132.5 123.602C132.5 123.202 132.6 122.802 132.7 122.402C132.8 121.902 132.9 121.302 133 120.802C133 120.502 132.8 120.102 132.8 119.802C132.8 119.502 132.8 119.102 133 118.802C133.1 118.402 133.4 118.002 133.5 117.602C133.6 117.202 133.5 116.602 133.7 116.302C134.3 115.602 134.2 114.702 134.3 113.902C134.4 113.102 134.6 112.302 134.5 111.502C134.5 111.002 135 110.702 135 110.202C135 110.002 136.5 109.802 137 109.902C137 109.902 137.2 109.902 137.2 110.002C137.6 110.502 138.3 111.002 138.2 111.502C138.1 112.302 138 113.002 138 113.802L138.1 113.602Z" fill="black"/>
<path d="M169.7 125.7C169 125.7 168.3 125.7 167.6 125.9C167.3 125.9 167.1 125.7 166.8 126.2C166.7 126.5 166.4 125.8 166.2 125.9C165.5 125.9 164.9 125.9 164.2 125.9C163.6 125.9 162.9 126.1 162.3 126.1C161.7 126.1 161 125.7 160.4 126.1C159.8 126.3 159.4 125.8 158.9 125.8C158.4 125.8 157.8 125.8 157.3 125.5C157 125.3 156.6 125 156.2 125C156 125 155.7 125.3 155.4 125.2C155.2 125.2 155 124.8 154.6 125.4C154.6 125.4 154.5 125.4 154.5 125.2C154.3 124.7 154 124.7 153.7 124.9C153.4 125.1 153.3 125 153.1 124.9C152.6 124.8 152 124.6 151.5 124.4C151.1 124.2 150.8 123.9 150.5 123.7C150.1 123.5 149.6 123.7 149.3 123.2C149 122.8 148.7 122.6 148.3 122.5C148.1 122.5 148 122 147.6 122.5H147.5C147.3 121.5 146.3 122.2 145.8 121.7C145.3 121.2 144.7 121 144.1 120.7C143.9 120.7 143.9 120.4 143.5 120.7C143.4 120.8 143.2 120.7 143.2 120.6C143.2 119.8 142.5 119.9 142.1 119.5C141.7 119.1 141.1 119 140.9 118.2C140.9 117.9 140.6 117.6 140 117.9C139.7 118 139.7 117.6 139.5 117.6C139.3 117.6 139 117.6 138.9 117.6C138.8 117.6 138.9 117.2 138.8 117.1C138.8 117.1 138.8 117.1 138.7 117.1C138.2 117.1 137.9 116.8 137.6 116.4C137.4 116 137.2 115.6 136.8 115.4C136.4 115.2 136.1 114.9 135.8 114.6C135.5 114.3 135.3 113.9 135 113.6C134.7 113.2 134.5 112.7 135.2 111.8C135.5 111.4 135.9 111 136.3 111C136.6 111 136.9 111 137 111C137.2 111.1 137.5 111.2 137.7 111.3C138.2 111.5 138.9 111.6 139 112.1C139 112.3 139.4 112.1 139.1 112.6V112.7C140.1 112.6 140.2 113.5 140.8 113.9C141.3 114.2 142.1 114.1 142.4 114.7C143 114.4 143.3 114.7 143.4 115C143.9 116.2 145.2 116.5 146.1 117.1C146.6 117.4 147.1 117.7 147.6 118C148.1 118.3 148.6 118.5 149.2 118.8C149.4 118.8 149.7 118.6 149.8 119C149.8 119.3 150.2 119.3 150.5 119.4C150.7 119.4 151 119.4 151.1 119.7C151.7 120.6 152.7 120.6 153.6 120.9C154 121.1 154.5 121.2 154.9 121.4C155.3 121.5 155.8 121.6 156.3 121.6C156.9 121.6 157.5 121.4 158 121.6C158.2 121.6 158.5 121.4 158.7 122C158.7 122.2 159 121.8 159.2 121.8C159.6 121.8 160 121.9 160.3 121.9C160.8 121.9 161.4 122.1 161.9 122.1C162.2 122.1 162.6 121.9 162.9 121.8C163.2 121.8 163.6 121.8 163.9 121.8C164.3 121.9 164.7 122.1 165.2 122.2C165.6 122.2 166.1 122 166.5 122.2C167.3 122.7 168.1 122.4 168.9 122.4C169.7 122.4 170.5 122.4 171.3 122.1C171.4 122.1 171.5 122.1 171.6 122.1C171.6 122.1 171.9 122.1 171.9 122.2C172.1 123 172.2 123.2 172.3 123.4H172.4C172.4 123.4 172.4 123.3 172.4 123.2C172.4 123.2 172.4 123.2 172.3 123.2C172.1 123.2 171.9 123.1 171.8 122.9C171.8 122.9 171.8 122.5 172.1 122.4C172.5 122.2 172.8 122.4 173 122.4C173.2 122.4 173.4 122.6 173.6 122.9C173.6 123 173.8 123.2 173.8 123.5C173.8 123.7 173.8 124 173.8 124.1C173.8 124.4 173.6 124.7 173.4 124.9C173.1 125.3 172.8 125.4 172.5 125.6H172.3C172.3 125.7 172.2 125.8 172.1 125.8C171.3 125.8 170.5 126 169.7 126.1V125.7Z" fill="black"/>
<path d="M170.701 103.798C170.901 103.298 171.001 102.898 170.901 102.498C170.901 102.098 170.501 101.698 170.101 101.298C169.801 100.998 169.401 100.498 168.701 100.798C168.401 100.898 168.101 100.198 167.601 99.9977C166.201 99.6977 164.701 99.2977 163.201 99.1977C161.701 99.1977 160.201 99.1977 158.701 99.3977C157.201 99.3977 155.601 99.2977 154.101 99.6977C152.801 100.098 151.601 99.6977 150.401 99.8977C149.101 100.098 147.701 100.298 146.401 100.198C145.401 100.198 144.501 99.9977 143.601 100.198C143.001 100.298 142.501 100.698 141.901 100.698C141.301 100.698 140.601 100.498 140.201 101.198C140.201 101.198 139.901 101.198 139.701 101.198C139.001 100.898 138.301 100.998 137.801 101.298C137.301 101.598 136.901 101.698 136.401 101.698C135.101 101.898 133.801 102.098 132.501 102.198C131.501 102.298 130.501 102.198 129.501 102.298C128.501 102.398 127.501 102.898 126.501 102.798C125.501 102.798 124.601 102.898 123.701 103.098C123.201 103.198 122.501 103.098 122.301 103.798C122.301 103.798 122.101 103.898 122.001 103.798C121.201 103.598 120.501 103.798 119.801 104.198C119.101 104.598 118.501 104.998 117.701 105.098C116.201 105.398 114.701 106.098 113.301 106.698C112.901 106.898 112.401 106.898 112.301 107.498C112.301 107.698 111.901 107.898 111.601 107.898C110.301 107.798 109.401 108.698 108.301 109.198C107.001 109.698 106.101 110.598 104.701 110.998C104.101 111.098 103.401 111.498 103.401 112.398C103.401 112.798 102.701 112.998 102.501 113.398C102.301 113.698 102.301 114.098 102.101 114.398C101.901 114.598 101.601 114.698 101.401 114.798C101.401 114.798 101.301 114.898 101.301 114.998C101.301 115.798 101.301 115.998 101.201 116.498C101.201 116.698 101.201 116.898 101.201 116.998C101.201 117.098 101.201 117.198 101.501 117.298C101.801 117.298 102.201 117.398 102.601 117.498L104.001 117.798C104.901 117.998 105.901 118.098 106.901 118.198C108.001 118.298 109.001 118.498 109.901 119.498C110.301 119.998 110.301 120.498 109.901 120.898C109.601 121.198 109.101 121.398 108.701 121.498C108.001 121.598 107.301 121.698 106.701 121.798C105.301 121.898 103.801 122.298 102.401 121.798C102.001 121.598 101.401 121.798 101.101 121.198C101.101 121.198 100.901 120.998 100.801 120.998C100.201 120.998 99.5014 120.898 98.9014 120.498C98.2014 120.098 97.7014 119.398 97.4014 118.698C96.8014 117.298 96.9014 115.898 97.2014 114.598C97.8014 112.498 98.6014 110.698 100.101 109.598C100.401 108.398 101.401 107.798 102.301 107.398C103.901 106.698 105.401 105.898 106.801 105.098L109.001 103.898C109.701 103.498 110.501 103.198 111.201 102.898C114.301 101.698 117.401 100.498 120.601 99.6977C121.101 99.5977 121.501 99.0977 122.201 99.1977C122.901 99.1977 123.601 98.8977 124.301 98.7977C124.901 98.6977 125.601 98.3977 126.201 98.3977C128.801 98.4977 131.301 97.6977 133.801 97.3977C136.301 97.0977 138.801 96.8977 141.301 96.4977C142.801 96.1977 144.301 95.7977 145.901 95.7977C146.601 95.7977 147.201 95.3977 147.901 95.8977C148.101 96.0977 148.701 95.5977 149.101 95.4977C150.101 95.3977 151.201 95.2977 152.201 95.2977C153.701 95.1977 155.101 95.0977 156.601 94.9977C157.501 94.9977 158.401 94.6977 159.301 94.5977C160.301 94.5977 161.301 94.5977 162.301 94.5977C163.601 94.7977 164.801 95.0977 166.001 95.3977C166.601 95.4977 167.301 95.5977 168.001 95.7977C168.701 95.8977 169.401 96.1977 170.001 96.5977C171.101 97.2977 172.201 97.9977 173.201 99.1977C174.201 100.298 174.901 101.998 174.701 103.598C174.501 105.198 173.701 106.498 172.701 107.398C171.801 108.398 170.601 109.098 169.601 109.698C168.401 110.398 167.201 110.298 166.101 110.698C165.601 110.898 164.301 109.898 164.301 109.398C164.301 109.298 164.301 109.198 164.401 109.098C165.301 108.098 166.101 107.098 167.301 106.598C168.101 106.298 168.901 105.898 169.501 105.398C170.101 104.898 170.501 104.398 170.801 103.798H170.701Z" fill="black"/>
<path d="M165.801 87.2992C164.901 85.1992 163.901 83.0992 162.901 81.0992C162.501 80.2992 162.301 79.3992 161.501 78.8992C161.101 78.5992 161.201 77.5992 160.901 76.8992L160.101 75.4992L159.401 74.1992C159.201 73.8992 159.101 73.5992 158.901 73.3992H158.801C158.801 73.2992 158.801 73.1992 158.801 73.1992C158.701 73.4992 158.601 73.7992 158.501 73.9992V74.2992L158.301 74.4992C158.301 74.4992 158.301 74.5992 158.201 74.6992L158.001 74.9992C156.701 76.8992 154.701 78.4992 152.701 79.8992C150.901 81.0992 148.901 81.0992 147.001 81.2992C145.001 81.5992 142.801 81.2992 141.001 80.5992C139.701 79.9992 138.501 79.2992 137.201 78.7992C136.401 78.4992 135.601 78.2992 134.801 77.7992C134.101 77.2992 133.501 76.4992 132.501 76.4992C132.501 76.4992 132.201 76.1992 132.101 75.9992C131.701 75.0992 130.801 74.3992 130.101 74.0992C129.401 73.7992 128.901 73.2992 128.501 72.7992L128.001 72.2992C128.001 72.2992 127.801 71.9992 127.701 72.2992C127.701 72.2992 127.701 72.4992 127.601 72.5992L127.401 73.0992C127.301 73.3992 127.201 73.7992 127.001 74.0992C126.701 74.7992 126.501 75.4992 126.001 75.9992C125.201 77.0992 124.601 78.2992 123.901 79.3992C123.501 80.0992 122.801 80.5992 122.901 81.4992C122.901 81.4992 122.701 81.7992 122.601 81.8992C121.601 82.4992 120.901 83.3992 120.201 84.2992C119.501 85.1992 118.701 86.0992 117.701 86.6992C115.601 87.8992 113.501 89.0992 111.201 89.7992C110.601 89.9992 109.901 89.9992 109.401 90.5992C109.201 90.7992 108.601 90.8992 108.201 90.8992C106.301 90.5992 104.501 90.9992 102.701 90.8992C102.201 90.8992 101.701 90.7992 101.101 90.6992L99.6008 90.4992C99.6008 90.4992 99.5008 90.4992 99.4008 90.3992C99.4008 90.3992 99.2008 90.1992 98.9008 89.9992C98.7008 89.8992 98.6008 90.3992 99.1008 90.8992C99.2008 90.9992 99.2008 91.0992 99.1008 91.1992C99.1008 91.1992 99.1008 91.1992 99.1008 91.3992V91.6992C99.1008 91.8992 99.1008 92.0992 99.1008 92.1992C99.1008 92.7992 99.4008 93.2992 99.4008 93.8992C99.4008 94.3992 99.1008 94.7992 99.0008 95.2992C99.0008 95.3992 99.0008 95.5992 99.0008 95.7992C99.6008 98.4992 98.7008 101.199 99.0008 103.899C99.3008 106.599 99.4008 109.399 99.5008 112.099C99.5008 113.599 99.5008 115.199 98.5008 116.299C98.0008 116.799 97.5008 116.899 97.1008 116.299C96.8008 115.799 96.5008 115.299 96.4008 114.799C96.2008 113.899 96.0008 113.099 95.8008 112.199C95.5008 110.399 94.8008 108.699 95.0008 106.799C95.0008 106.199 94.7008 105.599 95.2008 105.099C95.2008 105.099 95.2008 104.799 95.2008 104.699C94.3008 102.299 94.8008 99.6992 94.8008 97.1992C94.8008 96.0992 94.6008 95.0992 94.5008 93.9992C94.5008 93.4992 94.5008 92.8992 94.5008 92.3992C94.5008 92.0992 94.5008 91.8992 94.5008 91.5992V91.1992L94.6008 90.5992C94.4008 89.5992 94.3008 88.4992 94.3008 87.3992C94.3008 86.1992 94.5008 85.0992 94.6008 84.0992C94.8008 84.1992 95.1008 84.2992 95.3008 84.3992C96.4008 84.7992 97.4008 85.2992 98.3008 85.5992L99.8008 86.0992H100.201C100.201 86.1992 100.301 86.2992 100.301 86.2992H100.401H100.701C101.201 86.4992 101.601 86.5992 102.101 86.5992C102.601 86.5992 103.001 86.6992 103.501 86.5992C105.401 86.5992 107.301 86.2992 109.101 85.7992C112.801 84.8992 116.101 82.6992 118.501 79.6992C118.901 79.1992 118.901 78.4992 119.601 77.9992C120.201 77.4992 120.501 76.5992 120.901 75.7992C121.301 75.0992 121.501 74.2992 121.901 73.5992C122.301 73.0992 122.601 72.5992 122.901 71.9992C123.001 71.6992 123.201 71.3992 123.301 71.1992L123.501 70.6992L123.801 69.8992C124.501 67.8992 125.201 65.7992 125.901 63.6992C126.801 64.6992 127.701 65.5992 128.601 66.6992L130.001 68.2992L131.201 69.5992C131.801 70.1992 132.301 70.7992 132.901 71.2992C134.101 72.3992 135.301 73.3992 136.601 74.1992C138.201 75.1992 140.001 75.6992 141.601 76.2992C142.301 76.5992 143.201 76.3992 143.801 77.0992C144.001 77.2992 144.801 76.8992 145.201 76.8992C146.401 76.8992 147.601 76.7992 148.601 76.4992C150.101 76.0992 151.401 75.2992 152.601 74.0992C152.901 73.6992 153.201 73.2992 153.501 72.8992L153.901 72.1992L154.101 71.8992L154.501 71.2992C155.701 69.2992 156.901 66.7992 158.101 64.6992L158.501 64.0992C159.201 65.2992 159.901 66.6992 160.501 67.8992C161.101 69.0992 161.801 70.2992 162.401 71.4992L162.901 72.3992L163.201 72.8992L163.801 73.9992C164.201 74.6992 164.601 75.3992 164.801 76.1992C165.701 78.9992 167.201 81.4992 168.401 84.1992C169.601 86.8992 170.601 89.4992 171.801 92.1992C172.501 93.6992 172.501 95.2992 173.101 96.7992C173.401 97.4992 172.301 98.8992 171.701 98.7992C171.601 98.7992 171.501 98.6992 171.401 98.5992C170.401 97.2992 169.301 96.1992 168.701 94.5992C167.801 92.1992 166.801 89.7992 165.701 87.3992L165.801 87.2992Z" fill="black"/>
<path d="M128.8 89.2992C128.8 89.2992 128.8 89.0992 128.8 88.9992C128.8 88.9992 129 88.9992 128.5 88.8992C128.2 88.8992 128.9 88.8992 128.8 88.8992C128.8 88.8992 128.8 88.6992 128.8 88.5992C128.8 88.5992 128.5 88.3992 128.5 88.2992C128.5 88.2992 128.7 88.0992 128.5 88.0992C128.2 88.0992 128.7 87.9992 128.6 87.8992C128.5 87.8992 128.4 87.7992 128.6 87.6992C128.8 87.6992 129 87.5992 128.9 87.4992H128.5C128.5 87.4992 128.8 87.4992 128.2 87.4992C128.2 87.4992 128.2 87.4992 128.3 87.4992C128.7 87.4992 128.7 87.4992 128.3 87.3992C128 87.3992 128.1 87.3992 128 87.3992C128 87.3992 128 87.2992 128 87.1992C128 87.1992 128.3 87.0992 128.3 86.9992C128.3 86.9992 128.1 86.9992 128.3 86.7992C128.6 86.7992 128.6 86.6992 128.6 86.5992C128.6 86.5992 128.9 86.5992 128.2 86.5992C129 86.3992 127.9 86.4992 128.2 86.3992C128.4 86.2992 128.2 86.1992 128.2 86.0992C128.2 86.0992 128.4 86.0992 127.9 86.0992C127.7 86.0992 127.7 86.0992 127.9 86.0992C128.5 85.9992 128.1 85.8992 128.2 85.8992C128.3 85.8992 128 85.7992 128.5 85.5992C128.7 85.5992 128.8 85.4992 128.2 85.5992H127.9C127.9 85.5992 128.1 85.5992 128.2 85.4992C127.5 85.4992 128.4 85.1992 128.2 85.1992C128 85.1992 128.1 84.9992 128.2 84.8992C128.2 84.8992 128.4 84.6992 129.5 84.4992C130 84.3992 130.5 84.2992 130.9 84.1992C131.1 84.1992 131.4 84.1992 131.4 84.1992C131.5 84.1992 131.6 84.1992 131.7 84.1992C131.9 84.1992 132.4 84.1992 132.2 84.3992C132.2 84.3992 132.4 84.3992 131.9 84.4992C132.7 84.4992 132.2 84.6992 132.3 84.7992C132.3 84.7992 133 84.7992 132.8 84.9992C133.4 84.9992 133.3 84.9992 133.2 85.0992C132.6 85.3992 133 85.4992 133 85.7992C133 85.9992 133 86.1992 133 86.3992C133 86.3992 133.4 86.3992 133 86.4992C132.7 86.4992 133 86.4992 133 86.5992C133 86.5992 133.1 86.5992 133 86.6992C132.4 86.8992 132.8 86.9992 132.7 87.1992C132.7 87.3992 132.6 87.4992 132.7 87.6992C132.8 87.6992 133.2 87.8992 133 87.9992C133 87.9992 133.3 87.9992 132.7 88.0992C132.5 88.0992 133 88.0992 133 88.0992C133 88.0992 133 88.1992 133 88.2992C133 88.2992 133 88.4992 133 88.5992C133 88.5992 133.3 88.6992 133.3 88.7992C133.3 88.7992 133.3 88.8992 133.3 88.9992C133.3 88.9992 133 89.0992 132.9 89.1992C132.9 89.1992 133.1 89.3992 132.9 89.3992C132.4 89.4992 132.6 89.6992 132.6 89.7992C132.6 89.8992 132.5 90.0992 132.6 90.1992C132.6 90.1992 132.2 90.2992 132.2 90.3992C132.2 90.3992 131.8 90.3992 131.4 90.3992C131 90.3992 130.5 90.3992 130.2 90.3992H130C129.5 90.2992 128.8 90.1992 128.9 90.0992C128.9 89.9992 128.9 89.8992 128.9 89.7992L128.8 89.2992Z" fill="black"/>
<path d="M130.8 211.499C130.5 210.699 130.2 209.799 129.9 208.899C129.8 208.599 129.9 208.199 129.4 207.999C129.1 207.899 129.6 207.399 129.6 207.099C129.4 206.299 129.3 205.499 129.1 204.599C128.9 203.799 128.6 202.999 128.5 202.199C128.4 201.399 128.6 200.599 128.3 199.799C128 199.099 128.5 198.499 128.3 197.899C128.2 197.199 128.1 196.499 128.3 195.899C128.5 195.399 128.7 194.999 128.6 194.499C128.6 194.199 128.2 193.899 128.3 193.599C128.3 193.299 128.6 192.999 128 192.699C128 192.699 128 192.599 128.2 192.499C128.6 192.199 128.6 191.799 128.4 191.499C128.1 191.199 128.2 190.999 128.2 190.799C128.2 190.099 128.2 189.499 128.4 188.799C128.4 188.299 128.8 187.899 128.9 187.399C129 186.899 128.8 186.299 129.1 185.899C129.4 185.499 129.5 184.999 129.5 184.599C129.5 184.299 129.8 184.099 129.2 183.799C129.2 183.799 129.2 183.699 129.2 183.599C130.1 182.899 129 182.099 129.2 181.399C129.4 180.699 129.3 179.899 129.3 179.099C129.3 178.899 129.5 178.699 129 178.499C128.8 178.499 128.8 178.199 129 178.099C129.6 177.499 129.2 176.999 129.3 176.399C129.3 175.699 129.1 175.099 129.5 174.399C129.7 174.099 129.8 173.699 129.1 173.499C128.8 173.399 129.1 172.999 129 172.799C129 172.599 128.6 172.499 128.6 172.299C128.6 172.199 128.8 171.999 128.9 171.799V171.699C128.1 170.999 128.7 169.899 128.2 169.199C127.7 168.499 127.4 167.699 127 166.999C126.8 166.599 126.7 166.199 127.2 165.099C127.5 164.599 127.8 164.199 128.2 164.199C128.5 164.199 128.8 164.199 129 164.199C129.3 164.399 129.6 164.599 129.9 164.799C130.5 165.299 131.3 165.699 131.4 166.499C131.4 166.699 131.8 166.899 131.4 167.299V167.499C132.5 168.099 132.3 169.299 132.6 170.299C132.8 171.099 133.6 171.799 133.4 172.699C134.1 173.099 134 173.599 133.9 174.099C133.4 175.799 133.9 177.299 133.8 178.899C133.7 180.499 133.8 182.099 133.6 183.699C133.6 183.999 133.9 184.199 133.6 184.499C133.3 184.799 133.5 185.199 133.5 185.499C133.5 185.799 133.5 186.099 133.5 186.399C132.7 187.599 133 188.799 132.9 189.999C132.7 191.199 132.6 192.399 132.7 193.599C132.7 194.299 133.1 195.099 132.9 195.799C132.9 196.099 133.2 196.399 132.6 196.699C132.4 196.699 132.9 197.099 132.9 197.299C132.9 197.799 132.9 198.299 132.9 198.799C132.9 199.499 132.9 200.199 132.9 200.799C132.9 201.199 133.2 201.599 133.3 201.999C133.3 202.399 133.5 202.799 133.4 203.299C133.4 203.799 133.3 204.399 133.3 204.899C133.3 205.499 133.7 205.999 133.6 206.499C133.3 207.599 133.9 208.499 134.1 209.399C134.4 210.299 134.7 211.199 135.3 211.999C135.6 212.399 135.3 213.099 135.7 213.599C135.8 213.799 134.8 214.899 134.3 215.099C134.3 215.099 134.1 215.099 134 215.099C133.3 214.899 132.4 214.699 132.1 214.099C131.7 213.199 131.2 212.199 130.8 211.299V211.499Z" fill="black"/>
<path d="M94.6995 209.898C94.8995 208.398 95.0995 206.898 95.2995 205.498C95.2995 204.898 95.6995 204.398 95.2995 203.798C95.0995 203.498 95.7995 203.098 95.8995 202.598C96.0995 201.198 96.4995 199.898 96.7995 198.498C97.0995 197.198 97.1995 195.798 97.5995 194.498C97.8995 193.198 98.5995 191.998 98.7995 190.598C98.8995 189.398 99.6995 188.698 99.9995 187.598C100.3 186.498 100.7 185.398 101.3 184.498C101.8 183.798 102.3 183.198 102.5 182.398C102.6 181.898 102.5 181.398 102.8 180.898C103 180.498 103.5 180.098 103.1 179.398C103.1 179.398 103.3 179.198 103.4 179.098C104 178.798 104.2 178.198 104.2 177.698C104.2 177.198 104.3 176.898 104.5 176.498C104.9 175.498 105.3 174.498 105.7 173.498C106 172.798 106.5 172.098 106.8 171.398C107.1 170.598 107.1 169.698 107.6 168.998C108.1 168.298 108.3 167.598 108.5 166.798C108.6 166.398 109 165.898 108.5 165.398C108.5 165.398 108.5 165.198 108.5 165.098C109.6 164.098 108.8 162.598 109.2 161.398C109.7 160.198 109.8 158.798 109.9 157.498C109.9 157.098 110.2 156.798 109.8 156.398C109.7 156.298 109.7 155.898 109.8 155.698C110.6 154.798 110.3 153.698 110.6 152.698C110.9 151.598 110.7 150.398 111.3 149.298C111.6 148.798 111.7 148.198 111.3 147.498C111.1 147.198 111.3 146.698 111.3 146.198C111.3 145.798 111 145.498 111.1 145.098C111.1 144.798 111.4 144.498 111.5 144.198C111.5 144.198 111.5 143.998 111.5 143.898C110.9 142.198 111.9 140.498 111.8 138.798C111.7 137.098 111.8 135.398 111.8 133.598C111.8 132.698 112 131.698 113.1 130.998C113.6 130.698 114.2 130.698 114.5 130.998C114.7 131.298 115 131.598 115 131.998C115.1 132.598 115.3 133.098 115.3 133.598C115.5 134.698 116 135.898 115.7 136.998C115.7 137.398 115.9 137.798 115.4 138.098C115.4 138.098 115.3 138.298 115.4 138.398C116.1 139.998 115.6 141.598 115.5 143.198C115.5 144.498 116 145.898 115.6 147.198C116.2 147.998 116 148.898 115.6 149.598C114.7 152.198 114.8 154.898 114.3 157.498C113.8 160.198 113.3 162.898 112.7 165.498C112.6 165.898 112.8 166.398 112.4 166.898C112 167.298 112.1 167.998 111.9 168.598C111.7 169.098 111.7 169.698 111.4 170.198C110.8 171.098 110.4 172.098 110 173.198C109.6 174.198 109.3 175.298 108.9 176.298C108 178.198 107.1 180.098 106.4 182.098C106 183.298 105.8 184.598 105.1 185.698C104.8 186.198 104.9 186.798 104.2 187.098C104 187.098 104.2 187.798 104.2 188.098C103.9 188.898 103.6 189.698 103.3 190.498C102.9 191.598 102.5 192.698 102.1 193.898C101.9 194.598 101.9 195.398 101.8 196.098C101.7 196.798 101.4 197.598 101.2 198.298C100.9 199.198 100.4 200.098 100.2 200.998C99.8995 201.998 99.9995 202.998 99.4995 203.898C98.6995 205.498 98.5995 207.298 98.3995 209.098C98.0995 210.798 97.8995 212.598 97.8995 214.398C97.8995 215.398 97.3995 216.298 97.2995 217.298C97.2995 217.798 95.7995 218.298 95.2995 218.098C95.2995 218.098 95.0995 217.998 95.0995 217.898C94.6995 216.898 93.9995 215.998 94.0995 214.798C94.2995 213.098 94.3995 211.398 94.4995 209.798L94.6995 209.898Z" fill="black"/>
<path d="M112.4 220.8C112.1 220.8 111.7 220.8 111.4 220.9C111.3 220.9 111.1 220.7 111 221.2C111 221.5 110.8 220.8 110.7 220.9C110.4 220.9 110 220.9 109.7 220.9C109.4 220.9 109.1 221.2 108.8 221.2C108.5 221.2 108.2 221 107.9 221.2C107.6 221.5 107.4 221 107.2 221.1C106.9 221.2 106.6 221.3 106.4 221.1C106.2 220.9 106.1 220.7 105.9 220.8C105.8 220.8 105.6 221.2 105.5 221.1C105.4 221.1 105.3 220.8 105.1 221.4C105.1 221.4 105.1 221.4 105.1 221.2C105.1 220.8 104.9 220.8 104.7 221.1C104.6 221.4 104.5 221.3 104.4 221.3C104.1 221.3 103.9 221.3 103.6 221.3C103.4 221.3 103.2 221 103.1 220.9C102.9 220.9 102.6 221.1 102.5 220.7C102.4 220.4 102.2 220.4 102 220.3C101.9 220.3 101.8 220 101.6 220.6C101.4 219.7 101 220.8 100.7 220.6C100.4 220.3 100.1 220.4 99.8004 220.4C99.8004 220.4 99.7004 220.2 99.5004 220.6C99.5004 220.8 99.4004 220.8 99.3004 220.6C99.2004 219.9 98.9004 220.3 98.7004 220.1C98.5004 219.9 98.1004 220.1 98.0004 219.6C98.0004 219.4 97.8004 219.2 97.5004 219.8C97.4004 220.1 97.3004 219.8 97.2004 219.8C97.2004 219.8 97.0004 220.1 96.9004 220.1C96.9004 220.1 96.9004 219.8 96.8004 219.7C96.3004 220.3 96.1004 219.3 95.7004 219.4C95.3004 219.4 94.9004 219.4 94.5004 219.2C94.3004 219.2 94.1004 218.9 94.2004 217.7C94.2004 217.2 94.4004 216.6 94.5004 216.3C94.6004 216.1 94.7004 215.9 94.8004 215.8C94.9004 215.8 95.1004 215.6 95.2004 215.6C95.5004 215.5 95.8004 215 96.0004 215.3C96.0004 215.4 96.2004 215.1 96.2004 215.6C96.7004 214.9 96.9004 215.5 97.3004 215.6C97.6004 215.6 98.0004 215.1 98.2004 215.4C98.5004 214.8 98.7004 215 98.8004 215.2C99.2004 216 99.9004 215.6 100.5 215.8C101.1 216 101.7 216 102.2 216.1C102.2 216.1 102.4 215.8 102.5 216.1C102.5 216.4 102.7 216.1 102.9 216.2C103 216.2 103.2 216.2 103.2 216.2C103.6 216.9 104.1 216.6 104.5 216.7C104.9 216.8 105.4 216.9 105.9 216.8C106.2 216.8 106.5 216.4 106.7 216.6C106.8 216.6 107 216.3 107 216.9C107 217.1 107.2 216.6 107.2 216.6C107.4 216.6 107.6 216.6 107.8 216.6C108.1 216.6 108.3 216.6 108.6 216.6C108.8 216.6 108.9 216.3 109.1 216.3C109.3 216.3 109.4 216.3 109.6 216.3C109.8 216.3 110 216.6 110.2 216.6C110.4 216.6 110.6 216.4 110.8 216.6C111.2 217.1 111.6 216.8 112 216.8C112.4 216.8 112.8 216.8 113.1 216.7C113.3 216.7 113.6 217.1 113.8 217C113.8 217 114.3 218.4 114.3 218.9V219.1C114.2 219.6 114 220.3 113.8 220.3C113.4 220.3 113 220.3 112.6 220.4L112.4 220.8Z" fill="black"/>
<path d="M112.799 218.698C112.799 218.398 112.799 217.998 112.799 217.698C112.799 217.598 112.999 217.398 112.499 217.298C112.199 217.298 112.899 217.098 112.799 216.998C112.799 216.698 112.799 216.398 112.799 215.998C112.799 215.698 112.499 215.398 112.399 215.098C112.399 214.798 112.599 214.498 112.299 214.198C111.999 213.998 112.499 213.698 112.299 213.498C112.199 213.198 112.099 212.998 112.299 212.698C112.499 212.498 112.699 212.298 112.599 212.098C112.599 211.998 112.199 211.898 112.199 211.798C112.199 211.698 112.499 211.498 111.899 211.498C111.899 211.498 111.899 211.498 111.999 211.498C112.399 211.398 112.399 211.198 111.999 211.098C111.699 211.098 111.799 210.898 111.699 210.798C111.699 210.498 111.699 210.298 111.699 209.998C111.699 209.798 111.999 209.598 111.999 209.398C111.999 209.198 111.799 208.998 111.999 208.798C112.299 208.598 112.299 208.398 112.299 208.198C112.299 208.098 112.599 207.998 111.899 207.898C112.699 207.598 111.599 207.298 111.899 206.998C112.099 206.698 111.899 206.398 111.899 205.998C111.899 205.998 112.099 205.798 111.599 205.698C111.399 205.698 111.399 205.598 111.599 205.498C112.199 205.298 111.799 204.998 111.899 204.798C111.999 204.498 111.699 204.198 112.199 203.998C112.399 203.898 112.499 203.698 111.899 203.598C111.599 203.598 111.899 203.398 111.899 203.298L111.599 203.098C111.599 203.098 111.799 202.998 111.899 202.898C111.199 202.498 112.099 202.098 111.899 201.698C111.699 201.298 111.899 200.898 111.899 200.498C111.899 200.298 112.099 199.998 113.299 199.898C113.799 199.898 114.399 199.898 114.699 199.898C114.899 199.898 115.199 200.098 115.199 200.098C115.199 200.198 115.399 200.398 115.499 200.498C115.699 200.798 116.199 200.998 115.899 201.298C115.899 201.298 116.099 201.498 115.599 201.498C116.399 201.898 115.899 202.198 115.899 202.598C115.899 202.898 116.599 203.198 116.299 203.498C116.899 203.698 116.799 203.898 116.599 203.998C115.899 204.598 116.399 205.198 116.299 205.798C116.299 206.398 116.299 206.998 116.299 207.598C116.299 207.698 116.699 207.798 116.299 207.898C115.999 207.998 116.299 208.198 116.299 208.298C116.299 208.398 116.399 208.598 116.299 208.698C115.599 209.198 116.099 209.698 115.999 210.198C115.999 210.698 115.899 211.198 115.999 211.598C116.099 211.898 116.499 212.198 116.299 212.498C116.299 212.598 116.599 212.798 115.999 212.898C115.799 212.898 116.299 212.998 116.299 213.098C116.299 213.298 116.299 213.498 116.299 213.698C116.299 213.998 116.299 214.298 116.299 214.498C116.299 214.698 116.599 214.798 116.699 214.998C116.699 215.198 116.699 215.398 116.699 215.498C116.699 215.698 116.399 215.998 116.399 216.198C116.399 216.398 116.599 216.698 116.399 216.898C115.899 217.298 116.199 217.698 116.099 218.198C116.099 218.598 116.099 218.998 116.099 219.398C116.099 219.598 115.699 219.898 115.699 220.098C115.699 220.198 114.199 220.398 113.699 220.398H113.499C112.999 220.198 112.299 219.998 112.299 219.798C112.299 219.398 112.299 218.998 112.299 218.598L112.799 218.698Z" fill="black"/>
<path d="M133.3 221.302C133.1 221.302 132.9 221.302 132.7 221.402C132.7 221.402 132.5 221.202 132.5 221.702C132.5 222.002 132.3 221.302 132.3 221.402C132.1 221.402 131.9 221.402 131.8 221.502C131.6 221.502 131.5 221.802 131.3 221.902C131.1 221.902 130.9 221.702 130.8 222.002C130.7 222.302 130.5 221.802 130.4 222.002C130.3 222.102 130.1 222.202 129.9 222.002C129.8 221.802 129.7 221.602 129.6 221.702C129.6 221.702 129.6 222.102 129.4 222.102C129.4 222.102 129.2 221.802 129.2 222.502C129.2 222.502 129.2 222.502 129.2 222.402C129.1 222.002 129 222.002 129 222.402C129 222.702 129 222.602 128.8 222.702C128.6 222.702 128.5 222.702 128.3 222.702C128.2 222.702 128.1 222.402 127.9 222.402C127.8 222.402 127.7 222.602 127.5 222.402C127.4 222.102 127.3 222.102 127.2 222.102C127.2 222.102 127.1 221.802 127 222.502C126.8 221.702 126.7 222.802 126.5 222.502C126.3 222.302 126.1 222.502 125.9 222.502C125.9 222.502 125.8 222.302 125.8 222.802C125.8 223.002 125.8 223.002 125.8 222.802C125.6 222.202 125.5 222.602 125.4 222.502C125.2 222.402 125.1 222.702 124.9 222.202C124.9 222.002 124.7 221.902 124.7 222.502C124.7 222.802 124.6 222.502 124.5 222.502C124.5 222.502 124.5 222.802 124.4 222.802C124.4 222.802 124.4 222.602 124.3 222.502C124.1 223.202 123.8 222.302 123.6 222.502C123.4 222.702 123.1 222.502 122.9 222.502C122.8 222.502 122.6 222.302 122.6 221.102C122.6 220.602 122.6 220.002 122.6 219.702C122.6 219.502 122.6 219.202 122.7 219.202C122.7 219.102 122.9 219.002 122.9 218.902C123 218.702 123.2 218.202 123.3 218.502C123.3 218.502 123.4 218.302 123.4 218.802C123.6 218.002 123.8 218.502 124 218.502C124.2 218.502 124.3 217.802 124.5 218.102C124.5 217.502 124.7 217.602 124.8 217.802C125.1 218.502 125.5 218.002 125.8 218.102C126.1 218.102 126.5 218.102 126.8 218.102C126.8 218.102 126.8 217.702 127 218.102C127 218.402 127.1 218.102 127.2 218.102C127.2 218.102 127.3 218.002 127.4 218.102C127.7 218.702 128 218.302 128.2 218.402C128.5 218.402 128.7 218.402 129 218.402C129.2 218.302 129.3 217.902 129.5 218.002C129.5 218.002 129.6 217.702 129.7 218.302C129.7 218.502 129.7 218.002 129.7 218.002C129.8 218.002 129.9 218.002 130 218.002C130.2 218.002 130.3 218.002 130.5 218.002C130.5 218.002 130.7 217.702 130.7 217.602C130.7 217.602 130.9 217.602 131 217.602C131.1 217.602 131.3 217.902 131.4 217.902C131.5 217.902 131.6 217.702 131.8 217.902C132.1 218.402 132.3 218.102 132.5 218.102C132.7 218.102 133 218.102 133.2 218.002C133.3 218.002 133.5 218.402 133.6 218.402C133.6 218.402 134 219.802 134 220.302V220.502C134 221.002 134 221.702 133.8 221.702C133.6 221.702 133.4 221.702 133.1 221.702L133.3 221.302Z" fill="black"/>
<path d="M187.9 213.601C187.9 212.401 188.1 211.201 188 210.001C188 209.601 188.2 209.101 187.7 208.601C187.4 208.401 188.1 207.901 188 207.501C187.9 206.401 188 205.201 187.8 204.101C187.7 203.001 187.4 201.901 187.2 200.801C187.1 199.701 187.2 198.501 186.9 197.501C186.6 196.601 186.9 195.701 186.8 194.801C186.6 193.901 186.4 192.901 186.6 192.001C186.7 191.301 186.9 190.601 186.6 190.001C186.5 189.601 186.1 189.301 186.1 188.801C186.1 188.401 186.3 187.901 185.6 187.601C185.6 187.601 185.6 187.401 185.7 187.301C186 186.801 185.9 186.301 185.7 185.901C185.4 185.601 185.4 185.301 185.3 184.901C185.1 184.001 184.9 183.101 184.8 182.201C184.8 181.501 184.8 180.801 184.7 180.101C184.6 179.401 184.1 178.701 184.3 178.001C184.4 177.301 184.3 176.701 184 176.001C183.9 175.601 184 175.101 183.3 175.001C183.3 175.001 183.2 174.901 183.3 174.801C183.8 173.501 182.4 172.901 182.2 171.801C182 170.701 181.5 169.601 181 168.601C180.9 168.301 181 167.901 180.4 167.801C180.2 167.801 180.1 167.501 180.1 167.301C180.4 166.301 179.7 165.601 179.5 164.701C179.3 163.701 178.6 162.901 178.7 161.701C178.7 161.201 178.7 160.601 177.9 160.301C177.6 160.201 177.7 159.601 177.5 159.301C177.4 159.001 177 158.801 176.9 158.501C176.9 158.301 176.9 157.901 176.9 157.601V157.401C176.4 156.801 176.2 156.001 176.1 155.301C176.1 154.501 176 153.701 175.7 153.001C175.2 151.501 175 149.901 174.9 148.301C174.9 147.401 174.9 146.501 176.1 145.901C176.6 145.601 177.2 145.601 177.5 145.901C177.8 146.101 178 146.401 178.1 146.701C178.2 147.101 178.4 147.601 178.6 148.001C178.9 148.901 179.6 149.701 179.5 150.701C179.5 151.001 179.8 151.301 179.4 151.601V151.801C180.4 152.901 180.3 154.201 180.7 155.501C181.1 156.601 182 157.401 182.1 158.501C182.9 158.901 183 159.601 183.1 160.201C183.2 162.501 184.5 164.401 185.2 166.601C185.9 168.801 186.8 170.901 187.5 173.201C187.6 173.601 188.1 173.801 187.9 174.301C187.8 174.801 188.1 175.301 188.3 175.801C188.4 176.201 188.7 176.701 188.7 177.201C188.5 179.101 189.3 180.901 189.6 182.701C189.9 184.501 190.1 186.301 190.5 188.101C190.7 189.201 191.2 190.201 191.2 191.401C191.2 191.901 191.6 192.301 191 192.901C190.8 193.001 191.3 193.401 191.4 193.701C191.5 194.401 191.5 195.201 191.6 196.001C191.6 197.001 191.7 198.101 191.9 199.101C191.9 199.701 192.3 200.301 192.4 201.001C192.5 201.701 192.6 202.301 192.5 203.001C192.5 203.901 192.3 204.701 192.3 205.601C192.3 206.501 192.6 207.401 192.3 208.301C191.8 209.901 192.1 211.501 191.9 213.101C191.7 214.701 191.6 216.301 191.4 217.901C191.4 218.401 191.2 218.801 191 219.201V219.501C190.8 219.601 190.7 219.901 190.6 220.001C190.4 220.301 190.2 220.601 189.9 221.001C189.7 221.201 189.5 221.301 189.1 221.301C188.8 221.301 188.4 221.201 188.2 220.901C188 220.601 188.1 220.401 188.2 220.201C188.2 220.001 188.4 219.901 188.5 219.801C188.5 219.801 188.5 219.801 188.5 219.601C188.5 219.601 188.5 219.401 188.3 219.401L188.1 219.201C188.1 219.201 187.9 219.001 187.8 218.901C187.8 218.901 187.5 218.901 187.7 218.901C187.7 218.801 187.7 218.701 187.7 218.601C187.7 218.401 187.7 218.201 187.7 217.901C188 216.601 188.1 215.301 188.2 213.901L187.9 213.601Z" fill="black"/>
<path d="M168.7 219.899C168 219.899 167.2 219.699 166.5 219.599C166.2 219.599 166 219.299 165.6 219.799C165.4 219.999 165.2 219.399 165 219.399C164.3 219.399 163.6 219.199 162.9 219.199C162.6 219.199 162.2 219.199 161.9 219.199H161.6C161.6 219.199 161.5 219.199 161.3 219.199C161 219.199 160.7 219.199 160.4 219.199C159.8 219.199 159.2 218.999 158.6 218.899C158.3 218.899 158 218.899 157.7 218.799C157.4 218.799 156.9 218.899 157 218.599C156.9 218.199 157 217.599 157 217.099C157 216.599 157.2 216.099 157.2 215.599C157.2 215.299 157.2 215.099 157.2 214.799C157.2 214.599 157.2 214.199 157.2 214.099C157.2 213.799 157.2 213.499 157.4 213.199C157.6 212.799 157.8 212.399 157.7 211.999C157.7 211.699 157.3 211.499 157.4 211.199C157.4 210.899 157.7 210.699 157.1 210.399C157.1 210.399 157.1 210.299 157.3 210.199C157.7 209.999 157.7 209.599 157.5 209.399C157.2 209.199 157.3 208.999 157.3 208.699C157.3 208.099 157.3 207.499 157.5 206.999C157.5 206.599 157.9 206.199 158 205.699C158.1 205.299 157.9 204.699 158.2 204.399C158.6 203.999 158.6 203.599 158.6 203.199C158.6 202.999 158.9 202.699 158.3 202.499V202.399C159.2 201.899 158.3 201.099 158.5 200.399C158.8 199.699 158.8 198.999 158.9 198.299C158.9 198.099 159.1 197.899 158.7 197.699C158.6 197.699 158.6 197.399 158.7 197.299C159.4 196.899 159.1 196.299 159.3 195.799C159.5 195.199 159.3 194.599 159.9 194.099C160.2 193.899 160.3 193.599 159.9 193.099C159.7 192.899 159.9 192.699 159.9 192.399C159.9 192.199 159.7 191.999 159.7 191.799C159.7 191.599 160 191.499 160.1 191.399C160.1 191.399 160.1 191.399 160.1 191.299C159.6 190.299 160.7 189.599 160.7 188.699C160.7 187.799 161 186.899 161.3 186.099C161.5 185.599 161.8 185.199 163 185.199C163.5 185.199 164.1 185.299 164.3 185.599C164.5 185.799 164.7 185.999 164.7 186.199C164.7 186.499 164.7 186.799 164.8 187.099C164.8 187.699 165.2 188.399 164.8 188.799C164.7 188.999 164.9 189.199 164.4 189.299C164.4 189.299 164.3 189.299 164.3 189.399C164.9 190.299 164.3 190.999 164.1 191.799C164.1 192.499 164.5 193.199 164.1 193.799C164.6 194.299 164.5 194.699 164.1 194.999C163.2 196.199 163.4 197.499 163.1 198.799C162.8 200.099 162.7 201.399 162.5 202.799C162.5 202.999 162.8 203.299 162.5 203.499C162.2 203.699 162.4 204.099 162.3 204.399C162.3 204.699 162.3 204.999 162.2 205.199C161.4 206.199 161.7 207.299 161.6 208.299C161.4 209.299 161.3 210.399 161.4 211.399C161.4 211.999 161.8 212.699 161.6 213.299C161.6 213.599 161.9 213.899 161.3 214.099C161.3 214.099 161.3 214.199 161.3 214.299C161.3 214.299 161.5 214.299 161.5 214.399V214.599C161.5 214.599 161.5 214.699 161.5 214.799C161.5 214.799 161.6 214.799 161.7 214.799C161.8 214.799 162 214.499 162 214.499C162 214.499 162.2 214.499 162.3 214.499C162.5 214.499 162.7 214.499 162.9 214.599C163.4 214.699 163.8 214.999 164.3 215.099C164.8 215.199 165.4 215.099 165.8 215.399C166.6 215.999 167.6 215.899 168.5 216.099C169.4 216.299 170.3 216.399 171.2 216.399C171.7 216.399 172.1 216.999 172.6 216.999C172.8 216.999 173 218.499 172.8 218.999C172.8 218.999 172.8 219.199 172.7 219.199C172.1 219.599 171.6 220.299 171 220.099C170.2 219.899 169.3 219.899 168.5 219.699L168.7 219.899Z" fill="black"/>
<path d="M171.301 219.5C171.301 219.2 171.501 218.8 171.501 218.5C171.501 218.4 171.801 218.3 171.301 218.1C171.101 218 171.701 218 171.701 217.9C171.701 217.6 171.901 217.3 171.901 217C171.901 216.7 171.801 216.3 171.801 216C171.801 215.7 172.201 215.4 171.901 215.1C171.701 214.8 172.201 214.7 172.201 214.4C172.201 214.1 172.201 213.8 172.401 213.6C172.601 213.5 172.901 213.3 172.801 213.1C172.801 213 172.501 212.8 172.501 212.7C172.501 212.6 172.801 212.5 172.201 212.3C172.201 212.3 172.201 212.3 172.401 212.3C172.801 212.3 172.801 212.1 172.601 211.9C172.401 211.7 172.401 211.7 172.401 211.6C172.401 211.3 172.401 211.1 172.601 210.8C172.601 210.6 173.001 210.5 173.001 210.3C173.001 210.1 172.901 209.8 173.201 209.7C173.501 209.6 173.601 209.4 173.601 209.2C173.601 209.1 173.901 209 173.301 208.8C174.201 208.7 173.201 208.2 173.401 207.9C173.701 207.6 173.601 207.3 173.601 207C173.601 207 173.801 206.9 173.401 206.7C173.201 206.7 173.201 206.6 173.401 206.5C174.101 206.4 173.701 206.1 173.901 205.9C174.101 205.7 173.901 205.3 174.301 205.1C174.501 205.1 174.701 204.9 174.101 204.6C173.801 204.5 174.101 204.4 174.101 204.3C174.101 204.3 173.801 204.1 173.801 204C173.801 204 174.001 204 174.201 203.8C173.601 203.3 174.501 203.1 174.401 202.6C174.301 202.2 174.401 201.8 174.601 201.4C174.601 201.2 174.901 201 176.101 201C176.601 201 177.201 201 177.501 201.2C177.701 201.3 177.901 201.4 178.001 201.5C178.001 201.6 178.201 201.8 178.301 201.9C178.501 202.2 178.901 202.5 178.601 202.8C178.501 202.8 178.801 203 178.301 203C179.001 203.5 178.501 203.8 178.501 204.1C178.501 204.4 179.101 204.8 178.801 205.1C179.401 205.4 179.301 205.6 179.001 205.7C178.201 206.2 178.601 206.9 178.401 207.5C178.201 208.1 178.201 208.7 178.001 209.4C178.001 209.5 178.301 209.7 178.001 209.7C177.701 209.7 177.901 210 177.901 210.1C177.901 210.2 177.901 210.4 177.901 210.5C177.201 210.9 177.501 211.4 177.301 211.9C177.101 212.4 177.001 212.8 177.001 213.4C177.001 213.7 177.301 214.1 177.101 214.3C177.101 214.4 177.301 214.6 176.701 214.6C176.501 214.6 176.901 214.8 177.001 214.9C177.001 215.1 177.001 215.3 176.901 215.5C176.901 215.8 176.701 216.1 176.701 216.3C176.701 216.5 176.901 216.7 176.901 216.9C176.901 217.1 176.901 217.3 176.801 217.4C176.701 217.6 176.401 217.8 176.301 218C176.201 218.2 176.401 218.5 176.101 218.7C175.501 219 175.701 219.5 175.501 219.9C175.401 220.3 175.201 220.6 175.201 221.1L171.601 220.9C171.601 220.6 172.001 220.3 171.901 220.1C171.901 220 173.301 219.7 173.801 219.6H174.001C174.501 219.8 175.201 219.9 175.201 220.2V220.4L171.501 220.2C171.501 219.9 171.601 219.6 171.701 219.3L171.301 219.5Z" fill="black"/>
</svg>
