<svg width="300" height="300" viewBox="0 0 300 300" fill="none" xmlns="http://www.w3.org/2000/svg">
<path d="M183.199 140.102C182.699 139.502 182.199 139.002 181.599 138.402C181.399 138.202 181.399 137.802 180.799 138.002C180.499 138.002 180.799 137.402 180.599 137.302C180.099 136.802 179.599 136.202 179.099 135.802C178.599 135.302 177.899 135.002 177.399 134.502C176.899 134.002 176.599 133.302 175.899 133.102C175.299 132.902 175.299 132.202 174.899 131.802C174.399 131.502 173.899 131.102 173.699 130.502C173.499 130.102 173.399 129.602 173.099 129.402C172.899 129.302 172.499 129.402 172.299 129.102C172.099 128.902 172.099 128.502 171.499 128.802C171.499 128.802 171.499 128.702 171.499 128.602C171.599 128.102 171.399 127.902 170.999 127.902C170.599 127.902 170.499 127.702 170.399 127.602C169.999 127.202 169.599 126.802 169.199 126.302C168.899 125.902 168.799 125.502 168.599 125.102C168.299 124.702 167.799 124.602 167.699 124.002C167.699 123.502 167.299 123.202 167.099 122.902C166.899 122.702 166.999 122.302 166.399 122.602C166.399 122.602 166.299 122.602 166.299 122.502C166.399 121.402 165.199 121.702 164.899 121.102C164.599 120.402 163.999 120.002 163.499 119.502C163.399 119.402 163.399 119.102 162.899 119.302C162.699 119.302 162.599 119.302 162.599 119.102C162.699 118.302 162.099 118.202 161.799 117.802C161.499 117.302 160.899 117.202 160.799 116.502C160.799 116.202 160.599 115.902 159.999 116.302C159.799 116.502 159.699 116.102 159.499 116.102C159.299 116.102 159.099 116.202 158.999 116.102C158.899 116.102 158.899 115.802 158.799 115.602C158.799 115.602 158.799 115.602 158.699 115.602C157.799 115.902 157.399 114.902 156.599 114.902C155.799 114.902 154.999 114.802 154.199 114.602C153.699 114.602 153.299 114.302 152.999 113.202C152.899 112.702 152.899 112.102 153.099 111.802C153.299 111.602 153.499 111.302 153.599 111.302C153.899 111.302 154.199 111.102 154.499 111.002C155.099 110.802 155.799 110.402 156.399 110.702C156.599 110.802 156.899 110.602 156.999 111.102C156.999 111.102 156.999 111.202 157.099 111.102C158.099 110.502 158.999 111.202 159.899 111.502C160.699 111.702 161.699 111.502 162.299 112.302C162.999 112.002 163.399 112.502 163.699 112.902C164.499 114.402 165.799 115.202 166.699 116.202C167.599 117.302 168.599 118.202 169.499 119.302C169.699 119.502 170.099 119.302 169.999 119.802C169.999 120.202 170.399 120.302 170.599 120.502C170.799 120.702 171.099 120.802 171.199 121.102C171.499 122.302 172.499 122.902 173.199 123.702C173.899 124.502 174.599 125.402 175.499 126.102C175.999 126.502 176.699 126.802 177.099 127.302C177.299 127.502 177.699 127.502 177.499 128.102C177.499 128.302 177.899 128.102 178.099 128.302C178.399 128.602 178.699 129.002 178.999 129.302C179.399 129.802 179.799 130.302 180.299 130.702C180.599 131.002 180.999 131.102 181.299 131.302C181.599 131.602 181.899 131.902 182.099 132.202C182.399 132.602 182.599 133.102 182.899 133.602C183.199 134.002 183.799 134.302 183.899 134.802C184.199 135.802 184.999 136.402 185.599 137.102C186.199 137.802 186.799 138.502 187.499 139.102C187.899 139.402 187.899 140.102 188.199 140.502C188.399 140.702 187.499 141.902 187.099 142.202H186.899C186.199 142.202 185.399 142.202 184.999 141.802C184.499 141.102 183.799 140.502 183.199 139.902V140.102Z" fill="black"/>
<path d="M166.099 147.302C166.499 147.102 166.799 147.002 167.199 146.702C167.299 146.702 167.599 146.702 167.499 146.202C167.499 145.902 167.899 146.402 167.999 146.402C168.299 146.202 168.699 146.102 168.999 145.902C169.299 145.702 169.499 145.302 169.799 145.102C170.099 144.902 170.599 145.102 170.799 144.602C170.999 144.202 171.399 144.602 171.599 144.302C171.799 144.102 172.099 143.902 172.499 144.002C172.799 144.002 173.099 144.202 173.199 144.002C173.199 143.902 173.199 143.502 173.399 143.502C173.499 143.502 173.799 143.702 173.699 143.002C173.699 143.002 173.699 143.002 173.899 143.002C174.199 143.302 174.399 143.202 174.399 143.002C174.399 142.702 174.499 142.702 174.599 142.602C174.899 142.502 175.199 142.302 175.499 142.302C175.699 142.302 175.999 142.302 176.299 142.302C176.499 142.302 176.699 141.902 176.999 142.102C177.299 142.302 177.499 142.202 177.699 142.102C177.799 142.102 178.099 142.302 177.899 141.602C178.499 142.302 178.499 141.102 178.899 141.202C179.299 141.202 179.599 141.002 179.999 140.902C179.999 140.902 180.299 141.002 180.199 140.502C180.199 140.302 180.199 140.302 180.399 140.402C180.899 140.902 180.999 140.402 181.299 140.402C181.599 140.402 181.899 140.002 182.299 140.402C182.499 140.602 182.699 140.602 182.699 140.002C182.699 139.702 182.899 140.002 182.999 139.802C182.999 139.802 182.999 139.402 183.199 139.402C183.199 139.402 183.399 139.602 183.499 139.702C183.799 138.902 184.499 139.702 184.899 139.302C185.299 139.002 185.799 138.902 186.299 138.902C186.599 138.902 186.899 138.902 187.399 140.002C187.599 140.502 187.799 141.002 187.699 141.402C187.699 141.702 187.699 141.902 187.599 142.002C187.499 142.102 187.399 142.302 187.299 142.402C187.099 142.702 186.899 143.302 186.599 143.102C186.499 143.102 186.499 143.402 186.199 142.902C185.999 143.802 185.499 143.402 185.099 143.602C184.799 143.802 184.599 144.502 184.199 144.302C184.199 145.002 183.999 144.902 183.699 144.802C182.799 144.402 182.299 145.002 181.599 145.202C180.899 145.302 180.299 145.702 179.599 145.902C179.499 145.902 179.599 146.302 179.299 146.102C179.099 145.902 178.999 146.102 178.799 146.202C178.699 146.202 178.599 146.402 178.399 146.302C177.599 145.902 177.299 146.502 176.699 146.602C176.199 146.702 175.599 146.902 175.199 147.302C174.899 147.502 174.799 148.002 174.399 148.002C174.199 148.002 174.199 148.402 173.899 147.902C173.799 147.802 173.899 148.202 173.799 148.302C173.599 148.402 173.399 148.502 173.199 148.602C172.899 148.702 172.599 148.802 172.299 149.002C172.099 149.102 172.099 149.402 171.899 149.602C171.699 149.702 171.599 149.802 171.299 149.902C170.999 149.902 170.699 149.902 170.399 149.902C170.099 149.902 169.999 150.302 169.599 150.202C168.899 150.002 168.599 150.402 168.199 150.602C167.699 150.802 167.299 150.902 166.899 151.302C166.699 151.502 166.199 151.202 165.999 151.302C165.899 151.302 165.099 150.102 164.899 149.702V149.502C164.899 149.002 164.799 148.202 165.099 148.102C165.499 148.002 165.899 147.702 166.299 147.502L166.099 147.302Z" fill="black"/>
<path d="M146.699 141.101C146.699 140.901 146.699 140.701 146.699 140.601C146.699 140.601 146.899 140.501 146.399 140.401C146.099 140.401 146.799 140.301 146.699 140.201C146.699 140.001 146.699 139.901 146.699 139.701C146.699 139.501 146.399 139.401 146.399 139.201C146.399 139.001 146.699 138.901 146.399 138.701C146.099 138.501 146.599 138.501 146.499 138.301C146.399 138.201 146.299 138.001 146.499 137.901C146.699 137.901 146.899 137.701 146.799 137.601C146.799 137.601 146.399 137.401 146.499 137.401C146.499 137.401 146.799 137.401 146.199 137.201C146.199 137.201 146.199 137.201 146.399 137.201C146.799 137.201 146.799 137.201 146.499 137.001C146.199 137.001 146.299 136.901 146.299 136.801C146.299 136.701 146.299 136.501 146.299 136.401C146.299 136.401 146.599 136.201 146.699 136.201C146.699 136.201 146.499 135.901 146.799 135.901C147.099 135.901 147.099 135.801 147.099 135.701C147.099 135.701 147.399 135.701 146.799 135.501C147.599 135.501 146.599 135.101 146.799 135.001C146.999 134.901 146.899 134.701 146.999 134.501C146.999 134.501 147.199 134.501 146.799 134.301C146.599 134.201 146.599 134.301 146.799 134.301C147.399 134.301 147.099 134.101 147.199 134.001C147.399 133.901 147.199 133.701 147.599 133.701C147.799 133.701 147.899 133.701 147.399 133.401C147.199 133.301 147.399 133.401 147.399 133.201L147.099 133.001C147.099 133.001 147.299 133.001 147.499 133.001C146.899 132.601 147.899 132.701 147.799 132.401C147.799 132.101 147.799 132.001 147.999 131.801C147.999 131.801 148.299 131.701 149.399 132.001C149.899 132.201 150.399 132.401 150.699 132.601C150.899 132.701 151.099 132.801 151.099 132.901C151.099 132.901 151.299 133.101 151.299 133.201C151.399 133.401 151.899 133.701 151.599 133.701C151.599 133.701 151.799 133.901 151.299 133.701C151.999 134.101 151.399 134.101 151.399 134.301C151.399 134.401 151.999 134.801 151.699 134.801C152.299 135.101 152.099 135.101 151.899 135.101C151.199 135.101 151.499 135.501 151.399 135.801C151.199 136.001 151.299 136.301 151.199 136.601C151.199 136.601 151.499 136.801 151.199 136.801C150.899 136.801 151.199 136.901 151.199 137.001C151.199 137.001 151.299 137.101 151.199 137.201C150.499 137.201 150.899 137.601 150.799 137.801C150.799 138.001 150.599 138.201 150.799 138.401C150.799 138.501 151.199 138.701 151.099 138.801C151.099 138.801 151.399 138.901 150.799 138.901C150.599 138.901 151.099 138.901 151.099 139.001C151.099 139.001 151.099 139.201 151.099 139.301C151.099 139.401 151.099 139.501 151.099 139.701L151.399 139.901V140.101C151.399 140.101 151.099 140.301 150.999 140.401C150.999 140.501 151.199 140.601 150.999 140.701C150.499 140.901 150.699 141.101 150.699 141.301C150.699 141.501 150.699 141.701 150.699 141.801C150.699 141.801 150.299 142.001 150.299 142.101C150.299 142.101 148.799 142.301 148.299 142.401H148.099C147.599 142.401 146.899 142.301 146.899 142.101C146.899 141.901 146.899 141.701 146.899 141.501L146.699 141.101Z" fill="black"/>
<path d="M157.1 141.902C157.1 141.702 157.1 141.502 157.1 141.402C157.1 141.402 157.3 141.302 156.8 141.202C156.5 141.202 157.2 141.102 157.1 141.002C157.1 140.802 157.1 140.702 157.1 140.502C157.1 140.302 156.8 140.202 156.8 140.002C156.8 139.802 157.1 139.702 156.8 139.502C156.5 139.302 157 139.302 156.9 139.102C156.8 139.002 156.7 138.802 156.9 138.702C157.1 138.702 157.3 138.502 157.2 138.402C157.2 138.402 156.8 138.202 156.9 138.202C156.9 138.202 157.2 138.202 156.6 138.002C156.6 138.002 156.6 138.002 156.8 138.002C157.2 138.002 157.2 138.002 156.9 137.802C156.6 137.802 156.7 137.702 156.7 137.602C156.7 137.502 156.7 137.302 156.7 137.202C156.7 137.202 157 137.002 157.1 137.002C157.1 137.002 156.9 136.702 157.2 136.702C157.5 136.702 157.5 136.602 157.5 136.502C157.5 136.502 157.8 136.502 157.2 136.302C158 136.302 157 135.902 157.2 135.802C157.4 135.702 157.3 135.502 157.4 135.302C157.4 135.302 157.6 135.302 157.2 135.102C157 135.002 157 135.102 157.2 135.102C157.8 135.102 157.5 134.902 157.6 134.802C157.8 134.702 157.6 134.502 158 134.502C158.2 134.502 158.3 134.502 157.8 134.202C157.6 134.102 157.8 134.202 157.8 134.002L157.5 133.802C157.5 133.802 157.7 133.802 157.9 133.802C157.3 133.402 158.3 133.502 158.2 133.202C158.2 132.902 158.2 132.802 158.4 132.602C158.4 132.602 158.7 132.502 159.8 132.802C160.3 133.002 160.8 133.202 161.1 133.402C161.3 133.502 161.5 133.602 161.5 133.702C161.5 133.702 161.7 133.902 161.7 134.002C161.8 134.202 162.3 134.502 162 134.502C162 134.502 162.2 134.702 161.7 134.502C162.4 134.902 161.8 134.902 161.8 135.102C161.8 135.202 162.4 135.602 162.1 135.602C162.7 135.902 162.5 135.902 162.3 135.902C161.6 135.902 161.9 136.302 161.8 136.602C161.6 136.802 161.7 137.102 161.6 137.402C161.6 137.402 161.9 137.602 161.6 137.602C161.3 137.602 161.6 137.702 161.6 137.802C161.6 137.802 161.7 137.902 161.6 138.002C160.9 138.002 161.3 138.402 161.2 138.602C161.2 138.802 161 139.002 161.2 139.202C161.2 139.302 161.6 139.502 161.5 139.602C161.5 139.602 161.8 139.702 161.2 139.702C161 139.702 161.5 139.702 161.5 139.802C161.5 139.802 161.5 140.002 161.5 140.102C161.5 140.202 161.5 140.302 161.5 140.502L161.8 140.702V140.902C161.8 140.902 161.5 141.102 161.4 141.202C161.4 141.302 161.6 141.402 161.4 141.502C160.9 141.702 161.1 141.902 161.1 142.102C161.1 142.302 161.1 142.502 161.1 142.602C161.1 142.602 160.7 142.802 160.7 142.902C160.7 142.902 159.2 143.102 158.7 143.202H158.5C158 143.202 157.3 143.102 157.3 142.902C157.3 142.702 157.3 142.502 157.3 142.302L157.1 141.902Z" fill="black"/>
<path d="M171.5 152.002C172.4 153.002 173.2 154.002 174 154.902C174.3 155.302 174.4 155.802 175.2 155.802C175.6 155.802 175.4 156.602 175.7 156.902C176.5 157.802 177.2 158.802 178 159.702C178.4 160.202 178.8 160.502 179.2 161.002C179.8 161.702 180.4 162.402 181.1 163.302C182.1 164.502 182.8 165.702 183.7 167.002C183.2 167.202 182.7 167.302 182.3 167.502C181.6 167.802 180.7 168.002 179.9 168.202C179 168.302 178.2 168.502 177.5 168.702C177.3 168.702 177.1 168.802 176.9 168.902H176.4C176.2 169.102 175.9 169.202 175.6 169.202C175.1 169.302 174.6 169.302 174.1 169.202C173.4 169.202 172.6 169.002 171.9 169.202C171.5 169.302 171.1 169.702 170.6 169.702C170.1 169.702 169.6 169.502 169.2 170.102C169.2 170.102 169 170.102 168.9 170.002C168.4 169.602 167.8 169.702 167.4 170.002C167 170.302 166.6 170.202 166.3 170.202C165.3 170.202 164.2 170.202 163.2 170.002C162.4 169.902 161.7 169.602 160.9 169.402C160.1 169.302 159.2 169.402 158.5 169.002C157.8 168.602 157.1 168.402 156.4 168.302C156 168.302 155.6 167.802 155.1 168.302C155.1 168.302 154.9 168.302 154.8 168.302C153.9 167.202 152.5 167.902 151.4 167.302C150.3 166.702 149 166.402 147.9 165.902C147.6 165.802 147.3 165.402 146.9 165.702C146.7 165.702 146.4 165.702 146.3 165.402C145.8 164.402 144.7 164.202 143.9 163.602C143 162.902 142 162.402 141.4 161.302C141.2 160.802 140.8 160.302 140 160.302C139.6 160.302 139.4 159.702 139.1 159.402C138.8 159.202 138.4 159.102 138.2 158.802C138 158.602 138 158.202 137.9 157.902C137.9 157.902 137.9 157.702 137.7 157.702C137 157.202 136.5 156.402 136.3 155.602L135.9 154.402C135.8 154.002 135.7 153.602 135.5 153.202C134.7 151.702 134.4 149.902 134.3 148.202C134.3 147.302 134.4 146.302 135.5 145.702C136 145.402 136.6 145.402 136.9 145.702C137.2 146.002 137.4 146.202 137.5 146.502C137.6 147.002 137.7 147.402 137.9 147.802C138.1 148.202 138.3 148.702 138.5 149.102C138.7 149.502 138.9 149.902 138.9 150.402C138.9 150.702 139.2 150.902 138.9 151.302V151.502C139.5 151.902 139.7 152.502 140 153.002C140.1 153.302 140.2 153.602 140.3 153.902C140.4 154.202 140.6 154.502 140.8 154.702C141.1 155.102 141.5 155.502 141.9 155.802C142.3 156.102 142.7 156.402 143 156.902C143.8 156.902 144.2 157.402 144.5 157.902C145.6 159.802 147.7 160.602 149.6 161.602C151.5 162.602 153.6 163.302 155.8 163.902C156.2 163.902 156.6 163.702 156.9 164.102C157.2 164.502 157.8 164.402 158.3 164.502C158.7 164.502 159.2 164.502 159.6 164.802C161.2 165.802 163.1 165.602 164.8 165.702C166.5 165.902 168.3 165.902 170.1 165.702C171.2 165.502 172.2 165.102 173.2 165.102C173.7 165.102 174.1 164.702 174.6 165.102C174.8 165.202 175.1 164.702 175.4 164.602H175.8C175.8 164.502 176 164.502 176 164.502C176.1 164.502 176.3 164.502 176.4 164.502C176.4 164.502 176.4 164.402 176.2 164.302C176.1 164.202 175.7 164.102 175.6 164.102C175.6 164.102 175.5 164.102 175.4 163.902L175.2 163.702L174.9 163.302C174.4 162.602 174.1 161.802 173.6 161.102C173.1 160.402 172.3 159.802 172 159.002C171.4 157.502 170.2 156.402 169.2 155.202C168.2 154.002 167.2 152.802 166.1 151.702C165.5 151.102 165.3 150.202 164.7 149.502C164.4 149.202 165.1 147.802 165.6 147.602C165.6 147.602 165.8 147.602 165.9 147.602C166.8 147.902 167.9 148.002 168.5 148.702C169.4 149.802 170.5 150.902 171.4 152.002H171.5Z" fill="black"/>
<path d="M160 187.002L160.5 186.002C160.5 185.802 160.6 185.702 160.7 185.502C160.7 185.502 161.1 185.002 160.4 185.502C160 185.702 161 185.002 161 184.902V184.802H160.8C160.6 184.902 160.5 185.002 160.3 185.002C160.1 185.002 160 185.202 159.8 185.302H159.6C159.3 185.302 159 185.402 158.7 185.402C157.5 185.502 156.4 185.202 155.3 185.402C154.3 185.602 153.6 184.902 152.7 184.802C151.7 184.702 150.8 184.502 150 183.902C149.4 183.502 148.9 183.002 148.3 182.902C147.9 182.802 147.4 182.902 147 182.702C146.6 182.502 146.4 182.002 145.7 182.402C145.7 182.402 145.5 182.202 145.5 182.102C145.3 181.502 144.9 181.202 144.4 181.302C143.9 181.302 143.7 181.102 143.4 180.902C142.6 180.402 141.9 179.802 141.2 179.202C140.7 178.702 140.3 178.102 139.9 177.502C139.4 177.002 138.7 176.602 138.5 175.902C138.3 175.202 137.8 174.802 137.4 174.302C137.2 174.002 137.1 173.502 136.4 173.702C136.4 173.702 136.3 173.702 136.3 173.502C136.3 172.202 134.8 172.002 134.3 170.902C133.9 169.802 133.1 168.802 132.7 167.702C132.6 167.402 132.7 167.002 132.1 166.902C131.9 166.902 131.8 166.502 131.9 166.302C132.1 165.802 132 165.302 131.9 164.902C131.8 164.502 131.6 164.002 131.6 163.602C131.6 163.102 131.5 162.602 131.5 162.102C131.5 161.602 131.5 161.102 131.7 160.602C131.9 160.202 132 159.602 131.5 159.102C131.2 158.902 131.5 158.402 131.5 158.002C131.5 157.702 131.2 157.402 131.3 157.102C131.3 156.802 131.6 156.602 131.7 156.402V156.202C131.3 154.702 132.4 153.502 132.6 152.102C132.8 150.702 133.2 149.402 133.8 148.102C134.1 147.402 134.5 146.702 135.7 146.602C136.3 146.602 136.8 146.702 137 147.102C137.2 147.402 137.3 147.702 137.3 148.002C137.3 148.402 137.3 148.902 137.3 149.302C137.3 150.202 137.5 151.102 137 151.902C136.8 152.102 137 152.502 136.5 152.602C136.5 152.602 136.4 152.702 136.4 152.802C136.9 154.102 136.1 155.102 136 156.302C135.9 157.302 136.4 158.302 136 159.202C136.6 159.802 136.5 160.302 136.3 160.802C135.6 162.602 136.3 164.402 136.9 166.002C137.4 167.702 138.5 169.202 139.7 170.702C139.9 171.002 140.4 171.002 140.4 171.402C140.4 171.902 140.9 172.102 141.2 172.402C141.5 172.702 141.8 172.902 142 173.302C142.6 174.902 144 175.702 145.2 176.702C146.3 177.702 147.6 178.602 149 179.202C149.9 179.502 150.8 179.602 151.6 180.002C151.9 180.202 152.4 180.002 152.6 180.702C152.6 180.902 153.1 180.602 153.4 180.702C154 180.802 154.6 181.002 155.2 181.102C156 181.202 156.9 181.402 157.7 181.302C158.2 181.302 158.7 181.002 159.2 180.902C159.3 180.902 159.5 180.902 159.6 180.902H159.7H159.8L160.2 180.802L161.1 180.602C161.4 180.602 161.7 180.602 162 180.402C162.8 180.202 163.6 180.002 164.4 179.702C165.2 179.502 165.9 179.302 166.7 179.002C167 178.902 167.4 178.802 167.7 178.602V179.102V179.402V179.802C167.4 180.302 167.3 180.902 167 181.502C166.3 182.902 165.9 183.902 165.6 185.002C165.2 186.002 164.8 187.202 164.3 188.202C163.6 189.502 162.9 190.802 162.2 192.102C161.8 192.802 161 193.202 160.5 193.802C160.3 194.102 158.8 193.602 158.5 193.202C158.5 193.202 158.4 193.002 158.4 192.902C158.4 192.002 158.2 191.102 158.7 190.402C159.4 189.402 160 188.302 160.5 187.302L160 187.002Z" fill="black"/>
<path d="M115.9 160.402C115 160.702 114 160.902 113.1 161.202C112.7 161.302 112.3 161.202 112 161.702C111.9 162.002 111.4 161.402 111.1 161.502C110.2 161.702 109.2 161.702 108.3 161.802C107.4 161.802 106.4 162.102 105.5 162.002C104.5 162.002 103.7 161.502 102.7 161.602C101.8 161.602 101.3 161.002 100.6 160.802C99.7998 160.602 98.9998 160.302 98.3998 159.702C97.9998 159.202 97.5998 158.802 97.0998 158.502C96.7998 158.302 96.2998 158.402 95.9998 158.102C95.6998 157.802 95.5998 157.302 94.8998 157.502C94.8998 157.502 94.8998 157.302 94.8998 157.202C94.8998 156.602 94.5998 156.302 94.1998 156.102C93.7998 156.002 93.5998 155.702 93.3998 155.402C92.8998 154.602 92.2998 153.602 92.2998 152.102C92.2998 151.902 92.2998 151.702 92.2998 151.602C92.3998 150.702 92.8998 150.002 93.1998 149.402C93.6998 148.702 93.9998 147.902 94.6998 147.602C95.3998 147.402 95.7998 147.002 96.1998 146.702C96.4998 146.502 96.8998 146.502 96.7998 145.802C96.7998 145.802 96.7998 145.702 96.9998 145.702C98.1998 145.902 98.3998 144.502 99.3998 144.302C100.3 144.102 101.2 143.602 102.1 143.202C102.3 143.202 102.7 143.202 102.7 142.702C102.7 142.502 103 142.402 103.1 142.502C103.9 142.902 104.6 142.402 105.3 142.302C106.1 142.302 106.9 141.902 107.8 142.302C108.2 142.502 108.6 142.602 109 141.902C109.2 141.602 109.6 141.902 109.9 141.902C110.1 141.902 110.4 141.602 110.6 141.602C110.8 141.602 111 141.802 111.2 141.902C111.2 141.902 111.3 141.902 111.4 141.902C112.6 141.302 113.7 142.202 114.9 142.202C116.1 142.202 117.2 142.402 118.3 142.702C118.9 142.902 119.5 143.202 119.7 144.402C119.7 144.902 119.7 145.502 119.4 145.802C119.2 146.002 118.9 146.202 118.7 146.202C118.3 146.202 118 146.302 117.6 146.402C116.9 146.402 116.1 146.902 115.5 146.502C115.3 146.402 115 146.702 114.9 146.102C114.9 146.102 114.8 146.002 114.7 146.102C113.7 146.802 112.8 146.102 111.8 146.202C111 146.202 110.2 146.902 109.4 146.602C109 147.302 108.5 147.202 108.1 147.002C106.5 146.502 105.1 147.202 103.6 147.602C102.1 148.002 100.8 148.702 99.4998 149.502C99.2998 149.602 99.2998 150.002 98.8998 150.002C98.4998 150.002 98.3998 150.302 98.0998 150.502C97.8998 150.702 97.7998 151.002 97.4998 151.002C96.6998 151.202 96.4998 151.702 96.4998 152.002C96.4998 152.102 96.4998 152.302 96.5998 152.502C96.5998 152.902 96.8998 153.302 97.2998 153.802C97.5998 154.202 97.9998 154.602 98.4998 155.002C99.0998 155.402 99.7998 155.502 100.3 156.002C100.5 156.202 100.9 156.002 100.9 156.702C100.9 156.902 101.4 156.702 101.5 156.702C102 156.802 102.4 157.002 102.8 157.202C103.4 157.402 104.1 157.602 104.7 157.702C105.1 157.702 105.5 157.502 105.9 157.502C106.3 157.502 106.7 157.502 107.2 157.502C107.7 157.502 108.3 157.802 108.9 157.802C109.5 157.802 110.1 157.502 110.7 157.602C111.8 157.902 112.8 157.402 113.9 157.202C115 157.002 116 156.602 117 156.102C117.6 155.802 118.3 156.102 118.8 155.802C119.1 155.702 120 156.902 120.1 157.402C120.1 157.402 120.1 157.602 120.1 157.702C119.7 158.402 119.4 159.302 118.7 159.502C117.7 159.802 116.7 160.202 115.6 160.602L115.9 160.402Z" fill="black"/>
<path d="M154.4 116.598C154 117.298 153.6 118.098 153.2 118.798C153 119.098 152.7 119.198 152.9 119.798C153 120.098 152.3 119.998 152.2 120.198C151.8 120.898 151.3 121.398 150.8 122.098C150.4 122.698 150.1 123.398 149.6 123.998C149.1 124.598 148.4 124.998 148.1 125.698C147.9 126.298 147.1 126.398 146.8 126.798C146.4 127.298 146 127.798 145.4 127.998C145 128.198 144.5 128.298 144.2 128.598C144 128.798 144.1 129.198 143.8 129.398C143.6 129.598 143.2 129.498 143.4 130.198C143.4 130.198 143.2 130.198 143.1 130.198C142.6 130.098 142.4 130.298 142.3 130.698C142.3 131.098 142.1 131.198 141.9 131.298C141.4 131.698 141 132.098 140.4 132.398C140 132.598 139.5 132.698 139.1 132.898C138.7 133.098 138.4 133.598 137.9 133.598C137.4 133.598 137 133.898 136.7 134.098C136.5 134.198 136.1 134.098 136.3 134.798C136.3 134.798 136.3 134.898 136.2 134.798C135.2 134.498 135.2 135.798 134.5 135.998C133.8 136.198 133.2 136.698 132.6 137.098C132.4 137.198 132.2 137.098 132.2 137.598C132.2 137.798 132.1 137.898 131.9 137.798C131.1 137.498 130.8 138.198 130.3 138.398C129.7 138.598 129.3 139.198 128.5 139.098C128.2 139.098 127.8 139.098 127.8 139.798C127.8 140.098 127.4 139.998 127.2 140.198C127 140.298 127 140.698 126.8 140.798C126.7 140.798 126.4 140.798 126.2 140.798H126.1C125.5 141.798 124.3 141.398 123.5 141.998C122.7 142.498 121.7 142.798 120.8 143.098C120.3 143.198 119.7 143.198 119 142.198C118.7 141.798 118.5 141.198 118.6 140.798C118.6 140.498 118.8 140.298 118.9 140.098C119.1 139.898 119.4 139.698 119.6 139.498C120.1 139.098 120.4 138.398 121.1 138.498C121.3 138.498 121.4 138.198 121.7 138.498C121.7 138.498 121.8 138.498 121.9 138.498C122.3 137.498 123.3 137.598 124 137.198C124.6 136.898 124.9 135.998 125.6 135.898C125.6 135.198 126.1 135.098 126.5 134.998C128 134.998 129 133.798 130.2 133.198C131.4 132.498 132.6 131.698 133.8 130.998C134 130.898 134 130.498 134.4 130.498C134.8 130.498 134.9 130.198 135.2 129.998C135.4 129.798 135.6 129.598 135.9 129.498C137.2 129.498 137.9 128.398 138.8 127.898C139.7 127.298 140.6 126.698 141.4 125.898C141.9 125.398 142.1 124.698 142.7 124.398C143 124.298 142.9 123.798 143.5 124.098C143.7 124.098 143.5 123.698 143.7 123.498C144 123.198 144.4 122.898 144.7 122.598C145.1 122.198 145.6 121.798 146 121.298C146.2 120.998 146.3 120.598 146.5 120.198C146.7 119.898 147 119.598 147.2 119.298C147.6 118.998 148.1 118.698 148.4 118.398C148.7 117.998 148.9 117.498 149.3 117.198C149.8 116.998 150.1 116.598 150.3 116.198C150.5 115.798 150.7 115.398 150.9 114.998C151.2 114.598 151.3 114.198 151.5 113.798C151.7 113.398 151.9 112.998 151.9 112.498C151.9 112.298 152.1 112.098 152.3 111.898H152.4C152.4 111.798 152.4 111.698 152.4 111.698L152.8 111.798H152.9C153 111.798 153.1 111.798 153.2 111.898C153.6 111.898 153.7 111.798 153.6 111.898C153.6 111.798 153.6 111.798 153.6 111.798C153.6 111.798 153.6 111.798 153.4 111.798C153.4 111.798 153.4 111.798 153.4 111.898C153.4 112.098 153.4 112.298 153.4 112.398C153.4 112.398 153.3 112.398 153.1 112.398C153.1 112.398 152.9 112.398 152.8 112.198C152.8 112.198 152.6 111.898 152.6 111.798C152.6 111.398 152.6 111.198 152.7 111.098C152.7 110.998 152.9 110.798 153 110.698C153.1 110.598 153.3 110.498 153.5 110.398C153.7 110.398 154 110.398 154.2 110.398C154.5 110.398 154.9 110.798 155.1 111.098C155.3 111.498 155.3 111.698 155.3 111.998C155.3 112.498 155.3 112.498 155.3 112.698C155.3 112.898 155.3 112.998 155.3 113.198C154.9 114.098 154.6 114.998 154.2 115.798L154.4 116.598Z" fill="black"/>
<path d="M180.7 182.998C182.8 182.398 184.9 181.698 186.8 180.698C187.5 180.298 188.4 180.098 188.8 179.198C189 178.798 190 178.898 190.6 178.398C192.2 177.198 193.9 175.898 195.4 174.398C196.8 172.898 198 171.298 199.3 169.698C200.6 168.098 202.1 166.598 202.9 164.898C203.6 163.398 204.8 162.398 205.4 160.898C206.1 159.398 206.7 157.798 207.4 156.298C208 155.198 208.5 154.198 208.7 152.998C208.7 152.298 208.7 151.498 208.7 150.798C208.8 150.098 209.2 149.298 208.7 148.598C208.7 148.598 208.7 148.198 208.9 148.098C209.3 147.298 209.3 146.398 209 145.698C208.7 145.098 208.7 144.498 208.6 143.998C208.4 142.398 208 140.898 207.5 139.398C207.2 138.298 206.9 136.998 206.4 135.898C205.9 134.698 204.9 133.698 204.5 132.498C204.1 131.298 203.3 130.398 202.6 129.498C202.2 128.998 201.8 128.198 201 128.198C201 128.198 200.8 127.998 200.7 127.898C200 125.898 197.8 125.298 196.5 123.798C195.1 122.298 193.4 120.998 191.6 119.898C191.1 119.598 190.8 119.098 190.1 119.198C189.9 119.198 189.4 118.898 189.2 118.698C188.3 117.298 186.6 116.798 185.3 115.898C183.8 114.898 182 114.398 180.6 113.198C180 112.698 179 112.198 177.9 112.398C177.4 112.498 176.7 111.898 176 111.798C175.5 111.698 174.9 111.798 174.4 111.598C174 111.498 173.6 111.098 173.2 110.898C173.1 110.898 172.9 110.798 172.8 110.798C171.4 110.798 170.2 110.398 168.9 109.998C167.6 109.598 166.4 109.198 165.1 109.098C162.5 108.898 160 108.798 157.7 109.398C156.4 109.698 155.3 110.098 153.9 109.698C153.2 109.498 152.8 109.098 153.2 108.498C153.5 107.998 153.9 107.498 154.4 107.198C155.2 106.698 156.1 106.198 157 105.898C158.8 105.198 160.8 104.498 162.8 104.898C163.4 104.998 164.1 104.798 164.6 105.298C164.6 105.298 164.9 105.398 165 105.398C167.7 104.898 170.1 105.998 172.6 106.598C174.7 107.098 176.9 107.098 178.9 108.198C180.3 107.998 181.6 108.698 182.6 109.398C186.3 111.798 190.3 113.498 193.8 116.098C197.3 118.698 200.7 121.598 203.7 124.798C204.2 125.398 204.9 125.598 205.3 126.498C205.6 127.298 206.5 127.998 207.1 128.798C207.6 129.498 208.3 130.198 208.6 130.998C210 134.298 211.9 137.298 212.6 140.898C213.4 144.398 213.4 147.998 213 151.498C212.8 153.598 212.6 155.798 211.8 157.898C211.4 158.698 211.4 159.798 210.5 160.398C210.3 160.598 210.3 161.498 210.1 162.098C209.5 163.398 208.8 164.698 208 165.998C206.9 167.698 205.8 169.398 204.6 170.998C203.9 171.998 203.3 173.098 202.5 174.098C201.7 175.098 200.8 176.098 199.9 176.998C198.7 178.098 197.4 179.098 196.1 180.098C194.8 181.198 193.5 182.498 191.9 183.098C189.1 184.298 186.4 185.898 183.5 186.698C180.6 187.498 177.7 188.098 174.8 188.598C173.2 188.898 171.6 188.598 170 188.798C169.3 188.798 168.1 187.498 168.4 186.998C168.4 186.898 168.6 186.798 168.7 186.698C170.2 186.098 171.5 185.198 173.3 184.998C175.9 184.698 178.4 184.198 180.8 183.598L180.7 182.998Z" fill="black"/>
<path d="M136 108.999C134.4 109.299 132.9 109.699 131.3 110.099L129 110.799L127.8 111.199L126.7 111.599C125.6 111.999 124.3 112.199 123.4 113.199C122.9 113.699 121.6 113.499 120.6 113.999C119.2 114.699 117.9 115.299 116.5 115.999C115.2 116.699 113.8 117.399 112.5 118.199C110 119.699 107.7 121.499 105.3 123.299C104.7 123.699 104.1 124.199 103.5 124.599L101.7 125.899C101.1 126.299 100.5 126.799 99.9997 127.199C99.4997 127.699 98.8997 128.199 98.4997 128.699C97.6997 129.599 96.7997 130.299 95.8997 130.999C94.9998 131.699 94.0998 132.399 93.2998 133.299C91.5998 135.099 89.8997 136.999 88.0997 138.599C86.7997 139.799 85.4997 140.999 84.4997 142.399C83.8997 143.299 83.4998 144.299 82.7998 145.199C82.0998 145.999 81.1998 146.899 81.2998 147.999C81.2998 147.999 80.9998 148.399 80.7998 148.599C79.8998 149.399 79.1997 150.599 79.0997 151.599C78.9997 152.499 78.5998 153.299 78.3998 153.999C77.6998 156.199 77.1997 158.399 77.0997 160.599C77.0997 162.199 76.8998 163.899 77.2998 165.499C77.6998 167.199 78.7998 168.799 79.3998 170.399C79.9998 171.999 80.9997 173.399 82.0997 174.699C82.6997 175.499 83.1997 176.499 84.1997 176.699C84.1997 176.699 84.4997 176.999 84.5997 177.099C85.1997 178.399 86.2998 179.299 87.3998 180.099C88.4998 180.899 89.6998 181.599 90.7998 182.399C92.9998 184.199 95.6997 185.499 98.3997 186.399C99.0998 186.599 99.7997 187.099 100.6 186.799C100.9 186.799 101.6 186.799 102 187.099C103.9 188.199 106.2 188.099 108.4 188.099C110.9 188.199 113.2 187.599 115.7 187.299C116.7 187.199 118.2 186.799 119 185.699C119.4 185.199 120.5 184.899 121.2 184.399C121.8 183.999 122.1 183.299 122.6 182.899C123 182.499 123.6 182.299 124 181.899C124.1 181.799 124.3 181.599 124.3 181.499C124.9 179.999 125.5 178.699 125.9 177.099C126.3 175.499 126.4 173.799 125.9 172.099C125.5 170.399 124.9 168.699 124.1 166.999C123.4 165.299 122.5 163.699 121.4 162.399C120.8 161.699 120.2 160.999 119.7 160.499C119.2 159.899 118.7 159.399 118.1 158.799C117.6 158.199 117.5 157.699 118.5 157.499C119.3 157.399 120.2 157.499 121 157.899C122.3 158.499 123.4 159.399 124.3 160.399C126.1 162.399 127.8 164.599 128.6 167.299C128.8 168.099 129.4 168.999 129.1 169.899C129.1 169.999 129.1 170.399 129.1 170.499C130.7 173.899 130.3 178.399 128.5 181.999C127 185.099 124.7 187.899 121.6 189.299C120.3 190.699 118.2 191.499 116.3 191.799C113.1 192.399 109.9 192.699 106.7 192.599C103.5 192.599 100.3 191.999 97.2998 190.999C91.1998 188.899 85.6998 185.199 81.3998 180.599C80.6998 179.799 79.7997 179.399 79.1997 178.199C78.5997 177.099 77.4997 175.999 76.6997 174.899C75.9997 173.899 75.0997 172.799 74.6997 171.599C73.6997 169.199 72.8997 166.699 72.4997 164.099C72.0997 161.499 72.1997 158.899 72.6997 156.399C73.6997 151.399 76.1997 146.899 78.9997 142.899C80.6997 140.399 82.2998 137.999 84.3998 135.899C85.2998 134.999 85.8997 133.799 87.1997 133.299C87.5997 133.199 87.9997 131.999 88.5997 131.399C89.2997 130.699 89.9997 129.999 90.6997 129.299C91.3997 128.599 92.1997 127.899 92.8997 127.299C94.9998 125.399 97.1998 123.599 99.2998 121.899C100.6 120.799 101.9 119.699 103.2 118.599C104.7 117.499 106.2 116.499 107.7 115.599C108.7 114.999 109.7 114.499 110.7 113.999C111.7 113.499 112.8 112.999 113.8 112.499C114.9 111.999 115.9 111.399 117 110.899C118.1 110.299 119.2 109.899 120.2 109.599C122.2 108.999 124.2 108.399 126.2 107.699C128.2 107.099 130.2 106.399 132.2 105.999C134.2 105.499 136.3 105.199 138.3 104.799C140.5 104.499 142.7 104.399 145 104.799C147.6 105.199 149.6 106.599 151.6 107.999C152.1 108.299 152.4 108.999 152.4 109.699C152.4 110.299 152.4 110.799 152 110.899C151.9 110.899 151.7 110.899 151.5 110.899C149.6 109.899 147.7 109.599 145.6 108.999C144 108.499 142.4 108.399 140.7 108.499C139 108.499 137.2 109.099 135.4 109.399L136 108.999Z" fill="black"/>
</svg>
