<svg width="300" height="300" viewBox="0 0 300 300" fill="none" xmlns="http://www.w3.org/2000/svg">
<path d="M200.8 150.898C200.4 150.498 200.1 150.098 199.7 149.698C199.5 149.598 199.7 149.198 199.1 149.498C198.8 149.598 199.1 148.998 199.1 148.898C198.7 148.598 198.4 148.198 198 147.798C197.6 147.498 197.1 147.298 196.8 146.998C196.4 146.698 196.3 146.098 195.8 145.998C195.3 145.898 195.4 145.298 195.1 145.098C194.7 144.898 194.4 144.598 194.3 144.198C194.3 143.898 194.2 143.498 193.9 143.398C193.7 143.398 193.4 143.398 193.3 143.298C193.2 143.198 193.3 142.798 192.7 143.098C192.7 143.098 192.7 142.998 192.7 142.898C192.9 142.498 192.7 142.298 192.4 142.398C192.1 142.398 192 142.398 191.9 142.198C191.6 141.898 191.3 141.598 191.1 141.298C190.9 140.998 190.9 140.698 190.7 140.398C190.5 140.098 190.1 140.098 190.1 139.598C190.1 139.198 189.9 138.998 189.7 138.798C189.6 138.698 189.7 138.298 189.1 138.698C189.4 137.798 188.3 138.198 188.1 137.698C187.9 137.198 187.5 136.898 187.1 136.598C187.1 136.598 187.1 136.298 186.6 136.598C186.5 136.598 186.3 136.598 186.4 136.498C186.6 135.798 186.1 135.798 185.9 135.398C185.7 134.998 185.2 134.898 185.2 134.198C185.2 133.898 185.2 133.698 184.6 133.898C184.3 133.998 184.4 133.698 184.2 133.598C184.1 133.598 183.8 133.598 183.7 133.598C183.7 133.598 183.7 133.298 183.7 133.098C182.8 133.098 183 131.998 182.4 131.698C181.8 131.398 181.4 130.798 181.1 130.298C180.9 129.998 180.8 129.598 181.5 128.698C181.8 128.298 182.2 127.898 182.6 127.798C182.9 127.798 183.1 127.698 183.2 127.798C183.4 127.798 183.6 127.898 183.8 127.998C184.2 128.198 184.9 127.998 185 128.598C185 128.798 185.4 128.598 185 129.098V129.198C186 129.098 186 129.898 186.4 130.198C186.8 130.498 187.6 130.398 187.7 130.998C188.3 130.798 188.5 130.998 188.5 131.398C188.7 132.598 189.7 132.998 190.3 133.698C190.9 134.498 191.6 135.098 192.3 135.898C192.4 135.998 192.8 135.898 192.7 136.198C192.7 136.498 192.9 136.498 193.1 136.698C193.2 136.798 193.5 136.898 193.5 137.098C193.5 138.098 194.4 138.398 194.8 138.998C195.3 139.598 195.8 140.198 196.4 140.698C196.8 140.998 197.4 141.098 197.6 141.498C197.6 141.698 198.1 141.598 197.8 142.198C197.8 142.398 198.2 142.198 198.3 142.198C198.6 142.398 198.8 142.698 199 142.898C199.3 143.198 199.6 143.598 199.9 143.898C200.1 144.098 200.5 144.098 200.7 144.298C200.9 144.498 201.1 144.698 201.3 144.898C201.5 145.198 201.6 145.598 201.8 145.898C202 146.198 202.5 146.298 202.5 146.798C202.5 147.598 203.2 147.898 203.6 148.498C204 148.998 204.4 149.498 205 149.898C205.3 150.098 205.2 150.698 205.4 150.998C205.5 151.098 204.6 152.298 204.2 152.598L204 152.698C203.4 152.698 202.7 152.998 202.4 152.698C202 152.198 201.6 151.798 201.2 151.398L200.8 150.898Z" fill="black"/>
<path d="M182.8 157.298C183.2 157.098 183.5 156.998 183.9 156.698C184 156.698 184.3 156.698 184.2 156.198C184.2 155.898 184.6 156.398 184.7 156.398C185 156.198 185.4 156.098 185.7 155.898C186 155.698 186.2 155.298 186.5 155.098C186.8 154.898 187.3 155.098 187.5 154.598C187.7 154.198 188.1 154.598 188.3 154.298C188.5 154.098 188.8 153.898 189.2 153.998C189.5 153.998 189.8 154.198 189.9 153.998C189.9 153.898 189.9 153.498 190.1 153.498C190.2 153.498 190.5 153.698 190.4 152.998C190.4 152.998 190.4 152.998 190.6 152.998C190.9 153.298 191.1 153.198 191.1 152.998C191.1 152.698 191.2 152.698 191.3 152.598C191.6 152.498 191.9 152.298 192.2 152.298C192.4 152.298 192.7 152.298 193 152.298C193.2 152.298 193.4 151.898 193.7 152.098C194 152.298 194.2 152.198 194.4 152.098C194.5 152.098 194.8 152.298 194.6 151.598C195.2 152.298 195.2 151.098 195.6 151.198C196 151.198 196.3 150.998 196.7 150.898C196.7 150.898 197 150.998 196.9 150.498C196.9 150.298 196.9 150.298 197.1 150.398C197.6 150.898 197.7 150.398 198 150.398C198.3 150.398 198.6 149.998 199 150.398C199.2 150.598 199.4 150.598 199.4 149.998C199.4 149.698 199.6 149.998 199.7 149.798C199.7 149.798 199.7 149.398 199.9 149.398C199.9 149.398 200.1 149.598 200.2 149.698C200.5 148.898 201.2 149.698 201.6 149.298C202 148.998 202.5 148.898 203 148.898C203.3 148.898 203.6 148.898 204.1 149.998C204.3 150.498 204.5 150.998 204.4 151.398C204.4 151.698 204.4 151.898 204.3 151.998C204.2 152.098 204.1 152.298 204 152.398C203.8 152.698 203.6 153.298 203.3 153.098C203.2 153.098 203.2 153.398 202.9 152.898C202.7 153.798 202.2 153.398 201.8 153.598C201.5 153.798 201.3 154.498 200.9 154.298C200.9 154.998 200.7 154.898 200.4 154.798C199.5 154.398 199 154.998 198.3 155.198C197.6 155.298 197 155.698 196.3 155.898C196.2 155.898 196.3 156.298 196 156.098C195.8 155.898 195.7 156.098 195.5 156.198C195.4 156.198 195.3 156.398 195.1 156.298C194.3 155.898 194 156.498 193.4 156.598C192.9 156.698 192.3 156.898 191.9 157.298C191.6 157.498 191.5 157.998 191.1 157.998C190.9 157.998 190.9 158.398 190.6 157.898C190.5 157.798 190.6 158.198 190.5 158.298C190.3 158.398 190.1 158.498 189.9 158.598C189.6 158.698 189.3 158.798 189 158.998C188.8 159.098 188.8 159.398 188.6 159.598C188.4 159.698 188.3 159.798 188 159.898C187.7 159.898 187.4 159.898 187.1 159.898C186.8 159.898 186.7 160.298 186.3 160.198C185.6 159.998 185.3 160.398 184.9 160.598C184.4 160.798 184 160.898 183.6 161.298C183.4 161.498 182.9 161.198 182.7 161.298C182.6 161.298 181.8 160.098 181.6 159.698V159.498C181.6 158.998 181.5 158.198 181.8 158.098C182.2 157.998 182.6 157.698 183 157.498L182.8 157.298Z" fill="black"/>
<path d="M163.4 151C163.4 150.8 163.4 150.6 163.4 150.5C163.4 150.5 163.6 150.4 163.1 150.3C162.8 150.3 163.5 150.2 163.4 150.1C163.4 149.9 163.4 149.8 163.4 149.6C163.4 149.4 163.1 149.3 163.1 149.1C163.1 148.9 163.4 148.8 163.1 148.6C162.8 148.4 163.3 148.4 163.2 148.2C163.1 148.1 163 147.9 163.2 147.8C163.4 147.8 163.6 147.6 163.5 147.5C163.5 147.5 163.1 147.3 163.2 147.3C163.2 147.3 163.5 147.3 162.9 147.1C162.9 147.1 162.9 147.1 163.1 147.1C163.5 147.1 163.5 147.1 163.2 146.9C162.9 146.9 163 146.8 163 146.7C163 146.6 163 146.4 163 146.3C163 146.3 163.3 146.1 163.4 146.1C163.4 146.1 163.2 145.8 163.5 145.8C163.8 145.8 163.8 145.7 163.8 145.6C163.8 145.6 164.1 145.6 163.5 145.4C164.3 145.4 163.3 145 163.5 144.9C163.7 144.8 163.6 144.6 163.7 144.4C163.7 144.4 163.9 144.4 163.5 144.2C163.3 144.1 163.3 144.2 163.5 144.2C164.1 144.2 163.8 144 163.9 143.9C164.1 143.8 163.9 143.6 164.3 143.6C164.5 143.6 164.6 143.6 164.1 143.3C163.9 143.2 164.1 143.3 164.1 143.1L163.8 142.9C163.8 142.9 164 142.9 164.2 142.9C163.6 142.5 164.6 142.6 164.5 142.3C164.5 142 164.5 141.9 164.7 141.7C164.7 141.7 165 141.6 166.1 141.9C166.6 142.1 167.1 142.3 167.4 142.5C167.6 142.6 167.8 142.7 167.8 142.8C167.8 142.8 168 143 168 143.1C168.1 143.3 168.6 143.6 168.3 143.6C168.3 143.6 168.5 143.8 168 143.6C168.7 144 168.1 144 168.1 144.2C168.1 144.3 168.7 144.7 168.4 144.7C169 145 168.8 145 168.6 145C167.9 145 168.2 145.4 168.1 145.7C167.9 145.9 168 146.2 167.9 146.5C167.9 146.5 168.2 146.7 167.9 146.7C167.6 146.7 167.9 146.8 167.9 146.9C167.9 146.9 168 147 167.9 147.1C167.2 147.1 167.6 147.5 167.5 147.7C167.5 147.9 167.3 148.1 167.5 148.3C167.5 148.4 167.9 148.6 167.8 148.7C167.8 148.7 168.1 148.8 167.5 148.8C167.3 148.8 167.8 148.8 167.8 148.9C167.8 148.9 167.8 149.1 167.8 149.2C167.8 149.3 167.8 149.4 167.8 149.6L168.1 149.8V150C168.1 150 167.8 150.2 167.7 150.3C167.7 150.4 167.9 150.5 167.7 150.6C167.2 150.8 167.4 151 167.4 151.2C167.4 151.4 167.4 151.6 167.4 151.7C167.4 151.7 167 151.9 167 152C167 152 165.5 152.2 165 152.3H164.8C164.3 152.3 163.6 152.2 163.6 152C163.6 151.8 163.6 151.6 163.6 151.4L163.4 151Z" fill="black"/>
<path d="M173.801 151.796C173.801 151.596 173.801 151.396 173.801 151.296C173.801 151.296 174.001 151.196 173.501 151.096C173.201 151.096 173.901 150.996 173.801 150.896C173.801 150.696 173.801 150.596 173.801 150.396C173.801 150.196 173.501 150.096 173.501 149.896C173.501 149.696 173.801 149.596 173.501 149.396C173.201 149.196 173.701 149.196 173.601 148.996C173.501 148.896 173.401 148.696 173.601 148.596C173.801 148.596 174.001 148.396 173.901 148.296C173.901 148.296 173.501 148.096 173.601 148.096C173.601 148.096 173.901 148.096 173.301 147.896C173.301 147.896 173.301 147.896 173.501 147.896C173.901 147.896 173.901 147.896 173.601 147.696C173.301 147.696 173.401 147.596 173.401 147.496C173.401 147.396 173.401 147.196 173.401 147.096C173.401 147.096 173.701 146.896 173.801 146.896C173.801 146.896 173.601 146.596 173.901 146.596C174.201 146.596 174.201 146.496 174.201 146.396C174.201 146.396 174.501 146.396 173.901 146.196C174.701 146.196 173.701 145.796 173.901 145.696C174.101 145.596 174.001 145.396 174.101 145.196C174.101 145.196 174.301 145.196 173.901 144.996C173.701 144.896 173.701 144.996 173.901 144.996C174.501 144.996 174.201 144.796 174.301 144.696C174.501 144.596 174.301 144.396 174.701 144.396C174.901 144.396 175.001 144.396 174.501 144.096C174.301 143.996 174.501 144.096 174.501 143.896L174.201 143.696C174.201 143.696 174.401 143.696 174.601 143.696C174.001 143.296 175.001 143.396 174.901 143.096C174.901 142.796 174.901 142.696 175.101 142.496C175.101 142.496 175.401 142.396 176.501 142.696C177.001 142.896 177.501 143.096 177.801 143.296C178.001 143.396 178.201 143.496 178.201 143.596C178.201 143.596 178.401 143.796 178.401 143.896C178.501 144.096 179.001 144.396 178.701 144.396C178.701 144.396 178.901 144.596 178.401 144.396C179.101 144.796 178.501 144.796 178.501 144.996C178.501 145.096 179.101 145.496 178.801 145.496C179.401 145.796 179.201 145.796 179.001 145.796C178.301 145.796 178.601 146.196 178.501 146.496C178.301 146.696 178.401 146.996 178.301 147.296C178.301 147.296 178.601 147.496 178.301 147.496C178.001 147.496 178.301 147.596 178.301 147.696C178.301 147.696 178.401 147.796 178.301 147.896C177.601 147.896 178.001 148.296 177.901 148.496C177.901 148.696 177.701 148.896 177.901 149.096C177.901 149.196 178.301 149.396 178.201 149.496C178.201 149.496 178.501 149.596 177.901 149.596C177.701 149.596 178.201 149.596 178.201 149.696C178.201 149.696 178.201 149.896 178.201 149.996C178.201 150.096 178.201 150.196 178.201 150.396L178.501 150.596V150.796C178.501 150.796 178.201 150.996 178.101 151.096C178.101 151.196 178.301 151.296 178.101 151.396C177.601 151.596 177.801 151.796 177.801 151.996C177.801 152.196 177.801 152.396 177.801 152.496C177.801 152.496 177.401 152.696 177.401 152.796C177.401 152.796 175.901 152.996 175.401 153.096H175.201C174.701 153.096 174.001 152.996 174.001 152.796C174.001 152.596 174.001 152.396 174.001 152.196L173.801 151.796Z" fill="black"/>
<path d="M138.199 173.199C137.099 173.499 136.099 173.699 135.099 173.999C134.699 174.099 134.299 173.999 133.999 174.499C133.899 174.799 133.399 174.199 132.999 174.299C132.099 174.499 131.099 174.599 130.099 174.799C129.099 174.999 128.199 175.299 127.199 175.299C126.199 175.299 125.199 174.999 124.199 175.299C123.299 175.499 122.599 174.799 121.799 174.699C120.899 174.599 119.999 174.299 119.299 173.699C118.799 173.299 118.399 172.799 117.799 172.499C117.399 172.299 116.899 172.399 116.599 172.099C116.299 171.799 116.099 171.299 115.399 171.499C115.399 171.499 115.299 171.299 115.299 171.199C115.299 170.599 114.899 170.199 114.499 170.099C113.999 169.999 113.899 169.599 113.699 169.399C113.099 168.599 112.699 167.599 112.399 166.599C112.199 165.799 112.399 165.099 112.399 164.199C112.399 163.799 112.399 163.299 112.399 162.799C112.399 162.299 112.599 161.799 112.899 161.499C113.499 160.799 113.999 160.199 114.599 159.699C114.899 159.399 115.499 159.399 115.399 158.599C115.399 158.599 115.499 158.499 115.599 158.499C116.299 158.499 116.699 158.299 117.099 157.899C117.499 157.599 117.899 157.199 118.399 157.099C119.399 156.899 120.299 156.499 121.199 156.099C121.399 156.099 121.799 156.099 121.899 155.599C121.899 155.399 122.199 155.299 122.399 155.399C123.299 155.799 123.899 155.199 124.699 155.099C125.599 155.099 126.299 154.499 127.299 154.799C127.699 154.899 128.199 154.899 128.499 154.299C128.699 153.999 129.099 154.199 129.399 154.099C129.599 154.099 129.899 153.699 130.099 153.699C130.299 153.699 130.599 153.899 130.799 153.899C130.799 153.899 130.899 153.899 130.999 153.899C132.199 153.099 133.499 153.899 134.699 153.599C135.999 153.399 137.199 153.399 138.499 153.599C139.199 153.599 139.899 153.899 140.299 155.099C140.499 155.599 140.399 156.199 140.099 156.499C139.899 156.699 139.599 156.899 139.399 156.999C138.999 156.999 138.599 157.199 138.299 157.299C137.499 157.499 136.799 157.999 135.999 157.699C135.799 157.699 135.499 157.899 135.299 157.399C135.299 157.399 135.199 157.299 135.099 157.399C134.099 158.199 132.999 157.799 131.999 157.999C131.099 158.199 130.399 158.899 129.399 158.799C128.999 159.499 128.499 159.499 127.899 159.399C126.099 159.099 124.399 159.999 122.799 160.399C121.899 160.599 121.099 160.899 120.299 161.299C119.499 161.599 118.699 161.999 118.099 162.299C117.899 162.399 117.999 162.799 117.599 162.699C117.299 162.699 117.199 162.999 117.099 163.099C116.999 163.199 117.099 163.399 116.899 163.499C116.499 163.699 116.399 164.199 116.499 164.699C116.499 165.199 116.799 165.799 116.999 166.299C117.399 167.399 118.099 168.399 119.199 168.999C119.799 169.399 120.599 169.499 121.199 169.899C121.499 170.099 121.899 169.899 121.999 170.599C121.999 170.799 122.499 170.499 122.699 170.599C123.199 170.699 123.699 170.899 124.199 170.999C124.899 171.099 125.599 171.299 126.399 171.199C126.899 171.199 127.299 170.899 127.799 170.899C128.299 170.899 128.799 170.799 129.299 170.899C129.899 170.899 130.599 171.099 131.199 170.999C131.899 170.999 132.499 170.599 133.199 170.699C134.499 170.999 135.699 170.499 136.799 170.199C137.899 169.899 138.999 169.599 139.899 168.999C140.399 168.699 141.099 168.799 141.599 168.399C141.799 168.199 143.099 168.999 143.399 169.499C143.399 169.499 143.399 169.699 143.399 169.799C143.199 170.599 142.999 171.699 142.199 172.099C140.999 172.699 139.799 173.299 138.599 173.599L138.199 173.199Z" fill="black"/>
<path d="M136.3 139.001C136.3 139.001 136.4 139.001 136.5 138.901L136.7 138.701C136.8 138.501 137 138.401 137.2 138.101C137.6 138.301 137.9 138.401 138.3 138.601L139.3 138.901C139.6 138.901 139.9 139.001 140.2 139.101H140.6L140.9 139.201C141.6 139.201 142.3 139.301 143 139.301C144.4 139.301 145.9 139.101 147.3 138.801C148.4 138.601 149.4 138.401 149.6 137.401C149.6 137.201 149.9 137.001 150.2 136.701C150.5 136.401 150.9 136.001 151.1 135.501C151.7 133.901 152 132.101 152.5 130.501L155.2 132.001C155.7 132.201 156.1 132.501 156.6 132.701C156.7 132.701 156.8 132.801 156.9 132.901H157.2C157.2 133.001 157.6 133.101 157.6 133.101C158.6 133.501 159.6 133.701 160.6 133.901C162 134.101 163.5 134.101 164.9 133.901C165.6 133.901 166.3 133.701 167 133.501C167.7 133.301 168.4 133.101 168.9 132.901C169.4 132.701 169.8 132.501 170.2 132.201C170.5 131.901 170.8 131.701 171 131.301C171.2 130.901 171.3 130.501 171.3 130.001C171.3 129.801 171.3 129.701 171.3 129.501V129.001C171 128.601 170.8 128.201 170.6 127.801C170.2 127.001 169.8 126.001 169.4 125.201C169.7 125.201 169.8 125.201 170 125.201C170.1 125.201 170.5 125.201 170.7 125.201C171.9 125.201 173.2 125.201 174.4 125.201C175.3 125.201 176.2 125.201 177.1 125.201C178.3 125.201 179.5 125.201 180.7 125.001C182 124.801 183.2 124.501 184.5 124.201C185.7 123.901 187 123.701 188.2 123.401C189.8 123.001 191.3 122.401 191.7 121.301C192 120.601 191.7 119.801 191.7 119.001C191.7 118.601 191.6 118.201 191.4 117.801C191.2 117.401 190.9 117.101 190.5 117.101C190.5 117.101 190.3 116.801 190.2 116.601C189.8 115.701 188.6 115.301 187.8 115.401C187 115.501 186.4 115.501 185.7 115.701C185.2 115.701 184.8 115.901 184.3 116.101C184.1 116.101 183.8 116.301 183.6 116.401L183.3 116.601L182.6 117.101C182.3 117.301 182.1 117.501 181.8 117.701C181.5 117.901 181.3 118.201 181 118.501C180.7 118.801 180.4 119.201 180.2 119.501L179.3 120.601L175.7 125.001L175.2 125.601C175.3 123.501 175.5 120.901 175.7 118.501V116.801C175.8 116.301 175.9 115.701 175.9 115.201C175.9 114.201 175.7 113.201 175.6 113.101C175.4 112.401 175 111.901 174.6 111.601C174.2 111.301 173.6 111.101 172.8 110.801C172.1 110.601 171.3 110.501 170.5 110.601C169.7 110.601 169 110.901 168.2 111.201C167.4 111.501 166.3 111.901 166.1 112.901C166.1 112.901 165.8 113.201 165.7 113.301C165.3 113.501 165 113.701 164.7 114.001C164.6 114.101 164.4 114.301 164.3 114.501C164.2 114.701 164.1 114.701 163.8 115.201C163.6 115.601 163.4 116.101 163.3 116.501C163.1 117.001 163 117.401 162.8 118.001C162.5 119.101 162.2 120.101 161.9 121.201C161.2 120.601 160.5 119.801 159.7 118.901L158.5 117.601C158.3 117.401 158.1 117.201 157.9 117.001L157.3 116.501L157.1 116.301V116.201L156.9 116.001C156.8 115.901 156.6 115.801 156.5 115.701C156.2 115.501 155.9 115.301 155.6 115.201C155 114.901 154.4 114.601 153.7 114.401C152.4 114.001 151 114.001 149.8 114.301C149.1 114.401 148.4 114.501 148.1 115.201C148 115.401 147.5 115.801 147.1 115.901C146.2 116.201 145.5 116.901 145 117.801C144.8 118.201 144.6 118.701 144.5 119.101V119.401V119.801L144.4 120.601C144.4 121.001 144.5 121.401 144.6 121.801C144.6 122.201 144.7 122.501 144.8 123.001L145.4 125.801L146.1 128.501C145.5 128.101 144.4 127.201 143.5 126.501L141.9 125.301L141.1 124.701L140.4 124.201C139.9 123.901 139.4 123.401 138.9 123.201C138.7 123.101 138.4 122.901 138.2 122.901H137.9C137.9 122.801 137.7 122.701 137.7 122.701C137.3 122.501 136.8 122.301 136.4 122.101C135.5 121.701 133.9 121.501 132.7 122.201C132.2 122.501 131 122.501 130.2 122.901C129.5 123.201 129.1 123.701 128.5 124.101C128 124.401 127.4 124.501 126.9 124.901C126.8 124.901 126.6 125.101 126.5 125.301C125.9 126.301 125.3 127.301 125.1 128.201C125 128.701 124.9 129.001 124.9 129.501C124.9 129.501 124.9 129.501 124.9 129.801C124.9 130.001 125 130.101 125.1 130.301V130.601C125.3 130.601 125.4 130.801 125.5 130.901C125.7 131.101 125.9 131.301 126.1 131.501L130 134.701H128.8C128.8 134.801 128.2 134.901 128.2 134.901C127.8 134.901 128 134.901 127.3 135.001C126.2 135.001 125.3 135.201 124.3 135.301C119.3 135.601 119.4 135.901 118.5 136.801C117.8 137.801 117.5 139.401 117.9 140.901C118.3 142.701 119.4 144.601 119.4 146.601C119.4 147.501 118.9 147.801 118.1 147.201C117.5 146.701 116.8 146.101 116.3 145.401C115.5 144.301 114.7 143.001 114.3 141.601C113.8 140.101 113.6 138.401 114 136.701C114.2 135.901 114.5 135.001 115.1 134.201C115.6 133.401 116.4 132.801 117.3 132.401C117.8 132.201 118.4 131.901 119 131.701C119.3 131.701 119.6 131.601 119.8 131.601H120C120 131.601 120.1 131.601 120.2 131.701C120.2 131.701 120.4 131.701 120.5 131.701C120.9 131.301 121.5 131.401 120.9 130.901C120.8 130.801 120.7 130.601 120.7 130.401V130.201C120.7 130.001 120.7 129.801 120.6 129.601C120.6 129.201 120.6 128.801 120.6 128.501C120.7 127.001 121.3 125.601 122 124.401C123 122.701 124.2 121.301 125.7 120.101C127.2 119.001 129 118.101 130.9 117.901C132.8 116.901 135.5 117.001 137.6 117.701C138.2 117.901 138.8 118.101 139.4 118.401C139.5 118.401 139.5 118.501 139.6 118.601L139.8 118.801C139.8 118.801 140 119.001 140 118.801C140 118.801 140 118.601 140 118.501C140 118.501 140 118.401 140 118.301V118.101V117.901L140.2 117.501C140.3 117.201 140.4 116.901 140.5 116.601C140.8 116.001 141.1 115.401 141.4 114.801C142.8 112.601 145 110.801 147.6 110.101C150.4 109.301 153.4 109.601 155.9 110.601C157.2 111.101 158.4 111.801 159.5 112.601C159.6 112.601 159.7 112.801 159.8 112.801L160 113.001C160 112.801 160.1 112.701 160.2 112.601V112.401C160.5 112.201 160.6 112.001 160.8 111.701C161.1 111.301 161.5 110.901 161.9 110.501C162.8 109.601 163.5 108.601 165 108.001C166.4 107.501 168 106.701 169.8 106.401C171.4 106.201 173 106.101 174.6 106.701C175.7 107.101 176.9 107.801 177.8 108.801C178.7 109.801 179.2 110.901 179.5 112.001C179.6 112.401 179.5 112.401 179.6 112.501V112.701C179.6 112.901 179.6 113.001 179.6 113.201V113.601V113.801C179.9 113.401 180.2 113.101 180.6 112.901H180.8C180.8 112.801 181.2 112.601 181.2 112.601C181.5 112.401 181.9 112.301 182.2 112.101C182.9 111.801 183.6 111.601 184.3 111.401C185.8 111.101 187.3 111.101 188.9 111.401C190.4 111.701 191.9 112.401 193.1 113.501C194.3 114.601 195.2 116.001 195.6 117.601C196.1 119.501 196.1 121.701 194.9 123.701C193.8 125.601 191.9 126.701 190.2 127.301C188.7 127.801 187.4 128.501 185.9 128.201C185.5 128.201 184.3 128.801 183.4 129.001C181.2 129.401 179 129.601 176.8 129.701H176.1H175.9H175.7C175.7 129.701 175.7 129.801 175.7 129.901C175.7 129.901 175.7 129.901 175.7 130.001V130.201C175.7 131.301 175.3 132.301 174.8 133.301C174.2 134.401 173.3 135.501 172.3 136.201C171.3 136.901 170.2 137.401 169.2 137.701C167.1 138.301 164.9 138.501 162.8 138.401C161.5 138.401 160.1 138.101 158.8 137.701C158.2 137.501 157.5 137.301 156.9 137.101C156.6 137.001 156.3 136.901 156 136.701L155.5 136.501C155.4 136.401 155.2 136.301 155.1 136.301C155.1 136.501 155.1 136.601 155.1 136.701V136.901C154.9 137.101 154.8 137.301 154.7 137.601C154.5 138.001 154.2 138.501 153.9 138.901C153.1 140.001 151.8 141.101 150.5 141.601C149.1 142.201 147.9 142.301 146.8 142.501C145.6 142.701 144.4 142.801 143.3 142.801C142.7 142.801 142.1 142.801 141.5 142.801C140.9 142.801 140.2 142.601 140.1 142.601C139.9 142.601 139.8 142.601 139.6 142.501C139.3 142.501 139.1 142.301 138.8 142.201H138.6C138.6 142.201 138.7 142.201 138.8 142.201C138.9 142.201 139 142.401 139.1 142.501C139.2 142.701 139.2 143.001 139.2 143.201V143.501C139.2 143.701 139.1 144.001 139 144.201C138.8 144.701 138.6 145.201 138.4 145.601C137.8 146.501 137.2 147.101 136.5 147.701C135.3 148.601 133.9 149.001 132.7 149.301C131.5 149.601 130.4 149.801 129.2 150.201C128.1 150.601 126.2 149.601 126.5 149.001C126.5 148.901 126.7 148.701 126.9 148.601C127.9 148.001 129 147.401 130 146.801C131.1 146.201 132.1 145.701 133.2 145.201C134 144.901 134.6 144.401 135 143.901C135.2 143.601 135.4 143.401 135.5 143.201C135.5 143.101 135.5 142.901 135.6 142.801V142.601C135.6 142.301 135.6 142.101 135.6 141.901C136.1 140.801 136.3 140.001 136.3 139.601C136.3 139.401 136.3 139.301 136.2 139.301C136.2 139.301 136.2 139.301 136.1 139.301C136.1 139.301 136.1 139.301 136 139.301C136.3 139.601 133.4 136.801 134.6 138.001L135.7 138.901L136.3 139.301C136.3 139.301 136.3 139.301 136.4 139.301H136.6C136.6 139.201 136.9 139.001 136.9 139.001H136.3Z" fill="black"/>
<path d="M127.8 106.499C127.8 106.799 127.8 107.099 127.9 107.299C127.9 107.399 127.7 107.499 128.2 107.599C128.5 107.599 127.9 107.799 127.9 107.899C128 108.199 127.9 108.399 128 108.699C128 108.899 128.3 109.199 128.4 109.399C128.4 109.599 128.2 109.899 128.6 110.099C128.9 110.299 128.4 110.499 128.6 110.699C128.7 110.899 128.9 111.099 128.6 111.299C128.4 111.499 128.2 111.599 128.4 111.799C128.4 111.799 128.8 111.899 128.8 111.999C128.8 111.999 128.5 112.199 129.2 112.199C129.2 112.199 129.2 112.199 129.1 112.199C128.7 112.299 128.7 112.499 129.1 112.499C129.4 112.499 129.4 112.599 129.4 112.699C129.4 112.899 129.5 113.099 129.4 113.299C129.4 113.499 129.2 113.599 129.1 113.799C129.1 113.999 129.4 114.099 129.1 114.299C128.8 114.499 128.9 114.599 128.9 114.799C128.9 114.799 128.6 114.999 129.3 114.999C128.5 115.399 129.6 115.399 129.5 115.699C129.3 115.999 129.5 116.199 129.5 116.399C129.5 116.399 129.3 116.599 129.8 116.499C130 116.499 130 116.499 129.8 116.599C129.2 116.899 129.6 116.999 129.6 117.199C129.6 117.399 129.9 117.599 129.4 117.899C129.2 117.999 129.1 118.199 129.7 118.099C130 118.099 129.7 118.199 129.8 118.299C129.8 118.299 130.1 118.299 130.2 118.299C130.2 118.299 130 118.499 129.9 118.499C130.6 118.599 129.9 119.099 130.1 119.399C130.4 119.599 130.4 119.899 130.4 120.199C130.4 120.399 130.3 120.599 129.3 121.099C128.8 121.299 128.3 121.499 128 121.599C127.8 121.599 127.5 121.599 127.4 121.599C127.3 121.599 127.1 121.499 127 121.399C126.7 121.299 126.2 121.199 126.4 120.899C126.4 120.899 126.1 120.899 126.6 120.599C125.7 120.599 126.1 120.099 126 119.799C125.9 119.599 125.2 119.499 125.4 119.099C124.8 119.099 124.8 118.899 125 118.699C125.5 117.999 125 117.599 125 117.099C125 116.599 124.8 115.999 124.8 115.499C124.8 115.499 124.4 115.399 124.7 115.199C124.9 115.099 124.7 114.999 124.7 114.899C124.7 114.799 124.5 114.699 124.7 114.599C125.3 114.099 124.9 113.799 124.9 113.299C124.9 112.899 124.9 112.499 124.7 112.099C124.6 111.899 124.2 111.699 124.3 111.399C124.3 111.299 124 111.199 124.6 111.099C124.8 111.099 124.3 111.099 124.3 110.899C124.3 110.699 124.3 110.599 124.3 110.399C124.3 110.199 124.3 109.899 124.3 109.699C124.3 109.599 124 109.499 123.9 109.299C123.9 109.199 123.9 108.999 123.9 108.899C123.9 108.699 124.1 108.499 124.2 108.299C124.2 108.099 123.9 107.999 124.2 107.699C124.7 107.299 124.4 106.999 124.4 106.699C124.4 106.499 124.4 106.399 124.4 106.199H124.8C124.8 106.199 125 106.199 125.1 106.099C125.5 105.899 125.8 105.499 125.8 105.499C125.8 105.299 125.8 105.199 125.7 105.099C125.7 104.899 125.5 104.699 125.5 104.599C125.5 104.599 125.5 104.399 125.5 104.299C125.7 103.999 126.2 103.699 126.7 103.699C127.2 103.699 127.6 103.899 127.7 104.199C127.9 104.599 128 104.899 128.1 105.199C128.2 105.599 128.2 105.699 128.2 105.899L127.8 106.499Z" fill="black"/>
<path d="M112.6 105.3C112.8 105.3 113.1 105.3 113.3 105.2C113.3 105.2 113.5 105.4 113.5 104.9C113.5 104.6 113.7 105.3 113.8 105.2C114 105.2 114.2 105.2 114.5 105.1C114.7 105.1 114.9 104.8 115.1 104.7C115.3 104.7 115.6 104.9 115.7 104.5C115.8 104.2 116.1 104.7 116.2 104.5C116.4 104.4 116.5 104.3 116.7 104.5C116.8 104.7 117 104.9 117.1 104.7C117.1 104.7 117.2 104.3 117.3 104.3C117.3 104.3 117.5 104.6 117.5 103.9C117.5 103.9 117.5 103.9 117.5 104C117.6 104.4 117.7 104.4 117.8 104C117.8 103.7 117.9 103.7 118 103.7C118.2 103.7 118.4 103.6 118.5 103.7C118.6 103.7 118.8 104 118.9 104C119 104 119.2 103.7 119.3 104C119.5 104.3 119.6 104.3 119.7 104.2C119.7 104.2 119.9 104.5 119.9 103.8C120.2 104.6 120.3 103.5 120.5 103.7C120.7 103.9 120.9 103.7 121.2 103.7C121.2 103.7 121.3 103.9 121.3 103.4C121.3 103.2 121.3 103.2 121.4 103.4C121.6 104 121.8 103.6 121.9 103.7C122.1 103.7 122.3 103.5 122.5 103.9C122.6 104.1 122.7 104.2 122.8 103.6C122.8 103.3 122.9 103.6 123 103.6C123 103.6 123 103.3 123.1 103.3C123.1 103.3 123.2 103.5 123.3 103.6C123.5 102.9 123.9 103.8 124.1 103.6C124.4 103.4 124.7 103.4 124.9 103.5C125.1 103.5 125.2 103.7 125.5 104.8C125.6 105.3 125.7 105.9 125.6 106.2C125.6 106.4 125.6 106.7 125.5 106.7C125.5 106.8 125.3 107 125.3 107.1C125.1 107.3 125 107.9 124.8 107.6C124.8 107.6 124.7 107.8 124.6 107.3C124.4 108.1 124.1 107.6 123.9 107.7C123.7 107.7 123.6 108.4 123.3 108.2C123.3 108.8 123.1 108.7 123 108.6C122.5 108 122.1 108.5 121.7 108.4C121.3 108.4 120.8 108.4 120.4 108.5C120.4 108.5 120.4 108.9 120.2 108.6C120.1 108.4 120 108.6 119.9 108.6C119.9 108.6 119.7 108.8 119.6 108.6C119.2 108 118.9 108.4 118.5 108.4C118.2 108.4 117.8 108.4 117.5 108.5C117.3 108.6 117.1 109 116.9 108.9C116.9 108.9 116.8 109.2 116.6 108.6C116.6 108.4 116.6 108.9 116.5 108.9C116.4 108.9 116.2 108.9 116.1 108.9C115.9 108.9 115.7 108.9 115.5 108.9C115.4 108.9 115.3 109.2 115.2 109.3C115.1 109.3 115 109.3 114.8 109.3C114.6 109.3 114.4 109.1 114.3 109C114.1 109 114 109.2 113.8 109C113.4 108.5 113.2 108.8 112.9 108.8C112.6 108.8 112.3 108.8 112 108.9C111.8 108.9 111.6 108.5 111.5 108.5C111.5 108.5 111.2 107.1 111.1 106.6V106.4C111.2 105.9 111.3 105.2 111.5 105.2C111.8 105.2 112 105.2 112.3 105.2L112.6 105.3Z" fill="black"/>
<path d="M138 89.2C137.5 89.5 137 89.7 136.5 90.1C136.3 90.2 136 90.1 136.1 90.7C136.1 91 135.6 90.5 135.5 90.7C135.1 91 134.6 91.2 134.2 91.6C133.8 91.9 133.5 92.4 133.1 92.7C132.7 93 132.1 93.1 131.9 93.6C131.7 94.1 131.1 93.8 130.8 94.2C130.5 94.5 130.2 94.9 129.7 94.9C129.3 94.9 129 94.9 128.8 95.2C128.7 95.4 128.8 95.7 128.5 95.8C128.3 95.8 128 95.8 128.2 96.4C128.2 96.4 128.1 96.4 128 96.4C127.6 96.2 127.4 96.4 127.4 96.7C127.4 97 127.3 97.1 127.1 97.2C126.8 97.5 126.4 97.7 126 97.9C125.7 98 125.3 98 125 98.2C124.7 98.3 124.6 98.8 124.1 98.7C123.7 98.7 123.4 98.8 123.2 99C123.1 99.1 122.7 99 123 99.6C122.1 99.2 122.3 100.4 121.8 100.5C121.3 100.6 120.9 101.1 120.5 101.4C120.4 101.4 120.2 101.4 120.3 101.9C120.3 102.1 120.3 102.2 120.1 102.1C119.4 101.8 119.3 102.4 118.9 102.5C118.5 102.7 118.3 103.2 117.6 103.1C117.3 103.1 117 103.1 117.2 103.7C117.2 104 116.9 103.9 116.8 104.1C116.8 104.2 116.8 104.5 116.7 104.6C116.7 104.6 116.4 104.6 116.2 104.6C116.1 105.5 115 105.3 114.6 105.8C114.2 106.3 113.8 106.6 113.7 106.7C113.7 106.7 113.4 106.7 112.3 106.7C111.8 106.7 111.3 106.7 110.9 106.5C110.7 106.3 110.5 106.1 110.5 105.9C110.5 105.6 110.5 105.2 110.5 104.9C110.7 104.2 110.7 103.4 111.4 103.2C111.6 103.2 111.5 102.8 112 103.2H112.1C112.1 102.2 112.9 102.2 113.4 101.8C113.8 101.4 113.8 100.6 114.4 100.5C114.2 99.8 114.6 99.7 114.9 99.7C116.1 99.6 116.7 98.6 117.6 98C118.5 97.4 119.3 96.7 120.2 96.1C120.4 96 120.2 95.6 120.6 95.7C120.9 95.7 121 95.5 121.2 95.3C121.4 95.2 121.5 94.9 121.7 95C122.8 95 123.2 94.3 124 93.8C124.7 93.4 125.5 93 126.1 92.4C126.5 92 126.7 91.5 127.2 91.3C127.4 91.3 127.4 90.8 127.9 91.2C128 91.3 127.9 90.8 128.1 90.7C128.4 90.5 128.7 90.3 129 90.1C129.4 89.8 129.8 89.6 130.2 89.3C130.4 89.1 130.5 88.7 130.8 88.5C131 88.3 131.3 88.1 131.6 88C132 87.9 132.4 87.8 132.8 87.7C133.2 87.5 133.4 87.1 133.9 87.1C134.8 87.1 135.3 86.6 135.9 86.3C136.6 86 137.2 85.7 137.8 85.2C138.1 84.9 138.7 85.2 139 85C139.2 85 140.1 86.1 140.3 86.5V86.7C140.2 87.3 140.3 88.1 139.8 88.3C139.2 88.6 138.7 88.9 138.1 89.3L138 89.2Z" fill="black"/>
<path d="M165.8 111.098C165.3 110.598 164.9 110.198 164.4 109.698C164.2 109.498 164.2 109.198 163.7 109.398C163.4 109.498 163.7 108.898 163.5 108.698C163 108.298 162.6 107.798 162.1 107.498C161.6 107.098 161 106.898 160.5 106.498C160 106.098 159.8 105.498 159.1 105.398C158.5 105.298 158.6 104.598 158.1 104.398C157.6 104.198 157.2 103.898 157 103.398C156.8 102.998 156.7 102.598 156.4 102.498C156.2 102.498 155.8 102.498 155.7 102.298C155.5 102.098 155.5 101.798 155 102.098C155 102.098 155 101.998 155 101.898C155 101.398 154.8 101.298 154.5 101.298C154.2 101.298 154.1 101.298 153.9 101.098C153.5 100.798 153.1 100.498 152.8 100.098C152.5 99.7984 152.4 99.3984 152.2 99.0984C151.9 98.7984 151.4 98.6984 151.4 98.2984C151.4 97.7984 151 97.5984 150.8 97.3984C150.6 97.2984 150.6 96.8984 150.1 97.2984C150.1 96.2984 149 96.7984 148.7 96.1984C148.4 95.6984 147.8 95.3984 147.3 94.9984C147.2 94.9984 147.1 94.5984 146.7 94.9984C146.6 94.9984 146.4 94.9984 146.4 94.8984C146.4 94.0984 145.8 94.0984 145.5 93.6984C145.2 93.2984 144.6 93.1984 144.4 92.4984C144.4 92.1984 144.2 91.8984 143.6 92.1984C143.3 92.2984 143.3 91.9984 143.1 91.8984C142.9 91.8984 142.7 91.8984 142.5 91.8984C142.4 91.8984 142.5 91.5984 142.4 91.3984C142.4 91.3984 142.4 91.3984 142.3 91.3984C141.3 91.3984 141.2 90.2984 140.5 89.8984C139.8 89.5984 139.2 88.9984 138.6 88.4984C138.3 88.1984 138 87.7984 138.5 86.6984C138.7 86.1984 139 85.7984 139.4 85.5984C139.7 85.4984 139.9 85.3984 140.1 85.3984C140.4 85.3984 140.6 85.4984 140.9 85.5984C141.4 85.7984 142.2 85.5984 142.4 86.1984C142.4 86.3984 142.8 86.1984 142.6 86.6984V86.7984C143.6 86.5984 143.9 87.4984 144.5 87.7984C145 88.0984 145.9 87.9984 146.2 88.5984C146.9 88.2984 147.1 88.5984 147.3 88.9984C147.8 90.2984 149.1 90.6984 149.9 91.4984C150.8 92.2984 151.8 93.0984 152.7 93.8984C152.9 93.9984 153.2 93.8984 153.2 94.1984C153.2 94.4984 153.6 94.5984 153.8 94.7984C154 94.9984 154.3 94.9984 154.3 95.2984C154.6 96.3984 155.6 96.6984 156.3 97.3984C157 98.0984 157.7 98.7984 158.5 99.2984C159 99.5984 159.7 99.6984 160 100.198C160.1 100.398 160.6 100.298 160.4 100.898C160.4 101.098 160.8 100.898 161 100.898C161.3 101.098 161.6 101.398 161.9 101.698C162.3 102.098 162.7 102.498 163.1 102.798C163.4 102.998 163.8 102.998 164.1 103.198C164.4 103.398 164.7 103.598 164.9 103.898C165.2 104.298 165.4 104.698 165.7 105.098C166 105.498 166.5 105.598 166.7 106.098C167 106.998 167.7 107.398 168.3 107.998C168.9 108.598 169.4 109.198 170.1 109.698C170.3 109.798 170.3 109.998 170.4 110.198L168.2 112.898C168.1 112.598 167.9 112.398 167.7 112.198C167.5 112.098 168.1 110.698 168.5 110.298L168.7 110.198C169.2 110.098 169.8 109.798 170.2 109.898L167.8 112.798C167.8 112.798 167.6 112.798 167.6 112.598C167.1 111.998 166.5 111.498 166 110.998L165.8 111.098Z" fill="black"/>
<path d="M115.199 110.9C114.899 111.9 114.499 112.7 113.999 113.6C113.799 113.9 113.399 114.1 113.599 114.7C113.599 115 112.999 114.9 112.699 115.1C112.099 115.8 111.299 116.3 110.599 116.8C109.899 117.3 109.199 117.8 108.299 118.1C107.499 118.4 106.599 118.3 105.799 118.7C105.099 119 104.399 118.5 103.799 118.7C103.099 118.7 102.299 118.7 101.699 118.4C101.199 118.1 100.799 117.8 100.299 117.8C99.9991 117.8 99.5991 118 99.2991 117.8C98.9991 117.7 98.7991 117.3 98.2991 117.8C98.2991 117.8 98.1991 117.7 98.0991 117.6C97.9991 117.1 97.5991 117 97.1991 117.1C96.7991 117.2 96.5991 117.1 96.3991 117C95.7991 116.7 95.2991 116.5 94.4991 115.8C93.8991 115.2 93.4991 114.4 93.1991 113.6C92.8991 112.8 92.5991 112.1 92.7991 111.5C93.0991 110.9 93.0991 110.4 93.0991 109.8C93.0991 109.5 93.4991 109.2 92.8991 108.8V108.6C93.3991 108.3 93.4991 107.8 93.5991 107.4C93.5991 106.9 93.5991 106.4 94.0991 106C94.7991 105.3 95.3991 104.5 96.1991 103.9C96.3991 103.7 96.6991 103.7 96.6991 103.2C96.6991 103 96.8991 102.9 97.0991 102.9C97.9991 103.1 98.3991 102.5 99.0991 102.3C99.7991 102.1 100.399 101.6 101.199 101.9C101.499 102 101.999 102 102.199 101.4C102.199 101.1 102.699 101.3 102.899 101.2C103.099 101.2 103.299 100.8 103.499 100.8C103.699 100.8 103.899 101 104.099 101C104.099 101 104.199 101 104.299 101C105.299 100.2 106.499 101 107.599 101C108.699 101 109.899 101.2 110.999 101.7C111.599 102 112.199 102.5 111.899 103.7C111.799 104.2 111.499 104.7 111.099 104.9C110.799 105 110.599 105.2 110.399 105.1C110.099 105.1 109.799 105.1 109.599 105.1C108.999 105.1 108.499 105.5 107.999 105.1C107.899 105 107.599 105.3 107.599 104.7C107.599 104.7 107.599 104.6 107.499 104.7C106.699 105.4 105.999 104.9 105.299 105C104.699 105.1 104.199 105.8 103.499 105.7C103.299 106.4 102.899 106.4 102.499 106.3C101.099 106 99.9991 107 99.1991 107.5C98.2991 108 97.7991 108.8 97.4991 109.8C97.4991 110 97.7991 110.2 97.4991 110.3C97.1991 110.4 97.3991 110.7 97.3991 110.9C97.3991 111.1 97.4991 111.3 97.3991 111.5C97.2991 111.7 97.1991 111.9 97.1991 112C97.1991 112.2 97.1991 112.2 97.1991 112.3C97.1991 112.3 97.2991 112.4 97.3991 112.5C97.4991 112.5 97.6991 112.7 97.8991 112.8C98.6991 113.4 99.5991 113.9 100.599 114.1C101.599 114.3 101.899 114.1 102.399 114.3C102.599 114.4 102.899 114.1 103.099 114.7C103.099 114.9 103.399 114.5 103.599 114.5C103.999 114.5 104.399 114.5 104.799 114.5C105.299 114.5 105.899 114.5 106.399 114.3C106.699 114.3 106.899 113.9 107.199 113.7C107.499 113.5 107.799 113.4 108.099 113.3C108.499 113.2 108.899 113.2 109.299 113C109.699 112.8 109.799 112.3 110.199 112.2C111.099 112 111.299 111.2 111.499 110.5C111.799 109.8 111.999 109.1 111.799 108.4C111.699 108 112.099 107.6 111.999 107.2C111.999 107.1 113.199 106.2 113.699 106.1C113.699 106.1 113.899 106.1 113.999 106.1C114.699 106.5 115.499 106.9 115.599 107.7C115.599 108.9 115.599 110 115.299 111.1L115.199 110.9Z" fill="black"/>
<path d="M183.299 163.801C182.599 163.901 181.899 163.801 181.299 163.401C180.999 163.201 180.699 163.001 180.399 162.701L179.999 162.301H179.899C179.899 162.101 179.899 162.101 179.899 162.101C179.699 162.101 179.599 161.701 179.199 162.101C178.999 162.301 179.099 161.701 178.799 161.601C178.199 161.601 177.599 161.401 176.999 161.601C176.399 161.801 175.899 162.101 175.399 162.501C174.899 162.801 174.099 163.001 173.799 163.701C173.699 164.001 173.399 164.101 173.199 164.301H172.999C172.999 164.501 172.799 164.601 172.699 164.701C172.499 164.901 172.299 165.101 172.099 165.401C171.299 166.501 170.399 167.801 169.499 168.301C168.899 167.301 168.499 166.401 167.899 165.801C167.499 165.401 166.999 165.401 166.499 164.901C166.299 164.701 166.199 164.301 165.699 164.701C165.699 164.701 165.699 164.601 165.699 164.501C165.699 164.001 165.399 163.901 165.099 164.001C164.799 164.101 164.599 164.001 164.399 164.001C163.899 163.801 163.399 163.701 162.799 163.501C162.399 163.401 161.999 163.001 161.599 162.901C161.099 162.801 160.599 163.001 160.199 162.701C159.799 162.401 159.299 162.401 158.899 162.501C158.699 162.501 158.299 162.301 158.199 162.901C158.199 162.901 158.199 162.901 158.099 162.901C157.299 162.201 156.899 163.401 156.199 163.401C155.499 163.401 154.999 163.901 154.599 164.301C154.599 164.301 154.499 164.301 154.399 164.401C154.299 164.601 154.199 164.801 154.199 165.201C154.199 165.301 154.199 165.501 153.999 165.701C153.999 165.901 153.799 166.201 153.799 166.201C153.499 166.501 153.199 167.101 152.999 167.601C152.799 168.201 152.499 169.001 152.399 169.601L152.099 169.301C152.099 169.301 151.999 169.101 151.899 169.101C151.199 168.201 150.099 167.201 149.399 165.701C149.099 165.001 148.799 164.501 147.999 164.401C147.799 164.401 147.599 164.201 147.499 164.001C147.499 163.901 147.399 163.701 147.199 163.601C146.999 163.501 146.699 163.501 146.499 163.301C146.399 163.201 146.499 162.901 146.399 162.701C146.399 162.701 146.399 162.601 146.299 162.601C145.099 162.301 144.999 160.901 144.199 160.201C143.299 159.501 142.599 158.701 141.899 157.901C141.499 157.401 141.199 156.901 141.699 155.801C141.899 155.301 142.299 154.901 142.699 154.801C142.999 154.801 143.299 154.801 143.499 154.801C143.799 155.001 144.199 155.101 144.499 155.301C145.099 155.701 145.999 155.801 146.299 156.501C146.299 156.701 146.799 156.701 146.599 157.201V157.401C147.899 157.601 148.199 158.701 148.899 159.401C149.199 159.701 149.599 159.901 149.999 160.101C150.199 160.201 150.399 160.301 150.499 160.501C150.499 160.501 150.699 160.601 150.699 160.701C150.699 160.701 150.699 160.701 150.699 160.801C151.199 160.401 150.999 160.401 150.999 160.601C150.999 160.801 150.999 161.001 150.999 161.101V161.201C150.999 161.001 150.999 160.901 150.999 160.801L151.199 160.701C152.999 159.301 154.899 158.601 156.899 158.301C157.199 158.301 157.499 157.901 157.899 158.101C158.299 158.301 158.699 158.101 159.199 158.101C159.599 158.101 159.999 157.901 160.399 158.101C161.899 158.801 163.399 158.601 164.799 159.201C166.199 159.701 167.599 160.501 168.799 161.301C169.199 161.501 169.299 161.101 169.399 161.401V161.301C169.399 161.301 169.399 161.301 169.499 161.701C169.499 161.901 169.499 161.301 169.499 161.201V161.101L169.799 160.801C170.399 160.201 171.099 159.701 171.899 159.101C172.299 158.801 172.699 158.301 173.199 157.901C173.699 157.601 174.399 157.301 175.099 157.201C175.899 157.101 176.799 157.201 177.599 157.201C178.399 157.201 179.399 157.201 180.199 157.701C180.499 157.901 180.899 158.201 181.199 158.401C181.399 158.501 181.499 158.601 181.699 158.801L181.899 159.001C181.999 159.101 182.199 159.201 182.299 159.301C182.499 159.401 182.699 159.301 182.799 159.201L182.999 159.001L183.199 158.701C183.299 158.601 183.499 158.401 183.599 158.301C184.299 157.701 185.199 157.801 185.899 157.601C186.099 157.601 186.399 157.801 186.599 158.201C186.799 158.601 186.999 159.101 186.999 159.301C186.999 159.301 186.999 159.501 186.999 159.601C186.599 160.201 186.499 161.001 186.199 161.201C185.899 161.401 185.799 161.401 185.099 162.301C184.499 163.001 183.999 163.501 183.199 163.601L183.299 163.801Z" fill="black"/>
<path d="M199.899 166.001C199.899 166.001 199.799 166.201 199.699 166.301C199.699 166.301 199.499 166.401 199.399 166.501H199.499C199.699 166.501 199.899 166.501 200.099 166.701C200.299 166.701 200.399 166.801 200.599 167.001C200.899 167.201 201.299 167.401 201.599 167.601C202.299 168.101 202.899 168.601 203.399 169.201C204.399 170.201 204.899 171.401 205.899 172.501C206.399 173.101 206.299 174.501 206.499 175.801C207.099 179.301 205.699 182.701 203.699 185.301C203.199 185.901 202.699 186.501 202.099 187.101C201.799 187.401 201.499 187.701 201.199 187.901L200.499 188.501C200.299 188.701 200.199 188.701 200.199 188.801L199.999 188.901C200.199 188.901 200.299 189.101 200.499 189.301L200.899 189.601L201.699 190.401C202.199 190.901 202.699 191.401 203.299 191.901C204.199 192.801 204.899 193.901 205.399 195.101C205.899 196.301 206.299 197.601 206.399 199.101C206.599 200.701 206.199 202.401 205.399 203.801C204.699 205.201 203.599 206.201 202.599 207.001C200.999 208.101 199.399 208.901 197.699 209.801C196.599 210.301 195.599 211.001 194.199 211.201C192.899 211.301 191.399 211.001 189.999 211.201C189.899 211.201 189.299 210.901 188.999 210.601C188.599 210.301 188.199 209.901 187.799 209.601C187.799 209.601 187.599 209.401 187.499 209.401V209.301C187.499 209.301 187.399 209.301 187.299 209.301C187.299 209.501 187.299 209.601 187.299 209.601V209.701C186.899 210.201 186.499 210.701 186.099 211.101C184.599 212.601 182.799 213.501 180.999 214.401C179.099 215.301 177.099 216.201 175.199 216.301C173.299 216.301 171.499 216.501 169.699 216.401C168.599 216.401 167.499 215.901 166.499 216.301C166.499 216.301 165.999 216.301 165.799 216.101C163.099 214.401 159.899 213.901 157.899 210.701C157.399 209.801 156.999 208.601 157.099 207.501C157.099 207.201 157.099 207.001 157.099 206.701C157.099 206.601 157.099 206.401 157.099 206.401C157.099 206.301 157.099 206.201 157.099 206.101C157.099 206.101 157.099 206.101 157.099 206.001C157.099 206.001 156.999 206.001 156.899 206.101C156.899 206.101 156.699 206.101 156.599 206.501C156.599 206.501 156.599 206.601 156.599 206.701C156.599 206.701 156.599 206.701 156.499 206.701C156.499 206.701 156.399 206.701 156.299 206.701C154.999 206.701 153.699 206.701 152.399 206.501C151.099 206.401 149.799 206.201 148.599 205.601C147.199 205.001 145.899 204.301 144.799 203.201C143.699 202.201 142.799 200.901 142.299 199.601C141.899 198.401 141.399 196.901 140.499 195.601C140.099 195.001 140.199 193.501 140.099 192.401C140.099 191.501 139.899 190.601 140.099 189.701C140.099 189.301 140.299 189.001 140.499 188.601L141.099 187.601C141.199 187.401 141.299 187.101 141.399 186.901C141.799 185.501 142.599 184.201 143.799 183.101C144.999 182.001 146.699 181.301 148.499 181.201L149.699 185.601C147.999 186.301 146.199 186.401 144.499 186.201C143.299 186.001 142.099 185.501 140.999 184.801C139.899 184.001 139.099 183.001 138.599 181.901C137.999 180.801 137.699 179.501 137.699 178.201C137.699 177.601 137.699 176.901 137.899 176.301C137.999 175.701 138.199 175.201 138.399 174.701C138.799 173.601 139.299 172.801 139.799 172.101C140.199 171.401 140.599 171.001 141.099 170.401C141.499 169.901 141.999 169.501 142.499 170.401C142.799 171.101 142.899 172.001 142.699 172.801C142.399 174.101 141.999 175.201 141.699 176.201C141.199 178.201 142.099 179.701 142.999 181.101C143.299 181.601 143.899 181.601 144.099 182.201C144.099 182.201 144.299 182.401 144.499 182.401C145.699 182.401 146.899 182.301 147.799 181.801L148.799 185.401C147.799 185.401 146.699 186.001 145.899 187.201C145.299 188.101 144.999 189.301 144.899 190.401C144.799 191.501 144.899 192.701 144.899 193.801C145.699 195.001 145.999 196.301 146.499 197.501C147.299 199.601 149.099 201.101 151.299 201.701C152.399 202.001 153.499 202.101 154.699 202.001C154.999 202.001 155.299 202.001 155.499 201.901H155.699H155.799C155.799 201.901 155.899 201.901 155.999 201.901L156.899 201.601L157.399 201.401C157.599 201.401 157.699 201.201 157.899 201.101L158.899 200.401C159.199 200.201 159.699 199.901 159.999 199.601L161.199 198.801L162.299 198.101C162.599 199.401 162.599 201.501 162.499 203.401C162.499 204.501 161.999 205.801 161.799 207.001C161.799 207.601 161.799 207.701 161.899 208.001C161.999 208.301 162.299 208.701 162.599 209.001C162.799 209.201 162.999 209.401 163.199 209.601C163.399 209.801 163.599 210.001 163.799 210.101C164.699 210.801 165.699 211.301 166.799 211.701C167.599 211.901 168.299 211.701 169.199 212.201C170.099 212.601 171.299 212.401 172.399 212.301C173.399 212.301 174.399 211.901 175.399 211.801C177.299 211.601 179.299 211.001 180.899 209.901C181.699 209.401 182.499 208.801 183.099 208.101C183.399 207.801 183.699 207.401 183.999 207.101C183.999 207.101 184.199 206.801 184.299 206.601C184.399 206.401 184.499 206.201 184.599 205.901L184.899 205.201C184.999 205.001 184.999 204.601 185.099 204.301H185.599C186.399 204.101 186.899 203.901 187.099 203.701V203.001V202.301V201.901V201.701C187.099 200.101 187.199 203.901 187.099 203.501C187.099 203.701 187.099 203.801 187.099 203.901C187.299 204.201 187.799 204.601 189.299 204.901C189.299 205.201 189.499 205.401 189.599 205.601L189.799 205.901C189.799 205.901 189.899 206.101 189.999 206.101C189.999 206.101 190.099 206.201 190.199 206.301C190.199 206.301 190.199 206.301 190.299 206.301H190.499C190.799 206.601 191.099 206.801 191.499 206.901C191.799 207.001 192.199 207.101 192.499 207.101C192.899 207.101 193.199 207.101 193.599 207.101C195.699 206.901 197.699 205.401 199.599 204.001C200.399 203.401 200.799 202.501 201.799 202.101C202.099 202.001 202.099 201.001 202.199 200.601C202.299 200.001 202.299 199.501 202.199 198.801C202.099 198.201 201.799 197.501 201.499 196.901C200.999 196.001 200.299 195.001 199.599 194.201C199.199 193.801 198.799 193.401 198.399 193.001C198.299 193.001 198.199 192.801 198.099 192.701C197.899 192.501 197.699 192.301 197.399 192.201C197.099 192.001 196.899 191.901 196.599 191.701L195.699 191.201C194.599 190.701 193.299 190.201 191.899 189.701L187.799 188.201C188.799 187.901 189.699 187.601 190.999 187.201C191.999 186.901 193.099 186.601 194.099 186.301C194.699 186.201 195.099 186.001 195.499 185.801C195.899 185.601 196.399 185.501 196.799 185.301L197.799 184.701L198.299 184.401H198.499C198.799 184.101 198.999 183.901 199.299 183.701C200.599 182.701 201.799 181.401 202.399 179.901C202.699 179.101 202.799 178.201 202.799 177.401C202.799 176.601 202.699 175.801 202.499 175.001C202.399 174.201 202.099 173.501 201.699 172.801C201.299 172.101 200.799 171.501 200.199 171.001C199.499 170.501 199.299 170.201 197.599 169.601C195.799 169.301 193.299 169.101 191.799 168.901H191.699H191.499L190.999 168.701H190.899H190.699H190.199L193.199 167.001L194.399 166.301L195.499 165.701L196.199 165.201L196.499 165.001L196.599 164.801V164.501C196.699 164.501 196.699 164.401 196.699 164.301C196.799 163.801 196.799 163.101 196.699 162.501C196.699 162.201 196.499 161.901 196.399 161.701C196.399 161.601 196.299 161.501 196.199 161.301C196.199 161.201 195.999 161.001 195.899 160.901C195.499 160.401 194.999 160.001 194.399 159.601C193.599 159.101 192.899 158.601 192.099 158.101C191.699 157.901 191.299 157.601 190.799 157.401C190.299 157.201 189.999 157.001 189.599 156.901C189.299 156.901 189.099 156.501 188.799 156.201C188.399 155.901 187.699 156.001 187.699 155.601C187.699 155.501 187.699 155.201 187.999 155.001C188.699 154.401 189.499 154.401 190.099 154.301C190.699 154.301 191.399 154.401 191.899 154.501C192.999 154.701 194.099 154.901 195.199 155.601C196.899 156.601 198.599 157.901 199.699 160.001C200.199 161.101 200.499 162.201 200.499 163.301C200.499 163.901 200.499 164.501 200.299 165.001C200.299 165.101 200.299 165.301 200.199 165.401V165.601C200.199 165.601 200.199 165.701 200.199 165.801L199.899 166.001Z" fill="black"/>
<path d="M178 179.2C177.8 179.2 177.6 179.2 177.3 179.2C177.3 179.2 177.1 179 177.1 179.5C177.1 179.8 176.9 179.1 176.9 179.2C176.7 179.2 176.5 179.2 176.3 179.2C176.1 179.2 175.9 179.5 175.7 179.6C175.5 179.6 175.3 179.4 175.1 179.7C174.9 180 174.8 179.5 174.6 179.7C174.4 179.8 174.3 179.9 174.1 179.7C174 179.5 173.9 179.3 173.7 179.4C173.7 179.4 173.6 179.8 173.5 179.8C173.5 179.8 173.3 179.5 173.3 180.1C173.3 180.1 173.3 180.1 173.3 180C173.3 179.6 173.1 179.6 173 179.9C173 180.2 172.9 180.1 172.8 180.1C172.6 180.1 172.5 180.1 172.3 180.1C172.2 180.1 172.1 179.8 171.9 179.7C171.8 179.7 171.6 179.9 171.5 179.7C171.4 179.4 171.3 179.4 171.2 179.4C171.2 179.4 171.1 179.1 171 179.7C170.9 178.9 170.6 179.9 170.4 179.7C170.2 179.5 170 179.7 169.8 179.7C169.8 179.7 169.8 179.5 169.6 180C169.6 180.2 169.6 180.2 169.5 180C169.5 179.4 169.2 179.7 169.1 179.6C168.9 179.5 168.7 179.7 168.6 179.2C168.6 179 168.5 178.9 168.3 179.4C168.3 179.7 168.2 179.4 168.1 179.4L167.9 179.7C167.9 179.7 167.9 179.5 167.9 179.3C167.5 179.9 167.4 179 167.1 179.1C166.8 179.2 166.6 179.1 166.3 179C166.2 179 166.1 178.7 166.2 177.6C166.2 177.1 166.4 176.5 166.5 176.2C166.5 176 166.7 175.8 166.7 175.7C166.7 175.7 166.9 175.5 167 175.4C167.2 175.2 167.4 174.7 167.5 175.1C167.5 175.1 167.6 174.9 167.5 175.4C167.8 174.7 168 175.2 168.2 175.2C168.4 175.2 168.7 174.6 168.8 174.9C169 174.3 169.1 174.4 169.2 174.6C169.5 175.3 169.9 174.9 170.2 175C170.5 175.1 170.9 175 171.3 175.1C171.3 175.1 171.4 174.8 171.5 175.1C171.5 175.4 171.7 175.1 171.7 175.1C171.7 175.1 171.9 175 171.9 175.1C172.1 175.8 172.5 175.4 172.7 175.5C173 175.5 173.3 175.6 173.6 175.5C173.8 175.4 173.9 175.1 174.1 175.2C174.1 175.2 174.2 174.9 174.3 175.5C174.3 175.7 174.3 175.2 174.4 175.2C174.5 175.2 174.6 175.2 174.8 175.2C175 175.2 175.1 175.2 175.3 175.2C175.3 175.2 175.5 174.9 175.6 174.8C175.6 174.8 175.8 174.8 175.9 174.8C176 174.8 176.2 175.1 176.3 175.1C176.4 175.1 176.6 174.9 176.7 175.1C177 175.6 177.2 175.3 177.5 175.3C177.7 175.3 178 175.3 178.2 175.2C178.3 175.2 178.5 175.6 178.7 175.6C178.7 175.6 179.1 177 179.1 177.5V177.7C179.1 178.2 179 178.9 178.8 178.9C178.5 178.9 178.3 178.9 178.1 178.9L178 179.2Z" fill="black"/>
<path d="M138 155.901C138 155.701 138.2 155.401 138.2 155.201C138.2 155.201 138.5 155.101 138 154.901C137.8 154.801 138.4 154.901 138.4 154.801C138.4 154.601 138.5 154.401 138.5 154.101C138.5 153.901 138.3 153.601 138.3 153.401C138.3 153.201 138.6 153.001 138.3 152.701C138.1 152.501 138.6 152.401 138.5 152.201C138.5 152.001 138.4 151.801 138.6 151.601C138.8 151.501 139 151.401 138.9 151.201C138.9 151.201 138.5 151.001 138.6 150.901C138.6 150.901 138.9 150.801 138.3 150.601C138.3 150.601 138.3 150.601 138.5 150.601C138.9 150.601 138.9 150.501 138.6 150.301C138.3 150.201 138.4 150.101 138.4 150.101C138.4 149.901 138.4 149.701 138.4 149.501C138.4 149.401 138.7 149.301 138.8 149.101C138.8 149.001 138.6 148.801 138.9 148.701C139.2 148.601 139.2 148.501 139.2 148.301C139.2 148.301 139.5 148.201 138.9 148.001C139.7 147.801 138.7 147.501 138.9 147.301C139.1 147.101 138.9 146.801 138.9 146.601C138.9 146.601 139.1 146.501 138.6 146.401C138.4 146.401 138.4 146.401 138.6 146.301C139.2 146.201 138.9 146.001 139 145.801C139.1 145.601 138.8 145.401 139.3 145.201C139.5 145.201 139.6 145.001 139 144.901C138.7 144.901 139 144.801 139 144.701C139 144.701 138.7 144.601 138.7 144.501C138.7 144.501 138.9 144.501 139 144.301C138.3 144.001 139.2 143.701 139 143.401C138.8 143.101 138.9 142.801 139 142.501C139 142.301 139.2 142.201 140.4 142.001C140.9 142.001 141.5 141.901 141.8 142.001C142 142.001 142.3 142.001 142.3 142.201C142.4 142.201 142.5 142.401 142.6 142.501C142.8 142.701 143.3 142.901 143.1 143.101C143.1 143.101 143.3 143.201 142.8 143.301C143.6 143.601 143.1 143.901 143.1 144.201C143.1 144.401 143.8 144.701 143.5 144.901C144.1 145.001 144 145.201 143.8 145.301C143.1 145.801 143.6 146.301 143.4 146.801C143.3 147.301 143.4 147.801 143.3 148.301C143.3 148.301 143.6 148.501 143.3 148.601C143 148.601 143.3 148.801 143.3 148.901C143.3 148.901 143.4 149.101 143.3 149.201C142.6 149.501 143 149.901 142.8 150.301C142.7 150.701 142.6 151.001 142.7 151.501C142.7 151.701 143.1 152.001 142.9 152.301C142.9 152.301 143.1 152.601 142.5 152.601C142.3 152.601 142.8 152.801 142.8 152.801C142.8 153.001 142.8 153.101 142.8 153.301C142.8 153.501 142.7 153.701 142.7 154.001C142.7 154.101 142.9 154.301 143 154.501C143 154.701 143 154.801 143 154.901C142.9 155.101 142.6 155.201 142.5 155.401C142.4 155.601 142.6 155.801 142.3 155.901C141.7 156.101 141.9 156.501 141.7 156.801C141.6 157.101 141.4 157.401 141.4 157.801C141.4 158.001 140.9 158.001 140.8 158.201C140.8 158.201 139.3 158.001 138.9 157.801C138.9 157.801 138.7 157.801 138.7 157.701C138.3 157.401 137.7 157.001 137.8 156.901C138 156.701 138 156.401 138.1 156.101L138 155.901Z" fill="black"/>
</svg>
