<svg width="300" height="300" viewBox="0 0 300 300" fill="none" xmlns="http://www.w3.org/2000/svg">
<path d="M184.099 141C183.699 140.6 183.399 140.2 182.999 139.8C182.799 139.7 182.999 139.3 182.399 139.6C182.099 139.7 182.399 139.1 182.399 139C181.999 138.7 181.699 138.3 181.299 137.9C180.899 137.6 180.399 137.4 180.099 137.1C179.699 136.8 179.599 136.2 179.099 136.1C178.599 136 178.699 135.4 178.399 135.2C177.999 135 177.699 134.7 177.599 134.3C177.599 134 177.499 133.6 177.199 133.5C176.999 133.5 176.699 133.5 176.599 133.4C176.499 133.3 176.599 132.9 175.999 133.2C175.999 133.2 175.999 133.1 175.999 133C176.199 132.6 175.999 132.4 175.699 132.5C175.399 132.5 175.299 132.5 175.199 132.3C174.899 132 174.599 131.7 174.399 131.4C174.199 131.1 174.199 130.8 173.999 130.5C173.799 130.2 173.399 130.2 173.399 129.7C173.399 129.3 173.199 129.1 172.999 128.9C172.899 128.8 172.999 128.4 172.399 128.8C172.699 127.9 171.599 128.3 171.399 127.8C171.199 127.3 170.799 127 170.399 126.7C170.399 126.7 170.399 126.4 169.899 126.7C169.799 126.7 169.599 126.7 169.699 126.6C169.899 125.9 169.399 125.9 169.199 125.5C168.999 125.1 168.499 125 168.499 124.3C168.499 124 168.499 123.8 167.899 124C167.599 124.1 167.699 123.8 167.499 123.7C167.399 123.7 167.099 123.7 166.999 123.7C166.999 123.7 166.999 123.4 166.999 123.2C166.099 123.2 166.299 122.1 165.699 121.8C165.099 121.5 164.699 120.9 164.399 120.4C164.199 120.1 164.099 119.7 164.799 118.8C165.099 118.4 165.499 118 165.799 117.9C166.099 117.9 166.299 117.8 166.399 117.9C166.599 117.9 166.799 118 166.999 118.1C167.399 118.3 168.099 118.1 168.199 118.7C168.199 118.9 168.599 118.7 168.199 119.2V119.3C169.199 119.2 169.199 120 169.599 120.3C169.999 120.6 170.799 120.5 170.899 121.1C171.499 120.9 171.699 121.1 171.699 121.5C171.899 122.7 172.899 123.1 173.499 123.8C174.099 124.6 174.799 125.2 175.499 126C175.599 126.1 175.999 126 175.899 126.3C175.899 126.6 176.099 126.6 176.299 126.8C176.399 126.9 176.699 127 176.699 127.2C176.699 128.2 177.599 128.5 177.999 129.1C178.499 129.7 178.999 130.3 179.599 130.8C179.999 131.1 180.599 131.2 180.799 131.6C180.799 131.8 181.299 131.7 180.999 132.3C180.999 132.5 181.399 132.3 181.499 132.3C181.799 132.5 181.999 132.8 182.199 133C182.499 133.3 182.799 133.7 183.099 134C183.299 134.2 183.699 134.2 183.899 134.4C184.099 134.6 184.299 134.8 184.499 135C184.699 135.3 184.799 135.7 184.999 136C185.199 136.3 185.699 136.4 185.699 136.9C185.699 137.7 186.399 138 186.799 138.6C187.199 139.1 187.599 139.6 188.199 140C188.499 140.2 188.399 140.8 188.599 141.1C188.699 141.2 187.799 142.4 187.399 142.7L187.199 142.8C186.599 142.8 185.899 143.1 185.599 142.8C185.199 142.3 184.799 141.9 184.399 141.5L184.099 141Z" fill="black"/>
<path d="M116.9 165.102C116.9 165.502 116.9 165.902 117.1 166.302C117.1 166.402 116.9 166.602 117.5 166.702C117.8 166.702 117.2 167.002 117.2 167.102C117.3 167.502 117.2 167.902 117.4 168.202C117.5 168.602 117.8 168.902 117.9 169.202C118 169.602 117.8 170.002 118.2 170.302C118.5 170.602 118.1 170.902 118.2 171.202C118.4 171.502 118.5 171.802 118.3 172.102C118.2 172.302 118 172.602 118.1 172.802C118.1 172.902 118.5 173.002 118.5 173.102C118.5 173.202 118.3 173.402 118.9 173.502C118.9 173.502 118.9 173.502 118.8 173.602C118.4 173.802 118.5 174.002 118.8 174.102C119.1 174.102 119.1 174.302 119.1 174.402C119.1 174.702 119.3 175.002 119.3 175.302C119.3 175.502 119.1 175.802 119.1 176.002C119.1 176.302 119.4 176.502 119.1 176.702C118.8 177.002 118.9 177.202 118.9 177.402C118.9 177.502 118.7 177.702 119.3 177.702C118.5 178.202 119.7 178.402 119.5 178.702C119.4 179.102 119.5 179.502 119.7 179.802C119.7 179.802 119.6 180.002 120 180.002C120.2 180.002 120.2 180.102 120 180.202C119.4 180.602 119.9 180.802 119.8 181.102C119.8 181.402 120.1 181.702 119.7 182.102C119.5 182.302 119.4 182.502 120.1 182.502C120.4 182.502 120.1 182.702 120.2 182.802C120.2 182.802 120.6 182.902 120.6 183.002C120.6 183.002 120.4 183.202 120.3 183.302C121 183.602 120.3 184.302 120.5 184.702C120.8 185.102 120.8 185.602 120.8 186.102C120.8 186.402 120.7 186.702 119.6 187.102C119.1 187.302 118.6 187.402 118.2 187.302C117.9 187.302 117.7 187.302 117.6 187.102C117.5 187.002 117.3 186.802 117.2 186.702C116.9 186.402 116.4 186.202 116.6 185.902C116.6 185.802 116.3 185.702 116.8 185.502C115.9 185.202 116.4 184.702 116.2 184.302C116.1 183.902 115.4 183.702 115.6 183.302C114.9 183.302 115 183.002 115.2 182.702C115.7 181.802 115.2 181.202 115.1 180.502C115.1 179.702 114.8 179.002 114.7 178.302C114.7 178.202 114.3 178.102 114.6 177.902C114.8 177.702 114.6 177.602 114.6 177.402C114.6 177.302 114.4 177.102 114.6 177.002C115.1 176.302 114.6 175.802 114.6 175.202C114.6 174.602 114.6 174.002 114.3 173.502C114.1 173.202 113.7 172.902 113.8 172.502C113.8 172.302 113.5 172.202 114 172.002C114.2 172.002 113.7 171.902 113.6 171.802C113.6 171.602 113.5 171.302 113.5 171.102C113.5 170.802 113.5 170.402 113.3 170.102C113.3 169.902 113 169.702 112.9 169.502C112.9 169.302 112.8 169.102 112.8 168.902C112.8 168.602 113 168.302 113 168.002C113 167.702 112.7 167.502 113 167.102C113.4 166.502 113 166.102 113 165.502C113 165.002 113 164.502 112.7 164.002C112.6 163.702 113 163.402 113 163.102C113 163.002 114.4 162.602 114.9 162.602H115.1C115.6 162.802 116.4 162.902 116.4 163.302C116.4 163.802 116.5 164.202 116.6 164.702L116.9 165.102Z" fill="black"/>
<path d="M166.099 147.298C166.499 147.098 166.799 146.998 167.199 146.698C167.299 146.698 167.599 146.698 167.499 146.198C167.499 145.898 167.899 146.398 167.999 146.398C168.299 146.198 168.699 146.098 168.999 145.898C169.299 145.698 169.499 145.298 169.799 145.098C170.099 144.898 170.599 145.098 170.799 144.598C170.999 144.198 171.399 144.598 171.599 144.298C171.799 144.098 172.099 143.898 172.499 143.998C172.799 143.998 173.099 144.198 173.199 143.998C173.199 143.898 173.199 143.498 173.399 143.498C173.499 143.498 173.799 143.698 173.699 142.998C173.699 142.998 173.699 142.998 173.899 142.998C174.199 143.298 174.399 143.198 174.399 142.998C174.399 142.698 174.499 142.698 174.599 142.598C174.899 142.498 175.199 142.298 175.499 142.298C175.699 142.298 175.999 142.298 176.299 142.298C176.499 142.298 176.699 141.898 176.999 142.098C177.299 142.298 177.499 142.198 177.699 142.098C177.799 142.098 178.099 142.298 177.899 141.598C178.499 142.298 178.499 141.098 178.899 141.198C179.299 141.198 179.599 140.998 179.999 140.898C179.999 140.898 180.299 140.998 180.199 140.498C180.199 140.298 180.199 140.298 180.399 140.398C180.899 140.898 180.999 140.398 181.299 140.398C181.599 140.398 181.899 139.998 182.299 140.398C182.499 140.598 182.699 140.598 182.699 139.998C182.699 139.698 182.899 139.998 182.999 139.798C182.999 139.798 182.999 139.398 183.199 139.398C183.199 139.398 183.399 139.598 183.499 139.698C183.799 138.898 184.499 139.698 184.899 139.298C185.299 138.998 185.799 138.898 186.299 138.898C186.599 138.898 186.899 138.898 187.399 139.998C187.599 140.498 187.799 140.998 187.699 141.398C187.699 141.698 187.699 141.898 187.599 141.998C187.499 142.098 187.399 142.298 187.299 142.398C187.099 142.698 186.899 143.298 186.599 143.098C186.499 143.098 186.499 143.398 186.199 142.898C185.999 143.798 185.499 143.398 185.099 143.598C184.799 143.798 184.599 144.498 184.199 144.298C184.199 144.998 183.999 144.898 183.699 144.798C182.799 144.398 182.299 144.998 181.599 145.198C180.899 145.298 180.299 145.698 179.599 145.898C179.499 145.898 179.599 146.298 179.299 146.098C179.099 145.898 178.999 146.098 178.799 146.198C178.699 146.198 178.599 146.398 178.399 146.298C177.599 145.898 177.299 146.498 176.699 146.598C176.199 146.698 175.599 146.898 175.199 147.298C174.899 147.498 174.799 147.998 174.399 147.998C174.199 147.998 174.199 148.398 173.899 147.898C173.799 147.798 173.899 148.198 173.799 148.298C173.599 148.398 173.399 148.498 173.199 148.598C172.899 148.698 172.599 148.798 172.299 148.998C172.099 149.098 172.099 149.398 171.899 149.598C171.699 149.698 171.599 149.798 171.299 149.898C170.999 149.898 170.699 149.898 170.399 149.898C170.099 149.898 169.999 150.298 169.599 150.198C168.899 149.998 168.599 150.398 168.199 150.598C167.699 150.798 167.299 150.898 166.899 151.298C166.699 151.498 166.199 151.198 165.999 151.298C165.899 151.298 165.099 150.098 164.899 149.698V149.498C164.899 148.998 164.799 148.198 165.099 148.098C165.499 147.998 165.899 147.698 166.299 147.498L166.099 147.298Z" fill="black"/>
<path d="M146.699 141.101C146.699 140.901 146.699 140.701 146.699 140.601C146.699 140.601 146.899 140.501 146.399 140.401C146.099 140.401 146.799 140.301 146.699 140.201C146.699 140.001 146.699 139.901 146.699 139.701C146.699 139.501 146.399 139.401 146.399 139.201C146.399 139.001 146.699 138.901 146.399 138.701C146.099 138.501 146.599 138.501 146.499 138.301C146.399 138.201 146.299 138.001 146.499 137.901C146.699 137.901 146.899 137.701 146.799 137.601C146.799 137.601 146.399 137.401 146.499 137.401C146.499 137.401 146.799 137.401 146.199 137.201C146.199 137.201 146.199 137.201 146.399 137.201C146.799 137.201 146.799 137.201 146.499 137.001C146.199 137.001 146.299 136.901 146.299 136.801C146.299 136.701 146.299 136.501 146.299 136.401C146.299 136.401 146.599 136.201 146.699 136.201C146.699 136.201 146.499 135.901 146.799 135.901C147.099 135.901 147.099 135.801 147.099 135.701C147.099 135.701 147.399 135.701 146.799 135.501C147.599 135.501 146.599 135.101 146.799 135.001C146.999 134.901 146.899 134.701 146.999 134.501C146.999 134.501 147.199 134.501 146.799 134.301C146.599 134.201 146.599 134.301 146.799 134.301C147.399 134.301 147.099 134.101 147.199 134.001C147.399 133.901 147.199 133.701 147.599 133.701C147.799 133.701 147.899 133.701 147.399 133.401C147.199 133.301 147.399 133.401 147.399 133.201L147.099 133.001C147.099 133.001 147.299 133.001 147.499 133.001C146.899 132.601 147.899 132.701 147.799 132.401C147.799 132.101 147.799 132.001 147.999 131.801C147.999 131.801 148.299 131.701 149.399 132.001C149.899 132.201 150.399 132.401 150.699 132.601C150.899 132.701 151.099 132.801 151.099 132.901C151.099 132.901 151.299 133.101 151.299 133.201C151.399 133.401 151.899 133.701 151.599 133.701C151.599 133.701 151.799 133.901 151.299 133.701C151.999 134.101 151.399 134.101 151.399 134.301C151.399 134.401 151.999 134.801 151.699 134.801C152.299 135.101 152.099 135.101 151.899 135.101C151.199 135.101 151.499 135.501 151.399 135.801C151.199 136.001 151.299 136.301 151.199 136.601C151.199 136.601 151.499 136.801 151.199 136.801C150.899 136.801 151.199 136.901 151.199 137.001C151.199 137.001 151.299 137.101 151.199 137.201C150.499 137.201 150.899 137.601 150.799 137.801C150.799 138.001 150.599 138.201 150.799 138.401C150.799 138.501 151.199 138.701 151.099 138.801C151.099 138.801 151.399 138.901 150.799 138.901C150.599 138.901 151.099 138.901 151.099 139.001C151.099 139.001 151.099 139.201 151.099 139.301C151.099 139.401 151.099 139.501 151.099 139.701L151.399 139.901V140.101C151.399 140.101 151.099 140.301 150.999 140.401C150.999 140.501 151.199 140.601 150.999 140.701C150.499 140.901 150.699 141.101 150.699 141.301C150.699 141.501 150.699 141.701 150.699 141.801C150.699 141.801 150.299 142.001 150.299 142.101C150.299 142.101 148.799 142.301 148.299 142.401H148.099C147.599 142.401 146.899 142.301 146.899 142.101C146.899 141.901 146.899 141.701 146.899 141.501L146.699 141.101Z" fill="black"/>
<path d="M157.1 141.898C157.1 141.698 157.1 141.498 157.1 141.398C157.1 141.398 157.3 141.298 156.8 141.198C156.5 141.198 157.2 141.098 157.1 140.998C157.1 140.798 157.1 140.698 157.1 140.498C157.1 140.298 156.8 140.198 156.8 139.998C156.8 139.798 157.1 139.698 156.8 139.498C156.5 139.298 157 139.298 156.9 139.098C156.8 138.998 156.7 138.798 156.9 138.698C157.1 138.698 157.3 138.498 157.2 138.398C157.2 138.398 156.8 138.198 156.9 138.198C156.9 138.198 157.2 138.198 156.6 137.998C156.6 137.998 156.6 137.998 156.8 137.998C157.2 137.998 157.2 137.998 156.9 137.798C156.6 137.798 156.7 137.698 156.7 137.598C156.7 137.498 156.7 137.298 156.7 137.198C156.7 137.198 157 136.998 157.1 136.998C157.1 136.998 156.9 136.698 157.2 136.698C157.5 136.698 157.5 136.598 157.5 136.498C157.5 136.498 157.8 136.498 157.2 136.298C158 136.298 157 135.898 157.2 135.798C157.4 135.698 157.3 135.498 157.4 135.298C157.4 135.298 157.6 135.298 157.2 135.098C157 134.998 157 135.098 157.2 135.098C157.8 135.098 157.5 134.898 157.6 134.798C157.8 134.698 157.6 134.498 158 134.498C158.2 134.498 158.3 134.498 157.8 134.198C157.6 134.098 157.8 134.198 157.8 133.998L157.5 133.798C157.5 133.798 157.7 133.798 157.9 133.798C157.3 133.398 158.3 133.498 158.2 133.198C158.2 132.898 158.2 132.798 158.4 132.598C158.4 132.598 158.7 132.498 159.8 132.798C160.3 132.998 160.8 133.198 161.1 133.398C161.3 133.498 161.5 133.598 161.5 133.698C161.5 133.698 161.7 133.898 161.7 133.998C161.8 134.198 162.3 134.498 162 134.498C162 134.498 162.2 134.698 161.7 134.498C162.4 134.898 161.8 134.898 161.8 135.098C161.8 135.198 162.4 135.598 162.1 135.598C162.7 135.898 162.5 135.898 162.3 135.898C161.6 135.898 161.9 136.298 161.8 136.598C161.6 136.798 161.7 137.098 161.6 137.398C161.6 137.398 161.9 137.598 161.6 137.598C161.3 137.598 161.6 137.698 161.6 137.798C161.6 137.798 161.7 137.898 161.6 137.998C160.9 137.998 161.3 138.398 161.2 138.598C161.2 138.798 161 138.998 161.2 139.198C161.2 139.298 161.6 139.498 161.5 139.598C161.5 139.598 161.8 139.698 161.2 139.698C161 139.698 161.5 139.698 161.5 139.798C161.5 139.798 161.5 139.998 161.5 140.098C161.5 140.198 161.5 140.298 161.5 140.498L161.8 140.698V140.898C161.8 140.898 161.5 141.098 161.4 141.198C161.4 141.298 161.6 141.398 161.4 141.498C160.9 141.698 161.1 141.898 161.1 142.098C161.1 142.298 161.1 142.498 161.1 142.598C161.1 142.598 160.7 142.798 160.7 142.898C160.7 142.898 159.2 143.098 158.7 143.198H158.5C158 143.198 157.3 143.098 157.3 142.898C157.3 142.698 157.3 142.498 157.3 142.298L157.1 141.898Z" fill="black"/>
<path d="M171.499 152.002C172.399 153.002 173.199 154.002 173.999 154.902C174.299 155.302 174.399 155.802 175.199 155.802C175.599 155.802 175.399 156.602 175.699 156.902C176.499 157.802 177.199 158.802 177.999 159.702C178.399 160.202 178.799 160.502 179.199 161.002C179.799 161.702 180.399 162.402 181.099 163.302C182.099 164.502 182.799 165.702 183.699 167.002C183.199 167.202 182.699 167.302 182.299 167.502C181.599 167.802 180.699 168.002 179.899 168.202C178.999 168.302 178.199 168.502 177.499 168.702C177.299 168.702 177.099 168.802 176.899 168.902H176.399C176.199 169.102 175.899 169.202 175.599 169.202C175.099 169.302 174.599 169.302 174.099 169.202C173.399 169.202 172.599 169.002 171.899 169.202C171.499 169.302 171.099 169.702 170.599 169.702C170.099 169.702 169.599 169.502 169.199 170.102C169.199 170.102 168.999 170.102 168.899 170.002C168.399 169.602 167.799 169.702 167.399 170.002C166.999 170.302 166.599 170.202 166.299 170.202C165.299 170.202 164.199 170.202 163.199 170.002C162.399 169.902 161.699 169.602 160.899 169.402C160.099 169.302 159.199 169.402 158.499 169.002C157.799 168.602 157.099 168.402 156.399 168.302C155.999 168.302 155.599 167.802 155.099 168.302C155.099 168.302 154.899 168.302 154.799 168.302C153.899 167.202 152.499 167.902 151.399 167.302C150.299 166.702 148.999 166.402 147.899 165.902C147.599 165.802 147.299 165.402 146.899 165.702C146.699 165.702 146.399 165.702 146.299 165.402C145.799 164.402 144.699 164.202 143.899 163.602C142.999 162.902 141.999 162.402 141.399 161.302C141.199 160.802 140.799 160.302 139.999 160.302C139.599 160.302 139.399 159.702 139.099 159.402C138.799 159.202 138.399 159.102 138.199 158.802C137.999 158.602 137.999 158.202 137.899 157.902C137.899 157.902 137.899 157.702 137.699 157.702C136.999 157.202 136.499 156.402 136.299 155.602L135.899 154.402C135.799 154.002 135.699 153.602 135.499 153.202C134.699 151.702 134.399 149.902 134.299 148.202C134.299 147.302 134.399 146.302 135.499 145.702C135.999 145.402 136.599 145.402 136.899 145.702C137.199 146.002 137.399 146.202 137.499 146.502C137.599 147.002 137.699 147.402 137.899 147.802C138.099 148.202 138.299 148.702 138.499 149.102C138.699 149.502 138.899 149.902 138.899 150.402C138.899 150.702 139.199 150.902 138.899 151.302V151.502C139.499 151.902 139.699 152.502 139.999 153.002C140.099 153.302 140.199 153.602 140.299 153.902C140.399 154.202 140.599 154.502 140.799 154.702C141.099 155.102 141.499 155.502 141.899 155.802C142.299 156.102 142.699 156.402 142.999 156.902C143.799 156.902 144.199 157.402 144.499 157.902C145.599 159.802 147.699 160.602 149.599 161.602C151.499 162.602 153.599 163.302 155.799 163.902C156.199 163.902 156.599 163.702 156.899 164.102C157.199 164.502 157.799 164.402 158.299 164.502C158.699 164.502 159.199 164.502 159.599 164.802C161.199 165.802 163.099 165.602 164.799 165.702C166.499 165.902 168.299 165.902 170.099 165.702C171.199 165.502 172.199 165.102 173.199 165.102C173.699 165.102 174.099 164.702 174.599 165.102C174.799 165.202 175.099 164.702 175.399 164.602H175.799C175.799 164.502 175.999 164.502 175.999 164.502C176.099 164.502 176.299 164.502 176.399 164.502C176.399 164.502 176.399 164.402 176.199 164.302C176.099 164.202 175.699 164.102 175.599 164.102C175.599 164.102 175.499 164.102 175.399 163.902L175.199 163.702L174.899 163.302C174.399 162.602 174.099 161.802 173.599 161.102C173.099 160.402 172.299 159.802 171.999 159.002C171.399 157.502 170.199 156.402 169.199 155.202C168.199 154.002 167.199 152.802 166.099 151.702C165.499 151.102 165.299 150.202 164.699 149.502C164.399 149.202 165.099 147.802 165.599 147.602C165.599 147.602 165.799 147.602 165.899 147.602C166.799 147.902 167.899 148.002 168.499 148.702C169.399 149.802 170.499 150.902 171.399 152.002H171.499Z" fill="black"/>
<path d="M160 187.002L160.5 186.002C160.5 185.802 160.6 185.702 160.7 185.502C160.7 185.502 161.1 185.002 160.4 185.502C160 185.702 161 185.002 161 184.902V184.802H160.8C160.6 184.902 160.5 185.002 160.3 185.002C160.1 185.002 160 185.202 159.8 185.302H159.6C159.3 185.302 159 185.402 158.7 185.402C157.5 185.502 156.4 185.202 155.3 185.402C154.3 185.602 153.6 184.902 152.7 184.802C151.7 184.702 150.8 184.502 150 183.902C149.4 183.502 148.9 183.002 148.3 182.902C147.9 182.802 147.4 182.902 147 182.702C146.6 182.502 146.4 182.002 145.7 182.402C145.7 182.402 145.5 182.202 145.5 182.102C145.3 181.502 144.9 181.202 144.4 181.302C143.9 181.302 143.7 181.102 143.4 180.902C142.6 180.402 141.9 179.802 141.2 179.202C140.7 178.702 140.3 178.102 139.9 177.502C139.4 177.002 138.7 176.602 138.5 175.902C138.3 175.202 137.8 174.802 137.4 174.302C137.2 174.002 137.1 173.502 136.4 173.702C136.4 173.702 136.3 173.702 136.3 173.502C136.3 172.202 134.8 172.002 134.3 170.902C133.9 169.802 133.1 168.802 132.7 167.702C132.6 167.402 132.7 167.002 132.1 166.902C131.9 166.902 131.8 166.502 131.9 166.302C132.1 165.802 132 165.302 131.9 164.902C131.8 164.502 131.6 164.002 131.6 163.602C131.6 163.102 131.5 162.602 131.5 162.102C131.5 161.602 131.5 161.102 131.7 160.602C131.9 160.202 132 159.602 131.5 159.102C131.2 158.902 131.5 158.402 131.5 158.002C131.5 157.702 131.2 157.402 131.3 157.102C131.3 156.802 131.6 156.602 131.7 156.402V156.202C131.3 154.702 132.4 153.502 132.6 152.102C132.8 150.702 133.2 149.402 133.8 148.102C134.1 147.402 134.5 146.702 135.7 146.602C136.3 146.602 136.8 146.702 137 147.102C137.2 147.402 137.3 147.702 137.3 148.002C137.3 148.402 137.3 148.902 137.3 149.302C137.3 150.202 137.5 151.102 137 151.902C136.8 152.102 137 152.502 136.5 152.602C136.5 152.602 136.4 152.702 136.4 152.802C136.9 154.102 136.1 155.102 136 156.302C135.9 157.302 136.4 158.302 136 159.202C136.6 159.802 136.5 160.302 136.3 160.802C135.6 162.602 136.3 164.402 136.9 166.002C137.4 167.702 138.5 169.202 139.7 170.702C139.9 171.002 140.4 171.002 140.4 171.402C140.4 171.902 140.9 172.102 141.2 172.402C141.5 172.702 141.8 172.902 142 173.302C142.6 174.902 144 175.702 145.2 176.702C146.3 177.702 147.6 178.602 149 179.202C149.9 179.502 150.8 179.602 151.6 180.002C151.9 180.202 152.4 180.002 152.6 180.702C152.6 180.902 153.1 180.602 153.4 180.702C154 180.802 154.6 181.002 155.2 181.102C156 181.202 156.9 181.402 157.7 181.302C158.2 181.302 158.7 181.002 159.2 180.902C159.3 180.902 159.5 180.902 159.6 180.902H159.7H159.8L160.2 180.802L161.1 180.602C161.4 180.602 161.7 180.602 162 180.402C162.8 180.202 163.6 180.002 164.4 179.702C165.2 179.502 165.9 179.302 166.7 179.002C167 178.902 167.4 178.802 167.7 178.602V179.102V179.402V179.802C167.4 180.302 167.3 180.902 167 181.502C166.3 182.902 165.9 183.902 165.6 185.002C165.2 186.002 164.8 187.202 164.3 188.202C163.6 189.502 162.9 190.802 162.2 192.102C161.8 192.802 161 193.202 160.5 193.802C160.3 194.102 158.8 193.602 158.5 193.202C158.5 193.202 158.4 193.002 158.4 192.902C158.4 192.002 158.2 191.102 158.7 190.402C159.4 189.402 160 188.302 160.5 187.302L160 187.002Z" fill="black"/>
<path d="M117 162.501C116.1 162.801 115.2 162.901 114.3 163.101C114 163.101 113.6 163.001 113.3 163.501C113.1 163.801 112.8 163.201 112.5 163.201C111.7 163.301 110.8 163.201 110 163.201C109.2 163.201 108.3 163.401 107.5 163.201C107.1 163.201 106.7 163.001 106.3 162.901C105.9 162.801 105.5 162.701 105.1 162.701C104.3 162.701 103.9 162.101 103.2 162.001C102.5 161.901 101.8 161.601 101.3 161.101C100.9 160.701 100.6 160.301 100.1 160.101C99.7996 160.001 99.2996 160.101 98.9996 159.801C98.6996 159.501 98.4996 159.001 97.7996 159.101C97.7996 159.101 97.6996 158.901 97.6996 158.701C97.6996 158.001 97.3996 157.501 96.9996 157.201C96.5996 156.901 96.5996 156.501 96.4996 156.201C96.2996 155.201 96.2996 154.301 96.4996 153.501C96.5996 152.801 97.0996 152.301 97.2996 151.701C97.5996 151.101 97.6996 150.401 98.1996 150.001C98.7996 149.701 99.0996 149.301 99.3996 148.801C99.5996 148.601 99.9996 148.501 99.7996 147.901C99.7996 147.901 99.7996 147.801 99.8996 147.801C100.5 147.801 100.8 147.501 101.1 147.101C101.4 146.701 101.6 146.301 102.1 146.101C103 145.801 103.8 145.301 104.6 145.001C104.8 145.001 105.1 145.001 105.2 144.501C105.2 144.301 105.5 144.201 105.6 144.301C106.4 144.701 107 144.301 107.6 144.201C108.3 144.201 109 143.801 109.8 144.201C110.1 144.401 110.5 144.501 110.9 143.801C111 143.501 111.4 143.801 111.7 143.701C111.9 143.701 112.1 143.401 112.3 143.301C112.5 143.301 112.7 143.501 112.9 143.601C112.9 143.601 113 143.601 113.1 143.601C114.1 142.901 115.2 143.801 116.3 143.601C117.4 143.501 118.6 143.701 119.7 144.101C120.3 144.301 120.9 144.701 120.9 145.901C120.9 146.401 120.7 147.001 120.3 147.201C120.1 147.401 119.8 147.501 119.6 147.501C119.3 147.501 119 147.501 118.7 147.501C118.1 147.501 117.5 148.001 116.9 147.601C116.7 147.501 116.5 147.801 116.4 147.201C116.4 147.201 116.4 147.101 116.3 147.201C115.4 147.901 114.6 147.401 113.8 147.501C113.1 147.501 112.4 148.201 111.6 148.001C111.2 148.701 110.8 148.601 110.4 148.401C108.9 147.901 107.7 148.601 106.4 148.901C105.8 149.101 105.2 149.301 104.7 149.601C104.2 149.901 103.7 150.301 103.3 150.601C103.1 150.701 103.3 151.101 102.9 151.101C102.6 151.101 102.5 151.401 102.4 151.601C102.3 151.801 102.2 152.101 102 152.201C101.5 152.401 101.2 152.801 101.1 153.301C101 153.701 101 154.201 100.9 154.601C100.9 155.001 100.9 155.401 100.9 155.701C100.9 156.001 101.1 156.101 101.5 156.301C101.9 156.501 102.6 156.501 103.2 156.901C103.4 157.101 103.8 156.901 103.8 157.501C103.8 157.701 104.2 157.401 104.4 157.501C104.8 157.601 105.2 157.801 105.7 157.901C106.3 158.101 106.9 158.301 107.5 158.401C107.9 158.401 108.3 158.301 108.7 158.301C109.1 158.301 109.5 158.301 109.9 158.401C110.4 158.501 110.9 158.701 111.4 158.801C111.9 158.801 112.4 158.601 113 158.801C114 159.201 114.9 158.801 115.8 158.601C116.7 158.401 117.6 158.201 118.4 157.701C118.8 157.401 119.5 157.701 120 157.401C120.2 157.301 121.2 158.401 121.4 158.901C121.4 158.901 121.4 159.101 121.4 159.201C121.1 159.901 121 160.801 120.3 161.001C119.8 161.201 119.3 161.401 118.8 161.601C118.3 161.801 117.8 162.001 117.3 162.101L117 162.501Z" fill="black"/>
<path d="M118.701 141.799C118.901 141.599 119.101 141.399 119.201 141.199C119.201 141.199 119.501 141.199 119.201 140.799C119.001 140.599 119.601 140.799 119.601 140.799C119.601 140.499 119.901 140.399 119.901 140.099C119.901 139.899 119.901 139.499 119.901 139.299C119.901 139.099 120.301 138.899 120.101 138.599C119.901 138.299 120.401 138.299 120.401 138.099C120.401 137.899 120.401 137.599 120.601 137.499C120.801 137.499 121.101 137.299 121.001 137.099C121.001 136.999 120.701 136.799 120.701 136.699C120.701 136.699 121.001 136.599 120.401 136.299C120.401 136.299 120.401 136.299 120.601 136.299C121.001 136.299 121.001 136.199 120.801 135.999C120.601 135.899 120.601 135.799 120.601 135.699C120.601 135.499 120.601 135.299 120.701 134.999C120.701 134.799 121.001 134.699 121.101 134.599C121.101 134.399 120.901 134.199 121.301 134.099C121.601 133.999 121.601 133.799 121.701 133.699C121.701 133.699 122.001 133.499 121.401 133.399C122.301 133.199 121.201 132.799 121.401 132.599C121.601 132.299 121.501 131.999 121.501 131.699C121.501 131.699 121.701 131.599 121.201 131.399C121.001 131.399 121.001 131.299 121.201 131.199C121.801 131.099 121.501 130.799 121.601 130.599C121.701 130.399 121.501 130.099 122.001 129.899C122.201 129.899 122.301 129.699 121.801 129.499C121.501 129.499 121.801 129.299 121.801 129.299C121.801 129.299 121.501 129.199 121.501 129.099C121.501 129.099 121.701 129.099 121.801 128.999C121.101 128.699 122.001 128.399 121.801 128.199C121.601 127.999 121.601 127.699 121.701 127.499C121.701 127.399 121.901 127.199 122.901 126.699C123.401 126.399 123.901 126.199 124.201 126.199C124.401 126.199 124.701 126.199 124.801 126.199C124.901 126.299 125.101 126.399 125.301 126.499C125.601 126.699 126.201 126.899 125.901 127.299C125.901 127.399 126.101 127.499 125.601 127.599C126.401 127.899 125.901 128.399 126.001 128.799C126.001 129.099 126.701 129.499 126.401 129.799C127.001 129.999 126.901 130.199 126.701 130.399C126.001 130.999 126.401 131.599 126.201 132.099C126.001 132.699 126.101 133.299 125.901 133.899C125.901 133.999 126.201 134.099 125.901 134.199C125.601 134.199 125.901 134.499 125.801 134.599C125.801 134.699 125.801 134.899 125.801 134.999C125.101 135.399 125.401 135.899 125.201 136.399C125.001 136.899 124.901 137.299 124.901 137.799C124.901 138.099 125.201 138.499 124.901 138.799C124.901 138.899 125.101 139.099 124.501 139.099C124.301 139.099 124.701 139.299 124.701 139.399C124.701 139.599 124.601 139.799 124.501 139.999C124.401 140.299 124.201 140.499 124.201 140.799C124.201 140.999 124.301 141.299 124.201 141.399C124.201 141.599 124.101 141.799 123.901 141.899C123.701 142.099 123.401 142.199 123.201 142.399C123.001 142.599 123.201 142.999 122.701 142.999C122.001 143.099 122.001 143.599 121.601 143.899C121.301 144.199 120.901 144.499 120.701 144.999C120.601 145.199 120.001 144.999 119.901 145.199C119.901 145.199 118.701 144.299 118.401 143.899L118.301 143.699C118.101 143.199 117.801 142.599 117.901 142.499C118.201 142.299 118.301 142.099 118.501 141.899L118.701 141.799Z" fill="black"/>
<path d="M107.499 143.798C107.399 143.498 107.299 143.198 107.199 142.898C107.199 142.798 107.299 142.598 106.799 142.698C106.499 142.698 107.099 142.398 106.999 142.298C106.799 142.098 106.799 141.698 106.699 141.498C106.499 141.298 106.199 141.098 106.099 140.798C105.899 140.598 106.099 140.198 105.699 139.998C105.399 139.898 105.699 139.498 105.599 139.298C105.399 139.098 105.199 138.898 105.399 138.598C105.499 138.398 105.699 138.198 105.399 137.998C105.399 137.998 104.999 137.998 104.999 137.798C104.999 137.698 105.199 137.498 104.599 137.598C104.599 137.598 104.599 137.598 104.699 137.498C104.999 137.298 104.999 137.098 104.699 137.098C104.399 137.098 104.399 137.098 104.399 136.898C104.299 136.698 104.199 136.498 104.199 136.198C104.199 135.998 104.299 135.798 104.299 135.598C104.299 135.398 103.999 135.298 104.199 135.098C104.399 134.798 104.399 134.698 104.299 134.498C104.299 134.498 104.499 134.198 103.899 134.298C104.599 133.798 103.499 133.898 103.599 133.598C103.699 133.298 103.499 132.998 103.299 132.798C103.299 132.798 103.399 132.598 102.999 132.698C102.799 132.698 102.799 132.698 102.899 132.598C103.399 132.198 102.899 132.098 102.999 131.898C102.999 131.598 102.699 131.498 102.999 131.098C103.199 130.898 103.199 130.798 102.599 130.798C102.299 130.798 102.599 130.598 102.499 130.598H102.099C102.099 130.598 102.299 130.398 102.399 130.298C101.599 130.198 102.399 129.498 102.099 129.298C101.799 128.998 101.699 128.598 101.699 128.298C101.699 128.098 101.699 127.798 102.799 127.298C103.299 127.098 103.799 126.898 104.099 126.898C104.299 126.898 104.599 126.898 104.699 126.898C104.799 126.898 104.999 126.998 105.099 127.098C105.399 127.298 105.899 127.298 105.799 127.598C105.799 127.698 106.099 127.598 105.599 127.898C106.499 127.898 106.099 128.398 106.199 128.698C106.299 128.898 106.999 128.998 106.899 129.398C107.499 129.398 107.499 129.498 107.399 129.798C106.999 130.598 107.599 130.898 107.699 131.498C107.799 132.098 108.099 132.598 108.199 133.098C108.199 133.098 108.599 133.098 108.399 133.298C108.199 133.498 108.399 133.498 108.399 133.698C108.399 133.798 108.599 133.898 108.399 133.998C107.899 134.598 108.399 134.898 108.499 135.398C108.499 135.798 108.699 136.298 108.999 136.598C109.199 136.798 109.599 136.998 109.599 137.298C109.599 137.398 109.899 137.398 109.399 137.698C109.299 137.698 109.699 137.698 109.799 137.698C109.899 137.898 109.899 137.998 109.999 138.198C109.999 138.398 110.099 138.698 110.299 138.898C110.299 138.998 110.699 139.098 110.799 139.198C110.899 139.298 110.999 139.498 110.999 139.698C110.999 139.898 110.899 140.198 110.899 140.398C110.899 140.598 111.199 140.698 111.099 140.998C110.699 141.498 111.099 141.798 111.099 142.198C111.099 142.598 111.199 142.898 111.399 142.898C111.399 142.898 111.099 143.298 111.199 143.298C111.199 143.298 110.999 143.598 110.699 143.898C110.399 144.198 110.199 144.698 109.999 144.798C109.999 144.798 109.899 144.898 109.799 144.898C109.299 145.098 108.499 145.298 108.299 144.898C107.999 144.398 107.799 143.898 107.699 143.598L107.499 143.798Z" fill="black"/>
<path d="M135.399 92C133.999 91.5 132.499 91.3 130.999 91.4C130.499 91.4 129.799 91.3 129.399 91.9C129.199 92.2 128.499 91.7 127.999 91.9C126.699 92.4 125.299 92.9 124.199 93.7C123.099 94.5 122.099 95.5 121.499 96.5C121.299 96.9 120.999 97.2 120.799 97.5C120.799 97.7 120.599 97.8 120.599 98.1C120.599 98.3 120.599 98.6 120.499 98.9C120.499 99 120.499 99.2 120.499 99.4C120.499 99.6 120.499 99.7 120.599 99.9C120.099 100.4 119.799 100.8 119.599 101.2C119.299 101.6 119.199 101.8 119.099 101.9C118.999 101.9 119.099 102 118.899 102.1C118.699 102.1 118.499 102.2 118.299 102.4C117.999 102.6 117.699 102.8 117.199 103.3C116.499 102.8 115.699 102.2 114.999 101.8C114.699 101.6 114.199 101.3 113.999 101.2L113.599 100.9C112.999 100.5 112.299 100.1 111.499 100.1C110.999 100.1 110.499 100.4 109.899 100.3C109.399 100.3 108.799 100 108.299 100.6C108.299 100.6 107.999 100.6 107.899 100.5C107.299 100.1 106.599 100.2 106.099 100.5C105.699 100.8 105.299 100.8 104.799 100.9C103.699 101.1 102.599 101.4 101.599 101.8C100.899 102.1 100.099 102.2 99.4993 102.6C98.7993 103.1 98.4993 103.8 97.8993 104.3C97.2993 104.7 96.9993 105.4 96.7993 106.1C96.7993 106.5 96.3993 106.9 96.9993 107.2C96.9993 107.2 96.9993 107.3 96.9993 107.4C96.5993 107.9 96.7993 108.4 97.1993 108.7C97.5992 109.1 97.9993 109.3 98.2993 109.6C98.5993 110 98.9993 110.2 99.3993 110.3C99.7993 110.3 100.199 110.3 100.499 110.3L101.299 114.7H101.199C100.799 114.7 100.399 114.6 100.099 115.1C100.099 115.3 99.5993 115.3 99.3993 115.3C98.2993 114.9 97.2993 115.5 96.2993 115.8C95.0993 116.1 94.1993 117 92.9993 117.2C92.7993 117.2 92.4993 117.4 92.2993 117.5C92.0993 117.7 92.0993 118 92.2993 118.1C92.3993 118.2 92.2993 118.2 92.2993 118.3C92.2993 118.3 92.5993 118.4 92.6993 118.6C92.6993 118.8 92.6993 119.1 92.6993 119.5C92.6993 119.5 92.6993 119.7 92.7993 119.8C93.4993 120.4 93.9993 121.1 94.3993 121.9C94.7993 122.6 95.2993 123.4 95.9993 123.8C96.6993 124.2 97.3993 124.6 98.0993 124.9C98.7993 125.2 99.5993 125.4 100.299 125.5C101.199 125.5 101.899 125.6 102.899 126.4C103.399 126.8 103.699 127.3 103.299 127.8C102.999 128.2 102.599 128.5 102.199 128.7C101.499 128.9 100.799 129.1 99.9993 129.2C98.4993 129.3 96.7993 129.4 95.3993 128.4C94.9993 128.1 94.2993 128.1 94.2993 127.4C94.2993 127.4 94.1993 127.2 94.0993 127.1C92.9993 126.8 92.1993 126.1 91.4993 125.4C90.7993 124.6 90.2993 123.7 89.6993 122.9C89.2993 122.2 88.7993 121.7 88.2993 121C88.0993 120.6 87.7993 120.2 87.6993 119.7C87.4993 119.2 87.3993 118.4 87.5993 117.8C87.5993 117.5 87.6993 117.2 87.7993 117C87.7993 116.6 87.7993 116.1 87.9993 115.7C88.1993 115.3 88.3993 115 88.5993 114.7C89.0993 114.1 89.6993 113.8 90.1993 113.5C91.8993 112.8 93.3993 112.1 95.0993 111.5C96.6993 110.9 98.3993 110.5 100.199 110.4H100.799L101.599 114.7C100.499 115 99.2993 115 98.2993 114.7C97.1993 114.4 96.2993 114 95.4993 113.4C93.8993 112.2 92.6993 110.4 92.3993 108.3C92.3993 107.6 91.8993 106.9 92.3993 106.1C92.6993 105.4 92.7993 104.4 93.1993 103.5C93.4993 102.8 93.7993 102 94.3993 101.5C96.6993 99.5 99.0993 97.7 101.799 97.1C103.099 96.8 104.499 96.6 105.799 96.5C107.099 96.4 108.399 96.3 109.699 96.3C111.299 96.3 113.099 96.1 114.799 96.9C115.199 97.1 115.599 97.1 115.899 97.3C115.899 97.3 115.899 97.3 115.999 97.8C115.999 98 116.199 97.8 116.199 97.6C116.199 97.6 116.299 97.6 116.399 97.7C116.399 97.7 116.599 97.9 116.499 97.7C116.499 97.5 116.499 97.4 116.499 97.2C116.499 97.1 116.499 97 116.499 97V96.8C116.599 96.6 116.699 96.5 116.699 96.3C117.099 95.2 117.499 94.2 118.199 93.3C118.899 92.4 119.699 91.7 120.599 91.1C121.699 90.4 122.999 89.9 124.199 89.4C125.399 88.9 126.699 88.2 128.099 88.2C130.499 88.2 132.899 87.9 135.299 88.5C137.599 89.1 139.799 90.2 141.699 91.6C142.799 92.4 143.299 93.7 143.999 94.8C144.399 95.3 143.499 96.7 142.899 96.8C142.799 96.8 142.699 96.8 142.599 96.8C141.599 96.1 140.499 95.9 139.799 95.1C138.599 93.9 137.099 93.1 135.499 92.6L135.399 92Z" fill="black"/>
<path d="M138.001 123.4C138.301 123.2 138.501 123 138.701 122.8C138.701 122.7 138.901 122.5 138.901 122.4V122.2L139.101 121.6C139.801 120.6 140.201 119.8 140.201 119.4C140.201 119.2 140.201 119.1 140.101 119H140.301C140.401 118.9 140.501 118.9 140.601 118.8C141.001 118.5 141.301 118.5 141.801 117.9C142.601 118.3 143.301 118.6 144.201 118.7C144.401 118.7 144.701 118.8 145.001 119C145.201 119 145.301 119.2 145.501 119.3C145.801 119.5 146.201 119.8 146.601 119.9C148.801 120.5 151.101 120.9 153.401 121C155.601 121 158.001 120.8 159.901 120.2C160.901 119.9 161.801 119.7 162.501 119.2C163.201 118.8 163.801 118.2 164.001 117.4C164.001 117.2 164.101 117 164.201 116.7C164.201 116.6 164.201 116.5 164.201 116.4C164.201 116.2 164.201 116.2 164.201 116.1V115.9L164.001 114.8L163.501 113.4L162.201 110.2L162.901 110.4C163.101 110.4 163.201 110.4 163.301 110.4C163.301 110.4 163.401 110.4 163.501 110.4H163.801C163.801 110.5 164.501 110.7 164.501 110.7C165.401 110.9 166.301 111.2 167.201 111.5L168.601 111.9L169.901 112.2C170.401 112.3 170.901 112.4 171.401 112.5C171.901 112.5 172.301 112.7 172.701 112.8C174.001 113.1 175.301 113.3 176.601 113.2C177.401 113.1 178.201 112.7 179.001 112.6C179.801 112.6 180.801 112.6 181.301 111.8C181.301 111.8 181.701 111.8 181.901 111.8C182.801 112 183.901 111.6 184.301 111C184.801 110.5 185.301 110.2 185.801 109.9C186.401 109.4 187.001 108.9 187.401 108.4C187.901 107.8 188.201 107.2 188.501 106.6C188.901 105.7 189.201 104.7 189.001 103.8C188.901 103.3 188.601 103.1 188.401 102.9C188.101 102.7 187.801 102.5 187.401 102.3C187.001 102 186.401 101.9 185.801 101.9C185.501 101.9 185.201 101.9 184.901 101.9C184.301 101.9 183.701 102 183.101 102.2C182.301 102.4 181.601 102.5 180.601 103C180.401 102.8 180.201 102.8 180.001 102.7C179.801 102.7 179.601 102.7 179.401 102.7C179.401 102.7 179.201 102.5 179.101 102.5C179.101 102.2 178.901 102.1 178.701 102H178.501C178.501 102 178.301 102 178.401 102C178.501 101.9 178.501 101.7 178.401 101.4C178.301 101.1 178.001 100.7 177.601 99.8005V99.6005C179.001 98.2005 179.501 97.3005 179.801 96.2005V96.0005V95.7005C179.801 95.6005 179.801 95.5005 179.801 95.4005C179.801 95.2005 179.801 94.9005 179.901 94.7005C180.001 93.8005 179.901 92.9005 179.601 92.4005C179.501 92.2005 179.401 91.8005 179.001 92.1005C178.901 92.2005 178.701 92.1005 178.501 92.0005C178.101 91.6005 177.201 91.4005 176.401 91.4005C175.601 91.4005 174.801 91.6005 174.001 91.6005C172.201 91.8005 170.601 92.8005 168.801 93.4005C168.801 93.4005 168.601 93.4005 168.501 93.5005C168.501 93.5005 168.501 93.5005 168.301 93.5005L168.001 93.7005C167.601 94.0005 167.301 94.2005 166.901 94.6005C166.501 95.0005 166.201 95.5005 165.801 96.0005C165.401 96.5005 165.001 97.2005 164.601 98.0005C164.201 98.7005 163.701 99.4005 163.101 100.1C162.501 100.9 162.001 101.4 161.501 102.1C161.501 102.1 161.501 101.9 161.501 101.8C161.501 100.7 161.101 99.9005 161.101 98.4005C161.101 97.1005 161.301 95.4005 161.301 94.2005C161.301 93.8005 161.301 93.4005 161.301 93.1005C161.301 92.7005 161.101 92.4005 161.001 92.0005V91.5005C160.901 91.5005 160.801 91.4005 160.801 91.4005V91.3005L160.401 90.5005C160.201 90.1005 159.901 89.8005 159.701 89.4005C159.201 88.8005 158.001 88.2005 156.801 88.3005C154.401 88.3005 151.901 89.4005 150.101 91.2005C149.101 92.2005 148.301 93.3005 146.901 93.9005C146.301 94.2005 145.701 94.1005 145.601 93.3005C145.601 93.0005 145.601 92.7005 145.601 92.3005C145.601 92.0005 145.701 91.6005 145.901 91.3005C146.301 90.3005 146.901 89.3005 147.601 88.5005C148.301 87.6005 149.101 86.8005 150.001 86.1005C150.901 85.4005 152.001 84.8005 153.201 84.7005C153.901 84.6005 154.801 84.1005 155.501 84.7005C155.501 84.7005 155.901 84.7005 156.001 84.7005C157.601 84.3005 159.301 84.4005 161.001 85.3005C161.801 85.7005 162.601 86.4005 163.201 87.1005C163.801 87.8005 164.201 88.7005 164.601 89.5005C164.601 89.6005 164.701 89.8005 164.801 89.9005V90.1005C164.801 90.1005 164.801 90.3005 164.901 90.3005C164.901 90.4005 165.001 90.5005 165.101 90.5005C165.201 90.5005 165.301 90.6005 165.301 90.6005C165.301 90.6005 165.301 90.6005 165.401 90.6005C165.601 90.0005 165.601 89.8005 165.601 89.8005C165.601 89.8005 165.801 89.8005 165.801 89.7005C166.001 89.7005 166.201 89.5005 166.301 89.4005C168.801 88.2005 171.301 87.3005 174.001 87.0005C175.301 86.8005 176.701 86.8005 178.101 87.0005C178.801 87.0005 179.601 87.2005 180.501 87.6005C181.301 88.0005 182.201 88.6005 182.801 89.4005C183.401 90.3005 183.701 91.2005 183.901 92.1005C184.101 93.0005 184.101 93.8005 184.001 94.7005C184.001 95.5005 183.801 96.3005 183.601 97.0005C183.601 97.2005 183.601 97.3005 183.501 97.4005C183.401 97.6005 183.201 97.8005 183.001 98.0005L183.201 97.9005C183.301 97.9005 183.701 97.5005 183.701 97.6005C183.801 97.9005 183.701 97.6005 185.301 97.6005C186.401 97.6005 187.801 97.6005 188.901 98.2005C190.101 98.8005 191.301 99.8005 191.901 101.1C192.501 102.3 192.801 103.5 192.801 104.7C192.801 107.1 192.001 109.4 190.501 111.1C189.001 112.9 187.101 114 185.201 114.8C183.301 115.6 181.301 116.1 179.401 116.5C177.001 117 174.601 117.4 172.101 117.1C171.101 117 169.901 117.1 169.001 116.4C168.801 116.3 168.701 116.4 168.501 116.4C168.301 116.4 168.301 116.6 168.201 116.6C168.201 116.6 168.001 116.6 167.901 116.6C167.901 116.6 167.901 116.6 167.901 116.7C167.901 116.7 167.901 116.9 167.901 117V117.3C167.801 117.7 167.701 118 167.501 118.4C167.201 119.1 166.901 119.7 166.501 120.3C165.701 121.5 164.501 122.5 163.401 123.2C162.001 124.1 160.501 124.7 159.001 125.1C157.401 125.4 155.901 125.5 154.401 125.5C152.501 125.5 150.601 125.1 148.801 124.7C146.901 124.3 144.801 124.1 143.101 123.2C142.601 122.9 142.701 122.9 142.601 122.8C142.601 122.8 142.401 122.6 142.301 122.6C142.101 122.5 141.901 122.4 141.701 122.2C141.401 122 141.701 122.2 141.701 122.5C141.701 122.7 141.701 123 141.701 123.2C141.701 123.4 141.701 123.4 141.701 123.5V123.7C141.501 124 141.401 124.2 141.201 124.5C140.601 125.5 139.601 126.3 138.701 126.8C137.801 127.3 136.801 127.6 135.801 127.7C133.901 128 132.201 127.9 130.501 127.8C128.501 127.7 126.801 126.8 125.101 126.2C125.101 126.2 124.901 126.1 124.901 125.9C124.901 125.8 124.901 125.6 124.701 125.3C124.701 125.3 124.701 125.3 124.601 125.3C124.501 125.3 124.401 125.3 124.301 125.3C124.101 125.3 123.901 125.3 123.801 125.2C123.801 125.1 123.801 124.7 124.101 124.4C124.501 124.1 124.901 124 125.201 124C125.501 124 125.801 124 126.101 124C126.601 124 126.901 124 127.401 124C128.201 124 129.101 124 130.001 124.2C132.701 124.6 135.801 124.7 137.401 123.6L138.001 123.4Z" fill="black"/>
</svg>
