<svg width="300" height="300" viewBox="0 0 300 300" fill="none" xmlns="http://www.w3.org/2000/svg">
<path d="M184.1 141C183.7 140.6 183.4 140.2 183 139.8C182.8 139.7 183 139.3 182.4 139.6C182.1 139.7 182.4 139.1 182.4 139C182 138.7 181.7 138.3 181.3 137.9C180.9 137.6 180.4 137.4 180.1 137.1C179.7 136.8 179.6 136.2 179.1 136.1C178.6 136 178.7 135.4 178.4 135.2C178 135 177.7 134.7 177.6 134.3C177.6 134 177.5 133.6 177.2 133.5C177 133.5 176.7 133.5 176.6 133.4C176.5 133.3 176.6 132.9 176 133.2C176 133.2 176 133.1 176 133C176.2 132.6 176 132.4 175.7 132.5C175.4 132.5 175.3 132.5 175.2 132.3C174.9 132 174.6 131.7 174.4 131.4C174.2 131.1 174.2 130.8 174 130.5C173.8 130.2 173.4 130.2 173.4 129.7C173.4 129.3 173.2 129.1 173 128.9C172.9 128.8 173 128.4 172.4 128.8C172.7 127.9 171.6 128.3 171.4 127.8C171.2 127.3 170.8 127 170.4 126.7C170.4 126.7 170.4 126.4 169.9 126.7C169.8 126.7 169.6 126.7 169.7 126.6C169.9 125.9 169.4 125.9 169.2 125.5C169 125.1 168.5 125 168.5 124.3C168.5 124 168.5 123.8 167.9 124C167.6 124.1 167.7 123.8 167.5 123.7C167.4 123.7 167.1 123.7 167 123.7C167 123.7 167 123.4 167 123.2C166.1 123.2 166.3 122.1 165.7 121.8C165.1 121.5 164.7 120.9 164.4 120.4C164.2 120.1 164.1 119.7 164.8 118.8C165.1 118.4 165.5 118 165.8 117.9C166.1 117.9 166.3 117.8 166.4 117.9C166.6 117.9 166.8 118 167 118.1C167.4 118.3 168.1 118.1 168.2 118.7C168.2 118.9 168.6 118.7 168.2 119.2V119.3C169.2 119.2 169.2 120 169.6 120.3C170 120.6 170.8 120.5 170.9 121.1C171.5 120.9 171.7 121.1 171.7 121.5C171.9 122.7 172.9 123.1 173.5 123.8C174.1 124.6 174.8 125.2 175.5 126C175.6 126.1 176 126 175.9 126.3C175.9 126.6 176.1 126.6 176.3 126.8C176.4 126.9 176.7 127 176.7 127.2C176.7 128.2 177.6 128.5 178 129.1C178.5 129.7 179 130.3 179.6 130.8C180 131.1 180.6 131.2 180.8 131.6C180.8 131.8 181.3 131.7 181 132.3C181 132.5 181.4 132.3 181.5 132.3C181.8 132.5 182 132.8 182.2 133C182.5 133.3 182.8 133.7 183.1 134C183.3 134.2 183.7 134.2 183.9 134.4C184.1 134.6 184.3 134.8 184.5 135C184.7 135.3 184.8 135.7 185 136C185.2 136.3 185.7 136.4 185.7 136.9C185.7 137.7 186.4 138 186.8 138.6C187.2 139.1 187.6 139.6 188.2 140C188.5 140.2 188.4 140.8 188.6 141.1C188.7 141.2 187.8 142.4 187.4 142.7L187.2 142.8C186.6 142.8 185.9 143.1 185.6 142.8C185.2 142.3 184.8 141.9 184.4 141.5L184.1 141Z" fill="black"/>
<path d="M116.6 163.2C116.6 163.6 116.6 164.1 116.8 164.5C116.8 164.7 116.6 164.9 117.2 165C117.5 165 116.9 165.3 116.9 165.4C117 165.8 117 166.2 117.1 166.6C117.2 167 117.5 167.3 117.6 167.7C117.7 168.1 117.5 168.5 117.9 168.9C118.2 169.2 117.8 169.6 117.9 169.8C118.1 170.1 118.2 170.4 118 170.8C117.9 171.1 117.7 171.3 117.8 171.6C117.8 171.7 118.2 171.8 118.2 172C118.2 172.2 118 172.4 118.6 172.4C118.6 172.4 118.6 172.4 118.5 172.5C118.1 172.7 118.2 172.9 118.5 173C118.8 173 118.8 173.2 118.8 173.3C118.8 173.6 119 174 119 174.3C119 174.6 118.8 174.8 118.8 175.1C118.8 175.4 119.1 175.6 118.8 175.9C118.5 176.2 118.6 176.4 118.6 176.7C118.6 176.8 118.4 177 119 177C118.3 177.5 119.4 177.7 119.3 178.1C119.2 178.5 119.3 178.9 119.5 179.3C119.5 179.4 119.4 179.6 119.8 179.6C120 179.6 120 179.7 119.9 179.8C119.3 180.2 119.8 180.5 119.7 180.8C119.7 181.2 120 181.5 119.6 181.9C119.4 182.1 119.4 182.3 120 182.4C120.3 182.4 120 182.7 120.1 182.8C120.1 182.8 120.5 182.9 120.5 183.1C120.5 183.1 120.3 183.3 120.2 183.4C121 183.8 120.2 184.5 120.4 184.9C120.7 185.4 120.7 185.9 120.7 186.5C120.7 186.8 120.6 187.1 119.5 187.5C119 187.7 118.5 187.8 118.1 187.7C117.8 187.7 117.6 187.6 117.5 187.5C117.4 187.4 117.2 187.2 117.1 187.1C116.8 186.8 116.3 186.6 116.5 186.2C116.5 186.1 116.2 186 116.7 185.8C115.8 185.5 116.3 184.9 116.1 184.5C116 184.1 115.3 183.8 115.5 183.4C114.8 183.3 114.9 183 115 182.8C115.5 181.9 115 181.2 114.9 180.4C114.9 179.6 114.6 178.8 114.5 178C114.5 177.9 114.1 177.8 114.4 177.6C114.6 177.4 114.4 177.2 114.4 177.1C114.4 176.9 114.2 176.8 114.4 176.6C114.9 175.9 114.4 175.3 114.4 174.7C114.4 174.1 114.4 173.4 114 172.8C113.8 172.4 113.4 172.1 113.5 171.7C113.5 171.5 113.2 171.4 113.7 171.1C113.9 171.1 113.4 170.9 113.3 170.8C113.3 170.5 113.2 170.3 113.2 170C113.2 169.6 113.2 169.3 113 168.9C113 168.7 112.6 168.5 112.6 168.3C112.5 168.1 112.5 167.8 112.5 167.6C112.5 167.3 112.7 167 112.7 166.7C112.7 166.4 112.4 166.1 112.7 165.8C113.1 165.2 112.7 164.7 112.7 164.1C112.7 163.5 112.7 163 112.4 162.5C112.3 162.2 112.7 161.8 112.7 161.5C112.7 161.4 114.1 161 114.6 161H114.8C115.3 161.2 116.1 161.4 116.1 161.7C116.1 162.2 116.2 162.7 116.3 163.2H116.6Z" fill="black"/>
<path d="M166.1 147.298C166.5 147.098 166.8 146.998 167.2 146.698C167.3 146.698 167.6 146.698 167.5 146.198C167.5 145.898 167.9 146.398 168 146.398C168.3 146.198 168.7 146.098 169 145.898C169.3 145.698 169.5 145.298 169.8 145.098C170.1 144.898 170.6 145.098 170.8 144.598C171 144.198 171.4 144.598 171.6 144.298C171.8 144.098 172.1 143.898 172.5 143.998C172.8 143.998 173.1 144.198 173.2 143.998C173.2 143.898 173.2 143.498 173.4 143.498C173.5 143.498 173.8 143.698 173.7 142.998C173.7 142.998 173.7 142.998 173.9 142.998C174.2 143.298 174.4 143.198 174.4 142.998C174.4 142.698 174.5 142.698 174.6 142.598C174.9 142.498 175.2 142.298 175.5 142.298C175.7 142.298 176 142.298 176.3 142.298C176.5 142.298 176.7 141.898 177 142.098C177.3 142.298 177.5 142.198 177.7 142.098C177.8 142.098 178.1 142.298 177.9 141.598C178.5 142.298 178.5 141.098 178.9 141.198C179.3 141.198 179.6 140.998 180 140.898C180 140.898 180.3 140.998 180.2 140.498C180.2 140.298 180.2 140.298 180.4 140.398C180.9 140.898 181 140.398 181.3 140.398C181.6 140.398 181.9 139.998 182.3 140.398C182.5 140.598 182.7 140.598 182.7 139.998C182.7 139.698 182.9 139.998 183 139.798C183 139.798 183 139.398 183.2 139.398C183.2 139.398 183.4 139.598 183.5 139.698C183.8 138.898 184.5 139.698 184.9 139.298C185.3 138.998 185.8 138.898 186.3 138.898C186.6 138.898 186.9 138.898 187.4 139.998C187.6 140.498 187.8 140.998 187.7 141.398C187.7 141.698 187.7 141.898 187.6 141.998C187.5 142.098 187.4 142.298 187.3 142.398C187.1 142.698 186.9 143.298 186.6 143.098C186.5 143.098 186.5 143.398 186.2 142.898C186 143.798 185.5 143.398 185.1 143.598C184.8 143.798 184.6 144.498 184.2 144.298C184.2 144.998 184 144.898 183.7 144.798C182.8 144.398 182.3 144.998 181.6 145.198C180.9 145.298 180.3 145.698 179.6 145.898C179.5 145.898 179.6 146.298 179.3 146.098C179.1 145.898 179 146.098 178.8 146.198C178.7 146.198 178.6 146.398 178.4 146.298C177.6 145.898 177.3 146.498 176.7 146.598C176.2 146.698 175.6 146.898 175.2 147.298C174.9 147.498 174.8 147.998 174.4 147.998C174.2 147.998 174.2 148.398 173.9 147.898C173.8 147.798 173.9 148.198 173.8 148.298C173.6 148.398 173.4 148.498 173.2 148.598C172.9 148.698 172.6 148.798 172.3 148.998C172.1 149.098 172.1 149.398 171.9 149.598C171.7 149.698 171.6 149.798 171.3 149.898C171 149.898 170.7 149.898 170.4 149.898C170.1 149.898 170 150.298 169.6 150.198C168.9 149.998 168.6 150.398 168.2 150.598C167.7 150.798 167.3 150.898 166.9 151.298C166.7 151.498 166.2 151.198 166 151.298C165.9 151.298 165.1 150.098 164.9 149.698V149.498C164.9 148.998 164.8 148.198 165.1 148.098C165.5 147.998 165.9 147.698 166.3 147.498L166.1 147.298Z" fill="black"/>
<path d="M146.7 141.101C146.7 140.901 146.7 140.701 146.7 140.601C146.7 140.601 146.9 140.501 146.4 140.401C146.1 140.401 146.8 140.301 146.7 140.201C146.7 140.001 146.7 139.901 146.7 139.701C146.7 139.501 146.4 139.401 146.4 139.201C146.4 139.001 146.7 138.901 146.4 138.701C146.1 138.501 146.6 138.501 146.5 138.301C146.4 138.201 146.3 138.001 146.5 137.901C146.7 137.901 146.9 137.701 146.8 137.601C146.8 137.601 146.4 137.401 146.5 137.401C146.5 137.401 146.8 137.401 146.2 137.201C146.2 137.201 146.2 137.201 146.4 137.201C146.8 137.201 146.8 137.201 146.5 137.001C146.2 137.001 146.3 136.901 146.3 136.801C146.3 136.701 146.3 136.501 146.3 136.401C146.3 136.401 146.6 136.201 146.7 136.201C146.7 136.201 146.5 135.901 146.8 135.901C147.1 135.901 147.1 135.801 147.1 135.701C147.1 135.701 147.4 135.701 146.8 135.501C147.6 135.501 146.6 135.101 146.8 135.001C147 134.901 146.9 134.701 147 134.501C147 134.501 147.2 134.501 146.8 134.301C146.6 134.201 146.6 134.301 146.8 134.301C147.4 134.301 147.1 134.101 147.2 134.001C147.4 133.901 147.2 133.701 147.6 133.701C147.8 133.701 147.9 133.701 147.4 133.401C147.2 133.301 147.4 133.401 147.4 133.201L147.1 133.001C147.1 133.001 147.3 133.001 147.5 133.001C146.9 132.601 147.9 132.701 147.8 132.401C147.8 132.101 147.8 132.001 148 131.801C148 131.801 148.3 131.701 149.4 132.001C149.9 132.201 150.4 132.401 150.7 132.601C150.9 132.701 151.1 132.801 151.1 132.901C151.1 132.901 151.3 133.101 151.3 133.201C151.4 133.401 151.9 133.701 151.6 133.701C151.6 133.701 151.8 133.901 151.3 133.701C152 134.101 151.4 134.101 151.4 134.301C151.4 134.401 152 134.801 151.7 134.801C152.3 135.101 152.1 135.101 151.9 135.101C151.2 135.101 151.5 135.501 151.4 135.801C151.2 136.001 151.3 136.301 151.2 136.601C151.2 136.601 151.5 136.801 151.2 136.801C150.9 136.801 151.2 136.901 151.2 137.001C151.2 137.001 151.3 137.101 151.2 137.201C150.5 137.201 150.9 137.601 150.8 137.801C150.8 138.001 150.6 138.201 150.8 138.401C150.8 138.501 151.2 138.701 151.1 138.801C151.1 138.801 151.4 138.901 150.8 138.901C150.6 138.901 151.1 138.901 151.1 139.001C151.1 139.001 151.1 139.201 151.1 139.301C151.1 139.401 151.1 139.501 151.1 139.701L151.4 139.901V140.101C151.4 140.101 151.1 140.301 151 140.401C151 140.501 151.2 140.601 151 140.701C150.5 140.901 150.7 141.101 150.7 141.301C150.7 141.501 150.7 141.701 150.7 141.801C150.7 141.801 150.3 142.001 150.3 142.101C150.3 142.101 148.8 142.301 148.3 142.401H148.1C147.6 142.401 146.9 142.301 146.9 142.101C146.9 141.901 146.9 141.701 146.9 141.501L146.7 141.101Z" fill="black"/>
<path d="M157.1 141.898C157.1 141.698 157.1 141.498 157.1 141.398C157.1 141.398 157.3 141.298 156.8 141.198C156.5 141.198 157.2 141.098 157.1 140.998C157.1 140.798 157.1 140.698 157.1 140.498C157.1 140.298 156.8 140.198 156.8 139.998C156.8 139.798 157.1 139.698 156.8 139.498C156.5 139.298 157 139.298 156.9 139.098C156.8 138.998 156.7 138.798 156.9 138.698C157.1 138.698 157.3 138.498 157.2 138.398C157.2 138.398 156.8 138.198 156.9 138.198C156.9 138.198 157.2 138.198 156.6 137.998C156.6 137.998 156.6 137.998 156.8 137.998C157.2 137.998 157.2 137.998 156.9 137.798C156.6 137.798 156.7 137.698 156.7 137.598C156.7 137.498 156.7 137.298 156.7 137.198C156.7 137.198 157 136.998 157.1 136.998C157.1 136.998 156.9 136.698 157.2 136.698C157.5 136.698 157.5 136.598 157.5 136.498C157.5 136.498 157.8 136.498 157.2 136.298C158 136.298 157 135.898 157.2 135.798C157.4 135.698 157.3 135.498 157.4 135.298C157.4 135.298 157.6 135.298 157.2 135.098C157 134.998 157 135.098 157.2 135.098C157.8 135.098 157.5 134.898 157.6 134.798C157.8 134.698 157.6 134.498 158 134.498C158.2 134.498 158.3 134.498 157.8 134.198C157.6 134.098 157.8 134.198 157.8 133.998L157.5 133.798C157.5 133.798 157.7 133.798 157.9 133.798C157.3 133.398 158.3 133.498 158.2 133.198C158.2 132.898 158.2 132.798 158.4 132.598C158.4 132.598 158.7 132.498 159.8 132.798C160.3 132.998 160.8 133.198 161.1 133.398C161.3 133.498 161.5 133.598 161.5 133.698C161.5 133.698 161.7 133.898 161.7 133.998C161.8 134.198 162.3 134.498 162 134.498C162 134.498 162.2 134.698 161.7 134.498C162.4 134.898 161.8 134.898 161.8 135.098C161.8 135.198 162.4 135.598 162.1 135.598C162.7 135.898 162.5 135.898 162.3 135.898C161.6 135.898 161.9 136.298 161.8 136.598C161.6 136.798 161.7 137.098 161.6 137.398C161.6 137.398 161.9 137.598 161.6 137.598C161.3 137.598 161.6 137.698 161.6 137.798C161.6 137.798 161.7 137.898 161.6 137.998C160.9 137.998 161.3 138.398 161.2 138.598C161.2 138.798 161 138.998 161.2 139.198C161.2 139.298 161.6 139.498 161.5 139.598C161.5 139.598 161.8 139.698 161.2 139.698C161 139.698 161.5 139.698 161.5 139.798C161.5 139.798 161.5 139.998 161.5 140.098C161.5 140.198 161.5 140.298 161.5 140.498L161.8 140.698V140.898C161.8 140.898 161.5 141.098 161.4 141.198C161.4 141.298 161.6 141.398 161.4 141.498C160.9 141.698 161.1 141.898 161.1 142.098C161.1 142.298 161.1 142.498 161.1 142.598C161.1 142.598 160.7 142.798 160.7 142.898C160.7 142.898 159.2 143.098 158.7 143.198H158.5C158 143.198 157.3 143.098 157.3 142.898C157.3 142.698 157.3 142.498 157.3 142.298L157.1 141.898Z" fill="black"/>
<path d="M171.5 152.002C172.4 153.002 173.2 154.002 174 154.902C174.3 155.302 174.4 155.802 175.2 155.802C175.6 155.802 175.4 156.602 175.7 156.902C176.5 157.802 177.2 158.802 178 159.702C178.4 160.202 178.8 160.502 179.2 161.002C179.8 161.702 180.4 162.402 181.1 163.302C182.1 164.502 182.8 165.702 183.7 167.002C183.2 167.202 182.7 167.302 182.3 167.502C181.6 167.802 180.7 168.002 179.9 168.202C179 168.302 178.2 168.502 177.5 168.702C177.3 168.702 177.1 168.802 176.9 168.902H176.4C176.2 169.102 175.9 169.202 175.6 169.202C175.1 169.302 174.6 169.302 174.1 169.202C173.4 169.202 172.6 169.002 171.9 169.202C171.5 169.302 171.1 169.702 170.6 169.702C170.1 169.702 169.6 169.502 169.2 170.102C169.2 170.102 169 170.102 168.9 170.002C168.4 169.602 167.8 169.702 167.4 170.002C167 170.302 166.6 170.202 166.3 170.202C165.3 170.202 164.2 170.202 163.2 170.002C162.4 169.902 161.7 169.602 160.9 169.402C160.1 169.302 159.2 169.402 158.5 169.002C157.8 168.602 157.1 168.402 156.4 168.302C156 168.302 155.6 167.802 155.1 168.302C155.1 168.302 154.9 168.302 154.8 168.302C153.9 167.202 152.5 167.902 151.4 167.302C150.3 166.702 149 166.402 147.9 165.902C147.6 165.802 147.3 165.402 146.9 165.702C146.7 165.702 146.4 165.702 146.3 165.402C145.8 164.402 144.7 164.202 143.9 163.602C143 162.902 142 162.402 141.4 161.302C141.2 160.802 140.8 160.302 140 160.302C139.6 160.302 139.4 159.702 139.1 159.402C138.8 159.202 138.4 159.102 138.2 158.802C138 158.602 138 158.202 137.9 157.902C137.9 157.902 137.9 157.702 137.7 157.702C137 157.202 136.5 156.402 136.3 155.602L135.9 154.402C135.8 154.002 135.7 153.602 135.5 153.202C134.7 151.702 134.4 149.902 134.3 148.202C134.3 147.302 134.4 146.302 135.5 145.702C136 145.402 136.6 145.402 136.9 145.702C137.2 146.002 137.4 146.202 137.5 146.502C137.6 147.002 137.7 147.402 137.9 147.802C138.1 148.202 138.3 148.702 138.5 149.102C138.7 149.502 138.9 149.902 138.9 150.402C138.9 150.702 139.2 150.902 138.9 151.302V151.502C139.5 151.902 139.7 152.502 140 153.002C140.1 153.302 140.2 153.602 140.3 153.902C140.4 154.202 140.6 154.502 140.8 154.702C141.1 155.102 141.5 155.502 141.9 155.802C142.3 156.102 142.7 156.402 143 156.902C143.8 156.902 144.2 157.402 144.5 157.902C145.6 159.802 147.7 160.602 149.6 161.602C151.5 162.602 153.6 163.302 155.8 163.902C156.2 163.902 156.6 163.702 156.9 164.102C157.2 164.502 157.8 164.402 158.3 164.502C158.7 164.502 159.2 164.502 159.6 164.802C161.2 165.802 163.1 165.602 164.8 165.702C166.5 165.902 168.3 165.902 170.1 165.702C171.2 165.502 172.2 165.102 173.2 165.102C173.7 165.102 174.1 164.702 174.6 165.102C174.8 165.202 175.1 164.702 175.4 164.602H175.8C175.8 164.502 176 164.502 176 164.502C176.1 164.502 176.3 164.502 176.4 164.502C176.4 164.502 176.4 164.402 176.2 164.302C176.1 164.202 175.7 164.102 175.6 164.102C175.6 164.102 175.5 164.102 175.4 163.902L175.2 163.702L174.9 163.302C174.4 162.602 174.1 161.802 173.6 161.102C173.1 160.402 172.3 159.802 172 159.002C171.4 157.502 170.2 156.402 169.2 155.202C168.2 154.002 167.2 152.802 166.1 151.702C165.5 151.102 165.3 150.202 164.7 149.502C164.4 149.202 165.1 147.802 165.6 147.602C165.6 147.602 165.8 147.602 165.9 147.602C166.8 147.902 167.9 148.002 168.5 148.702C169.4 149.802 170.5 150.902 171.4 152.002H171.5Z" fill="black"/>
<path d="M160 187.002L160.5 186.002C160.5 185.802 160.6 185.702 160.7 185.502C160.7 185.502 161.1 185.002 160.4 185.502C160 185.702 161 185.002 161 184.902V184.802H160.8C160.6 184.902 160.5 185.002 160.3 185.002C160.1 185.002 160 185.202 159.8 185.302H159.6C159.3 185.302 159 185.402 158.7 185.402C157.5 185.502 156.4 185.202 155.3 185.402C154.3 185.602 153.6 184.902 152.7 184.802C151.7 184.702 150.8 184.502 150 183.902C149.4 183.502 148.9 183.002 148.3 182.902C147.9 182.802 147.4 182.902 147 182.702C146.6 182.502 146.4 182.002 145.7 182.402C145.7 182.402 145.5 182.202 145.5 182.102C145.3 181.502 144.9 181.202 144.4 181.302C143.9 181.302 143.7 181.102 143.4 180.902C142.6 180.402 141.9 179.802 141.2 179.202C140.7 178.702 140.3 178.102 139.9 177.502C139.4 177.002 138.7 176.602 138.5 175.902C138.3 175.202 137.8 174.802 137.4 174.302C137.2 174.002 137.1 173.502 136.4 173.702C136.4 173.702 136.3 173.702 136.3 173.502C136.3 172.202 134.8 172.002 134.3 170.902C133.9 169.802 133.1 168.802 132.7 167.702C132.6 167.402 132.7 167.002 132.1 166.902C131.9 166.902 131.8 166.502 131.9 166.302C132.1 165.802 132 165.302 131.9 164.902C131.8 164.502 131.6 164.002 131.6 163.602C131.6 163.102 131.5 162.602 131.5 162.102C131.5 161.602 131.5 161.102 131.7 160.602C131.9 160.202 132 159.602 131.5 159.102C131.2 158.902 131.5 158.402 131.5 158.002C131.5 157.702 131.2 157.402 131.3 157.102C131.3 156.802 131.6 156.602 131.7 156.402V156.202C131.3 154.702 132.4 153.502 132.6 152.102C132.8 150.702 133.2 149.402 133.8 148.102C134.1 147.402 134.5 146.702 135.7 146.602C136.3 146.602 136.8 146.702 137 147.102C137.2 147.402 137.3 147.702 137.3 148.002C137.3 148.402 137.3 148.902 137.3 149.302C137.3 150.202 137.5 151.102 137 151.902C136.8 152.102 137 152.502 136.5 152.602C136.5 152.602 136.4 152.702 136.4 152.802C136.9 154.102 136.1 155.102 136 156.302C135.9 157.302 136.4 158.302 136 159.202C136.6 159.802 136.5 160.302 136.3 160.802C135.6 162.602 136.3 164.402 136.9 166.002C137.4 167.702 138.5 169.202 139.7 170.702C139.9 171.002 140.4 171.002 140.4 171.402C140.4 171.902 140.9 172.102 141.2 172.402C141.5 172.702 141.8 172.902 142 173.302C142.6 174.902 144 175.702 145.2 176.702C146.3 177.702 147.6 178.602 149 179.202C149.9 179.502 150.8 179.602 151.6 180.002C151.9 180.202 152.4 180.002 152.6 180.702C152.6 180.902 153.1 180.602 153.4 180.702C154 180.802 154.6 181.002 155.2 181.102C156 181.202 156.9 181.402 157.7 181.302C158.2 181.302 158.7 181.002 159.2 180.902C159.3 180.902 159.5 180.902 159.6 180.902H159.7H159.8L160.2 180.802L161.1 180.602C161.4 180.602 161.7 180.602 162 180.402C162.8 180.202 163.6 180.002 164.4 179.702C165.2 179.502 165.9 179.302 166.7 179.002C167 178.902 167.4 178.802 167.7 178.602V179.102V179.402V179.802C167.4 180.302 167.3 180.902 167 181.502C166.3 182.902 165.9 183.902 165.6 185.002C165.2 186.002 164.8 187.202 164.3 188.202C163.6 189.502 162.9 190.802 162.2 192.102C161.8 192.802 161 193.202 160.5 193.802C160.3 194.102 158.8 193.602 158.5 193.202C158.5 193.202 158.4 193.002 158.4 192.902C158.4 192.002 158.2 191.102 158.7 190.402C159.4 189.402 160 188.302 160.5 187.302L160 187.002Z" fill="black"/>
<path d="M118.9 159.9C117.9 160.1 116.9 160.3 115.8 160.5C115.4 160.5 115 160.4 114.7 161C114.5 161.3 114.1 160.7 113.7 160.8C112.7 161 111.8 160.9 110.8 161C109.9 161 108.9 161.3 108 161.4C107 161.4 106.1 161.1 105.2 161.4C104.4 161.6 103.7 161 102.9 161C102.1 161 101.1 160.9 100.3 160.3C99.7 159.9 99.2 159.5 98.6 159.2C98.2 159 97.7 159.1 97.3 158.8C96.9 158.5 96.8 158 96 158.1C96 158.1 95.9 157.9 95.9 157.7C95.9 157 95.5 156.6 95.1 156.3C94.6 156 94.5 155.6 94.4 155.2C94 154 93.9 152.8 94.1 151.8C94.2 151 94.7 150.4 95 149.7C95.3 149 95.4 148.2 95.9 147.8C96.5 147.4 96.8 146.9 97.2 146.4C97.4 146.1 97.9 146 97.6 145.3C97.6 145.3 97.6 145.1 97.7 145.1C99 144.9 98.9 143.5 99.9 143C100.9 142.5 101.7 141.8 102.6 141.3C102.8 141.2 103.2 141.2 103.2 140.7C103.2 140.5 103.5 140.4 103.7 140.4C104.7 140.6 105.3 140 106.1 139.9C107 139.8 107.8 139.2 108.8 139.6C109.2 139.7 109.7 139.8 110.1 139.1C110.3 138.8 110.7 139.1 111 138.9C111.3 138.9 111.5 138.5 111.7 138.5C111.9 138.5 112.2 138.7 112.4 138.8C112.4 138.8 112.5 138.8 112.6 138.8C113.8 138.1 115.1 139 116.3 138.8C117.6 138.7 118.8 138.8 120 139.1C120.7 139.2 121.3 139.5 121.6 140.7C121.7 141.2 121.6 141.8 121.4 142.1C121.2 142.3 120.9 142.5 120.7 142.5C120.3 142.5 119.9 142.6 119.6 142.7C118.8 142.8 118.1 143.3 117.3 142.9C117.1 142.8 116.8 143.1 116.6 142.6C116.6 142.6 116.5 142.5 116.4 142.6C115.4 143.3 114.3 142.8 113.3 142.9C112.4 142.9 111.7 143.7 110.8 143.5C110.4 144.2 109.9 144.1 109.4 144.1C107.7 143.7 106.3 144.7 104.8 145.3C103.3 145.9 102.1 147 101.1 148.1C100.9 148.3 101.1 148.7 100.7 148.7C100.3 148.7 100.3 149.2 100.1 149.5C99.9 149.8 99.9 150.1 99.6 150.3C99 150.7 98.7 151.2 98.6 151.8C98.5 152.4 98.5 152.9 98.5 153.3C98.5 153.8 98.5 154.2 98.8 154.6C99 155 99.4 155.4 99.8 155.6C100.4 155.9 101 155.9 101.6 156.3C101.9 156.5 102.2 156.3 102.4 156.9C102.4 157.1 102.8 156.7 103 156.7C103.5 156.7 104 156.9 104.6 156.9C105.4 156.9 106.2 157.1 106.9 157.1C107.4 157.1 107.9 156.9 108.3 156.8C108.8 156.8 109.3 156.8 109.8 156.8C110.4 156.8 111.1 157 111.7 157.1C112.4 157.1 113 156.8 113.7 157C114.9 157.4 116.1 157 117.2 156.7C118.4 156.5 119.5 156.3 120.6 155.8C121.2 155.5 121.9 155.8 122.6 155.6C122.9 155.5 123.8 156.7 123.9 157.2C123.9 157.2 123.9 157.4 123.9 157.5C123.4 158.2 123.1 159.1 122.3 159.3C121.2 159.6 120 160 118.9 160.2V159.9Z" fill="black"/>
<path d="M129.1 120.599C129.1 120.999 129.1 121.399 129.1 121.899C129.1 122.099 128.9 122.199 129.4 122.399C129.7 122.399 129 122.599 129.1 122.799C129.1 123.199 129.1 123.599 129.1 123.999C129.1 124.399 129.4 124.799 129.4 125.199C129.4 125.599 129.1 125.899 129.4 126.299C129.6 126.699 129.1 126.899 129.2 127.199C129.2 127.499 129.3 127.899 129 128.099C128.8 128.299 128.5 128.499 128.6 128.699C128.6 128.899 128.9 129.099 128.9 129.199C128.9 129.299 128.6 129.399 129.1 129.699C129.1 129.699 129.1 129.699 128.9 129.699C128.5 129.699 128.4 129.899 128.7 130.099C128.9 130.299 128.9 130.399 128.8 130.499C128.8 130.799 128.7 131.199 128.5 131.399C128.4 131.599 128.1 131.799 127.9 131.999C127.8 132.199 127.9 132.599 127.6 132.699C127.2 132.799 127.2 132.999 127.1 133.199C127.1 133.299 126.7 133.399 127.3 133.699C126.4 133.699 127.3 134.499 126.9 134.699C126.5 134.999 126.5 135.399 126.4 135.799C126.4 135.799 126.1 135.899 126.5 136.199C126.6 136.299 126.5 136.399 126.5 136.399C125.8 136.399 126 136.799 125.8 136.999C125.5 137.199 125.6 137.699 125 137.699C124.7 137.699 124.6 137.799 125 138.299C125.2 138.499 124.9 138.499 124.8 138.599C124.8 138.699 125 138.899 124.9 138.999C124.9 138.999 124.6 138.999 124.5 138.999C124.8 139.799 123.7 139.699 123.6 140.199C123.4 140.699 123.1 141.099 122.7 141.399C122.5 141.599 122.1 141.699 121.2 141.099C120.8 140.799 120.4 140.399 120.2 140.099C120.1 139.899 120 139.699 120 139.599C120 139.399 120 139.199 120 139.099C120 138.799 119.8 138.199 120.2 138.199C120.3 138.199 120.2 137.899 120.6 138.199C120.2 137.399 120.9 137.399 121 137.099C121.1 136.799 120.8 136.199 121.2 136.099C120.8 135.599 121 135.499 121.2 135.399C122.1 135.199 122 134.399 122.4 133.899C122.8 133.399 123 132.699 123.3 132.099C123.3 131.999 123 131.799 123.3 131.799C123.6 131.799 123.5 131.599 123.5 131.399C123.5 131.299 123.5 131.099 123.7 130.999C124.5 130.699 124.3 130.099 124.5 129.599C124.7 129.099 124.9 128.599 124.9 128.099C124.9 127.799 124.6 127.399 124.8 127.099C124.8 126.999 124.6 126.799 125.2 126.699C125.4 126.699 124.9 126.499 124.9 126.399C124.9 126.199 124.9 125.999 124.9 125.799C124.9 125.499 125 125.199 124.9 124.899C124.9 124.699 124.7 124.499 124.6 124.299C124.6 124.099 124.6 123.899 124.6 123.699C124.6 123.499 124.9 123.199 125 122.999C125 122.699 124.8 122.499 125 122.199C125.5 121.699 125.3 121.299 125.3 120.799C125.3 120.399 125.3 119.899 125.2 119.499C125.1 119.299 125.6 118.999 125.5 118.699C125.5 118.599 126.9 118.199 127.4 118.199H127.6C128.1 118.399 128.8 118.599 128.8 118.899C128.8 119.399 128.8 119.799 128.9 120.299L129.1 120.599Z" fill="black"/>
<path d="M105.6 123.099C105.6 123.399 105.6 123.699 105.8 123.999C105.8 124.099 105.6 124.299 106.2 124.299C106.5 124.299 105.9 124.499 105.9 124.599C106 124.899 105.9 125.099 106.1 125.399C106.2 125.599 106.5 125.799 106.6 126.099C106.7 126.299 106.6 126.699 106.9 126.799C107.2 126.899 106.9 127.299 106.9 127.399C107.1 127.599 107.2 127.799 107.1 127.999C107 128.199 106.8 128.399 107 128.499C107 128.499 107.4 128.499 107.4 128.699C107.4 128.799 107.2 128.999 107.8 128.899C107.8 128.899 107.8 128.899 107.7 128.999C107.4 129.199 107.4 129.399 107.7 129.299C108 129.299 108 129.299 108 129.399C108.1 129.599 108.2 129.799 108.2 129.999C108.2 130.199 108.1 130.399 108.1 130.599C108.1 130.799 108.4 130.799 108.2 131.099C108 131.399 108.1 131.499 108.2 131.699C108.2 131.699 108 131.999 108.6 131.799C108 132.399 109 132.199 109 132.499C109 132.799 109.2 132.999 109.3 133.199C109.3 133.199 109.3 133.399 109.6 133.199C109.8 133.199 109.8 133.199 109.7 133.199C109.2 133.699 109.7 133.699 109.7 133.899C109.7 134.199 110.1 134.199 109.7 134.699C109.6 134.899 109.6 135.099 110.1 134.899C110.4 134.899 110.1 135.099 110.3 135.099H110.7C110.7 135.099 110.6 135.299 110.5 135.499C111.3 135.599 110.7 136.499 111 136.899C111.3 137.399 111.4 138.099 111.2 138.699C111.2 139.099 110.9 139.499 109.7 139.299C109.2 139.299 108.7 139.099 108.4 138.899C108.2 138.799 108 138.699 107.9 138.599C107.9 138.599 107.7 138.399 107.6 138.399C107.4 138.299 106.9 138.299 107.1 138.099C107.1 138.099 106.9 138.099 107.4 137.899C106.6 137.899 107 137.599 106.8 137.299C106.7 137.099 106 137.299 106.1 136.899C105.5 137.099 105.5 136.899 105.6 136.699C105.9 135.899 105.2 135.599 105 134.999C104.8 134.399 104.5 133.899 104.2 133.399C104.2 133.399 103.8 133.399 104 133.099C104.2 132.899 104 132.799 103.9 132.699C103.9 132.599 103.7 132.499 103.8 132.399C104.2 131.699 103.7 131.399 103.6 130.999C103.6 130.499 103.4 130.099 103.1 129.699C102.9 129.499 102.5 129.299 102.5 128.999C102.5 128.899 102.2 128.799 102.7 128.599C102.8 128.599 102.4 128.599 102.3 128.499C102.2 128.299 102.2 128.099 102.1 127.899C102.1 127.599 102 127.399 101.9 127.099C101.9 126.899 101.5 126.899 101.4 126.699C101.3 126.499 101.3 126.399 101.3 126.199C101.3 125.999 101.5 125.699 101.5 125.499C101.5 125.299 101.2 125.099 101.5 124.799C101.9 124.299 101.5 123.999 101.5 123.499C101.5 123.099 101.5 122.699 101.3 122.299C101.2 122.099 101.7 121.799 101.6 121.599C101.6 121.499 103 121.199 103.5 121.199H103.7C104.2 121.299 104.9 121.399 104.9 121.699C104.9 121.999 104.9 122.399 105 122.699L105.6 123.099Z" fill="black"/>
<path d="M161.1 89.8989C163 89.5989 164.9 89.2989 166.9 88.9989C167.6 88.8989 168.4 88.9989 169.1 88.4989C169.5 88.1989 170.2 88.7989 170.9 88.6989C171.8 88.6989 172.7 88.6989 173.6 88.5989C174.5 88.5989 175.5 88.5989 176.6 88.7989C178.7 89.0989 180.7 89.9989 182.2 91.1989C183 91.7989 183.6 92.4989 184.2 93.1989C184.8 93.8989 185.4 94.4989 186.1 95.0989C187.3 96.0989 187.8 97.5989 188.6 98.9989C189 99.7989 189.4 100.599 189.6 101.599C189.8 102.499 189.8 103.599 189.6 104.499C189.2 105.899 188.5 106.999 187.8 108.099C187.3 108.799 186.9 109.699 185.9 110.199C185 110.699 183.8 110.699 183 111.299C183 111.299 182.5 111.299 182.3 111.099C181.3 110.599 180.3 110.299 179.6 110.399C179.4 110.399 179.4 110.399 179.3 110.399C179.3 110.799 179.1 111.099 179 111.499C178.7 112.099 178.4 112.799 178 113.399C177.6 114.099 177.1 114.799 176.5 115.399C175.9 115.999 175.2 116.399 174.5 116.599C173.1 116.899 172 117.099 170.8 117.299C170.2 117.299 169.4 117.099 168.9 117.799C168.9 117.799 168.6 117.799 168.5 117.799C166.7 116.999 164.9 117.999 163.1 117.499C161.3 116.999 159.4 116.599 157.5 115.999C157 115.799 156.6 115.399 156 115.699C155.8 115.699 155.3 115.599 155.1 115.299C154.6 114.699 154 114.299 153.3 113.899C153.2 113.899 153.1 113.899 153 113.699C152.8 113.599 152.8 113.799 152.7 113.899V114.099C152.3 114.399 152.1 114.699 151.8 114.999C151.3 115.499 150.8 116.299 150.6 117.399C150.6 117.899 149.7 118.499 149.2 118.999C148.8 119.399 148.5 119.999 148.1 120.299C147.7 120.599 147.2 120.599 146.7 120.799C146.6 120.799 146.4 120.899 146.3 120.999C145.2 121.899 143.9 122.299 142.6 122.399C141.3 122.599 140 122.399 138.7 122.499C136.1 122.599 133.7 121.999 131.4 121.299C130.2 120.899 129 120.299 128.5 118.999C128.3 118.399 128.5 117.899 129.1 117.699C129.5 117.599 130 117.499 130.5 117.599C131.2 117.699 131.9 117.799 132.6 117.899C134 118.099 135.4 117.899 136.8 118.299C137.2 118.399 137.7 118.199 138.1 118.699C138.1 118.699 138.3 118.799 138.4 118.699C139.3 118.299 140.2 118.199 141.1 118.099C142 117.999 142.9 117.899 143.7 117.499C144.4 117.199 145 116.699 145.4 116.199C145.9 115.699 146.3 115.199 146.8 114.799C146.8 114.299 146.8 113.999 147.1 113.599C147.3 113.199 147.6 112.899 147.9 112.499C148.2 112.199 148.4 111.799 148.7 111.399C149.1 110.699 149.5 110.099 150 109.499C150.5 108.899 151 108.499 151.6 108.299C151.9 108.199 152.3 108.199 152.6 108.199C152.8 108.199 152.9 108.199 153.1 108.199C153.3 108.199 153.4 108.399 153.6 108.399C154.3 108.699 154.9 108.999 155.6 109.399C156 109.599 156.3 109.799 156.7 109.899C157.4 110.199 158.1 110.599 158.8 110.899C161.7 112.199 165 112.699 168.1 112.599C168.6 112.599 169.1 112.199 169.7 112.399C170.3 112.599 171 112.399 171.6 112.199C172.1 112.099 172.5 111.799 173 111.699C173.9 111.599 174.5 110.899 174.8 109.799C174.8 109.499 175 109.299 175 108.999V108.799C175 108.699 175 108.499 175.1 108.399C175.1 108.099 175.1 107.799 175.2 107.499L175.5 103.899H175.8H176.2C176.2 103.999 177 104.199 177 104.199L178.5 104.599C179 104.799 179.5 104.999 180.1 105.199C180.6 105.399 181.1 105.599 181.4 105.699C182.5 106.099 183.4 106.099 184 105.699C184.8 105.199 185.1 104.099 185.4 103.099C185.6 102.599 185.2 102.199 185.7 101.699C185.8 101.499 185.3 101.099 185.2 100.799C184.9 99.9989 184.5 99.1989 183.9 98.3989C183.1 97.2989 182.1 96.0989 181 95.0989C180.3 94.4989 179.5 94.0989 178.9 93.6989C178.2 93.2989 177.5 92.8989 176.9 92.5989C176.5 92.3989 176.1 92.1989 175.6 92.0989C175.1 91.9989 174.6 91.8989 174 91.7989C172.8 91.7989 171.4 92.0989 170.2 91.7989C167.9 91.3989 165.6 91.9989 163.3 92.2989C161 92.5989 158.8 92.9989 156.5 93.6989C155.2 94.0989 154 93.8989 152.7 94.1989C152.1 94.3989 151 93.0989 151.1 92.5989C151.1 92.4989 151.1 92.3989 151.3 92.2989C152.4 91.4989 153.4 90.4989 154.8 90.1989C156.9 89.7989 159.1 89.1989 161.2 88.8989L161.1 89.8989Z" fill="black"/>
<path d="M90.4004 111.001C90.4004 111.401 90.4004 111.701 90.4004 112.101C90.4004 112.201 90.2004 112.401 90.7004 112.501C91.0004 112.501 90.4004 112.701 90.4004 112.901C90.5004 113.201 90.4004 113.601 90.6004 113.901C90.7004 114.201 91.0004 114.501 91.2004 114.801C91.3004 115.101 91.2004 115.501 91.6004 115.701C91.9004 115.901 91.6004 116.301 91.8004 116.501C92.0004 116.701 92.2004 116.901 92.1004 117.301C92.1004 117.501 91.9004 117.801 92.1004 118.001C92.2004 118.001 92.5004 118.001 92.6004 118.201C92.6004 118.301 92.5004 118.601 93.1004 118.301C93.1004 118.301 93.1004 118.301 93.1004 118.401C92.8004 118.701 92.9004 118.801 93.1004 118.801C93.4004 118.801 93.4004 118.801 93.4004 118.801C93.6004 119.001 93.7004 119.101 93.8004 119.301C93.8004 119.401 93.8004 119.701 93.8004 119.801C93.8004 119.901 94.1004 119.801 94.1004 120.101C94.1004 120.401 94.1004 120.501 94.3004 120.601C94.3004 120.601 94.3004 120.901 94.7004 120.401C94.7004 121.301 95.3004 120.401 95.5004 120.601C95.8004 120.901 96.1004 120.801 96.5004 120.901C96.5004 120.901 96.6004 121.101 96.8004 120.701C96.8004 120.501 97.0004 120.501 97.0004 120.701C97.1004 121.401 97.5004 121.001 97.7004 121.201C98.0004 121.401 98.3004 121.201 98.5004 121.601C98.6004 121.801 98.8004 122.001 99.0004 121.401C99.0004 121.101 99.2004 121.401 99.3004 121.401C99.3004 121.401 99.5004 121.101 99.6004 121.101C99.6004 121.101 99.7004 121.301 99.8004 121.501C100.2 120.801 100.7 121.701 101.1 121.501C101.5 121.301 102 121.401 102.4 121.501C102.6 121.501 102.9 121.701 103.2 122.801C103.3 123.301 103.4 123.801 103.4 124.201C103.4 124.401 103.3 124.701 103.2 124.801C103 124.901 102.9 125.101 102.8 125.201C102.5 125.401 102.2 126.001 101.8 125.701C101.7 125.701 101.6 125.901 101.5 125.401C101.1 126.201 100.5 125.701 100.1 125.701C99.7004 125.701 99.3004 126.301 98.9004 126.001C98.6004 126.601 98.3004 126.501 98.1004 126.301C97.4004 125.501 96.5004 125.901 95.7004 125.601C94.9004 125.301 94.1004 125.201 93.2004 124.801C93.1004 124.801 92.8004 125.001 92.7004 124.701C92.7004 124.401 92.3004 124.501 92.1004 124.401C91.9004 124.401 91.6004 124.301 91.6004 124.001C91.3004 123.001 90.5004 122.801 90.1004 122.101C89.7004 121.501 89.4004 120.801 89.0004 120.301C88.7004 120.001 88.2004 119.801 88.2004 119.301C88.2004 119.101 87.8004 119.101 88.2004 118.701C88.3004 118.601 87.9004 118.701 87.8004 118.501C87.7004 118.301 87.6004 118.001 87.5004 117.701C87.4004 117.301 87.3004 117.001 87.1004 116.601C87.0004 116.401 86.7004 116.201 86.6004 116.001C86.5004 115.801 86.4004 115.501 86.4004 115.301C86.4004 115.001 86.6004 114.601 86.6004 114.301C86.6004 114.001 86.3004 113.701 86.6004 113.301C87.0004 112.701 86.7004 112.201 86.8004 111.601C86.8004 111.001 86.8004 110.501 86.8004 109.901C86.8004 109.601 87.3004 109.301 87.3004 109.001C87.3004 108.901 88.8004 108.801 89.3004 108.901H89.5004C89.9004 109.201 90.7004 109.501 90.6004 109.801C90.6004 110.201 90.6004 110.601 90.6004 111.101L90.4004 111.001Z" fill="black"/>
<path d="M144.8 90.0015C143.9 90.0015 142.9 90.2015 142 90.6015C141.7 90.8015 141.2 90.7015 141.1 91.4015C141.1 91.7015 140.4 91.4015 140.2 91.6015C139.8 91.9015 139.5 92.2015 139.1 92.5015C138.7 92.9015 138.5 93.1015 138.1 93.7015C137.4 94.5015 136.6 95.3015 135.5 95.5015C134.7 95.7015 133.9 95.5015 133.1 95.3015C132.9 95.3015 132.8 95.2015 132.6 95.1015C132.5 95.1015 132.3 95.0015 132.2 94.9015C131.9 94.8015 131.7 94.6015 131.4 94.5015C130.9 94.2015 130.4 94.0015 129.8 93.8015C128.8 93.6016 128.4 92.8015 127.6 92.5015C126.8 92.2015 126 91.9015 125.3 91.4015C124.8 91.0015 124.4 90.6015 123.8 90.6015C123.4 90.6015 123.1 90.8015 122.7 90.8015C122.4 90.8015 122 90.4015 121.7 91.0015C121.7 91.0015 121.5 91.0015 121.5 90.8015C121.2 90.4015 120.7 90.4015 120.4 90.8015C120.1 91.1016 119.9 91.1015 119.6 91.1015C118.9 91.3015 118.2 91.5015 117.5 91.7015C117 91.9015 116.4 91.9015 115.9 92.1015C115.4 92.4015 115.1 92.9015 114.6 93.0015C114.1 93.1015 113.9 93.4015 113.7 93.8015C113.7 94.0015 113.2 94.3015 113.7 94.7015V94.9015C112.7 95.7015 113.5 97.3015 112.7 98.4015C111.9 99.6015 111.1 101.002 109.6 101.902C109.2 102.102 108.7 102.202 108.5 102.702C108.5 102.902 108 103.102 107.7 103.002C106.4 102.702 105.5 103.102 104.5 103.002C103.4 102.902 102.4 103.002 101.4 102.502C101 102.302 100.4 102.102 99.9004 102.702C99.7004 103.002 99.2004 102.702 98.9004 102.702C98.6004 102.702 98.4004 103.002 98.1004 103.002C97.9004 103.002 97.7004 102.802 97.4004 102.702C97.4004 102.702 97.3004 102.702 97.2004 102.702C96.0004 103.402 94.8004 102.702 93.7004 103.202C92.7004 103.802 91.7004 104.302 91.0004 104.902C90.6004 105.302 90.2004 105.602 89.0004 105.602C88.4004 105.602 87.9004 105.502 87.7004 105.002C87.6004 104.702 87.5004 104.302 87.7004 103.902C87.9004 103.402 88.1004 102.902 88.4004 102.402C89.0004 101.502 89.6004 100.302 90.8004 100.002C91.1004 100.002 91.4004 99.5015 91.9004 99.8015C91.9004 99.8015 92.1004 99.8015 92.2004 99.8015C92.7004 99.2015 93.5004 98.9015 94.2004 98.7015C95.0004 98.6015 95.7004 98.6015 96.4004 98.5015C97.6004 98.4015 98.8004 97.8015 99.9004 98.1015C100.6 97.5015 101.3 97.7015 101.9 97.9015C104 98.8015 106.1 98.4015 107.1 97.9015C107.6 97.7015 108.1 97.2015 108.5 96.5015C108.7 96.2015 108.8 95.8015 109 95.3015C109.1 94.9016 109.2 94.5015 109.4 93.9015C109.4 93.5015 109.2 93.1015 109.7 92.6015C110.1 92.2015 110.2 91.4015 110.6 90.8015C110.9 90.3015 111.3 89.7015 111.8 89.4015C112.7 88.9015 113.7 88.4015 114.6 87.9015C115.5 87.4015 116.4 87.0016 117.4 86.8016C119.3 86.3016 121.3 86.3015 123.3 86.4015C124.5 86.4015 125.8 86.4015 126.9 87.0015C127.4 87.2015 128 87.1015 128.2 87.9015C128.2 88.1015 128.9 87.9015 129.1 88.0015C129.8 88.3015 130.4 88.7015 131.1 89.0015C132 89.5015 132.8 90.0015 133.7 90.3015C134 90.3015 134.2 90.5015 134.5 90.5015H134.7H134.8V90.4015C134.8 90.4015 134.9 90.4015 135 90.3015L136.1 89.4015C136.8 88.7015 137.5 87.9015 138.5 87.5015C140.3 87.0015 141.8 86.1015 143.6 85.9015C145.4 85.7015 147.2 86.0015 148.9 86.6015C149.9 87.0015 150.5 87.9015 151.2 88.5015C151.4 88.7015 151.3 89.1015 151.2 89.5015C151 89.9015 150.7 90.3015 150.5 90.4015C150.5 90.4015 150.3 90.4015 150.2 90.4015C149.3 90.2015 148.5 90.4015 147.9 90.1015C147 89.6015 145.9 89.4015 144.8 89.4015V90.0015Z" fill="black"/>
</svg>
