<svg width="300" height="300" viewBox="0 0 300 300" fill="none" xmlns="http://www.w3.org/2000/svg">
<path d="M176.6 132.902C174.9 131.102 173.2 129.202 171.5 127.402C170.8 126.702 170.4 125.902 169.3 125.502C168.8 125.302 168.6 124.202 168 123.602C166.4 121.902 164.8 120.202 163.2 118.502C161.6 116.902 160 115.702 158.4 115.202C156.8 114.602 154.7 114.102 152.5 114.402C150.7 114.602 149 114.102 147.3 114.302C145.4 114.502 143.5 114.702 141.7 114.602C140.4 114.602 139 114.502 137.7 114.802C136.9 115.002 136.2 115.402 135.3 115.502C134.5 115.602 133.5 115.502 132.9 116.302C132.9 116.302 132.5 116.302 132.3 116.302C131.3 116.102 130.3 116.302 129.6 116.802C129 117.202 128.3 117.402 127.7 117.502C125.9 118.002 124.1 118.502 122.5 119.102C121.3 119.502 120.1 119.902 119.1 120.502C118 121.202 117.5 122.302 116.7 123.102C115.9 123.902 115.5 125.002 115.2 126.202C115 126.902 114.6 127.602 115.2 128.302C115.2 128.302 115.2 128.602 115.2 128.702C114.1 130.702 115.2 132.902 115 135.002C114.8 137.302 115 139.602 115 141.902C115 142.502 114.9 143.202 115.4 143.702C115.6 143.902 115.6 144.502 115.5 144.802C115 146.502 115.5 148.302 115.5 150.102C115.5 152.102 116.1 154.102 115.8 156.102C115.7 157.002 115.8 158.102 116.4 159.102C116.7 159.502 116.6 160.502 116.8 161.302C116.9 161.902 117.3 162.402 117.4 163.002C117.4 163.502 117.4 164.002 117.3 164.602C117.3 164.802 117.3 164.902 117.3 165.102C118.4 167.902 118 170.902 118.7 173.802C119.4 176.702 119.9 179.702 120.3 182.602C120.6 184.202 120.7 185.902 119.8 187.302C119.4 187.902 118.8 188.002 118.4 187.302C118.1 186.802 117.7 186.302 117.6 185.702C117.3 184.802 117 183.902 116.8 183.002C116.3 181.202 115.4 179.402 115.3 177.402C115.3 176.802 114.9 176.102 115.3 175.502C115.3 175.502 115.3 175.202 115.3 175.002C114.1 172.502 114.1 169.702 113.6 167.102C113.2 164.802 112.2 162.702 112.2 160.402C111.4 159.202 111.3 157.702 111.4 156.402C111.5 151.802 110.7 147.302 110.6 142.702C110.6 140.402 110.5 138.002 110.5 135.702C110.5 133.402 110.5 131.002 110.8 128.602C110.8 127.802 110.6 127.002 111.1 126.002C111.5 125.102 111.7 123.902 112.1 122.802C112.5 121.802 112.9 120.702 113.6 120.002C116.6 116.802 120.3 114.902 123.8 113.802C127.3 112.802 130.9 112.002 134.5 111.302C136.7 110.802 138.8 110.202 141.1 110.102C142.1 110.102 143 109.602 144 110.102C144.3 110.302 145.1 109.802 145.8 109.702C147.3 109.602 148.9 109.602 150.4 109.602C152.5 109.602 154.6 109.602 157 110.002C158.4 110.202 159.9 110.302 161.4 111.002C162.9 111.702 164.2 112.802 165.2 113.802C166.5 115.202 167.4 116.502 168.5 117.802C169.6 119.102 171.1 120.302 172 121.702C173.8 124.302 176.1 126.402 178.1 128.702C180.2 131.002 182.2 133.302 184.4 135.502C185.6 136.702 186.4 138.202 187.5 139.502C188 140.102 187.7 141.902 187.1 142.002C187 142.002 186.8 142.002 186.7 142.002C185.2 141.102 183.6 140.502 182.4 139.002C180.5 136.902 178.5 134.802 176.6 132.802V132.902Z" fill="black"/>
<path d="M166.101 147.302C166.501 147.102 166.801 147.002 167.201 146.702C167.301 146.702 167.601 146.702 167.501 146.202C167.501 145.902 167.901 146.402 168.001 146.402C168.301 146.202 168.701 146.102 169.001 145.902C169.301 145.702 169.501 145.302 169.801 145.102C170.101 144.902 170.601 145.102 170.801 144.602C171.001 144.202 171.401 144.602 171.601 144.302C171.801 144.102 172.101 143.902 172.501 144.002C172.801 144.002 173.101 144.202 173.201 144.002C173.201 143.902 173.201 143.502 173.401 143.502C173.501 143.502 173.801 143.702 173.701 143.002C173.701 143.002 173.701 143.002 173.901 143.002C174.201 143.302 174.401 143.202 174.401 143.002C174.401 142.702 174.501 142.702 174.601 142.602C174.901 142.502 175.201 142.302 175.501 142.302C175.701 142.302 176.001 142.302 176.301 142.302C176.501 142.302 176.701 141.902 177.001 142.102C177.301 142.302 177.501 142.202 177.701 142.102C177.801 142.102 178.101 142.302 177.901 141.602C178.501 142.302 178.501 141.102 178.901 141.202C179.301 141.202 179.601 141.002 180.001 140.902C180.001 140.902 180.301 141.002 180.201 140.502C180.201 140.302 180.201 140.302 180.401 140.402C180.901 140.902 181.001 140.402 181.301 140.402C181.601 140.402 181.901 140.002 182.301 140.402C182.501 140.602 182.701 140.602 182.701 140.002C182.701 139.702 182.901 140.002 183.001 139.802C183.001 139.802 183.001 139.402 183.201 139.402C183.201 139.402 183.401 139.602 183.501 139.702C183.801 138.902 184.501 139.702 184.901 139.302C185.301 139.002 185.801 138.902 186.301 138.902C186.601 138.902 186.901 138.902 187.401 140.002C187.601 140.502 187.801 141.002 187.701 141.402C187.701 141.702 187.701 141.902 187.601 142.002C187.501 142.102 187.401 142.302 187.301 142.402C187.101 142.702 186.901 143.302 186.601 143.102C186.501 143.102 186.501 143.402 186.201 142.902C186.001 143.802 185.501 143.402 185.101 143.602C184.801 143.802 184.601 144.502 184.201 144.302C184.201 145.002 184.001 144.902 183.701 144.802C182.801 144.402 182.301 145.002 181.601 145.202C180.901 145.302 180.301 145.702 179.601 145.902C179.501 145.902 179.601 146.302 179.301 146.102C179.101 145.902 179.001 146.102 178.801 146.202C178.701 146.202 178.601 146.402 178.401 146.302C177.601 145.902 177.301 146.502 176.701 146.602C176.201 146.702 175.601 146.902 175.201 147.302C174.901 147.502 174.801 148.002 174.401 148.002C174.201 148.002 174.201 148.402 173.901 147.902C173.801 147.802 173.901 148.202 173.801 148.302C173.601 148.402 173.401 148.502 173.201 148.602C172.901 148.702 172.601 148.802 172.301 149.002C172.101 149.102 172.101 149.402 171.901 149.602C171.701 149.702 171.601 149.802 171.301 149.902C171.001 149.902 170.701 149.902 170.401 149.902C170.101 149.902 170.001 150.302 169.601 150.202C168.901 150.002 168.601 150.402 168.201 150.602C167.701 150.802 167.301 150.902 166.901 151.302C166.701 151.502 166.201 151.202 166.001 151.302C165.901 151.302 165.101 150.102 164.901 149.702V149.502C164.901 149.002 164.801 148.202 165.101 148.102C165.501 148.002 165.901 147.702 166.301 147.502L166.101 147.302Z" fill="black"/>
<path d="M168.6 166.202C168.6 165.902 168.5 165.502 168.3 165.202C168.3 165.102 168.5 164.902 167.9 164.902C167.6 164.902 168.2 164.602 168.2 164.502C168.1 164.202 168.1 163.902 167.9 163.602C167.8 163.302 167.5 163.102 167.3 162.802C167.2 162.502 167.3 162.102 167 161.902C166.7 161.702 167.1 161.402 167 161.202C166.8 161.002 166.7 160.702 166.8 160.402C166.9 160.202 167.1 160.002 166.9 159.802C166.9 159.802 166.5 159.702 166.5 159.602C166.5 159.502 166.7 159.302 166.1 159.302C166.1 159.302 166.1 159.302 166.2 159.202C166.6 159.002 166.5 158.802 166.2 158.802C165.9 158.802 165.9 158.702 165.9 158.602C165.9 158.402 165.7 158.102 165.7 157.902C165.7 157.702 165.9 157.502 165.9 157.302C165.9 157.102 165.6 157.002 165.9 156.702C166.2 156.402 166.1 156.302 166 156.102C166 156.102 166.2 155.802 165.6 155.902C166.3 155.402 165.2 155.402 165.3 155.102C165.4 154.802 165.3 154.502 165.1 154.202C165.1 154.202 165.2 154.002 164.8 154.002C164.6 154.002 164.6 154.002 164.7 153.902C165.2 153.502 164.8 153.402 164.9 153.102C164.9 152.802 164.6 152.602 164.9 152.202C165.1 152.002 165.1 151.902 164.5 151.902C164.2 151.902 164.5 151.702 164.4 151.602C164.4 151.602 164 151.602 164 151.502C164 151.502 164.2 151.302 164.3 151.202C163.6 151.002 164.3 150.402 164 150.102C163.7 149.802 163.7 149.402 163.6 149.002C163.6 148.802 163.6 148.502 164.7 148.002C165.2 147.802 165.7 147.602 166 147.602C166.2 147.602 166.5 147.602 166.6 147.602C166.7 147.602 166.9 147.802 167 147.902C167.3 148.102 167.9 148.202 167.7 148.502C167.7 148.602 168 148.602 167.5 148.802C168.4 148.902 168 149.402 168.1 149.802C168.2 150.102 168.9 150.202 168.7 150.602C169.4 150.602 169.3 150.802 169.2 151.002C168.7 151.802 169.3 152.202 169.4 152.902C169.4 153.502 169.7 154.102 169.8 154.702C169.8 154.802 170.2 154.802 170 155.002C169.8 155.202 170 155.302 170 155.402C170 155.502 170.2 155.602 170 155.802C169.5 156.402 170 156.802 170 157.302C170 157.802 170 158.302 170.4 158.702C170.6 159.002 171 159.202 170.9 159.502C170.9 159.602 171.2 159.702 170.7 159.902C170.5 159.902 171 159.902 171.1 160.102C171.1 160.302 171.2 160.502 171.3 160.702C171.3 161.002 171.3 161.302 171.5 161.502C171.5 161.702 171.9 161.802 172 161.902C172.1 162.102 172.1 162.202 172.1 162.402C172.1 162.602 171.9 162.902 171.9 163.102C171.9 163.302 172.2 163.502 172 163.802C171.6 164.302 172 164.702 172 165.102C172 165.502 172.1 165.902 172.3 166.302C172.4 166.502 172 166.802 172.1 167.102C172.1 167.102 170.7 167.702 170.2 167.802H170C169.5 167.802 168.7 167.802 168.7 167.402C168.7 167.002 168.5 166.702 168.4 166.302L168.6 166.202Z" fill="black"/>
<path d="M162.2 186.203C162.3 185.803 162.5 185.403 162.5 185.003C162.5 184.803 162.8 184.803 162.4 184.503C162.2 184.303 162.8 184.403 162.8 184.203C162.8 183.803 163.1 183.503 163.1 183.103C163.1 182.703 163.1 182.303 163.1 181.903C163.1 181.503 163.6 181.303 163.4 180.803C163.2 180.403 163.8 180.303 163.8 180.003C163.8 179.703 163.8 179.303 164.1 179.103C164.3 178.903 164.6 178.803 164.6 178.603C164.6 178.403 164.3 178.203 164.4 178.103C164.4 178.003 164.8 177.903 164.2 177.603C164.2 177.603 164.2 177.603 164.4 177.603C164.8 177.603 164.9 177.403 164.6 177.203C164.4 177.003 164.5 176.903 164.5 176.803C164.5 176.503 164.6 176.203 164.8 175.903C164.9 175.703 165.2 175.603 165.4 175.403C165.5 175.203 165.4 174.903 165.7 174.703C166.1 174.603 166.1 174.403 166.2 174.203C166.2 174.103 166.6 174.003 166 173.703C166.9 173.703 166 173.003 166.3 172.703C166.6 172.403 166.6 172.003 166.7 171.703C166.7 171.703 166.9 171.603 166.5 171.303C166.4 171.303 166.4 171.103 166.5 171.103C167.2 171.103 166.9 170.603 167.1 170.403C167.3 170.103 167.1 169.703 167.7 169.603C167.9 169.603 168.1 169.403 167.6 169.103C167.4 168.903 167.6 168.903 167.6 168.803C167.6 168.703 167.3 168.503 167.4 168.403C167.4 168.403 167.7 168.403 167.8 168.303C167.3 167.703 168.3 167.503 168.2 167.003C168.2 166.703 168.2 166.603 168.2 166.303C168.2 166.003 168.4 165.703 168.6 165.303C168.8 164.903 169.3 164.503 170.4 165.103C170.9 165.303 171.3 165.703 171.5 166.003C171.6 166.203 171.8 166.403 171.8 166.503C171.8 166.603 171.9 166.803 172 166.903C172.1 167.103 172.6 167.403 172.2 167.703C172.1 167.703 172.3 168.003 171.8 167.903C172.5 168.503 171.8 168.903 171.8 169.303C171.8 169.703 172.2 170.203 171.8 170.503C172.3 170.903 172.2 171.103 171.9 171.203C171 171.703 171.2 172.503 170.9 173.203C170.6 173.903 170.4 174.603 170.1 175.303C170.1 175.403 170.4 175.603 170.1 175.703C169.8 175.703 169.9 176.003 169.9 176.103C169.9 176.203 169.9 176.403 169.7 176.503C168.9 176.803 169.1 177.503 168.8 178.003C168.5 178.503 168.3 179.003 168.3 179.603C168.3 180.003 168.5 180.403 168.3 180.703C168.2 180.803 168.5 181.103 167.9 181.003C167.7 181.003 168.1 181.303 168.1 181.403C168.1 181.603 168 181.903 167.9 182.103C167.8 182.403 167.6 182.703 167.6 183.103C167.6 183.303 167.7 183.603 167.7 183.803C167.7 184.003 167.7 184.203 167.5 184.403C167.3 184.603 167.1 184.803 166.9 185.103C166.8 185.303 166.9 185.703 166.6 185.903C166 186.203 166.1 186.803 165.9 187.203C165.7 187.603 165.5 188.103 165.5 188.603C165.5 188.903 165 189.003 164.9 189.203C164.9 189.303 163.4 189.203 162.9 189.003H162.7C162.3 188.603 161.7 188.203 161.8 187.903C162 187.403 162.1 187.003 162.2 186.503V186.203Z" fill="black"/>
<path d="M147.199 139C147.199 139 147.299 138.8 147.299 138.7C147.299 138.7 147.599 138.7 147.099 138.5C146.899 138.4 147.499 138.5 147.499 138.5C147.499 138.4 147.499 138.3 147.499 138.2C147.499 138.1 147.299 137.9 147.199 137.8C147.199 137.7 147.499 137.7 147.199 137.5C146.899 137.4 147.399 137.4 147.299 137.3C147.199 137.2 147.099 137.1 147.299 137.1C147.499 137.1 147.699 137.1 147.599 137C147.599 137 147.199 136.9 147.299 136.8C147.299 136.8 147.599 136.8 146.999 136.7C146.999 136.7 146.999 136.7 147.099 136.7C147.499 136.7 147.499 136.7 147.199 136.6C146.899 136.6 146.999 136.6 146.999 136.5C146.999 136.5 146.999 136.3 146.999 136.2C146.999 136.2 147.299 136.1 147.399 136C147.399 136 147.199 135.9 147.399 135.8C147.699 135.8 147.699 135.7 147.699 135.6C147.699 135.5 147.999 135.6 147.399 135.5C148.199 135.4 147.099 135.3 147.399 135.2C147.599 135.1 147.399 135 147.399 134.9C147.399 134.9 147.599 134.9 147.099 134.9C146.899 134.9 146.899 134.9 147.099 134.9C147.699 134.8 147.299 134.7 147.399 134.6C147.499 134.5 147.199 134.4 147.699 134.3C147.899 134.3 147.999 134.2 147.399 134.2H147.099C147.099 134.2 147.299 134.2 147.399 134.1C146.699 134.1 147.599 133.8 147.399 133.7C147.199 133.6 147.199 133.4 147.399 133.3C147.399 133.3 147.599 133.1 148.699 132.8C149.199 132.7 149.699 132.6 150.099 132.5C150.299 132.5 150.599 132.5 150.599 132.5C150.699 132.5 150.799 132.5 150.999 132.6C151.199 132.6 151.799 132.6 151.499 132.9C151.499 132.9 151.699 132.9 151.199 133.1C151.999 133.1 151.499 133.4 151.599 133.5C151.599 133.6 152.299 133.7 152.099 133.9C152.699 133.9 152.599 134 152.499 134.1C151.899 134.4 152.299 134.7 152.299 135C152.299 135.3 152.299 135.6 152.299 135.9C152.299 135.9 152.699 135.9 152.299 136.1C151.999 136.1 152.299 136.2 152.299 136.3C152.299 136.3 152.399 136.4 152.299 136.5C151.599 136.7 151.999 136.9 151.899 137.2C151.899 137.4 151.699 137.6 151.899 137.9C151.899 138.1 152.299 138.2 152.199 138.4C152.199 138.4 152.499 138.6 151.899 138.5C151.699 138.5 152.199 138.6 152.199 138.7C152.199 138.8 152.199 138.9 152.199 139C152.199 139.1 152.099 139.3 152.199 139.4C152.199 139.4 152.399 139.6 152.499 139.7C152.499 139.8 152.499 139.9 152.499 140C152.399 140 152.199 140.1 152.099 140.2C152.099 140.2 152.199 140.5 151.899 140.5C151.299 140.5 151.499 140.8 151.399 141C151.299 141.2 151.099 141.3 151.199 141.6C151.199 141.7 150.699 141.6 150.699 141.7C150.699 141.7 149.399 141.1 148.899 140.8L148.699 140.7C148.299 140.4 147.699 140 147.799 140C147.899 140 147.899 139.8 147.999 139.7L147.199 139Z" fill="black"/>
<path d="M158.199 138.902C158.199 138.902 158.399 138.702 158.399 138.602C158.399 138.602 158.699 138.602 158.199 138.302C157.999 138.102 158.499 138.402 158.499 138.302C158.499 138.202 158.599 138.102 158.599 138.002C158.599 137.902 158.399 137.702 158.399 137.602C158.399 137.502 158.699 137.502 158.399 137.302C158.199 137.102 158.699 137.302 158.599 137.102C158.599 137.002 158.399 136.902 158.599 136.802C158.799 136.802 158.999 136.802 158.899 136.602C158.899 136.602 158.499 136.502 158.599 136.402C158.599 136.402 158.899 136.402 158.299 136.202C158.299 136.202 158.299 136.202 158.399 136.202C158.799 136.202 158.799 136.202 158.499 136.102C158.199 136.102 158.299 136.102 158.299 136.002C158.299 136.002 158.299 135.802 158.299 135.702C158.299 135.702 158.599 135.602 158.599 135.502C158.599 135.502 158.399 135.302 158.599 135.302C158.899 135.302 158.899 135.102 158.899 135.102C158.899 135.102 159.199 135.002 158.499 135.002C159.299 134.802 158.199 134.802 158.499 134.602C158.699 134.402 158.499 134.302 158.499 134.202C158.499 134.202 158.699 134.102 158.199 134.202C157.999 134.202 157.999 134.202 158.199 134.202C158.799 134.002 158.399 134.002 158.499 133.802C158.499 133.702 158.299 133.602 158.699 133.402C158.899 133.402 158.999 133.202 158.399 133.302C158.099 133.302 158.399 133.302 158.399 133.202H158.099C158.099 133.202 158.299 133.102 158.399 133.002C157.699 133.002 158.499 132.602 158.299 132.502C158.099 132.402 158.099 132.202 158.099 132.002C158.099 131.902 158.299 131.702 159.299 131.302C159.799 131.102 160.299 130.902 160.599 130.902C160.799 130.902 161.099 130.902 161.099 130.902C161.199 130.902 161.399 130.902 161.499 130.902C161.699 130.902 162.299 130.902 161.999 131.202C161.999 131.202 162.199 131.202 161.799 131.402C162.599 131.402 162.199 131.702 162.299 131.902C162.299 132.102 162.999 132.102 162.799 132.302C163.399 132.302 163.399 132.302 163.199 132.502C162.599 133.002 163.199 133.202 163.199 133.602C163.199 134.002 163.299 134.302 163.199 134.702C163.199 134.702 163.599 134.702 163.199 134.902C162.899 134.902 163.199 135.102 163.199 135.202C163.199 135.202 163.299 135.402 163.199 135.402C162.499 135.702 162.899 136.002 162.899 136.302C162.899 136.602 162.699 136.902 162.899 137.202C162.899 137.402 163.299 137.702 163.099 137.802C163.099 137.802 163.299 138.002 162.699 138.002C162.499 138.002 162.999 138.202 162.999 138.202C162.999 138.302 162.999 138.502 162.999 138.602C162.999 138.802 162.799 138.902 162.799 139.102C162.799 139.202 162.999 139.402 162.999 139.602C162.999 139.702 162.999 139.902 162.799 140.002C162.699 140.102 162.399 140.202 162.299 140.302C162.199 140.402 162.299 140.702 161.999 140.702C161.399 140.702 161.499 141.002 161.299 141.202C161.099 141.402 160.899 141.602 160.699 141.902C160.699 142.102 160.199 141.902 160.099 141.902C160.099 141.902 158.999 140.902 158.699 140.502L158.599 140.302C158.399 139.902 157.899 139.302 157.999 139.302C158.099 139.302 158.199 139.102 158.299 139.002L158.199 138.902Z" fill="black"/>
<path d="M150.4 166.102C150.6 166.102 150.8 166.102 151 166.102C151 166.102 151.2 166.302 151.2 165.802C151.2 165.502 151.4 166.202 151.4 166.102C151.6 166.102 151.8 166.102 152 166.002C152.2 166.002 152.3 165.702 152.5 165.602C152.7 165.602 152.9 165.802 153.1 165.402C153.2 165.102 153.4 165.602 153.6 165.402C153.7 165.302 153.9 165.202 154.1 165.402C154.2 165.602 154.4 165.802 154.5 165.602C154.5 165.602 154.5 165.202 154.7 165.202C154.7 165.202 154.9 165.502 154.9 164.802C154.9 164.802 154.9 164.802 154.9 164.902C155 165.302 155.1 165.302 155.1 164.902C155.1 164.602 155.1 164.702 155.2 164.602C155.4 164.602 155.5 164.602 155.7 164.602C155.8 164.602 156 164.902 156.1 164.902C156.2 164.902 156.3 164.602 156.5 164.902C156.7 165.202 156.8 165.202 156.9 165.102C156.9 165.102 157.1 165.402 157.1 164.702C157.4 165.502 157.4 164.402 157.6 164.602C157.8 164.802 158 164.602 158.2 164.602C158.2 164.602 158.3 164.802 158.3 164.302C158.3 164.102 158.3 164.102 158.3 164.302C158.5 164.902 158.6 164.502 158.8 164.602C159 164.702 159.1 164.402 159.3 164.902C159.3 165.102 159.5 165.202 159.5 164.602C159.5 164.302 159.6 164.602 159.7 164.602C159.7 164.602 159.7 164.302 159.8 164.302C159.8 164.302 159.9 164.502 160 164.602C160.2 163.902 160.5 164.802 160.7 164.602C160.9 164.402 161.2 164.402 161.4 164.502C161.5 164.502 161.7 164.702 161.9 165.802C162 166.302 162.1 166.902 162 167.202C162 167.402 162 167.702 162 167.702C162 167.802 161.9 168.002 161.8 168.102C161.7 168.302 161.6 168.902 161.4 168.602C161.4 168.602 161.4 168.802 161.2 168.302C161.1 169.102 160.8 168.602 160.6 168.702C160.4 168.702 160.3 169.402 160.1 169.202C160.1 169.802 159.9 169.702 159.8 169.602C159.3 169.002 159 169.502 158.6 169.402C158.2 169.402 157.8 169.402 157.4 169.402C157.4 169.402 157.4 169.802 157.2 169.402C157.1 169.102 157 169.402 156.9 169.402C156.9 169.402 156.8 169.602 156.7 169.402C156.3 168.802 156.1 169.202 155.8 169.202C155.5 169.202 155.2 169.202 154.9 169.302C154.7 169.402 154.6 169.802 154.4 169.702C154.4 169.702 154.3 170.002 154.1 169.402C154.1 169.202 154.1 169.702 154 169.702C153.9 169.702 153.8 169.702 153.6 169.702C153.4 169.702 153.2 169.702 153.1 169.702C153 169.702 152.9 170.002 152.8 170.102C152.7 170.102 152.6 170.102 152.5 170.102C152.4 170.102 152.2 169.802 152 169.802C151.8 169.802 151.7 170.002 151.6 169.802C151.3 169.302 151.1 169.602 150.8 169.602C150.5 169.602 150.3 169.602 150 169.702C149.9 169.702 149.7 169.302 149.5 169.302C149.5 169.302 149.2 167.902 149.1 167.402V167.202C149.1 166.702 149.2 166.002 149.4 166.002C149.6 166.002 149.9 166.002 150.1 166.002L150.4 166.102Z" fill="black"/>
<path d="M126 160.8C125.4 160.8 124.7 160.8 124.1 160.8C123.9 160.8 123.6 160.5 123.3 161.1C123.2 161.4 123 160.7 122.7 160.7C122.1 160.7 121.5 160.5 120.9 160.5C120.3 160.5 119.7 160.5 119.1 160.4C118.5 160.3 118.1 159.8 117.4 159.8C116.8 159.8 116.6 159.2 116.1 159C115.6 158.8 115 158.5 114.7 157.9C114.5 157.5 114.4 157 114 156.8C113.8 156.6 113.4 156.6 113.2 156.4C113.1 156.2 113.2 155.8 112.5 155.9C112.5 155.9 112.5 155.8 112.5 155.7C112.7 155.3 112.6 155 112.3 155C112 155 111.9 154.8 111.9 154.6C111.7 154.2 111.5 153.8 111.4 153.2C111.4 152.8 111.4 152.3 111.4 151.9C111.4 151.4 111 150.9 111.4 150.4C111.7 149.9 111.8 149.5 111.9 149.1C111.9 148.8 112.3 148.7 111.8 148.3V148.2C112.3 148 112.4 147.7 112.4 147.4C112.4 147.1 112.4 146.7 112.7 146.5C113.2 146.1 113.5 145.5 113.8 145.1C113.8 145 114.1 145 113.8 144.6C113.8 144.5 113.8 144.3 113.9 144.3C114.7 144.3 114.7 143.7 115.2 143.4C115.7 143.1 116.1 142.4 117 142.5C117.4 142.5 117.7 142.5 117.8 141.9C117.8 141.6 118.3 141.8 118.5 141.7C118.7 141.7 118.8 141.3 119 141.3C119.2 141.3 119.3 141.5 119.5 141.6H119.6C120.4 140.8 121.3 141.7 122.1 141.6C122.9 141.5 123.8 141.7 124.6 142C125 142.2 125.4 142.5 125.3 143.7C125.3 144.2 125 144.7 124.7 145C124.5 145.2 124.3 145.4 124.2 145.4C124 145.4 123.8 145.5 123.6 145.5C123.2 145.5 122.7 146 122.4 145.7C122.3 145.6 122.1 145.9 122.1 145.4C121.5 146.1 121.1 145.6 120.5 145.7C120 145.7 119.8 146.5 119.4 146.3C119.4 147 119.4 146.9 119.1 146.8C118.8 146.6 118.5 146.8 118.3 147C118.1 147.3 117.8 147.7 117.5 148.1C116.8 148.8 116.4 149.6 116.1 150.2C116.1 150.3 116.4 150.5 116.1 150.5C115.8 150.5 116 150.7 116 150.8C116 150.9 116.1 151 116 151.1C115.7 151.3 115.7 151.6 115.7 151.9C115.7 152.2 116 152.5 116.1 152.9C116.3 153.7 116.6 154.4 117 154.8C117.3 155.1 117.7 155 117.8 155.3C117.8 155.4 118.2 155.3 117.9 155.8C117.9 156 118.2 155.7 118.3 155.8C118.5 155.8 118.7 156 119 156.2C119.3 156.4 119.7 156.6 120.1 156.7C120.3 156.7 120.7 156.6 120.9 156.7C121.2 156.7 121.4 156.7 121.6 156.9C121.9 157.1 122.2 157.3 122.5 157.4C122.8 157.5 123.2 157.3 123.5 157.6C124.1 158.2 124.7 157.9 125.3 157.9C125.9 157.9 126.6 157.9 127.1 157.6C127.4 157.5 127.9 157.9 128.2 157.8C128.3 157.8 129 159.1 129.1 159.6V159.8C128.9 160.4 128.7 161.2 128.2 161.2C127.5 161.2 126.8 161.5 126 161.5V160.8Z" fill="black"/>
<path d="M164.401 124.898C163.301 124.898 162.301 124.698 161.201 124.698C160.801 124.698 160.401 124.398 160.001 124.898C159.801 125.098 159.501 124.498 159.101 124.398C158.101 124.398 157.101 124.098 156.101 123.998C155.101 123.898 154.101 123.898 153.201 123.698C152.701 123.698 152.201 123.398 151.801 123.298C151.401 123.198 151.001 123.098 150.501 123.098C149.701 123.198 149.201 122.598 148.401 122.598C147.601 122.598 146.801 122.598 146.101 122.098C145.601 121.798 145.101 121.498 144.401 121.498C144.001 121.498 143.601 121.698 143.201 121.498C142.801 121.398 142.501 120.998 142.001 121.498C142.001 121.498 141.801 121.398 141.801 121.298C141.501 120.798 141.001 120.598 140.601 120.698C140.401 120.698 140.201 120.698 140.001 120.698C140.001 120.698 139.901 120.398 139.801 120.198C139.801 120.198 139.801 119.998 139.701 119.998C139.701 119.998 139.901 120.498 139.701 120.198C139.401 119.998 139.401 120.198 139.401 120.298C139.401 120.298 139.101 120.398 139.701 120.698C138.801 121.398 139.701 122.598 139.301 123.498C138.801 124.398 138.701 125.498 138.401 126.498C138.401 126.798 138.101 126.998 138.401 127.398C138.501 127.498 138.401 127.798 138.301 127.898C137.401 128.398 137.501 129.298 137.001 129.898C136.501 130.698 136.301 131.598 135.501 132.098C135.101 132.298 134.801 132.698 135.001 133.398C135.101 133.698 134.701 133.898 134.501 134.198C134.401 134.398 134.501 134.798 134.301 134.998C134.201 135.198 133.901 135.198 133.601 135.398C133.601 135.398 133.501 135.398 133.501 135.598C133.301 136.998 131.801 137.498 131.101 138.598C130.401 139.698 129.401 140.598 128.501 141.398C128.001 141.898 127.301 142.198 126.201 141.698C125.701 141.498 125.301 141.098 125.301 140.598C125.301 140.298 125.301 139.898 125.401 139.698C125.601 139.398 125.801 138.998 126.001 138.698C126.401 137.998 126.501 137.098 127.301 136.698C127.501 136.598 127.501 136.198 128.001 136.298H128.201C128.201 134.998 129.401 134.498 130.001 133.598C130.501 132.898 130.501 131.798 131.201 131.198C130.901 130.398 131.301 129.998 131.701 129.698C133.201 128.498 133.501 126.698 134.101 125.198C134.801 123.598 135.101 121.898 135.301 120.098C135.301 120.098 135.301 120.098 135.301 119.998V119.798V119.398C135.301 119.098 135.301 118.798 135.401 118.498C135.701 117.998 135.501 116.998 135.501 116.198C135.501 115.498 135.501 114.498 135.501 114.098C135.701 113.698 135.801 113.198 135.801 112.698C135.801 112.398 135.801 112.198 135.801 111.898C135.801 111.698 135.901 111.598 135.901 111.398L136.701 112.198L137.601 113.098C138.201 113.698 138.801 114.298 139.501 114.898C139.601 114.998 139.801 115.198 139.901 115.298L140.301 115.598L141.101 116.198C141.401 116.398 141.701 116.598 141.901 116.698L142.301 116.898C142.901 117.198 143.501 117.398 144.201 117.498C145.001 117.598 145.901 117.498 146.701 117.798C147.101 117.898 147.501 117.698 147.801 118.298C147.801 118.498 148.301 118.098 148.601 118.098C149.201 118.098 149.801 118.298 150.501 118.498C151.401 118.698 152.301 118.898 153.201 119.098C153.701 119.098 154.201 119.098 154.701 119.098C155.201 119.098 155.701 119.298 156.201 119.398C156.801 119.598 157.401 119.898 158.101 120.098C158.801 120.298 159.501 120.098 160.101 120.398C161.301 121.098 162.501 120.898 163.801 120.998C165.001 121.098 166.301 121.198 167.501 120.998C168.201 120.998 168.901 121.398 169.501 121.398C169.801 121.398 170.301 122.898 170.201 123.398C170.201 123.398 170.201 123.598 170.101 123.598C169.401 124.098 168.801 124.798 168.001 124.798C166.801 124.798 165.601 124.798 164.401 124.798V124.898Z" fill="black"/>
<path d="M194 185.5C193.8 184.8 193.8 184.1 193.5 183.4C193.5 183.1 193.6 182.8 193 182.7C192.7 182.7 193.3 182.2 193.2 182C193 181.4 192.9 180.7 192.7 180.1C192.5 179.5 192.1 178.9 191.8 178.3C191.6 177.7 191.6 177 191.2 176.5C190.8 176.1 191.1 175.5 190.8 175C190.5 174.5 190.3 174 190.3 173.4C190.3 173 190.4 172.5 190.2 172.2C190.1 172 189.7 171.9 189.6 171.6C189.6 171.4 189.6 171 189 171C189 171 189 170.9 189 170.8C189.3 170.4 189.1 170.1 188.8 170C188.5 170 188.4 169.7 188.3 169.5C188.1 169 187.8 168.5 187.7 168C187.6 167.6 187.7 167.1 187.5 166.7C187.4 166.3 187 166 187.1 165.5C187.2 165 187.1 164.7 186.9 164.3C186.9 164.1 186.9 163.7 186.3 163.9C186.3 163.9 186.3 163.9 186.3 163.8C186.8 162.9 185.5 162.8 185.4 162.1C185.3 161.4 184.9 160.9 184.5 160.3C184.5 160.1 184.5 159.9 184 160C183.8 160 183.7 159.9 183.8 159.7C184.1 159 183.5 158.7 183.4 158.2C183.2 157.6 182.7 157.3 182.8 156.5C182.8 156.2 182.8 155.8 182.1 155.9C181.8 155.9 181.9 155.5 181.7 155.4C181.6 155.3 181.2 155.3 181.1 155.1C181.1 155 181.1 154.7 181.1 154.5V154.4C180.1 154 180.4 152.9 179.8 152.3C179.2 151.7 178.8 150.9 178.3 150.2C178.1 149.8 177.9 149.3 178.7 148.3C179 147.9 179.5 147.5 179.9 147.5C180.2 147.5 180.5 147.5 180.6 147.5C180.9 147.7 181.1 147.8 181.3 148C181.8 148.3 182.6 148.5 182.6 149.1C182.6 149.3 183 149.3 182.6 149.7V149.8C183.7 150 183.7 151 184.2 151.6C184.6 152.1 185.5 152.4 185.6 153.1C186.3 153.1 186.5 153.5 186.5 154C186.6 155.5 187.7 156.4 188.2 157.7C188.8 158.9 189.5 160.1 190 161.4C190 161.6 190.5 161.6 190.4 162C190.3 162.3 190.6 162.6 190.7 162.8C190.8 163 191.1 163.3 191 163.5C190.8 164.7 191.6 165.6 192 166.6C192.3 167.6 192.7 168.6 193.2 169.6C193.5 170.2 194.1 170.7 194.2 171.3C194.2 171.6 194.7 171.7 194.2 172.2C194.1 172.3 194.6 172.4 194.7 172.6C194.9 173 195 173.4 195.1 173.9C195.3 174.5 195.4 175.1 195.7 175.7C195.8 176.1 196.2 176.3 196.4 176.7C196.6 177.1 196.7 177.5 196.7 177.9C196.7 178.4 196.7 178.9 196.7 179.4C196.7 179.9 197.2 180.4 197 180.9C196.7 181.9 197.2 182.8 197.3 183.7C197.4 184.6 197.6 185.5 197.9 186.4C198.1 186.9 197.6 187.5 197.7 187.9C197.7 188.1 196.3 188.7 195.8 188.7H195.6C195.1 188.3 194.3 188 194.2 187.4C194.2 186.6 193.9 185.8 193.8 185L194 185.5Z" fill="black"/>
<path d="M89.4006 184.499C89.6006 183.799 89.9006 183.099 90.1006 182.399C90.1006 182.099 90.5006 181.999 90.1006 181.499C89.9006 181.299 90.6006 181.299 90.7006 180.999C90.9006 180.299 91.3006 179.799 91.5006 179.099C91.7006 178.499 91.8006 177.799 92.1006 177.199C92.4006 176.599 93.0006 176.199 93.0006 175.399C93.0006 174.799 93.7006 174.599 93.9006 174.099C94.1006 173.599 94.3006 172.999 94.8006 172.699C95.2006 172.499 95.6006 172.299 95.7006 171.899C95.7006 171.699 95.7006 171.299 95.8006 171.099C96.0006 170.899 96.3006 170.799 96.0006 170.299C96.0006 170.299 96.1006 170.299 96.2006 170.299C96.7006 170.299 96.9006 169.999 96.8006 169.699C96.8006 169.399 96.8006 169.199 97.0006 169.099C97.3006 168.599 97.6006 168.199 98.0006 167.799C98.3006 167.499 98.7006 167.299 99.0006 166.999C99.3006 166.699 99.4006 166.199 99.9006 166.099C100.401 165.999 100.601 165.699 100.801 165.399C100.901 165.199 101.301 165.199 100.901 164.699V164.599C101.901 164.599 101.501 163.499 102.001 163.099C102.601 162.699 102.901 162.099 103.301 161.599C103.401 161.499 103.701 161.399 103.401 160.999C103.401 160.899 103.401 160.699 103.601 160.699C104.401 160.699 104.401 160.099 104.801 159.799C105.201 159.399 105.401 158.799 106.101 158.699C106.401 158.699 106.701 158.499 106.401 157.899C106.301 157.599 106.701 157.599 106.701 157.399C106.701 157.199 106.701 156.899 106.701 156.799C106.701 156.699 107.101 156.799 107.201 156.699C107.201 156.699 107.201 156.699 107.201 156.599C107.201 155.599 108.401 155.499 108.701 154.699C109.001 153.899 109.601 153.299 110.101 152.699L112.701 155.999C112.301 155.999 111.801 155.999 111.201 155.099C110.901 154.699 110.701 154.099 110.801 153.799C110.801 153.499 110.901 153.299 111.101 153.099C111.301 152.999 111.401 152.799 111.601 152.699L114.301 150.199L113.201 154.699C113.201 154.699 113.201 154.799 113.201 154.899C113.001 155.499 113.201 156.199 112.601 156.499C112.401 156.499 112.601 156.899 112.101 156.799H112.001C112.201 157.899 111.301 158.199 110.901 158.799C110.501 159.299 110.701 160.199 110.001 160.599C110.301 161.299 110.001 161.499 109.501 161.699C108.201 162.299 107.701 163.499 106.801 164.499C105.901 165.399 105.201 166.499 104.301 167.399C104.201 167.599 104.301 167.899 103.901 167.999C103.501 167.999 103.501 168.399 103.301 168.599C103.101 168.799 103.101 169.099 102.801 169.199C101.701 169.599 101.401 170.599 100.701 171.299C100.001 171.999 99.4006 172.799 99.0006 173.699C98.7006 174.199 98.7006 174.899 98.3006 175.299C98.1006 175.499 98.3006 175.899 97.6006 175.799C97.4006 175.799 97.6006 176.199 97.6006 176.399C97.4006 176.799 97.2006 177.099 97.0006 177.399C96.7006 177.899 96.4006 178.299 96.2006 178.899C96.1006 179.199 96.2006 179.599 96.0006 179.999C95.9006 180.299 95.7006 180.699 95.5006 180.899C95.2006 181.299 94.8006 181.599 94.6006 181.899C94.3006 182.299 94.4006 182.799 94.0006 183.099C93.2006 183.699 93.1006 184.499 92.8006 185.299C92.5006 186.099 92.2006 186.799 92.1006 187.599C92.1006 188.099 91.5006 188.299 91.4006 188.799C91.4006 188.999 89.8006 188.999 89.4006 188.799C89.4006 188.799 89.2006 188.799 89.2006 188.699C88.9006 188.099 88.2006 187.499 88.4006 186.999C88.7006 186.199 88.9006 185.399 89.1006 184.599L89.4006 184.499Z" fill="black"/>
<path d="M117.301 197.3C116.701 197.3 116.201 197.3 115.601 197.3C115.401 197.3 115.201 197 114.901 197.6C114.801 197.9 114.601 197.2 114.401 197.2C113.901 197.2 113.401 197.2 112.801 197.2C112.301 197.2 111.801 197.4 111.201 197.4C110.701 197.4 110.201 197.1 109.701 197.4C109.201 197.6 108.901 197.1 108.501 197.2C108.101 197.2 107.601 197.3 107.201 197C106.901 196.8 106.601 196.5 106.301 196.6C106.101 196.6 105.901 196.9 105.701 196.9C105.501 196.9 105.301 196.6 105.101 197.1C105.101 197.1 105.101 197.1 105.001 196.9C104.901 196.5 104.601 196.4 104.401 196.7C104.201 196.9 104.001 196.9 103.901 196.9C103.501 196.9 103.001 196.9 102.601 196.7C102.301 196.6 102.001 196.3 101.701 196.2C101.401 196.1 101.001 196.2 100.701 195.9C100.501 195.5 100.201 195.5 99.9007 195.4C99.7007 195.4 99.6007 195 99.3007 195.6C99.3007 195.6 99.3007 195.6 99.2007 195.6C98.9007 194.7 98.2007 195.6 97.7007 195.3C97.2007 195 96.7007 195 96.2007 194.9C96.1007 194.9 96.0007 194.7 95.7007 195.1C95.7007 195.2 95.5007 195.2 95.4007 195.1C95.2007 194.4 94.7007 194.7 94.3007 194.4C93.9007 194.2 93.4007 194.3 93.1007 193.7C93.0007 193.4 92.8007 193.3 92.4007 193.7C92.2007 193.9 92.1007 193.6 91.9007 193.6C91.8007 193.6 91.5007 193.8 91.4007 193.8C91.3007 193.8 91.3007 193.5 91.2007 193.4C91.2007 193.4 91.2007 193.4 91.1007 193.4C90.2007 193.8 89.9007 192.8 89.2007 192.7C88.5007 192.7 87.9007 192.3 87.3007 192C87.0007 191.8 86.7007 191.5 86.9007 190.3C86.9007 189.8 87.2007 189.3 87.5007 189C87.7007 188.8 87.9007 188.7 88.0007 188.6C88.2007 188.6 88.5007 188.6 88.7007 188.6C89.2007 188.6 89.7007 188.2 90.0007 188.6C90.0007 188.7 90.3007 188.5 90.3007 189V189.1C91.1007 188.5 91.5007 189.2 92.1007 189.4C92.6007 189.5 93.2007 189.1 93.6007 189.4C94.0007 188.9 94.3007 189.1 94.5007 189.4C95.2007 190.3 96.3007 190.2 97.2007 190.5C98.1007 190.9 99.1007 191 100.101 191.3C100.301 191.3 100.501 191 100.601 191.3C100.701 191.6 101.001 191.4 101.201 191.5C101.401 191.5 101.601 191.5 101.801 191.7C102.401 192.5 103.301 192.3 104.001 192.5C104.701 192.7 105.501 192.9 106.301 192.9C106.801 192.9 107.301 192.6 107.701 192.8C107.901 192.8 108.101 192.6 108.301 193.2C108.301 193.4 108.601 192.9 108.701 192.9C109.001 192.9 109.301 192.9 109.701 192.9C110.101 192.9 110.601 193 111.001 193C111.301 193 111.601 192.8 111.801 192.7C112.101 192.7 112.401 192.7 112.701 192.7C113.101 192.8 113.401 193 113.801 193.1C114.201 193.1 114.601 192.9 114.901 193.2C115.501 193.7 116.201 193.5 116.901 193.6C117.601 193.6 118.201 193.7 118.901 193.6C119.301 193.6 119.601 194 120.001 194C120.201 194 120.401 195.5 120.401 196V196.2C120.001 196.7 119.701 197.4 119.301 197.4C118.701 197.4 118.001 197.4 117.401 197.4L117.301 197.3Z" fill="black"/>
<path d="M178.701 193.899C178.401 193.899 178.101 193.899 177.801 193.899C177.701 193.899 177.601 193.699 177.501 194.199C177.501 194.499 177.301 193.799 177.201 193.899C176.901 193.899 176.701 193.899 176.401 193.899C176.101 193.899 175.901 194.199 175.601 194.199C175.301 194.199 175.101 193.899 174.801 194.199C174.601 194.499 174.401 193.899 174.201 193.999C174.001 194.099 173.701 194.199 173.501 193.999C173.401 193.799 173.201 193.599 173.101 193.699C173.001 193.699 172.901 194.099 172.801 193.999C172.801 193.999 172.601 193.699 172.501 194.299C172.501 194.299 172.501 194.299 172.501 194.099C172.501 193.699 172.301 193.699 172.201 193.999C172.101 194.299 172.001 194.199 171.901 194.199C171.701 194.199 171.501 194.199 171.201 194.199C171.001 194.199 170.901 193.899 170.801 193.799C170.601 193.799 170.401 193.999 170.301 193.599C170.201 193.299 170.001 193.299 169.901 193.199C169.901 193.199 169.801 192.899 169.601 193.499C169.501 192.599 169.101 193.699 168.901 193.499C168.701 193.199 168.401 193.399 168.101 193.299C168.101 193.299 168.001 193.099 167.801 193.499C167.801 193.699 167.701 193.699 167.701 193.499C167.701 192.799 167.401 193.199 167.201 192.999C167.001 192.799 166.701 192.999 166.601 192.599C166.601 192.399 166.401 192.199 166.201 192.799C166.101 193.099 166.001 192.799 165.901 192.799C165.901 192.799 165.701 193.099 165.601 193.099C165.601 193.099 165.601 192.899 165.501 192.699C165.101 193.299 164.901 192.399 164.501 192.499C164.101 192.599 163.801 192.499 163.501 192.299C163.301 192.299 163.201 191.999 163.301 190.799C163.301 190.299 163.401 189.699 163.601 189.399C163.701 189.199 163.801 188.999 163.901 188.899C164.001 188.899 164.101 188.699 164.301 188.599C164.501 188.399 164.801 187.999 165.001 188.299C165.001 188.299 165.201 188.099 165.101 188.599C165.501 187.899 165.701 188.399 166.001 188.399C166.301 188.399 166.601 187.799 166.801 188.099C167.101 187.499 167.201 187.599 167.301 187.899C167.701 188.699 168.201 188.299 168.701 188.499C169.201 188.699 169.701 188.699 170.201 188.799C170.201 188.799 170.401 188.499 170.501 188.799C170.501 189.099 170.701 188.799 170.801 188.899C170.801 188.899 171.001 188.799 171.101 188.899C171.401 189.599 171.801 189.299 172.201 189.399C172.601 189.499 173.001 189.599 173.401 189.499C173.601 189.499 173.901 189.099 174.101 189.299C174.101 189.299 174.301 188.999 174.401 189.599C174.401 189.799 174.501 189.299 174.601 189.299C174.801 189.299 174.901 189.299 175.101 189.299C175.301 189.299 175.501 189.299 175.801 189.299C175.901 189.299 176.101 188.999 176.201 188.999C176.301 188.999 176.501 188.999 176.601 188.999C176.801 188.999 176.901 189.299 177.101 189.399C177.301 189.399 177.501 189.199 177.601 189.399C177.901 189.899 178.301 189.599 178.601 189.699C178.901 189.699 179.301 189.699 179.601 189.699C179.801 189.699 180.001 190.099 180.201 190.099C180.201 190.099 180.501 191.599 180.501 192.099V192.299C180.301 192.799 180.201 193.499 180.001 193.499C179.701 193.499 179.301 193.499 179.001 193.499L178.701 193.899Z" fill="black"/>
<path d="M181.099 175.102C181.099 175.402 181.099 175.702 181.099 176.002C181.099 176.102 180.899 176.202 181.399 176.302C181.699 176.302 180.999 176.502 181.099 176.602C181.099 176.902 181.099 177.202 181.099 177.402C181.099 177.702 181.399 178.002 181.399 178.202C181.399 178.502 181.099 178.702 181.399 179.002C181.699 179.202 181.199 179.402 181.299 179.602C181.399 179.802 181.499 180.102 181.299 180.302C181.099 180.502 180.899 180.602 180.999 180.802C180.999 180.902 181.399 181.002 181.299 181.102C181.299 181.202 180.999 181.302 181.599 181.402C181.599 181.402 181.599 181.402 181.399 181.402C180.999 181.402 180.999 181.602 181.299 181.702C181.599 181.802 181.499 181.902 181.499 182.002C181.499 182.202 181.499 182.502 181.499 182.702C181.499 182.902 181.199 183.002 181.099 183.202C181.099 183.402 181.299 183.602 180.899 183.702C180.599 183.802 180.599 184.002 180.499 184.102C180.499 184.102 180.199 184.202 180.799 184.402C179.899 184.502 180.999 185.002 180.699 185.202C180.399 185.402 180.499 185.702 180.499 186.002C180.499 186.002 180.299 186.102 180.699 186.302C180.899 186.302 180.899 186.402 180.699 186.502C179.999 186.502 180.399 186.902 180.199 187.002C179.999 187.202 180.199 187.502 179.699 187.602C179.499 187.602 179.299 187.702 179.899 188.002C180.099 188.102 179.899 188.202 179.899 188.302C179.899 188.302 180.199 188.502 180.199 188.602C180.199 188.602 179.899 188.602 179.799 188.602C180.299 189.102 179.399 189.202 179.399 189.602C179.399 190.002 179.299 190.302 179.099 190.602C178.999 190.802 178.699 190.902 177.599 190.602C177.099 190.502 176.599 190.302 176.299 190.102C176.099 190.002 175.899 189.802 175.899 189.702C175.899 189.602 175.799 189.402 175.699 189.302C175.599 189.002 175.199 188.702 175.499 188.602C175.599 188.602 175.299 188.402 175.799 188.602C175.099 188.102 175.799 188.002 175.799 187.702C175.799 187.402 175.299 187.002 175.599 186.902C174.999 186.602 175.199 186.502 175.399 186.402C176.199 186.102 175.899 185.502 176.099 185.102C176.299 184.602 176.299 184.102 176.399 183.602C176.399 183.602 176.099 183.402 176.399 183.302C176.699 183.302 176.399 183.102 176.499 183.002C176.499 183.002 176.499 182.802 176.499 182.702C177.199 182.402 176.899 182.002 176.999 181.602C177.099 181.202 177.199 180.802 177.099 180.402C177.099 180.202 176.699 179.902 176.899 179.702C176.899 179.702 176.599 179.502 177.199 179.402C177.399 179.402 176.899 179.302 176.899 179.202C176.899 179.002 176.899 178.902 176.899 178.702C176.899 178.502 176.899 178.302 176.899 178.002C176.899 177.902 176.599 177.702 176.599 177.602C176.599 177.502 176.599 177.302 176.599 177.202C176.599 177.002 176.899 176.802 176.999 176.702C176.999 176.502 176.799 176.302 176.999 176.102C177.499 175.802 177.199 175.402 177.299 175.102C177.299 174.802 177.299 174.402 177.299 174.102C177.299 173.902 177.699 173.702 177.699 173.502C177.699 173.502 179.199 173.202 179.699 173.102H179.899C180.399 173.302 181.099 173.402 181.099 173.602C181.099 173.902 181.099 174.302 181.099 174.602V175.102Z" fill="black"/>
</svg>
