<svg width="300" height="300" viewBox="0 0 300 300" fill="none" xmlns="http://www.w3.org/2000/svg">
<path d="M172.8 138.2C172.1 136.5 171.5 134.8 170.8 133.1C170.5 132.5 170.6 131.8 169.8 131.3C169.4 131.1 169.8 130.3 169.6 129.7C169 128.2 168.4 126.7 167.7 125.2C166.9 123.9 166 122.6 165.1 121.5C164.7 120.9 164.2 120.3 163.8 119.7C163.6 119.4 163.3 119.1 163 118.8C162.7 118.5 162.4 118.3 162.1 118.1C161 117.4 160.6 116.4 159.6 115.9C158.6 115.4 157.6 115.2 156.5 114.7C155.7 114.4 154.8 114.1 153.9 114.1C153.3 114.1 152.8 114.4 152.1 114.4C151.5 114.4 150.8 114.1 150.3 114.7C150.3 114.7 150 114.7 149.9 114.6C149.3 114.2 148.5 114.2 147.9 114.6C147.4 114.9 146.9 114.9 146.4 114.9C145.1 114.9 143.7 115.1 142.4 115.1C141.4 115.1 140.4 115.1 139.4 115.1C138.3 115.1 137.3 115.6 136.3 115.4C135.3 115.2 134.4 115.4 133.4 115.6C132.9 115.7 132.2 115.6 131.9 116.3C131.9 116.3 131.7 116.4 131.6 116.3C129.9 115.8 128.7 117.2 127.1 117.4C125.5 117.6 123.9 118.2 122.5 118.8C122.1 119 121.6 119 121.5 119.5C121.5 119.7 121.1 119.9 120.9 119.9C119.6 119.9 118.9 120.8 118.1 121.4C117.9 121.6 117.7 121.8 117.5 122C117.5 122 117.5 122.2 117.4 122.2C117.4 122.2 117.3 122.3 117.2 122.5C117.1 122.8 116.9 123 116.8 123.3C116.7 123.6 116.5 123.9 116.2 124.1C115.8 124.6 115.5 125.3 115.9 126.2C116.1 126.6 115.6 127.2 115.6 127.7C115.6 128.1 115.7 128.6 115.6 129C115.6 129.3 115.2 129.6 115 130C115 130 115 130.2 115 130.3C115.3 132.4 114 134.3 113.9 136.4C113.8 138.5 113.4 140.6 113.1 142.7C112.9 143.9 112.7 145 111.5 145.7C111 146 110.4 146 110.1 145.5C109.9 145.1 109.7 144.7 109.6 144.2C109.6 143.5 109.5 142.8 109.5 142.1C109.5 140.7 109.1 139.3 109.5 137.9C109.6 137.5 109.5 136.9 110 136.6C110 136.6 110.1 136.4 110.1 136.3C109.6 134.3 110.4 132.4 110.7 130.5C111 128.9 110.7 127.1 111.4 125.5C111 124.4 111.4 123.3 112 122.4C112.5 121.6 112.9 120.8 113.5 119.9L114 119.2C114.2 118.9 114.3 118.8 114.5 118.6C114.8 118.3 115.2 117.9 115.6 117.6C117.1 116.3 118.7 115.4 120.3 114.7C122 114.1 123.6 113.6 125.3 113.1C126.9 112.6 128.6 112.2 130.2 111.9C130.8 111.8 131.2 111.3 131.9 111.5C132.6 111.6 133.3 111.3 134.1 111.2C134.8 111.1 135.4 110.8 136.1 110.9C138.8 111.2 141.4 110.5 144 110.4C146.6 110.4 149.3 110.3 151.9 110.2C153.5 110.2 155.2 109.9 156.9 110.2C157.6 110.4 158.5 110.2 159.1 111.1C159.2 111.3 160.1 111.1 160.6 111.4C161.8 111.9 162.9 112.7 163.8 113.5C164.4 114.1 165 114.6 165.5 115.2L166.3 116L167.1 116.9C167.8 117.6 168.6 118.3 169.2 119.1C169.5 119.5 169.8 120 170.1 120.4C170.4 120.8 170.6 121.3 170.8 121.8C171.4 123 171.7 124.2 172.1 125.4C172.5 126.6 173.3 127.8 173.5 129C173.8 131.3 174.8 133.3 175.5 135.3C176.2 137.3 177.1 139.3 178.3 141C178.6 141.5 178.9 142 179.1 142.5C179.2 142.8 179.3 143 179.5 143.3C179.6 143.5 179.8 143.8 180 144C180.3 144.4 179.7 146 179.2 146.1C179.1 146.1 179 146.1 178.9 146.1C178.3 145.8 177.7 145.5 177.1 145.2C176.5 144.8 176 144.4 175.6 143.8C174.5 141.9 173.5 140 172.6 138.1L172.8 138.2Z" fill="black"/>
<path d="M143.699 150C143.699 149.8 143.699 149.6 143.699 149.5C143.699 149.5 143.899 149.4 143.399 149.3C143.099 149.3 143.799 149.2 143.699 149.1C143.699 148.9 143.699 148.8 143.699 148.6C143.699 148.4 143.399 148.3 143.399 148.1C143.399 147.9 143.699 147.8 143.399 147.6C143.099 147.4 143.599 147.4 143.499 147.2C143.399 147.1 143.299 146.9 143.499 146.8C143.699 146.8 143.899 146.6 143.799 146.5C143.799 146.5 143.399 146.3 143.499 146.3C143.499 146.3 143.799 146.3 143.199 146.1C143.199 146.1 143.199 146.1 143.399 146.1C143.799 146.1 143.799 146.1 143.499 145.9C143.199 145.9 143.299 145.8 143.299 145.7C143.299 145.6 143.299 145.4 143.299 145.3C143.299 145.3 143.599 145.1 143.699 145.1C143.699 145.1 143.499 144.8 143.799 144.8C144.099 144.8 144.099 144.7 144.099 144.6C144.099 144.6 144.399 144.6 143.799 144.4C144.599 144.4 143.599 144 143.799 143.9C143.999 143.8 143.899 143.6 143.999 143.4C143.999 143.4 144.199 143.4 143.799 143.2C143.599 143.1 143.599 143.2 143.799 143.2C144.399 143.2 144.099 143 144.199 142.9C144.399 142.8 144.199 142.6 144.599 142.6C144.799 142.6 144.899 142.6 144.399 142.3C144.199 142.2 144.399 142.3 144.399 142.1L144.099 141.9C144.099 141.9 144.299 141.9 144.499 141.9C143.899 141.5 144.899 141.6 144.799 141.3C144.799 141 144.799 140.9 144.999 140.7C144.999 140.7 145.299 140.6 146.399 140.9C146.899 141.1 147.399 141.3 147.699 141.5C147.899 141.6 148.099 141.7 148.099 141.8C148.099 141.8 148.299 142 148.299 142.1C148.399 142.3 148.899 142.6 148.599 142.6C148.599 142.6 148.799 142.8 148.299 142.6C148.999 143 148.399 143 148.399 143.2C148.399 143.3 148.999 143.7 148.699 143.7C149.299 144 149.099 144 148.899 144C148.199 144 148.499 144.4 148.399 144.7C148.199 144.9 148.299 145.2 148.199 145.5C148.199 145.5 148.499 145.7 148.199 145.7C147.899 145.7 148.199 145.8 148.199 145.9C148.199 145.9 148.299 146 148.199 146.1C147.499 146.1 147.899 146.5 147.799 146.7C147.799 146.9 147.599 147.1 147.799 147.3C147.799 147.4 148.199 147.6 148.099 147.7C148.099 147.7 148.399 147.8 147.799 147.8C147.599 147.8 148.099 147.8 148.099 147.9C148.099 147.9 148.099 148.1 148.099 148.2C148.099 148.3 148.099 148.4 148.099 148.6L148.399 148.8V149C148.399 149 148.099 149.2 147.999 149.3C147.999 149.4 148.199 149.5 147.999 149.6C147.499 149.8 147.699 150 147.699 150.2C147.699 150.4 147.699 150.6 147.699 150.7C147.699 150.7 147.299 150.9 147.299 151C147.299 151 145.799 151.2 145.299 151.3H145.099C144.599 151.3 143.899 151.2 143.899 151C143.899 150.8 143.899 150.6 143.899 150.4L143.699 150Z" fill="black"/>
<path d="M163.1 149.601C163.1 149.401 163.1 149.201 163.1 149.101C163.1 149.101 163.3 149.001 162.8 148.901C162.5 148.901 163.2 148.801 163.1 148.701C163.1 148.501 163.1 148.401 163.1 148.201C163.1 148.001 162.8 147.901 162.8 147.701C162.8 147.501 163.1 147.401 162.8 147.201C162.5 147.001 163 147.001 162.9 146.801C162.8 146.701 162.7 146.501 162.9 146.401C163.1 146.401 163.3 146.201 163.2 146.101C163.2 146.101 162.8 145.901 162.9 145.901C162.9 145.901 163.2 145.901 162.6 145.701C162.6 145.701 162.6 145.701 162.8 145.701C163.2 145.701 163.2 145.701 162.9 145.501C162.6 145.501 162.7 145.401 162.7 145.301C162.7 145.201 162.7 145.001 162.7 144.901C162.7 144.901 163 144.701 163.1 144.701C163.1 144.701 162.9 144.401 163.2 144.401C163.5 144.401 163.5 144.301 163.5 144.201C163.5 144.201 163.8 144.201 163.2 144.001C164 144.001 163 143.601 163.2 143.501C163.4 143.401 163.3 143.201 163.4 143.001C163.4 143.001 163.6 143.001 163.2 142.801C163 142.701 163 142.801 163.2 142.801C163.8 142.801 163.5 142.601 163.6 142.501C163.8 142.401 163.6 142.201 164 142.201C164.2 142.201 164.3 142.201 163.8 141.901C163.6 141.801 163.8 141.901 163.8 141.701L163.5 141.501C163.5 141.501 163.7 141.501 163.9 141.501C163.3 141.101 164.3 141.201 164.2 140.901C164.2 140.601 164.2 140.501 164.4 140.301C164.4 140.301 164.7 140.201 165.8 140.501C166.3 140.701 166.8 140.901 167.1 141.101C167.3 141.201 167.5 141.301 167.5 141.401C167.5 141.401 167.7 141.601 167.7 141.701C167.8 141.901 168.3 142.201 168 142.201C168 142.201 168.2 142.401 167.7 142.201C168.4 142.601 167.8 142.601 167.8 142.801C167.8 142.901 168.4 143.301 168.1 143.301C168.7 143.601 168.5 143.601 168.3 143.601C167.6 143.601 167.9 144.001 167.8 144.301C167.6 144.501 167.7 144.801 167.6 145.101C167.6 145.101 167.9 145.301 167.6 145.301C167.3 145.301 167.6 145.401 167.6 145.501C167.6 145.501 167.7 145.601 167.6 145.701C166.9 145.701 167.3 146.101 167.2 146.301C167.2 146.501 167 146.701 167.2 146.901C167.2 147.001 167.6 147.201 167.5 147.301C167.5 147.301 167.8 147.401 167.2 147.401C167 147.401 167.5 147.401 167.5 147.501C167.5 147.501 167.5 147.701 167.5 147.801C167.5 147.901 167.5 148.001 167.5 148.201L167.8 148.401V148.601C167.8 148.601 167.5 148.801 167.4 148.901C167.4 149.001 167.6 149.101 167.4 149.201C166.9 149.401 167.1 149.601 167.1 149.801C167.1 150.001 167.1 150.201 167.1 150.301C167.1 150.301 166.7 150.501 166.7 150.601C166.7 150.601 165.2 150.801 164.7 150.901H164.5C164 150.901 163.3 150.801 163.3 150.601C163.3 150.401 163.3 150.201 163.3 150.001L163.1 149.601Z" fill="black"/>
<path d="M178.7 156.599C178 158.799 177.1 160.799 176.5 162.799C176.3 163.499 175.8 164.199 176.1 165.099C176.2 165.499 175.5 166.099 175.4 166.699C175.4 167.199 175.3 167.599 175.3 168.099V169.499C175.3 170.499 175.3 171.499 175.3 172.499C175.3 174.499 175.7 176.399 175.7 178.499C175.7 180.499 175.2 182.599 175.1 184.699C175.1 184.899 175.1 185.399 174.9 185.699C174.9 186.099 174.7 186.399 174.6 186.799C174.4 187.499 174.2 188.199 173.9 188.799C173.2 188.799 172.5 188.799 171.8 188.799H170.8C170.5 188.799 170 188.799 169.9 188.799C168.2 188.899 166.5 188.999 164.9 188.799C163.7 188.599 162.6 188.399 161.4 188.499C160.7 188.499 160 188.899 159.2 188.799C158.5 188.799 157.6 188.499 157 189.099C157 189.099 156.6 189.099 156.4 188.899C155.6 188.499 154.6 188.499 154 188.699C153.3 188.899 152.8 188.899 152.2 188.899C150.5 188.899 148.9 188.899 147.2 188.599C146 188.499 144.7 188.199 143.5 187.999C142.2 187.899 140.8 187.999 139.6 187.699C139.3 187.699 139 187.499 138.7 187.499H138.2C138 187.399 137.7 187.299 137.5 187.299C136.5 187.099 135.6 186.599 135 185.899C134.6 185.499 134.4 184.899 134.3 184.299C134.2 183.799 134.1 183.199 133.7 182.699C133.7 182.699 133.7 182.399 133.7 182.199C134.6 180.299 133.5 178.399 133.7 176.499C134 174.499 133.9 172.499 133.9 170.399C133.9 170.099 133.9 169.899 133.9 169.599C133.9 169.499 133.9 169.299 133.9 169.199C133.9 169.199 133.9 169.199 133.8 169.199C133.6 169.199 133.6 169.199 133.8 169.199C134 169.199 134 168.999 134.1 168.899C134.1 168.899 134 168.899 133.9 168.899H133.7C133.4 168.899 133.1 168.799 132.8 168.699C131.1 168.299 129.3 168.299 127.6 167.499C126.9 167.199 125.9 166.799 124.9 167.199C124.4 167.399 123.6 166.899 123 166.799C122.5 166.799 121.9 166.799 121.3 166.799C120.8 166.699 120.4 166.299 119.9 165.999C119.8 165.999 119.6 165.799 119.4 165.799C118.6 165.599 117.7 165.199 117 164.599C116.3 163.999 115.8 163.299 115.4 162.599C114.6 161.199 114.3 159.799 113.7 158.599C112.5 156.099 111.8 153.499 111.3 150.799C111 149.299 111 147.699 112 146.599C112.5 146.099 113 145.999 113.4 146.599C113.7 146.999 114 147.499 114.1 147.999C114.3 148.799 114.6 149.499 114.8 150.299C115.3 151.799 116.2 153.199 116.5 154.799C116.5 155.299 117.1 155.799 116.7 156.299C116.7 156.299 116.7 156.599 116.7 156.699C118.2 158.499 118.6 160.699 120 161.599C120.6 161.999 121.3 162.099 122.2 162.199C123.1 162.199 124.1 162.399 125 162.799C126.2 162.399 127.4 162.799 128.4 163.199C129.7 163.699 131.1 163.999 132.5 164.299L133.5 164.499L134.7 164.699L138.6 165.199V168.099V169.599V170.399C138.4 174.399 138.4 178.299 138.3 182.299C138.3 182.599 138.3 182.999 138.4 183.199C138.4 183.199 138.4 183.199 138.4 183.399C138.3 183.499 138.4 183.599 138.4 183.699C138.4 183.699 138.6 183.699 138.7 183.699H139H139.6C140 183.699 140.4 183.699 140.8 183.899C143.8 184.799 147 184.599 150.1 184.799C153.2 184.999 156.3 185.199 159.4 185.099C161.3 185.099 163.2 184.699 165.1 184.899C165.9 184.899 166.8 184.599 167.6 185.199C167.8 185.399 168.6 184.899 169.1 184.899H170.1H170.7H171V184.699C171 184.699 171 184.699 171 184.599V183.999C171.3 183.199 171.4 182.399 171.4 181.499C171.4 180.499 171.2 179.399 171.2 178.399C171.2 177.299 171.2 176.199 171.2 174.999C171.2 173.499 171.4 172.099 171.5 170.599C171.5 168.999 171.5 167.099 172.1 165.599C173.2 162.799 174.2 160.199 175.1 157.799C176 155.399 176.7 152.999 176.9 150.399C176.9 149.699 177.1 148.999 177.3 148.299C177.5 147.599 177.6 146.899 177.6 146.199C177.6 145.499 179.1 144.599 179.6 144.899C179.6 144.899 179.8 145.099 179.8 145.199C180 145.899 180.3 146.699 180.5 147.399C180.7 148.199 180.8 148.999 180.7 149.799C180.4 152.299 179.9 154.899 179.1 157.399L178.7 156.599Z" fill="black"/>
<path d="M158.9 155.898C158.9 155.898 158.7 155.898 158.6 156.098C158.6 156.098 158.4 155.898 158.6 156.398C158.7 156.598 158.3 156.098 158.3 156.198C158.3 156.298 158.1 156.198 158.1 156.398C158.1 156.498 158.1 156.698 158.1 156.898C158.1 156.998 157.8 156.898 157.9 157.098C157.9 157.398 157.6 157.098 157.6 157.098C157.6 157.298 157.6 157.398 157.4 157.198C157.3 157.098 157.1 156.898 157.1 157.098C157.1 157.098 157.3 157.498 157.2 157.498C157.2 157.498 157 157.298 157.3 157.798C157.3 157.798 157.3 157.798 157.2 157.698C156.9 157.398 156.9 157.398 157 157.698C157.1 157.898 157 157.898 157 157.998C157 157.998 156.9 158.098 156.8 158.098C156.8 158.098 156.5 157.898 156.4 157.898C156.4 157.898 156.4 158.198 156.2 157.898C156 157.698 155.9 157.698 155.9 157.798C155.9 157.798 155.7 157.598 156 158.098C155.4 157.498 156 158.398 155.8 158.298C155.6 158.198 155.6 158.298 155.5 158.398C155.5 158.398 155.4 158.298 155.5 158.698C155.5 158.798 155.5 158.898 155.5 158.698C155.1 158.198 155.2 158.598 155.1 158.498C155 158.498 155.1 158.698 154.7 158.398C154.6 158.298 154.4 158.198 154.7 158.698C154.8 158.898 154.7 158.698 154.7 158.798L154.8 159.098C154.8 159.098 154.6 158.898 154.5 158.898C154.8 159.498 154.2 158.898 154.2 159.098C153.9 158.698 153.7 158.298 153.4 157.998C153.4 157.998 153.3 157.798 153.2 157.798C153.2 157.698 153 157.598 153 157.598C153.2 157.598 153.5 157.498 153.6 157.598C153.7 157.698 153.7 157.998 153.6 158.198C153.6 158.398 153.4 158.498 153.2 158.598C152.8 158.798 152.5 158.898 151.9 158.598C151.6 158.498 151.3 158.098 151.2 157.698C151.1 157.498 151 157.198 151.1 156.898C151.1 156.398 151.3 156.098 151.6 155.998C151.8 155.998 151.6 155.698 152 155.998C151.7 155.198 152 155.598 152.1 155.498C152.1 155.498 151.9 154.798 152.1 154.998C151.8 154.498 151.9 154.498 152.1 154.598C152.6 154.998 152.5 154.598 152.8 154.598C153 154.598 153.1 154.398 153.3 154.298C153.3 154.298 153.1 153.998 153.3 154.198C153.5 154.398 153.4 154.198 153.4 154.198C153.4 154.198 153.4 153.998 153.5 154.198C154 154.698 153.9 154.198 154.1 154.198C154.3 154.198 154.4 154.198 154.5 153.898C154.5 153.798 154.4 153.398 154.5 153.498C154.5 153.498 154.5 153.198 154.8 153.698C154.9 153.798 154.7 153.398 154.7 153.398C154.7 153.398 154.7 153.398 154.9 153.298C154.9 153.298 155.1 153.298 155.1 153.098C155.1 153.098 155.1 152.798 155.1 152.698C155.1 152.698 155.1 152.598 155.2 152.598C155.3 152.598 155.5 152.798 155.6 152.798C155.6 152.798 155.6 152.498 155.8 152.798C156.2 153.098 156.2 152.798 156.3 152.798C156.4 152.798 156.6 152.798 156.6 152.598C156.6 152.498 157 152.898 157 152.798C157 152.798 157.2 153.098 157.5 153.398C157.8 153.698 158 154.098 158.2 154.398L158.3 154.598C158.5 154.998 158.9 155.698 158.8 155.698C158.7 155.698 158.6 155.798 158.5 155.898H158.9Z" fill="black"/>
<path d="M169.799 166.001H169.299C169.299 166.101 169.099 166.201 169.099 166.201C168.999 166.201 168.799 166.201 168.799 166.401C168.799 166.401 168.499 166.401 168.999 166.801C169.299 166.901 168.599 166.801 168.599 167.001C168.599 167.801 168.399 168.501 168.399 169.301C168.399 170.001 168.499 170.801 168.499 171.501C168.499 171.701 168.499 171.901 168.499 172.001V172.301L168.399 172.801C168.399 173.501 168.199 174.101 168.099 174.701C167.999 175.301 167.599 175.601 167.099 175.901C166.699 176.201 166.199 176.301 165.699 176.501C165.199 176.701 164.599 176.801 163.999 176.801H163.599H163.399C163.199 176.801 163.099 176.801 162.899 176.701C162.499 176.501 161.999 176.301 161.599 176.401C161.299 176.401 161.099 176.801 160.799 176.801C160.499 176.801 160.199 176.501 159.999 177.101C159.999 177.101 159.899 177.101 159.799 177.001C159.499 176.601 159.099 176.601 158.899 177.001C158.699 177.301 158.399 177.201 158.199 177.301C157.599 177.301 156.899 177.301 156.299 177.301C155.799 177.301 155.399 177.001 154.899 177.001C154.399 177.001 153.899 177.201 153.399 177.001C152.899 176.701 152.499 176.701 152.099 176.701C151.799 176.701 151.599 176.401 151.299 177.101C151.299 177.101 151.199 177.101 151.099 177.101C150.399 176.301 149.699 177.401 148.899 177.101C148.499 177.001 148.099 177.001 147.799 177.101C147.199 177.101 146.399 177.101 145.799 177.101C145.399 177.101 145.199 176.701 144.699 176.901C144.499 176.901 144.199 176.701 144.099 176.501C143.899 175.901 143.699 175.501 143.499 175.001C143.299 174.501 143.099 174.001 142.999 173.501V173.201V173.001V172.501C142.799 172.201 142.799 171.801 142.999 171.501C143.099 171.201 143.199 170.801 142.499 170.601C142.199 170.601 142.399 170.101 142.299 169.901C142.299 169.801 141.999 169.901 141.999 169.901C141.999 169.901 142.199 169.801 142.299 169.701C141.999 169.901 142.099 169.901 142.099 169.701C142.099 169.701 142.099 169.601 142.099 169.501C142.099 169.501 141.999 169.501 141.799 169.501C141.699 169.501 141.599 169.501 141.399 169.501C140.399 169.501 139.399 169.501 138.499 169.301C137.999 169.301 137.399 169.001 137.199 167.801C137.099 167.301 137.199 166.701 137.399 166.401C137.599 166.201 137.799 166.001 137.999 165.901C138.299 165.901 138.599 165.701 138.899 165.701C139.499 165.601 140.199 165.101 140.799 165.401C140.999 165.501 141.299 165.201 141.399 165.701C141.399 165.701 141.399 165.801 141.499 165.701C141.699 165.501 141.999 165.401 142.199 165.401C142.199 165.401 142.299 165.401 142.399 165.401C142.399 165.401 142.599 165.401 142.699 165.401C142.899 165.401 143.099 165.401 143.299 165.401C143.999 165.601 144.699 165.901 145.199 166.401C145.699 166.801 146.099 167.201 146.499 167.801C146.699 168.101 146.799 168.401 146.899 168.701C146.899 168.901 146.899 169.101 146.899 169.301C147.599 169.601 147.599 170.101 147.499 170.501C147.499 170.901 147.499 171.301 147.499 171.601C147.499 171.901 147.599 172.401 147.599 172.401C147.599 172.501 147.799 172.601 147.899 172.701C147.899 172.701 147.999 172.701 148.099 172.701H149.099C149.799 172.701 150.599 172.701 151.299 172.701C151.599 172.701 151.799 172.301 152.099 172.701C152.399 173.001 152.699 172.701 153.099 172.701C153.399 172.701 153.699 172.601 153.999 172.701C155.199 173.401 156.399 172.901 157.499 173.001C158.699 173.001 159.799 173.101 160.999 173.001C161.699 172.901 162.399 172.501 163.099 172.701C163.299 172.701 163.399 172.701 163.599 172.701H163.799C163.799 172.701 163.799 172.701 163.899 172.801C163.899 172.801 163.899 172.901 163.899 173.001C163.899 173.201 163.899 172.701 163.899 172.701H164.099C164.099 172.701 164.199 172.501 164.099 172.401C164.099 172.401 164.099 172.301 164.099 172.201V171.901C163.999 171.701 163.899 171.501 163.899 171.301C163.899 170.901 163.899 170.401 163.999 170.001C164.099 169.501 164.399 168.901 164.499 168.401C164.499 168.101 164.499 167.801 164.499 167.501C164.499 167.401 164.499 167.201 164.499 167.101C164.499 167.001 164.599 166.601 164.699 166.401C164.999 165.501 165.299 164.801 165.799 164.201C166.399 163.601 167.199 163.401 167.999 163.201L168.799 163.001L169.499 162.801C169.999 162.701 170.499 162.501 170.899 162.301C171.399 162.101 172.099 162.401 172.599 162.301C172.799 162.301 173.599 163.601 173.599 164.101C173.599 164.101 173.599 164.301 173.599 164.401C173.199 165.001 172.899 165.801 172.299 165.901C171.399 166.101 170.499 166.401 169.599 166.601L169.799 166.001Z" fill="black"/>
<path d="M157.3 152.498C157.3 152.498 157.4 152.698 157.5 152.698C157.5 152.698 157.4 152.898 157.8 152.598C158 152.398 157.6 152.898 157.6 152.898C157.7 152.898 157.7 152.998 157.8 153.098C157.9 153.098 158.1 153.098 158.2 153.098C158.3 153.098 158.2 153.398 158.4 153.098C158.6 152.898 158.4 153.398 158.4 153.298C158.5 153.298 158.6 153.298 158.5 153.498C158.5 153.698 158.3 153.898 158.5 153.798C158.5 153.798 158.8 153.498 158.8 153.598C158.8 153.598 158.7 153.898 159.1 153.398C159.1 153.398 159.1 153.398 159.1 153.498C158.9 153.798 158.9 153.798 159.1 153.598C159.3 153.398 159.3 153.398 159.3 153.498C159.3 153.498 159.4 153.498 159.5 153.598C159.5 153.598 159.5 153.898 159.5 153.998C159.5 153.998 159.7 153.898 159.5 154.198C159.4 154.498 159.5 154.498 159.5 154.498C159.5 154.498 159.4 154.798 159.8 154.298C159.4 154.998 160.1 154.198 160 154.398C160 154.598 160.1 154.598 160.2 154.598C160.2 154.598 160.2 154.798 160.4 154.398C160.5 154.298 160.5 154.298 160.4 154.398C160.1 154.898 160.4 154.698 160.4 154.798C160.4 154.898 160.6 154.798 160.4 155.198C160.4 155.398 160.3 155.498 160.6 154.998C160.8 154.798 160.6 154.998 160.7 154.998L160.9 154.798C160.9 154.798 160.9 154.998 160.8 155.098C161.3 154.598 160.8 155.398 161.1 155.298C161.3 155.298 161.3 155.298 161.4 155.498C161.4 155.498 161.4 155.798 160.8 156.798C160.5 157.198 160.2 157.698 160 157.998C159.9 158.198 159.7 158.398 159.7 158.398C159.7 158.398 159.5 158.498 159.4 158.598C159.2 158.698 158.9 159.098 159 158.798C159 158.798 158.8 158.898 159 158.498C158.5 159.098 158.7 158.498 158.5 158.498C158.4 158.498 158 158.998 158 158.698C157.6 159.198 157.6 159.098 157.7 158.898C157.9 158.198 157.5 158.498 157.4 158.298C157.3 158.098 157.1 158.098 156.9 157.898C156.9 157.898 156.6 158.098 156.8 157.898C156.9 157.698 156.8 157.898 156.8 157.798C157.1 157.198 156.8 157.398 156.6 157.198C156.6 156.998 156.4 156.898 156.2 156.898C156.1 156.898 155.8 157.098 155.8 156.898C155.8 156.898 155.6 157.098 155.9 156.598C156 156.498 155.7 156.798 155.6 156.798C155.6 156.798 155.5 156.798 155.4 156.698C155.4 156.698 155.3 156.498 155.2 156.498C155.2 156.498 154.9 156.598 154.8 156.598C154.8 156.598 154.7 156.598 154.7 156.498C154.7 156.398 154.7 156.198 154.7 156.098C154.7 156.098 154.4 156.098 154.6 155.898C154.8 155.398 154.6 155.498 154.6 155.398C154.6 155.298 154.5 155.098 154.3 155.098C154.2 155.098 154.5 154.698 154.4 154.598C154.4 154.598 154.6 154.298 154.9 153.998C155.2 153.698 155.5 153.298 155.7 153.198C155.7 153.198 155.8 153.098 155.9 152.998C156.3 152.698 156.8 152.198 156.8 152.298C156.8 152.398 156.9 152.498 157 152.498H157.3Z" fill="black"/>
</svg>
