<svg width="300" height="300" viewBox="0 0 300 300" fill="none" xmlns="http://www.w3.org/2000/svg">
<path d="M193.6 154.199C193.2 153.699 192.8 153.199 192.3 152.799C192.1 152.599 192.1 152.299 191.6 152.499C191.3 152.499 191.6 151.999 191.5 151.799C191 151.399 190.7 150.899 190.2 150.499C189.8 150.099 189.2 149.799 188.8 149.499C188.4 149.099 188.2 148.499 187.6 148.299C187.1 148.099 187.1 147.499 186.7 147.199C186.3 146.899 185.9 146.599 185.7 146.099C185.6 145.699 185.5 145.299 185.2 145.099C185 144.999 184.6 145.099 184.5 144.899C184.4 144.699 184.4 144.399 183.8 144.599C183.8 144.599 183.8 144.499 183.8 144.399C183.9 143.899 183.8 143.799 183.4 143.799C183.1 143.799 183 143.699 182.8 143.599C182.4 143.299 182.1 142.899 181.8 142.499C181.6 142.199 181.5 141.799 181.3 141.499C181.1 141.199 180.6 141.099 180.6 140.599C180.6 140.099 180.3 139.899 180.1 139.599C180 139.499 180.1 139.099 179.4 139.399C179.6 138.399 178.4 138.799 178.2 138.199C178 137.599 177.4 137.299 177 136.899C176.9 136.799 177 136.499 176.5 136.699C176.3 136.699 176.2 136.699 176.2 136.499C176.4 135.699 175.8 135.699 175.5 135.299C175.2 134.799 174.7 134.699 174.7 133.899C174.7 133.599 174.6 133.299 174 133.499C173.7 133.499 173.7 133.199 173.6 133.099C173.5 133.099 173.2 133.099 173 132.999C173 132.999 173 132.699 173 132.499C172 132.499 172.2 131.299 171.5 130.999C170.9 130.699 170.4 130.199 170 129.799C169.7 129.599 169.6 129.199 169.9 128.099C170 127.599 170.3 127.099 170.6 126.899C170.8 126.799 171.1 126.599 171.3 126.699C171.6 126.699 171.9 126.699 172.1 126.899C172.7 126.999 173.4 126.899 173.7 127.599C173.7 127.799 174.1 127.599 173.9 128.199V128.299C175 128.299 175.2 129.099 175.7 129.599C176.2 129.999 177 129.999 177.2 130.599C177.9 130.399 178.1 130.799 178.1 131.099C178.4 132.399 179.5 132.899 180.2 133.899C180.9 134.799 181.8 135.599 182.6 136.499C182.7 136.699 183.1 136.499 183.1 136.899C183.1 137.199 183.4 137.299 183.6 137.499C183.8 137.699 184 137.799 184.1 137.999C184.2 139.099 185.2 139.499 185.7 140.299C186.3 140.999 186.9 141.699 187.6 142.299C188.1 142.599 188.7 142.799 189 143.299C189.1 143.499 189.5 143.499 189.3 143.999C189.3 144.199 189.7 143.999 189.8 144.099C190.1 144.299 190.3 144.699 190.6 144.899C191 145.299 191.3 145.699 191.7 146.099C191.9 146.299 192.3 146.399 192.6 146.599C192.9 146.799 193.1 147.099 193.3 147.299C193.5 147.699 193.7 148.099 193.9 148.499C194.2 148.899 194.7 148.999 194.8 149.499C195 150.399 195.7 150.799 196.2 151.499C196.7 152.099 197.2 152.699 197.8 153.199C198.2 153.499 198.1 154.099 198.4 154.399C198.5 154.499 197.7 155.799 197.2 155.999H197C196.4 155.999 195.6 156.199 195.3 155.799C194.9 155.199 194.3 154.699 193.8 154.199H193.6Z" fill="black"/>
<path d="M126.5 176.498C126.5 176.898 126.5 177.398 126.7 177.798C126.7 177.998 126.5 178.198 127.1 178.298C127.4 178.298 126.8 178.598 126.8 178.698C126.9 179.098 126.9 179.498 127 179.898C127.1 180.298 127.4 180.698 127.5 180.998C127.6 181.398 127.5 181.798 127.8 182.198C128.1 182.498 127.7 182.898 127.8 183.198C128 183.498 128.1 183.798 127.9 184.198C127.8 184.498 127.6 184.698 127.7 184.998C127.7 185.098 128.1 185.198 128.1 185.398C128.1 185.598 127.9 185.798 128.5 185.798C128.5 185.798 128.5 185.798 128.4 185.898C128 186.098 128.1 186.298 128.4 186.398C128.7 186.398 128.7 186.598 128.7 186.698C128.7 186.998 128.9 187.398 128.9 187.698C128.9 187.998 128.7 188.298 128.7 188.498C128.7 188.798 129 188.998 128.7 189.298C128.4 189.598 128.5 189.798 128.5 190.098C128.5 190.198 128.3 190.398 128.9 190.398C128.2 190.898 129.3 191.098 129.2 191.598C129.1 191.998 129.2 192.398 129.4 192.798C129.4 192.898 129.3 193.098 129.7 193.098C129.9 193.098 129.9 193.198 129.8 193.298C129.2 193.698 129.7 193.998 129.6 194.298C129.6 194.698 129.9 194.998 129.5 195.398C129.3 195.598 129.3 195.798 129.9 195.898C130.2 195.898 129.9 196.198 130 196.298C130 196.298 130.4 196.498 130.4 196.598C130.4 196.598 130.2 196.798 130.1 196.898C130.9 197.298 130.1 197.998 130.4 198.498C130.7 198.998 130.7 199.498 130.7 200.098C130.7 200.398 130.6 200.698 129.5 201.198C129 201.398 128.5 201.498 128.1 201.398C127.8 201.398 127.6 201.298 127.5 201.198C127.4 201.098 127.2 200.898 127.1 200.798C126.8 200.498 126.3 200.298 126.5 199.898C126.5 199.798 126.2 199.698 126.7 199.498C125.8 199.198 126.3 198.598 126.1 198.098C126 197.698 125.3 197.398 125.5 196.998C124.8 196.898 124.9 196.598 125 196.298C125.5 195.398 125 194.698 124.9 193.798C124.9 192.998 124.6 192.198 124.5 191.398C124.5 191.298 124.1 191.198 124.3 190.998C124.5 190.798 124.3 190.598 124.3 190.498C124.3 190.298 124.1 190.198 124.3 189.998C124.8 189.198 124.3 188.698 124.3 187.998C124.3 187.398 124.3 186.698 123.9 186.098C123.7 185.698 123.3 185.398 123.4 184.998C123.4 184.798 123.1 184.698 123.6 184.398C123.8 184.398 123.3 184.198 123.2 184.098C123.2 183.798 123.1 183.598 123 183.298C123 182.898 123 182.498 122.8 182.198C122.8 181.998 122.4 181.798 122.4 181.598C122.3 181.398 122.3 181.098 122.3 180.898C122.3 180.598 122.5 180.298 122.5 179.898C122.5 179.598 122.2 179.298 122.5 178.998C122.9 178.398 122.5 177.898 122.5 177.298C122.5 176.698 122.5 176.198 122.2 175.598C122.1 175.298 122.5 174.898 122.5 174.598C122.5 174.498 123.9 174.098 124.4 174.098H124.6C125.1 174.298 125.9 174.498 125.9 174.898C125.9 175.398 126 175.898 126.1 176.398L126.5 176.498Z" fill="black"/>
<path d="M175.999 160.9C176.399 160.7 176.699 160.6 177.099 160.3C177.199 160.3 177.499 160.3 177.399 159.8C177.399 159.5 177.799 160 177.899 160C178.199 159.8 178.599 159.7 178.899 159.5C179.199 159.3 179.399 158.9 179.699 158.7C179.999 158.5 180.499 158.7 180.699 158.2C180.899 157.8 181.299 158.2 181.499 157.9C181.699 157.7 181.999 157.5 182.399 157.6C182.699 157.6 182.999 157.8 183.099 157.6C183.099 157.5 183.099 157.1 183.299 157.1C183.399 157.1 183.699 157.3 183.599 156.6C183.599 156.6 183.599 156.6 183.799 156.6C184.099 156.9 184.299 156.8 184.299 156.6C184.299 156.3 184.399 156.3 184.499 156.2C184.799 156.1 185.099 155.9 185.399 155.9C185.599 155.9 185.899 155.9 186.199 155.9C186.399 155.9 186.599 155.5 186.899 155.7C187.199 155.9 187.399 155.8 187.599 155.7C187.699 155.7 187.999 155.9 187.799 155.2C188.399 155.9 188.399 154.7 188.799 154.8C189.199 154.8 189.499 154.6 189.899 154.5C189.899 154.5 190.199 154.6 190.099 154.1C190.099 153.9 190.099 153.9 190.299 154C190.799 154.5 190.899 154 191.199 154C191.499 154 191.799 153.6 192.199 154C192.399 154.2 192.599 154.2 192.599 153.6C192.599 153.3 192.799 153.6 192.899 153.4C192.899 153.4 192.899 153 193.099 153C193.099 153 193.299 153.2 193.399 153.3C193.699 152.5 194.399 153.3 194.799 152.9C195.199 152.6 195.699 152.5 196.199 152.5C196.499 152.5 196.799 152.5 197.299 153.6C197.499 154.1 197.699 154.6 197.599 155C197.599 155.3 197.599 155.5 197.499 155.6C197.399 155.7 197.299 155.9 197.199 156C196.999 156.3 196.799 156.9 196.499 156.7C196.399 156.7 196.399 157 196.099 156.5C195.899 157.4 195.399 157 194.999 157.2C194.699 157.4 194.499 158.1 194.099 157.9C194.099 158.6 193.899 158.5 193.599 158.4C192.699 158 192.199 158.6 191.499 158.8C190.799 158.9 190.199 159.3 189.499 159.5C189.399 159.5 189.499 159.9 189.199 159.7C188.999 159.5 188.899 159.7 188.699 159.8C188.599 159.8 188.499 160 188.299 159.9C187.499 159.5 187.199 160.1 186.599 160.2C186.099 160.3 185.499 160.5 185.099 160.9C184.799 161.1 184.699 161.6 184.299 161.6C184.099 161.6 184.099 162 183.799 161.5C183.699 161.4 183.799 161.8 183.699 161.9C183.499 162 183.299 162.1 183.099 162.2C182.799 162.3 182.499 162.4 182.199 162.6C181.999 162.7 181.999 163 181.799 163.2C181.599 163.3 181.499 163.4 181.199 163.5C180.899 163.5 180.599 163.5 180.299 163.5C179.999 163.5 179.899 163.9 179.499 163.8C178.799 163.6 178.499 164 178.099 164.2C177.599 164.4 177.199 164.5 176.799 164.9C176.599 165.1 176.099 164.8 175.899 164.9C175.799 164.9 174.999 163.7 174.799 163.3V163.1C174.799 162.6 174.699 161.8 174.999 161.7C175.399 161.6 175.799 161.3 176.199 161.1L175.999 160.9Z" fill="black"/>
<path d="M156.6 154.699C156.6 154.499 156.6 154.299 156.6 154.199C156.6 154.199 156.8 154.099 156.3 153.999C156 153.999 156.7 153.899 156.6 153.799C156.6 153.599 156.6 153.499 156.6 153.299C156.6 153.099 156.3 152.999 156.3 152.799C156.3 152.599 156.6 152.499 156.3 152.299C156 152.099 156.5 152.099 156.4 151.899C156.3 151.799 156.2 151.599 156.4 151.499C156.6 151.499 156.8 151.299 156.7 151.199C156.7 151.199 156.3 150.999 156.4 150.999C156.4 150.999 156.7 150.999 156.1 150.799C156.1 150.799 156.1 150.799 156.3 150.799C156.7 150.799 156.7 150.799 156.4 150.599C156.1 150.599 156.2 150.499 156.2 150.399C156.2 150.299 156.2 150.099 156.2 149.999C156.2 149.999 156.5 149.799 156.6 149.799C156.6 149.799 156.4 149.499 156.7 149.499C157 149.499 157 149.399 157 149.299C157 149.299 157.3 149.299 156.7 149.099C157.5 149.099 156.5 148.699 156.7 148.599C156.9 148.499 156.8 148.299 156.9 148.099C156.9 148.099 157.1 148.099 156.7 147.899C156.5 147.799 156.5 147.899 156.7 147.899C157.3 147.899 157 147.699 157.1 147.599C157.3 147.499 157.1 147.299 157.5 147.299C157.7 147.299 157.8 147.299 157.3 146.999C157.1 146.899 157.3 146.999 157.3 146.799L157 146.599C157 146.599 157.2 146.599 157.4 146.599C156.8 146.199 157.8 146.299 157.7 145.999C157.7 145.699 157.7 145.599 157.9 145.399C157.9 145.399 158.2 145.299 159.3 145.599C159.8 145.799 160.3 145.999 160.6 146.199C160.8 146.299 161 146.399 161 146.499C161 146.499 161.2 146.699 161.2 146.799C161.3 146.999 161.8 147.299 161.5 147.299C161.5 147.299 161.7 147.499 161.2 147.299C161.9 147.699 161.3 147.699 161.3 147.899C161.3 147.999 161.9 148.399 161.6 148.399C162.2 148.699 162 148.699 161.8 148.699C161.1 148.699 161.4 149.099 161.3 149.399C161.1 149.599 161.2 149.899 161.1 150.199C161.1 150.199 161.4 150.399 161.1 150.399C160.8 150.399 161.1 150.499 161.1 150.599C161.1 150.599 161.2 150.699 161.1 150.799C160.4 150.799 160.8 151.199 160.7 151.399C160.7 151.599 160.5 151.799 160.7 151.999C160.7 152.099 161.1 152.299 161 152.399C161 152.399 161.3 152.499 160.7 152.499C160.5 152.499 161 152.499 161 152.599C161 152.599 161 152.799 161 152.899C161 152.999 161 153.099 161 153.299L161.3 153.499V153.699C161.3 153.699 161 153.899 160.9 153.999C160.9 154.099 161.1 154.199 160.9 154.299C160.4 154.499 160.6 154.699 160.6 154.899C160.6 155.099 160.6 155.299 160.6 155.399C160.6 155.399 160.2 155.599 160.2 155.699C160.2 155.699 158.7 155.899 158.2 155.999H158C157.5 155.999 156.8 155.899 156.8 155.699C156.8 155.499 156.8 155.299 156.8 155.099L156.6 154.699Z" fill="black"/>
<path d="M167.1 155.5C167.1 155.3 167.1 155.1 167.1 155C167.1 155 167.3 154.9 166.8 154.8C166.5 154.8 167.2 154.7 167.1 154.6C167.1 154.4 167.1 154.3 167.1 154.1C167.1 153.9 166.8 153.8 166.8 153.6C166.8 153.4 167.1 153.3 166.8 153.1C166.5 152.9 167 152.9 166.9 152.7C166.8 152.6 166.7 152.4 166.9 152.3C167.1 152.3 167.3 152.1 167.2 152C167.2 152 166.8 151.8 166.9 151.8C166.9 151.8 167.2 151.8 166.6 151.6C166.6 151.6 166.6 151.6 166.8 151.6C167.2 151.6 167.2 151.6 166.9 151.4C166.6 151.4 166.7 151.3 166.7 151.2C166.7 151.1 166.7 150.9 166.7 150.8C166.7 150.8 167 150.6 167.1 150.6C167.1 150.6 166.9 150.3 167.2 150.3C167.5 150.3 167.5 150.2 167.5 150.1C167.5 150.1 167.8 150.1 167.2 149.9C168 149.9 167 149.5 167.2 149.4C167.4 149.3 167.3 149.1 167.4 148.9C167.4 148.9 167.6 148.9 167.2 148.7C167 148.6 167 148.7 167.2 148.7C167.8 148.7 167.5 148.5 167.6 148.4C167.8 148.3 167.6 148.1 168 148.1C168.2 148.1 168.3 148.1 167.8 147.8C167.6 147.7 167.8 147.8 167.8 147.6L167.5 147.4C167.5 147.4 167.7 147.4 167.9 147.4C167.3 147 168.3 147.1 168.2 146.8C168.2 146.5 168.2 146.4 168.4 146.2C168.4 146.2 168.7 146.1 169.8 146.4C170.3 146.6 170.8 146.8 171.1 147C171.3 147.1 171.5 147.2 171.5 147.3C171.5 147.3 171.7 147.5 171.7 147.6C171.8 147.8 172.3 148.1 172 148.1C172 148.1 172.2 148.3 171.7 148.1C172.4 148.5 171.8 148.5 171.8 148.7C171.8 148.8 172.4 149.2 172.1 149.2C172.7 149.5 172.5 149.5 172.3 149.5C171.6 149.5 171.9 149.9 171.8 150.2C171.6 150.4 171.7 150.7 171.6 151C171.6 151 171.9 151.2 171.6 151.2C171.3 151.2 171.6 151.3 171.6 151.4C171.6 151.4 171.7 151.5 171.6 151.6C170.9 151.6 171.3 152 171.2 152.2C171.2 152.4 171 152.6 171.2 152.8C171.2 152.9 171.6 153.1 171.5 153.2C171.5 153.2 171.8 153.3 171.2 153.3C171 153.3 171.5 153.3 171.5 153.4C171.5 153.4 171.5 153.6 171.5 153.7C171.5 153.8 171.5 153.9 171.5 154.1L171.8 154.3V154.5C171.8 154.5 171.5 154.7 171.4 154.8C171.4 154.9 171.6 155 171.4 155.1C170.9 155.3 171.1 155.5 171.1 155.7C171.1 155.9 171.1 156.1 171.1 156.2C171.1 156.2 170.7 156.4 170.7 156.5C170.7 156.5 169.2 156.7 168.7 156.8H168.5C168 156.8 167.3 156.7 167.3 156.5C167.3 156.3 167.3 156.1 167.3 155.9L167.1 155.5Z" fill="black"/>
<path d="M167.5 194.3C165.9 194 164.4 193.5 162.9 192.9C162.3 192.7 161.9 192.2 161.1 192.3C160.7 192.3 160.5 191.5 160 191.3C158.7 190.5 157.6 189.5 156.5 188.5C155.4 187.5 154.3 186.5 153.5 185.2C152.7 183.9 152.3 182.5 151.5 181.2C150.8 180.1 151 178.9 150.6 177.8C150.3 176.6 150 175.3 150.2 174.1C150.2 173.7 150.3 173.2 150.4 172.8C150.4 172.6 150.4 172.4 150.4 172.2C150.4 172 150.4 171.6 150.4 171.3C150.4 170.5 150.1 169.5 150.2 168.5C150.2 168.1 150.4 167.6 150.4 167.2C150.4 166.8 150.4 166.3 150.2 165.5C150.2 165.4 150.3 165.1 150.4 165C150.9 164.6 151.1 163.8 151 162.6C151.2 162.1 151.6 162.2 151.9 162.2H152.4H152.9H153.3C153.3 162.2 153.4 162.3 153.6 162.4L153.8 162.6L154.1 162.8C154.2 162.8 154.5 162.9 154.8 162.9C155.1 162.9 155.6 162.9 155.9 163.1C156 163.5 156.1 164 156.2 164.4C156.2 164.7 156.4 165 156.4 165.4C156.4 165.7 156.6 166 156.6 166.2C156.8 166.6 156.9 167 157.1 167.3C157.4 168 157.8 168.5 158.2 169.1C158.4 169.3 158.4 169.3 158.4 169.5C158.4 169.5 158.5 169.7 158.6 169.8C158.7 170 158.9 170.1 159.3 170C159.3 170 159.5 170.1 159.5 170.2C159.7 171.7 161.3 171.7 162.1 172.6C162.9 173.5 164.1 174.1 165.2 174.8C165.5 175 165.7 175.3 166.2 175C166.4 175 166.7 175 166.8 175.2C167.4 176.2 168.5 176.3 169.3 176.7C169.8 177 170.3 177.1 170.9 177.3C171.2 177.3 171.4 177.5 171.7 177.6C172 177.8 172 177.8 172.1 178C172.1 178.1 172.3 178.2 172.4 178.3C172.4 178.3 172.6 178.3 172.4 177.9C172.3 177.6 172.5 177.9 172.6 177.9C172.6 177.8 172.3 177.4 172.3 177.4C172.3 177.4 172.5 177.6 172.6 177.6C172.6 177.6 172.5 177.5 172.4 177.5C172.4 177.5 172.4 177.5 172.4 177.4C172.4 177 172.4 176.5 172.5 176.1C172.6 175.2 172.8 174.4 172.7 173.5C172.5 171.7 172.7 170 172.7 168.2C172.7 167.2 173 166.2 174.1 165.6C174.6 165.3 175.2 165.3 175.5 165.7C175.7 166 176 166.4 176 166.7C176.1 167.3 176.2 167.8 176.3 168.4C176.5 169.5 177 170.7 176.7 171.8C176.7 172.2 176.9 172.6 176.4 172.9C176.4 172.9 176.3 173.1 176.4 173.2C176.8 174 176.8 174.8 176.8 175.6C176.8 176 176.8 176.4 176.8 176.8V177.4V177.7V178.2C176.8 179.3 177 180.5 177 181.8C177 182.4 177 183.1 177 183.7C177.1 184.2 176.7 183.9 176.4 183.9C176.1 183.9 175.8 183.7 175.5 183.6C174.6 184 172.6 183.4 171.4 182.8L170.6 182.4L170.1 182.1C169.8 181.9 169.5 181.8 169.1 181.6C168.5 181.3 167.8 181.1 167.1 180.8C165.8 180.3 164.5 179.7 163.2 179C160.7 177.5 158.3 175.8 156.3 173.6C156 173.2 155.4 173.1 155.2 172.5C155.2 172.3 155.1 172.2 155 172.1H154.9C154.9 172.1 154.8 172.1 154.8 171.8C154.8 171.3 154.6 170.9 154.6 170.6L154.4 170C154.4 170.2 154.2 170.5 154.2 170.8C154.2 171.2 154.2 171.6 154.2 172C154.2 172.2 154.3 172.5 154.4 172.6C154.4 172.6 154.4 172.8 154.4 172.9V173.3C154.4 173.6 154.4 173.9 154.4 174.2C154.4 174.7 154.8 175.2 154.2 175.8C154.1 176 154.5 176.4 154.6 176.7C154.8 177.5 154.9 178.3 155.1 179C155.4 180.1 155.8 181.1 156.3 182.1C156.5 182.4 156.7 182.6 156.9 182.9C157.1 183.1 157.4 183.4 157.6 183.6C158 184.1 158.4 184.7 158.8 185.2L159.6 186.3C159.9 186.6 160.1 187 160.5 187.3C161.2 187.9 162.1 188.3 162.7 188.9C163.9 190.2 165.6 190.6 167.1 191C167.4 191 167.8 191.2 168.1 191.3H168.6L168.9 191.4C169.1 191.4 169.2 191.4 169.4 191.4C170.1 191.4 170.8 191.4 171.4 191.4C172.1 191.4 172.8 191.4 173.4 191.4C173.4 191.8 173.3 192.2 173.2 192.6C173.1 193.5 172.7 194.4 172.5 195.2V195.8C172.4 195.8 172.3 196.2 172.3 196.2C172.3 196.4 172.3 196.6 172.3 196.9C172.3 197.3 170.9 198 170.4 197.9C170.4 197.9 170.2 197.8 170.2 197.7C169.9 197.2 169.6 196.7 169.4 196.1C169.4 196 169.4 195.8 169.3 195.7H169.2C169.2 195.5 169.2 195.4 169.2 195.3V194.9C169.2 194.9 169 194.9 168.8 194.9H168.5L167.5 194.7V194.3Z" fill="black"/>
<path d="M132.4 170.199C131.3 170.999 130 171.599 128.8 172.199C128.3 172.399 127.8 172.399 127.5 172.999C127.3 173.299 126.7 172.899 126.2 172.999C125 173.399 123.8 173.599 122.6 173.799C121.4 173.999 120.3 174.399 119.1 174.499C117.9 174.599 116.7 174.399 115.6 174.699C114.6 174.999 113.7 174.399 112.7 174.399C111.7 174.399 110.5 174.199 109.6 173.699C108.9 173.299 108.3 172.799 107.5 172.599C107 172.499 106.5 172.599 106 172.199C105.6 171.899 105.3 171.399 104.5 171.599C104.5 171.599 104.3 171.399 104.3 171.199C104.1 170.499 103.7 170.099 103.1 169.899C102.6 169.699 102.4 169.399 102.1 168.999C101.4 168.099 100.8 166.999 100.4 165.799C100.1 164.899 100.2 163.899 100.2 162.999C100.2 161.999 100.1 160.899 100.7 160.099C101.3 159.299 101.6 158.599 102.1 157.899C102.4 157.499 102.9 157.299 102.7 156.599C102.7 156.599 102.8 156.399 102.9 156.399C103.7 156.199 104.1 155.699 104.5 155.199C104.9 154.699 105.4 154.099 106 153.899C107.3 153.399 108.6 152.899 109.8 152.599C110.1 152.599 110.5 152.599 110.8 152.099C110.8 151.899 111.3 151.799 111.4 151.899C112.4 152.399 113.4 151.899 114.3 151.999C115.4 151.999 116.4 151.799 117.5 152.399C117.9 152.599 118.5 152.799 119.1 152.299C119.4 151.999 119.9 152.299 120.3 152.299C120.6 152.299 121 152.099 121.3 152.099C121.6 152.099 121.8 152.399 122.1 152.599C122.1 152.599 122.3 152.599 122.4 152.599C124.1 152.199 125.4 153.499 126.9 153.799C128.5 154.099 129.9 154.699 131.3 155.499C132.1 155.899 132.8 156.499 132.8 157.799C132.8 158.399 132.5 158.899 132.1 158.999C131.8 158.999 131.4 159.199 131.1 158.999C130.6 158.899 130.2 158.799 129.7 158.699C128.8 158.499 127.8 158.699 127 158.099C126.8 157.899 126.3 158.099 126.3 157.499C126.3 157.499 126.2 157.299 126.1 157.399C124.7 157.799 123.6 156.899 122.3 156.699C121.2 156.499 120.1 156.999 119.1 156.699C118.4 157.299 117.8 157.099 117.2 156.899C115.1 156.099 113 156.599 111.1 156.899C110.1 157.099 109.2 157.299 108.4 157.699C107.6 158.099 106.9 158.599 106.3 159.199C106.1 159.399 106.3 159.799 105.8 159.899C105.4 159.899 105.4 160.499 105.2 160.799C105.1 161.099 105.1 161.399 104.9 161.699C104.4 162.199 104.3 162.899 104.4 163.599C104.5 164.299 104.8 164.899 105.1 165.599C105.7 166.899 106.7 168.099 108 168.699C108.8 169.099 109.8 169.099 110.6 169.499C111 169.699 111.4 169.499 111.7 170.099C111.7 170.299 112.3 169.899 112.5 169.899C113.2 169.899 113.8 170.099 114.5 170.099C115.4 170.099 116.4 170.199 117.4 170.099C118 170.099 118.6 169.799 119.2 169.699C119.8 169.599 120.4 169.499 121 169.499C121.8 169.499 122.6 169.499 123.3 169.499C124.1 169.399 124.8 168.899 125.6 168.999C127.1 168.999 128.3 168.199 129.5 167.599C130.7 166.899 131.8 166.099 132.5 164.999C132.9 164.399 133.7 164.099 134.1 163.399C134.2 163.099 135.8 163.299 136.2 163.599C136.2 163.599 136.3 163.799 136.3 163.899C136.3 164.899 136.5 165.999 135.8 166.899C134.8 168.099 133.6 169.299 132.4 170.199Z" fill="black"/>
<path d="M134.4 108.401C133.8 108.901 133.1 109.501 132.5 110.101C132.3 110.301 131.9 110.401 132 111.001C132 111.301 131.4 111.001 131.2 111.301C130.7 111.901 130 112.501 129.5 113.101C129 113.701 128.7 114.501 128.2 115.101C127.7 115.701 127 116.201 126.8 117.001C126.6 117.701 125.9 117.901 125.6 118.501C125.3 119.101 125 119.701 124.4 120.101C124 120.401 123.6 120.701 123.4 121.101C123.4 121.401 123.4 121.801 123.3 122.001C123.1 122.201 122.7 122.401 123.2 122.901C123.2 122.901 123.1 123.001 123 123.001C122.5 123.001 122.3 123.401 122.5 123.801C122.6 124.201 122.5 124.301 122.5 124.601C122.3 125.201 122 125.801 121.7 126.401C121.5 126.801 121.1 127.201 120.9 127.601C120.7 128.101 120.8 128.601 120.4 129.001C120 129.401 119.9 129.801 119.8 130.201C119.8 130.501 119.4 130.701 120 131.001C120 131.001 120 131.101 120 131.201C119.1 131.801 120 132.701 119.8 133.401C119.5 134.201 119.7 135.001 119.7 135.701C119.7 135.901 119.5 136.101 120 136.301C120.2 136.301 120.2 136.601 120 136.701C119.4 137.301 119.8 137.901 119.8 138.501C119.8 139.201 120.1 139.901 119.8 140.601C119.6 140.901 119.6 141.401 120.2 141.601C120.5 141.701 120.2 142.101 120.4 142.301C120.4 142.501 120.8 142.601 120.8 142.901C120.8 143.101 120.6 143.301 120.6 143.501C120.6 143.501 120.6 143.601 120.6 143.701C121.5 144.601 120.8 145.801 121.3 146.801C121.7 147.801 121.9 148.801 122.1 149.901C122.2 150.501 122.1 151.101 121.2 151.801C120.8 152.101 120.2 152.301 119.8 152.101C119.5 152.001 119.2 151.801 119.1 151.601C118.9 151.301 118.7 151.001 118.5 150.701C118.1 150.101 117.4 149.501 117.5 148.801C117.5 148.601 117.2 148.401 117.6 148.101C117.6 148.101 117.6 148.001 117.6 147.901C116.6 147.201 116.9 146.001 116.6 145.101C116.4 144.301 115.6 143.601 115.7 142.701C115 142.301 115 141.701 115.1 141.201C115.5 139.401 114.9 137.701 115 136.001C115 134.201 115 132.401 115.4 130.601C115.4 130.301 115.2 130.001 115.4 129.701C115.7 129.401 115.6 128.901 115.7 128.601C115.7 128.201 115.7 127.801 116 127.601C117 126.401 117.1 125.001 117.8 123.801C118.4 122.601 119.1 121.401 119.7 120.101C120 119.301 120.2 118.401 120.7 117.801C120.9 117.501 120.9 117.001 121.6 117.101C121.8 117.101 121.6 116.601 121.7 116.401C122 115.901 122.3 115.501 122.7 115.001C123.2 114.401 123.7 113.801 124.1 113.101C124.4 112.701 124.5 112.201 124.7 111.801C125 111.401 125.3 111.001 125.7 110.601C126.2 110.201 126.8 109.801 127.2 109.401C127.7 109.001 128 108.301 128.6 108.001C129.8 107.501 130.4 106.501 131.4 105.801C132.4 105.001 133.4 104.301 134.6 103.601C135.3 103.201 136.2 103.401 136.9 103.301C137.3 103.301 137.8 104.701 137.7 105.201V105.401C137.2 105.901 137 106.701 136.5 106.901C135.8 107.101 135 107.601 134.3 108.201L134.4 108.401Z" fill="black"/>
<path d="M157.9 101.099C157.5 101.299 157.1 101.399 156.8 101.699C156.7 101.699 156.4 101.699 156.5 102.199C156.5 102.499 156.1 101.999 156 102.099C155.7 102.299 155.3 102.499 155 102.699C154.7 102.899 154.5 103.299 154.2 103.599C153.9 103.799 153.4 103.799 153.3 104.299C153.2 104.699 152.7 104.399 152.5 104.699C152.3 104.999 152.1 105.199 151.7 105.199C151.4 105.199 151.1 105.199 151 105.399C151 105.499 151 105.899 150.9 105.899C150.8 105.899 150.5 105.899 150.8 106.399C150.8 106.399 150.8 106.399 150.6 106.399C150.2 106.199 150.1 106.399 150.2 106.599C150.2 106.899 150.2 106.899 150.1 106.999C149.9 107.199 149.6 107.399 149.4 107.599C149.2 107.699 148.9 107.599 148.6 107.799C148.4 107.899 148.3 108.299 148 108.199C147.6 108.199 147.5 108.199 147.3 108.399C147.3 108.399 146.9 108.399 147.3 108.899C146.5 108.499 146.9 109.599 146.5 109.699C146.1 109.799 145.9 110.199 145.6 110.499C145.6 110.499 145.3 110.499 145.6 110.899C145.6 110.999 145.6 111.099 145.6 111.099C145 110.899 145 111.299 144.7 111.499C144.4 111.699 144.4 112.099 143.8 111.999C143.6 111.999 143.3 111.999 143.6 112.599C143.7 112.799 143.4 112.799 143.4 112.899C143.4 112.999 143.5 113.299 143.4 113.299C143.4 113.299 143.1 113.299 143 113.299C143.2 114.099 142.2 113.899 142 114.399C141.8 114.899 141.5 115.199 141.1 115.599C140.9 115.799 140.6 115.899 139.5 115.399C139 115.199 138.6 114.799 138.4 114.499C138.3 114.299 138.1 114.099 138.2 113.899C138.2 113.699 138.2 113.499 138.2 113.299C138.2 112.899 138 112.299 138.5 112.199C138.6 112.199 138.5 111.899 138.9 112.199H139C138.7 111.299 139.4 111.299 139.7 110.899C139.9 110.599 139.7 109.799 140.2 109.699C139.9 109.099 140.2 108.999 140.5 108.899C141.5 108.799 141.8 107.899 142.4 107.299C143.1 106.799 143.6 106.199 144.2 105.599C144.3 105.599 144.2 105.199 144.5 105.299C144.8 105.299 144.8 105.099 144.9 104.999C145 104.899 145.1 104.699 145.3 104.699C146.2 104.699 146.5 104.099 147 103.699C147.6 103.399 148.1 102.999 148.5 102.499C148.8 102.199 148.9 101.699 149.3 101.599C149.5 101.599 149.4 101.199 149.9 101.599C150 101.699 149.9 101.199 149.9 101.199C150.1 100.999 150.3 100.899 150.6 100.699C150.9 100.499 151.3 100.299 151.5 100.099C151.7 99.8993 151.7 99.5993 151.9 99.3993C152.1 99.1993 152.3 99.0993 152.5 98.9993C152.8 98.9993 153.2 98.9993 153.5 98.7993C153.8 98.6993 154 98.2993 154.4 98.3993C155.1 98.5993 155.5 98.0993 156 97.8993C156.5 97.6993 157 97.4993 157.5 97.1993C157.8 96.9993 158.2 97.2993 158.5 97.1993C158.6 97.1993 159.4 98.3993 159.5 98.8993V99.0993C159.5 99.5993 159.5 100.399 159.2 100.499C158.7 100.599 158.3 100.899 157.9 101.099Z" fill="black"/>
<path d="M171.6 104.601C171.2 104.801 170.9 104.901 170.5 105.201C170.4 105.201 170.1 105.201 170.2 105.701C170.2 106.001 169.8 105.501 169.7 105.601C169.4 105.801 169 105.901 168.7 106.201C168.4 106.401 168.2 106.801 167.9 107.001C167.6 107.201 167.2 107.101 167 107.601C166.9 108.001 166.4 107.601 166.2 107.901C166 108.201 165.8 108.401 165.4 108.301C165.1 108.301 164.8 108.201 164.7 108.301C164.7 108.401 164.7 108.801 164.5 108.801C164.4 108.801 164.1 108.701 164.3 109.301C164.3 109.301 164.3 109.301 164.1 109.301C163.8 109.001 163.6 109.101 163.7 109.401C163.7 109.701 163.7 109.701 163.5 109.801C163.3 110.001 163 110.201 162.7 110.301C162.5 110.301 162.2 110.301 161.9 110.301C161.7 110.301 161.6 110.701 161.2 110.601C160.9 110.501 160.7 110.601 160.5 110.601C160.4 110.601 160.1 110.501 160.4 111.101C159.7 110.601 159.9 111.701 159.5 111.701C159.1 111.701 158.8 112.001 158.5 112.301C158.5 112.301 158.2 112.301 158.4 112.701C158.4 112.901 158.4 112.901 158.3 112.901C157.7 112.501 157.7 112.901 157.4 113.101C157.1 113.101 157 113.601 156.4 113.401C156.2 113.401 156 113.401 156.1 113.901C156.1 114.201 155.9 114.001 155.8 114.101V114.501C155.8 114.501 155.5 114.401 155.4 114.301C155.4 115.101 154.5 114.601 154.2 115.001C153.9 115.401 153.5 115.601 153 115.801C152.8 115.901 152.4 115.901 151.6 115.101C151.2 114.701 150.9 114.301 150.8 113.901C150.8 113.701 150.7 113.401 150.8 113.301C150.8 113.101 150.9 112.901 151 112.801C151.1 112.501 151.1 111.901 151.5 111.901C151.6 111.901 151.5 111.601 151.9 111.901H152C152 111.001 152.6 111.201 152.9 110.901C153.2 110.701 153.1 109.901 153.6 110.001C153.4 109.401 153.6 109.301 154 109.401C155 109.601 155.4 108.801 156 108.501C156.7 108.201 157.3 107.701 157.9 107.401C158 107.401 157.9 107.001 158.2 107.101C158.5 107.301 158.5 107.001 158.6 106.901C158.7 106.901 158.8 106.601 159 106.701C159.8 107.001 160.1 106.301 160.7 106.101C161.2 105.901 161.8 105.601 162.2 105.201C162.5 104.901 162.6 104.501 163 104.401C163.2 104.401 163.1 104.001 163.6 104.401C163.7 104.501 163.6 104.101 163.6 104.001C163.8 103.801 164 103.701 164.2 103.601C164.5 103.401 164.8 103.301 165.1 103.101C165.3 103.001 165.3 102.701 165.5 102.501C165.7 102.301 165.9 102.201 166.1 102.201C166.4 102.201 166.7 102.201 167 102.201C167.3 102.201 167.4 101.701 167.8 101.901C168.5 102.101 168.8 101.701 169.3 101.501C169.8 101.301 170.2 101.101 170.6 100.801C170.8 100.601 171.3 100.901 171.5 100.801C171.6 100.801 172.4 102.001 172.6 102.501V102.701C172.6 103.201 172.6 104.001 172.4 104.101C172 104.201 171.6 104.501 171.2 104.701L171.6 104.601Z" fill="black"/>
<path d="M183.699 109.3C183.399 109.4 183.099 109.5 182.899 109.7C182.899 109.7 182.599 109.6 182.699 110.1C182.699 110.4 182.399 109.8 182.299 109.9C182.099 110.1 181.799 110.1 181.499 110.3C181.299 110.5 181.099 110.8 180.899 111C180.699 111.2 180.299 111 180.199 111.5C180.199 111.9 179.699 111.5 179.599 111.7C179.399 111.9 179.299 112.1 178.999 112C178.799 112 178.499 111.8 178.399 112C178.399 112.1 178.399 112.4 178.299 112.5C178.199 112.5 177.999 112.3 178.199 112.9C178.199 112.9 178.199 112.9 178.099 112.9C177.799 112.6 177.699 112.7 177.699 112.9C177.699 113.2 177.699 113.2 177.599 113.2C177.399 113.3 177.199 113.5 176.999 113.5C176.799 113.5 176.599 113.5 176.399 113.5C176.199 113.5 176.199 113.9 175.899 113.7C175.599 113.5 175.499 113.7 175.299 113.7C175.299 113.7 174.999 113.6 175.299 114.1C174.599 113.5 174.999 114.6 174.599 114.6C174.199 114.6 174.099 114.8 173.799 115C173.799 115 173.599 115 173.799 115.4C173.799 115.6 173.799 115.6 173.799 115.5C173.299 115.1 173.299 115.5 173.099 115.5C172.799 115.5 172.799 115.9 172.299 115.6C172.099 115.5 171.899 115.5 172.099 116C172.099 116.3 171.899 116 171.899 116.2V116.6C171.899 116.6 171.699 116.5 171.599 116.4C171.599 117.2 170.899 116.6 170.699 117C170.499 117.4 170.099 117.5 169.799 117.6C169.599 117.6 169.299 117.6 168.599 116.8C168.299 116.4 167.899 116 167.799 115.6C167.799 115.4 167.699 115.1 167.699 115C167.699 114.8 167.699 114.7 167.799 114.5C167.799 114.2 167.799 113.6 168.199 113.7C168.299 113.7 168.199 113.4 168.599 113.8C168.399 113 168.999 113.2 169.299 113C169.499 112.8 169.399 112.1 169.799 112.2C169.599 111.6 169.799 111.6 170.099 111.6C170.899 111.9 171.199 111.2 171.799 110.9C172.399 110.7 172.799 110.3 173.299 110C173.299 110 173.299 109.6 173.499 109.8C173.699 110 173.699 109.8 173.899 109.7C173.999 109.7 173.999 109.5 174.199 109.5C174.899 109.8 175.099 109.3 175.599 109.1C175.999 108.9 176.499 108.8 176.799 108.4C176.999 108.2 177.099 107.7 177.399 107.7C177.499 107.7 177.399 107.3 177.899 107.8C177.999 107.9 177.899 107.5 177.899 107.4C177.999 107.3 178.199 107.2 178.399 107.1C178.599 107 178.899 106.9 179.099 106.7C179.199 106.6 179.299 106.3 179.399 106.2C179.499 106.1 179.699 106 179.899 106C180.099 106 180.399 106 180.599 106C180.799 106 180.899 105.6 181.199 105.8C181.799 106.1 181.999 105.7 182.399 105.6C182.799 105.5 183.199 105.4 183.499 105.1C183.699 104.9 184.099 105.3 184.299 105.2C184.299 105.2 185.099 106.4 185.299 106.9V107.1C185.299 107.6 185.399 108.4 185.199 108.4C184.799 108.4 184.599 108.7 184.199 108.8L183.699 109.3Z" fill="black"/>
<path d="M185.699 124.801C184.599 125.601 183.599 126.501 182.599 127.201C182.199 127.501 181.599 127.601 181.499 128.301C181.499 128.701 180.699 128.401 180.299 128.701C179.299 129.401 178.199 130.001 177.099 130.601C176.099 131.201 175.099 132.001 173.999 132.501C172.899 133.001 171.699 133.301 170.699 134.001C169.899 134.601 168.799 134.401 167.999 134.901C167.099 135.301 166.099 135.701 165.099 135.801C164.399 135.801 163.599 135.801 162.899 136.101C162.499 136.301 162.099 136.701 161.699 136.801C161.299 136.801 160.699 136.801 160.399 137.401C160.399 137.401 160.199 137.401 159.999 137.401C159.399 137.101 158.899 137.201 158.499 137.501C158.099 137.801 157.799 137.901 157.399 137.901C156.399 138.001 155.399 138.201 154.299 138.201C153.499 138.201 152.799 138.001 151.999 138.001C151.199 138.001 150.399 138.301 149.599 138.001C148.899 137.701 148.199 137.701 147.399 137.701C146.999 137.701 146.499 137.401 146.199 138.001C146.199 138.001 145.999 138.001 145.899 138.001C145.299 137.501 144.799 137.501 144.199 137.601C143.599 137.601 142.999 137.801 142.399 137.601H142.199C142.199 137.601 142.199 137.601 142.199 137.501C142.199 137.501 142.099 137.501 141.999 137.501H141.899V137.701C141.899 137.701 141.699 137.701 142.099 138.001C142.199 138.101 142.299 138.001 142.099 138.101C141.299 138.701 141.499 139.701 141.199 140.501C140.899 141.401 141.099 142.501 140.399 143.501C140.099 143.901 139.899 144.501 140.399 145.101C140.599 145.401 140.299 145.901 140.299 146.301C140.299 146.601 140.499 147.001 140.399 147.301C140.399 147.601 140.099 147.801 139.899 148.101C139.899 148.101 139.899 148.301 139.899 148.401C140.099 150.201 138.699 151.501 138.099 153.101C137.499 154.701 136.299 156.201 134.799 157.401C133.999 158.001 132.899 158.501 131.799 157.701C131.299 157.401 131.099 156.801 131.299 156.401C131.399 156.101 131.499 155.801 131.699 155.601C131.999 155.301 132.299 154.901 132.499 154.601C132.999 153.901 133.099 153.001 133.799 152.401C133.999 152.201 133.899 151.801 134.499 151.901C134.499 151.901 134.699 151.901 134.699 151.801C134.599 150.401 135.499 149.501 135.799 148.201C135.999 147.201 135.599 146.001 136.099 144.901C135.599 144.201 135.799 143.501 136.099 142.901C136.599 141.801 136.799 140.701 136.999 139.501C137.099 138.901 137.199 138.301 137.299 137.701V137.201C137.399 137.101 137.499 136.801 137.599 136.601C137.799 136.101 137.899 135.601 138.099 135.101L138.699 133.701L138.999 133.001C138.999 133.001 138.999 133.001 139.099 133.001H139.299H139.699C140.699 133.101 141.699 133.301 142.799 133.501L143.699 133.701C143.999 133.701 144.299 133.701 144.499 133.701L146.199 133.901C146.599 133.901 146.899 133.601 147.399 133.901C147.799 134.201 148.399 133.901 148.799 133.901C149.199 133.901 149.699 133.801 150.099 133.901C151.899 134.501 153.599 134.101 155.399 133.901C156.299 133.901 157.199 133.801 157.999 133.601C158.899 133.401 159.699 133.301 160.599 133.001C161.599 132.601 162.599 132.101 163.699 131.901C164.199 131.901 164.499 131.401 165.099 131.801C165.299 131.901 165.599 131.401 165.799 131.301L167.899 130.601L169.299 130.101C169.799 129.901 170.199 129.701 170.699 129.501C171.299 129.201 171.699 128.801 172.199 128.401C172.699 128.001 173.299 127.701 173.899 127.501C174.299 127.301 174.699 127.201 175.099 127.101C175.499 126.901 175.899 126.801 176.199 126.601C176.999 126.201 177.599 125.601 178.399 125.301C179.199 125.101 179.799 124.701 180.499 124.301C181.099 123.901 181.699 123.301 182.299 122.901C183.599 122.001 184.699 121.001 185.699 119.901C186.199 119.201 187.099 119.001 187.699 118.401C187.999 118.101 189.399 118.701 189.699 119.201C189.699 119.201 189.699 119.401 189.699 119.501C189.399 120.401 189.399 121.501 188.699 122.201C188.199 122.701 187.599 123.201 186.999 123.701C186.399 124.201 185.899 124.701 185.299 125.201L185.699 124.801Z" fill="black"/>
</svg>
