<svg width="300" height="300" viewBox="0 0 300 300" fill="none" xmlns="http://www.w3.org/2000/svg">
<path d="M183.199 140.102C182.699 139.502 182.199 139.002 181.599 138.402C181.399 138.202 181.399 137.802 180.799 138.002C180.499 138.002 180.799 137.402 180.599 137.302C180.099 136.802 179.599 136.202 179.099 135.802C178.599 135.302 177.899 135.002 177.399 134.502C176.899 134.002 176.599 133.302 175.899 133.102C175.299 132.902 175.299 132.202 174.899 131.802C174.399 131.502 173.899 131.102 173.699 130.502C173.499 130.102 173.399 129.602 173.099 129.402C172.899 129.302 172.499 129.402 172.299 129.102C172.099 128.902 172.099 128.502 171.499 128.802C171.499 128.802 171.499 128.702 171.499 128.602C171.599 128.102 171.399 127.902 170.999 127.902C170.599 127.902 170.499 127.702 170.399 127.602C169.999 127.202 169.599 126.802 169.199 126.302C168.899 125.902 168.799 125.502 168.599 125.102C168.299 124.702 167.799 124.602 167.699 124.002C167.699 123.502 167.299 123.202 167.099 122.902C166.899 122.702 166.999 122.302 166.399 122.602C166.399 122.602 166.299 122.602 166.299 122.502C166.399 121.402 165.199 121.702 164.899 121.102C164.599 120.402 163.999 120.002 163.499 119.502C163.399 119.402 163.399 119.102 162.899 119.302C162.699 119.302 162.599 119.302 162.599 119.102C162.699 118.302 162.099 118.202 161.799 117.802C161.499 117.302 160.899 117.202 160.799 116.502C160.799 116.202 160.599 115.902 159.999 116.302C159.799 116.502 159.699 116.102 159.499 116.102C159.299 116.102 159.099 116.202 158.999 116.102C158.899 116.102 158.899 115.802 158.799 115.602C158.799 115.602 158.799 115.602 158.699 115.602C157.799 115.902 157.399 114.902 156.599 114.902C155.799 114.902 154.999 114.802 154.199 114.602C153.699 114.602 153.299 114.302 152.999 113.202C152.899 112.702 152.899 112.102 153.099 111.802C153.299 111.602 153.499 111.302 153.599 111.302C153.899 111.302 154.199 111.102 154.499 111.002C155.099 110.802 155.799 110.402 156.399 110.702C156.599 110.802 156.899 110.602 156.999 111.102C156.999 111.102 156.999 111.202 157.099 111.102C158.099 110.502 158.999 111.202 159.899 111.502C160.699 111.702 161.699 111.502 162.299 112.302C162.999 112.002 163.399 112.502 163.699 112.902C164.499 114.402 165.799 115.202 166.699 116.202C167.599 117.302 168.599 118.202 169.499 119.302C169.699 119.502 170.099 119.302 169.999 119.802C169.999 120.202 170.399 120.302 170.599 120.502C170.799 120.702 171.099 120.802 171.199 121.102C171.499 122.302 172.499 122.902 173.199 123.702C173.899 124.502 174.599 125.402 175.499 126.102C175.999 126.502 176.699 126.802 177.099 127.302C177.299 127.502 177.699 127.502 177.499 128.102C177.499 128.302 177.899 128.102 178.099 128.302C178.399 128.602 178.699 129.002 178.999 129.302C179.399 129.802 179.799 130.302 180.299 130.702C180.599 131.002 180.999 131.102 181.299 131.302C181.599 131.602 181.899 131.902 182.099 132.202C182.399 132.602 182.599 133.102 182.899 133.602C183.199 134.002 183.799 134.302 183.899 134.802C184.199 135.802 184.999 136.402 185.599 137.102C186.199 137.802 186.799 138.502 187.499 139.102C187.899 139.402 187.899 140.102 188.199 140.502C188.399 140.702 187.499 141.902 187.099 142.202H186.899C186.199 142.202 185.399 142.202 184.999 141.802C184.499 141.102 183.799 140.502 183.199 139.902V140.102Z" fill="black"/>
<path d="M118.5 174.6C118.5 174.8 118.5 175.1 118.6 175.3C118.6 175.3 118.4 175.5 118.9 175.5C119.2 175.5 118.6 175.7 118.6 175.8C118.7 176 118.6 176.2 118.8 176.4C118.8 176.6 119.2 176.8 119.3 177C119.3 177.2 119.1 177.5 119.5 177.6C119.8 177.7 119.3 178 119.5 178.1C119.7 178.3 119.8 178.4 119.5 178.6C119.4 178.8 119.2 178.9 119.3 179C119.3 179 119.7 179 119.7 179.2C119.7 179.2 119.4 179.4 120.1 179.4C120.1 179.4 120.1 179.4 120 179.4C119.6 179.6 119.7 179.7 120 179.7C120.3 179.7 120.3 179.7 120.3 179.8C120.3 180 120.4 180.1 120.3 180.3C120.3 180.4 120.1 180.6 120 180.8C120 180.9 120.3 181 120 181.2C119.7 181.4 119.8 181.5 119.8 181.6C119.8 181.6 119.5 181.8 120.2 181.7C119.4 182.1 120.5 182.1 120.4 182.3C120.2 182.6 120.4 182.7 120.4 183C120.4 183 120.2 183.2 120.7 183.1C120.9 183.1 120.9 183.1 120.7 183.1C120.1 183.4 120.5 183.5 120.4 183.7C120.4 183.9 120.6 184 120.2 184.3C120 184.4 119.9 184.5 120.5 184.5C120.8 184.5 120.5 184.6 120.5 184.7C120.5 184.7 120.8 184.7 120.9 184.8C120.9 184.8 120.7 184.9 120.6 185C121.3 185.1 120.5 185.6 120.7 185.8C120.9 186 120.9 186.3 120.9 186.6C120.9 186.8 120.7 187 119.6 187.3C119.1 187.4 118.6 187.5 118.2 187.5C118 187.5 117.7 187.5 117.7 187.5C117.6 187.5 117.4 187.4 117.3 187.3C117.1 187.2 116.5 187.1 116.8 186.8C116.8 186.8 116.6 186.8 117.1 186.6C116.3 186.6 116.7 186.2 116.6 185.9C116.6 185.7 115.9 185.6 116.1 185.3C115.5 185.3 115.5 185.1 115.7 185C116.3 184.5 115.7 184.1 115.7 183.7C115.7 183.3 115.5 182.9 115.5 182.4C115.5 182.4 115.1 182.4 115.4 182.2C115.6 182.1 115.4 182 115.4 181.9C115.4 181.9 115.2 181.8 115.4 181.6C116 181.1 115.5 180.9 115.5 180.5C115.5 180.2 115.5 179.8 115.3 179.5C115.2 179.3 114.8 179.2 114.9 178.9C114.9 178.9 114.6 178.8 115.2 178.6C115.4 178.6 114.9 178.6 114.9 178.5C114.9 178.4 114.9 178.2 114.9 178.1C114.9 177.9 114.9 177.7 114.8 177.5C114.8 177.4 114.5 177.3 114.4 177.2C114.4 177.1 114.3 177 114.4 176.8C114.4 176.6 114.6 176.4 114.7 176.3C114.7 176.1 114.4 176 114.7 175.8C115.1 175.4 114.8 175.2 114.8 174.9C114.8 174.6 114.8 174.3 114.6 174C114.6 173.9 115 173.6 114.9 173.5C114.9 173.5 116.3 173.1 116.8 173H117C117.5 173 118.2 173 118.2 173.3C118.2 173.6 118.2 173.8 118.3 174.1L118.5 174.6Z" fill="black"/>
<path d="M166.101 147.302C166.501 147.102 166.801 147.002 167.201 146.702C167.301 146.702 167.601 146.702 167.501 146.202C167.501 145.902 167.901 146.402 168.001 146.402C168.301 146.202 168.701 146.102 169.001 145.902C169.301 145.702 169.501 145.302 169.801 145.102C170.101 144.902 170.601 145.102 170.801 144.602C171.001 144.202 171.401 144.602 171.601 144.302C171.801 144.102 172.101 143.902 172.501 144.002C172.801 144.002 173.101 144.202 173.201 144.002C173.201 143.902 173.201 143.502 173.401 143.502C173.501 143.502 173.801 143.702 173.701 143.002C173.701 143.002 173.701 143.002 173.901 143.002C174.201 143.302 174.401 143.202 174.401 143.002C174.401 142.702 174.501 142.702 174.601 142.602C174.901 142.502 175.201 142.302 175.501 142.302C175.701 142.302 176.001 142.302 176.301 142.302C176.501 142.302 176.701 141.902 177.001 142.102C177.301 142.302 177.501 142.202 177.701 142.102C177.801 142.102 178.101 142.302 177.901 141.602C178.501 142.302 178.501 141.102 178.901 141.202C179.301 141.202 179.601 141.002 180.001 140.902C180.001 140.902 180.301 141.002 180.201 140.502C180.201 140.302 180.201 140.302 180.401 140.402C180.901 140.902 181.001 140.402 181.301 140.402C181.601 140.402 181.901 140.002 182.301 140.402C182.501 140.602 182.701 140.602 182.701 140.002C182.701 139.702 182.901 140.002 183.001 139.802C183.001 139.802 183.001 139.402 183.201 139.402C183.201 139.402 183.401 139.602 183.501 139.702C183.801 138.902 184.501 139.702 184.901 139.302C185.301 139.002 185.801 138.902 186.301 138.902C186.601 138.902 186.901 138.902 187.401 140.002C187.601 140.502 187.801 141.002 187.701 141.402C187.701 141.702 187.701 141.902 187.601 142.002C187.501 142.102 187.401 142.302 187.301 142.402C187.101 142.702 186.901 143.302 186.601 143.102C186.501 143.102 186.501 143.402 186.201 142.902C186.001 143.802 185.501 143.402 185.101 143.602C184.801 143.802 184.601 144.502 184.201 144.302C184.201 145.002 184.001 144.902 183.701 144.802C182.801 144.402 182.301 145.002 181.601 145.202C180.901 145.302 180.301 145.702 179.601 145.902C179.501 145.902 179.601 146.302 179.301 146.102C179.101 145.902 179.001 146.102 178.801 146.202C178.701 146.202 178.601 146.402 178.401 146.302C177.601 145.902 177.301 146.502 176.701 146.602C176.201 146.702 175.601 146.902 175.201 147.302C174.901 147.502 174.801 148.002 174.401 148.002C174.201 148.002 174.201 148.402 173.901 147.902C173.801 147.802 173.901 148.202 173.801 148.302C173.601 148.402 173.401 148.502 173.201 148.602C172.901 148.702 172.601 148.802 172.301 149.002C172.101 149.102 172.101 149.402 171.901 149.602C171.701 149.702 171.601 149.802 171.301 149.902C171.001 149.902 170.701 149.902 170.401 149.902C170.101 149.902 170.001 150.302 169.601 150.202C168.901 150.002 168.601 150.402 168.201 150.602C167.701 150.802 167.301 150.902 166.901 151.302C166.701 151.502 166.201 151.202 166.001 151.302C165.901 151.302 165.101 150.102 164.901 149.702V149.502C164.901 149.002 164.801 148.202 165.101 148.102C165.501 148.002 165.901 147.702 166.301 147.502L166.101 147.302Z" fill="black"/>
<path d="M168.6 166.202C168.6 165.902 168.5 165.502 168.3 165.202C168.3 165.102 168.5 164.902 167.9 164.902C167.6 164.902 168.2 164.602 168.2 164.502C168.1 164.202 168.1 163.902 167.9 163.602C167.8 163.302 167.5 163.102 167.3 162.802C167.2 162.502 167.3 162.102 167 161.902C166.7 161.702 167.1 161.402 167 161.202C166.8 161.002 166.7 160.702 166.8 160.402C166.9 160.202 167.1 160.002 166.9 159.802C166.9 159.802 166.5 159.702 166.5 159.602C166.5 159.502 166.7 159.302 166.1 159.302C166.1 159.302 166.1 159.302 166.2 159.202C166.6 159.002 166.5 158.802 166.2 158.802C165.9 158.802 165.9 158.702 165.9 158.602C165.9 158.402 165.7 158.102 165.7 157.902C165.7 157.702 165.9 157.502 165.9 157.302C165.9 157.102 165.6 157.002 165.9 156.702C166.2 156.402 166.1 156.302 166 156.102C166 156.102 166.2 155.802 165.6 155.902C166.3 155.402 165.2 155.402 165.3 155.102C165.4 154.802 165.3 154.502 165.1 154.202C165.1 154.202 165.2 154.002 164.8 154.002C164.6 154.002 164.6 154.002 164.7 153.902C165.2 153.502 164.8 153.402 164.9 153.102C164.9 152.802 164.6 152.602 164.9 152.202C165.1 152.002 165.1 151.902 164.5 151.902C164.2 151.902 164.5 151.702 164.4 151.602C164.4 151.602 164 151.602 164 151.502C164 151.502 164.2 151.302 164.3 151.202C163.6 151.002 164.3 150.402 164 150.102C163.7 149.802 163.7 149.402 163.6 149.002C163.6 148.802 163.6 148.502 164.7 148.002C165.2 147.802 165.7 147.602 166 147.602C166.2 147.602 166.5 147.602 166.6 147.602C166.7 147.602 166.9 147.802 167 147.902C167.3 148.102 167.9 148.202 167.7 148.502C167.7 148.602 168 148.602 167.5 148.802C168.4 148.902 168 149.402 168.1 149.802C168.2 150.102 168.9 150.202 168.7 150.602C169.4 150.602 169.3 150.802 169.2 151.002C168.7 151.802 169.3 152.202 169.4 152.902C169.4 153.502 169.7 154.102 169.8 154.702C169.8 154.802 170.2 154.802 170 155.002C169.8 155.202 170 155.302 170 155.402C170 155.502 170.2 155.602 170 155.802C169.5 156.402 170 156.802 170 157.302C170 157.802 170 158.302 170.4 158.702C170.6 159.002 171 159.202 170.9 159.502C170.9 159.602 171.2 159.702 170.7 159.902C170.5 159.902 171 159.902 171.1 160.102C171.1 160.302 171.2 160.502 171.3 160.702C171.3 161.002 171.3 161.302 171.5 161.502C171.5 161.702 171.9 161.802 172 161.902C172.1 162.102 172.1 162.202 172.1 162.402C172.1 162.602 171.9 162.902 171.9 163.102C171.9 163.302 172.2 163.502 172 163.802C171.6 164.302 172 164.702 172 165.102C172 165.502 172.1 165.902 172.3 166.302C172.4 166.502 172 166.802 172.1 167.102C172.1 167.102 170.7 167.702 170.2 167.802H170C169.5 167.802 168.7 167.802 168.7 167.402C168.7 167.002 168.5 166.702 168.4 166.302L168.6 166.202Z" fill="black"/>
<path d="M162.2 186.203C162.3 185.803 162.5 185.403 162.5 185.003C162.5 184.803 162.8 184.803 162.4 184.503C162.2 184.303 162.8 184.403 162.8 184.203C162.8 183.803 163.1 183.503 163.1 183.103C163.1 182.703 163.1 182.303 163.1 181.903C163.1 181.503 163.6 181.303 163.4 180.803C163.2 180.403 163.8 180.303 163.8 180.003C163.8 179.703 163.8 179.303 164.1 179.103C164.3 178.903 164.6 178.803 164.6 178.603C164.6 178.403 164.3 178.203 164.4 178.103C164.4 178.003 164.8 177.903 164.2 177.603C164.2 177.603 164.2 177.603 164.4 177.603C164.8 177.603 164.9 177.403 164.6 177.203C164.4 177.003 164.5 176.903 164.5 176.803C164.5 176.503 164.6 176.203 164.8 175.903C164.9 175.703 165.2 175.603 165.4 175.403C165.5 175.203 165.4 174.903 165.7 174.703C166.1 174.603 166.1 174.403 166.2 174.203C166.2 174.103 166.6 174.003 166 173.703C166.9 173.703 166 173.003 166.3 172.703C166.6 172.403 166.6 172.003 166.7 171.703C166.7 171.703 166.9 171.603 166.5 171.303C166.4 171.303 166.4 171.103 166.5 171.103C167.2 171.103 166.9 170.603 167.1 170.403C167.3 170.103 167.1 169.703 167.7 169.603C167.9 169.603 168.1 169.403 167.6 169.103C167.4 168.903 167.6 168.903 167.6 168.803C167.6 168.703 167.3 168.503 167.4 168.403C167.4 168.403 167.7 168.403 167.8 168.303C167.3 167.703 168.3 167.503 168.2 167.003C168.2 166.703 168.2 166.603 168.2 166.303C168.2 166.003 168.4 165.703 168.6 165.303C168.8 164.903 169.3 164.503 170.4 165.103C170.9 165.303 171.3 165.703 171.5 166.003C171.6 166.203 171.8 166.403 171.8 166.503C171.8 166.603 171.9 166.803 172 166.903C172.1 167.103 172.6 167.403 172.2 167.703C172.1 167.703 172.3 168.003 171.8 167.903C172.5 168.503 171.8 168.903 171.8 169.303C171.8 169.703 172.2 170.203 171.8 170.503C172.3 170.903 172.2 171.103 171.9 171.203C171 171.703 171.2 172.503 170.9 173.203C170.6 173.903 170.4 174.603 170.1 175.303C170.1 175.403 170.4 175.603 170.1 175.703C169.8 175.703 169.9 176.003 169.9 176.103C169.9 176.203 169.9 176.403 169.7 176.503C168.9 176.803 169.1 177.503 168.8 178.003C168.5 178.503 168.3 179.003 168.3 179.603C168.3 180.003 168.5 180.403 168.3 180.703C168.2 180.803 168.5 181.103 167.9 181.003C167.7 181.003 168.1 181.303 168.1 181.403C168.1 181.603 168 181.903 167.9 182.103C167.8 182.403 167.6 182.703 167.6 183.103C167.6 183.303 167.7 183.603 167.7 183.803C167.7 184.003 167.7 184.203 167.5 184.403C167.3 184.603 167.1 184.803 166.9 185.103C166.8 185.303 166.9 185.703 166.6 185.903C166 186.203 166.1 186.803 165.9 187.203C165.7 187.603 165.5 188.103 165.5 188.603C165.5 188.903 165 189.003 164.9 189.203C164.9 189.303 163.4 189.203 162.9 189.003H162.7C162.3 188.603 161.7 188.203 161.8 187.903C162 187.403 162.1 187.003 162.2 186.503V186.203Z" fill="black"/>
<path d="M150.999 135.801C150.999 136.001 150.899 136.101 150.899 136.301C150.899 136.301 150.599 136.301 151.099 136.601C151.399 136.601 150.699 136.601 150.699 136.601C150.699 136.801 150.699 136.901 150.699 137.101C150.699 137.301 150.899 137.501 150.899 137.601C150.899 137.801 150.599 137.901 150.899 138.101C151.199 138.301 150.599 138.301 150.699 138.401C150.799 138.601 150.899 138.701 150.699 138.801C150.499 138.801 150.299 138.901 150.399 139.001C150.399 139.001 150.799 139.201 150.699 139.201C150.699 139.201 150.399 139.201 150.999 139.401C150.999 139.401 150.999 139.401 150.799 139.401C150.399 139.401 150.399 139.401 150.699 139.601C150.999 139.601 150.899 139.701 150.899 139.801C150.899 139.901 150.899 140.101 150.899 140.201C150.899 140.201 150.599 140.401 150.499 140.501C150.499 140.501 150.699 140.701 150.399 140.801C150.099 140.801 150.099 141.001 150.099 141.101C150.099 141.101 149.799 141.201 150.399 141.301C149.599 141.401 150.599 141.601 150.399 141.801C150.199 142.001 150.399 142.101 150.399 142.301C150.399 142.301 150.199 142.301 150.699 142.401C150.899 142.401 150.899 142.401 150.699 142.401C150.099 142.501 150.499 142.601 150.299 142.801C150.199 142.901 150.499 143.101 149.999 143.201C149.799 143.201 149.699 143.401 150.299 143.401C150.599 143.401 150.299 143.501 150.299 143.601C150.299 143.601 150.599 143.601 150.599 143.701C150.599 143.701 150.399 143.701 150.299 143.801C150.999 144.001 150.099 144.201 150.299 144.401C150.499 144.601 150.399 144.801 150.299 145.001C150.299 145.101 150.099 145.301 148.899 145.401C148.399 145.401 147.799 145.501 147.499 145.501C147.299 145.501 146.999 145.501 146.999 145.501C146.899 145.501 146.799 145.401 146.699 145.301C146.499 145.201 145.899 145.101 146.199 144.901C146.199 144.901 145.999 144.901 146.499 144.701C145.699 144.501 146.199 144.301 146.099 144.101C146.099 143.901 145.399 143.801 145.699 143.601C145.099 143.601 145.199 143.401 145.399 143.301C146.099 142.901 145.599 142.601 145.699 142.201C145.699 141.801 145.699 141.501 145.699 141.101C145.699 141.101 145.399 141.001 145.699 140.901C145.999 140.901 145.699 140.701 145.699 140.701C145.699 140.701 145.599 140.501 145.699 140.501C146.399 140.301 145.999 139.901 146.099 139.701C146.199 139.401 146.299 139.101 146.099 138.801C146.099 138.601 145.699 138.401 145.899 138.201C145.899 138.201 145.599 138.001 146.199 138.001C146.399 138.001 145.899 137.901 145.899 137.801C145.899 137.701 145.899 137.601 145.899 137.401C145.899 137.201 145.999 137.101 145.899 136.901C145.899 136.801 145.699 136.601 145.599 136.501C145.599 136.401 145.599 136.301 145.599 136.201C145.699 136.101 145.899 136.001 145.999 135.901C145.999 135.801 145.899 135.601 146.199 135.501C146.799 135.401 146.599 135.101 146.699 134.801C146.799 134.601 146.899 134.401 146.899 134.101C146.899 133.901 147.399 134.001 147.399 133.801C147.399 133.801 148.899 134.101 149.299 134.201H149.499C149.899 134.501 150.599 134.801 150.499 134.901C150.399 135.101 150.399 135.301 150.299 135.501L150.999 135.801Z" fill="black"/>
<path d="M162.3 135.801C162.3 136.001 162.2 136.101 162.2 136.301C162.2 136.301 161.9 136.301 162.4 136.601C162.7 136.601 162 136.601 162 136.601C162 136.801 162 136.901 162 137.101C162 137.301 162.2 137.501 162.2 137.601C162.2 137.801 161.9 137.901 162.2 138.101C162.5 138.301 161.9 138.301 162 138.401C162.1 138.601 162.2 138.701 162 138.801C161.8 138.801 161.6 138.901 161.7 139.001C161.7 139.001 162.1 139.201 162 139.201C162 139.201 161.7 139.201 162.3 139.401C162.3 139.401 162.3 139.401 162.1 139.401C161.7 139.401 161.7 139.401 162 139.601C162.3 139.601 162.2 139.701 162.2 139.801C162.2 139.901 162.2 140.101 162.2 140.201C162.2 140.201 161.9 140.401 161.8 140.501C161.8 140.501 162 140.701 161.7 140.801C161.4 140.801 161.4 141.001 161.4 141.101C161.4 141.101 161.1 141.201 161.7 141.301C160.9 141.401 161.9 141.601 161.7 141.801C161.5 142.001 161.7 142.101 161.7 142.301C161.7 142.301 161.5 142.301 162 142.401C162.2 142.401 162.2 142.401 162 142.401C161.4 142.501 161.8 142.601 161.6 142.801C161.5 142.901 161.8 143.101 161.3 143.201C161.1 143.201 161 143.401 161.6 143.401C161.9 143.401 161.6 143.501 161.6 143.601C161.6 143.601 161.9 143.601 161.9 143.701C161.9 143.701 161.7 143.701 161.6 143.801C162.3 144.001 161.4 144.201 161.6 144.401C161.8 144.601 161.7 144.801 161.6 145.001C161.6 145.101 161.4 145.301 160.2 145.401C159.7 145.401 159.1 145.501 158.8 145.501C158.6 145.501 158.3 145.501 158.3 145.501C158.2 145.501 158.1 145.401 158 145.301C157.8 145.201 157.2 145.101 157.5 144.901C157.5 144.901 157.3 144.901 157.8 144.701C157 144.501 157.5 144.301 157.4 144.101C157.4 143.901 156.7 143.801 157 143.601C156.4 143.601 156.5 143.401 156.7 143.301C157.4 142.901 156.9 142.601 157 142.201C157 141.801 157 141.501 157 141.101C157 141.101 156.7 141.001 157 140.901C157.3 140.901 157 140.701 157 140.701C157 140.701 156.9 140.501 157 140.501C157.7 140.301 157.3 139.901 157.4 139.701C157.5 139.401 157.6 139.101 157.4 138.801C157.4 138.601 157 138.401 157.2 138.201C157.2 138.201 156.9 138.001 157.5 138.001C157.7 138.001 157.2 137.901 157.2 137.801C157.2 137.701 157.2 137.601 157.2 137.401C157.2 137.201 157.3 137.101 157.2 136.901C157.2 136.801 157 136.601 156.9 136.501C156.9 136.401 156.9 136.301 156.9 136.201C157 136.101 157.2 136.001 157.3 135.901C157.3 135.801 157.2 135.601 157.5 135.501C158.1 135.401 157.9 135.101 158 134.801C158.1 134.601 158.2 134.401 158.2 134.101C158.2 133.901 158.7 134.001 158.7 133.801C158.7 133.801 160.2 134.101 160.6 134.201H160.8C161.2 134.501 161.9 134.801 161.8 134.901C161.7 135.101 161.7 135.301 161.6 135.501L162.3 135.801Z" fill="black"/>
<path d="M162.599 169.701C162.399 169.701 162.099 169.801 161.899 169.901C161.899 169.901 161.699 169.701 161.699 170.301C161.699 170.601 161.499 170.001 161.399 170.001C161.199 170.101 160.899 170.001 160.699 170.201C160.499 170.201 160.299 170.601 159.999 170.601C159.799 170.601 159.499 170.401 159.299 170.701C159.099 171.001 158.899 170.501 158.699 170.701C158.499 170.801 158.299 170.901 158.099 170.701C157.999 170.501 157.799 170.301 157.699 170.401C157.699 170.401 157.499 170.801 157.399 170.701C157.399 170.701 157.199 170.401 157.099 171.001C157.099 171.001 157.099 171.001 157.099 170.801C157.099 170.401 156.899 170.401 156.799 170.701C156.699 171.001 156.599 170.901 156.499 170.901C156.299 170.901 156.099 170.901 155.899 170.901C155.799 170.901 155.699 170.601 155.499 170.501C155.399 170.501 155.099 170.701 155.099 170.301C155.099 170.001 154.899 169.901 154.799 169.901C154.799 169.901 154.799 169.601 154.499 170.201C154.499 169.401 153.999 170.301 153.799 170.001C153.599 169.701 153.399 169.801 153.099 169.701C153.099 169.701 153.099 169.501 152.799 169.901C152.799 170.001 152.599 170.001 152.699 169.901C152.699 169.201 152.499 169.501 152.299 169.401C152.199 169.201 151.799 169.401 151.899 168.801C151.899 168.601 151.899 168.401 151.499 168.801C151.299 169.001 151.399 168.801 151.299 168.801L150.999 169.001C150.999 169.001 150.999 168.701 150.999 168.601C150.399 169.001 150.599 168.101 150.299 168.001C149.899 168.001 149.699 167.701 149.499 167.401C149.499 167.201 149.399 167.001 150.099 166.101C150.399 165.701 150.799 165.301 151.099 165.101C151.299 165.001 151.499 164.801 151.599 164.801C151.699 164.801 151.899 164.801 151.999 164.701C152.199 164.701 152.699 164.301 152.599 164.701C152.599 164.701 152.799 164.601 152.599 165.001C153.199 164.501 153.099 165.001 153.299 165.001C153.499 165.001 153.899 164.601 153.899 165.001C154.299 164.501 154.299 164.601 154.299 164.801C154.299 165.501 154.799 165.301 154.999 165.501C155.299 165.701 155.599 165.701 155.899 165.901C155.899 165.901 156.099 165.601 156.099 165.901C156.099 166.201 156.199 165.901 156.299 166.001H156.499C156.599 166.701 156.999 166.401 157.199 166.501C157.499 166.501 157.699 166.701 157.999 166.501C158.199 166.501 158.299 166.101 158.499 166.201C158.499 166.201 158.599 165.901 158.699 166.501C158.699 166.701 158.699 166.201 158.799 166.201C158.899 166.201 158.999 166.201 159.099 166.201C159.199 166.201 159.399 166.201 159.499 166.201C159.499 166.201 159.699 165.901 159.699 165.801C159.699 165.801 159.899 165.801 159.999 165.801C160.099 165.801 160.299 166.001 160.399 166.101C160.499 166.101 160.599 165.801 160.799 166.101C161.099 166.501 161.299 166.201 161.499 166.201C161.699 166.201 161.999 166.201 162.099 166.001C162.099 165.901 162.499 166.301 162.599 166.301C162.599 166.301 163.299 167.601 163.499 168.101V168.301C163.499 168.801 163.699 169.501 163.499 169.501C163.199 169.501 162.899 169.701 162.699 169.801L162.599 169.701Z" fill="black"/>
<path d="M130.901 167.5C130.801 166.2 130.801 164.9 130.701 163.6C130.701 163.1 130.901 162.6 130.401 162.1C130.101 161.8 130.801 161.4 130.801 161C130.801 159.8 130.901 158.6 130.901 157.5C130.901 156.4 130.801 155.2 130.901 154.1C130.901 153 131.401 151.8 131.101 150.7C130.901 149.7 131.501 149 131.501 148.1C131.501 147.2 131.501 146.2 131.801 145.3C132.001 144.7 132.301 144 132.201 143.3C132.201 142.9 131.901 142.5 131.901 142C131.901 141.6 132.301 141.1 131.701 140.7C131.701 140.7 131.701 140.5 131.901 140.4C132.301 140 132.401 139.4 132.101 139C131.901 138.6 131.901 138.3 131.901 137.9C131.901 136.9 132.001 135.9 132.301 134.9C132.501 134.1 132.801 133.4 133.101 132.7C133.301 131.9 133.301 131 133.801 130.4C134.301 129.8 134.601 129.1 134.801 128.4C134.901 128 135.401 127.7 135.001 127.1C135.001 127.1 135.001 126.9 135.101 126.9C136.401 126.2 136.001 124.7 136.801 123.8C137.701 122.9 138.301 121.8 139.101 120.8C139.301 120.5 139.701 120.4 139.601 119.9C139.601 119.7 139.801 119.4 140.001 119.4C141.101 119.2 141.601 118.3 142.401 117.7C143.301 117.1 144.101 116.2 145.301 116.1C145.801 116.1 146.401 115.8 146.601 115C146.701 114.6 147.301 114.6 147.701 114.4C148.001 114.2 148.201 113.8 148.501 113.7C148.801 113.6 149.101 113.7 149.401 113.7C149.401 113.7 149.601 113.7 149.701 113.7C150.401 113.1 151.201 112.9 152.001 112.9C152.801 112.9 153.701 112.9 154.501 112.7C156.201 112.4 158.001 112.6 159.701 113.2C160.601 113.5 161.501 114.1 161.501 115.4C161.501 116 161.201 116.4 160.801 116.6C160.501 116.7 160.101 116.8 159.901 116.7C159.501 116.7 159.001 116.7 158.601 116.7C157.701 116.7 156.901 117.1 156.101 116.7C155.801 116.7 155.501 116.9 155.301 116.4C155.301 116.4 155.201 116.3 155.101 116.4C154.001 117.2 152.801 116.9 151.601 117.4C150.601 117.8 150.001 118.7 148.901 118.9C148.701 119.7 148.101 119.9 147.501 120.1C145.401 120.6 144.101 122.3 142.701 123.7C141.201 125.2 140.101 127 139.101 128.8C138.901 129.1 139.101 129.5 138.701 129.8C138.301 130.1 138.301 130.6 138.101 131C138.001 131.4 137.901 131.8 137.701 132.2C136.601 133.6 136.701 135.4 136.401 137C136.101 138.7 136.001 140.4 136.001 142.2C136.001 143.3 136.301 144.4 136.001 145.5C136.001 146 136.201 146.5 135.601 146.9C135.401 147 135.801 147.5 135.801 147.8C135.801 148.5 135.701 149.3 135.601 150C135.501 151 135.301 152.1 135.301 153.1C135.301 153.7 135.501 154.4 135.501 155C135.501 155.7 135.501 156.3 135.301 156.9C135.201 157.7 134.901 158.5 134.801 159.3C134.701 160.1 134.901 161 134.601 161.8C134.001 163.3 134.301 164.8 134.401 166.3C134.401 167.8 134.501 169.3 134.901 170.7C135.101 171.5 134.801 172.3 134.901 173.1C134.901 173.5 133.701 174.3 133.201 174.3C133.101 174.3 133.001 174.3 132.901 174.2C132.301 173.5 131.301 172.9 131.201 171.9C131.101 171.2 131.001 170.4 130.901 169.7C130.801 169 130.701 168.2 130.701 167.5H130.901Z" fill="black"/>
<path d="M114.2 173.902C114.5 173.902 114.8 173.902 115.2 173.902C115.3 173.902 115.5 174.102 115.5 173.602C115.5 173.302 115.7 174.002 115.8 173.902C116.1 173.802 116.4 173.902 116.7 173.802C117 173.802 117.3 173.402 117.6 173.302C117.9 173.202 118.2 173.402 118.5 173.102C118.7 172.802 119 173.202 119.2 173.102C119.4 172.902 119.7 172.802 120 173.002C120.2 173.102 120.4 173.302 120.6 173.202C120.7 173.202 120.7 172.802 120.9 172.802C121 172.802 121.2 173.002 121.2 172.402C121.2 172.402 121.2 172.402 121.3 172.502C121.5 172.902 121.7 172.802 121.7 172.502C121.7 172.202 121.9 172.202 121.9 172.202C122.2 172.202 122.4 172.002 122.7 172.002C122.9 172.002 123.2 172.202 123.4 172.202C123.6 172.202 123.8 171.902 124.1 172.202C124.4 172.502 124.5 172.402 124.7 172.402C124.8 172.402 125 172.602 125 172.002C125.4 172.802 125.6 171.702 126 171.802C126.4 172.002 126.7 171.802 127.1 171.802C127.1 171.802 127.3 172.002 127.4 171.502C127.4 171.302 127.5 171.302 127.6 171.502C127.9 172.102 128.2 171.702 128.5 171.802C128.8 171.902 129.1 171.602 129.5 172.102C129.6 172.302 129.8 172.402 130 171.802C130 171.502 130.2 171.802 130.4 171.802C130.5 171.802 130.6 171.502 130.7 171.502C130.7 171.502 130.9 171.702 130.9 171.902C131.2 171.602 131.4 171.702 131.6 171.902C131.7 171.902 131.8 172.102 131.9 172.102C132.1 172.102 132.2 172.202 132.4 172.202C133.1 172.202 134 172.602 134.4 173.302C134.7 173.602 134.8 174.202 133.9 175.102C133.7 175.302 133.5 175.502 133.3 175.602C133.1 175.702 133 175.802 132.8 175.902C132.6 175.902 132.4 176.102 132.4 176.002C132.4 176.002 132.2 176.002 132.1 176.002C132 176.002 131.8 176.102 131.7 176.202C131.6 176.202 131.6 176.302 131.6 176.202C131.6 176.202 131.5 176.402 131.6 175.902C131.4 176.302 131.4 176.302 131.2 176.302C131 176.302 130.9 176.102 130.7 176.102C130.4 176.102 130.1 176.702 129.8 176.402C129.6 177.002 129.5 176.902 129.3 176.702C128.7 176.002 128.2 176.502 127.6 176.502C127 176.502 126.4 176.602 125.8 176.702C125.7 176.702 125.7 177.102 125.5 176.802C125.3 176.602 125.2 176.802 125.1 176.802C125 176.802 124.9 177.002 124.7 176.802C124.1 176.202 123.7 176.802 123.2 176.802C122.7 176.802 122.2 176.802 121.7 177.102C121.4 177.302 121.2 177.702 120.8 177.602C120.7 177.602 120.6 177.902 120.3 177.402C120.3 177.202 120.2 177.702 120.1 177.802C119.9 177.802 119.7 177.902 119.5 177.902C119.2 177.902 118.9 177.902 118.6 178.102C118.4 178.102 118.3 178.402 118.1 178.502C117.9 178.502 117.7 178.602 117.5 178.502C117.2 178.502 116.9 178.302 116.7 178.302C116.4 178.302 116.2 178.602 115.9 178.302C115.4 177.802 114.9 178.102 114.4 178.102C113.9 178.102 113.4 178.102 112.9 178.102C112.6 178.102 112.4 177.602 112.1 177.602C112 177.602 112 176.102 112.1 175.602V175.402C112.4 175.002 112.6 174.202 112.9 174.302C113.2 174.402 113.6 174.302 114 174.302L114.2 173.902Z" fill="black"/>
<path d="M92.1 180.6H89.5C89.3 178.4 89.1 176.2 88.9 173.9C88.9 173.1 89 172.2 88.5 171.4C88.2 171 88.8 170.2 88.8 169.4C88.8 168.4 88.8 167.3 88.8 166.3C88.8 165.3 88.8 164.2 88.8 163.2C88.8 161.2 88.6 159.2 88.7 157.2C88.7 155.2 89.2 153.2 89.1 151.2C89 149.5 89.6 148.1 89.7 146.5C89.7 144.8 90 143.1 90.5 141.5C90.9 140.3 91.3 139.2 91.4 138C91.4 137.3 91.4 136.5 91.4 135.7C91.6 135 92 134.2 91.5 133.4C91.5 133.4 91.6 133 91.8 132.9C92.4 132.2 92.6 131.2 92.5 130.5C92.4 129.8 92.5 129.2 92.7 128.6C93.1 126.9 93.5 125.2 94.2 123.6C94.7 122.3 95.5 121.2 96.2 120C96.9 118.8 97.6 117.3 98.8 116.4C100 115.6 100.9 114.7 102 114C102.6 113.6 103.5 113.4 103.8 112.6C103.8 112.6 104.1 112.4 104.2 112.4C105.3 112.3 106.3 111.9 107.2 111.4C108.1 110.9 109.1 110.5 110.1 110.3C112.2 110 114.3 109.5 116.3 109.3C116.8 109.3 117.5 109.3 117.9 108.8C118.1 108.6 118.6 108.5 118.9 108.6C120.5 109 122 108.5 123.6 108.4C125.4 108.4 127.2 107.9 129 108.4C129.8 108.6 130.8 108.6 131.7 108C132.1 107.7 133 108 133.6 107.9C134.1 107.9 134.6 107.6 135.2 107.5C135.7 107.5 136.1 107.7 136.6 107.8C136.7 107.8 136.9 107.8 137 107.8C139.6 107.1 142.2 108 144.8 107.9C147.4 107.9 150.1 108.1 152.7 108.4C154.2 108.6 155.6 108.9 156.5 110.2C156.9 110.8 156.8 111.3 156.2 111.6C155.7 111.8 155.2 112 154.7 112C153.9 112 153.1 112 152.3 112.1C150.6 112.1 149 112.6 147.3 112.2C146.8 112.1 146.1 112.4 145.7 111.8C145.7 111.8 145.4 111.7 145.3 111.8C143 112.5 140.7 111.9 138.3 112C136.3 112 134.4 112.7 132.5 112.5C131.4 113.2 130.2 113.1 129.1 113C125.2 112.6 121.3 113.4 117.5 113.8C113.6 114.2 109.8 114.9 106.5 116.4C105.9 116.7 105.7 117.2 104.9 117.3C104.2 117.4 103.6 118.1 103.1 118.5C102.6 119 102.2 119.5 101.7 119.9C100.6 120.7 99.8 121.9 99.2 123.3C98.6 124.6 98.2 126.1 97.7 127.5C96.8 130.4 96 133.4 95.5 136.5C95.2 138.4 95.2 140.3 94.8 142.1C94.6 142.9 94.8 143.8 94.1 144.5C93.9 144.7 94.2 145.5 94.1 146C94 147.3 93.8 148.6 93.6 149.8C93.4 151.6 93.2 153.4 93.1 155.2C93.1 156.3 93.2 157.4 93.2 158.5C93.2 159.6 93.2 160.8 93.1 161.9C93 163.3 92.8 164.8 92.7 166.2C92.7 167.7 92.9 169.3 92.7 170.7C92.5 172 92.5 173.4 92.6 174.7V175.7L92.7 176.1C92.7 176.4 92.7 176.7 92.7 177H93.3H93.9H94.9C96.2 177 97.6 176.9 98.9 176.8C100.4 176.7 101.8 177.1 103.3 177C104 177 105 178.4 104.7 178.9C104.7 178.9 104.5 179.1 104.4 179.1C103 179.6 101.7 180.4 100 180.4C98.8 180.4 97.5 180.4 96.3 180.5L91.9 180.7L92.1 180.6Z" fill="black"/>
<path d="M178.8 125.801C178.8 125.001 178.7 124.201 178.5 123.501C178.5 123.201 178.7 122.901 178.1 122.701C177.8 122.601 178.4 122.201 178.3 122.001C178.1 121.301 178.1 120.601 177.8 119.901C177.6 119.201 177.2 118.601 177 117.901C176.8 117.201 176.8 116.501 176.3 115.901C175.9 115.401 176.2 114.801 175.9 114.301C175.6 113.801 175.3 113.201 175.3 112.601C175.3 112.201 175.3 111.701 175.1 111.401C174.9 111.201 174.5 111.101 174.4 110.901C174.4 110.701 174.4 110.301 173.8 110.401C173.8 110.401 173.8 110.301 173.8 110.201C174 109.801 173.8 109.501 173.5 109.501C173.2 109.501 173.1 109.301 173 109.101C172.7 108.701 172.4 108.301 172.1 107.901C171.9 107.601 171.8 107.101 171.6 106.801C171.4 106.501 170.9 106.401 170.8 106.001C170.7 105.501 170.4 105.301 170.1 105.201C169.9 105.101 169.8 104.701 169.4 105.201H169.3C169.3 104.701 168.9 104.701 168.6 104.701C168.3 104.701 168 104.901 167.7 104.701C167.2 104.401 166.6 104.501 166.1 104.601C166 104.601 165.8 104.401 165.7 104.901C165.7 105.101 165.6 105.101 165.5 105.001C165 104.501 164.7 105.001 164.3 105.001C163.8 105.101 163.5 105.601 162.8 105.601C162.5 105.601 162.1 105.601 162.3 106.301C162.3 106.601 162 106.601 161.8 106.801C161.7 107.001 161.8 107.301 161.6 107.401C161.5 107.501 161.2 107.401 161 107.401C161 107.401 160.9 107.401 160.9 107.501C160.7 108.601 159.4 108.601 158.9 109.401C158.4 110.201 157.7 110.801 157.1 111.501C156.7 111.901 156.3 112.101 155.1 111.701C154.6 111.501 154.2 111.201 154 110.801C154 110.501 153.9 110.201 154 110.001C154.1 109.701 154.2 109.401 154.3 109.101C154.6 108.501 154.6 107.601 155.2 107.301C155.4 107.301 155.4 106.801 155.8 107.001H156C156 105.801 157.1 105.501 157.7 104.901C158.2 104.301 158.4 103.401 159.2 103.101C159.2 102.301 159.7 102.101 160.2 101.901C161.1 101.701 161.9 101.301 162.7 100.901C163.5 100.501 164.4 100.201 165.4 100.101C167.3 100.001 169.2 100.301 170.9 101.001C171.2 101.101 171.6 101.001 171.8 101.301C172 101.701 172.4 101.701 172.8 101.901C173.1 102.101 173.5 102.201 173.7 102.501C174.4 103.901 175.5 104.501 176.3 105.601C177 106.701 177.6 107.801 178.3 108.901C178.7 109.501 179.3 110.101 179.5 110.801C179.5 111.101 180 111.301 179.5 111.801C179.4 111.901 179.9 112.101 180 112.201C180.2 112.701 180.4 113.201 180.5 113.601C180.7 114.301 180.9 115.001 181.1 115.601C181.3 116.001 181.6 116.401 181.8 116.801C182 117.201 182.1 117.701 182.1 118.101C182.1 118.701 182.1 119.301 182.1 119.901C182.1 120.501 182.5 121.101 182.3 121.701C182 122.801 182.3 123.801 182.3 124.901C182.3 125.901 182.3 127.001 182.5 128.001C182.5 128.601 182.1 129.101 182.1 129.701C182.1 130.001 180.6 130.301 180.1 130.201C180.1 130.201 179.9 130.201 179.9 130.101C179.4 129.601 178.7 129.101 178.7 128.501C178.7 127.601 178.7 126.701 178.6 125.901L178.8 125.801Z" fill="black"/>
<path d="M174.201 166.099C174.901 166.099 175.601 166.099 176.201 165.899C176.401 165.899 176.701 166.099 176.901 165.499C177.001 165.199 177.301 165.799 177.501 165.799C178.101 165.699 178.801 165.799 179.401 165.599C180.001 165.499 180.601 165.199 181.201 165.099C181.801 165.099 182.401 165.299 183.001 164.899C183.601 164.599 183.701 165.099 183.901 164.899C183.901 164.799 183.901 164.699 184.201 164.899C184.301 164.899 184.501 165.099 184.601 165.099C184.601 165.099 184.601 165.099 184.601 164.999C184.601 164.899 184.201 164.599 184.201 164.599C184.201 164.599 184.501 164.599 183.801 164.399C183.801 164.399 183.801 164.399 183.901 164.399C184.301 164.399 184.301 164.399 183.901 164.399C183.601 164.299 183.601 164.099 183.601 163.899C183.601 163.399 183.401 162.899 183.501 162.399C183.501 161.999 183.701 161.599 183.701 161.199C183.701 160.799 183.401 160.399 183.701 159.999C184.001 159.599 183.901 159.199 183.901 158.899C183.901 158.699 184.101 158.399 183.501 158.299C183.501 158.299 183.501 158.299 183.501 158.199C184.301 157.499 183.101 157.099 183.301 156.399C183.501 155.799 183.301 155.099 183.201 154.499C183.201 154.299 183.301 154.099 182.901 153.999C182.701 153.999 182.701 153.799 182.901 153.699C183.501 153.199 183.101 152.699 183.101 152.199C183.101 151.699 182.801 151.099 183.301 150.499C183.501 150.299 183.601 149.899 183.001 149.699C182.701 149.599 183.001 149.299 182.901 149.099C182.901 148.899 182.501 148.799 182.501 148.699C182.501 148.599 182.701 148.399 182.801 148.299C182.801 148.299 182.801 148.299 182.801 148.199C182.101 147.499 182.801 146.599 182.601 145.799C182.301 144.999 182.301 144.199 182.401 143.399C182.401 142.999 182.601 142.499 183.701 142.099C184.201 141.899 184.801 141.899 185.101 142.099C185.401 142.199 185.601 142.399 185.701 142.499C185.801 142.699 186.001 142.999 186.101 143.199C186.301 143.699 186.901 144.099 186.701 144.699C186.701 144.899 186.901 144.999 186.501 145.199C186.501 145.199 186.501 145.199 186.501 145.299C187.401 145.899 186.901 146.699 187.001 147.399C187.101 147.999 187.801 148.499 187.601 149.199C188.301 149.499 188.201 149.899 188.001 150.199C187.401 151.499 188.001 152.599 188.001 153.899C188.001 155.099 188.201 156.299 188.301 157.599C188.301 157.799 188.701 157.999 188.401 158.199C188.201 158.499 188.401 158.699 188.401 158.999C188.401 159.199 188.601 159.499 188.401 159.699C187.801 160.699 188.401 161.599 188.401 162.599V163.299V163.699V164.099C188.501 164.899 188.601 165.699 188.801 166.499C188.901 167.299 189.201 168.199 189.401 168.999C189.101 168.999 188.901 168.999 188.501 168.999C188.001 168.999 187.701 169.299 186.901 168.799C186.701 168.599 186.501 169.099 186.201 169.099C185.501 169.099 184.801 169.099 184.201 169.199H183.301C183.001 169.199 182.701 169.199 182.501 169.299C182.201 169.299 181.801 169.599 181.501 169.699C181.201 169.699 180.801 169.799 180.401 169.699C179.901 169.699 179.501 169.499 179.001 169.399C178.501 169.399 178.101 169.699 177.601 169.399C176.701 168.999 175.901 169.299 175.101 169.299C174.301 169.299 173.501 169.299 172.601 169.499C172.101 169.599 171.701 169.199 171.201 169.199C171.001 169.199 170.501 167.799 170.601 167.299V167.099C171.001 166.599 171.301 165.799 171.901 165.799C172.701 165.799 173.401 165.699 174.201 165.599V166.099Z" fill="black"/>
<path d="M110.801 175.999C110.801 175.599 110.801 175.199 110.601 174.699C110.601 174.499 110.801 174.399 110.201 174.299C109.901 174.299 110.501 173.999 110.501 173.899C110.401 173.499 110.501 173.099 110.301 172.699C110.201 172.299 109.901 171.999 109.801 171.599C109.701 171.199 110.001 170.799 109.601 170.499C109.301 170.199 109.801 169.899 109.601 169.599C109.401 169.299 109.301 168.999 109.601 168.599C109.801 168.399 110.001 168.099 109.801 167.899C109.801 167.799 109.401 167.699 109.401 167.499C109.401 167.399 109.701 167.199 109.001 167.099C109.001 167.099 109.001 167.099 109.101 166.999C109.501 166.799 109.501 166.599 109.101 166.499C108.801 166.399 108.801 166.299 108.801 166.199C108.801 165.899 108.701 165.499 108.801 165.199C108.801 164.999 109.101 164.699 109.101 164.499C109.101 164.199 108.901 163.999 109.101 163.699C109.401 163.499 109.401 163.199 109.401 162.999C109.401 162.899 109.701 162.699 109.001 162.599C109.801 162.199 108.701 161.899 109.001 161.499C109.201 161.099 109.001 160.699 109.001 160.299C109.001 160.199 109.201 160.099 108.701 159.999C108.501 159.999 108.501 159.899 108.701 159.799C109.301 159.499 108.901 159.199 109.101 158.899C109.201 158.599 108.901 158.199 109.401 157.899C109.601 157.799 109.701 157.599 109.101 157.399C108.801 157.399 109.101 157.199 109.101 156.999C109.101 156.899 108.801 156.799 108.801 156.699C108.801 156.699 109.001 156.499 109.101 156.399C108.401 155.899 109.401 155.399 109.201 154.899C109.001 154.399 109.201 153.899 109.201 153.399C109.201 153.099 109.501 152.799 110.601 152.699C111.101 152.699 111.701 152.699 112.001 152.799C112.201 152.899 112.501 152.999 112.501 153.099C112.501 153.299 112.701 153.399 112.801 153.599C113.001 153.899 113.501 154.299 113.201 154.599C113.201 154.599 113.401 154.799 112.901 154.899C113.701 155.399 113.101 155.799 113.201 156.199C113.201 156.599 113.901 156.999 113.601 157.299C114.201 157.499 114.101 157.799 113.901 157.999C113.201 158.699 113.701 159.499 113.601 160.199C113.601 160.899 113.601 161.699 113.601 162.399C113.601 162.499 114.001 162.599 113.601 162.799C113.301 162.899 113.601 163.099 113.601 163.299C113.601 163.499 113.701 163.599 113.601 163.699C113.001 164.299 113.401 164.899 113.301 165.499C113.301 166.099 113.301 166.699 113.401 167.299C113.501 167.699 113.901 167.999 113.801 168.299C113.801 168.499 114.101 168.599 113.501 168.799C113.301 168.799 113.801 168.999 113.801 169.099C113.801 169.299 113.801 169.599 113.801 169.799C113.801 170.099 113.801 170.499 113.901 170.799C113.901 170.999 114.201 171.199 114.301 171.399C114.301 171.599 114.401 171.799 114.301 171.999C114.301 172.299 114.101 172.599 114.101 172.899C114.101 173.199 114.401 173.499 114.101 173.799C113.701 174.399 114.001 174.799 114.101 175.399C114.101 175.899 114.101 176.399 114.401 176.899C114.501 177.199 114.101 177.499 114.101 177.799C114.101 177.899 112.701 178.399 112.201 178.399H112.001C111.501 178.199 110.701 178.099 110.701 177.699C110.701 177.199 110.601 176.699 110.501 176.299L110.801 175.999Z" fill="black"/>
</svg>
