<svg width="300" height="300" viewBox="0 0 300 300" fill="none" xmlns="http://www.w3.org/2000/svg">
<path d="M175.5 128.698C173.8 125.998 172.2 123.298 170.4 120.698C169.8 119.698 169.3 118.598 168.2 117.798C167.6 117.398 167.6 116.098 167 115.198C165.4 112.698 164 110.198 162.3 107.898C160.6 105.698 158.8 103.698 156.8 101.898C155.8 100.998 154.8 100.098 153.8 99.3983C152.7 98.6983 151.6 97.9983 150.4 97.5983C148.3 96.9983 146.6 95.8983 144.5 95.5983C142.3 95.2983 140 95.0983 137.8 94.8983C136.2 94.6983 134.6 94.6983 133 94.8983C132 95.0983 131.2 95.5983 130.1 95.8983C129.1 96.0983 127.9 96.1983 127.3 97.0983C127.3 97.0983 126.8 97.1983 126.5 97.1983C125.3 97.1983 124.1 97.7983 123.4 98.3983C122.7 98.9983 122 99.3983 121.4 99.7983C119.5 100.998 117.8 102.298 116.3 103.798C115.2 104.898 114.1 105.998 113.2 107.498C112.3 108.998 111.9 110.798 111.2 112.198C110.5 113.698 110.2 115.198 110.1 116.798C110.1 117.698 109.7 118.798 110.4 119.498C110.4 119.498 110.4 119.898 110.4 120.098C110 121.398 110.2 122.698 110.5 123.998C110.7 124.598 110.8 125.298 111 125.898C111.2 126.498 111.3 127.298 111.4 127.998C111.7 130.998 112.1 133.998 112.3 137.098C112.3 137.898 112.2 138.798 112.6 139.498C112.8 139.798 112.8 140.598 112.6 140.998C111.9 143.198 112.1 145.598 111.7 147.898C111.2 150.498 111 153.198 109.8 155.598C109.3 156.598 108.8 157.998 108.9 159.498C108.9 160.198 108.2 161.298 107.9 162.198C107.7 162.998 107.6 163.798 107.3 164.498C107 165.098 106.5 165.598 106.1 166.198C106 166.398 105.9 166.598 105.8 166.798C104.6 170.598 101.9 173.298 100.3 176.598C98.7003 179.898 97.2003 183.098 96.6003 186.398C96.3003 188.198 96.2003 189.998 95.3003 191.598C94.9003 192.298 94.3003 192.398 93.9003 191.598C93.6003 190.998 93.2003 190.198 93.2003 189.398C93.2003 188.798 93.0003 188.098 93.1003 187.498C93.1003 186.898 93.1003 186.198 93.1003 185.598C93.3003 182.998 93.7003 180.398 95.0003 178.098C95.4003 177.398 95.6003 176.398 96.3003 176.098C96.4003 176.098 96.6003 175.798 96.6003 175.598C97.5003 172.198 99.8003 169.498 101.3 166.598C102.6 164.098 103.1 161.398 104.4 158.898C104.4 157.198 105 155.598 105.6 154.198C107.7 149.098 107.9 143.498 107.8 137.998C107.8 135.198 107.5 132.398 107.1 129.598L106.4 125.298C106.2 123.798 106 122.298 106 120.698C106 119.698 105.6 118.798 106 117.498C106.3 116.398 106.2 114.898 106.5 113.498C106.7 112.298 106.9 110.998 107.4 109.898C108.4 107.698 109.5 105.498 110.9 103.398C112.3 101.298 114 99.4983 115.9 97.9983C119.8 95.0983 124.2 93.1983 128.7 91.7983C131.5 90.9983 134.3 90.1983 137.3 90.2983C138.5 90.2983 139.9 89.9983 141.1 90.6983C141.4 90.8983 142.6 90.5983 143.4 90.6983C145.4 90.9983 147.4 91.4983 149.3 92.0983C152 92.9983 154.5 94.2983 156.9 95.8983C158.4 96.8983 159.8 97.7983 161 98.9983C162.3 100.198 163.5 101.598 164.5 103.098C165.8 104.898 166.8 106.898 167.9 108.698C169 110.598 170.5 112.498 171.3 114.398C172.1 116.198 173.1 117.798 174.1 119.498C175.2 121.198 176.2 122.798 177.2 124.498C179.2 127.798 181.3 131.098 183.6 134.098C184.9 135.798 185.7 137.698 187.1 139.198C187.7 139.898 187.6 141.898 186.9 141.998C186.8 141.998 186.6 141.998 186.5 141.898C184.7 140.598 182.9 139.598 181.4 137.598C179.3 134.598 177.2 131.598 175.3 128.598L175.5 128.698Z" fill="black"/>
<path d="M166.1 147.298C166.5 147.098 166.8 146.998 167.2 146.698C167.3 146.698 167.6 146.698 167.5 146.198C167.5 145.898 167.9 146.398 168 146.398C168.3 146.198 168.7 146.098 169 145.898C169.3 145.698 169.5 145.298 169.8 145.098C170.1 144.898 170.6 145.098 170.8 144.598C171 144.198 171.4 144.598 171.6 144.298C171.8 144.098 172.1 143.898 172.5 143.998C172.8 143.998 173.1 144.198 173.2 143.998C173.2 143.898 173.2 143.498 173.4 143.498C173.5 143.498 173.8 143.698 173.7 142.998C173.7 142.998 173.7 142.998 173.9 142.998C174.2 143.298 174.4 143.198 174.4 142.998C174.4 142.698 174.5 142.698 174.6 142.598C174.9 142.498 175.2 142.298 175.5 142.298C175.7 142.298 176 142.298 176.3 142.298C176.5 142.298 176.7 141.898 177 142.098C177.3 142.298 177.5 142.198 177.7 142.098C177.8 142.098 178.1 142.298 177.9 141.598C178.5 142.298 178.5 141.098 178.9 141.198C179.3 141.198 179.6 140.998 180 140.898C180 140.898 180.3 140.998 180.2 140.498C180.2 140.298 180.2 140.298 180.4 140.398C180.9 140.898 181 140.398 181.3 140.398C181.6 140.398 181.9 139.998 182.3 140.398C182.5 140.598 182.7 140.598 182.7 139.998C182.7 139.698 182.9 139.998 183 139.798C183 139.798 183 139.398 183.2 139.398C183.2 139.398 183.4 139.598 183.5 139.698C183.8 138.898 184.5 139.698 184.9 139.298C185.3 138.998 185.8 138.898 186.3 138.898C186.6 138.898 186.9 138.898 187.4 139.998C187.6 140.498 187.8 140.998 187.7 141.398C187.7 141.698 187.7 141.898 187.6 141.998C187.5 142.098 187.4 142.298 187.3 142.398C187.1 142.698 186.9 143.298 186.6 143.098C186.5 143.098 186.5 143.398 186.2 142.898C186 143.798 185.5 143.398 185.1 143.598C184.8 143.798 184.6 144.498 184.2 144.298C184.2 144.998 184 144.898 183.7 144.798C182.8 144.398 182.3 144.998 181.6 145.198C180.9 145.298 180.3 145.698 179.6 145.898C179.5 145.898 179.6 146.298 179.3 146.098C179.1 145.898 179 146.098 178.8 146.198C178.7 146.198 178.6 146.398 178.4 146.298C177.6 145.898 177.3 146.498 176.7 146.598C176.2 146.698 175.6 146.898 175.2 147.298C174.9 147.498 174.8 147.998 174.4 147.998C174.2 147.998 174.2 148.398 173.9 147.898C173.8 147.798 173.9 148.198 173.8 148.298C173.6 148.398 173.4 148.498 173.2 148.598C172.9 148.698 172.6 148.798 172.3 148.998C172.1 149.098 172.1 149.398 171.9 149.598C171.7 149.698 171.6 149.798 171.3 149.898C171 149.898 170.7 149.898 170.4 149.898C170.1 149.898 170 150.298 169.6 150.198C168.9 149.998 168.6 150.398 168.2 150.598C167.7 150.798 167.3 150.898 166.9 151.298C166.7 151.498 166.2 151.198 166 151.298C165.9 151.298 165.1 150.098 164.9 149.698V149.498C164.9 148.998 164.8 148.198 165.1 148.098C165.5 147.998 165.9 147.698 166.3 147.498L166.1 147.298Z" fill="black"/>
<path d="M168.601 166.198C168.601 165.898 168.501 165.498 168.301 165.198C168.301 165.098 168.501 164.898 167.901 164.898C167.601 164.898 168.201 164.598 168.201 164.498C168.101 164.198 168.101 163.898 167.901 163.598C167.801 163.298 167.501 163.098 167.301 162.798C167.201 162.498 167.301 162.098 167.001 161.898C166.701 161.698 167.101 161.398 167.001 161.198C166.801 160.998 166.701 160.698 166.801 160.398C166.901 160.198 167.101 159.998 166.901 159.798C166.901 159.798 166.501 159.698 166.501 159.598C166.501 159.498 166.701 159.298 166.101 159.298C166.101 159.298 166.101 159.298 166.201 159.198C166.601 158.998 166.501 158.798 166.201 158.798C165.901 158.798 165.901 158.698 165.901 158.598C165.901 158.398 165.701 158.098 165.701 157.898C165.701 157.698 165.901 157.498 165.901 157.298C165.901 157.098 165.601 156.998 165.901 156.698C166.201 156.398 166.101 156.298 166.001 156.098C166.001 156.098 166.201 155.798 165.601 155.898C166.301 155.398 165.201 155.398 165.301 155.098C165.401 154.798 165.301 154.498 165.101 154.198C165.101 154.198 165.201 153.998 164.801 153.998C164.601 153.998 164.601 153.998 164.701 153.898C165.201 153.498 164.801 153.398 164.901 153.098C164.901 152.798 164.601 152.598 164.901 152.198C165.101 151.998 165.101 151.898 164.501 151.898C164.201 151.898 164.501 151.698 164.401 151.598C164.401 151.598 164.001 151.598 164.001 151.498C164.001 151.498 164.201 151.298 164.301 151.198C163.601 150.998 164.301 150.398 164.001 150.098C163.701 149.798 163.701 149.398 163.601 148.998C163.601 148.798 163.601 148.498 164.701 147.998C165.201 147.798 165.701 147.598 166.001 147.598C166.201 147.598 166.501 147.598 166.601 147.598C166.701 147.598 166.901 147.798 167.001 147.898C167.301 148.098 167.901 148.198 167.701 148.498C167.701 148.598 168.001 148.598 167.501 148.798C168.401 148.898 168.001 149.398 168.101 149.798C168.201 150.098 168.901 150.198 168.701 150.598C169.401 150.598 169.301 150.798 169.201 150.998C168.701 151.798 169.301 152.198 169.401 152.898C169.401 153.498 169.701 154.098 169.801 154.698C169.801 154.798 170.201 154.798 170.001 154.998C169.801 155.198 170.001 155.298 170.001 155.398C170.001 155.498 170.201 155.598 170.001 155.798C169.501 156.398 170.001 156.798 170.001 157.298C170.001 157.798 170.001 158.298 170.401 158.698C170.601 158.998 171.001 159.198 170.901 159.498C170.901 159.598 171.201 159.698 170.701 159.898C170.501 159.898 171.001 159.898 171.101 160.098C171.101 160.298 171.201 160.498 171.301 160.698C171.301 160.998 171.301 161.298 171.501 161.498C171.501 161.698 171.901 161.798 172.001 161.898C172.101 162.098 172.101 162.198 172.101 162.398C172.101 162.598 171.901 162.898 171.901 163.098C171.901 163.298 172.201 163.498 172.001 163.798C171.601 164.298 172.001 164.698 172.001 165.098C172.001 165.498 172.101 165.898 172.301 166.298C172.401 166.498 172.001 166.798 172.101 167.098C172.101 167.098 170.701 167.698 170.201 167.798H170.001C169.501 167.798 168.701 167.798 168.701 167.398C168.701 166.998 168.501 166.698 168.401 166.298L168.601 166.198Z" fill="black"/>
<path d="M162.2 186.199C162.3 185.799 162.5 185.399 162.5 184.999C162.5 184.799 162.8 184.799 162.4 184.499C162.2 184.299 162.8 184.399 162.8 184.199C162.8 183.799 163.1 183.499 163.1 183.099C163.1 182.699 163.1 182.299 163.1 181.899C163.1 181.499 163.6 181.299 163.4 180.799C163.2 180.399 163.8 180.299 163.8 179.999C163.8 179.699 163.8 179.299 164.1 179.099C164.3 178.899 164.6 178.799 164.6 178.599C164.6 178.399 164.3 178.199 164.4 178.099C164.4 177.999 164.8 177.899 164.2 177.599C164.2 177.599 164.2 177.599 164.4 177.599C164.8 177.599 164.9 177.399 164.6 177.199C164.4 176.999 164.5 176.899 164.5 176.799C164.5 176.499 164.6 176.199 164.8 175.899C164.9 175.699 165.2 175.599 165.4 175.399C165.5 175.199 165.4 174.899 165.7 174.699C166.1 174.599 166.1 174.399 166.2 174.199C166.2 174.099 166.6 173.999 166 173.699C166.9 173.699 166 172.999 166.3 172.699C166.6 172.399 166.6 171.999 166.7 171.699C166.7 171.699 166.9 171.599 166.5 171.299C166.4 171.299 166.4 171.099 166.5 171.099C167.2 171.099 166.9 170.599 167.1 170.399C167.3 170.099 167.1 169.699 167.7 169.599C167.9 169.599 168.1 169.399 167.6 169.099C167.4 168.899 167.6 168.899 167.6 168.799C167.6 168.699 167.3 168.499 167.4 168.399C167.4 168.399 167.7 168.399 167.8 168.299C167.3 167.699 168.3 167.499 168.2 166.999C168.2 166.699 168.2 166.599 168.2 166.299C168.2 165.999 168.4 165.699 168.6 165.299C168.8 164.899 169.3 164.499 170.4 165.099C170.9 165.299 171.3 165.699 171.5 165.999C171.6 166.199 171.8 166.399 171.8 166.499C171.8 166.599 171.9 166.799 172 166.899C172.1 167.099 172.6 167.399 172.2 167.699C172.1 167.699 172.3 167.999 171.8 167.899C172.5 168.499 171.8 168.899 171.8 169.299C171.8 169.699 172.2 170.199 171.8 170.499C172.3 170.899 172.2 171.099 171.9 171.199C171 171.699 171.2 172.499 170.9 173.199C170.6 173.899 170.4 174.599 170.1 175.299C170.1 175.399 170.4 175.599 170.1 175.699C169.8 175.699 169.9 175.999 169.9 176.099C169.9 176.199 169.9 176.399 169.7 176.499C168.9 176.799 169.1 177.499 168.8 177.999C168.5 178.499 168.3 178.999 168.3 179.599C168.3 179.999 168.5 180.399 168.3 180.699C168.2 180.799 168.5 181.099 167.9 180.999C167.7 180.999 168.1 181.299 168.1 181.399C168.1 181.599 168 181.899 167.9 182.099C167.8 182.399 167.6 182.699 167.6 183.099C167.6 183.299 167.7 183.599 167.7 183.799C167.7 183.999 167.7 184.199 167.5 184.399C167.3 184.599 167.1 184.799 166.9 185.099C166.8 185.299 166.9 185.699 166.6 185.899C166 186.199 166.1 186.799 165.9 187.199C165.7 187.599 165.5 188.099 165.5 188.599C165.5 188.899 165 188.999 164.9 189.199C164.9 189.299 163.4 189.199 162.9 188.999H162.7C162.3 188.599 161.7 188.199 161.8 187.899C162 187.399 162.1 186.999 162.2 186.499V186.199Z" fill="black"/>
<path d="M151 135.797C151 135.997 150.9 136.097 150.9 136.297C150.9 136.297 150.6 136.297 151.1 136.597C151.4 136.597 150.7 136.597 150.7 136.597C150.7 136.797 150.7 136.897 150.7 137.097C150.7 137.297 150.9 137.497 150.9 137.597C150.9 137.797 150.6 137.897 150.9 138.097C151.2 138.297 150.6 138.297 150.7 138.397C150.8 138.597 150.9 138.697 150.7 138.797C150.5 138.797 150.3 138.897 150.4 138.997C150.4 138.997 150.8 139.197 150.7 139.197C150.7 139.197 150.4 139.197 151 139.397C151 139.397 151 139.397 150.8 139.397C150.4 139.397 150.4 139.397 150.7 139.597C151 139.597 150.9 139.697 150.9 139.797C150.9 139.897 150.9 140.097 150.9 140.197C150.9 140.197 150.6 140.397 150.5 140.497C150.5 140.497 150.7 140.697 150.4 140.797C150.1 140.797 150.1 140.997 150.1 141.097C150.1 141.097 149.8 141.197 150.4 141.297C149.6 141.397 150.6 141.597 150.4 141.797C150.2 141.997 150.4 142.097 150.4 142.297C150.4 142.297 150.2 142.297 150.7 142.397C150.9 142.397 150.9 142.397 150.7 142.397C150.1 142.497 150.5 142.597 150.3 142.797C150.2 142.897 150.5 143.097 150 143.197C149.8 143.197 149.7 143.397 150.3 143.397C150.6 143.397 150.3 143.497 150.3 143.597C150.3 143.597 150.6 143.597 150.6 143.697C150.6 143.697 150.4 143.697 150.3 143.797C151 143.997 150.1 144.197 150.3 144.397C150.5 144.597 150.4 144.797 150.3 144.997C150.3 145.097 150.1 145.297 148.9 145.397C148.4 145.397 147.8 145.497 147.5 145.497C147.3 145.497 147 145.497 147 145.497C146.9 145.497 146.8 145.397 146.7 145.297C146.5 145.197 145.9 145.097 146.2 144.897C146.2 144.897 146 144.897 146.5 144.697C145.7 144.497 146.2 144.297 146.1 144.097C146.1 143.897 145.4 143.797 145.7 143.597C145.1 143.597 145.2 143.397 145.4 143.297C146.1 142.897 145.6 142.597 145.7 142.197C145.7 141.797 145.7 141.497 145.7 141.097C145.7 141.097 145.4 140.997 145.7 140.897C146 140.897 145.7 140.697 145.7 140.697C145.7 140.697 145.6 140.497 145.7 140.497C146.4 140.297 146 139.897 146.1 139.697C146.2 139.397 146.3 139.097 146.1 138.797C146.1 138.597 145.7 138.397 145.9 138.197C145.9 138.197 145.6 137.997 146.2 137.997C146.4 137.997 145.9 137.897 145.9 137.797C145.9 137.697 145.9 137.597 145.9 137.397C145.9 137.197 146 137.097 145.9 136.897C145.9 136.797 145.7 136.597 145.6 136.497C145.6 136.397 145.6 136.297 145.6 136.197C145.7 136.097 145.9 135.997 146 135.897C146 135.797 145.9 135.597 146.2 135.497C146.8 135.397 146.6 135.097 146.7 134.797C146.8 134.597 146.9 134.397 146.9 134.097C146.9 133.897 147.4 133.997 147.4 133.797C147.4 133.797 148.9 134.097 149.3 134.197H149.5C149.9 134.497 150.6 134.797 150.5 134.897C150.4 135.097 150.4 135.297 150.3 135.497L151 135.797Z" fill="black"/>
<path d="M162.301 135.797C162.301 135.997 162.201 136.097 162.201 136.297C162.201 136.297 161.901 136.297 162.401 136.597C162.701 136.597 162.001 136.597 162.001 136.597C162.001 136.797 162.001 136.897 162.001 137.097C162.001 137.297 162.201 137.497 162.201 137.597C162.201 137.797 161.901 137.897 162.201 138.097C162.501 138.297 161.901 138.297 162.001 138.397C162.101 138.597 162.201 138.697 162.001 138.797C161.801 138.797 161.601 138.897 161.701 138.997C161.701 138.997 162.101 139.197 162.001 139.197C162.001 139.197 161.701 139.197 162.301 139.397C162.301 139.397 162.301 139.397 162.101 139.397C161.701 139.397 161.701 139.397 162.001 139.597C162.301 139.597 162.201 139.697 162.201 139.797C162.201 139.897 162.201 140.097 162.201 140.197C162.201 140.197 161.901 140.397 161.801 140.497C161.801 140.497 162.001 140.697 161.701 140.797C161.401 140.797 161.401 140.997 161.401 141.097C161.401 141.097 161.101 141.197 161.701 141.297C160.901 141.397 161.901 141.597 161.701 141.797C161.501 141.997 161.701 142.097 161.701 142.297C161.701 142.297 161.501 142.297 162.001 142.397C162.201 142.397 162.201 142.397 162.001 142.397C161.401 142.497 161.801 142.597 161.601 142.797C161.501 142.897 161.801 143.097 161.301 143.197C161.101 143.197 161.001 143.397 161.601 143.397C161.901 143.397 161.601 143.497 161.601 143.597C161.601 143.597 161.901 143.597 161.901 143.697C161.901 143.697 161.701 143.697 161.601 143.797C162.301 143.997 161.401 144.197 161.601 144.397C161.801 144.597 161.701 144.797 161.601 144.997C161.601 145.097 161.401 145.297 160.201 145.397C159.701 145.397 159.101 145.497 158.801 145.497C158.601 145.497 158.301 145.497 158.301 145.497C158.201 145.497 158.101 145.397 158.001 145.297C157.801 145.197 157.201 145.097 157.501 144.897C157.501 144.897 157.301 144.897 157.801 144.697C157.001 144.497 157.501 144.297 157.401 144.097C157.401 143.897 156.701 143.797 157.001 143.597C156.401 143.597 156.501 143.397 156.701 143.297C157.401 142.897 156.901 142.597 157.001 142.197C157.001 141.797 157.001 141.497 157.001 141.097C157.001 141.097 156.701 140.997 157.001 140.897C157.301 140.897 157.001 140.697 157.001 140.697C157.001 140.697 156.901 140.497 157.001 140.497C157.701 140.297 157.301 139.897 157.401 139.697C157.501 139.397 157.601 139.097 157.401 138.797C157.401 138.597 157.001 138.397 157.201 138.197C157.201 138.197 156.901 137.997 157.501 137.997C157.701 137.997 157.201 137.897 157.201 137.797C157.201 137.697 157.201 137.597 157.201 137.397C157.201 137.197 157.301 137.097 157.201 136.897C157.201 136.797 157.001 136.597 156.901 136.497C156.901 136.397 156.901 136.297 156.901 136.197C157.001 136.097 157.201 135.997 157.301 135.897C157.301 135.797 157.201 135.597 157.501 135.497C158.101 135.397 157.901 135.097 158.001 134.797C158.101 134.597 158.201 134.397 158.201 134.097C158.201 133.897 158.701 133.997 158.701 133.797C158.701 133.797 160.201 134.097 160.601 134.197H160.801C161.201 134.497 161.901 134.797 161.801 134.897C161.701 135.097 161.701 135.297 161.601 135.497L162.301 135.797Z" fill="black"/>
<path d="M162.6 169.697C162.4 169.697 162.1 169.797 161.9 169.897C161.9 169.897 161.7 169.697 161.7 170.297C161.7 170.597 161.5 169.997 161.4 169.997C161.2 170.097 160.9 169.997 160.7 170.197C160.5 170.197 160.3 170.597 160 170.597C159.8 170.597 159.5 170.397 159.3 170.697C159.1 170.997 158.9 170.497 158.7 170.697C158.5 170.797 158.3 170.897 158.1 170.697C158 170.497 157.8 170.297 157.7 170.397C157.7 170.397 157.5 170.797 157.4 170.697C157.4 170.697 157.2 170.397 157.1 170.997C157.1 170.997 157.1 170.997 157.1 170.797C157.1 170.397 156.9 170.397 156.8 170.697C156.7 170.997 156.6 170.897 156.5 170.897C156.3 170.897 156.1 170.897 155.9 170.897C155.8 170.897 155.7 170.597 155.5 170.497C155.4 170.497 155.1 170.697 155.1 170.297C155.1 169.997 154.9 169.897 154.8 169.897C154.8 169.897 154.8 169.597 154.5 170.197C154.5 169.397 154 170.297 153.8 169.997C153.6 169.697 153.4 169.797 153.1 169.697C153.1 169.697 153.1 169.497 152.8 169.897C152.8 169.997 152.6 169.997 152.7 169.897C152.7 169.197 152.5 169.497 152.3 169.397C152.2 169.197 151.8 169.397 151.9 168.797C151.9 168.597 151.9 168.397 151.5 168.797C151.3 168.997 151.4 168.797 151.3 168.797L151 168.997C151 168.997 151 168.697 151 168.597C150.4 168.997 150.6 168.097 150.3 167.997C149.9 167.997 149.7 167.697 149.5 167.397C149.5 167.197 149.4 166.997 150.1 166.097C150.4 165.697 150.8 165.297 151.1 165.097C151.3 164.997 151.5 164.797 151.6 164.797C151.7 164.797 151.9 164.797 152 164.697C152.2 164.697 152.7 164.297 152.6 164.697C152.6 164.697 152.8 164.597 152.6 164.997C153.2 164.497 153.1 164.997 153.3 164.997C153.5 164.997 153.9 164.597 153.9 164.997C154.3 164.497 154.3 164.597 154.3 164.797C154.3 165.497 154.8 165.297 155 165.497C155.3 165.697 155.6 165.697 155.9 165.897C155.9 165.897 156.1 165.597 156.1 165.897C156.1 166.197 156.2 165.897 156.3 165.997H156.5C156.6 166.697 157 166.397 157.2 166.497C157.5 166.497 157.7 166.697 158 166.497C158.2 166.497 158.3 166.097 158.5 166.197C158.5 166.197 158.6 165.897 158.7 166.497C158.7 166.697 158.7 166.197 158.8 166.197C158.9 166.197 159 166.197 159.1 166.197C159.2 166.197 159.4 166.197 159.5 166.197C159.5 166.197 159.7 165.897 159.7 165.797C159.7 165.797 159.9 165.797 160 165.797C160.1 165.797 160.3 165.997 160.4 166.097C160.5 166.097 160.6 165.797 160.8 166.097C161.1 166.497 161.3 166.197 161.5 166.197C161.7 166.197 162 166.197 162.1 165.997C162.1 165.897 162.5 166.297 162.6 166.297C162.6 166.297 163.3 167.597 163.5 168.097V168.297C163.5 168.797 163.7 169.497 163.5 169.497C163.2 169.497 162.9 169.697 162.7 169.797L162.6 169.697Z" fill="black"/>
<path d="M127 164.6C126.2 164.6 125.5 164.4 124.7 164.3C124.4 164.3 124.2 163.9 123.7 164.3C123.5 164.5 123.4 163.8 123.1 163.7C122.4 163.5 121.7 163.1 121 162.8C120.4 162.5 119.7 162.3 119.1 161.9C118.5 161.5 118.2 160.9 117.6 160.8C117 160.7 117 160 116.5 159.7C116 159.4 115.5 159 115.3 158.4C115.1 158 115 157.5 114.7 157.2C114.5 157 114.1 157 113.9 156.7C113.8 156.4 113.9 156 113.2 156.1C113.2 156.1 113.2 155.9 113.2 155.8C113.4 155.3 113.2 155 112.9 154.8C112.6 154.6 112.5 154.4 112.4 154.2C112.2 153.6 112.1 152.9 112.1 152.3C112.1 151.8 112.3 151.4 112.3 150.9C112.3 150.5 112.1 150 112.3 149.6C112.6 149.2 112.6 148.9 112.6 148.4C112.6 148.2 112.9 147.9 112.3 147.6C112.3 147.6 112.3 147.5 112.3 147.4C112.8 147.1 112.8 146.7 112.7 146.2C112.7 145.7 112.7 145.1 113 144.8C113.7 144 114.3 143.3 114.9 142.8C115.1 142.7 115.4 142.7 115.3 142.2C115.3 142 115.5 141.9 115.6 141.9C116.4 142.1 116.8 141.5 117.5 141.4C118.2 141.3 118.8 140.8 119.6 141.2C119.9 141.4 120.3 141.5 120.6 140.8C120.8 140.5 121.1 140.8 121.4 140.8C121.6 140.8 121.8 140.5 122 140.5C122.2 140.5 122.3 140.8 122.5 140.9C122.5 140.9 122.6 140.9 122.7 140.9C123.2 140.7 123.8 140.9 124.2 141.1C124.7 141.3 125.1 141.7 125.6 141.8C126.6 142 127.5 142.7 128.2 143.5C128.6 143.9 128.9 144.5 128.2 145.5C127.9 145.9 127.4 146.3 127.1 146.3C126.8 146.3 126.6 146.3 126.4 146.3C126.2 146.2 125.9 146.2 125.7 146.1C125.2 146 124.6 146.1 124.4 145.7C124.4 145.5 124.1 145.7 124.2 145.3V145.2C123.4 145.7 123 145 122.4 145C121.9 145 121.4 145.5 120.9 145.3C120.7 145.9 120.4 145.8 120.1 145.7C119.6 145.4 119.1 145.5 118.7 145.7C118.3 145.9 118 146.2 117.6 146.4C117.2 146.6 116.9 146.9 116.8 147.1C116.7 147.3 116.6 147.5 116.6 147.9C116.6 148 116.9 148.2 116.6 148.4C116.3 148.6 116.6 148.9 116.6 149.1C116.6 149.3 116.7 149.6 116.6 149.8C115.9 150.7 116.4 151.6 116.4 152.4C116.4 153.2 116.6 153.9 117.2 154.5C117.5 154.8 118.1 155 118.3 155.4C118.3 155.6 118.8 155.5 118.5 156.1C118.5 156.3 118.9 156.1 119 156.1C119.3 156.3 119.5 156.6 119.8 156.8C120.2 157.1 120.6 157.5 121.1 157.8C121.4 158 121.8 158 122.1 158.1C122.4 158.2 122.6 158.4 122.8 158.6C123.1 158.9 123.3 159.2 123.6 159.4C123.9 159.6 124.3 159.4 124.6 159.9C125.1 160.6 125.9 160.5 126.6 160.6C127.3 160.7 128.1 160.8 128.9 160.6C129.3 160.6 129.8 161 130.2 161C130.4 161 130.8 162.4 130.7 163V163.2C130.3 163.7 129.9 164.4 129.3 164.4C128.5 164.4 127.7 164.4 126.8 164.4L127 164.6Z" fill="black"/>
<path d="M198.4 112.7C196.2 113.1 194.1 113.5 191.9 114C191.1 114.2 190.2 114 189.5 114.8C189.1 115.1 188.2 114.7 187.5 114.8C185.5 115.3 183.5 115.6 181.5 116C179.6 116.4 177.6 117.1 175.7 117.5C173.8 117.9 171.7 118 169.9 118.7C168.3 119.3 166.8 119.1 165.2 119.5C163.6 119.9 161.9 120.3 160.2 120.4C159 120.4 157.8 120.4 156.6 120.8C155.9 121 155.3 121.4 154.5 121.6C153.8 121.7 152.9 121.6 152.3 122.3C152.3 122.3 151.9 122.3 151.7 122.3C150.8 122 149.9 122.3 149.2 122.6C148.6 123 148 123.1 147.4 123.2C145.7 123.5 144.1 123.9 142.4 124.1C141.1 124.3 139.9 124.3 138.6 124.4C137.3 124.6 136 125.1 134.7 125C133.4 125 132.3 125.1 131.1 125.3C130.4 125.4 129.6 125.3 129.2 126C129.2 126 128.9 126.1 128.8 126C126.7 125.5 125.1 126.9 123.1 127.1C121.1 127.2 119 127.8 117 128.1C116.5 128.1 115.9 128.1 115.4 128.7C115.3 128.9 114.7 129 114.4 128.9C112.8 128.5 111.3 129.2 109.7 129.3C107.9 129.5 106.2 130.1 104.4 129.9C103.6 129.9 102.6 129.9 101.8 130.6C101.4 130.9 100.5 130.8 99.9003 131C99.4003 131.1 98.9003 131.5 98.4003 131.6C98.0003 131.6 97.5003 131.6 97.0003 131.5C96.9003 131.5 96.7003 131.5 96.6003 131.5C94.1003 132.6 91.5003 132.1 88.9003 132.7C86.3003 133.3 83.7003 133.7 81.1003 134C79.7003 134.2 78.1003 134.2 77.0003 133.3C76.5003 132.9 76.4003 132.3 77.0003 131.9C77.4003 131.6 77.9003 131.3 78.4003 131.1C79.2003 130.9 80.0003 130.6 80.8003 130.4C82.4003 129.9 84.0003 129.2 85.8003 129.2C86.3003 129.2 86.9003 128.8 87.5003 129.2C87.5003 129.2 87.8003 129.2 87.9003 129.2C90.1003 128 92.5003 128.2 94.8003 127.7C96.8003 127.3 98.6003 126.4 100.6 126.3C101.6 125.5 102.9 125.4 104 125.4C108 125.4 111.9 124.3 115.8 123.7C119.8 123.1 123.7 122.3 127.7 121.7C128.4 121.6 128.9 121.1 129.7 121.3C130.5 121.4 131.4 121.1 132.3 120.9C133.1 120.8 133.9 120.5 134.7 120.5C137.9 120.5 141 119.6 144.1 119.1C147.2 118.6 150.3 118.1 153.4 117.4C155.3 116.9 157.1 116.3 159 116C159.8 116 160.6 115.4 161.5 115.8C161.8 115.9 162.4 115.3 162.9 115.2C164.2 114.9 165.5 114.7 166.8 114.4C168.6 114.1 170.4 113.7 172.2 113.3C173.3 113.1 174.3 112.6 175.4 112.3C176.5 112 177.7 111.8 178.9 111.6C180.4 111.4 181.9 111.3 183.3 111.1C184.8 110.9 186.3 110.3 187.8 110.3C190.6 110.3 193.2 109.5 195.9 109C198.6 108.5 201.2 108 203.9 107.4C205.4 107 206.9 107.2 208.3 106.9C209 106.8 210.2 108 210 108.6C210 108.7 209.9 108.8 209.8 108.9C208.5 109.7 207.3 110.6 205.6 110.9C203.1 111.3 200.7 111.9 198.3 112.4L198.4 112.7Z" fill="black"/>
<path d="M124.9 142.802C125 142.402 125.2 142.102 125.2 141.702C125.2 141.602 125.5 141.502 125.1 141.202C124.9 141.002 125.5 141.202 125.5 141.002C125.5 140.602 125.7 140.402 125.8 140.002C125.8 139.702 125.8 139.302 125.8 138.902C125.8 138.602 126.2 138.302 126 137.902C125.8 137.602 126.4 137.502 126.3 137.202C126.3 136.902 126.3 136.602 126.6 136.402C126.8 136.302 127.1 136.102 127 135.902C127 135.802 126.7 135.602 126.7 135.502C126.7 135.402 127 135.302 126.5 135.102C126.5 135.102 126.5 135.102 126.7 135.102C127.1 135.102 127.1 134.902 126.9 134.702C126.7 134.502 126.7 134.402 126.7 134.302C126.7 134.002 126.7 133.802 126.9 133.502C126.9 133.302 127.3 133.202 127.4 133.002C127.5 132.802 127.3 132.502 127.6 132.402C127.9 132.302 127.9 132.102 128 131.902C128 131.802 128.3 131.702 127.7 131.502C128.6 131.302 127.5 130.902 127.7 130.602C127.9 130.302 127.8 130.002 127.8 129.602C127.8 129.602 128 129.402 127.5 129.302C127.3 129.302 127.3 129.202 127.5 129.102C128.1 128.902 127.8 128.602 127.9 128.402C128 128.102 127.7 127.802 128.2 127.602C128.4 127.502 128.5 127.302 127.9 127.202C127.6 127.202 127.9 127.002 127.9 126.902L127.6 126.702C127.6 126.702 127.8 126.602 127.9 126.502C127.2 126.102 128.1 125.702 127.9 125.302C127.7 124.902 127.7 124.502 127.7 124.102C127.7 123.902 127.9 123.602 129 123.302C129.5 123.102 130 123.002 130.4 123.102C130.6 123.102 130.9 123.102 131 123.302C131.1 123.402 131.3 123.602 131.4 123.702C131.6 124.002 132.2 124.202 132 124.602C132 124.702 132.2 124.802 131.7 124.902C132.5 125.302 132.1 125.702 132.1 126.202C132.1 126.602 132.8 126.902 132.5 127.302C133.1 127.502 133 127.802 132.8 128.002C132.1 128.702 132.5 129.502 132.4 130.202C132.2 130.902 132.2 131.702 132.1 132.402C132.1 132.502 132.4 132.702 132.1 132.802C131.8 132.802 132 133.102 132 133.302C132 133.402 132 133.602 132 133.702C131.2 134.102 131.5 134.802 131.3 135.302C131.1 135.802 130.9 136.402 130.9 136.902C130.9 137.302 131.2 137.702 130.9 138.002C130.9 138.102 131.1 138.402 130.5 138.302C130.3 138.302 130.7 138.502 130.7 138.602C130.7 138.802 130.6 139.102 130.5 139.302C130.5 139.602 130.3 139.902 130.2 140.202C130.2 140.402 130.4 140.702 130.4 140.902C130.4 141.102 130.4 141.302 130.2 141.502C130 141.702 129.8 141.902 129.6 142.102C129.5 142.302 129.6 142.702 129.3 142.802C128.7 143.102 128.8 143.602 128.5 144.002C128.3 144.402 128.1 144.902 128.1 145.302C128.1 145.602 127.5 145.602 127.4 145.902C127.4 146.002 125.9 145.702 125.5 145.502C125.5 145.502 125.3 145.502 125.3 145.402C124.9 145.002 124.3 144.502 124.5 144.302C124.7 143.902 124.8 143.502 124.9 143.102V142.802Z" fill="black"/>
<path d="M136 194.099C135.2 194.399 134.4 194.699 133.6 194.999C133.3 195.099 132.9 194.999 132.8 195.499C132.8 195.799 132.3 195.299 132 195.299C131.3 195.499 130.5 195.599 129.8 195.799C129.1 195.999 128.4 196.299 127.7 196.399C127 196.499 126.2 196.399 125.6 196.699C125 196.999 124.5 196.599 123.9 196.699C123.3 196.899 122.7 196.999 122.1 196.699C121.7 196.499 121.2 196.299 120.8 196.499C120.5 196.499 120.3 196.899 120 196.899C119.7 196.899 119.4 196.599 119.2 197.199C119.2 197.199 119.1 197.199 119 197.099C118.7 196.699 118.4 196.699 118.1 197.099C117.9 197.399 117.7 197.299 117.4 197.299C116.8 197.299 116.2 197.299 115.6 197.299C115.1 197.299 114.7 196.999 114.3 196.899C113.8 196.899 113.3 197.099 112.9 196.799C112.5 196.499 112.1 196.499 111.6 196.399C111.4 196.399 111.1 196.099 110.9 196.699C110.9 196.699 110.8 196.699 110.7 196.699C110.1 195.799 109.3 196.899 108.6 196.599C107.9 196.299 107.1 196.399 106.4 196.399C106.2 196.399 106 196.199 105.8 196.599C105.8 196.799 105.5 196.799 105.4 196.599C104.9 195.899 104.3 196.199 103.8 196.099C103.2 195.899 102.5 196.099 102 195.499C101.8 195.299 101.4 195.099 101 195.599C100.8 195.799 100.5 195.599 100.3 195.599C100.1 195.599 99.9 195.899 99.7 195.799C99.5 195.799 99.4 195.499 99.3 195.399C99.3 195.399 99.2 195.399 99.1 195.399C98.1 195.899 97.3 194.899 96.4 194.899C95.5 194.899 94.5 194.699 93.6 194.399C93.1 194.299 92.6 193.999 92.5 192.799C92.5 192.299 92.5 191.699 92.8 191.399C93 191.199 93.2 190.999 93.4 190.999C93.7 190.999 94 190.899 94.3 190.799C94.9 190.799 95.6 190.299 96.1 190.699C96.3 190.799 96.5 190.599 96.6 191.099C96.6 191.099 96.6 191.199 96.7 191.099C97.6 190.499 98.4 191.099 99.2 191.099C99.9 191.099 100.7 190.599 101.3 191.099C101.8 190.499 102.2 190.699 102.6 190.899C103.9 191.799 105.3 191.499 106.6 191.699C108 191.899 109.4 191.999 110.7 192.099C110.9 192.099 111.2 191.799 111.4 192.099C111.6 192.399 112 192.099 112.3 192.199C112.6 192.199 112.9 192.099 113.1 192.199C114.2 192.899 115.3 192.499 116.4 192.599C117.5 192.599 118.6 192.799 119.7 192.599C120.4 192.499 121 192.099 121.7 192.199C122 192.199 122.3 191.899 122.6 192.499C122.6 192.699 122.9 192.199 123.1 192.199C123.5 192.199 124 192.199 124.4 192.199C125 192.199 125.7 192.199 126.3 191.999C126.7 191.999 127 191.599 127.4 191.499C127.8 191.399 128.2 191.299 128.6 191.299C129.1 191.299 129.6 191.399 130.1 191.399C130.6 191.399 131.1 190.999 131.6 191.199C132.6 191.499 133.4 190.999 134.2 190.699C135 190.399 135.8 190.099 136.5 189.599C136.9 189.299 137.5 189.499 137.9 189.199C138.1 189.099 139.2 189.999 139.5 190.499V190.699C139.4 191.399 139.3 192.299 138.7 192.599C137.8 193.099 137 193.499 136.1 193.899L136 194.099Z" fill="black"/>
<path d="M136 192.301C136 191.801 136 191.401 135.8 190.901C135.8 190.701 136 190.501 135.4 190.401C135.1 190.401 135.7 190.101 135.7 189.901C135.6 189.501 135.6 189.001 135.4 188.601C135.2 188.201 135 187.801 134.8 187.401C134.6 187.001 134.8 186.501 134.4 186.201C134 185.901 134.4 185.501 134.2 185.201C134 184.901 133.8 184.601 133.9 184.101C133.9 183.801 134.1 183.501 133.9 183.301C133.8 183.201 133.4 183.101 133.4 182.901C133.4 182.701 133.6 182.501 132.9 182.501C132.9 182.501 132.9 182.501 133 182.301C133.3 182.001 133.2 181.801 133 181.801C132.7 181.801 132.7 181.601 132.6 181.501C132.4 181.201 132.3 180.801 132.2 180.501C132.2 180.201 132.2 179.901 132.2 179.601C132.2 179.301 131.8 179.101 132 178.801C132.2 178.401 132 178.201 132 178.001C132 177.901 132.1 177.601 131.5 177.701C132.1 177.001 130.9 177.001 130.9 176.601C130.9 176.101 130.6 175.801 130.4 175.401C130.4 175.301 130.4 175.101 130 175.201C129.8 175.201 129.8 175.201 129.8 175.001C130.2 174.401 129.8 174.301 129.7 173.901C129.7 173.501 129.2 173.301 129.4 172.701C129.5 172.501 129.4 172.201 128.9 172.301C128.6 172.301 128.8 172.101 128.6 172.001C128.5 172.001 128.2 172.001 128.1 171.901C128.1 171.901 128.2 171.601 128.3 171.501C127.5 171.401 127.9 170.401 127.5 170.001C127.1 169.601 126.8 169.101 126.6 168.601C126.5 168.301 126.4 167.901 127.3 167.101C127.7 166.701 128.1 166.401 128.5 166.301C128.8 166.301 129 166.301 129.1 166.301C129.3 166.301 129.5 166.501 129.7 166.601C130.1 166.801 130.7 166.801 130.7 167.301C130.7 167.501 131 167.401 130.7 167.801V167.901C131.6 167.901 131.5 168.701 131.8 169.101C132.1 169.501 132.8 169.601 132.8 170.101C133.5 170.101 133.5 170.301 133.5 170.701C133.4 171.801 134.2 172.401 134.5 173.301C134.8 174.201 135.3 175.001 135.6 175.901C135.6 176.001 136 176.001 135.9 176.301C135.7 176.601 136 176.701 136.1 176.901C136.1 177.101 136.4 177.201 136.3 177.401C135.9 178.301 136.6 178.901 136.8 179.601C137 180.301 137.2 181.001 137.5 181.701C137.7 182.101 138.2 182.401 138.2 182.901C138.2 183.101 138.6 183.201 138.1 183.501C138 183.501 138.4 183.601 138.5 183.801C138.6 184.101 138.7 184.401 138.8 184.701C138.9 185.101 139 185.501 139.1 185.901C139.1 186.101 139.5 186.301 139.6 186.601C139.7 186.901 139.8 187.101 139.8 187.401C139.8 187.801 139.7 188.101 139.7 188.501C139.7 188.901 140 189.201 139.8 189.601C139.4 190.301 139.8 190.901 139.8 191.501C139.8 192.101 139.8 192.801 140.1 193.401C140.2 193.701 139.7 194.101 139.8 194.501C139.8 194.701 138.4 195.001 137.9 195.001H137.7C137.2 194.701 136.4 194.501 136.5 194.101C136.5 193.601 136.5 193.001 136.3 192.501L136 192.301Z" fill="black"/>
<path d="M161.6 109.401C160.7 109.501 159.7 109.701 158.8 109.901C158.5 109.901 158.1 109.801 157.8 110.401C157.7 110.701 157.2 110.101 156.9 110.201C156 110.401 155.1 110.501 154.3 110.701C153.5 110.901 152.6 111.201 151.8 111.401C151 111.601 150.1 111.401 149.3 111.901C148.6 112.301 147.9 111.901 147.3 112.101C146.6 112.301 145.9 112.501 145.1 112.401C144.6 112.401 144 112.201 143.5 112.401C143.2 112.501 142.9 112.901 142.6 112.901C142.3 112.901 141.9 112.701 141.7 113.401C141.7 113.401 141.5 113.401 141.4 113.301C141 113.001 140.6 113.001 140.3 113.301C140.1 113.601 139.8 113.601 139.5 113.701C138.8 113.801 138.1 114.001 137.3 114.001C136.8 114.001 136.2 113.901 135.6 114.001C135 114.001 134.5 114.401 133.9 114.201C133.3 114.001 132.8 114.101 132.3 114.201C132 114.201 131.6 114.001 131.5 114.701C131.5 114.701 131.4 114.701 131.3 114.701C130.3 114.001 129.7 115.201 128.8 115.101C127.9 115.101 127 115.301 126.2 115.501C126 115.501 125.7 115.501 125.5 115.901C125.5 116.101 125.2 116.101 125.1 116.001C124.4 115.501 123.7 116.001 123.1 116.001C122.3 116.001 121.6 116.401 120.8 116.001C120.4 115.801 120 115.801 119.7 116.401C119.6 116.701 119.2 116.401 118.9 116.601C118.7 116.601 118.5 117.001 118.3 117.001C118.1 117.001 117.9 116.801 117.7 116.801C117.7 116.801 117.6 116.801 117.5 116.801C116.5 117.601 115.3 116.901 114.2 117.301C113.1 117.701 112 117.801 110.8 117.801C110.2 117.801 109.5 117.801 108.9 116.701C108.6 116.201 108.5 115.701 108.7 115.301C108.9 115.001 109 114.801 109.2 114.701C109.5 114.501 109.9 114.401 110.2 114.201C110.9 113.901 111.5 113.301 112.3 113.401C112.5 113.401 112.8 113.101 113 113.601C113 113.601 113.1 113.601 113.2 113.601C114.1 112.701 115.2 113.001 116.2 112.801C117 112.601 117.8 111.901 118.7 112.001C119.1 111.301 119.6 111.301 120.2 111.401C122 111.801 123.6 111.101 125.3 110.901C127 110.701 128.7 110.401 130.5 110.101C130.8 110.101 131 109.701 131.4 109.901C131.8 110.101 132.1 109.901 132.5 109.801C132.8 109.801 133.2 109.601 133.5 109.701C134.9 110.101 136.2 109.501 137.6 109.401C139 109.301 140.3 109.101 141.6 108.701C142.4 108.501 143.2 108.001 144 108.001C144.4 108.001 144.7 107.601 145.1 108.101C145.2 108.301 145.5 107.801 145.7 107.701C146.3 107.601 146.8 107.501 147.4 107.401C148.2 107.301 149 107.201 149.7 107.001C150.2 106.901 150.6 106.601 151.1 106.401C151.6 106.301 152.1 106.201 152.6 106.201C153.2 106.201 153.9 106.201 154.5 106.201C155.2 106.201 155.8 105.801 156.5 106.001C157.7 106.301 158.9 105.901 160 105.801C161.2 105.701 162.3 105.501 163.5 105.201C164.1 105.001 164.8 105.401 165.5 105.301C165.8 105.301 166.4 106.601 166.4 107.201C166.4 107.201 166.4 107.401 166.4 107.501C165.8 108.101 165.4 108.901 164.6 108.901C163.5 108.901 162.5 109.201 161.4 109.401H161.6Z" fill="black"/>
<path d="M188 185.501C187.9 184.701 187.7 184.001 187.5 183.201C187.5 182.901 187.6 182.601 187 182.401C186.7 182.401 187.3 181.901 187.2 181.701C187 181.001 186.9 180.301 186.7 179.601C186.5 178.901 186.1 178.301 185.9 177.601C185.7 176.901 185.9 176.201 185.4 175.601C185 175.101 185.4 174.501 185.1 174.001C184.8 173.501 184.6 172.901 184.7 172.301C184.7 171.901 184.9 171.401 184.7 171.001C184.6 170.801 184.2 170.601 184.2 170.301C184.2 170.001 184.3 169.701 183.7 169.601C183.7 169.601 183.7 169.501 183.7 169.401C184 169.001 183.9 168.701 183.6 168.601C183.3 168.501 183.3 168.301 183.2 168.101C183 167.501 182.8 167.001 182.7 166.401C182.7 166.001 182.7 165.501 182.7 165.101C182.7 164.701 182.2 164.301 182.4 163.801C182.6 163.301 182.4 162.901 182.3 162.501C182.3 162.301 182.4 161.901 181.7 162.001C181.7 162.001 181.7 162.001 181.7 161.901C182.3 161.001 181 160.701 181 160.001C181 159.301 180.6 158.701 180.3 158.001C180.3 157.801 180.3 157.601 179.8 157.601C179.6 157.601 179.5 157.401 179.6 157.301C180 156.601 179.4 156.201 179.3 155.701C179.2 155.101 178.7 154.701 178.9 153.901C178.9 153.601 178.9 153.201 178.3 153.201C178 153.201 178.1 152.801 178 152.601C177.9 152.501 177.6 152.401 177.5 152.301C177.5 152.201 177.5 151.901 177.6 151.701V151.601C176.6 151.101 177 149.901 176.4 149.201C175.8 148.501 175.4 147.601 175.1 146.801C174.9 146.301 174.8 145.801 175.7 144.901C176.1 144.501 176.6 144.301 177 144.301C177.3 144.301 177.6 144.301 177.7 144.501C177.9 144.701 178.2 144.901 178.4 145.101C178.8 145.501 179.6 145.801 179.6 146.501C179.6 146.701 180 146.801 179.6 147.101C179.6 147.101 179.6 147.201 179.6 147.301C180.7 147.701 180.6 148.601 181.1 149.401C181.5 150.001 182.3 150.401 182.4 151.201C183.2 151.201 183.2 151.801 183.2 152.201C183.2 153.801 184.1 154.901 184.6 156.301C185 157.701 185.6 159.001 186 160.401C186 160.601 186.5 160.701 186.3 161.101C186.1 161.401 186.4 161.701 186.5 162.001C186.5 162.301 186.8 162.501 186.7 162.801C186.4 164.101 187.1 165.001 187.4 166.101C187.6 167.201 187.9 168.301 188.3 169.301C188.6 169.901 189.1 170.501 189.1 171.201C189.1 171.501 189.5 171.701 189.1 172.101C189 172.201 189.5 172.401 189.5 172.601C189.7 173.001 189.7 173.501 189.8 174.001C189.9 174.601 190 175.301 190.2 175.901C190.3 176.301 190.6 176.601 190.8 177.001C190.9 177.401 191 177.801 191.1 178.201C191.1 178.701 191.1 179.301 191.1 179.801C191.1 180.301 191.5 180.801 191.4 181.401C191.1 182.401 191.5 183.301 191.7 184.301C191.8 185.201 192 186.201 192.3 187.101C192.5 187.601 192.1 188.201 192.2 188.701C192.2 188.901 190.9 189.501 190.3 189.501H190.1C189.5 189.101 188.7 188.801 188.7 188.201C188.7 187.301 188.4 186.501 188.2 185.601L188 185.501Z" fill="black"/>
<path d="M188 191.299C187.5 191.299 187.1 191.299 186.6 191.299C186.4 191.299 186.3 191.099 186.1 191.599C186.1 191.899 185.9 191.199 185.7 191.199C185.3 191.199 184.8 191.199 184.4 191.199C184 191.199 183.6 191.499 183.1 191.499C182.7 191.499 182.3 191.199 181.9 191.499C181.5 191.799 181.3 191.299 180.9 191.399C180.5 191.499 180.2 191.599 179.8 191.399C179.6 191.199 179.3 190.999 179.1 191.099C178.9 191.099 178.8 191.499 178.6 191.399C178.4 191.399 178.3 191.099 178.1 191.699C178.1 191.699 178.1 191.699 178 191.499C177.9 191.099 177.6 191.099 177.5 191.399C177.3 191.699 177.2 191.599 177.1 191.599C176.7 191.599 176.4 191.599 176 191.599C175.7 191.599 175.5 191.299 175.2 191.199C174.9 191.199 174.6 191.399 174.4 191.099C174.2 190.799 173.9 190.799 173.7 190.799C173.6 190.799 173.4 190.499 173.3 191.099C173 190.199 172.5 191.299 172.1 191.099C171.7 190.899 171.2 190.999 170.8 190.999C170.7 190.999 170.6 190.799 170.4 191.199C170.4 191.399 170.2 191.399 170.2 191.199C169.9 190.499 169.6 190.899 169.3 190.799C168.9 190.599 168.5 190.899 168.2 190.399C168.1 190.199 167.9 189.999 167.6 190.599C167.5 190.899 167.3 190.599 167.2 190.599C167.1 190.599 167 190.899 166.8 190.899C166.8 190.899 166.6 190.699 166.6 190.499C166 191.099 165.6 190.199 165.1 190.299C164.6 190.499 164.1 190.299 163.6 190.299C163.3 190.299 163.1 190.099 162.8 188.899C162.7 188.399 162.6 187.799 162.8 187.499C162.8 187.299 163 186.999 163.1 186.999C163.3 186.899 163.5 186.799 163.6 186.699C164 186.499 164.4 185.999 164.7 186.299C164.8 186.299 165 186.099 165 186.599C165.5 185.799 166 186.399 166.5 186.399C166.9 186.399 167.4 185.799 167.8 186.099C168.1 185.499 168.4 185.599 168.6 185.799C169.3 186.499 170.2 186.199 171 186.299C171.8 186.499 172.7 186.399 173.5 186.499C173.6 186.499 173.8 186.199 173.9 186.499C174 186.799 174.3 186.499 174.4 186.499C174.6 186.499 174.7 186.399 174.9 186.499C175.5 187.199 176.2 186.799 176.8 186.999C177.4 187.099 178.1 187.199 178.7 186.999C179.1 186.999 179.5 186.599 179.9 186.699C180.1 186.699 180.3 186.399 180.4 186.999C180.4 187.199 180.6 186.699 180.7 186.699C181 186.699 181.2 186.699 181.5 186.699C181.9 186.699 182.3 186.699 182.6 186.699C182.8 186.699 183.1 186.399 183.3 186.399C183.5 186.399 183.8 186.399 184 186.399C184.3 186.399 184.6 186.699 184.9 186.799C185.2 186.799 185.6 186.599 185.8 186.799C186.4 187.299 186.9 187.099 187.5 187.099C188.1 187.099 188.6 187.199 189.2 187.099C189.5 187.099 189.8 187.499 190.1 187.499C190.2 187.499 190.4 188.999 190.4 189.499V189.699C190.1 190.199 189.8 190.899 189.4 190.799C188.9 190.799 188.4 190.799 187.8 190.799L188 191.299Z" fill="black"/>
</svg>
