<svg width="300" height="300" viewBox="0 0 300 300" fill="none" xmlns="http://www.w3.org/2000/svg">
<path d="M184.899 141.9C184.699 141.7 184.499 141.4 184.199 141.2C184.199 141.2 184.199 140.9 183.699 141.2C183.499 141.3 183.799 140.8 183.699 140.8C183.399 140.6 183.299 140.4 182.999 140.2C182.799 140 182.399 140 182.099 139.9C181.899 139.8 181.799 139.3 181.399 139.4C180.999 139.4 181.199 138.9 180.999 138.9C180.699 138.9 180.499 138.7 180.499 138.4C180.499 138.2 180.499 137.9 180.299 137.9C180.199 137.9 179.899 138.1 179.799 137.9C179.799 137.9 179.799 137.5 179.299 137.9C179.299 137.9 179.299 137.9 179.299 137.7C179.499 137.3 179.299 137.2 179.099 137.4C178.899 137.6 178.799 137.4 178.699 137.4C178.499 137.3 178.299 137.1 178.099 136.9C177.999 136.7 177.999 136.4 177.899 136.3C177.799 136.1 177.399 136.3 177.499 135.9C177.499 135.5 177.499 135.4 177.299 135.3C177.299 135.3 177.299 134.9 176.799 135.3C177.099 134.5 176.199 135.1 176.099 134.8C176.099 134.4 175.699 134.3 175.399 134.1C175.399 134.1 175.399 133.9 174.999 134.1C174.899 134.1 174.799 134.1 174.799 134.1C175.099 133.5 174.599 133.6 174.499 133.4C174.399 133.1 173.999 133.1 174.099 132.6C174.099 132.4 174.099 132.2 173.599 132.6C173.399 132.7 173.499 132.5 173.299 132.4C173.299 132.4 172.999 132.5 172.899 132.4C172.899 132.4 172.899 132.1 172.899 132C172.199 132.2 172.499 131.3 172.099 131.1C171.699 130.9 171.499 130.6 171.299 130.2C171.199 130 171.199 129.7 171.899 128.8C172.199 128.4 172.599 128 172.899 127.9C173.099 127.8 173.299 127.7 173.399 127.7C173.599 127.7 173.699 127.7 173.899 127.7C174.199 127.7 174.799 127.6 174.699 127.9C174.699 128 174.999 127.9 174.699 128.3C175.499 128 175.399 128.6 175.699 128.8C175.899 129 176.599 128.8 176.599 129.1C177.199 128.8 177.199 129 177.199 129.2C177.199 130.1 177.899 130.1 178.199 130.6C178.599 131.1 178.999 131.4 179.399 131.8C179.399 131.8 179.799 131.6 179.699 131.9C179.699 132.2 179.799 132.1 179.899 132.2C179.899 132.2 180.199 132.2 180.099 132.4C180.099 133.2 180.599 133.2 180.999 133.5C181.299 133.8 181.699 134.2 182.099 134.4C182.399 134.5 182.799 134.4 182.999 134.7C182.999 134.8 183.399 134.7 182.999 135.2C182.999 135.4 183.299 135.1 183.399 135.2C183.599 135.2 183.699 135.5 183.899 135.6C184.099 135.8 184.299 136 184.499 136.2C184.699 136.2 184.899 136.2 185.099 136.3C185.299 136.3 185.399 136.5 185.499 136.7C185.599 136.9 185.599 137.2 185.699 137.4C185.799 137.6 186.199 137.6 186.199 137.9C186.199 138.6 186.599 138.7 186.799 139C186.999 139.3 187.299 139.7 187.699 139.9C187.899 140 187.699 140.5 187.799 140.7C187.799 140.7 186.899 141.9 186.499 142.2L186.299 142.3C185.799 142.5 185.099 142.8 184.999 142.6C184.799 142.3 184.499 142.1 184.299 141.8L184.899 141.9Z" fill="black"/>
<path d="M117 161.399C117 161.899 117.1 162.299 117.3 162.799C117.3 162.999 117.1 163.199 117.7 163.299C118 163.299 117.4 163.599 117.5 163.799C117.7 164.199 117.7 164.699 117.8 165.099C118 165.499 118.3 165.899 118.4 166.299C118.6 166.699 118.4 167.199 118.8 167.499C119.2 167.799 118.8 168.199 118.9 168.499C119.1 168.799 119.3 169.099 119.1 169.499C119 169.799 118.8 170.099 119.1 170.299C119.2 170.399 119.6 170.499 119.6 170.699C119.6 170.899 119.4 171.099 120 171.099C120 171.099 120 171.099 119.9 171.299C119.5 171.599 119.6 171.799 119.9 171.799C120.2 171.799 120.2 171.999 120.2 172.099C120.3 172.399 120.4 172.799 120.5 173.199C120.5 173.499 120.4 173.799 120.4 174.099C120.4 174.399 120.8 174.699 120.5 174.999C120.3 175.299 120.3 175.599 120.4 175.899C120.4 176.099 120.2 176.299 120.8 176.299C120 176.899 121.2 177.099 121 177.599C120.8 178.099 121 178.499 121 178.999C121 179.099 120.8 179.299 121.3 179.299C121.5 179.299 121.5 179.499 121.3 179.499C120.7 179.899 121.1 180.199 121 180.599C120.9 180.999 121.2 181.399 120.7 181.799C120.5 181.999 120.4 182.199 121 182.399C121.3 182.399 121 182.699 121 182.799C121 182.899 121.3 182.999 121.3 183.099C121.3 183.099 121.1 183.299 121 183.399C121.7 183.999 120.8 184.499 121 185.099C121.2 185.699 121.1 186.199 121 186.799C121 187.099 120.8 187.399 119.6 187.699C119.1 187.699 118.5 187.699 118.2 187.699C118 187.699 117.7 187.499 117.7 187.399C117.7 187.199 117.5 186.999 117.4 186.899C117.2 186.499 116.7 186.199 117 185.799C117 185.699 116.8 185.599 117.3 185.399C116.5 184.899 117 184.399 116.9 183.899C116.9 183.499 116.2 183.099 116.5 182.599C115.9 182.399 116 182.099 116.1 181.899C116.8 180.999 116.3 180.199 116.3 179.399C116.3 178.599 116.2 177.799 116.1 176.999C116.1 176.899 115.7 176.799 116 176.599C116.2 176.399 116 176.299 116 176.099C116 175.899 115.8 175.799 116 175.599C116.5 174.799 116 174.299 115.9 173.599C115.8 172.899 115.7 172.299 115.4 171.699C115.2 171.299 114.8 170.999 114.8 170.599C114.8 170.399 114.4 170.299 115 169.999C115.2 169.999 114.7 169.899 114.6 169.799C114.5 169.499 114.4 169.199 114.4 168.999C114.4 168.599 114.3 168.199 114.1 167.799C114.1 167.599 113.7 167.399 113.6 167.199C113.5 166.999 113.4 166.699 113.4 166.399C113.4 166.099 113.5 165.699 113.5 165.399C113.5 165.099 113.2 164.799 113.4 164.399C113.8 163.699 113.4 163.199 113.4 162.599C113.4 161.999 113.3 161.399 113 160.899C112.9 160.599 113.3 160.199 113.2 159.899C113.2 159.799 114.6 159.299 115.1 159.199H115.3C115.8 159.399 116.6 159.599 116.6 159.899C116.6 160.399 116.8 160.899 116.9 161.499L117 161.399Z" fill="black"/>
<path d="M166.1 147.298C166.5 147.098 166.8 146.998 167.2 146.698C167.3 146.698 167.6 146.698 167.5 146.198C167.5 145.898 167.9 146.398 168 146.398C168.3 146.198 168.7 146.098 169 145.898C169.3 145.698 169.5 145.298 169.8 145.098C170.1 144.898 170.6 145.098 170.8 144.598C171 144.198 171.4 144.598 171.6 144.298C171.8 144.098 172.1 143.898 172.5 143.998C172.8 143.998 173.1 144.198 173.2 143.998C173.2 143.898 173.2 143.498 173.4 143.498C173.5 143.498 173.8 143.698 173.7 142.998C173.7 142.998 173.7 142.998 173.9 142.998C174.2 143.298 174.4 143.198 174.4 142.998C174.4 142.698 174.5 142.698 174.6 142.598C174.9 142.498 175.2 142.298 175.5 142.298C175.7 142.298 176 142.298 176.3 142.298C176.5 142.298 176.7 141.898 177 142.098C177.3 142.298 177.5 142.198 177.7 142.098C177.8 142.098 178.1 142.298 177.9 141.598C178.5 142.298 178.5 141.098 178.9 141.198C179.3 141.198 179.6 140.998 180 140.898C180 140.898 180.3 140.998 180.2 140.498C180.2 140.298 180.2 140.298 180.4 140.398C180.9 140.898 181 140.398 181.3 140.398C181.6 140.398 181.9 139.998 182.3 140.398C182.5 140.598 182.7 140.598 182.7 139.998C182.7 139.698 182.9 139.998 183 139.798C183 139.798 183 139.398 183.2 139.398C183.2 139.398 183.4 139.598 183.5 139.698C183.8 138.898 184.5 139.698 184.9 139.298C185.3 138.998 185.8 138.898 186.3 138.898C186.6 138.898 186.9 138.898 187.4 139.998C187.6 140.498 187.8 140.998 187.7 141.398C187.7 141.698 187.7 141.898 187.6 141.998C187.5 142.098 187.4 142.298 187.3 142.398C187.1 142.698 186.9 143.298 186.6 143.098C186.5 143.098 186.5 143.398 186.2 142.898C186 143.798 185.5 143.398 185.1 143.598C184.8 143.798 184.6 144.498 184.2 144.298C184.2 144.998 184 144.898 183.7 144.798C182.8 144.398 182.3 144.998 181.6 145.198C180.9 145.298 180.3 145.698 179.6 145.898C179.5 145.898 179.6 146.298 179.3 146.098C179.1 145.898 179 146.098 178.8 146.198C178.7 146.198 178.6 146.398 178.4 146.298C177.6 145.898 177.3 146.498 176.7 146.598C176.2 146.698 175.6 146.898 175.2 147.298C174.9 147.498 174.8 147.998 174.4 147.998C174.2 147.998 174.2 148.398 173.9 147.898C173.8 147.798 173.9 148.198 173.8 148.298C173.6 148.398 173.4 148.498 173.2 148.598C172.9 148.698 172.6 148.798 172.3 148.998C172.1 149.098 172.1 149.398 171.9 149.598C171.7 149.698 171.6 149.798 171.3 149.898C171 149.898 170.7 149.898 170.4 149.898C170.1 149.898 170 150.298 169.6 150.198C168.9 149.998 168.6 150.398 168.2 150.598C167.7 150.798 167.3 150.898 166.9 151.298C166.7 151.498 166.2 151.198 166 151.298C165.9 151.298 165.1 150.098 164.9 149.698V149.498C164.9 148.998 164.8 148.198 165.1 148.098C165.5 147.998 165.9 147.698 166.3 147.498L166.1 147.298Z" fill="black"/>
<path d="M146.699 141.101C146.699 140.901 146.699 140.701 146.699 140.601C146.699 140.601 146.899 140.501 146.399 140.401C146.099 140.401 146.799 140.301 146.699 140.201C146.699 140.001 146.699 139.901 146.699 139.701C146.699 139.501 146.399 139.401 146.399 139.201C146.399 139.001 146.699 138.901 146.399 138.701C146.099 138.501 146.599 138.501 146.499 138.301C146.399 138.201 146.299 138.001 146.499 137.901C146.699 137.901 146.899 137.701 146.799 137.601C146.799 137.601 146.399 137.401 146.499 137.401C146.499 137.401 146.799 137.401 146.199 137.201C146.199 137.201 146.199 137.201 146.399 137.201C146.799 137.201 146.799 137.201 146.499 137.001C146.199 137.001 146.299 136.901 146.299 136.801C146.299 136.701 146.299 136.501 146.299 136.401C146.299 136.401 146.599 136.201 146.699 136.201C146.699 136.201 146.499 135.901 146.799 135.901C147.099 135.901 147.099 135.801 147.099 135.701C147.099 135.701 147.399 135.701 146.799 135.501C147.599 135.501 146.599 135.101 146.799 135.001C146.999 134.901 146.899 134.701 146.999 134.501C146.999 134.501 147.199 134.501 146.799 134.301C146.599 134.201 146.599 134.301 146.799 134.301C147.399 134.301 147.099 134.101 147.199 134.001C147.399 133.901 147.199 133.701 147.599 133.701C147.799 133.701 147.899 133.701 147.399 133.401C147.199 133.301 147.399 133.401 147.399 133.201L147.099 133.001C147.099 133.001 147.299 133.001 147.499 133.001C146.899 132.601 147.899 132.701 147.799 132.401C147.799 132.101 147.799 132.001 147.999 131.801C147.999 131.801 148.299 131.701 149.399 132.001C149.899 132.201 150.399 132.401 150.699 132.601C150.899 132.701 151.099 132.801 151.099 132.901C151.099 132.901 151.299 133.101 151.299 133.201C151.399 133.401 151.899 133.701 151.599 133.701C151.599 133.701 151.799 133.901 151.299 133.701C151.999 134.101 151.399 134.101 151.399 134.301C151.399 134.401 151.999 134.801 151.699 134.801C152.299 135.101 152.099 135.101 151.899 135.101C151.199 135.101 151.499 135.501 151.399 135.801C151.199 136.001 151.299 136.301 151.199 136.601C151.199 136.601 151.499 136.801 151.199 136.801C150.899 136.801 151.199 136.901 151.199 137.001C151.199 137.001 151.299 137.101 151.199 137.201C150.499 137.201 150.899 137.601 150.799 137.801C150.799 138.001 150.599 138.201 150.799 138.401C150.799 138.501 151.199 138.701 151.099 138.801C151.099 138.801 151.399 138.901 150.799 138.901C150.599 138.901 151.099 138.901 151.099 139.001C151.099 139.001 151.099 139.201 151.099 139.301C151.099 139.401 151.099 139.501 151.099 139.701L151.399 139.901V140.101C151.399 140.101 151.099 140.301 150.999 140.401C150.999 140.501 151.199 140.601 150.999 140.701C150.499 140.901 150.699 141.101 150.699 141.301C150.699 141.501 150.699 141.701 150.699 141.801C150.699 141.801 150.299 142.001 150.299 142.101C150.299 142.101 148.799 142.301 148.299 142.401H148.099C147.599 142.401 146.899 142.301 146.899 142.101C146.899 141.901 146.899 141.701 146.899 141.501L146.699 141.101Z" fill="black"/>
<path d="M157.1 141.898C157.1 141.698 157.1 141.498 157.1 141.398C157.1 141.398 157.3 141.298 156.8 141.198C156.5 141.198 157.2 141.098 157.1 140.998C157.1 140.798 157.1 140.698 157.1 140.498C157.1 140.298 156.8 140.198 156.8 139.998C156.8 139.798 157.1 139.698 156.8 139.498C156.5 139.298 157 139.298 156.9 139.098C156.8 138.998 156.7 138.798 156.9 138.698C157.1 138.698 157.3 138.498 157.2 138.398C157.2 138.398 156.8 138.198 156.9 138.198C156.9 138.198 157.2 138.198 156.6 137.998C156.6 137.998 156.6 137.998 156.8 137.998C157.2 137.998 157.2 137.998 156.9 137.798C156.6 137.798 156.7 137.698 156.7 137.598C156.7 137.498 156.7 137.298 156.7 137.198C156.7 137.198 157 136.998 157.1 136.998C157.1 136.998 156.9 136.698 157.2 136.698C157.5 136.698 157.5 136.598 157.5 136.498C157.5 136.498 157.8 136.498 157.2 136.298C158 136.298 157 135.898 157.2 135.798C157.4 135.698 157.3 135.498 157.4 135.298C157.4 135.298 157.6 135.298 157.2 135.098C157 134.998 157 135.098 157.2 135.098C157.8 135.098 157.5 134.898 157.6 134.798C157.8 134.698 157.6 134.498 158 134.498C158.2 134.498 158.3 134.498 157.8 134.198C157.6 134.098 157.8 134.198 157.8 133.998L157.5 133.798C157.5 133.798 157.7 133.798 157.9 133.798C157.3 133.398 158.3 133.498 158.2 133.198C158.2 132.898 158.2 132.798 158.4 132.598C158.4 132.598 158.7 132.498 159.8 132.798C160.3 132.998 160.8 133.198 161.1 133.398C161.3 133.498 161.5 133.598 161.5 133.698C161.5 133.698 161.7 133.898 161.7 133.998C161.8 134.198 162.3 134.498 162 134.498C162 134.498 162.2 134.698 161.7 134.498C162.4 134.898 161.8 134.898 161.8 135.098C161.8 135.198 162.4 135.598 162.1 135.598C162.7 135.898 162.5 135.898 162.3 135.898C161.6 135.898 161.9 136.298 161.8 136.598C161.6 136.798 161.7 137.098 161.6 137.398C161.6 137.398 161.9 137.598 161.6 137.598C161.3 137.598 161.6 137.698 161.6 137.798C161.6 137.798 161.7 137.898 161.6 137.998C160.9 137.998 161.3 138.398 161.2 138.598C161.2 138.798 161 138.998 161.2 139.198C161.2 139.298 161.6 139.498 161.5 139.598C161.5 139.598 161.8 139.698 161.2 139.698C161 139.698 161.5 139.698 161.5 139.798C161.5 139.798 161.5 139.998 161.5 140.098C161.5 140.198 161.5 140.298 161.5 140.498L161.8 140.698V140.898C161.8 140.898 161.5 141.098 161.4 141.198C161.4 141.298 161.6 141.398 161.4 141.498C160.9 141.698 161.1 141.898 161.1 142.098C161.1 142.298 161.1 142.498 161.1 142.598C161.1 142.598 160.7 142.798 160.7 142.898C160.7 142.898 159.2 143.098 158.7 143.198H158.5C158 143.198 157.3 143.098 157.3 142.898C157.3 142.698 157.3 142.498 157.3 142.298L157.1 141.898Z" fill="black"/>
<path d="M171.5 151.998C172.4 152.998 173.2 153.998 174 154.898C174.3 155.298 174.4 155.798 175.2 155.798C175.6 155.798 175.4 156.598 175.7 156.898C176.5 157.798 177.2 158.798 178 159.698C178.4 160.198 178.8 160.498 179.2 160.998C179.8 161.698 180.4 162.398 181.1 163.298C182.1 164.498 182.8 165.698 183.7 166.998C183.2 167.198 182.7 167.298 182.3 167.498C181.6 167.798 180.7 167.998 179.9 168.198C179 168.298 178.2 168.498 177.5 168.698C177.3 168.698 177.1 168.798 176.9 168.898H176.4C176.2 169.098 175.9 169.198 175.6 169.198C175.1 169.298 174.6 169.298 174.1 169.198C173.4 169.198 172.6 168.998 171.9 169.198C171.5 169.298 171.1 169.698 170.6 169.698C170.1 169.698 169.6 169.498 169.2 170.098C169.2 170.098 169 170.098 168.9 169.998C168.4 169.598 167.8 169.698 167.4 169.998C167 170.298 166.6 170.198 166.3 170.198C165.3 170.198 164.2 170.198 163.2 169.998C162.4 169.898 161.7 169.598 160.9 169.398C160.1 169.298 159.2 169.398 158.5 168.998C157.8 168.598 157.1 168.398 156.4 168.298C156 168.298 155.6 167.798 155.1 168.298C155.1 168.298 154.9 168.298 154.8 168.298C153.9 167.198 152.5 167.898 151.4 167.298C150.3 166.698 149 166.398 147.9 165.898C147.6 165.798 147.3 165.398 146.9 165.698C146.7 165.698 146.4 165.698 146.3 165.398C145.8 164.398 144.7 164.198 143.9 163.598C143 162.898 142 162.398 141.4 161.298C141.2 160.798 140.8 160.298 140 160.298C139.6 160.298 139.4 159.698 139.1 159.398C138.8 159.198 138.4 159.098 138.2 158.798C138 158.598 138 158.198 137.9 157.898C137.9 157.898 137.9 157.698 137.7 157.698C137 157.198 136.5 156.398 136.3 155.598L135.9 154.398C135.8 153.998 135.7 153.598 135.5 153.198C134.7 151.698 134.4 149.898 134.3 148.198C134.3 147.298 134.4 146.298 135.5 145.698C136 145.398 136.6 145.398 136.9 145.698C137.2 145.998 137.4 146.198 137.5 146.498C137.6 146.998 137.7 147.398 137.9 147.798C138.1 148.198 138.3 148.698 138.5 149.098C138.7 149.498 138.9 149.898 138.9 150.398C138.9 150.698 139.2 150.898 138.9 151.298V151.498C139.5 151.898 139.7 152.498 140 152.998C140.1 153.298 140.2 153.598 140.3 153.898C140.4 154.198 140.6 154.498 140.8 154.698C141.1 155.098 141.5 155.498 141.9 155.798C142.3 156.098 142.7 156.398 143 156.898C143.8 156.898 144.2 157.398 144.5 157.898C145.6 159.798 147.7 160.598 149.6 161.598C151.5 162.598 153.6 163.298 155.8 163.898C156.2 163.898 156.6 163.698 156.9 164.098C157.2 164.498 157.8 164.398 158.3 164.498C158.7 164.498 159.2 164.498 159.6 164.798C161.2 165.798 163.1 165.598 164.8 165.698C166.5 165.898 168.3 165.898 170.1 165.698C171.2 165.498 172.2 165.098 173.2 165.098C173.7 165.098 174.1 164.698 174.6 165.098C174.8 165.198 175.1 164.698 175.4 164.598H175.8C175.8 164.498 176 164.498 176 164.498C176.1 164.498 176.3 164.498 176.4 164.498C176.4 164.498 176.4 164.398 176.2 164.298C176.1 164.198 175.7 164.098 175.6 164.098C175.6 164.098 175.5 164.098 175.4 163.898L175.2 163.698L174.9 163.298C174.4 162.598 174.1 161.798 173.6 161.098C173.1 160.398 172.3 159.798 172 158.998C171.4 157.498 170.2 156.398 169.2 155.198C168.2 153.998 167.2 152.798 166.1 151.698C165.5 151.098 165.3 150.198 164.7 149.498C164.4 149.198 165.1 147.798 165.6 147.598C165.6 147.598 165.8 147.598 165.9 147.598C166.8 147.898 167.9 147.998 168.5 148.698C169.4 149.798 170.5 150.898 171.4 151.998H171.5Z" fill="black"/>
<path d="M160 186.998L160.5 185.998C160.5 185.798 160.6 185.698 160.7 185.498C160.7 185.498 161.1 184.998 160.4 185.498C160 185.698 161 184.998 161 184.898V184.798H160.8C160.6 184.898 160.5 184.998 160.3 184.998C160.1 184.998 160 185.198 159.8 185.298H159.6C159.3 185.298 159 185.398 158.7 185.398C157.5 185.498 156.4 185.198 155.3 185.398C154.3 185.598 153.6 184.898 152.7 184.798C151.7 184.698 150.8 184.498 150 183.898C149.4 183.498 148.9 182.998 148.3 182.898C147.9 182.798 147.4 182.898 147 182.698C146.6 182.498 146.4 181.998 145.7 182.398C145.7 182.398 145.5 182.198 145.5 182.098C145.3 181.498 144.9 181.198 144.4 181.298C143.9 181.298 143.7 181.098 143.4 180.898C142.6 180.398 141.9 179.798 141.2 179.198C140.7 178.698 140.3 178.098 139.9 177.498C139.4 176.998 138.7 176.598 138.5 175.898C138.3 175.198 137.8 174.798 137.4 174.298C137.2 173.998 137.1 173.498 136.4 173.698C136.4 173.698 136.3 173.698 136.3 173.498C136.3 172.198 134.8 171.998 134.3 170.898C133.9 169.798 133.1 168.798 132.7 167.698C132.6 167.398 132.7 166.998 132.1 166.898C131.9 166.898 131.8 166.498 131.9 166.298C132.1 165.798 132 165.298 131.9 164.898C131.8 164.498 131.6 163.998 131.6 163.598C131.6 163.098 131.5 162.598 131.5 162.098C131.5 161.598 131.5 161.098 131.7 160.598C131.9 160.198 132 159.598 131.5 159.098C131.2 158.898 131.5 158.398 131.5 157.998C131.5 157.698 131.2 157.398 131.3 157.098C131.3 156.798 131.6 156.598 131.7 156.398V156.198C131.3 154.698 132.4 153.498 132.6 152.098C132.8 150.698 133.2 149.398 133.8 148.098C134.1 147.398 134.5 146.698 135.7 146.598C136.3 146.598 136.8 146.698 137 147.098C137.2 147.398 137.3 147.698 137.3 147.998C137.3 148.398 137.3 148.898 137.3 149.298C137.3 150.198 137.5 151.098 137 151.898C136.8 152.098 137 152.498 136.5 152.598C136.5 152.598 136.4 152.698 136.4 152.798C136.9 154.098 136.1 155.098 136 156.298C135.9 157.298 136.4 158.298 136 159.198C136.6 159.798 136.5 160.298 136.3 160.798C135.6 162.598 136.3 164.398 136.9 165.998C137.4 167.698 138.5 169.198 139.7 170.698C139.9 170.998 140.4 170.998 140.4 171.398C140.4 171.898 140.9 172.098 141.2 172.398C141.5 172.698 141.8 172.898 142 173.298C142.6 174.898 144 175.698 145.2 176.698C146.3 177.698 147.6 178.598 149 179.198C149.9 179.498 150.8 179.598 151.6 179.998C151.9 180.198 152.4 179.998 152.6 180.698C152.6 180.898 153.1 180.598 153.4 180.698C154 180.798 154.6 180.998 155.2 181.098C156 181.198 156.9 181.398 157.7 181.298C158.2 181.298 158.7 180.998 159.2 180.898C159.3 180.898 159.5 180.898 159.6 180.898H159.7H159.8L160.2 180.798L161.1 180.598C161.4 180.598 161.7 180.598 162 180.398C162.8 180.198 163.6 179.998 164.4 179.698C165.2 179.498 165.9 179.298 166.7 178.998C167 178.898 167.4 178.798 167.7 178.598V179.098V179.398V179.798C167.4 180.298 167.3 180.898 167 181.498C166.3 182.898 165.9 183.898 165.6 184.998C165.2 185.998 164.8 187.198 164.3 188.198C163.6 189.498 162.9 190.798 162.2 192.098C161.8 192.798 161 193.198 160.5 193.798C160.3 194.098 158.8 193.598 158.5 193.198C158.5 193.198 158.4 192.998 158.4 192.898C158.4 191.998 158.2 191.098 158.7 190.398C159.4 189.398 160 188.298 160.5 187.298L160 186.998Z" fill="black"/>
<path d="M115.4 161.299C114.4 161.699 113.4 161.999 112.3 162.199C111.9 162.199 111.4 162.099 111.1 162.699C110.9 162.999 110.5 162.399 110.1 162.399C109.1 162.399 108.1 162.299 107.1 162.199C106.1 162.099 105.1 162.099 104.2 161.899C103.3 161.699 102.5 161.099 101.5 160.999C100.7 160.999 100.2 160.199 99.4998 159.999C98.6998 159.799 97.8998 159.399 97.2998 158.699C96.8998 158.199 96.4998 157.699 95.9998 157.299C95.6998 157.099 95.1998 157.099 94.8998 156.699C94.5998 156.399 94.5998 155.799 93.7998 155.899C93.7998 155.899 93.7998 155.699 93.7998 155.499C93.7998 154.899 93.5998 154.399 93.1998 154.199C92.7998 153.899 92.6998 153.599 92.5998 153.199C92.2998 152.199 92.0998 151.199 92.1998 150.199C92.1998 149.499 92.5998 148.799 92.7998 148.099C92.9998 147.399 92.9998 146.599 93.4998 146.099C93.9998 145.599 94.2998 145.099 94.5998 144.499C94.7998 144.199 95.2998 143.999 94.8998 143.399C94.8998 143.399 94.8998 143.199 94.9998 143.199C96.2998 142.899 96.1998 141.499 97.1998 140.999C98.1998 140.499 99.0998 139.899 99.9998 139.399C100.3 139.299 100.6 139.399 100.7 138.799C100.7 138.599 101 138.499 101.2 138.599C102.1 138.899 102.8 138.399 103.6 138.299C104.5 138.299 105.4 137.899 106.3 138.299C106.7 138.499 107.2 138.599 107.6 137.999C107.8 137.699 108.2 137.999 108.6 137.999C108.9 137.999 109.1 137.699 109.4 137.699C109.6 137.699 109.8 137.999 110 138.099C110 138.099 110.1 138.099 110.2 138.099C111.5 137.599 112.6 138.699 113.8 138.799C115 138.899 116.2 139.299 117.3 139.699C117.9 139.899 118.5 140.299 118.6 141.499C118.6 142.099 118.5 142.599 118.1 142.799C117.8 142.999 117.6 143.099 117.3 143.099C116.9 143.099 116.5 143.099 116.2 143.099C115.4 143.099 114.6 143.399 114 142.899C113.8 142.799 113.5 142.899 113.4 142.399C113.4 142.399 113.4 142.299 113.3 142.299C112.2 142.799 111.3 142.099 110.3 141.999C109.5 141.999 108.6 142.499 107.9 142.199C107.4 142.799 107 142.699 106.5 142.499C104.9 141.899 103.4 142.699 102.1 143.099C100.7 143.599 99.4998 144.499 98.5998 145.499C98.3998 145.699 98.5998 145.999 98.1998 146.099C97.7998 146.099 97.7998 146.599 97.6998 146.799C97.5998 147.099 97.5998 147.399 97.3998 147.499C96.8998 147.899 96.6998 148.399 96.5998 148.999C96.5998 149.599 96.5998 150.099 96.5998 150.599C96.5998 151.599 97.0998 152.599 97.8998 153.399C98.3998 153.799 99.0998 153.999 99.5998 154.499C99.7998 154.699 100.3 154.599 100.2 155.299C100.2 155.499 100.7 155.299 100.9 155.299C101.4 155.499 101.8 155.799 102.3 155.999C103 156.299 103.7 156.599 104.4 156.799C104.8 156.899 105.3 156.799 105.8 156.799C106.3 156.799 106.7 156.999 107.1 157.099C107.6 157.299 108.2 157.599 108.7 157.699C109.3 157.799 109.9 157.599 110.4 157.799C111.5 158.299 112.4 157.799 113.5 157.499C114 157.399 114.6 157.199 115.1 156.999C115.4 156.899 115.7 156.799 115.9 156.699C116.1 156.599 116.4 156.499 116.5 156.299C116.9 155.999 117.5 156.199 117.6 155.999C117.6 155.999 118 155.999 118.4 156.099C118.8 156.099 119.3 156.099 119.6 156.199C119.6 156.199 119.8 156.299 119.8 156.399C120.1 157.399 119.8 158.799 118.8 159.299C118.1 159.699 117.5 159.899 117 160.099C116.5 160.299 116 160.499 115.4 160.699V161.299Z" fill="black"/>
<path d="M139.1 117.8C138.9 118.4 138.7 119 138.6 119.6C138.6 119.8 138.2 120 138.6 120.4C138.8 120.6 138.1 120.6 138.1 120.8C138 121.4 137.7 121.9 137.5 122.4C137.3 122.9 137.4 123.5 137.2 124.1C137 124.6 136.5 125 136.6 125.6C136.6 126.1 136 126.3 135.9 126.7C135.8 127.2 135.6 127.6 135.2 127.9C134.9 128.1 134.5 128.3 134.5 128.6C134.5 128.8 134.6 129.1 134.5 129.3C134.4 129.5 134 129.5 134.5 130C134.5 130 134.4 130 134.3 130C133.8 130 133.7 130.2 133.8 130.5C133.9 130.8 133.8 130.9 133.8 131.1C133.6 131.5 133.3 131.9 133 132.3C132.8 132.6 132.4 132.7 132.1 133C131.8 133.3 131.8 133.8 131.4 133.8C130.9 133.8 130.8 134.1 130.5 134.4C130.4 134.5 130 134.5 130.5 135.1C129.5 135 130 136.1 129.5 136.4C129 136.7 128.7 137.2 128.3 137.6C128.2 137.7 127.9 137.6 128.2 138.1C128.2 138.2 128.2 138.4 128 138.4C127.3 138.3 127.2 138.8 126.8 139.1C126.4 139.3 126.2 139.9 125.5 139.9C125.2 139.9 124.9 139.9 125.1 140.6C125.1 140.9 124.8 140.8 124.7 141C124.7 141.1 124.7 141.4 124.6 141.5C124.6 141.5 124.3 141.5 124.1 141.5C124 142.5 122.8 142.2 122.3 142.8C121.8 143.4 121.2 143.7 120.5 144.1C120.1 144.3 119.7 144.3 118.9 143.5C118.5 143.1 118.2 142.7 118.2 142.3C118.2 142 118.2 141.8 118.2 141.6C118.3 141.4 118.4 141.2 118.6 141C118.9 140.6 118.9 139.9 119.4 139.9C119.6 139.9 119.5 139.5 119.9 139.9H120C120 138.9 120.8 139 121.3 138.6C121.7 138.2 121.6 137.4 122.2 137.3C122 136.6 122.3 136.5 122.7 136.5C123.3 136.5 123.7 136.1 124.1 135.8C124.4 135.4 124.7 135 125.1 134.7C125.9 134 126.5 133.2 127.2 132.5C127.3 132.4 127.2 132 127.5 132C127.8 132 127.8 131.7 128 131.5C128.1 131.3 128.2 131.1 128.4 131C129.4 130.8 129.6 129.9 130.1 129.2C130.6 128.6 131.1 127.9 131.4 127.2C131.6 126.7 131.5 126.1 131.9 125.8C132.1 125.6 131.9 125.3 132.5 125.4C132.7 125.4 132.4 125 132.5 124.9C132.6 124.6 132.8 124.3 132.9 124C133.1 123.6 133.3 123.2 133.5 122.7C133.5 122.4 133.5 122.1 133.5 121.8C133.5 121.5 133.7 121.2 133.8 121C134 120.7 134.3 120.4 134.5 120.1C134.7 119.8 134.5 119.3 134.9 119C135.6 118.5 135.6 117.8 135.8 117.1C136 116.5 136.3 115.8 136.3 115.1C136.3 114.7 136.9 114.5 137 114.1C137 113.9 138.5 114 139 114.1C139 114.1 139.2 114.1 139.2 114.2C139.6 114.7 140.2 115.2 140 115.6C139.8 116.3 139.7 116.9 139.5 117.6L139.1 117.8Z" fill="black"/>
<path d="M91.7003 125.399C92.0003 124.599 92.3003 123.799 92.5003 122.999C92.5003 122.699 93.0003 122.499 92.5003 121.899C92.3003 121.599 93.0003 121.499 93.2003 121.199C93.5003 120.299 94.2003 119.499 94.9003 118.699C95.6003 117.999 96.3003 117.199 97.0003 116.799C97.8003 116.299 98.7003 116.199 99.3003 115.699C99.8003 115.199 100.5 115.499 101 115.099C101.5 114.799 102 114.399 102.6 114.399C103 114.399 103.4 114.399 103.6 114.099C103.8 113.899 103.6 113.499 103.8 113.399C103.9 113.399 104.3 113.299 103.8 112.799C103.8 112.799 103.8 112.799 104 112.799C104.4 112.799 104.5 112.699 104.3 112.399C104.1 112.199 104.2 112.099 104.3 111.899C104.3 111.499 104.5 110.999 104.6 110.399C104.7 109.899 105 109.399 105.2 108.899C105.4 108.299 105.3 107.499 105.9 106.999C106.4 106.499 106.8 105.999 107.2 105.499C107.5 105.199 108 105.199 107.8 104.499C107.8 104.499 107.9 104.399 108 104.399C108.7 104.399 109 104.099 109.4 103.799C109.8 103.499 110.1 103.099 110.6 102.999C111.6 102.999 112.4 102.599 113.3 102.499C113.5 102.499 113.8 102.599 113.9 102.099C113.9 101.899 114.2 101.899 114.3 101.999C115 102.599 115.6 102.099 116.3 102.199C117 102.199 117.8 101.999 118.5 102.499C118.8 102.699 119.2 102.799 119.6 102.299C119.8 101.999 120.1 102.299 120.4 102.299C120.6 102.299 120.9 101.999 121.1 101.999C121.3 101.999 121.5 102.299 121.6 102.399C121.6 102.399 121.7 102.399 121.8 102.399C123 101.899 123.9 102.999 125 102.999C126.1 102.999 127.2 103.499 128.2 103.899C128.8 104.099 129.3 104.599 129.2 105.799C129.2 106.299 128.9 106.899 128.6 107.099C128.3 107.299 128.1 107.399 127.9 107.399C127.6 107.399 127.2 107.399 126.9 107.399C126.2 107.399 125.5 107.699 125 107.299C124.8 107.199 124.5 107.299 124.5 106.899C124.5 106.899 124.5 106.799 124.4 106.799C123.4 107.399 122.7 106.699 121.8 106.599C121.1 106.599 120.3 107.099 119.6 106.799C119.2 107.399 118.7 107.299 118.3 107.099C116.9 106.399 115.5 106.899 114.1 107.099C112.7 107.099 111.4 107.599 110.6 108.099C110.5 108.099 110.6 108.499 110.3 108.399C110 108.399 110 108.599 110 108.699C110 108.799 110 108.999 109.8 109.099C109.4 109.299 109.2 109.799 109.1 110.399C109.1 110.999 109.1 111.599 108.9 112.299C108.7 112.999 108.5 113.699 108.2 114.399C108 114.799 107.8 115.099 107.6 115.499C107.4 115.799 107.1 116.199 106.9 116.499C106.3 117.199 105.7 118.099 104.8 118.399C104.4 118.499 104.2 118.999 103.7 118.599C103.5 118.499 103.4 118.999 103.2 119.099C102.7 119.399 102.2 119.499 101.7 119.699C101 119.999 100.4 120.199 99.9003 120.499C99.6003 120.699 99.4003 121.099 99.1003 121.299L98.7003 121.599C98.6003 121.599 98.4003 121.799 98.3003 121.799C98.0003 121.999 97.6003 122.099 97.3003 122.299C97.0003 122.599 97.1003 123.099 96.6003 123.399C95.8003 123.999 95.7003 125.199 95.3003 126.099C94.9003 127.099 94.5003 127.999 94.3003 129.099C94.2003 129.699 93.5003 129.999 93.3003 130.599C93.3003 130.899 91.7003 130.699 91.3003 130.399C91.3003 130.399 91.1003 130.299 91.1003 130.199C90.8003 129.499 90.3003 128.799 90.6003 128.199C91.0003 127.299 91.3003 126.399 91.6003 125.499L91.7003 125.399Z" fill="black"/>
<path d="M118.8 123.102C118.5 123.402 118.1 123.702 117.8 124.102C117.7 124.202 117.4 124.102 117.6 124.702C117.6 125.002 117.2 124.602 117.1 124.702C116.8 125.002 116.4 125.202 116 125.402C115.7 125.702 115.4 126.102 115 126.302C114.6 126.502 114.1 126.402 113.9 126.902C113.7 127.302 113.2 126.902 112.9 127.102C112.6 127.302 112.3 127.502 112 127.402C111.8 127.302 111.5 127.202 111.4 127.402C111.4 127.502 111.4 127.802 111.2 127.902C111.1 127.902 110.9 127.702 111 128.302C111 128.302 111 128.302 110.9 128.202C110.6 127.902 110.5 128.002 110.6 128.202C110.6 128.502 110.6 128.502 110.6 128.502C110.5 128.602 110.4 128.702 110.2 128.802C110.1 128.802 109.8 128.802 109.7 128.802C109.6 128.802 109.7 129.202 109.4 129.102C109.1 129.102 109 129.102 108.9 129.302C108.9 129.302 108.6 129.302 109.1 129.702C108.2 129.602 109.1 130.202 108.9 130.402C108.6 130.602 108.7 131.002 108.6 131.402C108.6 131.502 108.4 131.602 108.8 131.802C108.9 131.802 108.9 132.002 108.8 132.002C108.1 132.202 108.4 132.602 108.2 132.902C107.9 133.302 108 133.902 107.3 134.102C107 134.102 106.8 134.302 107.1 134.902C107.2 135.202 106.8 135.202 106.7 135.402C106.7 135.602 106.7 135.902 106.5 136.002C106.4 136.002 106.1 136.002 105.9 136.002H105.8C105.6 136.502 105.2 136.602 104.7 136.702C104.3 136.702 103.9 136.702 103.5 136.702C102.7 137.002 101.8 136.802 101.1 136.402C100.7 136.202 100.3 135.802 100.7 134.702C100.9 134.202 101.3 133.802 101.5 133.602C101.7 133.402 101.9 133.302 101.9 133.202C102 133.202 102.2 133.102 102.3 133.002C102.5 132.902 102.7 132.402 102.8 132.702C102.8 132.702 102.8 132.502 102.9 133.002C102.9 132.602 103 132.502 103.1 132.502C103.1 132.502 103.3 132.502 103.4 132.502C103.6 132.402 103.2 131.802 103.4 132.002C103 131.502 103 131.602 103.2 131.702C103.5 131.702 103.7 131.602 103.8 131.302C103.8 131.102 103.8 130.702 104 130.402C104.2 129.802 104.3 128.902 104.7 127.902C104.7 127.702 104.5 127.402 104.9 127.402C105.2 127.402 105.2 127.002 105.3 126.802C105.4 126.602 105.4 126.402 105.7 126.302C106.7 126.102 106.9 125.302 107.6 124.902C108.3 124.502 109 124.202 109.5 123.802C109.8 123.602 110.1 123.102 110.5 123.102C110.7 123.102 110.7 122.702 111 123.302C111 123.402 111 123.002 111.2 122.902C111.4 122.802 111.6 122.702 111.8 122.702C112.1 122.702 112.3 122.502 112.6 122.402C112.7 122.402 112.8 122.002 112.9 121.902C113 121.802 113.2 121.702 113.4 121.702C113.6 121.702 113.9 121.702 114.1 121.702C114.3 121.702 114.4 121.302 114.7 121.402C115.3 121.602 115.5 121.102 115.9 120.802C116.2 120.602 116.6 120.302 116.7 119.902C116.7 119.702 117.3 119.902 117.5 119.602C117.5 119.602 118.9 120.202 119.3 120.502C119.3 120.502 119.4 120.602 119.5 120.702C119.7 121.202 120.1 121.902 119.9 122.102C119.5 122.502 119.2 122.902 118.8 123.302V123.102Z" fill="black"/>
<path d="M182.1 105.701C180.8 105.201 179.6 104.501 178.5 103.701C178.1 103.401 177.8 102.901 177.1 102.901C176.7 102.901 176.8 102.101 176.4 101.801C175.4 100.901 174.7 99.7007 174.1 98.7007C173.5 97.7007 172.8 96.9007 172.3 96.4007C172 96.1007 171.8 95.9007 171.5 95.6007C171.2 95.4007 170.9 95.2007 170.4 95.2007C169.7 95.2007 169.2 94.6007 168.3 94.5007C167.5 94.5007 166.5 94.5007 165.8 94.2007C165.2 94.0007 164.7 93.8007 164.2 94.0007C163.9 94.1007 163.7 94.5007 163.5 94.5007C163.3 94.5007 162.9 94.5007 163.2 95.1007C163.2 95.1007 163.2 95.1007 163 95.1007C162.6 94.9007 162.3 95.3007 162.4 95.7007C162.4 96.1007 162.3 96.3007 162.1 96.6007C161.6 97.4007 161 98.5007 159.7 99.4007C158.7 100.101 157.5 100.301 156.4 100.301C155.3 100.301 154.2 100.501 153.4 99.9007C152.6 99.4007 151.9 99.1007 151.2 98.7007C150.8 98.5007 150.6 98.0007 149.9 98.4007C149.9 98.4007 149.7 98.4007 149.7 98.3007C149.2 97.0007 147.8 97.3007 147.1 96.7007C146.4 96.1007 145.5 96.0007 144.6 95.9007C144.4 95.9007 144.1 95.7007 143.9 96.1007C143.9 96.3007 143.6 96.3007 143.5 96.1007C142.8 95.5007 142.1 96.0007 141.4 96.1007C140.6 96.1007 139.9 96.7007 139 96.7007C138.6 96.7007 138.1 96.9007 138.1 97.6007C138.1 97.9007 137.6 98.0007 137.4 98.2007C137.3 98.4007 137.3 98.8007 137.1 98.9007C137 99.1007 136.6 99.0007 136.4 99.1007C136.4 99.1007 136.3 99.1007 136.3 99.3007C136.2 100.001 135.8 100.401 135.4 100.901C135 101.301 134.5 101.801 134.3 102.401C133.9 103.601 133.5 104.801 133.2 106.101V106.401L132.8 107.701L131.9 108.101C130.1 108.901 128.4 107.601 128.6 106.301C128.7 105.601 129.3 105.501 129.7 105.401C130 105.401 130.2 105.201 130.3 105.101C130.4 105.101 130.5 104.901 130.5 104.901L129.8 105.901C129.8 105.701 129.8 105.601 129.8 105.401C129.8 104.401 129.5 103.201 130.1 102.301C130.3 102.001 130.1 101.501 130.7 101.501C130.7 101.501 130.9 101.401 130.9 101.301C130.7 99.7007 132 98.5007 132.8 97.4007C133.5 96.4007 134 95.0007 135.2 94.4007C135.4 93.5007 136.3 93.0007 137 92.8007C138.3 92.5007 139.6 92.1007 140.9 91.8007C142.2 91.5007 143.5 91.3007 144.9 91.5007C146.3 91.7007 147.6 92.0007 148.9 92.6007C150.1 93.2007 151.1 93.9007 152 94.5007C152.3 94.7007 152.7 94.5007 152.9 95.0007C153.1 95.4007 153.6 95.4007 153.9 95.6007C154.2 95.7007 154.6 95.6007 154.8 95.9007C155.3 96.4007 156 96.4007 156.4 96.3007C156.9 96.1007 157.1 95.8007 157.6 95.3007C158.1 94.8007 158.5 94.0007 159.1 93.2007C159.7 92.4007 160.7 91.4007 161.8 90.9007C163.1 90.2007 164.5 89.8007 165.8 90.0007C166.3 90.0007 166.9 89.8007 167.3 90.4007C167.4 90.6007 167.9 90.2007 168.2 90.2007C169 90.2007 169.8 90.4007 170.6 90.7007C171.8 91.0007 173 91.6007 174.1 92.3007C174.8 92.8007 175.6 93.3007 176.1 93.9007C176.7 94.5007 177 95.2007 177.3 95.8007C177.7 96.6007 177.8 97.3007 178.2 97.9007C178.6 98.5007 179.3 98.9007 179.6 99.6007C180.2 100.901 181.5 101.501 182.7 102.101C183.9 102.701 185.2 103.201 186.5 103.201C187.2 103.201 187.9 103.801 188.7 103.701C189 103.701 189.7 105.101 189.6 105.601C189.6 105.601 189.6 105.801 189.5 105.801C188.7 106.301 187.8 107.101 186.7 106.901C185.1 106.701 183.6 106.401 182.1 105.801V105.701Z" fill="black"/>
<path d="M169.5 130.798C168.8 130.398 168.1 129.898 167.4 129.498C167.1 129.298 167.1 128.898 166.5 129.098C166.2 129.198 166.4 128.498 166.2 128.398C165.6 127.898 165.1 127.298 164.6 126.798C164 126.298 163.5 125.798 163.1 125.498C162.7 125.198 162.7 124.798 162.3 124.998C162 125.198 161.9 124.698 161.5 124.698C161.1 124.798 160.6 124.898 160.1 124.698C159.7 124.598 159.3 124.398 158.8 124.498C158.5 124.498 158.2 124.898 157.9 124.898C157.6 124.898 157.2 124.598 156.8 125.098C156.8 125.098 156.6 125.098 156.6 124.898C156.3 124.398 155.9 124.298 155.5 124.498C155.1 124.698 154.9 124.498 154.6 124.498C153.9 124.198 153.1 123.798 152.6 123.198C152.2 122.798 151.9 122.198 151.6 121.698C151.3 121.198 150.7 120.798 150.7 120.098C150.7 119.498 150.6 118.998 150.4 118.598C150.4 118.298 150.5 117.998 149.9 117.998C149.9 117.998 149.9 117.998 149.9 117.898C150.5 116.998 149.3 116.798 149.4 116.298C149.4 115.798 149.1 115.598 148.9 115.498C148.9 115.498 148.9 115.298 148.6 115.598C148.6 115.698 148.5 115.698 148.5 115.598C148.5 114.898 148.1 115.198 147.8 115.098C147.4 114.898 146.9 115.098 146.4 114.698C146.2 114.498 145.8 114.398 145.6 114.998C145.5 115.298 145.2 114.998 145 115.098C144.8 115.098 144.7 115.498 144.5 115.498C144.4 115.498 144.2 115.298 144 115.198C144 115.198 144 115.198 143.9 115.198C143.2 115.998 142.3 115.198 141.5 115.598C140.7 115.998 139.9 116.098 139.1 116.298C138.7 116.298 138.2 116.298 137.5 115.398C137.2 114.998 137 114.498 137.1 114.098C137.1 113.798 137.3 113.498 137.4 113.398C137.6 113.198 137.9 112.998 138.1 112.798C138.6 112.398 139 111.698 139.7 111.898C139.9 111.898 140.1 111.598 140.3 111.998C140.3 111.998 140.4 111.998 140.5 111.998C141.1 110.998 142.1 111.398 142.9 111.198C143.6 111.098 144.2 110.298 145 110.598C145.4 109.898 145.9 109.998 146.3 110.198C147.1 110.498 147.9 110.598 148.7 110.698C149.6 110.798 150.6 111.098 151.5 111.798C152.4 112.498 153 113.498 153.4 114.298C153.8 115.198 154 115.898 154.1 116.598C154.1 116.798 154.5 116.898 154.3 117.198C154.1 117.498 154.3 117.698 154.5 117.898C154.5 118.098 154.8 118.198 154.7 118.398C154.6 118.898 154.7 119.198 155 119.498C155.3 119.798 155.6 119.998 155.9 120.198C156.5 120.698 157.2 120.998 158 120.898C158.5 120.898 159 120.398 159.7 120.498C160 120.498 160.3 120.198 160.6 120.798C160.6 120.998 161 120.498 161.2 120.498C161.7 120.498 162.3 120.498 163 120.698C163.9 120.898 164.9 121.398 165.6 121.898C166.1 122.198 166.6 122.398 166.9 122.798C167.3 123.098 167.5 123.498 167.7 123.798C167.9 124.198 168 124.598 168.3 124.998C168.6 125.398 169.1 125.498 169.2 125.998C169.5 126.898 170.3 127.198 171 127.698C171.3 127.898 171.7 128.198 172 128.298C172.2 128.298 172.3 128.398 172.4 128.498C172.4 128.498 172.4 128.498 172.5 128.498C172.5 128.698 172.5 128.698 172.5 128.798C172.5 128.398 172.5 129.298 172.5 129.198C172.5 129.098 172.5 128.998 172.5 128.998C172.5 128.998 172.6 129.098 172.8 129.198C172.9 129.198 172.9 129.198 173 129.198C173.4 129.198 173.9 128.798 174.1 128.898C174.1 128.898 174.3 128.898 174.4 128.998C175 129.998 174.7 131.698 173.1 132.098C172.1 132.198 171.3 131.998 170.8 131.698C170.3 131.498 169.9 131.298 169.5 130.998V130.798Z" fill="black"/>
<path d="M182.4 120.901C182.3 120.801 182.1 120.601 181.9 120.601C181.9 120.601 181.9 120.301 181.5 120.701C181.4 120.901 181.5 120.301 181.5 120.301C181.3 120.301 181.1 120.101 180.8 120.101C180.5 120.101 180.2 120.201 180 120.201C179.7 120.201 179.6 119.901 179.2 120.201C178.9 120.401 178.7 119.901 178.5 119.901C178.2 119.901 177.9 119.901 177.7 119.701C177.5 119.501 177.4 119.201 177.2 119.301C177.1 119.301 176.8 119.601 176.7 119.501C176.6 119.501 176.5 119.101 176.2 119.701C176.2 119.701 176.2 119.701 176.2 119.501C176.2 119.101 176 119.001 175.8 119.201C175.6 119.401 175.5 119.301 175.3 119.201C174.9 119.101 174.6 118.901 174.3 118.601C174.1 118.401 174 118.001 173.8 117.701C173.6 117.401 173.2 117.301 173.2 116.901C173.2 116.501 173.2 116.201 173 116.001C173 115.801 173.1 115.601 172.5 115.601C172.5 115.601 172.5 115.601 172.5 115.501C173.2 114.801 172 114.701 172.2 114.301C172.4 113.901 172.2 113.601 172.2 113.301C172.2 113.301 172.4 113.101 171.9 113.101C171.7 113.101 171.7 113.101 171.9 113.001C172.2 112.901 172.2 112.801 172.2 112.701C172.2 112.601 172 112.701 172.4 112.401C172.5 112.401 172.6 112.201 172.4 112.301C172.4 112.301 172.2 112.401 172.1 112.501C172.1 112.501 171.9 112.701 171.9 112.801C171.9 112.801 172 112.601 172.1 112.501C171.7 113.101 172.1 112.301 171.8 112.401C171.6 112.601 171.3 112.401 171 112.401C170.8 112.401 170.6 112.201 170.4 111.101C170.3 110.601 170.2 110.001 170.3 109.701C170.3 109.501 170.4 109.201 170.5 109.201C170.6 109.101 170.8 108.901 170.9 108.801C171.2 108.601 171.5 108.001 171.8 108.301C171.8 108.301 172.1 108.101 172.1 108.601C172.6 107.801 173.3 108.501 173.8 108.601C174.3 108.701 175.1 108.601 175.3 109.101C175.6 109.001 175.8 109.101 176 109.101C176.2 109.201 176.2 109.401 176.2 109.601C176.2 110.901 176.8 111.901 176.8 112.601C176.8 113.301 176.9 113.801 177 114.101C177 114.101 177.4 114.101 177.1 114.101C176.9 114.201 177.1 114.101 177.1 114.201C177.1 114.201 177.3 114.201 177.1 114.301C176.7 114.801 177.1 114.801 177.4 115.001C177.6 115.201 177.9 115.401 178.3 115.401C178.6 115.401 178.9 115.101 179.1 115.401C179.1 115.401 179.4 115.201 179.3 115.801C179.3 116.001 179.5 115.601 179.6 115.501C179.8 115.501 180 115.501 180.1 115.501C180.3 115.501 180.6 115.601 180.9 115.601C181.1 115.601 181.3 115.401 181.6 115.401C181.8 115.401 182 115.401 182.2 115.601C182.4 115.701 182.7 116.001 182.9 116.201C183.1 116.401 183.6 116.201 183.7 116.601C184 117.301 184.6 117.301 185 117.801C185.4 118.201 185.8 118.701 186.3 119.201C186.6 119.501 186.3 120.001 186.3 120.301C186.3 120.501 185 121.001 184.5 121.101H184.3C183.8 121.101 183.1 121.301 183.1 121.101C183.1 120.901 182.9 120.801 182.8 120.701L182.4 120.901Z" fill="black"/>
</svg>
