<svg width="300" height="300" viewBox="0 0 300 300" fill="none" xmlns="http://www.w3.org/2000/svg">
<path d="M196.1 157.801C195.7 157.301 195.3 156.801 194.8 156.401C194.6 156.201 194.6 155.901 194.1 156.101C193.8 156.101 194.1 155.601 194 155.401C193.5 155.001 193.2 154.501 192.7 154.101C192.3 153.701 191.7 153.401 191.3 153.101C190.9 152.701 190.7 152.101 190.1 151.901C189.6 151.701 189.6 151.101 189.2 150.801C188.8 150.501 188.4 150.201 188.2 149.701C188.1 149.301 188 148.901 187.7 148.701C187.5 148.601 187.1 148.701 187 148.501C186.9 148.301 186.9 148.001 186.3 148.201C186.3 148.201 186.3 148.101 186.3 148.001C186.4 147.501 186.3 147.401 185.9 147.401C185.6 147.401 185.5 147.301 185.3 147.201C184.9 146.901 184.6 146.501 184.3 146.101C184.1 145.801 184 145.401 183.8 145.101C183.6 144.801 183.1 144.701 183.1 144.201C183.1 143.701 182.8 143.501 182.6 143.201C182.5 143.101 182.6 142.701 181.9 143.001C182.1 142.001 180.9 142.401 180.7 141.801C180.5 141.201 179.9 140.901 179.5 140.501C179.4 140.401 179.5 140.101 179 140.301C178.8 140.301 178.7 140.301 178.7 140.101C178.9 139.301 178.3 139.301 178 138.901C177.7 138.401 177.2 138.301 177.2 137.501C177.2 137.201 177.1 136.901 176.5 137.101C176.2 137.101 176.2 136.801 176.1 136.701C176 136.701 175.7 136.701 175.5 136.601C175.5 136.601 175.5 136.301 175.5 136.101C174.5 136.101 174.7 134.901 174 134.601C173.4 134.301 172.9 133.801 172.5 133.401C172.2 133.201 172.1 132.801 172.4 131.701C172.5 131.201 172.8 130.701 173.1 130.501C173.3 130.401 173.6 130.201 173.8 130.301C174.1 130.301 174.4 130.301 174.6 130.501C175.2 130.601 175.9 130.501 176.2 131.201C176.2 131.401 176.6 131.201 176.4 131.801V131.901C177.5 131.901 177.7 132.701 178.2 133.201C178.7 133.601 179.5 133.601 179.7 134.201C180.4 134.001 180.6 134.401 180.6 134.701C180.9 136.001 182 136.501 182.7 137.501C183.4 138.401 184.3 139.201 185.1 140.101C185.2 140.301 185.6 140.101 185.6 140.501C185.6 140.801 185.9 140.901 186.1 141.101C186.3 141.301 186.5 141.401 186.6 141.601C186.7 142.701 187.7 143.101 188.2 143.901C188.8 144.601 189.4 145.301 190.1 145.901C190.6 146.201 191.2 146.401 191.5 146.901C191.6 147.101 192 147.101 191.8 147.601C191.8 147.801 192.2 147.601 192.3 147.701C192.6 147.901 192.8 148.301 193.1 148.501C193.5 148.901 193.8 149.301 194.2 149.701C194.4 149.901 194.8 150.001 195.1 150.201C195.4 150.401 195.6 150.701 195.8 150.901C196 151.301 196.2 151.701 196.4 152.101C196.7 152.501 197.2 152.601 197.3 153.101C197.5 154.001 198.2 154.401 198.7 155.101C199.2 155.701 199.7 156.301 200.3 156.801C200.7 157.101 200.6 157.701 200.9 158.001C201 158.101 200.2 159.401 199.7 159.601H199.5C198.9 159.601 198.1 159.801 197.8 159.401C197.4 158.801 196.8 158.301 196.3 157.801H196.1Z" fill="black"/>
<path d="M131 176.899C131.2 177.399 131.301 177.899 131.601 178.399C131.601 178.599 131.601 178.899 132.101 178.899C132.401 178.899 131.8 179.299 131.9 179.499C132.1 179.899 132.2 180.399 132.4 180.899C132.6 181.299 132.901 181.799 133.101 182.199C133.301 182.599 133.1 183.199 133.5 183.599C133.9 183.899 133.501 184.399 133.601 184.699C133.801 185.099 133.9 185.499 133.8 185.899C133.701 186.199 133.501 186.499 133.601 186.799C133.601 186.999 134 187.099 134 187.299C134 187.499 133.8 187.699 134.4 187.799C134.4 187.799 134.401 187.799 134.3 187.899C133.9 188.099 134 188.399 134.3 188.499C134.601 188.599 134.601 188.799 134.601 188.899C134.601 189.299 134.701 189.699 134.601 190.099C134.601 190.399 134.401 190.699 134.3 190.999C134.3 191.299 134.5 191.599 134.3 191.899C134 192.199 134 192.499 134 192.699C134 192.899 133.7 192.999 134.4 193.199C133.6 193.699 134.7 194.099 134.4 194.599C134.2 195.099 134.4 195.599 134.4 195.999C134.4 196.099 134.2 196.299 134.7 196.399C134.9 196.399 134.9 196.599 134.7 196.599C134.1 196.899 134.401 197.299 134.3 197.699C134.201 198.099 134.4 198.499 133.9 198.899C133.7 199.099 133.601 199.299 134.101 199.499C134.401 199.599 134.101 199.799 134.101 199.999C134.101 200.099 134.4 200.299 134.4 200.399C134.4 200.499 134.2 200.599 134 200.699C134 200.699 134 200.699 134 200.799C134.6 201.499 133.701 201.999 133.8 202.599C133.9 203.199 133.801 203.799 133.601 204.399C133.601 204.699 133.301 205.099 132.101 205.199C131.601 205.199 131 205.199 130.7 204.999C130.5 204.899 130.3 204.699 130.2 204.599C130.2 204.399 130 204.199 129.9 203.999C129.7 203.599 129.301 203.199 129.601 202.799C129.601 202.699 129.4 202.499 129.9 202.499C129.2 201.899 129.7 201.399 129.7 200.899C129.7 200.399 129.1 199.999 129.4 199.499C128.8 199.199 128.901 198.899 129.101 198.699C129.801 197.899 129.4 196.999 129.5 196.099C129.6 195.199 129.5 194.299 129.5 193.399C129.5 193.199 129.2 193.099 129.5 192.899C129.8 192.699 129.5 192.499 129.5 192.299C129.5 192.099 129.4 191.899 129.5 191.799C130.1 191.099 129.7 190.399 129.7 189.699C129.7 188.999 129.7 188.299 129.5 187.599C129.3 187.199 129 186.799 129 186.399C129 186.199 128.7 186.099 129.2 185.799C129.4 185.799 128.901 185.599 128.801 185.499C128.801 185.199 128.801 184.899 128.601 184.699C128.601 184.299 128.5 183.899 128.301 183.599C128.301 183.399 127.901 183.199 127.801 182.999C127.701 182.799 127.6 182.499 127.6 182.299C127.6 181.999 127.7 181.599 127.6 181.299C127.6 180.999 127.2 180.699 127.4 180.299C127.7 179.599 127.2 179.099 127.1 178.499C126.9 177.899 126.7 177.399 126.4 176.899C126.2 176.599 126.5 176.099 126.4 175.799C126.4 175.699 127.601 174.899 128.101 174.699H128.301C128.901 174.799 129.601 174.799 129.801 175.199C130.001 175.799 130.2 176.299 130.5 176.799L131 176.899Z" fill="black"/>
<path d="M178.501 164.599C178.901 164.399 179.201 164.299 179.601 163.999C179.701 163.999 180.001 163.999 179.901 163.499C179.901 163.199 180.301 163.699 180.401 163.699C180.701 163.499 181.101 163.399 181.401 163.199C181.701 162.999 181.901 162.599 182.201 162.399C182.501 162.199 183.001 162.399 183.201 161.899C183.401 161.499 183.801 161.899 184.001 161.599C184.201 161.399 184.501 161.199 184.901 161.299C185.201 161.299 185.501 161.499 185.601 161.299C185.601 161.199 185.601 160.799 185.801 160.799C185.901 160.799 186.201 160.999 186.101 160.299C186.101 160.299 186.101 160.299 186.301 160.299C186.601 160.599 186.801 160.499 186.801 160.299C186.801 159.999 186.901 159.999 187.001 159.899C187.301 159.799 187.601 159.599 187.901 159.599C188.101 159.599 188.401 159.599 188.701 159.599C188.901 159.599 189.101 159.199 189.401 159.399C189.701 159.599 189.901 159.499 190.101 159.399C190.201 159.399 190.501 159.599 190.301 158.899C190.901 159.599 190.901 158.399 191.301 158.499C191.701 158.499 192.001 158.299 192.401 158.199C192.401 158.199 192.701 158.299 192.601 157.799C192.601 157.599 192.601 157.599 192.801 157.699C193.301 158.199 193.401 157.699 193.701 157.699C194.001 157.699 194.301 157.299 194.701 157.699C194.901 157.899 195.101 157.899 195.101 157.299C195.101 156.999 195.301 157.299 195.401 157.099C195.401 157.099 195.401 156.699 195.601 156.699C195.601 156.699 195.801 156.899 195.901 156.999C196.201 156.199 196.901 156.999 197.301 156.599C197.701 156.299 198.201 156.199 198.701 156.199C199.001 156.199 199.301 156.199 199.801 157.299C200.001 157.799 200.201 158.299 200.101 158.699C200.101 158.999 200.101 159.199 200.001 159.299C199.901 159.399 199.801 159.599 199.701 159.699C199.501 159.999 199.301 160.599 199.001 160.399C198.901 160.399 198.901 160.699 198.601 160.199C198.401 161.099 197.901 160.699 197.501 160.899C197.201 161.099 197.001 161.799 196.601 161.599C196.601 162.299 196.401 162.199 196.101 162.099C195.201 161.699 194.701 162.299 194.001 162.499C193.301 162.599 192.701 162.999 192.001 163.199C191.901 163.199 192.001 163.599 191.701 163.399C191.501 163.199 191.401 163.399 191.201 163.499C191.101 163.499 191.001 163.699 190.801 163.599C190.001 163.199 189.701 163.799 189.101 163.899C188.601 163.999 188.001 164.199 187.601 164.599C187.301 164.799 187.201 165.299 186.801 165.299C186.601 165.299 186.601 165.699 186.301 165.199C186.201 165.099 186.301 165.499 186.201 165.599C186.001 165.699 185.801 165.799 185.601 165.899C185.301 165.999 185.001 166.099 184.701 166.299C184.501 166.399 184.501 166.699 184.301 166.899C184.101 166.999 184.001 167.099 183.701 167.199C183.401 167.199 183.101 167.199 182.801 167.199C182.501 167.199 182.401 167.599 182.001 167.499C181.301 167.299 181.001 167.699 180.601 167.899C180.101 168.099 179.701 168.199 179.301 168.599C179.101 168.799 178.601 168.499 178.401 168.599C178.301 168.599 177.501 167.399 177.301 166.999V166.799C177.301 166.299 177.201 165.499 177.501 165.399C177.901 165.299 178.301 164.999 178.701 164.799L178.501 164.599Z" fill="black"/>
<path d="M159.1 158.402C159.1 158.202 159.1 158.002 159.1 157.902C159.1 157.902 159.3 157.802 158.8 157.702C158.5 157.702 159.2 157.602 159.1 157.502C159.1 157.302 159.1 157.202 159.1 157.002C159.1 156.802 158.8 156.702 158.8 156.502C158.8 156.302 159.1 156.202 158.8 156.002C158.5 155.802 159 155.802 158.9 155.602C158.8 155.502 158.7 155.302 158.9 155.202C159.1 155.202 159.3 155.002 159.2 154.902C159.2 154.902 158.8 154.702 158.9 154.702C158.9 154.702 159.2 154.702 158.6 154.502C158.6 154.502 158.6 154.502 158.8 154.502C159.2 154.502 159.2 154.502 158.9 154.302C158.6 154.302 158.7 154.202 158.7 154.102C158.7 154.002 158.7 153.802 158.7 153.702C158.7 153.702 159 153.502 159.1 153.502C159.1 153.502 158.9 153.202 159.2 153.202C159.5 153.202 159.5 153.102 159.5 153.002C159.5 153.002 159.8 153.002 159.2 152.802C160 152.802 159 152.402 159.2 152.302C159.4 152.202 159.3 152.002 159.4 151.802C159.4 151.802 159.6 151.802 159.2 151.602C159 151.502 159 151.602 159.2 151.602C159.8 151.602 159.5 151.402 159.6 151.302C159.8 151.202 159.6 151.002 160 151.002C160.2 151.002 160.3 151.002 159.8 150.702C159.6 150.602 159.8 150.702 159.8 150.502L159.5 150.302C159.5 150.302 159.7 150.302 159.9 150.302C159.3 149.902 160.3 150.002 160.2 149.702C160.2 149.402 160.2 149.302 160.4 149.102C160.4 149.102 160.7 149.002 161.8 149.302C162.3 149.502 162.8 149.702 163.1 149.902C163.3 150.002 163.5 150.102 163.5 150.202C163.5 150.202 163.7 150.402 163.7 150.502C163.8 150.702 164.3 151.002 164 151.002C164 151.002 164.2 151.202 163.7 151.002C164.4 151.402 163.8 151.402 163.8 151.602C163.8 151.702 164.4 152.102 164.1 152.102C164.7 152.402 164.5 152.402 164.3 152.402C163.6 152.402 163.9 152.802 163.8 153.102C163.6 153.302 163.7 153.602 163.6 153.902C163.6 153.902 163.9 154.102 163.6 154.102C163.3 154.102 163.6 154.202 163.6 154.302C163.6 154.302 163.7 154.402 163.6 154.502C162.9 154.502 163.3 154.902 163.2 155.102C163.2 155.302 163 155.502 163.2 155.702C163.2 155.802 163.6 156.002 163.5 156.102C163.5 156.102 163.8 156.202 163.2 156.202C163 156.202 163.5 156.202 163.5 156.302C163.5 156.302 163.5 156.502 163.5 156.602C163.5 156.702 163.5 156.802 163.5 157.002L163.8 157.202V157.402C163.8 157.402 163.5 157.602 163.4 157.702C163.4 157.802 163.6 157.902 163.4 158.002C162.9 158.202 163.1 158.402 163.1 158.602C163.1 158.802 163.1 159.002 163.1 159.102C163.1 159.102 162.7 159.302 162.7 159.402C162.7 159.402 161.2 159.602 160.7 159.702H160.5C160 159.702 159.3 159.602 159.3 159.402C159.3 159.202 159.3 159.002 159.3 158.802L159.1 158.402Z" fill="black"/>
<path d="M169.5 159.101C169.5 158.901 169.5 158.701 169.5 158.601C169.5 158.601 169.7 158.501 169.2 158.401C168.9 158.401 169.6 158.301 169.5 158.201C169.5 158.001 169.5 157.901 169.5 157.701C169.5 157.501 169.2 157.401 169.2 157.201C169.2 157.001 169.5 156.901 169.2 156.701C168.9 156.501 169.4 156.501 169.3 156.301C169.2 156.201 169.1 156.001 169.3 155.901C169.5 155.901 169.7 155.701 169.6 155.601C169.6 155.601 169.2 155.401 169.3 155.401C169.3 155.401 169.6 155.401 169 155.201C169 155.201 169 155.201 169.2 155.201C169.6 155.201 169.6 155.201 169.3 155.001C169 155.001 169.1 154.901 169.1 154.801C169.1 154.701 169.1 154.501 169.1 154.401C169.1 154.401 169.4 154.201 169.5 154.201C169.5 154.201 169.3 153.901 169.6 153.901C169.9 153.901 169.9 153.801 169.9 153.701C169.9 153.701 170.2 153.701 169.6 153.501C170.4 153.501 169.4 153.101 169.6 153.001C169.8 152.901 169.7 152.701 169.8 152.501C169.8 152.501 170 152.501 169.6 152.301C169.4 152.201 169.4 152.301 169.6 152.301C170.2 152.301 169.9 152.101 170 152.001C170.2 151.901 170 151.701 170.4 151.701C170.6 151.701 170.7 151.701 170.2 151.401C170 151.301 170.2 151.401 170.2 151.201L169.9 151.001C169.9 151.001 170.1 151.001 170.3 151.001C169.7 150.601 170.7 150.701 170.6 150.401C170.6 150.101 170.6 150.001 170.8 149.801C170.8 149.801 171.1 149.701 172.2 150.001C172.7 150.201 173.2 150.401 173.5 150.601C173.7 150.701 173.9 150.801 173.9 150.901C173.9 150.901 174.1 151.101 174.1 151.201C174.2 151.401 174.7 151.701 174.4 151.701C174.4 151.701 174.6 151.901 174.1 151.701C174.8 152.101 174.2 152.101 174.2 152.301C174.2 152.401 174.8 152.801 174.5 152.801C175.1 153.101 174.9 153.101 174.7 153.101C174 153.101 174.3 153.501 174.2 153.801C174 154.001 174.1 154.301 174 154.601C174 154.601 174.3 154.801 174 154.801C173.7 154.801 174 154.901 174 155.001C174 155.001 174.1 155.101 174 155.201C173.3 155.201 173.7 155.601 173.6 155.801C173.6 156.001 173.4 156.201 173.6 156.401C173.6 156.501 174 156.701 173.9 156.801C173.9 156.801 174.2 156.901 173.6 156.901C173.4 156.901 173.9 156.901 173.9 157.001C173.9 157.001 173.9 157.201 173.9 157.301C173.9 157.401 173.9 157.501 173.9 157.701L174.2 157.901V158.101C174.2 158.101 173.9 158.301 173.8 158.401C173.8 158.501 174 158.601 173.8 158.701C173.3 158.901 173.5 159.101 173.5 159.301C173.5 159.501 173.5 159.701 173.5 159.801C173.5 159.801 173.1 160.001 173.1 160.101C173.1 160.101 171.6 160.301 171.1 160.401H170.9C170.4 160.401 169.7 160.301 169.7 160.101C169.7 159.901 169.7 159.701 169.7 159.501L169.5 159.101Z" fill="black"/>
<path d="M183.901 169.302C184.801 170.302 185.601 171.302 186.401 172.202C186.701 172.602 186.801 173.102 187.601 173.102C188.001 173.102 187.801 173.902 188.101 174.202C188.901 175.102 189.601 176.102 190.401 177.002C190.801 177.502 191.201 177.802 191.601 178.302C192.201 179.002 192.801 179.702 193.501 180.602C194.501 181.802 195.201 183.002 196.101 184.302C195.601 184.502 195.101 184.602 194.701 184.802C194.001 185.102 193.101 185.302 192.301 185.502C191.401 185.602 190.601 185.802 189.901 186.002C189.701 186.002 189.501 186.102 189.301 186.202H188.801C188.601 186.402 188.301 186.502 188.001 186.502C187.501 186.602 187.001 186.602 186.501 186.502C185.801 186.502 185.001 186.302 184.301 186.502C183.901 186.602 183.501 187.002 183.001 187.002C182.501 187.002 182.001 186.802 181.601 187.402C181.601 187.402 181.401 187.402 181.301 187.302C180.801 186.902 180.201 187.002 179.801 187.302C179.401 187.602 179.001 187.502 178.701 187.502C177.701 187.502 176.601 187.502 175.601 187.302C174.801 187.202 174.101 186.902 173.301 186.702C172.501 186.602 171.601 186.702 170.901 186.302C170.201 185.902 169.501 185.702 168.801 185.602C168.401 185.602 168.001 185.102 167.501 185.602C167.501 185.602 167.301 185.602 167.201 185.602C166.301 184.502 164.901 185.202 163.801 184.602C162.701 184.002 161.401 183.702 160.301 183.202C160.001 183.102 159.701 182.702 159.301 183.002C159.101 183.002 158.801 183.002 158.701 182.702C158.201 181.702 157.101 181.502 156.301 180.902C155.401 180.202 154.401 179.702 153.801 178.602C153.601 178.102 153.201 177.602 152.401 177.602C152.001 177.602 151.801 177.002 151.501 176.702C151.201 176.502 150.801 176.402 150.601 176.102C150.401 175.902 150.401 175.502 150.301 175.202C150.301 175.202 150.301 175.002 150.101 175.002C149.401 174.502 148.901 173.702 148.701 172.902L148.301 171.702C148.201 171.302 148.101 170.902 147.901 170.502C147.101 169.002 146.801 167.202 146.701 165.502C146.701 164.602 146.801 163.602 147.901 163.002C148.401 162.702 149.001 162.702 149.301 163.002C149.601 163.302 149.801 163.502 149.901 163.802C150.001 164.302 150.101 164.702 150.301 165.102C150.501 165.502 150.701 166.002 150.901 166.402C151.101 166.802 151.301 167.202 151.301 167.702C151.301 168.002 151.601 168.202 151.301 168.602V168.802C151.901 169.202 152.101 169.802 152.401 170.302C152.501 170.602 152.601 170.902 152.701 171.202C152.801 171.502 153.001 171.802 153.201 172.002C153.501 172.402 153.901 172.802 154.301 173.102C154.701 173.402 155.101 173.702 155.401 174.202C156.201 174.202 156.601 174.702 156.901 175.202C158.001 177.102 160.101 177.902 162.001 178.902C163.901 179.902 166.001 180.602 168.201 181.202C168.601 181.202 169.001 181.002 169.301 181.402C169.601 181.802 170.201 181.702 170.701 181.802C171.101 181.802 171.601 181.802 172.001 182.102C173.601 183.102 175.501 182.902 177.201 183.002C178.901 183.202 180.701 183.202 182.501 183.002C183.601 182.802 184.601 182.402 185.601 182.402C186.101 182.402 186.501 182.002 187.001 182.402C187.201 182.502 187.501 182.002 187.801 181.902H188.201C188.201 181.802 188.401 181.802 188.401 181.802C188.501 181.802 188.701 181.802 188.801 181.802C188.801 181.802 188.801 181.702 188.601 181.602C188.501 181.502 188.101 181.402 188.001 181.402C188.001 181.402 187.901 181.402 187.801 181.202L187.601 181.002L187.301 180.602C186.801 179.902 186.501 179.102 186.001 178.402C185.501 177.702 184.701 177.102 184.401 176.302C183.801 174.802 182.601 173.702 181.601 172.502C180.601 171.302 179.601 170.102 178.501 169.002C177.901 168.402 177.701 167.502 177.101 166.802C176.801 166.502 177.501 165.102 178.001 164.902C178.001 164.902 178.201 164.902 178.301 164.902C179.201 165.202 180.301 165.302 180.901 166.002C181.801 167.102 182.901 168.202 183.801 169.302H183.901Z" fill="black"/>
<path d="M172.4 204.302L172.9 203.302C172.9 203.102 173 203.002 173.1 202.802C173.1 202.802 173.5 202.302 172.8 202.802C172.4 203.002 173.4 202.302 173.4 202.202V202.102H173.2C173 202.202 172.9 202.302 172.7 202.302C172.5 202.302 172.4 202.502 172.2 202.602H172C171.7 202.602 171.4 202.702 171.1 202.702C169.9 202.802 168.8 202.502 167.7 202.702C166.7 202.902 166 202.202 165.1 202.102C164.1 202.002 163.2 201.802 162.4 201.202C161.8 200.802 161.3 200.302 160.7 200.202C160.3 200.102 159.8 200.202 159.4 200.002C159 199.802 158.8 199.302 158.1 199.702C158.1 199.702 157.9 199.502 157.9 199.402C157.7 198.802 157.3 198.502 156.8 198.602C156.3 198.602 156.1 198.402 155.8 198.202C155 197.702 154.3 197.102 153.6 196.502C153.1 196.002 152.7 195.402 152.3 194.802C151.8 194.302 151.1 193.902 150.9 193.202C150.7 192.502 150.2 192.102 149.8 191.602C149.6 191.302 149.5 190.802 148.8 191.002C148.8 191.002 148.7 191.002 148.7 190.802C148.7 189.502 147.2 189.302 146.7 188.202C146.3 187.102 145.5 186.102 145.1 185.002C145 184.702 145.1 184.302 144.5 184.202C144.3 184.202 144.2 183.802 144.3 183.602C144.5 183.102 144.4 182.602 144.3 182.202C144.2 181.802 144 181.302 144 180.902C144 180.402 143.9 179.902 143.9 179.402C143.9 178.902 143.9 178.402 144.1 177.902C144.3 177.502 144.4 176.902 143.9 176.402C143.6 176.202 143.9 175.702 143.9 175.302C143.9 175.002 143.6 174.702 143.7 174.402C143.7 174.102 144 173.902 144.1 173.702V173.502C143.7 172.002 144.8 170.802 145 169.402C145.2 168.002 145.6 166.702 146.2 165.402C146.5 164.702 146.9 164.002 148.1 163.902C148.7 163.902 149.2 164.002 149.4 164.402C149.6 164.702 149.7 165.002 149.7 165.302C149.7 165.702 149.7 166.202 149.7 166.602C149.7 167.502 149.9 168.402 149.4 169.202C149.2 169.402 149.4 169.802 148.9 169.902C148.9 169.902 148.8 170.002 148.8 170.102C149.3 171.402 148.5 172.402 148.4 173.602C148.3 174.602 148.8 175.602 148.4 176.502C149 177.102 148.9 177.602 148.7 178.102C148 179.902 148.7 181.702 149.3 183.302C149.8 185.002 150.9 186.502 152.1 188.002C152.3 188.302 152.8 188.302 152.8 188.702C152.8 189.202 153.3 189.402 153.6 189.702C153.9 190.002 154.2 190.202 154.4 190.602C155 192.202 156.4 193.002 157.6 194.002C158.7 195.002 160 195.902 161.4 196.502C162.3 196.802 163.2 196.902 164 197.302C164.3 197.502 164.8 197.302 165 198.002C165 198.202 165.5 197.902 165.8 198.002C166.4 198.102 167 198.302 167.6 198.402C168.4 198.502 169.3 198.702 170.1 198.602C170.6 198.602 171.1 198.302 171.6 198.202C171.7 198.202 171.9 198.202 172 198.202H172.1H172.2L172.6 198.102L173.5 197.902C173.8 197.902 174.1 197.902 174.4 197.702C175.2 197.502 176 197.302 176.8 197.002C177.6 196.802 178.3 196.602 179.1 196.302C179.4 196.202 179.8 196.102 180.1 195.902V196.402V196.702V197.102C179.8 197.602 179.7 198.202 179.4 198.802C178.7 200.202 178.3 201.202 178 202.302C177.6 203.302 177.2 204.502 176.7 205.502C176 206.802 175.3 208.102 174.6 209.402C174.2 210.102 173.4 210.502 172.9 211.102C172.7 211.402 171.2 210.902 170.9 210.502C170.9 210.502 170.8 210.302 170.8 210.202C170.8 209.302 170.6 208.402 171.1 207.702C171.8 206.702 172.4 205.602 172.9 204.602L172.4 204.302Z" fill="black"/>
<path d="M127.201 177.898C126.201 177.898 125.201 177.899 124.201 177.799C123.801 177.799 123.501 177.498 123.101 177.998C122.901 178.198 122.601 177.598 122.301 177.498C121.401 177.498 120.601 177.199 119.701 177.099C118.901 176.999 118.001 177.099 117.101 176.799C116.201 176.599 115.501 176.099 114.601 176.099C113.801 176.099 113.401 175.299 112.701 175.099C112.001 174.899 111.201 174.499 110.701 173.799C110.301 173.299 110.001 172.798 109.501 172.498C109.201 172.298 108.701 172.298 108.501 171.898C108.301 171.598 108.201 171.099 107.501 171.099C107.501 171.099 107.501 170.899 107.501 170.799C107.601 170.199 107.401 169.798 107.001 169.498C106.601 169.298 106.501 168.899 106.401 168.599C106.101 167.699 105.901 166.799 106.001 165.799C106.001 165.099 106.401 164.398 106.601 163.698C106.801 162.998 107.001 162.099 107.601 161.599C108.301 161.199 108.701 160.699 109.201 160.299C109.501 159.999 110.001 160.098 109.901 159.398C109.901 159.398 110.001 159.299 110.101 159.299C110.801 159.399 111.201 159.198 111.601 158.898C112.001 158.598 112.401 158.198 112.901 158.198C113.901 158.198 114.701 157.898 115.601 157.698C115.801 157.698 116.101 157.799 116.301 157.299C116.301 157.099 116.601 157.098 116.801 157.198C117.501 157.798 118.201 157.298 118.901 157.398C119.701 157.498 120.501 157.199 121.201 157.799C121.501 157.999 121.901 158.199 122.401 157.599C122.601 157.299 123.001 157.599 123.301 157.599C123.501 157.599 123.801 157.298 124.001 157.398C124.201 157.398 124.401 157.699 124.501 157.799C124.501 157.799 124.601 157.799 124.701 157.799C126.001 157.299 126.901 158.499 128.001 158.599C129.201 158.799 130.301 159.199 131.301 159.799C131.901 160.099 132.401 160.599 132.301 161.799C132.301 162.299 132.001 162.798 131.601 162.998C131.301 163.098 131.001 163.298 130.801 163.198C130.501 163.198 130.101 163.198 129.801 163.198C129.101 163.198 128.301 163.398 127.801 162.898C127.601 162.798 127.301 162.898 127.301 162.398C127.301 162.398 127.301 162.299 127.201 162.299C126.101 162.799 125.401 162.098 124.501 161.998C123.701 161.898 122.901 162.398 122.201 161.998C121.701 162.598 121.301 162.398 120.901 162.198C119.401 161.498 117.901 161.999 116.401 162.099C114.901 162.199 113.401 162.599 112.401 163.099C112.201 163.099 112.301 163.598 112.001 163.498C111.701 163.498 111.601 163.698 111.501 163.898C111.401 163.998 111.401 164.199 111.201 164.299C110.701 164.399 110.501 164.899 110.401 165.299C110.401 165.699 110.401 166.198 110.401 166.698C110.401 167.698 110.801 168.599 111.601 169.299C112.101 169.699 112.701 169.898 113.201 170.398C113.401 170.598 113.801 170.399 113.701 171.099C113.701 171.299 114.101 171.099 114.301 171.099C114.701 171.299 115.101 171.498 115.601 171.698C116.201 171.998 116.801 172.198 117.501 172.398C117.901 172.398 118.401 172.398 118.801 172.398C119.201 172.398 119.701 172.598 120.101 172.698C120.601 172.898 121.101 173.198 121.701 173.398C122.301 173.598 122.901 173.398 123.501 173.698C124.501 174.398 125.601 174.199 126.601 174.299C127.601 174.299 128.501 174.298 129.201 173.898C129.601 173.698 130.101 173.898 130.501 173.698C130.501 173.698 130.901 173.799 131.301 174.099C131.701 174.299 132.101 174.599 132.201 174.799C132.201 174.799 132.201 174.999 132.201 175.099C132.101 175.899 131.801 176.998 130.901 177.398C129.601 177.898 128.401 178.098 127.201 178.198V177.898Z" fill="black"/>
<path d="M172.901 133.902C172.201 134.402 171.401 134.902 170.701 135.502C170.401 135.702 170.001 135.702 170.101 136.302C170.101 136.602 169.501 136.302 169.301 136.502C168.701 137.002 167.901 137.502 167.301 138.002C166.701 138.502 166.201 139.202 165.501 139.702C164.901 140.202 164.001 140.502 163.601 141.202C163.201 141.802 162.401 141.802 162.001 142.202C161.501 142.702 161.001 143.202 160.301 143.402C159.801 143.502 159.301 143.602 159.001 144.002C158.801 144.202 158.801 144.702 158.501 144.802C158.201 145.002 157.801 144.902 157.901 145.602C157.901 145.602 157.701 145.602 157.601 145.602C157.101 145.502 156.801 145.702 156.701 146.102C156.701 146.502 156.401 146.602 156.201 146.702C155.701 147.102 155.101 147.502 154.501 147.902C154.101 148.202 153.501 148.302 153.001 148.502C152.501 148.802 152.201 149.302 151.601 149.402C151.001 149.402 150.601 149.702 150.201 150.002C150.001 150.202 149.501 150.102 149.701 150.802C149.701 150.802 149.701 150.902 149.601 150.902C148.501 150.702 148.501 152.002 147.701 152.302C146.901 152.602 146.301 153.202 145.601 153.702C145.401 153.802 145.101 153.802 145.201 154.302C145.201 154.502 145.101 154.602 144.901 154.602C144.001 154.402 143.701 155.102 143.101 155.402C142.401 155.702 142.001 156.402 141.101 156.402C140.701 156.402 140.301 156.602 140.401 157.202C140.401 157.502 140.001 157.502 139.801 157.702C139.701 157.902 139.601 158.202 139.501 158.302C139.401 158.402 139.101 158.302 138.901 158.302C138.901 158.302 138.801 158.302 138.801 158.402C138.301 159.502 136.901 159.402 136.201 160.202C135.401 161.002 134.501 161.502 133.601 162.002C133.101 162.302 132.501 162.502 131.501 161.802C131.101 161.502 130.701 161.002 130.801 160.602C130.801 160.302 130.801 160.002 131.001 159.802C131.201 159.502 131.401 159.202 131.601 159.002C132.101 158.502 132.301 157.602 133.101 157.502C133.301 157.502 133.401 157.102 133.801 157.402H134.001C134.301 156.202 135.401 156.102 136.201 155.502C136.801 155.002 137.101 154.002 138.001 153.802C138.001 153.002 138.501 152.802 139.001 152.702C140.701 152.302 141.801 151.002 143.101 150.202C144.501 149.302 145.801 148.302 147.101 147.402C147.301 147.202 147.301 146.802 147.701 146.902C148.101 146.902 148.301 146.502 148.601 146.302C148.901 146.102 149.101 145.802 149.401 145.802C150.801 145.602 151.701 144.502 152.701 143.802C153.801 143.102 154.901 142.402 155.801 141.602C156.401 141.102 156.801 140.302 157.501 140.002C157.801 139.902 157.901 139.402 158.501 139.702C158.701 139.702 158.701 139.202 158.801 139.102C159.201 138.702 159.701 138.502 160.101 138.102C160.701 137.702 161.301 137.302 161.901 136.802C162.201 136.502 162.501 136.002 162.801 135.702C163.101 135.402 163.501 135.102 164.001 134.902C164.501 134.602 165.101 134.402 165.701 134.102C166.201 133.802 166.601 133.202 167.201 133.102C168.401 132.902 169.101 132.002 170.101 131.402C171.001 130.802 171.901 130.202 172.801 129.402C173.301 129.002 174.001 129.002 174.501 128.702C174.701 128.502 175.901 129.502 176.101 130.002C176.101 130.002 176.101 130.202 176.101 130.302C175.901 131.002 175.901 131.902 175.301 132.302C174.401 132.802 173.701 133.502 172.801 134.102L172.901 133.902Z" fill="black"/>
<path d="M182.2 129.298C181.6 127.798 180.9 126.298 180.1 124.798C179.8 124.298 179.7 123.598 178.9 123.298C178.5 123.198 178.7 122.298 178.4 121.898C177.5 120.598 176.7 119.298 175.7 118.198C175.2 117.598 174.7 117.098 174.1 116.598L173.3 115.798C173 115.498 172.8 115.298 172.6 115.198H172.5V114.998C172.4 114.998 172.5 114.998 171.9 114.998C171.4 115.098 170.9 115.298 170.5 115.498C169.4 116.098 168.2 115.898 167.1 116.398C166 116.898 164.8 117.498 163.6 117.798C162.7 117.998 161.8 118.198 161.1 118.698C160.6 118.998 160.3 119.498 159.8 119.798C159.3 119.998 158.6 120.098 158.5 120.898C158.5 120.898 158.2 120.898 158.1 120.898C157.4 120.898 156.7 121.298 156.4 121.798C156.1 122.298 155.7 122.498 155.3 122.798C154.2 123.498 153.2 124.198 152.1 124.898C151.3 125.398 150.4 125.798 149.5 126.298C148.6 126.798 147.9 127.698 147 127.998C146.1 128.298 145.3 128.898 144.6 129.398C144.2 129.698 143.6 129.898 143.6 130.598C143.6 130.598 143.5 130.798 143.4 130.798C141.7 131.098 141.4 132.898 140.1 133.798C138.8 134.698 137.8 135.898 136.6 136.998C136.3 137.298 135.8 137.498 135.9 138.098C135.9 138.298 135.6 138.598 135.4 138.698C134.1 139.098 133.5 140.198 132.6 140.998C131.5 141.898 130.8 143.098 129.4 143.698C128.8 143.998 128.2 144.498 128.1 145.398C128.1 145.798 127.4 146.098 127.1 146.498C126.8 146.798 126.8 147.298 126.5 147.598C126.3 147.898 125.8 147.898 125.5 148.098C125.5 148.098 125.3 148.198 125.3 148.298C124.3 150.198 122.3 150.998 121 152.598C119.7 154.198 118.1 155.598 116.5 156.898C115.6 157.598 114.6 158.298 113.2 157.898C112.6 157.698 112.3 157.298 112.4 156.698C112.5 156.298 112.7 155.898 112.9 155.598C113.3 155.098 113.7 154.598 114.1 154.098C114.9 153.098 115.5 151.798 116.6 151.098C117 150.898 117.1 150.298 117.7 150.398C117.7 150.398 117.9 150.398 118 150.198C118.7 148.398 120.4 147.398 121.7 146.098C122.8 144.998 123.4 143.398 124.7 142.498C124.9 141.398 125.7 140.798 126.4 140.298C129.1 138.598 130.9 135.998 133.2 133.898C135.5 131.798 137.8 129.498 140.3 127.398C140.7 126.998 140.9 126.498 141.6 126.298C142.3 126.098 142.7 125.498 143.3 125.098C143.8 124.698 144.3 124.198 144.8 123.998C147.2 123.098 149 121.298 151.1 119.998C153.2 118.698 155.4 117.398 157.5 116.098C158.8 115.298 160 114.298 161.5 113.798C162.1 113.598 162.6 112.998 163.5 113.298C163.7 113.298 164.1 112.698 164.5 112.598C165.5 112.198 166.5 111.798 167.6 111.498C168.3 111.298 169 111.098 169.8 110.898C170.6 110.698 171 110.498 172.5 110.398C172.9 110.398 173.3 110.398 173.7 110.398C174.3 110.498 174.9 110.698 175.4 110.998C176 111.298 176.3 111.598 176.6 111.898C177.3 112.598 178 113.298 178.5 114.098C179.2 115.098 179.8 116.198 180.4 117.198C181.1 118.298 182 119.198 182.4 120.398C183.1 122.598 184.4 124.398 185.2 126.398C185.6 127.398 186 128.398 186.4 129.498L186.6 129.998C186.6 130.198 186.8 130.398 186.8 130.598C186.9 130.998 187 131.398 187 131.798C187 132.698 186.5 133.398 185.9 133.998C185.7 134.198 185.5 134.298 185.3 134.498L185 134.698C184.9 134.698 184.9 134.698 184.8 134.798C184.5 134.898 184.3 135.098 184 135.198C183.5 135.398 182.9 135.698 182.5 135.998C182.1 136.298 180.6 135.598 180.5 134.998C180.5 134.898 180.5 134.798 180.5 134.698C181.1 133.598 181.6 132.398 182.7 131.698C182.9 131.598 183 131.498 183.1 131.398C183.2 131.298 183.2 131.098 183.1 130.998L182.8 130.198L182.3 128.898L182.2 129.298Z" fill="black"/>
<path d="M149.699 116.402C146.799 117.202 143.999 118.202 141.399 119.602C140.899 119.902 140.399 120.102 139.899 120.402C139.799 120.402 139.699 120.502 139.499 120.602C139.299 120.702 139.099 120.902 138.899 121.002C138.499 121.302 138.099 121.802 137.599 122.302C137.199 122.702 136.699 123.102 136.099 123.402C135.499 124.002 134.799 124.602 134.099 125.202C134.099 125.202 133.899 125.102 133.799 125.002C133.799 125.002 133.699 125.002 133.599 125.002H133.099C132.899 125.002 132.699 124.902 132.699 124.902C132.499 124.902 132.199 124.902 132.099 124.902C131.999 124.902 131.799 125.002 131.699 125.102L131.399 125.402C131.499 125.102 131.699 124.902 131.599 124.502C131.599 124.302 131.499 124.102 131.299 123.802C131.299 123.702 130.999 123.502 130.899 123.302C130.699 123.102 130.599 123.002 130.299 122.802L131.099 121.202L131.499 120.402L131.699 119.802L131.999 118.602C131.999 118.402 132.099 118.202 132.199 118.002V117.502L132.399 116.402C132.399 116.202 132.399 116.002 132.399 115.902V115.602C132.399 115.202 132.399 114.802 132.399 114.402C132.499 111.802 132.599 109.002 131.999 106.502C131.499 104.302 131.599 102.302 130.799 100.502C130.399 99.6016 129.899 98.8016 129.299 97.9016C128.699 97.1016 127.999 96.3016 127.299 95.4016C126.799 94.8016 126.299 94.1016 125.699 93.5016C125.199 92.9016 124.599 92.4016 123.999 92.1016C123.199 91.7016 122.399 91.7016 121.999 91.6016C121.599 91.6016 121.099 91.5016 121.199 92.2016C121.199 92.2016 120.999 92.3016 120.799 92.4016C120.399 92.6016 120.099 93.0016 119.899 93.5016C119.699 94.0016 119.599 94.5016 119.599 94.9016C119.599 95.7016 119.399 96.4016 119.299 97.1016C118.999 99.1016 119.099 101.102 119.599 103.102V103.402V103.502C119.599 103.702 119.599 103.602 119.599 103.702V104.102C119.699 104.102 120.299 105.502 120.299 105.502C120.399 105.702 120.399 105.902 120.599 106.202L121.099 107.002L122.099 108.602C121.799 108.902 121.499 109.202 121.299 109.502C121.099 109.702 120.999 109.902 120.899 110.102C120.799 110.302 120.899 110.402 120.799 110.502C120.799 110.602 120.799 110.702 120.799 110.802C120.799 110.802 120.699 110.802 120.599 110.802C120.599 110.802 120.499 110.802 120.399 110.902C120.399 110.902 120.199 110.902 120.099 111.002C119.999 111.002 119.799 111.102 119.699 111.102C119.499 111.102 119.299 111.202 119.099 111.302C118.999 111.302 118.899 111.302 118.799 111.402L118.399 111.602C117.299 110.902 116.299 110.402 115.399 109.902L113.999 109.302C113.799 109.302 113.499 109.102 113.299 109.002L112.699 108.802C111.799 108.502 110.899 108.002 109.999 108.402C109.999 108.402 109.599 108.402 109.499 108.302C108.299 107.602 106.999 107.502 105.799 107.602H104.899C104.599 107.602 104.299 107.702 104.099 107.802C103.599 107.802 103.099 108.002 102.699 108.102C102.299 108.102 102.099 108.302 101.999 108.402C101.999 108.502 101.899 108.602 101.899 109.102C101.899 109.502 102.099 110.302 102.199 110.802C102.399 111.402 102.599 112.002 102.799 112.502C102.999 113.102 103.199 113.802 103.899 113.902C104.099 113.902 104.499 114.402 104.599 114.702C105.299 116.402 107.299 117.302 109.099 118.402C111.099 119.702 113.399 120.602 115.399 122.002C116.299 122.602 117.499 123.302 118.899 123.102C119.499 123.102 120.499 123.702 121.399 123.902C121.999 124.002 122.499 124.102 122.999 124.202C123.699 124.302 124.499 124.502 125.199 124.702C126.499 125.002 127.399 125.502 128.399 125.902C128.699 126.002 129.099 126.102 129.499 126.202C129.499 126.202 129.599 126.202 129.699 126.202C128.799 127.302 127.499 128.602 126.299 130.002C125.699 130.702 124.999 131.302 124.399 132.002C124.099 132.402 123.799 132.602 123.499 133.002C122.399 134.302 121.399 135.602 120.699 137.202C119.999 138.802 119.399 140.402 118.899 142.102C118.399 143.802 117.999 145.402 117.799 147.202C117.599 149.102 117.399 151.002 116.399 152.402C115.899 153.102 115.399 153.102 114.999 152.302C114.699 151.702 114.399 150.902 114.399 150.202C114.399 149.602 114.299 149.002 114.299 148.402C114.299 147.802 114.299 147.202 114.299 146.602C114.299 144.102 114.299 141.502 115.499 139.202C115.799 138.502 115.899 137.502 116.599 137.102C116.599 137.102 116.899 136.802 116.899 136.602C117.199 134.902 118.099 133.302 119.099 131.802C119.599 131.102 120.199 130.402 120.699 129.702H120.799C120.799 129.602 120.799 129.502 120.799 129.502L120.899 129.302C120.899 129.202 121.099 129.102 121.199 129.002C121.299 128.902 121.399 128.702 121.399 128.602C120.999 128.602 120.499 128.602 120.299 128.602H120.099H119.899L119.499 128.402C118.999 128.202 118.399 128.002 117.899 127.802C116.199 127.802 114.399 127.002 112.999 126.202C110.499 124.702 107.999 123.302 105.499 121.802C104.299 121.002 102.999 120.202 101.699 119.202C100.499 118.202 99.2995 116.802 98.5995 115.202C97.8995 113.702 97.3995 112.102 97.1995 110.502C97.0995 109.702 96.8995 108.702 97.1995 107.402C97.4995 106.202 98.4995 105.102 99.3995 104.502C100.399 103.902 101.299 103.702 102.199 103.502C103.099 103.402 103.999 103.302 104.799 103.402C106.299 103.402 107.799 103.702 109.299 103.902C110.299 104.102 111.299 103.902 112.399 104.502C112.699 104.602 112.899 104.802 113.199 104.902C113.299 104.902 113.499 105.002 113.599 105.102C113.699 105.102 113.799 105.102 113.899 105.102C113.899 105.102 113.899 105.102 113.999 105.102C114.099 105.102 114.099 105.102 114.499 105.402L114.999 105.802L115.199 106.002C115.199 106.002 115.399 106.202 115.399 106.102C115.399 106.102 115.099 105.602 114.899 105.102C114.899 104.902 114.699 104.802 114.699 104.602V104.402L114.399 103.702C114.099 102.502 113.899 101.402 113.899 100.202C113.799 97.7016 114.099 95.3016 114.999 92.9016C115.399 91.7016 115.899 90.6016 116.699 89.4016C117.099 88.8016 117.699 88.2016 118.399 87.8016C119.099 87.4016 119.999 87.1016 120.799 87.1016C122.899 87.1016 124.499 87.9016 125.799 88.7016C126.499 89.1016 127.099 89.6016 127.599 90.1016C128.099 90.6016 128.599 91.0016 129.099 91.6016C129.899 92.5016 131.099 93.2016 131.399 94.6016C131.399 95.0016 132.599 95.7016 132.999 96.5016C134.099 98.4016 134.699 100.502 134.999 102.402C135.499 105.102 135.699 107.702 135.799 110.402C135.799 112.002 136.099 113.702 135.999 115.402V115.902V116.002L135.199 117.302L135.599 116.902C135.699 116.702 135.799 116.602 135.899 116.602C135.899 116.602 135.899 116.602 135.999 116.602C135.999 116.602 136.199 116.602 136.299 116.602C136.399 116.602 136.399 116.602 136.999 116.302C137.899 115.802 138.799 115.402 139.699 115.002C141.499 114.102 143.399 113.402 145.299 112.802C149.099 111.702 152.899 110.802 156.899 110.302C159.199 110.002 161.299 110.502 163.499 110.802C164.599 110.902 165.599 112.702 165.099 113.102C165.099 113.102 164.799 113.202 164.699 113.202C162.599 113.202 160.899 113.802 158.599 113.902C155.299 114.002 151.899 114.802 148.599 115.702L149.699 116.402Z" fill="black"/>
</svg>
