<svg width="300" height="300" viewBox="0 0 300 300" fill="none" xmlns="http://www.w3.org/2000/svg">
<path d="M184.4 141.401C184.1 141.101 183.8 140.701 183.4 140.401C183.3 140.301 183.4 140.001 182.8 140.201C182.5 140.301 182.8 139.801 182.8 139.701C182.5 139.501 182.2 139.101 181.9 138.801C181.6 138.601 181.1 138.401 180.8 138.201C180.5 138.001 180.4 137.501 179.9 137.401C179.5 137.401 179.6 136.801 179.3 136.701C179 136.601 178.6 136.401 178.6 136.001C178.6 135.701 178.6 135.401 178.3 135.301C178.1 135.301 177.8 135.301 177.7 135.301C177.7 135.201 177.7 134.901 177.1 135.301C177.1 135.301 177.1 135.301 177.1 135.101C177.3 134.701 177.1 134.601 176.8 134.701C176.5 134.801 176.4 134.701 176.3 134.701C176 134.501 175.7 134.301 175.5 134.001C175.3 133.801 175.3 133.401 175.2 133.201C175 133.001 174.6 133.001 174.7 132.601C174.7 132.201 174.5 132.001 174.3 131.901C174.2 131.901 174.3 131.501 173.8 131.901C174.1 131.001 173 131.501 172.9 131.101C172.7 130.701 172.3 130.501 172 130.201C172 130.201 172 129.901 171.6 130.201C171.5 130.201 171.4 130.201 171.4 130.101C171.6 129.401 171.1 129.501 170.9 129.201C170.7 128.901 170.2 128.801 170.3 128.201C170.3 127.901 170.3 127.701 169.7 128.001C169.4 128.101 169.5 127.801 169.4 127.801C169.3 127.801 169 127.801 168.9 127.801C168.9 127.801 168.9 127.501 168.9 127.401C168 127.401 168.3 126.501 167.8 126.201C167.3 125.901 167 125.501 166.6 125.001C166.4 124.701 166.3 124.401 167 123.501C167.3 123.101 167.7 122.701 168 122.601C168.2 122.601 168.5 122.401 168.6 122.501C168.8 122.501 169 122.501 169.2 122.601C169.6 122.701 170.2 122.601 170.2 123.101C170.2 123.201 170.5 123.101 170.2 123.501V123.601C171.1 123.401 171.1 124.101 171.5 124.401C171.8 124.701 172.6 124.401 172.7 125.001C173.3 124.701 173.4 125.001 173.4 125.301C173.5 126.301 174.4 126.601 174.9 127.201C175.4 127.801 176.1 128.301 176.7 128.901C176.7 129.001 177.1 128.901 177.1 129.101C177.1 129.401 177.3 129.401 177.5 129.501C177.6 129.601 177.8 129.601 177.8 129.901C177.8 130.801 178.6 131.001 179 131.501C179.4 132.001 179.9 132.501 180.5 132.801C180.9 133.001 181.4 133.001 181.6 133.401C181.6 133.601 182.1 133.401 181.8 134.001C181.8 134.201 182.1 134.001 182.2 134.001C182.4 134.201 182.6 134.401 182.8 134.601C183.1 134.901 183.3 135.201 183.6 135.401C183.8 135.501 184.1 135.501 184.3 135.601C184.5 135.701 184.7 135.901 184.8 136.101C185 136.401 185 136.701 185.2 137.001C185.4 137.301 185.8 137.301 185.8 137.701C185.8 138.501 186.4 138.701 186.8 139.101C187.2 139.501 187.5 140.001 188 140.301C188.3 140.501 188.1 141.001 188.3 141.301C188.4 141.401 187.5 142.601 187.1 142.901L186.9 143.001C186.4 143.001 185.6 143.401 185.4 143.101C185.1 142.701 184.7 142.301 184.4 142.001V141.401Z" fill="black"/>
<path d="M166.101 147.302C166.501 147.102 166.801 147.002 167.201 146.702C167.301 146.702 167.601 146.702 167.501 146.202C167.501 145.902 167.901 146.402 168.001 146.402C168.301 146.202 168.701 146.102 169.001 145.902C169.301 145.702 169.501 145.302 169.801 145.102C170.101 144.902 170.601 145.102 170.801 144.602C171.001 144.202 171.401 144.602 171.601 144.302C171.801 144.102 172.101 143.902 172.501 144.002C172.801 144.002 173.101 144.202 173.201 144.002C173.201 143.902 173.201 143.502 173.401 143.502C173.501 143.502 173.801 143.702 173.701 143.002C173.701 143.002 173.701 143.002 173.901 143.002C174.201 143.302 174.401 143.202 174.401 143.002C174.401 142.702 174.501 142.702 174.601 142.602C174.901 142.502 175.201 142.302 175.501 142.302C175.701 142.302 176.001 142.302 176.301 142.302C176.501 142.302 176.701 141.902 177.001 142.102C177.301 142.302 177.501 142.202 177.701 142.102C177.801 142.102 178.101 142.302 177.901 141.602C178.501 142.302 178.501 141.102 178.901 141.202C179.301 141.202 179.601 141.002 180.001 140.902C180.001 140.902 180.301 141.002 180.201 140.502C180.201 140.302 180.201 140.302 180.401 140.402C180.901 140.902 181.001 140.402 181.301 140.402C181.601 140.402 181.901 140.002 182.301 140.402C182.501 140.602 182.701 140.602 182.701 140.002C182.701 139.702 182.901 140.002 183.001 139.802C183.001 139.802 183.001 139.402 183.201 139.402C183.201 139.402 183.401 139.602 183.501 139.702C183.801 138.902 184.501 139.702 184.901 139.302C185.301 139.002 185.801 138.902 186.301 138.902C186.601 138.902 186.901 138.902 187.401 140.002C187.601 140.502 187.801 141.002 187.701 141.402C187.701 141.702 187.701 141.902 187.601 142.002C187.501 142.102 187.401 142.302 187.301 142.402C187.101 142.702 186.901 143.302 186.601 143.102C186.501 143.102 186.501 143.402 186.201 142.902C186.001 143.802 185.501 143.402 185.101 143.602C184.801 143.802 184.601 144.502 184.201 144.302C184.201 145.002 184.001 144.902 183.701 144.802C182.801 144.402 182.301 145.002 181.601 145.202C180.901 145.302 180.301 145.702 179.601 145.902C179.501 145.902 179.601 146.302 179.301 146.102C179.101 145.902 179.001 146.102 178.801 146.202C178.701 146.202 178.601 146.402 178.401 146.302C177.601 145.902 177.301 146.502 176.701 146.602C176.201 146.702 175.601 146.902 175.201 147.302C174.901 147.502 174.801 148.002 174.401 148.002C174.201 148.002 174.201 148.402 173.901 147.902C173.801 147.802 173.901 148.202 173.801 148.302C173.601 148.402 173.401 148.502 173.201 148.602C172.901 148.702 172.601 148.802 172.301 149.002C172.101 149.102 172.101 149.402 171.901 149.602C171.701 149.702 171.601 149.802 171.301 149.902C171.001 149.902 170.701 149.902 170.401 149.902C170.101 149.902 170.001 150.302 169.601 150.202C168.901 150.002 168.601 150.402 168.201 150.602C167.701 150.802 167.301 150.902 166.901 151.302C166.701 151.502 166.201 151.202 166.001 151.302C165.901 151.302 165.101 150.102 164.901 149.702V149.502C164.901 149.002 164.801 148.202 165.101 148.102C165.501 148.002 165.901 147.702 166.301 147.502L166.101 147.302Z" fill="black"/>
<path d="M168.602 166.202C168.602 165.902 168.502 165.502 168.302 165.202C168.302 165.102 168.502 164.902 167.902 164.902C167.602 164.902 168.202 164.602 168.202 164.502C168.102 164.202 168.102 163.902 167.902 163.602C167.802 163.302 167.502 163.102 167.302 162.802C167.202 162.502 167.302 162.102 167.002 161.902C166.702 161.702 167.102 161.402 167.002 161.202C166.802 161.002 166.702 160.702 166.802 160.402C166.902 160.202 167.102 160.002 166.902 159.802C166.902 159.802 166.502 159.702 166.502 159.602C166.502 159.502 166.702 159.302 166.102 159.302C166.102 159.302 166.102 159.302 166.202 159.202C166.602 159.002 166.502 158.802 166.202 158.802C165.902 158.802 165.902 158.702 165.902 158.602C165.902 158.402 165.702 158.102 165.702 157.902C165.702 157.702 165.902 157.502 165.902 157.302C165.902 157.102 165.602 157.002 165.902 156.702C166.202 156.402 166.102 156.302 166.002 156.102C166.002 156.102 166.202 155.802 165.602 155.902C166.302 155.402 165.202 155.402 165.302 155.102C165.402 154.802 165.302 154.502 165.102 154.202C165.102 154.202 165.202 154.002 164.802 154.002C164.602 154.002 164.602 154.002 164.702 153.902C165.202 153.502 164.802 153.402 164.902 153.102C164.902 152.802 164.602 152.602 164.902 152.202C165.102 152.002 165.102 151.902 164.502 151.902C164.202 151.902 164.502 151.702 164.402 151.602C164.402 151.602 164.002 151.602 164.002 151.502C164.002 151.502 164.202 151.302 164.302 151.202C163.602 151.002 164.302 150.402 164.002 150.102C163.702 149.802 163.702 149.402 163.602 149.002C163.602 148.802 163.602 148.502 164.702 148.002C165.202 147.802 165.702 147.602 166.002 147.602C166.202 147.602 166.502 147.602 166.602 147.602C166.702 147.602 166.902 147.802 167.002 147.902C167.302 148.102 167.902 148.202 167.702 148.502C167.702 148.602 168.002 148.602 167.502 148.802C168.402 148.902 168.002 149.402 168.102 149.802C168.202 150.102 168.902 150.202 168.702 150.602C169.402 150.602 169.302 150.802 169.202 151.002C168.702 151.802 169.302 152.202 169.402 152.902C169.402 153.502 169.702 154.102 169.802 154.702C169.802 154.802 170.202 154.802 170.002 155.002C169.802 155.202 170.002 155.302 170.002 155.402C170.002 155.502 170.202 155.602 170.002 155.802C169.502 156.402 170.002 156.802 170.002 157.302C170.002 157.802 170.002 158.302 170.402 158.702C170.602 159.002 171.002 159.202 170.902 159.502C170.902 159.602 171.202 159.702 170.702 159.902C170.502 159.902 171.002 159.902 171.102 160.102C171.102 160.302 171.202 160.502 171.302 160.702C171.302 161.002 171.302 161.302 171.502 161.502C171.502 161.702 171.902 161.802 172.002 161.902C172.102 162.102 172.102 162.202 172.102 162.402C172.102 162.602 171.902 162.902 171.902 163.102C171.902 163.302 172.202 163.502 172.002 163.802C171.602 164.302 172.002 164.702 172.002 165.102C172.002 165.502 172.102 165.902 172.302 166.302C172.402 166.502 172.002 166.802 172.102 167.102C172.102 167.102 170.702 167.702 170.202 167.802H170.002C169.502 167.802 168.702 167.802 168.702 167.402C168.702 167.002 168.502 166.702 168.402 166.302L168.602 166.202Z" fill="black"/>
<path d="M162.2 186.199C162.3 185.799 162.5 185.399 162.5 184.999C162.5 184.799 162.8 184.799 162.4 184.499C162.2 184.299 162.8 184.399 162.8 184.199C162.8 183.799 163.1 183.499 163.1 183.099C163.1 182.699 163.1 182.299 163.1 181.899C163.1 181.499 163.6 181.299 163.4 180.799C163.2 180.399 163.8 180.299 163.8 179.999C163.8 179.699 163.8 179.299 164.1 179.099C164.3 178.899 164.6 178.799 164.6 178.599C164.6 178.399 164.3 178.199 164.4 178.099C164.4 177.999 164.8 177.899 164.2 177.599C164.2 177.599 164.2 177.599 164.4 177.599C164.8 177.599 164.9 177.399 164.6 177.199C164.4 176.999 164.5 176.899 164.5 176.799C164.5 176.499 164.6 176.199 164.8 175.899C164.9 175.699 165.2 175.599 165.4 175.399C165.5 175.199 165.4 174.899 165.7 174.699C166.1 174.599 166.1 174.399 166.2 174.199C166.2 174.099 166.6 173.999 166 173.699C166.9 173.699 166 172.999 166.3 172.699C166.6 172.399 166.6 171.999 166.7 171.699C166.7 171.699 166.9 171.599 166.5 171.299C166.4 171.299 166.4 171.099 166.5 171.099C167.2 171.099 166.9 170.599 167.1 170.399C167.3 170.099 167.1 169.699 167.7 169.599C167.9 169.599 168.1 169.399 167.6 169.099C167.4 168.899 167.6 168.899 167.6 168.799C167.6 168.699 167.3 168.499 167.4 168.399C167.4 168.399 167.7 168.399 167.8 168.299C167.3 167.699 168.3 167.499 168.2 166.999C168.2 166.699 168.2 166.599 168.2 166.299C168.2 165.999 168.4 165.699 168.6 165.299C168.8 164.899 169.3 164.499 170.4 165.099C170.9 165.299 171.3 165.699 171.5 165.999C171.6 166.199 171.8 166.399 171.8 166.499C171.8 166.599 171.9 166.799 172 166.899C172.1 167.099 172.6 167.399 172.2 167.699C172.1 167.699 172.3 167.999 171.8 167.899C172.5 168.499 171.8 168.899 171.8 169.299C171.8 169.699 172.2 170.199 171.8 170.499C172.3 170.899 172.2 171.099 171.9 171.199C171 171.699 171.2 172.499 170.9 173.199C170.6 173.899 170.4 174.599 170.1 175.299C170.1 175.399 170.4 175.599 170.1 175.699C169.8 175.699 169.9 175.999 169.9 176.099C169.9 176.199 169.9 176.399 169.7 176.499C168.9 176.799 169.1 177.499 168.8 177.999C168.5 178.499 168.3 178.999 168.3 179.599C168.3 179.999 168.5 180.399 168.3 180.699C168.2 180.799 168.5 181.099 167.9 180.999C167.7 180.999 168.1 181.299 168.1 181.399C168.1 181.599 168 181.899 167.9 182.099C167.8 182.399 167.6 182.699 167.6 183.099C167.6 183.299 167.7 183.599 167.7 183.799C167.7 183.999 167.7 184.199 167.5 184.399C167.3 184.599 167.1 184.799 166.9 185.099C166.8 185.299 166.9 185.699 166.6 185.899C166 186.199 166.1 186.799 165.9 187.199C165.7 187.599 165.5 188.099 165.5 188.599C165.5 188.899 165 188.999 164.9 189.199C164.9 189.299 163.4 189.199 162.9 188.999H162.7C162.3 188.599 161.7 188.199 161.8 187.899C162 187.399 162.1 186.999 162.2 186.499V186.199Z" fill="black"/>
<path d="M151.001 135.801C151.001 136.001 150.901 136.101 150.901 136.301C150.901 136.301 150.601 136.301 151.101 136.601C151.401 136.601 150.701 136.601 150.701 136.601C150.701 136.801 150.701 136.901 150.701 137.101C150.701 137.301 150.901 137.501 150.901 137.601C150.901 137.801 150.601 137.901 150.901 138.101C151.201 138.301 150.601 138.301 150.701 138.401C150.801 138.601 150.901 138.701 150.701 138.801C150.501 138.801 150.301 138.901 150.401 139.001C150.401 139.001 150.801 139.201 150.701 139.201C150.701 139.201 150.401 139.201 151.001 139.401C151.001 139.401 151.001 139.401 150.801 139.401C150.401 139.401 150.401 139.401 150.701 139.601C151.001 139.601 150.901 139.701 150.901 139.801C150.901 139.901 150.901 140.101 150.901 140.201C150.901 140.201 150.601 140.401 150.501 140.501C150.501 140.501 150.701 140.701 150.401 140.801C150.101 140.801 150.101 141.001 150.101 141.101C150.101 141.101 149.801 141.201 150.401 141.301C149.601 141.401 150.601 141.601 150.401 141.801C150.201 142.001 150.401 142.101 150.401 142.301C150.401 142.301 150.201 142.301 150.701 142.401C150.901 142.401 150.901 142.401 150.701 142.401C150.101 142.501 150.501 142.601 150.301 142.801C150.201 142.901 150.501 143.101 150.001 143.201C149.801 143.201 149.701 143.401 150.301 143.401C150.601 143.401 150.301 143.501 150.301 143.601C150.301 143.601 150.601 143.601 150.601 143.701C150.601 143.701 150.401 143.701 150.301 143.801C151.001 144.001 150.101 144.201 150.301 144.401C150.501 144.601 150.401 144.801 150.301 145.001C150.301 145.101 150.101 145.301 148.901 145.401C148.401 145.401 147.801 145.501 147.501 145.501C147.301 145.501 147.001 145.501 147.001 145.501C146.901 145.501 146.801 145.401 146.701 145.301C146.501 145.201 145.901 145.101 146.201 144.901C146.201 144.901 146.001 144.901 146.501 144.701C145.701 144.501 146.201 144.301 146.101 144.101C146.101 143.901 145.401 143.801 145.701 143.601C145.101 143.601 145.201 143.401 145.401 143.301C146.101 142.901 145.601 142.601 145.701 142.201C145.701 141.801 145.701 141.501 145.701 141.101C145.701 141.101 145.401 141.001 145.701 140.901C146.001 140.901 145.701 140.701 145.701 140.701C145.701 140.701 145.601 140.501 145.701 140.501C146.401 140.301 146.001 139.901 146.101 139.701C146.201 139.401 146.301 139.101 146.101 138.801C146.101 138.601 145.701 138.401 145.901 138.201C145.901 138.201 145.601 138.001 146.201 138.001C146.401 138.001 145.901 137.901 145.901 137.801C145.901 137.701 145.901 137.601 145.901 137.401C145.901 137.201 146.001 137.101 145.901 136.901C145.901 136.801 145.701 136.601 145.601 136.501C145.601 136.401 145.601 136.301 145.601 136.201C145.701 136.101 145.901 136.001 146.001 135.901C146.001 135.801 145.901 135.601 146.201 135.501C146.801 135.401 146.601 135.101 146.701 134.801C146.801 134.601 146.901 134.401 146.901 134.101C146.901 133.901 147.401 134.001 147.401 133.801C147.401 133.801 148.901 134.101 149.301 134.201H149.501C149.901 134.501 150.601 134.801 150.501 134.901C150.401 135.101 150.401 135.301 150.301 135.501L151.001 135.801Z" fill="black"/>
<path d="M162.302 135.801C162.302 136.001 162.202 136.101 162.202 136.301C162.202 136.301 161.902 136.301 162.402 136.601C162.702 136.601 162.002 136.601 162.002 136.601C162.002 136.801 162.002 136.901 162.002 137.101C162.002 137.301 162.202 137.501 162.202 137.601C162.202 137.801 161.902 137.901 162.202 138.101C162.502 138.301 161.902 138.301 162.002 138.401C162.102 138.601 162.202 138.701 162.002 138.801C161.802 138.801 161.602 138.901 161.702 139.001C161.702 139.001 162.102 139.201 162.002 139.201C162.002 139.201 161.702 139.201 162.302 139.401C162.302 139.401 162.302 139.401 162.102 139.401C161.702 139.401 161.702 139.401 162.002 139.601C162.302 139.601 162.202 139.701 162.202 139.801C162.202 139.901 162.202 140.101 162.202 140.201C162.202 140.201 161.902 140.401 161.802 140.501C161.802 140.501 162.002 140.701 161.702 140.801C161.402 140.801 161.402 141.001 161.402 141.101C161.402 141.101 161.102 141.201 161.702 141.301C160.902 141.401 161.902 141.601 161.702 141.801C161.502 142.001 161.702 142.101 161.702 142.301C161.702 142.301 161.502 142.301 162.002 142.401C162.202 142.401 162.202 142.401 162.002 142.401C161.402 142.501 161.802 142.601 161.602 142.801C161.502 142.901 161.802 143.101 161.302 143.201C161.102 143.201 161.002 143.401 161.602 143.401C161.902 143.401 161.602 143.501 161.602 143.601C161.602 143.601 161.902 143.601 161.902 143.701C161.902 143.701 161.702 143.701 161.602 143.801C162.302 144.001 161.402 144.201 161.602 144.401C161.802 144.601 161.702 144.801 161.602 145.001C161.602 145.101 161.402 145.301 160.202 145.401C159.702 145.401 159.102 145.501 158.802 145.501C158.602 145.501 158.302 145.501 158.302 145.501C158.202 145.501 158.102 145.401 158.002 145.301C157.802 145.201 157.202 145.101 157.502 144.901C157.502 144.901 157.302 144.901 157.802 144.701C157.002 144.501 157.502 144.301 157.402 144.101C157.402 143.901 156.702 143.801 157.002 143.601C156.402 143.601 156.502 143.401 156.702 143.301C157.402 142.901 156.902 142.601 157.002 142.201C157.002 141.801 157.002 141.501 157.002 141.101C157.002 141.101 156.702 141.001 157.002 140.901C157.302 140.901 157.002 140.701 157.002 140.701C157.002 140.701 156.902 140.501 157.002 140.501C157.702 140.301 157.302 139.901 157.402 139.701C157.502 139.401 157.602 139.101 157.402 138.801C157.402 138.601 157.002 138.401 157.202 138.201C157.202 138.201 156.902 138.001 157.502 138.001C157.702 138.001 157.202 137.901 157.202 137.801C157.202 137.701 157.202 137.601 157.202 137.401C157.202 137.201 157.302 137.101 157.202 136.901C157.202 136.801 157.002 136.601 156.902 136.501C156.902 136.401 156.902 136.301 156.902 136.201C157.002 136.101 157.202 136.001 157.302 135.901C157.302 135.801 157.202 135.601 157.502 135.501C158.102 135.401 157.902 135.101 158.002 134.801C158.102 134.601 158.202 134.401 158.202 134.101C158.202 133.901 158.702 134.001 158.702 133.801C158.702 133.801 160.202 134.101 160.602 134.201H160.802C161.202 134.501 161.902 134.801 161.802 134.901C161.702 135.101 161.702 135.301 161.602 135.501L162.302 135.801Z" fill="black"/>
<path d="M162.601 169.701C162.401 169.701 162.101 169.801 161.901 169.901C161.901 169.901 161.701 169.701 161.701 170.301C161.701 170.601 161.501 170.001 161.401 170.001C161.201 170.101 160.901 170.001 160.701 170.201C160.501 170.201 160.301 170.601 160.001 170.601C159.801 170.601 159.501 170.401 159.301 170.701C159.101 171.001 158.901 170.501 158.701 170.701C158.501 170.801 158.301 170.901 158.101 170.701C158.001 170.501 157.801 170.301 157.701 170.401C157.701 170.401 157.501 170.801 157.401 170.701C157.401 170.701 157.201 170.401 157.101 171.001C157.101 171.001 157.101 171.001 157.101 170.801C157.101 170.401 156.901 170.401 156.801 170.701C156.701 171.001 156.601 170.901 156.501 170.901C156.301 170.901 156.101 170.901 155.901 170.901C155.801 170.901 155.701 170.601 155.501 170.501C155.401 170.501 155.101 170.701 155.101 170.301C155.101 170.001 154.901 169.901 154.801 169.901C154.801 169.901 154.801 169.601 154.501 170.201C154.501 169.401 154.001 170.301 153.801 170.001C153.601 169.701 153.401 169.801 153.101 169.701C153.101 169.701 153.101 169.501 152.801 169.901C152.801 170.001 152.601 170.001 152.701 169.901C152.701 169.201 152.501 169.501 152.301 169.401C152.201 169.201 151.801 169.401 151.901 168.801C151.901 168.601 151.901 168.401 151.501 168.801C151.301 169.001 151.401 168.801 151.301 168.801L151.001 169.001C151.001 169.001 151.001 168.701 151.001 168.601C150.401 169.001 150.601 168.101 150.301 168.001C149.901 168.001 149.701 167.701 149.501 167.401C149.501 167.201 149.401 167.001 150.101 166.101C150.401 165.701 150.801 165.301 151.101 165.101C151.301 165.001 151.501 164.801 151.601 164.801C151.701 164.801 151.901 164.801 152.001 164.701C152.201 164.701 152.701 164.301 152.601 164.701C152.601 164.701 152.801 164.601 152.601 165.001C153.201 164.501 153.101 165.001 153.301 165.001C153.501 165.001 153.901 164.601 153.901 165.001C154.301 164.501 154.301 164.601 154.301 164.801C154.301 165.501 154.801 165.301 155.001 165.501C155.301 165.701 155.601 165.701 155.901 165.901C155.901 165.901 156.101 165.601 156.101 165.901C156.101 166.201 156.201 165.901 156.301 166.001H156.501C156.601 166.701 157.001 166.401 157.201 166.501C157.501 166.501 157.701 166.701 158.001 166.501C158.201 166.501 158.301 166.101 158.501 166.201C158.501 166.201 158.601 165.901 158.701 166.501C158.701 166.701 158.701 166.201 158.801 166.201C158.901 166.201 159.001 166.201 159.101 166.201C159.201 166.201 159.401 166.201 159.501 166.201C159.501 166.201 159.701 165.901 159.701 165.801C159.701 165.801 159.901 165.801 160.001 165.801C160.101 165.801 160.301 166.001 160.401 166.101C160.501 166.101 160.601 165.801 160.801 166.101C161.101 166.501 161.301 166.201 161.501 166.201C161.701 166.201 162.001 166.201 162.101 166.001C162.101 165.901 162.501 166.301 162.601 166.301C162.601 166.301 163.301 167.601 163.501 168.101V168.301C163.501 168.801 163.701 169.501 163.501 169.501C163.201 169.501 162.901 169.701 162.701 169.801L162.601 169.701Z" fill="black"/>
<path d="M166.199 124.599C165.099 124.899 163.999 125.199 162.999 125.699C162.599 125.899 162.099 125.699 161.899 126.399C161.799 126.699 161.199 126.199 160.799 126.399C159.799 126.799 158.799 127.099 157.799 127.499C156.899 127.899 155.999 128.399 154.999 128.799C154.099 129.199 152.999 129.299 152.199 129.899C151.499 130.399 150.599 130.299 149.899 130.599C149.099 130.999 148.299 131.399 147.499 131.499C146.899 131.499 146.199 131.499 145.699 131.899C145.399 132.099 145.199 132.499 144.799 132.699C144.399 132.799 143.899 132.699 143.799 133.399C143.799 133.399 143.599 133.399 143.499 133.399C142.999 133.199 142.499 133.399 142.299 133.799C142.099 134.199 141.799 134.299 141.499 134.399C140.699 134.799 139.899 135.099 139.099 135.399C138.499 135.599 137.799 135.599 137.199 135.799C136.599 135.999 135.999 136.499 135.299 136.499C134.599 136.499 134.099 136.699 133.499 136.999C133.199 137.099 132.699 136.999 132.699 137.699C132.699 137.699 132.599 137.799 132.499 137.699C131.299 137.299 130.799 138.699 129.799 138.999C128.799 139.199 127.899 139.799 126.899 140.299C126.599 140.399 126.299 140.299 126.299 140.899C126.299 141.099 125.999 141.199 125.899 141.199C124.899 140.999 124.399 141.699 123.599 141.899C122.699 142.199 121.999 142.899 120.999 142.799C120.599 142.799 119.999 142.899 119.899 143.599C119.899 143.899 119.299 143.899 118.999 144.099C118.799 144.299 118.699 144.599 118.399 144.799C118.199 144.899 117.899 144.799 117.599 144.799C117.599 144.799 117.399 144.799 117.399 144.899C116.499 146.099 114.899 145.899 113.799 146.699C112.699 147.499 111.499 148.099 110.199 148.599C109.499 148.899 108.799 149.099 107.799 148.299C107.399 147.999 107.099 147.499 107.199 146.999C107.199 146.699 107.399 146.399 107.599 146.199C107.899 145.899 108.299 145.599 108.599 145.299C109.299 144.699 109.799 143.799 110.699 143.699C110.999 143.699 111.099 143.199 111.599 143.599H111.799C112.499 142.299 113.799 142.199 114.899 141.599C115.799 141.099 116.399 140.099 117.499 139.799C117.699 138.999 118.399 138.799 118.999 138.699C121.099 138.399 122.799 137.099 124.699 136.299C126.599 135.499 128.499 134.499 130.399 133.699C130.699 133.599 130.899 133.099 131.399 133.199C131.899 133.199 132.199 132.899 132.699 132.699C133.099 132.499 133.399 132.199 133.899 132.199C135.699 132.199 136.999 131.199 138.599 130.599C140.099 130.099 141.699 129.499 143.099 128.699C143.999 128.199 144.799 127.599 145.799 127.299C146.199 127.199 146.499 126.699 147.099 127.099C147.299 127.199 147.499 126.699 147.699 126.499C148.299 126.199 148.999 125.999 149.599 125.799C150.499 125.499 151.399 125.199 152.299 124.799C152.799 124.599 153.299 124.099 153.799 123.899C154.299 123.599 154.899 123.399 155.499 123.299C156.299 123.099 156.999 123.099 157.799 122.899C158.599 122.699 159.299 122.199 160.099 122.199C161.599 122.199 162.899 121.499 164.199 121.199C165.599 120.799 166.899 120.399 168.199 119.899C168.899 119.599 169.799 119.899 170.499 119.599C170.799 119.499 171.699 120.799 171.699 121.299C171.699 121.399 171.699 121.499 171.699 121.599C171.099 122.299 170.699 123.199 169.799 123.399C168.599 123.699 167.299 124.099 166.099 124.499L166.199 124.599Z" fill="black"/>
<path d="M174.301 106.299C174.901 103.499 175.201 100.599 175.001 97.7992C175.001 96.7992 175.101 95.5992 174.501 94.5992C174.201 94.0992 174.701 92.9992 174.501 92.0992C173.901 89.5992 173.201 86.8992 171.801 85.1992C170.501 83.5992 168.301 82.9992 165.801 82.6992C163.301 82.2992 160.701 81.8992 158.201 82.1992C156.001 82.4992 154.001 82.0992 151.901 82.1992C150.801 82.2992 149.701 82.4992 148.501 82.4992C147.401 82.5992 146.201 82.6992 145.101 82.6992C143.501 82.6992 141.901 82.6992 140.301 82.9992C139.301 83.1992 138.501 83.6992 137.401 83.7992C136.401 83.8992 135.201 83.7992 134.501 84.6992C134.501 84.6992 134.001 84.6992 133.701 84.6992C132.601 84.4992 131.301 84.7992 130.401 85.2992C129.601 85.6992 128.801 85.8992 128.001 86.0992C125.801 86.5992 123.701 87.2992 121.501 87.7992C119.901 88.2992 118.201 88.4992 116.601 88.9992C114.901 89.4992 113.301 90.4992 111.601 90.6992C110.001 90.9992 108.501 91.6992 107.101 92.2992C106.301 92.6992 105.201 92.8992 104.801 93.7992C104.801 93.7992 104.501 93.9992 104.301 93.9992C103.001 94.1992 101.801 94.8992 100.801 95.5992C99.7008 96.3992 98.7008 97.1992 97.5008 97.6992C95.1008 98.8992 92.9008 100.499 91.2008 102.199C90.8008 102.699 90.1008 103.099 90.2008 103.799C90.2008 104.099 89.9008 104.599 89.6008 104.799C88.2008 105.899 88.0008 107.899 87.8008 109.599C87.6008 111.699 88.3008 113.699 88.6008 115.899C88.7008 116.799 89.2008 118.099 90.3008 118.799C90.8008 119.099 91.1008 120.199 91.7008 120.799C92.1008 121.299 92.8008 121.599 93.2008 122.199C93.6008 122.599 93.8008 123.199 94.1008 123.699C94.1008 123.899 94.3008 123.999 94.5008 124.099C97.3008 126.099 99.3008 128.899 102.101 131.299C104.901 133.699 107.401 136.399 109.701 139.299C111.001 140.899 112.101 142.899 111.801 144.699C111.701 145.499 111.201 145.699 110.501 145.199C110.001 144.799 109.401 144.399 109.001 143.799C108.301 142.999 107.501 142.199 106.801 141.399C105.201 139.799 103.301 138.499 101.901 136.699C101.501 136.099 100.601 135.699 100.601 134.999C100.601 134.899 100.401 134.699 100.301 134.599C97.5008 133.099 95.3008 130.599 93.0008 128.299C91.0008 126.399 88.6008 124.699 87.2008 121.999C85.8008 120.999 84.9008 118.999 84.5008 117.399C83.8008 114.399 83.3008 111.399 83.7008 108.299C83.9008 106.699 84.3008 105.199 85.0008 103.699C85.7008 102.299 86.6008 100.899 87.6008 99.7992C89.7008 97.4992 92.2008 95.8992 94.6008 94.3992C97.0008 92.9992 99.5008 91.5992 102.001 90.3992C102.801 89.9992 103.501 89.2992 104.601 89.0992C105.701 88.8992 106.801 88.1992 107.901 87.6992C108.901 87.2992 110.001 86.6992 111.001 86.4992C115.301 85.4992 119.301 83.7992 123.601 82.6992C127.801 81.5992 132.101 80.7992 136.301 79.8992C137.601 79.5992 138.901 79.2992 140.201 79.0992C141.501 78.8992 142.801 78.5992 144.201 78.4992C145.301 78.4992 146.501 77.9992 147.701 78.4992C148.001 78.5992 149.101 78.0992 149.801 77.9992C151.601 77.7992 153.401 77.7992 155.301 77.6992C157.801 77.6992 160.401 77.6992 163.001 77.6992C164.601 77.6992 166.201 77.6992 167.901 77.9992C169.601 78.2992 171.601 78.8992 173.201 80.1992C174.301 80.9992 175.101 81.9992 175.801 83.0992C176.401 84.1992 176.901 85.2992 177.301 86.2992C177.701 87.3992 178.101 88.4992 178.401 89.5992C178.701 90.6992 178.901 91.7992 179.001 92.8992C179.001 96.8992 179.301 100.799 178.701 104.599C178.101 108.399 177.001 112.099 175.701 115.699C175.001 117.799 173.701 119.299 172.701 121.199C172.201 122.099 170.301 122.499 170.101 121.899C170.101 121.799 170.101 121.599 170.101 121.399C170.701 119.399 170.801 117.499 171.701 115.499C173.001 112.499 174.001 109.399 174.601 106.199L174.301 106.299Z" fill="black"/>
<path d="M156.399 90.0981C155.199 90.5981 154.099 90.9981 152.999 91.5981C152.599 91.7981 151.999 91.7981 151.799 92.4981C151.699 92.7981 150.999 92.4981 150.599 92.6981C149.599 93.1981 148.499 93.6981 147.499 94.3981C146.499 94.9981 145.599 95.6981 144.699 96.3981C143.799 96.9981 142.599 97.3981 141.899 98.1981C141.299 98.8981 140.299 98.9981 139.599 99.5981C138.899 100.198 138.099 100.798 137.199 101.198C136.599 101.498 135.899 101.698 135.399 102.198C135.099 102.498 134.999 102.998 134.599 103.298C134.199 103.498 133.699 103.598 133.799 104.298C133.799 104.298 133.599 104.298 133.499 104.298C132.899 104.298 132.499 104.698 132.399 105.098C132.299 105.598 131.999 105.698 131.799 105.998C131.099 106.598 130.399 107.198 129.599 107.898C128.999 108.398 128.399 108.698 127.799 109.098C127.199 109.598 126.799 110.298 126.099 110.598C125.399 110.898 124.899 111.398 124.499 111.898C124.199 112.198 123.699 112.298 123.899 112.998C123.899 112.998 123.899 113.198 123.699 113.198C122.299 113.398 122.399 114.998 121.499 115.698C120.599 116.398 119.899 117.398 119.199 118.298C118.999 118.498 118.699 118.698 118.799 119.198C118.799 119.398 118.699 119.598 118.499 119.698C117.499 119.998 117.199 120.898 116.599 121.598C115.899 122.298 115.599 123.298 114.599 123.898C114.199 124.098 113.699 124.498 113.899 125.298C113.899 125.598 113.499 125.898 113.399 126.298C113.299 126.598 113.399 126.998 113.199 127.198C113.099 127.398 112.699 127.498 112.499 127.698C112.499 127.698 112.399 127.798 112.399 127.898C112.099 129.498 110.699 130.298 110.099 131.698C109.799 132.398 109.499 132.998 109.099 133.698C108.799 134.398 108.399 134.998 107.999 135.698C107.599 136.398 106.999 137.098 105.699 137.098C105.099 137.098 104.599 136.898 104.499 136.398C104.499 136.098 104.299 135.698 104.499 135.398C104.599 134.898 104.699 134.398 104.899 133.998C105.199 132.998 105.099 131.898 105.899 131.098C106.099 130.898 106.099 130.398 106.599 130.398C106.599 130.398 106.799 130.398 106.799 130.198C106.799 128.598 107.899 127.598 108.599 126.398C109.199 125.398 109.299 124.098 110.199 123.198C109.999 122.298 110.599 121.698 111.099 121.298C112.099 120.498 112.799 119.598 113.499 118.598C114.199 117.698 114.899 116.698 115.699 115.798C116.499 114.898 117.299 113.998 118.099 113.098C118.899 112.198 119.599 111.298 120.499 110.398C120.799 110.098 120.799 109.598 121.299 109.498C121.799 109.398 122.099 108.798 122.399 108.398C122.699 108.098 122.999 107.598 123.399 107.398C125.199 106.598 126.299 104.998 127.799 103.798C129.299 102.698 130.699 101.498 132.099 100.198C132.899 99.3981 133.599 98.4981 134.599 97.8981C134.999 97.5981 135.299 97.0981 135.999 97.2981C136.199 97.2981 136.299 96.6981 136.599 96.4981C137.199 95.9981 137.899 95.5981 138.499 95.1981C139.399 94.5981 140.399 94.0981 141.299 93.4981C141.799 93.0981 142.299 92.5981 142.799 92.1981C143.399 91.7981 143.999 91.4981 144.599 91.1981C145.399 90.7981 146.299 90.5981 147.099 90.1981C147.899 89.7981 148.699 89.1981 149.599 88.9981C151.299 88.7981 152.599 87.7981 154.199 87.2981C155.699 86.7981 157.199 86.0981 158.699 85.4981C159.499 85.0981 160.499 85.2981 161.299 84.9981C161.699 84.8981 162.699 86.0981 162.699 86.5981C162.699 86.6981 162.699 86.7981 162.699 86.8981C161.999 87.5981 161.599 88.5981 160.599 88.7981C159.899 88.9981 159.199 89.1981 158.599 89.4981L156.599 90.2981L156.399 90.0981Z" fill="black"/>
<path d="M120.4 109.899C119.9 109.699 119.3 109.499 118.7 109.399C118.5 109.399 118.4 108.999 118 109.399C117.8 109.599 117.8 108.999 117.6 108.899C117.1 108.899 116.6 108.599 116 108.499C115.5 108.499 114.9 108.499 114.4 108.499C113.9 108.499 113.4 107.999 112.9 108.199C112.4 108.399 112.2 107.799 111.7 107.799C111.2 107.799 110.8 107.799 110.4 107.499C110.1 107.299 109.9 106.999 109.5 106.999C109.3 106.999 109.1 107.299 108.9 107.199C108.7 107.199 108.5 106.799 108.3 107.399C108.3 107.399 108.3 107.399 108.2 107.199C108.1 106.799 107.8 106.699 107.6 106.999C107.4 107.199 107.2 107.199 107.1 107.199C106.7 107.199 106.2 107.199 105.8 106.999C105.5 106.999 105.2 106.599 104.9 106.499C104.6 106.399 104.2 106.599 103.9 106.299C103.6 105.999 103.3 105.899 103 105.899C102.8 105.899 102.6 105.599 102.4 106.199C102.4 106.199 102.4 106.199 102.3 106.199C101.9 105.299 101.3 106.399 100.8 106.199C100.3 105.899 99.6998 105.999 99.1998 105.999C99.0998 105.999 98.8998 105.799 98.7998 106.299C98.7998 106.499 98.5998 106.499 98.4998 106.299C98.0998 105.599 97.6998 105.999 97.2998 105.899C96.7998 105.799 96.3998 105.999 95.8998 105.499C95.6998 105.299 95.3998 105.199 95.1998 105.699C95.0998 105.999 94.8998 105.699 94.6998 105.699C94.5998 105.699 94.3998 105.999 94.2998 105.999C94.1998 105.999 94.0998 105.799 93.8998 105.699C93.8998 105.699 93.8998 105.699 93.7998 105.699C93.0998 106.399 92.3998 105.499 91.7998 105.699C91.0998 105.899 90.3998 105.799 89.6998 105.699C89.2998 105.699 88.8998 105.499 88.5998 104.399C88.4998 103.899 88.3998 103.299 88.5998 102.999C88.6998 102.799 88.7998 102.499 88.9998 102.499C89.1998 102.399 89.3998 102.299 89.6998 102.099C90.0998 101.899 90.5998 101.299 91.0998 101.599C91.2998 101.599 91.3998 101.399 91.5998 101.899C91.5998 101.899 91.5998 101.999 91.6998 101.899C92.2998 101.099 92.9998 101.599 93.5998 101.499C94.0998 101.499 94.6998 100.799 95.1998 101.099C95.4998 100.499 95.8998 100.599 96.1998 100.799C97.2998 101.499 98.3998 101.099 99.4998 101.299C100.6 101.499 101.7 101.499 102.8 101.599C103 101.599 103.2 101.299 103.4 101.599C103.6 101.899 103.9 101.699 104.1 101.699C104.3 101.699 104.6 101.699 104.8 101.699C105.6 102.499 106.5 102.199 107.3 102.399C108.1 102.599 109 102.799 109.9 102.799C110.4 102.799 111 102.599 111.5 102.799C111.7 102.799 112 102.599 112.1 103.199C112.1 103.399 112.4 102.999 112.6 102.999C113 102.999 113.3 103.099 113.7 103.199C114.2 103.299 114.7 103.499 115.2 103.499C115.5 103.499 115.9 103.399 116.2 103.399C116.5 103.399 116.8 103.499 117.1 103.699C117.5 103.899 117.8 104.199 118.2 104.399C118.6 104.599 119.1 104.399 119.4 104.799C120 105.499 120.8 105.499 121.4 105.799C122.1 106.099 122.8 106.399 123.5 106.499C123.9 106.499 124.1 107.199 124.5 107.299C124.7 107.299 124.4 108.799 124.1 109.299C124.1 109.299 124 109.499 123.9 109.499C123.4 109.799 122.8 110.399 122.4 110.199C121.8 109.899 121.2 109.699 120.6 109.499L120.4 109.899Z" fill="black"/>
<path d="M142.501 96.0992C142.101 95.8992 141.701 95.6992 141.201 95.5992C141.001 95.5992 141.001 95.2992 140.601 95.5992C140.401 95.7992 140.501 95.1992 140.301 95.0992C139.901 95.0992 139.501 94.7992 139.101 94.6992C138.701 94.6992 138.201 94.6992 137.801 94.6992C137.401 94.6992 137.101 94.1992 136.601 94.3992C136.201 94.5992 136.001 93.9992 135.701 93.9992C135.301 93.9992 135.001 93.9992 134.701 93.5992C134.501 93.3992 134.301 93.0992 134.101 93.0992C133.901 93.0992 133.701 93.3992 133.501 93.2992C133.401 93.2992 133.301 92.8992 133.001 93.4992C133.001 93.4992 133.001 93.4992 133.001 93.2992C133.001 92.8992 132.701 92.7992 132.501 93.0992C132.301 93.2992 132.201 93.2992 132.101 93.1992C131.801 93.1992 131.401 93.0992 131.101 92.8992C130.901 92.7992 130.701 92.4992 130.401 92.3992C130.201 92.2992 129.801 92.3992 129.601 92.0992C129.401 91.6992 129.201 91.6992 129.001 91.5992C128.901 91.5992 128.801 91.1992 128.501 91.7992C128.301 90.8992 127.701 91.7992 127.301 91.5992C126.901 91.2992 126.501 91.2992 126.101 91.2992C126.001 91.2992 125.901 91.0992 125.701 91.4992C125.701 91.5992 125.501 91.5992 125.501 91.4992C125.301 90.7992 124.901 91.0992 124.601 90.8992C124.301 90.6992 123.801 90.8992 123.601 90.2992C123.501 90.0992 123.301 89.8992 123.001 90.3992C122.901 90.5992 122.701 90.3992 122.601 90.3992C122.501 90.3992 122.301 90.6992 122.201 90.6992C122.201 90.6992 122.101 90.3992 122.001 90.2992C121.301 90.7992 121.001 89.8992 120.501 89.9992C120.001 90.0992 119.501 89.9992 119.101 89.8992C118.901 89.8992 118.601 89.6992 118.401 88.4992C118.301 87.9992 118.201 87.3992 118.401 87.0992C118.401 86.8992 118.601 86.5992 118.701 86.5992C118.901 86.4992 119.101 86.3992 119.301 86.2992C119.701 86.0992 120.201 85.5992 120.601 85.8992C120.701 85.9992 120.901 85.6992 120.901 86.1992C121.601 85.4992 122.001 86.1992 122.501 86.1992C122.901 86.1992 123.501 85.6992 123.901 86.0992C124.301 85.4992 124.501 85.6992 124.701 85.8992C125.401 86.6992 126.301 86.4992 127.201 86.7992C128.001 87.0992 128.901 87.1992 129.701 87.4992C129.801 87.4992 130.101 87.1992 130.201 87.4992C130.201 87.7992 130.501 87.5992 130.701 87.6992C130.901 87.6992 131.101 87.6992 131.201 87.8992C131.701 88.6992 132.401 88.4992 133.101 88.7992C133.701 89.0992 134.401 89.2992 135.101 89.3992C135.501 89.3992 136.001 89.1992 136.401 89.3992C136.601 89.4992 136.801 89.1992 136.801 89.8992C136.801 90.0992 137.101 89.6992 137.201 89.6992C137.501 89.6992 137.701 89.8992 138.001 89.8992C138.401 89.9992 138.701 90.1992 139.101 90.2992C139.301 90.2992 139.601 90.1992 139.901 90.2992C140.201 90.2992 140.401 90.3992 140.601 90.5992C140.901 90.7992 141.101 91.0992 141.401 91.2992C141.701 91.4992 142.101 91.2992 142.301 91.6992C142.701 92.3992 143.301 92.3992 143.801 92.5992C144.301 92.8992 144.901 93.0992 145.401 93.1992C145.701 93.1992 145.801 93.7992 146.101 93.9992C146.201 93.9992 145.901 95.4992 145.601 95.8992L145.501 96.0992C145.001 96.3992 144.501 96.9992 144.201 96.7992C143.701 96.4992 143.201 96.3992 142.801 96.1992L142.501 96.0992Z" fill="black"/>
<path d="M171.499 100.299C170.699 100.699 169.899 101.099 169.199 101.599C168.899 101.799 168.499 101.699 168.499 102.399C168.499 102.699 167.899 102.399 167.599 102.499C166.899 102.999 166.199 103.399 165.599 103.899C164.999 104.399 164.399 104.999 163.799 105.499C163.199 105.999 162.399 106.199 161.899 106.899C161.499 107.499 160.799 107.499 160.299 107.899C159.799 108.399 159.299 108.899 158.699 109.099C158.199 109.299 157.699 109.399 157.399 109.799C157.199 109.999 157.199 110.499 156.899 110.599C156.699 110.799 156.199 110.799 156.399 111.399C156.399 111.399 156.199 111.399 156.099 111.399C155.599 111.299 155.299 111.599 155.299 111.999C155.299 112.399 155.099 112.499 154.899 112.699C154.399 113.199 153.899 113.599 153.399 113.999C152.999 114.299 152.499 114.499 152.099 114.799C151.699 115.099 151.499 115.699 150.899 115.799C150.299 115.899 149.999 116.299 149.699 116.599C149.499 116.799 149.099 116.799 149.399 117.399C149.399 117.399 149.399 117.499 149.299 117.499C148.199 117.499 148.399 118.799 147.699 119.199C146.999 119.599 146.499 120.299 145.999 120.999C145.899 121.199 145.599 121.199 145.799 121.699C145.799 121.899 145.799 121.999 145.599 121.999C144.699 121.999 144.599 122.799 144.099 123.199C143.599 123.699 143.299 124.399 142.499 124.599C142.099 124.699 141.799 124.999 141.999 125.599C142.099 125.899 141.699 125.999 141.599 126.199C141.599 126.399 141.599 126.699 141.499 126.899C141.399 126.999 141.099 126.999 140.899 127.099C140.899 127.099 140.799 127.099 140.799 127.199C140.699 128.399 139.399 128.699 138.899 129.699C138.399 130.599 137.799 131.499 137.099 132.299C136.699 132.799 136.299 133.099 135.099 132.799C134.599 132.699 134.099 132.399 133.999 131.999C133.999 131.699 133.799 131.399 133.899 131.199C133.899 130.899 134.099 130.499 134.199 130.199C134.399 129.499 134.399 128.599 134.999 128.199C135.199 128.099 135.099 127.699 135.599 127.799H135.799C135.799 126.599 136.699 125.999 137.299 125.199C137.799 124.499 137.799 123.499 138.499 122.999C138.299 122.199 138.699 121.899 139.199 121.599C139.999 121.199 140.499 120.599 141.099 119.899C141.599 119.299 142.099 118.599 142.699 117.999C143.899 116.799 144.999 115.499 146.199 114.399C146.399 114.199 146.299 113.799 146.799 113.699C147.199 113.699 147.299 113.199 147.599 112.999C147.799 112.799 147.999 112.399 148.299 112.299C149.699 111.899 150.399 110.699 151.399 109.899C152.399 109.099 153.399 108.299 154.299 107.299C154.899 106.699 155.199 105.999 155.999 105.499C156.299 105.299 156.399 104.799 156.999 105.099C157.199 105.099 157.199 104.599 157.299 104.499C157.699 104.099 158.199 103.799 158.599 103.499C159.199 102.999 159.899 102.599 160.399 102.099C160.799 101.799 160.999 101.299 161.299 100.999C161.699 100.699 162.099 100.399 162.499 100.199C163.099 99.8993 163.699 99.7994 164.199 99.4994C164.799 99.1994 165.199 98.5994 165.899 98.4994C167.099 98.2994 167.899 97.4994 168.999 96.9994C169.999 96.4994 170.999 95.9994 171.899 95.2994C172.399 94.8994 173.199 95.0994 173.699 94.7994C173.999 94.6994 174.999 95.7994 175.099 96.2994C175.099 96.2994 175.099 96.4994 175.099 96.5994C174.799 97.2994 174.599 98.1994 173.999 98.4994C173.099 98.8994 172.199 99.3994 171.399 99.8994L171.499 100.299Z" fill="black"/>
<path d="M163.699 152.299C163.299 152.399 162.899 152.499 162.599 152.699C162.499 152.699 162.199 152.699 162.299 153.199C162.299 153.499 161.899 152.999 161.799 153.099C161.499 153.299 161.199 153.499 160.899 153.699C160.699 153.999 160.499 154.399 160.299 154.599L160.099 154.799L159.699 155.199C159.399 155.499 159.199 155.899 159.099 156.399C158.799 157.399 158.299 157.399 157.999 158.099C157.899 158.399 157.799 158.599 157.699 158.799C157.399 158.599 156.999 158.199 156.699 157.599C156.399 156.999 156.099 156.399 155.699 156.199C155.499 156.099 155.199 156.199 154.899 155.999C154.699 155.799 154.599 155.299 154.099 155.699C154.099 155.699 154.099 155.499 154.099 155.399C154.099 155.099 154.099 154.899 153.899 154.799C153.799 154.699 153.699 154.799 153.599 154.799C153.299 154.899 153.299 154.799 153.199 154.799C152.899 154.599 152.699 154.499 152.499 154.299C152.399 154.199 152.299 153.799 152.099 153.699C151.899 153.499 151.599 153.699 151.599 153.399C151.599 153.099 151.299 152.999 151.199 152.999C151.199 152.999 150.999 152.699 150.899 153.299C150.899 152.899 150.699 152.899 150.499 153.099C150.399 153.199 150.299 153.499 150.199 153.399C149.899 153.199 149.699 153.399 149.399 153.599C149.399 153.599 149.199 153.599 149.299 153.899C149.299 154.099 149.299 154.099 149.199 153.999C148.699 153.499 148.599 153.999 148.399 153.999C148.099 153.999 147.999 154.499 147.399 154.299C147.199 154.299 146.899 154.299 147.099 154.799C147.099 155.099 146.899 154.999 146.799 155.099C146.799 155.199 146.799 155.499 146.799 155.599C146.799 155.599 146.499 155.599 146.399 155.599C146.399 156.399 145.399 156.099 145.199 156.599C144.899 157.099 144.499 157.399 143.999 157.699C143.799 157.899 143.399 157.999 142.399 157.299C141.999 156.999 141.599 156.599 141.399 156.299C141.299 156.099 141.199 155.799 141.299 155.699C141.299 155.499 141.299 155.299 141.499 155.099C141.599 154.699 141.499 153.999 141.999 153.999C142.099 153.999 141.999 153.699 142.499 153.999H142.599C142.499 153.099 143.199 153.099 143.599 152.699C143.899 152.399 143.899 151.599 144.399 151.499C144.199 150.799 144.499 150.699 144.899 150.699C146.099 150.699 146.699 149.699 147.799 149.299C148.899 148.899 150.199 148.599 151.499 148.799C151.699 148.799 151.999 148.499 152.099 148.799C152.299 149.099 152.599 148.999 152.899 148.999C153.099 148.999 153.399 148.999 153.599 149.199C154.199 150.099 155.099 150.199 155.699 150.699L156.599 151.499H156.799C156.799 151.599 156.799 151.699 156.799 151.699C156.799 151.699 156.899 151.699 156.999 151.699C157.199 151.699 157.299 151.299 157.299 151.499C157.299 151.599 157.299 151.099 157.399 151.999C157.399 152.199 157.399 151.799 157.399 151.599C157.399 151.399 157.399 151.399 157.399 151.399C157.399 151.399 157.499 151.399 157.499 151.199C157.499 151.199 157.499 151.199 157.499 150.999C157.499 150.899 157.499 150.699 157.699 150.599C157.899 150.299 158.099 150.099 158.399 149.999C158.799 149.799 159.199 149.699 159.599 149.599C159.999 149.399 160.199 148.999 160.699 148.999C161.599 149.099 162.099 148.599 162.799 148.399C163.499 148.199 164.199 148.099 164.899 147.899C165.299 147.799 165.699 148.199 166.099 148.199C166.299 148.199 166.499 149.699 166.399 150.199V150.399C166.099 150.899 165.899 151.599 165.599 151.599C165.199 151.599 164.699 151.699 164.299 151.799L163.699 152.299Z" fill="black"/>
<path d="M127 166.3C126.1 166.6 125.3 166.8 124.3 166.9C124 166.9 123.6 166.7 123.2 167.2C123 167.5 122.7 166.8 122.4 166.8C121.5 166.8 120.7 166.4 120 166.1C119.2 165.8 118.4 165.6 117.7 165.1C117 164.6 116.7 163.9 115.9 163.5C115.2 163.2 115.3 162.4 114.9 161.9C114.4 161.4 114 160.8 114 160.1C114 159.6 114 159.1 113.8 158.7C113.7 158.5 113.3 158.3 113.2 158C113.2 157.7 113.3 157.4 112.7 157.3V157.1C113 156.7 112.9 156.4 112.7 156.2C112.4 156 112.4 155.8 112.3 155.6C112.2 155 112.1 154.4 112.1 153.8C112.1 153.3 112.3 152.9 112.3 152.4C112.3 151.9 112 151.5 112.3 151C112.6 150.6 112.6 150.2 112.6 149.8C112.6 149.6 112.9 149.3 112.3 149.1C112.3 149.1 112.3 149 112.3 148.9C113.2 148.2 112.2 147.4 112.6 146.6C113 145.8 113.2 144.8 113.9 144C114.1 143.8 114.4 143.7 114.2 143.2C114.2 143 114.4 142.8 114.6 142.8C115.6 142.8 116 142.1 116.8 141.9C117.6 141.7 118.4 141.3 119.2 141.7C119.5 141.9 119.9 142 120.3 141.4C120.5 141.1 120.8 141.4 121.1 141.4C121.3 141.4 121.6 141.1 121.8 141.2C122 141.2 122.1 141.5 122.3 141.6C122.3 141.6 122.4 141.6 122.5 141.6C123.1 141.4 123.5 141.6 123.9 141.8C124.3 142 124.6 142.3 125.2 142.4C126.2 142.6 127.4 143.1 128.4 144.3C129 145 129.1 146.1 128.1 146.7C127.6 147 127.1 147 126.7 147C126.5 147 126.2 147 126.1 146.8C125.9 146.7 125.8 146.7 125.6 146.6C125.3 146.6 124.7 146.8 124.5 146.4C124.5 146.3 124.2 146.4 124.2 146V145.9C124 146 123.8 146.1 123.6 146.1C123.4 146.1 123.2 146.1 123 146C122.7 145.9 122.3 145.7 122 145.6C121.4 145.6 120.8 146 120.3 145.7C120 146.3 119.8 146.2 119.5 146C119.1 145.7 118.6 145.8 118.3 146C118 146.2 117.8 146.4 117.6 146.6C117.1 147 117 147.9 116.9 149C116.9 149.2 117.2 149.4 116.9 149.6C116.6 149.8 116.9 150.1 116.9 150.4C116.9 150.7 117 150.9 116.9 151.2C116.3 152.2 116.7 153.2 116.8 154.2C116.8 155.2 117 156.1 117.4 157C117.7 157.5 118.1 157.9 118.2 158.4C118.2 158.6 118.6 158.7 118.2 159.1C118.1 159.2 118.6 159.2 118.7 159.3C118.9 159.6 119.1 159.9 119.3 160.2C119.6 160.6 119.9 161 120.3 161.3C120.5 161.5 120.9 161.5 121.1 161.6C121.4 161.7 121.6 161.9 121.8 162C122 162.2 122.3 162.6 122.6 162.7C122.9 162.9 123.3 162.7 123.6 163C124.2 163.6 124.9 163.2 125.5 163.1C126.2 163 126.8 162.7 127.3 162.2C127.5 161.9 128.1 162.1 128.4 161.8C128.4 161.7 129.8 162.4 130.2 162.7L130.3 162.9C130.3 163.6 130.5 164.5 129.9 165C129.1 165.6 128.2 166.2 127.2 166.5L127 166.3Z" fill="black"/>
<path d="M138.9 159.7C138.3 159.8 137.8 159.9 137.1 160C136.9 160 136.6 159.8 136.4 160.3C136.3 160.6 136.1 159.9 135.8 159.9C135.2 159.9 134.6 159.6 134 159.4C133.4 159.2 132.8 159.1 132.3 158.8C131.8 158.5 131.6 157.8 131 157.7C130.5 157.5 130.6 156.9 130.3 156.6C130 156.3 129.7 156 129.7 155.5C129.7 155.2 129.7 154.8 129.6 154.6C129.5 154.5 129.1 154.5 129 154.3C129 154.1 129.1 153.9 128.5 154C128.5 154 128.5 153.9 128.5 153.8C128.8 153.5 128.7 153.3 128.4 153.2C128.1 153.2 128.1 153 128 152.9C127.8 152.6 127.6 152.2 127.5 151.8C127.5 151.5 127.5 151.1 127.5 150.8C127.5 150.5 127.1 150.2 127.3 149.8C127.5 149.4 127.4 149.2 127.3 148.9C127.3 148.7 127.5 148.5 126.9 148.4C126.9 148.4 126.9 148.4 126.9 148.3C127.7 147.7 126.5 147.3 126.7 146.8C126.9 146.3 126.8 145.7 126.9 145.1C126.9 144.9 127.1 144.8 126.7 144.6C126.6 144.6 126.6 144.3 126.7 144.3C127.4 144 127.2 143.5 127.5 143.1C127.8 142.7 127.8 142.1 128.5 141.9C128.8 141.9 129 141.7 128.7 141.2C128.5 141 128.9 141 128.9 140.8C128.9 140.7 128.8 140.4 128.9 140.4C128.9 140.4 129.2 140.4 129.3 140.4C129.1 140 129.3 140 129.4 139.9H129.5C129.2 139.8 129.9 140 129.8 140C129.7 140 129.5 140 129.5 140C129.7 140 130 139.8 130.2 139.7L130.4 139.5C130.4 139.5 130.4 139.5 130.4 139.4C130.4 139.4 130.4 139.3 130.4 139.2C130.4 138.7 130.4 138.1 130.7 137.8C130.9 137.6 131.2 137.5 131.4 137.5C131.7 137.5 132.1 137.7 132.4 137.9C133 138.3 133.7 138.8 133.5 139.6C133.5 139.8 133.7 140.1 133.2 140.2C133.2 140.2 133.1 140.2 133.2 140.3C133.4 140.5 133.5 140.8 133.5 141C133.5 141.1 133.5 141.2 133.5 141.4C133.5 141.5 133.5 141.6 133.4 141.7C133.2 142.1 132.9 142.3 132.8 142.6C132.5 143.1 132.8 143.9 132.3 144C132.7 144.6 132.5 144.7 132.3 144.7C131.5 144.7 131.6 145.5 131.4 146.1C131.2 146.7 131.3 147.3 131.4 148C131.4 148.1 131.8 148.2 131.5 148.3C131.3 148.5 131.5 148.6 131.5 148.7C131.5 148.8 131.7 148.9 131.5 149.1C131 149.8 131.5 150.3 131.8 150.9C132 151.5 132.2 152.1 132.6 152.6C132.9 152.9 133.3 153.1 133.4 153.5C133.4 153.7 133.8 153.6 133.4 154.1C133.3 154.2 133.7 154.1 133.8 154.1C134 154.3 134.1 154.5 134.2 154.6C134.4 154.8 134.5 155.1 134.8 155.2C134.9 155.2 135.2 155.2 135.3 155.2C135.4 155.2 135.5 155.2 135.6 155.4C135.6 155.5 135.7 155.8 135.9 155.9C136.1 156 136.3 155.8 136.4 156C136.7 156.5 137.2 156.2 137.6 156.2C138 156.2 138.5 156.1 139 155.8C139.2 155.6 139.7 156 139.9 155.8C140 155.8 140.8 157 141 157.5V157.7C141 158.3 141 159.1 140.5 159.2C139.9 159.4 139.3 159.6 138.7 159.8L138.9 159.7Z" fill="black"/>
<path d="M158.3 190.901C157.4 190.901 156.5 190.901 155.7 191.101C155.4 191.101 155 190.901 154.7 191.501C154.5 191.801 154.2 191.201 153.9 191.201C153.1 191.301 152.3 191.201 151.4 191.401C150.6 191.501 149.8 191.801 149 191.901C148.2 191.901 147.3 191.701 146.5 192.101C145.8 192.401 145.2 191.901 144.5 192.001C143.8 192.001 143 192.101 142.3 191.801C141.8 191.601 141.3 191.301 140.8 191.301C140.5 191.301 140.1 191.601 139.8 191.501C139.5 191.501 139.2 191.101 138.7 191.601C138.7 191.601 138.5 191.501 138.5 191.401C138.3 190.901 137.8 190.801 137.4 191.001C137 191.201 136.8 191.001 136.5 191.001C135.8 190.801 135 190.501 134.4 190.001C133.9 189.701 133.5 189.201 133.1 188.801C132.6 188.401 131.9 188.201 131.7 187.601C131.5 187.001 131.1 186.701 130.7 186.301C130.5 186.101 130.5 185.601 129.8 185.801C129.8 185.801 129.7 185.801 129.7 185.601C129.7 185.001 129.4 184.701 129.1 184.401C128.7 184.101 128.3 183.801 128.2 183.301C127.9 182.301 127.5 181.401 127.2 180.401C127.2 180.101 127.2 179.801 126.8 179.701C126.6 179.701 126.6 179.401 126.7 179.201C127.2 178.401 126.8 177.701 127 177.001C127.1 176.201 127 175.401 127.5 174.601C127.8 174.301 127.9 173.901 127.5 173.401C127.3 173.201 127.6 172.901 127.6 172.601C127.6 172.401 127.4 172.101 127.4 171.901C127.4 171.701 127.7 171.601 127.9 171.401C127.9 171.401 127.9 171.301 127.9 171.201C127.5 170.001 128.7 169.201 128.8 168.201C128.8 167.701 129 167.201 129.1 166.701C129.2 166.301 129.3 165.901 129.4 165.701C129.4 165.401 129.7 165.501 130.5 164.701C130.9 164.301 131.3 164.001 131.7 164.101C132 164.101 132.4 164.301 132.5 164.601C132.7 165.001 132.9 165.501 133 165.901C133.2 166.801 133.5 167.701 133 168.301C132.9 168.501 133 168.801 132.5 168.901C132.5 168.901 132.4 168.901 132.4 169.001C132.9 170.101 132.2 170.901 132 171.801C131.8 172.601 132.3 173.401 131.9 174.101C132.4 174.601 132.2 175.101 131.9 175.401C131 176.701 131.4 178.101 131.6 179.301C131.7 180.601 132.4 181.701 133.1 182.701C133.2 182.901 133.6 182.701 133.6 183.201C133.6 183.601 134 183.601 134.2 183.901C134.4 184.101 134.7 184.201 134.8 184.401C135.2 185.601 136.5 185.901 137.4 186.401C138.4 186.901 139.5 187.301 140.6 187.401C141.3 187.401 142 187.201 142.7 187.401C143 187.401 143.3 187.201 143.6 187.801C143.6 188.001 144 187.501 144.2 187.501C144.7 187.501 145.2 187.501 145.7 187.501C146.4 187.501 147.1 187.501 147.8 187.501C148.2 187.501 148.6 187.201 149.1 187.101C149.5 187.101 150 187.001 150.5 187.101C151.1 187.101 151.7 187.301 152.3 187.301C152.9 187.301 153.5 187.001 154.1 187.301C155.2 187.701 156.3 187.401 157.4 187.301C158.5 187.301 159.6 187.301 160.6 187.101C160.8 187.101 160.9 187.101 160.9 187.101C160.9 187.101 161.1 187.101 161.1 187.201C161.1 187.201 161.2 187.201 161.3 187.301C161.3 187.301 161.3 187.401 161.3 187.501C161.3 187.601 161.5 187.701 161.5 187.801C161.5 187.801 161.6 187.801 161.6 187.901H161.7C162.1 187.901 162.6 187.901 162.9 187.901C162.9 187.901 163.1 188.001 163.1 188.101C163.1 188.801 162.8 189.501 162.5 189.901C162.1 190.301 161.6 190.601 161.2 190.701H160.4H159.7H158.2L158.3 190.901Z" fill="black"/>
<path d="M115.299 181.801C115.299 181.501 115.499 181.201 115.499 180.901C115.499 180.801 115.799 180.701 115.299 180.501C114.999 180.401 115.699 180.401 115.699 180.301C115.699 180.001 115.799 179.701 115.799 179.401C115.799 179.101 115.599 178.801 115.599 178.501C115.599 178.201 115.899 178.001 115.599 177.601C115.399 177.301 115.899 177.201 115.799 176.901C115.799 176.601 115.699 176.401 115.899 176.201C116.099 176.101 116.299 175.901 116.299 175.701C116.299 175.601 115.899 175.401 115.999 175.301C115.999 175.201 116.299 175.101 115.699 174.901C115.699 174.901 115.699 174.901 115.899 174.901C116.299 174.901 116.299 174.701 115.999 174.601C115.699 174.501 115.799 174.401 115.799 174.301C115.799 174.101 115.799 173.801 115.799 173.601C115.799 173.401 116.099 173.301 116.199 173.101C116.199 172.901 115.999 172.701 116.299 172.501C116.599 172.401 116.599 172.201 116.599 172.001C116.599 172.001 116.899 171.801 116.299 171.701C117.199 171.501 116.099 171.101 116.299 170.901C116.499 170.601 116.399 170.301 116.399 170.001C116.399 170.001 116.599 169.901 116.099 169.701C115.899 169.701 115.899 169.601 116.099 169.501C116.699 169.301 116.399 169.101 116.499 168.901C116.599 168.701 116.399 168.401 116.899 168.201C117.099 168.201 117.199 168.001 116.699 167.801C116.399 167.801 116.699 167.601 116.699 167.501C116.699 167.501 116.399 167.301 116.399 167.201C116.399 167.201 116.599 167.101 116.799 167.001C116.199 166.601 117.099 166.301 116.899 165.901C116.699 165.501 116.899 165.101 116.899 164.801C116.899 164.601 117.199 164.401 118.299 164.301C118.799 164.301 119.399 164.301 119.699 164.301C119.899 164.301 120.199 164.501 120.199 164.501C120.199 164.601 120.399 164.801 120.499 164.901C120.699 165.201 121.199 165.401 120.899 165.701C120.899 165.701 121.099 165.901 120.599 165.901C121.399 166.301 120.799 166.601 120.899 167.001C120.899 167.301 121.499 167.601 121.199 167.901C121.799 168.101 121.699 168.301 121.499 168.501C120.799 169.001 121.199 169.701 120.999 170.301C120.899 170.901 120.899 171.501 120.799 172.101C120.799 172.201 121.099 172.301 120.799 172.401C120.499 172.401 120.799 172.701 120.799 172.801C120.799 172.901 120.899 173.101 120.799 173.201C120.099 173.601 120.399 174.101 120.299 174.601C120.199 175.101 119.999 175.501 120.099 176.001C120.099 176.301 120.499 176.601 120.299 176.901C120.299 177.001 120.499 177.201 119.899 177.201C119.699 177.201 120.199 177.401 120.199 177.501C120.199 177.701 120.199 177.901 120.199 178.101C120.199 178.401 120.099 178.601 120.099 178.901C120.099 179.101 120.299 179.301 120.399 179.401C120.399 179.601 120.399 179.801 120.399 179.901C120.299 180.101 119.999 180.301 119.899 180.501C119.899 180.701 119.999 181.001 119.699 181.201C119.099 181.501 119.299 182.001 119.199 182.301C119.099 182.701 118.999 183.101 118.999 183.501C118.999 183.701 118.499 183.801 118.499 184.101C118.499 184.201 116.999 184.101 116.499 183.901H116.299C115.899 183.601 115.199 183.301 115.299 183.001C115.399 182.701 115.499 182.301 115.499 181.901L115.299 181.801Z" fill="black"/>
</svg>
