<svg width="300" height="300" viewBox="0 0 300 300" fill="none" xmlns="http://www.w3.org/2000/svg">
<path d="M159.6 115.498C158.9 115.098 158.1 114.698 157.1 114.598C156.8 114.598 156.5 114.198 156 114.598C155.8 114.798 155.5 114.198 155.2 114.098C154.3 114.098 153.4 113.898 152.4 113.998C151.5 113.998 150.5 114.198 149.6 114.298C148.7 114.298 147.7 114.098 146.8 114.398C146 114.698 145.3 114.198 144.6 114.398C143.8 114.598 143 114.698 142.2 114.498C141.6 114.398 141 114.198 140.5 114.398C140.2 114.498 139.9 114.898 139.5 114.898C139.1 114.898 138.7 114.698 138.5 115.398C138.5 115.398 138.3 115.398 138.2 115.298C137.8 114.898 137.3 114.998 137 115.298C136.7 115.598 136.5 115.598 136.2 115.698C135.4 115.898 134.6 115.998 133.9 116.098C133.3 116.098 132.7 116.098 132.1 116.098C131.5 116.098 130.9 116.598 130.3 116.398C129.7 116.198 129.1 116.398 128.6 116.498C128.3 116.498 127.9 116.398 127.8 117.098C127.8 117.098 127.7 117.098 127.6 117.098C126.5 116.498 125.9 117.798 125 117.898C124 117.898 123.2 118.398 122.4 118.798C122.2 118.798 121.9 118.798 121.9 119.298C121.9 119.498 121.7 119.598 121.5 119.498C120.6 119.198 120.2 119.898 119.7 120.098C119 120.398 118.7 121.098 117.9 121.198C117.5 121.198 117.2 121.498 117.4 122.198C117.5 122.498 117.1 122.598 117 122.898C117 123.098 117 123.398 117 123.598C117 123.798 116.6 123.798 116.5 123.898C116.5 123.898 116.5 123.898 116.5 124.098C116.7 125.298 115.6 125.998 115.5 127.198C115.5 128.298 115.3 129.498 115.1 130.698C115.1 131.398 114.8 131.998 113.6 132.498C113.1 132.698 112.5 132.698 112.2 132.398C112 132.198 111.7 131.898 111.7 131.698C111.7 131.298 111.5 130.898 111.4 130.498C111.3 129.698 110.8 128.698 111.2 127.898C111.3 127.598 111.1 127.298 111.6 127.098C111.6 127.098 111.7 126.998 111.7 126.898C111.1 125.598 112 124.398 112.4 123.198C112.7 122.198 112.7 120.898 113.6 119.998C113.4 119.098 114.1 118.498 114.7 118.198C116.8 116.998 118.5 115.598 120.5 114.798C122.5 113.998 124.4 113.398 126.4 112.898C126.7 112.898 126.9 112.398 127.4 112.598C127.8 112.798 128.2 112.398 128.7 112.298C129.1 112.298 129.5 111.998 129.9 111.998C131.6 112.298 133 111.598 134.6 111.398C136.1 111.198 137.7 110.998 139.2 110.698C140.1 110.498 141 109.998 142 110.098C142.4 110.098 142.8 109.698 143.3 110.298C143.4 110.498 143.8 109.998 144 109.898C144.6 109.898 145.3 109.898 146 109.798C146.9 109.798 147.8 109.798 148.7 109.798C149.3 109.798 149.8 109.498 150.4 109.398C151 109.398 151.6 109.398 152.2 109.398C152.9 109.398 153.7 109.698 154.4 109.798C155.2 109.898 156 109.798 156.8 110.098C158.2 110.798 159.7 110.898 161.1 111.598C162.5 112.298 163.7 113.298 164.8 114.198C165.4 114.698 165.6 115.598 166.1 116.098C166.3 116.398 165.6 117.698 165.1 117.898C165.1 117.898 164.9 117.898 164.8 117.898C164 117.698 163 117.698 162.5 117.198C161.8 116.398 160.9 115.698 160.1 115.198L159.6 115.498Z" fill="black"/>
<path d="M116.7 163.8C116.7 164.2 116.7 164.7 116.9 165.1C116.9 165.3 116.7 165.5 117.3 165.5C117.6 165.5 117 165.8 117 165.9C117.1 166.3 117.1 166.7 117.2 167.1C117.3 167.5 117.6 167.8 117.7 168.2C117.8 168.6 117.6 169 118 169.3C118.3 169.6 117.9 169.9 118 170.2C118.2 170.5 118.3 170.8 118.1 171.2C118 171.5 117.8 171.7 117.9 171.9C117.9 172 118.3 172.1 118.3 172.3C118.3 172.4 118.1 172.7 118.7 172.7C118.7 172.7 118.7 172.7 118.6 172.8C118.2 173 118.3 173.2 118.6 173.3C118.9 173.3 118.9 173.5 118.9 173.6C118.9 173.9 119.1 174.2 119.1 174.6C119.1 174.9 118.9 175.1 118.9 175.4C118.9 175.7 119.2 175.9 118.9 176.2C118.6 176.5 118.7 176.7 118.7 176.9C118.7 177 118.5 177.2 119.1 177.2C118.4 177.7 119.5 177.9 119.4 178.3C119.3 178.7 119.4 179.1 119.6 179.5C119.6 179.6 119.5 179.8 119.9 179.8C120.1 179.8 120.1 179.9 120 180C119.4 180.4 119.9 180.6 119.8 181C119.8 181.4 120.1 181.7 119.7 182.1C119.5 182.3 119.5 182.5 120.1 182.6C120.4 182.6 120.1 182.8 120.2 183C120.2 183 120.6 183.1 120.6 183.2C120.6 183.2 120.4 183.4 120.3 183.5C121 183.9 120.3 184.5 120.5 185C120.8 185.5 120.8 186 120.8 186.5C120.8 186.8 120.7 187.1 119.6 187.5C119.1 187.7 118.6 187.8 118.2 187.7C117.9 187.7 117.7 187.7 117.6 187.5C117.5 187.4 117.3 187.2 117.2 187.1C116.9 186.8 116.4 186.6 116.6 186.2C116.6 186.1 116.3 186 116.8 185.8C115.9 185.5 116.4 184.9 116.2 184.5C116.1 184.1 115.4 183.9 115.6 183.4C114.9 183.4 115 183 115.1 182.8C115.6 181.9 115.1 181.2 115 180.4C115 179.6 114.7 178.8 114.6 178C114.6 177.9 114.2 177.8 114.5 177.6C114.7 177.4 114.5 177.3 114.5 177.1C114.5 176.9 114.3 176.8 114.5 176.6C115 175.9 114.5 175.3 114.5 174.7C114.5 174.1 114.5 173.5 114.1 172.9C113.9 172.5 113.5 172.2 113.6 171.8C113.6 171.6 113.3 171.5 113.8 171.3C114 171.3 113.5 171.2 113.4 171.1C113.4 170.9 113.3 170.6 113.3 170.3C113.3 169.9 113.3 169.6 113.1 169.2C113.1 169 112.7 168.8 112.7 168.6C112.7 168.4 112.6 168.2 112.6 167.9C112.6 167.6 112.8 167.3 112.8 167C112.8 166.7 112.5 166.4 112.8 166.1C113.2 165.5 112.8 165 112.8 164.5C112.8 164 112.8 163.4 112.5 162.9C112.4 162.6 112.8 162.3 112.8 162C112.8 161.9 114.2 161.5 114.7 161.5H114.9C115.4 161.7 116.2 161.9 116.2 162.2C116.2 162.7 116.3 163.2 116.4 163.6L116.7 163.8Z" fill="black"/>
<path d="M166.099 147.298C166.499 147.098 166.799 146.998 167.199 146.698C167.299 146.698 167.599 146.698 167.499 146.198C167.499 145.898 167.899 146.398 167.999 146.398C168.299 146.198 168.699 146.098 168.999 145.898C169.299 145.698 169.499 145.298 169.799 145.098C170.099 144.898 170.599 145.098 170.799 144.598C170.999 144.198 171.399 144.598 171.599 144.298C171.799 144.098 172.099 143.898 172.499 143.998C172.799 143.998 173.099 144.198 173.199 143.998C173.199 143.898 173.199 143.498 173.399 143.498C173.499 143.498 173.799 143.698 173.699 142.998C173.699 142.998 173.699 142.998 173.899 142.998C174.199 143.298 174.399 143.198 174.399 142.998C174.399 142.698 174.499 142.698 174.599 142.598C174.899 142.498 175.199 142.298 175.499 142.298C175.699 142.298 175.999 142.298 176.299 142.298C176.499 142.298 176.699 141.898 176.999 142.098C177.299 142.298 177.499 142.198 177.699 142.098C177.799 142.098 178.099 142.298 177.899 141.598C178.499 142.298 178.499 141.098 178.899 141.198C179.299 141.198 179.599 140.998 179.999 140.898C179.999 140.898 180.299 140.998 180.199 140.498C180.199 140.298 180.199 140.298 180.399 140.398C180.899 140.898 180.999 140.398 181.299 140.398C181.599 140.398 181.899 139.998 182.299 140.398C182.499 140.598 182.699 140.598 182.699 139.998C182.699 139.698 182.899 139.998 182.999 139.798C182.999 139.798 182.999 139.398 183.199 139.398C183.199 139.398 183.399 139.598 183.499 139.698C183.799 138.898 184.499 139.698 184.899 139.298C185.299 138.998 185.799 138.898 186.299 138.898C186.599 138.898 186.899 138.898 187.399 139.998C187.599 140.498 187.799 140.998 187.699 141.398C187.699 141.698 187.699 141.898 187.599 141.998C187.499 142.098 187.399 142.298 187.299 142.398C187.099 142.698 186.899 143.298 186.599 143.098C186.499 143.098 186.499 143.398 186.199 142.898C185.999 143.798 185.499 143.398 185.099 143.598C184.799 143.798 184.599 144.498 184.199 144.298C184.199 144.998 183.999 144.898 183.699 144.798C182.799 144.398 182.299 144.998 181.599 145.198C180.899 145.298 180.299 145.698 179.599 145.898C179.499 145.898 179.599 146.298 179.299 146.098C179.099 145.898 178.999 146.098 178.799 146.198C178.699 146.198 178.599 146.398 178.399 146.298C177.599 145.898 177.299 146.498 176.699 146.598C176.199 146.698 175.599 146.898 175.199 147.298C174.899 147.498 174.799 147.998 174.399 147.998C174.199 147.998 174.199 148.398 173.899 147.898C173.799 147.798 173.899 148.198 173.799 148.298C173.599 148.398 173.399 148.498 173.199 148.598C172.899 148.698 172.599 148.798 172.299 148.998C172.099 149.098 172.099 149.398 171.899 149.598C171.699 149.698 171.599 149.798 171.299 149.898C170.999 149.898 170.699 149.898 170.399 149.898C170.099 149.898 169.999 150.298 169.599 150.198C168.899 149.998 168.599 150.398 168.199 150.598C167.699 150.798 167.299 150.898 166.899 151.298C166.699 151.498 166.199 151.198 165.999 151.298C165.899 151.298 165.099 150.098 164.899 149.698V149.498C164.899 148.998 164.799 148.198 165.099 148.098C165.499 147.998 165.899 147.698 166.299 147.498L166.099 147.298Z" fill="black"/>
<path d="M168.6 166.198C168.6 165.898 168.5 165.498 168.3 165.198C168.3 165.098 168.5 164.898 167.9 164.898C167.6 164.898 168.2 164.598 168.2 164.498C168.1 164.198 168.1 163.898 167.9 163.598C167.8 163.298 167.5 163.098 167.3 162.798C167.2 162.498 167.3 162.098 167 161.898C166.7 161.698 167.1 161.398 167 161.198C166.8 160.998 166.7 160.698 166.8 160.398C166.9 160.198 167.1 159.998 166.9 159.798C166.9 159.798 166.5 159.698 166.5 159.598C166.5 159.498 166.7 159.298 166.1 159.298C166.1 159.298 166.1 159.298 166.2 159.198C166.6 158.998 166.5 158.798 166.2 158.798C165.9 158.798 165.9 158.698 165.9 158.598C165.9 158.398 165.7 158.098 165.7 157.898C165.7 157.698 165.9 157.498 165.9 157.298C165.9 157.098 165.6 156.998 165.9 156.698C166.2 156.398 166.1 156.298 166 156.098C166 156.098 166.2 155.798 165.6 155.898C166.3 155.398 165.2 155.398 165.3 155.098C165.4 154.798 165.3 154.498 165.1 154.198C165.1 154.198 165.2 153.998 164.8 153.998C164.6 153.998 164.6 153.998 164.7 153.898C165.2 153.498 164.8 153.398 164.9 153.098C164.9 152.798 164.6 152.598 164.9 152.198C165.1 151.998 165.1 151.898 164.5 151.898C164.2 151.898 164.5 151.698 164.4 151.598C164.4 151.598 164 151.598 164 151.498C164 151.498 164.2 151.298 164.3 151.198C163.6 150.998 164.3 150.398 164 150.098C163.7 149.798 163.7 149.398 163.6 148.998C163.6 148.798 163.6 148.498 164.7 147.998C165.2 147.798 165.7 147.598 166 147.598C166.2 147.598 166.5 147.598 166.6 147.598C166.7 147.598 166.9 147.798 167 147.898C167.3 148.098 167.9 148.198 167.7 148.498C167.7 148.598 168 148.598 167.5 148.798C168.4 148.898 168 149.398 168.1 149.798C168.2 150.098 168.9 150.198 168.7 150.598C169.4 150.598 169.3 150.798 169.2 150.998C168.7 151.798 169.3 152.198 169.4 152.898C169.4 153.498 169.7 154.098 169.8 154.698C169.8 154.798 170.2 154.798 170 154.998C169.8 155.198 170 155.298 170 155.398C170 155.498 170.2 155.598 170 155.798C169.5 156.398 170 156.798 170 157.298C170 157.798 170 158.298 170.4 158.698C170.6 158.998 171 159.198 170.9 159.498C170.9 159.598 171.2 159.698 170.7 159.898C170.5 159.898 171 159.898 171.1 160.098C171.1 160.298 171.2 160.498 171.3 160.698C171.3 160.998 171.3 161.298 171.5 161.498C171.5 161.698 171.9 161.798 172 161.898C172.1 162.098 172.1 162.198 172.1 162.398C172.1 162.598 171.9 162.898 171.9 163.098C171.9 163.298 172.2 163.498 172 163.798C171.6 164.298 172 164.698 172 165.098C172 165.498 172.1 165.898 172.3 166.298C172.4 166.498 172 166.798 172.1 167.098C172.1 167.098 170.7 167.698 170.2 167.798H170C169.5 167.798 168.7 167.798 168.7 167.398C168.7 166.998 168.5 166.698 168.4 166.298L168.6 166.198Z" fill="black"/>
<path d="M162.2 186.199C162.3 185.799 162.5 185.399 162.5 184.999C162.5 184.799 162.8 184.799 162.4 184.499C162.2 184.299 162.8 184.399 162.8 184.199C162.8 183.799 163.1 183.499 163.1 183.099C163.1 182.699 163.1 182.299 163.1 181.899C163.1 181.499 163.6 181.299 163.4 180.799C163.2 180.399 163.8 180.299 163.8 179.999C163.8 179.699 163.8 179.299 164.1 179.099C164.3 178.899 164.6 178.799 164.6 178.599C164.6 178.399 164.3 178.199 164.4 178.099C164.4 177.999 164.8 177.899 164.2 177.599C164.2 177.599 164.2 177.599 164.4 177.599C164.8 177.599 164.9 177.399 164.6 177.199C164.4 176.999 164.5 176.899 164.5 176.799C164.5 176.499 164.6 176.199 164.8 175.899C164.9 175.699 165.2 175.599 165.4 175.399C165.5 175.199 165.4 174.899 165.7 174.699C166.1 174.599 166.1 174.399 166.2 174.199C166.2 174.099 166.6 173.999 166 173.699C166.9 173.699 166 172.999 166.3 172.699C166.6 172.399 166.6 171.999 166.7 171.699C166.7 171.699 166.9 171.599 166.5 171.299C166.4 171.299 166.4 171.099 166.5 171.099C167.2 171.099 166.9 170.599 167.1 170.399C167.3 170.099 167.1 169.699 167.7 169.599C167.9 169.599 168.1 169.399 167.6 169.099C167.4 168.899 167.6 168.899 167.6 168.799C167.6 168.699 167.3 168.499 167.4 168.399C167.4 168.399 167.7 168.399 167.8 168.299C167.3 167.699 168.3 167.499 168.2 166.999C168.2 166.699 168.2 166.599 168.2 166.299C168.2 165.999 168.4 165.699 168.6 165.299C168.8 164.899 169.3 164.499 170.4 165.099C170.9 165.299 171.3 165.699 171.5 165.999C171.6 166.199 171.8 166.399 171.8 166.499C171.8 166.599 171.9 166.799 172 166.899C172.1 167.099 172.6 167.399 172.2 167.699C172.1 167.699 172.3 167.999 171.8 167.899C172.5 168.499 171.8 168.899 171.8 169.299C171.8 169.699 172.2 170.199 171.8 170.499C172.3 170.899 172.2 171.099 171.9 171.199C171 171.699 171.2 172.499 170.9 173.199C170.6 173.899 170.4 174.599 170.1 175.299C170.1 175.399 170.4 175.599 170.1 175.699C169.8 175.699 169.9 175.999 169.9 176.099C169.9 176.199 169.9 176.399 169.7 176.499C168.9 176.799 169.1 177.499 168.8 177.999C168.5 178.499 168.3 178.999 168.3 179.599C168.3 179.999 168.5 180.399 168.3 180.699C168.2 180.799 168.5 181.099 167.9 180.999C167.7 180.999 168.1 181.299 168.1 181.399C168.1 181.599 168 181.899 167.9 182.099C167.8 182.399 167.6 182.699 167.6 183.099C167.6 183.299 167.7 183.599 167.7 183.799C167.7 183.999 167.7 184.199 167.5 184.399C167.3 184.599 167.1 184.799 166.9 185.099C166.8 185.299 166.9 185.699 166.6 185.899C166 186.199 166.1 186.799 165.9 187.199C165.7 187.599 165.5 188.099 165.5 188.599C165.5 188.899 165 188.999 164.9 189.199C164.9 189.299 163.4 189.199 162.9 188.999H162.7C162.3 188.599 161.7 188.199 161.8 187.899C162 187.399 162.1 186.999 162.2 186.499V186.199Z" fill="black"/>
<path d="M162.599 169.697C162.399 169.697 162.099 169.797 161.899 169.897C161.899 169.897 161.699 169.697 161.699 170.297C161.699 170.597 161.499 169.997 161.399 169.997C161.199 170.097 160.899 169.997 160.699 170.197C160.499 170.197 160.299 170.597 159.999 170.597C159.799 170.597 159.499 170.397 159.299 170.697C159.099 170.997 158.899 170.497 158.699 170.697C158.499 170.797 158.299 170.897 158.099 170.697C157.999 170.497 157.799 170.297 157.699 170.397C157.699 170.397 157.499 170.797 157.399 170.697C157.399 170.697 157.199 170.397 157.099 170.997C157.099 170.997 157.099 170.997 157.099 170.797C157.099 170.397 156.899 170.397 156.799 170.697C156.699 170.997 156.599 170.897 156.499 170.897C156.299 170.897 156.099 170.897 155.899 170.897C155.799 170.897 155.699 170.597 155.499 170.497C155.399 170.497 155.099 170.697 155.099 170.297C155.099 169.997 154.899 169.897 154.799 169.897C154.799 169.897 154.799 169.597 154.499 170.197C154.499 169.397 153.999 170.297 153.799 169.997C153.599 169.697 153.399 169.797 153.099 169.697C153.099 169.697 153.099 169.497 152.799 169.897C152.799 169.997 152.599 169.997 152.699 169.897C152.699 169.197 152.499 169.497 152.299 169.397C152.199 169.197 151.799 169.397 151.899 168.797C151.899 168.597 151.899 168.397 151.499 168.797C151.299 168.997 151.399 168.797 151.299 168.797L150.999 168.997C150.999 168.997 150.999 168.697 150.999 168.597C150.399 168.997 150.599 168.097 150.299 167.997C149.899 167.997 149.699 167.697 149.499 167.397C149.499 167.197 149.399 166.997 150.099 166.097C150.399 165.697 150.799 165.297 151.099 165.097C151.299 164.997 151.499 164.797 151.599 164.797C151.699 164.797 151.899 164.797 151.999 164.697C152.199 164.697 152.699 164.297 152.599 164.697C152.599 164.697 152.799 164.597 152.599 164.997C153.199 164.497 153.099 164.997 153.299 164.997C153.499 164.997 153.899 164.597 153.899 164.997C154.299 164.497 154.299 164.597 154.299 164.797C154.299 165.497 154.799 165.297 154.999 165.497C155.299 165.697 155.599 165.697 155.899 165.897C155.899 165.897 156.099 165.597 156.099 165.897C156.099 166.197 156.199 165.897 156.299 165.997H156.499C156.599 166.697 156.999 166.397 157.199 166.497C157.499 166.497 157.699 166.697 157.999 166.497C158.199 166.497 158.299 166.097 158.499 166.197C158.499 166.197 158.599 165.897 158.699 166.497C158.699 166.697 158.699 166.197 158.799 166.197C158.899 166.197 158.999 166.197 159.099 166.197C159.199 166.197 159.399 166.197 159.499 166.197C159.499 166.197 159.699 165.897 159.699 165.797C159.699 165.797 159.899 165.797 159.999 165.797C160.099 165.797 160.299 165.997 160.399 166.097C160.499 166.097 160.599 165.797 160.799 166.097C161.099 166.497 161.299 166.197 161.499 166.197C161.699 166.197 161.999 166.197 162.099 165.997C162.099 165.897 162.499 166.297 162.599 166.297C162.599 166.297 163.299 167.597 163.499 168.097V168.297C163.499 168.797 163.699 169.497 163.499 169.497C163.199 169.497 162.899 169.697 162.699 169.797L162.599 169.697Z" fill="black"/>
<path d="M182.299 132.198C181.999 130.998 181.699 129.898 181.299 128.698C181.099 128.298 181.299 127.798 180.599 127.498C180.299 127.398 180.699 126.798 180.599 126.398C180.199 125.398 179.899 124.298 179.499 123.298C179.099 122.298 178.499 121.498 177.999 120.798C177.499 120.098 177.199 119.098 176.399 118.898C175.799 118.698 175.599 118.098 175.099 117.998C174.599 117.998 174.099 117.998 173.499 117.998C172.799 117.998 172.099 117.998 171.499 118.198C171.099 118.398 170.799 118.798 170.399 118.898C169.999 118.898 169.499 118.898 169.299 119.498C169.299 119.498 169.099 119.498 168.999 119.498C168.499 119.198 167.899 119.398 167.599 119.698C167.299 120.098 166.999 120.098 166.699 120.198C165.799 120.498 164.899 120.698 163.999 120.798C163.299 120.898 162.599 120.798 161.899 120.898C161.199 120.998 160.499 121.498 159.799 121.298C159.099 121.198 158.499 121.298 157.799 121.498C157.399 121.498 156.899 121.498 156.799 122.098H156.599C155.399 121.498 154.599 122.898 153.499 122.898C152.399 122.898 151.299 123.398 150.199 123.698C149.899 123.698 149.599 123.698 149.399 124.198C149.399 124.398 149.099 124.498 148.899 124.398C147.899 123.998 147.199 124.598 146.399 124.798C145.399 124.898 144.599 125.498 143.499 125.298C142.999 125.298 142.499 125.298 142.199 125.998C142.099 126.298 141.499 126.198 141.199 126.398C140.899 126.498 140.799 126.898 140.499 126.998C140.299 126.998 139.999 126.998 139.699 126.998H139.499C138.399 128.098 136.799 127.798 135.599 128.498C134.399 129.198 132.999 129.698 131.699 130.198C130.999 130.498 130.199 130.698 129.199 129.898C128.699 129.598 128.499 129.098 128.599 128.598C128.699 128.298 128.899 127.898 129.099 127.798C129.499 127.498 129.799 127.198 130.199 126.898C130.999 126.298 131.599 125.498 132.599 125.298C132.899 125.298 133.099 124.798 133.599 125.298H133.799C134.699 124.098 136.199 123.998 137.399 123.498C138.399 122.998 139.299 122.098 140.399 121.998C140.799 121.198 141.499 121.098 142.199 121.098C144.499 121.098 146.599 119.998 148.699 119.498C150.899 118.998 153.099 118.398 155.299 117.898C155.699 117.898 155.899 117.398 156.399 117.598C156.899 117.798 157.299 117.398 157.799 117.298C158.199 117.198 158.699 116.998 159.099 116.998C160.999 117.198 162.599 116.498 164.299 116.098C165.999 115.798 167.699 115.398 169.399 114.798C170.399 114.398 171.299 113.798 172.399 113.698C172.899 113.698 173.599 113.098 174.199 113.698C174.399 113.798 174.899 113.398 175.399 113.398C176.499 113.398 177.499 113.898 178.299 114.398C179.499 115.098 180.399 116.098 181.199 116.998C181.699 117.598 182.299 118.098 182.699 118.698C183.099 119.298 183.399 119.998 183.599 120.698C183.799 121.598 183.899 122.398 184.199 123.198C184.399 123.998 184.999 124.798 184.999 125.698C184.999 127.298 185.699 128.698 185.999 130.198C186.399 131.698 186.699 133.098 187.299 134.498C187.599 135.298 187.299 136.198 187.499 136.998C187.599 137.398 186.299 138.298 185.799 138.298C185.699 138.298 185.599 138.298 185.499 138.298C184.799 137.598 183.899 137.098 183.699 136.198C183.399 134.898 182.999 133.498 182.599 132.198H182.299Z" fill="black"/>
<path d="M171.599 147.399C169.499 147.899 167.399 148.499 165.299 149.099C164.499 149.299 163.699 149.299 162.999 149.999C162.699 150.399 161.699 149.999 160.999 150.199C158.999 150.799 156.999 151.199 155.099 151.699C153.199 152.199 151.299 152.899 149.399 153.399C147.499 153.899 145.399 154.099 143.599 154.799C141.999 155.399 140.499 155.199 138.899 155.599C138.099 155.799 137.199 155.999 136.299 156.099C135.899 156.099 135.399 156.099 134.999 156.199H134.299C134.099 156.199 133.899 156.199 133.499 156.199C132.899 156.199 132.399 156.099 131.899 155.799C131.199 155.499 130.699 154.999 130.199 154.399C130.099 154.299 129.999 154.099 129.899 153.899L129.699 153.599C129.599 153.399 129.499 153.199 129.299 153.099C128.799 152.499 128.199 152.099 127.799 151.399C127.799 151.199 127.599 151.099 127.499 150.899C127.499 150.899 127.499 150.899 127.499 150.799C127.499 150.799 127.299 150.799 127.199 151.099C127.199 151.099 127.199 151.099 127.199 150.899C127.299 150.299 127.099 149.999 127.099 150.499C127.099 150.999 127.099 150.899 127.099 150.999C127.099 150.999 127.099 150.999 127.099 151.099L126.899 151.399C126.199 152.699 125.099 153.699 124.099 154.799C122.999 155.899 121.899 157.099 120.599 157.599C119.299 158.099 118.099 158.599 116.799 158.999C116.099 159.299 115.199 159.199 114.699 159.899C114.699 159.899 114.399 159.999 114.199 159.899C113.099 159.699 111.999 159.899 110.899 159.899C109.799 159.999 108.699 160.099 107.599 159.799C105.399 159.099 103.099 158.299 101.199 156.799C100.699 156.399 100.299 155.799 99.5994 155.699C99.2994 155.699 98.7994 155.099 98.6994 154.799C98.3994 153.899 97.8994 153.099 97.4994 152.199C97.0994 151.399 96.6994 150.499 96.4994 149.499C96.0994 147.399 95.9994 144.999 97.0994 143.099C97.5994 142.299 98.1994 141.299 98.1994 140.099C98.1994 139.499 99.0994 138.799 99.4994 138.299C99.8994 137.799 100.099 137.199 100.599 136.699C100.999 136.299 101.599 136.199 102.099 135.999C102.199 135.999 102.399 135.799 102.499 135.699C103.599 134.599 104.999 133.999 106.399 133.599C107.799 133.199 109.199 132.999 110.599 132.699C111.999 132.399 113.399 132.199 114.799 132.199C116.199 132.199 117.699 132.199 119.199 132.599C120.799 132.899 122.599 133.799 122.899 135.399C122.999 136.099 122.699 136.499 121.999 136.499C121.499 136.499 120.999 136.499 120.599 136.399C119.899 136.199 119.099 136.199 118.399 136.099C116.899 136.099 115.399 136.599 113.699 136.399C113.199 136.399 112.599 136.699 112.199 136.299C112.199 136.299 111.899 136.299 111.799 136.299C110.799 136.799 109.799 137.099 108.699 137.399C107.699 137.699 106.699 137.999 105.799 138.499C104.299 139.399 103.499 140.899 102.299 142.099C102.299 143.199 101.799 143.999 101.299 144.699C100.499 145.999 100.499 147.599 100.999 149.099C101.499 150.599 102.499 151.899 103.599 152.999C105.999 155.199 109.699 155.999 113.099 155.599C113.699 155.599 114.099 155.099 114.799 155.199C115.499 155.199 116.199 154.799 116.899 154.499C117.499 154.199 118.099 153.699 118.699 153.499C119.999 152.999 121.099 152.099 121.899 150.999C122.299 150.399 122.699 149.799 122.999 149.199C122.999 149.199 123.199 148.799 123.299 148.399L123.699 147.399C123.899 146.699 124.099 145.999 124.199 144.999C124.499 143.299 124.699 141.399 124.899 139.699C125.199 140.099 125.299 140.099 125.499 140.299V140.499C125.599 140.499 125.799 140.799 125.799 140.799L126.199 141.399L127.799 143.899L129.399 146.399L130.199 147.599C130.499 147.999 130.799 148.499 130.899 148.699C131.399 149.399 131.899 149.999 132.399 150.699L132.799 151.199C132.799 151.199 132.899 151.399 132.999 151.399C132.999 151.399 133.099 151.499 133.199 151.599C133.199 151.599 133.199 151.599 133.399 151.599C133.599 151.599 133.799 151.599 133.999 151.599C134.399 151.599 134.799 151.599 135.199 151.799C135.399 151.899 136.099 151.399 136.599 151.299C137.899 151.099 139.099 150.799 140.399 150.599C142.199 150.199 143.899 149.899 145.699 149.399C146.799 149.099 147.799 148.599 148.799 148.299C149.899 147.999 150.999 147.699 152.199 147.499C153.599 147.199 155.099 147.099 156.499 146.799C157.999 146.499 159.499 145.799 160.899 145.699C163.699 145.499 166.199 144.599 168.799 143.999C171.399 143.399 173.999 142.699 176.599 141.999C178.099 141.599 179.599 141.699 180.999 141.399C181.699 141.199 182.899 142.499 182.699 142.999C182.699 143.099 182.599 143.199 182.499 143.299C181.199 144.099 180.099 145.099 178.399 145.399C175.999 145.899 173.599 146.599 171.199 147.199L171.599 147.399Z" fill="black"/>
<path d="M135.7 142.599C135.7 142.599 135.7 142.399 135.5 142.399C135.5 142.399 135.7 142.199 135.2 142.399C135 142.499 135.5 142.199 135.5 142.199C135.4 142.199 135.5 141.999 135.3 141.999C135.3 141.999 135 141.999 134.9 141.999C134.9 141.999 135 141.699 134.7 141.799C134.4 141.799 134.8 141.599 134.7 141.599C134.6 141.599 134.5 141.599 134.7 141.399C134.8 141.299 135 141.099 134.9 141.099C134.9 141.099 134.5 141.199 134.5 141.099C134.5 141.099 134.7 140.899 134.2 141.099C134.2 141.099 134.2 141.099 134.3 141.099C134.6 140.899 134.6 140.899 134.3 140.999C134 140.999 134.1 140.999 134 140.999C134 140.999 133.9 140.999 134 140.799C134 140.799 134.2 140.599 134.2 140.499C134.2 140.499 133.9 140.499 134.2 140.299C134.5 140.099 134.4 140.099 134.4 139.999C134.4 139.999 134.6 139.799 134.1 139.999C134.8 139.599 133.8 139.999 134 139.799C134.2 139.599 134 139.599 134 139.599C134 139.599 134.1 139.499 133.7 139.599C133.5 139.599 133.5 139.599 133.7 139.599C134.3 139.299 133.9 139.399 133.9 139.299C133.9 139.199 133.7 139.299 134.1 138.999C134.3 138.899 134.4 138.799 133.8 138.999H133.5C133.5 138.999 133.7 138.899 133.8 138.799C133.1 138.999 133.9 138.499 133.8 138.499C133.6 138.499 133.6 138.299 133.7 138.199C133.7 138.199 133.9 137.999 134.9 137.599C135.4 137.399 135.9 137.199 136.2 137.099C136.4 137.099 136.6 136.999 136.7 136.999C136.8 136.999 136.9 136.999 137 136.999C137.2 136.999 137.7 136.799 137.5 136.999C137.5 136.999 137.7 136.999 137.2 137.199C138 136.999 137.5 137.199 137.6 137.299C137.6 137.299 138.3 137.199 138.1 137.299C138.7 137.099 138.6 137.199 138.5 137.299C137.9 137.699 138.5 137.599 138.4 137.799C138.4 137.999 138.5 138.099 138.5 138.199C138.3 138.299 138.5 138.199 138.5 138.299C138 138.699 138.4 138.599 138.3 138.699C138.3 138.799 138.3 138.999 138.5 138.999C138.6 138.999 139 138.999 138.9 138.999C138.9 138.999 139.2 138.999 138.7 139.199C138.6 139.199 139 139.099 139 139.199C139 139.199 139 139.199 139 139.299C139 139.299 139 139.399 139.1 139.499C139.1 139.499 139.4 139.499 139.5 139.499C139.5 139.499 139.5 139.499 139.5 139.599C139.5 139.599 139.3 139.799 139.3 139.899C139.3 139.899 139.5 139.899 139.3 140.099C138.9 140.399 139.2 140.399 139.2 140.499C139.2 140.599 139.2 140.699 139.4 140.699C139.4 140.699 139.1 140.999 139.1 141.099C139.1 141.099 139.1 141.099 138.9 141.199C138.8 141.199 138.6 141.399 138.4 141.499C138 141.699 137.6 141.999 137.4 142.099C137.4 142.099 137.2 142.099 137.2 142.199C136.8 142.399 136.1 142.699 136.1 142.699C136.1 142.599 136.1 142.499 136 142.399L135.7 142.599Z" fill="black"/>
<path d="M144.8 140.298C144.8 140.298 144.8 140.098 144.6 140.098C144.6 140.098 144.8 139.898 144.3 140.098C144.1 140.198 144.6 139.898 144.6 139.898C144.5 139.898 144.6 139.698 144.4 139.698C144.4 139.698 144.1 139.698 144 139.698C144 139.698 144.1 139.398 143.8 139.498C143.5 139.498 143.9 139.298 143.8 139.298C143.7 139.298 143.6 139.298 143.8 139.098C143.9 138.998 144.1 138.798 144 138.798C144 138.798 143.6 138.898 143.6 138.798C143.6 138.798 143.8 138.598 143.3 138.798C143.3 138.798 143.3 138.798 143.4 138.798C143.7 138.598 143.7 138.598 143.4 138.698C143.1 138.698 143.2 138.698 143.1 138.698C143.1 138.698 143 138.698 143.1 138.498C143.1 138.498 143.3 138.298 143.3 138.198C143.3 138.198 143 138.198 143.3 137.998C143.6 137.798 143.5 137.798 143.5 137.698C143.5 137.698 143.7 137.498 143.2 137.698C143.9 137.298 142.9 137.698 143.1 137.498C143.3 137.298 143.1 137.298 143.1 137.298C143.1 137.298 143.2 137.198 142.8 137.298C142.6 137.298 142.6 137.298 142.8 137.298C143.4 136.998 143 137.098 143 136.998C143 136.898 142.8 136.998 143.2 136.698C143.4 136.598 143.5 136.498 142.9 136.698H142.6C142.6 136.698 142.8 136.598 142.9 136.498C142.2 136.698 143 136.198 142.9 136.198C142.7 136.198 142.7 135.998 142.8 135.898C142.8 135.898 143 135.698 144 135.298C144.5 135.098 145 134.898 145.3 134.798C145.5 134.798 145.7 134.698 145.8 134.698C145.9 134.698 146 134.698 146.1 134.698C146.3 134.698 146.8 134.498 146.6 134.698C146.6 134.698 146.8 134.698 146.3 134.898C147.1 134.698 146.6 134.898 146.7 134.998C146.7 134.998 147.4 134.898 147.2 134.998C147.8 134.798 147.7 134.898 147.6 134.998C147 135.398 147.6 135.298 147.5 135.498C147.5 135.698 147.6 135.798 147.6 135.898C147.4 135.998 147.6 135.898 147.6 135.998C147.1 136.398 147.5 136.298 147.4 136.398C147.4 136.498 147.4 136.698 147.6 136.698C147.7 136.698 148.1 136.698 148 136.698C148 136.698 148.3 136.698 147.8 136.898C147.7 136.898 148.1 136.798 148.1 136.898C148.1 136.898 148.1 136.898 148.1 136.998C148.1 136.998 148.1 137.098 148.2 137.198C148.2 137.198 148.5 137.198 148.6 137.198C148.6 137.198 148.6 137.198 148.6 137.298C148.6 137.298 148.4 137.498 148.4 137.598C148.4 137.598 148.6 137.598 148.4 137.798C148 138.098 148.3 138.098 148.3 138.198C148.3 138.298 148.3 138.398 148.5 138.398C148.5 138.398 148.2 138.698 148.2 138.798C148.2 138.798 148.2 138.798 148 138.898C147.9 138.898 147.7 139.098 147.5 139.198C147.1 139.398 146.7 139.698 146.5 139.798C146.5 139.798 146.3 139.798 146.3 139.898C145.9 140.098 145.2 140.398 145.2 140.398C145.2 140.298 145.2 140.198 145.1 140.098L144.8 140.298Z" fill="black"/>
<path d="M154.001 138.099C154.001 138.099 154.001 137.899 153.801 137.899C153.801 137.899 154.001 137.699 153.501 137.899C153.301 137.999 153.801 137.699 153.801 137.699C153.701 137.699 153.801 137.499 153.601 137.499C153.601 137.499 153.301 137.499 153.201 137.499C153.201 137.499 153.301 137.199 153.001 137.299C152.701 137.299 153.101 137.099 153.001 137.099C152.901 137.099 152.801 137.099 153.001 136.899C153.101 136.799 153.301 136.599 153.201 136.599C153.201 136.599 152.801 136.699 152.801 136.599C152.801 136.599 153.001 136.399 152.501 136.599C152.501 136.599 152.501 136.599 152.601 136.599C152.901 136.399 152.901 136.399 152.601 136.499C152.301 136.499 152.401 136.499 152.301 136.499C152.301 136.499 152.201 136.499 152.301 136.299C152.301 136.299 152.501 136.099 152.501 135.999C152.501 135.999 152.201 135.999 152.501 135.799C152.801 135.599 152.701 135.599 152.701 135.499C152.701 135.499 152.901 135.299 152.401 135.499C153.101 135.099 152.101 135.499 152.301 135.299C152.501 135.099 152.301 135.099 152.301 135.099C152.301 135.099 152.401 134.999 152.001 135.099C151.801 135.099 151.801 135.099 152.001 135.099C152.601 134.799 152.201 134.899 152.201 134.799C152.201 134.699 152.001 134.799 152.401 134.499C152.601 134.399 152.701 134.299 152.101 134.499H151.801C151.801 134.499 152.001 134.399 152.101 134.299C151.401 134.499 152.201 133.999 152.101 133.999C151.901 133.999 151.901 133.799 152.001 133.699C152.001 133.699 152.201 133.499 153.201 133.099C153.701 132.899 154.201 132.699 154.501 132.599C154.701 132.599 154.901 132.499 155.001 132.499C155.101 132.499 155.201 132.499 155.301 132.499C155.501 132.499 156.001 132.299 155.801 132.499C155.801 132.499 156.001 132.499 155.501 132.699C156.301 132.499 155.801 132.699 155.901 132.799C155.901 132.799 156.601 132.699 156.401 132.799C157.001 132.599 156.901 132.699 156.801 132.799C156.201 133.199 156.801 133.099 156.701 133.299C156.701 133.499 156.801 133.599 156.801 133.699C156.601 133.799 156.801 133.699 156.801 133.799C156.301 134.199 156.701 134.099 156.601 134.199C156.601 134.299 156.601 134.499 156.801 134.499C156.901 134.499 157.301 134.499 157.201 134.499C157.201 134.499 157.501 134.499 157.001 134.699C156.901 134.699 157.301 134.599 157.301 134.699C157.301 134.699 157.301 134.699 157.301 134.799C157.301 134.799 157.301 134.899 157.401 134.999C157.401 134.999 157.701 134.999 157.801 134.999C157.801 134.999 157.801 134.999 157.801 135.099C157.801 135.099 157.601 135.299 157.601 135.399C157.601 135.399 157.801 135.399 157.601 135.599C157.201 135.899 157.501 135.899 157.501 135.999C157.501 136.099 157.501 136.199 157.701 136.199C157.701 136.199 157.401 136.499 157.401 136.599C157.401 136.599 157.401 136.599 157.201 136.699C157.101 136.699 156.901 136.899 156.701 136.999C156.301 137.199 155.901 137.499 155.701 137.599C155.701 137.599 155.501 137.599 155.501 137.699C155.101 137.899 154.401 138.199 154.401 138.199C154.401 138.099 154.401 137.999 154.301 137.899L154.001 138.099Z" fill="black"/>
</svg>
