<svg width="300" height="300" viewBox="0 0 300 300" fill="none" xmlns="http://www.w3.org/2000/svg">
<path d="M182.7 139.501C182.1 138.801 181.5 138.201 180.8 137.501C180.6 137.301 180.5 136.801 179.9 137.001C179.6 137.001 179.9 136.401 179.6 136.201C179 135.601 178.5 135.001 177.9 134.401C177.3 133.801 176.6 133.401 176 132.801C175.4 132.301 175 131.401 174.3 131.101C173.6 130.801 173.6 130.001 173.1 129.601C172.5 129.201 172 128.701 171.7 128.101C171.5 127.601 171.3 127.101 170.9 126.801C170.6 126.601 170.2 126.601 170 126.401C169.8 126.201 169.8 125.701 169.1 126.001C169.1 126.001 169.1 125.801 169.1 125.701C169.1 125.201 168.9 124.901 168.5 124.901C168.1 124.901 168 124.701 167.8 124.501C167.3 124.001 166.8 123.501 166.4 123.001C166.1 122.601 165.9 122.101 165.6 121.601C165.3 121.201 164.7 120.901 164.6 120.401C164.5 119.801 164.1 119.501 163.8 119.101C163.6 118.901 163.6 118.501 163 118.701C163 118.701 162.9 118.701 162.9 118.601C162.9 117.501 161.7 117.701 161.3 117.101C160.9 116.501 160.2 116.101 159.7 115.801C159.7 115.801 159.6 115.701 159.5 115.601C159.5 115.601 159.5 115.601 159.4 115.601L159.7 115.001V115.101C159.7 115.201 159.6 115.401 159.5 115.501C159.5 115.501 159.5 115.701 159.4 115.801C159.4 115.101 158.6 115.401 158.1 115.201C157.5 115.001 156.8 115.201 156.1 114.701C155.8 114.501 155.4 114.301 155 114.901C154.8 115.201 154.5 114.901 154.2 114.901C154 114.901 153.8 115.201 153.6 115.201C153.4 115.201 153.2 115.001 153.1 114.801C153.1 114.801 153 114.801 152.9 114.801C151.8 115.401 150.8 114.501 149.8 114.801C148.7 115.001 147.7 114.801 146.6 114.801C146 114.801 145.4 114.601 145 113.401C144.8 112.901 144.9 112.301 145.1 112.001C145.3 111.801 145.5 111.501 145.7 111.501C146 111.401 146.4 111.301 146.7 111.201C147.4 111.001 148.1 110.501 148.8 110.801C149 110.801 149.3 110.601 149.5 111.101C149.5 111.101 149.6 111.201 149.7 111.101C150.7 110.301 151.7 110.801 152.6 110.801C153.4 110.801 154.3 110.201 155.1 110.501C155.6 109.901 156.2 110.001 156.6 110.301C157.4 110.701 158.3 110.801 159.2 110.901C159.7 110.901 160.1 111.001 160.7 111.101C160.9 111.101 161.3 111.201 161.6 111.401C162 111.501 162.1 111.701 162.4 111.801C164.1 112.901 165.5 114.101 166.7 115.401C166.9 115.601 167.3 115.601 167.4 116.001C167.4 116.401 167.8 116.601 168.1 116.801C168.3 117.001 168.7 117.201 168.8 117.501C169.2 118.901 170.4 119.601 171.2 120.601C172 121.601 172.9 122.601 173.9 123.401C174.5 123.901 175.3 124.201 175.7 124.901C175.9 125.201 176.4 125.201 176.2 125.901C176.2 126.101 176.7 126.001 176.9 126.101C177.3 126.501 177.6 126.901 178 127.301C178.5 127.801 179 128.401 179.5 128.901C179.8 129.201 180.3 129.401 180.7 129.701C181.1 130.001 181.4 130.401 181.7 130.801C182.1 131.301 182.3 131.901 182.7 132.401C183.1 132.901 183.7 133.201 183.9 133.801C184.3 135.001 185.2 135.601 186 136.501C186.7 137.401 187.4 138.201 188.3 138.901C188.8 139.301 188.8 140.101 189.2 140.501C189.4 140.701 188.6 142.001 188.1 142.301C188.1 142.301 187.9 142.301 187.8 142.301C187 142.201 186.1 142.301 185.7 141.701C185.1 140.901 184.3 140.201 183.6 139.501H182.7Z" fill="black"/>
<path d="M116.8 164.6C116.8 165 116.8 165.4 117 165.8C117 165.9 116.8 166.1 117.4 166.2C117.7 166.2 117.1 166.5 117.1 166.6C117.2 167 117.1 167.4 117.3 167.7C117.4 168.1 117.7 168.4 117.8 168.8C117.9 169.2 117.7 169.6 118.1 169.9C118.4 170.2 118 170.5 118.1 170.8C118.3 171.1 118.4 171.4 118.2 171.7C118.1 172 117.9 172.2 118 172.4C118 172.5 118.4 172.6 118.4 172.8C118.4 172.9 118.2 173.1 118.8 173.2C118.8 173.2 118.8 173.2 118.7 173.3C118.3 173.5 118.4 173.7 118.7 173.8C119 173.8 119 174 119 174.1C119 174.4 119.2 174.7 119.2 175C119.2 175.2 119 175.5 119 175.8C119 176.1 119.3 176.3 119 176.5C118.7 176.8 118.8 177 118.8 177.2C118.8 177.3 118.6 177.5 119.2 177.5C118.5 178 119.6 178.2 119.5 178.6C119.4 179 119.5 179.4 119.7 179.8C119.7 179.9 119.6 180 120 180.1C120.2 180.1 120.2 180.2 120 180.3C119.4 180.7 119.9 180.9 119.8 181.2C119.8 181.6 120.1 181.8 119.7 182.3C119.5 182.5 119.4 182.7 120.1 182.8C120.4 182.8 120.1 183 120.2 183.2C120.2 183.2 120.6 183.3 120.6 183.4C120.6 183.4 120.4 183.6 120.3 183.7C121 184.1 120.3 184.7 120.5 185.2C120.8 185.7 120.8 186.2 120.8 186.7C120.8 187 120.7 187.3 119.6 187.7C119.1 187.9 118.6 188 118.2 187.9C117.9 187.9 117.7 187.9 117.6 187.7C117.5 187.6 117.3 187.4 117.2 187.3C116.9 187 116.4 186.8 116.6 186.4C116.6 186.3 116.3 186.2 116.8 186C115.9 185.7 116.4 185.2 116.2 184.7C116.1 184.3 115.4 184.1 115.6 183.7C114.9 183.7 115 183.3 115.1 183.1C115.6 182.2 115.1 181.6 115 180.8C115 180 114.7 179.3 114.6 178.5C114.6 178.4 114.2 178.3 114.5 178.1C114.7 177.9 114.5 177.8 114.5 177.6C114.5 177.4 114.3 177.3 114.5 177.1C115 176.4 114.5 175.9 114.5 175.3C114.5 174.7 114.5 174.1 114.2 173.5C114 173.2 113.6 172.9 113.7 172.5C113.7 172.3 113.4 172.2 113.9 172C114.1 172 113.6 171.9 113.5 171.8C113.5 171.6 113.4 171.3 113.4 171.1C113.4 170.8 113.4 170.4 113.2 170.1C113.2 169.9 112.9 169.7 112.8 169.5C112.8 169.3 112.7 169.1 112.7 168.8C112.7 168.5 112.9 168.2 112.9 167.9C112.9 167.6 112.6 167.3 112.9 167C113.3 166.4 112.9 165.9 112.9 165.4C112.9 164.9 112.9 164.4 112.6 163.9C112.5 163.6 112.9 163.3 112.9 163C112.9 162.9 114.3 162.5 114.8 162.5H115C115.5 162.7 116.3 162.9 116.3 163.2C116.3 163.7 116.4 164.1 116.5 164.6H116.8Z" fill="black"/>
<path d="M166.101 147.302C166.501 147.102 166.801 147.002 167.201 146.702C167.301 146.702 167.601 146.702 167.501 146.202C167.501 145.902 167.901 146.402 168.001 146.402C168.301 146.202 168.701 146.102 169.001 145.902C169.301 145.702 169.501 145.302 169.801 145.102C170.101 144.902 170.601 145.102 170.801 144.602C171.001 144.202 171.401 144.602 171.601 144.302C171.801 144.102 172.101 143.902 172.501 144.002C172.801 144.002 173.101 144.202 173.201 144.002C173.201 143.902 173.201 143.502 173.401 143.502C173.501 143.502 173.801 143.702 173.701 143.002C173.701 143.002 173.701 143.002 173.901 143.002C174.201 143.302 174.401 143.202 174.401 143.002C174.401 142.702 174.501 142.702 174.601 142.602C174.901 142.502 175.201 142.302 175.501 142.302C175.701 142.302 176.001 142.302 176.301 142.302C176.501 142.302 176.701 141.902 177.001 142.102C177.301 142.302 177.501 142.202 177.701 142.102C177.801 142.102 178.101 142.302 177.901 141.602C178.501 142.302 178.501 141.102 178.901 141.202C179.301 141.202 179.601 141.002 180.001 140.902C180.001 140.902 180.301 141.002 180.201 140.502C180.201 140.302 180.201 140.302 180.401 140.402C180.901 140.902 181.001 140.402 181.301 140.402C181.601 140.402 181.901 140.002 182.301 140.402C182.501 140.602 182.701 140.602 182.701 140.002C182.701 139.702 182.901 140.002 183.001 139.802C183.001 139.802 183.001 139.402 183.201 139.402C183.201 139.402 183.401 139.602 183.501 139.702C183.801 138.902 184.501 139.702 184.901 139.302C185.301 139.002 185.801 138.902 186.301 138.902C186.601 138.902 186.901 138.902 187.401 140.002C187.601 140.502 187.801 141.002 187.701 141.402C187.701 141.702 187.701 141.902 187.601 142.002C187.501 142.102 187.401 142.302 187.301 142.402C187.101 142.702 186.901 143.302 186.601 143.102C186.501 143.102 186.501 143.402 186.201 142.902C186.001 143.802 185.501 143.402 185.101 143.602C184.801 143.802 184.601 144.502 184.201 144.302C184.201 145.002 184.001 144.902 183.701 144.802C182.801 144.402 182.301 145.002 181.601 145.202C180.901 145.302 180.301 145.702 179.601 145.902C179.501 145.902 179.601 146.302 179.301 146.102C179.101 145.902 179.001 146.102 178.801 146.202C178.701 146.202 178.601 146.402 178.401 146.302C177.601 145.902 177.301 146.502 176.701 146.602C176.201 146.702 175.601 146.902 175.201 147.302C174.901 147.502 174.801 148.002 174.401 148.002C174.201 148.002 174.201 148.402 173.901 147.902C173.801 147.802 173.901 148.202 173.801 148.302C173.601 148.402 173.401 148.502 173.201 148.602C172.901 148.702 172.601 148.802 172.301 149.002C172.101 149.102 172.101 149.402 171.901 149.602C171.701 149.702 171.601 149.802 171.301 149.902C171.001 149.902 170.701 149.902 170.401 149.902C170.101 149.902 170.001 150.302 169.601 150.202C168.901 150.002 168.601 150.402 168.201 150.602C167.701 150.802 167.301 150.902 166.901 151.302C166.701 151.502 166.201 151.202 166.001 151.302C165.901 151.302 165.101 150.102 164.901 149.702V149.502C164.901 149.002 164.801 148.202 165.101 148.102C165.501 148.002 165.901 147.702 166.301 147.502L166.101 147.302Z" fill="black"/>
<path d="M146.699 141.101C146.699 140.901 146.699 140.701 146.699 140.601C146.699 140.601 146.899 140.501 146.399 140.401C146.099 140.401 146.799 140.301 146.699 140.201C146.699 140.001 146.699 139.901 146.699 139.701C146.699 139.501 146.399 139.401 146.399 139.201C146.399 139.001 146.699 138.901 146.399 138.701C146.099 138.501 146.599 138.501 146.499 138.301C146.399 138.201 146.299 138.001 146.499 137.901C146.699 137.901 146.899 137.701 146.799 137.601C146.799 137.601 146.399 137.401 146.499 137.401C146.499 137.401 146.799 137.401 146.199 137.201C146.199 137.201 146.199 137.201 146.399 137.201C146.799 137.201 146.799 137.201 146.499 137.001C146.199 137.001 146.299 136.901 146.299 136.801C146.299 136.701 146.299 136.501 146.299 136.401C146.299 136.401 146.599 136.201 146.699 136.201C146.699 136.201 146.499 135.901 146.799 135.901C147.099 135.901 147.099 135.801 147.099 135.701C147.099 135.701 147.399 135.701 146.799 135.501C147.599 135.501 146.599 135.101 146.799 135.001C146.999 134.901 146.899 134.701 146.999 134.501C146.999 134.501 147.199 134.501 146.799 134.301C146.599 134.201 146.599 134.301 146.799 134.301C147.399 134.301 147.099 134.101 147.199 134.001C147.399 133.901 147.199 133.701 147.599 133.701C147.799 133.701 147.899 133.701 147.399 133.401C147.199 133.301 147.399 133.401 147.399 133.201L147.099 133.001C147.099 133.001 147.299 133.001 147.499 133.001C146.899 132.601 147.899 132.701 147.799 132.401C147.799 132.101 147.799 132.001 147.999 131.801C147.999 131.801 148.299 131.701 149.399 132.001C149.899 132.201 150.399 132.401 150.699 132.601C150.899 132.701 151.099 132.801 151.099 132.901C151.099 132.901 151.299 133.101 151.299 133.201C151.399 133.401 151.899 133.701 151.599 133.701C151.599 133.701 151.799 133.901 151.299 133.701C151.999 134.101 151.399 134.101 151.399 134.301C151.399 134.401 151.999 134.801 151.699 134.801C152.299 135.101 152.099 135.101 151.899 135.101C151.199 135.101 151.499 135.501 151.399 135.801C151.199 136.001 151.299 136.301 151.199 136.601C151.199 136.601 151.499 136.801 151.199 136.801C150.899 136.801 151.199 136.901 151.199 137.001C151.199 137.001 151.299 137.101 151.199 137.201C150.499 137.201 150.899 137.601 150.799 137.801C150.799 138.001 150.599 138.201 150.799 138.401C150.799 138.501 151.199 138.701 151.099 138.801C151.099 138.801 151.399 138.901 150.799 138.901C150.599 138.901 151.099 138.901 151.099 139.001C151.099 139.001 151.099 139.201 151.099 139.301C151.099 139.401 151.099 139.501 151.099 139.701L151.399 139.901V140.101C151.399 140.101 151.099 140.301 150.999 140.401C150.999 140.501 151.199 140.601 150.999 140.701C150.499 140.901 150.699 141.101 150.699 141.301C150.699 141.501 150.699 141.701 150.699 141.801C150.699 141.801 150.299 142.001 150.299 142.101C150.299 142.101 148.799 142.301 148.299 142.401H148.099C147.599 142.401 146.899 142.301 146.899 142.101C146.899 141.901 146.899 141.701 146.899 141.501L146.699 141.101Z" fill="black"/>
<path d="M157.1 141.902C157.1 141.702 157.1 141.502 157.1 141.402C157.1 141.402 157.3 141.302 156.8 141.202C156.5 141.202 157.2 141.102 157.1 141.002C157.1 140.802 157.1 140.702 157.1 140.502C157.1 140.302 156.8 140.202 156.8 140.002C156.8 139.802 157.1 139.702 156.8 139.502C156.5 139.302 157 139.302 156.9 139.102C156.8 139.002 156.7 138.802 156.9 138.702C157.1 138.702 157.3 138.502 157.2 138.402C157.2 138.402 156.8 138.202 156.9 138.202C156.9 138.202 157.2 138.202 156.6 138.002C156.6 138.002 156.6 138.002 156.8 138.002C157.2 138.002 157.2 138.002 156.9 137.802C156.6 137.802 156.7 137.702 156.7 137.602C156.7 137.502 156.7 137.302 156.7 137.202C156.7 137.202 157 137.002 157.1 137.002C157.1 137.002 156.9 136.702 157.2 136.702C157.5 136.702 157.5 136.602 157.5 136.502C157.5 136.502 157.8 136.502 157.2 136.302C158 136.302 157 135.902 157.2 135.802C157.4 135.702 157.3 135.502 157.4 135.302C157.4 135.302 157.6 135.302 157.2 135.102C157 135.002 157 135.102 157.2 135.102C157.8 135.102 157.5 134.902 157.6 134.802C157.8 134.702 157.6 134.502 158 134.502C158.2 134.502 158.3 134.502 157.8 134.202C157.6 134.102 157.8 134.202 157.8 134.002L157.5 133.802C157.5 133.802 157.7 133.802 157.9 133.802C157.3 133.402 158.3 133.502 158.2 133.202C158.2 132.902 158.2 132.802 158.4 132.602C158.4 132.602 158.7 132.502 159.8 132.802C160.3 133.002 160.8 133.202 161.1 133.402C161.3 133.502 161.5 133.602 161.5 133.702C161.5 133.702 161.7 133.902 161.7 134.002C161.8 134.202 162.3 134.502 162 134.502C162 134.502 162.2 134.702 161.7 134.502C162.4 134.902 161.8 134.902 161.8 135.102C161.8 135.202 162.4 135.602 162.1 135.602C162.7 135.902 162.5 135.902 162.3 135.902C161.6 135.902 161.9 136.302 161.8 136.602C161.6 136.802 161.7 137.102 161.6 137.402C161.6 137.402 161.9 137.602 161.6 137.602C161.3 137.602 161.6 137.702 161.6 137.802C161.6 137.802 161.7 137.902 161.6 138.002C160.9 138.002 161.3 138.402 161.2 138.602C161.2 138.802 161 139.002 161.2 139.202C161.2 139.302 161.6 139.502 161.5 139.602C161.5 139.602 161.8 139.702 161.2 139.702C161 139.702 161.5 139.702 161.5 139.802C161.5 139.802 161.5 140.002 161.5 140.102C161.5 140.202 161.5 140.302 161.5 140.502L161.8 140.702V140.902C161.8 140.902 161.5 141.102 161.4 141.202C161.4 141.302 161.6 141.402 161.4 141.502C160.9 141.702 161.1 141.902 161.1 142.102C161.1 142.302 161.1 142.502 161.1 142.602C161.1 142.602 160.7 142.802 160.7 142.902C160.7 142.902 159.2 143.102 158.7 143.202H158.5C158 143.202 157.3 143.102 157.3 142.902C157.3 142.702 157.3 142.502 157.3 142.302L157.1 141.902Z" fill="black"/>
<path d="M171.501 152.002C172.401 153.002 173.201 154.002 174.001 154.902C174.301 155.302 174.401 155.802 175.201 155.802C175.601 155.802 175.401 156.602 175.701 156.902C176.501 157.802 177.201 158.802 178.001 159.702C178.401 160.202 178.801 160.502 179.201 161.002C179.801 161.702 180.401 162.402 181.101 163.302C182.101 164.502 182.801 165.702 183.701 167.002C183.201 167.202 182.701 167.302 182.301 167.502C181.601 167.802 180.701 168.002 179.901 168.202C179.001 168.302 178.201 168.502 177.501 168.702C177.301 168.702 177.101 168.802 176.901 168.902H176.401C176.201 169.102 175.901 169.202 175.601 169.202C175.101 169.302 174.601 169.302 174.101 169.202C173.401 169.202 172.601 169.002 171.901 169.202C171.501 169.302 171.101 169.702 170.601 169.702C170.101 169.702 169.601 169.502 169.201 170.102C169.201 170.102 169.001 170.102 168.901 170.002C168.401 169.602 167.801 169.702 167.401 170.002C167.001 170.302 166.601 170.202 166.301 170.202C165.301 170.202 164.201 170.202 163.201 170.002C162.401 169.902 161.701 169.602 160.901 169.402C160.101 169.302 159.201 169.402 158.501 169.002C157.801 168.602 157.101 168.402 156.401 168.302C156.001 168.302 155.601 167.802 155.101 168.302C155.101 168.302 154.901 168.302 154.801 168.302C153.901 167.202 152.501 167.902 151.401 167.302C150.301 166.702 149.001 166.402 147.901 165.902C147.601 165.802 147.301 165.402 146.901 165.702C146.701 165.702 146.401 165.702 146.301 165.402C145.801 164.402 144.701 164.202 143.901 163.602C143.001 162.902 142.001 162.402 141.401 161.302C141.201 160.802 140.801 160.302 140.001 160.302C139.601 160.302 139.401 159.702 139.101 159.402C138.801 159.202 138.401 159.102 138.201 158.802C138.001 158.602 138.001 158.202 137.901 157.902C137.901 157.902 137.901 157.702 137.701 157.702C137.001 157.202 136.501 156.402 136.301 155.602L135.901 154.402C135.801 154.002 135.701 153.602 135.501 153.202C134.701 151.702 134.401 149.902 134.301 148.202C134.301 147.302 134.401 146.302 135.501 145.702C136.001 145.402 136.601 145.402 136.901 145.702C137.201 146.002 137.401 146.202 137.501 146.502C137.601 147.002 137.701 147.402 137.901 147.802C138.101 148.202 138.301 148.702 138.501 149.102C138.701 149.502 138.901 149.902 138.901 150.402C138.901 150.702 139.201 150.902 138.901 151.302V151.502C139.501 151.902 139.701 152.502 140.001 153.002C140.101 153.302 140.201 153.602 140.301 153.902C140.401 154.202 140.601 154.502 140.801 154.702C141.101 155.102 141.501 155.502 141.901 155.802C142.301 156.102 142.701 156.402 143.001 156.902C143.801 156.902 144.201 157.402 144.501 157.902C145.601 159.802 147.701 160.602 149.601 161.602C151.501 162.602 153.601 163.302 155.801 163.902C156.201 163.902 156.601 163.702 156.901 164.102C157.201 164.502 157.801 164.402 158.301 164.502C158.701 164.502 159.201 164.502 159.601 164.802C161.201 165.802 163.101 165.602 164.801 165.702C166.501 165.902 168.301 165.902 170.101 165.702C171.201 165.502 172.201 165.102 173.201 165.102C173.701 165.102 174.101 164.702 174.601 165.102C174.801 165.202 175.101 164.702 175.401 164.602H175.801C175.801 164.502 176.001 164.502 176.001 164.502C176.101 164.502 176.301 164.502 176.401 164.502C176.401 164.502 176.401 164.402 176.201 164.302C176.101 164.202 175.701 164.102 175.601 164.102C175.601 164.102 175.501 164.102 175.401 163.902L175.201 163.702L174.901 163.302C174.401 162.602 174.101 161.802 173.601 161.102C173.101 160.402 172.301 159.802 172.001 159.002C171.401 157.502 170.201 156.402 169.201 155.202C168.201 154.002 167.201 152.802 166.101 151.702C165.501 151.102 165.301 150.202 164.701 149.502C164.401 149.202 165.101 147.802 165.601 147.602C165.601 147.602 165.801 147.602 165.901 147.602C166.801 147.902 167.901 148.002 168.501 148.702C169.401 149.802 170.501 150.902 171.401 152.002H171.501Z" fill="black"/>
<path d="M160 187.002L160.5 186.002C160.5 185.802 160.6 185.702 160.7 185.502C160.7 185.502 161.1 185.002 160.4 185.502C160 185.702 161 185.002 161 184.902V184.802H160.8C160.6 184.902 160.5 185.002 160.3 185.002C160.1 185.002 160 185.202 159.8 185.302H159.6C159.3 185.302 159 185.402 158.7 185.402C157.5 185.502 156.4 185.202 155.3 185.402C154.3 185.602 153.6 184.902 152.7 184.802C151.7 184.702 150.8 184.502 150 183.902C149.4 183.502 148.9 183.002 148.3 182.902C147.9 182.802 147.4 182.902 147 182.702C146.6 182.502 146.4 182.002 145.7 182.402C145.7 182.402 145.5 182.202 145.5 182.102C145.3 181.502 144.9 181.202 144.4 181.302C143.9 181.302 143.7 181.102 143.4 180.902C142.6 180.402 141.9 179.802 141.2 179.202C140.7 178.702 140.3 178.102 139.9 177.502C139.4 177.002 138.7 176.602 138.5 175.902C138.3 175.202 137.8 174.802 137.4 174.302C137.2 174.002 137.1 173.502 136.4 173.702C136.4 173.702 136.3 173.702 136.3 173.502C136.3 172.202 134.8 172.002 134.3 170.902C133.9 169.802 133.1 168.802 132.7 167.702C132.6 167.402 132.7 167.002 132.1 166.902C131.9 166.902 131.8 166.502 131.9 166.302C132.1 165.802 132 165.302 131.9 164.902C131.8 164.502 131.6 164.002 131.6 163.602C131.6 163.102 131.5 162.602 131.5 162.102C131.5 161.602 131.5 161.102 131.7 160.602C131.9 160.202 132 159.602 131.5 159.102C131.2 158.902 131.5 158.402 131.5 158.002C131.5 157.702 131.2 157.402 131.3 157.102C131.3 156.802 131.6 156.602 131.7 156.402V156.202C131.3 154.702 132.4 153.502 132.6 152.102C132.8 150.702 133.2 149.402 133.8 148.102C134.1 147.402 134.5 146.702 135.7 146.602C136.3 146.602 136.8 146.702 137 147.102C137.2 147.402 137.3 147.702 137.3 148.002C137.3 148.402 137.3 148.902 137.3 149.302C137.3 150.202 137.5 151.102 137 151.902C136.8 152.102 137 152.502 136.5 152.602C136.5 152.602 136.4 152.702 136.4 152.802C136.9 154.102 136.1 155.102 136 156.302C135.9 157.302 136.4 158.302 136 159.202C136.6 159.802 136.5 160.302 136.3 160.802C135.6 162.602 136.3 164.402 136.9 166.002C137.4 167.702 138.5 169.202 139.7 170.702C139.9 171.002 140.4 171.002 140.4 171.402C140.4 171.902 140.9 172.102 141.2 172.402C141.5 172.702 141.8 172.902 142 173.302C142.6 174.902 144 175.702 145.2 176.702C146.3 177.702 147.6 178.602 149 179.202C149.9 179.502 150.8 179.602 151.6 180.002C151.9 180.202 152.4 180.002 152.6 180.702C152.6 180.902 153.1 180.602 153.4 180.702C154 180.802 154.6 181.002 155.2 181.102C156 181.202 156.9 181.402 157.7 181.302C158.2 181.302 158.7 181.002 159.2 180.902C159.3 180.902 159.5 180.902 159.6 180.902H159.7H159.8L160.2 180.802L161.1 180.602C161.4 180.602 161.7 180.602 162 180.402C162.8 180.202 163.6 180.002 164.4 179.702C165.2 179.502 165.9 179.302 166.7 179.002C167 178.902 167.4 178.802 167.7 178.602V179.102V179.402V179.802C167.4 180.302 167.3 180.902 167 181.502C166.3 182.902 165.9 183.902 165.6 185.002C165.2 186.002 164.8 187.202 164.3 188.202C163.6 189.502 162.9 190.802 162.2 192.102C161.8 192.802 161 193.202 160.5 193.802C160.3 194.102 158.8 193.602 158.5 193.202C158.5 193.202 158.4 193.002 158.4 192.902C158.4 192.002 158.2 191.102 158.7 190.402C159.4 189.402 160 188.302 160.5 187.302L160 187.002Z" fill="black"/>
<path d="M119.099 161.599C118.199 161.799 117.299 161.899 116.499 162.099C116.199 162.099 115.799 161.899 115.499 162.499C115.299 162.799 114.999 162.199 114.699 162.199C113.899 162.299 113.099 162.199 112.299 162.299C111.499 162.299 110.699 162.599 109.899 162.599C109.099 162.599 108.299 162.299 107.499 162.499C106.799 162.699 106.199 162.099 105.599 162.099C104.899 162.099 104.099 161.999 103.499 161.599C103.099 161.299 102.699 160.899 102.199 160.799C101.899 160.799 101.499 160.899 101.199 160.799C100.899 160.599 100.699 160.199 100.099 160.599C100.099 160.599 99.9993 160.499 99.8993 160.399C99.7993 159.899 99.3993 159.699 98.9993 159.699C98.5993 159.699 98.3993 159.599 98.1993 159.399C97.4993 158.899 96.6993 158.299 96.1993 157.199C95.7993 156.299 95.7993 155.399 95.8993 154.499C95.8993 153.599 95.9993 152.699 96.5993 152.199C97.1993 151.699 97.3993 151.299 97.7993 150.799C97.9993 150.499 98.3993 150.499 98.0993 149.899C98.0993 149.899 98.0993 149.799 98.1993 149.799C98.7993 149.799 98.9993 149.399 99.1993 149.099C99.3993 148.699 99.5993 148.299 99.9993 148.099C100.799 147.699 101.499 147.099 102.199 146.599C102.399 146.499 102.699 146.599 102.699 145.999C102.699 145.799 102.899 145.699 103.099 145.699C103.999 145.999 104.399 145.299 105.099 145.199C105.799 144.999 106.499 144.499 107.399 144.799C107.799 144.899 108.199 144.899 108.499 144.299C108.599 143.999 108.999 144.299 109.299 144.099C109.499 144.099 109.699 143.699 109.899 143.699C110.099 143.699 110.299 143.899 110.499 143.999C110.499 143.999 110.599 143.999 110.699 143.999C111.799 143.299 112.899 144.199 113.999 144.099C115.199 144.099 116.299 144.399 117.399 144.799C117.699 144.899 118.099 145.199 118.399 145.499C118.699 145.899 118.799 146.399 118.599 146.999C118.399 147.499 117.899 147.899 117.599 147.999C117.299 147.999 117.099 148.199 116.999 148.199C116.799 148.199 116.499 148.199 116.299 148.199C115.699 148.199 114.999 148.599 114.499 148.199C114.299 148.099 114.099 148.299 113.999 147.799C113.999 147.799 113.999 147.699 113.899 147.799C112.999 148.499 112.299 147.899 111.499 147.999C110.799 147.999 110.299 148.799 109.599 148.599C109.299 149.299 108.899 149.299 108.499 149.199C107.099 148.899 105.899 149.799 104.799 150.399C103.599 150.999 102.599 151.899 101.699 152.799C101.499 152.999 101.699 153.299 101.299 153.299C100.999 153.299 100.999 153.699 100.799 153.799C100.699 153.999 100.799 154.199 100.499 154.299C100.099 154.499 99.9993 154.699 99.9993 154.899C99.9993 155.099 100.199 155.199 100.399 155.499C100.599 155.799 100.999 156.099 101.399 156.399C101.799 156.699 102.299 156.899 102.799 157.099C103.399 157.299 104.099 157.099 104.699 157.499C104.899 157.599 105.299 157.399 105.399 157.999C105.399 158.199 105.799 157.799 105.999 157.799C106.399 157.799 106.899 157.999 107.299 157.999C107.899 157.999 108.599 158.199 109.199 158.199C109.599 158.199 109.999 157.999 110.399 157.899C110.799 157.899 111.199 157.899 111.699 157.899C112.199 157.899 112.799 158.199 113.299 158.199C113.899 158.199 114.399 157.899 114.899 158.199C115.899 158.599 116.799 158.199 117.799 158.199C118.699 158.099 119.699 157.899 120.499 157.399C120.999 157.199 121.599 157.399 122.099 157.199C122.299 157.099 123.299 158.299 123.399 158.699C123.399 158.699 123.399 158.899 123.399 158.999C123.099 159.699 122.899 160.599 122.199 160.799C121.199 161.099 120.199 161.499 119.199 161.699L119.099 161.599Z" fill="black"/>
<path d="M191.9 187.9C192.6 186.1 193.7 184.8 194.9 183.8C196.2 182.7 197.5 182 198.6 181.2C199.5 180.7 200.5 180.3 200.9 179.3C201.1 178.8 202.1 178.8 202.6 178.1C203.8 176.4 204.5 174.2 204.2 172C203.9 169.9 202.7 168.3 201.1 166.9C199.5 165.5 197.5 164.1 195.2 163.5C195.1 163.5 194.9 163.5 194.8 163.3C194.6 163.3 194.4 163.1 194.1 163C193.7 162.8 193.3 162.5 193 162.1C192.3 161.4 192 160.5 191.9 159.6C191.9 159.1 191.9 158.7 191.9 158.2C191.9 157.7 192.1 157.5 192.1 157.2C192.2 156.6 192.4 156.1 192.5 155.5C193.1 153.1 194.2 150.9 195.5 149.2C196.5 147.9 197.5 146.8 198.2 145.5C198.6 144.7 198.8 143.8 199.3 143C199.7 142.2 200.4 141.4 200.1 140.5C200.1 140.5 200.3 140.1 200.5 140C201.2 139.3 201.4 138.2 201.2 137.5C201 136.8 201.1 136.2 201 135.6C200.9 133.9 200.3 132.2 199.5 130.7C198.9 129.6 198.2 128.5 197.1 127.6C196 126.6 194.4 126.1 193.2 125.1C192 124.1 190.6 123.5 189.2 122.8C188.4 122.4 187.6 121.6 186.6 121.7C186.6 121.7 186.2 121.5 186 121.3C185.5 120.7 184.9 120 184.4 119.2C183.9 118.4 183.6 117.5 183.4 116.7C183 115.1 183 113.7 183.1 112.7C183.3 110.3 182.9 107.9 182.2 105.7C182 105.1 181.9 104.4 181.3 104.1C181.1 104 180.8 103.4 180.7 103.1C180.6 102.2 180.2 101.5 179.6 100.8C179.1 100.1 178.4 99.6001 177.8 99.0001C176.3 97.6001 174.4 96.9001 172.6 95.8001C171.8 95.3001 170.7 94.8001 169.5 95.3001C169 95.5001 168 95.1001 167.3 95.1001C166.7 95.1001 166.1 95.4001 165.5 95.4001C165 95.4001 164.5 95.2001 163.9 95.1001C163.7 95.1001 163.5 95.1001 163.4 95.1001C162 95.6001 160.6 95.9001 159.1 96.3001C157.7 96.7001 156.3 97.2001 155.1 98.1001C152.7 99.9001 150.5 102.1 148.9 104.7C148 106.1 147.2 107.6 145.8 108.4C145.1 108.8 144.6 108.7 144.5 107.8C144.5 107.2 144.5 106.4 144.7 105.8C145.1 104.7 145.4 103.7 145.9 102.7C146.9 100.7 148 98.5001 150 97.1001C150.6 96.7001 151.1 95.9001 151.9 95.9001C152 95.9001 152.3 95.7001 152.4 95.6001C153.4 94.4001 154.9 93.5001 156.4 92.8001C157.9 92.2001 159.6 91.8001 161.1 91.4001C162.5 91.1001 163.8 90.8001 165.2 90.6001C166.6 90.4001 168 90.4001 169.4 90.8001C171 90.4001 172.9 91.0001 174.3 91.7001C176.8 93.0001 179.2 94.4001 181.4 96.4001C183.5 98.4001 185.2 100.9 186.1 103.6C187 106.3 187.4 109.1 187.5 111.9C187.5 112.6 187.5 113.3 187.5 114C187.5 114.7 187.5 115.2 187.5 115.7C187.5 116.2 187.6 116.6 187.7 116.8C187.8 117 188 117.3 188.3 117.5C188.7 117.9 189.5 117.9 190.2 118.6C190.9 119.3 192 119.6 193.1 120.1C194 120.5 195.1 120.9 195.9 121.5C197.6 122.8 199.5 124 201.1 125.6C202.7 127.2 204 129.2 204.7 131.4C205.4 133.6 205.6 135.9 205.2 138.2C204.8 140.5 204 142.5 203.1 144.5C202 146.8 200.8 149.1 199.5 151C198.9 151.8 198.7 152.9 197.7 153.5C197.4 153.7 197.4 154.7 197.2 155.2C196.9 155.9 196.7 156.6 196.5 157.3L196.3 158.3V158.5C196.3 158.6 196.3 158.7 196.5 158.7C196.5 158.7 196.5 158.7 196.8 158.9L197.6 159.3C198.7 159.8 199.9 160.4 201 161C202.4 161.8 203.8 162.6 205 163.8C206.3 165.1 207.3 166.7 207.9 168.5C208.6 170.8 208.4 173.2 207.9 175.4C207.6 176.5 207.2 177.7 206.6 178.8C206 179.9 205.2 180.9 204.3 181.5C202.6 182.7 200.9 183.6 199.5 184.4C198 185.3 196.9 186.2 196 187.3C195.1 188.4 194.8 189.5 195.1 190.6C195.4 191.7 196.5 192.9 197.6 194.3C197.8 194.5 197.9 194.7 198.1 195C198.2 195.2 198.4 195.5 198.5 195.8C198.7 196.4 198.9 196.9 199 197.5C199.2 198.7 199.2 199.9 198.7 201.2C198.5 201.8 197.6 202.3 197 202.2C196.3 202.2 196 201.7 196 201.4C196 201.3 196 201.1 196 201.1C196.4 200.5 196.2 199.9 196 199.2C195.8 198.6 195.4 197.9 195.1 197.3C195 197.1 194.8 196.8 194.6 196.5C194.4 196.2 194.2 195.9 193.9 195.6C193.4 195 192.9 194.3 192.4 193.5C191.9 192.7 191.5 191.7 191.3 190.6C191.1 189.5 191.3 188.3 191.7 187.4L191.9 187.9Z" fill="black"/>
<path d="M173.999 202.101C173.599 202.101 173.299 202.101 172.899 202.001C172.799 202.001 172.699 201.701 172.399 202.201C172.299 202.501 172.299 201.801 172.099 201.801C171.799 201.801 171.399 201.701 171.099 201.601C170.799 201.601 170.399 201.701 170.099 201.701C169.799 201.701 169.499 201.301 169.099 201.501C168.799 201.701 168.699 201.101 168.399 201.201C168.099 201.201 167.799 201.201 167.599 200.901C167.499 200.701 167.399 200.401 167.199 200.401C167.099 200.401 166.799 200.701 166.699 200.601C166.599 200.601 166.599 200.201 166.199 200.801C166.199 200.801 166.199 200.801 166.199 200.601C166.199 200.201 166.099 200.101 165.899 200.301C165.699 200.501 165.599 200.401 165.499 200.301C165.199 200.301 164.999 200.101 164.699 199.901C164.499 199.801 164.499 199.401 164.299 199.301C164.099 199.101 163.799 199.301 163.799 198.901C163.799 198.501 163.599 198.401 163.399 198.301C163.399 198.301 163.399 197.901 162.899 198.401C163.099 197.501 162.199 198.301 162.099 197.901C161.899 197.501 161.599 197.501 161.299 197.301C161.299 197.301 161.299 197.001 160.899 197.301C160.799 197.401 160.699 197.301 160.699 197.301C160.899 196.601 160.399 196.801 160.299 196.501C160.199 196.201 159.699 196.201 159.799 195.701C159.799 195.501 159.799 195.301 159.299 195.701C159.099 195.801 159.099 195.501 158.999 195.501C158.999 195.501 158.699 195.601 158.599 195.501C158.599 195.501 158.599 195.201 158.599 195.101C157.799 195.301 158.199 194.301 157.699 194.101C157.299 193.901 156.999 193.501 156.799 193.101C156.699 192.901 156.699 192.601 157.499 191.801C157.899 191.401 158.299 191.101 158.599 191.001C158.799 191.001 159.099 190.801 159.199 190.801C159.399 190.801 159.499 190.801 159.699 190.801C159.999 190.801 160.499 190.801 160.499 191.101C160.499 191.201 160.799 191.101 160.499 191.501C161.299 191.201 161.099 191.801 161.399 192.001C161.599 192.201 162.299 191.901 162.299 192.301C162.799 191.901 162.899 192.101 162.899 192.301C162.899 193.201 163.599 193.201 163.899 193.601C164.299 194.001 164.799 194.201 165.199 194.601C165.199 194.601 165.499 194.401 165.499 194.601C165.499 194.901 165.699 194.801 165.799 194.801C165.799 194.801 166.099 194.801 166.099 195.001C166.099 195.801 166.699 195.701 167.099 195.901C167.499 196.101 167.799 196.401 168.299 196.401C168.599 196.401 168.999 196.201 169.199 196.401C169.199 196.401 169.499 196.201 169.399 196.801C169.399 197.001 169.599 196.601 169.699 196.601C169.899 196.601 169.999 196.601 170.199 196.801C170.399 196.801 170.699 197.001 170.899 197.001C171.099 197.001 171.299 196.801 171.399 196.801C171.599 196.801 171.699 196.801 171.899 196.901C172.099 197.001 172.199 197.301 172.399 197.401C172.599 197.501 172.899 197.301 172.999 197.601C173.299 198.201 173.699 198.001 174.099 198.101C174.499 198.101 174.799 198.301 175.199 198.101C175.399 198.101 175.599 198.501 175.799 198.601C175.799 198.601 175.999 200.101 175.999 200.601V200.801C175.799 201.301 175.499 202.001 175.199 201.901C174.799 201.901 174.399 201.901 173.999 201.801V202.101Z" fill="black"/>
<path d="M181.401 183.699C181.201 183.899 181.001 184.099 180.901 184.399C180.901 184.399 180.601 184.399 180.901 184.799C181.101 184.999 180.501 184.799 180.501 184.799C180.501 185.099 180.201 185.299 180.101 185.499C180.101 185.799 180.101 186.099 180.101 186.399C180.101 186.699 179.701 186.799 179.901 187.199C180.101 187.499 179.501 187.499 179.601 187.799C179.601 188.099 179.601 188.299 179.301 188.399C179.101 188.499 178.801 188.599 178.901 188.799C178.901 188.899 179.201 189.099 179.201 189.199C179.201 189.199 178.901 189.299 179.401 189.599C179.401 189.599 179.401 189.599 179.201 189.599C178.801 189.599 178.801 189.699 179.001 189.899C179.201 190.099 179.201 190.099 179.201 190.199C179.201 190.399 179.201 190.699 179.001 190.899C179.001 191.099 178.601 191.199 178.501 191.299C178.401 191.499 178.601 191.699 178.301 191.799C178.001 191.899 177.901 192.099 177.901 192.199C177.901 192.199 177.601 192.299 178.201 192.599C177.301 192.599 178.301 193.199 178.101 193.499C177.801 193.799 177.901 194.099 177.801 194.399C177.801 194.399 177.601 194.499 178.001 194.699C178.201 194.699 178.101 194.899 178.001 194.899C177.301 194.899 177.601 195.299 177.501 195.499C177.301 195.699 177.501 196.099 177.001 196.199C176.801 196.199 176.601 196.399 177.101 196.699C177.301 196.799 177.101 196.899 177.101 196.999C177.101 196.999 177.401 197.299 177.301 197.299C177.301 197.299 177.001 197.299 176.901 197.399C177.401 197.999 176.401 198.099 176.501 198.599C176.501 199.099 176.301 199.499 176.001 199.799C175.901 199.999 175.601 200.199 174.501 199.799C174.001 199.599 173.501 199.399 173.201 199.199C173.001 198.999 172.801 198.899 172.801 198.799C172.801 198.699 172.701 198.499 172.601 198.399C172.601 198.099 172.101 197.699 172.501 197.599C172.601 197.599 172.401 197.399 172.901 197.499C172.301 196.899 172.901 196.799 172.901 196.499C172.901 196.199 172.401 195.799 172.801 195.599C172.201 195.299 172.401 195.099 172.601 194.999C173.401 194.599 173.101 193.999 173.301 193.399C173.501 192.899 173.601 192.299 173.701 191.699C173.701 191.699 173.401 191.399 173.701 191.399C174.001 191.399 173.801 191.199 173.801 190.999C173.801 190.899 173.801 190.699 173.901 190.599C174.701 190.299 174.401 189.699 174.601 189.299C174.801 188.799 175.001 188.399 175.001 187.899C175.001 187.599 174.801 187.199 175.001 186.899C175.001 186.799 174.801 186.499 175.401 186.599C175.601 186.599 175.201 186.399 175.201 186.299C175.201 186.099 175.301 185.899 175.401 185.699C175.501 185.399 175.701 185.199 175.701 184.899C175.701 184.699 175.601 184.399 175.701 184.199C175.701 183.999 175.801 183.799 176.001 183.699C176.201 183.499 176.501 183.399 176.701 183.199C176.901 182.999 176.701 182.599 177.201 182.499C177.901 182.399 177.901 181.899 178.201 181.499C178.501 181.199 178.901 180.799 179.101 180.399C179.201 180.099 179.801 180.399 179.901 180.199C179.901 180.199 181.101 181.099 181.401 181.499L181.501 181.699C181.701 182.199 182.101 182.799 181.901 182.899C181.601 183.099 181.501 183.299 181.301 183.599L181.401 183.699Z" fill="black"/>
<path d="M197 204.4C196.7 204.4 196.5 204.4 196.2 204.4C196.1 204.4 196 204.1 195.9 204.7C195.9 205 195.8 204.3 195.7 204.3C195.4 204.3 195.2 204.3 194.9 204.3C194.6 204.3 194.4 204.6 194.1 204.6C193.9 204.6 193.6 204.3 193.4 204.6C193.2 204.9 193 204.4 192.8 204.5C192.6 204.6 192.4 204.7 192.2 204.5C192.1 204.3 191.9 204.1 191.8 204.2C191.8 204.2 191.6 204.6 191.5 204.6C191.5 204.6 191.3 204.3 191.2 204.9C191.2 204.9 191.2 204.9 191.2 204.8C191.2 204.4 191 204.4 190.9 204.7C190.9 205 190.7 204.9 190.7 204.9C190.5 204.9 190.3 204.9 190.1 204.9C189.9 204.9 189.8 204.6 189.6 204.5C189.4 204.5 189.2 204.7 189.1 204.4C189 204.1 188.8 204.1 188.7 204.1C188.7 204.1 188.5 203.8 188.4 204.4C188.2 203.6 187.9 204.6 187.7 204.4C187.5 204.2 187.2 204.4 186.9 204.4C186.9 204.4 186.8 204.2 186.7 204.7C186.7 204.9 186.6 204.9 186.6 204.7C186.4 204.1 186.2 204.4 186 204.3C185.8 204.2 185.5 204.4 185.3 204C185.3 203.8 185.1 203.7 185 204.3C185 204.6 184.8 204.3 184.8 204.3C184.8 204.3 184.7 204.6 184.6 204.6C184.6 204.6 184.5 204.4 184.4 204.3C184 205 183.8 204 183.4 204.3C183.1 204.5 182.7 204.3 182.4 204.3C182.2 204.3 182 204 182 202.9C182 202.4 182 201.8 182 201.5C182 201.3 182.1 201 182.2 201C182.3 201 182.4 200.8 182.5 200.7C182.7 200.5 183 200 183.2 200.3C183.2 200.3 183.4 200.1 183.4 200.6C183.7 199.8 184 200.4 184.3 200.3C184.6 200.3 184.8 199.6 185.1 199.9C185.3 199.3 185.4 199.4 185.6 199.6C186.1 200.3 186.6 199.9 187.1 200C187.6 200.1 188.1 200 188.6 200.1C188.6 200.1 188.8 199.8 188.9 200.1C188.9 200.4 189.1 200.1 189.2 200.1C189.3 200.1 189.4 200 189.5 200.1C189.9 200.8 190.3 200.4 190.7 200.5C191.1 200.5 191.5 200.7 191.9 200.5C192.1 200.5 192.4 200.1 192.6 200.2C192.7 200.2 192.8 199.9 192.9 200.5C192.9 200.7 193 200.2 193.1 200.2C193.3 200.2 193.4 200.2 193.6 200.2C193.8 200.2 194.1 200.2 194.3 200.2C194.4 200.2 194.6 199.9 194.7 199.9C194.8 199.9 195 199.9 195.1 199.9C195.3 199.9 195.5 200.2 195.6 200.3C195.8 200.3 196 200.1 196.2 200.3C196.5 200.8 196.9 200.6 197.2 200.7C197.5 200.7 197.9 200.8 198.2 200.7C198.4 200.7 198.5 201.1 198.7 201.2C198.7 201.2 198.8 202.7 198.7 203.2V203.4C198.5 203.9 198.3 204.6 198.1 204.5C197.8 204.5 197.5 204.5 197.2 204.5L197 204.4Z" fill="black"/>
<path d="M145.2 116.199C144.8 116.799 144.5 117.499 144.1 118.099C144 118.299 143.6 118.499 143.9 118.999C144.1 119.299 143.4 119.199 143.3 119.399C143 119.999 142.6 120.599 142.3 121.199C142 121.799 141.8 122.499 141.5 123.099C141.2 123.699 140.6 124.099 140.5 124.799C140.5 125.399 139.7 125.499 139.5 125.999C139.3 126.499 139 126.999 138.5 127.399C138.1 127.599 137.7 127.799 137.6 128.199C137.6 128.399 137.6 128.799 137.4 128.999C137.2 129.199 136.8 129.199 137.2 129.799C137.2 129.799 137.1 129.799 137 129.799C136.5 129.799 136.3 129.999 136.4 130.399C136.4 130.699 136.4 130.899 136.2 130.999C135.9 131.499 135.5 131.899 135.1 132.299C134.8 132.599 134.3 132.799 134 133.099C133.7 133.399 133.6 133.899 133.1 134.099C132.6 134.199 132.4 134.499 132.1 134.799C132 134.999 131.6 134.999 131.9 135.499V135.599C130.8 135.599 131.2 136.699 130.6 137.099C130 137.499 129.6 138.099 129.1 138.599C129 138.699 128.7 138.699 128.9 139.199C128.9 139.399 128.9 139.499 128.7 139.499C127.9 139.499 127.8 140.099 127.3 140.399C126.8 140.699 126.5 141.399 125.7 141.399C125.4 141.399 125 141.499 125.1 142.199C125.1 142.499 124.7 142.499 124.6 142.699C124.5 142.899 124.5 143.199 124.3 143.299C124.2 143.399 123.9 143.299 123.7 143.299H123.6C123.2 144.399 121.9 144.099 121.2 144.699C120.4 145.299 119.5 145.599 118.5 145.899C118 145.999 117.4 145.899 116.8 144.999C116.5 144.499 116.4 143.999 116.5 143.599C116.5 143.299 116.7 143.099 116.8 142.999C117 142.799 117.2 142.599 117.4 142.499C117.8 142.199 118.1 141.499 118.6 141.499C118.8 141.499 118.8 141.199 119.2 141.499H119.3C119.5 140.499 120.4 140.599 121 140.099C121.5 139.699 121.6 138.899 122.2 138.699C122.1 137.999 122.4 137.899 122.8 137.799C124.2 137.499 124.8 136.399 125.7 135.499C126.7 134.699 127.5 133.699 128.3 132.699C128.5 132.499 128.3 132.199 128.7 132.199C129.1 132.199 129.1 131.799 129.3 131.599C129.5 131.399 129.5 131.099 129.8 130.999C131 130.699 131.3 129.599 132 128.899C132.7 128.199 133.4 127.399 133.8 126.499C134.1 125.999 134.2 125.299 134.6 124.799C134.8 124.599 134.6 124.199 135.3 124.299C135.5 124.299 135.3 123.899 135.3 123.699C135.5 123.299 135.8 122.999 136 122.699C136.3 122.199 136.7 121.799 137 121.199C137.2 120.899 137.2 120.499 137.3 120.099C137.5 119.799 137.7 119.399 137.9 119.199C138.2 118.799 138.6 118.599 138.9 118.199C139.2 117.799 139.2 117.199 139.7 116.999C140.6 116.499 140.8 115.599 141.3 114.899C141.8 114.199 142.2 113.399 142.5 112.599C142.7 112.099 143.3 111.999 143.5 111.499C143.6 111.299 145.1 111.699 145.5 111.999C145.5 111.999 145.7 112.099 145.7 112.199C145.9 112.799 146.3 113.599 146 113.999C145.5 114.699 145.2 115.499 144.8 116.199H145.2Z" fill="black"/>
<path d="M99.4002 145.099C98.5002 143.699 98.0002 141.999 98.0002 140.399C98.0002 139.799 98.3002 139.199 97.9002 138.499C97.7002 138.099 98.5002 137.699 98.6002 137.099C98.8002 136.399 99.2002 135.699 99.7002 134.999C100.2 134.299 100.7 133.899 100.8 133.599C101 133.299 100.8 133.199 100.8 132.999C100.8 132.799 100.6 132.499 100.4 132.099C100 131.299 99.6002 130.199 98.7002 128.999C98.0002 127.999 98.2002 126.799 97.9002 125.799C97.6002 124.699 97.4002 123.399 97.8002 122.299C98.0002 121.499 98.4002 120.699 98.5002 119.899C98.5002 119.399 98.4002 118.799 98.6002 118.299C98.8002 117.799 99.3002 117.399 98.9002 116.699C98.9002 116.699 99.1002 116.499 99.2002 116.399C99.8002 116.099 100.2 115.499 100.2 114.999C100.2 114.499 100.5 114.099 100.8 113.799C101.5 112.899 102.3 111.999 103.2 111.299C103.9 110.799 104.7 110.499 105.4 109.999C106.1 109.599 106.7 108.799 107.6 108.699C108.4 108.599 109.1 108.199 109.8 107.899C110.2 107.699 110.8 107.799 110.8 106.999L111 106.899C112.4 107.199 113.2 105.699 114.4 105.499C115.7 105.299 116.9 104.799 118.2 104.499C118.5 104.499 118.9 104.499 119.2 103.999C119.2 103.799 119.6 103.699 119.8 103.799C120.8 104.199 121.8 103.799 122.8 103.799C123.9 103.799 125 103.399 126.1 103.799C126.6 103.999 127.2 104.099 127.8 103.499C128 103.199 128.6 103.499 129 103.499C129.3 103.499 129.6 103.199 130 103.199C130.3 103.199 130.6 103.399 130.8 103.499C130.8 103.499 131 103.499 131.1 103.499C132.7 102.799 134.3 103.799 135.8 103.699C137.4 103.699 139 103.799 140.6 103.999C141.5 104.099 142.3 104.399 142.8 105.599C143 106.099 143 106.699 142.6 106.999C142.3 107.199 142 107.399 141.7 107.399C141.2 107.399 140.7 107.499 140.2 107.599C139.2 107.699 138.2 108.199 137.2 107.799C136.9 107.699 136.5 107.999 136.3 107.399C136.3 107.399 136.1 107.299 136.1 107.399C134.7 108.099 133.3 107.499 131.9 107.599C130.7 107.599 129.6 108.299 128.4 107.999C127.8 108.599 127 108.599 126.4 108.399C124.1 107.899 121.9 108.599 119.6 108.999C117.3 109.399 115.2 110.099 113.1 110.999C112.7 111.099 112.6 111.599 112.1 111.499C111.6 111.499 111.2 111.899 110.8 112.099C110.4 112.299 110.1 112.699 109.6 112.699C107.8 112.999 106.5 114.399 105.3 115.599C104.1 116.699 103 118.099 102.6 119.599C102.3 120.499 102.5 121.499 102.3 122.499C102.3 122.899 102.5 123.299 102 123.699C101.8 123.799 102.3 124.199 102.4 124.399C102.5 124.999 102.6 125.699 102.8 126.299C102.9 126.699 103.1 127.099 103.3 127.599C103.5 127.999 103.7 128.399 104 128.899C104.4 129.499 105 130.099 105.3 130.899C105.5 131.399 105.6 131.899 105.7 132.499C105.7 133.099 105.7 133.799 105.5 134.499C105.2 135.299 104.7 135.999 104.3 136.399C103.9 136.799 103.5 137.099 103.3 137.299C102.9 137.699 102.9 138.399 102.4 138.899C102 139.399 101.9 139.999 101.9 140.599C101.9 141.199 102.1 141.799 102.3 142.299C102.7 143.299 103.7 144.299 105 145.499C105.8 146.199 106 147.399 106.4 148.499C106.4 148.799 106.2 149.199 105.8 149.499C105.4 149.799 104.9 149.899 104.7 149.899C104.6 149.899 104.5 149.899 104.4 149.799C104.1 149.499 103.7 149.299 103.4 149.199C103.1 148.999 102.7 148.899 102.5 148.599C101.8 147.599 100.5 146.699 99.4002 145.099Z" fill="black"/>
</svg>
