<svg width="300" height="300" viewBox="0 0 300 300" fill="none" xmlns="http://www.w3.org/2000/svg">
<path d="M183.201 140.102C182.701 139.502 182.201 139.002 181.601 138.402C181.401 138.202 181.401 137.802 180.801 138.002C180.501 138.002 180.801 137.402 180.601 137.302C180.101 136.802 179.601 136.202 179.101 135.802C178.601 135.302 177.901 135.002 177.401 134.502C176.901 134.002 176.601 133.302 175.901 133.102C175.301 132.902 175.301 132.202 174.901 131.802C174.401 131.502 173.901 131.102 173.701 130.502C173.501 130.102 173.401 129.602 173.101 129.402C172.901 129.302 172.501 129.402 172.301 129.102C172.101 128.902 172.101 128.502 171.501 128.802C171.501 128.802 171.501 128.702 171.501 128.602C171.601 128.102 171.401 127.902 171.001 127.902C170.601 127.902 170.501 127.702 170.401 127.602C170.001 127.202 169.601 126.802 169.201 126.302C168.901 125.902 168.801 125.502 168.601 125.102C168.301 124.702 167.801 124.602 167.701 124.002C167.701 123.502 167.301 123.202 167.101 122.902C166.901 122.702 167.001 122.302 166.401 122.602C166.401 122.602 166.301 122.602 166.301 122.502C166.401 121.402 165.201 121.702 164.901 121.102C164.601 120.402 164.001 120.002 163.501 119.502C163.401 119.402 163.401 119.102 162.901 119.302C162.701 119.302 162.601 119.302 162.601 119.102C162.701 118.302 162.101 118.202 161.801 117.802C161.501 117.302 160.901 117.202 160.801 116.502C160.801 116.202 160.601 115.902 160.001 116.302C159.801 116.502 159.701 116.102 159.501 116.102C159.301 116.102 159.101 116.202 159.001 116.102C158.901 116.102 158.901 115.802 158.801 115.602C158.801 115.602 158.801 115.602 158.701 115.602C157.801 115.902 157.401 114.902 156.601 114.902C155.801 114.902 155.001 114.802 154.201 114.602C153.701 114.602 153.301 114.302 153.001 113.202C152.901 112.702 152.901 112.102 153.101 111.802C153.301 111.602 153.501 111.302 153.601 111.302C153.901 111.302 154.201 111.102 154.501 111.002C155.101 110.802 155.801 110.402 156.401 110.702C156.601 110.802 156.901 110.602 157.001 111.102C157.001 111.102 157.001 111.202 157.101 111.102C158.101 110.502 159.001 111.202 159.901 111.502C160.701 111.702 161.701 111.502 162.301 112.302C163.001 112.002 163.401 112.502 163.701 112.902C164.501 114.402 165.801 115.202 166.701 116.202C167.601 117.302 168.601 118.202 169.501 119.302C169.701 119.502 170.101 119.302 170.001 119.802C170.001 120.202 170.401 120.302 170.601 120.502C170.801 120.702 171.101 120.802 171.201 121.102C171.501 122.302 172.501 122.902 173.201 123.702C173.901 124.502 174.601 125.402 175.501 126.102C176.001 126.502 176.701 126.802 177.101 127.302C177.301 127.502 177.701 127.502 177.501 128.102C177.501 128.302 177.901 128.102 178.101 128.302C178.401 128.602 178.701 129.002 179.001 129.302C179.401 129.802 179.801 130.302 180.301 130.702C180.601 131.002 181.001 131.102 181.301 131.302C181.601 131.602 181.901 131.902 182.101 132.202C182.401 132.602 182.601 133.102 182.901 133.602C183.201 134.002 183.801 134.302 183.901 134.802C184.201 135.802 185.001 136.402 185.601 137.102C186.201 137.802 186.801 138.502 187.501 139.102C187.901 139.402 187.901 140.102 188.201 140.502C188.401 140.702 187.501 141.902 187.101 142.202H186.901C186.201 142.202 185.401 142.202 185.001 141.802C184.501 141.102 183.801 140.502 183.201 139.902V140.102Z" fill="black"/>
<path d="M166.101 147.302C166.501 147.102 166.801 147.002 167.201 146.702C167.301 146.702 167.601 146.702 167.501 146.202C167.501 145.902 167.901 146.402 168.001 146.402C168.301 146.202 168.701 146.102 169.001 145.902C169.301 145.702 169.501 145.302 169.801 145.102C170.101 144.902 170.601 145.102 170.801 144.602C171.001 144.202 171.401 144.602 171.601 144.302C171.801 144.102 172.101 143.902 172.501 144.002C172.801 144.002 173.101 144.202 173.201 144.002C173.201 143.902 173.201 143.502 173.401 143.502C173.501 143.502 173.801 143.702 173.701 143.002C173.701 143.002 173.701 143.002 173.901 143.002C174.201 143.302 174.401 143.202 174.401 143.002C174.401 142.702 174.501 142.702 174.601 142.602C174.901 142.502 175.201 142.302 175.501 142.302C175.701 142.302 176.001 142.302 176.301 142.302C176.501 142.302 176.701 141.902 177.001 142.102C177.301 142.302 177.501 142.202 177.701 142.102C177.801 142.102 178.101 142.302 177.901 141.602C178.501 142.302 178.501 141.102 178.901 141.202C179.301 141.202 179.601 141.002 180.001 140.902C180.001 140.902 180.301 141.002 180.201 140.502C180.201 140.302 180.201 140.302 180.401 140.402C180.901 140.902 181.001 140.402 181.301 140.402C181.601 140.402 181.901 140.002 182.301 140.402C182.501 140.602 182.701 140.602 182.701 140.002C182.701 139.702 182.901 140.002 183.001 139.802C183.001 139.802 183.001 139.402 183.201 139.402C183.201 139.402 183.401 139.602 183.501 139.702C183.801 138.902 184.501 139.702 184.901 139.302C185.301 139.002 185.801 138.902 186.301 138.902C186.601 138.902 186.901 138.902 187.401 140.002C187.601 140.502 187.801 141.002 187.701 141.402C187.701 141.702 187.701 141.902 187.601 142.002C187.501 142.102 187.401 142.302 187.301 142.402C187.101 142.702 186.901 143.302 186.601 143.102C186.501 143.102 186.501 143.402 186.201 142.902C186.001 143.802 185.501 143.402 185.101 143.602C184.801 143.802 184.601 144.502 184.201 144.302C184.201 145.002 184.001 144.902 183.701 144.802C182.801 144.402 182.301 145.002 181.601 145.202C180.901 145.302 180.301 145.702 179.601 145.902C179.501 145.902 179.601 146.302 179.301 146.102C179.101 145.902 179.001 146.102 178.801 146.202C178.701 146.202 178.601 146.402 178.401 146.302C177.601 145.902 177.301 146.502 176.701 146.602C176.201 146.702 175.601 146.902 175.201 147.302C174.901 147.502 174.801 148.002 174.401 148.002C174.201 148.002 174.201 148.402 173.901 147.902C173.801 147.802 173.901 148.202 173.801 148.302C173.601 148.402 173.401 148.502 173.201 148.602C172.901 148.702 172.601 148.802 172.301 149.002C172.101 149.102 172.101 149.402 171.901 149.602C171.701 149.702 171.601 149.802 171.301 149.902C171.001 149.902 170.701 149.902 170.401 149.902C170.101 149.902 170.001 150.302 169.601 150.202C168.901 150.002 168.601 150.402 168.201 150.602C167.701 150.802 167.301 150.902 166.901 151.302C166.701 151.502 166.201 151.202 166.001 151.302C165.901 151.302 165.101 150.102 164.901 149.702V149.502C164.901 149.002 164.801 148.202 165.101 148.102C165.501 148.002 165.901 147.702 166.301 147.502L166.101 147.302Z" fill="black"/>
<path d="M168.602 166.202C168.602 165.902 168.502 165.502 168.302 165.202C168.302 165.102 168.502 164.902 167.902 164.902C167.602 164.902 168.202 164.602 168.202 164.502C168.102 164.202 168.102 163.902 167.902 163.602C167.802 163.302 167.502 163.102 167.302 162.802C167.202 162.502 167.302 162.102 167.002 161.902C166.702 161.702 167.102 161.402 167.002 161.202C166.802 161.002 166.702 160.702 166.802 160.402C166.902 160.202 167.102 160.002 166.902 159.802C166.902 159.802 166.502 159.702 166.502 159.602C166.502 159.502 166.702 159.302 166.102 159.302C166.102 159.302 166.102 159.302 166.202 159.202C166.602 159.002 166.502 158.802 166.202 158.802C165.902 158.802 165.902 158.702 165.902 158.602C165.902 158.402 165.702 158.102 165.702 157.902C165.702 157.702 165.902 157.502 165.902 157.302C165.902 157.102 165.602 157.002 165.902 156.702C166.202 156.402 166.102 156.302 166.002 156.102C166.002 156.102 166.202 155.802 165.602 155.902C166.302 155.402 165.202 155.402 165.302 155.102C165.402 154.802 165.302 154.502 165.102 154.202C165.102 154.202 165.202 154.002 164.802 154.002C164.602 154.002 164.602 154.002 164.702 153.902C165.202 153.502 164.802 153.402 164.902 153.102C164.902 152.802 164.602 152.602 164.902 152.202C165.102 152.002 165.102 151.902 164.502 151.902C164.202 151.902 164.502 151.702 164.402 151.602C164.402 151.602 164.002 151.602 164.002 151.502C164.002 151.502 164.202 151.302 164.302 151.202C163.602 151.002 164.302 150.402 164.002 150.102C163.702 149.802 163.702 149.402 163.602 149.002C163.602 148.802 163.602 148.502 164.702 148.002C165.202 147.802 165.702 147.602 166.002 147.602C166.202 147.602 166.502 147.602 166.602 147.602C166.702 147.602 166.902 147.802 167.002 147.902C167.302 148.102 167.902 148.202 167.702 148.502C167.702 148.602 168.002 148.602 167.502 148.802C168.402 148.902 168.002 149.402 168.102 149.802C168.202 150.102 168.902 150.202 168.702 150.602C169.402 150.602 169.302 150.802 169.202 151.002C168.702 151.802 169.302 152.202 169.402 152.902C169.402 153.502 169.702 154.102 169.802 154.702C169.802 154.802 170.202 154.802 170.002 155.002C169.802 155.202 170.002 155.302 170.002 155.402C170.002 155.502 170.202 155.602 170.002 155.802C169.502 156.402 170.002 156.802 170.002 157.302C170.002 157.802 170.002 158.302 170.402 158.702C170.602 159.002 171.002 159.202 170.902 159.502C170.902 159.602 171.202 159.702 170.702 159.902C170.502 159.902 171.002 159.902 171.102 160.102C171.102 160.302 171.202 160.502 171.302 160.702C171.302 161.002 171.302 161.302 171.502 161.502C171.502 161.702 171.902 161.802 172.002 161.902C172.102 162.102 172.102 162.202 172.102 162.402C172.102 162.602 171.902 162.902 171.902 163.102C171.902 163.302 172.202 163.502 172.002 163.802C171.602 164.302 172.002 164.702 172.002 165.102C172.002 165.502 172.102 165.902 172.302 166.302C172.402 166.502 172.002 166.802 172.102 167.102C172.102 167.102 170.702 167.702 170.202 167.802H170.002C169.502 167.802 168.702 167.802 168.702 167.402C168.702 167.002 168.502 166.702 168.402 166.302L168.602 166.202Z" fill="black"/>
<path d="M162.2 186.203C162.3 185.803 162.5 185.403 162.5 185.003C162.5 184.803 162.8 184.803 162.4 184.503C162.2 184.303 162.8 184.403 162.8 184.203C162.8 183.803 163.1 183.503 163.1 183.103C163.1 182.703 163.1 182.303 163.1 181.903C163.1 181.503 163.6 181.303 163.4 180.803C163.2 180.403 163.8 180.303 163.8 180.003C163.8 179.703 163.8 179.303 164.1 179.103C164.3 178.903 164.6 178.803 164.6 178.603C164.6 178.403 164.3 178.203 164.4 178.103C164.4 178.003 164.8 177.903 164.2 177.603C164.2 177.603 164.2 177.603 164.4 177.603C164.8 177.603 164.9 177.403 164.6 177.203C164.4 177.003 164.5 176.903 164.5 176.803C164.5 176.503 164.6 176.203 164.8 175.903C164.9 175.703 165.2 175.603 165.4 175.403C165.5 175.203 165.4 174.903 165.7 174.703C166.1 174.603 166.1 174.403 166.2 174.203C166.2 174.103 166.6 174.003 166 173.703C166.9 173.703 166 173.003 166.3 172.703C166.6 172.403 166.6 172.003 166.7 171.703C166.7 171.703 166.9 171.603 166.5 171.303C166.4 171.303 166.4 171.103 166.5 171.103C167.2 171.103 166.9 170.603 167.1 170.403C167.3 170.103 167.1 169.703 167.7 169.603C167.9 169.603 168.1 169.403 167.6 169.103C167.4 168.903 167.6 168.903 167.6 168.803C167.6 168.703 167.3 168.503 167.4 168.403C167.4 168.403 167.7 168.403 167.8 168.303C167.3 167.703 168.3 167.503 168.2 167.003C168.2 166.703 168.2 166.603 168.2 166.303C168.2 166.003 168.4 165.703 168.6 165.303C168.8 164.903 169.3 164.503 170.4 165.103C170.9 165.303 171.3 165.703 171.5 166.003C171.6 166.203 171.8 166.403 171.8 166.503C171.8 166.603 171.9 166.803 172 166.903C172.1 167.103 172.6 167.403 172.2 167.703C172.1 167.703 172.3 168.003 171.8 167.903C172.5 168.503 171.8 168.903 171.8 169.303C171.8 169.703 172.2 170.203 171.8 170.503C172.3 170.903 172.2 171.103 171.9 171.203C171 171.703 171.2 172.503 170.9 173.203C170.6 173.903 170.4 174.603 170.1 175.303C170.1 175.403 170.4 175.603 170.1 175.703C169.8 175.703 169.9 176.003 169.9 176.103C169.9 176.203 169.9 176.403 169.7 176.503C168.9 176.803 169.1 177.503 168.8 178.003C168.5 178.503 168.3 179.003 168.3 179.603C168.3 180.003 168.5 180.403 168.3 180.703C168.2 180.803 168.5 181.103 167.9 181.003C167.7 181.003 168.1 181.303 168.1 181.403C168.1 181.603 168 181.903 167.9 182.103C167.8 182.403 167.6 182.703 167.6 183.103C167.6 183.303 167.7 183.603 167.7 183.803C167.7 184.003 167.7 184.203 167.5 184.403C167.3 184.603 167.1 184.803 166.9 185.103C166.8 185.303 166.9 185.703 166.6 185.903C166 186.203 166.1 186.803 165.9 187.203C165.7 187.603 165.5 188.103 165.5 188.603C165.5 188.903 165 189.003 164.9 189.203C164.9 189.303 163.4 189.203 162.9 189.003H162.7C162.3 188.603 161.7 188.203 161.8 187.903C162 187.403 162.1 187.003 162.2 186.503V186.203Z" fill="black"/>
<path d="M151.001 135.801C151.001 136.001 150.901 136.101 150.901 136.301C150.901 136.301 150.601 136.301 151.101 136.601C151.401 136.601 150.701 136.601 150.701 136.601C150.701 136.801 150.701 136.901 150.701 137.101C150.701 137.301 150.901 137.501 150.901 137.601C150.901 137.801 150.601 137.901 150.901 138.101C151.201 138.301 150.601 138.301 150.701 138.401C150.801 138.601 150.901 138.701 150.701 138.801C150.501 138.801 150.301 138.901 150.401 139.001C150.401 139.001 150.801 139.201 150.701 139.201C150.701 139.201 150.401 139.201 151.001 139.401C151.001 139.401 151.001 139.401 150.801 139.401C150.401 139.401 150.401 139.401 150.701 139.601C151.001 139.601 150.901 139.701 150.901 139.801C150.901 139.901 150.901 140.101 150.901 140.201C150.901 140.201 150.601 140.401 150.501 140.501C150.501 140.501 150.701 140.701 150.401 140.801C150.101 140.801 150.101 141.001 150.101 141.101C150.101 141.101 149.801 141.201 150.401 141.301C149.601 141.401 150.601 141.601 150.401 141.801C150.201 142.001 150.401 142.101 150.401 142.301C150.401 142.301 150.201 142.301 150.701 142.401C150.901 142.401 150.901 142.401 150.701 142.401C150.101 142.501 150.501 142.601 150.301 142.801C150.201 142.901 150.501 143.101 150.001 143.201C149.801 143.201 149.701 143.401 150.301 143.401C150.601 143.401 150.301 143.501 150.301 143.601C150.301 143.601 150.601 143.601 150.601 143.701C150.601 143.701 150.401 143.701 150.301 143.801C151.001 144.001 150.101 144.201 150.301 144.401C150.501 144.601 150.401 144.801 150.301 145.001C150.301 145.101 150.101 145.301 148.901 145.401C148.401 145.401 147.801 145.501 147.501 145.501C147.301 145.501 147.001 145.501 147.001 145.501C146.901 145.501 146.801 145.401 146.701 145.301C146.501 145.201 145.901 145.101 146.201 144.901C146.201 144.901 146.001 144.901 146.501 144.701C145.701 144.501 146.201 144.301 146.101 144.101C146.101 143.901 145.401 143.801 145.701 143.601C145.101 143.601 145.201 143.401 145.401 143.301C146.101 142.901 145.601 142.601 145.701 142.201C145.701 141.801 145.701 141.501 145.701 141.101C145.701 141.101 145.401 141.001 145.701 140.901C146.001 140.901 145.701 140.701 145.701 140.701C145.701 140.701 145.601 140.501 145.701 140.501C146.401 140.301 146.001 139.901 146.101 139.701C146.201 139.401 146.301 139.101 146.101 138.801C146.101 138.601 145.701 138.401 145.901 138.201C145.901 138.201 145.601 138.001 146.201 138.001C146.401 138.001 145.901 137.901 145.901 137.801C145.901 137.701 145.901 137.601 145.901 137.401C145.901 137.201 146.001 137.101 145.901 136.901C145.901 136.801 145.701 136.601 145.601 136.501C145.601 136.401 145.601 136.301 145.601 136.201C145.701 136.101 145.901 136.001 146.001 135.901C146.001 135.801 145.901 135.601 146.201 135.501C146.801 135.401 146.601 135.101 146.701 134.801C146.801 134.601 146.901 134.401 146.901 134.101C146.901 133.901 147.401 134.001 147.401 133.801C147.401 133.801 148.901 134.101 149.301 134.201H149.501C149.901 134.501 150.601 134.801 150.501 134.901C150.401 135.101 150.401 135.301 150.301 135.501L151.001 135.801Z" fill="black"/>
<path d="M162.302 135.801C162.302 136.001 162.202 136.101 162.202 136.301C162.202 136.301 161.902 136.301 162.402 136.601C162.702 136.601 162.002 136.601 162.002 136.601C162.002 136.801 162.002 136.901 162.002 137.101C162.002 137.301 162.202 137.501 162.202 137.601C162.202 137.801 161.902 137.901 162.202 138.101C162.502 138.301 161.902 138.301 162.002 138.401C162.102 138.601 162.202 138.701 162.002 138.801C161.802 138.801 161.602 138.901 161.702 139.001C161.702 139.001 162.102 139.201 162.002 139.201C162.002 139.201 161.702 139.201 162.302 139.401C162.302 139.401 162.302 139.401 162.102 139.401C161.702 139.401 161.702 139.401 162.002 139.601C162.302 139.601 162.202 139.701 162.202 139.801C162.202 139.901 162.202 140.101 162.202 140.201C162.202 140.201 161.902 140.401 161.802 140.501C161.802 140.501 162.002 140.701 161.702 140.801C161.402 140.801 161.402 141.001 161.402 141.101C161.402 141.101 161.102 141.201 161.702 141.301C160.902 141.401 161.902 141.601 161.702 141.801C161.502 142.001 161.702 142.101 161.702 142.301C161.702 142.301 161.502 142.301 162.002 142.401C162.202 142.401 162.202 142.401 162.002 142.401C161.402 142.501 161.802 142.601 161.602 142.801C161.502 142.901 161.802 143.101 161.302 143.201C161.102 143.201 161.002 143.401 161.602 143.401C161.902 143.401 161.602 143.501 161.602 143.601C161.602 143.601 161.902 143.601 161.902 143.701C161.902 143.701 161.702 143.701 161.602 143.801C162.302 144.001 161.402 144.201 161.602 144.401C161.802 144.601 161.702 144.801 161.602 145.001C161.602 145.101 161.402 145.301 160.202 145.401C159.702 145.401 159.102 145.501 158.802 145.501C158.602 145.501 158.302 145.501 158.302 145.501C158.202 145.501 158.102 145.401 158.002 145.301C157.802 145.201 157.202 145.101 157.502 144.901C157.502 144.901 157.302 144.901 157.802 144.701C157.002 144.501 157.502 144.301 157.402 144.101C157.402 143.901 156.702 143.801 157.002 143.601C156.402 143.601 156.502 143.401 156.702 143.301C157.402 142.901 156.902 142.601 157.002 142.201C157.002 141.801 157.002 141.501 157.002 141.101C157.002 141.101 156.702 141.001 157.002 140.901C157.302 140.901 157.002 140.701 157.002 140.701C157.002 140.701 156.902 140.501 157.002 140.501C157.702 140.301 157.302 139.901 157.402 139.701C157.502 139.401 157.602 139.101 157.402 138.801C157.402 138.601 157.002 138.401 157.202 138.201C157.202 138.201 156.902 138.001 157.502 138.001C157.702 138.001 157.202 137.901 157.202 137.801C157.202 137.701 157.202 137.601 157.202 137.401C157.202 137.201 157.302 137.101 157.202 136.901C157.202 136.801 157.002 136.601 156.902 136.501C156.902 136.401 156.902 136.301 156.902 136.201C157.002 136.101 157.202 136.001 157.302 135.901C157.302 135.801 157.202 135.601 157.502 135.501C158.102 135.401 157.902 135.101 158.002 134.801C158.102 134.601 158.202 134.401 158.202 134.101C158.202 133.901 158.702 134.001 158.702 133.801C158.702 133.801 160.202 134.101 160.602 134.201H160.802C161.202 134.501 161.902 134.801 161.802 134.901C161.702 135.101 161.702 135.301 161.602 135.501L162.302 135.801Z" fill="black"/>
<path d="M162.601 169.701C162.401 169.701 162.101 169.801 161.901 169.901C161.901 169.901 161.701 169.701 161.701 170.301C161.701 170.601 161.501 170.001 161.401 170.001C161.201 170.101 160.901 170.001 160.701 170.201C160.501 170.201 160.301 170.601 160.001 170.601C159.801 170.601 159.501 170.401 159.301 170.701C159.101 171.001 158.901 170.501 158.701 170.701C158.501 170.801 158.301 170.901 158.101 170.701C158.001 170.501 157.801 170.301 157.701 170.401C157.701 170.401 157.501 170.801 157.401 170.701C157.401 170.701 157.201 170.401 157.101 171.001C157.101 171.001 157.101 171.001 157.101 170.801C157.101 170.401 156.901 170.401 156.801 170.701C156.701 171.001 156.601 170.901 156.501 170.901C156.301 170.901 156.101 170.901 155.901 170.901C155.801 170.901 155.701 170.601 155.501 170.501C155.401 170.501 155.101 170.701 155.101 170.301C155.101 170.001 154.901 169.901 154.801 169.901C154.801 169.901 154.801 169.601 154.501 170.201C154.501 169.401 154.001 170.301 153.801 170.001C153.601 169.701 153.401 169.801 153.101 169.701C153.101 169.701 153.101 169.501 152.801 169.901C152.801 170.001 152.601 170.001 152.701 169.901C152.701 169.201 152.501 169.501 152.301 169.401C152.201 169.201 151.801 169.401 151.901 168.801C151.901 168.601 151.901 168.401 151.501 168.801C151.301 169.001 151.401 168.801 151.301 168.801L151.001 169.001C151.001 169.001 151.001 168.701 151.001 168.601C150.401 169.001 150.601 168.101 150.301 168.001C149.901 168.001 149.701 167.701 149.501 167.401C149.501 167.201 149.401 167.001 150.101 166.101C150.401 165.701 150.801 165.301 151.101 165.101C151.301 165.001 151.501 164.801 151.601 164.801C151.701 164.801 151.901 164.801 152.001 164.701C152.201 164.701 152.701 164.301 152.601 164.701C152.601 164.701 152.801 164.601 152.601 165.001C153.201 164.501 153.101 165.001 153.301 165.001C153.501 165.001 153.901 164.601 153.901 165.001C154.301 164.501 154.301 164.601 154.301 164.801C154.301 165.501 154.801 165.301 155.001 165.501C155.301 165.701 155.601 165.701 155.901 165.901C155.901 165.901 156.101 165.601 156.101 165.901C156.101 166.201 156.201 165.901 156.301 166.001H156.501C156.601 166.701 157.001 166.401 157.201 166.501C157.501 166.501 157.701 166.701 158.001 166.501C158.201 166.501 158.301 166.101 158.501 166.201C158.501 166.201 158.601 165.901 158.701 166.501C158.701 166.701 158.701 166.201 158.801 166.201C158.901 166.201 159.001 166.201 159.101 166.201C159.201 166.201 159.401 166.201 159.501 166.201C159.501 166.201 159.701 165.901 159.701 165.801C159.701 165.801 159.901 165.801 160.001 165.801C160.101 165.801 160.301 166.001 160.401 166.101C160.501 166.101 160.601 165.801 160.801 166.101C161.101 166.501 161.301 166.201 161.501 166.201C161.701 166.201 162.001 166.201 162.101 166.001C162.101 165.901 162.501 166.301 162.601 166.301C162.601 166.301 163.301 167.601 163.501 168.101V168.301C163.501 168.801 163.701 169.501 163.501 169.501C163.201 169.501 162.901 169.701 162.701 169.801L162.601 169.701Z" fill="black"/>
<path d="M139.501 101.202C135.501 100.302 131.501 99.8016 127.701 100.402C126.301 100.602 124.801 100.702 123.601 101.802C123.101 102.302 121.601 102.302 120.501 103.102C117.701 105.102 115.801 108.302 113.501 111.702C111.301 115.002 108.901 118.102 106.401 121.002C103.901 123.902 101.101 126.502 99.2005 129.502C97.6005 132.102 95.7005 134.002 94.5005 136.702C93.3005 139.502 92.3005 142.402 91.4005 145.302C90.7005 147.402 90.2005 149.502 90.1005 151.702C90.1005 153.102 90.4005 154.302 90.4005 155.802C90.4005 156.502 90.4005 157.202 90.4005 157.902C90.4005 158.602 90.6005 159.302 91.0005 159.802C91.0005 159.802 91.0005 160.502 91.0005 160.802C90.8005 162.302 91.3005 164.102 91.9005 165.202C92.2005 165.702 92.4005 166.302 92.6005 166.802C92.8005 167.302 92.9005 167.802 93.2005 168.302C94.3005 171.102 95.6005 173.802 97.3005 176.402C98.5005 178.302 99.7005 180.202 101.301 181.802C102.901 183.502 105.101 184.702 106.801 185.902C108.501 187.202 110.501 187.902 112.601 188.402C113.801 188.702 115.201 189.202 116.201 188.702C116.301 188.702 116.801 188.702 117.001 188.702C118.701 189.302 120.501 189.302 122.201 189.102C123.901 188.902 125.401 188.402 126.801 188.002C129.701 187.002 131.801 183.802 133.201 180.602C133.601 179.702 134.101 178.802 133.901 177.902C133.901 177.602 134.101 176.602 134.201 176.202C134.801 175.002 135.001 173.602 135.001 172.302C135.001 170.902 134.801 169.602 134.701 168.202C134.301 165.102 132.801 162.402 131.701 159.102C131.301 157.702 130.501 155.902 129.301 154.302C128.701 153.602 128.401 151.802 128.101 150.402C127.801 149.302 127.401 148.202 127.401 147.002C127.401 146.002 127.701 144.902 128.001 143.902C128.001 143.602 128.201 143.202 128.201 142.902C128.701 140.002 130.601 137.002 133.701 135.602C135.301 134.902 136.601 134.802 137.301 134.402C138.001 134.102 138.701 133.502 139.301 132.602C142.001 128.802 144.301 124.402 145.801 119.902C146.701 117.402 147.401 114.802 148.801 113.102C149.401 112.302 150.001 112.402 150.101 113.602C150.201 114.502 150.201 115.502 150.101 116.602C149.801 118.202 149.501 119.802 149.101 121.402C148.301 124.602 147.401 127.902 145.401 130.702C144.801 131.602 144.301 132.802 143.401 133.302C143.301 133.302 143.001 133.702 142.901 133.902C142.401 134.902 141.801 136.002 140.701 137.002C140.201 137.502 139.601 137.902 138.901 138.302C138.201 138.602 137.601 138.802 137.101 139.002C136.001 139.302 135.401 139.602 134.601 140.102C133.901 140.602 133.301 141.302 132.901 142.102C132.101 143.502 131.901 145.102 132.101 146.702C132.201 148.302 132.601 149.902 133.101 151.602C134.301 153.202 135.201 155.402 135.901 157.402C136.601 159.202 137.301 161.002 138.001 163.002C138.601 165.002 139.101 167.002 139.301 169.102C139.801 173.202 139.301 177.402 137.801 181.302C137.001 183.302 136.101 185.102 134.801 186.902C133.601 188.602 132.001 190.302 130.001 191.502C128.001 192.702 125.701 193.202 123.601 193.402C121.501 193.602 119.501 193.402 117.401 193.302C116.001 193.202 114.801 193.302 113.201 192.802C111.801 192.202 109.801 191.902 108.101 191.302C106.601 190.702 104.901 190.102 103.601 189.102C98.4005 185.202 94.0005 180.302 91.2005 174.602C88.4005 168.902 86.8005 162.802 86.3005 156.502C86.0005 152.702 86.0005 148.802 86.9005 145.002C87.3005 143.402 87.5005 141.602 88.6005 140.302C88.9005 139.902 89.0005 138.302 89.4005 137.302C90.4005 134.802 91.7005 132.502 93.1005 130.302C95.1005 127.202 97.5005 124.502 99.7005 121.802C101.101 120.202 102.301 118.402 103.701 116.802C105.101 115.102 106.501 113.402 107.901 111.802C108.801 110.702 109.601 109.702 110.401 108.602C111.301 107.402 112.101 106.302 113.001 105.102C113.901 103.902 114.901 102.502 116.201 101.402C117.401 100.202 118.901 99.3016 120.401 98.7016C125.901 96.5016 131.701 96.3016 137.001 97.2016C139.701 97.7016 142.201 98.3016 144.801 99.0016C147.401 99.8016 150.001 100.802 152.401 102.502C153.801 103.502 154.801 104.702 155.601 106.102C156.401 107.502 157.001 109.002 157.301 110.602C157.501 111.402 157.101 112.302 156.701 112.902C156.201 113.502 155.701 113.702 155.501 113.402C155.501 113.302 155.301 113.102 155.301 112.902C155.101 111.602 154.501 110.502 153.901 109.502C153.201 108.502 152.401 107.602 151.401 106.602C150.001 105.102 148.101 104.102 146.001 103.302C143.901 102.502 141.701 102.002 139.401 101.502L139.501 101.202Z" fill="black"/>
<path d="M181.3 126.599C181.7 125.999 182 125.399 182.1 124.699C182.1 124.499 182.5 124.299 181.9 123.999C181.6 123.899 182.3 123.699 182.3 123.499C182.3 122.899 182.3 122.299 181.9 121.599C181.6 120.999 181.2 120.399 180.8 119.799C180.4 119.199 180.3 118.399 179.7 117.899C179.1 117.499 179.3 116.799 178.9 116.299C178.5 115.799 178 115.299 177.9 114.599C177.8 114.099 177.7 113.599 177.3 113.299C177.1 113.099 176.7 113.099 176.5 112.799C176.3 112.499 176.4 112.099 175.7 112.299C175.7 112.299 175.7 112.099 175.7 111.999C175.9 111.499 175.7 111.199 175.2 111.099C174.8 111.099 174.7 110.799 174.6 110.699C174.2 110.199 173.8 109.699 173.5 109.199C173.2 108.799 173.1 108.299 172.9 107.899C172.6 107.499 172.1 107.299 172 106.799C172 106.299 171.6 105.999 171.3 105.699C171.1 105.499 171.1 105.099 170.5 105.499H170.4C170.4 104.999 170.1 104.799 169.8 104.799C169.5 104.799 169.1 104.799 168.9 104.599C168.5 104.199 167.9 104.199 167.3 104.099C167.2 104.099 167 103.899 166.8 104.399C166.8 104.599 166.6 104.599 166.5 104.399C166 103.799 165.6 104.199 165.1 104.299C164.5 104.299 164.2 104.799 163.4 104.599C163.1 104.599 162.7 104.599 162.8 105.299C162.8 105.599 162.5 105.499 162.3 105.699C162.2 105.799 162.3 106.099 162.1 106.299C162 106.299 161.7 106.299 161.5 106.299C161.5 106.299 161.5 106.299 161.4 106.299C161.3 107.299 160.1 107.399 159.7 108.299C159.3 109.199 158.8 109.899 158.2 110.799C157.9 111.299 157.5 111.699 156.3 111.499C155.8 111.499 155.3 111.199 155.1 110.799C155 110.499 154.8 110.199 154.9 109.999C154.9 109.699 154.9 109.299 155.1 108.899C155.2 108.199 155.1 107.299 155.8 106.799C156 106.699 155.8 106.299 156.4 106.399H156.6C156.6 105.099 157.6 104.599 158.3 103.799C158.9 103.099 159.2 101.999 160.1 101.699C160.1 100.899 160.8 100.599 161.4 100.499C162.4 100.399 163.3 100.099 164.3 99.7993C165.2 99.5993 166.3 99.3993 167.3 99.4993C168.3 99.5993 169.4 99.8993 170.4 100.299C171.4 100.699 172.2 101.299 172.9 101.899C173.1 102.099 173.6 101.999 173.7 102.499C173.7 102.899 174.2 103.099 174.5 103.299C174.7 103.499 175.1 103.699 175.2 104.099C175.6 105.499 176.8 106.299 177.5 107.399C178.2 108.499 178.9 109.599 179.7 110.499C180.2 111.099 180.9 111.499 181.3 112.199C181.4 112.499 181.9 112.599 181.6 113.199C181.6 113.399 182.1 113.399 182.2 113.599C182.5 113.999 182.8 114.499 183.1 114.999C183.5 115.699 183.8 116.299 184.3 116.999C184.6 117.399 185 117.699 185.3 118.099C185.6 118.499 185.8 118.999 185.9 119.599C186.1 120.299 186.1 120.999 186.2 121.799C186.2 122.499 186.6 123.399 186.3 124.199C185.7 125.599 185.5 126.899 184.8 127.999C184.1 129.099 183.4 129.999 182.7 130.999C182.3 131.499 181.5 131.599 181.1 132.099C180.9 132.299 179.6 131.499 179.3 131.099V130.899C179.3 130.199 179.3 129.299 179.7 128.799C180.4 128.199 180.9 127.399 181.3 126.699V126.599Z" fill="black"/>
<path d="M172.8 186.3C173.8 186.3 174.7 186.4 175.5 186.3C175.8 186.3 176.1 186.5 176.3 185.9C176.3 185.6 176.8 186.2 177 186.1C177.7 185.8 178.4 185.6 179.1 185.1C179.8 184.6 180.4 184 181 183.5C181.6 183 182.5 182.7 182.9 182C183.2 181.4 184 181.4 184.3 180.9C184.6 180.4 185 179.8 185.5 179.5C185.9 179.3 186.3 178.9 186.4 178.5C186.4 178.2 186.3 177.8 186.4 177.6C186.5 177.4 186.9 177.1 186.4 176.7C186.4 176.7 186.5 176.6 186.6 176.6C187.1 176.4 187.1 176.1 186.9 175.7C186.7 175.4 186.8 175.2 186.8 175C186.8 174.7 186.8 174.4 186.9 174.1V173.2C187.1 172.7 187.3 172.2 187.4 171.7C187.4 171.2 187.1 170.6 187.4 170.1C187.7 169.6 187.6 169.1 187.4 168.6C187.4 168.3 187.6 167.9 186.9 167.9C186.9 167.9 186.9 167.8 186.9 167.7C187.5 166.7 186.3 166.3 186.2 165.5C186.2 164.7 185.7 163.9 185.4 163.1C185.4 162.9 185.4 162.6 184.9 162.6C184.7 162.6 184.6 162.4 184.7 162.2C185 161.4 184.4 160.9 184.2 160.3C184 159.6 183.4 159 183.4 158.1C183.4 157.7 183.4 157.3 182.6 157.2C182.3 157.2 182.3 156.7 182.1 156.5C181.9 156.3 181.6 156.3 181.5 156.1C181.4 155.9 181.5 155.6 181.5 155.4C181.5 155.4 181.5 155.3 181.5 155.2C180.4 154.6 180.5 153.1 179.8 152.2C179.1 151.3 178.5 150.2 178.1 149.1C177.8 148.5 177.7 147.8 178.5 146.9C178.9 146.5 179.4 146.3 179.8 146.4C180.1 146.4 180.4 146.6 180.6 146.8C180.8 147.1 181.1 147.3 181.4 147.6C181.9 148.2 182.7 148.5 182.8 149.3C182.8 149.5 183.2 149.6 182.8 150.1V150.3C184 150.8 184.1 152 184.6 152.8C185.1 153.5 186.1 154 186.3 154.9C187.1 155 187.3 155.6 187.4 156.1C187.7 158 188.9 159.4 189.6 161.1C190.3 162.8 191 164.7 191.4 166.6C191.4 166.9 191.9 167.1 191.7 167.6C191.5 168 191.7 168.4 191.9 168.8C191.9 169.2 192.1 169.6 192 170C191.5 171.6 191.9 173.1 191.6 174.6C191.3 176.1 190.9 177.6 190.5 179.1C190.2 180 190.1 181.1 189.4 181.8C189.1 182.1 189.1 182.7 188.4 182.7C188.2 182.7 188.4 183.3 188.1 183.5C187.7 184 187.2 184.5 186.7 184.9C186 185.5 185.3 186 184.6 186.6C184.2 186.9 183.9 187.4 183.5 187.8C183.1 188.2 182.6 188.4 182.1 188.7C181.5 189 180.7 189.2 180 189.4C179.3 189.7 178.5 190.3 177.7 190.2C176.1 190.1 174.8 190.2 173.5 190.2C172.3 190.1 171.2 190 170.3 190.2C169.8 190.3 169.3 190 168.9 190.2C168.9 190.2 168.5 190 168.2 189.7C167.9 189.4 167.5 189.1 167.4 188.8C167.4 188.8 167.4 188.6 167.4 188.5C167.7 187.7 168.3 186.6 169.2 186.5C170.6 186.3 171.8 186.3 173 186.3H172.8Z" fill="black"/>
</svg>
