<svg width="300" height="300" viewBox="0 0 300 300" fill="none" xmlns="http://www.w3.org/2000/svg">
<path d="M191.399 143.902C190.199 142.602 189.099 141.302 187.799 140.102C187.299 139.602 187.099 139.002 186.199 138.902C185.799 138.902 185.799 137.902 185.399 137.502C184.199 136.402 183.199 135.102 182.099 134.002C180.999 132.902 179.799 131.902 178.599 130.802C177.499 129.702 176.599 128.302 175.399 127.502C174.299 126.702 173.899 125.602 172.999 124.902C171.999 124.202 171.199 123.702 170.299 123.102C169.699 122.702 168.899 122.202 168.099 122.202C167.599 122.202 167.099 122.402 166.499 122.402C165.999 122.402 165.299 122.002 164.799 122.602C164.799 122.602 164.499 122.602 164.399 122.402C163.799 122.002 162.999 122.002 162.499 122.302C161.999 122.602 161.499 122.502 161.099 122.502C159.799 122.502 158.499 122.602 157.199 122.602C156.199 122.602 155.299 122.402 154.299 122.402C153.299 122.402 152.199 122.802 151.299 122.602C150.299 122.402 149.399 122.602 148.499 122.602C147.999 122.602 147.299 122.502 146.999 123.202C146.999 123.202 146.799 123.202 146.699 123.202C145.099 122.602 143.799 124.002 142.299 124.102C140.699 124.202 139.199 124.802 137.699 125.202C137.299 125.302 136.799 125.202 136.599 125.802C136.599 126.002 136.099 126.102 135.899 126.102C134.599 125.902 133.699 126.602 132.699 127.002C131.499 127.502 130.799 128.302 129.599 128.802C129.099 129.002 128.499 129.502 128.699 130.302C128.699 130.702 128.299 131.002 128.099 131.402C127.999 131.702 128.099 132.202 127.999 132.502C127.999 132.802 127.599 133.002 127.399 133.202C127.399 133.202 127.399 133.402 127.399 133.502C127.599 135.302 126.499 137.002 126.599 139.002C126.599 140.002 126.599 141.002 126.599 142.002C126.599 143.002 126.599 144.002 126.599 145.102C126.599 146.202 126.399 147.402 125.199 148.202C124.699 148.602 124.099 148.602 123.799 148.202C123.599 147.802 123.299 147.402 123.299 147.002C123.199 146.302 123.099 145.702 122.999 145.002C122.799 143.702 122.299 142.302 122.499 140.902C122.499 140.502 122.299 140.002 122.799 139.602C122.799 139.602 122.899 139.402 122.799 139.302C122.099 137.402 122.799 135.402 123.099 133.402C123.399 131.702 123.399 129.802 124.599 128.302C124.599 127.102 125.499 126.002 126.499 125.402C128.099 124.302 129.699 123.402 131.299 122.702C132.899 122.002 134.399 121.302 135.999 120.902C139.199 120.102 142.299 119.202 145.499 118.702C145.999 118.702 146.499 118.202 147.099 118.302C147.699 118.502 148.499 118.102 149.199 118.002C149.799 118.002 150.499 117.702 151.099 117.802C153.699 118.202 156.199 117.602 158.799 117.602C161.299 117.602 163.899 117.602 166.399 117.602C167.999 117.602 169.799 117.602 171.499 118.302C172.199 118.602 173.099 118.702 173.499 119.602C173.499 119.902 174.399 119.902 174.799 120.202C175.799 120.902 176.599 121.702 177.299 122.502C178.299 123.602 179.299 124.702 180.299 125.702C180.899 126.302 181.699 126.802 182.299 127.402C182.999 128.002 183.599 128.702 184.199 129.402C184.899 130.302 185.599 131.302 186.299 132.202C187.099 133.102 188.099 133.902 188.699 134.902C189.799 136.802 191.499 138.202 192.899 139.802C194.299 141.402 195.699 143.002 197.299 144.502C198.199 145.302 198.599 146.502 199.399 147.302C199.799 147.702 199.199 149.302 198.699 149.402C198.699 149.402 198.499 149.402 198.399 149.402C197.299 148.902 195.999 148.602 195.099 147.602C193.799 146.102 192.399 144.702 191.099 143.302L191.399 143.902Z" fill="black"/>
<path d="M128.299 170.102C128.299 170.602 128.299 171.002 128.499 171.502C128.499 171.702 128.299 171.902 128.899 172.002C129.199 172.002 128.599 172.302 128.599 172.502C128.699 172.902 128.699 173.302 128.799 173.802C128.899 174.202 129.199 174.602 129.299 175.002C129.399 175.402 129.299 175.902 129.599 176.202C129.899 176.502 129.499 176.902 129.599 177.202C129.799 177.502 129.899 177.902 129.699 178.202C129.599 178.502 129.399 178.802 129.499 179.002C129.499 179.102 129.899 179.202 129.899 179.402C129.899 179.602 129.699 179.802 130.299 179.802C130.299 179.802 130.299 179.802 130.199 179.902C129.799 180.102 129.899 180.302 130.199 180.402C130.499 180.402 130.499 180.602 130.499 180.702C130.499 181.002 130.699 181.402 130.699 181.702C130.699 182.002 130.499 182.302 130.499 182.502C130.499 182.802 130.799 183.002 130.499 183.302C130.199 183.602 130.299 183.802 130.299 184.102C130.299 184.202 130.099 184.502 130.699 184.502C129.999 185.002 131.099 185.202 130.999 185.702C130.899 186.202 130.999 186.602 131.199 187.002C131.199 187.102 131.099 187.302 131.499 187.302C131.699 187.302 131.699 187.402 131.599 187.502C130.999 187.902 131.499 188.202 131.399 188.502C131.399 188.902 131.699 189.202 131.299 189.702C131.099 189.902 131.099 190.102 131.699 190.202C131.999 190.202 131.699 190.502 131.799 190.602C131.799 190.702 132.199 190.802 132.199 190.902C132.199 190.902 131.999 191.102 131.899 191.202C132.699 191.602 131.899 192.302 132.199 192.802C132.499 193.302 132.499 193.902 132.499 194.402C132.499 194.702 132.399 195.002 131.299 195.502C130.799 195.702 130.299 195.802 129.899 195.702C129.599 195.702 129.399 195.602 129.299 195.502C129.199 195.302 128.999 195.202 128.899 195.102C128.599 194.802 128.099 194.602 128.299 194.102C128.299 194.002 127.999 193.902 128.499 193.702C127.599 193.402 127.999 192.802 127.899 192.302C127.799 191.902 127.099 191.602 127.299 191.102C126.599 191.002 126.699 190.702 126.799 190.402C127.299 189.502 126.799 188.702 126.599 187.902C126.599 187.102 126.299 186.202 126.199 185.402C126.199 185.302 125.799 185.202 125.999 185.002C126.199 184.802 125.999 184.602 125.999 184.502C125.999 184.302 125.799 184.202 125.999 184.002C126.499 183.202 125.999 182.602 125.999 182.002C125.999 181.302 125.999 180.702 125.599 180.102C125.399 179.702 124.999 179.402 125.099 179.002C125.099 178.802 124.799 178.702 125.299 178.402C125.499 178.402 124.999 178.202 124.899 178.102C124.899 177.802 124.799 177.602 124.699 177.302C124.699 176.902 124.699 176.502 124.499 176.202C124.499 176.002 124.099 175.802 123.999 175.602C123.899 175.402 123.899 175.102 123.899 174.902C123.899 174.602 124.099 174.202 124.099 173.902C124.099 173.602 123.799 173.302 124.099 172.902C124.499 172.302 124.099 171.702 124.099 171.102C124.099 170.502 124.099 170.002 123.799 169.402C123.699 169.102 124.099 168.702 124.099 168.402C124.099 168.302 125.499 167.902 125.999 167.902H126.199C126.699 168.102 127.499 168.302 127.499 168.702C127.499 169.202 127.599 169.702 127.699 170.202L128.299 170.102Z" fill="black"/>
<path d="M177.9 155.103C178.3 154.903 178.6 154.803 179 154.503C179.1 154.503 179.4 154.503 179.3 154.003C179.3 153.703 179.7 154.203 179.8 154.203C180.1 154.003 180.5 153.903 180.8 153.703C181.1 153.503 181.3 153.103 181.6 152.903C181.9 152.703 182.4 152.903 182.6 152.403C182.8 152.003 183.2 152.403 183.4 152.103C183.6 151.903 183.9 151.703 184.3 151.803C184.6 151.803 184.9 152.003 185 151.803C185 151.703 185 151.303 185.2 151.303C185.3 151.303 185.6 151.503 185.5 150.803C185.5 150.803 185.5 150.803 185.7 150.803C186 151.103 186.2 151.003 186.2 150.803C186.2 150.503 186.3 150.503 186.4 150.403C186.7 150.303 187 150.103 187.3 150.103C187.5 150.103 187.8 150.103 188.1 150.103C188.3 150.103 188.5 149.703 188.8 149.903C189.1 150.103 189.3 150.003 189.5 149.903C189.6 149.903 189.9 150.103 189.7 149.403C190.3 150.103 190.3 148.903 190.7 149.003C191.1 149.003 191.4 148.803 191.8 148.703C191.8 148.703 192.1 148.803 192 148.303C192 148.103 192 148.103 192.2 148.203C192.7 148.703 192.8 148.203 193.1 148.203C193.4 148.203 193.7 147.803 194.1 148.203C194.3 148.403 194.5 148.403 194.5 147.803C194.5 147.503 194.7 147.803 194.8 147.603C194.8 147.603 194.8 147.203 195 147.203C195 147.203 195.2 147.403 195.3 147.503C195.6 146.703 196.3 147.503 196.7 147.103C197.1 146.803 197.6 146.703 198.1 146.703C198.4 146.703 198.7 146.703 199.2 147.803C199.4 148.303 199.6 148.803 199.5 149.203C199.5 149.503 199.5 149.703 199.4 149.803C199.3 149.903 199.2 150.103 199.1 150.203C198.9 150.503 198.7 151.103 198.4 150.903C198.3 150.903 198.3 151.203 198 150.703C197.8 151.603 197.3 151.203 196.9 151.403C196.6 151.603 196.4 152.303 196 152.103C196 152.803 195.8 152.703 195.5 152.603C194.6 152.203 194.1 152.803 193.4 153.003C192.7 153.103 192.1 153.503 191.4 153.703C191.3 153.703 191.4 154.103 191.1 153.903C190.9 153.703 190.8 153.903 190.6 154.003C190.5 154.003 190.4 154.203 190.2 154.103C189.4 153.703 189.1 154.303 188.5 154.403C188 154.503 187.4 154.703 187 155.103C186.7 155.303 186.6 155.803 186.2 155.803C186 155.803 186 156.203 185.7 155.703C185.6 155.603 185.7 156.003 185.6 156.103C185.4 156.203 185.2 156.303 185 156.403C184.7 156.503 184.4 156.603 184.1 156.803C183.9 156.903 183.9 157.203 183.7 157.403C183.5 157.503 183.4 157.603 183.1 157.703C182.8 157.703 182.5 157.703 182.2 157.703C181.9 157.703 181.8 158.103 181.4 158.003C180.7 157.803 180.4 158.203 180 158.403C179.5 158.603 179.1 158.703 178.7 159.103C178.5 159.303 178 159.003 177.8 159.103C177.7 159.103 176.9 157.903 176.7 157.503V157.303C176.7 156.803 176.6 156.003 176.9 155.903C177.3 155.803 177.7 155.503 178.1 155.303L177.9 155.103Z" fill="black"/>
<path d="M158.6 148.902C158.6 148.702 158.6 148.502 158.6 148.402C158.6 148.402 158.8 148.302 158.3 148.202C158 148.202 158.7 148.102 158.6 148.002C158.6 147.802 158.6 147.702 158.6 147.502C158.6 147.302 158.3 147.202 158.3 147.002C158.3 146.802 158.6 146.702 158.3 146.502C158 146.302 158.5 146.302 158.4 146.102C158.3 146.002 158.2 145.802 158.4 145.702C158.6 145.702 158.8 145.502 158.7 145.402C158.7 145.402 158.3 145.202 158.4 145.202C158.4 145.202 158.7 145.202 158.1 145.002C158.1 145.002 158.1 145.002 158.3 145.002C158.7 145.002 158.7 145.002 158.4 144.802C158.1 144.802 158.2 144.702 158.2 144.602C158.2 144.502 158.2 144.302 158.2 144.202C158.2 144.202 158.5 144.002 158.6 144.002C158.6 144.002 158.4 143.702 158.7 143.702C159 143.702 159 143.602 159 143.502C159 143.502 159.3 143.502 158.7 143.302C159.5 143.302 158.5 142.902 158.7 142.802C158.9 142.702 158.8 142.502 158.9 142.302C158.9 142.302 159.1 142.302 158.7 142.102C158.5 142.002 158.5 142.102 158.7 142.102C159.3 142.102 159 141.902 159.1 141.802C159.3 141.702 159.1 141.502 159.5 141.502C159.7 141.502 159.8 141.502 159.3 141.202C159.1 141.102 159.3 141.202 159.3 141.002L159 140.802C159 140.802 159.2 140.802 159.4 140.802C158.8 140.402 159.8 140.502 159.7 140.202C159.7 139.902 159.7 139.802 159.9 139.602C159.9 139.602 160.2 139.502 161.3 139.802C161.8 140.002 162.3 140.202 162.6 140.402C162.8 140.502 163 140.602 163 140.702C163 140.702 163.2 140.902 163.2 141.002C163.3 141.202 163.8 141.502 163.5 141.502C163.5 141.502 163.7 141.702 163.2 141.502C163.9 141.902 163.3 141.902 163.3 142.102C163.3 142.202 163.9 142.602 163.6 142.602C164.2 142.902 164 142.902 163.8 142.902C163.1 142.902 163.4 143.302 163.3 143.602C163.1 143.802 163.2 144.102 163.1 144.402C163.1 144.402 163.4 144.602 163.1 144.602C162.8 144.602 163.1 144.702 163.1 144.802C163.1 144.802 163.2 144.902 163.1 145.002C162.4 145.002 162.8 145.402 162.7 145.602C162.7 145.802 162.5 146.002 162.7 146.202C162.7 146.302 163.1 146.502 163 146.602C163 146.602 163.3 146.702 162.7 146.702C162.5 146.702 163 146.702 163 146.802C163 146.802 163 147.002 163 147.102C163 147.202 163 147.302 163 147.502L163.3 147.702V147.902C163.3 147.902 163 148.102 162.9 148.202C162.9 148.302 163.1 148.402 162.9 148.502C162.4 148.702 162.6 148.902 162.6 149.102C162.6 149.302 162.6 149.502 162.6 149.602C162.6 149.602 162.2 149.802 162.2 149.902C162.2 149.902 160.7 150.102 160.2 150.202H160C159.5 150.202 158.8 150.102 158.8 149.902C158.8 149.702 158.8 149.502 158.8 149.302L158.6 148.902Z" fill="black"/>
<path d="M169 149.703C169 149.503 169 149.303 169 149.203C169 149.203 169.2 149.103 168.7 149.003C168.4 149.003 169.1 148.903 169 148.803C169 148.603 169 148.503 169 148.303C169 148.103 168.7 148.003 168.7 147.803C168.7 147.603 169 147.503 168.7 147.303C168.4 147.103 168.9 147.103 168.8 146.903C168.7 146.803 168.6 146.603 168.8 146.503C169 146.503 169.2 146.303 169.1 146.203C169.1 146.203 168.7 146.003 168.8 146.003C168.8 146.003 169.1 146.003 168.5 145.803C168.5 145.803 168.5 145.803 168.7 145.803C169.1 145.803 169.1 145.803 168.8 145.603C168.5 145.603 168.6 145.503 168.6 145.403C168.6 145.303 168.6 145.103 168.6 145.003C168.6 145.003 168.9 144.803 169 144.803C169 144.803 168.8 144.503 169.1 144.503C169.4 144.503 169.4 144.403 169.4 144.303C169.4 144.303 169.7 144.303 169.1 144.103C169.9 144.103 168.9 143.703 169.1 143.603C169.3 143.503 169.2 143.303 169.3 143.103C169.3 143.103 169.5 143.103 169.1 142.903C168.9 142.803 168.9 142.903 169.1 142.903C169.7 142.903 169.4 142.703 169.5 142.603C169.7 142.503 169.5 142.303 169.9 142.303C170.1 142.303 170.2 142.303 169.7 142.003C169.5 141.903 169.7 142.003 169.7 141.803L169.4 141.603C169.4 141.603 169.6 141.603 169.8 141.603C169.2 141.203 170.2 141.303 170.1 141.003C170.1 140.703 170.1 140.603 170.3 140.403C170.3 140.403 170.6 140.303 171.7 140.603C172.2 140.803 172.7 141.003 173 141.203C173.2 141.303 173.4 141.403 173.4 141.503C173.4 141.503 173.6 141.703 173.6 141.803C173.7 142.003 174.2 142.303 173.9 142.303C173.9 142.303 174.1 142.503 173.6 142.303C174.3 142.703 173.7 142.703 173.7 142.903C173.7 143.003 174.3 143.403 174 143.403C174.6 143.703 174.4 143.703 174.2 143.703C173.5 143.703 173.8 144.103 173.7 144.403C173.5 144.603 173.6 144.903 173.5 145.203C173.5 145.203 173.8 145.403 173.5 145.403C173.2 145.403 173.5 145.503 173.5 145.603C173.5 145.603 173.6 145.703 173.5 145.803C172.8 145.803 173.2 146.203 173.1 146.403C173.1 146.603 172.9 146.803 173.1 147.003C173.1 147.103 173.5 147.303 173.4 147.403C173.4 147.403 173.7 147.503 173.1 147.503C172.9 147.503 173.4 147.503 173.4 147.603C173.4 147.603 173.4 147.803 173.4 147.903C173.4 148.003 173.4 148.103 173.4 148.303L173.7 148.503V148.703C173.7 148.703 173.4 148.903 173.3 149.003C173.3 149.103 173.5 149.203 173.3 149.303C172.8 149.503 173 149.703 173 149.903C173 150.103 173 150.303 173 150.403C173 150.403 172.6 150.603 172.6 150.703C172.6 150.703 171.1 150.903 170.6 151.003H170.4C169.9 151.003 169.2 150.903 169.2 150.703C169.2 150.503 169.2 150.303 169.2 150.103L169 149.703Z" fill="black"/>
<path d="M183.399 159.802C184.299 160.802 185.099 161.802 185.899 162.702C186.199 163.102 186.299 163.602 187.099 163.602C187.499 163.602 187.299 164.402 187.599 164.702C188.399 165.602 189.099 166.602 189.899 167.502C190.299 168.002 190.699 168.302 191.099 168.802C191.699 169.502 192.299 170.202 192.999 171.102C193.999 172.302 194.699 173.502 195.599 174.802C195.099 175.002 194.599 175.102 194.199 175.302C193.499 175.602 192.599 175.802 191.799 176.002C190.899 176.102 190.099 176.302 189.399 176.502C189.199 176.502 188.999 176.602 188.799 176.702H188.299C188.099 176.902 187.799 177.002 187.499 177.002C186.999 177.102 186.499 177.102 185.999 177.002C185.299 177.002 184.499 176.802 183.799 177.002C183.399 177.102 182.999 177.502 182.499 177.502C181.999 177.502 181.499 177.302 181.099 177.902C181.099 177.902 180.899 177.902 180.799 177.802C180.299 177.402 179.699 177.502 179.299 177.802C178.899 178.102 178.499 178.002 178.199 178.002C177.199 178.002 176.099 178.002 175.099 177.802C174.299 177.702 173.599 177.402 172.799 177.202C171.999 177.102 171.099 177.202 170.399 176.802C169.699 176.402 168.999 176.202 168.299 176.102C167.899 176.102 167.499 175.602 166.999 176.102C166.999 176.102 166.799 176.102 166.699 176.102C165.799 175.002 164.399 175.702 163.299 175.102C162.199 174.502 160.899 174.202 159.799 173.702C159.499 173.602 159.199 173.202 158.799 173.502C158.599 173.502 158.299 173.502 158.199 173.202C157.699 172.202 156.599 172.002 155.799 171.402C154.899 170.702 153.899 170.202 153.299 169.102C153.099 168.602 152.699 168.102 151.899 168.102C151.499 168.102 151.299 167.502 150.999 167.202C150.699 167.002 150.299 166.902 150.099 166.602C149.899 166.402 149.899 166.002 149.799 165.702C149.799 165.702 149.799 165.502 149.599 165.502C148.899 165.002 148.399 164.202 148.199 163.402L147.799 162.202C147.699 161.802 147.599 161.402 147.399 161.002C146.599 159.502 146.299 157.702 146.199 156.002C146.199 155.102 146.299 154.102 147.399 153.502C147.899 153.202 148.499 153.202 148.799 153.502C149.099 153.802 149.299 154.002 149.399 154.302C149.499 154.802 149.599 155.202 149.799 155.602C149.999 156.002 150.199 156.502 150.399 156.902C150.599 157.302 150.799 157.702 150.799 158.202C150.799 158.502 151.099 158.702 150.799 159.102V159.302C151.399 159.702 151.599 160.302 151.899 160.802C151.999 161.102 152.099 161.402 152.199 161.702C152.299 162.002 152.499 162.302 152.699 162.502C152.999 162.902 153.399 163.302 153.799 163.602C154.199 163.902 154.599 164.202 154.899 164.702C155.699 164.702 156.099 165.202 156.399 165.702C157.499 167.602 159.599 168.402 161.499 169.402C163.399 170.402 165.499 171.102 167.699 171.702C168.099 171.702 168.499 171.502 168.799 171.902C169.099 172.302 169.699 172.202 170.199 172.302C170.599 172.302 171.099 172.302 171.499 172.602C173.099 173.602 174.999 173.402 176.699 173.502C178.399 173.702 180.199 173.702 181.999 173.502C183.099 173.302 184.099 172.902 185.099 172.902C185.599 172.902 185.999 172.502 186.499 172.902C186.699 173.002 186.999 172.502 187.299 172.402H187.699C187.699 172.302 187.899 172.302 187.899 172.302C187.999 172.302 188.199 172.302 188.299 172.302C188.299 172.302 188.299 172.202 188.099 172.102C187.999 172.002 187.599 171.902 187.499 171.902C187.499 171.902 187.399 171.902 187.299 171.702L187.099 171.502L186.799 171.102C186.299 170.402 185.999 169.602 185.499 168.902C184.999 168.202 184.199 167.602 183.899 166.802C183.299 165.302 182.099 164.202 181.099 163.002C180.099 161.802 179.099 160.602 177.999 159.502C177.399 158.902 177.199 158.002 176.599 157.302C176.299 157.002 176.999 155.602 177.499 155.402C177.499 155.402 177.699 155.402 177.799 155.402C178.699 155.702 179.799 155.802 180.399 156.502C181.299 157.602 182.399 158.702 183.299 159.802H183.399Z" fill="black"/>
<path d="M171.799 194.802L172.299 193.802C172.299 193.602 172.399 193.502 172.499 193.302C172.499 193.302 172.899 192.802 172.199 193.302C171.799 193.502 172.799 192.802 172.799 192.702V192.602H172.599C172.399 192.702 172.299 192.802 172.099 192.802C171.899 192.802 171.799 193.002 171.599 193.102H171.399C171.099 193.102 170.799 193.202 170.499 193.202C169.299 193.302 168.199 193.002 167.099 193.202C166.099 193.402 165.399 192.702 164.499 192.602C163.499 192.602 162.599 192.302 161.799 191.702C161.199 191.302 160.699 190.802 160.099 190.702C159.699 190.602 159.199 190.702 158.799 190.502C158.399 190.302 158.199 189.802 157.499 190.202C157.499 190.202 157.299 190.002 157.299 189.902C157.099 189.302 156.699 189.002 156.199 189.102C155.699 189.102 155.499 188.902 155.199 188.702C154.399 188.202 153.699 187.602 152.999 187.002C152.499 186.502 152.099 185.902 151.699 185.302C151.199 184.802 150.499 184.402 150.299 183.702C150.099 183.002 149.599 182.602 149.199 182.102C148.999 181.802 148.899 181.302 148.199 181.502C148.199 181.502 148.099 181.502 148.099 181.302C148.099 180.002 146.599 179.802 146.099 178.702C145.699 177.602 144.899 176.602 144.499 175.502C144.399 175.202 144.499 174.802 143.899 174.702C143.699 174.702 143.599 174.302 143.699 174.102C143.899 173.602 143.799 173.102 143.699 172.702C143.599 172.302 143.399 171.802 143.399 171.402C143.399 170.902 143.299 170.402 143.299 169.902C143.299 169.402 143.299 168.902 143.499 168.402C143.699 168.002 143.799 167.402 143.299 166.902C142.999 166.702 143.299 166.202 143.299 165.802C143.299 165.502 142.999 165.202 143.099 164.902C143.099 164.602 143.399 164.402 143.499 164.202V164.002C143.099 162.502 144.199 161.302 144.399 159.902C144.599 158.502 144.999 157.202 145.599 155.902C145.899 155.202 146.299 154.502 147.499 154.402C148.099 154.402 148.599 154.502 148.799 154.902C148.999 155.202 149.099 155.502 149.099 155.802C149.099 156.202 149.099 156.702 149.099 157.102C149.099 158.002 149.299 158.902 148.799 159.702C148.599 159.902 148.799 160.302 148.299 160.402C148.299 160.402 148.199 160.502 148.199 160.602C148.699 161.902 147.899 162.902 147.799 164.102C147.699 165.102 148.199 166.102 147.799 167.002C148.399 167.602 148.299 168.102 148.099 168.602C147.399 170.402 148.099 172.202 148.699 173.802C149.199 175.502 150.299 177.002 151.499 178.502C151.699 178.802 152.199 178.802 152.199 179.202C152.199 179.702 152.699 179.902 152.999 180.202C153.299 180.502 153.599 180.702 153.799 181.102C154.399 182.702 155.799 183.502 156.999 184.502C158.099 185.502 159.399 186.402 160.799 187.002C161.699 187.302 162.599 187.402 163.399 187.802C163.699 188.002 164.199 187.802 164.399 188.502C164.399 188.702 164.899 188.402 165.199 188.502C165.799 188.602 166.399 188.802 166.999 188.902C167.799 189.002 168.699 189.202 169.499 189.102C169.999 189.102 170.499 188.802 170.999 188.702C171.099 188.702 171.299 188.702 171.399 188.702H171.499H171.599L171.999 188.602L172.899 188.402C173.199 188.402 173.499 188.402 173.799 188.202C174.599 188.002 175.399 187.802 176.199 187.502C176.999 187.302 177.699 187.102 178.499 186.802C178.799 186.702 179.199 186.602 179.499 186.402V186.902V187.202V187.602C179.199 188.102 179.099 188.702 178.799 189.302C178.099 190.702 177.699 191.702 177.399 192.802C176.999 193.802 176.599 195.002 176.099 196.002C175.399 197.302 174.699 198.602 173.999 199.902C173.599 200.602 172.799 201.002 172.299 201.602C172.099 201.902 170.599 201.402 170.299 201.002C170.299 201.002 170.199 200.802 170.199 200.702C170.199 199.802 169.999 198.902 170.499 198.202C171.199 197.202 171.799 196.102 172.299 195.102L171.799 194.802Z" fill="black"/>
<path d="M212 116.4L218 114C220 113.2 222 112.4 223.7 111.5C224.4 111.1 225 110.8 225.6 110.4C226.2 110 226.7 109.5 226.8 108.9C226.8 108.9 226.8 108.8 226.8 108.7C226.8 108.7 226.9 108.7 227 108.6C227.2 108.5 227.3 108.2 227 108C226.9 107.9 226.8 107.8 226.6 107.8C226.6 107.8 226.4 107.8 226.3 107.8C226.2 107.8 226.1 107.8 225.8 107.8H222.8C220.8 107.8 218.8 107.8 216.9 108C213.1 108.3 209.3 108.9 205.5 109.6C201.7 110.2 197.8 110.6 194.2 111.7C191.1 112.6 188.2 112.7 185.2 113.5C182 114.3 178.8 115.2 175.6 115.7C173.3 116.1 171 116.4 168.7 117C167.3 117.4 166.1 118 164.5 118.4C163.1 118.7 161.4 118.9 160.3 119.8C160.3 119.8 159.5 119.9 159.2 119.9C157.6 119.9 155.7 120.4 154.5 121C153.3 121.6 152.2 121.8 151 122.1C147.8 123 144.6 123.8 141.4 124.6C139 125.2 136.6 125.6 134.2 126.2C131.7 126.8 129.1 127.9 126.8 128.2C124.4 128.6 122.2 129.2 120 129.9C118.7 130.3 117.1 130.4 116.3 131.4C116.3 131.4 115.7 131.6 115.5 131.6C111.6 131.9 108.4 134 104.6 134.9C100.8 135.9 97 137.2 93.2 138.6C92.2 139 91.1 139.2 90.3 139.9C90 140.2 89 140.6 88.4 140.6C85.4 141 82.7 142.5 79.9 143.6C78.3 144.2 76.7 144.9 75.2 145.7L74 146.2L73.4 146.5C73.4 146.5 73.2 146.5 73.1 146.6C72.8 146.8 72.5 147 72.3 147.4C72.1 147.7 72.1 148.2 72.3 148.7C72.5 149.2 73 149.4 73.4 149.3C73.4 149.3 73.6 149.3 73.7 149.3C73.7 149.3 73.8 149.3 73.9 149.3C73.9 149.3 74 149.3 74.1 149.3C74.1 149.3 74.3 149.3 74.5 149.3H75C75.4 149.3 75.7 149.2 76 149.1C77 148.9 78 148.5 79 148.4C79.9 148.3 80.8 148.4 81.7 148.4C82 148.4 82.3 148.4 82.5 148.3C87.4 147 92.5 147.1 97.4 145.9C102.3 144.7 107.3 143.4 112.2 141.9C114.9 141.1 117.7 140.4 119.9 140.8C120.9 141 121.1 141.5 120 142.2C119.2 142.7 118.3 143.3 117.4 143.6C115.9 144.2 114.4 144.8 112.9 145.4C109.8 146.6 106.8 148 103.3 148.6C102.2 148.8 101.1 149.4 100.1 149.1C100 149.1 99.5 149.1 99.3 149.1C95 150.9 90.1 151.1 85.6 151.8C83.6 152.1 81.7 152.5 79.8 152.9C78.8 153.1 77.9 153.3 76.9 153.4C76.4 153.4 75.9 153.5 75.4 153.6H74.7C74.4 153.6 74 153.6 73.6 153.6C73.2 153.6 72.7 153.6 72.2 153.6C71.7 153.5 71.2 153.4 70.8 153.2C69.9 152.8 69.1 152.1 68.5 151.2C67.9 150.4 67.6 149.4 67.5 148.4C67.5 147.4 67.5 146.4 67.9 145.6C68.5 144 69.8 142.8 71.2 142.2L73.9 141.1L79.4 138.8C83 137.3 86.7 135.8 90.4 134.5C98 131.9 105.5 129.6 113.1 127.4C114.4 127 115.4 126.4 117 126.2C118.5 126 120.3 125.3 121.9 124.8C123.4 124.4 125 123.8 126.5 123.5C132.6 122.4 138.5 120.4 144.6 118.8C150.6 117.3 156.6 115.8 162.6 114.2C166.2 113.2 169.8 112 173.5 111.3C175.1 111 176.7 110.3 178.4 110.5C178.9 110.5 180.2 109.8 181.3 109.5C183.8 108.9 186.4 108.3 188.9 107.8C192.4 107 196 106.4 199.6 105.7C201.8 105.3 203.9 104.7 206.1 104.3C208.4 103.9 210.7 103.7 213.1 103.5C216.1 103.3 219 103.4 222 103.4C222.8 103.4 223.5 103.4 224.3 103.4H225.5C225.7 103.4 225.8 103.4 226.1 103.4C226.4 103.4 226.7 103.4 227 103.5C227.6 103.6 228.2 103.8 228.8 104.2C229.4 104.6 229.9 105.1 230.3 105.6C231.1 106.7 231.3 108.2 230.9 109.4C230.7 110 230.4 110.5 230.1 111C229.8 111.4 229.5 111.7 229.2 112C228.9 112.3 228.5 112.6 228.2 112.8C227.9 113 227.6 113.2 227.3 113.4C226 114.2 224.8 114.9 223.5 115.4C220.9 116.6 218.5 117.5 216 118.5C211 120.4 206.1 122.3 201.2 124.4C198.4 125.6 195.7 126.1 192.9 127.2C191.6 127.7 189.4 127 189.7 126.3C189.7 126.2 189.9 126 190.1 125.9C192.6 124.4 194.8 122.8 197.9 121.6C202.5 119.9 207 118 211.6 116.2L212 116.4Z" fill="black"/>
<path d="M133.201 148.101C133.601 147.701 134.001 147.301 134.401 146.801C134.501 146.601 134.901 146.601 134.601 146.101C134.501 145.801 135.101 146.101 135.201 145.901C135.501 145.501 135.901 145.101 136.201 144.701C136.501 144.301 136.701 143.701 136.901 143.301C137.201 142.901 137.701 142.601 137.801 142.001C137.801 141.501 138.501 141.501 138.601 141.101C138.801 140.701 139.001 140.301 139.401 140.101C139.701 139.901 140.101 139.801 140.201 139.501C140.201 139.301 140.101 139.001 140.201 138.801C140.301 138.701 140.701 138.601 140.201 138.101C140.201 138.101 140.301 138.101 140.401 138.101C140.901 138.101 141.001 137.901 140.801 137.601C140.701 137.301 140.801 137.201 140.801 137.101C141.001 136.701 141.201 136.301 141.501 136.001C141.701 135.701 142.101 135.601 142.301 135.301C142.501 135.001 142.501 134.601 142.901 134.501C143.301 134.401 143.501 134.101 143.601 133.801C143.601 133.601 144.001 133.601 143.601 133.201C144.601 133.201 143.801 132.201 144.201 131.801C144.601 131.401 144.701 130.901 144.901 130.401C144.901 130.301 145.201 130.201 144.901 129.901C144.801 129.801 144.901 129.601 144.901 129.601C145.601 129.601 145.501 129.001 145.701 128.601C146.001 128.201 145.901 127.701 146.501 127.401C146.801 127.301 147.001 127.101 146.501 126.601C146.301 126.401 146.601 126.301 146.601 126.101C146.601 126.001 146.401 125.701 146.401 125.601C146.401 125.501 146.701 125.501 146.801 125.401C146.801 125.401 146.801 125.401 146.801 125.301C146.401 124.401 147.501 124.101 147.501 123.401C147.501 122.701 147.801 122.101 148.101 121.401C148.301 121.101 148.601 120.701 149.701 120.801C150.201 120.801 150.801 121.001 151.001 121.201C151.201 121.401 151.401 121.601 151.401 121.701C151.401 121.901 151.401 122.201 151.501 122.401C151.501 122.901 151.901 123.501 151.501 123.901C151.401 124.001 151.501 124.301 151.101 124.201H151.001C151.501 125.101 150.801 125.501 150.701 126.201C150.501 126.701 150.901 127.501 150.501 127.901C151.001 128.401 150.701 128.701 150.501 128.901C149.501 129.701 149.401 130.901 148.901 131.801C148.301 132.801 147.901 133.801 147.401 134.801C147.401 135.001 147.501 135.301 147.201 135.301C146.901 135.301 146.901 135.701 146.801 135.901C146.701 136.101 146.701 136.401 146.501 136.501C145.501 136.901 145.401 137.901 144.901 138.601C144.401 139.301 143.901 140.001 143.501 140.801C143.301 141.301 143.301 141.901 142.901 142.301C142.701 142.501 142.901 142.801 142.201 142.701C142.001 142.701 142.201 143.101 142.201 143.201C142.001 143.501 141.801 143.801 141.601 144.101C141.301 144.501 140.901 144.901 140.701 145.301C140.501 145.601 140.501 146.001 140.401 146.201C140.201 146.501 140.001 146.701 139.801 147.001C139.501 147.301 139.001 147.401 138.701 147.701C138.401 148.001 138.301 148.501 137.801 148.601C136.901 148.801 136.601 149.601 136.001 150.101C135.401 150.601 134.901 151.101 134.401 151.701C134.101 152.001 133.501 152.001 133.201 152.201C133.101 152.301 131.901 151.401 131.601 151.001L131.501 150.801C131.501 150.201 131.201 149.401 131.501 149.101C132.001 148.701 132.501 148.201 132.901 147.701L133.201 148.101Z" fill="black"/>
<path d="M128 165.999C127.2 166.299 126.3 166.599 125.4 166.899C125.1 166.999 124.7 166.899 124.5 167.399C124.4 167.699 123.9 167.099 123.6 167.199C122.8 167.399 121.9 167.499 121 167.599C120.2 167.699 119.3 167.899 118.4 167.899C117.5 167.899 116.7 167.399 115.8 167.599C115 167.599 114.5 166.999 113.8 166.799C113 166.599 112.3 166.299 111.7 165.699C111.3 165.199 111 164.699 110.5 164.299C110.2 164.099 109.7 163.899 109.4 163.499C109.2 163.099 109.2 162.499 108.5 162.299C108.5 162.299 108.5 161.999 108.5 161.899C108.8 161.299 108.7 160.799 108.4 160.399C108.1 159.999 108.2 159.699 108.2 159.399C108.2 158.499 108.4 157.599 108.8 156.799C109.1 156.199 109.6 155.699 109.9 155.199C110.3 154.699 110.5 153.899 111.1 153.699C111.7 153.499 112.1 153.099 112.6 152.699C112.9 152.499 113.3 152.499 113.2 151.899C113.2 151.899 113.2 151.799 113.4 151.799C114 151.899 114.3 151.699 114.7 151.299C115 150.999 115.4 150.599 115.8 150.499C116.7 150.399 117.5 149.999 118.4 149.799C118.6 149.799 118.9 149.799 119 149.399C119 149.199 119.3 149.199 119.4 149.299C120.1 149.799 120.7 149.299 121.3 149.299C122 149.299 122.7 148.999 123.5 149.299C123.8 149.499 124.2 149.599 124.6 148.999C124.8 148.699 125.1 148.999 125.4 148.999C125.6 148.999 125.8 148.699 126 148.699C126.2 148.699 126.4 148.899 126.6 148.999C126.6 148.999 126.7 148.999 126.8 148.999C127.9 148.399 128.9 149.299 130 149.199C131.1 149.199 132.4 149.299 133.7 150.099C134.4 150.499 135.2 151.499 134.5 152.599C134.2 153.099 133.7 153.299 133.3 153.399C133 153.399 132.8 153.399 132.6 153.399C132.4 153.399 132.1 153.399 131.9 153.399C131.4 153.399 130.8 153.799 130.3 153.399C130.1 153.299 129.9 153.599 129.8 152.999C129.8 152.999 129.8 152.899 129.7 152.999C128.8 153.699 128 153.099 127.1 153.199C126.4 153.199 125.7 153.899 124.9 153.599C124.5 154.199 124.1 154.199 123.6 153.999C122.1 153.399 120.7 153.999 119.3 154.299C117.9 154.499 116.7 154.999 115.6 155.599C115.4 155.699 115.5 156.099 115.1 155.999C114.8 155.999 114.7 156.299 114.5 156.399C114.3 156.599 114.3 156.799 114 156.899C113.5 156.999 113.1 157.399 112.9 157.799C112.7 158.199 112.6 158.699 112.5 159.099C112.2 159.999 112.2 160.899 112.6 161.299C112.9 161.599 113.4 161.599 113.7 161.999C113.9 162.199 114.2 161.999 114.2 162.599C114.2 162.799 114.6 162.499 114.8 162.599L116 162.999C116.5 163.199 117.1 163.399 117.7 163.399C118.1 163.399 118.4 163.199 118.8 163.199C119.2 163.199 119.6 163.199 119.9 163.199C120.4 163.199 120.9 163.399 121.4 163.399C121.9 163.399 122.4 162.999 123 163.199C124 163.499 124.9 162.999 125.9 162.699C126.8 162.399 127.8 162.099 128.6 161.599C129.1 161.299 129.8 161.599 130.3 161.299C130.5 161.199 131.5 162.299 131.7 162.799C131.7 162.799 131.7 162.999 131.7 163.099C131.4 163.799 131.2 164.699 130.6 164.899C129.7 165.299 128.8 165.699 127.8 166.099L128 165.999Z" fill="black"/>
<path d="M103.7 202.899C102.6 202.499 101.6 201.899 100.7 201.399C100.3 201.199 100.1 200.699 99.4998 200.899C99.1998 200.899 99.1998 200.199 98.8998 199.999C97.9998 199.399 97.2998 198.699 96.5998 198.099C95.7998 197.499 94.9998 196.999 94.2998 196.399C93.4998 195.799 92.9998 194.799 92.0998 193.999C91.2998 193.299 91.2998 192.099 90.9998 191.099C90.5998 189.999 90.6998 188.599 91.2998 187.699C91.6998 186.999 92.1998 186.499 92.4998 185.799C92.6998 185.399 92.6998 184.899 92.9998 184.499C93.2998 184.199 93.7998 183.999 93.6998 183.299C93.6998 183.299 93.8998 183.199 93.9998 183.199C94.5998 183.199 94.9998 182.899 95.0998 182.399C95.1998 181.999 95.4998 181.799 95.6998 181.599C96.3998 181.099 96.9998 180.699 97.6998 180.299C98.1998 179.999 98.7998 179.899 99.3998 179.599C99.8998 179.299 100.3 178.699 101 178.699C101.6 178.699 102.1 178.299 102.6 177.999C102.9 177.799 103.3 177.899 103.2 177.199C103.2 177.199 103.2 177.099 103.4 177.099C104.6 177.299 104.8 175.899 105.6 175.599C106.5 175.299 107.2 174.599 108 174.099C108.2 173.999 108.5 173.999 108.5 173.499C108.5 173.299 108.7 173.199 108.9 173.199C109.8 173.299 110.3 172.599 110.9 172.299C111.7 171.999 112.2 171.299 113.2 171.199C113.6 171.199 114.1 170.999 114.1 170.299C114.1 169.999 114.6 169.999 114.8 169.799C115 169.599 115 169.299 115.2 169.099C115.4 168.999 115.7 169.099 115.9 169.099C115.9 169.099 116 169.099 116.1 168.999C116.8 167.799 118.2 167.899 119.2 167.099C120.1 166.299 121.2 165.699 122.3 165.099C122.4 165.099 122.6 164.899 122.8 164.899C123 164.899 123.3 164.699 123.6 164.699C124.2 164.699 124.8 164.899 125.1 165.599C125.2 165.899 125.3 166.199 125.3 166.499C125.3 166.699 125.3 166.899 125.2 166.999C125.1 167.199 125 167.399 124.9 167.499C124.9 167.499 124.7 167.699 124.6 167.799C124.5 167.999 124.3 168.099 124.2 168.199C123.6 168.799 123.3 169.699 122.5 169.899C122.2 169.899 122.2 170.399 121.7 170.099H121.5C121 171.399 119.8 171.499 118.9 172.199C118.1 172.699 117.7 173.799 116.8 173.999C116.8 174.799 116.1 174.999 115.6 175.199C113.7 175.599 112.4 176.999 110.8 177.899C109.2 178.799 107.7 179.899 106.1 180.899C105.8 181.099 105.8 181.499 105.3 181.499C104.9 181.499 104.6 181.899 104.3 182.099C104 182.299 103.7 182.599 103.3 182.699C101.7 182.899 100.7 184.099 99.3998 184.799C98.1998 185.499 96.9998 186.299 96.2998 187.299C95.8998 187.899 95.8998 188.599 95.5998 188.999C95.4998 189.199 95.6998 189.499 95.0998 189.599C94.8998 189.599 95.3998 189.899 95.3998 189.999C95.3998 190.299 95.3998 190.599 95.6998 190.899C95.8998 191.399 96.2998 191.899 96.7998 192.399C97.0998 192.699 97.5998 192.899 97.9998 193.199C98.3998 193.499 98.7998 193.899 99.1998 194.299C99.5998 194.799 99.9998 195.399 100.4 195.899C100.9 196.399 101.6 196.599 101.9 197.199C102.6 198.299 103.7 198.699 104.7 199.199C105.7 199.699 106.8 200.099 107.8 200.199C108.4 200.199 108.9 200.799 109.5 200.699C109.8 200.699 110.3 202.099 110.2 202.599C110.2 202.599 110.2 202.799 110.1 202.799C109.4 203.299 108.6 203.999 107.7 203.899C106.4 203.699 105.1 203.399 103.9 202.899H103.7Z" fill="black"/>
<path d="M108.3 200.8C108.4 200.6 108.6 200.5 108.7 200.2C108.7 200.2 109 200.2 108.6 199.8C108.4 199.6 109 199.8 109 199.8C109 199.6 109.2 199.4 109.3 199.2C109.3 199 109.3 198.7 109.3 198.5C109.3 198.3 109.7 198.2 109.5 197.9C109.3 197.6 109.9 197.7 109.8 197.5C109.8 197.3 109.8 197.1 110.1 197C110.3 197 110.6 197 110.5 196.8C110.5 196.7 110.2 196.5 110.3 196.4C110.3 196.4 110.6 196.4 110.1 196C110.1 196 110.1 196 110.3 196C110.7 196.1 110.7 196 110.5 195.8C110.3 195.6 110.4 195.6 110.4 195.5C110.4 195.3 110.5 195.1 110.7 195C110.8 194.9 111.1 194.9 111.2 194.8C111.3 194.7 111.2 194.4 111.5 194.4C111.8 194.4 111.9 194.3 112 194.2C112 194.2 112.3 194.2 111.8 193.8C112.6 194 111.8 193.3 112.1 193.2C112.4 193.1 112.4 192.8 112.5 192.6C112.5 192.6 112.7 192.6 112.3 192.3C112.2 192.3 112.2 192.1 112.3 192.2C112.9 192.3 112.7 192 112.9 191.9C113.1 191.8 112.9 191.5 113.5 191.5C113.7 191.5 113.9 191.5 113.5 191.1C113.3 190.9 113.5 191 113.5 190.9L113.3 190.6C113.3 190.6 113.6 190.6 113.7 190.6C113.3 190 114.2 190.2 114.2 189.8C114.2 189.4 114.4 189.2 114.6 189C114.7 188.9 115 188.8 116 189.3C116.5 189.5 117 189.8 117.2 190C117.4 190.2 117.6 190.3 117.6 190.4C117.6 190.5 117.7 190.7 117.8 190.8C117.8 191.1 118.3 191.5 117.9 191.5C117.8 191.5 118 191.7 117.6 191.5C118.2 192.1 117.6 192.1 117.6 192.4C117.6 192.6 118 193.1 117.6 193.2C118.1 193.6 117.9 193.7 117.6 193.7C116.8 193.7 117 194.4 116.7 194.8C116.4 195.2 116.3 195.6 116 196C116 196 116.2 196.3 116 196.2C115.7 196.2 115.9 196.4 115.8 196.4C115.8 196.4 115.8 196.6 115.6 196.6C114.8 196.6 115 197.1 114.8 197.4C114.6 197.7 114.3 198 114.3 198.4C114.3 198.6 114.5 199 114.3 199.1C114.3 199.1 114.5 199.4 113.9 199.2C113.7 199.2 114.1 199.4 114.1 199.5C114.1 199.7 114 199.8 113.9 199.9C113.8 200.1 113.7 200.3 113.6 200.5C113.6 200.6 113.7 200.9 113.7 201C113.7 201.2 113.7 201.3 113.5 201.4C113.3 201.5 113.1 201.6 112.9 201.7C112.7 201.8 112.9 202.2 112.5 202.2C111.9 202.2 111.9 202.7 111.7 202.9L111.5 203.1L111.2 203.4C111.1 203.6 110.9 203.7 110.5 203.9C110.2 204.1 109.4 204.3 108.8 204.1L104.4 202.4L109.5 200.5C109.7 200.5 109.8 200.9 110 200.9C110 200.9 110.2 202.4 110.2 202.9V203.1C110 203.6 109.9 204.3 109.7 204.2C109.7 204.2 109.7 204.2 109.6 204.2V202.1C109.6 202.1 109.6 202 109.4 201.7C109.3 201.6 109.1 201.4 109 201.3L108.5 200.9L108.3 200.8Z" fill="black"/>
<path d="M129.9 203.901C129.7 204.001 129.4 204.201 129.3 204.301C129.3 204.301 129 204.201 129.2 204.701C129.2 205.001 128.9 204.501 128.8 204.501C128.6 204.701 128.4 204.701 128.2 204.901C128 205.101 127.9 205.401 127.7 205.501C127.5 205.701 127.2 205.501 127.1 205.801C127.1 206.101 126.7 205.801 126.5 205.801C126.4 206.001 126.2 206.101 125.9 205.901C125.7 205.801 125.5 205.601 125.4 205.701C125.4 205.701 125.4 206.101 125.2 206.101C125.2 206.101 125 205.901 125 206.501C125 206.501 125 206.501 125 206.401C124.8 206.001 124.7 206.101 124.7 206.401C124.7 206.701 124.7 206.701 124.5 206.701C124.3 206.701 124.1 206.801 123.9 206.701C123.7 206.701 123.6 206.501 123.4 206.401C123.2 206.401 123.1 206.701 122.9 206.401C122.7 206.101 122.6 206.101 122.5 206.101C122.5 206.101 122.3 205.801 122.3 206.501C122 205.701 121.9 206.801 121.7 206.501C121.5 206.301 121.2 206.501 121 206.501C121 206.501 120.9 206.301 120.8 206.801C120.8 207.001 120.8 207.001 120.7 206.801C120.5 206.201 120.4 206.601 120.2 206.401C120 206.301 119.8 206.601 119.6 206.101C119.6 205.901 119.4 205.801 119.3 206.401C119.3 206.701 119.2 206.401 119.1 206.401C119.1 206.401 119 206.701 118.9 206.701C118.9 206.701 118.9 206.501 118.8 206.301C118.5 206.901 118.3 206.001 118 206.201C117.7 206.401 117.4 206.201 117.2 206.201C117.1 206.201 116.9 205.901 117 204.801C117 204.301 117 203.701 117.2 203.401C117.2 203.201 117.4 202.901 117.4 202.901C117.4 202.901 117.6 202.701 117.7 202.601C117.9 202.401 118.1 201.901 118.2 202.201C118.2 202.201 118.3 202.001 118.3 202.501C118.6 201.701 118.8 202.301 119 202.201C119.2 202.201 119.4 201.501 119.6 201.801C119.7 201.201 119.8 201.301 119.9 201.501C120.2 202.201 120.6 201.701 121 201.801C121.4 201.801 121.7 201.801 122.1 201.801C122.1 201.801 122.1 201.401 122.3 201.801C122.3 202.101 122.5 201.801 122.5 201.801C122.5 201.801 122.6 201.701 122.7 201.801C123 202.401 123.3 202.001 123.6 202.001C123.9 202.001 124.2 202.001 124.4 201.801C124.5 201.701 124.6 201.301 124.8 201.401C124.8 201.401 124.8 201.101 125.1 201.601C125.1 201.801 125.1 201.301 125.1 201.301C125.1 201.301 125.3 201.301 125.4 201.201C125.5 201.201 125.7 201.201 125.8 201.001C125.8 201.001 125.8 200.701 125.9 200.601C125.9 200.601 126 200.501 126.1 200.501C126.2 200.501 126.4 200.701 126.6 200.701C126.7 200.701 126.7 200.401 127 200.601C127.4 200.901 127.5 200.601 127.7 200.601C127.9 200.601 128.1 200.401 128.2 200.201C128.2 200.101 128.7 200.401 128.8 200.201C128.8 200.201 129.9 201.201 130.2 201.601L130.3 201.801C130.5 202.201 130.9 202.901 130.7 203.001C130.4 203.101 130.2 203.401 130 203.501L129.9 203.901Z" fill="black"/>
<path d="M164.7 110.701C164 109.601 163.4 108.601 162.6 107.701C162.3 107.301 162.2 106.801 161.5 106.801C161.1 106.801 161.4 106.001 161 105.701C160.2 104.901 159.5 104.001 158.6 103.301C157.7 102.601 156.7 102.101 155.8 101.501C154.9 100.901 154.1 100.101 153 99.901C152.1 99.801 151.6 99.001 150.7 98.801C149.8 98.601 148.9 98.401 148.1 98.001C147.5 97.701 146.9 97.401 146.3 97.401C145.9 97.401 145.5 97.701 145.1 97.701C144.7 97.701 144.3 97.401 143.9 98.001C143.9 98.001 143.7 98.001 143.6 97.901C143.2 97.501 142.6 97.601 142.3 97.901C142 98.201 141.7 98.201 141.4 98.301C141 98.301 140.6 98.501 140.1 98.601C139.7 98.701 139.3 98.801 138.8 98.901C138.2 99.001 137.5 99.101 136.8 99.301C136.1 99.501 135.6 100.101 134.9 100.201C134.2 100.201 133.6 100.601 133.1 101.001C132.8 101.201 132.3 101.201 132.4 101.901C132.4 101.901 132.3 102.001 132.2 102.001C130.8 102.001 130.7 103.501 129.8 104.101C128.9 104.701 128.2 105.601 127.5 106.501C127.3 106.701 127 106.901 127.2 107.401C127.2 107.601 127.2 107.801 126.9 107.901C125.9 108.201 125.7 109.201 125.2 109.801C124.6 110.601 124.4 111.601 123.5 112.201C123.1 112.501 122.8 113.001 123.1 113.701C123.3 114.001 122.8 114.401 122.7 114.701C122.7 115.001 122.8 115.401 122.7 115.601C122.7 115.801 122.3 116.001 122.1 116.201C122.1 116.201 122.1 116.301 122.1 116.401C122.3 117.901 121.1 119.101 121 120.501C121 121.901 120.7 123.401 120.6 124.801C120.6 125.601 120.4 126.401 119.2 127.001C118.7 127.301 118.1 127.301 117.8 127.001C117.6 126.701 117.3 126.401 117.2 126.101C117.1 125.601 117 125.101 116.9 124.601C116.7 123.601 116.3 122.501 116.7 121.401C116.8 121.101 116.6 120.601 117.1 120.401L117.2 120.201C116.6 118.601 117.5 117.301 117.8 115.801C118.1 114.601 117.9 113.201 118.7 112.101C118.4 111.201 118.8 110.501 119.3 109.901C121 107.901 122 105.601 123.6 103.701C125.3 101.801 127 99.901 129.1 98.401C129.4 98.101 129.5 97.601 130.1 97.601C130.6 97.601 131 97.001 131.5 96.701C131.9 96.401 132.3 96.001 132.9 96.001C135 95.601 136.7 94.501 138.7 94.101C140.7 93.701 142.7 93.501 144.7 93.401C145.9 93.401 147.2 93.101 148.5 93.501C149 93.701 149.7 93.501 150 94.201C150 94.401 150.7 94.101 151 94.201C151.8 94.401 152.6 94.801 153.4 95.101C154.5 95.601 155.5 96.201 156.5 96.701C157.1 97.001 157.9 97.201 158.5 97.601C159.1 98.001 159.8 98.501 160.3 99.001C161 99.701 161.5 100.501 162.1 101.201C162.7 101.901 163.6 102.501 164 103.401C164.7 105.001 165.9 106.201 166.8 107.601C167.7 109.001 168.5 110.501 169.4 111.901C169.7 112.301 169.8 112.701 169.9 113.201V113.501V113.601C169.9 113.801 169.9 113.901 170 114.001C170 114.501 170 114.901 170 115.401C170 115.601 169.8 115.801 169.5 116.001C169.3 116.101 169.1 116.201 168.9 116.201C168.7 116.201 168.4 116.201 168.2 116.101C167.9 115.801 168 115.501 168.1 115.401C168.2 115.201 168.4 115.101 168.4 115.001C168.4 115.001 168.4 115.001 168.4 115.101C168.4 115.101 168.4 115.101 168.4 115.201C168.4 115.201 168.4 115.101 168.1 114.901C168 114.901 167.9 114.801 167.8 114.701C167.7 114.701 167.8 114.701 167.7 114.701C167.7 114.701 167.6 114.701 167.5 114.701H167.7H167.9C168.1 114.701 166.4 115.501 167.1 115.101C167.1 115.101 166.9 114.901 166.8 114.901C166.6 114.701 166.5 114.501 166.4 114.301C165.8 113.001 165 111.801 164.3 110.601L164.7 110.701Z" fill="black"/>
</svg>
