<svg width="300" height="300" viewBox="0 0 300 300" fill="none" xmlns="http://www.w3.org/2000/svg">
<path d="M134 147.199C133.6 146.699 133.2 146.199 132.7 145.799C132.5 145.599 132.5 145.299 132 145.499C131.7 145.499 132 144.999 131.9 144.799C131.4 144.399 131.1 143.899 130.6 143.499C130.2 143.099 129.6 142.799 129.2 142.499C128.8 142.099 128.6 141.499 128 141.299C127.5 141.099 127.5 140.499 127.1 140.199C126.7 139.899 126.3 139.599 126.1 139.099C126 138.699 125.9 138.299 125.6 138.099C125.4 137.999 125 138.099 124.9 137.899C124.8 137.699 124.8 137.399 124.2 137.599C124.2 137.599 124.2 137.499 124.2 137.399C124.3 136.899 124.2 136.799 123.8 136.799C123.5 136.799 123.4 136.699 123.2 136.599C122.8 136.299 122.5 135.899 122.2 135.499C122 135.199 121.9 134.799 121.7 134.499C121.5 134.199 121 134.099 121 133.599C121 133.099 120.7 132.899 120.5 132.599C120.4 132.499 120.5 132.099 119.8 132.399C120 131.399 118.8 131.799 118.6 131.199C118.4 130.599 117.8 130.299 117.4 129.899C117.3 129.799 117.4 129.499 116.9 129.699C116.7 129.699 116.6 129.699 116.6 129.499C116.8 128.699 116.2 128.699 115.9 128.299C115.6 127.799 115.1 127.699 115.1 126.899C115.1 126.599 115 126.299 114.4 126.499C114.1 126.499 114.1 126.199 114 126.099C113.9 126.099 113.6 126.099 113.4 125.999C113.4 125.999 113.4 125.699 113.4 125.499C112.4 125.499 112.6 124.299 111.9 123.999C111.3 123.699 110.8 123.199 110.4 122.799C110.1 122.599 110 122.199 110.3 121.099C110.4 120.599 110.7 120.099 111 119.899C111.2 119.799 111.5 119.599 111.7 119.699C112 119.699 112.3 119.699 112.5 119.899C113.1 119.999 113.8 119.899 114.1 120.599C114.1 120.799 114.5 120.599 114.3 121.199V121.299C115.4 121.299 115.6 122.099 116.1 122.599C116.6 122.999 117.4 122.999 117.6 123.599C118.3 123.399 118.5 123.799 118.5 124.099C118.8 125.399 119.9 125.899 120.6 126.899C121.3 127.799 122.2 128.599 123 129.499C123.1 129.699 123.5 129.499 123.5 129.899C123.5 130.199 123.8 130.299 124 130.499C124.2 130.699 124.4 130.799 124.5 130.999C124.6 132.099 125.6 132.499 126.1 133.299C126.7 133.999 127.3 134.699 128 135.299C128.5 135.599 129.1 135.799 129.4 136.299C129.5 136.499 129.9 136.499 129.7 136.999C129.7 137.199 130.1 136.999 130.2 137.099C130.5 137.299 130.7 137.699 131 137.899C131.4 138.299 131.7 138.699 132.1 139.099C132.3 139.299 132.7 139.399 133 139.599C133.3 139.799 133.5 140.099 133.7 140.299C133.9 140.699 134.1 141.099 134.3 141.499C134.6 141.899 135.1 141.999 135.2 142.499C135.4 143.399 136.1 143.799 136.6 144.499C137.1 145.099 137.6 145.699 138.2 146.199C138.6 146.499 138.5 147.099 138.8 147.399C138.9 147.499 138.1 148.799 137.6 148.999H137.4C136.8 148.999 136 149.199 135.7 148.799C135.3 148.199 134.7 147.699 134.2 147.199H134Z" fill="black"/>
<path d="M69.7 126.499C68.8 127.099 67.9 127.799 67.3 128.699C67.1 128.999 66.6 129.199 66.9 129.899C67 130.199 66.3 130.199 66.1 130.599C65.7 131.599 65.3 132.499 65.2 133.599C65 134.699 65.2 135.699 65.1 136.799C65.1 137.899 64.7 138.999 65.1 140.099C65.4 141.099 64.9 141.899 65 142.799C65.1 143.799 65.2 144.799 65 145.699C64.8 146.399 64.6 147.099 64.8 147.799C64.8 148.199 65.2 148.599 65.2 149.099C65.2 149.499 64.9 149.999 65.6 150.399C65.6 150.399 65.6 150.599 65.5 150.699C65.1 151.199 65.2 151.799 65.5 152.099C65.8 152.499 65.8 152.799 65.8 153.199C65.9 154.199 66 155.099 66 156.099C66 156.799 65.9 157.599 65.9 158.299C65.9 159.099 66.3 159.799 66 160.599C65.8 161.299 65.9 161.999 66 162.699C66 163.099 65.8 163.599 66.5 163.799V163.999C65.8 165.199 67 166.199 67 167.299C67 168.499 67.3 169.699 67.5 170.799C67.5 171.099 67.5 171.499 67.9 171.699C68.1 171.699 68.1 172.099 68.1 172.299C67.6 173.299 68.1 174.099 68.1 174.999C68.1 175.999 68.6 176.999 68.3 178.099C68.2 178.599 68.2 179.199 68.8 179.599C69.1 179.799 68.9 180.299 69.1 180.699C69.2 180.999 69.5 181.199 69.6 181.499C69.6 181.799 69.5 182.099 69.4 182.299C69.4 182.299 69.4 182.499 69.4 182.599C70.3 183.999 69.7 185.599 70.2 187.099C70.7 188.599 70.9 190.099 71.1 191.599C71.2 192.399 71.1 193.299 70.2 194.099C69.7 194.499 69.2 194.599 68.8 194.299C68.5 194.099 68.2 193.799 68.1 193.499C67.9 192.999 67.7 192.599 67.5 192.099C67.1 191.199 66.4 190.299 66.5 189.299C66.5 188.999 66.2 188.699 66.6 188.299V188.099C65.6 186.899 65.8 185.399 65.5 184.099C65.2 182.999 64.4 181.899 64.5 180.699C63.8 180.199 63.7 179.399 63.8 178.699C64.1 176.299 63.2 174.099 63 171.699C62.7 169.299 62.3 166.999 62.1 164.599C62.1 164.199 61.6 163.899 61.9 163.399C62.1 162.899 61.9 162.399 61.8 161.899C61.8 161.399 61.6 160.899 61.7 160.499C62.2 158.599 61.6 156.799 61.5 154.899C61.5 152.999 61.4 151.199 61.1 149.299C61 148.199 60.6 147.099 60.7 145.899C60.7 145.399 60.4 144.899 61 144.399C61.2 144.299 60.7 143.799 60.7 143.499C60.7 142.699 60.7 141.899 60.7 141.099C60.7 139.999 60.7 138.899 60.7 137.799C60.7 137.099 60.5 136.399 60.5 135.699C60.5 134.999 60.5 134.199 60.8 133.499C61 132.599 61.4 131.699 61.8 130.699C62.2 129.799 62.3 128.599 63 127.799C63.7 127.099 64.2 126.399 64.9 125.699C65.5 124.999 66.2 124.299 66.9 123.799C68.4 122.799 70 121.999 71.5 121.299C72.4 120.899 73.4 121.099 74.2 120.799C74.6 120.699 75.6 121.899 75.5 122.499C75.5 122.599 75.5 122.699 75.5 122.799C74.8 123.499 74.3 124.399 73.4 124.699C72.1 125.099 70.9 125.699 69.8 126.399L69.7 126.499Z" fill="black"/>
<path d="M116.3 153.898C116.7 153.698 117 153.598 117.4 153.298C117.5 153.298 117.8 153.298 117.7 152.798C117.7 152.498 118.1 152.998 118.2 152.898C118.5 152.698 118.9 152.598 119.2 152.398C119.5 152.198 119.7 151.798 120 151.598C120.3 151.398 120.8 151.598 121 151.098C121.2 150.698 121.6 151.098 121.8 150.798C122 150.598 122.3 150.398 122.7 150.498C123 150.498 123.3 150.698 123.4 150.498C123.4 150.398 123.4 149.998 123.6 149.998C123.7 149.998 124 150.198 123.9 149.498C123.9 149.498 123.9 149.498 124.1 149.498C124.4 149.798 124.6 149.698 124.6 149.498C124.6 149.198 124.7 149.198 124.8 149.098C125.1 148.998 125.4 148.798 125.7 148.798C125.9 148.798 126.2 148.798 126.5 148.798C126.7 148.798 126.9 148.398 127.2 148.598C127.5 148.798 127.7 148.698 127.9 148.598C128 148.598 128.3 148.798 128.1 148.098C128.7 148.798 128.7 147.598 129.1 147.698C129.5 147.698 129.8 147.498 130.2 147.398C130.2 147.398 130.5 147.498 130.4 146.998C130.4 146.798 130.4 146.798 130.6 146.898C131.1 147.398 131.2 146.898 131.5 146.898C131.8 146.898 132.1 146.498 132.5 146.898C132.7 147.098 132.9 147.098 132.9 146.498C132.9 146.198 133.1 146.498 133.2 146.298C133.2 146.298 133.2 145.898 133.4 145.898C133.4 145.898 133.6 146.098 133.7 146.198C134 145.398 134.7 146.198 135.1 145.798C135.5 145.498 136 145.398 136.5 145.398C136.8 145.398 137.1 145.398 137.6 146.498C137.8 146.998 138 147.498 137.9 147.898C137.9 148.198 137.9 148.398 137.8 148.498C137.7 148.598 137.6 148.798 137.5 148.898C137.3 149.198 137.1 149.798 136.8 149.598C136.7 149.598 136.7 149.898 136.4 149.398C136.2 150.298 135.7 149.898 135.3 150.098C135 150.298 134.8 150.998 134.4 150.798C134.4 151.498 134.2 151.398 133.9 151.298C133 150.898 132.5 151.498 131.8 151.698C131.1 151.798 130.5 152.198 129.8 152.398C129.7 152.398 129.8 152.798 129.5 152.598C129.3 152.398 129.2 152.598 129 152.698C128.9 152.698 128.8 152.898 128.6 152.798C127.8 152.398 127.5 152.998 126.9 153.098C126.4 153.198 125.8 153.398 125.4 153.798C125.1 153.998 125 154.498 124.6 154.498C124.4 154.498 124.4 154.898 124.1 154.398C124 154.298 124.1 154.698 124 154.798C123.8 154.898 123.6 154.998 123.4 155.098C123.1 155.198 122.8 155.298 122.5 155.498C122.3 155.598 122.3 155.898 122.1 156.098C121.9 156.198 121.8 156.298 121.5 156.398C121.2 156.398 120.9 156.398 120.6 156.398C120.3 156.398 120.2 156.798 119.8 156.698C119.1 156.498 118.8 156.898 118.4 157.098C117.9 157.298 117.5 157.398 117.1 157.798C116.9 157.998 116.4 157.698 116.2 157.798C116.1 157.798 115.3 156.598 115.1 156.198V155.998C115.1 155.498 115 154.698 115.3 154.598C115.7 154.498 116.1 154.198 116.5 153.998L116.3 153.898Z" fill="black"/>
<path d="M118.9 172.799C118.9 172.499 118.8 172.099 118.6 171.799C118.6 171.699 118.8 171.499 118.2 171.499C117.9 171.499 118.5 171.199 118.5 171.099C118.4 170.799 118.4 170.499 118.2 170.199C118.1 169.899 117.8 169.699 117.6 169.399C117.5 169.099 117.6 168.699 117.3 168.499C117 168.299 117.4 167.999 117.3 167.799C117.1 167.599 117 167.299 117.1 166.999C117.2 166.799 117.4 166.599 117.2 166.399C117.2 166.399 116.8 166.299 116.8 166.199C116.8 166.099 117 165.899 116.4 165.899C116.4 165.899 116.4 165.899 116.5 165.799C116.9 165.599 116.8 165.399 116.5 165.399C116.2 165.399 116.2 165.299 116.2 165.199C116.2 164.999 116 164.699 116 164.499C116 164.299 116.2 164.099 116.2 163.899C116.2 163.699 115.9 163.599 116.2 163.299C116.5 162.999 116.4 162.899 116.3 162.699C116.3 162.699 116.5 162.399 115.9 162.499C116.6 161.999 115.5 161.999 115.6 161.699C115.7 161.399 115.6 161.099 115.4 160.799C115.4 160.799 115.5 160.599 115.1 160.599C114.9 160.599 114.9 160.599 115 160.499C115.5 160.099 115.1 159.999 115.2 159.699C115.2 159.399 114.9 159.199 115.2 158.799C115.4 158.599 115.4 158.499 114.8 158.499C114.5 158.499 114.8 158.299 114.7 158.199C114.7 158.199 114.3 158.199 114.3 158.099C114.3 158.099 114.5 157.899 114.6 157.799C113.9 157.599 114.6 156.999 114.3 156.699C114 156.399 114 155.999 113.9 155.599C113.9 155.399 113.9 155.099 115 154.599C115.5 154.399 116 154.199 116.3 154.199C116.5 154.199 116.8 154.199 116.9 154.199C117 154.199 117.2 154.399 117.3 154.499C117.6 154.699 118.2 154.799 118 155.099C118 155.199 118.3 155.199 117.8 155.399C118.7 155.499 118.3 155.999 118.4 156.399C118.5 156.699 119.2 156.799 119 157.199C119.7 157.199 119.6 157.399 119.5 157.599C119 158.399 119.6 158.799 119.7 159.499C119.7 160.099 120 160.699 120.1 161.299C120.1 161.399 120.5 161.399 120.3 161.599C120.1 161.799 120.3 161.899 120.3 161.999C120.3 162.099 120.5 162.199 120.3 162.399C119.8 162.999 120.3 163.399 120.3 163.899C120.3 164.399 120.3 164.899 120.7 165.299C120.9 165.599 121.3 165.799 121.2 166.099C121.2 166.199 121.5 166.299 121 166.499C120.8 166.499 121.3 166.499 121.4 166.699C121.4 166.899 121.5 167.099 121.6 167.299C121.6 167.599 121.6 167.899 121.8 168.099C121.8 168.299 122.2 168.399 122.3 168.499C122.4 168.699 122.4 168.799 122.4 168.999C122.4 169.199 122.2 169.499 122.2 169.699C122.2 169.899 122.5 170.099 122.3 170.399C121.9 170.899 122.3 171.299 122.3 171.699C122.3 172.099 122.4 172.499 122.6 172.899C122.7 173.099 122.3 173.399 122.4 173.699C122.4 173.699 121 174.299 120.5 174.399H120.3C119.8 174.399 119 174.399 119 173.999C119 173.599 118.8 173.299 118.7 172.899L118.9 172.799Z" fill="black"/>
<path d="M112.501 192.9C112.601 192.5 112.801 192.1 112.801 191.7C112.801 191.5 113.101 191.5 112.701 191.2C112.501 191 113.101 191.1 113.101 191C113.101 190.6 113.401 190.3 113.401 189.9C113.401 189.5 113.401 189.1 113.401 188.7C113.401 188.3 113.901 188.1 113.701 187.6C113.501 187.2 114.101 187.1 114.101 186.8C114.101 186.5 114.101 186.1 114.401 185.9C114.601 185.7 114.901 185.6 114.901 185.4C114.901 185.2 114.601 185 114.701 184.9C114.701 184.8 115.101 184.7 114.501 184.4C114.501 184.4 114.501 184.4 114.701 184.4C115.101 184.4 115.201 184.2 114.901 184C114.701 183.8 114.801 183.7 114.801 183.6C114.801 183.3 114.901 183 115.101 182.7C115.201 182.5 115.501 182.4 115.701 182.2C115.801 182 115.701 181.7 116.001 181.5C116.401 181.4 116.401 181.2 116.501 181C116.501 180.9 116.901 180.8 116.301 180.5C117.201 180.5 116.301 179.8 116.601 179.5C116.901 179.2 116.901 178.8 117.001 178.5C117.001 178.5 117.201 178.4 116.801 178.1C116.701 178.1 116.701 177.9 116.801 177.9C117.501 177.9 117.201 177.4 117.401 177.2C117.601 176.9 117.401 176.5 118.001 176.4C118.201 176.4 118.401 176.2 117.901 175.9C117.701 175.7 117.901 175.7 117.901 175.6C117.901 175.5 117.601 175.3 117.701 175.2C117.701 175.2 118.001 175.2 118.101 175.1C117.601 174.5 118.601 174.3 118.501 173.8C118.501 173.5 118.501 173.4 118.501 173.1C118.501 172.8 118.701 172.5 118.901 172.1C119.101 171.7 119.601 171.3 120.701 171.9C121.201 172.1 121.601 172.5 121.801 172.8C121.901 173 122.101 173.2 122.101 173.3C122.101 173.4 122.201 173.6 122.301 173.7C122.401 173.9 122.901 174.2 122.501 174.5C122.401 174.5 122.601 174.8 122.101 174.7C122.801 175.3 122.101 175.7 122.101 176.1C122.101 176.5 122.501 177 122.101 177.3C122.601 177.7 122.501 177.9 122.201 178C121.301 178.5 121.501 179.3 121.201 180C120.901 180.7 120.701 181.4 120.401 182.1C120.401 182.2 120.701 182.4 120.401 182.5C120.101 182.5 120.201 182.8 120.201 182.9C120.201 183 120.201 183.2 120.001 183.3C119.201 183.6 119.401 184.3 119.101 184.8C118.801 185.3 118.601 185.8 118.601 186.4C118.601 186.8 118.801 187.2 118.601 187.5C118.501 187.6 118.801 187.9 118.201 187.8C118.001 187.8 118.401 188.1 118.401 188.2C118.401 188.4 118.301 188.7 118.201 188.9C118.101 189.2 117.901 189.5 117.901 189.9C117.901 190.1 118.001 190.4 118.001 190.6C118.001 190.8 118.001 191 117.801 191.2C117.601 191.4 117.401 191.6 117.201 191.9C117.101 192.1 117.201 192.5 116.901 192.7C116.301 193 116.401 193.6 116.201 194C116.001 194.4 115.801 194.9 115.801 195.4C115.801 195.7 115.301 195.8 115.201 196C115.201 196.1 113.701 196 113.201 195.8C113.201 195.8 113.001 195.8 113.001 195.7C112.601 195.3 112.001 194.9 112.101 194.6C112.301 194.1 112.401 193.7 112.501 193.2V192.9Z" fill="black"/>
<path d="M97.3993 174.299C97.4993 174.599 97.5993 174.799 97.7993 174.999C97.7993 174.999 97.7993 175.299 98.1993 174.999C98.3993 174.899 97.9993 175.299 98.0993 175.399C98.2993 175.599 98.3993 175.799 98.6993 175.899C98.8993 175.999 99.2993 175.999 99.4993 176.099C99.6993 176.099 99.7993 176.499 100.099 176.299C100.399 176.099 100.399 176.599 100.599 176.599C100.799 176.599 100.999 176.599 101.199 176.799C101.299 176.999 101.399 177.199 101.599 177.099C101.699 177.099 101.799 176.699 101.899 176.699C101.899 176.699 102.099 176.999 102.199 176.399C102.199 176.399 102.199 176.399 102.199 176.499C102.299 176.899 102.399 176.899 102.499 176.499C102.499 176.199 102.599 176.299 102.699 176.199C102.899 176.199 102.999 176.099 103.199 176.099C103.299 176.099 103.499 176.299 103.699 176.299C103.899 176.299 103.899 175.999 104.199 176.199C104.499 176.399 104.599 176.199 104.699 176.199C104.699 176.199 104.999 176.299 104.699 175.799C105.399 176.299 104.899 175.299 105.199 175.299C105.499 175.299 105.599 174.999 105.799 174.699C105.799 174.699 105.999 174.699 105.799 174.399C105.699 174.299 105.799 174.199 105.799 174.299C106.399 174.499 106.199 174.099 106.399 173.999C106.599 173.899 106.399 173.499 106.999 173.499C107.199 173.499 107.399 173.399 106.999 172.999C106.799 172.799 106.999 172.799 106.999 172.699L106.799 172.399C106.799 172.399 107.099 172.399 107.199 172.399C106.699 171.799 107.599 171.799 107.599 171.299C107.599 170.899 107.599 170.499 107.799 170.099C107.799 169.899 108.099 169.699 109.299 169.699C109.799 169.699 110.399 169.699 110.699 169.899C110.899 169.999 111.099 170.099 111.199 170.199C111.199 170.399 111.399 170.499 111.499 170.699C111.599 170.999 112.099 171.499 111.799 171.699C111.699 171.699 111.999 171.999 111.399 171.899C112.099 172.499 111.399 172.899 111.399 173.299C111.399 173.699 111.799 174.299 111.399 174.599C111.899 175.099 111.699 175.299 111.399 175.399C110.399 175.899 110.399 176.799 109.699 177.399C109.099 177.999 108.499 178.699 107.799 179.199C107.699 179.199 107.799 179.699 107.499 179.499C107.199 179.399 107.099 179.699 106.999 179.799C106.799 179.799 106.699 180.099 106.499 179.999C105.599 179.699 105.099 180.299 104.299 180.399C103.599 180.399 102.899 180.399 102.199 180.699C101.799 180.699 101.299 181.099 100.899 180.899C100.699 180.899 100.499 181.099 100.399 180.499C100.399 180.299 100.099 180.699 99.9993 180.699C99.6993 180.699 99.3993 180.499 99.0993 180.399C98.6993 180.199 98.2993 179.999 97.8993 179.899C97.6993 179.899 97.2993 179.899 96.9993 179.799C96.6993 179.699 96.4993 179.499 96.2993 179.299C96.0993 178.999 95.9993 178.599 95.7993 178.299C95.5993 177.999 95.0993 177.899 95.1993 177.399C95.1993 176.599 94.6993 176.199 94.4993 175.699C94.2993 175.099 94.0993 174.599 93.8993 173.999C93.6993 173.699 94.1993 173.299 94.0993 172.999C94.0993 172.799 95.4993 172.499 95.9993 172.499H96.1993C96.6993 172.699 97.3993 172.699 97.3993 172.999C97.3993 173.299 97.4993 173.599 97.6993 173.899L97.3993 174.299Z" fill="black"/>
<path d="M96.8008 149.699C96.8008 149.499 96.8008 149.299 96.8008 149.199C96.8008 149.199 97.0008 149.099 96.5008 148.999C96.2008 148.999 96.9008 148.899 96.8008 148.799C96.8008 148.599 96.8008 148.499 96.8008 148.299C96.8008 148.099 96.5008 147.999 96.5008 147.799C96.5008 147.599 96.8008 147.499 96.5008 147.299C96.2008 147.099 96.7008 147.099 96.6008 146.899C96.5008 146.799 96.4008 146.599 96.6008 146.499C96.8008 146.499 97.0008 146.299 96.9008 146.199C96.9008 146.199 96.5008 145.999 96.6008 145.999C96.6008 145.999 96.9008 145.999 96.3008 145.799C96.3008 145.799 96.3008 145.799 96.5008 145.799C96.9008 145.799 96.9008 145.799 96.6008 145.599C96.3008 145.599 96.4008 145.499 96.4008 145.399C96.4008 145.299 96.4008 145.099 96.4008 144.999C96.4008 144.999 96.7008 144.799 96.8008 144.799C96.8008 144.799 96.6008 144.499 96.9008 144.499C97.2008 144.499 97.2008 144.399 97.2008 144.299C97.2008 144.299 97.5008 144.299 96.9008 144.099C97.7008 144.099 96.7008 143.699 96.9008 143.599C97.1008 143.499 97.0008 143.299 97.1008 143.099C97.1008 143.099 97.3008 143.099 96.9008 142.899C96.7008 142.799 96.7008 142.899 96.9008 142.899C97.5008 142.899 97.2008 142.699 97.3008 142.599C97.5008 142.499 97.3008 142.299 97.7008 142.299C97.9008 142.299 98.0008 142.299 97.5008 141.999C97.3008 141.899 97.5008 141.999 97.5008 141.799L97.2008 141.599C97.2008 141.599 97.4008 141.599 97.6008 141.599C97.0008 141.199 98.0008 141.299 97.9008 140.999C97.9008 140.699 97.9008 140.599 98.1008 140.399C98.1008 140.399 98.4008 140.299 99.5008 140.599C100.001 140.799 100.501 140.999 100.801 141.199C101.001 141.299 101.201 141.399 101.201 141.499C101.201 141.499 101.401 141.699 101.401 141.799C101.501 141.999 102.001 142.299 101.701 142.299C101.701 142.299 101.901 142.499 101.401 142.299C102.101 142.699 101.501 142.699 101.501 142.899C101.501 142.999 102.101 143.399 101.801 143.399C102.401 143.699 102.201 143.699 102.001 143.699C101.301 143.699 101.601 144.099 101.501 144.399C101.301 144.599 101.401 144.899 101.301 145.199C101.301 145.199 101.601 145.399 101.301 145.399C101.001 145.399 101.301 145.499 101.301 145.599C101.301 145.599 101.401 145.699 101.301 145.799C100.601 145.799 101.001 146.199 100.901 146.399C100.901 146.599 100.701 146.799 100.901 146.999C100.901 147.099 101.301 147.299 101.201 147.399C101.201 147.399 101.501 147.499 100.901 147.499C100.701 147.499 101.201 147.499 101.201 147.599C101.201 147.599 101.201 147.799 101.201 147.899C101.201 147.999 101.201 148.099 101.201 148.299L101.501 148.499V148.699C101.501 148.699 101.201 148.899 101.101 148.999C101.101 149.099 101.301 149.199 101.101 149.299C100.601 149.499 100.801 149.699 100.801 149.899C100.801 150.099 100.801 150.299 100.801 150.399C100.801 150.399 100.401 150.599 100.401 150.699C100.401 150.699 98.9008 150.899 98.4008 150.999H98.2008C97.7008 150.999 97.0008 150.899 97.0008 150.699C97.0008 150.499 97.0008 150.299 97.0008 150.099L96.8008 149.699Z" fill="black"/>
<path d="M107.199 150.5C107.199 150.3 107.199 150.1 107.199 150C107.199 150 107.399 149.9 106.899 149.8C106.599 149.8 107.299 149.7 107.199 149.6C107.199 149.4 107.199 149.3 107.199 149.1C107.199 148.9 106.899 148.8 106.899 148.6C106.899 148.4 107.199 148.3 106.899 148.1C106.599 147.9 107.099 147.9 106.999 147.7C106.899 147.6 106.799 147.4 106.999 147.3C107.199 147.3 107.399 147.1 107.299 147C107.299 147 106.899 146.8 106.999 146.8C106.999 146.8 107.299 146.8 106.699 146.6C106.699 146.6 106.699 146.6 106.899 146.6C107.299 146.6 107.299 146.6 106.999 146.4C106.699 146.4 106.799 146.3 106.799 146.2C106.799 146.1 106.799 145.9 106.799 145.8C106.799 145.8 107.099 145.6 107.199 145.6C107.199 145.6 106.999 145.3 107.299 145.3C107.599 145.3 107.599 145.2 107.599 145.1C107.599 145.1 107.899 145.1 107.299 144.9C108.099 144.9 107.099 144.5 107.299 144.4C107.499 144.3 107.399 144.1 107.499 143.9C107.499 143.9 107.699 143.9 107.299 143.7C107.099 143.6 107.099 143.7 107.299 143.7C107.899 143.7 107.599 143.5 107.699 143.4C107.899 143.3 107.699 143.1 108.099 143.1C108.299 143.1 108.399 143.1 107.899 142.8C107.699 142.7 107.899 142.8 107.899 142.6L107.599 142.4C107.599 142.4 107.799 142.4 107.999 142.4C107.399 142 108.399 142.1 108.299 141.8C108.299 141.5 108.299 141.4 108.499 141.2C108.499 141.2 108.799 141.1 109.899 141.4C110.399 141.6 110.899 141.8 111.199 142C111.399 142.1 111.599 142.2 111.599 142.3C111.599 142.3 111.799 142.5 111.799 142.6C111.899 142.8 112.399 143.1 112.099 143.1C112.099 143.1 112.299 143.3 111.799 143.1C112.499 143.5 111.899 143.5 111.899 143.7C111.899 143.8 112.499 144.2 112.199 144.2C112.799 144.5 112.599 144.5 112.399 144.5C111.699 144.5 111.999 144.9 111.899 145.2C111.699 145.4 111.799 145.7 111.699 146C111.699 146 111.999 146.2 111.699 146.2C111.399 146.2 111.699 146.3 111.699 146.4C111.699 146.4 111.799 146.5 111.699 146.6C110.999 146.6 111.399 147 111.299 147.2C111.299 147.4 111.099 147.6 111.299 147.8C111.299 147.9 111.699 148.1 111.599 148.2C111.599 148.2 111.899 148.3 111.299 148.3C111.099 148.3 111.599 148.3 111.599 148.4C111.599 148.4 111.599 148.6 111.599 148.7C111.599 148.8 111.599 148.9 111.599 149.1L111.899 149.3V149.5C111.899 149.5 111.599 149.7 111.499 149.8C111.499 149.9 111.699 150 111.499 150.1C110.999 150.3 111.199 150.5 111.199 150.7C111.199 150.9 111.199 151.1 111.199 151.2C111.199 151.2 110.799 151.4 110.799 151.5C110.799 151.5 109.299 151.7 108.799 151.8H108.599C108.099 151.8 107.399 151.7 107.399 151.5C107.399 151.3 107.399 151.1 107.399 150.9L107.199 150.5Z" fill="black"/>
<path d="M200.699 117.8C198.099 118.1 195.499 118.5 192.999 119.3C192.099 119.6 190.999 119.6 190.199 120.5C189.799 120.9 188.699 120.5 187.799 120.9C185.399 121.7 182.799 122.4 180.099 122.9C177.499 123.4 174.799 123.7 171.999 123.3C170.599 123.1 169.199 122.6 167.899 122C166.599 121.4 165.399 120.6 164.299 119.9C162.299 118.6 161.299 116.8 159.899 115.4C158.399 113.9 156.999 112.3 155.899 110.8C155.099 109.7 154.199 108.7 152.999 108.2C152.299 107.9 151.499 107.8 150.699 107.6C149.999 107.3 149.099 106.9 148.299 107.4C148.299 107.4 147.899 107.3 147.699 107.2C146.899 106.7 145.699 106.7 144.999 107.1C144.299 107.4 143.599 107.4 142.899 107.6C140.999 107.9 138.999 108.4 136.999 108.8C135.499 109.1 134.299 109.3 133.399 109.8C132.999 110.1 132.599 110.6 131.999 111.3C131.399 112 130.499 112.9 129.499 113.2C127.499 113.9 125.799 114.2 123.999 114.1C122.999 114.1 121.999 113.6 120.999 113.9C120.999 113.9 120.599 113.9 120.399 113.7C119.199 112.9 118.099 112.4 116.899 111.9C115.699 111.5 114.599 111 113.599 110.4C111.599 109.1 109.399 108.5 106.999 108.1C106.399 108 105.699 107.7 105.099 108.1C104.899 108.2 104.199 108.1 103.899 108.1C102.199 107.3 100.299 107.6 98.3993 107.6C96.2993 107.6 94.0993 108 91.8993 107.7C90.9993 107.6 89.6993 107.7 88.6993 108.4C88.2993 108.7 87.1993 108.6 86.4993 108.9C85.8993 109.1 85.3993 109.5 84.7993 109.6C84.2993 109.7 83.6993 109.6 83.1993 109.7C82.9993 109.7 82.8993 109.7 82.6993 109.9C81.3993 110.7 80.0993 111.2 78.8993 111.9C77.5993 112.6 76.4993 113.3 75.5993 114.4C73.9993 116.6 72.6993 119.3 72.6993 121.9C72.6993 123.4 72.8993 124.7 72.3993 126.2C72.1993 126.9 71.7993 127.3 71.0993 126.7C70.5993 126.3 70.0993 125.7 69.7993 125C69.3993 123.9 69.0993 122.8 68.9993 121.7C68.7993 119.4 68.9993 116.8 70.3993 114.8C70.7993 114.2 70.9993 113.3 71.7993 113.1C71.8993 113.1 72.0993 112.9 72.1993 112.7C72.7993 111.2 74.0993 109.9 75.3993 109C76.6993 108.1 78.1993 107.4 79.6993 106.7C82.0993 105.6 84.4993 104.4 87.1993 104.2C88.4993 103.3 90.2993 103.2 91.6993 103.3C96.7993 103.5 101.899 102.7 107.099 103.7C109.699 104.2 112.399 105 114.799 106.2C117.199 107.4 119.299 108.7 121.299 109.5C121.999 109.8 122.599 109.5 123.399 110C124.099 110.4 125.099 110.2 125.899 110C126.599 109.9 127.199 109.5 127.699 109.2C128.299 109 128.899 108.4 129.699 107.5C130.099 107.1 130.599 106.7 131.199 106.3C131.699 106 132.299 105.7 132.799 105.4C133.899 104.9 134.899 104.6 135.899 104.4C136.899 104.1 137.799 103.9 138.799 103.7C142.699 103 146.999 102.4 151.399 103.6C152.699 103.9 153.999 104.4 155.199 105.1C156.399 105.8 157.499 106.6 158.399 107.5C159.199 108.3 160.199 108.9 160.399 110.1C160.399 110.4 161.499 110.9 161.899 111.4C162.999 112.6 163.999 113.9 165.099 114.9C166.599 116.4 168.099 117.6 169.899 118.3C170.999 118.7 172.199 118.7 173.399 118.8C174.599 118.8 175.899 118.8 177.299 118.8C178.999 118.8 180.699 118.6 182.399 118.3C184.199 117.9 185.999 117.1 187.799 116.8C191.199 116.3 194.499 115 197.999 114.6C201.499 114.1 204.999 114 208.499 114.1C210.499 114.1 212.199 114.9 214.099 115.2C214.999 115.4 215.899 117.1 215.399 117.5C215.399 117.5 215.199 117.7 214.999 117.7C213.099 117.7 211.399 118.3 209.399 118C206.399 117.7 203.399 117.7 200.499 118L200.699 117.8Z" fill="black"/>
<path d="M127.001 120.798C126.301 121.098 125.601 121.398 124.901 121.698C124.601 121.798 124.301 121.698 124.201 122.298C124.201 122.598 123.701 122.098 123.401 122.298C122.801 122.598 122.101 122.798 121.401 123.098C120.801 123.398 120.201 123.798 119.601 124.098C119.001 124.398 118.201 124.298 117.701 124.798C117.201 125.198 116.601 124.798 116.101 125.098C115.601 125.398 115.001 125.598 114.401 125.498C114.001 125.498 113.501 125.298 113.101 125.498C112.901 125.598 112.701 125.998 112.401 125.998C112.101 125.998 111.801 125.798 111.701 126.498C111.701 126.498 111.601 126.498 111.501 126.398C111.101 126.098 110.801 126.098 110.601 126.398C110.401 126.698 110.201 126.698 110.001 126.798C109.401 126.898 108.901 127.098 108.301 127.098C107.901 127.098 107.401 126.998 106.901 126.998C106.401 126.998 106.001 127.398 105.501 127.098C105.001 126.898 104.601 126.898 104.201 126.998C104.001 126.998 103.701 126.798 103.501 127.398C103.501 127.398 103.501 127.398 103.401 127.398C102.601 126.698 102.101 127.798 101.401 127.598C100.701 127.398 100.001 127.598 99.3008 127.698C99.1008 127.698 98.9008 127.498 98.7008 127.998C98.7008 128.198 98.4008 128.198 98.3008 127.998C97.7008 127.398 97.2008 127.798 96.7008 127.698C96.1008 127.598 95.5008 127.898 94.8008 127.398C94.5008 127.198 94.2008 127.098 93.9008 127.698C93.8008 127.998 93.5008 127.698 93.2008 127.698C93.0008 127.698 92.8008 127.998 92.6008 127.998C92.4008 127.998 92.3008 127.798 92.1008 127.598C92.1008 127.598 92.0008 127.598 91.9008 127.598C91.0008 128.298 90.1008 127.298 89.2008 127.398C88.3008 127.498 87.4008 127.398 86.5008 127.198C86.0008 127.098 85.5008 126.898 85.3008 125.698C85.3008 125.198 85.3008 124.598 85.5008 124.298C85.7008 124.098 85.9008 123.898 86.1008 123.798C86.4008 123.798 86.7008 123.598 86.9008 123.598C87.5008 123.498 88.1008 122.998 88.6008 123.298C88.8008 123.298 89.0008 123.098 89.1008 123.598C89.1008 123.598 89.1008 123.698 89.2008 123.598C90.0008 122.798 90.8008 123.398 91.6008 123.398C92.3008 123.398 92.9008 122.798 93.6008 122.998C94.0008 122.398 94.4008 122.498 94.8008 122.698C95.5008 122.998 96.1008 123.098 96.8008 122.998C97.5008 122.998 98.1008 122.798 98.8008 122.798C100.101 122.798 101.401 122.598 102.801 122.498C103.001 122.498 103.201 122.098 103.501 122.298C103.801 122.498 104.101 122.298 104.401 122.298C104.701 122.298 104.901 122.098 105.201 122.298C106.301 122.798 107.301 122.298 108.301 122.098C109.301 121.998 110.401 121.798 111.301 121.398C111.901 121.198 112.401 120.698 113.101 120.698C113.401 120.698 113.601 120.298 114.001 120.698C114.101 120.798 114.201 120.298 114.401 120.298C114.801 120.098 115.201 120.098 115.601 119.898C116.201 119.698 116.801 119.598 117.301 119.398C117.601 119.298 117.901 118.898 118.201 118.698C118.501 118.498 118.901 118.398 119.301 118.298C119.801 118.298 120.301 118.298 120.801 118.098C121.301 117.998 121.701 117.498 122.201 117.598C123.201 117.698 124.001 117.198 124.801 116.898C125.601 116.598 126.501 116.298 127.201 115.798C127.601 115.498 128.301 115.798 128.701 115.498C128.901 115.398 129.901 116.598 130.001 117.098C130.001 117.098 130.001 117.298 130.001 117.398C129.801 117.998 129.701 118.898 129.101 119.098C128.301 119.398 127.501 119.798 126.701 120.198L127.001 120.798Z" fill="black"/>
<path d="M70.4008 166.1C69.5008 165.4 68.7008 164.6 67.9008 163.7C67.6008 163.4 67.6008 162.9 66.9008 162.8C66.5008 162.8 66.9008 162.1 66.7008 161.7C66.1008 160.8 65.8008 159.7 65.5008 158.6C65.2008 157.6 64.9008 156.5 64.8008 155.4C64.8008 154.3 65.2008 153.3 65.2008 152.2C65.2008 151.2 66.0008 150.6 66.3008 149.8C66.7008 148.9 67.2008 148 68.0008 147.5C68.6008 147.1 69.2008 146.9 69.7008 146.4C70.0008 146.1 70.2008 145.6 70.7008 145.4C71.1008 145.2 71.7008 145.3 71.9008 144.6C71.9008 144.6 72.2008 144.6 72.3008 144.6C72.9008 144.9 73.5008 144.8 74.0008 144.6C74.4008 144.3 74.9008 144.4 75.3008 144.5C75.9008 144.6 76.5008 144.8 77.1008 145.1V145.2C77.1008 145.3 77.1008 145.6 77.1008 145.7C77.1008 145.7 77.1008 145.7 77.2008 145.7C77.4008 146.1 77.5008 145.8 77.5008 145.7C77.5008 145.7 77.8008 145.7 77.3008 145.2C77.5008 145.2 77.6008 145.2 77.6008 145.2C77.6008 145.1 77.7008 144.8 77.7008 144.6C77.7008 144.1 77.7008 143.7 78.0008 143.3C78.5008 142.5 78.8008 141.6 79.1008 140.7C79.1008 140.5 79.5008 140.3 79.1008 139.9C79.0008 139.8 79.1008 139.5 79.2008 139.4C80.0008 139 80.0008 138.2 80.3008 137.6C80.7008 136.9 80.8008 136 81.5008 135.5C81.8008 135.3 82.1008 134.9 81.7008 134.3C81.5008 134 81.9008 133.8 82.0008 133.5C82.0008 133.3 81.9008 132.9 82.0008 132.7C82.0008 132.5 82.4008 132.4 82.5008 132.3C82.5008 132.3 82.5008 132.2 82.5008 132.1C82.3008 130.8 83.6008 130 83.9008 128.9C84.2008 127.7 84.7008 126.6 85.3008 125.6C85.6008 125 86.0008 124.5 87.2008 124.5C87.8008 124.5 88.3008 124.7 88.5008 125.1C88.6008 125.4 88.8008 125.7 88.7008 125.9C88.7008 126.3 88.7008 126.7 88.6008 127.1C88.5008 127.9 88.6008 128.8 88.1008 129.4C87.9008 129.6 88.1008 130 87.5008 130C87.5008 130 87.4008 130 87.4008 130.1C87.7008 131.4 86.8008 132.2 86.5008 133.2C86.2008 134.1 86.5008 135.1 85.9008 135.8C86.3008 136.5 85.9008 137 85.6008 137.4C84.3008 138.8 84.0008 140.6 83.3008 142.2C82.9008 143 82.6008 143.9 82.2008 144.7L81.7008 146L81.0008 147.7C80.8008 148.2 80.9008 148.9 80.4008 149.4C80.0008 149.7 79.8008 150.7 79.5008 151.3C79.3008 151.9 79.0008 152.8 78.7008 153.1C78.5008 153.3 78.3008 153.5 78.2008 153.8C78.2008 153.8 78.2008 153.7 78.2008 153.6C78.0008 153.6 77.8008 154 76.8008 156.1L76.2008 153L75.9008 151.8L75.7008 150.9V150.5C75.6008 150.5 75.5008 150.2 75.5008 150.2L75.3008 149.6V149.5L75.2008 149.4L75.0008 149.2C74.6008 149 74.3008 148.9 73.8008 148.9C73.4008 148.9 72.9008 149.1 72.5008 149.3C72.0008 149.6 71.7008 150.3 71.1008 150.6C70.9008 150.8 70.9008 151.2 70.3008 151C70.1008 151 70.3008 151.4 70.3008 151.6C70.1008 152 69.9008 152.4 69.7008 152.8C69.5008 153.4 69.3008 154 69.2008 154.7C69.2008 155.1 69.4008 155.5 69.5008 155.9C69.5008 156.3 69.5008 156.7 69.5008 157.1C69.5008 157.6 69.5008 158.2 69.5008 158.7C69.6008 159.2 70.1008 159.6 70.2008 160.2C70.3008 161.3 71.2008 162 72.0008 162.7C72.8008 163.4 73.6008 164.1 74.7008 164.4C75.3008 164.6 75.6008 165.2 76.2008 165.4C76.5008 165.4 76.5008 167 76.2008 167.5C76.2008 167.5 76.1008 167.7 76.0008 167.7C75.2008 168 74.3008 168.5 73.5008 168.1C72.3008 167.5 71.2008 166.9 70.2008 166.2L70.4008 166.1Z" fill="black"/>
<path d="M63.6998 182.202C63.8998 181.902 64.1998 181.602 64.3998 181.302C64.3998 181.202 64.7998 181.302 64.3998 180.802C64.1998 180.602 64.7998 180.802 64.8998 180.802C65.0998 180.502 65.3998 180.302 65.4998 179.902C65.6998 179.602 65.6998 179.202 65.8998 178.902C66.0998 178.602 66.4998 178.502 66.4998 178.002C66.4998 177.602 66.9998 177.702 67.0998 177.402C67.0998 177.102 67.2998 176.802 67.6998 176.702C67.9998 176.702 68.2998 176.702 68.2998 176.402C68.2998 176.302 68.0998 176.002 68.2998 175.902C68.2998 175.902 68.6998 175.902 68.2998 175.402C68.2998 175.402 68.2998 175.402 68.4998 175.402C68.8998 175.502 68.9998 175.402 68.7998 175.102C68.5998 174.802 68.7998 174.802 68.7998 174.702C68.8998 174.402 69.0998 174.202 69.2998 174.002C69.4998 173.802 69.7998 173.802 69.9998 173.702C70.1998 173.502 69.9998 173.202 70.4998 173.202C70.8998 173.202 70.9998 173.002 71.0998 172.902C71.0998 172.902 71.4998 172.902 71.0998 172.402C71.9998 172.602 71.2998 171.702 71.5998 171.502C71.9998 171.302 72.0998 170.902 72.1998 170.602C72.1998 170.602 72.4998 170.602 72.1998 170.202C72.0998 170.102 72.1998 170.002 72.1998 170.002C72.8998 170.102 72.6998 169.702 72.8998 169.502C73.1998 169.302 73.0998 168.902 73.6998 168.902C73.8998 168.902 74.0998 168.902 73.6998 168.402C73.4998 168.202 73.7998 168.202 73.7998 168.102C73.7998 168.002 73.5998 167.802 73.6998 167.702C73.6998 167.702 73.9998 167.702 74.0998 167.702C73.7998 167.002 74.7998 167.102 74.8998 166.602C74.8998 166.102 75.2998 165.802 75.5998 165.402C75.7998 165.202 76.0998 165.102 77.0998 165.502C77.5998 165.702 78.0998 166.002 78.2998 166.202C78.4998 166.402 78.5998 166.602 78.5998 166.702C78.5998 166.902 78.5998 167.102 78.5998 167.202C78.5998 167.602 78.8998 168.102 78.5998 168.202C78.4998 168.202 78.5998 168.502 78.1998 168.202C78.6998 169.002 77.9998 169.102 77.7998 169.502C77.6998 169.802 77.9998 170.502 77.5998 170.602C77.9998 171.102 77.7998 171.202 77.5998 171.302C76.5998 171.502 76.5998 172.402 76.1998 172.902C75.6998 173.502 75.3998 174.102 74.8998 174.702C74.8998 174.702 75.0998 175.102 74.6998 175.102C74.3998 175.102 74.4998 175.302 74.3998 175.502C74.3998 175.602 74.3998 175.802 74.0998 175.802C73.1998 175.802 73.1998 176.602 72.7998 177.002C72.3998 177.402 71.9998 177.802 71.7998 178.402C71.6998 178.702 71.7998 179.202 71.3998 179.402C71.2998 179.402 71.3998 179.802 70.8998 179.602C70.6998 179.602 70.9998 179.902 70.8998 180.002C70.7998 180.202 70.5998 180.402 70.4998 180.602C70.2998 180.902 70.0998 181.102 69.8998 181.402C69.8998 181.602 69.8998 181.902 69.8998 182.102C69.8998 182.302 69.6998 182.502 69.4998 182.602C69.2998 182.802 68.8998 182.802 68.6998 183.002C68.4998 183.202 68.4998 183.602 68.0998 183.602C67.3998 183.602 67.2998 184.202 66.8998 184.502C66.4998 184.802 66.1998 185.202 65.9998 185.602C65.8998 185.902 65.2998 185.702 65.1998 185.902C65.1998 185.902 63.8998 185.202 63.4998 184.802L63.3998 184.602C63.1998 184.102 62.7998 183.402 62.9998 183.302C63.2998 183.002 63.5998 182.602 63.8998 182.302L63.6998 182.202Z" fill="black"/>
<path d="M216.3 186.998C214.4 186.698 212.6 186.398 210.8 186.398C210.2 186.398 209.5 186.098 208.9 186.698C208.6 186.998 208 186.398 207.4 186.498C205.9 186.798 204.5 187.398 203 188.298C201.5 189.098 200 190.298 198.1 190.998C196.1 191.698 194 191.498 192 191.498C190.2 191.498 188.9 190.498 187.4 189.698C185.8 188.898 184.5 187.898 183.6 186.798C182.9 185.998 182.4 185.198 181.6 184.798C181.1 184.498 180.5 184.598 180.1 184.398C179.7 184.198 179.2 183.798 178.8 184.398C178.8 184.398 178.6 184.398 178.5 184.198C178.1 183.798 177.4 183.898 177.1 184.198C176.8 184.598 176.4 184.698 176.1 184.798C175.1 185.298 174.1 186.098 172.9 186.898C172.1 187.498 171.1 187.998 170.2 188.698C169.2 189.398 168.3 190.398 167.2 190.798C166.1 191.198 165.1 191.698 164.1 192.198C163.5 192.498 162.7 192.498 162.4 193.298C162.4 193.298 162.1 193.398 162 193.398C161 193.398 160.1 193.598 159.2 193.898C158.3 194.198 157.4 194.498 156.4 194.398C154.4 194.198 152.5 194.098 150.6 193.798C150.1 193.798 149.6 193.398 149.1 193.798C148.9 193.898 148.4 193.798 148.2 193.598C147 192.598 145.6 192.498 144.3 191.898C142.9 191.198 141.3 190.898 140.1 189.898C139.6 189.498 138.8 188.998 137.9 189.298C137.5 189.398 136.9 188.898 136.4 188.798C136 188.698 135.5 188.798 135.1 188.698C134.7 188.598 134.5 188.298 134.1 187.998C134.1 187.998 133.9 187.898 133.8 187.898C131.6 187.898 129.8 186.698 127.7 186.698C125.6 186.698 123.5 186.798 121.4 187.098C120.2 187.298 119.1 187.398 117.9 186.598C117.4 186.198 117.2 185.698 117.6 185.198C117.9 184.798 118.3 184.498 118.7 184.298C119.4 183.998 120.1 183.698 120.8 183.498C122.3 182.998 123.8 182.298 125.4 182.598C125.9 182.598 126.5 182.398 126.9 182.898C126.9 182.898 127.2 182.998 127.3 182.898C129.5 182.198 131.7 183.098 133.7 183.498C135.5 183.898 137.3 183.898 138.9 184.798C140 184.598 141.1 185.098 141.9 185.598C144.9 187.498 148.1 188.398 151.2 189.098C154.3 189.898 157.5 189.998 160.4 189.098C160.9 188.998 161.2 188.498 161.9 188.498C162.5 188.498 163.1 187.998 163.7 187.698C164.3 187.398 164.7 186.898 165.3 186.698C167.8 185.898 169.5 183.598 172 181.998C173.3 181.198 174.7 180.498 176.3 180.098C177.9 179.698 179.8 179.798 181.4 180.298C183.4 180.998 185.1 181.998 186.3 183.198C186.8 183.698 187.6 183.898 187.7 184.798C187.7 185.098 188.5 185.098 188.8 185.298C189.6 185.798 190.4 186.298 191.3 186.598C192.5 186.998 193.8 187.198 195.1 186.998C195.9 186.898 196.5 186.498 197.2 186.198C198 185.798 198.8 185.398 199.6 185.098C200.7 184.598 202 184.098 203.3 183.598C204 183.298 204.7 182.998 205.5 182.798C205.9 182.698 206.3 182.598 206.7 182.498C207.1 182.498 207.5 182.498 207.8 182.498C210.5 182.698 213 182.798 215.4 183.198C217.7 183.598 220 183.998 222.1 183.898C223.3 183.898 224.4 184.098 225.5 183.798C225.7 183.798 226.2 183.898 226.5 184.198C226.9 184.498 227.2 184.898 227.2 185.198C227.2 185.298 227.2 185.398 227.1 185.498C226.1 186.498 224.8 187.498 223.2 187.598C220.8 187.598 218.5 187.398 216.3 187.098V186.998Z" fill="black"/>
<path d="M235.4 168.201C234.8 168.701 234.2 169.001 233.6 169.401C233.4 169.501 233 169.401 233 170.001C233 170.301 232.5 169.801 232.3 169.901C231.7 170.101 231 170.101 230.4 170.201C229.8 170.201 229.2 170.501 228.7 170.501C228.1 170.501 227.6 170.101 227.1 170.301C226.6 170.501 226.3 169.901 225.9 169.901C225.5 169.901 225 169.901 224.7 169.601C224.5 169.401 224.3 169.101 224 169.101C223.8 169.101 223.6 169.401 223.4 169.301C223.2 169.301 223.1 168.901 222.8 169.501C222.8 169.501 222.8 169.501 222.8 169.301C222.7 168.901 222.5 168.801 222.3 169.101C222.1 169.301 222 169.301 221.8 169.301C221.4 169.301 221 169.301 220.7 169.101C220.4 169.101 220.2 168.701 219.9 168.601C219.6 168.501 219.3 168.701 219 168.401C218.8 168.101 218.5 168.001 218.2 168.001C218 168.001 217.9 167.701 217.7 168.301C217.3 167.401 216.8 168.501 216.4 168.301C215.9 168.101 215.5 168.201 215 168.201C214.9 168.201 214.7 168.001 214.6 168.501C214.6 168.701 214.4 168.701 214.4 168.501C214.1 167.901 213.7 168.201 213.3 168.101C212.9 168.001 212.5 168.301 212.1 167.801C211.9 167.601 211.7 167.501 211.5 168.101C211.5 168.401 211.2 168.101 211.1 168.101C211 168.101 210.9 168.401 210.8 168.401C210.7 168.401 210.6 168.201 210.5 168.101C210.5 168.101 210.5 168.101 210.4 168.101C209.8 168.801 209.2 168.001 208.6 168.101C208 168.301 207.4 168.301 206.8 168.301C206.5 168.301 206.1 168.201 205.7 167.101C205.5 166.601 205.4 166.101 205.5 165.701C205.5 165.401 205.7 165.201 205.8 165.101C206 165.001 206.2 164.801 206.4 164.701C206.8 164.501 207.1 163.901 207.6 164.101C207.7 164.101 207.9 163.901 208 164.401C208 164.401 208 164.501 208.1 164.401C208.6 163.601 209.2 164.001 209.8 163.901C210.3 163.901 210.8 163.201 211.3 163.401C211.6 162.801 211.9 162.901 212.2 163.001C213.2 163.601 214.2 163.201 215.2 163.301C216.2 163.401 217.2 163.401 218.2 163.501C218.4 163.501 218.6 163.201 218.7 163.501C218.9 163.801 219.1 163.601 219.3 163.601C219.5 163.601 219.7 163.601 219.9 163.601C220.6 164.401 221.4 164.101 222.2 164.301C223 164.501 223.7 164.701 224.5 164.701C225 164.701 225.5 164.501 226 164.701C226.2 164.801 226.5 164.501 226.5 165.101C226.5 165.301 226.8 164.901 226.9 164.901C227.2 164.901 227.5 165.001 227.8 165.101C228.2 165.101 228.6 165.301 229 165.301C229.2 165.301 229.5 165.101 229.7 165.001C229.9 165.001 230.1 165.001 230.3 165.001C230.6 165.001 230.8 165.301 231.1 165.301C231.4 165.301 231.5 165.001 231.8 165.301C232.4 165.701 232.7 165.201 233.1 165.001C233.5 164.801 233.8 164.501 233.8 164.101C233.8 163.901 234.3 163.901 234.4 163.701C234.4 163.701 235.9 163.601 236.4 163.701C236.4 163.701 236.6 163.701 236.6 163.801C237 164.301 237.6 165.001 237.3 165.501C236.9 166.301 236.4 167.001 235.7 167.601L235.4 168.201Z" fill="black"/>
<path d="M234.699 148.8C234.199 149 233.599 149.1 233.099 149.4C232.899 149.4 232.599 149.4 232.599 149.9C232.599 150.2 232.199 149.7 231.999 149.8C231.499 150 230.899 150.1 230.399 150.4C229.899 150.6 229.399 151 228.799 151.2C228.199 151.4 227.599 151.2 226.999 151.6C226.499 152 225.999 151.5 225.499 151.6C224.999 151.7 224.399 151.8 223.899 151.6C223.499 151.4 223.199 151.1 222.799 151.2C222.599 151.2 222.299 151.5 222.099 151.5C221.899 151.5 221.699 151.1 221.399 151.7C221.399 151.7 221.299 151.7 221.299 151.5C221.199 151.1 220.899 151 220.599 151.2C220.399 151.4 220.199 151.3 219.999 151.3C219.499 151.3 219.099 151.1 218.699 150.9C218.399 150.8 218.099 150.5 217.799 150.3C217.499 150.2 217.099 150.3 216.899 150C216.699 149.6 216.399 149.6 216.099 149.5C215.899 149.5 215.799 149.1 215.499 149.8C215.499 149.8 215.499 149.8 215.399 149.8C215.099 148.9 214.399 149.9 213.999 149.6C213.499 149.3 212.999 149.4 212.499 149.4C212.399 149.4 212.199 149.2 212.099 149.7C212.099 149.9 211.899 149.9 211.799 149.7C211.399 149.1 210.999 149.4 210.699 149.3C210.299 149.2 209.799 149.5 209.399 149C209.199 148.8 208.899 148.7 208.799 149.3C208.799 149.6 208.499 149.3 208.299 149.4C208.199 149.4 208.099 149.7 207.999 149.8C207.899 149.8 207.799 149.6 207.599 149.5C207.599 149.5 207.599 149.5 207.499 149.5C206.999 150.2 206.199 149.5 205.599 149.8C204.999 150.1 204.399 150.2 203.699 150.3C203.299 150.3 202.899 150.3 202.299 149.3C201.999 148.8 201.799 148.3 201.899 148C201.899 147.7 201.999 147.5 202.099 147.4C202.299 147.2 202.499 147 202.699 146.9C203.099 146.6 203.399 145.9 203.999 146.1C204.199 146.1 204.299 145.8 204.499 146.3H204.599C205.099 145.4 205.899 145.8 206.499 145.6C207.099 145.5 207.499 144.8 208.099 145C208.399 144.3 208.799 144.4 209.099 144.6C210.299 145.2 211.399 144.7 212.599 144.9C213.799 145 214.899 145.1 216.099 145.3C216.299 145.3 216.499 145 216.699 145.3C216.899 145.6 217.199 145.5 217.399 145.5C217.599 145.5 217.899 145.5 218.099 145.7C218.799 146.5 219.699 146.4 220.499 146.7C221.299 147 221.999 147.2 222.799 147.2C223.299 147.2 223.799 146.9 224.199 147.1C224.399 147.1 224.599 146.8 224.699 147.4C224.699 147.6 224.899 147.1 224.999 147.1C225.299 147.1 225.599 147.1 225.899 147.1C226.299 147.1 226.699 147.1 227.099 146.9C227.299 146.9 227.499 146.5 227.799 146.4C227.999 146.3 228.299 146.2 228.599 146.2C228.999 146.2 229.399 146.2 229.799 146.2C230.199 146.2 230.499 145.7 230.999 145.9C231.899 146.1 232.499 145.7 233.199 145.5C233.899 145.3 234.699 145.1 235.399 144.8C235.799 144.6 236.299 145 236.799 144.9C236.999 144.9 237.499 146.3 237.499 146.8V147C237.199 147.5 236.999 148.3 236.599 148.4C235.999 148.4 235.399 148.7 234.799 148.9L234.699 148.8Z" fill="black"/>
<path d="M230.6 131.699C230.2 131.699 229.8 131.699 229.5 131.699C229.4 131.699 229.2 131.499 229.1 131.999C229.1 132.299 228.9 131.599 228.8 131.699C228.4 131.699 228.1 131.699 227.7 131.699C227.4 131.699 227 131.999 226.7 132.099C226.4 132.099 226 131.899 225.7 132.199C225.4 132.499 225.2 131.999 224.9 132.199C224.6 132.299 224.3 132.399 224 132.199C223.8 131.999 223.6 131.799 223.4 131.999C223.3 131.999 223.2 132.399 223 132.399C222.9 132.399 222.7 132.099 222.6 132.799C222.6 132.799 222.6 132.799 222.5 132.699C222.3 132.299 222.2 132.399 222.1 132.699C222.1 132.999 221.9 132.999 221.8 132.999C221.5 132.999 221.2 133.099 220.9 132.999C220.7 132.999 220.4 132.799 220.2 132.699C220 132.699 219.8 132.999 219.5 132.699C219.3 132.399 219.1 132.499 218.9 132.499C218.8 132.499 218.6 132.199 218.6 132.899C218.1 132.099 218 133.299 217.6 133.099C217.2 132.899 216.9 133.099 216.6 133.199C216.6 133.199 216.4 133.099 216.4 133.499C216.4 133.699 216.4 133.699 216.2 133.499C215.8 132.899 215.6 133.399 215.4 133.299C215.1 133.299 214.8 133.599 214.4 133.199C214.2 132.999 214 132.899 214 133.599C214 133.899 213.8 133.599 213.7 133.699C213.7 133.699 213.6 134.099 213.5 134.099C213.5 134.099 213.3 133.899 213.2 133.799C212.9 134.499 212.3 133.799 211.9 134.099C211.5 134.399 211.1 134.399 210.6 134.399C210.3 134.399 210.1 134.299 209.6 133.199C209.4 132.699 209.2 132.199 209.3 131.799C209.3 131.499 209.3 131.299 209.4 131.199C209.5 131.099 209.6 130.899 209.7 130.799C209.9 130.499 210.1 129.899 210.5 130.099C210.6 130.099 210.7 129.799 210.9 130.299C211.1 129.399 211.7 129.799 212.1 129.699C212.4 129.599 212.6 128.899 213.1 129.099C213.1 128.399 213.4 128.499 213.7 128.599C214.5 129.099 215.2 128.599 215.9 128.499C216.6 128.499 217.3 128.299 218.1 128.199C218.2 128.199 218.3 127.799 218.5 128.099C218.7 128.299 218.8 128.099 219 128.099C219.1 128.099 219.3 127.899 219.4 128.099C220 128.699 220.6 128.199 221.1 128.199C221.7 128.199 222.2 128.199 222.8 127.999C223.1 127.899 223.5 127.499 223.8 127.599C224 127.599 224.1 127.299 224.3 127.899C224.3 128.099 224.5 127.599 224.6 127.599C224.8 127.599 225.1 127.599 225.3 127.599C225.6 127.599 226 127.599 226.3 127.599C226.5 127.599 226.7 127.299 226.9 127.199C227.1 127.199 227.3 127.199 227.5 127.199C227.8 127.199 228 127.499 228.3 127.499C228.6 127.499 228.9 127.299 229.1 127.499C229.6 127.999 230.1 127.699 230.6 127.799C231.1 127.799 231.6 127.899 232.1 127.799C232.4 127.799 232.6 128.299 232.9 128.299C233 128.299 233.1 129.799 233 130.299V130.499C232.7 130.999 232.5 131.699 232.2 131.599C231.8 131.599 231.3 131.599 230.9 131.599L230.6 131.699Z" fill="black"/>
</svg>
