<svg width="486" height="486" viewBox="0 0 486 486" fill="none" xmlns="http://www.w3.org/2000/svg">
<path d="M93.7332 148.271C99.9655 66.9502 164.121 2.75 242.574 2.75C325.06 2.75 391.782 73.5647 391.782 161.111C391.782 216.751 365.02 265.387 324.327 293.791M220.211 465.381C151.657 502.734 66.2379 478.221 25.1783 407.406C-18.4475 332.7 3.5487 235.038 73.9366 189.125C119.762 159.165 174.753 158.776 219.478 182.511M262.738 217.529C268.97 224.533 274.469 232.314 279.235 240.874C314.795 302.351 306.363 379.002 263.104 429.974M415.611 191.071C479.4 235.816 501.763 325.697 465.103 398.457C425.876 475.497 335.325 504.679 262.738 463.046C216.545 436.588 188.684 387.951 184.651 336.202M189.783 279.006C192.716 268.5 196.749 258.384 201.515 248.656C233.776 184.845 301.598 154.107 365.02 168.892M274.469 316.358C264.204 318.693 253.572 319.86 242.941 319.86C175.119 319.86 117.929 272.002 99.5986 205.856" stroke="#FFFAEE" stroke-width="5.5" stroke-linecap="round" stroke-linejoin="round"/>
</svg>
