<svg width="600" height="600" viewBox="0 0 600 600" fill="none" xmlns="http://www.w3.org/2000/svg">
<path d="M227.701 281.298C223.901 280.598 220.101 280.098 216.301 279.798C214.901 279.698 213.401 279.298 211.901 279.698C211.101 279.898 209.801 279.198 208.501 279.098C204.901 278.898 201.301 278.698 197.701 278.598C194.201 278.598 190.701 278.798 187.201 278.898C183.701 278.898 180.201 278.898 176.801 279.298C173.901 279.698 171.301 279.298 168.601 279.698C165.701 280.098 162.701 280.398 159.801 280.598C157.701 280.598 155.601 280.798 153.601 281.198C152.301 281.498 151.201 281.998 149.801 282.298C148.501 282.498 147.001 282.598 146.101 283.498C146.101 283.498 145.401 283.598 145.101 283.498C143.701 283.498 142.001 283.898 141.101 284.598C140.201 285.198 139.301 285.498 138.401 285.898C137.201 286.398 136.101 287.198 135.701 287.698C135.701 287.698 135.901 287.898 136.001 287.998C136.401 288.498 137.201 288.998 138.001 289.498C138.801 289.998 139.801 290.398 140.701 290.798C142.701 291.598 145.101 291.898 147.101 292.698C149.101 293.498 151.101 293.798 153.101 294.198C154.301 294.398 155.601 294.898 156.601 294.398C156.601 294.398 157.101 294.398 157.301 294.398C160.501 295.698 164.001 294.998 167.401 295.498C170.901 295.998 174.501 296.098 178.101 296.198C179.101 296.198 180.101 296.398 181.001 295.998C181.301 295.898 182.301 295.898 182.801 295.998C185.401 296.698 188.201 296.298 191.001 296.398C194.101 296.498 197.201 296.198 200.401 296.498C201.701 296.698 203.501 296.698 205.101 295.998C205.801 295.698 207.301 295.898 208.501 295.698C209.401 295.598 210.301 295.198 211.201 295.198C212.001 295.198 212.801 295.198 213.601 295.298C213.801 295.298 214.101 295.298 214.401 295.298C218.801 294.198 223.401 294.498 227.801 293.598C232.201 292.598 236.801 291.698 240.801 290.198C241.901 289.798 243.001 289.298 243.901 288.898C244.801 288.498 245.501 288.298 246.201 287.898C246.501 287.698 246.801 287.498 247.001 287.598C247.101 287.598 247.201 287.598 247.301 287.898C247.301 288.098 247.501 288.298 247.401 288.698C247.301 289.698 246.601 290.698 245.901 291.398C244.601 292.398 243.301 293.198 241.901 293.898C239.101 295.198 236.301 296.498 233.201 296.898C232.201 296.998 231.201 297.498 230.301 297.198C230.201 297.198 229.801 297.198 229.601 297.198C225.701 298.698 221.301 298.798 217.201 299.298C213.701 299.698 210.301 300.598 206.601 300.598C204.701 301.298 202.301 301.298 200.301 301.198C193.201 300.798 186.201 301.198 179.101 300.898C171.901 300.498 164.801 300.098 157.601 299.098C156.401 298.898 155.301 299.098 153.901 298.598C152.601 298.098 150.801 297.998 149.301 297.698C147.901 297.398 146.401 297.198 145.001 296.698C142.301 295.698 139.601 294.798 136.801 293.598C135.401 292.898 134.001 292.298 132.701 290.998C132.401 290.698 132.101 290.298 131.801 289.798C131.601 289.598 131.601 289.298 131.401 288.998L131.201 288.598C131.201 288.498 131.201 288.298 131.201 288.198C131.201 287.898 131.101 287.598 131.201 287.298C131.201 286.998 131.201 286.698 131.401 286.398C131.501 286.098 131.601 285.798 131.701 285.598C131.901 285.298 132.001 285.098 132.201 284.898C133.501 283.398 134.901 282.598 136.201 281.898C137.601 281.198 138.901 280.698 140.301 280.298C143.001 279.398 145.801 278.698 148.601 278.098C151.901 277.298 155.301 276.398 158.701 276.098C160.201 275.998 161.701 275.498 163.201 275.898C163.601 275.998 164.901 275.398 165.901 275.298C168.201 274.998 170.601 274.898 172.901 274.698C176.201 274.498 179.401 274.398 182.701 274.298C184.701 274.298 186.601 273.898 188.601 273.898C190.701 273.898 192.801 273.898 194.901 273.898C197.501 273.998 200.201 274.298 202.801 274.498C205.501 274.698 208.401 274.498 211.001 274.998C215.801 275.898 220.701 276.098 225.501 276.898C230.301 277.698 235.001 278.598 239.801 279.998C241.201 280.398 242.401 280.998 243.601 281.698C244.801 282.398 246.001 283.198 247.201 284.298C247.801 284.798 248.101 285.898 247.801 286.698C247.501 287.498 247.001 287.598 246.701 287.398C246.601 287.398 246.501 287.198 246.401 287.098C245.901 286.298 244.901 285.798 243.801 285.398C242.701 284.998 241.501 284.598 240.201 284.098C236.301 282.598 232.001 281.698 227.801 280.998L227.701 281.298Z" fill="#FE5102"/>
<path d="M190.1 298.901C158.6 298.901 133.1 293.901 133.1 287.801C133.1 294.001 154.1 323.301 185.6 323.301C217.1 323.301 245.3 295.701 247 288.401C245.4 294.301 220.5 298.901 190.1 298.901Z" fill="#FE5102"/>
<path d="M213.5 296.099C217.7 295.699 221.8 295.299 225.9 294.599C227.4 294.299 229 294.299 230.5 293.499C231.2 293.099 232.8 293.399 234.2 292.999C236 292.499 237.9 291.999 239.6 291.399C241.3 290.799 243.1 289.999 244.3 288.999C244.8 288.599 245.1 288.099 245.1 287.899L248.9 288.899C248.6 289.899 248.3 290.699 247.9 291.499C247.5 292.299 247.1 292.899 246.6 293.599C245.7 294.899 244.8 296.099 243.8 297.299C241.2 300.299 238.1 302.699 235.4 305.399C233.1 307.699 230.4 308.999 228 310.899C225.4 312.899 222.5 314.699 219.6 315.999C217.5 316.999 215.3 317.799 213.2 318.899C212.6 319.199 211.9 319.599 211.3 319.999C210.7 320.299 210 320.699 209.3 320.999C207.9 321.499 206.3 321.799 205.2 322.799C205.2 322.799 204.4 322.999 204.1 322.999C203.3 322.999 202.4 323.199 201.6 323.399C200.8 323.599 200 323.899 199.4 324.199C198.8 324.499 198.2 324.699 197.6 324.799C197 324.899 196.4 324.999 195.8 325.199C192.5 325.799 189.1 326.199 185.7 326.099C183.2 326.099 180.7 325.699 178.2 325.199C175.6 324.799 172.8 324.399 170.6 323.499C168.4 322.499 166.2 321.699 164 320.799C162.8 320.299 161.5 319.299 160.2 319.399C160.1 319.399 159.6 319.199 159.5 318.999C156.5 316.499 152.8 315.399 149.8 312.799C146.8 310.199 143.6 307.499 140.9 304.599C140.2 303.799 139.5 302.799 138.5 302.399C138.1 302.199 137.4 301.299 137.2 300.799C135.8 297.999 133.7 295.699 132.4 292.699C132.2 292.399 132.1 291.999 132 291.699C131.9 291.399 131.7 290.999 131.6 290.599C131.5 290.199 131.3 289.899 131.3 289.399C131.2 288.999 131.1 288.499 131.1 287.899H135.6C135.6 287.899 135.6 287.899 135.7 288.099C135.7 288.299 136 288.499 136.3 288.799C136.9 289.299 137.6 289.799 138.4 290.399C139.5 291.199 141.3 291.899 143 291.799C143.8 291.799 145.3 292.399 146.5 292.699C147.5 292.899 148.5 292.799 149.4 292.999C150.2 293.199 151 293.599 151.8 293.799C152 293.799 152.4 293.899 152.6 293.899C157.5 294.099 162.2 295.499 167.2 295.799C172.2 296.099 177.2 296.399 182.2 296.599C185 296.699 187.8 296.899 189.7 298.099C190.5 298.599 190.6 299.199 189.4 299.499C188.5 299.699 187.5 299.999 186.5 299.999C184.9 299.999 183.3 300.199 181.8 300.199C178.6 300.199 175.3 300.699 172 300.199C171 299.999 169.7 300.199 168.9 299.699C168.8 299.699 168.4 299.499 168.2 299.599C163.7 299.999 159.1 298.999 154.6 298.299C150.8 297.699 146.9 297.699 143.1 296.299C140.8 296.299 138.3 295.399 136.2 294.099C135.2 293.499 134.3 292.899 133.3 291.999L132.9 291.699L132.5 291.299L132.2 290.899L131.9 290.399C131.5 289.699 131.2 288.799 131.1 287.799H135.5C135.5 287.999 135.5 288.599 135.8 289.099C136 289.599 136.2 290.199 136.5 290.799C137.1 291.899 137.8 293.099 138.5 294.199C140 296.399 141.7 298.499 143.5 300.599C148.4 306.199 154.4 310.899 160.9 314.499C162 315.099 163.1 315.299 164.4 316.199C165 316.599 165.7 316.899 166.5 317.199C167.3 317.499 168.1 317.799 168.8 317.999C169.5 318.299 170.2 318.499 170.9 318.699C171.6 318.899 172.3 319.099 173 319.399C175.7 320.499 178.6 320.999 181.5 321.299C184.4 321.499 187.4 321.499 190.3 321.299C196.1 320.899 201.9 319.399 207.3 317.199C210.6 315.799 213.7 313.999 216.9 312.399C218.3 311.699 219.5 310.599 221.1 310.299C221.6 310.299 222.5 309.099 223.4 308.499C225.4 307.099 227.5 305.699 229.5 304.199C232.2 302.099 234.9 299.999 237.3 297.499C238.8 295.999 240 294.399 241.3 292.799C242 291.999 242.6 291.099 243.2 290.299C243.8 289.499 244.3 288.599 244.6 287.999C244.6 287.999 244.6 287.799 244.7 287.699L249.6 288.999C249.2 290.299 248.4 291.099 247.8 291.799C247.1 292.399 246.4 292.899 245.7 293.199C244.3 293.899 243 294.499 241.7 294.899C238.8 295.899 235.8 296.999 232.9 297.299C227.6 297.899 222.4 298.899 217.2 299.399C212 299.899 206.8 300.199 201.6 300.499C198.6 300.699 195.9 300.199 193 300.299C191.6 300.299 189.8 298.799 190.4 298.299C190.5 298.299 190.7 298.099 190.9 298.099C193.7 297.599 196.3 296.899 199.5 296.799C204.2 296.799 209 296.399 213.7 295.999L213.5 296.099Z" fill="#FE5102"/>
<path d="M235.099 267.501C233.199 263.701 231.399 259.901 229.499 256.201C228.799 254.801 228.299 253.301 227.099 252.001C226.499 251.401 226.399 249.801 225.799 248.501C223.999 245.001 222.399 241.401 220.599 238.001C218.899 234.601 216.999 231.301 215.299 227.901C213.599 224.501 212.099 220.901 210.199 217.801C208.599 215.101 207.799 212.301 206.299 209.701C204.799 206.901 203.299 204.001 202.099 201.001C201.199 198.901 200.499 196.801 199.399 194.801C198.699 193.601 197.799 192.501 197.199 191.101C196.599 189.801 196.099 188.201 194.999 187.401C194.999 187.401 194.699 186.701 194.699 186.401C194.399 184.801 193.499 183.101 192.699 182.101C191.899 181.101 191.399 180.101 190.899 179.001L190.299 177.701L189.899 178.501C189.299 179.501 188.699 180.601 188.199 181.701C186.999 183.901 186.099 186.501 184.799 188.401C183.499 190.401 182.499 192.401 181.499 194.401C180.899 195.601 179.999 196.801 180.099 198.001C180.099 198.101 179.899 198.501 179.699 198.701C177.299 201.701 176.699 205.401 174.899 208.701C172.999 212.101 171.399 215.701 169.699 219.201C169.199 220.101 168.599 221.101 168.599 222.101C168.599 222.501 168.099 223.501 167.799 223.901C165.999 226.201 164.999 229.101 163.599 231.701C161.999 234.701 160.799 237.901 158.799 240.701C157.999 241.901 156.999 243.601 156.799 245.401C156.699 246.201 155.699 247.601 155.199 248.701C154.799 249.601 154.599 250.601 154.199 251.601C153.799 252.401 153.199 253.001 152.799 253.801C152.699 254.001 152.499 254.301 152.399 254.501C150.799 259.201 147.799 263.301 145.799 267.801C143.799 272.401 141.499 276.901 139.199 281.401C137.899 283.901 136.499 286.401 134.599 287.501C133.799 288.001 133.299 287.801 133.499 286.601C133.699 285.701 133.899 284.701 134.299 283.801C134.899 282.301 135.499 280.901 136.099 279.401C137.299 276.401 138.299 273.301 139.999 270.501C140.499 269.601 140.799 268.401 141.599 267.801C141.699 267.801 141.899 267.401 141.999 267.201C143.199 262.901 145.699 259.001 147.699 254.901C149.299 251.401 150.399 247.801 152.399 244.501C152.799 242.301 153.999 240.101 155.099 238.301C158.999 231.801 161.999 224.801 165.399 218.001C168.899 211.101 172.199 204.201 175.599 197.301C176.199 196.101 176.399 195.001 177.299 193.701C178.199 192.501 178.799 190.801 179.499 189.201C180.199 187.801 180.799 186.301 181.599 185.101C184.699 180.201 185.899 177.001 190.699 167.301C191.199 168.301 191.599 169.201 192.099 170.201C193.799 173.601 195.399 177.101 197.099 180.601C198.399 183.301 199.799 186.001 201.199 188.701C202.899 191.901 204.799 195.101 206.299 198.401C206.899 199.801 207.999 201.201 208.099 202.801C208.099 203.301 209.199 204.401 209.699 205.301C210.899 207.501 211.899 209.801 212.999 212.101C214.499 215.201 215.999 218.401 217.599 221.501C218.599 223.401 219.699 225.201 220.699 227.101C221.699 229.101 222.699 231.101 223.699 233.101C224.899 235.701 225.899 238.301 227.099 240.901C228.299 243.601 229.899 246.201 230.899 248.801C232.699 253.701 235.299 258.301 237.499 263.001C239.699 267.701 241.999 272.401 244.399 276.901C245.799 279.501 246.499 282.101 247.699 284.701C248.299 285.901 247.699 288.201 247.099 287.901C246.999 287.901 246.799 287.701 246.599 287.501C244.899 285.201 243.199 283.201 241.799 280.301C239.799 276.001 237.599 271.701 235.499 267.501H235.099Z" fill="#FE5102"/>
<path d="M345.099 277.598C348.999 276.898 352.899 276.498 356.799 275.998C358.199 275.798 359.699 275.998 361.199 275.298C361.899 274.998 363.399 275.498 364.699 275.298C368.299 274.998 371.999 274.898 375.599 274.798C379.099 274.598 382.699 274.398 386.199 274.398C389.699 274.398 393.299 274.798 396.699 274.598C399.599 274.498 402.299 275.098 405.099 275.198C408.099 275.298 411.199 275.498 413.999 276.098C416.099 276.498 418.199 277.098 420.299 277.298C421.599 277.398 422.899 277.298 424.299 277.698C425.599 277.998 427.099 278.598 428.399 278.298C428.499 278.298 429.099 278.498 429.399 278.698C430.699 279.498 432.499 279.898 433.699 280.098C434.999 280.198 435.999 280.698 437.099 281.198C438.599 281.898 440.199 282.698 441.699 284.398C441.899 284.598 442.099 284.898 442.299 285.298C442.499 285.598 442.599 285.998 442.699 286.298C442.899 286.598 442.899 286.998 442.899 287.398C442.899 287.798 442.899 288.098 442.899 288.498C442.899 288.698 442.899 288.898 442.899 288.998L442.699 289.498C442.599 289.798 442.499 290.198 442.199 290.498C441.799 291.198 441.499 291.498 441.099 291.898C439.899 292.998 438.799 293.498 437.599 293.998C436.399 294.498 435.299 294.898 434.199 295.198C431.899 295.998 429.499 296.898 427.199 297.098C424.999 297.298 422.899 297.698 420.799 298.098C419.599 298.298 418.199 298.198 417.299 298.998C417.299 298.998 416.799 299.098 416.499 299.098C412.999 298.798 409.699 300.198 406.199 300.298C402.599 300.298 398.899 300.798 395.299 300.898C394.299 300.898 393.299 300.798 392.399 301.298C392.099 301.498 391.099 301.498 390.599 301.398C387.899 300.798 385.099 301.298 382.299 301.098C379.199 300.998 375.999 301.198 372.799 300.598C371.499 300.298 369.599 300.198 367.999 300.598C367.199 300.798 365.699 300.498 364.599 300.498C363.599 300.498 362.699 300.698 361.799 300.598C360.999 300.598 360.199 300.198 359.399 300.098C359.199 300.098 358.899 300.098 358.599 300.098C353.899 300.298 349.499 298.898 344.799 298.198C340.099 297.498 335.399 296.498 330.899 294.498C329.599 293.998 328.399 293.198 327.299 292.298C326.799 291.798 326.299 291.198 325.999 290.598C325.799 290.298 325.699 289.898 325.699 289.598C325.699 289.198 325.699 288.898 325.699 288.598C325.899 287.998 326.099 287.798 326.399 287.798C326.499 287.798 326.699 287.798 326.799 287.998C326.899 288.098 326.999 288.298 327.199 288.398C327.699 288.898 328.299 289.298 328.999 289.698C330.099 290.398 331.399 290.898 332.699 291.298C335.399 292.198 338.299 292.398 341.199 293.298C342.099 293.598 343.199 293.498 343.899 294.198C343.899 294.198 344.399 294.398 344.599 294.398C348.699 294.398 352.799 295.398 356.899 295.798C360.399 296.098 363.799 295.798 367.299 296.198C369.299 295.698 371.499 295.898 373.499 296.198C380.399 297.098 387.399 296.698 394.399 296.498C401.399 296.298 408.499 295.698 415.499 294.798C416.699 294.598 417.699 294.098 419.099 294.198C420.399 294.198 422.099 293.798 423.599 293.498C424.999 293.198 426.399 292.798 427.699 292.598C430.399 292.298 433.099 291.598 435.399 290.498C436.499 289.998 437.699 289.298 438.399 288.598C438.799 288.198 438.799 288.098 438.799 287.898C438.799 287.698 438.799 287.498 438.599 287.298C438.099 286.598 437.099 285.898 435.899 285.398C434.799 284.798 433.499 284.298 432.299 283.898C429.799 282.998 427.099 282.398 424.399 281.998C421.099 281.398 417.799 281.298 414.499 280.698C413.099 280.498 411.499 280.698 410.199 279.898C409.799 279.698 408.399 279.998 407.499 279.898C405.199 279.698 402.899 279.598 400.599 279.398C397.399 279.198 394.199 278.998 390.999 278.998C388.999 278.998 387.099 279.198 385.199 279.298C383.199 279.298 381.099 279.298 378.999 279.298C376.399 279.298 373.799 279.098 371.199 279.198C368.499 279.198 365.699 279.698 363.199 279.598C358.399 279.498 353.699 280.198 348.999 280.898C344.299 281.598 339.599 282.398 335.299 283.898C334.099 284.298 332.899 284.698 331.799 285.098C330.699 285.498 329.599 285.998 328.799 286.698C328.499 286.998 327.899 287.098 327.399 287.398C326.899 287.598 326.399 288.098 326.199 287.698C326.199 287.598 325.999 287.298 326.099 286.998C326.199 286.098 326.599 285.398 327.099 284.798C327.299 284.498 327.599 284.198 327.799 283.898C328.099 283.598 328.299 283.398 328.599 283.098C329.699 282.098 330.999 281.398 332.499 280.898C336.899 279.398 341.199 278.398 345.599 277.598H345.099Z" fill="black"/>
<path d="M383.4 298.901C414.9 298.901 440.4 293.901 440.4 287.801C440.4 294.001 418.5 323.301 387.1 323.301C356.5 323.301 328.3 295.701 326.5 288.401C328.1 294.301 353 298.901 383.4 298.901Z" fill="black"/>
<path d="M359.6 299.799C355.4 299.399 351.2 298.899 346.9 298.299C345.3 298.099 343.8 297.499 342.1 297.699C341.2 297.799 339.9 296.899 338.4 296.499C336.4 296.099 334.5 295.499 332.6 294.799C330.7 294.099 328.7 293.299 326.8 291.899C326 291.299 325 290.399 324.5 288.899L328.3 287.899C328.6 288.699 329.4 289.999 330.2 290.999C331 292.099 332 293.099 332.9 294.199C335.4 296.899 337.9 299.699 340.9 301.699C343.4 303.499 345.3 305.499 347.8 307.099C350.4 308.799 353.2 310.399 355.8 312.099C357.7 313.299 359.6 314.499 361.6 315.299C362.9 315.799 364.2 315.999 365.6 316.599C366.9 317.099 368.3 317.899 369.6 317.699C369.7 317.699 370.3 317.999 370.5 318.199C371.8 318.999 373.6 319.499 374.9 319.499C376.1 319.499 377.2 319.699 378.3 319.899C381.3 320.399 384.4 320.599 387.5 320.599C388.6 320.599 389.8 320.599 390.9 320.599C391.5 320.599 392 320.599 392.6 320.599L394.3 320.399C395.5 320.299 396.7 319.899 397.9 319.699C399.1 319.399 400.2 319.099 401.3 318.899C403.5 318.599 405.6 317.699 407.6 316.899C408.7 316.399 410.2 315.999 410.8 314.999C410.8 314.999 411.3 314.699 411.5 314.599C415.1 313.599 417.5 310.799 420.5 308.799C423.6 306.699 426.4 303.999 429 301.199C429.7 300.499 430.6 299.799 430.8 298.799C430.8 298.499 431.5 297.599 432 297.299C434.2 295.499 435.7 292.899 437 290.499C437.2 290.199 437.3 289.999 437.4 289.699C437.5 289.399 437.6 289.199 437.7 288.899V288.499C437.8 288.499 437.9 288.199 437.9 288.199C437.9 287.999 437.9 287.899 437.9 287.699H442.4C442.4 288.199 442.4 288.799 442.1 289.199C442.1 289.399 441.9 289.599 441.8 289.899C441.7 290.099 441.6 290.299 441.5 290.399C441 291.099 440.5 291.599 440 291.999C438.9 292.799 437.8 293.299 436.7 293.699C435.2 294.199 433.2 294.799 431.7 295.899C431 296.399 429.2 296.599 428 296.999C427 297.299 426.1 297.799 425 297.999C424.1 298.199 423.2 298.099 422.3 298.199C422 298.199 421.7 298.199 421.5 298.299C416.6 299.799 411.5 299.499 406.5 300.199C401.5 300.799 396.3 300.999 391.3 301.099C388.5 301.099 385.6 300.999 383.7 299.799C382.8 299.299 382.8 298.699 384 298.399C384.9 298.199 385.9 297.899 386.8 297.899C388.4 297.799 390 297.599 391.5 297.499C394.7 297.199 397.8 296.499 401.1 296.599C402.1 296.599 403.3 296.199 404.2 296.599C404.3 296.599 404.7 296.599 404.9 296.599C409.2 295.399 413.8 295.499 418.2 294.699C421.9 294.099 425.4 292.799 429.1 291.999C430.9 290.799 433.2 290.199 434.9 289.499C435.7 289.199 436.5 288.799 437 288.399H437.2C437.2 288.299 437.3 288.099 437.3 288.099H437.5C437.5 287.899 437.5 287.899 437.5 287.899C437.7 287.699 437.5 287.699 437.7 287.699H442.1C442.1 288.299 442 288.799 441.9 289.299C441.8 289.799 441.6 290.099 441.5 290.499C441.2 291.299 440.9 291.999 440.5 292.699C439.8 294.099 439 295.299 438.2 296.599C436.6 299.099 434.8 301.299 432.8 303.499C427.4 309.299 421.1 314.399 414.1 318.199C412.9 318.799 412 319.699 410.5 320.099C409 320.499 407.3 321.399 405.7 321.999C404.2 322.599 402.6 323.199 401.1 323.499C398 323.999 394.9 324.499 391.8 324.799C388.7 325.099 385.5 325.199 382.4 324.899C379.3 324.599 376.2 324.099 373.2 323.399C370.2 322.699 367.2 321.799 364.3 320.799C360.8 319.599 357.2 318.299 353.9 316.399C352.5 315.599 350.9 314.999 349.8 313.699C349.5 313.299 348 312.899 347.1 312.399C344.9 310.999 342.8 309.499 340.8 307.899C338 305.699 335.3 303.299 332.6 300.899C331 299.399 329.3 297.999 327.8 296.299C327 295.399 326.3 294.499 325.6 293.499C324.9 292.499 324.2 291.399 323.7 289.899L323.5 289.099V288.899L328.3 287.799C328.4 287.799 328.4 287.799 328.4 287.799C328.4 287.799 328.4 287.799 328.4 287.899C328.4 287.899 328.4 287.999 328.5 288.099L328.7 288.299C329 288.599 329.4 288.899 329.8 289.199C330.7 289.799 331.8 290.399 332.9 290.799C335.5 291.799 338.4 292.299 341 293.099C345.9 294.699 351.1 295.099 356.2 295.699C361.3 296.299 366.5 296.699 371.6 296.799C374.5 296.799 377.2 297.399 380 297.399C381.3 297.399 383.1 298.899 382.6 299.399C382.5 299.399 382.3 299.599 382.1 299.599C379.3 300.099 376.7 300.699 373.4 300.599C368.6 300.399 363.8 300.199 359 299.699L359.6 299.799Z" fill="black"/>
<path d="M335.001 265.802C336.901 262.002 338.701 258.302 340.501 254.502C341.201 253.102 342.101 251.802 342.301 250.102C342.401 249.302 343.701 248.202 344.301 246.902C346.001 243.402 347.801 239.902 349.401 236.302C351.001 232.902 352.501 229.302 354.101 225.902C355.701 222.502 357.701 219.102 359.001 215.702C360.101 212.702 361.801 210.402 363.101 207.702C364.401 204.802 365.801 201.802 367.401 199.102C368.601 197.102 369.801 195.202 370.701 193.102C371.301 191.802 371.601 190.502 372.301 189.102C372.901 187.802 373.901 186.502 373.901 185.102C373.901 185.002 374.301 184.502 374.501 184.202C375.501 183.002 376.401 181.302 376.701 180.002C377.001 178.702 377.501 177.802 378.001 176.702C379.801 173.002 381.601 169.302 383.401 165.602C384.201 167.302 385.001 168.902 385.801 170.602C386.301 171.702 386.801 172.802 387.301 173.802L388.001 175.402L388.401 176.202C388.901 177.302 389.301 178.402 389.801 179.502C390.901 181.802 392.301 184.102 393.001 186.302C393.801 188.502 394.701 190.502 395.801 192.602C396.401 193.802 396.801 195.302 397.801 195.902C397.801 195.902 398.101 196.402 398.201 196.602C399.101 200.302 401.701 203.102 403.101 206.502C404.601 210.102 406.501 213.602 408.201 217.102C408.701 218.002 409.001 219.102 409.801 219.802C410.101 220.002 410.601 221.002 410.701 221.502C411.401 224.402 413.101 226.902 414.301 229.702C415.701 232.802 417.401 235.702 418.501 239.002C419.001 240.402 419.701 242.202 421.001 243.502C421.601 244.102 422.101 245.702 422.701 246.802C423.201 247.702 423.901 248.502 424.301 249.402C424.701 250.202 424.901 251.002 425.101 251.902C425.101 252.102 425.301 252.402 425.501 252.602C428.301 256.802 429.601 261.602 432.001 266.002C434.401 270.402 436.501 275.002 438.701 279.602C439.901 282.102 441.001 284.802 440.801 287.002C440.801 288.002 440.201 288.202 439.401 287.302C438.801 286.602 438.201 285.802 437.701 285.002C436.901 283.602 436.101 282.302 435.301 280.902C433.701 278.102 431.801 275.502 430.601 272.402C430.201 271.402 429.401 270.502 429.501 269.502C429.501 269.402 429.401 269.002 429.201 268.802C426.501 265.202 425.001 260.802 422.901 256.802C421.201 253.402 419.001 250.302 417.501 246.702C416.001 245.102 415.001 242.802 414.201 240.802C411.501 233.702 407.701 227.102 404.401 220.202C401.101 213.302 397.601 206.402 394.301 199.402C393.701 198.202 392.901 197.402 392.501 195.902C392.101 194.502 391.101 192.902 390.401 191.402C389.701 190.002 388.901 188.602 388.401 187.302C387.501 184.802 386.401 182.302 385.201 179.902L384.301 178.102L384.001 177.402L383.801 177.102L383.201 176.002L382.901 176.502L382.601 177.102L382.401 177.402L382.001 178.302L380.001 182.302C378.701 185.002 377.401 187.702 376.101 190.402C374.601 193.702 373.301 197.202 371.501 200.402C370.801 201.802 370.301 203.402 369.101 204.602C368.801 204.902 368.501 206.402 368.101 207.402C367.001 209.702 365.901 211.902 364.801 214.202C363.301 217.302 361.701 220.502 360.201 223.602C359.301 225.502 358.601 227.502 357.701 229.502C356.801 231.502 355.801 233.602 354.701 235.502C353.401 238.002 352.001 240.402 350.701 243.002C349.401 245.602 348.301 248.502 346.801 250.902C344.001 255.402 342.001 260.202 339.601 264.802C337.301 269.402 334.901 274.102 332.801 278.802C331.601 281.502 329.901 283.602 328.701 286.202C328.101 287.402 326.001 288.402 325.801 287.702C325.801 287.602 325.801 287.302 325.801 287.102C326.601 284.402 327.101 281.702 328.601 278.902C330.801 274.702 332.801 270.402 334.901 266.102L335.001 265.802Z" fill="black"/>
<path d="M388.1 172.402C384.2 173.202 380.199 174.202 376.299 174.902C374.799 175.202 373.2 174.902 371.9 176.302C371.2 177.002 369.6 176.002 368.2 176.302C364.5 177.202 360.8 177.302 357.1 178.002C353.5 178.602 349.9 179.602 346.299 180.002C342.699 180.402 338.9 180.202 335.5 181.102C332.5 181.902 329.7 181.002 326.9 181.402C323.9 181.802 320.7 182.202 317.7 181.802C315.5 181.502 313.3 181.102 311.2 181.402C309.9 181.602 308.6 182.202 307.1 182.202C305.7 182.202 304.2 181.702 303 182.902C302.9 183.002 302.3 182.802 302 182.602C300.5 181.802 298.7 181.802 297.5 182.402C296.3 182.902 295.2 182.902 294.1 182.902C291 182.902 287.9 182.902 284.9 182.702C282.6 182.502 280.3 182.002 278 181.802C275.6 181.602 272.999 182.102 270.799 181.302C268.6 180.602 266.499 180.502 264.299 180.302C263.1 180.302 261.7 179.602 260.6 180.802C260.5 180.902 259.999 180.802 259.799 180.802C256.399 179.002 252.8 180.802 249.2 180.102C245.6 179.402 241.8 179.402 238 179.102C237 179.102 236 178.602 235 179.402C234.6 179.702 233.6 179.602 233.1 179.402C230.5 177.902 227.5 178.402 224.7 177.902C221.5 177.302 218.2 177.502 215.1 176.202C213.8 175.602 211.9 175.202 210.2 176.202C209.4 176.602 207.9 175.902 206.7 175.902C205.7 175.902 204.7 176.302 203.8 176.202C203 176.202 202.2 175.602 201.4 175.202C201.2 175.202 200.9 175.102 200.6 175.202C195.8 176.002 191.3 173.602 186.6 173.402C181.8 173.202 177.1 172.402 172.4 171.602C169.8 171.202 167.2 170.402 165.7 167.902C165 166.802 165.2 165.702 166.4 165.202C167.3 164.802 168.3 164.502 169.2 164.502C170.7 164.502 172.2 164.502 173.7 164.502C176.8 164.502 179.9 163.802 182.9 164.802C183.8 165.102 185.1 164.602 185.7 165.802C185.7 166.002 186.2 166.102 186.4 166.002C190.8 164.902 194.9 166.502 199.2 166.902C202.8 167.202 206.4 166.402 210 167.402C212.1 166.402 214.5 166.802 216.4 167.402C219.9 168.502 223.4 168.902 227 169.302C230.6 169.602 234.2 169.802 237.7 170.202C241.3 170.702 244.9 170.902 248.6 171.202L259.5 172.002C260.7 172.002 261.799 171.402 263.299 172.002C264.6 172.602 266.4 172.302 268 172.402C269.5 172.402 270.999 172.402 272.299 172.702C277.899 174.202 283.7 173.702 289.4 174.002C292.2 174.002 295.1 174.202 297.9 174.202C300.7 174.202 303.6 174.202 306.4 174.002C309.799 173.702 313.3 173.002 316.7 173.202C318.2 173.302 319.7 172.502 321.2 173.602C321.6 173.902 323 172.902 323.9 172.802C326.299 172.602 328.6 172.502 331 172.402H333.5C334.3 172.202 335.1 172.202 336 172.102C337.6 172.002 339.299 171.802 340.9 171.602C342.9 171.302 344.799 170.702 346.799 170.402C348.9 170.102 351 169.802 353 169.702C355.6 169.502 358.3 169.602 361 169.402C363.8 169.202 366.5 168.102 369.2 168.202C374.2 168.402 378.9 167.102 383.7 166.102C388.5 165.102 393.299 164.302 397.9 162.702C400.5 161.802 403.199 162.102 405.799 161.402C406.999 161.102 409.499 163.402 409.299 164.502C409.299 164.702 409.1 165.002 408.9 165.102C406.6 166.702 404.6 168.802 401.6 169.502C399.4 170.002 397.2 170.602 395 171.202L388.299 172.702L388.1 172.402Z" fill="black"/>
<path d="M281.2 377.601C281.2 374.101 281.2 370.501 281.2 367.001C281.2 365.701 281.7 364.301 280.6 363.001C280.1 362.301 281.3 361.001 281.3 359.801C281.2 356.501 281.3 353.201 281.3 349.901C281.2 346.701 280.7 343.501 280.6 340.301C280.5 337.101 281.1 333.801 280.4 330.801C279.8 328.101 280.8 325.701 280.6 323.201C280.3 320.501 280.2 317.701 280.6 315.101C280.9 313.201 281.4 311.301 281.2 309.401C281.1 308.201 280.4 307.101 280.5 305.801C280.5 304.601 281.1 303.201 279.8 302.201C279.7 302.201 279.9 301.601 280.1 301.301C280.9 300.001 280.9 298.401 280.3 297.301C279.8 296.201 279.8 295.301 279.8 294.301C279.8 291.601 279.7 288.901 279.8 286.101C279.8 284.101 280.4 282.001 280.5 280.001C280.6 277.901 280.1 275.601 280.7 273.701C281.3 271.701 281.3 269.901 281.3 267.901C281.3 266.801 281.9 265.501 280.6 264.601C280.5 264.601 280.5 264.101 280.6 263.901C282.3 260.801 280.1 257.701 280.5 254.501C280.9 251.201 280.6 247.901 280.5 244.601C280.5 243.701 280.9 242.801 279.9 242.001C279.6 241.701 279.5 240.801 279.8 240.301C281.1 237.901 280.3 235.301 280.5 232.801C280.7 229.901 280.2 227.101 281.1 224.201C281.5 223.001 281.7 221.301 280.6 219.901C280.1 219.201 280.6 217.801 280.5 216.801C280.4 215.901 279.9 215.101 279.8 214.301C279.8 213.601 280.3 212.801 280.5 212.101C280.5 211.901 280.5 211.601 280.5 211.401C279.2 207.201 280.9 203.101 280.5 198.901C280.1 194.701 280.3 190.401 280.5 186.101C280.6 183.801 281 181.301 283.3 179.801C284.3 179.101 285.4 179.101 286.1 180.101C286.6 180.801 287 181.701 287.2 182.501C287.4 183.801 287.7 185.201 287.9 186.501C288.3 189.201 289.4 191.901 288.8 194.701C288.6 195.601 289.2 196.601 288.2 197.301C288.1 197.301 288 197.801 288.1 197.901C289.7 201.601 288.6 205.501 288.8 209.301C288.8 212.501 290.2 215.701 289.6 218.901C290.9 220.701 290.6 222.801 290.3 224.601C289 231.001 289.9 237.401 289.7 243.801C289.5 250.301 289.7 256.801 289.7 263.301C289.7 264.401 290.4 265.401 289.9 266.701C289.4 267.901 289.8 269.501 289.8 270.901C289.8 272.301 290.1 273.601 289.8 274.801C288.5 279.901 289.3 285.001 289.1 290.101C289 295.201 288.8 300.301 289.1 305.301C289.3 308.401 290 311.501 289.7 314.601C289.6 315.901 290.3 317.301 289.1 318.601C288.8 319.001 289.7 320.201 289.7 321.101C289.8 323.201 289.7 325.401 289.7 327.501C289.7 329.601 289.7 333.401 289.7 336.401C289.7 338.201 290.3 340.001 290.4 341.801C290.5 343.701 290.5 345.601 290.4 347.501C290.2 349.901 289.8 352.301 289.7 354.701C289.6 357.201 290.1 359.801 289.6 362.101C288.6 366.501 289.1 370.901 289 375.301C288.9 379.701 288.8 384.101 289 388.401C289.1 390.901 288.1 393.101 288.1 395.601C288.1 396.701 285.2 398.301 284.1 397.801C283.9 397.801 283.7 397.501 283.6 397.301C282.7 394.901 281.2 392.701 281.3 390.001C281.4 386.001 281.3 382.001 281.3 377.901L281.2 377.601Z" fill="black"/>
<path d="M192.799 290.301C185.199 283.401 179.899 274.201 175.499 264.901C172.199 257.801 169.199 250.401 168.599 242.701C168.399 239.801 168.499 236.801 169.799 234.201C171.099 231.601 173.799 229.501 176.699 229.701C179.999 229.901 182.499 232.901 184.199 235.801C188.099 242.501 190.099 250.201 191.999 257.701C192.099 253.101 192.299 248.501 193.399 244.001C194.499 239.501 196.799 235.201 200.499 232.501C202.499 231.001 205.299 230.001 207.299 231.301C208.899 232.301 209.499 234.301 209.799 236.101C211.499 245.501 208.699 255.201 205.299 264.201C203.199 269.901 200.799 275.401 198.199 280.901C196.399 284.701 194.499 288.501 191.799 291.801" fill="black"/>
<path d="M198.999 274.6C200.299 271.6 201.599 268.5 202.799 265.5C203.199 264.3 203.899 263.3 203.799 261.9C203.799 261.2 204.799 260.3 205.099 259.2C205.999 256.3 206.999 253.4 207.499 250.4C207.999 247.5 208.099 244.6 208.099 241.8C208.099 240.4 208.099 239 207.799 237.6C207.599 236.2 207.299 234.9 206.799 234.1C206.299 233.5 205.999 233.3 205.599 233C205.199 232.8 204.299 232.8 203.599 233.2C201.899 234 200.299 235.7 198.799 237.3C197.699 238.5 196.799 239.9 196.199 241.5C195.899 242.5 195.899 243.5 195.599 244.6C195.299 245.6 194.799 246.8 195.299 247.8C195.299 247.8 195.199 248.3 194.999 248.6C194.399 249.7 194.299 251.2 194.499 252.2C194.699 253.2 194.599 254 194.599 254.9V257.8L189.299 258.4C188.899 256.9 188.499 255.4 188.099 253.9C187.699 252.1 187.399 250.2 186.899 248.4C186.399 246.5 185.399 244.7 184.999 242.9C184.599 241.1 183.899 239.6 183.099 238.1C182.599 237.2 182.299 236.1 181.299 235.8C181.299 235.8 180.999 235.5 180.999 235.3C180.599 234 179.599 233.1 178.599 232.6C177.599 232.1 176.699 232.1 175.799 232.1C174.899 232.1 173.799 232.6 172.999 233.4C172.199 234.2 171.599 235.2 171.199 236.4C170.999 237 170.699 237.7 170.999 238.4C171.099 238.6 170.999 239.4 170.999 239.7C170.299 241.7 170.999 244 171.199 246.2C171.499 248.7 172.499 251.1 172.899 253.8C173.099 254.9 173.499 256.4 174.499 257.4C174.999 257.9 175.199 259.2 175.699 260C176.099 260.7 176.599 261.3 176.999 262C177.299 262.6 177.399 263.3 177.499 264C177.499 264.2 177.699 264.4 177.799 264.6C180.099 267.8 180.999 271.6 183.199 274.8C185.399 278 187.499 281.2 189.999 284.2C191.299 285.8 192.699 287.5 192.999 289.3C193.099 290.1 192.799 290.6 191.899 290.1C191.199 289.8 190.499 289.4 189.899 288.9C188.899 288.1 187.999 287.2 187.099 286.3C185.299 284.5 183.299 282.7 181.999 280.3C181.599 279.6 180.799 278.9 180.899 278C180.899 277.9 180.799 277.6 180.599 277.5C177.999 274.9 176.699 271.3 175.099 268.1C173.699 265.4 171.899 262.9 170.899 259.9C169.699 258.6 168.999 256.6 168.599 254.8C167.899 251.7 167.199 248.7 166.699 245.6C166.499 244 166.299 242.5 166.199 240.8C166.199 239.2 166.199 237.5 166.699 235.7C166.899 234.8 167.199 234 167.599 233.1C167.999 232.2 168.499 231.4 169.199 230.7C170.399 229.3 172.099 228.1 174.099 227.5C176.099 226.9 178.399 227.3 180.099 228.2C181.899 229.1 183.199 230.5 184.199 231.8C184.899 232.7 185.799 233.4 186.199 234.7C186.599 235.9 187.499 237.1 187.999 238.4C188.499 239.6 189.199 240.7 189.499 241.9C190.699 246.7 192.299 251.3 193.399 256L193.599 257L189.999 257.4C190.199 253 190.399 248.4 191.299 243.8C191.899 240.8 192.799 237.7 194.699 235C195.499 233.9 196.199 232.5 197.699 232C198.099 231.9 198.699 230.7 199.599 230.1C200.599 229.4 201.699 228.8 202.999 228.5C204.299 228.2 205.799 228.1 207.299 228.6C208.299 229 209.199 229.6 209.899 230.4C210.599 231.2 210.999 232 211.299 232.9C211.599 233.7 211.799 234.5 211.899 235.3L212.299 237.5C212.499 239.3 212.899 241.1 212.899 242.9C212.899 244.8 212.699 246.7 212.399 248.5C211.999 250.8 211.199 253 210.599 255.3C209.899 257.6 209.399 260 208.399 262.1C206.499 265.9 205.199 269.8 203.499 273.6C201.799 277.4 200.099 281.1 198.299 284.9C197.299 287.1 195.699 288.7 194.399 290.6C193.799 291.5 191.699 291.8 191.599 291.1C191.599 291 191.599 290.8 191.599 290.6C192.599 288.6 192.999 286.6 194.199 284.4C195.999 281.2 197.499 277.7 198.999 274.3V274.6Z" fill="black"/>
<path d="M416.001 259.1C416.001 258.3 412.001 257.6 405.701 257.1C394.901 256.2 386.301 247.7 385.401 236.8C384.901 230.5 384.201 226.5 383.401 226.5C382.601 226.5 381.901 230.5 381.401 236.8C380.501 247.6 372.001 256.2 361.101 257.1C354.801 257.6 350.801 258.3 350.801 259.1C350.801 259.9 354.801 260.6 361.101 261.1C371.901 262 380.501 270.5 381.401 281.4C381.901 287.7 382.601 291.7 383.401 291.7C384.201 291.7 384.901 287.7 385.401 281.4C386.301 270.6 394.801 262 405.701 261.1C412.001 260.6 416.001 259.9 416.001 259.1Z" fill="#FE5102"/>
<path d="M398.401 265.101C397.001 265.801 395.701 266.701 394.501 267.601C393.301 268.601 392.201 269.701 391.301 271.001C390.901 271.501 390.601 271.901 390.301 272.401C390.001 272.901 389.801 273.501 389.701 274.101C389.701 274.701 388.601 275.501 388.301 276.501C388.101 277.201 387.901 277.901 387.701 278.601L387.501 279.701V280.801C387.301 281.501 387.201 282.301 387.101 283.101L386.901 285.501C386.701 287.101 386.601 288.601 386.301 290.301C386.301 290.701 386.101 291.201 385.901 291.701L385.701 292.201C385.601 292.401 385.501 292.601 385.301 292.801C385.201 293.001 385.001 293.101 384.801 293.301C384.801 293.401 384.201 293.701 383.801 293.701C383.401 293.801 383.001 293.701 382.501 293.701C382.301 293.701 382.101 293.501 381.901 293.401C381.901 293.401 381.701 293.301 381.601 293.201C381.401 293.101 381.201 292.901 381.201 292.801L381.001 292.501C380.801 292.301 380.801 292.201 380.701 292.001C380.501 291.701 380.501 291.501 380.401 291.201C380.201 290.701 380.101 290.301 380.001 289.901C379.601 288.301 379.501 286.701 379.301 285.101C379.301 284.301 379.101 283.501 379.101 282.801C379.101 282.401 379.101 282.001 379.001 281.701C379.001 281.401 378.901 281.001 378.801 280.701C378.201 278.501 378.101 276.401 377.001 274.401C375.901 272.401 374.401 270.501 372.901 268.801C371.801 267.501 370.601 266.401 369.001 265.601C368.501 265.401 368.001 265.201 367.501 265.101C367.001 265.001 366.501 264.901 366.001 264.601C365.501 264.401 365.001 264.201 364.501 264.001C364.001 263.901 363.401 263.901 362.901 264.001C362.901 264.001 362.401 263.801 362.201 263.701C361.701 263.401 361.101 263.201 360.401 263.201C359.701 263.201 359.101 263.201 358.501 263.201C357.401 263.401 356.501 263.201 355.501 263.201C354.101 263.001 352.801 262.901 351.301 262.501C351.101 262.501 350.901 262.401 350.701 262.301H350.401C350.401 262.201 350.001 262.001 350.001 262.001C349.901 262.001 349.601 261.801 349.501 261.701H349.401C349.401 261.601 349.401 261.501 349.401 261.501H349.301C349.101 261.201 349.001 261.101 348.801 260.901C348.801 260.801 348.701 260.801 348.601 260.601C348.601 260.401 348.401 260.201 348.401 260.001C348.301 259.601 348.201 259.201 348.401 258.701C348.401 258.501 348.501 258.301 348.601 258.101C348.601 258.001 348.601 257.901 348.701 257.801C348.701 257.701 348.701 257.601 348.701 257.601C348.801 257.401 349.001 257.201 349.101 257.101L349.301 256.901H349.401C349.401 256.801 349.701 256.601 349.701 256.601C349.901 256.501 350.001 256.401 350.201 256.401C350.501 256.301 350.701 256.201 350.901 256.101C351.301 256.001 351.701 255.901 352.101 255.801C354.301 255.401 356.301 255.401 358.301 255.201C358.801 255.201 359.301 255.201 359.901 255.101C360.401 255.101 361.001 255.001 361.401 254.901C361.901 254.901 362.301 254.801 362.801 254.701C363.201 254.701 363.701 254.601 364.101 254.501C365.801 254.401 367.401 253.801 368.901 253.001C369.301 252.801 369.801 252.601 370.201 252.301C370.601 252.001 371.001 251.701 371.101 251.201C371.101 251.201 371.401 250.901 371.601 250.801C372.901 250.301 373.901 249.301 374.701 248.201C375.101 247.601 375.401 247.001 375.801 246.501C376.101 245.901 376.501 245.301 376.801 244.701C378.301 242.301 379.101 239.401 379.201 236.601C379.201 235.701 379.501 234.801 379.201 234.001C379.101 233.701 379.201 232.801 379.301 232.401C379.801 231.201 380.001 230.001 380.201 228.701C380.301 228.001 380.401 227.401 380.801 226.501L381.001 226.101C381.001 226.001 381.201 225.801 381.301 225.601C381.301 225.501 381.701 225.101 381.901 224.901C381.901 224.901 382.001 224.901 382.101 224.701C382.201 224.701 382.401 224.501 382.601 224.501C382.901 224.401 383.301 224.301 383.601 224.401C383.901 224.401 384.301 224.501 384.601 224.701C384.801 224.701 384.801 224.801 384.901 224.901C384.901 224.901 385.001 225.001 385.101 225.101C385.201 225.201 385.401 225.401 385.501 225.501L385.701 225.701C385.901 226.101 386.001 226.301 386.101 226.501C386.401 227.501 386.601 228.201 386.701 228.901C386.801 229.601 387.001 230.301 387.101 231.101C387.301 232.501 387.401 233.901 387.301 235.401C387.301 236.601 387.301 238.101 388.101 239.301C388.301 239.601 388.401 240.001 388.501 240.501C388.601 241.001 388.701 241.501 388.901 241.901C389.201 242.601 389.701 243.101 390.001 243.801C390.301 244.301 390.301 245.001 390.601 245.601C390.601 245.801 390.801 246.001 390.901 246.101C392.201 247.401 393.201 248.801 394.501 250.101C395.801 251.301 397.201 252.601 398.901 253.301C400.601 254.001 402.301 254.501 404.101 254.901C405.801 255.201 408.001 255.301 410.101 255.601C411.201 255.801 412.401 256.001 413.501 256.401C414.601 256.801 415.501 257.301 416.301 258.401C416.301 258.501 416.401 258.601 416.501 258.801C416.501 258.901 416.501 259.001 416.501 259.201C416.501 259.501 416.301 259.501 416.201 259.501C415.901 259.401 415.801 259.501 415.401 259.501C414.801 259.501 414.001 259.501 413.201 259.501C412.001 259.401 410.701 259.301 409.501 259.301C408.201 259.301 406.901 259.301 405.601 259.301C404.901 259.301 404.201 259.301 403.501 259.101C402.801 259.001 402.101 258.801 401.401 258.601C400.601 258.201 399.401 258.201 398.901 257.501C398.901 257.401 398.501 257.201 398.301 257.201C397.801 257.201 397.301 257.001 396.901 256.801C396.401 256.601 396.001 256.401 395.501 256.201C394.601 255.701 393.801 255.201 393.001 254.601C391.401 253.401 390.101 251.901 388.801 250.301L388.001 249.301L387.301 248.301C386.801 247.601 386.301 246.901 385.901 246.201C385.401 245.501 385.101 244.701 384.801 243.901C384.501 243.101 384.201 242.301 384.101 241.401C383.001 239.701 382.901 237.201 382.901 235.701C382.901 234.201 382.901 232.701 382.701 231.201C382.701 230.501 382.501 229.801 382.401 229.101C382.401 228.801 382.201 228.501 382.201 228.401C382.301 228.401 382.401 228.401 382.501 228.301C382.701 228.201 382.901 228.101 383.101 227.901C383.101 227.901 383.301 227.801 383.301 227.701C383.301 227.701 383.401 227.701 383.501 227.601C383.601 227.501 383.501 227.501 383.601 227.401C383.601 227.601 383.801 227.701 383.901 227.801C384.201 228.101 384.601 228.401 385.001 228.501C385.001 228.501 385.001 228.701 384.901 228.801C384.901 229.101 384.701 229.401 384.701 229.701C384.601 230.401 384.501 231.101 384.401 231.801C384.201 233.301 384.101 234.801 383.901 236.301V237.501C383.801 237.501 383.601 238.801 383.601 238.801C383.601 239.701 383.301 240.501 383.101 241.301C382.901 242.101 382.601 242.901 382.401 243.801C382.101 244.601 381.801 245.401 381.401 246.201C379.901 249.301 377.701 252.101 375.101 254.201C374.601 254.601 374.301 255.001 373.801 255.301C373.401 255.701 372.901 256.001 372.201 256.301C371.001 256.801 369.601 257.701 368.201 258.201C366.901 258.701 365.601 259.201 364.201 259.301C361.401 259.501 359.101 259.401 356.701 259.801C355.501 260.001 354.301 260.101 353.301 260.401C353.001 260.401 352.801 260.501 352.601 260.601C352.501 260.601 352.401 260.601 352.401 260.601V260.501C352.401 260.301 352.201 260.201 352.101 260.101L351.901 259.901C351.901 259.901 351.901 259.901 351.901 259.801C351.901 259.801 351.801 259.601 351.701 259.601C351.601 259.601 351.701 259.601 351.601 259.601C351.601 259.601 351.601 259.601 351.701 259.601C351.801 259.601 351.901 259.501 352.001 259.401C352.001 259.401 352.001 259.201 352.201 259.101C352.401 258.901 352.701 258.401 352.601 258.501C352.601 258.501 352.901 258.601 353.101 258.701C354.101 259.001 355.301 259.201 356.401 259.401C357.601 259.601 358.801 259.701 360.001 259.801L361.801 260.001L363.801 260.201C364.501 260.301 365.101 260.501 365.701 260.601C366.301 260.701 367.001 260.901 367.601 261.101C370.701 262.001 373.701 263.401 376.101 265.701C376.601 266.201 377.201 266.601 377.701 267.201C378.201 267.701 378.601 268.301 378.801 269.001C378.801 269.201 379.201 269.501 379.501 269.801C379.901 270.101 380.201 270.601 380.501 270.901C381.701 272.801 382.601 274.901 383.201 277.001C383.401 277.701 383.601 278.501 383.701 279.301C383.801 280.101 383.901 280.801 384.001 281.601C384.101 283.001 384.201 284.401 384.401 285.801C384.501 286.601 384.701 287.401 384.901 288.201C385.101 289.001 385.301 289.801 385.501 290.301V290.501C385.501 290.501 385.701 290.501 385.201 290.701C384.901 290.801 384.701 290.901 384.501 291.101C384.301 291.201 384.101 291.501 384.001 291.501C383.701 291.701 383.701 292.001 383.701 291.901C383.701 291.901 383.701 291.801 383.601 291.701C383.601 291.701 383.501 291.601 383.401 291.501C383.401 291.501 383.301 291.501 383.201 291.301C383.001 291.101 382.801 291.001 382.501 290.901C382.401 290.901 382.301 290.901 382.101 290.701H381.901C381.901 290.601 381.901 290.601 381.901 290.601V290.301C382.201 289.701 382.401 288.801 382.501 288.001C382.901 285.901 383.301 283.701 383.601 281.401C383.901 278.801 384.301 276.001 385.601 273.901C386.801 271.901 388.101 270.001 389.501 268.201C391.001 266.501 392.701 264.901 394.601 263.701C396.501 262.501 398.601 261.501 400.801 260.901C401.301 260.701 401.901 260.601 402.401 260.501C403.001 260.401 403.501 260.201 404.101 260.201L405.801 260.001L407.301 259.801C409.601 259.501 411.801 259.801 413.901 259.301C414.401 259.201 415.001 259.301 415.401 259.601C415.501 259.601 415.601 259.701 415.701 259.801C415.801 259.801 415.901 259.801 416.001 259.801C416.201 259.801 416.401 259.601 416.501 260.001V260.201C416.501 260.201 416.501 260.301 416.501 260.401C416.501 260.601 416.301 260.701 416.201 260.701C415.501 261.201 415.001 261.401 414.501 261.701C413.901 262.001 413.401 262.201 412.801 262.401C411.701 262.801 410.501 263.101 409.201 263.301L406.301 263.501C405.801 263.501 405.401 263.601 405.001 263.701C404.601 263.701 404.101 263.801 403.701 263.901C402.001 264.201 400.301 264.901 398.701 265.601L398.401 265.101Z" fill="#FE5102"/>
<path d="M183.701 251.202C183.601 250.902 183.501 250.602 183.301 250.302C183.301 250.202 183.401 250.002 182.901 250.102C182.601 250.102 183.201 249.802 183.101 249.702C182.901 249.502 182.901 249.102 182.701 248.902C182.501 248.702 182.201 248.502 182.001 248.302C181.801 248.102 182.001 247.702 181.501 247.602C181.101 247.602 181.501 247.102 181.301 246.902C181.101 246.702 180.901 246.602 181.001 246.202C181.001 246.002 181.201 245.702 181.001 245.602C180.901 245.602 180.601 245.602 180.501 245.502C180.501 245.402 180.601 245.102 180.001 245.402C180.001 245.402 180.001 245.402 180.001 245.302C180.301 245.002 180.201 244.902 179.901 244.902C179.601 244.902 179.601 244.902 179.501 244.802C179.301 244.602 179.201 244.402 179.101 244.202C179.101 244.002 179.101 243.702 179.101 243.502C179.101 243.302 178.701 243.302 178.901 243.002C179.101 242.702 178.901 242.502 178.901 242.402C178.901 242.402 179.001 242.102 178.401 242.402C178.901 241.702 177.901 242.102 177.901 241.802C177.901 241.502 177.601 241.402 177.501 241.202C177.501 241.202 177.501 241.002 177.201 241.202C177.101 241.302 177.001 241.202 177.101 241.202C177.401 240.602 177.101 240.802 177.001 240.702C177.001 240.502 176.701 240.702 176.801 240.202C176.801 240.002 176.801 239.802 176.501 240.402C176.401 240.602 176.501 240.402 176.401 240.402C176.401 240.402 176.301 240.702 176.201 240.702C176.201 240.702 176.201 240.502 176.201 240.302C176.101 240.602 176.001 240.602 176.001 240.402C176.001 240.302 175.801 240.102 175.801 240.202C175.801 240.402 175.701 240.302 175.601 240.202C175.601 240.202 175.401 240.002 174.501 239.402C174.101 239.102 173.601 238.802 173.501 238.502C173.401 238.302 173.301 238.002 173.301 237.902C173.301 237.702 173.401 237.502 173.501 237.302C173.701 236.902 173.901 236.202 174.401 236.302C174.601 236.302 174.601 236.002 174.901 236.502C174.901 236.502 174.901 236.502 175.001 236.502C175.401 235.602 176.101 236.102 176.601 236.102C177.001 236.102 177.701 235.602 178.101 236.102C178.601 235.602 178.901 235.902 179.101 236.102C179.601 237.102 180.501 237.302 181.001 237.902C181.501 238.502 182.001 239.102 182.301 239.702C182.301 239.702 182.701 239.702 182.601 239.902C182.501 240.102 182.701 240.202 182.801 240.302C182.801 240.402 183.101 240.402 183.001 240.602C182.701 241.402 183.301 241.602 183.501 242.102C183.701 242.602 183.901 243.002 184.301 243.402C184.501 243.602 185.001 243.702 185.001 244.002C185.001 244.102 185.401 244.002 185.001 244.502C184.901 244.602 185.301 244.502 185.401 244.502C185.501 244.702 185.601 244.902 185.701 245.102C185.801 245.402 185.901 245.602 186.101 245.902C186.201 246.002 186.501 246.102 186.701 246.202C186.801 246.302 186.901 246.502 187.001 246.702C187.001 246.902 187.001 247.302 187.001 247.502C187.001 247.702 187.401 247.902 187.301 248.202C187.001 248.802 187.401 249.102 187.601 249.502C187.701 249.902 187.801 250.302 188.101 250.702C188.301 250.902 187.901 251.302 188.001 251.502C188.001 251.602 186.701 252.302 186.201 252.402H186.001C185.501 252.402 184.701 252.402 184.701 252.202C184.701 251.802 184.401 251.502 184.301 251.202H183.701Z" fill="#FE5102"/>
<path d="M202.201 252.2C202.301 252 202.401 251.7 202.501 251.4C202.501 251.3 202.801 251.3 202.301 251C202.101 250.9 202.701 251 202.701 250.9C202.701 250.6 202.901 250.4 202.901 250.1C202.901 249.8 202.701 249.5 202.701 249.3C202.701 249 203.001 248.8 202.701 248.6C202.501 248.3 203.001 248.2 202.901 248C202.901 247.8 202.801 247.5 203.001 247.4C203.201 247.3 203.401 247.1 203.301 247C203.301 246.9 202.901 246.8 203.001 246.7C203.001 246.7 203.301 246.5 202.701 246.4C202.701 246.4 202.701 246.4 202.901 246.4C203.301 246.4 203.301 246.2 203.001 246.1C202.701 246 202.801 245.9 202.801 245.8C202.801 245.6 202.801 245.4 202.801 245.1C202.801 244.9 203.101 244.8 203.201 244.6C203.201 244.4 203.001 244.2 203.201 244.1C203.501 243.9 203.501 243.8 203.501 243.6C203.501 243.6 203.801 243.4 203.201 243.3C204.001 243 202.901 242.8 203.201 242.5C203.401 242.2 203.201 241.9 203.201 241.7C203.201 241.7 203.401 241.5 202.901 241.5C202.701 241.5 202.701 241.5 202.901 241.4C203.501 241.2 203.101 241 203.201 240.7C203.301 240.4 203.001 240.2 203.501 239.9C203.701 239.8 203.801 239.6 203.201 239.5C202.901 239.5 203.201 239.3 203.201 239.2C203.201 239.2 202.901 239.1 202.901 239C202.901 239 203.101 238.9 203.201 238.8C202.501 238.5 203.401 238.1 203.201 237.7C203.201 237.7 203.201 237.5 203.101 237.4C203.401 237.4 204.001 237.2 204.301 236.9C204.701 236.7 204.701 236.5 204.701 236.6C204.701 236.5 204.701 236.3 204.701 236.2C204.701 236 204.701 235.7 204.701 235.6C204.801 235.4 205.201 235.2 205.401 235.3C205.801 235.4 206.101 235.6 206.301 235.8C206.701 236.2 207.401 236.5 207.101 237C207.101 237.2 207.301 237.2 206.801 237.3C207.601 237.6 207.101 237.9 207.201 238.3C207.201 238.6 207.901 238.8 207.701 239.1C208.301 239.2 208.201 239.4 208.101 239.6C207.501 240.2 207.901 240.8 207.901 241.3C207.901 241.9 207.901 242.5 207.901 243.1C207.901 243.2 208.301 243.3 207.901 243.4C207.601 243.5 207.901 243.7 207.901 243.8C207.901 243.9 208.001 244 207.901 244.2C207.201 244.7 207.601 245.1 207.501 245.6C207.501 246.1 207.301 246.5 207.501 247C207.501 247.3 207.901 247.6 207.701 247.9C207.701 248 207.901 248.2 207.301 248.2C207.101 248.2 207.601 248.4 207.601 248.5C207.601 248.7 207.601 248.9 207.601 249.1C207.601 249.4 207.501 249.6 207.501 249.9C207.501 250.1 207.701 250.3 207.701 250.5C207.701 250.7 207.701 250.9 207.601 251C207.501 251.2 207.201 251.4 207.101 251.6C207.001 251.8 207.101 252.1 206.801 252.3C206.201 252.5 206.301 253 206.101 253.4C205.901 253.8 205.701 254.1 205.601 254.6C205.601 254.8 205.001 254.8 204.901 255C204.901 255.1 203.501 254.5 203.101 254.2L202.901 254.1C202.601 253.7 202.001 253.2 202.101 253.1C202.301 252.9 202.401 252.5 202.501 252.3L202.201 252.2Z" fill="#FE5102"/>
<path d="M381.199 269.698C381.199 269.298 381.199 268.798 381.199 268.398C381.199 268.198 381.399 268.098 380.899 267.898C380.599 267.898 381.299 267.598 381.199 267.498C381.199 267.098 381.199 266.698 381.199 266.298C381.199 265.898 380.899 265.498 380.799 265.098C380.799 264.698 380.999 264.298 380.699 263.898C380.399 263.598 380.899 263.298 380.699 262.998C380.599 262.698 380.499 262.298 380.699 261.998C380.899 261.798 381.099 261.498 380.999 261.298C380.999 261.198 380.599 260.998 380.599 260.898C380.599 260.798 380.899 260.598 380.299 260.498C380.299 260.498 380.299 260.498 380.399 260.398C380.799 260.198 380.799 259.998 380.399 259.898C380.099 259.798 380.199 259.698 380.099 259.498C380.099 259.198 380.099 258.798 380.099 258.498C380.099 258.298 380.399 257.998 380.399 257.798C380.399 257.498 380.199 257.298 380.399 256.998C380.699 256.798 380.699 256.498 380.699 256.298C380.699 256.198 380.999 255.998 380.399 255.898C381.199 255.498 380.099 255.098 380.399 254.798C380.599 254.398 380.399 253.998 380.399 253.598C380.399 253.498 380.599 253.398 380.099 253.298C379.899 253.298 379.899 253.198 380.099 253.098C380.699 252.798 380.299 252.498 380.499 252.198C380.599 251.898 380.299 251.498 380.799 251.198C380.999 251.098 381.099 250.898 380.499 250.698C380.199 250.698 380.499 250.398 380.499 250.298C380.499 250.198 380.199 250.098 380.199 249.998C380.199 249.998 380.399 249.798 380.499 249.698C379.799 249.198 380.699 248.698 380.499 248.198C380.299 247.698 380.499 247.198 380.499 246.598C380.499 246.298 380.799 245.998 381.899 245.898C382.399 245.898 382.999 245.898 383.299 245.898C383.499 245.898 383.799 246.098 383.799 246.198C383.799 246.398 383.999 246.498 384.099 246.698C384.299 246.998 384.799 247.398 384.499 247.698C384.499 247.798 384.699 247.898 384.199 247.998C384.999 248.498 384.499 248.898 384.499 249.398C384.499 249.798 385.199 250.198 384.899 250.598C385.499 250.798 385.399 251.098 385.199 251.298C384.499 252.098 384.999 252.798 384.899 253.598C384.899 254.398 384.899 255.198 384.899 255.898C384.899 255.998 385.299 256.098 384.899 256.298C384.599 256.398 384.899 256.598 384.899 256.798C384.899 256.998 384.999 257.098 384.899 257.298C384.199 257.898 384.699 258.498 384.599 259.098C384.599 259.698 384.499 260.298 384.599 260.898C384.699 261.298 385.099 261.598 384.899 261.998C384.899 262.198 385.199 262.298 384.599 262.498C384.399 262.498 384.899 262.698 384.899 262.798C384.899 263.098 384.899 263.298 384.899 263.598C384.899 263.998 384.899 264.298 384.899 264.698C384.899 264.898 385.199 265.098 385.299 265.298C385.299 265.498 385.299 265.798 385.299 265.998C385.299 266.298 384.999 266.598 384.999 266.898C384.999 267.198 385.199 267.498 384.999 267.798C384.499 268.398 384.799 268.898 384.799 269.398C384.799 269.898 384.799 270.498 384.899 270.998C384.899 271.298 384.499 271.598 384.499 271.898C384.499 271.998 382.999 272.298 382.499 272.298H382.299C381.799 271.998 381.099 271.798 381.099 271.498C381.099 270.998 381.099 270.498 381.099 269.998L381.199 269.698Z" fill="white"/>
<path d="M392.801 260.398C392.401 260.398 392.101 260.398 391.701 260.398C391.601 260.398 391.401 260.198 391.301 260.698C391.301 260.998 391.101 260.298 391.001 260.398C390.701 260.398 390.301 260.398 390.001 260.398C389.701 260.398 389.301 260.698 389.001 260.798C388.701 260.798 388.301 260.598 388.001 260.898C387.701 261.198 387.501 260.698 387.201 260.898C386.901 260.998 386.601 261.098 386.401 260.898C386.201 260.698 386.001 260.498 385.801 260.598C385.701 260.598 385.601 260.998 385.401 260.998C385.301 260.998 385.101 260.698 385.001 261.298C385.001 261.298 385.001 261.298 385.001 261.198C384.801 260.798 384.701 260.798 384.601 261.198C384.601 261.498 384.401 261.398 384.301 261.498C384.001 261.498 383.701 261.498 383.501 261.498C383.301 261.498 383.101 261.198 382.801 261.198C382.601 261.198 382.401 261.398 382.101 261.198C381.901 260.898 381.701 260.898 381.501 260.998C381.401 260.998 381.201 260.698 381.201 261.398C380.801 260.598 380.601 261.698 380.201 261.498C379.801 261.298 379.501 261.498 379.201 261.498C379.201 261.498 379.001 261.298 379.001 261.798C379.001 261.998 378.901 261.998 378.801 261.798C378.501 261.198 378.301 261.598 378.001 261.498C377.701 261.498 377.401 261.698 377.101 261.298C377.001 261.098 376.801 260.998 376.701 261.598C376.701 261.898 376.501 261.598 376.401 261.598C376.401 261.598 376.301 261.898 376.201 261.998C376.201 261.998 376.001 261.798 375.901 261.698C375.501 262.398 375.001 261.598 374.601 261.698C374.201 261.898 373.701 261.898 373.301 261.898C373.101 261.898 372.801 261.698 372.501 260.598C372.401 260.098 372.301 259.498 372.401 259.198C372.401 258.998 372.501 258.698 372.601 258.598C372.701 258.498 372.901 258.298 373.001 258.198C373.301 257.998 373.501 257.398 373.801 257.698C373.901 257.698 374.001 257.498 374.101 257.998C374.401 257.198 374.901 257.598 375.301 257.498C375.601 257.498 375.901 256.798 376.301 256.998C376.401 256.398 376.701 256.398 376.901 256.598C377.601 257.198 378.301 256.598 379.001 256.698C379.701 256.698 380.401 256.598 381.101 256.598C381.201 256.598 381.301 256.198 381.501 256.598C381.601 256.898 381.801 256.598 382.001 256.598C382.101 256.598 382.301 256.398 382.401 256.598C383.001 257.198 383.501 256.798 384.101 256.798C384.601 256.798 385.201 256.798 385.701 256.698C386.001 256.598 386.301 256.198 386.701 256.298C386.801 256.298 387.001 255.998 387.101 256.598C387.101 256.798 387.301 256.298 387.401 256.298C387.601 256.298 387.901 256.298 388.101 256.298C388.401 256.298 388.701 256.298 389.001 256.298C389.201 256.298 389.401 255.998 389.601 255.898C389.801 255.898 390.001 255.898 390.201 255.898C390.501 255.898 390.701 256.198 391.001 256.198C391.301 256.198 391.501 255.998 391.801 256.198C392.301 256.698 392.701 256.498 393.201 256.498C393.701 256.498 394.101 256.598 394.601 256.498C394.901 256.498 395.101 256.898 395.401 256.898C395.501 256.898 395.601 258.398 395.601 258.898V259.098C395.301 259.598 395.101 260.298 394.801 260.198C394.401 260.198 394.001 260.198 393.501 260.198L392.801 260.398Z" fill="white"/>
<path d="M258.699 410.1C259.099 409.8 259.599 409.5 259.899 409.1C259.999 409 260.399 409.1 260.199 408.5C260.199 408.2 260.599 408.6 260.799 408.5C261.099 408.2 261.499 408 261.899 407.6C262.199 407.3 262.399 406.8 262.699 406.5C262.999 406.2 263.499 406.1 263.499 405.6C263.499 405.2 264.099 405.3 264.199 405C264.299 404.7 264.499 404.3 264.899 404.2C265.199 404.2 265.499 404 265.599 403.8C265.599 403.6 265.499 403.3 265.599 403.2C265.699 403.1 265.999 403.1 265.599 402.6C265.599 402.6 265.699 402.6 265.799 402.6C266.199 402.6 266.399 402.5 266.199 402.2C266.099 401.9 266.199 401.8 266.199 401.7C266.399 401.4 266.599 401 266.899 400.7C267.099 400.5 267.499 400.4 267.699 400.2C267.899 400 267.899 399.5 268.399 399.5C268.799 399.5 268.999 399.2 269.199 399C269.299 398.9 269.699 399 269.199 398.4C270.099 398.6 269.699 397.5 270.199 397.3C270.699 397.1 271.099 396.6 271.499 396.3C271.599 396.3 271.799 396.3 271.699 395.8C271.699 395.6 271.699 395.5 271.899 395.6C272.599 395.9 272.699 395.3 273.099 395.2C273.599 395.1 273.799 394.6 274.499 394.8C274.799 394.8 274.999 394.8 274.999 394.3C274.999 394 275.299 394.2 275.399 394C275.499 393.9 275.499 393.6 275.599 393.5C275.699 393.5 275.899 393.6 275.999 393.7C275.999 393.7 275.999 393.7 276.099 393.7C276.499 392.8 277.399 393.4 277.899 393.1C278.399 392.7 279.099 392.6 279.699 392.5C279.999 392.5 280.399 392.5 280.999 393.5C281.299 394 281.399 394.5 281.399 394.8C281.399 395.1 281.399 395.3 281.199 395.4C280.999 395.5 280.899 395.7 280.799 395.9C280.499 396.2 280.299 396.8 279.799 396.7C279.699 396.7 279.599 397 279.399 396.5C279.399 396.5 279.399 396.5 279.299 396.5C279.099 397.4 278.399 397.1 277.899 397.4C277.499 397.6 277.399 398.4 276.899 398.3C276.899 399 276.699 399 276.399 398.9C275.399 398.7 274.899 399.5 274.199 399.9C273.499 400.3 272.999 400.9 272.399 401.5C272.299 401.5 272.399 401.9 272.199 401.9C271.899 401.9 271.899 402.1 271.799 402.3C271.699 402.4 271.699 402.7 271.499 402.7C270.599 402.8 270.399 403.7 269.999 404.2C269.499 404.7 268.999 405.3 268.699 406C268.499 406.4 268.499 407 268.099 407.3C267.899 407.4 268.099 407.8 267.499 407.6C267.299 407.6 267.499 408 267.499 408.1C267.299 408.4 267.099 408.6 266.799 408.9C266.499 409.3 266.099 409.6 265.799 409.9C265.599 410.1 265.599 410.5 265.399 410.7C265.199 410.9 264.999 411.1 264.699 411.3C264.399 411.5 263.899 411.5 263.599 411.7C263.299 411.9 263.099 412.3 262.699 412.3C261.899 412.3 261.499 412.9 260.999 413.2C260.499 413.5 259.999 413.9 259.599 414.3C259.399 414.6 258.799 414.3 258.599 414.6C258.499 414.6 257.299 413.8 256.999 413.4L256.899 413.2C256.899 412.6 256.599 411.8 256.899 411.6C257.399 411.3 257.899 410.8 258.299 410.5L258.699 410.1Z" fill="#FE5102"/>
<path d="M280.8 438.701C279.6 438.701 278.4 438.701 277.3 438.701C276.9 438.701 276.4 438.401 275.9 438.901C275.7 439.201 275.3 438.501 274.9 438.501C273.8 438.501 272.7 438.301 271.6 438.301C270.5 438.301 269.5 438.301 268.4 438.301C267.3 438.301 266.3 437.801 265.3 438.001C264.4 438.201 263.7 437.501 262.8 437.501C261.9 437.501 261 437.501 260.1 437.001C259.5 436.701 258.9 436.401 258.3 436.301C257.9 436.301 257.5 436.501 257 436.301C256.6 436.201 256.2 435.801 255.7 436.301C255.7 436.301 255.5 436.201 255.4 436.101C255.1 435.601 254.6 435.501 254.1 435.601C253.7 435.801 253.4 435.601 253 435.601C252.1 435.401 251.2 435.101 250.3 434.701C249.7 434.401 249.1 433.901 248.5 433.601C247.9 433.301 247 433.201 246.5 432.601C246 432.001 245.4 431.701 244.9 431.401C244.6 431.201 244.3 430.701 243.7 431.101C243.7 431.101 243.5 431.101 243.5 431.001C243.3 430.401 242.8 430.101 242.3 429.901C241.8 429.701 241.1 429.501 240.7 429.001C240.3 428.501 239.8 427.901 239.3 427.201C238.8 426.401 238.4 425.401 238.5 424.401C238.5 423.901 238.8 423.401 238.5 422.801C238.5 422.601 238.7 422.001 238.9 421.801C240.1 421.101 240.4 420.401 241.1 419.801C241.9 419.201 242.4 418.301 243.5 418.001C244 417.901 244.5 417.601 244.5 416.901C244.5 416.501 245.1 416.501 245.3 416.201C245.5 416.001 245.6 415.601 245.9 415.401C246.1 415.301 246.5 415.401 246.7 415.301C246.7 415.301 246.9 415.301 246.9 415.201C247.8 413.901 249.5 414.001 250.8 413.201C252.1 412.401 253.5 412.001 255 411.601C255.8 411.401 256.7 411.401 257.4 412.401C257.7 412.801 257.9 413.401 257.6 413.801C257.4 414.101 257.2 414.401 257 414.501C256.6 414.701 256.3 414.901 255.9 415.101C255.1 415.501 254.6 416.301 253.7 416.401C253.4 416.401 253.2 416.801 252.8 416.401H252.6C251.9 417.601 250.6 417.601 249.6 418.301C248.8 418.801 248.3 419.901 247.4 420.201C247.4 421.001 246.8 421.301 246.2 421.501C245.2 421.901 244.5 422.501 243.8 423.201C243.5 423.601 243.1 423.901 243 424.201V424.401C242.9 424.401 242.9 424.401 242.8 424.401C242.8 424.601 242.8 424.701 242.8 424.801C242.8 424.801 242.8 424.901 243 425.001C243 425.101 243.2 425.201 243.3 425.401C243.6 425.701 243.9 425.901 244.3 426.201C244.7 426.501 245.1 426.801 245.5 427.001C245.8 427.201 246.2 427.001 246.4 427.501C246.6 427.901 247.1 428.001 247.5 428.201C247.9 428.401 248.3 428.401 248.5 428.801C249.6 430.101 251.3 430.301 252.8 430.901C254.3 431.501 255.8 432.001 257.4 432.201C258.4 432.301 259.4 432.201 260.3 432.501C260.7 432.601 261.2 432.401 261.5 433.001C261.5 433.201 262.1 432.801 262.3 432.801C263 432.801 263.6 433.001 264.3 433.101C265.2 433.201 266.2 433.401 267.1 433.501C267.7 433.501 268.3 433.401 268.8 433.401C269.4 433.401 270 433.401 270.6 433.601C271.4 433.701 272.1 434.001 272.8 434.101C273.6 434.201 274.4 434.101 275.2 434.301C276.6 434.901 278 434.701 279.4 434.701C280.8 434.701 282.2 434.701 283.5 434.601C284.3 434.501 285 434.901 285.8 434.801C286.1 434.801 286.8 436.201 286.8 436.701C286.8 436.701 286.8 436.901 286.7 437.001C286 437.601 285.3 438.401 284.4 438.401C283 438.401 281.7 438.501 280.3 438.501L280.8 438.701Z" fill="#FE5102"/>
<path d="M284.399 419.8C283.899 419.8 283.399 419.8 282.899 419.8C282.699 419.8 282.499 419.5 282.299 420.1C282.199 420.4 281.999 419.7 281.899 419.7C281.399 419.7 280.999 419.7 280.499 419.7C279.999 419.7 279.599 419.9 279.099 419.9C278.599 419.9 278.199 419.6 277.699 419.9C277.299 420.1 276.999 419.6 276.599 419.7C276.199 419.7 275.799 419.8 275.399 419.6C275.099 419.4 274.899 419.1 274.599 419.2C274.399 419.2 274.199 419.5 273.999 419.5C273.799 419.5 273.699 419.2 273.399 419.8C273.399 419.8 273.399 419.8 273.299 419.6C273.199 419.2 272.899 419.2 272.699 419.4C272.499 419.6 272.399 419.6 272.199 419.6C271.799 419.6 271.399 419.6 270.999 419.4C270.699 419.4 270.499 419 270.199 418.9C269.899 418.8 269.499 419 269.299 418.7C269.099 418.3 268.799 418.3 268.499 418.3C268.299 418.3 268.199 418 267.999 418.6C267.699 417.7 267.099 418.6 266.599 418.4C266.199 418.1 265.699 418.1 265.199 418.1C265.099 418.1 264.999 417.9 264.799 418.3C264.799 418.4 264.599 418.4 264.499 418.3C264.299 417.6 263.799 417.9 263.499 417.7C263.099 417.5 262.599 417.7 262.399 417.1C262.299 416.9 262.099 416.7 261.699 417.1C261.499 417.3 261.399 417.1 261.199 417.1C261.099 417.1 260.899 417.3 260.699 417.3C260.599 417.3 260.599 417 260.499 416.9C259.699 417.3 259.399 416.3 258.699 416.3C257.999 416.3 257.499 416 256.899 415.6C256.599 415.4 256.299 415.1 256.599 414C256.699 413.5 256.999 413 257.199 412.7C257.399 412.5 257.599 412.4 257.699 412.4C257.899 412.4 258.099 412.4 258.299 412.4C258.699 412.4 259.199 412 259.499 412.4C259.499 412.5 259.799 412.3 259.699 412.8C260.399 412.2 260.799 412.9 261.299 413C261.699 413 262.299 412.6 262.699 413C263.099 412.5 263.299 412.6 263.499 412.9C264.199 413.8 265.099 413.5 265.999 413.8C266.799 414.1 267.699 414.2 268.599 414.4C268.699 414.4 268.899 414.1 269.099 414.4C269.199 414.7 269.499 414.5 269.699 414.6C269.899 414.6 270.099 414.6 270.199 414.7C270.799 415.5 271.599 415.2 272.199 415.3C272.899 415.5 273.599 415.6 274.299 415.5C274.699 415.5 275.199 415.2 275.599 415.3C275.799 415.3 275.999 415.1 276.099 415.7C276.099 415.9 276.399 415.4 276.499 415.4C276.799 415.4 277.099 415.4 277.399 415.4C277.799 415.4 278.199 415.5 278.599 415.4C278.899 415.4 279.099 415.2 279.399 415.1C279.699 415.1 279.899 415.1 280.199 415.1C280.499 415.1 280.799 415.4 281.199 415.5C281.499 415.5 281.899 415.3 282.199 415.6C282.799 416.1 283.399 415.9 283.999 416C284.599 416 285.199 416.2 285.799 416C286.099 416 286.399 416.5 286.799 416.5C286.999 416.5 287.099 418 286.999 418.5V418.7C286.599 419.2 286.299 419.9 285.899 419.8C285.299 419.8 284.799 419.8 284.199 419.8H284.399Z" fill="#FE5102"/>
<path d="M308.9 413.099C308.5 412.799 308.1 412.499 307.7 412.199C307.5 412.199 307.5 411.799 307.1 412.099C306.9 412.299 307.1 411.599 306.9 411.499C306.5 411.299 306.1 410.899 305.7 410.599C305.3 410.299 304.8 410.199 304.3 409.899C303.9 409.599 303.7 408.999 303.1 408.899C302.6 408.799 302.7 408.199 302.4 407.899C302 407.699 301.7 407.399 301.6 406.899C301.6 406.599 301.6 406.199 301.3 405.999C301.1 405.899 300.8 405.999 300.7 405.799C300.7 405.599 300.7 405.299 300.1 405.599C300.1 405.599 300.1 405.499 300.1 405.399C300.3 404.999 300.1 404.799 299.8 404.899C299.5 404.899 299.4 404.899 299.3 404.699C299 404.399 298.8 404.099 298.6 403.799C298.5 403.499 298.5 403.199 298.4 402.899C298.3 402.599 297.9 402.599 297.9 402.199C297.9 401.799 297.9 401.599 297.6 401.399C297.6 401.299 297.6 400.999 297.1 401.399C297.4 400.499 296.4 400.999 296.2 400.599C296.1 400.199 295.6 399.999 295.3 399.799C295.3 399.799 295.3 399.499 294.9 399.799C294.8 399.899 294.7 399.799 294.7 399.799C294.8 399.099 294.3 399.299 294.1 398.999C293.9 398.699 293.4 398.799 293.3 398.199C293.3 397.899 293.1 397.699 292.7 398.199C292.5 398.399 292.5 398.099 292.3 398.099C292.2 398.099 292 398.299 291.9 398.299C291.9 398.299 291.9 397.999 291.8 397.899C291 398.299 290.9 397.299 290.2 397.299C289.6 397.299 289.1 396.999 288.5 396.699C288.2 396.499 287.9 396.299 288.1 395.099C288.1 394.599 288.3 393.999 288.6 393.799C288.8 393.599 289 393.399 289.1 393.399C289.3 393.399 289.5 393.399 289.7 393.299C290.1 393.299 290.7 392.899 291 393.299C291 393.399 291.3 393.199 291.3 393.699C292.1 393.099 292.5 393.799 293 393.999C293.5 394.099 294.2 393.799 294.5 394.199C295 393.799 295.3 393.999 295.5 394.299C296.1 395.399 297.2 395.499 298 396.199C298.8 396.899 299.7 397.599 300.3 398.399C300.4 398.499 300.8 398.399 300.7 398.799C300.7 399.099 300.9 399.199 301.1 399.299C301.2 399.499 301.5 399.499 301.5 399.799C301.5 400.799 302.2 401.199 302.6 401.799C303 402.399 303.3 403.099 303.9 403.499C304.2 403.799 304.8 403.899 304.9 404.299C304.9 404.499 305.3 404.399 304.9 404.899C304.9 404.999 305.3 404.899 305.3 404.899C305.5 405.099 305.7 405.299 305.9 405.499C306.2 405.799 306.4 406.099 306.7 406.299C306.9 406.399 307.2 406.399 307.4 406.499C307.6 406.599 307.8 406.799 308 406.999C308.2 407.299 308.3 407.599 308.5 407.899C308.7 408.199 309.2 408.199 309.3 408.599C309.5 409.399 310.2 409.599 310.6 409.999C311.1 410.399 311.6 410.899 312.2 411.199C312.5 411.399 312.5 411.999 312.7 412.199C312.8 412.299 312 413.599 311.6 413.899L311.4 413.999C310.8 414.099 310.1 414.499 309.9 414.199C309.5 413.799 309.1 413.499 308.6 413.199L308.9 413.099Z" fill="#FE5102"/>
<path d="M289.099 434.899C290.199 434.899 291.399 434.899 292.499 434.899C292.899 434.899 293.399 435.099 293.799 434.499C293.999 434.199 294.399 434.799 294.799 434.799C295.799 434.699 296.899 434.699 297.999 434.499C298.999 434.299 299.999 433.999 300.999 433.799C301.999 433.599 303.099 433.799 303.999 433.299C304.799 432.899 305.599 433.299 306.399 433.099C307.199 432.799 308.099 432.599 308.899 432.699C309.499 432.699 310.199 432.899 310.699 432.699C311.099 432.599 311.299 432.199 311.699 432.099C312.099 432.099 312.599 432.099 312.699 431.499C312.699 431.499 312.899 431.499 312.999 431.499C313.499 431.799 313.999 431.599 314.199 431.299C314.399 430.899 314.699 430.899 314.999 430.799C315.799 430.499 316.599 430.199 317.399 429.999C317.999 429.799 318.699 429.799 319.299 429.599C319.899 429.399 320.399 428.899 321.099 428.899C321.799 428.899 322.299 428.599 322.799 428.299C323.099 428.099 323.599 428.199 323.499 427.499C323.499 427.499 323.499 427.399 323.699 427.399C324.899 427.599 325.199 426.099 325.799 425.799C326.199 425.599 326.399 425.399 326.499 425.199C326.499 425.099 326.499 424.999 326.499 424.899C326.499 424.899 326.699 424.699 326.199 424.899C325.999 424.899 325.999 424.899 326.199 424.899C326.599 424.299 325.599 423.899 325.199 423.299C324.699 422.599 323.799 422.199 323.499 421.299C323.299 420.899 322.999 420.499 322.299 420.699C321.999 420.699 321.799 420.299 321.499 420.199C321.299 420.099 320.899 420.199 320.699 419.999C320.499 419.899 320.499 419.599 320.299 419.399C320.299 419.399 320.199 419.299 320.099 419.299C318.699 419.299 317.999 417.899 316.799 417.499C315.599 417.099 314.399 416.599 313.199 416.199C312.499 415.999 311.899 415.599 311.599 414.399C311.499 413.799 311.599 413.299 311.999 413.099C312.299 412.899 312.599 412.799 312.899 412.799C313.399 412.799 313.799 412.799 314.299 412.799C315.199 412.799 316.299 412.699 317.099 413.299C317.299 413.499 317.799 413.299 317.799 413.899C317.799 413.899 317.799 414.099 317.999 414.099C319.499 413.899 320.499 414.999 321.599 415.599C322.599 416.099 323.799 416.199 324.599 417.099C325.499 416.999 325.999 417.499 326.399 418.099C327.099 419.099 327.799 419.899 328.599 420.699C328.999 421.099 329.399 421.399 329.899 421.999C329.999 422.099 330.099 422.299 330.199 422.499C330.299 422.699 330.499 422.899 330.599 423.099C330.799 423.499 330.999 423.999 330.999 424.499C331.099 425.499 330.999 426.399 330.599 427.299C330.399 427.799 330.199 428.099 329.899 428.399C329.699 428.699 329.399 428.999 329.199 429.199C328.699 429.699 328.199 430.099 327.699 430.399C327.199 430.699 326.799 431.099 326.299 431.299C325.999 431.499 325.899 431.999 325.299 431.999C324.799 431.999 324.399 432.399 323.999 432.699C323.599 432.899 323.199 433.199 322.799 433.299C320.899 433.499 319.499 434.499 317.799 434.899C316.099 435.399 314.499 435.799 312.899 436.299C311.899 436.599 310.999 437.199 309.899 437.199C309.499 437.199 309.099 437.599 308.499 437.199C308.399 437.099 307.999 437.599 307.699 437.599C306.999 437.799 306.299 437.799 305.599 437.899C304.599 437.999 303.699 438.099 302.699 438.299C302.099 438.399 301.599 438.699 300.999 438.899C300.399 438.999 299.799 439.099 299.099 439.099C298.299 439.099 297.499 438.999 296.699 438.999C295.899 438.999 294.999 439.299 294.199 439.099C292.699 438.699 291.299 438.999 289.799 438.899C288.299 438.899 286.899 438.799 285.399 438.899C284.599 438.899 283.799 438.399 282.999 438.299C282.599 438.299 282.299 436.699 282.499 436.299C282.499 436.299 282.599 436.099 282.699 436.099C283.499 435.699 284.299 435.099 285.099 435.199C286.299 435.399 287.599 435.399 288.899 435.399L289.099 434.899Z" fill="#FE5102"/>
<path d="M285.399 416.098C285.899 416.098 286.399 416.098 286.899 416.098C287.099 416.098 287.299 416.298 287.399 415.798C287.399 415.498 287.699 416.198 287.899 416.098C288.399 416.098 288.799 416.098 289.299 415.998C289.699 415.998 290.199 415.698 290.599 415.598C290.999 415.598 291.499 415.798 291.899 415.398C292.199 415.098 292.599 415.598 292.999 415.398C293.399 415.198 293.699 415.098 294.099 415.398C294.399 415.498 294.699 415.698 294.899 415.598C295.099 415.598 295.199 415.198 295.399 415.198C295.599 415.198 295.799 415.398 295.899 414.798C295.899 414.798 295.899 414.798 295.999 414.898C296.199 415.298 296.399 415.198 296.599 414.898C296.699 414.598 296.799 414.598 296.999 414.598C297.399 414.598 297.699 414.398 298.099 414.498C298.399 414.498 298.699 414.698 298.999 414.698C299.299 414.698 299.599 414.398 299.899 414.698C300.199 414.998 300.499 414.898 300.699 414.798C300.799 414.798 301.099 414.998 301.099 414.398C301.699 415.098 301.899 413.998 302.399 414.098C302.899 414.198 303.299 413.998 303.699 413.898C303.799 413.898 303.999 413.998 303.999 413.498C303.999 413.298 304.099 413.298 304.199 413.398C304.699 413.898 304.899 413.398 305.299 413.498C305.699 413.498 305.999 413.098 306.499 413.498C306.699 413.698 306.999 413.698 306.999 413.098C306.999 412.798 307.299 413.098 307.399 412.898C307.399 412.898 307.499 412.498 307.599 412.498C307.599 412.498 307.899 412.698 307.999 412.698C308.299 411.898 309.099 412.598 309.599 412.198C310.099 411.798 310.599 411.698 311.199 411.598C311.499 411.598 311.899 411.598 312.499 412.498C312.799 412.898 312.999 413.398 313.099 413.798C313.099 414.098 313.099 414.298 312.999 414.398C312.899 414.598 312.699 414.798 312.599 414.898C312.299 415.198 312.099 415.898 311.599 415.798C311.399 415.798 311.399 416.098 311.099 415.698H310.999C310.799 416.598 309.999 416.398 309.499 416.598C309.099 416.798 308.799 417.498 308.299 417.398C308.299 418.098 307.899 418.098 307.599 417.898C306.499 417.498 305.699 418.198 304.799 418.298C303.899 418.398 302.899 418.698 301.999 418.798C301.799 418.798 301.799 419.198 301.499 418.998C301.299 418.798 301.099 418.998 300.899 418.998C300.699 418.998 300.499 419.198 300.299 418.998C299.499 418.498 298.799 418.998 298.099 418.998C297.399 418.998 296.599 418.998 295.899 419.298C295.499 419.398 295.099 419.798 294.599 419.798C294.399 419.798 294.199 420.098 293.999 419.598C293.999 419.398 293.799 419.898 293.699 419.898C293.399 419.898 293.099 419.898 292.799 419.998C292.399 419.998 291.899 419.998 291.499 420.098C291.199 420.098 290.999 420.398 290.799 420.498C290.499 420.498 290.299 420.598 289.999 420.498C289.699 420.498 289.299 420.298 288.999 420.198C288.599 420.198 288.299 420.498 287.899 420.198C287.199 419.698 286.599 419.998 285.999 419.998C285.399 419.998 284.699 419.998 284.099 420.098C283.699 420.098 283.399 419.698 283.099 419.698C282.899 419.698 282.699 418.198 282.699 417.698V417.498C282.999 416.998 283.299 416.298 283.699 416.298C284.299 416.298 284.799 416.298 285.399 416.298V416.098Z" fill="#FE5102"/>
<path d="M146.999 241.999C146.799 241.999 146.599 241.899 146.399 241.899C146.399 241.899 146.399 241.599 146.099 242.099C145.999 242.399 146.099 241.699 146.099 241.699C145.899 241.699 145.699 241.599 145.499 241.699C145.299 241.699 145.099 241.899 144.899 241.899C144.699 241.899 144.599 241.599 144.399 241.899C144.199 242.099 144.199 241.599 143.999 241.699C143.799 241.699 143.599 241.799 143.599 241.599C143.599 241.399 143.499 241.199 143.399 241.199C143.399 241.199 143.199 241.499 143.099 241.499C143.099 241.499 143.099 241.199 142.799 241.799C142.799 241.799 142.799 241.799 142.799 241.599C142.799 241.199 142.799 241.199 142.599 241.399C142.499 241.599 142.399 241.599 142.399 241.599C142.199 241.599 142.099 241.599 141.999 241.499C141.899 241.499 141.799 241.199 141.699 241.099C141.599 241.099 141.399 241.299 141.399 240.899C141.399 240.599 141.299 240.599 141.199 240.499C141.199 240.499 141.199 240.199 140.899 240.799C140.899 239.999 140.499 240.999 140.399 240.799C140.299 240.499 140.099 240.699 139.899 240.599C139.899 240.599 139.899 240.399 139.699 240.799C139.699 240.999 139.599 240.999 139.599 240.799C139.599 240.199 139.399 240.499 139.299 240.399C139.199 240.199 138.899 240.399 138.899 239.999C138.899 239.799 138.899 239.699 138.599 240.199C138.499 240.499 138.499 240.199 138.399 240.199L138.199 240.499C138.199 240.499 138.199 240.299 138.199 240.099C137.799 240.699 137.799 239.799 137.499 239.899C137.199 239.999 136.999 239.899 136.799 239.699C136.699 239.699 136.599 239.399 136.799 238.299C136.799 237.799 136.999 237.299 137.199 236.899C137.199 236.699 137.399 236.499 137.499 236.399C137.499 236.399 137.699 236.199 137.799 236.099C137.999 235.899 138.299 235.499 138.399 235.799C138.399 235.799 138.599 235.599 138.399 236.099C138.799 235.399 138.899 235.899 139.099 235.899C139.299 235.899 139.599 235.299 139.699 235.599C139.999 234.999 139.999 235.099 140.099 235.399C140.299 236.099 140.799 235.799 141.099 235.999C141.399 236.199 141.799 236.199 142.199 236.299C142.199 236.299 142.399 235.999 142.399 236.299C142.399 236.599 142.499 236.299 142.599 236.399H142.799C142.899 237.099 143.299 236.799 143.599 236.899C143.899 236.999 144.099 237.199 144.399 237.099C144.599 237.099 144.799 236.799 144.999 236.899C144.999 236.899 145.199 236.699 145.099 237.299C145.099 237.499 145.299 236.999 145.299 236.999C145.399 236.999 145.499 236.999 145.699 236.999C145.899 236.999 145.999 237.099 146.199 237.099C146.299 237.099 146.499 236.899 146.599 236.799C146.699 236.799 146.799 236.799 146.899 236.799C146.999 236.899 147.099 237.099 147.199 237.199C147.299 237.199 147.499 237.099 147.599 237.399C147.699 237.999 147.999 237.799 148.299 237.899C148.499 237.999 148.799 238.099 148.999 238.099C149.199 238.099 149.199 238.599 149.299 238.599C149.299 238.599 149.099 240.099 148.899 240.499V240.699C148.699 241.099 148.399 241.799 148.199 241.699C147.999 241.599 147.799 241.599 147.499 241.499L146.999 241.999Z" fill="black"/>
<path d="M150.8 224.598C150.6 224.498 150.5 224.398 150.3 224.298C150.3 224.298 150.3 223.998 149.9 224.398C149.7 224.598 150 223.998 149.9 223.998C149.7 223.998 149.6 223.798 149.4 223.698C149.2 223.698 148.9 223.698 148.8 223.698C148.6 223.698 148.6 223.298 148.3 223.498C148 223.598 148.3 223.098 148 223.198C147.8 223.198 147.6 223.198 147.6 222.898C147.6 222.698 147.6 222.498 147.6 222.498C147.6 222.498 147.3 222.698 147.2 222.698C147.2 222.698 147.2 222.398 146.8 222.798C146.8 222.798 146.8 222.798 146.8 222.698C147 222.298 146.9 222.298 146.7 222.498C146.5 222.698 146.5 222.598 146.4 222.498C146.3 222.498 146.1 222.298 146 222.198C146 222.098 146 221.798 146 221.698C146 221.598 145.7 221.698 145.8 221.398C145.9 221.098 145.8 220.998 145.8 220.998C145.8 220.998 145.9 220.698 145.4 221.098C145.8 220.398 145 221.098 145 220.798C145 220.498 144.8 220.498 144.6 220.398C144.6 220.398 144.6 220.198 144.3 220.398C144.2 220.398 144.1 220.398 144.2 220.398C144.6 219.898 144.2 219.998 144.2 219.798C144.2 219.598 143.9 219.698 144.2 219.198C144.3 218.998 144.3 218.898 143.8 219.198C143.6 219.298 143.8 219.198 143.6 219.198L143.3 219.298C143.3 219.298 143.4 219.098 143.5 218.998C142.8 219.198 143.4 218.498 143.1 218.398C142.8 218.398 142.7 218.098 142.6 217.798C142.6 217.698 142.6 217.398 143.5 216.698C143.9 216.398 144.3 215.998 144.6 215.898C144.8 215.798 145 215.698 145.1 215.698C145.2 215.698 145.4 215.698 145.5 215.698C145.7 215.698 146.2 215.498 146.1 215.698C146.1 215.698 146.3 215.698 146 215.998C146.7 215.598 146.4 216.098 146.6 216.198C146.7 216.198 147.3 215.998 147.2 216.198C147.7 215.898 147.7 215.998 147.6 216.198C147.3 216.898 147.9 216.798 148 217.098C148.2 217.398 148.4 217.598 148.6 217.798C148.6 217.798 148.9 217.598 148.8 217.798C148.7 217.998 148.8 217.898 148.9 217.998C148.9 217.998 149.1 217.998 149 218.098C148.7 218.798 149.2 218.598 149.3 218.798C149.4 218.998 149.6 219.198 149.9 219.298C150.1 219.298 150.4 219.098 150.5 219.298C150.5 219.298 150.8 219.198 150.5 219.698C150.5 219.798 150.7 219.498 150.8 219.498C150.9 219.498 151 219.598 151.1 219.698C151.2 219.698 151.3 219.898 151.5 219.898C151.5 219.898 151.8 219.798 151.9 219.798C152 219.798 152.1 219.798 152.1 219.998C152.1 220.098 152.1 220.398 152.1 220.498C152.1 220.598 152.4 220.498 152.4 220.798C152.4 221.298 152.6 221.198 152.8 221.398C153 221.598 153.1 221.698 153.4 221.698C153.5 221.698 153.4 222.198 153.4 222.198C153.4 222.198 152.8 223.598 152.5 223.998L152.4 224.198C152.1 224.498 151.6 225.098 151.5 224.998C151.3 224.798 151.1 224.798 150.9 224.598H150.8Z" fill="black"/>
<path d="M234.101 222.199C234.001 222.399 233.801 222.499 233.701 222.699C233.701 222.699 233.401 222.699 233.701 223.099C233.901 223.299 233.301 222.999 233.301 223.099C233.301 223.299 233.001 223.399 233.001 223.599C233.001 223.799 233.001 224.099 233.001 224.299C233.001 224.499 232.601 224.499 232.701 224.799C232.801 225.099 232.301 224.899 232.301 225.099C232.301 225.299 232.301 225.499 232.001 225.499C231.801 225.499 231.501 225.499 231.601 225.499C231.601 225.499 231.801 225.899 231.701 225.899C231.701 225.899 231.401 225.899 231.801 226.299C231.801 226.299 231.801 226.299 231.701 226.299C231.301 226.099 231.301 226.199 231.501 226.399C231.701 226.599 231.601 226.599 231.501 226.699C231.501 226.899 231.301 226.999 231.201 227.099C231.101 227.099 230.801 227.099 230.701 227.099C230.601 227.099 230.701 227.399 230.401 227.299C230.101 227.199 230.001 227.299 230.001 227.299C230.001 227.299 229.701 227.299 230.101 227.699C229.301 227.299 230.101 228.199 229.801 228.199C229.501 228.199 229.501 228.499 229.401 228.599C229.401 228.599 229.201 228.599 229.501 228.899C229.601 228.999 229.501 229.099 229.501 228.999C228.901 228.699 229.101 228.999 228.901 229.099C228.701 229.099 228.901 229.499 228.301 229.299C228.101 229.299 227.901 229.299 228.301 229.699C228.501 229.899 228.301 229.699 228.301 229.899C228.301 229.899 228.501 230.199 228.401 230.199C228.401 230.199 228.201 230.199 228.101 230.099C228.401 230.699 227.601 230.299 227.601 230.599C227.601 230.899 227.301 231.099 227.101 231.199C227.001 231.199 226.701 231.199 225.801 230.599C225.401 230.299 225.001 229.899 224.801 229.699C224.601 229.499 224.501 229.299 224.501 229.199C224.501 229.099 224.501 228.899 224.501 228.799C224.501 228.499 224.201 228.099 224.501 228.099C224.601 228.099 224.501 227.899 224.801 228.099C224.401 227.399 224.801 227.599 225.001 227.399C225.001 227.199 224.701 226.699 225.001 226.699C224.601 226.199 224.801 226.199 225.001 226.199C225.801 226.399 225.701 225.799 226.001 225.499C226.301 225.299 226.501 224.899 226.801 224.599C226.801 224.599 226.601 224.299 226.801 224.399C227.001 224.499 226.901 224.399 227.001 224.199C227.001 224.199 227.001 223.999 227.201 223.999C227.901 224.199 227.801 223.699 228.001 223.499C228.201 223.299 228.501 223.099 228.501 222.799C228.501 222.599 228.401 222.199 228.501 222.199C228.501 222.199 228.401 221.899 228.901 222.199C229.001 222.199 228.701 221.899 228.701 221.899C228.701 221.799 228.801 221.699 228.901 221.599C229.001 221.499 229.101 221.399 229.201 221.199C229.201 221.099 229.201 220.899 229.201 220.699C229.201 220.599 229.201 220.499 229.401 220.399C229.501 220.399 229.801 220.399 229.901 220.299C230.001 220.299 229.901 219.899 230.201 219.999C230.801 220.099 230.701 219.699 230.901 219.599C231.101 219.399 231.301 219.199 231.301 218.999C231.301 218.799 231.801 218.999 231.901 218.999C231.901 218.999 233.201 219.699 233.601 220.099C233.601 220.099 233.701 220.199 233.801 220.299C234.101 220.699 234.601 221.199 234.501 221.299C234.301 221.499 234.201 221.699 234.001 221.899L234.101 222.199Z" fill="black"/>
<path d="M245.699 238.499C245.599 238.599 245.399 238.699 245.299 238.799C245.299 238.799 245.099 238.699 245.299 239.199C245.399 239.399 244.999 238.999 244.999 238.999C244.999 239.199 244.699 239.199 244.599 239.299C244.599 239.399 244.499 239.699 244.399 239.899C244.399 239.999 243.999 239.899 244.099 240.199C244.099 240.499 243.799 240.199 243.699 240.299C243.699 240.499 243.599 240.599 243.299 240.499C243.099 240.499 242.899 240.299 242.899 240.499C242.899 240.499 242.999 240.899 242.899 240.899C242.899 240.899 242.599 240.699 242.899 241.299C242.899 241.299 242.899 241.299 242.799 241.299C242.499 240.999 242.499 241.099 242.599 241.299C242.699 241.599 242.599 241.599 242.599 241.599C242.599 241.699 242.399 241.799 242.299 241.799C242.199 241.799 241.999 241.699 241.899 241.699C241.799 241.699 241.899 241.999 241.599 241.799C241.299 241.599 241.299 241.699 241.199 241.799C241.199 241.799 240.899 241.599 241.199 242.199C240.599 241.599 241.099 242.599 240.799 242.499C240.499 242.499 240.499 242.599 240.399 242.799C240.399 242.799 240.199 242.799 240.399 243.099C240.399 243.199 240.399 243.299 240.399 243.199C239.899 242.799 240.099 243.199 239.899 243.199C239.699 243.199 239.799 243.499 239.399 243.199C239.199 243.099 239.099 242.999 239.399 243.499C239.499 243.699 239.399 243.499 239.399 243.599C239.399 243.599 239.499 243.899 239.399 243.899C239.399 243.899 239.199 243.799 239.099 243.699C239.299 244.399 238.599 243.699 238.599 243.999C238.599 244.299 238.299 244.299 238.099 244.399C237.999 244.399 237.799 244.399 236.999 243.399C236.699 242.999 236.399 242.499 236.199 242.199C236.099 241.999 235.999 241.799 235.999 241.699C235.999 241.599 235.999 241.399 235.999 241.299C235.999 241.099 235.799 240.499 235.999 240.699C235.999 240.699 235.999 240.499 236.299 240.899C235.999 240.099 236.499 240.499 236.599 240.299C236.699 240.199 236.499 239.599 236.799 239.699C236.499 239.099 236.699 239.199 236.799 239.299C237.399 239.699 237.499 239.099 237.799 238.999C238.099 238.899 238.299 238.599 238.599 238.499C238.599 238.499 238.499 238.199 238.599 238.299C238.799 238.499 238.699 238.299 238.799 238.299C238.799 238.299 238.799 238.099 238.999 238.299C239.599 238.699 239.599 238.299 239.799 238.099C240.099 238.099 240.299 237.899 240.399 237.599C240.399 237.399 240.399 237.099 240.599 237.099C240.599 237.099 240.599 236.799 240.899 237.199C240.999 237.299 240.899 236.899 240.899 236.899C240.899 236.799 241.099 236.799 241.199 236.699C241.299 236.699 241.499 236.599 241.599 236.399C241.599 236.399 241.599 236.099 241.599 235.999C241.599 235.899 241.699 235.799 241.799 235.799C241.899 235.799 242.199 235.799 242.299 235.799C242.399 235.799 242.299 235.499 242.599 235.599C243.099 235.899 243.099 235.599 243.299 235.499C243.499 235.499 243.699 235.299 243.799 235.099C243.799 234.999 244.199 235.299 244.299 235.199C244.299 235.199 245.299 236.299 245.499 236.799L245.599 236.999C245.799 237.499 246.099 238.099 245.999 238.099C245.799 238.099 245.699 238.299 245.499 238.399L245.699 238.499Z" fill="black"/>
<path d="M193.799 210.599C193.799 210.699 193.699 210.899 193.699 210.999C193.699 210.999 193.399 210.999 193.899 211.199C194.199 211.199 193.499 211.199 193.499 211.199C193.499 211.299 193.499 211.499 193.499 211.599C193.499 211.699 193.699 211.899 193.699 212.099C193.699 212.199 193.399 212.299 193.699 212.499C193.999 212.699 193.399 212.699 193.499 212.799C193.599 212.899 193.699 212.999 193.499 213.099C193.299 213.099 193.099 213.099 193.199 213.299C193.199 213.299 193.599 213.499 193.499 213.499C193.499 213.499 193.199 213.499 193.799 213.699C193.799 213.699 193.799 213.699 193.699 213.699C193.299 213.699 193.299 213.699 193.599 213.799C193.899 213.799 193.799 213.899 193.799 213.899C193.799 213.999 193.799 214.099 193.799 214.199C193.799 214.199 193.499 214.299 193.399 214.399C193.399 214.399 193.599 214.599 193.299 214.599C192.999 214.599 192.999 214.699 192.999 214.799C192.999 214.799 192.699 214.799 193.299 214.999C192.499 214.999 193.499 215.299 193.299 215.399C193.099 215.499 193.299 215.699 193.299 215.799C193.299 215.799 193.099 215.799 193.599 215.899C193.799 215.899 193.799 215.899 193.599 215.899C192.999 215.899 193.299 216.099 193.199 216.199C193.099 216.299 193.399 216.399 192.899 216.499C192.699 216.499 192.599 216.599 193.199 216.699C193.499 216.699 193.199 216.699 193.199 216.799H193.499C193.499 216.799 193.299 216.799 193.199 216.799C193.899 216.899 192.999 217.099 193.199 217.299C193.399 217.499 193.299 217.599 193.199 217.799C193.199 217.799 192.999 217.999 191.799 218.199C191.299 218.199 190.699 218.299 190.399 218.299C190.199 218.299 189.899 218.299 189.899 218.299C189.799 218.299 189.699 218.199 189.599 218.099C189.399 217.999 188.899 217.899 189.099 217.799C189.099 217.799 188.899 217.799 189.399 217.699C188.599 217.599 189.099 217.399 188.999 217.199C188.999 217.099 188.299 216.899 188.599 216.799C187.999 216.799 188.099 216.599 188.299 216.499C188.999 216.199 188.499 215.899 188.599 215.599C188.599 215.299 188.599 214.999 188.599 214.699C188.599 214.699 188.299 214.599 188.599 214.499C188.899 214.499 188.599 214.399 188.599 214.299C188.599 214.299 188.499 214.199 188.599 214.099C189.299 213.899 188.899 213.599 188.999 213.399C189.099 213.199 189.199 212.899 188.999 212.699C188.999 212.499 188.599 212.299 188.799 212.199C188.799 212.199 188.499 211.999 189.099 212.099C189.299 212.099 188.799 211.999 188.799 211.899C188.799 211.799 188.799 211.699 188.799 211.599C188.799 211.499 188.899 211.299 188.799 211.199C188.799 211.199 188.599 210.999 188.499 210.899C188.499 210.799 188.499 210.699 188.499 210.599C188.599 210.599 188.799 210.399 188.899 210.299C188.899 210.199 188.799 209.999 189.099 209.999C189.599 209.999 189.499 209.699 189.599 209.499C189.699 209.299 189.799 209.099 189.799 208.899C189.799 208.799 190.299 208.899 190.299 208.699C190.299 208.699 191.699 209.099 192.199 209.299H192.399C192.799 209.499 193.499 209.899 193.399 209.999C193.299 210.099 193.299 210.299 193.199 210.499L193.799 210.599Z" fill="black"/>
<path d="M371.6 355.899C366.4 358.399 360.9 360.499 355.3 361.899C353.2 362.399 351 362.599 348.8 363.399C348.3 363.599 347.4 363.599 346.5 363.599C345.6 363.599 344.5 363.499 343.5 363.599C340.8 363.799 338 363.699 335.3 363.499C332.6 363.199 329.8 362.699 327.2 362.099C324.6 361.399 322.1 360.499 319.6 359.499C317.1 358.399 314.7 356.999 312.5 355.099C308.2 351.299 305.7 344.599 308.1 338.699C309.2 336.099 311.3 334.299 313.7 333.399C314.9 332.899 316.2 332.699 317.6 332.699C318.9 332.699 320.3 333.099 321.5 333.699C324.1 334.999 325.8 337.299 326.8 339.599C327.8 341.999 328.2 344.399 328.2 346.799C328.2 350.299 327.1 353.599 325.4 356.599C324.4 358.499 323.3 360.199 321.6 361.699C320 363.099 318 364.299 316.8 365.699C316.8 365.799 315.8 366.199 315.4 366.299C313.3 366.999 310.9 368.199 309.2 369.099C307.6 369.999 306.1 370.399 304.4 370.899C299.9 372.099 295.3 372.599 290.7 372.299C287.2 372.099 283.9 371.299 280.6 370.199C277.2 369.199 273.5 367.899 270.8 365.899C268.1 363.999 265.6 362.099 263.1 359.999C261.7 358.799 260.5 357.099 259 356.299C258.9 356.299 258.4 355.699 258.2 355.399C256.9 353.099 255.2 350.899 254.2 348.199C253.7 346.799 253.3 345.299 253.5 343.599C253.6 341.899 254.5 340.199 255.8 338.999C257.1 337.699 258.8 337.099 260.3 336.699C261.9 336.299 263.4 336.299 265 336.399C268 336.599 271.1 337.499 273.6 339.499C275 340.599 276 341.999 277.1 343.199C277.2 343.199 277.3 343.499 277.5 343.699C277.6 343.899 277.8 344.199 277.9 344.499C278.2 345.099 278.4 345.699 278.5 346.099C278.9 348.399 279.2 350.599 279.1 352.899C279.1 355.099 278.7 357.399 277.9 359.499C277.4 360.699 277 361.899 276.3 362.999L275.4 364.599L274.4 366.099C272.9 368.099 271.2 369.999 269.2 371.299C267.5 372.499 265.2 373.999 263.2 375.599C262.3 376.399 260 377.099 258.3 377.799C256.9 378.299 255.6 378.999 254.2 379.299C253 379.599 251.7 379.499 250.5 379.599C250.1 379.599 249.7 379.599 249.3 379.699C245.8 380.399 242.1 380.099 238.7 379.299C235.2 378.499 231.9 377.299 228.7 375.999C222.1 373.299 216.3 368.999 211.3 363.999C210.6 363.299 210 362.599 209.3 361.899C208.7 361.199 208.1 360.399 207.5 359.499C207 358.599 206.6 357.699 206.4 356.799C206.2 355.899 206.2 354.999 206.4 354.199C206.6 353.499 206.9 353.199 207.1 353.299C207.4 353.299 207.5 353.799 207.8 354.399C208.2 355.399 209 356.399 209.7 357.399C210.9 358.899 212.6 360.299 214.1 361.699C217.3 364.499 220.9 366.699 224.4 369.199C225 369.599 225.6 369.899 226.2 370.199C226.8 370.499 227.4 370.899 227.8 371.399C227.9 371.499 228.4 371.799 228.6 371.899C231.4 372.799 234.1 373.699 237 374.499C239.8 375.199 242.7 375.799 245.6 375.799C250.5 375.799 255.1 374.199 259.6 372.399C261.8 370.699 264.4 369.199 266.5 367.599C268.4 366.199 270 364.499 271.3 362.499C272.6 360.499 273.6 358.499 274.1 356.199C275.1 351.699 274.4 346.799 271.5 343.799C270.1 342.299 268.1 341.299 265.9 340.899C264.8 340.699 263.7 340.599 262.6 340.699C261.5 340.799 260.5 341.099 259.7 341.499C258.1 342.399 257.5 343.899 257.9 345.799C258.1 346.799 258.5 347.799 259 348.799C259.6 349.799 260.2 350.699 261 351.699C262 352.999 263.3 353.899 264.4 355.499C265.5 356.999 267.5 358.399 269.2 359.699C270.8 360.899 272.6 361.799 274.2 362.799C275.8 363.799 277.6 364.699 279.4 365.399C281.2 366.099 283.1 366.599 285 366.999C288.8 367.699 292.8 367.799 296.7 367.499C298.6 367.299 300.6 366.999 302.5 366.599C304.4 366.199 306.3 365.599 308.1 364.899C309.9 364.199 311.7 363.299 313.3 362.399C315 361.399 316.6 360.299 318 359.099C319.7 357.599 321.1 355.799 322 353.799C322.9 351.899 323.4 349.799 323.5 347.599C323.6 345.699 323 343.799 322.9 341.899C322.9 341.599 322.6 341.099 322.3 340.599C321.9 340.099 321.5 339.599 321.1 339.099C319.4 336.999 317.1 336.299 314.8 337.599C314 337.999 313.3 338.599 312.8 339.299C312.2 339.999 311.9 340.699 311.6 341.599C311.1 343.299 311.4 345.399 312.1 347.199C313 349.399 314.9 351.099 316.9 352.599C319.1 354.199 321.6 355.399 324.3 356.499C327.6 357.799 331.1 358.899 334.7 359.299C338.5 359.799 342.4 359.499 346.1 359.299C353 359.099 359.6 356.899 365.9 354.199C372.2 351.499 378.3 348.099 384 344.199C387.2 341.999 390.5 340.299 393.6 338.099C395.1 336.999 397.9 336.799 397.6 337.599C397.6 337.799 397.4 337.999 397.1 338.199C394.3 340.799 391.9 343.499 388.2 345.899C382.8 349.499 377.2 352.899 371.3 355.799L371.6 355.899Z" fill="#FE5102"/>
</svg>
