<svg width="600" height="600" viewBox="0 0 600 600" fill="none" xmlns="http://www.w3.org/2000/svg">
<path d="M413.6 192.898C411.5 214.798 409.4 236.698 407.3 258.598C428.2 258.598 449.2 258.398 470.1 258.298C455.3 275.298 441.3 292.998 428.2 311.398C445.3 318.298 462.4 325.098 479.6 331.998C464.7 344.498 449.9 356.898 435 369.398C446.4 374.098 457.8 378.798 469.2 383.598C457.8 393.298 446 402.598 434 411.498C448.2 415.198 462.1 420.398 475.2 427.098C457.5 438.098 439.3 449.298 418.9 453.898C418 454.098 417.1 454.298 416.3 453.798C415.5 453.298 415.3 452.298 415.1 451.398C410.8 428.298 413.2 404.598 412.6 381.098C412.3 370.998 411.5 360.898 410.6 350.798C409.4 336.598 408.2 322.298 407 308.098C406.1 296.898 405.1 285.598 401.5 274.898C399.3 268.198 396.1 261.898 392.9 255.598C390.1 249.998 386.5 243.798 380.4 242.498" fill="#FE5102"/>
<path d="M408.2 299.799C409.2 311.499 410.2 323.199 411.2 334.799C411.6 339.099 411.7 343.599 412.6 348.099C413.1 350.299 412.8 354.599 413.1 358.599C413.6 363.999 414 369.499 414.2 374.999C414.5 380.499 414.5 385.999 414.6 391.499C414.6 402.199 414.6 412.699 414.8 423.299C414.9 428.399 415.1 433.599 415.6 438.699C415.7 439.999 415.9 441.199 416 442.499C416.2 443.799 416.3 444.999 416.5 446.299C416.7 447.499 416.9 448.799 417.1 449.999L417.3 450.899V451.299L417.4 451.499C417.4 451.599 417.4 451.699 417.6 451.699C417.6 451.699 417.6 451.699 417.7 451.699C417.7 451.699 417.7 451.699 417.8 451.699C418.2 451.699 418.8 451.399 419.3 451.299C420.3 450.999 421.3 450.799 422.3 450.499C423.3 450.199 424.3 449.999 425.3 449.699C426.3 449.399 427.2 449.099 428.2 448.799C432 447.599 435.8 446.199 439.6 444.499C447.5 440.799 455.5 436.299 463 431.999C464.4 431.199 465.8 430.399 467.1 429.699C468.4 428.999 470.3 427.899 470.2 427.899L470.8 427.599H471V427.499L470.7 427.299L470.4 427.099L469.9 426.899L468.6 426.299C465 424.699 461.6 423.499 457.6 421.899C454 420.399 449.8 418.599 446.4 418.099C446.1 418.099 444.5 417.399 443.6 416.999C442.8 416.699 441.9 416.299 441.1 415.999C440.2 415.699 439.4 415.399 438.4 415.099C435.1 414.099 431.9 413.299 428.7 412.499C429.8 411.599 430.8 410.799 431.7 410.099C432.9 409.099 434.1 408.099 435.4 407.199C436.3 406.499 437.1 405.799 438 405.199C439.3 404.199 440.5 403.199 441.8 402.299C448.9 396.799 455.9 391.199 462.7 385.599L463.7 384.799L463.9 384.599H464V384.499C464 384.499 464 384.499 463.9 384.399L459.6 382.499C458.1 381.799 456.5 381.199 455 380.499C451.8 379.099 448.4 377.799 445.1 376.499C443.5 375.799 441.8 375.099 440.2 374.499C438 373.499 435.8 372.599 433.7 371.699C432.7 371.199 431.6 370.799 430.6 370.299C433.8 367.699 436.9 365.199 440 362.699C442.2 360.899 444.4 359.099 446.5 357.199C449.3 354.899 452.7 352.399 454.6 349.999C454.8 349.799 455.8 348.899 456.3 348.599C460.1 345.899 463.7 342.899 467.2 339.799C468.9 338.299 470.7 336.699 472.4 335.099L473.7 333.899L474.3 333.399C474.4 333.199 474.5 333.099 474.6 332.999C474.5 332.999 474.4 332.999 474.3 332.799H474.2V332.699L473.8 332.499L471.9 331.699C470.6 331.199 469.4 330.699 468.1 330.199C465.6 329.199 463 328.199 460.5 327.099C455.4 325.099 450.3 323.099 445.2 320.999C442.5 319.899 439.7 318.599 437 317.999C436.1 317.799 433.2 316.699 431.9 315.999L430.7 315.399L430.1 315.099L428.9 314.599C427.3 313.899 425.7 313.299 424.2 312.599C425.7 310.499 427.2 308.399 428.8 306.299C429.7 304.999 430.7 303.699 431.6 302.399C433.5 299.799 435.4 297.099 437.4 294.599C443.2 287.099 448.8 279.499 455.3 272.399C456.7 270.899 458.2 269.099 459.8 267.199C460.6 266.199 461.4 265.299 462.1 264.199C462.5 263.699 462.9 263.199 463.2 262.699L463.7 261.899C463.9 261.699 464.1 261.299 464 261.299C464 261.099 464.1 260.999 464.3 260.799C464.5 260.599 464.3 260.699 464.2 260.699C464.1 260.699 463.9 260.699 463.8 260.699C463.8 260.699 463.7 260.699 463.6 260.699H462.7C462 260.699 461.3 260.799 460.6 260.899C459.2 260.899 457.8 261.099 456.4 261.099C454 261.099 451.6 260.899 449.2 260.799C448.5 260.799 447.6 260.799 446.9 260.799C440.2 261.199 433.5 261.099 426.9 261.099C423.6 261.099 420.2 261.099 416.9 260.999C415.2 260.999 413.6 260.999 411.9 260.999C409.4 260.999 406.9 260.999 404.4 260.999C404.4 260.199 404.5 259.499 404.6 258.699C404.9 254.799 405.3 250.799 405.6 246.899C405.9 243.399 406.3 239.899 406.6 236.399C407.3 229.399 408 222.399 408.7 215.399C409.5 207.699 410.4 199.799 412.1 194.699C412.8 192.399 413.4 192.399 413.4 195.699C413.4 198.099 413.4 200.899 413.2 203.699C412.9 208.099 412.6 212.499 412.3 216.799C411.6 225.699 411.3 234.599 410.2 243.799C409.8 246.699 409.8 249.999 409.1 252.399C409 252.699 408.8 253.899 408.8 254.499V255.599V256.099V256.299C408.8 256.599 408.8 256.799 408.8 257.099H409.6H409.8H409.9H410.9C412.3 257.099 413.6 257.099 415 256.999C417.8 256.999 420.5 256.999 423.3 256.999C428.8 256.999 434.4 256.999 439.9 256.999C445.2 256.999 450.5 256.799 455.8 256.599C458.4 256.599 461.1 256.499 463.7 256.399C466.1 256.399 468.6 256.399 471.1 256.399H472.9H473.8H474.3H474.5C473.7 257.399 472.8 258.399 472 259.299C471.3 260.299 470.4 261.299 469.5 262.499C468.7 263.499 467.4 265.099 467.2 265.399C466.2 266.599 465.2 267.899 464.2 269.099C462.1 271.599 460 273.999 458.1 276.299C453 282.099 448.1 288.199 443.4 294.299C441 297.399 438.7 300.499 436.4 303.599L433 308.299L431.8 309.999L431.3 310.799L432.6 311.299L436.5 312.899L444.3 315.999C457.4 321.199 470.4 326.499 483.5 331.699L460.9 350.599C458.1 352.899 455.9 355.199 452.5 357.799C449.3 360.199 445.4 363.699 441.8 366.699C441.3 367.099 440.9 367.499 440.4 367.899L439.7 368.499L439.5 368.699L439.1 369.099C439.2 369.099 439.4 369.199 439.5 369.299H439.7C439.7 369.399 439.7 369.399 439.7 369.399H440C440 369.499 440.6 369.799 440.6 369.799C448.2 373.299 456 376.599 463.8 379.799L467.5 381.299L469.9 382.299L471.1 382.799L471.7 383.099H472C472 383.199 472.2 383.299 472.2 383.299L465.1 389.299C461.9 391.999 458.6 394.699 455.3 397.299C451.9 399.999 448.5 402.699 445 405.299L439.8 409.199L437.5 410.899L438.5 411.199L439.9 411.599C441.9 412.199 443.8 412.799 445.8 413.399C449.7 414.599 453.6 415.999 457.4 417.399C459.8 418.299 462.2 419.199 464.6 420.199C465.8 420.699 467 421.199 468.2 421.699L470 422.499L470.9 422.899L472.3 423.599L475.1 424.999L478.2 426.499L479 426.899H479.2C479.2 426.999 479.2 427.099 479.1 427.099L478.7 427.299L477.2 428.199L474.3 429.999C472.8 430.899 471.4 431.799 469.9 432.699C468.8 433.399 467.7 433.999 466.6 434.699C462.8 436.899 459 439.599 454.9 441.199C453.7 441.699 450.3 443.999 447.8 445.299C441.5 448.499 434.9 451.399 428.1 453.499C427.1 453.799 426.2 454.099 425.2 454.399C424.2 454.699 423.3 454.999 422.3 455.199L419.4 455.899C419.2 455.899 418.9 455.999 418.6 456.099C418.5 456.099 418.2 456.099 418 456.099C417.8 456.099 417.6 456.099 417.3 456.099C416.4 456.099 415.5 455.899 414.8 455.399C413.7 454.699 413.1 453.399 412.8 452.199C412.7 451.699 412.6 451.399 412.6 450.999L412.4 449.899C412.2 448.399 411.9 446.999 411.7 445.499C411.3 442.599 411 439.699 410.7 436.699C410.2 430.699 409.7 424.799 409.6 418.799C409.5 412.499 409.6 406.199 409.7 399.999C409.9 392.099 410.1 384.299 409.8 376.499C409.5 368.399 408.5 359.899 408.2 352.099C407.5 337.599 406 323.099 404.8 308.599C404.2 301.399 403.7 294.199 402.4 287.199C401.8 283.699 401 280.199 400 276.899C399 273.499 397.7 270.299 396.2 266.999C394.5 263.299 392.9 259.799 391.3 256.299C390.5 254.499 389.7 252.799 388.7 251.199C387.8 249.599 386.7 247.999 385.4 246.699C384.8 246.099 384.2 245.399 383.5 244.799C382.9 244.199 382.2 243.599 381.6 243.099C381 242.599 380.5 242.299 380.3 241.999C380 241.699 380 241.499 380.5 241.499C380.8 241.499 381.5 241.499 382.1 241.799C384.1 242.499 385.8 243.599 387.4 244.999C388.9 246.399 390.2 247.899 391.3 249.599C392.5 251.299 393.5 252.999 394.5 254.899C395.5 256.699 396.5 258.599 397.5 260.699C398.9 263.699 400.3 266.799 401.5 269.899C402.7 273.099 403.8 276.299 404.6 279.599C406.3 286.199 407.1 292.899 407.8 299.499L408.2 299.799Z" fill="#FE5102"/>
<path d="M210.501 451.199C193.101 442.999 175.201 435.799 156.901 429.599C168.701 424.599 179.901 418.199 190.301 410.699C169.101 398.099 147.801 385.499 126.601 372.899C143.001 368.199 159.201 362.499 174.801 355.699C156.601 338.799 138.501 321.799 120.301 304.899C135.801 303.099 151.301 301.199 166.701 299.399C160.401 278.799 152.701 258.699 143.401 239.299C163.001 241.699 182.501 244.899 201.801 248.799C201.301 228.399 198.801 208.099 194.401 188.099C213.301 196.199 232.601 203.199 252.201 209.099C254.801 190.599 259.301 172.399 265.501 154.699C282.501 168.199 298.801 182.599 314.301 197.799C324.101 180.599 338.101 165.799 354.801 155.099C361.701 173.799 368.701 192.499 375.601 211.099C386.501 206.699 397.401 202.199 408.301 197.799C400.201 213.699 392.101 229.599 384.101 245.499C371.101 225.299 346.801 213.799 322.701 212.999C298.601 212.199 274.901 220.899 254.701 233.999C234.501 247.099 217.401 264.399 201.201 282.299C188.301 296.599 176.401 318.299 173.101 337.299C172.901 338.399 171.701 333.599 172.501 334.399C173.001 334.899 173.801 335.099 174.601 335.199C191.501 337.699 208.401 340.199 225.301 342.699C219.201 378.799 220.001 416.099 227.701 451.999C226.201 451.999 224.801 452.199 223.301 452.199" fill="#FE5102"/>
<path d="M215.001 343.098L191.601 339.598L179.901 337.898L174.001 336.998C173.401 336.898 172.701 336.798 171.901 336.198C171.701 336.098 171.501 335.898 171.301 335.698C171.301 335.698 171.301 335.698 171.201 335.698C171.201 335.698 171.201 335.798 171.201 335.898C171.201 335.998 171.201 336.198 171.201 336.298C171.201 336.298 171.201 336.398 171.201 336.498C171.201 336.398 171.601 334.198 171.601 334.198C171.701 333.398 172.001 332.598 172.201 331.798L172.801 329.398L173.501 326.998C173.901 325.398 174.501 323.898 175.001 322.298C175.601 320.798 176.101 319.198 176.701 317.698C179.901 309.898 184.101 302.498 188.501 294.898C190.701 291.098 195.901 284.798 201.201 279.198C215.101 263.898 230.001 248.998 247.001 236.698C255.201 230.698 264.001 225.498 273.301 221.198C282.601 216.998 292.401 213.698 302.501 211.998C307.501 211.098 312.701 210.598 317.801 210.598C323.001 210.598 328.201 210.998 333.201 211.798C334.501 211.998 335.701 212.198 337.001 212.498C338.301 212.798 339.501 213.098 340.801 213.398C343.301 214.098 345.701 214.798 348.101 215.598C352.901 217.298 357.501 219.298 361.801 221.698C365.501 223.798 369.101 226.098 372.201 228.798C373.801 230.098 375.301 231.598 376.801 232.898C377.501 233.598 378.201 234.398 378.901 235.098C379.601 235.898 380.301 236.598 380.901 237.398L382.801 239.798C383.201 240.298 383.101 240.198 383.201 240.298V240.498C383.301 240.498 383.501 240.698 383.501 240.698L383.701 240.198C384.501 238.598 385.301 237.098 386.101 235.498C387.001 233.698 387.901 231.998 388.801 230.198C391.601 224.598 394.501 218.898 397.301 213.198C398.701 210.398 400.201 207.498 401.601 204.698C402.001 203.998 402.401 203.198 402.701 202.498L403.001 201.898C402.701 201.898 402.401 202.098 402.201 202.198C400.301 202.898 398.501 203.698 396.701 204.398C393.201 205.698 389.801 207.098 386.301 208.398L381.101 210.398L374.101 213.198L371.001 204.898L368.601 198.398C365.901 191.398 363.201 184.998 360.401 177.298C359.101 173.698 357.701 169.898 356.401 166.298C355.701 164.498 355.001 162.698 354.301 160.898C354.101 160.498 353.901 159.998 353.801 159.598L353.501 158.998V158.698C353.301 158.698 353.301 158.698 353.301 158.698C353.301 158.698 353.201 158.698 353.101 158.698C353.101 158.698 353.001 158.698 352.901 158.698H352.801C352.401 158.898 352.101 159.198 351.801 159.398C348.401 161.498 344.801 164.198 341.601 166.998C338.401 169.798 335.501 172.798 333.301 175.298C329.001 180.298 325.401 184.698 322.001 189.698C321.001 191.098 320.101 192.498 319.201 193.998L318.501 195.098L317.301 197.098L314.801 201.398L308.801 195.498L305.101 191.998C302.701 189.698 300.201 187.398 297.701 185.098C292.701 180.498 287.701 176.098 282.701 171.698C277.901 167.498 273.101 163.398 268.201 159.398L267.301 158.598L267.101 158.398L266.801 158.098C266.701 157.898 266.701 158.098 266.601 158.098C266.601 158.198 266.601 158.298 266.601 158.298V158.498C265.601 161.498 264.601 164.498 263.701 167.498C261.801 173.798 260.101 180.398 258.701 186.898C258.001 190.198 257.301 193.398 256.701 196.598C256.401 198.198 256.101 199.798 255.801 201.298C255.701 202.098 255.501 202.798 255.401 203.598C255.301 204.398 255.201 204.898 254.901 206.398C254.601 207.998 254.401 209.498 254.101 210.998C252.001 210.298 249.801 209.598 247.701 208.998C246.401 208.598 245.001 208.098 243.701 207.698C241.001 206.798 238.401 205.898 235.801 204.998C230.501 203.198 225.301 201.398 220.101 199.498C213.601 197.098 206.301 193.898 200.801 192.398C200.501 192.398 199.801 191.998 199.001 191.698C198.801 191.698 198.601 191.498 198.401 191.498C198.401 191.498 198.301 191.398 198.201 191.398C198.201 191.398 198.001 191.298 197.901 191.198H197.701C197.701 190.998 197.501 190.998 197.601 191.098C197.601 191.298 197.601 191.498 197.601 191.798V191.998V192.198L197.701 192.698L198.001 194.498L198.701 198.098C199.601 202.898 200.401 207.698 201.101 212.598C202.601 222.298 203.701 232.098 204.001 242.098C204.001 244.998 204.201 247.898 204.301 250.898C201.101 250.298 197.901 249.598 194.701 248.998C192.401 248.598 190.101 248.098 187.801 247.698C183.201 246.898 178.601 246.098 174.001 245.298C169.401 244.498 164.701 243.798 160.101 243.198L153.101 242.198C151.301 241.998 149.501 241.698 147.701 241.498H147.401C147.401 241.498 147.201 241.498 147.301 241.498C147.301 241.598 147.401 241.998 147.401 241.998L147.701 242.698C148.901 245.298 150.101 247.698 151.301 249.998C152.201 251.598 154.501 256.898 155.401 259.598C157.701 265.798 160.001 272.198 162.301 278.598C163.401 281.798 164.601 285.098 165.601 288.298L167.201 293.198C168.001 295.698 168.801 298.198 169.501 300.698C166.401 301.098 163.301 301.398 160.201 301.798C153.601 302.598 146.901 303.398 140.301 304.098C137.001 304.498 133.701 304.898 130.301 305.298L125.901 305.798H125.001L125.401 306.298L125.601 306.498H125.801C125.801 306.598 126.401 307.198 126.401 307.198L131.301 311.998C136.701 317.398 144.301 324.498 151.401 330.398C154.701 333.098 160.901 339.198 165.701 343.698C167.701 345.498 169.701 347.298 171.701 348.998L173.301 350.398L176.201 352.998L177.601 354.298L178.301 354.998L178.701 355.298L178.901 355.498C178.901 355.598 178.901 355.598 178.901 355.698C177.701 356.198 176.501 356.698 175.301 357.298L172.201 358.598L170.201 359.398C169.101 359.798 168.101 360.198 167.001 360.598C164.801 361.398 162.701 362.198 160.501 362.998C159.201 363.498 157.601 364.098 156.401 364.598C150.301 367.098 144.101 369.298 137.801 371.298L133.101 372.798H132.601C132.601 372.898 132.401 372.998 132.401 372.998C132.201 372.998 132.401 372.998 132.401 373.198H132.601C132.601 373.298 132.601 373.298 132.601 373.298L133.101 373.698L134.101 374.298C145.301 381.098 156.501 387.898 167.801 394.498C172.401 397.198 177.101 399.998 181.801 402.698C184.601 404.298 187.401 405.998 190.201 407.598L193.401 409.498L193.801 409.698C193.801 409.698 193.601 409.898 193.501 409.998L192.701 410.498L191.201 411.598C190.201 412.298 189.201 413.098 188.101 413.798L187.001 414.598L186.101 415.198C181.601 418.298 176.801 421.098 172.001 423.798C169.601 425.098 167.101 426.398 164.701 427.598L163.501 428.198L163.001 428.398L162.401 428.598C165.301 429.598 168.101 430.698 171.001 431.698C184.801 436.798 198.701 442.998 207.301 448.298C211.201 450.698 210.901 451.198 205.101 448.798C200.801 447.098 196.001 445.198 191.101 443.198C183.401 439.998 175.501 437.098 167.901 434.398L164.801 433.298L161.401 432.098C158.201 430.998 155.001 429.998 151.701 428.898C154.001 427.898 156.301 426.798 158.601 425.798L161.801 424.298L163.901 423.198C166.701 421.798 169.401 420.298 172.201 418.698C174.901 417.098 177.601 415.498 180.301 413.698C181.601 412.798 183.001 411.998 184.301 411.098L185.001 410.598L185.301 410.398L186.001 409.998C185.701 409.798 185.301 409.598 184.801 409.298C183.601 408.598 182.301 407.798 181.101 407.098C178.601 405.598 176.301 404.198 174.501 402.798C174.001 402.398 172.101 401.198 171.101 400.698C160.801 395.098 150.601 389.098 140.301 382.898C134.001 379.098 127.601 375.298 121.301 371.598H121.101C121.101 371.498 121.101 371.498 121.101 371.398H121.201L121.701 371.198L122.601 370.898L124.401 370.398L128.001 369.398L131.401 368.398L133.501 367.798C136.301 366.898 139.201 365.998 142.001 365.098C146.801 363.498 151.501 361.798 156.101 359.898C158.401 358.998 160.701 358.098 163.001 357.098L166.401 355.698L168.101 354.998L169.001 354.598H169.201V354.498L169.501 354.298H169.701C169.701 354.198 169.801 354.198 169.701 354.098L169.101 353.598C167.301 351.898 165.401 350.198 163.601 348.498C159.901 345.098 156.201 341.598 152.501 338.098C143.901 330.898 134.301 321.798 126.101 313.898L121.801 309.798C119.101 307.298 116.501 304.798 113.801 302.198C123.201 301.098 132.701 300.098 142.101 298.998C149.001 298.198 155.901 297.398 162.801 296.598L161.301 291.698C160.501 289.298 159.701 286.798 158.801 284.398C157.101 279.598 155.401 274.698 153.501 269.898C151.701 265.098 149.701 260.398 147.701 255.598C146.701 253.198 145.701 250.898 144.601 248.598L143.001 245.098L140.601 239.898L139.101 236.698L138.701 235.898V235.698H138.601H139.001L140.801 235.998L147.601 236.898L155.301 237.998C160.401 238.698 165.501 239.498 170.601 240.298C175.701 241.098 180.801 241.998 185.901 242.898L193.501 244.298L198.401 245.198L198.201 240.498C198.101 237.998 197.901 235.498 197.701 232.998C197.301 227.998 196.801 222.998 196.301 218.098C195.701 213.098 195.001 208.198 194.201 203.298C193.801 200.798 193.301 198.398 192.901 195.898L192.101 191.798L190.701 185.098L190.501 183.898V183.598H190.601L191.101 183.898C191.801 184.198 192.501 184.498 193.201 184.798C194.601 185.398 196.001 185.998 197.401 186.498L200.401 187.698C201.201 187.998 201.901 188.298 202.701 188.598C205.801 189.798 209.101 191.098 212.801 192.698C219.801 195.698 229.101 198.798 237.501 201.598C239.801 202.398 242.201 203.098 244.601 203.898C246.101 204.398 247.701 204.798 249.201 205.298C249.301 204.598 249.401 203.798 249.601 203.098C249.901 201.498 250.101 199.998 250.401 198.498C252.001 190.598 253.801 182.798 255.901 175.098C257.001 171.198 258.101 167.398 259.301 163.498C259.901 161.598 260.501 159.698 261.201 157.798L262.601 153.598L263.401 151.198V150.898C263.601 150.898 263.701 150.998 263.701 151.098L264.201 151.498L265.201 152.298L271.201 157.198L275.901 160.998C279.001 163.598 282.101 166.198 285.101 168.798C291.201 173.998 297.201 179.398 303.001 184.898L308.801 190.298L312.801 194.198L313.501 192.998L315.501 189.798L317.601 186.698L319.801 183.598C322.801 179.598 326.101 175.698 329.501 172.098C333.001 168.498 336.601 164.998 340.501 161.798L343.401 159.398L346.401 157.098L349.501 154.898L354.501 151.598C357.201 158.698 359.801 165.698 362.401 172.698C366.801 184.298 371.201 195.898 375.701 207.498L376.101 207.298L377.901 206.598C379.301 205.998 380.801 205.398 382.201 204.798C385.101 203.598 388.001 202.498 390.901 201.298C393.401 200.298 396.001 199.198 398.601 198.198C400.701 197.398 402.701 196.498 404.801 195.698C407.201 194.698 409.501 193.798 411.901 192.898C410.601 195.298 409.401 197.698 408.101 200.098C407.501 201.198 406.901 202.398 406.301 203.498L405.801 204.298L405.501 204.898L405.001 205.798C403.801 207.798 400.701 214.898 398.301 219.698C395.301 225.598 392.301 231.598 389.301 237.498L387.001 241.998L384.901 246.098L383.901 248.098L383.401 249.098C383.201 248.898 383.001 248.498 382.801 248.198L380.201 244.498L378.901 242.698L378.701 242.498C378.701 242.398 378.501 242.098 378.501 242.098L378.101 241.598C377.101 240.398 376.101 239.098 375.001 237.898C372.001 234.598 368.601 231.598 365.001 228.998C363.201 227.598 361.301 226.498 359.401 225.298C357.401 224.198 355.501 223.098 353.401 222.198C349.301 220.298 345.101 218.698 340.801 217.498C336.501 216.298 332.001 215.398 327.601 214.998C316.701 213.898 305.701 215.098 295.001 217.798C283.801 220.598 273.001 225.198 262.801 230.898C256.401 234.498 250.201 238.598 244.301 242.998C238.401 247.398 232.701 252.198 227.301 257.198C221.601 262.398 216.101 267.998 210.801 273.698C208.101 276.598 205.501 279.398 202.901 282.198C200.301 284.998 197.901 287.798 195.701 290.698C193.101 294.098 190.601 297.598 188.401 301.198C186.201 304.798 184.101 308.598 182.301 312.498C180.401 316.298 178.801 320.298 177.401 324.298C176.701 326.298 176.101 328.398 175.501 330.398L174.701 333.498L174.001 336.798C174.001 337.098 173.901 337.298 173.801 337.498C173.801 337.498 173.801 337.198 173.801 336.998L174.001 335.198V334.598L174.101 334.298V334.198H173.801H173.101V333.998L172.901 333.598L172.601 332.798C172.601 332.598 172.401 332.298 172.601 332.198C172.601 332.198 172.901 332.298 172.901 332.398C172.901 332.398 173.201 332.498 173.401 332.598C173.901 332.598 174.601 332.798 175.201 332.898L182.801 333.998L197.901 336.298C207.401 337.698 216.901 339.198 226.301 340.598L225.001 349.198L224.101 355.998L223.401 362.798L222.801 369.598C222.201 378.698 222.001 387.898 222.201 396.998C222.401 404.698 222.801 412.098 223.401 419.398C224.001 426.698 224.901 433.998 226.201 441.398C226.501 442.998 226.701 444.698 226.901 446.398C227.001 447.398 227.101 448.298 227.201 449.198C227.301 450.298 227.401 451.198 227.501 451.998C225.101 451.998 223.501 451.698 222.801 451.498C222.101 451.298 221.901 451.098 222.701 450.898C223.401 450.798 224.201 450.598 225.001 450.498C225.201 450.498 225.401 450.498 225.701 450.498C225.501 449.898 225.401 449.298 225.201 448.598C225.001 447.798 224.801 446.898 224.601 446.098C224.201 444.398 223.801 442.598 223.401 440.898C222.601 437.398 222.001 433.898 221.401 430.298C220.201 423.098 219.301 415.598 218.801 407.198C218.201 396.298 218.201 385.298 218.801 374.298C219.001 371.598 219.101 368.798 219.401 366.098L219.701 361.998L220.101 357.898C220.401 355.198 220.801 352.498 221.101 349.698C221.301 348.298 221.501 346.998 221.701 345.598L222.001 343.398L213.801 342.198L215.001 343.098Z" fill="#FE5102"/>
<path d="M228.899 350.2C228.799 352 228.599 353.7 228.499 355.5C228.499 356.2 228.199 356.8 228.699 357.5C228.899 357.9 228.299 358.4 228.299 359C228.299 360.6 228.099 362.3 227.999 363.9C227.999 365.5 228.099 367.1 227.999 368.7C227.999 370.3 227.599 371.9 227.899 373.4C228.099 374.7 227.599 375.9 227.699 377.1C227.699 378.4 227.799 379.8 227.599 381.1C227.399 382 227.199 383 227.299 383.9C227.299 384.5 227.699 385 227.699 385.7C227.699 386.3 227.399 387 227.999 387.5C227.999 387.5 227.999 387.8 227.899 387.9C227.499 388.5 227.499 389.3 227.899 389.9C228.199 390.4 228.099 390.9 228.199 391.4C228.199 392.7 228.199 394.1 228.199 395.4C228.199 396.4 227.999 397.4 227.899 398.4C227.899 399.4 228.199 400.6 227.899 401.5C227.599 402.5 227.699 403.4 227.799 404.4C227.799 404.9 227.599 405.6 228.199 406C228.199 406 228.199 406.2 228.199 406.3C227.499 407.9 228.699 409.3 228.599 410.9C228.499 412.5 228.799 414.2 228.899 415.8C228.899 416.2 228.799 416.7 229.299 417.1C229.499 417.2 229.499 417.7 229.399 417.9C228.899 419.2 229.399 420.4 229.399 421.6C229.399 423 229.799 424.4 229.399 425.9C229.299 426.5 229.199 427.4 229.899 428C230.199 428.3 229.999 429 230.099 429.5C230.099 429.9 230.499 430.3 230.599 430.7C230.599 431.1 230.399 431.4 230.399 431.8C230.399 431.9 230.399 432 230.399 432.1C231.299 434.1 230.599 436.2 230.999 438.3C231.399 440.4 231.599 442.5 231.699 444.6C231.699 445.8 231.699 447 230.699 447.9C230.199 448.3 229.699 448.4 229.299 447.9C228.999 447.6 228.699 447.2 228.599 446.8C228.399 446.2 228.199 445.5 228.099 444.9C227.799 443.6 227.099 442.3 227.199 440.9C227.199 440.5 226.899 440 227.299 439.6C227.299 439.6 227.299 439.4 227.299 439.3C226.299 437.5 226.599 435.6 226.399 433.7C226.199 432.1 225.399 430.6 225.499 429C224.799 428.2 224.799 427.1 224.899 426.2C225.299 423 224.499 419.8 224.299 416.6C224.099 413.4 223.799 410.1 223.599 406.9C223.599 406.3 223.199 405.9 223.399 405.2C223.599 404.6 223.399 403.8 223.399 403.1C223.399 402.5 223.199 401.8 223.399 401.2C223.999 398.6 223.399 396.1 223.399 393.5C223.399 391 223.399 388.4 223.399 385.9C223.399 384.4 222.999 382.8 223.099 381.3C223.099 380.6 222.799 379.9 223.499 379.3C223.699 379.1 223.199 378.5 223.199 378.1C223.199 377 223.199 376 223.199 374.9C223.199 373.4 223.399 372 223.399 370.5C223.399 369.6 223.199 368.7 223.199 367.8C223.199 366.9 223.199 365.9 223.399 365C223.499 363.8 223.799 362.6 223.999 361.5C224.099 360.3 223.999 359 224.299 357.8C224.899 355.6 224.899 353.4 225.099 351.3C225.299 349.1 225.499 347 225.599 344.8C225.599 343.6 226.199 342.5 226.299 341.3C226.299 340.7 227.899 340.1 228.399 340.4L228.599 340.6C228.999 341.8 229.599 343 229.399 344.3C229.199 346.3 228.999 348.3 228.899 350.3V350.2Z" fill="black"/>
<path d="M179.2 332.899C180.1 332.899 181 333.1 181.8 333.1C182.1 333.1 182.4 333.399 182.8 332.899C183 332.599 183.3 333.299 183.6 333.299C184.4 333.299 185.2 333.399 186.1 333.399C186.9 333.399 187.7 333.2 188.5 333.2C189.3 333.2 190.1 333.599 190.9 333.299C191.6 333.099 192.1 333.6 192.8 333.6C193.5 333.6 194.2 333.599 194.8 333.799C195.3 333.999 195.7 334.3 196.2 334.2C196.5 334.2 196.8 333.899 197.1 333.899C197.4 333.899 197.7 334.2 198 333.6C198 333.6 198.2 333.599 198.2 333.799C198.5 334.199 198.9 334.3 199.2 334C199.5 333.8 199.7 333.799 200 333.799C200.7 333.799 201.4 333.8 202 334C202.5 334 203 334.4 203.5 334.5C204 334.6 204.6 334.4 205.1 334.7C205.6 335.1 206 335.1 206.5 335.1C206.8 335.1 207.1 335.499 207.3 334.799C207.3 334.799 207.4 334.799 207.5 334.799C208.2 335.699 209.1 334.8 209.8 335C210.6 335.3 211.4 335.299 212.2 335.299C212.4 335.299 212.6 335.5 212.9 335.1C212.9 334.9 213.2 335 213.3 335.1C213.8 335.8 214.5 335.5 215.1 335.7C215.8 335.9 216.5 335.699 217.2 336.299C217.5 336.499 217.9 336.7 218.3 336.2C218.5 336 218.8 336.2 219.1 336.2C219.3 336.2 219.6 335.9 219.8 336C220 336 220.1 336.299 220.3 336.399C220.3 336.399 220.4 336.399 220.5 336.399C221.6 335.899 222.5 336.899 223.6 336.899C224.7 336.899 225.7 337.099 226.7 337.399C227.3 337.499 227.8 337.8 228 339C228 339.5 228 340.099 227.7 340.399C227.5 340.599 227.2 340.799 227 340.799C226.7 340.799 226.3 340.899 226 341C225.3 341 224.6 341.5 223.9 341.1C223.7 341 223.4 341.2 223.3 340.7C223.3 340.7 223.3 340.6 223.2 340.7C222.2 341.3 221.3 340.7 220.4 340.6C219.6 340.6 218.8 341 218 340.6C217.5 341.2 217 341 216.6 340.7C215.1 339.8 213.5 340.099 212 339.799C210.4 339.499 208.8 339.4 207.2 339.2C206.9 339.2 206.7 339.5 206.4 339.2C206.1 338.9 205.7 339.1 205.4 339C205.1 339 204.7 338.999 204.5 338.899C203.3 338.099 202 338.4 200.8 338.2C199.6 338 198.3 337.799 197.1 337.899C196.3 337.899 195.5 338.2 194.8 338C194.5 338 194.1 338.2 193.8 337.6C193.8 337.4 193.4 337.899 193.2 337.899C192.7 337.899 192.2 337.899 191.6 337.799C190.9 337.799 190.2 337.6 189.4 337.6C189 337.6 188.5 337.799 188.1 337.799C187.6 337.799 187.2 337.8 186.7 337.7C186.1 337.6 185.6 337.3 185 337.2C184.4 337.1 183.7 337.3 183.2 337C182.2 336.4 181.1 336.6 180 336.5C178.9 336.4 177.9 336.299 176.8 336.299C176.2 336.299 175.7 335.799 175.1 335.799C174.8 335.799 174.5 334.299 174.7 333.799C174.7 333.799 174.7 333.6 174.8 333.6C175.4 333.2 176 332.5 176.7 332.6C177.7 332.7 178.7 332.699 179.7 332.799L179.2 332.899Z" fill="black"/>
<path d="M408.599 404.802C408.199 397.002 407.899 389.202 407.399 381.402C407.199 378.502 407.399 375.502 406.599 372.502C406.199 371.002 406.699 368.202 406.599 365.502C406.099 358.202 405.699 351.002 405.099 343.702C404.499 336.602 403.699 329.602 402.999 322.602C402.299 315.602 401.799 308.402 400.499 301.802C399.399 296.102 399.099 290.802 397.899 285.402C397.599 284.002 397.199 282.502 396.899 281.102C396.599 279.702 396.199 278.202 395.799 276.802C395.399 275.402 394.999 274.002 394.599 272.602C394.099 271.202 393.699 269.802 393.199 268.502C391.799 264.602 390.499 260.602 388.499 257.002C387.899 255.802 387.199 254.802 386.599 253.702C385.899 252.602 385.299 251.502 384.499 250.302C383.199 248.002 381.799 245.402 379.999 243.902C379.799 243.802 379.299 242.802 378.999 242.202C378.699 241.602 378.299 240.902 377.899 240.302C377.499 239.702 376.999 239.102 376.499 238.502C375.999 237.902 375.599 237.302 375.099 236.802C374.599 236.302 374.099 235.902 373.699 235.502C371.999 234.002 370.599 232.602 369.099 231.102C364.799 227.202 360.099 224.002 354.899 221.502C352.899 220.702 350.999 219.702 348.999 219.002C346.999 218.302 344.899 217.702 342.799 217.202C338.399 216.302 333.499 216.202 329.299 215.902C325.099 215.602 320.999 215.902 316.799 216.302C314.399 216.502 311.599 216.702 309.799 217.602C309.599 217.602 308.699 217.802 308.299 217.802C301.499 218.202 295.199 220.902 288.699 222.902C281.899 224.902 275.199 227.802 268.799 231.102C267.099 231.902 265.199 232.802 263.899 234.002C263.399 234.402 261.699 235.402 260.799 235.802C259.599 236.302 258.399 236.902 257.199 237.602C255.999 238.302 254.899 239.002 253.699 239.702L251.999 240.802L250.299 242.002C249.199 242.802 247.999 243.602 246.899 244.302C241.799 247.802 237.099 252.002 232.099 255.702C229.999 257.302 227.199 259.702 225.399 262.402C224.999 263.002 224.199 263.802 223.299 264.602C222.399 265.502 221.499 266.402 220.699 267.202C219.399 268.602 218.399 270.102 217.199 271.502C216.699 272.102 216.099 272.602 215.499 273.202C214.899 273.802 214.299 274.302 213.799 274.902C213.499 275.202 213.099 275.702 212.799 276.102C207.399 283.502 201.299 290.202 196.299 297.902C191.399 305.702 186.499 313.702 182.099 321.902C179.599 326.402 177.199 331.102 174.599 333.702C173.499 334.902 172.899 334.702 173.599 332.602C174.099 331.002 174.699 329.302 175.399 327.602C176.599 324.902 177.799 322.202 179.099 319.602C181.699 314.202 184.199 308.802 187.699 303.602C188.799 302.002 189.699 299.902 190.999 298.802C191.199 298.702 191.599 298.002 191.799 297.702C195.699 290.302 201.099 283.602 206.399 277.002C210.899 271.402 215.099 265.802 220.399 260.802C221.599 259.202 223.099 257.602 224.599 256.002C226.199 254.502 227.899 253.102 229.399 251.802C234.999 247.302 240.699 243.002 246.499 238.902C252.399 234.802 258.499 231.002 264.899 227.802C271.399 224.502 277.999 221.602 284.899 219.202C291.699 216.802 298.799 214.802 305.999 213.602C307.199 213.302 308.299 213.102 309.499 212.902C310.699 212.702 311.899 212.502 313.399 212.402C314.799 212.402 316.299 212.202 317.899 212.002C319.499 211.802 321.199 211.602 322.799 211.502C325.699 211.302 328.799 211.202 331.599 211.502C337.299 212.002 343.099 212.802 348.699 214.402C354.299 216.002 359.699 218.402 364.499 221.702C374.099 228.302 381.499 237.302 387.399 247.002C390.999 252.902 394.299 259.002 396.699 265.502C397.699 268.302 399.099 271.102 399.399 274.202C399.399 275.102 400.699 277.602 401.099 279.502C402.299 284.102 403.099 288.802 403.799 293.502C404.799 300.002 405.599 306.502 406.399 313.002C406.899 317.002 407.499 320.802 407.899 324.802C408.299 328.902 408.699 333.102 408.999 337.302C409.299 342.602 409.499 347.802 409.799 353.102C410.099 358.602 410.699 364.202 410.799 369.502C410.799 379.202 411.599 388.902 411.999 398.602C412.399 408.202 412.799 417.902 413.399 427.502C413.699 432.902 413.399 437.902 413.799 443.202C413.999 445.702 412.699 449.102 412.099 448.102C411.999 447.902 411.899 447.502 411.799 447.102C410.999 441.902 409.999 437.102 409.699 431.102C409.299 422.302 408.899 413.402 408.499 404.602L408.599 404.802Z" fill="black"/>
<path d="M367.701 306.801C368.501 308.101 369.201 309.501 369.801 310.901C370.401 312.301 370.801 313.801 371.201 315.301C371.401 316.401 371.401 317.601 372.001 318.701C372.201 319.001 372.001 319.401 372.001 319.901C371.901 320.401 371.701 320.901 371.701 321.401C371.701 324.201 371.101 327.001 370.301 329.701C369.601 332.301 368.601 334.901 367.201 337.301C365.801 339.701 363.701 341.601 362.101 343.701C360.601 345.501 358.701 346.401 357.001 347.701C355.101 349.101 353.001 350.301 350.801 350.901C349.201 351.301 347.601 351.701 346.101 352.101C345.601 352.301 345.201 352.501 344.701 352.601C344.201 352.801 343.701 353.001 343.201 353.001C342.201 353.201 341.001 353.001 340.101 353.701C340.101 353.701 339.601 353.701 339.301 353.601C338.201 353.201 336.801 353.301 335.901 353.501C335.001 353.701 334.201 353.501 333.301 353.501C331.001 353.201 328.701 352.801 326.501 352.001C324.901 351.401 323.301 350.601 321.801 349.801C320.201 349.001 318.401 348.201 317.201 347.001C316.001 345.801 314.701 344.801 313.501 343.701C312.801 343.001 312.301 342.001 311.301 341.801C311.301 341.801 311.001 341.501 310.901 341.301C310.401 339.901 309.601 338.801 308.901 337.501C308.201 336.301 307.601 334.901 307.401 333.501C307.101 330.601 307.101 327.701 307.401 324.901C307.501 324.201 307.901 323.401 307.601 322.601C307.501 322.301 307.601 321.501 307.801 321.201C308.401 320.301 308.801 319.301 309.101 318.301C309.501 317.301 309.901 316.301 310.301 315.301C310.801 314.201 311.501 313.201 312.001 312.101C312.601 311.101 313.401 310.101 314.301 309.201C315.101 308.501 316.101 307.501 316.401 306.201C316.601 305.601 317.601 304.901 318.201 304.301C318.701 303.701 319.001 303.101 319.601 302.601C320.101 302.201 320.701 302.001 321.201 301.601C321.401 301.501 321.501 301.401 321.701 301.201C322.301 300.501 323.001 300.001 323.701 299.401C324.401 298.901 325.201 298.501 326.001 298.001L327.201 297.401L328.401 296.901C329.201 296.601 330.001 296.101 330.801 295.801C334.001 294.201 337.601 293.301 341.201 292.901C342.201 292.901 343.201 292.701 344.101 292.901C345.001 293.101 345.901 293.401 346.501 294.001C347.101 294.501 347.001 295.101 346.201 295.401C345.601 295.601 345.001 295.901 344.301 295.901C343.801 295.901 343.301 296.001 342.801 296.201C342.301 296.301 341.801 296.401 341.301 296.501C339.301 297.001 337.401 297.901 335.301 298.301C334.601 298.301 334.001 299.001 333.301 298.701C333.301 298.701 332.901 298.701 332.801 298.801C331.601 299.601 330.401 300.401 329.101 301.001L327.201 302.101C326.901 302.301 326.601 302.501 326.301 302.701C326.001 302.901 325.701 303.101 325.401 303.301C324.901 303.701 324.401 304.101 324.001 304.501C323.601 304.901 323.201 305.401 322.801 305.801C321.901 306.701 321.201 307.601 320.301 308.401C320.001 309.101 319.701 309.701 319.301 310.301C318.901 310.901 318.301 311.401 317.901 311.901C317.501 312.301 317.101 312.801 316.701 313.301C316.501 313.501 316.301 313.801 316.101 314.001L315.601 314.801L314.701 316.401C314.401 316.901 314.201 317.501 314.001 318.001C313.801 318.601 313.501 319.101 313.301 319.701L312.801 321.401L312.501 322.301L312.301 323.201L311.901 324.901C310.901 329.701 311.301 334.601 314.001 338.201C314.501 338.801 315.101 339.101 315.601 340.001C316.001 340.801 317.001 341.401 317.801 342.101C318.601 342.701 319.501 343.201 320.101 343.801C323.001 346.401 326.901 347.601 330.601 348.501C334.301 349.401 338.301 349.601 342.001 348.901C344.301 348.501 346.401 347.601 348.601 346.801C349.601 346.501 350.401 345.801 351.501 345.801C351.801 345.801 352.401 345.001 353.001 344.701C354.301 343.901 355.701 343.001 356.901 342.001C358.601 340.601 360.201 339.101 361.501 337.301C362.301 336.201 362.801 335.001 363.501 333.801C364.101 332.601 364.701 331.301 365.301 330.101C366.001 328.501 366.701 326.901 367.101 325.201C367.501 323.401 367.301 321.501 367.601 319.801C367.801 318.201 367.601 316.501 367.201 315.001C366.801 313.401 366.201 311.901 365.401 310.501C364.001 307.601 361.801 305.001 359.201 303.201C357.701 302.201 356.501 301.001 354.801 300.301C354.101 300.001 353.301 298.301 353.801 297.901C353.801 297.901 354.101 297.801 354.201 297.801C356.201 297.901 358.301 298.001 360.301 299.401C363.201 301.301 365.701 303.901 367.601 306.801H367.701Z" fill="black"/>
<path d="M369.8 179.298C369.3 181.398 368.8 183.498 368.4 185.598C368.2 186.398 367.8 187.098 368.2 188.098C368.4 188.598 367.6 189.198 367.4 189.898C367 191.898 366.5 193.798 366.1 195.798C365.7 197.698 365.5 199.698 365.2 201.598C364.9 203.498 364.2 205.398 364.1 207.298C364.1 208.898 363.3 210.298 363.1 211.798C362.9 213.398 362.6 215.098 362.1 216.698C361.7 217.798 361.3 218.898 361.1 220.098C361.1 220.798 361.2 221.598 361.1 222.298C360.9 222.998 360.5 223.798 361 224.498C361 224.498 360.9 224.898 360.7 224.998C360.1 225.698 360 226.698 360.1 227.398C360.2 228.098 360.1 228.598 360 229.198C359.7 230.798 359.4 232.498 359 234.098C358.7 235.298 358.3 236.498 358 237.698C357.7 238.998 357.7 240.398 357.2 241.498C356.7 242.598 356.5 243.798 356.3 244.898C356.2 245.598 355.8 246.298 356.3 246.898C356.3 246.898 356.3 247.198 356.3 247.298C355.1 248.998 355.9 251.098 355.3 252.898C354.7 254.798 354.5 256.898 354.2 258.898C354.2 259.398 353.8 259.998 354.2 260.498C354.3 260.698 354.2 261.298 354.1 261.498C353.2 262.898 353.3 264.498 353 265.998C352.6 267.698 352.6 269.498 351.8 271.098C351.5 271.798 351.2 272.798 351.6 273.798C351.8 274.198 351.4 274.998 351.3 275.698C351.3 276.198 351.4 276.798 351.3 277.298C351.3 277.698 350.9 278.098 350.7 278.598C350.7 278.698 350.7 278.898 350.7 278.998C350.9 281.598 349.7 283.998 349.4 286.598C349.2 289.198 348.7 291.698 348.2 294.298C347.9 295.698 347.5 297.098 346.2 297.898C345.6 298.298 345.1 298.198 344.8 297.498C344.6 296.998 344.5 296.498 344.5 295.998C344.5 295.198 344.5 294.298 344.5 293.498C344.5 291.798 344.3 290.098 344.8 288.498C345 287.998 344.8 287.298 345.3 286.998C345.3 286.998 345.5 286.698 345.4 286.598C345 284.198 345.9 281.998 346.2 279.598C346.5 277.598 346.2 275.598 346.8 273.698C346.4 272.498 346.7 271.298 347.1 270.198C348.4 266.398 348.6 262.498 349.4 258.698C350.2 254.798 350.8 250.898 351.6 246.998C351.7 246.298 351.5 245.698 351.9 244.998C352.3 244.298 352.3 243.298 352.4 242.498C352.5 241.698 352.6 240.898 352.9 240.198C354.1 237.298 354.3 234.098 355 230.998C355.7 227.998 356.3 224.898 356.8 221.798C357.1 219.898 357.1 217.998 357.6 216.198C357.8 215.398 357.6 214.498 358.4 213.798C358.6 213.598 358.4 212.798 358.4 212.298C358.6 210.998 358.9 209.698 359.2 208.498C359.6 206.698 360 204.998 360.3 203.198C360.5 202.098 360.5 200.998 360.6 199.898C360.8 198.798 361 197.598 361.3 196.498C361.7 195.098 362.2 193.698 362.6 192.298C363 190.798 363.1 189.198 363.6 187.898C364.7 185.398 365 182.698 365.7 180.098C366.3 177.498 367 174.898 367.5 172.298C367.8 170.798 368.6 169.598 368.9 168.098C369.1 167.398 370.7 166.898 371.1 167.198C371.1 167.198 371.3 167.398 371.3 167.498C371.4 168.998 371.8 170.498 371.4 172.098C370.8 174.498 370.3 176.898 369.7 179.298H369.8Z" fill="black"/>
<path d="M310.599 274.902C309.699 275.102 308.699 275.302 307.799 275.602C307.499 275.702 306.999 275.602 306.899 276.202C306.899 276.502 306.299 276.002 305.999 276.202C305.199 276.502 304.299 276.802 303.499 277.202C302.699 277.602 301.999 278.102 301.299 278.602C300.599 279.002 299.699 279.202 299.099 279.902C298.599 280.502 297.799 280.402 297.299 280.902C296.799 281.402 296.199 281.902 295.499 282.102C294.999 282.302 294.399 282.402 294.099 282.802C293.899 283.002 293.899 283.502 293.599 283.702C293.299 283.902 292.899 283.902 293.099 284.602C293.099 284.602 292.899 284.602 292.799 284.602C292.299 284.602 291.999 284.802 291.899 285.202C291.899 285.602 291.699 285.702 291.499 285.902C290.999 286.402 290.499 286.902 289.999 287.402C289.599 287.802 289.099 288.002 288.699 288.402C288.299 288.802 288.099 289.402 287.599 289.602C286.999 289.802 286.699 290.202 286.399 290.702C286.199 290.902 285.799 291.102 286.199 291.602C286.199 291.602 286.199 291.702 286.099 291.702C284.899 291.902 285.399 293.202 284.799 293.802C284.199 294.402 283.899 295.302 283.499 296.102C283.399 296.302 283.099 296.502 283.499 296.802C283.599 296.902 283.499 297.202 283.399 297.202C282.599 297.502 282.599 298.302 282.299 298.902C281.899 299.602 281.899 300.402 281.199 300.902C280.899 301.102 280.599 301.502 281.099 302.102C281.299 302.402 280.899 302.602 280.899 302.902C280.899 303.102 281.099 303.402 280.999 303.602C280.999 303.802 280.699 303.902 280.499 304.102C280.499 304.102 280.499 304.202 280.499 304.302C280.899 305.502 279.799 306.402 279.699 307.502C279.699 308.102 279.699 308.602 279.499 309.202C279.499 309.802 279.299 310.302 279.199 310.902C279.199 311.502 278.899 312.102 277.699 312.502C277.199 312.702 276.599 312.702 276.299 312.402C276.099 312.202 275.899 311.902 275.799 311.702C275.799 311.302 275.599 310.902 275.599 310.502C275.599 309.702 274.999 308.902 275.399 308.102C275.499 307.902 275.299 307.502 275.799 307.402C275.799 307.402 275.899 307.302 275.799 307.202C275.199 306.002 275.899 305.002 276.199 303.902C276.399 303.002 275.999 301.902 276.599 301.102C276.099 300.402 276.499 299.802 276.799 299.402C278.099 297.802 278.399 296.002 279.299 294.302C280.199 292.602 281.099 290.902 282.199 289.402C282.399 289.102 282.199 288.702 282.699 288.502C283.099 288.402 283.199 287.902 283.499 287.502C283.699 287.202 283.899 286.802 284.199 286.602C285.699 285.902 286.299 284.502 287.399 283.502C288.499 282.502 289.599 281.502 290.699 280.502C291.299 279.802 291.799 279.002 292.699 278.602C292.999 278.402 293.199 277.902 293.899 278.202C294.099 278.202 294.099 277.702 294.299 277.502C294.799 277.102 295.399 276.802 295.899 276.502C296.599 276.002 297.399 275.702 298.199 275.202C298.699 274.902 298.999 274.502 299.499 274.202C299.999 273.902 300.499 273.702 300.999 273.502C301.699 273.302 302.399 273.202 303.099 273.002C303.799 272.802 304.399 272.302 305.199 272.302C306.599 272.302 307.699 271.802 308.999 271.502C310.299 271.302 311.499 271.102 312.799 270.802C313.499 270.602 314.199 271.102 314.899 271.002C315.199 271.002 315.799 272.402 315.699 272.902C315.699 272.902 315.699 273.102 315.599 273.102C314.999 273.602 314.499 274.402 313.799 274.402C313.299 274.402 312.699 274.502 312.199 274.602L310.599 274.902Z" fill="#FE5102"/>
<path d="M309.6 283.899C310 283.199 310.4 282.599 310.7 281.899C310.8 281.599 311.2 281.499 310.9 280.999C310.7 280.699 311.4 280.799 311.5 280.599C311.8 279.899 312.2 279.399 312.6 278.699C312.9 278.099 313.1 277.399 313.4 276.699C313.7 276.099 314.3 275.599 314.4 274.899C314.4 274.299 315.2 274.099 315.4 273.599C315.5 273.299 315.6 272.999 315.8 272.799C315.8 272.699 316 272.499 316.1 272.499C316.1 272.499 316.2 272.499 316.3 272.499C316.5 272.499 316.9 272.299 316.8 272.199C316.8 272.199 316.4 272.099 316.5 272.099C316.5 272.099 317 271.899 316.1 272.099C316.1 272.099 316.1 272.099 316.3 272.099C316.7 271.999 316.9 271.899 316.8 271.899C316.8 271.899 316.6 271.899 316.5 271.899C316.1 272.099 316.1 271.999 316.1 271.999C316.1 271.999 316.1 271.999 316.1 271.799C316.1 271.799 315.9 271.599 315.7 271.499C315.3 271.299 314.7 271.299 314.4 270.899C314.1 270.399 313.7 270.299 313.3 270.099C313.1 270.099 312.9 269.599 312.5 270.099H312.4C312.1 269.099 311 269.699 310.5 269.199C310 268.699 309.2 268.399 308.6 268.099C308.4 268.099 308.3 267.699 307.9 268.099C307.8 268.199 307.6 268.099 307.5 267.999C307.4 267.199 306.7 267.199 306.3 266.799C305.9 266.299 305.2 266.199 305 265.499C305 265.199 304.7 264.899 304.1 265.199C303.8 265.299 303.7 264.999 303.5 264.899C303.3 264.899 303 264.899 302.9 264.899C302.8 264.899 302.8 264.499 302.7 264.399C302.7 264.399 302.7 264.399 302.6 264.399C301.6 264.499 301.3 263.399 300.5 263.199C299.7 262.999 299 262.699 298.3 262.399C297.9 262.199 297.6 261.999 297.5 260.799C297.5 260.299 297.5 259.699 297.8 259.399C298 259.199 298.2 258.999 298.4 258.999C298.7 258.999 299.1 258.999 299.4 258.999C300.1 258.999 300.9 258.699 301.4 259.199C301.6 259.399 301.9 259.199 301.8 259.699C301.8 259.699 301.8 259.799 301.9 259.799C303 259.499 303.6 260.399 304.3 260.799C304.9 261.099 305.9 260.999 306.3 261.599C307 261.299 307.3 261.599 307.5 261.999C308.3 263.299 309.6 263.699 310.6 264.499C311.7 265.299 312.9 265.799 314 266.399C314.2 266.499 314.5 266.299 314.6 266.599C314.7 266.899 315.1 266.899 315.4 266.999C315.6 267.099 315.9 266.999 316.1 267.299C316.5 267.799 316.9 267.999 317.4 268.199C318.2 268.499 319.2 268.699 320.1 268.999C321.1 269.299 322 269.599 323 269.899C322.6 270.499 322.1 271.199 321.8 271.799C321.3 272.699 320.9 273.799 320.2 274.599C319.9 274.899 319.8 275.599 319.2 275.399C319 275.399 319.2 275.799 319.2 275.999C319 276.399 318.7 276.699 318.5 277.099C318.2 277.599 317.8 278.099 317.5 278.699C317.3 278.999 317.3 279.499 317.2 279.799C317 280.199 316.8 280.499 316.6 280.799C316.3 281.199 315.8 281.499 315.5 281.899C315.2 282.299 315.1 282.899 314.7 283.199C313.8 283.699 313.6 284.699 313.1 285.499C312.6 286.299 312.1 287.099 311.8 287.899C311.6 288.399 311 288.599 310.7 288.999C310.6 289.199 309.1 288.799 308.7 288.499C308.7 288.499 308.5 288.399 308.5 288.299C308.3 287.599 307.9 286.899 308.2 286.399C308.7 285.699 309 284.899 309.4 284.099L309.6 283.899Z" fill="#FE5102"/>
<path d="M357.699 377.2C358.599 377 359.599 376.8 360.499 376.5C360.799 376.4 361.299 376.5 361.399 375.9C361.399 375.6 361.999 376.1 362.299 375.9C363.099 375.6 363.999 375.3 364.799 374.9C365.599 374.5 366.299 374 366.999 373.5C367.699 373.1 368.599 372.9 369.199 372.2C369.699 371.6 370.499 371.7 370.999 371.2C371.499 370.7 372.099 370.2 372.799 370C373.299 369.8 373.899 369.7 374.199 369.3C374.399 369.1 374.399 368.6 374.699 368.4C374.999 368.2 375.399 368.2 375.199 367.5C375.199 367.5 375.399 367.5 375.499 367.5C375.999 367.5 376.299 367.3 376.399 366.9C376.399 366.5 376.599 366.4 376.799 366.2C377.299 365.7 377.799 365.2 378.299 364.7C378.699 364.3 379.199 364.1 379.599 363.7C379.999 363.3 380.199 362.7 380.699 362.5C381.299 362.3 381.599 361.9 381.899 361.4C382.099 361.2 382.499 361 382.099 360.5C382.099 360.5 382.099 360.4 382.199 360.4C383.399 360.2 382.899 358.9 383.499 358.3C384.099 357.7 384.399 356.8 384.799 356C384.899 355.8 385.199 355.6 384.799 355.3C384.699 355.2 384.799 354.9 384.899 354.9C385.699 354.6 385.699 353.8 385.999 353.2C386.399 352.5 386.399 351.7 387.099 351.2C387.399 351 387.699 350.6 387.199 350C386.999 349.7 387.399 349.5 387.399 349.2C387.399 349 387.199 348.7 387.299 348.5C387.299 348.3 387.599 348.2 387.799 348C387.799 348 387.799 347.9 387.799 347.8C387.399 346.6 388.499 345.7 388.599 344.6C388.599 344 388.599 343.5 388.799 342.9C388.799 342.3 388.999 341.8 389.099 341.2C389.099 340.6 389.399 340 390.599 339.6C391.099 339.4 391.699 339.4 391.999 339.7C392.199 339.9 392.399 340.2 392.499 340.4C392.499 340.8 392.699 341.2 392.699 341.6C392.699 342.4 393.299 343.2 392.899 344C392.799 344.2 392.999 344.6 392.499 344.7C392.499 344.7 392.399 344.8 392.399 344.9C392.999 346.1 392.299 347.1 391.999 348.2C391.799 349.1 392.199 350.2 391.599 351C392.099 351.7 391.699 352.3 391.399 352.7C390.099 354.3 389.799 356.1 388.899 357.8C387.999 359.5 387.099 361.2 385.999 362.7C385.799 363 385.999 363.4 385.499 363.6C385.099 363.7 384.999 364.2 384.699 364.6C384.499 364.9 384.299 365.3 383.999 365.5C382.499 366.2 381.899 367.6 380.799 368.6C379.699 369.6 378.599 370.6 377.499 371.6C376.899 372.3 376.399 373.1 375.499 373.5C375.199 373.7 374.999 374.2 374.299 373.9C374.099 373.9 374.099 374.4 373.899 374.6C373.399 375 372.799 375.3 372.299 375.6C371.599 376.1 370.799 376.4 369.999 376.9C369.499 377.2 369.199 377.6 368.699 377.9C368.199 378.2 367.699 378.4 367.199 378.6C366.499 378.8 365.799 378.9 365.099 379.1C364.399 379.3 363.799 379.8 362.999 379.8C361.599 379.8 360.499 380.3 359.199 380.6C357.899 380.8 356.699 381 355.399 381.3C354.699 381.5 353.999 381 353.299 381.1C352.999 381.1 352.399 379.7 352.499 379.2C352.499 379.2 352.499 379 352.599 379C353.199 378.5 353.699 377.7 354.399 377.7C354.899 377.7 355.499 377.6 355.999 377.5L357.599 377.2H357.699Z" fill="#FE5102"/>
<path d="M358.701 368.201C358.301 368.901 357.901 369.501 357.601 370.201C357.501 370.501 357.101 370.601 357.401 371.101C357.601 371.401 356.901 371.301 356.801 371.501C356.501 372.201 356.101 372.701 355.701 373.401C355.401 374.001 355.201 374.701 354.901 375.401C354.601 376.001 354.001 376.501 353.901 377.201C353.901 377.801 353.101 378.001 352.901 378.501C352.801 378.801 352.701 379.101 352.501 379.301C352.501 379.401 352.301 379.601 352.201 379.601C352.201 379.601 352.101 379.601 352.001 379.601C351.801 379.601 351.401 379.801 351.501 379.901C351.501 379.901 351.901 380.001 351.801 380.001C351.801 380.001 351.301 380.201 352.201 380.001C352.201 380.001 352.201 380.001 352.001 380.001C351.601 380.101 351.401 380.201 351.501 380.201C351.501 380.201 351.701 380.201 351.801 380.201C352.201 380.001 352.201 380.101 352.201 380.101C352.201 380.101 352.201 380.101 352.201 380.301C352.201 380.301 352.401 380.501 352.601 380.601C353.001 380.801 353.601 380.801 353.901 381.201C354.201 381.701 354.601 381.801 355.001 382.001C355.201 382.001 355.401 382.501 355.801 382.001H355.901C356.201 383.001 357.301 382.401 357.801 382.901C358.301 383.401 359.101 383.701 359.701 384.001C359.901 384.001 360.001 384.401 360.401 384.001C360.501 383.901 360.701 384.001 360.801 384.101C360.901 384.901 361.601 384.901 362.001 385.301C362.401 385.801 363.101 385.901 363.301 386.601C363.301 386.901 363.601 387.201 364.201 386.901C364.501 386.801 364.601 387.101 364.801 387.201C365.001 387.201 365.301 387.201 365.401 387.201C365.501 387.201 365.501 387.601 365.601 387.701C365.601 387.701 365.601 387.701 365.701 387.701C366.701 387.601 367.001 388.701 367.801 388.901C368.601 389.101 369.301 389.401 370.001 389.701C370.401 389.901 370.701 390.101 370.801 391.301C370.801 391.801 370.801 392.401 370.501 392.701C370.301 392.901 370.101 393.101 369.901 393.101C369.601 393.101 369.201 393.101 368.901 393.101C368.201 393.101 367.401 393.401 366.901 392.901C366.701 392.701 366.401 392.901 366.501 392.401C366.501 392.401 366.501 392.301 366.401 392.301C365.301 392.601 364.701 391.701 364.001 391.301C363.401 391.001 362.401 391.101 362.001 390.501C361.301 390.801 361.001 390.501 360.801 390.101C360.001 388.801 358.701 388.401 357.701 387.601C356.601 386.801 355.401 386.301 354.301 385.701C354.101 385.601 353.801 385.801 353.701 385.501C353.601 385.201 353.201 385.201 352.901 385.101C352.701 385.001 352.401 385.101 352.201 384.801C351.801 384.301 351.401 384.101 350.901 383.901C350.101 383.601 349.101 383.401 348.201 383.101C347.201 382.801 346.301 382.501 345.301 382.201C345.701 381.601 346.201 380.901 346.501 380.301C347.001 379.401 347.401 378.301 348.101 377.501C348.401 377.201 348.501 376.501 349.101 376.701C349.301 376.701 349.101 376.301 349.101 376.101C349.301 375.701 349.601 375.401 349.801 375.001C350.101 374.501 350.501 374.001 350.801 373.401C351.001 373.101 351.001 372.601 351.101 372.301C351.301 371.901 351.501 371.601 351.701 371.301C352.001 370.901 352.501 370.601 352.801 370.201C353.101 369.801 353.201 369.201 353.601 368.901C354.501 368.401 354.701 367.401 355.201 366.601C355.701 365.801 356.201 365.001 356.501 364.201C356.701 363.701 357.301 363.501 357.601 363.101C357.701 362.901 359.201 363.301 359.601 363.601C359.601 363.601 359.801 363.701 359.801 363.801C360.001 364.501 360.401 365.201 360.101 365.701C359.601 366.401 359.301 367.201 358.901 368.001L358.701 368.201Z" fill="#FE5102"/>
<path d="M230.001 317.301C230.001 316.901 230.001 316.601 229.801 316.201C229.801 316.101 230.001 315.901 229.501 315.801C229.201 315.801 229.801 315.601 229.801 315.401C229.701 315.101 229.801 314.701 229.701 314.401C229.701 314.101 229.301 313.801 229.301 313.501C229.301 313.201 229.501 312.801 229.101 312.501C228.801 312.301 229.301 312.001 229.101 311.701C229.001 311.401 228.801 311.201 229.101 310.901C229.301 310.701 229.501 310.501 229.301 310.301C229.301 310.201 228.901 310.101 228.901 310.001C228.901 309.901 229.201 309.701 228.501 309.701C228.501 309.701 228.501 309.701 228.601 309.601C229.001 309.401 229.001 309.301 228.601 309.201C228.301 309.201 228.401 309.001 228.301 308.901C228.301 308.601 228.301 308.301 228.301 308.101C228.301 307.901 228.601 307.701 228.601 307.501C228.601 307.301 228.401 307.101 228.601 306.801C228.901 306.601 228.901 306.401 228.901 306.201C228.901 306.101 229.201 305.901 228.501 305.901C229.301 305.601 228.201 305.301 228.501 304.901C228.701 304.601 228.501 304.201 228.501 303.901C228.501 303.901 228.701 303.701 228.201 303.601C228.001 303.601 228.001 303.501 228.201 303.401C228.801 303.101 228.401 302.901 228.501 302.601C228.601 302.301 228.301 302.001 228.801 301.701C229.001 301.601 229.101 301.401 228.501 301.301C228.201 301.301 228.501 301.101 228.501 301.001C228.501 301.001 228.201 300.801 228.201 300.701C228.201 300.701 228.401 300.601 228.501 300.501C227.801 300.101 228.701 299.701 228.501 299.201C228.301 298.801 228.501 298.301 228.501 297.901C228.501 297.701 228.801 297.401 229.901 297.301C230.401 297.301 231.001 297.301 231.301 297.301C231.501 297.301 231.801 297.501 231.801 297.601C231.801 297.701 232.001 297.901 232.101 298.001C232.301 298.301 232.801 298.601 232.501 298.801C232.501 298.801 232.701 299.001 232.201 299.001C233.001 299.401 232.401 299.801 232.501 300.101C232.501 300.401 233.201 300.701 232.901 301.101C233.501 301.301 233.401 301.501 233.201 301.701C232.501 302.301 233.001 303.001 232.901 303.601C232.901 304.201 232.901 304.901 232.901 305.501C232.901 305.601 233.301 305.701 232.901 305.801C232.601 305.901 232.901 306.101 232.901 306.201C232.901 306.301 233.001 306.501 232.901 306.601C232.301 307.101 232.701 307.601 232.601 308.101C232.601 308.601 232.601 309.101 232.701 309.601C232.801 309.901 233.201 310.201 233.101 310.501C233.101 310.601 233.401 310.701 232.801 310.901C232.601 310.901 233.101 311.001 233.101 311.101C233.101 311.301 233.101 311.501 233.101 311.701C233.101 312.001 233.101 312.301 233.101 312.601C233.101 312.801 233.401 312.901 233.501 313.101C233.501 313.301 233.501 313.501 233.501 313.701C233.501 313.901 233.301 314.201 233.201 314.401C233.201 314.601 233.501 314.901 233.201 315.101C232.701 315.601 233.001 316.001 233.001 316.401C233.001 316.801 233.001 317.301 233.201 317.701C233.301 317.901 232.801 318.201 232.901 318.501C232.901 318.601 231.501 319.001 231.001 319.001H230.801C230.301 318.801 229.601 318.701 229.601 318.401C229.601 318.001 229.601 317.601 229.501 317.201L230.001 317.301Z" fill="black"/>
<path d="M251.7 317.301C251.7 316.901 251.7 316.601 251.5 316.201C251.5 316.101 251.7 315.901 251.2 315.801C250.9 315.801 251.5 315.601 251.5 315.401C251.4 315.101 251.5 314.701 251.4 314.401C251.4 314.101 251 313.801 251 313.501C251 313.201 251.2 312.801 250.8 312.501C250.5 312.301 251 312.001 250.8 311.701C250.7 311.401 250.5 311.201 250.8 310.901C251 310.701 251.2 310.501 251 310.301C251 310.201 250.6 310.101 250.6 310.001C250.6 309.901 250.9 309.701 250.2 309.701C250.2 309.701 250.2 309.701 250.3 309.601C250.7 309.401 250.7 309.301 250.3 309.201C250 309.201 250.1 309.001 250 308.901C250 308.601 250 308.301 250 308.101C250 307.901 250.3 307.701 250.3 307.501C250.3 307.301 250.1 307.101 250.3 306.801C250.6 306.601 250.6 306.401 250.6 306.201C250.6 306.101 250.9 305.901 250.2 305.901C251 305.601 249.9 305.301 250.2 304.901C250.4 304.601 250.2 304.201 250.2 303.901C250.2 303.901 250.4 303.701 249.9 303.601C249.7 303.601 249.7 303.501 249.9 303.401C250.5 303.101 250.1 302.901 250.2 302.601C250.3 302.301 250 302.001 250.5 301.701C250.7 301.601 250.8 301.401 250.2 301.301C249.9 301.301 250.2 301.101 250.2 301.001C250.2 301.001 249.9 300.801 249.9 300.701C249.9 300.701 250.1 300.601 250.2 300.501C249.5 300.101 250.4 299.701 250.2 299.201C250 298.801 250.2 298.301 250.2 297.901C250.2 297.701 250.5 297.401 251.6 297.301C252.1 297.301 252.7 297.301 253 297.301C253.2 297.301 253.5 297.501 253.5 297.601C253.5 297.701 253.7 297.901 253.8 298.001C254 298.301 254.5 298.601 254.2 298.801C254.2 298.801 254.4 299.001 253.9 299.001C254.7 299.401 254.1 299.801 254.2 300.101C254.2 300.401 254.9 300.701 254.6 301.101C255.2 301.301 255.1 301.501 254.9 301.701C254.2 302.301 254.7 303.001 254.6 303.601C254.6 304.201 254.6 304.901 254.6 305.501C254.6 305.601 255 305.701 254.6 305.801C254.3 305.901 254.6 306.101 254.6 306.201C254.6 306.301 254.7 306.501 254.6 306.601C254 307.101 254.4 307.601 254.3 308.101C254.3 308.601 254.3 309.101 254.4 309.601C254.5 309.901 254.9 310.201 254.8 310.501C254.8 310.601 255.1 310.701 254.5 310.901C254.3 310.901 254.8 311.001 254.8 311.101C254.8 311.301 254.8 311.501 254.8 311.701C254.8 312.001 254.8 312.301 254.8 312.601C254.8 312.801 255.1 312.901 255.2 313.101C255.2 313.301 255.2 313.501 255.2 313.701C255.2 313.901 255 314.201 254.9 314.401C254.9 314.601 255.2 314.901 254.9 315.101C254.4 315.601 254.7 316.001 254.7 316.401C254.7 316.801 254.7 317.301 254.9 317.701C255 317.901 254.5 318.201 254.6 318.501C254.6 318.601 253.2 319.001 252.7 319.001H252.5C252 318.801 251.3 318.701 251.3 318.401C251.3 318.001 251.3 317.601 251.2 317.201L251.7 317.301Z" fill="black"/>
<path d="M258.399 375.301C257.999 375.301 257.599 375.301 257.199 375.301C257.099 375.301 256.899 375.101 256.799 375.601C256.799 375.901 256.599 375.201 256.399 375.301C255.999 375.301 255.699 375.301 255.299 375.301C254.899 375.301 254.599 375.601 254.199 375.601C253.799 375.601 253.499 375.401 253.099 375.601C252.799 375.901 252.499 375.401 252.299 375.501C251.999 375.601 251.699 375.701 251.399 375.501C251.199 375.301 250.999 375.101 250.799 375.201C250.699 375.201 250.499 375.601 250.399 375.601C250.299 375.601 250.099 375.301 249.999 375.901C249.999 375.901 249.999 375.901 249.899 375.801C249.799 375.401 249.599 375.401 249.499 375.701C249.399 376.001 249.299 375.901 249.199 376.001C248.899 376.001 248.599 376.001 248.299 376.001C248.099 376.001 247.799 375.701 247.599 375.701C247.399 375.701 247.099 375.901 246.899 375.701C246.699 375.401 246.499 375.401 246.299 375.401C246.199 375.401 245.999 375.101 245.899 375.701C245.599 374.901 245.199 376.001 244.899 375.701C244.499 375.501 244.199 375.701 243.799 375.701C243.799 375.701 243.599 375.501 243.499 376.001C243.499 376.201 243.399 376.201 243.299 376.001C242.999 375.401 242.699 375.801 242.499 375.601C242.199 375.501 241.899 375.801 241.499 375.301C241.399 375.101 241.199 375.001 240.999 375.601C240.999 375.901 240.799 375.601 240.699 375.601C240.699 375.601 240.499 375.901 240.399 375.901C240.399 375.901 240.199 375.701 240.199 375.601C239.699 376.301 239.299 375.401 238.799 375.601C238.299 375.801 237.899 375.701 237.399 375.601C237.099 375.601 236.899 375.401 236.699 374.201C236.699 373.701 236.699 373.101 236.699 372.801C236.699 372.601 236.899 372.301 236.999 372.301C237.099 372.301 237.299 372.101 237.399 372.001C237.699 371.801 237.999 371.301 238.299 371.601C238.299 371.601 238.499 371.401 238.599 371.901C238.999 371.101 239.399 371.601 239.899 371.601C240.299 371.601 240.599 370.901 240.999 371.201C241.199 370.601 241.399 370.701 241.599 370.901C242.299 371.601 242.999 371.101 243.699 371.201C244.399 371.201 245.099 371.201 245.899 371.201C245.999 371.201 246.099 370.801 246.299 371.201C246.399 371.501 246.599 371.201 246.799 371.201C246.999 371.201 247.099 371.101 247.199 371.201C247.799 371.901 248.299 371.501 248.899 371.501C249.499 371.501 249.999 371.601 250.599 371.501C250.899 371.501 251.299 371.101 251.599 371.201C251.699 371.201 251.899 370.901 251.999 371.501C251.999 371.701 252.199 371.201 252.299 371.201C252.499 371.201 252.799 371.201 252.999 371.201C253.199 371.201 253.699 371.201 253.999 371.201C254.199 371.201 254.399 370.901 254.599 370.901C254.799 370.901 254.999 370.901 255.199 370.901C255.499 370.901 255.699 371.201 255.999 371.201C256.299 371.201 256.599 371.001 256.799 371.201C257.299 371.701 257.799 371.501 258.299 371.501C258.799 371.501 259.299 371.601 259.799 371.501C260.099 371.501 260.299 371.901 260.599 371.901C260.699 371.901 260.899 373.401 260.799 373.901V374.101C260.499 374.601 260.299 375.301 259.999 375.201C259.599 375.201 259.099 375.201 258.699 375.201L258.399 375.301Z" fill="black"/>
<path d="M370.5 168.401C366.4 165.301 359.3 157.301 361.8 151.801C364.3 146.401 372.6 145.001 377.7 146.801C382.8 148.601 385.2 152.701 384.6 157.101C384.2 160.301 381.9 163.001 379.2 164.701C376 166.701 372.2 167.801 369.5 170.401" fill="black"/>
<path d="M374.199 165.199C375.299 164.699 376.299 164.199 377.199 163.699C377.499 163.499 377.999 163.499 378.099 162.799C378.099 162.499 378.799 162.799 378.999 162.599C379.699 161.999 380.499 161.399 380.999 160.599C381.499 159.899 381.799 158.999 381.999 158.199C382.199 157.499 382.699 156.699 382.299 155.999C381.999 155.399 382.399 154.799 382.099 154.199C381.799 153.599 381.399 152.999 381.199 152.299C381.099 151.799 380.899 151.199 380.499 150.899C380.199 150.699 379.799 150.699 379.499 150.499C379.299 150.299 379.099 149.799 378.599 150.199C378.599 150.199 378.599 150.099 378.499 149.999C378.499 149.499 377.999 149.299 377.699 149.399C377.299 149.499 377.099 149.399 376.899 149.399C376.199 149.199 375.499 149.099 374.799 148.899C374.299 148.799 373.699 148.499 373.099 148.399C372.499 148.399 371.899 148.699 371.299 148.399C370.699 148.199 370.199 148.299 369.599 148.399C369.299 148.399 368.799 148.299 368.799 148.999C368.799 148.999 368.699 148.999 368.599 148.999C368.099 148.699 367.699 148.999 367.299 149.299C366.999 149.599 366.699 149.999 366.299 150.099C365.399 150.399 364.899 151.099 364.499 151.699C364.399 151.899 364.099 151.899 364.399 152.399C364.499 152.499 364.399 152.699 364.299 152.799C363.799 152.799 363.799 153.099 363.699 153.399C363.699 153.599 363.699 153.899 363.599 154.199C363.499 154.899 363.799 155.499 363.599 156.299C363.499 156.699 363.599 157.199 364.299 157.299C364.599 157.299 364.499 157.799 364.699 158.099C364.899 158.299 365.199 158.399 365.299 158.599C365.399 158.799 365.299 159.099 365.299 159.299C365.299 159.299 365.299 159.399 365.399 159.499C366.599 160.199 366.599 161.699 367.599 162.599C368.599 163.499 369.399 164.499 370.299 165.399C370.799 165.899 371.199 166.499 370.899 167.699C370.799 168.199 370.399 168.699 369.999 168.699C369.699 168.699 369.299 168.699 368.999 168.599C368.599 168.399 368.099 168.199 367.799 167.899C366.999 167.399 365.899 167.099 365.499 166.199C365.399 165.899 364.899 165.899 365.099 165.299V165.099C363.699 164.599 363.199 163.199 362.399 162.099C362.099 161.599 361.599 161.199 361.199 160.799C360.799 160.299 360.399 159.899 360.299 159.199C359.899 158.999 359.599 158.699 359.399 158.399C359.199 157.999 359.199 157.599 359.199 157.199C359.199 156.499 359.199 155.799 359.199 155.199C359.199 154.499 359.199 153.799 359.199 153.099C359.199 152.399 359.499 151.699 359.699 150.999C359.799 150.599 359.999 150.399 360.099 150.099C360.299 149.799 360.399 149.499 360.699 149.199C362.399 146.999 364.599 145.499 366.999 144.799C367.399 144.699 367.699 144.199 368.199 144.399C368.699 144.599 369.199 144.199 369.799 144.099C370.299 144.099 370.799 143.799 371.199 143.899C373.099 144.399 374.999 144.099 376.899 144.599C378.799 145.099 380.599 145.999 382.099 147.199C383.099 147.899 384.199 148.499 384.799 149.699C384.999 150.199 385.599 150.499 385.299 151.199C385.299 151.399 385.799 151.599 385.999 151.999C386.399 152.799 386.599 153.599 386.699 154.499C386.899 155.699 386.799 156.999 386.699 158.199C386.599 158.899 386.599 159.699 386.299 160.499C385.999 161.199 385.599 161.899 385.199 162.499C384.599 163.299 383.799 163.799 383.099 164.399C382.399 164.999 381.799 165.899 380.899 166.199C379.299 166.699 377.999 167.599 376.699 168.199C375.399 168.799 374.099 169.299 372.999 170.099C372.399 170.499 371.599 170.499 370.999 170.999C370.799 171.199 369.399 170.499 369.199 169.999C369.199 169.999 369.199 169.799 369.199 169.699C369.499 168.799 369.699 167.699 370.599 167.199C371.899 166.499 373.099 165.799 374.299 165.199H374.199Z" fill="black"/>
<path d="M420.801 456.2C416.901 456.2 413.001 456.2 409.201 456.2C407.801 456.2 406.301 455.7 404.801 456.8C404.101 457.3 402.701 456.1 401.301 456.1C397.701 456.2 394.101 456.1 390.401 456.1C386.901 456.2 383.401 456.7 379.901 456.8C376.401 456.9 372.801 456.3 369.501 457C366.601 457.6 364.001 456.6 361.201 456.8C358.201 457.1 355.201 457.2 352.301 456.8C350.201 456.5 348.101 456 346.001 456.2C344.701 456.3 343.501 457 342.001 456.9C340.701 456.9 339.201 456.3 338.001 457.6C338.001 457.7 337.301 457.5 337.001 457.3C335.601 456.5 333.801 456.5 332.601 457.1C331.401 457.6 330.401 457.6 329.301 457.6C326.301 457.6 323.301 457.7 320.401 457.6C318.201 457.6 316.001 457 313.701 456.9C311.401 456.8 308.901 457.3 306.801 456.7C304.601 456.1 302.601 456.1 300.501 456.1C299.301 456.1 297.901 455.5 296.901 456.8C296.901 456.9 296.401 456.9 296.201 456.8C292.801 455.1 289.401 457.3 286.001 456.9C282.401 456.5 278.801 456.8 275.101 456.9C274.101 456.9 273.101 456.5 272.201 457.5C271.901 457.8 270.901 457.9 270.401 457.6C267.701 456.3 264.901 457.1 262.201 456.9C259.101 456.7 255.901 457.2 252.801 456.3C251.501 455.9 249.601 455.7 248.001 456.8C247.301 457.3 245.701 456.8 244.601 456.9C243.701 457 242.701 457.5 241.801 457.6C241.001 457.6 240.201 457.1 239.401 456.9C239.201 456.9 238.901 456.9 238.601 456.9C234.001 458.2 229.501 456.5 224.901 456.9C220.301 457.3 215.601 457.1 210.901 456.9C208.301 456.8 205.701 456.4 204.001 454.1C203.201 453.1 203.201 452 204.301 451.3C205.101 450.8 206.001 450.4 206.901 450.2C208.401 450 209.801 449.7 211.201 449.5C214.201 449.1 217.101 448 220.201 448.6C221.201 448.8 222.301 448.2 223.101 449.2C223.201 449.3 223.601 449.4 223.801 449.3C227.901 447.7 232.101 448.8 236.301 448.6C239.801 448.6 243.301 447.2 246.801 447.8C248.801 446.5 251.101 446.8 253.101 447.1C260.101 448.4 267.101 447.5 274.101 447.7C281.201 447.9 288.301 447.7 295.401 447.7C296.601 447.7 297.701 447 299.101 447.5C300.401 448 302.201 447.6 303.701 447.6C305.201 447.6 306.601 447.3 308.001 447.6C313.601 448.9 319.201 448.1 324.801 448.3C330.401 448.4 335.901 448.6 341.501 448.3C344.901 448.1 348.201 447.4 351.701 447.7C353.201 447.8 354.701 447.1 356.101 448.3C356.501 448.6 357.901 447.7 358.801 447.7C361.101 447.6 363.501 447.7 365.801 447.7C368.101 447.7 372.301 447.7 375.501 447.7C377.501 447.7 379.401 447.1 381.401 447C383.501 446.9 385.501 446.9 387.601 447C390.201 447.2 392.801 447.6 395.401 447.7C398.101 447.8 400.901 447.3 403.501 447.8C408.301 448.8 413.101 448.3 417.901 448.4C422.701 448.5 427.501 448.6 432.301 448.4C435.001 448.3 437.501 449.3 440.101 449.3C441.301 449.3 443.001 452.2 442.501 453.3C442.501 453.5 442.201 453.7 442.001 453.8C439.401 454.7 437.001 456.2 434.001 456.1C429.601 456 425.201 456.1 420.801 456.1V456.2Z" fill="black"/>
<path d="M209.401 365.5C209.001 365.5 208.701 365.3 208.301 365.3C208.201 365.3 208.101 365 207.801 365.5C207.701 365.7 207.701 365.1 207.501 365.1C207.101 365.1 206.801 364.9 206.401 364.9C206.001 364.9 205.701 365 205.301 364.9C204.901 364.9 204.701 364.5 204.301 364.7C203.901 364.9 203.801 364.3 203.501 364.4C203.201 364.4 202.901 364.4 202.701 364.1C202.501 363.9 202.401 363.6 202.201 363.6C202.101 363.6 201.801 363.9 201.701 363.8C201.601 363.8 201.501 363.4 201.201 364C201.201 364 201.201 364 201.201 363.8C201.201 363.4 201.001 363.3 200.801 363.6C200.601 363.8 200.501 363.8 200.401 363.7C200.101 363.7 199.801 363.6 199.601 363.4C199.401 363.3 199.301 363 199.101 362.9C198.901 362.8 198.601 362.9 198.501 362.6C198.501 362.2 198.201 362.2 198.001 362.1C197.901 362.1 197.901 361.7 197.501 362.3C197.501 361.4 196.801 362.3 196.501 362C196.201 361.7 195.801 361.7 195.501 361.6C195.501 361.6 195.401 361.4 195.101 361.8C195.101 361.9 194.901 361.9 194.901 361.8C194.901 361.1 194.501 361.4 194.301 361.2C194.101 361 193.701 361.2 193.601 360.5C193.601 360.3 193.401 360.1 193.101 360.5C192.901 360.7 192.901 360.5 192.801 360.5C192.701 360.5 192.501 360.7 192.401 360.7C192.401 360.7 192.401 360.4 192.401 360.3C191.701 360.7 191.701 359.7 191.201 359.7C190.701 359.7 190.301 359.4 189.901 359.1C189.701 358.9 189.501 358.7 189.901 357.6C190.101 357.1 190.301 356.6 190.601 356.4C190.801 356.2 191.001 356.1 191.101 356C191.301 356 191.501 356 191.601 355.9C191.901 355.9 192.401 355.5 192.601 355.9C192.601 356 192.901 355.8 192.701 356.3C193.401 355.7 193.501 356.4 193.901 356.5C194.201 356.5 194.801 356.2 195.001 356.5C195.401 356 195.601 356.2 195.701 356.5C196.001 357.4 196.801 357.2 197.401 357.6C198.001 357.9 198.601 358.1 199.301 358.4C199.401 358.4 199.601 358.1 199.701 358.4C199.701 358.7 200.001 358.6 200.101 358.6C200.201 358.6 200.401 358.6 200.501 358.8C200.801 359.6 201.401 359.4 201.901 359.6C202.401 359.8 202.901 360.1 203.401 360.1C203.701 360.1 204.101 359.9 204.401 360.1C204.501 360.1 204.701 359.9 204.701 360.5C204.701 360.7 204.901 360.3 205.001 360.3C205.201 360.3 205.401 360.4 205.601 360.5C205.901 360.5 206.201 360.7 206.501 360.7C206.701 360.7 206.901 360.5 207.101 360.5C207.301 360.5 207.501 360.5 207.701 360.6C207.901 360.7 208.101 361 208.301 361.1C208.501 361.2 208.901 361.1 209.001 361.3C209.301 361.9 209.801 361.7 210.301 361.9C210.701 362 211.201 362.2 211.601 362.1C211.901 362.1 212.001 362.6 212.301 362.7C212.401 362.7 212.301 364.2 212.201 364.7V364.9C211.901 365.3 211.501 366 211.201 365.9C210.801 365.8 210.301 365.7 209.901 365.6L209.401 365.5Z" fill="white"/>
<path d="M207.099 384.3C206.699 384.3 206.299 384.4 205.899 384.5C205.799 384.5 205.599 384.3 205.499 384.9C205.499 385.2 205.199 384.6 205.099 384.6C204.799 384.7 204.399 384.6 203.999 384.8C203.699 384.9 203.299 385.2 202.999 385.3C202.699 385.4 202.299 385.2 201.999 385.5C201.699 385.8 201.399 385.4 201.099 385.5C200.799 385.7 200.499 385.8 200.199 385.5C199.999 385.4 199.699 385.2 199.499 385.3C199.399 385.3 199.299 385.7 199.099 385.7C198.999 385.7 198.799 385.4 198.699 386.1C198.699 386.1 198.699 386.1 198.599 386C198.399 385.6 198.199 385.7 198.099 386C198.099 386.3 197.899 386.3 197.799 386.3C197.499 386.3 197.199 386.4 196.899 386.4C196.699 386.4 196.399 386.2 196.199 386.1C195.999 386.1 195.699 386.4 195.499 386.1C195.299 385.8 194.999 385.9 194.799 385.9C194.699 385.9 194.499 385.6 194.499 386.3C194.099 385.5 193.799 386.6 193.499 386.4C193.099 386.2 192.799 386.4 192.399 386.4C192.399 386.4 192.199 386.2 192.099 386.7C192.099 386.9 191.999 386.9 191.899 386.7C191.599 386.1 191.299 386.5 190.999 386.4C190.699 386.4 190.399 386.6 189.999 386.1C189.899 385.9 189.699 385.8 189.499 386.4C189.499 386.7 189.299 386.4 189.199 386.4C189.199 386.4 188.999 386.7 188.899 386.7C188.899 386.7 188.699 386.5 188.599 386.4C188.199 387.1 187.699 386.2 187.199 386.4C186.699 386.6 186.299 386.5 185.799 386.4C185.499 386.4 185.299 386.2 185.099 385C185.099 384.5 184.999 383.9 185.099 383.6C185.099 383.4 185.299 383.1 185.299 383.1C185.399 383 185.599 382.9 185.699 382.8C185.999 382.6 186.299 382.1 186.599 382.3C186.599 382.3 186.799 382.1 186.899 382.6C187.299 381.8 187.699 382.3 188.099 382.2C188.399 382.2 188.699 381.5 189.099 381.7C189.299 381.1 189.499 381.2 189.699 381.3C190.399 381.9 191.099 381.4 191.799 381.5C192.499 381.5 193.199 381.4 193.899 381.4C193.999 381.4 194.099 381 194.299 381.3C194.499 381.5 194.599 381.3 194.799 381.3C194.899 381.3 195.099 381.1 195.199 381.3C195.799 381.9 196.299 381.4 196.899 381.5C197.499 381.5 197.999 381.5 198.499 381.3C198.799 381.2 199.099 380.8 199.499 380.9C199.599 380.9 199.799 380.6 199.999 381.1C199.999 381.3 200.099 380.8 200.199 380.8C200.399 380.8 200.699 380.8 200.899 380.7C201.199 380.7 201.499 380.7 201.799 380.5C201.999 380.5 202.099 380.2 202.299 380.1C202.499 380.1 202.699 380 202.899 380.1C203.199 380.1 203.499 380.3 203.699 380.3C203.999 380.3 204.199 380 204.499 380.3C205.099 380.7 205.499 380.3 205.999 380.3C206.499 380.3 206.999 380.3 207.399 380C207.599 379.9 207.999 380.3 208.199 380.3C208.299 380.3 208.799 381.7 208.799 382.2V382.4C208.599 382.9 208.499 383.7 208.199 383.7C207.699 383.7 207.299 383.8 206.899 383.9L207.099 384.3Z" fill="white"/>
<path d="M214.901 403.502C214.701 403.702 214.401 403.902 214.201 404.202C214.201 404.202 213.901 404.202 214.201 404.702C214.301 404.902 213.801 404.502 213.801 404.702C213.601 405.002 213.301 405.102 213.201 405.302C213.001 405.502 213.001 405.902 212.801 406.102C212.601 406.302 212.201 406.302 212.201 406.702C212.201 407.102 211.701 406.802 211.601 407.102C211.601 407.402 211.401 407.602 211.001 407.602C210.801 407.602 210.501 407.602 210.401 407.702C210.401 407.802 210.501 408.102 210.401 408.202C210.401 408.202 210.001 408.202 210.401 408.702C210.401 408.702 210.401 408.702 210.201 408.702C209.801 408.502 209.701 408.602 209.901 408.902C210.001 409.202 209.901 409.202 209.901 409.302C209.701 409.502 209.601 409.702 209.301 409.802C209.101 409.802 208.801 409.802 208.701 409.902C208.501 409.902 208.601 410.302 208.201 410.202C207.901 410.102 207.701 410.202 207.601 410.302C207.601 410.302 207.201 410.302 207.601 410.802C206.801 410.402 207.401 411.402 207.001 411.402C206.601 411.402 206.501 411.802 206.301 412.002C206.301 412.002 206.101 412.002 206.301 412.402C206.301 412.502 206.301 412.602 206.301 412.502C205.701 412.202 205.801 412.602 205.601 412.702C205.301 412.702 205.401 413.202 204.901 413.002C204.701 413.002 204.501 413.002 204.901 413.402C205.101 413.602 204.801 413.502 204.801 413.602C204.801 413.602 205.001 413.902 204.901 414.002C204.901 414.002 204.701 414.002 204.501 413.902C204.801 414.502 204.001 414.202 204.001 414.502C204.001 414.802 203.901 415.002 203.701 415.102C203.701 415.102 203.401 415.202 202.301 415.102C201.801 415.102 201.201 414.902 200.901 414.702C200.701 414.602 200.501 414.402 200.501 414.302C200.501 414.102 200.401 413.902 200.301 413.802C200.301 413.402 199.901 412.902 200.301 412.702C200.401 412.702 200.301 412.402 200.701 412.602C200.301 411.802 201.001 411.702 201.201 411.402C201.401 411.102 201.201 410.402 201.601 410.402C201.301 409.802 201.601 409.702 201.801 409.702C202.701 409.702 202.901 409.002 203.401 408.702C203.901 408.402 204.301 407.902 204.801 407.502C204.801 407.502 204.801 407.102 205.001 407.202C205.301 407.302 205.201 407.102 205.301 407.002C205.301 407.002 205.301 406.702 205.601 406.802C206.401 407.002 206.501 406.402 206.901 406.102C207.301 405.802 207.701 405.602 207.901 405.202C208.001 404.902 208.001 404.502 208.301 404.402C208.401 404.402 208.301 404.002 208.801 404.402C208.901 404.502 208.801 404.102 208.801 404.002C208.901 403.802 209.101 403.702 209.201 403.602C209.401 403.402 209.601 403.302 209.801 403.102C209.801 403.002 209.801 402.702 209.901 402.502C209.901 402.302 210.101 402.202 210.301 402.202C210.501 402.202 210.801 402.202 211.001 402.002C211.201 401.902 211.201 401.502 211.501 401.602C212.101 401.702 212.301 401.302 212.601 401.002C212.901 400.802 213.301 400.502 213.501 400.202C213.601 400.002 214.101 400.202 214.301 400.102C214.301 400.102 215.401 401.102 215.701 401.502L215.801 401.702C215.901 402.202 216.301 402.902 216.101 403.002C215.801 403.202 215.501 403.502 215.301 403.702L214.901 403.502Z" fill="white"/>
<path d="M422.9 275.5C422.7 275.5 422.5 275.5 422.4 275.6C422.4 275.6 422.2 275.4 422.3 275.9C422.3 276.2 422.1 275.6 422.1 275.6C422 275.7 421.8 275.6 421.6 275.8C421.5 275.9 421.4 276.2 421.2 276.3C421.1 276.4 420.8 276.2 420.7 276.5C420.7 276.8 420.4 276.4 420.3 276.5C420.2 276.7 420.1 276.8 419.9 276.5C419.8 276.4 419.6 276.2 419.5 276.3V276.7C419.5 276.7 419.3 276.5 419.5 277.1C419.5 277.1 419.5 277.1 419.5 277C419.3 276.6 419.3 276.7 419.3 277C419.3 277.3 419.3 277.3 419.3 277.3C419.2 277.3 419 277.4 418.9 277.4C418.8 277.4 418.6 277.2 418.5 277.2C418.4 277.2 418.3 277.5 418.2 277.2C418 276.9 417.9 277 417.8 277C417.8 277 417.6 276.8 417.8 277.4C417.4 276.7 417.6 277.7 417.4 277.6C417.2 277.4 417.1 277.6 416.9 277.7C416.9 277.7 416.8 277.6 416.9 278C416.9 278.2 416.9 278.2 416.9 278C416.6 277.4 416.6 277.8 416.4 277.8C416.2 277.8 416.2 278.1 415.9 277.6C415.8 277.4 415.7 277.3 415.8 277.9C415.8 278.2 415.7 277.9 415.7 278C415.7 278 415.7 278.3 415.7 278.4C415.7 278.4 415.6 278.2 415.5 278.1C415.5 278.8 415 278.1 414.9 278.3C414.8 278.5 414.5 278.5 414.3 278.5C414.2 278.5 414 278.4 413.5 277.3C413.3 276.8 413.1 276.3 413 276C413 275.8 413 275.5 413 275.5C413 275.4 413 275.2 413 275.1C413 274.9 413 274.3 413.3 274.5C413.3 274.5 413.3 274.3 413.5 274.7C413.5 273.9 413.8 274.3 414 274.2C414.1 274.1 414.1 273.4 414.4 273.6C414.3 273 414.4 273 414.6 273.2C415.1 273.7 415.3 273.2 415.7 273.2C416.1 273.2 416.4 273 416.7 272.9C416.7 272.9 416.7 272.5 416.9 272.8C417 273 417.1 272.8 417.1 272.8C417.1 272.8 417.1 272.6 417.3 272.8C417.7 273.4 417.9 272.8 418.2 272.8C418.5 272.8 418.8 272.8 419 272.5C419.1 272.4 419.2 272 419.4 272.1C419.4 272.1 419.4 271.8 419.7 272.3C419.7 272.5 419.7 272 419.7 272C419.7 272 419.9 272 420 271.9C420.2 271.9 420.3 271.9 420.5 271.8C420.5 271.8 420.6 271.5 420.7 271.4C420.7 271.4 420.9 271.3 421 271.4C421.1 271.4 421.3 271.6 421.5 271.6C421.6 271.6 421.7 271.3 421.9 271.6C422.3 272 422.4 271.7 422.7 271.7C422.9 271.7 423.2 271.7 423.4 271.5C423.5 271.5 423.7 271.9 423.9 271.8C423.9 271.8 424.4 273.2 424.5 273.7V273.9C424.5 274.4 424.5 275.1 424.4 275.1C424.2 275.1 424 275.1 423.8 275.2L422.9 275.5Z" fill="white"/>
<path d="M422 291.9C421.8 291.9 421.7 291.9 421.5 291.9C421.5 291.9 421.4 291.7 421.3 292.2C421.3 292.5 421.3 291.8 421.2 291.9C421.1 291.9 420.9 291.9 420.8 291.9C420.7 291.9 420.5 292.2 420.4 292.2C420.3 292.2 420.1 292 420 292.2C419.9 292.5 419.8 292 419.7 292.1C419.6 292.2 419.5 292.3 419.3 292.1C419.3 291.9 419.1 291.7 419 291.8C419 291.8 419 292.2 418.8 292.2C418.8 292.2 418.7 291.9 418.6 292.5C418.6 292.5 418.6 292.5 418.6 292.4C418.6 292 418.5 292 418.4 292.3C418.4 292.6 418.4 292.5 418.3 292.6C418.2 292.6 418.1 292.6 417.9 292.6C417.9 292.6 417.7 292.3 417.6 292.3C417.6 292.3 417.4 292.5 417.3 292.3C417.3 292 417.1 292 417 292C417 292 416.9 291.7 416.9 292.3C416.8 291.5 416.6 292.6 416.5 292.3C416.4 292.1 416.2 292.3 416.1 292.3C416.1 292.3 416.1 292.1 416 292.6C416 292.8 416 292.8 416 292.6C415.9 292 415.8 292.4 415.7 292.3C415.6 292.2 415.5 292.5 415.3 292C415.3 291.8 415.2 291.7 415.1 292.3C415.1 292.6 415.1 292.3 415 292.3C415 292.3 415 292.6 414.9 292.6C414.9 292.6 414.9 292.4 414.9 292.3C414.7 293 414.5 292.1 414.4 292.3C414.2 292.5 414 292.4 413.8 292.3C413.7 292.3 413.6 292.1 413.5 290.9C413.5 290.4 413.5 289.8 413.5 289.5C413.5 289.3 413.5 289 413.6 289C413.6 289 413.7 288.8 413.8 288.7C413.9 288.5 414 288 414.2 288.3C414.2 288.3 414.2 288.1 414.3 288.6C414.5 287.8 414.6 288.3 414.8 288.3C414.9 288.3 415.1 287.6 415.2 287.9C415.2 287.3 415.4 287.4 415.4 287.6C415.7 288.3 416 287.8 416.2 287.9C416.5 287.9 416.8 287.9 417.1 287.9C417.1 287.9 417.1 287.5 417.2 287.9C417.2 288.2 417.3 287.9 417.4 287.9C417.4 287.9 417.5 287.8 417.6 287.9C417.8 288.6 418 288.2 418.3 288.2C418.5 288.2 418.7 288.3 419 288.2C419.1 288.1 419.3 287.8 419.4 287.9C419.4 287.9 419.5 287.6 419.6 288.2C419.6 288.4 419.6 287.9 419.7 287.9C419.7 287.9 419.9 287.9 420 287.9C420.1 287.9 420.3 287.9 420.4 287.9L420.6 287.6H420.8C420.9 287.6 421 287.9 421.1 287.9C421.2 287.9 421.3 287.7 421.4 287.9C421.6 288.4 421.8 288.1 422 288.2C422.2 288.2 422.4 288.2 422.6 288.2C422.7 288.2 422.8 288.6 422.9 288.6C422.9 288.6 423 290.1 423 290.6V290.8C423 291.3 422.8 292 422.7 291.9C422.5 291.9 422.3 291.9 422.2 291.9H422Z" fill="white"/>
<path d="M420 310.402C420 310.402 420 310.402 419.9 310.402C419.9 310.402 419.9 310.202 419.7 310.602C419.6 310.802 419.8 310.302 419.8 310.302C419.7 310.302 419.6 310.202 419.5 310.302C419.4 310.302 419.2 310.502 419.1 310.502C419 310.502 419 310.202 418.7 310.502C418.5 310.702 418.6 310.202 418.4 310.302C418.2 310.302 418.1 310.402 418.1 310.202C418.1 310.002 418.1 309.802 417.9 309.802C417.9 309.802 417.7 310.102 417.6 310.102C417.6 310.102 417.6 309.802 417.3 310.402C417.3 310.402 417.3 310.402 417.3 310.202C417.3 309.802 417.3 309.802 417.2 310.002C417.1 310.202 417 310.202 417 310.202C416.9 310.202 416.7 310.202 416.7 310.102C416.7 310.102 416.7 309.802 416.6 309.702C416.6 309.702 416.3 309.802 416.4 309.502C416.4 309.202 416.4 309.202 416.2 309.102C416.2 309.102 416.2 308.802 415.9 309.402C416 308.602 415.6 309.602 415.5 309.402C415.5 309.202 415.2 309.202 415.1 309.202C415.1 309.202 415.1 309.002 414.9 309.402C414.8 309.602 414.9 309.502 414.9 309.402C415 308.802 414.8 309.102 414.7 309.002C414.7 308.802 414.4 309.002 414.4 308.602C414.4 308.402 414.4 308.302 414.1 308.802C414 309.002 414.1 308.802 413.9 308.802L413.7 309.102C413.7 309.102 413.7 308.902 413.7 308.702C413.3 309.302 413.4 308.402 413.2 308.502C413 308.602 412.8 308.502 412.7 308.302C412.7 308.302 412.6 308.002 412.9 306.902C413 306.402 413.2 305.902 413.4 305.602C413.5 305.402 413.6 305.202 413.7 305.102C413.7 305.102 413.9 304.902 414 304.802C414.2 304.702 414.5 304.202 414.5 304.502C414.5 304.502 414.7 304.302 414.5 304.802C414.9 304.102 414.9 304.702 415.1 304.702C415.3 304.702 415.6 304.102 415.6 304.502C415.9 303.902 415.9 304.102 415.9 304.302C415.9 305.002 416.4 304.702 416.6 304.902C416.8 305.102 417.2 305.102 417.4 305.202C417.4 305.202 417.6 304.902 417.6 305.202C417.6 305.502 417.7 305.202 417.8 305.302H418C418 306.002 418.3 305.702 418.5 305.802C418.7 305.902 418.9 306.102 419.2 306.002C419.4 306.002 419.6 305.702 419.7 305.802C419.7 305.802 419.9 305.602 419.7 306.202C419.7 306.402 419.9 306.002 419.9 305.902C420 305.902 420.1 305.902 420.2 305.902C420.3 305.902 420.4 306.002 420.6 306.002C420.7 306.002 420.9 305.802 421 305.802C421.1 305.802 421.2 305.802 421.3 305.902C421.4 306.002 421.5 306.302 421.6 306.402C421.7 306.502 422 306.402 422 306.702C422 307.302 422.4 307.202 422.6 307.502C422.8 307.802 423 308.002 423.4 308.302C423.6 308.502 423.3 308.902 423.4 309.002C423.4 309.102 422.1 309.702 421.6 309.902H421.4C421 309.902 420.3 310.402 420.4 310.302L420 310.402Z" fill="white"/>
<path d="M305.001 375.301C303.201 374.601 301.501 373.601 299.801 372.401C299.201 372.001 298.801 371.301 297.801 371.201C297.301 371.201 297.201 370.201 296.801 369.701C295.501 368.401 294.501 366.701 293.601 365.101C292.701 363.501 291.901 361.801 291.501 360.001C291.101 358.201 291.301 356.201 291.201 354.401C291.201 353.601 291.401 352.801 291.601 352.101C291.901 351.401 292.201 350.701 292.501 350.001C292.801 349.201 293.301 348.301 294.001 347.501C294.701 346.701 295.701 346.201 296.701 346.001C298.101 345.701 299.401 345.801 300.501 345.801C301.201 345.801 301.901 345.601 302.701 345.801C303.401 346.001 304.001 346.401 304.801 346.001C304.801 346.001 305.101 346.201 305.201 346.301C305.501 346.601 305.801 346.801 306.401 347.001C307.001 347.301 307.601 347.501 308.001 347.801C309.001 348.301 309.401 349.201 309.601 350.201C309.701 350.801 309.701 351.601 309.601 352.201C309.601 352.701 309.501 353.101 309.401 353.501C309.201 354.301 308.901 355.101 308.601 355.901C308.101 357.101 307.301 358.001 306.501 359.001C305.701 360.001 305.001 361.201 303.801 361.701C302.701 362.201 301.801 362.801 300.701 363.301C300.101 363.601 299.301 363.601 299.001 364.301C299.001 364.301 298.701 364.401 298.601 364.401C297.601 364.301 296.701 364.501 295.801 364.701C294.901 364.901 293.901 365.201 293.001 365.001C291.101 364.601 289.101 364.201 287.301 363.301C286.801 363.101 286.401 362.601 285.801 362.701C285.601 362.701 285.101 362.401 284.901 362.201C284.101 360.801 282.801 360.101 281.901 358.801C281.001 357.401 279.801 356.201 279.601 354.401C279.501 353.701 279.301 352.801 278.401 352.201C278.001 351.901 278.001 351.101 277.801 350.501C277.601 350.001 277.301 349.701 277.101 349.201C277.101 348.801 277.101 348.401 277.201 347.901C277.201 347.801 277.201 347.601 277.201 347.501C276.201 345.301 277.001 342.901 276.801 340.701C276.701 338.401 277.001 336.001 277.801 333.601C278.201 332.301 279.101 331.001 280.501 330.801C281.101 330.801 281.601 331.101 281.601 331.701C281.601 332.101 281.601 332.601 281.601 333.001C281.401 333.601 281.301 334.201 281.201 334.901C281.001 336.201 281.301 337.501 281.001 338.801C280.901 339.201 281.101 339.701 280.601 340.101C280.601 340.101 280.501 340.301 280.601 340.401C281.301 342.301 280.901 344.201 281.101 346.001C281.301 347.601 282.201 348.901 282.401 350.401C283.201 351.001 283.501 351.901 283.701 352.701C284.001 354.101 284.801 355.401 285.701 356.501C286.701 357.601 287.801 358.401 289.001 359.101C291.401 360.601 294.301 360.801 297.001 360.201C297.501 360.101 297.701 359.601 298.301 359.701C298.901 359.701 299.401 359.301 299.901 358.901C300.401 358.601 300.701 358.201 301.201 357.901C302.201 357.401 303.001 356.601 303.601 355.601C304.201 354.601 304.501 353.501 304.801 352.501C304.801 352.201 304.901 352.001 305.001 351.701V351.501C305.001 351.501 305.001 351.401 305.001 351.301C305.001 351.101 304.901 350.901 304.701 350.701C304.601 350.701 304.501 350.701 304.401 350.501C304.201 350.501 303.901 350.301 303.601 350.301C303.001 350.101 302.401 350.001 301.801 349.901C300.401 349.701 299.001 349.901 298.101 350.101C297.701 350.101 297.601 350.601 296.901 350.401C296.701 350.401 296.801 350.901 296.601 351.201C296.301 351.801 295.901 352.701 295.701 353.601C295.401 354.801 295.201 356.101 295.401 357.401C295.501 358.201 295.801 358.901 296.101 359.701C296.301 360.501 296.601 361.301 296.801 362.101C297.101 363.101 297.501 364.101 298.001 365.101C298.601 366.101 299.501 366.801 300.101 367.701C301.201 369.501 303.101 370.501 305.001 371.401C306.801 372.301 308.901 373.001 310.901 373.301C312.101 373.401 313.101 374.101 314.301 374.101C314.801 374.101 315.601 375.601 315.301 376.101C315.301 376.101 315.201 376.301 315.101 376.301C313.801 376.701 312.601 377.401 311.101 377.101C308.901 376.701 306.801 376.201 304.701 375.301H305.001Z" fill="#FE5102"/>
<path d="M376.7 155.9C376.5 155.8 376.4 155.6 376.2 155.5C376.2 155.5 376.2 155.2 375.8 155.6C375.6 155.8 375.9 155.2 375.8 155.2C375.6 155.2 375.5 155 375.3 154.9C375.1 154.9 374.8 154.9 374.6 154.9C374.4 154.9 374.4 154.5 374.1 154.7C373.8 154.9 374 154.4 373.8 154.4C373.6 154.4 373.4 154.4 373.4 154.1C373.4 153.9 373.4 153.6 373.2 153.7C373.2 153.7 372.9 154 372.8 153.9C372.8 153.9 372.8 153.6 372.5 154.1C372.5 154.1 372.5 154.1 372.5 153.9C372.6 153.5 372.5 153.5 372.4 153.7C372.2 153.9 372.2 153.9 372.2 153.9C372.1 153.9 372 153.9 371.9 153.8C371.9 153.8 371.9 153.5 371.9 153.4C371.9 153.4 371.8 153.6 371.7 153.3C371.7 153 371.7 153 371.5 153C371.5 153 371.5 152.7 371.4 153.3C371.3 152.5 371.2 153.6 371.1 153.3C371 153.1 370.9 153.3 370.7 153.3C370.7 153.3 370.6 153.2 370.7 153.6C370.7 153.8 370.7 153.8 370.7 153.6C370.4 153 370.4 153.4 370.3 153.4C370.1 153.4 370.1 153.7 369.8 153.3C369.7 153.1 369.5 153.1 369.8 153.6C369.8 153.9 369.8 153.6 369.7 153.7C369.7 153.7 369.7 154 369.7 154.1C369.7 154.1 369.5 153.9 369.4 153.9C369.5 154.6 368.9 153.9 368.8 154.2C368.7 154.5 368.5 154.6 368.2 154.6C368.1 154.6 367.8 154.6 367.1 153.7C366.8 153.3 366.4 152.9 366.3 152.5C366.3 152.3 366.1 152.1 366.1 152C366.1 151.9 366.1 151.7 366.1 151.6C366.1 151.3 366 150.8 366.3 150.9C366.3 150.9 366.3 150.6 366.6 151C366.4 150.2 366.9 150.5 367.1 150.3C367.3 150.1 367.1 149.5 367.5 149.6C367.3 149 367.5 149 367.8 149.1C368.5 149.5 368.8 148.9 369.4 148.8C370 148.8 370.5 148.5 371.2 148.6C371.3 148.6 371.4 148.2 371.5 148.6C371.6 148.9 371.8 148.6 371.9 148.6C372 148.6 372.2 148.5 372.3 148.6C372.7 149.3 373.2 149.1 373.6 149.3C374 149.5 374.3 149.8 374.7 149.8C374.9 149.8 375.3 149.6 375.4 149.8C375.4 149.8 375.7 149.6 375.4 150.2C375.4 150.4 375.6 150 375.7 150C375.9 150 376 150.1 376.1 150.2C376.3 150.3 376.4 150.4 376.6 150.5C376.7 150.5 377 150.4 377.1 150.5C377.2 150.5 377.4 150.5 377.4 150.7C377.4 150.9 377.5 151.1 377.6 151.3C377.7 151.4 378 151.3 378 151.6C378 152.2 378.3 152.1 378.6 152.4C378.8 152.6 379 152.8 379.3 152.9C379.5 152.9 379.3 153.4 379.4 153.5C379.4 153.5 378.6 154.8 378.3 155.1C378.3 155.1 378.2 155.2 378.1 155.3C377.7 155.6 377.1 156.1 377 155.9C376.9 155.7 376.6 155.6 376.4 155.4L376.7 155.9Z" fill="#FE5102"/>
</svg>
