<svg width="600" height="600" viewBox="0 0 600 600" fill="none" xmlns="http://www.w3.org/2000/svg">
<path d="M281.9 210.898L407.3 240.998C407.3 240.998 371.5 240.998 351.4 265.698C331.3 290.298 326.6 306.898 326.6 306.898L350.6 306.698L351.6 323.198V335.198L357.6 337.198C357.6 337.198 356.6 352.398 363.7 357.198C370.8 361.998 376.2 366.098 377.4 374.898C378.6 383.698 379 390.698 379 390.698L281.8 413.998V240.398" fill="#FE5102"/>
<path d="M283.6 298.097C283.6 308.397 283.6 318.697 283.6 328.897C283.6 332.697 283.4 336.597 283.9 340.597C284.2 342.597 283.6 346.297 283.6 349.797C283.6 359.397 283.6 368.997 283.6 378.597C283.7 387.897 283.8 397.197 283.9 406.497C283.9 407.697 283.9 408.997 283.9 410.297V411.097V411.397H284.3L284.4 411.297H285C285 411.197 286.2 410.897 286.2 410.897C287.9 410.497 289.5 410.097 291.1 409.697C294.4 408.897 297.6 408.097 300.7 407.197C308.1 405.097 315 403.997 322.2 402.197C329.8 400.297 337.6 398.297 345.1 396.697C350.6 395.597 356 394.497 361.4 393.097C364.8 392.197 367.8 391.197 371.5 390.297C373.1 389.897 374.7 389.597 376.4 389.197H376.6V388.997C376.6 388.497 376.4 388.097 376.3 387.697C376.3 387.497 376.2 385.897 376.3 385.097C376.3 383.197 376.2 381.097 375.9 379.097C375.7 377.097 375.3 375.097 374.9 373.797C374 371.197 373 369.097 371.5 367.097C369.3 364.397 366.3 362.197 363.1 359.997L362.5 359.597C362.3 359.497 362 359.197 361.8 358.997C361.3 358.597 360.8 358.197 360.4 357.697C360 357.197 359.6 356.797 359.3 356.297C359 355.797 358.6 355.297 358.4 354.797C357.3 352.797 356.7 350.697 356.2 348.597C355.8 346.697 355.6 344.797 355.5 342.897C355.4 341.197 355.5 338.397 355.5 338.897C355.5 338.897 355.5 338.897 355.4 338.897H355C355 338.797 354.2 338.497 354.2 338.497C352.7 337.997 351.2 337.497 349.7 336.997C349.7 336.697 349.7 336.397 349.7 336.097C349.7 334.197 349.7 332.297 349.7 330.297C349.7 328.697 349.7 327.197 349.7 325.597C349.7 324.797 349.7 324.097 349.7 323.297C349.7 322.497 349.7 321.797 349.6 320.997C349.6 319.497 349.5 317.997 349.5 316.597C349.5 314.997 349.5 313.397 349.5 311.797C349.5 310.997 349.5 310.197 349.5 309.397V308.697H349H347.7C346.5 308.697 345.3 308.697 344.1 308.697C340.9 308.697 337.2 308.497 334.6 309.097C334.4 309.097 333.2 309.097 332.6 309.097H330.9C330.9 308.997 328 308.897 328 308.897C327 308.897 326.2 308.797 325.3 308.797H325H324.8L325 308.097L325.4 306.797C325.7 305.897 326 304.997 326.3 304.097C326.4 303.697 326.7 303.097 326.8 302.797L327.1 301.997C327.5 300.897 328 299.897 328.4 298.797C330.2 294.597 332.2 290.397 334.7 286.497C337.3 282.497 339.9 278.397 342.8 274.497C344.2 272.497 345.7 270.597 347.1 268.597C348.6 266.697 350 264.797 351.7 262.897C352.6 261.897 353.6 260.997 354.5 259.997C355.5 259.097 356.4 258.097 357.2 257.197C357.5 256.897 358.1 256.197 358.9 255.597C359.7 254.997 360.5 254.397 361.1 253.997C367.4 250.097 374.1 246.397 381.2 244.097C389.3 241.497 397.6 239.497 406.2 239.497C406.7 239.497 407.3 239.497 407.9 239.497L407.5 242.997C404.4 242.097 400.4 241.097 396.8 240.797C394.8 240.597 391 239.397 388 238.697C385.6 238.197 383.1 237.797 380.7 237.297C378.7 236.797 376.7 236.097 374.6 235.497C374 235.297 373.2 235.097 372.6 234.997C360.7 232.797 349.2 229.197 337.3 226.497C325.3 223.797 313.3 220.797 301.3 217.897C294.7 216.297 287.9 214.497 283.7 212.297C281.8 211.297 281.9 210.797 284.8 211.197C286.9 211.497 289.3 211.797 291.7 212.297C295.5 213.097 299.3 213.897 303 214.697C310.7 216.397 318.4 217.697 326.2 219.797C328.6 220.497 331.6 220.897 333.5 221.797C333.8 221.897 334.8 222.197 335.3 222.297C346 224.097 356.8 227.197 367.6 229.697C376.7 231.797 385.7 233.397 394.8 235.797C399.2 236.297 404.1 237.497 408.5 238.697L407.9 243.597C407.1 243.597 406.3 243.597 405.5 243.597C396.5 243.897 387.4 245.797 379 249.197C370.6 252.597 362.8 257.397 356.6 263.797L355.4 264.997L354.3 266.297C353.5 267.097 352.8 268.097 352.1 268.997L349.9 271.697L347.8 274.497C345 278.197 342.3 282.097 339.9 285.997C337.4 289.897 335.1 293.997 333.1 298.097C332.6 299.097 332.1 300.197 331.6 301.197L330.9 302.797C330.8 303.097 330.7 303.297 330.6 303.597L330.3 304.297C330.3 304.497 330.1 304.697 330.1 304.897H330.7C331.1 304.897 331.4 304.897 331.8 304.897C332.2 304.897 332.6 304.897 333 304.897C333.8 304.897 334.5 304.897 335.3 304.797C336.9 304.797 338.5 304.797 340.4 304.797C342 304.797 343.7 304.897 345.6 304.797C348.1 304.797 350.7 304.797 353.2 304.697C353.2 305.597 353.3 306.497 353.4 307.297C353.5 309.397 353.7 311.697 353.8 313.797C353.9 315.697 354 317.597 354.1 319.397V323.397V327.397C354.1 329.597 354.1 331.897 354.1 334.097L360.2 336.097V338.397C360.1 338.397 360.1 339.397 360.1 339.397C360.1 339.597 360.1 339.797 360.1 340.097C360.1 340.997 360.1 341.897 360.2 342.797C360.3 344.597 360.6 346.297 361 347.997C361.4 349.697 362 351.297 362.7 352.797C363.1 353.497 363.5 354.197 364.1 354.697C364.2 354.797 364.3 354.997 364.5 355.097L364.9 355.497C365.2 355.697 365.4 355.997 365.9 356.197C368.9 358.297 372.1 360.497 374.7 363.497C376 364.997 377.2 366.697 378 368.497C378.9 370.297 379.4 372.297 379.7 374.197C380.3 377.897 380.7 381.597 381 385.297L381.3 388.097L381.5 390.097V391.297L381.6 391.897V392.197V392.297H381.5C379.3 392.897 377 393.397 374.8 393.997C366.1 396.197 357.5 398.597 348.7 400.597C344.9 401.397 341.1 402.697 337.2 402.997C336.1 402.997 332.7 404.397 330.3 404.897C324.3 406.397 318.3 407.797 312.3 409.197C304 411.197 295.6 413.197 287.3 415.197C285 415.797 282.7 416.297 280.4 416.897V411.697L280.3 408.497C280.3 406.597 280.3 404.697 280.2 402.897C280.2 397.397 280.2 391.897 280.2 386.497C280.3 379.597 280.4 372.697 280.5 365.797C280.5 358.597 280.3 351.097 280.5 344.297C281 331.497 280.7 318.797 280.8 305.997C280.8 293.297 280.8 280.597 280.8 267.997C280.8 260.797 281.2 254.297 281.2 247.297C281.2 243.997 282.6 239.597 283.1 240.997C283.1 241.297 283.3 241.797 283.3 242.297C283.7 249.197 284.4 255.497 284.4 263.397C284.4 274.997 284.4 286.697 284.4 298.297L283.6 298.097Z" fill="#FE5102"/>
<path d="M278.1 352.998C278.1 342.098 278.1 331.198 278.1 320.298C278.1 316.198 278.6 312.098 277.5 307.898C277 305.798 278.2 301.898 278.2 298.098C278.1 287.898 278.2 277.698 278.2 267.598C278.1 257.698 277.6 247.798 277.5 237.898C277.5 233.398 277.5 228.898 277.5 224.398C277.5 222.098 277.5 219.898 277.5 217.698V215.998V215.598C277.5 215.498 277.5 215.598 277.5 215.498C277.5 215.198 277.5 214.998 277.4 214.898C277.2 214.898 277.1 214.898 276.9 214.898H276.7C276.7 214.898 276.7 214.898 276.6 214.898H276.4L275.7 214.798C274.7 214.598 273.7 214.498 272.8 214.298C270.9 213.898 269 213.498 267.1 213.098C263.3 212.298 259.6 211.398 255.8 210.798C247.6 209.498 239.1 208.098 231.2 206.198C225.4 204.798 219.7 203.298 213.9 202.398C210.3 201.898 206.8 201.898 202.8 201.098C199.2 200.398 195.1 199.098 191.7 199.698C191.4 199.698 189.8 199.198 189 198.898C185.2 197.398 180.4 196.498 176.9 196.498C173.6 196.498 170.7 195.898 167.7 195.298L158.9 193.698L156.4 193.298V194.098C156.4 200.398 155.8 206.598 155.7 212.798C155.6 219.298 156.1 226.298 155.5 232.298C154.9 238.398 154.9 244.098 154.9 250.098C154.9 253.498 154.3 257.398 155.6 260.198C155.7 260.498 155.7 261.698 155.6 262.298C153.9 271.898 156.1 281.398 155.7 291.098C155.3 301.098 155.6 311.398 155.7 321.598C155.7 324.298 155.3 327.198 156.3 329.698C156.6 330.598 156.7 333.398 156.4 334.798C155.1 342.298 155.9 350.298 155.7 357.998C155.5 366.798 156 375.598 155.1 384.498C155.1 384.698 155.1 384.898 155.1 385.098V385.398V385.598C155.1 385.798 155.1 385.898 155 386.098C155 386.398 155 386.798 154.9 387.098C155.3 387.098 155.8 387.198 156.2 387.098H156.4C156.4 387.098 156.7 387.098 156.8 387.098H157.8C158.5 387.098 159.1 387.098 159.8 387.098C161.9 386.898 166.1 388.298 169.3 388.698C171.9 389.098 174.5 388.998 177.1 389.498C179.3 389.898 181.4 390.798 183.6 391.398C184.2 391.598 185.1 391.698 185.7 391.798C198.6 392.798 210.8 396.898 223.6 398.898C236.5 400.898 249.4 403.398 262.2 405.998C269.3 407.398 276.5 409.098 280.9 412.298C282.9 413.698 282.7 414.798 279.6 414.898C277.3 414.898 274.7 414.898 272.1 414.598C268 414.098 263.9 413.498 260 412.998C251.7 411.898 243.4 411.398 235 409.298C232.4 408.598 229.2 408.698 227.2 407.298C226.9 407.098 225.9 406.798 225.3 406.798C213.7 406.298 202.2 403.098 190.6 401.098C180.8 399.398 171.1 398.898 161.3 396.498C159.5 396.498 157.7 396.498 155.8 396.298H155.1C154.9 396.198 154.7 396.198 154.2 396.098C153.3 395.898 152.3 395.798 151.4 395.598C149.5 395.298 147.7 394.898 145.8 394.598C145.8 392.298 145.8 390.098 145.9 387.898C145.9 387.398 145.9 386.798 145.9 386.298V385.598V385.198C145.9 384.698 145.9 384.098 146 383.598C147.3 363.898 146.4 344.098 146.6 324.398C146.8 304.398 146.6 284.398 146.6 264.398C146.6 260.998 145.9 258.098 146.4 254.098C146.9 250.398 146.5 245.498 146.5 241.098C146.5 236.698 146.2 232.898 146.5 229.098C147.1 222.098 147.3 215.098 147.3 207.998C147.3 199.498 147.3 190.898 147.2 182.398C150 182.898 152.7 183.398 155.5 183.898C163.5 185.398 171.6 186.998 179.6 188.498C187.3 189.898 195 191.298 202.7 192.498C212.1 193.998 221.5 195.098 230.9 197.098C234.9 197.998 239.3 198.098 243 199.998C244.1 200.498 248 200.298 250.6 200.798C257 201.898 263.5 203.098 269.9 204.298C275.4 205.298 280.8 206.298 286.3 207.298C286.3 210.898 286.3 214.498 286.3 218.098V225.198C286.4 230.698 286.9 236.198 287 241.798C287.1 247.598 287.1 253.498 287 259.298C286.8 266.698 286.4 273.998 286.3 281.298C286.2 288.898 286.7 296.898 286.2 304.198C285.2 317.798 285.7 331.298 285.6 344.798C285.5 358.298 285.4 371.698 285.6 385.198C285.7 392.798 284.7 399.798 284.7 407.198C284.7 410.698 281.8 415.398 280.7 413.898C280.5 413.598 280.3 413.098 280.2 412.498C279.3 405.198 277.8 398.498 277.9 390.098C278 377.698 277.9 365.398 277.9 352.998H278.1Z" fill="black"/>
<path d="M361.4 334.701C360 335.201 358.7 335.701 357.3 336.001C357 336.001 356.6 336.201 356.3 336.301L355.2 336.601C354.1 336.801 352.9 337.101 351.8 337.301C351.4 337.301 350.9 337.401 350.5 337.501H349.9C349.9 337.501 349.9 337.201 349.9 337.001C349.9 336.101 349.8 335.401 349.5 334.501C349.4 334.101 349.5 333.301 349.5 332.501V332.201C349.5 332.201 349.5 332.101 349.5 332.001C349.5 331.901 349.5 331.801 349.5 331.701C349.5 331.501 349.5 331.201 349.5 331.001C349.5 328.401 349.5 325.801 349.5 323.301C349.5 320.801 349.2 318.301 349.1 315.801C349.1 314.601 349.1 313.301 349.1 312.001C349.1 311.401 349.1 310.801 349.1 310.101C349.1 309.801 349.1 309.501 349.1 309.301C349.1 309.201 349.1 309.101 349.1 309.001C348.9 309.001 348.9 308.901 348.8 308.801C348.8 308.801 348.4 308.801 347.9 308.801C347.4 308.801 346.9 308.801 346.4 308.801C344.3 309.001 342.1 309.101 340.1 309.001C338.6 308.901 337.1 308.701 335.6 308.901C334.7 308.901 333.8 309.301 332.8 309.401C332.3 309.401 331.8 309.401 331.3 309.401C331.2 309.401 331.1 309.401 330.9 309.401C330.7 309.401 330.5 309.401 330.2 309.401C329.8 309.401 329.3 309.601 328.9 309.801C328.7 309.801 327.9 309.801 327.6 309.701C326.7 309.501 325.8 309.501 324.9 309.501C324.4 309.501 323.9 309.501 323.4 309.501C323.3 309.501 323.1 309.501 323 309.501H322.8C322.8 309.301 322.8 309.201 322.9 309.001C323.2 307.801 323.9 306.401 324.5 305.101L326.6 300.701C327.1 299.701 327.5 298.801 328 297.901C328.8 296.501 329.7 295.201 330.5 293.801C331.3 292.401 331.9 290.601 332.9 289.401C333.9 288.201 334.6 286.901 335.3 285.601C335.7 284.901 336.5 284.101 336.3 283.201C336.3 283.201 336.5 282.801 336.6 282.701C338.6 281.001 338.9 278.401 340.5 276.401C342.1 274.401 343.5 272.101 345.1 270.001C345.5 269.401 346.1 269.001 346.2 268.201C346.2 267.901 346.7 267.301 347 267.101C347.9 266.501 348.5 265.801 349.2 265.001C349.8 264.201 350.5 263.401 351.2 262.701C352.8 261.101 354.3 259.301 356.3 258.101C357.1 257.601 358.2 256.801 358.7 255.601C358.9 255.101 360 254.601 360.6 254.001C361.1 253.501 361.5 252.901 362 252.501C362.5 252.201 363.1 252.001 363.6 251.701C363.8 251.701 363.9 251.501 364.1 251.401C366.5 248.901 369.9 248.001 372.9 246.401C375.9 244.801 379.2 243.601 382.6 242.901C383.5 242.701 384.5 242.501 385.4 242.601C386.3 242.601 387.2 242.801 387.9 243.301C388.5 243.701 388.6 244.301 387.9 244.701C387.4 245.001 386.8 245.401 386.2 245.501C385.2 245.801 384.3 246.201 383.3 246.501C382.3 246.901 381.4 247.301 380.5 247.801C379.6 248.301 378.6 248.601 377.6 248.901C377 249.101 376.4 249.601 375.7 249.401C375.7 249.401 375.3 249.401 375.2 249.501C373 251.401 370.2 252.301 367.8 253.901C365.8 255.301 364.2 257.201 362.2 258.501C361.5 259.801 360.3 260.801 359.2 261.601C355.2 264.401 352.2 268.301 349.2 272.101C346.1 276.001 343.4 280.201 340.9 284.501C340.5 285.201 340.4 286.001 339.7 286.801C339 287.501 338.6 288.601 338.1 289.601C337.6 290.501 337.2 291.501 336.7 292.201C334.3 295.401 332.8 299.101 331 302.601L329.6 305.301C329.9 305.301 330.3 305.301 330.6 305.301H331.1L332.5 305.201C334.9 305.001 337.3 304.601 339.7 304.701C340.7 304.701 341.8 304.301 342.9 304.901C343.2 305.101 344.1 304.601 344.8 304.501C345.6 304.501 346.5 304.501 347.3 304.401H348.6C349 304.401 349.9 304.401 350.6 304.601C351.6 304.901 352.5 305.501 353.1 306.401C353.4 306.801 353.6 307.301 353.7 307.801C353.7 308.101 353.8 308.301 353.9 308.601C353.9 308.901 353.9 309.001 353.9 309.201C353.9 309.601 353.9 309.901 353.9 310.201V311.101V312.801C353.9 314.201 354.2 315.601 354.2 317.001C354.2 318.501 354.2 319.901 354.2 321.401C354.2 323.301 353.9 325.101 353.9 327.001C353.9 328.001 353.9 328.901 353.9 329.901C353.9 330.401 353.9 330.901 353.9 331.301C353.9 331.501 353.9 331.801 353.9 332.001V332.401C353.8 332.601 353.7 332.901 353.6 333.201C353.6 333.301 353.6 333.301 353.6 333.301H353.8C353.9 333.301 354.1 333.301 354.2 333.301H354.4L354.7 333.201L355.9 332.901C356.7 332.701 357.5 332.401 358.3 332.201C361.4 331.201 364.4 329.901 367.1 328.001C368.6 327.001 370.3 326.401 371.7 325.201C372.3 324.701 374.2 325.001 374.3 325.601C374.3 325.701 374.3 325.901 374.2 326.001C373.1 327.601 372.2 329.301 370.3 330.501C367.5 332.301 364.7 333.801 361.6 335.001L361.4 334.701Z" fill="black"/>
<path d="M358.9 292.1C358.9 292 359.1 291.9 359.2 291.7C359.2 291.7 359.5 291.7 359 291.4C358.8 291.2 359.4 291.5 359.4 291.4C359.4 291.2 359.6 291.1 359.6 291C359.6 290.8 359.4 290.6 359.4 290.5C359.4 290.4 359.7 290.3 359.4 290.1C359.2 289.9 359.7 289.9 359.6 289.8C359.5 289.7 359.4 289.6 359.6 289.5C359.8 289.5 360 289.3 359.9 289.3C359.9 289.3 359.5 289.3 359.5 289.2C359.5 289.2 359.8 289.1 359.2 289.1C359.2 289.1 359.2 289.1 359.3 289.1C359.7 289.1 359.7 288.9 359.3 288.9C359 288.9 359.1 288.9 359 288.9C359 288.9 359 288.7 359 288.6C359 288.6 359.2 288.4 359.3 288.3C359.3 288.2 359 288.3 359.3 288C359.5 287.8 359.5 287.7 359.5 287.7C359.5 287.7 359.7 287.5 359.1 287.7C359.8 287.2 358.7 287.7 358.9 287.4C358.9 287.2 358.8 287.1 358.7 287C358.7 287 358.7 286.8 358.4 287C358.2 287 358.3 287 358.4 287C358.8 286.5 358.4 286.7 358.4 286.5C358.4 286.3 358.1 286.5 358.4 286C358.4 285.8 358.4 285.7 358.1 286C357.9 286.2 358.1 286 358 286C358 286 357.8 286.2 357.7 286.2C357.7 286.2 357.7 286 357.8 285.9C357.3 286.4 357.6 285.5 357.4 285.6C357.2 285.6 357 285.6 356.9 285.4C356.9 285.4 356.8 285.1 356.9 284C356.9 283.5 357.1 282.9 357.2 282.6C357.3 282.4 357.4 282.2 357.5 282.1C357.6 282.1 357.8 281.9 357.9 281.9C358.2 281.8 358.6 281.3 358.7 281.7C358.7 281.8 358.9 281.6 358.7 282.1C359.3 281.5 359.4 282.1 359.7 282.2C360 282.2 360.5 281.9 360.6 282.3C361.1 281.9 361.2 282.1 361.2 282.3C361.2 283.2 361.9 283.2 362.2 283.7C362.5 284.2 362.9 284.6 363.1 285.1C363.1 285.1 363.5 285.1 363.3 285.3C363.1 285.5 363.3 285.5 363.4 285.7C363.4 285.8 363.6 285.9 363.5 286C363 286.6 363.5 286.9 363.5 287.4C363.5 287.8 363.5 288.3 363.7 288.7C363.8 289 364.2 289.2 364 289.5C364 289.6 364.3 289.8 363.7 289.8C363.5 289.8 364 290 364 290C364 290.2 364 290.4 364 290.6C364 290.9 363.9 291.1 363.9 291.4C363.9 291.6 364.1 291.8 364.1 291.9C364.1 292.1 364.1 292.2 363.9 292.4C363.8 292.6 363.5 292.7 363.3 292.9C363.2 293.1 363.3 293.4 363 293.4C362.4 293.4 362.4 293.9 362.1 294.2C361.8 294.5 361.6 294.7 361.4 295.1C361.4 295.3 360.8 295.1 360.7 295.1C360.7 295.1 359.6 294.1 359.3 293.7L359.2 293.5C359 293 358.6 292.5 358.7 292.4C358.9 292.4 359 292.1 359.1 292L358.9 292.1Z" fill="black"/>
<path d="M377 286.498C377 286.398 377.2 286.298 377.3 286.098C377.3 286.098 377.6 286.098 377.1 285.798C376.9 285.598 377.5 285.898 377.5 285.798C377.5 285.598 377.7 285.498 377.7 285.398C377.7 285.198 377.5 284.998 377.5 284.898C377.5 284.798 377.8 284.698 377.5 284.498C377.3 284.298 377.8 284.298 377.7 284.198C377.6 284.098 377.5 283.998 377.7 283.898C377.9 283.898 378.1 283.698 378 283.698C378 283.698 377.6 283.698 377.6 283.598C377.6 283.598 377.9 283.498 377.3 283.498C377.3 283.498 377.3 283.498 377.4 283.498C377.8 283.498 377.8 283.298 377.4 283.298C377.1 283.298 377.2 283.298 377.1 283.298C377.1 283.298 377.1 283.098 377.1 282.998C377.1 282.998 377.3 282.798 377.4 282.698C377.4 282.598 377.1 282.698 377.4 282.398C377.6 282.198 377.6 282.098 377.6 282.098C377.6 282.098 377.8 281.898 377.2 282.098C377.9 281.598 376.8 282.098 377 281.798C377 281.598 376.9 281.498 376.8 281.398C376.8 281.398 376.8 281.198 376.5 281.398C376.3 281.398 376.4 281.398 376.5 281.398C376.9 280.898 376.5 281.098 376.5 280.898C376.5 280.698 376.2 280.898 376.5 280.398C376.5 280.198 376.5 280.098 376.2 280.398C376 280.598 376.2 280.398 376.1 280.398C376.1 280.398 375.9 280.598 375.8 280.598C375.8 280.598 375.8 280.398 375.9 280.298C375.4 280.798 375.7 279.898 375.5 279.998C375.3 279.998 375.1 279.998 375 279.798C375 279.798 374.9 279.498 375 278.398C375 277.898 375.2 277.298 375.3 276.998C375.4 276.798 375.5 276.598 375.6 276.498C375.7 276.498 375.9 276.298 376 276.298C376.3 276.198 376.7 275.698 376.8 276.098C376.8 276.198 377 275.998 376.8 276.498C377.4 275.898 377.5 276.498 377.8 276.598C378.1 276.598 378.6 276.298 378.7 276.698C379.2 276.298 379.3 276.498 379.3 276.698C379.3 277.598 380 277.598 380.3 278.098C380.6 278.598 381 278.998 381.2 279.498C381.2 279.498 381.6 279.498 381.4 279.698C381.2 279.898 381.4 279.898 381.5 280.098C381.5 280.198 381.7 280.298 381.6 280.398C381.1 280.998 381.6 281.298 381.6 281.798C381.6 282.198 381.6 282.698 381.8 283.098C381.9 283.398 382.3 283.598 382.1 283.898C382.1 283.998 382.4 284.198 381.8 284.198C381.6 284.198 382.1 284.398 382.1 284.398C382.1 284.598 382.1 284.798 382.1 284.998C382.1 285.298 382 285.498 382 285.798C382 285.998 382.2 286.198 382.2 286.298C382.2 286.498 382.2 286.598 382 286.798C381.9 286.998 381.6 287.098 381.4 287.298C381.3 287.498 381.4 287.798 381.1 287.798C380.5 287.798 380.5 288.298 380.2 288.598C379.9 288.898 379.7 289.098 379.5 289.498C379.5 289.698 378.9 289.498 378.8 289.498C378.8 289.498 377.7 288.498 377.4 288.098L377.3 287.898C377.1 287.398 376.7 286.898 376.8 286.798C377 286.798 377.1 286.498 377.2 286.398L377 286.498Z" fill="black"/>
<path d="M377.1 390.2C377.1 389.2 377.1 388.1 376.9 387.1C376.9 386.7 377.1 386.3 376.5 386C376.2 385.8 376.8 385.4 376.8 385.1C376.7 384.2 376.7 383.2 376.5 382.2C376.3 381.3 376 380.4 375.8 379.5C375.6 378.6 375.8 377.6 375.3 376.8C374.9 376.1 375.3 375.3 375 374.6C374.7 373.9 374.5 373.1 374.6 372.3C374.6 371.7 374.7 371.2 374.5 370.7C374.3 370.4 373.9 370.2 373.9 369.9C373.9 369.6 373.9 369.2 373.3 369.2C373.3 369.2 373.3 369 373.3 368.9C373.5 368.4 373.3 368.1 373 368C372.6 368 372.6 367.8 372.4 367.6C372 367.2 371.7 366.8 371.3 366.5C371 366.2 370.7 365.8 370.2 365.5C369.7 365.2 369 365.1 368.5 364.5C368.1 363.9 367.6 363.6 367 363.2C366.7 363 366.6 362.5 365.9 362.8C365.9 362.8 365.7 362.8 365.7 362.7C365.4 361.4 364 361.5 363.4 360.6C362.8 359.7 362.1 358.9 361.4 358C361.2 357.8 361.2 357.4 360.7 357.4C360.5 357.4 360.3 357.2 360.4 357C360.5 356 359.8 355.5 359.5 354.7C359.2 353.8 358.6 353.1 358.7 352.1C358.7 351.7 358.7 351.2 357.9 351C357.6 351 357.7 350.4 357.5 350.1C357.4 349.9 357 349.7 356.9 349.5C356.9 349.3 356.9 349 356.9 348.8V348.6C355.9 347.6 356.3 346.1 355.8 345C355.5 344.4 355.3 343.8 355.2 343.2C355.2 343 355 342.3 355 341.8C355 341.3 355 340.8 355.2 340.3C355.3 339.8 355.7 339 356.2 338.7C356.7 338.3 357.4 338.4 358 338.8C358.3 339 358.5 339.3 358.7 339.5C358.8 339.7 358.9 339.8 358.8 339.9C358.8 340 358.8 340.2 358.8 340.4C358.8 340.7 358.8 340.8 358.8 341.1C358.8 341.3 359 341.6 359.2 341.7C359.2 341.7 359.2 341.7 359.3 341.7C359.3 341.7 359.3 341.9 359.4 342C359.4 342.2 359.5 342.4 359.4 342.6C359.4 342.9 359.8 343.1 359.4 343.4V343.6C360.5 344.4 360.3 345.6 360.7 346.7C361 347.6 361.9 348.2 362 349.2C362.8 349.4 362.9 350 362.9 350.6C362.9 352.5 364.2 353.9 365.1 355.4C366 356.9 367.2 358.2 368.4 359.3C368.6 359.5 369 359.3 369.1 359.8C369.1 360.2 369.6 360.3 370 360.4C370.3 360.6 370.6 360.6 370.8 360.9C371.2 361.5 371.9 361.9 372.7 362.3C373.4 362.7 374.3 363.2 374.9 363.9C376.2 365.3 377 366.9 377.7 368.4C378.1 369.3 378.7 370.2 378.8 371.2C378.8 371.6 379.3 372 378.8 372.5C378.7 372.6 379.2 372.9 379.2 373.2C379.4 373.8 379.5 374.5 379.6 375.1C379.8 376 379.9 376.9 380.1 377.7C380.2 378.2 380.5 378.7 380.7 379.3C380.8 379.9 380.9 380.4 380.9 381C380.9 381.7 380.8 382.5 380.8 383.2C380.8 383.9 381.2 384.7 380.9 385.4C380.5 386.8 380.9 388.1 380.9 389.4C380.9 390.7 380.9 392 380.9 393.3C380.9 394 380.5 394.7 380.4 395.4C380.4 395.7 378.9 396.2 378.4 396C378.4 396 378.2 396 378.2 395.9C377.7 395.2 377 394.5 377.1 393.8C377.1 392.6 377.1 391.5 377.1 390.3V390.2Z" fill="black"/>
<path d="M432.1 358.498C431.6 355.898 431.3 353.198 431 350.598C431 349.598 431 348.598 430.5 347.598C430.2 347.098 430.8 346.098 430.7 345.198C430.5 342.798 430.7 340.298 430.7 337.898C430.7 335.498 430.5 333.198 430.5 330.798C430.5 328.498 430.9 326.098 430.5 323.798C430.3 321.898 430.8 320.098 430.7 318.298C430.7 316.298 430.6 314.298 430.9 312.398C431.1 310.998 431.4 309.598 431.3 308.198C431.3 307.298 431 306.498 431 305.598C431 304.698 431.3 303.698 430.7 302.898C430.7 302.898 430.7 302.398 430.9 302.198C431.3 301.298 431.3 300.098 431.1 299.298C430.8 298.498 430.9 297.798 430.9 297.098C430.9 295.098 430.9 293.098 431.1 291.198C431.1 289.698 431.5 288.298 431.5 286.798C431.5 285.298 431.3 283.598 431.6 282.198C431.9 280.798 431.9 279.398 431.8 277.998C431.8 277.198 432 276.298 431.4 275.698C431.4 275.698 431.4 275.398 431.4 275.198C432.1 272.898 430.8 270.798 430.7 268.598C430.6 266.298 429.9 263.998 429.3 261.798C429.1 261.198 429.1 260.498 428.5 260.098C428.3 259.998 428.1 259.398 428.1 259.098C428.1 257.298 427 255.798 426.3 254.298C425.4 252.598 424.1 251.198 423.1 249.598C422.7 248.898 421.9 248.098 420.8 247.998C420.3 247.998 419.7 247.298 419 246.998C418.5 246.798 417.9 246.798 417.4 246.498C417 246.298 416.6 245.898 416.2 245.598C416.1 245.598 415.9 245.398 415.8 245.398C412.9 244.998 410.3 243.498 407.4 243.198C404.5 242.898 401.5 242.598 398.6 242.698C397 242.698 395.4 242.698 394 241.898C393.4 241.498 393.3 240.898 394 240.498C394.5 240.198 395.1 239.798 395.7 239.698C396.7 239.498 397.7 239.198 398.7 239.098C400.7 238.798 402.8 238.298 404.9 238.798C405.5 238.998 406.4 238.798 406.8 239.298C406.8 239.298 407.1 239.498 407.3 239.398C410.2 238.998 413 240.198 415.7 241.098C418 241.798 420.6 242.198 422.7 243.898C424.3 244.098 425.6 245.398 426.5 246.598C428.1 248.698 429.5 250.798 430.7 252.998C431.9 255.198 432.9 257.498 433.5 259.898C434.9 264.698 435.7 269.598 436 274.398C436 275.198 436.4 275.898 436.2 276.898C436 277.798 436.2 278.998 436.2 279.998C436.2 280.998 436.3 281.998 436.2 282.898C435.5 286.598 435.8 290.398 435.6 294.098C435.4 297.798 435.3 301.498 435.3 305.198C435.3 307.498 435.6 309.698 435.4 311.998C435.4 312.998 435.6 313.998 435 314.898C434.8 315.198 435.3 316.098 435.3 316.698C435.3 318.298 435.3 319.798 435.2 321.398C435.2 323.598 435 325.698 435 327.898C435 329.198 435.2 330.498 435.2 331.798C435.2 333.198 435.2 334.598 435.2 335.898C435.1 337.598 434.9 339.298 434.8 341.098C434.8 342.898 435 344.698 434.8 346.398C434.4 349.598 435 352.698 435.4 355.798C435.9 358.898 436.6 361.898 437.8 364.698C438.5 366.298 438.7 367.898 439.5 369.398C439.9 370.098 439.2 371.798 438.6 371.798C438.5 371.798 438.3 371.798 438.2 371.598C436.9 370.298 435.5 369.098 434.7 367.198C433.6 364.298 432.7 361.398 432.1 358.398V358.498Z" fill="black"/>
<path d="M269.1 289.502L272.2 296.302C271 296.302 269.6 296.302 268.3 296.302H264.7C261.6 296.102 258.5 296.002 255.5 295.902C254.4 295.902 253.2 295.802 252 295.702H251.6C251.5 295.702 251.3 295.702 251.3 295.702H251.1C251 295.702 250.9 296.002 251 296.102C251 296.102 251 296.102 251 296.202C251 296.202 251 296.202 251 296.402C251 296.702 250.8 297.202 250.6 297.702C250.3 298.602 250 299.702 249.8 300.702C248.8 306.402 247.8 312.002 246.8 317.702C245.8 323.202 244.9 329.002 242.2 334.402C240.9 337.102 239 339.602 236.7 341.602C236.1 342.102 235.5 342.602 234.9 343.002C234.3 343.402 233.7 343.802 233.1 344.202C232 344.902 231.1 345.602 230.7 346.402C229.9 347.702 229.4 349.702 228.9 351.802C228.4 353.902 228 355.902 227.8 358.102C227.6 360.102 227.5 362.102 227.4 364.102C227.4 365.102 227.4 366.102 227.4 367.102C227.4 369.002 227.4 370.802 227.4 372.702C226.2 372.502 225.1 372.302 224 372.102L221.8 371.702L220.6 371.402L218.1 370.902C216.5 370.602 214.8 370.302 213.2 370.102C211.1 369.802 209.2 369.802 206.9 369.502C204.8 369.202 202.5 368.502 200.6 368.802C200.4 368.802 199.5 368.602 199.1 368.402C196.9 367.702 194.2 367.302 192.3 367.202C190.4 367.202 188.8 366.902 187.1 366.602C186.5 366.602 186 366.402 185.3 366.302C184.6 366.202 183.8 366.002 182.9 365.502C182 365.002 181.3 364.402 180.8 363.802C180.3 363.202 179.9 362.602 179.6 362.102C178.3 360.102 177 358.102 175.7 356.202L174.3 354.002L172.8 351.502L172.1 350.402L171.8 349.902C171.8 349.702 171.5 349.602 171.7 349.402L172.9 347.202C173.4 346.402 173.7 345.702 174 344.902C175.4 341.702 176 338.002 176.8 334.802C177.6 331.602 177.8 328.402 177.9 325.102C177.9 323.202 178.2 321.002 177.6 319.502C177.6 319.402 177.6 318.702 177.6 318.302C178.2 312.902 177 307.602 177 302.102C177 296.402 176.7 290.602 176.6 284.802C176.6 283.302 176.7 281.602 176.3 280.202C176.1 279.702 176.1 278.102 176.3 277.302C176.9 273.002 176.6 268.502 177.1 264.002C177.4 261.502 177.7 258.902 178.3 256.302C178.9 253.802 179.8 251.202 181.2 248.902C182.4 246.902 184.1 244.402 185.9 242.102C186.3 241.602 187 240.902 188 240.302C189 239.702 190.1 239.202 191 238.802C192.5 238.102 194 237.402 195.5 237.102C196.8 236.802 198.2 236.802 199.5 236.702C199.9 236.702 200.4 236.702 200.8 236.602C202.7 236.302 204.5 236.102 206.4 236.102C208.3 236.102 210.2 236.202 212.1 236.502C215.9 237.002 219.5 238.002 223.2 239.202C230.5 241.602 237.2 245.802 242.9 250.802C246.1 253.602 248.9 256.802 249.9 259.602C250.4 260.902 249.9 261.202 248.6 260.102C247.6 259.302 246.5 258.402 245.4 257.402C243.7 255.802 242 254.402 240.2 253.002C236.5 250.202 232.5 248.002 228.5 245.602C227.9 245.202 227.1 244.902 226.4 244.602C225.7 244.302 225 244.002 224.6 243.502C224.5 243.402 223.9 243.102 223.6 243.002C217.5 241.402 211.2 239.802 204.7 240.102C202 240.202 199.3 240.702 196.8 241.302C194.3 242.002 191.9 242.902 189.9 244.102C188.1 246.202 186.1 248.602 184.7 251.202C182.3 255.702 181.4 261.102 181.1 266.502C180.9 269.202 180.9 272.002 180.9 274.802C180.9 277.602 180.9 280.302 180.9 283.102C180.9 294.402 181.5 305.602 181.9 317.002C181.9 318.902 182.3 320.602 182 322.902C181.7 325.002 181.8 327.802 181.6 330.402C181.4 332.702 181.2 335.202 180.7 337.302C180.1 339.502 179.4 341.702 178.7 343.902C178.3 345.002 177.9 346.102 177.4 347.102C177.2 347.602 176.9 348.202 176.6 348.702L176.4 349.002C176.4 349.002 176.4 349.202 176.3 349.202L179.5 353.902C180.7 355.802 182 357.602 183.2 359.502C183.8 360.402 184.3 361.202 184.8 361.602C185.2 362.002 186.1 362.102 187.2 362.302L193.7 363.402C198.1 364.102 202.4 364.802 206.8 365.402C209.5 365.802 212.1 366.102 214.8 366.402C216.1 366.602 217.5 366.802 218.8 366.902L220.8 367.202L221.8 367.402H222.3L222.6 367.502C222.8 367.502 222.9 367.502 223.1 367.502C223.1 367.402 223.1 367.302 223.1 367.202C223.1 367.202 223.1 367.002 223.1 366.902C223.1 366.502 223.2 366.202 223.3 365.802C223.5 365.102 223.1 362.902 223.3 361.402C223.5 357.602 224.1 353.902 224.9 350.102C225.2 348.802 225.5 347.502 226 346.002C226.3 345.302 226.7 344.602 227.1 343.902C227.6 343.202 228.2 342.602 228.8 342.102C230 341.102 231.2 340.402 232.2 339.802C233.2 339.102 234 338.402 234.8 337.602C236.7 335.602 238 333.002 239.1 330.302C240.3 327.502 241.1 324.402 241.8 321.302C242.7 317.402 243.6 313.302 244.4 309.202C245.2 305.002 245.8 300.502 246.7 296.502L246.9 295.802C246.9 295.502 247 295.302 247.1 294.902C247.3 294.102 247.7 293.302 248.3 292.802C248.9 292.202 249.7 291.902 250.5 291.902C250.7 291.902 250.9 291.902 251.1 291.902H251.6H252.3C254.2 292.002 256.1 292.102 258 292.202L263.7 292.402H265.7H266.6L266.2 291.502L265.9 290.902L265.4 289.702C264.6 288.002 263.8 286.302 263 284.602C261.3 281.202 259.5 277.902 257.5 274.802C255.2 271.202 253.5 267.702 250.9 264.502C249.7 263.002 249.1 260.102 250 260.402C250.2 260.402 250.4 260.602 250.7 260.902C253.7 263.802 256.5 266.502 259.1 270.602C262.9 276.602 266.1 282.902 269.1 289.302V289.502Z" fill="#FE5102"/>
<path d="M193.6 211.198C193.2 211.698 192.8 212.098 192.4 212.598C192.3 212.798 191.9 212.798 192.2 213.298C192.3 213.598 191.7 213.298 191.6 213.498C191.3 213.998 190.8 214.398 190.5 214.798C190.2 215.298 190 215.798 189.7 216.298C189.4 216.798 188.8 216.998 188.7 217.598C188.7 218.098 188 218.098 187.8 218.498C187.6 218.898 187.3 219.298 186.9 219.498C186.6 219.598 186.2 219.798 186 220.098C186 220.298 186 220.598 185.8 220.798C185.6 220.898 185.3 220.998 185.6 221.498C185.6 221.498 185.5 221.498 185.4 221.498C185 221.498 184.8 221.598 184.9 221.998C184.9 222.298 184.9 222.398 184.7 222.498C184.4 222.898 184.1 223.198 183.8 223.598C183.5 223.798 183.1 223.898 182.9 224.198C182.6 224.398 182.5 224.898 182.1 224.998C181.7 224.998 181.5 225.298 181.2 225.598C181.1 225.698 180.7 225.698 181.1 226.198C180.6 226.198 180.5 226.298 180.4 226.698C180.2 227.098 180 227.598 179.7 227.898C179.3 228.198 179 228.498 178.7 228.798L177.7 229.998C177.5 230.198 177.3 230.198 177.1 230.998C177.1 231.298 176.8 231.598 176.7 231.498C176.7 231.498 176.7 231.498 176.6 231.498C176.2 230.298 175.7 230.098 175.3 229.398C174.8 228.598 174.1 227.998 173.8 226.998C173.8 226.898 173.8 226.798 173.8 226.698C173.8 226.698 173.8 226.598 173.8 226.498C173.8 226.498 173.5 226.398 173.2 226.498C172.9 226.498 173 226.198 172.8 226.098C172.7 226.098 172.4 226.098 172.3 225.998C172.3 225.998 172.3 225.698 172.3 225.498C171.4 225.498 171.5 224.298 170.9 223.998C170.3 223.598 169.8 223.098 169.4 222.498C169.1 222.198 169 221.798 169.4 220.798C169.6 220.398 170 219.998 170.3 219.798C170.5 219.798 170.8 219.698 170.9 219.798C171.1 219.798 171.4 219.998 171.6 219.998C172.1 220.198 172.8 220.198 172.9 220.698C172.9 220.898 173.3 220.698 173 221.198V221.298C174 221.298 174.1 222.098 174.6 222.498C175 222.898 175.8 222.898 176 223.498C176.3 223.498 176.5 223.498 176.7 223.498C176.7 223.498 176.8 223.598 176.9 223.698C176.7 223.898 176.8 224.098 176.9 224.098C176.9 224.098 177 224.098 177.1 224.198C177.1 224.198 177.2 224.198 177.4 223.898L177.6 223.698L178.1 223.198C178.2 223.098 178.1 222.698 178.4 222.698C178.7 222.698 178.8 222.398 178.9 222.198C179 221.998 179.1 221.798 179.4 221.698C180.4 221.498 180.8 220.598 181.4 219.898C182 219.298 182.7 218.698 183.1 217.898C183.4 217.398 183.5 216.798 183.9 216.498C184.1 216.398 184 215.998 184.6 216.198C184.8 216.198 184.6 215.798 184.6 215.698C184.8 215.398 185.1 215.098 185.3 214.898C185.6 214.498 186 214.198 186.3 213.698C186.5 213.398 186.5 213.098 186.7 212.798C186.9 212.498 187.1 212.298 187.3 212.098C187.6 211.798 188 211.698 188.3 211.398C188.6 211.098 188.7 210.598 189.2 210.498C190.1 210.198 190.4 209.498 190.9 208.898C191.4 208.398 191.9 207.798 192.3 207.098C192.5 206.698 193.1 206.698 193.4 206.398C193.5 206.198 194.8 206.898 195.1 207.298L195.2 207.498C195.2 208.098 195.6 208.798 195.2 209.198C194.7 209.698 194.3 210.298 193.9 210.798L193.6 211.198Z" fill="#FE5102"/>
<path d="M248.8 287.398C248.4 286.198 248 284.998 247.5 283.798C247.3 283.398 247.4 282.798 246.7 282.598C246.4 282.498 246.7 281.798 246.6 281.398C246.1 280.298 245.7 279.198 245.2 278.098C244.7 277.098 244.1 276.098 243.5 275.098C243 274.098 242.7 272.898 242 272.098C241.4 271.398 241.4 270.398 240.9 269.598C240.4 268.798 239.8 267.898 239.6 266.998C239.4 266.298 239.3 265.598 238.9 265.098C238.6 264.798 238.2 264.598 238 264.098C237.8 263.698 237.8 263.198 237.1 263.098C237.1 263.098 237.1 262.898 237.1 262.798C237.2 262.198 236.9 261.698 236.5 261.498C236.1 261.298 235.9 260.998 235.8 260.698C235.3 259.898 234.8 259.098 234.3 258.298C234 257.698 233.7 256.998 233.4 256.298C233 255.698 232.4 255.198 232.2 254.398C232 253.698 231.6 253.198 231.2 252.598C231 252.298 230.9 251.798 230.2 251.898C230.2 251.898 230.1 251.898 230 251.698C230 250.398 228.4 250.198 227.8 249.298C227.2 248.398 226.2 247.698 225.4 246.898C225.2 246.698 225 246.398 224.5 246.498C224.3 246.498 224.1 246.398 224 246.198C223.7 245.198 222.8 244.998 222.2 244.498C221.5 243.898 220.5 243.598 219.9 242.798C219.6 242.398 219.1 242.098 218.5 242.398C218.2 242.498 217.9 242.098 217.5 241.998C217.2 241.998 216.9 241.998 216.6 241.998C216.4 241.998 216.2 241.598 216 241.498C216 241.498 215.9 241.498 215.8 241.498C214.3 241.698 213.2 240.598 211.8 240.498C210.4 240.498 209 240.398 207.7 240.498C206.9 240.498 206.2 240.498 205.4 239.498C205.1 239.098 204.9 238.598 205.2 238.198C205.4 237.898 205.7 237.698 206 237.498C206.5 237.298 207 237.198 207.5 236.998C208 236.798 208.5 236.698 209.1 236.498C209.6 236.398 210.2 236.298 210.7 236.498C211 236.598 211.5 236.398 211.7 236.898C211.7 236.898 211.9 236.998 211.9 236.898C213.4 236.298 214.9 237.098 216.3 237.498C217.5 237.798 218.9 237.698 219.9 238.398C220.8 238.098 221.5 238.598 222 239.098C223.9 240.798 226.2 241.798 228 243.498C229.8 245.198 231.6 246.898 233.2 248.798C233.5 249.098 234 249.198 234.1 249.698C234.1 250.198 234.7 250.598 235 250.998C235.3 251.398 235.7 251.698 235.8 252.198C236.4 254.098 237.7 255.498 238.7 257.098C239.6 258.698 240.5 260.398 241.5 261.898C242.1 262.798 243 263.698 243.4 264.698C243.6 265.198 244.1 265.498 243.8 266.098C243.8 266.298 244.3 266.498 244.5 266.798C244.9 267.498 245.2 268.198 245.6 268.898C246.1 269.898 246.5 270.898 247 271.798C247.3 272.398 247.8 272.898 248.1 273.498C248.4 274.098 248.7 274.798 248.9 275.398C249.2 276.198 249.3 277.098 249.6 277.898C249.9 278.798 250.5 279.498 250.5 280.498C250.6 282.198 251.4 283.598 251.9 285.098C252.4 286.598 252.8 288.198 253.4 289.598C253.7 290.398 253.5 291.398 253.8 292.198C253.9 292.598 252.7 293.498 252.2 293.498C252.2 293.498 252 293.498 251.9 293.498C251.2 292.798 250.4 292.298 250.1 291.298C249.7 289.898 249.3 288.598 248.8 287.198V287.398Z" fill="#FE5102"/>
<path d="M216.1 355.402C217.6 353.202 219.2 351.202 220.6 349.202C221.1 348.402 221.9 347.802 222.1 346.702C222.1 346.202 223.2 345.802 223.7 345.102C225 343.202 226.2 341.302 227.2 339.302C227.4 338.802 227.6 338.302 227.8 337.802L228.3 336.202C228.7 335.102 229 334.102 229.3 333.002C229.6 332.002 230 330.902 230.3 329.802C230.7 328.702 230.9 327.702 231 326.602C231.1 325.702 231.3 324.802 231.6 324.002C231.8 323.202 232.1 322.302 232.2 321.502C232.2 320.602 232.4 319.602 232.5 318.702C232.6 317.802 232.8 316.802 233 315.902C233.3 314.602 233.6 313.302 233.6 311.902C233.6 311.102 233.3 310.302 233.4 309.402C233.4 308.602 233.7 307.602 233.1 306.902C233.1 306.902 233.1 306.502 233.3 306.302C233.7 305.402 233.6 304.302 233.3 303.502C233 302.802 233.1 302.102 233 301.402C232.9 299.502 232.8 297.602 232.7 295.702C232.7 294.302 232.7 292.802 232.7 291.402C232.7 289.902 232.1 288.402 232.2 287.002C232.3 285.602 232.1 284.302 231.9 283.002C231.8 282.202 231.9 281.302 231.2 280.802C231.2 280.802 231.1 280.502 231.2 280.302C231.5 278.002 230.1 276.102 229.7 274.002C229.3 271.702 228.4 269.602 227.7 267.402C227.5 266.802 227.4 266.202 226.8 265.802C226.6 265.702 226.3 265.102 226.3 264.802C226.2 263.002 225.1 261.502 224.4 260.002C224 259.102 223.5 258.302 223 257.402C222.5 256.502 222 255.702 221.7 254.702C221.4 253.902 220.8 252.902 219.8 252.402C219.3 252.202 218.9 251.302 218.4 250.802C218 250.402 217.4 250.102 217 249.702C216.7 249.302 216.5 248.802 216.2 248.402C216.2 248.302 216 248.102 215.9 248.102C215.3 247.702 214.7 247.302 214.2 246.802C213.7 246.402 213.2 245.902 212.7 245.502C211.7 244.602 210.6 243.802 209.3 243.402C206.7 242.502 204 241.902 201.3 241.802C199.8 241.802 198.3 241.802 197 241.002C196.4 240.602 196.2 240.102 196.9 239.702C197.4 239.302 197.9 239.002 198.6 238.902C199.6 238.702 200.6 238.502 201.6 238.402C203.6 238.202 205.8 238.002 207.8 238.802C208.4 239.002 209.3 239.002 209.6 239.702C209.6 239.702 209.9 239.902 210 239.902C212.9 240.202 215.4 242.402 217.5 244.302C217.9 244.702 218.4 245.102 218.9 245.402C219.4 245.802 219.8 246.202 220.3 246.602C221.2 247.402 222 248.202 222.7 249.302C223.4 249.602 223.9 250.102 224.3 250.702C224.7 251.302 225.2 251.902 225.4 252.502C227.5 256.802 230 260.902 231.6 265.302C233.2 269.802 234.5 274.402 235.4 279.002C235.6 279.802 236 280.402 235.9 281.402C235.9 282.302 236.2 283.402 236.3 284.402C236.5 285.302 236.7 286.302 236.7 287.202C236.6 290.902 237.3 294.602 237.4 298.302C237.5 302.002 237.5 305.702 237.6 309.302C237.6 310.402 237.6 311.502 237.6 312.702C237.6 313.802 237.6 315.002 237.4 316.102C237.2 317.102 237.4 318.102 236.8 319.002C236.6 319.202 236.9 320.202 236.8 320.802C236.8 321.602 236.6 322.302 236.5 323.102L236 325.402C235.8 326.502 235.5 327.502 235.3 328.602C235.1 329.702 234.8 330.702 234.5 331.702C234.2 333.002 234 334.302 233.6 335.602C233.2 336.902 232.7 338.202 232.1 339.502C231.7 340.302 231.2 341.102 230.8 341.902L229.3 344.202C228.3 345.702 227.4 347.502 226.2 348.702C223.9 351.002 222.2 353.602 220.3 356.102C218.5 358.502 216.8 361.102 215.8 363.802C215.5 364.602 215.2 365.302 214.8 366.002C214.5 366.702 214.1 367.402 214.1 368.202C214 368.902 212.5 369.802 212 369.502C212 369.502 211.8 369.302 211.8 369.102C211.8 368.202 211.5 367.302 211.5 366.402C211.5 365.902 211.5 365.502 211.5 365.002C211.5 364.502 211.7 364.002 211.9 363.602C213 360.702 214.5 358.102 216.2 355.702L216.1 355.402Z" fill="#FE5102"/>
<path d="M201.2 352.499C202 350.299 203 348.199 204 346.099C204.3 345.299 205 344.599 204.9 343.599C204.9 343.099 205.8 342.599 206.1 341.899C207 339.999 208 338.099 208.8 336.199C209.6 334.299 210.2 332.399 210.9 330.499C211.3 329.599 211.6 328.599 212 327.699C212.3 326.699 212.6 325.799 212.7 324.799C212.9 323.099 213.8 321.799 214 320.199C214.3 318.499 214.6 316.799 215.1 315.199C215.5 313.999 215.9 312.899 215.9 311.699C215.9 310.899 215.7 310.199 215.9 309.399C216 308.599 216.4 307.799 215.9 307.099C215.9 307.099 215.9 306.699 216.1 306.499C216.6 305.699 216.6 304.699 216.4 303.999C216.2 303.299 216.3 302.699 216.3 302.099C216.3 300.399 216.3 298.699 216.3 296.999C216.3 295.699 216.5 294.499 216.5 293.199C216.5 291.899 216.1 290.499 216.3 289.199C216.5 287.899 216.3 286.799 216.2 285.599C216.2 284.899 216.2 284.099 215.6 283.599C215.6 283.599 215.6 283.299 215.6 283.199C216.1 281.099 214.7 279.399 214.5 277.399C214.3 275.299 213.6 273.299 213.1 271.299C212.9 270.799 213 270.099 212.4 269.799C212.2 269.699 212 269.099 212.1 268.799C212.3 267.199 211.4 265.699 211 264.199C210.6 262.399 209.7 260.799 209.5 258.899C209.5 258.099 209.2 257.099 208.3 256.499C207.9 256.199 207.8 255.399 207.5 254.899C207.2 254.499 206.8 254.199 206.5 253.799C206.3 253.499 206.2 252.999 206.1 252.599C206.1 252.499 206 252.399 205.8 252.299C204.8 251.599 204 250.799 203.2 249.899C202.4 249.099 201.4 248.299 200.3 247.799C199.2 247.299 198 246.999 196.9 246.599C195.7 246.299 194.5 246.099 193.3 245.999C192 245.999 190.6 245.899 189.5 244.999C189 244.599 188.8 244.099 189.5 243.699C189.9 243.399 190.5 243.099 191 242.999C191.9 242.799 192.8 242.699 193.7 242.599C195.5 242.499 197.6 242.299 199.4 243.199C199.9 243.499 200.7 243.499 201 244.099C201 244.099 201.2 244.299 201.4 244.299C202.7 244.499 203.9 245.099 205 245.899C206.1 246.699 207.1 247.699 208 248.599C209.6 250.199 211.3 251.899 212 253.999C213.1 254.899 213.5 256.299 213.7 257.499C214.5 261.599 216.2 265.499 217.2 269.599C218.2 273.699 219.2 277.899 219.8 282.099C219.9 282.799 220.3 283.399 220.2 284.299C220.1 285.099 220.4 286.099 220.5 286.999C220.5 287.799 220.8 288.699 220.7 289.499C220.4 292.899 220.8 296.199 220.7 299.499C220.6 302.799 220.3 306.099 220.1 309.399C220 311.399 220 313.499 219.5 315.499C219.3 316.299 219.5 317.299 218.7 317.999C218.5 318.199 218.7 319.099 218.7 319.599C218.4 320.999 218.1 322.299 217.7 323.699C217.2 325.599 216.6 327.399 216 329.299C215.6 330.399 215.5 331.599 215.1 332.799C214.7 333.999 214.2 335.099 213.6 336.199C212.9 337.599 212 338.899 211.3 340.299C210.5 341.699 210 343.299 209.1 344.599C207.4 346.899 206.4 349.499 205.3 352.099C204.2 354.599 203.3 357.199 202.7 359.799C202.7 360.199 202.5 360.499 202.4 360.899C202.4 361.299 202.2 361.599 202.1 361.899C201.9 362.599 201.6 363.299 201.6 363.999C201.6 364.699 200 365.499 199.6 365.199C199.6 365.199 199.4 364.999 199.4 364.899C199.3 364.099 199.1 363.299 198.9 362.499C198.9 361.699 198.9 360.799 198.9 359.999C199.5 357.399 200.3 354.799 201.3 352.299L201.2 352.499Z" fill="#FE5102"/>
<path d="M183 351.102C183.5 349.102 184.3 347.202 185.1 345.302C185.4 344.602 185.9 344.002 185.8 343.102C185.8 342.602 186.6 342.202 186.9 341.602C187.7 339.902 188.6 338.302 189.4 336.602C190.2 335.002 190.8 333.302 191.5 331.702C191.8 330.902 192.2 330.102 192.6 329.302C192.9 328.502 193.3 327.702 193.4 326.902C193.5 326.202 193.8 325.602 194 324.902C194.2 324.302 194.5 323.702 194.6 323.002C194.8 322.302 194.9 321.602 195 320.802C195.2 320.102 195.4 319.402 195.6 318.702C195.9 317.702 196.4 316.702 196.4 315.702C196.4 315.002 196.2 314.402 196.4 313.702C196.4 313.102 196.8 312.302 196.3 311.702C196.3 311.702 196.3 311.402 196.5 311.202C197 310.502 197 309.602 196.8 309.002C196.6 308.402 196.7 307.902 196.7 307.402C196.7 305.902 196.7 304.402 196.9 302.902C196.9 301.802 197.2 300.702 197.2 299.602C197.2 298.402 197 297.202 197.2 296.102C197.5 295.002 197.4 294.002 197.4 292.902C197.4 292.302 197.6 291.602 197 291.102C197 291.102 197 290.802 197 290.702C197.7 288.902 196.6 287.302 196.7 285.502C196.7 283.702 196.6 281.802 196.4 280.002C196.4 279.502 196.5 279.002 196 278.602C195.8 278.502 195.8 277.902 195.9 277.702C196.4 276.302 195.9 274.902 195.9 273.602C195.9 272.002 195.3 270.602 195.5 269.002C195.5 268.302 195.5 267.402 194.7 266.802C194.4 266.502 194.4 265.802 194.2 265.302C194 264.902 193.6 264.602 193.5 264.202C193.4 263.902 193.5 263.402 193.4 263.002C193.4 262.902 193.4 262.802 193.2 262.702C192.5 261.902 192 260.902 191.6 260.002C191.1 259.002 190.7 258.102 189.9 257.502C188.4 256.302 186.9 255.602 185.2 255.802C184.2 255.802 183.2 256.102 182 255.602C181.4 255.402 181.1 254.902 181.5 254.402C181.8 254.002 182.1 253.602 182.6 253.302C183.3 252.902 184.1 252.602 185 252.402C185.9 252.202 186.8 252.102 187.7 252.102C188.6 252.102 189.6 252.502 190.4 253.002C190.6 253.202 190.9 253.302 191.2 253.502C191.5 253.702 191.7 253.902 191.7 254.202C191.7 254.202 191.9 254.502 192 254.502C193.1 255.002 194 255.902 194.7 256.902C195 257.402 195.3 257.902 195.6 258.402C195.9 258.902 196.1 259.402 196.4 259.902C197.3 261.602 198.5 263.202 198.8 265.102C199.2 265.502 199.5 266.102 199.7 266.602C199.9 267.202 199.9 267.702 199.9 268.302C200 272.102 200.7 275.702 200.9 279.302C201 283.002 201.3 286.502 201.4 290.202C201.4 290.802 201.8 291.302 201.5 292.102C201.3 292.802 201.5 293.702 201.5 294.502C201.5 295.202 201.7 296.002 201.5 296.702C200.9 299.602 201.3 302.502 201.1 305.302C200.9 308.202 200.7 311.102 200.5 313.902C200.4 315.702 200.5 317.502 200 319.202C199.8 319.902 200 320.802 199.2 321.402C199 321.602 199.2 322.402 199.2 322.802C199 324.002 198.6 325.202 198.2 326.402L197.4 328.802L196.5 331.202C196.2 332.202 195.9 333.202 195.5 334.202C195.1 335.202 194.6 336.202 194.1 337.102C193.4 338.302 192.6 339.402 191.9 340.502C191.2 341.702 190.8 343.102 190 344.102C188.5 346.102 187.8 348.302 187 350.502C186.2 352.702 185.7 355.002 185.7 357.202C185.7 358.502 185.3 359.602 185.4 360.902C185.4 361.502 184.3 362.502 183.7 362.402C183.7 362.402 183.5 362.302 183.4 362.202C182.7 360.902 181.9 359.702 182 358.002C182.1 355.602 182.5 353.202 183.1 350.902L183 351.102Z" fill="#FE5102"/>
<path d="M241.6 259.9C240.5 259.7 239.3 259.5 238.2 259.4C237.8 259.4 237.4 259.1 236.9 259.4C236.6 259.6 236.3 259 235.9 259C234.8 259 233.8 258.7 232.7 258.7C231.6 258.7 230.6 258.7 229.5 258.8C228.5 258.8 227.4 258.5 226.4 258.8C225.5 259.1 224.8 258.6 223.9 258.7C223 258.8 222.1 258.9 221.3 258.7C220.7 258.6 220 258.4 219.4 258.5C219 258.5 218.7 258.9 218.2 258.9C217.8 258.9 217.3 258.7 217 259.3C217 259.3 216.8 259.3 216.7 259.2C216.2 258.9 215.7 258.9 215.4 259.2C215.1 259.5 214.8 259.5 214.5 259.5C213.6 259.6 212.8 259.8 211.9 259.8C211.2 259.8 210.6 259.8 209.9 259.8C209.2 259.8 208.5 260.2 207.9 260.1C207.2 259.9 206.6 260.1 206 260.1C205.7 260.1 205.2 260.1 205 260.7C205 260.7 204.9 260.7 204.8 260.7C203.6 260.2 202.9 261.4 201.9 261.5C200.8 261.5 199.8 262 198.7 262.4C198.4 262.4 198.1 262.4 197.9 262.9C197.9 263.1 197.6 263.2 197.4 263.1C196.5 262.7 195.7 263.3 194.9 263.4C194 263.5 193.1 264.1 192.1 263.9C191.7 263.9 191.1 263.9 190.8 264.5C190.7 264.8 190.2 264.7 189.8 264.9C189.5 265 189.4 265.4 189.1 265.4C188.9 265.4 188.6 265.4 188.3 265.4H188.1C187 266.4 185.5 266.1 184.3 266.8C183.1 267.5 181.9 268 180.7 268.5C180 268.8 179.3 269 178.3 268.4C177.8 268.1 177.6 267.7 177.7 267.2C177.7 266.9 177.9 266.5 178.1 266.4C178.4 266.1 178.8 265.8 179.1 265.5C179.8 264.9 180.5 264 181.5 263.9C181.8 263.9 182 263.4 182.4 263.8H182.6C183.5 262.6 184.9 262.6 186.1 262.1C187.1 261.7 188 260.8 189.1 260.7C189.5 260 190.2 259.8 190.9 259.9C193.1 259.9 195.1 258.9 197.2 258.5C199.2 258 201.4 257.3 203.6 256.8C204 256.8 204.2 256.3 204.7 256.5C205.2 256.6 205.6 256.3 206.1 256.3C206.5 256.3 207 256 207.4 256.1C208.3 256.2 209.2 256.1 210 256.1C210.9 256 211.7 255.8 212.6 255.7C214.3 255.5 216 255.5 217.7 255.2C218.7 255.1 219.8 254.7 220.8 254.7C221.3 254.7 221.7 254.4 222.2 255C222.3 255.2 222.7 254.7 223 254.7C223.7 254.7 224.4 254.7 225.2 254.7H228.2C228.8 254.7 229.4 254.5 230 254.5C230.6 254.5 231.3 254.5 231.9 254.6C232.7 254.7 233.5 255 234.3 255.1C235.1 255.2 236 255.1 236.8 255.4C238.2 256.1 239.7 256 241.2 256.4C242.7 256.7 244.1 257 245.6 257.2C246.4 257.3 247.1 258 247.9 258.2C248.3 258.2 248.4 259.8 248.2 260.2C248.2 260.2 248.1 260.4 248 260.4C247.1 260.6 246.3 261.1 245.4 260.9C244.1 260.6 242.8 260.3 241.6 260.1V259.9Z" fill="#FE5102"/>
<path d="M252.8 277.9C251.4 277.8 250.1 277.7 248.7 277.6C248.2 277.6 247.7 277.3 247.1 277.8C246.8 278 246.4 277.4 245.9 277.4C244.6 277.4 243.4 277.2 242.1 277.2C240.9 277.2 239.6 277.4 238.4 277.4C237.2 277.4 235.9 277.1 234.8 277.4C233.8 277.7 232.9 277.2 231.9 277.3C230.9 277.3 229.8 277.5 228.8 277.3C228.1 277.1 227.3 276.9 226.6 277.1C226.1 277.1 225.7 277.5 225.2 277.5C224.7 277.5 224.2 277.3 223.8 277.9C223.8 277.9 223.6 277.9 223.5 277.8C223 277.4 222.4 277.5 222 277.8C221.6 278.1 221.3 278.1 220.9 278.1C219.9 278.2 218.8 278.3 217.8 278.3C217 278.3 216.2 278.2 215.5 278.2C214.7 278.2 213.9 278.6 213.1 278.3C212.3 278.1 211.6 278.2 210.9 278.3C210.5 278.3 210 278.1 209.7 278.8C209.7 278.8 209.5 278.8 209.4 278.8C208.1 278.1 207.1 279.4 205.9 279.3C204.6 279.3 203.4 279.6 202.2 279.8C201.9 279.8 201.5 279.8 201.3 280.2C201.3 280.4 200.9 280.4 200.7 280.4C199.7 280 198.8 280.5 197.8 280.6C196.7 280.6 195.7 281.2 194.5 280.9C194 280.9 193.4 280.9 192.9 281.5C192.7 281.8 192.1 281.7 191.7 281.8C191.4 281.9 191.1 282.2 190.8 282.3C190.5 282.3 190.2 282.3 189.9 282.2C189.9 282.2 189.7 282.2 189.6 282.2C188.2 283.1 186.4 282.7 184.9 283.2C183.3 283.7 181.8 284 180.1 284.3C179.2 284.4 178.1 284.4 177.4 283.4C177.1 283 177 282.4 177.4 282.1C177.6 281.8 177.9 281.6 178.2 281.5C178.7 281.3 179.1 281.1 179.6 280.9C180.6 280.5 181.4 279.8 182.6 279.8C182.9 279.8 183.3 279.4 183.6 279.8C183.6 279.8 183.8 279.8 183.9 279.8C185.1 278.8 186.7 278.9 188.1 278.6C189.3 278.3 190.4 277.4 191.7 277.5C192.3 276.8 193.1 276.7 193.8 276.8C196.4 276.9 198.7 276.1 201.2 275.7C203.7 275.4 206.2 274.9 208.7 274.6C209.1 274.6 209.5 274.2 210 274.4C210.5 274.6 211.1 274.4 211.6 274.3C212.1 274.3 212.6 274.1 213.1 274.2C215.1 274.6 217.1 274.1 219.1 274C221.1 274 223.1 274 225 273.7C226.2 273.5 227.4 273.2 228.6 273.3C229.1 273.3 229.7 273 230.2 273.6C230.3 273.8 230.8 273.3 231.2 273.3C232 273.3 232.9 273.3 233.7 273.3C234.8 273.3 236 273.3 237.1 273.3C237.8 273.3 238.5 273.1 239.2 273C239.9 273 240.7 273 241.4 273C242.3 273 243.2 273.4 244.2 273.5C245.2 273.6 246.2 273.5 247.1 273.7C248.8 274.3 250.5 274.2 252.2 274.4C253.9 274.6 255.6 274.8 257.3 274.8C258.3 274.8 259.1 275.4 260 275.5C260.4 275.5 260.9 277 260.7 277.4C260.7 277.4 260.6 277.6 260.5 277.6C259.5 278 258.7 278.6 257.6 278.4C256.1 278.2 254.5 278.1 253 278L252.8 277.9Z" fill="#FE5102"/>
<path d="M245.5 295.2C244.3 295.1 243.1 294.9 242 294.8C241.6 294.8 241.1 294.5 240.6 295C240.4 295.2 240 294.6 239.6 294.6C238.5 294.6 237.4 294.4 236.3 294.4C235.2 294.4 234.1 294.5 233.1 294.6C232 294.6 230.9 294.3 229.9 294.6C229 294.8 228.2 294.4 227.4 294.5C226.5 294.6 225.6 294.7 224.7 294.5C224.1 294.3 223.4 294.1 222.8 294.2C222.4 294.2 222 294.6 221.6 294.6C221.2 294.6 220.7 294.3 220.4 294.9C220.4 294.9 220.2 294.9 220.1 294.8C219.7 294.4 219.1 294.5 218.8 294.8C218.5 295.1 218.1 295 217.8 295.1C216.9 295.1 216 295.1 215.1 295.1C214.4 295.1 213.7 294.9 213 294.9C212.3 294.9 211.5 295.2 210.9 294.9C210.2 294.7 209.6 294.7 209 294.8C208.6 294.8 208.2 294.6 207.9 295.2H207.7C206.6 294.5 205.7 295.6 204.6 295.5C203.5 295.5 202.4 295.6 201.3 295.8C201 295.8 200.7 295.8 200.5 296.2C200.5 296.4 200.1 296.4 200 296.3C199.1 295.8 198.3 296.3 197.5 296.3C196.5 296.3 195.6 296.7 194.6 296.4C194.2 296.3 193.6 296.2 193.2 296.9C193 297.2 192.5 297 192.2 297.1C191.9 297.1 191.7 297.5 191.4 297.5C191.2 297.5 190.9 297.4 190.6 297.3H190.4C189.1 298.1 187.6 297.6 186.3 298C184.9 298.4 183.5 298.6 182.1 298.9C181.3 299 180.5 299 179.7 298.1C179.4 297.7 179.2 297.2 179.5 296.8C179.7 296.5 179.9 296.3 180.2 296.1C180.6 295.9 181 295.7 181.5 295.5C182.4 295.1 183.2 294.4 184.2 294.5C184.5 294.5 184.8 294.2 185.1 294.6H185.3C186.4 293.6 187.8 293.8 189.1 293.6C190.2 293.4 191.1 292.6 192.3 292.7C192.8 292 193.6 292 194.2 292.1C196.5 292.4 198.6 291.7 200.8 291.6C203 291.4 205.2 291.1 207.4 291C207.8 291 208.1 290.6 208.5 290.8C208.9 291 209.5 290.8 209.9 290.8C210.3 290.8 210.8 290.6 211.2 290.8C213 291.3 214.7 290.8 216.4 290.8C218.1 290.8 219.9 290.8 221.6 290.6C222.7 290.5 223.7 290.2 224.8 290.3C225.3 290.3 225.7 290 226.2 290.6C226.3 290.8 226.8 290.3 227 290.3C227.7 290.3 228.5 290.3 229.2 290.3C230.2 290.3 231.2 290.3 232.2 290.3C232.8 290.3 233.4 290.1 234.1 290C234.7 290 235.4 290 236 290C236.8 290.1 237.6 290.4 238.4 290.5C239.2 290.6 240.1 290.5 240.9 290.8C242.4 291.4 243.9 291.3 245.4 291.5C246.9 291.7 248.4 291.9 249.9 292C250.8 292 251.4 292.6 252.3 292.7C252.7 292.7 253 294.2 252.7 294.7C252.7 294.7 252.6 294.9 252.5 294.9C251.6 295.2 250.8 295.8 249.9 295.6C248.6 295.3 247.2 295.2 245.9 295.1L245.5 295.2Z" fill="#FE5102"/>
<path d="M239.9 316.201C238.8 316.301 237.7 316.501 236.6 316.601C236.2 316.601 235.7 316.401 235.3 317.001C235.1 317.301 234.7 316.701 234.3 316.801C233.3 317.001 232.2 316.801 231.2 317.001C230.2 317.001 229.2 317.301 228.2 317.401C227.2 317.401 226.2 317.101 225.2 317.401C224.3 317.601 223.6 317.101 222.8 317.201C221.9 317.201 221.1 317.301 220.2 317.001C219.6 316.801 219 316.501 218.4 316.601C218 316.601 217.6 316.901 217.2 316.801C216.8 316.801 216.4 316.501 216 317.001C216 317.001 215.8 317.001 215.7 316.801C215.3 316.401 214.8 316.301 214.5 316.501C214.1 316.701 213.8 316.601 213.5 316.601C212.6 316.601 211.8 316.401 211 316.201C210.4 316.101 209.8 315.701 209.2 315.601C208.6 315.401 207.8 315.601 207.3 315.201C206.7 314.801 206.2 314.701 205.6 314.601C205.3 314.601 204.9 314.201 204.5 314.701H204.3C203.5 313.801 202.4 314.601 201.4 314.201C200.4 313.801 199.4 313.701 198.4 313.501C198.1 313.501 197.9 313.201 197.5 313.501C197.4 313.601 197.1 313.501 197 313.501C196.4 312.801 195.5 312.901 194.8 312.701C194 312.401 193 312.501 192.3 311.801C192 311.501 191.5 311.301 190.9 311.801C190.6 312.001 190.3 311.701 189.9 311.601C189.6 311.601 189.3 311.801 189.1 311.701C188.9 311.701 188.7 311.401 188.5 311.201C188.5 311.201 188.4 311.201 188.3 311.201C186.9 311.501 185.8 310.401 184.5 310.301C183.2 310.201 181.9 309.801 180.7 309.401C180 309.201 179.3 308.801 179.1 307.701C179 307.201 179.1 306.701 179.5 306.401C179.8 306.201 180.1 306.101 180.3 306.101C180.7 306.101 181.2 306.101 181.6 306.101C182.5 306.101 183.4 305.801 184.2 306.301C184.4 306.401 184.8 306.301 184.9 306.801C184.9 306.801 185 306.901 185.1 306.901C186.4 306.401 187.4 307.201 188.6 307.401C189.6 307.601 190.7 307.201 191.6 307.701C192.3 307.201 192.9 307.501 193.4 307.701C195.2 308.801 197.2 308.801 199.1 309.301C201 309.801 203 310.101 205 310.501C205.3 310.501 205.7 310.301 206 310.601C206.3 310.901 206.8 310.801 207.3 310.901C207.7 310.901 208.1 310.901 208.5 311.101C209.9 312.001 211.5 311.801 213.1 312.101C214.6 312.401 216.2 312.601 217.7 312.601C218.6 312.601 219.6 312.401 220.5 312.601C220.9 312.601 221.3 312.401 221.7 313.001C221.8 313.201 222.2 312.801 222.5 312.801C223.1 312.801 223.8 312.801 224.4 312.901C225.3 312.901 226.2 313.001 227.1 312.901C227.6 312.901 228.2 312.701 228.7 312.601C229.3 312.601 229.8 312.601 230.4 312.601C231.1 312.601 231.8 312.801 232.6 312.901C233.4 312.901 234.1 312.601 234.8 312.901C236.2 313.301 237.5 312.901 238.8 312.901C240.1 312.801 241.4 312.701 242.7 312.301C243.4 312.101 244.2 312.401 244.9 312.301C245.2 312.301 246 313.501 246 314.001V314.201C245.4 314.801 244.8 315.601 244 315.701C243.4 315.701 242.7 315.901 242.1 316.001L240.2 316.301L239.9 316.201Z" fill="#FE5102"/>
<path d="M236.2 336.999H233.1C232.7 337.099 232.3 336.899 231.9 337.399C231.7 337.699 231.3 337.099 231 337.099C230 337.099 229 337.099 228.1 337.099C227.2 337.099 226.2 337.299 225.2 337.299C224.3 337.299 223.3 336.899 222.4 337.199C221.6 337.399 220.9 336.799 220.2 336.799C219.4 336.799 218.6 336.799 217.8 336.499C217.3 336.199 216.7 335.999 216.2 335.999C215.8 335.999 215.5 336.299 215.1 336.199C214.7 336.199 214.4 335.799 214 336.299C214 336.299 213.8 336.299 213.8 336.099C213.5 335.599 213 335.599 212.7 335.799C212.3 335.999 212.1 335.899 211.8 335.799C211 335.699 210.2 335.599 209.4 335.299C208.8 335.099 208.3 334.799 207.7 334.599C207.1 334.399 206.4 334.599 205.9 334.099C205.4 333.699 204.9 333.499 204.3 333.399C204 333.399 203.7 332.899 203.3 333.399H203.1C202.4 332.399 201.3 333.099 200.4 332.599C199.5 332.099 198.6 331.999 197.6 331.599C197.4 331.599 197.2 331.299 196.8 331.599C196.7 331.699 196.4 331.599 196.3 331.499C195.8 330.699 195 330.799 194.3 330.399C193.6 329.999 192.7 329.899 192.1 329.099C191.8 328.799 191.4 328.499 190.8 328.799C190.5 328.999 190.2 328.499 189.9 328.499C189.6 328.499 189.3 328.499 189.1 328.499C188.9 328.499 188.8 328.099 188.6 327.899C188.6 327.899 188.5 327.899 188.4 327.899C187 327.899 186.3 326.599 185.1 326.199C184.5 325.999 183.9 325.699 183.4 325.399C182.9 325.099 182.3 324.699 181.8 324.299C181.2 323.899 180.7 323.399 180.9 322.199C180.9 321.699 181.3 321.199 181.7 321.099C182 321.099 182.3 320.999 182.6 321.099C183 321.199 183.4 321.299 183.7 321.399C184.5 321.599 185.3 321.599 185.9 322.199C186.1 322.399 186.5 322.199 186.4 322.799C186.4 322.799 186.4 322.999 186.5 322.899C187.8 322.699 188.5 323.699 189.5 324.099C190.4 324.499 191.4 324.299 192.1 324.899C192.8 324.599 193.3 324.899 193.7 325.199C194.4 325.799 195.2 326.299 196.1 326.599C197 326.899 197.8 327.099 198.7 327.499C199.5 327.899 200.4 328.099 201.3 328.399C202.2 328.699 203.1 328.999 203.9 329.199C204.2 329.199 204.6 328.999 204.8 329.399C205.1 329.699 205.5 329.699 205.9 329.799C206.3 329.799 206.7 329.799 207 330.099C208.3 330.999 209.8 330.999 211.2 331.399C212.6 331.699 214 332.099 215.5 332.199C216.4 332.199 217.3 332.099 218.2 332.299C218.6 332.399 219 332.099 219.3 332.699C219.3 332.899 219.8 332.499 220 332.499C220.6 332.499 221.2 332.599 221.8 332.699C222.6 332.799 223.5 332.899 224.3 332.899C224.8 332.899 225.3 332.699 225.8 332.699C226.3 332.699 226.9 332.699 227.4 332.699C228.1 332.699 228.7 332.999 229.4 333.099C230.1 333.099 230.8 332.899 231.5 333.099C232.8 333.599 234 333.399 235.3 333.299C236.5 333.299 237.8 333.299 239 333.099C239.7 332.999 240.4 333.399 241.1 333.299C241.4 333.299 242 334.599 241.9 335.099C241.9 335.099 241.9 335.299 241.8 335.299C241.2 335.799 240.6 336.499 239.8 336.599L236.2 336.799V336.999Z" fill="#FE5102"/>
<path d="M220.1 357.799H217.7C217.4 357.599 217.1 357.399 216.7 357.799C216.5 357.999 216.3 357.399 216 357.399C215.2 357.399 214.5 357.199 213.7 357.099C213 357.099 212.2 357.099 211.4 357.099C210.7 357.099 210 356.599 209.2 356.799C208.5 356.899 208.1 356.299 207.5 356.299C206.9 356.299 206.2 356.299 205.7 355.799C205.3 355.499 204.9 355.199 204.5 355.199C204.2 355.199 203.9 355.399 203.6 355.299C203.3 355.299 203.1 354.899 202.7 355.299C202.7 355.299 202.6 355.299 202.5 355.099C202.3 354.599 202 354.499 201.6 354.699C201.3 354.899 201.1 354.699 200.9 354.699C200.3 354.499 199.7 354.399 199.1 354.099C198.7 353.899 198.3 353.499 197.9 353.299C197.5 353.099 196.9 353.199 196.6 352.699C196.3 352.299 195.9 352.099 195.5 351.899C195.3 351.899 195.1 351.399 194.7 351.899H194.6C194.2 350.899 193.2 351.499 192.6 350.999C192 350.499 191.2 350.299 190.5 349.999C190.3 349.999 190.2 349.699 189.8 349.999C189.7 350.099 189.5 349.999 189.4 349.899C189.2 349.099 188.5 349.199 188 348.799C187.5 348.399 186.8 348.299 186.4 347.499C186.3 347.199 186 346.899 185.4 347.199C185.1 347.299 185 346.899 184.8 346.899C184.6 346.899 184.3 346.899 184.1 346.899C184 346.899 183.9 346.499 183.8 346.399C183.8 346.399 183.8 346.399 183.7 346.399C182.5 346.399 182.2 345.199 181.3 344.699C180.4 344.299 179.6 343.599 178.9 342.999C178.5 342.599 178.2 342.099 178.6 341.099C178.8 340.599 179.1 340.199 179.5 340.099C179.8 340.099 180.1 339.999 180.2 340.099C180.5 340.099 180.8 340.299 181.1 340.399C181.7 340.599 182.4 340.599 182.8 341.199C182.9 341.399 183.3 341.199 183.1 341.799V341.899C184.2 341.699 184.6 342.699 185.3 343.099C185.9 343.399 186.8 343.299 187.3 343.899C187.9 343.599 188.3 343.899 188.5 344.299C188.9 344.899 189.5 345.299 190.1 345.699C190.7 345.999 191.4 346.299 192 346.599C193.2 347.299 194.6 347.799 195.8 348.499C196 348.499 196.3 348.399 196.5 348.699C196.6 348.999 197 348.999 197.3 349.099C197.6 349.199 197.9 349.199 198.1 349.399C198.9 350.399 200.1 350.399 201.1 350.799C202.1 351.199 203.2 351.599 204.3 351.799C205 351.799 205.7 351.799 206.3 352.099C206.6 352.199 206.9 351.999 207.1 352.599C207.1 352.799 207.5 352.399 207.7 352.399C208.2 352.399 208.6 352.599 209.1 352.699C209.7 352.899 210.4 352.999 211 353.099C211.4 353.099 211.8 352.999 212.2 352.999C212.6 352.999 213 352.999 213.4 353.199C213.9 353.299 214.4 353.599 214.9 353.699C215.4 353.799 216 353.699 216.5 353.899C217.4 354.499 218.4 354.299 219.4 354.399C220.4 354.499 221.3 354.599 222.3 354.399C222.8 354.399 223.3 354.799 223.9 354.799C224.1 354.799 224.5 356.199 224.4 356.699C224.4 356.699 224.4 356.899 224.3 356.899C223.8 357.299 223.3 357.999 222.6 357.999C221.7 357.999 220.7 357.999 219.8 357.899L220.1 357.799Z" fill="#FE5102"/>
<path d="M331.2 254.201C331 254.001 330.9 253.801 330.7 253.701C330.7 253.701 330.7 253.401 330.3 253.701C330.1 253.901 330.5 253.401 330.4 253.301C330.2 253.201 330.1 253.001 329.9 252.901C329.7 252.801 329.4 252.901 329.2 252.701C329 252.601 329.1 252.201 328.7 252.301C328.4 252.301 328.7 251.901 328.4 251.901C328.2 251.901 328 251.801 328 251.501C328 251.301 328.1 251.001 328 251.001C327.9 251.001 327.6 251.201 327.6 251.001C327.6 251.001 327.6 250.701 327.2 251.001C327.2 251.001 327.2 251.001 327.2 250.901C327.4 250.601 327.3 250.501 327.1 250.601C326.9 250.701 326.8 250.601 326.8 250.601C326.7 250.601 326.5 250.401 326.4 250.201C326.4 250.101 326.4 249.801 326.4 249.701C326.4 249.601 326 249.701 326.2 249.401C326.3 249.101 326.2 249.001 326.2 248.901C326.2 248.901 326.2 248.601 325.8 248.901C326.2 248.201 325.3 248.901 325.3 248.501C325.3 248.201 325 248.201 324.9 248.001C324.9 248.001 324.9 247.801 324.6 248.001C324.5 248.101 324.4 248.001 324.5 248.001C324.8 247.401 324.5 247.601 324.5 247.401C324.5 247.201 324.1 247.301 324.3 246.801C324.3 246.601 324.3 246.401 323.9 246.801C323.7 247.001 323.9 246.801 323.7 246.801C323.7 246.801 323.4 247.001 323.4 246.901C323.4 246.901 323.4 246.701 323.5 246.601C322.8 246.901 323.3 246.101 323 246.001C322.7 246.001 322.5 245.701 322.4 245.401C322.4 245.301 322.4 245.001 323.1 244.101C323.4 243.701 323.8 243.301 324.1 243.101C324.3 243.001 324.5 242.801 324.6 242.801C324.7 242.801 324.9 242.801 325 242.801C325.3 242.801 325.7 242.501 325.7 242.801C325.7 242.901 325.9 242.801 325.7 243.101C326.4 242.701 326.2 243.301 326.5 243.401C326.7 243.501 327.3 243.201 327.2 243.501C327.7 243.101 327.7 243.301 327.7 243.501C327.5 244.301 328.1 244.301 328.4 244.601C328.6 245.001 329 245.201 329.3 245.501C329.3 245.501 329.6 245.301 329.5 245.601C329.4 245.801 329.5 245.801 329.7 245.801C329.7 245.801 329.9 245.801 329.9 246.001C329.7 246.701 330.2 246.701 330.4 246.901C330.6 247.201 330.8 247.501 331.1 247.601C331.3 247.601 331.7 247.601 331.8 247.801C331.8 247.901 332.1 247.801 331.8 248.201C331.7 248.301 332.1 248.101 332.1 248.101C332.2 248.101 332.3 248.301 332.4 248.401C332.5 248.501 332.6 248.701 332.8 248.801C332.9 248.801 333.2 248.801 333.3 248.801C333.4 248.801 333.5 248.901 333.6 249.101C333.6 249.301 333.6 249.501 333.6 249.701C333.6 249.901 334 249.701 333.9 250.101C333.7 250.701 334.1 250.701 334.3 250.901C334.5 251.101 334.6 251.401 334.9 251.501C335.1 251.501 334.9 252.001 334.9 252.101C334.9 252.101 334 253.201 333.6 253.601L333.4 253.701C333 253.901 332.3 254.301 332.2 254.201C332.1 254.001 331.8 253.801 331.7 253.601L331.2 254.201Z" fill="white"/>
<path d="M324.6 272.101C324.4 272.101 324.1 271.901 323.8 271.901C323.8 271.901 323.7 271.601 323.4 272.101C323.3 272.301 323.4 271.701 323.3 271.701C323 271.701 322.8 271.501 322.6 271.501C322.4 271.501 322.1 271.601 321.8 271.501C321.6 271.501 321.4 271.101 321.1 271.301C320.8 271.501 320.8 271.001 320.6 271.001C320.4 271.001 320.1 271.001 320 270.801C320 270.601 319.9 270.301 319.7 270.401C319.6 270.401 319.4 270.701 319.3 270.601C319.3 270.601 319.3 270.301 318.9 270.801C318.9 270.801 318.9 270.801 318.9 270.601C318.9 270.201 318.9 270.201 318.7 270.401C318.5 270.601 318.5 270.601 318.4 270.601C318.2 270.601 318 270.601 317.8 270.401C317.7 270.401 317.6 270.001 317.5 269.901C317.4 269.801 317.1 269.901 317.1 269.601C317.1 269.301 316.9 269.201 316.8 269.201C316.8 269.201 316.8 268.901 316.4 269.401C316.5 268.501 315.9 269.401 315.7 269.201C315.6 268.901 315.3 269.001 315 268.901C315 268.901 315 268.701 314.7 269.101C314.7 269.201 314.5 269.201 314.6 269.101C314.6 268.501 314.4 268.701 314.2 268.601C314.1 268.401 313.7 268.601 313.7 268.101C313.7 267.901 313.7 267.701 313.3 268.201C313.1 268.401 313.2 268.201 313.1 268.201C313.1 268.201 312.9 268.401 312.8 268.401C312.8 268.401 312.8 268.101 312.8 268.001C312.2 268.501 312.3 267.501 312 267.601C311.6 267.601 311.4 267.401 311.1 267.201C311 267.101 310.9 266.801 311.3 265.801C311.5 265.301 311.7 264.801 311.9 264.501C312.1 264.301 312.2 264.101 312.3 264.101C312.4 264.101 312.6 264.001 312.7 263.901C313 263.901 313.4 263.401 313.4 263.701C313.4 263.801 313.6 263.601 313.4 264.001C314 263.401 314 264.001 314.3 264.001C314.5 264.001 315 263.601 315.1 264.001C315.5 263.501 315.6 263.601 315.6 263.901C315.7 264.701 316.3 264.501 316.7 264.701C317.1 265.001 317.6 265.101 318 265.301C318 265.301 318.3 265.001 318.3 265.301C318.3 265.601 318.5 265.401 318.6 265.501C318.6 265.501 318.8 265.501 318.8 265.601C318.8 266.301 319.4 266.101 319.7 266.301C320 266.501 320.3 266.701 320.7 266.701C320.9 266.701 321.3 266.401 321.4 266.701C321.4 266.701 321.7 266.501 321.6 267.101C321.6 267.301 321.8 266.901 321.9 266.901C322.1 266.901 322.2 266.901 322.3 267.001C322.5 267.001 322.7 267.201 322.9 267.201C323 267.201 323.2 267.001 323.4 267.001C323.5 267.001 323.7 267.001 323.8 267.101C323.9 267.201 324 267.501 324.2 267.601C324.3 267.701 324.6 267.601 324.7 267.801C324.8 268.401 325.2 268.201 325.5 268.401C325.8 268.601 326.1 268.701 326.4 268.701C326.6 268.701 326.6 269.201 326.8 269.301C326.8 269.301 326.5 270.801 326.3 271.201C326.3 271.201 326.3 271.401 326.2 271.401C325.9 271.801 325.5 272.401 325.3 272.301C325 272.101 324.7 272.101 324.5 272.001L324.6 272.101Z" fill="white"/>
<path d="M318.8 288.098C318.6 288.098 318.4 288.098 318.2 288.098C318.2 288.098 318.1 287.898 318 288.398C318 288.698 317.9 287.998 317.8 288.098C317.6 288.098 317.4 288.098 317.3 288.098C317.1 288.098 317 288.398 316.8 288.498C316.6 288.498 316.4 288.298 316.3 288.598C316.2 288.898 316 288.398 315.9 288.598C315.8 288.698 315.6 288.798 315.5 288.598C315.4 288.398 315.3 288.198 315.2 288.298C315.2 288.298 315.1 288.698 315 288.698C315 288.698 314.8 288.398 314.8 288.998C314.8 288.998 314.8 288.998 314.8 288.898C314.8 288.498 314.6 288.498 314.6 288.898C314.6 289.198 314.6 289.098 314.5 289.198C314.4 289.198 314.2 289.198 314.1 289.198C314 289.198 313.9 288.898 313.7 288.898C313.6 288.898 313.5 289.098 313.3 288.898C313.2 288.598 313.1 288.598 313 288.598C313 288.598 312.8 288.298 312.9 288.998C312.6 288.198 312.6 289.298 312.4 289.098C312.2 288.898 312 289.098 311.9 289.098C311.9 289.098 311.8 288.898 311.8 289.398C311.8 289.598 311.8 289.598 311.8 289.398C311.6 288.798 311.5 289.198 311.4 289.098C311.2 289.098 311.1 289.298 310.9 288.798C310.9 288.598 310.7 288.498 310.7 289.098C310.7 289.398 310.6 289.098 310.5 289.098V289.398C310.5 289.398 310.4 289.198 310.3 289.098C310.2 289.798 309.8 288.898 309.6 289.098C309.4 289.298 309.2 289.298 308.9 289.198C308.8 289.198 308.6 288.998 308.3 287.898C308.2 287.398 308.1 286.898 308.1 286.498C308.1 286.298 308.1 285.998 308.1 285.998C308.1 285.898 308.2 285.798 308.3 285.598C308.4 285.398 308.5 284.798 308.7 285.098C308.7 285.098 308.7 284.898 308.9 285.398C308.9 284.598 309.3 285.098 309.5 284.998C309.7 284.998 309.8 284.298 310 284.498C310 283.898 310.2 283.998 310.3 284.098C310.8 284.698 311.1 284.198 311.5 284.298C311.9 284.298 312.3 284.298 312.6 284.298C312.6 284.298 312.6 283.898 312.8 284.298C312.8 284.598 313 284.298 313.1 284.298C313.1 284.298 313.2 284.198 313.3 284.298C313.7 284.898 313.9 284.498 314.2 284.598C314.5 284.598 314.8 284.598 315.1 284.598C315.3 284.498 315.4 284.098 315.6 284.298C315.6 284.298 315.7 283.998 315.9 284.598C315.9 284.798 315.9 284.298 316 284.298C316.1 284.298 316.2 284.298 316.4 284.298C316.6 284.298 316.7 284.298 316.9 284.298C317 284.298 317.1 283.998 317.2 283.898C317.3 283.898 317.4 283.898 317.5 283.898C317.6 283.898 317.8 284.198 317.9 284.198C318 284.198 318.2 283.998 318.3 284.198C318.6 284.698 318.8 284.398 319.1 284.498C319.4 284.498 319.6 284.598 319.9 284.498C320 284.498 320.2 284.898 320.3 284.898C320.3 284.898 320.4 286.398 320.3 286.898V287.098C320.2 287.598 320 288.298 319.9 288.198C319.7 288.198 319.5 288.198 319.2 288.198L318.8 288.098Z" fill="white"/>
<path d="M332.5 378.602C331.6 376.902 330.8 375.202 330.2 373.402C330 372.702 330 372.002 329.3 371.402C328.9 371.102 329.4 370.302 329.3 369.602C328.9 367.902 328.9 366.102 328.9 364.302C328.9 362.502 328.9 360.702 329.6 358.902C329.9 358.002 330.4 357.102 331.1 356.302C331.7 355.502 332.4 354.802 333.2 354.002C333.9 353.302 334.8 353.002 335.6 352.902C336.5 352.702 337.3 352.802 338.2 352.702C339.1 352.702 340.1 352.802 341.1 353.202C342 353.602 342.9 354.302 343.5 355.202C344.3 356.502 344.4 358.002 344.5 359.302C344.5 360.102 344.7 360.902 344.5 361.702C344.2 362.502 343.7 363.102 343.9 364.002C343.9 364.002 343.6 364.302 343.5 364.402C343.1 364.602 342.8 364.902 342.5 365.202C342.2 365.502 342.1 365.902 341.9 366.202C341.7 366.902 341.2 367.202 340.8 367.602C339.6 368.702 338.1 369.602 336.6 370.102C336 370.302 335.4 370.402 334.9 370.502L333.1 370.702C331.9 370.802 330.6 371.202 329.5 370.902C328.4 370.602 327.4 370.402 326.3 370.202C325.7 370.002 325.1 369.602 324.4 370.002C324.4 370.002 324.1 370.002 324 369.902C323.6 369.602 323.3 369.302 322.9 369.102C322.5 368.902 322.1 368.802 321.7 368.602C320.9 368.302 320 368.002 319.3 367.302C318 366.002 316.6 364.802 315.5 363.302C315.2 362.902 315.1 362.402 314.4 362.202C314.2 362.202 313.9 361.702 313.9 361.402C313.8 359.902 312.8 358.802 312.5 357.502C312.1 356.002 311.4 354.502 311.7 352.902C311.7 352.202 311.8 351.302 311.2 350.602C310.9 350.202 311.2 349.502 311.2 348.902C311.2 348.402 310.9 348.002 310.9 347.502C310.9 347.102 311.2 346.702 311.3 346.302C311.3 346.202 311.3 346.002 311.3 345.902C310.9 343.502 312.3 341.502 312.9 339.402C313.5 337.202 314.5 335.102 315.7 333.202C316.3 332.102 317.2 331.202 318.6 331.102C319.2 331.102 319.7 331.402 319.7 332.002C319.7 332.402 319.7 332.902 319.5 333.302C319.2 333.902 319 334.502 318.8 335.102C318.3 336.302 318.3 337.702 317.5 338.802C317.3 339.202 317.4 339.702 316.8 339.802C316.8 339.802 316.6 340.002 316.6 340.102C316.7 342.002 315.8 343.602 315.5 345.402C315.3 346.902 315.8 348.402 315.6 349.802C316.2 350.602 316.2 351.502 316.2 352.302C316.1 353.802 316.4 355.202 317 356.502C317.5 357.802 318.3 359.102 319.1 360.202C320.7 362.602 323 364.502 325.5 365.502C325.9 365.702 326.4 365.502 326.9 365.902C327.3 366.302 328.1 366.202 328.6 366.302C328.9 366.302 329.2 366.302 329.4 366.302C329.7 366.302 330 366.302 330.2 366.302C331.3 366.602 332.5 366.602 333.5 366.302C334.6 366.002 335.6 365.502 336.6 365.002C337.5 364.502 338.4 363.802 339.2 363.002C339.5 362.602 339.9 362.202 340.1 361.702C340.4 361.302 340.6 360.802 340.7 360.302C340.8 359.702 340.8 359.202 340.7 358.702C340.6 358.302 340.4 357.902 340.3 357.602C340.2 357.302 339.8 357.402 339.8 356.702C339.8 356.502 339.3 356.702 339 356.702C338.4 356.702 337.7 356.702 337 356.802C336.5 356.902 336.1 357.102 335.8 357.402C335.4 357.702 335.1 358.102 334.8 358.602C334.5 359.202 334.4 359.902 334.3 360.602C334.1 361.302 334 362.102 333.8 362.902C333.6 363.902 333.4 365.002 333.4 366.102C333.4 367.202 333.8 368.302 333.8 369.502C333.8 371.602 334.7 373.502 335.5 375.302C336.4 377.102 337.5 378.902 338.9 380.302C339.3 380.702 339.6 381.202 339.9 381.602C340.2 382.002 340.5 382.502 341 382.902C341.4 383.202 341 384.902 340.6 385.102C340.6 385.102 340.4 385.102 340.3 385.102C339.1 384.702 337.7 384.502 336.7 383.402C335.3 381.802 333.9 380.102 332.9 378.202L332.5 378.602Z" fill="white"/>
<path d="M259.2 231.098C258.9 231.098 258.6 230.898 258.2 230.798C258.1 230.798 258 230.498 257.8 230.998C257.7 231.198 257.8 230.598 257.6 230.598C257.3 230.598 257 230.398 256.7 230.398C256.4 230.398 256 230.498 255.7 230.398C255.4 230.398 255.2 229.998 254.8 230.298C254.5 230.498 254.4 229.998 254.1 229.998C253.8 229.998 253.5 229.998 253.4 229.798C253.3 229.598 253.1 229.398 252.9 229.398C252.8 229.398 252.6 229.698 252.5 229.698C252.4 229.698 252.3 229.398 252.1 229.898C252.1 229.898 252.1 229.898 252.1 229.698C252.1 229.298 251.9 229.298 251.8 229.498C251.6 229.698 251.6 229.698 251.5 229.698C251.2 229.698 251 229.698 250.7 229.498C250.5 229.498 250.4 229.198 250.2 229.098C250 228.998 249.7 229.198 249.6 228.898C249.5 228.598 249.3 228.598 249.1 228.498C249 228.498 248.9 228.198 248.7 228.798C248.6 227.998 248.1 228.898 247.8 228.698C247.5 228.398 247.2 228.498 246.9 228.498C246.9 228.498 246.8 228.298 246.6 228.698C246.6 228.798 246.5 228.798 246.4 228.698C246.3 228.098 246 228.398 245.8 228.198C245.6 227.998 245.2 228.198 245.1 227.698C245.1 227.498 244.9 227.298 244.6 227.898C244.5 228.098 244.4 227.898 244.3 227.898C244.3 227.898 244.1 228.198 244 228.198C244 228.198 244 227.998 243.9 227.798C243.4 228.298 243.2 227.398 242.7 227.498C242.3 227.498 241.9 227.498 241.5 227.298C241.3 227.298 241.1 226.998 241.1 225.898C241.1 225.398 241.2 224.898 241.4 224.598C241.5 224.398 241.6 224.198 241.7 224.198C241.8 224.198 242 223.998 242.1 223.998C242.4 223.898 242.7 223.398 243 223.698C243 223.698 243.2 223.498 243.2 223.998C243.7 223.298 244 223.898 244.4 223.998C244.7 223.998 245.1 223.498 245.4 223.798C245.7 223.198 245.9 223.398 246 223.598C246.5 224.298 247.2 224.098 247.8 224.298C248.4 224.498 249 224.598 249.7 224.698C249.8 224.698 250 224.398 250 224.698C250 224.998 250.3 224.798 250.4 224.798C250.5 224.798 250.7 224.798 250.8 224.898C251.1 225.598 251.7 225.398 252.2 225.498C252.7 225.698 253.1 225.898 253.7 225.798C254 225.798 254.4 225.498 254.7 225.798C254.8 225.798 255 225.598 255 226.198C255 226.398 255.2 225.998 255.3 225.998C255.5 225.998 255.7 225.998 255.9 226.098C256.2 226.098 256.4 226.298 256.7 226.298C256.9 226.298 257.1 226.098 257.3 226.098C257.5 226.098 257.7 226.098 257.8 226.198C258 226.298 258.2 226.598 258.4 226.698C258.6 226.798 258.9 226.698 259.1 226.898C259.4 227.498 259.9 227.398 260.3 227.498C260.7 227.698 261.1 227.798 261.5 227.798C261.8 227.798 261.8 228.298 262.1 228.398C262.2 228.398 262 229.798 261.8 230.298C261.8 230.298 261.8 230.498 261.7 230.498C261.4 230.898 261 231.498 260.7 231.298C260.3 231.098 260 231.098 259.6 230.998L259.2 231.098Z" fill="#FE5102"/>
<path d="M257.9 240.398C257.7 240.398 257.6 240.298 257.4 240.398C257.4 240.398 257.4 240.198 257.1 240.598C257.1 240.798 257.1 240.198 257.1 240.298C256.9 240.298 256.8 240.298 256.6 240.298C256.4 240.298 256.2 240.498 256.1 240.498C255.9 240.498 255.8 240.198 255.6 240.498C255.4 240.698 255.4 240.198 255.3 240.298C255.1 240.298 255 240.398 254.9 240.198C254.9 239.998 254.8 239.798 254.7 239.898L254.5 240.198C254.5 240.198 254.5 239.898 254.3 240.498C254.3 240.498 254.3 240.498 254.3 240.398C254.3 239.998 254.3 239.998 254.1 240.298C254 240.498 254 240.498 253.9 240.498C253.8 240.498 253.6 240.498 253.5 240.498C253.5 240.498 253.4 240.198 253.3 240.098C253.3 240.098 253 240.298 253 239.998C253 239.698 252.9 239.698 252.8 239.698C252.8 239.698 252.8 239.398 252.6 239.998C252.6 239.198 252.3 240.198 252.1 239.998C252 239.798 251.8 239.898 251.6 239.898C251.6 239.898 251.6 239.698 251.4 240.098C251.4 240.198 251.4 240.298 251.4 240.098C251.4 239.498 251.2 239.798 251.1 239.698C251 239.598 250.8 239.698 250.8 239.298C250.8 239.098 250.8 238.998 250.5 239.498C250.5 239.698 250.5 239.498 250.3 239.498C250.3 239.498 250.2 239.798 250.1 239.798C250.1 239.798 250.1 239.598 250.1 239.498C249.8 240.098 249.7 239.198 249.5 239.298C249.3 239.398 249.1 239.298 248.9 239.198C248.8 239.198 248.7 238.898 248.9 237.898C248.9 237.398 249.1 236.898 249.2 236.598C249.2 236.398 249.4 236.198 249.4 236.098C249.4 236.098 249.6 235.898 249.7 235.798C249.9 235.598 250.1 235.198 250.2 235.498C250.2 235.498 250.3 235.298 250.2 235.798C250.5 235.098 250.6 235.598 250.8 235.598C251 235.598 251.2 234.998 251.3 235.298C251.5 234.698 251.6 234.898 251.6 235.098C251.8 235.798 252.2 235.398 252.5 235.598C252.8 235.798 253.1 235.698 253.4 235.798C253.4 235.798 253.6 235.498 253.6 235.798C253.6 236.098 253.7 235.798 253.8 235.798H254C254.1 236.498 254.4 236.098 254.7 236.298C254.9 236.398 255.2 236.498 255.4 236.398C255.6 236.398 255.8 236.098 255.9 236.198C255.9 236.198 256.1 235.998 256 236.498C256 236.698 256.1 236.298 256.2 236.198C256.3 236.198 256.4 236.198 256.5 236.198C256.6 236.198 256.8 236.298 256.9 236.198C256.9 236.198 257.1 235.998 257.2 235.898C257.3 235.898 257.4 235.898 257.5 235.898C257.5 235.898 257.7 236.198 257.8 236.298C257.9 236.298 258.1 236.198 258.1 236.398C258.2 236.898 258.5 236.698 258.7 236.798C258.9 236.798 259.1 236.998 259.3 236.898C259.4 236.898 259.4 237.298 259.6 237.398C259.6 237.398 259.4 238.798 259.3 239.198V239.398C259.1 239.798 258.8 240.498 258.7 240.398C258.5 240.298 258.3 240.398 258.1 240.298L257.9 240.398Z" fill="#FE5102"/>
<path d="M261.8 378.401C261.5 378.401 261.2 378.301 260.9 378.301C260.8 378.301 260.7 378.001 260.5 378.501C260.5 378.701 260.4 378.101 260.3 378.101C260 378.101 259.7 378.001 259.4 378.101C259.1 378.101 258.8 378.301 258.5 378.301C258.2 378.301 258 378.001 257.7 378.301C257.4 378.501 257.3 378.001 257.1 378.101C256.9 378.101 256.6 378.201 256.4 377.901C256.3 377.701 256.1 377.501 256 377.501C255.9 377.501 255.7 377.801 255.6 377.801C255.6 377.801 255.4 377.501 255.2 378.101C255.2 378.101 255.2 378.101 255.2 377.901C255.2 377.501 255 377.501 254.9 377.701C254.8 377.901 254.7 377.901 254.6 377.901C254.4 377.901 254.1 377.901 253.9 377.801C253.7 377.801 253.6 377.501 253.4 377.401C253.2 377.401 253 377.501 252.9 377.201C252.8 376.901 252.6 376.901 252.5 376.801C252.5 376.801 252.4 376.501 252.2 377.101C252.2 376.301 251.6 377.201 251.4 377.001C251.2 376.701 250.9 376.801 250.6 376.801C250.6 376.801 250.5 376.601 250.3 377.001C250.3 377.101 250.2 377.101 250.1 377.001C250.1 376.401 249.7 376.701 249.5 376.501C249.3 376.301 249 376.501 248.8 376.001C248.8 375.801 248.6 375.601 248.4 376.201C248.3 376.401 248.2 376.201 248.1 376.201C248.1 376.201 247.9 376.501 247.8 376.401C247.8 376.401 247.8 376.201 247.7 376.001C247.2 376.501 247.1 375.601 246.7 375.701C246.3 375.701 246 375.701 245.6 375.401C245.4 375.301 245.3 375.101 245.4 374.001C245.4 373.501 245.6 373.001 245.8 372.701C245.9 372.501 246 372.301 246.1 372.301C246.2 372.301 246.4 372.101 246.5 372.101C246.8 372.001 247.1 371.601 247.3 371.901C247.3 371.901 247.5 371.701 247.4 372.201C247.9 371.601 248.1 372.201 248.4 372.201C248.7 372.201 249.1 371.701 249.3 372.001C249.6 371.501 249.7 371.601 249.8 371.801C250.2 372.501 250.8 372.301 251.3 372.501C251.8 372.701 252.4 372.701 252.9 372.901C252.9 372.901 253.1 372.601 253.2 372.901C253.2 373.201 253.4 373.001 253.5 373.001C253.6 373.001 253.7 373.001 253.8 373.001C254.1 373.701 254.6 373.401 255 373.601C255.4 373.701 255.8 373.901 256.3 373.801C256.6 373.801 256.9 373.501 257.1 373.601C257.1 373.601 257.4 373.401 257.4 373.901C257.4 374.101 257.6 373.701 257.7 373.701C257.9 373.701 258.1 373.701 258.2 373.701C258.4 373.701 258.7 373.801 258.9 373.801C259.1 373.801 259.2 373.601 259.4 373.601C259.6 373.601 259.7 373.601 259.9 373.601C260.1 373.701 260.3 373.901 260.4 374.001C260.6 374.001 260.8 373.901 261 374.101C261.3 374.601 261.7 374.401 262.1 374.501C262.5 374.601 262.8 374.701 263.2 374.601C263.4 374.601 263.5 375.101 263.7 375.101C263.7 375.101 263.7 376.501 263.7 377.001V377.201C263.4 377.601 263.2 378.301 262.9 378.201C262.6 378.101 262.2 378.101 261.9 378.001L261.8 378.401Z" fill="#FE5102"/>
<path d="M259.2 390.598C259 390.598 258.8 390.398 258.6 390.398C258.6 390.398 258.6 390.098 258.3 390.598C258.2 390.798 258.3 390.198 258.3 390.198C258.1 390.198 258 389.998 257.8 389.998C257.6 389.998 257.4 390.098 257.2 389.998C257 389.998 256.9 389.698 256.7 389.898C256.5 390.098 256.5 389.598 256.3 389.698C256.1 389.698 255.9 389.698 255.9 389.498C255.9 389.298 255.9 389.098 255.7 389.098C255.7 389.098 255.5 389.398 255.4 389.398C255.4 389.398 255.4 389.098 255.1 389.598C255.1 389.598 255.1 389.598 255.1 389.498C255.1 389.098 255.1 389.098 254.9 389.298C254.8 389.498 254.7 389.498 254.7 389.498C254.5 389.498 254.4 389.498 254.3 389.398C254.3 389.398 254.2 389.098 254.1 388.998C254 388.998 253.8 389.098 253.8 388.798C253.8 388.498 253.7 388.498 253.6 388.398C253.6 388.398 253.6 388.098 253.3 388.698C253.3 387.898 252.9 388.798 252.8 388.698C252.7 388.498 252.4 388.498 252.3 388.498C252.3 388.498 252.3 388.298 252.1 388.698C252.1 388.798 252 388.798 252 388.698C252 388.098 251.8 388.398 251.7 388.298C251.6 388.198 251.3 388.298 251.3 387.898C251.3 387.698 251.2 387.598 251 388.098C251 388.298 250.9 388.098 250.8 388.098L250.6 388.398C250.6 388.398 250.6 388.198 250.6 388.098C250.2 388.698 250.2 387.798 249.9 387.898C249.6 387.998 249.4 387.898 249.2 387.798C249.1 387.798 249 387.498 249 386.398C249 385.898 249.1 385.398 249.2 385.098C249.2 384.898 249.4 384.698 249.4 384.598C249.4 384.598 249.6 384.398 249.7 384.298C249.9 384.098 250.1 383.698 250.3 383.998C250.3 383.998 250.5 383.798 250.4 384.298C250.8 383.598 250.9 384.098 251.2 384.098C251.4 384.098 251.7 383.598 251.9 383.798C252.1 383.198 252.2 383.398 252.3 383.598C252.6 384.298 253 383.998 253.4 384.198C253.8 384.398 254.2 384.398 254.6 384.498C254.6 384.498 254.8 384.198 254.8 384.498C254.8 384.798 255 384.498 255 384.598H255.2C255.3 385.298 255.7 384.998 256 385.198C256.3 385.398 256.6 385.498 256.9 385.498C257.1 385.498 257.4 385.198 257.6 385.498C257.6 385.498 257.9 385.298 257.7 385.898C257.7 386.098 257.9 385.698 257.9 385.698C258 385.698 258.2 385.698 258.3 385.798C258.5 385.798 258.6 385.998 258.8 385.998C258.9 385.998 259.1 385.798 259.2 385.798C259.3 385.798 259.4 385.798 259.5 385.898C259.6 385.998 259.7 386.298 259.8 386.398C259.9 386.498 260.2 386.398 260.2 386.598C260.2 387.198 260.6 386.998 260.8 387.198C261 387.398 261.3 387.498 261.6 387.498C261.8 387.498 261.6 387.998 261.8 388.098C261.8 388.098 261.3 389.398 261.1 389.798C261.1 389.798 261.1 389.998 261 389.998C260.7 390.298 260.3 390.898 260.1 390.798C259.9 390.598 259.7 390.598 259.5 390.498L259.2 390.598Z" fill="#FE5102"/>
<path d="M448.9 184.401C448.9 184.401 448.8 184.601 449.1 184.201C449.2 184.001 448.9 184.501 448.9 184.501L449.1 184.301C449.1 184.301 449.1 184.501 449.2 184.301C449.4 184.101 449.2 184.501 449.2 184.401C449.2 184.501 449 184.701 449.1 184.601L449.3 184.301C449.3 184.301 449.2 184.501 449.5 184.101C449.5 184.101 449.5 184.101 449.5 184.201C449.3 184.501 449.3 184.501 449.5 184.201C449.6 184.001 449.6 184.001 449.6 184.001C449.6 184.001 449.5 184.201 449.5 184.301C449.4 184.501 449.4 184.501 449.4 184.501C449.4 184.501 449.3 184.701 449.6 184.201C449.2 184.901 449.8 184.001 449.6 184.201C449.6 184.201 449.6 184.301 449.8 184.001C449.8 183.901 449.9 183.901 449.8 184.001C449.5 184.501 449.8 184.201 449.7 184.301C449.7 184.401 449.8 184.201 449.6 184.601C449.5 184.801 449.4 184.901 449.8 184.401L450 184.201C450 184.201 449.9 184.401 449.8 184.501C449.8 184.701 450.2 184.001 449.8 184.501C449.9 184.401 449.9 184.501 449.8 184.501C449.8 184.501 449.8 184.701 449.1 185.601C448.8 186.001 448.5 186.401 448.4 186.701C448.3 186.901 448.1 187.101 448.1 187.101C448.1 187.101 448 187.301 447.9 187.301C447.8 187.401 447.5 187.801 447.6 187.601C447.6 187.601 447.5 187.801 447.7 187.401C447.3 188.001 447.5 187.601 447.5 187.601C447.5 187.601 447.1 188.101 447.2 187.901C446.9 188.401 446.9 188.301 447 188.101C447.3 187.501 447 187.901 447 187.801C447 187.801 447 187.801 447 187.701C447.3 187.201 447 187.501 447 187.401C447 187.401 447 187.301 446.9 187.401C446.9 187.401 446.6 187.701 446.7 187.601C446.7 187.601 446.5 187.801 446.8 187.301C446.8 187.201 446.6 187.501 446.6 187.501L446.4 187.701C446.4 187.701 446.5 187.501 446.5 187.401C446.7 187.001 446.5 187.201 446.5 187.101L446.7 186.701C446.7 186.701 447.5 185.501 447.7 185.101L447.8 184.901C448.1 184.501 448.5 184.001 448.4 184.001L448.9 184.401Z" fill="#FE5102"/>
</svg>
