<svg width="600" height="600" viewBox="0 0 600 600" fill="none" xmlns="http://www.w3.org/2000/svg">
<path d="M335.9 278.102C346.1 264.302 346.3 259.302 363.1 254.102C336.5 259.902 259.6 274.102 259 273.402V275.602C256.8 277.802 258.2 282.002 258.2 282.002L381.8 309.302V309.002C363.2 304.302 347.1 293.202 335.9 278.202V278.102Z" fill="#FE5102"/>
<path d="M359.1 297.202C359.4 297.402 359.5 297.502 360.2 297.902L361.8 298.802L365 300.602L365.4 300.802C365.5 300.802 365.7 300.902 365.9 301.002L367.1 301.502L369.4 302.502L371.7 303.502L372.9 304.002C373.3 304.202 373.7 304.302 374 304.502L377.4 306.202L379.1 307.102L379.5 307.302H379.6L379.8 307.502C380.3 307.902 380.8 308.502 381.5 308.802C381.7 308.902 381.9 309.002 382.1 309.102H382.4C382.4 309.202 382.5 309.302 382.5 309.302C382.7 309.302 383.2 309.502 383.9 309.702C384 309.702 384.2 309.702 383.9 309.702H383.8V310.002C383.6 310.002 383.4 310.002 383.2 310.002C382.1 310.002 381 310.202 379.8 310.202H378L371.8 309.002C367.7 308.202 363.6 307.302 359.5 306.502C356.7 305.902 353.8 305.402 351 304.802C346.2 303.802 341.3 302.402 336.7 301.702C332.7 301.102 329.2 299.802 325.3 299.102C321.2 298.302 317 297.502 313.1 296.402C310.2 295.602 307.4 294.802 304.5 294.202C302.7 293.902 301 293.802 299 293.302C297.2 292.902 295.2 292.202 293.5 292.402C293.4 292.402 292.6 292.102 292.2 292.002C290.3 291.202 287.9 290.702 286.2 290.602C284.5 290.502 283.1 290.202 281.7 289.802C277.6 288.902 273.5 288.102 269.5 287.102C266.5 286.402 263.5 285.502 260.4 284.802C260 284.702 259.5 284.602 259.1 284.502L258 284.302L257 284.002H256.8C256.8 284.002 256.8 284.002 256.7 283.902C256.7 283.802 256.5 283.302 256.5 283.302C256.4 283.002 256.3 282.602 256.2 282.302C256.2 282.002 256 281.602 256 281.202V280.702C255.9 280.502 255.9 280.402 255.9 280.302C255.9 279.302 255.9 278.302 256.1 277.302C256.1 277.002 256.3 276.802 256.4 276.502C256.5 276.202 256.6 276.002 256.8 275.702L257 275.302V275.102C257.1 275.102 257.2 275.102 257.2 275.102C257.2 275.102 257.2 275.102 257.2 275.002C257.2 275.002 257.2 275.002 257.2 274.902V274.502C257.2 274.202 257.2 273.902 257.2 273.602H259.2C259.3 273.502 259.4 273.302 259.4 273.202V273.002C259.4 273.002 259.4 272.702 259.4 272.602V272.102V271.702C259.4 271.702 259.4 271.702 259.5 271.702C259.5 271.702 259.7 271.702 259.9 271.702H260.7C261.3 271.602 261.9 271.502 262.4 271.402C263.6 271.202 264.7 271.102 265.9 270.902C267.6 270.602 269.5 270.602 270.8 269.702C270.9 269.702 271.5 269.502 271.8 269.502C276.7 269.502 281.1 267.602 285.9 266.902C290.9 266.202 295.9 265.102 300.9 264.202C302.2 263.902 303.7 263.902 304.8 263.202C305.2 263.002 306.6 262.702 307.3 262.702C311.1 262.602 314.9 261.502 318.7 260.902C323 260.202 327.3 259.102 331.7 258.702C333.6 258.502 336.1 258.202 338.2 257.202C339.2 256.802 341.3 256.602 342.9 256.202C344.2 255.902 345.4 255.402 346.7 255.102C347.8 254.902 348.9 254.902 350.1 254.802C350.4 254.802 350.8 254.702 351.2 254.602C355 253.402 359 252.802 362.9 252.102L364 256.402C361.7 257.102 359.4 257.702 357.4 258.702C354.6 260.002 352 261.602 349.9 263.602C347.7 265.702 345.9 268.202 344 270.802C341.9 273.702 339.7 276.702 337.3 278.102C336.3 278.702 335.8 278.402 336.5 277.002C337 276.002 337.6 274.802 338.2 273.702C339.3 272.002 340.3 270.202 341.4 268.502C342.5 266.702 343.6 264.902 344.9 263.202C346.2 261.402 347.9 259.802 349.8 258.602C350.1 258.402 350.4 258.202 350.7 258.002C351 257.802 351.3 257.602 351.6 257.402C351.9 257.202 352.2 257.002 352.5 256.902C352.8 256.802 353.1 256.702 353.5 256.702C353.7 256.702 354.2 256.502 354.4 256.302C356.9 254.602 359.8 253.602 362.7 252.702L363.6 256.202C360.7 256.802 357.9 257.302 355 257.902C350.1 258.902 345.5 260.502 340.6 261.202C338 262.302 334.8 262.802 332 263.202C322.2 264.402 312.6 266.702 302.9 268.402C293.1 270.102 283.3 272.002 273.4 273.702C271.7 274.002 270.3 274.602 268.3 274.602C266.4 274.602 264.1 275.302 261.9 275.602C261.5 275.602 261 275.702 260.6 275.802H259.9L259.5 275.902C259.5 275.902 259.3 275.902 259.2 275.902C259.2 275.902 259.2 275.902 259 275.902C258.5 275.902 258 275.602 257.7 275.302L261.3 273.802C261.3 274.202 261.3 274.602 261.3 274.902C261.3 275.502 261.3 276.202 261.3 276.802C261 277.102 260.8 277.402 260.5 277.702V277.902C260.4 277.902 260.3 278.002 260.3 278.002C260 278.402 259.8 279.102 259.8 279.802C259.8 280.002 259.8 280.202 259.8 280.402C259.8 280.402 259.8 280.502 259.8 280.602C259.8 280.602 259.8 280.702 259.8 280.802C259.8 280.902 259.8 280.902 259.8 281.002H260H260.1H260.3L261.7 281.402L264.6 282.002C268.4 282.802 272.3 283.602 276.1 284.502C283.7 286.202 291.3 288.002 299 289.502C303.7 290.402 308.3 291.102 313 292.302C315 292.802 317.1 292.902 319 293.902C319.5 294.202 321.5 294.202 322.8 294.402C326 295.102 329.2 295.802 332.4 296.502C336.8 297.502 341.3 298.502 345.7 299.402C348.4 300.002 351.1 300.302 353.8 300.902C355 301.202 356.3 301.402 357.5 301.702C357.5 301.702 357.5 301.702 357.7 301.702C357.8 301.702 358.1 301.902 358.6 302.102C359 302.302 359.6 302.502 360.1 302.602C360.5 302.702 360.6 302.702 360.7 302.602C360.7 302.602 360.7 302.602 361.5 302.802C361.6 302.802 361.7 302.802 361.7 302.802H362C363.5 303.402 362.7 303.102 361.7 302.802C360.7 302.402 359.6 301.902 358.8 301.402L358.1 301.002H357.9C357.9 300.902 357.5 300.702 357.5 300.702L356.4 300.002C354.9 299.102 353.6 298.102 352.2 297.102C349.5 295.002 346.8 292.902 344.3 290.602C341.4 288.002 339.4 285.002 337 282.102C335.9 280.702 335.6 278.002 336.4 278.302C336.6 278.302 336.8 278.502 337 278.702C339.5 281.302 342.2 283.302 345 286.302C347.1 288.502 349.4 290.502 351.7 292.402C354.1 294.302 356.5 296.002 359.1 297.602V297.202Z" fill="#FE5102"/>
<path d="M303.3 288.601L306.1 288.001L304.7 286.301L301.2 282.301C299.8 280.801 298.6 279.001 296.8 277.801C295.9 277.201 295.1 275.301 293.7 273.901C290.2 270.101 286.7 266.301 283 262.701C279.4 259.201 275.7 255.901 272 252.601C268.3 249.401 264.6 245.901 260.6 243.201C258.9 242.101 257.3 240.901 255.8 239.701C254.2 238.601 252.8 237.401 251.1 236.401C247.5 234.201 243.9 232.201 240.3 230.401C237.7 229.001 235 227.801 232.2 226.901C231.3 226.601 230.4 226.501 229.6 226.301C228.7 226.101 227.8 225.901 226.8 225.601C225.9 225.301 225 225.001 224 224.801C223.1 224.601 222.1 224.501 221.3 224.601C221.2 224.601 220.4 224.301 220 224.201C219.1 223.801 218 223.501 216.9 223.301C215.8 223.101 214.8 223.001 214 223.001C212.4 223.001 210.9 222.801 209.4 222.601C205.3 222.201 201.1 221.901 197 221.901C195.5 221.901 193.9 221.901 192.4 221.901C190.9 221.901 189.3 221.901 187.8 222.101C186.2 222.301 184.5 222.501 183 222.901C182.2 223.101 181.4 223.201 180.6 223.301C179.8 223.501 179.1 223.601 178.3 223.701C175.3 224.101 172.6 225.101 170 226.201C168.5 226.901 166.6 227.401 165.8 228.701C165.8 228.801 165.2 229.101 164.9 229.201C163.8 229.601 162.8 230.201 161.8 230.901C160.8 231.501 160 232.401 159.2 233.101C158.3 233.901 157.7 234.801 156.9 235.701C156.1 236.501 155.5 237.501 154.7 238.401C151.7 242.101 149.8 246.801 148.8 251.601C148.8 251.901 148.6 252.201 148.5 252.601C148.5 252.901 148.4 253.301 148.3 253.601C148.3 254.301 148.2 254.901 148.3 255.501C148.3 255.701 148.3 256.201 148.3 256.601C148.3 257.101 148.3 257.501 148.2 257.901C147.8 259.601 147.9 261.601 147.9 263.501C148.1 265.401 148.2 267.401 148.4 269.301C148.7 273.701 149.5 278.101 149.6 282.601C149.6 284.501 149.8 287.101 150.7 289.301C151.1 290.301 151.1 292.501 151.4 294.101C151.6 295.401 152.1 296.701 152.3 298.001C152.5 299.101 152.4 300.301 152.5 301.401C152.5 301.701 152.5 302.201 152.7 302.501C154.3 308.801 154.5 315.401 155.7 321.801C157 328.301 158 334.901 159.2 341.401C159.8 345.001 160.4 348.701 159.8 351.401C159.5 352.601 159 352.701 158.3 351.301C157.8 350.201 157.3 349.001 157 347.701C156.5 345.701 155.9 343.601 155.5 341.701C154.5 337.601 153.2 333.501 152.8 329.101C152.7 327.701 152.1 326.201 152.4 325.001C152.4 324.801 152.4 324.301 152.4 324.001C150.7 318.401 150.2 312.301 149.2 306.401C148.4 301.401 147 296.601 146.6 291.501C145.6 288.801 145.3 285.501 145.1 282.601C144.8 277.601 144.3 272.601 143.9 267.501L143.6 263.701L143.4 259.801C143.4 258.501 143.4 257.101 143.5 255.801L144.1 251.901C145.1 246.701 147 241.501 150 237.001C153 232.501 157 228.601 161.5 225.801C163.1 224.901 164.2 223.701 166.3 223.101C167.3 222.801 168.3 222.301 169.4 221.901C170.5 221.501 171.6 220.901 172.7 220.601C173.7 220.301 174.7 219.901 175.7 219.601C176.7 219.301 177.7 219.101 178.7 218.901C186.8 217.801 195 216.901 203.1 217.501C207.1 217.801 211.2 218.201 215.1 218.901C217.1 219.201 219.1 219.601 221 220.001C223 220.501 224.9 220.901 226.9 221.401C231.7 222.601 236.4 223.901 241 226.001C242 226.501 243 226.801 244 227.301C245 227.801 245.9 228.301 246.7 229.101C247.1 229.501 249.1 230.101 250.3 230.801C251.7 231.701 253.2 232.601 254.6 233.501L258.8 236.401C262.6 239.201 266.3 242.001 269.9 245.001C271 245.901 272.1 246.801 273.2 247.701C274.3 248.601 275.4 249.501 276.5 250.401C278.8 252.401 280.9 254.401 283 256.501C284.3 257.901 285.6 259.201 286.9 260.601C288.2 262.001 289.4 263.401 290.7 264.801C293.3 267.701 296.3 270.501 298.6 273.401C300.5 275.901 302.6 278.301 304.6 280.701L312.8 290.201L309.8 290.901C305.9 291.701 301.9 292.601 298 293.401C294.7 294.101 291.3 294.901 288 295.701C284.2 296.601 280.7 296.901 277 297.701C275.3 298.101 272.6 297.201 273.2 296.501C273.3 296.401 273.6 296.201 273.8 296.101C277.3 294.901 280.5 293.401 284.7 292.601C290.9 291.301 297 289.901 303.1 288.601H303.3Z" fill="black"/>
<path d="M253.8 317.801C254.1 318.101 254.5 318.301 254.9 318.601C255.3 318.901 255.6 319.101 256 319.301C256.3 319.501 256.5 319.901 257 319.601C257.3 319.501 257.2 320.201 257.5 320.301C257.9 320.501 258.2 320.701 258.6 320.901C259 321.101 259.4 321.301 259.7 321.401C260.5 321.701 261.3 321.701 262.1 321.901C262.9 322.101 263.6 322.601 264.4 322.501C265.1 322.401 265.6 323.001 266.2 323.001C266.9 323.001 267.6 323.001 268.2 323.301C268.7 323.501 269.1 323.801 269.6 323.701C269.9 323.701 270.2 323.301 270.5 323.401C270.8 323.401 271.1 323.701 271.4 323.001C271.4 323.001 271.6 323.001 271.6 323.101C271.9 323.501 272.3 323.501 272.6 323.101C272.7 323.001 272.8 322.901 273 322.801C273 322.801 273.3 323.001 273.4 322.901C273.4 322.801 273.1 322.701 273.4 322.601C273.6 322.101 273.4 321.501 273.4 321.101C273.4 320.801 273.6 320.401 272.9 320.301C272.9 320.301 272.9 320.201 272.9 320.101C273.6 319.101 272.3 318.501 272.4 317.601C272.4 316.701 272.2 315.801 272 314.901C272 314.701 272.1 314.401 271.6 314.201C271.4 314.201 271.4 313.901 271.5 313.801C272 313.101 271.5 312.401 271.5 311.701C271.5 310.901 271.2 310.201 271.5 309.301C271.7 308.901 271.7 308.501 271.1 308.101C270.8 307.901 271.1 307.501 271 307.301C271 307.101 270.6 306.901 270.6 306.601C270.6 306.401 270.8 306.201 270.9 306.001C270.9 306.001 270.9 305.901 270.9 305.801C270.2 304.701 270.9 303.501 270.7 302.401C270.5 301.301 270.5 300.101 270.6 298.901C270.6 298.301 270.8 297.601 272 297.201C272.5 297.001 273.1 297.001 273.4 297.201C273.6 297.401 273.9 297.601 273.9 297.801C274 298.201 274.1 298.501 274.2 298.801C274.4 299.501 275 300.201 274.7 301.001C274.7 301.201 274.9 301.501 274.4 301.701C274.4 301.701 274.3 301.801 274.4 301.901C275.2 302.801 274.8 303.901 274.9 304.901C275 305.801 275.7 306.501 275.5 307.401C276.2 307.801 276.1 308.401 276 308.901C275.5 310.601 276.2 312.301 276.3 314.001C276.5 315.701 276.8 317.401 277.1 319.101C277.1 319.401 277.5 319.601 277.3 320.001C277.1 320.401 277.3 320.701 277.5 321.101C277.5 321.501 277.8 321.701 277.7 322.401C277.7 323.601 277.7 324.601 278 325.701V326.101L278.1 326.301C278.1 326.301 278.1 326.501 278.1 326.401L277.3 326.601C276.8 326.701 276.2 326.801 275.6 326.901C275 326.901 274.5 327.101 273.9 327.101H272.6C271.9 327.201 271.2 327.301 270.4 327.401C269.5 327.401 268.6 327.801 267.7 327.601C267.3 327.601 266.9 327.801 266.6 327.201C266.6 327.001 266.1 327.401 265.9 327.401C265.3 327.401 264.7 327.201 264.1 327.101L261.6 326.501C261.1 326.401 260.5 326.501 260 326.401C259.5 326.301 258.9 326.101 258.5 325.801C257.9 325.501 257.3 325.001 256.7 324.601C256.1 324.201 255.3 324.101 254.8 323.601C254.4 323.101 253.9 322.701 253.4 322.301C252.9 322.001 252.3 321.601 251.8 321.201C250.8 320.401 249.9 319.601 248.9 318.801C248.3 318.401 248.3 317.501 247.8 317.001C247.6 316.801 248.4 315.501 248.9 315.201C248.9 315.201 249.1 315.201 249.2 315.201C250 315.301 250.9 315.201 251.3 315.801C251.6 316.201 252 316.501 252.4 316.901L253.6 317.801H253.8Z" fill="black"/>
<path d="M264.3 352.102L262.4 350.802C262.2 350.602 262.1 350.302 261.5 350.502C261.2 350.602 261.5 349.902 261.2 349.802C260.6 349.402 260.2 348.802 259.6 348.402C259.1 348.002 258.4 347.602 257.9 347.202C257.4 346.702 257.2 346.002 256.5 345.702C255.9 345.402 256 344.702 255.6 344.402C255.2 344.002 254.7 343.602 254.6 343.002C254.6 342.602 254.4 342.102 254.1 341.902C253.9 341.702 253.5 341.702 253.4 341.502C253.3 341.302 253.4 340.902 252.7 341.102C252.7 341.102 252.7 341.002 252.7 340.902C252.9 340.402 252.7 340.202 252.3 340.202C252 340.202 251.9 340.002 251.7 339.802C251.4 339.402 251 338.902 250.8 338.402C250.6 338.002 250.6 337.602 250.4 337.202C250.2 336.802 249.7 336.602 249.7 336.102C249.7 335.602 249.5 335.302 249.3 334.902C249.2 334.702 249.3 334.302 248.6 334.502C248.6 334.502 248.6 334.502 248.6 334.402C249 333.402 247.7 333.402 247.6 332.702C247.5 332.002 247 331.402 246.7 330.702C246.7 330.502 246.7 330.302 246.2 330.302C246 330.302 245.9 330.102 246 330.002C246.4 329.302 245.9 328.902 245.8 328.302C245.8 327.602 245.3 327.102 245.7 326.302C245.9 326.002 245.9 325.602 245.3 325.402C245 325.302 245.3 324.902 245.2 324.702C245.2 324.502 244.9 324.302 244.8 324.102C244.8 323.902 245 323.802 245.1 323.602C245.1 323.602 245.1 323.502 245.1 323.402C244.5 322.402 245.4 321.502 245.5 320.502C245.5 319.502 245.9 318.502 246.5 317.602C246.8 317.102 247.3 316.702 248.4 317.002C248.9 317.202 249.4 317.502 249.5 317.802C249.6 318.002 249.7 318.302 249.7 318.502C249.7 318.802 249.7 319.002 249.7 319.302C249.7 319.802 250 320.402 249.7 320.802C249.6 320.902 249.8 321.202 249.3 321.102C249.9 321.902 249.3 322.402 249.3 323.102C249.3 323.702 250 324.202 249.7 324.702C250.4 324.902 250.3 325.302 250.1 325.602C249.6 326.802 250.4 327.802 250.7 328.902C251 330.002 251.7 331.102 252.3 332.102C252.4 332.302 252.8 332.302 252.7 332.602C252.6 332.902 252.9 333.102 253.1 333.302C253.2 333.502 253.5 333.702 253.5 333.902C253.5 335.102 254.4 335.702 254.9 336.602C255.4 337.502 255.9 338.302 256.7 339.102C257.1 339.502 257.8 339.802 258 340.402C258.1 340.602 258.5 340.702 258.2 341.202C258.2 341.402 258.6 341.202 258.7 341.402C259 341.702 259.2 342.002 259.5 342.302C259.9 342.702 260.2 343.202 260.6 343.602C260.8 343.802 261.3 343.902 261.5 344.102C261.8 344.302 262 344.602 262.2 344.902C262.5 345.302 262.6 345.702 262.9 346.102C263.2 346.502 263.7 346.602 263.9 347.102C264.2 348.002 265 348.302 265.7 348.802C266.3 349.302 267 349.802 267.8 350.002C268.2 350.202 268.4 350.802 268.8 350.902C269 350.902 268.8 352.502 268.5 352.902C268.5 352.902 268.4 353.102 268.3 353.102C267.7 353.302 266.9 353.802 266.4 353.502C265.6 353.102 264.9 352.702 264.1 352.202L264.3 352.102Z" fill="black"/>
<path d="M242.8 395.701C243.5 395.101 244.3 394.501 245 393.901C245.3 393.701 245.7 393.601 245.7 393.001C245.7 392.701 246.3 393.001 246.6 392.701C247.2 392.101 248 391.601 248.6 391.001C249.2 390.401 249.8 389.701 250.4 389.101C251 388.501 251.9 388.201 252.3 387.401C252.7 386.701 253.5 386.701 253.9 386.201C254.4 385.601 254.9 385.101 255.6 384.901C256.1 384.701 256.6 384.601 256.9 384.201C257.1 383.901 257.1 383.501 257.4 383.301C257.7 383.101 258.1 383.101 257.9 382.401C257.9 382.401 258.1 382.401 258.2 382.401C258.7 382.401 259 382.201 259 381.801C259 381.401 259.2 381.301 259.4 381.101C259.8 380.601 260.3 380.101 260.8 379.701C261.2 379.401 261.6 379.101 262 378.801C262.4 378.401 262.4 377.801 262.9 377.601C263.4 377.401 263.6 377.001 263.8 376.601C263.9 376.401 264.3 376.201 263.8 375.801V375.701C264.9 375.301 264.1 374.201 264.5 373.601C264.9 372.901 265 372.101 265.1 371.301C265.1 371.101 265.4 370.901 264.9 370.601C264.8 370.601 264.8 370.301 264.9 370.201C265.6 369.701 265.3 369.001 265.5 368.401C265.7 367.701 265.5 366.901 266 366.201C266.2 365.901 266.4 365.501 265.8 365.001C265.5 364.801 265.8 364.501 265.8 364.201C265.8 364.001 265.5 363.701 265.5 363.501C265.5 363.301 265.8 363.101 265.9 362.901C265.9 362.901 265.9 362.801 265.9 362.701C265.3 361.501 266.2 360.501 266.1 359.401C266 358.301 266.1 357.101 266.3 356.001C266.3 355.401 266.6 354.701 267.8 354.401C268.3 354.201 268.9 354.301 269.2 354.601C269.4 354.801 269.6 355.001 269.7 355.301C269.7 355.701 269.9 356.001 270 356.401C270.2 357.101 270.6 357.901 270.3 358.601C270.2 358.801 270.5 359.101 270 359.301C270 359.301 269.9 359.401 270 359.501C270.7 360.501 270.2 361.501 270.2 362.601C270.2 363.501 270.8 364.301 270.5 365.201C271.1 365.701 271 366.301 270.7 366.801C269.9 368.501 270.2 370.301 269.8 372.101C269.4 373.901 269 375.801 268.2 377.601C268.1 377.901 268.2 378.301 267.9 378.601C267.5 378.801 267.5 379.301 267.3 379.701C267.1 380.001 267 380.501 266.7 380.701C265.3 381.601 264.7 383.001 263.7 384.001C262.7 385.001 261.6 385.901 260.6 387.001C260 387.601 259.6 388.401 258.9 388.901C258.6 389.101 258.5 389.601 257.9 389.301C257.7 389.301 257.7 389.801 257.6 390.001C257.2 390.401 256.7 390.701 256.3 391.101C255.7 391.601 255 392.101 254.5 392.601C254.1 392.901 253.9 393.401 253.6 393.801C253.2 394.201 252.8 394.501 252.4 394.701C251.9 395.001 251.2 395.301 250.7 395.601C250.1 396.001 249.8 396.601 249.1 396.801C247.9 397.101 247.1 398.101 246.2 398.801C245.3 399.501 244.3 400.201 243.5 401.001C243 401.501 242.2 401.501 241.7 401.901C241.5 402.101 240.2 401.201 240 400.701C240 400.701 240 400.501 240 400.401C240.2 399.601 240.2 398.701 240.8 398.301C241.7 397.701 242.5 397.001 243.3 396.301L242.8 395.701Z" fill="black"/>
<path d="M240.3 285.598C240.3 285.298 240.2 284.998 240 284.698C240 284.598 240.2 284.398 239.6 284.398C239.3 284.398 239.9 284.198 239.9 284.098C239.8 283.798 239.9 283.498 239.7 283.198C239.7 282.898 239.3 282.698 239.3 282.398C239.3 282.098 239.5 281.798 239.2 281.598C238.9 281.398 239.4 281.098 239.3 280.898C239.2 280.698 239.1 280.398 239.3 280.198C239.5 279.998 239.7 279.898 239.6 279.698C239.6 279.598 239.2 279.498 239.3 279.298C239.3 279.198 239.6 279.098 239 278.898C239 278.898 239 278.898 239.2 278.898C239.6 278.898 239.6 278.698 239.4 278.598C239.1 278.498 239.2 278.398 239.2 278.298C239.2 278.098 239.2 277.798 239.4 277.598C239.4 277.398 239.8 277.298 239.9 277.198C240 276.998 239.8 276.798 240.1 276.698C240.4 276.698 240.5 276.498 240.5 276.298C240.5 276.298 240.8 276.298 240.3 275.898C241.2 275.898 240.3 275.298 240.6 275.098C240.9 274.898 240.9 274.598 241 274.298C241 274.298 241.2 274.298 240.9 273.998C240.8 273.998 240.8 273.798 240.9 273.798C241.6 273.898 241.3 273.498 241.5 273.398C241.7 273.198 241.6 272.898 242.2 272.898C242.4 272.898 242.6 272.898 242.2 272.398C242 272.198 242.3 272.298 242.3 272.098C242.3 272.098 242.1 271.798 242.2 271.698C242.2 271.698 242.5 271.698 242.6 271.698C242.3 270.998 243.2 271.298 243.4 270.898C243.5 270.498 243.8 270.298 244.2 270.098C244.4 269.998 244.7 269.998 245.5 270.698C245.9 270.998 246.2 271.498 246.4 271.798C246.5 271.998 246.6 272.198 246.6 272.298C246.6 272.398 246.6 272.598 246.6 272.698C246.6 272.998 246.8 273.498 246.6 273.398C246.5 273.398 246.6 273.598 246.3 273.398C246.7 274.098 246.2 273.898 246.1 274.198C246.1 274.398 246.4 274.898 246.1 274.898C246.5 275.298 246.4 275.398 246.1 275.398C245.3 275.398 245.5 275.998 245.2 276.298C244.9 276.598 244.9 277.098 244.7 277.398C244.7 277.398 245 277.598 244.7 277.598C244.4 277.598 244.6 277.798 244.6 277.798C244.6 277.798 244.6 277.998 244.5 277.998C243.8 278.098 244.1 278.598 243.9 278.898C243.8 279.198 243.6 279.498 243.8 279.898C243.8 280.098 244.2 280.298 244 280.498C244 280.498 244.3 280.698 243.7 280.698C243.5 280.698 244 280.798 244 280.898C244 280.998 244 281.198 244 281.298C244 281.498 244 281.698 244 281.898C244 281.998 244.3 282.098 244.4 282.198C244.4 282.298 244.4 282.398 244.4 282.498C244.4 282.698 244.2 282.798 244.1 282.998C244.1 283.198 244.4 283.298 244.1 283.498C243.7 283.898 244 284.098 244 284.398C244 284.698 244 284.998 244.3 285.198C244.4 285.298 244 285.598 244.1 285.798C244.1 285.798 242.8 286.598 242.3 286.698H242.1C241.6 286.698 240.9 286.798 240.8 286.598C240.8 286.198 240.6 285.898 240.5 285.598H240.3Z" fill="black"/>
<path d="M254.8 285.598C254.8 285.298 254.7 284.998 254.5 284.698C254.5 284.598 254.7 284.398 254.1 284.398C253.8 284.398 254.4 284.198 254.4 284.098C254.3 283.798 254.4 283.498 254.2 283.198C254.2 282.898 253.8 282.698 253.8 282.398C253.8 282.098 254 281.798 253.7 281.598C253.4 281.398 253.9 281.098 253.8 280.898C253.7 280.698 253.6 280.398 253.8 280.198C254 279.998 254.2 279.898 254.1 279.698C254.1 279.598 253.7 279.498 253.8 279.298C253.8 279.198 254.1 279.098 253.5 278.898C253.5 278.898 253.5 278.898 253.7 278.898C254.1 278.898 254.1 278.698 253.9 278.598C253.6 278.498 253.7 278.398 253.7 278.298C253.7 278.098 253.7 277.798 253.9 277.598C253.9 277.398 254.3 277.298 254.4 277.198C254.5 276.998 254.3 276.798 254.6 276.698C254.9 276.698 255 276.498 255 276.298C255 276.298 255.3 276.298 254.8 275.898C255.7 275.898 254.8 275.298 255.1 275.098C255.4 274.898 255.4 274.598 255.5 274.298C255.5 274.298 255.7 274.298 255.4 273.998C255.3 273.998 255.3 273.798 255.4 273.798C256.1 273.898 255.8 273.498 256 273.398C256.2 273.198 256.1 272.898 256.7 272.898C256.9 272.898 257.1 272.898 256.7 272.398C256.5 272.198 256.8 272.298 256.8 272.098C256.8 272.098 256.6 271.798 256.7 271.698C256.7 271.698 257 271.698 257.1 271.698C256.8 270.998 257.7 271.298 257.9 270.898C258 270.498 258.3 270.298 258.7 270.098C258.9 269.998 259.2 269.998 260 270.698C260.4 270.998 260.7 271.498 260.9 271.798C261 271.998 261.1 272.198 261.1 272.298C261.1 272.398 261.1 272.598 261.1 272.698C261.1 272.998 261.3 273.498 261.1 273.398C261 273.398 261.1 273.598 260.8 273.398C261.2 274.098 260.7 273.898 260.6 274.198C260.6 274.398 260.9 274.898 260.6 274.898C261 275.298 260.9 275.398 260.6 275.398C259.8 275.398 260 275.998 259.7 276.298C259.4 276.598 259.4 277.098 259.2 277.398C259.2 277.398 259.5 277.598 259.2 277.598C258.9 277.598 259.1 277.798 259.1 277.798C259.1 277.798 259.1 277.998 259 277.998C258.3 278.098 258.6 278.598 258.4 278.898C258.3 279.198 258.1 279.498 258.3 279.898C258.3 280.098 258.7 280.298 258.5 280.498C258.5 280.498 258.8 280.698 258.2 280.698C258 280.698 258.5 280.798 258.5 280.898C258.5 280.998 258.5 281.198 258.5 281.298C258.5 281.498 258.5 281.698 258.5 281.898C258.5 281.998 258.8 282.098 258.9 282.198C258.9 282.298 258.9 282.398 258.9 282.498C258.9 282.698 258.7 282.798 258.6 282.998C258.6 283.198 258.9 283.298 258.6 283.498C258.2 283.898 258.5 284.098 258.5 284.398C258.5 284.698 258.5 284.998 258.8 285.198C258.9 285.298 258.5 285.598 258.6 285.798C258.6 285.798 257.3 286.598 256.8 286.698H256.6C256.1 286.698 255.4 286.798 255.3 286.598C255.3 286.198 255.1 285.898 255 285.598H254.8Z" fill="black"/>
<path d="M157.9 407C157.9 406 157.9 404.9 157.9 403.9C157.9 403.5 158.1 403.1 157.6 402.7C157.3 402.5 158 402.1 157.9 401.8C157.9 400.8 157.9 399.9 157.9 398.9C157.9 398 157.6 397 157.5 396.1C157.5 395.2 157.7 394.2 157.4 393.3C157.1 392.5 157.6 391.8 157.4 391.1C157.3 390.3 157.2 389.5 157.4 388.7C157.6 388.1 157.8 387.6 157.7 387C157.7 386.7 157.3 386.3 157.3 386C157.3 385.7 157.6 385.2 157 385C157 385 157 384.8 157.1 384.7C157.5 384.3 157.5 383.9 157.1 383.5C156.8 383.2 156.9 382.9 156.8 382.6C156.8 381.8 156.8 381 156.8 380.2C156.8 379.6 157.1 379 157.1 378.4C157.1 377.8 156.9 377.1 157.1 376.6C157.4 376 157.4 375.5 157.4 374.9C157.4 374.6 157.7 374.2 157 374C157 374 157 373.9 157 373.8C157.8 372.9 156.7 372 157 371.1C157.2 370.2 157 369.2 157 368.2C157 367.9 157.2 367.7 156.7 367.4C156.5 367.4 156.5 367.1 156.7 366.9C157.3 366.2 156.9 365.4 157 364.7C157.1 363.9 156.8 363 157.3 362.2C157.5 361.8 157.6 361.4 157 360.9C156.7 360.7 157 360.3 157 360C157 359.8 156.7 359.5 156.7 359.3C156.7 359.1 156.9 358.9 157 358.7C157 358.7 157 358.6 157 358.5C156.3 357.3 157.2 356.1 157 354.9C156.8 353.7 156.9 352.4 157 351.2C157 350.5 157.2 349.8 158.4 349.4C158.9 349.2 159.5 349.2 159.8 349.4C160 349.6 160.3 349.9 160.3 350.1C160.4 350.5 160.5 350.9 160.6 351.2C160.8 352 161.3 352.8 161.1 353.6C161.1 353.9 161.3 354.1 160.8 354.4C160.8 354.4 160.7 354.5 160.8 354.6C161.6 355.7 161.1 356.8 161.2 357.9C161.2 358.8 161.9 359.7 161.6 360.7C162.2 361.2 162.1 361.8 162 362.3C161.4 364.2 161.8 366 161.8 367.9C161.8 369.8 161.8 371.7 161.8 373.5C161.8 373.8 162.2 374.1 161.8 374.5C161.5 374.9 161.8 375.3 161.8 375.7C161.8 376.1 161.9 376.5 161.8 376.8C161.2 378.3 161.6 379.8 161.5 381.2C161.5 382.7 161.5 384.1 161.5 385.6C161.6 386.5 162 387.4 161.8 388.3C161.8 388.7 162.1 389.1 161.5 389.5C161.3 389.6 161.8 390 161.8 390.2C161.8 390.8 161.8 391.4 161.8 392C161.8 392.9 161.8 393.7 161.8 394.6C161.8 395.1 162.1 395.6 162.2 396.2C162.2 396.7 162.2 397.3 162.2 397.8C162.2 398.5 161.9 399.2 161.9 399.9C161.9 400.6 162.1 401.4 161.9 402C161.4 403.3 161.7 404.5 161.6 405.8C161.6 407.1 161.6 408.3 161.6 409.6C161.6 410.3 161.2 411 161.2 411.7C161.2 412 159.7 412.5 159.2 412.4C159.2 412.4 159 412.4 159 412.3C158.5 411.6 157.8 411 157.8 410.2C157.8 409 157.8 407.9 157.8 406.7L157.9 407Z" fill="black"/>
<path d="M240.1 411.601C240.1 411.401 240.1 411.201 240.1 411.001C240.1 411.001 240.3 410.801 239.8 410.801C239.5 410.801 240.2 410.601 240.1 410.601C240.1 410.401 240.1 410.201 240.1 410.001C240.1 409.801 239.8 409.601 239.7 409.401C239.7 409.201 239.9 409.001 239.6 408.801C239.3 408.701 239.8 408.501 239.6 408.301C239.5 408.101 239.4 408.001 239.6 407.801C239.8 407.701 240 407.501 239.9 407.401C239.9 407.401 239.5 407.301 239.5 407.201C239.5 407.201 239.8 407.001 239.1 407.001C239.1 407.001 239.1 407.001 239.2 407.001C239.6 406.901 239.6 406.801 239.2 406.701C238.9 406.701 239 406.601 238.9 406.501C238.9 406.301 238.9 406.201 238.9 406.001C238.9 405.901 239.2 405.701 239.2 405.601C239.2 405.501 239 405.401 239.2 405.201C239.5 405.101 239.5 404.901 239.5 404.801C239.5 404.801 239.8 404.601 239.1 404.601C239.9 404.301 238.8 404.201 239 404.001C239.2 403.801 239 403.601 239 403.401C239 403.401 239.2 403.301 238.7 403.301C238.5 403.301 238.5 403.301 238.7 403.301C239.3 403.101 238.9 403.001 239 402.801C239.1 402.601 238.8 402.501 239.3 402.201C239.5 402.201 239.6 402.001 239 402.001C238.7 402.001 239 401.901 239 401.801C239 401.801 238.7 401.801 238.7 401.701C238.7 401.701 238.9 401.601 239 401.501C238.3 401.301 239.2 401.001 239 400.701C238.8 400.501 238.8 400.201 239 399.901C239 399.801 239.2 399.601 240.3 399.401C240.8 399.401 241.4 399.301 241.7 399.301C241.9 399.301 242.2 399.301 242.2 399.401C242.3 399.401 242.4 399.501 242.5 399.601C242.7 399.701 243.3 399.901 243 400.101C243 400.101 243.2 400.101 242.7 400.301C243.5 400.501 243 400.701 243.1 401.001C243.1 401.201 243.8 401.301 243.6 401.601C244.2 401.601 244.1 401.801 244 401.901C243.4 402.301 243.8 402.701 243.8 403.101C243.8 403.501 243.8 403.901 243.8 404.301C243.8 404.301 244.2 404.301 243.8 404.501C243.5 404.501 243.8 404.701 243.8 404.801C243.8 404.801 243.9 405.001 243.8 405.001C243.2 405.401 243.6 405.601 243.5 406.001C243.5 406.301 243.5 406.601 243.6 406.901C243.7 407.101 244.1 407.201 244 407.401C244 407.401 244.3 407.501 243.7 407.701C243.5 407.701 244 407.701 244 407.801C244 407.901 244 408.101 244 408.201C244 408.401 244 408.601 244 408.701C244 408.801 244.3 408.901 244.4 409.001C244.4 409.101 244.4 409.201 244.4 409.301C244.4 409.501 244.1 409.601 244.1 409.801C244.1 410.001 244.3 410.101 244.1 410.301C243.6 410.601 243.9 410.901 243.9 411.101C243.9 411.401 243.9 411.601 243.9 411.901C243.9 412.001 243.5 412.201 243.5 412.401C243.5 412.401 242 412.701 241.5 412.701H241.3C240.8 412.601 240.1 412.501 240.1 412.401C240.1 412.101 240.1 411.901 240.1 411.701V411.601Z" fill="black"/>
<path d="M263.3 421.098C261 421.098 258.6 421.098 256.3 421.098C255.4 421.098 254.5 420.598 253.6 421.698C253.2 422.198 252.3 420.998 251.5 420.998C249.3 421.098 247.1 420.998 245 420.998C242.9 421.098 240.8 421.598 238.7 421.698C236.6 421.798 234.4 421.198 232.4 421.898C230.6 422.498 229.1 421.498 227.4 421.698C225.6 421.998 223.8 422.098 222 421.698C220.7 421.398 219.5 420.898 218.2 421.098C217.4 421.198 216.7 421.898 215.8 421.798C215 421.798 214.1 421.198 213.4 422.498C213.4 422.598 213 422.398 212.8 422.198C211.9 421.398 210.9 421.398 210.2 421.998C209.5 422.498 208.9 422.498 208.2 422.498C206.4 422.498 204.6 422.598 202.8 422.498C201.5 422.498 200.1 421.898 198.8 421.798C197.4 421.698 195.9 422.198 194.6 421.598C193.3 420.998 192.1 420.998 190.8 420.998C190.1 420.998 189.2 420.398 188.6 421.698C188.6 421.798 188.3 421.798 188.2 421.698C186.1 419.998 184.1 422.198 182 421.798C179.9 421.398 177.7 421.698 175.5 421.798C174.9 421.798 174.3 421.398 173.8 422.398C173.6 422.698 173 422.798 172.7 422.498C171.1 421.198 169.4 421.998 167.7 421.798C165.8 421.598 163.9 422.098 162 421.198C161.2 420.798 160.1 420.598 159.1 421.698C158.7 422.198 157.7 421.698 157 421.798C156.4 421.898 155.9 422.398 155.3 422.498C154.8 422.498 154.3 421.998 153.9 421.798C153.8 421.798 153.6 421.798 153.4 421.798C150.6 423.098 147.9 421.398 145.1 421.798C142.3 422.198 139.5 421.998 136.7 421.798C135.2 421.698 133.6 421.298 132.5 418.998C132 417.998 132 416.898 132.7 416.198C133.2 415.698 133.7 415.298 134.3 415.098C135.2 414.898 136.1 414.598 136.9 414.398C138.7 413.998 140.4 412.898 142.3 413.498C142.9 413.698 143.5 413.098 144 414.098C144 414.198 144.3 414.298 144.4 414.198C146.9 412.598 149.4 413.698 151.9 413.498C154 413.498 156.1 412.098 158.2 412.698C159.4 411.398 160.8 411.698 162 411.998C166.2 413.298 170.4 412.398 174.7 412.598C179 412.798 183.3 412.598 187.5 412.598C188.2 412.598 188.9 411.898 189.7 412.498C190.5 412.998 191.5 412.598 192.5 412.598C193.5 412.598 194.3 412.298 195.1 412.598C198.4 413.898 201.8 413.098 205.2 413.298C208.5 413.398 211.9 413.598 215.2 413.298C217.2 413.098 219.3 412.398 221.3 412.698C222.2 412.798 223.1 412.098 224 413.298C224.2 413.598 225.1 412.698 225.6 412.698C227 412.598 228.4 412.698 229.8 412.698C231.2 412.698 233.7 412.698 235.6 412.698C236.8 412.698 238 412.098 239.1 411.998C240.3 411.898 241.6 411.898 242.8 411.998C244.4 412.198 245.9 412.598 247.5 412.698C249.1 412.798 250.8 412.298 252.4 412.798C255.3 413.798 258.2 413.298 261.1 413.398C264 413.498 266.9 413.598 269.7 413.398C271.3 413.298 272.8 414.298 274.4 414.298C275.1 414.298 276.1 417.198 275.8 418.298C275.8 418.498 275.6 418.698 275.5 418.798C273.9 419.698 272.5 421.198 270.7 421.098C268.1 420.998 265.4 421.098 262.8 421.098H263.3Z" fill="black"/>
<path d="M401.3 297C411.517 297 419.8 288.717 419.8 278.5C419.8 268.283 411.517 260 401.3 260C391.083 260 382.8 268.283 382.8 278.5C382.8 288.717 391.083 297 401.3 297Z" fill="black"/>
<path d="M415.3 269.5C414.4 268.1 413.3 266.8 411.9 265.7C411.4 265.3 411 264.7 410.2 264.8C409.8 264.8 409.6 264 409.1 263.7C407.7 263 406.2 262.4 404.6 262.1C403.1 261.9 401.5 262 400 262.1C399.6 262.1 399.3 262.1 398.9 262.2C398.5 262.2 398.1 262.2 397.8 262.3C397.1 262.5 396.3 262.6 395.7 263.1C395.4 263.3 395.2 263.4 394.9 263.5C394.6 263.6 394.4 263.7 394.1 263.8C393.5 264 393 264.2 392.5 264.6C392 265 391.5 265.4 391 265.8C390.5 266.2 390 266.6 389.5 267C389.1 267.3 388.7 267.5 388.4 267.8C388.1 268.1 387.8 268.5 387.6 268.9C387.3 269.4 387.4 270 387 270.5C386.7 271 386.2 271.5 386.6 272.2C386.6 272.2 386.4 272.4 386.3 272.5C386 272.7 385.8 273 385.7 273.3C385.6 273.6 385.7 273.9 385.7 274.2C385.8 274.7 385.7 275.1 385.7 275.6V276.5C385.6 276.8 385.6 277.1 385.5 277.4C385.5 278 385.5 278.6 385.5 279.3C385.5 279.8 385.5 280.2 385.5 280.7C385.5 281.2 385.5 281.7 385.6 282.1C385.6 282.6 385.9 283.1 386.1 283.5C386.3 284 386.4 284.4 386.5 284.9C386.5 285.4 386.7 285.8 386.9 286.2C387.1 286.6 387.3 287 387.6 287.4C387.9 287.8 388.1 288.5 388.8 288.4C388.8 288.4 389 288.5 389 288.6C389.2 289.4 389.7 289.9 390.4 290.3C391 290.7 391.8 290.9 392.3 291.5C393.5 292.5 395 293.1 396.4 293.6C396.8 293.7 397.2 294 397.7 293.6C397.9 293.5 398.3 293.6 398.5 293.7C399.5 294.5 400.8 294.3 401.9 294.3C402.6 294.3 403.2 294.3 403.9 294.1C404.6 294.1 405.2 293.9 405.9 294C406.5 294 407.3 293.8 407.8 293.1C408 292.7 408.7 292.7 409.1 292.4C409.4 292.2 409.6 291.7 409.9 291.5C410.2 291.3 410.6 291.3 410.9 291.2C411 291.2 411.1 291.1 411.2 291C411.3 290.8 411.5 290.6 411.7 290.4C411.9 290.2 412 290 412.2 289.9C412.6 289.6 412.9 289.3 413.3 288.9C413.7 288.6 414.1 288.3 414.4 287.9C414.7 287.5 415.1 287.2 415.3 286.7C416.2 284.9 417 283.1 417.5 281.2C417.6 280.7 417.8 280.1 418 279.6C418.2 279.1 418.6 278.6 419.2 278.2C419.7 277.8 420.3 277.8 420.6 278.4C420.8 278.8 421 279.3 421.1 279.8C421.1 280.6 421.1 281.3 421.1 282.1C420.9 283.6 421 285.4 420 286.7C419.7 287.1 419.7 287.8 419 287.9C419 287.9 418.8 288.1 418.7 288.2C418.3 290.5 416.4 292 414.7 293.4C413.3 294.6 412.1 296.2 410.1 296.8C409.8 297.3 409.2 297.7 408.7 297.9C408.2 298.1 407.6 298.3 407 298.3C405.1 298.5 403.2 298.6 401.3 298.7C399.4 298.7 397.5 298.5 395.6 297.9C391.9 296.7 388.5 294.6 386 291.7C385.6 291.2 384.9 291 384.7 290.2C384.5 289.5 383.8 288.8 383.4 288.1C383 287.4 382.6 286.7 382.4 286C381.9 283 381 280.1 381.2 277.1C381.4 274.1 382.2 271.2 383.5 268.5C384.3 266.9 385 265.1 386.4 263.9C386.9 263.3 387.4 262.6 388.3 262.5C388.6 262.5 388.9 261.7 389.3 261.4C389.8 261 390.3 260.6 390.9 260.3L391.7 259.8L392.6 259.4C394.2 258.6 395.9 258.1 397.6 257.7C398.1 257.6 398.6 257.4 399.2 257.3C399.7 257.1 400.3 257.1 400.8 257C401.1 257 401.4 257 401.7 257H402.6C403.2 257 403.7 257 404.3 257.2C405.7 257.5 407.1 258 408.4 258.5C409.1 258.8 409.8 259 410.5 259.3C410.8 259.4 411.2 259.6 411.5 259.8C411.8 260 412.1 260.2 412.4 260.5C414.4 262.3 416.4 263.8 417.9 265.9C419.4 268 420.5 270.3 421.3 272.7C421.5 273.4 421.6 274.1 421.6 274.8C421.6 275.5 421.6 276.2 421.6 276.9C421.6 277.6 420.2 278.4 419.7 278.2C419.7 278.2 419.5 278.1 419.5 278C419.2 277.4 418.9 276.8 418.6 276.3C418.3 275.8 418.1 275.2 417.9 274.6C417.6 272.7 416.7 270.9 415.7 269.3L415.3 269.5Z" fill="black"/>
<path d="M429.3 248.202C434.1 249.902 438.8 252.002 443.2 254.502C444.9 255.402 446.3 256.702 448.3 257.302C449.2 257.702 450.4 259.202 451.8 260.202C455.6 263.002 459.1 266.302 462.4 269.702L465.8 273.402C466.4 274.002 466.9 274.702 467.4 275.302L470 278.502C468.9 279.902 467.8 281.302 466.7 282.802C463.8 286.402 460.4 289.702 457.2 292.802C454.5 295.602 451.4 297.302 448.5 299.502C446.9 300.602 445.3 301.702 443.6 302.702C442.7 303.202 441.9 303.602 441 304.102C440.6 304.302 440.1 304.602 439.7 304.802C439.3 305.002 438.8 305.202 438.4 305.402C437.1 305.902 435.8 306.502 434.5 306.902C433.2 307.402 431.9 307.902 430.7 308.402C429.1 309.002 427.7 309.802 425.9 310.402C424.2 310.802 422.3 311.202 420.9 312.102C420.8 312.102 420 312.202 419.6 312.202C418.6 312.202 417.6 312.302 416.6 312.502C415.6 312.702 414.7 312.902 413.9 313.102C413.2 313.302 412.4 313.502 411.7 313.602C411 313.702 410.3 313.802 409.6 313.802L406.7 314.102C405.7 314.102 404.7 314.102 403.8 314.202C402.8 314.202 401.8 314.202 400.8 314.202H397.9C396.4 314.002 395 313.802 393.5 313.602L391.3 313.302C390.6 313.202 389.9 313.002 389.1 312.902C386.1 312.402 382.8 312.002 380.1 311.002C378.8 310.502 377.5 310.102 376.1 309.602C374.8 309.102 373.5 308.702 372.2 308.202C370.7 307.702 369.1 306.702 367.7 306.802C367.6 306.802 367 306.602 366.8 306.402C364.9 305.002 362.9 304.202 360.9 303.202C359.9 302.702 358.9 302.302 357.9 301.702C356.9 301.102 355.9 300.602 355 299.902C354 299.302 353.1 298.502 352.1 297.802C351.1 297.102 350.2 296.402 349.2 295.702L346.4 293.502C345.5 292.702 344.6 291.902 343.7 291.102C342.7 290.302 341.9 289.202 340.8 288.602C340.4 288.402 339.4 287.502 339.1 286.902C338.3 285.602 337.3 284.302 336.3 283.102C335 281.402 333.6 279.802 332.3 278.102C332.8 277.402 333.3 276.802 333.9 276.102L336.2 273.302C336.9 272.502 337.5 271.702 338.2 271.002C339.5 269.402 341.1 268.002 342.7 266.702C343.4 266.102 344.2 265.502 345 264.802C345.8 264.102 346.5 263.202 347.2 262.302C347.8 261.502 349.5 260.402 350.7 259.502C351.7 258.702 352.5 257.802 353.5 257.102C354.3 256.502 355.4 256.102 356.3 255.602C356.6 255.502 356.9 255.302 357.2 255.102C362 251.402 367.9 249.602 373.5 247.402C379.2 245.202 385.3 243.902 391.4 243.302C393.1 243.202 394.8 243.102 396.4 243.102C398 243.202 399.4 243.502 400.6 244.002C401.6 244.502 401.6 245.002 400.2 245.302C399.2 245.602 398 245.802 396.9 245.902C395.1 246.102 393.2 246.402 391.4 246.702C389.6 247.102 387.7 247.502 385.9 248.002C384.1 248.502 382.2 248.902 380.4 249.302C379.2 249.602 377.9 250.202 376.9 250.002C376.7 250.002 376.3 250.102 376.1 250.202C374.9 250.802 373.7 251.302 372.6 251.802C371.4 252.402 370.2 252.902 369 253.302L365.4 254.902C364.2 255.402 363.1 256.102 361.9 256.702C361.4 257.002 360.9 257.202 360.5 257.502L359.1 258.402C358.2 259.002 357.3 259.702 356.4 260.302C354.7 261.702 352.9 263.002 351.1 264.302C350.7 264.802 350.3 265.302 349.8 265.702C349.3 266.202 348.9 266.702 348.4 267.102C347.4 268.002 346.4 268.802 345.4 269.702C344.6 270.402 343.8 271.102 343 271.802C342.2 272.502 341.5 273.302 340.8 274.102L339.7 275.302C339.4 275.702 339 276.102 338.7 276.502L337.7 277.802L338.9 279.302C339.6 280.202 340.4 281.002 341.1 281.902C342.6 283.602 344.2 285.202 345.8 286.802C349 289.902 352.5 292.702 356.2 295.202C357.1 295.802 358.1 296.402 359 297.002L360.4 297.902C360.9 298.202 361.4 298.402 361.9 298.702C362.9 299.202 363.8 299.802 364.8 300.302L367.8 301.702C368.5 302.002 369.2 302.202 369.9 302.502C370.6 302.702 371.3 303.002 372.1 303.502C372.8 303.902 373.7 304.302 374.7 304.602C375.6 304.902 376.6 305.202 377.5 305.502C379.2 306.002 381 306.402 382.6 306.902C389.3 309.102 396.4 309.502 403.4 309.302C410.4 309.202 417.4 308.102 424 306.002C428 304.702 431.9 302.902 435.8 301.102C436.6 300.702 437.5 300.302 438.3 299.802C439.1 299.302 440 299.002 440.9 298.802C441.2 298.802 441.6 298.402 442.1 298.002C442.6 297.602 443.1 297.102 443.6 296.802C444.8 296.002 446.1 295.202 447.2 294.402C448.4 293.602 449.6 292.702 450.7 291.802L453.1 289.902L455.4 287.902L456.5 286.902L457.6 285.802L459.7 283.602C460.5 282.702 461.3 281.702 462 280.702C462.4 280.202 462.8 279.702 463.1 279.202L464.1 277.802C464.1 277.802 464.3 278.102 463.4 277.002C462.8 276.202 462.2 275.402 461.6 274.702C460.5 273.502 459.6 272.202 458.4 271.002C457.3 269.802 456.2 268.602 455 267.502C454.4 266.902 453.7 266.402 453.1 265.802C452.4 265.302 451.7 264.702 451.1 264.202C450.4 263.702 449.8 263.102 449.1 262.602C448.4 262.102 447.8 261.602 447.1 261.102C442.4 257.202 436.9 254.502 431.4 252.202C425.9 249.902 420 248.202 414.1 247.402C412.4 247.202 410.8 246.802 409.2 246.602C407.6 246.302 406 246.002 404.3 246.002C402.8 246.002 400.6 244.502 401.3 244.002C401.4 244.002 401.7 243.802 402 243.802C403.7 243.602 405.3 243.402 407 243.302C408.7 243.302 410.5 243.202 412.4 243.502C418.1 244.302 423.8 245.602 429.2 247.602L429.3 248.202Z" fill="#FE5102"/>
<path d="M213 202.699C213 202.399 213 201.999 212.8 201.699C212.8 201.599 213 201.399 212.5 201.399C212.2 201.399 212.8 201.199 212.8 201.099C212.7 200.799 212.8 200.499 212.6 200.199C212.6 199.899 212.3 199.599 212.2 199.299C212.2 198.999 212.4 198.699 212 198.399C211.7 198.199 212.2 197.899 212 197.699C211.9 197.499 211.8 197.199 212 196.899C212.1 196.699 212.3 196.499 212.2 196.299C212.2 196.199 211.8 196.099 211.8 195.999C211.8 195.899 212.1 195.699 211.5 195.699C211.5 195.699 211.5 195.699 211.6 195.699C212 195.499 211.9 195.399 211.6 195.299C211.3 195.299 211.4 195.099 211.3 194.999C211.3 194.699 211.2 194.499 211.3 194.199C211.3 193.999 211.5 193.799 211.6 193.599C211.6 193.399 211.4 193.199 211.6 192.999C211.9 192.799 211.8 192.599 211.8 192.399C211.8 192.299 212.1 192.199 211.5 192.099C212.3 191.699 211.2 191.499 211.4 191.199C211.6 190.899 211.4 190.599 211.4 190.199C211.4 190.199 211.6 189.999 211.1 189.999C210.9 189.999 210.9 189.899 211.1 189.799C211.7 189.499 211.3 189.299 211.4 189.099C211.5 188.799 211.2 188.599 211.7 188.299C211.9 188.199 212 187.999 211.4 187.899C211.1 187.899 211.4 187.699 211.4 187.599C211.4 187.599 211.1 187.499 211.1 187.399C211.1 187.399 211.3 187.299 211.4 187.199C210.8 186.799 211.6 186.399 211.4 185.999C211.2 185.599 211.3 185.199 211.4 184.799C211.4 184.599 211.6 184.299 212.7 184.199C213.2 184.199 213.7 184.199 214 184.199C214.2 184.199 214.4 184.299 214.5 184.399C214.5 184.499 214.7 184.599 214.8 184.799C215 184.999 215.5 185.299 215.2 185.599C215.2 185.599 215.4 185.799 214.9 185.899C215.7 186.199 215.2 186.599 215.2 186.999C215.2 187.299 215.9 187.599 215.6 187.899C216.2 187.999 216.1 188.199 215.9 188.399C215.3 188.999 215.8 189.599 215.7 190.199C215.7 190.799 215.7 191.399 215.7 191.999C215.7 192.099 216 192.199 215.7 192.299C215.5 192.399 215.7 192.599 215.7 192.699C215.7 192.799 215.8 192.899 215.7 193.099C215.1 193.599 215.5 194.099 215.5 194.599C215.5 195.099 215.5 195.599 215.7 195.999C215.8 196.299 216.2 196.499 216.1 196.799C216.1 196.899 216.4 196.999 215.8 197.199C215.6 197.199 216.1 197.299 216.1 197.399C216.1 197.599 216.1 197.799 216.1 197.999C216.1 198.299 216.1 198.599 216.2 198.799C216.2 198.999 216.5 199.099 216.6 199.299C216.6 199.499 216.6 199.599 216.6 199.799C216.6 199.999 216.4 200.299 216.4 200.499C216.4 200.699 216.7 200.899 216.4 201.199C216 201.699 216.3 201.999 216.3 202.499C216.3 202.899 216.3 203.299 216.5 203.699C216.5 203.899 216.2 204.199 216.2 204.399C216.2 204.499 214.9 204.899 214.4 204.899H214.2C213.7 204.699 213 204.599 213 204.399C213 203.999 213 203.599 212.9 203.299L213 202.699Z" fill="#FE5102"/>
<path d="M241.5 205.801C241.6 205.401 241.8 204.901 241.8 204.501C241.8 204.301 242.1 204.201 241.7 203.901C241.5 203.701 242.1 203.701 242.1 203.601C242.1 203.201 242.4 202.801 242.4 202.401C242.4 202.001 242.4 201.501 242.4 201.101C242.4 200.701 242.9 200.401 242.7 199.901C242.6 199.501 243.1 199.301 243.1 199.001C243.1 198.601 243.1 198.301 243.5 198.001C243.7 197.801 244 197.701 244 197.401C244 197.201 243.8 197.001 243.8 196.801C243.8 196.701 244.2 196.601 243.7 196.201C243.7 196.201 243.7 196.201 243.9 196.201C244.3 196.201 244.4 196.001 244.2 195.701C244 195.501 244.1 195.401 244.2 195.301C244.2 195.001 244.4 194.601 244.6 194.301C244.7 194.101 245 193.901 245.2 193.701C245.4 193.501 245.2 193.101 245.6 193.001C246 192.901 246 192.601 246.1 192.401C246.1 192.301 246.5 192.201 246 191.901C246.9 191.901 246 191.101 246.4 190.801C246.8 190.501 246.8 190.001 246.9 189.601C246.9 189.501 247.1 189.501 246.8 189.201C246.7 189.201 246.8 189.001 246.8 189.001C247.5 189.001 247.3 188.501 247.5 188.201C247.8 187.901 247.7 187.501 248.2 187.301C248.4 187.301 248.6 187.101 248.2 186.701C248 186.501 248.3 186.501 248.3 186.301C248.3 186.201 248.1 186.001 248.2 185.901C248.2 185.901 248.5 185.901 248.6 185.801C248.3 185.001 249.3 184.901 249.4 184.401C249.4 183.801 249.8 183.401 250.1 182.901C250.3 182.701 250.6 182.501 251.6 182.801C252.1 182.901 252.5 183.201 252.7 183.501C252.9 183.701 253 183.901 253 184.001C253 184.201 253 184.401 253 184.601C253 185.001 253.3 185.501 252.9 185.701C252.8 185.701 252.9 186.001 252.5 185.901C253 186.701 252.3 186.901 252.1 187.301C252 187.701 252.3 188.301 251.9 188.601C252.3 189.101 252.1 189.201 251.9 189.401C251 189.901 251 190.801 250.6 191.501C250.2 192.201 250 193.001 249.6 193.701C249.6 193.801 249.8 194.101 249.6 194.101C249.3 194.101 249.4 194.401 249.4 194.601C249.4 194.801 249.4 195.001 249.2 195.001C248.4 195.401 248.5 196.101 248.2 196.701C247.9 197.301 247.6 197.901 247.6 198.501C247.6 198.901 247.7 199.401 247.5 199.701C247.4 199.801 247.6 200.101 247.1 200.101C246.9 200.101 247.3 200.401 247.3 200.501C247.3 200.801 247.1 201.001 247.1 201.301C247 201.601 246.8 202.001 246.8 202.401C246.8 202.601 246.9 202.901 246.9 203.101C246.9 203.301 246.9 203.601 246.7 203.801C246.5 204.101 246.3 204.301 246.1 204.601C246 204.901 246.1 205.301 245.8 205.501C245.2 205.901 245.3 206.501 245.1 207.001C244.9 207.501 244.7 208.001 244.7 208.601C244.7 208.901 244.2 209.101 244.1 209.401C244.1 209.501 242.7 209.401 242.2 209.201C242.2 209.201 242 209.201 242 209.101C241.6 208.701 241 208.301 241.2 207.901C241.4 207.401 241.5 206.901 241.6 206.401L241.5 205.801Z" fill="#FE5102"/>
<path d="M289.4 207.401C289 207.601 288.6 207.801 288.3 208.101C288.2 208.201 287.9 208.101 288 208.601C288 208.901 287.6 208.401 287.5 208.601C287.2 208.901 286.8 209.001 286.5 209.301C286.2 209.601 286 209.901 285.7 210.201C285.4 210.501 284.9 210.401 284.8 210.901C284.7 211.301 284.2 211.101 284 211.301C283.8 211.601 283.5 211.801 283.2 211.801C282.9 211.801 282.6 211.801 282.5 212.001C282.5 212.101 282.5 212.501 282.3 212.501C282.2 212.501 281.9 212.501 282.1 213.001C282.1 213.001 282.1 213.001 281.9 213.001C281.6 212.801 281.4 213.001 281.4 213.201C281.4 213.501 281.4 213.501 281.2 213.601C280.9 213.801 280.7 214.001 280.4 214.201C280.2 214.301 279.8 214.201 279.6 214.401C279.4 214.401 279.3 214.901 278.9 214.801C278.5 214.801 278.4 214.801 278.2 215.001C278.1 215.001 277.8 215.001 278.1 215.501C277.3 215.101 277.6 216.101 277.2 216.201C276.8 216.201 276.5 216.601 276.2 216.901C276.2 216.901 275.9 216.901 276.1 217.301C276.1 217.401 276.1 217.501 276 217.501C275.4 217.201 275.4 217.701 275.1 217.801C274.8 217.901 274.6 218.301 274.1 218.201C273.9 218.201 273.6 218.201 273.8 218.701C273.8 219.001 273.6 218.901 273.5 219.001C273.5 219.101 273.5 219.401 273.5 219.401C273.5 219.401 273.2 219.401 273.1 219.401C273.1 220.201 272.2 219.801 271.9 220.301C271.6 220.701 271.1 221.001 270.7 221.301C270.4 221.401 270.1 221.501 269.3 220.801C268.9 220.501 268.6 220.101 268.5 219.701C268.5 219.501 268.4 219.201 268.5 219.101C268.5 218.901 268.6 218.701 268.7 218.601C268.9 218.201 268.8 217.601 269.2 217.601C269.3 217.601 269.2 217.301 269.6 217.601H269.7C269.7 216.701 270.3 216.801 270.6 216.501C270.9 216.201 270.8 215.501 271.3 215.501C271.1 214.901 271.3 214.801 271.7 214.801C272.7 214.801 273.1 214.001 273.8 213.601C274.5 213.201 275.1 212.701 275.8 212.201C275.9 212.201 275.8 211.801 276.1 211.901C276.4 212.001 276.4 211.701 276.6 211.601C276.7 211.601 276.8 211.301 277 211.301C277.9 211.501 278.2 210.801 278.7 210.501C279.3 210.201 279.8 209.901 280.3 209.401C280.6 209.101 280.7 208.601 281.1 208.501C281.3 208.501 281.2 208.101 281.7 208.501C281.8 208.601 281.7 208.201 281.7 208.101C281.9 207.901 282.1 207.801 282.4 207.601C282.7 207.401 283 207.201 283.3 207.001C283.5 206.801 283.5 206.501 283.7 206.401C283.9 206.201 284.1 206.101 284.3 206.001C284.6 205.901 284.9 206.001 285.2 205.801C285.5 205.701 285.6 205.301 286 205.401C286.7 205.501 287.1 205.001 287.6 204.801C288.1 204.601 288.6 204.301 289 203.901C289.2 203.701 289.7 203.901 290 203.801C290.1 203.801 291 204.801 291.2 205.301V205.501C291.2 206.001 291.2 206.801 291 206.901C290.5 207.101 290.1 207.401 289.7 207.601L289.4 207.401Z" fill="#FE5102"/>
<path d="M182.8 206.201C182.8 206.201 182.8 206.001 182.6 205.901C182.6 205.901 182.8 205.701 182.3 205.901C182.1 206.001 182.6 205.701 182.5 205.701C182.4 205.701 182.5 205.501 182.3 205.501C182.3 205.501 182 205.501 181.9 205.501C181.9 205.501 181.9 205.201 181.7 205.301C181.4 205.301 181.7 205.101 181.7 205.101C181.6 205.101 181.5 205.101 181.6 204.901C181.7 204.801 181.8 204.601 181.7 204.601C181.7 204.601 181.4 204.801 181.4 204.701C181.4 204.701 181.6 204.501 181.1 204.701C181.1 204.701 181.1 204.701 181.1 204.601C181.4 204.301 181.3 204.301 181.1 204.401C180.9 204.501 180.9 204.401 180.9 204.401C180.9 204.401 180.8 204.401 180.8 204.201L180.9 203.901C180.9 203.901 180.7 203.901 180.9 203.701C181.1 203.501 181 203.401 181 203.401C181 203.401 181.2 203.201 180.7 203.501C181.2 202.901 180.4 203.501 180.5 203.301C180.5 203.101 180.5 203.101 180.3 203.101C180.3 203.101 180.3 202.901 180.1 203.201C180 203.201 180 203.201 180.1 203.201C180.5 202.701 180.1 202.901 180.1 202.801C180.1 202.701 179.9 202.801 180.1 202.401C180.2 202.201 180.3 202.101 179.8 202.401C179.6 202.601 179.8 202.401 179.7 202.401L179.4 202.601C179.4 202.601 179.5 202.401 179.6 202.301C179.1 202.701 179.6 202.001 179.4 202.001C179.2 202.001 179.1 202.001 179.1 201.801C179.1 201.801 179.1 201.501 179.8 200.701C180.1 200.301 180.4 199.901 180.7 199.701C180.9 199.501 181 199.401 181.1 199.401C181.1 199.401 181.3 199.401 181.4 199.301C181.6 199.301 182 198.901 181.9 199.201C181.9 199.201 182.1 199.201 181.8 199.501C182.4 199.001 182.2 199.501 182.3 199.501C182.4 199.501 182.9 199.201 182.8 199.501C183.3 199.101 183.3 199.301 183.2 199.501C182.9 200.101 183.4 200.001 183.5 200.201C183.6 200.401 183.8 200.601 184 200.801C184 200.801 184.3 200.601 184.1 200.801C183.9 201.001 184.1 200.901 184.1 201.001C184.1 201.001 184.3 201.001 184.1 201.101C183.7 201.601 184.1 201.601 184.1 201.801C184.1 202.001 184.2 202.201 184.5 202.201C184.6 202.201 185 202.201 184.9 202.301C184.9 202.301 185.2 202.301 184.7 202.601C184.6 202.601 185 202.601 185 202.601C185 202.601 185.1 202.701 185.1 202.801C185.1 202.801 185.1 203.001 185.3 203.101C185.3 203.101 185.6 203.101 185.7 203.101C185.7 203.101 185.8 203.101 185.8 203.301C185.8 203.401 185.7 203.601 185.7 203.701C185.7 203.801 186 203.701 185.7 204.001C185.4 204.401 185.7 204.401 185.7 204.601C185.7 204.801 185.7 204.901 185.9 205.001C186 205.001 185.6 205.301 185.6 205.401C185.6 205.401 184.4 206.101 183.9 206.201H183.7C183.3 206.301 182.6 206.501 182.6 206.401C182.6 206.301 182.6 206.201 182.5 206.101L182.8 206.201Z" fill="#FE5102"/>
<path d="M192.1 333.4C190.8 333.3 189.5 333 188.2 332.8C187.7 332.8 187.3 332.3 186.6 332.8C186.3 333 186 332.2 185.5 332.1C184.3 331.7 183.1 331.1 182 330.5C180.9 329.9 179.7 329.3 178.8 328.4C177.8 327.5 177.3 326.4 176.3 325.6C175.5 324.9 175.4 323.9 174.8 323.1C174.2 322.3 173.6 321.3 173.5 320.3C173.4 319.5 173.4 318.8 173 318.1C172.8 317.7 172.4 317.4 172.3 316.9C172.3 316.4 172.3 315.9 171.7 315.6C171.7 315.6 171.7 315.3 171.7 315.2C172 314.6 171.9 314 171.7 313.6C171.4 313.2 171.4 312.8 171.4 312.4C171.4 311.3 171.4 310.2 171.5 309.2C171.6 308.4 172 307.6 172.3 306.9C172.5 306.1 172.5 305.2 173.1 304.5C173.7 303.9 173.9 303.2 174.3 302.5C174.5 302.1 175 301.8 174.6 301.2C174.6 301.2 174.6 301 174.7 301C176 300.4 175.9 298.8 176.9 298C178 297.2 178.8 296.2 180 295.5C180.3 295.3 180.7 295.2 180.8 294.7C180.8 294.5 181.2 294.3 181.4 294.3C181.7 294.3 182 294.3 182.2 294.3C182.5 294.3 182.7 294.2 182.9 294.1C183.4 293.9 183.8 293.7 184.3 293.6C184.9 293.6 185.4 293.3 186 293.2C186.6 293.2 187.1 293 187.7 293.2C188.2 293.4 188.8 293.4 189.4 292.9C189.7 292.6 190.2 292.9 190.6 292.9C190.9 292.9 191.3 292.6 191.7 292.7C192 292.7 192.3 293 192.5 293.2C192.5 293.2 192.7 293.2 192.8 293.2C193.7 293 194.5 293.3 195.3 293.7C195.7 293.9 196 294.1 196.4 294.3C196.8 294.5 197.1 294.7 197.5 294.8C199.1 295.4 200.5 296.5 201.7 297.7C202.4 298.4 202.9 299.3 202.3 300.5C202.1 301 201.6 301.3 201.1 301.3C200.8 301.3 200.4 301.2 200.2 301C199.9 300.7 199.4 300.5 199.1 300.3C198.7 300.1 198.3 300 197.9 299.8C197.5 299.6 197.1 299.5 196.8 299.1C196.6 298.9 196.2 299 196.2 298.4C196.2 298.4 196.2 298.2 196.1 298.2C194.7 298.3 193.8 297.5 192.6 297.3C191.6 297.1 190.6 297.6 189.6 297.3C189.3 297.6 189 297.7 188.8 297.8C188.5 297.8 188.2 297.8 188 297.8C187 297.5 186 297.8 185.1 298C184.7 298.2 184.2 298.4 183.8 298.6C183.4 298.9 183 299 182.6 299.3C180.9 300.2 179.6 301.7 178.5 303.4C178.3 303.7 178.5 304.1 178 304.3C177.6 304.5 177.6 305 177.4 305.4C177.2 305.8 177.2 306.2 176.9 306.5C175.8 307.8 175.8 309.5 175.7 311.1C175.6 312.7 175.7 314.4 176.2 315.9C176.5 316.8 177.1 317.7 177.4 318.6C177.5 319 178 319.3 177.6 319.9C177.5 320.1 178.1 320.2 178.2 320.5C178.5 321.1 178.9 321.7 179.2 322.3C179.7 323.1 180.2 323.9 180.9 324.5C181.3 324.9 181.8 325.1 182.3 325.4C182.8 325.7 183.2 326.1 183.6 326.4C184.1 326.9 184.6 327.4 185.2 327.8C185.8 328.2 186.7 328.2 187.3 328.7C188.5 329.6 190 329.6 191.4 329.9C192.8 330.1 194.3 330.3 195.8 330.2C196.6 330.2 197.4 330.7 198.3 330.7C198.7 330.7 199.2 332.2 199.1 332.7C199.1 332.7 199.1 332.9 198.9 332.9C198.1 333.4 197.3 334.1 196.3 334C194.9 333.9 193.4 333.9 191.9 333.7L192.1 333.4Z" fill="black"/>
<path d="M408.2 272.902C408 273.202 407.8 273.402 407.6 273.802C407.6 273.902 407.3 273.802 407.6 274.302C407.8 274.502 407.2 274.302 407.2 274.302C407.1 274.602 406.8 274.802 406.7 275.102C406.6 275.402 406.5 275.802 406.4 276.102C406.3 276.402 405.8 276.502 405.9 276.902C405.9 277.302 405.4 277.202 405.4 277.502C405.4 277.802 405.2 278.102 404.9 278.102C404.7 278.102 404.4 278.202 404.4 278.402C404.4 278.502 404.6 278.802 404.4 278.902C404.4 278.902 404 278.902 404.4 279.402C404.4 279.402 404.4 279.402 404.2 279.402C403.8 279.302 403.7 279.402 403.9 279.702C404.1 279.902 403.9 280.002 403.9 280.102C403.8 280.302 403.6 280.602 403.4 280.802C403.2 280.902 403 281.002 402.8 281.102C402.8 281.102 402.8 281.302 402.7 281.402C402.7 281.602 402.5 281.702 402.3 281.802C401.9 281.802 401.7 282.202 401.5 282.402C401.4 282.602 401.1 282.402 401.4 283.202V283.302C401 283.102 400.9 283.402 400.8 283.802C400.8 284.202 400.6 284.702 400.4 284.802C400 285.002 399.7 285.702 399.4 286.302C399.4 286.202 399.2 286.102 399.2 286.502C399.2 286.702 399 286.502 399 286.302C398.7 285.002 398.4 285.202 398.1 284.702C397.8 284.202 397.3 284.002 397.2 283.202C397.2 282.802 397 282.602 396.6 282.902C396.4 283.002 396.3 282.602 396.2 282.502C396.1 282.502 395.8 282.502 395.7 282.502C395.7 282.502 395.7 282.202 395.7 282.002C395 282.102 395.3 281.302 394.9 281.102C394.5 280.902 394.2 280.602 394 280.202C393.9 280.002 393.8 279.702 394.4 278.802C394.7 278.402 395 278.002 395.3 277.902C395.5 277.802 395.7 277.702 395.8 277.702C396 277.702 396.1 277.702 396.3 277.702C396.6 277.702 397.2 277.602 397.2 278.002C397.2 278.102 397.5 278.002 397.2 278.402C398 278.102 397.9 278.802 398.2 279.002C398.2 279.002 398.4 279.002 398.5 279.002C398.5 279.002 398.6 279.002 398.7 279.002C398.8 279.002 398.9 278.902 398.8 279.002C399.1 278.502 399.1 278.602 399 278.802C398.9 279.102 399 279.302 399 279.302C399 279.302 399 279.302 399.1 279.302C399.1 279.302 399.2 279.102 399.3 279.102C399.3 279.102 399.1 278.802 399.3 279.002C399.3 279.002 399.4 279.002 399.5 279.002C399.5 279.002 399.6 279.002 399.7 279.002C399.8 279.002 399.9 278.802 400 278.702C400.1 278.502 400.2 278.202 400.4 278.002C400.7 277.602 401.1 277.202 401.2 276.702C401.2 276.402 401.2 275.902 401.5 275.802C401.6 275.802 401.5 275.402 402 275.602C402.2 275.602 401.9 275.302 402 275.202C402 275.002 402.2 274.802 402.4 274.702C402.6 274.502 402.8 274.202 402.9 274.002C402.9 273.802 402.9 273.602 402.9 273.402C402.9 273.202 403.1 273.102 403.2 272.902C403.4 272.702 403.7 272.702 403.9 272.502C404.1 272.302 404 272.002 404.4 271.902C405.1 271.902 405.1 271.302 405.4 271.002C405.7 270.702 406 270.302 406.2 269.902C406.2 269.702 406.8 269.802 407 269.602C407 269.602 408.3 270.202 408.6 270.502C408.6 270.502 408.7 270.602 408.7 270.702C408.9 271.202 409.3 271.702 409.1 271.902C408.8 272.202 408.6 272.502 408.4 272.802L408.2 272.902Z" fill="#FE5102"/>
<path d="M311 277.401C311 277.301 311 277.201 311 277.001C311 277.001 311.2 276.901 310.7 277.001C310.4 277.001 311.1 276.901 311 276.801C311 276.701 311 276.601 311 276.501C311 276.501 310.7 276.301 310.6 276.201C310.6 276.201 310.8 276.001 310.5 275.901C310.2 275.901 310.7 275.701 310.5 275.601C310.4 275.601 310.3 275.401 310.5 275.301C310.7 275.301 310.9 275.101 310.8 275.101H310.4C310.4 275.101 310.7 275.001 310.1 275.101C310.1 275.101 310.1 275.101 310.2 275.101C310.6 275.101 310.6 275.001 310.2 275.001C309.9 275.001 310 275.001 309.9 275.001C309.9 275.001 309.9 274.801 309.9 274.701L310.2 274.501C310.2 274.501 310 274.401 310.2 274.301C310.5 274.201 310.5 274.101 310.5 274.101C310.5 274.101 310.8 274.001 310.1 274.101C310.9 273.901 309.8 273.901 310.1 273.801C310.3 273.701 310.1 273.601 310.1 273.501C310.1 273.501 310.3 273.501 309.8 273.501C309.6 273.501 309.6 273.501 309.8 273.501C310.4 273.301 310 273.301 310.1 273.201C310.2 273.101 309.9 273.001 310.4 272.901C310.6 272.901 310.7 272.801 310.1 272.801H309.8C309.8 272.801 310 272.801 310.1 272.701C309.4 272.701 310.3 272.401 310.1 272.301C309.9 272.201 310 272.001 310.1 271.901C310.1 271.901 310.3 271.701 311.4 271.501C311.9 271.501 312.5 271.301 312.8 271.301C313 271.301 313.3 271.301 313.3 271.301C313.4 271.301 313.5 271.301 313.6 271.301C313.8 271.301 314.3 271.301 314.1 271.501C314.1 271.501 314.3 271.501 313.8 271.601C314.6 271.601 314.1 271.801 314.2 271.901C314.2 272.001 314.9 272.001 314.6 272.201C315.2 272.201 315.1 272.201 315 272.301C314.4 272.601 314.8 272.801 314.8 273.001C314.8 273.201 314.8 273.401 314.8 273.701C314.8 273.701 315.2 273.701 314.8 273.801C314.5 273.801 314.8 273.901 314.8 273.901C314.8 273.901 314.9 273.901 314.8 274.001C314.2 274.301 314.6 274.401 314.5 274.601C314.5 274.801 314.5 275.001 314.5 275.101C314.6 275.101 315 275.201 314.9 275.401C314.9 275.401 315.2 275.401 314.6 275.601C314.4 275.601 314.9 275.601 314.9 275.601C314.9 275.601 314.9 275.701 314.9 275.801C314.9 275.801 314.9 276.001 314.9 276.101C314.9 276.101 315.2 276.101 315.3 276.201C315.3 276.201 315.3 276.301 315.3 276.401C315.3 276.401 315 276.601 315 276.701C315 276.701 315.2 276.801 315 277.001C314.5 277.201 314.8 277.301 314.8 277.501C314.8 277.701 314.8 277.801 314.8 277.901C314.8 277.901 314.4 278.101 314.4 278.201C314.4 278.201 313 278.501 312.5 278.501H312.3C311.8 278.501 311.1 278.501 311.1 278.501C311.1 278.401 311.1 278.201 311.1 278.101L311 277.401Z" fill="white"/>
<path d="M323.1 272.899C323.1 272.899 323 272.899 322.9 272.899C322.9 272.899 322.9 272.699 322.9 273.199C322.9 273.499 322.9 272.799 322.9 272.899C322.9 272.899 322.8 272.899 322.7 272.899C322.7 272.899 322.6 273.199 322.5 273.199C322.5 273.199 322.4 272.999 322.4 273.199C322.4 273.499 322.4 272.999 322.3 273.099C322.3 273.199 322.3 273.299 322.2 273.099C322.2 272.899 322.2 272.699 322.2 272.799V273.199C322.2 273.199 322.2 272.899 322.2 273.499C322.2 273.499 322.2 273.499 322.2 273.399C322.2 272.999 322.2 272.999 322.2 273.299C322.2 273.599 322.2 273.499 322.2 273.599C322.2 273.599 322.2 273.599 322.1 273.599V273.299C322.1 272.999 322.1 272.999 322.1 272.999C322.1 272.999 322.1 272.699 322.1 273.299C322.1 272.499 322.1 273.599 322 273.299C322 273.099 321.9 273.299 321.8 273.299C321.8 273.299 321.8 273.099 321.8 273.599C321.8 273.799 321.8 273.799 321.8 273.599C321.8 272.999 321.8 273.399 321.7 273.199C321.7 273.099 321.7 273.399 321.6 272.899C321.6 272.699 321.6 272.599 321.6 273.199V273.499C321.6 273.499 321.6 273.299 321.6 273.199C321.6 273.899 321.5 272.999 321.4 273.199C321.4 273.399 321.3 273.299 321.2 273.199C321.2 273.199 321.2 272.999 321.2 271.799C321.2 271.299 321.2 270.699 321.2 270.399C321.2 270.199 321.2 269.899 321.2 269.899C321.2 269.899 321.2 269.699 321.2 269.599C321.2 269.399 321.2 268.899 321.3 269.199C321.3 269.199 321.3 268.999 321.3 269.499C321.3 268.699 321.4 269.199 321.5 269.199C321.5 269.199 321.5 268.499 321.7 268.799C321.7 268.199 321.7 268.299 321.7 268.499C321.7 269.199 321.9 268.699 322 268.799C322.1 268.799 322.2 268.799 322.3 268.799C322.3 269.499 322.5 269.099 322.5 269.099C322.5 269.099 322.7 269.199 322.7 269.099C322.7 269.099 322.7 268.699 322.8 268.799C322.8 268.799 322.8 268.499 322.8 269.099C322.8 269.299 322.8 268.799 322.8 268.799C322.8 268.799 322.8 268.799 322.9 268.799V268.499C322.9 268.499 322.9 268.799 323 268.799C323 268.799 323 268.599 323.1 268.799C323.1 269.299 323.2 269.099 323.3 269.099C323.3 269.099 323.4 269.199 323.5 269.099C323.5 269.099 323.5 269.499 323.6 269.499C323.6 269.499 323.6 270.999 323.6 271.499V271.699C323.6 272.199 323.6 272.899 323.5 272.799C323.5 272.799 323.4 272.799 323.3 272.799L323.1 272.899Z" fill="white"/>
<path d="M323 280.901C323 280.901 323 280.701 323 281.201C323 281.501 323 280.801 323 280.901C323 280.901 323 281.201 323 281.301C323 281.101 323 281.601 323 281.301C323 281.401 323 281.501 323 281.301C323 281.101 323 280.901 323 281.001V281.401C323 281.401 323 281.101 323 281.701C323 281.701 323 281.701 323 281.601C323 281.201 323 281.201 323 281.601C323 281.901 323 281.801 323 281.901V281.601C323 281.301 323 281.301 323 281.301C323 281.301 323 281.001 323 281.601C322.9 280.801 323 281.901 323 281.601C323 281.601 323 281.401 323 281.901C323 282.101 323 282.101 323 281.901C322.9 281.301 323 281.701 322.9 281.601C322.9 281.501 322.9 281.801 322.8 281.301C322.8 281.101 322.8 281.001 322.8 281.601V281.901C322.8 281.901 322.8 281.701 322.8 281.601C322.8 282.301 322.8 281.401 322.7 281.601C322.7 281.701 322.7 281.801 322.7 281.601C322.7 281.601 322.7 281.401 322.5 280.201C322.5 279.701 322.3 279.101 322.3 278.801C322.3 278.601 322.3 278.301 322.3 278.301C322.3 278.301 322.3 278.101 322.3 278.001C322.3 277.801 322.3 277.301 322.3 277.601C322.3 277.601 322.3 277.401 322.3 277.901C322.3 277.101 322.3 277.601 322.3 277.601C322.3 277.601 322.3 276.901 322.3 277.201C322.3 276.601 322.3 276.701 322.3 276.901C322.4 277.601 322.4 277.101 322.5 277.201C322.5 277.201 322.6 277.201 322.7 277.201C322.8 277.801 322.8 277.401 322.9 277.501C322.9 277.501 322.9 277.601 323 277.501C323 277.401 323 277.101 323 277.201C323 277.201 323 276.901 323 277.501C323 277.701 323 277.201 323 277.201V276.901C323 276.901 323 277.201 323.1 277.201C323.2 277.701 323.2 277.401 323.2 277.501C323.2 277.501 323.2 277.901 323.3 277.901C323.3 277.901 323.5 279.401 323.6 279.901V280.101C323.6 280.601 323.7 281.301 323.7 281.201L323 280.901Z" fill="white"/>
<path d="M330.2 277.2C330.2 277.2 330.2 277 330.2 277.5C330.2 277.8 330.2 277.1 330.2 277.2V277.5C330.2 277.3 330.2 277.8 330.2 277.5C330.2 277.6 330.2 277.7 330.2 277.5C330.2 277.3 330.2 277.1 330.2 277.2V277.6C330.2 277.6 330.2 277.3 330.2 277.9C330.2 277.9 330.2 277.9 330.2 277.8C330.2 277.4 330.2 277.4 330.2 277.8C330.2 278.1 330.2 278 330.2 278C330.2 278 330.2 277.7 330.1 277.7C330.1 277.4 330.1 277.4 330.1 277.4C330.1 277.4 330.1 277.1 330.1 277.7C329.9 276.9 330.1 278 330.1 277.7C330.1 277.7 330.1 277.5 330.1 278C330.1 278.2 330.1 278.2 330.1 278C330 277.4 330.1 277.8 330 277.7C330 277.6 330 277.9 329.9 277.4C329.9 277.2 329.9 277.1 329.9 277.7V278C329.9 278 329.9 277.8 329.9 277.7C329.9 277.5 330 278.4 329.9 277.7C329.9 277.8 329.9 277.9 329.9 277.7C329.9 277.7 329.9 277.5 329.6 276.4C329.5 275.9 329.4 275.4 329.3 275C329.3 274.8 329.3 274.5 329.3 274.5C329.3 274.5 329.3 274.3 329.3 274.2C329.3 274 329.2 273.5 329.3 273.8C329.3 273.8 329.3 273.6 329.3 274.1C329.2 273.3 329.3 273.8 329.3 273.8C329.3 273.8 329.3 273.1 329.3 273.4C329.2 272.8 329.3 272.9 329.3 273.1C329.5 273.8 329.4 273.3 329.5 273.4C329.5 273.4 329.5 273.4 329.6 273.4C329.8 274 329.7 273.6 329.8 273.7C329.8 273.6 329.8 273.3 329.8 273.4C329.8 273.4 329.8 273.1 329.8 273.7C329.8 273.9 329.8 273.4 329.8 273.4V273.1C329.8 273.1 329.8 273.4 329.9 273.4C330 273.9 329.9 273.6 330 273.7L330.1 274.1C330.1 274.1 330.4 275.5 330.5 276V276.2C330.5 276.7 330.7 277.4 330.7 277.3L330.2 277.2Z" fill="white"/>
<path d="M399.6 226.199C399.6 225.799 399.6 225.499 399.6 225.099C399.6 224.999 399.8 224.799 399.3 224.699C399 224.699 399.6 224.499 399.6 224.399C399.6 224.099 399.6 223.699 399.6 223.399C399.6 223.099 399.3 222.699 399.3 222.399C399.3 222.099 399.5 221.699 399.3 221.399C399 221.099 399.5 220.899 399.3 220.599C399.2 220.299 399.1 219.999 399.3 219.699C399.5 219.499 399.7 219.299 399.6 219.099C399.6 218.999 399.2 218.899 399.3 218.699C399.3 218.599 399.6 218.399 399 218.299C399 218.299 399 218.299 399.1 218.299C399.5 218.199 399.5 217.999 399.1 217.899C398.8 217.799 398.9 217.699 398.9 217.599C398.9 217.299 398.9 216.999 398.9 216.699C398.9 216.499 399.2 216.299 399.2 216.099C399.2 215.899 399 215.599 399.2 215.399C399.5 215.199 399.5 214.999 399.5 214.799C399.5 214.699 399.8 214.599 399.2 214.499C400 214.199 399 213.799 399.2 213.499C399.4 213.199 399.2 212.799 399.2 212.499C399.2 212.499 399.4 212.299 398.9 212.199C398.7 212.199 398.7 212.099 398.9 211.999C399.5 211.699 399.1 211.499 399.2 211.199C399.3 210.899 399 210.599 399.5 210.299C399.7 210.199 399.8 209.999 399.2 209.799C398.9 209.799 399.2 209.599 399.2 209.499C399.2 209.499 398.9 209.299 398.9 209.199C398.9 209.199 399.1 208.999 399.2 208.999C398.6 208.599 399.4 208.099 399.2 207.699C399 207.299 399.1 206.799 399.2 206.399C399.2 206.199 399.4 205.899 400.5 205.699C401 205.699 401.5 205.699 401.8 205.699C402 205.699 402.2 205.899 402.3 205.999C402.3 206.099 402.5 206.299 402.6 206.399C402.8 206.699 403.3 206.999 403 207.299C403 207.299 403.2 207.499 402.7 207.599C403.4 207.999 403 208.399 403 208.799C403 209.099 403.6 209.499 403.4 209.799C404 209.999 403.9 210.199 403.7 210.399C403.1 211.099 403.5 211.799 403.4 212.399C403.4 213.099 403.4 213.799 403.4 214.499C403.4 214.599 403.7 214.699 403.4 214.899C403.2 214.999 403.4 215.199 403.4 215.299C403.4 215.399 403.5 215.599 403.4 215.699C402.8 216.199 403.2 216.799 403.1 217.299C403.1 217.799 403 218.399 403.1 218.899C403.1 219.199 403.5 219.499 403.4 219.899C403.4 219.999 403.7 220.199 403.1 220.299C402.9 220.299 403.4 220.499 403.4 220.599C403.4 220.799 403.4 220.999 403.4 221.299C403.4 221.599 403.4 221.899 403.4 222.199C403.4 222.399 403.7 222.599 403.7 222.799C403.7 222.999 403.7 223.199 403.7 223.399C403.7 223.699 403.4 223.899 403.4 224.199C403.4 224.499 403.6 224.699 403.4 224.999C402.9 225.499 403.2 225.899 403.1 226.399C403.1 226.899 403.1 227.299 403.1 227.799C403.1 228.099 402.7 228.299 402.7 228.599C402.7 228.699 401.3 228.899 400.8 228.799H400.6C400.2 228.599 399.5 228.299 399.5 227.999C399.5 227.599 399.5 227.199 399.5 226.699L399.6 226.199Z" fill="#FE5102"/>
<path d="M399.6 349.699C399.6 349.299 399.6 348.999 399.6 348.599C399.6 348.499 399.8 348.299 399.3 348.199C399 348.199 399.6 347.999 399.6 347.899C399.6 347.599 399.6 347.199 399.6 346.899C399.6 346.599 399.3 346.199 399.3 345.899C399.3 345.599 399.5 345.199 399.3 344.899C399 344.599 399.5 344.399 399.3 344.099C399.2 343.799 399.1 343.499 399.3 343.199C399.5 342.999 399.7 342.799 399.6 342.599C399.6 342.499 399.2 342.399 399.3 342.199C399.3 342.099 399.6 341.899 399 341.799C399 341.799 399 341.799 399.1 341.799C399.5 341.699 399.5 341.499 399.1 341.399C398.8 341.299 398.9 341.199 398.9 341.099C398.9 340.799 398.9 340.499 398.9 340.199C398.9 339.999 399.2 339.799 399.2 339.599C399.2 339.399 399 339.099 399.2 338.899C399.5 338.699 399.5 338.499 399.5 338.299C399.5 338.199 399.8 338.099 399.2 337.999C400 337.699 399 337.299 399.2 336.999C399.4 336.699 399.2 336.299 399.2 335.999C399.2 335.999 399.4 335.799 398.9 335.699C398.7 335.699 398.7 335.599 398.9 335.499C399.5 335.199 399.1 334.999 399.2 334.699C399.3 334.399 399 334.099 399.5 333.799C399.7 333.699 399.8 333.499 399.2 333.299C398.9 333.299 399.2 333.099 399.2 332.999C399.2 332.999 398.9 332.799 398.9 332.699C398.9 332.699 399.1 332.499 399.2 332.499C398.6 332.099 399.4 331.599 399.2 331.199C399 330.799 399.1 330.299 399.2 329.899C399.2 329.699 399.4 329.399 400.5 329.199C401 329.199 401.5 329.199 401.8 329.199C402 329.199 402.2 329.399 402.3 329.499C402.3 329.599 402.5 329.799 402.6 329.899C402.8 330.199 403.3 330.499 403 330.799C403 330.799 403.2 330.999 402.7 331.099C403.4 331.499 403 331.899 403 332.299C403 332.599 403.6 332.999 403.4 333.299C404 333.499 403.9 333.699 403.7 333.899C403.1 334.599 403.5 335.299 403.4 335.899C403.4 336.599 403.4 337.299 403.4 337.999C403.4 338.099 403.7 338.199 403.4 338.399C403.2 338.499 403.4 338.699 403.4 338.799C403.4 338.899 403.5 339.099 403.4 339.199C402.8 339.699 403.2 340.299 403.1 340.799C403.1 341.299 403 341.899 403.1 342.399C403.1 342.699 403.5 342.999 403.4 343.399C403.4 343.499 403.7 343.699 403.1 343.799C402.9 343.799 403.4 343.999 403.4 344.099C403.4 344.299 403.4 344.499 403.4 344.799C403.4 345.099 403.4 345.399 403.4 345.699C403.4 345.899 403.7 346.099 403.7 346.299C403.7 346.499 403.7 346.699 403.7 346.899C403.7 347.199 403.4 347.399 403.4 347.699C403.4 347.999 403.6 348.199 403.4 348.499C402.9 348.999 403.2 349.399 403.1 349.899C403.1 350.399 403.1 350.799 403.1 351.299C403.1 351.599 402.7 351.799 402.7 352.099C402.7 352.199 401.3 352.399 400.8 352.299H400.6C400.2 352.099 399.5 351.799 399.5 351.499C399.5 351.099 399.5 350.699 399.5 350.199L399.6 349.699Z" fill="#FE5102"/>
<path d="M369.9 280.302C369.7 280.302 369.5 280.302 369.3 280.302C369.3 280.302 369.2 280.102 369.1 280.602C369.1 280.902 369 280.302 368.9 280.302C368.7 280.302 368.5 280.302 368.4 280.302C368.2 280.302 368 280.602 367.9 280.602C367.7 280.602 367.5 280.402 367.4 280.602C367.3 280.902 367.1 280.402 367 280.602C366.9 280.702 366.7 280.802 366.6 280.602C366.5 280.402 366.4 280.202 366.3 280.302C366.3 280.302 366.2 280.702 366.1 280.602C366.1 280.602 366 280.302 365.9 280.902C365.9 280.902 365.9 280.902 365.9 280.802C365.9 280.402 365.7 280.402 365.7 280.802C365.7 281.102 365.6 281.002 365.5 281.002C365.4 281.002 365.2 281.002 365.1 281.002C365 281.002 364.9 280.702 364.8 280.702C364.7 280.702 364.6 280.902 364.5 280.702C364.4 280.402 364.3 280.402 364.2 280.402C364.2 280.402 364.1 280.102 364 280.702C363.8 279.902 363.7 280.902 363.5 280.702C363.3 280.502 363.1 280.702 363 280.702C363 280.702 362.9 280.502 362.9 281.002C362.9 281.202 362.9 281.202 362.9 281.002C362.8 280.402 362.6 280.802 362.5 280.702C362.3 280.602 362.2 280.902 362 280.402C362 280.202 361.8 280.102 361.8 280.702C361.8 281.002 361.7 280.702 361.6 280.702C361.6 280.702 361.6 281.002 361.5 281.002C361.5 281.002 361.5 280.802 361.4 280.702C361.2 281.302 360.9 280.502 360.7 280.702C360.5 280.902 360.2 280.802 360 280.702C359.9 280.702 359.7 280.502 359.7 279.402C359.7 278.902 359.7 278.402 359.7 278.102C359.7 277.902 359.7 277.702 359.8 277.602C359.8 277.602 359.9 277.402 360 277.302C360.1 277.102 360.3 276.602 360.4 276.902C360.4 276.902 360.5 276.702 360.5 277.202C360.7 276.502 360.9 276.902 361.1 276.902C361.3 276.902 361.4 276.302 361.6 276.502C361.6 275.902 361.8 276.002 361.9 276.202C362.3 276.802 362.6 276.402 363 276.502C363.4 276.502 363.7 276.502 364.1 276.502C364.1 276.502 364.2 276.202 364.3 276.502C364.3 276.702 364.5 276.502 364.5 276.502C364.5 276.502 364.6 276.402 364.7 276.502C365 277.102 365.3 276.702 365.5 276.802C365.8 276.802 366.1 276.902 366.3 276.802C366.5 276.802 366.6 276.402 366.8 276.502C366.8 276.502 366.9 276.202 367 276.802C367 277.002 367 276.502 367.1 276.502C367.2 276.502 367.3 276.502 367.4 276.502C367.5 276.502 367.7 276.502 367.9 276.502C367.9 276.502 368.1 276.202 368.2 276.202C368.3 276.202 368.4 276.202 368.5 276.202C368.6 276.202 368.8 276.502 368.9 276.502C369 276.502 369.2 276.302 369.3 276.502C369.5 277.002 369.8 276.702 370 276.802C370.2 276.802 370.5 276.802 370.7 276.802C370.8 276.802 371 277.202 371.1 277.202C371.1 277.202 371.2 278.602 371.2 279.102V279.302C371.1 279.702 371 280.402 370.8 280.402C370.6 280.402 370.4 280.402 370.1 280.402L369.9 280.302Z" fill="#FE5102"/>
<path d="M442.5 280.302C442.3 280.302 442.1 280.302 441.9 280.302C441.9 280.302 441.8 280.102 441.7 280.602C441.7 280.902 441.6 280.302 441.5 280.302C441.3 280.302 441.1 280.302 441 280.302C440.8 280.302 440.6 280.602 440.5 280.602C440.3 280.602 440.1 280.402 440 280.602C439.9 280.902 439.7 280.402 439.6 280.602C439.5 280.702 439.3 280.802 439.2 280.602C439.1 280.402 439 280.202 438.9 280.302C438.9 280.302 438.8 280.702 438.7 280.602C438.7 280.602 438.6 280.302 438.5 280.902C438.5 280.902 438.5 280.902 438.5 280.802C438.5 280.402 438.3 280.402 438.3 280.802C438.3 281.102 438.2 281.002 438.1 281.002C438 281.002 437.8 281.002 437.7 281.002C437.6 281.002 437.5 280.702 437.4 280.702C437.3 280.702 437.2 280.902 437.1 280.702C437 280.402 436.9 280.402 436.8 280.402C436.8 280.402 436.7 280.102 436.6 280.702C436.4 279.902 436.3 280.902 436.1 280.702C435.9 280.502 435.7 280.702 435.6 280.702C435.6 280.702 435.6 280.502 435.5 281.002C435.5 281.202 435.5 281.202 435.5 281.002C435.4 280.402 435.2 280.802 435.1 280.702C434.9 280.602 434.8 280.902 434.6 280.402C434.6 280.202 434.4 280.102 434.4 280.702C434.4 281.002 434.3 280.702 434.2 280.702C434.2 280.702 434.2 281.002 434.1 281.002C434.1 281.002 434.1 280.802 434 280.702C433.8 281.302 433.5 280.502 433.3 280.702C433.1 280.902 432.8 280.802 432.6 280.702C432.5 280.702 432.3 280.502 432.3 279.402C432.3 278.902 432.3 278.402 432.3 278.102C432.3 277.902 432.3 277.702 432.4 277.602C432.4 277.602 432.5 277.402 432.6 277.302C432.7 277.102 432.9 276.602 433 276.902C433 276.902 433.1 276.702 433.1 277.202C433.3 276.502 433.5 276.902 433.7 276.902C433.9 276.902 434 276.302 434.2 276.502C434.2 275.902 434.4 276.002 434.5 276.202C434.9 276.802 435.2 276.402 435.6 276.502C436 276.502 436.3 276.502 436.7 276.502C436.7 276.502 436.8 276.202 436.9 276.502C436.9 276.702 437.1 276.502 437.1 276.502C437.1 276.502 437.2 276.402 437.3 276.502C437.6 277.102 437.9 276.702 438.1 276.802C438.4 276.802 438.7 276.902 438.9 276.802C439.1 276.802 439.2 276.402 439.4 276.502C439.4 276.502 439.5 276.202 439.6 276.802C439.6 277.002 439.6 276.502 439.7 276.502C439.8 276.502 439.9 276.502 440 276.502C440.1 276.502 440.3 276.502 440.5 276.502C440.5 276.502 440.7 276.202 440.8 276.202C440.9 276.202 441 276.202 441.1 276.202C441.2 276.202 441.4 276.502 441.5 276.502C441.6 276.502 441.8 276.302 441.9 276.502C442.1 277.002 442.4 276.702 442.6 276.802C442.8 276.802 443.1 276.802 443.3 276.802C443.4 276.802 443.6 277.202 443.7 277.202C443.7 277.202 443.8 278.602 443.8 279.102V279.302C443.7 279.702 443.6 280.402 443.4 280.402C443.2 280.402 443 280.402 442.7 280.402L442.5 280.302Z" fill="#FE5102"/>
<path d="M379 389.799C374 390.699 368.7 389.999 364 387.699C362.2 386.799 360.8 385.499 359 384.299C358.5 383.999 358.1 383.399 357.7 382.599C357.5 382.199 357.3 381.799 357.1 381.399L356.8 380.799C356.8 380.599 356.6 380.399 356.5 380.099C355.3 377.799 354.9 375.199 355.1 372.699C355.3 370.199 356 367.799 357.3 365.599C358.5 363.499 360.3 361.599 362.6 360.399C363.2 360.099 363.8 359.799 364.4 359.599L365.3 359.299C365.6 359.299 365.9 359.199 366.3 359.099C367.6 358.899 368.9 358.999 370.2 359.299C371.5 359.599 372.8 360.199 373.9 361.099C375 361.999 375.9 363.199 376.4 364.499C377 365.799 377.1 367.299 377 368.499C377 369.799 376.7 370.999 376.3 372.199C375.7 374.199 374.7 375.799 373.5 377.299C372.9 377.999 372.3 378.699 371.6 379.299C370.9 379.999 370.2 380.499 369.6 381.099C366.7 383.599 363.3 385.799 359.8 386.999L357.9 387.599C357.3 387.799 356.6 387.899 355.9 388.099C354.6 388.499 353.3 388.699 352 389.099C351.2 389.299 350.4 389.499 349.6 389.699C349.2 389.699 348.8 389.899 348.4 389.999C348 389.999 347.5 390.099 347.1 390.099C345.4 390.299 343.5 389.899 341.9 390.499C341.8 390.499 341 390.399 340.6 390.199C340.1 390.099 339.7 389.899 339.2 389.899C338.7 389.799 338.2 389.699 337.7 389.599C336.7 389.399 335.8 389.299 335 389.199C334.2 389.199 333.5 388.999 332.8 388.799C332.1 388.599 331.5 388.299 330.8 388.099C327.1 386.699 323.7 384.599 320.8 381.899C320.3 381.399 319.8 380.799 319.3 380.299L318 378.499C317.5 377.899 317.2 377.299 316.8 376.699C316.4 376.099 316 375.499 315.7 374.799C314.2 372.199 312.7 369.199 312.2 366.499C311.8 363.699 311.3 361.099 311.3 358.399C311.2 356.799 311.7 355.099 311.2 353.699C311.2 353.599 311.2 352.999 311.4 352.699C311.8 351.599 312 350.499 312.4 349.499C312.6 348.999 312.7 348.399 312.8 347.899C312.9 347.399 313.2 346.799 313.3 346.299L313.9 344.699C314.1 344.199 314.4 343.699 314.6 343.199C314.9 342.699 315.1 342.199 315.4 341.699C315.7 341.199 316.1 340.799 316.5 340.299C318 338.399 319.7 336.699 321.7 335.299C323.7 333.899 325.9 332.699 328.4 331.999C329.7 331.699 331.2 331.599 332.4 331.199C332.6 331.199 333.1 331.199 333.7 331.199C334.2 331.199 334.8 331.399 335.1 331.499C337 332.199 338.8 332.999 340.4 334.099C342 335.199 343.5 336.699 344.5 338.499C345.6 340.599 346.1 343.099 345.8 345.399C345.5 347.699 344.5 349.799 343.1 351.499C341.9 352.899 340.3 354.599 339.1 356.399C338.6 357.299 336.8 358.199 335.7 359.199C334.7 359.899 333.9 360.799 332.9 361.399C332 361.899 331 362.199 330 362.599C329.7 362.699 329.4 362.899 329.1 362.999C327.8 363.699 326.5 364.499 325.2 364.999C324.5 365.299 323.8 365.499 323.1 365.799L321 366.399C319.6 366.799 318.1 366.999 316.7 367.299C315.3 367.499 313.8 367.699 312.3 367.899C306.4 368.599 300.3 368.199 294.6 366.599C293.8 366.399 293 366.099 292.3 365.899C291.5 365.599 290.8 365.299 290.1 364.899C288.7 364.199 287.6 363.299 286.8 362.399C286.1 361.599 286.4 361.099 287.7 361.399C288.7 361.599 289.7 361.899 290.8 362.199C291.6 362.499 292.5 362.699 293.3 362.899C294.1 363.099 295 363.299 295.8 363.499C299.3 364.199 302.8 364.099 306.4 364.499C307.5 364.499 308.8 364.299 309.8 364.699C309.9 364.699 310.4 364.699 310.6 364.699C315.3 363.599 320.3 362.999 324.9 360.999C328.8 359.299 331.9 356.799 335.3 354.399C336.7 352.499 338.5 350.799 339.7 349.099C340.8 347.599 341.5 345.999 341.6 344.299C341.6 342.599 341.1 340.999 340 339.699C338.9 338.299 337.3 337.299 335.7 336.699C334 336.099 332.3 335.999 330.4 336.299C326.7 336.899 323.2 339.199 320.7 342.199C318.1 345.199 316.5 348.999 315.7 352.899C315.6 353.599 315.5 354.199 315.5 354.899C315.5 355.599 315.5 356.299 315.3 357.099C315.2 357.899 315.3 358.699 315.3 359.599C315.3 360.499 315.6 361.399 315.7 362.299C316 363.899 316.5 365.499 316.8 366.999C317.5 370.099 318.9 373.099 320.8 375.699C322.8 378.299 325.2 380.399 327.9 382.099C330.6 383.799 333.6 385.099 336.8 385.799C340 386.499 343.2 386.699 346.4 386.499C350.3 386.199 354.1 384.999 357.8 383.599C358.6 383.299 359.4 382.899 360.1 382.499C360.9 382.099 361.7 381.799 362.5 381.599C363 381.499 364.2 380.399 365 379.699C365.5 379.299 366.1 378.899 366.6 378.499L368.1 377.199C369.1 376.299 369.9 375.399 370.7 374.399C371.7 372.999 372.6 371.399 373 369.799C373.4 368.199 373.3 366.699 372.6 365.599C371.7 364.199 370 363.599 368.2 363.599C367.3 363.599 366.4 363.799 365.5 364.099C365.1 364.299 364.6 364.399 364.2 364.699L363.6 365.099L363 365.599C361.1 367.199 359.7 369.799 359.3 372.499C359.1 373.899 359.3 375.399 359.6 376.699L359.9 377.699C360 377.999 360.2 378.299 360.3 378.599C360.4 378.899 360.6 379.199 360.8 379.499C361 379.799 361.1 380.099 361.3 380.399C362.7 382.599 364.9 384.199 367.4 385.199C369.9 386.199 372.6 386.599 375.4 386.599C380.8 386.599 386.1 384.199 390.6 380.899C393.2 378.999 395.7 377.399 398 375.199C399.1 374.199 401.5 373.699 401.4 374.499C401.4 374.599 401.3 374.899 401.1 375.099C399.2 377.699 397.5 380.199 394.5 382.499C390.1 385.799 385.1 388.699 379.3 389.799H379Z" fill="#FE5102"/>
</svg>
