<svg width="600" height="600" viewBox="0 0 600 600" fill="none" xmlns="http://www.w3.org/2000/svg">
<path d="M320.3 286.202C326.3 276.002 332.3 265.802 338.3 255.602L351.8 275.302C359.3 268.302 368.1 262.802 377.7 259.302C378.2 268.202 377.9 277.202 377 286.102C386.5 284.302 396.1 283.302 405.7 283.002C398.4 291.902 392 301.502 386.6 311.702C398.6 313.402 410.3 316.502 421.5 321.102C412.7 329.402 399.2 330.502 389.3 337.502C388.7 337.902 388.1 338.402 388.1 339.102C388.1 339.902 388.7 340.502 389.3 341.002C399.3 349.502 408.1 359.502 415.1 370.602C402.8 367.802 390.5 365.102 378.2 362.302C378 373.202 376.3 384.102 373 394.602C363.4 386.302 353.8 378.102 344.3 369.802C337 379.402 328.1 387.802 318 394.502C319.6 385.702 320.2 376.602 319.9 367.702C314.2 369.802 308.6 371.802 302.9 373.902C305.8 370.002 308.7 366.102 311.7 362.202C313.2 360.302 314.6 358.302 316.6 356.902C320.3 354.302 325.2 354.202 329.8 353.802C342 352.702 354.4 348.702 363.2 340.102C371.9 331.502 376.1 317.602 371.1 306.502C366.4 296.202 354.7 290.102 343.4 290.302" fill="#FE5102"/>
<path d="M371.5 329.3C369.5 334.1 366.3 338.5 362.4 342C358.5 345.5 353.9 348.2 349.1 350.1C345.5 351.6 341.7 352.5 337.8 353.6C335.9 354.2 332.1 354.4 328.6 354.6C326.2 354.8 323.9 355 321.7 355.5C319.5 356 317.5 357 315.9 358.5C314.3 360 312.9 362 311.5 363.9L307.2 369.6L306.4 370.7L306 371.3L307.8 370.6L313 368.7L318.6 366.6L321 365.7H321.1C321.1 365.7 321.2 365.6 321.2 365.7V366V366.6V367.9L321.3 369.9V371.3C321.3 375.2 321.2 379.1 320.8 382.9C320.6 384.8 320.4 386.8 320.1 388.7C320 389.7 319.8 390.6 319.7 391.6C319.8 391.6 319.9 391.4 320 391.4H320.1C320.1 391.3 321 390.7 321 390.7C327 386.1 332.3 381.8 337.2 376.4C338.3 375.2 339.3 374 340.3 372.7L341.8 370.8L344.1 367.8C346.2 369.6 348.3 371.4 350.3 373.2C352 374.7 353.7 376.2 355.4 377.7C359.5 381.4 363.6 385.1 367.8 388.6C369.1 389.7 370.4 390.8 371.7 391.8L371.9 392L372.1 392.2C372.1 392 372.2 391.7 372.3 391.5C373.3 388.2 374.3 384.4 374.5 381.4C374.5 381.1 374.9 379.6 375 378.9C375.8 375.3 376.3 370.7 376.4 367.6C376.4 365.1 376.4 362.7 376.5 360.4C378.1 360.8 379.6 361.1 381.2 361.5C388.8 363.2 396.5 364.9 404.1 366.7C405.5 367 407 367.4 408.4 367.7L410.5 368.2L411.5 368.4L411.7 368.5C411.7 368.5 411.7 368.5 411.7 368.3C411.7 368.2 411.7 368.1 411.7 368.1L411.4 367.7C411 367.1 410.6 366.5 410.2 365.9C406.8 360.9 402.5 356 398.8 351.8C396.9 349.7 395 347.7 393 345.8C392 344.9 391 343.9 390 343L388.4 341.7C388.2 341.5 387.9 341.2 387.6 340.9C387.3 340.6 387 340.2 386.8 339.6C386.6 339 386.6 338.2 387 337.6C387.4 337 387.8 336.7 388.2 336.4C388.9 335.9 389.6 335.5 390.4 335C391.1 334.6 391.8 334.2 392.5 333.7C393.2 333.3 393.8 332.9 394.4 332.6C394.6 332.5 395.7 332 396.2 331.8C400.5 330.2 404.7 328.7 408.8 326.9C410.8 326 412.8 325.1 414.7 323.9C415.2 323.6 415.6 323.3 416.1 323C416.6 322.7 417 322.4 417.5 322.1L418.7 321.2H418.9C419 321 418.9 321 418.9 320.9H418.8L418.7 320.8L418.3 320.6C417.2 320.2 416.1 319.8 415 319.4C412.8 318.6 410.5 317.9 408.3 317.2C403.8 315.8 399.1 314.7 394.5 313.8C393.3 313.6 392 313.3 390.7 313.1C390.1 313.1 389.4 312.9 388.8 312.8C388.3 312.8 387.8 312.7 387.3 312.6C386.7 312.6 386.2 312.5 385.6 312.4C385.3 312.4 384.9 312.4 384.3 312.3C384.8 311.4 385.5 310.1 386.2 308.7C386.4 308.3 386.6 308 386.8 307.6C387 307.3 387.1 307 387.3 306.8C391 300.8 394.9 294.3 399.3 288.5L401.2 286L402.8 284L403 283.8C403 283.8 403.2 283.6 403 283.7H402.2C398.1 283.9 394 284.3 389.9 284.6C388.2 284.8 386.1 285 384 285.3C382.9 285.5 381.9 285.7 380.8 285.9C379.3 286.2 377.8 286.6 376.3 286.9C376.2 286.9 376.1 286.9 376 286.9C376 286.9 375.7 287 375.8 286.9C375.8 286.7 375.8 286.4 375.8 286.1C375.8 285.5 375.9 284.9 376 284.3C376 283.5 376.2 282.6 376.2 281.6C376.4 280 376.5 278.2 376.6 276.7C376.7 274.2 376.6 271.8 376.6 269.4C376.6 267.3 376.7 265.2 376.7 263.1C376.7 262.5 376.7 261.7 376.7 261.1V260.6C376.7 260.4 376.7 260.5 376.7 260.5H376.6C376.6 260.5 376.6 260.5 376.5 260.6L376 260.8L375.1 261.2L373.2 262C370.7 263.1 368.3 264.4 366 265.8C363.7 267.2 361.4 268.7 359.2 270.3C358.1 271.1 357 271.9 356 272.8C355.5 273.2 355 273.7 354.4 274.1L351.9 276.4C351.1 275.2 350.3 274.1 349.5 272.9C347.5 270 345.5 267.2 343.5 264.3C341.9 262 340.3 259.6 338.7 257.3C336.4 261.2 334 265.2 331.7 269.1C328.3 274.9 324.7 280.9 321.8 284.5C320.5 286.1 320.2 286 321.5 283.4C322.5 281.5 323.6 279.4 324.8 277.3C326.7 273.9 328.6 270.6 330.4 267.3C331.6 265.1 332.8 263 334 260.8C334.6 259.7 335.2 258.6 335.8 257.6C336.7 256.1 337.6 254.5 338.5 253C339.6 254.6 340.8 256.3 341.9 257.9C342.7 259.1 343.5 260.3 344.4 261.6C345.8 263.7 347.6 266 348.5 267.9C348.6 268.2 349.2 269 349.5 269.4C350.1 270.2 350.6 270.9 351.2 271.7L352 272.8L352.3 273.2L352.8 272.7L354 271.7C354.9 271 355.7 270.2 356.6 269.5C358.4 268.1 360.3 266.7 362.2 265.5C366.1 263 370.2 260.9 374.3 259.1L376.1 258.4L378.8 257.3H379V257.7V258.4V259.9L379.2 261.9C379.3 264.2 379.4 266.5 379.4 268.8C379.4 273.4 379.3 278.1 378.8 282.8V283.3V283.5H378.9H379H379.3L380.3 283.3C381 283.2 381.7 283.1 382.4 282.9C385.2 282.4 388 282.1 390.7 281.9C392.8 281.7 394.9 281.5 396.9 281.4L400 281.2L403.7 281H406.4L407.8 280.9H408.5H408.4C408.4 281 408.2 281.3 408.2 281.3L404.8 285.5C403.5 287.1 402.3 288.7 401.1 290.4C398.7 293.7 396.4 297.1 394.2 300.6C393.1 302.3 392.1 304.1 391.1 305.9L389.6 308.6L389 309.8L390.1 310C391 310.2 392 310.3 392.9 310.5C402.2 312.2 411.3 314.7 420.1 318.2L423 319.4L423.7 319.7H424.1C424.1 319.8 424.1 319.9 424.1 319.9H423.9C423.9 320 422.7 321.1 422.7 321.1L421.5 322.1C421.1 322.4 420.6 322.9 420.4 323L418.9 324.1C416.9 325.4 414.7 326.6 412.6 327.6C408.3 329.6 403.8 331.1 399.5 332.8C396.6 334 394.2 335.3 391.1 337.1C390.8 337.3 390.3 337.6 390 337.8C389.8 337.9 389.7 338 389.6 338.1C389.6 338.2 389.6 338.1 389.5 338.3C389.5 338.3 389.5 338.3 389.5 338.4C389.5 338.4 389.5 338.4 389.6 338.6C389.8 338.9 390.1 339.1 390.6 339.5C392.2 340.9 393.9 342.3 395.4 343.7C398.2 346.3 401 349.1 403.3 351.8C405.7 354.6 408 357.5 410.2 360.5C411.3 362 412.4 363.5 413.4 365L414.2 366.2C414.6 366.8 415 367.5 415.5 368.1L416.7 370L417.3 371C417.3 371.2 417.3 371.2 417.3 371.2H417L416.4 371C408.5 369.2 400.7 367.5 392.8 365.7C388.2 364.7 383.7 363.6 379.1 362.6V363.4V365.1C379.1 366.3 379 367.5 378.9 368.7C378.7 371.1 378.4 373.5 378.1 375.9C377.4 380.7 376.5 385.4 375.2 390.1L374.8 391.7L374 394.4L373.8 395.1V395.4C373.7 395.4 373.6 395.6 373.6 395.6C373.6 395.6 373.6 395.6 373.5 395.6L372.4 394.7L370.4 393L365.3 388.7C361.9 385.8 358.5 382.9 355.1 380C352.2 377.5 349 375 346.4 372.3C346.1 371.9 344.4 370.6 344.5 370.7V370.9C344.4 370.9 344.3 370.9 344.3 370.9L344.2 371.1C343.9 371.6 343.5 372 343.2 372.5C339.3 377.3 335 381.8 330.3 385.9C328.5 387.5 326.6 389 324.7 390.5C323.7 391.2 322.8 392 321.8 392.6C320.1 393.8 318.3 395 316.5 396.2L317.4 391.2L317.6 390V389.3L317.9 387.9C318.1 386.1 318.3 384.3 318.5 382.4C318.7 379.8 318.8 377.3 318.9 374.7C318.9 373.4 318.9 372.1 318.9 370.9V369C318.9 368.8 318.9 368.8 318.9 368.8C313.6 370.7 308.3 372.6 303 374.5C301.8 374.9 300.5 375.4 299.3 375.8C301.1 373.4 302.9 371 304.8 368.6L307.8 364.7L310.6 361C311.5 359.8 312.5 358.5 313.6 357.3C314.8 355.9 316.4 354.6 318.2 353.8C320 352.9 321.9 352.5 323.7 352.2C325.5 351.9 327.4 351.8 329.1 351.6C330.8 351.5 332.5 351.3 334.2 351.1C340.4 350.3 346.5 348.7 352.1 345.9C357.6 343.1 362.7 339.2 366.3 334.2C369.9 329.3 372.2 323.3 372.5 317.2C372.8 311.1 371 305 367 300.4C362.5 295.2 356.7 291.9 350 290.6C349.2 290.5 348.4 290.3 347.6 290.1C346.8 290 346 289.7 345.3 289.6C344 289.3 343.2 289.1 343.9 288.9C344.2 288.9 344.7 288.9 345.2 288.8C348.7 288.8 352 289.3 355.3 290.3C358.6 291.4 362 293 365.1 295.6C367.4 297.5 369.4 299.8 370.9 302.4C372.5 305 373.5 307.9 374 310.8C375.1 316.7 374.1 322.9 371.8 328.4L371.5 329.3Z" fill="#FE5102"/>
<path d="M224.3 328.799C226.3 327.699 228.4 326.599 230.3 325.399C231 324.899 231.9 324.699 232.4 323.699C232.6 323.199 233.7 323.299 234.3 322.799C236 321.499 237.8 320.399 239.5 318.999C240.3 318.299 241.1 317.599 241.8 316.899L243.9 314.899C243.9 314.799 244.1 314.699 244.3 314.599C244.5 314.499 244.6 314.399 244.6 314.299C244.6 314.299 244.6 314.299 244.5 314.299C244.3 314.299 244.3 314.299 244.5 314.199L244.9 313.999H245.1C245.1 313.799 245.2 313.799 245.2 313.799C245.2 313.799 245.2 313.799 245 313.799C244.4 314.099 244.2 314.199 244.2 314.099C244.2 314.099 244.2 313.899 244 313.899C244 313.899 243.8 313.899 243.7 313.899C243.7 313.899 243.7 313.899 243.6 313.899H243.2C242.4 314.199 241.7 314.599 240.8 314.699C240 314.799 239 314.699 238.4 315.299C238.4 315.299 238 315.299 237.8 315.299C236.9 314.999 235.8 315.099 235.1 315.299C234.4 315.599 233.8 315.599 233.1 315.599C231.3 315.699 229.4 315.699 227.6 315.599C226.2 315.599 224.9 315.199 223.5 315.099C222.1 314.999 220.5 315.099 219.3 314.699C218 314.299 216.8 314.199 215.5 314.099C214.8 314.099 214 313.699 213.3 314.199C213.3 314.199 213 314.199 212.8 314.199C211.8 313.699 210.8 313.599 209.7 313.599H208.9H208.5C208.4 313.599 208.1 313.599 207.9 313.599C207 313.399 206.1 312.999 205.4 312.199C204.1 310.699 203.7 308.599 204.4 306.699C204.6 306.199 204.8 305.799 205.1 305.399C205.2 305.199 205.4 304.999 205.6 304.899L205.8 304.699H206C206 304.599 207.3 303.499 207.3 303.499C207.7 303.099 208.3 302.899 208.5 302.199C208.5 301.999 209 301.599 209.3 301.499C210.9 300.999 212 299.599 213.4 298.599C214.9 297.499 216.2 296.099 218 295.199C218.8 294.899 219.7 294.199 220.1 293.199C220.3 292.699 221.2 292.299 221.7 291.799C222.1 291.399 222.4 290.799 222.8 290.499C223.2 290.199 223.7 290.099 224.1 289.799C224.2 289.799 224.4 289.599 224.5 289.499C226.2 287.199 228.9 286.199 230.9 284.299C232.9 282.399 235.2 280.699 237.4 278.999C238.6 278.099 240 277.199 241.5 277.399C242.2 277.399 242.5 277.899 242.2 278.599C242 279.099 241.7 279.599 241.3 279.999C240.7 280.599 240.1 281.299 239.5 281.899C238.2 283.199 237.2 284.699 235.6 285.699C235.1 285.999 234.8 286.699 234.1 286.599C234.1 286.599 233.8 286.699 233.7 286.799C232.3 288.999 230 290.199 228.1 291.799C226.5 293.199 225.3 294.999 223.4 296.099C222.9 297.299 221.7 298.099 220.7 298.699C217 300.899 214 303.899 210.7 306.499L209.4 307.499L208.8 307.999C208.7 308.099 208.7 308.099 208.6 308.199C208.5 308.399 208.5 308.599 208.6 308.899C208.6 308.999 208.7 309.099 208.8 309.099C208.8 309.099 208.8 309.099 209 309.099H209.2H209.6L212.8 309.499C213.5 309.499 214.2 309.299 215 309.699C215.8 309.999 216.8 309.899 217.7 309.999C218.5 309.999 219.4 309.999 220.2 310.199C223.5 311.099 226.8 310.799 230.1 310.899C233.4 310.899 236.7 310.899 239.9 310.299C240.9 310.099 241.8 309.899 242.8 309.599C243.6 309.399 244.6 309.199 245.5 308.999C246.5 308.799 247.5 308.399 248.5 308.199C249.3 307.999 250.3 307.599 251.3 307.399C251.5 307.599 251.6 307.899 251.4 308.399C251.4 308.499 251.6 308.499 251.9 308.499C252.2 308.499 252.5 308.499 252.6 308.599C252.9 308.599 253.1 308.799 253.3 308.899V309.199V309.599C253.4 309.799 253.4 309.999 253.5 310.299L253.8 311.299L252.3 312.899L250.7 314.499C250 315.199 249.3 315.999 248.6 316.699C248.2 317.099 247.8 317.499 247.4 317.899L246.6 318.699C245.7 319.599 244.7 320.399 243.7 321.199C242.4 322.099 241 322.999 239.6 323.899C238.2 324.799 236.9 325.999 235.5 326.699C232.7 327.899 230.4 329.599 227.7 330.999C225.1 332.299 222.4 333.599 219.8 334.899C218.3 335.599 216.7 335.799 215.2 336.399C214.5 336.699 213 335.699 213.1 335.099C213.1 334.999 213.1 334.799 213.3 334.799C214.6 333.799 215.6 332.599 217.3 331.999C219.7 330.999 222.1 329.899 224.4 328.599L224.3 328.799Z" fill="black"/>
<path d="M255 426C254.7 424.1 254.4 422.3 254 420.4C253.9 419.7 254 419 253.3 418.3C253 418 253.5 417.2 253.3 416.6C252.9 414.9 252.7 413.1 252.3 411.4C251.9 409.7 251.4 408.1 251.1 406.4C250.7 404.7 250.7 403 250.1 401.4C249.6 400 249.9 398.7 249.5 397.4C249.1 396 248.8 394.5 248.8 393.1C248.8 392.1 248.8 391.1 248.5 390.3C248.3 389.8 247.8 389.4 247.6 389C247.6 388.8 247.4 388.5 247.3 388.3C247.1 388.1 246.9 388 246.6 388C246.6 388 246.6 387.8 246.5 387.7C246.5 387.1 245.9 386.7 245.3 386.7C244.8 386.7 244.5 386.5 244.1 386.3C243 385.8 241.7 385.5 240.3 385.1C239.3 384.8 238.3 384.3 237.2 383.9C236.1 383.5 234.7 383.3 233.7 382.4C232.8 381.6 231.8 380.9 230.9 380.1C230.4 379.6 230.1 378.9 229.2 378.9C229.2 378.9 229 378.7 228.9 378.6C228.6 377.6 228.1 376.9 227.5 376.2C226.9 375.5 226.3 374.8 226 374C225.4 372.2 224.5 370.7 223.8 369C223.6 368.6 223.6 368 223 367.8C222.8 367.8 222.6 367.3 222.6 367C222.6 365.5 221.8 364.4 221.4 363.1C220.9 361.6 220.1 360.3 220 358.7C220 358 219.7 357.1 218.9 356.6C218.5 356.4 218.5 355.6 218.2 355.1C218 354.7 217.6 354.4 217.4 353.9C217.3 353.5 217.4 353.1 217.4 352.7C217.4 352.6 217.4 352.4 217.3 352.3C215.9 350.4 216 348 215.1 345.9C214.2 343.8 213.5 341.6 212.9 339.4C212.6 338.2 212.4 336.9 213.2 335.7C213.6 335.2 214.1 335 214.6 335.4C214.9 335.7 215.3 336.1 215.5 336.5C215.8 337.2 216.2 337.8 216.5 338.4C217.1 339.7 218.1 340.9 218.3 342.4C218.3 342.9 218.8 343.3 218.5 343.8V344.1C219.9 345.7 220.1 347.8 220.8 349.7C221.4 351.3 222.6 352.6 223 354.4C223.9 355.1 224.2 356.1 224.4 357.1C225 360.5 226.7 363.5 228 366.7C229.3 369.9 230.6 373.1 232.4 375.5C232.7 375.9 233.3 376 233.5 376.6C233.7 377.2 234.4 377.5 234.9 377.8C235.4 378.1 235.9 378.3 236.4 378.7C237.3 379.5 238.5 380 239.8 380.3C241.1 380.7 242.4 380.9 243.8 381.4C245.2 381.9 246.6 382.4 247.9 383.3C249.3 384.2 250.5 385.4 251.4 386.8C252.5 388.5 253.2 390.3 253.4 392C253.4 392.7 253.9 393.4 253.4 394.2C253.3 394.4 253.8 395 253.9 395.4C254.1 396.5 254.3 397.6 254.5 398.8C254.8 400.4 255 401.9 255.3 403.5C255.5 404.4 255.9 405.3 256.1 406.3C256.3 407.3 256.5 408.3 256.6 409.3C256.7 410.6 256.8 411.9 256.9 413.1C257.1 414.4 257.6 415.7 257.5 417C257.5 419.4 258.1 421.7 258.4 424C258.7 426.3 259.1 428.6 259.6 430.9C259.9 432.2 259.6 433.5 259.8 434.7C259.9 435.3 258.6 436.4 258.1 436.2C258 436.2 257.9 436.1 257.8 436C257.1 434.8 256.2 433.8 256 432.4C255.7 430.3 255.3 428.2 254.9 426H255Z" fill="black"/>
<path d="M329.3 348.799C331.6 348.399 333.9 348.099 336.2 347.599C337 347.399 338 347.599 338.7 346.799C339.1 346.499 340 346.899 340.8 346.799C342.9 346.299 345 345.899 346.9 345.199C348.8 344.499 350.6 343.599 352.3 342.599C354 341.699 355.9 340.799 357.2 339.399C358.3 338.199 359.7 337.599 360.8 336.399C361.9 335.099 362.9 333.799 364 332.499C364.4 332.099 364.8 331.599 365.2 331.099C365.6 330.599 365.9 330.099 366.1 329.599C366.4 328.899 366.4 328.199 366.7 327.399C366.8 327.099 367.1 326.699 367.2 326.399C367.3 325.999 367.4 325.699 367.2 325.299C367.2 325.299 367.4 324.999 367.5 324.799C368.1 324.199 368.4 323.199 368.2 322.499C368.2 322.199 368.2 321.899 368.2 321.599C368.2 321.299 368.2 320.999 368.2 320.699C368.4 319.099 368.4 317.499 368.4 315.799C368.4 314.599 368.4 313.299 368.2 312.099C368.2 311.499 367.9 310.799 367.7 310.199C367.5 309.599 367.3 308.999 367.2 308.399C367.1 307.199 366.6 306.099 366 305.099C365.7 304.499 365.5 303.699 364.7 303.599C364.7 303.599 364.5 303.399 364.5 303.299C364.5 302.799 364.2 302.399 363.9 301.999C363.6 301.599 363.3 301.299 362.9 300.999C362.2 300.399 361.3 299.899 360.7 299.199C359.3 297.799 357.5 296.799 355.7 295.899C355.2 295.699 354.8 295.299 354.1 295.499C353.9 295.499 353.4 295.499 353.1 295.199C352.5 294.699 351.8 294.399 351 294.199C350.3 293.999 349.5 293.899 348.7 293.699C347.9 293.399 347 293.399 346.1 293.299C345.2 293.299 344.3 293.099 343.4 292.899C342.6 292.699 341.6 292.599 340.7 293.199C340.3 293.499 339.4 293.199 338.8 293.399C338.3 293.499 337.8 293.799 337.3 293.899C336.9 293.899 336.4 293.899 335.9 293.899C335.8 293.899 335.6 293.899 335.5 293.899C334.3 294.499 333 294.699 331.7 294.999C330.4 295.299 329.1 295.499 328 296.099C325.7 297.299 323.5 298.599 322.1 300.199C321.3 301.099 320.7 301.999 319.4 302.699C318.8 302.999 318.2 302.999 318.1 302.299C318.1 301.999 318 301.699 318 301.399C318 301.099 318 300.799 318.1 300.499C318.4 299.499 318.8 298.599 319.4 297.799C320.5 296.099 321.8 294.499 323.7 293.699C324.3 293.499 324.8 292.899 325.5 293.099C325.5 293.099 325.8 293.099 325.9 292.999C328 291.199 330.7 290.899 333.2 290.199C335.3 289.599 337.4 288.699 339.7 288.799C340.3 288.399 341 288.299 341.7 288.199C342.4 288.199 343.1 288.199 343.7 288.299C345.9 288.699 348.2 288.899 350.4 289.399C352.6 289.899 354.8 290.399 356.9 291.399C361.1 293.399 365 296.299 367.7 300.199C368.1 300.899 368.9 301.199 369.1 302.199C369.2 302.599 369.4 303.099 369.7 303.499C369.9 303.999 370.2 304.399 370.4 304.899C370.8 305.799 371.3 306.599 371.4 307.499C371.7 309.299 372 311.099 372.3 312.799C372.6 314.599 372.8 316.399 372.7 318.199C372.5 321.799 371.7 325.299 370.5 328.699C369.8 330.699 369 332.799 367.7 334.599C367.1 335.299 366.8 336.399 365.8 336.699C365.5 336.699 365.3 337.799 364.9 338.199C364.4 338.799 363.9 339.299 363.4 339.899C362.9 340.399 362.3 340.899 361.8 341.399C360.2 342.799 358.5 343.999 356.8 345.099C355.7 345.799 354.8 346.599 353.6 347.199C352.4 347.799 351.2 348.399 349.9 348.699C348.3 349.199 346.7 349.499 345.1 349.799C343.4 350.199 341.8 350.799 340.2 350.799C337.2 350.799 334.4 351.599 331.5 351.999C328.6 352.399 325.8 352.799 322.9 353.399C321.3 353.699 319.7 353.399 318.2 353.699C317.5 353.799 316.2 352.499 316.5 351.999C316.5 351.899 316.6 351.799 316.8 351.699C318.3 350.999 319.6 349.999 321.4 349.799C324 349.399 326.6 348.999 329.3 348.499V348.799Z" fill="black"/>
<path d="M237.9 280.7C237.2 280.4 236.4 280.1 235.6 279.9C235.3 279.9 235.1 279.5 234.6 279.9C234.4 280.1 234.3 279.4 234 279.3C233.3 279.1 232.6 278.8 231.9 278.6C231.2 278.4 230.4 278.4 229.7 278.2C229 278 228.4 277.5 227.7 277.6C227 277.6 226.7 277 226.1 276.9C225.5 276.9 224.9 276.7 224.4 276.3C224.1 276 223.7 275.6 223.3 275.6C223 275.6 222.7 275.8 222.4 275.6C222.2 275.5 222 275.1 221.5 275.6C221.5 275.6 221.4 275.5 221.4 275.4C221.3 274.9 220.9 274.8 220.6 275C220.3 275.2 220.1 275 219.9 275C219.3 274.8 218.7 274.6 218.2 274.4C217.8 274.2 217.4 273.8 217 273.6C216.6 273.4 216 273.5 215.7 273C215.4 272.6 215 272.4 214.6 272.3C214.4 272.3 214.2 271.8 213.8 272.3H213.7C213.3 271.3 212.3 272.1 211.7 271.7C211.1 271.3 210.3 271.2 209.6 270.9C209.4 270.9 209.3 270.6 208.9 270.9C208.8 271 208.6 270.9 208.5 270.9C208.2 270.1 207.5 270.3 207 270C206.4 269.7 205.7 269.7 205.3 269.1C205.1 268.8 204.8 268.6 204.3 269.1C204.1 269.3 203.9 268.9 203.6 268.9C203.4 268.9 203.1 269.1 203 269C202.8 269 202.8 268.7 202.6 268.5C202.6 268.5 202.6 268.5 202.5 268.5C201.4 268.8 200.8 267.7 199.8 267.6C198.8 267.5 198 267.1 197.1 266.7C196.6 266.5 196.2 266.1 196.2 264.9C196.2 264.4 196.4 263.8 196.7 263.6C196.9 263.4 197.2 263.3 197.4 263.3C197.7 263.3 198 263.3 198.4 263.3C199 263.3 199.8 263 200.3 263.5C200.5 263.6 200.8 263.5 200.8 264C200.8 264 200.8 264.1 200.9 264.1C202 263.6 202.6 264.4 203.4 264.6C204.1 264.8 205 264.4 205.6 264.9C206.2 264.4 206.6 264.7 206.9 265C208 266.1 209.6 266.1 210.9 266.7C212.3 267.3 213.7 267.7 215 268.2C215.2 268.2 215.6 268 215.7 268.4C215.9 268.7 216.3 268.7 216.6 268.8C216.9 268.8 217.2 268.8 217.4 269.1C218.3 270.1 219.5 270.1 220.5 270.6C221.6 271.1 222.6 271.5 223.7 271.7C224.4 271.8 225.2 271.7 225.8 272.1C226.1 272.3 226.5 272.1 226.6 272.7C226.6 272.9 227 272.6 227.2 272.7C227.7 272.8 228.1 273 228.6 273.2C229.2 273.4 229.8 273.7 230.5 273.9C230.9 274 231.4 273.9 231.8 273.9C232.2 273.9 232.6 274.1 233 274.3C233.5 274.6 233.9 274.9 234.4 275.2C234.9 275.4 235.5 275.4 236 275.8C236.8 276.6 237.8 276.7 238.7 277.1C239.6 277.5 240.5 277.9 241.5 278.1C242 278.2 242.3 278.9 242.9 279.1C243.1 279.1 242.9 280.7 242.7 281.1C242.7 281.1 242.6 281.3 242.5 281.3C241.8 281.5 241.1 282.1 240.6 281.8C239.8 281.4 238.9 281.2 238.1 280.8L237.9 280.7Z" fill="black"/>
<path d="M378.2 237.401C374.8 236.401 371.4 235.401 368 234.501C366.7 234.201 365.5 233.501 364 233.701C363.3 233.701 362.2 232.801 361 232.501C357.8 231.701 354.6 230.801 351.4 230.001C348.3 229.301 345.1 228.701 342 228.001C338.9 227.301 335.8 226.201 332.7 225.801C330.1 225.501 327.8 224.401 325.3 224.001C322.6 223.501 319.9 223.001 317.4 222.201C315.6 221.601 313.7 221.001 311.8 220.701C310.6 220.501 309.5 220.701 308.2 220.301C307 220.001 305.7 219.501 304.6 219.901C304.6 219.901 304 219.701 303.7 219.601C302.5 218.901 300.9 218.701 299.8 218.801C298.7 218.801 297.8 218.801 296.9 218.601C294.3 218.301 291.7 218.101 289.1 218.001C287.2 218.001 285.3 217.901 283.4 218.101C281.4 218.401 279.4 219.201 277.5 219.401C275.6 219.701 273.9 220.301 272.2 221.101C271.2 221.501 269.9 221.801 269.4 222.701C269.4 222.701 269 222.901 268.8 223.001C265.7 223.601 263.5 226.001 260.6 227.301C257.6 228.601 254.8 230.401 251.9 232.001C251.1 232.401 250.2 232.701 249.7 233.501C249.5 233.801 248.7 234.201 248.3 234.401C245.9 235.001 243.8 236.701 241.6 237.801C239.1 239.101 236.7 240.801 234 241.901C232.8 242.301 231.4 243.101 230.4 244.401C230 245.001 228.6 245.501 227.8 246.101C227.1 246.601 226.5 247.301 225.8 247.701C225.2 248.101 224.4 248.301 223.8 248.601C223.6 248.601 223.4 248.801 223.2 249.001C220 251.801 216 253.201 212.6 255.701C209.2 258.101 205.5 260.401 202 262.701C200 264.001 197.9 265.201 196 265.101C195.1 265.101 194.8 264.601 195.4 263.801C195.9 263.201 196.4 262.501 197.1 262.001C198.1 261.201 199.2 260.301 200.2 259.501C202.3 257.801 204.3 255.901 206.8 254.601C207.6 254.201 208.3 253.401 209.2 253.401C209.3 253.401 209.6 253.201 209.8 253.101C212.5 250.401 216.1 248.701 219.3 246.701C222 244.901 224.4 242.801 227.3 241.301C228.5 239.801 230.4 238.801 232.1 238.101C238 235.401 243.3 231.801 249 228.701L257.6 224.001C260.5 222.501 263.4 220.901 266.4 219.501C267.4 219.001 268.2 218.301 269.5 218.001C270.7 217.701 272.2 216.901 273.5 216.401C274.8 215.901 276.1 215.301 277.4 215.101C280 214.701 282.7 214.201 285.3 213.901C288 213.601 290.7 213.601 293.3 213.901C298.5 214.401 303.6 215.501 308.6 216.401C311.7 216.901 314.8 217.201 317.8 218.001C319.1 218.301 320.5 218.301 321.7 219.201C322 219.401 323.3 219.201 324.2 219.401C326.3 219.801 328.4 220.301 330.4 220.801C333.3 221.501 336.2 222.201 339.1 222.801C340.9 223.201 342.7 223.401 344.4 223.801C346.2 224.201 348.1 224.701 349.9 225.201C352.2 225.901 354.5 226.701 356.8 227.401C359.2 228.101 361.8 228.501 364 229.401C368.1 231.101 372.4 232.001 376.7 233.301C380.9 234.601 385.2 235.701 389.4 237.601C391.8 238.601 393.7 240.301 395.6 242.101C396 242.501 396.3 243.301 396.3 243.901C396.3 244.501 396.1 245.101 395.8 245.001C395.7 245.001 395.5 245.001 395.3 244.801C394.4 244.101 393.4 243.601 392.4 243.201C391.4 242.701 390.4 242.301 389.2 241.701C385.9 239.901 382.1 238.801 378.2 237.701V237.401Z" fill="black"/>
<path d="M381 412.598C380.8 409.598 380.7 406.598 380.6 403.598C380.6 402.498 380.8 401.398 380.3 400.198C380 399.598 380.7 398.598 380.7 397.498C380.7 394.698 380.9 391.898 381 389.098C381.1 386.398 381.2 383.698 381.4 380.998C381.7 378.298 382.3 375.598 382.4 372.998C382.4 370.698 383.4 368.798 383.7 366.698C384 364.498 384.4 362.098 385.1 359.998C385.6 358.498 386.2 356.998 386.4 355.398C386.6 354.398 386.4 353.398 386.7 352.398C387 351.398 387.5 350.398 387.1 349.398C387.1 349.398 387.3 348.898 387.4 348.698C388 347.698 388.3 346.398 388.3 345.498C388.3 344.598 388.4 343.798 388.6 342.998C389.1 340.798 389.5 338.598 390 336.398C390.4 334.798 390.9 333.198 391.3 331.498C391.7 329.798 391.7 327.898 392.3 326.398C392.9 324.798 393.1 323.298 393.4 321.698C393.5 320.798 394 319.798 393.4 318.998C393.4 318.998 393.4 318.598 393.4 318.398C394.6 315.998 393.9 313.298 394.4 310.698C395 308.098 395.1 305.298 395.4 302.598C395.4 301.898 395.7 301.098 395.4 300.398C395.3 300.098 395.4 299.398 395.4 298.998C396.2 296.998 396 294.898 396.3 292.798C396.6 290.398 396.5 288.098 397.1 285.698C397.4 284.698 397.6 283.298 397.1 282.098C396.9 281.498 397.1 280.398 397.1 279.498C397.1 278.798 396.8 278.098 396.8 277.398C396.8 276.798 397.1 276.198 397.2 275.598C397.2 275.398 397.2 275.198 397.2 274.998C396.6 271.498 397.6 268.098 397.4 264.598C397.2 261.098 397.2 257.698 396.7 254.398C396.4 252.598 396.1 250.798 396.7 249.198C397 248.498 397.5 248.198 398.1 248.898C398.6 249.398 399 249.998 399.3 250.698C399.7 251.798 400.1 252.898 400.4 253.998C401 256.298 401.7 258.598 401.5 260.998C401.5 261.698 401.8 262.598 401.3 263.198C401.3 263.198 401.2 263.598 401.3 263.698C402.1 266.798 401.5 270.098 401.5 273.298C401.5 275.998 402 278.698 401.6 281.398C402.2 282.898 402 284.698 401.6 286.198C400.6 291.498 400.6 296.898 400 302.198C399.3 307.598 398.7 312.998 397.9 318.398C397.8 319.298 397.9 320.198 397.5 321.198C397.1 322.198 397.1 323.498 396.9 324.698C396.7 325.798 396.7 326.898 396.3 327.898C394.9 331.998 394.4 336.298 393.5 340.398C392.5 344.498 391.5 348.698 390.7 352.798C390.2 355.298 390 357.898 389.3 360.398C389 361.498 389.1 362.698 388.3 363.598C388.1 363.898 388.3 364.998 388.2 365.698C387.9 367.398 387.5 369.098 387.2 370.898C386.8 373.298 386.3 375.698 386.1 378.098C386 379.598 386 381.098 385.9 382.498C385.8 383.998 385.6 385.598 385.5 387.098C385.3 388.998 384.9 390.998 384.8 392.898C384.6 394.898 384.8 397.098 384.6 398.998C384 402.598 384.4 406.298 384.6 409.898C384.7 413.498 385 417.098 385.6 420.698C385.9 422.698 385.6 424.598 386 426.598C386.2 427.498 384.9 428.998 384.3 428.698C384.2 428.698 384.1 428.498 384 428.398C383.2 426.498 382.2 424.798 382 422.498C381.6 419.098 381.2 415.798 381 412.398V412.598Z" fill="black"/>
<path d="M337.7 282.6C335.6 281.8 333.3 281.5 331 281.6C330.1 281.6 329.2 281.4 328.4 282.1C328 282.4 327.1 281.9 326.3 282.1C324.1 282.5 321.9 283 319.8 283.8C317.8 284.6 315.9 285.6 314.1 286.7C312.3 287.8 310.4 288.9 309.3 290.5C308.3 291.9 307 292.7 306.3 294.2C305.5 295.7 304.9 297.3 304.2 298.9C303.7 300 303.2 301.2 303.1 302.5C303.1 303.3 303.3 304.1 303.2 304.9C303.2 305.7 302.8 306.6 303.5 307.3C303.5 307.3 303.5 307.7 303.4 307.9C303 308.8 303.1 309.9 303.4 310.6C303.7 311.3 303.8 311.9 303.9 312.6C304.2 314.4 304.5 316.2 304.8 318C305 319.3 305.2 320.7 305.6 321.9C306 323.2 306.9 324.4 307.2 325.6C307.6 326.8 308.3 327.7 309.1 328.5C309.6 328.9 310 329.7 310.8 329.4C310.8 329.4 311.1 329.5 311.1 329.6C311.7 330.4 312.6 330.8 313.5 330.9C314.5 331 315.4 330.9 316.4 331.2C318.4 331.6 320.7 331.4 323 331.2C323.6 331.2 324.2 331.2 324.7 330.7C324.9 330.5 325.5 330.4 325.8 330.5C327.5 330.9 329.1 330.1 330.6 329.7C332.4 329.2 333.7 328.1 335.4 327.4C336.1 327.1 337 326.4 337.1 325.4C337.1 324.9 337.8 324.4 338.1 323.9C338.3 323.4 338.3 322.9 338.4 322.5C338.5 322.1 338.9 321.8 339.1 321.5C339.1 321.4 339.1 321.2 339.1 321.1C339 319.9 339 319 338.7 318.3C338.5 317.6 337.9 316.8 336.8 316.5C335.8 316.2 334.6 316.2 333.6 316.3C332.5 316.5 331.3 316.9 330.1 317.5C328.8 318.2 327.4 319 325.8 318.7C325.1 318.6 324.8 318.1 325.1 317.5C325.4 317 325.7 316.5 326.2 316.1C326.9 315.5 327.7 314.8 328.5 314.3C329.3 313.7 330.2 313.1 331.2 312.7C332.2 312.2 333.4 312 334.6 312.1C335.3 312.1 336.3 312 336.8 312.6C336.8 312.6 337.1 312.8 337.3 312.8C338.9 312.8 340.6 313.7 341.7 315.1C342.9 316.6 343.2 318.5 343.2 320.1C343.2 321.5 343.1 322.8 342.7 324.1C342.4 325.4 341.8 326.6 340.9 327.6C340.5 329.2 339.2 330.4 337.9 331.2C333.4 333.9 328.7 335.4 323.9 335.8C321.5 336 319.2 336.1 316.7 335.9C314.2 335.7 311.6 335.2 309.2 333.9C308.8 333.7 308.4 333.5 308 333.3C307.6 333.1 307.2 332.8 306.9 332.4C306.3 331.5 305.2 330.8 304.6 329.9C303.9 329.1 303.3 328.2 302.9 327.3C301.6 323.5 300.3 320 299.8 316.3C299.3 312.7 299 309 299 305.2C299 302.9 299 300.5 299.8 298.3C300.1 297.3 300.2 296.2 301.1 295.5C301.4 295.3 301.3 294.2 301.6 293.6C302.3 292.1 303.3 290.7 304.3 289.4C305.7 287.6 307.5 286.1 309.2 284.7C310.3 283.9 311.3 282.9 312.5 282.2C313.7 281.4 315 280.9 316.4 280.4C318.1 279.8 319.9 279.5 321.6 279.1C323.4 278.7 325.2 278.1 327 278.1C330.3 278.1 333.6 277.9 337 278.7C340.3 279.6 343.4 281.3 345.8 283.6C347.2 284.9 347.9 286.6 348.8 288.2C349.2 289 348.3 290.6 347.7 290.5C347.6 290.5 347.4 290.5 347.4 290.3C346.3 289 345 288.3 343.9 287C342.3 285.1 340.1 283.6 337.7 282.8V282.6Z" fill="black"/>
<path d="M327.4 318.499C326.9 318.499 326.4 318.499 325.9 318.499C325.7 318.499 325.5 318.299 325.3 318.799C325.2 319.099 325 318.399 324.8 318.499C324.3 318.499 323.8 318.499 323.2 318.499C322.7 318.499 322 318.499 321.4 318.499C320.7 318.299 320.3 317.699 319.5 317.599C318.8 317.399 318.8 316.699 318.5 316.399C318.1 316.099 317.8 315.699 317.8 315.199C317.8 314.899 317.8 314.499 317.7 314.299C317.6 314.199 317.2 314.199 317.1 313.999C317.1 313.799 317.1 313.499 316.6 313.699C316.6 313.699 316.6 313.599 316.6 313.499C316.9 313.099 316.8 312.899 316.4 312.899C316.1 312.899 316.1 312.699 316 312.599C315.8 312.199 315.6 311.799 315.5 311.399C315.5 311.099 315.5 310.699 315.5 310.299C315.5 309.899 315.1 309.599 315.3 309.299C315.5 308.899 315.5 308.599 315.4 308.299C315.4 308.099 315.6 307.899 315 307.799C315 307.799 315 307.799 315 307.699C315.8 307.099 314.7 306.699 315 306.199C315.2 305.699 315.1 305.099 315.2 304.599C315.2 304.499 315.4 304.299 315 304.099C314.8 304.099 314.9 303.899 315 303.799C315.7 303.499 315.4 303.099 315.6 302.699C315.8 302.299 315.6 301.799 316.3 301.499C316.6 301.399 316.8 301.199 316.3 300.799C316.1 300.599 316.4 300.499 316.4 300.299C316.4 300.199 316.2 299.899 316.3 299.799C316.3 299.699 316.6 299.699 316.8 299.599C316.8 299.599 316.8 299.599 316.8 299.499C316.5 298.599 317.6 298.399 317.8 297.799C318 297.099 318.5 296.599 319 296.199C319.3 295.899 319.7 295.799 320.7 296.399C321.1 296.699 321.5 297.099 321.7 297.399C321.8 297.599 321.9 297.899 321.9 297.999C321.9 298.199 321.9 298.399 321.9 298.599C321.9 298.999 322.1 299.599 321.7 299.699C321.6 299.699 321.7 299.999 321.3 299.699H321.2C321.6 300.499 320.9 300.599 320.8 301.099C320.6 301.499 321.1 302.099 320.7 302.299C321.2 302.699 321 302.899 320.7 302.999C319.8 303.499 320.1 304.399 319.9 305.099C319.7 305.799 319.8 306.599 319.8 307.299C319.8 307.399 320.2 307.499 319.9 307.699C319.7 307.899 319.9 307.999 319.9 308.199C319.9 308.299 320.1 308.499 319.9 308.599C319.4 309.299 319.9 309.799 320.1 310.399C320.3 310.999 320.5 311.599 320.9 312.099C321.2 312.399 321.7 312.599 321.8 312.999C321.8 313.199 322.2 313.099 321.8 313.599C321.7 313.699 322.1 313.599 322.2 313.599C322.4 313.699 322.4 313.899 322.5 313.999C322.6 314.099 322.7 314.199 322.9 314.299C323 314.299 323.2 314.099 323.3 314.099C323.4 314.099 323.6 314.099 323.7 314.199C323.9 314.299 324.1 314.499 324.4 314.599C324.7 314.599 325 314.399 325.3 314.599C325.9 315.099 326.5 314.799 327.1 314.899C327.7 314.899 328.3 314.899 328.9 314.899C329.2 314.899 329.6 315.299 329.9 315.299C330.1 315.299 330.3 316.799 330.3 317.299V317.499C330 317.999 329.7 318.699 329.3 318.699C328.7 318.699 328.2 318.699 327.6 318.699L327.4 318.499Z" fill="black"/>
<path d="M256.9 268.902C256.9 268.602 257 268.302 257 268.002C257 267.902 257.3 267.802 256.8 267.602C256.6 267.502 257.2 267.602 257.2 267.402C257.2 267.102 257.4 266.902 257.4 266.602C257.4 266.302 257.4 266.002 257.4 265.702C257.4 265.402 257.9 265.302 257.7 264.902C257.6 264.502 258.1 264.602 258.1 264.402C258.1 264.102 258.2 263.902 258.5 263.902C258.7 263.902 259 263.902 259 263.702C259 263.602 258.8 263.302 259 263.202C259 263.202 259.4 263.202 259 262.702C259 262.702 259 262.702 259.2 262.702C259.6 262.902 259.6 262.702 259.5 262.502C259.4 262.202 259.5 262.202 259.5 262.102C259.6 261.902 259.8 261.702 260 261.602C260.2 261.602 260.4 261.602 260.6 261.602C260.8 261.602 260.7 261.202 261.1 261.302C261.4 261.502 261.5 261.302 261.6 261.302C261.6 261.302 261.9 261.402 261.6 260.902C262.3 261.402 261.9 260.402 262.2 260.402C262.5 260.402 262.7 260.202 262.9 260.002C262.9 260.002 263.1 260.002 262.9 259.702C262.9 259.502 262.9 259.502 262.9 259.602C263.4 260.102 263.4 259.602 263.6 259.602C263.8 259.602 263.9 259.202 264.3 259.602C264.5 259.702 264.6 259.802 264.5 259.202C264.5 258.902 264.6 259.202 264.7 259.002C264.7 259.002 264.7 258.702 264.7 258.602C264.7 258.602 264.9 258.802 265 258.802C265 258.102 265.7 258.802 265.9 258.502C266.1 258.202 266.4 258.202 266.7 258.102C266.9 258.102 267.1 258.102 267.6 259.202C267.8 259.702 268.1 260.202 268.1 260.502C268.1 260.702 268.1 261.002 268.1 261.102C268.1 261.202 268.1 261.402 268 261.502C268 261.802 268 262.302 267.7 262.102C267.7 262.102 267.7 262.302 267.4 261.902C267.4 262.702 267 262.402 266.8 262.502C266.6 262.602 266.7 263.302 266.4 263.102C266.6 263.702 266.4 263.702 266.2 263.602C265.5 263.202 265.4 263.802 265 263.902C264.6 264.002 264.3 264.302 264 264.502C264 264.502 264 264.902 263.9 264.702C263.7 264.502 263.7 264.702 263.7 264.702C263.7 264.702 263.7 264.902 263.5 264.802C262.9 264.502 262.9 265.002 262.6 265.102C262.3 265.202 262.1 265.402 262 265.702C262 265.902 262.1 266.202 262 266.302C262 266.302 262.1 266.602 261.6 266.302C261.5 266.302 261.8 266.502 261.8 266.602C261.8 266.702 261.7 266.802 261.6 266.902C261.6 267.002 261.4 267.102 261.4 267.302C261.4 267.402 261.6 267.602 261.6 267.702C261.6 267.802 261.6 267.902 261.5 267.902C261.4 267.902 261.1 268.002 261.1 268.102C261 268.102 261.2 268.402 260.9 268.402C260.3 268.402 260.6 268.802 260.5 269.002C260.5 269.202 260.4 269.402 260.5 269.602C260.5 269.702 260.1 269.902 260.1 270.002C260.1 270.002 258.7 270.302 258.1 270.402H257.9C257.4 270.302 256.7 270.102 256.7 269.902C256.7 269.502 256.7 269.202 256.7 268.802L256.9 268.902Z" fill="black"/>
<path d="M270.3 276.402C270.3 276.102 270.4 275.802 270.4 275.502C270.4 275.402 270.7 275.302 270.2 275.102C270 275.002 270.6 275.102 270.6 274.902C270.6 274.602 270.8 274.402 270.8 274.102C270.8 273.802 270.8 273.502 270.8 273.202C270.8 272.902 271.3 272.802 271.1 272.402C271 272.002 271.5 272.102 271.5 271.902C271.5 271.602 271.6 271.402 271.9 271.402C272.1 271.402 272.4 271.402 272.4 271.202C272.4 271.102 272.2 270.802 272.4 270.702C272.4 270.702 272.8 270.702 272.4 270.202C272.4 270.202 272.4 270.202 272.6 270.202C273 270.402 273 270.202 272.9 270.002C272.8 269.702 272.9 269.702 272.9 269.602C273 269.402 273.2 269.202 273.4 269.102C273.6 269.102 273.8 269.102 274 269.102C274.2 269.102 274.1 268.702 274.5 268.802C274.8 269.002 274.9 268.802 275 268.802C275 268.802 275.3 268.902 275 268.402C275.7 268.902 275.3 267.902 275.6 267.902C275.9 267.902 276.1 267.702 276.3 267.502C276.3 267.502 276.5 267.502 276.3 267.202C276.3 267.002 276.3 267.002 276.3 267.102C276.8 267.602 276.8 267.102 277 267.102C277.2 267.102 277.3 266.702 277.7 267.102C277.9 267.202 278 267.302 277.9 266.702C277.9 266.402 278 266.702 278.1 266.502C278.1 266.502 278.1 266.202 278.1 266.102C278.1 266.102 278.3 266.302 278.4 266.302C278.4 265.602 279.1 266.302 279.3 266.002C279.5 265.702 279.8 265.702 280.1 265.602C280.3 265.602 280.5 265.602 281 266.702C281.2 267.202 281.5 267.702 281.5 268.002C281.5 268.202 281.5 268.502 281.5 268.602C281.5 268.702 281.5 268.902 281.4 269.002C281.4 269.302 281.4 269.802 281.1 269.602C281.1 269.602 281.1 269.802 280.8 269.402C280.8 270.202 280.4 269.902 280.2 270.002C280 270.102 280.1 270.802 279.8 270.602C280 271.202 279.8 271.202 279.6 271.102C278.9 270.702 278.8 271.302 278.4 271.402C278 271.502 277.7 271.802 277.4 272.002C277.4 272.002 277.4 272.402 277.3 272.202C277.1 272.002 277.1 272.202 277.1 272.202C277.1 272.202 277.1 272.402 276.9 272.302C276.3 272.002 276.3 272.502 276 272.602C275.7 272.702 275.5 272.902 275.4 273.202C275.4 273.402 275.5 273.702 275.4 273.802C275.4 273.802 275.5 274.102 275 273.802C274.9 273.802 275.2 274.002 275.2 274.102C275.2 274.202 275.1 274.302 275 274.402C275 274.502 274.8 274.602 274.8 274.802C274.8 274.902 275 275.102 275 275.202C275 275.302 275 275.402 274.9 275.402C274.8 275.402 274.5 275.502 274.5 275.602C274.4 275.602 274.6 275.902 274.3 275.902C273.7 275.902 274 276.302 273.9 276.502C273.9 276.702 273.8 276.902 273.9 277.102C273.9 277.202 273.5 277.402 273.5 277.502C273.5 277.502 272.1 277.802 271.5 277.902H271.3C270.8 277.802 270.1 277.602 270.1 277.402C270.1 277.002 270.1 276.702 270.1 276.302L270.3 276.402Z" fill="black"/>
<path d="M274.5 302.102C275.2 302.802 275.8 303.502 276.5 304.302C276.8 304.602 276.8 305.102 277.5 305.402C277.9 305.602 277.5 306.402 277.6 306.802C277.9 308.202 277.4 309.302 277.2 310.302C276.9 311.302 276.6 312.202 276.1 313.102C275.6 314.002 274.7 314.502 274.2 315.302C273.7 316.102 272.8 316.102 272.2 316.602C271.6 317.102 270.8 317.602 270 317.602C269.4 317.602 268.8 317.602 268.3 317.802C268 318.002 267.7 318.302 267.3 318.402C266.9 318.402 266.5 318.202 266.3 318.902C266.3 318.902 266.1 318.902 266 318.802C265.6 318.402 265.1 318.502 264.8 318.802C264.5 319.102 264.2 319.002 263.9 319.102C263.1 319.102 262.3 319.102 261.5 318.902C260.9 318.802 260.4 318.402 259.8 318.202C259.2 318.002 258.5 318.102 258 317.602C257.6 317.102 257.1 316.902 256.5 316.702C256.2 316.602 256 316.102 255.5 316.602C255.5 316.602 255.3 316.602 255.3 316.502C255.1 315.902 254.7 315.702 254.2 315.602C253.7 315.402 253.2 315.302 252.9 314.902C252.3 314.102 251.4 313.402 250.8 311.902C250.7 311.502 250.8 311.102 250.3 310.802C250.1 310.702 250.1 310.302 250.2 310.102C250.8 309.202 250.5 308.602 250.7 307.902C250.9 307.202 250.7 306.302 251.3 305.602C251.6 305.302 251.7 304.902 251.3 304.302C251.1 304.102 251.4 303.702 251.4 303.402C251.4 303.102 251.2 302.802 251.3 302.602C251.3 302.402 251.7 302.302 251.8 302.102C251.8 302.102 251.8 302.002 251.8 301.902C251.8 301.202 252 300.602 252.5 300.102C252.9 299.602 253.4 299.102 253.8 298.602C254.5 297.402 255.6 296.502 257 295.902C257.7 295.602 258.7 295.502 259.4 296.502C259.7 297.002 259.8 297.502 259.6 297.902C259.5 298.202 259.4 298.402 259.2 298.602C259 298.802 258.8 299.002 258.6 299.202C258.2 299.602 258.1 300.402 257.6 300.502C257.4 300.502 257.6 300.902 257 300.702H256.9C257 301.802 256.2 302.102 255.9 302.902C255.7 303.602 256.1 304.402 255.7 305.002C256.2 305.502 256 305.902 255.7 306.302C255.3 307.002 255.1 307.702 255.1 308.502C255.1 308.902 255.1 309.302 255.1 309.602C255.1 309.902 255.1 310.102 255.1 310.202C255.1 310.302 255.3 310.802 255.8 311.202C256.3 311.602 256.8 312.002 257.4 312.402C257.6 312.502 257.9 312.402 258.1 312.702C258.2 313.002 258.6 313.002 258.9 313.102C259.2 313.202 259.5 313.102 259.7 313.402C260.6 314.402 261.9 314.202 263 314.402C264.1 314.602 265.3 314.602 266.4 314.202C267.1 314.002 267.6 313.502 268.3 313.402C268.6 313.402 268.7 312.902 269.2 313.402C269.3 313.502 269.4 313.002 269.5 312.902C269.9 312.702 270.2 312.402 270.6 312.202C271.1 311.802 271.6 311.502 271.9 311.002C272.1 310.702 272.1 310.302 272.3 310.002C272.4 309.702 272.6 309.402 272.8 309.102C273 308.802 273.4 308.402 273.5 308.002C273.5 307.802 273.5 307.702 273.5 307.602C273.5 307.502 273.5 307.502 273.5 307.402C273.7 307.202 273.5 306.802 273.2 306.402C272.9 306.002 272.5 305.602 272.2 305.202C271.5 304.402 270.8 303.702 269.9 303.102C269.4 302.802 269.3 302.102 268.8 301.702C268.6 301.602 269.1 300.102 269.5 299.802L269.7 299.702C270.5 299.702 271.4 299.402 272 299.902C272.8 300.602 273.7 301.302 274.5 302.102Z" fill="black"/>
<path d="M399.6 435.5C396.5 435.5 393.3 435.5 390.2 435.5C389 435.5 387.8 435 386.6 436.1C386 436.6 384.9 435.4 383.8 435.4C380.9 435.5 377.9 435.4 375 435.4C372.2 435.5 369.3 436 366.5 436.1C363.7 436.2 360.8 435.6 358 436.3C355.6 436.9 353.5 435.9 351.3 436.1C348.9 436.4 346.4 436.5 344.1 436.1C342.4 435.8 340.7 435.3 339 435.5C337.9 435.6 337 436.3 335.8 436.2C334.7 436.2 333.5 435.6 332.6 436.9C332.6 437 332 436.8 331.8 436.6C330.6 435.8 329.2 435.8 328.3 436.4C327.4 436.9 326.5 436.9 325.6 436.9C323.2 436.9 320.8 437 318.4 436.9C316.6 436.9 314.8 436.3 313 436.2C311.1 436.1 309.1 436.6 307.4 436C305.7 435.4 304 435.4 302.3 435.4C301.3 435.4 300.2 434.8 299.4 436.1C299.4 436.2 299 436.2 298.8 436.1C296 434.4 293.3 436.6 290.5 436.2C287.6 435.8 284.6 436.1 281.7 436.2C280.9 436.2 280.1 435.8 279.4 436.8C279.1 437.1 278.3 437.2 277.9 436.9C275.7 435.6 273.5 436.4 271.2 436.2C268.7 436 266.1 436.5 263.6 435.6C262.5 435.2 261 435 259.7 436.1C259.1 436.6 257.9 436.1 256.9 436.2C256.1 436.3 255.4 436.8 254.6 436.9C254 436.9 253.3 436.4 252.7 436.2C252.5 436.2 252.3 436.2 252.1 436.2C248.4 437.5 244.7 435.8 241 436.2C237.3 436.6 233.5 436.4 229.7 436.2C227.6 436.1 225.5 435.7 224.1 433.4C223.5 432.4 223.5 431.3 224.3 430.6C224.9 430.1 225.7 429.7 226.4 429.5C227.6 429.3 228.8 429 229.9 428.8C232.3 428.4 234.7 427.3 237.2 427.9C238 428.1 238.9 427.5 239.5 428.5C239.5 428.6 239.9 428.7 240.1 428.6C243.4 427 246.8 428.1 250.2 427.9C253.1 427.9 255.8 426.5 258.7 427.1C260.3 425.8 262.2 426.1 263.8 426.4C269.5 427.7 275.2 426.8 280.8 427C286.6 427.2 292.3 427 298.1 427C299.1 427 299.9 426.3 301.1 426.8C302.2 427.3 303.6 426.9 304.8 426.9C306 426.9 307.2 426.6 308.2 426.9C312.7 428.2 317.2 427.4 321.8 427.6C326.3 427.7 330.8 427.9 335.3 427.6C338 427.4 340.8 426.7 343.5 427C344.7 427.1 345.9 426.4 347.1 427.6C347.4 427.9 348.5 427 349.3 427C351.2 426.9 353.1 427 355 427C356.9 427 360.2 427 362.9 427C364.5 427 366.1 426.4 367.7 426.3C369.4 426.2 371.1 426.2 372.7 426.3C374.8 426.5 376.9 426.9 379 427C381.2 427.1 383.5 426.6 385.6 427.1C389.5 428.1 393.4 427.6 397.3 427.7C401.2 427.8 405.1 427.9 408.9 427.7C411.1 427.6 413.1 428.6 415.2 428.6C416.2 428.6 417.6 431.5 417.1 432.6C417.1 432.8 416.9 433 416.7 433.1C414.6 434 412.7 435.5 410.3 435.4C406.7 435.3 403.2 435.4 399.6 435.4V435.5Z" fill="black"/>
<path d="M189.7 309.898C189.4 309.798 189.1 309.698 188.8 309.598C188.7 309.598 188.7 309.298 188.4 309.698C188.3 309.898 188.4 309.298 188.2 309.298C187.9 309.298 187.7 309.098 187.4 308.998C187.1 308.998 186.8 308.998 186.5 308.998C186.2 308.998 186 308.598 185.7 308.798C185.4 308.998 185.4 308.498 185.1 308.498C184.8 308.498 184.6 308.498 184.4 308.198C184.3 307.998 184.2 307.698 184 307.798C183.9 307.798 183.7 308.098 183.6 307.998C183.6 307.998 183.5 307.698 183.2 308.198C183.2 308.198 183.2 308.198 183.2 307.998C183.2 307.598 183.1 307.598 182.9 307.798C182.7 307.998 182.7 307.898 182.6 307.898C182.4 307.898 182.1 307.798 181.9 307.698C181.7 307.598 181.7 307.298 181.5 307.198C181.3 307.098 181.1 307.198 181 306.898C181 306.598 180.8 306.498 180.6 306.498C180.6 306.498 180.5 306.198 180.2 306.698C180.2 305.898 179.6 306.698 179.4 306.498C179.2 306.198 178.9 306.198 178.6 306.198C178.6 306.198 178.6 305.998 178.3 306.398C178.3 306.498 178.1 306.498 178.1 306.398C178.1 305.798 177.8 305.998 177.6 305.898C177.4 305.698 177.1 305.898 177 305.398C177 305.198 176.9 304.998 176.6 305.498C176.5 305.698 176.4 305.498 176.3 305.498C176.3 305.498 176.1 305.698 176 305.698C176 305.698 176 305.498 176 305.298C175.4 305.698 175.4 304.898 175 304.898C174.6 304.898 174.3 304.698 173.9 304.498C173.7 304.398 173.6 304.198 173.9 303.098C174 302.598 174.2 302.198 174.4 301.898C174.5 301.698 174.7 301.498 174.8 301.498C174.9 301.498 175.1 301.398 175.2 301.298C175.5 301.298 175.9 300.798 176 301.198C176 301.298 176.2 301.098 176.1 301.498C176.7 300.898 176.8 301.498 177.1 301.498C177.4 301.498 177.8 301.098 178 301.498C178.3 300.998 178.5 301.198 178.6 301.398C178.9 302.198 179.6 301.998 180.1 302.198C180.6 302.498 181.2 302.598 181.7 302.798C181.7 302.798 182 302.598 182 302.798C182 303.098 182.2 302.898 182.3 302.998C182.4 302.998 182.6 302.998 182.6 303.098C182.8 303.798 183.4 303.598 183.8 303.798C184.2 303.998 184.6 304.198 185.1 304.198C185.4 304.198 185.7 303.998 186 304.198C186 304.198 186.3 303.998 186.2 304.598C186.2 304.798 186.4 304.398 186.5 304.398C186.7 304.398 186.9 304.498 187 304.598C187.2 304.598 187.5 304.798 187.7 304.898C187.9 304.898 188.1 304.798 188.3 304.798C188.5 304.798 188.6 304.798 188.8 304.998C189 305.098 189.1 305.398 189.3 305.498C189.5 305.598 189.8 305.498 189.9 305.798C190.1 306.398 190.5 306.298 190.9 306.498C191.2 306.698 191.6 306.898 192 306.898C192.2 306.898 192.3 307.398 192.5 307.498C192.5 307.498 192.3 308.798 192.1 309.298C192.1 309.298 192.1 309.498 192 309.498C191.7 309.798 191.2 310.398 191 310.298C190.7 310.098 190.3 309.998 190 309.898H189.7Z" fill="#FE5102"/>
<path d="M194.8 327.801C194.5 327.801 194.2 327.901 193.9 328.001C193.8 328.001 193.6 327.801 193.6 328.301C193.6 328.601 193.4 328.001 193.3 328.101C193 328.201 192.7 328.201 192.4 328.301C192.1 328.401 191.9 328.701 191.6 328.801C191.3 328.901 191 328.801 190.8 329.101C190.6 329.401 190.3 329.001 190.1 329.101C189.9 329.301 189.7 329.401 189.4 329.201C189.2 329.101 189 328.901 188.8 329.101C188.8 329.101 188.7 329.501 188.6 329.501C188.5 329.501 188.3 329.301 188.3 329.901C188.3 329.901 188.3 329.901 188.2 329.801C188 329.501 187.9 329.501 187.8 329.801C187.8 330.101 187.7 330.001 187.6 330.101C187.4 330.101 187.1 330.301 186.9 330.201C186.7 330.201 186.5 330.001 186.3 330.001C186.1 330.001 186 330.301 185.7 330.001C185.5 329.801 185.3 329.801 185.1 329.801C185.1 329.801 184.8 329.601 184.9 330.201C184.5 329.501 184.4 330.501 184.1 330.401C183.8 330.301 183.5 330.401 183.2 330.501C183.2 330.501 183 330.401 183 330.801C183 331.001 183 331.001 182.9 330.801C182.6 330.301 182.4 330.701 182.2 330.601C181.9 330.601 181.7 330.801 181.4 330.501C181.3 330.301 181.1 330.301 181.1 330.801C181.1 331.101 180.9 330.801 180.8 330.901C180.8 330.901 180.8 331.201 180.6 331.201C180.6 331.201 180.4 331.001 180.4 330.901C180.1 331.601 179.6 330.901 179.3 331.101C179 331.301 178.6 331.301 178.2 331.301C178 331.301 177.7 331.201 177.4 330.101C177.3 329.601 177.2 329.101 177.2 328.801C177.2 328.601 177.2 328.401 177.3 328.301C177.4 328.201 177.5 328.001 177.6 327.901C177.8 327.701 178 327.201 178.2 327.401C178.2 327.401 178.3 327.201 178.5 327.601C178.7 326.801 179.1 327.201 179.4 327.101C179.7 327.101 179.8 326.401 180.2 326.601C180.2 326.001 180.4 326.101 180.6 326.201C181.3 326.701 181.7 326.201 182.3 326.201C182.9 326.201 183.4 326.001 184 325.901C184 325.901 184.1 325.501 184.3 325.801C184.5 326.001 184.6 325.801 184.7 325.801C184.8 325.801 184.9 325.601 185 325.801C185.6 326.301 185.9 325.801 186.4 325.801C186.9 325.801 187.3 325.801 187.7 325.501C187.9 325.401 188.1 325.001 188.4 325.001C188.5 325.001 188.6 324.701 188.8 325.201C188.8 325.301 188.8 324.901 189 324.901C189.2 324.901 189.4 324.901 189.5 324.801C189.8 324.801 190 324.801 190.3 324.601C190.4 324.601 190.6 324.301 190.7 324.201C190.8 324.201 191 324.101 191.2 324.101C191.4 324.101 191.7 324.301 191.9 324.301C192.1 324.301 192.3 324.001 192.5 324.301C193 324.701 193.3 324.301 193.7 324.301C194.1 324.301 194.5 324.301 194.8 324.001C195 323.901 195.3 324.301 195.5 324.201C195.5 324.201 196 325.501 196.1 325.901V326.101C196 326.601 196 327.301 195.7 327.301C195.3 327.301 195 327.501 194.7 327.501L194.8 327.801Z" fill="#FE5102"/>
<path d="M204.1 342.598C203.9 342.798 203.8 342.998 203.7 343.298C203.7 343.298 203.4 343.298 203.7 343.698C203.9 343.898 203.3 343.698 203.3 343.698C203.3 343.898 203 344.098 202.9 344.298C202.9 344.498 202.9 344.798 202.7 345.098C202.7 345.298 202.2 345.398 202.3 345.698C202.3 345.998 201.9 345.898 201.9 346.098C201.9 346.298 201.9 346.498 201.5 346.598C201.3 346.598 201 346.598 201 346.798C201 346.898 201.2 347.198 201.1 347.198C201.1 347.198 200.8 347.198 201.1 347.598C201.1 347.598 201.1 347.598 201 347.598C200.6 347.398 200.6 347.598 200.7 347.798C200.8 347.998 200.7 348.098 200.7 348.098C200.6 348.298 200.5 348.498 200.3 348.598C200.2 348.598 199.9 348.598 199.8 348.798C199.7 348.798 199.8 349.198 199.4 349.098C199.1 349.098 199 349.098 198.9 349.298C198.9 349.298 198.6 349.298 198.9 349.698C198.2 349.398 198.8 350.198 198.5 350.298C198.2 350.298 198.1 350.598 198 350.898C198 350.898 197.8 350.898 198 351.198C198 351.298 198 351.398 198 351.298C197.4 351.098 197.6 351.398 197.4 351.498C197.2 351.498 197.2 351.898 196.8 351.798C196.6 351.798 196.4 351.798 196.8 352.198C197 352.398 196.7 352.298 196.7 352.398L196.8 352.698C196.8 352.698 196.6 352.698 196.5 352.698C196.7 353.298 195.9 352.998 195.8 353.398C195.8 353.698 195.4 353.898 195.2 354.098C195 354.098 194.8 354.198 193.9 353.598C193.5 353.298 193.1 352.998 193 352.698C192.9 352.498 192.8 352.298 192.8 352.198C192.8 352.098 192.8 351.898 192.8 351.798C192.8 351.498 192.6 351.098 192.9 351.098C193 351.098 192.9 350.898 193.2 351.098C192.8 350.398 193.4 350.498 193.5 350.298C193.6 350.098 193.3 349.498 193.7 349.498C193.4 348.998 193.5 348.998 193.7 348.998C194.5 348.998 194.5 348.398 194.8 348.098C195.2 347.798 195.4 347.398 195.7 346.998C195.7 346.998 195.5 346.698 195.8 346.798C196 346.798 196 346.698 196 346.598C196 346.598 196 346.398 196.2 346.398C196.9 346.398 196.9 345.998 197.1 345.698C197.4 345.398 197.7 345.198 197.8 344.798C197.8 344.598 197.8 344.198 198 344.098C198.1 344.098 198 343.798 198.4 344.098C198.5 344.098 198.3 343.798 198.3 343.798C198.3 343.598 198.5 343.498 198.6 343.398C198.7 343.198 198.9 343.098 199 342.898C199 342.798 199 342.498 199 342.398C199 342.298 199.1 342.098 199.2 342.098C199.4 341.998 199.6 341.998 199.8 341.898C200 341.798 199.8 341.498 200.2 341.498C200.8 341.498 200.8 341.098 201 340.898C201.2 340.698 201.4 340.398 201.5 340.098C201.5 339.898 202 340.098 202.1 339.898C202.1 339.898 203.3 340.498 203.7 340.798C203.7 340.798 203.8 340.898 203.9 340.898C204.2 341.298 204.6 341.798 204.5 341.898C204.3 342.098 204.1 342.398 204 342.598H204.1Z" fill="#FE5102"/>
<path d="M341.2 283.601C335.2 281.701 328.8 282.501 322.7 284.101C318.8 285.101 315 286.501 311.6 288.701C308.2 290.901 305.4 294.101 304.1 297.901C302.9 301.401 303.1 305.201 303.4 309.001C303.9 315.301 304.6 321.801 307.8 327.301C308.5 328.501 309.3 329.601 310.4 330.401C311.8 331.401 313.6 331.801 315.3 332.101C320.3 332.801 325.6 332.701 330.2 330.601C334.8 328.601 338.7 324.301 339.3 319.301C339.3 318.901 339.3 318.401 339.3 318.101C339.1 317.701 338.8 317.301 338.4 317.001C337.6 316.301 336.6 315.901 335.5 315.701C332.3 315.101 329.2 317.001 326 317.401C323.5 317.701 320.6 316.901 319.3 314.801C317.9 312.601 318.4 309.901 318.4 307.301C318.4 304.001 317.5 300.401 319.1 297.501C320.2 295.701 322.1 294.501 324 293.601C329.5 290.901 335.6 289.301 341.7 289.001C343.1 289.001 345 288.601 345.3 287.201C345.5 286.001 344.3 285.001 343.2 284.301C341 283.101 338.7 282.001 336.4 281.301" fill="black"/>
<path d="M339.9 290.701C336.9 291.001 333.9 291.601 331.1 292.601C330 293.001 328.9 293.101 328 294.001C327.6 294.501 326.3 294.301 325.4 294.801C324.1 295.401 323 296.101 322.1 296.801C321.2 297.601 320.6 298.401 320.4 299.501C319.9 301.701 320.7 304.401 320.8 307.601C320.8 309.101 320.6 310.501 320.8 311.601C320.8 312.701 321.3 313.501 321.9 313.801C322.5 314.101 323.1 314.501 323.8 314.701C324.6 314.901 325.4 315.101 326.3 314.901C328.2 314.501 330.5 313.301 333.4 313.301C334.5 313.301 335.6 313.401 336.6 313.801C337.7 314.101 338.6 314.601 339.5 315.201C340.2 315.701 341 316.301 341.4 317.101C341.6 317.501 341.7 318.001 341.8 318.501C341.8 319.001 341.8 319.601 341.8 319.901C341.6 321.201 340.9 322.401 341 323.701C341 323.801 340.7 324.301 340.5 324.501C339.5 325.501 338.6 326.801 338.1 327.801C337.6 328.801 336.8 329.401 336.1 330.101C334 331.901 331.4 333.201 328.8 333.901C326.8 334.401 324.8 334.501 322.9 334.601C320.9 334.601 318.7 334.901 316.9 334.401C315.1 333.901 313.4 333.701 311.4 332.901C310.3 332.501 309.2 331.401 308.1 331.101C308 331.101 307.7 330.701 307.6 330.501C306.8 328.901 306.1 327.701 305.3 326.401C304.5 325.101 303.8 323.801 303.4 322.301C302.7 319.301 302.1 316.201 301.7 313.201C301.7 312.401 301.7 311.501 301.2 310.801C301 310.601 300.9 309.701 301 309.301C301.5 307.101 301 304.701 301.2 302.301C301.4 300.901 301.5 299.501 301.9 298.101C302.3 296.701 302.9 295.301 303.8 294.201C304.6 293.201 305.6 292.001 306.1 290.601C306.3 289.901 307.5 289.101 308.3 288.401C308.9 287.801 309.4 287.101 310.1 286.601C310.7 286.201 311.4 286.001 312.1 285.801C312.3 285.801 312.5 285.601 312.7 285.501C314.3 284.201 316.2 283.501 318.1 283.001C320 282.501 321.9 282.101 323.7 281.601C327.4 280.501 331.5 280.001 335.5 280.301C337.7 280.501 340.1 281.101 341.1 282.601C341.6 283.301 341.4 283.801 340.5 283.901C339.8 283.901 339.1 284.001 338.4 283.901C337.3 283.801 336.1 283.901 335 283.901C332.7 283.901 330.5 284.701 328.1 284.801C327.3 284.801 326.6 285.301 325.8 284.901C325.8 284.901 325.4 284.901 325.3 284.901C322.3 286.401 319 286.801 316.1 288.201C314.9 288.801 313.8 289.601 312.8 290.401C311.8 291.201 310.9 292.101 309.9 292.901C309.4 294.301 308.3 295.501 307.5 296.601C306 298.501 305.5 301.001 305.5 303.601C305.5 306.201 305.8 309.101 306 311.801C306.2 314.601 306.6 317.301 307.3 320.001C307.7 321.301 308.1 322.601 308.6 323.801C309.1 325.001 309.8 326.201 310.4 327.101C310.9 327.801 311.5 327.901 312 328.501C312.5 329.101 313.6 329.301 314.7 329.501C315.7 329.701 316.9 329.701 317.9 329.901C322.1 330.901 326.5 330.101 330.1 328.301C331.9 327.401 333.6 326.201 334.8 324.701C336.1 323.201 337 321.401 337.3 319.501C337.3 318.801 337.3 318.801 337.3 318.601C337.3 318.601 337.2 318.501 337.1 318.401H337C337 318.301 336.8 318.201 336.7 318.201C335.9 317.801 335 317.601 334 317.601C333.1 317.601 332.2 318.101 330.9 317.901C330.6 317.901 329.6 318.601 328.9 318.801C327.9 319.101 326.9 319.301 325.7 319.401C324.5 319.401 323.3 319.401 322.2 319.101C320.6 318.701 318.9 317.801 317.8 316.201C316.6 314.701 316.3 312.801 316.2 311.301C316.1 309.401 316 307.901 315.9 306.501C315.8 305.001 315.6 303.301 315.7 301.301C315.7 300.101 316 298.701 316.6 297.401C317.2 296.101 318.1 294.901 319.1 294.001C320.1 293.101 321.2 292.301 322.3 291.701C323.4 291.101 324.4 290.601 325.5 290.301C329.4 289.201 333.3 287.801 337.3 287.201C338.3 287.101 339.3 286.901 340.3 286.901C340.6 286.901 340.8 286.901 341.1 286.901H341.8C342 286.901 342.1 286.901 342.3 286.901C342.6 286.901 343 286.701 343 286.301C343 286.001 342.8 285.701 342.5 285.501C342.3 285.501 342.3 285.401 342.1 285.201C341.7 284.901 341.3 284.601 340.8 284.401C340 283.901 339.1 283.301 338.1 283.001C337.2 282.701 336.4 280.901 336.9 280.501C337 280.501 337.2 280.401 337.4 280.501C339.6 280.801 341.7 280.801 344 282.201C345.3 282.901 346.5 283.901 347.1 285.001C347.7 286.101 347.6 287.601 346.8 288.701C346 289.701 344.8 290.301 343.3 290.601C342.9 290.601 342.6 290.601 342.2 290.701H341.5C341.1 290.701 340.6 290.801 340.2 290.901L339.9 290.701Z" fill="black"/>
<path d="M354 362.501C354 362.301 354 362.201 353.8 362.001C353.8 362.001 354 361.801 353.5 362.001C353.2 362.001 353.8 361.801 353.8 361.701C353.7 361.601 353.8 361.401 353.6 361.301C353.5 361.201 353.2 361.101 353.1 361.001C353 360.901 353.2 360.601 352.9 360.601C352.6 360.601 353 360.301 352.9 360.201C352.7 360.201 352.6 360.001 352.8 359.801C352.9 359.701 353.1 359.501 353 359.401H352.6C352.6 359.401 352.8 359.201 352.2 359.401C352.2 359.401 352.2 359.401 352.3 359.401C352.7 359.201 352.6 359.101 352.3 359.201C352 359.201 352 359.201 352 359.201C352 359.101 351.9 359.001 351.9 358.801C351.9 358.701 352.1 358.501 352.1 358.401C352.1 358.301 351.8 358.301 352.1 358.101C352.3 357.901 352.3 357.801 352.3 357.701C352.3 357.701 352.5 357.501 351.9 357.701C352.6 357.301 351.6 357.501 351.7 357.301C351.8 357.101 351.7 357.001 351.6 356.801C351.6 356.801 351.7 356.701 351.3 356.801C351.1 356.801 351.1 356.801 351.3 356.801C351.8 356.501 351.4 356.501 351.5 356.301C351.5 356.101 351.2 356.101 351.6 355.801C351.8 355.701 351.8 355.601 351.3 355.801C351 355.801 351.3 355.801 351.2 355.701C351.2 355.701 350.9 355.701 350.8 355.701C350.8 355.701 351 355.601 351.1 355.501C350.4 355.501 351.1 355.001 350.9 354.901C350.7 354.801 350.7 354.601 350.7 354.301C350.7 354.201 350.8 354.001 351.9 353.501C352.4 353.301 352.9 353.101 353.2 353.001C353.4 353.001 353.7 352.901 353.7 353.001C353.8 353.001 354 353.001 354.1 353.001C354.3 353.001 354.9 353.001 354.7 353.201C354.7 353.201 354.9 353.201 354.5 353.401C355.3 353.301 354.9 353.601 355 353.801C355.1 353.901 355.7 353.801 355.5 354.101C356.1 354.001 356.1 354.101 355.9 354.201C355.4 354.701 355.9 354.901 355.9 355.201C355.9 355.501 356.1 355.801 356.2 356.101C356.2 356.101 356.6 356.101 356.3 356.201C356.1 356.301 356.3 356.301 356.3 356.401C356.3 356.401 356.5 356.401 356.3 356.601C355.8 357.101 356.3 357.201 356.3 357.401C356.3 357.701 356.3 357.901 356.6 358.101C356.7 358.201 357.1 358.201 357.1 358.401C357.1 358.401 357.4 358.401 356.9 358.701C356.8 358.701 357.2 358.701 357.2 358.701C357.2 358.701 357.2 358.901 357.3 359.001C357.3 359.101 357.3 359.301 357.5 359.401C357.5 359.401 357.8 359.401 357.9 359.501C357.9 359.501 358 359.601 358 359.801C358 359.901 357.8 360.101 357.8 360.201C357.8 360.301 358.1 360.301 357.8 360.601C357.4 361.001 357.8 361.101 357.8 361.301C357.8 361.501 357.8 361.701 358 361.901C358.1 361.901 357.7 362.301 357.7 362.401C357.7 362.401 356.4 363.101 355.9 363.201H355.7C355.2 363.201 354.5 363.401 354.5 363.201C354.5 363.001 354.4 362.801 354.3 362.701L354 362.501Z" fill="white"/>
<path d="M373.3 353.601C373.2 353.501 373 353.301 372.9 353.201C372.9 353.201 372.9 352.901 372.5 353.201C372.3 353.401 372.7 352.901 372.6 352.801C372.4 352.801 372.4 352.501 372.2 352.401C372 352.401 371.7 352.401 371.6 352.201C371.4 352.201 371.6 351.801 371.2 351.901C370.9 351.901 371.2 351.501 371 351.501C370.8 351.501 370.6 351.501 370.7 351.101C370.7 350.901 370.8 350.701 370.7 350.701C370.7 350.701 370.3 350.901 370.3 350.701C370.3 350.701 370.4 350.401 369.9 350.701C369.9 350.701 369.9 350.701 369.9 350.601C370.1 350.301 370.1 350.201 369.9 350.401C369.7 350.501 369.6 350.401 369.6 350.401C369.5 350.401 369.3 350.201 369.3 350.101C369.3 350.001 369.3 349.701 369.3 349.601C369.3 349.501 369 349.601 369.1 349.301C369.2 349.001 369.1 348.901 369.1 348.901C369.1 348.901 369.2 348.601 368.7 349.001C369.2 348.301 368.3 349.001 368.3 348.601C368.3 348.301 368.1 348.301 367.9 348.201C367.9 348.201 367.9 348.001 367.6 348.201C367.5 348.201 367.4 348.201 367.5 348.201C367.9 347.701 367.5 347.801 367.5 347.601C367.5 347.401 367.1 347.501 367.4 347.001C367.5 346.801 367.5 346.701 367 347.001C366.8 347.201 367 347.001 366.8 347.001C366.8 347.001 366.5 347.201 366.5 347.101C366.5 347.101 366.6 346.901 366.7 346.801C366 347.101 366.5 346.301 366.2 346.201C365.9 346.201 365.8 345.901 365.7 345.701C365.7 345.601 365.7 345.301 366.5 344.501C366.8 344.101 367.2 343.701 367.5 343.601C367.7 343.501 367.9 343.301 368 343.301C368.1 343.301 368.3 343.301 368.4 343.301C368.6 343.301 369.1 343.001 369 343.301C369 343.301 369.2 343.301 368.9 343.601C369.6 343.201 369.4 343.701 369.6 343.901C369.8 344.001 370.3 343.701 370.3 344.001C370.8 343.601 370.8 343.801 370.8 344.001C370.6 344.701 371.2 344.701 371.3 345.001C371.5 345.301 371.8 345.501 372 345.801C372 345.801 372.3 345.601 372.2 345.801C372.1 346.001 372.2 346.001 372.3 346.001C372.3 346.001 372.5 346.001 372.4 346.201C372.1 346.901 372.6 346.801 372.8 347.101C373 347.401 373.1 347.601 373.4 347.701C373.6 347.701 374 347.701 374 347.901C374 347.901 374.3 347.901 374 348.301C373.9 348.401 374.3 348.201 374.3 348.201C374.4 348.201 374.5 348.401 374.6 348.501C374.7 348.601 374.8 348.801 375 348.901C375 348.901 375.3 348.901 375.5 348.901C375.6 348.901 375.7 349.001 375.7 349.101C375.7 349.301 375.7 349.501 375.7 349.601C375.7 349.701 376.1 349.601 376 350.001C375.8 350.501 376.2 350.501 376.3 350.801C376.4 351.001 376.6 351.201 376.8 351.301C377 351.301 376.7 351.801 376.8 351.901C376.8 351.901 375.8 353.001 375.5 353.401L375.3 353.501C374.9 353.701 374.3 354.101 374.2 354.001C374.1 353.801 373.9 353.601 373.7 353.501L373.3 353.601Z" fill="white"/>
<path d="M382.3 336.3C382.2 336.3 382.1 336.1 381.9 336C381.9 336 381.9 335.7 381.6 336.1C381.4 336.3 381.7 335.7 381.6 335.7C381.4 335.7 381.4 335.5 381.2 335.5C381 335.5 380.8 335.5 380.7 335.5C380.6 335.5 380.6 335.2 380.3 335.4C380.1 335.6 380.3 335.1 380.1 335.1C379.9 335.1 379.8 335.1 379.8 334.9C379.8 334.7 379.8 334.5 379.8 334.5C379.8 334.5 379.5 334.8 379.5 334.7C379.5 334.7 379.5 334.4 379.2 334.9C379.2 334.9 379.2 334.9 379.2 334.8C379.3 334.4 379.2 334.4 379.2 334.6C379 334.8 379 334.8 379 334.8C378.9 334.8 378.8 334.8 378.7 334.6C378.7 334.6 378.7 334.3 378.7 334.2C378.7 334.2 378.4 334.3 378.5 334C378.5 333.7 378.5 333.7 378.5 333.6C378.5 333.6 378.5 333.3 378.2 333.9C378.4 333.1 377.8 334 377.8 333.8C377.8 333.6 377.6 333.6 377.4 333.6C377.4 333.6 377.4 333.4 377.2 333.8C377.1 333.9 377.2 333.9 377.2 333.8C377.4 333.2 377.1 333.5 377 333.4C377 333.2 376.7 333.4 376.8 333C376.8 332.8 376.8 332.7 376.5 333.2C376.4 333.4 376.5 333.2 376.4 333.2L376.2 333.5C376.2 333.5 376.2 333.3 376.2 333.1C375.8 333.7 375.9 332.8 375.7 332.9C375.5 333 375.3 332.9 375.2 332.7C375.2 332.7 375.1 332.4 375.4 331.3C375.5 330.8 375.7 330.3 375.8 330C375.9 329.8 376 329.6 376.1 329.5C376.1 329.5 376.3 329.3 376.4 329.2C376.6 329.1 376.9 328.6 376.9 328.9C376.9 328.9 377.1 328.7 376.9 329.2C377.3 328.5 377.3 329.1 377.5 329.1C377.7 329.1 378 328.6 378.1 328.9C378.4 328.3 378.5 328.5 378.5 328.7C378.5 329.4 379 329.1 379.3 329.4C379.6 329.6 379.9 329.7 380.2 329.8C380.2 329.8 380.4 329.5 380.4 329.8C380.4 330.1 380.5 329.9 380.6 329.9C380.6 329.9 380.8 329.9 380.8 330C380.8 330.7 381.1 330.5 381.3 330.6C381.5 330.8 381.7 331 382 330.9C382.2 330.9 382.5 330.7 382.6 330.9C382.6 330.9 382.9 330.7 382.6 331.3C382.6 331.5 382.8 331.1 382.9 331.1C383 331.1 383.1 331.1 383.2 331.3C383.3 331.3 383.4 331.5 383.6 331.5C383.6 331.5 383.9 331.4 384 331.4C384.1 331.4 384.2 331.4 384.2 331.6C384.2 331.7 384.2 332 384.3 332.1C384.3 332.2 384.6 332.1 384.6 332.4C384.5 332.9 384.8 332.9 385 333C385.1 333.2 385.3 333.3 385.5 333.4C385.6 333.4 385.5 333.9 385.5 334C385.5 334 384.7 335.2 384.4 335.6C384.4 335.6 384.3 335.7 384.2 335.8C383.8 336.1 383.3 336.6 383.2 336.5C383.2 336.3 382.9 336.3 382.8 336.2L382.3 336.3Z" fill="white"/>
<path d="M384.4 317.4C384.3 317.4 384.2 317.4 384.1 317.4C384.1 317.4 384.1 317.2 384 317.7C384 318 384 317.3 383.9 317.4C383.8 317.4 383.7 317.4 383.6 317.4C383.6 317.4 383.4 317.7 383.3 317.7C383.2 317.7 383.1 317.5 383 317.7C383 318 382.8 317.5 382.8 317.6C382.8 317.7 382.6 317.8 382.5 317.6C382.5 317.4 382.5 317.2 382.3 317.3C382.3 317.3 382.3 317.7 382.2 317.7C382.2 317.7 382.2 317.4 382.1 318C382.1 318 382.1 318 382.1 317.9C382.1 317.5 382.1 317.5 382 317.8C382 318.1 382 318 381.9 318C381.9 318 381.7 318 381.6 318C381.6 318 381.5 317.7 381.4 317.6C381.4 317.6 381.2 317.8 381.2 317.5C381.2 317.2 381.2 317.2 381.1 317.2C381.1 317.2 381.1 316.9 381 317.5C381 316.7 380.8 317.7 380.7 317.5C380.7 317.3 380.5 317.5 380.4 317.5C380.4 317.5 380.4 317.3 380.3 317.8C380.3 318 380.3 318 380.3 317.8C380.3 317.2 380.2 317.5 380.1 317.4C380.1 317.3 379.9 317.5 379.9 317C379.9 316.8 379.9 316.7 379.7 317.2C379.7 317.5 379.7 317.2 379.6 317.2C379.6 317.2 379.5 317.5 379.4 317.5C379.4 317.5 379.4 317.3 379.4 317.2C379.1 317.8 379.2 316.9 379 317.1C378.8 317.2 378.7 317.1 378.6 317.1C378.6 317.1 378.6 316.8 378.8 315.7C378.9 315.2 379.1 314.7 379.2 314.4C379.2 314.2 379.4 314 379.4 313.9C379.4 313.9 379.5 313.7 379.6 313.6C379.7 313.4 379.9 312.9 379.9 313.2C379.9 313.2 379.9 313 379.9 313.5C380.2 312.8 380.1 313.3 380.3 313.2C380.3 313.2 380.6 312.6 380.6 312.9C380.8 312.3 380.8 312.4 380.8 312.6C380.8 313.3 381.1 312.9 381.2 313C381.3 313.1 381.5 313 381.7 313.1C381.7 313.8 381.9 313.4 382 313.5C382.1 313.5 382.2 313.7 382.4 313.5C382.4 313.5 382.6 313.1 382.6 313.2C382.6 313.2 382.6 312.9 382.6 313.5C382.6 313.7 382.6 313.2 382.6 313.2C382.6 313.2 382.7 313.2 382.8 313.2C382.8 313.2 382.9 313.2 383 313.2C383 313.2 383 312.9 383.1 312.9C383.1 312.9 383.1 312.9 383.2 312.9C383.2 312.9 383.3 313.2 383.4 313.2C383.4 313.2 383.5 313 383.6 313.2C383.7 313.7 383.8 313.4 383.9 313.5C384 313.5 384.1 313.5 384.2 313.5L384.4 313.9C384.4 313.9 384.4 313.9 384.4 314.1C384.4 314.2 384.4 314.4 384.4 314.7C384.4 315.1 384.5 315.6 384.5 315.9V316.1C384.5 316.6 384.5 317.3 384.4 317.3C384.3 317.3 384.1 317.3 384 317.3L384.4 317.4Z" fill="white"/>
<path d="M381.8 297.199C381.8 297.199 381.6 297.199 381.6 297.299C381.6 297.299 381.4 297.099 381.6 297.599C381.7 297.799 381.4 297.299 381.4 297.299C381.4 297.399 381.2 297.299 381.2 297.399C381.2 297.399 381.2 297.699 381.2 297.799C381.2 297.799 380.9 297.699 381 297.999C381 298.299 380.8 297.899 380.8 297.999C380.8 298.099 380.8 298.199 380.6 297.999C380.5 297.899 380.3 297.699 380.3 297.799C380.3 297.799 380.4 298.199 380.3 298.199C380.3 298.199 380.1 297.999 380.3 298.499C380.3 298.499 380.3 298.499 380.3 298.399C380.1 298.099 380.1 298.099 380.2 298.399C380.3 298.699 380.2 298.599 380.2 298.699C380.2 298.699 380.2 298.799 380 298.699C380 298.699 379.8 298.499 379.7 298.499C379.7 298.499 379.7 298.699 379.5 298.499C379.3 298.299 379.3 298.299 379.2 298.299C379.2 298.299 379 298.099 379.2 298.599C378.7 297.899 379.2 298.899 379 298.799C378.8 298.699 378.8 298.799 378.8 298.799C378.8 298.799 378.7 298.699 378.8 299.099C378.8 299.199 378.8 299.299 378.8 299.099C378.4 298.599 378.6 298.899 378.5 298.899C378.4 298.899 378.5 299.099 378.2 298.699C378.1 298.499 378 298.499 378.2 298.999L378.3 299.299C378.3 299.299 378.2 299.099 378.1 298.999C378.3 299.599 377.8 298.899 377.8 299.099C377.8 299.299 377.7 299.299 377.5 299.299C377.5 299.299 377.3 299.099 376.7 298.199C376.4 297.799 376.2 297.299 376 296.999C375.9 296.799 375.8 296.599 375.8 296.499C375.8 296.499 375.8 296.299 375.8 296.199C375.8 295.999 375.6 295.499 375.8 295.699C375.8 295.699 375.8 295.499 376 295.899C375.7 295.199 376 295.599 376 295.499C376 295.499 375.8 294.799 376 294.999C375.7 294.399 375.8 294.499 376 294.599C376.5 295.099 376.4 294.599 376.6 294.599C376.8 294.599 376.9 294.399 377 294.399C377 294.399 376.9 294.099 377 294.299C377.2 294.499 377 294.299 377.1 294.299C377.5 294.799 377.4 294.399 377.6 294.399C377.7 294.399 377.9 294.399 377.9 294.199C377.9 294.099 377.9 293.699 377.9 293.799C377.9 293.799 377.9 293.499 378.1 293.999C378.1 294.099 378 293.699 378.1 293.699C378.1 293.699 378.1 293.699 378.2 293.699C378.2 293.699 378.3 293.699 378.4 293.599C378.4 293.599 378.4 293.299 378.4 293.199C378.4 293.199 378.4 293.199 378.5 293.199C378.5 293.199 378.7 293.399 378.8 293.399C378.8 293.399 378.8 293.199 379 293.399C379.3 293.799 379.3 293.499 379.4 293.499C379.5 293.499 379.6 293.499 379.7 293.299C379.7 293.299 380 293.599 380.1 293.599C380.1 293.599 380.9 294.899 381.1 295.299C381.1 295.299 381.1 295.499 381.2 295.499C381.4 295.899 381.7 296.599 381.6 296.599C381.5 296.599 381.4 296.599 381.3 296.699L381.8 297.199Z" fill="white"/>
<path d="M355.4 185.301C349.7 183.201 343.3 182.801 337.5 184.301C335.3 184.901 333 185.501 331.2 187.001C330.3 187.701 328.2 188.401 326.8 189.801C324.8 191.701 323.4 194.001 322.7 196.601C322.4 197.901 322.2 199.201 322.3 200.501C322.3 201.101 322.4 201.801 322.6 202.401C322.6 202.701 322.8 202.901 322.8 203.101C322.8 203.301 322.9 203.301 323 203.401C323.1 203.501 323.5 203.601 324.1 203.601C324.6 203.601 325.4 203.601 326.1 203.601C327.5 203.501 328.9 203.401 330.3 203.201C333.1 202.801 335.8 202.201 338.1 201.101C340.4 200.001 342.3 198.401 343.5 196.201C344.7 194.001 345.2 191.401 345.2 188.801C345.2 186.601 345 184.401 344.7 182.301C344.4 180.101 344 178.001 343.1 176.301C342.6 175.401 342 174.601 341.3 173.901C340.6 173.201 339.7 172.601 338.7 172.001C337.7 171.401 336.7 170.901 335.6 170.401C334.5 169.901 333.5 169.401 332.4 169.001C329.3 167.701 326.1 166.601 322.7 166.201C320.6 165.901 318.6 166.001 316.4 165.801C314.3 165.701 311.9 165.401 310.1 166.101C309.9 166.101 309 166.101 308.5 166.101C306.2 165.901 303.4 166.401 301.6 167.101C299.8 167.701 298.3 168.201 296.6 168.701C294.4 169.501 292.2 170.401 290 171.401C287.9 172.401 285.8 173.601 283.8 174.801C280.8 176.701 277.9 178.701 275.3 181.101C274.6 181.701 274 182.401 273.3 183.101C272.7 183.801 272 184.501 271.5 185.201C270.3 186.701 269.3 188.001 268.3 189.401C266.5 192.101 265.6 195.301 266.8 197.701C267.1 198.401 267.5 199.101 268.2 199.701C268.8 200.301 269.6 200.701 270.4 200.801C270.5 200.801 271.1 201.101 271.4 201.301C273.5 202.701 276.2 203.201 278.7 203.001C281.2 202.801 283.6 201.901 285.8 200.701C288.1 199.501 290.1 197.501 291.4 195.201C292.8 192.901 293.5 190.301 293.5 187.601C293.5 186.201 293.5 184.601 292.8 183.401C292.7 183.201 292.5 182.701 292.4 182.201C292.2 181.701 292.1 181.201 292 180.801C291.5 178.901 290.5 177.001 289.2 175.401C287.9 173.801 286.3 172.401 284.6 171.201C280.7 168.401 275.8 167.201 271 166.501C268.9 166.201 266 166.201 263.5 167.101C262.4 167.501 260 167.701 258.2 168.301C256.8 168.701 255.5 169.401 254.1 169.901C252.9 170.301 251.7 170.601 250.4 171.001C250 171.101 249.6 171.301 249.3 171.501C246.1 173.301 242.9 175.001 239.8 177.001C236.8 179.001 234 181.301 231.8 184.201C227.4 190.001 224.4 197.101 221.6 204.201C220.1 208.101 218.3 212.201 216.2 214.501C215.3 215.501 214.8 215.301 215.2 213.501C215.5 212.201 215.9 210.701 216.4 209.301C217.2 207.001 217.9 204.701 218.7 202.501C220.3 197.901 221.7 193.001 224.5 188.601C224.9 187.901 225.3 187.101 225.8 186.401C226.2 185.701 226.7 185.001 227.3 184.601C227.5 184.501 227.9 184.001 228 183.701C229.7 180.701 232.2 177.901 235.1 175.701C237.9 173.401 241 171.601 244.2 169.901C246.9 168.501 249.5 167.101 252.3 166.001C255.1 164.901 258 163.901 261 163.501C264.2 162.301 268.4 162.101 271.9 162.501C278 163.301 284.1 165.401 289 169.401C293.9 173.401 297.3 179.401 297.7 185.801C297.9 189.001 297.3 192.401 295.9 195.401C294.5 198.401 292.4 201.001 289.7 203.001C287.1 205.001 283.9 206.301 280.6 206.701C277.3 207.101 274 206.701 270.9 205.501C269.9 205.101 268.9 204.701 267.9 204.201C266.9 203.701 265.9 203.001 265 201.801C264.1 200.701 263.3 199.301 262.9 197.601C262.5 196.001 262.5 194.301 262.8 192.801C263.4 190.101 264.5 187.601 266 185.701C266.8 184.701 267.6 183.801 268.4 182.901C269.2 182.001 270 181.201 270.9 180.301C272.6 178.601 274.3 177.001 276.2 175.501C278.1 174.001 280 172.601 282 171.301C284 170.001 286.1 168.801 288.2 167.801C296.8 163.701 306.4 161.801 315.8 162.101C321.6 162.201 327.4 163.001 332.9 165.001C335.2 165.901 337.8 166.601 339.8 168.201C340.4 168.601 342.7 169.501 344.1 170.801C344.9 171.501 345.7 172.501 346.3 173.401C346.9 174.401 347.4 175.401 347.7 176.401C348.4 178.501 348.7 180.401 349.1 182.401C349.5 185.201 349.7 188.001 349.4 190.901C349.1 193.801 348.2 196.801 346.5 199.401C344.4 202.601 341.1 204.901 337.7 206.001C334.1 207.201 330.4 207.501 327 207.701H325.3C324.7 207.701 324 207.701 323.2 207.701C322.4 207.601 321.5 207.301 320.7 206.601C320.3 206.301 319.9 205.901 319.7 205.501C319.4 205.101 319.3 204.701 319.1 204.301C318.8 203.501 318.8 202.901 318.7 202.301C318.7 201.701 318.6 201.001 318.6 200.401C318.6 199.101 318.7 197.901 319 196.701C319.6 194.201 320.6 191.801 322.1 189.701C323.6 187.601 325.5 186.001 327.5 184.701C334.9 180.301 343.7 178.901 351.9 180.601C356 181.501 359.9 183.101 363.4 185.401C366.9 187.801 369.9 190.801 372.2 194.201C374.9 198.101 376.1 202.401 376.8 206.901C377 208.001 376.8 209.301 376.4 210.101C376.1 211.001 375.6 211.501 375.4 211.001C375.4 210.801 375.2 210.501 375.1 210.201C374.4 206.001 372.8 202.501 370.7 198.401C369.1 195.401 366.9 192.601 364.4 190.301C361.8 188.001 358.8 186.301 355.6 185.101L355.4 185.301Z" fill="#FE5102"/>
</svg>
