<svg width="300" height="300" viewBox="0 0 300 300" fill="none" xmlns="http://www.w3.org/2000/svg">
<path d="M203.3 162.902C202.9 162.502 202.6 162.102 202.2 161.702C202 161.602 202.2 161.202 201.6 161.502C201.3 161.602 201.6 161.002 201.6 160.902C201.2 160.602 200.9 160.202 200.5 159.802C200.1 159.502 199.6 159.302 199.3 159.002C198.9 158.702 198.8 158.102 198.3 158.002C197.8 157.902 197.9 157.302 197.6 157.102C197.2 156.902 196.9 156.602 196.8 156.202C196.8 155.902 196.7 155.502 196.4 155.402C196.2 155.402 195.9 155.402 195.8 155.302C195.7 155.202 195.8 154.802 195.2 155.102C195.2 155.102 195.2 155.002 195.2 154.902C195.4 154.502 195.2 154.302 194.9 154.402C194.6 154.402 194.5 154.402 194.4 154.202C194.1 153.902 193.8 153.602 193.6 153.302C193.4 153.002 193.4 152.702 193.2 152.402C193 152.102 192.6 152.102 192.6 151.602C192.6 151.202 192.4 151.002 192.2 150.802C192.1 150.702 192.2 150.302 191.6 150.702C191.9 149.802 190.8 150.202 190.6 149.702C190.4 149.202 190 148.902 189.6 148.602C189.6 148.602 189.6 148.302 189.1 148.602C189 148.602 188.8 148.602 188.9 148.502C189.1 147.802 188.6 147.802 188.4 147.402C188.2 147.002 187.7 146.902 187.7 146.202C187.7 145.902 187.7 145.702 187.1 145.902C186.8 146.002 186.9 145.702 186.7 145.602C186.6 145.602 186.3 145.602 186.2 145.602C186.2 145.602 186.2 145.302 186.2 145.102C185.3 145.102 185.5 144.002 184.9 143.702C184.3 143.402 183.9 142.802 183.6 142.302C183.4 142.002 183.3 141.602 184 140.702C184.3 140.302 184.7 139.902 185 139.802C185.3 139.802 185.5 139.702 185.6 139.802C185.8 139.802 186 139.902 186.2 140.002C186.6 140.202 187.3 140.002 187.4 140.602C187.4 140.802 187.8 140.602 187.4 141.102V141.202C188.4 141.102 188.4 141.902 188.8 142.202C189.2 142.502 190 142.402 190.1 143.002C190.7 142.802 190.9 143.002 190.9 143.402C191.1 144.602 192.1 145.002 192.7 145.702C193.3 146.502 194 147.102 194.7 147.902C194.8 148.002 195.2 147.902 195.1 148.202C195.1 148.502 195.3 148.502 195.5 148.702C195.6 148.802 195.9 148.902 195.9 149.102C195.9 150.102 196.8 150.402 197.2 151.002C197.7 151.602 198.2 152.202 198.8 152.702C199.2 153.002 199.8 153.102 200 153.502C200 153.702 200.5 153.602 200.2 154.202C200.2 154.402 200.6 154.202 200.7 154.202C201 154.402 201.2 154.702 201.4 154.902C201.7 155.202 202 155.602 202.3 155.902C202.5 156.102 202.9 156.102 203.1 156.302C203.3 156.502 203.5 156.702 203.7 156.902C203.9 157.202 204 157.602 204.2 157.902C204.4 158.202 204.9 158.302 204.9 158.802C204.9 159.602 205.6 159.902 206 160.502C206.4 161.002 206.8 161.502 207.4 161.902C207.7 162.102 207.6 162.702 207.8 163.002C207.9 163.102 207 164.302 206.6 164.602L206.4 164.702C205.8 164.702 205.1 165.002 204.8 164.702C204.4 164.202 204 163.802 203.6 163.402L203.3 162.902Z" fill="black"/>
<path d="M152 137.3C150.5 137.8 149.1 138.3 147.7 138.8C147.2 139 146.5 139 146.2 139.7C146 140 145.3 139.7 144.8 139.9C143.5 140.5 142.1 140.9 140.9 141.5C139.7 142.1 138.5 142.9 137.6 143.5C137.5 143.5 137.4 143.7 137.3 143.7C137.1 143.7 137.2 143.7 137.1 143.8L136.9 143.6C137.6 144.2 137.1 143.8 137.2 143.9L136.9 144.2C136.5 144.6 136.2 145.1 136.1 145.7C135.9 146.6 135.2 147.3 135 148.3C134.9 149.3 134.8 150.4 134.4 151.5C134.2 152.3 133.9 153 134 153.9C134 154.4 134.4 154.9 134.3 155.4C134.3 155.9 134 156.5 134.6 157C134.6 157 134.6 157.3 134.4 157.4C134 158 134 158.6 134.3 159.1C134.6 159.6 134.5 160 134.6 160.4C134.6 161.6 134.7 162.7 134.6 163.9C134.6 164.8 134.4 165.6 134.4 166.5C134.4 167.4 134.7 168.4 134.4 169.2C134.2 170.1 134.2 170.9 134.4 171.7C134.4 172.2 134.2 172.7 134.9 173.1C134.9 173.1 134.9 173.3 134.9 173.4C134.2 174.8 135.4 176 135.4 177.4C135.4 178.8 135.7 180.2 135.9 181.6C135.9 182 135.9 182.4 136.3 182.7C136.5 182.8 136.6 183.2 136.5 183.4C136 184.5 136.5 185.6 136.6 186.7C136.6 187.9 137.1 189.1 136.9 190.4C136.8 191 136.8 191.7 137.5 192.2C137.8 192.4 137.7 193.1 137.8 193.5C137.9 193.9 138.2 194.2 138.3 194.5C138.3 194.8 138.2 195.2 138.1 195.5C138.1 195.5 138.1 195.7 138.1 195.8C139.1 197.5 138.5 199.4 139 201.2C139.5 203 139.8 204.8 140 206.6C140.1 207.6 140.2 208.7 139.2 209.6C138.8 210 138.2 210.1 137.8 209.7C137.5 209.4 137.2 209.1 137.1 208.8C136.9 208.2 136.7 207.7 136.5 207.2C136.1 206.1 135.3 205 135.4 203.8C135.4 203.4 135 203 135.4 202.6C135.4 202.6 135.4 202.4 135.4 202.3C134.3 200.8 134.5 199.1 134.2 197.5C133.9 196.1 133 194.9 133.1 193.4C132.3 192.7 132.3 191.8 132.4 191C132.6 188.1 131.7 185.4 131.5 182.6C131.2 179.8 130.8 176.9 130.5 174.1C130.5 173.6 130.1 173.2 130.3 172.6C130.5 172 130.3 171.4 130.3 170.7C130.3 170.1 130.1 169.5 130.2 169C130.7 166.7 130.2 164.5 130.2 162.2C130.2 160 130.2 157.7 130.2 155.5C130.2 154.1 129.8 152.7 130.1 151.3C130.2 150.7 130 150 130.6 149.5C130.8 149.4 130.4 148.7 130.6 148.3C130.8 147.3 131.1 146.3 131.4 145.3C131.9 143.9 132.7 142.6 133.6 141.3L133.8 141C133.8 140.9 134 140.8 134.1 140.6C134.3 140.4 134.6 140.1 134.8 139.9C135.2 139.6 135.5 139.3 135.9 139C136.3 138.8 136.7 138.5 137.1 138.3C137.5 138.1 137.9 137.9 138.3 137.8C139.3 137.4 140.4 137.2 141.4 136.9C142.4 136.5 143.4 135.9 144.5 135.8C146.5 135.6 148.2 134.7 150.1 134.2C151.9 133.6 153.8 133.1 155.5 132.4C156.5 132 157.6 132.2 158.6 131.9C159.1 131.8 160.1 133 160.1 133.5C160.1 133.6 160.1 133.7 160 133.8C159.2 134.5 158.5 135.5 157.3 135.8C155.6 136.3 154 136.8 152.3 137.4L152 137.3Z" fill="black"/>
<path d="M185.3 169.199C185.7 168.999 186 168.899 186.4 168.599C186.5 168.599 186.8 168.599 186.7 168.099C186.7 167.799 187.1 168.299 187.2 168.199C187.5 167.999 187.9 167.899 188.2 167.699C188.5 167.499 188.7 167.099 189 166.899C189.3 166.699 189.8 166.899 190 166.399C190.2 165.999 190.6 166.399 190.8 166.099C191 165.899 191.3 165.699 191.7 165.799C192 165.799 192.3 165.999 192.4 165.799C192.4 165.699 192.4 165.299 192.6 165.299C192.7 165.299 193 165.499 192.9 164.799C192.9 164.799 192.9 164.799 193.1 164.799C193.4 165.099 193.6 164.999 193.6 164.799C193.6 164.499 193.7 164.499 193.8 164.399C194.1 164.299 194.4 164.099 194.7 164.099C194.9 164.099 195.2 164.099 195.5 164.099C195.7 164.099 195.9 163.699 196.2 163.899C196.5 164.099 196.7 163.999 196.9 163.899C197 163.899 197.3 164.099 197.1 163.399C197.7 164.099 197.7 162.899 198.1 162.999C198.5 162.999 198.8 162.799 199.2 162.699C199.2 162.699 199.5 162.799 199.4 162.299C199.4 162.099 199.4 162.099 199.6 162.199C200.1 162.699 200.2 162.199 200.5 162.199C200.8 162.199 201.1 161.799 201.5 162.199C201.7 162.399 201.9 162.399 201.9 161.799C201.9 161.499 202.1 161.799 202.2 161.599C202.2 161.599 202.2 161.199 202.4 161.199C202.4 161.199 202.6 161.399 202.7 161.499C203 160.699 203.7 161.499 204.1 161.099C204.5 160.799 205 160.699 205.5 160.699C205.8 160.699 206.1 160.699 206.6 161.799C206.8 162.299 207 162.799 206.9 163.199C206.9 163.499 206.9 163.699 206.8 163.799C206.7 163.899 206.6 164.099 206.5 164.199C206.3 164.499 206.1 165.099 205.8 164.899C205.7 164.899 205.7 165.199 205.4 164.699C205.2 165.599 204.7 165.199 204.3 165.399C204 165.599 203.8 166.299 203.4 166.099C203.4 166.799 203.2 166.699 202.9 166.599C202 166.199 201.5 166.799 200.8 166.999C200.1 167.099 199.5 167.499 198.8 167.699C198.7 167.699 198.8 168.099 198.5 167.899C198.3 167.699 198.2 167.899 198 167.999C197.9 167.999 197.8 168.199 197.6 168.099C196.8 167.699 196.5 168.299 195.9 168.399C195.4 168.499 194.8 168.699 194.4 169.099C194.1 169.299 194 169.799 193.6 169.799C193.4 169.799 193.4 170.199 193.1 169.699C193 169.599 193.1 169.999 193 170.099C192.8 170.199 192.6 170.299 192.4 170.399C192.1 170.499 191.8 170.599 191.5 170.799C191.3 170.899 191.3 171.199 191.1 171.399C190.9 171.499 190.8 171.599 190.5 171.699C190.2 171.699 189.9 171.699 189.6 171.699C189.3 171.699 189.2 172.099 188.8 171.999C188.1 171.799 187.8 172.199 187.4 172.399C186.9 172.599 186.5 172.699 186.1 173.099C185.9 173.299 185.4 172.999 185.2 173.099C185.1 173.099 184.3 171.899 184.1 171.499V171.299C184.1 170.799 184 169.999 184.3 169.899C184.7 169.799 185.1 169.499 185.5 169.299L185.3 169.199Z" fill="black"/>
<path d="M187.801 188.1C187.801 187.8 187.701 187.4 187.501 187.1C187.501 187 187.701 186.8 187.101 186.8C186.801 186.8 187.401 186.5 187.401 186.4C187.301 186.1 187.301 185.8 187.101 185.5C187.001 185.2 186.701 185 186.501 184.7C186.401 184.4 186.501 184 186.201 183.8C185.901 183.6 186.301 183.3 186.201 183.1C186.001 182.9 185.901 182.6 186.001 182.3C186.101 182.1 186.301 181.9 186.101 181.7C186.101 181.7 185.701 181.6 185.701 181.5C185.701 181.4 185.901 181.2 185.301 181.2C185.301 181.2 185.301 181.2 185.401 181.1C185.801 180.9 185.701 180.7 185.401 180.7C185.101 180.7 185.101 180.6 185.101 180.5C185.101 180.3 184.901 180 184.901 179.8C184.901 179.6 185.101 179.4 185.101 179.2C185.101 179 184.801 178.9 185.101 178.6C185.401 178.3 185.301 178.2 185.201 178C185.201 178 185.401 177.7 184.801 177.8C185.501 177.3 184.401 177.3 184.501 177C184.601 176.7 184.501 176.4 184.301 176.1C184.301 176.1 184.401 175.9 184.001 175.9C183.801 175.9 183.801 175.9 183.901 175.8C184.401 175.4 184.001 175.3 184.101 175C184.101 174.7 183.801 174.5 184.101 174.1C184.301 173.9 184.301 173.8 183.701 173.8C183.401 173.8 183.701 173.6 183.601 173.5C183.601 173.5 183.201 173.5 183.201 173.4C183.201 173.4 183.401 173.2 183.501 173.1C182.801 172.9 183.501 172.3 183.201 172C182.901 171.7 182.901 171.3 182.801 170.9C182.801 170.7 182.801 170.4 183.901 169.9C184.401 169.7 184.901 169.5 185.201 169.5C185.401 169.5 185.701 169.5 185.801 169.5C185.901 169.5 186.101 169.7 186.201 169.8C186.501 170 187.101 170.1 186.901 170.4C186.901 170.5 187.201 170.5 186.701 170.7C187.601 170.8 187.201 171.3 187.301 171.7C187.401 172 188.101 172.1 187.901 172.5C188.601 172.5 188.501 172.7 188.401 172.9C187.901 173.7 188.501 174.1 188.601 174.8C188.601 175.4 188.901 176 189.001 176.6C189.001 176.7 189.401 176.7 189.201 176.9C189.001 177.1 189.201 177.2 189.201 177.3C189.201 177.4 189.401 177.5 189.201 177.7C188.701 178.3 189.201 178.7 189.201 179.2C189.201 179.7 189.201 180.2 189.601 180.6C189.801 180.9 190.201 181.1 190.101 181.4C190.101 181.5 190.401 181.6 189.901 181.8C189.701 181.8 190.201 181.8 190.301 182C190.301 182.2 190.401 182.4 190.501 182.6C190.501 182.9 190.501 183.2 190.701 183.4C190.701 183.6 191.101 183.7 191.201 183.8C191.301 184 191.301 184.1 191.301 184.3C191.301 184.5 191.101 184.8 191.101 185C191.101 185.2 191.401 185.4 191.201 185.7C190.801 186.2 191.201 186.6 191.201 187C191.201 187.4 191.301 187.8 191.501 188.2C191.601 188.4 191.201 188.7 191.301 189C191.301 189 189.901 189.6 189.401 189.7H189.201C188.701 189.7 187.901 189.7 187.901 189.3C187.901 188.9 187.701 188.6 187.601 188.2L187.801 188.1Z" fill="black"/>
<path d="M181.399 208.2C181.499 207.8 181.699 207.4 181.699 207C181.699 206.8 181.999 206.8 181.599 206.5C181.399 206.3 181.999 206.401 181.999 206.301C181.999 205.901 182.299 205.6 182.299 205.2C182.299 204.8 182.299 204.4 182.299 204C182.299 203.601 182.799 203.4 182.599 202.9C182.399 202.5 182.999 202.401 182.999 202.101C182.999 201.801 182.999 201.4 183.299 201.2C183.499 201 183.799 200.9 183.799 200.7C183.799 200.5 183.499 200.3 183.599 200.2C183.599 200.1 183.999 200 183.399 199.7C183.399 199.7 183.399 199.7 183.599 199.7C183.999 199.7 184.099 199.501 183.799 199.301C183.599 199.101 183.699 199 183.699 198.9C183.699 198.6 183.799 198.3 183.999 198C184.099 197.8 184.399 197.7 184.599 197.5C184.699 197.3 184.599 197.001 184.899 196.801C185.299 196.701 185.299 196.501 185.399 196.301C185.399 196.201 185.799 196.101 185.199 195.801C186.099 195.801 185.199 195.101 185.499 194.801C185.799 194.501 185.799 194.101 185.899 193.801C185.899 193.801 186.099 193.7 185.699 193.4C185.599 193.4 185.599 193.2 185.699 193.2C186.399 193.2 186.099 192.7 186.299 192.5C186.499 192.2 186.299 191.8 186.899 191.7C187.099 191.7 187.299 191.5 186.799 191.2C186.599 191 186.799 191 186.799 190.9C186.799 190.8 186.499 190.6 186.599 190.5C186.599 190.5 186.899 190.5 186.999 190.4C186.499 189.8 187.499 189.601 187.399 189.101C187.399 188.801 187.399 188.7 187.399 188.4C187.399 188.1 187.599 187.8 187.799 187.4C187.999 187 188.499 186.6 189.599 187.2C190.099 187.4 190.499 187.801 190.699 188.101C190.799 188.301 190.999 188.501 190.999 188.601C190.999 188.701 191.099 188.9 191.199 189C191.299 189.2 191.799 189.501 191.399 189.801C191.299 189.801 191.499 190.1 190.999 190C191.699 190.6 190.999 191 190.999 191.4C190.999 191.8 191.399 192.301 190.999 192.601C191.499 193.001 191.399 193.201 191.099 193.301C190.199 193.801 190.399 194.601 190.099 195.301C189.799 196.001 189.599 196.7 189.299 197.4C189.299 197.5 189.599 197.701 189.299 197.801C188.999 197.801 189.099 198.1 189.099 198.2C189.099 198.3 189.099 198.501 188.899 198.601C188.099 198.901 188.299 199.601 187.999 200.101C187.699 200.601 187.499 201.1 187.499 201.7C187.499 202.1 187.699 202.501 187.499 202.801C187.399 202.901 187.699 203.201 187.099 203.101C186.899 203.101 187.299 203.4 187.299 203.5C187.299 203.701 187.199 204 187.099 204.2C186.999 204.5 186.799 204.8 186.799 205.2C186.799 205.4 186.899 205.7 186.899 205.9C186.899 206.1 186.899 206.3 186.699 206.5C186.499 206.701 186.299 206.9 186.099 207.2C185.999 207.4 186.099 207.8 185.799 208C185.199 208.3 185.299 208.901 185.099 209.301C184.899 209.701 184.699 210.2 184.699 210.7C184.699 211 184.199 211.101 184.099 211.301C184.099 211.401 182.599 211.301 182.099 211.101C182.099 211.101 181.899 211.101 181.899 211C181.499 210.601 180.899 210.2 180.999 209.9C181.199 209.4 181.299 209 181.399 208.5V208.2Z" fill="black"/>
<path d="M165.499 181.8C165.499 182.1 165.599 182.4 165.799 182.6C165.799 182.6 165.699 182.9 166.199 182.7C166.499 182.7 165.899 183 165.999 183.1C166.199 183.3 166.299 183.6 166.499 183.7C166.699 183.9 166.999 183.9 167.299 184C167.499 184 167.499 184.5 167.899 184.3C168.199 184.2 168.099 184.7 168.299 184.7C168.499 184.7 168.699 184.7 168.899 184.9C168.899 185.1 169.099 185.4 169.299 185.3C169.399 185.3 169.599 185 169.599 185C169.599 185 169.799 185.3 169.899 184.7C169.899 184.7 169.899 184.7 169.899 184.9C169.899 185.3 170.099 185.3 170.199 185C170.199 184.7 170.299 184.8 170.399 184.8C170.599 184.8 170.799 184.8 170.899 184.8C170.999 184.8 171.199 185 171.399 185.1C171.599 185.1 171.599 184.8 171.899 185.1C172.099 185.3 172.299 185.3 172.399 185.1C172.399 185.1 172.699 185.3 172.399 184.7C172.999 185.3 172.699 184.2 172.999 184.3C173.299 184.3 173.499 184 173.599 183.8C173.599 183.8 173.799 183.8 173.599 183.4C173.599 183.3 173.599 183.2 173.599 183.3C174.199 183.6 174.099 183.2 174.299 183.1C174.499 183 174.499 182.6 174.999 182.7C175.199 182.7 175.399 182.7 174.999 182.2C174.799 182 174.999 182 174.999 181.9C174.999 181.9 174.799 181.6 174.799 181.5C174.799 181.5 175.099 181.5 175.199 181.5C174.799 180.9 175.699 180.9 175.699 180.5C175.699 180.1 175.899 179.7 176.099 179.4C176.199 179.2 176.499 179 177.599 179.2C178.099 179.2 178.699 179.4 178.899 179.6C179.099 179.7 179.299 179.9 179.299 180C179.299 180.2 179.399 180.4 179.499 180.5C179.499 180.9 179.999 181.3 179.599 181.6C179.499 181.6 179.699 181.9 179.199 181.8C179.799 182.5 179.099 182.8 178.899 183.2C178.799 183.6 179.099 184.2 178.699 184.5C179.099 185 178.899 185.2 178.599 185.3C177.599 185.6 177.399 186.5 176.699 187.1C175.999 187.6 175.299 188.2 174.499 188.7C174.399 188.7 174.499 189.2 174.099 189C173.799 188.8 173.699 189.1 173.499 189.2C173.299 189.2 173.199 189.5 172.999 189.4C172.099 189 171.499 189.5 170.799 189.5C170.099 189.5 169.399 189.4 168.699 189.5C168.299 189.5 167.799 189.8 167.399 189.5C167.199 189.4 166.899 189.6 166.999 189C166.999 188.8 166.699 189.2 166.599 189.2C166.299 189.2 165.999 189 165.799 188.8C165.399 188.6 165.099 188.3 164.699 188.1C164.499 188 164.099 188 163.899 187.8C163.599 187.7 163.399 187.4 163.299 187.2C163.099 186.9 163.099 186.5 162.899 186.2C162.699 185.9 162.299 185.7 162.399 185.3C162.499 184.5 162.099 184.1 161.999 183.5C161.899 182.9 161.799 182.3 161.599 181.7C161.499 181.4 161.999 181 161.999 180.7C161.999 180.5 163.499 180.4 163.999 180.5H164.199C164.699 180.8 165.399 180.9 165.299 181.1C165.299 181.4 165.299 181.7 165.399 182L165.499 181.8Z" fill="black"/>
<path d="M177.4 162.2C177.4 162.1 177.4 161.9 177.4 161.8C177.4 161.8 177.6 161.7 177.1 161.6C176.8 161.6 177.5 161.6 177.4 161.5C177.4 161.4 177.4 161.2 177.4 161.1C177.4 161 177.1 160.8 177 160.7C177 160.6 177.2 160.4 176.9 160.3C176.6 160.3 177.1 160.1 176.9 160C176.8 160 176.7 159.8 176.9 159.7C177.1 159.7 177.3 159.5 177.2 159.4C177.2 159.4 176.8 159.4 176.8 159.3C176.8 159.3 177.1 159.2 176.5 159.2C176.5 159.2 176.5 159.2 176.6 159.2C177 159.1 177 159 176.6 159C176.3 159 176.4 159 176.3 159C176.3 158.9 176.3 158.8 176.3 158.7C176.3 158.7 176.6 158.5 176.6 158.4C176.6 158.4 176.4 158.3 176.6 158.1C176.9 158 176.9 157.9 176.8 157.8C176.8 157.8 177.1 157.6 176.4 157.8C177.2 157.5 176.1 157.6 176.3 157.4C176.5 157.2 176.3 157.1 176.3 157C176.3 157 176.5 156.9 176 157C175.8 157 175.8 157 176 157C176.6 156.7 176.2 156.7 176.3 156.6C176.3 156.5 176.1 156.4 176.5 156.2C176.7 156.1 176.8 156 176.2 156.2C175.9 156.2 176.2 156.2 176.2 156.1H175.9C175.9 156.1 176.1 156 176.2 155.9C175.5 155.9 176.2 155.5 176.1 155.4C175.9 155.4 175.9 155.1 175.9 154.9C175.9 154.8 176 154.6 177.1 154.1C177.6 153.9 178.1 153.6 178.4 153.6C178.6 153.6 178.9 153.5 178.9 153.5C179 153.5 179.2 153.5 179.3 153.5C179.5 153.5 180.1 153.5 179.9 153.7C179.9 153.7 180.1 153.7 179.7 153.9C180.5 153.8 180.1 154.2 180.2 154.3C180.2 154.4 180.9 154.3 180.7 154.6C181.3 154.5 181.3 154.6 181.1 154.8C180.6 155.3 181.1 155.5 181.1 155.8C181.1 156.1 181.3 156.4 181.3 156.8C181.3 156.8 181.7 156.8 181.4 157C181.2 157.1 181.4 157.2 181.4 157.2C181.4 157.2 181.6 157.3 181.4 157.4C180.8 157.8 181.2 158 181.2 158.2C181.2 158.5 181.2 158.7 181.3 159C181.4 159.1 181.8 159.3 181.7 159.4C181.7 159.4 182 159.5 181.4 159.6C181.2 159.6 181.7 159.6 181.7 159.6C181.7 159.7 181.7 159.8 181.7 159.9C181.7 160 181.7 160.2 181.7 160.3C181.7 160.3 182 160.5 182.1 160.6C182.1 160.6 182.1 160.8 182.1 160.9C182.1 161 181.8 161.2 181.8 161.3C181.8 161.4 182 161.6 181.8 161.7C181.3 161.9 181.5 162.1 181.5 162.4C181.5 162.6 181.4 162.8 181.5 163.1C181.5 163.2 181.1 163.3 181 163.4C181 163.4 179.5 163.4 179 163.4H178.8C178.3 163.3 177.6 163.1 177.7 163C177.7 162.8 177.7 162.7 177.7 162.5L177.4 162.2Z" fill="black"/>
<path d="M167.2 161.601C167.2 161.501 167.2 161.401 167.2 161.201C167.2 161.201 167.4 161.201 166.9 161.101C166.7 161.101 167.2 161.101 167.2 161.001C167.2 160.901 167.2 160.801 167.2 160.701C167.2 160.601 166.9 160.501 166.9 160.401C166.9 160.301 167.1 160.201 166.8 160.101C166.5 160.101 167 159.901 166.8 159.801C166.7 159.801 166.6 159.601 166.8 159.501C166.9 159.501 167.1 159.301 167 159.301C167 159.301 166.6 159.301 166.7 159.301C166.7 159.301 167 159.201 166.4 159.301C166.4 159.301 166.4 159.301 166.5 159.301C166.9 159.201 166.8 159.101 166.5 159.201C166.2 159.201 166.3 159.201 166.3 159.201C166.3 159.201 166.3 159.001 166.3 158.901C166.3 158.901 166.5 158.701 166.6 158.601C166.6 158.601 166.4 158.601 166.6 158.401C166.9 158.301 166.8 158.201 166.8 158.101C166.8 158.101 167 158.001 166.5 158.101C167.2 157.801 166.2 158.001 166.4 157.801C166.6 157.601 166.4 157.601 166.4 157.501C166.4 157.501 166.5 157.401 166.1 157.501C165.9 157.501 166 157.501 166.1 157.501C166.6 157.201 166.3 157.301 166.3 157.201C166.3 157.101 166.1 157.101 166.5 156.801C166.7 156.701 166.7 156.601 166.2 156.801H165.9C165.9 156.801 166.1 156.701 166.2 156.601C165.6 156.701 166.2 156.301 166.1 156.201C165.9 156.201 165.9 156.001 165.9 155.801C165.9 155.801 166 155.601 166.9 155.001C167.3 154.801 167.8 154.501 168 154.401C168.2 154.401 168.4 154.301 168.5 154.301C168.6 154.301 168.7 154.301 168.8 154.301C169 154.301 169.5 154.301 169.3 154.401C169.3 154.401 169.5 154.401 169.1 154.601C169.8 154.401 169.5 154.801 169.6 154.901C169.6 155.001 170.3 154.901 170.1 155.101C170.7 155.001 170.6 155.101 170.5 155.201C170 155.701 170.5 155.801 170.5 156.101C170.5 156.401 170.7 156.601 170.7 156.901C170.7 156.901 171 156.901 170.8 157.001C170.6 157.101 170.8 157.101 170.8 157.201C170.8 157.201 170.9 157.201 170.8 157.401C170.3 157.801 170.7 157.901 170.6 158.101C170.6 158.301 170.6 158.601 170.7 158.701C170.8 158.801 171.1 158.901 171 159.101C171 159.101 171.3 159.101 170.7 159.301C170.5 159.301 171 159.301 171 159.301C171 159.301 171 159.501 171 159.601C171 159.701 171 159.901 171 160.001C171 160.001 171.3 160.101 171.3 160.201C171.3 160.201 171.3 160.401 171.3 160.501C171.3 160.601 171 160.701 171 160.801C171 160.901 171.2 161.001 171 161.101C170.5 161.301 170.8 161.501 170.7 161.701C170.7 161.901 170.6 162.101 170.7 162.301C170.7 162.401 170.3 162.501 170.3 162.601C170.3 162.601 168.9 162.601 168.5 162.601H168.3C167.9 162.501 167.2 162.301 167.3 162.201C167.3 162.101 167.3 161.901 167.3 161.801L167.2 161.601Z" fill="black"/>
<path d="M144.399 187.501C143.699 187.401 142.999 187.201 142.299 187.001C141.999 187.001 141.899 186.601 141.399 187.001C141.199 187.201 141.199 186.501 140.999 186.401C140.399 186.201 139.899 185.801 139.299 185.501C138.799 185.201 138.099 185.101 137.599 184.801C137.099 184.501 136.799 183.901 136.199 183.801C135.599 183.801 135.599 183.001 135.199 182.801C134.699 182.501 134.199 182.201 134.099 181.601C133.999 181.201 133.899 180.701 133.599 180.401C133.399 180.201 132.999 180.201 132.899 179.901C132.799 179.701 132.899 179.301 132.199 179.301V179.101C132.499 178.701 132.299 178.401 131.999 178.301C131.699 178.201 131.599 178.001 131.599 177.801C131.399 177.201 131.299 176.701 131.199 176.101C131.199 175.701 131.399 175.201 131.399 174.801C131.399 174.301 131.199 174.001 131.399 173.401C131.699 172.801 131.799 172.301 132.099 171.801C132.199 171.501 132.699 171.401 132.299 170.801C132.299 170.801 132.299 170.601 132.399 170.601C132.999 170.601 133.299 170.201 133.599 169.801C133.799 169.501 133.999 169.201 134.299 169.101C134.999 169.001 135.599 168.501 136.199 168.301C136.399 168.301 136.599 168.301 136.599 167.901C136.599 167.701 136.799 167.701 136.899 167.701C137.599 168.201 137.999 167.701 138.499 167.701C139.099 167.701 139.699 167.401 140.299 167.901C140.599 168.101 140.899 168.201 141.199 167.601C141.399 167.301 141.599 167.601 141.799 167.601C141.999 167.601 142.199 167.301 142.399 167.301C142.599 167.301 142.699 167.601 142.799 167.701C142.799 167.701 142.799 167.701 142.899 167.701C143.899 167.201 144.499 168.301 145.399 168.401C146.299 168.601 147.099 169.001 147.799 169.601C148.199 169.901 148.499 170.401 147.999 171.401C147.799 171.901 147.399 172.301 147.099 172.501C146.899 172.601 146.599 172.701 146.499 172.701C146.299 172.701 145.999 172.701 145.799 172.701C145.399 172.701 144.799 172.901 144.599 172.501C144.599 172.401 144.299 172.501 144.399 172.101V172.001C143.599 172.501 143.299 172.001 142.699 171.801C142.199 171.801 141.699 172.301 141.299 172.001C140.999 172.601 140.799 172.501 140.499 172.301C139.599 171.601 138.699 172.301 137.899 172.401C137.499 172.401 137.099 172.701 136.699 172.901L136.199 173.201H135.999C135.999 173.401 136.299 173.601 135.999 173.501C135.999 173.501 135.999 173.501 135.999 173.601C135.299 174.301 135.799 175.001 135.799 175.701C135.799 176.401 136.099 177.101 136.499 177.601C136.799 177.901 137.299 178.001 137.399 178.401C137.399 178.601 137.799 178.401 137.499 179.001C137.499 179.201 137.899 179.001 137.999 179.001C138.199 179.201 138.499 179.401 138.699 179.601C138.999 179.901 139.399 180.201 139.799 180.501C139.999 180.601 140.399 180.601 140.699 180.701C140.999 180.801 141.199 181.001 141.399 181.201C141.699 181.501 141.799 181.801 142.099 182.001C142.399 182.201 142.799 182.101 142.999 182.501C143.399 183.201 144.099 183.201 144.699 183.401C145.299 183.601 145.899 183.701 146.499 183.601C146.799 183.601 147.199 184.001 147.499 183.901C147.599 183.901 148.199 185.301 148.199 185.801V186.001C147.899 186.501 147.499 187.301 146.899 187.301C146.099 187.301 145.199 187.301 144.399 187.101V187.501Z" fill="black"/>
<path d="M150.9 147.002C150.9 147.402 150.9 147.802 150.9 148.202C150.9 148.402 150.6 148.502 151.2 148.702C151.5 148.702 150.8 148.902 150.8 149.002C150.8 149.402 150.8 149.802 150.8 150.102C150.8 150.502 151.1 150.802 151.1 151.202C151.1 151.602 150.8 151.902 151.1 152.302C151.4 152.602 150.9 152.902 151 153.202C151.1 153.502 151.2 153.802 151 154.102C150.8 154.302 150.6 154.502 150.7 154.702C150.7 154.802 151.1 155.002 151 155.102C151 155.202 150.7 155.402 151.3 155.502C151.3 155.502 151.3 155.502 151.1 155.502C150.7 155.602 150.7 155.802 151 156.002C151.3 156.102 151.2 156.202 151.2 156.302C151.2 156.602 151.2 156.902 151.2 157.202C151.2 157.402 150.9 157.702 150.8 157.902C150.8 158.102 151 158.402 150.7 158.602C150.4 158.802 150.4 159.002 150.4 159.302C150.4 159.402 150.1 159.602 150.7 159.702C149.9 160.002 150.9 160.402 150.7 160.802C150.5 161.202 150.7 161.602 150.7 162.002C150.7 162.102 150.5 162.202 151 162.302C151.2 162.302 151.2 162.502 151 162.502C150.4 162.802 150.7 163.102 150.6 163.402C150.4 163.702 150.6 164.102 150.2 164.402C150 164.502 149.8 164.702 150.4 165.002C150.7 165.102 150.4 165.302 150.4 165.402C150.4 165.502 150.7 165.702 150.7 165.802C150.7 165.802 150.4 165.902 150.3 166.002C150.8 166.702 149.8 167.002 149.8 167.602C149.8 168.202 149.5 168.702 149.1 169.202C148.9 169.502 148.6 169.702 147.5 169.202C147 169.002 146.5 168.702 146.3 168.502C146.1 168.302 146 168.102 146 168.002C146 167.802 146 167.702 146 167.502C146 167.202 145.6 166.702 146 166.602C146.1 166.602 145.9 166.402 146.4 166.502C145.8 165.902 146.4 165.702 146.4 165.302C146.4 165.002 145.9 164.502 146.2 164.302C145.6 164.002 145.7 163.802 146 163.702C146.8 163.202 146.4 162.402 146.5 161.702C146.6 161.002 146.5 160.302 146.6 159.602C146.6 159.502 146.3 159.402 146.6 159.202C146.9 159.102 146.6 158.902 146.6 158.702C146.6 158.602 146.5 158.402 146.6 158.302C147.3 157.702 146.9 157.102 147 156.502C147 155.902 147.2 155.302 147 154.702C147 154.302 146.6 154.002 146.7 153.602C146.7 153.402 146.4 153.302 147 153.102C147.2 153.102 146.7 152.902 146.7 152.802C146.7 152.602 146.7 152.302 146.7 152.102C146.7 151.802 146.7 151.402 146.7 151.102C146.7 150.902 146.4 150.702 146.4 150.502C146.4 150.302 146.4 150.102 146.4 149.802C146.4 149.502 146.7 149.302 146.8 149.002C146.8 148.702 146.6 148.402 146.8 148.102C147.3 147.602 147.1 147.102 147.2 146.602C147.2 146.102 147.3 145.602 147.2 145.102C147.2 144.802 147.7 144.602 147.7 144.302C147.7 144.202 149.2 144.102 149.7 144.202H149.9C150.4 144.502 151.1 144.802 151 145.102C151 145.602 151 146.002 151 146.502L150.9 147.002Z" fill="black"/>
<path d="M164.7 127.601C166.2 126.801 167.8 126.101 169.4 125.301C170 125.001 170.7 125.001 171.1 124.301C171.3 123.901 172.1 124.301 172.7 124.101C174.2 123.501 175.8 123.101 177.4 122.701C178.9 122.301 180.5 121.801 182.1 121.501C183.7 121.201 185.4 121.501 186.9 121.201C188.3 121.001 189.5 121.601 190.8 121.701C192.2 121.801 193.7 122.201 195 122.901C195.9 123.501 196.7 124.101 197.6 124.601C198.2 124.901 198.9 125.001 199.4 125.501C199.9 125.901 200.3 126.701 201.3 127.001C201.3 127.001 201.5 127.501 201.6 127.701C201.8 128.901 201.9 130.101 202.1 130.901C202.3 131.701 202.1 132.401 201.9 133.001C201.3 134.601 200.4 136.001 199.2 137.101C198.3 137.901 197.3 138.401 196.3 139.001C195.3 139.601 194.3 140.401 193.2 140.501C192.1 140.601 191.2 140.901 190.3 141.201C189.8 141.401 189.1 141.201 188.8 141.901C188.8 141.901 188.6 142.001 188.5 141.901C186.8 141.401 185.7 142.801 184.1 142.901C182.5 143.001 181 143.501 179.4 143.801C179 143.801 178.5 143.801 178.2 144.301C178.1 144.501 177.7 144.601 177.4 144.501C176.1 144.101 175 144.701 173.8 144.801C172.4 144.901 171.1 145.401 169.7 145.101C169.1 145.001 168.3 145.001 167.7 145.701C167.4 146.001 166.7 145.801 166.2 146.001C165.8 146.101 165.4 146.401 165 146.501C164.7 146.501 164.3 146.401 163.9 146.301C163.8 146.301 163.7 146.301 163.6 146.301C161.7 147.201 159.6 146.501 157.6 146.901C155.6 147.301 153.5 147.301 151.5 147.401C150.4 147.401 149.2 147.301 148.4 146.201C148 145.701 148 145.101 148.4 144.801C148.7 144.501 149.1 144.301 149.5 144.201C150.1 144.101 150.7 143.901 151.4 143.801C152.7 143.501 153.9 142.901 155.2 143.101C155.6 143.101 156.1 142.801 156.5 143.301C156.5 143.301 156.7 143.301 156.8 143.301C158.5 142.401 160.3 142.701 162.1 142.401C163.6 142.201 165 141.401 166.5 141.401C167.3 140.701 168.2 140.601 169.1 140.701C172.2 140.901 175.1 140.001 178.1 139.501C181.1 139.001 184.1 138.301 187.1 137.701C187.6 137.601 187.9 137.101 188.6 137.301C189.2 137.401 189.8 137.001 190.4 136.801C190.9 136.601 191.4 136.301 192 136.201C194.2 136.001 195.9 134.301 197 132.801C197.6 132.001 198 131.101 198 130.401C198 130.001 198 129.801 197.8 129.601C197.7 129.401 197.4 129.101 196.9 128.801C195.9 128.001 194.7 127.701 193.6 127.101C193.1 126.801 192.5 127.001 192.1 126.201C192 126.001 191.4 126.201 191 126.201C190.1 126.101 189.2 125.901 188.3 125.801C187 125.701 185.7 125.601 184.4 125.801C183.6 125.801 182.8 126.201 182.1 126.401C181.3 126.601 180.5 126.701 179.6 126.801C178.5 126.901 177.5 127.001 176.4 127.201C175.3 127.401 174.3 128.101 173.2 128.201C171.1 128.401 169.4 129.501 167.6 130.401C165.8 131.301 164 132.201 162.4 133.401C161.5 134.101 160.3 134.201 159.4 134.901C159 135.201 157.5 134.401 157.4 133.901C157.4 133.801 157.4 133.701 157.4 133.601C158.1 132.601 158.5 131.401 159.7 130.701C161.4 129.701 163 128.701 164.8 127.701L164.7 127.601Z" fill="black"/>
<path d="M104.8 97.4991C104.8 98.4991 104.7 99.5991 104.8 100.699C104.8 101.099 104.6 101.499 105.1 101.899C105.4 102.099 104.8 102.499 104.8 102.899C104.9 103.899 104.9 104.899 105.1 105.799C105.3 106.699 105.6 107.599 105.9 108.599C106.1 109.499 106.1 110.499 106.6 111.299C107.1 111.999 106.8 112.799 107.1 113.499C107.4 114.199 107.8 114.999 107.8 115.799C107.8 116.399 107.8 116.999 108.1 117.499C108.3 117.799 108.7 117.999 108.9 118.299C109 118.599 108.9 119.099 109.6 119.099C109.6 119.099 109.6 119.299 109.6 119.399C109.4 119.899 109.6 120.299 110 120.499C110.4 120.699 110.5 120.899 110.6 121.199C111 121.899 111.4 122.599 111.8 123.299C112.1 123.799 112.2 124.499 112.5 124.999C112.8 125.599 113.4 125.899 113.5 126.599C113.5 127.299 114 127.699 114.3 128.099C114.5 128.399 114.5 128.799 115.2 128.599C115.2 128.599 115.3 128.599 115.3 128.799C115.3 130.099 116.7 129.999 117.1 130.799C117.6 131.599 118.4 132.199 119.1 132.899C119.3 133.099 119.4 133.399 119.9 133.199C120.1 133.199 120.3 133.299 120.3 133.499C120.4 134.499 121.2 134.699 121.7 135.199C122.3 135.799 123.1 136.099 123.5 136.999C123.7 137.399 124 137.799 124.7 137.499C125 137.399 125.2 137.799 125.5 137.999C125.7 137.999 126.1 137.999 126.3 138.099C126.5 138.199 126.5 138.499 126.7 138.699C126.7 138.699 126.8 138.799 126.9 138.799C128.3 138.799 128.9 140.199 130 140.499C131.1 140.699 132 140.999 132.9 141.099C133.4 141.099 133.7 141.199 134.6 142.099C135 142.499 135.3 142.999 135.1 143.399C135 143.699 134.8 143.999 134.5 144.199C134 144.399 133.6 144.599 133.1 144.799C132.1 145.099 131 145.399 130 144.799C129.7 144.599 129.3 144.799 129.2 144.199C129.2 144.199 129.1 143.999 129 144.099C127.5 144.399 126.5 143.299 125.4 142.699C124.5 142.199 123.3 142.199 122.5 141.399C121.7 141.599 121.2 141.099 120.8 140.599C119.5 138.799 117.7 137.899 116.2 136.399C114.7 134.899 113.2 133.399 111.9 131.799C111.7 131.499 111.2 131.499 111.2 130.999C111.2 130.499 110.7 130.199 110.4 129.899C110.1 129.599 109.8 129.299 109.7 128.899C109.3 127.199 108.1 125.999 107.3 124.599C106.6 123.099 105.9 121.699 105.1 120.199C104.6 119.299 103.9 118.499 103.7 117.499C103.7 117.099 103.1 116.799 103.6 116.199C103.7 115.999 103.2 115.799 103.1 115.499C102.9 114.899 102.7 114.199 102.5 113.499C102.2 112.599 102.1 111.599 101.8 110.699C101.6 110.099 101.3 109.599 101.1 109.099C100.9 108.499 100.8 107.899 100.8 107.299C100.8 106.499 100.8 105.699 100.8 104.999C100.8 104.199 100.5 103.399 100.7 102.599C101.2 101.199 100.9 99.7991 101 98.3991C101.1 96.9991 101.3 95.5991 101.3 94.1991C101.3 93.3991 101.9 92.7991 102.1 91.9991C102.1 91.5991 103.7 91.3991 104.2 91.6991C104.2 91.6991 104.4 91.7991 104.4 91.8991C104.7 92.6991 105.3 93.3991 105.2 94.1991C105 95.3991 104.9 96.5991 104.8 97.7991V97.4991Z" fill="black"/>
<path d="M104 113.8C103.8 113.8 103.6 113.7 103.4 113.7C103.4 113.7 103.3 113.4 103.1 113.9C103 114.2 103.1 113.5 103 113.5C102.8 113.5 102.6 113.4 102.4 113.4C102.2 113.4 102 113.6 101.7 113.6C101.5 113.6 101.4 113.3 101.1 113.6C100.9 113.8 100.9 113.3 100.7 113.4C100.5 113.4 100.3 113.5 100.2 113.2C100.2 113 100.1 112.8 99.9 112.8C99.9 112.8 99.7 113.1 99.6 113.1C99.6 113.1 99.6 112.8 99.3 113.4C99.3 113.4 99.3 113.4 99.3 113.2C99.3 112.8 99.3 112.8 99.1 113C99 113.2 98.9 113.2 98.9 113.2C98.7 113.2 98.6 113.2 98.4 113.1C98.3 113.1 98.2 112.8 98.1 112.7C98 112.7 97.8 112.8 97.8 112.5C97.8 112.2 97.7 112.2 97.6 112.1C97.6 112.1 97.6 111.8 97.3 112.4C97.3 111.6 96.9 112.5 96.7 112.3C96.6 112 96.3 112.1 96.1 112.1C96.1 112.1 96.1 111.9 95.9 112.3C95.9 112.4 95.8 112.4 95.8 112.3C95.8 111.7 95.6 112 95.5 111.8C95.4 111.6 95.1 111.8 95.1 111.3C95.1 111.1 95.1 110.9 94.8 111.5C94.7 111.7 94.7 111.5 94.6 111.5C94.6 111.5 94.4 111.8 94.3 111.8C94.3 111.8 94.3 111.6 94.3 111.4C93.8 111.9 93.9 111 93.6 111.1C93.3 111.1 93.1 111.1 92.9 110.8C92.8 110.7 92.7 110.5 93.1 109.4C93.3 108.9 93.5 108.4 93.7 108.1C93.8 107.9 94 107.7 94 107.7C94.1 107.7 94.2 107.6 94.3 107.5C94.5 107.4 94.9 106.9 94.9 107.3C94.9 107.4 95.1 107.1 94.9 107.6C95.4 106.9 95.4 107.6 95.6 107.6C95.8 107.6 96.2 107.1 96.3 107.4C96.6 106.8 96.7 107 96.7 107.2C96.8 108 97.3 107.7 97.6 107.9C97.9 108.1 98.3 108.1 98.6 108.3C98.6 108.3 98.8 108 98.8 108.3C98.8 108.6 98.9 108.4 99 108.4H99.2C99.2 109.1 99.7 108.8 99.9 109C100.2 109.1 100.4 109.3 100.7 109.2C100.9 109.2 101.2 108.9 101.3 109C101.3 109 101.5 108.8 101.4 109.4C101.4 109.6 101.6 109.1 101.6 109.1C101.7 109.1 101.8 109.1 102 109.1C102.2 109.1 102.3 109.2 102.5 109.2C102.6 109.2 102.8 109 102.9 108.9C103 108.9 103.1 108.9 103.2 108.9C103.3 109 103.4 109.2 103.5 109.3C103.6 109.3 103.8 109.2 103.9 109.5C104 110.1 104.3 109.9 104.6 110C104.8 110.1 105.1 110.2 105.3 110.1C105.5 110.1 105.5 110.6 105.6 110.6C105.6 110.6 105.5 112.1 105.3 112.6V112.8C105.1 113.2 104.8 113.9 104.6 113.8C104.4 113.7 104.1 113.7 103.9 113.6L104 113.8Z" fill="black"/>
<path d="M107 114.799C107.2 114.599 107.4 114.399 107.5 114.199C107.5 114.199 107.8 114.199 107.5 113.799C107.3 113.599 107.9 113.899 107.9 113.799C108 113.599 108.2 113.499 108.3 113.199C108.4 112.999 108.3 112.699 108.5 112.499C108.6 112.299 109 112.299 108.9 111.999C108.9 111.699 109.3 111.999 109.3 111.699C109.3 111.499 109.4 111.299 109.7 111.299C109.9 111.299 110.2 111.299 110.2 111.299C110.2 111.199 110 110.899 110.1 110.899C110.1 110.899 110.4 110.899 110.1 110.499C110.1 110.499 110.1 110.499 110.2 110.499C110.6 110.699 110.6 110.599 110.4 110.399C110.2 110.199 110.4 110.099 110.4 110.099C110.4 109.999 110.6 109.799 110.7 109.699C110.8 109.699 111.1 109.699 111.2 109.699C111.3 109.699 111.2 109.399 111.5 109.499C111.8 109.499 111.9 109.499 111.9 109.499C111.9 109.499 112.2 109.499 111.7 109.099C112.5 109.399 111.7 108.699 112 108.599C112.3 108.599 112.3 108.299 112.3 108.199C112.3 108.199 112.5 108.199 112.1 107.899C112 107.899 112 107.799 112.1 107.799C112.7 107.999 112.4 107.699 112.6 107.599C112.8 107.599 112.6 107.299 113.1 107.299C113.3 107.299 113.5 107.299 112.9 106.999C112.7 106.899 112.9 106.999 112.9 106.799L112.6 106.599C112.6 106.599 112.8 106.599 113 106.599C112.4 106.199 113.3 106.299 113.2 105.999C113.1 105.799 113.2 105.599 113.2 105.399C113.2 105.299 113.5 105.199 114.6 105.199C115.1 105.199 115.7 105.199 116 105.199C116.2 105.199 116.5 105.299 116.5 105.399C116.5 105.499 116.7 105.599 116.8 105.699C117 105.899 117.5 106.199 117.1 106.399C117 106.399 117.3 106.599 116.8 106.599C117.5 107.099 116.9 107.299 116.8 107.599C116.8 107.899 117.3 108.299 116.9 108.499C117.4 108.899 117.2 108.999 117 109.099C116.2 109.299 116.3 109.899 116 110.299C115.7 110.699 115.5 111.199 115.1 111.499C115.1 111.499 115.3 111.799 115.1 111.699C114.8 111.699 114.9 111.799 114.9 111.899C114.9 111.899 114.9 112.099 114.7 112.099C114 111.999 114 112.499 113.7 112.699C113.4 112.899 113.1 113.099 113 113.499C113 113.699 113 114.099 112.8 114.199C112.7 114.199 112.8 114.499 112.4 114.199C112.3 114.199 112.5 114.499 112.5 114.499C112.5 114.599 112.3 114.699 112.2 114.799C112.1 114.899 111.9 115.099 111.8 115.199C111.8 115.299 111.8 115.599 111.8 115.699C111.8 115.799 111.7 115.899 111.6 115.999C111.4 115.999 111.2 115.999 111 115.999C110.8 115.999 111 116.399 110.7 116.299C110.1 116.199 110.2 116.499 110 116.699C109.8 116.899 109.6 117.099 109.6 117.299C109.6 117.499 109.1 117.299 109 117.399C109 117.399 107.7 116.699 107.3 116.499C107.3 116.499 107.1 116.399 107.1 116.299C106.8 115.899 106.3 115.399 106.4 115.199C106.6 114.999 106.8 114.699 106.9 114.499L107 114.799Z" fill="black"/>
<path d="M111.801 131.801C111.601 131.801 111.301 131.801 111.101 131.801C111.101 131.801 110.901 131.601 110.901 132.101C110.901 132.401 110.801 131.701 110.701 131.801C110.501 131.801 110.301 131.801 110.101 131.801C109.901 131.801 109.701 132.101 109.501 132.201C109.301 132.201 109.101 132.001 108.901 132.201C108.701 132.501 108.601 132.001 108.401 132.101C108.201 132.201 108.001 132.301 107.901 132.101C107.801 131.901 107.701 131.701 107.501 131.801C107.501 131.801 107.301 132.201 107.201 132.201C107.201 132.201 107.101 131.901 106.901 132.501C106.901 132.501 106.901 132.501 106.901 132.301C106.901 131.901 106.701 131.901 106.701 132.201C106.701 132.501 106.601 132.401 106.501 132.401C106.301 132.401 106.101 132.401 106.001 132.401C105.901 132.401 105.801 132.101 105.601 132.001C105.501 132.001 105.301 132.201 105.201 131.901C105.201 131.601 105.001 131.601 104.901 131.601C104.901 131.601 104.801 131.301 104.601 131.901C104.601 131.101 104.201 132.101 104.001 131.901C103.801 131.701 103.601 131.801 103.401 131.801C103.401 131.801 103.401 131.601 103.201 132.001C103.201 132.201 103.101 132.201 103.101 132.001C103.101 131.401 102.801 131.701 102.701 131.601C102.501 131.401 102.301 131.601 102.201 131.201C102.201 131.001 102.101 130.801 101.901 131.401C101.801 131.701 101.801 131.401 101.701 131.401L101.501 131.701C101.501 131.701 101.501 131.501 101.501 131.301C101.101 131.901 101.001 130.901 100.701 131.001C100.401 131.101 100.101 131.001 99.9006 130.801C99.8006 130.801 99.7006 130.501 99.9006 129.401C100.001 128.901 100.201 128.401 100.401 128.101C100.501 127.901 100.601 127.701 100.701 127.601C100.801 127.601 100.901 127.401 101.001 127.401C101.201 127.301 101.501 126.801 101.601 127.101C101.601 127.101 101.801 126.901 101.601 127.401C102.001 126.701 102.101 127.301 102.301 127.301C102.501 127.301 102.801 126.701 102.901 127.001C103.101 126.401 103.201 126.501 103.301 126.801C103.501 127.501 103.901 127.201 104.301 127.301C104.601 127.501 105.001 127.401 105.401 127.501C105.401 127.501 105.601 127.201 105.601 127.501C105.601 127.801 105.701 127.501 105.801 127.501C105.801 127.501 106.001 127.401 106.001 127.501C106.201 128.201 106.501 127.801 106.801 127.901C107.101 127.901 107.401 128.101 107.701 127.901C107.901 127.901 108.101 127.501 108.201 127.601C108.201 127.601 108.401 127.301 108.401 127.901C108.401 128.101 108.501 127.601 108.601 127.601C108.701 127.601 108.801 127.601 109.001 127.601C109.201 127.601 109.301 127.601 109.501 127.601C109.601 127.601 109.701 127.301 109.801 127.301C109.901 127.301 110.001 127.301 110.101 127.301C110.201 127.301 110.401 127.601 110.501 127.601C110.601 127.601 110.801 127.401 110.901 127.601C111.201 128.101 111.401 127.801 111.701 127.901C111.901 127.901 112.201 127.901 112.401 127.901C112.501 127.901 112.701 128.301 112.801 128.301C112.801 128.301 113.101 129.701 113.101 130.301V130.501C113.101 131.001 112.901 131.701 112.801 131.701C112.501 131.701 112.301 131.701 112.001 131.701L111.801 131.801Z" fill="black"/>
<path d="M119.499 126.4C119.499 126.3 119.499 126.2 119.499 126.1C119.499 126.1 119.699 126.1 119.199 125.9C118.899 125.9 119.599 125.9 119.599 125.9C119.599 125.8 119.599 125.7 119.599 125.6C119.599 125.5 119.299 125.4 119.299 125.3C119.299 125.3 119.599 125.1 119.299 125C118.999 124.9 119.499 124.9 119.399 124.8C119.299 124.8 119.199 124.6 119.399 124.6C119.599 124.6 119.799 124.6 119.699 124.5C119.699 124.5 119.299 124.5 119.299 124.4C119.299 124.4 119.599 124.4 118.999 124.3C118.999 124.3 118.999 124.3 119.099 124.3C119.499 124.3 119.499 124.3 119.199 124.2C118.899 124.2 118.999 124.2 118.999 124.1V123.9C118.999 123.9 119.299 123.8 119.399 123.7C119.399 123.7 119.199 123.6 119.399 123.5C119.699 123.5 119.699 123.4 119.699 123.3C119.699 123.3 119.999 123.3 119.399 123.2C120.199 123.2 119.099 123 119.399 122.9C119.599 122.9 119.399 122.7 119.399 122.6C119.399 122.6 119.599 122.6 119.099 122.6C118.899 122.6 118.899 122.6 119.099 122.6C119.699 122.6 119.299 122.5 119.499 122.4C119.599 122.4 119.299 122.2 119.799 122.1C119.999 122.1 120.099 122.1 119.499 122H119.199C119.199 122 119.399 122 119.499 122C118.799 122 119.699 121.7 119.499 121.6C119.299 121.5 119.399 121.4 119.499 121.2C119.499 121.2 119.699 121 120.899 120.9C121.399 120.9 121.999 120.8 122.299 120.9C122.499 120.9 122.799 120.9 122.799 120.9C122.899 120.9 122.999 120.9 123.099 121C123.299 121 123.799 121.1 123.599 121.3C123.599 121.3 123.799 121.3 123.299 121.4C124.099 121.4 123.599 121.6 123.599 121.8C123.599 121.9 124.299 122 123.999 122.1C124.599 122.1 124.499 122.2 124.299 122.3C123.599 122.5 124.099 122.8 123.999 123C123.999 123.2 123.999 123.5 123.999 123.7C123.999 123.7 124.399 123.7 123.999 123.8C123.699 123.8 123.999 123.8 123.999 123.9C123.999 123.9 124.099 123.9 123.999 124C123.299 124.1 123.699 124.3 123.599 124.5C123.599 124.7 123.399 124.8 123.599 125C123.599 125.1 123.999 125.2 123.899 125.3C123.899 125.3 124.199 125.4 123.599 125.4C123.399 125.4 123.899 125.4 123.899 125.5C123.899 125.5 123.899 125.6 123.899 125.7C123.899 125.8 123.899 125.9 123.899 126L124.199 126.2C124.199 126.2 124.199 126.3 124.199 126.4C124.199 126.4 123.899 126.5 123.799 126.6C123.799 126.6 123.999 126.8 123.799 126.8C123.299 126.8 123.499 127.1 123.399 127.2C123.399 127.3 123.299 127.5 123.399 127.6C123.399 127.6 122.899 127.6 122.899 127.8C122.899 127.8 121.399 127.6 120.899 127.5H120.699C120.299 127.3 119.599 127.1 119.599 127.1C119.599 127 119.599 126.9 119.599 126.7L119.499 126.4Z" fill="black"/>
<path d="M123.6 141.299C123.4 141.299 123.3 141.299 123.1 141.499C123.1 141.499 122.9 141.299 123 141.799C123 142.099 122.8 141.499 122.8 141.499C122.7 141.599 122.5 141.499 122.3 141.699C122.2 141.699 122.1 142.099 121.9 142.199C121.8 142.199 121.5 141.999 121.5 142.399C121.5 142.699 121.2 142.199 121.1 142.399C121 142.599 120.9 142.699 120.7 142.399C120.6 142.299 120.4 142.099 120.4 142.199V142.599C120.4 142.599 120.2 142.299 120.3 142.999C120.3 142.999 120.3 142.999 120.3 142.899C120.2 142.499 120.1 142.599 120.1 142.899C120.1 143.199 120.1 143.199 120.1 143.199C120 143.199 119.8 143.299 119.7 143.199C119.6 143.199 119.5 142.999 119.3 142.899C119.2 142.899 119.1 143.199 119 142.899C118.9 142.599 118.8 142.599 118.7 142.699C118.7 142.699 118.5 142.399 118.6 143.099C118.3 142.299 118.3 143.399 118.2 143.199C118 142.999 117.9 143.199 117.7 143.199C117.7 143.199 117.6 142.999 117.7 143.499C117.7 143.699 117.7 143.699 117.7 143.499C117.5 142.899 117.4 143.299 117.3 143.199C117.1 143.099 117 143.399 116.9 142.899C116.9 142.699 116.7 142.599 116.7 143.199C116.7 143.499 116.6 143.199 116.6 143.199C116.6 143.199 116.6 143.499 116.5 143.499C116.5 143.499 116.5 143.299 116.4 143.199C116.2 143.899 116 142.999 115.8 143.199C115.6 143.399 115.4 143.299 115.2 143.199C115.1 143.199 115 142.999 114.9 141.799C114.9 141.299 114.9 140.699 114.9 140.399C114.9 140.199 114.9 139.899 114.9 139.899C114.9 139.799 115 139.699 115.1 139.599C115.2 139.399 115.3 138.899 115.4 139.099C115.4 139.099 115.4 138.899 115.5 139.399C115.6 138.599 115.8 139.099 116 138.999C116.1 138.999 116.2 138.299 116.4 138.599C116.4 137.999 116.5 138.099 116.6 138.299C116.9 138.899 117.2 138.499 117.4 138.499C117.7 138.499 117.9 138.499 118.2 138.499C118.2 138.499 118.2 138.099 118.3 138.499C118.3 138.799 118.4 138.499 118.5 138.499C118.5 138.499 118.5 138.299 118.7 138.499C119 139.099 119.2 138.699 119.4 138.699C119.6 138.699 119.9 138.699 120 138.499C120.1 138.399 120.2 137.999 120.3 138.099C120.3 138.099 120.3 137.799 120.5 138.399C120.5 138.599 120.5 138.099 120.5 138.099C120.5 138.099 120.7 138.099 120.8 138.099C120.9 138.099 121.1 138.099 121.2 137.999C121.2 137.999 121.2 137.699 121.3 137.599C121.3 137.599 121.4 137.499 121.5 137.599C121.6 137.599 121.8 137.799 121.9 137.899C122 137.899 122 137.599 122.2 137.899C122.5 138.299 122.6 137.999 122.8 137.999C123 137.999 123.2 137.999 123.3 137.799C123.3 137.699 123.6 138.099 123.7 138.099C123.7 138.099 124.3 139.499 124.4 139.899V140.099C124.4 140.599 124.6 141.299 124.4 141.299C124.2 141.299 124 141.399 123.8 141.499L123.6 141.299Z" fill="black"/>
<path d="M190.101 91.8008C190.201 92.3008 190.301 92.9008 190.501 93.4008C190.501 93.6008 190.401 93.9008 190.901 94.0008C191.201 94.0008 190.601 94.4008 190.701 94.6008C190.901 95.1008 190.901 95.6008 191.101 96.2008C191.301 96.7008 191.601 97.2008 191.701 97.7008C191.801 98.2008 191.701 98.8008 192.001 99.2008C192.301 99.6008 192.001 100.101 192.001 100.401C192.201 100.801 192.301 101.301 192.101 101.701C192.001 102.001 191.801 102.401 191.901 102.701C191.901 102.901 192.301 103.001 192.301 103.301C192.301 103.501 192.001 103.701 192.701 103.901C192.701 103.901 192.701 104.001 192.601 104.101C192.201 104.301 192.301 104.601 192.601 104.801C192.901 105.001 192.901 105.101 192.901 105.301C192.901 105.801 192.901 106.201 192.901 106.701C192.901 107.001 192.601 107.401 192.501 107.701C192.501 108.101 192.701 108.401 192.401 108.801C192.101 109.101 192.101 109.401 192.101 109.701C192.101 109.901 191.801 110.101 192.401 110.301C192.401 110.301 192.401 110.301 192.401 110.401C191.501 110.801 192.501 111.501 192.301 112.001C192.001 112.501 192.101 113.101 192.001 113.701C192.001 113.801 191.801 114.001 192.201 114.201C192.301 114.201 192.301 114.401 192.201 114.501C191.501 114.801 191.801 115.301 191.501 115.701C191.301 116.101 191.401 116.701 190.801 117.001C190.501 117.101 190.301 117.401 190.801 117.801C191.001 118.001 190.701 118.101 190.701 118.301C190.701 118.501 190.901 118.701 190.801 118.801C190.801 118.901 190.501 118.901 190.301 119.001C190.301 119.001 190.301 119.001 190.301 119.101C190.601 120.001 189.501 120.301 189.401 121.001C189.301 121.701 188.901 122.301 188.501 122.801C188.301 123.101 188.001 123.301 186.801 123.101C186.301 123.001 185.801 122.801 185.501 122.501C185.301 122.301 185.201 122.101 185.201 121.901C185.201 121.701 185.201 121.401 185.201 121.201C185.201 120.701 184.901 120.101 185.401 119.801C185.501 119.801 185.401 119.401 185.801 119.601H185.901C185.501 118.701 186.201 118.401 186.401 117.901C186.501 117.401 186.101 116.801 186.501 116.501C186.001 116.001 186.201 115.801 186.501 115.601C187.401 114.901 187.201 113.901 187.501 113.001C187.801 112.101 187.801 111.101 188.001 110.201C188.001 110.001 187.701 109.901 188.001 109.701C188.301 109.501 188.001 109.301 188.101 109.101C188.101 108.901 188.001 108.701 188.101 108.501C188.801 107.801 188.401 107.001 188.501 106.201C188.501 105.401 188.501 104.701 188.401 103.901C188.301 103.401 187.901 103.001 188.001 102.501C188.001 102.301 187.701 102.101 188.201 101.901C188.401 101.901 187.901 101.701 187.901 101.601C187.901 101.301 187.801 101.001 187.801 100.601C187.801 100.201 187.801 99.7008 187.601 99.3008C187.601 99.0008 187.201 98.8008 187.101 98.5008C187.001 98.2008 186.901 97.9008 186.901 97.6008C186.901 97.2008 187.001 96.8008 187.001 96.5008C187.001 96.1008 186.601 95.8008 186.801 95.4008C187.201 94.6008 186.801 94.0008 186.701 93.3008C186.701 92.6008 186.501 91.9008 186.201 91.3008C186.001 90.9008 186.501 90.5008 186.401 90.1008C186.401 89.9008 187.701 89.4008 188.201 89.3008H188.401C188.901 89.6008 189.701 89.7008 189.801 90.2008C189.801 90.8008 190.101 91.4008 190.201 92.1008L190.101 91.8008Z" fill="black"/>
<path d="M186.199 110.2C185.999 110.2 185.799 110 185.599 110C185.599 110 185.599 109.7 185.299 110.2C185.199 110.4 185.299 109.8 185.299 109.8C185.099 109.8 184.899 109.6 184.699 109.6C184.499 109.6 184.199 109.7 183.999 109.6C183.799 109.6 183.699 109.2 183.399 109.4C183.099 109.6 183.199 109.1 182.999 109.1C182.799 109.1 182.599 109.1 182.599 108.8C182.599 108.6 182.599 108.3 182.399 108.4C182.399 108.4 182.099 108.7 181.999 108.6C181.999 108.6 181.999 108.3 181.599 108.8C181.599 108.8 181.599 108.8 181.599 108.6C181.699 108.2 181.599 108.2 181.399 108.4C181.199 108.6 181.199 108.5 181.099 108.5C180.899 108.5 180.799 108.4 180.699 108.2C180.699 108.1 180.699 107.8 180.599 107.7C180.599 107.6 180.299 107.7 180.299 107.4C180.299 107.1 180.299 107 180.199 107C180.199 107 180.199 106.7 179.799 107.2C180.099 106.4 179.299 107.2 179.299 106.9C179.299 106.6 178.999 106.6 178.799 106.5C178.799 106.5 178.799 106.3 178.499 106.6C178.399 106.7 178.299 106.6 178.399 106.6C178.699 106 178.299 106.2 178.199 106C178.199 105.8 177.799 105.8 177.999 105.3C177.999 105.1 177.999 104.9 177.599 105.3C177.399 105.4 177.499 105.2 177.399 105.2C177.399 105.2 177.099 105.3 176.999 105.2C176.999 105.2 177.099 105 177.199 104.9C176.499 105 176.999 104.2 176.699 104.1C176.399 103.9 176.299 103.5 176.199 103.2C176.199 103 176.199 102.7 177.299 102.3C177.799 102.1 178.299 101.9 178.599 101.9C178.799 101.9 179.099 101.9 179.099 101.9C179.199 101.9 179.399 101.9 179.499 101.9C179.699 101.9 180.199 101.8 179.999 101.9C179.999 101.9 180.199 101.9 179.799 102.1C180.599 101.8 180.199 102.2 180.299 102.3C180.399 102.3 180.999 102.1 180.899 102.3C181.399 101.9 181.399 102.1 181.299 102.3C180.999 103 181.499 102.8 181.699 103.1C181.899 103.4 182.199 103.5 182.399 103.7C182.399 103.7 182.699 103.5 182.599 103.7C182.599 104 182.599 103.8 182.699 103.9C182.699 103.9 182.899 103.9 182.899 104C182.799 104.7 183.199 104.5 183.399 104.7C183.599 104.9 183.799 105.1 184.099 105.1C184.299 105.1 184.599 104.9 184.699 105.1C184.699 105.1 184.999 104.9 184.699 105.5C184.699 105.7 184.899 105.3 184.999 105.3C185.099 105.3 185.199 105.3 185.299 105.4C185.399 105.4 185.599 105.6 185.699 105.6C185.799 105.6 185.999 105.4 186.099 105.4C186.199 105.4 186.299 105.4 186.399 105.5C186.399 105.6 186.499 105.9 186.599 106C186.599 106.1 186.899 106 186.899 106.2C186.899 106.8 187.199 106.6 187.399 106.7C187.599 106.8 187.799 107 188.099 106.9C188.199 106.9 188.099 107.4 188.299 107.4C188.299 107.4 187.999 108.8 187.799 109.3V109.5C187.499 109.9 187.199 110.5 186.999 110.4C186.799 110.2 186.499 110.2 186.299 110.1L186.199 110.2Z" fill="black"/>
<path d="M201.2 94.3984C201.1 94.5984 200.9 94.6984 200.8 94.8984C200.8 94.8984 200.5 94.8984 200.8 95.2984C201 95.4984 200.4 95.0984 200.4 95.2984C200.4 95.4984 200.1 95.5984 200 95.7984C200 95.9984 200 96.2984 199.9 96.3984C199.9 96.5984 199.5 96.4984 199.6 96.8984C199.6 97.1984 199.2 96.8984 199.2 97.0984C199.2 97.2984 199.2 97.4984 198.8 97.3984C198.6 97.3984 198.4 97.2984 198.4 97.3984C198.4 97.3984 198.6 97.7984 198.4 97.7984C198.4 97.7984 198.1 97.6984 198.4 98.1984C198.4 98.1984 198.4 98.1984 198.3 98.1984C198 97.9984 197.9 97.9984 198.1 98.1984C198.2 98.3984 198.1 98.4984 198.1 98.4984C198.1 98.5984 197.9 98.7984 197.7 98.7984C197.6 98.7984 197.3 98.7984 197.2 98.7984C197.1 98.7984 197.2 99.0984 196.9 98.9984C196.6 98.7984 196.5 98.9984 196.5 98.9984C196.5 98.9984 196.2 98.8984 196.5 99.3984C195.8 98.8984 196.4 99.7984 196.1 99.7984C195.8 99.7984 195.8 99.9984 195.6 100.098C195.6 100.098 195.4 100.098 195.6 100.398C195.6 100.498 195.6 100.598 195.6 100.498C195.1 100.098 195.2 100.498 195 100.498C194.8 100.498 194.8 100.798 194.4 100.498C194.2 100.398 194.1 100.298 194.4 100.898C194.5 101.098 194.3 100.898 194.3 101.098C194.3 101.098 194.4 101.398 194.3 101.498C194.3 101.498 194.1 101.398 194 101.298C194.2 101.998 193.5 101.298 193.4 101.698C193.3 101.998 193 102.098 192.8 102.098C192.7 102.098 192.4 102.098 191.8 101.098C191.5 100.698 191.2 100.198 191.1 99.8984C191.1 99.6984 190.9 99.4984 190.9 99.3984C190.9 99.2984 190.9 99.0984 190.9 98.9984C190.9 98.7984 190.8 98.1984 191 98.3984C191 98.3984 191 98.1984 191.3 98.5984C191 97.7984 191.5 98.1984 191.6 97.9984C191.7 97.8984 191.5 97.2984 191.8 97.3984C191.5 96.7984 191.7 96.8984 191.8 96.9984C192.5 97.3984 192.5 96.7984 192.8 96.6984C193.1 96.5984 193.3 96.2984 193.6 96.0984C193.6 96.0984 193.5 95.7984 193.6 95.8984C193.8 96.0984 193.7 95.8984 193.8 95.8984C193.8 95.8984 193.8 95.6984 194 95.7984C194.6 96.0984 194.6 95.6984 194.8 95.4984C195 95.3984 195.3 95.1984 195.4 94.8984C195.4 94.6984 195.4 94.3984 195.5 94.2984C195.5 94.2984 195.5 93.9984 195.9 94.2984C196 94.3984 195.8 93.9984 195.8 93.9984C195.8 93.8984 195.9 93.7984 196 93.7984C196.1 93.6984 196.2 93.5984 196.3 93.4984C196.3 93.4984 196.3 93.1984 196.3 93.0984C196.3 92.9984 196.3 92.8984 196.5 92.8984C196.6 92.8984 196.9 92.8984 197 92.8984C197.1 92.8984 197 92.5984 197.3 92.6984C197.8 92.8984 197.8 92.4984 198 92.3984C198 92.3984 198.1 92.3984 198.2 92.2984L199.8 90.8984L200.9 92.1984C201.1 92.4984 201.3 92.6984 201.6 92.9984C201.8 93.2984 201.4 93.6984 201.5 93.8984C201.5 94.0984 200.1 94.3984 199.6 94.3984H199.4C199.2 94.3984 198.9 94.3984 198.6 94.4984H201.1C201.1 94.5984 201.1 94.6984 201.1 94.6984L201.2 94.3984Z" fill="black"/>
<path d="M205.101 113.899C205.001 113.899 204.901 113.999 204.801 114.099C204.801 114.099 204.601 113.899 204.801 114.399C204.901 114.599 204.501 114.099 204.501 114.199C204.501 114.299 204.301 114.299 204.201 114.399C204.201 114.499 204.201 114.799 204.101 114.899C204.101 114.999 203.801 114.899 203.801 115.199C203.801 115.499 203.501 115.199 203.501 115.199C203.501 115.399 203.501 115.499 203.201 115.299C203.001 115.199 202.901 114.999 202.901 115.199C202.901 115.199 203.001 115.599 202.901 115.599C202.901 115.599 202.701 115.399 202.901 115.999C202.901 115.999 202.901 115.999 202.801 115.899C202.501 115.599 202.501 115.599 202.601 115.899C202.701 116.199 202.601 116.099 202.601 116.199C202.601 116.199 202.501 116.399 202.301 116.399C202.301 116.399 202.001 116.199 201.901 116.199C201.801 116.199 201.901 116.499 201.701 116.199C201.501 115.999 201.401 115.999 201.401 116.099C201.401 116.099 201.201 115.899 201.401 116.499C200.901 115.899 201.401 116.799 201.101 116.699C200.901 116.599 200.901 116.699 200.801 116.899C200.801 116.899 200.601 116.799 200.801 117.199C200.801 117.299 200.801 117.399 200.801 117.199C200.401 116.699 200.501 117.099 200.401 117.099C200.201 117.099 200.401 117.399 200.001 117.099C199.901 116.899 199.701 116.899 200.001 117.399C200.101 117.599 200.001 117.399 200.001 117.499C200.001 117.499 200.101 117.799 200.001 117.799C200.001 117.799 199.801 117.599 199.701 117.599C199.901 118.299 199.301 117.599 199.301 117.799C199.301 117.999 199.101 118.099 198.901 118.099C198.801 118.099 198.601 117.999 198.001 117.099C197.701 116.699 197.401 116.199 197.301 115.899C197.201 115.699 197.101 115.499 197.101 115.399C197.101 115.299 197.101 115.099 197.101 114.999C197.101 114.799 196.901 114.299 197.101 114.499C197.101 114.499 197.101 114.299 197.301 114.699C197.001 113.999 197.401 114.299 197.501 114.199C197.501 114.099 197.301 113.499 197.501 113.699C197.201 113.099 197.401 113.199 197.501 113.299C198.101 113.699 198.001 113.299 198.301 113.199C198.601 113.199 198.701 112.899 199.001 112.799C199.001 112.799 198.901 112.499 199.001 112.699C199.201 112.899 199.101 112.699 199.201 112.699C199.201 112.699 199.201 112.499 199.301 112.699C199.801 113.199 199.801 112.699 200.001 112.699C200.201 112.699 200.401 112.699 200.501 112.399C200.501 112.299 200.501 111.899 200.601 111.899C200.601 111.899 200.601 111.599 200.901 112.099C201.001 112.199 200.901 111.799 200.901 111.799C200.901 111.799 201.001 111.799 201.101 111.699C201.101 111.699 201.301 111.699 201.401 111.499C201.401 111.499 201.401 111.199 201.401 111.099C201.401 111.099 201.401 110.999 201.601 110.999C201.701 110.999 201.901 111.099 202.001 111.199C202.101 111.199 202.001 110.899 202.301 111.199C202.701 111.499 202.701 111.199 202.901 111.199C203.101 111.199 203.201 111.199 203.301 110.899C203.301 110.799 203.701 111.199 203.801 111.099C203.801 111.099 204.701 112.299 204.901 112.699C204.901 112.699 204.901 112.899 205.001 112.899C205.201 113.299 205.501 113.999 205.401 113.999C205.201 113.999 205.101 114.099 205.001 114.199L205.101 113.899Z" fill="black"/>
<path d="M180.101 118C180.101 118 180.101 118 180.001 118C180.001 118 180.001 117.8 180.001 118.3C180.001 118.6 180.001 117.9 180.001 118C180.001 118 180.001 118.3 179.901 118.3C179.901 118.6 179.901 118.1 179.901 118.2C179.901 118.3 179.901 118.4 179.901 118.2C179.901 118 179.901 117.8 179.901 117.9V118.3C179.901 118.3 179.901 118 179.901 118.6C179.901 118.6 179.901 118.6 179.901 118.5C179.901 118.1 179.901 118.1 179.901 118.4C179.901 118.7 179.901 118.6 179.901 118.7V118.4C179.901 118.1 179.901 118.1 179.901 118.1C179.901 118.1 179.901 117.8 179.901 118.4C179.801 117.6 179.901 118.7 179.901 118.4C179.901 118.4 179.901 118.2 179.901 118.7C179.901 118.9 179.901 118.9 179.901 118.7C179.801 118.1 179.901 118.5 179.801 118.4C179.801 118.3 179.801 118.6 179.701 118.1C179.701 117.9 179.701 117.8 179.701 118.4V118.7C179.701 118.7 179.701 118.5 179.701 118.4C179.701 119.1 179.601 118.2 179.601 118.4C179.601 118.6 179.601 118.5 179.501 118.4C179.501 118.4 179.501 118.2 179.101 117.1C179.001 116.6 178.801 116.1 178.801 115.7C178.801 115.5 178.801 115.2 178.801 115.2C178.801 115.2 178.801 115 178.801 114.9C178.801 114.7 178.801 114.2 178.801 114.4C178.801 114.4 178.801 114.2 178.901 114.7C178.801 113.9 178.901 114.4 179.001 114.3C179.001 114.3 179.001 113.6 179.001 113.9C179.001 113.3 179.001 113.4 179.001 113.6C179.201 114.2 179.201 113.8 179.401 113.9C179.501 113.9 179.601 113.9 179.701 113.9C179.801 114.6 179.901 114.1 180.001 114.2C180.001 114.2 180.201 114.3 180.201 114.2C180.201 114.1 180.201 113.8 180.301 113.9C180.301 113.9 180.301 113.6 180.301 114.2C180.301 114.4 180.301 113.9 180.301 113.9C180.301 113.9 180.301 113.9 180.401 113.9C180.401 113.9 180.401 113.9 180.501 113.9V113.6C180.501 113.6 180.501 113.9 180.601 114C180.601 114 180.601 113.8 180.701 114C180.701 114.5 180.801 114.3 180.901 114.3C180.901 114.3 181.001 114.4 181.101 114.3V114.7C181.101 114.7 181.101 115.1 181.101 115.5C181.101 115.9 181.001 116.4 181.001 116.7V116.9C181.001 117.4 180.801 118.1 180.801 118C180.801 118 180.801 118 180.701 118H180.101Z" fill="black"/>
</svg>
