<svg width="300" height="300" viewBox="0 0 300 300" fill="none" xmlns="http://www.w3.org/2000/svg">
<path d="M176.6 132.902C174.9 131.102 173.2 129.202 171.5 127.402C170.8 126.702 170.4 125.902 169.3 125.502C168.8 125.302 168.6 124.202 168 123.602C166.4 121.902 164.8 120.202 163.2 118.502C161.6 116.902 160 115.702 158.4 115.202C156.8 114.602 154.7 114.102 152.5 114.402C150.7 114.602 149 114.102 147.3 114.302C145.4 114.502 143.5 114.702 141.7 114.602C140.4 114.602 139 114.502 137.7 114.802C136.9 115.002 136.2 115.402 135.3 115.502C134.5 115.602 133.5 115.502 132.9 116.302C132.9 116.302 132.5 116.302 132.3 116.302C131.3 116.102 130.3 116.302 129.6 116.802C129 117.202 128.3 117.402 127.7 117.502C125.9 118.002 124.1 118.502 122.5 119.102C121.3 119.502 120.1 119.902 119.1 120.502C118 121.202 117.5 122.302 116.7 123.102C115.9 123.902 115.5 125.002 115.2 126.202C115 126.902 114.6 127.602 115.2 128.302C115.2 128.302 115.2 128.602 115.2 128.702C114.1 130.702 115.2 132.902 115 135.002C114.8 137.302 115 139.602 115 141.902C115 142.502 114.9 143.202 115.4 143.702C115.6 143.902 115.6 144.502 115.5 144.802C115 146.502 115.5 148.302 115.5 150.102C115.5 152.102 116.1 154.102 115.8 156.102C115.7 157.002 115.8 158.102 116.4 159.102C116.7 159.502 116.6 160.502 116.8 161.302C116.9 161.902 117.3 162.402 117.4 163.002C117.4 163.502 117.4 164.002 117.3 164.602C117.3 164.802 117.3 164.902 117.3 165.102C118.4 167.902 118 170.902 118.7 173.802C119.4 176.702 119.9 179.702 120.3 182.602C120.6 184.202 120.7 185.902 119.8 187.302C119.4 187.902 118.8 188.002 118.4 187.302C118.1 186.802 117.7 186.302 117.6 185.702C117.3 184.802 117 183.902 116.8 183.002C116.3 181.202 115.4 179.402 115.3 177.402C115.3 176.802 114.9 176.102 115.3 175.502C115.3 175.502 115.3 175.202 115.3 175.002C114.1 172.502 114.1 169.702 113.6 167.102C113.2 164.802 112.2 162.702 112.2 160.402C111.4 159.202 111.3 157.702 111.4 156.402C111.5 151.802 110.7 147.302 110.6 142.702C110.6 140.402 110.5 138.002 110.5 135.702C110.5 133.402 110.5 131.002 110.8 128.602C110.8 127.802 110.6 127.002 111.1 126.002C111.5 125.102 111.7 123.902 112.1 122.802C112.5 121.802 112.9 120.702 113.6 120.002C116.6 116.802 120.3 114.902 123.8 113.802C127.3 112.802 130.9 112.002 134.5 111.302C136.7 110.802 138.8 110.202 141.1 110.102C142.1 110.102 143 109.602 144 110.102C144.3 110.302 145.1 109.802 145.8 109.702C147.3 109.602 148.9 109.602 150.4 109.602C152.5 109.602 154.6 109.602 157 110.002C158.4 110.202 159.9 110.302 161.4 111.002C162.9 111.702 164.2 112.802 165.2 113.802C166.5 115.202 167.4 116.502 168.5 117.802C169.6 119.102 171.1 120.302 172 121.702C173.7 124.302 176.1 126.402 178.1 128.702C180.2 131.002 182.2 133.302 184.4 135.502C185.6 136.702 186.4 138.202 187.5 139.502C188 140.102 187.7 141.902 187.1 142.002C187 142.002 186.8 142.002 186.7 142.002C185.2 141.102 183.6 140.502 182.4 139.002C180.5 136.902 178.5 134.802 176.6 132.802V132.902Z" fill="black"/>
<path d="M166.1 147.302C166.5 147.102 166.8 147.002 167.2 146.702C167.3 146.702 167.6 146.702 167.5 146.202C167.5 145.902 167.9 146.402 168 146.402C168.3 146.202 168.7 146.102 169 145.902C169.3 145.702 169.5 145.302 169.8 145.102C170.1 144.902 170.6 145.102 170.8 144.602C171 144.202 171.4 144.602 171.6 144.302C171.8 144.102 172.1 143.902 172.5 144.002C172.8 144.002 173.1 144.202 173.2 144.002C173.2 143.902 173.2 143.502 173.4 143.502C173.5 143.502 173.8 143.702 173.7 143.002C173.7 143.002 173.7 143.002 173.9 143.002C174.2 143.302 174.4 143.202 174.4 143.002C174.4 142.702 174.5 142.702 174.6 142.602C174.9 142.502 175.2 142.302 175.5 142.302C175.7 142.302 176 142.302 176.3 142.302C176.5 142.302 176.7 141.902 177 142.102C177.3 142.302 177.5 142.202 177.7 142.102C177.8 142.102 178.1 142.302 177.9 141.602C178.5 142.302 178.5 141.102 178.9 141.202C179.3 141.202 179.6 141.002 180 140.902C180 140.902 180.3 141.002 180.2 140.502C180.2 140.302 180.2 140.302 180.4 140.402C180.9 140.902 181 140.402 181.3 140.402C181.6 140.402 181.9 140.002 182.3 140.402C182.5 140.602 182.7 140.602 182.7 140.002C182.7 139.702 182.9 140.002 183 139.802C183 139.802 183 139.402 183.2 139.402C183.2 139.402 183.4 139.602 183.5 139.702C183.8 138.902 184.5 139.702 184.9 139.302C185.3 139.002 185.8 138.902 186.3 138.902C186.6 138.902 186.9 138.902 187.4 140.002C187.6 140.502 187.8 141.002 187.7 141.402C187.7 141.702 187.7 141.902 187.6 142.002C187.5 142.102 187.4 142.302 187.3 142.402C187.1 142.702 186.9 143.302 186.6 143.102C186.5 143.102 186.5 143.402 186.2 142.902C186 143.802 185.5 143.402 185.1 143.602C184.8 143.802 184.6 144.502 184.2 144.302C184.2 145.002 184 144.902 183.7 144.802C182.8 144.402 182.3 145.002 181.6 145.202C180.9 145.302 180.3 145.702 179.6 145.902C179.5 145.902 179.6 146.302 179.3 146.102C179.1 145.902 179 146.102 178.8 146.202C178.7 146.202 178.6 146.402 178.4 146.302C177.6 145.902 177.3 146.502 176.7 146.602C176.2 146.702 175.6 146.902 175.2 147.302C174.9 147.502 174.8 148.002 174.4 148.002C174.2 148.002 174.2 148.402 173.9 147.902C173.8 147.802 173.9 148.202 173.8 148.302C173.6 148.402 173.4 148.502 173.2 148.602C172.9 148.702 172.6 148.802 172.3 149.002C172.1 149.102 172.1 149.402 171.9 149.602C171.7 149.702 171.6 149.802 171.3 149.902C171 149.902 170.7 149.902 170.4 149.902C170.1 149.902 170 150.302 169.6 150.202C168.9 150.002 168.6 150.402 168.2 150.602C167.7 150.802 167.3 150.902 166.9 151.302C166.7 151.502 166.2 151.202 166 151.302C165.9 151.302 165.1 150.102 164.9 149.702V149.502C164.9 149.002 164.8 148.202 165.1 148.102C165.5 148.002 165.9 147.702 166.3 147.502L166.1 147.302Z" fill="black"/>
<path d="M168.6 166.202C168.6 165.902 168.5 165.502 168.3 165.202C168.3 165.102 168.5 164.902 167.9 164.902C167.6 164.902 168.2 164.602 168.2 164.502C168.1 164.202 168.1 163.902 167.9 163.602C167.8 163.302 167.5 163.102 167.3 162.802C167.2 162.502 167.3 162.102 167 161.902C166.7 161.702 167.1 161.402 167 161.202C166.8 161.002 166.7 160.702 166.8 160.402C166.9 160.202 167.1 160.002 166.9 159.802C166.9 159.802 166.5 159.702 166.5 159.602C166.5 159.502 166.7 159.302 166.1 159.302C166.1 159.302 166.1 159.302 166.2 159.202C166.6 159.002 166.5 158.802 166.2 158.802C165.9 158.802 165.9 158.702 165.9 158.602C165.9 158.402 165.7 158.102 165.7 157.902C165.7 157.702 165.9 157.502 165.9 157.302C165.9 157.102 165.6 157.002 165.9 156.702C166.2 156.402 166.1 156.302 166 156.102C166 156.102 166.2 155.802 165.6 155.902C166.3 155.402 165.2 155.402 165.3 155.102C165.4 154.802 165.3 154.502 165.1 154.202C165.1 154.202 165.2 154.002 164.8 154.002C164.6 154.002 164.6 154.002 164.7 153.902C165.2 153.502 164.8 153.402 164.9 153.102C164.9 152.802 164.6 152.602 164.9 152.202C165.1 152.002 165.1 151.902 164.5 151.902C164.2 151.902 164.5 151.702 164.4 151.602C164.4 151.602 164 151.602 164 151.502C164 151.502 164.2 151.302 164.3 151.202C163.6 151.002 164.3 150.402 164 150.102C163.7 149.802 163.7 149.402 163.6 149.002C163.6 148.802 163.6 148.502 164.7 148.002C165.2 147.802 165.7 147.602 166 147.602C166.2 147.602 166.5 147.602 166.6 147.602C166.7 147.602 166.9 147.802 167 147.902C167.3 148.102 167.9 148.202 167.7 148.502C167.7 148.602 168 148.602 167.5 148.802C168.4 148.902 168 149.402 168.1 149.802C168.2 150.102 168.9 150.202 168.7 150.602C169.4 150.602 169.3 150.802 169.2 151.002C168.7 151.802 169.3 152.202 169.4 152.902C169.4 153.502 169.7 154.102 169.8 154.702C169.8 154.802 170.2 154.802 170 155.002C169.8 155.202 170 155.302 170 155.402C170 155.502 170.2 155.602 170 155.802C169.5 156.402 170 156.802 170 157.302C170 157.802 170 158.302 170.4 158.702C170.6 159.002 171 159.202 170.9 159.502C170.9 159.602 171.2 159.702 170.7 159.902C170.5 159.902 171 159.902 171.1 160.102C171.1 160.302 171.2 160.502 171.3 160.702C171.3 161.002 171.3 161.302 171.5 161.502C171.5 161.702 171.9 161.802 172 161.902C172.1 162.102 172.1 162.202 172.1 162.402C172.1 162.602 171.9 162.902 171.9 163.102C171.9 163.302 172.2 163.502 172 163.802C171.6 164.302 172 164.702 172 165.102C172 165.502 172.1 165.902 172.3 166.302C172.4 166.502 172 166.802 172.1 167.102C172.1 167.102 170.7 167.702 170.2 167.802H170C169.5 167.802 168.7 167.802 168.7 167.402C168.7 167.002 168.5 166.702 168.4 166.302L168.6 166.202Z" fill="black"/>
<path d="M162.2 186.203C162.3 185.803 162.5 185.403 162.5 185.003C162.5 184.803 162.8 184.803 162.4 184.503C162.2 184.303 162.8 184.403 162.8 184.203C162.8 183.803 163.1 183.503 163.1 183.103C163.1 182.703 163.1 182.303 163.1 181.903C163.1 181.503 163.6 181.303 163.4 180.803C163.2 180.403 163.8 180.303 163.8 180.003C163.8 179.703 163.8 179.303 164.1 179.103C164.3 178.903 164.6 178.803 164.6 178.603C164.6 178.403 164.3 178.203 164.4 178.103C164.4 178.003 164.8 177.903 164.2 177.603C164.2 177.603 164.2 177.603 164.4 177.603C164.8 177.603 164.9 177.403 164.6 177.203C164.4 177.003 164.5 176.903 164.5 176.803C164.5 176.503 164.6 176.203 164.8 175.903C164.9 175.703 165.2 175.603 165.4 175.403C165.5 175.203 165.4 174.903 165.7 174.703C166.1 174.603 166.1 174.403 166.2 174.203C166.2 174.103 166.6 174.003 166 173.703C166.9 173.703 166 173.003 166.3 172.703C166.6 172.403 166.6 172.003 166.7 171.703C166.7 171.703 166.9 171.603 166.5 171.303C166.4 171.303 166.4 171.103 166.5 171.103C167.2 171.103 166.9 170.603 167.1 170.403C167.3 170.103 167.1 169.703 167.7 169.603C167.9 169.603 168.1 169.403 167.6 169.103C167.4 168.903 167.6 168.903 167.6 168.803C167.6 168.703 167.3 168.503 167.4 168.403C167.4 168.403 167.7 168.403 167.8 168.303C167.3 167.703 168.3 167.503 168.2 167.003C168.2 166.703 168.2 166.603 168.2 166.303C168.2 166.003 168.4 165.703 168.6 165.303C168.8 164.903 169.3 164.503 170.4 165.103C170.9 165.303 171.3 165.703 171.5 166.003C171.6 166.203 171.8 166.403 171.8 166.503C171.8 166.603 171.9 166.803 172 166.903C172.1 167.103 172.6 167.403 172.2 167.703C172.1 167.703 172.3 168.003 171.8 167.903C172.5 168.503 171.8 168.903 171.8 169.303C171.8 169.703 172.2 170.203 171.8 170.503C172.3 170.903 172.2 171.103 171.9 171.203C171 171.703 171.2 172.503 170.9 173.203C170.6 173.903 170.4 174.603 170.1 175.303C170.1 175.403 170.4 175.603 170.1 175.703C169.8 175.703 169.9 176.003 169.9 176.103C169.9 176.203 169.9 176.403 169.7 176.503C168.9 176.803 169.1 177.503 168.8 178.003C168.5 178.503 168.3 179.003 168.3 179.603C168.3 180.003 168.5 180.403 168.3 180.703C168.2 180.803 168.5 181.103 167.9 181.003C167.7 181.003 168.1 181.303 168.1 181.403C168.1 181.603 168 181.903 167.9 182.103C167.8 182.403 167.6 182.703 167.6 183.103C167.6 183.303 167.7 183.603 167.7 183.803C167.7 184.003 167.7 184.203 167.5 184.403C167.3 184.603 167.1 184.803 166.9 185.103C166.8 185.303 166.9 185.703 166.6 185.903C166 186.203 166.1 186.803 165.9 187.203C165.7 187.603 165.5 188.103 165.5 188.603C165.5 188.903 165 189.003 164.9 189.203C164.9 189.303 163.4 189.203 162.9 189.003H162.7C162.3 188.603 161.7 188.203 161.8 187.903C162 187.403 162.1 187.003 162.2 186.503V186.203Z" fill="black"/>
<path d="M160.5 166.101C160.3 166.201 160 166.301 159.8 166.401C159.8 166.401 159.5 166.301 159.7 166.801C159.7 167.101 159.4 166.501 159.4 166.601C159.2 166.801 159 166.801 158.8 166.901C158.6 167.001 158.5 167.301 158.3 167.501C158.1 167.601 157.8 167.501 157.7 167.801C157.7 168.101 157.3 167.801 157.2 167.801C157.1 168.001 156.9 168.101 156.7 168.001C156.5 167.901 156.3 167.701 156.2 167.901C156.2 167.901 156.2 168.301 156.1 168.301C156.1 168.301 155.8 168.101 156 168.701C156 168.701 156 168.701 155.9 168.601C155.7 168.201 155.6 168.301 155.6 168.601C155.6 168.901 155.6 168.901 155.5 168.901C155.3 168.901 155.2 169.101 155 169.101C154.8 169.101 154.6 168.901 154.5 168.901C154.3 168.901 154.3 169.201 154.1 168.901C153.9 168.601 153.8 168.701 153.6 168.701C153.6 168.701 153.4 168.501 153.5 169.101C153.1 168.401 153.2 169.501 152.9 169.301C152.6 169.201 152.4 169.301 152.2 169.401C152.2 169.401 152 169.301 152.1 169.701C152.1 169.901 152.1 169.901 152.1 169.701C151.8 169.101 151.7 169.501 151.5 169.501C151.3 169.501 151.1 169.801 150.8 169.301C150.7 169.101 150.5 169.001 150.6 169.601C150.6 169.901 150.5 169.601 150.4 169.701C150.4 169.701 150.4 170.001 150.3 170.101C150.3 170.101 150.2 169.901 150.1 169.801C149.9 170.501 149.5 169.701 149.2 169.901C148.9 170.101 148.6 170.101 148.3 170.101C148.1 170.101 147.9 169.901 147.6 168.801C147.5 168.301 147.4 167.801 147.4 167.401C147.4 167.201 147.4 166.901 147.4 166.901C147.4 166.801 147.5 166.601 147.6 166.501C147.7 166.301 147.8 165.701 148 166.001C148 166.001 148 165.801 148.2 166.301C148.2 165.501 148.6 165.901 148.9 165.801C149.1 165.801 149.2 165.101 149.4 165.301C149.4 164.701 149.5 164.701 149.7 164.901C150.2 165.501 150.5 164.901 151 164.901C151.4 164.901 151.8 164.701 152.2 164.601C152.2 164.601 152.2 164.201 152.4 164.501C152.5 164.701 152.6 164.501 152.7 164.501C152.7 164.501 152.8 164.301 152.9 164.501C153.4 165.001 153.6 164.501 153.9 164.501C154.2 164.501 154.6 164.501 154.8 164.201C155 164.001 155 163.601 155.2 163.701C155.2 163.701 155.2 163.401 155.5 163.901C155.5 164.001 155.5 163.601 155.5 163.601C155.6 163.601 155.7 163.501 155.9 163.401C156.1 163.401 156.3 163.401 156.4 163.201C156.4 163.201 156.5 162.901 156.6 162.801C156.6 162.701 156.8 162.701 156.9 162.701C157.1 162.701 157.3 162.801 157.5 162.801C157.7 162.801 157.7 162.501 158 162.701C158.5 163.001 158.6 162.701 158.9 162.701C159.2 162.701 159.5 162.601 159.6 162.301C159.7 162.201 160.1 162.601 160.2 162.501C160.2 162.501 161 163.701 161.2 164.201V164.401C161.2 164.901 161.5 165.601 161.2 165.601C160.9 165.601 160.7 165.801 160.4 166.001L160.5 166.101Z" fill="black"/>
<path d="M162 126.8C161.6 126.9 161.2 127 160.8 127.1C160.7 127.1 160.4 126.9 160.4 127.5C160.4 127.8 160.1 127.2 160 127.3C159.6 127.5 159.2 127.4 158.9 127.6C158.5 127.7 158.2 128 157.9 128.2C157.5 128.3 157.1 128.2 156.8 128.5C156.5 128.8 156.2 128.4 155.9 128.5C155.6 128.7 155.3 128.8 155 128.6C154.7 128.5 154.5 128.3 154.3 128.5C154.2 128.5 154.1 128.9 154 128.9C153.9 128.9 153.7 128.7 153.7 129.3C153.7 129.3 153.7 129.3 153.6 129.2C153.4 128.8 153.2 128.9 153.1 129.2C153.1 129.5 152.9 129.5 152.8 129.5C152.5 129.6 152.2 129.7 151.9 129.7C151.7 129.7 151.4 129.5 151.2 129.5C151 129.5 150.8 129.8 150.5 129.5C150.2 129.3 150 129.3 149.8 129.4C149.7 129.4 149.5 129.2 149.5 129.8C148.9 129.1 148.9 130.2 148.5 130.1C148.1 130.1 147.8 130.3 147.5 130.4C147.5 130.4 147.3 130.4 147.3 130.8C147.3 131 147.3 131 147.2 130.9C146.7 130.4 146.6 130.9 146.3 130.9C146 130.9 145.8 131.3 145.3 130.9C145.1 130.8 144.9 130.7 145 131.3C145 131.6 144.8 131.3 144.7 131.5V131.9C144.7 131.9 144.5 131.8 144.3 131.7C144.3 132.5 143.5 131.9 143.2 132.3C142.9 132.7 142.6 132.9 142.2 133.1C142 133.2 141.7 133.2 140.8 132.5C140.4 132.2 140 131.7 139.9 131.4C139.9 131.2 139.7 130.9 139.8 130.8C139.8 130.6 139.9 130.4 140 130.2C140.1 129.8 140.1 129.2 140.6 129.2C140.7 129.2 140.6 128.9 141 129.2H141.1C141.1 128.3 141.8 128.4 142.1 128.2C142.4 128 142.5 127.2 143 127.3C143 126.6 143.2 126.6 143.5 126.7C144.5 127 145.1 126.2 145.9 126.1C146.7 125.9 147.4 125.6 148.2 125.4C148.3 125.4 148.3 125 148.6 125.2C148.8 125.4 148.9 125.2 149.1 125.2C149.3 125.2 149.4 125 149.6 125.2C150.4 125.7 150.9 125.2 151.5 125.1C152.1 125.1 152.7 125 153.3 124.7C153.6 124.5 153.9 124.1 154.3 124.2C154.5 124.2 154.6 123.9 154.8 124.4C154.8 124.6 154.9 124.1 155 124C155.2 124 155.5 123.9 155.7 123.8C156 123.8 156.4 123.8 156.7 123.6C156.9 123.6 157 123.2 157.2 123.1C157.4 123 157.6 123 157.8 123C158.1 123 158.4 123.2 158.7 123.2C159 123.2 159.2 122.9 159.5 123.1C160.1 123.5 160.5 123.1 161 123.1C161.5 123.1 162 122.9 162.4 122.7C162.6 122.6 163 123 163.3 122.9C163.4 122.9 164.1 124.2 164.2 124.7V124.9C164.1 125.4 164.1 126.2 163.7 126.3C163.2 126.3 162.8 126.6 162.3 126.7L162 126.8Z" fill="black"/>
<path d="M147.8 142.5C147.8 142.4 147.8 142.2 147.8 142.1C147.8 142.1 148 142 147.5 142.1C147.2 142.1 147.9 142 147.8 141.9C147.8 141.8 147.8 141.7 147.7 141.6C147.7 141.5 147.4 141.4 147.3 141.3C147.3 141.3 147.5 141 147.1 141C146.8 141 147.3 140.8 147.1 140.7C147 140.7 146.9 140.6 147.1 140.4C147.2 140.3 147.4 140.2 147.3 140.1H146.9C146.9 140.1 147.2 139.9 146.5 140.1C146.5 140.1 146.5 140.1 146.6 140.1C147 139.9 146.9 139.9 146.6 139.9C146.3 139.9 146.4 139.9 146.3 139.9C146.3 139.9 146.2 139.7 146.3 139.6C146.3 139.6 146.5 139.4 146.6 139.3C146.6 139.3 146.3 139.3 146.6 139.1C146.9 138.9 146.8 138.9 146.8 138.8C146.8 138.8 147 138.6 146.4 138.8C147.2 138.4 146.1 138.7 146.2 138.5C146.4 138.3 146.2 138.3 146.2 138.2C146.2 138.2 146.3 138.1 145.9 138.2C145.7 138.2 145.7 138.2 145.9 138.2C146.5 137.9 146.1 137.9 146.1 137.8C146.1 137.7 145.9 137.7 146.3 137.4C146.5 137.3 146.6 137.2 146 137.4H145.7C145.7 137.4 145.9 137.3 146 137.2C145.3 137.3 146 136.8 145.9 136.8C145.7 136.8 145.7 136.6 145.7 136.4C145.7 136.4 145.8 136.1 146.9 135.6C147.4 135.4 147.9 135.1 148.2 135C148.4 135 148.6 134.9 148.7 134.9C148.8 134.9 149 134.9 149.1 134.9C149.3 134.9 149.9 134.8 149.6 135C149.6 135 149.8 135 149.4 135.2C150.2 135 149.8 135.4 149.9 135.5C149.9 135.6 150.6 135.5 150.4 135.7C151 135.5 150.9 135.7 150.8 135.7C150.3 136.2 150.8 136.3 150.8 136.6C150.8 136.9 151 137.1 151 137.4C151 137.4 151.4 137.4 151.1 137.5C150.9 137.6 151.1 137.6 151.1 137.7C151.1 137.7 151.3 137.7 151.1 137.9C150.5 138.3 151 138.4 151 138.6C151 138.8 151 139 151.2 139.2C151.3 139.2 151.7 139.3 151.6 139.5C151.6 139.5 151.9 139.5 151.3 139.7C151.1 139.7 151.6 139.7 151.6 139.7C151.6 139.7 151.6 139.9 151.6 140C151.6 140.1 151.6 140.2 151.6 140.4C151.6 140.4 151.9 140.4 152 140.5C152 140.5 152 140.6 152 140.7C152 140.8 151.8 141 151.7 141.1C151.7 141.2 151.9 141.3 151.7 141.4C151.2 141.7 151.5 141.8 151.5 142C151.5 142.2 151.5 142.4 151.6 142.5L151.2 142.8C151.2 142.8 149.8 143.1 149.3 143.1H149.1C148.6 143.1 147.9 143.1 147.9 143C147.9 142.8 147.9 142.7 147.9 142.6L147.8 142.5Z" fill="black"/>
<path d="M157.1 137.802C157.1 137.802 157.1 137.602 157.1 137.502C157.1 137.502 157.3 137.402 156.8 137.502C156.5 137.502 157.2 137.402 157.1 137.402C157.1 137.402 157.1 137.202 157.1 137.102C157.1 137.102 156.8 137.002 156.7 136.902C156.7 136.902 156.9 136.702 156.6 136.702C156.3 136.702 156.8 136.502 156.6 136.502C156.5 136.502 156.4 136.402 156.6 136.302C156.8 136.302 157 136.102 156.8 136.102H156.4C156.4 136.102 156.7 136.002 156.1 136.102C156.1 136.102 156.1 136.102 156.2 136.102C156.6 136.002 156.6 135.902 156.2 136.002C155.9 136.002 156 136.002 155.9 136.002C155.9 136.002 155.9 135.902 155.9 135.802L156.2 135.602C156.2 135.602 156 135.602 156.2 135.402C156.5 135.302 156.5 135.202 156.4 135.202C156.4 135.202 156.7 135.102 156 135.202C156.8 134.902 155.7 135.202 155.9 135.002C156.1 134.902 155.9 134.802 155.9 134.702C155.9 134.702 156.1 134.702 155.6 134.702C155.4 134.702 155.4 134.702 155.6 134.702C156.2 134.502 155.8 134.502 155.9 134.402C155.9 134.302 155.7 134.402 156.1 134.102C156.3 134.102 156.4 133.902 155.8 134.102H155.5C155.5 134.102 155.7 134.002 155.8 133.902C155.1 134.002 155.9 133.602 155.8 133.602C155.6 133.602 155.6 133.402 155.7 133.302C155.7 133.302 155.9 133.102 156.9 132.702C157.4 132.502 157.9 132.302 158.2 132.202C158.4 132.202 158.7 132.102 158.7 132.102C158.8 132.102 158.9 132.102 159 132.102C159.2 132.102 159.7 132.102 159.5 132.102C159.5 132.102 159.7 132.102 159.2 132.302C160 132.202 159.5 132.402 159.6 132.502C159.6 132.502 160.3 132.502 160.1 132.702C160.7 132.602 160.6 132.702 160.5 132.702C159.9 133.102 160.5 133.202 160.4 133.402C160.4 133.602 160.5 133.802 160.5 134.002C160.3 134.102 160.5 134.102 160.5 134.102C160.5 134.102 160.7 134.102 160.5 134.202C159.9 134.502 160.3 134.602 160.3 134.802C160.3 135.002 160.3 135.102 160.4 135.302C160.5 135.302 160.9 135.302 160.8 135.502C160.8 135.502 161.1 135.502 160.5 135.702C160.3 135.702 160.8 135.702 160.8 135.702C160.8 135.702 160.8 135.802 160.8 135.902C160.8 135.902 160.8 136.102 160.8 136.202C160.8 136.202 161.1 136.202 161.2 136.302C161.2 136.302 161.2 136.402 161.2 136.502C161.2 136.502 160.9 136.702 160.9 136.802C160.9 136.802 161.1 136.902 160.9 137.002C160.4 137.202 160.7 137.302 160.7 137.502C160.7 137.602 160.7 137.802 160.7 137.902C160.7 137.902 160.3 138.102 160.3 138.202C160.3 138.202 159.9 138.202 159.5 138.302C159.1 138.402 158.6 138.402 158.3 138.402H158.1C157.6 138.402 156.9 138.402 156.9 138.402C156.9 138.302 156.9 138.202 156.9 138.102L157.1 137.802Z" fill="black"/>
<path d="M153.2 193.401C151.4 193.601 149.6 193.601 147.8 193.701C147.1 193.701 146.4 193.501 145.7 194.001C145.4 194.301 144.7 193.601 144.1 193.701C142.4 193.701 140.7 193.701 139 193.601C137.4 193.601 135.7 193.601 134.1 193.601C133.7 193.601 133.3 193.601 132.9 193.501C132.5 193.501 132 193.401 131.2 193.101C129.8 192.701 128.7 191.701 128.1 190.401C128 190.101 127.9 189.801 127.8 189.501C127.8 189.301 127.8 189.201 127.8 189.001V188.701C127.8 188.301 127.8 188.001 127.8 187.701C127.8 187.001 127.9 186.401 127.8 185.701C127.7 184.301 127.6 182.901 127.8 181.501C128 180.501 128.3 179.601 128.2 178.601C128.2 178.001 127.9 177.401 128 176.701C128 176.101 128.4 175.401 127.8 174.801C127.8 174.801 127.8 174.501 128 174.401C128.5 173.801 128.5 173.001 128.3 172.401C128.1 171.801 128.2 171.401 128.3 170.901C128.4 169.501 128.6 168.201 128.8 166.801C129 165.801 129.3 164.801 129.5 163.801C129.7 162.801 129.5 161.701 129.9 160.801C130.3 159.901 130.3 159.001 130.2 158.101C130.2 157.601 130.4 157.001 129.7 156.701C129.7 156.701 129.7 156.501 129.7 156.401C130 155.701 129.7 155.001 129.4 154.401C129.1 153.801 128.6 153.401 128.4 152.801C127.9 151.601 126.8 150.701 125.8 150.101C125.5 150.001 125.3 149.601 124.9 150.001C124.8 150.101 124.5 150.001 124.4 150.001C124.1 149.601 123.7 149.501 123.2 149.501C122.8 149.501 122.4 149.701 121.9 149.801C120.8 150.001 120 150.901 118.8 151.301C118.3 151.501 117.6 152.001 117.7 152.801C117.7 153.201 117.2 153.501 117.1 153.701C117.1 153.801 117.1 153.901 117.1 154.001H117.2C117.2 154.001 117 154.001 116.9 154.101C116.9 154.101 116.9 154.101 116.9 154.201C117.2 154.401 117.5 154.901 117.7 155.301C118 155.701 118.2 156.201 118.4 156.601C118.8 157.501 119.2 158.401 119.9 159.001C121.2 160.301 122.5 161.401 124.1 162.101C124.9 162.501 125.7 162.801 126.4 163.901C126.7 164.401 126.8 165.001 126.3 165.301C125.9 165.501 125.4 165.701 124.9 165.701C124.1 165.701 123.4 165.601 122.6 165.401C121.1 165.001 119.5 164.601 118.4 163.301C118.1 162.901 117.5 162.701 117.6 162.101C117.6 162.101 117.6 161.801 117.4 161.801C115.4 160.801 114.7 158.601 113.7 156.901C113.5 156.501 113.2 156.201 113 155.701C112.7 155.101 112.5 154.401 112.5 153.701C112.5 153.001 112.7 152.201 113 151.701C113.3 151.101 113.6 150.701 114 150.401C114.2 149.201 115.1 148.301 116.1 147.801C117.8 146.801 119.4 145.901 121.5 145.401C123.5 144.901 125.8 145.101 127.7 146.001C129.6 147.001 131 148.401 132.1 150.001C133.2 151.601 133.9 153.501 134.2 155.301C134.3 155.901 134.7 156.401 134.5 157.201C134.3 157.901 134.5 158.801 134.5 159.501C134.5 160.201 134.5 160.901 134.4 161.601C133.5 164.201 133.5 166.801 133.2 169.301C132.8 171.801 132.5 174.301 132.4 176.801C132.4 178.301 132.6 179.901 132.4 181.401C132.4 182.001 132.6 182.701 132 183.401C131.8 183.601 132.3 184.201 132.3 184.601C132.3 185.601 132.3 186.701 132.3 187.701C132.3 188.001 132.3 188.501 132.3 188.601C132.3 188.601 132.3 188.701 132.3 188.801C132.3 188.901 132.5 189.001 132.6 189.001C132.8 189.001 133.3 189.001 133.8 189.001C134.2 189.001 134.7 189.001 135.1 189.001C136 189.001 136.9 189.101 137.9 189.201C139.1 189.401 140.2 189.601 141.4 189.701C142.6 189.801 143.9 189.501 145 189.801C147.2 190.301 149.3 190.001 151.5 189.801C153.6 189.801 155.8 189.501 157.9 189.101C158.5 189.001 159.1 189.001 159.7 189.101C160.3 189.101 160.8 189.101 161.1 189.101C161.2 189.101 161.5 189.301 161.9 189.501C162.3 189.701 162.8 189.901 162.9 190.101C162.9 190.201 162.9 190.401 162.9 190.501C162.4 191.201 161.7 191.801 161.1 192.101C160.4 192.501 159.9 192.701 159.2 192.801C157.2 193.001 155.1 193.301 153.1 193.501L153.2 193.401Z" fill="black"/>
<path d="M165.1 153.599C164.7 153.799 164.2 153.999 163.8 154.299C163.6 154.399 163.4 154.299 163.4 154.799C163.4 155.099 163 154.599 162.8 154.799C162.4 155.099 162 155.199 161.6 155.499C161.2 155.799 161 156.199 160.6 156.499C160.3 156.799 159.7 156.799 159.5 157.299C159.4 157.699 158.8 157.499 158.6 157.799C158.6 157.799 158.5 157.999 158.4 157.999C158.4 157.999 158.1 158.199 158 158.299C157.7 158.499 157.4 158.699 157 158.699C156.5 158.699 156 158.599 155.5 158.699C155.2 158.699 154.9 158.999 154.6 158.899C154.5 158.899 154.2 158.699 154.2 158.699C154.2 158.699 154 158.699 153.9 158.999C153.9 158.999 153.9 158.999 153.9 158.799C153.9 158.399 153.6 158.299 153.4 158.599C153.2 158.799 153.1 158.799 152.9 158.699C152.5 158.699 152.1 158.599 151.8 158.399C151.5 158.299 151.3 157.999 151 157.899C150.7 157.799 150.3 157.899 150.1 157.599C149.9 157.199 149.6 157.199 149.3 157.199C149.1 157.199 149 156.899 148.8 157.499C148.5 156.599 147.9 157.599 147.5 157.299C147.1 156.999 146.6 157.099 146.1 156.999C146 156.999 145.9 156.799 145.7 157.199C145.7 157.399 145.5 157.399 145.5 157.199C145.2 156.499 144.8 156.899 144.5 156.699C144.1 156.499 143.7 156.699 143.3 156.199C143.2 155.999 142.9 155.799 142.6 156.399C142.5 156.699 142.3 156.399 142.1 156.399C142 156.399 141.8 156.699 141.7 156.699C141.6 156.699 141.5 156.499 141.4 156.299C141.4 156.299 141.4 156.299 141.3 156.299C140.6 156.899 140.1 155.999 139.5 156.099C138.9 156.199 138.3 156.099 137.7 155.999C137.7 155.999 137.7 155.999 137.6 155.999V154.799V154.899C137.6 154.899 137.6 154.799 137.6 154.599C137.6 154.399 137.5 154.299 137.4 154.199H137.2C137 154.199 136.7 154.199 136.6 153.999C136.5 153.499 136.8 153.099 137 152.899C137.2 152.799 137.4 152.699 137.6 152.599C137.8 152.599 137.9 152.499 138 152.499C138.4 152.299 138.9 151.799 139.2 152.099C139.3 152.099 139.5 151.899 139.6 152.399C140.2 151.699 140.8 152.199 141.3 152.199C141.8 152.199 142.3 151.599 142.8 151.899C143.1 151.299 143.4 151.399 143.7 151.699C144.6 152.499 145.6 152.199 146.5 152.399C147.4 152.599 148.4 152.699 149.4 152.899C149.6 152.899 149.8 152.599 149.9 152.899C150 153.199 150.3 152.999 150.5 153.099C150.7 153.099 150.9 153.099 151.1 153.199C151.7 153.999 152.5 153.799 153.3 153.999C153.7 154.099 154 154.199 154.4 154.299C154.6 154.299 154.8 154.299 155 154.399H155.3H155.4C155.6 154.399 155.6 153.999 155.7 154.099C155.7 154.099 155.7 153.799 155.9 154.299C156 154.399 155.8 153.999 155.9 153.999C156.1 153.799 156.4 153.599 156.7 153.399C157.1 153.099 157.5 152.899 157.8 152.599C158 152.399 158.1 152.099 158.3 151.899C158.5 151.699 158.8 151.499 159 151.399C159.4 151.299 159.8 151.299 160.1 151.099C160.5 150.999 160.7 150.499 161.1 150.599C161.9 150.699 162.4 150.199 163 149.899C163.6 149.599 164.2 149.399 164.8 148.999C165.1 148.799 165.6 148.999 166 148.999C166.2 148.999 166.9 150.199 167.1 150.699V150.899C167 151.499 167 152.199 166.6 152.399C166.1 152.599 165.6 152.899 165.1 153.099V153.599Z" fill="black"/>
</svg>
