<svg width="300" height="300" viewBox="0 0 300 300" fill="none" xmlns="http://www.w3.org/2000/svg">
<path d="M176.6 132.902C174.9 131.102 173.2 129.202 171.5 127.402C170.8 126.702 170.4 125.902 169.3 125.502C168.8 125.302 168.6 124.202 168 123.602C166.4 121.902 164.8 120.202 163.2 118.502C161.6 116.902 160 115.702 158.4 115.202C156.8 114.602 154.7 114.102 152.5 114.402C150.7 114.602 149 114.102 147.3 114.302C145.4 114.502 143.5 114.702 141.7 114.602C140.4 114.602 139 114.502 137.7 114.802C136.9 115.002 136.2 115.402 135.3 115.502C134.5 115.602 133.5 115.502 132.9 116.302C132.9 116.302 132.5 116.302 132.3 116.302C131.3 116.102 130.3 116.302 129.6 116.802C129 117.202 128.3 117.402 127.7 117.502C125.9 118.002 124.1 118.502 122.5 119.102C121.3 119.502 120.1 119.902 119.1 120.502C118 121.202 117.5 122.302 116.7 123.102C115.9 123.902 115.5 125.002 115.2 126.202C115 126.902 114.6 127.602 115.2 128.302C115.2 128.302 115.2 128.602 115.2 128.702C114.1 130.702 115.2 132.902 115 135.002C114.8 137.302 115 139.602 115 141.902C115 142.502 114.9 143.202 115.4 143.702C115.6 143.902 115.6 144.502 115.5 144.802C115 146.502 115.5 148.302 115.5 150.102C115.5 152.102 116.1 154.102 115.8 156.102C115.7 157.002 115.8 158.102 116.4 159.102C116.7 159.502 116.6 160.502 116.8 161.302C116.9 161.902 117.3 162.402 117.4 163.002C117.4 163.502 117.4 164.002 117.3 164.602C117.3 164.802 117.3 164.902 117.3 165.102C118.4 167.902 118 170.902 118.7 173.802C119.4 176.702 119.9 179.702 120.3 182.602C120.6 184.202 120.7 185.902 119.8 187.302C119.4 187.902 118.8 188.002 118.4 187.302C118.1 186.802 117.7 186.302 117.6 185.702C117.3 184.802 117 183.902 116.8 183.002C116.3 181.202 115.4 179.402 115.3 177.402C115.3 176.802 114.9 176.102 115.3 175.502C115.3 175.502 115.3 175.202 115.3 175.002C114.1 172.502 114.1 169.702 113.6 167.102C113.2 164.802 112.2 162.702 112.2 160.402C111.4 159.202 111.3 157.702 111.4 156.402C111.5 151.802 110.7 147.302 110.6 142.702C110.6 140.402 110.5 138.002 110.5 135.702C110.5 133.402 110.5 131.002 110.8 128.602C110.8 127.802 110.6 127.002 111.1 126.002C111.5 125.102 111.7 123.902 112.1 122.802C112.5 121.802 112.9 120.702 113.6 120.002C116.6 116.802 120.3 114.902 123.8 113.802C127.3 112.802 130.9 112.002 134.5 111.302C136.7 110.802 138.8 110.202 141.1 110.102C142.1 110.102 143 109.602 144 110.102C144.3 110.302 145.1 109.802 145.8 109.702C147.3 109.602 148.9 109.602 150.4 109.602C152.5 109.602 154.6 109.602 157 110.002C158.4 110.202 159.9 110.302 161.4 111.002C162.9 111.702 164.2 112.802 165.2 113.802C166.5 115.202 167.4 116.502 168.5 117.802C169.6 119.102 171.1 120.302 172 121.702C173.7 124.302 176.1 126.402 178.1 128.702C180.2 131.002 182.2 133.302 184.4 135.502C185.6 136.702 186.4 138.202 187.5 139.502C188 140.102 187.7 141.902 187.1 142.002C187 142.002 186.8 142.002 186.7 142.002C185.2 141.102 183.6 140.502 182.4 139.002C180.5 136.902 178.5 134.802 176.6 132.802V132.902Z" fill="black"/>
<path d="M166.101 147.302C166.501 147.102 166.801 147.002 167.201 146.702C167.301 146.702 167.601 146.702 167.501 146.202C167.501 145.902 167.901 146.402 168.001 146.402C168.301 146.202 168.701 146.102 169.001 145.902C169.301 145.702 169.501 145.302 169.801 145.102C170.101 144.902 170.601 145.102 170.801 144.602C171.001 144.202 171.401 144.602 171.601 144.302C171.801 144.102 172.101 143.902 172.501 144.002C172.801 144.002 173.101 144.202 173.201 144.002C173.201 143.902 173.201 143.502 173.401 143.502C173.501 143.502 173.801 143.702 173.701 143.002C173.701 143.002 173.701 143.002 173.901 143.002C174.201 143.302 174.401 143.202 174.401 143.002C174.401 142.702 174.501 142.702 174.601 142.602C174.901 142.502 175.201 142.302 175.501 142.302C175.701 142.302 176.001 142.302 176.301 142.302C176.501 142.302 176.701 141.902 177.001 142.102C177.301 142.302 177.501 142.202 177.701 142.102C177.801 142.102 178.101 142.302 177.901 141.602C178.501 142.302 178.501 141.102 178.901 141.202C179.301 141.202 179.601 141.002 180.001 140.902C180.001 140.902 180.301 141.002 180.201 140.502C180.201 140.302 180.201 140.302 180.401 140.402C180.901 140.902 181.001 140.402 181.301 140.402C181.601 140.402 181.901 140.002 182.301 140.402C182.501 140.602 182.701 140.602 182.701 140.002C182.701 139.702 182.901 140.002 183.001 139.802C183.001 139.802 183.001 139.402 183.201 139.402C183.201 139.402 183.401 139.602 183.501 139.702C183.801 138.902 184.501 139.702 184.901 139.302C185.301 139.002 185.801 138.902 186.301 138.902C186.601 138.902 186.901 138.902 187.401 140.002C187.601 140.502 187.801 141.002 187.701 141.402C187.701 141.702 187.701 141.902 187.601 142.002C187.501 142.102 187.401 142.302 187.301 142.402C187.101 142.702 186.901 143.302 186.601 143.102C186.501 143.102 186.501 143.402 186.201 142.902C186.001 143.802 185.501 143.402 185.101 143.602C184.801 143.802 184.601 144.502 184.201 144.302C184.201 145.002 184.001 144.902 183.701 144.802C182.801 144.402 182.301 145.002 181.601 145.202C180.901 145.302 180.301 145.702 179.601 145.902C179.501 145.902 179.601 146.302 179.301 146.102C179.101 145.902 179.001 146.102 178.801 146.202C178.701 146.202 178.601 146.402 178.401 146.302C177.601 145.902 177.301 146.502 176.701 146.602C176.201 146.702 175.601 146.902 175.201 147.302C174.901 147.502 174.801 148.002 174.401 148.002C174.201 148.002 174.201 148.402 173.901 147.902C173.801 147.802 173.901 148.202 173.801 148.302C173.601 148.402 173.401 148.502 173.201 148.602C172.901 148.702 172.601 148.802 172.301 149.002C172.101 149.102 172.101 149.402 171.901 149.602C171.701 149.702 171.601 149.802 171.301 149.902C171.001 149.902 170.701 149.902 170.401 149.902C170.101 149.902 170.001 150.302 169.601 150.202C168.901 150.002 168.601 150.402 168.201 150.602C167.701 150.802 167.301 150.902 166.901 151.302C166.701 151.502 166.201 151.202 166.001 151.302C165.901 151.302 165.101 150.102 164.901 149.702V149.502C164.901 149.002 164.801 148.202 165.101 148.102C165.501 148.002 165.901 147.702 166.301 147.502L166.101 147.302Z" fill="black"/>
<path d="M168.6 166.202C168.6 165.902 168.5 165.502 168.3 165.202C168.3 165.102 168.5 164.902 167.9 164.902C167.6 164.902 168.2 164.602 168.2 164.502C168.1 164.202 168.1 163.902 167.9 163.602C167.8 163.302 167.5 163.102 167.3 162.802C167.2 162.502 167.3 162.102 167 161.902C166.7 161.702 167.1 161.402 167 161.202C166.8 161.002 166.7 160.702 166.8 160.402C166.9 160.202 167.1 160.002 166.9 159.802C166.9 159.802 166.5 159.702 166.5 159.602C166.5 159.502 166.7 159.302 166.1 159.302C166.1 159.302 166.1 159.302 166.2 159.202C166.6 159.002 166.5 158.802 166.2 158.802C165.9 158.802 165.9 158.702 165.9 158.602C165.9 158.402 165.7 158.102 165.7 157.902C165.7 157.702 165.9 157.502 165.9 157.302C165.9 157.102 165.6 157.002 165.9 156.702C166.2 156.402 166.1 156.302 166 156.102C166 156.102 166.2 155.802 165.6 155.902C166.3 155.402 165.2 155.402 165.3 155.102C165.4 154.802 165.3 154.502 165.1 154.202C165.1 154.202 165.2 154.002 164.8 154.002C164.6 154.002 164.6 154.002 164.7 153.902C165.2 153.502 164.8 153.402 164.9 153.102C164.9 152.802 164.6 152.602 164.9 152.202C165.1 152.002 165.1 151.902 164.5 151.902C164.2 151.902 164.5 151.702 164.4 151.602C164.4 151.602 164 151.602 164 151.502C164 151.502 164.2 151.302 164.3 151.202C163.6 151.002 164.3 150.402 164 150.102C163.7 149.802 163.7 149.402 163.6 149.002C163.6 148.802 163.6 148.502 164.7 148.002C165.2 147.802 165.7 147.602 166 147.602C166.2 147.602 166.5 147.602 166.6 147.602C166.7 147.602 166.9 147.802 167 147.902C167.3 148.102 167.9 148.202 167.7 148.502C167.7 148.602 168 148.602 167.5 148.802C168.4 148.902 168 149.402 168.1 149.802C168.2 150.102 168.9 150.202 168.7 150.602C169.4 150.602 169.3 150.802 169.2 151.002C168.7 151.802 169.3 152.202 169.4 152.902C169.4 153.502 169.7 154.102 169.8 154.702C169.8 154.802 170.2 154.802 170 155.002C169.8 155.202 170 155.302 170 155.402C170 155.502 170.2 155.602 170 155.802C169.5 156.402 170 156.802 170 157.302C170 157.802 170 158.302 170.4 158.702C170.6 159.002 171 159.202 170.9 159.502C170.9 159.602 171.2 159.702 170.7 159.902C170.5 159.902 171 159.902 171.1 160.102C171.1 160.302 171.2 160.502 171.3 160.702C171.3 161.002 171.3 161.302 171.5 161.502C171.5 161.702 171.9 161.802 172 161.902C172.1 162.102 172.1 162.202 172.1 162.402C172.1 162.602 171.9 162.902 171.9 163.102C171.9 163.302 172.2 163.502 172 163.802C171.6 164.302 172 164.702 172 165.102C172 165.502 172.1 165.902 172.3 166.302C172.4 166.502 172 166.802 172.1 167.102C172.1 167.102 170.7 167.702 170.2 167.802H170C169.5 167.802 168.7 167.802 168.7 167.402C168.7 167.002 168.5 166.702 168.4 166.302L168.6 166.202Z" fill="black"/>
<path d="M162.2 186.203C162.3 185.803 162.5 185.403 162.5 185.003C162.5 184.803 162.8 184.803 162.4 184.503C162.2 184.303 162.8 184.403 162.8 184.203C162.8 183.803 163.1 183.503 163.1 183.103C163.1 182.703 163.1 182.303 163.1 181.903C163.1 181.503 163.6 181.303 163.4 180.803C163.2 180.403 163.8 180.303 163.8 180.003C163.8 179.703 163.8 179.303 164.1 179.103C164.3 178.903 164.6 178.803 164.6 178.603C164.6 178.403 164.3 178.203 164.4 178.103C164.4 178.003 164.8 177.903 164.2 177.603C164.2 177.603 164.2 177.603 164.4 177.603C164.8 177.603 164.9 177.403 164.6 177.203C164.4 177.003 164.5 176.903 164.5 176.803C164.5 176.503 164.6 176.203 164.8 175.903C164.9 175.703 165.2 175.603 165.4 175.403C165.5 175.203 165.4 174.903 165.7 174.703C166.1 174.603 166.1 174.403 166.2 174.203C166.2 174.103 166.6 174.003 166 173.703C166.9 173.703 166 173.003 166.3 172.703C166.6 172.403 166.6 172.003 166.7 171.703C166.7 171.703 166.9 171.603 166.5 171.303C166.4 171.303 166.4 171.103 166.5 171.103C167.2 171.103 166.9 170.603 167.1 170.403C167.3 170.103 167.1 169.703 167.7 169.603C167.9 169.603 168.1 169.403 167.6 169.103C167.4 168.903 167.6 168.903 167.6 168.803C167.6 168.703 167.3 168.503 167.4 168.403C167.4 168.403 167.7 168.403 167.8 168.303C167.3 167.703 168.3 167.503 168.2 167.003C168.2 166.703 168.2 166.603 168.2 166.303C168.2 166.003 168.4 165.703 168.6 165.303C168.8 164.903 169.3 164.503 170.4 165.103C170.9 165.303 171.3 165.703 171.5 166.003C171.6 166.203 171.8 166.403 171.8 166.503C171.8 166.603 171.9 166.803 172 166.903C172.1 167.103 172.6 167.403 172.2 167.703C172.1 167.703 172.3 168.003 171.8 167.903C172.5 168.503 171.8 168.903 171.8 169.303C171.8 169.703 172.2 170.203 171.8 170.503C172.3 170.903 172.2 171.103 171.9 171.203C171 171.703 171.2 172.503 170.9 173.203C170.6 173.903 170.4 174.603 170.1 175.303C170.1 175.403 170.4 175.603 170.1 175.703C169.8 175.703 169.9 176.003 169.9 176.103C169.9 176.203 169.9 176.403 169.7 176.503C168.9 176.803 169.1 177.503 168.8 178.003C168.5 178.503 168.3 179.003 168.3 179.603C168.3 180.003 168.5 180.403 168.3 180.703C168.2 180.803 168.5 181.103 167.9 181.003C167.7 181.003 168.1 181.303 168.1 181.403C168.1 181.603 168 181.903 167.9 182.103C167.8 182.403 167.6 182.703 167.6 183.103C167.6 183.303 167.7 183.603 167.7 183.803C167.7 184.003 167.7 184.203 167.5 184.403C167.3 184.603 167.1 184.803 166.9 185.103C166.8 185.303 166.9 185.703 166.6 185.903C166 186.203 166.1 186.803 165.9 187.203C165.7 187.603 165.5 188.103 165.5 188.603C165.5 188.903 165 189.003 164.9 189.203C164.9 189.303 163.4 189.203 162.9 189.003H162.7C162.3 188.603 161.7 188.203 161.8 187.903C162 187.403 162.1 187.003 162.2 186.503V186.203Z" fill="black"/>
<path d="M162.599 169.701C162.399 169.701 162.099 169.801 161.899 169.901C161.899 169.901 161.699 169.701 161.699 170.301C161.699 170.601 161.499 170.001 161.399 170.001C161.199 170.101 160.899 170.001 160.699 170.201C160.499 170.201 160.299 170.601 159.999 170.601C159.799 170.601 159.499 170.401 159.299 170.701C159.099 171.001 158.899 170.501 158.699 170.701C158.499 170.801 158.299 170.901 158.099 170.701C157.999 170.501 157.799 170.301 157.699 170.401C157.699 170.401 157.499 170.801 157.399 170.701C157.399 170.701 157.199 170.401 157.099 171.001C157.099 171.001 157.099 171.001 157.099 170.801C157.099 170.401 156.899 170.401 156.799 170.701C156.699 171.001 156.599 170.901 156.499 170.901C156.299 170.901 156.099 170.901 155.899 170.901C155.799 170.901 155.699 170.601 155.499 170.501C155.399 170.501 155.099 170.701 155.099 170.301C155.099 170.001 154.899 169.901 154.799 169.901C154.799 169.901 154.799 169.601 154.499 170.201C154.499 169.401 153.999 170.301 153.799 170.001C153.599 169.701 153.399 169.801 153.099 169.701C153.099 169.701 153.099 169.501 152.799 169.901C152.799 170.001 152.599 170.001 152.699 169.901C152.699 169.201 152.499 169.501 152.299 169.401C152.199 169.201 151.799 169.401 151.899 168.801C151.899 168.601 151.899 168.401 151.499 168.801C151.299 169.001 151.399 168.801 151.299 168.801L150.999 169.001C150.999 169.001 150.999 168.701 150.999 168.601C150.399 169.001 150.599 168.101 150.299 168.001C149.899 168.001 149.699 167.701 149.499 167.401C149.499 167.201 149.399 167.001 150.099 166.101C150.399 165.701 150.799 165.301 151.099 165.101C151.299 165.001 151.499 164.801 151.599 164.801C151.699 164.801 151.899 164.801 151.999 164.701C152.199 164.701 152.699 164.301 152.599 164.701C152.599 164.701 152.799 164.601 152.599 165.001C153.199 164.501 153.099 165.001 153.299 165.001C153.499 165.001 153.899 164.601 153.899 165.001C154.299 164.501 154.299 164.601 154.299 164.801C154.299 165.501 154.799 165.301 154.999 165.501C155.299 165.701 155.599 165.701 155.899 165.901C155.899 165.901 156.099 165.601 156.099 165.901C156.099 166.201 156.199 165.901 156.299 166.001H156.499C156.599 166.701 156.999 166.401 157.199 166.501C157.499 166.501 157.699 166.701 157.999 166.501C158.199 166.501 158.299 166.101 158.499 166.201C158.499 166.201 158.599 165.901 158.699 166.501C158.699 166.701 158.699 166.201 158.799 166.201C158.899 166.201 158.999 166.201 159.099 166.201C159.199 166.201 159.399 166.201 159.499 166.201C159.499 166.201 159.699 165.901 159.699 165.801C159.699 165.801 159.899 165.801 159.999 165.801C160.099 165.801 160.299 166.001 160.399 166.101C160.499 166.101 160.599 165.801 160.799 166.101C161.099 166.501 161.299 166.201 161.499 166.201C161.699 166.201 161.999 166.201 162.099 166.001C162.099 165.901 162.499 166.301 162.599 166.301C162.599 166.301 163.299 167.601 163.499 168.101V168.301C163.499 168.801 163.699 169.501 163.499 169.501C163.199 169.501 162.899 169.701 162.699 169.801L162.599 169.701Z" fill="black"/>
<path d="M148.5 139.402C148.8 139.902 149 140.302 149.4 140.802C149.5 141.002 149.4 141.302 150 141.202C150.3 141.202 149.8 141.602 150 141.802C150.3 142.202 150.5 142.702 150.8 143.102C151.1 143.502 151.6 143.802 151.9 144.202C152.2 144.602 152.2 145.202 152.7 145.402C153.2 145.602 152.9 146.202 153.2 146.402C153.5 146.702 153.8 147.002 153.8 147.502C153.8 147.802 153.8 148.202 154 148.402C154.2 148.502 154.5 148.402 154.6 148.702C154.6 148.902 154.6 149.202 155.2 149.002C155.2 149.002 155.2 149.102 155.2 149.202C155.2 149.202 155.2 149.402 155.1 149.502C155.1 149.502 155.1 149.502 155.3 149.502C155.5 149.302 155.5 149.302 155.5 149.302C155.5 149.402 155.5 149.602 155.5 149.702C155.5 149.702 155.5 149.702 155.6 149.702C155.6 149.802 155.8 149.902 155.8 149.902C155.8 149.902 156.1 149.902 156.2 149.802C156.4 149.802 156.6 149.902 156.6 149.302C156.6 149.302 156.6 149.302 156.7 149.302C157.4 149.902 157.6 148.702 158.1 148.802C158.7 148.802 159.1 148.602 159.6 148.402C159.7 148.402 159.9 148.402 159.9 148.002C159.9 147.802 160 147.802 160.1 147.902C160.6 148.402 160.9 147.902 161.4 147.902C161.9 147.902 162.3 147.502 162.8 147.902C163 148.102 163.3 148.102 163.4 147.502C163.4 147.202 163.7 147.502 163.9 147.302C164 147.302 164.1 146.902 164.2 146.902C164.3 146.902 164.5 147.102 164.6 147.202C164.6 147.202 164.6 147.202 164.7 147.202C165.2 146.402 166.1 147.202 166.6 146.902C167.1 146.602 167.6 146.602 167.8 146.502C168 146.502 168.1 146.602 169 147.302C169.4 147.602 169.9 148.002 170 148.302C170 148.602 170 148.902 170 149.002C169.8 149.202 169.7 149.502 169.5 149.702C169.1 150.102 168.7 150.802 168.1 150.602C167.9 150.602 167.8 150.902 167.6 150.402C167.6 150.402 167.6 150.402 167.5 150.402C167 151.302 166.4 150.902 165.8 151.002C165.3 151.102 165 151.802 164.5 151.702C164.4 152.402 164 152.302 163.7 152.202C162.6 151.702 161.8 152.402 160.9 152.602C160 152.802 159.1 153.102 158.1 153.402C157.9 153.402 157.9 153.802 157.7 153.602C157.6 153.602 157.5 153.602 157.4 153.602C157.3 153.602 157.2 153.702 157.1 153.802C156.8 153.902 156.5 154.202 156.2 154.102C155.2 154.002 154.5 154.302 153.6 154.802C153.4 154.502 153.2 154.202 153 153.802C152.4 152.702 151.6 151.302 151.2 150.902C150.9 150.502 150.3 150.302 150.2 149.902C150.2 149.702 149.7 149.702 150.2 149.202C150.3 149.102 149.8 149.202 149.7 149.002C149.5 148.702 149.3 148.502 149.2 148.202C149 147.802 148.8 147.402 148.5 147.002C148.3 146.802 148 146.702 147.8 146.502C147.6 146.302 147.4 146.002 147.3 145.802C147.2 145.402 147.2 145.002 147 144.702C146.9 144.302 146.4 144.102 146.5 143.702C146.5 142.902 146 142.402 145.7 141.802C145.4 141.202 145.1 140.602 144.6 140.102C144.3 139.802 144.6 139.302 144.4 138.902C144.4 138.802 145.4 137.802 145.9 137.602H146.1C146.7 137.602 147.5 137.602 147.7 138.002C148 138.602 148.3 139.102 148.6 139.602L148.5 139.402Z" fill="black"/>
<path d="M132.399 155.799C132.899 155.599 133.399 155.499 133.899 155.199C134.099 155.199 134.399 155.199 134.399 154.699C134.399 154.399 134.799 154.999 134.999 154.899C135.399 154.699 135.999 154.599 136.399 154.399C136.799 154.199 137.199 153.799 137.699 153.699C138.099 153.499 138.699 153.699 139.099 153.199C139.399 152.799 139.899 153.199 140.199 152.999C140.599 152.799 140.999 152.599 141.399 152.699C141.699 152.799 141.999 152.999 142.299 152.699C142.499 152.599 142.599 152.199 142.799 152.199C142.999 152.199 143.299 152.399 143.199 151.799C143.199 151.799 143.199 151.799 143.199 151.899C143.299 152.299 143.399 152.199 143.199 151.899C143.099 151.599 143.099 151.699 143.099 151.699C143.099 151.699 143.399 151.899 143.399 151.799C143.399 151.799 143.399 151.799 143.499 151.699C143.799 151.399 143.799 151.199 143.799 150.899C143.799 150.699 144.099 150.599 143.499 150.399C144.399 149.999 143.299 149.499 143.499 149.099C143.699 148.599 143.599 148.199 143.599 147.699C143.599 147.599 143.799 147.399 143.299 147.299C143.099 147.299 143.099 147.099 143.299 147.099C143.899 146.799 143.599 146.399 143.699 145.999C143.799 145.599 143.599 145.199 143.999 144.799C144.199 144.599 144.299 144.399 143.699 144.199C143.399 144.099 143.699 143.899 143.699 143.799C143.699 143.699 143.399 143.599 143.399 143.399C143.399 143.299 143.599 143.199 143.699 143.099C143.699 143.099 143.699 143.099 143.699 142.999C142.999 142.399 143.899 141.799 143.699 141.199C143.499 140.599 143.599 139.999 143.699 139.399C143.699 139.099 143.899 138.699 145.099 138.399C145.599 138.299 146.199 138.299 146.499 138.399C146.699 138.499 146.999 138.599 146.999 138.699C147.099 138.899 147.199 139.099 147.299 139.299C147.499 139.699 147.999 140.099 147.799 140.499C147.799 140.599 147.999 140.799 147.499 140.899C148.299 141.399 147.799 141.999 147.799 142.599C147.799 143.099 148.499 143.499 148.199 143.999C148.799 144.299 148.699 144.599 148.499 144.899C147.799 145.799 148.199 146.799 148.099 147.699C147.999 148.699 148.099 149.599 147.899 150.599C147.899 150.799 148.199 150.899 147.899 151.099C147.599 151.299 147.899 151.499 147.899 151.699C147.899 151.899 147.999 152.099 147.899 152.299C147.599 152.899 147.399 153.399 147.399 153.999C147.399 154.599 147.399 155.199 147.399 155.699H147.099C146.399 155.799 145.799 155.899 145.199 155.999C144.899 155.999 144.599 156.099 144.299 156.199H144.099L143.999 156.299H143.699C143.299 156.599 142.899 156.999 142.499 156.999C142.299 156.999 142.199 157.399 141.899 156.799C141.899 156.599 141.699 157.099 141.599 157.199C141.299 157.299 140.999 157.399 140.699 157.399C140.299 157.499 139.899 157.599 139.499 157.699C139.299 157.799 139.099 158.099 138.899 158.199C138.699 158.299 138.399 158.399 138.099 158.399C137.799 158.399 137.399 158.399 136.999 158.399C136.599 158.399 136.399 158.799 135.999 158.699C135.199 158.399 134.699 158.899 134.099 158.999C133.499 159.199 132.899 159.299 132.399 159.699C132.099 159.899 131.599 159.599 131.299 159.699C131.199 159.699 130.399 158.499 130.199 157.999V157.799C130.299 157.199 130.399 156.399 130.799 156.299C131.399 156.099 131.899 155.899 132.499 155.699L132.399 155.799Z" fill="black"/>
<path d="M122.701 170.198C121.901 170.098 121.101 169.798 120.301 169.598C120.001 169.598 119.801 169.198 119.301 169.598C119.001 169.798 119.001 169.098 118.801 168.998C118.101 168.698 117.501 168.198 116.901 167.798C116.301 167.398 115.601 166.998 115.001 166.498C114.401 165.998 114.201 165.198 113.601 164.798C113.001 164.398 113.201 163.698 112.801 163.198C112.401 162.698 112.101 162.098 112.101 161.398C112.101 160.898 112.201 160.398 112.101 159.998C112.001 159.698 111.601 159.398 111.601 159.098C111.601 158.698 111.901 158.398 111.301 157.998C111.301 157.998 111.301 157.798 111.501 157.798C112.001 157.498 112.001 157.098 111.901 156.698C111.701 156.298 111.901 156.098 111.901 155.798C112.101 155.098 112.501 154.498 112.901 153.898C113.201 153.498 113.701 153.298 114.001 152.898C114.401 152.598 114.501 151.998 115.101 151.898C115.601 151.798 116.001 151.498 116.301 151.198C116.501 150.998 116.901 151.198 116.701 150.498C116.701 150.498 116.701 150.398 116.801 150.498C117.901 150.798 117.901 149.498 118.801 149.398C119.601 149.298 120.401 148.898 121.201 148.698C121.401 148.698 121.701 148.798 121.801 148.298C121.801 148.098 122.101 148.098 122.201 148.298C122.901 148.898 123.501 148.498 124.101 148.698C124.801 148.898 125.601 148.798 126.101 149.598C126.301 149.898 126.601 150.198 127.201 149.798C127.501 149.698 127.701 150.098 127.901 150.198C128.101 150.198 128.501 150.198 128.701 150.398C128.901 150.498 128.901 150.798 128.901 151.098C128.901 151.098 128.901 151.198 129.001 151.198C129.601 151.398 130.001 151.898 130.201 152.398C130.401 152.898 130.501 153.498 130.801 153.898C131.401 154.798 131.601 155.898 131.701 156.798C131.701 157.298 131.701 157.898 130.501 158.398C130.001 158.598 129.401 158.598 129.101 158.398C128.901 158.298 128.601 158.198 128.501 157.998C128.401 157.798 128.201 157.598 128.101 157.398C127.801 156.998 127.201 156.698 127.301 156.198C127.301 155.998 127.001 155.998 127.401 155.698V155.598C126.401 155.398 126.601 154.698 126.201 154.298C125.801 153.998 125.201 154.298 125.001 153.798C124.501 154.198 124.401 153.998 124.201 153.798C123.901 153.298 123.501 153.198 123.001 153.098C122.501 153.098 122.101 153.098 121.701 153.098C120.801 153.098 119.901 153.598 119.101 154.098C119.001 154.098 119.101 154.598 118.701 154.498C118.401 154.498 118.301 154.698 118.201 154.898C118.001 154.998 118.001 155.298 117.701 155.298C116.701 155.398 116.401 156.398 116.001 156.998C115.601 157.598 115.301 158.298 115.501 158.998C115.601 159.398 116.001 159.698 116.001 160.198C116.001 160.398 116.401 160.498 116.001 160.898C115.901 160.998 116.401 160.998 116.401 161.198C116.601 161.498 116.701 161.798 116.901 162.098C117.101 162.498 117.401 162.898 117.701 163.298C117.901 163.498 118.301 163.498 118.501 163.698C118.701 163.898 118.901 164.098 119.101 164.298C119.301 164.598 119.501 164.998 119.801 165.198C120.101 165.498 120.601 165.398 120.801 165.798C121.201 166.598 122.001 166.598 122.701 166.798C123.401 166.998 124.101 167.098 124.801 166.998C125.201 166.998 125.601 167.398 126.001 167.298C126.201 167.298 126.701 168.698 126.701 169.198V169.398C126.301 169.898 125.901 170.698 125.201 170.698C124.301 170.698 123.401 170.698 122.401 170.498L122.701 170.198Z" fill="black"/>
<path d="M115.399 111.1C115.199 111.1 114.899 111.1 114.699 111.4C114.699 111.4 114.399 111.2 114.599 111.8C114.599 112.1 114.299 111.5 114.299 111.6C114.099 111.7 113.899 111.8 113.699 111.9C113.499 112.1 113.399 112.3 113.299 112.5C113.199 112.7 112.799 112.5 112.799 112.9C112.799 113.2 112.399 112.9 112.299 113.1C112.299 113.3 112.099 113.5 111.799 113.4C111.599 113.4 111.399 113.3 111.299 113.4C111.299 113.5 111.399 113.8 111.299 113.8C111.299 113.8 110.999 113.7 111.299 114.2C111.299 114.2 111.299 114.2 111.199 114.2C110.899 114 110.799 114.1 110.899 114.3C110.999 114.5 110.899 114.6 110.899 114.6C110.899 114.8 110.699 114.9 110.499 115C110.399 115 110.099 115 109.999 115C109.899 115 109.999 115.4 109.699 115.3C109.399 115.3 109.299 115.3 109.199 115.4C109.199 115.4 108.899 115.4 109.299 115.8C108.499 115.5 109.299 116.3 108.999 116.3C108.699 116.3 108.699 116.6 108.599 116.8C108.599 116.8 108.399 116.8 108.799 117.1C108.899 117.1 108.899 117.3 108.799 117.2C108.199 117 108.399 117.4 108.299 117.5C108.099 117.6 108.299 117.9 107.799 117.9C107.599 117.9 107.399 117.9 107.899 118.3C108.099 118.4 107.899 118.4 107.899 118.5C107.899 118.5 108.199 118.7 108.199 118.8C108.199 118.8 107.999 118.8 107.799 118.8C108.299 119.3 107.399 119.2 107.499 119.6C107.499 119.9 107.499 120.2 107.299 120.4C107.299 120.5 106.999 120.7 105.899 120.6C105.399 120.6 104.799 120.6 104.499 120.4C104.299 120.4 104.099 120.2 103.999 120.1C103.999 120 103.799 119.8 103.699 119.7C103.599 119.4 103.099 119.1 103.399 118.9C103.499 118.9 103.199 118.7 103.699 118.7C102.999 118.2 103.699 118 103.699 117.6C103.699 117.3 103.299 116.8 103.699 116.6C103.199 116.2 103.399 116.1 103.699 116C104.499 115.7 104.399 115 104.799 114.6C105.199 114.1 105.399 113.6 105.799 113.1C105.799 113.1 105.599 112.7 105.899 112.8C106.199 112.8 106.099 112.6 106.199 112.5C106.199 112.5 106.199 112.2 106.399 112.2C107.199 112.2 107.199 111.7 107.599 111.4C107.999 111.1 108.299 110.9 108.599 110.5C108.699 110.3 108.699 109.8 108.999 109.7C109.099 109.7 108.999 109.3 109.499 109.7C109.599 109.8 109.499 109.4 109.499 109.3C109.599 109.1 109.799 109.1 109.999 108.9C110.199 108.7 110.499 108.6 110.699 108.5C110.799 108.4 110.799 108.1 110.899 107.9C110.999 107.8 111.199 107.7 111.399 107.6C111.599 107.6 111.899 107.6 112.099 107.6C112.299 107.6 112.399 107.2 112.699 107.4C113.299 107.7 113.499 107.4 113.899 107.3C114.299 107.3 114.699 107.1 114.999 107C115.199 106.9 115.499 107.3 115.699 107.3C115.799 107.3 116.199 108.7 116.199 109.2V109.4C116.199 109.9 116.199 110.6 115.899 110.6C115.599 110.6 115.399 110.7 115.099 110.8L115.399 111.1Z" fill="black"/>
<path d="M67.8008 124.102L69.4008 121.302C69.6008 120.902 70.0008 120.702 69.8008 120.102C69.7008 119.802 70.4008 119.802 70.6008 119.502C71.1008 118.602 71.7008 117.902 72.3008 117.002C72.8008 116.202 73.2008 115.302 73.8008 114.502C74.3008 113.702 75.2008 113.102 75.5008 112.202C75.8008 111.402 76.7008 111.202 77.1008 110.502C77.6008 109.802 78.1008 109.102 78.8008 108.702C79.3008 108.402 79.9008 108.102 80.2008 107.702C80.4008 107.402 80.4008 106.902 80.7008 106.702C81.0008 106.502 81.5008 106.402 81.2008 105.702C81.2008 105.702 81.4008 105.702 81.5008 105.702C82.1008 105.702 82.4008 105.402 82.4008 104.902C82.4008 104.502 82.7008 104.302 82.9008 104.102C83.5008 103.502 84.1008 103.002 84.7008 102.502C85.2008 102.102 85.8008 101.902 86.3008 101.602C86.8008 101.202 87.2008 100.602 87.9008 100.502C88.6008 100.402 89.0008 100.002 89.5008 99.7016C89.8008 99.5016 90.3008 99.5016 90.2008 98.8016C90.2008 98.8016 90.3008 98.7016 90.4008 98.7016C91.7008 98.9016 91.9008 97.5016 93.0008 97.2016C94.0008 96.9016 94.9008 96.4016 96.1008 96.0016C96.4008 96.0016 96.8008 96.0016 97.1008 95.5016C97.1008 95.3016 97.6008 95.3016 97.8008 95.4016C98.9008 96.0016 100.101 95.9016 100.901 96.4016C101.801 97.0016 102.801 97.3016 103.201 98.1016C103.401 98.5016 103.701 98.9016 104.401 98.6016C104.701 98.6016 104.901 99.0016 105.201 99.1016C105.401 99.2016 105.801 99.1016 106.001 99.3016C106.201 99.4016 106.201 99.8016 106.301 100.002C106.301 100.002 106.301 100.102 106.501 100.102C107.901 100.402 108.301 101.902 109.401 102.702C110.501 103.502 111.301 104.402 112.101 105.502C112.501 106.102 112.901 106.802 112.301 107.902C112.001 108.402 111.601 108.702 111.201 108.702C110.901 108.702 110.601 108.702 110.401 108.502C110.101 108.302 109.701 108.102 109.401 107.902C108.701 107.502 107.801 107.302 107.501 106.502C107.401 106.302 107.001 106.302 107.201 105.802V105.602C105.901 105.502 105.401 104.402 104.601 103.702C103.901 103.202 102.801 103.102 102.201 102.402C101.401 102.602 101.001 102.202 100.701 101.802C100.101 101.002 99.5008 100.502 98.9008 100.302C98.3008 100.102 98.0008 100.202 97.4008 100.302C96.8008 100.302 96.0008 100.702 95.2008 101.102C94.4008 101.502 93.7008 101.902 92.9008 102.402C92.6008 102.602 92.6008 103.002 92.2008 103.002C91.8008 103.002 91.5008 103.402 91.2008 103.602C90.9008 103.802 90.7008 104.102 90.3008 104.202C88.8008 104.502 87.9008 105.802 86.8008 106.702C85.7008 107.602 84.6008 108.602 83.6008 109.702C83.0008 110.402 82.7008 111.302 82.0008 111.802C81.7008 112.002 81.7008 112.602 81.0008 112.402C80.8008 112.402 81.0008 112.902 80.8008 113.102C80.4008 113.602 80.0008 114.002 79.6008 114.502C79.0008 115.102 78.5008 115.802 78.0008 116.402C77.7008 116.802 77.6008 117.402 77.3008 117.802C77.0008 118.302 76.7008 118.702 76.3008 119.102C75.8008 119.602 75.3008 120.002 74.8008 120.502C74.3008 121.002 74.2008 121.802 73.6008 122.202C72.5008 123.002 72.1008 124.202 71.4008 125.202C70.8008 126.302 70.1008 127.302 69.8008 128.502C69.6008 129.202 68.9008 129.502 68.6008 130.202C68.5008 130.502 66.9008 130.302 66.5008 130.002C66.5008 130.002 66.3008 129.902 66.3008 129.802C66.1008 129.002 65.7008 128.102 66.1008 127.302C66.7008 126.202 67.2008 125.102 67.7008 124.002L67.8008 124.102Z" fill="black"/>
<path d="M81.1994 140.799C80.8994 140.599 80.5994 140.399 80.1994 140.299C80.0994 140.299 80.0994 139.999 79.6994 140.299C79.4994 140.499 79.6994 139.899 79.5994 139.799C79.2994 139.799 78.9994 139.499 78.6994 139.399C78.3994 139.399 77.9994 139.399 77.6994 139.199C77.3994 139.099 77.1994 138.699 76.7994 138.799C76.3994 138.899 76.4994 138.399 76.1994 138.299C75.8994 138.299 75.5994 138.299 75.4994 137.899C75.4994 137.699 75.3994 137.399 75.0994 137.399C74.9994 137.399 74.6994 137.599 74.5994 137.499C74.5994 137.499 74.5994 137.099 74.0994 137.499C74.0994 137.499 74.0994 137.499 74.0994 137.299C74.0994 136.899 74.0994 136.799 73.7994 136.999C73.5994 137.199 73.4994 136.999 73.3994 136.999C73.0994 136.899 72.8994 136.799 72.6994 136.599C72.4994 136.499 72.4994 136.099 72.3994 135.999C72.2994 135.799 71.8994 135.999 71.8994 135.599C71.8994 135.199 71.6994 135.099 71.5994 134.999C71.5994 134.999 71.5994 134.599 71.0994 135.099C71.2994 134.199 70.3994 134.999 70.2994 134.599C70.0994 134.199 69.7994 134.199 69.4994 133.999C69.4994 133.999 69.4994 133.699 69.0994 133.999C68.9994 134.099 68.8994 133.999 68.8994 133.999C69.0994 133.299 68.5994 133.499 68.4994 133.299C68.2994 132.999 67.8994 133.099 67.9994 132.499C67.9994 132.299 67.9994 132.099 67.4994 132.499C67.2994 132.699 67.2994 132.399 67.1994 132.399C67.0994 132.399 66.8994 132.599 66.7994 132.499C66.7994 132.499 66.7994 132.199 66.7994 132.099C66.0994 132.399 66.2994 131.399 65.7994 131.299C65.5994 131.299 65.3994 131.199 65.0994 130.899C64.7994 130.699 64.4994 130.299 64.3994 129.999C64.1994 129.599 64.1994 129.099 65.1994 128.399C65.3994 128.299 65.6994 128.099 65.8994 127.999C66.0994 127.999 66.2994 127.899 66.3994 127.799C66.5994 127.799 66.7994 127.799 66.8994 127.799C66.8994 127.799 67.0994 127.799 67.2994 127.799C67.5994 127.799 67.8994 127.399 67.8994 127.799C67.8994 127.899 68.1994 127.799 67.8994 128.199C68.6994 127.799 68.6994 128.399 68.9994 128.599C69.2994 128.699 69.8994 128.399 69.9994 128.799C70.4994 128.399 70.5994 128.599 70.5994 128.799C70.6994 129.699 71.4994 129.699 71.8994 130.099C72.3994 130.499 72.8994 130.799 73.4994 131.199C73.4994 131.199 73.8994 130.999 73.7994 131.299C73.7994 131.599 73.9994 131.499 74.0994 131.599C74.1994 131.599 74.3994 131.599 74.3994 131.799C74.3994 132.599 75.0994 132.599 75.4994 132.899C75.8994 133.199 76.2994 133.499 76.7994 133.599C77.0994 133.599 77.4994 133.599 77.6994 133.799C77.6994 133.899 78.0994 133.699 77.8994 134.299C77.8994 134.499 78.1994 134.099 78.2994 134.199C78.4994 134.199 78.6994 134.399 78.7994 134.499C79.0994 134.599 79.2994 134.799 79.5994 134.899C79.7994 134.899 79.9994 134.899 80.1994 134.899C80.3994 134.899 80.4994 134.999 80.6994 135.199C80.8994 135.399 80.9994 135.699 81.1994 135.799C81.3994 135.999 81.6994 135.799 81.7994 136.199C81.8994 136.799 82.3994 136.799 82.7994 137.099C83.1994 137.299 83.4994 137.599 83.9994 137.599C84.1994 137.599 84.1994 138.199 84.3994 138.299C84.3994 138.299 83.9994 139.699 83.7994 140.199L83.6994 140.399C83.2994 140.699 82.7994 141.299 82.4994 141.099C82.1994 140.899 81.7994 140.699 81.3994 140.499L81.1994 140.799Z" fill="black"/>
<path d="M89.3996 121.599C89.2996 121.899 89.0996 122.199 88.9996 122.499C88.9996 122.599 88.6996 122.599 89.0996 122.999C89.2996 123.199 88.6996 122.999 88.6996 123.099C88.6996 123.399 88.3996 123.699 88.3996 123.999C88.3996 124.299 88.3996 124.699 88.3996 124.999C88.3996 125.299 87.9996 125.499 88.1996 125.899C88.3996 126.199 87.7996 126.299 87.8996 126.499C87.8996 126.799 87.8996 127.099 87.5996 127.199C87.3996 127.299 87.0996 127.399 87.1996 127.599C87.1996 127.699 87.4996 127.899 87.3996 127.999C87.3996 127.999 86.9996 128.099 87.5996 128.399C87.5996 128.399 87.5996 128.399 87.3996 128.399C86.9996 128.399 86.9996 128.499 87.1996 128.699C87.3996 128.899 87.3996 128.999 87.2996 128.999C87.2996 129.299 87.1996 129.499 87.0996 129.699C86.9996 129.899 86.6996 129.999 86.5996 130.099C86.4996 130.299 86.5996 130.599 86.2996 130.599C85.9996 130.599 85.8996 130.899 85.8996 130.999C85.8996 130.999 85.5996 131.099 86.0996 131.399C85.1996 131.399 86.0996 131.999 85.8996 132.299C85.5996 132.499 85.6996 132.899 85.5996 133.199C85.5996 133.199 85.3996 133.299 85.7996 133.499C85.8996 133.499 85.8996 133.699 85.7996 133.699C85.0996 133.699 85.3996 134.099 85.2996 134.299C85.0996 134.499 85.2996 134.899 84.7996 134.999C84.5996 134.999 84.3996 135.199 84.9996 135.499C85.1996 135.599 84.9996 135.699 84.9996 135.799C84.9996 135.799 85.2996 135.999 85.2996 136.099C85.2996 136.099 84.9996 136.099 84.8996 136.199C85.3996 136.699 84.4996 136.899 84.5996 137.299C84.5996 137.699 84.5996 138.099 84.2996 138.499C84.2996 138.699 83.9996 138.899 82.7996 138.799C82.2996 138.799 81.6996 138.599 81.3996 138.499C81.1996 138.399 80.9996 138.299 80.8996 138.199C80.8996 138.099 80.6996 137.899 80.6996 137.799C80.5996 137.499 80.0996 137.099 80.3996 136.899C80.4996 136.899 80.1996 136.699 80.6996 136.699C79.9996 136.199 80.6996 135.899 80.6996 135.499C80.6996 135.199 80.1996 134.699 80.4996 134.499C79.8996 134.199 80.0996 133.999 80.2996 133.899C81.0996 133.499 80.7996 132.699 81.0996 132.199C81.3996 131.599 81.4996 130.999 81.6996 130.399C81.6996 130.299 81.3996 130.099 81.6996 130.099C81.9996 130.099 81.7996 129.899 81.8996 129.699C81.8996 129.599 81.8996 129.399 81.9996 129.299C82.7996 128.999 82.5996 128.399 82.7996 127.999C82.9996 127.599 83.1996 127.099 83.2996 126.599C83.2996 126.299 83.0996 125.899 83.2996 125.599C83.2996 125.499 83.0996 125.299 83.6996 125.299C83.8996 125.299 83.4996 125.099 83.4996 124.999C83.4996 124.799 83.5996 124.599 83.6996 124.399C83.6996 124.099 83.8996 123.899 83.9996 123.599C83.9996 123.399 83.8996 123.199 83.8996 122.999C83.8996 122.799 83.8996 122.599 84.0996 122.499C84.2996 122.299 84.4996 122.199 84.6996 121.999C84.7996 121.799 84.6996 121.499 84.9996 121.399C85.5996 121.199 85.5996 120.699 85.7996 120.299C85.9996 119.899 86.1996 119.599 86.2996 119.099C86.2996 118.899 86.8996 118.899 86.9996 118.599C86.9996 118.499 88.3996 118.999 88.8996 119.199L89.0996 119.299C89.3996 119.699 89.9996 120.199 89.8996 120.399C89.6996 120.699 89.5996 121.099 89.3996 121.399V121.599Z" fill="black"/>
<path d="M99.6 142.001C99.4 142.001 99.1 142.001 98.9 142.201C98.9 142.201 98.7 142.001 98.7 142.601C98.7 142.901 98.5 142.301 98.4 142.301C98.2 142.401 98 142.301 97.8 142.501C97.6 142.601 97.4 142.901 97.2 143.001C97 143.101 96.7 142.901 96.6 143.201C96.5 143.501 96.2 143.001 96.1 143.201C95.9 143.401 95.8 143.501 95.5 143.201C95.3 143.001 95.2 142.801 95.1 143.001C95.1 143.001 95 143.401 94.9 143.401C94.9 143.401 94.7 143.101 94.7 143.801C94.7 143.801 94.7 143.801 94.7 143.701C94.6 143.301 94.5 143.301 94.4 143.701C94.4 144.001 94.3 143.901 94.2 144.001C94 144.001 93.8 144.001 93.6 144.001C93.5 144.001 93.3 143.701 93.2 143.701C93.1 143.701 92.9 143.901 92.8 143.701C92.7 143.401 92.5 143.401 92.4 143.401C92.4 143.401 92.2 143.101 92.2 143.801C92 143.001 91.8 144.101 91.6 143.801C91.4 143.601 91.2 143.801 91 143.801C91 143.801 90.9 143.601 90.8 144.101C90.8 144.301 90.8 144.301 90.8 144.101C90.6 143.501 90.5 143.901 90.3 143.801C90.1 143.701 90 144.001 89.8 143.501C89.8 143.301 89.6 143.201 89.6 143.801C89.6 144.101 89.5 143.801 89.4 143.801C89.4 143.801 89.4 144.101 89.3 144.101C89.3 144.101 89.3 143.901 89.2 143.801C89 144.501 88.7 143.601 88.5 143.801C88.3 144.001 88.1 144.001 87.9 143.901C87.8 143.901 87.6 143.701 87.3 142.601C87.1 142.101 87 141.601 87 141.201C87 141.001 87 140.701 87 140.701C87 140.601 87.1 140.401 87.2 140.301C87.3 140.101 87.5 139.501 87.7 139.801C87.7 139.801 87.8 139.601 87.9 140.101C88.1 139.301 88.4 139.801 88.6 139.701C88.8 139.701 89 139.001 89.2 139.201C89.2 138.601 89.4 138.701 89.6 138.901C90.1 139.601 90.5 139.101 90.9 139.201C91.3 139.201 91.7 139.201 92.1 139.201C92.1 139.201 92.2 138.801 92.3 139.201C92.3 139.501 92.5 139.201 92.6 139.201C92.6 139.201 92.8 139.101 92.8 139.201C93.1 139.801 93.4 139.401 93.7 139.501C94 139.501 94.3 139.501 94.6 139.401C94.8 139.301 94.9 138.901 95.1 139.001C95.1 139.001 95.2 138.701 95.4 139.301C95.4 139.501 95.4 139.001 95.4 139.001C95.5 139.001 95.6 139.001 95.8 139.001C96 139.001 96.1 139.001 96.3 138.901C96.3 138.901 96.4 138.601 96.5 138.501C96.5 138.501 96.7 138.401 96.8 138.501C96.9 138.501 97.1 138.701 97.3 138.701C97.5 138.701 97.5 138.401 97.7 138.701C98.1 139.101 98.3 138.801 98.5 138.701C98.8 138.701 99 138.701 99.2 138.501C99.3 138.401 99.6 138.801 99.7 138.801C99.7 138.801 100.3 140.101 100.5 140.601V140.801C100.5 141.301 100.6 142.001 100.5 142.001C100.2 142.001 100 142.101 99.7 142.201L99.6 142.001Z" fill="black"/>
<path d="M103.4 120.901C103.2 121.001 103.1 121.101 103 121.401C103 121.401 102.7 121.401 103.1 121.801C103.3 122.001 102.7 121.801 102.7 121.801C102.7 122.001 102.5 122.301 102.4 122.601C102.4 122.901 102.4 123.201 102.4 123.601C102.4 123.901 102 124.201 102.2 124.501C102.4 124.801 101.9 124.901 101.9 125.201C101.9 125.501 101.9 125.801 101.7 126.001C101.5 126.201 101.2 126.301 101.3 126.501C101.3 126.601 101.6 126.801 101.6 126.901C101.6 127.001 101.3 127.101 101.9 127.301C101.9 127.301 101.9 127.301 101.7 127.301C101.3 127.301 101.3 127.501 101.5 127.701C101.8 127.801 101.7 127.901 101.7 128.001C101.7 128.301 101.7 128.501 101.6 128.801C101.6 129.001 101.3 129.201 101.2 129.401C101.2 129.601 101.4 129.901 101.1 130.001C100.8 130.201 100.8 130.401 100.8 130.601C100.8 130.701 100.5 130.801 101.1 130.901C100.3 131.201 101.3 131.501 101.1 131.801C100.9 132.101 101.1 132.501 101.1 132.801C101.1 132.801 100.9 133.001 101.4 133.101C101.6 133.101 101.6 133.201 101.4 133.301C100.8 133.601 101.2 133.801 101.1 134.101C101 134.401 101.3 134.701 100.8 135.001C100.6 135.101 100.5 135.301 101.1 135.401C101.4 135.401 101.1 135.601 101.1 135.701C101.1 135.701 101.4 135.801 101.5 135.901C101.5 135.901 101.3 136.101 101.2 136.201C101.9 136.501 101.1 137.001 101.3 137.401C101.6 137.801 101.5 138.201 101.5 138.601C101.5 138.801 101.4 139.101 100.3 139.501C99.8001 139.701 99.3001 139.801 98.9001 139.801C98.6001 139.801 98.4001 139.801 98.3001 139.701C98.2001 139.601 98.0001 139.501 97.9001 139.301C97.6001 139.001 97.1001 138.801 97.3001 138.501C97.3001 138.401 97.1001 138.301 97.5001 138.201C96.6001 137.901 97.1001 137.401 97.0001 137.001C97.0001 136.601 96.2001 136.401 96.5001 136.001C95.9001 135.901 95.9001 135.601 96.1001 135.401C96.7001 134.601 96.2001 133.901 96.3001 133.201C96.3001 132.501 96.3001 131.701 96.3001 131.001C96.3001 130.901 96.0001 130.701 96.3001 130.601C96.6001 130.501 96.3001 130.301 96.3001 130.101C96.3001 130.001 96.2001 129.801 96.3001 129.701C97.0001 129.201 96.7001 128.601 96.8001 128.001C96.9001 127.401 97.1001 126.901 97.0001 126.301C97.0001 125.901 96.7001 125.501 96.9001 125.201C96.9001 125.101 96.7001 124.801 97.3001 124.801C97.5001 124.801 97.1001 124.601 97.1001 124.501C97.1001 124.301 97.1001 124.001 97.3001 123.801C97.3001 123.501 97.5001 123.201 97.5001 122.801C97.5001 122.601 97.3001 122.301 97.3001 122.101C97.3001 121.901 97.3001 121.601 97.5001 121.401C97.7001 121.101 98.0001 120.901 98.2001 120.601C98.4001 120.301 98.3001 119.901 98.7001 119.701C99.1001 119.501 99.3001 119.301 99.5001 119.101C99.7001 118.801 99.9001 118.601 100.2 118.301C100.7 117.901 101.3 117.501 102 117.201C102.4 117.001 102.9 117.401 103.3 117.401C103.5 117.401 103.7 118.901 103.6 119.401V119.601C103.4 120.101 103.5 120.801 103.4 120.801C103.2 120.801 103.1 120.901 102.9 121.101L103.4 120.901Z" fill="black"/>
</svg>
