<svg width="300" height="300" viewBox="0 0 300 300" fill="none" xmlns="http://www.w3.org/2000/svg">
<path d="M176.601 129.802C175.101 127.302 173.701 124.802 172.201 122.402C171.601 121.502 171.301 120.402 170.301 119.802C169.801 119.502 169.801 118.302 169.301 117.402C167.901 115.202 166.501 112.902 164.901 111.002C163.301 109.102 161.501 107.502 159.601 106.102C157.701 104.802 155.701 103.402 153.501 103.202C153.001 103.202 152.601 103.002 152.101 103.002C151.701 103.002 151.201 102.802 150.801 102.702C149.901 102.602 149.101 102.402 148.001 102.402C145.901 102.402 143.601 102.602 141.601 102.402C140.101 102.302 138.601 102.102 137.101 102.402C136.201 102.602 135.301 103.002 134.301 103.102C133.401 103.102 132.301 103.102 131.601 103.802C131.601 103.802 131.101 103.802 130.901 103.802C129.801 103.602 128.601 103.802 127.901 104.302C127.201 104.802 126.501 104.902 125.801 105.202C123.901 105.802 122.001 106.602 120.301 107.502C119.001 108.202 117.701 108.802 116.701 109.802C115.601 110.802 115.101 112.202 114.301 113.302C113.501 114.402 113.101 115.802 112.901 117.202C112.801 118.002 112.401 118.902 112.901 119.702C112.901 119.702 112.901 120.102 112.901 120.202C112.001 122.602 113.201 125.002 113.201 127.502C113.201 130.202 113.401 132.802 113.701 135.502C113.701 136.202 113.701 137.002 114.201 137.602C114.401 137.802 114.501 138.502 114.401 138.902C114.001 140.902 114.501 142.902 114.701 144.902C114.801 147.202 115.401 149.402 115.201 151.802C115.201 152.802 115.201 154.102 115.901 155.202C116.201 155.702 116.101 156.802 116.301 157.702C116.501 158.402 116.801 159.002 116.901 159.702C116.901 160.302 116.901 160.902 116.901 161.502C116.901 161.702 116.901 161.902 116.901 162.102C118.101 165.302 117.801 168.702 118.501 172.102C119.301 175.402 119.801 178.802 120.401 182.202C120.701 184.102 120.901 186.002 120.001 187.502C119.601 188.202 119.101 188.302 118.601 187.502C118.301 187.002 117.901 186.302 117.701 185.702C117.401 184.702 117.101 183.602 116.801 182.602C116.201 180.502 115.301 178.402 115.201 176.202C115.201 175.502 114.701 174.702 115.201 174.102C115.201 174.102 115.201 173.702 115.201 173.602C113.901 170.802 113.901 167.602 113.301 164.502C112.801 161.902 111.801 159.502 111.701 156.802C110.901 155.402 110.701 153.702 110.701 152.202C110.701 147.002 109.701 141.802 109.301 136.602L108.801 128.702C108.601 126.102 108.401 123.402 108.501 120.602C108.501 119.702 108.201 118.802 108.601 117.702C109.001 116.702 109.001 115.302 109.401 114.002C109.701 112.902 110.001 111.602 110.701 110.702C113.401 106.702 117.101 103.802 121.101 102.102C125.101 100.502 129.301 99.7017 133.501 98.9017C136.001 98.5017 138.501 97.9017 141.101 98.0017C142.201 98.0017 143.301 97.6017 144.401 98.2017C144.701 98.4017 145.701 97.9017 146.401 97.9017C147.301 97.9017 148.101 97.9017 149.001 97.9017C149.901 97.9017 150.901 98.0017 151.801 98.1017C154.401 98.4017 157.001 99.3017 159.301 100.502C159.701 100.702 160.001 100.902 160.401 101.002L161.501 101.602C162.201 102.002 162.901 102.402 163.501 102.902C164.801 103.902 166.001 105.102 167.101 106.402C168.401 108.002 169.501 109.702 170.501 111.402C171.601 113.102 173.001 114.802 173.701 116.602C175.101 119.902 177.201 122.902 178.901 125.902C180.601 129.002 182.401 132.002 184.501 134.702C185.701 136.202 186.301 138.002 187.601 139.402C188.201 140.102 187.901 142.002 187.301 142.002C187.201 142.002 187.001 142.002 186.901 141.902C185.201 140.802 183.501 139.802 182.201 138.002C180.301 135.302 178.501 132.502 176.801 129.702L176.601 129.802Z" fill="black"/>
<path d="M166.101 147.302C166.501 147.102 166.801 147.002 167.201 146.702C167.301 146.702 167.601 146.702 167.501 146.202C167.501 145.902 167.901 146.402 168.001 146.402C168.301 146.202 168.701 146.102 169.001 145.902C169.301 145.702 169.501 145.302 169.801 145.102C170.101 144.902 170.601 145.102 170.801 144.602C171.001 144.202 171.401 144.602 171.601 144.302C171.801 144.102 172.101 143.902 172.501 144.002C172.801 144.002 173.101 144.202 173.201 144.002C173.201 143.902 173.201 143.502 173.401 143.502C173.501 143.502 173.801 143.702 173.701 143.002C173.701 143.002 173.701 143.002 173.901 143.002C174.201 143.302 174.401 143.202 174.401 143.002C174.401 142.702 174.501 142.702 174.601 142.602C174.901 142.502 175.201 142.302 175.501 142.302C175.701 142.302 176.001 142.302 176.301 142.302C176.501 142.302 176.701 141.902 177.001 142.102C177.301 142.302 177.501 142.202 177.701 142.102C177.801 142.102 178.101 142.302 177.901 141.602C178.501 142.302 178.501 141.102 178.901 141.202C179.301 141.202 179.601 141.002 180.001 140.902C180.001 140.902 180.301 141.002 180.201 140.502C180.201 140.302 180.201 140.302 180.401 140.402C180.901 140.902 181.001 140.402 181.301 140.402C181.601 140.402 181.901 140.002 182.301 140.402C182.501 140.602 182.701 140.602 182.701 140.002C182.701 139.702 182.901 140.002 183.001 139.802C183.001 139.802 183.001 139.402 183.201 139.402C183.201 139.402 183.401 139.602 183.501 139.702C183.801 138.902 184.501 139.702 184.901 139.302C185.301 139.002 185.801 138.902 186.301 138.902C186.601 138.902 186.901 138.902 187.401 140.002C187.601 140.502 187.801 141.002 187.701 141.402C187.701 141.702 187.701 141.902 187.601 142.002C187.501 142.102 187.401 142.302 187.301 142.402C187.101 142.702 186.901 143.302 186.601 143.102C186.501 143.102 186.501 143.402 186.201 142.902C186.001 143.802 185.501 143.402 185.101 143.602C184.801 143.802 184.601 144.502 184.201 144.302C184.201 145.002 184.001 144.902 183.701 144.802C182.801 144.402 182.301 145.002 181.601 145.202C180.901 145.302 180.301 145.702 179.601 145.902C179.501 145.902 179.601 146.302 179.301 146.102C179.101 145.902 179.001 146.102 178.801 146.202C178.701 146.202 178.601 146.402 178.401 146.302C177.601 145.902 177.301 146.502 176.701 146.602C176.201 146.702 175.601 146.902 175.201 147.302C174.901 147.502 174.801 148.002 174.401 148.002C174.201 148.002 174.201 148.402 173.901 147.902C173.801 147.802 173.901 148.202 173.801 148.302C173.601 148.402 173.401 148.502 173.201 148.602C172.901 148.702 172.601 148.802 172.301 149.002C172.101 149.102 172.101 149.402 171.901 149.602C171.701 149.702 171.601 149.802 171.301 149.902C171.001 149.902 170.701 149.902 170.401 149.902C170.101 149.902 170.001 150.302 169.601 150.202C168.901 150.002 168.601 150.402 168.201 150.602C167.701 150.802 167.301 150.902 166.901 151.302C166.701 151.502 166.201 151.202 166.001 151.302C165.901 151.302 165.101 150.102 164.901 149.702V149.502C164.901 149.002 164.801 148.202 165.101 148.102C165.501 148.002 165.901 147.702 166.301 147.502L166.101 147.302Z" fill="black"/>
<path d="M168.602 166.202C168.602 165.902 168.502 165.502 168.302 165.202C168.302 165.102 168.502 164.902 167.902 164.902C167.602 164.902 168.202 164.602 168.202 164.502C168.102 164.202 168.102 163.902 167.902 163.602C167.802 163.302 167.502 163.102 167.302 162.802C167.202 162.502 167.302 162.102 167.002 161.902C166.702 161.702 167.102 161.402 167.002 161.202C166.802 161.002 166.702 160.702 166.802 160.402C166.902 160.202 167.102 160.002 166.902 159.802C166.902 159.802 166.502 159.702 166.502 159.602C166.502 159.502 166.702 159.302 166.102 159.302C166.102 159.302 166.102 159.302 166.202 159.202C166.602 159.002 166.502 158.802 166.202 158.802C165.902 158.802 165.902 158.702 165.902 158.602C165.902 158.402 165.702 158.102 165.702 157.902C165.702 157.702 165.902 157.502 165.902 157.302C165.902 157.102 165.602 157.002 165.902 156.702C166.202 156.402 166.102 156.302 166.002 156.102C166.002 156.102 166.202 155.802 165.602 155.902C166.302 155.402 165.202 155.402 165.302 155.102C165.402 154.802 165.302 154.502 165.102 154.202C165.102 154.202 165.202 154.002 164.802 154.002C164.602 154.002 164.602 154.002 164.702 153.902C165.202 153.502 164.802 153.402 164.902 153.102C164.902 152.802 164.602 152.602 164.902 152.202C165.102 152.002 165.102 151.902 164.502 151.902C164.202 151.902 164.502 151.702 164.402 151.602C164.402 151.602 164.002 151.602 164.002 151.502C164.002 151.502 164.202 151.302 164.302 151.202C163.602 151.002 164.302 150.402 164.002 150.102C163.702 149.802 163.702 149.402 163.602 149.002C163.602 148.802 163.602 148.502 164.702 148.002C165.202 147.802 165.702 147.602 166.002 147.602C166.202 147.602 166.502 147.602 166.602 147.602C166.702 147.602 166.902 147.802 167.002 147.902C167.302 148.102 167.902 148.202 167.702 148.502C167.702 148.602 168.002 148.602 167.502 148.802C168.402 148.902 168.002 149.402 168.102 149.802C168.202 150.102 168.902 150.202 168.702 150.602C169.402 150.602 169.302 150.802 169.202 151.002C168.702 151.802 169.302 152.202 169.402 152.902C169.402 153.502 169.702 154.102 169.802 154.702C169.802 154.802 170.202 154.802 170.002 155.002C169.802 155.202 170.002 155.302 170.002 155.402C170.002 155.502 170.202 155.602 170.002 155.802C169.502 156.402 170.002 156.802 170.002 157.302C170.002 157.802 170.002 158.302 170.402 158.702C170.602 159.002 171.002 159.202 170.902 159.502C170.902 159.602 171.202 159.702 170.702 159.902C170.502 159.902 171.002 159.902 171.102 160.102C171.102 160.302 171.202 160.502 171.302 160.702C171.302 161.002 171.302 161.302 171.502 161.502C171.502 161.702 171.902 161.802 172.002 161.902C172.102 162.102 172.102 162.202 172.102 162.402C172.102 162.602 171.902 162.902 171.902 163.102C171.902 163.302 172.202 163.502 172.002 163.802C171.602 164.302 172.002 164.702 172.002 165.102C172.002 165.502 172.102 165.902 172.302 166.302C172.402 166.502 172.002 166.802 172.102 167.102C172.102 167.102 170.702 167.702 170.202 167.802H170.002C169.502 167.802 168.702 167.802 168.702 167.402C168.702 167.002 168.502 166.702 168.402 166.302L168.602 166.202Z" fill="black"/>
<path d="M162.2 186.203C162.3 185.803 162.5 185.403 162.5 185.003C162.5 184.803 162.8 184.803 162.4 184.503C162.2 184.303 162.8 184.403 162.8 184.203C162.8 183.803 163.1 183.503 163.1 183.103C163.1 182.703 163.1 182.303 163.1 181.903C163.1 181.503 163.6 181.303 163.4 180.803C163.2 180.403 163.8 180.303 163.8 180.003C163.8 179.703 163.8 179.303 164.1 179.103C164.3 178.903 164.6 178.803 164.6 178.603C164.6 178.403 164.3 178.203 164.4 178.103C164.4 178.003 164.8 177.903 164.2 177.603C164.2 177.603 164.2 177.603 164.4 177.603C164.8 177.603 164.9 177.403 164.6 177.203C164.4 177.003 164.5 176.903 164.5 176.803C164.5 176.503 164.6 176.203 164.8 175.903C164.9 175.703 165.2 175.603 165.4 175.403C165.5 175.203 165.4 174.903 165.7 174.703C166.1 174.603 166.1 174.403 166.2 174.203C166.2 174.103 166.6 174.003 166 173.703C166.9 173.703 166 173.003 166.3 172.703C166.6 172.403 166.6 172.003 166.7 171.703C166.7 171.703 166.9 171.603 166.5 171.303C166.4 171.303 166.4 171.103 166.5 171.103C167.2 171.103 166.9 170.603 167.1 170.403C167.3 170.103 167.1 169.703 167.7 169.603C167.9 169.603 168.1 169.403 167.6 169.103C167.4 168.903 167.6 168.903 167.6 168.803C167.6 168.703 167.3 168.503 167.4 168.403C167.4 168.403 167.7 168.403 167.8 168.303C167.3 167.703 168.3 167.503 168.2 167.003C168.2 166.703 168.2 166.603 168.2 166.303C168.2 166.003 168.4 165.703 168.6 165.303C168.8 164.903 169.3 164.503 170.4 165.103C170.9 165.303 171.3 165.703 171.5 166.003C171.6 166.203 171.8 166.403 171.8 166.503C171.8 166.603 171.9 166.803 172 166.903C172.1 167.103 172.6 167.403 172.2 167.703C172.1 167.703 172.3 168.003 171.8 167.903C172.5 168.503 171.8 168.903 171.8 169.303C171.8 169.703 172.2 170.203 171.8 170.503C172.3 170.903 172.2 171.103 171.9 171.203C171 171.703 171.2 172.503 170.9 173.203C170.6 173.903 170.4 174.603 170.1 175.303C170.1 175.403 170.4 175.603 170.1 175.703C169.8 175.703 169.9 176.003 169.9 176.103C169.9 176.203 169.9 176.403 169.7 176.503C168.9 176.803 169.1 177.503 168.8 178.003C168.5 178.503 168.3 179.003 168.3 179.603C168.3 180.003 168.5 180.403 168.3 180.703C168.2 180.803 168.5 181.103 167.9 181.003C167.7 181.003 168.1 181.303 168.1 181.403C168.1 181.603 168 181.903 167.9 182.103C167.8 182.403 167.6 182.703 167.6 183.103C167.6 183.303 167.7 183.603 167.7 183.803C167.7 184.003 167.7 184.203 167.5 184.403C167.3 184.603 167.1 184.803 166.9 185.103C166.8 185.303 166.9 185.703 166.6 185.903C166 186.203 166.1 186.803 165.9 187.203C165.7 187.603 165.5 188.103 165.5 188.603C165.5 188.903 165 189.003 164.9 189.203C164.9 189.303 163.4 189.203 162.9 189.003H162.7C162.3 188.603 161.7 188.203 161.8 187.903C162 187.403 162.1 187.003 162.2 186.503V186.203Z" fill="black"/>
<path d="M151.001 135.801C151.001 136.001 150.901 136.101 150.901 136.301C150.901 136.301 150.601 136.301 151.101 136.601C151.401 136.601 150.701 136.601 150.701 136.601C150.701 136.801 150.701 136.901 150.701 137.101C150.701 137.301 150.901 137.501 150.901 137.601C150.901 137.801 150.601 137.901 150.901 138.101C151.201 138.301 150.601 138.301 150.701 138.401C150.801 138.601 150.901 138.701 150.701 138.801C150.501 138.801 150.301 138.901 150.401 139.001C150.401 139.001 150.801 139.201 150.701 139.201C150.701 139.201 150.401 139.201 151.001 139.401C151.001 139.401 151.001 139.401 150.801 139.401C150.401 139.401 150.401 139.401 150.701 139.601C151.001 139.601 150.901 139.701 150.901 139.801C150.901 139.901 150.901 140.101 150.901 140.201C150.901 140.201 150.601 140.401 150.501 140.501C150.501 140.501 150.701 140.701 150.401 140.801C150.101 140.801 150.101 141.001 150.101 141.101C150.101 141.101 149.801 141.201 150.401 141.301C149.601 141.401 150.601 141.601 150.401 141.801C150.201 142.001 150.401 142.101 150.401 142.301C150.401 142.301 150.201 142.301 150.701 142.401C150.901 142.401 150.901 142.401 150.701 142.401C150.101 142.501 150.501 142.601 150.301 142.801C150.201 142.901 150.501 143.101 150.001 143.201C149.801 143.201 149.701 143.401 150.301 143.401C150.601 143.401 150.301 143.501 150.301 143.601C150.301 143.601 150.601 143.601 150.601 143.701C150.601 143.701 150.401 143.701 150.301 143.801C151.001 144.001 150.101 144.201 150.301 144.401C150.501 144.601 150.401 144.801 150.301 145.001C150.301 145.101 150.101 145.301 148.901 145.401C148.401 145.401 147.801 145.501 147.501 145.501C147.301 145.501 147.001 145.501 147.001 145.501C146.901 145.501 146.801 145.401 146.701 145.301C146.501 145.201 145.901 145.101 146.201 144.901C146.201 144.901 146.001 144.901 146.501 144.701C145.701 144.501 146.201 144.301 146.101 144.101C146.101 143.901 145.401 143.801 145.701 143.601C145.101 143.601 145.201 143.401 145.401 143.301C146.101 142.901 145.601 142.601 145.701 142.201C145.701 141.801 145.701 141.501 145.701 141.101C145.701 141.101 145.401 141.001 145.701 140.901C146.001 140.901 145.701 140.701 145.701 140.701C145.701 140.701 145.601 140.501 145.701 140.501C146.401 140.301 146.001 139.901 146.101 139.701C146.201 139.401 146.301 139.101 146.101 138.801C146.101 138.601 145.701 138.401 145.901 138.201C145.901 138.201 145.601 138.001 146.201 138.001C146.401 138.001 145.901 137.901 145.901 137.801C145.901 137.701 145.901 137.601 145.901 137.401C145.901 137.201 146.001 137.101 145.901 136.901C145.901 136.801 145.701 136.601 145.601 136.501C145.601 136.401 145.601 136.301 145.601 136.201C145.701 136.101 145.901 136.001 146.001 135.901C146.001 135.801 145.901 135.601 146.201 135.501C146.801 135.401 146.601 135.101 146.701 134.801C146.801 134.601 146.901 134.401 146.901 134.101C146.901 133.901 147.401 134.001 147.401 133.801C147.401 133.801 148.901 134.101 149.301 134.201H149.501C149.901 134.501 150.601 134.801 150.501 134.901C150.401 135.101 150.401 135.301 150.301 135.501L151.001 135.801Z" fill="black"/>
<path d="M162.3 135.801C162.3 136.001 162.2 136.101 162.2 136.301C162.2 136.301 161.9 136.301 162.4 136.601C162.7 136.601 162 136.601 162 136.601C162 136.801 162 136.901 162 137.101C162 137.301 162.2 137.501 162.2 137.601C162.2 137.801 161.9 137.901 162.2 138.101C162.5 138.301 161.9 138.301 162 138.401C162.1 138.601 162.2 138.701 162 138.801C161.8 138.801 161.6 138.901 161.7 139.001C161.7 139.001 162.1 139.201 162 139.201C162 139.201 161.7 139.201 162.3 139.401C162.3 139.401 162.3 139.401 162.1 139.401C161.7 139.401 161.7 139.401 162 139.601C162.3 139.601 162.2 139.701 162.2 139.801C162.2 139.901 162.2 140.101 162.2 140.201C162.2 140.201 161.9 140.401 161.8 140.501C161.8 140.501 162 140.701 161.7 140.801C161.4 140.801 161.4 141.001 161.4 141.101C161.4 141.101 161.1 141.201 161.7 141.301C160.9 141.401 161.9 141.601 161.7 141.801C161.5 142.001 161.7 142.101 161.7 142.301C161.7 142.301 161.5 142.301 162 142.401C162.2 142.401 162.2 142.401 162 142.401C161.4 142.501 161.8 142.601 161.6 142.801C161.5 142.901 161.8 143.101 161.3 143.201C161.1 143.201 161 143.401 161.6 143.401C161.9 143.401 161.6 143.501 161.6 143.601C161.6 143.601 161.9 143.601 161.9 143.701C161.9 143.701 161.7 143.701 161.6 143.801C162.3 144.001 161.4 144.201 161.6 144.401C161.8 144.601 161.7 144.801 161.6 145.001C161.6 145.101 161.4 145.301 160.2 145.401C159.7 145.401 159.1 145.501 158.8 145.501C158.6 145.501 158.3 145.501 158.3 145.501C158.2 145.501 158.1 145.401 158 145.301C157.8 145.201 157.2 145.101 157.5 144.901C157.5 144.901 157.3 144.901 157.8 144.701C157 144.501 157.5 144.301 157.4 144.101C157.4 143.901 156.7 143.801 157 143.601C156.4 143.601 156.5 143.401 156.7 143.301C157.4 142.901 156.9 142.601 157 142.201C157 141.801 157 141.501 157 141.101C157 141.101 156.7 141.001 157 140.901C157.3 140.901 157 140.701 157 140.701C157 140.701 156.9 140.501 157 140.501C157.7 140.301 157.3 139.901 157.4 139.701C157.5 139.401 157.6 139.101 157.4 138.801C157.4 138.601 157 138.401 157.2 138.201C157.2 138.201 156.9 138.001 157.5 138.001C157.7 138.001 157.2 137.901 157.2 137.801C157.2 137.701 157.2 137.601 157.2 137.401C157.2 137.201 157.3 137.101 157.2 136.901C157.2 136.801 157 136.601 156.9 136.501C156.9 136.401 156.9 136.301 156.9 136.201C157 136.101 157.2 136.001 157.3 135.901C157.3 135.801 157.2 135.601 157.5 135.501C158.1 135.401 157.9 135.101 158 134.801C158.1 134.601 158.2 134.401 158.2 134.101C158.2 133.901 158.7 134.001 158.7 133.801C158.7 133.801 160.2 134.101 160.6 134.201H160.8C161.2 134.501 161.9 134.801 161.8 134.901C161.7 135.101 161.7 135.301 161.6 135.501L162.3 135.801Z" fill="black"/>
<path d="M162.601 169.701C162.401 169.701 162.101 169.801 161.901 169.901C161.901 169.901 161.701 169.701 161.701 170.301C161.701 170.601 161.501 170.001 161.401 170.001C161.201 170.101 160.901 170.001 160.701 170.201C160.501 170.201 160.301 170.601 160.001 170.601C159.801 170.601 159.501 170.401 159.301 170.701C159.101 171.001 158.901 170.501 158.701 170.701C158.501 170.801 158.301 170.901 158.101 170.701C158.001 170.501 157.801 170.301 157.701 170.401C157.701 170.401 157.501 170.801 157.401 170.701C157.401 170.701 157.201 170.401 157.101 171.001C157.101 171.001 157.101 171.001 157.101 170.801C157.101 170.401 156.901 170.401 156.801 170.701C156.701 171.001 156.601 170.901 156.501 170.901C156.301 170.901 156.101 170.901 155.901 170.901C155.801 170.901 155.701 170.601 155.501 170.501C155.401 170.501 155.101 170.701 155.101 170.301C155.101 170.001 154.901 169.901 154.801 169.901C154.801 169.901 154.801 169.601 154.501 170.201C154.501 169.401 154.001 170.301 153.801 170.001C153.601 169.701 153.401 169.801 153.101 169.701C153.101 169.701 153.101 169.501 152.801 169.901C152.801 170.001 152.601 170.001 152.701 169.901C152.701 169.201 152.501 169.501 152.301 169.401C152.201 169.201 151.801 169.401 151.901 168.801C151.901 168.601 151.901 168.401 151.501 168.801C151.301 169.001 151.401 168.801 151.301 168.801L151.001 169.001C151.001 169.001 151.001 168.701 151.001 168.601C150.401 169.001 150.601 168.101 150.301 168.001C149.901 168.001 149.701 167.701 149.501 167.401C149.501 167.201 149.401 167.001 150.101 166.101C150.401 165.701 150.801 165.301 151.101 165.101C151.301 165.001 151.501 164.801 151.601 164.801C151.701 164.801 151.901 164.801 152.001 164.701C152.201 164.701 152.701 164.301 152.601 164.701C152.601 164.701 152.801 164.601 152.601 165.001C153.201 164.501 153.101 165.001 153.301 165.001C153.501 165.001 153.901 164.601 153.901 165.001C154.301 164.501 154.301 164.601 154.301 164.801C154.301 165.501 154.801 165.301 155.001 165.501C155.301 165.701 155.601 165.701 155.901 165.901C155.901 165.901 156.101 165.601 156.101 165.901C156.101 166.201 156.201 165.901 156.301 166.001H156.501C156.601 166.701 157.001 166.401 157.201 166.501C157.501 166.501 157.701 166.701 158.001 166.501C158.201 166.501 158.301 166.101 158.501 166.201C158.501 166.201 158.601 165.901 158.701 166.501C158.701 166.701 158.701 166.201 158.801 166.201C158.901 166.201 159.001 166.201 159.101 166.201C159.201 166.201 159.401 166.201 159.501 166.201C159.501 166.201 159.701 165.901 159.701 165.801C159.701 165.801 159.901 165.801 160.001 165.801C160.101 165.801 160.301 166.001 160.401 166.101C160.501 166.101 160.601 165.801 160.801 166.101C161.101 166.501 161.301 166.201 161.501 166.201C161.701 166.201 162.001 166.201 162.101 166.001C162.101 165.901 162.501 166.301 162.601 166.301C162.601 166.301 163.301 167.601 163.501 168.101V168.301C163.501 168.801 163.701 169.501 163.501 169.501C163.201 169.501 162.901 169.701 162.701 169.801L162.601 169.701Z" fill="black"/>
<path d="M169.999 121.599C168.399 121.999 166.699 122.399 165.099 122.999C164.499 123.199 163.799 123.099 163.299 123.799C163.099 124.099 162.299 123.699 161.699 123.799C160.199 124.299 158.599 124.599 157.099 125.099C155.599 125.599 154.199 126.199 152.699 126.699C151.199 127.199 149.599 127.299 148.299 127.999C147.099 128.599 145.899 128.399 144.699 128.899C143.499 129.399 142.199 129.799 140.899 129.899C139.999 129.899 138.999 129.999 138.199 130.399C137.699 130.599 137.199 131.099 136.599 131.199C135.999 131.299 135.299 131.199 134.999 131.999C134.999 131.999 134.699 131.999 134.499 131.999C133.799 131.799 133.099 131.999 132.599 132.399C132.199 132.799 131.699 132.899 131.299 132.999C130.099 133.399 128.799 133.799 127.499 134.099C126.499 134.299 125.499 134.399 124.599 134.599C123.599 134.799 122.599 135.399 121.599 135.399C120.599 135.399 119.699 135.599 118.899 135.899C118.399 135.999 117.699 135.899 117.499 136.699C117.499 136.699 117.299 136.799 117.199 136.699C115.499 136.299 114.399 137.799 112.899 137.999C111.299 138.199 109.799 138.799 108.299 139.299C107.899 139.399 107.399 139.299 107.199 139.899C107.199 140.099 106.699 140.199 106.499 140.199C105.199 139.899 104.099 140.699 102.899 140.899C101.499 141.199 100.299 141.899 98.7991 141.799C98.1991 141.799 97.3991 141.799 96.8991 142.699C96.6991 143.099 95.8991 142.999 95.4991 143.199C95.0991 143.399 94.7991 143.699 94.3991 143.899C94.0991 143.999 93.6991 143.899 93.2991 143.899C93.1991 143.899 93.0991 143.899 92.9991 143.899C91.2991 145.099 89.0991 144.899 87.1991 145.599C85.2991 146.399 83.2991 146.899 81.2991 147.399C80.1991 147.699 78.9991 147.899 77.9991 146.999C77.4991 146.599 77.2991 146.099 77.6991 145.599C77.9991 145.299 78.2991 144.899 78.5991 144.699C79.1991 144.399 79.7991 144.099 80.2991 143.799C81.4991 143.199 82.5991 142.299 83.8991 142.199C84.2991 142.199 84.6991 141.699 85.1991 142.199C85.1991 142.199 85.3991 142.199 85.4991 142.199C86.9991 140.899 88.8991 140.799 90.6991 140.299C92.1991 139.799 93.3991 138.699 94.9991 138.499C95.5991 137.599 96.5991 137.499 97.4991 137.399C100.599 137.099 103.499 135.799 106.499 134.999C109.499 134.199 112.499 133.199 115.499 132.299C115.999 132.199 116.399 131.699 116.999 131.799C117.599 131.799 118.299 131.499 118.999 131.299C119.599 131.099 120.199 130.799 120.799 130.799C123.299 130.799 125.599 129.699 127.999 129.099C130.399 128.499 132.799 127.899 135.099 126.999C136.499 126.499 137.799 125.799 139.299 125.499C139.899 125.399 140.499 124.899 141.299 125.299C141.499 125.399 141.999 124.799 142.399 124.699C143.399 124.399 144.399 124.099 145.399 123.799C146.799 123.399 148.199 123.099 149.499 122.599C150.299 122.299 151.099 121.899 151.899 121.599C152.799 121.299 153.599 121.099 154.499 120.899C155.599 120.699 156.799 120.599 157.899 120.299C159.099 119.999 160.199 119.499 161.399 119.399C163.599 119.399 165.599 118.499 167.599 117.999C169.699 117.499 171.699 116.999 173.699 116.299C174.799 115.899 175.999 116.099 177.099 115.799C177.599 115.699 178.699 116.899 178.599 117.399C178.599 117.499 178.599 117.599 178.399 117.699C177.399 118.399 176.599 119.399 175.299 119.699C173.399 120.099 171.599 120.699 169.699 121.199L169.999 121.599Z" fill="black"/>
<path d="M157.2 115.998C157 115.998 156.8 115.998 156.7 116.198C156.7 116.198 156.5 115.998 156.6 116.498C156.6 116.798 156.4 116.198 156.3 116.198C156.1 116.298 155.9 116.198 155.8 116.398C155.6 116.498 155.5 116.798 155.4 116.898C155.3 116.998 155 116.798 154.9 117.098C154.9 117.398 154.6 116.998 154.5 117.098C154.4 117.298 154.3 117.398 154.1 117.098C154 116.998 153.8 116.798 153.7 116.898V117.298C153.7 117.298 153.5 117.098 153.6 117.698C153.6 117.698 153.6 117.698 153.6 117.598C153.4 117.198 153.3 117.298 153.4 117.598C153.4 117.898 153.4 117.898 153.4 117.898C153.3 117.898 153.1 117.998 153 117.998C152.9 117.998 152.7 117.798 152.6 117.798C152.5 117.798 152.4 118.098 152.2 117.798C152 117.498 151.9 117.598 151.8 117.598C151.8 117.598 151.6 117.398 151.8 117.998C151.4 117.198 151.5 118.298 151.3 118.198C151.1 117.998 150.9 118.198 150.8 118.298C150.8 118.298 150.7 118.198 150.8 118.598C150.8 118.798 150.8 118.798 150.8 118.598C150.5 117.998 150.5 118.398 150.3 118.398C150.1 118.398 150 118.598 149.8 118.198C149.7 117.998 149.6 117.898 149.6 118.498C149.6 118.798 149.5 118.498 149.5 118.598C149.5 118.598 149.5 118.898 149.5 118.998C149.5 118.998 149.4 118.798 149.3 118.698C149.3 119.398 148.8 118.598 148.6 118.798C148.4 118.998 148.2 118.998 147.9 118.998C147.8 118.998 147.6 118.798 147.2 117.798C147 117.298 146.9 116.798 146.9 116.398C146.9 116.198 146.9 115.898 146.9 115.898C146.9 115.798 146.9 115.598 147 115.498C147 115.298 147 114.698 147.3 114.998C147.3 114.998 147.3 114.798 147.5 115.198C147.5 114.398 147.8 114.798 148 114.698C148.2 114.698 148.2 113.998 148.4 114.198C148.4 113.598 148.4 113.598 148.6 113.798C149.1 114.398 149.3 113.798 149.7 113.798C150.1 113.798 150.4 113.598 150.7 113.598C150.7 113.598 150.7 113.198 150.9 113.498C151 113.698 151.1 113.498 151.1 113.498C151.1 113.498 151.2 113.298 151.3 113.498C151.7 114.098 151.9 113.598 152.2 113.598C152.5 113.598 152.8 113.598 153 113.398C153.1 113.298 153.2 112.898 153.4 112.998C153.4 112.998 153.4 112.698 153.7 113.198C153.7 113.398 153.7 112.898 153.7 112.898C153.7 112.898 153.9 112.898 154 112.798C154.2 112.798 154.3 112.798 154.5 112.698C154.5 112.698 154.6 112.398 154.7 112.298C154.7 112.298 154.9 112.198 155 112.298C155.1 112.298 155.3 112.498 155.5 112.498C155.6 112.498 155.7 112.198 155.9 112.498C156.3 112.898 156.4 112.598 156.7 112.598C156.9 112.598 157.2 112.598 157.4 112.398C157.5 112.298 157.8 112.798 157.9 112.698C157.9 112.698 158.4 114.098 158.5 114.598V114.798C158.5 115.298 158.5 115.998 158.5 115.998C158.3 115.998 158.1 115.998 157.9 116.198L157.2 115.998Z" fill="black"/>
<path d="M122.8 162.598C121.8 162.298 120.8 161.998 119.8 161.798C119.4 161.798 119.1 161.398 118.6 161.798C118.3 161.998 118.1 161.298 117.7 161.198C116.6 160.898 115.5 160.398 114.4 159.498C113.4 158.698 112.5 157.698 112 156.498C111.5 155.398 111.6 154.098 111.2 152.998C110.9 151.998 111.5 151.098 111.6 150.198C111.6 149.198 112 148.198 112.6 147.398C113.1 146.898 113.6 146.398 113.9 145.798C114.1 145.398 114.1 144.898 114.4 144.598C114.7 144.298 115.2 144.098 115.1 143.398C115.1 143.398 115.3 143.298 115.4 143.298C116 143.298 116.5 142.898 116.7 142.498C116.9 142.098 117.2 141.898 117.6 141.698C118.5 141.198 119.6 140.798 120.6 140.698C121.4 140.698 122.2 140.698 122.9 140.898C123.7 140.898 124.6 140.898 125.2 141.298C125.8 141.798 126.4 141.998 127.1 142.198C127.5 142.398 127.7 142.798 128.3 142.398C128.3 142.398 128.5 142.398 128.5 142.498C128.5 142.598 128.6 142.698 128.7 142.798V142.898C128.7 142.898 128.9 142.898 128.9 142.698C129 143.098 129.1 143.098 129.1 143.098C129.1 143.098 129.3 143.698 128.9 142.498C128.8 142.098 128.7 142.098 128.9 142.298C129.2 142.998 129.2 142.998 129.2 142.998V142.798C129.2 142.698 129.2 142.598 129.5 142.598C129.7 142.598 129.8 142.398 129.3 142.198C129 141.998 129.3 141.598 129.3 141.298C129.3 140.998 129 140.798 129 140.498C129 140.298 129.3 140.098 129.4 139.898C129.4 139.898 129.4 139.798 129.4 139.698C128.8 138.398 129.9 137.198 129.8 135.998C129.8 134.698 130 133.498 130.2 132.198C130.3 131.498 130.6 130.798 131.8 130.498C132.3 130.398 132.9 130.498 133.2 130.798C133.4 130.998 133.6 131.298 133.6 131.598C133.6 131.998 133.7 132.398 133.8 132.798C133.8 133.598 134.3 134.498 134 135.198C133.9 135.398 134.2 135.798 133.6 135.898C133.6 135.898 133.5 135.998 133.6 136.098C134.3 137.298 133.6 138.298 133.6 139.498C133.6 140.398 134.1 141.398 133.8 142.298C133.8 142.298 133.9 142.398 134 142.498C134 142.698 134 142.698 134 142.798C134 143.098 134 143.398 134 143.698C134 144.298 133.9 144.798 133.7 145.298C133.4 146.398 133.3 147.398 133.2 148.598C132.9 148.598 132.6 148.798 132.3 148.898C132 148.998 131.9 149.098 131.7 149.198C131.5 149.198 131.4 149.398 131.3 149.398C131.2 149.398 131 149.598 131 149.398C131 149.398 131 149.398 130.9 149.298C130.6 149.098 130.1 148.998 128.4 149.098L127.8 148.098L127.5 147.598C127.4 147.398 127.3 147.298 127.2 147.198L126.6 146.698L126.3 146.398H126.1C126.1 146.198 126.1 146.198 126.1 146.198C125.9 146.098 125.5 146.198 125.4 145.898C125.3 145.498 124.8 145.598 124.5 145.498C124.2 145.398 123.9 145.498 123.7 145.198C123.2 144.798 122.6 144.598 122 144.698C121.4 144.698 120.8 144.898 120.3 145.098C119.2 145.398 118.1 145.998 117.4 147.098C117 147.698 116.8 148.498 116.4 149.098C116.2 149.298 116.4 149.798 115.7 149.798C115.5 149.798 115.9 150.298 115.8 150.398C115.8 150.598 115.8 150.898 115.7 151.098V151.798C115.5 152.498 115.5 153.098 115.7 153.698C115.8 154.098 116.2 154.398 116.4 154.598C116.6 154.898 116.8 155.198 116.9 155.398C117.1 155.698 117.2 156.098 117.6 156.398C118 156.698 118.7 156.598 119.2 157.098C120.3 157.898 121.6 157.998 122.9 158.398C124.1 158.798 125.4 159.198 126.6 159.398C127.3 159.498 127.8 160.198 128.5 160.398C128.8 160.398 128.9 161.998 128.6 162.498C128.6 162.498 128.5 162.698 128.4 162.698C127.6 162.998 126.8 163.498 126 163.198C124.9 162.798 123.7 162.598 122.6 162.298L122.8 162.598Z" fill="black"/>
<path d="M149.099 168.599C148.699 168.399 148.299 168.099 147.899 167.899C147.699 167.899 147.699 167.499 147.299 167.899C147.099 168.099 147.299 167.499 147.099 167.399C146.699 167.199 146.399 166.999 145.999 166.799C145.799 166.799 145.599 166.799 145.299 166.599C144.999 166.499 144.599 166.399 144.299 166.199C143.599 165.799 143.299 165.299 142.399 164.999C141.599 164.699 141.799 164.199 141.399 163.899C140.899 163.599 140.499 163.099 140.599 162.699C140.599 162.399 140.799 162.199 140.599 161.899C140.399 161.699 139.999 161.499 139.899 161.299C139.899 161.099 140.099 160.899 139.199 160.599C139.199 160.599 139.199 160.599 139.299 160.599C139.799 160.599 139.799 160.399 139.299 160.199C138.799 159.899 138.799 159.799 138.699 159.599C139.299 159.299 139.899 159.199 140.699 159.099C141.299 159.099 142.099 159.099 142.599 158.999C143.099 158.999 143.499 158.599 144.199 158.699C144.899 158.799 145.199 158.699 145.599 158.599C145.799 158.599 146.199 158.699 146.199 158.099C146.199 158.099 146.199 158.099 146.299 158.099C146.899 158.799 146.899 157.599 147.299 157.699C147.699 157.699 147.999 157.499 148.299 157.299C148.299 157.299 148.599 157.299 148.399 156.899C148.399 156.699 148.399 156.699 148.499 156.799C148.999 157.199 149.099 156.799 149.399 156.799C149.699 156.799 149.799 156.299 150.399 156.499C150.599 156.499 150.899 156.499 150.699 155.999C150.699 155.699 150.999 155.799 151.099 155.699C151.099 155.599 151.099 155.299 151.299 155.199C151.399 155.199 151.599 155.199 151.799 155.299C151.799 155.299 151.799 155.299 151.899 155.299C152.299 154.399 153.499 154.899 154.299 154.699C155.199 154.499 156.299 154.699 157.099 155.399C157.499 155.699 157.899 156.299 157.099 157.299C156.799 157.699 156.299 158.099 156.099 158.199C155.899 158.199 155.699 158.399 155.599 158.399C155.499 158.399 155.299 158.399 155.199 158.399C154.899 158.399 154.699 158.999 154.699 158.699C154.699 158.699 154.699 158.899 154.599 158.399C154.499 158.799 154.399 158.899 154.299 158.899C154.299 158.899 153.999 158.899 153.899 158.899C153.699 159.099 153.699 159.699 153.299 159.699C153.499 160.299 153.299 160.399 152.899 160.299C151.799 160.299 151.199 161.099 150.299 161.399C149.399 161.699 148.599 162.099 147.699 162.399C147.499 162.399 147.699 162.799 147.499 162.499C147.399 162.299 147.499 162.499 147.399 162.499C147.399 162.499 147.399 162.599 147.299 162.499C146.999 162.299 146.799 162.199 146.699 162.299C146.599 162.299 146.699 162.399 146.499 162.399H146.299C146.099 162.399 145.799 162.399 146.199 162.599C146.499 162.799 147.099 162.799 146.899 162.899C146.899 162.899 147.399 162.899 146.499 162.999C146.299 162.999 146.999 162.999 146.999 162.999C147.099 162.999 146.999 162.999 147.099 162.999C147.099 162.999 147.099 163.099 147.299 162.999L147.599 162.799C147.599 162.799 147.599 162.799 147.699 162.899C147.899 163.099 148.099 163.399 148.299 163.599C148.499 163.799 148.999 163.699 149.099 164.099C149.299 164.799 149.899 164.899 150.399 165.199C150.899 165.499 151.299 165.799 151.899 165.999C152.199 165.999 152.199 166.699 152.499 166.799C152.599 166.799 152.099 168.299 151.799 168.699C151.799 168.699 151.699 168.899 151.599 168.899C151.099 169.199 150.499 169.699 150.199 169.399C149.799 169.099 149.299 168.899 148.899 168.599H149.099Z" fill="black"/>
<path d="M159 161.399C159 161.399 159 161.199 158.9 161.199C158.9 161.199 159.1 160.999 158.6 161.199C158.4 161.299 158.9 160.999 158.9 160.999C158.8 160.999 158.9 160.799 158.7 160.799C158.7 160.799 158.4 160.799 158.3 160.799C158.3 160.799 158.4 160.499 158.1 160.599C157.8 160.599 158.2 160.399 158.1 160.399C158 160.399 157.9 160.399 158.1 160.199C158.2 160.099 158.4 159.899 158.2 159.899C158.2 159.899 157.8 160.099 157.8 159.999C157.8 159.999 158 159.799 157.5 160.099C157.5 160.099 157.5 160.099 157.6 159.999C157.9 159.699 157.9 159.699 157.6 159.899C157.4 159.999 157.4 159.999 157.4 159.899C157.4 159.899 157.3 159.899 157.3 159.699L157.5 159.399C157.5 159.399 157.3 159.399 157.5 159.199C157.7 158.999 157.7 158.899 157.6 158.899C157.6 158.899 157.8 158.699 157.3 159.099C157.9 158.499 157 159.099 157.1 158.999C157.1 158.799 157.1 158.799 157 158.799C157 158.799 157 158.599 156.8 158.999C156.7 159.099 156.7 159.099 156.8 158.999C157.2 158.499 156.8 158.699 156.9 158.599C156.9 158.499 156.7 158.599 156.9 158.199C157 157.999 157.1 157.899 156.6 158.299C156.4 158.499 156.6 158.299 156.5 158.299C156.5 158.299 156.3 158.499 156.2 158.499C156.2 158.499 156.3 158.299 156.4 158.199C155.9 158.599 156.4 157.899 156.2 157.999C156 157.999 156 157.999 155.9 157.799C155.9 157.799 155.9 157.499 156.6 156.599C156.9 156.199 157.2 155.699 157.4 155.499C157.6 155.299 157.7 155.199 157.8 155.099C157.8 155.099 158 154.999 158.1 154.899C158.3 154.799 158.7 154.399 158.6 154.699C158.6 154.699 158.8 154.599 158.5 154.999C159.1 154.499 158.9 154.999 159 154.999C159.1 154.999 159.6 154.599 159.5 154.999C160 154.599 160 154.699 159.9 154.899C159.6 155.599 160.1 155.399 160.2 155.599C160.3 155.799 160.5 155.899 160.7 156.199C160.7 156.199 161 155.999 160.8 156.199C160.6 156.399 160.8 156.299 160.8 156.399C160.8 156.399 161 156.399 160.8 156.499C160.4 157.099 160.8 156.999 160.8 157.099C160.8 157.299 160.9 157.499 161.2 157.499C161.3 157.499 161.7 157.499 161.7 157.499C161.7 157.499 162 157.499 161.5 157.799C161.4 157.899 161.8 157.699 161.8 157.799C161.8 157.799 161.9 157.899 161.9 157.999C161.9 157.999 161.9 158.199 162.1 158.299C162.1 158.299 162.4 158.299 162.5 158.299C162.5 158.299 162.6 158.299 162.6 158.499C162.6 158.599 162.4 158.799 162.4 158.899C162.4 158.999 162.7 158.899 162.4 159.199C162 159.599 162.4 159.599 162.4 159.799C162.4 159.999 162.4 160.099 162.6 160.199C162.7 160.199 162.3 160.499 162.3 160.599C162.3 160.599 161 161.199 160.5 161.399H160.3C159.8 161.499 159.1 161.699 159.2 161.599C159.2 161.499 159.2 161.399 159.1 161.299L159 161.399Z" fill="black"/>
<path d="M166.1 158.602V158.502C166.1 158.502 166.3 158.302 165.9 158.702C165.7 158.902 166.2 158.402 166.1 158.402C166.1 158.402 166.1 158.402 166 158.402C166 158.402 165.8 158.602 165.7 158.702C165.7 158.702 165.7 158.402 165.7 158.502C165.7 158.602 165.7 158.702 165.7 158.502C165.7 158.302 165.7 158.102 165.7 158.202V158.602C165.7 158.602 165.7 158.302 165.7 158.902C165.7 158.902 165.7 158.902 165.7 158.802C165.6 158.402 165.5 158.502 165.6 158.802C165.6 159.102 165.6 159.102 165.6 159.102C165.6 159.102 165.4 159.202 165.3 159.202C165.3 159.202 165.1 159.002 165 159.002C165 159.002 165 159.302 164.8 159.002C164.6 158.802 164.5 158.802 164.5 158.802C164.5 158.802 164.3 158.602 164.5 159.202C164 158.502 164.5 159.502 164.3 159.402C164.1 159.302 164.1 159.402 164.1 159.502C164.1 159.502 163.9 159.402 164.2 159.802C164.3 159.902 164.3 160.002 164.2 159.802C163.7 159.402 163.9 159.802 163.8 159.702C163.7 159.702 163.8 159.902 163.4 159.702C163.2 159.602 163.1 159.602 163.6 159.902L163.9 160.102C163.9 160.102 163.7 160.102 163.6 160.002C164.2 160.402 163.3 160.002 163.5 160.202C163.7 160.302 163.5 160.302 163.5 160.402C163.5 160.402 163.3 160.402 162.1 160.402C161.6 160.402 161 160.402 160.7 160.402C160.5 160.402 160.2 160.302 160.2 160.202C160.2 160.202 160 160.002 159.9 159.902C159.7 159.702 159.3 159.402 159.6 159.202C159.7 159.202 159.4 159.002 159.9 159.102C159.2 158.602 159.9 158.502 159.9 158.202C159.9 158.002 159.5 157.402 159.9 157.402C159.5 156.902 159.7 156.802 159.9 156.902C160.7 156.902 160.7 156.302 161.1 156.102C161.5 155.902 161.8 155.502 162.2 155.402C162.2 155.402 162.2 155.002 162.4 155.202C162.6 155.402 162.6 155.202 162.7 155.202C162.7 155.202 162.7 155.002 162.9 155.202C163.5 155.702 163.6 155.202 163.9 155.202C164.2 155.202 164.4 155.202 164.9 154.802C165.1 154.602 165.3 154.202 165.6 154.302C165.7 154.302 165.8 154.002 165.9 154.602C165.9 154.802 166 154.302 166.1 154.302C166.3 154.302 166.5 154.302 166.7 154.302H166.9C167.1 154.302 167.3 154.402 167.5 154.402C167.7 154.402 167.9 154.202 168.1 154.302C168.3 154.302 168.4 154.402 168.6 154.502C168.8 154.702 168.8 155.002 168.9 155.202C169 155.402 169.4 155.302 169.3 155.702C169.2 156.302 169.6 156.402 169.7 156.802C169.8 157.102 170 157.502 170.1 157.702C170.2 157.802 169.8 158.102 169.9 158.202C169.9 158.202 168.6 158.802 168.1 159.002H167.9C167.4 159.002 166.7 159.202 166.7 159.102V158.902L166.1 158.602Z" fill="black"/>
<path d="M169.499 168.798C169.399 168.798 169.199 168.798 169.099 168.898C169.099 168.898 168.899 168.698 169.099 169.198C169.099 169.498 168.899 168.898 168.899 168.898C168.799 168.998 168.599 168.898 168.499 168.998C168.399 168.998 168.299 169.298 168.199 169.398C168.099 169.398 167.899 169.198 167.799 169.598C167.799 169.898 167.499 169.398 167.499 169.598C167.499 169.698 167.299 169.898 167.199 169.598C167.099 169.398 166.999 169.198 166.899 169.398V169.798C166.899 169.798 166.699 169.498 166.899 170.198C166.899 170.198 166.899 170.198 166.899 170.098C166.799 169.698 166.699 169.698 166.699 170.098C166.699 170.398 166.699 170.298 166.699 170.398C166.599 170.398 166.499 170.498 166.399 170.398C166.399 170.398 166.199 170.098 166.099 170.098C166.099 170.098 165.999 170.398 165.799 170.098C165.699 169.798 165.599 169.798 165.499 169.798C165.499 169.798 165.399 169.498 165.499 170.198C165.299 169.398 165.299 170.498 165.099 170.298C164.899 170.098 164.799 170.298 164.699 170.298C164.699 170.298 164.699 170.098 164.699 170.598C164.699 170.798 164.699 170.798 164.699 170.598C164.499 169.998 164.499 170.398 164.299 170.298C164.199 170.198 164.099 170.498 163.899 169.998C163.899 169.798 163.799 169.698 163.699 170.298C163.699 170.598 163.699 170.298 163.599 170.298V170.598C163.599 170.598 163.599 170.398 163.499 170.298C163.399 170.998 163.099 170.098 162.999 170.298C162.799 170.498 162.599 170.398 162.499 170.298C162.399 170.298 162.299 170.098 162.199 168.898C162.199 168.398 162.199 167.798 162.199 167.498C162.199 167.298 162.199 166.998 162.199 166.998C162.199 166.898 162.199 166.798 162.299 166.698C162.299 166.498 162.499 165.998 162.599 166.198C162.599 166.198 162.599 165.998 162.699 166.498C162.799 165.698 162.999 166.198 163.099 166.098C163.199 166.098 163.299 165.398 163.399 165.698C163.399 165.098 163.399 165.198 163.599 165.398C163.899 166.098 164.099 165.598 164.299 165.598C164.499 165.598 164.799 165.598 164.999 165.598C164.999 165.598 164.999 165.198 165.099 165.598C165.099 165.898 165.199 165.598 165.299 165.598C165.299 165.598 165.299 165.498 165.399 165.598C165.699 166.198 165.799 165.798 165.999 165.798C166.199 165.798 166.399 165.798 166.499 165.698C166.499 165.598 166.599 165.198 166.799 165.298C166.799 165.298 166.799 164.998 166.999 165.598C166.999 165.798 166.999 165.298 166.999 165.298C166.999 165.298 167.099 165.298 167.199 165.298C167.299 165.298 167.399 165.298 167.499 165.298C167.499 165.298 167.499 164.998 167.599 164.898C167.599 164.898 167.699 164.898 167.799 164.898C167.899 164.898 167.999 165.098 168.099 165.198C168.199 165.198 168.199 164.898 168.399 165.198C168.699 165.598 168.799 165.398 168.899 165.398C169.099 165.398 169.199 165.398 169.299 165.198C169.299 165.198 169.599 165.598 169.699 165.498C169.699 165.498 170.299 166.898 170.399 167.298V167.498C170.399 167.998 170.599 168.698 170.399 168.698C170.199 168.698 170.099 168.698 169.899 168.798H169.499Z" fill="black"/>
</svg>
