<svg width="300" height="300" viewBox="0 0 300 300" fill="none" xmlns="http://www.w3.org/2000/svg">
<path d="M176.6 132.902C174.9 131.102 173.2 129.202 171.5 127.402C170.8 126.702 170.4 125.902 169.3 125.502C168.8 125.302 168.6 124.202 168 123.602C166.4 121.902 164.8 120.202 163.2 118.502C161.6 116.902 160 115.702 158.4 115.202C156.8 114.602 154.7 114.102 152.5 114.402C150.7 114.602 149 114.102 147.3 114.302C145.4 114.502 143.5 114.702 141.7 114.602C140.4 114.602 139 114.502 137.7 114.802C136.9 115.002 136.2 115.402 135.3 115.502C134.5 115.602 133.5 115.502 132.9 116.302C132.9 116.302 132.5 116.302 132.3 116.302C131.3 116.102 130.3 116.302 129.6 116.802C129 117.202 128.3 117.402 127.7 117.502C125.9 118.002 124.1 118.502 122.5 119.102C121.3 119.502 120.1 119.902 119.1 120.502C118 121.202 117.5 122.302 116.7 123.102C115.9 123.902 115.5 125.002 115.2 126.202C115 126.902 114.6 127.602 115.2 128.302C115.2 128.302 115.2 128.602 115.2 128.702C114.1 130.702 115.2 132.902 115 135.002C114.8 137.302 115 139.602 115 141.902C115 142.502 114.9 143.202 115.4 143.702C115.6 143.902 115.6 144.502 115.5 144.802C115 146.502 115.5 148.302 115.5 150.102C115.5 152.102 116.1 154.102 115.8 156.102C115.7 157.002 115.8 158.102 116.4 159.102C116.7 159.502 116.6 160.502 116.8 161.302C116.9 161.902 117.3 162.402 117.4 163.002C117.4 163.502 117.4 164.002 117.3 164.602C117.3 164.802 117.3 164.902 117.3 165.102C118.4 167.902 118 170.902 118.7 173.802C119.4 176.702 119.9 179.702 120.3 182.602C120.6 184.202 120.7 185.902 119.8 187.302C119.4 187.902 118.8 188.002 118.4 187.302C118.1 186.802 117.7 186.302 117.6 185.702C117.3 184.802 117 183.902 116.8 183.002C116.3 181.202 115.4 179.402 115.3 177.402C115.3 176.802 114.9 176.102 115.3 175.502C115.3 175.502 115.3 175.202 115.3 175.002C114.1 172.502 114.1 169.702 113.6 167.102C113.2 164.802 112.2 162.702 112.2 160.402C111.4 159.202 111.3 157.702 111.4 156.402C111.5 151.802 110.7 147.302 110.6 142.702C110.6 140.402 110.5 138.002 110.5 135.702C110.5 133.402 110.5 131.002 110.8 128.602C110.8 127.802 110.6 127.002 111.1 126.002C111.5 125.102 111.7 123.902 112.1 122.802C112.5 121.802 112.9 120.702 113.6 120.002C116.6 116.802 120.3 114.902 123.8 113.802C127.3 112.802 130.9 112.002 134.5 111.302C136.7 110.802 138.8 110.202 141.1 110.102C142.1 110.102 143 109.602 144 110.102C144.3 110.302 145.1 109.802 145.8 109.702C147.3 109.602 148.9 109.602 150.4 109.602C152.5 109.602 154.6 109.602 157 110.002C158.4 110.202 159.9 110.302 161.4 111.002C162.9 111.702 164.2 112.802 165.2 113.802C166.5 115.202 167.4 116.502 168.5 117.802C169.6 119.102 171.1 120.302 172 121.702C173.7 124.302 176.1 126.402 178.1 128.702C180.2 131.002 182.2 133.302 184.4 135.502C185.6 136.702 186.4 138.202 187.5 139.502C188 140.102 187.7 141.902 187.1 142.002C187 142.002 186.8 142.002 186.7 142.002C185.2 141.102 183.6 140.502 182.4 139.002C180.5 136.902 178.5 134.802 176.6 132.802V132.902Z" fill="black"/>
<path d="M166.101 147.302C166.501 147.102 166.801 147.002 167.201 146.702C167.301 146.702 167.601 146.702 167.501 146.202C167.501 145.902 167.901 146.402 168.001 146.402C168.301 146.202 168.701 146.102 169.001 145.902C169.301 145.702 169.501 145.302 169.801 145.102C170.101 144.902 170.601 145.102 170.801 144.602C171.001 144.202 171.401 144.602 171.601 144.302C171.801 144.102 172.101 143.902 172.501 144.002C172.801 144.002 173.101 144.202 173.201 144.002C173.201 143.902 173.201 143.502 173.401 143.502C173.501 143.502 173.801 143.702 173.701 143.002C173.701 143.002 173.701 143.002 173.901 143.002C174.201 143.302 174.401 143.202 174.401 143.002C174.401 142.702 174.501 142.702 174.601 142.602C174.901 142.502 175.201 142.302 175.501 142.302C175.701 142.302 176.001 142.302 176.301 142.302C176.501 142.302 176.701 141.902 177.001 142.102C177.301 142.302 177.501 142.202 177.701 142.102C177.801 142.102 178.101 142.302 177.901 141.602C178.501 142.302 178.501 141.102 178.901 141.202C179.301 141.202 179.601 141.002 180.001 140.902C180.001 140.902 180.301 141.002 180.201 140.502C180.201 140.302 180.201 140.302 180.401 140.402C180.901 140.902 181.001 140.402 181.301 140.402C181.601 140.402 181.901 140.002 182.301 140.402C182.501 140.602 182.701 140.602 182.701 140.002C182.701 139.702 182.901 140.002 183.001 139.802C183.001 139.802 183.001 139.402 183.201 139.402C183.201 139.402 183.401 139.602 183.501 139.702C183.801 138.902 184.501 139.702 184.901 139.302C185.301 139.002 185.801 138.902 186.301 138.902C186.601 138.902 186.901 138.902 187.401 140.002C187.601 140.502 187.801 141.002 187.701 141.402C187.701 141.702 187.701 141.902 187.601 142.002C187.501 142.102 187.401 142.302 187.301 142.402C187.101 142.702 186.901 143.302 186.601 143.102C186.501 143.102 186.501 143.402 186.201 142.902C186.001 143.802 185.501 143.402 185.101 143.602C184.801 143.802 184.601 144.502 184.201 144.302C184.201 145.002 184.001 144.902 183.701 144.802C182.801 144.402 182.301 145.002 181.601 145.202C180.901 145.302 180.301 145.702 179.601 145.902C179.501 145.902 179.601 146.302 179.301 146.102C179.101 145.902 179.001 146.102 178.801 146.202C178.701 146.202 178.601 146.402 178.401 146.302C177.601 145.902 177.301 146.502 176.701 146.602C176.201 146.702 175.601 146.902 175.201 147.302C174.901 147.502 174.801 148.002 174.401 148.002C174.201 148.002 174.201 148.402 173.901 147.902C173.801 147.802 173.901 148.202 173.801 148.302C173.601 148.402 173.401 148.502 173.201 148.602C172.901 148.702 172.601 148.802 172.301 149.002C172.101 149.102 172.101 149.402 171.901 149.602C171.701 149.702 171.601 149.802 171.301 149.902C171.001 149.902 170.701 149.902 170.401 149.902C170.101 149.902 170.001 150.302 169.601 150.202C168.901 150.002 168.601 150.402 168.201 150.602C167.701 150.802 167.301 150.902 166.901 151.302C166.701 151.502 166.201 151.202 166.001 151.302C165.901 151.302 165.101 150.102 164.901 149.702V149.502C164.901 149.002 164.801 148.202 165.101 148.102C165.501 148.002 165.901 147.702 166.301 147.502L166.101 147.302Z" fill="black"/>
<path d="M168.6 166.202C168.6 165.902 168.5 165.502 168.3 165.202C168.3 165.102 168.5 164.902 167.9 164.902C167.6 164.902 168.2 164.602 168.2 164.502C168.1 164.202 168.1 163.902 167.9 163.602C167.8 163.302 167.5 163.102 167.3 162.802C167.2 162.502 167.3 162.102 167 161.902C166.7 161.702 167.1 161.402 167 161.202C166.8 161.002 166.7 160.702 166.8 160.402C166.9 160.202 167.1 160.002 166.9 159.802C166.9 159.802 166.5 159.702 166.5 159.602C166.5 159.502 166.7 159.302 166.1 159.302C166.1 159.302 166.1 159.302 166.2 159.202C166.6 159.002 166.5 158.802 166.2 158.802C165.9 158.802 165.9 158.702 165.9 158.602C165.9 158.402 165.7 158.102 165.7 157.902C165.7 157.702 165.9 157.502 165.9 157.302C165.9 157.102 165.6 157.002 165.9 156.702C166.2 156.402 166.1 156.302 166 156.102C166 156.102 166.2 155.802 165.6 155.902C166.3 155.402 165.2 155.402 165.3 155.102C165.4 154.802 165.3 154.502 165.1 154.202C165.1 154.202 165.2 154.002 164.8 154.002C164.6 154.002 164.6 154.002 164.7 153.902C165.2 153.502 164.8 153.402 164.9 153.102C164.9 152.802 164.6 152.602 164.9 152.202C165.1 152.002 165.1 151.902 164.5 151.902C164.2 151.902 164.5 151.702 164.4 151.602C164.4 151.602 164 151.602 164 151.502C164 151.502 164.2 151.302 164.3 151.202C163.6 151.002 164.3 150.402 164 150.102C163.7 149.802 163.7 149.402 163.6 149.002C163.6 148.802 163.6 148.502 164.7 148.002C165.2 147.802 165.7 147.602 166 147.602C166.2 147.602 166.5 147.602 166.6 147.602C166.7 147.602 166.9 147.802 167 147.902C167.3 148.102 167.9 148.202 167.7 148.502C167.7 148.602 168 148.602 167.5 148.802C168.4 148.902 168 149.402 168.1 149.802C168.2 150.102 168.9 150.202 168.7 150.602C169.4 150.602 169.3 150.802 169.2 151.002C168.7 151.802 169.3 152.202 169.4 152.902C169.4 153.502 169.7 154.102 169.8 154.702C169.8 154.802 170.2 154.802 170 155.002C169.8 155.202 170 155.302 170 155.402C170 155.502 170.2 155.602 170 155.802C169.5 156.402 170 156.802 170 157.302C170 157.802 170 158.302 170.4 158.702C170.6 159.002 171 159.202 170.9 159.502C170.9 159.602 171.2 159.702 170.7 159.902C170.5 159.902 171 159.902 171.1 160.102C171.1 160.302 171.2 160.502 171.3 160.702C171.3 161.002 171.3 161.302 171.5 161.502C171.5 161.702 171.9 161.802 172 161.902C172.1 162.102 172.1 162.202 172.1 162.402C172.1 162.602 171.9 162.902 171.9 163.102C171.9 163.302 172.2 163.502 172 163.802C171.6 164.302 172 164.702 172 165.102C172 165.502 172.1 165.902 172.3 166.302C172.4 166.502 172 166.802 172.1 167.102C172.1 167.102 170.7 167.702 170.2 167.802H170C169.5 167.802 168.7 167.802 168.7 167.402C168.7 167.002 168.5 166.702 168.4 166.302L168.6 166.202Z" fill="black"/>
<path d="M162.2 186.203C162.3 185.803 162.5 185.403 162.5 185.003C162.5 184.803 162.8 184.803 162.4 184.503C162.2 184.303 162.8 184.403 162.8 184.203C162.8 183.803 163.1 183.503 163.1 183.103C163.1 182.703 163.1 182.303 163.1 181.903C163.1 181.503 163.6 181.303 163.4 180.803C163.2 180.403 163.8 180.303 163.8 180.003C163.8 179.703 163.8 179.303 164.1 179.103C164.3 178.903 164.6 178.803 164.6 178.603C164.6 178.403 164.3 178.203 164.4 178.103C164.4 178.003 164.8 177.903 164.2 177.603C164.2 177.603 164.2 177.603 164.4 177.603C164.8 177.603 164.9 177.403 164.6 177.203C164.4 177.003 164.5 176.903 164.5 176.803C164.5 176.503 164.6 176.203 164.8 175.903C164.9 175.703 165.2 175.603 165.4 175.403C165.5 175.203 165.4 174.903 165.7 174.703C166.1 174.603 166.1 174.403 166.2 174.203C166.2 174.103 166.6 174.003 166 173.703C166.9 173.703 166 173.003 166.3 172.703C166.6 172.403 166.6 172.003 166.7 171.703C166.7 171.703 166.9 171.603 166.5 171.303C166.4 171.303 166.4 171.103 166.5 171.103C167.2 171.103 166.9 170.603 167.1 170.403C167.3 170.103 167.1 169.703 167.7 169.603C167.9 169.603 168.1 169.403 167.6 169.103C167.4 168.903 167.6 168.903 167.6 168.803C167.6 168.703 167.3 168.503 167.4 168.403C167.4 168.403 167.7 168.403 167.8 168.303C167.3 167.703 168.3 167.503 168.2 167.003C168.2 166.703 168.2 166.603 168.2 166.303C168.2 166.003 168.4 165.703 168.6 165.303C168.8 164.903 169.3 164.503 170.4 165.103C170.9 165.303 171.3 165.703 171.5 166.003C171.6 166.203 171.8 166.403 171.8 166.503C171.8 166.603 171.9 166.803 172 166.903C172.1 167.103 172.6 167.403 172.2 167.703C172.1 167.703 172.3 168.003 171.8 167.903C172.5 168.503 171.8 168.903 171.8 169.303C171.8 169.703 172.2 170.203 171.8 170.503C172.3 170.903 172.2 171.103 171.9 171.203C171 171.703 171.2 172.503 170.9 173.203C170.6 173.903 170.4 174.603 170.1 175.303C170.1 175.403 170.4 175.603 170.1 175.703C169.8 175.703 169.9 176.003 169.9 176.103C169.9 176.203 169.9 176.403 169.7 176.503C168.9 176.803 169.1 177.503 168.8 178.003C168.5 178.503 168.3 179.003 168.3 179.603C168.3 180.003 168.5 180.403 168.3 180.703C168.2 180.803 168.5 181.103 167.9 181.003C167.7 181.003 168.1 181.303 168.1 181.403C168.1 181.603 168 181.903 167.9 182.103C167.8 182.403 167.6 182.703 167.6 183.103C167.6 183.303 167.7 183.603 167.7 183.803C167.7 184.003 167.7 184.203 167.5 184.403C167.3 184.603 167.1 184.803 166.9 185.103C166.8 185.303 166.9 185.703 166.6 185.903C166 186.203 166.1 186.803 165.9 187.203C165.7 187.603 165.5 188.103 165.5 188.603C165.5 188.903 165 189.003 164.9 189.203C164.9 189.303 163.4 189.203 162.9 189.003H162.7C162.3 188.603 161.7 188.203 161.8 187.903C162 187.403 162.1 187.003 162.2 186.503V186.203Z" fill="black"/>
<path d="M151.001 135.801C151.001 136.001 150.901 136.101 150.901 136.301C150.901 136.301 150.601 136.301 151.101 136.601C151.401 136.601 150.701 136.601 150.701 136.601C150.701 136.801 150.701 136.901 150.701 137.101C150.701 137.301 150.901 137.501 150.901 137.601C150.901 137.801 150.601 137.901 150.901 138.101C151.201 138.301 150.601 138.301 150.701 138.401C150.801 138.601 150.901 138.701 150.701 138.801C150.501 138.801 150.301 138.901 150.401 139.001C150.401 139.001 150.801 139.201 150.701 139.201C150.701 139.201 150.401 139.201 151.001 139.401C151.001 139.401 151.001 139.401 150.801 139.401C150.401 139.401 150.401 139.401 150.701 139.601C151.001 139.601 150.901 139.701 150.901 139.801C150.901 139.901 150.901 140.101 150.901 140.201C150.901 140.201 150.601 140.401 150.501 140.501C150.501 140.501 150.701 140.701 150.401 140.801C150.101 140.801 150.101 141.001 150.101 141.101C150.101 141.101 149.801 141.201 150.401 141.301C149.601 141.401 150.601 141.601 150.401 141.801C150.201 142.001 150.401 142.101 150.401 142.301C150.401 142.301 150.201 142.301 150.701 142.401C150.901 142.401 150.901 142.401 150.701 142.401C150.101 142.501 150.501 142.601 150.301 142.801C150.201 142.901 150.501 143.101 150.001 143.201C149.801 143.201 149.701 143.401 150.301 143.401C150.601 143.401 150.301 143.501 150.301 143.601C150.301 143.601 150.601 143.601 150.601 143.701C150.601 143.701 150.401 143.701 150.301 143.801C151.001 144.001 150.101 144.201 150.301 144.401C150.501 144.601 150.401 144.801 150.301 145.001C150.301 145.101 150.101 145.301 148.901 145.401C148.401 145.401 147.801 145.501 147.501 145.501C147.301 145.501 147.001 145.501 147.001 145.501C146.901 145.501 146.801 145.401 146.701 145.301C146.501 145.201 145.901 145.101 146.201 144.901C146.201 144.901 146.001 144.901 146.501 144.701C145.701 144.501 146.201 144.301 146.101 144.101C146.101 143.901 145.401 143.801 145.701 143.601C145.101 143.601 145.201 143.401 145.401 143.301C146.101 142.901 145.601 142.601 145.701 142.201C145.701 141.801 145.701 141.501 145.701 141.101C145.701 141.101 145.401 141.001 145.701 140.901C146.001 140.901 145.701 140.701 145.701 140.701C145.701 140.701 145.601 140.501 145.701 140.501C146.401 140.301 146.001 139.901 146.101 139.701C146.201 139.401 146.301 139.101 146.101 138.801C146.101 138.601 145.701 138.401 145.901 138.201C145.901 138.201 145.601 138.001 146.201 138.001C146.401 138.001 145.901 137.901 145.901 137.801C145.901 137.701 145.901 137.601 145.901 137.401C145.901 137.201 146.001 137.101 145.901 136.901C145.901 136.801 145.701 136.601 145.601 136.501C145.601 136.401 145.601 136.301 145.601 136.201C145.701 136.101 145.901 136.001 146.001 135.901C146.001 135.801 145.901 135.601 146.201 135.501C146.801 135.401 146.601 135.101 146.701 134.801C146.801 134.601 146.901 134.401 146.901 134.101C146.901 133.901 147.401 134.001 147.401 133.801C147.401 133.801 148.901 134.101 149.301 134.201H149.501C149.901 134.501 150.601 134.801 150.501 134.901C150.401 135.101 150.401 135.301 150.301 135.501L151.001 135.801Z" fill="black"/>
<path d="M162.3 135.801C162.3 136.001 162.2 136.101 162.2 136.301C162.2 136.301 161.9 136.301 162.4 136.601C162.7 136.601 162 136.601 162 136.601C162 136.801 162 136.901 162 137.101C162 137.301 162.2 137.501 162.2 137.601C162.2 137.801 161.9 137.901 162.2 138.101C162.5 138.301 161.9 138.301 162 138.401C162.1 138.601 162.2 138.701 162 138.801C161.8 138.801 161.6 138.901 161.7 139.001C161.7 139.001 162.1 139.201 162 139.201C162 139.201 161.7 139.201 162.3 139.401C162.3 139.401 162.3 139.401 162.1 139.401C161.7 139.401 161.7 139.401 162 139.601C162.3 139.601 162.2 139.701 162.2 139.801C162.2 139.901 162.2 140.101 162.2 140.201C162.2 140.201 161.9 140.401 161.8 140.501C161.8 140.501 162 140.701 161.7 140.801C161.4 140.801 161.4 141.001 161.4 141.101C161.4 141.101 161.1 141.201 161.7 141.301C160.9 141.401 161.9 141.601 161.7 141.801C161.5 142.001 161.7 142.101 161.7 142.301C161.7 142.301 161.5 142.301 162 142.401C162.2 142.401 162.2 142.401 162 142.401C161.4 142.501 161.8 142.601 161.6 142.801C161.5 142.901 161.8 143.101 161.3 143.201C161.1 143.201 161 143.401 161.6 143.401C161.9 143.401 161.6 143.501 161.6 143.601C161.6 143.601 161.9 143.601 161.9 143.701C161.9 143.701 161.7 143.701 161.6 143.801C162.3 144.001 161.4 144.201 161.6 144.401C161.8 144.601 161.7 144.801 161.6 145.001C161.6 145.101 161.4 145.301 160.2 145.401C159.7 145.401 159.1 145.501 158.8 145.501C158.6 145.501 158.3 145.501 158.3 145.501C158.2 145.501 158.1 145.401 158 145.301C157.8 145.201 157.2 145.101 157.5 144.901C157.5 144.901 157.3 144.901 157.8 144.701C157 144.501 157.5 144.301 157.4 144.101C157.4 143.901 156.7 143.801 157 143.601C156.4 143.601 156.5 143.401 156.7 143.301C157.4 142.901 156.9 142.601 157 142.201C157 141.801 157 141.501 157 141.101C157 141.101 156.7 141.001 157 140.901C157.3 140.901 157 140.701 157 140.701C157 140.701 156.9 140.501 157 140.501C157.7 140.301 157.3 139.901 157.4 139.701C157.5 139.401 157.6 139.101 157.4 138.801C157.4 138.601 157 138.401 157.2 138.201C157.2 138.201 156.9 138.001 157.5 138.001C157.7 138.001 157.2 137.901 157.2 137.801C157.2 137.701 157.2 137.601 157.2 137.401C157.2 137.201 157.3 137.101 157.2 136.901C157.2 136.801 157 136.601 156.9 136.501C156.9 136.401 156.9 136.301 156.9 136.201C157 136.101 157.2 136.001 157.3 135.901C157.3 135.801 157.2 135.601 157.5 135.501C158.1 135.401 157.9 135.101 158 134.801C158.1 134.601 158.2 134.401 158.2 134.101C158.2 133.901 158.7 134.001 158.7 133.801C158.7 133.801 160.2 134.101 160.6 134.201H160.8C161.2 134.501 161.9 134.801 161.8 134.901C161.7 135.101 161.7 135.301 161.6 135.501L162.3 135.801Z" fill="black"/>
<path d="M162.599 169.701C162.399 169.701 162.099 169.801 161.899 169.901C161.899 169.901 161.699 169.701 161.699 170.301C161.699 170.601 161.499 170.001 161.399 170.001C161.199 170.101 160.899 170.001 160.699 170.201C160.499 170.201 160.299 170.601 159.999 170.601C159.799 170.601 159.499 170.401 159.299 170.701C159.099 171.001 158.899 170.501 158.699 170.701C158.499 170.801 158.299 170.901 158.099 170.701C157.999 170.501 157.799 170.301 157.699 170.401C157.699 170.401 157.499 170.801 157.399 170.701C157.399 170.701 157.199 170.401 157.099 171.001C157.099 171.001 157.099 171.001 157.099 170.801C157.099 170.401 156.899 170.401 156.799 170.701C156.699 171.001 156.599 170.901 156.499 170.901C156.299 170.901 156.099 170.901 155.899 170.901C155.799 170.901 155.699 170.601 155.499 170.501C155.399 170.501 155.099 170.701 155.099 170.301C155.099 170.001 154.899 169.901 154.799 169.901C154.799 169.901 154.799 169.601 154.499 170.201C154.499 169.401 153.999 170.301 153.799 170.001C153.599 169.701 153.399 169.801 153.099 169.701C153.099 169.701 153.099 169.501 152.799 169.901C152.799 170.001 152.599 170.001 152.699 169.901C152.699 169.201 152.499 169.501 152.299 169.401C152.199 169.201 151.799 169.401 151.899 168.801C151.899 168.601 151.899 168.401 151.499 168.801C151.299 169.001 151.399 168.801 151.299 168.801L150.999 169.001C150.999 169.001 150.999 168.701 150.999 168.601C150.399 169.001 150.599 168.101 150.299 168.001C149.899 168.001 149.699 167.701 149.499 167.401C149.499 167.201 149.399 167.001 150.099 166.101C150.399 165.701 150.799 165.301 151.099 165.101C151.299 165.001 151.499 164.801 151.599 164.801C151.699 164.801 151.899 164.801 151.999 164.701C152.199 164.701 152.699 164.301 152.599 164.701C152.599 164.701 152.799 164.601 152.599 165.001C153.199 164.501 153.099 165.001 153.299 165.001C153.499 165.001 153.899 164.601 153.899 165.001C154.299 164.501 154.299 164.601 154.299 164.801C154.299 165.501 154.799 165.301 154.999 165.501C155.299 165.701 155.599 165.701 155.899 165.901C155.899 165.901 156.099 165.601 156.099 165.901C156.099 166.201 156.199 165.901 156.299 166.001H156.499C156.599 166.701 156.999 166.401 157.199 166.501C157.499 166.501 157.699 166.701 157.999 166.501C158.199 166.501 158.299 166.101 158.499 166.201C158.499 166.201 158.599 165.901 158.699 166.501C158.699 166.701 158.699 166.201 158.799 166.201C158.899 166.201 158.999 166.201 159.099 166.201C159.199 166.201 159.399 166.201 159.499 166.201C159.499 166.201 159.699 165.901 159.699 165.801C159.699 165.801 159.899 165.801 159.999 165.801C160.099 165.801 160.299 166.001 160.399 166.101C160.499 166.101 160.599 165.801 160.799 166.101C161.099 166.501 161.299 166.201 161.499 166.201C161.699 166.201 161.999 166.201 162.099 166.001C162.099 165.901 162.499 166.301 162.599 166.301C162.599 166.301 163.299 167.601 163.499 168.101V168.301C163.499 168.801 163.699 169.501 163.499 169.501C163.199 169.501 162.899 169.701 162.699 169.801L162.599 169.701Z" fill="black"/>
<path d="M128 164.8C127.3 164.8 126.5 164.8 125.8 164.8C125.5 164.8 125.3 164.5 124.9 165.1C124.7 165.4 124.5 164.7 124.3 164.7C123.6 164.7 122.9 164.5 122.2 164.4C121.5 164.4 120.8 164.4 120.1 164.2C119.4 164 118.8 163.4 118 163.3C117.3 163.3 117.1 162.4 116.6 162.2C116 161.9 115.5 161.4 115.3 160.8C115.1 160.3 115.1 159.9 114.7 159.6C114.5 159.4 114.1 159.4 114 159.1C113.9 158.8 114 158.4 113.3 158.5C113.3 158.5 113.3 158.3 113.3 158.2C113.5 157.8 113.3 157.4 113 157.3C112.7 157.2 112.6 156.9 112.5 156.7C112.3 156.1 112.1 155.4 112.1 154.8C112.1 154.3 112.3 153.8 112.3 153.3C112.3 152.8 112.1 152.2 112.5 151.7C112.9 151.3 113 150.8 113.2 150.3C113.3 150 113.7 149.9 113.3 149.3C113.3 149.3 113.3 149.1 113.4 149.1C114 149 114.2 148.6 114.4 148.2C114.6 147.8 114.9 147.3 115.3 147.2C116.2 146.9 116.9 146.5 117.6 146.3C117.8 146.3 118.1 146.3 118.1 145.9C118.1 145.7 118.3 145.7 118.5 145.8C119.2 146.3 119.6 145.8 120.2 145.9C120.8 145.9 121.4 145.6 122 146.1C122.3 146.3 122.6 146.4 122.9 145.8C123.1 145.5 123.3 145.8 123.6 145.8C123.8 145.8 124 145.5 124.2 145.5C124.4 145.5 124.5 145.8 124.6 145.9C124.6 145.9 124.6 145.9 124.7 145.9C125.7 145.4 126.4 146.4 127.3 146.5C128.2 146.5 129.1 147 129.9 147.4C130.3 147.6 130.7 148.1 130.5 149.2C130.4 149.7 130.1 150.2 129.8 150.4C129.6 150.6 129.3 150.7 129.2 150.7C128.9 150.7 128.7 150.7 128.4 150.7C127.9 150.7 127.3 151 126.9 150.7C126.8 150.6 126.5 150.8 126.6 150.3V150.2C125.8 150.8 125.3 150.2 124.6 150.1C124 150.1 123.5 150.6 123 150.3C122.7 150.9 122.4 150.8 122.1 150.6C121.1 149.9 119.9 150.6 119 150.6C118 150.7 117.4 151.2 117.1 151.6C117.1 151.6 117.3 151.9 117.1 151.9C116.8 151.9 116.9 152.1 116.9 152.3C116.9 152.4 116.9 152.6 116.8 152.7C116.4 152.9 116.3 153.3 116.4 153.7C116.4 154.1 116.6 154.5 116.6 154.8C116.6 155.6 116.9 156.4 117.4 157C117.7 157.4 118.3 157.5 118.4 158C118.4 158.2 118.9 158.1 118.6 158.6C118.6 158.8 119 158.6 119.1 158.6C119.4 158.8 119.6 159 119.8 159.2C120.1 159.4 120.5 159.7 120.9 159.8C121.2 159.8 121.5 159.8 121.8 159.8C122.1 159.8 122.4 159.9 122.6 160C122.9 160.2 123.3 160.4 123.7 160.6C124.1 160.7 124.6 160.6 124.9 160.8C125.6 161.4 126.4 161.1 127.1 161.2C127.8 161.2 128.6 161.2 129.3 160.9C129.7 160.8 130.2 161.2 130.6 161.1C130.8 161.1 131.4 162.4 131.5 162.9V163.1C131.2 163.7 130.9 164.5 130.3 164.5C129.5 164.5 128.7 164.7 127.8 164.8H128Z" fill="black"/>
<path d="M136.201 122.398C136.201 122.798 136.201 123.298 136.401 123.698C136.401 123.898 136.201 124.098 136.801 124.098C137.101 124.098 136.501 124.398 136.501 124.498C136.601 124.898 136.501 125.298 136.701 125.698C136.801 126.098 137.101 126.398 137.201 126.798C137.301 127.198 137.101 127.598 137.401 127.998C137.701 128.298 137.301 128.698 137.401 128.998C137.601 129.298 137.701 129.698 137.401 129.998C137.301 130.298 137.101 130.498 137.201 130.698C137.201 130.798 137.601 130.998 137.601 131.098C137.601 131.298 137.301 131.498 138.001 131.498C138.001 131.498 138.001 131.498 137.901 131.598C137.501 131.798 137.501 131.998 137.901 132.098C138.201 132.198 138.101 132.398 138.201 132.498C138.201 132.898 138.201 133.198 138.201 133.598C138.201 133.898 137.901 134.098 137.901 134.398C137.901 134.698 138.101 134.998 137.901 135.198C137.601 135.398 137.601 135.698 137.601 135.898C137.601 135.998 137.301 136.198 137.901 136.298C137.101 136.698 138.101 137.098 137.901 137.498C137.701 137.898 137.801 138.298 137.701 138.798C137.701 138.898 137.501 138.998 137.901 139.198C138.101 139.198 138.101 139.398 137.901 139.398C137.201 139.598 137.601 139.998 137.401 140.298C137.201 140.598 137.401 141.098 136.901 141.298C136.701 141.398 136.501 141.598 137.101 141.898C137.401 141.998 137.101 142.198 137.101 142.298C137.101 142.398 137.401 142.598 137.401 142.698C137.401 142.698 137.101 142.798 137.001 142.898C137.501 143.598 136.501 143.898 136.601 144.498C136.601 145.098 136.401 145.598 136.201 146.098C136.101 146.398 135.801 146.598 134.601 146.398C134.101 146.398 133.601 146.098 133.301 145.898C133.101 145.698 132.901 145.598 132.901 145.498C132.901 145.298 132.801 145.098 132.701 144.998C132.701 144.598 132.201 144.198 132.601 143.998C132.701 143.998 132.501 143.698 133.001 143.798C132.401 143.198 133.001 142.898 133.001 142.398C133.001 141.998 132.501 141.498 132.801 141.198C132.201 140.898 132.401 140.698 132.601 140.498C133.401 139.898 133.101 139.098 133.201 138.398C133.401 137.698 133.401 136.898 133.401 136.198C133.401 136.098 133.101 135.898 133.401 135.798C133.701 135.698 133.401 135.498 133.401 135.298C133.401 135.098 133.301 134.998 133.401 134.898C134.101 134.298 133.701 133.698 133.701 133.098C133.701 132.498 133.701 131.898 133.601 131.298C133.501 130.998 133.101 130.598 133.201 130.198C133.201 129.998 132.901 129.898 133.401 129.698C133.601 129.698 133.101 129.498 133.101 129.398C133.101 129.198 133.101 128.898 133.001 128.598C133.001 128.298 133.001 127.898 132.901 127.598C132.901 127.398 132.601 127.198 132.501 126.998C132.501 126.798 132.401 126.598 132.501 126.298C132.501 125.998 132.701 125.698 132.701 125.398C132.701 125.098 132.401 124.798 132.701 124.498C133.101 123.898 132.701 123.398 132.701 122.898C132.701 122.398 132.701 121.798 132.401 121.298C132.301 120.998 132.701 120.698 132.701 120.398C132.701 120.298 134.101 119.898 134.601 119.898H134.801C135.301 120.098 136.101 120.298 136.101 120.598C136.101 121.098 136.201 121.598 136.301 122.098L136.201 122.398Z" fill="black"/>
<path d="M176.9 119.201C177.7 118.501 178.4 117.801 178.9 116.901C179 116.601 179.5 116.301 179.1 115.801C178.9 115.601 179.6 115.401 179.7 115.101C179.8 114.201 179.9 113.301 179.7 112.401C179.5 111.501 178.9 110.801 178.4 110.201C177.9 109.601 177.5 108.701 176.6 108.501C175.9 108.301 175.5 107.601 174.8 107.501C174.1 107.401 173.4 107.401 172.7 107.101C172.1 106.901 171.5 106.701 170.9 106.901C170.5 107.001 170.1 107.401 169.7 107.401C169.2 107.401 168.7 107.201 168.3 107.801C168.3 107.801 168 107.801 167.9 107.701C167.4 107.301 166.7 107.301 166.1 107.501C165.6 107.701 165.1 107.501 164.6 107.401C163.9 107.201 163.2 106.801 162.6 106.401C162 106.001 161.5 105.301 161.1 104.901C160.6 104.201 160.5 103.601 160.3 103.301C160 103.001 159.5 103.001 159.2 102.501C158.9 102.001 158.3 101.901 157.8 101.901C157.5 101.901 157.1 101.501 156.8 102.201C156.8 102.201 156.7 102.201 156.6 102.201C156.1 101.801 155.7 101.901 155.2 102.101C154.7 102.301 154.3 102.501 153.8 102.501C152.8 102.501 151.7 102.901 150.8 103.201C150.5 103.201 150.2 103.201 150.1 103.701C150.1 103.901 149.8 104.001 149.6 103.901C148.6 103.601 148 104.301 147.3 104.601C146.9 104.701 146.5 105.001 146.1 105.301C145.7 105.501 145.3 105.701 144.7 105.801C144.3 105.801 143.7 106.101 143.6 106.801C143.6 107.201 143 107.201 142.8 107.501C142.6 107.701 142.5 108.101 142.3 108.301C142.1 108.501 141.8 108.401 141.5 108.501C141.5 108.501 141.3 108.501 141.3 108.601C140.6 110.001 139 110.201 138.1 111.301C137.2 112.401 136.1 113.401 135 114.401C134.4 114.901 133.7 115.401 132.5 115.001C132 114.801 131.6 114.401 131.6 114.001C131.6 113.601 131.6 113.301 131.8 113.001C132.1 112.601 132.3 112.201 132.5 111.801C133 111.001 133.3 109.901 134.3 109.401C134.6 109.201 134.6 108.801 135.2 109.001C135.2 109.001 135.4 109.001 135.4 108.901C135.8 107.401 137.2 106.901 138.3 105.901C139.2 105.101 139.7 103.901 140.8 103.401C141 102.501 141.7 102.101 142.4 101.901C144.8 101.201 146.7 99.7005 149.1 98.9005C151.5 98.2005 153.9 97.6005 156.5 97.5005C156.9 97.5005 157.4 97.2005 157.9 97.5005C158.4 97.8005 159.1 97.7005 159.7 97.8005C160.3 97.9005 160.9 98.0005 161.4 98.4005C161.9 98.8005 162.3 99.2005 162.8 99.6005C163.2 100.001 163.7 100.501 164 100.901C164.7 101.701 165.1 102.301 165.5 102.601C166.2 103.301 167.7 103.501 169.4 103.201C170.4 103.001 171.5 102.601 172.8 102.701C173.3 102.701 174 102.401 174.5 103.101C174.6 103.301 175.2 102.901 175.6 103.001C176.5 103.201 177.4 103.501 178.2 103.901C179.3 104.501 180.4 105.301 181.3 106.201C181.9 106.701 182.6 107.201 183 107.901C183.5 108.601 183.9 109.401 184 110.301C184.2 111.401 184.2 112.401 184.2 113.501C184.2 114.601 184.2 115.801 183.7 116.701C182.7 118.401 181.8 120.001 180.5 121.301C179.2 122.501 177.7 123.401 176.4 124.301C175.6 124.801 174.7 124.701 173.9 125.101C173.5 125.301 172.4 124.201 172.4 123.601C172.4 123.501 172.4 123.401 172.4 123.301C173 122.501 173.3 121.601 174.1 121.201C175.3 120.601 176.4 119.901 177.3 119.101L176.9 119.201Z" fill="black"/>
<path d="M162.9 152.799C162.4 152.799 162 152.799 161.6 153.099C161.4 153.099 161.1 153.099 161.2 153.599C161.2 153.899 160.8 153.399 160.6 153.599C160.2 153.899 159.8 154.099 159.4 154.499C159.2 154.699 159.1 154.899 159 155.199C158.8 155.599 158.4 156.099 158.1 156.499C157.3 157.299 156.4 157.399 155.4 157.699C154.5 157.899 153.9 157.099 153.3 156.599C152.3 155.899 152.3 155.999 152 155.599C151.9 155.299 151.7 154.999 151.4 154.999C151.2 154.999 151 155.299 150.8 155.199C150.7 155.199 150.5 154.799 150.3 155.399C150.3 155.399 150.3 155.399 150.3 155.199C150.2 154.799 149.9 154.799 149.8 154.999C149.6 155.299 149.5 155.199 149.4 155.199C149 155.199 148.7 155.199 148.3 155.299C148 155.299 147.7 155.099 147.4 155.199C147.1 155.199 146.8 155.599 146.5 155.399C146.1 155.199 145.8 155.399 145.5 155.499C145.3 155.499 145 155.499 145.2 156.099C144.3 155.599 144.5 156.799 143.9 156.999C143.6 156.999 143.3 157.299 143 157.499C142.8 157.599 142.7 157.699 142.5 157.799C142.2 157.999 142 158.099 141.7 158.199C141.4 158.299 141.1 158.199 140.9 158.799C140.9 158.999 140.5 159.099 140.3 158.999C139.9 158.699 139.5 158.699 139.1 158.599C138.7 158.599 138.3 158.499 137.9 158.299C137.7 158.199 137.5 157.999 137.3 157.899C136.7 157.499 136.2 156.999 136.2 156.099C136.2 155.899 136.2 155.599 136.1 155.399C136 155.199 135.8 155.099 135.5 155.099C135.2 155.099 135.4 154.699 135.2 154.599C135.1 154.499 134.8 154.399 134.7 154.299C134.7 154.199 134.8 153.999 134.9 153.799C134.9 153.799 134.9 153.799 134.9 153.699C134 153.199 134.5 152.199 134 151.499C133.5 150.799 133.3 150.099 133.1 149.299C133 148.899 133 148.399 133.9 147.699C134.3 147.399 134.8 147.199 135.2 147.199C135.5 147.199 135.7 147.199 135.9 147.399C136.1 147.599 136.3 147.799 136.5 147.999C136.9 148.399 137.6 148.699 137.5 149.299C137.5 149.499 137.8 149.499 137.5 149.899V149.999C138.5 150.299 138.3 151.199 138.6 151.899C138.9 152.399 139.7 152.699 139.7 153.399C139.9 153.399 140 153.399 140.1 153.499C140.1 153.499 140.3 153.699 140.3 153.599C140.3 153.599 140.3 153.599 140.2 153.599C140 153.699 140 153.899 140 153.999C140.1 154.199 140.3 153.999 140.4 153.999C140.4 154.199 141.9 152.999 143 152.399C143.2 152.299 143.2 151.899 143.6 151.999C144 152.099 144.2 151.799 144.4 151.599C144.7 151.499 144.9 151.199 145.2 151.299C146.5 151.499 147.4 150.899 148.6 150.799C149.8 150.799 150.9 150.799 152.1 150.999C152.8 150.999 153.7 150.999 154.3 151.499C154.6 151.699 155.1 151.499 155 152.299C155 152.299 155.1 152.299 155.3 152.299C155.5 152.299 155.6 152.299 155.6 152.299C155.6 152.299 155.7 152.299 155.8 152.399C155.8 152.399 156 152.499 156.1 152.399V151.999H156.2C156.2 151.799 156.4 151.699 156.4 151.599C156.8 151.299 157.4 150.999 157.9 150.799C158.4 150.499 158.7 149.899 159.4 149.899C160.5 149.899 161.4 149.199 162.5 149.099C163.6 149.099 164.6 149.099 165.7 149.299C166.4 149.399 166.7 150.099 167.2 150.499C167.5 150.699 166.8 151.999 166.4 152.399L166.2 152.499C165.6 152.599 165.1 153.199 164.8 152.999C164.4 152.799 163.9 152.699 163.3 152.799H162.9Z" fill="black"/>
<path d="M160.001 192.501C158.901 192.801 157.801 192.901 156.901 193.001C156.601 193.001 156.201 192.801 155.901 193.401C155.701 193.701 155.401 193.101 155.001 193.101C154.101 193.201 153.301 193.101 152.401 193.301C151.601 193.301 150.701 193.601 149.901 193.701C149.101 193.701 148.201 193.501 147.401 193.701C146.701 194.001 146.101 193.501 145.401 193.601C144.701 193.701 143.901 193.801 143.201 193.501C142.701 193.301 142.201 193.001 141.601 193.101C141.301 193.101 140.901 193.401 140.501 193.301C140.101 193.301 139.801 192.901 139.301 193.301C139.301 193.301 139.101 193.201 139.101 193.101C138.801 192.601 138.301 192.401 137.901 192.601C137.501 192.701 137.201 192.601 136.901 192.401C136.101 192.001 135.301 191.501 134.701 190.901C134.201 190.401 133.901 189.801 133.601 189.301C133.201 188.801 132.601 188.401 132.501 187.701C132.501 187.001 132.101 186.601 131.901 186.101C131.801 185.801 131.901 185.401 131.201 185.401C131.201 185.401 131.101 185.301 131.201 185.201C131.601 184.101 130.301 183.601 130.201 182.601C130.201 181.601 129.801 180.701 129.601 179.801C129.601 179.501 129.601 179.301 129.201 179.101C129.001 179.101 129.001 178.801 129.101 178.601C129.701 177.801 129.201 177.201 129.301 176.501C129.301 175.701 129.101 174.901 129.601 174.201C129.801 173.901 129.901 173.401 129.401 173.001C129.101 172.801 129.401 172.501 129.401 172.201C129.401 172.001 129.101 171.701 129.101 171.501C129.101 171.301 129.301 171.101 129.501 170.901C129.501 170.901 129.501 170.801 129.501 170.701C128.901 169.601 129.801 168.601 129.701 167.501C129.501 166.401 129.701 165.401 129.701 164.401C129.701 163.801 129.801 163.301 130.901 162.701C131.401 162.501 131.901 162.401 132.301 162.701C132.601 162.901 132.801 163.101 132.901 163.301C133.001 163.701 133.201 164.001 133.301 164.301C133.501 165.001 134.101 165.701 133.801 166.501C133.801 166.701 134.001 167.001 133.501 167.201C133.501 167.201 133.401 167.301 133.501 167.401C134.301 168.401 133.701 169.401 133.701 170.401C133.701 171.201 134.301 172.101 134.001 172.901C134.601 173.401 134.501 173.901 134.301 174.301C133.601 175.901 134.101 177.501 134.301 178.901C134.401 180.401 134.901 181.901 135.501 183.201C135.601 183.401 136.001 183.501 135.901 183.901C135.801 184.301 136.101 184.501 136.301 184.701C136.401 184.901 136.701 185.101 136.701 185.401C136.801 186.701 137.901 187.301 138.701 187.901C139.501 188.601 140.501 189.001 141.601 189.101C142.301 189.101 143.001 188.901 143.801 189.101C144.101 189.101 144.501 188.901 144.801 189.501C144.801 189.701 145.201 189.201 145.401 189.201C145.901 189.201 146.501 189.201 147.001 189.201C147.801 189.201 148.501 189.201 149.301 189.201C149.801 189.201 150.201 188.901 150.701 188.801C151.201 188.801 151.701 188.801 152.101 188.801C152.701 188.801 153.301 189.001 153.901 189.101C154.501 189.101 155.201 188.801 155.801 189.101C156.901 189.501 158.101 189.201 159.001 189.101C159.401 189.101 159.801 188.901 160.201 188.801C160.501 188.601 160.701 188.501 160.801 188.201C160.901 187.901 161.501 187.901 161.501 187.601C161.501 187.601 161.901 187.501 162.301 187.301C162.701 187.101 163.201 186.901 163.401 187.001C163.401 187.001 163.601 187.001 163.701 187.101C164.301 187.801 164.801 189.101 164.201 190.001C163.301 191.401 161.901 192.301 160.601 192.601L160.001 192.501Z" fill="black"/>
</svg>
