<svg width="300" height="300" viewBox="0 0 300 300" fill="none" xmlns="http://www.w3.org/2000/svg">
<path d="M182.101 138.799C181.401 137.999 180.701 137.199 179.901 136.499C179.601 136.199 179.501 135.799 178.901 135.799C178.601 135.799 178.801 135.099 178.501 134.899C177.801 134.199 177.201 133.399 176.501 132.799C175.801 132.099 175.001 131.599 174.301 130.899C173.601 130.199 173.201 129.299 172.301 128.899C171.601 128.499 171.401 127.599 170.801 127.199C170.201 126.699 169.501 126.099 169.201 125.399C168.901 124.899 168.701 124.299 168.201 123.999C167.901 123.799 167.401 123.799 167.201 123.499C167.001 123.199 166.901 122.699 166.201 122.899C166.201 122.899 166.201 122.699 166.201 122.599C166.201 121.999 165.901 121.699 165.501 121.699C165.101 121.699 164.901 121.399 164.701 121.199C164.101 120.599 163.501 120.099 163.001 119.399C162.601 118.899 162.401 118.399 162.001 117.899C161.601 117.399 161.001 117.199 160.801 116.699C160.601 116.099 160.201 115.899 159.801 115.599C159.601 115.499 159.401 114.999 159.001 115.599H158.901C158.701 115.099 158.301 114.999 157.901 114.999C157.501 114.999 157.101 115.099 156.701 114.999C155.901 114.599 155.001 114.699 154.101 114.599C153.901 114.599 153.601 114.399 153.301 114.799C153.301 114.999 152.901 114.999 152.801 114.799C152.101 114.099 151.301 114.499 150.601 114.399C149.801 114.299 148.901 114.499 148.101 113.999C147.801 113.799 147.301 113.699 146.801 114.299C146.601 114.599 146.201 114.299 145.901 114.299C145.701 114.299 145.401 114.599 145.201 114.699C145.001 114.699 144.801 114.499 144.601 114.399C144.601 114.399 144.501 114.399 144.401 114.399C143.401 115.199 142.201 114.399 141.001 114.999C139.901 115.499 138.701 115.699 137.401 115.999C136.701 116.099 136.001 116.199 135.201 115.199C134.901 114.799 134.701 114.199 134.901 113.799C135.001 113.499 135.201 113.199 135.401 113.099C135.801 112.899 136.101 112.699 136.501 112.499C137.201 112.099 137.901 111.399 138.801 111.399C139.101 111.399 139.301 110.999 139.601 111.399H139.801C140.701 110.299 142.101 110.599 143.301 110.399C144.301 110.199 145.301 109.499 146.401 109.799C147.001 109.199 147.601 109.299 148.201 109.499C150.201 110.199 152.001 109.799 154.001 109.999C156.001 110.199 158.301 110.399 160.401 111.399C160.801 111.599 161.201 111.399 161.501 111.899C161.801 112.299 162.301 112.499 162.701 112.799C163.101 113.099 163.501 113.299 163.701 113.699C164.501 115.299 165.901 116.199 166.801 117.299C167.801 118.499 168.801 119.599 169.901 120.599C170.601 121.199 171.501 121.599 172.001 122.399C172.201 122.699 172.801 122.799 172.601 123.499C172.601 123.699 173.101 123.699 173.301 123.799C173.801 124.199 174.201 124.699 174.601 125.199C175.201 125.799 175.801 126.499 176.401 127.099C176.801 127.499 177.301 127.699 177.701 127.999C178.101 128.399 178.501 128.799 178.901 129.199C179.301 129.799 179.701 130.399 180.101 130.999C180.601 131.599 181.301 131.999 181.601 132.699C182.101 133.999 183.201 134.799 184.101 135.799C184.901 136.799 185.801 137.799 186.801 138.599C187.401 139.099 187.401 139.899 187.901 140.499C188.101 140.699 187.401 142.099 186.901 142.299C186.901 142.299 186.701 142.299 186.601 142.299C185.801 142.099 184.801 142.099 184.301 141.499C183.501 140.599 182.701 139.699 181.901 138.899L182.101 138.799Z" fill="black"/>
<path d="M120.101 160.499C120.101 160.999 120.101 161.499 120.101 161.999C120.101 162.199 119.901 162.399 120.401 162.499C120.701 162.499 120.001 162.799 120.101 162.899C120.101 163.399 120.101 163.799 120.101 164.299C120.101 164.699 120.401 165.199 120.501 165.599C120.501 165.999 120.301 166.499 120.601 166.899C120.901 167.299 120.401 167.599 120.601 167.899C120.701 168.299 120.801 168.699 120.601 168.999C120.401 169.299 120.201 169.499 120.301 169.799C120.301 169.999 120.701 170.099 120.701 170.299C120.701 170.499 120.401 170.699 121.101 170.799C121.101 170.799 121.101 170.799 121.001 170.899C120.601 171.099 120.601 171.299 121.001 171.499C121.301 171.599 121.201 171.799 121.301 171.899C121.301 172.299 121.301 172.599 121.301 172.999C121.301 173.299 121.001 173.599 121.001 173.799C121.001 174.099 121.201 174.399 121.001 174.699C120.701 174.999 120.701 175.199 120.701 175.499C120.701 175.699 120.401 175.799 121.101 175.899C120.301 176.399 121.401 176.699 121.101 177.199C120.901 177.699 121.101 178.099 121.101 178.599C121.101 178.699 120.901 178.899 121.401 178.999C121.601 178.999 121.601 179.199 121.401 179.199C120.801 179.599 121.201 179.899 121.101 180.199C121.001 180.599 121.301 180.999 120.801 181.399C120.601 181.599 120.501 181.799 121.101 181.999C121.401 181.999 121.101 182.299 121.101 182.399C121.101 182.499 121.401 182.599 121.401 182.699C121.401 182.699 121.201 182.899 121.101 182.999C121.801 183.599 120.901 184.199 121.101 184.699C121.301 185.299 121.201 185.899 121.101 186.499C121.101 186.799 120.901 187.199 119.701 187.399C119.201 187.499 118.601 187.499 118.301 187.399C118.101 187.399 117.801 187.199 117.801 187.099C117.701 186.899 117.601 186.699 117.501 186.599C117.301 186.199 116.801 185.899 117.001 185.499C117.001 185.399 116.801 185.199 117.301 185.099C116.501 184.599 117.001 184.099 116.901 183.499C116.901 183.099 116.201 182.599 116.501 182.199C115.901 181.999 116.001 181.699 116.101 181.399C116.701 180.499 116.301 179.599 116.301 178.699C116.301 177.799 116.301 176.899 116.301 175.999C116.301 175.799 115.901 175.699 116.301 175.499C116.601 175.299 116.301 175.099 116.301 174.899C116.301 174.699 116.201 174.499 116.301 174.399C116.901 173.699 116.501 172.999 116.601 172.299C116.601 171.599 116.601 170.899 116.601 170.199C116.501 169.799 116.101 169.399 116.201 168.899C116.201 168.699 115.901 168.499 116.501 168.299C116.701 168.299 116.201 168.099 116.201 167.999C116.201 167.699 116.201 167.399 116.201 167.099C116.201 166.699 116.201 166.299 116.201 165.899C116.201 165.699 115.901 165.399 115.801 165.199C115.801 164.899 115.801 164.699 115.801 164.399C115.801 164.099 116.101 163.699 116.101 163.399C116.101 163.099 115.901 162.699 116.101 162.399C116.601 161.799 116.301 161.199 116.401 160.599C116.401 159.999 116.401 159.399 116.401 158.799C116.401 158.499 116.801 158.099 116.801 157.799C116.801 157.599 118.301 157.399 118.801 157.499H119.001C119.501 157.799 120.201 158.099 120.201 158.499C120.201 159.099 120.201 159.599 120.201 160.199L120.101 160.499Z" fill="black"/>
<path d="M166.101 147.298C166.501 147.098 166.801 146.998 167.201 146.698C167.301 146.698 167.601 146.698 167.501 146.198C167.501 145.898 167.901 146.398 168.001 146.398C168.301 146.198 168.701 146.098 169.001 145.898C169.301 145.698 169.501 145.298 169.801 145.098C170.101 144.898 170.601 145.098 170.801 144.598C171.001 144.198 171.401 144.598 171.601 144.298C171.801 144.098 172.101 143.898 172.501 143.998C172.801 143.998 173.101 144.198 173.201 143.998C173.201 143.898 173.201 143.498 173.401 143.498C173.501 143.498 173.801 143.698 173.701 142.998C173.701 142.998 173.701 142.998 173.901 142.998C174.201 143.298 174.401 143.198 174.401 142.998C174.401 142.698 174.501 142.698 174.601 142.598C174.901 142.498 175.201 142.298 175.501 142.298C175.701 142.298 176.001 142.298 176.301 142.298C176.501 142.298 176.701 141.898 177.001 142.098C177.301 142.298 177.501 142.198 177.701 142.098C177.801 142.098 178.101 142.298 177.901 141.598C178.501 142.298 178.501 141.098 178.901 141.198C179.301 141.198 179.601 140.998 180.001 140.898C180.001 140.898 180.301 140.998 180.201 140.498C180.201 140.298 180.201 140.298 180.401 140.398C180.901 140.898 181.001 140.398 181.301 140.398C181.601 140.398 181.901 139.998 182.301 140.398C182.501 140.598 182.701 140.598 182.701 139.998C182.701 139.698 182.901 139.998 183.001 139.798C183.001 139.798 183.001 139.398 183.201 139.398C183.201 139.398 183.401 139.598 183.501 139.698C183.801 138.898 184.501 139.698 184.901 139.298C185.301 138.998 185.801 138.898 186.301 138.898C186.601 138.898 186.901 138.898 187.401 139.998C187.601 140.498 187.801 140.998 187.701 141.398C187.701 141.698 187.701 141.898 187.601 141.998C187.501 142.098 187.401 142.298 187.301 142.398C187.101 142.698 186.901 143.298 186.601 143.098C186.501 143.098 186.501 143.398 186.201 142.898C186.001 143.798 185.501 143.398 185.101 143.598C184.801 143.798 184.601 144.498 184.201 144.298C184.201 144.998 184.001 144.898 183.701 144.798C182.801 144.398 182.301 144.998 181.601 145.198C180.901 145.298 180.301 145.698 179.601 145.898C179.501 145.898 179.601 146.298 179.301 146.098C179.101 145.898 179.001 146.098 178.801 146.198C178.701 146.198 178.601 146.398 178.401 146.298C177.601 145.898 177.301 146.498 176.701 146.598C176.201 146.698 175.601 146.898 175.201 147.298C174.901 147.498 174.801 147.998 174.401 147.998C174.201 147.998 174.201 148.398 173.901 147.898C173.801 147.798 173.901 148.198 173.801 148.298C173.601 148.398 173.401 148.498 173.201 148.598C172.901 148.698 172.601 148.798 172.301 148.998C172.101 149.098 172.101 149.398 171.901 149.598C171.701 149.698 171.601 149.798 171.301 149.898C171.001 149.898 170.701 149.898 170.401 149.898C170.101 149.898 170.001 150.298 169.601 150.198C168.901 149.998 168.601 150.398 168.201 150.598C167.701 150.798 167.301 150.898 166.901 151.298C166.701 151.498 166.201 151.198 166.001 151.298C165.901 151.298 165.101 150.098 164.901 149.698V149.498C164.901 148.998 164.801 148.198 165.101 148.098C165.501 147.998 165.901 147.698 166.301 147.498L166.101 147.298Z" fill="black"/>
<path d="M146.701 141.097C146.701 140.897 146.701 140.697 146.701 140.597C146.701 140.597 146.901 140.497 146.401 140.397C146.101 140.397 146.801 140.297 146.701 140.197C146.701 139.997 146.701 139.897 146.701 139.697C146.701 139.497 146.401 139.397 146.401 139.197C146.401 138.997 146.701 138.897 146.401 138.697C146.101 138.497 146.601 138.497 146.501 138.297C146.401 138.197 146.301 137.997 146.501 137.897C146.701 137.897 146.901 137.697 146.801 137.597C146.801 137.597 146.401 137.397 146.501 137.397C146.501 137.397 146.801 137.397 146.201 137.197C146.201 137.197 146.201 137.197 146.401 137.197C146.801 137.197 146.801 137.197 146.501 136.997C146.201 136.997 146.301 136.897 146.301 136.797C146.301 136.697 146.301 136.497 146.301 136.397C146.301 136.397 146.601 136.197 146.701 136.197C146.701 136.197 146.501 135.897 146.801 135.897C147.101 135.897 147.101 135.797 147.101 135.697C147.101 135.697 147.401 135.697 146.801 135.497C147.601 135.497 146.601 135.097 146.801 134.997C147.001 134.897 146.901 134.697 147.001 134.497C147.001 134.497 147.201 134.497 146.801 134.297C146.601 134.197 146.601 134.297 146.801 134.297C147.401 134.297 147.101 134.097 147.201 133.997C147.401 133.897 147.201 133.697 147.601 133.697C147.801 133.697 147.901 133.697 147.401 133.397C147.201 133.297 147.401 133.397 147.401 133.197L147.101 132.997C147.101 132.997 147.301 132.997 147.501 132.997C146.901 132.597 147.901 132.697 147.801 132.397C147.801 132.097 147.801 131.997 148.001 131.797C148.001 131.797 148.301 131.697 149.401 131.997C149.901 132.197 150.401 132.397 150.701 132.597C150.901 132.697 151.101 132.797 151.101 132.897C151.101 132.897 151.301 133.097 151.301 133.197C151.401 133.397 151.901 133.697 151.601 133.697C151.601 133.697 151.801 133.897 151.301 133.697C152.001 134.097 151.401 134.097 151.401 134.297C151.401 134.397 152.001 134.797 151.701 134.797C152.301 135.097 152.101 135.097 151.901 135.097C151.201 135.097 151.501 135.497 151.401 135.797C151.201 135.997 151.301 136.297 151.201 136.597C151.201 136.597 151.501 136.797 151.201 136.797C150.901 136.797 151.201 136.897 151.201 136.997C151.201 136.997 151.301 137.097 151.201 137.197C150.501 137.197 150.901 137.597 150.801 137.797C150.801 137.997 150.601 138.197 150.801 138.397C150.801 138.497 151.201 138.697 151.101 138.797C151.101 138.797 151.401 138.897 150.801 138.897C150.601 138.897 151.101 138.897 151.101 138.997C151.101 138.997 151.101 139.197 151.101 139.297C151.101 139.397 151.101 139.497 151.101 139.697L151.401 139.897V140.097C151.401 140.097 151.101 140.297 151.001 140.397C151.001 140.497 151.201 140.597 151.001 140.697C150.501 140.897 150.701 141.097 150.701 141.297C150.701 141.497 150.701 141.697 150.701 141.797C150.701 141.797 150.301 141.997 150.301 142.097C150.301 142.097 148.801 142.297 148.301 142.397H148.101C147.601 142.397 146.901 142.297 146.901 142.097C146.901 141.897 146.901 141.697 146.901 141.497L146.701 141.097Z" fill="black"/>
<path d="M157.102 141.898C157.102 141.698 157.102 141.498 157.102 141.398C157.102 141.398 157.302 141.298 156.802 141.198C156.502 141.198 157.202 141.098 157.102 140.998C157.102 140.798 157.102 140.698 157.102 140.498C157.102 140.298 156.802 140.198 156.802 139.998C156.802 139.798 157.102 139.698 156.802 139.498C156.502 139.298 157.002 139.298 156.902 139.098C156.802 138.998 156.702 138.798 156.902 138.698C157.102 138.698 157.302 138.498 157.202 138.398C157.202 138.398 156.802 138.198 156.902 138.198C156.902 138.198 157.202 138.198 156.602 137.998C156.602 137.998 156.602 137.998 156.802 137.998C157.202 137.998 157.202 137.998 156.902 137.798C156.602 137.798 156.702 137.698 156.702 137.598C156.702 137.498 156.702 137.298 156.702 137.198C156.702 137.198 157.002 136.998 157.102 136.998C157.102 136.998 156.902 136.698 157.202 136.698C157.502 136.698 157.502 136.598 157.502 136.498C157.502 136.498 157.802 136.498 157.202 136.298C158.002 136.298 157.002 135.898 157.202 135.798C157.402 135.698 157.302 135.498 157.402 135.298C157.402 135.298 157.602 135.298 157.202 135.098C157.002 134.998 157.002 135.098 157.202 135.098C157.802 135.098 157.502 134.898 157.602 134.798C157.802 134.698 157.602 134.498 158.002 134.498C158.202 134.498 158.302 134.498 157.802 134.198C157.602 134.098 157.802 134.198 157.802 133.998L157.502 133.798C157.502 133.798 157.702 133.798 157.902 133.798C157.302 133.398 158.302 133.498 158.202 133.198C158.202 132.898 158.202 132.798 158.402 132.598C158.402 132.598 158.702 132.498 159.802 132.798C160.302 132.998 160.802 133.198 161.102 133.398C161.302 133.498 161.502 133.598 161.502 133.698C161.502 133.698 161.702 133.898 161.702 133.998C161.802 134.198 162.302 134.498 162.002 134.498C162.002 134.498 162.202 134.698 161.702 134.498C162.402 134.898 161.802 134.898 161.802 135.098C161.802 135.198 162.402 135.598 162.102 135.598C162.702 135.898 162.502 135.898 162.302 135.898C161.602 135.898 161.902 136.298 161.802 136.598C161.602 136.798 161.702 137.098 161.602 137.398C161.602 137.398 161.902 137.598 161.602 137.598C161.302 137.598 161.602 137.698 161.602 137.798C161.602 137.798 161.702 137.898 161.602 137.998C160.902 137.998 161.302 138.398 161.202 138.598C161.202 138.798 161.002 138.998 161.202 139.198C161.202 139.298 161.602 139.498 161.502 139.598C161.502 139.598 161.802 139.698 161.202 139.698C161.002 139.698 161.502 139.698 161.502 139.798C161.502 139.798 161.502 139.998 161.502 140.098C161.502 140.198 161.502 140.298 161.502 140.498L161.802 140.698V140.898C161.802 140.898 161.502 141.098 161.402 141.198C161.402 141.298 161.602 141.398 161.402 141.498C160.902 141.698 161.102 141.898 161.102 142.098C161.102 142.298 161.102 142.498 161.102 142.598C161.102 142.598 160.702 142.798 160.702 142.898C160.702 142.898 159.202 143.098 158.702 143.198H158.502C158.002 143.198 157.302 143.098 157.302 142.898C157.302 142.698 157.302 142.498 157.302 142.298L157.102 141.898Z" fill="black"/>
<path d="M171.501 151.998C172.401 152.998 173.201 153.998 174.001 154.898C174.301 155.298 174.401 155.798 175.201 155.798C175.601 155.798 175.401 156.598 175.701 156.898C176.501 157.798 177.201 158.798 178.001 159.698C178.401 160.198 178.801 160.498 179.201 160.998C179.801 161.698 180.401 162.398 181.101 163.298C182.101 164.498 182.801 165.698 183.701 166.998C183.201 167.198 182.701 167.298 182.301 167.498C181.601 167.798 180.701 167.998 179.901 168.198C179.001 168.298 178.201 168.498 177.501 168.698C177.301 168.698 177.101 168.798 176.901 168.898H176.401C176.201 169.098 175.901 169.198 175.601 169.198C175.101 169.298 174.601 169.298 174.101 169.198C173.401 169.198 172.601 168.998 171.901 169.198C171.501 169.298 171.101 169.698 170.601 169.698C170.101 169.698 169.601 169.498 169.201 170.098C169.201 170.098 169.001 170.098 168.901 169.998C168.401 169.598 167.801 169.698 167.401 169.998C167.001 170.298 166.601 170.198 166.301 170.198C165.301 170.198 164.201 170.198 163.201 169.998C162.401 169.898 161.701 169.598 160.901 169.398C160.101 169.298 159.201 169.398 158.501 168.998C157.801 168.598 157.101 168.398 156.401 168.298C156.001 168.298 155.601 167.798 155.101 168.298C155.101 168.298 154.901 168.298 154.801 168.298C153.901 167.198 152.501 167.898 151.401 167.298C150.301 166.698 149.001 166.398 147.901 165.898C147.601 165.798 147.301 165.398 146.901 165.698C146.701 165.698 146.401 165.698 146.301 165.398C145.801 164.398 144.701 164.198 143.901 163.598C143.001 162.898 142.001 162.398 141.401 161.298C141.201 160.798 140.801 160.298 140.001 160.298C139.601 160.298 139.401 159.698 139.101 159.398C138.801 159.198 138.401 159.098 138.201 158.798C138.001 158.598 138.001 158.198 137.901 157.898C137.901 157.898 137.901 157.698 137.701 157.698C137.001 157.198 136.501 156.398 136.301 155.598L135.901 154.398C135.801 153.998 135.701 153.598 135.501 153.198C134.701 151.698 134.401 149.898 134.301 148.198C134.301 147.298 134.401 146.298 135.501 145.698C136.001 145.398 136.601 145.398 136.901 145.698C137.201 145.998 137.401 146.198 137.501 146.498C137.601 146.998 137.701 147.398 137.901 147.798C138.101 148.198 138.301 148.698 138.501 149.098C138.701 149.498 138.901 149.898 138.901 150.398C138.901 150.698 139.201 150.898 138.901 151.298V151.498C139.501 151.898 139.701 152.498 140.001 152.998C140.101 153.298 140.201 153.598 140.301 153.898C140.401 154.198 140.601 154.498 140.801 154.698C141.101 155.098 141.501 155.498 141.901 155.798C142.301 156.098 142.701 156.398 143.001 156.898C143.801 156.898 144.201 157.398 144.501 157.898C145.601 159.798 147.701 160.598 149.601 161.598C151.501 162.598 153.601 163.298 155.801 163.898C156.201 163.898 156.601 163.698 156.901 164.098C157.201 164.498 157.801 164.398 158.301 164.498C158.701 164.498 159.201 164.498 159.601 164.798C161.201 165.798 163.101 165.598 164.801 165.698C166.501 165.898 168.301 165.898 170.101 165.698C171.201 165.498 172.201 165.098 173.201 165.098C173.701 165.098 174.101 164.698 174.601 165.098C174.801 165.198 175.101 164.698 175.401 164.598H175.801C175.801 164.498 176.001 164.498 176.001 164.498C176.101 164.498 176.301 164.498 176.401 164.498C176.401 164.498 176.401 164.398 176.201 164.298C176.101 164.198 175.701 164.098 175.601 164.098C175.601 164.098 175.501 164.098 175.401 163.898L175.201 163.698L174.901 163.298C174.401 162.598 174.101 161.798 173.601 161.098C173.101 160.398 172.301 159.798 172.001 158.998C171.401 157.498 170.201 156.398 169.201 155.198C168.201 153.998 167.201 152.798 166.101 151.698C165.501 151.098 165.301 150.198 164.701 149.498C164.401 149.198 165.101 147.798 165.601 147.598C165.601 147.598 165.801 147.598 165.901 147.598C166.801 147.898 167.901 147.998 168.501 148.698C169.401 149.798 170.501 150.898 171.401 151.998H171.501Z" fill="black"/>
<path d="M160.002 186.998L160.502 185.998C160.502 185.798 160.602 185.698 160.702 185.498C160.702 185.498 161.102 184.998 160.402 185.498C160.002 185.698 161.002 184.998 161.002 184.898V184.798H160.802C160.602 184.898 160.502 184.998 160.302 184.998C160.102 184.998 160.002 185.198 159.802 185.298H159.602C159.302 185.298 159.002 185.398 158.702 185.398C157.502 185.498 156.402 185.198 155.302 185.398C154.302 185.598 153.602 184.898 152.702 184.798C151.702 184.698 150.802 184.498 150.002 183.898C149.402 183.498 148.902 182.998 148.302 182.898C147.902 182.798 147.402 182.898 147.002 182.698C146.602 182.498 146.402 181.998 145.702 182.398C145.702 182.398 145.502 182.198 145.502 182.098C145.302 181.498 144.902 181.198 144.402 181.298C143.902 181.298 143.702 181.098 143.402 180.898C142.602 180.398 141.902 179.798 141.202 179.198C140.702 178.698 140.302 178.098 139.902 177.498C139.402 176.998 138.702 176.598 138.502 175.898C138.302 175.198 137.802 174.798 137.402 174.298C137.202 173.998 137.102 173.498 136.402 173.698C136.402 173.698 136.302 173.698 136.302 173.498C136.302 172.198 134.802 171.998 134.302 170.898C133.902 169.798 133.102 168.798 132.702 167.698C132.602 167.398 132.702 166.998 132.102 166.898C131.902 166.898 131.802 166.498 131.902 166.298C132.102 165.798 132.002 165.298 131.902 164.898C131.802 164.498 131.602 163.998 131.602 163.598C131.602 163.098 131.502 162.598 131.502 162.098C131.502 161.598 131.502 161.098 131.702 160.598C131.902 160.198 132.002 159.598 131.502 159.098C131.202 158.898 131.502 158.398 131.502 157.998C131.502 157.698 131.202 157.398 131.302 157.098C131.302 156.798 131.602 156.598 131.702 156.398V156.198C131.302 154.698 132.402 153.498 132.602 152.098C132.802 150.698 133.202 149.398 133.802 148.098C134.102 147.398 134.502 146.698 135.702 146.598C136.302 146.598 136.802 146.698 137.002 147.098C137.202 147.398 137.302 147.698 137.302 147.998C137.302 148.398 137.302 148.898 137.302 149.298C137.302 150.198 137.502 151.098 137.002 151.898C136.802 152.098 137.002 152.498 136.502 152.598C136.502 152.598 136.402 152.698 136.402 152.798C136.902 154.098 136.102 155.098 136.002 156.298C135.902 157.298 136.402 158.298 136.002 159.198C136.602 159.798 136.502 160.298 136.302 160.798C135.602 162.598 136.302 164.398 136.902 165.998C137.402 167.698 138.502 169.198 139.702 170.698C139.902 170.998 140.402 170.998 140.402 171.398C140.402 171.898 140.902 172.098 141.202 172.398C141.502 172.698 141.802 172.898 142.002 173.298C142.602 174.898 144.002 175.698 145.202 176.698C146.302 177.698 147.602 178.598 149.002 179.198C149.902 179.498 150.802 179.598 151.602 179.998C151.902 180.198 152.402 179.998 152.602 180.698C152.602 180.898 153.102 180.598 153.402 180.698C154.002 180.798 154.602 180.998 155.202 181.098C156.002 181.198 156.902 181.398 157.702 181.298C158.202 181.298 158.702 180.998 159.202 180.898C159.302 180.898 159.502 180.898 159.602 180.898H159.702H159.802L160.202 180.798L161.102 180.598C161.402 180.598 161.702 180.598 162.002 180.398C162.802 180.198 163.602 179.998 164.402 179.698C165.202 179.498 165.902 179.298 166.702 178.998C167.002 178.898 167.402 178.798 167.702 178.598V179.098V179.398V179.798C167.402 180.298 167.302 180.898 167.002 181.498C166.302 182.898 165.902 183.898 165.602 184.998C165.202 185.998 164.802 187.198 164.302 188.198C163.602 189.498 162.902 190.798 162.202 192.098C161.802 192.798 161.002 193.198 160.502 193.798C160.302 194.098 158.802 193.598 158.502 193.198C158.502 193.198 158.402 192.998 158.402 192.898C158.402 191.998 158.202 191.098 158.702 190.398C159.402 189.398 160.002 188.298 160.502 187.298L160.002 186.998Z" fill="black"/>
<path d="M212.3 121.3C210.6 121.1 208.9 120.8 207.3 120.6C206.7 120.5 206.1 120.1 205.4 120.5C205 120.7 204.6 119.9 204 119.8C202.5 119.5 201 119 199.5 118.5C198 118.1 196.5 117.8 195.1 117.3C193.7 116.8 192.4 116 190.9 115.7C189.6 115.5 188.8 114.6 187.7 114.2C186.5 113.8 185.3 113.3 184.3 112.6C183.6 112.1 182.9 111.5 182 111.2C181.5 111 180.9 111.1 180.3 110.8C179.8 110.5 179.3 110 178.6 110.4C178.6 110.4 178.4 110.2 178.3 110.1C177.9 109.5 177.3 109.2 176.7 109.2C176.1 109.2 175.8 109 175.4 108.9C174.3 108.4 173.1 107.9 172 107.4C171.2 107 170.4 106.4 169.6 106C168.7 105.6 167.7 105.5 167 104.8C166.3 104.2 165.5 103.9 164.7 103.6C164.2 103.4 163.8 103 163.2 103.4C163.2 103.4 163 103.4 162.9 103.4C161.8 102.2 160.2 102.8 158.9 102.2C157.6 101.6 156.1 101.4 154.7 101.2C154.3 101.2 153.9 100.9 153.5 101.3C153.4 101.4 153 101.4 152.8 101.3C151.8 100.6 150.7 100.9 149.7 100.8C148.5 100.8 147.4 101.1 146.1 100.8C145.6 100.7 144.8 100.8 144.4 101.5C144.2 101.8 143.6 101.8 143.2 102C142.9 102.2 142.7 102.5 142.4 102.7C142.1 102.8 141.8 102.7 141.4 102.7C141.4 102.7 141.2 102.7 141.1 102.8C140.5 103.5 139.7 103.9 139 104.2C138.2 104.6 137.4 105 136.8 105.6C135.6 106.9 134.4 108.1 133.6 109.5C133.1 110.3 132.7 110.9 131.5 111.4C130.9 111.6 130.4 111.5 130.2 111C130 110.6 129.9 110.1 130 109.7C130.1 109 130.3 108.3 130.5 107.7C131 106.4 131.4 104.9 132.6 104.1C133 103.8 133.1 103.3 133.7 103.4C133.7 103.4 133.9 103.4 134 103.2C134.8 101.4 136.8 100.6 138.4 99.6002C139.8 98.8002 141 97.6002 142.7 97.3002C143.4 96.4002 144.5 96.2002 145.4 96.3002C148.7 96.3002 151.9 96.0002 155 96.5002C158.1 97.1002 161.2 97.8002 164.1 98.8002C164.6 99.0002 165.1 98.8002 165.6 99.2002C166.1 99.6002 166.8 99.7002 167.4 99.9002C168 100.1 168.6 100.2 169.1 100.6C171.1 102.1 173.4 102.7 175.5 103.7C177.6 104.7 179.7 105.8 181.9 106.6C183.2 107.1 184.7 107.4 185.9 108.1C186.4 108.4 187.1 108.4 187.4 109.2C187.4 109.4 188.2 109.2 188.6 109.4C189.5 109.8 190.4 110.2 191.3 110.6C192.5 111.1 193.7 111.7 195 112.1C195.8 112.4 196.6 112.4 197.4 112.7C198.2 112.9 199 113.2 199.8 113.5C200.8 113.9 201.7 114.4 202.7 114.8C203.7 115.2 204.9 115.2 205.9 115.7C207.7 116.6 209.7 116.8 211.6 117.1C213.5 117.4 215.5 117.6 217.4 117.4C218.5 117.4 219.5 117.8 220.6 117.7C221.1 117.7 221.9 119.1 221.8 119.6C221.8 119.6 221.7 119.8 221.6 119.9C221.1 120.2 220.6 120.5 220 120.8C219.5 121.1 218.9 121.3 218.2 121.3C216.3 121.3 214.3 121.3 212.4 121L212.3 121.3Z" fill="black"/>
<path d="M202.299 155.9C203.199 156.2 204.199 156.4 205.199 156.6C205.599 156.6 205.899 157 206.399 156.6C206.599 156.4 206.899 157.1 207.199 157.1C208.099 157.1 208.999 157.4 209.899 157.5C210.799 157.5 211.7 157.5 212.6 157.5C213.5 157.5 214.399 157.8 215.199 157.5C215.399 157.5 215.599 157.5 215.699 157.5C215.799 157.5 215.699 157.5 215.799 157.5C215.799 157.6 215.999 157.7 215.999 157.7C215.999 157.7 215.999 157.6 215.999 157.5C215.999 157.5 215.999 157.5 216.199 157.5V157.3C216.399 157.2 216.499 157.1 216.499 156.9C216.599 156.7 216.699 156.4 216.799 156.1C216.799 155.8 216.599 155.4 216.799 155C216.899 154.7 217.299 154.4 216.799 153.9C216.799 153.9 216.899 153.7 216.999 153.7C217.499 153.5 217.599 153 217.399 152.6C217.199 152.2 217.399 152 217.399 151.7C217.599 150.9 217.799 150.2 217.999 149.5C218.199 149 218.599 148.5 218.799 147.9C219 147.3 218.799 146.6 219.299 146.2C219.699 145.7 219.799 145.2 219.899 144.7C219.899 144.4 220.299 144.1 219.799 143.7C219.799 143.7 219.799 143.6 219.799 143.5C220.799 142.8 219.899 141.7 220.299 140.9C220.699 140 220.699 139.1 220.799 138.2C220.799 138 221 137.7 220.6 137.4C220.5 137.3 220.5 137 220.6 136.9C221.3 136.3 220.999 135.6 221.199 134.9C221.399 134.1 221.199 133.3 221.699 132.5C221.899 132.2 222.099 131.7 221.499 131.3C221.199 131.1 221.499 130.7 221.499 130.4C221.499 130.2 221.199 129.9 221.199 129.7C221.199 129.5 221.399 129.3 221.499 129.1C221.499 129.1 221.499 129 221.499 128.9C220.799 127.8 221.599 126.7 221.299 125.6C221 124.5 220.8 123.5 220.6 122.4C220.5 121.8 220.399 121.2 221.299 120.4C221.699 120 222.2 119.8 222.6 119.9C222.9 119.9 223.199 120.1 223.399 120.4C223.599 120.7 223.9 121.1 224.1 121.4C224.5 122.1 225.299 122.8 225.199 123.8C225.199 124.1 225.5 124.3 225.1 124.6V124.8C226.1 125.8 225.599 127.1 225.699 128.2C225.699 129.2 226.4 130.1 226.1 131.1C226.7 131.7 226.599 132.3 226.299 132.8C225.5 134.6 225.799 136.6 225.399 138.4C224.999 140.3 224.799 142.2 224.299 144C224.299 144.3 224.499 144.7 224.199 145C223.899 145.3 223.999 145.8 223.899 146.2C223.899 146.6 223.9 147 223.6 147.3C222.6 148.6 222.599 150.1 222.199 151.5C221.699 152.9 221.299 154.3 220.999 155.7C220.799 156.6 220.999 157.5 220.499 158.4C220.299 159 220.3 160 219.6 160.2C219.4 160.2 219.599 161.2 219.499 161.6V161.8H219.199H218.799H217.999H216.299H215.399H214.699C214.299 161.8 213.799 161.8 213.399 161.8C212.899 161.8 212.299 162 211.799 162C211.199 162 210.7 162 210.1 161.8C209.4 161.7 208.699 161.3 207.999 161.2C207.299 161 206.499 161.2 205.799 160.8C204.599 160.1 203.299 160 201.999 159.6C200.799 159.2 199.499 158.8 198.299 158.5C197.599 158.3 197.099 157.6 196.499 157.4C196.199 157.3 196.3 155.8 196.6 155.3C196.6 155.3 196.699 155.1 196.799 155.1C197.599 154.9 198.4 154.4 199.1 154.7C200.1 155.1 201.199 155.4 202.299 155.7V155.9Z" fill="black"/>
<path d="M207.701 173.399C207.401 173.299 207.201 173.099 206.901 172.999C206.801 172.999 206.901 172.699 206.501 173.099C206.301 173.299 206.501 172.699 206.501 172.699C206.201 172.699 206.001 172.499 205.701 172.399C205.401 172.399 205.101 172.399 204.801 172.399C204.501 172.399 204.401 171.999 204.001 172.199C203.701 172.399 203.701 171.899 203.401 171.899C203.101 171.899 202.901 171.899 202.801 171.699C202.701 171.499 202.601 171.199 202.401 171.299C202.301 171.299 202.101 171.599 202.001 171.599C202.001 171.599 201.901 171.299 201.601 171.799C201.601 171.799 201.601 171.799 201.601 171.599C201.601 171.199 201.501 171.199 201.301 171.399C201.101 171.599 201.101 171.599 201.001 171.599C200.801 171.599 200.501 171.599 200.301 171.399C200.101 171.399 200.001 170.999 199.901 170.899C199.701 170.799 199.501 170.999 199.401 170.699C199.401 170.399 199.101 170.299 199.001 170.299C199.001 170.299 198.901 169.999 198.601 170.599C198.601 169.699 198.001 170.699 197.801 170.399C197.601 170.099 197.201 170.199 196.901 170.099C196.901 170.099 196.801 169.899 196.601 170.299C196.601 170.399 196.401 170.399 196.401 170.299C196.401 169.599 196.001 169.899 195.801 169.799C195.601 169.599 195.201 169.799 195.101 169.299C195.101 169.099 194.901 168.899 194.601 169.399C194.501 169.599 194.401 169.399 194.301 169.399C194.301 169.399 194.001 169.699 194.001 169.599C194.001 169.599 194.001 169.299 194.001 169.199C193.401 169.699 193.301 168.699 192.901 168.799C192.501 168.799 192.101 168.599 191.801 168.399C191.601 168.299 191.501 167.999 191.801 166.899C191.901 166.399 192.201 165.899 192.401 165.599C192.601 165.399 192.701 165.199 192.801 165.199C192.901 165.199 193.101 165.099 193.201 164.999C193.501 164.999 193.901 164.499 194.001 164.799C194.001 164.899 194.201 164.699 194.101 165.199C194.701 164.599 194.801 165.199 195.101 165.199C195.401 165.199 195.801 164.699 196.001 165.099C196.301 164.499 196.501 164.699 196.601 164.899C196.901 165.699 197.601 165.399 198.101 165.699C198.601 165.899 199.201 165.999 199.701 166.199C199.701 166.199 200.001 165.899 200.001 166.199C200.001 166.499 200.201 166.299 200.301 166.299C200.401 166.299 200.601 166.299 200.601 166.399C200.901 167.199 201.401 166.899 201.801 167.099C202.201 167.299 202.701 167.499 203.101 167.399C203.401 167.399 203.801 167.099 204.001 167.399C204.101 167.399 204.301 167.199 204.301 167.799C204.301 167.999 204.501 167.599 204.601 167.599C204.801 167.599 205.001 167.699 205.201 167.799C205.501 167.799 205.701 167.999 206.001 168.099C206.201 168.099 206.401 167.899 206.601 167.899C206.801 167.899 207.001 167.899 207.101 168.099C207.301 168.299 207.401 168.499 207.601 168.699C207.801 168.799 208.101 168.699 208.201 168.999C208.401 169.599 208.901 169.599 209.201 169.799C209.501 170.099 209.901 170.299 210.301 170.399C210.501 170.399 210.501 170.999 210.701 171.099C210.701 171.099 210.101 172.499 209.801 172.899C209.801 172.899 209.701 173.099 209.601 173.099C209.201 173.399 208.601 173.899 208.501 173.799C208.301 173.599 208.001 173.499 207.701 173.299V173.399Z" fill="black"/>
<path d="M164.601 190.702C165.501 190.702 166.501 190.602 167.401 190.402C167.701 190.402 168.101 190.602 168.401 190.002C168.601 189.702 169.001 190.302 169.301 190.302C170.201 190.102 171.101 190.102 171.901 190.002C172.701 189.802 173.601 189.502 174.401 189.302C175.201 189.102 176.101 189.302 176.901 188.902C177.601 188.502 178.301 188.902 178.901 188.702C179.601 188.502 180.301 188.302 181.001 188.402C181.501 188.402 182.101 188.602 182.501 188.402C182.801 188.302 183.001 187.902 183.401 187.902C183.701 187.902 184.101 188.002 184.301 187.402C184.301 187.402 184.501 187.402 184.601 187.402C185.001 187.702 185.401 187.602 185.601 187.302C185.801 187.002 186.101 186.902 186.301 186.902C187.001 186.702 187.701 186.502 188.301 186.402C188.801 186.402 189.401 186.402 189.901 186.302C190.401 186.202 190.901 185.702 191.501 185.902C192.101 186.002 192.501 185.902 193.001 185.602C193.301 185.502 193.701 185.602 193.701 185.002C193.701 185.002 193.701 185.002 193.901 185.002C195.001 185.402 195.201 184.102 196.001 184.002C196.801 183.802 197.501 183.302 198.201 182.802C198.401 182.702 198.701 182.802 198.601 182.202C198.601 182.002 198.801 181.902 198.901 181.902C199.801 182.102 200.101 181.402 200.701 181.102C201.401 180.802 201.701 180.102 202.601 180.002C203.001 180.002 203.401 179.802 203.201 179.102C203.201 178.802 203.601 178.802 203.701 178.502C203.801 178.302 203.701 178.002 203.901 177.802C204.001 177.702 204.301 177.802 204.501 177.702C204.501 177.702 204.601 177.702 204.601 177.602C204.801 176.402 206.101 176.202 206.601 175.202C207.001 174.202 207.701 173.402 208.201 172.502C208.501 172.002 208.901 171.602 210.101 171.602C210.701 171.602 211.201 171.802 211.401 172.202C211.501 172.502 211.701 172.802 211.601 173.002C211.601 173.402 211.501 173.802 211.401 174.202C211.201 175.002 211.301 175.902 210.601 176.502C210.401 176.702 210.501 177.102 209.901 177.002C209.901 177.002 209.701 177.002 209.701 177.102C209.701 178.402 208.601 179.002 207.901 179.902C207.301 180.602 207.101 181.702 206.201 182.202C206.201 183.002 205.701 183.402 205.201 183.602C203.401 184.302 202.101 185.702 200.501 186.602C198.901 187.502 197.201 188.402 195.501 189.102C195.201 189.202 195.101 189.702 194.601 189.502C194.201 189.402 193.801 189.702 193.501 189.902C193.201 190.002 192.801 190.302 192.501 190.302C190.901 190.102 189.701 190.902 188.301 191.202C186.901 191.502 185.501 191.802 184.201 192.202C183.401 192.502 182.601 193.002 181.701 193.002C181.301 193.002 181.001 193.402 180.601 192.902C180.501 192.802 180.201 193.302 180.001 193.302C179.401 193.402 178.901 193.502 178.301 193.602C177.501 193.702 176.701 193.802 175.901 194.002C175.401 194.102 175.001 194.402 174.501 194.502C174.001 194.602 173.501 194.702 173.001 194.702C172.301 194.702 171.701 194.602 171.001 194.602C170.301 194.602 169.701 195.002 169.001 194.802C167.801 194.402 166.601 194.802 165.401 194.802C164.201 194.802 163.001 194.802 161.801 195.102C161.101 195.202 160.501 194.802 159.801 194.802C159.501 194.802 159.001 193.402 159.101 192.902C159.101 192.902 159.101 192.702 159.201 192.702C159.801 192.202 160.301 191.402 161.101 191.402C162.201 191.402 163.201 191.302 164.301 191.202L164.601 190.702Z" fill="black"/>
<path d="M128 138.799C128.2 138.399 128.5 137.999 128.6 137.599C128.6 137.399 129 137.399 128.6 136.999C128.4 136.799 129 136.999 129.1 136.799C129.2 136.399 129.5 135.999 129.6 135.599C129.6 135.199 129.6 134.699 129.7 134.299C129.7 133.899 130.2 133.599 130 133.099C129.9 132.699 130.4 132.599 130.4 132.199C130.4 131.799 130.4 131.499 130.8 131.199C131 130.999 131.3 130.799 131.3 130.599C131.3 130.399 131 130.199 131.1 130.099C131.1 129.999 131.5 129.899 130.9 129.599C130.9 129.599 130.9 129.599 131.1 129.599C131.5 129.599 131.6 129.299 131.3 129.099C131.1 128.899 131.1 128.799 131.1 128.699C131.1 128.399 131.2 127.999 131.3 127.699C131.3 127.499 131.7 127.299 131.8 126.999C131.9 126.699 131.8 126.399 132 126.199C132.3 125.999 132.4 125.799 132.4 125.499C132.4 125.399 132.7 125.199 132.1 124.999C133 124.699 132 124.199 132.2 123.799C132.5 123.399 132.4 122.999 132.4 122.599C132.4 122.499 132.6 122.399 132.2 122.199C132 122.199 132 121.999 132.2 121.999C132.9 121.799 132.5 121.399 132.6 121.099C132.7 120.699 132.5 120.399 133 119.999C133.2 119.899 133.3 119.599 132.8 119.399C132.5 119.399 132.8 119.099 132.8 118.999C132.8 118.899 132.5 118.799 132.5 118.699C132.5 118.699 132.7 118.499 132.8 118.399C132.2 117.899 133 117.399 132.8 116.799C132.6 116.299 132.7 115.699 132.8 115.199C132.8 114.899 133 114.599 134.1 114.299C134.6 114.199 135.2 114.099 135.5 114.299C135.7 114.299 136 114.499 136 114.599C136.1 114.799 136.3 114.899 136.4 115.099C136.6 115.499 137.2 115.799 136.9 116.199C136.9 116.299 137.1 116.499 136.6 116.599C137.4 117.099 136.9 117.599 136.9 118.199C136.9 118.599 137.6 119.099 137.3 119.499C137.9 119.799 137.8 120.099 137.6 120.299C136.9 121.199 137.3 122.099 137.1 122.899C136.9 123.799 136.9 124.699 136.7 125.599C136.7 125.699 137 125.899 136.7 126.099C136.4 126.199 136.6 126.499 136.5 126.699C136.5 126.899 136.5 127.099 136.4 127.199C135.6 127.799 135.9 128.499 135.6 129.199C135.4 129.899 135.1 130.499 135.1 131.199C135.1 131.599 135.3 132.099 135.1 132.499C135 132.699 135.3 132.899 134.6 132.899C134.4 132.899 134.8 133.199 134.8 133.299C134.8 133.599 134.6 133.899 134.5 134.099C134.4 134.499 134.2 134.899 134.1 135.299C134.1 135.499 134.1 135.899 134.1 136.099C134.1 136.399 134 136.599 133.8 136.799C133.6 137.099 133.3 137.299 133.1 137.599C132.9 137.899 133.1 138.299 132.6 138.499C131.9 138.799 131.9 139.499 131.5 139.999C131.2 140.499 130.9 140.999 130.7 141.599C130.6 141.899 130 141.999 129.8 142.199C129.8 142.299 128.4 141.799 128 141.399C128 141.399 127.8 141.299 127.8 141.199C127.6 140.699 127.1 140.099 127.3 139.799C127.6 139.399 127.8 138.899 128 138.499V138.799Z" fill="black"/>
<path d="M116.1 159.698H113.4C113.1 159.698 112.7 159.298 112.3 159.698C112.1 159.898 111.8 159.298 111.5 159.198C110.6 159.198 109.8 158.898 108.9 158.698C108.1 158.498 107.1 158.398 106.3 157.998C105.9 157.798 105.5 157.498 105.1 157.298C104.7 156.998 104.3 156.798 103.9 156.598C103.1 156.298 103 155.398 102.4 154.998C101.8 154.498 101.2 153.798 101.1 152.998C101 152.398 101 151.798 100.7 151.298C100.5 150.998 100.1 150.698 100 150.298C100 149.898 100.1 149.498 99.5 149.198C99.5 149.198 99.5 148.998 99.6 148.898C100 148.398 100 147.998 99.7 147.598C99.5 147.198 99.6 146.898 99.6 146.598C99.8 145.698 100.1 144.798 100.6 143.998C101 143.398 101.5 142.998 102 142.598C102.5 142.198 102.8 141.498 103.4 141.298C104 141.198 104.4 140.798 104.9 140.598C105.2 140.398 105.6 140.498 105.5 139.798C105.5 139.798 105.5 139.698 105.7 139.798C106.3 139.898 106.6 139.798 106.9 139.398C107.2 139.098 107.5 138.698 108 138.598C108.9 138.498 109.7 137.998 110.6 137.798C110.8 137.798 111.1 137.798 111.2 137.398C111.2 137.198 111.5 137.098 111.6 137.198C112.4 137.698 113 137.198 113.7 137.198C114.5 137.198 115.2 136.898 116 137.398C116.3 137.598 116.7 137.698 117.2 137.198C117.4 136.898 117.8 137.198 118 137.198C118.2 137.198 118.5 136.898 118.7 136.898C118.9 136.898 119.1 137.198 119.2 137.298C119.2 137.298 119.3 137.298 119.4 137.298C120 136.998 120.6 137.298 121.1 137.498C121.6 137.798 122.1 138.098 122.7 138.198C123.8 138.398 124.9 138.898 125.8 139.598C126.3 139.898 126.8 140.498 126.5 141.598C126.4 142.098 126 142.598 125.7 142.698C125.4 142.798 125.1 142.898 125 142.898C124.7 142.898 124.4 142.798 124.1 142.698C123.5 142.598 122.7 142.798 122.3 142.298C122.2 142.198 121.8 142.298 121.9 141.798C121.9 141.798 121.9 141.698 121.8 141.698C120.8 142.198 120.1 141.498 119.3 141.398C118.6 141.398 117.9 141.798 117.2 141.498C116.8 142.098 116.4 141.998 116 141.798C114.6 141.098 113.3 141.798 112 141.998C110.6 142.198 109.4 142.798 108.2 143.398C108 143.498 108 143.898 107.7 143.798C107.4 143.798 107.2 144.098 107 144.198C106.8 144.398 106.7 144.598 106.4 144.698C105.8 144.698 105.4 145.098 105.2 145.498C104.9 145.898 104.8 146.298 104.6 146.698C104.2 147.498 104.1 148.398 104.5 149.198C104.7 149.698 105.2 150.098 105.4 150.598C105.4 150.798 105.9 150.898 105.5 151.398C105.5 151.598 105.9 151.398 106 151.598C106.3 151.898 106.5 152.198 106.8 152.498C107.2 152.898 107.6 153.298 108.1 153.498C108.4 153.598 108.8 153.498 109.1 153.698C109.5 153.698 109.8 153.898 110.1 154.098C110.5 154.298 110.9 154.698 111.4 154.798C111.9 154.998 112.5 154.798 112.9 155.098C113.8 155.698 114.8 155.498 115.8 155.598C116.3 155.598 116.8 155.598 117.3 155.598C117.8 155.598 118.4 155.598 118.8 155.498C119.2 155.498 119.6 155.798 119.8 155.698C119.8 155.698 120.1 155.998 120.4 156.198C120.8 156.498 121.2 156.698 121.4 156.898C121.4 156.898 121.4 157.098 121.4 157.198C121.2 158.098 120.4 159.198 119.5 159.198C118.8 159.198 118.3 159.198 117.9 159.198C117.4 159.198 116.9 159.198 116.4 159.198L116.1 159.698Z" fill="black"/>
<path d="M93.2006 172.001C91.8006 170.901 90.5006 169.801 89.2006 168.601C88.7006 168.201 88.4006 167.501 87.6006 167.501C87.2006 167.501 87.2006 166.601 86.7006 166.201C85.5006 165.101 84.5006 163.901 83.4006 162.701C82.3006 161.601 81.1006 160.601 80.1006 159.401C79.6006 158.801 79.1006 158.201 78.7006 157.601C78.5006 157.301 78.2006 157.001 78.0006 156.701C77.9006 156.601 77.7006 156.401 77.6006 156.301H77.5006L77.3006 156.001L76.9006 155.601C75.9006 154.701 75.5006 153.501 75.8006 152.401C76.0006 151.501 76.6006 150.801 77.2006 150.001L77.7006 149.401L78.0006 149.001C78.2006 148.801 78.4006 148.501 78.7006 148.301C79.2006 147.801 79.6006 147.401 80.2006 147.001C81.0006 146.501 81.8006 146.001 82.4006 145.301C82.8006 144.901 82.9006 144.301 83.4006 143.801C83.8006 143.401 84.5006 143.201 84.4006 142.401C84.4006 142.401 84.7006 142.201 84.8006 142.201C85.5006 142.101 86.1006 141.501 86.2006 141.001C86.4006 140.501 86.7006 140.201 87.1006 139.801C88.0006 138.901 88.9006 138.001 89.9006 137.101C90.6006 136.501 91.5006 136.001 92.2006 135.401C93.0006 134.701 93.5006 133.801 94.4006 133.401C95.3006 133.001 95.9006 132.301 96.5006 131.701C96.9006 131.301 97.5006 131.101 97.3006 130.401C97.3006 130.401 97.4006 130.201 97.5006 130.201C99.1006 129.701 99.3006 127.901 100.401 127.001C101.601 126.001 102.501 124.701 103.601 123.501C103.901 123.201 104.301 123.001 104.201 122.401C104.201 122.201 104.501 121.801 104.701 121.801C106.001 121.401 106.501 120.201 107.401 119.401C108.401 118.501 109.201 117.301 110.601 116.701C111.201 116.401 111.801 116.001 112.001 115.101C112.001 114.701 112.801 114.401 113.201 114.101C113.501 113.801 113.701 113.301 114.001 113.101C114.301 112.901 114.701 112.801 115.101 112.701C115.201 112.701 115.301 112.601 115.401 112.501C116.101 111.601 117.101 111.101 118.101 110.701C119.201 110.301 120.201 110.001 121.301 109.601C123.501 108.801 125.901 108.601 128.301 109.101C129.601 109.401 130.901 110.101 131.101 111.501C131.101 112.101 130.901 112.601 130.301 112.701C129.901 112.701 129.501 112.801 129.101 112.701C128.501 112.601 128.001 112.601 127.401 112.601C126.201 112.601 125.201 113.101 124.001 113.001C123.601 113.001 123.301 113.301 122.901 113.001C122.901 113.001 122.701 113.001 122.601 113.001C121.301 114.201 119.701 114.401 118.301 115.301C117.101 116.101 116.401 117.401 115.101 118.201C114.901 119.201 114.101 119.701 113.401 120.201C110.801 121.701 109.101 124.201 107.001 126.401C104.901 128.601 102.901 131.001 100.701 133.301C100.301 133.701 100.301 134.301 99.6006 134.501C99.0006 134.701 98.6006 135.401 98.1006 135.901C97.7006 136.301 97.3006 136.901 96.8006 137.201C94.6006 138.401 93.1006 140.401 91.3006 142.001C89.5006 143.601 87.7006 145.201 86.1006 147.001C85.1006 148.101 84.3006 149.301 83.2006 150.301C82.7006 150.701 82.5006 151.401 81.6006 151.401C81.4006 151.401 81.3006 152.101 81.0006 152.401L80.5006 152.901C80.5006 152.901 80.4006 153.001 80.4006 153.101C80.4006 153.101 80.4006 153.201 80.4006 153.301L80.6006 153.501C81.0006 154.001 81.5006 154.601 82.0006 155.101C82.6006 155.701 83.3006 156.201 83.9006 156.801C84.5006 157.401 85.1006 158.101 85.6006 158.801C86.3006 159.701 86.9006 160.601 87.6006 161.501C88.3006 162.401 89.4006 163.101 89.9006 164.001C91.0006 165.801 92.7006 167.001 94.2006 168.301C95.7006 169.601 97.3006 170.801 99.1006 171.801C100.101 172.301 100.701 173.301 101.701 173.801C102.101 174.001 102.201 175.701 101.701 176.001C101.701 176.001 101.501 176.101 101.401 176.101C100.801 176.101 100.201 176.101 99.5006 176.101C98.9006 176.101 98.3006 175.901 97.7006 175.501C96.0006 174.401 94.4006 173.401 92.8006 172.101L93.2006 172.001Z" fill="black"/>
<path d="M99.4002 174.298C99.4002 174.098 99.6002 173.898 99.6002 173.698C99.6002 173.698 99.9002 173.698 99.4002 173.398C99.2002 173.298 99.8002 173.398 99.8002 173.398C99.8002 173.198 99.9002 172.998 99.9002 172.798C99.9002 172.598 99.7002 172.298 99.7002 172.098C99.7002 171.898 100 171.798 99.7002 171.498C99.5002 171.298 100 171.298 99.9002 171.098C99.9002 170.898 99.8002 170.698 100.1 170.598C100.3 170.598 100.5 170.498 100.5 170.298C100.5 170.298 100.2 170.098 100.2 169.998C100.2 169.998 100.5 169.998 99.9002 169.698C99.9002 169.698 99.9002 169.698 100.1 169.698C100.5 169.698 100.5 169.698 100.3 169.498C100.1 169.398 100.1 169.298 100.1 169.298C100.1 169.098 100.1 168.998 100.2 168.798C100.2 168.698 100.5 168.598 100.6 168.498C100.6 168.398 100.5 168.198 100.8 168.098C101.1 168.098 101.1 167.898 101.2 167.798C101.2 167.798 101.5 167.798 100.9 167.498C101.8 167.498 100.8 167.098 101 166.898C101.3 166.798 101.2 166.498 101.2 166.298C101.2 166.298 101.4 166.298 101 166.098C100.8 166.098 100.8 165.998 101 165.998C101.6 165.998 101.3 165.798 101.5 165.598C101.7 165.498 101.5 165.198 101.9 165.198C102.1 165.198 102.3 165.198 101.7 164.898C101.4 164.798 101.7 164.798 101.7 164.698L101.4 164.498C101.4 164.498 101.6 164.498 101.8 164.498C101.2 164.098 102.2 164.098 102.1 163.798C102 163.498 102.1 163.298 102.3 162.998C102.3 162.898 102.6 162.798 103.7 162.998C104.2 162.998 104.8 163.198 105.1 163.398C105.3 163.498 105.5 163.598 105.6 163.698C105.6 163.798 105.8 163.898 105.9 163.998C106 164.198 106.5 164.498 106.2 164.598C106.1 164.598 106.4 164.798 105.9 164.598C106.6 164.998 106 165.098 106 165.398C106 165.598 106.6 165.998 106.2 166.098C106.8 166.398 106.6 166.498 106.4 166.498C105.6 166.698 106 167.198 105.8 167.598C105.6 167.998 105.6 168.398 105.4 168.798C105.4 168.798 105.7 168.998 105.4 168.998C105.1 168.998 105.3 169.198 105.3 169.198V169.398C104.6 169.498 104.9 169.998 104.7 170.198C104.5 170.498 104.4 170.798 104.5 171.098C104.5 171.298 104.8 171.598 104.6 171.798C104.6 171.798 104.8 171.998 104.2 171.998C104 171.998 104.4 172.198 104.5 172.198C104.5 172.298 104.5 172.498 104.5 172.598C104.5 172.798 104.4 172.998 104.4 173.098C104.4 173.198 104.6 173.398 104.6 173.498C104.6 173.598 104.6 173.698 104.6 173.798C104.5 173.898 104.2 173.998 104.1 174.098C104 174.198 104.2 174.498 103.9 174.498C103.3 174.598 103.5 174.998 103.4 175.198C103.3 175.498 103.2 175.698 103.2 175.998C103.2 176.198 102.7 176.198 102.7 176.298C102.7 176.298 101.2 175.998 100.8 175.898H100.6C100.2 175.598 99.5002 175.298 99.6002 175.098C99.7002 174.898 99.8002 174.598 99.8002 174.398L99.4002 174.298Z" fill="black"/>
<path d="M118.5 187.498C118.3 187.498 118 187.398 117.8 187.398C117.8 187.398 117.7 187.098 117.5 187.598C117.5 187.898 117.5 187.198 117.3 187.198C117.1 187.198 116.8 187.098 116.6 187.098C116.4 187.098 116.1 187.298 115.9 187.298C115.7 187.298 115.5 186.998 115.2 187.298C114.9 187.498 114.9 186.998 114.7 187.098C114.5 187.098 114.3 187.098 114.2 186.898C114.2 186.698 114.1 186.398 113.9 186.498C113.8 186.498 113.6 186.798 113.5 186.798C113.5 186.798 113.5 186.498 113.1 186.998C113.1 186.998 113.1 186.998 113.1 186.798C113.1 186.398 113.1 186.398 112.9 186.598C112.7 186.798 112.7 186.798 112.6 186.798C112.4 186.798 112.2 186.798 112.1 186.598C112 186.598 111.9 186.198 111.8 186.098C111.7 185.998 111.4 186.098 111.4 185.898C111.4 185.598 111.3 185.498 111.1 185.498C111.1 185.498 111.1 185.198 110.7 185.698C110.9 184.898 110.2 185.698 110.1 185.498C110 185.198 109.7 185.198 109.5 185.098C109.5 185.098 109.5 184.898 109.2 185.298C109.2 185.398 109 185.398 109.1 185.298C109.2 184.698 108.9 184.898 108.8 184.698C108.7 184.498 108.4 184.698 108.4 184.098C108.4 183.898 108.4 183.698 108 184.098C107.8 184.298 107.9 184.098 107.8 184.098L107.5 184.298C107.5 184.298 107.5 183.998 107.5 183.898C106.9 184.298 107.1 183.398 106.8 183.398C106.4 183.398 106.2 183.098 106.1 182.898C106 182.798 106 182.498 106.6 181.498C106.9 181.098 107.2 180.598 107.5 180.398C107.7 180.198 107.9 180.098 107.9 180.098C108 180.098 108.2 180.098 108.3 179.998C108.6 179.998 109 179.598 109 179.998C109 180.098 109.2 179.898 109 180.298C109.6 179.798 109.5 180.298 109.8 180.398C110 180.398 110.5 179.998 110.5 180.398C110.9 179.898 111 180.098 111 180.298C111 181.098 111.6 180.898 111.8 181.098C112.1 181.398 112.5 181.498 112.8 181.698C112.8 181.698 113.1 181.398 113 181.698C113 181.998 113.1 181.798 113.2 181.898C113.2 181.898 113.4 181.898 113.4 181.998C113.4 182.698 113.9 182.498 114.1 182.698C114.4 182.898 114.6 183.098 115 182.998C115.2 182.998 115.5 182.698 115.6 182.898C115.6 182.898 115.8 182.698 115.7 183.298C115.7 183.498 115.9 183.098 115.9 183.098C116 183.098 116.1 183.098 116.3 183.098C116.5 183.098 116.6 183.198 116.8 183.198C116.9 183.198 117.1 182.998 117.2 182.898C117.3 182.898 117.4 182.898 117.5 182.898C117.6 182.998 117.7 183.198 117.8 183.298C117.9 183.298 118.1 183.198 118.2 183.498C118.4 184.098 118.7 183.798 118.9 183.898C119.2 183.998 119.4 184.098 119.7 183.898C119.7 183.898 119.8 183.898 119.9 184.098L119.7 185.698C119.8 185.398 119.9 185.298 120 185.198C120 185.198 120.2 185.198 120.3 185.198C120.8 185.498 121 185.998 120.9 186.498C120.9 186.798 120.9 186.998 120.5 187.298C120.2 187.598 119.7 187.798 119.1 187.798H119.2C119.2 187.798 119.2 187.798 119.1 187.798C118.8 187.698 118.5 187.798 118.3 187.698L118.5 187.498Z" fill="black"/>
</svg>
