<svg width="300" height="300" viewBox="0 0 300 300" fill="none" xmlns="http://www.w3.org/2000/svg">
<path d="M184.498 141.701C184.198 141.401 183.898 141.101 183.498 140.901C183.398 140.901 183.498 140.501 182.898 140.801C182.698 140.901 182.898 140.401 182.898 140.301C182.598 140.101 182.298 139.701 181.998 139.501C181.698 139.301 181.198 139.201 180.898 139.001C180.598 138.801 180.498 138.301 179.998 138.301C179.598 138.301 179.698 137.701 179.398 137.601C179.098 137.501 178.798 137.301 178.698 136.901C178.698 136.601 178.698 136.301 178.398 136.201C178.198 136.201 177.898 136.301 177.798 136.201C177.798 136.101 177.798 135.801 177.198 136.201C177.198 136.201 177.198 136.201 177.198 136.001C177.398 135.601 177.198 135.501 176.898 135.601C176.598 135.701 176.598 135.601 176.498 135.601C176.198 135.401 175.998 135.201 175.798 134.901C175.598 134.701 175.598 134.401 175.498 134.201C175.398 134.001 174.998 134.001 174.998 133.601C174.998 133.201 174.798 133.101 174.698 132.901C174.698 132.901 174.698 132.501 174.198 132.901C174.498 132.001 173.498 132.601 173.298 132.201C173.098 131.801 172.698 131.601 172.398 131.401C172.398 131.401 172.398 131.101 171.998 131.401C171.898 131.401 171.798 131.401 171.798 131.401C171.998 130.701 171.498 130.801 171.398 130.501C171.198 130.201 170.798 130.201 170.798 129.601C170.798 129.301 170.798 129.101 170.198 129.401C169.998 129.501 169.998 129.201 169.898 129.201C169.798 129.201 169.498 129.301 169.398 129.201C169.398 129.201 169.398 128.901 169.398 128.801C168.598 129.001 168.798 128.001 168.298 127.801C167.798 127.601 167.498 127.201 167.098 126.801C166.898 126.601 166.798 126.201 167.498 125.301C167.798 124.901 168.198 124.401 168.498 124.301C168.698 124.201 168.998 124.101 169.098 124.101C169.298 124.101 169.498 124.101 169.698 124.101C170.098 124.101 170.698 124.001 170.698 124.401C170.698 124.501 170.998 124.401 170.698 124.801V124.901C171.598 124.601 171.598 125.301 171.898 125.601C172.198 125.801 172.898 125.601 172.998 126.101C173.598 125.801 173.698 126.101 173.698 126.301C173.798 127.301 174.698 127.501 175.198 128.101C175.698 128.701 176.398 129.201 176.898 129.701C176.898 129.701 177.298 129.701 177.298 129.901C177.298 130.201 177.498 130.201 177.598 130.301C177.698 130.401 177.898 130.401 177.898 130.601C177.898 131.501 178.598 131.601 179.098 132.101C179.498 132.601 179.898 133.001 180.498 133.301C180.798 133.501 181.398 133.501 181.498 133.801C181.498 133.901 181.898 133.801 181.698 134.401C181.698 134.601 181.998 134.401 182.098 134.401C182.298 134.501 182.498 134.701 182.698 134.901C182.998 135.101 183.198 135.401 183.498 135.601C183.698 135.701 183.998 135.601 184.198 135.801C184.398 135.901 184.598 136.101 184.698 136.301C184.898 136.501 184.898 136.901 185.098 137.101C185.299 137.301 185.698 137.401 185.698 137.701C185.698 138.401 186.298 138.601 186.698 139.001C187.098 139.401 187.398 139.801 187.898 140.001C188.198 140.101 187.998 140.701 188.298 140.901C188.398 140.901 187.598 142.201 187.198 142.501L186.998 142.601C186.498 142.801 185.799 143.101 185.598 142.901C185.299 142.501 184.898 142.201 184.498 141.901V141.701Z" fill="black"/>
<path d="M166.099 147.302C166.499 147.102 166.799 147.002 167.199 146.702C167.299 146.702 167.599 146.702 167.499 146.202C167.499 145.902 167.899 146.402 167.999 146.402C168.299 146.202 168.699 146.102 168.999 145.902C169.299 145.702 169.499 145.302 169.799 145.102C170.099 144.902 170.599 145.102 170.799 144.602C170.999 144.202 171.399 144.602 171.599 144.302C171.799 144.102 172.099 143.902 172.499 144.002C172.799 144.002 173.099 144.202 173.199 144.002C173.199 143.902 173.199 143.502 173.399 143.502C173.499 143.502 173.799 143.702 173.699 143.002C173.699 143.002 173.699 143.002 173.899 143.002C174.199 143.302 174.399 143.202 174.399 143.002C174.399 142.702 174.499 142.702 174.599 142.602C174.899 142.502 175.199 142.302 175.499 142.302C175.699 142.302 175.999 142.302 176.299 142.302C176.499 142.302 176.699 141.902 176.999 142.102C177.299 142.302 177.499 142.202 177.699 142.102C177.799 142.102 178.099 142.302 177.899 141.602C178.499 142.302 178.499 141.102 178.899 141.202C179.299 141.202 179.599 141.002 179.999 140.902C179.999 140.902 180.299 141.002 180.199 140.502C180.199 140.302 180.199 140.302 180.399 140.402C180.899 140.902 180.999 140.402 181.299 140.402C181.599 140.402 181.899 140.002 182.299 140.402C182.499 140.602 182.699 140.602 182.699 140.002C182.699 139.702 182.899 140.002 182.999 139.802C182.999 139.802 182.999 139.402 183.199 139.402C183.199 139.402 183.399 139.602 183.499 139.702C183.799 138.902 184.499 139.702 184.899 139.302C185.299 139.002 185.799 138.902 186.299 138.902C186.599 138.902 186.899 138.902 187.399 140.002C187.599 140.502 187.799 141.002 187.699 141.402C187.699 141.702 187.699 141.902 187.599 142.002C187.499 142.102 187.399 142.302 187.299 142.402C187.099 142.702 186.899 143.302 186.599 143.102C186.499 143.102 186.499 143.402 186.199 142.902C185.999 143.802 185.499 143.402 185.099 143.602C184.799 143.802 184.599 144.502 184.199 144.302C184.199 145.002 183.999 144.902 183.699 144.802C182.799 144.402 182.299 145.002 181.599 145.202C180.899 145.302 180.299 145.702 179.599 145.902C179.499 145.902 179.599 146.302 179.299 146.102C179.099 145.902 178.999 146.102 178.799 146.202C178.699 146.202 178.599 146.402 178.399 146.302C177.599 145.902 177.299 146.502 176.699 146.602C176.199 146.702 175.599 146.902 175.199 147.302C174.899 147.502 174.799 148.002 174.399 148.002C174.199 148.002 174.199 148.402 173.899 147.902C173.799 147.802 173.899 148.202 173.799 148.302C173.599 148.402 173.399 148.502 173.199 148.602C172.899 148.702 172.599 148.802 172.299 149.002C172.099 149.102 172.099 149.402 171.899 149.602C171.699 149.702 171.599 149.802 171.299 149.902C170.999 149.902 170.699 149.902 170.399 149.902C170.099 149.902 169.999 150.302 169.599 150.202C168.899 150.002 168.599 150.402 168.199 150.602C167.699 150.802 167.299 150.902 166.899 151.302C166.699 151.502 166.199 151.202 165.999 151.302C165.899 151.302 165.099 150.102 164.899 149.702V149.502C164.899 149.002 164.799 148.202 165.099 148.102C165.499 148.002 165.899 147.702 166.299 147.502L166.099 147.302Z" fill="black"/>
<path d="M146.699 141.101C146.699 140.901 146.699 140.701 146.699 140.601C146.699 140.601 146.899 140.501 146.399 140.401C146.099 140.401 146.799 140.301 146.699 140.201C146.699 140.001 146.699 139.901 146.699 139.701C146.699 139.501 146.399 139.401 146.399 139.201C146.399 139.001 146.699 138.901 146.399 138.701C146.099 138.501 146.599 138.501 146.499 138.301C146.399 138.201 146.299 138.001 146.499 137.901C146.699 137.901 146.899 137.701 146.799 137.601C146.799 137.601 146.399 137.401 146.499 137.401C146.499 137.401 146.799 137.401 146.199 137.201C146.199 137.201 146.199 137.201 146.399 137.201C146.799 137.201 146.799 137.201 146.499 137.001C146.199 137.001 146.299 136.901 146.299 136.801C146.299 136.701 146.299 136.501 146.299 136.401C146.299 136.401 146.599 136.201 146.699 136.201C146.699 136.201 146.499 135.901 146.799 135.901C147.099 135.901 147.099 135.801 147.099 135.701C147.099 135.701 147.399 135.701 146.799 135.501C147.599 135.501 146.599 135.101 146.799 135.001C146.999 134.901 146.899 134.701 146.999 134.501C146.999 134.501 147.199 134.501 146.799 134.301C146.599 134.201 146.599 134.301 146.799 134.301C147.399 134.301 147.099 134.101 147.199 134.001C147.399 133.901 147.199 133.701 147.599 133.701C147.799 133.701 147.899 133.701 147.399 133.401C147.199 133.301 147.399 133.401 147.399 133.201L147.099 133.001C147.099 133.001 147.299 133.001 147.499 133.001C146.899 132.601 147.899 132.701 147.799 132.401C147.799 132.101 147.799 132.001 147.999 131.801C147.999 131.801 148.299 131.701 149.399 132.001C149.899 132.201 150.399 132.401 150.699 132.601C150.899 132.701 151.099 132.801 151.099 132.901C151.099 132.901 151.299 133.101 151.299 133.201C151.399 133.401 151.899 133.701 151.599 133.701C151.599 133.701 151.799 133.901 151.299 133.701C151.999 134.101 151.399 134.101 151.399 134.301C151.399 134.401 151.999 134.801 151.699 134.801C152.299 135.101 152.099 135.101 151.899 135.101C151.199 135.101 151.499 135.501 151.399 135.801C151.199 136.001 151.299 136.301 151.199 136.601C151.199 136.601 151.499 136.801 151.199 136.801C150.899 136.801 151.199 136.901 151.199 137.001C151.199 137.001 151.299 137.101 151.199 137.201C150.499 137.201 150.899 137.601 150.799 137.801C150.799 138.001 150.599 138.201 150.799 138.401C150.799 138.501 151.199 138.701 151.099 138.801C151.099 138.801 151.399 138.901 150.799 138.901C150.599 138.901 151.099 138.901 151.099 139.001C151.099 139.001 151.099 139.201 151.099 139.301C151.099 139.401 151.099 139.501 151.099 139.701L151.399 139.901V140.101C151.399 140.101 151.099 140.301 150.999 140.401C150.999 140.501 151.199 140.601 150.999 140.701C150.499 140.901 150.699 141.101 150.699 141.301C150.699 141.501 150.699 141.701 150.699 141.801C150.699 141.801 150.299 142.001 150.299 142.101C150.299 142.101 148.799 142.301 148.299 142.401H148.099C147.599 142.401 146.899 142.301 146.899 142.101C146.899 141.901 146.899 141.701 146.899 141.501L146.699 141.101Z" fill="black"/>
<path d="M157.1 141.902C157.1 141.702 157.1 141.502 157.1 141.402C157.1 141.402 157.3 141.302 156.8 141.202C156.5 141.202 157.2 141.102 157.1 141.002C157.1 140.802 157.1 140.702 157.1 140.502C157.1 140.302 156.8 140.202 156.8 140.002C156.8 139.802 157.1 139.702 156.8 139.502C156.5 139.302 157 139.302 156.9 139.102C156.8 139.002 156.7 138.802 156.9 138.702C157.1 138.702 157.3 138.502 157.2 138.402C157.2 138.402 156.8 138.202 156.9 138.202C156.9 138.202 157.2 138.202 156.6 138.002C156.6 138.002 156.6 138.002 156.8 138.002C157.2 138.002 157.2 138.002 156.9 137.802C156.6 137.802 156.7 137.702 156.7 137.602C156.7 137.502 156.7 137.302 156.7 137.202C156.7 137.202 157 137.002 157.1 137.002C157.1 137.002 156.9 136.702 157.2 136.702C157.5 136.702 157.5 136.602 157.5 136.502C157.5 136.502 157.8 136.502 157.2 136.302C158 136.302 157 135.902 157.2 135.802C157.4 135.702 157.3 135.502 157.4 135.302C157.4 135.302 157.6 135.302 157.2 135.102C157 135.002 157 135.102 157.2 135.102C157.8 135.102 157.5 134.902 157.6 134.802C157.8 134.702 157.6 134.502 158 134.502C158.2 134.502 158.3 134.502 157.8 134.202C157.6 134.102 157.8 134.202 157.8 134.002L157.5 133.802C157.5 133.802 157.7 133.802 157.9 133.802C157.3 133.402 158.3 133.502 158.2 133.202C158.2 132.902 158.2 132.802 158.4 132.602C158.4 132.602 158.7 132.502 159.8 132.802C160.3 133.002 160.8 133.202 161.1 133.402C161.3 133.502 161.5 133.602 161.5 133.702C161.5 133.702 161.7 133.902 161.7 134.002C161.8 134.202 162.3 134.502 162 134.502C162 134.502 162.2 134.702 161.7 134.502C162.4 134.902 161.8 134.902 161.8 135.102C161.8 135.202 162.4 135.602 162.1 135.602C162.7 135.902 162.5 135.902 162.3 135.902C161.6 135.902 161.9 136.302 161.8 136.602C161.6 136.802 161.7 137.102 161.6 137.402C161.6 137.402 161.9 137.602 161.6 137.602C161.3 137.602 161.6 137.702 161.6 137.802C161.6 137.802 161.7 137.902 161.6 138.002C160.9 138.002 161.3 138.402 161.2 138.602C161.2 138.802 161 139.002 161.2 139.202C161.2 139.302 161.6 139.502 161.5 139.602C161.5 139.602 161.8 139.702 161.2 139.702C161 139.702 161.5 139.702 161.5 139.802C161.5 139.802 161.5 140.002 161.5 140.102C161.5 140.202 161.5 140.302 161.5 140.502L161.8 140.702V140.902C161.8 140.902 161.5 141.102 161.4 141.202C161.4 141.302 161.6 141.402 161.4 141.502C160.9 141.702 161.1 141.902 161.1 142.102C161.1 142.302 161.1 142.502 161.1 142.602C161.1 142.602 160.7 142.802 160.7 142.902C160.7 142.902 159.2 143.102 158.7 143.202H158.5C158 143.202 157.3 143.102 157.3 142.902C157.3 142.702 157.3 142.502 157.3 142.302L157.1 141.902Z" fill="black"/>
<path d="M171.499 152.002C172.399 153.002 173.199 154.002 173.999 154.902C174.299 155.302 174.399 155.802 175.199 155.802C175.599 155.802 175.399 156.602 175.699 156.902C176.499 157.802 177.199 158.802 177.999 159.702C178.399 160.202 178.799 160.502 179.199 161.002C179.799 161.702 180.399 162.402 181.099 163.302C182.099 164.502 182.799 165.702 183.699 167.002C183.199 167.202 182.699 167.302 182.299 167.502C181.599 167.802 180.699 168.002 179.899 168.202C178.999 168.302 178.199 168.502 177.499 168.702C177.299 168.702 177.099 168.802 176.899 168.902H176.399C176.199 169.102 175.899 169.202 175.599 169.202C175.099 169.302 174.599 169.302 174.099 169.202C173.399 169.202 172.599 169.002 171.899 169.202C171.499 169.302 171.099 169.702 170.599 169.702C170.099 169.702 169.599 169.502 169.199 170.102C169.199 170.102 168.999 170.102 168.899 170.002C168.399 169.602 167.799 169.702 167.399 170.002C166.999 170.302 166.599 170.202 166.299 170.202C165.299 170.202 164.199 170.202 163.199 170.002C162.399 169.902 161.699 169.602 160.899 169.402C160.099 169.302 159.199 169.402 158.499 169.002C157.799 168.602 157.099 168.402 156.399 168.302C155.999 168.302 155.599 167.802 155.099 168.302C155.099 168.302 154.899 168.302 154.799 168.302C153.899 167.202 152.499 167.902 151.399 167.302C150.299 166.702 148.999 166.402 147.899 165.902C147.599 165.802 147.299 165.402 146.899 165.702C146.699 165.702 146.399 165.702 146.299 165.402C145.799 164.402 144.699 164.202 143.899 163.602C142.999 162.902 141.999 162.402 141.399 161.302C141.199 160.802 140.799 160.302 139.999 160.302C139.599 160.302 139.399 159.702 139.099 159.402C138.799 159.202 138.399 159.102 138.199 158.802C137.999 158.602 137.999 158.202 137.899 157.902C137.899 157.902 137.899 157.702 137.699 157.702C136.999 157.202 136.499 156.402 136.299 155.602L135.899 154.402C135.799 154.002 135.699 153.602 135.499 153.202C134.699 151.702 134.399 149.902 134.299 148.202C134.299 147.302 134.399 146.302 135.499 145.702C135.999 145.402 136.599 145.402 136.899 145.702C137.199 146.002 137.399 146.202 137.499 146.502C137.599 147.002 137.699 147.402 137.899 147.802C138.099 148.202 138.299 148.702 138.499 149.102C138.699 149.502 138.899 149.902 138.899 150.402C138.899 150.702 139.199 150.902 138.899 151.302V151.502C139.499 151.902 139.699 152.502 139.999 153.002C140.099 153.302 140.199 153.602 140.299 153.902C140.399 154.202 140.599 154.502 140.799 154.702C141.099 155.102 141.499 155.502 141.899 155.802C142.299 156.102 142.699 156.402 142.999 156.902C143.799 156.902 144.199 157.402 144.499 157.902C145.599 159.802 147.699 160.602 149.599 161.602C151.499 162.602 153.599 163.302 155.799 163.902C156.199 163.902 156.599 163.702 156.899 164.102C157.199 164.502 157.799 164.402 158.299 164.502C158.699 164.502 159.199 164.502 159.599 164.802C161.199 165.802 163.099 165.602 164.799 165.702C166.499 165.902 168.299 165.902 170.099 165.702C171.199 165.502 172.199 165.102 173.199 165.102C173.699 165.102 174.099 164.702 174.599 165.102C174.799 165.202 175.099 164.702 175.399 164.602H175.799C175.799 164.502 175.999 164.502 175.999 164.502C176.099 164.502 176.299 164.502 176.399 164.502C176.399 164.502 176.399 164.402 176.199 164.302C176.099 164.202 175.699 164.102 175.599 164.102C175.599 164.102 175.499 164.102 175.399 163.902L175.199 163.702L174.899 163.302C174.399 162.602 174.099 161.802 173.599 161.102C173.099 160.402 172.299 159.802 171.999 159.002C171.399 157.502 170.199 156.402 169.199 155.202C168.199 154.002 167.199 152.802 166.099 151.702C165.499 151.102 165.299 150.202 164.699 149.502C164.399 149.202 165.099 147.802 165.599 147.602C165.599 147.602 165.799 147.602 165.899 147.602C166.799 147.902 167.899 148.002 168.499 148.702C169.399 149.802 170.499 150.902 171.399 152.002H171.499Z" fill="black"/>
<path d="M160 187.002L160.5 186.002C160.5 185.802 160.6 185.702 160.7 185.502C160.7 185.502 161.1 185.002 160.4 185.502C160 185.702 161 185.002 161 184.902V184.802H160.8C160.6 184.902 160.5 185.002 160.3 185.002C160.1 185.002 160 185.202 159.8 185.302H159.6C159.3 185.302 159 185.402 158.7 185.402C157.5 185.502 156.4 185.202 155.3 185.402C154.3 185.602 153.6 184.902 152.7 184.802C151.7 184.702 150.8 184.502 150 183.902C149.4 183.502 148.9 183.002 148.3 182.902C147.9 182.802 147.4 182.902 147 182.702C146.6 182.502 146.4 182.002 145.7 182.402C145.7 182.402 145.5 182.202 145.5 182.102C145.3 181.502 144.9 181.202 144.4 181.302C143.9 181.302 143.7 181.102 143.4 180.902C142.6 180.402 141.9 179.802 141.2 179.202C140.7 178.702 140.3 178.102 139.9 177.502C139.4 177.002 138.7 176.602 138.5 175.902C138.3 175.202 137.8 174.802 137.4 174.302C137.2 174.002 137.1 173.502 136.4 173.702C136.4 173.702 136.3 173.702 136.3 173.502C136.3 172.202 134.8 172.002 134.3 170.902C133.9 169.802 133.1 168.802 132.7 167.702C132.6 167.402 132.7 167.002 132.1 166.902C131.9 166.902 131.8 166.502 131.9 166.302C132.1 165.802 132 165.302 131.9 164.902C131.8 164.502 131.6 164.002 131.6 163.602C131.6 163.102 131.5 162.602 131.5 162.102C131.5 161.602 131.5 161.102 131.7 160.602C131.9 160.202 132 159.602 131.5 159.102C131.2 158.902 131.5 158.402 131.5 158.002C131.5 157.702 131.2 157.402 131.3 157.102C131.3 156.802 131.6 156.602 131.7 156.402V156.202C131.3 154.702 132.4 153.502 132.6 152.102C132.8 150.702 133.2 149.402 133.8 148.102C134.1 147.402 134.5 146.702 135.7 146.602C136.3 146.602 136.8 146.702 137 147.102C137.2 147.402 137.3 147.702 137.3 148.002C137.3 148.402 137.3 148.902 137.3 149.302C137.3 150.202 137.5 151.102 137 151.902C136.8 152.102 137 152.502 136.5 152.602C136.5 152.602 136.4 152.702 136.4 152.802C136.9 154.102 136.1 155.102 136 156.302C135.9 157.302 136.4 158.302 136 159.202C136.6 159.802 136.5 160.302 136.3 160.802C135.6 162.602 136.3 164.402 136.9 166.002C137.4 167.702 138.5 169.202 139.7 170.702C139.9 171.002 140.4 171.002 140.4 171.402C140.4 171.902 140.9 172.102 141.2 172.402C141.5 172.702 141.8 172.902 142 173.302C142.6 174.902 144 175.702 145.2 176.702C146.3 177.702 147.6 178.602 149 179.202C149.9 179.502 150.8 179.602 151.6 180.002C151.9 180.202 152.4 180.002 152.6 180.702C152.6 180.902 153.1 180.602 153.4 180.702C154 180.802 154.6 181.002 155.2 181.102C156 181.202 156.9 181.402 157.7 181.302C158.2 181.302 158.7 181.002 159.2 180.902C159.3 180.902 159.5 180.902 159.6 180.902H159.7H159.8L160.2 180.802L161.1 180.602C161.4 180.602 161.7 180.602 162 180.402C162.8 180.202 163.6 180.002 164.4 179.702C165.2 179.502 165.9 179.302 166.7 179.002C167 178.902 167.4 178.802 167.7 178.602V179.102V179.402V179.802C167.4 180.302 167.3 180.902 167 181.502C166.3 182.902 165.9 183.902 165.6 185.002C165.2 186.002 164.8 187.202 164.3 188.202C163.6 189.502 162.9 190.802 162.2 192.102C161.8 192.802 161 193.202 160.5 193.802C160.3 194.102 158.8 193.602 158.5 193.202C158.5 193.202 158.4 193.002 158.4 192.902C158.4 192.002 158.2 191.102 158.7 190.402C159.4 189.402 160 188.302 160.5 187.302L160 187.002Z" fill="black"/>
<path d="M99.3009 123.9C96.7009 125.4 94.2009 127.2 92.1009 129.4C91.3009 130.2 90.3009 130.9 89.9009 132.1C89.7009 132.7 88.5009 133.1 87.9009 134C86.2009 136.3 84.6009 138.7 83.2009 141.2C81.9009 143.7 80.8009 146.3 79.7009 148.9C78.6009 151.5 77.1009 154.1 76.4009 156.7C75.8009 159 74.7009 160.7 74.2009 162.9C73.7009 165.2 73.4009 167.4 73.1009 169.6C72.9009 171.2 72.7009 172.8 73.1009 174.3C73.3009 175.3 73.9009 176 74.2009 177C74.5009 177.9 74.7009 179 75.7009 179.4C75.7009 179.4 75.9009 179.8 75.9009 180.1C76.1009 181.2 76.9009 182.1 77.7009 182.3C78.4009 182.5 78.9009 182.8 79.5009 183.1C81.2009 183.8 83.7009 184.2 86.0009 184.8C87.7009 185.2 89.4009 185.7 91.2009 185.9C93.0009 186.2 95.0009 186.1 96.7009 186.5C98.4009 186.9 100.101 186.9 101.701 186.9C102.701 186.9 103.801 187.1 104.601 186.5C104.601 186.5 105.001 186.5 105.201 186.5C108.001 187.2 110.601 185.9 113.201 185.5C114.501 185.3 115.901 185 117.101 184.4C118.301 183.9 119.401 183.2 120.201 182.5C120.601 182.1 121.001 181.8 120.801 181.1C120.801 180.9 120.901 180.3 121.101 180C121.701 179.2 122.001 178.1 122.201 177.1C122.401 176 122.601 174.9 122.801 173.9C123.301 171.5 123.301 168.9 124.101 166.4C124.401 165.3 124.601 163.9 124.101 162.5C123.901 161.9 124.201 160.7 124.101 159.7C124.101 158.9 123.801 158.2 123.901 157.4C123.901 156.8 124.201 156.1 124.301 155.5C124.301 155.3 124.301 155.1 124.301 154.9C123.701 151.2 124.701 147.4 124.601 143.7C124.501 139.9 124.601 136.1 124.401 132.4C124.401 130.3 124.401 128.2 125.401 126.7C125.901 126 126.401 125.9 126.801 126.8C127.101 127.4 127.401 128.2 127.501 128.9C127.701 130.1 127.901 131.3 128.101 132.5C128.401 134.9 129.001 137.4 128.701 139.9C128.701 140.7 128.901 141.6 128.401 142.3C128.401 142.3 128.301 142.7 128.401 142.9C129.201 146.3 128.601 149.8 128.501 153.2C128.501 156.1 129.001 159 128.501 161.9C129.001 163.6 128.801 165.5 128.501 167.1C127.901 170 127.501 172.9 127.001 175.8C126.701 177.3 126.501 178.7 126.101 180.2C125.801 181.6 125.301 183.4 124.001 185C122.701 186.5 121.101 187.4 119.701 188.1C118.201 188.8 116.701 189.3 115.201 189.7C112.101 190.5 109.101 190.7 106.101 190.9C105.101 190.9 104.201 191.4 103.001 191.1C101.901 190.9 100.401 191.1 99.1009 191.1C97.9009 191.1 96.6009 191.1 95.5009 190.9C90.9009 189.9 86.2009 189.7 81.6009 188.5C80.5009 188.2 79.3009 187.9 78.1009 187.4C76.9009 186.9 75.7009 186.2 74.7009 185.3C72.7009 183.5 71.4009 181.2 70.5009 178.9C69.3009 176.1 68.6009 173.1 68.7009 170C68.7009 168.7 68.6009 167.3 69.3009 166.2C69.5009 165.9 69.3009 164.6 69.4009 163.8C69.8009 161.8 70.4009 159.9 71.0009 158C71.9009 155.4 73.0009 152.9 74.0009 150.5C74.6009 149 75.1009 147.4 75.7009 145.9C76.4009 144.3 77.1009 142.7 78.0009 141.2C79.1009 139.3 80.4009 137.5 81.6009 135.6C82.9009 133.7 84.1009 131.6 85.7009 130C88.7009 127.1 91.6009 124.1 95.1009 121.9C98.6009 119.7 102.401 118 106.301 116.8C108.501 116.1 110.701 116.2 113.001 115.9C114.101 115.8 115.501 117.2 115.101 117.7C115.101 117.8 114.901 117.9 114.701 118C112.601 118.6 110.901 119.6 108.701 120.1C105.401 120.8 102.101 122.2 99.2009 123.9H99.3009Z" fill="black"/>
<path d="M147.501 117.399C147.701 117.999 147.801 118.699 148.001 119.299C148.001 119.499 147.901 119.799 148.501 119.999C148.801 119.999 148.201 120.399 148.301 120.699C148.501 121.299 148.601 121.899 148.801 122.499C149.001 123.099 149.401 123.599 149.601 124.199C149.701 124.499 149.701 124.799 149.801 125.099C149.901 125.399 149.801 125.399 149.901 125.499C149.901 125.699 150.101 125.999 150.201 126.299C150.401 126.699 150.501 127.199 150.501 127.599C150.501 127.999 150.401 128.299 150.401 128.699C150.401 129.099 150.401 129.499 150.101 129.899C149.901 130.299 149.501 130.499 149.101 130.599C148.501 130.799 147.801 130.699 147.201 130.999C147.001 130.999 146.901 131.199 146.701 131.299C146.601 131.399 146.301 131.599 146.201 131.599C146.001 131.599 145.701 131.399 145.601 132.099C145.601 132.099 145.501 132.099 145.401 131.999C145.101 131.699 144.801 131.799 144.601 131.999C144.501 132.299 144.301 132.299 144.101 132.399C143.601 132.599 143.101 132.699 142.601 132.799C142.201 132.799 141.801 132.799 141.401 132.799C141.001 132.799 140.701 133.199 140.201 132.999C139.801 132.799 139.401 132.899 139.101 132.999C138.901 132.999 138.601 132.799 138.601 133.499C138.601 133.499 138.601 133.499 138.501 133.499C137.701 132.799 137.401 133.999 136.801 133.999C136.101 133.999 135.801 134.199 134.501 134.499C134.201 134.499 133.901 134.399 133.601 134.799C133.501 134.999 133.101 134.899 133.001 134.799C132.401 133.999 131.601 133.799 131.101 133.099C131.001 132.899 130.801 132.699 130.701 132.599L130.401 132.299C130.201 132.099 130.101 131.899 130.101 131.499C130.101 131.199 130.001 130.899 129.401 130.999C129.101 130.999 129.201 130.699 129.001 130.599C128.901 130.599 128.501 130.599 128.401 130.399C128.401 130.399 128.401 129.999 128.401 129.899C127.401 129.799 127.601 128.699 127.001 128.399C126.401 128.099 126.001 127.799 125.701 127.499C125.501 127.399 125.401 127.099 125.301 125.999C125.301 125.499 125.301 124.899 125.501 124.599C125.701 124.399 125.901 124.199 126.101 124.199C126.401 124.199 126.801 124.199 127.101 124.199C127.801 124.199 128.601 124.199 129.001 124.799C129.101 124.999 129.501 124.899 129.301 125.399V125.499C130.401 125.499 130.701 126.499 131.201 126.999C131.701 127.499 132.501 127.499 132.701 128.099C133.401 127.999 133.601 128.299 133.601 128.699C133.601 128.999 133.701 129.199 133.901 129.399C134.001 129.599 134.201 129.899 134.201 129.899C134.201 129.899 134.301 129.999 134.401 129.999C134.401 129.999 134.401 129.999 134.501 129.999H134.601L135.501 129.799C136.101 129.599 136.701 129.499 137.301 129.399C137.501 129.399 137.601 128.999 137.901 129.199C138.201 129.399 138.401 129.199 138.701 129.099C138.901 129.099 139.201 128.799 139.401 128.899C140.501 129.299 141.301 128.699 142.301 128.499C143.201 128.299 144.201 128.199 145.101 127.799C145.101 127.799 145.201 127.799 145.301 127.799V127.699C145.301 127.699 145.301 127.599 145.401 127.599C145.501 127.599 145.201 127.399 145.901 127.799C146.101 127.899 145.601 127.499 145.601 127.499C145.601 127.399 145.601 127.399 145.601 127.299C145.601 127.299 145.601 127.299 145.601 127.199V126.999C145.601 126.899 145.501 126.699 145.401 126.599C145.301 126.299 145.001 125.999 144.801 125.699C144.701 125.399 144.601 124.999 144.501 124.699C144.501 124.199 144.501 123.799 144.501 123.299C144.501 122.799 144.101 122.399 144.201 121.899C144.501 120.999 144.101 120.199 143.901 119.399C143.801 118.599 143.601 117.799 143.301 116.999C143.101 116.599 143.501 115.999 143.401 115.599C143.401 115.399 144.701 114.799 145.201 114.699H145.401C146.001 114.999 146.801 115.299 146.801 115.799C146.901 116.599 147.101 117.299 147.301 117.999L147.501 117.399Z" fill="black"/>
<path d="M124.1 106.601C125.9 105.501 127.9 104.501 129.8 103.701C130.5 103.401 131.4 103.301 132 102.501C132.3 102.101 133.2 102.501 133.9 102.201C135.8 101.601 137.8 101.201 139.7 100.901C141.6 100.601 143.5 100.201 145.5 100.001C147.4 99.9006 149.4 100.201 151.3 100.001C152.9 99.8006 154.3 100.501 155.8 100.601C157.4 100.701 159.1 101.001 160.6 101.501C161.7 101.901 162.7 102.401 163.8 102.601C164.5 102.701 165.2 102.601 166 102.801C166.7 103.001 167.4 103.501 168.2 103.101C168.2 103.101 168.5 103.301 168.7 103.401C169.3 104.001 170.2 104.401 170.9 104.301C171.6 104.301 172.1 104.601 172.7 104.801C174.2 105.501 175.8 106.201 177.2 107.201C178.3 107.901 179.1 108.901 180.1 109.801C181.1 110.701 182.3 111.601 182.9 112.801C183.5 114.001 184.1 114.901 184.7 116.001C185 116.601 185.1 117.501 185.9 117.801C185.9 117.801 186.1 118.101 186.1 118.201C186.1 118.601 186.1 119.001 186.2 119.401V120.001C186.3 120.001 186.6 120.901 186.6 120.901C186.7 121.501 186.9 122.101 187 122.701V123.601V124.001C187 124.101 187 124.301 186.9 124.401C186.9 124.701 186.6 125.001 186.4 125.201C186.2 125.401 185.9 125.601 185.7 125.701C185.1 126.001 184.2 126.101 183.3 126.101H182.1L181.4 126.201C180.4 126.201 179.5 126.401 178.5 126.501C178 126.501 177.4 126.401 177 126.901C176.8 127.101 176.3 127.101 176 127.001C174.5 126.501 173.1 127.001 171.6 127.001C169.9 127.001 168.3 127.401 166.6 127.001C165.9 126.801 164.9 126.801 164.1 127.401C163.7 127.701 162.9 127.401 162.3 127.601C161.8 127.601 161.3 128.001 160.9 128.001C160.5 128.001 160 127.801 159.6 127.701C159.5 127.701 159.3 127.701 159.2 127.701C158.6 127.901 157.9 128.001 157.3 128.101H156.8H156.1C155.5 128.101 154.9 128.101 154.4 127.801C153.9 127.601 153.5 127.301 153.1 126.901C152.7 126.501 152.4 126.001 152.3 125.801C152 125.301 151.6 124.801 151.2 124.401C150.4 123.401 149.5 122.401 148.9 121.401C148.2 120.401 147.6 119.501 147 118.801C146.2 118.001 145.7 117.401 145.3 116.101C145.1 115.501 145.2 114.901 145.9 114.801C146.4 114.801 147 114.801 147.5 115.001C148.3 115.401 149.1 115.901 149.7 116.401C151 117.501 152.4 118.601 153.1 120.101C153.3 120.601 153.9 120.801 153.7 121.401C153.7 121.401 153.7 121.701 153.9 121.701C154.5 122.101 155 122.501 155.4 123.001L155.8 123.501C155.8 123.501 155.9 123.701 156 123.701C156.1 123.701 156.2 123.701 156.4 123.701C156.8 123.701 157.3 123.701 157.7 123.701C159.6 123.501 161.3 122.801 163.2 122.901C164.2 122.201 165.4 122.201 166.5 122.301C170.2 122.701 173.9 122.001 177.6 121.801C178.8 121.801 180.1 121.701 181.3 121.601H182.1C182.1 121.601 182.4 121.601 182.4 121.401C182.4 121.301 182.4 121.201 182.4 121.101V120.801L182.1 120.001C181.9 119.501 181.4 119.201 181.4 118.501C181.4 117.801 180.8 117.201 180.4 116.601C180 116.101 179.5 115.601 179.2 115.001C178 112.501 175.4 111.101 173.1 109.801C170.7 108.401 168 107.401 165.3 106.701C163.6 106.301 161.9 106.201 160.2 105.601C159.5 105.401 158.7 105.601 158 104.801C157.8 104.601 157.1 104.901 156.6 104.801C155.4 104.701 154.3 104.401 153.1 104.301C151.5 104.101 149.8 104.001 148.2 104.001C147.2 104.001 146.2 104.301 145.2 104.401C144.2 104.501 143.1 104.601 142.1 104.601C140.8 104.601 139.5 104.601 138.2 104.901C136.9 105.101 135.6 105.701 134.3 105.901C131.8 106.201 129.7 107.401 127.6 108.501C125.5 109.601 123.5 111.001 121.8 112.701C120.9 113.601 119.6 114.201 118.8 115.201C118.4 115.701 116.7 115.401 116.5 114.901C116.5 114.901 116.5 114.701 116.5 114.501C117 113.101 117.4 111.601 118.6 110.501C120.4 108.901 122.3 107.301 124.4 106.001L124.1 106.601Z" fill="black"/>
<path d="M171.1 187.399C171.7 187.399 172.3 187.399 172.9 187.399C173.5 187.399 174.1 187.299 174.7 187.199C175.1 187.199 175.6 187.199 176 186.699C176.2 186.399 176.7 186.999 177.1 186.799C178.2 186.499 179.3 186.299 180.4 185.899C180.9 185.699 181.4 185.499 181.9 185.199L183.3 184.399C184.2 183.899 185.4 183.699 186.1 182.899C186.8 182.199 187.7 182.199 188.3 181.599C189 180.999 189.7 180.399 190.5 179.999C191.1 179.699 191.7 179.399 192.2 178.899C192.4 178.599 192.5 178.099 192.8 177.799C193.1 177.499 193.6 177.399 193.4 176.699C193.4 176.699 193.6 176.599 193.7 176.599C194.3 176.599 194.6 176.099 194.7 175.699C194.7 175.299 194.9 174.999 195.1 174.799L196.7 172.599C197.1 172.099 197.6 171.599 198 170.999C198.4 170.399 198.4 169.599 198.9 169.199C199.4 168.699 199.6 168.099 199.7 167.499C199.7 167.199 200.1 166.799 199.6 166.399V166.199C200.1 165.799 200 165.299 199.9 164.799C199.8 164.299 199.5 163.899 199.6 163.399C199.7 162.399 199.4 161.399 199 160.399C199 160.099 199 159.799 198.5 159.699C198.3 159.699 198.2 159.399 198.3 159.299C198.6 158.399 197.8 157.799 197.5 157.099C197.1 156.299 196.3 155.799 196.1 154.799C196 154.399 195.7 153.899 194.9 153.999C194.6 153.999 194.4 153.599 194.1 153.399C193.9 153.299 193.5 153.399 193.3 153.199C193.1 153.099 193.1 152.799 192.9 152.499C192.9 152.499 192.8 152.399 192.7 152.399C191.3 152.299 190.5 150.899 189.1 150.599C187.8 150.299 186.4 149.999 185.1 149.699C184.3 149.499 183.6 149.299 183.1 148.199C182.9 147.699 182.8 147.099 183.2 146.799C183.5 146.599 183.8 146.299 184.1 146.299C184.6 146.299 185.1 146.099 185.6 146.099C186.6 146.099 187.8 145.699 188.8 146.299C189.1 146.499 189.6 146.299 189.7 146.899C189.7 146.899 189.8 147.099 189.9 146.999C191.5 146.699 192.8 147.799 194.1 148.499C195.2 149.099 196.6 149.299 197.5 150.399C198.5 150.399 199 151.099 199.4 151.799C200 152.999 200.8 154.099 201.4 155.199C202.1 156.299 202.7 157.499 203.1 158.699C203.9 161.199 204.3 163.899 203.9 166.599C203.9 167.099 204.1 167.499 203.8 167.999C203.4 168.399 203.5 169.099 203.3 169.699C203.1 170.199 203.1 170.799 202.8 171.199C201.4 172.799 200.8 174.699 199.6 176.299C198.4 177.799 197.1 179.299 195.9 180.799C195.5 181.199 195.2 181.799 194.8 182.199C194.4 182.599 194 183.099 193.5 183.399C193.1 183.699 192.8 184.299 192.1 184.099C191.9 184.099 191.8 184.699 191.5 184.899C190.9 185.399 190.1 185.799 189.5 186.299C188.5 186.899 187.5 187.399 186.5 187.999C185.9 188.299 185.4 188.899 184.8 189.199C184.1 189.499 183.5 189.799 182.8 189.999C181.9 190.199 181 190.299 180.1 190.499C179.2 190.699 178.3 191.199 177.3 191.099C175.6 190.899 173.9 191.399 172.3 191.399C171.5 191.399 170.6 191.399 169.8 191.399C169 191.399 168.1 191.399 167.3 191.399C166.3 191.399 165.6 190.899 164.5 190.499C164.2 190.499 164 189.899 164.1 189.499C164.1 188.999 164.3 188.599 164.5 188.399L164.7 188.299C165.1 188.299 165.4 187.999 165.8 187.899C166.2 187.699 166.6 187.599 167.1 187.699C168.4 187.899 169.8 187.899 171.2 187.899L171.1 187.399Z" fill="black"/>
</svg>
