<svg width="300" height="300" viewBox="0 0 300 300" fill="none" xmlns="http://www.w3.org/2000/svg">
<path d="M194.201 156.799C193.901 156.499 193.601 156.099 193.201 155.799C193.101 155.699 193.201 155.399 192.601 155.599C192.301 155.699 192.601 155.199 192.601 155.099C192.301 154.899 192.001 154.499 191.701 154.199C191.401 153.999 190.901 153.799 190.601 153.599C190.301 153.399 190.201 152.899 189.701 152.799C189.301 152.799 189.401 152.199 189.101 152.099C188.801 151.999 188.401 151.799 188.401 151.399C188.401 151.099 188.401 150.799 188.101 150.699C187.901 150.699 187.601 150.699 187.501 150.699C187.501 150.599 187.501 150.299 186.901 150.699C186.901 150.699 186.901 150.699 186.901 150.499C187.101 150.099 186.901 149.999 186.601 150.099C186.301 150.199 186.201 150.099 186.101 150.099C185.801 149.899 185.501 149.699 185.301 149.399C185.101 149.199 185.101 148.799 185.001 148.599C184.801 148.399 184.401 148.399 184.501 147.999C184.501 147.599 184.301 147.399 184.201 147.299C184.101 147.299 184.201 146.899 183.701 147.299C184.001 146.399 182.901 146.899 182.801 146.499C182.601 146.099 182.201 145.899 181.901 145.599C181.901 145.599 181.901 145.299 181.501 145.599C181.401 145.599 181.301 145.599 181.301 145.499C181.501 144.799 181.001 144.899 180.801 144.599C180.601 144.299 180.101 144.199 180.201 143.599C180.201 143.299 180.201 143.099 179.601 143.399C179.301 143.499 179.401 143.199 179.301 143.199C179.201 143.199 178.901 143.199 178.801 143.199C178.801 143.199 178.801 142.899 178.801 142.799C177.901 142.799 178.201 141.899 177.701 141.599C177.201 141.299 176.901 140.899 176.501 140.399C176.301 140.099 176.201 139.799 176.901 138.899C177.201 138.499 177.601 138.099 177.901 137.999C178.101 137.999 178.401 137.799 178.501 137.899C178.701 137.899 178.901 137.899 179.101 137.999C179.501 138.099 180.101 137.999 180.101 138.499C180.101 138.599 180.401 138.499 180.101 138.899V138.999C181.001 138.799 181.001 139.499 181.401 139.799C181.701 140.099 182.501 139.799 182.601 140.399C183.201 140.099 183.301 140.399 183.301 140.699C183.401 141.699 184.301 141.999 184.801 142.599C185.301 143.199 186.001 143.699 186.601 144.399C186.601 144.499 187.001 144.399 187.001 144.599C187.001 144.899 187.201 144.899 187.401 144.999C187.501 145.099 187.701 145.099 187.701 145.399C187.701 146.299 188.501 146.499 188.901 146.999C189.301 147.499 189.801 147.999 190.401 148.299C190.801 148.499 191.301 148.499 191.501 148.899C191.501 149.099 192.001 148.899 191.701 149.499C191.701 149.699 192.001 149.499 192.101 149.499C192.301 149.699 192.501 149.899 192.701 150.099C193.001 150.399 193.201 150.699 193.501 150.899C193.701 150.999 194.001 150.999 194.201 151.099C194.401 151.199 194.601 151.399 194.701 151.599C194.901 151.899 194.901 152.199 195.101 152.499C195.301 152.799 195.701 152.799 195.701 153.199C195.701 153.999 196.301 154.199 196.701 154.699C197.101 155.199 197.401 155.599 197.901 155.899C198.201 156.099 198.001 156.599 198.201 156.899C198.301 156.999 197.401 158.199 197.001 158.499L196.801 158.599C196.201 158.599 195.501 158.999 195.301 158.699C195.001 158.299 194.601 157.899 194.301 157.599L194.201 156.799Z" fill="black"/>
<path d="M134.301 135.5C133.001 135.6 131.601 135.7 130.401 136C129.901 136.1 129.401 136 129.101 136.6C129.001 136.9 128.401 136.4 128.001 136.6C127.501 136.8 127.301 137 127.101 137.1C126.801 137.5 126.401 137.899 126.201 138.399C125.701 139.299 125.501 140.4 125.301 141.5C125.101 142.6 124.601 143.7 124.801 144.8C125.001 145.8 124.401 146.6 124.501 147.6C124.501 148.6 124.701 149.7 124.501 150.7C124.301 151.4 124.101 152.199 124.201 152.899C124.201 153.399 124.601 153.8 124.601 154.3C124.601 154.8 124.301 155.3 125.001 155.7C125.001 155.7 125.001 155.9 124.901 156.1C124.501 156.6 124.601 157.2 124.901 157.6C125.201 158 125.201 158.4 125.201 158.7C125.201 159.7 125.401 160.8 125.401 161.8C125.401 162.6 125.201 163.4 125.201 164.2C125.201 165 125.601 165.9 125.301 166.6C125.101 167.4 125.201 168.1 125.301 168.8C125.301 169.2 125.101 169.7 125.801 170C125.801 170 125.801 170.2 125.801 170.3C125.101 171.6 126.301 172.599 126.301 173.899C126.301 175.199 126.601 176.4 126.801 177.7C126.801 178 126.801 178.4 127.201 178.7C127.401 178.7 127.401 179.1 127.401 179.3C126.901 180.3 127.401 181.299 127.401 182.2C127.401 183.299 127.901 184.4 127.601 185.5C127.501 186 127.501 186.7 128.201 187.1C128.501 187.3 128.301 187.9 128.501 188.3C128.601 188.6 128.901 188.9 129.001 189.2C129.001 189.5 128.901 189.8 128.801 190.1C128.801 190.1 128.801 190.299 128.801 190.399C129.701 191.899 129.201 193.6 129.601 195.2C130.101 196.799 130.301 198.4 130.501 200.1C130.601 201 130.601 202 129.601 202.8C129.101 203.2 128.601 203.3 128.201 203C127.901 202.8 127.601 202.5 127.501 202.2C127.301 201.7 127.101 201.2 126.901 200.7C126.501 199.7 125.801 198.8 125.901 197.6C125.901 197.2 125.601 196.9 125.901 196.5C125.901 196.5 125.901 196.299 125.901 196.2C124.901 194.9 125.101 193.299 124.801 191.899C124.501 190.699 123.701 189.6 123.701 188.3C123.001 187.7 122.901 186.9 123.001 186.1C123.201 183.5 122.401 181.1 122.101 178.6C121.801 176.1 121.401 173.5 121.101 171C121.101 170.6 120.701 170.2 120.901 169.7C121.101 169.2 120.901 168.6 120.801 168C120.801 167.5 120.601 167 120.701 166.5C121.201 164.4 120.701 162.499 120.601 160.399C120.601 158.399 120.601 156.399 120.301 154.399C120.201 153.199 119.801 152 120.001 150.7C120.001 150.2 119.701 149.6 120.301 149.1C120.501 149 120.001 148.5 120.001 148.1C120.001 147.3 120.001 146.4 120.001 145.5C120.001 144.3 120.301 143.1 120.401 141.8C120.501 141 120.401 140.199 120.601 139.399C120.801 138.599 121.101 137.7 121.501 137C122.101 136 122.801 135.2 123.601 134.3C123.701 134.1 124.101 133.7 124.401 133.5L124.601 133.3H124.801C124.801 133.2 125.301 132.899 125.301 132.899C125.601 132.699 125.901 132.6 126.201 132.5C126.501 132.4 126.801 132.3 127.101 132.3C129.201 132.3 130.801 131.7 132.601 131.6C134.301 131.5 136.101 131.4 137.701 131.1C138.601 130.9 139.501 131.4 140.401 131.1C140.601 131.1 140.901 131.4 141.101 131.8C141.401 132.2 141.601 132.599 141.601 132.899C141.601 132.999 141.601 133.1 141.501 133.2C140.601 133.9 139.801 134.7 138.701 134.8C137.101 134.8 135.501 135.1 134.001 135.2L134.301 135.5Z" fill="black"/>
<path d="M175.902 162.798C176.302 162.598 176.602 162.498 177.002 162.198C177.102 162.198 177.402 162.198 177.302 161.698C177.302 161.398 177.702 161.898 177.802 161.898C178.102 161.698 178.502 161.598 178.802 161.398C179.102 161.198 179.302 160.798 179.602 160.598C179.902 160.398 180.402 160.598 180.602 160.098C180.802 159.698 181.202 160.098 181.402 159.798C181.602 159.598 181.902 159.398 182.302 159.498C182.602 159.498 182.902 159.698 183.002 159.498C183.002 159.398 183.002 158.998 183.202 158.998C183.302 158.998 183.602 159.198 183.502 158.498C183.502 158.498 183.502 158.498 183.702 158.498C184.002 158.798 184.202 158.698 184.202 158.498C184.202 158.198 184.302 158.198 184.402 158.098C184.702 157.998 185.002 157.798 185.302 157.798C185.502 157.798 185.802 157.798 186.102 157.798C186.302 157.798 186.502 157.398 186.802 157.598C187.102 157.798 187.302 157.698 187.502 157.598C187.602 157.598 187.902 157.798 187.702 157.098C188.302 157.798 188.302 156.598 188.702 156.698C189.102 156.698 189.402 156.498 189.802 156.398C189.802 156.398 190.102 156.498 190.002 155.998C190.002 155.798 190.002 155.798 190.202 155.898C190.702 156.398 190.802 155.898 191.102 155.898C191.402 155.898 191.702 155.498 192.102 155.898C192.302 156.098 192.502 156.098 192.502 155.498C192.502 155.198 192.702 155.498 192.802 155.298C192.802 155.298 192.802 154.898 193.002 154.898C193.002 154.898 193.202 155.098 193.302 155.198C193.602 154.398 194.302 155.198 194.702 154.798C195.102 154.498 195.602 154.398 196.102 154.398C196.402 154.398 196.702 154.398 197.202 155.498C197.402 155.998 197.602 156.498 197.502 156.898C197.502 157.198 197.502 157.398 197.402 157.498C197.302 157.598 197.202 157.798 197.102 157.898C196.902 158.198 196.702 158.798 196.402 158.598C196.302 158.598 196.302 158.898 196.002 158.398C195.802 159.298 195.302 158.898 194.902 159.098C194.602 159.298 194.402 159.998 194.002 159.798C194.002 160.498 193.802 160.398 193.502 160.298C192.602 159.898 192.102 160.498 191.402 160.698C190.702 160.798 190.102 161.198 189.402 161.398C189.302 161.398 189.402 161.798 189.102 161.598C188.902 161.398 188.802 161.598 188.602 161.698C188.502 161.698 188.402 161.898 188.202 161.798C187.402 161.398 187.102 161.998 186.502 162.098C186.002 162.198 185.402 162.398 185.002 162.798C184.702 162.998 184.602 163.498 184.202 163.498C184.002 163.498 184.002 163.898 183.702 163.398C183.602 163.298 183.702 163.698 183.602 163.798C183.402 163.898 183.202 163.998 183.002 164.098C182.702 164.198 182.402 164.298 182.102 164.498C181.902 164.598 181.902 164.898 181.702 165.098C181.502 165.198 181.402 165.298 181.102 165.398C180.802 165.398 180.502 165.398 180.202 165.398C179.902 165.398 179.802 165.798 179.402 165.698C178.702 165.498 178.402 165.898 178.002 166.098C177.502 166.298 177.102 166.398 176.702 166.798C176.502 166.998 176.002 166.698 175.802 166.798C175.702 166.798 174.902 165.598 174.702 165.198V164.998C174.702 164.498 174.602 163.698 174.902 163.598C175.302 163.498 175.702 163.198 176.102 162.998L175.902 162.798Z" fill="black"/>
<path d="M178.4 181.698C178.4 181.398 178.3 180.998 178.1 180.698C178.1 180.598 178.3 180.398 177.7 180.398C177.4 180.398 178 180.098 178 179.998C177.9 179.698 177.9 179.398 177.7 179.098C177.6 178.798 177.3 178.598 177.1 178.298C177 177.998 177.1 177.598 176.8 177.398C176.5 177.198 176.9 176.898 176.8 176.698C176.6 176.498 176.5 176.198 176.6 175.898C176.7 175.698 176.9 175.498 176.7 175.298C176.7 175.298 176.3 175.198 176.3 175.098C176.3 174.998 176.5 174.798 175.9 174.798C175.9 174.798 175.9 174.798 176 174.698C176.4 174.498 176.3 174.298 176 174.298C175.7 174.298 175.7 174.198 175.7 174.098C175.7 173.898 175.5 173.598 175.5 173.398C175.5 173.198 175.7 172.998 175.7 172.798C175.7 172.598 175.4 172.498 175.7 172.198C176 171.898 175.9 171.798 175.8 171.598C175.8 171.598 176 171.298 175.4 171.398C176.1 170.898 175 170.898 175.1 170.598C175.2 170.298 175.1 169.998 174.9 169.698C174.9 169.698 175 169.498 174.6 169.498C174.4 169.498 174.4 169.498 174.5 169.398C175 168.998 174.6 168.898 174.7 168.598C174.7 168.298 174.4 168.098 174.7 167.698C174.9 167.498 174.9 167.398 174.3 167.398C174 167.398 174.3 167.198 174.2 167.098C174.2 167.098 173.8 167.098 173.8 166.998C173.8 166.998 174 166.798 174.1 166.698C173.4 166.498 174.1 165.898 173.8 165.598C173.5 165.298 173.5 164.898 173.4 164.498C173.4 164.298 173.4 163.998 174.5 163.498C175 163.298 175.5 163.098 175.8 163.098C176 163.098 176.3 163.098 176.4 163.098C176.5 163.098 176.7 163.298 176.8 163.398C177.1 163.598 177.7 163.698 177.5 163.998C177.5 164.098 177.8 164.098 177.3 164.298C178.2 164.398 177.8 164.898 177.9 165.298C178 165.598 178.7 165.698 178.5 166.098C179.2 166.098 179.1 166.298 179 166.498C178.5 167.298 179.1 167.698 179.2 168.398C179.2 168.998 179.5 169.598 179.6 170.198C179.6 170.298 180 170.298 179.8 170.498C179.6 170.698 179.8 170.798 179.8 170.898C179.8 170.998 180 171.098 179.8 171.298C179.3 171.898 179.8 172.298 179.8 172.798C179.8 173.298 179.8 173.798 180.2 174.198C180.4 174.498 180.8 174.698 180.7 174.998C180.7 175.098 181 175.198 180.5 175.398C180.3 175.398 180.8 175.398 180.9 175.598C180.9 175.798 181 175.998 181.1 176.198C181.1 176.498 181.1 176.798 181.3 176.998C181.3 177.198 181.7 177.298 181.8 177.398C181.9 177.598 181.9 177.698 181.9 177.898C181.9 178.098 181.7 178.398 181.7 178.598C181.7 178.798 182 178.998 181.8 179.298C181.4 179.798 181.8 180.198 181.8 180.598C181.8 180.998 181.9 181.398 182.1 181.798C182.2 181.998 181.8 182.298 181.9 182.598C181.9 182.598 180.5 183.198 180 183.298H179.8C179.3 183.298 178.5 183.298 178.5 182.898C178.5 182.498 178.3 182.198 178.2 181.798L178.4 181.698Z" fill="black"/>
<path d="M172.001 201.699C172.101 201.299 172.301 200.899 172.301 200.499C172.301 200.299 172.601 200.299 172.201 199.999C172.001 199.799 172.601 199.899 172.601 199.699C172.601 199.299 172.901 198.999 172.901 198.599C172.901 198.199 172.901 197.799 172.901 197.399C172.901 196.999 173.401 196.799 173.201 196.299C173.001 195.899 173.601 195.799 173.601 195.499C173.601 195.199 173.601 194.799 173.901 194.599C174.101 194.399 174.401 194.299 174.401 194.099C174.401 193.899 174.101 193.699 174.201 193.599C174.201 193.499 174.601 193.399 174.001 193.099C174.001 193.099 174.001 193.099 174.201 193.099C174.601 193.099 174.701 192.899 174.401 192.699C174.201 192.499 174.301 192.399 174.301 192.299C174.301 191.999 174.401 191.699 174.601 191.399C174.701 191.199 175.001 191.099 175.201 190.899C175.301 190.699 175.201 190.399 175.501 190.199C175.901 190.099 175.901 189.899 176.001 189.699C176.001 189.599 176.401 189.499 175.801 189.199C176.701 189.199 175.801 188.499 176.101 188.199C176.401 187.899 176.401 187.499 176.501 187.199C176.501 187.199 176.701 187.099 176.301 186.799C176.201 186.799 176.201 186.599 176.301 186.599C177.001 186.599 176.701 186.099 176.901 185.899C177.101 185.599 176.901 185.199 177.501 185.099C177.701 185.099 177.901 184.899 177.401 184.599C177.201 184.399 177.401 184.399 177.401 184.299C177.401 184.199 177.101 183.999 177.201 183.899C177.201 183.899 177.501 183.899 177.601 183.799C177.101 183.199 178.101 182.999 178.001 182.499C178.001 182.199 178.001 182.099 178.001 181.799C178.001 181.499 178.201 181.199 178.401 180.799C178.601 180.399 179.101 179.999 180.201 180.599C180.701 180.799 181.101 181.199 181.301 181.499C181.401 181.699 181.601 181.899 181.601 181.999C181.601 182.099 181.701 182.299 181.801 182.399C181.901 182.599 182.401 182.899 182.001 183.199C181.901 183.199 182.101 183.499 181.601 183.399C182.301 183.999 181.601 184.399 181.601 184.799C181.601 185.199 182.001 185.699 181.601 185.999C182.101 186.399 182.001 186.599 181.701 186.699C180.801 187.199 181.001 187.999 180.701 188.699C180.401 189.399 180.201 190.099 179.901 190.799C179.901 190.899 180.201 191.099 179.901 191.199C179.601 191.199 179.701 191.499 179.701 191.599C179.701 191.699 179.701 191.899 179.501 191.999C178.701 192.299 178.901 192.999 178.601 193.499C178.301 193.999 178.101 194.499 178.101 195.099C178.101 195.499 178.301 195.899 178.101 196.199C178.001 196.299 178.301 196.599 177.701 196.499C177.501 196.499 177.901 196.799 177.901 196.899C177.901 197.099 177.801 197.399 177.701 197.599C177.601 197.899 177.401 198.199 177.401 198.599C177.401 198.799 177.501 199.099 177.501 199.299C177.501 199.499 177.501 199.699 177.301 199.899C177.101 200.099 176.901 200.299 176.701 200.599C176.601 200.799 176.701 201.199 176.401 201.399C175.801 201.699 175.901 202.299 175.701 202.699C175.501 203.099 175.301 203.599 175.301 204.099C175.301 204.399 174.801 204.499 174.701 204.699C174.701 204.799 173.201 204.699 172.701 204.499H172.501C172.101 204.099 171.501 203.699 171.601 203.399C171.801 202.899 171.901 202.499 172.001 201.999V201.699Z" fill="black"/>
<path d="M154.1 156.5C154.1 156.5 154.1 156.4 154.1 156.3C154.1 156.3 154.4 156.3 153.8 156.2C153.5 156.2 154.3 156.2 154.2 156.2C154.2 156.2 154.2 156.1 154.2 156C154.2 156 153.9 155.8 153.8 155.8C153.8 155.8 154.1 155.7 153.8 155.6C153.5 155.6 154.1 155.6 153.9 155.4C153.7 155.4 153.7 155.3 153.9 155.2C154.1 155.2 154.4 155.2 154.2 155.1C154.2 155.1 153.7 155.1 153.8 155.1C153.8 155.1 154.2 155.1 153.4 155.1C153.4 155.1 153.4 155.1 153.6 155.1C154.1 155.1 154.1 155.1 153.7 155.1C153.4 155.1 153.4 155.1 153.4 155.1C153.4 155.1 153.4 155 153.4 154.9C153.4 154.9 153.7 154.8 153.8 154.7C153.8 154.7 153.5 154.7 153.8 154.6C154.2 154.6 154.1 154.5 154.1 154.4C154.1 154.4 154.4 154.4 153.7 154.4C154.7 154.2 153.4 154.4 153.7 154.2C153.9 154.1 153.7 154.1 153.7 154C153.7 154 153.9 154 153.4 154C153.2 154 153.2 154 153.4 154C154.1 153.8 153.7 153.8 153.8 153.8C153.9 153.8 153.6 153.8 154.1 153.5C154.3 153.5 154.5 153.3 153.8 153.5H153.4C153.4 153.5 153.7 153.4 153.8 153.3C153 153.5 154 153.1 153.8 153.1C153.6 153.1 153.6 153 153.8 152.9C153.8 152.9 154 152.7 155.3 152.2C155.9 151.9 156.5 151.7 156.9 151.6C157.2 151.6 157.4 151.4 157.5 151.4C157.6 151.4 157.8 151.4 157.9 151.4C158.2 151.4 158.8 151.3 158.5 151.4C158.5 151.4 158.8 151.4 158.2 151.6C159.2 151.4 158.6 151.8 158.7 151.9C158.7 151.9 159.6 151.9 159.3 152.1C160.1 152 160 152.1 159.7 152.2C159 152.6 159.5 152.7 159.5 153C159.5 153.2 159.5 153.5 159.5 153.7C159.5 153.7 159.9 153.7 159.6 153.8C159.3 153.8 159.6 153.9 159.6 154C159.6 154 159.8 154 159.6 154.1C158.8 154.4 159.3 154.5 159.2 154.7C159.2 154.9 159.1 155 159.2 155.2C159.3 155.3 159.7 155.4 159.6 155.5C159.6 155.5 159.9 155.6 159.2 155.6C159 155.6 159.5 155.6 159.6 155.6V155.8C159.6 155.9 159.6 156 159.6 156.1C159.6 156.1 159.9 156.3 160 156.3C160 156.3 160 156.4 160 156.5C160 156.5 159.6 156.6 159.6 156.7C159.6 156.7 159.8 156.9 159.5 157C158.9 157 159.2 157.3 159.1 157.4C159.1 157.5 158.9 157.7 159.1 157.9C159.1 158 158.5 157.9 158.5 158C158.5 158 158.4 158 158.2 158C158 158 157.8 158 157.5 157.9C157 157.8 156.4 157.7 156.1 157.6C156 157.6 155.9 157.6 155.8 157.6C155.3 157.4 154.4 157.2 154.5 157.1C154.6 157.1 154.5 156.9 154.5 156.9L154.1 156.5Z" fill="black"/>
<path d="M162.702 154.098C162.702 154.098 162.802 154.098 162.702 153.898C162.702 153.898 162.902 153.898 162.502 153.698C162.302 153.598 162.802 153.898 162.802 153.798C162.802 153.798 162.802 153.698 162.802 153.598C162.802 153.598 162.602 153.398 162.602 153.298C162.602 153.298 162.902 153.298 162.602 153.098C162.402 152.998 162.802 153.098 162.702 153.098C162.602 153.098 162.502 152.898 162.702 152.998C162.902 152.998 163.102 152.998 163.002 152.998C163.002 152.998 162.602 152.898 162.702 152.798C162.702 152.798 163.002 152.798 162.402 152.698C162.402 152.698 162.402 152.698 162.502 152.698C162.902 152.698 162.902 152.698 162.602 152.698C162.302 152.698 162.402 152.698 162.402 152.598C162.402 152.598 162.402 152.598 162.402 152.498C162.402 152.498 162.702 152.498 162.802 152.498C162.802 152.498 162.602 152.398 162.802 152.398C163.102 152.398 163.102 152.398 163.102 152.398C163.102 152.398 163.402 152.398 162.802 152.398C163.602 152.398 162.502 152.298 162.802 152.198C163.002 152.198 162.802 152.098 162.802 151.998C162.802 151.998 163.002 151.998 162.502 151.998C162.302 151.998 162.302 151.998 162.502 151.998C163.102 151.998 162.702 151.898 162.802 151.798C162.902 151.798 162.602 151.798 163.102 151.598C163.302 151.598 163.402 151.498 162.802 151.598H162.502C162.502 151.598 162.702 151.598 162.802 151.498C162.102 151.498 163.002 151.298 162.802 151.298C162.602 151.298 162.702 151.198 162.802 151.098C162.802 151.098 163.002 150.898 164.102 150.498C164.602 150.298 165.102 150.098 165.402 149.998C165.602 149.998 165.902 149.898 165.902 149.898C166.002 149.898 166.202 149.898 166.302 149.898C166.502 149.898 167.102 149.898 166.802 150.098C166.802 150.098 167.002 150.098 166.502 150.298C167.302 150.298 166.802 150.498 166.902 150.598C166.902 150.698 167.602 150.698 167.402 150.898C168.002 150.898 167.902 150.898 167.802 151.098C167.202 151.398 167.602 151.598 167.602 151.898C167.602 152.198 167.602 152.398 167.602 152.698C167.602 152.698 167.902 152.798 167.602 152.798C167.302 152.798 167.602 152.898 167.602 152.998C167.602 152.998 167.702 153.098 167.602 153.198C166.902 153.298 167.302 153.598 167.202 153.698C167.102 153.898 167.002 153.998 167.202 154.298C167.202 154.398 167.602 154.698 167.402 154.698C167.402 154.698 167.602 154.898 167.102 154.698C166.902 154.698 167.402 154.798 167.402 154.898V155.098C167.402 155.198 167.302 155.298 167.302 155.398C167.302 155.398 167.502 155.598 167.502 155.698C167.502 155.698 167.502 155.898 167.402 155.898C167.302 155.898 167.102 155.898 167.002 155.998C167.002 155.998 167.002 156.298 166.802 156.198C166.302 156.098 166.402 156.398 166.302 156.498C166.202 156.598 166.002 156.698 166.002 156.898C166.002 156.998 165.502 156.798 165.502 156.898C165.502 156.898 164.302 155.998 164.002 155.698C164.002 155.698 163.902 155.598 163.802 155.498C163.502 155.098 163.002 154.698 163.002 154.598C163.102 154.598 163.102 154.498 163.202 154.398L162.702 154.098Z" fill="black"/>
<path d="M171.002 181.601C170.502 181.901 170.002 182.001 169.502 182.201C169.302 182.201 169.102 182.101 169.002 182.601C169.002 182.901 168.602 182.301 168.502 182.401C168.102 182.601 167.602 182.501 167.202 182.701C166.802 182.801 166.402 183.101 166.002 183.201C165.602 183.201 165.202 183.001 164.802 183.301C164.502 183.601 164.202 183.101 163.802 183.301C163.502 183.401 163.102 183.501 162.802 183.301C162.602 183.101 162.302 182.901 162.102 183.001C161.902 183.001 161.802 183.401 161.602 183.301C161.402 183.301 161.302 183.001 161.102 183.601C161.102 183.601 161.102 183.601 161.002 183.401C160.902 183.001 160.702 183.001 160.502 183.201C160.302 183.501 160.202 183.401 160.102 183.401C159.702 183.401 159.402 183.401 159.002 183.201C158.702 183.201 158.502 182.801 158.302 182.701C158.002 182.601 157.702 182.701 157.502 182.401C157.302 182.001 157.102 182.001 156.902 181.901C156.802 181.901 156.702 181.501 156.402 182.101C156.302 181.201 155.502 182.101 155.202 181.701C154.902 181.301 154.402 181.301 154.002 181.101C153.902 181.101 153.902 180.801 153.502 181.101C153.402 181.201 153.302 181.101 153.302 181.101C153.302 180.401 152.802 180.501 152.602 180.201C152.302 179.901 151.802 179.801 151.802 179.201C151.802 178.901 151.802 178.701 151.102 179.001C150.802 179.101 150.902 178.801 150.702 178.701C150.602 178.701 150.302 178.701 150.202 178.701C150.202 178.701 150.202 178.401 150.202 178.201C149.302 178.101 149.702 177.001 149.202 176.501C148.802 176.001 148.602 175.301 148.602 174.601C148.602 174.201 148.702 173.801 149.902 173.501C150.402 173.401 151.002 173.401 151.302 173.501C151.502 173.501 151.802 173.601 151.802 173.701C151.902 173.801 152.102 173.901 152.202 174.001C152.402 174.201 153.002 174.201 152.802 174.501C152.802 174.601 153.102 174.501 152.602 174.801C153.502 174.801 153.102 175.301 153.402 175.501C153.602 175.701 154.302 175.501 154.202 175.901C154.802 175.601 154.802 175.701 154.802 175.901C154.802 176.801 155.602 176.801 156.002 177.101C156.502 177.501 157.102 177.601 157.702 177.901C157.802 177.901 158.002 177.601 158.002 177.901C158.002 178.201 158.302 178.001 158.402 178.101C158.502 178.101 158.702 178.101 158.802 178.201C159.202 179.001 159.802 178.701 160.302 178.801C160.802 179.001 161.402 179.101 161.902 179.001C162.202 179.001 162.602 178.601 162.902 178.701C163.002 178.701 163.202 178.401 163.302 179.001C163.302 179.201 163.502 178.701 163.602 178.701C163.802 178.701 164.102 178.701 164.302 178.701C164.602 178.701 164.902 178.701 165.302 178.701C165.502 178.701 165.702 178.401 165.902 178.301C166.102 178.301 166.302 178.301 166.502 178.301C166.702 178.301 167.002 178.501 167.202 178.601C167.502 178.601 167.602 178.301 167.902 178.601C168.402 179.001 168.702 178.601 169.102 178.601C169.402 178.601 169.702 178.401 169.802 178.101C169.802 178.001 170.302 178.101 170.402 178.101C170.402 178.101 171.802 178.601 172.202 178.901C172.202 178.901 172.402 179.001 172.402 179.101C172.702 179.601 173.002 180.401 172.702 180.701C172.202 181.201 171.602 181.601 171.102 181.901L171.002 181.601Z" fill="black"/>
<path d="M181.4 205.598C180.3 205.598 179.2 205.598 178.1 205.798C177.7 205.798 177.3 205.598 176.9 206.198C176.7 206.498 176.3 205.898 175.9 205.898C174.9 205.998 173.9 205.998 172.9 206.098C171.9 206.198 171 206.498 170 206.698C169 206.798 168 206.698 167.1 206.998C166.3 207.298 165.5 206.898 164.8 206.998C164 207.198 163.1 207.298 162.3 207.198C161.7 207.098 161.1 206.898 160.5 207.098C160.1 207.098 159.8 207.498 159.4 207.498C159 207.498 158.6 207.298 158.3 207.898C158.3 207.898 158.1 207.898 158 207.798C157.6 207.398 157.1 207.498 156.8 207.798C156.5 208.098 156.2 208.098 155.9 208.098C155.1 208.098 154.2 208.298 153.4 208.298C152.8 208.298 152.1 208.098 151.5 208.098C150.8 208.098 150.2 208.398 149.5 208.098C148.9 207.798 148.3 207.898 147.7 207.898C147.4 207.898 147 207.698 146.7 208.298C146.7 208.298 146.6 208.298 146.5 208.298C145.5 207.498 144.6 208.698 143.6 208.498C142.6 208.298 141.6 208.498 140.5 208.598C140.2 208.598 139.9 208.398 139.7 208.898C139.7 209.098 139.3 209.098 139.2 208.898C138.4 208.298 137.6 208.698 136.8 208.598C135.9 208.498 135 208.798 134.1 208.298C133.7 208.098 133.2 207.998 132.7 208.598C132.5 208.898 132 208.598 131.7 208.598C131.4 208.598 131.2 208.898 130.9 208.898C130.7 208.898 130.4 208.698 130.2 208.498H130C128.7 209.098 127.4 208.198 126 208.298C124.6 208.298 123.2 208.098 121.8 207.698C121.4 207.598 121 207.398 120.7 207.098C120.4 206.798 120.1 206.298 120.1 205.698C120.1 205.098 120.3 204.598 120.7 204.398C121 204.298 121.3 204.098 121.5 204.098C121.9 204.098 122.3 204.098 122.7 204.098C123.5 204.098 124.3 203.698 125.1 204.098C125.3 204.198 125.7 203.898 125.8 204.498C125.8 204.498 125.9 204.598 126 204.498C127.2 203.798 128.3 204.398 129.4 204.398C130.4 204.398 131.3 203.798 132.3 203.998C132.8 203.398 133.5 203.498 134 203.698C135.9 204.298 137.9 203.798 139.9 203.798C141.9 203.798 143.9 203.598 145.9 203.498C146.2 203.498 146.5 203.098 146.9 203.398C147.3 203.598 147.8 203.398 148.2 203.398C148.6 203.398 149 203.198 149.4 203.398C151 203.998 152.5 203.398 154.1 203.398C155.7 203.398 157.2 203.398 158.8 202.998C159.7 202.798 160.7 202.398 161.6 202.498C162 202.498 162.4 202.198 162.9 202.698C163 202.898 163.4 202.398 163.6 202.298C164.2 202.198 164.9 202.198 165.6 202.098C166.5 202.098 167.4 202.098 168.3 201.898C168.9 201.898 169.4 201.498 169.9 201.398C170.5 201.298 171.1 201.298 171.6 201.298C172.3 201.298 173.1 201.498 173.8 201.498C174.6 201.498 175.3 201.198 176.1 201.498C177.5 201.898 178.8 201.498 180.2 201.498C181.6 201.498 182.9 201.498 184.3 201.298C185.1 201.198 185.8 201.698 186.5 201.598C186.9 201.598 187.4 202.998 187.2 203.598C187.2 203.598 187.2 203.798 187.1 203.798C186.4 204.298 185.8 204.998 184.9 204.998C183.7 204.998 182.4 204.998 181.2 205.198L181.4 205.598Z" fill="black"/>
<path d="M136.3 179.698C135.6 179.698 135 179.498 134.4 179.398C134.2 179.398 134 179.098 133.6 179.498C133.4 179.698 133.3 179.098 133.1 178.998C132.5 178.998 131.9 178.598 131.4 178.498C130.8 178.398 130.2 178.299 129.6 178.099C129 177.899 128.6 177.399 128 177.299C127.4 177.299 127.3 176.598 126.9 176.498C126.4 176.298 125.9 176.099 125.7 175.599C125.5 175.199 125.4 174.798 125.1 174.698C124.9 174.698 124.5 174.698 124.4 174.498C124.2 174.298 124.3 173.898 123.6 174.198C123.6 174.198 123.6 173.998 123.6 173.898C123.6 173.398 123.4 172.998 123 172.898C122.6 172.698 122.5 172.399 122.4 172.099C122.2 171.699 122.2 171.199 122.1 170.799C122.1 170.399 122.1 169.899 122.2 169.599C122.3 169.199 122.6 168.898 122.7 168.498C122.8 168.098 122.7 167.599 123.1 167.299C123.5 166.999 123.7 166.598 123.9 166.198C124 165.998 124.4 165.899 124 165.299C124 165.299 124 165.198 124.1 165.198C124.7 165.198 124.9 164.798 125 164.498C125.2 164.098 125.4 163.699 125.7 163.599C126.5 163.399 127.1 162.898 127.8 162.698C128 162.698 128.2 162.699 128.3 162.299C128.3 162.099 128.5 162.098 128.6 162.198C129.2 162.698 129.7 162.198 130.2 162.398C130.8 162.398 131.3 162.198 131.8 162.698C132 162.898 132.3 162.998 132.6 162.498C132.7 162.198 133 162.498 133.2 162.498C133.4 162.498 133.5 162.198 133.7 162.198C133.8 162.198 133.9 162.499 134.1 162.599C134.1 162.599 134.1 162.599 134.2 162.599C135.1 161.999 135.8 163.099 136.6 163.099C137.5 163.099 138.4 163.699 139.2 164.299C139.6 164.699 140 165.299 139.3 166.299C139 166.699 138.6 167.098 138.2 167.198C137.9 167.198 137.7 167.399 137.6 167.299C137.4 167.299 137.2 167.299 137 167.299C136.6 167.299 136.1 167.599 135.9 167.299C135.9 167.199 135.6 167.398 135.7 166.898C135 167.498 134.6 166.898 134.1 166.898C133.6 166.898 133.1 167.498 132.6 167.198C132.3 167.798 132 167.698 131.7 167.498C130.8 166.798 129.9 167.298 129.2 167.498C128.5 167.598 127.9 168.098 127.6 168.398C127.6 168.398 127.8 168.699 127.6 168.599C127.3 168.599 127.4 168.798 127.4 168.898C127.4 168.998 127.4 169.199 127.2 169.299C126.8 169.499 126.6 169.798 126.6 170.198C126.6 170.598 126.6 170.998 126.6 170.998C126.6 171.098 126.6 171.298 126.6 171.398C126.6 171.398 126.6 171.399 126.8 171.599C126.9 171.599 127 171.798 127.2 171.898C127.6 172.098 128.2 172.199 128.4 172.599C128.5 172.799 128.9 172.598 128.7 173.198C128.7 173.398 129.1 173.198 129.2 173.198C129.5 173.298 129.7 173.498 130 173.698C130.4 173.898 130.7 174.199 131.1 174.299C131.3 174.299 131.7 174.299 131.9 174.299C132.2 174.299 132.4 174.499 132.6 174.599C132.9 174.799 133.1 175.099 133.5 175.299C133.8 175.499 134.3 175.298 134.5 175.698C135 176.298 135.7 176.198 136.4 176.398C136.7 176.398 137.1 176.498 137.3 176.498C137.4 176.498 137.5 176.498 137.6 176.498V176.799C137.6 176.899 137.8 177.198 137.8 177.198C137.8 177.198 138 177.299 138.1 177.299C138.1 177.299 138.1 177.299 138.3 177.299C138.7 177.199 139.1 176.899 139.4 176.799C139.4 176.799 139.6 176.799 139.7 176.799C140.4 177.499 140.7 178.999 139.7 179.599C138.9 180.099 138.3 180.098 137.7 180.198C137.2 180.198 136.8 180.198 136.5 180.198L136.3 179.698Z" fill="black"/>
<path d="M145.299 139.298C145.199 139.798 145.099 140.298 144.999 140.898C144.999 141.098 144.699 141.198 145.199 141.498C145.399 141.698 144.799 141.698 144.799 141.898C144.799 142.398 144.599 142.798 144.499 143.298C144.499 143.798 144.499 144.298 144.499 144.798C144.499 145.298 143.999 145.698 144.199 146.198C144.399 146.598 143.799 146.898 143.799 147.198C143.799 147.598 143.799 147.998 143.499 148.298C143.299 148.498 142.999 148.698 142.999 148.998C142.999 149.198 143.299 149.398 143.199 149.598C143.199 149.798 142.799 149.898 143.399 150.198C143.399 150.198 143.399 150.198 143.199 150.198C142.799 150.198 142.699 150.498 142.999 150.698C143.199 150.898 143.2 150.998 143.1 151.198C143.1 151.598 142.999 151.998 142.799 152.298C142.699 152.598 142.399 152.798 142.299 153.098C142.199 153.398 142.299 153.798 141.999 153.998C141.599 154.198 141.599 154.498 141.499 154.698C141.499 154.898 141.099 154.998 141.699 155.198C140.799 155.498 141.699 156.098 141.499 156.498C141.199 156.898 141.299 157.398 141.199 157.798C141.199 157.898 140.999 157.998 141.399 158.198C141.599 158.198 141.599 158.398 141.399 158.398C140.699 158.598 140.999 158.998 140.899 159.398C140.699 159.798 140.899 160.198 140.399 160.498C140.199 160.698 140 160.898 140.6 161.198C140.9 161.298 140.6 161.498 140.6 161.698C140.6 161.798 140.899 161.998 140.899 162.098C140.899 162.198 140.699 162.298 140.499 162.398C140.499 162.398 140.499 162.398 140.499 162.498C141.099 163.198 140.199 163.698 140.299 164.298C140.399 164.898 140.3 165.498 140.1 166.098C140.1 166.398 139.8 166.798 138.6 166.898C138.1 166.898 137.499 166.898 137.199 166.698C136.999 166.598 136.799 166.398 136.699 166.298C136.699 166.098 136.499 165.898 136.399 165.698C136.199 165.298 135.8 164.898 136.1 164.498C136.2 164.398 135.899 164.198 136.399 164.198C135.699 163.598 136.199 163.098 136.199 162.498C136.199 161.998 135.599 161.498 135.899 161.098C135.299 160.798 135.399 160.498 135.699 160.198C136.499 159.298 136.199 158.298 136.399 157.298C136.699 156.398 136.799 155.398 136.999 154.498C136.999 154.298 136.699 154.098 136.999 153.998C137.299 153.898 137.099 153.598 137.199 153.398C137.199 153.198 137.199 152.998 137.399 152.798C138.199 152.198 137.999 151.398 138.299 150.698C138.599 149.998 138.799 149.298 138.799 148.598C138.799 148.098 138.599 147.598 138.799 147.198C138.899 146.998 138.599 146.698 139.199 146.698C139.399 146.698 138.999 146.398 138.999 146.298C138.999 145.998 139.099 145.698 139.199 145.398C139.299 144.998 139.499 144.598 139.499 144.198C139.499 143.898 139.299 143.598 139.399 143.398C139.399 143.098 139.4 142.898 139.6 142.598C139.7 142.298 139.999 141.998 140.199 141.698C140.299 141.398 140.199 140.998 140.499 140.698C141.099 140.198 140.999 139.498 141.199 138.998C141.399 138.398 141.499 137.798 141.499 137.198C141.499 136.898 141.999 136.598 141.999 136.298C141.999 136.098 143.499 136.098 143.999 136.298H144.199C144.599 136.698 145.299 137.098 145.199 137.498C144.999 138.098 144.999 138.698 144.899 139.298H145.299Z" fill="black"/>
<path d="M182.4 138.499C181.6 138.599 180.9 138.799 180.1 138.999C179.8 138.999 179.5 138.899 179.3 139.499C179.3 139.799 178.8 139.199 178.6 139.299C177.9 139.499 177.2 139.599 176.5 139.799C175.8 139.999 175.2 140.299 174.5 140.499C173.8 140.699 173.1 140.499 172.5 140.999C172 141.399 171.4 140.999 170.9 141.199C170.3 141.399 169.8 141.599 169.2 141.499C168.8 141.499 168.3 141.299 167.9 141.499C167.7 141.599 167.5 141.999 167.2 141.999C166.9 141.999 166.6 141.799 166.5 142.499C166.5 142.499 166.4 142.499 166.3 142.399C165.9 142.099 165.6 142.099 165.4 142.399C165.2 142.699 165 142.699 164.8 142.799C164.2 142.899 163.6 143.099 163.1 143.099C162.7 143.099 162.2 142.999 161.7 143.099C161.2 143.099 160.8 143.499 160.3 143.299C159.8 143.099 159.4 143.199 159 143.299C158.8 143.299 158.4 143.099 158.4 143.799C158.4 143.799 158.4 143.799 158.3 143.799C157.5 143.099 157 144.299 156.3 144.199C155.6 144.199 154.9 144.399 154.2 144.599C154 144.599 153.8 144.599 153.7 144.999C153.7 145.199 153.5 145.199 153.4 145.099C153.1 144.799 152.8 144.799 152.5 144.899C152.4 144.899 152.2 144.899 152.1 144.999C151.9 144.999 151.9 144.999 151.6 144.999C151 144.999 150.5 145.199 149.9 144.999C149.3 144.999 148.8 144.699 148.5 144.099C148.2 143.699 147.9 143.199 147.1 143.199C146.7 143.199 146.8 142.799 146.6 142.599C146.4 142.499 146.1 142.499 146 142.299C145.9 142.199 146 141.899 146 141.699V141.599C144.9 141.299 145.2 140.099 144.6 139.699C144 139.399 143.6 138.999 143.2 138.799C143 138.699 142.9 138.499 142.5 137.399C142.3 136.899 142.2 136.399 142.5 135.999C142.7 135.699 142.9 135.499 143.1 135.499C143.5 135.499 143.9 135.399 144.3 135.399C145.1 135.399 146.1 135.399 146.6 136.099C146.7 136.299 147.2 136.299 147 136.799V136.999C148.3 137.099 148.5 138.299 149.1 138.899C149.6 139.499 150.5 139.599 150.6 140.299C151 140.299 151 140.099 151.1 140.099C151.1 140.099 151.1 140.099 151.1 140.199C151.1 140.399 151.1 140.499 151.1 140.499C151.1 140.499 151.1 140.499 151.3 140.499C152 140.299 152.7 140.099 153.3 139.999C154.7 139.799 156.1 139.499 157.5 139.199C157.7 139.199 157.9 138.799 158.2 138.999C158.5 139.199 158.8 138.999 159.1 138.899C159.4 138.899 159.6 138.699 159.9 138.799C161.1 139.199 162.1 138.599 163.2 138.499C164.3 138.399 165.4 138.199 166.5 137.799C167.1 137.599 167.7 137.099 168.4 137.099C168.7 137.099 168.9 136.699 169.3 137.199C169.4 137.299 169.6 136.899 169.8 136.799C170.2 136.699 170.7 136.599 171.2 136.499C171.8 136.399 172.5 136.299 173.1 136.099C173.5 135.999 173.8 135.699 174.2 135.499C174.6 135.399 175 135.299 175.4 135.299C175.9 135.299 176.5 135.299 177 135.299C177.5 135.299 178 134.899 178.6 135.099C179.6 135.399 180.5 134.999 181.5 134.899C182.4 134.799 183.4 134.599 184.3 134.299C184.8 134.099 185.4 134.499 185.9 134.399C186.1 134.399 186.7 135.699 186.7 136.299V136.499C186.3 137.099 186 137.899 185.4 137.899C184.5 137.899 183.7 138.199 182.8 138.399L182.4 138.499Z" fill="black"/>
<path d="M141.999 129.098C142.499 128.298 143.099 127.498 143.599 126.598C143.799 126.298 144.199 126.098 143.999 125.498C143.899 125.198 144.599 125.198 144.799 124.898C145.299 124.098 145.899 123.298 146.499 122.498C146.999 121.698 147.499 120.798 148.199 120.098C148.899 119.298 149.899 118.898 150.499 118.098C151.099 117.398 151.999 117.398 152.699 116.998C153.399 116.498 154.299 116.098 155.199 116.198C155.799 116.198 156.399 116.198 156.999 116.098C157.299 115.998 157.599 115.598 157.999 115.598C158.399 115.598 158.799 115.798 158.999 115.098C158.999 115.098 159.199 115.098 159.299 115.198C159.699 115.598 160.199 115.498 160.499 115.198C160.799 114.898 161.099 114.898 161.399 114.898C162.199 114.898 163.099 114.898 163.899 114.898C164.499 114.898 165.099 115.298 165.699 115.398C166.299 115.498 167.099 115.398 167.599 115.798C168.099 116.198 168.699 116.298 169.299 116.498C169.599 116.498 169.899 116.998 170.399 116.498H170.599C171.199 117.598 172.499 116.998 173.299 117.798C174.099 118.498 174.999 119.098 175.799 119.698C175.999 119.898 176.099 120.198 176.599 120.098C176.799 120.098 176.999 120.198 176.999 120.398C176.999 121.398 177.899 121.698 178.299 122.298C178.699 122.998 179.499 123.498 179.599 124.398C179.599 124.798 179.799 125.198 180.599 125.198C180.899 125.198 180.999 125.698 181.199 125.898C181.399 126.098 181.699 126.098 181.899 126.298C181.999 126.498 181.899 126.798 181.999 126.998C181.999 126.998 181.999 127.098 182.099 127.198C183.399 127.798 183.299 129.298 184.199 130.198C184.999 131.098 185.599 132.298 186.199 133.398C186.499 133.998 186.599 134.798 185.799 135.698C185.399 136.098 184.899 136.298 184.499 136.198C184.199 136.198 183.899 135.998 183.699 135.798C183.499 135.498 183.199 135.298 182.899 134.998C182.399 134.498 181.599 134.098 181.399 133.298C181.399 133.098 180.899 132.998 181.299 132.598V132.398C180.099 131.998 179.899 130.898 179.199 130.098C178.599 129.398 177.599 129.098 177.299 128.298C176.499 128.298 176.199 127.798 176.099 127.298C175.499 125.498 174.099 124.498 172.999 123.398C171.899 122.198 170.599 121.498 169.199 120.898C168.999 120.798 168.599 121.098 168.399 120.698C168.199 120.398 167.799 120.398 167.399 120.398C167.099 120.398 166.699 120.398 166.499 120.198C165.399 119.298 163.999 119.598 162.699 119.498C161.399 119.498 159.999 119.498 158.699 119.798C157.899 119.998 157.199 120.498 156.499 120.598C156.199 120.598 155.999 120.998 155.499 120.598C155.399 120.498 155.199 120.998 155.099 121.098C154.699 121.298 154.199 121.498 153.799 121.798C153.499 121.998 153.199 122.098 152.899 122.298C152.599 122.498 152.299 122.698 152.099 122.998C151.799 123.298 151.599 123.798 151.399 124.098C151.099 124.398 150.799 124.798 150.499 125.098C150.099 125.498 149.499 125.798 149.099 126.298C148.699 126.798 148.499 127.498 147.899 127.898C146.799 128.598 146.399 129.798 145.699 130.798C144.999 131.798 144.299 132.798 143.599 133.898C143.199 134.498 142.399 134.798 141.999 135.298C141.799 135.598 140.399 134.898 140.099 134.498C140.099 134.498 139.999 134.298 140.099 134.298C140.099 133.498 139.899 132.598 140.399 132.098C141.099 131.298 141.599 130.398 142.199 129.398L141.999 129.098Z" fill="black"/>
<path d="M203.1 181.6C205.3 177.2 206.8 172.5 207.7 167.6C208.1 165.8 208.5 163.9 208.2 162C208 161 208.8 159.3 208.8 157.6C208.8 153 208.6 148.3 207.8 143.8C207 139.4 205.6 135.1 203.9 130.9C202.3 126.8 200.4 122.6 197.7 119.2C195.4 116.3 193.7 113.5 191.1 111.1C188.4 108.7 185.2 106.4 182.2 104.3C180 102.8 177.7 101.3 175.2 100.4C173.6 99.8005 172.1 99.5005 170.4 98.9005C169.6 98.6005 168.8 98.3005 167.9 98.0005C167.1 97.8005 166.2 97.6005 165.4 97.7005C165.3 97.7005 164.6 97.4005 164.2 97.3005C162.5 96.5005 160.3 96.1005 158.8 96.2005C157.3 96.2005 156 96.2005 154.7 96.0005C151 95.8005 147.2 96.0005 143.5 96.3005C140.7 96.6005 137.9 96.9005 135.2 97.6005C132.3 98.3005 129.5 99.6005 126.9 100.4C124.3 101.2 121.9 102.4 119.6 103.8C118.3 104.5 116.6 105.3 116 106.6C116 106.7 115.5 107 115.2 107.2C114.2 107.7 113.3 108.2 112.4 108.9C112 109.2 111.6 109.6 111.2 109.9L110.1 111.1C109.3 111.9 108.6 112.7 107.9 113.5C107.2 114.3 106.5 115.1 105.7 115.9C102.5 119.2 99.9997 123 97.8997 127.1C97.3997 128.2 96.5997 129.3 96.5997 130.5C96.5997 130.9 96.0997 132.1 95.7997 132.6C93.9997 135.5 93.3997 139.1 92.5997 142.5C91.6997 146.4 91.6997 150.4 91.1997 154.4C91.1997 155.3 91.0997 156.3 91.1997 157.3C91.2997 158.3 91.4997 159.4 91.8997 160.4C92.2997 161.3 92.1997 163.3 92.5997 164.7C92.6997 165.3 92.8997 165.8 93.0997 166.4C93.2997 167 93.4997 167.5 93.5997 168.1C93.6997 168.6 93.7997 169.1 93.7997 169.6C93.7997 170.1 93.8997 170.6 93.9997 171.1C93.9997 171.4 94.1997 171.8 94.2997 172C95.4997 174.6 96.4997 177.3 97.6997 180L98.0997 181L98.5997 182C98.8997 182.6 99.1997 183.3 99.5997 183.9C100.3 185.1 101.1 186.4 102 187.5C105.6 192.1 109.9 196.2 114.7 199.4C117.4 201.2 120.3 202.7 122 204.6C122.8 205.5 122.6 206 121.1 205.7C120 205.5 118.8 205.3 117.7 204.8C116.8 204.4 115.9 204.1 115 203.6C114.1 203.1 113.3 202.7 112.4 202.3C108.9 200.3 105.4 198.1 102.8 194.9C101.9 193.9 100.8 192.9 100.5 191.8C100.5 191.6 100.1 191.2 99.9997 191C95.9997 187.1 93.4997 181.6 91.5997 176.4C89.8997 171.9 88.1997 167.5 87.7997 162.6C86.7997 160 86.7997 156.8 86.8997 154.1C87.2997 149.3 87.7997 144.6 88.8997 139.9C89.8997 135.2 91.3997 130.6 93.4997 126.3C95.5997 121.9 98.2997 117.8 101.5 114.1C104.6 110.4 108.2 107 112 104.1C112.7 103.6 113.2 103.1 113.9 102.6C114.5 102.1 115.2 101.6 116.1 101.2C117.8 100.4 119.7 99.1005 121.6 98.1005C123.3 97.2005 125.1 96.3005 126.9 95.7005C134.1 93.5005 141.5 91.6005 149.1 91.4005C156.6 91.2005 164.2 92.4005 171.4 94.6005C175.8 95.9005 180.1 97.5005 184.1 100C184.5 100.3 185 100.5 185.4 100.8L186.7 101.6C187.6 102.2 188.4 102.8 189 103.6C189.3 104.1 191.1 104.8 192.1 105.6C194.6 107.6 196.8 110 198.9 112.4C201.7 115.8 204.1 119.6 206.1 123.5C206.7 124.7 207.3 125.9 207.9 127.1C208.4 128.3 209.1 129.5 209.5 130.8C210 132.1 210.5 133.4 210.8 134.8L211.4 136.8C211.6 137.5 211.7 138.2 211.9 138.9C212.3 140.6 212.5 142.4 212.7 144.2C212.8 146 213.1 147.7 213.1 149.5C213.4 153.2 213.6 157 213.1 160.5C212.7 163.8 212 167 211.4 170.2C211 171.8 210.7 173.4 210.1 174.9C209.8 175.7 209.6 176.5 209.3 177.2L208.4 179.5C207.1 182.5 205.7 185.4 203.8 188.1C203 189.5 201.9 190.8 201 192.1C200.5 192.8 199.9 193.3 199.4 194C198.9 194.6 198.4 195.3 197.8 195.8C197.1 196.5 196.5 197.1 195.8 197.7C195.1 198.3 194.4 198.8 193.7 199.3C193 199.8 192.3 200.3 191.5 200.8C190.7 201.3 190 201.8 189.3 202.2C187.8 203.1 185.2 202.9 185.6 202.2C185.6 202.1 185.8 201.8 186 201.7C186.7 201.2 187.3 200.6 187.9 200.1C188.5 199.6 189.1 199 189.7 198.4C190.3 197.8 190.9 197.3 191.5 196.7C192.1 196.1 192.8 195.5 193.5 194.9C197.6 191.2 200.9 186.6 203.4 181.6H203.1Z" fill="black"/>
<path d="M132.8 126.6C132.8 125.8 132.6 125.1 132.2 124.4C132.1 124.2 132.2 123.8 131.5 123.8C131.2 123.8 131.5 123.3 131.4 123.1C130.9 122.7 130.4 122.2 129.7 121.9C129 121.6 128.3 121.6 127.6 121.6C126.9 121.6 126.1 121.2 125.5 121.6C124.9 121.9 124.3 121.6 123.7 121.8C123.1 122.1 122.5 122.3 121.8 122.4C121.3 122.4 120.7 122.4 120.3 122.7C120 122.9 119.9 123.3 119.6 123.4C119.3 123.5 118.8 123.4 118.9 124.1C118.9 124.1 118.7 124.1 118.6 124.1C118.1 123.9 117.7 124.1 117.6 124.5C117.5 124.9 117.3 125 117.1 125.1C116.5 125.5 116 125.9 115.4 126.3C115 126.6 114.4 126.7 114 127C113.5 127.3 113.3 127.9 112.8 128C112.2 128.1 111.9 128.5 111.6 128.9C111.4 129.1 111 129.2 111.4 129.7V129.8C110.3 130 110.8 131.2 110.4 131.7C110.2 132 110.1 132.2 110.1 132.4C110.1 132.6 110.1 132.6 110.2 132.9C110.2 133 110.2 133.2 110.6 133.2C110.8 133.2 110.9 133.4 110.8 133.5C110.5 134.3 111.1 134.8 111.4 135.4C111.7 136.1 112.3 136.5 112.3 137.4C112.3 137.8 112.5 138.2 113.2 138.1C113.5 138.1 113.5 138.5 113.8 138.6C114 138.7 114.3 138.6 114.5 138.8C114.6 138.9 114.5 139.2 114.7 139.4C114.7 139.4 114.7 139.5 114.8 139.5C115.4 139.5 115.7 139.9 116.1 140.2C116.4 140.6 116.8 141 117.3 141.1C118.3 141.3 119.2 141.7 120.1 141.9C120.6 142 121.1 142.2 121.6 143.3C121.8 143.8 121.9 144.4 121.6 144.7C121.4 145 121.1 145.2 120.9 145.2C120.5 145.2 120 145.4 119.6 145.4C118.7 145.4 117.7 145.8 116.9 145.2C116.7 145 116.2 145.2 116.2 144.6C116.2 144.6 116.2 144.4 116 144.5C114.6 144.7 113.7 143.6 112.7 142.9C111.9 142.3 110.7 142.1 110.2 141.1C109.3 141.1 109 140.5 108.8 139.9C108.5 138.9 108 138 107.5 137.1C107.3 136.7 107 136.2 106.8 135.8C106.6 135.4 106.4 134.9 106.2 134.3C106 133.7 105.9 132.9 105.9 132.1C105.9 131.3 106.1 130.7 106.4 130.1C106.6 129.5 106.9 129.1 107.1 128.6C107.4 128.1 107.6 127.7 107.9 127.2C108.1 126.9 107.9 126.4 108.5 126.3C108.9 126.1 109.1 125.6 109.4 125.3C109.7 125 109.9 124.6 110.3 124.4C111.9 123.8 112.8 122.5 114.2 121.7C115.5 120.9 116.9 120.2 118.1 119.4C118.9 118.9 119.6 118.2 120.6 118C121 118 121.3 117.4 121.9 117.9C122.1 118 122.3 117.5 122.6 117.4C123.2 117.2 123.9 117.1 124.6 117C125.6 116.9 126.6 116.8 127.6 116.8C128.2 116.8 128.8 116.6 129.5 116.7C130.2 116.7 130.8 117 131.4 117.3C132.2 117.7 132.9 118.3 133.5 118.8C134.2 119.3 135.1 119.9 135.4 120.7C135.9 122.3 136.8 123.5 137 125.1C137.2 126.6 137.1 128.1 136.8 129.6C136.6 130.5 135.8 131 135.4 131.7C135.2 132.1 133.7 131.5 133.4 131.1L133.3 130.9C133.3 130.1 132.8 129.4 133.1 128.9C133.4 128.1 133.5 127.2 133.4 126.3L132.8 126.6Z" fill="black"/>
</svg>
