<svg width="300" height="300" viewBox="0 0 300 300" fill="none" xmlns="http://www.w3.org/2000/svg">
<path d="M148.9 148.699C148.5 148.299 148.1 147.999 147.6 147.699C147.4 147.699 147.4 147.299 147 147.699C146.8 147.899 147 147.199 146.8 147.199C146.4 147.099 145.9 146.799 145.4 146.699C144.9 146.699 144.4 146.699 143.9 146.699C143.4 146.699 142.9 146.299 142.4 146.599C142 146.799 141.6 146.299 141.2 146.399C140.7 146.499 140.3 146.599 139.8 146.399C139.5 146.199 139.2 145.999 138.8 146.099C138.6 146.099 138.4 146.499 138.2 146.499C138 146.499 137.8 146.199 137.6 146.799C137.6 146.799 137.5 146.799 137.4 146.699C137.2 146.299 136.9 146.299 136.7 146.699C136.5 146.999 136.4 146.899 136.2 146.999C135.7 146.999 135.3 146.999 134.8 146.999C134.5 146.999 134.1 146.799 133.7 146.699C133.3 146.699 133 146.999 132.6 146.699C132.2 146.399 131.9 146.499 131.6 146.499C131.4 146.499 131.2 146.199 131.1 146.899C131.1 146.899 131.1 146.899 131 146.899C130.4 146.099 130 147.199 129.4 147.099C128.8 146.899 128.3 147.099 127.7 147.199C127.5 147.199 127.4 147.099 127.3 147.499C127.3 147.699 127.1 147.699 127 147.499C126.5 146.899 126.1 147.399 125.7 147.299C125.2 147.299 124.7 147.599 124.2 147.199C124 146.999 123.7 146.999 123.5 147.599C123.5 147.899 123.1 147.599 123 147.699C122.9 147.699 122.8 148.099 122.6 148.099C122.5 148.099 122.3 147.899 122.2 147.799C122.2 147.799 122.2 147.799 122.1 147.799C121.5 148.599 120.6 147.799 120 148.099C119.3 148.399 118.6 148.499 117.8 148.499C117.4 148.499 117 148.499 116.4 147.399C116.2 146.899 116 146.399 116.2 145.999C116.2 145.699 116.4 145.499 116.5 145.399C116.7 145.199 116.9 145.099 117.1 144.899C117.5 144.599 117.9 143.999 118.5 144.199C118.7 144.199 118.8 143.899 119 144.399C119 144.399 119 144.399 119.1 144.399C119.6 143.499 120.4 143.899 121.1 143.699C121.7 143.599 122.1 142.799 122.7 142.999C122.9 142.299 123.3 142.399 123.7 142.499C124.9 142.999 126 142.499 127.2 142.399C128.4 142.399 129.5 142.199 130.7 142.099C130.9 142.099 131 141.699 131.3 141.999C131.5 142.199 131.8 141.999 132.1 141.999C132.3 141.999 132.6 141.799 132.8 141.999C133.8 142.599 134.6 142.199 135.6 142.199C136.5 142.199 137.4 142.199 138.3 142.199C138.9 142.099 139.4 141.799 140 141.899C140.2 141.899 140.5 141.599 140.7 142.199C140.7 142.399 141 141.899 141.2 141.899C141.6 141.899 142 141.899 142.4 141.899C143 141.899 143.5 141.999 144.1 142.099C144.5 142.099 144.8 141.899 145.2 141.899C145.6 141.899 146 141.999 146.3 142.199C146.8 142.399 147.2 142.799 147.6 142.999C148.1 143.199 148.7 143.199 149 143.699C149.6 144.599 150.4 144.899 151.1 145.499C151.7 146.099 152.3 146.699 152.9 147.199C153.3 147.499 153.2 148.099 153.5 148.399C153.6 148.499 152.7 149.699 152.3 149.999C152.3 149.999 152.1 149.999 152.1 150.099C151.5 150.099 150.7 150.299 150.4 149.999C150 149.499 149.5 148.999 149 148.599L148.9 148.699Z" fill="black"/>
<path d="M103.7 155.897C103.4 156.797 103.1 157.897 103 158.997C103 159.397 102.6 159.797 103.1 160.397C103.3 160.697 102.6 160.997 102.6 161.397C102.6 162.497 102.2 163.697 101.9 164.897C101.6 165.997 101.6 166.997 101.4 168.097C101.2 169.097 100.6 170.097 100.7 171.097C100.7 171.997 100.1 172.697 100.1 173.497C100.1 174.397 99.8999 175.297 99.5999 176.097C99.2999 176.697 98.9999 177.297 99.0999 177.897C99.0999 178.297 99.3999 178.697 99.2999 179.097C99.2999 179.497 98.8999 179.897 99.4999 180.297C99.4999 180.297 99.4999 180.497 99.2999 180.597C98.8999 180.997 98.8999 181.497 99.0999 181.897C99.3999 182.297 99.2999 182.497 99.2999 182.897C99.2999 183.797 99.2999 184.597 99.2999 185.497C99.2999 186.097 98.9999 186.797 98.9999 187.397C98.9999 188.097 99.3999 188.797 99.0999 189.397C98.9999 189.697 98.8999 189.997 98.8999 190.397C98.8999 190.697 98.8999 190.997 98.9999 191.297C98.9999 191.597 98.8999 192.097 99.4999 192.297C99.4999 192.297 99.4999 192.397 99.4999 192.497C98.7999 193.697 100.2 194.397 100.3 195.397C100.3 196.497 100.9 197.397 101.2 198.497C101.2 198.797 101.2 199.097 101.8 199.197C102 199.197 102.1 199.497 102.1 199.697C101.8 200.697 102.4 201.297 102.7 202.097C103 202.997 103.6 203.797 103.5 204.897C103.5 205.397 103.5 205.897 104.3 206.197C104.6 206.297 104.6 206.797 104.8 207.197C105 207.497 105.3 207.597 105.4 207.897C105.4 208.097 105.4 208.397 105.4 208.697V208.897C106.6 209.997 106.2 211.697 106.9 212.997C107.2 213.697 107.4 214.397 107.6 215.097L107.9 216.197L108.1 217.297C108.2 218.097 108.2 218.997 107.2 219.697C106.7 219.997 106.2 220.097 105.8 219.897C105.5 219.697 105.2 219.497 105.1 219.197C104.9 218.797 104.7 218.397 104.5 217.997C104.1 217.197 103.4 216.497 103.4 215.497C103.4 215.197 103 214.997 103.4 214.597V214.397C102.3 213.497 102.3 212.097 101.8 210.997C101.4 209.997 100.4 209.297 100.2 208.197C99.3999 207.897 99.1999 207.197 99.1999 206.597C99.0999 205.497 98.6999 204.397 98.2999 203.397C97.8999 202.397 97.3999 201.397 97.0999 200.297C96.7999 199.197 96.3999 198.097 96.0999 196.997C95.7999 195.897 95.3999 194.797 95.2999 193.697C95.2999 193.297 94.7999 193.097 94.9999 192.497C95.1999 191.997 94.8999 191.497 94.7999 190.997C94.7999 190.497 94.5999 190.097 94.6999 189.597C94.8999 188.697 94.8999 187.797 94.7999 186.897C94.7999 185.997 94.6999 185.097 94.6999 184.197C94.6999 183.297 94.7999 182.397 94.8999 181.497C94.8999 180.597 94.8999 179.697 94.8999 178.797C94.8999 177.697 94.7999 176.597 94.9999 175.597C95.0999 175.197 94.7999 174.597 95.4999 174.297C95.6999 174.297 95.2999 173.697 95.3999 173.397C95.4999 172.697 95.6999 171.997 95.7999 171.197L96.0999 169.697C96.1999 169.197 96.3999 168.697 96.4999 168.197C96.5999 167.597 96.4999 166.897 96.6999 166.297C96.7999 165.697 96.9999 164.997 97.1999 164.397C97.1999 164.197 97.3999 163.997 97.3999 163.797L97.5999 163.297C97.7999 162.997 97.8999 162.697 97.9999 162.297C98.1999 161.597 97.9999 160.697 98.3999 159.997C99.0999 158.597 98.9999 156.997 99.4999 155.397C99.9999 153.797 100.8 152.197 101.9 150.797C102.5 149.997 103.5 149.797 104.2 149.297C104.6 148.997 105.8 149.997 105.9 150.497C105.9 150.497 105.9 150.697 105.9 150.797C105.5 151.597 105.5 152.597 104.9 152.997C104.1 153.697 103.6 154.597 103.2 155.697L103.7 155.897Z" fill="black"/>
<path d="M126.4 173.101C126.4 172.901 126.4 172.701 126.4 172.601C126.4 172.601 126.6 172.501 126.1 172.401C125.8 172.401 126.5 172.301 126.4 172.201C126.4 172.001 126.4 171.901 126.4 171.701C126.4 171.501 126.1 171.401 126.1 171.201C126.1 171.001 126.4 170.901 126.1 170.701C125.8 170.501 126.3 170.501 126.2 170.301C126.1 170.201 126 170.001 126.2 169.901C126.4 169.901 126.6 169.701 126.5 169.601C126.5 169.601 126.1 169.401 126.2 169.401C126.2 169.401 126.5 169.401 125.9 169.201C125.9 169.201 125.9 169.201 126.1 169.201C126.5 169.201 126.5 169.201 126.2 169.001C125.9 169.001 126 168.901 126 168.801C126 168.701 126 168.501 126 168.401C126 168.401 126.3 168.201 126.4 168.201C126.4 168.201 126.2 167.901 126.5 167.901C126.8 167.901 126.8 167.801 126.8 167.701C126.8 167.701 127.1 167.701 126.5 167.501C127.3 167.501 126.3 167.101 126.5 167.001C126.7 166.901 126.6 166.701 126.7 166.501C126.7 166.501 126.9 166.501 126.5 166.301C126.3 166.201 126.3 166.301 126.5 166.301C127.1 166.301 126.8 166.101 126.9 166.001C127.1 165.901 126.9 165.701 127.3 165.701C127.5 165.701 127.6 165.701 127.1 165.401C126.9 165.301 127.1 165.401 127.1 165.201L126.8 165.001C126.8 165.001 127 165.001 127.2 165.001C126.6 164.601 127.6 164.701 127.5 164.401C127.5 164.101 127.5 164.001 127.7 163.801C127.7 163.801 128 163.701 129.1 164.001C129.6 164.201 130.1 164.401 130.4 164.601C130.6 164.701 130.8 164.801 130.8 164.901C130.8 164.901 131 165.101 131 165.201C131.1 165.401 131.6 165.701 131.3 165.701C131.3 165.701 131.5 165.901 131 165.701C131.7 166.101 131.1 166.101 131.1 166.301C131.1 166.401 131.7 166.801 131.4 166.801C132 167.101 131.8 167.101 131.6 167.101C130.9 167.101 131.2 167.501 131.1 167.801C130.9 168.001 131 168.301 130.9 168.601C130.9 168.601 131.2 168.801 130.9 168.801C130.6 168.801 130.9 168.901 130.9 169.001C130.9 169.001 131 169.101 130.9 169.201C130.2 169.201 130.6 169.601 130.5 169.801C130.5 170.001 130.3 170.201 130.5 170.401C130.5 170.501 130.9 170.701 130.8 170.801C130.8 170.801 131.1 170.901 130.5 170.901C130.3 170.901 130.8 170.901 130.8 171.001C130.8 171.001 130.8 171.201 130.8 171.301C130.8 171.401 130.8 171.501 130.8 171.701L131.1 171.901V172.101C131.1 172.101 130.8 172.301 130.7 172.401C130.7 172.501 130.9 172.601 130.7 172.701C130.2 172.901 130.4 173.101 130.4 173.301C130.4 173.501 130.4 173.701 130.4 173.801C130.4 173.801 130 174.001 130 174.101C130 174.101 128.5 174.301 128 174.401H127.8C127.3 174.401 126.6 174.301 126.6 174.101C126.6 173.901 126.6 173.701 126.6 173.501L126.4 173.101Z" fill="black"/>
<path d="M144.699 173.902C144.699 173.702 144.699 173.502 144.699 173.402C144.699 173.402 144.899 173.302 144.399 173.202C144.099 173.202 144.799 173.102 144.699 173.002C144.699 172.802 144.699 172.702 144.699 172.502C144.699 172.302 144.399 172.202 144.399 172.002C144.399 171.802 144.699 171.702 144.399 171.502C144.099 171.302 144.599 171.302 144.499 171.102C144.399 171.002 144.299 170.802 144.499 170.702C144.699 170.702 144.899 170.502 144.799 170.402C144.799 170.402 144.399 170.202 144.499 170.202C144.499 170.202 144.799 170.202 144.199 170.002C144.199 170.002 144.199 170.002 144.399 170.002C144.799 170.002 144.799 170.002 144.499 169.802C144.199 169.802 144.299 169.702 144.299 169.602C144.299 169.502 144.299 169.302 144.299 169.202C144.299 169.202 144.599 169.002 144.699 169.002C144.699 169.002 144.499 168.702 144.799 168.702C145.099 168.702 145.099 168.602 145.099 168.502C145.099 168.502 145.399 168.502 144.799 168.302C145.599 168.302 144.599 167.902 144.799 167.802C144.999 167.702 144.899 167.502 144.999 167.302C144.999 167.302 145.199 167.302 144.799 167.102C144.599 167.002 144.599 167.102 144.799 167.102C145.399 167.102 145.099 166.902 145.199 166.802C145.399 166.702 145.199 166.502 145.599 166.502C145.799 166.502 145.899 166.502 145.399 166.202C145.199 166.102 145.399 166.202 145.399 166.002L145.099 165.802C145.099 165.802 145.299 165.802 145.499 165.802C144.899 165.402 145.899 165.502 145.799 165.202C145.799 164.902 145.799 164.802 145.999 164.602C145.999 164.602 146.299 164.502 147.399 164.802C147.899 165.002 148.399 165.202 148.699 165.402C148.899 165.502 149.099 165.602 149.099 165.702C149.099 165.702 149.299 165.902 149.299 166.002C149.399 166.202 149.899 166.502 149.599 166.502C149.599 166.502 149.799 166.702 149.299 166.502C149.999 166.902 149.399 166.902 149.399 167.102C149.399 167.202 149.999 167.602 149.699 167.602C150.299 167.902 150.099 167.902 149.899 167.902C149.199 167.902 149.499 168.302 149.399 168.602C149.199 168.802 149.299 169.102 149.199 169.402C149.199 169.402 149.499 169.602 149.199 169.602C148.899 169.602 149.199 169.702 149.199 169.802C149.199 169.802 149.299 169.902 149.199 170.002C148.499 170.002 148.899 170.402 148.799 170.602C148.799 170.802 148.599 171.002 148.799 171.202C148.799 171.302 149.199 171.502 149.099 171.602C149.099 171.602 149.399 171.702 148.799 171.702C148.599 171.702 149.099 171.702 149.099 171.802C149.099 171.802 149.099 172.002 149.099 172.102C149.099 172.202 149.099 172.302 149.099 172.502L149.399 172.702V172.902C149.399 172.902 149.099 173.102 148.999 173.202C148.999 173.302 149.199 173.402 148.999 173.502C148.499 173.702 148.699 173.902 148.699 174.102C148.699 174.302 148.699 174.502 148.699 174.602C148.699 174.602 148.299 174.802 148.299 174.902C148.299 174.902 146.799 175.102 146.299 175.202H146.099C145.599 175.202 144.899 175.102 144.899 174.902C144.899 174.702 144.899 174.502 144.899 174.302L144.699 173.902Z" fill="black"/>
<path d="M126.2 104.699C128.7 103.199 131.1 101.599 133.4 99.8992C134.2 99.2992 135.3 98.7992 135.8 97.6992C136.1 97.1992 137.2 96.9992 138 96.2992C139.9 94.4992 141.8 92.6992 143.3 90.5992C144.8 88.5992 145.8 86.2992 146.7 84.0992C147.1 82.9992 147.6 81.7992 147.9 80.6992C148.1 80.0992 148.2 79.4992 148.2 78.9992C148.2 78.4992 148.2 77.9992 148.1 77.7992C147.9 77.3992 147.8 77.1992 147.4 76.8992C147 76.5992 146.3 76.1992 145.5 76.1992C144.6 76.1992 143.7 76.1992 142.7 76.3992C141.6 76.4992 140.6 76.6992 139.5 76.7992C138 76.8992 136.4 77.0992 135 77.5992C134.1 77.8992 133.3 78.4992 132.4 78.7992C131.5 79.0992 130.3 79.1992 129.8 80.0992C129.8 80.0992 129.3 80.1992 129.1 80.1992C128 80.1992 126.8 80.6992 126.1 81.2992C125.4 81.8992 124.7 82.1992 124 82.4992C122 83.3992 120.1 84.3992 118.1 85.3992C116.6 86.0992 115.1 86.6992 113.7 87.4992C112.2 88.2992 110.9 89.5992 109.5 90.1992C108.1 90.8992 106.9 91.7992 105.7 92.7992C105 93.3992 104.1 93.7992 104 94.7992C104 94.7992 103.8 95.0992 103.6 95.1992C102.4 95.6992 101.6 96.6992 100.9 97.6992C100.2 98.6992 99.7996 99.6992 99.1996 100.499C98.0996 102.199 98.2996 104.599 98.6996 107.199C98.6996 107.899 98.6996 108.599 99.2996 109.199C99.4996 109.399 99.5996 110.099 99.5996 110.499C99.3996 112.499 100.2 114.499 100.7 116.399C101.2 118.699 102.2 120.799 102.4 123.199C102.4 124.199 102.8 125.599 103.7 126.499C104.1 126.999 104.2 128.099 104.5 128.899C104.8 129.599 105.2 130.099 105.4 130.799C105.6 131.399 105.5 131.999 105.6 132.599C105.6 132.799 105.6 132.999 105.8 133.199C107.4 136.299 107.6 139.799 108.8 143.099C110 146.399 110.9 149.799 111.9 153.099C112.4 154.999 112.8 156.899 112.1 158.499C111.8 159.199 111.3 159.399 110.7 158.699C110.3 158.199 109.9 157.599 109.6 156.999C109.2 155.999 108.7 154.999 108.3 153.999C107.5 151.899 106.3 149.999 105.9 147.699C105.8 146.999 105.2 146.299 105.6 145.599C105.6 145.599 105.6 145.199 105.6 145.099C103.9 142.399 103.5 139.199 102.5 136.199C101.7 133.699 100.3 131.399 99.7996 128.699C98.7996 127.499 98.3996 125.799 98.0996 124.299C97.1996 119.099 95.1996 114.099 94.3996 108.599C94.1996 107.199 94.0996 105.799 94.0996 104.299C94.0996 102.799 94.2996 101.099 94.8996 99.5992C95.4996 97.9992 96.3996 96.6992 97.2996 95.5992C98.1996 94.3992 99.1996 93.4992 100.2 92.4992C100.9 91.7992 101.2 90.9992 102.3 90.4992C103.2 89.9992 104.1 88.9992 105.1 88.1992C106 87.4992 106.8 86.6992 107.8 86.1992C111.7 84.2992 115.2 81.7992 119.1 79.8992C123 78.0992 126.9 76.4992 130.9 74.8992C133.3 73.9992 135.8 72.8992 138.4 72.4992C139.5 72.2992 140.7 71.7992 141.9 72.1992C142.1 72.1992 142.4 72.1992 142.8 71.9992C143.2 71.8992 143.7 71.6992 144.1 71.6992C145.1 71.6992 146.1 71.6992 147.2 71.8992C148.3 72.0992 149.4 72.4992 150.5 73.2992C151.2 73.7992 151.9 74.5992 152.3 75.4992C152.7 76.3992 152.9 77.3992 152.9 78.1992C152.9 78.9992 152.8 79.7992 152.7 80.3992C152.6 81.0992 152.4 81.6992 152.3 82.3992C151.9 83.9992 151.6 85.5992 151 87.0992C150.3 88.6992 149.5 90.1992 148.5 91.4992C147.3 93.1992 145.8 94.6992 144.3 96.1992C142.8 97.6992 141.3 99.3992 139.6 100.499C136.4 102.499 133.5 104.799 130.4 106.699C127.3 108.599 124.2 110.499 121 112.299C119.2 113.399 117.3 113.799 115.4 114.599C114.5 114.999 112.8 114.099 112.9 113.499C112.9 113.399 113 113.199 113.2 113.099C114.8 111.899 116 110.499 118 109.499C120.9 107.999 123.7 106.299 126.5 104.599L126.2 104.699Z" fill="black"/>
<path d="M113.599 146.702C113.599 146.102 113.699 145.402 113.599 144.802C113.599 144.602 113.899 144.302 113.299 144.002C112.999 143.902 113.699 143.702 113.699 143.402C113.699 142.802 113.699 142.202 113.699 141.602C113.699 141.002 113.499 140.402 113.499 139.802C113.499 139.202 113.799 138.602 113.499 138.102C113.199 137.602 113.799 137.202 113.699 136.702C113.699 136.202 113.599 135.702 113.799 135.202C113.999 134.902 114.199 134.502 114.099 134.202C114.099 134.002 113.699 133.802 113.799 133.502C113.799 133.302 114.099 133.002 113.499 132.802C113.499 132.802 113.499 132.702 113.699 132.602C114.099 132.402 114.099 132.102 113.799 131.902C113.499 131.702 113.599 131.502 113.599 131.302C113.599 130.802 113.599 130.302 113.599 129.802C113.599 129.402 113.899 129.102 113.999 128.702C113.999 128.302 113.799 127.902 114.099 127.602C114.399 127.302 114.399 126.902 114.399 126.602C114.399 126.402 114.699 126.202 114.099 126.002C114.099 126.002 114.099 126.002 114.099 125.902C114.999 125.402 113.899 124.802 114.099 124.202C114.299 123.602 114.199 123.002 114.199 122.402C114.199 122.202 114.399 122.102 113.899 121.902C113.699 121.902 113.699 121.702 113.899 121.602C114.599 121.202 114.199 120.702 114.299 120.302C114.499 119.802 114.199 119.302 114.699 118.802C114.899 118.602 114.999 118.302 114.499 118.002C114.199 117.902 114.499 117.602 114.499 117.402C114.499 117.202 114.199 117.102 114.199 116.902C114.199 116.802 114.399 116.602 114.599 116.502C114.599 116.502 114.599 116.502 114.599 116.402C113.999 115.602 114.899 114.902 114.799 114.102C114.699 113.302 114.799 112.602 114.899 111.802C114.899 111.402 115.199 111.002 116.299 110.702C116.799 110.602 117.399 110.702 117.699 110.802C117.899 110.902 118.199 111.102 118.199 111.302C118.199 111.502 118.399 111.802 118.499 112.002C118.699 112.502 119.199 113.002 118.899 113.502C118.899 113.702 119.099 113.902 118.599 114.002C118.599 114.002 118.499 114.002 118.599 114.102C119.399 114.802 118.799 115.502 118.799 116.202C118.799 116.802 119.399 117.402 119.099 118.002C119.699 118.402 119.599 118.702 119.399 119.102C118.699 120.202 118.999 121.402 118.899 122.602C118.699 123.802 118.799 125.002 118.699 126.102C118.699 126.302 118.999 126.502 118.699 126.702C118.399 126.902 118.699 127.202 118.699 127.502C118.699 127.702 118.799 128.002 118.699 128.202C117.999 129.102 118.299 130.002 118.199 131.002C118.099 131.902 117.999 132.802 118.099 133.802C118.099 134.402 118.499 134.902 118.299 135.502C118.299 135.702 118.599 136.002 117.999 136.202C117.799 136.202 118.299 136.502 118.299 136.702C118.299 137.102 118.299 137.502 118.299 137.902C118.299 138.402 118.199 139.002 118.299 139.502C118.299 139.802 118.499 140.202 118.599 140.502C118.599 140.802 118.599 141.202 118.599 141.502C118.599 141.902 118.299 142.302 118.199 142.802C118.199 143.202 118.399 143.702 118.099 144.102C117.499 144.902 117.799 145.702 117.699 146.502C117.599 147.302 117.499 148.102 117.599 148.902C117.599 149.402 117.099 149.702 117.099 150.202C117.099 150.402 115.599 150.602 115.099 150.502H114.899C114.499 150.002 113.799 149.602 113.799 149.102C113.899 148.402 113.899 147.602 113.899 146.902L113.599 146.702Z" fill="black"/>
<path d="M156 133.3C158.4 131.5 160.9 129.8 163.2 128C164.1 127.3 165.2 126.9 165.8 125.7C166.1 125.1 167.3 125 168.2 124.4C170.4 122.7 172.7 121 174.8 119.3C176.9 117.6 178.8 115.7 180.8 113.9C182.8 112.1 185 110.5 186.6 108.5C188 106.8 189.7 105.7 191 104C191.7 103.1 192.4 102.2 193.1 101.4C193.8 100.5 194.5 99.7 195.3 98.9C195.8 98.3 196.4 97.7 196.9 97.1C197.4 96.5 197.8 95.8 198.2 95.2C198.7 94.4 198.9 93.4 199.4 92.5C199.9 91.7 200.7 90.8 200.4 89.8C200.4 89.8 200.6 89.4 200.8 89.3C201.5 88.6 201.8 87.5 201.5 86.8C201.3 86.2 201.2 85.7 201.1 85.3C201 85 200.9 84.8 200.7 84.7C200.6 84.6 200.6 84.6 200.4 84.5C200.2 84.5 199.9 84.4 199.4 84.4C198.9 84.4 198.4 84.4 197.9 84.4C196.4 84.4 194.8 84.4 193.2 84.8C191.6 85.2 190 86 188.4 86.4C186.8 86.7 185.4 87.5 184.1 88.2C183.3 88.6 182.2 88.9 181.9 89.8C181.9 89.8 181.6 90.1 181.4 90.1C178.8 90.7 177.2 93.1 175 94.4C173.9 95.1 172.7 95.9 171.7 96.8C170.6 97.7 169.6 98.6 168.6 99.5C168.1 100 167.3 100.3 167.1 101.1C167.1 101.4 166.5 101.9 166.1 102.1C164.2 103 162.9 104.8 161.4 106.2C160.5 107 159.7 107.9 158.9 108.8C158.1 109.7 157.3 110.5 156.3 111.3C155.5 111.9 154.5 112.9 154.2 114.3C154.1 114.9 153.1 115.7 152.6 116.4C152.2 117 152 117.7 151.6 118.3C151.2 118.8 150.7 119.1 150.2 119.6C150.1 119.7 149.9 119.9 149.8 120.1C148.3 123.3 145.6 125.6 143.9 128.7C142.2 131.8 140.1 134.8 138.7 137.8C137.9 139.5 137.3 141.1 136 142.2C135.4 142.7 134.9 142.7 134.6 141.8C134.5 141.1 134.4 140.3 134.6 139.6C134.8 138.4 135.1 137.3 135.5 136.2C136.3 133.9 137.1 131.6 138.5 129.7C139 129.1 139.2 128.2 139.9 127.9C140 127.9 140.2 127.6 140.2 127.5C141.2 124.4 143.5 121.9 145.4 119.2C147 116.9 148.1 114.4 150.1 112.4C150.6 110.8 151.8 109.5 153 108.4C157.1 104.7 160.6 100.4 164.9 96.8C169.2 93.2 173.6 89.7 178.5 86.8C179.3 86.3 179.8 85.5 181 85.2C182 84.9 183.2 84.1 184.3 83.5C185.3 83 186.4 82.4 187.5 82.1C189.7 81.6 191.9 80.9 194.2 80.5C195.3 80.3 196.5 80.1 197.7 80C198.3 80 198.9 80 199.5 80C200.1 80 200.8 80 201.6 80.3C202.4 80.5 203.2 81 203.8 81.5C204.4 82.1 204.8 82.7 205.1 83.4C205.7 84.8 205.8 86.2 205.7 87.5C205.4 90.1 204.3 92.3 203.3 94.2C202 96.6 200.9 99 199.1 101.1C198.4 102 197.9 103.2 196.7 103.7C196.4 103.9 196 105 195.6 105.5C195 106.2 194.4 106.9 193.8 107.6C193.2 108.3 192.6 109 191.9 109.6C190.1 111.5 188.3 113.2 186.4 114.9C185.3 116 184.3 117.2 183.2 118.2C182 119.3 180.8 120.3 179.5 121.3C177.9 122.5 176.1 123.6 174.5 124.8C172.8 126 171.2 127.6 169.4 128.6C166.1 130.4 163.2 132.8 160.2 135C157.2 137.1 154.2 139.3 151.3 141.6C149.6 142.9 147.8 143.6 146.2 144.8C145.4 145.4 143.5 144.9 143.6 144.3C143.6 144.2 143.6 144 143.8 143.9C145.1 142.3 146.2 140.7 148.1 139.3C150.9 137.3 153.6 135.3 156.3 133.3H156Z" fill="black"/>
<path d="M153.099 215.701C153.599 214.601 154.099 213.501 154.399 212.301C154.499 211.901 154.899 211.501 154.599 210.901C154.399 210.601 155.199 210.401 155.299 210.001C155.599 208.901 156.099 207.901 156.399 206.801C156.699 205.801 156.799 204.601 157.099 203.601C157.399 202.601 157.999 201.601 157.999 200.501C157.999 199.601 158.699 198.901 158.799 198.101C158.799 197.201 158.999 196.301 159.499 195.501C159.799 194.901 160.199 194.301 160.199 193.701C160.199 193.301 159.899 192.901 159.999 192.401C159.999 192.001 160.399 191.601 159.899 191.201C159.899 191.201 159.899 191.001 160.099 190.901C160.599 190.501 160.599 190.001 160.399 189.601C160.199 189.201 160.299 188.901 160.299 188.601C160.299 187.701 160.299 186.801 160.499 185.901C160.599 185.201 160.899 184.601 160.899 183.901C160.899 183.201 160.699 182.501 160.899 181.801C160.999 181.501 161.099 181.201 161.099 180.801C161.099 180.501 161.099 180.201 161.099 179.901C161.099 179.501 161.299 179.101 160.599 178.901V178.701C160.899 178.101 160.899 177.601 160.599 177.201C160.399 176.701 159.999 176.301 159.999 175.801C159.999 175.301 159.999 174.701 159.799 174.201L159.299 172.601C159.299 172.301 159.299 172.001 158.799 171.801C158.599 171.801 158.499 171.501 158.599 171.301C158.899 170.301 158.299 169.601 158.099 168.801C157.899 167.901 157.299 167.001 157.399 165.901C157.399 165.401 157.399 164.901 156.599 164.601C156.299 164.501 156.399 163.901 156.199 163.601C155.999 163.301 155.699 163.201 155.599 162.901C155.599 162.701 155.599 162.301 155.599 162.101V161.901C154.499 160.701 154.799 159.101 154.299 157.701C153.699 156.301 153.399 154.801 153.199 153.301C153.099 152.501 153.099 151.601 154.099 150.801C154.599 150.501 155.099 150.401 155.499 150.701C155.799 150.901 156.099 151.101 156.199 151.401C156.399 151.801 156.599 152.201 156.799 152.601C156.999 153.001 157.199 153.401 157.499 153.801C157.699 154.201 157.899 154.601 157.899 155.101C157.899 155.401 158.299 155.701 157.899 156.001V156.201C158.999 157.201 158.899 158.601 159.399 159.801C159.799 160.801 160.799 161.601 160.899 162.701C161.699 163.001 161.799 163.801 161.899 164.401C161.999 166.701 163.299 168.701 163.799 170.901C164.099 172.001 164.399 173.101 164.599 174.301C164.799 175.501 165.099 176.601 165.199 177.801C165.199 178.201 165.599 178.501 165.399 179.001C165.199 179.501 165.399 180.001 165.499 180.501C165.499 181.001 165.599 181.501 165.499 181.901C165.199 182.801 165.099 183.701 165.099 184.701C165.099 185.601 165.099 186.501 164.899 187.401C164.799 188.301 164.699 189.201 164.499 190.101C164.299 191.001 164.199 191.901 164.199 192.801C164.199 193.901 164.199 195.001 163.899 196.101C163.699 196.501 163.899 197.101 163.299 197.401C163.099 197.401 163.399 198.001 163.299 198.301C163.199 199.001 162.999 199.801 162.799 200.501C162.499 201.501 162.199 202.501 161.899 203.501C161.699 204.101 161.799 204.801 161.699 205.401C161.599 206.101 161.399 206.701 161.099 207.301C160.799 208.101 160.299 208.801 159.899 209.501C159.499 210.301 159.499 211.201 158.899 211.901C157.899 213.201 157.599 214.701 156.999 216.101C156.399 217.501 155.699 218.901 155.299 220.301C154.999 221.101 154.299 221.601 153.999 222.401C153.899 222.801 152.299 222.701 151.899 222.401C151.899 222.401 151.799 222.201 151.699 222.201C151.599 221.301 151.199 220.301 151.699 219.501C152.299 218.301 152.799 217.001 153.299 215.701H153.099Z" fill="black"/>
<path d="M143.5 182.899C143.4 182.899 143.2 182.899 143.1 182.899C143.1 182.899 143.1 182.699 142.9 183.199C142.9 183.499 142.9 182.799 142.8 182.899C142.7 182.899 142.6 182.899 142.4 182.899C142.3 182.899 142.2 183.199 142 183.199C141.9 183.199 141.8 182.999 141.7 183.199C141.6 183.499 141.5 182.999 141.4 183.099C141.3 183.199 141.2 183.299 141.1 183.099C141.1 182.899 141 182.699 140.9 182.799C140.9 182.799 140.9 183.199 140.8 183.199C140.8 183.199 140.8 182.899 140.7 183.499C140.7 183.499 140.7 183.499 140.7 183.399C140.7 182.999 140.7 182.999 140.6 183.299C140.6 183.599 140.6 183.499 140.5 183.499C140.5 183.499 140.3 183.499 140.2 183.499C140.2 183.499 140.1 183.199 140 183.099C140 183.099 139.8 183.299 139.8 183.099C139.8 182.799 139.7 182.799 139.6 182.799C139.6 182.799 139.6 182.499 139.5 183.099C139.5 182.299 139.3 183.399 139.2 183.099C139.1 182.899 139 183.099 138.8 183.099C138.8 183.099 138.8 182.899 138.7 183.399C138.7 183.599 138.7 183.599 138.7 183.399C138.7 182.799 138.5 183.099 138.4 182.999C138.4 182.899 138.2 183.199 138.1 182.699C138.1 182.499 138.1 182.399 137.9 182.999C137.9 183.299 137.9 182.999 137.8 182.999C137.8 182.999 137.8 183.299 137.7 183.299C137.7 183.299 137.7 183.099 137.7 182.999C137.5 183.699 137.4 182.799 137.3 182.999C137.1 183.199 137 182.999 136.8 182.999C136.8 182.999 136.6 182.799 136.6 181.599C136.6 181.099 136.6 180.499 136.6 180.199C136.6 179.999 136.6 179.699 136.7 179.699C136.7 179.699 136.8 179.499 136.9 179.399C137 179.199 137.1 178.699 137.2 178.999C137.2 178.999 137.2 178.799 137.2 179.299C137.4 178.499 137.5 178.999 137.6 178.999C137.7 178.999 137.8 178.299 138 178.599C138 177.999 138.2 178.099 138.2 178.299C138.4 178.999 138.6 178.499 138.9 178.599C139.1 178.599 139.4 178.599 139.6 178.599C139.6 178.599 139.6 178.199 139.7 178.599C139.7 178.899 139.7 178.599 139.8 178.599C139.8 178.599 139.8 178.499 139.9 178.599C140.1 179.299 140.3 178.899 140.4 178.999C140.6 178.999 140.8 179.099 140.9 178.999C141 178.999 141.1 178.599 141.2 178.699C141.2 178.699 141.3 178.399 141.3 178.999C141.3 179.199 141.3 178.699 141.3 178.699H141.5C141.6 178.699 141.7 178.699 141.8 178.699C141.8 178.699 141.9 178.399 142 178.399C142 178.399 142.1 178.399 142.2 178.399C142.2 178.399 142.4 178.699 142.4 178.799C142.4 178.799 142.6 178.599 142.7 178.799C142.8 179.299 143 179.099 143.2 179.099C143.4 179.099 143.5 179.199 143.7 179.099L143.9 179.499C143.9 179.499 143.9 180.999 143.9 181.499V181.699C143.8 182.199 143.7 182.899 143.6 182.799C143.5 182.799 143.3 182.799 143.2 182.799L143.5 182.899Z" fill="black"/>
<path d="M148.501 190.598C148.401 191.098 148.201 191.698 148.001 192.198C148.001 192.398 147.601 192.498 148.001 192.898C148.201 193.098 147.501 192.998 147.501 193.198C147.301 193.798 146.901 194.298 146.401 194.898C146.101 195.198 145.801 195.598 145.301 195.798C144.801 196.098 144.301 196.298 143.701 196.298C143.201 196.298 142.701 196.098 142.301 195.898C141.901 195.698 141.601 195.498 141.201 195.498C140.601 195.398 140.501 194.698 140.101 194.398C140.001 194.398 139.901 194.198 139.801 194.198H139.701V194.098C139.701 194.098 139.701 194.098 139.701 193.898C139.701 193.698 139.901 193.398 139.701 193.498C139.701 193.498 139.501 193.898 139.501 193.798C139.501 193.798 139.501 193.298 139.401 194.198C139.401 194.198 139.401 194.198 139.401 193.998C139.501 193.398 139.401 193.298 139.401 193.798C139.401 194.198 139.401 194.198 139.401 194.198C139.401 194.198 139.401 193.798 139.301 193.698C139.301 193.598 139.201 193.498 139.101 193.498C139.101 193.498 138.801 193.398 139.301 193.798C138.801 193.798 138.601 193.998 138.501 194.298C138.301 194.598 138.201 194.998 137.901 195.098C137.201 195.298 136.601 195.698 135.901 195.798C135.701 195.798 135.501 195.698 135.301 196.198C135.301 196.398 135.001 196.398 134.901 196.198C134.301 195.598 133.701 195.898 133.101 195.498C132.901 195.498 132.801 195.298 132.601 195.298C132.101 195.098 131.601 194.798 131.501 194.198C131.501 193.898 131.301 193.598 130.701 193.698C130.401 193.698 130.401 193.298 130.301 193.198C130.201 193.098 129.801 193.098 129.801 192.898C129.801 192.798 129.801 192.498 129.901 192.398C129.901 192.398 129.901 192.398 129.901 192.298C129.001 191.798 129.601 190.798 129.301 190.098C129.001 189.398 129.001 188.598 129.101 187.798C129.101 187.398 129.401 186.998 130.601 186.898C131.101 186.898 131.701 186.898 132.001 187.098C132.201 187.198 132.401 187.398 132.501 187.498C132.501 187.698 132.701 187.798 132.801 187.998C133.001 188.298 133.501 188.598 133.301 188.898C133.301 188.998 133.501 189.098 133.001 189.198C133.801 189.498 133.401 189.898 133.701 190.298C133.901 190.598 134.601 190.498 134.401 190.898C135.001 190.598 134.901 190.698 134.801 190.898C134.801 191.098 134.801 191.198 134.801 191.298C134.801 191.398 135.001 191.298 135.201 191.298C135.601 191.298 136.001 190.998 136.301 190.698V190.498C136.301 190.298 136.401 190.198 136.601 190.198C136.901 190.198 137.001 189.598 137.101 189.198C137.201 188.798 137.401 188.298 137.601 188.298C138.101 188.298 138.501 188.098 138.701 187.898C138.801 187.798 138.901 187.698 139.001 187.598C139.001 187.598 139.201 187.398 139.501 187.398C140.001 187.398 140.501 187.498 140.601 187.698C140.801 187.898 141.101 187.998 141.401 188.198C141.601 188.298 141.901 188.398 142.101 188.598C142.401 188.798 142.501 189.198 142.701 189.698C142.801 190.098 143.201 190.198 143.001 190.898C143.001 190.898 143.001 190.998 143.201 191.098H143.401C143.401 191.098 143.401 191.098 143.501 191.098C143.701 191.198 143.801 191.398 143.901 191.498C144.101 191.698 144.201 191.798 144.301 191.698C144.201 191.998 144.101 192.398 144.101 192.498C144.101 192.498 144.101 192.498 144.001 192.198C144.001 192.198 143.901 191.998 143.801 191.898C143.801 191.898 143.801 191.798 143.701 191.698C143.701 191.698 143.801 191.698 143.901 191.698C144.001 191.598 143.901 191.298 144.201 191.198C144.901 190.898 144.801 190.298 145.001 189.798C145.201 189.298 145.401 188.798 145.301 188.198C145.301 187.898 145.801 187.698 145.801 187.398C145.801 187.298 147.301 187.198 147.801 187.198H148.001C148.401 187.598 149.101 187.998 149.001 188.398C148.801 188.998 148.801 189.598 148.601 190.198L148.501 190.598Z" fill="black"/>
</svg>
