<svg width="300" height="300" viewBox="0 0 300 300" fill="none" xmlns="http://www.w3.org/2000/svg">
<path d="M193.9 179.6C193.6 179.3 193.3 178.9 193 178.6C192.9 178.5 193 178.2 192.4 178.4C192.1 178.5 192.4 178 192.4 177.9C192.1 177.7 191.8 177.3 191.5 177C191.2 176.8 190.7 176.6 190.4 176.4C190.1 176.2 190 175.7 189.5 175.6C189.1 175.6 189.2 175 188.9 174.9C188.6 174.8 188.3 174.6 188.2 174.2C188.2 173.9 188.2 173.6 187.9 173.5C187.7 173.5 187.4 173.5 187.3 173.5C187.3 173.4 187.3 173.1 186.7 173.5C186.7 173.5 186.7 173.5 186.7 173.3C186.9 172.9 186.7 172.8 186.4 172.9C186.1 173 186.1 172.9 186 172.9C185.7 172.7 185.5 172.5 185.2 172.2C185 172 185 171.6 184.9 171.4C184.7 171.2 184.3 171.2 184.4 170.8C184.4 170.4 184.2 170.3 184.1 170.1C184 170.1 184.1 169.7 183.6 170.1C183.9 169.2 182.8 169.7 182.7 169.3C182.5 168.9 182.1 168.7 181.8 168.4C181.8 168.4 181.8 168.1 181.4 168.4C181.3 168.4 181.2 168.4 181.2 168.3C181.4 167.6 180.9 167.7 180.8 167.4C180.6 167.1 180.2 167 180.2 166.4C180.2 166.1 180.2 165.9 179.6 166.2C179.3 166.3 179.4 166 179.3 166C179.2 166 178.9 166 178.8 166C178.8 166 178.8 165.7 178.8 165.6C177.9 165.6 178.2 164.7 177.7 164.4C177.2 164.1 176.9 163.7 176.6 163.2C176.4 162.9 176.4 162.6 177 161.7C177.3 161.3 177.7 160.9 178 160.8C178.2 160.8 178.5 160.6 178.6 160.7C178.8 160.7 179 160.7 179.2 160.8C179.6 160.9 180.2 160.8 180.2 161.2C180.2 161.3 180.5 161.2 180.2 161.6V161.7C181.1 161.5 181.1 162.2 181.4 162.5C181.7 162.8 182.4 162.5 182.5 163.1C183.1 162.8 183.2 163.1 183.2 163.4C183.2 164.4 184.2 164.7 184.7 165.3C185.2 165.9 185.9 166.4 186.4 167C186.4 167.1 186.8 167 186.8 167.2C186.8 167.5 187 167.5 187.1 167.6C187.2 167.7 187.4 167.7 187.4 168C187.4 168.9 188.2 169.1 188.6 169.6C189 170.1 189.5 170.6 190 170.9C190.4 171.1 190.9 171.1 191.1 171.5C191.1 171.7 191.5 171.5 191.3 172.1C191.3 172.3 191.6 172.1 191.7 172.1C191.9 172.3 192.1 172.5 192.3 172.7C192.6 173 192.8 173.3 193.1 173.5C193.3 173.6 193.6 173.6 193.8 173.7C194 173.8 194.2 174 194.3 174.2C194.5 174.5 194.5 174.8 194.7 175.1C194.9 175.4 195.3 175.4 195.3 175.8C195.3 176.6 195.9 176.8 196.3 177.2C196.7 177.6 197 178.1 197.5 178.4C197.8 178.6 197.6 179.1 197.8 179.4C197.9 179.5 197 180.7 196.5 181L196.3 181.1C195.8 181.1 195 181.5 194.8 181.2C194.5 180.8 194.1 180.4 193.8 180.1L193.9 179.6Z" fill="black"/>
<path d="M133.1 156.302C132.8 156.402 132.4 156.502 132.1 156.702C132 156.702 131.8 156.602 131.8 157.102C131.8 157.402 131.5 156.802 131.4 156.902C131.1 157.102 130.8 157.102 130.5 157.302C130.2 157.502 130.1 157.802 129.8 158.002C129.6 158.202 129.2 158.102 129.1 158.502C129.1 158.902 128.6 158.502 128.5 158.802C128.4 159.002 128.2 159.202 127.9 159.202C127.7 159.202 127.4 159.202 127.3 159.302C127.3 159.402 127.4 159.702 127.3 159.802C127.3 159.802 126.9 159.802 127.3 160.302C127.3 160.302 127.3 160.302 127.1 160.302C126.7 160.102 126.7 160.302 126.8 160.502C127 160.702 126.8 160.802 126.8 160.802C126.7 161.002 126.6 161.202 126.4 161.302C126.3 161.402 126 161.402 125.8 161.602C125.6 161.702 125.8 162.002 125.5 162.102C125.1 162.102 125.1 162.302 125 162.502C125 162.502 124.6 162.502 125.2 162.902C124.3 162.902 125.2 163.502 125 163.702C124.7 163.902 124.8 164.302 124.7 164.602C124.7 164.602 124.5 164.702 124.9 164.902C125.1 164.902 125 165.002 124.9 165.102C124.2 165.102 124.6 165.502 124.4 165.702C124.2 166.002 124.4 166.302 123.9 166.502C123.7 166.502 123.5 166.702 124.1 167.002C124.4 167.102 124.1 167.202 124.1 167.302C124.1 167.302 124.4 167.502 124.4 167.602C124.4 167.602 124.2 167.702 124 167.802C124.6 168.302 123.7 168.602 123.9 169.102C124.1 169.502 123.9 170.002 123.9 170.402C123.9 170.602 123.6 170.902 122.5 171.002C122 171.002 121.4 171.002 121.1 171.002C120.9 171.002 120.6 170.802 120.6 170.702C120.5 170.602 120.4 170.402 120.3 170.302C120.1 170.002 119.6 169.702 119.9 169.402C119.9 169.402 119.7 169.202 120.2 169.102C119.4 168.602 120 168.202 120 167.802C120 167.402 119.4 167.002 119.7 166.702C119.1 166.402 119.2 166.202 119.5 166.002C120.3 165.402 120 164.502 120.3 163.802C120.6 163.102 120.7 162.302 121.1 161.502C121.1 161.402 120.9 161.102 121.1 161.102C121.4 161.102 121.3 160.802 121.4 160.602C121.4 160.502 121.4 160.202 121.6 160.202C122.5 159.902 122.4 159.202 122.9 158.702C123.3 158.202 123.8 157.802 124.1 157.202C124.3 156.902 124.3 156.302 124.7 156.202C124.9 156.202 124.7 155.702 125.3 156.202C125.4 156.302 125.3 155.902 125.3 155.802C125.5 155.602 125.7 155.502 125.9 155.302C126.2 155.102 126.5 154.902 126.8 154.702C127 154.602 127 154.202 127.2 154.102C127.4 153.902 127.6 153.802 127.8 153.802C128.1 153.802 128.4 153.802 128.7 153.802C129 153.802 129.2 153.402 129.5 153.502C130.2 153.802 130.5 153.402 131 153.302C131.5 153.202 132 153.102 132.4 152.802C132.6 152.602 133 153.102 133.3 153.002C133.4 153.002 134 154.302 134.1 154.802V155.002C134 155.502 134 156.302 133.7 156.302C133.3 156.302 132.9 156.502 132.5 156.702L133.1 156.302Z" fill="black"/>
<path d="M175.601 185.603C176.001 185.403 176.301 185.303 176.701 185.003C176.801 185.003 177.101 185.003 177.001 184.503C177.001 184.203 177.401 184.703 177.501 184.703C177.801 184.503 178.201 184.403 178.501 184.203C178.801 184.003 179.001 183.603 179.301 183.403C179.601 183.203 180.101 183.403 180.301 182.903C180.501 182.503 180.901 182.903 181.101 182.603C181.301 182.403 181.601 182.203 182.001 182.303C182.301 182.303 182.601 182.503 182.701 182.303C182.701 182.203 182.701 181.803 182.901 181.803C183.001 181.803 183.301 182.003 183.201 181.303C183.201 181.303 183.201 181.303 183.401 181.303C183.701 181.603 183.901 181.503 183.901 181.303C183.901 181.003 184.001 181.003 184.101 180.903C184.401 180.803 184.701 180.603 185.001 180.603C185.201 180.603 185.501 180.603 185.801 180.603C186.001 180.603 186.201 180.203 186.501 180.403C186.801 180.603 187.001 180.503 187.201 180.403C187.301 180.403 187.601 180.603 187.401 179.903C188.001 180.603 188.001 179.403 188.401 179.503C188.801 179.503 189.101 179.303 189.501 179.203C189.501 179.203 189.801 179.303 189.701 178.803C189.701 178.603 189.701 178.603 189.901 178.703C190.401 179.203 190.501 178.703 190.801 178.703C191.101 178.703 191.401 178.303 191.801 178.703C192.001 178.903 192.201 178.903 192.201 178.303C192.201 178.003 192.401 178.303 192.501 178.103C192.501 178.103 192.501 177.703 192.701 177.703C192.701 177.703 192.901 177.903 193.001 178.003C193.301 177.203 194.001 178.003 194.401 177.603C194.801 177.303 195.301 177.203 195.801 177.203C196.101 177.203 196.401 177.203 196.901 178.303C197.101 178.803 197.301 179.303 197.201 179.703C197.201 180.003 197.201 180.203 197.101 180.303C197.001 180.403 196.901 180.603 196.801 180.703C196.601 181.003 196.401 181.603 196.101 181.403C196.001 181.403 196.001 181.703 195.701 181.203C195.501 182.103 195.001 181.703 194.601 181.903C194.301 182.103 194.101 182.803 193.701 182.603C193.701 183.303 193.501 183.203 193.201 183.103C192.301 182.703 191.801 183.303 191.101 183.503C190.401 183.603 189.801 184.003 189.101 184.203C189.001 184.203 189.101 184.603 188.801 184.403C188.601 184.203 188.501 184.403 188.301 184.503C188.201 184.503 188.101 184.703 187.901 184.603C187.101 184.203 186.801 184.803 186.201 184.903C185.701 185.003 185.101 185.203 184.701 185.603C184.401 185.803 184.301 186.303 183.901 186.303C183.701 186.303 183.701 186.703 183.401 186.203C183.301 186.103 183.401 186.503 183.301 186.603C183.101 186.703 182.901 186.803 182.701 186.903C182.401 187.003 182.101 187.103 181.801 187.303C181.601 187.403 181.601 187.703 181.401 187.903C181.201 188.003 181.101 188.103 180.801 188.203C180.501 188.203 180.201 188.203 179.901 188.203C179.601 188.203 179.501 188.603 179.101 188.503C178.401 188.303 178.101 188.703 177.701 188.903C177.201 189.103 176.801 189.203 176.401 189.603C176.201 189.803 175.701 189.503 175.501 189.603C175.401 189.603 174.601 188.403 174.401 188.003V187.803C174.401 187.303 174.301 186.503 174.601 186.403C175.001 186.303 175.401 186.003 175.801 185.803L175.601 185.603Z" fill="black"/>
<path d="M178.1 204.502C178.1 204.202 178 203.802 177.8 203.502C177.8 203.402 178 203.202 177.4 203.202C177.1 203.202 177.7 202.902 177.7 202.802C177.6 202.502 177.6 202.202 177.4 201.902C177.3 201.602 177 201.402 176.8 201.102C176.7 200.802 176.8 200.402 176.5 200.202C176.2 200.002 176.6 199.702 176.5 199.502C176.3 199.302 176.2 199.002 176.3 198.702C176.4 198.502 176.6 198.302 176.4 198.102C176.4 198.102 176 198.002 176 197.902C176 197.802 176.2 197.602 175.6 197.602C175.6 197.602 175.6 197.602 175.7 197.502C176.1 197.302 176 197.102 175.7 197.102C175.4 197.102 175.4 197.002 175.4 196.902C175.4 196.702 175.2 196.402 175.2 196.202C175.2 196.002 175.4 195.802 175.4 195.602C175.4 195.402 175.1 195.302 175.4 195.002C175.7 194.702 175.6 194.602 175.5 194.402C175.5 194.402 175.7 194.102 175.1 194.202C175.8 193.702 174.7 193.702 174.8 193.402C174.9 193.102 174.8 192.802 174.6 192.502C174.6 192.502 174.7 192.302 174.3 192.302C174.1 192.302 174.1 192.302 174.2 192.202C174.7 191.802 174.3 191.702 174.4 191.402C174.4 191.102 174.1 190.902 174.4 190.502C174.6 190.302 174.6 190.202 174 190.202C173.7 190.202 174 190.002 173.9 189.902C173.9 189.902 173.5 189.902 173.5 189.802C173.5 189.802 173.7 189.602 173.8 189.502C173.1 189.302 173.8 188.702 173.5 188.402C173.2 188.102 173.2 187.702 173.1 187.302C173.1 187.102 173.1 186.802 174.2 186.302C174.7 186.102 175.2 185.902 175.5 185.902C175.7 185.902 176 185.902 176.1 185.902C176.2 185.902 176.4 186.102 176.5 186.202C176.8 186.402 177.4 186.502 177.2 186.802C177.2 186.902 177.5 186.902 177 187.102C177.9 187.202 177.5 187.702 177.6 188.102C177.7 188.402 178.4 188.502 178.2 188.902C178.9 188.902 178.8 189.102 178.7 189.302C178.2 190.102 178.8 190.502 178.9 191.202C178.9 191.802 179.2 192.402 179.3 193.002C179.3 193.102 179.7 193.102 179.5 193.302C179.3 193.502 179.5 193.602 179.5 193.702C179.5 193.802 179.7 193.902 179.5 194.102C179 194.702 179.5 195.102 179.5 195.602C179.5 196.102 179.5 196.602 179.9 197.002C180.1 197.302 180.5 197.502 180.4 197.802C180.4 197.902 180.7 198.002 180.2 198.202C180 198.202 180.5 198.202 180.6 198.402C180.6 198.602 180.7 198.802 180.8 199.002C180.8 199.302 180.8 199.602 181 199.802C181 200.002 181.4 200.102 181.5 200.202C181.6 200.402 181.6 200.502 181.6 200.702C181.6 200.902 181.4 201.202 181.4 201.402C181.4 201.602 181.7 201.802 181.5 202.102C181.1 202.602 181.5 203.002 181.5 203.402C181.5 203.802 181.6 204.202 181.8 204.602C181.9 204.802 181.5 205.102 181.6 205.402C181.6 205.402 180.2 206.002 179.7 206.102H179.5C179 206.102 178.2 206.102 178.2 205.702C178.2 205.302 178 205.002 177.9 204.602L178.1 204.502Z" fill="black"/>
<path d="M171.8 224.5C171.9 224.1 172.1 223.7 172.1 223.3C172.1 223.1 172.4 223.1 172 222.8C171.8 222.6 172.4 222.7 172.4 222.5C172.4 222.1 172.7 221.8 172.7 221.4C172.7 221 172.7 220.6 172.7 220.2C172.7 219.8 173.2 219.6 173 219.1C172.8 218.7 173.4 218.6 173.4 218.3C173.4 218 173.4 217.6 173.7 217.4C173.9 217.2 174.2 217.1 174.2 216.9C174.2 216.7 173.9 216.5 174 216.4C174 216.3 174.4 216.2 173.8 215.9C173.8 215.9 173.8 215.9 174 215.9C174.4 215.9 174.5 215.7 174.2 215.5C174 215.3 174.1 215.2 174.1 215.1C174.1 214.8 174.2 214.5 174.4 214.2C174.5 214 174.8 213.9 175 213.7C175.1 213.5 175 213.2 175.3 213C175.7 212.9 175.7 212.7 175.8 212.5C175.8 212.4 176.2 212.3 175.6 212C176.5 212 175.6 211.3 175.9 211C176.2 210.7 176.2 210.3 176.3 210C176.3 210 176.5 209.9 176.1 209.6C176 209.6 176 209.4 176.1 209.4C176.8 209.4 176.5 208.9 176.7 208.7C176.9 208.4 176.7 208 177.3 207.9C177.5 207.9 177.7 207.7 177.2 207.4C177 207.2 177.2 207.2 177.2 207.1C177.2 207 176.9 206.8 177 206.7C177 206.7 177.3 206.7 177.4 206.6C176.9 206 177.9 205.8 177.8 205.3C177.8 205 177.8 204.9 177.8 204.6C177.8 204.3 178 204 178.2 203.6C178.4 203.2 178.9 202.8 180 203.4C180.5 203.6 180.9 204 181.1 204.3C181.2 204.5 181.4 204.7 181.4 204.8C181.4 204.9 181.5 205.1 181.6 205.2C181.7 205.4 182.2 205.7 181.8 206C181.7 206 181.9 206.3 181.4 206.2C182.1 206.8 181.4 207.2 181.4 207.6C181.4 208 181.8 208.5 181.4 208.8C181.9 209.2 181.8 209.4 181.5 209.5C180.6 210 180.8 210.8 180.5 211.5C180.2 212.2 180 212.9 179.7 213.6C179.7 213.7 180 213.9 179.7 214C179.4 214 179.5 214.3 179.5 214.4C179.5 214.5 179.5 214.7 179.3 214.8C178.5 215.1 178.7 215.8 178.4 216.3C178.1 216.8 177.9 217.3 177.9 217.9C177.9 218.3 178.1 218.7 177.9 219C177.8 219.1 178.1 219.4 177.5 219.3C177.3 219.3 177.7 219.6 177.7 219.7C177.7 219.9 177.6 220.2 177.5 220.4C177.4 220.7 177.2 221 177.2 221.4C177.2 221.6 177.3 221.9 177.3 222.1C177.3 222.3 177.3 222.5 177.1 222.7C176.9 222.9 176.7 223.1 176.5 223.4C176.4 223.6 176.5 224 176.2 224.2C175.6 224.5 175.7 225.1 175.5 225.5C175.3 225.9 175.1 226.4 175.1 226.9C175.1 227.2 174.6 227.3 174.5 227.5C174.5 227.6 173 227.5 172.5 227.3H172.3C171.9 226.9 171.3 226.5 171.4 226.2C171.6 225.7 171.7 225.3 171.8 224.8V224.5Z" fill="black"/>
<path d="M164.501 200C164.701 199.5 164.901 199 165.001 198.5C165.001 198.3 165.401 198.2 165.001 197.7C164.801 197.5 165.501 197.6 165.601 197.4C165.901 196.9 166.401 196.5 166.901 196C167.201 195.8 167.501 195.5 167.901 195.3C168.301 195.1 168.801 195 169.301 195C169.801 195 170.301 195.2 170.701 195.5C171.101 195.8 171.401 196 171.801 196.2C172.501 196.6 172.301 197.3 172.601 197.8C172.901 198.3 173.101 198.9 172.901 199.4C172.801 199.8 172.501 200.1 172.601 200.5C172.601 200.7 172.901 201 172.901 201.2C172.901 201.4 172.501 201.6 173.001 202C173.001 202 173.001 202.1 172.801 202.1C172.301 202.2 172.201 202.5 172.401 202.8C172.601 203.1 172.401 203.3 172.401 203.4C172.101 203.9 171.801 204.4 171.401 204.7C171.001 205 170.601 205 170.201 205.2C169.801 205.4 169.601 205.8 169.101 205.7C168.701 205.6 168.401 205.7 168.101 205.7C167.901 205.7 167.701 205.5 167.701 206.2C167.701 206.2 167.701 206.2 167.601 206.2C167.001 205.5 166.601 206.6 166.101 206.4C165.601 206.2 165.101 206.4 164.601 206.4C164.501 206.4 164.401 206.2 164.201 206.6C164.201 206.8 164.001 206.8 164.001 206.6C163.701 205.9 163.301 206.2 163.001 206.1C162.601 205.9 162.201 206.1 161.901 205.5C161.801 205.3 161.601 205.1 161.201 205.5C161.001 205.7 160.901 205.5 160.801 205.5C160.701 205.5 160.501 205.7 160.301 205.7C160.201 205.7 160.201 205.4 160.101 205.3C159.201 205.6 159.001 204.5 158.401 204.3C157.701 204 157.101 203.4 156.701 202.6C156.501 202.2 156.401 201.6 157.401 200.9C157.801 200.6 158.401 200.5 158.701 200.4C159.001 200.4 159.201 200.4 159.301 200.4C159.401 200.4 159.601 200.4 159.701 200.4C160.001 200.4 160.501 200.2 160.401 200.5C160.401 200.6 160.601 200.5 160.401 200.9C161.101 200.4 161.101 201 161.501 201.2C161.801 201.2 162.301 200.8 162.601 201.2C163.001 200.7 163.101 200.8 163.301 201.1C163.801 201.9 164.501 201.6 165.201 201.8C165.801 202 166.501 201.8 167.001 201.8C167.001 201.8 167.001 201.4 167.201 201.7C167.401 201.9 167.401 201.7 167.501 201.7C167.501 201.7 167.601 201.5 167.801 201.7C168.101 201.9 168.301 201.9 168.401 201.7C168.501 201.6 168.601 201.4 168.701 201.3C169.001 201.1 169.201 200.7 169.101 200.4C169.101 200.2 168.701 200 168.801 199.8C168.801 199.8 168.501 199.8 169.101 199.5C169.301 199.5 168.801 199.5 168.801 199.5C168.801 199.5 168.801 199.4 168.801 199.3C168.801 199.3 169.001 199.2 169.001 199.1C169.101 199 169.201 198.8 169.201 198.8V198.9C169.201 198.9 169.201 199.1 169.301 199.4C169.301 199.4 169.301 199.6 169.401 199.7C169.401 199.9 169.401 199.8 169.401 199.8C169.401 199.8 169.301 199.8 169.201 199.8C169.101 199.8 169.201 200.1 168.901 200.1C168.301 200.1 168.301 200.6 168.101 201C167.901 201.4 167.701 201.8 167.801 202.3C167.801 202.6 167.301 202.7 167.301 203C167.301 203.1 165.801 203.2 165.301 203H165.101C164.701 202.7 164.001 202.3 164.101 201.9C164.301 201.3 164.301 200.8 164.501 200.2V200Z" fill="black"/>
<path d="M162.7 171.803C162.5 171.803 162.4 171.903 162.2 172.103C162.2 172.103 162 172.003 162.2 172.503C162.3 172.803 161.9 172.203 161.9 172.303C161.8 172.403 161.6 172.403 161.5 172.603C161.4 172.703 161.4 173.003 161.3 173.103C161.3 173.203 160.9 173.103 161 173.403C161 173.703 160.7 173.403 160.6 173.503C160.6 173.703 160.5 173.803 160.2 173.703C160 173.703 159.8 173.503 159.8 173.703C159.8 173.703 159.9 174.103 159.8 174.103C159.8 174.103 159.5 173.903 159.8 174.503C159.8 174.503 159.8 174.503 159.7 174.503C159.4 174.203 159.3 174.303 159.5 174.503C159.6 174.703 159.5 174.803 159.5 174.803C159.5 174.903 159.3 175.003 159.2 175.103C159.1 175.103 158.9 175.103 158.7 175.103C158.6 175.103 158.7 175.403 158.4 175.203C158.1 175.003 158.1 175.203 158 175.203C158 175.203 157.7 175.103 158 175.603C157.3 175.103 158 176.003 157.7 176.003C157.4 176.003 157.4 176.203 157.3 176.303C157.3 176.303 157.1 176.303 157.3 176.603C157.3 176.703 157.3 176.803 157.3 176.703C156.8 176.303 156.9 176.703 156.8 176.703C156.6 176.703 156.7 177.003 156.2 176.703C156 176.603 155.9 176.603 156.2 177.103C156.4 177.303 156.2 177.103 156.2 177.303C156.2 177.303 156.4 177.603 156.3 177.603C156.3 177.603 156.1 177.503 156 177.403C156.3 178.003 155.5 177.603 155.5 177.803C155.5 177.903 155.5 177.903 155.5 177.903C155.5 177.903 155.5 177.903 155.4 177.903C155.4 177.903 155.2 177.903 154.2 177.403C153.8 177.203 153.3 177.003 152.9 176.803C152.7 176.703 152.5 176.503 152.4 176.403C152.4 176.303 152.3 176.103 152.2 175.903C152.2 175.603 151.9 175.103 152.2 175.003C152.3 175.003 152.2 174.703 152.6 175.003C152.3 174.203 152.8 174.503 152.9 174.303C152.9 174.103 152.7 173.603 153 173.603C152.6 173.103 152.8 173.103 153 173.103C153.7 173.403 153.7 172.803 154 172.603C154.3 172.403 154.6 172.103 154.9 171.903C154.9 171.903 154.8 171.603 154.9 171.703C155.1 171.903 155.1 171.703 155.1 171.603C155.1 171.603 155.1 171.403 155.3 171.503C156 171.803 155.9 171.303 156.2 171.203C156.5 171.103 156.7 170.903 156.9 170.603C156.9 170.403 156.9 170.003 157.2 170.003C157.2 170.003 157.2 169.703 157.6 170.103C157.7 170.203 157.6 169.803 157.6 169.803C157.6 169.703 157.8 169.603 157.9 169.603C158 169.503 158.2 169.403 158.3 169.303C158.3 169.303 158.3 168.903 158.3 168.803C158.3 168.703 158.5 168.603 158.6 168.603C158.8 168.603 159 168.603 159.2 168.603C159.4 168.603 159.4 168.303 159.6 168.403C160.1 168.703 160.2 168.403 160.5 168.303C160.8 168.303 161 168.203 161.2 167.903C161.3 167.803 161.6 168.203 161.8 168.103C161.8 168.103 162.5 169.403 162.7 169.903V170.103C162.7 170.603 163 171.303 162.8 171.303C162.6 171.303 162.4 171.403 162.3 171.503L162.7 171.803Z" fill="black"/>
<path d="M173.699 171.603C173.599 171.603 173.399 171.703 173.299 171.803C173.299 171.803 173.099 171.603 173.299 172.203C173.399 172.403 172.999 171.903 172.999 172.003C172.899 172.103 172.699 172.103 172.599 172.303C172.599 172.403 172.499 172.703 172.399 172.803C172.399 172.903 171.999 172.803 172.099 173.103C172.099 173.403 171.799 173.103 171.799 173.203C171.799 173.403 171.799 173.503 171.499 173.403C171.299 173.403 171.099 173.203 171.099 173.403C171.099 173.403 171.299 173.803 171.199 173.803C171.199 173.803 170.899 173.703 171.199 174.203C171.199 174.203 171.199 174.203 171.099 174.203C170.799 173.903 170.699 174.003 170.899 174.203C170.999 174.403 170.899 174.403 170.899 174.503C170.899 174.603 170.799 174.703 170.599 174.703C170.599 174.703 170.299 174.703 170.199 174.703C170.099 174.703 170.199 175.003 169.899 174.803C169.599 174.703 169.599 174.803 169.499 174.803C169.499 174.803 169.199 174.703 169.699 175.103C168.999 174.703 169.699 175.503 169.499 175.503C169.199 175.503 169.299 175.703 169.199 175.803C169.199 175.803 168.999 175.803 169.299 176.103C169.399 176.203 169.399 176.303 169.299 176.103C168.699 175.803 168.999 176.103 168.799 176.103C168.599 176.103 168.799 176.403 168.299 176.203C168.099 176.203 167.999 176.203 168.399 176.503C168.599 176.703 168.399 176.503 168.399 176.703C168.399 176.703 168.599 176.903 168.599 177.003C168.599 177.003 168.399 177.003 168.299 177.003C168.799 177.503 167.899 177.203 167.999 177.503C167.999 177.803 167.999 177.903 167.699 178.003C167.699 178.003 167.399 178.003 166.299 177.703C165.799 177.503 165.299 177.303 164.999 177.103C164.799 177.003 164.599 176.803 164.599 176.703C164.599 176.603 164.499 176.503 164.399 176.303C164.299 176.103 163.899 175.703 164.199 175.703C164.299 175.703 164.099 175.503 164.499 175.703C163.899 175.103 164.499 175.203 164.499 175.003C164.499 174.803 164.099 174.303 164.499 174.303C163.999 173.903 164.199 173.803 164.499 173.803C165.299 173.803 165.099 173.303 165.499 173.003C165.799 172.703 165.999 172.403 166.299 172.103C166.299 172.103 166.099 171.803 166.299 171.903C166.499 172.003 166.499 171.903 166.499 171.803C166.499 171.803 166.499 171.603 166.699 171.603C167.399 171.803 167.299 171.403 167.599 171.203C167.899 171.103 168.099 170.903 168.299 170.603C168.299 170.403 168.299 170.003 168.499 170.003C168.499 170.003 168.499 169.703 168.899 170.003C168.999 170.103 168.899 169.703 168.899 169.703C168.899 169.603 169.099 169.503 169.199 169.503C169.299 169.403 169.499 169.303 169.599 169.203C169.599 169.203 169.599 168.803 169.599 168.703C169.599 168.603 169.799 168.503 169.899 168.503C170.099 168.503 170.299 168.503 170.499 168.503C170.699 168.503 170.699 168.203 170.899 168.303C171.399 168.603 171.499 168.303 171.799 168.303C172.099 168.303 172.299 168.203 172.499 167.903C172.599 167.803 172.899 168.203 173.099 168.103C173.099 168.103 173.799 169.403 173.999 169.903V170.103C173.999 170.603 174.299 171.303 174.099 171.303C173.899 171.303 173.699 171.403 173.599 171.503L173.699 171.603Z" fill="black"/>
<path d="M135.1 203.299C134.5 203.299 133.9 203.099 133.3 203.099C133.1 203.099 132.9 202.799 132.5 203.199C132.3 203.399 132.3 202.699 132 202.699C131.4 202.599 130.9 202.299 130.3 202.099C129.7 201.899 129.1 201.799 128.6 201.499C128.1 201.199 127.8 200.599 127.1 200.399C126.5 200.199 126.6 199.499 126.2 199.199C125.8 198.899 125.4 198.399 125.4 197.799C125.4 197.399 125.4 196.999 125.2 196.699C125.1 196.499 124.7 196.399 124.6 196.199C124.6 195.999 124.8 195.599 124.1 195.599C124.1 195.599 124.1 195.499 124.2 195.399C124.6 195.099 124.5 194.799 124.2 194.599C123.9 194.399 123.9 194.199 123.9 193.999C123.9 193.399 123.9 192.799 124 192.199C124.1 191.799 124.5 191.399 124.7 190.999C124.9 190.599 124.9 189.999 125.3 189.799C125.8 189.599 125.9 189.299 126.2 188.999C126.3 188.799 126.7 188.799 126.3 188.299C127.3 188.399 126.8 187.299 127.3 187.099C127.8 186.899 128.2 186.299 128.7 185.899C128.8 185.799 129.1 185.899 129 185.299C129 185.099 129.1 184.999 129.3 184.999C130.1 185.299 130.5 184.699 131.1 184.599C131.8 184.599 132.6 184.199 133.2 184.799C133.4 184.999 133.7 185.199 134.1 184.699C134.3 184.499 134.5 184.699 134.7 184.699C134.9 184.699 135.1 184.499 135.2 184.499C135.3 184.499 135.4 184.799 135.4 184.899C135.4 184.899 135.4 184.899 135.5 184.899C136.3 184.499 136.7 185.499 137.4 185.599C138.1 185.599 138.7 185.999 139.3 186.299C139.6 186.499 139.9 186.799 139.7 187.999C139.6 188.499 139.4 188.999 139.1 189.299C138.9 189.499 138.7 189.599 138.6 189.599C138.4 189.599 138.1 189.599 137.9 189.599C137.5 189.599 136.9 189.999 136.6 189.599C136.6 189.499 136.3 189.599 136.4 189.199V189.099C135.6 189.599 135.3 188.999 134.7 188.799C134.2 188.699 133.6 189.199 133.3 188.799C133 189.399 132.8 189.199 132.7 188.999C132.3 188.299 132.1 188.799 131.6 188.999C131.3 189.199 131 189.399 130.7 189.699L129.8 190.699C129.8 190.799 129.9 191.099 129.6 191.099C129.3 191.099 129.4 191.299 129.3 191.399C129.3 191.499 129.3 191.699 129.1 191.699C128.3 191.799 128.5 192.499 128.4 192.999C128.3 193.499 128.4 194.099 128.6 194.699C128.8 194.999 129.2 195.199 129.3 195.499C129.3 195.699 129.7 195.599 129.3 195.999C129.2 196.099 129.6 195.999 129.7 195.999C129.9 196.199 130 196.399 130.1 196.499C130.3 196.699 130.5 196.999 130.8 197.099C131 197.099 131.3 197.099 131.5 197.099C131.7 197.099 131.9 197.299 132 197.399C132.2 197.599 132.4 197.899 132.6 198.099C132.9 198.299 133.2 198.099 133.4 198.399C133.8 198.999 134.4 198.899 135 198.999C135.6 199.099 136.2 199.199 136.7 198.999C137 198.999 137.4 199.399 137.7 199.399C137.8 199.399 138.2 200.799 138.2 201.299V201.499C137.9 201.999 137.6 202.799 137.1 202.699C136.4 202.699 135.7 202.699 135 202.699L135.1 203.299Z" fill="black"/>
<path d="M139.301 159.498C139.301 159.998 139.301 160.498 139.401 161.098C139.401 161.298 139.201 161.498 139.701 161.698C140.001 161.698 139.301 161.998 139.401 162.198C139.501 162.698 139.401 163.198 139.501 163.698C139.501 164.198 139.801 164.598 139.901 165.098C139.901 165.598 139.701 166.098 140.101 166.498C140.401 166.898 139.901 167.298 140.101 167.598C140.301 167.998 140.401 168.398 140.101 168.798C139.901 169.098 139.701 169.398 139.901 169.698C139.901 169.898 140.301 169.998 140.301 170.198C140.301 170.398 140.001 170.598 140.701 170.698C140.701 170.698 140.701 170.698 140.601 170.798C140.201 170.998 140.201 171.298 140.601 171.398C140.901 171.498 140.901 171.698 140.901 171.798C140.901 172.198 141.001 172.598 140.901 172.998C140.901 173.298 140.701 173.598 140.601 173.898C140.601 174.198 140.901 174.498 140.601 174.798C140.301 175.098 140.301 175.398 140.401 175.698C140.401 175.898 140.101 176.098 140.801 176.198C140.801 176.198 140.801 176.198 140.801 176.298C140.001 176.798 141.101 177.198 140.901 177.698C140.701 178.198 140.901 178.698 140.901 179.198C140.901 179.298 140.701 179.498 141.201 179.598C141.401 179.598 141.401 179.798 141.201 179.898C140.601 180.298 141.001 180.698 140.901 181.098C140.801 181.498 141.101 181.998 140.601 182.398C140.401 182.598 140.301 182.798 140.901 183.098C141.201 183.198 140.901 183.398 140.901 183.598C140.901 183.698 141.201 183.898 141.201 183.998C141.201 184.098 141.001 184.198 140.801 184.298C140.801 184.298 140.801 184.298 140.801 184.398C141.401 185.098 140.401 185.698 140.501 186.398C140.501 187.098 140.401 187.798 140.101 188.498C140.001 188.898 139.601 189.198 138.501 189.098C138.001 189.098 137.501 188.898 137.201 188.598C137.001 188.398 136.801 188.198 136.801 188.098C136.801 187.898 136.701 187.698 136.601 187.498C136.601 187.098 136.101 186.598 136.401 186.298C136.501 186.298 136.201 185.998 136.801 185.998C136.101 185.398 136.701 184.898 136.701 184.398C136.701 183.898 136.101 183.498 136.401 183.098C135.801 182.798 135.901 182.598 136.101 182.298C136.801 181.398 136.301 180.498 136.401 179.598C136.401 178.698 136.401 177.698 136.301 176.798C136.301 176.598 135.901 176.498 136.201 176.298C136.401 176.098 136.201 175.898 136.201 175.698C136.201 175.498 136.001 175.298 136.201 175.098C136.801 174.298 136.401 173.598 136.401 172.798C136.401 171.998 136.401 171.298 136.201 170.598C136.101 170.198 135.701 169.698 135.801 169.298C135.801 169.098 135.501 168.898 136.101 168.698C136.301 168.698 135.801 168.498 135.801 168.398C135.801 168.098 135.801 167.798 135.801 167.498C135.801 167.098 135.801 166.598 135.701 166.198C135.701 165.898 135.401 165.698 135.301 165.398C135.301 165.098 135.301 164.798 135.301 164.598C135.301 164.198 135.501 163.898 135.601 163.498C135.601 163.098 135.301 162.798 135.601 162.398C136.101 161.698 135.801 161.098 135.801 160.398C135.801 159.798 135.801 159.098 135.701 158.498C135.701 158.098 136.101 157.798 136.101 157.398C136.101 157.198 137.501 156.898 138.101 156.898H138.301C138.801 157.198 139.501 157.498 139.501 157.898C139.501 158.498 139.501 159.098 139.501 159.698L139.301 159.498Z" fill="black"/>
<path d="M142.499 148.498C144.499 147.798 146.399 147.198 148.299 146.398C148.999 146.098 149.799 146.098 150.399 145.398C150.699 144.998 151.599 145.398 152.299 145.098C154.099 144.398 155.999 143.898 157.799 143.198C158.699 142.898 159.499 142.498 160.399 142.098L161.699 141.598C162.099 141.398 162.499 141.298 163.099 141.098C165.199 140.398 167.299 140.498 169.199 140.198C170.899 139.898 172.299 140.498 173.699 140.398C175.199 140.398 176.899 140.298 178.499 140.698C179.699 140.998 180.799 141.298 181.999 141.498C182.799 141.498 183.599 141.498 184.399 141.798C185.199 142.098 185.899 142.698 186.799 142.498C186.799 142.498 187.199 142.798 187.299 142.898C187.899 143.698 188.799 144.298 189.499 144.598C190.299 144.898 190.699 145.498 191.199 145.998C192.499 147.598 193.299 149.598 193.399 151.798C193.399 153.398 192.999 154.998 192.099 156.498C191.299 157.998 190.199 159.398 188.899 159.898C187.599 160.398 186.599 160.998 185.399 161.498C184.799 161.798 183.899 161.798 183.599 162.598C183.599 162.598 183.299 162.698 183.199 162.698C181.199 162.498 179.799 164.098 177.899 164.398C175.999 164.698 173.999 165.398 171.899 165.698C171.299 165.698 170.699 165.698 170.299 166.198C170.099 166.398 169.499 166.398 169.199 166.298C167.599 165.698 165.899 165.998 164.299 165.498C162.499 164.998 160.599 164.498 159.299 163.298C158.699 162.798 157.899 162.198 156.799 162.198C156.299 162.198 155.699 161.498 155.199 161.198C154.699 160.898 154.199 160.898 153.799 160.598C153.399 160.298 153.199 159.898 152.999 159.598C152.999 159.498 152.799 159.398 152.699 159.398C150.399 158.498 149.299 156.698 147.299 156.598C145.399 156.598 143.199 156.798 140.999 157.398C139.799 157.698 138.399 157.998 137.199 157.398C136.599 157.098 136.399 156.598 136.799 155.998C137.099 155.598 137.499 155.198 137.899 154.998C138.599 154.598 139.299 154.198 139.999 153.898C141.499 153.198 143.099 152.298 144.999 152.498C145.599 152.498 146.299 152.198 146.699 152.798C146.699 152.798 146.999 152.898 147.099 152.798C148.399 152.498 149.699 152.798 150.899 153.298C152.099 153.798 153.099 154.598 153.999 155.298C155.599 156.398 157.299 156.998 158.699 158.198C159.899 158.198 160.699 158.898 161.499 159.498C162.799 160.598 164.399 161.198 165.999 161.498C167.599 161.798 169.199 161.698 170.899 161.498C174.299 161.198 177.799 159.898 181.399 158.798C181.999 158.598 182.399 158.098 183.099 158.098C183.799 158.098 184.499 157.598 185.099 157.198C185.699 156.898 186.099 156.398 186.699 156.198C187.799 155.698 188.499 154.898 188.799 153.798C189.099 152.798 188.799 151.598 188.499 150.498C187.799 148.298 185.699 146.598 183.199 145.898C181.699 145.398 180.099 145.498 178.399 145.198C177.699 145.098 176.899 145.398 176.199 144.698C175.999 144.498 175.299 144.898 174.799 144.998C173.599 144.998 172.299 144.998 171.099 144.898C169.399 144.898 167.799 144.898 166.299 145.098C165.799 145.098 165.399 145.298 164.999 145.498L164.399 145.798C164.199 145.798 163.999 145.998 163.799 146.098C162.799 146.498 161.699 146.898 160.699 147.198C159.399 147.598 157.999 147.798 156.599 148.198C155.199 148.598 153.899 149.298 152.499 149.498C149.899 149.798 147.599 150.898 145.199 151.698C142.799 152.498 140.399 153.298 138.099 154.298C136.799 154.898 135.399 154.898 134.199 155.398C133.699 155.598 132.199 154.698 132.199 154.198C132.199 154.098 132.199 153.998 132.299 153.898C133.399 152.798 134.299 151.698 135.799 151.098C137.999 150.298 140.199 149.498 142.399 148.698L142.499 148.498Z" fill="black"/>
<path d="M139.2 211.398C139 213.098 138.7 214.898 138.1 216.598C137.9 217.298 137.4 217.798 137.6 218.698C137.6 219.098 136.8 219.498 136.5 219.998C135.7 221.498 134.4 222.798 133.1 223.898C131.8 224.998 130.3 226.098 128.5 226.598C127.6 226.798 126.7 226.898 125.7 226.898C124.8 226.898 123.9 226.798 123.1 226.698C121.6 226.698 120.6 225.698 119.4 225.298C118.1 224.798 116.9 224.198 115.9 223.298C115.2 222.598 114.6 221.898 113.7 221.498C113.2 221.198 112.6 221.098 112.1 220.698C111.7 220.298 111.3 219.698 110.5 219.698C110.5 219.698 110.3 219.398 110.3 219.298C110.1 218.598 109.6 217.998 109 217.798C108.5 217.598 108.2 217.198 107.8 216.898C106.9 215.898 106.1 214.898 105.3 213.798C104.8 212.998 104.4 212.098 103.9 211.198C103.4 210.298 102.6 209.598 102.3 208.598C102.1 207.698 101.6 206.898 101.2 206.098C100.9 205.698 100.9 204.998 100.1 204.998C100.1 204.998 99.9002 204.798 99.9002 204.698C99.9002 204.298 99.8002 203.898 99.6002 203.598C99.6002 203.398 99.4002 203.298 99.3002 203.098C99.2002 202.898 99.1002 202.898 98.9002 202.598C98.5002 202.098 98.2002 201.498 98.0002 200.898C97.9002 200.298 98.0002 199.598 98.2002 198.998C98.4002 198.698 98.6002 198.398 98.8002 198.098C99.0002 197.798 99.3002 197.498 99.4002 197.398L100.2 196.398C100.8 195.798 101.3 195.098 101.9 194.598C102.2 194.298 102.7 194.098 102.6 193.498C102.6 193.298 102.9 192.998 103.1 192.898C104.4 192.598 104.9 191.598 105.8 190.898C106.8 190.098 107.4 188.998 108.6 188.298C109.1 187.998 109.7 187.498 109.6 186.598C109.6 186.198 110.2 185.898 110.4 185.498C110.6 185.198 110.6 184.698 110.8 184.398C111 184.098 111.4 183.998 111.6 183.798C111.6 183.798 111.8 183.598 111.8 183.498C112.3 181.598 114.1 180.498 114.9 178.798C115.7 177.098 116.8 175.398 117.8 173.798C118.4 172.898 119.1 171.998 120.4 171.898C121 171.898 121.5 172.098 121.6 172.698C121.6 173.098 121.6 173.598 121.6 173.898C121.4 174.498 121.2 175.098 121 175.698C120.6 176.898 120.4 178.198 119.5 179.198C119.2 179.498 119.2 180.098 118.6 180.098C118.6 180.098 118.4 180.198 118.4 180.298C118.2 182.198 116.8 183.498 115.8 184.998C115 186.298 114.6 187.898 113.5 188.898C113.5 189.998 112.8 190.698 112 191.198C110.8 192.198 109.7 193.298 108.6 194.398C107.5 195.498 106.4 196.598 105.4 197.498C104.9 197.998 104.4 198.498 103.9 198.898C103.7 199.098 103.4 199.398 103.2 199.598L102.9 199.998C102.9 200.098 102.9 199.998 102.9 200.098C102.9 200.198 102.8 200.398 102.9 200.498L103.8 201.998C104 202.398 104.6 202.598 104.6 203.298C104.6 203.898 105.2 204.398 105.5 204.998C105.8 205.498 106.2 205.998 106.4 206.498C107.1 208.798 108.7 210.498 110 212.298C111.3 214.098 112.8 215.798 114.6 217.098C115.7 217.898 116.9 218.398 118 219.198C118.5 219.598 119.1 219.598 119.3 220.398C119.3 220.598 120 220.398 120.4 220.598C121.2 220.998 122 221.398 122.8 221.598C123.9 221.998 125 222.198 126 222.198C126.6 222.198 127.2 221.798 127.7 221.598C128.3 221.398 128.9 221.098 129.4 220.798C130.1 220.398 131 219.998 131.6 219.298C132.3 218.598 132.6 217.598 133.3 216.998C134.6 215.698 134.8 213.798 135.2 211.998C135.5 210.198 135.6 208.198 135.4 206.298C135.3 205.198 135.7 204.198 135.7 202.998C135.7 202.498 137.1 201.698 137.6 201.898C137.6 201.898 137.8 201.998 137.8 202.098C138.3 203.198 139.1 204.098 139.1 205.398C139.1 207.298 139.1 209.198 139 211.198L139.2 211.398Z" fill="black"/>
<path d="M178.501 221.899C179.301 221.599 180.201 221.299 180.901 220.899C181.201 220.799 181.601 220.899 181.701 220.199C181.701 219.899 182.301 220.299 182.501 220.199C183.201 219.799 183.901 219.499 184.501 219.099C185.101 218.699 185.601 217.999 186.101 217.599C186.601 217.099 187.401 216.799 187.601 216.099C187.801 215.499 188.501 215.399 188.801 214.899C189.101 214.399 189.401 213.799 189.901 213.399C190.301 213.099 190.701 212.899 190.801 212.399C190.801 212.099 190.801 211.699 190.801 211.499C190.901 211.299 191.301 211.099 190.801 210.599C190.801 210.599 190.901 210.599 191.001 210.499C191.501 210.399 191.601 209.999 191.401 209.699C191.201 209.399 191.401 209.199 191.401 208.999C191.501 208.399 191.801 207.799 191.901 207.299C192.101 206.899 192.401 206.499 192.501 205.999C192.601 205.499 192.501 204.999 192.801 204.599C193.101 204.199 193.201 203.699 193.201 203.299C193.201 203.099 193.501 202.799 192.901 202.499C192.901 202.499 192.901 202.399 192.901 202.299C193.301 201.899 193.201 201.599 193.101 201.199C192.901 200.899 192.701 200.499 192.801 200.199C192.801 199.799 192.801 199.499 192.801 199.099L192.501 197.999C192.501 197.799 192.501 197.599 192.101 197.499C191.901 197.499 191.901 197.299 191.901 197.199C192.301 196.499 191.801 195.999 191.701 195.499C191.601 194.799 191.001 194.399 191.201 193.499C191.201 193.099 191.201 192.699 190.501 192.699C190.201 192.699 190.301 192.299 190.101 192.099C190.001 191.899 189.601 191.899 189.501 191.799C189.501 191.699 189.501 191.399 189.501 191.199V191.099C188.401 190.599 188.601 189.299 187.801 188.599C187.001 187.899 186.401 186.999 185.801 186.199C185.501 185.699 185.201 185.099 185.801 184.099C186.101 183.599 186.501 183.299 186.901 183.199C187.201 183.199 187.501 183.199 187.701 183.299C188.001 183.499 188.301 183.699 188.601 183.899C189.201 184.299 190.101 184.499 190.301 185.299C190.301 185.499 190.801 185.599 190.501 185.999V186.199C191.701 186.499 191.901 187.699 192.501 188.499C193.001 189.199 194.001 189.599 194.201 190.499C195.001 190.599 195.201 191.199 195.201 191.699C195.401 193.599 196.401 194.999 196.801 196.799C197.201 198.599 197.501 200.399 197.501 202.299C197.501 202.599 197.801 202.899 197.501 203.199C197.201 203.499 197.501 203.999 197.401 204.399C197.401 204.799 197.401 205.199 197.301 205.499C196.901 206.199 196.701 206.799 196.501 207.499C196.301 208.199 196.301 208.899 196.001 209.499C195.701 210.199 195.501 210.799 195.201 211.399C195.101 211.699 194.901 211.999 194.801 212.399C194.701 212.699 194.501 212.999 194.401 213.399C194.101 214.199 193.901 215.099 193.401 215.799C193.101 216.099 193.201 216.599 192.501 216.499C192.301 216.499 192.501 216.999 192.301 217.199C192.001 217.699 191.501 218.099 191.201 218.599C190.601 219.199 190.001 219.799 189.401 220.399C189.001 220.699 188.801 221.299 188.401 221.599C188.001 221.999 187.601 222.299 187.101 222.499C186.501 222.799 185.801 222.999 185.201 223.199C184.601 223.499 184.101 223.999 183.401 224.099C182.101 224.099 181.101 224.799 180.001 225.199C178.901 225.499 177.801 225.899 176.801 226.399C176.201 226.699 175.501 226.399 175.001 226.599C174.701 226.599 173.901 225.399 173.801 224.899C173.801 224.899 173.801 224.699 173.801 224.599C174.201 223.999 174.501 223.099 175.201 222.899C176.201 222.599 177.101 222.199 178.101 221.899H178.501Z" fill="black"/>
<path d="M126.4 139.798C126.5 136.798 126.8 133.898 126.9 130.898C126.9 129.798 127.3 128.698 126.9 127.498C126.7 126.898 127.4 125.898 127.4 124.898C127.4 122.098 127.7 119.398 127.8 116.698C127.8 113.998 127.8 111.398 127.7 108.698C127.7 106.098 127.9 103.398 127.5 100.898C127.3 99.7983 127.3 98.7983 127.3 97.7983C127.3 96.7983 127.3 95.7983 127.2 94.6983C126.8 92.4983 126.5 90.2983 126.3 88.1983C126.2 86.6983 126 85.1983 125.4 83.7983C125 82.8983 124.4 82.2983 124 81.3983C123.6 80.5983 123.3 79.5983 122.3 79.3983C122.3 79.3983 122.1 78.9983 122 78.7983C121.7 77.7983 120.9 77.0984 120.5 77.2983C120.2 77.4983 120 77.3983 119.4 77.4983C119.1 77.4983 118.6 77.6983 118.2 77.8983C117.8 78.0983 117.3 78.2983 116.9 78.4983C116.1 78.9983 115.3 79.3983 114.5 79.9983C113.3 80.8983 112.1 81.7983 111.1 82.9983C110 84.1983 109.3 85.8983 108.2 87.0983C107.1 88.2983 106.4 89.6983 105.7 91.0983C105.3 91.8983 104.6 92.6983 104.9 93.5983C104.9 93.5983 104.8 93.9983 104.7 94.0983C102.9 96.0983 103.1 98.7983 102.3 101.098C101.5 103.498 101.4 106.098 101.5 108.698C101.5 109.398 101.4 110.098 101.9 110.698C102.1 110.898 102.1 111.598 102.1 111.998C101.7 113.998 102.5 115.998 102.9 117.898C103.3 120.198 104.4 122.198 104.7 124.598C104.8 125.598 105.3 126.898 106.3 127.798C106.8 128.198 107 129.298 107.4 130.098C107.7 130.698 108.3 131.198 108.6 131.798C108.9 132.298 108.9 132.998 109.1 133.598C109.1 133.798 109.2 133.998 109.4 134.098C111.5 136.798 112.4 140.198 114.4 142.998C116.4 145.798 118.4 148.598 120.6 151.098C121.8 152.498 123.1 153.898 123.3 155.598C123.4 156.398 123.1 156.798 122.2 156.498C121.6 156.298 120.9 155.998 120.3 155.498C119.4 154.798 118.5 154.098 117.7 153.298C116 151.698 114.1 150.198 112.9 148.098C112.5 147.398 111.8 146.898 111.9 146.098C111.9 145.998 111.8 145.698 111.7 145.598C109.3 143.398 108.1 140.198 106.5 137.398C105.2 134.998 103.5 132.898 102.6 130.198C101.4 129.098 100.8 127.298 100.4 125.798C99.0996 120.398 97.1996 115.098 97.0996 109.398C97.0996 106.498 97.1996 103.598 97.7996 100.798C98.3996 97.9984 99.2996 95.1983 100.5 92.6983C100.9 91.7983 100.9 90.8983 101.7 89.9983C102.4 89.1983 102.8 87.8983 103.4 86.7983C103.9 85.7983 104.4 84.6983 105.1 83.8983C106.6 82.1983 107.9 80.3983 109.5 78.6983C111 76.9983 112.8 75.4983 115 74.3983C116.1 73.8983 117.1 73.3983 118.4 73.0983C119 72.9983 119.7 72.7983 120.5 72.8983C121.2 72.8983 122.1 73.0983 122.8 73.4983C124.2 74.1983 125 75.1983 125.7 75.9983C126.5 76.8983 127.1 77.8983 127.7 78.8983C129.2 81.2983 130.3 83.8983 130.7 86.5983C130.9 87.6983 131.4 88.8983 131 90.0983C130.9 90.3983 131.5 91.3983 131.6 92.1983C131.7 93.0983 131.8 93.9983 131.9 94.8983L132.1 97.5983C132.2 98.8983 132.2 100.098 132.3 101.398V105.098C132.5 106.598 132.7 108.098 132.8 109.698C132.8 111.298 132.8 112.898 132.7 114.498C132.5 116.498 132.3 118.498 132.1 120.498C131.9 122.598 132.1 124.698 131.7 126.698C131 130.298 131 133.998 130.7 137.698C130.4 141.298 130.3 144.998 130.3 148.598C130.3 150.598 129.9 152.498 129.9 154.498C129.9 155.098 129.5 155.098 129.2 155.498C129.1 155.598 129 155.698 129 155.798C129 155.898 129 155.998 129 156.098C129.1 156.298 129.3 156.398 129 156.598C129 156.598 128.8 156.698 128.6 156.698C128.4 156.698 128.2 156.598 128.1 156.498C127.4 155.798 127.4 154.998 127.2 154.598C127.1 154.098 126.9 153.598 126.8 153.098C126.6 152.098 126.4 151.098 126.4 149.898C126.4 146.498 126.5 143.098 126.7 139.798H126.4Z" fill="black"/>
<path d="M177.5 121.899C179.299 119.799 181.199 117.699 182.899 115.399C183.499 114.599 184.4 113.899 184.6 112.699C184.7 112.099 185.799 111.699 186.399 110.899C187.899 108.799 189.399 106.699 190.699 104.399C191.999 102.199 193 99.8992 194.1 97.6992C195.1 95.4992 196.4 93.2992 197 90.8992C197.5 88.8992 198.499 87.2992 198.699 85.4992C198.899 83.5992 198.8 81.7992 198.6 80.0992C198.4 78.8992 198 77.5992 197.1 76.7992C196.5 76.2992 195.799 76.1992 195.199 75.7992C194.599 75.4992 193.799 74.8992 193 75.3992C193 75.3992 192.599 75.2992 192.5 75.1992C191.7 74.6992 190.599 74.7992 189.899 75.1992C189.299 75.5992 188.7 75.6992 188 75.8992C186.299 76.4992 184.5 77.3992 182.8 78.3992C181.5 79.1992 179.999 79.8992 178.699 80.6992C177.299 81.5992 176.1 82.8992 174.8 83.5992C174.1 83.9992 173.499 84.3992 172.899 84.8992C172.299 85.3992 171.799 85.8992 171.199 86.3992C170.599 86.9992 169.699 87.4992 169.699 88.3992C169.699 88.3992 169.5 88.6992 169.3 88.7992C167 89.9992 166.299 92.4992 164.699 94.2992C162.999 96.1992 161.699 98.3992 160.399 100.599C160.099 101.199 159.499 101.699 159.699 102.499C159.699 102.799 159.399 103.399 159.199 103.599C157.799 104.999 157.299 106.999 156.499 108.699C155.599 110.699 155.099 112.899 153.899 114.899C153.399 115.699 152.899 116.999 153.199 118.199C153.299 118.799 152.8 119.799 152.6 120.599C152.5 121.299 152.599 121.999 152.399 122.599C152.299 123.199 151.899 123.699 151.699 124.199C151.699 124.399 151.6 124.599 151.6 124.699C151.6 127.999 150 131.099 149.6 134.399C149.2 137.699 148.5 140.999 148.1 144.199C147.9 145.999 147.7 147.699 146.6 148.999C146.1 149.599 145.599 149.599 145.199 148.899C144.899 148.299 144.7 147.599 144.6 146.899C144.6 145.799 144.399 144.699 144.399 143.599C144.399 141.399 144.199 139.099 144.899 136.899C145.099 136.199 144.9 135.399 145.6 134.899C145.6 134.899 145.8 134.599 145.8 134.399C145.6 131.299 146.599 128.399 147.199 125.399C147.699 122.799 147.7 120.199 148.6 117.699C148.4 116.099 149 114.499 149.6 113.099C151.8 108.299 153.4 103.299 156.1 98.6992C158.8 94.0992 161.999 89.6992 165.699 85.7992C166.299 85.0992 166.6 84.2992 167.6 83.7992C168.5 83.2992 169.299 82.2992 170.199 81.4992C170.999 80.7992 171.8 79.8992 172.6 79.3992C174.4 78.2992 176.1 77.0992 177.8 75.8992C179.5 74.6992 181.199 73.4992 183.199 72.4992C185.199 71.5992 187.3 70.7992 189.6 70.4992C191.9 70.1992 194.299 70.4992 196.5 71.3992C197.9 71.9992 199.199 72.8992 200.199 73.9992C201.199 75.0992 201.999 76.4992 202.399 77.8992C202.699 79.0992 203.3 80.3992 202.8 81.5992C202.7 81.8992 203.1 83.0992 203.1 83.7992C203.1 85.6992 202.5 87.4992 202 89.2992C201.299 91.6992 200.299 93.8992 199.399 96.0992C198.799 97.4992 198.4 98.8992 197.8 100.199C197.1 101.599 196.4 102.999 195.5 104.299C194.4 105.999 193.2 107.499 192.1 109.099C190.9 110.699 189.9 112.599 188.5 113.999C185.9 116.599 183.9 119.399 181.6 122.099C179.3 124.699 176.799 127.299 174.499 129.899C173.199 131.399 171.6 132.299 170.3 133.799C169.7 134.499 167.799 134.299 167.699 133.799C167.699 133.699 167.699 133.499 167.699 133.399C168.599 131.699 169.3 129.899 170.8 128.399C173.1 126.099 175.2 123.799 177.3 121.399L177.5 121.899Z" fill="black"/>
</svg>
