<svg width="300" height="300" viewBox="0 0 300 300" fill="none" xmlns="http://www.w3.org/2000/svg">
<path d="M184.602 141.498C184.302 141.198 184.102 140.898 183.702 140.598C183.602 140.598 183.702 140.198 183.202 140.398C182.902 140.498 183.302 139.998 183.202 139.898C182.902 139.698 182.702 139.298 182.402 139.098C182.102 138.898 181.702 138.698 181.402 138.498C181.102 138.298 181.102 137.798 180.602 137.698C180.202 137.698 180.402 137.098 180.102 136.998C179.802 136.798 179.502 136.698 179.502 136.298C179.502 135.998 179.502 135.698 179.302 135.598C179.202 135.598 178.802 135.598 178.702 135.598C178.702 135.498 178.702 135.198 178.202 135.598C178.202 135.598 178.202 135.598 178.202 135.398C178.402 134.998 178.202 134.898 178.002 134.998C177.702 134.998 177.702 134.998 177.602 134.998C177.402 134.798 177.102 134.598 177.002 134.298C176.902 134.098 176.902 133.798 176.802 133.498C176.702 133.298 176.302 133.298 176.402 132.898C176.402 132.498 176.402 132.398 176.202 132.198C176.202 132.198 176.202 131.798 175.702 132.198C176.102 131.398 175.002 131.798 174.902 131.398C174.902 130.998 174.402 130.798 174.202 130.498C174.202 130.498 174.202 130.198 173.802 130.498C173.702 130.498 173.602 130.498 173.602 130.398C173.902 129.798 173.402 129.798 173.302 129.498C173.202 129.198 172.702 129.098 172.902 128.498C172.902 128.298 172.902 127.998 172.402 128.298C172.102 128.398 172.202 128.098 172.102 128.098C172.002 128.098 171.702 128.098 171.702 128.098C171.702 128.098 171.702 127.798 171.702 127.698C170.902 127.698 171.202 126.798 170.702 126.598C170.202 126.398 169.902 125.898 169.702 125.498C169.602 125.298 169.502 124.898 170.202 123.998C170.502 123.598 170.902 123.198 171.202 123.098C171.402 122.998 171.702 122.898 171.802 122.898C172.002 122.898 172.202 122.898 172.402 122.998C172.802 123.098 173.402 122.998 173.402 123.398C173.402 123.498 173.702 123.398 173.402 123.798V123.898C174.302 123.698 174.202 124.398 174.602 124.698C174.902 124.898 175.602 124.698 175.702 125.298C176.302 124.998 176.402 125.298 176.402 125.598C176.402 126.598 177.302 126.898 177.702 127.498C178.102 128.098 178.702 128.598 179.202 129.198C179.202 129.298 179.602 129.198 179.502 129.398C179.502 129.698 179.702 129.698 179.802 129.798C179.902 129.898 180.102 129.898 180.102 130.198C180.102 131.098 180.702 131.298 181.002 131.798C181.302 132.298 181.702 132.798 182.202 133.098C182.502 133.298 183.002 133.298 183.202 133.698C183.202 133.898 183.602 133.698 183.202 134.298C183.202 134.398 183.502 134.298 183.602 134.298C183.802 134.498 183.902 134.698 184.102 134.798C184.302 135.098 184.502 135.298 184.802 135.598C185.002 135.698 185.302 135.698 185.502 135.798C185.702 135.898 185.802 136.098 185.902 136.298C186.002 136.598 186.102 136.898 186.202 137.198C186.302 137.498 186.802 137.498 186.702 137.898C186.702 138.598 187.202 138.798 187.502 139.198C187.802 139.598 188.102 139.998 188.602 140.298C188.802 140.498 188.602 140.998 188.902 141.198C188.902 141.198 188.002 142.398 187.602 142.698L187.402 142.798C186.902 142.898 186.202 143.198 186.002 142.998C185.702 142.598 185.402 142.298 185.002 141.898L184.602 141.498Z" fill="black"/>
<path d="M114.401 137.797C114.401 138.697 114.401 139.597 114.401 140.497C114.401 140.797 114.201 141.197 114.701 141.497C115.001 141.697 114.301 141.997 114.401 142.297C114.401 143.097 114.401 143.997 114.601 144.797C114.701 145.597 115.001 146.397 115.101 147.197C115.201 147.997 115.001 148.797 115.401 149.597C115.701 150.197 115.301 150.897 115.401 151.497C115.601 152.197 115.701 152.897 115.601 153.497C115.501 153.997 115.301 154.497 115.501 154.997C115.601 155.297 116.001 155.497 116.001 155.897C116.001 156.197 115.801 156.597 116.401 156.797C116.401 156.797 116.401 156.997 116.301 156.997C115.901 157.397 116.001 157.797 116.301 157.997C116.601 158.197 116.601 158.497 116.601 158.697C116.701 159.397 116.801 160.097 116.901 160.697C116.901 161.197 116.801 161.797 116.801 162.297C116.801 162.797 117.201 163.397 117.001 163.897C116.801 164.397 116.901 164.897 117.001 165.397C117.001 165.697 116.801 165.997 117.501 166.197C117.501 166.197 117.501 166.297 117.501 166.397C116.801 167.297 118.001 167.897 117.901 168.697C117.901 169.497 118.101 170.397 118.301 171.197C118.301 171.397 118.301 171.697 118.701 171.797C118.901 171.797 118.901 172.097 118.801 172.197C118.301 172.897 118.801 173.497 118.801 174.097C118.801 174.797 119.201 175.497 118.801 176.297C118.701 176.597 118.601 177.097 119.301 177.297C119.601 177.397 119.301 177.797 119.501 178.097C119.501 178.297 119.901 178.497 119.901 178.697C119.901 178.897 119.701 179.097 119.701 179.297C119.701 179.297 119.701 179.397 119.701 179.497C120.501 180.397 119.901 181.597 120.201 182.597C120.601 183.597 120.701 184.697 120.801 185.797C120.801 186.397 120.801 186.997 119.701 187.597C119.201 187.897 118.701 187.997 118.301 187.797C118.001 187.697 117.801 187.497 117.701 187.297C117.501 186.997 117.401 186.697 117.201 186.397C116.901 185.797 116.201 185.197 116.401 184.397C116.401 184.197 116.101 183.997 116.601 183.697C116.601 183.697 116.601 183.597 116.601 183.497C115.601 182.697 116.001 181.597 115.701 180.697C115.501 179.897 114.701 179.197 114.801 178.397C114.101 178.097 114.101 177.497 114.201 176.997C114.601 175.297 113.801 173.697 113.601 172.097C113.401 170.397 113.001 168.797 112.801 167.197C112.801 166.897 112.401 166.697 112.601 166.397C112.801 166.097 112.601 165.697 112.501 165.297C112.501 164.997 112.301 164.597 112.401 164.297C112.901 162.897 112.301 161.697 112.201 160.397C112.201 159.097 112.001 157.797 111.701 156.497C111.501 155.697 111.101 154.997 111.101 154.197C111.101 153.897 110.701 153.497 111.301 153.097C111.501 152.997 111.001 152.697 110.901 152.497C110.801 151.997 110.801 151.397 110.701 150.897C110.701 150.097 110.701 149.397 110.501 148.597C110.501 148.097 110.101 147.697 110.001 147.197C109.901 146.697 109.901 146.197 110.001 145.697C110.001 145.097 110.201 144.497 110.201 143.797C110.201 143.197 109.901 142.497 110.201 141.897C110.701 140.697 110.401 139.597 110.401 138.497C110.401 137.397 110.401 136.197 110.401 135.097C110.401 134.497 110.801 133.897 110.901 133.297C110.901 132.997 112.401 132.697 112.901 132.797C112.901 132.797 113.101 132.797 113.101 132.897C113.601 133.497 114.301 134.097 114.201 134.797C114.201 135.797 114.201 136.797 114.201 137.797H114.401Z" fill="black"/>
<path d="M166.101 147.298C166.501 147.098 166.801 146.998 167.201 146.698C167.301 146.698 167.601 146.698 167.501 146.198C167.501 145.898 167.901 146.398 168.001 146.398C168.301 146.198 168.701 146.098 169.001 145.898C169.301 145.698 169.501 145.298 169.801 145.098C170.101 144.898 170.601 145.098 170.801 144.598C171.001 144.198 171.401 144.598 171.601 144.298C171.801 144.098 172.101 143.898 172.501 143.998C172.801 143.998 173.101 144.198 173.201 143.998C173.201 143.898 173.201 143.498 173.401 143.498C173.501 143.498 173.801 143.698 173.701 142.998C173.701 142.998 173.701 142.998 173.901 142.998C174.201 143.298 174.401 143.198 174.401 142.998C174.401 142.698 174.501 142.698 174.601 142.598C174.901 142.498 175.201 142.298 175.501 142.298C175.701 142.298 176.001 142.298 176.301 142.298C176.501 142.298 176.701 141.898 177.001 142.098C177.301 142.298 177.501 142.198 177.701 142.098C177.801 142.098 178.101 142.298 177.901 141.598C178.501 142.298 178.501 141.098 178.901 141.198C179.301 141.198 179.601 140.998 180.001 140.898C180.001 140.898 180.301 140.998 180.201 140.498C180.201 140.298 180.201 140.298 180.401 140.398C180.901 140.898 181.001 140.398 181.301 140.398C181.601 140.398 181.901 139.998 182.301 140.398C182.501 140.598 182.701 140.598 182.701 139.998C182.701 139.698 182.901 139.998 183.001 139.798C183.001 139.798 183.001 139.398 183.201 139.398C183.201 139.398 183.401 139.598 183.501 139.698C183.801 138.898 184.501 139.698 184.901 139.298C185.301 138.998 185.801 138.898 186.301 138.898C186.601 138.898 186.901 138.898 187.401 139.998C187.601 140.498 187.801 140.998 187.701 141.398C187.701 141.698 187.701 141.898 187.601 141.998C187.501 142.098 187.401 142.298 187.301 142.398C187.101 142.698 186.901 143.298 186.601 143.098C186.501 143.098 186.501 143.398 186.201 142.898C186.001 143.798 185.501 143.398 185.101 143.598C184.801 143.798 184.601 144.498 184.201 144.298C184.201 144.998 184.001 144.898 183.701 144.798C182.801 144.398 182.301 144.998 181.601 145.198C180.901 145.298 180.301 145.698 179.601 145.898C179.501 145.898 179.601 146.298 179.301 146.098C179.101 145.898 179.001 146.098 178.801 146.198C178.701 146.198 178.601 146.398 178.401 146.298C177.601 145.898 177.301 146.498 176.701 146.598C176.201 146.698 175.601 146.898 175.201 147.298C174.901 147.498 174.801 147.998 174.401 147.998C174.201 147.998 174.201 148.398 173.901 147.898C173.801 147.798 173.901 148.198 173.801 148.298C173.601 148.398 173.401 148.498 173.201 148.598C172.901 148.698 172.601 148.798 172.301 148.998C172.101 149.098 172.101 149.398 171.901 149.598C171.701 149.698 171.601 149.798 171.301 149.898C171.001 149.898 170.701 149.898 170.401 149.898C170.101 149.898 170.001 150.298 169.601 150.198C168.901 149.998 168.601 150.398 168.201 150.598C167.701 150.798 167.301 150.898 166.901 151.298C166.701 151.498 166.201 151.198 166.001 151.298C165.901 151.298 165.101 150.098 164.901 149.698V149.498C164.901 148.998 164.801 148.198 165.101 148.098C165.501 147.998 165.901 147.698 166.301 147.498L166.101 147.298Z" fill="black"/>
<path d="M168.602 166.198C168.602 165.898 168.502 165.498 168.302 165.198C168.302 165.098 168.502 164.898 167.902 164.898C167.602 164.898 168.202 164.598 168.202 164.498C168.102 164.198 168.102 163.898 167.902 163.598C167.802 163.298 167.502 163.098 167.302 162.798C167.202 162.498 167.302 162.098 167.002 161.898C166.702 161.698 167.102 161.398 167.002 161.198C166.802 160.998 166.702 160.698 166.802 160.398C166.902 160.198 167.102 159.998 166.902 159.798C166.902 159.798 166.502 159.698 166.502 159.598C166.502 159.498 166.702 159.298 166.102 159.298C166.102 159.298 166.102 159.298 166.202 159.198C166.602 158.998 166.502 158.798 166.202 158.798C165.902 158.798 165.902 158.698 165.902 158.598C165.902 158.398 165.702 158.098 165.702 157.898C165.702 157.698 165.902 157.498 165.902 157.298C165.902 157.098 165.602 156.998 165.902 156.698C166.202 156.398 166.102 156.298 166.002 156.098C166.002 156.098 166.202 155.798 165.602 155.898C166.302 155.398 165.202 155.398 165.302 155.098C165.402 154.798 165.302 154.498 165.102 154.198C165.102 154.198 165.202 153.998 164.802 153.998C164.602 153.998 164.602 153.998 164.702 153.898C165.202 153.498 164.802 153.398 164.902 153.098C164.902 152.798 164.602 152.598 164.902 152.198C165.102 151.998 165.102 151.898 164.502 151.898C164.202 151.898 164.502 151.698 164.402 151.598C164.402 151.598 164.002 151.598 164.002 151.498C164.002 151.498 164.202 151.298 164.302 151.198C163.602 150.998 164.302 150.398 164.002 150.098C163.702 149.798 163.702 149.398 163.602 148.998C163.602 148.798 163.602 148.498 164.702 147.998C165.202 147.798 165.702 147.598 166.002 147.598C166.202 147.598 166.502 147.598 166.602 147.598C166.702 147.598 166.902 147.798 167.002 147.898C167.302 148.098 167.902 148.198 167.702 148.498C167.702 148.598 168.002 148.598 167.502 148.798C168.402 148.898 168.002 149.398 168.102 149.798C168.202 150.098 168.902 150.198 168.702 150.598C169.402 150.598 169.302 150.798 169.202 150.998C168.702 151.798 169.302 152.198 169.402 152.898C169.402 153.498 169.702 154.098 169.802 154.698C169.802 154.798 170.202 154.798 170.002 154.998C169.802 155.198 170.002 155.298 170.002 155.398C170.002 155.498 170.202 155.598 170.002 155.798C169.502 156.398 170.002 156.798 170.002 157.298C170.002 157.798 170.002 158.298 170.402 158.698C170.602 158.998 171.002 159.198 170.902 159.498C170.902 159.598 171.202 159.698 170.702 159.898C170.502 159.898 171.002 159.898 171.102 160.098C171.102 160.298 171.202 160.498 171.302 160.698C171.302 160.998 171.302 161.298 171.502 161.498C171.502 161.698 171.902 161.798 172.002 161.898C172.102 162.098 172.102 162.198 172.102 162.398C172.102 162.598 171.902 162.898 171.902 163.098C171.902 163.298 172.202 163.498 172.002 163.798C171.602 164.298 172.002 164.698 172.002 165.098C172.002 165.498 172.102 165.898 172.302 166.298C172.402 166.498 172.002 166.798 172.102 167.098C172.102 167.098 170.702 167.698 170.202 167.798H170.002C169.502 167.798 168.702 167.798 168.702 167.398C168.702 166.998 168.502 166.698 168.402 166.298L168.602 166.198Z" fill="black"/>
<path d="M162.2 186.199C162.3 185.799 162.5 185.399 162.5 184.999C162.5 184.799 162.8 184.799 162.4 184.499C162.2 184.299 162.8 184.399 162.8 184.199C162.8 183.799 163.1 183.499 163.1 183.099C163.1 182.699 163.1 182.299 163.1 181.899C163.1 181.499 163.6 181.299 163.4 180.799C163.2 180.399 163.8 180.299 163.8 179.999C163.8 179.699 163.8 179.299 164.1 179.099C164.3 178.899 164.6 178.799 164.6 178.599C164.6 178.399 164.3 178.199 164.4 178.099C164.4 177.999 164.8 177.899 164.2 177.599C164.2 177.599 164.2 177.599 164.4 177.599C164.8 177.599 164.9 177.399 164.6 177.199C164.4 176.999 164.5 176.899 164.5 176.799C164.5 176.499 164.6 176.199 164.8 175.899C164.9 175.699 165.2 175.599 165.4 175.399C165.5 175.199 165.4 174.899 165.7 174.699C166.1 174.599 166.1 174.399 166.2 174.199C166.2 174.099 166.6 173.999 166 173.699C166.9 173.699 166 172.999 166.3 172.699C166.6 172.399 166.6 171.999 166.7 171.699C166.7 171.699 166.9 171.599 166.5 171.299C166.4 171.299 166.4 171.099 166.5 171.099C167.2 171.099 166.9 170.599 167.1 170.399C167.3 170.099 167.1 169.699 167.7 169.599C167.9 169.599 168.1 169.399 167.6 169.099C167.4 168.899 167.6 168.899 167.6 168.799C167.6 168.699 167.3 168.499 167.4 168.399C167.4 168.399 167.7 168.399 167.8 168.299C167.3 167.699 168.3 167.499 168.2 166.999C168.2 166.699 168.2 166.599 168.2 166.299C168.2 165.999 168.4 165.699 168.6 165.299C168.8 164.899 169.3 164.499 170.4 165.099C170.9 165.299 171.3 165.699 171.5 165.999C171.6 166.199 171.8 166.399 171.8 166.499C171.8 166.599 171.9 166.799 172 166.899C172.1 167.099 172.6 167.399 172.2 167.699C172.1 167.699 172.3 167.999 171.8 167.899C172.5 168.499 171.8 168.899 171.8 169.299C171.8 169.699 172.2 170.199 171.8 170.499C172.3 170.899 172.2 171.099 171.9 171.199C171 171.699 171.2 172.499 170.9 173.199C170.6 173.899 170.4 174.599 170.1 175.299C170.1 175.399 170.4 175.599 170.1 175.699C169.8 175.699 169.9 175.999 169.9 176.099C169.9 176.199 169.9 176.399 169.7 176.499C168.9 176.799 169.1 177.499 168.8 177.999C168.5 178.499 168.3 178.999 168.3 179.599C168.3 179.999 168.5 180.399 168.3 180.699C168.2 180.799 168.5 181.099 167.9 180.999C167.7 180.999 168.1 181.299 168.1 181.399C168.1 181.599 168 181.899 167.9 182.099C167.8 182.399 167.6 182.699 167.6 183.099C167.6 183.299 167.7 183.599 167.7 183.799C167.7 183.999 167.7 184.199 167.5 184.399C167.3 184.599 167.1 184.799 166.9 185.099C166.8 185.299 166.9 185.699 166.6 185.899C166 186.199 166.1 186.799 165.9 187.199C165.7 187.599 165.5 188.099 165.5 188.599C165.5 188.899 165 188.999 164.9 189.199C164.9 189.299 163.4 189.199 162.9 188.999H162.7C162.3 188.599 161.7 188.199 161.8 187.899C162 187.399 162.1 186.999 162.2 186.499V186.199Z" fill="black"/>
<path d="M151.001 135.797C151.001 135.997 150.901 136.097 150.901 136.297C150.901 136.297 150.601 136.297 151.101 136.597C151.401 136.597 150.701 136.597 150.701 136.597C150.701 136.797 150.701 136.897 150.701 137.097C150.701 137.297 150.901 137.497 150.901 137.597C150.901 137.797 150.601 137.897 150.901 138.097C151.201 138.297 150.601 138.297 150.701 138.397C150.801 138.597 150.901 138.697 150.701 138.797C150.501 138.797 150.301 138.897 150.401 138.997C150.401 138.997 150.801 139.197 150.701 139.197C150.701 139.197 150.401 139.197 151.001 139.397C151.001 139.397 151.001 139.397 150.801 139.397C150.401 139.397 150.401 139.397 150.701 139.597C151.001 139.597 150.901 139.697 150.901 139.797C150.901 139.897 150.901 140.097 150.901 140.197C150.901 140.197 150.601 140.397 150.501 140.497C150.501 140.497 150.701 140.697 150.401 140.797C150.101 140.797 150.101 140.997 150.101 141.097C150.101 141.097 149.801 141.197 150.401 141.297C149.601 141.397 150.601 141.597 150.401 141.797C150.201 141.997 150.401 142.097 150.401 142.297C150.401 142.297 150.201 142.297 150.701 142.397C150.901 142.397 150.901 142.397 150.701 142.397C150.101 142.497 150.501 142.597 150.301 142.797C150.201 142.897 150.501 143.097 150.001 143.197C149.801 143.197 149.701 143.397 150.301 143.397C150.601 143.397 150.301 143.497 150.301 143.597C150.301 143.597 150.601 143.597 150.601 143.697C150.601 143.697 150.401 143.697 150.301 143.797C151.001 143.997 150.101 144.197 150.301 144.397C150.501 144.597 150.401 144.797 150.301 144.997C150.301 145.097 150.101 145.297 148.901 145.397C148.401 145.397 147.801 145.497 147.501 145.497C147.301 145.497 147.001 145.497 147.001 145.497C146.901 145.497 146.801 145.397 146.701 145.297C146.501 145.197 145.901 145.097 146.201 144.897C146.201 144.897 146.001 144.897 146.501 144.697C145.701 144.497 146.201 144.297 146.101 144.097C146.101 143.897 145.401 143.797 145.701 143.597C145.101 143.597 145.201 143.397 145.401 143.297C146.101 142.897 145.601 142.597 145.701 142.197C145.701 141.797 145.701 141.497 145.701 141.097C145.701 141.097 145.401 140.997 145.701 140.897C146.001 140.897 145.701 140.697 145.701 140.697C145.701 140.697 145.601 140.497 145.701 140.497C146.401 140.297 146.001 139.897 146.101 139.697C146.201 139.397 146.301 139.097 146.101 138.797C146.101 138.597 145.701 138.397 145.901 138.197C145.901 138.197 145.601 137.997 146.201 137.997C146.401 137.997 145.901 137.897 145.901 137.797C145.901 137.697 145.901 137.597 145.901 137.397C145.901 137.197 146.001 137.097 145.901 136.897C145.901 136.797 145.701 136.597 145.601 136.497C145.601 136.397 145.601 136.297 145.601 136.197C145.701 136.097 145.901 135.997 146.001 135.897C146.001 135.797 145.901 135.597 146.201 135.497C146.801 135.397 146.601 135.097 146.701 134.797C146.801 134.597 146.901 134.397 146.901 134.097C146.901 133.897 147.401 133.997 147.401 133.797C147.401 133.797 148.901 134.097 149.301 134.197H149.501C149.901 134.497 150.601 134.797 150.501 134.897C150.401 135.097 150.401 135.297 150.301 135.497L151.001 135.797Z" fill="black"/>
<path d="M162.302 135.797C162.302 135.997 162.202 136.097 162.202 136.297C162.202 136.297 161.902 136.297 162.402 136.597C162.702 136.597 162.002 136.597 162.002 136.597C162.002 136.797 162.002 136.897 162.002 137.097C162.002 137.297 162.202 137.497 162.202 137.597C162.202 137.797 161.902 137.897 162.202 138.097C162.502 138.297 161.902 138.297 162.002 138.397C162.102 138.597 162.202 138.697 162.002 138.797C161.802 138.797 161.602 138.897 161.702 138.997C161.702 138.997 162.102 139.197 162.002 139.197C162.002 139.197 161.702 139.197 162.302 139.397C162.302 139.397 162.302 139.397 162.102 139.397C161.702 139.397 161.702 139.397 162.002 139.597C162.302 139.597 162.202 139.697 162.202 139.797C162.202 139.897 162.202 140.097 162.202 140.197C162.202 140.197 161.902 140.397 161.802 140.497C161.802 140.497 162.002 140.697 161.702 140.797C161.402 140.797 161.402 140.997 161.402 141.097C161.402 141.097 161.102 141.197 161.702 141.297C160.902 141.397 161.902 141.597 161.702 141.797C161.502 141.997 161.702 142.097 161.702 142.297C161.702 142.297 161.502 142.297 162.002 142.397C162.202 142.397 162.202 142.397 162.002 142.397C161.402 142.497 161.802 142.597 161.602 142.797C161.502 142.897 161.802 143.097 161.302 143.197C161.102 143.197 161.002 143.397 161.602 143.397C161.902 143.397 161.602 143.497 161.602 143.597C161.602 143.597 161.902 143.597 161.902 143.697C161.902 143.697 161.702 143.697 161.602 143.797C162.302 143.997 161.402 144.197 161.602 144.397C161.802 144.597 161.702 144.797 161.602 144.997C161.602 145.097 161.402 145.297 160.202 145.397C159.702 145.397 159.102 145.497 158.802 145.497C158.602 145.497 158.302 145.497 158.302 145.497C158.202 145.497 158.102 145.397 158.002 145.297C157.802 145.197 157.202 145.097 157.502 144.897C157.502 144.897 157.302 144.897 157.802 144.697C157.002 144.497 157.502 144.297 157.402 144.097C157.402 143.897 156.702 143.797 157.002 143.597C156.402 143.597 156.502 143.397 156.702 143.297C157.402 142.897 156.902 142.597 157.002 142.197C157.002 141.797 157.002 141.497 157.002 141.097C157.002 141.097 156.702 140.997 157.002 140.897C157.302 140.897 157.002 140.697 157.002 140.697C157.002 140.697 156.902 140.497 157.002 140.497C157.702 140.297 157.302 139.897 157.402 139.697C157.502 139.397 157.602 139.097 157.402 138.797C157.402 138.597 157.002 138.397 157.202 138.197C157.202 138.197 156.902 137.997 157.502 137.997C157.702 137.997 157.202 137.897 157.202 137.797C157.202 137.697 157.202 137.597 157.202 137.397C157.202 137.197 157.302 137.097 157.202 136.897C157.202 136.797 157.002 136.597 156.902 136.497C156.902 136.397 156.902 136.297 156.902 136.197C157.002 136.097 157.202 135.997 157.302 135.897C157.302 135.797 157.202 135.597 157.502 135.497C158.102 135.397 157.902 135.097 158.002 134.797C158.102 134.597 158.202 134.397 158.202 134.097C158.202 133.897 158.702 133.997 158.702 133.797C158.702 133.797 160.202 134.097 160.602 134.197H160.802C161.202 134.497 161.902 134.797 161.802 134.897C161.702 135.097 161.702 135.297 161.602 135.497L162.302 135.797Z" fill="black"/>
<path d="M162.601 169.697C162.401 169.697 162.101 169.797 161.901 169.897C161.901 169.897 161.701 169.697 161.701 170.297C161.701 170.597 161.501 169.997 161.401 169.997C161.201 170.097 160.901 169.997 160.701 170.197C160.501 170.197 160.301 170.597 160.001 170.597C159.801 170.597 159.501 170.397 159.301 170.697C159.101 170.997 158.901 170.497 158.701 170.697C158.501 170.797 158.301 170.897 158.101 170.697C158.001 170.497 157.801 170.297 157.701 170.397C157.701 170.397 157.501 170.797 157.401 170.697C157.401 170.697 157.201 170.397 157.101 170.997C157.101 170.997 157.101 170.997 157.101 170.797C157.101 170.397 156.901 170.397 156.801 170.697C156.701 170.997 156.601 170.897 156.501 170.897C156.301 170.897 156.101 170.897 155.901 170.897C155.801 170.897 155.701 170.597 155.501 170.497C155.401 170.497 155.101 170.697 155.101 170.297C155.101 169.997 154.901 169.897 154.801 169.897C154.801 169.897 154.801 169.597 154.501 170.197C154.501 169.397 154.001 170.297 153.801 169.997C153.601 169.697 153.401 169.797 153.101 169.697C153.101 169.697 153.101 169.497 152.801 169.897C152.801 169.997 152.601 169.997 152.701 169.897C152.701 169.197 152.501 169.497 152.301 169.397C152.201 169.197 151.801 169.397 151.901 168.797C151.901 168.597 151.901 168.397 151.501 168.797C151.301 168.997 151.401 168.797 151.301 168.797L151.001 168.997C151.001 168.997 151.001 168.697 151.001 168.597C150.401 168.997 150.601 168.097 150.301 167.997C149.901 167.997 149.701 167.697 149.501 167.397C149.501 167.197 149.401 166.997 150.101 166.097C150.401 165.697 150.801 165.297 151.101 165.097C151.301 164.997 151.501 164.797 151.601 164.797C151.701 164.797 151.901 164.797 152.001 164.697C152.201 164.697 152.701 164.297 152.601 164.697C152.601 164.697 152.801 164.597 152.601 164.997C153.201 164.497 153.101 164.997 153.301 164.997C153.501 164.997 153.901 164.597 153.901 164.997C154.301 164.497 154.301 164.597 154.301 164.797C154.301 165.497 154.801 165.297 155.001 165.497C155.301 165.697 155.601 165.697 155.901 165.897C155.901 165.897 156.101 165.597 156.101 165.897C156.101 166.197 156.201 165.897 156.301 165.997H156.501C156.601 166.697 157.001 166.397 157.201 166.497C157.501 166.497 157.701 166.697 158.001 166.497C158.201 166.497 158.301 166.097 158.501 166.197C158.501 166.197 158.601 165.897 158.701 166.497C158.701 166.697 158.701 166.197 158.801 166.197C158.901 166.197 159.001 166.197 159.101 166.197C159.201 166.197 159.401 166.197 159.501 166.197C159.501 166.197 159.701 165.897 159.701 165.797C159.701 165.797 159.901 165.797 160.001 165.797C160.101 165.797 160.301 165.997 160.401 166.097C160.501 166.097 160.601 165.797 160.801 166.097C161.101 166.497 161.301 166.197 161.501 166.197C161.701 166.197 162.001 166.197 162.101 165.997C162.101 165.897 162.501 166.297 162.601 166.297C162.601 166.297 163.301 167.597 163.501 168.097V168.297C163.501 168.797 163.701 169.497 163.501 169.497C163.201 169.497 162.901 169.697 162.701 169.797L162.601 169.697Z" fill="black"/>
<path d="M129.399 164.701C128.599 164.901 127.799 165.001 126.999 165.101C126.699 165.101 126.399 164.901 126.099 165.401C125.899 165.701 125.699 165.001 125.399 165.001C124.599 165.001 123.899 164.801 123.199 164.701C122.499 164.601 121.699 164.601 120.999 164.301C120.299 164.101 119.799 163.501 118.999 163.401C118.299 163.401 118.199 162.601 117.699 162.301C117.099 162.001 116.599 161.601 116.399 161.101C116.199 160.701 116.099 160.201 115.699 160.001C115.499 159.801 115.099 159.801 114.899 159.601C114.699 159.301 114.799 158.901 114.099 159.001C114.099 159.001 114.099 158.801 114.099 158.701C114.299 158.201 114.099 157.801 113.699 157.601C113.299 157.401 113.299 157.101 113.199 156.801C112.999 156.001 112.899 155.201 113.099 154.501C113.099 154.001 113.499 153.501 113.699 153.001C113.899 152.501 113.699 151.901 114.199 151.501C114.699 151.201 114.799 150.801 114.999 150.401C115.099 150.201 115.499 150.101 114.999 149.601V149.501C116.099 149.401 115.599 148.201 116.299 147.701C116.999 147.301 117.499 146.701 118.099 146.201C118.299 146.101 118.599 146.201 118.499 145.601C118.499 145.401 118.699 145.301 118.799 145.301C119.599 145.601 119.999 144.901 120.599 144.801C121.299 144.701 121.899 144.201 122.599 144.601C122.899 144.801 123.299 144.801 123.599 144.201C123.699 143.901 124.099 144.201 124.299 144.101C124.499 144.101 124.699 143.801 124.899 143.801C125.099 143.801 125.199 144.001 125.399 144.201C125.399 144.201 125.499 144.201 125.599 144.201C126.699 143.601 127.499 144.701 128.499 144.801C129.499 144.901 130.399 145.401 131.199 146.001C131.599 146.301 131.999 146.801 131.599 147.901C131.399 148.401 130.999 148.801 130.699 149.001C130.399 149.101 130.199 149.201 129.999 149.201C129.799 149.201 129.499 149.201 129.299 149.201C128.799 149.201 128.199 149.401 127.899 149.001C127.899 148.901 127.499 149.001 127.599 148.601V148.501C126.799 149.101 126.399 148.501 125.699 148.501C125.199 148.501 124.699 149.101 124.199 148.901C123.999 149.501 123.699 149.501 123.399 149.301C122.899 149.101 122.399 149.101 121.999 149.301C121.599 149.501 121.199 149.801 120.799 150.001C119.899 150.501 119.299 151.201 118.699 152.001C118.699 152.101 118.799 152.401 118.499 152.501C118.199 152.501 118.299 152.801 118.199 153.001C118.199 153.201 118.199 153.401 117.999 153.501C117.099 154.001 117.299 155.001 117.299 155.601C117.299 155.901 117.299 156.201 117.399 156.501C117.499 156.801 117.699 157.101 117.999 157.301C118.299 157.601 118.899 157.801 119.199 158.201C119.299 158.401 119.699 158.201 119.499 158.901C119.499 159.101 119.899 158.901 119.999 158.901C120.299 159.101 120.499 159.301 120.799 159.501C121.199 159.801 121.599 160.101 121.999 160.201C122.299 160.301 122.599 160.201 122.899 160.201C123.199 160.201 123.499 160.301 123.699 160.501C123.999 160.701 124.299 161.001 124.699 161.101C125.099 161.201 125.499 161.001 125.799 161.301C126.499 161.801 127.199 161.501 127.899 161.401C128.599 161.401 129.299 161.101 129.899 160.701C130.199 160.501 130.799 160.701 131.099 160.501C131.199 160.501 132.299 161.401 132.599 161.901V162.101C132.499 162.801 132.399 163.701 131.799 163.901C130.899 164.301 130.099 164.601 129.199 164.801L129.399 164.701Z" fill="black"/>
<path d="M150.899 119.502C150.899 119.302 150.899 119.202 150.899 119.202C150.899 119.202 150.899 119.202 150.699 119.202C150.699 119.202 150.499 119.002 150.399 118.902C150.399 118.902 150.299 118.802 150.199 118.702H150.099C148.899 115.102 149.799 117.702 149.499 116.902L149.799 117.302C149.799 117.402 149.799 117.502 149.799 117.502V117.702L150.199 118.402L150.499 119.102L150.699 119.502C150.999 119.502 151.499 119.302 152.399 118.702L152.799 119.302C152.899 119.502 153.099 119.702 153.199 119.902C153.499 120.202 153.799 120.502 154.099 120.802C154.399 121.002 154.699 121.302 154.899 121.402L155.399 121.702C156.099 122.102 156.799 122.402 157.599 122.702C158.199 122.902 158.799 123.102 159.399 123.202C159.999 123.202 160.699 123.202 161.399 123.002C161.999 122.802 163.299 123.302 164.499 123.002C166.099 122.602 167.699 122.102 169.199 121.302C169.899 121.002 170.499 120.602 170.899 120.102C171.099 119.902 171.199 119.702 171.299 119.502C171.299 119.402 171.299 119.302 171.299 119.302C171.299 119.302 171.299 119.302 171.199 119.302C171.199 119.302 170.899 119.302 170.599 119.302H170.199H169.999C169.999 119.302 169.899 119.302 169.699 119.302C169.399 117.802 169.199 117.302 168.899 117.102C168.699 116.902 168.599 116.902 168.399 116.902C168.399 116.902 168.299 116.902 168.199 116.902C168.399 116.502 168.499 116.102 168.499 114.602C169.399 114.502 169.999 114.302 170.699 114.102C171.099 114.002 171.499 113.802 171.899 113.702C172.299 113.602 172.699 113.302 172.899 113.202C173.199 113.002 173.499 112.802 173.799 112.602C174.399 112.202 174.999 111.702 175.399 111.202C175.899 110.702 176.199 110.102 176.499 109.502C176.699 108.902 176.899 108.202 176.899 107.602C176.899 105.502 176.499 103.602 174.699 102.702C172.799 101.902 169.899 102.002 167.299 102.302C165.499 102.502 163.699 103.002 162.799 104.302V104.502C162.699 104.502 159.899 101.802 159.899 101.802C160.599 101.102 161.099 100.202 161.599 99.3017C161.899 98.9017 162.199 98.4017 162.299 97.9017C162.399 97.4017 162.399 96.9017 162.099 96.6017C162.099 96.6017 162.099 96.2017 162.199 96.0017C162.299 95.5017 162.199 95.0017 161.999 94.5017C161.799 94.1017 161.399 93.7017 160.999 93.7017C160.299 93.5017 160.099 93.4017 159.399 93.4017C158.999 93.4017 158.399 93.4017 157.799 93.6017C157.199 93.8017 156.399 94.0017 155.799 94.1017C155.099 94.3017 154.499 94.5017 153.899 94.7017C153.599 94.8017 153.299 94.9017 152.999 95.1017H152.799L152.499 95.3017C152.299 95.3017 152.199 95.5017 151.999 95.6017L151.499 96.0017C151.299 96.2017 151.199 96.3017 150.999 96.5017L150.499 97.3017L150.199 97.7017C150.199 97.8017 149.999 98.0017 149.899 98.2017L149.299 99.2017L146.399 103.902V101.802C146.299 101.802 146.199 99.7017 146.199 99.7017C146.199 98.2017 146.099 96.6017 145.999 95.2017C145.999 94.6017 145.999 94.0017 145.799 93.5017V92.7017C145.599 92.4017 145.499 92.1017 145.499 92.0017C145.299 91.5017 145.199 91.1017 144.999 90.7017C144.599 89.9017 144.099 89.4017 143.699 88.9017C142.699 87.9017 140.899 87.8017 139.099 88.2017C138.099 88.4017 136.799 88.6017 136.299 89.6017C136.299 89.6017 135.899 89.9017 135.699 89.9017C134.199 90.3017 133.099 91.4017 132.299 92.6017C132.099 92.9017 131.999 93.2017 131.799 93.5017C131.799 93.8017 131.799 93.8017 131.699 93.9017L131.499 94.5017C131.399 94.9017 131.199 95.3017 131.199 95.9017C130.999 97.9017 130.799 101.102 130.599 102.902C129.599 101.202 128.199 99.2017 126.999 97.5017L126.499 96.9017C126.399 96.7017 126.199 96.5017 125.999 96.3017C125.699 96.0017 125.399 95.6017 125.099 95.4017C124.999 95.3017 124.699 95.1017 124.599 95.0017L124.399 94.8017L123.899 94.5017C122.599 93.7017 121.099 93.2017 119.599 93.0017C118.799 92.9017 117.899 92.7017 117.299 93.2017C117.099 93.4017 116.299 93.5017 115.899 93.5017C114.799 93.5017 113.599 93.9017 112.699 94.5017C111.699 95.1017 110.899 96.0017 110.199 96.8017C109.799 97.3017 109.499 97.8017 109.299 98.2017C109.099 98.7017 108.999 99.0017 109.099 99.5017C109.099 99.6017 109.099 99.7017 109.099 99.9017C109.099 100.002 109.099 100.202 109.099 100.302L109.299 100.802C109.499 101.502 109.899 102.202 110.199 103.002L111.099 105.102L111.499 106.102L111.699 106.602C111.699 106.702 111.699 106.802 111.699 106.902L110.899 106.602C109.299 106.102 107.399 105.402 105.899 105.202C105.499 105.202 105.199 105.202 104.799 105.202H104.499H104.399H104.099C103.799 105.402 103.399 105.502 103.099 105.802C102.599 106.202 101.299 106.302 100.399 106.902C99.6992 107.302 99.1992 108.002 98.6992 108.402C98.2992 108.802 97.7992 109.002 97.4992 109.302C97.4992 109.302 97.3992 109.502 97.3992 109.602C97.3992 110.102 97.4992 110.802 97.7992 111.702C98.0992 112.502 98.4992 113.702 98.8992 114.602C99.2992 115.502 99.6992 116.402 100.199 117.002C100.699 117.602 101.399 117.902 101.999 118.002C102.299 118.002 102.599 118.002 102.799 117.902L103.899 122.302C102.699 122.402 101.799 122.602 101.199 122.802C100.999 122.902 100.699 123.102 100.599 123.302C100.499 123.502 100.399 123.502 100.399 123.602C100.399 123.602 100.399 124.002 100.799 124.602C101.099 125.102 101.499 125.702 101.899 126.102C102.599 126.802 103.399 127.402 104.199 127.902C104.999 128.302 105.599 128.702 106.499 129.002C107.299 129.202 107.699 129.702 106.599 130.402C105.799 130.902 104.599 131.102 103.499 130.802C101.799 130.402 100.299 129.502 99.0992 128.402C98.4992 127.802 97.8992 127.102 97.3992 126.402C96.8992 125.702 96.2992 124.602 96.3992 123.302C96.3992 122.702 96.5992 122.102 96.8992 121.502C97.1992 121.002 97.4992 120.502 97.8992 120.102C98.6992 119.302 99.6992 118.802 100.699 118.602C101.799 118.402 102.999 118.002 103.799 118.302L110.399 120.802L104.499 121.402C104.399 121.402 104.299 121.402 104.199 121.402C103.999 121.402 103.499 121.502 103.199 121.602C101.799 122.002 100.299 121.702 98.9992 121.102C98.3992 120.802 97.7992 120.302 97.2992 119.802C96.7992 119.302 96.3992 118.802 96.0992 118.302C95.3992 117.202 94.9992 116.102 94.5992 115.102C94.1992 114.102 93.7992 113.002 93.4992 111.702C93.2992 110.602 93.1992 109.302 93.5992 108.102C93.9992 106.902 94.6992 105.802 95.4992 105.002C96.2992 104.202 97.0992 103.602 97.9992 103.102C98.8992 102.602 99.7992 102.202 100.899 101.902C101.399 101.602 101.999 101.302 102.599 101.102C102.899 101.102 103.199 100.902 103.599 100.902C103.899 100.902 104.399 100.802 104.299 100.802C104.299 100.802 104.299 100.802 104.499 101.002C104.599 101.002 104.699 101.002 104.699 101.002C104.699 100.902 104.699 100.902 104.699 100.702V100.302C104.699 100.102 104.699 100.002 104.699 99.8017C104.699 99.5017 104.699 99.2017 104.699 98.8017C104.899 97.5017 105.399 96.4017 105.999 95.4017C106.599 94.5017 107.199 93.7017 107.999 92.9017C110.899 89.9017 115.099 88.1017 119.299 88.4017C121.699 88.6017 123.999 89.3017 125.999 90.5017C126.499 90.8017 126.999 91.1017 127.499 91.5017C127.599 91.6017 127.699 91.6017 127.699 91.7017C127.699 91.7017 127.799 91.8017 127.899 91.9017C127.899 92.1017 127.899 92.1017 127.899 92.0017C127.899 91.9017 127.899 91.7017 127.899 91.6017C127.899 91.6017 127.899 91.5017 127.899 91.4017V91.2017L128.199 90.9017C128.299 90.7017 128.499 90.5017 128.599 90.3017C129.699 88.7017 131.099 87.5017 132.599 86.5017C133.799 85.7017 134.699 84.8017 136.399 84.5017C137.999 84.2017 139.899 83.6017 141.999 83.8017C142.899 83.8017 143.899 84.1017 144.799 84.5017C145.699 84.9017 146.599 85.5017 147.199 86.2017C147.899 87.1017 148.499 88.0017 148.899 89.0017C149.099 89.5017 149.199 90.0017 149.399 90.4017C149.399 90.5017 149.399 90.6017 149.399 90.8017C149.399 90.9017 149.399 90.9017 149.399 91.0017V91.2017L149.499 92.0017V92.4017C149.499 92.4017 149.699 92.2017 149.799 92.1017C149.899 91.9017 150.099 91.8017 150.199 91.7017C150.199 91.7017 150.299 91.6017 150.399 91.5017H150.499L150.799 91.3017C151.999 90.7017 153.199 90.3017 154.399 90.0017C155.099 89.8017 155.799 89.6017 156.499 89.5017C157.199 89.3017 157.999 89.2017 158.899 89.1017C159.799 89.1017 160.699 89.1017 161.699 89.5017C162.599 89.8017 163.499 90.4017 164.099 91.0017C165.399 92.3017 166.199 94.0017 166.399 95.8017C166.599 97.7017 166.199 99.4017 165.399 100.902C164.599 102.402 163.599 103.802 162.399 104.902L159.399 102.002C160.199 100.902 161.199 100.002 162.299 99.4017C163.399 98.8017 164.499 98.4017 165.699 98.1017C167.299 97.8017 168.999 97.3017 170.599 97.8017C170.999 98.0017 172.599 97.5017 173.799 97.8017C175.199 98.0017 176.699 98.6017 177.999 99.5017C178.599 100.002 179.199 100.602 179.699 101.202C180.199 101.902 180.599 102.602 180.799 103.302C181.599 105.302 181.599 107.502 181.099 109.502C180.899 110.502 180.499 111.502 179.999 112.402C179.499 113.302 178.799 114.102 178.099 114.802C177.299 115.602 176.399 116.302 175.499 116.902L175.199 117.102H174.999V117.202C174.999 117.402 175.199 117.602 175.199 117.902C175.299 118.402 175.399 118.902 175.299 119.402C175.299 120.402 174.799 121.302 174.399 121.902C173.499 123.202 172.399 123.902 171.399 124.502C169.999 125.202 168.599 125.802 167.099 126.302C165.599 126.802 164.099 127.102 162.599 127.002C160.499 127.002 158.299 126.602 156.299 125.902C155.299 125.602 154.299 125.102 153.399 124.602C152.199 123.902 152.299 123.902 151.999 123.602C151.799 123.402 151.699 123.302 151.599 123.102C151.599 123.102 151.499 122.902 151.399 122.802C151.399 122.802 151.399 122.802 151.399 122.702C151.399 122.702 151.399 122.702 151.499 122.702C151.499 122.702 151.599 122.802 151.699 122.902C151.699 123.102 151.799 123.202 151.699 123.402C151.699 123.602 151.599 123.802 151.399 123.902C151.399 124.102 151.199 124.202 151.099 124.302C150.899 124.502 150.699 124.602 150.499 124.802C150.099 125.102 149.699 125.302 149.299 125.602C148.499 126.002 147.699 126.302 146.899 126.602C145.299 127.102 143.599 127.402 141.999 127.602C140.599 127.802 138.999 127.802 137.399 127.302C135.799 126.802 134.399 125.902 133.299 124.302C132.999 123.802 132.799 123.002 132.999 122.402L134.899 122.102C134.599 123.002 133.899 123.602 133.599 123.402C133.499 123.402 133.399 123.102 133.299 122.902C133.299 122.702 133.199 122.602 133.099 122.402L134.799 122.102C135.199 122.902 135.999 123.402 136.899 123.702C137.699 123.902 138.699 124.002 139.899 124.002C140.699 124.002 141.599 124.002 142.399 123.802C143.299 123.702 144.099 123.602 144.899 123.402C145.699 123.202 146.499 122.902 147.199 122.602C147.499 122.402 147.899 122.302 148.099 122.102C148.199 122.102 148.399 121.902 148.499 121.802H148.699C148.699 121.702 148.699 121.602 148.699 121.602C148.699 121.602 148.699 121.602 148.699 121.502C148.699 121.502 148.899 121.502 149.099 121.502C149.699 120.802 150.299 120.102 150.599 119.702C150.599 119.602 150.699 119.502 150.799 119.402L150.899 119.502Z" fill="black"/>
<path d="M127.6 143.998C127.6 143.698 127.8 143.298 127.9 142.898C127.9 142.798 128.2 142.698 127.7 142.398C127.5 142.298 128.1 142.398 128.1 142.198C128.1 141.898 128.3 141.598 128.3 141.198C128.3 140.898 128.2 140.498 128.3 140.198C128.3 139.898 128.7 139.598 128.5 139.198C128.3 138.898 128.8 138.798 128.8 138.498C128.8 138.198 128.8 137.898 129 137.698C129.2 137.598 129.5 137.398 129.4 137.198C129.4 137.098 129.1 136.898 129.1 136.798C129.1 136.698 129.4 136.598 128.9 136.398C128.9 136.398 128.9 136.398 129.1 136.398C129.5 136.398 129.5 136.198 129.3 135.998C129.1 135.798 129.1 135.698 129.1 135.598C129.1 135.298 129.1 135.098 129.3 134.798C129.3 134.598 129.7 134.498 129.8 134.298C129.9 134.098 129.7 133.798 130 133.698C130.3 133.598 130.4 133.398 130.4 133.198C130.4 133.098 130.7 132.998 130.1 132.798C131 132.798 130.1 132.098 130.3 131.898C130.6 131.598 130.5 131.298 130.6 130.898C130.6 130.898 130.8 130.798 130.4 130.598C130.3 130.598 130.3 130.398 130.4 130.398C131.1 130.398 130.8 129.998 130.9 129.698C131.1 129.398 130.9 129.098 131.4 128.898C131.6 128.898 131.8 128.698 131.2 128.398C131 128.298 131.2 128.198 131.2 128.098C131.2 128.098 130.9 127.898 130.9 127.798C130.9 127.798 131.2 127.798 131.3 127.698C130.7 127.098 131.7 126.898 131.6 126.498C131.6 125.998 131.6 125.598 131.8 125.298C131.8 125.098 132.1 124.898 133.3 124.898C133.8 124.898 134.4 124.998 134.7 125.198C134.9 125.298 135.1 125.398 135.2 125.498C135.2 125.698 135.4 125.798 135.4 125.998C135.5 126.298 136 126.698 135.7 126.898C135.6 126.898 135.9 127.098 135.4 127.098C136.1 127.598 135.4 127.898 135.4 128.298C135.4 128.598 135.9 129.098 135.6 129.398C136.2 129.698 136 129.898 135.8 130.098C135 130.598 135.3 131.298 135 131.998C134.7 132.598 134.7 133.298 134.5 133.898C134.5 133.998 134.8 134.198 134.5 134.298C134.2 134.298 134.4 134.598 134.3 134.698C134.3 134.798 134.3 134.998 134.2 135.098C133.4 135.398 133.7 135.998 133.5 136.498C133.3 136.998 133.1 137.498 133.1 137.998C133.1 138.298 133.4 138.698 133.1 138.998C133.1 139.098 133.3 139.298 132.7 139.298C132.5 139.298 132.9 139.498 132.9 139.598C132.9 139.798 132.9 139.998 132.7 140.198C132.7 140.498 132.5 140.798 132.5 141.098C132.5 141.298 132.7 141.498 132.7 141.698C132.7 141.898 132.7 142.098 132.6 142.298C132.5 142.498 132.2 142.698 132.1 142.898C132 143.098 132.1 143.498 131.8 143.598C131.2 143.898 131.3 144.398 131.2 144.798C131.2 144.998 131 145.198 130.9 145.598C130.8 145.998 130.6 146.398 130.1 146.998C129.8 147.298 129.3 147.398 128.9 147.398C128.5 147.398 128.1 147.198 127.7 147.098C127.5 147.098 127.4 146.498 127.7 146.098C127.8 145.898 128 145.698 128.1 145.598C128.1 145.598 128.3 145.498 128.3 145.398C128.3 145.398 128.4 145.298 128.4 145.398C128.4 145.398 128.4 145.398 128.4 145.198C128.4 145.098 128.4 144.998 128.4 145.098L128.2 144.898C128.2 144.898 128 144.698 127.7 144.598H127.5C127.5 144.498 127.5 144.498 127.5 144.498V144.298L127.6 143.998Z" fill="black"/>
<path d="M117.101 176.999C117.201 176.799 117.401 176.599 117.501 176.299C117.501 176.299 117.801 176.299 117.401 175.899C117.201 175.699 117.801 175.899 117.801 175.899C117.801 175.599 118.101 175.499 118.101 175.199C118.101 174.999 118.101 174.599 118.101 174.399C118.101 174.199 118.501 174.099 118.301 173.699C118.101 173.399 118.701 173.499 118.601 173.199C118.601 172.999 118.601 172.699 118.901 172.699C119.101 172.699 119.401 172.599 119.301 172.399C119.301 172.299 119.001 172.099 119.101 171.999C119.101 171.999 119.401 171.999 118.901 171.599C118.901 171.599 118.901 171.599 119.101 171.599C119.501 171.599 119.501 171.599 119.301 171.399C119.101 171.199 119.101 171.199 119.201 171.099C119.201 170.899 119.301 170.699 119.401 170.499C119.401 170.399 119.801 170.299 119.901 170.199C120.001 170.099 119.901 169.799 120.101 169.799C120.401 169.799 120.501 169.599 120.501 169.499C120.501 169.499 120.801 169.499 120.301 169.199C121.201 169.199 120.301 168.699 120.501 168.499C120.801 168.299 120.701 167.999 120.801 167.799C120.801 167.799 121.001 167.799 120.601 167.499C120.501 167.499 120.501 167.399 120.601 167.399C121.301 167.399 120.901 167.099 121.101 166.999C121.301 166.799 121.101 166.499 121.601 166.399C121.801 166.399 122.001 166.299 121.401 165.999C121.101 165.899 121.401 165.799 121.401 165.799C121.401 165.799 121.101 165.599 121.101 165.499C121.101 165.499 121.301 165.499 121.501 165.499C120.901 164.999 121.901 164.899 121.701 164.599C121.601 164.299 121.701 163.899 121.901 163.599C121.901 163.399 122.201 163.299 123.301 163.399C123.801 163.399 124.401 163.499 124.701 163.699C124.901 163.699 125.101 163.899 125.201 163.999C125.201 164.099 125.401 164.299 125.501 164.399C125.701 164.699 126.101 164.999 125.801 165.199C125.701 165.199 126.001 165.399 125.501 165.399C126.201 165.899 125.601 166.099 125.601 166.399C125.601 166.699 126.101 167.099 125.801 167.299C126.401 167.599 126.201 167.699 126.001 167.899C125.201 168.299 125.501 168.899 125.301 169.399C125.101 169.899 125.001 170.399 124.801 170.999C124.801 170.999 125.101 171.299 124.801 171.299C124.501 171.299 124.701 171.499 124.601 171.599C124.601 171.699 124.601 171.899 124.501 171.899C123.701 172.099 124.001 172.599 123.701 172.999C123.501 173.399 123.301 173.699 123.201 174.199C123.201 174.499 123.401 174.899 123.201 174.999C123.201 174.999 123.401 175.299 122.801 175.199C122.601 175.199 123.001 175.399 123.001 175.499C123.001 175.699 122.901 175.799 122.801 175.999C122.701 176.199 122.501 176.399 122.501 176.699C122.501 176.899 122.601 177.099 122.501 177.299C122.501 177.499 122.501 177.599 122.301 177.699C122.101 177.799 121.901 177.899 121.701 178.099C121.501 178.299 121.701 178.599 121.301 178.599C120.701 178.599 120.701 179.099 120.501 179.399C120.301 179.699 120.001 179.999 119.901 180.299C119.901 180.499 119.301 180.299 119.201 180.599C119.201 180.599 117.901 179.999 117.501 179.699C117.501 179.699 117.301 179.599 117.301 179.499C117.001 179.099 116.501 178.499 116.601 178.399C116.801 178.199 116.901 177.899 117.101 177.599V176.999Z" fill="black"/>
</svg>
