<svg width="300" height="300" viewBox="0 0 300 300" fill="none" xmlns="http://www.w3.org/2000/svg">
<path d="M198.8 167.201C197.9 166.201 196.9 165.101 195.9 164.201C195.5 163.801 195.4 163.301 194.6 163.201C194.2 163.201 194.3 162.401 194 162.101C193.1 161.201 192.2 160.201 191.3 159.301C190.4 158.401 189.4 157.701 188.5 156.801C187.6 155.901 186.9 154.801 185.9 154.101C185 153.501 184.7 152.501 183.9 151.901C183.1 151.201 182.3 150.501 181.7 149.601C181.3 148.901 181 148.201 180.4 147.801C180 147.501 179.5 147.501 179.2 147.101C178.9 146.801 178.7 146.301 178.1 146.601C178.1 146.601 178 146.401 178 146.301C178 145.701 177.4 145.501 177 145.601C176.6 145.601 176.4 145.601 176.1 145.501C175.3 145.201 174.5 145.101 173.6 144.901C172.9 144.801 172.2 144.501 171.5 144.401C170.7 144.301 169.8 144.601 169.1 144.201C168.4 143.901 167.6 143.901 166.9 143.901C166.5 143.901 166 143.601 165.7 144.301C165.7 144.301 165.5 144.301 165.4 144.301C164.2 143.501 163 144.601 161.8 144.501C160.5 144.401 159.3 144.601 158 144.801C157.7 144.801 157.3 144.801 157 145.201C157 145.401 156.6 145.401 156.4 145.301C155.4 144.801 154.5 145.301 153.5 145.301C152.4 145.301 151.4 145.801 150.2 145.601C149.7 145.501 149 145.601 148.6 146.201C148.4 146.501 147.8 146.401 147.5 146.501C147.2 146.601 146.9 147.001 146.6 147.001C146.3 147.001 146 147.001 145.7 146.901C145.7 146.901 145.5 146.901 145.4 146.901C144 148.001 142.3 147.501 140.9 148.201C139.5 148.901 138.2 149.401 137 150.201C136.3 150.601 135.7 150.901 134.5 150.601C133.9 150.401 133.5 150.101 133.5 149.601C133.5 149.201 133.6 148.801 133.8 148.501C134.2 148.001 134.5 147.601 134.9 147.201C135.7 146.401 136.5 145.301 137.8 145.101C138.2 145.101 138.5 144.601 138.9 145.001C138.9 145.001 139.1 145.001 139.2 145.001C140.4 143.701 142.1 143.701 143.5 143.301C144.7 142.901 145.8 142.001 147.1 142.001C147.7 141.201 148.5 141.201 149.3 141.201C151.9 141.401 154.4 140.501 157 140.301C159.6 140.101 162.2 139.801 164.8 139.801C165.2 139.801 165.6 139.401 166.1 139.701C166.6 139.901 167.2 139.701 167.8 139.701C168.3 139.701 168.9 139.601 169.4 139.701C171.4 140.401 173.5 140.101 175.7 140.701C176.8 141.001 177.9 141.401 178.9 142.001C179.9 142.601 180.8 143.301 181.7 143.901C182.7 144.701 183.9 145.401 184.6 146.401C184.9 146.801 185.5 147.001 185.5 147.801C185.5 148.001 186.1 148.101 186.4 148.301C187 148.901 187.5 149.501 188.1 150.101C188.9 150.901 189.6 151.801 190.5 152.601C191 153.101 191.7 153.401 192.2 153.901C192.7 154.401 193.3 154.901 193.7 155.501C194.3 156.201 194.8 157.101 195.4 157.801C196 158.601 196.9 159.101 197.3 160.001C198.1 161.601 199.5 162.701 200.6 164.001C201.7 165.301 202.9 166.601 204.1 167.701C204.8 168.401 205 169.401 205.7 170.001C206 170.301 205.3 171.801 204.8 172.001C204.8 172.001 204.6 172.001 204.5 172.001C203.5 171.601 202.4 171.501 201.7 170.701C200.7 169.501 199.6 168.401 198.5 167.201H198.8Z" fill="black"/>
<path d="M134.7 173.603C134.7 174.403 134.7 175.203 134.7 176.003C134.7 176.303 134.5 176.603 135 176.903C135.3 177.103 134.6 177.303 134.7 177.603C134.7 178.303 134.7 179.103 134.7 179.803C134.7 180.503 135 181.203 135.1 181.903C135.1 182.603 134.9 183.303 135.2 184.003C135.5 184.603 135 185.103 135.2 185.703C135.4 186.303 135.5 186.903 135.2 187.503C135 187.903 134.9 188.403 135 188.803C135 189.103 135.4 189.303 135.4 189.603C135.4 189.903 135.1 190.203 135.8 190.403C135.8 190.403 135.8 190.503 135.7 190.603C135.3 190.903 135.4 191.303 135.7 191.503C136 191.703 136 191.903 136 192.103C136 192.703 136.1 193.303 136.1 193.903C136.1 194.303 135.9 194.803 135.9 195.303C135.9 195.803 136.2 196.203 135.9 196.703C135.6 197.203 135.7 197.603 135.8 198.003C135.8 198.203 135.6 198.603 136.2 198.703V198.803C135.5 199.603 136.6 200.103 136.5 200.803C136.4 201.503 136.6 202.303 136.8 203.003C136.8 203.203 136.7 203.403 137.2 203.503C137.4 203.503 137.4 203.703 137.3 203.903C136.7 204.503 137.3 205.003 137.2 205.603C137.2 206.203 137.6 206.803 137.2 207.503C137 207.803 137 208.203 137.6 208.403C137.9 208.503 137.6 208.903 137.8 209.103C137.8 209.303 138.2 209.403 138.2 209.603C138.2 209.803 138 210.003 137.9 210.103C137.9 210.103 137.9 210.203 137.9 210.303C138.7 211.103 137.9 212.203 138.3 213.003C138.6 213.903 138.7 214.803 138.8 215.803C138.8 216.303 138.8 216.903 137.7 217.403C137.2 217.703 136.7 217.803 136.3 217.603C136 217.503 135.8 217.303 135.7 217.203C135.5 216.903 135.4 216.703 135.2 216.403C134.9 215.803 134.3 215.303 134.4 214.703C134.4 214.503 134.1 214.303 134.6 214.103C134.6 214.103 134.6 214.003 134.6 213.903C133.7 213.203 134 212.303 133.8 211.403C133.6 210.703 132.9 210.103 133 209.303C132.3 209.003 132.3 208.503 132.5 208.103C132.9 206.603 132.3 205.203 132.2 203.803C132.1 202.303 131.8 200.903 131.7 199.403C131.7 199.203 131.3 199.003 131.5 198.703C131.7 198.403 131.5 198.103 131.5 197.703C131.5 197.403 131.3 197.103 131.5 196.803C132 195.603 131.5 194.503 131.5 193.303C131.5 192.203 131.5 191.003 131.2 189.903C131.1 189.203 130.7 188.503 130.8 187.803C130.8 187.503 130.5 187.203 131.1 186.903C131.3 186.903 130.8 186.503 130.8 186.403C130.8 185.903 130.8 185.403 130.8 185.003C130.8 184.303 130.8 183.703 130.8 183.003C130.8 182.603 130.5 182.203 130.4 181.803C130.4 181.403 130.4 180.903 130.4 180.503C130.4 180.003 130.7 179.403 130.7 178.903C130.7 178.303 130.5 177.803 130.7 177.203C131.2 176.203 131 175.203 131 174.203C131 173.203 131.1 172.203 131 171.303C131 170.703 131.5 170.203 131.5 169.703C131.5 169.403 133 169.103 133.5 169.303C133.5 169.303 133.7 169.303 133.7 169.403C134.2 169.903 134.9 170.403 134.8 171.003C134.8 171.903 134.8 172.803 134.8 173.703L134.7 173.603Z" fill="black"/>
<path d="M164.6 170.8C164.6 170.6 164.6 170.4 164.6 170.3C164.6 170.3 164.8 170.2 164.3 170.1C164 170.1 164.7 170 164.6 169.9C164.6 169.7 164.6 169.6 164.6 169.4C164.6 169.2 164.3 169.1 164.3 168.9C164.3 168.7 164.6 168.6 164.3 168.4C164 168.2 164.5 168.2 164.4 168C164.3 167.9 164.2 167.7 164.4 167.6C164.6 167.6 164.8 167.4 164.7 167.3C164.7 167.3 164.3 167.1 164.4 167.1C164.4 167.1 164.7 167.1 164.1 166.9C164.1 166.9 164.1 166.9 164.3 166.9C164.7 166.9 164.7 166.9 164.4 166.7C164.1 166.7 164.2 166.6 164.2 166.5C164.2 166.4 164.2 166.2 164.2 166.1C164.2 166.1 164.5 165.9 164.6 165.9C164.6 165.9 164.4 165.6 164.7 165.6C165 165.6 165 165.5 165 165.4C165 165.4 165.3 165.4 164.7 165.2C165.5 165.2 164.5 164.8 164.7 164.7C164.9 164.6 164.8 164.4 164.9 164.2C164.9 164.2 165.1 164.2 164.7 164C164.5 163.9 164.5 164 164.7 164C165.3 164 165 163.8 165.1 163.7C165.3 163.6 165.1 163.4 165.5 163.4C165.7 163.4 165.8 163.4 165.3 163.1C165.1 163 165.3 163.1 165.3 162.9L165 162.7C165 162.7 165.2 162.7 165.4 162.7C164.8 162.3 165.8 162.4 165.7 162.1C165.7 161.8 165.7 161.7 165.9 161.5C165.9 161.5 166.2 161.4 167.3 161.7C167.8 161.9 168.3 162.1 168.6 162.3C168.8 162.4 169 162.5 169 162.6C169 162.6 169.2 162.8 169.2 162.9C169.3 163.1 169.8 163.4 169.5 163.4C169.5 163.4 169.7 163.6 169.2 163.4C169.9 163.8 169.3 163.8 169.3 164C169.3 164.1 169.9 164.5 169.6 164.5C170.2 164.8 170 164.8 169.8 164.8C169.1 164.8 169.4 165.2 169.3 165.5C169.1 165.7 169.2 166 169.1 166.3C169.1 166.3 169.4 166.5 169.1 166.5C168.8 166.5 169.1 166.6 169.1 166.7C169.1 166.7 169.2 166.8 169.1 166.9C168.4 166.9 168.8 167.3 168.7 167.5C168.7 167.7 168.5 167.9 168.7 168.1C168.7 168.2 169.1 168.4 169 168.5C169 168.5 169.3 168.6 168.7 168.6C168.5 168.6 169 168.6 169 168.7C169 168.7 169 168.9 169 169C169 169.1 169 169.2 169 169.4L169.3 169.6V169.8C169.3 169.8 169 170 168.9 170.1C168.9 170.2 169.1 170.3 168.9 170.4C168.4 170.6 168.6 170.8 168.6 171C168.6 171.2 168.6 171.4 168.6 171.5C168.6 171.5 168.2 171.7 168.2 171.8C168.2 171.8 166.7 172 166.2 172.1H166C165.5 172.1 164.8 172 164.8 171.8C164.8 171.6 164.8 171.4 164.8 171.2L164.6 170.8Z" fill="black"/>
<path d="M175 171.601C175 171.401 175 171.201 175 171.101C175 171.101 175.2 171.001 174.7 170.901C174.4 170.901 175.1 170.801 175 170.701C175 170.501 175 170.401 175 170.201C175 170.001 174.7 169.901 174.7 169.701C174.7 169.501 175 169.401 174.7 169.201C174.4 169.001 174.9 169.001 174.8 168.801C174.7 168.701 174.6 168.501 174.8 168.401C175 168.401 175.2 168.201 175.1 168.101C175.1 168.101 174.7 167.901 174.8 167.901C174.8 167.901 175.1 167.901 174.5 167.701C174.5 167.701 174.5 167.701 174.7 167.701C175.1 167.701 175.1 167.701 174.8 167.501C174.5 167.501 174.6 167.401 174.6 167.301C174.6 167.201 174.6 167.001 174.6 166.901C174.6 166.901 174.9 166.701 175 166.701C175 166.701 174.8 166.401 175.1 166.401C175.4 166.401 175.4 166.301 175.4 166.201C175.4 166.201 175.7 166.201 175.1 166.001C175.9 166.001 174.9 165.601 175.1 165.501C175.3 165.401 175.2 165.201 175.3 165.001C175.3 165.001 175.5 165.001 175.1 164.801C174.9 164.701 174.9 164.801 175.1 164.801C175.7 164.801 175.4 164.601 175.5 164.501C175.7 164.401 175.5 164.201 175.9 164.201C176.1 164.201 176.2 164.201 175.7 163.901C175.5 163.801 175.7 163.901 175.7 163.701L175.4 163.501C175.4 163.501 175.6 163.501 175.8 163.501C175.2 163.101 176.2 163.201 176.1 162.901C176.1 162.601 176.1 162.501 176.3 162.301C176.3 162.301 176.6 162.201 177.7 162.501C178.2 162.701 178.7 162.901 179 163.101C179.2 163.201 179.4 163.301 179.4 163.401C179.4 163.401 179.6 163.601 179.6 163.701C179.7 163.901 180.2 164.201 179.9 164.201C179.9 164.201 180.1 164.401 179.6 164.201C180.3 164.601 179.7 164.601 179.7 164.801C179.7 164.901 180.3 165.301 180 165.301C180.6 165.601 180.4 165.601 180.2 165.601C179.5 165.601 179.8 166.001 179.7 166.301C179.5 166.501 179.6 166.801 179.5 167.101C179.5 167.101 179.8 167.301 179.5 167.301C179.2 167.301 179.5 167.401 179.5 167.501C179.5 167.501 179.6 167.601 179.5 167.701C178.8 167.701 179.2 168.101 179.1 168.301C179.1 168.501 178.9 168.701 179.1 168.901C179.1 169.001 179.5 169.201 179.4 169.301C179.4 169.301 179.7 169.401 179.1 169.401C178.9 169.401 179.4 169.401 179.4 169.501C179.4 169.501 179.4 169.701 179.4 169.801C179.4 169.901 179.4 170.001 179.4 170.201L179.7 170.401V170.601C179.7 170.601 179.4 170.801 179.3 170.901C179.3 171.001 179.5 171.101 179.3 171.201C178.8 171.401 179 171.601 179 171.801C179 172.001 179 172.201 179 172.301C179 172.301 178.6 172.501 178.6 172.601C178.6 172.601 177.1 172.801 176.6 172.901H176.4C175.9 172.901 175.2 172.801 175.2 172.601C175.2 172.401 175.2 172.201 175.2 172.001L175 171.601Z" fill="black"/>
<path d="M137.5 171.199C136.9 171.199 136.2 171.299 135.6 171.399C135 171.399 134.3 171.499 133.7 171.499C133.2 171.499 132.7 171.299 132.3 171.799C132.1 172.099 131.6 171.399 131.2 171.399C130.6 171.399 130 171.399 129.4 171.399C128.8 171.399 128.2 171.299 127.6 171.299C126.4 171.299 125.3 171.299 124.1 171.199C123 170.999 121.9 170.599 120.7 170.599C119.7 170.599 119 169.899 118.1 169.799C117.1 169.599 116.1 169.399 115.3 168.799C114.7 168.399 114.2 167.999 113.5 167.799C113.1 167.699 112.6 167.799 112.2 167.599C111.8 167.399 111.5 166.899 110.9 167.299C110.9 167.299 110.7 167.099 110.7 166.999C110.5 166.399 109.9 166.199 109.5 166.199C108.9 166.199 108.4 165.799 107.9 165.499L105.8 164.199C105.1 163.699 104.3 163.199 103.6 162.699C103.1 162.299 102.6 161.899 102.2 161.599C102 161.599 102.3 161.399 102.4 161.299L102.9 160.999C103.2 160.799 103.5 160.699 103.8 160.499C104.4 160.099 104.9 159.799 105.4 159.399C105.9 158.999 106.5 158.699 107.1 158.399C107.7 158.199 108.3 157.899 108.8 157.699L109.4 157.399L109.8 157.199C110.1 156.999 110.7 157.099 110.7 156.299C110.7 156.299 110.8 156.199 110.9 156.199C112.3 156.399 112.8 154.999 113.9 154.699C115 154.399 116.1 153.799 117.2 153.399C117.5 153.299 117.9 153.399 118 152.799C118 152.599 118.3 152.499 118.5 152.499C119.5 152.799 120.3 152.199 121.2 151.999C122.2 151.799 123.1 151.299 124.2 151.499C124.7 151.599 125.3 151.499 125.6 150.899C125.8 150.599 126.3 150.799 126.7 150.599C127 150.499 127.2 150.199 127.5 150.099C127.8 150.099 128.1 150.199 128.3 150.299H128.5C129.9 149.399 131.5 150.099 133 149.799C134.5 149.499 136.2 149.599 137.8 149.999C138.7 150.199 139.6 150.599 139.8 151.899C139.8 152.499 139.7 152.999 139.3 153.199C139 153.399 138.7 153.499 138.4 153.499C138 153.499 137.5 153.499 137.1 153.499C136.2 153.499 135.4 153.999 134.5 153.799C134.2 153.799 133.9 153.999 133.7 153.499C133.7 153.499 133.5 153.399 133.5 153.499C132.3 154.399 131.1 153.999 129.8 154.199C128.7 154.399 127.8 155.199 126.7 155.199C126.3 155.899 125.6 155.999 124.9 155.899C122.7 155.699 120.8 156.799 118.8 157.499C116.8 158.199 114.8 159.099 112.9 160.099C112.6 160.299 112.5 160.699 112 160.699C111.8 160.699 111.6 160.699 111.4 160.899L111.1 161.099C111.1 161.099 111.1 161.299 110.9 161.199C110.4 161.199 110 161.199 109.8 161.399H109.9H110.1C110.2 161.599 110.4 161.699 110.5 161.699L111 161.999L111.2 162.199H111.3V162.299H111.4C112.1 162.699 112.9 163.099 113.7 163.399C114.7 163.699 115.7 163.799 116.6 164.299C117 164.499 117.5 164.299 117.7 165.099C117.7 165.299 118.3 164.999 118.6 165.099C119.3 165.199 119.9 165.499 120.6 165.699C121.5 165.899 122.5 166.199 123.4 166.299C124 166.299 124.6 166.299 125.2 166.299C125.8 166.299 126.4 166.399 127 166.599C127.8 166.699 128.5 166.999 129.3 167.199C130.1 167.199 131 166.999 131.7 167.299C132.4 167.499 133.1 167.599 133.9 167.599C134.6 167.599 135.3 167.499 136.1 167.399C137.5 167.399 139 167.199 140.3 166.699C141.1 166.499 141.9 166.699 142.7 166.599C143.1 166.599 144 167.799 143.9 168.299C143.9 168.299 143.9 168.499 143.9 168.599C143.2 169.199 142.6 170.199 141.7 170.299C141 170.399 140.3 170.499 139.6 170.699C138.9 170.799 138.2 170.899 137.5 170.999V171.199Z" fill="black"/>
<path d="M176.7 210C176.5 208.5 176.4 206.9 176.2 205.4C176.2 204.8 176.3 204.2 175.7 203.7C175.4 203.4 176 202.8 175.9 202.3C175.9 201.6 175.8 200.9 175.7 200.2V199.1L175.5 197.7C175.4 196.6 175.3 195.4 175.1 194.1V193.9V193.7H175.5L176.4 193.6L178.2 193.4C178.8 193.4 179.4 193.4 180.1 193.4H181.2C181.9 193.4 182.6 193.4 183.3 193.2C184.5 192.9 185.5 193.4 186.6 193.2C187.8 193.1 189 193 190.1 193.2C190.9 193.4 191.7 193.6 192.6 193.5C193.1 193.5 193.6 193.1 194.1 193.1C194.6 193.1 195.2 193.4 195.6 192.8C195.6 192.8 195.9 192.8 196 192.9C196.6 193.3 197.2 193.3 197.7 192.9C198.1 192.6 198.5 192.6 198.9 192.6C200 192.6 201.1 192.4 202.2 192.4C203 192.4 203.9 192.5 204.7 192.4C205.6 192.4 206.4 191.9 207.3 192C208.2 192.1 208.9 192 209.7 191.7C210.1 191.6 210.7 191.7 210.9 191C210.9 191 211.1 190.9 211.2 191C212.7 191.4 213.6 190 214.8 189.7C216.2 189.4 217.3 188.8 217.8 188.3C217.9 188.2 218.2 188.1 217.8 187.9C217.6 187.9 217.7 187.9 217.8 187.9C218.1 187.9 218.2 187.8 218.1 187.5C218.1 187.3 217.8 187 217.6 186.6C217.4 186.2 217 185.7 216.7 185.2C216.4 184.7 216.1 184.2 215.9 183.6C215.8 183.1 215.4 182.5 214.6 182.4C214.2 182.4 214.1 181.7 213.7 181.5C213.4 181.3 213 181.2 212.8 180.9C212.6 180.7 212.6 180.3 212.4 180C212.4 180 212.3 179.8 212.2 179.8C210.5 179 209.9 177.2 208.5 176.3C207.1 175.3 205.7 174.2 204.3 173.2C203.5 172.6 202.8 172 202.8 170.6C202.8 170 203.1 169.5 203.6 169.5C204 169.5 204.4 169.5 204.8 169.5C205.3 169.7 205.9 169.9 206.4 170.2C207.5 170.7 208.8 171 209.6 172C209.9 172.3 210.4 172.4 210.3 173C210.3 173 210.3 173.2 210.5 173.2C212.3 173.6 213.2 175.2 214.5 176.3C215.6 177.3 217 177.9 217.7 179.2C218.7 179.4 219.2 180.2 219.6 181C219.9 181.7 220.3 182.3 220.6 182.9C221 183.5 221.4 184.1 221.8 184.9C222.2 185.7 222.6 186.7 222.7 187.9C222.7 189.1 222.2 190.4 221.4 191.2C220.6 192 219.8 192.5 219.1 192.9C218.3 193.3 217.6 193.6 216.9 193.8L214.9 194.6L212.8 195.3C212.3 195.5 212 195.9 211.4 195.8C210.8 195.7 210.2 196.1 209.6 196.2C209 196.3 208.5 196.6 207.9 196.5C205.6 196.3 203.4 197 201.1 197.1C198.9 197.2 196.6 197.1 194.4 197.4C193.1 197.5 191.7 197.8 190.4 197.7C189.8 197.7 189.2 198 188.7 197.4C188.5 197.2 188 197.7 187.6 197.7C186.7 197.7 185.8 197.7 184.9 197.7C183.6 197.7 182.4 197.7 181.2 197.7C180.1 197.7 180.5 198 180.4 198.1C180.4 198.1 180.3 198.1 180.2 198.2V198.4V198.8C180.2 199.1 180.2 199.3 180.2 199.6C180.2 200.7 180.6 201.7 180.4 202.7C180.1 204.6 180.5 206.5 180.7 208.3C180.9 210.2 181 212 181.4 213.8C181.6 214.8 181.3 215.9 181.4 216.9C181.4 217.4 180.1 218.2 179.6 218.1C179.5 218.1 179.4 218.1 179.3 217.9C178.7 217 177.8 216.1 177.7 215C177.5 213.3 177.2 211.6 177 209.8L176.7 210Z" fill="black"/>
<path d="M175.999 143.201C175.599 142.401 175.299 141.601 174.799 140.801C174.599 140.501 174.799 140.101 174.099 140.101C173.799 140.101 174.099 139.501 174.099 139.201C173.599 138.501 173.299 137.801 172.799 137.101C172.299 136.401 171.699 135.901 171.199 135.301C170.699 134.701 170.399 133.901 169.699 133.401C169.099 133.101 169.099 132.301 168.599 131.901C168.099 131.501 167.599 131.001 167.299 130.301C167.099 129.801 166.899 129.301 166.499 129.101C166.199 128.901 165.799 128.901 165.599 128.701C165.399 128.501 165.299 128.001 164.699 128.301C164.699 128.301 164.699 128.101 164.699 128.001C164.699 127.501 164.499 127.201 164.099 127.201C163.699 127.201 163.599 127.001 163.399 126.901C162.899 126.501 162.399 126.001 161.899 125.601C161.699 125.401 161.599 125.201 161.399 125.001C161.399 124.901 161.299 124.801 161.199 124.701L160.999 124.501C160.999 124.401 160.799 124.701 160.799 124.301C160.799 123.901 160.599 123.801 160.499 123.701L160.399 123.501C160.399 123.501 160.399 123.701 160.599 124.201C160.299 123.701 160.299 124.001 160.399 124.201C160.399 124.401 160.599 124.601 160.499 124.601C160.499 124.601 160.499 124.601 160.399 124.601C160.399 124.601 160.299 124.901 160.199 125.101L159.999 126.301C159.999 126.501 159.699 126.701 160.099 127.001C160.199 127.101 160.199 127.301 160.099 127.401C159.399 127.801 159.599 128.501 159.399 129.101C159.199 129.801 159.399 130.501 158.899 131.101C158.699 131.401 158.499 131.801 159.099 132.201C159.399 132.401 159.099 132.701 159.099 133.001C159.099 133.201 159.399 133.401 159.399 133.601C159.399 133.801 159.199 134.001 159.099 134.101C159.099 134.101 159.099 134.201 159.099 134.301C159.799 135.301 158.999 136.301 159.299 137.301C159.599 138.301 159.699 139.301 159.899 140.301C159.899 140.901 159.899 141.501 158.999 142.201C158.599 142.501 157.999 142.701 157.599 142.501C157.299 142.401 156.999 142.201 156.899 142.001C156.699 141.701 156.499 141.401 156.299 141.001C155.899 140.301 155.299 139.701 155.399 138.901C155.399 138.701 155.099 138.401 155.599 138.101C155.599 138.101 155.599 138.001 155.599 137.901C154.699 137.001 155.099 135.901 154.999 134.801C154.899 133.901 154.299 133.101 154.599 132.201C153.999 131.701 154.099 131.101 154.299 130.601C155.099 128.901 154.899 127.101 155.399 125.401L155.799 124.101C155.899 123.601 155.999 123.401 156.299 122.501C156.799 121.101 157.399 119.701 157.899 118.301C157.899 118.101 157.999 117.701 158.099 117.401C158.099 117.201 158.099 117.101 158.199 117.001C158.199 117.001 158.199 116.701 158.499 117.001C159.099 117.701 159.599 117.801 160.099 118.201C160.599 118.501 161.099 118.701 161.599 119.301C161.999 119.801 162.399 120.201 162.899 120.701C163.099 120.901 163.299 121.101 163.499 121.301C163.599 121.401 163.799 121.501 163.899 121.601C164.399 122.001 164.999 122.401 165.499 122.901C166.499 123.901 167.399 124.801 168.499 125.701C169.199 126.201 169.999 126.601 170.399 127.301C170.599 127.601 171.099 127.701 170.899 128.301C170.899 128.501 171.399 128.401 171.599 128.601C171.999 129.001 172.399 129.501 172.699 129.901C173.199 130.501 173.699 131.201 174.199 131.801C174.499 132.201 174.999 132.401 175.299 132.801C175.599 133.201 175.899 133.601 176.199 134.101C176.499 134.701 176.599 135.301 176.899 135.901C177.199 136.501 177.799 137.001 177.899 137.701C177.999 139.001 178.799 139.901 179.299 141.001C179.799 142.101 180.199 143.201 180.799 144.201C181.099 144.801 180.799 145.501 181.099 146.101C181.199 146.401 179.999 147.301 179.399 147.301C179.399 147.301 179.199 147.301 179.099 147.301C178.399 146.901 177.599 146.601 177.399 146.001C177.099 145.001 176.599 144.101 176.199 143.201H175.999Z" fill="black"/>
<path d="M84.9995 98.5016C85.6995 99.5016 86.2995 100.602 87.0995 101.602C87.3995 102.002 87.3995 102.502 88.1995 102.602C88.5995 102.602 88.1995 103.402 88.5995 103.702C89.2995 104.602 89.9995 105.602 90.6995 106.502C91.3995 107.402 92.2995 108.102 92.9995 109.002C93.6995 109.802 94.1995 110.902 95.0995 111.502C95.8995 112.002 96.0995 113.002 96.6995 113.602C97.3995 114.202 98.0995 114.902 98.4995 115.802C98.7995 116.402 99.0995 117.102 99.5995 117.502C99.8995 117.802 100.4 117.802 100.7 118.202C101 118.502 101.1 119.102 101.8 118.902C101.8 118.902 101.9 119.102 101.9 119.202C101.9 119.802 102.3 120.202 102.8 120.302C103.3 120.302 103.5 120.602 103.7 120.902C104.4 121.602 105 122.202 105.7 123.002C106.2 123.502 106.5 124.202 107 124.702C107.5 125.302 108.2 125.602 108.5 126.302C108.8 127.002 109.3 127.402 109.8 127.902C110.1 128.202 110.2 128.702 110.9 128.402C110.9 128.402 111.1 128.402 111.1 128.602C111.3 130.002 112.9 129.902 113.5 130.802C114.2 131.702 115.2 132.402 116.1 133.102C116.3 133.302 116.5 133.602 117 133.502C117.2 133.502 117.4 133.602 117.5 133.802C117.7 134.802 118.7 135.102 119.3 135.802C120 136.502 121 136.902 121.4 137.902C121.6 138.302 122 138.802 122.7 138.602C123.1 138.602 123.3 139.002 123.6 139.202C123.9 139.302 124.3 139.302 124.5 139.502C124.7 139.602 124.8 140.002 124.9 140.202C124.9 140.202 125 140.302 125.1 140.302C126.6 140.702 127.3 142.202 128.6 142.902C129.9 143.602 131.1 144.502 132.3 145.402C132.9 145.902 133.5 146.502 133.4 147.802C133.4 148.402 133 148.802 132.5 148.902C132.2 148.902 131.8 148.902 131.5 148.902C131 148.702 130.6 148.502 130.1 148.402C129.2 148.002 128.1 147.902 127.4 147.102C127.2 146.802 126.7 146.902 126.8 146.302C126.8 146.302 126.8 146.102 126.7 146.102C125.2 146.002 124.3 144.702 123.2 144.002C122.3 143.302 121 143.202 120.2 142.202C119.3 142.302 118.8 141.702 118.4 141.202C117.7 140.202 116.9 139.502 116 138.702C115.1 138.002 114.2 137.302 113.3 136.502C111.6 134.902 109.8 133.402 108.1 131.802C107.8 131.502 107.3 131.502 107.2 131.002C107.1 130.502 106.5 130.302 106.1 129.902C105.8 129.602 105.3 129.302 105.1 128.902C104.3 127.102 102.7 126.102 101.5 124.802C100.3 123.402 99.0995 122.102 97.7995 120.802C96.9995 120.002 95.9995 119.502 95.3995 118.502C95.0995 118.102 94.4995 117.902 94.6995 117.202C94.6995 117.002 94.0995 116.902 93.8995 116.702C93.3995 116.202 92.8995 115.502 92.3995 115.002C91.6995 114.202 91.0995 113.302 90.3995 112.502C89.9995 112.002 89.3995 111.702 88.8995 111.202C88.3995 110.702 87.9995 110.202 87.6995 109.602C87.1995 108.902 86.8995 108.102 86.3995 107.302C85.8995 106.602 85.1995 106.002 84.8995 105.102C84.3995 103.502 83.2995 102.402 82.4995 101.102C81.6995 99.8016 80.7995 98.5016 79.8995 97.2016C79.3995 96.5016 79.3995 95.5016 78.8995 94.8016C78.6995 94.5016 79.5995 93.2016 80.1995 93.1016C80.1995 93.1016 80.3995 93.1016 80.4995 93.1016C81.2995 93.6016 82.3995 93.8016 82.7995 94.6016C83.4995 95.8016 84.2995 97.0016 85.0995 98.1016L84.9995 98.5016Z" fill="black"/>
<path d="M93.1995 116.202C92.9995 116.202 92.6995 116.202 92.4995 116.202C92.4995 116.202 92.2995 115.902 92.1995 116.502C92.1995 116.802 92.1995 116.102 91.9995 116.102C91.7995 116.102 91.5995 116.102 91.3995 116.102C91.1995 116.102 90.9995 116.302 90.7995 116.402C90.5995 116.402 90.3995 116.102 90.1995 116.402C89.9995 116.702 89.8995 116.102 89.6995 116.302C89.4995 116.402 89.2995 116.502 89.1995 116.302C89.0995 116.102 88.9995 115.902 88.8995 116.002C88.8995 116.002 88.6995 116.402 88.5995 116.302C88.5995 116.302 88.4995 116.002 88.2995 116.602C88.2995 116.602 88.2995 116.602 88.2995 116.402C88.2995 116.002 88.1995 116.002 88.0995 116.302C88.0995 116.602 87.8995 116.502 87.8995 116.502C87.6995 116.502 87.4995 116.502 87.3995 116.502C87.2995 116.502 87.1995 116.202 86.9995 116.102C86.8995 116.102 86.6995 116.302 86.5995 116.002C86.5995 115.702 86.3995 115.702 86.2995 115.702C86.2995 115.702 86.1995 115.402 85.9995 116.002C85.9995 115.202 85.5995 116.202 85.3995 116.002C85.1995 115.802 84.9995 115.902 84.7995 115.902C84.7995 115.902 84.7995 115.702 84.5995 116.202C84.5995 116.402 84.4995 116.402 84.4995 116.202C84.4995 115.602 84.1995 115.902 84.0995 115.802C83.8995 115.702 83.6995 115.902 83.5995 115.402C83.5995 115.202 83.4995 115.102 83.2995 115.602C83.2995 115.902 83.1995 115.602 83.0995 115.602L82.8995 115.902C82.8995 115.902 82.8995 115.702 82.8995 115.502C82.4995 116.102 82.3995 115.202 82.0995 115.302C81.7995 115.402 81.4995 115.302 81.2995 115.202C81.1995 115.202 80.9995 114.902 81.0995 113.802C81.0995 113.302 81.1995 112.702 81.2995 112.402C81.2995 112.202 81.4995 112.002 81.4995 111.902C81.4995 111.902 81.6995 111.702 81.7995 111.602C81.9995 111.402 82.1995 110.902 82.3995 111.202C82.3995 111.202 82.5995 111.002 82.4995 111.502C82.8995 110.802 82.9995 111.302 83.2995 111.302C83.4995 111.302 83.7995 110.702 83.9995 111.002C84.1995 110.402 84.2995 110.502 84.3995 110.702C84.6995 111.402 85.1995 111.002 85.4995 111.202C85.8995 111.302 86.2995 111.302 86.6995 111.402C86.6995 111.402 86.8995 111.102 86.8995 111.402C86.8995 111.702 87.0995 111.402 87.1995 111.402C87.1995 111.402 87.3995 111.302 87.3995 111.402C87.5995 112.102 87.9995 111.702 88.2995 111.802C88.5995 111.902 88.8995 112.002 89.2995 111.802C89.4995 111.802 89.6995 111.402 89.8995 111.502C89.8995 111.502 90.0995 111.202 90.0995 111.802C90.0995 112.002 90.1995 111.502 90.2995 111.502C90.3995 111.502 90.5995 111.502 90.6995 111.502C90.8995 111.502 91.0995 111.502 91.2995 111.502C91.3995 111.502 91.4995 111.202 91.6995 111.202C91.7995 111.202 91.8995 111.202 92.0995 111.202C92.1995 111.202 92.3995 111.502 92.4995 111.602C92.5995 111.602 92.7995 111.402 92.9995 111.602C93.1995 112.102 93.4995 111.902 93.7995 112.002C94.0995 112.002 94.2995 112.102 94.5995 112.002C94.7995 112.002 94.8995 112.502 94.9995 112.502C94.9995 112.502 94.9995 114.002 94.9995 114.502V114.702C94.7995 115.202 94.5995 115.902 94.4995 115.802C94.1995 115.802 93.9995 115.802 93.6995 115.802L93.1995 116.202Z" fill="black"/>
<path d="M104.9 128.501C104.8 128.201 104.7 127.901 104.6 127.601C104.6 127.501 104.8 127.301 104.2 127.301C103.9 127.301 104.5 127.001 104.4 126.901C104.2 126.601 104.2 126.301 104.1 126.001C104 125.701 103.7 125.501 103.5 125.201C103.4 124.901 103.5 124.501 103.2 124.301C102.9 124.101 103.3 123.801 103.2 123.601C103 123.401 102.9 123.101 103.1 122.801C103.2 122.601 103.4 122.401 103.3 122.201C103.3 122.201 102.9 122.101 102.9 121.901C102.9 121.801 103.1 121.601 102.5 121.601C102.5 121.601 102.5 121.601 102.6 121.501C103 121.301 102.9 121.201 102.6 121.101C102.3 121.101 102.3 121.001 102.3 120.901C102.3 120.701 102.2 120.401 102.2 120.101C102.2 119.901 102.4 119.701 102.5 119.501C102.5 119.301 102.2 119.101 102.5 118.901C102.8 118.701 102.7 118.501 102.7 118.301C102.7 118.201 103 118.001 102.3 118.001C103.1 117.601 102 117.401 102.2 117.101C102.4 116.801 102.2 116.501 102.2 116.201C102.2 116.201 102.4 116.001 101.9 116.001C101.7 116.001 101.7 115.901 101.9 115.801C102.5 115.501 102.1 115.301 102.2 115.101C102.3 114.801 102 114.601 102.5 114.301C102.7 114.201 102.8 114.001 102.2 113.901C101.9 113.901 102.2 113.701 102.2 113.601L101.9 113.401C101.9 113.401 102.1 113.301 102.2 113.201C101.5 112.801 102.4 112.401 102.2 112.001C102 111.601 102.2 111.201 102.2 110.801C102.2 110.601 102.5 110.401 103.6 110.301C104.1 110.301 104.7 110.301 105 110.401C105.2 110.401 105.5 110.601 105.5 110.601C105.5 110.701 105.7 110.801 105.8 111.001C106 111.201 106.5 111.501 106.2 111.701C106.2 111.701 106.4 111.901 105.9 111.901C106.7 112.201 106.2 112.601 106.2 112.901C106.2 113.201 106.9 113.401 106.6 113.701C107.2 113.801 107.1 114.001 106.9 114.201C106.2 114.801 106.7 115.301 106.7 115.901C106.7 116.501 106.7 117.001 106.8 117.601C106.8 117.601 107.2 117.701 106.9 117.901C106.7 118.001 106.9 118.101 106.9 118.301C106.9 118.401 107.1 118.501 106.9 118.601C106.3 119.101 106.8 119.501 106.8 120.001C106.8 120.401 106.8 120.901 107.1 121.301C107.2 121.501 107.6 121.701 107.6 122.001C107.6 122.101 107.9 122.201 107.4 122.401C107.2 122.401 107.7 122.401 107.7 122.501C107.7 122.701 107.7 122.901 107.8 123.001C107.8 123.201 107.8 123.501 108 123.701C108 123.801 108.4 123.901 108.4 124.101C108.5 124.201 108.5 124.401 108.5 124.601C108.5 124.801 108.3 125.101 108.3 125.301C108.3 125.501 108.6 125.701 108.4 125.901C108 126.401 108.4 126.701 108.4 127.101C108.4 127.501 108.6 127.801 108.8 128.201C108.8 128.201 108.8 128.301 108.8 128.401L105.4 129.201C105.5 129.101 105.7 128.901 105.7 128.801C105.7 128.701 107.1 128.401 107.7 128.401H107.9C108.3 128.601 108.9 128.701 109.1 128.901L105.4 129.701C105.4 129.301 105.2 129.001 105 128.601L104.9 128.501Z" fill="black"/>
<path d="M114.8 139.101C114.4 139.101 114 139.101 113.6 139.101C113.5 139.101 113.3 138.801 113.1 139.401C113.1 139.701 112.9 139.001 112.8 139.001C112.4 139.001 112.1 139.001 111.7 139.001C111.3 139.001 111 139.301 110.6 139.301C110.2 139.301 109.9 139.001 109.5 139.301C109.2 139.601 108.9 139.101 108.6 139.201C108.3 139.301 108 139.401 107.7 139.201C107.5 139.001 107.3 138.801 107.1 138.901C107 138.901 106.8 139.301 106.7 139.301C106.6 139.301 106.4 139.001 106.3 139.601C106.3 139.601 106.3 139.601 106.3 139.501C106.2 139.101 106 139.101 105.9 139.401C105.8 139.701 105.7 139.601 105.6 139.601C105.3 139.601 105 139.601 104.7 139.601C104.5 139.601 104.2 139.301 104 139.201C103.8 139.201 103.5 139.401 103.3 139.201C103.1 138.901 102.9 138.901 102.7 138.901C102.6 138.901 102.4 138.601 102.3 139.201C102 138.401 101.6 139.401 101.2 139.201C100.8 139.001 100.5 139.201 100.1 139.201C100.1 139.201 99.9004 139.001 99.8004 139.501C99.8004 139.701 99.7004 139.701 99.6004 139.501C99.3004 138.901 99.0004 139.201 98.8004 139.101C98.5004 139.001 98.2004 139.301 97.8004 138.801C97.7004 138.601 97.5004 138.501 97.3004 139.101C97.3004 139.401 97.1004 139.101 96.9004 139.101C96.9004 139.101 96.7004 139.401 96.6004 139.401C96.6004 139.401 96.4004 139.201 96.4004 139.101C95.9004 139.801 95.5004 138.901 95.0004 139.101C94.5004 139.301 94.0004 139.201 93.6004 139.101C93.3004 139.101 93.1004 138.901 92.9004 137.701C92.9004 137.201 92.9004 136.601 92.9004 136.301C92.9004 136.101 93.1004 135.801 93.2004 135.801C93.4004 135.801 93.5004 135.601 93.7004 135.501C94.0004 135.301 94.3004 134.801 94.6004 135.101C94.6004 135.101 94.8004 134.901 94.9004 135.401C95.3004 134.601 95.8004 135.101 96.2004 135.101C96.6004 135.101 96.9004 134.401 97.3004 134.701C97.5004 134.101 97.7004 134.201 98.0004 134.401C98.7004 135.101 99.5004 134.601 100.2 134.701C100.9 134.801 101.7 134.701 102.4 134.701C102.5 134.701 102.6 134.401 102.8 134.701C102.9 135.001 103.1 134.701 103.3 134.701C103.4 134.701 103.6 134.601 103.7 134.701C104.3 135.401 104.9 135.001 105.4 135.101C106 135.101 106.6 135.301 107.1 135.101C107.5 135.101 107.8 134.701 108.2 134.801C108.3 134.801 108.5 134.501 108.7 135.101C108.7 135.301 108.9 134.801 109 134.801C109.2 134.801 109.5 134.801 109.7 134.801C110 134.801 110.4 134.801 110.7 134.801C110.9 134.801 111.1 134.501 111.3 134.501C111.5 134.501 111.7 134.501 111.9 134.501C112.2 134.501 112.4 134.801 112.7 134.901C113 134.901 113.3 134.701 113.5 135.001C114 135.501 114.5 135.301 115 135.401C115.5 135.401 116 135.601 116.5 135.401C116.8 135.401 117 135.901 117.3 135.901C117.4 135.901 117.5 137.401 117.4 137.901V138.101C117.1 138.501 116.8 139.301 116.5 139.201C116.1 139.201 115.6 139.201 115.1 139.201L114.8 139.101Z" fill="black"/>
<path d="M124.101 135.9C124.101 135.8 124.101 135.7 124.001 135.6C124.001 135.6 124.201 135.4 123.701 135.6C123.401 135.6 124.001 135.4 124.001 135.4C123.901 135.4 124.001 135.2 123.901 135.1C123.901 135.1 123.601 135.1 123.501 134.9C123.501 134.9 123.701 134.6 123.301 134.6C123.001 134.6 123.501 134.4 123.301 134.3C123.201 134.3 123.001 134.3 123.301 134C123.401 133.9 123.601 133.8 123.501 133.7H123.101C123.101 133.7 123.401 133.5 122.701 133.7C122.701 133.7 122.701 133.7 122.801 133.7C123.201 133.5 123.101 133.5 122.801 133.5C122.501 133.5 122.601 133.5 122.501 133.5C122.501 133.5 122.401 133.4 122.501 133.3C122.501 133.3 122.701 133.1 122.801 133C122.801 133 122.501 133 122.801 132.8C123.101 132.7 123.001 132.6 123.001 132.5C123.001 132.5 123.301 132.3 122.601 132.5C123.401 132.2 122.301 132.4 122.501 132.2C122.701 132 122.501 132 122.501 131.9C122.501 131.9 122.701 131.8 122.201 131.9C122.001 131.9 122.001 131.9 122.201 131.9C122.801 131.7 122.401 131.7 122.501 131.6C122.501 131.5 122.301 131.5 122.701 131.3C122.901 131.3 123.001 131.1 122.401 131.3H122.101C122.101 131.3 122.301 131.2 122.401 131.1C121.701 131.1 122.501 130.8 122.401 130.7C122.201 130.7 122.201 130.5 122.301 130.3C122.301 130.3 122.501 130.1 123.601 129.8C124.101 129.6 124.601 129.5 125.001 129.5C125.201 129.5 125.501 129.5 125.501 129.5C125.601 129.5 125.701 129.5 125.801 129.5C126.001 129.5 126.501 129.5 126.301 129.6C126.301 129.6 126.501 129.6 126.001 129.8C126.801 129.7 126.301 129.9 126.401 130C126.401 130 127.101 130 126.901 130.2C127.501 130.1 127.401 130.2 127.301 130.2C126.701 130.6 127.201 130.6 127.201 130.8C127.201 131 127.301 131.2 127.301 131.4C127.301 131.4 127.701 131.4 127.401 131.4C127.201 131.5 127.401 131.4 127.401 131.5C127.401 131.5 127.601 131.5 127.401 131.6C126.801 131.9 127.201 132 127.201 132.1C127.201 132.3 127.201 132.4 127.401 132.5C127.501 132.5 127.901 132.5 127.801 132.7C127.801 132.7 128.101 132.7 127.501 132.9C127.301 132.9 127.801 132.9 127.801 132.9C127.801 132.9 127.801 133 127.801 133.1V133.3C127.801 133.3 128.101 133.3 128.201 133.3C128.201 133.3 128.201 133.3 128.201 133.5C128.201 133.5 128.001 133.7 127.901 133.8C127.901 133.8 128.101 133.8 127.901 134C127.501 134.3 127.701 134.3 127.701 134.5C127.701 134.6 127.701 134.8 127.901 134.9C127.901 134.9 127.501 135.2 127.601 135.2C127.601 135.2 127.301 135.4 126.901 135.5C126.501 135.7 126.001 135.8 125.801 135.9H125.601C125.101 135.9 124.401 136.2 124.501 136.1C124.501 136 124.501 135.9 124.401 135.7L124.101 135.9Z" fill="black"/>
<path d="M126.499 88.0017C126.699 89.1017 126.799 90.3017 127.099 91.4017C127.199 91.8017 127.099 92.3017 127.599 92.6017C127.899 92.8017 127.399 93.3017 127.499 93.7017C127.799 94.7017 127.999 95.8017 128.299 96.8017C128.599 97.8017 129.099 98.7017 129.499 99.6017C129.899 100.502 129.899 101.602 130.599 102.402C131.099 103.102 130.999 104.002 131.399 104.702C131.799 105.502 132.299 106.202 132.399 107.102C132.399 107.702 132.599 108.402 132.899 108.902C133.099 109.202 133.599 109.402 133.699 109.702C133.899 110.002 133.799 110.602 134.499 110.502C134.499 110.502 134.499 110.702 134.499 110.802C134.299 111.402 134.599 111.802 134.999 111.902C135.399 112.002 135.499 112.302 135.699 112.602C136.199 113.302 136.699 114.002 137.099 114.702C137.399 115.202 137.599 115.902 137.899 116.502C138.299 117.102 138.899 117.502 139.099 118.102C139.199 118.802 139.599 119.202 139.999 119.702C140.199 120.002 140.299 120.502 140.899 120.302C140.899 120.302 140.999 120.302 140.999 120.502C140.999 121.802 142.499 121.802 142.999 122.702C143.599 123.602 144.399 124.302 145.199 125.002C145.399 125.202 145.499 125.502 145.999 125.402C146.199 125.402 146.399 125.602 146.399 125.702C146.499 126.702 147.399 127.002 147.899 127.702C148.499 128.402 149.299 128.902 149.699 129.902C149.799 130.302 150.099 130.802 150.899 130.702C151.199 130.702 151.399 131.202 151.699 131.402C151.899 131.602 152.299 131.602 152.499 131.802C152.699 132.002 152.699 132.302 152.799 132.502C152.799 132.502 152.799 132.602 152.999 132.702C154.399 133.202 154.799 134.802 155.899 135.602C156.999 136.502 157.899 137.502 158.899 138.502C159.399 139.102 159.799 139.802 159.399 140.902C159.199 141.402 158.799 141.802 158.299 141.802C157.999 141.802 157.599 141.802 157.399 141.602C156.999 141.402 156.599 141.102 156.199 140.902C155.399 140.402 154.399 140.202 153.999 139.302C153.899 139.002 153.399 139.002 153.599 138.502V138.302C152.199 138.002 151.599 136.702 150.699 135.902C149.899 135.202 148.699 134.902 148.199 134.002C147.299 134.002 146.899 133.502 146.599 132.902C145.599 130.902 143.799 129.802 142.399 128.202C140.999 126.602 139.399 125.102 137.999 123.402C137.799 123.102 137.299 123.102 137.199 122.602C137.199 122.102 136.599 121.802 136.299 121.502C135.999 121.202 135.599 120.902 135.499 120.502C134.999 118.702 133.599 117.602 132.699 116.102C131.799 114.602 130.999 113.102 130.099 111.702C129.499 110.802 128.799 110.002 128.399 109.002C128.299 108.602 127.799 108.302 128.099 107.602C128.199 107.402 127.599 107.202 127.499 107.002C127.199 106.402 126.899 105.702 126.699 105.002C126.399 104.102 125.999 103.102 125.699 102.202C125.499 101.602 125.099 101.102 124.799 100.602C124.599 100.002 124.399 99.4017 124.299 98.8017C124.099 98.0017 124.199 97.2017 123.999 96.4017C123.899 95.6017 123.399 94.8017 123.499 93.9017C123.699 92.3017 123.199 91.0017 122.999 89.5017C122.799 88.0017 122.699 86.6017 122.399 85.2017C122.199 84.4017 122.699 83.6017 122.599 82.8017C122.599 82.4017 123.999 81.8017 124.499 81.9017C124.499 81.9017 124.699 81.9017 124.699 82.0017C125.199 82.7017 125.999 83.4017 126.099 84.2017C126.099 85.5017 126.399 86.8017 126.599 88.0017H126.499Z" fill="black"/>
<path d="M127.7 107.399C127.5 107.399 127.2 107.199 127 107.099C127 107.099 127 106.799 126.6 107.299C126.5 107.499 126.6 106.899 126.6 106.899C126.4 106.899 126.2 106.699 125.9 106.699C125.7 106.699 125.4 106.799 125.1 106.699C124.9 106.699 124.7 106.299 124.4 106.599C124.1 106.799 124.1 106.299 123.9 106.299C123.7 106.299 123.5 106.299 123.4 106.099C123.4 105.899 123.3 105.599 123.1 105.699C123 105.699 122.8 105.999 122.7 105.999C122.7 105.999 122.7 105.699 122.3 106.199C122.3 106.199 122.3 106.199 122.3 105.999C122.3 105.599 122.3 105.599 122.1 105.799C121.9 105.999 121.9 105.999 121.8 105.999C121.6 105.999 121.4 105.999 121.2 105.799C121.1 105.799 121 105.399 120.9 105.299C120.8 105.199 120.5 105.399 120.5 105.099C120.5 104.799 120.3 104.699 120.2 104.699C120.2 104.699 120.2 104.399 119.9 104.999C119.9 104.099 119.4 105.099 119.2 104.899C119 104.599 118.8 104.699 118.5 104.699C118.5 104.699 118.5 104.499 118.2 104.899C118.2 104.999 118.1 104.999 118.1 104.899C118.1 104.199 117.8 104.599 117.7 104.399C117.5 104.199 117.3 104.399 117.2 103.899C117.2 103.699 117.1 103.499 116.8 104.099C116.7 104.299 116.7 104.099 116.6 104.099C116.6 104.099 116.4 104.399 116.3 104.399C116.3 104.399 116.3 104.199 116.3 103.999C115.8 104.599 115.8 103.599 115.4 103.699C115.1 103.799 114.8 103.699 114.5 103.499C114.3 103.499 114.2 103.199 114.4 101.999C114.4 101.499 114.6 100.899 114.7 100.599C114.8 100.399 114.9 100.199 115 100.099C115.1 100.099 115.2 99.8992 115.4 99.8992C115.6 99.7992 116 99.2992 116.1 99.5992C116.1 99.6992 116.3 99.3992 116.2 99.8992C116.7 99.1992 116.8 99.7992 117.1 99.7992C117.3 99.7992 117.7 99.2992 117.9 99.5992C118.2 98.9992 118.3 99.1992 118.4 99.3992C118.7 100.199 119.3 99.8992 119.7 100.099C120.1 100.299 120.6 100.399 121.1 100.499C121.1 100.499 121.3 100.199 121.4 100.499C121.4 100.799 121.6 100.599 121.7 100.599C121.7 100.599 121.9 100.599 122 100.699C122.2 101.399 122.6 101.199 123 101.399C123.3 101.599 123.7 101.799 124.1 101.699C124.3 101.699 124.7 101.399 124.9 101.699C124.9 101.699 125.2 101.499 125.1 102.099C125.1 102.299 125.3 101.899 125.4 101.899C125.6 101.899 125.7 101.899 125.9 101.999C126.1 101.999 126.3 102.199 126.5 102.199C126.6 102.199 126.8 101.999 127 101.999C127.2 101.999 127.3 101.999 127.4 102.099C127.5 102.199 127.6 102.499 127.8 102.599C128 102.699 128.2 102.599 128.3 102.799C128.4 103.399 128.8 103.299 129.1 103.399C129.4 103.599 129.7 103.699 130 103.699C130.2 103.699 130.2 104.199 130.3 104.299C130.3 104.299 129.9 105.699 129.7 106.199C129.7 106.199 129.7 106.399 129.6 106.399C129.3 106.799 128.9 107.399 128.7 107.299C128.5 107.099 128.2 107.099 127.9 106.999L127.7 107.399Z" fill="black"/>
<path d="M140.899 98.1C140.899 98.1 140.799 98.2 140.799 98.3C140.799 98.3 140.599 98.3 140.999 98.5C141.199 98.6 140.699 98.3 140.699 98.4C140.699 98.4 140.699 98.5 140.699 98.6L140.899 98.9C140.899 98.9 140.599 98.9 140.899 99.1C141.099 99.3 140.699 99.1 140.699 99.1C140.699 99.2 140.799 99.3 140.599 99.2C140.399 99.2 140.199 99.1 140.299 99.2L140.599 99.4C140.599 99.4 140.299 99.4 140.899 99.6C140.899 99.6 140.899 99.6 140.799 99.6C140.399 99.5 140.399 99.5 140.699 99.6C140.899 99.7 140.899 99.7 140.899 99.8V99.9C140.899 99.9 140.599 99.9 140.499 99.9C140.499 99.9 140.699 100.1 140.399 99.9C140.099 99.9 140.099 99.9 140.099 99.9C140.099 99.9 139.799 99.9 140.399 100.1C139.599 99.9 140.599 100.3 140.399 100.3C140.199 100.3 140.299 100.4 140.299 100.5C140.299 100.5 140.099 100.5 140.499 100.6C140.699 100.6 140.699 100.6 140.499 100.6C139.899 100.4 140.199 100.6 140.099 100.6C139.999 100.6 140.199 100.8 139.699 100.6C139.499 100.6 139.399 100.6 139.899 100.8L140.199 100.9C140.199 100.9 139.999 100.9 139.899 100.9C140.499 101.2 139.599 100.9 139.799 101.1C139.999 101.2 139.799 101.3 139.799 101.4C139.799 101.4 139.499 101.4 138.399 101.2C137.899 101.1 137.399 101 136.999 100.9C136.799 100.9 136.599 100.8 136.499 100.7C136.499 100.7 136.299 100.6 136.199 100.5C135.999 100.4 135.499 100.2 135.799 100.2C135.799 100.2 135.599 100.1 136.099 100.2C135.399 99.9 135.899 99.9 135.899 99.8C135.899 99.8 135.299 99.4 135.599 99.4C134.999 99.2 135.099 99.1 135.299 99.1C135.999 99.1 135.599 98.8 135.799 98.7C135.899 98.6 135.899 98.4 135.999 98.2C135.999 98.2 135.699 98 135.999 98.1C136.699 98.2 136.399 97.9 136.499 97.8C136.599 97.8 136.699 97.6 136.599 97.4C136.599 97.3 136.299 97.1 136.399 97C136.399 97 136.199 96.8 136.699 97C136.899 97 136.499 96.8 136.499 96.8C136.499 96.8 136.499 96.7 136.499 96.6C136.499 96.6 136.599 96.5 136.599 96.4C136.599 96.4 136.399 96.2 136.399 96.1V96C136.399 96 136.699 96 136.799 96C136.799 96 136.699 95.8 136.999 95.9C137.499 96.1 137.299 95.9 137.499 95.8C137.599 95.8 137.699 95.7 137.699 95.5C137.699 95.5 138.099 95.6 138.199 95.5C138.199 95.5 138.199 95.5 138.399 95.6C138.499 95.6 138.699 95.8 138.899 95.9C139.299 96.1 139.699 96.4 139.899 96.6L140.099 96.7C140.499 97 140.999 97.4 140.999 97.5C140.899 97.5 140.899 97.6 140.799 97.7L140.899 98.1Z" fill="black"/>
<path d="M142.2 123.101C142.2 122.901 142.3 122.601 142.3 122.401C142.3 122.401 142.6 122.301 142.1 122.101C141.8 122.101 142.5 122.101 142.5 122.001C142.5 121.801 142.6 121.601 142.5 121.301C142.5 121.101 142.3 120.801 142.3 120.601C142.3 120.401 142.6 120.201 142.3 120.001C142.1 119.801 142.6 119.701 142.5 119.501C142.5 119.301 142.4 119.101 142.6 119.001C142.8 119.001 143 118.801 143 118.701C143 118.701 142.6 118.501 142.7 118.401C142.7 118.401 143 118.301 142.4 118.101C142.4 118.101 142.4 118.101 142.6 118.101C143 118.101 143 118.001 142.8 117.901C142.5 117.801 142.6 117.701 142.6 117.701C142.6 117.501 142.6 117.301 142.7 117.201C142.7 117.101 143 117.001 143.1 116.901C143.1 116.801 142.9 116.601 143.3 116.501C143.6 116.501 143.6 116.301 143.7 116.201C143.7 116.201 144 116.201 143.4 115.901C144.3 115.901 143.2 115.401 143.4 115.301C143.6 115.101 143.5 114.901 143.6 114.701C143.6 114.701 143.8 114.701 143.4 114.501C143.2 114.501 143.2 114.401 143.4 114.401C144 114.401 143.7 114.101 143.8 114.001C144 113.801 143.8 113.601 144.2 113.501C144.4 113.501 144.5 113.401 144 113.201C143.7 113.201 144 113.101 144 113.001L143.7 112.801C143.7 112.801 143.9 112.801 144.1 112.801C143.5 112.401 144.4 112.301 144.3 112.001C144.2 111.701 144.3 111.401 144.4 111.201C144.4 111.101 144.7 110.901 145.8 111.101C146.3 111.101 146.9 111.301 147.2 111.401C147.4 111.401 147.6 111.601 147.7 111.701C147.7 111.801 147.9 111.901 148 112.001C148.2 112.201 148.6 112.501 148.3 112.601C148.3 112.601 148.5 112.801 148 112.701C148.7 113.101 148.2 113.201 148.2 113.501C148.2 113.701 148.8 114.001 148.5 114.201C149.1 114.401 149 114.601 148.8 114.601C148.1 114.901 148.4 115.401 148.3 115.801C148.1 116.201 148.1 116.601 148 117.101C148 117.101 148.3 117.301 148 117.301C147.7 117.301 148 117.501 147.9 117.601V117.801C147.2 118.001 147.5 118.401 147.4 118.701C147.3 119.001 147.1 119.301 147.2 119.701C147.2 119.901 147.6 120.201 147.4 120.401C147.4 120.401 147.6 120.601 147 120.601C146.8 120.601 147.3 120.801 147.3 120.801C147.3 120.901 147.3 121.101 147.3 121.201C147.3 121.401 147.2 121.601 147.3 121.801C147.3 121.901 147.5 122.101 147.6 122.201C147.6 122.301 147.6 122.501 147.6 122.601C147.5 122.701 147.3 122.901 147.2 123.001C147.2 123.101 147.3 123.401 147 123.501C146.4 123.701 146.6 124.001 146.5 124.301C146.4 124.601 146.3 124.901 146.4 125.201C146.4 125.401 145.9 125.401 145.9 125.601C145.9 125.601 144.4 125.501 143.9 125.401H143.7C143.3 125.201 142.6 124.901 142.7 124.701C142.8 124.501 142.8 124.201 142.9 123.901L142.2 123.101Z" fill="black"/>
<path d="M178.5 197.699C178.1 197.699 177.7 197.599 177.2 197.599C177 197.599 176.9 197.299 176.7 197.799C176.6 198.099 176.5 197.399 176.4 197.399C176 197.399 175.6 197.199 175.2 197.199C174.8 197.199 174.4 197.299 174 197.199C173.6 197.199 173.3 196.799 172.9 196.999C172.5 197.199 172.4 196.599 172 196.699C171.7 196.699 171.3 196.699 171.1 196.399C170.9 196.199 170.8 195.899 170.5 195.899C170.3 195.899 170.1 196.199 170 196.099C169.9 196.099 169.8 195.699 169.5 196.299C169.5 196.299 169.5 196.299 169.5 196.099C169.5 195.699 169.3 195.599 169.1 195.799C168.9 195.999 168.8 195.899 168.7 195.899C168.4 195.899 168.1 195.699 167.8 195.499C167.6 195.399 167.5 194.999 167.3 194.899C167.1 194.699 166.7 194.899 166.6 194.499C166.6 194.099 166.3 193.999 166.1 193.899C166 193.899 166 193.499 165.6 193.999C165.6 193.099 164.8 193.899 164.6 193.499C164.4 193.099 163.9 193.099 163.6 192.899C163.6 192.899 163.5 192.599 163.2 192.899C163.1 192.999 163 192.899 163 192.899C163 192.199 162.6 192.399 162.4 192.099C162.2 191.799 161.7 191.799 161.7 191.199C161.7 190.899 161.7 190.699 161.1 191.099C160.9 191.299 160.9 190.899 160.7 190.899C160.6 190.899 160.3 190.899 160.2 190.899C160.2 190.899 160.2 190.599 160.2 190.399C159.3 190.399 159.6 189.399 159.1 189.099C158.6 188.699 158.3 188.199 158.1 187.599C158 187.299 158.1 186.799 159 186.199C159.4 185.899 160 185.699 160.3 185.699C160.6 185.699 160.8 185.699 160.9 185.699C161 185.699 161.2 185.799 161.4 185.899C161.7 185.999 162.3 185.899 162.2 186.299C162.2 186.399 162.5 186.299 162.1 186.699C162.9 186.499 162.7 187.099 163 187.299C163.3 187.499 163.9 187.299 163.9 187.599C164.4 187.199 164.5 187.399 164.5 187.599C164.5 188.499 165.4 188.499 165.9 188.899C166.4 189.299 167.1 189.599 167.7 189.899C167.8 189.899 168.1 189.699 168.1 189.899C168.1 190.199 168.3 190.099 168.5 190.099C168.6 190.099 168.8 190.099 168.9 190.299C169.1 191.099 169.8 190.999 170.3 191.299C170.8 191.599 171.3 191.799 171.8 191.899C172.1 191.899 172.6 191.699 172.8 191.899C172.9 191.899 173.2 191.699 173.1 192.299C173.1 192.499 173.3 192.099 173.4 192.099C173.6 192.099 173.8 192.199 174.1 192.299C174.4 192.299 174.7 192.499 175 192.499C175.2 192.499 175.4 192.299 175.6 192.299C175.8 192.299 176 192.299 176.2 192.399C176.4 192.499 176.6 192.799 176.9 192.899C177.1 192.999 177.5 192.799 177.7 193.099C178.1 193.699 178.6 193.499 179.1 193.599C179.6 193.699 180 193.799 180.5 193.699C180.8 193.699 181 194.199 181.2 194.199C181.3 194.199 181.4 195.699 181.3 196.199V196.399C181 196.799 180.7 197.599 180.4 197.499C179.9 197.399 179.4 197.399 179 197.299L178.5 197.699Z" fill="black"/>
<path d="M163.7 178.798C163.9 179.198 164 179.498 164.2 179.898C164.2 179.998 164.1 180.298 164.6 180.198C164.9 180.198 164.3 180.498 164.4 180.698C164.6 180.998 164.6 181.398 164.8 181.698C165 181.998 165.3 182.298 165.4 182.698C165.5 183.098 165.4 183.498 165.7 183.898C166 184.298 165.5 184.698 165.6 185.098C165.6 185.498 165.6 186.098 165.2 186.398C164.9 186.698 164.6 186.798 164.5 187.098C164.5 187.298 164.5 187.698 164.4 187.798C164.2 187.898 163.9 187.898 164.2 188.498C164.2 188.498 164.1 188.498 164 188.498C163.6 188.298 163.4 188.498 163.4 188.798C163.4 189.098 163.3 189.198 163.1 189.298C162.7 189.498 162.4 189.698 162 189.798C161.7 189.798 161.4 189.798 161.1 189.798C160.8 189.798 160.6 190.098 160.3 189.798C160 189.498 159.8 189.598 159.5 189.598C159.4 189.598 159.2 189.298 159.1 189.998C158.7 189.198 158.4 190.298 158 189.998C157.6 189.798 157.2 189.898 156.8 189.898C156.7 189.898 156.6 189.698 156.5 190.098C156.5 190.298 156.3 190.298 156.3 190.098C156.1 189.398 155.8 189.698 155.5 189.598C155.2 189.398 154.8 189.598 154.6 188.998C154.6 188.798 154.4 188.598 154 189.098C153.8 189.298 153.8 189.098 153.6 189.098C153.5 189.098 153.3 189.298 153.2 189.298C153.2 189.298 153.2 188.998 153.1 188.898C152.4 189.298 152.3 188.298 151.8 188.198C151.3 188.198 150.9 187.798 150.5 187.398C150.3 187.198 150.2 186.898 150.7 185.898C151 185.398 151.3 184.998 151.6 184.798C151.8 184.698 152 184.498 152.1 184.498C152.3 184.498 152.4 184.498 152.6 184.498C152.9 184.498 153.4 184.098 153.4 184.498C153.4 184.598 153.6 184.398 153.4 184.898C154.1 184.398 154.1 184.898 154.4 184.998C154.7 184.998 155.1 184.598 155.3 184.998C155.6 184.498 155.7 184.598 155.8 184.798C156.1 185.598 156.7 185.298 157.2 185.398C157.7 185.598 158.2 185.398 158.8 185.498C158.8 185.498 158.9 185.098 159 185.498C159.1 185.798 159.2 185.498 159.3 185.498C159.3 185.498 159.5 185.298 159.6 185.498C160.1 186.098 160.4 185.498 160.7 185.498C161 185.498 161.3 185.298 161.3 185.098C161.3 184.898 161 184.698 161.2 184.698C161.2 184.698 161 184.598 161.5 184.698C161.7 184.698 161.2 184.598 161.2 184.598C161.2 184.598 161.2 184.498 161.2 184.398C161.2 184.298 161.2 184.098 161.2 183.898C161.2 183.798 160.9 183.698 160.8 183.598C160.8 183.498 160.7 183.298 160.7 183.198C160.7 182.998 160.9 182.798 160.9 182.498C160.9 182.298 160.6 182.198 160.8 181.898C161.1 181.398 160.8 181.098 160.7 180.698C160.6 180.298 160.5 179.998 160.2 179.698C160 179.498 160.4 179.098 160.2 178.898C160.2 178.898 161.3 177.898 161.8 177.698H162C162.5 177.698 163.3 177.498 163.4 177.698C163.6 178.098 163.8 178.498 164 178.898L163.7 178.798Z" fill="black"/>
</svg>
