<svg width="300" height="300" viewBox="0 0 300 300" fill="none" xmlns="http://www.w3.org/2000/svg">
<path d="M183.701 140.601C183.301 140.101 182.901 139.601 182.401 139.201C182.201 139.001 182.201 138.701 181.701 138.901C181.401 138.901 181.701 138.401 181.601 138.201C181.101 137.801 180.801 137.301 180.301 136.901C179.901 136.501 179.301 136.201 178.901 135.901C178.501 135.501 178.301 134.901 177.701 134.701C177.201 134.501 177.201 133.901 176.801 133.601C176.401 133.301 176.001 133.001 175.801 132.501C175.701 132.101 175.601 131.701 175.301 131.501C175.101 131.401 174.701 131.501 174.601 131.301C174.501 131.101 174.501 130.801 173.901 131.001C173.901 131.001 173.901 130.901 173.901 130.801C174.001 130.301 173.901 130.201 173.501 130.201C173.201 130.201 173.101 130.101 172.901 130.001C172.501 129.701 172.201 129.301 171.901 128.901C171.701 128.601 171.601 128.201 171.401 127.901C171.201 127.601 170.701 127.501 170.701 127.001C170.701 126.501 170.401 126.301 170.201 126.001C170.101 125.901 170.201 125.501 169.501 125.801C169.701 124.801 168.501 125.201 168.301 124.601C168.101 124.001 167.501 123.701 167.101 123.301C167.001 123.201 167.101 122.901 166.601 123.101C166.401 123.101 166.301 123.101 166.301 122.901C166.501 122.101 165.901 122.101 165.601 121.701C165.301 121.201 164.801 121.101 164.801 120.301C164.801 120.001 164.701 119.701 164.101 119.901C163.801 119.901 163.801 119.601 163.701 119.501C163.601 119.501 163.301 119.501 163.101 119.401C163.101 119.401 163.101 119.101 163.101 118.901C162.101 118.901 162.301 117.701 161.601 117.401C161.001 117.101 160.501 116.601 160.101 116.201C159.801 116.001 159.701 115.601 160.001 114.501C160.101 114.001 160.401 113.501 160.701 113.301C160.901 113.201 161.201 113.001 161.401 113.101C161.701 113.101 162.001 113.101 162.201 113.301C162.801 113.401 163.501 113.301 163.801 114.001C163.801 114.201 164.201 114.001 164.001 114.601V114.701C165.101 114.701 165.301 115.501 165.801 116.001C166.301 116.401 167.101 116.401 167.301 117.001C168.001 116.801 168.201 117.201 168.201 117.501C168.501 118.801 169.601 119.301 170.301 120.301C171.001 121.201 171.901 122.001 172.701 122.901C172.801 123.101 173.201 122.901 173.201 123.301C173.201 123.601 173.501 123.701 173.701 123.901C173.901 124.101 174.101 124.201 174.201 124.401C174.301 125.501 175.301 125.901 175.801 126.701C176.401 127.401 177.001 128.101 177.701 128.701C178.201 129.001 178.801 129.201 179.101 129.701C179.201 129.901 179.601 129.901 179.401 130.401C179.401 130.601 179.801 130.401 179.901 130.501C180.201 130.701 180.401 131.101 180.701 131.301C181.101 131.701 181.401 132.101 181.801 132.501C182.001 132.701 182.401 132.801 182.701 133.001C183.001 133.201 183.201 133.501 183.401 133.701C183.601 134.101 183.801 134.501 184.001 134.901C184.301 135.301 184.801 135.401 184.901 135.901C185.101 136.801 185.801 137.201 186.301 137.901C186.801 138.501 187.301 139.101 187.901 139.601C188.301 139.901 188.201 140.501 188.501 140.801C188.601 140.901 187.801 142.201 187.301 142.401H187.101C186.501 142.401 185.701 142.601 185.401 142.201C185.001 141.601 184.401 141.101 183.901 140.601H183.701Z" fill="black"/>
<path d="M166.101 147.302C166.501 147.102 166.801 147.002 167.201 146.702C167.301 146.702 167.601 146.702 167.501 146.202C167.501 145.902 167.901 146.402 168.001 146.402C168.301 146.202 168.701 146.102 169.001 145.902C169.301 145.702 169.501 145.302 169.801 145.102C170.101 144.902 170.601 145.102 170.801 144.602C171.001 144.202 171.401 144.602 171.601 144.302C171.801 144.102 172.101 143.902 172.501 144.002C172.801 144.002 173.101 144.202 173.201 144.002C173.201 143.902 173.201 143.502 173.401 143.502C173.501 143.502 173.801 143.702 173.701 143.002C173.701 143.002 173.701 143.002 173.901 143.002C174.201 143.302 174.401 143.202 174.401 143.002C174.401 142.702 174.501 142.702 174.601 142.602C174.901 142.502 175.201 142.302 175.501 142.302C175.701 142.302 176.001 142.302 176.301 142.302C176.501 142.302 176.701 141.902 177.001 142.102C177.301 142.302 177.501 142.202 177.701 142.102C177.801 142.102 178.101 142.302 177.901 141.602C178.501 142.302 178.501 141.102 178.901 141.202C179.301 141.202 179.601 141.002 180.001 140.902C180.001 140.902 180.301 141.002 180.201 140.502C180.201 140.302 180.201 140.302 180.401 140.402C180.901 140.902 181.001 140.402 181.301 140.402C181.601 140.402 181.901 140.002 182.301 140.402C182.501 140.602 182.701 140.602 182.701 140.002C182.701 139.702 182.901 140.002 183.001 139.802C183.001 139.802 183.001 139.402 183.201 139.402C183.201 139.402 183.401 139.602 183.501 139.702C183.801 138.902 184.501 139.702 184.901 139.302C185.301 139.002 185.801 138.902 186.301 138.902C186.601 138.902 186.901 138.902 187.401 140.002C187.601 140.502 187.801 141.002 187.701 141.402C187.701 141.702 187.701 141.902 187.601 142.002C187.501 142.102 187.401 142.302 187.301 142.402C187.101 142.702 186.901 143.302 186.601 143.102C186.501 143.102 186.501 143.402 186.201 142.902C186.001 143.802 185.501 143.402 185.101 143.602C184.801 143.802 184.601 144.502 184.201 144.302C184.201 145.002 184.001 144.902 183.701 144.802C182.801 144.402 182.301 145.002 181.601 145.202C180.901 145.302 180.301 145.702 179.601 145.902C179.501 145.902 179.601 146.302 179.301 146.102C179.101 145.902 179.001 146.102 178.801 146.202C178.701 146.202 178.601 146.402 178.401 146.302C177.601 145.902 177.301 146.502 176.701 146.602C176.201 146.702 175.601 146.902 175.201 147.302C174.901 147.502 174.801 148.002 174.401 148.002C174.201 148.002 174.201 148.402 173.901 147.902C173.801 147.802 173.901 148.202 173.801 148.302C173.601 148.402 173.401 148.502 173.201 148.602C172.901 148.702 172.601 148.802 172.301 149.002C172.101 149.102 172.101 149.402 171.901 149.602C171.701 149.702 171.601 149.802 171.301 149.902C171.001 149.902 170.701 149.902 170.401 149.902C170.101 149.902 170.001 150.302 169.601 150.202C168.901 150.002 168.601 150.402 168.201 150.602C167.701 150.802 167.301 150.902 166.901 151.302C166.701 151.502 166.201 151.202 166.001 151.302C165.901 151.302 165.101 150.102 164.901 149.702V149.502C164.901 149.002 164.801 148.202 165.101 148.102C165.501 148.002 165.901 147.702 166.301 147.502L166.101 147.302Z" fill="black"/>
<path d="M168.602 166.202C168.602 165.902 168.502 165.502 168.302 165.202C168.302 165.102 168.502 164.902 167.902 164.902C167.602 164.902 168.202 164.602 168.202 164.502C168.102 164.202 168.102 163.902 167.902 163.602C167.802 163.302 167.502 163.102 167.302 162.802C167.202 162.502 167.302 162.102 167.002 161.902C166.702 161.702 167.102 161.402 167.002 161.202C166.802 161.002 166.702 160.702 166.802 160.402C166.902 160.202 167.102 160.002 166.902 159.802C166.902 159.802 166.502 159.702 166.502 159.602C166.502 159.502 166.702 159.302 166.102 159.302C166.102 159.302 166.102 159.302 166.202 159.202C166.602 159.002 166.502 158.802 166.202 158.802C165.902 158.802 165.902 158.702 165.902 158.602C165.902 158.402 165.702 158.102 165.702 157.902C165.702 157.702 165.902 157.502 165.902 157.302C165.902 157.102 165.602 157.002 165.902 156.702C166.202 156.402 166.102 156.302 166.002 156.102C166.002 156.102 166.202 155.802 165.602 155.902C166.302 155.402 165.202 155.402 165.302 155.102C165.402 154.802 165.302 154.502 165.102 154.202C165.102 154.202 165.202 154.002 164.802 154.002C164.602 154.002 164.602 154.002 164.702 153.902C165.202 153.502 164.802 153.402 164.902 153.102C164.902 152.802 164.602 152.602 164.902 152.202C165.102 152.002 165.102 151.902 164.502 151.902C164.202 151.902 164.502 151.702 164.402 151.602C164.402 151.602 164.002 151.602 164.002 151.502C164.002 151.502 164.202 151.302 164.302 151.202C163.602 151.002 164.302 150.402 164.002 150.102C163.702 149.802 163.702 149.402 163.602 149.002C163.602 148.802 163.602 148.502 164.702 148.002C165.202 147.802 165.702 147.602 166.002 147.602C166.202 147.602 166.502 147.602 166.602 147.602C166.702 147.602 166.902 147.802 167.002 147.902C167.302 148.102 167.902 148.202 167.702 148.502C167.702 148.602 168.002 148.602 167.502 148.802C168.402 148.902 168.002 149.402 168.102 149.802C168.202 150.102 168.902 150.202 168.702 150.602C169.402 150.602 169.302 150.802 169.202 151.002C168.702 151.802 169.302 152.202 169.402 152.902C169.402 153.502 169.702 154.102 169.802 154.702C169.802 154.802 170.202 154.802 170.002 155.002C169.802 155.202 170.002 155.302 170.002 155.402C170.002 155.502 170.202 155.602 170.002 155.802C169.502 156.402 170.002 156.802 170.002 157.302C170.002 157.802 170.002 158.302 170.402 158.702C170.602 159.002 171.002 159.202 170.902 159.502C170.902 159.602 171.202 159.702 170.702 159.902C170.502 159.902 171.002 159.902 171.102 160.102C171.102 160.302 171.202 160.502 171.302 160.702C171.302 161.002 171.302 161.302 171.502 161.502C171.502 161.702 171.902 161.802 172.002 161.902C172.102 162.102 172.102 162.202 172.102 162.402C172.102 162.602 171.902 162.902 171.902 163.102C171.902 163.302 172.202 163.502 172.002 163.802C171.602 164.302 172.002 164.702 172.002 165.102C172.002 165.502 172.102 165.902 172.302 166.302C172.402 166.502 172.002 166.802 172.102 167.102C172.102 167.102 170.702 167.702 170.202 167.802H170.002C169.502 167.802 168.702 167.802 168.702 167.402C168.702 167.002 168.502 166.702 168.402 166.302L168.602 166.202Z" fill="black"/>
<path d="M162.202 186.203C162.302 185.803 162.502 185.403 162.502 185.003C162.502 184.803 162.802 184.803 162.402 184.503C162.202 184.303 162.802 184.403 162.802 184.203C162.802 183.803 163.102 183.503 163.102 183.103C163.102 182.703 163.102 182.303 163.102 181.903C163.102 181.503 163.602 181.303 163.402 180.803C163.202 180.403 163.802 180.303 163.802 180.003C163.802 179.703 163.802 179.303 164.102 179.103C164.302 178.903 164.602 178.803 164.602 178.603C164.602 178.403 164.302 178.203 164.402 178.103C164.402 178.003 164.802 177.903 164.202 177.603C164.202 177.603 164.202 177.603 164.402 177.603C164.802 177.603 164.902 177.403 164.602 177.203C164.402 177.003 164.502 176.903 164.502 176.803C164.502 176.503 164.602 176.203 164.802 175.903C164.902 175.703 165.202 175.603 165.402 175.403C165.502 175.203 165.402 174.903 165.702 174.703C166.102 174.603 166.102 174.403 166.202 174.203C166.202 174.103 166.602 174.003 166.002 173.703C166.902 173.703 166.002 173.003 166.302 172.703C166.602 172.403 166.602 172.003 166.702 171.703C166.702 171.703 166.902 171.603 166.502 171.303C166.402 171.303 166.402 171.103 166.502 171.103C167.202 171.103 166.902 170.603 167.102 170.403C167.302 170.103 167.102 169.703 167.702 169.603C167.902 169.603 168.102 169.403 167.602 169.103C167.402 168.903 167.602 168.903 167.602 168.803C167.602 168.703 167.302 168.503 167.402 168.403C167.402 168.403 167.702 168.403 167.802 168.303C167.302 167.703 168.302 167.503 168.202 167.003C168.202 166.703 168.202 166.603 168.202 166.303C168.202 166.003 168.402 165.703 168.602 165.303C168.802 164.903 169.302 164.503 170.402 165.103C170.902 165.303 171.302 165.703 171.502 166.003C171.602 166.203 171.802 166.403 171.802 166.503C171.802 166.603 171.902 166.803 172.002 166.903C172.102 167.103 172.602 167.403 172.202 167.703C172.102 167.703 172.302 168.003 171.802 167.903C172.502 168.503 171.802 168.903 171.802 169.303C171.802 169.703 172.202 170.203 171.802 170.503C172.302 170.903 172.202 171.103 171.902 171.203C171.002 171.703 171.202 172.503 170.902 173.203C170.602 173.903 170.402 174.603 170.102 175.303C170.102 175.403 170.402 175.603 170.102 175.703C169.802 175.703 169.902 176.003 169.902 176.103C169.902 176.203 169.902 176.403 169.702 176.503C168.902 176.803 169.102 177.503 168.802 178.003C168.502 178.503 168.302 179.003 168.302 179.603C168.302 180.003 168.502 180.403 168.302 180.703C168.202 180.803 168.502 181.103 167.902 181.003C167.702 181.003 168.102 181.303 168.102 181.403C168.102 181.603 168.002 181.903 167.902 182.103C167.802 182.403 167.602 182.703 167.602 183.103C167.602 183.303 167.702 183.603 167.702 183.803C167.702 184.003 167.702 184.203 167.502 184.403C167.302 184.603 167.102 184.803 166.902 185.103C166.802 185.303 166.902 185.703 166.602 185.903C166.002 186.203 166.102 186.803 165.902 187.203C165.702 187.603 165.502 188.103 165.502 188.603C165.502 188.903 165.002 189.003 164.902 189.203C164.902 189.303 163.402 189.203 162.902 189.003H162.702C162.302 188.603 161.702 188.203 161.802 187.903C162.002 187.403 162.102 187.003 162.202 186.503V186.203Z" fill="black"/>
<path d="M157.6 168.101C157.5 167.801 157.4 167.601 157.2 167.401C157.2 167.401 157.2 167.101 156.8 167.401C156.6 167.501 157 167.101 156.9 167.001C156.7 166.801 156.6 166.601 156.3 166.501C156.1 166.401 155.7 166.401 155.5 166.301C155.3 166.301 155.2 165.901 154.9 166.101C154.6 166.301 154.6 165.801 154.4 165.801C154.2 165.801 154 165.801 153.8 165.601C153.7 165.401 153.6 165.201 153.4 165.301C153.3 165.301 153.2 165.701 153.1 165.701C153.1 165.701 152.9 165.401 152.8 166.001C152.8 166.001 152.8 166.001 152.8 165.901C152.7 165.501 152.6 165.501 152.5 165.901C152.5 166.201 152.4 166.101 152.3 166.201C152.1 166.201 152 166.301 151.8 166.301C151.7 166.301 151.5 166.101 151.3 166.101C151.1 166.101 151.1 166.401 150.8 166.201C150.5 166.001 150.4 166.201 150.3 166.201C150.3 166.201 150 166.101 150.3 166.601C149.6 166.101 150.1 167.101 149.8 167.101C149.5 167.101 149.4 167.401 149.2 167.701C149.2 167.701 149 167.701 149.2 168.001C149.3 168.101 149.2 168.201 149.2 168.101C148.6 167.901 148.8 168.301 148.6 168.401C148.4 168.501 148.6 168.901 148 168.901C147.8 168.901 147.6 169.001 148 169.401C148.2 169.601 148 169.601 148 169.701L148.2 170.001C148.2 170.001 147.9 170.001 147.8 170.001C148.3 170.601 147.4 170.601 147.4 171.101C147.4 171.501 147.4 171.901 147.2 172.301C147.2 172.501 146.9 172.701 145.7 172.701C145.2 172.701 144.6 172.701 144.3 172.501C144.1 172.401 143.9 172.301 143.8 172.201C143.8 172.001 143.6 171.901 143.5 171.701C143.4 171.401 142.9 170.901 143.2 170.701C143.3 170.701 143 170.401 143.6 170.501C142.9 169.901 143.6 169.501 143.6 169.101C143.6 168.701 143.2 168.101 143.6 167.801C143.1 167.301 143.3 167.101 143.6 167.001C144.6 166.501 144.6 165.601 145.3 165.001C145.9 164.401 146.5 163.701 147.2 163.201C147.3 163.201 147.2 162.701 147.5 162.901C147.8 163.001 147.9 162.701 148 162.601C148.2 162.601 148.3 162.301 148.5 162.401C149.4 162.701 149.9 162.101 150.7 162.001C151.4 162.001 152.1 162.001 152.8 161.701C153.2 161.701 153.7 161.301 154.1 161.501C154.3 161.501 154.5 161.301 154.6 161.901C154.6 162.101 154.9 161.701 155 161.701C155.3 161.701 155.6 161.901 155.9 162.001C156.3 162.201 156.7 162.401 157.1 162.501C157.3 162.501 157.7 162.501 158 162.601C158.3 162.701 158.5 162.901 158.7 163.101C158.9 163.401 159 163.801 159.2 164.101C159.4 164.401 159.9 164.501 159.8 165.001C159.8 165.801 160.3 166.201 160.5 166.701C160.7 167.301 160.9 167.801 161.1 168.401C161.3 168.701 160.8 169.101 160.9 169.401C160.9 169.601 159.5 169.901 159 169.901H158.8C158.3 169.701 157.6 169.701 157.6 169.401C157.6 169.101 157.4 168.801 157.3 168.501L157.6 168.101Z" fill="black"/>
<path d="M149.501 137.402C149.301 137.602 149.001 137.702 148.901 137.902C148.901 137.902 148.601 137.902 148.901 138.302C149.001 138.502 148.501 138.102 148.501 138.202C148.301 138.402 148.101 138.502 147.901 138.702C147.801 138.902 147.701 139.202 147.601 139.402C147.501 139.602 147.101 139.602 147.101 140.002C147.101 140.302 146.701 140.102 146.601 140.302C146.601 140.502 146.401 140.702 146.101 140.702C145.901 140.702 145.601 140.702 145.601 140.802C145.601 140.902 145.701 141.202 145.601 141.302C145.601 141.302 145.301 141.302 145.601 141.702C145.601 141.702 145.601 141.702 145.401 141.702C145.001 141.502 145.001 141.602 145.101 141.902C145.201 142.102 145.101 142.202 145.101 142.202C145.001 142.402 144.901 142.502 144.701 142.702C144.601 142.702 144.301 142.702 144.101 142.802C143.901 142.802 144.101 143.202 143.701 143.102C143.401 143.102 143.301 143.102 143.201 143.202C143.201 143.202 142.901 143.202 143.201 143.602C142.401 143.202 143.101 144.102 142.801 144.202C142.501 144.202 142.401 144.602 142.301 144.802C142.301 144.802 142.101 144.802 142.301 145.102C142.401 145.202 142.301 145.302 142.301 145.202C141.701 145.002 141.901 145.402 141.701 145.402C141.501 145.502 141.601 145.902 141.001 145.702C140.801 145.702 140.601 145.702 141.001 146.102C141.201 146.302 141.001 146.202 141.001 146.302C141.001 146.302 141.201 146.602 141.201 146.702C141.201 146.702 140.901 146.702 140.801 146.702C141.201 147.302 140.201 147.102 140.201 147.502C140.201 147.902 139.901 148.102 139.701 148.302C139.601 148.402 139.301 148.502 138.301 148.002C137.801 147.802 137.401 147.502 137.101 147.202C136.901 147.002 136.801 146.802 136.801 146.802C136.801 146.702 136.801 146.502 136.801 146.302C136.801 146.002 136.401 145.502 136.801 145.502C136.901 145.502 136.801 145.202 137.201 145.502C136.701 144.802 137.301 144.802 137.501 144.502C137.601 144.302 137.301 143.702 137.601 143.602C137.201 143.102 137.401 143.002 137.601 143.002C138.501 143.002 138.401 142.302 138.801 141.902C139.201 141.502 139.501 141.002 139.901 140.602C139.901 140.602 139.701 140.202 140.001 140.302C140.301 140.302 140.201 140.202 140.301 140.102C140.301 140.102 140.301 139.802 140.501 139.902C141.301 140.002 141.301 139.402 141.601 139.202C141.901 138.902 142.301 138.702 142.501 138.302C142.601 138.002 142.501 137.602 142.801 137.502C142.901 137.502 142.801 137.102 143.301 137.502C143.401 137.502 143.301 137.202 143.301 137.102C143.301 136.902 143.501 136.802 143.701 136.702C143.901 136.502 144.101 136.402 144.201 136.202C144.201 136.102 144.201 135.802 144.301 135.602C144.301 135.402 144.501 135.302 144.701 135.302C144.901 135.302 145.201 135.302 145.401 135.202C145.601 135.202 145.601 134.802 145.901 134.802C146.501 135.002 146.601 134.502 147.001 134.302C147.301 134.102 147.601 133.902 147.901 133.602C148.001 133.402 148.501 133.702 148.601 133.602C148.601 133.602 149.601 134.702 149.901 135.102C149.901 135.102 149.901 135.302 150.001 135.302C150.101 135.802 150.401 136.502 150.201 136.602C149.901 136.702 149.701 137.002 149.401 137.202L149.501 137.402Z" fill="black"/>
<path d="M139.601 134.201C139.801 134.401 139.901 134.701 140.101 134.801C140.101 134.801 140.101 135.101 140.501 134.801C140.701 134.701 140.3 135.201 140.4 135.201C140.6 135.401 140.7 135.601 140.9 135.801C141.1 135.901 141.401 136.001 141.701 136.101C141.901 136.201 141.901 136.601 142.301 136.601C142.601 136.601 142.401 137.001 142.601 137.101C142.801 137.101 143.001 137.301 143.001 137.601C143.001 137.801 143.001 138.101 143.101 138.101C143.201 138.101 143.501 138.001 143.601 138.101C143.601 138.101 143.601 138.401 144.001 138.101C144.001 138.101 144.001 138.101 144.001 138.301C143.801 138.701 143.901 138.701 144.201 138.601C144.401 138.501 144.501 138.601 144.501 138.601C144.701 138.701 144.801 138.801 145.001 139.001C145.001 139.101 145.001 139.401 145.101 139.601C145.101 139.801 145.5 139.601 145.4 140.001C145.4 140.301 145.401 140.401 145.501 140.501C145.501 140.501 145.5 140.801 145.9 140.501C145.5 141.301 146.401 140.601 146.501 140.901C146.501 141.201 146.901 141.301 147.101 141.401C147.101 141.401 147.1 141.601 147.4 141.401C147.5 141.301 147.601 141.401 147.501 141.401C147.301 142.001 147.701 141.801 147.701 142.001C147.801 142.201 148.201 142.101 148.001 142.701C148.001 142.901 148 143.101 148.4 142.701C148.6 142.501 148.501 142.701 148.601 142.701C148.601 142.701 148.901 142.501 149.001 142.501C149.001 142.501 149.001 142.801 149.001 142.901C149.601 142.501 149.401 143.501 149.801 143.501C150.201 143.501 150.401 143.801 150.601 144.001C150.701 144.101 150.801 144.401 150.301 145.401C150.101 145.901 149.801 146.301 149.501 146.601C149.301 146.801 149.101 146.901 149.101 146.901C149.001 146.901 148.801 146.901 148.601 146.901C148.301 146.901 147.801 147.301 147.801 146.901C147.801 146.801 147.501 146.901 147.801 146.501C147.101 147.001 147.101 146.401 146.801 146.201C146.601 146.101 146 146.401 145.9 146.101C145.4 146.501 145.301 146.301 145.301 146.101C145.301 145.201 144.601 145.301 144.201 144.901C143.801 144.501 143.3 144.201 142.9 143.801C142.9 143.801 142.501 144.001 142.601 143.701C142.601 143.401 142.5 143.501 142.4 143.401C142.4 143.401 142.101 143.401 142.201 143.201C142.301 142.401 141.701 142.401 141.501 142.101C141.201 141.801 141.001 141.401 140.601 141.201C140.301 141.101 139.901 141.201 139.801 140.901C139.801 140.801 139.401 140.901 139.801 140.401C139.801 140.301 139.5 140.401 139.4 140.401C139.2 140.401 139.101 140.201 139.001 140.001C138.801 139.801 138.701 139.601 138.501 139.501C138.401 139.501 138.1 139.501 137.9 139.401C137.7 139.401 137.601 139.201 137.601 139.001C137.601 138.801 137.601 138.501 137.501 138.301C137.501 138.101 137.101 138.101 137.101 137.801C137.301 137.201 136.801 137.101 136.601 136.701C136.401 136.401 136.2 136.101 135.9 135.801C135.7 135.701 136 135.201 135.9 135.101C135.9 135.101 137 134.101 137.4 133.801C137.4 133.801 137.601 133.801 137.601 133.701C138.101 133.601 138.8 133.301 138.9 133.501C139 133.801 139.301 134.001 139.501 134.301L139.601 134.201Z" fill="black"/>
<path d="M168.501 134.399C168.301 134.599 168.001 134.699 167.901 134.899C167.901 134.899 167.601 134.899 167.901 135.299C168.001 135.499 167.501 135.099 167.501 135.199C167.301 135.399 167.101 135.499 166.901 135.699C166.801 135.899 166.701 136.199 166.601 136.499C166.501 136.699 166.101 136.699 166.101 137.099C166.101 137.399 165.701 137.199 165.601 137.399C165.601 137.599 165.401 137.799 165.101 137.799C164.901 137.799 164.601 137.799 164.601 137.899C164.601 137.999 164.701 138.299 164.601 138.399C164.601 138.399 164.301 138.399 164.601 138.799C164.601 138.799 164.601 138.799 164.401 138.799C164.001 138.599 164.001 138.699 164.101 138.999C164.201 139.199 164.101 139.299 164.101 139.299C164.001 139.499 163.901 139.599 163.701 139.799C163.601 139.799 163.301 139.799 163.101 139.899C162.901 139.899 163.101 140.299 162.701 140.199C162.401 140.199 162.301 140.199 162.201 140.299C162.201 140.299 161.901 140.299 162.201 140.699C161.401 140.299 162.101 141.199 161.801 141.299C161.501 141.299 161.401 141.699 161.301 141.899C161.301 141.899 161.101 141.899 161.301 142.199C161.401 142.299 161.301 142.399 161.301 142.299C160.701 142.099 160.901 142.499 160.701 142.499C160.501 142.599 160.601 142.999 160.001 142.799C159.801 142.799 159.601 142.799 160.001 143.199C160.201 143.399 160.001 143.299 160.001 143.399C160.001 143.399 160.201 143.699 160.201 143.799C160.201 143.799 159.901 143.799 159.801 143.799C160.201 144.399 159.201 144.199 159.201 144.599C159.201 144.999 158.901 145.199 158.701 145.399C158.601 145.499 158.301 145.599 157.301 145.099C156.801 144.899 156.401 144.599 156.101 144.299C155.901 144.099 155.801 143.899 155.801 143.899C155.801 143.799 155.801 143.599 155.801 143.399C155.801 143.099 155.401 142.599 155.801 142.599C155.901 142.599 155.801 142.299 156.201 142.599C155.701 141.899 156.301 141.899 156.501 141.599C156.601 141.399 156.301 140.799 156.601 140.699C156.201 140.199 156.401 140.099 156.601 140.099C157.501 140.099 157.401 139.399 157.801 138.999C158.201 138.599 158.501 138.099 158.901 137.699C158.901 137.699 158.701 137.299 159.001 137.399C159.301 137.399 159.201 137.299 159.301 137.199C159.301 137.199 159.301 136.899 159.501 136.999C160.301 137.099 160.301 136.499 160.601 136.299C160.901 135.999 161.301 135.799 161.501 135.399C161.601 135.099 161.501 134.699 161.801 134.599C161.901 134.599 161.801 134.199 162.301 134.599C162.401 134.599 162.301 134.299 162.301 134.199C162.301 133.999 162.501 133.899 162.701 133.799C162.901 133.599 163.101 133.499 163.201 133.299C163.201 133.199 163.201 132.899 163.301 132.699C163.301 132.499 163.501 132.399 163.701 132.399C163.901 132.399 164.201 132.399 164.401 132.299C164.601 132.299 164.601 131.899 164.901 131.899C165.501 132.099 165.601 131.599 166.001 131.399C166.301 131.199 166.601 130.999 166.901 130.699C167.001 130.499 167.501 130.799 167.601 130.699C167.601 130.699 168.601 131.799 168.901 132.199C168.901 132.199 168.901 132.399 169.001 132.399C169.101 132.899 169.401 133.599 169.201 133.699C168.901 133.799 168.701 134.099 168.401 134.299L168.501 134.399Z" fill="black"/>
<path d="M158.601 131.201C158.801 131.401 158.901 131.701 159.101 131.801C159.101 131.801 159.101 132.101 159.501 131.801C159.701 131.701 159.3 132.201 159.4 132.201C159.6 132.401 159.7 132.601 159.9 132.801C160.1 132.901 160.401 133.001 160.701 133.101C160.901 133.201 160.901 133.601 161.301 133.601C161.601 133.601 161.401 134.001 161.601 134.101C161.801 134.101 162.001 134.301 162.001 134.601C162.001 134.801 162.001 135.101 162.101 135.101C162.201 135.101 162.501 135.001 162.601 135.101C162.601 135.101 162.601 135.401 163.001 135.101C163.001 135.101 163.001 135.101 163.001 135.301C162.801 135.701 162.901 135.701 163.201 135.601C163.401 135.501 163.501 135.601 163.501 135.601C163.701 135.701 163.801 135.801 164.001 136.001C164.001 136.101 164.001 136.401 164.101 136.601C164.101 136.801 164.5 136.601 164.4 137.001C164.4 137.301 164.401 137.401 164.501 137.501C164.501 137.501 164.5 137.801 164.9 137.501C164.5 138.301 165.401 137.601 165.501 137.901C165.501 138.201 165.901 138.301 166.101 138.401C166.101 138.401 166.1 138.601 166.4 138.401C166.5 138.301 166.601 138.401 166.501 138.401C166.301 139.001 166.701 138.801 166.701 139.001C166.801 139.201 167.201 139.101 167.001 139.701C167.001 139.901 167 140.101 167.4 139.701C167.6 139.501 167.501 139.701 167.601 139.701C167.601 139.701 167.901 139.501 168.001 139.501C168.001 139.501 168.001 139.801 168.001 139.901C168.601 139.501 168.401 140.501 168.801 140.501C169.201 140.501 169.401 140.801 169.601 141.001C169.701 141.101 169.801 141.401 169.301 142.401C169.101 142.901 168.801 143.301 168.501 143.601C168.301 143.801 168.101 143.901 168.101 143.901C168.001 143.901 167.801 143.901 167.601 143.901C167.301 143.901 166.801 144.301 166.801 143.901C166.801 143.801 166.501 143.901 166.801 143.501C166.101 144.001 166.101 143.401 165.801 143.201C165.601 143.101 165 143.401 164.9 143.101C164.4 143.501 164.301 143.301 164.301 143.101C164.301 142.201 163.601 142.301 163.201 141.901C162.801 141.501 162.3 141.201 161.9 140.801C161.9 140.801 161.501 141.001 161.601 140.701C161.601 140.401 161.5 140.501 161.4 140.401C161.4 140.401 161.101 140.401 161.201 140.201C161.301 139.401 160.701 139.401 160.501 139.101C160.201 138.801 160.001 138.401 159.601 138.201C159.301 138.101 158.901 138.201 158.801 137.901C158.801 137.801 158.401 137.901 158.801 137.401C158.801 137.301 158.5 137.401 158.4 137.401C158.2 137.401 158.101 137.201 158.001 137.001C157.801 136.801 157.701 136.601 157.501 136.501C157.401 136.501 157.1 136.501 156.9 136.401C156.7 136.401 156.601 136.201 156.601 136.001C156.601 135.801 156.601 135.501 156.501 135.301C156.501 135.101 156.101 135.101 156.101 134.801C156.301 134.201 155.801 134.101 155.601 133.701C155.401 133.401 155.2 133.101 154.9 132.801C154.7 132.701 155 132.201 154.9 132.101C154.9 132.101 156 131.101 156.4 130.801C156.4 130.801 156.601 130.801 156.601 130.701C157.101 130.601 157.8 130.301 157.9 130.501C158 130.801 158.301 131.001 158.501 131.301L158.601 131.201Z" fill="black"/>
<path d="M130.7 150.5C129.9 151.4 129 152.2 127.8 152.6C126.7 153.1 125.2 153.2 123.9 152.8L124.8 149.2C126.9 149.6 129 150.2 130.9 151.1C132.3 151.7 133.5 152.7 135.1 153.2C135.9 153.5 136.8 154.9 137.8 156.3C138.5 157.2 139 158.4 139.1 159.6C139.2 160.8 139.1 161.9 138.8 162.9C138.3 164.9 137.3 166.8 135.9 168.3C135 169.3 134.1 170.3 132.9 171C132.6 171.2 132.3 171.4 132.1 171.6H131.9C131.9 171.8 131.7 171.9 131.8 171.8C131.7 171.9 131.6 172 131.5 172C131.3 172 131.2 172.1 131.1 172.2C131.1 172.2 131.1 172.2 131 172.2C131 172.2 131 172.2 130.9 172.2C130.9 172.2 131 172.2 131.1 172.2C131.3 172.2 131.4 172.3 131.6 172.4C131.8 172.4 132 172.5 132.1 172.5L132.4 172.7C132.6 172.8 132.7 172.9 132.9 173.1C133.2 173.4 133.5 173.6 133.8 173.9C134.4 174.5 134.9 175.1 135.3 175.8C136.2 177.2 136.8 178.6 137.3 180.2C137.8 181.9 137.9 183.9 137.4 185.7C136.9 187.5 135.9 189.1 134.8 190.3C133.1 192 131.1 193.2 129.3 194.4C128.1 195.1 127.1 195.9 125.7 196.5C125 196.7 124.3 196.9 123.7 197.1C123 197.3 122.4 197.6 121.9 198.1C121.9 198.1 121.2 198.2 120.9 198.2C119.3 198.2 117.6 198.5 116.4 198.9C115.2 199.3 114.1 199.3 113 199.4C109.9 199.4 106.7 199.2 103.7 198.4C101.4 197.9 99.3004 196.9 97.2004 195.9C95.0004 194.9 92.6004 193.8 90.9004 192.3C90.0004 191.5 89.2004 190.7 88.4004 189.7C87.6004 188.7 86.9004 187.6 86.6004 186.3C86.4004 185.6 86.4004 184.7 86.3004 184C86.3004 183.2 86.3004 182.5 86.1004 181.9C86.1004 181.8 86.1004 181.2 86.3004 181C87.3004 179.1 88.3004 177.4 89.6004 176C90.9004 174.5 92.4004 173.3 94.1004 172.5C94.8004 172.2 95.5004 171.9 96.3004 171.6L98.1004 175.7C95.2004 177 92.0004 177.8 88.8004 177.7C87.7004 177.7 86.6004 177.4 85.6004 177.7C85.2004 177.8 84.1004 177.6 83.6004 177.3C82.3004 176.5 80.9004 176 79.4004 174.8C78.7004 174.2 77.9004 173.4 77.5004 172.4C77.0004 171.4 76.9004 170.4 76.9004 169.5C77.0004 165.5 79.0004 162.1 81.7004 160.1C82.9004 159.2 84.3004 158.1 85.4004 156.7C85.9004 156 87.4004 155.4 88.4004 154.7C89.2004 154.2 89.9004 153.5 90.8004 153.1C91.6004 152.7 92.4004 152.6 93.2004 152.4C93.4004 152.4 93.7004 152.2 94.0004 152.1C95.2004 151.5 96.4004 151 97.7004 150.7L98.8004 155.6C97.0004 156 95.1004 156 93.3004 155.8C92.4004 155.7 91.5004 155.5 90.6004 155.3C90.2004 155.2 89.6004 155.1 89.1004 154.9C88.6004 154.7 87.9004 154.3 87.3004 153.9C86.5004 153.2 86.0004 152.3 85.8004 151.3C85.7004 150.8 85.7004 150.3 85.7004 149.9C85.7004 149.5 85.7004 149.1 85.7004 148.8C85.9004 147.5 86.2004 146.2 86.7004 145C87.7004 142.6 89.3004 140.4 91.3004 138.7C93.4004 136.8 96.4004 135.6 98.5004 136.3C99.4004 136.6 99.5004 137.1 98.5004 137.7C97.8004 138.1 97.2004 138.7 96.4004 139.1C95.3004 139.8 94.3004 140.7 93.4004 141.6C92.5004 142.6 91.8004 143.7 91.3004 144.9C90.8004 146.1 90.3004 147.3 89.9004 148.5C89.8004 148.9 89.8004 149.3 89.7004 149.7C89.7004 150.1 89.7004 150.4 89.4004 150.6C89.4004 150.6 89.4004 150.8 89.4004 150.9C89.6004 151 89.7004 151.1 89.9004 151.2L90.6004 151.4C90.9004 151.4 91.3004 151.5 91.7004 151.6C92.1004 151.6 92.5004 151.7 92.9004 151.8C94.5004 152 96.2004 152 97.8004 151.7L98.6004 155.2C98.2004 155.3 97.8004 155.4 97.4004 155.5C94.2004 156.5 91.6004 158.4 88.8004 159.9C87.7004 161.4 86.0004 162.6 84.7004 163.7C83.5004 164.7 82.6004 165.8 82.0004 167C81.7004 167.6 81.5004 168.2 81.4004 168.9C81.3004 169.6 81.4004 170.2 81.4004 170.6C81.5004 171 81.7004 171.2 82.1004 171.6C82.5004 171.9 83.1004 172.2 83.8004 172.5C85.2004 173 86.6004 173.4 88.1004 173.5C90.8004 173.8 93.7004 173.3 96.1004 172L97.9004 176C96.3004 176.7 94.7004 177.4 93.5004 178.4C92.9004 178.9 92.3004 179.4 91.8004 180C91.3004 180.6 91.0004 181.2 90.7004 181.9C90.4004 182.8 90.6004 183.5 90.4004 184.5C90.2004 185.5 90.8004 186.4 91.6004 187.3C92.3004 188.1 93.4004 188.8 94.3004 189.6C96.2004 191.3 98.6004 192.5 101 193.3C103.5 194.1 106 194.6 108.6 194.9C113.7 195.5 119.1 194.9 123.8 193C126.7 191.8 129.2 190.1 131.2 188.1C131.6 187.7 131.9 187.2 132.2 186.7C132.5 186.2 132.8 185.8 133.3 185.3C133.6 185 133.3 183.9 133.3 183.3C133.3 181.6 132.6 179.8 131.5 178.4C131 177.7 130.4 177.1 129.7 176.6C129.7 176.6 129.1 176.2 128.7 175.9C128.3 175.6 127.8 175.4 127.4 175.2C126.4 174.8 125.3 174.3 123.8 174C123.8 172.7 123.8 172.3 123.6 172C123.6 171.8 123.4 171.7 123.4 171.6C123.4 171.6 123.4 171.6 123.4 171.4V170.9C123.6 170.3 123.8 169.6 123.9 169H125.7H126.6H127C127.1 169 127.2 169 127.3 169C128 168.8 128.7 168.5 129.4 168.3C129.4 168.3 129.5 168.3 129.6 168.2H129.8C129.8 168.1 130 168 130 168L130.4 167.8L131.1 167.4C132.8 166.2 134.3 164.7 134.9 162.7C135.3 161.7 135.3 160.7 135 160C134.8 159.3 134.2 158.6 133.5 157.8C133 157.2 132.3 156.7 131.6 156.2C130.9 155.7 130.1 155.3 129.3 154.9C127.7 154.1 126 153.6 124.2 153.3L125.1 149.7C125.5 149.8 125.9 149.7 126.4 149.7C127.1 149.5 127.8 148.9 128.2 148.3C128.6 147.7 128.9 146.8 129 145.8C129.1 143.9 128.6 141.7 127.7 139.8C126.8 137.6 126 135.4 124.5 133.5C123.8 132.7 123.7 130.5 124.4 130.5C124.5 130.5 124.8 130.5 124.9 130.7C127.1 132.2 129.2 133.9 130.5 136.8C131.5 138.9 132.2 141.1 132.5 143.5C132.8 145.9 132.7 148.7 130.8 151.1L130.7 150.5Z" fill="black"/>
<path d="M178.499 191.499C180.099 191.699 181.699 191.899 183.299 191.799C183.899 191.799 184.499 191.999 184.999 191.399C185.199 191.099 185.899 191.599 186.399 191.399C187.699 190.999 188.899 190.499 189.999 189.599C190.999 188.799 191.6 187.599 192.1 186.599C192.3 186.099 192.5 185.599 192.6 185.099C192.6 184.599 192.599 183.999 192.399 183.599C192.199 183.199 192.099 182.799 191.999 182.399C191.999 182.199 191.899 181.999 191.799 181.799C191.699 181.599 191.599 181.399 191.399 181.299C191.199 181.099 191 180.999 190.799 180.799L190.499 180.599C190.499 180.599 190.5 180.599 190.299 180.499L189.899 180.199L189.1 179.699C188.9 179.499 188.4 179.399 188.1 179.299L187.1 178.899C186.6 178.799 186.099 178.699 185.499 178.599H185.299V177.699C185.299 177.499 185.299 177.199 185.299 177.099C185.299 176.799 185.199 176.599 184.999 176.499C184.899 176.399 184.7 176.299 184.6 176.299C184.5 176.299 184.399 176.199 184.299 176.199C184.299 176.199 184.1 176.199 184.1 176.099C184.3 175.999 184.599 175.799 184.299 175.499C184.199 175.399 184.1 175.199 184.1 174.999C184.1 174.799 184.1 174.699 184.1 174.399V173.599C186.9 173.199 188.999 172.699 190.999 171.999H191.299C191.299 171.899 191.499 171.799 191.499 171.799L191.799 171.699L192.499 171.499C192.899 171.399 193.399 171.299 193.799 171.099C194.699 170.799 195.6 169.999 196.1 169.899C196.8 169.799 196.799 169.599 196.899 169.299C196.899 169.199 197.099 168.699 196.399 168.699C196.399 168.699 196.399 168.699 196.399 168.499C196.599 167.899 196.1 167.399 195.6 167.099C195.3 166.899 195.099 166.799 194.799 166.699C194.5 166.599 194.199 166.399 193.999 166.099C192.999 165.099 191.599 164.599 190.299 164.099C189.899 163.999 189.799 163.699 188.699 163.899C188.399 163.899 187.5 163.799 187.1 163.599C186.8 163.499 186.599 163.399 186.299 163.299C186 163.299 185.699 163.199 185.399 163.099C184.799 163.099 184.099 162.999 183.299 162.899C181.799 162.899 180.099 162.899 178.799 162.699H177.1C178.2 161.899 179.399 161.299 180.499 160.599C181.699 159.899 183.199 159.099 184.499 158.499C185.999 157.799 187.099 157.099 187.399 155.799C187.399 155.399 187.899 155.199 187.999 154.799C188.099 154.499 187.999 154.199 187.999 153.899C187.999 153.699 188.399 153.499 188.499 153.299V153.099C188.299 152.399 188.299 151.899 188.199 151.299C188.199 150.799 187.899 150.199 187.299 149.799C186.699 149.399 185.9 148.999 185.1 148.599C184.3 148.199 183.5 147.899 182.6 147.699C181.7 147.399 180.699 147.099 179.999 145.999C179.699 145.499 179.699 144.899 180.199 144.599C180.599 144.399 180.999 144.199 181.499 144.199C182.199 144.199 182.9 144.199 183.6 144.199C185 144.299 186.599 144.399 187.799 145.299C188.199 145.599 188.799 145.599 188.899 146.299C188.899 146.299 189 146.499 189.1 146.599C190.2 146.899 191.099 147.699 191.699 148.899C192.299 150.099 192.499 151.299 192.499 152.499C192.499 153.499 192.5 154.499 192.299 155.499C192.099 156.499 191.699 157.499 190.999 158.099C190.999 158.299 190.999 158.399 190.999 158.599V158.799C190.999 158.799 191 158.799 190.799 158.799C190.399 158.799 190.099 158.999 189.799 159.099C189.799 159.099 190.199 159.099 190.399 159.099C190.499 159.099 190.599 159.099 190.699 159.099C190.699 159.099 190.699 159.099 190.799 159.099L191.299 159.299C192.899 159.899 194.499 160.699 195.999 161.599C197.399 162.499 199 163.699 200.1 165.599C200.4 166.199 201.099 166.699 200.999 167.799C200.999 168.299 200.999 168.899 200.899 169.499C200.899 170.099 200.599 170.799 200.299 171.299C199.699 172.299 198.899 172.999 198.199 173.299C197.399 173.599 196.899 173.699 196.299 173.999C195.699 174.199 195.099 174.499 194.499 174.799L192.899 175.499C192.699 175.499 192.599 175.599 192.399 175.699H191.999L190.899 175.999H190.499C190.499 175.999 190.5 175.999 190.6 175.999C190.7 175.999 190.799 175.999 190.999 175.999C191.399 175.999 191.799 175.999 192.199 176.099C192.499 176.099 192.699 176.099 192.699 176.199H192.899C192.899 176.199 192.899 176.199 192.699 176.499C192.699 176.499 192.699 176.499 192.899 176.499C193.099 176.499 193.5 176.699 193.6 176.899C194.6 177.699 195.399 178.799 195.899 179.999C196.699 181.699 196.9 183.699 196.6 185.499C196.4 186.599 196.299 187.799 195.799 188.799C195.299 189.899 194.499 190.799 193.699 191.499C192.599 192.399 191.4 193.099 190.1 193.699C188.8 194.299 187.4 194.999 186.1 194.999C183.6 194.999 181.4 195.099 179.1 194.799C178 194.599 176.899 194.399 175.899 194.199C174.799 193.999 173.699 193.799 172.699 193.599C171.999 193.499 171.399 193.099 170.799 192.699C170.199 192.299 169.599 191.699 168.999 190.999C168.699 190.699 168.8 189.999 169.1 189.599C169.4 189.199 169.899 188.999 170.199 188.999C170.299 188.999 170.399 188.999 170.499 188.999C171.299 189.599 172.099 189.199 172.999 189.599C173.399 189.699 173.799 189.899 174.199 189.999L175.6 190.299C176.5 190.499 177.499 190.599 178.399 190.799L178.499 191.499Z" fill="black"/>
<path d="M95.6992 113.501C97.0992 112.001 98.6992 110.801 100.399 109.801C101.299 109.301 102.199 108.901 103.099 108.601C104.099 108.201 105.099 108.001 106.099 107.901C107.699 107.701 109.199 107.901 110.999 107.901C111.799 107.901 111.499 108.001 111.699 108.201C111.799 108.401 111.999 108.601 112.199 108.701C112.299 108.701 112.399 108.901 112.499 109.101C112.499 108.901 112.499 108.801 112.499 108.701C112.499 108.501 112.499 108.301 112.499 108.201C112.499 108.101 112.499 108.001 112.499 107.801V107.701V107.501L112.699 106.801C112.899 105.901 113.199 105.001 113.499 104.201C114.199 102.501 115.199 100.901 116.499 99.401C117.799 98.001 119.299 96.901 120.899 96.001C124.199 94.301 127.899 93.801 131.199 93.401C134.199 93.001 136.899 93.901 139.699 94.801C140.599 95.101 141.699 95.501 142.699 96.401C143.199 96.901 143.599 97.501 143.899 98.001C143.899 98.001 143.899 98.001 143.899 98.101C143.899 98.201 143.899 98.401 143.699 98.801L143.499 99.501V99.701C143.499 99.501 143.699 99.301 143.899 99.101C143.899 99.001 144.099 98.801 144.199 98.701C144.399 98.401 144.399 98.201 144.499 98.101C145.599 97.301 147.099 96.701 147.799 95.701C147.799 95.701 148.499 95.401 148.799 95.401C150.299 95.201 151.799 94.501 152.899 93.901C153.899 93.301 154.899 93.001 155.899 92.701C158.699 91.901 161.599 91.201 164.599 91.101C166.899 91.001 169.199 91.301 171.399 91.901C173.699 92.501 176.299 93.201 178.099 94.901C179.799 96.501 181.299 98.101 182.399 100.201C182.999 101.401 183.199 102.901 183.999 103.801C183.999 103.801 184.199 104.401 184.099 104.601C183.899 106.501 183.799 108.401 183.199 110.301C182.599 112.201 181.399 114.001 179.699 115.101C176.199 117.301 172.099 118.001 168.299 117.401C167.299 117.301 166.299 116.801 165.299 117.001C165.099 117.001 164.799 117.001 164.399 116.901C164.199 116.901 163.999 116.801 163.899 116.701C163.899 116.401 163.599 116.201 163.499 116.101H163.299C163.299 116.301 163.299 116.301 163.299 116.401C163.299 116.401 163.299 116.601 163.299 116.701C163.299 116.801 163.299 116.801 163.299 116.801V117.101C163.299 117.601 163.299 118.201 163.299 118.701C163.099 119.801 162.499 120.901 161.699 121.701C160.899 122.501 160.099 122.901 159.299 123.201C157.999 123.701 156.199 124.301 154.699 125.301C153.999 125.801 152.299 125.801 151.099 125.901C150.099 125.901 149.099 126.301 148.099 126.201C147.699 126.201 147.299 126.101 146.899 125.901C146.499 125.801 146.099 125.601 145.699 125.401C145.499 125.401 145.199 125.201 144.899 125.201C144.299 125.201 143.699 125.001 143.099 124.801C142.499 124.601 141.899 124.401 141.399 124.101C140.799 123.801 140.299 123.501 139.799 123.201C139.599 123.101 139.699 123.201 139.699 123.101V123.001C139.699 122.901 139.499 122.701 139.399 122.401C139.399 122.601 139.399 122.701 139.399 122.901C139.399 122.901 139.399 123.001 139.399 123.101L139.299 123.501L138.999 124.301C138.499 125.301 137.899 126.201 137.099 127.001C135.599 128.701 133.499 129.801 131.399 130.301C129.999 130.701 128.499 130.701 127.199 130.301C125.899 130.001 124.799 129.301 124.199 128.401C123.699 127.601 123.999 127.101 124.999 127.201C125.699 127.201 126.499 127.201 127.299 127.201C128.499 127.201 129.699 127.001 130.799 126.601C131.899 126.201 132.899 125.401 133.599 124.601C134.299 123.801 134.899 122.801 135.499 121.801C135.499 121.701 135.899 121.001 135.899 120.401C136.099 119.901 135.899 118.901 135.999 118.301C136.299 118.301 136.599 118.301 136.899 118.401C137.099 118.401 137.299 118.401 137.399 118.201C137.599 117.901 137.699 117.701 137.799 117.601V117.101C137.699 117.101 137.399 116.001 137.399 116.001V115.701L137.299 115.601V115.401V115.001C137.499 115.801 136.799 113.201 137.799 116.801C137.799 116.801 137.799 116.901 137.799 117.001C137.799 117.101 137.799 117.201 137.799 117.401V117.601C137.899 117.701 138.199 117.901 138.699 118.001C139.199 118.101 139.599 118.301 140.299 118.401L140.999 118.701C141.199 118.801 141.499 118.901 141.699 119.101C141.799 119.101 141.899 119.301 142.099 119.401L142.399 119.601L142.799 119.901C143.399 120.201 143.899 120.501 144.499 120.701C145.899 121.201 147.299 121.401 148.799 121.501C150.199 121.501 151.599 121.501 153.099 121.301C154.499 120.401 156.199 119.901 157.599 119.301C158.199 119.001 158.599 118.801 158.799 118.501C158.999 118.301 159.199 118.001 159.199 117.501C159.199 117.501 159.199 117.401 159.199 117.301V117.201C159.199 117.101 159.199 117.101 159.199 117.001C159.199 116.601 158.999 116.301 158.899 115.901C158.599 115.101 158.199 114.301 157.599 113.401C156.599 111.601 155.399 109.501 154.299 107.701C154.599 107.701 154.899 107.901 155.099 108.001H155.399L155.899 108.301L157.999 109.201L162.299 111.001C162.999 111.301 163.699 111.601 164.399 111.801C164.799 111.901 165.099 112.101 165.499 112.201L166.099 112.401C166.799 112.601 167.499 112.801 168.299 113.001C169.799 113.301 171.199 113.401 172.599 113.301C173.999 113.101 175.299 112.801 176.499 112.101C177.599 111.401 178.499 110.601 179.099 109.501C179.699 108.401 179.899 107.101 179.899 105.801C179.899 104.901 179.399 104.201 179.299 103.101C179.199 102.101 178.399 101.001 177.599 100.201C176.899 99.401 175.899 98.801 174.999 98.101C173.299 96.701 170.899 95.901 168.599 95.701C166.199 95.501 163.799 95.701 161.299 96.201C156.399 97.101 151.399 98.601 147.599 101.401C147.399 101.601 146.599 102.101 145.999 102.901L144.999 103.901L143.999 105.601H143.599C143.499 105.601 143.399 105.601 143.299 105.601H142.699C142.499 105.601 142.399 105.601 142.299 105.601C142.199 105.601 141.999 105.601 141.999 105.601C141.899 105.601 141.699 105.601 141.599 105.701H141.499C141.499 105.701 141.499 105.601 141.499 105.501C141.499 105.301 141.499 105.201 141.199 105.101C140.999 104.901 140.499 104.601 139.899 103.701C140.099 103.301 140.199 102.901 140.399 102.501C140.599 102.001 140.599 101.701 140.599 101.301C140.599 101.201 140.599 101.101 140.599 101.001C140.599 101.001 140.599 100.801 140.599 100.701C140.599 100.701 140.599 100.501 140.599 100.401V100.201C140.399 100.001 140.199 100.001 139.999 99.901C139.599 99.601 138.699 99.201 137.799 99.001C136.899 98.701 135.999 98.501 134.999 98.401C132.299 98.101 129.499 98.301 126.899 99.001C125.299 99.501 123.899 100.301 122.599 101.201C121.299 102.101 120.099 103.201 119.099 104.401C118.499 105.201 117.999 106.001 117.599 106.901C117.399 107.401 117.199 107.801 117.099 108.301V108.701L116.899 109.601C116.899 109.901 116.899 110.101 116.899 110.501L117.099 111.501C117.099 111.601 117.099 111.801 117.099 111.901C116.699 112.101 116.399 112.301 116.099 112.501C115.899 112.601 115.699 112.801 115.599 112.901C115.599 113.001 115.399 113.101 115.299 113.201C115.299 113.301 115.299 113.401 115.299 113.401C115.099 113.301 114.699 113.401 112.799 113.901C112.599 113.701 112.399 113.501 112.199 113.301C111.999 113.101 111.699 112.801 111.499 112.701C111.299 112.601 110.999 112.501 110.799 112.401C110.599 112.401 110.399 112.201 110.199 112.201C109.799 112.101 109.299 112.001 108.899 112.001C107.999 112.001 106.999 112.001 106.099 112.201C104.199 112.701 102.399 113.701 100.799 114.801C97.5992 117.201 95.5992 121.001 96.1992 124.701C96.3992 125.801 96.4992 126.801 96.8992 127.701C97.1992 128.701 97.6992 129.601 98.3992 130.401C98.6992 130.701 98.8992 131.401 99.0992 132.001C99.1992 132.601 99.1992 133.201 98.8992 133.301C98.7992 133.301 98.4992 133.301 98.3992 133.301C95.9992 132.201 93.6992 130.301 92.8992 127.201C92.2992 124.901 92.2992 122.501 92.8992 120.101C93.4992 117.801 94.6992 115.701 96.2992 114.001L95.6992 113.501Z" fill="black"/>
</svg>
