<svg width="300" height="300" viewBox="0 0 300 300" fill="none" xmlns="http://www.w3.org/2000/svg">
<path d="M184.301 141.301C184.001 141.001 183.701 140.601 183.301 140.301C183.201 140.201 183.301 139.901 182.701 140.101C182.401 140.201 182.701 139.701 182.701 139.601C182.301 139.301 182.101 138.901 181.701 138.701C181.401 138.401 180.901 138.301 180.601 138.001C180.301 137.701 180.201 137.201 179.601 137.101C179.101 137.101 179.301 136.501 179.001 136.301C178.701 136.101 178.301 135.901 178.301 135.501C178.301 135.201 178.301 134.901 178.001 134.701C177.801 134.701 177.501 134.701 177.401 134.601C177.401 134.501 177.401 134.101 176.801 134.501C176.801 134.501 176.801 134.401 176.801 134.301C177.001 133.901 176.801 133.801 176.501 133.801C176.201 133.801 176.101 133.801 176.001 133.701C175.701 133.501 175.401 133.201 175.201 132.901C175.001 132.701 175.001 132.301 174.901 132.101C174.701 131.801 174.301 131.801 174.401 131.401C174.401 131.001 174.301 130.801 174.101 130.601C174.001 130.501 174.101 130.201 173.501 130.601C173.801 129.701 172.701 130.201 172.601 129.701C172.401 129.201 172.001 129.001 171.701 128.701C171.701 128.701 171.701 128.401 171.301 128.701C171.201 128.701 171.101 128.701 171.101 128.601C171.301 127.901 170.801 127.901 170.701 127.601C170.501 127.201 170.001 127.201 170.101 126.501C170.101 126.201 170.101 126.001 169.501 126.301C169.201 126.401 169.301 126.101 169.201 126.001C169.101 126.001 168.801 126.001 168.701 126.001C168.701 126.001 168.701 125.701 168.701 125.601C167.801 125.601 168.101 124.601 167.601 124.301C167.101 124.001 166.701 123.501 166.401 123.101C166.201 122.801 166.101 122.501 166.801 121.501C167.101 121.101 167.501 120.701 167.801 120.601C168.001 120.601 168.301 120.401 168.401 120.501C168.601 120.501 168.801 120.601 169.001 120.701C169.401 120.801 170.001 120.701 170.101 121.201C170.101 121.301 170.401 121.201 170.101 121.701V121.801C171.001 121.601 171.001 122.401 171.401 122.701C171.701 123.001 172.501 122.901 172.601 123.401C173.201 123.101 173.301 123.401 173.401 123.701C173.501 124.801 174.401 125.101 175.001 125.801C175.501 126.501 176.201 127.101 176.801 127.701C176.801 127.801 177.201 127.701 177.201 128.001C177.201 128.301 177.401 128.301 177.601 128.501C177.701 128.601 177.901 128.701 177.901 128.901C177.901 129.901 178.701 130.101 179.101 130.601C179.501 131.101 180.001 131.701 180.501 132.101C180.901 132.301 181.401 132.401 181.601 132.801C181.601 133.001 182.101 132.801 181.801 133.401C181.801 133.601 182.201 133.401 182.301 133.401C182.501 133.601 182.701 133.801 182.901 134.001C183.201 134.301 183.401 134.601 183.701 134.901C183.901 135.101 184.201 135.101 184.501 135.201C184.701 135.301 184.901 135.501 185.001 135.801C185.201 136.101 185.201 136.501 185.401 136.701C185.601 137.001 186.001 137.101 186.001 137.501C186.001 138.301 186.601 138.501 187.001 139.001C187.401 139.501 187.701 139.901 188.201 140.301C188.501 140.501 188.301 141.101 188.601 141.301C188.701 141.401 187.801 142.601 187.401 142.901L187.201 143.001C186.601 143.001 185.901 143.401 185.701 143.001C185.401 142.601 185.001 142.201 184.601 141.801L184.301 141.301Z" fill="black"/>
<path d="M166.101 147.302C166.501 147.102 166.801 147.002 167.201 146.702C167.301 146.702 167.601 146.702 167.501 146.202C167.501 145.902 167.901 146.402 168.001 146.402C168.301 146.202 168.701 146.102 169.001 145.902C169.301 145.702 169.501 145.302 169.801 145.102C170.101 144.902 170.601 145.102 170.801 144.602C171.001 144.202 171.401 144.602 171.601 144.302C171.801 144.102 172.101 143.902 172.501 144.002C172.801 144.002 173.101 144.202 173.201 144.002C173.201 143.902 173.201 143.502 173.401 143.502C173.501 143.502 173.801 143.702 173.701 143.002C173.701 143.002 173.701 143.002 173.901 143.002C174.201 143.302 174.401 143.202 174.401 143.002C174.401 142.702 174.501 142.702 174.601 142.602C174.901 142.502 175.201 142.302 175.501 142.302C175.701 142.302 176.001 142.302 176.301 142.302C176.501 142.302 176.701 141.902 177.001 142.102C177.301 142.302 177.501 142.202 177.701 142.102C177.801 142.102 178.101 142.302 177.901 141.602C178.501 142.302 178.501 141.102 178.901 141.202C179.301 141.202 179.601 141.002 180.001 140.902C180.001 140.902 180.301 141.002 180.201 140.502C180.201 140.302 180.201 140.302 180.401 140.402C180.901 140.902 181.001 140.402 181.301 140.402C181.601 140.402 181.901 140.002 182.301 140.402C182.501 140.602 182.701 140.602 182.701 140.002C182.701 139.702 182.901 140.002 183.001 139.802C183.001 139.802 183.001 139.402 183.201 139.402C183.201 139.402 183.401 139.602 183.501 139.702C183.801 138.902 184.501 139.702 184.901 139.302C185.301 139.002 185.801 138.902 186.301 138.902C186.601 138.902 186.901 138.902 187.401 140.002C187.601 140.502 187.801 141.002 187.701 141.402C187.701 141.702 187.701 141.902 187.601 142.002C187.501 142.102 187.401 142.302 187.301 142.402C187.101 142.702 186.901 143.302 186.601 143.102C186.501 143.102 186.501 143.402 186.201 142.902C186.001 143.802 185.501 143.402 185.101 143.602C184.801 143.802 184.601 144.502 184.201 144.302C184.201 145.002 184.001 144.902 183.701 144.802C182.801 144.402 182.301 145.002 181.601 145.202C180.901 145.302 180.301 145.702 179.601 145.902C179.501 145.902 179.601 146.302 179.301 146.102C179.101 145.902 179.001 146.102 178.801 146.202C178.701 146.202 178.601 146.402 178.401 146.302C177.601 145.902 177.301 146.502 176.701 146.602C176.201 146.702 175.601 146.902 175.201 147.302C174.901 147.502 174.801 148.002 174.401 148.002C174.201 148.002 174.201 148.402 173.901 147.902C173.801 147.802 173.901 148.202 173.801 148.302C173.601 148.402 173.401 148.502 173.201 148.602C172.901 148.702 172.601 148.802 172.301 149.002C172.101 149.102 172.101 149.402 171.901 149.602C171.701 149.702 171.601 149.802 171.301 149.902C171.001 149.902 170.701 149.902 170.401 149.902C170.101 149.902 170.001 150.302 169.601 150.202C168.901 150.002 168.601 150.402 168.201 150.602C167.701 150.802 167.301 150.902 166.901 151.302C166.701 151.502 166.201 151.202 166.001 151.302C165.901 151.302 165.101 150.102 164.901 149.702V149.502C164.901 149.002 164.801 148.202 165.101 148.102C165.501 148.002 165.901 147.702 166.301 147.502L166.101 147.302Z" fill="black"/>
<path d="M168.6 166.202C168.6 165.902 168.5 165.502 168.3 165.202C168.3 165.102 168.5 164.902 167.9 164.902C167.6 164.902 168.2 164.602 168.2 164.502C168.1 164.202 168.1 163.902 167.9 163.602C167.8 163.302 167.5 163.102 167.3 162.802C167.2 162.502 167.3 162.102 167 161.902C166.7 161.702 167.1 161.402 167 161.202C166.8 161.002 166.7 160.702 166.8 160.402C166.9 160.202 167.1 160.002 166.9 159.802C166.9 159.802 166.5 159.702 166.5 159.602C166.5 159.502 166.7 159.302 166.1 159.302C166.1 159.302 166.1 159.302 166.2 159.202C166.6 159.002 166.5 158.802 166.2 158.802C165.9 158.802 165.9 158.702 165.9 158.602C165.9 158.402 165.7 158.102 165.7 157.902C165.7 157.702 165.9 157.502 165.9 157.302C165.9 157.102 165.6 157.002 165.9 156.702C166.2 156.402 166.1 156.302 166 156.102C166 156.102 166.2 155.802 165.6 155.902C166.3 155.402 165.2 155.402 165.3 155.102C165.4 154.802 165.3 154.502 165.1 154.202C165.1 154.202 165.2 154.002 164.8 154.002C164.6 154.002 164.6 154.002 164.7 153.902C165.2 153.502 164.8 153.402 164.9 153.102C164.9 152.802 164.6 152.602 164.9 152.202C165.1 152.002 165.1 151.902 164.5 151.902C164.2 151.902 164.5 151.702 164.4 151.602C164.4 151.602 164 151.602 164 151.502C164 151.502 164.2 151.302 164.3 151.202C163.6 151.002 164.3 150.402 164 150.102C163.7 149.802 163.7 149.402 163.6 149.002C163.6 148.802 163.6 148.502 164.7 148.002C165.2 147.802 165.7 147.602 166 147.602C166.2 147.602 166.5 147.602 166.6 147.602C166.7 147.602 166.9 147.802 167 147.902C167.3 148.102 167.9 148.202 167.7 148.502C167.7 148.602 168 148.602 167.5 148.802C168.4 148.902 168 149.402 168.1 149.802C168.2 150.102 168.9 150.202 168.7 150.602C169.4 150.602 169.3 150.802 169.2 151.002C168.7 151.802 169.3 152.202 169.4 152.902C169.4 153.502 169.7 154.102 169.8 154.702C169.8 154.802 170.2 154.802 170 155.002C169.8 155.202 170 155.302 170 155.402C170 155.502 170.2 155.602 170 155.802C169.5 156.402 170 156.802 170 157.302C170 157.802 170 158.302 170.4 158.702C170.6 159.002 171 159.202 170.9 159.502C170.9 159.602 171.2 159.702 170.7 159.902C170.5 159.902 171 159.902 171.1 160.102C171.1 160.302 171.2 160.502 171.3 160.702C171.3 161.002 171.3 161.302 171.5 161.502C171.5 161.702 171.9 161.802 172 161.902C172.1 162.102 172.1 162.202 172.1 162.402C172.1 162.602 171.9 162.902 171.9 163.102C171.9 163.302 172.2 163.502 172 163.802C171.6 164.302 172 164.702 172 165.102C172 165.502 172.1 165.902 172.3 166.302C172.4 166.502 172 166.802 172.1 167.102C172.1 167.102 170.7 167.702 170.2 167.802H170C169.5 167.802 168.7 167.802 168.7 167.402C168.7 167.002 168.5 166.702 168.4 166.302L168.6 166.202Z" fill="black"/>
<path d="M162.2 186.199C162.3 185.799 162.5 185.399 162.5 184.999C162.5 184.799 162.8 184.799 162.4 184.499C162.2 184.299 162.8 184.399 162.8 184.199C162.8 183.799 163.1 183.499 163.1 183.099C163.1 182.699 163.1 182.299 163.1 181.899C163.1 181.499 163.6 181.299 163.4 180.799C163.2 180.399 163.8 180.299 163.8 179.999C163.8 179.699 163.8 179.299 164.1 179.099C164.3 178.899 164.6 178.799 164.6 178.599C164.6 178.399 164.3 178.199 164.4 178.099C164.4 177.999 164.8 177.899 164.2 177.599C164.2 177.599 164.2 177.599 164.4 177.599C164.8 177.599 164.9 177.399 164.6 177.199C164.4 176.999 164.5 176.899 164.5 176.799C164.5 176.499 164.6 176.199 164.8 175.899C164.9 175.699 165.2 175.599 165.4 175.399C165.5 175.199 165.4 174.899 165.7 174.699C166.1 174.599 166.1 174.399 166.2 174.199C166.2 174.099 166.6 173.999 166 173.699C166.9 173.699 166 172.999 166.3 172.699C166.6 172.399 166.6 171.999 166.7 171.699C166.7 171.699 166.9 171.599 166.5 171.299C166.4 171.299 166.4 171.099 166.5 171.099C167.2 171.099 166.9 170.599 167.1 170.399C167.3 170.099 167.1 169.699 167.7 169.599C167.9 169.599 168.1 169.399 167.6 169.099C167.4 168.899 167.6 168.899 167.6 168.799C167.6 168.699 167.3 168.499 167.4 168.399C167.4 168.399 167.7 168.399 167.8 168.299C167.3 167.699 168.3 167.499 168.2 166.999C168.2 166.699 168.2 166.599 168.2 166.299C168.2 165.999 168.4 165.699 168.6 165.299C168.8 164.899 169.3 164.499 170.4 165.099C170.9 165.299 171.3 165.699 171.5 165.999C171.6 166.199 171.8 166.399 171.8 166.499C171.8 166.599 171.9 166.799 172 166.899C172.1 167.099 172.6 167.399 172.2 167.699C172.1 167.699 172.3 167.999 171.8 167.899C172.5 168.499 171.8 168.899 171.8 169.299C171.8 169.699 172.2 170.199 171.8 170.499C172.3 170.899 172.2 171.099 171.9 171.199C171 171.699 171.2 172.499 170.9 173.199C170.6 173.899 170.4 174.599 170.1 175.299C170.1 175.399 170.4 175.599 170.1 175.699C169.8 175.699 169.9 175.999 169.9 176.099C169.9 176.199 169.9 176.399 169.7 176.499C168.9 176.799 169.1 177.499 168.8 177.999C168.5 178.499 168.3 178.999 168.3 179.599C168.3 179.999 168.5 180.399 168.3 180.699C168.2 180.799 168.5 181.099 167.9 180.999C167.7 180.999 168.1 181.299 168.1 181.399C168.1 181.599 168 181.899 167.9 182.099C167.8 182.399 167.6 182.699 167.6 183.099C167.6 183.299 167.7 183.599 167.7 183.799C167.7 183.999 167.7 184.199 167.5 184.399C167.3 184.599 167.1 184.799 166.9 185.099C166.8 185.299 166.9 185.699 166.6 185.899C166 186.199 166.1 186.799 165.9 187.199C165.7 187.599 165.5 188.099 165.5 188.599C165.5 188.899 165 188.999 164.9 189.199C164.9 189.299 163.4 189.199 162.9 188.999H162.7C162.3 188.599 161.7 188.199 161.8 187.899C162 187.399 162.1 186.999 162.2 186.499V186.199Z" fill="black"/>
<path d="M157.6 168.101C157.5 167.801 157.4 167.601 157.2 167.401C157.2 167.401 157.2 167.101 156.8 167.401C156.6 167.501 157 167.101 156.9 167.001C156.7 166.801 156.6 166.601 156.3 166.501C156.1 166.401 155.7 166.401 155.5 166.301C155.3 166.301 155.2 165.901 154.9 166.101C154.6 166.301 154.6 165.801 154.4 165.801C154.2 165.801 154 165.801 153.8 165.601C153.7 165.401 153.6 165.201 153.4 165.301C153.3 165.301 153.2 165.701 153.1 165.701C153.1 165.701 152.9 165.401 152.8 166.001C152.8 166.001 152.8 166.001 152.8 165.901C152.7 165.501 152.6 165.501 152.5 165.901C152.5 166.201 152.4 166.101 152.3 166.201C152.1 166.201 152 166.301 151.8 166.301C151.7 166.301 151.5 166.101 151.3 166.101C151.1 166.101 151.1 166.401 150.8 166.201C150.5 166.001 150.4 166.201 150.3 166.201C150.3 166.201 150 166.101 150.3 166.601C149.6 166.101 150.1 167.101 149.8 167.101C149.5 167.101 149.4 167.401 149.2 167.701C149.2 167.701 149 167.701 149.2 168.001C149.3 168.101 149.2 168.201 149.2 168.101C148.6 167.901 148.8 168.301 148.6 168.401C148.4 168.501 148.6 168.901 148 168.901C147.8 168.901 147.6 169.001 148 169.401C148.2 169.601 148 169.601 148 169.701L148.2 170.001C148.2 170.001 147.9 170.001 147.8 170.001C148.3 170.601 147.4 170.601 147.4 171.101C147.4 171.501 147.4 171.901 147.2 172.301C147.2 172.501 146.9 172.701 145.7 172.701C145.2 172.701 144.6 172.701 144.3 172.501C144.1 172.401 143.9 172.301 143.8 172.201C143.8 172.001 143.6 171.901 143.5 171.701C143.4 171.401 142.9 170.901 143.2 170.701C143.3 170.701 143 170.401 143.6 170.501C142.9 169.901 143.6 169.501 143.6 169.101C143.6 168.701 143.2 168.101 143.6 167.801C143.1 167.301 143.3 167.101 143.6 167.001C144.6 166.501 144.6 165.601 145.3 165.001C145.9 164.401 146.5 163.701 147.2 163.201C147.3 163.201 147.2 162.701 147.5 162.901C147.8 163.001 147.9 162.701 148 162.601C148.2 162.601 148.3 162.301 148.5 162.401C149.4 162.701 149.9 162.101 150.7 162.001C151.4 162.001 152.1 162.001 152.8 161.701C153.2 161.701 153.7 161.301 154.1 161.501C154.3 161.501 154.5 161.301 154.6 161.901C154.6 162.101 154.9 161.701 155 161.701C155.3 161.701 155.6 161.901 155.9 162.001C156.3 162.201 156.7 162.401 157.1 162.501C157.3 162.501 157.7 162.501 158 162.601C158.3 162.701 158.5 162.901 158.7 163.101C158.9 163.401 159 163.801 159.2 164.101C159.4 164.401 159.9 164.501 159.8 165.001C159.8 165.801 160.3 166.201 160.5 166.701C160.7 167.301 160.9 167.801 161.1 168.401C161.3 168.701 160.8 169.101 160.9 169.401C160.9 169.601 159.5 169.901 159 169.901H158.8C158.3 169.701 157.6 169.701 157.6 169.401C157.6 169.101 157.5 168.801 157.3 168.501L157.6 168.101Z" fill="black"/>
<path d="M149.501 137.402C149.301 137.602 149.001 137.702 148.901 137.902C148.901 137.902 148.601 137.902 148.901 138.302C149.001 138.502 148.501 138.102 148.501 138.202C148.301 138.402 148.101 138.502 147.901 138.702C147.801 138.902 147.701 139.202 147.601 139.402C147.501 139.602 147.101 139.602 147.101 140.002C147.101 140.302 146.701 140.102 146.601 140.302C146.601 140.502 146.401 140.702 146.101 140.702C145.901 140.702 145.601 140.702 145.601 140.802C145.601 140.902 145.701 141.202 145.601 141.302C145.601 141.302 145.301 141.302 145.601 141.702C145.601 141.702 145.601 141.702 145.401 141.702C145.001 141.502 145.001 141.602 145.101 141.902C145.201 142.102 145.101 142.202 145.101 142.202C145.001 142.402 144.901 142.502 144.701 142.702C144.601 142.702 144.301 142.702 144.101 142.802C143.901 142.802 144.101 143.202 143.701 143.102C143.401 143.102 143.301 143.102 143.201 143.202C143.201 143.202 142.901 143.202 143.201 143.602C142.401 143.202 143.101 144.102 142.801 144.202C142.501 144.202 142.401 144.602 142.301 144.802C142.301 144.802 142.101 144.802 142.301 145.102C142.401 145.202 142.301 145.302 142.301 145.202C141.701 145.002 141.901 145.402 141.701 145.402C141.501 145.502 141.601 145.902 141.001 145.702C140.801 145.702 140.601 145.702 141.001 146.102C141.201 146.302 141.001 146.202 141.001 146.302C141.001 146.302 141.201 146.602 141.201 146.702C141.201 146.702 140.901 146.702 140.801 146.702C141.201 147.302 140.201 147.102 140.201 147.502C140.201 147.902 139.901 148.102 139.701 148.302C139.601 148.402 139.301 148.502 138.301 148.002C137.801 147.802 137.401 147.502 137.101 147.202C136.901 147.002 136.801 146.802 136.801 146.802C136.801 146.702 136.801 146.502 136.801 146.302C136.801 146.002 136.401 145.502 136.801 145.502C136.901 145.502 136.801 145.202 137.201 145.502C136.701 144.802 137.301 144.802 137.501 144.502C137.601 144.302 137.301 143.702 137.601 143.602C137.201 143.102 137.401 143.002 137.601 143.002C138.501 143.002 138.401 142.302 138.801 141.902C139.201 141.502 139.501 141.002 139.901 140.602C139.901 140.602 139.701 140.202 140.001 140.302C140.301 140.302 140.201 140.202 140.301 140.102C140.301 140.102 140.301 139.802 140.501 139.902C141.301 140.002 141.301 139.402 141.601 139.202C141.901 138.902 142.301 138.702 142.501 138.302C142.601 138.002 142.501 137.602 142.801 137.502C142.901 137.502 142.801 137.102 143.301 137.502C143.401 137.502 143.301 137.202 143.301 137.102C143.301 136.902 143.501 136.802 143.701 136.702C143.901 136.502 144.101 136.402 144.201 136.202C144.201 136.102 144.201 135.802 144.301 135.602C144.301 135.402 144.501 135.302 144.701 135.302C144.901 135.302 145.201 135.302 145.401 135.202C145.601 135.202 145.601 134.802 145.901 134.802C146.501 135.002 146.601 134.502 147.001 134.302C147.301 134.102 147.601 133.902 147.901 133.602C148.001 133.402 148.501 133.702 148.601 133.602C148.601 133.602 149.601 134.702 149.901 135.102C149.901 135.102 149.901 135.302 150.001 135.302C150.101 135.802 150.401 136.502 150.201 136.602C149.901 136.702 149.701 137.002 149.401 137.202L149.501 137.402Z" fill="black"/>
<path d="M139.601 134.201C139.801 134.401 139.901 134.701 140.101 134.801C140.101 134.801 140.101 135.101 140.501 134.801C140.701 134.701 140.3 135.201 140.4 135.201C140.6 135.401 140.7 135.601 140.9 135.801C141.1 135.901 141.401 136.001 141.701 136.101C141.901 136.201 141.901 136.601 142.301 136.601C142.601 136.601 142.401 137.001 142.601 137.101C142.801 137.101 143.001 137.301 143.001 137.601C143.001 137.801 143.001 138.101 143.101 138.101C143.201 138.101 143.501 138.001 143.601 138.101C143.601 138.101 143.601 138.401 144.001 138.101C144.001 138.101 144.001 138.101 144.001 138.301C143.801 138.701 143.901 138.701 144.201 138.601C144.401 138.501 144.501 138.601 144.501 138.601C144.701 138.701 144.801 138.801 145.001 139.001C145.001 139.101 145.001 139.401 145.101 139.601C145.101 139.801 145.5 139.601 145.4 140.001C145.4 140.301 145.401 140.401 145.501 140.501C145.501 140.501 145.5 140.801 145.9 140.501C145.5 141.301 146.401 140.601 146.501 140.901C146.501 141.201 146.901 141.301 147.101 141.401C147.101 141.401 147.1 141.601 147.4 141.401C147.5 141.301 147.601 141.401 147.501 141.401C147.301 142.001 147.701 141.801 147.701 142.001C147.801 142.201 148.201 142.101 148.001 142.701C148.001 142.901 148 143.101 148.4 142.701C148.6 142.501 148.501 142.701 148.601 142.701C148.601 142.701 148.901 142.501 149.001 142.501C149.001 142.501 149.001 142.801 149.001 142.901C149.601 142.501 149.401 143.501 149.801 143.501C150.201 143.501 150.401 143.801 150.601 144.001C150.701 144.101 150.801 144.401 150.301 145.401C150.101 145.901 149.801 146.301 149.501 146.601C149.301 146.801 149.101 146.901 149.101 146.901C149.001 146.901 148.801 146.901 148.601 146.901C148.301 146.901 147.801 147.301 147.801 146.901C147.801 146.801 147.501 146.901 147.801 146.501C147.101 147.001 147.101 146.401 146.801 146.201C146.601 146.101 146 146.401 145.9 146.101C145.4 146.501 145.301 146.301 145.301 146.101C145.301 145.201 144.601 145.301 144.201 144.901C143.801 144.501 143.3 144.201 142.9 143.801C142.9 143.801 142.501 144.001 142.601 143.701C142.601 143.401 142.5 143.501 142.4 143.401C142.4 143.401 142.101 143.401 142.201 143.201C142.301 142.401 141.701 142.401 141.501 142.101C141.201 141.801 141.001 141.401 140.601 141.201C140.301 141.101 139.901 141.201 139.801 140.901C139.801 140.801 139.401 140.901 139.801 140.401C139.801 140.301 139.5 140.401 139.4 140.401C139.2 140.401 139.101 140.201 139.001 140.001C138.801 139.801 138.701 139.601 138.501 139.501C138.401 139.501 138.1 139.501 137.9 139.401C137.7 139.401 137.601 139.201 137.601 139.001C137.601 138.801 137.601 138.501 137.501 138.301C137.501 138.101 137.101 138.101 137.101 137.801C137.301 137.201 136.801 137.101 136.601 136.701C136.401 136.401 136.2 136.101 135.9 135.801C135.7 135.701 136 135.201 135.9 135.101C135.9 135.101 137 134.101 137.4 133.801C137.4 133.801 137.601 133.801 137.601 133.701C138.101 133.601 138.8 133.301 138.9 133.501C139 133.801 139.301 134.001 139.501 134.301L139.601 134.201Z" fill="black"/>
<path d="M168.501 134.399C168.301 134.599 168.001 134.699 167.901 134.899C167.901 134.899 167.601 134.899 167.901 135.299C168.001 135.499 167.501 135.099 167.501 135.199C167.301 135.399 167.101 135.499 166.901 135.699C166.801 135.899 166.701 136.199 166.601 136.499C166.501 136.699 166.101 136.699 166.101 137.099C166.101 137.399 165.701 137.199 165.601 137.399C165.601 137.599 165.401 137.799 165.101 137.799C164.901 137.799 164.601 137.799 164.601 137.899C164.601 137.999 164.701 138.299 164.601 138.399C164.601 138.399 164.301 138.399 164.601 138.799C164.601 138.799 164.601 138.799 164.401 138.799C164.001 138.599 164.001 138.699 164.101 138.999C164.201 139.199 164.101 139.299 164.101 139.299C164.001 139.499 163.901 139.599 163.701 139.799C163.601 139.799 163.301 139.799 163.101 139.899C162.901 139.899 163.101 140.299 162.701 140.199C162.401 140.199 162.301 140.199 162.201 140.299C162.201 140.299 161.901 140.299 162.201 140.699C161.401 140.299 162.101 141.199 161.801 141.299C161.501 141.299 161.401 141.699 161.301 141.899C161.301 141.899 161.101 141.899 161.301 142.199C161.401 142.299 161.301 142.399 161.301 142.299C160.701 142.099 160.901 142.499 160.701 142.499C160.501 142.599 160.601 142.999 160.001 142.799C159.801 142.799 159.601 142.799 160.001 143.199C160.201 143.399 160.001 143.299 160.001 143.399C160.001 143.399 160.201 143.699 160.201 143.799C160.201 143.799 159.901 143.799 159.801 143.799C160.201 144.399 159.201 144.199 159.201 144.599C159.201 144.999 158.901 145.199 158.701 145.399C158.601 145.499 158.301 145.599 157.301 145.099C156.801 144.899 156.401 144.599 156.101 144.299C155.901 144.099 155.801 143.899 155.801 143.899C155.801 143.799 155.801 143.599 155.801 143.399C155.801 143.099 155.401 142.599 155.801 142.599C155.901 142.599 155.801 142.299 156.201 142.599C155.701 141.899 156.301 141.899 156.501 141.599C156.601 141.399 156.301 140.799 156.601 140.699C156.201 140.199 156.401 140.099 156.601 140.099C157.501 140.099 157.401 139.399 157.801 138.999C158.201 138.599 158.501 138.099 158.901 137.699C158.901 137.699 158.701 137.299 159.001 137.399C159.301 137.399 159.201 137.299 159.301 137.199C159.301 137.199 159.301 136.899 159.501 136.999C160.301 137.099 160.301 136.499 160.601 136.299C160.901 135.999 161.301 135.799 161.501 135.399C161.601 135.099 161.501 134.699 161.801 134.599C161.901 134.599 161.801 134.199 162.301 134.599C162.401 134.599 162.301 134.299 162.301 134.199C162.301 133.999 162.501 133.899 162.701 133.799C162.901 133.599 163.101 133.499 163.201 133.299C163.201 133.199 163.201 132.899 163.301 132.699C163.301 132.499 163.501 132.399 163.701 132.399C163.901 132.399 164.201 132.399 164.401 132.299C164.601 132.299 164.601 131.899 164.901 131.899C165.501 132.099 165.601 131.599 166.001 131.399C166.301 131.199 166.601 130.999 166.901 130.699C167.001 130.499 167.501 130.799 167.601 130.699C167.601 130.699 168.601 131.799 168.901 132.199C168.901 132.199 168.901 132.399 169.001 132.399C169.101 132.899 169.401 133.599 169.201 133.699C168.901 133.799 168.701 134.099 168.401 134.299L168.501 134.399Z" fill="black"/>
<path d="M158.601 131.201C158.801 131.401 158.901 131.701 159.101 131.801C159.101 131.801 159.101 132.101 159.501 131.801C159.701 131.701 159.3 132.201 159.4 132.201C159.6 132.401 159.7 132.601 159.9 132.801C160.1 132.901 160.401 133.001 160.701 133.101C160.901 133.201 160.901 133.601 161.301 133.601C161.601 133.601 161.401 134.001 161.601 134.101C161.801 134.101 162.001 134.301 162.001 134.601C162.001 134.801 162.001 135.101 162.101 135.101C162.201 135.101 162.501 135.001 162.601 135.101C162.601 135.101 162.601 135.401 163.001 135.101C163.001 135.101 163.001 135.101 163.001 135.301C162.801 135.701 162.901 135.701 163.201 135.601C163.401 135.501 163.501 135.601 163.501 135.601C163.701 135.701 163.801 135.801 164.001 136.001C164.001 136.101 164.001 136.401 164.101 136.601C164.101 136.801 164.5 136.601 164.4 137.001C164.4 137.301 164.401 137.401 164.501 137.501C164.501 137.501 164.5 137.801 164.9 137.501C164.5 138.301 165.401 137.601 165.501 137.901C165.501 138.201 165.901 138.301 166.101 138.401C166.101 138.401 166.1 138.601 166.4 138.401C166.5 138.301 166.601 138.401 166.501 138.401C166.301 139.001 166.701 138.801 166.701 139.001C166.801 139.201 167.201 139.101 167.001 139.701C167.001 139.901 167 140.101 167.4 139.701C167.6 139.501 167.501 139.701 167.601 139.701C167.601 139.701 167.901 139.501 168.001 139.501C168.001 139.501 168.001 139.801 168.001 139.901C168.601 139.501 168.401 140.501 168.801 140.501C169.201 140.501 169.401 140.801 169.601 141.001C169.701 141.101 169.801 141.401 169.301 142.401C169.101 142.901 168.801 143.301 168.501 143.601C168.301 143.801 168.101 143.901 168.101 143.901C168.001 143.901 167.801 143.901 167.601 143.901C167.301 143.901 166.801 144.301 166.801 143.901C166.801 143.801 166.501 143.901 166.801 143.501C166.101 144.001 166.101 143.401 165.801 143.201C165.601 143.101 165 143.401 164.9 143.101C164.4 143.501 164.301 143.301 164.301 143.101C164.301 142.201 163.601 142.301 163.201 141.901C162.801 141.501 162.3 141.201 161.9 140.801C161.9 140.801 161.501 141.001 161.601 140.701C161.601 140.401 161.5 140.501 161.4 140.401C161.4 140.401 161.101 140.401 161.201 140.201C161.301 139.401 160.701 139.401 160.501 139.101C160.201 138.801 160.001 138.401 159.601 138.201C159.301 138.101 158.901 138.201 158.801 137.901C158.801 137.801 158.401 137.901 158.801 137.401C158.801 137.301 158.5 137.401 158.4 137.401C158.2 137.401 158.101 137.201 158.001 137.001C157.801 136.801 157.701 136.601 157.501 136.501C157.401 136.501 157.1 136.501 156.9 136.401C156.7 136.401 156.601 136.201 156.601 136.001C156.601 135.801 156.601 135.501 156.501 135.301C156.501 135.101 156.101 135.101 156.101 134.801C156.301 134.201 155.801 134.101 155.601 133.701C155.401 133.401 155.2 133.101 154.9 132.801C154.7 132.701 155 132.201 154.9 132.101C154.9 132.101 156 131.101 156.4 130.801C156.4 130.801 156.601 130.801 156.601 130.701C157.101 130.601 157.8 130.301 157.9 130.501C158 130.801 158.301 131.001 158.501 131.301L158.601 131.201Z" fill="black"/>
<path d="M111.4 188.502C112.1 187.802 112.9 187.102 113.5 186.302C113.7 186.002 114.2 185.902 114 185.202C114 184.902 114.6 185.002 114.8 184.702C115.4 183.902 116 183.202 116.5 182.402C117 181.602 117.4 180.702 117.8 179.902C118.3 179.102 119 178.402 119.2 177.502C119.3 176.702 120.1 176.302 120.3 175.602C120.5 174.902 120.8 174.102 121.4 173.502C121.8 173.102 122.2 172.702 122.3 172.102C122.3 171.802 122.2 171.302 122.3 171.002C122.4 170.702 122.8 170.402 122.3 169.902C122.3 169.902 122.4 169.802 122.5 169.702C123 169.502 123.1 169.002 123 168.702C122.8 168.302 123 168.102 123 167.802C123.2 167.002 123.4 166.302 123.7 165.602C123.9 165.102 124.3 164.602 124.5 164.002C124.7 163.402 124.5 162.702 125 162.202C125.4 161.702 125.5 161.202 125.6 160.602C125.6 160.302 126 160.002 125.4 159.602C125.4 159.602 125.4 159.502 125.4 159.402C126.4 158.602 125.4 157.602 125.6 156.702C125.9 155.802 125.8 154.802 125.8 153.902C125.8 153.602 126 153.402 125.5 153.102C125.3 153.102 125.3 152.802 125.5 152.602C126.1 151.902 125.7 151.202 125.8 150.402C125.8 149.602 125.6 148.802 125.9 147.902C126.1 147.502 126.1 147.002 125.5 146.702C125.2 146.502 125.5 146.102 125.3 145.802C125.3 145.602 124.9 145.402 124.9 145.102C124.9 144.902 125.1 144.702 125.1 144.402C125.1 144.402 125.1 144.302 125.1 144.202C124.3 143.102 124.9 141.802 124.4 140.702C124.2 140.102 124 139.602 123.8 139.002C123.6 138.402 123.5 137.802 123.4 137.202C123.2 136.502 123.2 135.802 124.1 135.002C124.5 134.602 125 134.402 125.4 134.602C125.7 134.702 126 134.902 126.1 135.102C126.3 135.502 126.6 135.802 126.8 136.202C127.2 136.902 128 137.602 127.9 138.502C127.9 138.802 128.3 139.002 127.9 139.402V139.602C128.9 140.502 128.7 141.802 129 143.002C129.2 144.002 130 144.902 129.9 145.902C130.6 146.402 130.5 147.102 130.4 147.602C129.9 149.702 130.4 151.602 130.4 153.602C130.3 155.602 130.2 157.702 129.9 159.702C129.9 160.002 130.2 160.402 129.9 160.802C129.6 161.102 129.7 161.702 129.6 162.102C129.6 162.502 129.6 162.902 129.4 163.302C128.4 164.702 128.5 166.302 127.9 167.902C127.4 169.402 126.8 170.902 126.4 172.402C126.2 173.302 126.1 174.302 125.6 175.202C125.4 175.602 125.5 176.102 124.8 176.202C124.6 176.202 124.8 176.802 124.8 177.002C124.6 177.602 124.2 178.202 123.9 178.802C123.5 179.602 122.9 180.402 122.5 181.202C122.2 181.702 122.1 182.302 121.9 182.802C121.6 183.302 121.3 183.802 120.9 184.302C120.4 184.902 119.8 185.302 119.3 185.902C118.8 186.502 118.5 187.302 117.8 187.702C116.5 188.402 115.8 189.602 114.8 190.502C113.8 191.402 112.8 192.302 111.8 193.302C111.3 193.902 110.4 193.902 109.8 194.402C109.5 194.602 108.3 193.702 108.1 193.302C108.1 193.302 108.1 193.102 108.1 193.002C108.4 192.202 108.4 191.202 109 190.802C109.5 190.402 109.9 190.102 110.3 189.702L111.5 188.502H111.4Z" fill="black"/>
<path d="M104.6 194.001C103.9 193.801 103.3 193.601 102.6 193.501C102.3 193.501 102.2 193.101 101.8 193.501C101.6 193.701 101.5 193.001 101.3 193.001C100.7 192.901 100.1 192.601 99.5003 192.401C98.9003 192.201 98.2003 192.301 97.6003 192.101C97.0002 191.901 96.5003 191.401 95.8003 191.501C95.2003 191.501 95.0003 190.901 94.5003 190.801C94.0003 190.801 93.4002 190.601 93.1003 190.101C92.8003 189.801 92.6002 189.401 92.2002 189.401C92.0002 189.401 91.6003 189.601 91.4003 189.401C91.2003 189.301 91.1003 188.901 90.6003 189.401C90.6003 189.401 90.6003 189.301 90.6003 189.201C90.6003 188.701 90.3003 188.601 89.9003 188.801C89.6003 188.901 89.4003 188.801 89.3003 188.801C88.8003 188.601 88.3003 188.401 87.9003 188.101C87.6003 187.901 87.3003 187.501 87.0003 187.201C86.7003 186.901 86.1003 187.001 86.0003 186.501C85.8003 186.001 85.5002 185.901 85.2002 185.701C85.0002 185.601 85.0003 185.201 84.5003 185.701H84.4003C84.4003 184.701 83.2003 185.301 82.8003 184.801C82.4003 184.301 81.7002 184.101 81.2002 183.701C81.1002 183.701 81.0002 183.301 80.6003 183.701C80.5002 183.701 80.3003 183.701 80.3003 183.601C80.3003 182.801 79.6003 182.801 79.3003 182.501C78.9003 182.101 78.3002 182.001 78.2002 181.201C78.2002 180.901 78.0003 180.601 77.4003 180.901C77.1003 181.001 77.1003 180.601 76.9003 180.601C76.7003 180.601 76.4003 180.601 76.3003 180.601C76.2003 180.601 76.3002 180.201 76.2002 180.101C76.2002 180.101 76.2003 180.101 76.1003 180.101C75.0003 180.101 75.0003 178.901 74.3003 178.501C73.6003 178.101 73.0003 177.501 72.4003 176.801C72.1003 176.401 71.9003 176.001 72.4003 175.001C72.7003 174.501 73.1003 174.101 73.4003 174.001C73.7003 174.001 73.9003 173.901 74.1003 174.001C74.3003 174.101 74.6003 174.201 74.9003 174.301C75.4003 174.501 76.1003 174.501 76.3003 175.001C76.3003 175.201 76.7003 175.001 76.5003 175.501V175.601C77.6003 175.501 77.7003 176.301 78.3003 176.701C78.8003 177.001 79.6003 176.901 79.9003 177.501C80.5003 177.201 80.8003 177.501 80.9003 177.901C81.4003 179.201 82.7003 179.501 83.6003 180.201C84.5002 181.001 85.6003 181.501 86.6003 182.201C86.8003 182.301 87.1002 182.101 87.2002 182.501C87.2002 182.801 87.6003 182.801 87.8003 182.901C88.0003 183.001 88.3003 183.001 88.4003 183.301C88.9003 184.301 89.9002 184.501 90.7002 185.001C91.5002 185.501 92.3002 186.001 93.2002 186.201C93.8002 186.401 94.4003 186.201 94.9003 186.601C95.1003 186.801 95.5003 186.601 95.5003 187.201C95.5003 187.401 95.9003 187.101 96.0003 187.101C96.4003 187.201 96.7003 187.401 97.1003 187.501C97.6003 187.701 98.1003 187.901 98.6003 188.101C98.9002 188.101 99.3003 188.101 99.6003 188.101C99.9002 188.101 100.3 188.301 100.6 188.401C101 188.601 101.3 189.001 101.7 189.201C102.1 189.401 102.7 189.201 103 189.701C103.6 190.401 104.5 190.401 105.3 190.701C106.1 191.001 106.8 191.201 107.7 191.301C108.2 191.301 108.5 191.901 108.9 192.001C109.1 192.001 109.1 193.601 108.9 194.001C108.9 194.001 108.9 194.201 108.8 194.201C108.3 194.601 107.7 195.201 107.2 195.001C106.5 194.801 105.7 194.601 104.9 194.401L104.6 194.001Z" fill="black"/>
<path d="M102.001 128C101.201 128.5 100.501 129.1 99.9008 129.8C99.7008 130.1 99.2008 130.2 99.4008 130.8C99.5008 131.1 98.8008 131 98.6008 131.2C98.1008 132 97.6008 132.6 97.3008 133.5C97.0008 134.3 96.8008 135.2 96.6008 136C96.4008 136.8 95.8008 137.6 95.9008 138.5C95.9008 139.3 95.4008 139.8 95.3008 140.6C95.3008 141.4 95.3008 142.2 94.9008 142.9C94.6008 143.4 94.4008 144 94.4008 144.5C94.4008 144.9 94.7008 145.2 94.6008 145.6C94.6008 146 94.2008 146.3 94.8008 146.7C94.8008 146.7 94.8008 146.9 94.6008 147C94.1008 147.3 94.1008 147.8 94.4008 148.2C94.6008 148.6 94.6008 148.8 94.5008 149.1C94.5008 149.9 94.3008 150.8 94.2008 151.6C94.1008 152.2 93.7008 152.8 93.5008 153.4C93.3008 154 93.5008 154.8 93.0008 155.3C92.6008 155.8 92.4008 156.4 92.3008 157C92.2008 157.3 91.8008 157.6 92.3008 158.1V158.3C91.2008 159 91.8008 160.3 91.2008 161.1C90.9008 161.5 90.6008 162 90.4008 162.5C90.2008 163 89.9008 163.5 89.6008 163.9C89.5008 164.1 89.1008 164.3 89.4008 164.8C89.4008 165 89.4008 165.2 89.1008 165.3C88.6008 165.4 88.3008 165.7 88.1008 166.1C87.8008 166.4 87.6008 166.8 87.3008 167.1C86.6008 167.7 86.2008 168.6 85.2008 168.9C84.8008 169 84.3008 169.3 84.4008 170.1C84.4008 170.4 83.9008 170.5 83.7008 170.8C83.5008 171 83.5008 171.4 83.3008 171.6C83.1008 171.7 82.8008 171.7 82.5008 171.8C82.5008 171.8 82.4008 171.8 82.3008 171.9C81.9008 172.6 81.3008 172.9 80.7008 173.2C80.0008 173.4 79.4008 173.7 78.8008 174C77.7008 174.8 76.3008 175.3 75.0008 175.7C74.3008 175.9 73.4008 175.9 72.7008 175C72.4008 174.6 72.2008 174 72.4008 173.6C72.5008 173.3 72.7008 173 72.9008 172.9C73.2008 172.7 73.6008 172.5 73.9008 172.2C74.6008 171.8 75.0008 171 75.9008 170.9C76.2008 170.9 76.3008 170.5 76.7008 170.9H76.9008C77.5008 169.7 78.6008 169.6 79.5008 169C80.2008 168.4 80.5008 167.4 81.4008 167C81.4008 166.2 81.8008 165.9 82.3008 165.7C84.0008 164.9 84.8008 163.3 85.8008 161.9C86.8008 160.5 87.5008 158.8 88.2008 157.2C88.3008 156.9 88.1008 156.6 88.4008 156.3C88.8008 156.1 88.7008 155.6 88.8008 155.2C88.8008 154.8 88.8008 154.5 89.1008 154.1C90.1008 152.8 89.9008 151.3 90.2008 149.8C90.5008 148.3 90.7008 146.8 90.7008 145.3C90.7008 144.4 90.5008 143.4 90.7008 142.5C90.8008 142.1 90.5008 141.6 91.2008 141.3C91.4008 141.3 91.0008 140.8 91.0008 140.5C91.0008 139.8 91.2008 139.2 91.4008 138.5C91.6008 137.6 91.9008 136.7 92.1008 135.8C92.2008 135.2 92.1008 134.6 92.3008 134C92.5008 133.4 92.7008 132.8 93.0008 132.3C93.4008 131.6 93.9008 131 94.4008 130.3C94.9008 129.6 95.2008 128.7 95.9008 128.3C97.2008 127.5 98.0008 126.3 99.3008 125.4C100.501 124.6 101.801 123.9 103.201 123.2C104.001 122.8 104.901 123.2 105.701 123C106.101 123 106.701 124.4 106.601 124.9C106.601 124.9 106.601 125.1 106.501 125.1C105.901 125.6 105.501 126.4 104.901 126.6C103.901 126.8 103.001 127.3 102.201 127.9L102.001 128Z" fill="black"/>
<path d="M172.999 102.199C171.499 102.499 170.099 102.799 168.599 103.099C168.099 103.199 167.499 103.099 166.999 103.699C166.799 103.999 166.099 103.499 165.599 103.499C164.199 103.799 162.799 103.799 161.399 103.999C159.999 104.199 158.699 104.399 157.299 104.499C155.899 104.499 154.499 104.299 153.199 104.499C152.099 104.699 151.099 104.199 149.999 104.199C148.899 104.199 147.699 104.199 146.599 103.899C145.799 103.699 144.999 103.399 144.299 103.399C143.799 103.399 143.299 103.699 142.799 103.599C142.299 103.599 141.799 103.199 141.299 103.799C141.299 103.799 140.999 103.799 140.899 103.599C140.399 103.099 139.799 103.099 139.299 103.299C138.799 103.499 138.499 103.499 138.099 103.399C136.999 103.399 135.899 103.299 134.799 103.099C133.999 102.999 133.199 102.699 132.399 102.599C131.599 102.599 130.699 102.799 129.899 102.499C129.099 102.199 128.399 102.199 127.599 102.299C127.199 102.299 126.599 102.099 126.299 102.699C126.299 102.699 126.099 102.699 125.999 102.699C124.699 101.999 123.699 103.199 122.499 103.299C121.299 103.299 120.099 103.899 118.999 104.399C118.699 104.499 118.299 104.499 118.199 104.999C118.199 105.199 117.899 105.399 117.699 105.299C117.199 105.299 116.699 105.399 116.399 105.699C115.999 105.899 115.699 106.299 115.299 106.499C114.399 106.999 113.899 107.999 112.799 108.399C112.399 108.599 111.899 109.099 111.999 109.799C111.999 110.199 111.599 110.399 111.399 110.799C111.299 111.099 111.399 111.499 111.199 111.799C111.099 111.999 110.699 112.099 110.499 112.399C110.499 112.399 110.399 112.499 110.399 112.599C110.399 113.399 110.099 114.099 109.699 114.799L109.199 115.899C109.099 116.299 108.999 116.599 108.999 116.999C108.999 118.499 108.799 120.099 108.899 121.599C108.899 121.999 108.899 122.499 108.899 122.899C108.899 123.299 108.599 123.799 108.099 124.199C107.699 124.599 107.099 124.799 106.699 124.499C106.399 124.299 106.099 123.999 105.899 123.599C105.699 122.999 105.499 122.499 105.299 121.899C105.099 121.299 104.899 120.699 104.799 120.099C104.699 119.499 104.599 118.799 104.799 118.199C104.899 117.799 104.699 117.299 105.199 117.099C105.199 117.099 105.299 116.899 105.299 116.799C104.799 114.999 105.799 113.399 106.299 111.799C106.799 110.499 106.899 108.899 107.999 107.799C107.999 106.699 108.699 105.999 109.299 105.499C110.499 104.599 111.599 103.599 112.799 102.699C113.399 102.199 113.999 101.799 114.599 101.399C115.199 100.999 115.899 100.699 116.599 100.399C119.399 99.2988 122.199 98.5988 125.099 98.2988C125.599 98.2988 125.999 97.8988 126.599 98.0988C127.099 98.2988 127.799 98.0988 128.399 98.0988C128.999 98.0988 129.499 97.8988 130.099 98.0988C132.299 98.7988 134.399 98.4988 136.499 98.6988C138.599 98.8988 140.699 99.1988 142.799 99.2988C144.099 99.2988 145.399 99.0988 146.599 99.2988C147.099 99.3988 147.699 99.0988 148.199 99.7988C148.299 99.9988 148.899 99.5988 149.199 99.5988C150.099 99.5988 150.899 99.6988 151.799 99.6988C152.999 99.6988 154.199 99.7988 155.399 99.6988C156.099 99.6988 156.799 99.3988 157.499 99.2988C158.199 99.2988 158.999 99.1988 159.799 99.2988C160.799 99.2988 161.699 99.4988 162.699 99.3988C163.699 99.3988 164.699 98.9988 165.699 99.0988C167.499 99.2988 169.199 98.7988 170.999 98.3988C172.699 98.0988 174.399 97.6988 176.099 96.9988C176.999 96.5988 177.999 96.7988 178.999 96.4988C179.399 96.2988 180.499 97.4988 180.499 98.0988C180.499 98.1988 180.499 98.2988 180.499 98.3988C179.699 99.1988 179.099 100.199 177.999 100.499C176.399 100.899 174.699 101.399 173.099 101.899L172.999 102.199Z" fill="black"/>
<path d="M179.599 117.501L177.299 119.501C176.999 119.801 176.599 119.801 176.599 120.401C176.599 120.701 175.899 120.401 175.699 120.701C174.999 121.301 174.099 121.701 173.399 122.301C172.599 122.801 171.999 123.501 171.199 124.001C170.399 124.501 169.499 124.601 168.799 125.301C168.199 125.901 167.399 125.701 166.799 126.101C166.099 126.501 165.399 126.901 164.599 126.901C163.999 126.901 163.399 126.901 162.999 127.201C162.699 127.401 162.499 127.801 162.099 127.901C161.799 127.901 161.299 127.901 161.199 128.501C161.199 128.501 160.999 128.501 160.899 128.501C160.399 128.201 159.999 128.301 159.799 128.701C159.599 129.001 159.299 129.101 158.999 129.101C158.199 129.301 157.499 129.501 156.699 129.601C156.099 129.601 155.499 129.601 154.899 129.601C154.299 129.601 153.699 130.001 153.099 129.801C152.499 129.601 151.999 129.601 151.499 129.801C151.199 129.801 150.799 129.601 150.599 130.201C150.599 130.201 150.499 130.201 150.399 130.201C149.499 129.501 148.699 130.601 147.799 130.401C146.899 130.201 145.899 130.401 144.999 130.401C144.799 130.401 144.499 130.201 144.299 130.701C144.299 130.901 143.999 130.901 143.799 130.701C143.099 130.101 142.399 130.401 141.699 130.301C140.899 130.101 140.099 130.401 139.299 129.901C138.999 129.701 138.499 129.501 138.099 130.101C137.899 130.401 137.499 130.101 137.199 130.101C136.999 130.101 136.699 130.401 136.499 130.401C136.299 130.401 136.099 130.101 135.899 130.001C135.899 130.001 135.799 130.001 135.699 130.001C134.499 130.501 133.399 129.501 132.199 129.501C130.999 129.501 129.799 129.201 128.699 128.901C128.099 128.701 127.399 128.401 127.199 127.201C127.199 126.701 127.199 126.101 127.499 125.801C127.699 125.601 127.999 125.401 128.199 125.401C128.599 125.401 128.899 125.401 129.299 125.301C130.099 125.301 130.799 124.801 131.499 125.301C131.699 125.401 131.999 125.201 132.099 125.701C132.099 125.701 132.199 125.801 132.299 125.701C133.399 125.101 134.399 125.701 135.399 125.701C136.299 125.701 137.199 125.201 137.999 125.601C138.499 125.001 139.099 125.201 139.499 125.401C141.099 126.201 142.899 125.801 144.599 125.901C146.299 125.901 147.999 125.901 149.699 125.701C149.999 125.701 150.199 125.301 150.599 125.501C150.899 125.701 151.299 125.501 151.699 125.501C151.999 125.501 152.399 125.301 152.699 125.501C154.099 126.001 155.399 125.301 156.699 125.101C157.999 124.901 159.299 124.601 160.599 124.101C161.399 123.801 161.999 123.201 162.799 123.001C163.199 123.001 163.399 122.501 163.899 123.001C164.099 123.101 164.199 122.601 164.399 122.501C164.899 122.301 165.399 122.101 165.899 121.801C166.599 121.501 167.299 121.201 167.999 120.801C168.399 120.501 168.699 120.101 169.099 119.801C169.499 119.501 169.899 119.301 170.399 119.101C170.999 118.901 171.599 118.701 172.099 118.401C172.699 118.101 172.999 117.501 173.699 117.401C174.899 117.101 175.699 116.201 176.499 115.501C177.399 114.801 178.199 114.001 178.899 113.101C179.299 112.601 179.999 112.501 180.399 112.001C180.599 111.801 181.999 112.401 182.299 112.801L182.399 113.001C182.399 113.801 182.499 114.801 181.899 115.301C181.499 115.701 181.099 116.101 180.699 116.501L179.499 117.701L179.599 117.501Z" fill="black"/>
<path d="M176.7 109.601C176.5 109.701 176.2 109.801 176 109.901C176 109.901 175.7 109.801 175.9 110.301C175.9 110.601 175.6 110.001 175.5 110.101C175.3 110.301 175 110.301 174.8 110.401C174.6 110.601 174.5 110.901 174.3 111.001C174.1 111.201 173.8 111.001 173.7 111.401C173.7 111.701 173.3 111.401 173.1 111.501C173 111.701 172.8 111.901 172.5 111.701C172.3 111.701 172.1 111.501 172 111.701V112.101C172 112.101 171.7 111.901 171.9 112.501C171.9 112.501 171.9 112.501 171.8 112.401C171.5 112.101 171.4 112.101 171.5 112.401C171.5 112.701 171.5 112.701 171.5 112.701C171.3 112.801 171.2 112.901 170.9 112.901C170.7 112.901 170.5 112.801 170.3 112.801C170.1 112.801 170.1 113.101 169.8 112.901C169.5 112.701 169.4 112.801 169.3 112.901C169.3 112.901 169 112.701 169.3 113.301C168.7 112.601 169 113.701 168.7 113.601C168.4 113.601 168.2 113.701 168 113.901C168 113.901 167.8 113.801 168 114.201C168 114.401 168 114.401 168 114.301C167.6 113.801 167.6 114.301 167.3 114.301C167.1 114.301 167 114.601 166.6 114.301C166.4 114.101 166.3 114.101 166.4 114.701C166.4 115.001 166.3 114.701 166.2 114.901C166.2 114.901 166.2 115.201 166.2 115.301C166.2 115.301 166 115.101 165.9 115.101C165.9 115.801 165.2 115.101 165 115.401C164.8 115.701 164.5 115.801 164.1 115.801C163.9 115.801 163.7 115.801 163.1 114.701C162.8 114.301 162.6 113.701 162.5 113.401C162.5 113.201 162.5 112.901 162.5 112.801C162.5 112.701 162.5 112.501 162.6 112.401C162.7 112.101 162.6 111.601 163 111.701C163 111.701 163 111.401 163.3 111.901C163.3 111.101 163.7 111.401 163.9 111.201C164.1 111.101 164 110.401 164.4 110.501C164.3 109.901 164.4 109.901 164.7 110.001C165.4 110.401 165.7 109.801 166.1 109.701C166.6 109.601 167 109.301 167.4 109.101C167.4 109.101 167.4 108.701 167.6 108.901C167.8 109.101 167.8 108.901 167.9 108.901C167.9 108.901 168 108.701 168.2 108.901C168.8 109.301 169 108.901 169.4 108.701C169.8 108.701 170.1 108.501 170.4 108.201C170.6 108.001 170.6 107.601 170.9 107.601C171 107.601 170.9 107.301 171.3 107.801C171.3 107.901 171.3 107.501 171.3 107.401C171.4 107.301 171.6 107.301 171.7 107.201C171.9 107.201 172.1 107.101 172.3 106.901C172.4 106.901 172.4 106.501 172.5 106.401C172.6 106.301 172.7 106.201 172.9 106.201C173.1 106.201 173.3 106.301 173.5 106.201C173.7 106.201 173.8 105.901 174 106.001C174.5 106.301 174.7 106.001 175 105.901C175.3 105.901 175.6 105.701 175.9 105.501C176 105.401 176.4 105.701 176.6 105.701C176.6 105.701 177.4 107.001 177.6 107.401V107.601C177.6 108.101 177.8 108.801 177.6 108.901C177.3 108.901 177 109.101 176.8 109.301L176.7 109.601Z" fill="black"/>
</svg>
