<svg width="300" height="300" viewBox="0 0 300 300" fill="none" xmlns="http://www.w3.org/2000/svg">
<path d="M183.699 140.601C183.299 140.101 182.899 139.601 182.399 139.201C182.199 139.001 182.199 138.701 181.699 138.901C181.399 138.901 181.7 138.401 181.6 138.201C181.1 137.801 180.799 137.301 180.299 136.901C179.899 136.501 179.299 136.201 178.899 135.901C178.499 135.501 178.299 134.901 177.699 134.701C177.199 134.501 177.199 133.901 176.799 133.601C176.399 133.301 175.999 133.001 175.799 132.501C175.699 132.101 175.599 131.701 175.299 131.501C175.099 131.401 174.7 131.501 174.6 131.301C174.5 131.101 174.499 130.801 173.899 131.001C173.899 131.001 173.899 130.901 173.899 130.801C173.999 130.301 173.899 130.201 173.499 130.201C173.199 130.201 173.099 130.101 172.899 130.001C172.499 129.701 172.199 129.301 171.899 128.901C171.699 128.601 171.599 128.201 171.399 127.901C171.199 127.601 170.699 127.501 170.699 127.001C170.699 126.501 170.399 126.301 170.199 126.001C170.099 125.901 170.199 125.501 169.499 125.801C169.699 124.801 168.499 125.201 168.299 124.601C168.099 124.001 167.5 123.701 167.1 123.301C167 123.201 167.1 122.901 166.6 123.101C166.4 123.101 166.299 123.101 166.299 122.901C166.499 122.101 165.9 122.101 165.6 121.701C165.3 121.201 164.799 121.101 164.799 120.301C164.799 120.001 164.7 119.701 164.1 119.901C163.8 119.901 163.799 119.601 163.699 119.501C163.599 119.501 163.3 119.501 163.1 119.401C163.1 119.401 163.1 119.101 163.1 118.901C162.1 118.901 162.3 117.701 161.6 117.401C161 117.101 160.5 116.601 160.1 116.201C159.8 116.001 159.699 115.601 159.999 114.501C160.099 114.001 160.399 113.501 160.699 113.301C160.899 113.201 161.199 113.001 161.399 113.101C161.699 113.101 161.999 113.101 162.199 113.301C162.799 113.401 163.499 113.301 163.799 114.001C163.799 114.201 164.199 114.001 163.999 114.601V114.701C165.099 114.701 165.299 115.501 165.799 116.001C166.299 116.401 167.099 116.401 167.299 117.001C167.999 116.801 168.199 117.201 168.199 117.501C168.499 118.801 169.599 119.301 170.299 120.301C170.999 121.201 171.899 122.001 172.699 122.901C172.799 123.101 173.199 122.901 173.199 123.301C173.199 123.601 173.499 123.701 173.699 123.901C173.899 124.101 174.099 124.201 174.199 124.401C174.299 125.501 175.299 125.901 175.799 126.701C176.399 127.401 176.999 128.101 177.699 128.701C178.199 129.001 178.8 129.201 179.1 129.701C179.2 129.901 179.599 129.901 179.399 130.401C179.399 130.601 179.799 130.401 179.899 130.501C180.199 130.701 180.399 131.101 180.699 131.301C181.099 131.701 181.399 132.101 181.799 132.501C182 132.701 182.399 132.801 182.699 133.001C182.999 133.201 183.199 133.501 183.399 133.701C183.599 134.101 183.799 134.501 183.999 134.901C184.299 135.301 184.799 135.401 184.899 135.901C185.099 136.801 185.799 137.201 186.299 137.901C186.799 138.501 187.299 139.101 187.899 139.601C188.299 139.901 188.199 140.501 188.499 140.801C188.599 140.901 187.799 142.201 187.299 142.401H187.1C186.5 142.401 185.699 142.601 185.399 142.201C184.999 141.601 184.399 141.101 183.899 140.601H183.699Z" fill="black"/>
<path d="M115.3 153.301C115.3 153.901 115.3 154.501 115.5 155.101C115.5 155.301 115.3 155.601 115.9 155.801C116.2 155.801 115.6 156.201 115.6 156.401C115.7 157.001 115.7 157.501 115.9 158.101C116 158.601 116.3 159.201 116.5 159.701C116.6 160.201 116.5 160.901 116.8 161.301C117.1 161.701 116.8 162.201 116.8 162.601C117 163.001 117.1 163.501 117 164.001C116.9 164.401 116.7 164.701 116.9 165.001C116.9 165.201 117.3 165.301 117.4 165.601C117.4 165.801 117.2 166.101 117.8 166.201C117.8 166.201 117.8 166.301 117.7 166.401C117.3 166.701 117.4 167.001 117.7 167.101C118 167.201 118 167.401 118 167.601C118.1 168.101 118.2 168.501 118.2 169.001C118.2 169.401 118 169.701 118 170.101C118 170.501 118.3 170.801 118.1 171.201C117.9 171.601 117.9 171.901 118 172.201C118 172.401 117.8 172.701 118.4 172.701C118.4 172.701 118.4 172.701 118.4 172.801C117.7 173.501 118.8 173.801 118.7 174.401C118.6 175.001 118.8 175.501 119 176.101C119 176.301 118.9 176.401 119.4 176.501C119.6 176.501 119.6 176.701 119.5 176.801C119 177.301 119.5 177.701 119.4 178.201C119.4 178.701 119.8 179.201 119.4 179.701C119.2 179.901 119.2 180.301 119.8 180.401C120.1 180.401 119.8 180.801 120 180.901C120 181.001 120.4 181.101 120.4 181.301C120.4 181.401 120.2 181.601 120.1 181.701C120.1 181.701 120.1 181.701 120.1 181.801C120.9 182.401 120.1 183.301 120.5 184.001C120.8 184.701 120.9 185.401 120.9 186.201C120.9 186.601 120.9 187.101 119.8 187.601C119.3 187.801 118.8 187.901 118.4 187.801C118.1 187.801 117.9 187.601 117.8 187.501C117.7 187.301 117.5 187.101 117.3 186.901C117 186.501 116.4 186.101 116.6 185.601C116.6 185.401 116.3 185.301 116.8 185.101C116.8 185.101 116.8 185.101 116.8 185.001C115.9 184.501 116.3 183.701 116.1 183.101C115.9 182.501 115.2 182.101 115.4 181.501C114.7 181.301 114.8 180.901 114.9 180.601C115.4 179.401 114.7 178.301 114.6 177.201C114.5 176.101 114.2 174.901 114 173.801C114 173.601 113.6 173.501 113.8 173.201C114 172.901 113.8 172.701 113.8 172.501C113.8 172.301 113.6 172.101 113.8 171.801C114.3 170.801 113.8 170.001 113.7 169.101C113.7 168.201 113.5 167.301 113.2 166.401C113 165.901 112.6 165.401 112.6 164.801C112.6 164.601 112.2 164.401 112.8 164.001C113 164.001 112.5 163.801 112.4 163.601C112.3 163.201 112.3 162.901 112.2 162.501C112.2 162.001 112.1 161.501 112 160.901C112 160.601 111.6 160.301 111.5 160.001C111.4 159.701 111.4 159.301 111.4 159.001C111.4 158.601 111.6 158.101 111.6 157.701C111.6 157.301 111.3 156.801 111.6 156.401C112 155.601 111.6 154.801 111.6 154.001C111.6 153.201 111.6 152.401 111.3 151.701C111.2 151.301 111.7 150.801 111.6 150.401C111.6 150.201 113 149.801 113.5 149.801H113.7C114.2 150.201 115 150.501 115 151.001C115 151.701 115.1 152.401 115.2 153.101L115.3 153.301Z" fill="black"/>
<path d="M166.101 147.302C166.501 147.102 166.801 147.002 167.201 146.702C167.301 146.702 167.601 146.702 167.501 146.202C167.501 145.902 167.901 146.402 168.001 146.402C168.301 146.202 168.701 146.102 169.001 145.902C169.301 145.702 169.501 145.302 169.801 145.102C170.101 144.902 170.601 145.102 170.801 144.602C171.001 144.202 171.401 144.602 171.601 144.302C171.801 144.102 172.101 143.902 172.501 144.002C172.801 144.002 173.101 144.202 173.201 144.002C173.201 143.902 173.201 143.502 173.401 143.502C173.501 143.502 173.801 143.702 173.701 143.002C173.701 143.002 173.701 143.002 173.901 143.002C174.201 143.302 174.401 143.202 174.401 143.002C174.401 142.702 174.501 142.702 174.601 142.602C174.901 142.502 175.201 142.302 175.501 142.302C175.701 142.302 176.001 142.302 176.301 142.302C176.501 142.302 176.701 141.902 177.001 142.102C177.301 142.302 177.501 142.202 177.701 142.102C177.801 142.102 178.101 142.302 177.901 141.602C178.501 142.302 178.501 141.102 178.901 141.202C179.301 141.202 179.601 141.002 180.001 140.902C180.001 140.902 180.301 141.002 180.201 140.502C180.201 140.302 180.201 140.302 180.401 140.402C180.901 140.902 181.001 140.402 181.301 140.402C181.601 140.402 181.901 140.002 182.301 140.402C182.501 140.602 182.701 140.602 182.701 140.002C182.701 139.702 182.901 140.002 183.001 139.802C183.001 139.802 183.001 139.402 183.201 139.402C183.201 139.402 183.401 139.602 183.501 139.702C183.801 138.902 184.501 139.702 184.901 139.302C185.301 139.002 185.801 138.902 186.301 138.902C186.601 138.902 186.901 138.902 187.401 140.002C187.601 140.502 187.801 141.002 187.701 141.402C187.701 141.702 187.701 141.902 187.601 142.002C187.501 142.102 187.401 142.302 187.301 142.402C187.101 142.702 186.901 143.302 186.601 143.102C186.501 143.102 186.501 143.402 186.201 142.902C186.001 143.802 185.501 143.402 185.101 143.602C184.801 143.802 184.601 144.502 184.201 144.302C184.201 145.002 184.001 144.902 183.701 144.802C182.801 144.402 182.301 145.002 181.601 145.202C180.901 145.302 180.301 145.702 179.601 145.902C179.501 145.902 179.601 146.302 179.301 146.102C179.101 145.902 179.001 146.102 178.801 146.202C178.701 146.202 178.601 146.402 178.401 146.302C177.601 145.902 177.301 146.502 176.701 146.602C176.201 146.702 175.601 146.902 175.201 147.302C174.901 147.502 174.801 148.002 174.401 148.002C174.201 148.002 174.201 148.402 173.901 147.902C173.801 147.802 173.901 148.202 173.801 148.302C173.601 148.402 173.401 148.502 173.201 148.602C172.901 148.702 172.601 148.802 172.301 149.002C172.101 149.102 172.101 149.402 171.901 149.602C171.701 149.702 171.601 149.802 171.301 149.902C171.001 149.902 170.701 149.902 170.401 149.902C170.101 149.902 170.001 150.302 169.601 150.202C168.901 150.002 168.601 150.402 168.201 150.602C167.701 150.802 167.301 150.902 166.901 151.302C166.701 151.502 166.201 151.202 166.001 151.302C165.901 151.302 165.101 150.102 164.901 149.702V149.502C164.901 149.002 164.801 148.202 165.101 148.102C165.501 148.002 165.901 147.702 166.301 147.502L166.101 147.302Z" fill="black"/>
<path d="M168.6 166.202C168.6 165.902 168.5 165.502 168.3 165.202C168.3 165.102 168.5 164.902 167.9 164.902C167.6 164.902 168.2 164.602 168.2 164.502C168.1 164.202 168.1 163.902 167.9 163.602C167.8 163.302 167.5 163.102 167.3 162.802C167.2 162.502 167.3 162.102 167 161.902C166.7 161.702 167.1 161.402 167 161.202C166.8 161.002 166.7 160.702 166.8 160.402C166.9 160.202 167.1 160.002 166.9 159.802C166.9 159.802 166.5 159.702 166.5 159.602C166.5 159.502 166.7 159.302 166.1 159.302C166.1 159.302 166.1 159.302 166.2 159.202C166.6 159.002 166.5 158.802 166.2 158.802C165.9 158.802 165.9 158.702 165.9 158.602C165.9 158.402 165.7 158.102 165.7 157.902C165.7 157.702 165.9 157.502 165.9 157.302C165.9 157.102 165.6 157.002 165.9 156.702C166.2 156.402 166.1 156.302 166 156.102C166 156.102 166.2 155.802 165.6 155.902C166.3 155.402 165.2 155.402 165.3 155.102C165.4 154.802 165.3 154.502 165.1 154.202C165.1 154.202 165.2 154.002 164.8 154.002C164.6 154.002 164.6 154.002 164.7 153.902C165.2 153.502 164.8 153.402 164.9 153.102C164.9 152.802 164.6 152.602 164.9 152.202C165.1 152.002 165.1 151.902 164.5 151.902C164.2 151.902 164.5 151.702 164.4 151.602C164.4 151.602 164 151.602 164 151.502C164 151.502 164.2 151.302 164.3 151.202C163.6 151.002 164.3 150.402 164 150.102C163.7 149.802 163.7 149.402 163.6 149.002C163.6 148.802 163.6 148.502 164.7 148.002C165.2 147.802 165.7 147.602 166 147.602C166.2 147.602 166.5 147.602 166.6 147.602C166.7 147.602 166.9 147.802 167 147.902C167.3 148.102 167.9 148.202 167.7 148.502C167.7 148.602 168 148.602 167.5 148.802C168.4 148.902 168 149.402 168.1 149.802C168.2 150.102 168.9 150.202 168.7 150.602C169.4 150.602 169.3 150.802 169.2 151.002C168.7 151.802 169.3 152.202 169.4 152.902C169.4 153.502 169.7 154.102 169.8 154.702C169.8 154.802 170.2 154.802 170 155.002C169.8 155.202 170 155.302 170 155.402C170 155.502 170.2 155.602 170 155.802C169.5 156.402 170 156.802 170 157.302C170 157.802 170 158.302 170.4 158.702C170.6 159.002 171 159.202 170.9 159.502C170.9 159.602 171.2 159.702 170.7 159.902C170.5 159.902 171 159.902 171.1 160.102C171.1 160.302 171.2 160.502 171.3 160.702C171.3 161.002 171.3 161.302 171.5 161.502C171.5 161.702 171.9 161.802 172 161.902C172.1 162.102 172.1 162.202 172.1 162.402C172.1 162.602 171.9 162.902 171.9 163.102C171.9 163.302 172.2 163.502 172 163.802C171.6 164.302 172 164.702 172 165.102C172 165.502 172.1 165.902 172.3 166.302C172.4 166.502 172 166.802 172.1 167.102C172.1 167.102 170.7 167.702 170.2 167.802H170C169.5 167.802 168.7 167.802 168.7 167.402C168.7 167.002 168.5 166.702 168.4 166.302L168.6 166.202Z" fill="black"/>
<path d="M162.2 186.203C162.3 185.803 162.5 185.403 162.5 185.003C162.5 184.803 162.8 184.803 162.4 184.503C162.2 184.303 162.8 184.403 162.8 184.203C162.8 183.803 163.1 183.503 163.1 183.103C163.1 182.703 163.1 182.303 163.1 181.903C163.1 181.503 163.6 181.303 163.4 180.803C163.2 180.403 163.8 180.303 163.8 180.003C163.8 179.703 163.8 179.303 164.1 179.103C164.3 178.903 164.6 178.803 164.6 178.603C164.6 178.403 164.3 178.203 164.4 178.103C164.4 178.003 164.8 177.903 164.2 177.603C164.2 177.603 164.2 177.603 164.4 177.603C164.8 177.603 164.9 177.403 164.6 177.203C164.4 177.003 164.5 176.903 164.5 176.803C164.5 176.503 164.6 176.203 164.8 175.903C164.9 175.703 165.2 175.603 165.4 175.403C165.5 175.203 165.4 174.903 165.7 174.703C166.1 174.603 166.1 174.403 166.2 174.203C166.2 174.103 166.6 174.003 166 173.703C166.9 173.703 166 173.003 166.3 172.703C166.6 172.403 166.6 172.003 166.7 171.703C166.7 171.703 166.9 171.603 166.5 171.303C166.4 171.303 166.4 171.103 166.5 171.103C167.2 171.103 166.9 170.603 167.1 170.403C167.3 170.103 167.1 169.703 167.7 169.603C167.9 169.603 168.1 169.403 167.6 169.103C167.4 168.903 167.6 168.903 167.6 168.803C167.6 168.703 167.3 168.503 167.4 168.403C167.4 168.403 167.7 168.403 167.8 168.303C167.3 167.703 168.3 167.503 168.2 167.003C168.2 166.703 168.2 166.603 168.2 166.303C168.2 166.003 168.4 165.703 168.6 165.303C168.8 164.903 169.3 164.503 170.4 165.103C170.9 165.303 171.3 165.703 171.5 166.003C171.6 166.203 171.8 166.403 171.8 166.503C171.8 166.603 171.9 166.803 172 166.903C172.1 167.103 172.6 167.403 172.2 167.703C172.1 167.703 172.3 168.003 171.8 167.903C172.5 168.503 171.8 168.903 171.8 169.303C171.8 169.703 172.2 170.203 171.8 170.503C172.3 170.903 172.2 171.103 171.9 171.203C171 171.703 171.2 172.503 170.9 173.203C170.6 173.903 170.4 174.603 170.1 175.303C170.1 175.403 170.4 175.603 170.1 175.703C169.8 175.703 169.9 176.003 169.9 176.103C169.9 176.203 169.9 176.403 169.7 176.503C168.9 176.803 169.1 177.503 168.8 178.003C168.5 178.503 168.3 179.003 168.3 179.603C168.3 180.003 168.5 180.403 168.3 180.703C168.2 180.803 168.5 181.103 167.9 181.003C167.7 181.003 168.1 181.303 168.1 181.403C168.1 181.603 168 181.903 167.9 182.103C167.8 182.403 167.6 182.703 167.6 183.103C167.6 183.303 167.7 183.603 167.7 183.803C167.7 184.003 167.7 184.203 167.5 184.403C167.3 184.603 167.1 184.803 166.9 185.103C166.8 185.303 166.9 185.703 166.6 185.903C166 186.203 166.1 186.803 165.9 187.203C165.7 187.603 165.5 188.103 165.5 188.603C165.5 188.903 165 189.003 164.9 189.203C164.9 189.303 163.4 189.203 162.9 189.003H162.7C162.3 188.603 161.7 188.203 161.8 187.903C162 187.403 162.1 187.003 162.2 186.503V186.203Z" fill="black"/>
<path d="M157.6 168.101C157.5 167.801 157.4 167.601 157.2 167.401C157.2 167.401 157.2 167.101 156.8 167.401C156.6 167.501 157 167.101 156.9 167.001C156.7 166.801 156.6 166.601 156.3 166.501C156.1 166.401 155.7 166.401 155.5 166.301C155.3 166.301 155.2 165.901 154.9 166.101C154.6 166.301 154.6 165.801 154.4 165.801C154.2 165.801 154 165.801 153.8 165.601C153.7 165.401 153.6 165.201 153.4 165.301C153.3 165.301 153.2 165.701 153.1 165.701C153.1 165.701 152.9 165.401 152.8 166.001C152.8 166.001 152.8 166.001 152.8 165.901C152.7 165.501 152.6 165.501 152.5 165.901C152.5 166.201 152.4 166.101 152.3 166.201C152.1 166.201 152 166.301 151.8 166.301C151.7 166.301 151.5 166.101 151.3 166.101C151.1 166.101 151.1 166.401 150.8 166.201C150.5 166.001 150.4 166.201 150.3 166.201C150.3 166.201 150 166.101 150.3 166.601C149.6 166.101 150.1 167.101 149.8 167.101C149.5 167.101 149.4 167.401 149.2 167.701C149.2 167.701 149 167.701 149.2 168.001C149.3 168.101 149.2 168.201 149.2 168.101C148.6 167.901 148.8 168.301 148.6 168.401C148.4 168.501 148.6 168.901 148 168.901C147.8 168.901 147.6 169.001 148 169.401C148.2 169.601 148 169.601 148 169.701L148.2 170.001C148.2 170.001 147.9 170.001 147.8 170.001C148.3 170.601 147.4 170.601 147.4 171.101C147.4 171.501 147.4 171.901 147.2 172.301C147.2 172.501 146.9 172.701 145.7 172.701C145.2 172.701 144.6 172.701 144.3 172.501C144.1 172.401 143.9 172.301 143.8 172.201C143.8 172.001 143.6 171.901 143.5 171.701C143.4 171.401 142.9 170.901 143.2 170.701C143.3 170.701 143 170.401 143.6 170.501C142.9 169.901 143.6 169.501 143.6 169.101C143.6 168.701 143.2 168.101 143.6 167.801C143.1 167.301 143.3 167.101 143.6 167.001C144.6 166.501 144.6 165.601 145.3 165.001C145.9 164.401 146.5 163.701 147.2 163.201C147.3 163.201 147.2 162.701 147.5 162.901C147.8 163.001 147.9 162.701 148 162.601C148.2 162.601 148.3 162.301 148.5 162.401C149.4 162.701 149.9 162.101 150.7 162.001C151.4 162.001 152.1 162.001 152.8 161.701C153.2 161.701 153.7 161.301 154.1 161.501C154.3 161.501 154.5 161.301 154.6 161.901C154.6 162.101 154.9 161.701 155 161.701C155.3 161.701 155.6 161.901 155.9 162.001C156.3 162.201 156.7 162.401 157.1 162.501C157.3 162.501 157.7 162.501 158 162.601C158.3 162.701 158.5 162.901 158.7 163.101C158.9 163.401 159 163.801 159.2 164.101C159.4 164.401 159.9 164.501 159.8 165.001C159.8 165.801 160.3 166.201 160.5 166.701C160.7 167.301 160.9 167.801 161.1 168.401C161.3 168.701 160.8 169.101 160.9 169.401C160.9 169.601 159.5 169.901 159 169.901H158.8C158.3 169.701 157.6 169.701 157.6 169.401C157.6 169.101 157.5 168.801 157.3 168.501L157.6 168.101Z" fill="black"/>
<path d="M149.501 137.402C149.301 137.602 149.001 137.702 148.901 137.902C148.901 137.902 148.601 137.902 148.901 138.302C149.001 138.502 148.501 138.102 148.501 138.202C148.301 138.402 148.101 138.502 147.901 138.702C147.801 138.902 147.701 139.202 147.601 139.402C147.501 139.602 147.101 139.602 147.101 140.002C147.101 140.302 146.701 140.102 146.601 140.302C146.601 140.502 146.401 140.702 146.101 140.702C145.901 140.702 145.601 140.702 145.601 140.802C145.601 140.902 145.701 141.202 145.601 141.302C145.601 141.302 145.301 141.302 145.601 141.702C145.601 141.702 145.601 141.702 145.401 141.702C145.001 141.502 145.001 141.602 145.101 141.902C145.201 142.102 145.101 142.202 145.101 142.202C145.001 142.402 144.901 142.502 144.701 142.702C144.601 142.702 144.301 142.702 144.101 142.802C143.901 142.802 144.101 143.202 143.701 143.102C143.401 143.102 143.301 143.102 143.201 143.202C143.201 143.202 142.901 143.202 143.201 143.602C142.401 143.202 143.101 144.102 142.801 144.202C142.501 144.202 142.401 144.602 142.301 144.802C142.301 144.802 142.101 144.802 142.301 145.102C142.401 145.202 142.301 145.302 142.301 145.202C141.701 145.002 141.901 145.402 141.701 145.402C141.501 145.502 141.601 145.902 141.001 145.702C140.801 145.702 140.601 145.702 141.001 146.102C141.201 146.302 141.001 146.202 141.001 146.302C141.001 146.302 141.201 146.602 141.201 146.702C141.201 146.702 140.901 146.702 140.801 146.702C141.201 147.302 140.201 147.102 140.201 147.502C140.201 147.902 139.901 148.102 139.701 148.302C139.601 148.402 139.301 148.502 138.301 148.002C137.801 147.802 137.401 147.502 137.101 147.202C136.901 147.002 136.801 146.802 136.801 146.802C136.801 146.702 136.801 146.502 136.801 146.302C136.801 146.002 136.401 145.502 136.801 145.502C136.901 145.502 136.801 145.202 137.201 145.502C136.701 144.802 137.301 144.802 137.501 144.502C137.601 144.302 137.301 143.702 137.601 143.602C137.201 143.102 137.401 143.002 137.601 143.002C138.501 143.002 138.401 142.302 138.801 141.902C139.201 141.502 139.501 141.002 139.901 140.602C139.901 140.602 139.701 140.202 140.001 140.302C140.301 140.302 140.201 140.202 140.301 140.102C140.301 140.102 140.301 139.802 140.501 139.902C141.301 140.002 141.301 139.402 141.601 139.202C141.901 138.902 142.301 138.702 142.501 138.302C142.601 138.002 142.501 137.602 142.801 137.502C142.901 137.502 142.801 137.102 143.301 137.502C143.401 137.502 143.301 137.202 143.301 137.102C143.301 136.902 143.501 136.802 143.701 136.702C143.901 136.502 144.101 136.402 144.201 136.202C144.201 136.102 144.201 135.802 144.301 135.602C144.301 135.402 144.501 135.302 144.701 135.302C144.901 135.302 145.201 135.302 145.401 135.202C145.601 135.202 145.601 134.802 145.901 134.802C146.501 135.002 146.601 134.502 147.001 134.302C147.301 134.102 147.601 133.902 147.901 133.602C148.001 133.402 148.501 133.702 148.601 133.602C148.601 133.602 149.601 134.702 149.901 135.102C149.901 135.102 149.901 135.302 150.001 135.302C150.101 135.802 150.401 136.502 150.201 136.602C149.901 136.702 149.701 137.002 149.401 137.202L149.501 137.402Z" fill="black"/>
<path d="M139.601 134.201C139.801 134.401 139.901 134.701 140.101 134.801C140.101 134.801 140.101 135.101 140.501 134.801C140.701 134.701 140.3 135.201 140.4 135.201C140.6 135.401 140.7 135.601 140.9 135.801C141.1 135.901 141.401 136.001 141.701 136.101C141.901 136.201 141.901 136.601 142.301 136.601C142.601 136.601 142.401 137.001 142.601 137.101C142.801 137.101 143.001 137.301 143.001 137.601C143.001 137.801 143.001 138.101 143.101 138.101C143.201 138.101 143.501 138.001 143.601 138.101C143.601 138.101 143.601 138.401 144.001 138.101C144.001 138.101 144.001 138.101 144.001 138.301C143.801 138.701 143.901 138.701 144.201 138.601C144.401 138.501 144.501 138.601 144.501 138.601C144.701 138.701 144.801 138.801 145.001 139.001C145.001 139.101 145.001 139.401 145.101 139.601C145.101 139.801 145.5 139.601 145.4 140.001C145.4 140.301 145.401 140.401 145.501 140.501C145.501 140.501 145.5 140.801 145.9 140.501C145.5 141.301 146.401 140.601 146.501 140.901C146.501 141.201 146.901 141.301 147.101 141.401C147.101 141.401 147.1 141.601 147.4 141.401C147.5 141.301 147.601 141.401 147.501 141.401C147.301 142.001 147.701 141.801 147.701 142.001C147.801 142.201 148.201 142.101 148.001 142.701C148.001 142.901 148 143.101 148.4 142.701C148.6 142.501 148.501 142.701 148.601 142.701C148.601 142.701 148.901 142.501 149.001 142.501C149.001 142.501 149.001 142.801 149.001 142.901C149.601 142.501 149.401 143.501 149.801 143.501C150.201 143.501 150.401 143.801 150.601 144.001C150.701 144.101 150.801 144.401 150.301 145.401C150.101 145.901 149.801 146.301 149.501 146.601C149.301 146.801 149.101 146.901 149.101 146.901C149.001 146.901 148.801 146.901 148.601 146.901C148.301 146.901 147.801 147.301 147.801 146.901C147.801 146.801 147.501 146.901 147.801 146.501C147.101 147.001 147.101 146.401 146.801 146.201C146.601 146.101 146 146.401 145.9 146.101C145.4 146.501 145.301 146.301 145.301 146.101C145.301 145.201 144.601 145.301 144.201 144.901C143.801 144.501 143.3 144.201 142.9 143.801C142.9 143.801 142.501 144.001 142.601 143.701C142.601 143.401 142.5 143.501 142.4 143.401C142.4 143.401 142.101 143.401 142.201 143.201C142.301 142.401 141.701 142.401 141.501 142.101C141.201 141.801 141.001 141.401 140.601 141.201C140.301 141.101 139.901 141.201 139.801 140.901C139.801 140.801 139.401 140.901 139.801 140.401C139.801 140.301 139.5 140.401 139.4 140.401C139.2 140.401 139.101 140.201 139.001 140.001C138.801 139.801 138.701 139.601 138.501 139.501C138.401 139.501 138.1 139.501 137.9 139.401C137.7 139.401 137.601 139.201 137.601 139.001C137.601 138.801 137.601 138.501 137.501 138.301C137.501 138.101 137.101 138.101 137.101 137.801C137.301 137.201 136.801 137.101 136.601 136.701C136.401 136.401 136.2 136.101 135.9 135.801C135.7 135.701 136 135.201 135.9 135.101C135.9 135.101 137 134.101 137.4 133.801C137.4 133.801 137.601 133.801 137.601 133.701C138.101 133.601 138.8 133.301 138.9 133.501C139 133.801 139.301 134.001 139.501 134.301L139.601 134.201Z" fill="black"/>
<path d="M168.501 134.399C168.301 134.599 168.001 134.699 167.901 134.899C167.901 134.899 167.601 134.899 167.901 135.299C168.001 135.499 167.501 135.099 167.501 135.199C167.301 135.399 167.101 135.499 166.901 135.699C166.801 135.899 166.701 136.199 166.601 136.499C166.501 136.699 166.101 136.699 166.101 137.099C166.101 137.399 165.701 137.199 165.601 137.399C165.601 137.599 165.401 137.799 165.101 137.799C164.901 137.799 164.601 137.799 164.601 137.899C164.601 137.999 164.701 138.299 164.601 138.399C164.601 138.399 164.301 138.399 164.601 138.799C164.601 138.799 164.601 138.799 164.401 138.799C164.001 138.599 164.001 138.699 164.101 138.999C164.201 139.199 164.101 139.299 164.101 139.299C164.001 139.499 163.901 139.599 163.701 139.799C163.601 139.799 163.301 139.799 163.101 139.899C162.901 139.899 163.101 140.299 162.701 140.199C162.401 140.199 162.301 140.199 162.201 140.299C162.201 140.299 161.901 140.299 162.201 140.699C161.401 140.299 162.101 141.199 161.801 141.299C161.501 141.299 161.401 141.699 161.301 141.899C161.301 141.899 161.101 141.899 161.301 142.199C161.401 142.299 161.301 142.399 161.301 142.299C160.701 142.099 160.901 142.499 160.701 142.499C160.501 142.599 160.601 142.999 160.001 142.799C159.801 142.799 159.601 142.799 160.001 143.199C160.201 143.399 160.001 143.299 160.001 143.399C160.001 143.399 160.201 143.699 160.201 143.799C160.201 143.799 159.901 143.799 159.801 143.799C160.201 144.399 159.201 144.199 159.201 144.599C159.201 144.999 158.901 145.199 158.701 145.399C158.601 145.499 158.301 145.599 157.301 145.099C156.801 144.899 156.401 144.599 156.101 144.299C155.901 144.099 155.801 143.899 155.801 143.899C155.801 143.799 155.801 143.599 155.801 143.399C155.801 143.099 155.401 142.599 155.801 142.599C155.901 142.599 155.801 142.299 156.201 142.599C155.701 141.899 156.301 141.899 156.501 141.599C156.601 141.399 156.301 140.799 156.601 140.699C156.201 140.199 156.401 140.099 156.601 140.099C157.501 140.099 157.401 139.399 157.801 138.999C158.201 138.599 158.501 138.099 158.901 137.699C158.901 137.699 158.701 137.299 159.001 137.399C159.301 137.399 159.201 137.299 159.301 137.199C159.301 137.199 159.301 136.899 159.501 136.999C160.301 137.099 160.301 136.499 160.601 136.299C160.901 135.999 161.301 135.799 161.501 135.399C161.601 135.099 161.501 134.699 161.801 134.599C161.901 134.599 161.801 134.199 162.301 134.599C162.401 134.599 162.301 134.299 162.301 134.199C162.301 133.999 162.501 133.899 162.701 133.799C162.901 133.599 163.101 133.499 163.201 133.299C163.201 133.199 163.201 132.899 163.301 132.699C163.301 132.499 163.501 132.399 163.701 132.399C163.901 132.399 164.201 132.399 164.401 132.299C164.601 132.299 164.601 131.899 164.901 131.899C165.501 132.099 165.601 131.599 166.001 131.399C166.301 131.199 166.601 130.999 166.901 130.699C167.001 130.499 167.501 130.799 167.601 130.699C167.601 130.699 168.601 131.799 168.901 132.199C168.901 132.199 168.901 132.399 169.001 132.399C169.101 132.899 169.401 133.599 169.201 133.699C168.901 133.799 168.701 134.099 168.401 134.299L168.501 134.399Z" fill="black"/>
<path d="M158.601 131.201C158.801 131.401 158.901 131.701 159.101 131.801C159.101 131.801 159.101 132.101 159.501 131.801C159.701 131.701 159.3 132.201 159.4 132.201C159.6 132.401 159.7 132.601 159.9 132.801C160.1 132.901 160.401 133.001 160.701 133.101C160.901 133.201 160.901 133.601 161.301 133.601C161.601 133.601 161.401 134.001 161.601 134.101C161.801 134.101 162.001 134.301 162.001 134.601C162.001 134.801 162.001 135.101 162.101 135.101C162.201 135.101 162.501 135.001 162.601 135.101C162.601 135.101 162.601 135.401 163.001 135.101C163.001 135.101 163.001 135.101 163.001 135.301C162.801 135.701 162.901 135.701 163.201 135.601C163.401 135.501 163.501 135.601 163.501 135.601C163.701 135.701 163.801 135.801 164.001 136.001C164.001 136.101 164.001 136.401 164.101 136.601C164.101 136.801 164.5 136.601 164.4 137.001C164.4 137.301 164.401 137.401 164.501 137.501C164.501 137.501 164.5 137.801 164.9 137.501C164.5 138.301 165.401 137.601 165.501 137.901C165.501 138.201 165.901 138.301 166.101 138.401C166.101 138.401 166.1 138.601 166.4 138.401C166.5 138.301 166.601 138.401 166.501 138.401C166.301 139.001 166.701 138.801 166.701 139.001C166.801 139.201 167.201 139.101 167.001 139.701C167.001 139.901 167 140.101 167.4 139.701C167.6 139.501 167.501 139.701 167.601 139.701C167.601 139.701 167.901 139.501 168.001 139.501C168.001 139.501 168.001 139.801 168.001 139.901C168.601 139.501 168.401 140.501 168.801 140.501C169.201 140.501 169.401 140.801 169.601 141.001C169.701 141.101 169.801 141.401 169.301 142.401C169.101 142.901 168.801 143.301 168.501 143.601C168.301 143.801 168.101 143.901 168.101 143.901C168.001 143.901 167.801 143.901 167.601 143.901C167.301 143.901 166.801 144.301 166.801 143.901C166.801 143.801 166.501 143.901 166.801 143.501C166.101 144.001 166.101 143.401 165.801 143.201C165.601 143.101 165 143.401 164.9 143.101C164.4 143.501 164.301 143.301 164.301 143.101C164.301 142.201 163.601 142.301 163.201 141.901C162.801 141.501 162.3 141.201 161.9 140.801C161.9 140.801 161.501 141.001 161.601 140.701C161.601 140.401 161.5 140.501 161.4 140.401C161.4 140.401 161.101 140.401 161.201 140.201C161.301 139.401 160.701 139.401 160.501 139.101C160.201 138.801 160.001 138.401 159.601 138.201C159.301 138.101 158.901 138.201 158.801 137.901C158.801 137.801 158.401 137.901 158.801 137.401C158.801 137.301 158.5 137.401 158.4 137.401C158.2 137.401 158.101 137.201 158.001 137.001C157.801 136.801 157.701 136.601 157.501 136.501C157.401 136.501 157.1 136.501 156.9 136.401C156.7 136.401 156.601 136.201 156.601 136.001C156.601 135.801 156.601 135.501 156.501 135.301C156.501 135.101 156.101 135.101 156.101 134.801C156.301 134.201 155.801 134.101 155.601 133.701C155.401 133.401 155.2 133.101 154.9 132.801C154.7 132.701 155 132.201 154.9 132.101C154.9 132.101 156 131.101 156.4 130.801C156.4 130.801 156.601 130.801 156.601 130.701C157.101 130.601 157.8 130.301 157.9 130.501C158 130.801 158.301 131.001 158.501 131.301L158.601 131.201Z" fill="black"/>
<path d="M128.799 164.702C127.999 165.002 127.099 165.202 126.399 165.302C126.099 165.302 125.799 165.102 125.499 165.702C125.399 166.002 125.099 165.302 124.799 165.402C124.099 165.402 123.399 165.402 122.699 165.202C121.999 165.202 121.299 165.202 120.599 165.002C119.899 164.802 119.399 164.302 118.599 164.302C117.899 164.302 117.699 163.602 117.199 163.402C116.599 163.202 116.099 162.902 115.799 162.302C115.599 161.902 115.399 161.502 114.999 161.202C114.799 161.102 114.299 161.102 114.099 160.802C113.899 160.502 113.899 160.102 113.299 160.202C113.299 160.202 113.299 160.002 113.299 159.902C113.499 159.402 113.299 159.002 112.899 158.802C112.499 158.602 112.499 158.302 112.399 158.002C112.199 157.302 112.099 156.602 112.199 155.902C112.199 155.402 112.499 155.002 112.599 154.502C112.699 154.002 112.599 153.502 112.899 153.102C113.299 152.702 113.399 152.402 113.599 152.002C113.599 151.802 114.099 151.602 113.599 151.202V151.102C114.099 151.002 114.199 150.602 114.299 150.302C114.299 149.902 114.299 149.502 114.699 149.302C115.299 148.802 115.699 148.102 116.299 147.602C116.499 147.502 116.699 147.502 116.599 147.002C116.599 146.802 116.699 146.702 116.899 146.702C117.699 146.902 118.099 146.202 118.699 146.102C119.399 145.902 119.999 145.402 120.799 145.802C121.099 145.902 121.499 146.002 121.799 145.402C121.899 145.102 122.299 145.402 122.499 145.402C122.699 145.402 122.899 145.102 123.099 145.102C123.299 145.102 123.399 145.302 123.599 145.502C123.599 145.502 123.699 145.502 123.799 145.502C124.899 144.902 125.599 146.002 126.499 146.102C127.399 146.102 128.199 146.602 128.899 147.002C129.299 147.202 129.699 147.602 129.399 148.802C129.399 149.302 129.099 149.802 128.799 150.002C128.599 150.202 128.299 150.302 128.199 150.302C127.899 150.302 127.699 150.302 127.399 150.302C126.899 150.302 126.299 150.602 125.899 150.302C125.799 150.202 125.499 150.402 125.599 149.902C124.799 150.502 124.299 149.902 123.699 149.902C123.199 149.902 122.699 150.502 122.299 150.202C122.099 150.802 121.899 150.802 121.599 150.602C121.199 150.302 120.699 150.402 120.399 150.602C119.999 150.802 119.799 151.102 119.399 151.302C118.699 151.802 118.199 152.602 117.799 153.402C117.799 153.502 117.999 153.802 117.699 153.902C117.399 153.902 117.499 154.302 117.399 154.402C117.399 154.602 117.399 154.802 117.199 154.902C116.399 155.502 116.699 156.402 116.699 157.002C116.699 157.702 116.699 158.202 117.299 158.602C117.599 158.802 118.199 158.902 118.399 159.302C118.499 159.502 118.899 159.302 118.699 159.902C118.699 160.102 119.099 159.902 119.199 159.902C119.499 160.002 119.699 160.202 119.999 160.402C120.399 160.602 120.799 160.802 121.199 160.902C121.499 160.902 121.799 160.902 122.099 160.902C122.399 160.902 122.599 160.902 122.899 161.102C123.199 161.202 123.499 161.502 123.899 161.602C124.299 161.602 124.699 161.402 124.999 161.702C125.699 162.202 126.399 161.902 126.899 161.702C127.399 161.602 127.899 161.402 128.099 161.002C128.099 160.802 128.699 160.902 128.799 160.702C128.799 160.702 129.199 160.702 129.599 160.702C129.999 160.702 130.499 160.702 130.799 160.802C130.799 160.802 130.999 160.802 130.999 160.902C131.399 161.502 131.699 162.502 131.199 163.102C130.499 164.002 129.599 164.702 128.699 165.002L128.799 164.702Z" fill="black"/>
<path d="M128.5 120.502C128.8 121.002 128.9 121.502 129.2 121.902C129.3 122.102 129.2 122.302 129.7 122.302C130 122.302 129.5 122.702 129.6 122.802C129.9 123.202 130 123.602 130.2 124.002C130.4 124.402 130.8 124.702 131.1 125.102C131.3 125.502 131.2 126.002 131.7 126.302C132.1 126.602 131.7 127.102 132 127.402C132.2 127.702 132.4 128.102 132.3 128.502C132.3 128.802 132.1 129.102 132.3 129.402C132.4 129.502 132.8 129.602 132.8 129.802C132.8 130.002 132.6 130.202 133.3 130.202C133.3 130.202 133.3 130.302 133.2 130.402C132.8 130.702 132.9 130.902 133.2 131.002C133.5 131.002 133.5 131.202 133.5 131.402C133.6 131.802 133.7 132.202 133.7 132.602C133.7 132.902 133.5 133.202 133.5 133.602C133.5 133.902 133.8 134.202 133.5 134.602C133.2 134.902 133.2 135.202 133.2 135.502C133.2 135.702 132.9 135.902 133.6 136.002C133.6 136.002 133.6 136.002 133.6 136.102C132.8 136.602 133.8 137.002 133.6 137.502C133.3 138.002 133.4 138.502 133.4 139.002C133.4 139.102 133.2 139.202 133.6 139.402C133.8 139.402 133.7 139.602 133.6 139.702C132.9 140.002 133.2 140.402 133 140.802C132.8 141.202 133 141.702 132.3 142.002C132 142.102 131.9 142.302 132.3 142.702C132.5 142.902 132.2 143.002 132.2 143.202C132.2 143.302 132.4 143.602 132.4 143.702C132.4 143.802 132.1 143.802 132 143.902C132.3 144.802 131.3 145.002 131.1 145.602C130.9 146.302 130.5 146.802 130 147.302C129.7 147.602 129.3 147.702 128.3 147.202C127.8 146.902 127.4 146.602 127.3 146.302C127.2 146.102 127.1 145.802 127.1 145.702C127.1 145.502 127.1 145.302 127.1 145.102C127.1 144.702 126.9 144.202 127.3 144.002C127.4 144.002 127.3 143.702 127.7 143.902H127.8C127.3 143.102 128 143.002 128.1 142.502C128.2 142.102 127.8 141.502 128.1 141.302C127.6 140.902 127.7 140.702 128.1 140.602C129 140.102 128.7 139.202 128.9 138.502C129.1 137.702 129.1 137.002 129.1 136.202C129.1 136.102 128.8 136.002 129.1 135.802C129.4 135.702 129.1 135.502 129.1 135.302C129.1 135.102 128.9 135.002 129.1 134.802C129.7 134.102 129.2 133.502 129.2 132.902C129.2 132.302 129.1 131.602 128.8 131.002C128.6 130.602 128.2 130.402 128.2 130.002C128.2 129.802 127.8 129.802 128.3 129.402C128.4 129.402 128 129.302 127.9 129.202C127.8 129.002 127.7 128.702 127.6 128.402C127.5 128.002 127.4 127.702 127.2 127.302C127.1 127.102 126.8 127.002 126.6 126.802C126.4 126.602 126.4 126.402 126.3 126.102C126.3 125.802 126.3 125.402 126.3 125.102C126.3 124.802 125.8 124.602 125.9 124.202C126.1 123.502 125.6 123.002 125.4 122.502C125.2 122.002 125 121.602 124.7 121.402C124.5 121.402 124.7 120.802 124.6 120.702C124.6 120.702 124.7 120.302 124.9 119.902C125.1 119.502 125.3 119.002 125.4 118.802C125.4 118.802 125.5 118.602 125.6 118.602C126.2 118.402 127 118.102 127.4 118.602C127.9 119.202 128.3 119.802 128.6 120.302L128.5 120.502Z" fill="black"/>
<path d="M136.4 95.1988C137.8 94.9988 139.3 94.8988 140.7 94.6988C141.2 94.6988 141.8 94.8988 142.3 94.2988C142.6 93.9988 143.1 94.5988 143.6 94.5988C144.3 94.5988 145 94.5988 145.6 94.5988H147.6C148.9 94.5988 150.3 94.5988 151.6 94.5988C152.3 94.5988 152.9 94.7988 153.6 94.8988C154.3 94.9988 154.9 95.1988 155.6 95.0988C156.8 95.0988 157.6 95.7988 158.7 95.9988C159.8 96.1988 161 96.4988 161.9 97.0988C162.6 97.4988 163.2 98.0988 164 98.2988C164.5 98.3988 165.1 98.2988 165.5 98.5988C166 98.8988 166.3 99.3988 167.1 99.0988C167.1 99.0988 167.3 99.2988 167.4 99.3988C167.7 100.099 168.3 100.499 168.9 100.599C169.5 100.699 169.8 101.099 170.2 101.399C171.2 102.399 172 103.699 172.4 105.099C172.7 106.199 172.6 107.399 172.4 108.599C172.2 109.799 171.9 111.199 171 111.899C170.1 112.599 169.5 113.199 168.7 113.799C168.3 114.099 167.6 114.199 167.6 114.899C167.6 114.899 167.4 115.099 167.3 115.099C166.5 115.099 165.9 115.399 165.3 115.799C164.7 116.199 164.2 116.599 163.5 116.699C162.8 116.799 162.2 116.999 161.5 117.199C160.8 117.399 160.2 117.599 159.5 117.799C159.1 117.799 158.7 117.799 158.5 118.299C158.5 118.499 158 118.599 157.8 118.499C156.7 118.099 155.7 118.599 154.7 118.699C153.5 118.699 152.4 119.099 151.2 118.699C150.7 118.499 150 118.499 149.5 119.099C149.2 119.399 148.7 119.099 148.2 119.199C147.9 119.199 147.5 119.499 147.2 119.599C146.9 119.599 146.6 119.399 146.3 119.299C146.3 119.299 146.1 119.299 146 119.299C144.3 119.999 142.6 119.099 140.9 119.299C139.2 119.399 137.5 119.299 135.8 119.099C134.9 119.099 133.9 118.799 133.3 117.599C133 117.099 133.1 116.499 133.5 116.199C133.8 115.999 134.1 115.799 134.5 115.699C135 115.699 135.6 115.499 136.1 115.399C137.2 115.299 138.3 114.799 139.3 115.099C139.6 115.099 140 114.899 140.3 115.399C140.3 115.399 140.5 115.499 140.5 115.399C142 114.599 143.5 115.199 145 115.099C146.3 115.099 147.5 114.399 148.7 114.599C149.4 113.899 150.2 113.999 150.9 114.099C153.4 114.599 155.8 113.799 158.2 113.399C159.4 113.199 160.6 112.899 161.8 112.499C163 112.099 164.1 111.699 165.1 111.299C165.4 111.099 165.5 110.699 166 110.699C166.5 110.699 166.7 110.199 167 109.999C167.3 109.699 167.3 109.399 167.6 109.299C168.2 108.999 168.4 108.299 168.4 107.599C168.4 106.899 168 106.199 167.7 105.599C167 104.299 165.6 103.099 163.9 102.399C163.4 102.199 162.8 101.999 162.2 101.899C161.6 101.699 161.1 101.499 160.6 101.299C160.2 101.099 159.6 101.299 159.3 100.499C159.3 100.299 158.6 100.499 158.3 100.499C157.5 100.299 156.8 100.099 156 99.8988C155.5 99.7988 154.9 99.5988 154.4 99.4988C153.9 99.3988 153.3 99.2988 152.8 99.1988C152.1 99.1988 151.4 99.1988 150.8 99.1988C150.1 99.1988 149.4 99.1988 148.7 98.9988C147.8 98.8988 146.9 98.5988 146 98.5988C145.1 98.5988 144.1 98.7988 143.2 98.5988C141.5 98.0988 139.8 98.5988 138.1 98.5988C136.4 98.6988 134.7 98.8988 133.1 99.3988C132.2 99.5988 131.2 99.3988 130.3 99.4988C129.9 99.4988 129 98.2988 129 97.6988C129 97.5988 129 97.4988 129.1 97.3988C129.9 96.7988 130.6 95.7988 131.7 95.6988C133.3 95.4988 134.9 95.0988 136.5 94.8988L136.4 95.1988Z" fill="black"/>
<path d="M92.5004 109.798C93.1004 109.598 93.7004 109.398 94.3004 109.098C94.5004 108.998 94.8004 109.098 94.9004 108.598C94.9004 108.298 95.4004 108.798 95.5004 108.698C96.0004 108.398 96.6004 108.298 97.2004 108.098C97.7004 107.898 98.2004 107.498 98.7004 107.198C99.2004 106.998 99.9004 107.098 100.3 106.598C100.7 106.198 101.2 106.598 101.6 106.298C102 105.998 102.5 105.798 103 105.898C103.4 105.898 103.8 106.098 104.1 105.898C104.3 105.798 104.4 105.398 104.6 105.398C104.8 105.398 105.1 105.598 105.1 104.898C105.1 104.898 105.2 104.898 105.3 104.998C105.6 105.298 105.9 105.198 106 104.998C106.1 104.698 106.3 104.698 106.5 104.598C107 104.398 107.4 104.298 107.9 104.298C108.3 104.298 108.7 104.398 109 104.298C109.4 104.298 109.7 103.898 110.1 104.098C110.5 104.298 110.8 104.198 111.2 104.098C111.4 104.098 111.7 104.298 111.7 103.598C111.7 103.598 111.7 103.598 111.8 103.598C112.5 104.298 112.8 103.098 113.4 103.198C114 103.298 114.6 102.998 115.1 102.898C115.3 102.898 115.5 102.998 115.5 102.498C115.5 102.298 115.7 102.298 115.8 102.398C116.3 102.898 116.7 102.398 117.2 102.498C117.7 102.498 118.2 102.198 118.8 102.598C119 102.798 119.4 102.898 119.6 102.298C119.7 101.998 120 102.298 120.2 102.298C120.4 102.298 120.5 101.998 120.7 101.898C120.8 101.898 121 102.098 121.1 102.198C121.1 102.198 121.1 102.198 121.2 102.198C122 101.498 122.8 102.398 123.6 102.298C124.5 102.198 125.3 102.398 126.1 102.698C126.5 102.898 127 103.198 126.9 104.398C126.9 104.898 126.7 105.398 126.4 105.698C126.2 105.898 126 106.098 125.9 106.098C125.7 106.098 125.4 106.198 125.2 106.198C124.7 106.198 124.2 106.698 123.9 106.398C123.8 106.298 123.6 106.598 123.5 106.098C122.8 106.798 122.3 106.298 121.7 106.298C121.2 106.298 120.7 106.998 120.2 106.798C120 107.398 119.6 107.398 119.3 107.198C118.2 106.598 117.2 107.198 116.1 107.298C115 107.398 113.9 107.698 112.8 107.898C112.6 107.898 112.5 108.298 112.3 108.098C112 107.898 111.8 108.098 111.6 108.098C111.4 108.098 111.2 108.298 110.9 108.198C109.9 107.798 109.1 108.298 108.3 108.498C107.4 108.598 106.6 108.798 105.8 109.198C105.3 109.398 104.9 109.898 104.3 109.898C104.1 109.898 103.9 110.298 103.5 109.798C103.4 109.698 103.3 110.198 103.2 110.198C102.9 110.298 102.5 110.398 102.2 110.498C101.7 110.598 101.2 110.798 100.8 110.998C100.5 111.098 100.3 111.498 100 111.598C99.7004 111.798 99.4004 111.898 99.1004 111.898C98.7004 111.898 98.2004 111.898 97.8004 111.898C97.4004 111.898 97.0004 112.398 96.6004 112.298C95.7004 112.098 95.1004 112.598 94.4004 112.798C93.7004 112.998 93.0004 113.198 92.3004 113.598C91.9004 113.798 91.4004 113.598 91.0004 113.598C90.8004 113.598 90.0004 112.398 89.9004 111.898V111.698C90.1004 111.098 90.2004 110.298 90.7004 110.198C91.4004 109.998 92.0004 109.698 92.7004 109.398L92.5004 109.798Z" fill="black"/>
<path d="M99.8996 149.002C98.6996 149.002 97.5996 148.702 96.4996 148.502C96.0996 148.402 95.7996 148.002 95.0996 148.302C94.7996 148.502 94.5996 147.702 94.1996 147.502C93.0996 147.002 92.1996 146.202 91.3996 145.102C90.5996 144.102 89.9996 142.802 89.9996 141.502C89.9996 140.202 90.4996 139.102 90.6996 137.902C90.6996 137.402 91.0996 137.002 91.3996 136.602L91.5996 136.302L91.7996 136.102C91.7996 136.002 91.7996 135.902 91.8996 135.902C91.8996 135.902 91.9996 135.902 92.0996 135.902C92.3996 135.902 92.9996 135.602 92.8996 135.602C92.8996 135.602 92.1996 135.702 92.2996 135.602C92.2996 135.602 93.1996 135.302 91.4996 135.802C91.3996 135.802 91.6996 135.802 91.8996 135.702C93.0996 135.402 93.1996 135.302 92.2996 135.602C91.9996 135.602 91.7996 135.702 91.5996 135.802H91.4996C91.2996 135.802 91.3996 135.802 91.4996 135.802C91.5996 135.802 92.0996 135.602 92.0996 135.502H91.8996C91.8996 135.502 91.8996 135.502 91.8996 135.402C92.0996 135.102 91.8996 135.102 91.6996 135.102C91.6996 135.102 91.6996 135.102 91.5996 135.102C91.5996 135.102 91.5996 135.102 91.2996 135.502H91.0996C91.0996 135.402 90.8996 135.302 90.7996 135.202C90.6996 135.202 90.4996 135.002 90.2996 135.002C89.9996 135.002 89.5996 134.902 89.1996 134.802C88.3996 134.802 87.5996 134.502 87.1996 133.902C86.7996 133.202 86.5996 132.502 86.5996 131.702C86.5996 131.302 86.5996 130.902 86.6996 130.502C86.6996 130.102 86.8996 129.702 86.9996 129.302C86.9996 129.102 87.1996 128.902 87.1996 128.802C87.1996 128.602 87.1996 128.502 87.0996 128.302C86.9996 128.102 87.0996 127.802 87.2996 127.702C88.1996 127.202 88.2996 126.302 88.8996 125.702C89.5996 125.002 89.9996 124.102 90.9996 123.802C91.3996 123.702 91.8996 123.402 91.8996 122.702C91.8996 122.302 92.3996 122.302 92.6996 122.102C92.8996 121.902 92.9996 121.502 93.1996 121.402C93.3996 121.302 93.6996 121.402 93.9996 121.402C93.9996 121.402 94.1996 121.402 94.1996 121.302C95.0996 120.102 96.5996 120.302 97.6996 119.702C98.7996 119.102 100.1 118.802 101.3 118.502C102 118.402 102.7 118.302 103.4 119.302C103.7 119.702 103.9 120.302 103.7 120.702C103.6 121.002 103.4 121.302 103.2 121.402C102.9 121.602 102.5 121.802 102.2 122.002C101.5 122.402 101 123.102 100.2 123.102C99.8996 123.102 99.7996 123.502 99.3996 123.102H99.1996C98.4996 124.202 97.3996 124.102 96.5996 124.602C95.8996 125.002 95.5996 126.002 94.7996 126.202C94.7996 127.002 94.3996 127.202 93.9996 127.302C93.1996 127.602 92.6996 128.102 92.2996 128.702C91.8996 129.302 91.5996 130.002 91.3996 130.602C91.3996 130.802 91.3996 130.702 91.3996 130.802C91.3996 130.802 91.3996 130.802 91.3996 130.902V131.102C91.3996 131.102 91.4996 131.102 91.5996 131.202H91.9996C92.0996 131.302 92.2996 131.202 92.3996 131.202C92.5996 131.202 92.9996 131.202 93.1996 131.402C93.4996 131.602 93.7996 131.602 94.1996 131.602C94.3996 131.602 94.5996 131.602 94.7996 131.602C94.9996 131.602 95.1996 131.602 95.3996 131.602C96.0996 131.602 97.1996 131.402 97.7996 131.502H98.6996C98.6996 132.302 98.9996 132.702 99.2996 132.902C99.5996 133.102 99.8996 133.202 100.1 133.302C100.3 133.302 100.5 133.302 100.6 133.302C100.4 133.502 100.1 133.602 99.9996 133.902C99.9996 134.002 99.9996 134.102 100.1 134.302C100.1 134.502 100.3 134.802 100.2 135.202C100.2 135.402 100.4 135.602 100.4 135.902C100.1 136.002 99.7996 136.102 99.3996 136.302C98.9996 136.402 98.5996 136.502 98.1996 136.602C97.5996 136.702 97.5996 137.202 97.0996 137.502L96.2996 138.102L95.6996 138.702C95.4996 138.902 95.2996 139.202 95.1996 139.202L94.9996 139.502C94.6996 140.002 94.3996 140.502 94.3996 141.102C94.3996 141.402 94.5996 141.702 94.6996 142.002C94.6996 142.302 94.7996 142.502 94.8996 142.702C94.8996 143.002 94.8996 143.402 95.1996 143.702C95.4996 144.002 96.0996 144.102 96.3996 144.502C97.0996 145.402 98.2996 145.402 99.2996 145.602C100.3 145.802 101.4 145.802 102.5 145.402C103.1 145.202 103.7 145.602 104.3 145.402C104.5 145.402 105.5 146.502 105.6 147.002C105.6 147.002 105.6 147.202 105.6 147.302C105.1 148.002 104.7 148.902 103.8 149.102C102.5 149.302 101.2 149.502 99.8996 149.402V149.002Z" fill="black"/>
</svg>
