<svg width="300" height="300" viewBox="0 0 300 300" fill="none" xmlns="http://www.w3.org/2000/svg">
<path d="M184.101 141C183.701 140.6 183.401 140.2 183.001 139.8C182.801 139.7 183.001 139.3 182.401 139.6C182.101 139.7 182.401 139.1 182.401 139C182.001 138.7 181.701 138.3 181.301 137.9C180.901 137.6 180.401 137.4 180.101 137.1C179.701 136.8 179.601 136.2 179.101 136.1C178.601 136 178.701 135.4 178.401 135.2C178.001 135 177.701 134.7 177.601 134.3C177.601 134 177.501 133.6 177.201 133.5C177.001 133.5 176.701 133.5 176.601 133.4C176.501 133.3 176.601 132.9 176.001 133.2C176.001 133.2 176.001 133.1 176.001 133C176.201 132.6 176.001 132.4 175.701 132.5C175.401 132.5 175.301 132.5 175.201 132.3C174.901 132 174.601 131.7 174.401 131.4C174.201 131.1 174.201 130.8 174.001 130.5C173.801 130.2 173.401 130.2 173.401 129.7C173.401 129.3 173.201 129.1 173.001 128.9C172.901 128.8 173.001 128.4 172.401 128.8C172.701 127.9 171.601 128.3 171.401 127.8C171.201 127.3 170.801 127 170.401 126.7C170.401 126.7 170.401 126.4 169.901 126.7C169.801 126.7 169.601 126.7 169.701 126.6C169.901 125.9 169.401 125.9 169.201 125.5C169.001 125.1 168.501 125 168.501 124.3C168.501 124 168.501 123.8 167.901 124C167.601 124.1 167.701 123.8 167.501 123.7C167.401 123.7 167.101 123.7 167.001 123.7C167.001 123.7 167.001 123.4 167.001 123.2C166.101 123.2 166.301 122.1 165.701 121.8C165.101 121.5 164.701 120.9 164.401 120.4C164.201 120.1 164.101 119.7 164.801 118.8C165.101 118.4 165.501 118 165.801 117.9C166.101 117.9 166.301 117.8 166.401 117.9C166.601 117.9 166.801 118 167.001 118.1C167.401 118.3 168.101 118.1 168.201 118.7C168.201 118.9 168.601 118.7 168.201 119.2V119.3C169.201 119.2 169.201 120 169.601 120.3C170.001 120.6 170.801 120.5 170.901 121.1C171.501 120.9 171.701 121.1 171.701 121.5C171.901 122.7 172.901 123.1 173.501 123.8C174.101 124.6 174.801 125.2 175.501 126C175.601 126.1 176.001 126 175.901 126.3C175.901 126.6 176.101 126.6 176.301 126.8C176.401 126.9 176.701 127 176.701 127.2C176.701 128.2 177.601 128.5 178.001 129.1C178.501 129.7 179.001 130.3 179.601 130.8C180.001 131.1 180.601 131.2 180.801 131.6C180.801 131.8 181.301 131.7 181.001 132.3C181.001 132.5 181.401 132.3 181.501 132.3C181.801 132.5 182.001 132.8 182.201 133C182.501 133.3 182.801 133.7 183.101 134C183.301 134.2 183.701 134.2 183.901 134.4C184.101 134.6 184.301 134.8 184.501 135C184.701 135.3 184.801 135.7 185.001 136C185.201 136.3 185.701 136.4 185.701 136.9C185.701 137.7 186.401 138 186.801 138.6C187.201 139.1 187.601 139.6 188.201 140C188.501 140.2 188.401 140.8 188.601 141.1C188.701 141.2 187.801 142.4 187.401 142.7L187.201 142.8C186.601 142.8 185.901 143.1 185.601 142.8C185.201 142.3 184.801 141.9 184.401 141.5L184.101 141Z" fill="black"/>
<path d="M119.501 119.901C118.601 120.501 117.701 121.201 117.101 122.101C116.901 122.401 116.401 122.601 116.701 123.301C116.801 123.601 116.101 123.601 115.901 124.001C115.501 125.001 115.101 125.901 115.001 127.001C114.801 128.101 115.001 129.101 114.901 130.201C114.901 131.301 114.501 132.401 114.901 133.501C115.201 134.501 114.701 135.301 114.801 136.201C114.901 137.201 115.001 138.201 114.801 139.101C114.601 139.801 114.401 140.501 114.601 141.201C114.601 141.601 115.001 142.001 115.001 142.501C115.001 142.901 114.701 143.401 115.401 143.801C115.401 143.801 115.401 144.001 115.301 144.101C114.901 144.601 115.001 145.201 115.301 145.501C115.601 145.901 115.601 146.201 115.601 146.601C115.701 147.601 115.801 148.501 115.801 149.501C115.801 150.201 115.701 151.001 115.701 151.701C115.701 152.501 116.101 153.201 115.801 154.001C115.601 154.701 115.701 155.401 115.801 156.101C115.801 156.501 115.601 157.001 116.301 157.201V157.401C115.601 158.601 116.801 159.601 116.801 160.701C116.801 161.901 117.101 163.101 117.301 164.201C117.301 164.501 117.301 164.901 117.701 165.101C117.901 165.101 117.901 165.501 117.901 165.701C117.401 166.701 117.901 167.501 117.901 168.401C117.901 169.401 118.401 170.401 118.101 171.501C118.001 172.001 118.001 172.601 118.601 173.001C118.901 173.201 118.701 173.701 118.901 174.101C119.001 174.401 119.301 174.601 119.401 174.901C119.401 175.201 119.301 175.501 119.201 175.701C119.201 175.701 119.201 175.901 119.201 176.001C120.101 177.401 119.501 179.001 120.001 180.501C120.501 182.001 120.701 183.501 120.901 185.001C121.001 185.801 120.901 186.701 120.001 187.501C119.501 187.901 119.001 188.001 118.601 187.701C118.301 187.501 118.001 187.201 117.901 186.901C117.701 186.401 117.501 186.001 117.301 185.501C116.901 184.601 116.201 183.701 116.301 182.701C116.301 182.401 116.001 182.101 116.401 181.701V181.501C115.401 180.301 115.601 178.801 115.301 177.501C115.001 176.401 114.201 175.301 114.301 174.101C113.601 173.601 113.501 172.801 113.601 172.101C113.901 169.701 113.001 167.501 112.801 165.101C112.501 162.701 112.101 160.401 111.901 158.001C111.901 157.601 111.401 157.301 111.701 156.801C111.901 156.301 111.701 155.801 111.601 155.301C111.601 154.801 111.401 154.301 111.501 153.901C112.001 152.001 111.401 150.201 111.301 148.301C111.301 146.401 111.201 144.601 110.901 142.701C110.801 141.601 110.401 140.501 110.501 139.301C110.501 138.801 110.201 138.301 110.801 137.801C111.001 137.701 110.501 137.201 110.501 136.901C110.501 136.101 110.501 135.301 110.501 134.501C110.501 133.401 110.501 132.301 110.501 131.201C110.501 130.501 110.301 129.801 110.301 129.101C110.301 128.401 110.301 127.601 110.601 126.901C110.801 126.001 111.201 125.101 111.601 124.101C112.001 123.201 112.101 122.001 112.801 121.201C113.501 120.501 114.001 119.801 114.701 119.101C115.301 118.401 116.001 117.701 116.701 117.201C118.201 116.201 119.801 115.401 121.301 114.701C122.201 114.301 123.201 114.501 124.001 114.201C124.401 114.101 125.401 115.301 125.301 115.901C125.301 116.001 125.301 116.101 125.301 116.201C124.601 116.901 124.101 117.801 123.201 118.101C121.901 118.501 120.701 119.101 119.601 119.801L119.501 119.901Z" fill="black"/>
<path d="M166.101 147.302C166.501 147.102 166.801 147.002 167.201 146.702C167.301 146.702 167.601 146.702 167.501 146.202C167.501 145.902 167.901 146.402 168.001 146.402C168.301 146.202 168.701 146.102 169.001 145.902C169.301 145.702 169.501 145.302 169.801 145.102C170.101 144.902 170.601 145.102 170.801 144.602C171.001 144.202 171.401 144.602 171.601 144.302C171.801 144.102 172.101 143.902 172.501 144.002C172.801 144.002 173.101 144.202 173.201 144.002C173.201 143.902 173.201 143.502 173.401 143.502C173.501 143.502 173.801 143.702 173.701 143.002C173.701 143.002 173.701 143.002 173.901 143.002C174.201 143.302 174.401 143.202 174.401 143.002C174.401 142.702 174.501 142.702 174.601 142.602C174.901 142.502 175.201 142.302 175.501 142.302C175.701 142.302 176.001 142.302 176.301 142.302C176.501 142.302 176.701 141.902 177.001 142.102C177.301 142.302 177.501 142.202 177.701 142.102C177.801 142.102 178.101 142.302 177.901 141.602C178.501 142.302 178.501 141.102 178.901 141.202C179.301 141.202 179.601 141.002 180.001 140.902C180.001 140.902 180.301 141.002 180.201 140.502C180.201 140.302 180.201 140.302 180.401 140.402C180.901 140.902 181.001 140.402 181.301 140.402C181.601 140.402 181.901 140.002 182.301 140.402C182.501 140.602 182.701 140.602 182.701 140.002C182.701 139.702 182.901 140.002 183.001 139.802C183.001 139.802 183.001 139.402 183.201 139.402C183.201 139.402 183.401 139.602 183.501 139.702C183.801 138.902 184.501 139.702 184.901 139.302C185.301 139.002 185.801 138.902 186.301 138.902C186.601 138.902 186.901 138.902 187.401 140.002C187.601 140.502 187.801 141.002 187.701 141.402C187.701 141.702 187.701 141.902 187.601 142.002C187.501 142.102 187.401 142.302 187.301 142.402C187.101 142.702 186.901 143.302 186.601 143.102C186.501 143.102 186.501 143.402 186.201 142.902C186.001 143.802 185.501 143.402 185.101 143.602C184.801 143.802 184.601 144.502 184.201 144.302C184.201 145.002 184.001 144.902 183.701 144.802C182.801 144.402 182.301 145.002 181.601 145.202C180.901 145.302 180.301 145.702 179.601 145.902C179.501 145.902 179.601 146.302 179.301 146.102C179.101 145.902 179.001 146.102 178.801 146.202C178.701 146.202 178.601 146.402 178.401 146.302C177.601 145.902 177.301 146.502 176.701 146.602C176.201 146.702 175.601 146.902 175.201 147.302C174.901 147.502 174.801 148.002 174.401 148.002C174.201 148.002 174.201 148.402 173.901 147.902C173.801 147.802 173.901 148.202 173.801 148.302C173.601 148.402 173.401 148.502 173.201 148.602C172.901 148.702 172.601 148.802 172.301 149.002C172.101 149.102 172.101 149.402 171.901 149.602C171.701 149.702 171.601 149.802 171.301 149.902C171.001 149.902 170.701 149.902 170.401 149.902C170.101 149.902 170.001 150.302 169.601 150.202C168.901 150.002 168.601 150.402 168.201 150.602C167.701 150.802 167.301 150.902 166.901 151.302C166.701 151.502 166.201 151.202 166.001 151.302C165.901 151.302 165.101 150.102 164.901 149.702V149.502C164.901 149.002 164.801 148.202 165.101 148.102C165.501 148.002 165.901 147.702 166.301 147.502L166.101 147.302Z" fill="black"/>
<path d="M168.602 166.202C168.602 165.902 168.502 165.502 168.302 165.202C168.302 165.102 168.502 164.902 167.902 164.902C167.602 164.902 168.202 164.602 168.202 164.502C168.102 164.202 168.102 163.902 167.902 163.602C167.802 163.302 167.502 163.102 167.302 162.802C167.202 162.502 167.302 162.102 167.002 161.902C166.702 161.702 167.102 161.402 167.002 161.202C166.802 161.002 166.702 160.702 166.802 160.402C166.902 160.202 167.102 160.002 166.902 159.802C166.902 159.802 166.502 159.702 166.502 159.602C166.502 159.502 166.702 159.302 166.102 159.302C166.102 159.302 166.102 159.302 166.202 159.202C166.602 159.002 166.502 158.802 166.202 158.802C165.902 158.802 165.902 158.702 165.902 158.602C165.902 158.402 165.702 158.102 165.702 157.902C165.702 157.702 165.902 157.502 165.902 157.302C165.902 157.102 165.602 157.002 165.902 156.702C166.202 156.402 166.102 156.302 166.002 156.102C166.002 156.102 166.202 155.802 165.602 155.902C166.302 155.402 165.202 155.402 165.302 155.102C165.402 154.802 165.302 154.502 165.102 154.202C165.102 154.202 165.202 154.002 164.802 154.002C164.602 154.002 164.602 154.002 164.702 153.902C165.202 153.502 164.802 153.402 164.902 153.102C164.902 152.802 164.602 152.602 164.902 152.202C165.102 152.002 165.102 151.902 164.502 151.902C164.202 151.902 164.502 151.702 164.402 151.602C164.402 151.602 164.002 151.602 164.002 151.502C164.002 151.502 164.202 151.302 164.302 151.202C163.602 151.002 164.302 150.402 164.002 150.102C163.702 149.802 163.702 149.402 163.602 149.002C163.602 148.802 163.602 148.502 164.702 148.002C165.202 147.802 165.702 147.602 166.002 147.602C166.202 147.602 166.502 147.602 166.602 147.602C166.702 147.602 166.902 147.802 167.002 147.902C167.302 148.102 167.902 148.202 167.702 148.502C167.702 148.602 168.002 148.602 167.502 148.802C168.402 148.902 168.002 149.402 168.102 149.802C168.202 150.102 168.902 150.202 168.702 150.602C169.402 150.602 169.302 150.802 169.202 151.002C168.702 151.802 169.302 152.202 169.402 152.902C169.402 153.502 169.702 154.102 169.802 154.702C169.802 154.802 170.202 154.802 170.002 155.002C169.802 155.202 170.002 155.302 170.002 155.402C170.002 155.502 170.202 155.602 170.002 155.802C169.502 156.402 170.002 156.802 170.002 157.302C170.002 157.802 170.002 158.302 170.402 158.702C170.602 159.002 171.002 159.202 170.902 159.502C170.902 159.602 171.202 159.702 170.702 159.902C170.502 159.902 171.002 159.902 171.102 160.102C171.102 160.302 171.202 160.502 171.302 160.702C171.302 161.002 171.302 161.302 171.502 161.502C171.502 161.702 171.902 161.802 172.002 161.902C172.102 162.102 172.102 162.202 172.102 162.402C172.102 162.602 171.902 162.902 171.902 163.102C171.902 163.302 172.202 163.502 172.002 163.802C171.602 164.302 172.002 164.702 172.002 165.102C172.002 165.502 172.102 165.902 172.302 166.302C172.402 166.502 172.002 166.802 172.102 167.102C172.102 167.102 170.702 167.702 170.202 167.802H170.002C169.502 167.802 168.702 167.802 168.702 167.402C168.702 167.002 168.502 166.702 168.402 166.302L168.602 166.202Z" fill="black"/>
<path d="M162.2 186.203C162.3 185.803 162.5 185.403 162.5 185.003C162.5 184.803 162.8 184.803 162.4 184.503C162.2 184.303 162.8 184.403 162.8 184.203C162.8 183.803 163.1 183.503 163.1 183.103C163.1 182.703 163.1 182.303 163.1 181.903C163.1 181.503 163.6 181.303 163.4 180.803C163.2 180.403 163.8 180.303 163.8 180.003C163.8 179.703 163.8 179.303 164.1 179.103C164.3 178.903 164.6 178.803 164.6 178.603C164.6 178.403 164.3 178.203 164.4 178.103C164.4 178.003 164.8 177.903 164.2 177.603C164.2 177.603 164.2 177.603 164.4 177.603C164.8 177.603 164.9 177.403 164.6 177.203C164.4 177.003 164.5 176.903 164.5 176.803C164.5 176.503 164.6 176.203 164.8 175.903C164.9 175.703 165.2 175.603 165.4 175.403C165.5 175.203 165.4 174.903 165.7 174.703C166.1 174.603 166.1 174.403 166.2 174.203C166.2 174.103 166.6 174.003 166 173.703C166.9 173.703 166 173.003 166.3 172.703C166.6 172.403 166.6 172.003 166.7 171.703C166.7 171.703 166.9 171.603 166.5 171.303C166.4 171.303 166.4 171.103 166.5 171.103C167.2 171.103 166.9 170.603 167.1 170.403C167.3 170.103 167.1 169.703 167.7 169.603C167.9 169.603 168.1 169.403 167.6 169.103C167.4 168.903 167.6 168.903 167.6 168.803C167.6 168.703 167.3 168.503 167.4 168.403C167.4 168.403 167.7 168.403 167.8 168.303C167.3 167.703 168.3 167.503 168.2 167.003C168.2 166.703 168.2 166.603 168.2 166.303C168.2 166.003 168.4 165.703 168.6 165.303C168.8 164.903 169.3 164.503 170.4 165.103C170.9 165.303 171.3 165.703 171.5 166.003C171.6 166.203 171.8 166.403 171.8 166.503C171.8 166.603 171.9 166.803 172 166.903C172.1 167.103 172.6 167.403 172.2 167.703C172.1 167.703 172.3 168.003 171.8 167.903C172.5 168.503 171.8 168.903 171.8 169.303C171.8 169.703 172.2 170.203 171.8 170.503C172.3 170.903 172.2 171.103 171.9 171.203C171 171.703 171.2 172.503 170.9 173.203C170.6 173.903 170.4 174.603 170.1 175.303C170.1 175.403 170.4 175.603 170.1 175.703C169.8 175.703 169.9 176.003 169.9 176.103C169.9 176.203 169.9 176.403 169.7 176.503C168.9 176.803 169.1 177.503 168.8 178.003C168.5 178.503 168.3 179.003 168.3 179.603C168.3 180.003 168.5 180.403 168.3 180.703C168.2 180.803 168.5 181.103 167.9 181.003C167.7 181.003 168.1 181.303 168.1 181.403C168.1 181.603 168 181.903 167.9 182.103C167.8 182.403 167.6 182.703 167.6 183.103C167.6 183.303 167.7 183.603 167.7 183.803C167.7 184.003 167.7 184.203 167.5 184.403C167.3 184.603 167.1 184.803 166.9 185.103C166.8 185.303 166.9 185.703 166.6 185.903C166 186.203 166.1 186.803 165.9 187.203C165.7 187.603 165.5 188.103 165.5 188.603C165.5 188.903 165 189.003 164.9 189.203C164.9 189.303 163.4 189.203 162.9 189.003H162.7C162.3 188.603 161.7 188.203 161.8 187.903C162 187.403 162.1 187.003 162.2 186.503V186.203Z" fill="black"/>
<path d="M157.6 168.101C157.5 167.801 157.4 167.601 157.2 167.401C157.2 167.401 157.2 167.101 156.8 167.401C156.6 167.501 157 167.101 156.9 167.001C156.7 166.801 156.6 166.601 156.3 166.501C156.1 166.401 155.7 166.401 155.5 166.301C155.3 166.301 155.2 165.901 154.9 166.101C154.6 166.301 154.6 165.801 154.4 165.801C154.2 165.801 154 165.801 153.8 165.601C153.7 165.401 153.6 165.201 153.4 165.301C153.3 165.301 153.2 165.701 153.1 165.701C153.1 165.701 152.9 165.401 152.8 166.001C152.8 166.001 152.8 166.001 152.8 165.901C152.7 165.501 152.6 165.501 152.5 165.901C152.5 166.201 152.4 166.101 152.3 166.201C152.1 166.201 152 166.301 151.8 166.301C151.7 166.301 151.5 166.101 151.3 166.101C151.1 166.101 151.1 166.401 150.8 166.201C150.5 166.001 150.4 166.201 150.3 166.201C150.3 166.201 150 166.101 150.3 166.601C149.6 166.101 150.1 167.101 149.8 167.101C149.5 167.101 149.4 167.401 149.2 167.701C149.2 167.701 149 167.701 149.2 168.001C149.3 168.101 149.2 168.201 149.2 168.101C148.6 167.901 148.8 168.301 148.6 168.401C148.4 168.501 148.6 168.901 148 168.901C147.8 168.901 147.6 169.001 148 169.401C148.2 169.601 148 169.601 148 169.701L148.2 170.001C148.2 170.001 147.9 170.001 147.8 170.001C148.3 170.601 147.4 170.601 147.4 171.101C147.4 171.501 147.4 171.901 147.2 172.301C147.2 172.501 146.9 172.701 145.7 172.701C145.2 172.701 144.6 172.701 144.3 172.501C144.1 172.401 143.9 172.301 143.8 172.201C143.8 172.001 143.6 171.901 143.5 171.701C143.4 171.401 142.9 170.901 143.2 170.701C143.3 170.701 143 170.401 143.6 170.501C142.9 169.901 143.6 169.501 143.6 169.101C143.6 168.701 143.2 168.101 143.6 167.801C143.1 167.301 143.3 167.101 143.6 167.001C144.6 166.501 144.6 165.601 145.3 165.001C145.9 164.401 146.5 163.701 147.2 163.201C147.3 163.201 147.2 162.701 147.5 162.901C147.8 163.001 147.9 162.701 148 162.601C148.2 162.601 148.3 162.301 148.5 162.401C149.4 162.701 149.9 162.101 150.7 162.001C151.4 162.001 152.1 162.001 152.8 161.701C153.2 161.701 153.7 161.301 154.1 161.501C154.3 161.501 154.5 161.301 154.6 161.901C154.6 162.101 154.9 161.701 155 161.701C155.3 161.701 155.6 161.901 155.9 162.001C156.3 162.201 156.7 162.401 157.1 162.501C157.3 162.501 157.7 162.501 158 162.601C158.3 162.701 158.5 162.901 158.7 163.101C158.9 163.401 159 163.801 159.2 164.101C159.4 164.401 159.9 164.501 159.8 165.001C159.8 165.801 160.3 166.201 160.5 166.701C160.7 167.301 160.9 167.801 161.1 168.401C161.3 168.701 160.8 169.101 160.9 169.401C160.9 169.601 159.5 169.901 159 169.901H158.8C158.3 169.701 157.6 169.701 157.6 169.401C157.6 169.101 157.5 168.801 157.3 168.501L157.6 168.101Z" fill="black"/>
<path d="M149.501 137.402C149.301 137.602 149.001 137.702 148.901 137.902C148.901 137.902 148.601 137.902 148.901 138.302C149.001 138.502 148.501 138.102 148.501 138.202C148.301 138.402 148.101 138.502 147.901 138.702C147.801 138.902 147.701 139.202 147.601 139.402C147.501 139.602 147.101 139.602 147.101 140.002C147.101 140.302 146.701 140.102 146.601 140.302C146.601 140.502 146.401 140.702 146.101 140.702C145.901 140.702 145.601 140.702 145.601 140.802C145.601 140.902 145.701 141.202 145.601 141.302C145.601 141.302 145.301 141.302 145.601 141.702C145.601 141.702 145.601 141.702 145.401 141.702C145.001 141.502 145.001 141.602 145.101 141.902C145.201 142.102 145.101 142.202 145.101 142.202C145.001 142.402 144.901 142.502 144.701 142.702C144.601 142.702 144.301 142.702 144.101 142.802C143.901 142.802 144.101 143.202 143.701 143.102C143.401 143.102 143.301 143.102 143.201 143.202C143.201 143.202 142.901 143.202 143.201 143.602C142.401 143.202 143.101 144.102 142.801 144.202C142.501 144.202 142.401 144.602 142.301 144.802C142.301 144.802 142.101 144.802 142.301 145.102C142.401 145.202 142.301 145.302 142.301 145.202C141.701 145.002 141.901 145.402 141.701 145.402C141.501 145.502 141.601 145.902 141.001 145.702C140.801 145.702 140.601 145.702 141.001 146.102C141.201 146.302 141.001 146.202 141.001 146.302C141.001 146.302 141.201 146.602 141.201 146.702C141.201 146.702 140.901 146.702 140.801 146.702C141.201 147.302 140.201 147.102 140.201 147.502C140.201 147.902 139.901 148.102 139.701 148.302C139.601 148.402 139.301 148.502 138.301 148.002C137.801 147.802 137.401 147.502 137.101 147.202C136.901 147.002 136.801 146.802 136.801 146.802C136.801 146.702 136.801 146.502 136.801 146.302C136.801 146.002 136.401 145.502 136.801 145.502C136.901 145.502 136.801 145.202 137.201 145.502C136.701 144.802 137.301 144.802 137.501 144.502C137.601 144.302 137.301 143.702 137.601 143.602C137.201 143.102 137.401 143.002 137.601 143.002C138.501 143.002 138.401 142.302 138.801 141.902C139.201 141.502 139.501 141.002 139.901 140.602C139.901 140.602 139.701 140.202 140.001 140.302C140.301 140.302 140.201 140.202 140.301 140.102C140.301 140.102 140.301 139.802 140.501 139.902C141.301 140.002 141.301 139.402 141.601 139.202C141.901 138.902 142.301 138.702 142.501 138.302C142.601 138.002 142.501 137.602 142.801 137.502C142.901 137.502 142.801 137.102 143.301 137.502C143.401 137.502 143.301 137.202 143.301 137.102C143.301 136.902 143.501 136.802 143.701 136.702C143.901 136.502 144.101 136.402 144.201 136.202C144.201 136.102 144.201 135.802 144.301 135.602C144.301 135.402 144.501 135.302 144.701 135.302C144.901 135.302 145.201 135.302 145.401 135.202C145.601 135.202 145.601 134.802 145.901 134.802C146.501 135.002 146.601 134.502 147.001 134.302C147.301 134.102 147.601 133.902 147.901 133.602C148.001 133.402 148.501 133.702 148.601 133.602C148.601 133.602 149.601 134.702 149.901 135.102C149.901 135.102 149.901 135.302 150.001 135.302C150.101 135.802 150.401 136.502 150.201 136.602C149.901 136.702 149.701 137.002 149.401 137.202L149.501 137.402Z" fill="black"/>
<path d="M139.601 134.201C139.801 134.401 139.901 134.701 140.101 134.801C140.101 134.801 140.101 135.101 140.501 134.801C140.701 134.701 140.3 135.201 140.4 135.201C140.6 135.401 140.7 135.601 140.9 135.801C141.1 135.901 141.401 136.001 141.701 136.101C141.901 136.201 141.901 136.601 142.301 136.601C142.601 136.601 142.401 137.001 142.601 137.101C142.801 137.101 143.001 137.301 143.001 137.601C143.001 137.801 143.001 138.101 143.101 138.101C143.201 138.101 143.501 138.001 143.601 138.101C143.601 138.101 143.601 138.401 144.001 138.101C144.001 138.101 144.001 138.101 144.001 138.301C143.801 138.701 143.901 138.701 144.201 138.601C144.401 138.501 144.501 138.601 144.501 138.601C144.701 138.701 144.801 138.801 145.001 139.001C145.001 139.101 145.001 139.401 145.101 139.601C145.101 139.801 145.5 139.601 145.4 140.001C145.4 140.301 145.401 140.401 145.501 140.501C145.501 140.501 145.5 140.801 145.9 140.501C145.5 141.301 146.401 140.601 146.501 140.901C146.501 141.201 146.901 141.301 147.101 141.401C147.101 141.401 147.1 141.601 147.4 141.401C147.5 141.301 147.601 141.401 147.501 141.401C147.301 142.001 147.701 141.801 147.701 142.001C147.801 142.201 148.201 142.101 148.001 142.701C148.001 142.901 148 143.101 148.4 142.701C148.6 142.501 148.501 142.701 148.601 142.701C148.601 142.701 148.901 142.501 149.001 142.501C149.001 142.501 149.001 142.801 149.001 142.901C149.601 142.501 149.401 143.501 149.801 143.501C150.201 143.501 150.401 143.801 150.601 144.001C150.701 144.101 150.801 144.401 150.301 145.401C150.101 145.901 149.801 146.301 149.501 146.601C149.301 146.801 149.101 146.901 149.101 146.901C149.001 146.901 148.801 146.901 148.601 146.901C148.301 146.901 147.801 147.301 147.801 146.901C147.801 146.801 147.501 146.901 147.801 146.501C147.101 147.001 147.101 146.401 146.801 146.201C146.601 146.101 146 146.401 145.9 146.101C145.4 146.501 145.301 146.301 145.301 146.101C145.301 145.201 144.601 145.301 144.201 144.901C143.801 144.501 143.3 144.201 142.9 143.801C142.9 143.801 142.501 144.001 142.601 143.701C142.601 143.401 142.5 143.501 142.4 143.401C142.4 143.401 142.101 143.401 142.201 143.201C142.301 142.401 141.701 142.401 141.501 142.101C141.201 141.801 141.001 141.401 140.601 141.201C140.301 141.101 139.901 141.201 139.801 140.901C139.801 140.801 139.401 140.901 139.801 140.401C139.801 140.301 139.5 140.401 139.4 140.401C139.2 140.401 139.101 140.201 139.001 140.001C138.801 139.801 138.701 139.601 138.501 139.501C138.401 139.501 138.1 139.501 137.9 139.401C137.7 139.401 137.601 139.201 137.601 139.001C137.601 138.801 137.601 138.501 137.501 138.301C137.501 138.101 137.101 138.101 137.101 137.801C137.301 137.201 136.801 137.101 136.601 136.701C136.401 136.401 136.2 136.101 135.9 135.801C135.7 135.701 136 135.201 135.9 135.101C135.9 135.101 137 134.101 137.4 133.801C137.4 133.801 137.601 133.801 137.601 133.701C138.101 133.601 138.8 133.301 138.9 133.501C139 133.801 139.301 134.001 139.501 134.301L139.601 134.201Z" fill="black"/>
<path d="M168.501 134.399C168.301 134.599 168.001 134.699 167.901 134.899C167.901 134.899 167.601 134.899 167.901 135.299C168.001 135.499 167.501 135.099 167.501 135.199C167.301 135.399 167.101 135.499 166.901 135.699C166.801 135.899 166.701 136.199 166.601 136.499C166.501 136.699 166.101 136.699 166.101 137.099C166.101 137.399 165.701 137.199 165.601 137.399C165.601 137.599 165.401 137.799 165.101 137.799C164.901 137.799 164.601 137.799 164.601 137.899C164.601 137.999 164.701 138.299 164.601 138.399C164.601 138.399 164.301 138.399 164.601 138.799C164.601 138.799 164.601 138.799 164.401 138.799C164.001 138.599 164.001 138.699 164.101 138.999C164.201 139.199 164.101 139.299 164.101 139.299C164.001 139.499 163.901 139.599 163.701 139.799C163.601 139.799 163.301 139.799 163.101 139.899C162.901 139.899 163.101 140.299 162.701 140.199C162.401 140.199 162.301 140.199 162.201 140.299C162.201 140.299 161.901 140.299 162.201 140.699C161.401 140.299 162.101 141.199 161.801 141.299C161.501 141.299 161.401 141.699 161.301 141.899C161.301 141.899 161.101 141.899 161.301 142.199C161.401 142.299 161.301 142.399 161.301 142.299C160.701 142.099 160.901 142.499 160.701 142.499C160.501 142.599 160.601 142.999 160.001 142.799C159.801 142.799 159.601 142.799 160.001 143.199C160.201 143.399 160.001 143.299 160.001 143.399C160.001 143.399 160.201 143.699 160.201 143.799C160.201 143.799 159.901 143.799 159.801 143.799C160.201 144.399 159.201 144.199 159.201 144.599C159.201 144.999 158.901 145.199 158.701 145.399C158.601 145.499 158.301 145.599 157.301 145.099C156.801 144.899 156.401 144.599 156.101 144.299C155.901 144.099 155.801 143.899 155.801 143.899C155.801 143.799 155.801 143.599 155.801 143.399C155.801 143.099 155.401 142.599 155.801 142.599C155.901 142.599 155.801 142.299 156.201 142.599C155.701 141.899 156.301 141.899 156.501 141.599C156.601 141.399 156.301 140.799 156.601 140.699C156.201 140.199 156.401 140.099 156.601 140.099C157.501 140.099 157.401 139.399 157.801 138.999C158.201 138.599 158.501 138.099 158.901 137.699C158.901 137.699 158.701 137.299 159.001 137.399C159.301 137.399 159.201 137.299 159.301 137.199C159.301 137.199 159.301 136.899 159.501 136.999C160.301 137.099 160.301 136.499 160.601 136.299C160.901 135.999 161.301 135.799 161.501 135.399C161.601 135.099 161.501 134.699 161.801 134.599C161.901 134.599 161.801 134.199 162.301 134.599C162.401 134.599 162.301 134.299 162.301 134.199C162.301 133.999 162.501 133.899 162.701 133.799C162.901 133.599 163.101 133.499 163.201 133.299C163.201 133.199 163.201 132.899 163.301 132.699C163.301 132.499 163.501 132.399 163.701 132.399C163.901 132.399 164.201 132.399 164.401 132.299C164.601 132.299 164.601 131.899 164.901 131.899C165.501 132.099 165.601 131.599 166.001 131.399C166.301 131.199 166.601 130.999 166.901 130.699C167.001 130.499 167.501 130.799 167.601 130.699C167.601 130.699 168.601 131.799 168.901 132.199C168.901 132.199 168.901 132.399 169.001 132.399C169.101 132.899 169.401 133.599 169.201 133.699C168.901 133.799 168.701 134.099 168.401 134.299L168.501 134.399Z" fill="black"/>
<path d="M158.601 131.201C158.801 131.401 158.901 131.701 159.101 131.801C159.101 131.801 159.101 132.101 159.501 131.801C159.701 131.701 159.3 132.201 159.4 132.201C159.6 132.401 159.7 132.601 159.9 132.801C160.1 132.901 160.401 133.001 160.701 133.101C160.901 133.201 160.901 133.601 161.301 133.601C161.601 133.601 161.401 134.001 161.601 134.101C161.801 134.101 162.001 134.301 162.001 134.601C162.001 134.801 162.001 135.101 162.101 135.101C162.201 135.101 162.501 135.001 162.601 135.101C162.601 135.101 162.601 135.401 163.001 135.101C163.001 135.101 163.001 135.101 163.001 135.301C162.801 135.701 162.901 135.701 163.201 135.601C163.401 135.501 163.501 135.601 163.501 135.601C163.701 135.701 163.801 135.801 164.001 136.001C164.001 136.101 164.001 136.401 164.101 136.601C164.101 136.801 164.5 136.601 164.4 137.001C164.4 137.301 164.401 137.401 164.501 137.501C164.501 137.501 164.5 137.801 164.9 137.501C164.5 138.301 165.401 137.601 165.501 137.901C165.501 138.201 165.901 138.301 166.101 138.401C166.101 138.401 166.1 138.601 166.4 138.401C166.5 138.301 166.601 138.401 166.501 138.401C166.301 139.001 166.701 138.801 166.701 139.001C166.801 139.201 167.201 139.101 167.001 139.701C167.001 139.901 167 140.101 167.4 139.701C167.6 139.501 167.501 139.701 167.601 139.701C167.601 139.701 167.901 139.501 168.001 139.501C168.001 139.501 168.001 139.801 168.001 139.901C168.601 139.501 168.401 140.501 168.801 140.501C169.201 140.501 169.401 140.801 169.601 141.001C169.701 141.101 169.801 141.401 169.301 142.401C169.101 142.901 168.801 143.301 168.501 143.601C168.301 143.801 168.101 143.901 168.101 143.901C168.001 143.901 167.801 143.901 167.601 143.901C167.301 143.901 166.801 144.301 166.801 143.901C166.801 143.801 166.501 143.901 166.801 143.501C166.101 144.001 166.101 143.401 165.801 143.201C165.601 143.101 165 143.401 164.9 143.101C164.4 143.501 164.301 143.301 164.301 143.101C164.301 142.201 163.601 142.301 163.201 141.901C162.801 141.501 162.3 141.201 161.9 140.801C161.9 140.801 161.501 141.001 161.601 140.701C161.601 140.401 161.5 140.501 161.4 140.401C161.4 140.401 161.101 140.401 161.201 140.201C161.301 139.401 160.701 139.401 160.501 139.101C160.201 138.801 160.001 138.401 159.601 138.201C159.301 138.101 158.901 138.201 158.801 137.901C158.801 137.801 158.401 137.901 158.801 137.401C158.801 137.301 158.5 137.401 158.4 137.401C158.2 137.401 158.101 137.201 158.001 137.001C157.801 136.801 157.701 136.601 157.501 136.501C157.401 136.501 157.1 136.501 156.9 136.401C156.7 136.401 156.601 136.201 156.601 136.001C156.601 135.801 156.601 135.501 156.501 135.301C156.501 135.101 156.101 135.101 156.101 134.801C156.301 134.201 155.801 134.101 155.601 133.701C155.401 133.401 155.2 133.101 154.9 132.801C154.7 132.701 155 132.201 154.9 132.101C154.9 132.101 156 131.101 156.4 130.801C156.4 130.801 156.601 130.801 156.601 130.701C157.101 130.601 157.8 130.301 157.9 130.501C158 130.801 158.301 131.001 158.501 131.301L158.601 131.201Z" fill="black"/>
<path d="M125.8 167.399C125.1 167.399 124.4 167.399 123.7 167.399C123.4 167.399 123.2 167.099 122.9 167.599C122.7 167.799 122.6 167.199 122.4 167.099C121.8 167.099 121.2 166.699 120.6 166.499C120 166.299 119.3 166.199 118.7 165.999C118.1 165.699 117.8 165.099 117.1 164.899C116.5 164.799 116.5 164.099 116.1 163.799C115.6 163.499 115.2 163.099 115.1 162.499C115.1 162.099 115.1 161.699 114.7 161.399C114.5 161.199 114.1 161.199 114 160.999C114 160.799 114 160.399 113.4 160.499C113.4 160.499 113.4 160.399 113.4 160.299C113.7 159.899 113.5 159.599 113.2 159.499C112.9 159.399 112.8 159.199 112.8 158.999C112.6 158.499 112.5 157.899 112.4 157.399C112.4 156.999 112.6 156.499 112.6 156.099C112.6 155.699 112.3 155.199 112.6 154.799C112.9 154.399 112.9 153.999 113 153.599C113 153.399 113.4 153.199 112.8 152.799C112.8 152.799 112.8 152.699 112.8 152.599C113.3 152.399 113.3 151.999 113.4 151.599C113.4 151.199 113.4 150.699 113.8 150.499C114.5 149.899 115 149.299 115.6 148.799C115.8 148.699 116 148.799 115.9 148.299C115.9 148.099 116 147.999 116.2 148.099C116.9 148.399 117.2 147.799 117.8 147.699C118.4 147.599 118.9 147.099 119.6 147.499C119.9 147.599 120.2 147.699 120.5 147.099C120.6 146.799 121 147.099 121.2 146.999C121.4 146.999 121.6 146.699 121.8 146.699C122 146.699 122.1 146.899 122.3 147.099C122.3 147.099 122.4 147.099 122.5 147.099C123 146.799 123.6 146.999 124 147.299C124.4 147.599 124.8 147.899 125.3 148.099C126.3 148.399 127.1 149.199 127.6 150.099C127.9 150.599 128 151.299 127.1 151.999C126.7 152.299 126.1 152.499 125.8 152.399C125.5 152.399 125.3 152.399 125.2 152.399C125 152.299 124.8 152.199 124.7 152.199C124.4 152.099 123.8 152.199 123.8 151.899C123.8 151.799 123.5 151.899 123.8 151.499V151.399C123.4 151.599 123.2 151.599 123 151.499C122.8 151.499 122.7 151.199 122.4 151.199C122 151.199 121.7 151.799 121.3 151.599C121.2 152.199 121 152.199 120.7 151.999C119.8 151.499 119.1 152.299 118.5 152.599C117.8 152.999 117.7 153.299 117.5 153.899C117.5 153.999 117.8 154.199 117.5 154.199C117.2 154.199 117.4 154.499 117.4 154.699C117.4 154.899 117.5 154.999 117.4 155.199C116.7 155.899 117.2 156.599 117.3 157.199C117.3 157.899 117.6 158.599 118 159.099C118.3 159.399 118.8 159.599 118.9 159.999C118.9 160.199 119.3 160.099 118.9 160.599C118.9 160.699 119.3 160.599 119.3 160.599C119.5 160.799 119.7 160.999 119.9 161.199C120.2 161.499 120.4 161.699 120.8 161.899C121 161.899 121.3 161.899 121.5 161.899C121.7 161.899 121.9 162.099 122.1 162.199C122.3 162.399 122.5 162.699 122.8 162.899C123.1 163.099 123.5 162.899 123.7 163.199C124.2 163.799 124.8 163.599 125.4 163.699C126 163.699 126.6 163.699 127.2 163.499C127.5 163.399 127.9 163.799 128.3 163.699C128.4 163.699 129.2 164.999 129.3 165.499V165.699C129.1 166.299 128.9 167.099 128.3 167.199C127.5 167.299 126.8 167.499 126 167.499L125.8 167.399Z" fill="black"/>
<path d="M132.3 121.6C132.3 122.1 132.3 122.7 132.4 123.2C132.4 123.4 132.2 123.6 132.7 123.8C133 123.8 132.3 124.1 132.4 124.3C132.4 124.8 132.4 125.3 132.5 125.8C132.5 126.3 132.8 126.8 132.9 127.3C132.9 127.8 132.7 128.3 132.9 128.8C133.2 129.2 132.7 129.6 132.8 130C132.9 130.4 133 130.8 132.8 131.2C132.6 131.5 132.4 131.8 132.5 132.1C132.5 132.3 132.9 132.5 132.8 132.7C132.8 132.9 132.5 133.1 133.1 133.3C133.1 133.3 133.1 133.3 132.9 133.4C132.5 133.6 132.5 133.8 132.8 134C133.1 134.2 133 134.3 133 134.5C133 134.9 133 135.3 132.9 135.7C132.9 136 132.6 136.3 132.5 136.6C132.5 136.9 132.7 137.3 132.3 137.6C132 137.9 131.9 138.1 131.9 138.4C131.9 138.6 131.6 138.7 132.2 138.9C132.2 138.9 132.2 138.9 132.2 139C131.3 139.4 132.3 140 132.1 140.4C131.8 140.9 131.9 141.4 131.8 141.9C131.8 142 131.6 142.1 132 142.3C132.2 142.3 132.1 142.5 132 142.6C131.3 142.9 131.6 143.3 131.4 143.7C131.2 144.1 131.4 144.6 130.8 144.9C130.6 145 130.4 145.3 130.9 145.6C131.1 145.8 130.9 145.9 130.9 146.1C130.9 146.2 131.2 146.4 131.1 146.6C131.1 146.7 130.8 146.8 130.7 146.8C130.7 146.8 130.7 146.8 130.7 146.9C131.2 147.7 130.2 148 130.3 148.6C130.3 149.2 130.3 149.7 130.1 150.2C130.1 150.5 129.8 150.7 128.7 151C128.2 151.1 127.6 151.1 127.3 151C127.1 150.9 126.8 150.7 126.8 150.6C126.8 150.4 126.6 150.2 126.5 149.9C126.3 149.4 125.9 148.9 126.2 148.5C126.3 148.4 126 148.2 126.6 148.1C125.9 147.4 126.6 146.9 126.6 146.3C126.6 145.8 126.1 145.2 126.6 144.8C126 144.4 126.2 144.1 126.4 143.9C127.2 143.1 127 142.1 127.2 141.2C127.5 140.3 127.5 139.3 127.6 138.4C127.6 138.2 127.3 138.1 127.6 137.9C127.9 137.8 127.7 137.5 127.7 137.3C127.7 137.1 127.7 136.9 127.7 136.7C128.4 136 128.1 135.3 128.2 134.5C128.3 133.8 128.4 133 128.3 132.3C128.3 131.8 127.9 131.4 128 130.9C128 130.7 127.7 130.5 128.3 130.3C128.5 130.3 128 130.1 128 129.9C128 129.6 128 129.3 128 129C128 128.6 128 128.1 128 127.7C128 127.4 127.7 127.2 127.6 126.9C127.6 126.6 127.6 126.4 127.6 126.1C127.6 125.8 127.9 125.4 127.9 125.1C127.9 124.7 127.7 124.4 127.9 124C128.4 123.3 128.1 122.7 128.1 122.1C128.1 121.5 128.1 120.8 127.9 120.2C127.8 119.9 128.3 119.5 128.2 119.1C128.2 118.9 129.6 118.5 130.1 118.5H130.3C130.8 118.8 131.6 119 131.6 119.5C131.6 120.1 131.7 120.7 131.8 121.3L132.3 121.6Z" fill="black"/>
<path d="M190.1 112.201L187.1 113.501C186.7 113.701 186.2 113.501 186 114.201C185.9 114.501 185.3 114.101 185 114.201C184.1 114.701 183.1 114.901 182.1 115.301C181.2 115.701 180.3 116.201 179.4 116.501C178.5 116.801 177.4 116.801 176.6 117.401C175.9 117.901 175 117.601 174.3 117.901C173.5 118.201 172.7 118.501 171.8 118.401C171.2 118.401 170.6 118.201 170 118.401C169.7 118.501 169.4 118.901 169 119.001C168.6 119.001 168.2 118.901 168 119.501C168 119.501 167.8 119.501 167.7 119.501C167.2 119.201 166.8 119.301 166.5 119.501C166.2 119.801 165.9 119.801 165.6 119.901C164.8 120.101 164 120.201 163.1 120.301C162.5 120.301 161.8 120.201 161.2 120.201C160.5 120.201 159.9 120.601 159.3 120.301C158.7 120.101 158.1 120.101 157.5 120.201C157.2 120.201 156.8 120.001 156.5 120.601C156.5 120.601 156.4 120.601 156.3 120.601C155.3 119.901 154.4 121.001 153.4 120.901C152.4 120.801 151.4 120.901 150.4 121.001C150.1 121.001 149.8 120.801 149.6 121.301C149.6 121.501 149.2 121.501 149.1 121.301C148.3 120.701 147.6 121.101 146.8 121.001C145.9 121.001 145.1 121.201 144.2 120.701C143.8 120.501 143.3 120.401 142.9 121.001C142.7 121.301 142.3 121.001 141.9 121.001C141.6 121.001 141.4 121.301 141.1 121.301C140.9 121.301 140.7 121.101 140.4 121.001C140.4 121.001 140.3 121.001 140.2 121.001C138.9 121.701 137.7 120.801 136.4 121.001C135.1 121.201 133.8 121.001 132.5 121.001C131.8 121.001 131.1 120.701 130.6 119.601C130.4 119.101 130.4 118.501 130.7 118.201C130.9 118.001 131.2 117.701 131.4 117.701C131.8 117.601 132.2 117.501 132.6 117.401C133.4 117.201 134.2 116.701 135.1 117.001C135.4 117.001 135.7 116.801 135.9 117.301C135.9 117.301 136 117.401 136.1 117.301C137.2 116.501 138.4 117.101 139.5 117.001C140.5 117.001 141.4 116.301 142.4 116.601C142.9 116.001 143.6 116.101 144.1 116.201C145.1 116.501 146 116.501 147 116.501C148 116.501 148.9 116.301 149.9 116.301C151.8 116.301 153.8 116.101 155.7 116.001C156 116.001 156.3 115.601 156.7 115.801C157.1 116.001 157.5 115.801 158 115.801C158.4 115.801 158.8 115.601 159.2 115.801C160.8 116.301 162.2 115.701 163.8 115.601C165.3 115.401 166.8 115.301 168.3 114.801C169.2 114.501 170 114.001 170.9 114.001C171.3 114.001 171.6 113.601 172.1 114.001C172.2 114.101 172.5 113.601 172.7 113.501C173.3 113.301 173.9 113.201 174.5 113.001C175.4 112.801 176.2 112.601 177 112.301C177.5 112.101 177.9 111.701 178.4 111.501C178.9 111.301 179.4 111.101 180 111.001C180.7 110.801 181.4 110.801 182.1 110.701C182.8 110.501 183.4 110.001 184.2 110.001C185.6 110.001 186.7 109.301 187.9 108.801C189.1 108.301 190.3 107.901 191.4 107.101C192 106.701 192.8 106.801 193.5 106.501C193.8 106.301 194.9 107.401 195 107.901C195 107.901 195 108.101 195 108.201C194.6 108.901 194.3 109.901 193.6 110.201C193 110.501 192.5 110.701 191.9 111.001L190.2 111.801L190.1 112.201Z" fill="black"/>
<path d="M176.8 90.9992C176.1 90.9992 175.3 90.6992 174.7 90.5992L172.8 89.9992C172.3 89.8992 172 89.4992 171.4 89.7992C171.1 89.9992 170.9 89.1992 170.5 89.0992C169.5 88.7992 168.5 88.4992 167.6 88.5992C166.7 88.5992 165.9 88.9992 165.2 89.3992C164.5 89.7992 163.5 89.9992 163.2 90.7992C162.9 91.4992 162.2 91.5992 162 92.2992C161.8 92.8992 161.7 93.6992 161.2 94.4992C160.9 95.0992 160.5 95.6992 160.3 96.4992C160.2 96.9992 160.3 97.5992 160 98.0992C159.7 98.5992 159.1 98.9992 159.1 99.8992C159.1 99.8992 158.8 100.099 158.6 100.099C157.8 100.299 157 100.699 156.6 101.099C156.1 101.499 155.6 101.599 155.1 101.699C153.7 101.899 152.5 101.699 151.5 101.399C150.7 101.199 150.1 100.799 149.4 100.599C148.7 100.399 147.9 100.599 147.3 100.099C146.7 99.6992 146.1 99.5992 145.4 99.5992C145 99.5992 144.6 99.1992 144.3 99.8992H144.1C143.1 98.9992 142.2 100.099 141.2 100.099C140.2 100.099 139.3 100.399 138.5 100.799C138.3 100.799 138 100.799 138 101.399C138 101.599 137.8 101.699 137.7 101.699C136.8 101.499 136.5 102.299 136 102.699C135.4 103.199 135.2 103.999 134.5 104.599C134.2 104.799 133.9 105.299 134.4 105.799C134.6 105.999 134.3 106.299 134.3 106.599C134.3 106.799 134.6 107.099 134.6 107.299C134.6 107.499 134.4 107.699 134.3 107.899C134.3 107.899 134.3 107.999 134.3 108.099C134.5 108.399 134.6 108.599 134.6 108.899C134.6 109.199 134.6 109.499 134.7 109.899C134.7 110.699 134.7 111.699 134.7 112.999C134.7 113.699 134.4 114.299 134 114.899C133.6 115.499 133.1 115.999 132.6 116.299C131.5 116.999 130.3 117.299 129.1 117.199C128.4 117.199 127.7 116.899 127.2 116.499C126.7 115.999 126.4 115.399 126.6 114.699C126.8 114.099 127.3 113.799 127.7 113.799C128 113.799 128.3 113.699 128.5 113.799C128.8 113.799 129.1 113.799 129.4 113.699C129.7 113.699 129.9 113.399 130.1 113.199C130.3 112.999 130.4 112.799 130.6 112.799C130.7 112.799 130.6 112.599 131 112.699C130.7 112.399 130.6 111.999 130.6 111.499C130.6 110.999 130.5 110.199 130.3 109.399C130.1 108.099 129.5 106.599 130.1 105.299C129.6 104.399 130.1 103.499 130.6 102.799C131.5 101.699 132.3 100.599 133.2 99.4992C134.1 98.4992 135.2 97.4992 136.5 96.9992C139 95.7992 141.7 95.3992 144.3 95.5992C144.7 95.5992 145.1 95.2992 145.6 95.5992C146 95.8992 146.7 95.7992 147.2 95.7992C147.7 95.7992 148.2 95.7992 148.6 95.9992C150.3 96.8992 152.3 97.0992 153.7 97.2992C154.4 97.3992 155.1 97.2992 155.5 97.2992C156 97.0992 156.3 96.7992 156.5 96.2992C156.8 95.5992 156.7 94.6992 157.1 93.6992C157.3 93.2992 157.1 92.6992 157.8 92.2992C158 92.2992 157.8 91.5992 157.8 91.1992C158.1 90.2992 158.6 89.3992 159.2 88.6992C160 87.5992 161 86.7992 162.1 86.0992C162.8 85.6992 163.4 85.0992 164.1 84.7992C164.9 84.4992 165.8 84.2992 166.7 84.1992C167.9 84.1992 168.9 84.4992 169.8 84.6992C170.8 84.9992 171.8 84.9992 172.6 85.4992C174 86.4992 175.5 86.7992 176.7 87.1992C177.9 87.4992 179.3 87.4992 180.3 87.0992C180.8 86.8992 181.5 87.0992 181.9 86.5992C181.9 86.5992 182.4 86.5992 182.8 86.6992C183.2 86.7992 183.7 86.9992 183.9 87.1992C183.9 87.1992 184 87.3992 183.9 87.4992C183.9 87.9992 183.7 88.5992 183.4 89.1992C183.1 89.6992 182.7 90.1992 182.1 90.4992C180.3 91.1992 178.6 91.2992 176.9 91.1992L176.8 90.9992Z" fill="black"/>
<path d="M189.901 96.0006C189.701 96.0006 189.501 96.2006 189.401 96.3006C189.401 96.3006 189.101 96.2006 189.401 96.7006C189.401 97.0006 189.101 96.4006 189.101 96.5006C189.001 96.7006 188.701 96.7006 188.601 96.8006C188.501 96.9006 188.401 97.2006 188.201 97.4006C188.101 97.5006 187.801 97.4006 187.701 97.7006C187.701 98.0006 187.301 97.7006 187.201 97.8006C187.201 98.0006 187.001 98.1006 186.701 98.0006C186.501 97.9006 186.301 97.7006 186.301 97.9006V98.3006C186.301 98.3006 186.001 98.1006 186.301 98.7006C186.301 98.7006 186.301 98.7006 186.201 98.6006C186.001 98.3006 185.901 98.3006 185.901 98.6006C185.901 98.9006 185.901 98.9006 185.901 98.9006C185.801 98.9006 185.601 99.1006 185.501 99.1006C185.401 99.1006 185.201 98.9006 185.001 98.9006C184.901 98.9006 184.901 99.2006 184.601 98.9006C184.401 98.7006 184.301 98.7006 184.201 98.8006C184.201 98.8006 184.001 98.6006 184.201 99.2006C183.701 98.5006 184.001 99.6006 183.701 99.5006C183.401 99.4006 183.301 99.5006 183.101 99.7006C183.101 99.7006 182.901 99.6006 183.101 100.001C183.101 100.201 183.101 100.201 183.101 100.001C182.701 99.5006 182.701 99.9006 182.601 99.8006C182.401 99.8006 182.301 100.101 182.001 99.7006C181.901 99.5006 181.701 99.5006 181.901 100.001C181.901 100.301 181.801 100.001 181.701 100.101C181.701 100.101 181.701 100.401 181.701 100.501C181.701 100.501 181.501 100.301 181.501 100.201C181.501 100.901 181.001 100.201 180.801 100.401C180.601 100.701 180.401 100.701 180.101 100.701C180.001 100.701 179.801 100.601 179.301 99.5006C179.101 99.0006 178.901 98.5006 178.801 98.2006C178.801 98.0006 178.801 97.7006 178.801 97.7006C178.801 97.6006 178.801 97.4006 178.801 97.3006C178.801 97.1006 178.801 96.5006 179.101 96.7006C179.101 96.7006 179.101 96.5006 179.301 96.9006C179.301 96.1006 179.601 96.5006 179.801 96.4006C180.001 96.3006 179.801 95.6006 180.201 95.8006C180.101 95.2006 180.201 95.2006 180.401 95.4006C181.001 95.9006 181.201 95.4006 181.501 95.3006C181.901 95.3006 182.201 95.0006 182.501 94.9006C182.501 94.9006 182.501 94.5006 182.601 94.8006C182.801 95.0006 182.801 94.8006 182.801 94.8006C182.801 94.8006 182.801 94.6006 183.001 94.8006C183.501 95.3006 183.601 94.8006 183.901 94.8006C184.201 94.8006 184.501 94.7006 184.701 94.4006C184.801 94.2006 184.801 93.8006 185.001 93.9006C185.001 93.9006 185.001 93.6006 185.301 94.1006C185.301 94.2006 185.301 93.8006 185.301 93.8006C185.301 93.8006 185.501 93.7006 185.601 93.6006C185.801 93.6006 185.901 93.5006 186.001 93.4006C186.001 93.4006 186.001 93.1006 186.101 93.0006C186.101 92.9006 186.301 92.8006 186.401 92.9006C186.601 92.9006 186.801 93.0006 186.901 93.0006C187.101 93.0006 187.101 92.7006 187.301 92.9006C187.801 93.2006 187.901 92.9006 188.101 92.9006C188.301 92.9006 188.601 92.8006 188.701 92.5006C188.701 92.4006 189.101 92.8006 189.301 92.7006C189.301 92.7006 190.101 93.9006 190.401 94.4006V94.6006C190.501 95.1006 190.701 95.8006 190.601 95.8006C190.401 95.8006 190.201 96.0006 190.001 96.1006L189.901 96.0006Z" fill="black"/>
</svg>
