<svg width="300" height="300" viewBox="0 0 300 300" fill="none" xmlns="http://www.w3.org/2000/svg">
<path d="M176.6 132.902C174.9 131.102 173.2 129.202 171.5 127.402C170.8 126.702 170.4 125.902 169.3 125.502C168.8 125.302 168.6 124.202 168 123.602C166.4 121.902 164.8 120.202 163.2 118.502C161.6 116.902 160 115.702 158.4 115.202C156.8 114.602 154.7 114.102 152.5 114.402C150.7 114.602 149 114.102 147.3 114.302C145.4 114.502 143.5 114.702 141.7 114.602C140.4 114.602 139 114.502 137.7 114.802C136.9 115.002 136.2 115.402 135.3 115.502C134.5 115.602 133.5 115.502 132.9 116.302C132.9 116.302 132.5 116.302 132.3 116.302C131.3 116.102 130.3 116.302 129.6 116.802C129 117.202 128.3 117.402 127.7 117.502C125.9 118.002 124.1 118.502 122.5 119.102C121.3 119.502 120.1 119.902 119.1 120.502C118 121.202 117.5 122.302 116.7 123.102C115.9 123.902 115.5 125.002 115.2 126.202C115 126.902 114.6 127.602 115.2 128.302C115.2 128.302 115.2 128.602 115.2 128.702C114.1 130.702 115.2 132.902 115 135.002C114.8 137.302 115 139.602 115 141.902C115 142.502 114.9 143.202 115.4 143.702C115.6 143.902 115.6 144.502 115.5 144.802C115 146.502 115.5 148.302 115.5 150.102C115.5 152.102 116.1 154.102 115.8 156.102C115.7 157.002 115.8 158.102 116.4 159.102C116.7 159.502 116.6 160.502 116.8 161.302C116.9 161.902 117.3 162.402 117.4 163.002C117.4 163.502 117.4 164.002 117.3 164.602C117.3 164.802 117.3 164.902 117.3 165.102C118.4 167.902 118 170.902 118.7 173.802C119.4 176.702 119.9 179.702 120.3 182.602C120.6 184.202 120.7 185.902 119.8 187.302C119.4 187.902 118.8 188.002 118.4 187.302C118.1 186.802 117.7 186.302 117.6 185.702C117.3 184.802 117 183.902 116.8 183.002C116.3 181.202 115.4 179.402 115.3 177.402C115.3 176.802 114.9 176.102 115.3 175.502C115.3 175.502 115.3 175.202 115.3 175.002C114.1 172.502 114.1 169.702 113.6 167.102C113.2 164.802 112.2 162.702 112.2 160.402C111.4 159.202 111.3 157.702 111.4 156.402C111.5 151.802 110.7 147.302 110.6 142.702C110.6 140.402 110.5 138.002 110.5 135.702C110.5 133.402 110.5 131.002 110.8 128.602C110.8 127.802 110.6 127.002 111.1 126.002C111.5 125.102 111.7 123.902 112.1 122.802C112.5 121.802 112.9 120.702 113.6 120.002C116.6 116.802 120.3 114.902 123.8 113.802C127.3 112.802 130.9 112.002 134.5 111.302C136.7 110.802 138.8 110.202 141.1 110.102C142.1 110.102 143 109.602 144 110.102C144.3 110.302 145.1 109.802 145.8 109.702C147.3 109.602 148.9 109.602 150.4 109.602C152.5 109.602 154.6 109.602 157 110.002C158.4 110.202 159.9 110.302 161.4 111.002C162.9 111.702 164.2 112.802 165.2 113.802C166.5 115.202 167.4 116.502 168.5 117.802C169.6 119.102 171.1 120.302 172 121.702C173.7 124.302 176.1 126.402 178.1 128.702C180.2 131.002 182.2 133.302 184.4 135.502C185.6 136.702 186.4 138.202 187.5 139.502C188 140.102 187.7 141.902 187.1 142.002C187 142.002 186.8 142.002 186.7 142.002C185.2 141.102 183.6 140.502 182.4 139.002C180.5 136.902 178.5 134.802 176.6 132.802V132.902Z" fill="black"/>
<path d="M166.101 147.302C166.501 147.102 166.801 147.002 167.201 146.702C167.301 146.702 167.601 146.702 167.501 146.202C167.501 145.902 167.901 146.402 168.001 146.402C168.301 146.202 168.701 146.102 169.001 145.902C169.301 145.702 169.501 145.302 169.801 145.102C170.101 144.902 170.601 145.102 170.801 144.602C171.001 144.202 171.401 144.602 171.601 144.302C171.801 144.102 172.101 143.902 172.501 144.002C172.801 144.002 173.101 144.202 173.201 144.002C173.201 143.902 173.201 143.502 173.401 143.502C173.501 143.502 173.801 143.702 173.701 143.002C173.701 143.002 173.701 143.002 173.901 143.002C174.201 143.302 174.401 143.202 174.401 143.002C174.401 142.702 174.501 142.702 174.601 142.602C174.901 142.502 175.201 142.302 175.501 142.302C175.701 142.302 176.001 142.302 176.301 142.302C176.501 142.302 176.701 141.902 177.001 142.102C177.301 142.302 177.501 142.202 177.701 142.102C177.801 142.102 178.101 142.302 177.901 141.602C178.501 142.302 178.501 141.102 178.901 141.202C179.301 141.202 179.601 141.002 180.001 140.902C180.001 140.902 180.301 141.002 180.201 140.502C180.201 140.302 180.201 140.302 180.401 140.402C180.901 140.902 181.001 140.402 181.301 140.402C181.601 140.402 181.901 140.002 182.301 140.402C182.501 140.602 182.701 140.602 182.701 140.002C182.701 139.702 182.901 140.002 183.001 139.802C183.001 139.802 183.001 139.402 183.201 139.402C183.201 139.402 183.401 139.602 183.501 139.702C183.801 138.902 184.501 139.702 184.901 139.302C185.301 139.002 185.801 138.902 186.301 138.902C186.601 138.902 186.901 138.902 187.401 140.002C187.601 140.502 187.801 141.002 187.701 141.402C187.701 141.702 187.701 141.902 187.601 142.002C187.501 142.102 187.401 142.302 187.301 142.402C187.101 142.702 186.901 143.302 186.601 143.102C186.501 143.102 186.501 143.402 186.201 142.902C186.001 143.802 185.501 143.402 185.101 143.602C184.801 143.802 184.601 144.502 184.201 144.302C184.201 145.002 184.001 144.902 183.701 144.802C182.801 144.402 182.301 145.002 181.601 145.202C180.901 145.302 180.301 145.702 179.601 145.902C179.501 145.902 179.601 146.302 179.301 146.102C179.101 145.902 179.001 146.102 178.801 146.202C178.701 146.202 178.601 146.402 178.401 146.302C177.601 145.902 177.301 146.502 176.701 146.602C176.201 146.702 175.601 146.902 175.201 147.302C174.901 147.502 174.801 148.002 174.401 148.002C174.201 148.002 174.201 148.402 173.901 147.902C173.801 147.802 173.901 148.202 173.801 148.302C173.601 148.402 173.401 148.502 173.201 148.602C172.901 148.702 172.601 148.802 172.301 149.002C172.101 149.102 172.101 149.402 171.901 149.602C171.701 149.702 171.601 149.802 171.301 149.902C171.001 149.902 170.701 149.902 170.401 149.902C170.101 149.902 170.001 150.302 169.601 150.202C168.901 150.002 168.601 150.402 168.201 150.602C167.701 150.802 167.301 150.902 166.901 151.302C166.701 151.502 166.201 151.202 166.001 151.302C165.901 151.302 165.101 150.102 164.901 149.702V149.502C164.901 149.002 164.801 148.202 165.101 148.102C165.501 148.002 165.901 147.702 166.301 147.502L166.101 147.302Z" fill="black"/>
<path d="M168.6 166.202C168.6 165.902 168.5 165.502 168.3 165.202C168.3 165.102 168.5 164.902 167.9 164.902C167.6 164.902 168.2 164.602 168.2 164.502C168.1 164.202 168.1 163.902 167.9 163.602C167.8 163.302 167.5 163.102 167.3 162.802C167.2 162.502 167.3 162.102 167 161.902C166.7 161.702 167.1 161.402 167 161.202C166.8 161.002 166.7 160.702 166.8 160.402C166.9 160.202 167.1 160.002 166.9 159.802C166.9 159.802 166.5 159.702 166.5 159.602C166.5 159.502 166.7 159.302 166.1 159.302C166.1 159.302 166.1 159.302 166.2 159.202C166.6 159.002 166.5 158.802 166.2 158.802C165.9 158.802 165.9 158.702 165.9 158.602C165.9 158.402 165.7 158.102 165.7 157.902C165.7 157.702 165.9 157.502 165.9 157.302C165.9 157.102 165.6 157.002 165.9 156.702C166.2 156.402 166.1 156.302 166 156.102C166 156.102 166.2 155.802 165.6 155.902C166.3 155.402 165.2 155.402 165.3 155.102C165.4 154.802 165.3 154.502 165.1 154.202C165.1 154.202 165.2 154.002 164.8 154.002C164.6 154.002 164.6 154.002 164.7 153.902C165.2 153.502 164.8 153.402 164.9 153.102C164.9 152.802 164.6 152.602 164.9 152.202C165.1 152.002 165.1 151.902 164.5 151.902C164.2 151.902 164.5 151.702 164.4 151.602C164.4 151.602 164 151.602 164 151.502C164 151.502 164.2 151.302 164.3 151.202C163.6 151.002 164.3 150.402 164 150.102C163.7 149.802 163.7 149.402 163.6 149.002C163.6 148.802 163.6 148.502 164.7 148.002C165.2 147.802 165.7 147.602 166 147.602C166.2 147.602 166.5 147.602 166.6 147.602C166.7 147.602 166.9 147.802 167 147.902C167.3 148.102 167.9 148.202 167.7 148.502C167.7 148.602 168 148.602 167.5 148.802C168.4 148.902 168 149.402 168.1 149.802C168.2 150.102 168.9 150.202 168.7 150.602C169.4 150.602 169.3 150.802 169.2 151.002C168.7 151.802 169.3 152.202 169.4 152.902C169.4 153.502 169.7 154.102 169.8 154.702C169.8 154.802 170.2 154.802 170 155.002C169.8 155.202 170 155.302 170 155.402C170 155.502 170.2 155.602 170 155.802C169.5 156.402 170 156.802 170 157.302C170 157.802 170 158.302 170.4 158.702C170.6 159.002 171 159.202 170.9 159.502C170.9 159.602 171.2 159.702 170.7 159.902C170.5 159.902 171 159.902 171.1 160.102C171.1 160.302 171.2 160.502 171.3 160.702C171.3 161.002 171.3 161.302 171.5 161.502C171.5 161.702 171.9 161.802 172 161.902C172.1 162.102 172.1 162.202 172.1 162.402C172.1 162.602 171.9 162.902 171.9 163.102C171.9 163.302 172.2 163.502 172 163.802C171.6 164.302 172 164.702 172 165.102C172 165.502 172.1 165.902 172.3 166.302C172.4 166.502 172 166.802 172.1 167.102C172.1 167.102 170.7 167.702 170.2 167.802H170C169.5 167.802 168.7 167.802 168.7 167.402C168.7 167.002 168.5 166.702 168.4 166.302L168.6 166.202Z" fill="black"/>
<path d="M162.2 186.203C162.3 185.803 162.5 185.403 162.5 185.003C162.5 184.803 162.8 184.803 162.4 184.503C162.2 184.303 162.8 184.403 162.8 184.203C162.8 183.803 163.1 183.503 163.1 183.103C163.1 182.703 163.1 182.303 163.1 181.903C163.1 181.503 163.6 181.303 163.4 180.803C163.2 180.403 163.8 180.303 163.8 180.003C163.8 179.703 163.8 179.303 164.1 179.103C164.3 178.903 164.6 178.803 164.6 178.603C164.6 178.403 164.3 178.203 164.4 178.103C164.4 178.003 164.8 177.903 164.2 177.603C164.2 177.603 164.2 177.603 164.4 177.603C164.8 177.603 164.9 177.403 164.6 177.203C164.4 177.003 164.5 176.903 164.5 176.803C164.5 176.503 164.6 176.203 164.8 175.903C164.9 175.703 165.2 175.603 165.4 175.403C165.5 175.203 165.4 174.903 165.7 174.703C166.1 174.603 166.1 174.403 166.2 174.203C166.2 174.103 166.6 174.003 166 173.703C166.9 173.703 166 173.003 166.3 172.703C166.6 172.403 166.6 172.003 166.7 171.703C166.7 171.703 166.9 171.603 166.5 171.303C166.4 171.303 166.4 171.103 166.5 171.103C167.2 171.103 166.9 170.603 167.1 170.403C167.3 170.103 167.1 169.703 167.7 169.603C167.9 169.603 168.1 169.403 167.6 169.103C167.4 168.903 167.6 168.903 167.6 168.803C167.6 168.703 167.3 168.503 167.4 168.403C167.4 168.403 167.7 168.403 167.8 168.303C167.3 167.703 168.3 167.503 168.2 167.003C168.2 166.703 168.2 166.603 168.2 166.303C168.2 166.003 168.4 165.703 168.6 165.303C168.8 164.903 169.3 164.503 170.4 165.103C170.9 165.303 171.3 165.703 171.5 166.003C171.6 166.203 171.8 166.403 171.8 166.503C171.8 166.603 171.9 166.803 172 166.903C172.1 167.103 172.6 167.403 172.2 167.703C172.1 167.703 172.3 168.003 171.8 167.903C172.5 168.503 171.8 168.903 171.8 169.303C171.8 169.703 172.2 170.203 171.8 170.503C172.3 170.903 172.2 171.103 171.9 171.203C171 171.703 171.2 172.503 170.9 173.203C170.6 173.903 170.4 174.603 170.1 175.303C170.1 175.403 170.4 175.603 170.1 175.703C169.8 175.703 169.9 176.003 169.9 176.103C169.9 176.203 169.9 176.403 169.7 176.503C168.9 176.803 169.1 177.503 168.8 178.003C168.5 178.503 168.3 179.003 168.3 179.603C168.3 180.003 168.5 180.403 168.3 180.703C168.2 180.803 168.5 181.103 167.9 181.003C167.7 181.003 168.1 181.303 168.1 181.403C168.1 181.603 168 181.903 167.9 182.103C167.8 182.403 167.6 182.703 167.6 183.103C167.6 183.303 167.7 183.603 167.7 183.803C167.7 184.003 167.7 184.203 167.5 184.403C167.3 184.603 167.1 184.803 166.9 185.103C166.8 185.303 166.9 185.703 166.6 185.903C166 186.203 166.1 186.803 165.9 187.203C165.7 187.603 165.5 188.103 165.5 188.603C165.5 188.903 165 189.003 164.9 189.203C164.9 189.303 163.4 189.203 162.9 189.003H162.7C162.3 188.603 161.7 188.203 161.8 187.903C162 187.403 162.1 187.003 162.2 186.503V186.203Z" fill="black"/>
<path d="M149.501 137.402C149.301 137.602 149.001 137.702 148.901 137.902C148.901 137.902 148.601 137.902 148.901 138.302C149.001 138.502 148.501 138.102 148.501 138.202C148.301 138.402 148.101 138.502 147.901 138.702C147.801 138.902 147.701 139.202 147.601 139.402C147.501 139.602 147.101 139.602 147.101 140.002C147.101 140.302 146.701 140.102 146.601 140.302C146.601 140.502 146.401 140.702 146.101 140.702C145.901 140.702 145.601 140.702 145.601 140.802C145.601 140.902 145.701 141.202 145.601 141.302C145.601 141.302 145.301 141.302 145.601 141.702C145.601 141.702 145.601 141.702 145.401 141.702C145.001 141.502 145.001 141.602 145.101 141.902C145.201 142.102 145.101 142.202 145.101 142.202C145.001 142.402 144.901 142.502 144.701 142.702C144.601 142.702 144.301 142.702 144.101 142.802C143.901 142.802 144.101 143.202 143.701 143.102C143.401 143.102 143.301 143.102 143.201 143.202C143.201 143.202 142.901 143.202 143.201 143.602C142.401 143.202 143.101 144.102 142.801 144.202C142.501 144.202 142.401 144.602 142.301 144.802C142.301 144.802 142.101 144.802 142.301 145.102C142.401 145.202 142.301 145.302 142.301 145.202C141.701 145.002 141.901 145.402 141.701 145.402C141.501 145.502 141.601 145.902 141.001 145.702C140.801 145.702 140.601 145.702 141.001 146.102C141.201 146.302 141.001 146.202 141.001 146.302C141.001 146.302 141.201 146.602 141.201 146.702C141.201 146.702 140.901 146.702 140.801 146.702C141.201 147.302 140.201 147.102 140.201 147.502C140.201 147.902 139.901 148.102 139.701 148.302C139.601 148.402 139.301 148.502 138.301 148.002C137.801 147.802 137.401 147.502 137.101 147.202C136.901 147.002 136.801 146.802 136.801 146.802C136.801 146.702 136.801 146.502 136.801 146.302C136.801 146.002 136.401 145.502 136.801 145.502C136.901 145.502 136.801 145.202 137.201 145.502C136.701 144.802 137.301 144.802 137.501 144.502C137.601 144.302 137.301 143.702 137.601 143.602C137.201 143.102 137.401 143.002 137.601 143.002C138.501 143.002 138.401 142.302 138.801 141.902C139.201 141.502 139.501 141.002 139.901 140.602C139.901 140.602 139.701 140.202 140.001 140.302C140.301 140.302 140.201 140.202 140.301 140.102C140.301 140.102 140.301 139.802 140.501 139.902C141.301 140.002 141.301 139.402 141.601 139.202C141.901 138.902 142.301 138.702 142.501 138.302C142.601 138.002 142.501 137.602 142.801 137.502C142.901 137.502 142.801 137.102 143.301 137.502C143.401 137.502 143.301 137.202 143.301 137.102C143.301 136.902 143.501 136.802 143.701 136.702C143.901 136.502 144.101 136.402 144.201 136.202C144.201 136.102 144.201 135.802 144.301 135.602C144.301 135.402 144.501 135.302 144.701 135.302C144.901 135.302 145.201 135.302 145.401 135.202C145.601 135.202 145.601 134.802 145.901 134.802C146.501 135.002 146.601 134.502 147.001 134.302C147.301 134.102 147.601 133.902 147.901 133.602C148.001 133.402 148.501 133.702 148.601 133.602C148.601 133.602 149.601 134.702 149.901 135.102C149.901 135.102 149.901 135.302 150.001 135.302C150.101 135.802 150.401 136.502 150.201 136.602C149.901 136.702 149.701 137.002 149.401 137.202L149.501 137.402Z" fill="black"/>
<path d="M139.601 134.201C139.801 134.401 139.901 134.701 140.101 134.801C140.101 134.801 140.101 135.101 140.501 134.801C140.701 134.701 140.3 135.201 140.4 135.201C140.6 135.401 140.7 135.601 140.9 135.801C141.1 135.901 141.401 136.001 141.701 136.101C141.901 136.201 141.901 136.601 142.301 136.601C142.601 136.601 142.401 137.001 142.601 137.101C142.801 137.101 143.001 137.301 143.001 137.601C143.001 137.801 143.001 138.101 143.101 138.101C143.201 138.101 143.501 138.001 143.601 138.101C143.601 138.101 143.601 138.401 144.001 138.101C144.001 138.101 144.001 138.101 144.001 138.301C143.801 138.701 143.901 138.701 144.201 138.601C144.401 138.501 144.501 138.601 144.501 138.601C144.701 138.701 144.801 138.801 145.001 139.001C145.001 139.101 145.001 139.401 145.101 139.601C145.101 139.801 145.5 139.601 145.4 140.001C145.4 140.301 145.401 140.401 145.501 140.501C145.501 140.501 145.5 140.801 145.9 140.501C145.5 141.301 146.401 140.601 146.501 140.901C146.501 141.201 146.901 141.301 147.101 141.401C147.101 141.401 147.1 141.601 147.4 141.401C147.5 141.301 147.601 141.401 147.501 141.401C147.301 142.001 147.701 141.801 147.701 142.001C147.801 142.201 148.201 142.101 148.001 142.701C148.001 142.901 148 143.101 148.4 142.701C148.6 142.501 148.501 142.701 148.601 142.701C148.601 142.701 148.901 142.501 149.001 142.501C149.001 142.501 149.001 142.801 149.001 142.901C149.601 142.501 149.401 143.501 149.801 143.501C150.201 143.501 150.401 143.801 150.601 144.001C150.701 144.101 150.801 144.401 150.301 145.401C150.101 145.901 149.801 146.301 149.501 146.601C149.301 146.801 149.101 146.901 149.101 146.901C149.001 146.901 148.801 146.901 148.601 146.901C148.301 146.901 147.801 147.301 147.801 146.901C147.801 146.801 147.501 146.901 147.801 146.501C147.101 147.001 147.101 146.401 146.801 146.201C146.601 146.101 146 146.401 145.9 146.101C145.4 146.501 145.301 146.301 145.301 146.101C145.301 145.201 144.601 145.301 144.201 144.901C143.801 144.501 143.3 144.201 142.9 143.801C142.9 143.801 142.501 144.001 142.601 143.701C142.601 143.401 142.5 143.501 142.4 143.401C142.4 143.401 142.101 143.401 142.201 143.201C142.301 142.401 141.701 142.401 141.501 142.101C141.201 141.801 141.001 141.401 140.601 141.201C140.301 141.101 139.901 141.201 139.801 140.901C139.801 140.801 139.401 140.901 139.801 140.401C139.801 140.301 139.5 140.401 139.4 140.401C139.2 140.401 139.101 140.201 139.001 140.001C138.801 139.801 138.701 139.601 138.501 139.501C138.401 139.501 138.1 139.501 137.9 139.401C137.7 139.401 137.601 139.201 137.601 139.001C137.601 138.801 137.601 138.501 137.501 138.301C137.501 138.101 137.101 138.101 137.101 137.801C137.301 137.201 136.801 137.101 136.601 136.701C136.401 136.401 136.2 136.101 135.9 135.801C135.7 135.701 136 135.201 135.9 135.101C135.9 135.101 137 134.101 137.4 133.801C137.4 133.801 137.601 133.801 137.601 133.701C138.101 133.601 138.8 133.301 138.9 133.501C139 133.801 139.301 134.001 139.501 134.301L139.601 134.201Z" fill="black"/>
<path d="M168.501 134.402C168.301 134.602 168.001 134.702 167.901 134.902C167.901 134.902 167.601 134.902 167.901 135.302C168.001 135.502 167.501 135.102 167.501 135.202C167.301 135.402 167.101 135.502 166.901 135.702C166.801 135.902 166.701 136.202 166.601 136.402C166.501 136.602 166.101 136.602 166.101 137.002C166.101 137.302 165.701 137.102 165.601 137.302C165.601 137.502 165.401 137.702 165.101 137.702C164.901 137.702 164.601 137.702 164.601 137.802C164.601 137.902 164.701 138.202 164.601 138.302C164.601 138.302 164.301 138.302 164.601 138.702C164.601 138.702 164.601 138.702 164.401 138.702C164.001 138.502 164.001 138.602 164.101 138.902C164.201 139.102 164.101 139.202 164.101 139.202C164.001 139.402 163.901 139.502 163.701 139.702C163.601 139.702 163.301 139.702 163.101 139.802C162.901 139.802 163.101 140.202 162.701 140.102C162.401 140.102 162.301 140.102 162.201 140.202C162.201 140.202 161.901 140.202 162.201 140.602C161.401 140.202 162.101 141.102 161.801 141.202C161.501 141.202 161.401 141.602 161.301 141.802C161.301 141.802 161.101 141.802 161.301 142.102C161.401 142.202 161.301 142.302 161.301 142.202C160.701 142.002 160.901 142.402 160.701 142.402C160.501 142.502 160.601 142.902 160.001 142.702C159.801 142.702 159.601 142.702 160.001 143.102C160.201 143.302 160.001 143.202 160.001 143.302C160.001 143.302 160.201 143.602 160.201 143.702C160.201 143.702 159.901 143.702 159.801 143.702C160.201 144.302 159.201 144.102 159.201 144.502C159.201 144.902 158.901 145.102 158.701 145.302C158.601 145.402 158.301 145.502 157.301 145.002C156.801 144.802 156.401 144.502 156.101 144.202C155.901 144.002 155.801 143.802 155.801 143.802C155.801 143.702 155.801 143.502 155.801 143.302C155.801 143.002 155.401 142.502 155.801 142.502C155.901 142.502 155.801 142.202 156.201 142.502C155.701 141.802 156.301 141.802 156.501 141.502C156.601 141.302 156.301 140.702 156.601 140.602C156.201 140.102 156.401 140.002 156.601 140.002C157.501 140.002 157.401 139.302 157.801 138.902C158.201 138.502 158.501 138.002 158.901 137.602C158.901 137.602 158.701 137.202 159.001 137.302C159.301 137.302 159.201 137.202 159.301 137.102C159.301 137.102 159.301 136.802 159.501 136.902C160.301 137.002 160.301 136.402 160.601 136.202C160.901 135.902 161.301 135.702 161.501 135.302C161.601 135.002 161.501 134.602 161.801 134.502C161.901 134.502 161.801 134.102 162.301 134.502C162.401 134.502 162.301 134.202 162.301 134.102C162.301 133.902 162.501 133.802 162.701 133.702C162.901 133.502 163.101 133.402 163.201 133.202C163.201 133.102 163.201 132.802 163.301 132.602C163.301 132.402 163.501 132.302 163.701 132.302C163.901 132.302 164.201 132.302 164.401 132.202C164.601 132.202 164.601 131.802 164.901 131.802C165.501 132.002 165.601 131.502 166.001 131.302C166.301 131.102 166.601 130.902 166.901 130.602C167.001 130.402 167.501 130.702 167.601 130.602C167.601 130.602 168.601 131.702 168.901 132.102C168.901 132.102 168.901 132.302 169.001 132.302C169.101 132.802 169.401 133.502 169.201 133.602C168.901 133.702 168.701 134.002 168.401 134.202L168.501 134.402Z" fill="black"/>
<path d="M158.601 131.201C158.801 131.401 158.901 131.701 159.101 131.801C159.101 131.801 159.101 132.101 159.501 131.801C159.701 131.701 159.301 132.201 159.401 132.201C159.601 132.401 159.701 132.601 159.901 132.801C160.101 132.901 160.401 133.001 160.601 133.101C160.801 133.201 160.801 133.601 161.201 133.601C161.501 133.601 161.301 134.001 161.501 134.101C161.701 134.101 161.901 134.301 161.901 134.601C161.901 134.801 161.901 135.101 162.001 135.101C162.101 135.101 162.401 135.001 162.501 135.101C162.501 135.101 162.501 135.401 162.901 135.101C162.901 135.101 162.901 135.101 162.901 135.301C162.701 135.701 162.801 135.701 163.101 135.601C163.301 135.501 163.401 135.601 163.401 135.601C163.601 135.701 163.701 135.801 163.901 136.001C163.901 136.101 163.901 136.401 164.001 136.601C164.001 136.801 164.401 136.601 164.301 137.001C164.301 137.301 164.301 137.401 164.401 137.501C164.401 137.501 164.401 137.801 164.801 137.501C164.401 138.301 165.301 137.601 165.401 137.901C165.401 138.201 165.801 138.301 166.001 138.401C166.001 138.401 166.001 138.601 166.301 138.401C166.401 138.301 166.501 138.401 166.401 138.401C166.201 139.001 166.601 138.801 166.601 139.001C166.701 139.201 167.101 139.101 166.901 139.701C166.901 139.901 166.901 140.101 167.301 139.701C167.501 139.501 167.401 139.701 167.501 139.701C167.501 139.701 167.801 139.501 167.901 139.501C167.901 139.501 167.901 139.801 167.901 139.901C168.501 139.501 168.301 140.501 168.701 140.501C169.101 140.501 169.301 140.801 169.501 141.001C169.601 141.101 169.701 141.401 169.201 142.401C169.001 142.901 168.701 143.301 168.401 143.601C168.201 143.801 168.001 143.901 168.001 143.901C167.901 143.901 167.701 143.901 167.501 143.901C167.201 143.901 166.701 144.301 166.701 143.901C166.701 143.801 166.401 143.901 166.701 143.501C166.001 144.001 166.001 143.401 165.701 143.201C165.501 143.101 164.901 143.401 164.801 143.101C164.301 143.501 164.201 143.301 164.201 143.101C164.201 142.201 163.501 142.301 163.101 141.901C162.701 141.501 162.201 141.201 161.801 140.801C161.801 140.801 161.401 141.001 161.501 140.701C161.501 140.401 161.401 140.501 161.301 140.401C161.301 140.401 161.001 140.401 161.101 140.201C161.201 139.401 160.601 139.401 160.401 139.101C160.101 138.801 159.901 138.401 159.501 138.201C159.201 138.101 158.801 138.201 158.701 137.901C158.701 137.801 158.301 137.901 158.701 137.401C158.701 137.301 158.401 137.401 158.301 137.401C158.101 137.401 158.001 137.201 157.901 137.001C157.701 136.801 157.601 136.601 157.401 136.501C157.301 136.501 157.001 136.501 156.801 136.401C156.601 136.401 156.501 136.201 156.501 136.001C156.501 135.801 156.501 135.501 156.401 135.301C156.401 135.101 156.001 135.101 156.001 134.801C156.201 134.201 155.701 134.101 155.501 133.701C155.301 133.401 155.101 133.101 154.801 132.801C154.601 132.701 154.901 132.201 154.801 132.101C154.801 132.101 155.901 131.101 156.301 130.801C156.301 130.801 156.501 130.801 156.501 130.701C157.001 130.601 157.701 130.301 157.801 130.501C157.901 130.801 158.201 131.001 158.401 131.301L158.601 131.201Z" fill="black"/>
<path d="M156.9 168.3C156.5 168.7 156 169 155.5 169.3C155.3 169.3 155.1 169.3 154.9 169.8C154.9 170.1 154.5 169.5 154.4 169.5C153.9 169.5 153.4 169.3 152.9 169.1C152.5 168.9 151.9 168.8 151.4 168.4C151.2 168.2 151 167.9 150.8 167.7C150.8 167.6 150.6 167.5 150.5 167.4C150.5 167.4 150.4 167.3 150.3 167.3C150.3 167.3 150.3 167.3 150.2 167.3C149.8 167.3 150.2 166.8 150 166.8C150.1 166.7 150.1 166.6 150.2 166.6C150.2 166.6 150.2 166.5 150.3 166.4L150.5 166.1C150.5 166.1 150.5 165.9 150.5 166C150.5 166 150.5 166.1 150.5 166.3C150.5 166.4 150.5 166.5 150.5 166.6C150.5 166.6 150.5 166.7 150.5 166.8C150.5 166.8 150.2 167 150.2 167.3C150.2 167.3 150 167.3 149.9 167.3C149.4 167 149.2 167 149 167.3C148.8 167.6 148.6 167.5 148.4 167.5C148.1 167.5 147.9 167.5 147.7 167.5C147.5 167.5 147.3 167.4 147.1 167.3C146.8 167.2 146.7 166.9 146.5 166.7C146.3 166.6 146 166.7 145.9 166.4C145.9 166 145.6 166 145.5 165.9C145.5 165.9 145.4 165.6 145.1 166.1C145.1 165.2 144.5 166.1 144.5 166C144.5 166 144.5 166 144.5 165.9C144.5 165.9 144.5 165.7 144.5 165.4C144.5 165.1 144.5 165 144.5 164.9C144.5 164.9 144.5 164.8 144.5 164.7C144.5 164.7 144.5 164.7 144.6 164.7L145.8 165.4C145.7 165.5 145.6 165.6 145.5 165.7C145.3 165.9 145.1 166.1 144.8 166.2C144.3 166.5 143.8 166.8 143.3 166.7C142.4 166.7 141.8 166.7 141.5 166.1C141.5 165.8 141.3 165.7 140.8 166.1C140.6 166.3 140.6 166 140.4 166C140.3 166 140.1 166.2 140 166.2C140 166.2 140 165.9 140 165.8C139.3 166.2 139.3 165.2 138.9 165.2C138.7 165.2 138.5 165.2 138.5 165.2C138.5 165.2 138.5 165 138.4 164.1C138.4 163.9 138.4 163.7 138.4 163.5C138.4 163.3 138.4 163 138.4 162.7C138.4 162.4 138.4 162.1 138.5 162C138.6 161.8 138.8 161.7 139 161.6C139.1 161.6 139.2 161.6 139.4 161.5C139.5 161.5 139.7 161.5 139.8 161.5C140.1 161.5 140.3 161.5 140.4 161.7C140.4 161.8 140.7 161.7 140.6 162.1C141.4 161.6 141.5 162.3 141.8 162.4C142.1 162.5 142.7 162.1 142.8 162.4C143.2 161.9 143.2 162 143.3 162.2V162.4C143.3 162.4 143.3 162.4 143.3 162.8C143.3 163.4 143.3 163.8 143.3 164C143.3 164.2 143.4 164.2 143.3 164C140.9 162.7 142.6 163.6 142.1 163.3C142.1 163.1 142.3 163 142.3 162.9C142.5 162.7 142.7 162.5 142.9 162.3C143.4 162 143.9 161.9 144.4 161.8C144.8 161.8 145.2 161.8 145.4 161.8H145.8L146.1 161.9C146.3 161.9 146.5 162 146.7 162.1C146.8 162.1 147.1 161.8 147.1 162.1C147.1 162.4 147.4 162.3 147.5 162.3C147.6 162.3 147.8 162.3 147.9 162.5C148.1 163.3 148.7 163.1 149 163.2C149.2 163.2 149.3 163.3 149.4 163.3C149.4 163.3 149.4 163.3 149.4 163.4V163.6C149 162.5 149.3 163.3 149.2 163.1H149.4L149.8 162.8C150 162.8 150.1 162.7 150.3 162.6C150.7 162.5 151.1 162.4 151.5 162.6C151.8 162.7 152.4 162.6 152.3 163.3C152.3 163.5 152.7 163.3 152.9 163.3C153.2 163.5 153.5 163.8 153.6 164C153.7 164.2 153.8 164.3 153.9 164.4C153.9 164.4 154.1 164.2 154.2 164.2C154.2 164.2 154.2 164.5 154.2 164.6C154.2 164.7 154.2 164.4 154.3 164.7C154.5 165.3 154.6 164.9 154.7 164.9C154.7 164.9 154.8 164.9 154.9 164.8C154.9 164.8 154.9 164.8 154.9 164.7V164.5C154.9 164.4 155.1 164.3 155.4 164.1C155.4 164.1 155.5 164 155.6 164C155.7 164 155.8 164 156 163.9C156.2 163.9 156.5 163.9 156.7 163.9C156.9 163.9 157.2 164.1 157.4 164.2C157.5 164.2 157.6 164.3 157.6 164.4C157.6 164.4 157.7 164.5 157.8 164.6C157.8 164.7 158 164.9 158 164.9C158 165 158.1 165.2 158 165.3V165.6C158 165.6 158 165.7 158 165.8C158 166 156.6 166.3 156.1 166.3H155.9C155.8 166.3 155.6 166.3 155.5 166.3H155.3C155.5 166.3 155.7 166.3 155.8 166.2C156.1 166.2 156.3 166 156.4 165.9C156.4 165.9 156.4 165.9 156.6 166.3L156.9 166.7L157.1 166.9H157.2L157.4 167.2C157.4 167.2 157.6 167.3 157.5 167.3C157.5 167.3 157.3 167.6 157.2 167.7C157 168 156.8 168.3 156.5 168.5L156.9 168.3Z" fill="black"/>
<path d="M125.499 166.201C124.799 166.201 124.099 166.001 123.399 165.901C123.099 165.901 122.899 165.601 122.499 166.001C122.299 166.201 122.199 165.601 121.999 165.501C121.299 165.401 120.699 165.101 120.099 164.901C119.499 164.701 118.799 164.601 118.199 164.301C117.599 164.001 117.199 163.401 116.499 163.301C115.899 163.201 115.799 162.501 115.399 162.201C114.899 161.901 114.399 161.501 114.299 160.901C114.199 160.501 114.099 160.001 113.799 159.801C113.599 159.601 113.199 159.601 113.099 159.301C112.999 159.101 113.099 158.701 112.399 158.801V158.601C112.599 158.201 112.399 157.901 112.099 157.701C111.799 157.601 111.699 157.401 111.599 157.101C111.399 156.501 111.199 155.901 111.199 155.201C111.199 154.701 111.399 154.201 111.399 153.801C111.399 153.301 111.199 152.801 111.599 152.401C111.999 152.001 111.999 151.601 112.199 151.201C112.199 151.001 112.599 150.801 112.199 150.401C112.199 150.401 112.199 150.301 112.199 150.201C112.699 150.001 112.799 149.701 112.899 149.301C112.899 148.901 112.999 148.401 113.399 148.201C113.799 147.901 114.099 147.601 114.599 147.301C114.999 147.001 115.499 146.701 115.999 146.601C116.299 146.601 116.499 146.601 116.699 146.201C116.699 146.001 116.999 146.001 117.099 146.101C117.699 146.701 118.199 146.201 118.699 146.301C119.299 146.301 119.799 146.101 120.399 146.601C120.599 146.801 120.899 146.901 121.299 146.401C121.499 146.101 121.699 146.401 121.899 146.401C122.099 146.401 122.299 146.101 122.399 146.101C122.499 146.101 122.699 146.401 122.799 146.501C122.799 146.501 122.799 146.501 122.899 146.501C123.799 146.001 124.499 147.001 125.299 147.001C126.199 147.001 126.899 147.301 127.699 147.701C128.099 147.901 128.499 148.301 128.299 149.401C128.299 149.901 127.999 150.401 127.699 150.701C127.499 150.901 127.299 151.001 127.099 151.001C126.899 151.001 126.599 151.001 126.399 151.001C125.899 151.001 125.299 151.401 124.999 151.001C124.899 150.901 124.699 151.101 124.699 150.601C123.899 151.201 123.399 150.601 122.799 150.601C122.299 150.601 121.699 151.101 121.199 150.801C120.899 151.401 120.599 151.301 120.299 151.101C119.799 150.701 119.299 150.701 118.799 150.701C118.299 150.701 117.799 150.901 117.499 150.901C117.299 150.901 117.299 150.901 117.099 151.101C116.899 151.301 116.699 151.601 116.599 152.001C116.599 152.101 116.799 152.301 116.599 152.401C116.299 152.401 116.399 152.701 116.399 152.901C116.399 153.101 116.399 153.201 116.299 153.401C115.599 154.001 115.999 154.801 116.099 155.401C116.099 156.101 116.399 156.801 116.899 157.401C117.199 157.701 117.699 157.901 117.899 158.301C117.899 158.501 118.399 158.401 117.999 158.901C117.999 159.101 118.399 158.901 118.499 158.901C118.699 159.101 118.999 159.301 119.199 159.501C119.499 159.801 119.899 160.101 120.299 160.301C120.499 160.401 120.899 160.301 121.099 160.401C121.399 160.401 121.599 160.601 121.799 160.801C122.099 161.001 122.299 161.401 122.599 161.501C122.899 161.701 123.399 161.501 123.699 161.901C124.199 162.601 124.999 162.401 125.599 162.601C126.299 162.701 126.999 162.801 127.599 162.601C127.999 162.601 128.399 163.001 128.799 162.901C128.999 162.901 129.399 164.301 129.399 164.801V165.001C128.999 165.501 128.699 166.301 128.099 166.301C127.299 166.301 126.499 166.301 125.699 166.301L125.499 166.201Z" fill="black"/>
<path d="M129.7 121.7C129.7 122.2 129.7 122.7 129.8 123.1C129.8 123.3 129.6 123.5 130.1 123.6C130.4 123.6 129.7 123.9 129.8 124C129.9 124.4 129.8 124.9 129.9 125.3C129.9 125.7 130.2 126.1 130.3 126.6C130.3 127 130.1 127.5 130.4 127.9C130.7 128.3 130.2 128.6 130.4 128.9C130.5 129.3 130.6 129.6 130.4 130C130.2 130.3 130 130.5 130.1 130.8C130.1 131 130.5 131.1 130.5 131.3C130.5 131.5 130.2 131.6 130.8 131.8C130.8 131.8 130.8 131.8 130.6 131.9C130.2 132.1 130.2 132.3 130.5 132.4C130.8 132.6 130.7 132.7 130.7 132.8C130.7 133.2 130.7 133.5 130.7 133.9C130.7 134.2 130.4 134.4 130.3 134.7C130.3 135 130.5 135.3 130.2 135.5C129.9 135.7 129.9 136 129.9 136.3C129.9 136.4 129.6 136.6 130.2 136.8C129.3 137.2 130.4 137.7 130.2 138.1C129.9 138.5 130.1 139 130 139.4C130 139.5 129.8 139.6 130.2 139.8C130.4 139.8 130.4 140 130.2 140C129.5 140.3 129.9 140.6 129.7 141C129.5 141.4 129.7 141.8 129.2 142.1C129 142.2 128.8 142.4 129.4 142.7C129.7 142.8 129.4 143 129.4 143.1C129.4 143.2 129.7 143.4 129.7 143.5C129.7 143.5 129.4 143.7 129.3 143.7C129.9 144.4 128.9 144.8 129 145.4C129 146 129 146.6 128.7 147.1C128.6 147.4 128.3 147.7 127.2 147.7C126.7 147.7 126.1 147.6 125.8 147.4C125.6 147.3 125.4 147.1 125.3 147C125.3 146.8 125.1 146.6 125.1 146.4C125 146 124.5 145.6 124.9 145.3C125 145.3 124.7 145 125.2 145C124.5 144.4 125.2 144 125.2 143.5C125.2 143.1 124.6 142.6 125 142.2C124.4 141.9 124.6 141.6 124.8 141.4C125.6 140.7 125.2 139.8 125.4 139C125.6 138.2 125.6 137.3 125.7 136.5C125.7 136.4 125.4 136.2 125.7 136.1C126 136 125.7 135.7 125.7 135.6C125.7 135.4 125.6 135.3 125.7 135.1C126.4 134.5 126 133.8 126.1 133.1C126.1 132.4 126.3 131.8 126.1 131.1C126.1 130.7 125.7 130.3 125.8 129.9C125.8 129.7 125.5 129.6 126.1 129.4C126.3 129.4 125.8 129.2 125.8 129.1C125.8 128.8 125.8 128.6 125.8 128.3C125.8 127.9 125.8 127.5 125.8 127.2C125.8 127 125.5 126.7 125.4 126.5C125.4 126.3 125.4 126 125.4 125.8C125.4 125.5 125.7 125.2 125.7 124.9C125.7 124.6 125.4 124.3 125.7 123.9C126.2 123.3 125.9 122.8 125.9 122.2C125.9 121.6 125.9 121.1 125.7 120.5C125.6 120.2 126.1 119.8 126 119.5C126 119.4 127.4 119 127.9 119H128.1C128.6 119.3 129.4 119.5 129.3 119.8C129.3 120.3 129.3 120.9 129.4 121.4L129.7 121.7Z" fill="black"/>
<path d="M181.2 117.4C182.1 116.5 183 115.5 183.8 114.5C183.8 114.5 183.9 114.5 184 114.3C184 114.3 184 114.1 183.8 114C183.7 114 183.8 114 184 114C184.2 114 184.4 113.9 184.5 113.8C184.3 113.8 184.2 113.6 184 113.5L183.1 112.9C182 112.2 180.9 111.6 179.9 110.8C178.9 110.1 178.1 109 177 108.5C176 108.1 175.6 107.1 174.8 106.7C173.9 106.2 173 105.7 172.4 104.9C171.9 104.4 171.4 103.8 170.8 103.5C170.4 103.3 169.9 103.4 169.5 103.1C169.1 102.9 168.8 102.4 168.2 102.8C168.2 102.8 168 102.6 168 102.5C167.8 101.9 167.2 101.7 166.8 101.8C166.3 101.9 166.1 101.8 165.7 101.6L163 100.7C162.7 100.6 162.4 100.4 162 100.3C161.7 100.2 161.3 100 161 100C160.3 99.8003 159.5 100 158.9 99.7003C158.2 99.4003 157.6 99.4003 156.9 99.5003C156.5 99.5003 156 99.3003 155.8 100H155.6C154.4 99.4003 153.5 100.7 152.4 100.8C151.2 101 150.1 101.5 149 102C148.7 102.1 148.3 102.1 148.2 102.7C148.2 102.9 147.9 103.1 147.7 103C146.6 102.8 145.9 103.6 145 103.9C144 104.3 143.2 105 142 105.2C141.5 105.2 140.9 105.5 140.8 106.3C140.8 106.7 140.2 106.7 139.9 107C139.7 107.2 139.6 107.6 139.3 107.8C139.1 108 138.7 107.9 138.4 108C138.4 108 138.2 108 138.2 108.2C137.4 109.6 135.7 109.9 134.6 111C133.6 112.2 132.5 113.2 131.5 114.4C130.9 115 130.3 115.6 129 115.5C128.4 115.5 127.9 115.1 127.9 114.6C127.9 114.2 127.9 113.8 128 113.5C128.2 113 128.5 112.5 128.7 112C129.2 111 129.6 109.8 130.6 109.2C130.9 109 131 108.5 131.6 108.7C131.6 108.7 131.8 108.7 131.8 108.6C132.4 107 133.9 106.4 135.1 105.4C136.1 104.6 136.8 103.3 138.1 102.9C138.4 102 139.2 101.6 139.9 101.4C142.5 100.7 144.5 99.2003 146.9 98.2003C149.3 97.2003 151.8 96.2004 154.5 95.8004C155 95.8004 155.3 95.3003 155.9 95.5003C156.4 95.7003 157.1 95.5003 157.7 95.5003C158.3 95.5003 158.9 95.4003 159.4 95.5003C161.5 96.2003 163.7 96.3003 165.7 97.0003C167.7 97.7003 169.5 98.7003 171.4 99.5003C172.5 100 173.8 100.4 174.7 101.2C175.1 101.5 175.8 101.6 175.8 102.4C175.8 102.6 176.5 102.5 176.8 102.7C177.5 103.2 178.2 103.7 178.8 104.2C179.7 104.9 180.6 105.7 181.5 106.4C182.1 106.8 182.7 107.1 183.3 107.4C183.9 107.8 184.4 108.2 185 108.7C185.3 109 185.6 109.3 185.9 109.6C185.9 109.6 186 109.7 186.2 109.9L186.6 110.3C186.9 110.5 187.3 110.8 187.6 111C188.5 111.6 189.6 112.1 190.6 112.7C190.2 113.2 189.8 113.8 189.3 114.3C188.7 114.9 188.2 115.4 187.7 116L186.5 117.4C185.9 118.1 185.4 118.8 184.8 119.4C183.6 120.6 182.3 121.8 181.1 123.1C180.4 123.8 179.4 124 178.6 124.6C178.2 124.9 176.9 124.1 176.7 123.6C176.7 123.6 176.7 123.4 176.7 123.3C177.1 122.4 177.3 121.3 178.1 120.7C179.3 119.8 180.3 118.7 181.4 117.6L181.2 117.4Z" fill="black"/>
<path d="M100.2 132.701C99.1 133.301 97.9 134.201 96.3 134.601C95.5 134.801 94.5 135.001 93.5 134.801C92.5 134.701 91.5 134.101 90.8 133.501C89.8 132.601 89.5 131.801 88.4 131.401C88.2 131.401 88.2 131.401 88.2 131.401C88.2 131.401 88.2 131.301 88.2 131.201C88.2 131.001 88.2 130.801 88.1 130.701L87.8 130.401C87.7 130.701 87.5 130.901 87.4 131.101L86.1 133.201C84.8 135.301 83.3 137.501 81.3 139.201C79.3 140.901 76.8 141.901 74.7 143.101C72.8 144.101 70.9 144.201 69 144.801C68 145.101 67 145.401 66 145.601H65.2C65.2 145.701 64.4 145.901 64.4 145.901C63.5 146.101 62.6 146.101 61.8 146.101C61.6 146.101 61.4 146.101 61.3 146.101C61.2 146.101 61 146.101 60.9 145.901C60.6 145.801 60.3 145.601 60.1 145.401C59.8 145.101 59.7 144.801 59.6 144.501C59.5 144.201 59.4 143.801 59.3 143.301C59.3 142.501 59.1 141.501 59 141.101C58.8 140.201 58.4 139.501 58.3 138.501C58.2 137.601 58.3 136.601 57.6 135.901C57.6 135.901 57.6 135.401 57.6 135.201C57.9 134.201 57.6 133.001 57.3 132.301C56.9 131.601 56.9 130.901 56.7 130.201C56.4 128.201 56.1 126.301 55.8 124.301C55.6 122.801 55.7 121.301 55.5 119.801C55.3 118.201 54.8 116.601 54.9 115.201C54.9 114.801 54.9 114.501 54.9 114.101C54.9 114.001 54.9 113.701 54.9 113.701V113.201L54.8 112.301L54.6 110.501V109.601C54.5 109.601 54.5 109.601 54.5 109.601H54.6H54.8L55.2 109.501C55.9 109.401 56.7 109.301 57.3 109.101C57.9 109.001 58.7 108.701 58.9 108.401C58.9 108.401 59.3 108.301 59.4 108.401C61.8 108.801 64 107.401 66.6 107.501C69.2 107.601 71.8 107.701 74.4 108.201C75.1 108.301 75.8 108.701 76.5 108.401C76.8 108.301 77.5 108.401 77.8 108.701C79.5 109.901 81.5 110.401 83.3 111.701C84.3 112.501 85.1 113.201 85.9 113.801L86.4 114.201C86.5 114.201 86.4 114.201 86.5 114.301C86.5 114.301 86.7 114.501 86.8 114.601C86.9 114.601 87.1 114.601 87.2 114.501C87.2 114.501 87.2 114.501 87.2 114.401C87.2 114.301 87.3 114.201 87.4 114.101C87.5 113.901 87.6 113.601 87.6 113.301C87.6 112.801 88.6 112.101 89.1 111.401C89.5 110.801 89.9 110.101 90.5 109.601C91 109.201 91.8 109.001 92.5 108.801C92.7 108.801 92.9 108.601 93.1 108.501C94 108.001 95.2 107.601 96.4 107.701C97.6 107.701 98.6 108.201 99.4 108.601C100.9 109.401 102.2 110.301 103.7 111.101C105.1 111.901 106.5 112.801 107.8 113.801C109.1 114.801 110.4 116.001 111.5 117.501C112.1 118.301 112.7 119.301 112.8 120.301C113 121.301 112.8 122.401 112.3 123.101C111.8 123.701 111.2 123.601 110.9 122.901C110.6 122.401 110.3 122.001 110.1 121.501C109.7 120.801 109.1 120.101 108.5 119.501C107.2 118.301 105.4 117.501 104 116.101C103.6 115.701 102.8 115.501 102.6 114.801C102.6 114.801 102.4 114.501 102.3 114.501C101 114.101 99.8 113.501 98.6 112.901C97.4 112.301 96.4 111.701 95.6 111.901C94.9 111.901 94.1 112.501 93.5 113.101C92.9 113.701 92.3 114.501 91.5 115.301C91.4 115.901 91.1 116.501 90.6 117.101C90.3 117.501 89.8 118.101 89.3 118.501C88.8 118.901 88.3 119.101 87.7 119.201C87.5 119.201 87.3 119.201 87.1 119.201C86 119.201 85 118.701 84.1 118.101C83.6 117.701 83.4 117.601 83.1 117.301L82.4 116.601C81.5 115.701 80.8 115.101 79.9 114.601C78.2 113.601 76.1 113.001 73.9 112.401C71.8 111.901 69.5 111.601 67.3 111.601C65.1 111.601 62.9 111.901 60.6 112.301C60.2 112.301 59.9 112.501 59.5 112.601H59.4C59.4 112.601 59.4 112.601 59.3 112.601C59.2 112.601 59 112.601 58.9 112.601C58.9 112.701 59 112.801 59 112.901C59 112.901 59 112.901 59 113.001V113.201V113.601C59 114.101 59.1 114.501 59.1 115.001C59 118.801 59.9 122.501 60.4 126.201C60.9 129.901 61.3 133.601 62 137.301C62.2 138.301 62.4 139.201 62.6 140.201C62.7 140.901 62.8 140.801 62.8 140.901V141.101C62.8 141.101 62.8 141.101 62.9 141.101C63.2 141.101 62.9 140.801 64.3 141.101C64.6 141.201 65.4 140.601 66 140.401C67.5 140.001 68.9 139.701 70.3 139.201C72.3 138.601 74.1 137.801 75.8 136.801C76.8 136.201 77.6 135.301 78.4 134.501C79.2 133.701 80.1 132.701 80.9 131.801C81.4 131.201 81.9 130.601 82.4 129.901C82.7 129.601 82.9 129.201 83.1 128.901C83.5 128.301 83.9 127.701 84.3 127.001C85.1 125.701 85.8 124.301 86.5 122.901C87.7 124.201 89 125.601 90.1 127.001L90.8 127.901L91 128.101C91 128.201 91.2 128.501 91.2 128.501C91.4 128.801 91.7 129.101 91.9 129.501C92.4 130.101 92.8 130.601 93.1 130.701C93.4 130.801 93.8 130.901 94.3 130.701C94.8 130.601 95.4 130.301 96 130.001C98.8 128.401 101.6 126.801 104.4 125.201C106 124.301 107.8 124.001 109.4 123.301C110.2 122.901 111.8 123.801 111.7 124.401C111.7 124.501 111.6 124.701 111.5 124.801C110.1 125.901 109 127.301 107.2 128.101C104.6 129.301 102 130.801 99.6 132.301L100.2 132.701Z" fill="black"/>
<path d="M116.4 177.8C116.6 177.6 116.8 177.4 116.9 177.1C116.9 177.1 117.2 177.1 116.9 176.7C116.7 176.5 117.3 176.8 117.3 176.7C117.4 176.4 117.6 176.3 117.8 176C117.9 175.8 117.8 175.4 118 175.2C118.1 175 118.5 174.9 118.4 174.5C118.4 174.2 118.8 174.3 118.8 174.1C118.8 173.9 118.8 173.6 119.2 173.6C119.4 173.6 119.7 173.6 119.7 173.4C119.7 173.3 119.5 173 119.6 172.9C119.6 172.9 120 172.9 119.5 172.5C119.5 172.5 119.5 172.5 119.7 172.5C120.1 172.6 120.1 172.5 120 172.3C119.8 172.1 119.9 172 120 172C120 171.8 120.2 171.6 120.4 171.5C120.5 171.4 120.8 171.4 121 171.3C121.1 171.2 121 170.9 121.4 170.9C121.7 170.9 121.8 170.8 121.9 170.7C121.9 170.7 122.2 170.7 121.8 170.3C122.6 170.5 121.8 169.7 122.2 169.6C122.5 169.5 122.5 169.2 122.7 168.9C122.7 168.9 122.9 168.9 122.6 168.6C122.5 168.5 122.5 168.4 122.6 168.5C123.2 168.7 123 168.3 123.2 168.2C123.4 168.1 123.2 167.7 123.8 167.8C124 167.8 124.2 167.8 123.8 167.3C123.6 167.1 123.9 167.1 123.9 167C123.9 167 123.7 166.7 123.8 166.6C123.8 166.6 124.1 166.6 124.2 166.6C123.9 165.8 124.9 166 125.2 165.5C125.5 165 126.1 164.6 126.8 164.5C127.1 164.5 127.6 164.5 128 165.6C128.2 166.1 128.2 166.6 128.3 167C128.3 167.2 128.3 167.5 128.3 167.5C128.3 167.6 128.3 167.8 128.3 167.9C128.3 168.1 128.5 168.6 128.3 168.4C128.3 168.4 128.3 168.6 128 168.2C128.4 168.9 128 168.6 127.8 168.9C127.8 169.1 128.1 169.6 127.8 169.7C128.3 170.1 128.1 170.2 127.8 170.3C126.9 170.4 127 171.1 126.7 171.5C126.3 171.9 126.1 172.4 125.8 172.9C125.8 172.9 126 173.2 125.8 173.2C125.5 173.2 125.6 173.4 125.6 173.5C125.6 173.5 125.6 173.8 125.4 173.8C124.6 173.8 124.7 174.4 124.4 174.7C124.1 175 123.8 175.3 123.7 175.8C123.7 176.1 123.7 176.5 123.5 176.6C123.4 176.6 123.5 177 123.1 176.6C122.9 176.6 123.3 176.9 123.2 176.9C123.2 177.1 123 177.2 122.9 177.3C122.8 177.5 122.6 177.7 122.5 177.9C122.5 178 122.5 178.3 122.5 178.5C122.5 178.7 122.4 178.8 122.2 178.9C122 179 121.7 179 121.6 179.2C121.4 179.3 121.6 179.7 121.2 179.7C120.6 179.7 120.5 180.1 120.3 180.4C120 180.7 119.8 180.9 119.6 181.3C119.6 181.5 119 181.3 118.9 181.5C118.9 181.5 117.6 180.7 117.3 180.4C117.3 180.4 117.2 180.3 117.1 180.2C116.9 179.8 116.4 179.2 116.6 179C116.9 178.8 117 178.5 117.2 178.3L116.4 177.8Z" fill="black"/>
</svg>
