<svg width="300" height="300" viewBox="0 0 300 300" fill="none" xmlns="http://www.w3.org/2000/svg">
<path d="M176.6 132.902C174.9 131.102 173.2 129.202 171.5 127.402C170.8 126.702 170.4 125.902 169.3 125.502C168.8 125.302 168.6 124.202 168 123.602C166.4 121.902 164.8 120.202 163.2 118.502C161.6 116.902 160 115.702 158.4 115.202C156.8 114.602 154.7 114.102 152.5 114.402C150.7 114.602 149 114.102 147.3 114.302C145.4 114.502 143.5 114.702 141.7 114.602C140.4 114.602 139 114.502 137.7 114.802C136.9 115.002 136.2 115.402 135.3 115.502C134.5 115.602 133.5 115.502 132.9 116.302C132.9 116.302 132.5 116.302 132.3 116.302C131.3 116.102 130.3 116.302 129.6 116.802C129 117.202 128.3 117.402 127.7 117.502C125.9 118.002 124.1 118.502 122.5 119.102C121.3 119.502 120.1 119.902 119.1 120.502C118 121.202 117.5 122.302 116.7 123.102C115.9 123.902 115.5 125.002 115.2 126.202C115 126.902 114.6 127.602 115.2 128.302C115.2 128.302 115.2 128.602 115.2 128.702C114.1 130.702 115.2 132.902 115 135.002C114.8 137.302 115 139.602 115 141.902C115 142.502 114.9 143.202 115.4 143.702C115.6 143.902 115.6 144.502 115.5 144.802C115 146.502 115.5 148.302 115.5 150.102C115.5 152.102 116.1 154.102 115.8 156.102C115.7 157.002 115.8 158.102 116.4 159.102C116.7 159.502 116.6 160.502 116.8 161.302C116.9 161.902 117.3 162.402 117.4 163.002C117.4 163.502 117.4 164.002 117.3 164.602C117.3 164.802 117.3 164.902 117.3 165.102C118.4 167.902 118 170.902 118.7 173.802C119.4 176.702 119.9 179.702 120.3 182.602C120.6 184.202 120.7 185.902 119.8 187.302C119.4 187.902 118.8 188.002 118.4 187.302C118.1 186.802 117.7 186.302 117.6 185.702C117.3 184.802 117 183.902 116.8 183.002C116.3 181.202 115.4 179.402 115.3 177.402C115.3 176.802 114.9 176.102 115.3 175.502C115.3 175.502 115.3 175.202 115.3 175.002C114.1 172.502 114.1 169.702 113.6 167.102C113.2 164.802 112.2 162.702 112.2 160.402C111.4 159.202 111.3 157.702 111.4 156.402C111.5 151.802 110.7 147.302 110.6 142.702C110.6 140.402 110.5 138.002 110.5 135.702C110.5 133.402 110.5 131.002 110.8 128.602C110.8 127.802 110.6 127.002 111.1 126.002C111.5 125.102 111.7 123.902 112.1 122.802C112.5 121.802 112.9 120.702 113.6 120.002C116.6 116.802 120.3 114.902 123.8 113.802C127.3 112.802 130.9 112.002 134.5 111.302C136.7 110.802 138.8 110.202 141.1 110.102C142.1 110.102 143 109.602 144 110.102C144.3 110.302 145.1 109.802 145.8 109.702C147.3 109.602 148.9 109.602 150.4 109.602C152.5 109.602 154.6 109.602 157 110.002C158.4 110.202 159.9 110.302 161.4 111.002C162.9 111.702 164.2 112.802 165.2 113.802C166.5 115.202 167.4 116.502 168.5 117.802C169.6 119.102 171.1 120.302 172 121.702C173.7 124.302 176.1 126.402 178.1 128.702C180.2 131.002 182.2 133.302 184.4 135.502C185.6 136.702 186.4 138.202 187.5 139.502C188 140.102 187.7 141.902 187.1 142.002C187 142.002 186.8 142.002 186.7 142.002C185.2 141.102 183.6 140.502 182.4 139.002C180.5 136.902 178.5 134.802 176.6 132.802V132.902Z" fill="black"/>
<path d="M166.101 147.302C166.501 147.102 166.801 147.002 167.201 146.702C167.301 146.702 167.601 146.702 167.501 146.202C167.501 145.902 167.901 146.402 168.001 146.402C168.301 146.202 168.701 146.102 169.001 145.902C169.301 145.702 169.501 145.302 169.801 145.102C170.101 144.902 170.601 145.102 170.801 144.602C171.001 144.202 171.401 144.602 171.601 144.302C171.801 144.102 172.101 143.902 172.501 144.002C172.801 144.002 173.101 144.202 173.201 144.002C173.201 143.902 173.201 143.502 173.401 143.502C173.501 143.502 173.801 143.702 173.701 143.002C173.701 143.002 173.701 143.002 173.901 143.002C174.201 143.302 174.401 143.202 174.401 143.002C174.401 142.702 174.501 142.702 174.601 142.602C174.901 142.502 175.201 142.302 175.501 142.302C175.701 142.302 176.001 142.302 176.301 142.302C176.501 142.302 176.701 141.902 177.001 142.102C177.301 142.302 177.501 142.202 177.701 142.102C177.801 142.102 178.101 142.302 177.901 141.602C178.501 142.302 178.501 141.102 178.901 141.202C179.301 141.202 179.601 141.002 180.001 140.902C180.001 140.902 180.301 141.002 180.201 140.502C180.201 140.302 180.201 140.302 180.401 140.402C180.901 140.902 181.001 140.402 181.301 140.402C181.601 140.402 181.901 140.002 182.301 140.402C182.501 140.602 182.701 140.602 182.701 140.002C182.701 139.702 182.901 140.002 183.001 139.802C183.001 139.802 183.001 139.402 183.201 139.402C183.201 139.402 183.401 139.602 183.501 139.702C183.801 138.902 184.501 139.702 184.901 139.302C185.301 139.002 185.801 138.902 186.301 138.902C186.601 138.902 186.901 138.902 187.401 140.002C187.601 140.502 187.801 141.002 187.701 141.402C187.701 141.702 187.701 141.902 187.601 142.002C187.501 142.102 187.401 142.302 187.301 142.402C187.101 142.702 186.901 143.302 186.601 143.102C186.501 143.102 186.501 143.402 186.201 142.902C186.001 143.802 185.501 143.402 185.101 143.602C184.801 143.802 184.601 144.502 184.201 144.302C184.201 145.002 184.001 144.902 183.701 144.802C182.801 144.402 182.301 145.002 181.601 145.202C180.901 145.302 180.301 145.702 179.601 145.902C179.501 145.902 179.601 146.302 179.301 146.102C179.101 145.902 179.001 146.102 178.801 146.202C178.701 146.202 178.601 146.402 178.401 146.302C177.601 145.902 177.301 146.502 176.701 146.602C176.201 146.702 175.601 146.902 175.201 147.302C174.901 147.502 174.801 148.002 174.401 148.002C174.201 148.002 174.201 148.402 173.901 147.902C173.801 147.802 173.901 148.202 173.801 148.302C173.601 148.402 173.401 148.502 173.201 148.602C172.901 148.702 172.601 148.802 172.301 149.002C172.101 149.102 172.101 149.402 171.901 149.602C171.701 149.702 171.601 149.802 171.301 149.902C171.001 149.902 170.701 149.902 170.401 149.902C170.101 149.902 170.001 150.302 169.601 150.202C168.901 150.002 168.601 150.402 168.201 150.602C167.701 150.802 167.301 150.902 166.901 151.302C166.701 151.502 166.201 151.202 166.001 151.302C165.901 151.302 165.101 150.102 164.901 149.702V149.502C164.901 149.002 164.801 148.202 165.101 148.102C165.501 148.002 165.901 147.702 166.301 147.502L166.101 147.302Z" fill="black"/>
<path d="M168.6 166.202C168.6 165.902 168.5 165.502 168.3 165.202C168.3 165.102 168.5 164.902 167.9 164.902C167.6 164.902 168.2 164.602 168.2 164.502C168.1 164.202 168.1 163.902 167.9 163.602C167.8 163.302 167.5 163.102 167.3 162.802C167.2 162.502 167.3 162.102 167 161.902C166.7 161.702 167.1 161.402 167 161.202C166.8 161.002 166.7 160.702 166.8 160.402C166.9 160.202 167.1 160.002 166.9 159.802C166.9 159.802 166.5 159.702 166.5 159.602C166.5 159.502 166.7 159.302 166.1 159.302C166.1 159.302 166.1 159.302 166.2 159.202C166.6 159.002 166.5 158.802 166.2 158.802C165.9 158.802 165.9 158.702 165.9 158.602C165.9 158.402 165.7 158.102 165.7 157.902C165.7 157.702 165.9 157.502 165.9 157.302C165.9 157.102 165.6 157.002 165.9 156.702C166.2 156.402 166.1 156.302 166 156.102C166 156.102 166.2 155.802 165.6 155.902C166.3 155.402 165.2 155.402 165.3 155.102C165.4 154.802 165.3 154.502 165.1 154.202C165.1 154.202 165.2 154.002 164.8 154.002C164.6 154.002 164.6 154.002 164.7 153.902C165.2 153.502 164.8 153.402 164.9 153.102C164.9 152.802 164.6 152.602 164.9 152.202C165.1 152.002 165.1 151.902 164.5 151.902C164.2 151.902 164.5 151.702 164.4 151.602C164.4 151.602 164 151.602 164 151.502C164 151.502 164.2 151.302 164.3 151.202C163.6 151.002 164.3 150.402 164 150.102C163.7 149.802 163.7 149.402 163.6 149.002C163.6 148.802 163.6 148.502 164.7 148.002C165.2 147.802 165.7 147.602 166 147.602C166.2 147.602 166.5 147.602 166.6 147.602C166.7 147.602 166.9 147.802 167 147.902C167.3 148.102 167.9 148.202 167.7 148.502C167.7 148.602 168 148.602 167.5 148.802C168.4 148.902 168 149.402 168.1 149.802C168.2 150.102 168.9 150.202 168.7 150.602C169.4 150.602 169.3 150.802 169.2 151.002C168.7 151.802 169.3 152.202 169.4 152.902C169.4 153.502 169.7 154.102 169.8 154.702C169.8 154.802 170.2 154.802 170 155.002C169.8 155.202 170 155.302 170 155.402C170 155.502 170.2 155.602 170 155.802C169.5 156.402 170 156.802 170 157.302C170 157.802 170 158.302 170.4 158.702C170.6 159.002 171 159.202 170.9 159.502C170.9 159.602 171.2 159.702 170.7 159.902C170.5 159.902 171 159.902 171.1 160.102C171.1 160.302 171.2 160.502 171.3 160.702C171.3 161.002 171.3 161.302 171.5 161.502C171.5 161.702 171.9 161.802 172 161.902C172.1 162.102 172.1 162.202 172.1 162.402C172.1 162.602 171.9 162.902 171.9 163.102C171.9 163.302 172.2 163.502 172 163.802C171.6 164.302 172 164.702 172 165.102C172 165.502 172.1 165.902 172.3 166.302C172.4 166.502 172 166.802 172.1 167.102C172.1 167.102 170.7 167.702 170.2 167.802H170C169.5 167.802 168.7 167.802 168.7 167.402C168.7 167.002 168.5 166.702 168.4 166.302L168.6 166.202Z" fill="black"/>
<path d="M162.2 186.203C162.3 185.803 162.5 185.403 162.5 185.003C162.5 184.803 162.8 184.803 162.4 184.503C162.2 184.303 162.8 184.403 162.8 184.203C162.8 183.803 163.1 183.503 163.1 183.103C163.1 182.703 163.1 182.303 163.1 181.903C163.1 181.503 163.6 181.303 163.4 180.803C163.2 180.403 163.8 180.303 163.8 180.003C163.8 179.703 163.8 179.303 164.1 179.103C164.3 178.903 164.6 178.803 164.6 178.603C164.6 178.403 164.3 178.203 164.4 178.103C164.4 178.003 164.8 177.903 164.2 177.603C164.2 177.603 164.2 177.603 164.4 177.603C164.8 177.603 164.9 177.403 164.6 177.203C164.4 177.003 164.5 176.903 164.5 176.803C164.5 176.503 164.6 176.203 164.8 175.903C164.9 175.703 165.2 175.603 165.4 175.403C165.5 175.203 165.4 174.903 165.7 174.703C166.1 174.603 166.1 174.403 166.2 174.203C166.2 174.103 166.6 174.003 166 173.703C166.9 173.703 166 173.003 166.3 172.703C166.6 172.403 166.6 172.003 166.7 171.703C166.7 171.703 166.9 171.603 166.5 171.303C166.4 171.303 166.4 171.103 166.5 171.103C167.2 171.103 166.9 170.603 167.1 170.403C167.3 170.103 167.1 169.703 167.7 169.603C167.9 169.603 168.1 169.403 167.6 169.103C167.4 168.903 167.6 168.903 167.6 168.803C167.6 168.703 167.3 168.503 167.4 168.403C167.4 168.403 167.7 168.403 167.8 168.303C167.3 167.703 168.3 167.503 168.2 167.003C168.2 166.703 168.2 166.603 168.2 166.303C168.2 166.003 168.4 165.703 168.6 165.303C168.8 164.903 169.3 164.503 170.4 165.103C170.9 165.303 171.3 165.703 171.5 166.003C171.6 166.203 171.8 166.403 171.8 166.503C171.8 166.603 171.9 166.803 172 166.903C172.1 167.103 172.6 167.403 172.2 167.703C172.1 167.703 172.3 168.003 171.8 167.903C172.5 168.503 171.8 168.903 171.8 169.303C171.8 169.703 172.2 170.203 171.8 170.503C172.3 170.903 172.2 171.103 171.9 171.203C171 171.703 171.2 172.503 170.9 173.203C170.6 173.903 170.4 174.603 170.1 175.303C170.1 175.403 170.4 175.603 170.1 175.703C169.8 175.703 169.9 176.003 169.9 176.103C169.9 176.203 169.9 176.403 169.7 176.503C168.9 176.803 169.1 177.503 168.8 178.003C168.5 178.503 168.3 179.003 168.3 179.603C168.3 180.003 168.5 180.403 168.3 180.703C168.2 180.803 168.5 181.103 167.9 181.003C167.7 181.003 168.1 181.303 168.1 181.403C168.1 181.603 168 181.903 167.9 182.103C167.8 182.403 167.6 182.703 167.6 183.103C167.6 183.303 167.7 183.603 167.7 183.803C167.7 184.003 167.7 184.203 167.5 184.403C167.3 184.603 167.1 184.803 166.9 185.103C166.8 185.303 166.9 185.703 166.6 185.903C166 186.203 166.1 186.803 165.9 187.203C165.7 187.603 165.5 188.103 165.5 188.603C165.5 188.903 165 189.003 164.9 189.203C164.9 189.303 163.4 189.203 162.9 189.003H162.7C162.3 188.603 161.7 188.203 161.8 187.903C162 187.403 162.1 187.003 162.2 186.503V186.203Z" fill="black"/>
<path d="M157.6 168.101C157.5 167.801 157.4 167.601 157.2 167.401C157.2 167.401 157.2 167.101 156.8 167.401C156.6 167.501 157 167.101 156.9 167.001C156.7 166.801 156.6 166.601 156.3 166.501C156.1 166.401 155.7 166.401 155.5 166.301C155.3 166.301 155.2 165.901 154.9 166.101C154.6 166.301 154.6 165.801 154.4 165.801C154.2 165.801 154 165.801 153.8 165.601C153.7 165.401 153.6 165.201 153.4 165.301C153.3 165.301 153.2 165.701 153.1 165.701C153.1 165.701 152.9 165.401 152.8 166.001C152.8 166.001 152.8 166.001 152.8 165.901C152.7 165.501 152.6 165.501 152.5 165.901C152.5 166.201 152.4 166.101 152.3 166.201C152.1 166.201 152 166.301 151.8 166.301C151.7 166.301 151.5 166.101 151.3 166.101C151.1 166.101 151.1 166.401 150.8 166.201C150.5 166.001 150.4 166.201 150.3 166.201C150.3 166.201 150 166.101 150.3 166.601C149.6 166.101 150.1 167.101 149.8 167.101C149.5 167.101 149.4 167.401 149.2 167.701C149.2 167.701 149 167.701 149.2 168.001C149.3 168.101 149.2 168.201 149.2 168.101C148.6 167.901 148.8 168.301 148.6 168.401C148.4 168.501 148.6 168.901 148 168.901C147.8 168.901 147.6 169.001 148 169.401C148.2 169.601 148 169.601 148 169.701L148.2 170.001C148.2 170.001 147.9 170.001 147.8 170.001C148.3 170.601 147.4 170.601 147.4 171.101C147.4 171.501 147.4 171.901 147.2 172.301C147.2 172.501 146.9 172.701 145.7 172.701C145.2 172.701 144.6 172.701 144.3 172.501C144.1 172.401 143.9 172.301 143.8 172.201C143.8 172.001 143.6 171.901 143.5 171.701C143.4 171.401 142.9 170.901 143.2 170.701C143.3 170.701 143 170.401 143.6 170.501C142.9 169.901 143.6 169.501 143.6 169.101C143.6 168.701 143.2 168.101 143.6 167.801C143.1 167.301 143.3 167.101 143.6 167.001C144.6 166.501 144.6 165.601 145.3 165.001C145.9 164.401 146.5 163.701 147.2 163.201C147.3 163.201 147.2 162.701 147.5 162.901C147.8 163.001 147.9 162.701 148 162.601C148.2 162.601 148.3 162.301 148.5 162.401C149.4 162.701 149.9 162.101 150.7 162.001C151.4 162.001 152.1 162.001 152.8 161.701C153.2 161.701 153.7 161.301 154.1 161.501C154.3 161.501 154.5 161.301 154.6 161.901C154.6 162.101 154.9 161.701 155 161.701C155.3 161.701 155.6 161.901 155.9 162.001C156.3 162.201 156.7 162.401 157.1 162.501C157.3 162.501 157.7 162.501 158 162.601C158.3 162.701 158.5 162.901 158.7 163.101C158.9 163.401 159 163.801 159.2 164.101C159.4 164.401 159.9 164.501 159.8 165.001C159.8 165.801 160.3 166.201 160.5 166.701C160.7 167.301 160.9 167.801 161.1 168.401C161.3 168.701 160.8 169.101 160.9 169.401C160.9 169.601 159.5 169.901 159 169.901H158.8C158.3 169.701 157.6 169.701 157.6 169.401C157.6 169.101 157.5 168.801 157.3 168.501L157.6 168.101Z" fill="black"/>
<path d="M149.501 137.402C149.301 137.602 149.001 137.702 148.901 137.902C148.901 137.902 148.601 137.902 148.901 138.302C149.001 138.502 148.501 138.102 148.501 138.202C148.301 138.402 148.101 138.502 147.901 138.702C147.801 138.902 147.701 139.202 147.601 139.402C147.501 139.602 147.101 139.602 147.101 140.002C147.101 140.302 146.701 140.102 146.601 140.302C146.601 140.502 146.401 140.702 146.101 140.702C145.901 140.702 145.601 140.702 145.601 140.802C145.601 140.902 145.701 141.202 145.601 141.302C145.601 141.302 145.301 141.302 145.601 141.702C145.601 141.702 145.601 141.702 145.401 141.702C145.001 141.502 145.001 141.602 145.101 141.902C145.201 142.102 145.101 142.202 145.101 142.202C145.001 142.402 144.901 142.502 144.701 142.702C144.601 142.702 144.301 142.702 144.101 142.802C143.901 142.802 144.101 143.202 143.701 143.102C143.401 143.102 143.301 143.102 143.201 143.202C143.201 143.202 142.901 143.202 143.201 143.602C142.401 143.202 143.101 144.102 142.801 144.202C142.501 144.202 142.401 144.602 142.301 144.802C142.301 144.802 142.101 144.802 142.301 145.102C142.401 145.202 142.301 145.302 142.301 145.202C141.701 145.002 141.901 145.402 141.701 145.402C141.501 145.502 141.601 145.902 141.001 145.702C140.801 145.702 140.601 145.702 141.001 146.102C141.201 146.302 141.001 146.202 141.001 146.302C141.001 146.302 141.201 146.602 141.201 146.702C141.201 146.702 140.901 146.702 140.801 146.702C141.201 147.302 140.201 147.102 140.201 147.502C140.201 147.902 139.901 148.102 139.701 148.302C139.601 148.402 139.301 148.502 138.301 148.002C137.801 147.802 137.401 147.502 137.101 147.202C136.901 147.002 136.801 146.802 136.801 146.802C136.801 146.702 136.801 146.502 136.801 146.302C136.801 146.002 136.401 145.502 136.801 145.502C136.901 145.502 136.801 145.202 137.201 145.502C136.701 144.802 137.301 144.802 137.501 144.502C137.601 144.302 137.301 143.702 137.601 143.602C137.201 143.102 137.401 143.002 137.601 143.002C138.501 143.002 138.401 142.302 138.801 141.902C139.201 141.502 139.501 141.002 139.901 140.602C139.901 140.602 139.701 140.202 140.001 140.302C140.301 140.302 140.201 140.202 140.301 140.102C140.301 140.102 140.301 139.802 140.501 139.902C141.301 140.002 141.301 139.402 141.601 139.202C141.901 138.902 142.301 138.702 142.501 138.302C142.601 138.002 142.501 137.602 142.801 137.502C142.901 137.502 142.801 137.102 143.301 137.502C143.401 137.502 143.301 137.202 143.301 137.102C143.301 136.902 143.501 136.802 143.701 136.702C143.901 136.502 144.101 136.402 144.201 136.202C144.201 136.102 144.201 135.802 144.301 135.602C144.301 135.402 144.501 135.302 144.701 135.302C144.901 135.302 145.201 135.302 145.401 135.202C145.601 135.202 145.601 134.802 145.901 134.802C146.501 135.002 146.601 134.502 147.001 134.302C147.301 134.102 147.601 133.902 147.901 133.602C148.001 133.402 148.501 133.702 148.601 133.602C148.601 133.602 149.601 134.702 149.901 135.102C149.901 135.102 149.901 135.302 150.001 135.302C150.101 135.802 150.401 136.502 150.201 136.602C149.901 136.702 149.701 137.002 149.401 137.202L149.501 137.402Z" fill="black"/>
<path d="M139.601 134.201C139.801 134.401 139.901 134.701 140.101 134.801C140.101 134.801 140.101 135.101 140.501 134.801C140.701 134.701 140.301 135.201 140.401 135.201C140.601 135.401 140.701 135.601 140.901 135.801C141.101 135.901 141.401 136.001 141.601 136.101C141.801 136.201 141.801 136.601 142.201 136.601C142.501 136.601 142.301 137.001 142.501 137.101C142.701 137.101 142.901 137.301 142.901 137.601C142.901 137.801 142.901 138.101 143.001 138.101C143.101 138.101 143.401 138.001 143.501 138.101C143.501 138.101 143.501 138.401 143.901 138.101C143.901 138.101 143.901 138.101 143.901 138.301C143.701 138.701 143.801 138.701 144.101 138.601C144.301 138.501 144.401 138.601 144.401 138.601C144.601 138.701 144.701 138.801 144.901 139.001C144.901 139.101 144.901 139.401 145.001 139.601C145.001 139.801 145.401 139.601 145.301 140.001C145.301 140.301 145.301 140.401 145.401 140.501C145.401 140.501 145.401 140.801 145.801 140.501C145.401 141.301 146.301 140.601 146.401 140.901C146.401 141.201 146.801 141.301 147.001 141.401C147.001 141.401 147.001 141.601 147.301 141.401C147.401 141.301 147.501 141.401 147.401 141.401C147.201 142.001 147.601 141.801 147.601 142.001C147.701 142.201 148.101 142.101 147.901 142.701C147.901 142.901 147.901 143.101 148.301 142.701C148.501 142.501 148.401 142.701 148.501 142.701C148.501 142.701 148.801 142.501 148.901 142.501C148.901 142.501 148.901 142.801 148.901 142.901C149.501 142.501 149.301 143.501 149.701 143.501C150.101 143.501 150.301 143.801 150.501 144.001C150.601 144.101 150.701 144.401 150.201 145.401C150.001 145.901 149.701 146.301 149.401 146.601C149.201 146.801 149.001 146.901 149.001 146.901C148.901 146.901 148.701 146.901 148.501 146.901C148.201 146.901 147.701 147.301 147.701 146.901C147.701 146.801 147.401 146.901 147.701 146.501C147.001 147.001 147.001 146.401 146.701 146.201C146.501 146.101 145.901 146.401 145.801 146.101C145.301 146.501 145.201 146.301 145.201 146.101C145.201 145.201 144.501 145.301 144.101 144.901C143.701 144.501 143.201 144.201 142.801 143.801C142.801 143.801 142.401 144.001 142.501 143.701C142.501 143.401 142.401 143.501 142.301 143.401C142.301 143.401 142.001 143.401 142.101 143.201C142.201 142.401 141.601 142.401 141.401 142.101C141.101 141.801 140.901 141.401 140.501 141.201C140.201 141.101 139.801 141.201 139.701 140.901C139.701 140.801 139.301 140.901 139.701 140.401C139.701 140.301 139.401 140.401 139.301 140.401C139.101 140.401 139.001 140.201 138.901 140.001C138.701 139.801 138.601 139.601 138.401 139.501C138.301 139.501 138.001 139.501 137.801 139.401C137.601 139.401 137.501 139.201 137.501 139.001C137.501 138.801 137.501 138.501 137.401 138.301C137.401 138.101 137.001 138.101 137.001 137.801C137.201 137.201 136.701 137.101 136.501 136.701C136.301 136.401 136.101 136.101 135.801 135.801C135.601 135.701 135.901 135.201 135.801 135.101C135.801 135.101 136.901 134.101 137.301 133.801C137.301 133.801 137.501 133.801 137.501 133.701C138.001 133.601 138.701 133.301 138.801 133.501C138.901 133.801 139.201 134.001 139.401 134.301L139.601 134.201Z" fill="black"/>
<path d="M168.501 134.402C168.301 134.602 168.001 134.702 167.901 134.902C167.901 134.902 167.601 134.902 167.901 135.302C168.001 135.502 167.501 135.102 167.501 135.202C167.301 135.402 167.101 135.502 166.901 135.702C166.801 135.902 166.701 136.202 166.601 136.402C166.501 136.602 166.101 136.602 166.101 137.002C166.101 137.302 165.701 137.102 165.601 137.302C165.601 137.502 165.401 137.702 165.101 137.702C164.901 137.702 164.601 137.702 164.601 137.802C164.601 137.902 164.701 138.202 164.601 138.302C164.601 138.302 164.301 138.302 164.601 138.702C164.601 138.702 164.601 138.702 164.401 138.702C164.001 138.502 164.001 138.602 164.101 138.902C164.201 139.102 164.101 139.202 164.101 139.202C164.001 139.402 163.901 139.502 163.701 139.702C163.601 139.702 163.301 139.702 163.101 139.802C162.901 139.802 163.101 140.202 162.701 140.102C162.401 140.102 162.301 140.102 162.201 140.202C162.201 140.202 161.901 140.202 162.201 140.602C161.401 140.202 162.101 141.102 161.801 141.202C161.501 141.202 161.401 141.602 161.301 141.802C161.301 141.802 161.101 141.802 161.301 142.102C161.401 142.202 161.301 142.302 161.301 142.202C160.701 142.002 160.901 142.402 160.701 142.402C160.501 142.502 160.601 142.902 160.001 142.702C159.801 142.702 159.601 142.702 160.001 143.102C160.201 143.302 160.001 143.202 160.001 143.302C160.001 143.302 160.201 143.602 160.201 143.702C160.201 143.702 159.901 143.702 159.801 143.702C160.201 144.302 159.201 144.102 159.201 144.502C159.201 144.902 158.901 145.102 158.701 145.302C158.601 145.402 158.301 145.502 157.301 145.002C156.801 144.802 156.401 144.502 156.101 144.202C155.901 144.002 155.801 143.802 155.801 143.802C155.801 143.702 155.801 143.502 155.801 143.302C155.801 143.002 155.401 142.502 155.801 142.502C155.901 142.502 155.801 142.202 156.201 142.502C155.701 141.802 156.301 141.802 156.501 141.502C156.601 141.302 156.301 140.702 156.601 140.602C156.201 140.102 156.401 140.002 156.601 140.002C157.501 140.002 157.401 139.302 157.801 138.902C158.201 138.502 158.501 138.002 158.901 137.602C158.901 137.602 158.701 137.202 159.001 137.302C159.301 137.302 159.201 137.202 159.301 137.102C159.301 137.102 159.301 136.802 159.501 136.902C160.301 137.002 160.301 136.402 160.601 136.202C160.901 135.902 161.301 135.702 161.501 135.302C161.601 135.002 161.501 134.602 161.801 134.502C161.901 134.502 161.801 134.102 162.301 134.502C162.401 134.502 162.301 134.202 162.301 134.102C162.301 133.902 162.501 133.802 162.701 133.702C162.901 133.502 163.101 133.402 163.201 133.202C163.201 133.102 163.201 132.802 163.301 132.602C163.301 132.402 163.501 132.302 163.701 132.302C163.901 132.302 164.201 132.302 164.401 132.202C164.601 132.202 164.601 131.802 164.901 131.802C165.501 132.002 165.601 131.502 166.001 131.302C166.301 131.102 166.601 130.902 166.901 130.602C167.001 130.402 167.501 130.702 167.601 130.602C167.601 130.602 168.601 131.702 168.901 132.102C168.901 132.102 168.901 132.302 169.001 132.302C169.101 132.802 169.401 133.502 169.201 133.602C168.901 133.702 168.701 134.002 168.401 134.202L168.501 134.402Z" fill="black"/>
<path d="M158.601 131.201C158.801 131.401 158.901 131.701 159.101 131.801C159.101 131.801 159.101 132.101 159.501 131.801C159.701 131.701 159.301 132.201 159.401 132.201C159.601 132.401 159.701 132.601 159.901 132.801C160.101 132.901 160.401 133.001 160.601 133.101C160.801 133.201 160.801 133.601 161.201 133.601C161.501 133.601 161.301 134.001 161.501 134.101C161.701 134.101 161.901 134.301 161.901 134.601C161.901 134.801 161.901 135.101 162.001 135.101C162.101 135.101 162.401 135.001 162.501 135.101C162.501 135.101 162.501 135.401 162.901 135.101C162.901 135.101 162.901 135.101 162.901 135.301C162.701 135.701 162.801 135.701 163.101 135.601C163.301 135.501 163.401 135.601 163.401 135.601C163.601 135.701 163.701 135.801 163.901 136.001C163.901 136.101 163.901 136.401 164.001 136.601C164.001 136.801 164.401 136.601 164.301 137.001C164.301 137.301 164.301 137.401 164.401 137.501C164.401 137.501 164.401 137.801 164.801 137.501C164.401 138.301 165.301 137.601 165.401 137.901C165.401 138.201 165.801 138.301 166.001 138.401C166.001 138.401 166.001 138.601 166.301 138.401C166.401 138.301 166.501 138.401 166.401 138.401C166.201 139.001 166.601 138.801 166.601 139.001C166.701 139.201 167.101 139.101 166.901 139.701C166.901 139.901 166.901 140.101 167.301 139.701C167.501 139.501 167.401 139.701 167.501 139.701C167.501 139.701 167.801 139.501 167.901 139.501C167.901 139.501 167.901 139.801 167.901 139.901C168.501 139.501 168.301 140.501 168.701 140.501C169.101 140.501 169.301 140.801 169.501 141.001C169.601 141.101 169.701 141.401 169.201 142.401C169.001 142.901 168.701 143.301 168.401 143.601C168.201 143.801 168.001 143.901 168.001 143.901C167.901 143.901 167.701 143.901 167.501 143.901C167.201 143.901 166.701 144.301 166.701 143.901C166.701 143.801 166.401 143.901 166.701 143.501C166.001 144.001 166.001 143.401 165.701 143.201C165.501 143.101 164.901 143.401 164.801 143.101C164.301 143.501 164.201 143.301 164.201 143.101C164.201 142.201 163.501 142.301 163.101 141.901C162.701 141.501 162.201 141.201 161.801 140.801C161.801 140.801 161.401 141.001 161.501 140.701C161.501 140.401 161.401 140.501 161.301 140.401C161.301 140.401 161.001 140.401 161.101 140.201C161.201 139.401 160.601 139.401 160.401 139.101C160.101 138.801 159.901 138.401 159.501 138.201C159.201 138.101 158.801 138.201 158.701 137.901C158.701 137.801 158.301 137.901 158.701 137.401C158.701 137.301 158.401 137.401 158.301 137.401C158.101 137.401 158.001 137.201 157.901 137.001C157.701 136.801 157.601 136.601 157.401 136.501C157.301 136.501 157.001 136.501 156.801 136.401C156.601 136.401 156.501 136.201 156.501 136.001C156.501 135.801 156.501 135.501 156.401 135.301C156.401 135.101 156.001 135.101 156.001 134.801C156.201 134.201 155.701 134.101 155.501 133.701C155.301 133.401 155.101 133.101 154.801 132.801C154.601 132.701 154.901 132.201 154.801 132.101C154.801 132.101 155.901 131.101 156.301 130.801C156.301 130.801 156.501 130.801 156.501 130.701C157.001 130.601 157.701 130.301 157.801 130.501C157.901 130.801 158.201 131.001 158.401 131.301L158.601 131.201Z" fill="black"/>
</svg>
