<svg width="300" height="300" viewBox="0 0 300 300" fill="none" xmlns="http://www.w3.org/2000/svg">
<path d="M178.299 120.902C176.599 119.102 174.899 117.202 173.199 115.402C172.499 114.702 172.099 113.902 170.999 113.502C170.499 113.302 170.299 112.202 169.699 111.602C168.099 109.902 166.499 108.202 164.899 106.502C163.299 104.902 161.699 103.702 160.099 103.202C158.499 102.602 156.399 102.102 154.199 102.402C152.399 102.602 150.699 102.102 148.999 102.302C147.099 102.502 145.199 102.702 143.399 102.602C142.099 102.602 140.699 102.502 139.399 102.802C138.599 103.002 137.899 103.402 136.999 103.502C136.199 103.602 135.199 103.502 134.599 104.302C134.599 104.302 134.199 104.302 133.999 104.302C132.999 104.102 131.999 104.302 131.299 104.802C130.699 105.202 129.999 105.402 129.399 105.502C127.599 106.002 125.799 106.502 124.199 107.102C122.999 107.502 121.799 107.902 120.799 108.502C119.699 109.202 119.199 110.302 118.399 111.102C117.599 111.902 117.199 113.002 116.899 114.202C116.699 114.902 116.299 115.602 116.899 116.302C116.899 116.302 116.899 116.602 116.899 116.702C115.799 118.702 116.899 120.902 116.699 123.002C116.499 125.302 116.699 127.602 116.699 129.902C116.699 130.502 116.599 131.202 117.099 131.702C117.299 131.902 117.299 132.502 117.199 132.802C116.699 134.502 117.199 136.302 117.199 138.102C117.199 140.102 117.799 142.102 117.499 144.102C117.399 145.002 117.499 146.102 118.099 147.102C118.399 147.502 118.299 148.502 118.499 149.302C118.599 149.902 118.999 150.402 119.099 151.002C119.099 151.502 119.099 152.002 118.999 152.602C118.999 152.802 118.999 152.902 118.999 153.102C120.099 155.902 119.699 158.902 120.399 161.802C121.099 164.702 121.599 167.702 121.999 170.602C122.299 172.202 122.399 173.902 121.499 175.302C121.099 175.902 120.499 176.002 120.099 175.302C119.799 174.802 119.399 174.302 119.299 173.702C118.999 172.802 118.699 171.902 118.499 171.002C117.999 169.202 117.099 167.402 116.999 165.402C116.999 164.802 116.599 164.102 116.999 163.502C116.999 163.502 116.999 163.202 116.999 163.002C115.799 160.502 115.799 157.702 115.299 155.102C114.899 152.802 113.899 150.702 113.899 148.402C113.099 147.202 112.999 145.702 113.099 144.402C113.199 139.802 112.399 135.302 112.299 130.702C112.299 128.402 112.199 126.002 112.199 123.702C112.199 121.402 112.199 119.002 112.499 116.602C112.499 115.802 112.299 115.002 112.799 114.002C113.199 113.102 113.399 111.902 113.799 110.802C114.199 109.802 114.599 108.702 115.299 108.002C118.299 104.802 121.999 102.902 125.499 101.802C128.999 100.802 132.599 100.002 136.199 99.3016C138.399 98.8016 140.499 98.2016 142.799 98.1016C143.799 98.1016 144.699 97.6016 145.699 98.1016C145.999 98.3016 146.799 97.8016 147.499 97.7016C148.999 97.6016 150.599 97.6016 152.099 97.6016C154.199 97.6016 156.299 97.6016 158.699 98.0016C160.099 98.2016 161.599 98.3016 163.099 99.0016C164.599 99.7016 165.899 100.802 166.899 101.802C168.199 103.202 169.099 104.502 170.199 105.802C171.299 107.102 172.799 108.302 173.699 109.702C175.499 112.302 177.799 114.402 179.799 116.702C181.899 119.002 183.899 121.302 186.099 123.502C187.299 124.702 188.099 126.202 189.199 127.502C189.699 128.102 189.399 129.902 188.799 130.002C188.699 130.002 188.499 130.002 188.399 130.002C186.899 129.102 185.299 128.502 184.099 127.002C182.199 124.902 180.199 122.802 178.299 120.802V120.902Z" fill="black"/>
<path d="M167.8 135.302C168.2 135.102 168.5 135.002 168.9 134.702C169 134.702 169.3 134.702 169.2 134.202C169.2 133.902 169.6 134.402 169.7 134.402C170 134.202 170.4 134.102 170.7 133.902C171 133.702 171.2 133.302 171.5 133.102C171.8 132.902 172.3 133.102 172.5 132.602C172.7 132.202 173.1 132.602 173.3 132.302C173.5 132.102 173.8 131.902 174.2 132.002C174.5 132.002 174.8 132.202 174.9 132.002C174.9 131.902 174.9 131.502 175.1 131.502C175.2 131.502 175.5 131.702 175.4 131.002C175.4 131.002 175.4 131.002 175.6 131.002C175.9 131.302 176.1 131.202 176.1 131.002C176.1 130.702 176.2 130.702 176.3 130.602C176.6 130.502 176.9 130.302 177.2 130.302C177.4 130.302 177.7 130.302 178 130.302C178.2 130.302 178.4 129.902 178.7 130.102C179 130.302 179.2 130.202 179.4 130.102C179.5 130.102 179.8 130.302 179.6 129.602C180.2 130.302 180.2 129.102 180.6 129.202C181 129.202 181.3 129.002 181.7 128.902C181.7 128.902 182 129.002 181.9 128.502C181.9 128.302 181.9 128.302 182.1 128.402C182.6 128.902 182.7 128.402 183 128.402C183.3 128.402 183.6 128.002 184 128.402C184.2 128.602 184.4 128.602 184.4 128.002C184.4 127.702 184.6 128.002 184.7 127.802C184.7 127.802 184.7 127.402 184.9 127.402C184.9 127.402 185.1 127.602 185.2 127.702C185.5 126.902 186.2 127.702 186.6 127.302C187 127.002 187.5 126.902 188 126.902C188.3 126.902 188.6 126.902 189.1 128.002C189.3 128.502 189.5 129.002 189.4 129.402C189.4 129.702 189.4 129.902 189.3 130.002C189.2 130.102 189.1 130.302 189 130.402C188.8 130.702 188.6 131.302 188.3 131.102C188.2 131.102 188.2 131.402 187.9 130.902C187.7 131.802 187.2 131.402 186.8 131.602C186.5 131.802 186.3 132.502 185.9 132.302C185.9 133.002 185.7 132.902 185.4 132.802C184.5 132.402 184 133.002 183.3 133.202C182.6 133.302 182 133.702 181.3 133.902C181.2 133.902 181.3 134.302 181 134.102C180.8 133.902 180.7 134.102 180.5 134.202C180.4 134.202 180.3 134.402 180.1 134.302C179.3 133.902 179 134.502 178.4 134.602C177.9 134.702 177.3 134.902 176.9 135.302C176.6 135.502 176.5 136.002 176.1 136.002C175.9 136.002 175.9 136.402 175.6 135.902C175.5 135.802 175.6 136.202 175.5 136.302C175.3 136.402 175.1 136.502 174.9 136.602C174.6 136.702 174.3 136.802 174 137.002C173.8 137.102 173.8 137.402 173.6 137.602C173.4 137.702 173.3 137.802 173 137.902C172.7 137.902 172.4 137.902 172.1 137.902C171.8 137.902 171.7 138.302 171.3 138.202C170.6 138.002 170.3 138.402 169.9 138.602C169.4 138.802 169 138.902 168.6 139.302C168.4 139.502 167.9 139.202 167.7 139.302C167.6 139.302 166.8 138.102 166.6 137.702V137.502C166.6 137.002 166.5 136.202 166.8 136.102C167.2 136.002 167.6 135.702 168 135.502L167.8 135.302Z" fill="black"/>
<path d="M170.398 154.202C170.398 153.902 170.298 153.502 170.098 153.202C170.098 153.102 170.298 152.902 169.698 152.902C169.398 152.902 169.998 152.602 169.998 152.502C169.898 152.202 169.898 151.902 169.698 151.602C169.598 151.302 169.298 151.102 169.098 150.802C168.998 150.502 169.098 150.102 168.798 149.902C168.498 149.702 168.898 149.402 168.798 149.202C168.598 149.002 168.498 148.702 168.598 148.402C168.698 148.202 168.898 148.002 168.698 147.802C168.698 147.802 168.298 147.702 168.298 147.602C168.298 147.502 168.498 147.302 167.898 147.302C167.898 147.302 167.898 147.302 167.998 147.202C168.398 147.002 168.298 146.802 167.998 146.802C167.698 146.802 167.698 146.702 167.698 146.602C167.698 146.402 167.498 146.102 167.498 145.902C167.498 145.702 167.698 145.502 167.698 145.302C167.698 145.102 167.398 145.002 167.698 144.702C167.998 144.402 167.898 144.302 167.798 144.102C167.798 144.102 167.998 143.802 167.398 143.902C168.098 143.402 166.998 143.402 167.098 143.102C167.198 142.802 167.098 142.502 166.898 142.202C166.898 142.202 166.998 142.002 166.598 142.002C166.398 142.002 166.398 142.002 166.498 141.902C166.998 141.502 166.598 141.402 166.698 141.102C166.698 140.802 166.398 140.602 166.698 140.202C166.898 140.002 166.898 139.902 166.298 139.902C165.998 139.902 166.298 139.702 166.198 139.602C166.198 139.602 165.798 139.602 165.798 139.502C165.798 139.502 165.998 139.302 166.098 139.202C165.398 139.002 166.098 138.402 165.798 138.102C165.498 137.802 165.498 137.402 165.398 137.002C165.398 136.802 165.398 136.502 166.498 136.002C166.998 135.802 167.498 135.602 167.798 135.602C167.998 135.602 168.298 135.602 168.398 135.602C168.498 135.602 168.698 135.802 168.798 135.902C169.098 136.102 169.698 136.202 169.498 136.502C169.498 136.602 169.798 136.602 169.298 136.802C170.198 136.902 169.798 137.402 169.898 137.802C169.998 138.102 170.698 138.202 170.498 138.602C171.198 138.602 171.098 138.802 170.998 139.002C170.498 139.802 171.098 140.202 171.198 140.902C171.198 141.502 171.498 142.102 171.598 142.702C171.598 142.802 171.998 142.802 171.798 143.002C171.598 143.202 171.798 143.302 171.798 143.402C171.798 143.502 171.998 143.602 171.798 143.802C171.298 144.402 171.798 144.802 171.798 145.302C171.798 145.802 171.798 146.302 172.198 146.702C172.398 147.002 172.798 147.202 172.698 147.502C172.698 147.602 172.998 147.702 172.498 147.902C172.298 147.902 172.798 147.902 172.898 148.102C172.898 148.302 172.998 148.502 173.098 148.702C173.098 149.002 173.098 149.302 173.298 149.502C173.298 149.702 173.698 149.802 173.798 149.902C173.898 150.102 173.898 150.202 173.898 150.402C173.898 150.602 173.698 150.902 173.698 151.102C173.698 151.302 173.998 151.502 173.798 151.802C173.398 152.302 173.798 152.702 173.798 153.102C173.798 153.502 173.898 153.902 174.098 154.302C174.198 154.502 173.798 154.802 173.898 155.102C173.898 155.102 172.498 155.702 171.998 155.802H171.798C171.298 155.802 170.498 155.802 170.498 155.402C170.498 155.002 170.298 154.702 170.198 154.302L170.398 154.202Z" fill="black"/>
<path d="M163.999 174.203C164.099 173.803 164.299 173.403 164.299 173.003C164.299 172.803 164.599 172.803 164.199 172.503C163.999 172.303 164.599 172.403 164.599 172.203C164.599 171.803 164.899 171.503 164.899 171.103C164.899 170.703 164.899 170.303 164.899 169.903C164.899 169.503 165.399 169.303 165.199 168.803C164.999 168.403 165.599 168.303 165.599 168.003C165.599 167.703 165.599 167.303 165.899 167.103C166.099 166.903 166.399 166.803 166.399 166.603C166.399 166.403 166.099 166.203 166.199 166.103C166.199 166.003 166.599 165.903 165.999 165.603C165.999 165.603 165.999 165.603 166.199 165.603C166.599 165.603 166.699 165.403 166.399 165.203C166.199 165.003 166.299 164.903 166.299 164.803C166.299 164.503 166.399 164.203 166.599 163.903C166.699 163.703 166.999 163.603 167.199 163.403C167.299 163.203 167.199 162.903 167.499 162.703C167.899 162.603 167.899 162.403 167.999 162.203C167.999 162.103 168.399 162.003 167.799 161.703C168.699 161.703 167.799 161.003 168.099 160.703C168.399 160.403 168.399 160.003 168.499 159.703C168.499 159.703 168.699 159.603 168.299 159.303C168.199 159.303 168.199 159.103 168.299 159.103C168.999 159.103 168.699 158.603 168.899 158.403C169.099 158.103 168.899 157.703 169.499 157.603C169.699 157.603 169.899 157.403 169.399 157.103C169.199 156.903 169.399 156.903 169.399 156.803C169.399 156.703 169.099 156.503 169.199 156.403C169.199 156.403 169.499 156.403 169.599 156.303C169.099 155.703 170.099 155.503 169.999 155.003C169.999 154.703 169.999 154.603 169.999 154.303C169.999 154.003 170.199 153.703 170.399 153.303C170.599 152.903 171.099 152.503 172.199 153.103C172.699 153.303 173.099 153.703 173.299 154.003C173.399 154.203 173.599 154.403 173.599 154.503C173.599 154.603 173.699 154.803 173.799 154.903C173.899 155.103 174.399 155.403 173.999 155.703C173.899 155.703 174.099 156.003 173.599 155.903C174.299 156.503 173.599 156.903 173.599 157.303C173.599 157.703 173.999 158.203 173.599 158.503C174.099 158.903 173.999 159.103 173.699 159.203C172.799 159.703 172.999 160.503 172.699 161.203C172.399 161.903 172.199 162.603 171.899 163.303C171.899 163.403 172.199 163.603 171.899 163.703C171.599 163.703 171.699 164.003 171.699 164.103C171.699 164.203 171.699 164.403 171.499 164.503C170.699 164.803 170.899 165.503 170.599 166.003C170.299 166.503 170.099 167.003 170.099 167.603C170.099 168.003 170.299 168.403 170.099 168.703C169.999 168.803 170.299 169.103 169.699 169.003C169.499 169.003 169.899 169.303 169.899 169.403C169.899 169.603 169.799 169.903 169.699 170.103C169.599 170.403 169.399 170.703 169.399 171.103C169.399 171.303 169.499 171.603 169.499 171.803C169.499 172.003 169.499 172.203 169.299 172.403C169.099 172.603 168.899 172.803 168.699 173.103C168.599 173.303 168.699 173.703 168.399 173.903C167.799 174.203 167.899 174.803 167.699 175.203C167.499 175.603 167.299 176.103 167.299 176.603C167.299 176.903 166.799 177.003 166.699 177.203C166.699 177.303 165.199 177.203 164.699 177.003H164.499C164.099 176.603 163.499 176.203 163.599 175.903C163.799 175.403 163.899 175.003 163.999 174.503V174.203Z" fill="black"/>
<path d="M159.299 156.101C159.199 155.801 159.099 155.601 158.899 155.401C158.899 155.401 158.899 155.101 158.499 155.401C158.299 155.501 158.699 155.101 158.599 155.001C158.399 154.801 158.299 154.601 157.999 154.501C157.799 154.401 157.399 154.401 157.199 154.301C156.999 154.301 156.899 153.901 156.599 154.101C156.299 154.301 156.299 153.801 156.099 153.801C155.899 153.801 155.699 153.801 155.499 153.601C155.399 153.401 155.299 153.201 155.099 153.301C154.999 153.301 154.899 153.701 154.799 153.701C154.799 153.701 154.599 153.401 154.499 154.001C154.499 154.001 154.499 154.001 154.499 153.901C154.399 153.501 154.299 153.501 154.199 153.901C154.199 154.201 154.099 154.101 153.999 154.201C153.799 154.201 153.699 154.301 153.499 154.301C153.399 154.301 153.199 154.101 152.999 154.101C152.799 154.101 152.799 154.401 152.499 154.201C152.199 154.001 152.099 154.201 151.999 154.201C151.999 154.201 151.699 154.101 151.999 154.601C151.299 154.101 151.799 155.101 151.499 155.101C151.199 155.101 151.099 155.401 150.899 155.701C150.899 155.701 150.699 155.701 150.899 156.001C150.999 156.101 150.899 156.201 150.899 156.101C150.299 155.901 150.499 156.301 150.299 156.401C150.099 156.501 150.299 156.901 149.699 156.901C149.499 156.901 149.299 157.001 149.699 157.401C149.899 157.601 149.699 157.601 149.699 157.701L149.899 158.001C149.899 158.001 149.599 158.001 149.499 158.001C149.999 158.601 149.099 158.601 149.099 159.101C149.099 159.501 149.099 159.901 148.899 160.301C148.899 160.501 148.599 160.701 147.399 160.701C146.899 160.701 146.299 160.701 145.999 160.501C145.799 160.401 145.599 160.301 145.499 160.201C145.499 160.001 145.299 159.901 145.199 159.701C145.099 159.401 144.599 158.901 144.899 158.701C144.999 158.701 144.699 158.401 145.299 158.501C144.599 157.901 145.299 157.501 145.299 157.101C145.299 156.701 144.899 156.101 145.299 155.801C144.799 155.301 144.999 155.101 145.299 155.001C146.299 154.501 146.299 153.601 146.999 153.001C147.599 152.401 148.199 151.701 148.899 151.201C148.999 151.201 148.899 150.701 149.199 150.901C149.499 151.001 149.599 150.701 149.699 150.601C149.899 150.601 149.999 150.301 150.199 150.401C151.099 150.701 151.599 150.101 152.399 150.001C153.099 150.001 153.799 150.001 154.499 149.701C154.899 149.701 155.399 149.301 155.799 149.501C155.999 149.501 156.199 149.301 156.299 149.901C156.299 150.101 156.599 149.701 156.699 149.701C156.999 149.701 157.299 149.901 157.599 150.001C157.999 150.201 158.399 150.401 158.799 150.501C158.999 150.501 159.399 150.501 159.699 150.601C159.999 150.701 160.199 150.901 160.399 151.101C160.599 151.401 160.699 151.801 160.899 152.101C161.099 152.401 161.599 152.501 161.499 153.001C161.499 153.801 161.999 154.201 162.199 154.701C162.399 155.301 162.599 155.801 162.799 156.401C162.999 156.701 162.499 157.101 162.599 157.401C162.599 157.601 161.199 157.901 160.699 157.901H160.499C159.999 157.701 159.299 157.701 159.299 157.401C159.299 157.101 159.199 156.801 158.999 156.501L159.299 156.101Z" fill="black"/>
<path d="M151.2 125.402C151 125.602 150.7 125.702 150.6 125.902C150.6 125.902 150.3 125.902 150.6 126.302C150.7 126.502 150.2 126.102 150.2 126.202C150 126.402 149.8 126.502 149.6 126.702C149.5 126.902 149.4 127.202 149.3 127.402C149.2 127.602 148.8 127.602 148.8 128.002C148.8 128.302 148.4 128.102 148.3 128.302C148.3 128.502 148.1 128.702 147.8 128.702C147.6 128.702 147.3 128.702 147.3 128.802C147.3 128.902 147.4 129.202 147.3 129.302C147.3 129.302 147 129.302 147.3 129.702C147.3 129.702 147.3 129.702 147.1 129.702C146.7 129.502 146.7 129.602 146.8 129.902C146.9 130.102 146.8 130.202 146.8 130.202C146.7 130.402 146.6 130.502 146.4 130.702C146.3 130.702 146 130.702 145.8 130.802C145.6 130.802 145.8 131.202 145.4 131.102C145.1 131.102 145 131.102 144.9 131.202C144.9 131.202 144.6 131.202 144.9 131.602C144.1 131.202 144.8 132.102 144.5 132.202C144.2 132.202 144.1 132.602 144 132.802C144 132.802 143.8 132.802 144 133.102C144.1 133.202 144 133.302 144 133.202C143.4 133.002 143.6 133.402 143.4 133.402C143.2 133.502 143.3 133.902 142.7 133.702C142.5 133.702 142.3 133.702 142.7 134.102C142.9 134.302 142.7 134.202 142.7 134.302C142.7 134.302 142.9 134.602 142.9 134.702C142.9 134.702 142.6 134.702 142.5 134.702C142.9 135.302 141.9 135.102 141.9 135.502C141.9 135.902 141.6 136.102 141.4 136.302C141.3 136.402 141 136.502 140 136.002C139.5 135.802 139.1 135.502 138.8 135.202C138.6 135.002 138.5 134.802 138.5 134.802C138.5 134.702 138.5 134.502 138.5 134.302C138.5 134.002 138.1 133.502 138.5 133.502C138.6 133.502 138.5 133.202 138.9 133.502C138.4 132.802 139 132.802 139.2 132.502C139.3 132.302 139 131.702 139.3 131.602C138.9 131.102 139.1 131.002 139.3 131.002C140.2 131.002 140.1 130.302 140.5 129.902C140.9 129.502 141.2 129.002 141.6 128.602C141.6 128.602 141.4 128.202 141.7 128.302C142 128.302 141.9 128.202 142 128.102C142 128.102 142 127.802 142.2 127.902C143 128.002 143 127.402 143.3 127.202C143.6 126.902 144 126.702 144.2 126.302C144.3 126.002 144.2 125.602 144.5 125.502C144.6 125.502 144.5 125.102 145 125.502C145.1 125.502 145 125.202 145 125.102C145 124.902 145.2 124.802 145.4 124.702C145.6 124.502 145.8 124.402 145.9 124.202C145.9 124.102 145.9 123.802 146 123.602C146 123.402 146.2 123.302 146.4 123.302C146.6 123.302 146.9 123.302 147.1 123.202C147.3 123.202 147.3 122.802 147.6 122.802C148.2 123.002 148.3 122.502 148.7 122.302C149 122.102 149.3 121.902 149.6 121.602C149.7 121.402 150.2 121.702 150.3 121.602C150.3 121.602 151.3 122.702 151.6 123.102C151.6 123.102 151.6 123.302 151.7 123.302C151.8 123.802 152.1 124.502 151.9 124.602C151.6 124.702 151.4 125.002 151.1 125.202L151.2 125.402Z" fill="black"/>
<path d="M141.3 122.201C141.5 122.401 141.6 122.701 141.8 122.801C141.8 122.801 141.8 123.101 142.2 122.801C142.4 122.701 142 123.201 142.1 123.201C142.3 123.401 142.4 123.601 142.6 123.801C142.8 123.901 143.1 124.001 143.4 124.101C143.6 124.201 143.6 124.601 144 124.601C144.3 124.601 144.1 125.001 144.3 125.101C144.5 125.101 144.7 125.301 144.7 125.601C144.7 125.801 144.7 126.101 144.8 126.101C144.9 126.101 145.2 126.001 145.3 126.101C145.3 126.101 145.3 126.401 145.7 126.101C145.7 126.101 145.7 126.101 145.7 126.301C145.5 126.701 145.6 126.701 145.9 126.601C146.1 126.501 146.2 126.601 146.2 126.601C146.4 126.701 146.5 126.801 146.7 127.001C146.7 127.101 146.7 127.401 146.8 127.601C146.8 127.801 147.2 127.601 147.1 128.001C147.1 128.301 147.1 128.401 147.2 128.501C147.2 128.501 147.2 128.801 147.6 128.501C147.2 129.301 148.1 128.601 148.2 128.901C148.2 129.201 148.6 129.301 148.8 129.401C148.8 129.401 148.8 129.601 149.1 129.401C149.2 129.301 149.3 129.401 149.2 129.401C149 130.001 149.4 129.801 149.4 130.001C149.5 130.201 149.9 130.101 149.7 130.701C149.7 130.901 149.7 131.101 150.1 130.701C150.3 130.501 150.2 130.701 150.3 130.701C150.3 130.701 150.6 130.501 150.7 130.501C150.7 130.501 150.7 130.801 150.7 130.901C151.3 130.501 151.1 131.501 151.5 131.501C151.9 131.501 152.1 131.801 152.3 132.001C152.4 132.101 152.5 132.401 152 133.401C151.8 133.901 151.5 134.301 151.2 134.601C151 134.801 150.8 134.901 150.8 134.901C150.7 134.901 150.5 134.901 150.3 134.901C150 134.901 149.5 135.301 149.5 134.901C149.5 134.801 149.2 134.901 149.5 134.501C148.8 135.001 148.8 134.401 148.5 134.201C148.3 134.101 147.7 134.401 147.6 134.101C147.1 134.501 147 134.301 147 134.101C147 133.201 146.3 133.301 145.9 132.901C145.5 132.501 145 132.201 144.6 131.801C144.6 131.801 144.2 132.001 144.3 131.701C144.3 131.401 144.2 131.501 144.1 131.401C144.1 131.401 143.8 131.401 143.9 131.201C144 130.401 143.4 130.401 143.2 130.101C142.9 129.801 142.7 129.401 142.3 129.201C142 129.101 141.6 129.201 141.5 128.901C141.5 128.801 141.1 128.901 141.5 128.401C141.5 128.301 141.2 128.401 141.1 128.401C140.9 128.401 140.8 128.201 140.7 128.001C140.5 127.801 140.4 127.601 140.2 127.501C140.1 127.501 139.8 127.501 139.6 127.401C139.4 127.401 139.3 127.201 139.3 127.001C139.3 126.801 139.3 126.501 139.2 126.301C139.2 126.101 138.8 126.101 138.8 125.801C139 125.201 138.5 125.101 138.3 124.701C138.1 124.401 137.9 124.101 137.6 123.801C137.4 123.701 137.7 123.201 137.6 123.101C137.6 123.101 138.7 122.101 139.1 121.801C139.1 121.801 139.3 121.801 139.3 121.701C139.8 121.601 140.5 121.301 140.6 121.501C140.7 121.801 141 122.001 141.2 122.301L141.3 122.201Z" fill="black"/>
<path d="M170.2 122.402C170 122.602 169.7 122.702 169.6 122.902C169.6 122.902 169.3 122.902 169.6 123.302C169.7 123.502 169.2 123.102 169.2 123.202C169 123.402 168.8 123.502 168.6 123.702C168.5 123.902 168.4 124.202 168.3 124.402C168.2 124.602 167.8 124.602 167.8 125.002C167.8 125.302 167.4 125.102 167.3 125.302C167.3 125.502 167.1 125.702 166.8 125.702C166.6 125.702 166.3 125.702 166.3 125.802C166.3 125.902 166.4 126.202 166.3 126.302C166.3 126.302 166 126.302 166.3 126.702C166.3 126.702 166.3 126.702 166.1 126.702C165.7 126.502 165.7 126.602 165.8 126.902C165.9 127.102 165.8 127.202 165.8 127.202C165.7 127.402 165.6 127.502 165.4 127.702C165.3 127.702 165 127.702 164.8 127.802C164.6 127.802 164.8 128.202 164.4 128.102C164.1 128.102 164 128.102 163.9 128.202C163.9 128.202 163.6 128.202 163.9 128.602C163.1 128.202 163.8 129.102 163.5 129.202C163.2 129.202 163.1 129.602 163 129.802C163 129.802 162.8 129.802 163 130.102C163.1 130.202 163 130.302 163 130.202C162.4 130.002 162.6 130.402 162.4 130.402C162.2 130.502 162.3 130.902 161.7 130.702C161.5 130.702 161.3 130.702 161.7 131.102C161.9 131.302 161.7 131.202 161.7 131.302C161.7 131.302 161.9 131.602 161.9 131.702C161.9 131.702 161.6 131.702 161.5 131.702C161.9 132.302 160.9 132.102 160.9 132.502C160.9 132.902 160.6 133.102 160.4 133.302C160.3 133.402 160 133.502 159 133.002C158.5 132.802 158.1 132.502 157.8 132.202C157.6 132.002 157.5 131.802 157.5 131.802C157.5 131.702 157.5 131.502 157.5 131.302C157.5 131.002 157.1 130.502 157.5 130.502C157.6 130.502 157.5 130.202 157.9 130.502C157.4 129.802 158 129.802 158.2 129.502C158.3 129.302 158 128.702 158.3 128.602C157.9 128.102 158.1 128.002 158.3 128.002C159.2 128.002 159.1 127.302 159.5 126.902C159.9 126.502 160.2 126.002 160.6 125.602C160.6 125.602 160.4 125.202 160.7 125.302C161 125.302 160.9 125.202 161 125.102C161 125.102 161 124.802 161.2 124.902C162 125.002 162 124.402 162.3 124.202C162.6 123.902 163 123.702 163.2 123.302C163.3 123.002 163.2 122.602 163.5 122.502C163.6 122.502 163.5 122.102 164 122.502C164.1 122.502 164 122.202 164 122.102C164 121.902 164.2 121.802 164.4 121.702C164.6 121.502 164.8 121.402 164.9 121.202C164.9 121.102 164.9 120.802 165 120.602C165 120.402 165.2 120.302 165.4 120.302C165.6 120.302 165.9 120.302 166.1 120.202C166.3 120.202 166.3 119.802 166.6 119.802C167.2 120.002 167.3 119.502 167.7 119.302C168 119.102 168.3 118.902 168.6 118.602C168.7 118.402 169.2 118.702 169.3 118.602C169.3 118.602 170.3 119.702 170.6 120.102C170.6 120.102 170.6 120.302 170.7 120.302C170.8 120.802 171.1 121.502 170.9 121.602C170.6 121.702 170.4 122.002 170.1 122.202L170.2 122.402Z" fill="black"/>
<path d="M160.399 119.201C160.599 119.401 160.699 119.701 160.899 119.801C160.899 119.801 160.899 120.101 161.299 119.801C161.499 119.701 161.099 120.201 161.199 120.201C161.399 120.401 161.499 120.601 161.699 120.801C161.899 120.901 162.199 121.001 162.499 121.101C162.699 121.201 162.699 121.601 163.099 121.601C163.399 121.601 163.199 122.001 163.399 122.101C163.599 122.101 163.799 122.301 163.799 122.601C163.799 122.801 163.799 123.101 163.899 123.101C163.999 123.101 164.299 123.001 164.399 123.101C164.399 123.101 164.399 123.401 164.799 123.101C164.799 123.101 164.799 123.101 164.799 123.301C164.599 123.701 164.699 123.701 164.999 123.601C165.199 123.501 165.299 123.601 165.299 123.601C165.499 123.701 165.599 123.801 165.799 124.001C165.799 124.101 165.799 124.401 165.899 124.601C165.899 124.801 166.299 124.601 166.199 125.001C166.199 125.301 166.199 125.401 166.299 125.501C166.299 125.501 166.299 125.801 166.699 125.501C166.299 126.301 167.199 125.601 167.299 125.901C167.299 126.201 167.699 126.301 167.899 126.401C167.899 126.401 167.899 126.601 168.199 126.401C168.299 126.301 168.399 126.401 168.299 126.401C168.099 127.001 168.499 126.801 168.499 127.001C168.599 127.201 168.999 127.101 168.799 127.701C168.799 127.901 168.799 128.101 169.199 127.701C169.399 127.501 169.299 127.701 169.399 127.701C169.399 127.701 169.699 127.501 169.799 127.501C169.799 127.501 169.799 127.801 169.799 127.901C170.399 127.501 170.199 128.501 170.599 128.501C170.999 128.501 171.199 128.801 171.399 129.001C171.499 129.101 171.599 129.401 171.099 130.401C170.899 130.901 170.599 131.301 170.299 131.601C170.099 131.801 169.899 131.901 169.899 131.901C169.799 131.901 169.599 131.901 169.399 131.901C169.099 131.901 168.599 132.301 168.599 131.901C168.599 131.801 168.299 131.901 168.599 131.501C167.899 132.001 167.899 131.401 167.599 131.201C167.399 131.101 166.799 131.401 166.699 131.101C166.199 131.501 166.099 131.301 166.099 131.101C166.099 130.201 165.399 130.301 164.999 129.901C164.599 129.501 164.099 129.201 163.699 128.801C163.699 128.801 163.299 129.001 163.399 128.701C163.399 128.401 163.299 128.501 163.199 128.401C163.199 128.401 162.899 128.401 162.999 128.201C163.099 127.401 162.499 127.401 162.299 127.101C161.999 126.801 161.799 126.401 161.399 126.201C161.099 126.101 160.699 126.201 160.599 125.901C160.599 125.801 160.199 125.901 160.599 125.401C160.599 125.301 160.299 125.401 160.199 125.401C159.999 125.401 159.899 125.201 159.799 125.001C159.599 124.801 159.499 124.601 159.299 124.501C159.199 124.501 158.899 124.501 158.699 124.401C158.499 124.401 158.399 124.201 158.399 124.001C158.399 123.801 158.399 123.501 158.299 123.301C158.299 123.101 157.899 123.101 157.899 122.801C158.099 122.201 157.599 122.101 157.399 121.701C157.199 121.401 156.999 121.101 156.699 120.801C156.499 120.701 156.799 120.201 156.699 120.101C156.699 120.101 157.799 119.101 158.199 118.801C158.199 118.801 158.399 118.801 158.399 118.701C158.899 118.601 159.599 118.301 159.699 118.501C159.799 118.801 160.099 119.001 160.299 119.301L160.399 119.201Z" fill="black"/>
<path d="M148.5 173.9C146.8 173 145 172.1 143.3 171C142.6 170.6 142.2 169.9 141.2 169.9C140.7 169.9 140.5 168.9 140 168.4C138.5 167.2 137.3 165.7 136.1 164.3C134.9 162.9 133.7 161.6 132.7 160.1C131.7 158.6 131 156.9 129.9 155.5C129 154.3 128.8 152.8 128.2 151.5C127.5 150.1 126.9 148.6 126.8 147C126.8 145.9 126.8 144.8 126.4 143.8C126.2 143.2 125.7 142.6 125.7 141.8C125.7 141.1 125.8 140.3 125.1 139.8C125.1 139.8 125.1 139.4 125.2 139.3C125.5 138.5 125.5 137.6 125.2 137C124.9 136.4 124.9 135.9 124.9 135.3C124.9 133.8 124.9 132.2 124.9 130.7C125 129.6 125.3 128.4 125.6 127.3C125.8 126.1 125.7 124.8 126.2 123.8C126.7 122.8 126.9 121.7 127.2 120.7C127.4 120.1 127.8 119.5 127.3 118.8C127.3 118.8 127.3 118.5 127.4 118.4C128.7 117 128.2 114.9 129.3 113.2C129.9 112.4 130.4 111.5 131.1 110.6C131.4 110.2 131.8 109.8 132.1 109.4C132.4 109 132.8 108.7 133.2 108.3C133.6 107.9 134.1 107.7 134.3 107.1C134.3 106.9 134.8 106.5 135.1 106.5C136.7 106.2 137.8 105.1 139.2 104.6C140.8 104 142.2 103.2 144 103.2C144.7 103.2 145.6 103.1 146.3 102.3C146.6 102 147.4 102.1 148 101.9C148.5 101.8 148.9 101.4 149.4 101.3C149.8 101.3 150.2 101.3 150.7 101.5C150.8 101.5 151 101.5 151.1 101.5C152.2 101 153.4 100.9 154.5 100.9C155.7 100.9 156.7 100.9 158 100.7C160.4 100.3 163.1 100.4 165.7 101.3C167.1 101.8 168.5 102.8 168.6 104.3C168.6 105 168.3 105.4 167.7 105.3C167.3 105.3 166.8 105.3 166.4 105.1C165.8 104.9 165.1 104.8 164.5 104.7C163.2 104.5 161.9 104.9 160.5 104.7C160.1 104.7 159.6 104.9 159.2 104.4C159.2 104.4 159 104.4 158.9 104.4C158 104.9 157 105 156 105.1C155 105.1 153.9 105.1 152.9 105.4C151.2 105.7 149.7 106.5 148 106.6C147.2 107.4 146.2 107.5 145.3 107.6C142 107.9 139.2 109.7 136.8 111.6C135.5 112.6 134.6 113.6 133.9 114.9C133.2 116.2 132.6 117.7 132.1 119.3C131.9 119.8 132.1 120.4 131.7 121C131.3 121.5 131.3 122.4 131.1 123.1C131 123.8 130.9 124.5 130.7 125.1C129.6 127.6 129.7 130.3 129.6 133C129.5 135.6 129.6 138.3 130.1 140.9C130.2 141.7 130.5 142.5 130.7 143.2C130.9 144 131.1 144.7 131.2 145.5C131.2 146.2 131.8 146.7 131.4 147.6C131.3 147.8 131.9 148.3 132.1 148.7C132.5 149.7 132.9 150.7 133.4 151.7C134 153.1 134.7 154.4 135.6 155.7C136.1 156.5 136.8 157.1 137.4 157.9C138 158.7 138.6 159.5 139.1 160.3C139.8 161.3 140.4 162.4 141.1 163.4C141.9 164.4 143 165.1 143.7 166C145.1 167.8 147.2 168.7 149.2 169.8C151.2 170.9 153.4 171.9 155.6 172.9C156.9 173.5 157.7 174.5 158.9 175.2C159.5 175.6 159.3 177.2 158.9 177.5C158.9 177.5 158.7 177.5 158.6 177.5C157.3 177.2 156 177.3 154.7 176.6C152.9 175.6 150.9 174.7 148.9 173.7L148.5 173.9Z" fill="black"/>
<path d="M109.4 191.499C109.5 191.099 109.7 190.699 109.8 190.299C109.8 190.199 110.1 190.099 109.8 189.799C109.6 189.599 110.2 189.799 110.3 189.599C110.3 189.199 110.6 188.999 110.8 188.599C110.9 188.299 110.8 187.899 111 187.499C111.1 187.199 111.5 186.999 111.4 186.599C111.3 186.199 111.8 186.199 111.9 185.899C111.9 185.599 111.9 185.299 112.3 185.199C112.5 185.199 112.8 184.999 112.8 184.799C112.8 184.699 112.6 184.399 112.7 184.299C112.7 184.199 113.1 184.299 112.6 183.799C112.6 183.799 112.6 183.799 112.8 183.799C113.2 183.799 113.3 183.799 113.1 183.499C112.9 183.299 113 183.199 113.1 183.099C113.2 182.799 113.3 182.599 113.5 182.399C113.6 182.199 114 182.199 114.1 181.999C114.3 181.799 114.1 181.499 114.5 181.499C114.9 181.499 115 181.299 115.1 181.099C115.1 181.099 115.5 181.099 115 180.599C115.9 180.699 115.1 179.899 115.4 179.699C115.8 179.499 115.8 179.099 116 178.799C116 178.799 116.3 178.799 115.9 178.399C115.8 178.299 115.9 178.199 115.9 178.199C116.6 178.199 116.4 177.899 116.6 177.699C116.9 177.499 116.8 177.099 117.3 177.099C117.5 177.099 117.7 177.099 117.3 176.599C117.1 176.399 117.4 176.399 117.4 176.299C117.4 176.199 117.2 175.999 117.3 175.899C117.3 175.899 117.6 175.899 117.7 175.899C117.4 175.199 118.4 175.299 118.4 174.799C118.4 174.299 118.8 173.999 119.1 173.699C119.3 173.499 119.6 173.399 120.6 173.899C121.1 174.099 121.5 174.399 121.8 174.699C122 174.899 122.1 175.099 122.1 175.199C122.1 175.399 122.1 175.599 122.1 175.699C122.1 175.999 122.4 176.599 122.1 176.699C122 176.699 122.1 176.999 121.7 176.699C122.2 177.399 121.5 177.499 121.4 177.899C121.3 178.199 121.6 178.799 121.2 178.999C121.6 179.499 121.4 179.599 121.2 179.699C120.3 179.899 120.3 180.699 119.9 181.199C119.5 181.699 119.2 182.399 118.9 182.899C118.9 182.899 119.1 183.299 118.8 183.199C118.5 183.199 118.6 183.399 118.5 183.499C118.5 183.599 118.5 183.799 118.3 183.799C117.5 183.899 117.6 184.599 117.2 184.999C116.9 185.399 116.6 185.899 116.5 186.399C116.5 186.699 116.5 187.199 116.3 187.399C116.2 187.399 116.4 187.799 115.8 187.599C115.6 187.599 116 187.899 115.9 187.999C115.9 188.199 115.7 188.399 115.6 188.599C115.5 188.899 115.3 189.099 115.2 189.399C115.2 189.599 115.2 189.899 115.2 189.999C115.2 190.199 115.1 190.399 114.9 190.499C114.7 190.699 114.4 190.799 114.3 190.999C114.1 191.199 114.3 191.499 113.9 191.599C113.3 191.799 113.3 192.199 113.1 192.599C112.9 192.899 112.8 193.299 112.8 193.699C112.8 193.899 112.3 193.999 112.3 194.199C112.3 194.199 110.8 194.299 110.3 194.199H110.1C109.7 193.899 109 193.499 109.1 193.199C109.3 192.699 109.4 192.199 109.5 191.699L109.4 191.499Z" fill="black"/>
<path d="M169.099 176.501C169.499 177.501 169.799 178.501 170.199 179.601C170.299 180.001 170.199 180.501 170.799 180.801C171.099 181.001 170.599 181.501 170.699 181.901C170.999 183.001 170.899 184.201 170.699 185.401C170.599 186.601 170.399 187.801 169.899 188.901C169.399 190.001 168.499 190.701 167.999 191.701C167.599 192.601 166.699 192.801 166.199 193.401C165.599 194.101 164.999 194.701 164.299 195.001C163.699 195.201 163.199 195.501 162.699 195.901C162.399 196.201 162.199 196.701 161.699 196.901C161.199 197.101 160.599 197.101 160.299 197.801C160.299 197.801 159.999 197.801 159.899 197.801C159.299 197.501 158.699 197.601 158.299 197.801C157.899 198.101 157.599 198.001 157.299 198.001C156.399 198.001 155.499 198.001 154.699 197.801C154.099 197.701 153.399 197.301 152.799 197.201C152.099 197.001 151.399 197.201 150.799 196.701C150.299 196.301 149.699 196.101 149.099 196.001C148.799 196.001 148.499 195.501 147.999 196.001H147.799C147.099 194.901 145.899 195.701 144.999 195.101C144.099 194.501 143.099 194.301 142.099 193.901C141.799 193.801 141.699 193.501 141.199 193.901C141.099 194.001 140.799 193.901 140.699 193.701C140.299 192.801 139.399 192.801 138.699 192.401C137.999 191.901 136.999 191.701 136.499 190.901C136.299 190.501 135.899 190.201 135.199 190.501C134.899 190.601 134.699 190.201 134.299 190.101C133.999 190.101 133.699 190.101 133.499 190.001C133.299 189.901 133.199 189.601 133.099 189.401C133.099 189.401 132.999 189.301 132.899 189.301C131.499 189.301 130.899 187.801 129.699 187.201C128.499 186.701 127.499 185.901 126.499 185.101C125.899 184.701 125.399 184.101 125.699 182.901C125.799 182.401 126.099 181.901 126.499 181.801C126.799 181.801 127.099 181.701 127.399 181.801C127.799 181.901 128.199 182.101 128.599 182.201C129.399 182.501 130.299 182.501 130.899 183.201C131.099 183.401 131.499 183.301 131.399 183.901C131.399 183.901 131.399 184.101 131.499 184.101C132.899 184.101 133.499 185.101 134.499 185.601C135.299 186.101 136.399 186.001 137.099 186.701C137.899 186.401 138.299 186.801 138.699 187.201C139.999 188.701 141.899 189.101 143.499 189.901C145.199 190.701 146.899 191.301 148.699 191.901C148.999 191.901 149.399 191.701 149.599 192.101C149.899 192.401 150.299 192.401 150.699 192.501C151.099 192.501 151.499 192.501 151.799 192.801C153.099 193.701 154.599 193.601 155.999 193.801C156.699 193.801 157.499 194.001 158.099 194.001C158.699 194.001 159.199 193.901 159.599 193.601C160.099 193.301 160.499 192.501 161.299 192.001C161.599 191.801 161.699 191.301 162.399 191.501C162.599 191.501 162.599 191.001 162.699 190.801C163.099 190.401 163.599 190.001 163.999 189.601C164.599 189.001 165.099 188.501 165.499 187.901C165.699 187.501 165.699 187.001 165.799 186.701C165.899 186.301 166.099 185.901 166.199 185.601C166.399 185.201 166.699 184.701 166.699 184.101C166.699 183.501 166.399 183.001 166.599 182.301C166.899 181.101 166.199 180.001 165.799 178.801C165.399 177.601 164.899 176.301 164.399 175.001C164.199 174.601 164.199 174.201 164.199 173.801C164.199 173.601 164.199 173.401 164.199 173.001C164.199 172.601 164.199 172.101 164.699 171.401C165.299 170.701 166.299 171.001 166.499 171.601C166.799 172.301 165.899 172.501 166.099 172.401V172.601H166.299C166.299 172.701 166.299 172.701 166.299 172.701C166.299 172.701 166.299 172.701 166.399 172.701C166.499 172.701 166.699 172.701 167.099 172.701C167.399 172.701 167.299 172.701 167.399 172.701C167.399 172.701 167.499 172.801 167.599 172.901C167.699 173.001 167.799 173.201 167.799 173.401C167.999 174.501 168.499 175.501 168.999 176.701L169.099 176.501Z" fill="black"/>
<path d="M172.7 199.699C172.7 199.499 172.6 199.199 172.4 198.999C172.4 198.999 172.6 198.699 172 198.899C171.7 198.899 172.3 198.599 172.2 198.599C172.1 198.399 172.1 198.199 171.9 197.999C171.8 197.799 171.5 197.699 171.3 197.499C171.2 197.299 171.3 196.999 171 196.999C170.7 196.999 171 196.599 170.9 196.499C170.7 196.399 170.6 196.299 170.7 195.999C170.8 195.799 171 195.599 170.8 195.499H170.4C170.4 195.499 170.6 195.199 170 195.499C170 195.499 170 195.499 170.1 195.399C170.4 195.099 170.4 195.099 170.1 195.099C169.8 195.099 169.8 195.099 169.8 195.099C169.7 194.999 169.6 194.799 169.6 194.599C169.6 194.499 169.7 194.199 169.7 194.099C169.7 193.899 169.4 193.999 169.6 193.699C169.8 193.399 169.7 193.299 169.6 193.199C169.6 193.199 169.8 192.899 169.2 193.199C169.8 192.599 168.8 192.999 168.9 192.699C168.9 192.399 168.7 192.299 168.6 192.099C168.6 192.099 168.6 191.899 168.3 192.099C168.2 192.099 168.1 192.099 168.2 192.099C168.7 191.599 168.2 191.699 168.2 191.499C168.2 191.299 167.9 191.299 168.2 190.899C168.3 190.699 168.4 190.599 167.8 190.899C167.6 190.999 167.8 190.799 167.6 190.799C167.6 190.799 167.3 190.899 167.2 190.799C167.2 190.799 167.3 190.599 167.4 190.499C166.7 190.699 167.3 189.999 167 189.899C166.7 189.899 166.6 189.599 166.5 189.299C166.5 189.199 166.5 188.899 167.3 188.099C167.7 187.699 168.1 187.299 168.3 187.199C168.5 187.099 168.7 186.999 168.8 186.999C168.9 186.999 169.1 186.999 169.2 186.999C169.5 186.999 170 186.799 169.9 187.199C169.9 187.299 170.2 187.199 169.8 187.499C170.6 187.199 170.4 187.799 170.6 187.999C170.8 188.199 171.4 187.999 171.4 188.299C172 187.999 172 188.299 171.9 188.499C171.6 189.299 172.2 189.399 172.4 189.899C172.6 190.399 172.9 190.699 173.1 191.199C173.1 191.199 173.5 191.199 173.3 191.399C173.1 191.599 173.3 191.599 173.3 191.699C173.3 191.699 173.5 191.799 173.4 191.999C173 192.599 173.5 192.799 173.6 193.099C173.6 193.499 173.8 193.799 174.1 194.099C174.3 194.299 174.7 194.299 174.7 194.599C174.7 194.699 175 194.599 174.5 194.999C174.4 194.999 174.8 194.999 174.9 194.999C175 195.099 175 195.299 175.1 195.399C175.1 195.599 175.2 195.799 175.4 195.999C175.4 196.099 175.8 196.099 175.9 196.199C176 196.199 176.1 196.399 176.1 196.599C176.1 196.799 176 196.999 176 197.199C176 197.399 176.3 197.399 176.1 197.699C175.7 198.199 176.1 198.399 176.1 198.699C176.1 198.999 176.2 199.299 176.4 199.499C176.4 199.499 176.4 199.599 176.4 199.699L176.2 201.399C175.6 201.999 174.9 201.999 174.4 201.999C174.2 201.999 174 201.599 174.1 201.099C174.1 200.899 174.2 200.699 174.3 200.499L174.4 200.299L172.9 201.099C172.9 200.799 172.7 200.599 172.6 200.299L172.7 199.699Z" fill="black"/>
</svg>
