<svg width="300" height="300" viewBox="0 0 300 300" fill="none" xmlns="http://www.w3.org/2000/svg">
<path d="M190.899 150.301C190.599 150.001 190.299 149.601 189.999 149.301C189.899 149.201 189.999 148.901 189.399 149.101C189.099 149.201 189.499 148.701 189.399 148.601C189.099 148.301 188.899 148.001 188.499 147.701C188.199 147.401 187.699 147.301 187.399 147.001C187.099 146.701 186.999 146.201 186.499 146.201C186.099 146.201 186.199 145.601 185.899 145.401C185.599 145.201 185.299 145.001 185.199 144.601C185.199 144.301 185.199 144.001 184.899 143.901C184.699 143.901 184.399 143.901 184.299 143.901C184.299 143.801 184.299 143.501 183.699 143.801C183.699 143.801 183.699 143.801 183.699 143.601C183.899 143.201 183.699 143.101 183.399 143.201C183.099 143.201 183.099 143.201 182.999 143.101C182.699 142.901 182.499 142.601 182.299 142.301C182.199 142.101 182.199 141.701 181.999 141.501C181.899 141.301 181.499 141.201 181.499 140.901C181.499 140.501 181.399 140.401 181.199 140.201C181.199 140.101 181.199 139.801 180.699 140.201C180.999 139.401 179.999 139.801 179.899 139.401C179.799 139.001 179.399 138.801 179.099 138.501C179.099 138.501 179.099 138.201 178.699 138.501C178.599 138.501 178.499 138.501 178.499 138.401C178.799 137.701 178.299 137.801 178.099 137.501C177.899 137.201 177.499 137.101 177.599 136.501C177.599 136.201 177.599 136.001 176.999 136.301C176.699 136.401 176.799 136.101 176.699 136.101C176.599 136.101 176.299 136.101 176.199 136.101C176.199 136.101 176.199 135.801 176.199 135.701C175.399 135.701 175.699 134.801 175.199 134.501C174.699 134.201 174.399 133.801 174.099 133.301C173.899 133.001 173.899 132.701 174.599 131.801C174.899 131.401 175.299 131.001 175.699 130.901C175.899 130.901 176.199 130.701 176.299 130.801C176.499 130.801 176.699 130.801 176.899 130.901C177.299 131.001 177.899 130.901 177.899 131.401C177.899 131.501 178.199 131.401 177.899 131.801V131.901C178.799 131.701 178.699 132.401 179.099 132.701C179.399 133.001 180.099 132.801 180.199 133.301C180.799 133.001 180.899 133.301 180.899 133.601C180.899 134.601 181.799 134.901 182.299 135.601C182.799 136.301 183.399 136.801 183.899 137.401C183.899 137.501 184.299 137.401 184.199 137.701C184.199 138.001 184.399 138.001 184.499 138.101C184.599 138.201 184.799 138.301 184.799 138.501C184.799 139.401 185.499 139.601 185.899 140.101C186.299 140.601 186.699 141.101 187.199 141.501C187.499 141.701 188.099 141.801 188.199 142.101C188.199 142.301 188.599 142.101 188.299 142.701C188.299 142.801 188.599 142.701 188.699 142.701C188.899 142.901 189.099 143.101 189.299 143.301C189.599 143.601 189.799 143.901 190.099 144.101C190.299 144.201 190.599 144.201 190.799 144.401C190.999 144.501 191.199 144.701 191.299 144.901C191.399 145.201 191.499 145.501 191.699 145.801C191.899 146.101 192.299 146.101 192.299 146.501C192.299 147.301 192.899 147.501 193.199 147.901C193.499 148.301 193.899 148.801 194.299 149.101C194.599 149.301 194.299 149.801 194.599 150.001C194.599 150.101 193.699 151.201 193.299 151.501L193.099 151.601C192.599 151.601 191.799 152.001 191.599 151.701C191.299 151.301 190.899 150.901 190.599 150.601L190.899 150.301Z" fill="black"/>
<path d="M120.8 141.7C120.8 142.7 120.8 143.7 120.8 144.6C120.8 145 120.6 145.3 121.1 145.7C121.4 145.9 120.7 146.3 120.8 146.6C120.9 147.5 120.8 148.4 121 149.3C121.1 150.2 121.4 151.1 121.5 151.9C121.6 152.8 121.4 153.7 121.8 154.5C122.1 155.2 121.7 155.9 121.8 156.6C122 157.3 122.1 158.1 122 158.9C121.9 159.4 121.7 160 121.9 160.5C122 160.8 122.4 161.1 122.4 161.5C122.4 161.8 122.2 162.2 122.8 162.5C122.8 162.5 122.8 162.7 122.7 162.8C122.3 163.2 122.4 163.6 122.7 163.9C123 164.2 123 164.4 123 164.7C123.1 165.4 123.2 166.2 123.3 166.9C123.3 167.5 123.2 168.1 123.2 168.6C123.2 169.2 123.6 169.8 123.3 170.4C123.1 171 123.2 171.5 123.3 172C123.3 172.3 123.1 172.7 123.8 172.9C123.8 172.9 123.8 173 123.8 173.1C123.1 174.1 124.3 174.8 124.2 175.7C124.2 176.6 124.4 177.5 124.6 178.4C124.6 178.6 124.6 178.9 125 179.1C125.2 179.1 125.2 179.4 125.1 179.5C124.6 180.3 125.1 180.9 125.1 181.6C125.1 182.4 125.5 183.1 125.1 184C125 184.4 124.9 184.8 125.6 185.2C125.9 185.3 125.6 185.8 125.8 186C125.8 186.2 126.2 186.4 126.2 186.6C126.2 186.8 126 187 126 187.3C126 187.3 126 187.4 126 187.5C126.9 188.5 126.2 189.8 126.6 190.9C127 192 127.1 193.2 127.3 194.4C127.3 195.1 127.3 195.7 126.3 196.4C125.8 196.7 125.3 196.8 124.9 196.6C124.6 196.4 124.4 196.3 124.3 196C124.1 195.7 123.9 195.3 123.8 195C123.5 194.3 122.8 193.6 122.9 192.8C122.9 192.5 122.6 192.3 123.1 192C123.1 192 123.1 191.9 123.1 191.8C122.1 190.9 122.5 189.7 122.2 188.7C122 187.8 121.2 187.1 121.3 186.1C120.6 185.7 120.6 185.1 120.7 184.6C121.1 182.7 120.3 181 120.2 179.2C120 177.4 119.7 175.6 119.4 173.8C119.4 173.5 119 173.3 119.2 172.9C119.4 172.5 119.2 172.1 119.1 171.7C119.1 171.3 118.9 171 119 170.6C119.5 169.1 118.9 167.7 118.8 166.3C118.8 164.9 118.6 163.4 118.3 162C118.1 161.1 117.7 160.3 117.7 159.4C117.7 159 117.3 158.7 117.9 158.2C118.1 158.1 117.6 157.8 117.5 157.5C117.4 156.9 117.4 156.3 117.3 155.7C117.3 154.9 117.3 154 117.1 153.2C117.1 152.7 116.7 152.2 116.7 151.7C116.6 151.2 116.6 150.6 116.6 150.1C116.6 149.4 116.8 148.7 116.8 148.1C116.8 147.4 116.5 146.7 116.8 146C117.3 144.7 116.9 143.5 117 142.3C117 141.1 117 139.8 117 138.6C117 137.9 117.4 137.3 117.5 136.6C117.5 136.3 119 135.9 119.5 136C119.5 136 119.7 136 119.7 136.1C120.2 136.8 120.9 137.4 120.8 138.1C120.8 139.2 120.8 140.3 120.8 141.4V141.7Z" fill="black"/>
<path d="M172.499 156.201C172.899 156.001 173.199 155.901 173.599 155.601C173.699 155.601 173.999 155.601 173.899 155.101C173.899 154.801 174.299 155.301 174.399 155.301C174.699 155.101 175.099 155.001 175.399 154.801C175.699 154.601 175.899 154.201 176.199 154.001C176.499 153.801 176.999 154.001 177.199 153.501C177.399 153.101 177.799 153.501 177.999 153.201C178.199 153.001 178.499 152.801 178.899 152.901C179.199 152.901 179.499 153.101 179.599 152.901C179.599 152.801 179.599 152.401 179.799 152.401C179.899 152.401 180.199 152.601 180.099 151.901C180.099 151.901 180.099 151.901 180.299 151.901C180.599 152.201 180.799 152.101 180.799 151.901C180.799 151.601 180.899 151.601 180.999 151.501C181.299 151.401 181.599 151.201 181.899 151.201C182.099 151.201 182.399 151.201 182.699 151.201C182.899 151.201 183.099 150.801 183.399 151.001C183.699 151.201 183.899 151.101 184.099 151.001C184.199 151.001 184.499 151.201 184.299 150.501C184.899 151.201 184.899 150.001 185.299 150.101C185.699 150.101 185.999 149.901 186.399 149.801C186.399 149.801 186.699 149.901 186.599 149.401C186.599 149.201 186.599 149.201 186.799 149.301C187.299 149.801 187.399 149.301 187.699 149.301C187.999 149.301 188.299 148.901 188.699 149.301C188.899 149.501 189.099 149.501 189.099 148.901C189.099 148.601 189.299 148.901 189.399 148.701C189.399 148.701 189.399 148.301 189.599 148.301C189.599 148.301 189.799 148.501 189.899 148.601C190.199 147.801 190.899 148.601 191.299 148.201C191.699 147.901 192.199 147.801 192.699 147.801C192.999 147.801 193.299 147.801 193.799 148.901C193.999 149.401 194.199 149.901 194.099 150.301C194.099 150.601 194.099 150.801 193.999 150.901C193.899 151.001 193.799 151.201 193.699 151.301C193.499 151.601 193.299 152.201 192.999 152.001C192.899 152.001 192.899 152.301 192.599 151.801C192.399 152.701 191.899 152.301 191.499 152.501C191.199 152.701 190.999 153.401 190.599 153.201C190.599 153.901 190.399 153.801 190.099 153.701C189.199 153.301 188.699 153.901 187.999 154.101C187.299 154.201 186.699 154.601 185.999 154.801C185.899 154.801 185.999 155.201 185.699 155.001C185.499 154.801 185.399 155.001 185.199 155.101C185.099 155.101 184.999 155.301 184.799 155.201C183.999 154.801 183.699 155.401 183.099 155.501C182.599 155.601 181.999 155.801 181.599 156.201C181.299 156.401 181.199 156.901 180.799 156.901C180.599 156.901 180.599 157.301 180.299 156.801C180.199 156.701 180.299 157.101 180.199 157.201C179.999 157.301 179.799 157.401 179.599 157.501C179.299 157.601 178.999 157.701 178.699 157.901C178.499 158.001 178.499 158.301 178.299 158.501C178.099 158.601 177.999 158.701 177.699 158.801C177.399 158.801 177.099 158.801 176.799 158.801C176.499 158.801 176.399 159.201 175.999 159.101C175.299 158.901 174.999 159.301 174.599 159.501C174.099 159.701 173.699 159.801 173.299 160.201C173.099 160.401 172.599 160.101 172.399 160.201C172.299 160.201 171.499 159.001 171.299 158.601V158.401C171.299 157.901 171.199 157.101 171.499 157.001C171.899 156.901 172.299 156.601 172.699 156.401L172.499 156.201Z" fill="black"/>
<path d="M175.1 175.202C175.1 174.902 175 174.502 174.8 174.202C174.8 174.102 175 173.902 174.4 173.902C174.1 173.902 174.7 173.602 174.7 173.502C174.6 173.202 174.6 172.902 174.4 172.602C174.3 172.302 174 172.102 173.8 171.802C173.7 171.502 173.8 171.102 173.5 170.902C173.2 170.702 173.6 170.402 173.5 170.202C173.3 170.002 173.2 169.702 173.3 169.402C173.4 169.202 173.6 169.002 173.4 168.802C173.4 168.802 173 168.702 173 168.602C173 168.502 173.2 168.302 172.6 168.302C172.6 168.302 172.6 168.302 172.7 168.202C173.1 168.002 173 167.802 172.7 167.802C172.4 167.802 172.4 167.702 172.4 167.602C172.4 167.402 172.2 167.102 172.2 166.902C172.2 166.702 172.4 166.502 172.4 166.302C172.4 166.102 172.1 166.002 172.4 165.702C172.7 165.402 172.6 165.302 172.5 165.102C172.5 165.102 172.7 164.802 172.1 164.902C172.8 164.402 171.7 164.402 171.8 164.102C171.9 163.802 171.8 163.502 171.6 163.202C171.6 163.202 171.7 163.002 171.3 163.002C171.1 163.002 171.1 163.002 171.2 162.902C171.7 162.502 171.3 162.402 171.4 162.102C171.4 161.802 171.1 161.602 171.4 161.202C171.6 161.002 171.6 160.902 171 160.902C170.7 160.902 171 160.702 170.9 160.602C170.9 160.602 170.5 160.602 170.5 160.502C170.5 160.502 170.7 160.302 170.8 160.202C170.1 160.002 170.8 159.402 170.5 159.102C170.2 158.802 170.2 158.402 170.1 158.002C170.1 157.802 170.1 157.502 171.2 157.002C171.7 156.802 172.2 156.602 172.5 156.602C172.7 156.602 173 156.602 173.1 156.602C173.2 156.602 173.4 156.802 173.5 156.902C173.8 157.102 174.4 157.202 174.2 157.502C174.2 157.602 174.5 157.602 174 157.802C174.9 157.902 174.5 158.402 174.6 158.802C174.7 159.102 175.4 159.202 175.2 159.602C175.9 159.602 175.8 159.802 175.7 160.002C175.2 160.802 175.8 161.202 175.9 161.902C175.9 162.502 176.2 163.102 176.3 163.702C176.3 163.802 176.7 163.802 176.5 164.002C176.3 164.202 176.5 164.302 176.5 164.402C176.5 164.502 176.7 164.602 176.5 164.802C176 165.402 176.5 165.802 176.5 166.302C176.5 166.802 176.5 167.302 176.9 167.702C177.1 168.002 177.5 168.202 177.4 168.502C177.4 168.602 177.7 168.702 177.2 168.902C177 168.902 177.5 168.902 177.6 169.102C177.6 169.302 177.7 169.502 177.8 169.702C177.8 170.002 177.8 170.302 178 170.502C178 170.702 178.4 170.802 178.5 170.902C178.6 171.102 178.6 171.202 178.6 171.402C178.6 171.602 178.4 171.902 178.4 172.102C178.4 172.302 178.7 172.502 178.5 172.802C178.1 173.302 178.5 173.702 178.5 174.102C178.5 174.502 178.6 174.902 178.8 175.302C178.9 175.502 178.5 175.802 178.6 176.102C178.6 176.102 177.2 176.702 176.7 176.802H176.5C176 176.802 175.2 176.802 175.2 176.402C175.2 176.002 175 175.702 174.9 175.302L175.1 175.202Z" fill="black"/>
<path d="M168.7 195.203C168.8 194.803 169 194.403 169 194.003C169 193.803 169.3 193.803 168.9 193.503C168.7 193.303 169.3 193.403 169.3 193.203C169.3 192.803 169.6 192.503 169.6 192.103C169.6 191.703 169.6 191.303 169.6 190.903C169.6 190.503 170.1 190.303 169.9 189.803C169.7 189.403 170.3 189.303 170.3 189.003C170.3 188.703 170.3 188.303 170.6 188.103C170.8 187.903 171.1 187.803 171.1 187.603C171.1 187.403 170.8 187.203 170.9 187.103C170.9 187.003 171.3 186.903 170.7 186.603C170.7 186.603 170.7 186.603 170.9 186.603C171.3 186.603 171.4 186.403 171.1 186.203C170.9 186.003 171 185.903 171 185.803C171 185.503 171.1 185.203 171.3 184.903C171.4 184.703 171.7 184.603 171.9 184.403C172 184.203 171.9 183.903 172.2 183.703C172.6 183.603 172.6 183.403 172.7 183.203C172.7 183.103 173.1 183.003 172.5 182.703C173.4 182.703 172.5 182.003 172.8 181.703C173.1 181.403 173.1 181.003 173.2 180.703C173.2 180.703 173.4 180.603 173 180.303C172.9 180.303 172.9 180.103 173 180.103C173.7 180.103 173.4 179.603 173.6 179.403C173.8 179.103 173.6 178.703 174.2 178.603C174.4 178.603 174.6 178.403 174.1 178.103C173.9 177.903 174.1 177.903 174.1 177.803C174.1 177.703 173.8 177.503 173.9 177.403C173.9 177.403 174.2 177.403 174.3 177.303C173.8 176.703 174.8 176.503 174.7 176.003C174.7 175.703 174.7 175.603 174.7 175.303C174.7 175.003 174.9 174.703 175.1 174.303C175.3 173.903 175.8 173.503 176.9 174.103C177.4 174.303 177.8 174.703 178 175.003C178.1 175.203 178.3 175.403 178.3 175.503C178.3 175.603 178.4 175.803 178.5 175.903C178.6 176.103 179.1 176.403 178.7 176.703C178.6 176.703 178.8 177.003 178.3 176.903C179 177.503 178.3 177.903 178.3 178.303C178.3 178.703 178.7 179.203 178.3 179.503C178.8 179.903 178.7 180.103 178.4 180.203C177.5 180.703 177.7 181.503 177.4 182.203C177.1 182.903 176.9 183.603 176.6 184.303C176.6 184.403 176.9 184.603 176.6 184.703C176.3 184.703 176.4 185.003 176.4 185.103C176.4 185.203 176.4 185.403 176.2 185.503C175.4 185.803 175.6 186.503 175.3 187.003C175 187.503 174.8 188.003 174.8 188.603C174.8 189.003 175 189.403 174.8 189.703C174.7 189.803 175 190.103 174.4 190.003C174.2 190.003 174.6 190.303 174.6 190.403C174.6 190.603 174.5 190.903 174.4 191.103C174.3 191.403 174.1 191.703 174.1 192.103C174.1 192.303 174.2 192.603 174.2 192.803C174.2 193.003 174.2 193.203 174 193.403C173.8 193.603 173.6 193.803 173.4 194.103C173.3 194.303 173.4 194.703 173.1 194.903C172.5 195.203 172.6 195.803 172.4 196.203C172.2 196.603 172 197.103 172 197.603C172 197.903 171.5 198.003 171.4 198.203C171.4 198.303 169.9 198.203 169.4 198.003H169.2C168.8 197.603 168.2 197.203 168.3 196.903C168.5 196.403 168.6 196.003 168.7 195.503V195.203Z" fill="black"/>
<path d="M164.001 177.101C163.901 176.801 163.801 176.601 163.601 176.401C163.601 176.401 163.601 176.101 163.201 176.401C163.001 176.501 163.401 176.101 163.301 176.001C163.101 175.801 163.001 175.601 162.701 175.501C162.501 175.401 162.101 175.401 161.901 175.301C161.701 175.301 161.601 174.901 161.301 175.101C161.001 175.301 161.001 174.801 160.801 174.801C160.601 174.801 160.401 174.801 160.201 174.601C160.101 174.401 160.001 174.201 159.801 174.301C159.701 174.301 159.601 174.701 159.501 174.701C159.501 174.701 159.301 174.401 159.201 175.001C159.201 175.001 159.201 175.001 159.201 174.901C159.101 174.501 159.001 174.501 158.901 174.901C158.901 175.201 158.801 175.101 158.701 175.201C158.501 175.201 158.401 175.301 158.201 175.301C158.101 175.301 157.901 175.101 157.701 175.101C157.501 175.101 157.501 175.401 157.201 175.201C156.901 175.001 156.801 175.201 156.701 175.201C156.701 175.201 156.401 175.101 156.701 175.601C156.001 175.101 156.501 176.101 156.201 176.101C155.901 176.101 155.801 176.401 155.601 176.701C155.601 176.701 155.401 176.701 155.601 177.001C155.701 177.101 155.601 177.201 155.601 177.101C155.001 176.901 155.201 177.301 155.001 177.401C154.801 177.501 155.001 177.901 154.401 177.901C154.201 177.901 154.001 178.001 154.401 178.401C154.601 178.601 154.401 178.601 154.401 178.701L154.601 179.001C154.601 179.001 154.301 179.001 154.201 179.001C154.701 179.601 153.801 179.601 153.801 180.101C153.801 180.501 153.801 180.901 153.601 181.301C153.601 181.501 153.301 181.701 152.101 181.701C151.601 181.701 151.001 181.701 150.701 181.501C150.501 181.401 150.301 181.301 150.201 181.201C150.201 181.001 150.001 180.901 149.901 180.701C149.801 180.401 149.301 179.901 149.601 179.701C149.701 179.701 149.401 179.401 150.001 179.501C149.301 178.901 150.001 178.501 150.001 178.101C150.001 177.701 149.601 177.101 150.001 176.801C149.501 176.301 149.701 176.101 150.001 176.001C151.001 175.501 151.001 174.601 151.701 174.001C152.301 173.401 152.901 172.701 153.601 172.201C153.701 172.201 153.601 171.701 153.901 171.901C154.201 172.001 154.301 171.701 154.401 171.601C154.601 171.601 154.701 171.301 154.901 171.401C155.801 171.701 156.301 171.101 157.101 171.001C157.801 171.001 158.501 171.001 159.201 170.701C159.601 170.701 160.101 170.301 160.501 170.501C160.701 170.501 160.901 170.301 161.001 170.901C161.001 171.101 161.301 170.701 161.401 170.701C161.701 170.701 162.001 170.901 162.301 171.001C162.701 171.201 163.101 171.401 163.501 171.501C163.701 171.501 164.101 171.501 164.401 171.601C164.701 171.701 164.901 171.901 165.101 172.101C165.301 172.401 165.401 172.801 165.601 173.101C165.801 173.401 166.301 173.501 166.201 174.001C166.201 174.801 166.701 175.201 166.901 175.701C167.101 176.301 167.301 176.801 167.501 177.401C167.701 177.701 167.201 178.101 167.301 178.401C167.301 178.601 165.901 178.901 165.401 178.901H165.201C164.701 178.701 164.001 178.701 164.001 178.401C164.001 178.101 163.801 177.801 163.701 177.501L164.001 177.101Z" fill="black"/>
<path d="M155.901 146.399C155.701 146.599 155.401 146.699 155.301 146.899C155.301 146.899 155.001 146.899 155.301 147.299C155.401 147.499 154.901 147.099 154.901 147.199C154.701 147.399 154.501 147.499 154.301 147.699C154.201 147.899 154.101 148.199 154.001 148.499C153.901 148.699 153.501 148.699 153.501 149.099C153.501 149.399 153.101 149.199 153.001 149.399C153.001 149.599 152.801 149.799 152.501 149.799C152.301 149.799 152.001 149.799 152.001 149.899C152.001 149.999 152.101 150.299 152.001 150.399C152.001 150.399 151.701 150.399 152.001 150.799C152.001 150.799 152.001 150.799 151.801 150.799C151.401 150.599 151.401 150.699 151.501 150.999C151.601 151.199 151.501 151.299 151.501 151.299C151.401 151.499 151.301 151.599 151.101 151.799C151.001 151.799 150.701 151.799 150.501 151.899C150.301 151.899 150.501 152.299 150.101 152.199C149.801 152.199 149.701 152.199 149.601 152.299C149.601 152.299 149.301 152.299 149.601 152.699C148.801 152.299 149.501 153.199 149.201 153.299C148.901 153.299 148.801 153.699 148.701 153.899C148.701 153.899 148.501 153.899 148.701 154.199C148.801 154.299 148.701 154.399 148.701 154.299C148.101 154.099 148.301 154.499 148.101 154.499C147.901 154.599 148.001 154.999 147.401 154.799C147.201 154.799 147.001 154.799 147.401 155.199C147.601 155.399 147.401 155.299 147.401 155.399C147.401 155.399 147.601 155.699 147.601 155.799C147.601 155.799 147.301 155.799 147.201 155.799C147.601 156.399 146.601 156.199 146.601 156.599C146.601 156.999 146.301 157.199 146.101 157.399C146.001 157.499 145.701 157.599 144.701 157.099C144.201 156.899 143.801 156.599 143.501 156.299C143.301 156.099 143.201 155.899 143.201 155.899C143.201 155.799 143.201 155.599 143.201 155.399C143.201 155.099 142.801 154.599 143.201 154.599C143.301 154.599 143.201 154.299 143.601 154.599C143.101 153.899 143.701 153.899 143.901 153.599C144.001 153.399 143.701 152.799 144.001 152.699C143.601 152.199 143.801 152.099 144.001 152.099C144.901 152.099 144.801 151.399 145.201 150.999C145.601 150.599 145.901 150.099 146.301 149.699C146.301 149.699 146.101 149.299 146.401 149.399C146.701 149.399 146.601 149.299 146.701 149.199C146.701 149.199 146.701 148.899 146.901 148.999C147.701 149.099 147.701 148.499 148.001 148.299C148.301 147.999 148.701 147.799 148.901 147.399C149.001 147.099 148.901 146.699 149.201 146.599C149.301 146.599 149.201 146.199 149.701 146.599C149.801 146.599 149.701 146.299 149.701 146.199C149.701 145.999 149.901 145.899 150.101 145.799C150.301 145.599 150.501 145.499 150.601 145.299C150.601 145.199 150.601 144.899 150.701 144.699C150.701 144.499 150.901 144.399 151.101 144.399C151.301 144.399 151.601 144.399 151.801 144.299C152.001 144.299 152.001 143.899 152.301 143.899C152.901 144.099 153.001 143.599 153.401 143.399C153.701 143.199 154.001 142.999 154.301 142.699C154.401 142.499 154.901 142.799 155.001 142.699C155.001 142.699 156.001 143.799 156.301 144.199C156.301 144.199 156.301 144.399 156.401 144.399C156.501 144.899 156.801 145.599 156.601 145.699C156.301 145.799 156.101 146.099 155.801 146.299L155.901 146.399Z" fill="black"/>
<path d="M146.101 143.201C146.301 143.401 146.401 143.701 146.601 143.801C146.601 143.801 146.601 144.101 147.001 143.801C147.201 143.701 146.8 144.201 146.9 144.201C147.1 144.401 147.2 144.601 147.4 144.801C147.6 144.901 147.901 145.001 148.201 145.101C148.401 145.201 148.401 145.601 148.801 145.601C149.101 145.601 148.901 146.001 149.101 146.101C149.301 146.101 149.501 146.301 149.501 146.601C149.501 146.801 149.501 147.101 149.601 147.101C149.701 147.101 150.001 147.001 150.101 147.101C150.101 147.101 150.101 147.401 150.501 147.101C150.501 147.101 150.501 147.101 150.501 147.301C150.301 147.701 150.401 147.701 150.701 147.601C150.901 147.501 151.001 147.601 151.001 147.601C151.201 147.701 151.301 147.801 151.501 148.001C151.501 148.101 151.501 148.401 151.601 148.601C151.601 148.801 152 148.601 151.9 149.001C151.9 149.301 151.901 149.401 152.001 149.501C152.001 149.501 152 149.801 152.4 149.501C152 150.301 152.901 149.601 153.001 149.901C153.001 150.201 153.401 150.301 153.601 150.401C153.601 150.401 153.6 150.601 153.9 150.401C154 150.301 154.101 150.401 154.001 150.401C153.801 151.001 154.201 150.801 154.201 151.001C154.301 151.201 154.701 151.101 154.501 151.701C154.501 151.901 154.5 152.101 154.9 151.701C155.1 151.501 155.001 151.701 155.101 151.701C155.101 151.701 155.401 151.501 155.501 151.501C155.501 151.501 155.501 151.801 155.501 151.901C156.101 151.501 155.901 152.501 156.301 152.501C156.701 152.501 156.901 152.801 157.101 153.001C157.201 153.101 157.301 153.401 156.801 154.401C156.601 154.901 156.301 155.301 156.001 155.601C155.801 155.801 155.601 155.901 155.601 155.901C155.501 155.901 155.301 155.901 155.101 155.901C154.801 155.901 154.301 156.301 154.301 155.901C154.301 155.801 154.001 155.901 154.301 155.501C153.601 156.001 153.601 155.401 153.301 155.201C153.101 155.101 152.5 155.401 152.4 155.101C151.9 155.501 151.801 155.301 151.801 155.101C151.801 154.201 151.101 154.301 150.701 153.901C150.301 153.501 149.8 153.201 149.4 152.801C149.4 152.801 149.001 153.001 149.101 152.701C149.101 152.401 149 152.501 148.9 152.401C148.9 152.401 148.601 152.401 148.701 152.201C148.801 151.401 148.201 151.401 148.001 151.101C147.701 150.801 147.501 150.401 147.101 150.201C146.801 150.101 146.401 150.201 146.301 149.901C146.301 149.801 145.901 149.901 146.301 149.401C146.301 149.301 146 149.401 145.9 149.401C145.7 149.401 145.601 149.201 145.501 149.001C145.301 148.801 145.201 148.601 145.001 148.501C144.901 148.501 144.6 148.501 144.4 148.401C144.2 148.401 144.101 148.201 144.101 148.001C144.101 147.801 144.101 147.501 144.001 147.301C144.001 147.101 143.601 147.101 143.601 146.801C143.801 146.201 143.301 146.101 143.101 145.701C142.901 145.401 142.7 145.101 142.4 144.801C142.2 144.701 142.5 144.201 142.4 144.101C142.4 144.101 143.5 143.101 143.9 142.801C143.9 142.801 144.101 142.801 144.101 142.701C144.601 142.601 145.3 142.301 145.4 142.501C145.5 142.801 145.801 143.001 146.001 143.301L146.101 143.201Z" fill="black"/>
<path d="M175.001 143.302C174.801 143.502 174.501 143.602 174.401 143.802C174.401 143.802 174.101 143.802 174.401 144.202C174.501 144.402 174.001 144.002 174.001 144.102C173.801 144.302 173.601 144.402 173.401 144.602C173.301 144.802 173.201 145.102 173.101 145.402C173.001 145.602 172.601 145.602 172.601 146.002C172.601 146.302 172.201 146.102 172.101 146.302C172.101 146.502 171.901 146.702 171.601 146.702C171.401 146.702 171.101 146.702 171.101 146.802C171.101 146.902 171.201 147.202 171.101 147.302C171.101 147.302 170.801 147.302 171.101 147.702C171.101 147.702 171.101 147.702 170.901 147.702C170.501 147.502 170.501 147.602 170.601 147.902C170.701 148.102 170.601 148.202 170.601 148.202C170.501 148.402 170.401 148.502 170.201 148.702C170.101 148.702 169.801 148.702 169.601 148.802C169.401 148.802 169.601 149.202 169.201 149.102C168.901 149.102 168.801 149.102 168.701 149.202C168.701 149.202 168.401 149.202 168.701 149.602C167.901 149.202 168.601 150.102 168.301 150.202C168.001 150.202 167.901 150.602 167.801 150.802C167.801 150.802 167.601 150.802 167.801 151.102C167.901 151.202 167.801 151.302 167.801 151.202C167.201 151.002 167.401 151.402 167.201 151.402C167.001 151.502 167.101 151.902 166.501 151.702C166.301 151.702 166.101 151.702 166.501 152.102C166.701 152.302 166.501 152.202 166.501 152.302C166.501 152.302 166.701 152.602 166.701 152.702C166.701 152.702 166.401 152.702 166.301 152.702C166.701 153.302 165.701 153.102 165.701 153.502C165.701 153.902 165.401 154.102 165.201 154.302C165.101 154.402 164.801 154.502 163.801 154.002C163.301 153.802 162.901 153.502 162.601 153.202C162.401 153.002 162.301 152.802 162.301 152.802C162.301 152.702 162.301 152.502 162.301 152.302C162.301 152.002 161.901 151.502 162.301 151.502C162.401 151.502 162.301 151.202 162.701 151.502C162.201 150.802 162.801 150.802 163.001 150.502C163.101 150.302 162.801 149.702 163.101 149.602C162.701 149.102 162.901 149.002 163.101 149.002C164.001 149.002 163.901 148.302 164.301 147.902C164.701 147.502 165.001 147.002 165.401 146.602C165.401 146.602 165.201 146.202 165.501 146.302C165.801 146.302 165.701 146.202 165.801 146.102C165.801 146.102 165.801 145.802 166.001 145.902C166.801 146.002 166.801 145.402 167.101 145.202C167.401 144.902 167.801 144.702 168.001 144.302C168.101 144.002 168.001 143.602 168.301 143.502C168.401 143.502 168.301 143.102 168.801 143.502C168.901 143.502 168.801 143.202 168.801 143.102C168.801 142.902 169.001 142.802 169.201 142.702C169.401 142.502 169.601 142.402 169.701 142.202C169.701 142.102 169.701 141.802 169.801 141.602C169.801 141.402 170.001 141.302 170.201 141.302C170.401 141.302 170.701 141.302 170.901 141.202C171.101 141.202 171.101 140.802 171.401 140.802C172.001 141.002 172.101 140.502 172.501 140.302C172.801 140.102 173.101 139.902 173.401 139.602C173.501 139.402 174.001 139.702 174.101 139.602C174.101 139.602 175.101 140.702 175.401 141.102C175.401 141.102 175.401 141.302 175.501 141.302C175.601 141.802 175.901 142.502 175.701 142.602C175.401 142.702 175.201 143.002 174.901 143.202L175.001 143.302Z" fill="black"/>
<path d="M165.101 140.103C165.301 140.303 165.401 140.603 165.601 140.703C165.601 140.703 165.601 141.003 166.001 140.703C166.201 140.603 165.8 141.103 165.9 141.103C166.1 141.303 166.2 141.503 166.4 141.703C166.6 141.803 166.901 141.903 167.201 142.003C167.401 142.103 167.401 142.503 167.801 142.503C168.101 142.503 167.901 142.903 168.101 143.003C168.301 143.003 168.501 143.203 168.501 143.503C168.501 143.703 168.501 144.003 168.601 144.003C168.701 144.003 169.001 143.903 169.101 144.003C169.101 144.003 169.101 144.303 169.501 144.003C169.501 144.003 169.501 144.003 169.501 144.203C169.301 144.603 169.401 144.603 169.701 144.503C169.901 144.403 170.001 144.503 170.001 144.503C170.201 144.603 170.301 144.703 170.501 144.903C170.501 145.003 170.501 145.303 170.601 145.503C170.601 145.703 171 145.503 170.9 145.903C170.9 146.203 170.901 146.303 171.001 146.403C171.001 146.403 171 146.703 171.4 146.403C171 147.203 171.901 146.503 172.001 146.803C172.001 147.103 172.401 147.203 172.601 147.303C172.601 147.303 172.6 147.503 172.9 147.303C173 147.203 173.101 147.303 173.001 147.303C172.801 147.903 173.201 147.703 173.201 147.903C173.301 148.103 173.701 148.003 173.501 148.603C173.501 148.803 173.5 149.003 173.9 148.603C174.1 148.403 174.001 148.603 174.101 148.603C174.101 148.603 174.401 148.403 174.501 148.403C174.501 148.403 174.501 148.703 174.501 148.803C175.101 148.403 174.901 149.403 175.301 149.403C175.701 149.403 175.901 149.703 176.101 149.903C176.201 150.003 176.301 150.303 175.801 151.303C175.601 151.803 175.301 152.203 175.001 152.503C174.801 152.703 174.601 152.803 174.601 152.803C174.501 152.803 174.301 152.803 174.101 152.803C173.801 152.803 173.301 153.203 173.301 152.803C173.301 152.703 173.001 152.803 173.301 152.403C172.601 152.903 172.601 152.303 172.301 152.103C172.101 152.003 171.5 152.303 171.4 152.003C170.9 152.403 170.801 152.203 170.801 152.003C170.801 151.103 170.101 151.203 169.701 150.803C169.301 150.403 168.8 150.103 168.4 149.703C168.4 149.703 168.001 149.903 168.101 149.603C168.101 149.303 168 149.403 167.9 149.303C167.9 149.303 167.601 149.303 167.701 149.103C167.801 148.303 167.201 148.303 167.001 148.003C166.701 147.703 166.501 147.303 166.101 147.103C165.801 147.003 165.401 147.103 165.301 146.803C165.301 146.703 164.901 146.803 165.301 146.303C165.301 146.203 165 146.303 164.9 146.303C164.7 146.303 164.601 146.103 164.501 145.903C164.301 145.703 164.201 145.503 164.001 145.403C163.901 145.403 163.6 145.403 163.4 145.303C163.2 145.303 163.101 145.103 163.101 144.903C163.101 144.703 163.101 144.403 163.001 144.203C163.001 144.003 162.601 144.003 162.601 143.703C162.801 143.103 162.301 143.003 162.101 142.603C161.901 142.303 161.7 142.003 161.4 141.703C161.2 141.603 161.5 141.103 161.4 141.003C161.4 141.003 162.5 140.003 162.9 139.703C162.9 139.703 163.101 139.703 163.101 139.603C163.601 139.503 164.3 139.203 164.4 139.403C164.5 139.703 164.801 139.903 165.001 140.203L165.101 140.103Z" fill="black"/>
<path d="M129.001 173.599C128.301 173.499 127.701 173.199 127.101 172.999C126.901 172.999 126.701 172.599 126.301 172.999C126.101 173.199 126.101 172.499 125.901 172.399C125.301 172.199 124.801 171.799 124.301 171.499C123.801 171.199 123.201 170.999 122.701 170.599C122.201 170.199 122.001 169.499 121.401 169.299C120.801 168.999 121.001 168.299 120.701 167.999C120.301 167.599 120.001 167.099 120.001 166.399C120.001 165.899 120.101 165.399 120.001 164.999C120.001 164.699 119.601 164.499 119.601 164.199C119.601 163.899 119.901 163.699 119.301 163.499C119.301 163.499 119.301 163.399 119.501 163.299C119.901 163.099 119.901 162.799 119.701 162.599C119.401 162.399 119.501 162.199 119.501 162.099C119.501 161.599 119.501 161.099 119.701 160.599C119.801 160.199 120.101 159.899 120.301 159.499C120.501 159.099 120.301 158.499 120.901 158.299C121.401 157.999 121.501 157.699 121.801 157.299C121.901 157.099 122.301 157.099 122.001 156.499C122.001 156.499 122.001 156.399 122.101 156.399C122.701 156.399 122.901 156.099 123.101 155.799C123.301 155.499 123.601 155.099 124.001 154.999C124.801 154.899 125.501 154.599 126.201 154.399C126.401 154.399 126.601 154.499 126.701 154.099C126.701 153.899 126.901 153.899 127.001 154.099C127.501 154.699 128.001 154.299 128.501 154.499C129.001 154.699 129.501 154.499 130.001 154.999C130.201 155.199 130.401 155.399 130.801 154.899C131.001 154.699 131.201 154.899 131.401 154.899C131.601 154.899 131.801 154.599 131.901 154.699C132.001 154.699 132.101 154.999 132.201 155.099C132.201 155.099 132.201 155.099 132.301 155.099C133.301 154.699 133.801 155.799 134.601 155.999C135.501 156.199 136.201 156.799 136.801 157.599C137.101 157.999 137.301 158.599 136.601 159.499C136.201 159.899 135.801 160.199 135.401 160.199C135.101 160.199 134.901 160.199 134.801 160.199C134.601 160.199 134.401 160.099 134.201 160.099C133.801 159.999 133.301 160.299 133.201 159.899C133.201 159.799 132.901 159.899 133.101 159.499V159.399C132.301 159.899 132.101 159.199 131.601 159.099C131.201 159.099 130.601 159.499 130.201 159.099C129.801 159.699 129.601 159.499 129.401 159.299C128.601 158.499 127.601 158.899 126.901 158.899C126.101 158.899 125.701 159.199 125.401 159.499C125.401 159.499 125.601 159.799 125.301 159.699C125.001 159.699 125.101 159.799 125.101 159.999C125.101 160.099 125.101 160.299 124.901 160.299C124.101 160.599 124.301 161.399 124.101 162.099C123.901 162.799 123.801 163.699 123.901 164.299C124.001 164.699 124.401 164.899 124.301 165.099C124.301 165.199 124.601 165.199 124.201 165.599C124.101 165.699 124.501 165.599 124.601 165.699C124.801 165.899 124.901 166.099 125.001 166.399C125.201 166.699 125.401 166.999 125.701 167.299C125.901 167.499 126.201 167.399 126.401 167.499C126.601 167.599 126.801 167.799 126.901 167.899C127.101 168.099 127.201 168.499 127.401 168.699C127.601 168.899 128.001 168.799 128.201 169.199C128.501 169.899 129.201 169.899 129.701 170.099C130.201 170.299 130.801 170.399 131.401 170.299C131.701 170.299 132.001 170.799 132.301 170.699C132.401 170.699 132.801 172.099 132.801 172.599V172.799C132.401 173.299 132.001 173.999 131.501 173.999C130.701 173.999 130.001 173.899 129.201 173.699L129.001 173.599Z" fill="black"/>
<path d="M137.2 133.001C137.2 133.501 137.3 133.901 137.4 134.401C137.4 134.601 137.2 134.801 137.8 134.901C138.1 134.901 137.5 135.201 137.5 135.401C137.6 135.801 137.5 136.301 137.7 136.701C137.8 137.101 138.1 137.501 138.2 138.001C138.2 138.401 138 138.901 138.4 139.301C138.7 139.601 138.2 140.001 138.4 140.301C138.5 140.701 138.6 141.001 138.4 141.401C138.2 141.701 138 141.901 138.1 142.201C138.1 142.401 138.5 142.501 138.5 142.701C138.5 142.901 138.2 143.101 138.9 143.201C138.9 143.201 138.9 143.201 138.8 143.301C138.4 143.501 138.4 143.701 138.8 143.801C139.1 143.901 139 144.101 139.1 144.201C139.1 144.601 139.1 144.901 139.1 145.301C139.1 145.601 138.8 145.801 138.7 146.101C138.7 146.401 138.9 146.701 138.7 146.901C138.4 147.201 138.4 147.401 138.4 147.701C138.4 147.801 138.1 148.001 138.7 148.201C137.9 148.601 138.9 149.001 138.7 149.501C138.5 149.901 138.6 150.401 138.6 150.801C138.6 150.901 138.4 151.001 138.9 151.201C139.1 151.201 139.1 151.401 138.9 151.401C138.2 151.701 138.6 152.101 138.5 152.401C138.3 152.801 138.5 153.201 138.1 153.501C137.9 153.601 137.7 153.801 138.3 154.101C138.6 154.201 138.3 154.401 138.3 154.501C138.3 154.601 138.6 154.801 138.6 154.901C138.6 154.901 138.3 155.101 138.2 155.101C138.8 155.801 137.8 156.201 137.9 156.801C137.9 157.401 137.9 157.901 137.6 158.501C137.5 158.801 137.3 159.101 136.1 159.101C135.6 159.101 135 159.001 134.7 158.801C134.5 158.701 134.3 158.501 134.2 158.401C134.2 158.201 134 158.001 134 157.801C133.9 157.401 133.4 157.001 133.7 156.701C133.8 156.701 133.5 156.401 134 156.401C133.3 155.801 133.9 155.401 133.9 154.901C133.9 154.501 133.3 154.001 133.7 153.601C133.1 153.301 133.2 153.101 133.5 152.801C134.3 152.101 133.9 151.201 134 150.401C134.2 149.601 134.1 148.801 134.2 147.901C134.2 147.801 133.9 147.601 134.2 147.501C134.5 147.401 134.2 147.101 134.2 147.001C134.2 146.801 134.1 146.701 134.2 146.501C134.9 145.901 134.5 145.201 134.6 144.601C134.6 144.001 134.7 143.301 134.6 142.701C134.5 142.301 134.1 141.901 134.2 141.501C134.2 141.301 133.9 141.201 134.5 141.001C134.7 141.001 134.2 140.801 134.2 140.701C134.2 140.401 134.2 140.201 134.2 139.901C134.2 139.501 134.2 139.201 134.1 138.801C134.1 138.601 133.8 138.401 133.7 138.201C133.7 138.001 133.6 137.701 133.7 137.501C133.7 137.201 133.9 136.901 134 136.601C134 136.301 133.7 136.001 134 135.701C134.4 135.101 134.1 134.601 134 134.001C134 133.401 134 132.901 133.7 132.401C133.6 132.101 134 131.701 134 131.401C134 131.301 135.4 130.801 135.9 130.801H136.1C136.6 131.001 137.4 131.201 137.4 131.501C137.4 132.001 137.6 132.601 137.6 133.101L137.2 133.001Z" fill="black"/>
<path d="M154.599 131.499C156.099 131.399 157.599 131.099 158.899 130.599C159.499 130.299 159.999 129.999 160.199 129.699L160.499 129.599C160.599 129.599 160.599 129.499 160.699 129.399L160.899 128.999C161.199 128.499 161.399 128.099 161.499 127.899C161.499 127.899 161.499 127.799 161.499 127.699C161.499 127.599 161.499 127.499 161.399 127.499C161.399 127.499 161.399 127.499 161.499 127.399H161.799C162.199 127.099 162.399 127.099 162.999 126.199C163.399 126.299 163.799 126.399 164.199 126.499C164.499 126.499 164.799 126.699 165.199 126.899C165.199 126.899 165.399 126.899 165.499 126.999H165.699V127.099C165.699 127.099 165.899 127.199 165.999 127.299C166.399 127.599 166.899 127.899 167.399 127.999C170.299 128.699 173.299 128.799 176.199 128.199C178.999 127.599 181.599 126.299 183.799 124.599C184.899 123.799 186.099 122.899 186.799 121.899C187.599 120.999 187.899 119.999 187.599 119.199C187.499 118.899 187.399 118.699 187.299 118.599C187.299 118.399 187.099 118.299 186.799 118.099C186.499 117.899 186.199 117.799 185.799 117.699C185.599 117.699 185.399 117.699 185.099 117.699C184.599 117.699 183.999 117.699 183.399 117.699C182.799 117.699 182.199 117.899 181.499 117.999C181.199 117.999 180.799 118.199 180.399 118.299C179.999 118.399 179.499 118.599 179.099 118.799C178.399 117.799 178.099 117.399 177.899 117.199C177.799 117.099 177.699 116.999 177.599 116.999C177.699 116.899 177.899 116.599 177.999 116.299C177.999 115.899 178.199 115.399 177.999 114.399L178.399 114.099C178.499 114.099 178.599 113.899 178.699 113.899L179.299 113.399C179.599 113.099 179.899 112.799 180.099 112.599C180.499 112.099 180.699 111.699 180.999 111.199C180.999 110.999 180.999 110.999 180.999 110.899C180.999 110.899 180.999 110.899 180.999 110.799C180.999 110.799 180.899 110.599 180.799 110.299C180.599 109.799 179.999 108.699 179.099 108.799C179.099 108.799 178.799 108.499 178.699 108.299C178.399 107.899 177.899 107.599 177.399 107.399C176.899 107.199 176.399 107.199 175.899 107.299C175.099 107.499 174.399 107.399 173.699 107.499C172.699 107.699 171.699 107.999 170.699 108.499C170.199 108.699 169.699 108.999 169.199 109.299C168.999 109.499 168.699 109.599 168.499 109.799L168.099 110.099L167.299 110.699C166.399 111.399 165.399 112.299 164.499 113.099L161.899 115.399C161.599 113.799 161.399 112.099 161.099 110.499C160.899 109.499 160.699 108.499 160.299 107.599C160.099 107.199 159.899 106.899 159.699 106.599C159.299 105.999 158.899 105.699 158.499 105.299C157.599 104.499 155.899 104.399 154.199 104.599C153.199 104.699 151.999 104.599 151.399 105.499C151.399 105.499 150.999 105.699 150.899 105.699C149.499 105.699 148.399 106.399 147.599 107.199C147.199 107.699 146.899 108.099 146.599 108.699C146.499 108.999 146.299 109.299 146.199 109.699C146.199 109.899 146.099 110.099 146.099 110.299V111.099C146.099 112.399 145.999 113.799 145.999 115.099C145.999 116.299 145.999 117.399 145.899 118.599L145.299 117.699L144.699 116.699C144.199 115.899 143.699 115.099 143.199 114.299C142.099 112.699 141.199 110.999 140.199 110.299L139.899 109.999C139.799 109.999 139.699 109.799 139.599 109.799L139.199 109.599C138.899 109.499 138.699 109.299 138.399 109.199C137.899 108.999 137.299 108.799 136.699 108.599C135.999 108.399 135.299 108.099 134.599 108.599C134.399 108.699 133.599 108.699 133.299 108.599C131.199 108.099 129.099 109.099 127.099 109.899C125.899 110.399 124.899 110.999 124.099 111.799C123.199 112.499 122.599 113.299 121.999 114.199C121.699 114.599 121.499 115.099 121.499 115.599V115.799V115.899V116.099L121.599 116.599C121.599 116.799 121.799 116.999 121.899 117.099C121.999 117.299 122.099 117.499 122.299 117.699L122.899 118.399C123.399 118.999 123.799 119.599 124.299 120.199C124.999 121.099 125.899 122.399 126.899 123.799C126.299 123.599 125.599 123.399 124.999 123.199C124.199 122.899 123.499 122.599 122.799 122.399C121.899 122.099 121.099 121.899 120.199 121.699C119.799 121.699 119.299 121.499 118.899 121.399C118.499 121.399 118.099 121.299 117.699 121.199H117.199C116.999 121.199 116.799 121.099 116.799 121.099H116.399C116.099 120.899 115.799 120.799 115.499 120.799C115.299 120.799 115.099 120.799 114.899 120.799C113.299 121.299 111.899 121.899 110.699 122.799C109.499 123.699 108.499 125.099 108.199 126.599C107.999 128.199 108.199 129.599 108.999 130.899C109.799 132.199 111.099 133.399 112.599 134.099C114.299 134.999 116.299 135.599 117.699 136.899C118.299 137.499 118.299 137.999 117.299 138.299C116.499 138.399 115.699 138.499 114.799 138.299C113.399 138.099 112.099 137.799 110.799 137.199C109.499 136.599 108.099 135.899 106.899 134.899C105.699 133.899 104.799 132.399 104.399 130.799C104.199 129.799 103.699 128.499 104.299 127.699C104.299 127.599 104.399 127.199 104.399 126.999C104.199 124.799 105.099 122.599 106.499 120.899C107.199 119.999 108.099 119.299 108.999 118.699C109.899 118.099 110.899 117.699 111.999 117.299C112.899 116.999 113.799 116.799 114.599 116.599C114.999 116.599 115.499 116.499 115.899 116.399H116.599C116.799 116.399 117.099 116.399 117.099 116.399C117.299 116.399 117.399 116.399 117.499 116.399C117.499 116.399 117.599 116.399 117.699 116.399C117.299 115.899 117.199 115.999 117.199 115.899C117.199 114.599 117.599 113.299 118.099 112.299C119.099 110.399 120.599 108.999 121.999 107.999C123.499 106.899 125.099 106.199 126.599 105.499C129.699 104.199 133.399 103.399 136.999 104.199C138.899 104.599 140.599 105.299 142.199 106.399L142.399 106.599C142.399 106.699 142.499 106.799 142.599 106.799C142.599 106.799 142.599 106.899 142.699 106.999C142.699 106.899 142.699 106.699 142.799 106.599C142.799 106.499 142.799 106.399 142.799 106.399L142.999 106.099C143.299 105.699 143.599 105.299 143.899 104.899C145.299 103.399 146.999 102.399 148.699 101.799C149.899 101.399 150.799 100.799 152.199 100.799C153.499 100.799 155.199 100.399 156.899 100.599C157.699 100.599 158.499 100.799 159.299 101.099C160.099 101.399 160.899 101.799 161.499 102.399C162.099 102.999 162.699 103.699 163.099 104.399C163.299 104.799 163.499 105.099 163.599 105.499L163.799 105.999C163.799 106.199 163.899 106.399 163.899 106.399L164.099 107.599C164.399 107.299 164.699 106.999 164.999 106.799C164.999 106.799 164.999 106.799 165.199 106.699L165.599 106.399C165.899 106.199 166.199 105.999 166.499 105.799C167.099 105.399 167.699 105.099 168.299 104.799C169.599 104.199 170.899 103.799 172.299 103.599C173.699 103.399 175.199 103.399 176.599 103.599C179.399 104.099 182.299 105.599 183.999 108.399C184.499 109.199 184.899 110.299 184.799 111.699C184.799 112.099 184.699 112.499 184.499 112.899C184.499 113.099 184.499 113.099 184.499 113.099C184.499 113.299 184.499 113.399 184.499 113.399C184.499 113.599 184.399 113.699 183.999 113.899H183.899C183.899 113.999 184.099 113.899 183.999 113.899C183.999 113.899 183.799 113.999 183.499 114.299C183.399 114.299 183.699 114.299 183.899 114.099C184.199 113.999 184.399 113.799 184.499 113.799C184.499 113.799 184.699 113.799 184.799 113.799H184.899H185.199C186.399 113.899 187.699 114.199 188.999 114.999C189.899 115.599 190.799 116.499 191.199 117.599C191.699 118.699 191.799 119.799 191.699 120.799C191.699 121.799 191.299 122.799 190.899 123.699C190.499 124.599 189.899 125.299 189.399 125.899C188.699 126.699 187.999 127.399 187.299 128.099C186.999 128.499 186.599 128.799 186.199 129.099C185.799 129.399 185.399 129.699 184.999 129.999C183.299 131.199 181.299 131.999 179.399 132.599C176.899 133.299 174.299 133.499 171.799 133.399C169.199 133.399 166.299 133.199 163.999 132.099H163.799C163.799 131.999 163.799 131.999 163.799 131.999C163.799 131.899 163.699 131.799 163.599 131.699L163.099 131.399H162.999C162.999 131.299 162.999 131.299 162.999 131.399C162.999 131.399 162.999 131.499 162.999 131.599C162.999 131.799 162.999 131.999 162.999 132.199C162.999 132.199 162.799 132.599 162.699 132.799C162.599 132.999 162.399 133.199 162.299 133.399C161.999 133.699 161.599 133.999 161.299 134.299C159.899 135.299 158.499 135.599 157.199 135.899C152.599 136.899 147.699 136.199 143.499 134.099C143.199 133.999 142.899 133.799 142.599 133.599C142.499 133.599 142.299 133.399 142.199 133.299C142.099 133.199 141.899 133.099 141.899 133.099C141.699 132.999 141.599 132.699 141.399 132.599C141.199 132.599 141.099 132.699 140.799 132.899C140.199 133.199 139.599 133.399 138.899 133.599C138.299 133.799 137.399 133.599 136.899 133.099C136.399 132.699 136.199 132.199 136.399 131.899C136.399 131.899 136.599 131.699 136.799 131.699C137.499 131.499 138.199 131.099 138.699 130.699C138.799 130.599 138.999 130.499 139.099 130.399L139.699 129.899C140.199 129.399 140.799 128.799 141.299 128.199C141.699 128.399 142.199 128.799 142.699 129.099C143.099 129.399 143.799 129.899 144.099 130.099C146.999 132.099 150.599 132.899 154.099 132.599L154.599 131.499Z" fill="black"/>
<path d="M124.3 182.799C124.4 182.599 124.6 182.499 124.6 182.199C124.6 182.199 124.9 182.199 124.5 181.799C124.3 181.599 124.9 181.899 124.9 181.799C124.9 181.599 125.1 181.499 125.2 181.299C125.2 181.099 125.2 180.799 125.2 180.599C125.2 180.399 125.6 180.399 125.4 180.099C125.2 179.799 125.8 179.999 125.7 179.799C125.7 179.599 125.7 179.399 126 179.399C126.2 179.399 126.5 179.399 126.4 179.199C126.4 179.199 126.1 178.899 126.2 178.799C126.2 178.799 126.5 178.799 126 178.399C126 178.399 126 178.399 126.2 178.399C126.6 178.499 126.6 178.399 126.4 178.199C126.2 177.999 126.3 177.999 126.3 177.899C126.3 177.699 126.4 177.599 126.6 177.499C126.7 177.499 127 177.499 127.1 177.299C127.2 177.299 127.1 176.999 127.4 176.999C127.7 176.999 127.8 176.999 127.8 176.799C127.8 176.799 128.1 176.799 127.6 176.499C128.4 176.699 127.6 175.999 127.8 175.999C128.1 175.999 128.1 175.699 128.1 175.499C128.1 175.499 128.3 175.499 127.9 175.199C127.8 175.199 127.8 174.999 127.9 175.099C128.5 175.299 128.3 174.899 128.4 174.799C128.6 174.699 128.4 174.399 129 174.399C129.2 174.399 129.4 174.399 129 173.999C128.8 173.799 129 173.899 129 173.799L128.8 173.499C128.8 173.499 129.1 173.499 129.2 173.499C128.9 172.799 129.8 173.099 129.9 172.699C130 172.299 130.4 171.999 130.8 171.899C131 171.799 131.3 171.899 132.1 172.699C132.4 173.099 132.7 173.599 132.8 173.899C132.8 174.099 133 174.299 133 174.399C133 174.499 133 174.699 133 174.799C133 174.999 133.3 175.499 133 175.299C133 175.299 133.1 175.499 132.7 175.199C133.2 175.799 132.7 175.599 132.7 175.799C132.7 175.999 133.1 176.399 132.7 176.399C133.2 176.799 133 176.799 132.8 176.799C132 176.799 132.3 177.299 132 177.699C131.7 177.999 131.6 178.399 131.4 178.799C131.4 178.799 131.6 179.099 131.4 178.999C131.1 178.999 131.3 179.099 131.2 179.199C131.2 179.199 131.2 179.399 131.1 179.399C130.4 179.399 130.5 179.799 130.3 180.099C130.1 180.299 129.9 180.599 129.8 180.999C129.8 181.199 130 181.599 129.8 181.699C129.8 181.699 130 181.999 129.4 181.699C129.2 181.699 129.6 181.899 129.6 181.999C129.6 182.099 129.5 182.199 129.4 182.399C129.3 182.599 129.2 182.699 129.1 182.899C129.1 182.999 129.2 183.199 129.2 183.399C129.2 183.499 129.2 183.599 129 183.699C128.9 183.699 128.6 183.799 128.5 183.899C128.4 183.999 128.5 184.299 128.2 184.299C127.6 184.299 127.7 184.599 127.5 184.799C127.3 184.999 127.1 185.199 127 185.499C127 185.699 126.5 185.499 126.4 185.599C126.4 185.599 125.1 184.899 124.7 184.599C124.7 184.599 124.5 184.499 124.5 184.399C124.2 183.999 123.7 183.499 123.8 183.399C124 183.199 124.1 182.999 124.2 182.799H124.3Z" fill="black"/>
</svg>
