<svg width="300" height="300" viewBox="0 0 300 300" fill="none" xmlns="http://www.w3.org/2000/svg">
<path d="M180.8 137.498C179.9 136.498 178.9 135.398 177.9 134.498C177.5 134.098 177.4 133.598 176.6 133.498C176.2 133.498 176.3 132.698 176 132.398C175.1 131.498 174.2 130.498 173.3 129.598C172.4 128.698 171.4 127.998 170.5 127.098C169.6 126.198 168.9 125.098 167.9 124.398C167 123.798 166.7 122.798 165.9 122.198C165.1 121.498 164.3 120.798 163.7 119.898C163.3 119.198 163 118.498 162.4 118.098C162 117.798 161.5 117.798 161.2 117.398C160.9 117.098 160.7 116.598 160.1 116.898C160.1 116.898 160 116.698 160 116.598C160 115.998 159.4 115.798 159 115.898C158.6 115.898 158.4 115.898 158.1 115.798C157.3 115.498 156.5 115.398 155.6 115.198C154.9 115.098 154.2 114.798 153.5 114.698C152.7 114.598 151.8 114.898 151.1 114.498C150.4 114.198 149.6 114.198 148.9 114.198C148.5 114.198 148 113.898 147.7 114.598C147.7 114.598 147.5 114.598 147.4 114.598C146.2 113.798 145 114.898 143.8 114.798C142.5 114.698 141.3 114.898 140 115.098C139.7 115.098 139.3 115.098 139 115.498C139 115.698 138.6 115.698 138.4 115.598C137.4 115.098 136.5 115.598 135.5 115.598C134.4 115.598 133.4 116.098 132.2 115.898C131.7 115.798 131 115.898 130.6 116.498C130.4 116.798 129.8 116.698 129.5 116.798C129.2 116.898 128.9 117.298 128.6 117.298C128.3 117.298 128 117.298 127.7 117.198C127.7 117.198 127.5 117.198 127.4 117.198C126 118.298 124.3 117.798 122.9 118.498C121.5 119.198 120.2 119.698 119 120.498C118.3 120.898 117.7 121.198 116.5 120.898C115.9 120.698 115.5 120.398 115.5 119.898C115.5 119.498 115.6 119.098 115.8 118.798C116.2 118.298 116.5 117.898 116.9 117.498C117.7 116.698 118.5 115.598 119.8 115.398C120.2 115.398 120.5 114.898 120.9 115.298C120.9 115.298 121.1 115.298 121.2 115.298C122.4 113.998 124.1 113.998 125.5 113.598C126.7 113.198 127.8 112.298 129.1 112.298C129.7 111.498 130.5 111.498 131.3 111.498C133.9 111.698 136.4 110.798 139 110.598C141.6 110.398 144.2 110.098 146.8 110.098C147.2 110.098 147.6 109.698 148.1 109.998C148.6 110.198 149.2 109.998 149.8 109.998C150.3 109.998 150.9 109.898 151.4 109.998C153.4 110.698 155.5 110.398 157.7 110.998C158.8 111.298 159.9 111.698 160.9 112.298C161.9 112.898 162.8 113.598 163.7 114.198C164.7 114.998 165.9 115.698 166.6 116.698C166.9 117.098 167.5 117.298 167.5 118.098C167.5 118.298 168.1 118.398 168.4 118.598C169 119.198 169.5 119.798 170.1 120.398C170.9 121.198 171.6 122.098 172.5 122.898C173 123.398 173.7 123.698 174.2 124.198C174.7 124.698 175.3 125.198 175.7 125.798C176.3 126.498 176.8 127.398 177.4 128.098C178 128.898 178.9 129.398 179.3 130.298C180.1 131.898 181.5 132.998 182.6 134.298C183.7 135.598 184.9 136.898 186.1 137.998C186.8 138.698 187 139.698 187.7 140.298C188 140.598 187.3 142.098 186.8 142.298C186.8 142.298 186.6 142.298 186.5 142.298C185.5 141.898 184.4 141.798 183.7 140.998C182.7 139.798 181.6 138.698 180.5 137.498H180.8Z" fill="black"/>
<path d="M114.999 142.997C114.999 143.797 114.999 144.597 114.999 145.397C114.999 145.697 114.799 145.997 115.299 146.297C115.599 146.397 114.899 146.797 114.999 146.997C114.999 147.697 114.999 148.497 115.099 149.197C115.099 149.897 115.499 150.597 115.599 151.297C115.699 151.997 115.499 152.797 115.799 153.397C116.099 153.997 115.699 154.597 115.799 155.097C115.999 155.697 116.099 156.297 115.899 156.897C115.799 157.297 115.599 157.797 115.799 158.197C115.799 158.497 116.199 158.697 116.299 158.997C116.299 159.297 116.099 159.597 116.699 159.797C116.699 159.797 116.699 159.897 116.599 159.997C116.199 160.297 116.299 160.697 116.599 160.897C116.899 161.097 116.899 161.297 116.899 161.497C116.999 162.097 117.099 162.697 117.099 163.297C117.099 163.797 116.999 164.197 116.999 164.697C116.999 165.197 117.399 165.597 117.099 166.097C116.899 166.597 116.999 166.997 117.099 167.397C117.099 167.597 116.899 167.997 117.599 168.097C117.599 168.097 117.599 168.197 117.599 168.297C116.899 169.097 118.099 169.597 117.999 170.397C117.999 171.197 118.199 171.897 118.399 172.597C118.399 172.797 118.299 172.997 118.799 173.097C118.999 173.097 118.999 173.297 118.899 173.497C118.399 174.197 118.899 174.697 118.899 175.197C118.899 175.897 119.299 176.397 118.899 177.197C118.699 177.497 118.699 177.897 119.399 178.097C119.699 178.097 119.399 178.597 119.599 178.797C119.599 178.997 119.999 179.097 119.999 179.297C119.999 179.497 119.799 179.697 119.799 179.897C119.799 179.897 119.799 179.997 119.799 180.097C120.599 180.897 119.899 181.997 120.299 182.897C120.699 183.797 120.799 184.797 120.899 185.797C120.899 186.297 120.899 186.897 119.799 187.497C119.299 187.797 118.799 187.897 118.399 187.697C118.099 187.597 117.899 187.397 117.799 187.297C117.599 186.997 117.499 186.697 117.299 186.497C116.999 185.897 116.399 185.397 116.499 184.697C116.499 184.497 116.199 184.297 116.699 184.097C116.699 184.097 116.699 183.997 116.699 183.897C115.799 183.197 116.099 182.197 115.899 181.397C115.699 180.697 114.999 180.097 115.099 179.297C114.399 178.997 114.399 178.497 114.499 178.097C114.899 176.497 114.199 175.197 113.999 173.697C113.799 172.197 113.499 170.797 113.299 169.297C113.299 168.997 112.899 168.897 113.099 168.497C113.299 168.197 113.099 167.897 112.999 167.497C112.999 167.197 112.799 166.897 112.899 166.597C113.399 165.297 112.899 164.197 112.699 163.097C112.699 161.897 112.499 160.797 112.199 159.597C111.999 158.897 111.599 158.197 111.599 157.497C111.599 157.197 111.299 156.897 111.799 156.497C111.999 156.397 111.499 156.197 111.399 155.997C111.399 155.497 111.299 154.997 111.199 154.497C111.199 153.797 111.199 153.097 110.999 152.397C110.999 151.997 110.699 151.597 110.599 151.197C110.599 150.797 110.499 150.297 110.599 149.897C110.599 149.297 110.799 148.797 110.899 148.197C110.899 147.597 110.699 146.997 110.899 146.497C111.399 145.497 111.099 144.497 111.199 143.397C111.199 142.397 111.199 141.397 111.199 140.397C111.199 139.797 111.599 139.297 111.699 138.797C111.699 138.497 113.199 138.197 113.699 138.297C113.699 138.297 113.899 138.297 113.899 138.397C114.399 138.997 115.099 139.497 114.999 140.097C114.999 140.997 114.999 141.897 114.999 142.797V142.997Z" fill="black"/>
<path d="M146.699 141.097C146.699 140.897 146.699 140.697 146.699 140.597C146.699 140.597 146.899 140.497 146.399 140.397C146.099 140.397 146.799 140.297 146.699 140.197C146.699 139.997 146.699 139.897 146.699 139.697C146.699 139.497 146.399 139.397 146.399 139.197C146.399 138.997 146.699 138.897 146.399 138.697C146.099 138.497 146.599 138.497 146.499 138.297C146.399 138.197 146.299 137.997 146.499 137.897C146.699 137.897 146.899 137.697 146.799 137.597C146.799 137.597 146.399 137.397 146.499 137.397C146.499 137.397 146.799 137.397 146.199 137.197C146.199 137.197 146.199 137.197 146.399 137.197C146.799 137.197 146.799 137.197 146.499 136.997C146.199 136.997 146.299 136.897 146.299 136.797C146.299 136.697 146.299 136.497 146.299 136.397C146.299 136.397 146.599 136.197 146.699 136.197C146.699 136.197 146.499 135.897 146.799 135.897C147.099 135.897 147.099 135.797 147.099 135.697C147.099 135.697 147.399 135.697 146.799 135.497C147.599 135.497 146.599 135.097 146.799 134.997C146.999 134.897 146.899 134.697 146.999 134.497C146.999 134.497 147.199 134.497 146.799 134.297C146.599 134.197 146.599 134.297 146.799 134.297C147.399 134.297 147.099 134.097 147.199 133.997C147.399 133.897 147.199 133.697 147.599 133.697C147.799 133.697 147.899 133.697 147.399 133.397C147.199 133.297 147.399 133.397 147.399 133.197L147.099 132.997C147.099 132.997 147.299 132.997 147.499 132.997C146.899 132.597 147.899 132.697 147.799 132.397C147.799 132.097 147.799 131.997 147.999 131.797C147.999 131.797 148.299 131.697 149.399 131.997C149.899 132.197 150.399 132.397 150.699 132.597C150.899 132.697 151.099 132.797 151.099 132.897C151.099 132.897 151.299 133.097 151.299 133.197C151.399 133.397 151.899 133.697 151.599 133.697C151.599 133.697 151.799 133.897 151.299 133.697C151.999 134.097 151.399 134.097 151.399 134.297C151.399 134.397 151.999 134.797 151.699 134.797C152.299 135.097 152.099 135.097 151.899 135.097C151.199 135.097 151.499 135.497 151.399 135.797C151.199 135.997 151.299 136.297 151.199 136.597C151.199 136.597 151.499 136.797 151.199 136.797C150.899 136.797 151.199 136.897 151.199 136.997C151.199 136.997 151.299 137.097 151.199 137.197C150.499 137.197 150.899 137.597 150.799 137.797C150.799 137.997 150.599 138.197 150.799 138.397C150.799 138.497 151.199 138.697 151.099 138.797C151.099 138.797 151.399 138.897 150.799 138.897C150.599 138.897 151.099 138.897 151.099 138.997C151.099 138.997 151.099 139.197 151.099 139.297C151.099 139.397 151.099 139.497 151.099 139.697L151.399 139.897V140.097C151.399 140.097 151.099 140.297 150.999 140.397C150.999 140.497 151.199 140.597 150.999 140.697C150.499 140.897 150.699 141.097 150.699 141.297C150.699 141.497 150.699 141.697 150.699 141.797C150.699 141.797 150.299 141.997 150.299 142.097C150.299 142.097 148.799 142.297 148.299 142.397H148.099C147.599 142.397 146.899 142.297 146.899 142.097C146.899 141.897 146.899 141.697 146.899 141.497L146.699 141.097Z" fill="black"/>
<path d="M157.1 141.898C157.1 141.698 157.1 141.498 157.1 141.398C157.1 141.398 157.3 141.298 156.8 141.198C156.5 141.198 157.2 141.098 157.1 140.998C157.1 140.798 157.1 140.698 157.1 140.498C157.1 140.298 156.8 140.198 156.8 139.998C156.8 139.798 157.1 139.698 156.8 139.498C156.5 139.298 157 139.298 156.9 139.098C156.8 138.998 156.7 138.798 156.9 138.698C157.1 138.698 157.3 138.498 157.2 138.398C157.2 138.398 156.8 138.198 156.9 138.198C156.9 138.198 157.2 138.198 156.6 137.998C156.6 137.998 156.6 137.998 156.8 137.998C157.2 137.998 157.2 137.998 156.9 137.798C156.6 137.798 156.7 137.698 156.7 137.598C156.7 137.498 156.7 137.298 156.7 137.198C156.7 137.198 157 136.998 157.1 136.998C157.1 136.998 156.9 136.698 157.2 136.698C157.5 136.698 157.5 136.598 157.5 136.498C157.5 136.498 157.8 136.498 157.2 136.298C158 136.298 157 135.898 157.2 135.798C157.4 135.698 157.3 135.498 157.4 135.298C157.4 135.298 157.6 135.298 157.2 135.098C157 134.998 157 135.098 157.2 135.098C157.8 135.098 157.5 134.898 157.6 134.798C157.8 134.698 157.6 134.498 158 134.498C158.2 134.498 158.3 134.498 157.8 134.198C157.6 134.098 157.8 134.198 157.8 133.998L157.5 133.798C157.5 133.798 157.7 133.798 157.9 133.798C157.3 133.398 158.3 133.498 158.2 133.198C158.2 132.898 158.2 132.798 158.4 132.598C158.4 132.598 158.7 132.498 159.8 132.798C160.3 132.998 160.8 133.198 161.1 133.398C161.3 133.498 161.5 133.598 161.5 133.698C161.5 133.698 161.7 133.898 161.7 133.998C161.8 134.198 162.3 134.498 162 134.498C162 134.498 162.2 134.698 161.7 134.498C162.4 134.898 161.8 134.898 161.8 135.098C161.8 135.198 162.4 135.598 162.1 135.598C162.7 135.898 162.5 135.898 162.3 135.898C161.6 135.898 161.9 136.298 161.8 136.598C161.6 136.798 161.7 137.098 161.6 137.398C161.6 137.398 161.9 137.598 161.6 137.598C161.3 137.598 161.6 137.698 161.6 137.798C161.6 137.798 161.7 137.898 161.6 137.998C160.9 137.998 161.3 138.398 161.2 138.598C161.2 138.798 161 138.998 161.2 139.198C161.2 139.298 161.6 139.498 161.5 139.598C161.5 139.598 161.8 139.698 161.2 139.698C161 139.698 161.5 139.698 161.5 139.798C161.5 139.798 161.5 139.998 161.5 140.098C161.5 140.198 161.5 140.298 161.5 140.498L161.8 140.698V140.898C161.8 140.898 161.5 141.098 161.4 141.198C161.4 141.298 161.6 141.398 161.4 141.498C160.9 141.698 161.1 141.898 161.1 142.098C161.1 142.298 161.1 142.498 161.1 142.598C161.1 142.598 160.7 142.798 160.7 142.898C160.7 142.898 159.2 143.098 158.7 143.198H158.5C158 143.198 157.3 143.098 157.3 142.898C157.3 142.698 157.3 142.498 157.3 142.298L157.1 141.898Z" fill="black"/>
<path d="M159.499 163.901C160.999 163.901 162.599 163.901 164.099 163.701C164.699 163.701 165.299 163.901 165.899 163.301C166.199 163.001 166.799 163.601 167.299 163.601C168.699 163.501 170.199 163.601 171.599 163.401C172.999 163.301 174.399 163.001 175.799 162.901C177.199 162.801 178.599 163.001 179.999 162.701C181.199 162.401 182.199 162.801 183.299 162.701C184.499 162.501 185.699 162.401 186.799 162.701C187.599 162.801 188.499 163.001 189.299 162.901C189.799 162.901 190.299 162.501 190.899 162.501C191.399 162.501 191.999 162.801 192.499 162.101C192.499 162.101 192.799 162.101 192.899 162.201C193.499 162.601 194.199 162.501 194.599 162.201C195.099 161.901 195.499 161.901 195.899 161.901C196.999 161.901 197.999 161.701 198.799 161.601C199.399 161.501 199.899 161.501 200.399 161.101C200.899 160.801 201.099 160.001 201.699 159.601C202.299 159.201 202.599 158.501 202.799 157.801C202.899 157.401 203.299 157.001 202.799 156.501C202.799 156.501 202.799 156.301 202.799 156.201C203.899 155.201 202.999 153.601 203.399 152.401C203.799 151.101 203.699 149.701 203.699 148.301C203.699 147.901 203.899 147.501 203.399 147.201C203.399 147.201 203.399 147.201 203.399 147.101V147.001C203.699 147.001 203.699 146.701 203.699 146.701C203.699 146.701 203.699 146.701 203.599 146.701C203.499 146.701 203.299 146.601 203.199 146.501C202.099 145.901 200.799 145.801 199.799 144.901C199.399 144.501 198.699 144.201 197.899 144.501C197.499 144.701 197.099 144.201 196.599 144.101C196.199 144.101 195.799 144.101 195.499 144.101C195.199 144.101 194.999 143.701 194.699 143.501C194.699 143.501 194.499 143.501 194.399 143.501C192.499 143.501 190.999 142.201 189.199 141.801C187.399 141.501 185.599 140.901 183.899 140.301C182.899 140.001 181.999 139.501 181.599 138.301C181.399 137.701 181.599 137.201 182.099 137.001C182.499 136.801 182.899 136.701 183.299 136.801C183.899 136.801 184.499 136.801 185.099 136.901C186.299 137.001 187.599 136.901 188.699 137.401C188.999 137.601 189.599 137.401 189.699 138.001C189.699 138.001 189.899 138.201 189.899 138.101C191.699 137.801 193.199 138.801 194.799 139.301C196.199 139.701 197.699 139.501 198.999 140.301C199.999 140.001 200.799 140.301 201.499 140.801C202.099 141.201 202.699 141.501 203.399 141.801C203.699 141.901 203.999 142.101 204.399 142.201L205.499 142.601C206.699 143.001 207.699 143.801 208.199 145.001C208.399 145.601 208.499 146.201 208.499 146.901C208.499 147.301 208.499 147.601 208.499 148.001C208.399 151.001 208.199 154.001 207.499 156.901C207.399 157.401 207.599 158.001 207.199 158.501C206.799 159.001 206.699 159.801 206.399 160.501C206.099 161.101 205.899 161.801 205.399 162.301C204.399 163.301 203.399 164.301 202.099 165.001C200.799 165.801 199.399 166.201 198.199 166.301C196.899 166.301 195.799 166.301 194.699 166.401C193.599 166.401 192.499 166.401 191.399 166.601C190.099 166.701 188.699 167.101 187.399 167.101C186.799 167.101 186.199 167.401 185.599 166.901C185.399 166.701 184.899 167.201 184.499 167.201C183.599 167.201 182.599 167.201 181.699 167.301C180.399 167.301 179.099 167.301 177.799 167.501C176.999 167.501 176.199 167.801 175.499 167.901C174.699 167.901 173.899 168.001 172.999 167.901C171.999 167.901 170.899 167.701 169.899 167.701C168.799 167.701 167.699 168.001 166.699 167.701C164.799 167.301 162.799 167.601 160.899 167.601C158.999 167.601 157.099 167.601 155.199 167.801C154.099 167.901 153.099 167.401 152.099 167.501C151.599 167.501 150.899 166.101 151.099 165.601C151.099 165.601 151.199 165.401 151.299 165.401C152.299 164.901 153.199 164.101 154.399 164.101C156.199 164.101 157.899 164.001 159.699 163.901H159.499Z" fill="black"/>
<path d="M206.5 142.199C206.8 141.599 207.2 140.999 207.4 140.399C207.4 140.199 207.8 139.999 207.4 139.599C207.2 139.399 207.9 139.399 207.9 139.199C208.1 138.599 208.4 137.999 208.5 137.399C208.6 136.799 208.5 136.199 208.6 135.599C208.6 135.299 208.7 134.999 208.8 134.799C208.8 134.499 208.8 134.199 208.8 133.999C208.5 133.999 209 133.799 208.9 133.699C208.7 133.699 208.7 133.699 208.7 133.499C208.7 133.299 208.7 133.099 208.6 133.199C208.6 133.199 208.2 133.499 208 133.499C207.8 133.499 207.5 133.199 207.3 133.799C207.3 133.799 207.2 133.799 207.1 133.599C206.9 133.199 206.6 133.199 206.4 133.399C206.2 133.699 206 133.599 205.8 133.599C205.3 133.599 204.8 133.599 204.3 133.599C203.9 133.599 203.5 133.299 203.1 133.299C202.7 133.299 202.3 133.599 201.9 133.299C201.5 132.999 201.1 133.099 200.8 133.099C200.6 133.099 200.3 132.899 200.2 133.499C200.2 133.499 200.2 133.499 200.1 133.499C199.4 132.799 199 133.999 198.4 133.899C198.2 133.899 198.1 133.899 197.9 133.899H197.7C197.7 133.899 197.7 133.899 197.6 133.999C197.6 133.999 197.4 133.899 197.8 134.199C197.9 134.299 198 134.299 197.8 134.199C197.2 133.799 197.3 133.999 197.3 133.999C197.3 133.999 197.3 133.999 197.3 134.099C197.3 134.099 197.3 134.099 197 134.199C196.8 134.199 196.8 134.399 197.4 134.299C197.7 134.299 197.4 134.299 197.5 134.299C197.5 134.299 197.9 134.299 198 134.399C198 134.499 198 134.799 198 134.899C198 134.899 198 134.899 198 134.999C199 135.299 198.7 136.399 199.4 136.899C200 137.399 200.5 138.099 201 138.699C201.3 139.099 201.5 139.499 200.9 140.499C200.6 140.999 200.3 141.399 199.9 141.499C199.6 141.499 199.3 141.599 199.2 141.499C198.9 141.399 198.6 141.299 198.4 141.099C197.9 140.799 197.1 140.699 196.9 140.099C196.9 139.899 196.5 139.899 196.8 139.499V139.399C195.7 139.299 195.6 138.299 195.1 137.699C194.9 137.399 194.5 137.299 194.2 136.999C194.2 136.999 194.1 136.899 194 136.799C194 136.799 193.9 136.699 193.8 136.499C193.6 136.299 193.5 135.999 193.4 135.699C192.4 135.399 192.1 134.499 192 133.899C191.8 132.899 191.5 132.099 190.9 131.099C192 130.699 193.1 130.199 194.3 129.899L196 129.399L197.4 129.099C198.1 128.899 198.8 128.799 199.5 128.699C199.7 128.699 199.9 128.299 200.2 128.499C200.5 128.699 200.8 128.499 201.1 128.499C201.4 128.499 201.7 128.299 201.9 128.499C203 129.099 204.1 128.599 205.2 128.699C206.3 128.699 207.4 128.899 208.5 128.799C208.9 128.799 210.5 128.499 211.4 128.999C211.8 129.199 212.4 129.299 212.3 129.999C212.3 130.199 212.9 130.199 213 130.499C213.4 131.099 213.5 131.899 213.5 132.599V133.399C213.5 133.699 213.5 133.999 213.5 134.099C213.5 134.399 213.5 134.799 213.4 135.099C213.4 135.499 213.5 135.999 213.5 136.399C213.5 136.799 213.4 137.299 213.2 137.699C213 138.199 212.6 138.599 212.4 139.099C212.2 139.599 212.2 140.199 211.8 140.599C211 141.299 210.8 142.199 210.3 142.999C209.8 143.799 209.3 144.599 209 145.399C208.8 145.899 208.1 145.999 207.9 146.399C207.8 146.599 206.4 146.099 206 145.699L205.9 145.499C205.8 144.799 205.4 144.099 205.7 143.699C206.2 143.099 206.5 142.399 206.9 141.699L206.5 142.199Z" fill="black"/>
<path d="M105.901 142.798C104.201 143.098 102.601 143.198 100.901 143.298C100.301 143.298 99.7009 143.098 99.0009 143.698C98.7009 143.998 98.1009 143.398 97.5009 143.398C96.0009 143.498 94.5009 143.398 93.0009 143.398C91.5009 143.398 90.1009 143.698 88.6009 143.698C87.1009 143.698 85.6009 143.298 84.1009 143.498C82.8009 143.598 81.7009 142.998 80.5009 142.898C79.2009 142.798 77.8009 142.498 76.7009 141.898C75.9009 141.398 75.1009 140.898 74.2009 140.598C73.6009 140.398 73.0009 140.398 72.4009 140.098C72.1009 139.898 71.9009 139.698 71.6009 139.498C71.4009 139.498 71.3009 139.298 71.1009 139.198C70.9009 139.198 70.6009 138.998 70.3009 138.998C70.3009 138.998 69.9009 138.598 69.9009 138.298C69.7009 137.698 69.5009 137.198 69.3009 136.598C69.2009 136.098 69.0009 135.598 68.9009 135.198C68.7009 134.298 68.9009 133.498 69.4009 132.698C69.5009 132.398 69.7009 132.198 69.9009 131.898C70.1009 131.698 70.2009 131.498 70.4009 131.398C70.7009 131.098 71.0009 130.798 71.3009 130.498C71.9009 129.998 72.6009 129.598 73.2009 129.298C74.0009 128.898 74.9009 128.598 75.8009 128.198C76.7009 127.798 77.4009 126.998 78.4009 126.798C79.3009 126.598 80.1009 126.198 80.9009 125.798C81.3009 125.598 82.0009 125.498 82.1009 124.798C82.1009 124.798 82.3009 124.598 82.4009 124.698C84.1009 124.698 84.8009 123.198 86.3009 122.698C87.8009 122.298 89.1009 121.498 90.6009 120.898C91.0009 120.698 91.5009 120.798 91.7009 120.198C91.7009 119.998 92.2009 119.798 92.4009 119.898C93.7009 120.098 94.7009 119.398 95.9009 119.198C97.2009 118.998 98.5009 118.398 100.001 118.598C100.601 118.598 101.401 118.698 102.001 117.998C102.301 117.698 103.001 117.998 103.501 117.798C103.901 117.798 104.301 117.398 104.701 117.398C105.101 117.398 105.401 117.598 105.801 117.698C105.901 117.698 106.001 117.698 106.101 117.698C108.101 116.998 110.101 118.098 112.101 118.198C114.201 118.398 116.201 118.998 118.101 119.898C118.601 120.198 119.101 120.498 119.501 120.898C119.901 121.298 120.201 121.898 120.201 122.498C120.201 123.098 119.901 123.598 119.401 123.698C119.001 123.698 118.601 123.698 118.201 123.698C117.601 123.498 117.101 123.398 116.501 123.298C115.301 123.098 114.101 123.198 113.101 122.598C112.801 122.398 112.301 122.598 112.101 122.098L111.901 121.998C110.201 122.498 108.701 121.798 107.001 121.798C105.601 121.798 104.301 122.498 102.901 122.398C102.201 123.098 101.301 123.098 100.501 123.098C97.7009 122.898 95.1009 124.098 92.5009 124.998C89.8009 125.898 87.3009 127.198 84.7009 128.498C84.3009 128.698 84.1009 129.198 83.4009 129.298C82.8009 129.298 82.3009 129.798 81.7009 130.098C81.2009 130.398 80.7009 130.798 80.2009 130.898C79.0009 131.198 78.0009 131.698 77.0009 132.298L75.5009 133.198C75.0009 133.498 74.6009 133.698 74.3009 133.998C73.9009 134.298 73.5009 134.698 73.4009 134.798C73.3009 134.998 73.2009 135.198 73.3009 135.498C73.4009 135.798 73.6009 135.898 74.4009 136.298C75.6009 136.898 76.8009 136.998 78.0009 137.598C78.5009 137.798 79.1009 137.598 79.5009 138.398C79.6009 138.598 80.2009 138.298 80.6009 138.398C81.5009 138.598 82.4009 138.698 83.3009 138.898C84.5009 139.098 85.8009 139.198 87.1009 139.198C87.9009 139.198 88.7009 138.998 89.5009 138.898C90.3009 138.898 91.2009 138.898 92.0009 138.898C93.1009 138.898 94.1009 139.198 95.2009 139.198C96.3009 139.198 97.5009 138.998 98.5009 139.198C100.501 139.598 102.401 139.198 104.301 139.098C106.201 138.898 108.101 138.598 109.801 137.998C110.801 137.598 111.801 137.798 112.801 137.398C113.201 137.198 114.501 138.298 114.501 138.798C114.501 138.898 114.501 138.998 114.501 139.098C113.701 139.998 113.001 141.098 111.701 141.398C109.801 141.898 108.001 142.398 106.101 142.698L105.901 142.798Z" fill="black"/>
<path d="M155.199 109.599C154.499 108.599 153.799 107.599 152.999 106.699C152.699 106.399 152.599 105.799 151.899 105.799C151.499 105.799 151.699 105.099 151.399 104.799C150.599 103.999 149.899 103.099 148.999 102.399C148.199 101.699 147.199 101.099 146.299 100.499C145.399 99.899 144.699 98.899 143.699 98.599C142.799 98.299 142.399 97.499 141.599 97.099C140.799 96.699 139.899 96.299 139.199 95.699C138.699 95.199 138.199 94.799 137.599 94.599C137.199 94.499 136.699 94.599 136.299 94.499C135.899 94.299 135.599 93.899 134.999 94.399C134.999 94.399 134.799 94.299 134.799 94.199C134.499 93.699 133.999 93.499 133.599 93.699C133.199 93.899 132.899 93.699 132.599 93.699C131.699 93.499 130.899 93.299 129.999 93.099C129.399 92.899 128.699 92.599 128.099 92.399C127.399 92.199 126.599 92.399 126.099 92.099C125.599 91.799 124.999 91.799 124.599 91.899C124.499 91.899 124.299 91.899 124.199 91.899C124.199 91.899 124.199 91.999 124.199 92.299C123.799 91.999 123.699 92.299 123.799 92.399C123.899 92.599 124.099 92.599 124.099 92.699C124.099 93.099 124.299 93.699 124.499 94.199C124.699 94.699 124.999 95.199 125.199 95.699C125.299 95.999 125.199 96.299 125.799 96.399C125.999 96.399 126.099 96.699 126.099 96.899C125.899 97.899 126.599 98.499 126.999 99.299C127.399 100.199 128.099 100.799 128.299 101.899C128.299 102.299 128.599 102.899 129.399 102.899C129.799 102.899 129.799 103.499 130.099 103.699C130.299 103.899 130.699 103.899 130.899 104.199C131.099 104.399 130.999 104.699 131.099 104.999C131.099 104.999 131.099 105.099 131.299 105.199C132.699 105.799 132.999 107.399 134.199 108.199C135.399 108.999 136.399 109.999 137.499 110.899C138.099 111.399 138.699 111.999 138.499 113.299C138.499 113.899 138.199 114.299 137.699 114.399C137.399 114.399 136.999 114.399 136.699 114.399C136.199 114.199 135.799 113.999 135.299 113.799C134.399 113.399 133.299 113.199 132.599 112.299C132.399 111.999 131.899 111.999 132.099 111.399C132.099 111.399 132.099 111.199 131.999 111.199C130.399 110.899 129.699 109.499 128.799 108.399C127.999 107.599 126.699 106.999 126.199 105.899C125.299 105.799 124.899 104.999 124.699 104.299C123.899 101.899 122.299 100.099 121.399 97.799C120.899 96.699 120.499 95.499 120.099 94.399L119.899 93.899C119.899 93.599 119.799 93.399 119.699 93.099C119.699 92.599 119.699 92.099 119.699 91.499C119.899 90.499 120.399 89.499 121.199 88.899C121.499 88.699 121.699 88.399 121.999 88.199C122.299 87.999 122.699 87.799 123.099 87.799C123.799 87.799 124.499 87.499 125.099 87.499C125.699 87.499 126.299 87.299 126.799 87.499C128.699 88.299 130.599 88.199 132.399 88.699C134.199 89.199 135.999 89.899 137.799 90.399C138.899 90.799 140.099 90.899 141.099 91.599C141.499 91.899 142.199 91.799 142.299 92.599C142.299 92.799 142.999 92.599 143.299 92.799C143.999 93.199 144.699 93.599 145.299 93.999C146.199 94.599 147.099 95.299 147.999 95.899C148.499 96.299 149.199 96.499 149.799 96.899C150.399 97.299 150.899 97.799 151.399 98.299C151.999 98.999 152.499 99.699 153.099 100.399C153.699 101.099 154.599 101.599 154.899 102.499C155.599 104.099 156.799 105.199 157.699 106.499C158.599 107.799 159.399 109.199 160.399 110.499C160.899 111.199 160.899 112.199 161.299 112.999C161.499 113.399 160.499 114.499 159.899 114.599C159.899 114.599 159.699 114.599 159.599 114.599C158.799 114.099 157.799 113.799 157.399 112.999C156.799 111.799 155.999 110.599 155.199 109.499V109.599Z" fill="black"/>
<path d="M158.5 185.301C158.5 185.001 158.5 184.601 158.4 184.301C158.4 184.201 158.6 184.001 158.1 183.901C157.8 183.901 158.5 183.701 158.4 183.601C158.4 183.301 158.4 183.001 158.3 182.601C158.3 182.301 158 182.001 157.9 181.701C157.9 181.401 158.1 181.101 157.7 180.801C157.4 180.601 157.9 180.301 157.7 180.101C157.6 179.901 157.4 179.601 157.7 179.301C157.9 179.101 158.1 178.901 157.9 178.701C157.9 178.601 157.5 178.501 157.5 178.401C157.5 178.301 157.8 178.101 157.1 178.101C157.1 178.101 157.1 178.101 157.2 178.001C157.6 177.801 157.6 177.701 157.2 177.601C156.9 177.601 156.9 177.401 156.9 177.301C156.9 177.001 156.8 176.801 156.9 176.501C156.9 176.301 157.1 176.101 157.2 175.901C157.2 175.701 156.9 175.501 157.2 175.301C157.5 175.101 157.5 174.901 157.4 174.701C157.4 174.601 157.7 174.401 157 174.401C157.8 174.001 156.7 173.801 156.9 173.501C157.1 173.201 156.9 172.901 156.9 172.501C156.9 172.501 157.1 172.301 156.6 172.301C156.4 172.301 156.4 172.201 156.6 172.101C157.2 171.801 156.8 171.601 156.9 171.301C156.9 171.001 156.7 170.801 157.1 170.401C157.3 170.301 157.4 170.101 156.8 170.001C156.5 170.001 156.8 169.801 156.8 169.701C156.8 169.701 156.5 169.601 156.4 169.501C156.4 169.501 156.6 169.301 156.7 169.301C156 169.001 156.9 168.501 156.7 168.101C156.5 167.701 156.5 167.301 156.6 166.901C156.6 166.701 156.8 166.401 157.9 166.201C158.4 166.101 159 166.001 159.3 166.201C159.5 166.201 159.8 166.301 159.8 166.401C159.9 166.501 160.1 166.601 160.2 166.801C160.4 167.001 161 167.301 160.7 167.601C160.7 167.601 160.9 167.801 160.4 167.901C161.2 168.201 160.7 168.601 160.8 169.001C160.8 169.301 161.5 169.601 161.3 169.901C161.9 170.001 161.9 170.201 161.7 170.401C161.1 171.101 161.6 171.701 161.6 172.301C161.6 172.901 161.7 173.501 161.7 174.201C161.7 174.301 162.1 174.401 161.8 174.501C161.6 174.601 161.8 174.801 161.8 174.901C161.8 175.001 162 175.101 161.8 175.301C161.2 175.801 161.6 176.301 161.6 176.801C161.6 177.301 161.6 177.801 161.8 178.301C161.9 178.601 162.3 178.901 162.2 179.201C162.2 179.301 162.5 179.401 161.9 179.601C161.7 179.601 162.2 179.701 162.2 179.801C162.2 180.001 162.2 180.201 162.2 180.401C162.2 180.701 162.2 181.001 162.2 181.301C162.2 181.501 162.5 181.601 162.6 181.801C162.6 182.001 162.6 182.201 162.6 182.301C162.6 182.501 162.4 182.801 162.3 183.001C162.3 183.201 162.6 183.501 162.3 183.701C161.8 184.201 162.1 184.601 162.1 185.001C162.1 185.401 162.1 185.901 162.2 186.301C162.2 186.501 161.8 186.801 161.8 187.001C161.8 187.101 160.4 187.401 159.9 187.401H159.7C159.2 187.201 158.5 187.101 158.5 186.801C158.5 186.401 158.5 186.001 158.5 185.601V185.301Z" fill="black"/>
<path d="M150.2 157.901C150.5 158.001 150.8 158.301 151.1 158.401C151.2 158.401 151.1 158.701 151.6 158.401C151.8 158.201 151.6 158.801 151.6 158.901C151.9 159.101 152 159.401 152.3 159.601C152.5 159.801 152.9 160.001 153.1 160.301C153.3 160.601 153.1 161.001 153.5 161.201C153.8 161.401 153.5 161.701 153.5 161.901C153.7 162.101 153.8 162.401 153.5 162.601C153.3 162.801 153.1 163.001 153.2 163.101C153.2 163.101 153.6 163.301 153.6 163.401C153.6 163.501 153.3 163.601 153.9 163.701C153.9 163.701 153.9 163.701 153.7 163.701C153.3 163.701 153.3 163.901 153.6 164.001C153.9 164.101 153.8 164.201 153.8 164.301C153.8 164.501 153.8 164.801 153.7 165.001C153.7 165.201 153.3 165.301 153.2 165.401C153.1 165.601 153.2 165.801 152.9 165.901C152.6 165.901 152.5 166.101 152.4 166.301C152.4 166.301 152.1 166.301 152.6 166.701C151.7 166.501 152.6 167.301 152.2 167.501C151.8 167.601 151.8 168.001 151.5 168.201C151.5 168.201 151.2 168.201 151.5 168.601C151.5 168.701 151.5 168.801 151.5 168.801C150.9 168.501 150.9 168.901 150.6 169.001C150.3 169.001 150.1 169.501 149.6 169.201C149.4 169.101 149.2 169.001 149.3 169.601C149.3 169.901 149.1 169.601 149 169.801C149 169.801 148.9 170.201 148.8 170.201C148.8 170.201 148.6 170.001 148.5 169.901C148.3 170.301 148 170.201 147.8 170.101C147.6 170.001 147.3 169.801 147.1 169.801C146.6 169.901 146.1 169.701 145.7 169.401C145.5 169.201 145.3 168.901 145.9 167.901C146.1 167.401 146.5 167.001 146.7 166.801C146.9 166.601 147 166.501 147.1 166.401C147.1 166.401 147.3 166.201 147.4 166.201C147.6 166.101 147.8 165.601 147.7 165.901C147.7 165.901 147.7 165.701 147.7 166.201C147.9 165.401 147.9 166.001 148 165.901C148 165.901 148 165.201 148.1 165.501C147.9 164.901 148 165.001 148.1 165.201C148.5 165.801 148.4 165.301 148.5 165.201C148.7 165.201 148.7 164.901 148.9 164.801C148.9 164.801 148.6 164.601 148.9 164.701C149.2 164.701 148.9 164.701 149 164.601V164.501C149.7 164.501 149.4 164.201 149.5 164.001C149.6 163.801 149.7 163.601 149.5 163.301C149.5 163.201 149.1 163.101 149.2 162.901C149.2 162.901 148.9 162.901 149.5 162.701C149.7 162.701 149.2 162.701 149.2 162.701C149.2 162.701 149.2 162.601 149.2 162.501V162.301C149.2 162.301 148.9 162.301 148.8 162.301C148.8 162.301 149 162.101 149 162.001C149 162.001 148.8 162.001 149 161.801C149.2 161.301 149 161.501 149 161.401C149 161.301 148.8 161.201 148.7 161.401C148.7 161.401 148.7 161.001 148.6 161.001C148.6 161.001 148.4 159.501 148.4 159.001V158.801C148.6 158.301 148.8 157.601 149.1 157.701C149.5 157.801 149.9 157.901 150.3 158.101L150.2 157.901Z" fill="black"/>
</svg>
