<svg width="300" height="300" viewBox="0 0 300 300" fill="none" xmlns="http://www.w3.org/2000/svg">
<path d="M176.6 132.902C174.9 131.102 173.2 129.202 171.5 127.402C170.8 126.702 170.4 125.902 169.3 125.502C168.8 125.302 168.6 124.202 168 123.602C166.4 121.902 164.8 120.202 163.2 118.502C161.6 116.902 160 115.702 158.4 115.202C156.8 114.602 154.7 114.102 152.5 114.402C150.7 114.602 149 114.102 147.3 114.302C145.4 114.502 143.5 114.702 141.7 114.602C140.4 114.602 139 114.502 137.7 114.802C136.9 115.002 136.2 115.402 135.3 115.502C134.5 115.602 133.5 115.502 132.9 116.302C132.9 116.302 132.5 116.302 132.3 116.302C131.3 116.102 130.3 116.302 129.6 116.802C129 117.202 128.3 117.402 127.7 117.502C125.9 118.002 124.1 118.502 122.5 119.102C121.3 119.502 120.1 119.902 119.1 120.502C118 121.202 117.5 122.302 116.7 123.102C115.9 123.902 115.5 125.002 115.2 126.202C115 126.902 114.6 127.602 115.2 128.302C115.2 128.302 115.2 128.602 115.2 128.702C114.1 130.702 115.2 132.902 115 135.002C114.8 137.302 115 139.602 115 141.902C115 142.502 114.9 143.202 115.4 143.702C115.6 143.902 115.6 144.502 115.5 144.802C115 146.502 115.5 148.302 115.5 150.102C115.5 152.102 116.1 154.102 115.8 156.102C115.7 157.002 115.8 158.102 116.4 159.102C116.7 159.502 116.6 160.502 116.8 161.302C116.9 161.902 117.3 162.402 117.4 163.002C117.4 163.502 117.4 164.002 117.3 164.602C117.3 164.802 117.3 164.902 117.3 165.102C118.4 167.902 118 170.902 118.7 173.802C119.4 176.702 119.9 179.702 120.3 182.602C120.6 184.202 120.7 185.902 119.8 187.302C119.4 187.902 118.8 188.002 118.4 187.302C118.1 186.802 117.7 186.302 117.6 185.702C117.3 184.802 117 183.902 116.8 183.002C116.3 181.202 115.4 179.402 115.3 177.402C115.3 176.802 114.9 176.102 115.3 175.502C115.3 175.502 115.3 175.202 115.3 175.002C114.1 172.502 114.1 169.702 113.6 167.102C113.2 164.802 112.2 162.702 112.2 160.402C111.4 159.202 111.3 157.702 111.4 156.402C111.5 151.802 110.7 147.302 110.6 142.702C110.6 140.402 110.5 138.002 110.5 135.702C110.5 133.402 110.5 131.002 110.8 128.602C110.8 127.802 110.6 127.002 111.1 126.002C111.5 125.102 111.7 123.902 112.1 122.802C112.5 121.802 112.9 120.702 113.6 120.002C116.6 116.802 120.3 114.902 123.8 113.802C127.3 112.802 130.9 112.002 134.5 111.302C136.7 110.802 138.8 110.202 141.1 110.102C142.1 110.102 143 109.602 144 110.102C144.3 110.302 145.1 109.802 145.8 109.702C147.3 109.602 148.9 109.602 150.4 109.602C152.5 109.602 154.6 109.602 157 110.002C158.4 110.202 159.9 110.302 161.4 111.002C162.9 111.702 164.2 112.802 165.2 113.802C166.5 115.202 167.4 116.502 168.5 117.802C169.6 119.102 171.1 120.302 172 121.702C173.8 124.302 176.1 126.402 178.1 128.702C180.2 131.002 182.2 133.302 184.4 135.502C185.6 136.702 186.4 138.202 187.5 139.502C188 140.102 187.7 141.902 187.1 142.002C187 142.002 186.8 142.002 186.7 142.002C185.2 141.102 183.6 140.502 182.4 139.002C180.5 136.902 178.5 134.802 176.6 132.802V132.902Z" fill="black"/>
<path d="M166.101 147.302C166.501 147.102 166.801 147.002 167.201 146.702C167.301 146.702 167.601 146.702 167.501 146.202C167.501 145.902 167.901 146.402 168.001 146.402C168.301 146.202 168.701 146.102 169.001 145.902C169.301 145.702 169.501 145.302 169.801 145.102C170.101 144.902 170.601 145.102 170.801 144.602C171.001 144.202 171.401 144.602 171.601 144.302C171.801 144.102 172.101 143.902 172.501 144.002C172.801 144.002 173.101 144.202 173.201 144.002C173.201 143.902 173.201 143.502 173.401 143.502C173.501 143.502 173.801 143.702 173.701 143.002C173.701 143.002 173.701 143.002 173.901 143.002C174.201 143.302 174.401 143.202 174.401 143.002C174.401 142.702 174.501 142.702 174.601 142.602C174.901 142.502 175.201 142.302 175.501 142.302C175.701 142.302 176.001 142.302 176.301 142.302C176.501 142.302 176.701 141.902 177.001 142.102C177.301 142.302 177.501 142.202 177.701 142.102C177.801 142.102 178.101 142.302 177.901 141.602C178.501 142.302 178.501 141.102 178.901 141.202C179.301 141.202 179.601 141.002 180.001 140.902C180.001 140.902 180.301 141.002 180.201 140.502C180.201 140.302 180.201 140.302 180.401 140.402C180.901 140.902 181.001 140.402 181.301 140.402C181.601 140.402 181.901 140.002 182.301 140.402C182.501 140.602 182.701 140.602 182.701 140.002C182.701 139.702 182.901 140.002 183.001 139.802C183.001 139.802 183.001 139.402 183.201 139.402C183.201 139.402 183.401 139.602 183.501 139.702C183.801 138.902 184.501 139.702 184.901 139.302C185.301 139.002 185.801 138.902 186.301 138.902C186.601 138.902 186.901 138.902 187.401 140.002C187.601 140.502 187.801 141.002 187.701 141.402C187.701 141.702 187.701 141.902 187.601 142.002C187.501 142.102 187.401 142.302 187.301 142.402C187.101 142.702 186.901 143.302 186.601 143.102C186.501 143.102 186.501 143.402 186.201 142.902C186.001 143.802 185.501 143.402 185.101 143.602C184.801 143.802 184.601 144.502 184.201 144.302C184.201 145.002 184.001 144.902 183.701 144.802C182.801 144.402 182.301 145.002 181.601 145.202C180.901 145.302 180.301 145.702 179.601 145.902C179.501 145.902 179.601 146.302 179.301 146.102C179.101 145.902 179.001 146.102 178.801 146.202C178.701 146.202 178.601 146.402 178.401 146.302C177.601 145.902 177.301 146.502 176.701 146.602C176.201 146.702 175.601 146.902 175.201 147.302C174.901 147.502 174.801 148.002 174.401 148.002C174.201 148.002 174.201 148.402 173.901 147.902C173.801 147.802 173.901 148.202 173.801 148.302C173.601 148.402 173.401 148.502 173.201 148.602C172.901 148.702 172.601 148.802 172.301 149.002C172.101 149.102 172.101 149.402 171.901 149.602C171.701 149.702 171.601 149.802 171.301 149.902C171.001 149.902 170.701 149.902 170.401 149.902C170.101 149.902 170.001 150.302 169.601 150.202C168.901 150.002 168.601 150.402 168.201 150.602C167.701 150.802 167.301 150.902 166.901 151.302C166.701 151.502 166.201 151.202 166.001 151.302C165.901 151.302 165.101 150.102 164.901 149.702V149.502C164.901 149.002 164.801 148.202 165.101 148.102C165.501 148.002 165.901 147.702 166.301 147.502L166.101 147.302Z" fill="black"/>
<path d="M146.699 141.101C146.699 140.901 146.699 140.701 146.699 140.601C146.699 140.601 146.899 140.501 146.399 140.401C146.099 140.401 146.799 140.301 146.699 140.201C146.699 140.001 146.699 139.901 146.699 139.701C146.699 139.501 146.399 139.401 146.399 139.201C146.399 139.001 146.699 138.901 146.399 138.701C146.099 138.501 146.599 138.501 146.499 138.301C146.399 138.201 146.299 138.001 146.499 137.901C146.699 137.901 146.899 137.701 146.799 137.601C146.799 137.601 146.399 137.401 146.499 137.401C146.499 137.401 146.799 137.401 146.199 137.201C146.199 137.201 146.199 137.201 146.399 137.201C146.799 137.201 146.799 137.201 146.499 137.001C146.199 137.001 146.299 136.901 146.299 136.801C146.299 136.701 146.299 136.501 146.299 136.401C146.299 136.401 146.599 136.201 146.699 136.201C146.699 136.201 146.499 135.901 146.799 135.901C147.099 135.901 147.099 135.801 147.099 135.701C147.099 135.701 147.399 135.701 146.799 135.501C147.599 135.501 146.599 135.101 146.799 135.001C146.999 134.901 146.899 134.701 146.999 134.501C146.999 134.501 147.199 134.501 146.799 134.301C146.599 134.201 146.599 134.301 146.799 134.301C147.399 134.301 147.099 134.101 147.199 134.001C147.399 133.901 147.199 133.701 147.599 133.701C147.799 133.701 147.899 133.701 147.399 133.401C147.199 133.301 147.399 133.401 147.399 133.201L147.099 133.001C147.099 133.001 147.299 133.001 147.499 133.001C146.899 132.601 147.899 132.701 147.799 132.401C147.799 132.101 147.799 132.001 147.999 131.801C147.999 131.801 148.299 131.701 149.399 132.001C149.899 132.201 150.399 132.401 150.699 132.601C150.899 132.701 151.099 132.801 151.099 132.901C151.099 132.901 151.299 133.101 151.299 133.201C151.399 133.401 151.899 133.701 151.599 133.701C151.599 133.701 151.799 133.901 151.299 133.701C151.999 134.101 151.399 134.101 151.399 134.301C151.399 134.401 151.999 134.801 151.699 134.801C152.299 135.101 152.099 135.101 151.899 135.101C151.199 135.101 151.499 135.501 151.399 135.801C151.199 136.001 151.299 136.301 151.199 136.601C151.199 136.601 151.499 136.801 151.199 136.801C150.899 136.801 151.199 136.901 151.199 137.001C151.199 137.001 151.299 137.101 151.199 137.201C150.499 137.201 150.899 137.601 150.799 137.801C150.799 138.001 150.599 138.201 150.799 138.401C150.799 138.501 151.199 138.701 151.099 138.801C151.099 138.801 151.399 138.901 150.799 138.901C150.599 138.901 151.099 138.901 151.099 139.001C151.099 139.001 151.099 139.201 151.099 139.301C151.099 139.401 151.099 139.501 151.099 139.701L151.399 139.901V140.101C151.399 140.101 151.099 140.301 150.999 140.401C150.999 140.501 151.199 140.601 150.999 140.701C150.499 140.901 150.699 141.101 150.699 141.301C150.699 141.501 150.699 141.701 150.699 141.801C150.699 141.801 150.299 142.001 150.299 142.101C150.299 142.101 148.799 142.301 148.299 142.401H148.099C147.599 142.401 146.899 142.301 146.899 142.101C146.899 141.901 146.899 141.701 146.899 141.501L146.699 141.101Z" fill="black"/>
<path d="M157.1 141.902C157.1 141.702 157.1 141.502 157.1 141.402C157.1 141.402 157.3 141.302 156.8 141.202C156.5 141.202 157.2 141.102 157.1 141.002C157.1 140.802 157.1 140.702 157.1 140.502C157.1 140.302 156.8 140.202 156.8 140.002C156.8 139.802 157.1 139.702 156.8 139.502C156.5 139.302 157 139.302 156.9 139.102C156.8 139.002 156.7 138.802 156.9 138.702C157.1 138.702 157.3 138.502 157.2 138.402C157.2 138.402 156.8 138.202 156.9 138.202C156.9 138.202 157.2 138.202 156.6 138.002C156.6 138.002 156.6 138.002 156.8 138.002C157.2 138.002 157.2 138.002 156.9 137.802C156.6 137.802 156.7 137.702 156.7 137.602C156.7 137.502 156.7 137.302 156.7 137.202C156.7 137.202 157 137.002 157.1 137.002C157.1 137.002 156.9 136.702 157.2 136.702C157.5 136.702 157.5 136.602 157.5 136.502C157.5 136.502 157.8 136.502 157.2 136.302C158 136.302 157 135.902 157.2 135.802C157.4 135.702 157.3 135.502 157.4 135.302C157.4 135.302 157.6 135.302 157.2 135.102C157 135.002 157 135.102 157.2 135.102C157.8 135.102 157.5 134.902 157.6 134.802C157.8 134.702 157.6 134.502 158 134.502C158.2 134.502 158.3 134.502 157.8 134.202C157.6 134.102 157.8 134.202 157.8 134.002L157.5 133.802C157.5 133.802 157.7 133.802 157.9 133.802C157.3 133.402 158.3 133.502 158.2 133.202C158.2 132.902 158.2 132.802 158.4 132.602C158.4 132.602 158.7 132.502 159.8 132.802C160.3 133.002 160.8 133.202 161.1 133.402C161.3 133.502 161.5 133.602 161.5 133.702C161.5 133.702 161.7 133.902 161.7 134.002C161.8 134.202 162.3 134.502 162 134.502C162 134.502 162.2 134.702 161.7 134.502C162.4 134.902 161.8 134.902 161.8 135.102C161.8 135.202 162.4 135.602 162.1 135.602C162.7 135.902 162.5 135.902 162.3 135.902C161.6 135.902 161.9 136.302 161.8 136.602C161.6 136.802 161.7 137.102 161.6 137.402C161.6 137.402 161.9 137.602 161.6 137.602C161.3 137.602 161.6 137.702 161.6 137.802C161.6 137.802 161.7 137.902 161.6 138.002C160.9 138.002 161.3 138.402 161.2 138.602C161.2 138.802 161 139.002 161.2 139.202C161.2 139.302 161.6 139.502 161.5 139.602C161.5 139.602 161.8 139.702 161.2 139.702C161 139.702 161.5 139.702 161.5 139.802C161.5 139.802 161.5 140.002 161.5 140.102C161.5 140.202 161.5 140.302 161.5 140.502L161.8 140.702V140.902C161.8 140.902 161.5 141.102 161.4 141.202C161.4 141.302 161.6 141.402 161.4 141.502C160.9 141.702 161.1 141.902 161.1 142.102C161.1 142.302 161.1 142.502 161.1 142.602C161.1 142.602 160.7 142.802 160.7 142.902C160.7 142.902 159.2 143.102 158.7 143.202H158.5C158 143.202 157.3 143.102 157.3 142.902C157.3 142.702 157.3 142.502 157.3 142.302L157.1 141.902Z" fill="black"/>
<path d="M199.3 135.498C201.2 134.998 203.2 134.498 205.1 133.898C205.9 133.698 206.8 133.698 207.7 133.098C208.2 132.798 209.1 133.398 210.1 133.598C210.8 133.698 211.5 133.998 212.1 134.498C212.7 134.998 213.2 135.698 213.5 136.398C214.1 137.798 213.9 139.098 213.9 139.998C213.9 141.798 213.9 143.698 213.6 145.698C213.3 147.698 212.4 149.598 211.6 151.598C210.9 153.298 209.3 154.298 208 155.398C206.6 156.598 204.9 157.398 203.4 157.698C202.2 157.898 201.1 158.098 200.1 158.498C199.5 158.798 198.9 159.198 198.2 159.398C197.5 159.598 196.7 159.498 196.3 160.298C196.3 160.298 195.9 160.298 195.8 160.298C195 160.098 194.1 160.298 193.6 160.798C193.1 161.198 192.5 161.298 192 161.498C190.5 161.898 189 162.298 187.4 162.498C186.2 162.698 185.1 162.698 183.9 162.898C182.7 163.098 181.5 163.598 180.3 163.498C179.1 163.398 178.1 163.498 177 163.698C176.4 163.698 175.6 163.698 175.2 164.298C175.2 164.298 174.9 164.298 174.8 164.298C172.9 163.698 171.3 164.998 169.5 164.998C167.6 164.998 165.7 165.298 163.8 165.498C163.3 165.498 162.7 165.498 162.3 165.898C162.1 166.098 161.6 166.098 161.4 165.998C160 165.498 158.4 165.998 156.8 165.698C155.9 165.598 154.9 165.498 153.9 165.098C152.9 164.798 151.9 164.198 151.2 163.298C150.6 162.498 149.9 161.598 148.9 160.898C148.4 160.598 148.3 159.498 148.1 158.798C147.9 158.198 147.6 157.698 147.5 157.098C147.5 156.598 147.7 156.098 147.8 155.598C147.8 155.498 147.8 155.298 147.8 155.198C147.6 154.498 147.6 153.898 147.7 153.198C147.7 152.898 147.7 152.598 147.8 152.298V151.798C147.9 151.798 148.1 150.998 148.1 150.998C148.3 149.898 148.8 148.998 149.6 148.398C150.4 147.798 151.4 147.598 152.5 147.698C152.8 147.698 153 147.698 153.3 147.698H153.9L154.8 147.898C155.4 147.898 156 148.098 156.6 148.098C157.8 148.298 159 148.498 160.2 148.698C161.5 148.898 162.8 149.298 163.5 150.598C163.8 151.198 163.7 151.698 163.1 151.998C162.7 152.198 162.2 152.298 161.7 152.298C160.9 152.298 160.2 152.298 159.4 152.298C157.9 152.298 156.3 152.598 154.7 152.098C154.2 151.898 153.6 152.098 153.3 151.598C153.3 151.598 153 151.398 153 151.498L152.5 151.798C152.4 151.798 152.3 151.998 152.2 152.198V152.398L152.1 152.498V152.698C152 153.198 151.9 153.698 151.9 154.198C151.9 155.898 152.5 157.398 152.7 158.598C153.5 158.998 153.8 159.398 154.1 159.998C154.7 160.898 156.2 161.298 157.8 161.298C159.4 161.298 161.2 161.098 163 160.998C166.6 160.798 170.2 160.298 173.8 159.898C174.4 159.898 174.9 159.398 175.6 159.598C176.3 159.798 177.2 159.398 177.9 159.298C178.6 159.198 179.3 158.898 180 158.998C182.9 159.198 185.7 158.198 188.5 157.598C191.3 156.998 194.1 156.398 196.8 155.498C198.4 154.898 200 154.098 201.6 153.698C202.3 153.498 202.8 152.898 203.7 153.198C203.9 153.198 204.3 152.598 204.6 152.398C205.5 151.798 206.2 151.298 206.9 150.598C207.8 149.598 208.4 148.398 208.8 146.998C209 146.098 209 145.198 209.1 144.298C209.1 143.298 209.3 142.298 209.4 141.298C209.4 140.698 209.6 139.998 209.7 139.398C209.7 138.798 209.8 138.398 209.7 138.198C209.7 137.998 209.6 137.998 209.4 137.898C209.3 137.898 208.9 137.798 208.5 137.598C208.1 137.498 207.6 137.398 207 137.598C206.5 137.598 205.9 137.798 205.3 137.998C204.1 138.298 202.9 138.698 201.7 138.998C199.3 139.598 196.9 140.198 194.6 140.998C193.3 141.398 191.9 141.298 190.6 141.698C190 141.898 188.8 140.698 188.9 140.098C188.9 139.998 188.9 139.898 189.1 139.798C190.3 138.998 191.3 137.998 192.8 137.598C195 137.098 197.2 136.398 199.4 135.798L199.3 135.498Z" fill="black"/>
<path d="M151.7 187.099C151.7 186.599 151.7 186.099 151.7 185.499C151.7 185.299 151.9 185.099 151.4 184.899C151.1 184.799 151.8 184.599 151.8 184.399C151.8 183.899 151.8 183.399 151.8 182.899C151.8 182.399 151.5 181.999 151.5 181.499C151.5 180.999 151.7 180.499 151.5 180.099C151.2 179.699 151.7 179.399 151.5 178.999C151.4 178.599 151.3 178.199 151.5 177.799C151.7 177.499 151.9 177.199 151.8 176.999C151.8 176.799 151.4 176.699 151.4 176.499C151.4 176.299 151.7 176.099 151.1 175.999C151.1 175.999 151.1 175.999 151.2 175.899C151.6 175.699 151.6 175.499 151.2 175.299C150.9 175.199 151 174.999 150.9 174.899C150.9 174.499 150.9 174.099 150.9 173.599C150.9 173.299 151.2 172.899 151.3 172.599C151.3 172.199 151.1 171.799 151.5 171.499C151.9 171.199 151.9 170.799 152 170.499C152 170.299 152.4 170.199 151.9 169.799V169.699C152.4 169.499 152.5 169.299 152.5 168.899C152.5 168.499 152.5 168.099 152.9 167.899C153.5 167.499 153.9 166.899 154.5 166.499C154.6 166.399 154.9 166.499 154.8 165.999C154.8 165.799 154.9 165.699 155.1 165.799C155.8 166.099 156.1 165.599 156.5 165.499C157 165.499 157.3 164.999 157.9 165.299C158.2 165.399 158.4 165.399 158.4 164.799C158.4 164.499 158.7 164.699 158.8 164.599C158.8 164.599 158.9 164.199 159 164.199C159 164.199 159.3 164.299 159.4 164.399C159.5 163.999 159.8 163.899 160.1 163.999C160.4 163.999 160.7 163.999 160.8 163.899C161.1 163.499 161.4 163.399 161.7 163.199C161.9 163.199 162 163.199 163.2 163.499C163.7 163.699 164.2 163.899 164.4 164.199C164.6 164.399 164.7 164.699 164.6 164.799C164.6 165.099 164.5 165.299 164.4 165.599C164.4 165.899 164.2 166.199 164.1 166.499C164 166.799 163.8 166.999 163.5 166.999C163.3 166.999 163.3 167.399 162.9 166.999H162.8C162.6 167.999 161.7 167.899 161.2 168.099C160.7 168.299 160.5 169.099 159.9 168.999C159.9 169.699 159.5 169.699 159.2 169.599C158.1 169.299 157.6 169.999 157 170.299C156.4 170.599 156.2 170.999 155.9 171.499C155.9 171.499 156.2 171.799 155.9 171.799C155.6 171.799 155.8 171.999 155.7 172.199C155.7 172.299 155.7 172.499 155.7 172.599C155 173.099 155.3 173.799 155.3 174.499C155.3 175.199 155.3 175.999 155.3 176.799C155.4 177.299 155.8 177.699 155.6 178.199C155.6 178.399 155.9 178.599 155.3 178.799C155.1 178.799 155.6 178.999 155.6 179.199C155.6 179.499 155.6 179.799 155.6 180.199C155.6 180.599 155.6 181.099 155.6 181.499C155.6 181.799 155.9 181.999 155.9 182.299C155.9 182.599 155.9 182.899 155.9 183.199C155.9 183.599 155.6 183.899 155.5 184.299C155.5 184.699 155.7 185.099 155.5 185.399C155 186.099 155.2 186.699 155.1 187.399C155.1 188.099 155 188.699 155.1 189.399C155.1 189.799 154.6 190.099 154.6 190.499C154.6 190.699 153.1 190.799 152.6 190.699H152.4C152 190.299 151.2 189.999 151.3 189.599C151.3 188.999 151.3 188.399 151.3 187.799L151.7 187.099Z" fill="black"/>
</svg>
