<svg width="300" height="300" viewBox="0 0 300 300" fill="none" xmlns="http://www.w3.org/2000/svg">
<path d="M184.4 141.301C184.1 141.001 183.8 140.601 183.5 140.301C183.4 140.201 183.5 139.901 182.9 140.101C182.6 140.201 183 139.701 182.9 139.601C182.6 139.301 182.3 139.001 182 138.701C181.7 138.401 181.2 138.301 180.9 138.001C180.6 137.701 180.5 137.201 180 137.201C179.6 137.201 179.7 136.601 179.4 136.401C179.1 136.201 178.8 136.001 178.7 135.601C178.7 135.301 178.7 135.001 178.4 134.901C178.2 134.901 177.9 134.901 177.8 134.901C177.8 134.801 177.8 134.501 177.2 134.801C177.2 134.801 177.2 134.701 177.2 134.601C177.4 134.201 177.2 134.101 176.9 134.201C176.6 134.201 176.6 134.201 176.5 134.101C176.2 133.901 176 133.601 175.8 133.301C175.7 133.101 175.7 132.701 175.5 132.501C175.4 132.301 175 132.201 175 131.801C175 131.401 174.9 131.201 174.7 131.101C174.7 131.001 174.7 130.701 174.2 131.101C174.5 130.201 173.5 130.701 173.3 130.301C173.2 129.801 172.8 129.601 172.5 129.301C172.5 129.301 172.5 129.001 172.1 129.301C172 129.301 171.9 129.301 171.9 129.201C172.1 128.501 171.6 128.601 171.5 128.301C171.3 127.901 170.9 127.901 171 127.301C171 127.001 171 126.801 170.4 127.101C170.1 127.201 170.2 126.901 170.1 126.801C170 126.801 169.7 126.801 169.6 126.801C169.6 126.801 169.6 126.501 169.6 126.401C168.7 126.401 169 125.501 168.5 125.201C168 124.901 167.7 124.501 167.4 124.001C167.2 123.701 167.2 123.401 167.9 122.501C168.2 122.101 168.6 121.701 169 121.601C169.2 121.601 169.5 121.401 169.6 121.501C169.8 121.501 170 121.501 170.2 121.701C170.6 121.801 171.2 121.701 171.2 122.201C171.2 122.301 171.5 122.201 171.2 122.601V122.701C172.1 122.501 172.1 123.201 172.4 123.601C172.7 123.901 173.5 123.701 173.5 124.201C174.1 123.901 174.2 124.201 174.2 124.501C174.2 125.601 175.2 125.901 175.6 126.501C176.1 127.201 176.7 127.701 177.3 128.401C177.3 128.501 177.7 128.401 177.6 128.701C177.6 129.001 177.8 129.001 177.9 129.101C178 129.201 178.2 129.301 178.2 129.501C178.2 130.401 178.9 130.601 179.3 131.201C179.7 131.701 180.1 132.301 180.6 132.601C180.9 132.801 181.5 132.901 181.6 133.301C181.6 133.501 182 133.301 181.7 133.901C181.7 134.001 182.1 133.901 182.1 133.901C182.3 134.101 182.5 134.301 182.7 134.501C183 134.801 183.2 135.101 183.5 135.301C183.7 135.401 184 135.401 184.2 135.601C184.4 135.701 184.6 135.901 184.7 136.101C184.9 136.401 184.9 136.701 185.1 137.001C185.3 137.301 185.7 137.301 185.7 137.701C185.7 138.501 186.3 138.701 186.6 139.201C186.9 139.701 187.3 140.101 187.8 140.401C188.1 140.601 187.8 141.101 188.1 141.401C188.2 141.501 187.2 142.601 186.8 142.901L186.6 143.001C186.1 143.001 185.3 143.401 185.1 143.001C184.8 142.601 184.4 142.201 184.1 141.801L184.4 141.301Z" fill="black"/>
<path d="M114.401 137.801C114.401 138.701 114.401 139.601 114.401 140.501C114.401 140.801 114.201 141.201 114.701 141.501C115.001 141.701 114.301 142.001 114.401 142.301C114.401 143.101 114.401 144.001 114.601 144.801C114.701 145.601 115.001 146.401 115.101 147.201C115.201 148.001 115.001 148.801 115.401 149.601C115.701 150.201 115.301 150.901 115.401 151.501C115.601 152.201 115.701 152.901 115.601 153.501C115.501 154.001 115.301 154.501 115.501 155.001C115.601 155.301 116.001 155.501 116.001 155.901C116.001 156.201 115.801 156.601 116.401 156.801C116.401 156.801 116.401 157.001 116.301 157.001C115.901 157.401 116.001 157.801 116.301 158.001C116.601 158.201 116.601 158.501 116.601 158.701C116.701 159.401 116.801 160.101 116.901 160.701C116.901 161.201 116.801 161.801 116.801 162.301C116.801 162.801 117.201 163.401 117.001 163.901C116.801 164.401 116.901 164.901 117.001 165.401C117.001 165.701 116.801 166.001 117.501 166.201C117.501 166.201 117.501 166.301 117.501 166.401C116.801 167.301 118.001 167.901 117.901 168.701C117.901 169.501 118.101 170.401 118.301 171.201C118.301 171.401 118.301 171.701 118.701 171.801C118.901 171.801 118.901 172.101 118.801 172.201C118.301 172.901 118.801 173.501 118.801 174.101C118.801 174.801 119.201 175.501 118.801 176.301C118.701 176.601 118.601 177.101 119.301 177.301C119.601 177.401 119.301 177.801 119.501 178.101C119.501 178.301 119.901 178.501 119.901 178.701C119.901 178.901 119.701 179.101 119.701 179.301C119.701 179.301 119.701 179.401 119.701 179.501C120.501 180.401 119.901 181.601 120.201 182.601C120.601 183.601 120.701 184.701 120.801 185.801C120.801 186.401 120.801 187.001 119.701 187.601C119.201 187.901 118.701 188.001 118.301 187.801C118.001 187.701 117.801 187.501 117.701 187.301C117.501 187.001 117.401 186.701 117.201 186.401C116.901 185.801 116.201 185.201 116.401 184.401C116.401 184.201 116.101 184.001 116.601 183.701C116.601 183.701 116.601 183.601 116.601 183.501C115.601 182.701 116.001 181.601 115.701 180.701C115.501 179.901 114.701 179.201 114.801 178.401C114.101 178.101 114.101 177.501 114.201 177.001C114.601 175.301 113.801 173.701 113.601 172.101C113.401 170.401 113.001 168.801 112.801 167.201C112.801 166.901 112.401 166.701 112.601 166.401C112.801 166.101 112.601 165.701 112.501 165.301C112.501 165.001 112.301 164.601 112.401 164.301C112.901 162.901 112.301 161.701 112.201 160.401C112.201 159.101 112.001 157.801 111.701 156.501C111.501 155.701 111.101 155.001 111.101 154.201C111.101 153.901 110.701 153.501 111.301 153.101C111.501 153.001 111.001 152.701 110.901 152.501C110.801 152.001 110.801 151.401 110.701 150.901C110.701 150.101 110.701 149.401 110.501 148.601C110.501 148.101 110.101 147.701 110.001 147.201C109.901 146.701 109.901 146.201 110.001 145.701C110.001 145.101 110.201 144.501 110.201 143.801C110.201 143.201 109.901 142.501 110.201 141.901C110.701 140.701 110.401 139.601 110.401 138.501C110.401 137.401 110.401 136.201 110.401 135.101C110.401 134.501 110.801 133.901 110.901 133.301C110.901 133.001 112.401 132.701 112.901 132.801C112.901 132.801 113.101 132.801 113.101 132.901C113.601 133.501 114.301 134.101 114.201 134.801C114.201 135.801 114.201 136.801 114.201 137.801H114.401Z" fill="black"/>
<path d="M166.101 147.302C166.501 147.102 166.801 147.002 167.201 146.702C167.301 146.702 167.601 146.702 167.501 146.202C167.501 145.902 167.901 146.402 168.001 146.402C168.301 146.202 168.701 146.102 169.001 145.902C169.301 145.702 169.501 145.302 169.801 145.102C170.101 144.902 170.601 145.102 170.801 144.602C171.001 144.202 171.401 144.602 171.601 144.302C171.801 144.102 172.101 143.902 172.501 144.002C172.801 144.002 173.101 144.202 173.201 144.002C173.201 143.902 173.201 143.502 173.401 143.502C173.501 143.502 173.801 143.702 173.701 143.002C173.701 143.002 173.701 143.002 173.901 143.002C174.201 143.302 174.401 143.202 174.401 143.002C174.401 142.702 174.501 142.702 174.601 142.602C174.901 142.502 175.201 142.302 175.501 142.302C175.701 142.302 176.001 142.302 176.301 142.302C176.501 142.302 176.701 141.902 177.001 142.102C177.301 142.302 177.501 142.202 177.701 142.102C177.801 142.102 178.101 142.302 177.901 141.602C178.501 142.302 178.501 141.102 178.901 141.202C179.301 141.202 179.601 141.002 180.001 140.902C180.001 140.902 180.301 141.002 180.201 140.502C180.201 140.302 180.201 140.302 180.401 140.402C180.901 140.902 181.001 140.402 181.301 140.402C181.601 140.402 181.901 140.002 182.301 140.402C182.501 140.602 182.701 140.602 182.701 140.002C182.701 139.702 182.901 140.002 183.001 139.802C183.001 139.802 183.001 139.402 183.201 139.402C183.201 139.402 183.401 139.602 183.501 139.702C183.801 138.902 184.501 139.702 184.901 139.302C185.301 139.002 185.801 138.902 186.301 138.902C186.601 138.902 186.901 138.902 187.401 140.002C187.601 140.502 187.801 141.002 187.701 141.402C187.701 141.702 187.701 141.902 187.601 142.002C187.501 142.102 187.401 142.302 187.301 142.402C187.101 142.702 186.901 143.302 186.601 143.102C186.501 143.102 186.501 143.402 186.201 142.902C186.001 143.802 185.501 143.402 185.101 143.602C184.801 143.802 184.601 144.502 184.201 144.302C184.201 145.002 184.001 144.902 183.701 144.802C182.801 144.402 182.301 145.002 181.601 145.202C180.901 145.302 180.301 145.702 179.601 145.902C179.501 145.902 179.601 146.302 179.301 146.102C179.101 145.902 179.001 146.102 178.801 146.202C178.701 146.202 178.601 146.402 178.401 146.302C177.601 145.902 177.301 146.502 176.701 146.602C176.201 146.702 175.601 146.902 175.201 147.302C174.901 147.502 174.801 148.002 174.401 148.002C174.201 148.002 174.201 148.402 173.901 147.902C173.801 147.802 173.901 148.202 173.801 148.302C173.601 148.402 173.401 148.502 173.201 148.602C172.901 148.702 172.601 148.802 172.301 149.002C172.101 149.102 172.101 149.402 171.901 149.602C171.701 149.702 171.601 149.802 171.301 149.902C171.001 149.902 170.701 149.902 170.401 149.902C170.101 149.902 170.001 150.302 169.601 150.202C168.901 150.002 168.601 150.402 168.201 150.602C167.701 150.802 167.301 150.902 166.901 151.302C166.701 151.502 166.201 151.202 166.001 151.302C165.901 151.302 165.101 150.102 164.901 149.702V149.502C164.901 149.002 164.801 148.202 165.101 148.102C165.501 148.002 165.901 147.702 166.301 147.502L166.101 147.302Z" fill="black"/>
<path d="M168.602 166.202C168.602 165.902 168.502 165.502 168.302 165.202C168.302 165.102 168.502 164.902 167.902 164.902C167.602 164.902 168.202 164.602 168.202 164.502C168.102 164.202 168.102 163.902 167.902 163.602C167.802 163.302 167.502 163.102 167.302 162.802C167.202 162.502 167.302 162.102 167.002 161.902C166.702 161.702 167.102 161.402 167.002 161.202C166.802 161.002 166.702 160.702 166.802 160.402C166.902 160.202 167.102 160.002 166.902 159.802C166.902 159.802 166.502 159.702 166.502 159.602C166.502 159.502 166.702 159.302 166.102 159.302C166.102 159.302 166.102 159.302 166.202 159.202C166.602 159.002 166.502 158.802 166.202 158.802C165.902 158.802 165.902 158.702 165.902 158.602C165.902 158.402 165.702 158.102 165.702 157.902C165.702 157.702 165.902 157.502 165.902 157.302C165.902 157.102 165.602 157.002 165.902 156.702C166.202 156.402 166.102 156.302 166.002 156.102C166.002 156.102 166.202 155.802 165.602 155.902C166.302 155.402 165.202 155.402 165.302 155.102C165.402 154.802 165.302 154.502 165.102 154.202C165.102 154.202 165.202 154.002 164.802 154.002C164.602 154.002 164.602 154.002 164.702 153.902C165.202 153.502 164.802 153.402 164.902 153.102C164.902 152.802 164.602 152.602 164.902 152.202C165.102 152.002 165.102 151.902 164.502 151.902C164.202 151.902 164.502 151.702 164.402 151.602C164.402 151.602 164.002 151.602 164.002 151.502C164.002 151.502 164.202 151.302 164.302 151.202C163.602 151.002 164.302 150.402 164.002 150.102C163.702 149.802 163.702 149.402 163.602 149.002C163.602 148.802 163.602 148.502 164.702 148.002C165.202 147.802 165.702 147.602 166.002 147.602C166.202 147.602 166.502 147.602 166.602 147.602C166.702 147.602 166.902 147.802 167.002 147.902C167.302 148.102 167.902 148.202 167.702 148.502C167.702 148.602 168.002 148.602 167.502 148.802C168.402 148.902 168.002 149.402 168.102 149.802C168.202 150.102 168.902 150.202 168.702 150.602C169.402 150.602 169.302 150.802 169.202 151.002C168.702 151.802 169.302 152.202 169.402 152.902C169.402 153.502 169.702 154.102 169.802 154.702C169.802 154.802 170.202 154.802 170.002 155.002C169.802 155.202 170.002 155.302 170.002 155.402C170.002 155.502 170.202 155.602 170.002 155.802C169.502 156.402 170.002 156.802 170.002 157.302C170.002 157.802 170.002 158.302 170.402 158.702C170.602 159.002 171.002 159.202 170.902 159.502C170.902 159.602 171.202 159.702 170.702 159.902C170.502 159.902 171.002 159.902 171.102 160.102C171.102 160.302 171.202 160.502 171.302 160.702C171.302 161.002 171.302 161.302 171.502 161.502C171.502 161.702 171.902 161.802 172.002 161.902C172.102 162.102 172.102 162.202 172.102 162.402C172.102 162.602 171.902 162.902 171.902 163.102C171.902 163.302 172.202 163.502 172.002 163.802C171.602 164.302 172.002 164.702 172.002 165.102C172.002 165.502 172.102 165.902 172.302 166.302C172.402 166.502 172.002 166.802 172.102 167.102C172.102 167.102 170.702 167.702 170.202 167.802H170.002C169.502 167.802 168.702 167.802 168.702 167.402C168.702 167.002 168.502 166.702 168.402 166.302L168.602 166.202Z" fill="black"/>
<path d="M162.2 186.199C162.3 185.799 162.5 185.399 162.5 184.999C162.5 184.799 162.8 184.799 162.4 184.499C162.2 184.299 162.8 184.399 162.8 184.199C162.8 183.799 163.1 183.499 163.1 183.099C163.1 182.699 163.1 182.299 163.1 181.899C163.1 181.499 163.6 181.299 163.4 180.799C163.2 180.399 163.8 180.299 163.8 179.999C163.8 179.699 163.8 179.299 164.1 179.099C164.3 178.899 164.6 178.799 164.6 178.599C164.6 178.399 164.3 178.199 164.4 178.099C164.4 177.999 164.8 177.899 164.2 177.599C164.2 177.599 164.2 177.599 164.4 177.599C164.8 177.599 164.9 177.399 164.6 177.199C164.4 176.999 164.5 176.899 164.5 176.799C164.5 176.499 164.6 176.199 164.8 175.899C164.9 175.699 165.2 175.599 165.4 175.399C165.5 175.199 165.4 174.899 165.7 174.699C166.1 174.599 166.1 174.399 166.2 174.199C166.2 174.099 166.6 173.999 166 173.699C166.9 173.699 166 172.999 166.3 172.699C166.6 172.399 166.6 171.999 166.7 171.699C166.7 171.699 166.9 171.599 166.5 171.299C166.4 171.299 166.4 171.099 166.5 171.099C167.2 171.099 166.9 170.599 167.1 170.399C167.3 170.099 167.1 169.699 167.7 169.599C167.9 169.599 168.1 169.399 167.6 169.099C167.4 168.899 167.6 168.899 167.6 168.799C167.6 168.699 167.3 168.499 167.4 168.399C167.4 168.399 167.7 168.399 167.8 168.299C167.3 167.699 168.3 167.499 168.2 166.999C168.2 166.699 168.2 166.599 168.2 166.299C168.2 165.999 168.4 165.699 168.6 165.299C168.8 164.899 169.3 164.499 170.4 165.099C170.9 165.299 171.3 165.699 171.5 165.999C171.6 166.199 171.8 166.399 171.8 166.499C171.8 166.599 171.9 166.799 172 166.899C172.1 167.099 172.6 167.399 172.2 167.699C172.1 167.699 172.3 167.999 171.8 167.899C172.5 168.499 171.8 168.899 171.8 169.299C171.8 169.699 172.2 170.199 171.8 170.499C172.3 170.899 172.2 171.099 171.9 171.199C171 171.699 171.2 172.499 170.9 173.199C170.6 173.899 170.4 174.599 170.1 175.299C170.1 175.399 170.4 175.599 170.1 175.699C169.8 175.699 169.9 175.999 169.9 176.099C169.9 176.199 169.9 176.399 169.7 176.499C168.9 176.799 169.1 177.499 168.8 177.999C168.5 178.499 168.3 178.999 168.3 179.599C168.3 179.999 168.5 180.399 168.3 180.699C168.2 180.799 168.5 181.099 167.9 180.999C167.7 180.999 168.1 181.299 168.1 181.399C168.1 181.599 168 181.899 167.9 182.099C167.8 182.399 167.6 182.699 167.6 183.099C167.6 183.299 167.7 183.599 167.7 183.799C167.7 183.999 167.7 184.199 167.5 184.399C167.3 184.599 167.1 184.799 166.9 185.099C166.8 185.299 166.9 185.699 166.6 185.899C166 186.199 166.1 186.799 165.9 187.199C165.7 187.599 165.5 188.099 165.5 188.599C165.5 188.899 165 188.999 164.9 189.199C164.9 189.299 163.4 189.199 162.9 188.999H162.7C162.3 188.599 161.7 188.199 161.8 187.899C162 187.399 162.1 186.999 162.2 186.499V186.199Z" fill="black"/>
<path d="M151.001 135.801C151.001 136.001 150.901 136.101 150.901 136.301C150.901 136.301 150.601 136.301 151.101 136.601C151.401 136.601 150.701 136.601 150.701 136.601C150.701 136.801 150.701 136.901 150.701 137.101C150.701 137.301 150.901 137.501 150.901 137.601C150.901 137.801 150.601 137.901 150.901 138.101C151.201 138.301 150.601 138.301 150.701 138.401C150.801 138.601 150.901 138.701 150.701 138.801C150.501 138.801 150.301 138.901 150.401 139.001C150.401 139.001 150.801 139.201 150.701 139.201C150.701 139.201 150.401 139.201 151.001 139.401C151.001 139.401 151.001 139.401 150.801 139.401C150.401 139.401 150.401 139.401 150.701 139.601C151.001 139.601 150.901 139.701 150.901 139.801C150.901 139.901 150.901 140.101 150.901 140.201C150.901 140.201 150.601 140.401 150.501 140.501C150.501 140.501 150.701 140.701 150.401 140.801C150.101 140.801 150.101 141.001 150.101 141.101C150.101 141.101 149.801 141.201 150.401 141.301C149.601 141.401 150.601 141.601 150.401 141.801C150.201 142.001 150.401 142.101 150.401 142.301C150.401 142.301 150.201 142.301 150.701 142.401C150.901 142.401 150.901 142.401 150.701 142.401C150.101 142.501 150.501 142.601 150.301 142.801C150.201 142.901 150.501 143.101 150.001 143.201C149.801 143.201 149.701 143.401 150.301 143.401C150.601 143.401 150.301 143.501 150.301 143.601C150.301 143.601 150.601 143.601 150.601 143.701C150.601 143.701 150.401 143.701 150.301 143.801C151.001 144.001 150.101 144.201 150.301 144.401C150.501 144.601 150.401 144.801 150.301 145.001C150.301 145.101 150.101 145.301 148.901 145.401C148.401 145.401 147.801 145.501 147.501 145.501C147.301 145.501 147.001 145.501 147.001 145.501C146.901 145.501 146.801 145.401 146.701 145.301C146.501 145.201 145.901 145.101 146.201 144.901C146.201 144.901 146.001 144.901 146.501 144.701C145.701 144.501 146.201 144.301 146.101 144.101C146.101 143.901 145.401 143.801 145.701 143.601C145.101 143.601 145.201 143.401 145.401 143.301C146.101 142.901 145.601 142.601 145.701 142.201C145.701 141.801 145.701 141.501 145.701 141.101C145.701 141.101 145.401 141.001 145.701 140.901C146.001 140.901 145.701 140.701 145.701 140.701C145.701 140.701 145.601 140.501 145.701 140.501C146.401 140.301 146.001 139.901 146.101 139.701C146.201 139.401 146.301 139.101 146.101 138.801C146.101 138.601 145.701 138.401 145.901 138.201C145.901 138.201 145.601 138.001 146.201 138.001C146.401 138.001 145.901 137.901 145.901 137.801C145.901 137.701 145.901 137.601 145.901 137.401C145.901 137.201 146.001 137.101 145.901 136.901C145.901 136.801 145.701 136.601 145.601 136.501C145.601 136.401 145.601 136.301 145.601 136.201C145.701 136.101 145.901 136.001 146.001 135.901C146.001 135.801 145.901 135.601 146.201 135.501C146.801 135.401 146.601 135.101 146.701 134.801C146.801 134.601 146.901 134.401 146.901 134.101C146.901 133.901 147.401 134.001 147.401 133.801C147.401 133.801 148.901 134.101 149.301 134.201H149.501C149.901 134.501 150.601 134.801 150.501 134.901C150.401 135.101 150.401 135.301 150.301 135.501L151.001 135.801Z" fill="black"/>
<path d="M162.302 135.801C162.302 136.001 162.202 136.101 162.202 136.301C162.202 136.301 161.902 136.301 162.402 136.601C162.702 136.601 162.002 136.601 162.002 136.601C162.002 136.801 162.002 136.901 162.002 137.101C162.002 137.301 162.202 137.501 162.202 137.601C162.202 137.801 161.902 137.901 162.202 138.101C162.502 138.301 161.902 138.301 162.002 138.401C162.102 138.601 162.202 138.701 162.002 138.801C161.802 138.801 161.602 138.901 161.702 139.001C161.702 139.001 162.102 139.201 162.002 139.201C162.002 139.201 161.702 139.201 162.302 139.401C162.302 139.401 162.302 139.401 162.102 139.401C161.702 139.401 161.702 139.401 162.002 139.601C162.302 139.601 162.202 139.701 162.202 139.801C162.202 139.901 162.202 140.101 162.202 140.201C162.202 140.201 161.902 140.401 161.802 140.501C161.802 140.501 162.002 140.701 161.702 140.801C161.402 140.801 161.402 141.001 161.402 141.101C161.402 141.101 161.102 141.201 161.702 141.301C160.902 141.401 161.902 141.601 161.702 141.801C161.502 142.001 161.702 142.101 161.702 142.301C161.702 142.301 161.502 142.301 162.002 142.401C162.202 142.401 162.202 142.401 162.002 142.401C161.402 142.501 161.802 142.601 161.602 142.801C161.502 142.901 161.802 143.101 161.302 143.201C161.102 143.201 161.002 143.401 161.602 143.401C161.902 143.401 161.602 143.501 161.602 143.601C161.602 143.601 161.902 143.601 161.902 143.701C161.902 143.701 161.702 143.701 161.602 143.801C162.302 144.001 161.402 144.201 161.602 144.401C161.802 144.601 161.702 144.801 161.602 145.001C161.602 145.101 161.402 145.301 160.202 145.401C159.702 145.401 159.102 145.501 158.802 145.501C158.602 145.501 158.302 145.501 158.302 145.501C158.202 145.501 158.102 145.401 158.002 145.301C157.802 145.201 157.202 145.101 157.502 144.901C157.502 144.901 157.302 144.901 157.802 144.701C157.002 144.501 157.502 144.301 157.402 144.101C157.402 143.901 156.702 143.801 157.002 143.601C156.402 143.601 156.502 143.401 156.702 143.301C157.402 142.901 156.902 142.601 157.002 142.201C157.002 141.801 157.002 141.501 157.002 141.101C157.002 141.101 156.702 141.001 157.002 140.901C157.302 140.901 157.002 140.701 157.002 140.701C157.002 140.701 156.902 140.501 157.002 140.501C157.702 140.301 157.302 139.901 157.402 139.701C157.502 139.401 157.602 139.101 157.402 138.801C157.402 138.601 157.002 138.401 157.202 138.201C157.202 138.201 156.902 138.001 157.502 138.001C157.702 138.001 157.202 137.901 157.202 137.801C157.202 137.701 157.202 137.601 157.202 137.401C157.202 137.201 157.302 137.101 157.202 136.901C157.202 136.801 157.002 136.601 156.902 136.501C156.902 136.401 156.902 136.301 156.902 136.201C157.002 136.101 157.202 136.001 157.302 135.901C157.302 135.801 157.202 135.601 157.502 135.501C158.102 135.401 157.902 135.101 158.002 134.801C158.102 134.601 158.202 134.401 158.202 134.101C158.202 133.901 158.702 134.001 158.702 133.801C158.702 133.801 160.202 134.101 160.602 134.201H160.802C161.202 134.501 161.902 134.801 161.802 134.901C161.702 135.101 161.702 135.301 161.602 135.501L162.302 135.801Z" fill="black"/>
<path d="M162.601 169.701C162.401 169.701 162.101 169.801 161.901 169.901C161.901 169.901 161.701 169.701 161.701 170.301C161.701 170.601 161.501 170.001 161.401 170.001C161.201 170.101 160.901 170.001 160.701 170.201C160.501 170.201 160.301 170.601 160.001 170.601C159.801 170.601 159.501 170.401 159.301 170.701C159.101 171.001 158.901 170.501 158.701 170.701C158.501 170.801 158.301 170.901 158.101 170.701C158.001 170.501 157.801 170.301 157.701 170.401C157.701 170.401 157.501 170.801 157.401 170.701C157.401 170.701 157.201 170.401 157.101 171.001C157.101 171.001 157.101 171.001 157.101 170.801C157.101 170.401 156.901 170.401 156.801 170.701C156.701 171.001 156.601 170.901 156.501 170.901C156.301 170.901 156.101 170.901 155.901 170.901C155.801 170.901 155.701 170.601 155.501 170.501C155.401 170.501 155.101 170.701 155.101 170.301C155.101 170.001 154.901 169.901 154.801 169.901C154.801 169.901 154.801 169.601 154.501 170.201C154.501 169.401 154.001 170.301 153.801 170.001C153.601 169.701 153.401 169.801 153.101 169.701C153.101 169.701 153.101 169.501 152.801 169.901C152.801 170.001 152.601 170.001 152.701 169.901C152.701 169.201 152.501 169.501 152.301 169.401C152.201 169.201 151.801 169.401 151.901 168.801C151.901 168.601 151.901 168.401 151.501 168.801C151.301 169.001 151.401 168.801 151.301 168.801L151.001 169.001C151.001 169.001 151.001 168.701 151.001 168.601C150.401 169.001 150.601 168.101 150.301 168.001C149.901 168.001 149.701 167.701 149.501 167.401C149.501 167.201 149.401 167.001 150.101 166.101C150.401 165.701 150.801 165.301 151.101 165.101C151.301 165.001 151.501 164.801 151.601 164.801C151.701 164.801 151.901 164.801 152.001 164.701C152.201 164.701 152.701 164.301 152.601 164.701C152.601 164.701 152.801 164.601 152.601 165.001C153.201 164.501 153.101 165.001 153.301 165.001C153.501 165.001 153.901 164.601 153.901 165.001C154.301 164.501 154.301 164.601 154.301 164.801C154.301 165.501 154.801 165.301 155.001 165.501C155.301 165.701 155.601 165.701 155.901 165.901C155.901 165.901 156.101 165.601 156.101 165.901C156.101 166.201 156.201 165.901 156.301 166.001H156.501C156.601 166.701 157.001 166.401 157.201 166.501C157.501 166.501 157.701 166.701 158.001 166.501C158.201 166.501 158.301 166.101 158.501 166.201C158.501 166.201 158.601 165.901 158.701 166.501C158.701 166.701 158.701 166.201 158.801 166.201C158.901 166.201 159.001 166.201 159.101 166.201C159.201 166.201 159.401 166.201 159.501 166.201C159.501 166.201 159.701 165.901 159.701 165.801C159.701 165.801 159.901 165.801 160.001 165.801C160.101 165.801 160.301 166.001 160.401 166.101C160.501 166.101 160.601 165.801 160.801 166.101C161.101 166.501 161.301 166.201 161.501 166.201C161.701 166.201 162.001 166.201 162.101 166.001C162.101 165.901 162.501 166.301 162.601 166.301C162.601 166.301 163.301 167.601 163.501 168.101V168.301C163.501 168.801 163.701 169.501 163.501 169.501C163.201 169.501 162.901 169.701 162.701 169.801L162.601 169.701Z" fill="black"/>
<path d="M184.4 115.101C184.4 113.401 183.9 111.601 182.8 110.201C182.4 109.701 182 109.001 181.2 109.001C180.8 109.001 180.6 108.101 180 107.801C178.5 107.001 176.8 106.601 175.1 106.801C173.4 107.101 171.8 107.901 169.9 108.701C169 109.101 168 109.401 166.9 109.701C165.9 110.001 164.9 110.301 164 110.701C162.4 111.401 160.8 111.301 159.2 111.701C157.5 112.201 155.7 112.501 154 112.501C152.7 112.501 151.5 112.301 150.3 112.501C149.5 112.601 148.9 113.001 148 113.001C147.2 113.001 146.4 112.801 145.7 113.401C145.7 113.401 145.3 113.401 145.1 113.301C144.3 112.901 143.3 112.901 142.6 113.301C141.9 113.601 141.3 113.501 140.7 113.501C139 113.501 137.2 113.501 135.5 113.301C134.2 113.201 132.9 112.801 131.6 112.501C130.3 112.201 128.8 112.301 127.6 111.801C126.4 111.301 125.3 111.101 124.1 110.901C123.4 110.801 122.7 110.401 122.1 110.901C122.1 110.901 121.8 110.901 121.7 110.901C119.9 109.801 118 110.701 116.2 110.601C114.3 110.401 112.4 110.801 110.7 111.301C110.3 111.501 109.7 111.401 109.5 112.001C109.5 112.201 109 112.401 108.8 112.401C107.4 112.401 106.4 113.501 105.4 114.401C104.2 115.401 103.5 116.701 102.5 117.901C102.3 118.201 102.1 118.501 102 118.901C102 119.301 102 119.701 102.2 120.101C102.3 120.301 102.2 120.501 102.2 120.801C102.2 121.101 102.2 121.301 102.2 121.601C102.2 122.001 102.6 122.301 102.7 122.701C102.8 123.001 102.7 123.401 102.7 123.701C102.7 123.801 102.7 123.901 102.9 124.001C103.6 124.701 104.2 125.601 104.9 126.501C105.6 127.401 106.4 128.301 107.4 128.801C109.5 130.001 111.7 131.101 114 131.901C115.3 132.401 116.6 132.901 117.3 134.201C117.6 134.801 117.5 135.301 116.9 135.501C116.4 135.701 115.8 135.801 115.3 135.701C114.4 135.601 113.6 135.501 112.7 135.301C111 134.901 109.1 134.801 107.6 133.601C107.1 133.201 106.4 133.201 106.2 132.501C106.2 132.501 106 132.201 105.9 132.201C104.6 131.901 103.5 131.101 102.6 130.201C101.6 129.301 100.8 128.201 100.1 127.101C99.4004 126.201 98.8004 125.101 98.3004 124.001C98.1004 123.401 97.9004 122.801 97.8004 122.201C97.8004 121.601 97.7004 120.901 97.8004 120.301C97.2004 118.801 97.8004 117.101 98.6004 116.001C99.9004 113.901 101.4 112.201 103.1 110.701C104.8 109.201 106.8 108.001 109 107.301C113.3 106.001 117.9 106.001 122 106.601C122.7 106.601 123.4 106.401 124.1 106.801C124.8 107.201 125.8 107.101 126.7 107.301C127.5 107.401 128.4 107.501 129.1 107.701C130.6 108.301 132.1 108.601 133.6 108.801C135.1 109.001 136.7 109.001 138.2 109.101C141.3 109.301 144.4 109.401 147.5 109.101C149.4 108.901 151.2 108.501 153.1 108.401C153.9 108.401 154.7 107.901 155.5 108.401C155.7 108.501 156.4 108.001 156.9 107.901C158.1 107.601 159.4 107.401 160.7 107.101C162.4 106.701 164.2 106.201 165.8 105.601C166.8 105.201 167.7 104.601 168.8 104.101C169.9 103.601 171.1 103.201 172.5 102.901C174.2 102.601 176.1 102.601 177.9 103.001C179.7 103.401 181.7 103.901 183 105.201C184.2 106.301 185.3 107.501 186.2 108.901C187.1 110.301 187.7 111.801 188 113.501C188.4 116.801 187.2 120.001 185.3 122.601C184.1 124.101 182.4 124.701 180.8 125.301C180.4 125.501 179.8 125.301 179.4 124.901C179 124.601 178.8 124.101 178.8 123.801C178.8 123.701 178.9 123.601 179 123.501C180.2 122.701 180.8 121.601 181.8 120.701C183.3 119.401 184.2 117.301 184.3 115.301L184.4 115.101Z" fill="black"/>
<path d="M131.1 165.1C130.3 165.5 129.4 165.7 128.5 166C128.2 166 127.8 165.9 127.5 166.5C127.4 166.8 126.9 166.2 126.6 166.2C125.8 166.3 124.9 166.2 124.1 166.2C123.3 166.2 122.5 166.2 121.7 166.1C120.9 165.9 120.2 165.4 119.4 165.4C118.7 165.4 118.4 164.7 117.8 164.5C117.2 164.3 116.5 164 116.1 163.4C115.8 163 115.6 162.5 115.1 162.2C114.8 162 114.4 162 114.1 161.6C113.9 161.3 113.9 160.8 113.2 160.9C113.2 160.9 113.2 160.7 113.2 160.6C113.4 160.1 113.2 159.7 112.8 159.5C112.4 159.3 112.4 159 112.3 158.8C112 158.1 111.9 157.3 111.9 156.6C111.9 156.1 112.1 155.5 112.2 155C112.2 154.5 112 153.8 112.4 153.4C112.8 152.9 112.8 152.5 113 152C113 151.7 113.4 151.5 113 151.1C113 151.1 113 151 113 150.9C113.5 150.6 113.6 150.3 113.7 149.8C113.7 149.4 113.8 148.9 114.2 148.5C114.9 147.9 115.5 147.1 116.2 146.5C116.4 146.3 116.7 146.3 116.7 145.8C116.7 145.6 116.9 145.5 117.1 145.5C118 145.7 118.5 145.1 119.2 144.9C120 144.8 120.7 144.3 121.5 144.7C121.9 144.9 122.3 144.9 122.6 144.3C122.8 144 123.2 144.3 123.5 144.3C123.7 144.3 124 144 124.2 144C124.4 144 124.6 144.3 124.7 144.4C124.7 144.4 124.8 144.4 124.9 144.4C125.5 144.2 126.1 144.4 126.6 144.6C127.1 144.9 127.5 145.2 128.1 145.4C129.2 145.7 130.1 146.3 130.9 147.1C131.3 147.5 131.7 148 131.2 149.1C131 149.6 130.6 150 130.2 150.1C129.9 150.1 129.7 150.2 129.5 150.1C129.2 150 128.9 149.9 128.7 149.9C128.1 149.7 127.5 149.9 127.1 149.4C127 149.2 126.7 149.4 126.8 148.9V148.8C125.8 149.2 125.4 148.5 124.7 148.4C124.1 148.4 123.5 148.9 123 148.6C122.7 149.2 122.4 149.1 122.1 149C121.6 148.7 121 148.8 120.5 149C120 149.2 119.6 149.5 119.2 149.8C118.3 150.3 117.8 151.2 117.4 152.1C117.4 152.3 117.6 152.5 117.3 152.6C117 152.7 117.1 153 117.1 153.3C117.1 153.5 117.1 153.8 117 154C116.2 154.8 116.7 155.9 116.8 156.8C116.8 157.7 117.2 158.6 117.7 159.1C118.1 159.4 118.6 159.5 118.9 159.9C119 160.1 119.4 159.9 119.3 160.6C119.3 160.8 119.7 160.6 119.9 160.6C120.3 160.8 120.6 161 121 161.2C121.5 161.4 122 161.7 122.5 161.8C122.8 161.8 123.2 161.8 123.5 161.8C123.8 161.8 124.2 161.8 124.5 162C124.9 162.1 125.3 162.4 125.7 162.5C126.1 162.5 126.6 162.3 127 162.5C127.8 162.9 128.6 162.5 129.3 162.3C130 162.1 130.8 161.7 131.3 161.1C131.6 160.8 132.2 160.9 132.5 160.5C132.6 160.4 134 161 134.3 161.4L134.4 161.6C134.4 162.3 134.5 163.3 134 163.7C133.1 164.3 132.3 164.9 131.3 165.4L131.1 165.1Z" fill="black"/>
<path d="M141.7 126.699C141.7 127.299 141.6 127.799 141.5 128.399C141.5 128.599 141.2 128.699 141.7 128.999C141.9 129.099 141.3 129.199 141.3 129.299C141.3 129.699 141.1 130.099 141.1 130.499C141.1 130.899 141.2 131.299 141.1 131.699C141.1 132.099 140.7 132.399 141 132.899C141.2 133.299 140.7 133.499 140.7 133.799C140.7 134.199 140.7 134.499 140.5 134.799C140.3 134.999 140 135.199 140.1 135.399C140.1 135.599 140.4 135.799 140.4 135.899C140.4 135.999 140.1 136.199 140.6 136.399C140.6 136.399 140.6 136.399 140.4 136.399C140 136.399 140 136.699 140.2 136.899C140.4 137.099 140.4 137.199 140.4 137.299C140.4 137.699 140.3 137.999 140.2 138.299C140.1 138.599 139.8 138.799 139.7 138.999C139.6 139.299 139.7 139.599 139.4 139.799C139 139.999 139 140.199 138.9 140.499C138.9 140.599 138.5 140.699 139.1 140.999C138.2 141.099 139.1 141.899 138.6 142.299C138.2 142.599 138.1 143.099 137.9 143.599C137.9 143.699 137.6 143.699 137.9 144.099C138 144.199 137.9 144.399 137.9 144.299C137.2 144.299 137.3 144.799 137 144.999C136.7 145.199 136.6 145.699 136 145.699C135.7 145.699 135.5 145.699 135.8 146.299C135.9 146.499 135.6 146.499 135.6 146.599C135.6 146.699 135.6 146.999 135.6 147.099C135.6 147.099 135.3 147.099 135.2 147.099C135.3 147.899 134.3 147.699 134.2 148.199C134 148.699 133.7 148.999 133.3 149.299C133.1 149.499 132.8 149.499 131.8 149.099C131.3 148.899 130.8 148.599 130.6 148.299C130.4 148.099 130.3 147.899 130.3 147.699C130.3 147.499 130.3 147.299 130.3 147.099C130.3 146.699 130.2 146.099 130.6 145.899C130.7 145.899 130.6 145.599 131.1 145.899H131.2C130.9 144.999 131.7 144.999 131.9 144.599C132.1 144.299 131.9 143.599 132.4 143.499C132.1 142.899 132.4 142.799 132.6 142.799C133.6 142.699 133.6 141.899 134 141.399C134.4 140.899 134.6 140.199 134.9 139.599C134.9 139.499 134.7 139.299 134.9 139.199C135.2 139.199 135.1 138.899 135.1 138.799C135.1 138.699 135.1 138.499 135.3 138.399C136.1 137.999 135.9 137.299 136.1 136.799C136.3 136.199 136.5 135.599 136.5 134.999C136.5 134.599 136.2 134.199 136.5 133.799C136.5 133.599 136.3 133.399 136.9 133.399C137.1 133.399 136.7 133.099 136.7 132.999C136.7 132.699 136.7 132.499 136.8 132.199C136.8 131.799 137 131.499 137 131.099C137 130.899 136.8 130.599 136.8 130.399C136.8 130.199 136.8 129.899 136.9 129.699C137 129.399 137.3 129.199 137.4 128.899C137.5 128.599 137.4 128.199 137.6 127.999C137.9 127.799 138 127.499 138.1 127.299C138.1 127.099 138.1 126.899 138.1 126.699C138.1 126.299 138.1 125.999 138.1 125.999C138.1 125.999 138.2 125.999 138.3 125.899C138.3 125.899 138.5 125.599 138.7 125.199C138.9 124.799 139 124.299 139.2 124.099C139.2 124.099 139.3 123.899 139.4 123.899C139.7 123.799 140.1 123.699 140.5 123.699C140.9 123.699 141.2 123.899 141.4 124.299C141.8 125.299 141.9 125.999 141.9 126.699H141.7Z" fill="black"/>
<path d="M167.8 124.1C167.3 124.2 166.8 124.3 166.4 124.5C166.2 124.5 166 124.4 165.9 124.9C165.9 125.2 165.5 124.6 165.4 124.7C165 124.9 164.5 124.9 164.1 125C163.7 125.1 163.3 125.5 162.8 125.6C162.4 125.7 161.9 125.6 161.5 125.9C161.2 126.2 160.7 125.8 160.4 125.9C160 126.1 159.6 126.2 159.2 126C158.9 125.9 158.6 125.7 158.3 125.8C158.1 125.8 158 126.2 157.8 126.2C157.6 126.2 157.4 125.9 157.3 126.6C157.3 126.6 157.3 126.6 157.2 126.5C157 126.1 156.8 126.1 156.6 126.5C156.5 126.8 156.3 126.7 156.2 126.8C155.8 126.8 155.4 126.8 155 126.8C154.7 126.8 154.4 126.5 154.1 126.4C153.8 126.4 153.4 126.6 153.2 126.2C152.9 125.9 152.7 125.8 152.4 125.8C152.2 125.8 152.1 125.5 151.9 126.1C151.9 126.1 151.9 126.1 151.8 126.1C151.5 125.2 150.8 126.1 150.4 125.9C150 125.6 149.4 125.6 149 125.5C148.9 125.5 148.8 125.2 148.5 125.6C148.5 125.7 148.3 125.7 148.2 125.6C148.1 124.9 147.6 125.1 147.2 124.9C146.8 124.6 146.3 124.7 146.1 124.1C146.1 123.8 145.9 123.6 145.4 124.1C145.2 124.3 145.1 123.9 144.9 123.9C144.8 123.9 144.5 124 144.4 123.9C144.3 123.9 144.4 123.6 144.3 123.4C143.4 123.6 143.3 122.5 142.7 122.2C142.1 121.9 141.6 121.4 141.2 120.8C141 120.5 140.9 120 141.6 119.2C141.9 118.8 142.4 118.5 142.7 118.4C143 118.4 143.2 118.3 143.3 118.4C143.5 118.4 143.7 118.5 143.9 118.6C144.3 118.7 144.8 118.6 144.9 119C144.9 119.1 145.2 119 144.9 119.4V119.5C145.7 119.2 145.8 119.9 146.2 120.1C146.5 120.3 147.2 119.9 147.4 120.3C147.9 119.9 148 120 148.1 120.3C148.5 121.2 149.4 121.1 150.1 121.4C150.8 121.7 151.6 121.8 152.4 122C152.5 122 152.7 121.7 152.8 122C152.9 122.3 153.1 122.1 153.3 122.1C153.5 122.1 153.6 122.1 153.8 122.1C154.4 122.8 155 122.5 155.7 122.5C156.3 122.5 157 122.6 157.6 122.5C158 122.4 158.3 122 158.8 122.1C159 122.1 159.1 121.8 159.3 122.3C159.3 122.5 159.5 122 159.6 122C159.9 122 160.1 122 160.4 121.9C160.8 121.9 161.2 121.9 161.5 121.7C161.7 121.7 161.9 121.3 162.1 121.2C162.3 121.1 162.6 121 162.8 121.1C163.1 121.1 163.5 121.3 163.8 121.2C164.1 121.2 164.4 120.8 164.8 121C165.5 121.4 166 121 166.6 120.9C167.2 120.9 167.8 120.7 168.3 120.4C168.6 120.2 169 120.7 169.3 120.6C169.4 120.6 170 121.9 170.1 122.4V122.6C169.9 123.1 169.8 123.9 169.4 124C168.9 124 168.3 124.3 167.8 124.4V124.1Z" fill="black"/>
</svg>
