<svg width="300" height="300" viewBox="0 0 300 300" fill="none" xmlns="http://www.w3.org/2000/svg">
<path d="M184.101 141C183.701 140.6 183.401 140.2 183.001 139.8C182.801 139.7 183.001 139.3 182.401 139.6C182.101 139.7 182.401 139.1 182.401 139C182.001 138.7 181.701 138.3 181.301 137.9C180.901 137.6 180.401 137.4 180.101 137.1C179.701 136.8 179.601 136.2 179.101 136.1C178.601 136 178.701 135.4 178.401 135.2C178.001 135 177.701 134.7 177.601 134.3C177.601 134 177.501 133.6 177.201 133.5C177.001 133.5 176.701 133.5 176.601 133.4C176.501 133.3 176.601 132.9 176.001 133.2C176.001 133.2 176.001 133.1 176.001 133C176.201 132.6 176.001 132.4 175.701 132.5C175.401 132.5 175.301 132.5 175.201 132.3C174.901 132 174.601 131.7 174.401 131.4C174.201 131.1 174.201 130.8 174.001 130.5C173.801 130.2 173.401 130.2 173.401 129.7C173.401 129.3 173.201 129.1 173.001 128.9C172.901 128.8 173.001 128.4 172.401 128.8C172.701 127.9 171.601 128.3 171.401 127.8C171.201 127.3 170.801 127 170.401 126.7C170.401 126.7 170.401 126.4 169.901 126.7C169.801 126.7 169.601 126.7 169.701 126.6C169.901 125.9 169.401 125.9 169.201 125.5C169.001 125.1 168.501 125 168.501 124.3C168.501 124 168.501 123.8 167.901 124C167.601 124.1 167.701 123.8 167.501 123.7C167.401 123.7 167.101 123.7 167.001 123.7C167.001 123.7 167.001 123.4 167.001 123.2C166.101 123.2 166.301 122.1 165.701 121.8C165.101 121.5 164.701 120.9 164.401 120.4C164.201 120.1 164.101 119.7 164.801 118.8C165.101 118.4 165.501 118 165.801 117.9C166.101 117.9 166.301 117.8 166.401 117.9C166.601 117.9 166.801 118 167.001 118.1C167.401 118.3 168.101 118.1 168.201 118.7C168.201 118.9 168.601 118.7 168.201 119.2V119.3C169.201 119.2 169.201 120 169.601 120.3C170.001 120.6 170.801 120.5 170.901 121.1C171.501 120.9 171.701 121.1 171.701 121.5C171.901 122.7 172.901 123.1 173.501 123.8C174.101 124.6 174.801 125.2 175.501 126C175.601 126.1 176.001 126 175.901 126.3C175.901 126.6 176.101 126.6 176.301 126.8C176.401 126.9 176.701 127 176.701 127.2C176.701 128.2 177.601 128.5 178.001 129.1C178.501 129.7 179.001 130.3 179.601 130.8C180.001 131.1 180.601 131.2 180.801 131.6C180.801 131.8 181.301 131.7 181.001 132.3C181.001 132.5 181.401 132.3 181.501 132.3C181.801 132.5 182.001 132.8 182.201 133C182.501 133.3 182.801 133.7 183.101 134C183.301 134.2 183.701 134.2 183.901 134.4C184.101 134.6 184.301 134.8 184.501 135C184.701 135.3 184.801 135.7 185.001 136C185.201 136.3 185.701 136.4 185.701 136.9C185.701 137.7 186.401 138 186.801 138.6C187.201 139.1 187.601 139.6 188.201 140C188.501 140.2 188.401 140.8 188.601 141.1C188.701 141.2 187.801 142.4 187.401 142.7L187.201 142.8C186.601 142.8 185.901 143.1 185.601 142.8C185.201 142.3 184.801 141.9 184.401 141.5L184.101 141Z" fill="black"/>
<path d="M119.501 119.901C118.601 120.501 117.701 121.201 117.101 122.101C116.901 122.401 116.401 122.601 116.701 123.301C116.801 123.601 116.101 123.601 115.901 124.001C115.501 125.001 115.101 125.901 115.001 127.001C114.801 128.101 115.001 129.101 114.901 130.201C114.901 131.301 114.501 132.401 114.901 133.501C115.201 134.501 114.701 135.301 114.801 136.201C114.901 137.201 115.001 138.201 114.801 139.101C114.601 139.801 114.401 140.501 114.601 141.201C114.601 141.601 115.001 142.001 115.001 142.501C115.001 142.901 114.701 143.401 115.401 143.801C115.401 143.801 115.401 144.001 115.301 144.101C114.901 144.601 115.001 145.201 115.301 145.501C115.601 145.901 115.601 146.201 115.601 146.601C115.701 147.601 115.801 148.501 115.801 149.501C115.801 150.201 115.701 151.001 115.701 151.701C115.701 152.501 116.101 153.201 115.801 154.001C115.601 154.701 115.701 155.401 115.801 156.101C115.801 156.501 115.601 157.001 116.301 157.201V157.401C115.601 158.601 116.801 159.601 116.801 160.701C116.801 161.901 117.101 163.101 117.301 164.201C117.301 164.501 117.301 164.901 117.701 165.101C117.901 165.101 117.901 165.501 117.901 165.701C117.401 166.701 117.901 167.501 117.901 168.401C117.901 169.401 118.401 170.401 118.101 171.501C118.001 172.001 118.001 172.601 118.601 173.001C118.901 173.201 118.701 173.701 118.901 174.101C119.001 174.401 119.301 174.601 119.401 174.901C119.401 175.201 119.301 175.501 119.201 175.701C119.201 175.701 119.201 175.901 119.201 176.001C120.101 177.401 119.501 179.001 120.001 180.501C120.501 182.001 120.701 183.501 120.901 185.001C121.001 185.801 120.901 186.701 120.001 187.501C119.501 187.901 119.001 188.001 118.601 187.701C118.301 187.501 118.001 187.201 117.901 186.901C117.701 186.401 117.501 186.001 117.301 185.501C116.901 184.601 116.201 183.701 116.301 182.701C116.301 182.401 116.001 182.101 116.401 181.701V181.501C115.401 180.301 115.601 178.801 115.301 177.501C115.001 176.401 114.201 175.301 114.301 174.101C113.601 173.601 113.501 172.801 113.601 172.101C113.901 169.701 113.001 167.501 112.801 165.101C112.501 162.701 112.101 160.401 111.901 158.001C111.901 157.601 111.401 157.301 111.701 156.801C111.901 156.301 111.701 155.801 111.601 155.301C111.601 154.801 111.401 154.301 111.501 153.901C112.001 152.001 111.401 150.201 111.301 148.301C111.301 146.401 111.201 144.601 110.901 142.701C110.801 141.601 110.401 140.501 110.501 139.301C110.501 138.801 110.201 138.301 110.801 137.801C111.001 137.701 110.501 137.201 110.501 136.901C110.501 136.101 110.501 135.301 110.501 134.501C110.501 133.401 110.501 132.301 110.501 131.201C110.501 130.501 110.301 129.801 110.301 129.101C110.301 128.401 110.301 127.601 110.601 126.901C110.801 126.001 111.201 125.101 111.601 124.101C112.001 123.201 112.101 122.001 112.801 121.201C113.501 120.501 114.001 119.801 114.701 119.101C115.301 118.401 116.001 117.701 116.701 117.201C118.201 116.201 119.801 115.401 121.301 114.701C122.201 114.301 123.201 114.501 124.001 114.201C124.401 114.101 125.401 115.301 125.301 115.901C125.301 116.001 125.301 116.101 125.301 116.201C124.601 116.901 124.101 117.801 123.201 118.101C121.901 118.501 120.701 119.101 119.601 119.801L119.501 119.901Z" fill="black"/>
<path d="M166.101 147.302C166.501 147.102 166.801 147.002 167.201 146.702C167.301 146.702 167.601 146.702 167.501 146.202C167.501 145.902 167.901 146.402 168.001 146.402C168.301 146.202 168.701 146.102 169.001 145.902C169.301 145.702 169.501 145.302 169.801 145.102C170.101 144.902 170.601 145.102 170.801 144.602C171.001 144.202 171.401 144.602 171.601 144.302C171.801 144.102 172.101 143.902 172.501 144.002C172.801 144.002 173.101 144.202 173.201 144.002C173.201 143.902 173.201 143.502 173.401 143.502C173.501 143.502 173.801 143.702 173.701 143.002C173.701 143.002 173.701 143.002 173.901 143.002C174.201 143.302 174.401 143.202 174.401 143.002C174.401 142.702 174.501 142.702 174.601 142.602C174.901 142.502 175.201 142.302 175.501 142.302C175.701 142.302 176.001 142.302 176.301 142.302C176.501 142.302 176.701 141.902 177.001 142.102C177.301 142.302 177.501 142.202 177.701 142.102C177.801 142.102 178.101 142.302 177.901 141.602C178.501 142.302 178.501 141.102 178.901 141.202C179.301 141.202 179.601 141.002 180.001 140.902C180.001 140.902 180.301 141.002 180.201 140.502C180.201 140.302 180.201 140.302 180.401 140.402C180.901 140.902 181.001 140.402 181.301 140.402C181.601 140.402 181.901 140.002 182.301 140.402C182.501 140.602 182.701 140.602 182.701 140.002C182.701 139.702 182.901 140.002 183.001 139.802C183.001 139.802 183.001 139.402 183.201 139.402C183.201 139.402 183.401 139.602 183.501 139.702C183.801 138.902 184.501 139.702 184.901 139.302C185.301 139.002 185.801 138.902 186.301 138.902C186.601 138.902 186.901 138.902 187.401 140.002C187.601 140.502 187.801 141.002 187.701 141.402C187.701 141.702 187.701 141.902 187.601 142.002C187.501 142.102 187.401 142.302 187.301 142.402C187.101 142.702 186.901 143.302 186.601 143.102C186.501 143.102 186.501 143.402 186.201 142.902C186.001 143.802 185.501 143.402 185.101 143.602C184.801 143.802 184.601 144.502 184.201 144.302C184.201 145.002 184.001 144.902 183.701 144.802C182.801 144.402 182.301 145.002 181.601 145.202C180.901 145.302 180.301 145.702 179.601 145.902C179.501 145.902 179.601 146.302 179.301 146.102C179.101 145.902 179.001 146.102 178.801 146.202C178.701 146.202 178.601 146.402 178.401 146.302C177.601 145.902 177.301 146.502 176.701 146.602C176.201 146.702 175.601 146.902 175.201 147.302C174.901 147.502 174.801 148.002 174.401 148.002C174.201 148.002 174.201 148.402 173.901 147.902C173.801 147.802 173.901 148.202 173.801 148.302C173.601 148.402 173.401 148.502 173.201 148.602C172.901 148.702 172.601 148.802 172.301 149.002C172.101 149.102 172.101 149.402 171.901 149.602C171.701 149.702 171.601 149.802 171.301 149.902C171.001 149.902 170.701 149.902 170.401 149.902C170.101 149.902 170.001 150.302 169.601 150.202C168.901 150.002 168.601 150.402 168.201 150.602C167.701 150.802 167.301 150.902 166.901 151.302C166.701 151.502 166.201 151.202 166.001 151.302C165.901 151.302 165.101 150.102 164.901 149.702V149.502C164.901 149.002 164.801 148.202 165.101 148.102C165.501 148.002 165.901 147.702 166.301 147.502L166.101 147.302Z" fill="black"/>
<path d="M168.602 166.202C168.602 165.902 168.502 165.502 168.302 165.202C168.302 165.102 168.502 164.902 167.902 164.902C167.602 164.902 168.202 164.602 168.202 164.502C168.102 164.202 168.102 163.902 167.902 163.602C167.802 163.302 167.502 163.102 167.302 162.802C167.202 162.502 167.302 162.102 167.002 161.902C166.702 161.702 167.102 161.402 167.002 161.202C166.802 161.002 166.702 160.702 166.802 160.402C166.902 160.202 167.102 160.002 166.902 159.802C166.902 159.802 166.502 159.702 166.502 159.602C166.502 159.502 166.702 159.302 166.102 159.302C166.102 159.302 166.102 159.302 166.202 159.202C166.602 159.002 166.502 158.802 166.202 158.802C165.902 158.802 165.902 158.702 165.902 158.602C165.902 158.402 165.702 158.102 165.702 157.902C165.702 157.702 165.902 157.502 165.902 157.302C165.902 157.102 165.602 157.002 165.902 156.702C166.202 156.402 166.102 156.302 166.002 156.102C166.002 156.102 166.202 155.802 165.602 155.902C166.302 155.402 165.202 155.402 165.302 155.102C165.402 154.802 165.302 154.502 165.102 154.202C165.102 154.202 165.202 154.002 164.802 154.002C164.602 154.002 164.602 154.002 164.702 153.902C165.202 153.502 164.802 153.402 164.902 153.102C164.902 152.802 164.602 152.602 164.902 152.202C165.102 152.002 165.102 151.902 164.502 151.902C164.202 151.902 164.502 151.702 164.402 151.602C164.402 151.602 164.002 151.602 164.002 151.502C164.002 151.502 164.202 151.302 164.302 151.202C163.602 151.002 164.302 150.402 164.002 150.102C163.702 149.802 163.702 149.402 163.602 149.002C163.602 148.802 163.602 148.502 164.702 148.002C165.202 147.802 165.702 147.602 166.002 147.602C166.202 147.602 166.502 147.602 166.602 147.602C166.702 147.602 166.902 147.802 167.002 147.902C167.302 148.102 167.902 148.202 167.702 148.502C167.702 148.602 168.002 148.602 167.502 148.802C168.402 148.902 168.002 149.402 168.102 149.802C168.202 150.102 168.902 150.202 168.702 150.602C169.402 150.602 169.302 150.802 169.202 151.002C168.702 151.802 169.302 152.202 169.402 152.902C169.402 153.502 169.702 154.102 169.802 154.702C169.802 154.802 170.202 154.802 170.002 155.002C169.802 155.202 170.002 155.302 170.002 155.402C170.002 155.502 170.202 155.602 170.002 155.802C169.502 156.402 170.002 156.802 170.002 157.302C170.002 157.802 170.002 158.302 170.402 158.702C170.602 159.002 171.002 159.202 170.902 159.502C170.902 159.602 171.202 159.702 170.702 159.902C170.502 159.902 171.002 159.902 171.102 160.102C171.102 160.302 171.202 160.502 171.302 160.702C171.302 161.002 171.302 161.302 171.502 161.502C171.502 161.702 171.902 161.802 172.002 161.902C172.102 162.102 172.102 162.202 172.102 162.402C172.102 162.602 171.902 162.902 171.902 163.102C171.902 163.302 172.202 163.502 172.002 163.802C171.602 164.302 172.002 164.702 172.002 165.102C172.002 165.502 172.102 165.902 172.302 166.302C172.402 166.502 172.002 166.802 172.102 167.102C172.102 167.102 170.702 167.702 170.202 167.802H170.002C169.502 167.802 168.702 167.802 168.702 167.402C168.702 167.002 168.502 166.702 168.402 166.302L168.602 166.202Z" fill="black"/>
<path d="M162.2 186.203C162.3 185.803 162.5 185.403 162.5 185.003C162.5 184.803 162.8 184.803 162.4 184.503C162.2 184.303 162.8 184.403 162.8 184.203C162.8 183.803 163.1 183.503 163.1 183.103C163.1 182.703 163.1 182.303 163.1 181.903C163.1 181.503 163.6 181.303 163.4 180.803C163.2 180.403 163.8 180.303 163.8 180.003C163.8 179.703 163.8 179.303 164.1 179.103C164.3 178.903 164.6 178.803 164.6 178.603C164.6 178.403 164.3 178.203 164.4 178.103C164.4 178.003 164.8 177.903 164.2 177.603C164.2 177.603 164.2 177.603 164.4 177.603C164.8 177.603 164.9 177.403 164.6 177.203C164.4 177.003 164.5 176.903 164.5 176.803C164.5 176.503 164.6 176.203 164.8 175.903C164.9 175.703 165.2 175.603 165.4 175.403C165.5 175.203 165.4 174.903 165.7 174.703C166.1 174.603 166.1 174.403 166.2 174.203C166.2 174.103 166.6 174.003 166 173.703C166.9 173.703 166 173.003 166.3 172.703C166.6 172.403 166.6 172.003 166.7 171.703C166.7 171.703 166.9 171.603 166.5 171.303C166.4 171.303 166.4 171.103 166.5 171.103C167.2 171.103 166.9 170.603 167.1 170.403C167.3 170.103 167.1 169.703 167.7 169.603C167.9 169.603 168.1 169.403 167.6 169.103C167.4 168.903 167.6 168.903 167.6 168.803C167.6 168.703 167.3 168.503 167.4 168.403C167.4 168.403 167.7 168.403 167.8 168.303C167.3 167.703 168.3 167.503 168.2 167.003C168.2 166.703 168.2 166.603 168.2 166.303C168.2 166.003 168.4 165.703 168.6 165.303C168.8 164.903 169.3 164.503 170.4 165.103C170.9 165.303 171.3 165.703 171.5 166.003C171.6 166.203 171.8 166.403 171.8 166.503C171.8 166.603 171.9 166.803 172 166.903C172.1 167.103 172.6 167.403 172.2 167.703C172.1 167.703 172.3 168.003 171.8 167.903C172.5 168.503 171.8 168.903 171.8 169.303C171.8 169.703 172.2 170.203 171.8 170.503C172.3 170.903 172.2 171.103 171.9 171.203C171 171.703 171.2 172.503 170.9 173.203C170.6 173.903 170.4 174.603 170.1 175.303C170.1 175.403 170.4 175.603 170.1 175.703C169.8 175.703 169.9 176.003 169.9 176.103C169.9 176.203 169.9 176.403 169.7 176.503C168.9 176.803 169.1 177.503 168.8 178.003C168.5 178.503 168.3 179.003 168.3 179.603C168.3 180.003 168.5 180.403 168.3 180.703C168.2 180.803 168.5 181.103 167.9 181.003C167.7 181.003 168.1 181.303 168.1 181.403C168.1 181.603 168 181.903 167.9 182.103C167.8 182.403 167.6 182.703 167.6 183.103C167.6 183.303 167.7 183.603 167.7 183.803C167.7 184.003 167.7 184.203 167.5 184.403C167.3 184.603 167.1 184.803 166.9 185.103C166.8 185.303 166.9 185.703 166.6 185.903C166 186.203 166.1 186.803 165.9 187.203C165.7 187.603 165.5 188.103 165.5 188.603C165.5 188.903 165 189.003 164.9 189.203C164.9 189.303 163.4 189.203 162.9 189.003H162.7C162.3 188.603 161.7 188.203 161.8 187.903C162 187.403 162.1 187.003 162.2 186.503V186.203Z" fill="black"/>
<path d="M151.001 135.801C151.001 136.001 150.901 136.101 150.901 136.301C150.901 136.301 150.601 136.301 151.101 136.601C151.401 136.601 150.701 136.601 150.701 136.601C150.701 136.801 150.701 136.901 150.701 137.101C150.701 137.301 150.901 137.501 150.901 137.601C150.901 137.801 150.601 137.901 150.901 138.101C151.201 138.301 150.601 138.301 150.701 138.401C150.801 138.601 150.901 138.701 150.701 138.801C150.501 138.801 150.301 138.901 150.401 139.001C150.401 139.001 150.801 139.201 150.701 139.201C150.701 139.201 150.401 139.201 151.001 139.401C151.001 139.401 151.001 139.401 150.801 139.401C150.401 139.401 150.401 139.401 150.701 139.601C151.001 139.601 150.901 139.701 150.901 139.801C150.901 139.901 150.901 140.101 150.901 140.201C150.901 140.201 150.601 140.401 150.501 140.501C150.501 140.501 150.701 140.701 150.401 140.801C150.101 140.801 150.101 141.001 150.101 141.101C150.101 141.101 149.801 141.201 150.401 141.301C149.601 141.401 150.601 141.601 150.401 141.801C150.201 142.001 150.401 142.101 150.401 142.301C150.401 142.301 150.201 142.301 150.701 142.401C150.901 142.401 150.901 142.401 150.701 142.401C150.101 142.501 150.501 142.601 150.301 142.801C150.201 142.901 150.501 143.101 150.001 143.201C149.801 143.201 149.701 143.401 150.301 143.401C150.601 143.401 150.301 143.501 150.301 143.601C150.301 143.601 150.601 143.601 150.601 143.701C150.601 143.701 150.401 143.701 150.301 143.801C151.001 144.001 150.101 144.201 150.301 144.401C150.501 144.601 150.401 144.801 150.301 145.001C150.301 145.101 150.101 145.301 148.901 145.401C148.401 145.401 147.801 145.501 147.501 145.501C147.301 145.501 147.001 145.501 147.001 145.501C146.901 145.501 146.801 145.401 146.701 145.301C146.501 145.201 145.901 145.101 146.201 144.901C146.201 144.901 146.001 144.901 146.501 144.701C145.701 144.501 146.201 144.301 146.101 144.101C146.101 143.901 145.401 143.801 145.701 143.601C145.101 143.601 145.201 143.401 145.401 143.301C146.101 142.901 145.601 142.601 145.701 142.201C145.701 141.801 145.701 141.501 145.701 141.101C145.701 141.101 145.401 141.001 145.701 140.901C146.001 140.901 145.701 140.701 145.701 140.701C145.701 140.701 145.601 140.501 145.701 140.501C146.401 140.301 146.001 139.901 146.101 139.701C146.201 139.401 146.301 139.101 146.101 138.801C146.101 138.601 145.701 138.401 145.901 138.201C145.901 138.201 145.601 138.001 146.201 138.001C146.401 138.001 145.901 137.901 145.901 137.801C145.901 137.701 145.901 137.601 145.901 137.401C145.901 137.201 146.001 137.101 145.901 136.901C145.901 136.801 145.701 136.601 145.601 136.501C145.601 136.401 145.601 136.301 145.601 136.201C145.701 136.101 145.901 136.001 146.001 135.901C146.001 135.801 145.901 135.601 146.201 135.501C146.801 135.401 146.601 135.101 146.701 134.801C146.801 134.601 146.901 134.401 146.901 134.101C146.901 133.901 147.401 134.001 147.401 133.801C147.401 133.801 148.901 134.101 149.301 134.201H149.501C149.901 134.501 150.601 134.801 150.501 134.901C150.401 135.101 150.401 135.301 150.301 135.501L151.001 135.801Z" fill="black"/>
<path d="M162.302 135.801C162.302 136.001 162.202 136.101 162.202 136.301C162.202 136.301 161.902 136.301 162.402 136.601C162.702 136.601 162.002 136.601 162.002 136.601C162.002 136.801 162.002 136.901 162.002 137.101C162.002 137.301 162.202 137.501 162.202 137.601C162.202 137.801 161.902 137.901 162.202 138.101C162.502 138.301 161.902 138.301 162.002 138.401C162.102 138.601 162.202 138.701 162.002 138.801C161.802 138.801 161.602 138.901 161.702 139.001C161.702 139.001 162.102 139.201 162.002 139.201C162.002 139.201 161.702 139.201 162.302 139.401C162.302 139.401 162.302 139.401 162.102 139.401C161.702 139.401 161.702 139.401 162.002 139.601C162.302 139.601 162.202 139.701 162.202 139.801C162.202 139.901 162.202 140.101 162.202 140.201C162.202 140.201 161.902 140.401 161.802 140.501C161.802 140.501 162.002 140.701 161.702 140.801C161.402 140.801 161.402 141.001 161.402 141.101C161.402 141.101 161.102 141.201 161.702 141.301C160.902 141.401 161.902 141.601 161.702 141.801C161.502 142.001 161.702 142.101 161.702 142.301C161.702 142.301 161.502 142.301 162.002 142.401C162.202 142.401 162.202 142.401 162.002 142.401C161.402 142.501 161.802 142.601 161.602 142.801C161.502 142.901 161.802 143.101 161.302 143.201C161.102 143.201 161.002 143.401 161.602 143.401C161.902 143.401 161.602 143.501 161.602 143.601C161.602 143.601 161.902 143.601 161.902 143.701C161.902 143.701 161.702 143.701 161.602 143.801C162.302 144.001 161.402 144.201 161.602 144.401C161.802 144.601 161.702 144.801 161.602 145.001C161.602 145.101 161.402 145.301 160.202 145.401C159.702 145.401 159.102 145.501 158.802 145.501C158.602 145.501 158.302 145.501 158.302 145.501C158.202 145.501 158.102 145.401 158.002 145.301C157.802 145.201 157.202 145.101 157.502 144.901C157.502 144.901 157.302 144.901 157.802 144.701C157.002 144.501 157.502 144.301 157.402 144.101C157.402 143.901 156.702 143.801 157.002 143.601C156.402 143.601 156.502 143.401 156.702 143.301C157.402 142.901 156.902 142.601 157.002 142.201C157.002 141.801 157.002 141.501 157.002 141.101C157.002 141.101 156.702 141.001 157.002 140.901C157.302 140.901 157.002 140.701 157.002 140.701C157.002 140.701 156.902 140.501 157.002 140.501C157.702 140.301 157.302 139.901 157.402 139.701C157.502 139.401 157.602 139.101 157.402 138.801C157.402 138.601 157.002 138.401 157.202 138.201C157.202 138.201 156.902 138.001 157.502 138.001C157.702 138.001 157.202 137.901 157.202 137.801C157.202 137.701 157.202 137.601 157.202 137.401C157.202 137.201 157.302 137.101 157.202 136.901C157.202 136.801 157.002 136.601 156.902 136.501C156.902 136.401 156.902 136.301 156.902 136.201C157.002 136.101 157.202 136.001 157.302 135.901C157.302 135.801 157.202 135.601 157.502 135.501C158.102 135.401 157.902 135.101 158.002 134.801C158.102 134.601 158.202 134.401 158.202 134.101C158.202 133.901 158.702 134.001 158.702 133.801C158.702 133.801 160.202 134.101 160.602 134.201H160.802C161.202 134.501 161.902 134.801 161.802 134.901C161.702 135.101 161.702 135.301 161.602 135.501L162.302 135.801Z" fill="black"/>
<path d="M162.601 169.701C162.401 169.701 162.101 169.801 161.901 169.901C161.901 169.901 161.701 169.701 161.701 170.301C161.701 170.601 161.501 170.001 161.401 170.001C161.201 170.101 160.901 170.001 160.701 170.201C160.501 170.201 160.301 170.601 160.001 170.601C159.801 170.601 159.501 170.401 159.301 170.701C159.101 171.001 158.901 170.501 158.701 170.701C158.501 170.801 158.301 170.901 158.101 170.701C158.001 170.501 157.801 170.301 157.701 170.401C157.701 170.401 157.501 170.801 157.401 170.701C157.401 170.701 157.201 170.401 157.101 171.001C157.101 171.001 157.101 171.001 157.101 170.801C157.101 170.401 156.901 170.401 156.801 170.701C156.701 171.001 156.601 170.901 156.501 170.901C156.301 170.901 156.101 170.901 155.901 170.901C155.801 170.901 155.701 170.601 155.501 170.501C155.401 170.501 155.101 170.701 155.101 170.301C155.101 170.001 154.901 169.901 154.801 169.901C154.801 169.901 154.801 169.601 154.501 170.201C154.501 169.401 154.001 170.301 153.801 170.001C153.601 169.701 153.401 169.801 153.101 169.701C153.101 169.701 153.101 169.501 152.801 169.901C152.801 170.001 152.601 170.001 152.701 169.901C152.701 169.201 152.501 169.501 152.301 169.401C152.201 169.201 151.801 169.401 151.901 168.801C151.901 168.601 151.901 168.401 151.501 168.801C151.301 169.001 151.401 168.801 151.301 168.801L151.001 169.001C151.001 169.001 151.001 168.701 151.001 168.601C150.401 169.001 150.601 168.101 150.301 168.001C149.901 168.001 149.701 167.701 149.501 167.401C149.501 167.201 149.401 167.001 150.101 166.101C150.401 165.701 150.801 165.301 151.101 165.101C151.301 165.001 151.501 164.801 151.601 164.801C151.701 164.801 151.901 164.801 152.001 164.701C152.201 164.701 152.701 164.301 152.601 164.701C152.601 164.701 152.801 164.601 152.601 165.001C153.201 164.501 153.101 165.001 153.301 165.001C153.501 165.001 153.901 164.601 153.901 165.001C154.301 164.501 154.301 164.601 154.301 164.801C154.301 165.501 154.801 165.301 155.001 165.501C155.301 165.701 155.601 165.701 155.901 165.901C155.901 165.901 156.101 165.601 156.101 165.901C156.101 166.201 156.201 165.901 156.301 166.001H156.501C156.601 166.701 157.001 166.401 157.201 166.501C157.501 166.501 157.701 166.701 158.001 166.501C158.201 166.501 158.301 166.101 158.501 166.201C158.501 166.201 158.601 165.901 158.701 166.501C158.701 166.701 158.701 166.201 158.801 166.201C158.901 166.201 159.001 166.201 159.101 166.201C159.201 166.201 159.401 166.201 159.501 166.201C159.501 166.201 159.701 165.901 159.701 165.801C159.701 165.801 159.901 165.801 160.001 165.801C160.101 165.801 160.301 166.001 160.401 166.101C160.501 166.101 160.601 165.801 160.801 166.101C161.101 166.501 161.301 166.201 161.501 166.201C161.701 166.201 162.001 166.201 162.101 166.001C162.101 165.901 162.501 166.301 162.601 166.301C162.601 166.301 163.301 167.601 163.501 168.101V168.301C163.501 168.801 163.701 169.501 163.501 169.501C163.201 169.501 162.901 169.701 162.701 169.801L162.601 169.701Z" fill="black"/>
<path d="M129.099 164.302C128.199 164.402 127.399 164.402 126.499 164.402C126.199 164.402 125.899 164.102 125.499 164.602C125.299 164.902 125.099 164.202 124.799 164.202C123.999 164.202 123.299 163.902 122.499 163.802C121.799 163.702 120.999 163.702 120.299 163.502C119.599 163.302 118.999 162.702 118.199 162.702C117.499 162.702 117.199 162.002 116.599 161.702C115.899 161.402 115.199 161.002 114.899 160.302C114.599 159.802 114.499 159.202 114.099 158.802C113.899 158.602 113.399 158.402 113.299 158.102C113.199 157.802 113.299 157.402 112.599 157.302C112.599 157.302 112.599 157.102 112.599 157.002C112.899 156.502 112.699 156.202 112.399 156.002C112.099 155.802 111.999 155.602 111.999 155.302C111.799 154.602 111.699 154.002 111.699 153.302C111.699 152.802 111.899 152.202 111.999 151.702C111.999 151.202 111.899 150.502 112.299 150.102C112.699 149.602 112.799 149.202 112.999 148.702C112.999 148.402 113.499 148.202 112.999 147.802C112.999 147.802 112.999 147.702 112.999 147.602C113.599 147.402 113.699 147.002 113.799 146.602C113.899 146.202 113.999 145.702 114.399 145.402C115.199 144.902 115.799 144.102 116.599 143.602C116.799 143.502 117.199 143.602 117.199 143.002C117.199 142.802 117.499 142.702 117.699 142.802C118.599 143.202 119.199 142.702 119.899 142.802C120.599 142.802 121.299 142.602 121.999 143.102C122.299 143.302 122.599 143.402 122.999 142.902C123.199 142.602 123.499 142.902 123.699 142.902C123.899 142.902 124.099 142.602 124.299 142.602C124.499 142.602 124.599 142.902 124.799 143.002C124.799 143.002 124.899 143.002 124.999 143.002C126.099 142.502 126.999 143.702 127.999 143.902C129.099 144.202 130.099 144.902 130.899 145.802C131.299 146.302 131.599 147.102 130.899 148.002C130.599 148.402 130.099 148.702 129.699 148.702C129.399 148.702 129.199 148.702 128.999 148.702C128.799 148.602 128.499 148.502 128.299 148.402C127.799 148.202 127.199 148.402 126.999 148.002C126.999 147.902 126.599 148.002 126.799 147.502V147.402C125.899 147.902 125.499 147.202 124.799 147.102C124.199 147.102 123.599 147.602 122.999 147.302C122.599 147.902 122.299 147.802 121.899 147.602C121.299 147.302 120.699 147.202 120.199 147.302C119.699 147.302 119.399 147.602 118.999 147.702C118.199 148.002 117.599 148.802 117.199 149.602C117.199 149.802 117.399 150.002 117.099 150.102C116.799 150.102 116.899 150.502 116.899 150.702C116.899 150.902 116.899 151.102 116.799 151.302C115.999 152.002 116.399 153.002 116.499 153.902C116.499 154.802 116.799 155.802 117.199 156.502C117.499 156.902 117.999 157.002 118.099 157.402C118.099 157.602 118.499 157.402 118.299 158.002C118.299 158.202 118.699 158.002 118.799 158.002C119.099 158.102 119.399 158.402 119.699 158.502C120.099 158.702 120.699 159.002 121.199 159.202C121.499 159.302 121.899 159.202 122.299 159.202C122.699 159.202 122.999 159.402 123.299 159.502C123.699 159.702 124.099 160.002 124.499 160.202C124.899 160.402 125.399 160.202 125.799 160.502C126.599 161.102 127.399 160.802 128.199 160.802C128.999 160.802 129.799 160.702 130.399 160.302C130.599 160.302 130.799 160.302 130.999 160.302C131.199 160.302 131.499 160.302 131.699 160.302C131.899 160.302 132.899 161.302 133.099 161.802C133.099 161.802 133.099 162.002 133.099 162.102C132.999 162.402 132.899 162.802 132.799 163.202C132.599 163.502 132.399 163.802 132.099 163.902C131.099 164.202 130.199 164.502 129.199 164.702L129.099 164.302Z" fill="black"/>
<path d="M117.1 184C117.4 183.6 117.8 183.3 118.1 182.9C118.2 182.8 118.5 182.8 118.3 182.3C118.2 182 118.8 182.3 118.9 182.3C119.2 181.9 119.5 181.6 119.8 181.3C120.1 180.9 120.2 180.4 120.4 180.1C120.6 179.7 121.2 179.6 121.2 179.1C121.2 178.6 121.8 178.7 122 178.4C122.1 178 122.3 177.7 122.7 177.6C123 177.6 123.3 177.4 123.4 177.2C123.4 177 123.3 176.7 123.4 176.6C123.5 176.5 123.9 176.6 123.4 176C123.4 176 123.5 176 123.6 176C124 176.1 124.1 176 124 175.6C123.9 175.3 124 175.2 124 175.1C124.2 174.8 124.4 174.5 124.7 174.2C124.9 174 125.3 173.9 125.5 173.7C125.7 173.5 125.7 173.1 126.1 173.1C126.5 173.1 126.6 172.8 126.8 172.6C126.8 172.5 127.2 172.5 126.8 172C127.7 172 127 171.2 127.4 170.9C127.8 170.6 127.9 170.2 128.1 169.8C128.1 169.7 128.4 169.7 128.1 169.4C128 169.3 128.1 169.2 128.1 169.2C128.8 169.2 128.6 168.7 128.8 168.5C129.1 168.2 128.9 167.8 129.5 167.6C129.8 167.6 129.9 167.4 129.5 167C129.3 166.8 129.5 166.8 129.5 166.6C129.5 166.5 129.3 166.3 129.3 166.2C129.3 166.2 129.6 166.1 129.7 166C129.2 165.3 130.2 165.1 130.1 164.5C130.1 164 130.1 163.5 130.3 163C130.3 162.7 130.5 162.5 131.7 162.2C132.2 162.1 132.8 162.1 133.1 162.2C133.3 162.3 133.6 162.4 133.6 162.6C133.6 162.8 133.8 163 133.9 163.2C134.1 163.6 134.6 164.1 134.2 164.5C134.1 164.6 134.4 164.8 133.8 164.9C134.5 165.6 133.8 166.1 133.8 166.7C133.8 167.2 134.2 167.9 133.8 168.2C134.3 168.7 134.1 169 133.8 169.2C132.8 169.9 132.8 170.9 132.3 171.8C131.8 172.6 131.4 173.5 130.8 174.3C130.8 174.4 130.9 174.8 130.6 174.8C130.3 174.8 130.3 175.1 130.2 175.3C130.1 175.5 130.1 175.7 129.9 175.8C128.9 176 128.8 176.9 128.3 177.4C127.8 177.9 127.3 178.5 127 179.1C126.8 179.5 126.8 180.1 126.4 180.3C126.2 180.4 126.4 180.8 125.8 180.5C125.6 180.5 125.8 180.9 125.8 181C125.6 181.3 125.4 181.5 125.2 181.7C124.9 182 124.6 182.3 124.4 182.7C124.3 182.9 124.3 183.3 124.1 183.5C124 183.7 123.8 183.9 123.6 184.1C123.3 184.3 122.9 184.4 122.7 184.6C122.4 184.8 122.4 185.3 121.9 185.3C121.1 185.4 120.9 186 120.4 186.5C119.9 186.9 119.5 187.3 119.2 187.9C119 188.2 118.4 188.1 118.2 188.3C118.1 188.4 116.9 187.6 116.5 187.2L116.4 187C116.3 186.4 116 185.7 116.3 185.5C116.7 185.1 117.1 184.7 117.5 184.3L117.1 184Z" fill="black"/>
<path d="M133.9 124.802C133.9 125.202 133.9 125.602 134 126.002C134 126.202 133.8 126.302 134.3 126.502C134.6 126.502 133.9 126.702 134 126.902C134 127.302 134 127.702 134 128.102C134 128.502 134.3 128.802 134.4 129.202C134.4 129.602 134.2 130.002 134.4 130.302C134.7 130.602 134.2 130.902 134.3 131.202C134.4 131.502 134.5 131.902 134.3 132.202C134.1 132.402 133.9 132.602 134 132.902C134 133.002 134.4 133.202 134.3 133.302C134.3 133.402 134 133.602 134.6 133.702C134.6 133.702 134.6 133.702 134.4 133.802C134 133.902 134 134.102 134.3 134.302C134.6 134.402 134.5 134.602 134.5 134.702C134.5 135.002 134.5 135.402 134.5 135.702C134.5 135.902 134.2 136.202 134.1 136.402C134.1 136.602 134.3 136.902 134 137.102C133.7 137.302 133.7 137.502 133.6 137.702C133.6 137.802 133.3 137.902 133.9 138.102C133 138.402 134.1 138.902 133.9 139.202C133.6 139.602 133.7 140.002 133.7 140.402C133.7 140.502 133.5 140.602 133.9 140.702C134.1 140.702 134.1 140.902 133.9 140.902C133.2 141.102 133.6 141.502 133.4 141.702C133.2 142.002 133.4 142.402 132.9 142.702C132.7 142.802 132.5 143.002 133.1 143.302C133.4 143.402 133.1 143.502 133.1 143.702C133.1 143.802 133.4 144.002 133.4 144.102C133.4 144.102 133.1 144.202 133 144.302C133.6 144.902 132.6 145.202 132.7 145.702C132.7 146.202 132.6 146.702 132.4 147.202C132.3 147.502 132 147.702 130.9 147.602C130.4 147.602 129.8 147.402 129.6 147.202C129.4 147.102 129.2 146.902 129.2 146.802C129.2 146.602 129 146.502 129 146.302C128.9 146.002 128.4 145.602 128.8 145.302C128.9 145.302 128.6 145.002 129.1 145.102C128.4 144.502 129.1 144.202 129.1 143.802C129.1 143.402 128.6 143.002 128.9 142.702C128.3 142.402 128.5 142.202 128.7 142.002C129.5 141.402 129.1 140.602 129.3 139.902C129.5 139.202 129.5 138.502 129.6 137.802C129.6 137.702 129.3 137.502 129.6 137.402C129.9 137.302 129.6 137.102 129.7 136.902C129.7 136.802 129.6 136.602 129.7 136.502C130.4 136.002 130.1 135.402 130.2 134.802C130.2 134.202 130.4 133.702 130.2 133.102C130.2 132.802 129.8 132.402 129.9 132.102C129.9 132.002 129.6 131.802 130.2 131.702C130.4 131.702 129.9 131.502 129.9 131.402C129.9 131.202 129.9 130.902 129.9 130.702C129.9 130.402 129.9 130.002 129.9 129.702C129.9 129.502 129.6 129.302 129.6 129.102C129.6 128.902 129.6 128.702 129.6 128.502C129.6 128.202 129.9 128.002 129.9 127.702C129.9 127.402 129.7 127.102 129.9 126.902C130.4 126.402 130.1 125.902 130.1 125.402C130.1 124.902 130.1 124.402 130 123.902C130 123.602 130.4 123.302 130.3 123.102C130.3 123.002 131.7 122.602 132.2 122.602H132.4C132.9 122.802 133.6 123.002 133.6 123.302C133.6 123.802 133.6 124.202 133.7 124.702L133.9 124.802Z" fill="black"/>
<path d="M141 121.9C143.1 122.1 145.1 122.3 147.1 122.4C147.8 122.4 148.6 122.7 149.3 122.2C149.7 121.9 150.4 122.6 151 122.5C152.8 122.4 154.6 122.3 156.4 122C158.2 121.7 159.9 121.1 161.6 120.7C163.3 120.3 165.3 120.1 166.9 119.4C168.3 118.8 169.7 118.9 170.9 118.4C172.2 117.8 173.5 117.2 174.8 116.8C175.7 116.5 176.7 116.1 177.3 115.4C177.7 115 177.8 114.4 178.3 113.9C178.7 113.5 179.3 113.1 179 112.3C179 112.3 179.2 112.1 179.3 112C179.9 111.7 180.3 110.9 180.1 110.4C180 109.9 180.1 109.5 180.1 109.1C180.2 108 180.1 106.9 179.7 106C179.4 105.3 179.1 104.4 178.5 103.7C177.8 103 176.8 102.6 176.1 101.9C175.4 101.2 174.4 100.8 173.5 100.5C173 100.3 172.4 99.9001 171.8 100.4H171.5C170 99.2001 168.2 100.1 166.6 99.9001C164.9 99.6001 163 99.9001 161.2 100.1C160.7 100.1 160.2 100.1 159.8 100.5C159.7 100.7 159.2 100.8 158.9 100.7C157.5 100.2 156.1 100.8 154.7 101C153.1 101.1 151.6 101.7 150 101.7C149.3 101.7 148.4 101.7 147.8 102.6C147.5 103 146.7 102.9 146.2 103.2C145.8 103.4 145.5 103.8 145 104C144.7 104.2 144.2 104 143.8 104.1C143.7 104.1 143.5 104.1 143.5 104.3C142.6 105.1 141.7 105.5 140.7 106C139.7 106.5 138.7 107 137.9 107.7C136.3 109.2 134.8 110.8 133.6 112.6C132.9 113.6 132.3 114.6 130.9 115C130.3 115.2 129.7 115 129.6 114.4C129.6 113.9 129.6 113.4 129.6 112.9C129.8 112.1 130.1 111.3 130.5 110.6C131.2 109.1 131.9 107.4 133.3 106.4C133.7 106.1 134 105.4 134.7 105.5C134.7 105.5 135 105.4 135 105.3C136.2 103.2 138.6 102.3 140.6 101.2C142.3 100.3 143.9 99.0001 145.9 98.6001C146.7 97.7001 148 97.4001 149.1 97.3001C153 97.0001 156.6 96.1001 160.4 95.8001C164.2 95.5001 168.2 95.3001 172.2 96.2001C172.9 96.3001 173.6 96.2001 174.3 96.6001C174.6 96.8001 175 97.0001 175.5 97.1001C175.9 97.3001 176.4 97.4001 176.8 97.5001C177.6 97.8001 178.4 98.1001 179 98.7001C180.3 99.8001 181.5 100.9 182.6 102.3C183.7 103.6 184.5 105.4 184.7 107.2C184.9 109 184.6 110.7 184 112.3C183.4 113.9 182.6 115.3 181.6 116.7C181 117.5 180.4 118.3 179.6 119C178.9 119.7 178.1 120.3 177.2 120.8C176.4 121.2 175.8 121.9 174.8 121.7C174.5 121.7 174 122.4 173.5 122.6C172.3 123.1 171 123.5 169.8 123.8C168.1 124.3 166.4 124.6 164.8 125C163.8 125.3 162.8 125.7 161.8 126C160.7 126.3 159.6 126.5 158.5 126.6C157.1 126.8 155.6 126.8 154.2 126.8C152.7 126.8 151.2 127.2 149.7 126.9C147 126.4 144.5 126.4 142 126.1C139.5 125.8 137.1 125.6 134.7 125.8C133.4 125.9 132.1 125.6 130.8 125.8C130.2 125.9 129 124.7 129.2 124.2C129.2 124.1 129.3 124 129.4 123.9C130.6 123.1 131.9 122.2 133.6 122.1C136.1 122.1 138.5 122.1 140.8 122.3L141 121.9Z" fill="black"/>
</svg>
