<svg width="300" height="300" viewBox="0 0 300 300" fill="none" xmlns="http://www.w3.org/2000/svg">
<path d="M180 136.599C178.9 135.399 177.8 134.199 176.7 133.099C176.3 132.699 176.1 132.099 175.2 131.999C174.8 131.999 174.9 131.099 174.5 130.699C173.4 129.699 172.5 128.499 171.4 127.499C170.4 126.499 169.2 125.599 168.2 124.599C167.2 123.599 166.4 122.299 165.2 121.499C164.2 120.799 163.8 119.699 162.9 118.899C162 118.099 161.1 117.399 160.5 116.599C160 115.999 159.5 115.399 158.9 115.199C158.5 115.099 158 115.199 157.5 115.099C157.1 114.999 156.6 114.599 156.1 115.099C156.1 115.099 155.9 114.999 155.8 114.899C155.4 114.399 154.7 114.399 154.2 114.599C153.7 114.799 153.3 114.799 152.9 114.799C151.7 114.799 150.5 114.799 149.3 114.799C148.4 114.799 147.5 114.499 146.6 114.499C145.7 114.499 144.7 114.799 143.8 114.499C142.9 114.299 142.1 114.299 141.2 114.499C140.7 114.499 140.1 114.299 139.8 114.999C139.8 114.999 139.6 114.999 139.5 114.999C138 114.299 136.8 115.599 135.4 115.599C134 115.599 132.5 115.999 131.1 116.399C130.7 116.399 130.3 116.399 130 116.899C130 117.099 129.5 117.199 129.3 117.099C128.1 116.699 127.1 117.399 126 117.599C124.7 117.799 123.7 118.499 122.4 118.399C121.9 118.399 121.1 118.599 120.9 119.299C120.8 119.699 120.2 119.699 119.8 119.899C119.5 120.099 119.4 120.499 119.2 120.699C119 120.899 118.6 120.799 118.4 120.899C118.4 120.899 118.2 120.899 118.2 121.099C117.9 121.799 117.4 122.299 116.9 122.899C116.4 123.399 115.9 124.099 115.7 124.899C115.3 126.499 114.9 128.199 114.7 129.899C114.6 130.899 114.3 131.899 113.2 132.599C112.7 132.899 112.1 132.899 111.8 132.399C111.6 132.099 111.4 131.699 111.3 131.299C111.3 130.699 111.1 130.099 111.1 129.399C111.1 128.099 110.7 126.699 111.3 125.399C111.5 124.999 111.3 124.399 111.9 124.199C111.9 124.199 112.1 123.999 112.1 123.899C112 121.899 113.4 120.199 114.8 118.699C115.9 117.499 117 115.999 118.6 115.399C119.1 114.399 120.2 114.099 121.1 113.899C122.7 113.699 124.1 113.299 125.6 112.899C127 112.499 128.4 111.999 129.9 111.799C132.9 111.199 135.8 110.599 138.8 110.299C139.3 110.299 139.7 109.799 140.3 110.099C140.9 110.299 141.6 110.099 142.2 109.999C142.8 109.999 143.4 109.799 144 109.899C146.4 110.399 148.7 109.899 151.1 110.099C153.4 110.199 155.8 110.299 158.4 110.799C159.9 111.099 161.7 111.599 163 112.699C163.5 113.199 164.3 113.399 164.3 114.299C164.3 114.499 165.1 114.599 165.4 114.899C166.1 115.599 166.8 116.299 167.4 116.999C168.3 117.999 169.2 118.999 170.1 119.899C170.7 120.499 171.4 120.899 172 121.399C172.6 121.999 173.2 122.599 173.7 123.299C174.4 124.099 175 125.099 175.7 125.899C176.4 126.799 177.4 127.399 177.9 128.399C178.9 130.199 180.4 131.499 181.7 132.999C183 134.499 184.3 135.999 185.8 137.299C186.6 138.099 186.9 139.199 187.7 139.999C188 140.399 187.4 141.899 186.9 142.099C186.9 142.099 186.7 142.099 186.6 142.099C185.5 141.599 184.3 141.399 183.5 140.499C182.3 139.099 181 137.799 179.8 136.499L180 136.599Z" fill="black"/>
<path d="M117.101 165.998C117.101 166.398 117.101 166.798 117.301 167.198C117.301 167.298 117.101 167.498 117.701 167.598C118.001 167.598 117.401 167.898 117.401 167.998C117.501 168.298 117.501 168.698 117.601 169.098C117.701 169.398 118.001 169.798 118.101 170.098C118.201 170.398 118.001 170.798 118.401 171.098C118.701 171.298 118.301 171.698 118.401 171.898C118.601 172.198 118.701 172.498 118.501 172.798C118.401 172.998 118.201 173.298 118.301 173.498C118.301 173.598 118.701 173.698 118.701 173.798C118.701 173.898 118.501 174.098 119.101 174.098C119.101 174.098 119.101 174.098 119.001 174.198C118.601 174.398 118.701 174.598 119.001 174.598C119.301 174.598 119.301 174.798 119.301 174.898C119.301 175.198 119.501 175.498 119.501 175.798C119.501 175.998 119.301 176.298 119.301 176.498C119.301 176.698 119.601 176.898 119.301 177.198C119.001 177.498 119.101 177.698 119.101 177.898C119.101 177.998 118.901 178.198 119.501 178.198C118.701 178.698 119.901 178.798 119.701 179.198C119.601 179.598 119.701 179.898 119.901 180.298C119.901 180.298 119.801 180.498 120.201 180.498C120.401 180.498 120.401 180.498 120.201 180.698C119.601 181.098 120.101 181.298 120.001 181.598C120.001 181.898 120.301 182.198 119.901 182.598C119.701 182.798 119.601 182.998 120.201 182.998C120.501 182.998 120.201 183.198 120.301 183.298C120.301 183.298 120.601 183.398 120.701 183.498C120.701 183.498 120.501 183.698 120.401 183.798C121.101 184.098 120.401 184.698 120.601 185.198C120.901 185.598 120.901 186.098 120.901 186.598C120.901 186.898 120.801 187.198 119.701 187.498C119.201 187.698 118.701 187.798 118.301 187.698C118.001 187.698 117.801 187.698 117.701 187.498C117.601 187.398 117.401 187.298 117.301 187.098C117.101 186.798 116.501 186.598 116.701 186.298C116.701 186.198 116.501 186.098 116.901 185.998C116.001 185.698 116.501 185.198 116.401 184.798C116.301 184.498 115.601 184.198 115.801 183.798C115.101 183.798 115.201 183.498 115.401 183.198C115.901 182.398 115.401 181.798 115.401 180.998C115.401 180.298 115.101 179.598 115.101 178.898C115.101 178.798 114.701 178.698 115.001 178.498C115.201 178.298 115.001 178.198 115.001 177.998C115.001 177.898 114.801 177.698 115.001 177.598C115.601 176.898 115.001 176.398 115.001 175.898C115.001 175.298 115.001 174.798 114.701 174.198C114.501 173.898 114.101 173.598 114.201 173.198C114.201 172.998 113.901 172.898 114.401 172.698C114.601 172.698 114.101 172.598 114.101 172.498C114.101 172.298 114.101 171.998 114.001 171.798C114.001 171.498 114.001 171.098 113.801 170.798C113.801 170.598 113.501 170.498 113.401 170.298C113.401 170.098 113.301 169.898 113.301 169.698C113.301 169.398 113.501 169.098 113.501 168.898C113.501 168.598 113.201 168.398 113.501 168.098C113.901 167.498 113.501 167.098 113.501 166.598C113.501 166.098 113.501 165.598 113.201 165.198C113.101 164.898 113.501 164.598 113.501 164.398C113.501 164.298 114.901 163.898 115.401 163.898H115.601C116.101 164.098 116.901 164.198 116.901 164.498C116.901 164.898 117.001 165.398 117.101 165.798V165.998Z" fill="black"/>
<path d="M166.101 147.298C166.501 147.098 166.801 146.998 167.201 146.698C167.301 146.698 167.601 146.698 167.501 146.198C167.501 145.898 167.901 146.398 168.001 146.398C168.301 146.198 168.701 146.098 169.001 145.898C169.301 145.698 169.501 145.298 169.801 145.098C170.101 144.898 170.601 145.098 170.801 144.598C171.001 144.198 171.401 144.598 171.601 144.298C171.801 144.098 172.101 143.898 172.501 143.998C172.801 143.998 173.101 144.198 173.201 143.998C173.201 143.898 173.201 143.498 173.401 143.498C173.501 143.498 173.801 143.698 173.701 142.998C173.701 142.998 173.701 142.998 173.901 142.998C174.201 143.298 174.401 143.198 174.401 142.998C174.401 142.698 174.501 142.698 174.601 142.598C174.901 142.498 175.201 142.298 175.501 142.298C175.701 142.298 176.001 142.298 176.301 142.298C176.501 142.298 176.701 141.898 177.001 142.098C177.301 142.298 177.501 142.198 177.701 142.098C177.801 142.098 178.101 142.298 177.901 141.598C178.501 142.298 178.501 141.098 178.901 141.198C179.301 141.198 179.601 140.998 180.001 140.898C180.001 140.898 180.301 140.998 180.201 140.498C180.201 140.298 180.201 140.298 180.401 140.398C180.901 140.898 181.001 140.398 181.301 140.398C181.601 140.398 181.901 139.998 182.301 140.398C182.501 140.598 182.701 140.598 182.701 139.998C182.701 139.698 182.901 139.998 183.001 139.798C183.001 139.798 183.001 139.398 183.201 139.398C183.201 139.398 183.401 139.598 183.501 139.698C183.801 138.898 184.501 139.698 184.901 139.298C185.301 138.998 185.801 138.898 186.301 138.898C186.601 138.898 186.901 138.898 187.401 139.998C187.601 140.498 187.801 140.998 187.701 141.398C187.701 141.698 187.701 141.898 187.601 141.998C187.501 142.098 187.401 142.298 187.301 142.398C187.101 142.698 186.901 143.298 186.601 143.098C186.501 143.098 186.501 143.398 186.201 142.898C186.001 143.798 185.501 143.398 185.101 143.598C184.801 143.798 184.601 144.498 184.201 144.298C184.201 144.998 184.001 144.898 183.701 144.798C182.801 144.398 182.301 144.998 181.601 145.198C180.901 145.298 180.301 145.698 179.601 145.898C179.501 145.898 179.601 146.298 179.301 146.098C179.101 145.898 179.001 146.098 178.801 146.198C178.701 146.198 178.601 146.398 178.401 146.298C177.601 145.898 177.301 146.498 176.701 146.598C176.201 146.698 175.601 146.898 175.201 147.298C174.901 147.498 174.801 147.998 174.401 147.998C174.201 147.998 174.201 148.398 173.901 147.898C173.801 147.798 173.901 148.198 173.801 148.298C173.601 148.398 173.401 148.498 173.201 148.598C172.901 148.698 172.601 148.798 172.301 148.998C172.101 149.098 172.101 149.398 171.901 149.598C171.701 149.698 171.601 149.798 171.301 149.898C171.001 149.898 170.701 149.898 170.401 149.898C170.101 149.898 170.001 150.298 169.601 150.198C168.901 149.998 168.601 150.398 168.201 150.598C167.701 150.798 167.301 150.898 166.901 151.298C166.701 151.498 166.201 151.198 166.001 151.298C165.901 151.298 165.101 150.098 164.901 149.698V149.498C164.901 148.998 164.801 148.198 165.101 148.098C165.501 147.998 165.901 147.698 166.301 147.498L166.101 147.298Z" fill="black"/>
<path d="M168.601 166.198C168.601 165.898 168.501 165.498 168.301 165.198C168.301 165.098 168.501 164.898 167.901 164.898C167.601 164.898 168.201 164.598 168.201 164.498C168.101 164.198 168.101 163.898 167.901 163.598C167.801 163.298 167.501 163.098 167.301 162.798C167.201 162.498 167.301 162.098 167.001 161.898C166.701 161.698 167.101 161.398 167.001 161.198C166.801 160.998 166.701 160.698 166.801 160.398C166.901 160.198 167.101 159.998 166.901 159.798C166.901 159.798 166.501 159.698 166.501 159.598C166.501 159.498 166.701 159.298 166.101 159.298C166.101 159.298 166.101 159.298 166.201 159.198C166.601 158.998 166.501 158.798 166.201 158.798C165.901 158.798 165.901 158.698 165.901 158.598C165.901 158.398 165.701 158.098 165.701 157.898C165.701 157.698 165.901 157.498 165.901 157.298C165.901 157.098 165.601 156.998 165.901 156.698C166.201 156.398 166.101 156.298 166.001 156.098C166.001 156.098 166.201 155.798 165.601 155.898C166.301 155.398 165.201 155.398 165.301 155.098C165.401 154.798 165.301 154.498 165.101 154.198C165.101 154.198 165.201 153.998 164.801 153.998C164.601 153.998 164.601 153.998 164.701 153.898C165.201 153.498 164.801 153.398 164.901 153.098C164.901 152.798 164.601 152.598 164.901 152.198C165.101 151.998 165.101 151.898 164.501 151.898C164.201 151.898 164.501 151.698 164.401 151.598C164.401 151.598 164.001 151.598 164.001 151.498C164.001 151.498 164.201 151.298 164.301 151.198C163.601 150.998 164.301 150.398 164.001 150.098C163.701 149.798 163.701 149.398 163.601 148.998C163.601 148.798 163.601 148.498 164.701 147.998C165.201 147.798 165.701 147.598 166.001 147.598C166.201 147.598 166.501 147.598 166.601 147.598C166.701 147.598 166.901 147.798 167.001 147.898C167.301 148.098 167.901 148.198 167.701 148.498C167.701 148.598 168.001 148.598 167.501 148.798C168.401 148.898 168.001 149.398 168.101 149.798C168.201 150.098 168.901 150.198 168.701 150.598C169.401 150.598 169.301 150.798 169.201 150.998C168.701 151.798 169.301 152.198 169.401 152.898C169.401 153.498 169.701 154.098 169.801 154.698C169.801 154.798 170.201 154.798 170.001 154.998C169.801 155.198 170.001 155.298 170.001 155.398C170.001 155.498 170.201 155.598 170.001 155.798C169.501 156.398 170.001 156.798 170.001 157.298C170.001 157.798 170.001 158.298 170.401 158.698C170.601 158.998 171.001 159.198 170.901 159.498C170.901 159.598 171.201 159.698 170.701 159.898C170.501 159.898 171.001 159.898 171.101 160.098C171.101 160.298 171.201 160.498 171.301 160.698C171.301 160.998 171.301 161.298 171.501 161.498C171.501 161.698 171.901 161.798 172.001 161.898C172.101 162.098 172.101 162.198 172.101 162.398C172.101 162.598 171.901 162.898 171.901 163.098C171.901 163.298 172.201 163.498 172.001 163.798C171.601 164.298 172.001 164.698 172.001 165.098C172.001 165.498 172.101 165.898 172.301 166.298C172.401 166.498 172.001 166.798 172.101 167.098C172.101 167.098 170.701 167.698 170.201 167.798H170.001C169.501 167.798 168.701 167.798 168.701 167.398C168.701 166.998 168.501 166.698 168.401 166.298L168.601 166.198Z" fill="black"/>
<path d="M162.2 186.199C162.3 185.799 162.5 185.399 162.5 184.999C162.5 184.799 162.8 184.799 162.4 184.499C162.2 184.299 162.8 184.399 162.8 184.199C162.8 183.799 163.1 183.499 163.1 183.099C163.1 182.699 163.1 182.299 163.1 181.899C163.1 181.499 163.6 181.299 163.4 180.799C163.2 180.399 163.8 180.299 163.8 179.999C163.8 179.699 163.8 179.299 164.1 179.099C164.3 178.899 164.6 178.799 164.6 178.599C164.6 178.399 164.3 178.199 164.4 178.099C164.4 177.999 164.8 177.899 164.2 177.599C164.2 177.599 164.2 177.599 164.4 177.599C164.8 177.599 164.9 177.399 164.6 177.199C164.4 176.999 164.5 176.899 164.5 176.799C164.5 176.499 164.6 176.199 164.8 175.899C164.9 175.699 165.2 175.599 165.4 175.399C165.5 175.199 165.4 174.899 165.7 174.699C166.1 174.599 166.1 174.399 166.2 174.199C166.2 174.099 166.6 173.999 166 173.699C166.9 173.699 166 172.999 166.3 172.699C166.6 172.399 166.6 171.999 166.7 171.699C166.7 171.699 166.9 171.599 166.5 171.299C166.4 171.299 166.4 171.099 166.5 171.099C167.2 171.099 166.9 170.599 167.1 170.399C167.3 170.099 167.1 169.699 167.7 169.599C167.9 169.599 168.1 169.399 167.6 169.099C167.4 168.899 167.6 168.899 167.6 168.799C167.6 168.699 167.3 168.499 167.4 168.399C167.4 168.399 167.7 168.399 167.8 168.299C167.3 167.699 168.3 167.499 168.2 166.999C168.2 166.699 168.2 166.599 168.2 166.299C168.2 165.999 168.4 165.699 168.6 165.299C168.8 164.899 169.3 164.499 170.4 165.099C170.9 165.299 171.3 165.699 171.5 165.999C171.6 166.199 171.8 166.399 171.8 166.499C171.8 166.599 171.9 166.799 172 166.899C172.1 167.099 172.6 167.399 172.2 167.699C172.1 167.699 172.3 167.999 171.8 167.899C172.5 168.499 171.8 168.899 171.8 169.299C171.8 169.699 172.2 170.199 171.8 170.499C172.3 170.899 172.2 171.099 171.9 171.199C171 171.699 171.2 172.499 170.9 173.199C170.6 173.899 170.4 174.599 170.1 175.299C170.1 175.399 170.4 175.599 170.1 175.699C169.8 175.699 169.9 175.999 169.9 176.099C169.9 176.199 169.9 176.399 169.7 176.499C168.9 176.799 169.1 177.499 168.8 177.999C168.5 178.499 168.3 178.999 168.3 179.599C168.3 179.999 168.5 180.399 168.3 180.699C168.2 180.799 168.5 181.099 167.9 180.999C167.7 180.999 168.1 181.299 168.1 181.399C168.1 181.599 168 181.899 167.9 182.099C167.8 182.399 167.6 182.699 167.6 183.099C167.6 183.299 167.7 183.599 167.7 183.799C167.7 183.999 167.7 184.199 167.5 184.399C167.3 184.599 167.1 184.799 166.9 185.099C166.8 185.299 166.9 185.699 166.6 185.899C166 186.199 166.1 186.799 165.9 187.199C165.7 187.599 165.5 188.099 165.5 188.599C165.5 188.899 165 188.999 164.9 189.199C164.9 189.299 163.4 189.199 162.9 188.999H162.7C162.3 188.599 161.7 188.199 161.8 187.899C162 187.399 162.1 186.999 162.2 186.499V186.199Z" fill="black"/>
<path d="M160.9 164.398C160.6 164.598 160.2 164.698 159.9 164.898C159.8 164.898 159.6 164.798 159.6 165.298C159.6 165.598 159.3 164.998 159.2 165.098C158.9 165.298 158.6 165.298 158.3 165.398C158 165.498 157.8 165.798 157.5 165.898C157.2 165.998 156.9 165.798 156.7 166.198C156.5 166.498 156.2 166.098 156 166.198C155.8 166.398 155.5 166.498 155.3 166.298C155.1 166.198 154.9 165.998 154.7 166.098C154.7 166.098 154.6 166.498 154.4 166.498C154.3 166.498 154.1 166.198 154.1 166.898C154.1 166.898 154.1 166.898 154 166.798C153.8 166.398 153.7 166.498 153.6 166.798C153.6 167.098 153.5 167.098 153.4 167.098C153.2 167.098 152.9 167.198 152.7 167.098C152.5 167.098 152.3 166.898 152.1 166.798C151.9 166.798 151.7 167.098 151.5 166.798C151.3 166.498 151.1 166.598 150.9 166.598C150.9 166.598 150.7 166.298 150.6 166.998C150.2 166.198 150.1 167.298 149.7 167.098C149.4 166.898 149.1 167.098 148.8 167.098C148.8 167.098 148.6 166.898 148.6 167.398C148.6 167.598 148.5 167.598 148.5 167.398C148.2 166.798 148 167.198 147.8 167.098C147.5 166.998 147.3 167.298 147 166.798C146.9 166.598 146.7 166.498 146.6 167.098C146.6 167.398 146.4 167.098 146.3 167.098L146.1 167.398C146.1 167.398 146 167.198 145.9 167.098C145.5 167.798 145.1 166.898 144.7 167.098C144.3 167.298 143.9 167.098 143.5 167.098C143.3 167.098 143.1 166.798 143 165.698C143 165.198 143 164.598 143 164.298C143 164.098 143.2 163.798 143.2 163.798C143.3 163.798 143.4 163.598 143.6 163.498C143.8 163.298 144.1 162.798 144.3 163.098C144.3 163.098 144.5 162.898 144.5 163.398C144.8 162.598 145.2 163.098 145.5 163.098C145.8 163.098 146 162.398 146.3 162.698C146.4 162.098 146.6 162.198 146.8 162.398C147.4 163.098 147.9 162.598 148.4 162.598C149 162.598 149.5 162.598 150 162.598C150 162.598 150.1 162.198 150.3 162.498C150.4 162.698 150.5 162.498 150.7 162.498C150.8 162.498 150.9 162.298 151 162.498C151.5 163.098 151.9 162.698 152.3 162.698C152.7 162.698 153.2 162.698 153.6 162.498C153.8 162.398 154 161.998 154.3 162.098C154.4 162.098 154.5 161.798 154.7 162.298C154.7 162.498 154.7 161.998 154.8 161.998C155 161.998 155.1 161.998 155.3 161.898C155.5 161.898 155.8 161.898 156 161.698C156.1 161.698 156.2 161.398 156.4 161.298C156.5 161.298 156.7 161.198 156.8 161.198C157 161.198 157.2 161.398 157.4 161.398C157.6 161.398 157.7 161.098 157.9 161.398C158.4 161.798 158.6 161.398 158.9 161.398C159.2 161.398 159.5 161.198 159.6 160.998C159.6 160.898 160.1 161.198 160.2 160.998C160.2 160.998 161.3 161.998 161.6 162.398L161.7 162.598C161.8 163.098 162.1 163.798 161.7 163.998C161.3 164.198 160.9 164.498 160.5 164.698L160.9 164.398Z" fill="black"/>
<path d="M180.8 122.798C180.1 122.998 179.4 123.198 178.8 123.498C178.6 123.598 178.2 123.498 178.1 124.098C178.1 124.398 177.6 123.898 177.4 123.998C176.8 124.298 176.1 124.398 175.5 124.698C174.9 124.998 174.4 125.398 173.8 125.698C173.2 125.998 172.5 125.898 172 126.498C171.6 126.898 171 126.698 170.5 126.898C170 127.198 169.5 127.498 169 127.498C168.6 127.498 168.1 127.498 167.8 127.698C167.6 127.898 167.5 128.198 167.3 128.298C167.1 128.298 166.7 128.298 166.7 128.898C166.7 128.898 166.6 128.898 166.5 128.898C166.1 128.598 165.8 128.798 165.7 129.098C165.7 129.398 165.4 129.498 165.2 129.598C164.7 129.798 164.2 130.098 163.7 130.198C163.3 130.298 162.8 130.198 162.4 130.398C162 130.498 161.7 130.998 161.2 130.798C160.7 130.698 160.4 130.798 160 130.998C159.8 130.998 159.4 130.998 159.5 131.598C159.5 131.598 159.5 131.598 159.4 131.598C158.5 131.098 158.4 132.298 157.7 132.398C157 132.398 156.5 132.898 155.9 133.198C155.7 133.198 155.5 133.198 155.5 133.698C155.5 133.898 155.4 133.998 155.2 133.898C154.5 133.498 154.2 134.098 153.7 134.198C153.1 134.298 152.7 134.798 152 134.698C151.7 134.698 151.3 134.698 151.3 135.298C151.3 135.598 150.9 135.498 150.8 135.598C150.7 135.698 150.6 135.998 150.5 136.098C150.4 136.098 150.1 136.098 150 135.998H149.9C149.4 136.998 148.3 136.498 147.7 137.098C147.1 137.598 146.4 137.998 145.8 138.298C145.5 138.498 145.1 138.598 144.1 137.998C143.6 137.698 143.2 137.398 143.2 136.998C143.2 136.698 143.2 136.398 143.2 136.298C143.4 135.998 143.5 135.698 143.7 135.498C144.1 134.998 144.3 134.198 145 134.098C145.2 134.098 145.3 133.698 145.6 134.098C145.6 134.098 145.7 134.098 145.8 134.098C146.1 132.998 147.1 133.098 147.8 132.698C148.4 132.398 148.7 131.498 149.4 131.498C149.4 130.798 149.9 130.698 150.3 130.698C151.8 130.698 152.8 129.798 154 129.298C155.2 128.798 156.4 128.198 157.7 127.698C157.9 127.698 157.9 127.198 158.3 127.398C158.6 127.498 158.8 127.198 159.1 127.098C159.3 126.998 159.5 126.798 159.8 126.798C161 126.998 161.8 126.198 162.8 125.898C163.8 125.598 164.8 125.198 165.7 124.698C166.2 124.398 166.7 123.798 167.3 123.698C167.6 123.698 167.7 123.198 168.2 123.698C168.3 123.798 168.4 123.298 168.6 123.198C169 122.998 169.4 122.898 169.8 122.698C170.4 122.498 170.9 122.298 171.5 121.998C171.8 121.798 172.1 121.498 172.4 121.298C172.7 121.098 173.1 120.998 173.5 120.898C174 120.898 174.5 120.898 175 120.698C175.5 120.598 175.9 120.198 176.4 120.198C177.4 120.398 178.2 119.798 179 119.598C179.9 119.398 180.7 119.098 181.5 118.698C182 118.498 182.6 118.698 183 118.698C183.2 118.698 184 119.898 184.1 120.398C184.1 120.398 184.1 120.598 184.1 120.698C183.8 121.298 183.6 122.098 183.1 122.298C182.3 122.498 181.6 122.798 180.8 123.098V122.798Z" fill="black"/>
<path d="M176.801 129.398C176.601 130.098 176.501 130.698 176.401 131.398C176.401 131.698 176.101 131.898 176.601 132.198C176.801 132.398 176.201 132.498 176.201 132.798C176.201 133.498 176.001 134.298 175.801 135.098C175.701 135.898 175.501 136.898 175.001 137.698C174.501 138.498 173.701 138.998 173.301 139.698C172.901 140.398 172.101 140.298 171.601 140.698C171.101 141.098 170.201 141.598 169.101 141.498C168.801 141.498 168.501 141.398 168.201 141.298C167.801 141.198 167.501 140.998 167.101 140.998C166.701 140.998 166.201 140.998 165.801 140.698C165.801 140.698 165.801 140.698 165.601 141.098C165.701 140.698 165.601 140.598 165.601 140.898C165.601 141.198 165.601 141.198 165.601 141.198C165.601 141.098 165.601 140.698 165.501 140.698C165.501 140.698 165.501 141.098 165.401 140.698C165.401 140.498 165.201 140.498 165.201 140.498C165.201 140.498 165.201 140.498 165.201 140.598C165.201 140.598 164.901 140.598 165.301 140.998C165.301 140.998 165.301 141.098 165.201 141.098C164.601 141.098 164.401 141.498 164.201 141.898C164.001 142.298 163.901 142.698 163.501 142.898C162.701 143.298 162.201 143.898 161.501 144.298C161.301 144.398 161.001 144.298 161.101 144.898C161.101 145.098 160.901 145.198 160.801 145.098C160.001 144.798 159.701 145.398 159.001 145.598C158.301 145.798 157.601 146.298 156.701 145.998C156.301 145.898 155.901 145.798 155.401 146.398C155.201 146.698 154.701 146.398 154.401 146.398C154.101 146.398 153.801 146.598 153.501 146.498C153.301 146.498 153.101 146.098 153.001 145.898C153.001 145.898 152.901 145.898 152.801 145.898C152.101 145.898 151.501 145.498 151.101 144.998C150.701 144.498 150.401 143.998 150.001 143.498C149.101 142.698 148.701 141.498 148.401 140.498C148.301 139.898 148.401 139.298 149.401 138.698C149.901 138.398 150.401 138.298 150.801 138.498C151.101 138.498 151.301 138.698 151.401 138.798C151.601 138.998 151.801 139.198 151.901 139.398C152.201 139.798 152.901 139.998 152.901 140.498C152.901 140.698 153.201 140.598 152.901 140.998V141.098C153.401 141.098 153.601 141.198 153.801 141.398C154.001 141.598 154.101 141.898 154.401 141.998C154.601 141.998 154.901 141.998 155.101 141.998C155.301 141.998 155.401 141.898 155.601 141.998C155.801 141.398 155.901 141.498 156.201 141.598C157.101 142.098 158.201 141.098 159.201 140.598C160.301 140.098 161.101 139.298 161.801 138.498C161.801 138.498 161.801 138.298 161.801 138.198C161.801 137.998 162.001 137.798 162.201 137.698C162.601 137.498 162.701 136.898 162.801 135.998C163.201 135.998 163.601 135.698 163.901 135.798C164.801 136.098 164.901 135.498 165.101 135.398C165.101 135.398 165.101 135.498 165.301 135.598C165.601 135.798 166.101 136.098 167.401 136.198C167.601 136.898 168.001 137.198 168.301 137.398C168.501 137.498 168.601 137.398 168.701 137.398C168.701 137.398 168.801 137.398 168.901 137.298C168.901 137.298 168.901 137.298 169.101 137.598C169.101 137.698 169.101 137.298 169.301 137.198C169.501 136.998 169.901 136.898 170.101 136.698C170.501 136.398 170.801 136.198 171.101 135.798C171.201 135.598 171.101 135.298 171.201 134.998C171.201 134.798 171.301 134.598 171.501 134.398C171.701 134.098 172.001 133.798 172.101 133.398C172.201 132.998 172.101 132.398 172.401 131.998C173.001 131.098 172.901 130.098 173.201 129.098C173.501 128.198 173.801 127.198 174.001 126.298C174.101 125.698 174.801 125.498 175.001 124.998C175.001 124.798 176.601 124.998 177.001 125.298C177.001 125.298 177.201 125.398 177.201 125.498C177.401 126.098 178.001 126.798 177.701 127.298C177.401 127.998 177.201 128.798 177.001 129.498L176.801 129.398Z" fill="black"/>
<path d="M124.4 147.698C124.1 147.398 123.9 147.198 123.5 147.098C123.4 147.098 123.3 146.798 123 147.198C122.9 147.398 122.9 146.798 122.7 146.798C122.3 146.798 121.8 146.698 121.3 146.698C120.8 146.698 120.3 146.998 119.8 146.998C119.3 146.998 118.8 146.798 118.3 147.198C117.9 147.498 117.5 147.098 117.1 147.198C117 147.198 117.1 147.198 117 147.298C117 147.298 117 147.298 116.8 147.298C116.6 147.198 116.4 147.098 116.5 147.298L116.8 147.598C116.8 147.598 116.4 147.798 117 148.098C117 148.098 117 148.098 116.8 148.098C116.4 148.098 116.3 148.398 116.6 148.598C116.8 148.798 116.8 148.898 116.8 148.998C116.8 149.398 116.8 149.698 116.8 149.998C116.8 150.298 116.5 150.498 116.5 150.798C116.5 151.098 116.8 151.298 116.5 151.598C116.3 151.898 116.3 152.098 116.5 152.398C116.5 152.498 116.3 152.798 117 152.598C116.7 152.898 116.9 153.098 117 153.198C117.2 153.198 117.5 153.198 117.5 153.498C117.5 153.898 118 154.198 118.4 154.398C118.4 154.398 118.4 154.698 118.9 154.398C119 154.298 119.1 154.398 119.1 154.398C119.1 155.098 119.5 154.998 119.8 155.298C120.1 155.598 120.6 155.598 120.8 156.298C120.8 156.598 121.1 156.798 121.5 156.298C121.7 156.098 121.8 156.498 122 156.498C122.1 156.498 122.4 156.298 122.5 156.398C122.6 156.398 122.6 156.698 122.7 156.898C123.6 156.598 123.8 157.598 124.5 157.698C125.2 157.698 125.8 157.998 126.4 158.298C126.7 158.498 127.1 158.698 127 159.898C127 160.398 126.9 160.998 126.6 161.198C126.4 161.398 126.2 161.598 126.1 161.598C125.8 161.598 125.6 161.698 125.3 161.698C124.8 161.698 124.1 162.098 123.7 161.698C123.6 161.598 123.3 161.698 123.4 161.298V161.198C122.5 161.698 122 160.898 121.4 160.698C120.8 160.498 120 160.798 119.6 160.298C119 160.698 118.7 160.398 118.5 160.098C117.8 158.898 116.6 158.698 115.6 157.798C114.6 156.898 113.6 155.898 112.9 154.498C112.8 154.298 112.4 154.198 112.5 153.798C112.6 153.498 112.3 153.198 112.2 152.898C112.2 152.598 111.9 152.398 112 152.098C112.4 150.898 112 149.898 112.2 148.898C112.4 147.898 112.6 146.898 112.8 145.898C113 144.998 113.2 143.898 114 143.398C114 143.398 114 143.398 114.1 143.398C114.4 143.198 114.6 142.798 115.2 143.198C115.4 143.298 115.5 142.798 115.8 142.698C116 142.698 116.1 142.698 116.3 142.598H116.6L117.2 142.498C117.8 142.498 118.3 142.498 118.9 142.298C119.2 142.298 119.6 141.998 119.9 141.898C120.3 141.898 120.6 141.898 121 141.898C121.4 141.898 121.9 142.198 122.4 142.298C122.9 142.398 123.5 142.298 124 142.598C124.4 142.998 124.9 143.198 125.3 143.398C125.8 143.598 126.3 143.898 126.6 144.298C127.3 144.998 127.9 145.798 128.4 146.498C128.7 146.898 128.4 147.498 128.7 147.898C128.7 148.098 127.6 148.998 127.1 149.098H126.9C126.3 148.998 125.5 148.998 125.3 148.598C125.1 147.998 124.7 147.598 124.4 147.298V147.698Z" fill="black"/>
<path d="M126.3 129.901C126.6 130.201 126.9 130.601 127.2 130.901C127.3 131.001 127.2 131.301 127.7 131.101C128 131.101 127.5 131.501 127.6 131.601C127.8 131.801 127.9 132.101 128.1 132.401C128.3 132.601 128.6 132.801 128.8 133.001C129 133.201 128.8 133.701 129.3 133.801C129.7 133.901 129.3 134.301 129.5 134.501C129.7 134.701 129.9 134.901 129.8 135.201C129.8 135.401 129.6 135.701 129.8 135.801C129.9 135.801 130.2 135.801 130.3 136.001C130.3 136.101 130.1 136.301 130.7 136.201C130.7 136.201 130.7 136.201 130.6 136.301C130.3 136.601 130.3 136.701 130.6 136.701C130.9 136.701 130.9 136.801 130.9 136.901C131 137.201 131.1 137.401 131.1 137.701C131.1 137.901 130.9 138.201 130.9 138.401C130.9 138.601 131.2 138.801 130.9 139.101C130.6 139.301 130.7 139.501 130.7 139.701C130.7 139.801 130.4 140.001 131.1 140.001C130.3 140.401 131.4 140.601 131.1 141.001C130.9 141.301 131.1 141.701 131.1 142.101C131.1 142.101 130.9 142.301 131.4 142.401C131.6 142.401 131.6 142.601 131.4 142.601C130.7 142.801 131.1 143.101 130.9 143.401C130.7 143.701 130.9 144.101 130.4 144.201C130.2 144.201 130 144.401 130.5 144.701C130.7 144.901 130.5 144.901 130.5 145.001C130.5 145.101 130.7 145.301 130.7 145.401C130.7 145.401 130.4 145.401 130.3 145.501C130.7 146.201 129.7 146.301 129.6 146.701C129.6 147.201 129.2 147.601 128.8 147.901C128.6 148.101 128.2 148.201 127.3 147.501C126.9 147.201 126.5 146.801 126.3 146.501C126.2 146.301 126 146.101 126 146.001C126 145.901 126 145.701 126 145.601C126 145.301 125.6 144.901 126 144.901C126.1 144.901 125.9 144.701 126.3 144.901C125.7 144.301 126.3 144.301 126.3 144.001C126.3 143.801 125.8 143.401 126.2 143.201C125.6 142.901 125.8 142.801 126 142.801C126.8 142.601 126.4 142.001 126.5 141.601C126.6 141.201 126.5 140.701 126.5 140.201C126.5 140.201 126.1 140.101 126.5 140.001C126.8 139.901 126.5 139.801 126.5 139.701C126.5 139.701 126.3 139.501 126.5 139.401C127.1 138.901 126.6 138.601 126.5 138.201C126.5 137.801 126.5 137.401 126.1 137.101C125.9 136.901 125.5 136.801 125.5 136.501C125.5 136.401 125.2 136.501 125.7 136.101C125.8 136.101 125.4 136.101 125.3 136.101C125.2 136.001 125.1 135.801 125.1 135.601C125.1 135.401 124.9 135.201 124.8 135.001C124.8 134.901 124.4 134.901 124.3 134.801C124.2 134.701 124.1 134.601 124.1 134.401C124.1 134.201 124.1 133.901 124.1 133.701C124.1 133.501 123.7 133.401 123.9 133.201C124.2 132.701 123.8 132.601 123.7 132.401C123.7 132.201 123.5 132.101 123.4 132.201C123.4 132.001 123.4 131.801 123.4 131.801C123.4 131.801 123.4 131.401 123.4 131.001C123.4 130.601 123.3 130.101 123.3 129.801V129.601C123.6 129.101 124.1 128.401 124.6 128.701C125.3 129.001 125.8 129.301 126.2 129.701L126.3 129.901Z" fill="black"/>
<path d="M112.1 128.898C112.3 128.898 112.4 128.898 112.6 128.798C112.6 128.798 112.8 128.998 112.7 128.498C112.7 128.198 112.9 128.798 112.9 128.798C113 128.698 113.2 128.798 113.3 128.598C113.4 128.598 113.5 128.298 113.6 128.198C113.7 128.198 113.9 128.398 114 127.998C114 127.698 114.3 128.198 114.4 127.998C114.4 127.798 114.6 127.698 114.8 127.998C114.9 128.098 115.1 128.298 115.1 128.198V127.798C115.1 127.798 115.3 128.098 115.1 127.398C115.1 127.398 115.1 127.398 115.1 127.498C115.3 127.898 115.3 127.798 115.3 127.498C115.3 127.198 115.3 127.198 115.3 127.198C115.4 127.198 115.5 127.098 115.7 127.198C115.8 127.198 115.9 127.398 116.1 127.498C116.2 127.498 116.2 127.198 116.4 127.498C116.6 127.798 116.6 127.698 116.7 127.698C116.7 127.698 116.9 127.998 116.7 127.298C117 128.098 116.9 126.998 117.1 127.098C117.3 127.298 117.4 127.098 117.5 127.098C117.5 127.098 117.6 127.298 117.5 126.798C117.5 126.598 117.5 126.598 117.5 126.798C117.8 127.398 117.8 126.998 117.9 127.098C118.1 127.098 118.1 126.898 118.4 127.298C118.5 127.498 118.6 127.598 118.5 126.998C118.5 126.698 118.5 126.998 118.6 126.998V126.698C118.6 126.698 118.7 126.898 118.8 126.998C118.8 126.298 119.2 127.098 119.4 126.898C119.5 126.698 119.7 126.698 120 126.698C120.1 126.698 120.3 126.898 120.6 127.998C120.8 128.498 120.9 128.998 120.9 129.398C120.9 129.598 120.9 129.898 120.9 129.898C120.9 129.998 120.9 130.198 120.9 130.298C120.9 130.498 120.9 131.098 120.7 130.798C120.7 130.798 120.7 130.998 120.5 130.498C120.5 131.298 120.2 130.798 120.1 130.898C120 130.898 120 131.598 119.8 131.398C119.8 131.998 119.8 131.898 119.6 131.798C119.2 131.198 119 131.798 118.7 131.798C118.4 131.798 118.1 131.898 117.8 131.998C117.8 131.998 117.8 132.398 117.7 132.098C117.6 131.898 117.6 132.098 117.5 132.098C117.5 132.098 117.5 132.298 117.3 132.098C116.9 131.498 116.8 131.998 116.5 131.998C116.3 131.998 116 131.998 115.8 132.198C115.7 132.298 115.6 132.698 115.5 132.598C115.5 132.598 115.5 132.898 115.2 132.298C115.2 132.098 115.2 132.598 115.2 132.598C115.2 132.598 115 132.598 114.9 132.598C114.8 132.598 114.6 132.598 114.5 132.698C114.5 132.698 114.5 132.998 114.4 133.098C114.4 133.098 114.3 133.198 114.2 133.098C114.1 133.098 113.9 132.898 113.8 132.798C113.7 132.798 113.6 133.098 113.5 132.798C113.2 132.398 113.1 132.698 112.8 132.698C112.6 132.698 112.4 132.698 112.2 132.898C112.2 132.898 111.9 132.498 111.8 132.598C111.8 132.598 111.3 131.198 111.2 130.698V130.498C111.2 129.998 111.1 129.298 111.2 129.298C111.4 129.298 111.6 129.298 111.7 129.198L112.1 128.898Z" fill="black"/>
<path d="M104.7 138.599C104.5 138.399 104.3 138.099 104.1 137.799C104.1 137.799 104.1 137.499 103.7 137.599C103.4 137.599 103.9 137.299 103.9 137.199C103.7 136.999 103.7 136.699 103.5 136.399C103.3 136.199 103 135.999 102.9 135.699C102.8 135.399 102.9 135.099 102.6 134.899C102.3 134.699 102.7 134.399 102.6 134.199C102.4 133.999 102.4 133.699 102.6 133.499C102.8 133.299 103 133.199 102.9 132.999C102.9 132.899 102.5 132.799 102.6 132.699C102.6 132.599 102.9 132.499 102.3 132.299C102.3 132.299 102.3 132.299 102.5 132.299C102.9 132.299 102.9 132.099 102.7 131.999C102.5 131.899 102.5 131.799 102.5 131.699C102.5 131.499 102.5 131.199 102.7 130.999C102.8 130.799 103.1 130.699 103.2 130.599C103.3 130.499 103.2 130.199 103.5 130.099C103.8 130.099 103.9 129.899 104 129.799C104 129.799 104.3 129.799 103.8 129.399C104.6 129.599 103.8 128.799 104.1 128.699C104.4 128.599 104.4 128.299 104.6 128.099C104.6 128.099 104.8 128.099 104.6 127.799C104.5 127.699 104.6 127.599 104.6 127.699C105.2 127.899 105 127.499 105.3 127.499C105.5 127.499 105.5 126.999 106 127.199C106.2 127.199 106.4 127.199 106 126.799C105.8 126.599 106.1 126.699 106.1 126.599C106.1 126.599 106 126.299 106.1 126.199C106.1 126.199 106.3 126.199 106.5 126.299C106.3 125.599 107.1 125.999 107.3 125.699C107.3 125.499 107.6 125.299 107.7 125.199L110.2 129.099C110.2 129.099 110 129.099 109.9 129.099C109.7 129.099 109.5 129.099 108.9 128.099C108.6 127.699 108.4 127.199 108.3 126.899C108.3 126.699 108.2 126.399 108.2 126.399C108.2 126.299 108.2 126.099 108.2 125.999C108.2 125.899 108.2 125.699 108.2 125.499L110.1 128.499C110.1 128.599 110.1 128.699 109.9 128.699C109.9 128.699 109.9 128.899 109.6 128.599C109.9 129.399 109.4 129.099 109.3 129.299C109.2 129.499 109.5 129.999 109.3 129.999C109.7 130.499 109.5 130.499 109.3 130.399C108.6 130.199 108.7 130.699 108.4 130.899C108.1 131.099 108 131.399 107.9 131.699C107.9 131.699 108.2 131.899 107.9 131.899C107.6 131.899 107.8 131.899 107.8 132.099V132.299C107.1 132.299 107.4 132.699 107.3 132.899C107.2 133.099 107.1 133.299 107.3 133.599C107.3 133.799 107.7 133.899 107.6 133.999C107.6 133.999 107.9 134.099 107.3 134.199C107.1 134.199 107.6 134.199 107.6 134.199C107.6 134.199 107.6 134.399 107.6 134.499C107.6 134.599 107.6 134.799 107.6 134.899C107.6 134.899 107.9 134.899 108 134.999C108 134.999 108 135.099 108 135.199C108 135.299 107.8 135.499 107.8 135.599C107.8 135.699 108.1 135.599 107.8 135.899C107.4 136.299 107.8 136.299 107.8 136.499C107.8 136.699 108 136.799 108.2 136.799C108.3 136.799 108.1 137.299 108.2 137.299C108.2 137.299 108 137.599 107.8 137.999C107.6 138.399 107.4 138.799 107.2 138.999C107.2 138.999 107.1 139.199 107 139.199C106.6 139.499 106 139.999 105.8 139.799C105.6 139.499 105.3 139.299 105 138.999L104.7 138.599Z" fill="black"/>
<path d="M107.7 151.202C107.4 151.202 107.1 151.202 106.9 151.202C106.8 151.202 106.7 150.902 106.5 151.402C106.4 151.602 106.5 151.002 106.3 151.002C106 151.002 105.8 150.802 105.5 150.802C105.2 150.802 104.9 150.802 104.6 150.802C104.3 150.802 104.2 150.402 103.9 150.502C103.6 150.602 103.7 150.102 103.4 150.102C103.1 150.102 102.9 150.002 102.9 149.702C102.9 149.502 102.9 149.202 102.7 149.202C102.6 149.202 102.3 149.402 102.2 149.202C102.2 149.202 102.2 148.802 101.7 149.202C101.7 149.202 101.7 149.202 101.7 149.002C101.9 148.602 101.8 148.602 101.5 148.702C101.2 148.802 101.2 148.702 101.1 148.702C100.9 148.502 100.7 148.402 100.7 148.102C100.7 147.902 100.7 147.602 100.7 147.502C100.7 147.302 100.3 147.302 100.5 147.002C100.7 146.702 100.6 146.602 100.5 146.402C100.5 146.402 100.7 146.102 100.1 146.302C100.8 145.802 99.7004 145.902 99.8004 145.602C99.9004 145.302 99.8004 145.102 99.6004 144.802C99.6004 144.802 99.7004 144.602 99.3004 144.602C99.1004 144.602 99.1004 144.602 99.3004 144.502C99.9004 144.202 99.5004 144.002 99.6004 143.802C99.7004 143.602 99.4004 143.302 99.9004 143.102C100.1 143.002 100.2 142.902 99.6004 142.702C99.3004 142.702 99.6004 142.502 99.6004 142.402L99.3004 142.202C99.3004 142.202 99.5004 142.102 99.7004 142.002C99.1004 141.602 100 141.302 99.9004 141.002C99.8004 140.602 99.9004 140.302 100.2 140.002C100.3 139.802 100.6 139.702 101.7 140.002C102.2 140.202 102.7 140.402 103 140.602C103.2 140.702 103.4 140.902 103.4 140.902C103.4 140.902 103.6 141.102 103.6 141.202C103.7 141.402 104.2 141.602 103.9 141.702C103.9 141.702 104.1 141.802 103.6 141.702C104.3 142.002 103.8 142.102 103.8 142.302C103.8 142.502 104.5 142.602 104.2 142.702C104.8 142.702 104.7 142.902 104.5 142.902C103.8 143.202 104.3 143.402 104.3 143.702C104.3 144.002 104.4 144.202 104.5 144.502C104.5 144.502 104.9 144.502 104.6 144.502C104.4 144.702 104.6 144.602 104.6 144.702C104.6 144.702 104.8 144.702 104.6 144.902C104.1 145.402 104.6 145.402 104.6 145.602C104.6 145.802 104.8 146.002 105.1 146.102C105.3 146.102 105.6 145.902 105.6 146.102C105.6 146.102 105.9 145.902 105.6 146.402C105.6 146.502 105.8 146.202 105.9 146.202C105.9 146.202 106.1 146.202 106.1 146.302C106.1 146.302 106.3 146.502 106.4 146.502L106.7 146.302H106.9C106.9 146.402 106.9 146.602 107.1 146.702C107.1 146.702 107.4 146.502 107.4 146.802C107.4 147.302 107.7 147.102 107.9 147.202C108.1 147.202 108.3 147.302 108.5 147.202C108.5 147.202 108.7 147.602 108.8 147.602C108.8 147.602 109.1 149.102 109.1 149.602V149.802C109 150.302 108.9 151.002 108.6 151.002C108.3 151.002 108 151.002 107.6 151.002L107.7 151.202Z" fill="black"/>
<path d="M116.4 162.098C115.9 162.198 115.5 162.198 115.1 162.298C114.9 162.298 114.8 162.098 114.6 162.598C114.6 162.898 114.4 162.198 114.2 162.198C113.8 162.198 113.5 162.198 113.2 162.198C112.9 162.198 112.5 162.398 112.2 162.398C111.9 162.398 111.6 162.098 111.3 162.398C111 162.598 110.9 162.098 110.6 162.198C110.3 162.198 110 162.198 109.8 161.998C109.7 161.798 109.5 161.498 109.3 161.598C109.2 161.598 109 161.898 108.9 161.898C108.8 161.898 108.7 161.498 108.5 162.098C108.5 162.098 108.5 162.098 108.5 161.898C108.5 161.498 108.3 161.498 108.2 161.698C108 161.898 107.9 161.898 107.8 161.798C107.5 161.798 107.3 161.698 107 161.498C106.8 161.398 106.7 161.098 106.6 160.998C106.4 160.898 106.1 160.998 106.1 160.698C106.1 160.298 105.9 160.298 105.7 160.198C105.7 160.198 105.7 159.798 105.3 160.398C105.3 159.498 104.6 160.398 104.4 160.098C104.2 159.798 103.8 159.798 103.5 159.598C103.5 159.598 103.5 159.398 103.1 159.698C103 159.798 102.9 159.798 102.9 159.698C102.9 158.998 102.6 159.198 102.4 158.998C102.2 158.698 101.7 158.798 101.7 158.198C101.7 157.898 101.7 157.698 101.1 157.998C100.8 158.098 100.9 157.798 100.7 157.698C100.6 157.698 100.3 157.698 100.2 157.698C100.2 157.698 100.2 157.398 100.2 157.198C99.6996 157.198 99.5996 156.698 99.5996 156.398C99.5996 155.998 99.5996 155.698 99.4996 155.298C99.1996 154.598 99.2996 153.798 99.6996 152.998C99.8996 152.598 100.4 152.198 101.4 152.698C101.9 152.898 102.3 153.298 102.5 153.598C102.7 153.798 102.8 153.898 102.9 153.998C102.9 153.998 103.1 154.198 103.2 154.198C103.4 154.298 103.9 154.398 103.6 154.398C103.6 154.398 103.8 154.398 103.3 154.398C103.7 154.398 103.8 154.398 103.8 154.398V154.598C103.9 154.598 104.5 154.398 104.3 154.598C104.8 154.198 104.8 154.298 104.7 154.598C104.6 155.298 105.2 155.198 105.6 155.498C106 155.798 106.6 155.998 107 156.198C107 156.198 107.3 155.898 107.3 156.198C107.3 156.498 107.5 156.298 107.6 156.398C107.6 156.398 107.9 156.398 107.9 156.498C108 157.298 108.6 157.098 109 157.298C109.4 157.498 109.8 157.698 110.2 157.598C110.5 157.598 110.8 157.298 111 157.498C111 157.498 111.3 157.298 111.3 157.898C111.3 158.098 111.5 157.698 111.6 157.598C111.8 157.598 111.9 157.598 112.1 157.598C112.3 157.598 112.6 157.698 112.8 157.698C113 157.698 113.1 157.498 113.3 157.398C113.5 157.398 113.6 157.398 113.8 157.398C114 157.498 114.2 157.698 114.3 157.798C114.5 157.798 114.7 157.598 114.8 157.798C115.1 158.298 115.4 157.998 115.6 158.098C115.8 158.098 116 158.098 116 157.998L116.3 158.298C116.3 158.298 116.6 158.498 117 158.698C117.4 158.898 117.8 159.098 118.1 159.198C118.1 159.198 118.3 159.298 118.3 159.398C118.6 159.898 118.9 160.698 118.4 160.998C117.8 161.398 117.2 161.698 116.7 161.798L116.4 162.098Z" fill="black"/>
</svg>
