<svg width="300" height="300" viewBox="0 0 300 300" fill="none" xmlns="http://www.w3.org/2000/svg">
<path d="M184.099 141C183.699 140.6 183.399 140.2 182.999 139.8C182.799 139.7 182.999 139.3 182.399 139.6C182.099 139.7 182.399 139.1 182.399 139C181.999 138.7 181.699 138.3 181.299 137.9C180.899 137.6 180.399 137.4 180.099 137.1C179.699 136.8 179.599 136.2 179.099 136.1C178.599 136 178.699 135.4 178.399 135.2C177.999 135 177.699 134.7 177.599 134.3C177.599 134 177.499 133.6 177.199 133.5C176.999 133.5 176.699 133.5 176.599 133.4C176.499 133.3 176.599 132.9 175.999 133.2C175.999 133.2 175.999 133.1 175.999 133C176.199 132.6 175.999 132.4 175.699 132.5C175.399 132.5 175.299 132.5 175.199 132.3C174.899 132 174.599 131.7 174.399 131.4C174.199 131.1 174.199 130.8 173.999 130.5C173.799 130.2 173.399 130.2 173.399 129.7C173.399 129.3 173.199 129.1 172.999 128.9C172.899 128.8 172.999 128.4 172.399 128.8C172.699 127.9 171.599 128.3 171.399 127.8C171.199 127.3 170.799 127 170.399 126.7C170.399 126.7 170.399 126.4 169.899 126.7C169.799 126.7 169.599 126.7 169.699 126.6C169.899 125.9 169.399 125.9 169.199 125.5C168.999 125.1 168.499 125 168.499 124.3C168.499 124 168.499 123.8 167.899 124C167.599 124.1 167.699 123.8 167.499 123.7C167.399 123.7 167.099 123.7 166.999 123.7C166.999 123.7 166.999 123.4 166.999 123.2C166.099 123.2 166.299 122.1 165.699 121.8C165.099 121.5 164.699 120.9 164.399 120.4C164.199 120.1 164.099 119.7 164.799 118.8C165.099 118.4 165.499 118 165.799 117.9C166.099 117.9 166.299 117.8 166.399 117.9C166.599 117.9 166.799 118 166.999 118.1C167.399 118.3 168.099 118.1 168.199 118.7C168.199 118.9 168.599 118.7 168.199 119.2V119.3C169.199 119.2 169.199 120 169.599 120.3C169.999 120.6 170.799 120.5 170.899 121.1C171.499 120.9 171.699 121.1 171.699 121.5C171.899 122.7 172.899 123.1 173.499 123.8C174.099 124.6 174.799 125.2 175.499 126C175.599 126.1 175.999 126 175.899 126.3C175.899 126.6 176.099 126.6 176.299 126.8C176.399 126.9 176.699 127 176.699 127.2C176.699 128.2 177.599 128.5 177.999 129.1C178.499 129.7 178.999 130.3 179.599 130.8C179.999 131.1 180.599 131.2 180.799 131.6C180.799 131.8 181.299 131.7 180.999 132.3C180.999 132.5 181.399 132.3 181.499 132.3C181.799 132.5 181.999 132.8 182.199 133C182.499 133.3 182.799 133.7 183.099 134C183.299 134.2 183.699 134.2 183.899 134.4C184.099 134.6 184.299 134.8 184.499 135C184.699 135.3 184.799 135.7 184.999 136C185.199 136.3 185.699 136.4 185.699 136.9C185.699 137.7 186.399 138 186.799 138.6C187.199 139.1 187.599 139.6 188.199 140C188.499 140.2 188.399 140.8 188.599 141.1C188.699 141.2 187.799 142.4 187.399 142.7L187.199 142.8C186.599 142.8 185.899 143.1 185.599 142.8C185.199 142.3 184.799 141.9 184.399 141.5L184.099 141Z" fill="black"/>
<path d="M132.2 114.201C131.7 114.401 131.2 114.601 130.7 114.801C130.5 114.801 130.2 114.801 130.2 115.301C130.2 115.601 129.8 115.101 129.6 115.201C129.2 115.501 128.7 115.601 128.2 115.801C127.8 116.101 127.4 116.401 127 116.701C126.6 117.001 126 116.901 125.7 117.401C125.5 117.801 124.9 117.501 124.6 117.801C124.3 118.101 123.9 118.301 123.5 118.301C123.2 118.301 122.8 118.301 122.6 118.401C122.5 118.501 122.5 118.901 122.3 119.001C122.1 119.001 121.8 119.001 122 119.501C122 119.501 121.9 119.501 121.8 119.501C121.4 119.201 121.2 119.401 121.2 119.701C121.2 120.001 121.1 120.001 120.9 120.101C120.6 120.301 120.2 120.501 119.9 120.701C119.6 120.801 119.2 120.701 119 120.901C118.7 121.001 118.6 121.401 118.2 121.301C117.8 121.201 117.6 121.301 117.5 121.501C117.5 121.501 117.1 121.501 117.5 121.901C116.6 121.701 117.2 122.601 116.9 122.801C116.5 123.001 116.4 123.501 116.3 123.901C116.3 124.001 116 124.001 116.4 124.301C116.5 124.301 116.5 124.501 116.4 124.501C115.7 124.501 115.9 125.001 115.7 125.301C115.5 125.601 115.7 126.101 115.1 126.301C114.9 126.401 114.7 126.601 115.2 126.901C115.4 127.001 115.2 127.201 115.2 127.301C115.2 127.401 115.5 127.601 115.5 127.701C115.5 127.701 115.2 127.901 115.1 127.901C115.7 128.601 114.7 129.001 114.8 129.701C114.9 130.301 114.8 130.901 114.7 131.601C114.7 131.901 114.4 132.301 113.3 132.501C112.8 132.501 112.2 132.501 111.9 132.501C111.7 132.401 111.4 132.201 111.4 132.101C111.4 131.901 111.2 131.701 111.1 131.501C110.9 131.101 110.4 130.601 110.7 130.201C110.7 130.101 110.5 129.901 111 129.801C110.3 129.101 110.8 128.501 110.9 127.901C110.9 127.401 110.4 126.701 110.8 126.201C110.2 125.801 110.4 125.401 110.7 125.201C111.6 124.301 111.5 123.101 112.1 122.101C112.7 121.101 113.2 120.001 114.1 119.101C114.2 118.901 114.1 118.501 114.6 118.501C114.8 118.501 114.9 118.501 115 118.301C115 118.301 115.2 118.101 115.3 118.001C115.5 117.901 115.6 117.601 115.9 117.601C117 117.601 117.5 116.901 118.2 116.501C118.9 116.201 119.7 115.801 120.3 115.301C120.7 115.001 121 114.501 121.5 114.401C121.7 114.401 121.8 114.001 122.2 114.401C122.3 114.501 122.3 114.001 122.4 114.001C122.7 113.801 123 113.701 123.3 113.601C123.7 113.401 124.2 113.301 124.6 113.001C124.8 112.901 125 112.501 125.2 112.301C125.4 112.101 125.7 112.001 126 111.901C126.4 111.901 126.8 111.901 127.2 111.801C127.6 111.801 127.8 111.301 128.3 111.401C129.1 111.601 129.7 111.101 130.3 110.901C131 110.701 131.6 110.501 132.2 110.101C132.6 109.901 133.1 110.301 133.4 110.101C133.6 110.101 134.2 111.401 134.3 111.901V112.101C134.1 112.701 134 113.401 133.6 113.501C133 113.601 132.5 113.901 131.9 114.101L132.2 114.201Z" fill="black"/>
<path d="M166.1 147.302C166.5 147.102 166.8 147.002 167.2 146.702C167.3 146.702 167.6 146.702 167.5 146.202C167.5 145.902 167.9 146.402 168 146.402C168.3 146.202 168.7 146.102 169 145.902C169.3 145.702 169.5 145.302 169.8 145.102C170.1 144.902 170.6 145.102 170.8 144.602C171 144.202 171.4 144.602 171.6 144.302C171.8 144.102 172.1 143.902 172.5 144.002C172.8 144.002 173.1 144.202 173.2 144.002C173.2 143.902 173.2 143.502 173.4 143.502C173.5 143.502 173.8 143.702 173.7 143.002C173.7 143.002 173.7 143.002 173.9 143.002C174.2 143.302 174.4 143.202 174.4 143.002C174.4 142.702 174.5 142.702 174.6 142.602C174.9 142.502 175.2 142.302 175.5 142.302C175.7 142.302 176 142.302 176.3 142.302C176.5 142.302 176.7 141.902 177 142.102C177.3 142.302 177.5 142.202 177.7 142.102C177.8 142.102 178.1 142.302 177.9 141.602C178.5 142.302 178.5 141.102 178.9 141.202C179.3 141.202 179.6 141.002 180 140.902C180 140.902 180.3 141.002 180.2 140.502C180.2 140.302 180.2 140.302 180.4 140.402C180.9 140.902 181 140.402 181.3 140.402C181.6 140.402 181.9 140.002 182.3 140.402C182.5 140.602 182.7 140.602 182.7 140.002C182.7 139.702 182.9 140.002 183 139.802C183 139.802 183 139.402 183.2 139.402C183.2 139.402 183.4 139.602 183.5 139.702C183.8 138.902 184.5 139.702 184.9 139.302C185.3 139.002 185.8 138.902 186.3 138.902C186.6 138.902 186.9 138.902 187.4 140.002C187.6 140.502 187.8 141.002 187.7 141.402C187.7 141.702 187.7 141.902 187.6 142.002C187.5 142.102 187.4 142.302 187.3 142.402C187.1 142.702 186.9 143.302 186.6 143.102C186.5 143.102 186.5 143.402 186.2 142.902C186 143.802 185.5 143.402 185.1 143.602C184.8 143.802 184.6 144.502 184.2 144.302C184.2 145.002 184 144.902 183.7 144.802C182.8 144.402 182.3 145.002 181.6 145.202C180.9 145.302 180.3 145.702 179.6 145.902C179.5 145.902 179.6 146.302 179.3 146.102C179.1 145.902 179 146.102 178.8 146.202C178.7 146.202 178.6 146.402 178.4 146.302C177.6 145.902 177.3 146.502 176.7 146.602C176.2 146.702 175.6 146.902 175.2 147.302C174.9 147.502 174.8 148.002 174.4 148.002C174.2 148.002 174.2 148.402 173.9 147.902C173.8 147.802 173.9 148.202 173.8 148.302C173.6 148.402 173.4 148.502 173.2 148.602C172.9 148.702 172.6 148.802 172.3 149.002C172.1 149.102 172.1 149.402 171.9 149.602C171.7 149.702 171.6 149.802 171.3 149.902C171 149.902 170.7 149.902 170.4 149.902C170.1 149.902 170 150.302 169.6 150.202C168.9 150.002 168.6 150.402 168.2 150.602C167.7 150.802 167.3 150.902 166.9 151.302C166.7 151.502 166.2 151.202 166 151.302C165.9 151.302 165.1 150.102 164.9 149.702V149.502C164.9 149.002 164.8 148.202 165.1 148.102C165.5 148.002 165.9 147.702 166.3 147.502L166.1 147.302Z" fill="black"/>
<path d="M168.6 166.202C168.6 165.902 168.5 165.502 168.3 165.202C168.3 165.102 168.5 164.902 167.9 164.902C167.6 164.902 168.2 164.602 168.2 164.502C168.1 164.202 168.1 163.902 167.9 163.602C167.8 163.302 167.5 163.102 167.3 162.802C167.2 162.502 167.3 162.102 167 161.902C166.7 161.702 167.1 161.402 167 161.202C166.8 161.002 166.7 160.702 166.8 160.402C166.9 160.202 167.1 160.002 166.9 159.802C166.9 159.802 166.5 159.702 166.5 159.602C166.5 159.502 166.7 159.302 166.1 159.302C166.1 159.302 166.1 159.302 166.2 159.202C166.6 159.002 166.5 158.802 166.2 158.802C165.9 158.802 165.9 158.702 165.9 158.602C165.9 158.402 165.7 158.102 165.7 157.902C165.7 157.702 165.9 157.502 165.9 157.302C165.9 157.102 165.6 157.002 165.9 156.702C166.2 156.402 166.1 156.302 166 156.102C166 156.102 166.2 155.802 165.6 155.902C166.3 155.402 165.2 155.402 165.3 155.102C165.4 154.802 165.3 154.502 165.1 154.202C165.1 154.202 165.2 154.002 164.8 154.002C164.6 154.002 164.6 154.002 164.7 153.902C165.2 153.502 164.8 153.402 164.9 153.102C164.9 152.802 164.6 152.602 164.9 152.202C165.1 152.002 165.1 151.902 164.5 151.902C164.2 151.902 164.5 151.702 164.4 151.602C164.4 151.602 164 151.602 164 151.502C164 151.502 164.2 151.302 164.3 151.202C163.6 151.002 164.3 150.402 164 150.102C163.7 149.802 163.7 149.402 163.6 149.002C163.6 148.802 163.6 148.502 164.7 148.002C165.2 147.802 165.7 147.602 166 147.602C166.2 147.602 166.5 147.602 166.6 147.602C166.7 147.602 166.9 147.802 167 147.902C167.3 148.102 167.9 148.202 167.7 148.502C167.7 148.602 168 148.602 167.5 148.802C168.4 148.902 168 149.402 168.1 149.802C168.2 150.102 168.9 150.202 168.7 150.602C169.4 150.602 169.3 150.802 169.2 151.002C168.7 151.802 169.3 152.202 169.4 152.902C169.4 153.502 169.7 154.102 169.8 154.702C169.8 154.802 170.2 154.802 170 155.002C169.8 155.202 170 155.302 170 155.402C170 155.502 170.2 155.602 170 155.802C169.5 156.402 170 156.802 170 157.302C170 157.802 170 158.302 170.4 158.702C170.6 159.002 171 159.202 170.9 159.502C170.9 159.602 171.2 159.702 170.7 159.902C170.5 159.902 171 159.902 171.1 160.102C171.1 160.302 171.2 160.502 171.3 160.702C171.3 161.002 171.3 161.302 171.5 161.502C171.5 161.702 171.9 161.802 172 161.902C172.1 162.102 172.1 162.202 172.1 162.402C172.1 162.602 171.9 162.902 171.9 163.102C171.9 163.302 172.2 163.502 172 163.802C171.6 164.302 172 164.702 172 165.102C172 165.502 172.1 165.902 172.3 166.302C172.4 166.502 172 166.802 172.1 167.102C172.1 167.102 170.7 167.702 170.2 167.802H170C169.5 167.802 168.7 167.802 168.7 167.402C168.7 167.002 168.5 166.702 168.4 166.302L168.6 166.202Z" fill="black"/>
<path d="M162.2 186.199C162.3 185.799 162.5 185.399 162.5 184.999C162.5 184.799 162.8 184.799 162.4 184.499C162.2 184.299 162.8 184.399 162.8 184.199C162.8 183.799 163.1 183.499 163.1 183.099C163.1 182.699 163.1 182.299 163.1 181.899C163.1 181.499 163.6 181.299 163.4 180.799C163.2 180.399 163.8 180.299 163.8 179.999C163.8 179.699 163.8 179.299 164.1 179.099C164.3 178.899 164.6 178.799 164.6 178.599C164.6 178.399 164.3 178.199 164.4 178.099C164.4 177.999 164.8 177.899 164.2 177.599C164.2 177.599 164.2 177.599 164.4 177.599C164.8 177.599 164.9 177.399 164.6 177.199C164.4 176.999 164.5 176.899 164.5 176.799C164.5 176.499 164.6 176.199 164.8 175.899C164.9 175.699 165.2 175.599 165.4 175.399C165.5 175.199 165.4 174.899 165.7 174.699C166.1 174.599 166.1 174.399 166.2 174.199C166.2 174.099 166.6 173.999 166 173.699C166.9 173.699 166 172.999 166.3 172.699C166.6 172.399 166.6 171.999 166.7 171.699C166.7 171.699 166.9 171.599 166.5 171.299C166.4 171.299 166.4 171.099 166.5 171.099C167.2 171.099 166.9 170.599 167.1 170.399C167.3 170.099 167.1 169.699 167.7 169.599C167.9 169.599 168.1 169.399 167.6 169.099C167.4 168.899 167.6 168.899 167.6 168.799C167.6 168.699 167.3 168.499 167.4 168.399C167.4 168.399 167.7 168.399 167.8 168.299C167.3 167.699 168.3 167.499 168.2 166.999C168.2 166.699 168.2 166.599 168.2 166.299C168.2 165.999 168.4 165.699 168.6 165.299C168.8 164.899 169.3 164.499 170.4 165.099C170.9 165.299 171.3 165.699 171.5 165.999C171.6 166.199 171.8 166.399 171.8 166.499C171.8 166.599 171.9 166.799 172 166.899C172.1 167.099 172.6 167.399 172.2 167.699C172.1 167.699 172.3 167.999 171.8 167.899C172.5 168.499 171.8 168.899 171.8 169.299C171.8 169.699 172.2 170.199 171.8 170.499C172.3 170.899 172.2 171.099 171.9 171.199C171 171.699 171.2 172.499 170.9 173.199C170.6 173.899 170.4 174.599 170.1 175.299C170.1 175.399 170.4 175.599 170.1 175.699C169.8 175.699 169.9 175.999 169.9 176.099C169.9 176.199 169.9 176.399 169.7 176.499C168.9 176.799 169.1 177.499 168.8 177.999C168.5 178.499 168.3 178.999 168.3 179.599C168.3 179.999 168.5 180.399 168.3 180.699C168.2 180.799 168.5 181.099 167.9 180.999C167.7 180.999 168.1 181.299 168.1 181.399C168.1 181.599 168 181.899 167.9 182.099C167.8 182.399 167.6 182.699 167.6 183.099C167.6 183.299 167.7 183.599 167.7 183.799C167.7 183.999 167.7 184.199 167.5 184.399C167.3 184.599 167.1 184.799 166.9 185.099C166.8 185.299 166.9 185.699 166.6 185.899C166 186.199 166.1 186.799 165.9 187.199C165.7 187.599 165.5 188.099 165.5 188.599C165.5 188.899 165 188.999 164.9 189.199C164.9 189.299 163.4 189.199 162.9 188.999H162.7C162.3 188.599 161.7 188.199 161.8 187.899C162 187.399 162.1 186.999 162.2 186.499V186.199Z" fill="black"/>
<path d="M151 135.801C151 136.001 150.9 136.101 150.9 136.301C150.9 136.301 150.6 136.301 151.1 136.601C151.4 136.601 150.7 136.601 150.7 136.601C150.7 136.801 150.7 136.901 150.7 137.101C150.7 137.301 150.9 137.501 150.9 137.601C150.9 137.801 150.6 137.901 150.9 138.101C151.2 138.301 150.6 138.301 150.7 138.401C150.8 138.601 150.9 138.701 150.7 138.801C150.5 138.801 150.3 138.901 150.4 139.001C150.4 139.001 150.8 139.201 150.7 139.201C150.7 139.201 150.4 139.201 151 139.401C151 139.401 151 139.401 150.8 139.401C150.4 139.401 150.4 139.401 150.7 139.601C151 139.601 150.9 139.701 150.9 139.801C150.9 139.901 150.9 140.101 150.9 140.201C150.9 140.201 150.6 140.401 150.5 140.501C150.5 140.501 150.7 140.701 150.4 140.801C150.1 140.801 150.1 141.001 150.1 141.101C150.1 141.101 149.8 141.201 150.4 141.301C149.6 141.401 150.6 141.601 150.4 141.801C150.2 142.001 150.4 142.101 150.4 142.301C150.4 142.301 150.2 142.301 150.7 142.401C150.9 142.401 150.9 142.401 150.7 142.401C150.1 142.501 150.5 142.601 150.3 142.801C150.2 142.901 150.5 143.101 150 143.201C149.8 143.201 149.7 143.401 150.3 143.401C150.6 143.401 150.3 143.501 150.3 143.601C150.3 143.601 150.6 143.601 150.6 143.701C150.6 143.701 150.4 143.701 150.3 143.801C151 144.001 150.1 144.201 150.3 144.401C150.5 144.601 150.4 144.801 150.3 145.001C150.3 145.101 150.1 145.301 148.9 145.401C148.4 145.401 147.8 145.501 147.5 145.501C147.3 145.501 147 145.501 147 145.501C146.9 145.501 146.8 145.401 146.7 145.301C146.5 145.201 145.9 145.101 146.2 144.901C146.2 144.901 146 144.901 146.5 144.701C145.7 144.501 146.2 144.301 146.1 144.101C146.1 143.901 145.4 143.801 145.7 143.601C145.1 143.601 145.2 143.401 145.4 143.301C146.1 142.901 145.6 142.601 145.7 142.201C145.7 141.801 145.7 141.501 145.7 141.101C145.7 141.101 145.4 141.001 145.7 140.901C146 140.901 145.7 140.701 145.7 140.701C145.7 140.701 145.6 140.501 145.7 140.501C146.4 140.301 146 139.901 146.1 139.701C146.2 139.401 146.3 139.101 146.1 138.801C146.1 138.601 145.7 138.401 145.9 138.201C145.9 138.201 145.6 138.001 146.2 138.001C146.4 138.001 145.9 137.901 145.9 137.801C145.9 137.701 145.9 137.601 145.9 137.401C145.9 137.201 146 137.101 145.9 136.901C145.9 136.801 145.7 136.601 145.6 136.501C145.6 136.401 145.6 136.301 145.6 136.201C145.7 136.101 145.9 136.001 146 135.901C146 135.801 145.9 135.601 146.2 135.501C146.8 135.401 146.6 135.101 146.7 134.801C146.8 134.601 146.9 134.401 146.9 134.101C146.9 133.901 147.4 134.001 147.4 133.801C147.4 133.801 148.9 134.101 149.3 134.201H149.5C149.9 134.501 150.6 134.801 150.5 134.901C150.4 135.101 150.4 135.301 150.3 135.501L151 135.801Z" fill="black"/>
<path d="M162.3 135.801C162.3 136.001 162.2 136.101 162.2 136.301C162.2 136.301 161.9 136.301 162.4 136.601C162.7 136.601 162 136.601 162 136.601C162 136.801 162 136.901 162 137.101C162 137.301 162.2 137.501 162.2 137.601C162.2 137.801 161.9 137.901 162.2 138.101C162.5 138.301 161.9 138.301 162 138.401C162.1 138.601 162.2 138.701 162 138.801C161.8 138.801 161.6 138.901 161.7 139.001C161.7 139.001 162.1 139.201 162 139.201C162 139.201 161.7 139.201 162.3 139.401C162.3 139.401 162.3 139.401 162.1 139.401C161.7 139.401 161.7 139.401 162 139.601C162.3 139.601 162.2 139.701 162.2 139.801C162.2 139.901 162.2 140.101 162.2 140.201C162.2 140.201 161.9 140.401 161.8 140.501C161.8 140.501 162 140.701 161.7 140.801C161.4 140.801 161.4 141.001 161.4 141.101C161.4 141.101 161.1 141.201 161.7 141.301C160.9 141.401 161.9 141.601 161.7 141.801C161.5 142.001 161.7 142.101 161.7 142.301C161.7 142.301 161.5 142.301 162 142.401C162.2 142.401 162.2 142.401 162 142.401C161.4 142.501 161.8 142.601 161.6 142.801C161.5 142.901 161.8 143.101 161.3 143.201C161.1 143.201 161 143.401 161.6 143.401C161.9 143.401 161.6 143.501 161.6 143.601C161.6 143.601 161.9 143.601 161.9 143.701C161.9 143.701 161.7 143.701 161.6 143.801C162.3 144.001 161.4 144.201 161.6 144.401C161.8 144.601 161.7 144.801 161.6 145.001C161.6 145.101 161.4 145.301 160.2 145.401C159.7 145.401 159.1 145.501 158.8 145.501C158.6 145.501 158.3 145.501 158.3 145.501C158.2 145.501 158.1 145.401 158 145.301C157.8 145.201 157.2 145.101 157.5 144.901C157.5 144.901 157.3 144.901 157.8 144.701C157 144.501 157.5 144.301 157.4 144.101C157.4 143.901 156.7 143.801 157 143.601C156.4 143.601 156.5 143.401 156.7 143.301C157.4 142.901 156.9 142.601 157 142.201C157 141.801 157 141.501 157 141.101C157 141.101 156.7 141.001 157 140.901C157.3 140.901 157 140.701 157 140.701C157 140.701 156.9 140.501 157 140.501C157.7 140.301 157.3 139.901 157.4 139.701C157.5 139.401 157.6 139.101 157.4 138.801C157.4 138.601 157 138.401 157.2 138.201C157.2 138.201 156.9 138.001 157.5 138.001C157.7 138.001 157.2 137.901 157.2 137.801C157.2 137.701 157.2 137.601 157.2 137.401C157.2 137.201 157.3 137.101 157.2 136.901C157.2 136.801 157 136.601 156.9 136.501C156.9 136.401 156.9 136.301 156.9 136.201C157 136.101 157.2 136.001 157.3 135.901C157.3 135.801 157.2 135.601 157.5 135.501C158.1 135.401 157.9 135.101 158 134.801C158.1 134.601 158.2 134.401 158.2 134.101C158.2 133.901 158.7 134.001 158.7 133.801C158.7 133.801 160.2 134.101 160.6 134.201H160.8C161.2 134.501 161.9 134.801 161.8 134.901C161.7 135.101 161.7 135.301 161.6 135.501L162.3 135.801Z" fill="black"/>
<path d="M162.6 169.701C162.4 169.701 162.1 169.801 161.9 169.901C161.9 169.901 161.7 169.701 161.7 170.301C161.7 170.601 161.5 170.001 161.4 170.001C161.2 170.101 160.9 170.001 160.7 170.201C160.5 170.201 160.3 170.601 160 170.601C159.8 170.601 159.5 170.401 159.3 170.701C159.1 171.001 158.9 170.501 158.7 170.701C158.5 170.801 158.3 170.901 158.1 170.701C158 170.501 157.8 170.301 157.7 170.401C157.7 170.401 157.5 170.801 157.4 170.701C157.4 170.701 157.2 170.401 157.1 171.001C157.1 171.001 157.1 171.001 157.1 170.801C157.1 170.401 156.9 170.401 156.8 170.701C156.7 171.001 156.6 170.901 156.5 170.901C156.3 170.901 156.1 170.901 155.9 170.901C155.8 170.901 155.7 170.601 155.5 170.501C155.4 170.501 155.1 170.701 155.1 170.301C155.1 170.001 154.9 169.901 154.8 169.901C154.8 169.901 154.8 169.601 154.5 170.201C154.5 169.401 154 170.301 153.8 170.001C153.6 169.701 153.4 169.801 153.1 169.701C153.1 169.701 153.1 169.501 152.8 169.901C152.8 170.001 152.6 170.001 152.7 169.901C152.7 169.201 152.5 169.501 152.3 169.401C152.2 169.201 151.8 169.401 151.9 168.801C151.9 168.601 151.9 168.401 151.5 168.801C151.3 169.001 151.4 168.801 151.3 168.801L151 169.001C151 169.001 151 168.701 151 168.601C150.4 169.001 150.6 168.101 150.3 168.001C149.9 168.001 149.7 167.701 149.5 167.401C149.5 167.201 149.4 167.001 150.1 166.101C150.4 165.701 150.8 165.301 151.1 165.101C151.3 165.001 151.5 164.801 151.6 164.801C151.7 164.801 151.9 164.801 152 164.701C152.2 164.701 152.7 164.301 152.6 164.701C152.6 164.701 152.8 164.601 152.6 165.001C153.2 164.501 153.1 165.001 153.3 165.001C153.5 165.001 153.9 164.601 153.9 165.001C154.3 164.501 154.3 164.601 154.3 164.801C154.3 165.501 154.8 165.301 155 165.501C155.3 165.701 155.6 165.701 155.9 165.901C155.9 165.901 156.1 165.601 156.1 165.901C156.1 166.201 156.2 165.901 156.3 166.001H156.5C156.6 166.701 157 166.401 157.2 166.501C157.5 166.501 157.7 166.701 158 166.501C158.2 166.501 158.3 166.101 158.5 166.201C158.5 166.201 158.6 165.901 158.7 166.501C158.7 166.701 158.7 166.201 158.8 166.201C158.9 166.201 159 166.201 159.1 166.201C159.2 166.201 159.4 166.201 159.5 166.201C159.5 166.201 159.7 165.901 159.7 165.801C159.7 165.801 159.9 165.801 160 165.801C160.1 165.801 160.3 166.001 160.4 166.101C160.5 166.101 160.6 165.801 160.8 166.101C161.1 166.501 161.3 166.201 161.5 166.201C161.7 166.201 162 166.201 162.1 166.001C162.1 165.901 162.5 166.301 162.6 166.301C162.6 166.301 163.3 167.601 163.5 168.101V168.301C163.5 168.801 163.7 169.501 163.5 169.501C163.2 169.501 162.9 169.701 162.7 169.801L162.6 169.701Z" fill="black"/>
<path d="M135.6 144.602C136.2 146.602 136.2 148.502 136.3 150.202C136.3 150.902 136.1 151.502 136.6 152.202C136.9 152.602 136.2 153.202 136.2 153.802C136.2 155.502 135.9 157.202 135.6 158.902C135.3 160.602 134.9 162.302 134.2 163.902C133.4 165.502 132.1 166.902 131.1 168.302C130.1 169.602 128.7 170.002 127.5 170.702C126.2 171.502 124.7 172.102 123.2 172.202C122.1 172.202 121 172.202 120 172.202C119.4 172.202 118.7 172.602 118 172.502C117.3 172.502 116.6 172.002 116 172.502C116 172.502 115.7 172.402 115.5 172.302C114.9 171.702 114.1 171.502 113.4 171.602C112.8 171.602 112.3 171.502 111.8 171.302C110.4 170.802 109.1 170.102 107.8 169.202C106.9 168.502 106.1 167.602 105.3 166.702C104.5 165.802 103.5 164.802 103.2 163.602C102.9 162.502 102.6 161.502 102.3 160.502C102.1 159.902 102.3 159.202 101.5 158.902C101.5 158.902 101.4 158.602 101.5 158.502C102 156.702 100.8 155.302 101 153.702C101.1 152.102 101 150.402 101 148.602C101 148.102 101.3 147.602 100.9 147.102C100.8 146.902 100.9 146.402 100.9 146.202C101.8 145.002 101.9 143.502 102.6 142.202C103.4 140.802 104.2 139.302 105.6 138.502C106.2 138.102 106.9 137.602 107.2 136.702C107.3 136.302 108.1 136.002 108.6 135.602C109 135.302 109.2 134.802 109.7 134.602C110.1 134.402 110.5 134.402 111 134.402C111.1 134.402 111.3 134.402 111.4 134.202C112.4 133.402 113.6 133.102 114.7 133.002C115.9 132.902 117 133.002 118.2 132.802C120.5 132.602 122.9 133.102 125.1 133.902C126.3 134.402 127.4 135.102 127.6 136.502C127.6 137.102 127.4 137.602 126.8 137.702C126.4 137.702 125.9 137.702 125.6 137.702C125 137.502 124.4 137.402 123.8 137.302C122.6 137.102 121.3 137.302 120.1 137.002C119.7 136.902 119.3 137.102 119 136.602C119 136.602 118.8 136.502 118.7 136.602C117.9 137.002 117.1 137.102 116.2 137.202C115.4 137.202 114.5 137.402 113.8 137.702C112.5 138.202 111.6 139.402 110.4 139.902C110.2 140.902 109.5 141.302 108.9 141.702C107.8 142.402 106.9 143.502 106.4 144.702C105.9 145.902 105.7 147.202 105.5 148.602C105.3 150.002 105.3 151.502 105.4 153.102C105.4 154.602 105.6 156.102 105.8 157.602C105.8 158.102 106.3 158.402 106.2 159.002C106.1 159.602 106.5 160.202 106.7 160.702C106.9 161.202 107.3 161.602 107.4 162.102C107.6 163.102 108.3 164.002 109.1 164.702C109.9 165.402 110.9 166.002 111.9 166.502C113.9 167.602 116.1 168.402 118.3 168.502C119.7 168.502 120.9 168.202 122.2 168.102C122.8 168.102 123.2 167.602 123.9 168.002C124.1 168.102 124.5 167.502 124.8 167.402C125.6 167.002 126.4 166.602 127.1 166.102C128.1 165.402 128.9 164.602 129.6 163.502C130 162.902 130.1 162.102 130.4 161.402C130.7 160.702 131 159.902 131.2 159.202C131.6 158.302 132 157.302 132.2 156.202C132.4 155.102 132.2 153.902 132.5 152.802C133 150.802 132.8 148.602 132.5 146.702C132.4 145.802 132.1 144.902 131.7 144.202C131.3 143.402 130.8 142.702 130.1 142.002C129.3 141.302 128.9 140.202 128 139.402C127.6 139.102 128 137.402 128.5 137.202C128.5 137.202 128.7 137.202 128.8 137.202C130 137.602 131.3 137.802 132.3 138.802C133 139.602 133.7 140.402 134.4 141.402C135 142.402 135.5 143.502 135.8 144.602H135.6Z" fill="black"/>
<path d="M140.7 98.1C139.8 98 138.7 97.9 137.6 97.9C137.2 97.9 136.8 97.6 136.4 98.1C136.2 98.4 135.8 97.7 135.5 97.7C134.5 97.7 133.6 97.7 132.6 97.7C131.7 97.8 130.8 98.1 130 98.3C129.2 98.5 128.2 98.4 127.5 99C126.9 99.5 126.1 99.3 125.5 99.6C124.8 100 124.1 100.4 123.3 100.5C122.7 100.5 122.1 100.6 121.7 101C121.4 101.2 121.3 101.7 121 101.8C120.7 101.9 120.2 101.9 120.3 102.6C120.3 102.6 120.1 102.6 120 102.6C119.5 102.4 119.1 102.7 119 103.1C119 103.5 118.7 103.6 118.5 103.8L116.8 105.2C116.4 105.5 115.8 105.7 115.4 106.1C115 106.5 114.9 107.1 114.3 107.3C113.8 107.6 113.5 108 113.3 108.4C113.2 108.6 112.8 108.9 113.3 109.3C113.3 109.3 113.3 109.4 113.3 109.5C112.2 110 113.1 111.1 112.7 111.9C112.3 112.7 112.4 113.7 112.4 114.6C112.4 114.8 112.2 115.1 112.7 115.4C112.9 115.4 112.9 115.7 112.7 115.9C112.1 116.6 112.5 117.4 112.4 118.1C112.4 118.9 112.6 119.7 112.2 120.6C112 121 112 121.5 112.6 121.8C112.9 122 112.6 122.4 112.8 122.7C112.8 122.9 113.2 123.1 113.2 123.4C113.2 123.6 113 123.8 113 124.1C113 124.1 113 124.2 113 124.3C113.8 125.4 113.2 126.7 113.7 127.9C114.1 129.2 114.3 130.6 114.2 132.2C114.2 133.1 113.8 134 112.6 134.3C112 134.4 111.5 134.3 111.3 133.9C111.1 133.6 110.9 133.4 110.9 133.2C110.9 132.8 110.7 132.5 110.6 132.1C110.4 131.4 109.8 130.7 109.9 129.9C109.9 129.6 109.6 129.4 110.1 129.1V128.9C109.1 128 109.3 126.7 109.1 125.5C108.9 124.5 108.1 123.6 108.3 122.5C107.6 122 107.7 121.3 107.8 120.7C108.3 118.6 107.8 116.6 108 114.6C108.2 112.5 108.3 110.3 109.1 108.1C109.2 107.7 109.1 107.3 109.5 107C109.9 106.7 110 106.1 110.2 105.7C110.4 105.3 110.6 104.8 111 104.5C112.5 103.4 113.4 102 114.8 100.9C116.1 99.9 117.6 99.1 118.9 98.1C119.7 97.5 120.4 96.8 121.4 96.5C121.8 96.4 122.1 95.9 122.7 96.2C122.9 96.3 123 95.7 123.3 95.6C123.9 95.3 124.6 95.1 125.2 94.8C126.1 94.5 127.1 94.2 128 93.9C128.6 93.7 129.1 93.4 129.7 93.2C130.3 93 131 93 131.6 93C132.4 93 133.2 93.2 134 93.2C134.8 93.2 135.6 93 136.4 93.2C137.8 93.8 139.1 93.6 140.5 93.7C141.2 93.7 142 93.9 142.8 94.1C143.6 94.3 144.4 94.6 145.2 95C146.1 95.5 146.4 96.4 146.9 97C147.2 97.3 146.4 98.6 145.9 98.9C145.9 98.9 145.7 98.9 145.6 98.9C144.8 98.7 143.9 98.9 143.4 98.5C142.7 97.9 141.9 97.7 140.9 97.6L140.7 98.1Z" fill="black"/>
<path d="M140.1 101.401C142.2 100.401 144.3 99.9012 146.4 99.5012C147.2 99.3012 148 99.5012 148.8 98.9012C149.2 98.6012 150 99.2012 150.7 99.1012C152.7 98.9012 154.6 99.0012 156.6 99.1012C158.5 99.1012 160.6 99.3012 162.6 100.001C164.6 100.701 166.2 102.001 167.9 102.901C169.4 103.701 170.1 105.001 171.3 105.901C172.5 106.801 173.8 107.801 174.8 109.101C175.5 110.001 176.1 111.001 177 111.801C177.5 112.301 178.2 112.701 178.7 113.301L178.9 113.601C178.9 113.701 179.1 113.901 179.2 114.001C179.4 114.301 179.5 114.601 179.7 114.801C180.1 115.301 180.4 115.901 181 116.401C181.1 116.401 181.2 117.001 181.2 117.201C181.2 117.501 181.2 117.801 181.3 118.101C181.3 118.301 181.3 118.401 181.4 118.601V118.801C180.8 119.101 180.3 119.401 179.9 119.701C179.7 119.901 179.5 120.001 179.3 120.101C179.1 120.201 178.8 120.301 178.6 120.401C178.1 120.601 177.6 120.801 177.1 121.001L175.7 121.501L174.6 121.901C173.8 122.101 173.1 122.401 172.3 122.601C171.2 122.901 170 123.001 168.8 123.201C167.6 123.501 166.4 124.101 165.3 124.101C164.1 124.101 163.1 124.401 162 124.601C161.4 124.701 160.6 124.601 160.3 125.401C160.3 125.401 160 125.501 159.9 125.401C158 125.001 156.5 126.501 154.7 126.701C152.8 126.901 151 127.501 149.2 127.901C148.7 128.001 148.1 127.901 147.8 128.501C147.7 128.701 147.2 128.801 146.9 128.801C145.4 128.501 144.1 129.201 142.6 129.401C141.8 129.501 141 129.801 140.2 129.901C139.8 129.901 139.4 130.101 139 130.101C139 130.101 138.7 130.101 138.4 130.101C138.1 130.101 137.6 130.101 137 129.801C136.7 129.701 136.4 129.401 136.2 129.201C135.9 128.801 136 128.901 136 128.901C136 128.901 136 128.901 136 128.801C136.2 128.501 136.2 127.801 135.8 128.601C135.6 129.001 135.8 128.401 135.7 128.401L135.5 129.101V128.701C135.5 128.501 135.5 128.201 135.5 128.001C135.5 127.901 135.5 127.901 135.5 128.001C135.5 128.501 135.5 128.801 135.5 128.801C135.5 128.601 135.2 128.601 135.3 129.001C135.3 129.101 135.3 129.201 135.3 129.301C135.3 129.801 135.1 130.501 134.9 131.001C134.6 132.201 134.3 133.401 133.9 134.501C133.5 135.801 133 137.101 131.6 137.701C131 138.001 130.5 137.801 130.3 137.201C130.2 136.701 130.1 136.201 130.2 135.701C130.3 134.901 130.4 134.201 130.5 133.401C130.7 131.901 130.5 130.301 131.2 128.801C131.3 128.501 131.2 128.401 131.4 127.901C131.4 127.501 131.6 127.101 131.9 126.901C131.9 126.901 132.1 126.601 132.1 126.401C132.1 123.901 132.7 121.201 133.1 119.001H133.5C133.6 119.001 133.7 119.001 133.8 119.001C133.8 119.001 134 119.001 134.1 119.001C134.1 119.001 134.2 119.001 134.3 118.901H134.4C134.4 118.801 134.4 118.801 134.4 118.801H134.6L135.4 119.001C135.9 119.001 136.3 119.301 136.7 119.501C137.5 119.901 138.2 120.501 138.6 121.501C139 121.501 139.5 121.901 139.7 122.701C140 123.501 140.1 124.601 140.1 125.901V126.301L138.1 127.601C138.1 127.601 138.1 127.601 138.1 127.201C138.1 127.001 138.1 126.801 138 126.201V125.701C137.9 125.701 137.9 125.701 138 125.701H138.3C138.8 125.701 139.2 125.501 139.7 125.501C140.6 125.301 141.5 125.101 142.4 124.901C144.2 124.501 145.9 124.001 147.7 123.601C151.3 122.901 154.9 121.901 158.5 121.101C159.1 121.001 159.6 120.501 160.3 120.601C161 120.601 161.8 120.301 162.6 120.101C163.3 119.901 164 119.601 164.7 119.601C167.6 119.601 170.3 118.301 173.1 117.501L175.1 116.901C175.3 116.901 175.6 116.701 175.9 116.701H176.1C176.1 116.601 176 116.501 175.9 116.401C175.8 116.201 175.6 116.001 175.5 115.801C174.6 114.601 173.2 113.601 172.1 112.401C171.6 111.901 170.8 111.601 170.7 110.601C170.7 110.301 169.8 110.201 169.5 109.901C168.6 109.101 167.7 108.301 166.8 107.601C165.6 106.601 164.3 105.601 163 105.001C162.2 104.601 161.3 104.501 160.5 104.301C159.6 104.101 158.7 103.901 157.8 103.701C156.6 103.501 155.4 103.201 154.1 103.101C152.7 103.101 151.3 103.401 150.1 103.201C147.7 102.901 145.4 103.601 143.2 104.301C142.1 104.701 141.1 105.101 140.3 105.701C139.4 106.301 138.7 107.101 138.1 108.001C137.4 109.001 136.4 109.801 135.7 111.001C135.4 111.501 133.7 111.601 133.4 111.201C133.4 111.201 133.3 111.001 133.4 110.901C133.6 109.501 133.6 108.001 134.6 106.601C135.3 105.601 136.2 104.601 137.2 103.701C138.2 102.801 139.3 102.101 140.5 101.501L140.1 101.401Z" fill="black"/>
</svg>
