<svg width="300" height="300" viewBox="0 0 300 300" fill="none" xmlns="http://www.w3.org/2000/svg">
<path d="M196.7 166.599C196.5 166.399 196.2 166.099 195.9 165.899C195.8 165.899 195.9 165.499 195.4 165.899C195.2 165.999 195.5 165.499 195.4 165.399C195.1 165.199 194.9 164.899 194.7 164.799C194.4 164.599 194 164.599 193.8 164.399C193.5 164.299 193.5 163.799 193 163.899C192.6 163.899 192.8 163.399 192.5 163.399C192.2 163.399 192 163.199 191.9 162.899C191.9 162.699 191.9 162.399 191.6 162.299C191.5 162.299 191.2 162.499 191.1 162.299C191.1 162.299 191.1 161.899 190.6 162.299C190.6 162.299 190.6 162.299 190.6 162.099C190.7 161.699 190.6 161.599 190.3 161.799C190.1 161.999 190 161.799 189.9 161.799C189.7 161.699 189.4 161.499 189.2 161.299C189.1 161.099 189 160.799 188.9 160.699C188.8 160.499 188.4 160.699 188.4 160.199C188.4 159.799 188.2 159.699 188.1 159.599C188.1 159.599 188.1 159.199 187.6 159.599C187.8 158.699 186.9 159.399 186.8 158.999C186.7 158.599 186.3 158.499 186 158.299C186 158.299 186 157.999 185.6 158.299C185.5 158.399 185.4 158.299 185.4 158.299C185.6 157.599 185.1 157.799 185 157.499C184.8 157.199 184.4 157.199 184.5 156.699C184.5 156.499 184.5 156.299 184 156.599C183.8 156.699 183.8 156.399 183.7 156.399C183.6 156.399 183.3 156.499 183.3 156.399C183.3 156.399 183.3 156.099 183.3 155.999C182.5 156.199 182.8 155.199 182.4 154.999C182 154.799 181.7 154.399 181.5 153.999C181.4 153.799 181.3 153.499 182 152.599C182.3 152.199 182.7 151.799 183 151.699C183.2 151.599 183.4 151.499 183.6 151.499C183.8 151.499 184 151.499 184.1 151.499C184.4 151.499 185 151.399 185 151.799C185 151.899 185.3 151.799 185 152.199C185.8 151.899 185.7 152.499 186 152.799C186.3 152.999 186.9 152.799 187 153.199C187.6 152.899 187.6 153.099 187.6 153.299C187.6 154.199 188.4 154.299 188.8 154.699C189.2 155.199 189.8 155.499 190.3 155.899C190.3 155.899 190.7 155.699 190.6 155.999C190.6 156.299 190.8 156.199 190.9 156.299C191 156.299 191.2 156.299 191.2 156.499C191.2 157.299 191.9 157.299 192.3 157.699C192.7 158.099 193.1 158.399 193.6 158.599C193.9 158.699 194.4 158.599 194.6 158.899C194.6 158.999 195 158.899 194.8 159.399C194.8 159.599 195.1 159.299 195.2 159.399C195.4 159.499 195.6 159.699 195.7 159.799C195.9 159.999 196.2 160.199 196.4 160.399C196.6 160.399 196.9 160.399 197.1 160.499C197.3 160.499 197.5 160.699 197.6 160.899C197.7 161.099 197.8 161.499 197.9 161.699C198.1 161.899 198.4 161.899 198.4 162.299C198.4 162.999 198.9 163.099 199.2 163.499C199.5 163.899 199.8 164.199 200.2 164.499C200.4 164.599 200.2 165.199 200.4 165.299C200.4 165.299 199.5 166.499 199.1 166.799L198.9 166.899C198.4 166.999 197.7 167.399 197.6 167.199C197.4 166.899 197.1 166.599 196.8 166.299L196.7 166.599Z" fill="black"/>
<path d="M130 185.098C130 185.598 130 186.098 130 186.598C130 186.798 129.8 186.998 130.3 187.098C130.6 187.098 129.9 187.398 130 187.498C130 187.998 130 188.398 130 188.898C130 189.298 130.3 189.798 130.4 190.198C130.4 190.598 130.2 191.098 130.6 191.498C130.9 191.798 130.4 192.198 130.6 192.498C130.8 192.898 130.9 193.198 130.6 193.598C130.5 193.898 130.3 194.198 130.4 194.398C130.4 194.598 130.8 194.698 130.8 194.898C130.8 195.098 130.5 195.298 131.2 195.398C131.2 195.398 131.2 195.398 131.1 195.498C130.7 195.698 130.8 195.898 131.1 196.098C131.4 196.198 131.4 196.398 131.4 196.498C131.4 196.898 131.5 197.198 131.5 197.598C131.5 197.898 131.3 198.198 131.3 198.498C131.3 198.798 131.6 199.098 131.3 199.398C131 199.698 131.1 199.998 131.1 200.198C131.1 200.398 130.9 200.598 131.5 200.598C130.7 201.098 131.9 201.398 131.7 201.898C131.5 202.398 131.7 202.798 131.8 203.298C131.8 203.398 131.7 203.598 132.1 203.598C132.3 203.598 132.3 203.698 132.1 203.798C131.5 204.198 132 204.498 131.9 204.898C131.9 205.298 132.2 205.698 131.8 206.098C131.6 206.298 131.5 206.498 132.2 206.698C132.5 206.698 132.2 206.998 132.3 207.098C132.3 207.198 132.7 207.298 132.7 207.398C132.7 207.398 132.5 207.598 132.4 207.798C133.1 208.298 132.4 208.998 132.6 209.498C132.9 210.098 132.9 210.698 132.9 211.298C132.9 211.598 132.8 211.998 131.7 212.398C131.2 212.598 130.7 212.698 130.3 212.598C130 212.598 129.8 212.498 129.7 212.298C129.6 212.098 129.4 211.998 129.3 211.798C129.1 211.498 128.5 211.198 128.7 210.698C128.7 210.598 128.4 210.498 128.9 210.298C128 209.898 128.5 209.298 128.3 208.798C128.2 208.398 127.5 207.998 127.7 207.498C127 207.298 127.1 206.998 127.3 206.798C127.8 205.798 127.3 204.998 127.3 204.098C127.3 203.198 127.1 202.298 127 201.398C127 201.198 126.6 201.198 126.9 200.898C127.1 200.698 126.9 200.498 126.9 200.298C126.9 200.098 126.7 199.898 126.9 199.798C127.5 198.998 126.9 198.298 126.9 197.598C126.9 196.898 126.9 196.198 126.7 195.498C126.6 195.098 126.2 194.698 126.3 194.198C126.3 193.998 126 193.798 126.6 193.598C126.8 193.598 126.3 193.398 126.3 193.298C126.3 192.998 126.3 192.698 126.3 192.398C126.3 191.998 126.3 191.598 126.3 191.098C126.3 190.798 126 190.598 125.9 190.398C125.9 190.098 125.9 189.898 125.9 189.598C125.9 189.298 126.2 188.898 126.2 188.598C126.2 188.198 126 187.898 126.2 187.498C126.7 186.898 126.4 186.198 126.5 185.598C126.5 184.998 126.5 184.398 126.5 183.698C126.5 183.298 126.9 182.998 126.9 182.698C126.9 182.498 128.4 182.398 128.9 182.398H129.1C129.6 182.698 130.3 182.998 130.2 183.398C130.2 183.898 130.2 184.498 130.2 185.098H130Z" fill="black"/>
<path d="M178.001 172.099C178.401 171.899 178.701 171.799 179.101 171.499C179.201 171.499 179.501 171.499 179.401 170.999C179.401 170.699 179.801 171.199 179.901 171.199C180.201 170.999 180.601 170.899 180.901 170.699C181.201 170.499 181.401 170.099 181.701 169.899C182.001 169.699 182.501 169.899 182.701 169.399C182.901 168.999 183.301 169.399 183.501 169.099C183.701 168.899 184.001 168.699 184.401 168.799C184.701 168.799 185.001 168.999 185.101 168.799C185.101 168.699 185.101 168.299 185.301 168.299C185.401 168.299 185.701 168.499 185.601 167.799C185.601 167.799 185.601 167.799 185.801 167.799C186.101 168.099 186.301 167.999 186.301 167.799C186.301 167.499 186.401 167.499 186.501 167.399C186.801 167.299 187.101 167.099 187.401 167.099C187.601 167.099 187.901 167.099 188.201 167.099C188.401 167.099 188.601 166.699 188.901 166.899C189.201 167.099 189.401 166.999 189.601 166.899C189.701 166.899 190.001 167.099 189.801 166.399C190.401 167.099 190.401 165.899 190.801 165.999C191.201 165.999 191.501 165.799 191.901 165.699C191.901 165.699 192.201 165.799 192.101 165.299C192.101 165.099 192.101 165.099 192.301 165.199C192.801 165.699 192.901 165.199 193.201 165.199C193.501 165.199 193.801 164.799 194.201 165.199C194.401 165.399 194.601 165.399 194.601 164.799C194.601 164.499 194.801 164.799 194.901 164.599C194.901 164.599 194.901 164.199 195.101 164.199C195.101 164.199 195.301 164.399 195.401 164.499C195.701 163.699 196.401 164.499 196.801 164.099C197.201 163.799 197.701 163.699 198.201 163.699C198.501 163.699 198.801 163.699 199.301 164.799C199.501 165.299 199.701 165.799 199.601 166.199C199.601 166.499 199.601 166.699 199.501 166.799C199.401 166.899 199.301 167.099 199.201 167.199C199.001 167.499 198.801 168.099 198.501 167.899C198.401 167.899 198.401 168.199 198.101 167.699C197.901 168.599 197.401 168.199 197.001 168.399C196.701 168.599 196.501 169.299 196.101 169.099C196.101 169.799 195.901 169.699 195.601 169.599C194.701 169.199 194.201 169.799 193.501 169.999C192.801 170.099 192.201 170.499 191.501 170.699C191.401 170.699 191.501 171.099 191.201 170.899C191.001 170.699 190.901 170.899 190.701 170.999C190.601 170.999 190.501 171.199 190.301 171.099C189.501 170.699 189.201 171.299 188.601 171.399C188.101 171.499 187.501 171.699 187.101 172.099C186.801 172.299 186.701 172.799 186.301 172.799C186.101 172.799 186.101 173.199 185.801 172.699C185.701 172.599 185.801 172.999 185.701 173.099C185.501 173.199 185.301 173.299 185.101 173.399C184.801 173.499 184.501 173.599 184.201 173.799C184.001 173.899 184.001 174.199 183.801 174.399C183.601 174.499 183.501 174.599 183.201 174.699C182.901 174.699 182.601 174.699 182.301 174.699C182.001 174.699 181.901 175.099 181.501 174.999C180.801 174.799 180.501 175.199 180.101 175.399C179.601 175.599 179.201 175.699 178.801 176.099C178.601 176.299 178.101 175.999 177.901 176.099C177.801 176.099 177.001 174.899 176.801 174.499V174.299C176.801 173.799 176.701 172.999 177.001 172.899C177.401 172.799 177.801 172.499 178.201 172.299L178.001 172.099Z" fill="black"/>
<path d="M158.6 165.898C158.6 165.698 158.6 165.498 158.6 165.398C158.6 165.398 158.8 165.298 158.3 165.198C158 165.198 158.7 165.098 158.6 164.998C158.6 164.798 158.6 164.698 158.6 164.498C158.6 164.298 158.3 164.198 158.3 163.998C158.3 163.798 158.6 163.698 158.3 163.498C158 163.298 158.5 163.298 158.4 163.098C158.3 162.998 158.2 162.798 158.4 162.698C158.6 162.698 158.8 162.498 158.7 162.398C158.7 162.398 158.3 162.198 158.4 162.198C158.4 162.198 158.7 162.198 158.1 161.998C158.1 161.998 158.1 161.998 158.3 161.998C158.7 161.998 158.7 161.998 158.4 161.798C158.1 161.798 158.2 161.698 158.2 161.598C158.2 161.498 158.2 161.298 158.2 161.198C158.2 161.198 158.5 160.998 158.6 160.998C158.6 160.998 158.4 160.698 158.7 160.698C159 160.698 159 160.598 159 160.498C159 160.498 159.3 160.498 158.7 160.298C159.5 160.298 158.5 159.898 158.7 159.798C158.9 159.698 158.8 159.498 158.9 159.298C158.9 159.298 159.1 159.298 158.7 159.098C158.5 158.998 158.5 159.098 158.7 159.098C159.3 159.098 159 158.898 159.1 158.798C159.3 158.698 159.1 158.498 159.5 158.498C159.7 158.498 159.8 158.498 159.3 158.198C159.1 158.098 159.3 158.198 159.3 157.998L159 157.798C159 157.798 159.2 157.798 159.4 157.798C158.8 157.398 159.8 157.498 159.7 157.198C159.7 156.898 159.7 156.798 159.9 156.598C159.9 156.598 160.2 156.498 161.3 156.798C161.8 156.998 162.3 157.198 162.6 157.398C162.8 157.498 163 157.598 163 157.698C163 157.698 163.2 157.898 163.2 157.998C163.3 158.198 163.8 158.498 163.5 158.498C163.5 158.498 163.7 158.698 163.2 158.498C163.9 158.898 163.3 158.898 163.3 159.098C163.3 159.198 163.9 159.598 163.6 159.598C164.2 159.898 164 159.898 163.8 159.898C163.1 159.898 163.4 160.298 163.3 160.598C163.1 160.798 163.2 161.098 163.1 161.398C163.1 161.398 163.4 161.598 163.1 161.598C162.8 161.598 163.1 161.698 163.1 161.798C163.1 161.798 163.2 161.898 163.1 161.998C162.4 161.998 162.8 162.398 162.7 162.598C162.7 162.798 162.5 162.998 162.7 163.198C162.7 163.298 163.1 163.498 163 163.598C163 163.598 163.3 163.698 162.7 163.698C162.5 163.698 163 163.698 163 163.798C163 163.798 163 163.998 163 164.098C163 164.198 163 164.298 163 164.498L163.3 164.698V164.898C163.3 164.898 163 165.098 162.9 165.198C162.9 165.298 163.1 165.398 162.9 165.498C162.4 165.698 162.6 165.898 162.6 166.098C162.6 166.298 162.6 166.498 162.6 166.598C162.6 166.598 162.2 166.798 162.2 166.898C162.2 166.898 160.7 167.098 160.2 167.198H160C159.5 167.198 158.8 167.098 158.8 166.898C158.8 166.698 158.8 166.498 158.8 166.298L158.6 165.898Z" fill="black"/>
<path d="M169 166.699C169 166.499 169 166.299 169 166.199C169 166.199 169.2 166.099 168.7 165.999C168.4 165.999 169.1 165.899 169 165.799C169 165.599 169 165.499 169 165.299C169 165.099 168.7 164.999 168.7 164.799C168.7 164.599 169 164.499 168.7 164.299C168.4 164.099 168.9 164.099 168.8 163.899C168.7 163.799 168.6 163.599 168.8 163.499C169 163.499 169.2 163.299 169.1 163.199C169.1 163.199 168.7 162.999 168.8 162.999C168.8 162.999 169.1 162.999 168.5 162.799C168.5 162.799 168.5 162.799 168.7 162.799C169.1 162.799 169.1 162.799 168.8 162.599C168.5 162.599 168.6 162.499 168.6 162.399C168.6 162.299 168.6 162.099 168.6 161.999C168.6 161.999 168.9 161.799 169 161.799C169 161.799 168.8 161.499 169.1 161.499C169.4 161.499 169.4 161.399 169.4 161.299C169.4 161.299 169.7 161.299 169.1 161.099C169.9 161.099 168.9 160.699 169.1 160.599C169.3 160.499 169.2 160.299 169.3 160.099C169.3 160.099 169.5 160.099 169.1 159.899C168.9 159.799 168.9 159.899 169.1 159.899C169.7 159.899 169.4 159.699 169.5 159.599C169.7 159.499 169.5 159.299 169.9 159.299C170.1 159.299 170.2 159.299 169.7 158.999C169.5 158.899 169.7 158.999 169.7 158.799L169.4 158.599C169.4 158.599 169.6 158.599 169.8 158.599C169.2 158.199 170.2 158.299 170.1 157.999C170.1 157.699 170.1 157.599 170.3 157.399C170.3 157.399 170.6 157.299 171.7 157.599C172.2 157.799 172.7 157.999 173 158.199C173.2 158.299 173.4 158.399 173.4 158.499C173.4 158.499 173.6 158.699 173.6 158.799C173.7 158.999 174.2 159.299 173.9 159.299C173.9 159.299 174.1 159.499 173.6 159.299C174.3 159.699 173.7 159.699 173.7 159.899C173.7 159.999 174.3 160.399 174 160.399C174.6 160.699 174.4 160.699 174.2 160.699C173.5 160.699 173.8 161.099 173.7 161.399C173.5 161.599 173.6 161.899 173.5 162.199C173.5 162.199 173.8 162.399 173.5 162.399C173.2 162.399 173.5 162.499 173.5 162.599C173.5 162.599 173.6 162.699 173.5 162.799C172.8 162.799 173.2 163.199 173.1 163.399C173.1 163.599 172.9 163.799 173.1 163.999C173.1 164.099 173.5 164.299 173.4 164.399C173.4 164.399 173.7 164.499 173.1 164.499C172.9 164.499 173.4 164.499 173.4 164.599C173.4 164.599 173.4 164.799 173.4 164.899C173.4 164.999 173.4 165.099 173.4 165.299L173.7 165.499V165.699C173.7 165.699 173.4 165.899 173.3 165.999C173.3 166.099 173.5 166.199 173.3 166.299C172.8 166.499 173 166.699 173 166.899C173 167.099 173 167.299 173 167.399C173 167.399 172.6 167.599 172.6 167.699C172.6 167.699 171.1 167.899 170.6 167.999H170.4C169.9 167.999 169.2 167.899 169.2 167.699C169.2 167.499 169.2 167.299 169.2 167.099L169 166.699Z" fill="black"/>
<path d="M183.401 176.798C184.301 177.798 185.101 178.798 185.901 179.698C186.201 180.098 186.301 180.598 187.101 180.598C187.501 180.598 187.301 181.398 187.601 181.698C188.401 182.598 189.101 183.598 189.901 184.498C190.301 184.998 190.701 185.298 191.101 185.798C191.701 186.498 192.301 187.198 193.001 188.098C194.001 189.298 194.701 190.498 195.601 191.798C195.101 191.998 194.601 192.098 194.201 192.298C193.501 192.598 192.601 192.798 191.801 192.998C190.901 193.098 190.101 193.298 189.401 193.498C189.201 193.498 189.001 193.598 188.801 193.698H188.301C188.101 193.898 187.801 193.998 187.501 193.998C187.001 194.098 186.501 194.098 186.001 193.998C185.301 193.998 184.501 193.798 183.801 193.998C183.401 194.098 183.001 194.498 182.501 194.498C182.001 194.498 181.501 194.298 181.101 194.898C181.101 194.898 180.901 194.898 180.801 194.798C180.301 194.398 179.701 194.498 179.301 194.798C178.901 195.098 178.501 194.998 178.201 194.998C177.201 194.998 176.101 194.998 175.101 194.798C174.301 194.698 173.601 194.398 172.801 194.198C172.001 194.098 171.101 194.198 170.401 193.798C169.701 193.398 169.001 193.198 168.301 193.098C167.901 193.098 167.501 192.598 167.001 193.098C167.001 193.098 166.801 193.098 166.701 193.098C165.801 191.998 164.401 192.698 163.301 192.098C162.201 191.498 160.901 191.198 159.801 190.698C159.501 190.598 159.201 190.198 158.801 190.498C158.601 190.498 158.301 190.498 158.201 190.198C157.701 189.198 156.601 188.998 155.801 188.398C154.901 187.698 153.901 187.198 153.301 186.098C153.101 185.598 152.701 185.098 151.901 185.098C151.501 185.098 151.301 184.498 151.001 184.198C150.701 183.998 150.301 183.898 150.101 183.598C149.901 183.398 149.901 182.998 149.801 182.698C149.801 182.698 149.801 182.498 149.601 182.498C148.901 181.998 148.401 181.198 148.201 180.398L147.801 179.198C147.701 178.798 147.601 178.398 147.401 177.998C146.601 176.498 146.301 174.698 146.201 172.998C146.201 172.098 146.301 171.098 147.401 170.498C147.901 170.198 148.501 170.198 148.801 170.498C149.101 170.798 149.301 170.998 149.401 171.298C149.501 171.798 149.601 172.198 149.801 172.598C150.001 172.998 150.201 173.498 150.401 173.898C150.601 174.298 150.801 174.698 150.801 175.198C150.801 175.498 151.101 175.698 150.801 176.098V176.298C151.401 176.698 151.601 177.298 151.901 177.798C152.001 178.098 152.101 178.398 152.201 178.698C152.301 178.998 152.501 179.298 152.701 179.498C153.001 179.898 153.401 180.298 153.801 180.598C154.201 180.898 154.601 181.198 154.901 181.698C155.701 181.698 156.101 182.198 156.401 182.698C157.501 184.598 159.601 185.398 161.501 186.398C163.401 187.398 165.501 188.098 167.701 188.698C168.101 188.698 168.501 188.498 168.801 188.898C169.101 189.298 169.701 189.198 170.201 189.298C170.601 189.298 171.101 189.298 171.501 189.598C173.101 190.598 175.001 190.398 176.701 190.498C178.401 190.698 180.201 190.698 182.001 190.498C183.101 190.298 184.101 189.898 185.101 189.898C185.601 189.898 186.001 189.498 186.501 189.898C186.701 189.998 187.001 189.498 187.301 189.398H187.701C187.701 189.298 187.901 189.298 187.901 189.298C188.001 189.298 188.201 189.298 188.301 189.298C188.301 189.298 188.301 189.198 188.101 189.098C188.001 188.998 187.601 188.898 187.501 188.898C187.501 188.898 187.401 188.898 187.301 188.698L187.101 188.498L186.801 188.098C186.301 187.398 186.001 186.598 185.501 185.898C185.001 185.198 184.201 184.598 183.901 183.798C183.301 182.298 182.101 181.198 181.101 179.998C180.101 178.798 179.101 177.598 178.001 176.498C177.401 175.898 177.201 174.998 176.601 174.298C176.301 173.998 177.001 172.598 177.501 172.398C177.501 172.398 177.701 172.398 177.801 172.398C178.701 172.698 179.801 172.798 180.401 173.498C181.301 174.598 182.401 175.698 183.301 176.798H183.401Z" fill="black"/>
<path d="M171.9 211.798L172.4 210.798C172.4 210.598 172.5 210.498 172.6 210.298C172.6 210.298 173 209.798 172.3 210.298C171.9 210.498 172.9 209.798 172.9 209.698V209.598H172.7C172.5 209.698 172.4 209.798 172.2 209.798C172 209.798 171.9 209.998 171.7 210.098H171.5C171.2 210.098 170.9 210.198 170.6 210.198C169.4 210.298 168.3 209.998 167.2 210.198C166.2 210.398 165.5 209.698 164.6 209.598C163.6 209.498 162.7 209.298 161.9 208.698C161.3 208.298 160.8 207.798 160.2 207.698C159.8 207.598 159.3 207.698 158.9 207.498C158.5 207.298 158.3 206.798 157.6 207.198C157.6 207.198 157.4 206.998 157.4 206.898C157.2 206.298 156.8 205.998 156.3 206.098C155.8 206.098 155.6 205.898 155.3 205.698C154.5 205.198 153.8 204.598 153.1 203.998C152.6 203.498 152.2 202.898 151.8 202.298C151.3 201.798 150.6 201.398 150.4 200.698C150.2 199.998 149.7 199.598 149.3 199.098C149.1 198.798 149 198.298 148.3 198.498C148.3 198.498 148.2 198.498 148.2 198.298C148.2 196.998 146.7 196.798 146.2 195.698C145.8 194.598 145 193.598 144.6 192.498C144.5 192.198 144.6 191.798 144 191.698C143.8 191.698 143.7 191.298 143.8 191.098C144 190.598 143.9 190.098 143.8 189.698C143.7 189.298 143.5 188.798 143.5 188.398C143.5 187.898 143.4 187.398 143.4 186.898C143.4 186.398 143.4 185.898 143.6 185.398C143.8 184.998 143.9 184.398 143.4 183.898C143.1 183.698 143.4 183.198 143.4 182.798C143.4 182.498 143.1 182.198 143.2 181.898C143.2 181.598 143.5 181.398 143.6 181.198V180.998C143.2 179.498 144.3 178.298 144.5 176.898C144.7 175.498 145.1 174.198 145.7 172.898C146 172.198 146.4 171.498 147.6 171.398C148.2 171.398 148.7 171.498 148.9 171.898C149.1 172.198 149.2 172.498 149.2 172.798C149.2 173.198 149.2 173.698 149.2 174.098C149.2 174.998 149.4 175.898 148.9 176.698C148.7 176.898 148.9 177.298 148.4 177.398C148.4 177.398 148.3 177.498 148.3 177.598C148.8 178.898 148 179.898 147.9 181.098C147.8 182.098 148.3 183.098 147.9 183.998C148.5 184.598 148.4 185.098 148.2 185.598C147.5 187.398 148.2 189.198 148.8 190.798C149.3 192.498 150.4 193.998 151.6 195.498C151.8 195.798 152.3 195.798 152.3 196.198C152.3 196.698 152.8 196.898 153.1 197.198C153.4 197.498 153.7 197.698 153.9 198.098C154.5 199.698 155.9 200.498 157.1 201.498C158.2 202.498 159.5 203.398 160.9 203.998C161.8 204.298 162.7 204.398 163.5 204.798C163.8 204.998 164.3 204.798 164.5 205.498C164.5 205.698 165 205.398 165.3 205.498C165.9 205.598 166.5 205.798 167.1 205.898C167.9 205.998 168.8 206.198 169.6 206.098C170.1 206.098 170.6 205.798 171.1 205.698C171.2 205.698 171.4 205.698 171.5 205.698H171.6H171.7L172.1 205.598L173 205.398C173.3 205.398 173.6 205.398 173.9 205.198C174.7 204.998 175.5 204.798 176.3 204.498C177.1 204.298 177.8 204.098 178.6 203.798C178.9 203.698 179.3 203.598 179.6 203.398V203.898V204.198V204.598C179.3 205.098 179.2 205.698 178.9 206.298C178.2 207.698 177.8 208.698 177.5 209.798C177.1 210.798 176.7 211.998 176.2 212.998C175.5 214.298 174.8 215.598 174.1 216.898C173.7 217.598 172.9 217.998 172.4 218.598C172.2 218.898 170.7 218.398 170.4 217.998C170.4 217.998 170.3 217.798 170.3 217.698C170.3 216.798 170.1 215.898 170.6 215.198C171.3 214.198 171.9 213.098 172.4 212.098L171.9 211.798Z" fill="black"/>
<path d="M123.901 185.2C123.101 185.3 122.201 185.4 121.401 185.5C121.101 185.5 120.701 185.3 120.401 185.9C120.201 186.2 119.901 185.6 119.601 185.6C118.801 185.6 118.001 185.6 117.201 185.6C116.401 185.6 115.601 185.8 114.801 185.8C114.001 185.8 113.201 185.4 112.301 185.5C111.501 185.5 110.901 184.9 110.101 184.5C109.201 184.2 108.301 183.3 108.001 182.3C107.801 181.6 107.901 180.9 107.601 180.3C107.501 179.9 107.101 179.6 107.101 179.2C107.101 178.8 107.401 178.5 106.801 178.1C106.801 178.1 106.801 177.9 107.001 177.9C107.401 177.6 107.501 177.2 107.201 176.9C107.001 176.6 107.001 176.4 107.101 176.1C107.101 175.4 107.301 174.6 107.701 173.8C108.001 173.2 108.501 172.7 108.801 172.3C109.201 171.8 109.401 171.1 110.001 170.9C110.601 170.7 111.001 170.3 111.401 170C111.601 169.8 112.101 169.9 111.901 169.2C111.901 169.2 111.901 169.1 112.101 169.1C113.201 169.3 113.401 168 114.201 167.8C115.001 167.6 115.701 167.2 116.501 166.9C116.701 166.9 117.001 166.9 117.001 166.4C117.001 166.2 117.201 166.1 117.401 166.2C118.201 166.6 118.701 166.1 119.301 166C120.001 166 120.601 165.5 121.401 165.8C121.701 166 122.101 166 122.401 165.4C122.501 165.1 122.901 165.4 123.201 165.2C123.401 165.2 123.601 164.8 123.801 164.8C124.001 164.8 124.201 165 124.401 165.1C124.401 165.1 124.501 165.1 124.601 165.1C125.601 164.4 126.701 165.1 127.701 165.1C128.701 164.9 129.801 165.1 130.801 165.3C131.401 165.4 131.901 165.7 132.101 166.9C132.101 167.4 132.101 168 131.801 168.3C131.601 168.5 131.401 168.7 131.201 168.7C130.901 168.7 130.601 168.8 130.301 168.9C129.701 169 129.101 169.5 128.501 169.2C128.301 169.2 128.101 169.4 128.001 168.9C128.001 168.9 128.001 168.8 127.901 168.9C127.101 169.7 126.301 169.2 125.501 169.3C124.801 169.3 124.201 170.1 123.501 169.9C123.201 170.6 122.801 170.5 122.401 170.4C120.901 170 119.701 170.8 118.501 171.2C117.201 171.6 116.001 172.2 114.901 172.9C114.701 173 114.801 173.4 114.401 173.3C114.101 173.3 114.001 173.6 113.801 173.7C113.601 173.9 113.601 174.1 113.301 174.1C112.801 174.1 112.501 174.5 112.301 174.9C112.101 175.3 112.001 175.7 111.901 176.2C111.601 177.1 111.401 178.3 111.601 179.2C111.701 179.8 112.101 180.1 112.101 180.3C112.101 180.5 112.401 180.3 112.101 180.8C112.101 180.9 112.401 180.8 112.501 180.8C112.701 180.8 112.901 181 113.201 181.1C113.601 181.2 114.101 181.4 114.701 181.4C115.101 181.4 115.501 181.2 115.901 181.2C116.301 181.2 116.701 181.2 117.101 181.2C117.601 181.2 118.101 181.5 118.601 181.6C119.101 181.6 119.701 181.4 120.201 181.6C121.201 182.1 122.101 181.7 123.101 181.6C124.001 181.6 125.001 181.4 125.901 181.1C126.401 180.9 127.001 181.3 127.501 181.1C127.701 181.1 128.501 182.4 128.501 182.9C128.501 182.9 128.501 183.1 128.501 183.2C128.101 183.8 127.801 184.6 127.101 184.8C126.101 185 125.201 185.2 124.201 185.4L123.901 185.2Z" fill="black"/>
<path d="M149.6 140.5L149.4 142.4C149.4 142.6 149.1 142.8 149.6 143.2C149.8 143.4 149.2 143.5 149.2 143.7C149.2 144.3 148.9 144.8 148.9 145.4C148.9 146 148.9 146.6 148.9 147.1C148.8 147.7 148.3 148.1 148.5 148.7C148.6 149.2 148 149.5 147.9 149.9C147.9 150.4 147.8 150.9 147.4 151.2C147.1 151.4 146.8 151.7 146.7 152C146.7 152.2 146.9 152.5 146.7 152.7C146.6 152.9 146.3 153 146.7 153.4C146.7 153.4 146.6 153.4 146.5 153.4C146 153.4 145.9 153.7 146.1 154C146.3 154.3 146.1 154.4 146.1 154.6C145.9 155 145.7 155.5 145.4 155.9C145.2 156.2 144.8 156.4 144.5 156.7C144.2 157 144.3 157.5 143.8 157.6C143.3 157.7 143.2 158 143 158.3C142.9 158.5 142.5 158.5 143 159V159.1C142 159.1 142.5 160.1 142 160.4C141.5 160.7 141.2 161.3 140.8 161.7C140.7 161.8 140.4 161.8 140.7 162.2C140.7 162.3 140.7 162.5 140.5 162.5C139.7 162.4 139.7 163 139.3 163.2C138.9 163.5 138.7 164 138 164C137.7 164 137.4 164.1 137.6 164.7C137.6 165 137.3 164.9 137.2 165.1C137.2 165.2 137.2 165.5 137.1 165.6C137.1 165.6 136.8 165.6 136.6 165.6C136.5 166.6 135.3 166.4 134.8 166.9C134.3 167.5 133.6 167.9 132.9 168.2C132.5 168.4 132.1 168.5 131.2 167.6C130.8 167.2 130.6 166.7 130.5 166.4C130.5 166.1 130.5 165.9 130.5 165.7C130.6 165.5 130.7 165.3 130.9 165.1C131.2 164.7 131.2 164.1 131.7 164C131.9 164 131.8 163.6 132.2 164H132.3C132.3 163 133.1 163.1 133.5 162.6C133.9 162.2 133.8 161.4 134.4 161.3C134.2 160.7 134.4 160.5 134.8 160.5C135.4 160.4 135.8 160.1 136.1 159.7C136.4 159.3 136.7 158.9 137.1 158.5C137.5 158.2 137.8 157.8 138.1 157.4C138.4 157 138.7 156.6 139 156.2C139.1 156.1 138.9 155.7 139.2 155.7C139.5 155.7 139.5 155.4 139.6 155.2C139.7 155 139.7 154.8 140 154.7C141 154.4 141.1 153.5 141.5 152.8C141.9 152.1 142.4 151.4 142.6 150.6C142.7 150.1 142.6 149.5 142.9 149.1C143 148.9 142.8 148.6 143.4 148.6C143.6 148.6 143.2 148.3 143.2 148.1C143.2 147.8 143.4 147.5 143.5 147.2C143.7 146.8 143.8 146.3 143.9 145.9C143.9 145.6 143.8 145.3 143.9 145C143.9 144.7 143.9 144.4 144.1 144.2C144.3 143.9 144.5 143.5 144.7 143.2C144.9 142.8 144.7 142.4 145 142.1C145.6 141.5 145.5 140.8 145.6 140.1C145.7 139.4 145.9 138.7 145.7 138C145.7 137.6 146.1 137.3 146.2 136.9C146.2 136.7 147.7 136.5 148.2 136.5H148.4C148.9 136.9 149.6 137.3 149.5 137.8C149.5 138.2 149.5 138.5 149.5 138.9V140L149.6 140.5Z" fill="black"/>
<path d="M108.499 153.098C108.599 151.998 108.899 151.098 109.299 150.298C109.699 149.498 109.999 148.798 110.499 147.998C111.299 146.498 112.299 145.198 113.299 143.898C114.099 142.898 115.099 142.198 115.699 140.898C115.999 140.298 117.299 139.898 118.199 139.198C120.599 137.198 123.399 135.798 126.199 134.498C128.899 133.298 131.799 132.298 134.699 131.698C137.599 131.098 140.699 131.298 143.599 130.998C144.699 130.998 145.799 130.998 146.999 131.498C147.299 131.598 147.599 131.698 147.899 131.898C147.999 131.898 148.199 132.098 148.299 132.098C148.299 132.098 148.399 132.098 148.499 132.198L148.699 132.298V132.498C148.899 132.598 148.899 132.498 148.999 132.498H149.099C149.099 132.298 149.099 132.398 149.399 132.098L150.699 130.898C151.599 130.098 152.599 129.298 153.799 128.698C155.399 127.698 157.299 127.098 159.099 126.498C160.199 126.098 161.199 125.598 162.499 125.498C163.699 125.398 164.899 125.498 165.899 124.898C165.899 124.898 166.499 124.898 166.799 124.998C167.999 125.398 169.499 125.498 170.499 125.298C171.499 125.098 172.399 125.298 173.299 125.298C175.799 125.598 178.299 126.198 180.599 126.898C182.399 127.398 184.099 128.198 185.799 128.798C187.599 129.498 189.599 129.898 191.199 130.898C192.699 131.898 194.299 132.598 195.799 133.398C196.699 133.898 197.499 134.698 198.599 134.598C198.599 134.598 198.999 134.798 199.099 134.898C200.099 136.098 201.299 136.898 202.499 137.898C203.699 138.898 204.899 140.198 205.499 141.798C206.099 143.498 206.499 145.298 206.299 147.198C206.299 148.198 205.999 149.198 205.399 150.198C204.899 151.198 203.899 152.098 202.999 152.598C201.999 153.098 200.999 153.198 200.299 153.798C200.099 153.998 199.199 154.198 198.799 154.198C197.599 154.198 196.499 154.298 195.299 154.498C194.199 154.698 192.999 154.898 191.899 154.998C190.599 154.998 189.299 155.198 187.999 155.198C187.299 155.198 186.699 155.198 185.999 155.198C185.299 155.198 184.699 154.998 183.999 154.898C183.399 154.798 182.799 154.698 182.099 154.698C181.399 154.698 180.699 154.698 179.999 154.898C179.699 154.998 179.199 154.898 178.699 154.898C178.199 154.898 177.599 154.698 177.199 154.598C176.399 154.598 175.599 154.598 174.799 154.598C174.099 154.498 173.499 154.098 172.899 153.798C172.699 153.798 172.499 153.698 172.299 153.698C168.399 153.398 164.999 151.398 161.399 149.998C157.799 148.598 154.399 146.598 151.199 144.198C150.399 143.498 149.499 142.898 148.799 142.098C148.199 141.298 147.699 140.498 147.499 139.598C147.299 138.798 147.699 138.398 148.599 138.698C149.199 138.898 149.999 139.198 150.499 139.598C151.399 140.298 152.499 140.798 153.399 141.398C154.399 141.998 155.499 142.398 156.499 142.998C157.599 143.498 158.599 143.998 159.599 144.698C160.199 145.098 161.099 145.198 161.499 145.898C161.499 145.998 161.799 146.198 161.999 146.198C165.199 146.798 168.099 148.498 171.299 149.198C172.599 149.598 173.999 149.598 175.399 149.798C176.799 149.898 178.099 149.998 179.499 150.398C180.299 150.198 181.099 150.098 181.899 150.198C182.699 150.198 183.499 150.298 184.299 150.498C186.999 150.998 189.699 150.798 192.399 150.498C193.699 150.298 195.099 150.098 196.399 149.798L198.399 149.398C199.099 149.298 199.699 149.098 200.199 148.898C200.699 148.698 200.999 148.498 201.199 148.298C201.399 148.098 201.599 147.798 201.699 147.398C201.899 146.498 201.799 145.398 201.499 144.398C200.799 142.298 199.099 140.498 196.899 138.998C196.199 138.498 195.299 138.398 194.499 137.598C193.699 136.898 192.499 136.398 191.399 135.898C190.399 135.398 189.299 135.098 188.399 134.498C184.599 132.298 180.099 131.298 175.899 130.298C171.699 129.298 167.299 128.798 163.099 129.398C161.799 129.598 160.599 129.898 159.499 130.298C158.399 130.698 157.399 131.198 156.399 131.898C155.499 132.398 154.799 133.398 153.599 133.698C153.199 133.698 152.699 134.798 152.099 135.398L151.799 135.698L151.299 136.098L150.199 136.998L149.099 137.798L148.499 138.198C148.299 138.298 148.199 138.398 147.999 138.498C147.499 137.798 146.899 136.998 146.399 136.298C146.399 136.298 146.199 136.198 146.199 136.098L145.999 135.998C145.899 135.998 145.799 135.898 145.599 135.898C144.799 135.598 143.699 135.498 142.499 135.498C141.299 135.498 139.999 135.498 138.799 135.698C137.299 135.898 135.899 136.298 134.399 136.598C132.899 136.998 131.399 137.398 129.899 137.798C127.999 138.398 126.099 138.898 124.399 139.898C122.599 140.798 120.999 142.298 119.399 143.398C116.299 145.398 114.199 148.598 112.699 151.798C111.999 153.398 111.999 154.198 112.699 155.898C113.499 157.498 114.399 159.198 115.399 160.698C116.599 162.398 117.299 164.298 118.699 165.798C119.299 166.498 119.099 168.498 118.499 168.498C118.399 168.498 118.199 168.498 117.999 168.398C116.199 167.198 114.399 165.998 112.999 163.898C111.999 162.398 110.999 160.798 110.199 159.098C109.799 158.298 109.399 157.498 108.999 156.498C108.599 155.498 108.299 154.298 108.499 152.998V153.098Z" fill="black"/>
<path d="M136.001 127.101C135.601 127.101 135.101 127.201 134.701 127.401C134.501 127.401 134.301 127.201 134.301 127.801C134.301 128.101 134.001 127.501 133.801 127.601C133.401 127.801 133.001 127.801 132.601 127.901C132.201 128.101 131.901 128.401 131.601 128.501C131.201 128.701 130.801 128.501 130.501 128.901C130.301 129.301 129.901 128.901 129.601 129.101C129.301 129.301 129.001 129.501 128.701 129.401C128.401 129.401 128.101 129.201 127.901 129.401C127.801 129.501 127.801 129.901 127.601 129.901C127.501 129.901 127.201 129.701 127.301 130.401C127.301 130.401 127.301 130.401 127.101 130.401C126.801 130.101 126.601 130.201 126.601 130.401C126.601 130.701 126.501 130.701 126.401 130.801C126.101 131.001 125.801 131.101 125.501 131.201C125.301 131.201 124.901 131.201 124.701 131.201C124.401 131.201 124.301 131.601 124.001 131.401C123.701 131.201 123.501 131.401 123.201 131.401C123.101 131.401 122.801 131.301 123.001 131.901C122.301 131.301 122.401 132.501 122.001 132.501C121.601 132.501 121.301 132.801 120.901 133.001C120.901 133.001 120.601 133.001 120.801 133.401C120.801 133.601 120.801 133.601 120.701 133.601C120.101 133.201 120.001 133.601 119.701 133.701C119.301 133.701 119.201 134.201 118.601 134.001C118.401 133.901 118.101 134.001 118.301 134.501C118.301 134.801 118.101 134.601 118.001 134.801V135.201C118.001 135.201 117.701 135.101 117.601 135.101C117.601 135.901 116.601 135.501 116.301 135.901C116.001 136.301 115.501 136.601 115.001 136.801C114.701 136.901 114.401 136.901 113.501 136.101C113.101 135.701 112.801 135.301 112.701 135.001C112.701 134.801 112.601 134.501 112.701 134.401C112.701 134.201 112.901 134.001 112.901 133.801C113.101 133.401 113.001 132.801 113.501 132.801C113.601 132.801 113.501 132.501 113.901 132.801H114.001C114.001 131.901 114.701 132.001 115.101 131.701C115.401 131.401 115.401 130.701 116.001 130.701C115.901 130.001 116.201 130.001 116.501 130.001C117.601 130.101 118.101 129.301 118.901 129.001C119.701 128.701 120.401 128.201 121.201 127.901C121.301 127.901 121.201 127.501 121.601 127.601C121.901 127.801 122.001 127.501 122.101 127.401C122.301 127.401 122.401 127.101 122.601 127.201C123.501 127.501 123.901 126.901 124.601 126.701C125.201 126.501 125.901 126.301 126.401 126.001C126.701 125.801 127.001 125.301 127.401 125.301C127.601 125.301 127.601 124.901 128.001 125.401C128.001 125.501 128.101 125.101 128.201 125.001C128.401 124.901 128.701 124.801 129.001 124.701C129.401 124.601 129.801 124.501 130.101 124.401C130.301 124.301 130.501 124.001 130.701 123.901C130.901 123.801 131.201 123.701 131.401 123.701C131.701 123.701 132.101 123.801 132.401 123.801C132.701 123.801 133.001 123.401 133.401 123.601C134.101 124.001 134.601 123.601 135.201 123.601C135.801 123.601 136.301 123.501 136.901 123.301C137.201 123.201 137.601 123.601 137.901 123.601C138.001 123.601 138.401 125.001 138.501 125.501V125.701C138.301 126.201 138.101 127.001 137.801 127.001C137.301 127.001 136.801 127.101 136.301 127.201L136.001 127.101Z" fill="black"/>
<path d="M138.4 115.002C140.1 113.302 141.9 111.602 143.4 109.802V109.601C143.5 109.601 143.6 109.601 143.6 109.601C143.6 109.601 143.6 109.602 143.7 109.502C143.7 109.502 143.8 109.301 143.7 109.201C143.7 109.201 143.6 109.201 143.5 109.201C143.3 109.201 143.5 109.202 143.5 109.002C143.5 108.902 143.5 108.701 143.5 108.601H143.3H143.1C143.1 108.601 143.1 108.601 143 108.601C143 108.601 143 108.601 142.8 108.601H142.5H142.1H141.4C140.9 108.601 140.4 108.602 140 108.502C139.1 108.402 138.4 108.202 137.8 107.902L136.8 107.502L136.2 107.302C136 107.302 136 107.102 135.8 107.002V106.802C136.8 105.302 137.6 103.902 138.8 102.302L141.2 99.1015C141.8 98.3015 142.4 97.5015 142.9 96.7015C143.4 95.9015 143.7 95.0015 143.7 94.2015C143.7 93.5015 143.7 93.0015 143.7 92.4015C143.7 91.8015 143.5 91.2015 143.1 90.6015C142.3 89.4015 141.1 88.3015 139.9 87.2015C139.1 86.4015 138.1 85.7015 136.9 85.3015C136.2 85.1015 135.4 85.3015 134.7 85.0015C134 84.8015 133.2 84.4015 132.4 85.0015C132.4 85.0015 132 84.9015 131.9 84.8015C131.1 84.3015 130.1 84.3015 129.4 84.6015C128.7 84.9015 128.1 84.9015 127.5 85.0015C125.8 85.2015 124 85.5015 122.3 85.9015C121 86.2015 119.6 86.3015 118.4 86.7015C117.1 87.1015 115.9 87.9015 114.7 88.2015C113.5 88.5015 112.5 89.2015 111.6 90.0015C111.1 90.4015 110.4 90.8015 110.5 91.6015C110.5 91.6015 110.4 91.9015 110.3 91.9015C109.4 92.4015 109 93.3015 108.8 94.1015C108.6 95.0015 108.6 95.9015 108.4 96.7015C108.2 97.6015 108.3 98.5015 108.6 99.3015C108.6 99.5015 108.8 99.7015 108.8 99.9015L109.1 100.502C109.2 100.702 109.3 101.001 109.4 101.201C109.7 102.201 109.6 103.301 109.1 104.201C108.6 105.201 107.6 105.802 106.8 106.601C106.7 106.701 106.2 107.001 106 107.101C105.7 107.201 105.4 107.301 105.3 107.201C104.8 107.201 104.5 107.201 104.1 107.201C103.7 107.201 103.4 107.402 103.1 107.502C102.4 107.802 101.9 108.201 101.3 108.601C100.6 109.001 99.9996 109.702 99.4996 110.302C98.9996 110.902 98.5996 111.502 98.1996 112.002C97.7996 112.402 97.7996 113.201 98.5996 113.602C98.8996 113.701 98.9996 114.502 99.4996 114.902C99.8996 115.302 100.4 115.502 100.8 116.002C101.1 116.402 101.3 116.902 101.5 117.402C101.5 117.502 101.7 117.702 101.8 117.802C104.2 119.502 105.4 122.102 107.7 123.701C109.9 125.301 112.2 126.801 114.7 127.701C116.1 128.201 117.4 128.701 118.4 129.901C118.8 130.501 118.8 131.002 118.1 131.302C117.6 131.502 116.9 131.602 116.3 131.602C115.3 131.602 114.3 131.402 113.4 131.102C111.5 130.602 109.4 130.202 107.8 128.802C107.3 128.402 106.5 128.202 106.4 127.402C106.4 127.302 106.2 127.102 106.1 127.102C103.4 126.002 101.8 123.602 99.8996 121.701C99.0996 120.902 98.1996 120.102 97.3996 119.302C96.5996 118.502 95.6996 117.702 95.0996 116.302C94.3996 115.802 93.8996 114.902 93.6996 113.802C93.4996 112.702 93.6996 111.501 94.0996 110.701C94.7996 109.201 95.6996 108.101 96.5996 107.201C97.4996 106.301 98.4996 105.401 99.5996 104.701C100.7 104.001 101.9 103.402 103.1 103.002C103.7 102.802 104.3 102.702 104.6 102.502H104.7C104.7 102.502 104.7 102.502 104.8 102.502C104.8 102.502 104.9 102.301 104.9 102.201V102.101L104.7 101.701C104.2 100.401 103.9 98.9015 103.9 97.5015C103.9 94.7015 104.9 92.1015 106.4 89.9015C106.9 89.2015 107.1 88.3015 108.1 87.7015C109 87.2015 109.8 86.2015 110.7 85.6015C111.5 85.0015 112.4 84.4015 113.3 84.1015C117.1 83.0015 120.5 81.7015 124.1 81.1015C127.7 80.5015 131.6 80.4015 135.4 81.1015C137.7 81.5015 140.1 82.1015 142.2 83.5015C143 84.1015 144.2 84.6015 144.5 85.7015C144.5 86.0015 145.6 86.4015 146.1 87.0015C147.2 88.3015 148.1 90.1015 148.4 92.0015C148.6 93.4015 148.4 94.7015 148.1 96.0015C147.8 97.2015 147.3 98.3015 146.7 99.4015C146 100.702 145.3 101.902 144.5 102.902L143.9 103.701L143.6 104.101C143.6 104.101 143.4 104.102 143.3 104.302C143.1 104.402 143.3 104.501 143.3 104.601C143.3 104.601 143.4 104.601 143.5 104.601C143.5 104.601 143.5 104.601 143.6 104.601C143.6 104.601 144 104.601 144.4 104.701C144.6 104.701 144.7 104.702 144.9 104.802C145.1 104.802 145.3 104.902 145.5 105.002C145.9 105.102 146.2 105.302 146.5 105.601C147.1 106.001 147.7 106.602 147.9 107.302C148.2 108.002 148.4 108.702 148.3 109.402C148.3 110.502 147.7 111.502 146.9 112.402C146.5 112.802 146.4 113.001 146.1 113.201L145.4 113.902C144.5 114.902 143.6 115.902 142.6 116.802C140.4 118.902 138 121.002 135.7 123.102C134.4 124.302 132.8 124.902 131.4 125.902C130.8 126.402 129 125.902 129 125.201C129 125.102 129 124.902 129.1 124.802C130.2 123.502 130.9 122.002 132.4 120.902C134.6 119.202 136.6 117.402 138.6 115.502L138.4 115.002Z" fill="black"/>
<path d="M136.801 133.998C136.801 133.798 136.801 133.698 136.801 133.498C136.801 133.498 137.001 133.398 136.501 133.298C136.201 133.298 136.901 133.298 136.801 133.198C136.801 133.098 136.801 132.898 136.801 132.798C136.801 132.698 136.501 132.498 136.501 132.398C136.501 132.298 136.701 132.098 136.501 131.998C136.201 131.898 136.701 131.798 136.501 131.698C136.401 131.598 136.301 131.498 136.501 131.298C136.701 131.298 136.901 131.098 136.801 130.998C136.801 130.998 136.401 130.998 136.401 130.898C136.401 130.898 136.701 130.798 136.101 130.798C136.101 130.798 136.101 130.798 136.201 130.798C136.601 130.798 136.601 130.598 136.201 130.598C135.901 130.598 136.001 130.598 135.901 130.498C135.901 130.398 135.901 130.298 135.901 130.198C135.901 130.198 136.201 129.998 136.201 129.898C136.201 129.898 136.001 129.698 136.201 129.598C136.501 129.498 136.501 129.398 136.501 129.298C136.501 129.298 136.801 129.198 136.101 129.298C136.901 129.098 135.801 129.098 136.001 128.898C136.201 128.698 136.001 128.598 136.001 128.498C136.001 128.498 136.201 128.398 135.701 128.498C135.501 128.498 135.501 128.498 135.701 128.498C136.301 128.298 135.901 128.198 136.001 128.098C136.001 127.998 135.801 127.898 136.201 127.698C136.401 127.698 136.501 127.498 135.901 127.598C135.601 127.598 135.901 127.598 135.901 127.498H135.601C135.601 127.498 135.801 127.398 135.901 127.298C135.201 127.298 136.001 126.898 135.901 126.798C135.701 126.698 135.701 126.498 135.801 126.298C135.801 126.198 136.001 125.998 137.101 125.698C137.601 125.498 138.101 125.398 138.501 125.398C138.701 125.398 139.001 125.398 139.001 125.398C139.101 125.398 139.301 125.398 139.401 125.498C139.601 125.498 140.201 125.498 139.901 125.798C139.901 125.798 140.101 125.798 139.601 125.998C140.401 125.998 140.001 126.298 140.001 126.498C140.001 126.598 140.701 126.698 140.501 126.898C141.101 126.898 141.001 126.898 140.901 127.098C140.301 127.498 140.901 127.798 140.801 128.098C140.801 128.398 140.801 128.698 140.901 129.098C140.901 129.098 141.301 129.098 140.901 129.298C140.601 129.298 140.901 129.398 140.901 129.498C140.901 129.498 141.101 129.598 140.901 129.698C140.301 129.998 140.701 130.198 140.601 130.498C140.601 130.798 140.601 130.998 140.601 131.198C140.701 131.298 141.101 131.498 140.901 131.598C140.901 131.598 141.201 131.698 140.601 131.798C140.401 131.798 140.901 131.798 140.901 131.898C140.901 131.998 140.901 132.098 140.901 132.198C140.901 132.298 140.901 132.498 140.901 132.598C140.901 132.598 141.201 132.798 141.201 132.898C141.201 132.898 141.201 133.098 141.201 133.198C141.201 133.298 140.901 133.398 140.901 133.598C140.901 133.698 141.101 133.898 140.901 133.998C140.401 134.198 140.601 134.398 140.601 134.598C140.601 134.798 140.501 134.998 140.601 135.198C140.601 135.298 140.201 135.398 140.201 135.498C140.201 135.498 138.701 135.498 138.201 135.498H138.001C137.501 135.398 136.801 135.198 136.901 135.098C136.901 134.898 136.901 134.798 136.901 134.598L136.801 133.998Z" fill="black"/>
<path d="M116.599 144.601C116.599 144.401 116.499 144.301 116.299 144.101C116.299 144.101 116.399 143.901 115.899 144.101C115.599 144.101 116.199 143.801 116.099 143.801C115.999 143.701 115.999 143.501 115.799 143.401C115.699 143.301 115.399 143.301 115.299 143.101C115.199 143.001 115.299 142.701 114.999 142.701C114.699 142.701 114.999 142.401 114.999 142.301C114.799 142.301 114.699 142.101 114.799 141.901C114.899 141.701 115.099 141.601 114.899 141.501H114.499C114.499 141.501 114.699 141.301 114.099 141.501C114.099 141.501 114.099 141.501 114.199 141.401C114.499 141.201 114.499 141.101 114.199 141.201C113.899 141.201 113.899 141.201 113.899 141.201C113.899 141.101 113.699 141.001 113.699 140.801C113.699 140.701 113.899 140.501 113.899 140.401C113.899 140.301 113.599 140.301 113.899 140.101C114.099 139.901 114.099 139.801 113.999 139.701C113.999 139.701 114.199 139.501 113.599 139.701C114.299 139.201 113.199 139.501 113.399 139.301C113.499 139.101 113.399 139.001 113.199 138.801C113.199 138.801 113.299 138.601 112.899 138.801C112.699 138.801 112.699 138.801 112.899 138.801C113.399 138.401 112.999 138.501 113.099 138.301C113.099 138.101 112.799 138.101 113.199 137.801C113.399 137.701 113.399 137.501 112.899 137.801C112.599 137.801 112.899 137.801 112.799 137.701C112.799 137.701 112.499 137.701 112.399 137.701C112.399 137.701 112.599 137.501 112.699 137.501C111.999 137.501 112.699 137.001 112.499 136.901C112.299 136.801 112.199 136.501 112.199 136.301C112.199 136.201 112.299 136.001 113.399 135.501C113.899 135.301 114.399 135.101 114.699 135.001C114.899 135.001 115.199 134.901 115.199 135.001C115.299 135.001 115.499 135.001 115.599 135.001C115.799 135.001 116.399 135.001 116.199 135.201C116.199 135.201 116.399 135.201 115.999 135.401C116.799 135.301 116.399 135.601 116.499 135.801C116.599 135.901 117.199 135.801 117.099 136.101C117.699 135.901 117.699 136.101 117.499 136.201C116.999 136.701 117.499 136.801 117.499 137.101C117.499 137.401 117.799 137.701 117.799 137.901C117.799 137.901 118.199 137.901 117.899 138.001C117.699 138.201 117.899 138.101 117.899 138.201C117.899 138.201 118.099 138.201 117.899 138.401C117.399 138.901 117.899 138.901 117.899 139.201C117.899 139.401 117.899 139.701 118.199 139.801C118.399 139.801 118.699 139.801 118.699 140.001C118.699 140.001 118.999 140.001 118.499 140.301C118.399 140.301 118.799 140.301 118.799 140.301C118.799 140.301 118.899 140.501 118.999 140.601C118.999 140.701 118.999 140.901 119.199 141.001C119.199 141.001 119.499 141.001 119.599 141.001C119.599 141.001 119.699 141.101 119.699 141.201C119.699 141.301 119.599 141.501 119.599 141.701C119.599 141.801 119.899 141.801 119.699 142.001C119.399 142.401 119.699 142.501 119.699 142.701C119.699 142.901 119.799 143.101 119.999 143.201C120.099 143.201 119.699 143.601 119.799 143.701C119.799 143.701 118.599 144.501 118.099 144.801H117.899C117.399 144.901 116.799 145.201 116.699 145.101C116.699 144.901 116.499 144.701 116.399 144.601H116.599Z" fill="black"/>
</svg>
