<svg width="300" height="300" viewBox="0 0 300 300" fill="none" xmlns="http://www.w3.org/2000/svg">
<path d="M189.2 115.401C188.4 114.501 187.6 113.601 186.7 112.701C186.4 112.401 186.3 111.901 185.5 111.901C185.1 111.901 185.3 111.201 185 110.901C184.2 110.101 183.5 109.201 182.6 108.401C181.8 107.601 180.9 107.001 180.1 106.201C179.3 105.401 178.8 104.401 177.8 103.901C177 103.401 176.8 102.501 176.1 101.901C175.4 101.301 174.7 100.701 174.2 99.8013C173.9 99.2013 173.6 98.6013 173.1 98.2013C172.8 97.9013 172.3 97.9013 172 97.5013C171.7 97.2013 171.6 96.7013 170.9 96.8013C170.9 96.8013 170.8 96.6013 170.8 96.5013C170.8 95.9013 170.4 95.5013 170 95.5013C169.6 95.5013 169.4 95.2013 169.2 95.0013C168.6 94.4013 168 94.0013 167.4 93.5013C167 93.2013 166.7 92.7013 166.2 92.5013C165.7 92.2013 165 92.3013 164.5 91.9013C164 91.5013 163.4 91.4013 162.8 91.4013C162.5 91.4013 162.1 91.0013 161.7 91.7013H161.5C160.5 90.8013 159.4 91.9013 158.4 91.7013C157.3 91.5013 156.2 91.7013 155.1 91.7013C154.8 91.7013 154.5 91.5013 154.2 92.0013C154.2 92.2013 153.8 92.2013 153.6 92.0013C152.8 91.4013 151.9 91.8013 151.1 91.8013C150.1 91.8013 149.2 92.1013 148.2 91.8013C147.8 91.6013 147.2 91.6013 146.8 92.2013C146.6 92.5013 146.1 92.2013 145.8 92.4013C145.5 92.4013 145.3 92.8013 145 92.8013C144.8 92.8013 144.5 92.6013 144.2 92.6013H144C142.7 93.5013 141.2 92.8013 139.9 93.3013C138.6 93.8013 137.1 94.0013 135.7 94.3013C134.9 94.4013 134.1 94.5013 133.3 93.5013C132.9 93.1013 132.8 92.5013 133 92.1013C133.2 91.8013 133.4 91.5013 133.7 91.4013C134.1 91.2013 134.5 90.9013 135 90.7013C135.9 90.3013 136.7 89.5013 137.7 89.6013C138 89.6013 138.3 89.3013 138.7 89.6013H138.9C140 88.5013 141.5 88.8013 142.8 88.5013C143.9 88.3013 144.9 87.5013 146.1 87.6013C146.6 86.9013 147.4 86.9013 148.1 87.0013C150.4 87.4013 152.6 86.8013 154.9 86.8013C157.2 86.8013 159.5 86.8013 161.8 86.8013C162.2 86.8013 162.6 86.5013 163 86.8013C163.4 87.1013 164 87.0013 164.6 87.0013C165.1 87.0013 165.6 87.0013 166.1 87.3013C167 87.9013 167.9 88.2013 168.9 88.7013C169.8 89.2013 170.7 89.7013 171.5 90.3013C173 91.6013 174.1 93.0013 175.4 94.1013C176.2 94.8013 177.2 95.3013 177.8 96.2013C178.1 96.6013 178.6 96.7013 178.5 97.4013C178.5 97.6013 179.1 97.6013 179.3 97.8013C179.8 98.3013 180.3 98.9013 180.8 99.4013C181.5 100.101 182.2 100.901 182.9 101.601C183.3 102.001 183.9 102.301 184.4 102.701C184.9 103.101 185.3 103.601 185.7 104.101C186.2 104.801 186.6 105.501 187.1 106.101C187.6 106.801 188.4 107.201 188.8 108.001C189.5 109.501 190.7 110.401 191.7 111.501C192.7 112.601 193.7 113.801 194.8 114.801C195.4 115.401 195.6 116.301 196.2 116.901C196.8 117.501 195.7 118.601 195.3 118.801C195.3 118.801 195.1 118.801 195 118.801C194.1 118.501 193.1 118.501 192.5 117.801C191.6 116.701 190.6 115.801 189.7 114.801L189.2 115.401Z" fill="black"/>
<path d="M173.8 124.502C174.2 124.302 174.5 124.202 174.9 123.902C175 123.902 175.3 123.902 175.2 123.402C175.2 123.102 175.6 123.602 175.7 123.602C176 123.402 176.4 123.302 176.7 123.102C177 122.902 177.2 122.502 177.5 122.302C177.8 122.102 178.3 122.302 178.5 121.802C178.7 121.402 179.1 121.802 179.3 121.502C179.5 121.302 179.8 121.102 180.2 121.202C180.5 121.202 180.8 121.402 180.9 121.202C180.9 121.102 180.9 120.702 181.1 120.702C181.2 120.702 181.5 120.902 181.4 120.202C181.4 120.202 181.4 120.202 181.6 120.202C181.9 120.502 182.1 120.402 182.1 120.202C182.1 119.902 182.2 119.902 182.3 119.802C182.6 119.702 182.9 119.502 183.2 119.502C183.4 119.502 183.7 119.502 184 119.502C184.2 119.502 184.4 119.102 184.7 119.302C185 119.502 185.2 119.402 185.4 119.302C185.5 119.302 185.8 119.502 185.6 118.802C186.2 119.502 186.2 118.302 186.6 118.402C187 118.402 187.3 118.202 187.7 118.102C187.7 118.102 188 118.202 187.9 117.702C187.9 117.502 187.9 117.502 188.1 117.602C188.6 118.102 188.7 117.602 189 117.602C189.3 117.602 189.6 117.202 190 117.602C190.2 117.802 190.4 117.802 190.4 117.202C190.4 116.902 190.6 117.202 190.7 117.002C190.7 117.002 190.7 116.602 190.9 116.602C190.9 116.602 191.1 116.802 191.2 116.902C191.5 116.102 192.2 116.902 192.6 116.502C193 116.202 193.5 116.102 194 116.102C194.3 116.102 194.6 116.102 195.1 117.202C195.3 117.702 195.5 118.202 195.4 118.602C195.4 118.902 195.4 119.102 195.3 119.202C195.2 119.302 195.1 119.502 195 119.602C194.8 119.902 194.6 120.502 194.3 120.302C194.2 120.302 194.2 120.602 193.9 120.102C193.7 121.002 193.2 120.602 192.8 120.802C192.5 121.002 192.3 121.702 191.9 121.502C191.9 122.202 191.7 122.102 191.4 122.002C190.5 121.602 190 122.202 189.3 122.402C188.6 122.502 188 122.902 187.3 123.102C187.2 123.102 187.3 123.502 187 123.302C186.8 123.102 186.7 123.302 186.5 123.402C186.4 123.402 186.3 123.602 186.1 123.502C185.3 123.102 185 123.702 184.4 123.802C183.9 123.902 183.3 124.102 182.9 124.502C182.6 124.702 182.5 125.202 182.1 125.202C181.9 125.202 181.9 125.602 181.6 125.102C181.5 125.002 181.6 125.402 181.5 125.502C181.3 125.602 181.1 125.702 180.9 125.802C180.6 125.902 180.3 126.002 180 126.202C179.8 126.302 179.8 126.602 179.6 126.802C179.4 126.902 179.3 127.002 179 127.102C178.7 127.102 178.4 127.102 178.1 127.102C177.8 127.102 177.7 127.502 177.3 127.402C176.6 127.202 176.3 127.602 175.9 127.802C175.4 128.002 175 128.102 174.6 128.502C174.4 128.702 173.9 128.402 173.7 128.502C173.6 128.502 172.8 127.302 172.6 126.902V126.702C172.6 126.202 172.5 125.402 172.8 125.302C173.2 125.202 173.6 124.902 174 124.702L173.8 124.502Z" fill="black"/>
<path d="M154.4 118.3C154.4 118.1 154.4 117.9 154.4 117.8C154.4 117.8 154.6 117.7 154.1 117.6C153.8 117.6 154.5 117.5 154.4 117.4C154.4 117.2 154.4 117.1 154.4 116.9C154.4 116.7 154.1 116.6 154.1 116.4C154.1 116.2 154.4 116.1 154.1 115.9C153.8 115.7 154.3 115.7 154.2 115.5C154.1 115.4 154 115.2 154.2 115.1C154.4 115.1 154.6 114.9 154.5 114.8C154.5 114.8 154.1 114.6 154.2 114.6C154.2 114.6 154.5 114.6 153.9 114.4C153.9 114.4 153.9 114.4 154.1 114.4C154.5 114.4 154.5 114.4 154.2 114.2C153.9 114.2 154 114.1 154 114C154 113.9 154 113.7 154 113.6C154 113.6 154.3 113.4 154.4 113.4C154.4 113.4 154.2 113.1 154.5 113.1C154.8 113.1 154.8 113 154.8 112.9C154.8 112.9 155.1 112.9 154.5 112.7C155.3 112.7 154.3 112.3 154.5 112.2C154.7 112.1 154.6 111.9 154.7 111.7C154.7 111.7 154.9 111.7 154.5 111.5C154.3 111.4 154.3 111.5 154.5 111.5C155.1 111.5 154.8 111.3 154.9 111.2C155.1 111.1 154.9 110.9 155.3 110.9C155.5 110.9 155.6 110.9 155.1 110.6C154.9 110.5 155.1 110.6 155.1 110.4L154.8 110.2C154.8 110.2 155 110.2 155.2 110.2C154.6 109.8 155.6 109.9 155.5 109.6C155.5 109.3 155.5 109.2 155.7 109C155.7 109 156 108.9 157.1 109.2C157.6 109.4 158.1 109.6 158.4 109.8C158.6 109.9 158.8 110 158.8 110.1C158.8 110.1 159 110.3 159 110.4C159.1 110.6 159.6 110.9 159.3 110.9C159.3 110.9 159.5 111.1 159 110.9C159.7 111.3 159.1 111.3 159.1 111.5C159.1 111.6 159.7 112 159.4 112C160 112.3 159.8 112.3 159.6 112.3C158.9 112.3 159.2 112.7 159.1 113C158.9 113.2 159 113.5 158.9 113.8C158.9 113.8 159.2 114 158.9 114C158.6 114 158.9 114.1 158.9 114.2C158.9 114.2 159 114.3 158.9 114.4C158.2 114.4 158.6 114.8 158.5 115C158.5 115.2 158.3 115.4 158.5 115.6C158.5 115.7 158.9 115.9 158.8 116C158.8 116 159.1 116.1 158.5 116.1C158.3 116.1 158.8 116.1 158.8 116.2C158.8 116.2 158.8 116.4 158.8 116.5C158.8 116.6 158.8 116.7 158.8 116.9L159.1 117.1V117.3C159.1 117.3 158.8 117.5 158.7 117.6C158.7 117.7 158.9 117.8 158.7 117.9C158.2 118.1 158.4 118.3 158.4 118.5C158.4 118.7 158.4 118.9 158.4 119C158.4 119 158 119.2 158 119.3C158 119.3 156.5 119.5 156 119.6H155.8C155.3 119.6 154.6 119.5 154.6 119.3C154.6 119.1 154.6 118.9 154.6 118.7L154.4 118.3Z" fill="black"/>
<path d="M164.9 119.101C164.9 118.901 164.9 118.701 164.9 118.601C164.9 118.601 165.1 118.501 164.6 118.401C164.3 118.401 165 118.301 164.9 118.201C164.9 118.001 164.9 117.901 164.9 117.701C164.9 117.501 164.6 117.401 164.6 117.201C164.6 117.001 164.9 116.901 164.6 116.701C164.3 116.501 164.8 116.501 164.7 116.301C164.6 116.201 164.5 116.001 164.7 115.901C164.9 115.901 165.1 115.701 165 115.601C165 115.601 164.6 115.401 164.7 115.401C164.7 115.401 165 115.401 164.4 115.201C164.4 115.201 164.4 115.201 164.6 115.201C165 115.201 165 115.201 164.7 115.001C164.4 115.001 164.5 114.901 164.5 114.801C164.5 114.701 164.5 114.501 164.5 114.401C164.5 114.401 164.8 114.201 164.9 114.201C164.9 114.201 164.7 113.901 165 113.901C165.3 113.901 165.3 113.801 165.3 113.701C165.3 113.701 165.6 113.701 165 113.501C165.8 113.501 164.8 113.101 165 113.001C165.2 112.901 165.1 112.701 165.2 112.501C165.2 112.501 165.4 112.501 165 112.301C164.8 112.201 164.8 112.301 165 112.301C165.6 112.301 165.3 112.101 165.4 112.001C165.6 111.901 165.4 111.701 165.8 111.701C166 111.701 166.1 111.701 165.6 111.401C165.4 111.301 165.6 111.401 165.6 111.201L165.3 111.001C165.3 111.001 165.5 111.001 165.7 111.001C165.1 110.601 166.1 110.701 166 110.401C166 110.101 166 110.001 166.2 109.801C166.2 109.801 166.5 109.701 167.6 110.001C168.1 110.201 168.6 110.401 168.9 110.601C169.1 110.701 169.3 110.801 169.3 110.901C169.3 110.901 169.5 111.101 169.5 111.201C169.6 111.401 170.1 111.701 169.8 111.701C169.8 111.701 170 111.901 169.5 111.701C170.2 112.101 169.6 112.101 169.6 112.301C169.6 112.401 170.2 112.801 169.9 112.801C170.5 113.101 170.3 113.101 170.1 113.101C169.4 113.101 169.7 113.501 169.6 113.801C169.4 114.001 169.5 114.301 169.4 114.601C169.4 114.601 169.7 114.801 169.4 114.801C169.1 114.801 169.4 114.901 169.4 115.001C169.4 115.001 169.5 115.101 169.4 115.201C168.7 115.201 169.1 115.601 169 115.801C169 116.001 168.8 116.201 169 116.401C169 116.501 169.4 116.701 169.3 116.801C169.3 116.801 169.6 116.901 169 116.901C168.8 116.901 169.3 116.901 169.3 117.001C169.3 117.001 169.3 117.201 169.3 117.301C169.3 117.401 169.3 117.501 169.3 117.701L169.6 117.901V118.101C169.6 118.101 169.3 118.301 169.2 118.401C169.2 118.501 169.4 118.601 169.2 118.701C168.7 118.901 168.9 119.101 168.9 119.301C168.9 119.501 168.9 119.701 168.9 119.801C168.9 119.801 168.5 120.001 168.5 120.101C168.5 120.101 167 120.301 166.5 120.401H166.3C165.8 120.401 165.1 120.301 165.1 120.101C165.1 119.901 165.1 119.701 165.1 119.501L164.9 119.101Z" fill="black"/>
<path d="M179.3 129.201C180.2 130.201 181 131.201 181.8 132.101C182.1 132.501 182.2 133.001 183 133.001C183.4 133.001 183.2 133.801 183.5 134.101C184.3 135.001 185 136.001 185.8 136.901C186.2 137.401 186.6 137.701 187 138.201C187.6 138.901 188.2 139.601 188.9 140.501C189.9 141.701 190.6 142.901 191.5 144.201C191 144.401 190.5 144.501 190.1 144.701C189.4 145.001 188.5 145.201 187.7 145.401C186.8 145.501 186 145.701 185.3 145.901C185.1 145.901 184.9 146.001 184.7 146.101H184.2C184 146.301 183.7 146.401 183.4 146.401C182.9 146.501 182.4 146.501 181.9 146.401C181.2 146.401 180.4 146.201 179.7 146.401C179.3 146.501 178.9 146.901 178.4 146.901C177.9 146.901 177.4 146.701 177 147.301C177 147.301 176.8 147.301 176.7 147.201C176.2 146.801 175.6 146.901 175.2 147.201C174.8 147.501 174.4 147.401 174.1 147.401C173.1 147.401 172 147.401 171 147.201C170.2 147.101 169.5 146.801 168.7 146.601C167.9 146.501 167 146.601 166.3 146.201C165.6 145.801 164.9 145.601 164.2 145.501C163.8 145.501 163.4 145.001 162.9 145.501C162.9 145.501 162.7 145.501 162.6 145.501C161.7 144.401 160.3 145.101 159.2 144.501C158.1 143.901 156.8 143.601 155.7 143.101C155.4 143.001 155.1 142.601 154.7 142.901C154.5 142.901 154.2 142.901 154.1 142.601C153.6 141.601 152.5 141.401 151.7 140.801C150.8 140.101 149.8 139.601 149.2 138.501C149 138.001 148.6 137.501 147.8 137.501C147.4 137.501 147.2 136.901 146.9 136.601C146.6 136.401 146.2 136.301 146 136.001C145.8 135.801 145.8 135.401 145.7 135.101C145.7 135.101 145.7 134.901 145.5 134.901C144.8 134.401 144.3 133.601 144.1 132.801L143.7 131.601C143.6 131.201 143.5 130.801 143.3 130.401C142.5 128.901 142.2 127.101 142.1 125.401C142.1 124.501 142.2 123.501 143.3 122.901C143.8 122.601 144.4 122.601 144.7 122.901C145 123.201 145.2 123.401 145.3 123.701C145.4 124.201 145.5 124.601 145.7 125.001C145.9 125.401 146.1 125.901 146.3 126.301C146.5 126.701 146.7 127.101 146.7 127.601C146.7 127.901 147 128.101 146.7 128.501V128.701C147.3 129.101 147.5 129.701 147.8 130.201C147.9 130.501 148 130.801 148.1 131.101C148.2 131.401 148.4 131.701 148.6 131.901C148.9 132.301 149.3 132.701 149.7 133.001C150.1 133.301 150.5 133.601 150.8 134.101C151.6 134.101 152 134.601 152.3 135.101C153.4 137.001 155.5 137.801 157.4 138.801C159.3 139.801 161.4 140.501 163.6 141.101C164 141.101 164.4 140.901 164.7 141.301C165 141.701 165.6 141.601 166.1 141.701C166.5 141.701 167 141.701 167.4 142.001C169 143.001 170.9 142.801 172.6 142.901C174.3 143.101 176.1 143.101 177.9 142.901C179 142.701 180 142.301 181 142.301C181.5 142.301 181.9 141.901 182.4 142.301C182.6 142.401 182.9 141.901 183.2 141.801H183.6C183.6 141.701 183.8 141.701 183.8 141.701C183.9 141.701 184.1 141.701 184.2 141.701C184.2 141.701 184.2 141.601 184 141.501C183.9 141.401 183.5 141.301 183.4 141.301C183.4 141.301 183.3 141.301 183.2 141.101L183 140.901L182.7 140.501C182.2 139.801 181.9 139.001 181.4 138.301C180.9 137.601 180.1 137.001 179.8 136.201C179.2 134.701 178 133.601 177 132.401C176 131.201 175 130.001 173.9 128.901C173.3 128.301 173.1 127.401 172.5 126.701C172.2 126.401 172.9 125.001 173.4 124.801C173.4 124.801 173.6 124.801 173.7 124.801C174.6 125.101 175.7 125.201 176.3 125.901C177.2 127.001 178.3 128.101 179.2 129.201H179.3Z" fill="black"/>
<path d="M167.701 164.201L168.201 163.201C168.201 163.001 168.301 162.901 168.401 162.701C168.401 162.701 168.801 162.201 168.101 162.701C167.701 162.901 168.701 162.201 168.701 162.101V162.001H168.501C168.301 162.101 168.201 162.201 168.001 162.201C167.801 162.201 167.701 162.401 167.501 162.501H167.301C167.001 162.501 166.701 162.601 166.401 162.601C165.201 162.701 164.101 162.401 163.001 162.601C162.001 162.801 161.301 162.101 160.401 162.001C159.401 161.901 158.501 161.701 157.701 161.101C157.101 160.701 156.601 160.201 156.001 160.101C155.601 160.001 155.101 160.101 154.701 159.901C154.301 159.701 154.101 159.201 153.401 159.601C153.401 159.601 153.201 159.401 153.201 159.301C153.001 158.701 152.601 158.401 152.101 158.501C151.601 158.501 151.401 158.301 151.101 158.101C150.301 157.601 149.601 157.001 148.901 156.401C148.401 155.901 148.001 155.301 147.601 154.701C147.101 154.201 146.401 153.801 146.201 153.101C146.001 152.401 145.501 152.001 145.101 151.501C144.901 151.201 144.801 150.701 144.101 150.901C144.101 150.901 144.001 150.901 144.001 150.701C144.001 149.401 142.501 149.201 142.001 148.101C141.601 147.001 140.801 146.001 140.401 144.901C140.301 144.601 140.401 144.201 139.801 144.101C139.601 144.101 139.501 143.701 139.601 143.501C139.801 143.001 139.701 142.501 139.601 142.101C139.501 141.701 139.301 141.201 139.301 140.801C139.301 140.301 139.201 139.801 139.201 139.301C139.201 138.801 139.201 138.301 139.401 137.801C139.601 137.401 139.701 136.801 139.201 136.301C138.901 136.101 139.201 135.601 139.201 135.201C139.201 134.901 138.901 134.601 139.001 134.301C139.001 134.001 139.301 133.801 139.401 133.601V133.401C139.001 131.901 140.101 130.701 140.301 129.301C140.501 127.901 140.901 126.601 141.501 125.301C141.801 124.601 142.201 123.901 143.401 123.801C144.001 123.801 144.501 123.901 144.701 124.301C144.901 124.601 145.001 124.901 145.001 125.201C145.001 125.601 145.001 126.101 145.001 126.501C145.001 127.401 145.201 128.301 144.701 129.101C144.501 129.301 144.701 129.701 144.201 129.801C144.201 129.801 144.101 129.901 144.101 130.001C144.601 131.301 143.801 132.301 143.701 133.501C143.601 134.501 144.101 135.501 143.701 136.401C144.301 137.001 144.201 137.501 144.001 138.001C143.301 139.801 144.001 141.601 144.601 143.201C145.101 144.901 146.201 146.401 147.401 147.901C147.601 148.201 148.101 148.201 148.101 148.601C148.101 149.101 148.601 149.301 148.901 149.601C149.201 149.901 149.501 150.101 149.701 150.501C150.301 152.101 151.701 152.901 152.901 153.901C154.001 154.901 155.301 155.801 156.701 156.401C157.601 156.701 158.501 156.801 159.301 157.201C159.601 157.401 160.101 157.201 160.301 157.901C160.301 158.101 160.801 157.801 161.101 157.901C161.701 158.001 162.301 158.201 162.901 158.301C163.701 158.401 164.601 158.601 165.401 158.501C165.901 158.501 166.401 158.201 166.901 158.101C167.001 158.101 167.201 158.101 167.301 158.101H167.401H167.501L167.901 158.001L168.801 157.801C169.101 157.801 169.401 157.801 169.701 157.601C170.501 157.401 171.301 157.201 172.101 156.901C172.901 156.701 173.601 156.501 174.401 156.201C174.701 156.101 175.101 156.001 175.401 155.801V156.301V156.601V157.001C175.101 157.501 175.001 158.101 174.701 158.701C174.001 160.101 173.601 161.101 173.301 162.201C172.901 163.201 172.501 164.401 172.001 165.401C171.301 166.701 170.601 168.001 169.901 169.301C169.501 170.001 168.701 170.401 168.201 171.001C168.001 171.301 166.501 170.801 166.201 170.401C166.201 170.401 166.101 170.201 166.101 170.101C166.101 169.201 165.901 168.301 166.401 167.601C167.101 166.601 167.701 165.501 168.201 164.501L167.701 164.201Z" fill="black"/>
<path d="M119.401 140.898C118.301 140.998 117.201 140.998 116.101 141.098C115.701 141.098 115.301 140.798 114.801 141.398C114.601 141.698 114.201 140.998 113.801 140.998C113.301 140.998 112.801 140.998 112.201 140.898C111.701 140.898 111.201 140.698 110.701 140.698C109.701 140.598 108.701 140.598 107.701 140.398C106.701 140.198 105.801 139.598 104.801 139.498C103.901 139.498 103.401 138.698 102.601 138.398C101.801 138.098 100.901 137.798 100.301 137.098C99.9008 136.598 99.5008 136.198 98.8008 135.798C98.4008 135.598 97.8008 135.498 97.4008 134.998C97.0008 134.498 96.9008 133.798 96.2008 133.398C96.2008 133.398 96.2008 132.998 96.2008 132.898C96.5008 132.198 96.4008 131.498 96.2008 131.098C96.0008 130.598 96.0008 130.298 96.1008 129.898C96.2008 128.898 96.5008 127.998 96.9008 127.098C97.2008 126.398 97.7008 125.898 98.1008 125.298C98.5008 124.698 98.7008 123.898 99.4008 123.498C100.001 123.198 100.401 122.698 100.901 122.198C101.201 121.898 101.601 121.898 101.401 121.198C101.401 121.198 101.401 120.998 101.601 120.998C102.901 120.998 103.001 119.498 104.101 119.098C105.101 118.698 106.101 118.098 107.101 117.598C107.401 117.498 107.701 117.598 107.801 116.998C107.801 116.798 108.101 116.698 108.301 116.798C109.301 117.198 110.001 116.598 110.801 116.498C111.701 116.498 112.601 115.998 113.601 116.498C114.001 116.698 114.501 116.798 115.001 116.198C115.201 115.898 115.701 116.198 116.001 116.198C116.301 116.198 116.601 115.898 116.801 115.898C117.001 115.898 117.301 116.198 117.501 116.298H117.701C119.101 115.698 120.301 116.798 121.601 116.798C122.901 116.798 124.201 117.198 125.501 117.698C126.201 117.998 127.001 118.498 126.901 119.698C126.901 120.298 126.601 120.798 126.301 120.898C126.001 120.998 125.701 121.198 125.501 121.098C125.101 121.098 124.701 121.098 124.401 121.098C123.601 121.098 122.801 121.398 122.101 120.998C121.901 120.898 121.501 121.098 121.401 120.598C121.401 120.598 121.301 120.498 121.201 120.498C120.001 121.098 119.101 120.498 118.001 120.398C117.101 120.398 116.201 120.998 115.301 120.698C114.801 121.298 114.301 121.298 113.801 121.098C112.001 120.598 110.401 121.398 108.901 121.898C107.301 122.398 105.901 123.398 104.601 124.398C104.401 124.598 104.401 124.998 104.001 124.998C103.601 124.998 103.501 125.498 103.201 125.698C103.001 125.898 102.901 126.298 102.601 126.398C101.301 127.098 101.001 128.498 100.601 129.598C100.401 130.198 100.201 130.898 100.201 131.398C100.201 131.698 100.201 131.898 100.201 131.998C100.201 132.198 100.301 132.198 100.401 132.298C100.701 132.598 101.401 132.698 102.101 133.198C102.401 133.398 102.901 133.298 102.901 133.998C102.901 134.198 103.401 133.998 103.601 133.998L105.201 134.698C105.901 134.998 106.701 135.398 107.501 135.498C108.001 135.598 108.501 135.498 109.001 135.498C109.501 135.498 110.001 135.698 110.501 135.798C111.101 135.998 111.701 136.298 112.401 136.498C113.101 136.598 113.801 136.498 114.401 136.698C115.601 137.298 116.801 136.998 118.001 136.998C118.601 136.998 119.201 136.998 119.801 136.898C120.401 136.798 121.001 136.698 121.601 136.498C122.201 136.298 123.001 136.598 123.601 136.498C123.901 136.498 124.801 137.698 124.801 138.198C124.801 138.198 124.801 138.398 124.801 138.498C124.301 139.098 123.801 140.098 122.901 140.198C121.701 140.398 120.401 140.698 119.201 140.798L119.401 140.898Z" fill="black"/>
<path d="M98.1008 203.499C98.1008 202.299 98.3008 201.199 98.4008 199.999C98.4008 199.599 98.7008 199.099 98.2008 198.599C98.0008 198.399 98.6008 197.999 98.6008 197.599C98.6008 196.499 98.8008 195.399 98.8008 194.299C98.8008 193.199 98.7008 192.199 98.8008 191.099C98.8008 189.999 99.2008 188.999 99.0008 187.899C98.8008 186.999 99.4008 186.199 99.3008 185.399C99.3008 184.499 99.3008 183.599 99.6008 182.699C99.8008 182.099 100.101 181.499 100.001 180.799C100.001 180.399 99.7008 179.999 99.7008 179.599C99.7008 179.199 100.101 178.799 99.5008 178.399C99.5008 178.399 99.5008 178.199 99.7008 178.099C100.101 177.699 100.201 177.199 99.9008 176.799C99.7008 176.399 99.7008 176.099 99.7008 175.799C99.7008 174.899 99.7008 173.999 99.9008 173.099C100.001 172.399 100.301 171.799 100.401 171.099C100.501 170.399 100.401 169.599 100.701 168.999C101.101 168.399 101.101 167.799 101.101 167.099C101.101 166.699 101.501 166.299 100.801 165.999V165.799C101.701 164.799 100.801 163.699 101.001 162.699C101.201 161.699 101.201 160.499 101.301 159.399C101.301 159.099 101.501 158.799 101.101 158.499C100.901 158.399 101.001 158.099 101.101 157.899C101.801 157.099 101.501 156.299 101.701 155.399C101.901 154.499 101.701 153.499 102.301 152.599C102.501 152.199 102.701 151.699 102.201 151.099C102.001 150.899 102.201 150.399 102.201 150.099C102.201 149.799 101.901 149.499 101.901 149.199C101.901 148.999 102.201 148.699 102.301 148.499V148.299C101.801 146.899 102.801 145.599 102.701 144.199C102.701 142.799 102.801 141.399 103.001 139.999C103.101 139.199 103.401 138.499 104.601 137.999C105.101 137.799 105.701 137.899 106.001 138.199C106.201 138.499 106.401 138.799 106.501 138.999C106.501 139.399 106.701 139.899 106.701 140.299C106.801 141.199 107.301 142.099 106.901 142.999C106.801 143.299 107.101 143.599 106.501 143.799C106.501 143.799 106.401 143.899 106.501 143.999C107.201 145.299 106.501 146.499 106.501 147.799C106.501 148.899 107.001 149.999 106.601 150.999C107.201 151.599 107.001 152.299 106.801 152.899C106.001 154.999 106.201 157.099 106.001 159.199C105.801 161.299 105.601 163.499 105.401 165.599C105.401 165.999 105.701 166.299 105.401 166.699C105.101 167.099 105.301 167.599 105.201 168.099C105.201 168.499 105.201 168.999 105.101 169.399C104.301 170.999 104.601 172.699 104.301 174.399C104.101 176.099 103.901 177.699 103.901 179.399C103.901 180.399 104.201 181.499 103.901 182.499C103.901 182.899 104.101 183.399 103.501 183.799C103.301 183.899 103.701 184.399 103.701 184.599C103.701 185.299 103.601 185.999 103.501 186.699C103.501 187.699 103.301 188.599 103.301 189.599C103.301 190.199 103.501 190.799 103.501 191.399C103.501 191.999 103.501 192.699 103.301 193.299C103.201 194.099 102.901 194.799 102.801 195.599C102.701 196.399 102.801 197.299 102.501 197.999C101.901 199.399 102.001 200.899 101.801 202.299C101.601 203.699 101.501 205.199 101.501 206.599C101.501 207.399 100.901 208.099 100.901 208.899C100.901 209.299 99.4008 209.699 98.9008 209.499C98.9008 209.499 98.7008 209.399 98.7008 209.299C98.3008 208.499 97.6008 207.699 97.8008 206.799C98.0008 205.499 98.0008 204.099 98.2008 202.799L98.1008 203.499Z" fill="black"/>
<path d="M115.8 209.801C115.5 209.801 115.2 209.801 114.9 209.801C114.8 209.801 114.7 209.601 114.6 210.101C114.6 210.401 114.4 209.701 114.3 209.801C114 209.801 113.7 209.801 113.5 209.801C113.2 209.801 113 210.101 112.7 210.101C112.4 210.101 112.2 209.901 111.9 210.101C111.7 210.401 111.5 209.901 111.3 210.001C111.1 210.101 110.8 210.201 110.6 210.001C110.4 209.801 110.3 209.601 110.1 209.701C110 209.701 109.9 210.101 109.8 210.101C109.7 210.101 109.6 209.801 109.5 210.401C109.5 210.401 109.5 210.401 109.5 210.301C109.4 209.901 109.3 209.901 109.2 210.201C109.2 210.501 109 210.401 108.9 210.501C108.7 210.501 108.4 210.501 108.2 210.501C108 210.501 107.9 210.201 107.7 210.201C107.5 210.201 107.3 210.401 107.2 210.201C107 209.901 106.9 209.901 106.7 209.901C106.7 209.901 106.5 209.601 106.4 210.201C106.1 209.401 105.9 210.501 105.6 210.201C105.3 210.001 105 210.201 104.8 210.201C104.8 210.201 104.6 210.001 104.6 210.501C104.6 210.701 104.5 210.701 104.5 210.501C104.3 209.901 104.1 210.301 103.9 210.101C103.7 210.001 103.4 210.301 103.2 209.801C103.1 209.601 103 209.501 102.8 210.101C102.8 210.401 102.6 210.101 102.5 210.101C102.5 210.101 102.4 210.401 102.3 210.401C102.3 210.401 102.2 210.201 102.1 210.101C101.7 210.801 101.4 209.901 101 210.101C100.6 210.301 100.3 210.201 99.9004 210.101C99.7004 210.101 99.5004 209.901 99.4004 208.701C99.4004 208.201 99.4004 207.601 99.4004 207.301C99.4004 207.101 99.5004 206.801 99.6004 206.801C99.7004 206.801 99.8004 206.601 99.9004 206.501C100.1 206.301 100.4 205.801 100.6 206.101C100.6 206.101 100.8 205.901 100.8 206.401C101.1 205.601 101.4 206.101 101.8 206.101C102.1 206.101 102.3 205.401 102.6 205.701C102.8 205.101 102.9 205.201 103.1 205.401C103.6 206.101 104.2 205.601 104.7 205.701C105.3 205.701 105.8 205.701 106.4 205.701C106.4 205.701 106.6 205.301 106.7 205.701C106.8 206.001 106.9 205.701 107.1 205.701C107.3 205.701 107.3 205.601 107.4 205.701C107.8 206.401 108.3 206.001 108.7 206.001C109.1 206.001 109.6 206.101 110 206.001C110.3 206.001 110.5 205.601 110.8 205.701C110.9 205.701 111 205.401 111.1 206.001C111.1 206.201 111.2 205.701 111.3 205.701C111.5 205.701 111.7 205.701 111.8 205.701C111.9 205.701 112.3 205.701 112.6 205.701C112.8 205.701 112.9 205.401 113.1 205.401C113.3 205.401 113.4 205.401 113.6 205.401C113.8 205.401 114 205.701 114.2 205.701C114.4 205.701 114.6 205.501 114.8 205.701C115.2 206.201 115.5 206.001 115.9 206.001C116.3 206.001 116.6 206.101 117 206.001C117.2 206.001 117.4 206.401 117.6 206.401C117.6 206.401 117.8 207.901 117.8 208.401V208.601C117.6 209.101 117.4 209.801 117.2 209.701C116.9 209.701 116.5 209.701 116.2 209.701L115.8 209.801Z" fill="black"/>
<path d="M115.7 208.598C115.7 208.198 115.7 207.798 115.7 207.398C115.7 207.298 115.9 207.098 115.4 206.998C115.1 206.998 115.8 206.798 115.7 206.598C115.7 206.198 115.7 205.898 115.7 205.498C115.7 205.098 115.4 204.798 115.3 204.398C115.3 203.998 115.5 203.698 115.2 203.298C114.9 202.998 115.4 202.698 115.2 202.498C115.1 202.198 115 201.898 115.2 201.598C115.4 201.398 115.6 201.198 115.5 200.898C115.5 200.798 115.1 200.698 115.1 200.498C115.1 200.398 115.4 200.198 114.7 200.098C114.7 200.098 114.7 200.098 114.8 199.998C115.2 199.798 115.2 199.698 114.8 199.598C114.5 199.498 114.6 199.398 114.5 199.298C114.5 198.998 114.5 198.698 114.5 198.398C114.5 198.198 114.8 197.898 114.8 197.698C114.8 197.498 114.6 197.198 114.8 196.998C115.1 196.798 115.1 196.598 115.1 196.298C115.1 196.198 115.4 195.998 114.7 195.898C115.5 195.498 114.4 195.198 114.7 194.898C114.9 194.498 114.7 194.198 114.7 193.798C114.7 193.798 114.9 193.598 114.4 193.498C114.2 193.498 114.2 193.398 114.4 193.298C115 192.998 114.6 192.698 114.7 192.498C114.8 192.198 114.5 191.898 115 191.598C115.2 191.498 115.3 191.298 114.7 191.198C114.4 191.198 114.7 190.998 114.7 190.898C114.7 190.898 114.4 190.798 114.3 190.698C114.3 190.698 114.5 190.498 114.6 190.498C113.9 190.298 114.6 189.798 114.4 189.498C114.1 189.298 114.1 189.098 114 188.798C114 188.698 114 188.498 114.7 187.598C115 187.198 115.4 186.698 115.7 186.598C115.9 186.498 116.2 186.398 116.3 186.498C116.5 186.498 116.7 186.598 116.9 186.698C117.3 186.898 118 186.998 117.9 187.498C117.9 187.698 118.2 187.698 117.8 187.998V188.098C118.7 188.298 118.4 188.998 118.6 189.498C118.7 189.898 119.4 190.198 119.2 190.698C119.9 190.898 119.8 191.198 119.6 191.398C119 192.198 119.5 192.898 119.4 193.598C119.4 194.298 119.4 194.998 119.4 195.798C119.4 195.898 119.8 195.998 119.4 196.198C119.1 196.298 119.4 196.498 119.4 196.698C119.4 196.798 119.5 196.998 119.4 197.098C118.8 197.698 119.2 198.198 119.1 198.798C119.1 199.398 119.1 199.898 119.1 200.498C119.2 200.798 119.6 201.198 119.5 201.498C119.5 201.598 119.8 201.798 119.2 201.998C119 201.998 119.5 202.198 119.5 202.298C119.5 202.498 119.5 202.798 119.5 202.998C119.5 203.298 119.5 203.698 119.5 203.998C119.5 204.198 119.8 204.398 119.9 204.598C119.9 204.798 119.9 204.998 119.9 205.198C119.9 205.498 119.6 205.698 119.6 205.998C119.6 206.298 119.8 206.598 119.6 206.798C119.1 207.298 119.4 207.798 119.3 208.298C119.3 208.798 119.3 209.298 119.3 209.798C119.3 210.098 118.9 210.298 118.9 210.598C118.9 210.698 117.4 210.998 116.9 210.898H116.7C116.2 210.698 115.5 210.398 115.5 210.098C115.5 209.698 115.5 209.198 115.5 208.798L115.7 208.598Z" fill="black"/>
<path d="M126.901 207.602C126.901 207.602 126.901 207.602 126.901 207.702C126.901 207.702 126.701 207.602 127.101 207.902C127.301 208.102 126.801 207.702 126.801 207.702C126.801 207.702 126.801 207.702 126.801 207.802C126.801 207.802 126.901 208.102 127.001 208.102C127.001 208.102 126.801 208.002 127.001 208.302C127.201 208.502 126.801 208.202 126.901 208.302C126.901 208.402 126.901 208.502 126.901 208.302C126.801 208.202 126.601 208.102 126.601 208.202C126.601 208.202 126.901 208.502 126.801 208.502C126.801 208.502 126.601 208.302 127.001 208.802C127.001 208.802 127.001 208.802 126.901 208.802C126.601 208.502 126.601 208.602 126.801 208.802C127.001 209.002 126.901 209.002 126.901 209.002C126.901 209.002 126.701 208.802 126.601 208.802C126.601 208.802 126.701 209.002 126.501 208.802C126.301 208.602 126.301 208.602 126.201 208.702C126.201 208.702 126.001 208.502 126.401 209.002C125.801 208.402 126.501 209.202 126.401 209.102C126.201 209.002 126.301 209.102 126.301 209.102C126.301 209.102 126.201 209.002 126.501 209.302C126.601 209.402 126.601 209.402 126.501 209.302C126.001 208.902 126.301 209.202 126.201 209.102C126.101 209.102 126.201 209.302 125.901 209.002C125.701 208.902 125.601 208.802 126.001 209.202C126.001 209.202 126.201 209.402 126.201 209.502C126.201 209.502 126.001 209.402 125.901 209.302C126.301 209.802 125.701 209.302 125.801 209.302C125.801 209.502 125.801 209.502 125.701 209.402C125.701 209.402 125.501 209.302 124.701 208.502C124.301 208.102 123.901 207.802 123.701 207.502C123.501 207.302 123.401 207.202 123.401 207.102C123.401 207.102 123.301 206.902 123.201 206.802C123.101 206.602 122.701 206.202 123.001 206.402C123.001 206.402 122.901 206.202 123.201 206.602C122.701 206.002 123.101 206.302 123.101 206.302C123.101 206.302 122.701 205.802 122.901 205.902C122.501 205.402 122.601 205.502 122.701 205.602C123.201 206.002 123.001 205.602 123.101 205.602C123.201 205.602 123.201 205.502 123.301 205.402C123.801 205.802 123.601 205.402 123.701 205.402C123.701 205.402 123.901 205.402 123.801 205.202C123.801 205.202 123.501 204.802 123.701 204.902C123.701 204.902 123.501 204.702 124.001 205.102C124.101 205.202 123.801 204.902 123.801 204.902C123.801 204.902 123.601 204.702 123.601 204.602C123.601 204.602 123.801 204.802 123.901 204.802C123.901 204.802 123.801 204.602 124.001 204.802C124.401 205.102 124.301 204.802 124.301 204.802C124.301 204.802 124.501 204.802 124.401 204.702C124.401 204.702 124.801 205.002 124.801 204.902C124.801 204.902 125.901 205.902 126.201 206.302C126.201 206.302 126.301 206.402 126.401 206.502C126.701 206.902 127.201 207.402 127.101 207.402C127.101 207.402 127.101 207.402 127.001 207.502L126.901 207.602Z" fill="black"/>
<path d="M133.6 200.602C133.4 199.502 133.2 198.402 132.9 197.302C132.8 196.902 132.9 196.402 132.4 196.102C132.1 195.902 132.6 195.402 132.5 195.002C132.2 194.002 132.1 192.902 131.9 191.902C131.6 190.902 131.2 189.902 131 188.902C130.7 187.902 130.8 186.802 130.4 185.902C130 185.102 130.4 184.302 130.1 183.502C129.8 182.702 129.6 181.802 129.7 180.902C129.7 180.302 129.9 179.602 129.7 179.002C129.6 178.602 129.2 178.302 129.1 177.902C129.1 177.502 129.2 177.002 128.6 176.802C128.6 176.802 128.6 176.602 128.6 176.502C128.9 176.002 128.8 175.502 128.5 175.202C128.2 174.902 128.2 174.602 128.1 174.302C127.9 173.402 127.7 172.602 127.6 171.702C127.6 171.002 127.6 170.402 127.6 169.702C127.6 169.002 127.1 168.402 127.3 167.702C127.5 167.002 127.3 166.402 127.3 165.802C127.3 165.502 127.4 165.002 126.8 164.802C126.8 164.802 126.8 164.702 126.8 164.602C127.4 163.502 126.2 162.702 126.2 161.702C126.2 160.602 125.9 159.602 125.7 158.602C125.7 158.302 125.7 158.002 125.3 157.802C125.1 157.802 125.1 157.502 125.1 157.302C125.6 156.402 125.1 155.702 125.1 154.902C125.1 154.002 124.6 153.102 124.9 152.102C125 151.702 125 151.102 124.4 150.802C124.1 150.602 124.3 150.102 124.2 149.802C124.1 149.502 123.8 149.302 123.7 149.102C123.7 148.902 123.8 148.602 123.9 148.302V148.102C123 146.902 123.6 145.402 123.2 144.202C122.8 142.902 122.6 141.502 122.4 140.202C122.4 139.502 122.4 138.702 123.4 137.902C123.9 137.602 124.4 137.502 124.8 137.702C125.1 137.902 125.4 138.102 125.5 138.402C125.7 138.802 125.9 139.202 126.1 139.602C126.5 140.402 127.1 141.202 127 142.102C127 142.402 127.3 142.702 126.9 143.002V143.202C127.9 144.202 127.6 145.602 127.9 146.702C128.1 147.702 128.9 148.602 128.9 149.702C129.6 150.202 129.6 150.802 129.6 151.402C129.3 153.502 130.1 155.502 130.4 157.502C130.7 159.602 131.1 161.602 131.5 163.702C131.5 164.102 132 164.302 131.8 164.702C131.6 165.102 131.9 165.602 132 166.002C132 166.402 132.3 166.802 132.2 167.202C131.8 168.902 132.5 170.502 132.8 172.102C133 173.702 133.3 175.302 133.7 176.902C134 177.902 134.5 178.802 134.5 179.802C134.5 180.202 134.9 180.602 134.5 181.102C134.4 181.202 134.9 181.602 134.9 181.802C135.1 182.502 135.2 183.102 135.3 183.802C135.5 184.702 135.6 185.702 135.8 186.602C135.9 187.202 136.3 187.702 136.5 188.202C136.7 188.802 136.8 189.402 136.8 190.002C136.8 190.802 136.8 191.602 136.8 192.302C136.8 193.102 137.3 193.802 137.2 194.602C137 196.102 137.5 197.402 137.7 198.802C137.9 200.202 138.2 201.602 138.6 202.902C138.8 203.702 138.5 204.502 138.6 205.202C138.6 205.502 137.3 206.402 136.8 206.302C136.8 206.302 136.6 206.302 136.5 206.302C135.9 205.702 135 205.102 134.9 204.302C134.7 203.002 134.4 201.802 134.1 200.502L133.6 200.602Z" fill="black"/>
<path d="M197.899 189.302C197.699 188.502 197.599 187.802 197.399 187.002C197.399 186.702 197.499 186.402 196.899 186.202C196.599 186.202 197.199 185.702 197.099 185.402C196.899 184.702 196.799 184.002 196.499 183.302C196.299 182.602 195.899 182.002 195.599 181.302C195.399 180.602 195.499 179.902 194.999 179.302C194.599 178.802 194.999 178.202 194.599 177.702C194.299 177.202 194.099 176.602 194.099 176.002C194.099 175.502 194.199 175.102 193.999 174.702C193.899 174.502 193.499 174.302 193.399 174.002C193.399 173.702 193.499 173.402 192.799 173.302C192.799 173.302 192.799 173.202 192.799 173.102C193.099 172.702 192.999 172.402 192.599 172.202C192.299 172.102 192.199 171.902 192.199 171.702C191.999 171.102 191.799 170.602 191.599 170.002C191.499 169.602 191.599 169.102 191.499 168.602C191.499 168.102 190.999 167.802 191.099 167.302C191.199 166.802 191.099 166.402 190.899 166.002C190.899 165.802 190.899 165.402 190.299 165.402C190.299 165.402 190.299 165.402 190.299 165.302C190.799 164.402 189.599 164.102 189.499 163.402C189.499 162.702 188.999 162.002 188.699 161.402C188.699 161.202 188.699 161.002 188.199 161.002C187.999 161.002 187.899 160.802 187.999 160.702C188.399 160.002 187.799 159.602 187.699 159.002C187.599 158.402 186.999 157.902 187.199 157.102C187.199 156.802 187.199 156.402 186.599 156.302C186.299 156.302 186.399 155.902 186.299 155.702C186.199 155.502 185.899 155.502 185.799 155.302C185.799 155.202 185.799 154.902 185.899 154.702V154.602C184.899 154.002 185.299 152.802 184.799 152.102C184.199 151.302 183.899 150.502 183.599 149.602C183.399 149.102 183.399 148.602 184.199 147.702C184.599 147.302 185.099 147.102 185.499 147.102C185.799 147.102 186.099 147.202 186.199 147.302C186.399 147.502 186.699 147.702 186.899 148.002C187.299 148.502 188.099 148.802 188.099 149.502C188.099 149.702 188.499 149.802 188.099 150.202C188.099 150.202 188.099 150.302 188.099 150.402C189.199 150.802 189.099 151.802 189.499 152.602C189.799 153.202 190.699 153.602 190.799 154.402C191.499 154.502 191.599 155.002 191.599 155.502C191.599 157.102 192.499 158.202 192.999 159.602C193.499 161.002 194.099 162.302 194.599 163.702C194.599 163.902 195.099 164.002 194.899 164.402C194.699 164.702 195.099 165.002 195.199 165.302C195.299 165.602 195.499 165.802 195.499 166.102C195.199 167.402 195.999 168.402 196.299 169.502C196.599 170.602 196.899 171.702 197.399 172.802C197.699 173.402 198.199 174.002 198.299 174.702C198.299 175.002 198.699 175.202 198.299 175.702C198.199 175.802 198.699 176.002 198.699 176.102C198.899 176.502 198.999 177.002 199.099 177.502C199.299 178.102 199.399 178.802 199.599 179.402C199.699 179.802 200.099 180.102 200.199 180.502C200.399 180.902 200.499 181.302 200.499 181.702C200.499 182.202 200.499 182.802 200.499 183.402C200.499 184.002 200.999 184.502 200.799 185.002C200.499 186.102 200.999 187.002 201.099 188.002C201.199 189.002 201.399 189.902 201.699 190.902C201.899 191.402 201.499 192.002 201.599 192.602C201.599 192.802 200.299 193.502 199.699 193.402H199.499C198.899 193.002 198.099 192.602 198.099 192.002C198.099 191.102 197.799 190.302 197.599 189.402L197.899 189.302Z" fill="black"/>
<path d="M169.4 201.9C169.4 201.3 169.4 200.7 169.2 200.1C169.2 199.9 169.4 199.6 168.8 199.4C168.5 199.4 169.1 199 169.1 198.8C169 198.2 169.1 197.7 168.9 197.1C168.8 196.6 168.5 196 168.4 195.5C168.3 195 168.5 194.4 168.1 193.9C167.8 193.5 168.2 193 168.1 192.6C167.9 192.2 167.8 191.7 168 191.2C168.1 190.9 168.3 190.5 168.2 190.2C168.2 190 167.8 189.8 167.8 189.6C167.8 189.4 168 189.1 167.4 189C167.4 189 167.4 188.9 167.5 188.8C167.9 188.5 167.8 188.3 167.5 188.1C167.2 187.9 167.2 187.8 167.2 187.6C167.2 187.1 167 186.7 167.1 186.2C167.1 185.9 167.3 185.5 167.3 185.1C167.3 184.7 167 184.4 167.3 184C167.6 183.6 167.5 183.3 167.5 183C167.5 182.8 167.7 182.6 167.1 182.5C167.1 182.5 167.1 182.5 167.1 182.4C167.9 181.8 166.7 181.4 166.9 180.8C167 180.2 166.9 179.7 166.7 179.1C166.7 179 166.8 178.8 166.4 178.7C166.2 178.7 166.2 178.5 166.4 178.4C167 177.9 166.5 177.5 166.6 177.1C166.6 176.6 166.3 176.2 166.7 175.6C166.9 175.4 167 175.1 166.3 174.9C166 174.9 166.3 174.5 166.2 174.4C166.2 174.3 165.8 174.2 165.8 174C165.8 173.9 166 173.7 166.1 173.6C166.1 173.6 166.1 173.6 166.1 173.5C165.4 172.9 166.1 172.1 165.9 171.4C165.6 170.7 165.6 170 165.6 169.2C165.6 168.8 165.7 168.4 166.8 167.9C167.3 167.7 167.8 167.6 168.2 167.8C168.5 167.8 168.7 168 168.8 168.1C168.9 168.3 169.1 168.5 169.2 168.7C169.5 169.1 170 169.5 169.8 170C169.8 170.2 170.1 170.3 169.6 170.5C169.6 170.5 169.6 170.5 169.6 170.6C170.5 171.1 170 171.9 170.2 172.5C170.3 173 171 173.5 170.8 174.1C171.5 174.3 171.4 174.7 171.2 175C170.7 176.2 171.2 177.2 171.2 178.3C171.2 179.4 171.5 180.5 171.6 181.6C171.6 181.8 172 181.9 171.7 182.2C171.5 182.4 171.7 182.7 171.7 182.9C171.7 183.1 171.9 183.3 171.7 183.6C171.1 184.5 171.7 185.4 171.7 186.2C171.7 187.1 171.7 187.9 172 188.8C172.2 189.3 172.6 189.8 172.5 190.3C172.5 190.5 172.8 190.7 172.3 191C172.1 191 172.6 191.2 172.6 191.4C172.6 191.8 172.6 192.1 172.7 192.5C172.7 193 172.7 193.5 172.9 194C172.9 194.3 173.2 194.6 173.3 194.9C173.3 195.2 173.4 195.5 173.3 195.9C173.3 196.3 173.1 196.7 173.1 197.2C173.1 197.6 173.4 198 173.1 198.5C172.7 199.3 173 200 173.1 200.8C173.1 201.6 173.1 202.3 173.3 203C173.4 203.4 172.9 203.8 173 204.3C173 204.5 171.6 204.9 171.1 204.8H170.9C170.4 204.4 169.6 204.1 169.7 203.7C169.7 203 169.6 202.3 169.5 201.7L169.4 201.9Z" fill="black"/>
<path d="M184.5 205.899C184.2 205.899 184 205.899 183.7 205.899C183.7 205.899 183.5 205.699 183.4 206.199C183.4 206.499 183.3 205.799 183.2 205.899C183 205.899 182.7 205.899 182.5 205.899C182.3 205.899 182 206.199 181.8 206.199C181.6 206.199 181.3 205.999 181.1 206.199C180.9 206.499 180.7 205.999 180.5 206.099C180.3 206.199 180.1 206.299 179.9 206.099C179.8 205.899 179.6 205.699 179.5 205.799C179.5 205.799 179.3 206.199 179.2 206.199C179.2 206.199 179 205.899 178.9 206.499C178.9 206.499 178.9 206.499 178.9 206.399C178.9 205.999 178.7 205.999 178.6 206.299C178.6 206.599 178.4 206.499 178.4 206.599C178.2 206.599 178 206.599 177.8 206.599C177.6 206.599 177.5 206.299 177.3 206.299C177.1 206.299 177 206.499 176.8 206.299C176.7 205.999 176.5 205.999 176.4 205.999C176.4 205.999 176.2 205.699 176.2 206.299C176 205.499 175.7 206.599 175.5 206.299C175.3 206.099 175 206.299 174.8 206.299C174.8 206.299 174.7 206.099 174.6 206.599C174.6 206.799 174.6 206.799 174.5 206.599C174.3 205.999 174.1 206.399 173.9 206.199C173.7 206.099 173.5 206.399 173.3 205.899C173.3 205.699 173.1 205.599 173 206.199C173 206.499 172.8 206.199 172.8 206.199C172.8 206.199 172.7 206.499 172.6 206.499C172.6 206.499 172.5 206.299 172.4 206.199C172.1 206.899 171.8 205.999 171.5 206.199C171.2 206.399 170.9 206.299 170.5 206.199C170.3 206.199 170.1 205.999 170 204.799C170 204.299 170 203.699 170 203.399C170 203.199 170.1 202.899 170.2 202.899C170.3 202.899 170.4 202.699 170.5 202.599C170.7 202.399 170.9 201.899 171.1 202.199C171.1 202.199 171.2 201.999 171.3 202.499C171.6 201.699 171.9 202.199 172.2 202.199C172.4 202.199 172.7 201.499 172.9 201.799C173 201.199 173.2 201.299 173.3 201.499C173.8 202.199 174.3 201.699 174.7 201.799C175.2 201.799 175.7 201.799 176.2 201.799C176.2 201.799 176.4 201.399 176.5 201.799C176.5 202.099 176.7 201.799 176.8 201.799C176.9 201.799 177 201.699 177.1 201.799C177.5 202.499 177.9 202.099 178.3 202.099C178.7 202.099 179.1 202.199 179.4 202.099C179.6 202.099 179.9 201.699 180.1 201.799C180.2 201.799 180.3 201.499 180.4 202.099C180.4 202.299 180.5 201.799 180.6 201.799C180.8 201.799 180.9 201.799 181.1 201.799C181.3 201.799 181.5 201.799 181.8 201.799C181.9 201.799 182.1 201.499 182.2 201.499C182.3 201.499 182.5 201.499 182.6 201.499C182.8 201.499 183 201.799 183.1 201.799C183.3 201.799 183.5 201.599 183.7 201.799C184 202.299 184.4 202.099 184.7 202.099C185 202.099 185.4 202.199 185.7 202.099C185.9 202.099 186.1 202.499 186.2 202.499C186.2 202.499 186.4 203.999 186.4 204.499V204.699C186.2 205.199 186.1 205.899 185.9 205.799C185.6 205.799 185.3 205.799 185 205.799L184.5 205.899Z" fill="black"/>
<path d="M182.4 204.598C182.4 204.198 182.4 203.898 182.4 203.498C182.4 203.398 182.6 203.198 182.1 203.098C181.8 203.098 182.5 202.898 182.4 202.798C182.4 202.498 182.4 202.098 182.4 201.798C182.4 201.498 182.1 201.198 182 200.798C182 200.498 182.2 200.198 181.9 199.898C181.6 199.598 182.1 199.398 181.9 199.098C181.8 198.798 181.7 198.598 181.9 198.298C182.1 198.098 182.3 197.898 182.2 197.698C182.2 197.598 181.8 197.498 181.8 197.398C181.8 197.298 182.1 197.098 181.5 197.098C181.5 197.098 181.5 197.098 181.6 197.098C182 196.998 182 196.798 181.6 196.698C181.3 196.698 181.4 196.498 181.3 196.398C181.3 196.098 181.3 195.898 181.3 195.598C181.3 195.398 181.6 195.198 181.6 194.998C181.6 194.798 181.4 194.598 181.6 194.398C181.9 194.198 181.9 193.998 181.9 193.798C181.9 193.698 182.2 193.498 181.5 193.498C182.3 193.098 181.2 192.898 181.4 192.598C181.6 192.298 181.4 191.898 181.4 191.598C181.4 191.598 181.6 191.398 181.1 191.398C180.9 191.398 180.9 191.298 181.1 191.198C181.7 190.898 181.3 190.698 181.4 190.398C181.4 190.098 181.2 189.898 181.6 189.498C181.8 189.398 181.9 189.198 181.3 189.098C181 189.098 181.3 188.898 181.3 188.798C181.3 188.798 181 188.698 180.9 188.598C180.9 188.598 181.1 188.398 181.2 188.398C180.5 188.098 181.3 187.598 181.2 187.198C181 186.798 181 186.398 181 185.898C181 185.698 181.2 185.398 182.3 185.098C182.8 184.998 183.4 184.898 183.7 184.998C183.9 184.998 184.2 185.098 184.3 185.198C184.4 185.298 184.6 185.398 184.7 185.598C184.9 185.798 185.5 186.098 185.2 186.398C185.2 186.398 185.4 186.598 184.9 186.698C185.7 186.998 185.3 187.398 185.3 187.798C185.3 188.098 186 188.398 185.8 188.698C186.4 188.798 186.4 188.998 186.2 189.298C185.6 189.998 186.1 190.598 186.1 191.298C186.1 191.998 186.1 192.598 186.1 193.298C186.1 193.398 186.5 193.498 186.1 193.598C185.8 193.698 186.1 193.898 186.1 193.998C186.1 194.098 186.3 194.298 186.1 194.398C185.5 194.998 185.9 195.498 185.8 195.998C185.8 196.498 185.8 196.998 185.8 197.498C185.9 197.798 186.3 198.098 186.1 198.398C186.1 198.498 186.4 198.698 185.8 198.798C185.6 198.798 186.1 198.998 186.1 198.998C186.1 199.198 186.1 199.398 186.1 199.598C186.1 199.898 186.1 200.198 186.1 200.498C186.1 200.698 186.4 200.898 186.5 200.998C186.5 201.198 186.5 201.398 186.5 201.598C186.5 201.798 186.2 202.098 186.2 202.298C186.2 202.598 186.4 202.798 186.2 203.098C185.7 203.498 185.9 203.998 185.9 204.398C185.9 204.798 185.8 205.298 185.9 205.698C185.9 205.998 185.5 206.198 185.5 206.398C185.5 206.498 184 206.598 183.5 206.598H183.3C182.8 206.398 182.1 206.098 182.2 205.898C182.2 205.498 182.2 205.098 182.2 204.698L182.4 204.598Z" fill="black"/>
<path d="M203.2 203.499C203.2 203.999 202.9 204.399 202.7 204.899C202.6 205.099 202.3 205.099 202.5 205.599C202.6 205.899 202.1 205.499 202 205.599C201.7 205.899 201.3 205.999 201.1 206.099C200.8 206.299 200.6 206.499 200.4 206.599C200.2 206.599 199.9 206.399 199.7 206.799C199.6 207.099 199.4 206.599 199.3 206.799C199.2 206.899 199 206.999 198.9 206.799C198.8 206.599 198.7 206.399 198.6 206.499C198.6 206.499 198.5 206.899 198.4 206.899C198.4 206.899 198.3 206.599 198.2 207.199C198.2 207.199 198.2 207.199 198.2 207.099C198.2 206.699 198 206.699 198 207.099C198 207.399 198 207.299 197.9 207.399C197.8 207.399 197.6 207.399 197.5 207.399C197.4 207.399 197.3 207.099 197.2 207.099C197.1 207.099 197 207.299 196.9 207.099C196.8 206.799 196.7 206.799 196.6 206.799C196.6 206.799 196.5 206.499 196.4 207.199C196.2 206.399 196.1 207.499 195.9 207.199C195.7 206.999 195.5 207.199 195.4 207.199C195.4 207.199 195.4 206.999 195.3 207.499C195.3 207.699 195.3 207.699 195.3 207.499C195.2 206.899 195 207.299 194.9 207.099C194.7 206.999 194.6 207.299 194.4 206.799C194.4 206.599 194.3 206.499 194.2 207.099C194.2 207.399 194.1 207.099 194 207.099C194 207.099 194 207.399 193.9 207.399C193.9 207.399 193.9 207.199 193.8 207.099C193.6 207.799 193.4 206.899 193.1 207.099C192.9 207.299 192.6 207.099 192.4 207.099C192.3 207.099 192.2 206.899 192.1 205.699C192.1 205.199 192.1 204.599 192.1 204.299C192.1 204.099 192.1 203.799 192.2 203.799C192.2 203.699 192.3 203.599 192.4 203.499C192.5 203.299 192.7 202.799 192.8 203.099C192.8 203.099 192.9 202.899 192.9 203.399C193.1 202.599 193.3 203.099 193.5 203.099C193.7 203.099 193.8 202.399 194 202.699C194 202.099 194.2 202.199 194.3 202.399C194.6 203.099 194.9 202.599 195.3 202.699C195.6 202.699 195.9 202.699 196.3 202.699C196.3 202.699 196.3 202.299 196.5 202.699C196.5 202.999 196.6 202.699 196.7 202.699C196.7 202.699 196.8 202.599 196.9 202.699C197.2 203.399 197.4 202.899 197.7 202.999C198 202.999 198.2 203.099 198.5 202.999C198.7 202.899 198.8 202.499 198.9 202.699C198.9 202.699 199 202.399 199.1 202.999C199.1 203.199 199.1 202.699 199.2 202.699C199.3 202.699 199.4 202.699 199.5 202.699C199.6 202.699 199.8 202.699 199.9 202.699C199.9 202.699 199.9 202.399 199.9 202.299C199.9 202.699 200.1 202.899 200.2 203.099C200.2 203.299 200.3 203.399 200.4 203.399C200.5 203.499 200.6 203.699 200.8 203.799H200.7C200.7 203.799 200.9 203.799 201.1 203.799H201.2C201.4 203.399 201.6 202.999 201.7 202.699L201.8 202.499C202 202.299 202.3 202.199 202.6 202.199C202.9 202.199 203.2 202.199 203.3 202.499C203.6 203.199 203.7 203.799 203.6 204.299L203.2 203.499Z" fill="black"/>
<path d="M141.799 92.9C141.799 93.5 141.699 94 141.599 94.6C141.599 94.8 141.299 95 141.799 95.3C142.099 95.4 141.399 95.6 141.399 95.8C141.399 96.3 141.199 96.8 141.199 97.4C141.199 97.9 141.199 98.5 141.199 99C141.199 99.5 140.699 100 140.899 100.5C141.099 101 140.499 101.2 140.499 101.7C140.499 102.2 140.499 102.6 140.099 102.9C139.799 103.1 139.499 103.4 139.499 103.7C139.499 103.9 139.699 104.2 139.599 104.4C139.599 104.6 139.199 104.7 139.699 105.1C139.699 105.1 139.699 105.1 139.499 105.1C138.999 105.1 138.999 105.4 139.199 105.7C139.399 106 139.199 106.1 139.199 106.2C139.099 106.6 138.899 107 138.699 107.4C138.499 107.7 138.199 107.9 137.999 108.1C137.799 108.4 137.899 108.8 137.499 109C137.099 109.1 136.999 109.4 136.799 109.7C136.799 109.9 136.399 109.9 136.799 110.3C135.799 110.3 136.499 111.3 136.099 111.6C135.599 111.9 135.499 112.5 135.199 112.9C135.199 113 134.899 113 135.199 113.4C135.299 113.5 135.199 113.7 135.099 113.7C134.299 113.7 134.399 114.2 133.999 114.5C133.599 114.8 133.499 115.4 132.799 115.4C132.499 115.4 132.199 115.5 132.499 116.1C132.599 116.4 132.199 116.4 132.099 116.5C132.099 116.6 132.099 116.9 131.999 117C131.999 117 131.699 117 131.499 117C131.299 118 130.199 117.7 129.699 118.3C129.199 118.9 128.399 119.2 127.699 119.4C127.299 119.5 126.799 119.5 126.199 118.5C125.899 118.1 125.699 117.5 125.799 117.2C125.799 116.9 125.799 116.7 125.899 116.6C125.999 116.4 126.199 116.2 126.299 116.1C126.599 115.8 126.599 115.1 127.099 115.2C127.199 115.2 127.199 114.9 127.599 115.2H127.699C127.699 114.3 128.399 114.4 128.799 114C129.099 113.7 128.999 112.9 129.499 112.8C129.199 112.2 129.499 112.1 129.799 112C130.899 111.8 131.099 110.8 131.699 110.2C132.299 109.5 132.699 108.7 133.199 107.9C133.199 107.8 132.999 107.5 133.399 107.4C133.699 107.4 133.599 107.1 133.699 106.9C133.699 106.7 133.699 106.5 133.999 106.4C134.899 106 134.899 105.2 135.299 104.5C135.699 103.9 135.999 103.2 136.099 102.4C136.099 101.9 135.999 101.4 136.299 101C136.399 100.8 136.199 100.5 136.799 100.5C136.999 100.5 136.599 100.2 136.599 100.1C136.599 99.8 136.799 99.5 136.899 99.2C136.999 98.8 137.199 98.4 137.199 98C137.199 97.7 136.999 97.4 136.999 97.2C136.999 96.9 136.999 96.7 137.199 96.4C137.299 96.1 137.599 95.8 137.699 95.5C137.799 95.2 137.699 94.7 137.899 94.4C138.499 93.8 138.299 93.2 138.399 92.5C138.499 91.9 138.599 91.2 138.499 90.6C138.499 90.2 138.999 89.9 138.999 89.6C138.999 89.4 140.499 89.2 140.999 89.3H141.199C141.699 89.7 142.399 90 142.299 90.5C142.199 91.1 142.299 91.8 142.199 92.4L141.799 92.9Z" fill="black"/>
<path d="M180.599 107.4C179.799 107.4 178.899 107.2 178.099 107.1C177.799 107.1 177.599 106.7 177.099 107.2C176.899 107.4 176.699 106.7 176.499 106.7C175.799 106.7 175.099 106.3 174.399 106.2C173.699 106.2 172.999 106.2 172.299 106C171.599 105.9 170.999 105.4 170.199 105.6C169.599 105.7 169.199 105.1 168.599 105.1C167.999 105.1 167.399 105 166.899 104.6C166.499 104.3 166.199 104 165.799 104C165.499 104 165.199 104.2 164.899 104.1C164.699 104.1 164.399 103.7 163.999 104.1C163.999 104.1 163.899 104.1 163.899 103.9C163.699 103.4 163.399 103.3 163.099 103.5C162.799 103.7 162.599 103.5 162.399 103.5C161.799 103.4 161.199 103.2 160.699 102.9C160.299 102.7 159.899 102.4 159.499 102.2C159.099 102 158.499 102.1 158.199 101.7C157.899 101.3 157.499 101.2 157.099 101C156.899 101 156.699 100.5 156.299 101H156.199C155.799 100 154.799 100.8 154.199 100.3C153.599 99.8 152.899 99.7 152.199 99.5C151.999 99.5 151.899 99.2 151.599 99.5C151.499 99.6 151.299 99.5 151.199 99.5C150.899 98.7 150.299 98.9 149.799 98.6C149.299 98.2 148.599 98.3 148.199 97.6C147.999 97.3 147.699 97.1 147.199 97.5C146.999 97.7 146.799 97.3 146.499 97.3C146.299 97.3 145.999 97.4 145.899 97.3C145.799 97.3 145.699 97 145.599 96.8C145.599 96.8 145.599 96.8 145.499 96.8C144.399 97 143.899 95.9 142.999 95.6C142.099 95.4 141.199 94.9 140.399 94.4C139.999 94.1 139.599 93.7 139.699 92.6C139.699 92.1 139.999 91.6 140.399 91.4C140.599 91.3 140.899 91.1 141.099 91.2C141.399 91.2 141.699 91.2 141.999 91.2C142.599 91.2 143.399 91 143.799 91.6C143.899 91.8 144.299 91.6 144.199 92.1V92.2C145.299 91.8 145.799 92.6 146.599 92.9C147.299 93.1 148.099 92.9 148.699 93.4C149.299 93 149.699 93.3 149.999 93.6C150.999 94.7 152.499 94.8 153.699 95.4C154.999 96 156.299 96.4 157.599 96.9C157.799 96.9 158.099 96.7 158.299 97.1C158.499 97.4 158.799 97.4 159.099 97.5C159.399 97.5 159.699 97.5 159.899 97.8C160.699 98.8 161.899 98.7 162.899 99.2C163.899 99.6 164.899 100 165.999 100.1C166.699 100.1 167.399 100.1 167.999 100.4C168.299 100.5 168.599 100.3 168.799 100.9C168.799 101.1 169.199 100.7 169.399 100.7C169.899 100.7 170.299 100.9 170.699 101C171.299 101.2 171.899 101.4 172.499 101.5C172.899 101.5 173.299 101.5 173.699 101.5C174.099 101.5 174.499 101.6 174.899 101.8C175.399 102 175.799 102.3 176.299 102.5C176.799 102.7 177.399 102.5 177.799 102.9C178.599 103.6 179.499 103.5 180.399 103.7C181.299 103.9 182.099 104 182.899 103.7C183.299 103.7 183.799 104 184.299 104C184.499 104 185.099 105.3 185.199 105.8C185.199 105.8 185.199 106 185.199 106.1C184.799 106.7 184.299 107.5 183.599 107.5C182.599 107.5 181.599 107.5 180.599 107.5V107.4Z" fill="black"/>
<path d="M135.2 94.3985C134.5 94.3985 133.7 94.3985 133 94.5985C132.7 94.5985 132.4 94.3985 132.2 94.9985C132.1 95.2985 131.8 94.6984 131.5 94.6984C130.8 94.8984 130.2 94.8985 129.5 94.9985C128.9 95.1985 128.3 95.4984 127.7 95.6984C127.1 95.8984 126.4 95.6984 125.9 96.1984C125.5 96.5984 124.9 96.1985 124.4 96.4985C123.9 96.7985 123.5 96.9985 122.9 96.9985C122.5 96.9985 122.1 96.9984 121.8 97.1984C121.6 97.2984 121.5 97.6985 121.3 97.7985C121.1 97.7985 120.7 97.7985 120.8 98.3985C120.8 98.3985 120.7 98.3985 120.6 98.3985C120.2 98.0985 119.9 98.3984 119.9 98.6984C119.9 98.9984 119.7 99.0984 119.5 99.1984C119.1 99.4984 118.7 99.7985 118.2 99.9985C117.9 100.198 117.4 100.198 117.1 100.398C116.7 100.598 116.6 101.098 116.1 101.098C115.6 101.098 115.4 101.398 115.1 101.598C114.9 101.698 114.6 101.698 114.9 102.298C113.9 102.198 114.3 103.298 113.8 103.598C113.3 103.898 113.1 104.498 112.8 105.098C112.8 105.198 112.5 105.298 112.8 105.698C112.9 105.798 112.8 105.998 112.8 105.998C112 106.098 112.2 106.698 111.9 107.098C111.6 107.598 111.7 108.198 111 108.498C110.7 108.698 110.5 108.898 111 109.398C111.2 109.598 110.9 109.798 110.9 109.998C110.9 110.198 111.1 110.398 111.1 110.598C111.1 110.698 110.8 110.798 110.7 110.898C110.7 110.898 110.7 110.898 110.7 110.998C111.2 111.898 110.1 112.598 110.2 113.398C110.2 114.298 110.1 115.098 109.9 115.998C109.8 116.498 109.5 116.898 108.4 117.098C107.9 117.098 107.3 117.098 107 116.898C106.8 116.698 106.6 116.498 106.5 116.298C106.5 115.998 106.3 115.698 106.3 115.398C106.2 114.798 105.7 114.198 106.1 113.598C106.2 113.398 105.9 113.198 106.5 113.098C106.5 113.098 106.6 113.098 106.5 112.998C105.8 112.098 106.5 111.298 106.6 110.498C106.7 109.798 106.2 108.998 106.7 108.298C106.2 107.698 106.4 107.298 106.7 106.998C107.8 105.798 107.9 104.298 108.8 102.998C109.6 101.698 110.5 100.398 111.5 99.2985C111.7 99.0985 111.5 98.6984 112 98.6984C112.4 98.6984 112.5 98.2985 112.7 98.0985C112.9 97.8985 113.1 97.5985 113.4 97.4985C114.7 97.2985 115.4 96.2984 116.4 95.6984C117.4 95.1984 118.4 94.6985 119.4 94.0985C120 93.6985 120.5 93.0985 121.2 92.9985C121.5 92.9985 121.7 92.4985 122.2 92.9985C122.3 93.0985 122.4 92.5985 122.6 92.4985C123 92.2985 123.5 92.1985 124 92.0985C124.6 91.8985 125.3 91.7985 125.9 91.5985C126.3 91.4985 126.6 91.1985 127 90.9985C127.4 90.8985 127.8 90.7985 128.2 90.7985C128.7 90.7985 129.3 90.8985 129.8 90.7985C130.3 90.7985 130.9 90.3985 131.4 90.5985C132.4 90.9985 133.3 90.5985 134.3 90.5985C135.2 90.5985 136.2 90.5985 137.1 90.2985C137.6 90.1985 138.1 90.6985 138.6 90.5985C138.8 90.5985 139.3 91.9985 139.2 92.4985V92.6984C138.7 93.1984 138.3 93.9985 137.8 93.9985C137 93.9985 136.1 94.0984 135.3 94.1984L135.2 94.3985Z" fill="black"/>
</svg>
