<svg width="300" height="300" viewBox="0 0 300 300" fill="none" xmlns="http://www.w3.org/2000/svg">
<path d="M179.5 136.002C178.3 134.702 177.1 133.402 175.9 132.202C175.4 131.702 175.2 131.102 174.3 131.002C173.9 131.002 173.9 130.002 173.5 129.602C172.3 128.502 171.3 127.202 170.1 126.102C169 125.002 167.7 124.002 166.6 122.902C165.5 121.802 164.6 120.402 163.3 119.502C162.2 118.702 161.8 117.602 160.9 116.902C159.9 116.202 159.1 115.702 158.2 115.202C157.6 114.802 156.8 114.402 156 114.302C155.5 114.302 154.9 114.502 154.4 114.502C153.9 114.502 153.2 114.102 152.7 114.702C152.7 114.702 152.4 114.702 152.3 114.502C151.7 114.102 150.9 114.102 150.4 114.402C149.9 114.702 149.4 114.602 149 114.602C147.7 114.602 146.4 114.702 145.1 114.702C144.1 114.702 143.2 114.502 142.2 114.602C141.2 114.602 140.1 115.002 139.2 114.802C138.2 114.602 137.3 114.802 136.4 114.802C135.9 114.802 135.2 114.702 134.9 115.402C134.9 115.402 134.7 115.402 134.6 115.402C133 114.802 131.7 116.202 130.2 116.402C128.6 116.502 127.1 117.102 125.6 117.602C125.2 117.702 124.7 117.602 124.5 118.202C124.5 118.402 124 118.502 123.8 118.502C122.5 118.302 121.6 119.102 120.6 119.502C119.5 120.002 118.7 120.902 117.6 121.402C117.1 121.602 116.6 122.102 116.8 122.902C116.8 123.302 116.4 123.602 116.3 124.002C116.3 124.302 116.3 124.802 116.3 125.102C116.3 125.402 115.9 125.602 115.7 125.902C115.7 125.902 115.7 126.102 115.7 126.202C115.9 128.102 114.9 129.802 115 131.802C115.1 133.802 115.1 135.902 115 138.002C115 139.102 114.8 140.302 113.6 141.102C113.1 141.502 112.5 141.502 112.2 141.102C112 140.702 111.7 140.302 111.7 139.902C111.6 139.202 111.5 138.602 111.4 137.902C111.2 136.602 110.7 135.202 110.9 133.802C110.9 133.402 110.7 132.902 111.2 132.502C111.2 132.502 111.3 132.302 111.2 132.202C110.5 130.302 111.2 128.302 111.5 126.302C111.8 124.602 111.7 122.702 112.9 121.102C112.9 119.902 113.8 118.802 114.6 118.202C117.8 115.902 120.9 114.302 124 113.402C127.2 112.602 130.3 111.702 133.6 111.202C134.1 111.202 134.6 110.702 135.3 110.802C135.9 111.002 136.7 110.602 137.4 110.502C138 110.502 138.7 110.202 139.3 110.302C141.9 110.702 144.4 110.102 147 110.102C149.6 110.102 152.1 110.102 154.7 110.102C156.3 110.102 158.1 110.102 159.8 110.702C160.5 111.002 161.5 111.102 161.8 112.002C161.8 112.202 162.7 112.302 163.2 112.502C164.2 113.202 165 114.002 165.8 114.802C166.9 115.902 167.8 117.002 168.8 118.002C169.4 118.602 170.2 119.102 170.9 119.702C171.6 120.302 172.2 121.002 172.8 121.702C173.5 122.602 174.2 123.602 174.9 124.502C175.7 125.402 176.8 126.202 177.3 127.202C178.4 129.102 180.1 130.502 181.5 132.202C182.9 133.802 184.4 135.402 185.9 136.902C186.8 137.702 187.2 138.902 188 139.802C188.4 140.202 187.8 141.802 187.3 141.902C187.3 141.902 187.1 141.902 187 141.902C185.9 141.402 184.6 141.102 183.7 140.102C182.4 138.602 181 137.202 179.7 135.802L179.5 136.002Z" fill="black"/>
<path d="M116.6 159.202C116.6 159.702 116.6 160.202 116.8 160.702C116.8 160.902 116.6 161.102 117.2 161.202C117.5 161.202 116.9 161.502 116.9 161.702C117 162.202 117 162.702 117.1 163.102C117.2 163.602 117.5 164.002 117.6 164.402C117.7 164.802 117.5 165.402 117.9 165.802C118.2 166.102 117.8 166.602 117.9 166.902C118.1 167.302 118.2 167.702 118 168.102C117.9 168.402 117.7 168.702 117.8 169.002C117.8 169.202 118.2 169.302 118.2 169.502C118.2 169.702 118 169.902 118.6 170.002C118.6 170.002 118.6 170.002 118.5 170.202C118.1 170.402 118.2 170.702 118.5 170.802C118.8 170.902 118.8 171.102 118.8 171.202C118.8 171.602 119 172.002 119 172.402C119 172.702 118.8 173.002 118.8 173.302C118.8 173.602 119.1 173.902 118.8 174.202C118.5 174.502 118.6 174.802 118.6 175.102C118.6 175.302 118.4 175.502 119 175.502C118.2 176.102 119.4 176.302 119.3 176.802C119.2 177.302 119.3 177.802 119.5 178.202C119.5 178.302 119.4 178.502 119.8 178.502C120 178.502 120 178.602 119.9 178.702C119.3 179.102 119.8 179.502 119.7 179.802C119.7 180.202 120 180.602 119.6 181.102C119.4 181.302 119.4 181.602 120 181.702C120.3 181.702 120 182.002 120.1 182.102C120.1 182.202 120.5 182.302 120.5 182.402C120.5 182.502 120.3 182.602 120.2 182.802C121 183.302 120.2 184.002 120.5 184.602C120.8 185.202 120.8 185.802 120.8 186.402C120.8 186.702 120.7 187.102 119.6 187.602C119.1 187.802 118.6 187.902 118.2 187.802C117.9 187.802 117.7 187.702 117.6 187.602C117.5 187.402 117.3 187.302 117.2 187.102C116.9 186.702 116.3 186.502 116.5 186.002C116.5 185.902 116.2 185.802 116.7 185.602C116.7 185.602 116.7 185.602 116.7 185.502C115.8 185.102 116.2 184.502 116.1 183.902C116 183.402 115.3 183.102 115.5 182.602C114.8 182.402 114.9 182.102 115 181.802C115.5 180.802 115 179.902 114.9 179.002C114.9 178.002 114.6 177.102 114.5 176.202C114.5 176.002 114.1 176.002 114.4 175.702C114.6 175.502 114.4 175.302 114.4 175.102C114.4 174.902 114.2 174.702 114.4 174.502C114.9 173.702 114.4 173.002 114.4 172.202C114.4 171.502 114.4 170.702 114.1 170.002C113.9 169.602 113.5 169.202 113.6 168.702C113.6 168.502 113.3 168.302 113.8 168.102C114 168.102 113.5 167.902 113.4 167.802C113.4 167.502 113.4 167.202 113.3 166.902C113.3 166.502 113.3 166.002 113.1 165.602C113.1 165.302 112.8 165.102 112.7 164.902C112.7 164.602 112.6 164.402 112.6 164.102C112.6 163.702 112.8 163.402 112.8 163.002C112.8 162.602 112.5 162.302 112.8 161.902C113.2 161.202 112.8 160.602 112.8 160.002C112.8 159.402 112.8 158.702 112.5 158.102C112.4 157.802 112.8 157.402 112.8 157.002C112.8 156.802 114.2 156.402 114.7 156.402H114.9C115.4 156.702 116.2 156.902 116.2 157.302C116.2 157.902 116.3 158.502 116.4 159.002L116.6 159.202Z" fill="black"/>
<path d="M166.101 147.302C166.501 147.102 166.801 147.002 167.201 146.702C167.301 146.702 167.601 146.702 167.501 146.202C167.501 145.902 167.901 146.402 168.001 146.402C168.301 146.202 168.701 146.102 169.001 145.902C169.301 145.702 169.501 145.302 169.801 145.102C170.101 144.902 170.601 145.102 170.801 144.602C171.001 144.202 171.401 144.602 171.601 144.302C171.801 144.102 172.101 143.902 172.501 144.002C172.801 144.002 173.101 144.202 173.201 144.002C173.201 143.902 173.201 143.502 173.401 143.502C173.501 143.502 173.801 143.702 173.701 143.002C173.701 143.002 173.701 143.002 173.901 143.002C174.201 143.302 174.401 143.202 174.401 143.002C174.401 142.702 174.501 142.702 174.601 142.602C174.901 142.502 175.201 142.302 175.501 142.302C175.701 142.302 176.001 142.302 176.301 142.302C176.501 142.302 176.701 141.902 177.001 142.102C177.301 142.302 177.501 142.202 177.701 142.102C177.801 142.102 178.101 142.302 177.901 141.602C178.501 142.302 178.501 141.102 178.901 141.202C179.301 141.202 179.601 141.002 180.001 140.902C180.001 140.902 180.301 141.002 180.201 140.502C180.201 140.302 180.201 140.302 180.401 140.402C180.901 140.902 181.001 140.402 181.301 140.402C181.601 140.402 181.901 140.002 182.301 140.402C182.501 140.602 182.701 140.602 182.701 140.002C182.701 139.702 182.901 140.002 183.001 139.802C183.001 139.802 183.001 139.402 183.201 139.402C183.201 139.402 183.401 139.602 183.501 139.702C183.801 138.902 184.501 139.702 184.901 139.302C185.301 139.002 185.801 138.902 186.301 138.902C186.601 138.902 186.901 138.902 187.401 140.002C187.601 140.502 187.801 141.002 187.701 141.402C187.701 141.702 187.701 141.902 187.601 142.002C187.501 142.102 187.401 142.302 187.301 142.402C187.101 142.702 186.901 143.302 186.601 143.102C186.501 143.102 186.501 143.402 186.201 142.902C186.001 143.802 185.501 143.402 185.101 143.602C184.801 143.802 184.601 144.502 184.201 144.302C184.201 145.002 184.001 144.902 183.701 144.802C182.801 144.402 182.301 145.002 181.601 145.202C180.901 145.302 180.301 145.702 179.601 145.902C179.501 145.902 179.601 146.302 179.301 146.102C179.101 145.902 179.001 146.102 178.801 146.202C178.701 146.202 178.601 146.402 178.401 146.302C177.601 145.902 177.301 146.502 176.701 146.602C176.201 146.702 175.601 146.902 175.201 147.302C174.901 147.502 174.801 148.002 174.401 148.002C174.201 148.002 174.201 148.402 173.901 147.902C173.801 147.802 173.901 148.202 173.801 148.302C173.601 148.402 173.401 148.502 173.201 148.602C172.901 148.702 172.601 148.802 172.301 149.002C172.101 149.102 172.101 149.402 171.901 149.602C171.701 149.702 171.601 149.802 171.301 149.902C171.001 149.902 170.701 149.902 170.401 149.902C170.101 149.902 170.001 150.302 169.601 150.202C168.901 150.002 168.601 150.402 168.201 150.602C167.701 150.802 167.301 150.902 166.901 151.302C166.701 151.502 166.201 151.202 166.001 151.302C165.901 151.302 165.101 150.102 164.901 149.702V149.502C164.901 149.002 164.801 148.202 165.101 148.102C165.501 148.002 165.901 147.702 166.301 147.502L166.101 147.302Z" fill="black"/>
<path d="M146.699 141.101C146.699 140.901 146.699 140.701 146.699 140.601C146.699 140.601 146.899 140.501 146.399 140.401C146.099 140.401 146.799 140.301 146.699 140.201C146.699 140.001 146.699 139.901 146.699 139.701C146.699 139.501 146.399 139.401 146.399 139.201C146.399 139.001 146.699 138.901 146.399 138.701C146.099 138.501 146.599 138.501 146.499 138.301C146.399 138.201 146.299 138.001 146.499 137.901C146.699 137.901 146.899 137.701 146.799 137.601C146.799 137.601 146.399 137.401 146.499 137.401C146.499 137.401 146.799 137.401 146.199 137.201C146.199 137.201 146.199 137.201 146.399 137.201C146.799 137.201 146.799 137.201 146.499 137.001C146.199 137.001 146.299 136.901 146.299 136.801C146.299 136.701 146.299 136.501 146.299 136.401C146.299 136.401 146.599 136.201 146.699 136.201C146.699 136.201 146.499 135.901 146.799 135.901C147.099 135.901 147.099 135.801 147.099 135.701C147.099 135.701 147.399 135.701 146.799 135.501C147.599 135.501 146.599 135.101 146.799 135.001C146.999 134.901 146.899 134.701 146.999 134.501C146.999 134.501 147.199 134.501 146.799 134.301C146.599 134.201 146.599 134.301 146.799 134.301C147.399 134.301 147.099 134.101 147.199 134.001C147.399 133.901 147.199 133.701 147.599 133.701C147.799 133.701 147.899 133.701 147.399 133.401C147.199 133.301 147.399 133.401 147.399 133.201L147.099 133.001C147.099 133.001 147.299 133.001 147.499 133.001C146.899 132.601 147.899 132.701 147.799 132.401C147.799 132.101 147.799 132.001 147.999 131.801C147.999 131.801 148.299 131.701 149.399 132.001C149.899 132.201 150.399 132.401 150.699 132.601C150.899 132.701 151.099 132.801 151.099 132.901C151.099 132.901 151.299 133.101 151.299 133.201C151.399 133.401 151.899 133.701 151.599 133.701C151.599 133.701 151.799 133.901 151.299 133.701C151.999 134.101 151.399 134.101 151.399 134.301C151.399 134.401 151.999 134.801 151.699 134.801C152.299 135.101 152.099 135.101 151.899 135.101C151.199 135.101 151.499 135.501 151.399 135.801C151.199 136.001 151.299 136.301 151.199 136.601C151.199 136.601 151.499 136.801 151.199 136.801C150.899 136.801 151.199 136.901 151.199 137.001C151.199 137.001 151.299 137.101 151.199 137.201C150.499 137.201 150.899 137.601 150.799 137.801C150.799 138.001 150.599 138.201 150.799 138.401C150.799 138.501 151.199 138.701 151.099 138.801C151.099 138.801 151.399 138.901 150.799 138.901C150.599 138.901 151.099 138.901 151.099 139.001C151.099 139.001 151.099 139.201 151.099 139.301C151.099 139.401 151.099 139.501 151.099 139.701L151.399 139.901V140.101C151.399 140.101 151.099 140.301 150.999 140.401C150.999 140.501 151.199 140.601 150.999 140.701C150.499 140.901 150.699 141.101 150.699 141.301C150.699 141.501 150.699 141.701 150.699 141.801C150.699 141.801 150.299 142.001 150.299 142.101C150.299 142.101 148.799 142.301 148.299 142.401H148.099C147.599 142.401 146.899 142.301 146.899 142.101C146.899 141.901 146.899 141.701 146.899 141.501L146.699 141.101Z" fill="black"/>
<path d="M157.1 141.902C157.1 141.702 157.1 141.502 157.1 141.402C157.1 141.402 157.3 141.302 156.8 141.202C156.5 141.202 157.2 141.102 157.1 141.002C157.1 140.802 157.1 140.702 157.1 140.502C157.1 140.302 156.8 140.202 156.8 140.002C156.8 139.802 157.1 139.702 156.8 139.502C156.5 139.302 157 139.302 156.9 139.102C156.8 139.002 156.7 138.802 156.9 138.702C157.1 138.702 157.3 138.502 157.2 138.402C157.2 138.402 156.8 138.202 156.9 138.202C156.9 138.202 157.2 138.202 156.6 138.002C156.6 138.002 156.6 138.002 156.8 138.002C157.2 138.002 157.2 138.002 156.9 137.802C156.6 137.802 156.7 137.702 156.7 137.602C156.7 137.502 156.7 137.302 156.7 137.202C156.7 137.202 157 137.002 157.1 137.002C157.1 137.002 156.9 136.702 157.2 136.702C157.5 136.702 157.5 136.602 157.5 136.502C157.5 136.502 157.8 136.502 157.2 136.302C158 136.302 157 135.902 157.2 135.802C157.4 135.702 157.3 135.502 157.4 135.302C157.4 135.302 157.6 135.302 157.2 135.102C157 135.002 157 135.102 157.2 135.102C157.8 135.102 157.5 134.902 157.6 134.802C157.8 134.702 157.6 134.502 158 134.502C158.2 134.502 158.3 134.502 157.8 134.202C157.6 134.102 157.8 134.202 157.8 134.002L157.5 133.802C157.5 133.802 157.7 133.802 157.9 133.802C157.3 133.402 158.3 133.502 158.2 133.202C158.2 132.902 158.2 132.802 158.4 132.602C158.4 132.602 158.7 132.502 159.8 132.802C160.3 133.002 160.8 133.202 161.1 133.402C161.3 133.502 161.5 133.602 161.5 133.702C161.5 133.702 161.7 133.902 161.7 134.002C161.8 134.202 162.3 134.502 162 134.502C162 134.502 162.2 134.702 161.7 134.502C162.4 134.902 161.8 134.902 161.8 135.102C161.8 135.202 162.4 135.602 162.1 135.602C162.7 135.902 162.5 135.902 162.3 135.902C161.6 135.902 161.9 136.302 161.8 136.602C161.6 136.802 161.7 137.102 161.6 137.402C161.6 137.402 161.9 137.602 161.6 137.602C161.3 137.602 161.6 137.702 161.6 137.802C161.6 137.802 161.7 137.902 161.6 138.002C160.9 138.002 161.3 138.402 161.2 138.602C161.2 138.802 161 139.002 161.2 139.202C161.2 139.302 161.6 139.502 161.5 139.602C161.5 139.602 161.8 139.702 161.2 139.702C161 139.702 161.5 139.702 161.5 139.802C161.5 139.802 161.5 140.002 161.5 140.102C161.5 140.202 161.5 140.302 161.5 140.502L161.8 140.702V140.902C161.8 140.902 161.5 141.102 161.4 141.202C161.4 141.302 161.6 141.402 161.4 141.502C160.9 141.702 161.1 141.902 161.1 142.102C161.1 142.302 161.1 142.502 161.1 142.602C161.1 142.602 160.7 142.802 160.7 142.902C160.7 142.902 159.2 143.102 158.7 143.202H158.5C158 143.202 157.3 143.102 157.3 142.902C157.3 142.702 157.3 142.502 157.3 142.302L157.1 141.902Z" fill="black"/>
<path d="M171.501 152.002C172.401 153.002 173.201 154.002 174.001 154.902C174.301 155.302 174.401 155.802 175.201 155.802C175.601 155.802 175.401 156.602 175.701 156.902C176.501 157.802 177.201 158.802 178.001 159.702C178.401 160.202 178.801 160.502 179.201 161.002C179.801 161.702 180.401 162.402 181.101 163.302C182.101 164.502 182.801 165.702 183.701 167.002C183.201 167.202 182.701 167.302 182.301 167.502C181.601 167.802 180.701 168.002 179.901 168.202C179.001 168.302 178.201 168.502 177.501 168.702C177.301 168.702 177.101 168.802 176.901 168.902H176.401C176.201 169.102 175.901 169.202 175.601 169.202C175.101 169.302 174.601 169.302 174.101 169.202C173.401 169.202 172.601 169.002 171.901 169.202C171.501 169.302 171.101 169.702 170.601 169.702C170.101 169.702 169.601 169.502 169.201 170.102C169.201 170.102 169.001 170.102 168.901 170.002C168.401 169.602 167.801 169.702 167.401 170.002C167.001 170.302 166.601 170.202 166.301 170.202C165.301 170.202 164.201 170.202 163.201 170.002C162.401 169.902 161.701 169.602 160.901 169.402C160.101 169.302 159.201 169.402 158.501 169.002C157.801 168.602 157.101 168.402 156.401 168.302C156.001 168.302 155.601 167.802 155.101 168.302C155.101 168.302 154.901 168.302 154.801 168.302C153.901 167.202 152.501 167.902 151.401 167.302C150.301 166.702 149.001 166.402 147.901 165.902C147.601 165.802 147.301 165.402 146.901 165.702C146.701 165.702 146.401 165.702 146.301 165.402C145.801 164.402 144.701 164.202 143.901 163.602C143.001 162.902 142.001 162.402 141.401 161.302C141.201 160.802 140.801 160.302 140.001 160.302C139.601 160.302 139.401 159.702 139.101 159.402C138.801 159.202 138.401 159.102 138.201 158.802C138.001 158.602 138.001 158.202 137.901 157.902C137.901 157.902 137.901 157.702 137.701 157.702C137.001 157.202 136.501 156.402 136.301 155.602L135.901 154.402C135.801 154.002 135.701 153.602 135.501 153.202C134.701 151.702 134.401 149.902 134.301 148.202C134.301 147.302 134.401 146.302 135.501 145.702C136.001 145.402 136.601 145.402 136.901 145.702C137.201 146.002 137.401 146.202 137.501 146.502C137.601 147.002 137.701 147.402 137.901 147.802C138.101 148.202 138.301 148.702 138.501 149.102C138.701 149.502 138.901 149.902 138.901 150.402C138.901 150.702 139.201 150.902 138.901 151.302V151.502C139.501 151.902 139.701 152.502 140.001 153.002C140.101 153.302 140.201 153.602 140.301 153.902C140.401 154.202 140.601 154.502 140.801 154.702C141.101 155.102 141.501 155.502 141.901 155.802C142.301 156.102 142.701 156.402 143.001 156.902C143.801 156.902 144.201 157.402 144.501 157.902C145.601 159.802 147.701 160.602 149.601 161.602C151.501 162.602 153.601 163.302 155.801 163.902C156.201 163.902 156.601 163.702 156.901 164.102C157.201 164.502 157.801 164.402 158.301 164.502C158.701 164.502 159.201 164.502 159.601 164.802C161.201 165.802 163.101 165.602 164.801 165.702C166.501 165.902 168.301 165.902 170.101 165.702C171.201 165.502 172.201 165.102 173.201 165.102C173.701 165.102 174.101 164.702 174.601 165.102C174.801 165.202 175.101 164.702 175.401 164.602H175.801C175.801 164.502 176.001 164.502 176.001 164.502C176.101 164.502 176.301 164.502 176.401 164.502C176.401 164.502 176.401 164.402 176.201 164.302C176.101 164.202 175.701 164.102 175.601 164.102C175.601 164.102 175.501 164.102 175.401 163.902L175.201 163.702L174.901 163.302C174.401 162.602 174.101 161.802 173.601 161.102C173.101 160.402 172.301 159.802 172.001 159.002C171.401 157.502 170.201 156.402 169.201 155.202C168.201 154.002 167.201 152.802 166.101 151.702C165.501 151.102 165.301 150.202 164.701 149.502C164.401 149.202 165.101 147.802 165.601 147.602C165.601 147.602 165.801 147.602 165.901 147.602C166.801 147.902 167.901 148.002 168.501 148.702C169.401 149.802 170.501 150.902 171.401 152.002H171.501Z" fill="black"/>
<path d="M160 187.002L160.5 186.002C160.5 185.802 160.6 185.702 160.7 185.502C160.7 185.502 161.1 185.002 160.4 185.502C160 185.702 161 185.002 161 184.902V184.802H160.8C160.6 184.902 160.5 185.002 160.3 185.002C160.1 185.002 160 185.202 159.8 185.302H159.6C159.3 185.302 159 185.402 158.7 185.402C157.5 185.502 156.4 185.202 155.3 185.402C154.3 185.602 153.6 184.902 152.7 184.802C151.7 184.702 150.8 184.502 150 183.902C149.4 183.502 148.9 183.002 148.3 182.902C147.9 182.802 147.4 182.902 147 182.702C146.6 182.502 146.4 182.002 145.7 182.402C145.7 182.402 145.5 182.202 145.5 182.102C145.3 181.502 144.9 181.202 144.4 181.302C143.9 181.302 143.7 181.102 143.4 180.902C142.6 180.402 141.9 179.802 141.2 179.202C140.7 178.702 140.3 178.102 139.9 177.502C139.4 177.002 138.7 176.602 138.5 175.902C138.3 175.202 137.8 174.802 137.4 174.302C137.2 174.002 137.1 173.502 136.4 173.702C136.4 173.702 136.3 173.702 136.3 173.502C136.3 172.202 134.8 172.002 134.3 170.902C133.9 169.802 133.1 168.802 132.7 167.702C132.6 167.402 132.7 167.002 132.1 166.902C131.9 166.902 131.8 166.502 131.9 166.302C132.1 165.802 132 165.302 131.9 164.902C131.8 164.502 131.6 164.002 131.6 163.602C131.6 163.102 131.5 162.602 131.5 162.102C131.5 161.602 131.5 161.102 131.7 160.602C131.9 160.202 132 159.602 131.5 159.102C131.2 158.902 131.5 158.402 131.5 158.002C131.5 157.702 131.2 157.402 131.3 157.102C131.3 156.802 131.6 156.602 131.7 156.402V156.202C131.3 154.702 132.4 153.502 132.6 152.102C132.8 150.702 133.2 149.402 133.8 148.102C134.1 147.402 134.5 146.702 135.7 146.602C136.3 146.602 136.8 146.702 137 147.102C137.2 147.402 137.3 147.702 137.3 148.002C137.3 148.402 137.3 148.902 137.3 149.302C137.3 150.202 137.5 151.102 137 151.902C136.8 152.102 137 152.502 136.5 152.602C136.5 152.602 136.4 152.702 136.4 152.802C136.9 154.102 136.1 155.102 136 156.302C135.9 157.302 136.4 158.302 136 159.202C136.6 159.802 136.5 160.302 136.3 160.802C135.6 162.602 136.3 164.402 136.9 166.002C137.4 167.702 138.5 169.202 139.7 170.702C139.9 171.002 140.4 171.002 140.4 171.402C140.4 171.902 140.9 172.102 141.2 172.402C141.5 172.702 141.8 172.902 142 173.302C142.6 174.902 144 175.702 145.2 176.702C146.3 177.702 147.6 178.602 149 179.202C149.9 179.502 150.8 179.602 151.6 180.002C151.9 180.202 152.4 180.002 152.6 180.702C152.6 180.902 153.1 180.602 153.4 180.702C154 180.802 154.6 181.002 155.2 181.102C156 181.202 156.9 181.402 157.7 181.302C158.2 181.302 158.7 181.002 159.2 180.902C159.3 180.902 159.5 180.902 159.6 180.902H159.7H159.8L160.2 180.802L161.1 180.602C161.4 180.602 161.7 180.602 162 180.402C162.8 180.202 163.6 180.002 164.4 179.702C165.2 179.502 165.9 179.302 166.7 179.002C167 178.902 167.4 178.802 167.7 178.602V179.102V179.402V179.802C167.4 180.302 167.3 180.902 167 181.502C166.3 182.902 165.9 183.902 165.6 185.002C165.2 186.002 164.8 187.202 164.3 188.202C163.6 189.502 162.9 190.802 162.2 192.102C161.8 192.802 161 193.202 160.5 193.802C160.3 194.102 158.8 193.602 158.5 193.202C158.5 193.202 158.4 193.002 158.4 192.902C158.4 192.002 158.2 191.102 158.7 190.402C159.4 189.402 160 188.302 160.5 187.302L160 187.002Z" fill="black"/>
<path d="M119.899 157.502C119.099 157.702 118.299 157.802 117.499 158.002C117.199 158.002 116.899 157.802 116.599 158.402C116.499 158.702 116.099 158.102 115.799 158.102C115.099 158.202 114.299 158.102 113.499 158.302C112.799 158.302 111.999 158.602 111.299 158.602C110.599 158.602 109.799 158.202 109.099 158.402C108.399 158.602 107.999 158.002 107.399 157.902C106.699 157.902 105.999 157.702 105.499 157.302C105.099 157.002 104.799 156.602 104.299 156.402C103.999 156.402 103.599 156.402 103.299 156.202C102.999 156.002 102.899 155.602 102.299 155.802C102.299 155.802 102.199 155.602 102.199 155.502C102.199 154.902 101.899 154.702 101.499 154.602C101.099 154.602 100.899 154.302 100.699 154.002C100.199 153.302 99.7992 152.402 99.6992 151.302V151.002C99.6992 150.102 100.099 149.402 100.399 148.802C100.699 148.202 100.799 147.502 101.399 147.202C101.999 146.902 102.199 146.602 102.599 146.202C102.799 146.002 103.199 146.002 102.999 145.402C102.999 145.402 102.999 145.302 103.099 145.302C104.199 145.402 104.199 144.102 104.999 143.802C105.799 143.602 106.499 143.102 107.299 142.802C107.499 142.802 107.799 142.802 107.799 142.302C107.799 142.102 107.999 142.002 108.199 142.102C108.999 142.502 109.399 142.102 109.999 142.002C110.699 142.002 111.299 141.602 111.999 142.002C112.299 142.202 112.699 142.202 112.899 141.602C112.999 141.302 113.399 141.602 113.599 141.502C113.799 141.502 113.899 141.102 114.099 141.102C114.299 141.102 114.399 141.302 114.599 141.402C114.599 141.402 114.699 141.402 114.799 141.402C115.699 140.702 116.699 141.502 117.699 141.402C118.699 141.302 119.799 141.402 120.799 141.802C121.399 142.002 121.899 142.302 121.899 143.502C121.899 144.002 121.699 144.602 121.399 144.802C121.199 145.002 120.999 145.102 120.799 145.202C120.499 145.202 120.199 145.202 119.999 145.302C119.499 145.302 118.899 145.802 118.399 145.502C118.199 145.402 117.999 145.702 117.899 145.202C117.899 145.202 117.899 145.102 117.799 145.202C117.099 146.002 116.299 145.402 115.499 145.502C114.899 145.502 114.299 146.302 113.599 146.102C113.299 146.802 112.899 146.702 112.499 146.602C111.199 146.102 109.999 146.802 108.999 147.102C107.899 147.402 106.899 148.002 106.099 148.702C105.999 148.802 106.099 149.202 105.799 149.102C105.499 149.102 105.499 149.402 105.299 149.502C105.199 149.702 105.199 149.902 104.899 150.002C104.099 150.202 104.099 150.902 104.199 151.002C104.199 151.002 104.199 151.102 104.199 151.202C104.199 151.702 104.799 152.402 105.599 152.702C106.099 152.902 106.599 152.802 107.099 153.102C107.299 153.202 107.599 153.002 107.699 153.602C107.699 153.802 108.099 153.402 108.199 153.402C108.599 153.402 108.999 153.602 109.299 153.702C109.899 153.802 110.399 153.902 110.999 153.902C111.299 153.902 111.699 153.702 112.099 153.602C112.499 153.602 112.799 153.602 113.199 153.602C113.599 153.602 114.099 153.902 114.599 153.902C115.099 153.902 115.499 153.602 115.999 153.902C116.899 154.302 117.699 153.902 118.599 153.802C119.399 153.702 120.299 153.502 120.999 153.102C121.399 152.902 121.999 153.102 122.499 153.002C122.699 153.002 123.599 154.102 123.699 154.602C123.699 154.602 123.699 154.802 123.699 154.902C123.399 155.502 123.199 156.402 122.599 156.602C121.699 156.802 120.899 157.202 119.999 157.402L119.899 157.502Z" fill="black"/>
<path d="M125.2 136.399C125 136.399 124.8 136.199 124.6 136.199C124.6 136.199 124.6 135.899 124.3 136.399C124.2 136.599 124.3 135.999 124.2 135.999C124 135.999 123.8 135.899 123.6 135.899C123.4 135.899 123.1 136.099 122.9 136.099C122.7 136.099 122.5 135.799 122.3 136.099C122.1 136.399 122 135.799 121.8 135.899C121.6 135.999 121.4 136.099 121.3 135.899C121.2 135.699 121.1 135.499 120.9 135.599C120.9 135.599 120.7 135.999 120.6 135.899C120.6 135.899 120.4 135.599 120.3 136.199C120.3 136.199 120.3 136.199 120.3 135.999C120.3 135.599 120.1 135.599 120 135.899C120 136.199 119.9 136.099 119.8 136.099C119.6 136.099 119.4 136.099 119.2 136.099C119.1 136.099 118.9 135.799 118.8 135.699C118.7 135.699 118.5 135.899 118.4 135.699C118.3 135.399 118.1 135.399 118 135.399C118 135.399 117.8 135.099 117.8 135.699C117.6 134.899 117.4 135.999 117.2 135.699C117 135.499 116.7 135.699 116.5 135.699C116.5 135.699 116.4 135.499 116.3 135.999C116.3 136.199 116.3 136.199 116.2 135.999C116 135.399 115.8 135.799 115.7 135.699C115.5 135.599 115.3 135.899 115.1 135.399C115.1 135.199 114.9 135.099 114.8 135.699C114.8 135.999 114.7 135.699 114.6 135.699C114.6 135.699 114.6 135.999 114.4 135.999C114.4 135.999 114.3 135.799 114.2 135.699C114 136.399 113.6 135.499 113.3 135.699C113 135.899 112.7 135.899 112.4 135.699C112.2 135.699 112.1 135.499 111.8 134.399C111.7 133.899 111.6 133.299 111.7 132.999C111.7 132.799 111.7 132.499 111.8 132.499C111.8 132.399 112 132.299 112.1 132.099C112.3 131.899 112.4 131.299 112.7 131.599C112.7 131.599 112.8 131.399 112.9 131.899C113.1 131.099 113.4 131.599 113.7 131.499C113.9 131.499 114.1 130.799 114.4 130.999C114.4 130.399 114.7 130.499 114.8 130.599C115.3 131.199 115.8 130.799 116.3 130.899C116.8 130.899 117.3 130.899 117.8 130.899C117.8 130.899 118 130.499 118.1 130.899C118.1 131.199 118.3 130.899 118.4 130.899C118.4 130.899 118.6 130.799 118.7 130.899C119.1 131.599 119.5 131.199 119.8 131.299C120.2 131.299 120.6 131.499 120.9 131.299C121.1 131.299 121.4 130.899 121.6 130.999C121.6 130.999 121.8 130.699 121.9 131.299C121.9 131.499 122.1 130.999 122.1 130.999C122.3 130.999 122.4 130.999 122.6 130.999C122.8 130.999 123.1 131.099 123.3 130.999C123.4 130.999 123.6 130.799 123.8 130.699C124 130.699 124.1 130.699 124.3 130.699C124.5 130.799 124.6 131.099 124.8 131.199C125 131.299 125.3 131.099 125.4 131.399C125.6 131.999 126 131.799 126.4 131.999C126.7 132.199 127 132.299 127.4 132.399C127.6 132.399 127.6 132.999 127.8 132.999C127.8 132.999 127.3 134.399 127.1 134.899L127 135.099C126.6 135.499 126.2 136.099 126.1 135.899C125.9 135.699 125.7 135.699 125.4 135.599L125.2 136.399Z" fill="black"/>
<path d="M133.899 127.4C133.599 127.3 133.299 127.1 132.999 127.1C132.899 127.1 132.799 126.8 132.499 127.3C132.399 127.5 132.499 126.9 132.299 126.9C131.999 126.9 131.699 126.7 131.399 126.7C131.099 126.7 130.699 126.7 130.399 126.7C130.099 126.7 129.899 126.3 129.499 126.6C129.199 126.8 129.099 126.3 128.799 126.4C128.499 126.4 128.299 126.5 128.099 126.2C127.999 126 127.799 125.8 127.599 125.8C127.499 125.8 127.299 126.2 127.199 126.1C127.099 126.1 126.999 125.8 126.799 126.4C126.799 126.4 126.799 126.4 126.799 126.2C126.799 125.8 126.599 125.8 126.399 126.1C126.299 126.4 126.199 126.3 126.099 126.3C125.799 126.3 125.599 126.3 125.399 126.3C125.199 126.3 124.999 126 124.899 125.9C124.699 125.9 124.499 126.1 124.299 125.8C124.099 125.5 123.999 125.5 123.799 125.5C123.699 125.5 123.599 125.2 123.499 125.8C123.199 125 122.899 126.1 122.599 125.8C122.299 125.6 121.999 125.8 121.699 125.8C121.699 125.8 121.499 125.6 121.499 126.1C121.499 126.3 121.499 126.3 121.399 126.1C121.099 125.5 120.899 125.9 120.699 125.8C120.399 125.8 120.199 126 119.899 125.6C119.799 125.4 119.599 125.3 119.499 125.9C119.499 126.2 119.299 125.9 119.199 126C119.199 126 119.099 126.3 118.999 126.4C118.999 126.4 118.799 126.2 118.699 126.1C118.399 126.8 117.899 126.1 117.499 126.3C117.199 126.5 116.799 126.6 116.399 126.6C116.199 126.6 115.899 126.5 115.499 125.4C115.299 124.9 115.199 124.4 115.199 124C115.199 123.7 115.199 123.5 115.299 123.4C115.399 123.3 115.499 123.1 115.599 123C115.799 122.7 115.999 122.2 116.299 122.4C116.399 122.4 116.499 122.2 116.599 122.6C116.799 121.8 117.299 122.2 117.699 122.1C117.999 122 118.299 121.3 118.699 121.5C118.799 120.8 119.099 120.9 119.299 121.1C120.099 121.7 120.699 121.1 121.399 121.2C122.099 121.2 122.799 121.2 123.499 121.2C123.599 121.2 123.699 120.9 123.899 121.2C123.999 121.5 124.199 121.2 124.299 121.2C124.399 121.2 124.599 121.1 124.699 121.2C125.199 121.9 125.799 121.5 126.299 121.6C126.799 121.7 127.399 121.8 127.899 121.8C128.199 121.8 128.599 121.5 128.899 121.6C128.999 121.6 129.199 121.4 129.299 122C129.299 122.2 129.499 121.8 129.599 121.8C129.799 121.8 129.999 121.8 130.299 121.9C130.599 121.9 130.899 122.1 131.199 122.1C131.399 122.1 131.599 121.9 131.799 121.9C131.999 121.9 132.199 121.9 132.399 122.1C132.599 122.2 132.799 122.5 132.999 122.6C133.199 122.7 133.599 122.6 133.699 122.9C133.999 123.5 134.499 123.4 134.899 123.7C135.299 123.9 135.699 124.1 136.199 124.2C136.499 124.2 136.499 124.8 136.699 124.9C136.799 124.9 136.299 126.3 136.099 126.8L135.999 127C135.599 127.3 135.099 127.9 134.899 127.8C134.599 127.6 134.199 127.5 133.899 127.4Z" fill="black"/>
<path d="M144.301 122.8C144.101 122.6 143.801 122.4 143.501 122.3C143.401 122.3 143.501 122 143.101 122.3C142.901 122.5 143.101 121.9 143.101 121.9C142.801 121.9 142.601 121.6 142.301 121.5C142.001 121.5 141.701 121.5 141.401 121.5C141.101 121.5 141.001 121 140.601 121.2C140.301 121.4 140.301 120.8 140.001 120.8C139.701 120.8 139.501 120.8 139.401 120.5C139.401 120.3 139.301 120 139.101 120C139.001 120 138.701 120.3 138.701 120.2C138.701 120.2 138.701 119.8 138.301 120.4C138.301 120.4 138.301 120.4 138.301 120.2C138.301 119.8 138.301 119.7 138.001 120C137.801 120.2 137.701 120.1 137.701 120.1C137.501 120.1 137.201 120 137.101 119.8C137.001 119.7 136.901 119.4 136.801 119.3C136.701 119.2 136.401 119.3 136.301 119C136.301 118.7 136.101 118.6 135.901 118.6C135.901 118.6 135.901 118.3 135.501 118.8C135.501 117.9 134.901 118.8 134.701 118.6C134.501 118.3 134.201 118.4 133.901 118.3C133.901 118.3 133.901 118.1 133.601 118.5C133.601 118.7 133.501 118.6 133.501 118.5C133.501 117.8 133.201 118.2 133.001 118C132.801 117.8 132.501 118 132.401 117.6C132.401 117.4 132.201 117.2 132.001 117.8C132.001 118.1 131.801 117.8 131.801 117.8L131.601 118.1C131.601 118.1 131.601 117.9 131.501 117.7C131.101 118.3 130.901 117.4 130.601 117.7C130.301 117.9 130.001 117.8 129.701 117.7C129.501 117.7 129.301 117.5 129.001 116.4C128.901 115.9 128.801 115.4 128.801 115C128.801 114.8 128.801 114.5 129.001 114.4C129.101 114.3 129.201 114.1 129.401 114C129.601 113.8 129.901 113.2 130.201 113.5C130.201 113.5 130.401 113.3 130.501 113.8C130.901 113 131.301 113.5 131.701 113.5C132.001 113.5 132.401 112.9 132.701 113.2C133.001 112.6 133.201 112.7 133.301 113C133.801 113.8 134.601 113.5 135.201 113.7C135.801 114 136.401 114.1 137.001 114.3C137.001 114.3 137.301 114 137.301 114.3C137.301 114.6 137.501 114.4 137.701 114.5C137.801 114.5 138.001 114.5 138.001 114.7C138.201 115.5 138.801 115.3 139.201 115.6C139.601 115.9 140.001 116.1 140.501 116.2C140.801 116.2 141.201 116 141.401 116.2C141.401 116.3 141.701 116 141.601 116.6C141.601 116.8 141.901 116.4 141.901 116.4C142.101 116.4 142.301 116.6 142.401 116.6C142.601 116.7 142.901 116.9 143.201 116.9C143.401 116.9 143.601 116.8 143.801 116.9C144.001 116.9 144.201 117 144.301 117.1C144.501 117.3 144.601 117.6 144.801 117.7C145.001 117.9 145.301 117.7 145.401 118.1C145.501 118.8 146.001 118.8 146.401 119C146.701 119.3 147.101 119.6 147.501 119.7C147.701 119.7 147.601 120.3 147.801 120.5C147.801 120.5 147.101 121.8 146.701 122.2C146.701 122.2 146.601 122.3 146.501 122.4C146.001 122.6 145.501 123.1 145.301 122.9C145.101 122.6 144.801 122.5 144.501 122.3L144.301 122.8Z" fill="black"/>
<path d="M152.9 121.1C152.8 121 152.7 120.8 152.5 120.7C152.5 120.7 152.6 120.4 152.1 120.7C151.9 120.8 152.3 120.4 152.3 120.4C152.1 120.4 152.1 120.1 152 120C151.9 120 151.6 120 151.4 119.8C151.3 119.8 151.4 119.4 151 119.5C150.7 119.5 151 119.2 150.8 119.1C150.6 119.1 150.5 119 150.6 118.7C150.6 118.5 150.8 118.3 150.6 118.3C150.6 118.3 150.2 118.4 150.2 118.3C150.2 118.3 150.3 118 149.8 118.3C149.8 118.3 149.8 118.3 149.8 118.2C150.1 117.9 150 117.8 149.8 118C149.6 118.1 149.5 118 149.5 118C149.4 118 149.3 117.8 149.2 117.7C149.2 117.6 149.2 117.4 149.2 117.2C149.2 117.1 148.9 117.2 149.1 116.9C149.3 116.6 149.2 116.6 149.1 116.5C149.1 116.5 149.3 116.2 148.7 116.5C149.3 115.9 148.3 116.5 148.4 116.2C148.4 115.9 148.3 115.9 148.1 115.8C148.1 115.8 148.1 115.6 147.8 115.8C147.6 115.8 147.7 115.8 147.8 115.8C148.2 115.3 147.8 115.5 147.8 115.3C147.8 115.1 147.5 115.3 147.8 114.8C147.9 114.6 147.9 114.5 147.5 114.8C147.3 115 147.5 114.8 147.4 114.8C147.4 114.8 147.2 115 147.1 115C147.1 115 147.2 114.8 147.3 114.7C146.8 115.2 147.3 114.4 147.1 114.5C147 114.6 146.9 114.5 146.9 114.5C146.9 114.5 146.9 114.3 147 113.1C147 112.6 147 112 147.2 111.7C147.2 111.5 147.4 111.3 147.4 111.2C147.5 111.2 147.6 111 147.8 110.9C148 110.8 148.4 110.3 148.6 110.7C148.6 110.8 148.8 110.6 148.6 111.1C149.2 110.5 149.3 111.1 149.5 111.2C149.7 111.2 150.3 110.9 150.3 111.3C150.8 110.9 150.9 111.1 150.8 111.3C150.7 112.1 151.2 112.1 151.4 112.4C151.6 112.8 151.9 113 152.1 113.3C152.1 113.3 152.4 113.2 152.3 113.3C152.1 113.5 152.3 113.4 152.3 113.5C152.3 113.5 152.5 113.5 152.4 113.7C152 114.3 152.5 114.3 152.6 114.5C152.7 114.8 152.8 115 153.1 115.1C153.3 115.1 153.6 115.1 153.6 115.3C153.6 115.3 153.9 115.3 153.5 115.7C153.4 115.8 153.8 115.6 153.8 115.7C153.9 115.7 153.9 115.9 154 116C154 116.1 154.2 116.3 154.3 116.4C154.3 116.4 154.6 116.4 154.7 116.4C154.8 116.4 154.9 116.5 154.9 116.6C154.9 116.7 154.9 117 154.9 117.1C154.9 117.2 155.2 117.1 155.1 117.4C154.8 117.9 155.1 117.9 155.3 118.1C155.3 118.3 155.5 118.5 155.7 118.6C155.8 118.6 155.5 119.1 155.6 119.2C155.6 119.2 154.5 120.2 154.1 120.5L153.9 120.6C153.5 120.8 152.8 121.1 152.8 121C152.8 120.8 152.6 120.7 152.4 120.5L152.9 121.1Z" fill="black"/>
<path d="M165.601 114.998C165.601 114.998 165.501 115.098 165.601 115.198C165.601 115.198 165.401 115.198 165.801 115.398C166.001 115.498 165.401 115.298 165.501 115.398C165.501 115.398 165.501 115.498 165.501 115.598C165.501 115.598 165.701 115.798 165.701 115.898C165.701 115.898 165.401 115.898 165.701 116.098C165.901 116.198 165.501 116.098 165.501 116.198C165.601 116.198 165.701 116.398 165.501 116.398C165.301 116.398 165.101 116.398 165.201 116.398C165.201 116.398 165.601 116.598 165.501 116.598C165.501 116.598 165.201 116.598 165.801 116.798C165.801 116.798 165.801 116.798 165.701 116.798C165.301 116.798 165.301 116.798 165.601 116.798C165.901 116.798 165.801 116.798 165.801 116.898C165.801 116.898 165.801 116.998 165.801 117.098C165.801 117.098 165.501 117.098 165.401 117.098C165.401 117.098 165.601 117.198 165.301 117.198C165.001 117.198 165.001 117.198 165.001 117.198C165.001 117.198 164.701 117.198 165.301 117.298C164.501 117.298 165.501 117.498 165.301 117.498C165.101 117.498 165.301 117.598 165.301 117.698C165.301 117.698 165.101 117.698 165.601 117.698C165.801 117.698 165.801 117.698 165.601 117.698C165.001 117.698 165.301 117.698 165.201 117.798C165.101 117.798 165.401 117.898 164.901 117.998C164.701 117.998 164.601 117.998 165.201 117.998H165.501C165.501 117.998 165.301 117.998 165.201 117.998C165.901 117.998 165.001 118.198 165.201 118.298C165.401 118.298 165.301 118.498 165.201 118.598C165.201 118.598 165.001 118.698 163.801 118.898C163.301 118.898 162.701 118.998 162.401 119.098C162.201 119.098 161.901 119.098 161.901 119.098C161.801 119.098 161.701 119.098 161.601 119.098C161.401 119.098 160.901 118.998 161.101 118.898C161.101 118.898 160.901 118.898 161.401 118.798C160.601 118.798 161.101 118.598 161.101 118.398C161.101 118.298 160.401 118.198 160.701 118.098C160.101 118.098 160.201 117.998 160.401 117.898C161.101 117.698 160.601 117.498 160.701 117.198C160.801 116.998 160.701 116.698 160.801 116.498C160.801 116.498 160.501 116.398 160.801 116.398C161.101 116.398 160.801 116.398 160.801 116.298C160.801 116.298 160.701 116.198 160.801 116.198C161.501 116.198 161.101 115.898 161.201 115.798C161.301 115.598 161.401 115.498 161.301 115.298C161.301 115.198 160.901 114.998 161.101 114.898C161.101 114.898 160.901 114.698 161.401 114.898C161.601 114.898 161.101 114.798 161.101 114.698C161.101 114.698 161.101 114.598 161.101 114.498C161.101 114.498 161.201 114.298 161.101 114.198C161.101 114.198 160.901 113.998 160.901 113.898V113.698C161.001 113.698 161.201 113.698 161.301 113.698C161.301 113.698 161.201 113.398 161.501 113.498C162.001 113.498 161.901 113.298 162.001 113.198C162.101 113.098 162.201 112.998 162.201 112.798C162.201 112.698 162.701 112.798 162.701 112.798C162.701 112.798 164.001 113.498 164.401 113.798L164.601 113.898C165.001 114.198 165.601 114.598 165.501 114.598C165.401 114.598 165.401 114.698 165.401 114.798L165.601 114.998Z" fill="black"/>
<path d="M110.101 116.201C109.901 116.301 109.601 116.401 109.501 116.601C109.501 116.601 109.201 116.601 109.501 117.001C109.601 117.201 109.201 116.801 109.101 116.801C108.901 117.001 108.701 117.001 108.501 117.201C108.401 117.401 108.301 117.701 108.201 117.901C108.101 118.101 107.701 118.001 107.701 118.401C107.701 118.701 107.301 118.401 107.201 118.701C107.201 118.901 107.101 119.101 106.801 119.101C106.601 119.101 106.301 119.101 106.301 119.101C106.301 119.201 106.501 119.501 106.401 119.501C106.401 119.501 106.101 119.501 106.501 119.901C106.501 119.901 106.501 119.901 106.401 119.901C106.001 119.701 106.001 119.901 106.201 120.001C106.401 120.201 106.301 120.201 106.301 120.301C106.301 120.401 106.301 120.501 106.101 120.601C106.101 120.601 105.801 120.601 105.701 120.701C105.701 120.701 105.801 121.001 105.501 121.001C105.201 121.001 105.201 121.101 105.101 121.201C105.101 121.201 104.801 121.201 105.401 121.401C104.601 121.401 105.601 121.801 105.401 122.001C105.201 122.201 105.401 122.401 105.401 122.601C105.401 122.601 105.201 122.701 105.701 122.801C105.901 122.801 105.901 122.801 105.701 122.901C105.101 123.101 105.501 123.301 105.401 123.401C105.301 123.601 105.601 123.801 105.101 124.101C104.901 124.201 104.801 124.301 105.401 124.401C105.701 124.401 105.401 124.601 105.401 124.701C105.401 124.701 105.701 124.801 105.701 124.901C105.701 124.901 105.501 125.001 105.401 125.101C106.101 125.501 105.201 125.801 105.401 126.201C105.601 126.601 105.401 127.001 105.301 127.401C105.301 127.601 105.001 127.901 103.801 127.701C103.301 127.701 102.701 127.501 102.401 127.401C102.201 127.301 102.001 127.201 101.901 127.101C101.901 127.001 101.701 126.901 101.601 126.801C101.401 126.601 100.901 126.401 101.201 126.201C101.201 126.201 101.001 126.101 101.501 126.001C100.701 125.701 101.301 125.501 101.201 125.201C101.201 125.001 100.501 124.701 100.801 124.501C100.201 124.401 100.301 124.201 100.501 124.101C101.201 123.601 100.701 123.101 100.801 122.501C100.901 121.901 100.801 121.301 101.001 120.601C101.001 120.501 100.701 120.301 101.001 120.201C101.301 120.201 101.101 119.901 101.101 119.801C101.101 119.701 101.101 119.501 101.201 119.401C102.001 119.101 101.801 118.501 102.101 118.001C102.401 117.601 102.801 117.201 102.901 116.701C103.001 116.401 102.901 115.901 103.301 115.801C103.401 115.801 103.301 115.401 103.801 115.801C103.901 115.801 103.801 115.501 103.801 115.401C103.901 115.201 104.101 115.101 104.201 115.001C104.401 114.801 104.601 114.701 104.801 114.501C104.801 114.401 104.801 114.101 105.001 113.901C105.001 113.701 105.201 113.601 105.401 113.601C105.601 113.601 105.901 113.601 106.101 113.601C106.301 113.601 106.401 113.201 106.701 113.301C107.301 113.501 107.501 113.101 107.901 113.001C108.301 112.901 108.601 112.701 108.901 112.401C109.101 112.201 109.501 112.601 109.601 112.501C109.601 112.501 110.401 113.701 110.601 114.201V114.401C110.601 114.901 110.801 115.601 110.601 115.701C110.301 115.701 110.101 115.901 109.801 116.101L110.101 116.201Z" fill="black"/>
<path d="M59.9997 119.399C60.5997 118.499 61.2997 117.599 61.8997 116.699C62.0997 116.399 62.5997 116.199 62.3997 115.499C62.3997 115.199 63.0997 115.299 63.2997 114.999C63.8997 114.199 64.5997 113.499 65.1997 112.699C65.7997 111.899 66.2997 111.099 66.8997 110.299C67.4997 109.499 68.4997 108.999 68.8997 108.199C69.2997 107.399 70.1997 107.299 70.7997 106.699C71.3997 106.099 71.9997 105.399 72.8997 105.199C73.4997 104.999 74.0997 104.799 74.5997 104.399C74.8997 104.099 74.9997 103.699 75.3997 103.499C75.7997 103.299 76.2997 103.399 76.2997 102.599C76.2997 102.599 76.4997 102.599 76.5997 102.599C77.1997 102.799 77.5997 102.599 77.7997 102.099C77.9997 101.699 78.2997 101.599 78.5997 101.499C79.3997 101.099 80.2997 100.799 81.0997 100.599C81.7997 100.399 82.4997 100.599 83.0997 100.399C83.7997 100.399 84.4997 99.8994 85.0997 100.099C85.7997 100.299 86.3997 100.299 86.9997 100.199C87.3997 100.199 87.7997 100.499 87.9997 99.7994H88.1997C89.1997 100.599 90.1996 99.4994 91.1996 99.7994C92.1996 100.099 93.2997 100.099 94.3997 100.299C94.6997 100.299 94.8997 100.599 95.2997 100.299C95.3997 100.199 95.6997 100.299 95.7997 100.299C96.3997 101.099 97.2997 100.999 97.9997 101.399C98.7997 101.799 99.7997 101.899 100.4 102.799C100.7 103.199 101.1 103.499 101.8 103.199C102.1 103.099 102.4 103.499 102.7 103.699C103 103.799 103.3 103.699 103.6 103.899C103.8 103.999 103.9 104.399 104 104.599C104 104.599 104.1 104.699 104.2 104.699C105.7 104.999 106.2 106.499 107.3 107.299C108.4 108.099 109.3 109.199 110.1 110.399C110.5 110.999 110.8 111.799 110.1 112.799C109.8 113.299 109.3 113.599 108.9 113.499C108.6 113.499 108.3 113.399 108.1 113.199C107.8 112.899 107.5 112.699 107.2 112.499C106.6 111.999 105.7 111.799 105.4 111.099C105.3 110.899 104.9 110.899 105.1 110.399V110.199C103.8 110.099 103.4 108.999 102.5 108.399C101.7 107.899 100.7 107.999 100.1 107.299C99.3997 107.599 98.8997 107.299 98.5997 106.899C97.2997 105.499 95.4997 105.299 93.8997 104.899C92.1997 104.399 90.3997 104.299 88.6997 104.299C88.3997 104.299 88.1997 104.699 87.7997 104.399C87.4997 104.099 86.9997 104.399 86.6997 104.399C86.2997 104.399 85.9997 104.599 85.6997 104.499C84.1997 103.999 82.8997 104.799 81.5997 105.199C80.2997 105.599 78.8997 106.099 77.7997 106.899C77.0997 107.399 76.5997 108.099 75.7997 108.499C75.4997 108.699 75.3997 109.199 74.6997 108.899C74.4997 108.899 74.4997 109.399 74.2997 109.599C73.8997 109.999 73.3997 110.399 72.8997 110.799C72.2997 111.399 71.5997 111.899 71.0997 112.499C70.7997 112.899 70.5997 113.399 70.2997 113.799C69.9997 114.199 69.5997 114.599 69.1997 114.999C68.6997 115.499 68.0997 115.799 67.5997 116.299C67.0997 116.799 66.7997 117.499 66.1997 117.899C64.9997 118.599 64.3997 119.699 63.6997 120.699C62.8997 121.699 62.1997 122.699 61.6997 123.899C61.3997 124.499 60.5997 124.899 60.2997 125.499C60.1997 125.799 58.5997 125.499 58.1997 125.099L58.0997 124.899C58.0997 124.099 57.6997 123.099 58.0997 122.399C58.7997 121.399 59.3997 120.299 60.0997 119.299L59.9997 119.399Z" fill="black"/>
<path d="M67.5004 130.801C67.9004 130.101 68.3004 129.401 68.7004 128.601C68.8004 128.301 69.2005 128.201 68.9005 127.601C68.7005 127.301 69.4004 127.401 69.6004 127.101C69.9004 126.401 70.4004 125.701 70.7004 125.001C71.0004 124.301 71.2004 123.501 71.5005 122.801C71.8005 122.101 72.5004 121.601 72.6004 120.801C72.7004 120.101 73.5005 119.901 73.8005 119.301C74.1005 118.701 74.5004 118.101 75.1004 117.701C75.6004 117.401 76.0005 117.201 76.3005 116.801C76.5005 116.501 76.5004 116.101 76.7004 115.901C77.0004 115.701 77.4004 115.701 77.2004 115.001C77.2004 115.001 77.4004 115.001 77.5005 115.001C78.0005 115.101 78.4005 114.901 78.4005 114.401C78.4005 114.001 78.7004 113.901 79.0005 113.801C79.6005 113.401 80.3005 113.001 81.0005 112.801C81.5005 112.601 82.1004 112.601 82.6004 112.501C83.1004 112.401 83.6004 111.901 84.2004 112.101C84.8004 112.301 85.2004 112.101 85.7004 112.101C86.0004 112.101 86.3004 112.301 86.5005 111.601C86.5005 111.601 86.6004 111.601 86.7004 111.601C87.6004 112.301 88.2004 111.201 89.1004 111.401C89.9004 111.601 90.8004 111.401 91.6004 111.401C91.8004 111.401 92.0005 111.601 92.3005 111.201C92.3005 111.001 92.6004 111.001 92.7004 111.201C93.2004 111.901 93.9004 111.601 94.5005 111.801C95.2005 112.001 95.9004 111.801 96.5005 112.501C96.7005 112.801 97.1004 112.901 97.6004 112.501C97.8004 112.301 98.1005 112.601 98.3005 112.601C98.5005 112.601 98.8004 112.401 99.0005 112.401C99.2005 112.401 99.3005 112.701 99.4005 112.901C99.4005 112.901 99.5005 112.901 99.6004 112.901C100.7 112.501 101.5 113.601 102.5 113.701C103.5 113.701 104.4 114.101 105.4 114.501C105.9 114.701 106.4 115.001 106.4 116.201C106.4 116.701 106.3 117.301 106 117.501C105.8 117.701 105.5 117.901 105.3 117.901C105 117.901 104.6 117.901 104.3 117.901C103.6 117.901 102.9 118.301 102.3 117.901C102.1 117.801 101.8 117.901 101.8 117.501C101.8 117.501 101.8 117.401 101.7 117.401C100.7 117.901 99.9004 117.201 99.1004 117.001C98.4004 116.901 97.5005 117.301 96.9005 116.901C96.4005 117.401 95.9004 117.201 95.6004 116.901C94.3004 116.001 92.9004 116.201 91.5005 116.001C90.1005 115.801 88.7005 116.001 87.4005 116.001C87.2005 116.001 87.0004 116.401 86.7004 116.201C86.4004 116.001 86.1005 116.201 85.8005 116.301C85.5005 116.301 85.3004 116.501 85.0005 116.501C83.8004 116.101 82.9004 116.901 82.0005 117.301C81.1005 117.701 80.1005 118.201 79.5005 119.001C79.1005 119.501 78.9005 120.201 78.4005 120.601C78.2005 120.801 78.3004 121.201 77.6004 121.101C77.4004 121.101 77.6004 121.501 77.6004 121.701C77.4004 122.101 77.1005 122.401 76.8005 122.801C76.4005 123.301 76.1005 123.901 75.8005 124.501C75.6005 124.901 75.6005 125.301 75.5005 125.701C75.3005 126.101 75.1005 126.501 74.9005 126.801C74.6005 127.201 74.1005 127.601 73.8005 128.101C73.5005 128.601 73.4005 129.201 72.9005 129.601C72.0005 130.201 71.7004 131.301 71.2004 132.101C70.7004 133.001 70.2005 133.801 69.8005 134.801C69.6005 135.301 68.9004 135.601 68.6004 136.101C68.5004 136.301 67.0004 136.001 66.6004 135.701C66.6004 135.701 66.5005 135.601 66.4005 135.501C66.2005 134.801 65.8004 134.001 66.2004 133.501C66.7004 132.701 67.1004 131.801 67.6004 131.001L67.5004 130.801Z" fill="black"/>
<path d="M76.9009 140.498C77.1009 139.898 77.4009 139.298 77.5009 138.698C77.6009 138.098 77.9009 138.298 77.5009 137.898C77.3009 137.698 78.0009 137.698 78.0009 137.498C78.1009 136.898 78.4009 136.398 78.6009 135.798C78.7009 135.198 78.7009 134.598 78.9009 133.998C79.0009 133.398 79.5009 132.998 79.4009 132.398C79.4009 131.798 79.9009 131.598 80.0009 131.098C80.0009 130.598 80.2009 130.098 80.6009 129.698C80.9009 129.398 81.3009 129.198 81.3009 128.798C81.3009 128.598 81.2009 128.198 81.3009 127.998C81.4009 127.798 81.8009 127.698 81.3009 127.198C81.3009 127.198 81.4009 127.198 81.5009 127.198C82.0009 127.198 82.1009 126.898 82.0009 126.598C82.0009 126.298 82.0009 126.098 82.2009 125.898C82.5009 125.398 82.9009 124.898 83.4009 124.498C83.8009 124.198 84.2009 124.098 84.6009 123.798C85.0009 123.598 85.2009 122.998 85.7009 122.998C86.2009 122.998 86.5009 122.798 86.9009 122.598C87.1009 122.498 87.5009 122.598 87.3009 121.998C87.3009 121.998 87.3009 121.998 87.4009 121.998C88.3009 122.498 88.5009 121.198 89.2009 121.198C89.9009 121.198 90.5009 120.798 91.1009 120.698C91.3009 120.698 91.5009 120.698 91.6009 120.298C91.6009 120.098 91.8009 120.098 91.9009 120.198C92.5009 120.698 92.9009 120.198 93.5009 120.298C94.1009 120.298 94.6009 119.998 95.2009 120.498C95.4009 120.698 95.8009 120.798 96.0009 120.198C96.1009 119.898 96.4009 120.198 96.6009 120.198C96.8009 120.198 96.9009 119.898 97.1009 119.898C97.2009 119.898 97.4009 120.098 97.5009 120.298C97.5009 120.298 97.5009 120.298 97.6009 120.298C98.4009 119.698 99.2009 120.598 99.9009 120.498C100.701 120.398 101.501 120.498 102.201 120.698C102.601 120.798 103.001 120.998 103.201 122.198C103.201 122.698 103.201 123.298 103.001 123.598C102.801 123.798 102.701 123.998 102.501 124.098C102.301 124.098 102.001 124.298 101.801 124.298C101.301 124.398 100.801 124.898 100.301 124.598C100.201 124.498 100.001 124.798 99.9009 124.298C99.9009 124.298 99.9009 124.198 99.8009 124.298C99.1009 124.998 98.5009 124.498 97.8009 124.498C97.2009 124.498 96.7009 125.098 96.2009 124.898C95.9009 125.498 95.6009 125.398 95.3009 125.298C94.2009 124.698 93.2009 125.298 92.3009 125.298C91.3009 125.398 90.4009 125.798 89.5009 126.198C89.3009 126.198 89.4009 126.698 89.1009 126.498C88.8009 126.398 88.7009 126.698 88.5009 126.798C88.3009 126.898 88.2009 127.098 88.0009 127.098C87.0009 126.998 86.7009 127.798 86.1009 128.298C85.6009 128.798 85.1009 129.498 84.8009 130.298C84.7009 130.798 84.8009 131.398 84.4009 131.798C84.3009 131.998 84.4009 132.298 83.9009 132.298C83.7009 132.298 84.1009 132.698 84.0009 132.798C84.0009 133.098 83.7009 133.498 83.6009 133.798C83.4009 134.298 83.2009 134.798 83.1009 135.298C83.1009 135.598 83.1009 135.998 83.1009 136.298C83.1009 136.598 82.9009 136.998 82.8009 137.198C82.6009 137.598 82.3009 137.898 82.1009 138.298C81.9009 138.698 82.1009 139.198 81.6009 139.498C80.9009 140.098 80.8009 140.898 80.5009 141.598C80.2009 142.298 79.9009 142.998 79.7009 143.798C79.7009 144.198 79.0009 144.498 78.9009 144.898C78.9009 145.098 77.3009 144.898 76.9009 144.598C76.9009 144.598 76.7009 144.498 76.7009 144.398C76.4009 143.898 75.8009 143.298 76.0009 142.798C76.3009 142.098 76.5009 141.398 76.7009 140.798L76.9009 140.498Z" fill="black"/>
<path d="M90.0995 141.099C90.0995 140.799 90.1995 140.399 90.0995 139.999C90.0995 139.899 90.3995 139.799 89.7995 139.599C89.4995 139.599 90.1995 139.399 90.1995 139.299C90.1995 138.999 90.1995 138.599 90.1995 138.299C90.1995 137.999 89.8995 137.699 89.8995 137.299C89.8995 136.999 90.0995 136.699 89.8995 136.399C89.5995 136.099 90.0995 135.899 89.8995 135.699C89.7995 135.399 89.6995 135.199 89.8995 134.799C90.0995 134.499 90.2995 134.299 90.1995 133.999C90.1995 133.799 89.7995 133.599 89.8995 133.299C89.8995 133.099 90.2995 132.899 89.7995 132.499C89.7995 132.499 89.7995 132.399 89.9995 132.399C90.4995 132.399 90.5995 132.099 90.3995 131.699C90.2995 131.399 90.3995 131.199 90.4995 131.099C90.7995 130.599 91.0995 130.299 91.3995 130.099C91.5995 129.999 91.8995 129.999 92.1995 129.899C92.3995 129.799 92.3995 129.399 92.7995 129.499C93.1995 129.499 93.2995 129.499 93.4995 129.299C93.4995 129.299 93.8995 129.299 93.4995 128.799C94.2995 129.299 93.8995 128.199 94.2995 128.099C94.6995 128.099 94.9995 127.699 95.2995 127.499C95.2995 127.499 95.5995 127.499 95.3995 127.099C95.3995 126.899 95.3995 126.899 95.4995 126.899C96.0995 127.299 96.0995 126.899 96.3995 126.799C96.6995 126.799 96.8995 126.299 97.3995 126.599C97.5995 126.699 97.7995 126.699 97.6995 126.099C97.6995 125.799 97.8995 125.999 97.9995 125.899C97.9995 125.899 97.9995 125.499 98.0995 125.499C98.0995 125.499 98.2995 125.599 98.4995 125.699C98.6995 124.899 99.4995 125.499 99.8995 125.199C100.3 124.899 100.8 124.799 101.3 124.699C101.6 124.699 101.9 124.699 102.4 125.799C102.6 126.299 102.7 126.799 102.7 127.199C102.7 127.499 102.7 127.699 102.6 127.799C102.5 127.899 102.4 128.099 102.3 128.199C102.1 128.499 102 128.999 101.7 128.899C101.6 128.899 101.6 129.199 101.4 128.699C101.4 129.599 100.8 129.199 100.5 129.399C100.2 129.599 100.2 130.299 99.7995 130.099C99.8995 130.699 99.6995 130.699 99.4995 130.599C98.6995 130.299 98.2995 130.999 97.7995 131.199C97.1995 131.399 96.7995 131.899 96.2995 132.199C96.2995 132.199 96.2995 132.599 96.0995 132.499C95.7995 132.399 95.8995 132.599 95.7995 132.699C95.7995 132.699 95.6995 132.999 95.4995 132.899C94.6995 132.699 94.4995 133.399 94.1995 133.599C93.9995 133.699 93.9995 133.699 93.8995 133.799C93.8995 133.799 93.8995 133.999 93.8995 134.099C93.8995 134.099 94.2995 134.399 94.1995 134.599C94.1995 134.699 94.4995 134.799 93.8995 134.999C93.6995 134.999 94.1995 135.199 94.1995 135.199C94.1995 135.399 94.1995 135.699 94.1995 135.899C94.1995 136.199 94.1995 136.599 94.1995 136.899C94.1995 137.099 94.4995 137.299 94.4995 137.499C94.4995 137.699 94.4995 137.899 94.4995 138.099C94.4995 138.399 94.1995 138.599 94.0995 138.899C94.0995 139.199 94.2995 139.499 93.9995 139.699C93.4995 140.099 93.6995 140.699 93.5995 141.099C93.4995 141.599 93.3995 141.999 93.3995 142.499C93.3995 142.799 92.8995 142.899 92.7995 143.199C92.7995 143.299 91.2995 143.199 90.7995 143.099H90.5995C90.1995 142.799 89.4995 142.399 89.5995 142.199C89.6995 141.799 89.6995 141.399 89.7995 140.999L90.0995 141.099Z" fill="black"/>
</svg>
