<svg width="300" height="300" viewBox="0 0 300 300" fill="none" xmlns="http://www.w3.org/2000/svg">
<path d="M176.6 132.902C174.9 131.102 173.2 129.202 171.5 127.402C170.8 126.702 170.4 125.902 169.3 125.502C168.8 125.302 168.6 124.202 168 123.602C166.4 121.902 164.8 120.202 163.2 118.502C161.6 116.902 160 115.702 158.4 115.202C156.8 114.602 154.7 114.102 152.5 114.402C150.7 114.602 149 114.102 147.3 114.302C145.4 114.502 143.5 114.702 141.7 114.602C140.4 114.602 139 114.502 137.7 114.802C136.9 115.002 136.2 115.402 135.3 115.502C134.5 115.602 133.5 115.502 132.9 116.302C132.9 116.302 132.5 116.302 132.3 116.302C131.3 116.102 130.3 116.302 129.6 116.802C129 117.202 128.3 117.402 127.7 117.502C125.9 118.002 124.1 118.502 122.5 119.102C121.3 119.502 120.1 119.902 119.1 120.502C118 121.202 117.5 122.302 116.7 123.102C115.9 123.902 115.5 125.002 115.2 126.202C115 126.902 114.6 127.602 115.2 128.302C115.2 128.302 115.2 128.602 115.2 128.702C114.1 130.702 115.2 132.902 115 135.002C114.8 137.302 115 139.602 115 141.902C115 142.502 114.9 143.202 115.4 143.702C115.6 143.902 115.6 144.502 115.5 144.802C115 146.502 115.5 148.302 115.5 150.102C115.5 152.102 116.1 154.102 115.8 156.102C115.7 157.002 115.8 158.102 116.4 159.102C116.7 159.502 116.6 160.502 116.8 161.302C116.9 161.902 117.3 162.402 117.4 163.002C117.4 163.502 117.4 164.002 117.3 164.602C117.3 164.802 117.3 164.902 117.3 165.102C118.4 167.902 118 170.902 118.7 173.802C119.4 176.702 119.9 179.702 120.3 182.602C120.6 184.202 120.7 185.902 119.8 187.302C119.4 187.902 118.8 188.002 118.4 187.302C118.1 186.802 117.7 186.302 117.6 185.702C117.3 184.802 117 183.902 116.8 183.002C116.3 181.202 115.4 179.402 115.3 177.402C115.3 176.802 114.9 176.102 115.3 175.502C115.3 175.502 115.3 175.202 115.3 175.002C114.1 172.502 114.1 169.702 113.6 167.102C113.2 164.802 112.2 162.702 112.2 160.402C111.4 159.202 111.3 157.702 111.4 156.402C111.5 151.802 110.7 147.302 110.6 142.702C110.6 140.402 110.5 138.002 110.5 135.702C110.5 133.402 110.5 131.002 110.8 128.602C110.8 127.802 110.6 127.002 111.1 126.002C111.5 125.102 111.7 123.902 112.1 122.802C112.5 121.802 112.9 120.702 113.6 120.002C116.6 116.802 120.3 114.902 123.8 113.802C127.3 112.802 130.9 112.002 134.5 111.302C136.7 110.802 138.8 110.202 141.1 110.102C142.1 110.102 143 109.602 144 110.102C144.3 110.302 145.1 109.802 145.8 109.702C147.3 109.602 148.9 109.602 150.4 109.602C152.5 109.602 154.6 109.602 157 110.002C158.4 110.202 159.9 110.302 161.4 111.002C162.9 111.702 164.2 112.802 165.2 113.802C166.5 115.202 167.4 116.502 168.5 117.802C169.6 119.102 171.1 120.302 172 121.702C173.7 124.302 176.1 126.402 178.1 128.702C180.2 131.002 182.2 133.302 184.4 135.502C185.6 136.702 186.4 138.202 187.5 139.502C188 140.102 187.7 141.902 187.1 142.002C187 142.002 186.8 142.002 186.7 142.002C185.2 141.102 183.6 140.502 182.4 139.002C180.5 136.902 178.5 134.802 176.6 132.802V132.902Z" fill="black"/>
<path d="M166.1 147.302C166.5 147.102 166.8 147.002 167.2 146.702C167.3 146.702 167.6 146.702 167.5 146.202C167.5 145.902 167.9 146.402 168 146.402C168.3 146.202 168.7 146.102 169 145.902C169.3 145.702 169.5 145.302 169.8 145.102C170.1 144.902 170.6 145.102 170.8 144.602C171 144.202 171.4 144.602 171.6 144.302C171.8 144.102 172.1 143.902 172.5 144.002C172.8 144.002 173.1 144.202 173.2 144.002C173.2 143.902 173.2 143.502 173.4 143.502C173.5 143.502 173.8 143.702 173.7 143.002C173.7 143.002 173.7 143.002 173.9 143.002C174.2 143.302 174.4 143.202 174.4 143.002C174.4 142.702 174.5 142.702 174.6 142.602C174.9 142.502 175.2 142.302 175.5 142.302C175.7 142.302 176 142.302 176.3 142.302C176.5 142.302 176.7 141.902 177 142.102C177.3 142.302 177.5 142.202 177.7 142.102C177.8 142.102 178.1 142.302 177.9 141.602C178.5 142.302 178.5 141.102 178.9 141.202C179.3 141.202 179.6 141.002 180 140.902C180 140.902 180.3 141.002 180.2 140.502C180.2 140.302 180.2 140.302 180.4 140.402C180.9 140.902 181 140.402 181.3 140.402C181.6 140.402 181.9 140.002 182.3 140.402C182.5 140.602 182.7 140.602 182.7 140.002C182.7 139.702 182.9 140.002 183 139.802C183 139.802 183 139.402 183.2 139.402C183.2 139.402 183.4 139.602 183.5 139.702C183.8 138.902 184.5 139.702 184.9 139.302C185.3 139.002 185.8 138.902 186.3 138.902C186.6 138.902 186.9 138.902 187.4 140.002C187.6 140.502 187.8 141.002 187.7 141.402C187.7 141.702 187.7 141.902 187.6 142.002C187.5 142.102 187.4 142.302 187.3 142.402C187.1 142.702 186.9 143.302 186.6 143.102C186.5 143.102 186.5 143.402 186.2 142.902C186 143.802 185.5 143.402 185.1 143.602C184.8 143.802 184.6 144.502 184.2 144.302C184.2 145.002 184 144.902 183.7 144.802C182.8 144.402 182.3 145.002 181.6 145.202C180.9 145.302 180.3 145.702 179.6 145.902C179.5 145.902 179.6 146.302 179.3 146.102C179.1 145.902 179 146.102 178.8 146.202C178.7 146.202 178.6 146.402 178.4 146.302C177.6 145.902 177.3 146.502 176.7 146.602C176.2 146.702 175.6 146.902 175.2 147.302C174.9 147.502 174.8 148.002 174.4 148.002C174.2 148.002 174.2 148.402 173.9 147.902C173.8 147.802 173.9 148.202 173.8 148.302C173.6 148.402 173.4 148.502 173.2 148.602C172.9 148.702 172.6 148.802 172.3 149.002C172.1 149.102 172.1 149.402 171.9 149.602C171.7 149.702 171.6 149.802 171.3 149.902C171 149.902 170.7 149.902 170.4 149.902C170.1 149.902 170 150.302 169.6 150.202C168.9 150.002 168.6 150.402 168.2 150.602C167.7 150.802 167.3 150.902 166.9 151.302C166.7 151.502 166.2 151.202 166 151.302C165.9 151.302 165.1 150.102 164.9 149.702V149.502C164.9 149.002 164.8 148.202 165.1 148.102C165.5 148.002 165.9 147.702 166.3 147.502L166.1 147.302Z" fill="black"/>
<path d="M168.6 166.202C168.6 165.902 168.5 165.502 168.3 165.202C168.3 165.102 168.5 164.902 167.9 164.902C167.6 164.902 168.2 164.602 168.2 164.502C168.1 164.202 168.1 163.902 167.9 163.602C167.8 163.302 167.5 163.102 167.3 162.802C167.2 162.502 167.3 162.102 167 161.902C166.7 161.702 167.1 161.402 167 161.202C166.8 161.002 166.7 160.702 166.8 160.402C166.9 160.202 167.1 160.002 166.9 159.802C166.9 159.802 166.5 159.702 166.5 159.602C166.5 159.502 166.7 159.302 166.1 159.302C166.1 159.302 166.1 159.302 166.2 159.202C166.6 159.002 166.5 158.802 166.2 158.802C165.9 158.802 165.9 158.702 165.9 158.602C165.9 158.402 165.7 158.102 165.7 157.902C165.7 157.702 165.9 157.502 165.9 157.302C165.9 157.102 165.6 157.002 165.9 156.702C166.2 156.402 166.1 156.302 166 156.102C166 156.102 166.2 155.802 165.6 155.902C166.3 155.402 165.2 155.402 165.3 155.102C165.4 154.802 165.3 154.502 165.1 154.202C165.1 154.202 165.2 154.002 164.8 154.002C164.6 154.002 164.6 154.002 164.7 153.902C165.2 153.502 164.8 153.402 164.9 153.102C164.9 152.802 164.6 152.602 164.9 152.202C165.1 152.002 165.1 151.902 164.5 151.902C164.2 151.902 164.5 151.702 164.4 151.602C164.4 151.602 164 151.602 164 151.502C164 151.502 164.2 151.302 164.3 151.202C163.6 151.002 164.3 150.402 164 150.102C163.7 149.802 163.7 149.402 163.6 149.002C163.6 148.802 163.6 148.502 164.7 148.002C165.2 147.802 165.7 147.602 166 147.602C166.2 147.602 166.5 147.602 166.6 147.602C166.7 147.602 166.9 147.802 167 147.902C167.3 148.102 167.9 148.202 167.7 148.502C167.7 148.602 168 148.602 167.5 148.802C168.4 148.902 168 149.402 168.1 149.802C168.2 150.102 168.9 150.202 168.7 150.602C169.4 150.602 169.3 150.802 169.2 151.002C168.7 151.802 169.3 152.202 169.4 152.902C169.4 153.502 169.7 154.102 169.8 154.702C169.8 154.802 170.2 154.802 170 155.002C169.8 155.202 170 155.302 170 155.402C170 155.502 170.2 155.602 170 155.802C169.5 156.402 170 156.802 170 157.302C170 157.802 170 158.302 170.4 158.702C170.6 159.002 171 159.202 170.9 159.502C170.9 159.602 171.2 159.702 170.7 159.902C170.5 159.902 171 159.902 171.1 160.102C171.1 160.302 171.2 160.502 171.3 160.702C171.3 161.002 171.3 161.302 171.5 161.502C171.5 161.702 171.9 161.802 172 161.902C172.1 162.102 172.1 162.202 172.1 162.402C172.1 162.602 171.9 162.902 171.9 163.102C171.9 163.302 172.2 163.502 172 163.802C171.6 164.302 172 164.702 172 165.102C172 165.502 172.1 165.902 172.3 166.302C172.4 166.502 172 166.802 172.1 167.102C172.1 167.102 170.7 167.702 170.2 167.802H170C169.5 167.802 168.7 167.802 168.7 167.402C168.7 167.002 168.5 166.702 168.4 166.302L168.6 166.202Z" fill="black"/>
<path d="M162.2 186.203C162.3 185.803 162.5 185.403 162.5 185.003C162.5 184.803 162.8 184.803 162.4 184.503C162.2 184.303 162.8 184.403 162.8 184.203C162.8 183.803 163.1 183.503 163.1 183.103C163.1 182.703 163.1 182.303 163.1 181.903C163.1 181.503 163.6 181.303 163.4 180.803C163.2 180.403 163.8 180.303 163.8 180.003C163.8 179.703 163.8 179.303 164.1 179.103C164.3 178.903 164.6 178.803 164.6 178.603C164.6 178.403 164.3 178.203 164.4 178.103C164.4 178.003 164.8 177.903 164.2 177.603C164.2 177.603 164.2 177.603 164.4 177.603C164.8 177.603 164.9 177.403 164.6 177.203C164.4 177.003 164.5 176.903 164.5 176.803C164.5 176.503 164.6 176.203 164.8 175.903C164.9 175.703 165.2 175.603 165.4 175.403C165.5 175.203 165.4 174.903 165.7 174.703C166.1 174.603 166.1 174.403 166.2 174.203C166.2 174.103 166.6 174.003 166 173.703C166.9 173.703 166 173.003 166.3 172.703C166.6 172.403 166.6 172.003 166.7 171.703C166.7 171.703 166.9 171.603 166.5 171.303C166.4 171.303 166.4 171.103 166.5 171.103C167.2 171.103 166.9 170.603 167.1 170.403C167.3 170.103 167.1 169.703 167.7 169.603C167.9 169.603 168.1 169.403 167.6 169.103C167.4 168.903 167.6 168.903 167.6 168.803C167.6 168.703 167.3 168.503 167.4 168.403C167.4 168.403 167.7 168.403 167.8 168.303C167.3 167.703 168.3 167.503 168.2 167.003C168.2 166.703 168.2 166.603 168.2 166.303C168.2 166.003 168.4 165.703 168.6 165.303C168.8 164.903 169.3 164.503 170.4 165.103C170.9 165.303 171.3 165.703 171.5 166.003C171.6 166.203 171.8 166.403 171.8 166.503C171.8 166.603 171.9 166.803 172 166.903C172.1 167.103 172.6 167.403 172.2 167.703C172.1 167.703 172.3 168.003 171.8 167.903C172.5 168.503 171.8 168.903 171.8 169.303C171.8 169.703 172.2 170.203 171.8 170.503C172.3 170.903 172.2 171.103 171.9 171.203C171 171.703 171.2 172.503 170.9 173.203C170.6 173.903 170.4 174.603 170.1 175.303C170.1 175.403 170.4 175.603 170.1 175.703C169.8 175.703 169.9 176.003 169.9 176.103C169.9 176.203 169.9 176.403 169.7 176.503C168.9 176.803 169.1 177.503 168.8 178.003C168.5 178.503 168.3 179.003 168.3 179.603C168.3 180.003 168.5 180.403 168.3 180.703C168.2 180.803 168.5 181.103 167.9 181.003C167.7 181.003 168.1 181.303 168.1 181.403C168.1 181.603 168 181.903 167.9 182.103C167.8 182.403 167.6 182.703 167.6 183.103C167.6 183.303 167.7 183.603 167.7 183.803C167.7 184.003 167.7 184.203 167.5 184.403C167.3 184.603 167.1 184.803 166.9 185.103C166.8 185.303 166.9 185.703 166.6 185.903C166 186.203 166.1 186.803 165.9 187.203C165.7 187.603 165.5 188.103 165.5 188.603C165.5 188.903 165 189.003 164.9 189.203C164.9 189.303 163.4 189.203 162.9 189.003H162.7C162.3 188.603 161.7 188.203 161.8 187.903C162 187.403 162.1 187.003 162.2 186.503V186.203Z" fill="black"/>
<path d="M151 135.801C151 136.001 150.9 136.101 150.9 136.301C150.9 136.301 150.6 136.301 151.1 136.601C151.4 136.601 150.7 136.601 150.7 136.601C150.7 136.801 150.7 136.901 150.7 137.101C150.7 137.301 150.9 137.501 150.9 137.601C150.9 137.801 150.6 137.901 150.9 138.101C151.2 138.301 150.6 138.301 150.7 138.401C150.8 138.601 150.9 138.701 150.7 138.801C150.5 138.801 150.3 138.901 150.4 139.001C150.4 139.001 150.8 139.201 150.7 139.201C150.7 139.201 150.4 139.201 151 139.401C151 139.401 151 139.401 150.8 139.401C150.4 139.401 150.4 139.401 150.7 139.601C151 139.601 150.9 139.701 150.9 139.801C150.9 139.901 150.9 140.101 150.9 140.201C150.9 140.201 150.6 140.401 150.5 140.501C150.5 140.501 150.7 140.701 150.4 140.801C150.1 140.801 150.1 141.001 150.1 141.101C150.1 141.101 149.8 141.201 150.4 141.301C149.6 141.401 150.6 141.601 150.4 141.801C150.2 142.001 150.4 142.101 150.4 142.301C150.4 142.301 150.2 142.301 150.7 142.401C150.9 142.401 150.9 142.401 150.7 142.401C150.1 142.501 150.5 142.601 150.3 142.801C150.2 142.901 150.5 143.101 150 143.201C149.8 143.201 149.7 143.401 150.3 143.401C150.6 143.401 150.3 143.501 150.3 143.601C150.3 143.601 150.6 143.601 150.6 143.701C150.6 143.701 150.4 143.701 150.3 143.801C151 144.001 150.1 144.201 150.3 144.401C150.5 144.601 150.4 144.801 150.3 145.001C150.3 145.101 150.1 145.301 148.9 145.401C148.4 145.401 147.8 145.501 147.5 145.501C147.3 145.501 147 145.501 147 145.501C146.9 145.501 146.8 145.401 146.7 145.301C146.5 145.201 145.9 145.101 146.2 144.901C146.2 144.901 146 144.901 146.5 144.701C145.7 144.501 146.2 144.301 146.1 144.101C146.1 143.901 145.4 143.801 145.7 143.601C145.1 143.601 145.2 143.401 145.4 143.301C146.1 142.901 145.6 142.601 145.7 142.201C145.7 141.801 145.7 141.501 145.7 141.101C145.7 141.101 145.4 141.001 145.7 140.901C146 140.901 145.7 140.701 145.7 140.701C145.7 140.701 145.6 140.501 145.7 140.501C146.4 140.301 146 139.901 146.1 139.701C146.2 139.401 146.3 139.101 146.1 138.801C146.1 138.601 145.7 138.401 145.9 138.201C145.9 138.201 145.6 138.001 146.2 138.001C146.4 138.001 145.9 137.901 145.9 137.801C145.9 137.701 145.9 137.601 145.9 137.401C145.9 137.201 146 137.101 145.9 136.901C145.9 136.801 145.7 136.601 145.6 136.501C145.6 136.401 145.6 136.301 145.6 136.201C145.7 136.101 145.9 136.001 146 135.901C146 135.801 145.9 135.601 146.2 135.501C146.8 135.401 146.6 135.101 146.7 134.801C146.8 134.601 146.9 134.401 146.9 134.101C146.9 133.901 147.4 134.001 147.4 133.801C147.4 133.801 148.9 134.101 149.3 134.201H149.5C149.9 134.501 150.6 134.801 150.5 134.901C150.4 135.101 150.4 135.301 150.3 135.501L151 135.801Z" fill="black"/>
<path d="M162.3 135.801C162.3 136.001 162.2 136.101 162.2 136.301C162.2 136.301 161.9 136.301 162.4 136.601C162.7 136.601 162 136.601 162 136.601C162 136.801 162 136.901 162 137.101C162 137.301 162.2 137.501 162.2 137.601C162.2 137.801 161.9 137.901 162.2 138.101C162.5 138.301 161.9 138.301 162 138.401C162.1 138.601 162.2 138.701 162 138.801C161.8 138.801 161.6 138.901 161.7 139.001C161.7 139.001 162.1 139.201 162 139.201C162 139.201 161.7 139.201 162.3 139.401C162.3 139.401 162.3 139.401 162.1 139.401C161.7 139.401 161.7 139.401 162 139.601C162.3 139.601 162.2 139.701 162.2 139.801C162.2 139.901 162.2 140.101 162.2 140.201C162.2 140.201 161.9 140.401 161.8 140.501C161.8 140.501 162 140.701 161.7 140.801C161.4 140.801 161.4 141.001 161.4 141.101C161.4 141.101 161.1 141.201 161.7 141.301C160.9 141.401 161.9 141.601 161.7 141.801C161.5 142.001 161.7 142.101 161.7 142.301C161.7 142.301 161.5 142.301 162 142.401C162.2 142.401 162.2 142.401 162 142.401C161.4 142.501 161.8 142.601 161.6 142.801C161.5 142.901 161.8 143.101 161.3 143.201C161.1 143.201 161 143.401 161.6 143.401C161.9 143.401 161.6 143.501 161.6 143.601C161.6 143.601 161.9 143.601 161.9 143.701C161.9 143.701 161.7 143.701 161.6 143.801C162.3 144.001 161.4 144.201 161.6 144.401C161.8 144.601 161.7 144.801 161.6 145.001C161.6 145.101 161.4 145.301 160.2 145.401C159.7 145.401 159.1 145.501 158.8 145.501C158.6 145.501 158.3 145.501 158.3 145.501C158.2 145.501 158.1 145.401 158 145.301C157.8 145.201 157.2 145.101 157.5 144.901C157.5 144.901 157.3 144.901 157.8 144.701C157 144.501 157.5 144.301 157.4 144.101C157.4 143.901 156.7 143.801 157 143.601C156.4 143.601 156.5 143.401 156.7 143.301C157.4 142.901 156.9 142.601 157 142.201C157 141.801 157 141.501 157 141.101C157 141.101 156.7 141.001 157 140.901C157.3 140.901 157 140.701 157 140.701C157 140.701 156.9 140.501 157 140.501C157.7 140.301 157.3 139.901 157.4 139.701C157.5 139.401 157.6 139.101 157.4 138.801C157.4 138.601 157 138.401 157.2 138.201C157.2 138.201 156.9 138.001 157.5 138.001C157.7 138.001 157.2 137.901 157.2 137.801C157.2 137.701 157.2 137.601 157.2 137.401C157.2 137.201 157.3 137.101 157.2 136.901C157.2 136.801 157 136.601 156.9 136.501C156.9 136.401 156.9 136.301 156.9 136.201C157 136.101 157.2 136.001 157.3 135.901C157.3 135.801 157.2 135.601 157.5 135.501C158.1 135.401 157.9 135.101 158 134.801C158.1 134.601 158.2 134.401 158.2 134.101C158.2 133.901 158.7 134.001 158.7 133.801C158.7 133.801 160.2 134.101 160.6 134.201H160.8C161.2 134.501 161.9 134.801 161.8 134.901C161.7 135.101 161.7 135.301 161.6 135.501L162.3 135.801Z" fill="black"/>
<path d="M162.6 169.701C162.4 169.701 162.1 169.801 161.9 169.901C161.9 169.901 161.7 169.701 161.7 170.301C161.7 170.601 161.5 170.001 161.4 170.001C161.2 170.101 160.9 170.001 160.7 170.201C160.5 170.201 160.3 170.601 160 170.601C159.8 170.601 159.5 170.401 159.3 170.701C159.1 171.001 158.9 170.501 158.7 170.701C158.5 170.801 158.3 170.901 158.1 170.701C158 170.501 157.8 170.301 157.7 170.401C157.7 170.401 157.5 170.801 157.4 170.701C157.4 170.701 157.2 170.401 157.1 171.001C157.1 171.001 157.1 171.001 157.1 170.801C157.1 170.401 156.9 170.401 156.8 170.701C156.7 171.001 156.6 170.901 156.5 170.901C156.3 170.901 156.1 170.901 155.9 170.901C155.8 170.901 155.7 170.601 155.5 170.501C155.4 170.501 155.1 170.701 155.1 170.301C155.1 170.001 154.9 169.901 154.8 169.901C154.8 169.901 154.8 169.601 154.5 170.201C154.5 169.401 154 170.301 153.8 170.001C153.6 169.701 153.4 169.801 153.1 169.701C153.1 169.701 153.1 169.501 152.8 169.901C152.8 170.001 152.6 170.001 152.7 169.901C152.7 169.201 152.5 169.501 152.3 169.401C152.2 169.201 151.8 169.401 151.9 168.801C151.9 168.601 151.9 168.401 151.5 168.801C151.3 169.001 151.4 168.801 151.3 168.801L151 169.001C151 169.001 151 168.701 151 168.601C150.4 169.001 150.6 168.101 150.3 168.001C149.9 168.001 149.7 167.701 149.5 167.401C149.5 167.201 149.4 167.001 150.1 166.101C150.4 165.701 150.8 165.301 151.1 165.101C151.3 165.001 151.5 164.801 151.6 164.801C151.7 164.801 151.9 164.801 152 164.701C152.2 164.701 152.7 164.301 152.6 164.701C152.6 164.701 152.8 164.601 152.6 165.001C153.2 164.501 153.1 165.001 153.3 165.001C153.5 165.001 153.9 164.601 153.9 165.001C154.3 164.501 154.3 164.601 154.3 164.801C154.3 165.501 154.8 165.301 155 165.501C155.3 165.701 155.6 165.701 155.9 165.901C155.9 165.901 156.1 165.601 156.1 165.901C156.1 166.201 156.2 165.901 156.3 166.001H156.5C156.6 166.701 157 166.401 157.2 166.501C157.5 166.501 157.7 166.701 158 166.501C158.2 166.501 158.3 166.101 158.5 166.201C158.5 166.201 158.6 165.901 158.7 166.501C158.7 166.701 158.7 166.201 158.8 166.201C158.9 166.201 159 166.201 159.1 166.201C159.2 166.201 159.4 166.201 159.5 166.201C159.5 166.201 159.7 165.901 159.7 165.801C159.7 165.801 159.9 165.801 160 165.801C160.1 165.801 160.3 166.001 160.4 166.101C160.5 166.101 160.6 165.801 160.8 166.101C161.1 166.501 161.3 166.201 161.5 166.201C161.7 166.201 162 166.201 162.1 166.001C162.1 165.901 162.5 166.301 162.6 166.301C162.6 166.301 163.3 167.601 163.5 168.101V168.301C163.5 168.801 163.7 169.501 163.5 169.501C163.2 169.501 162.9 169.701 162.7 169.801L162.6 169.701Z" fill="black"/>
<path d="M125.3 163.099C124.6 162.999 123.8 162.799 123.1 162.599C122.8 162.599 122.6 162.199 122.2 162.599C122 162.799 121.9 162.099 121.7 161.999C121 161.799 120.4 161.399 119.8 161.099C119.2 160.799 118.5 160.599 117.9 160.199C117.6 159.999 117.4 159.699 117.1 159.499C116.9 159.199 116.6 158.999 116.3 158.899C115.7 158.699 115.7 157.899 115.3 157.499C114.9 157.099 114.4 156.599 114.4 155.899C114.4 155.399 114.4 154.999 114.1 154.599C113.9 154.399 113.6 154.199 113.5 153.899C113.5 153.599 113.6 153.299 113 153.099C113 153.099 113 152.899 113.1 152.899C113.4 152.499 113.4 152.199 113.1 151.899C112.8 151.699 112.8 151.399 112.8 151.199C112.8 150.499 112.8 149.799 113 149.099C113.2 148.599 113.5 148.199 113.8 147.799C114 147.399 114 146.699 114.5 146.499C115 146.299 115.2 145.899 115.5 145.599C115.7 145.399 116 145.399 115.7 144.799C115.7 144.799 115.7 144.699 115.8 144.699C116.9 144.699 116.6 143.499 117.4 143.199C118.1 142.899 118.7 142.399 119.4 141.999C119.6 141.899 119.9 141.999 119.9 141.499C119.9 141.299 120.1 141.199 120.3 141.299C121 141.699 121.5 141.199 122.1 141.199C122.8 141.199 123.4 140.799 124.1 141.299C124.4 141.499 124.7 141.599 125.1 141.099C125.3 140.799 125.6 141.099 125.8 141.099C126 141.099 126.2 140.799 126.4 140.899C126.6 140.899 126.7 141.199 126.8 141.299C126.8 141.299 126.8 141.299 127 141.299C127.5 141.099 128 141.299 128.4 141.599C128.8 141.899 129.2 142.199 129.6 142.399C130.6 142.699 131.4 143.299 132 144.099C132.4 144.499 132.6 145.099 132 146.099C131.7 146.499 131.2 146.899 130.9 146.899C130.6 146.899 130.4 146.899 130.2 146.899C130 146.799 129.7 146.799 129.5 146.699C129.1 146.599 128.4 146.699 128.3 146.299C128.3 146.199 128 146.299 128.1 145.799V145.699C127.3 146.099 127 145.499 126.4 145.299C125.9 145.299 125.4 145.799 124.9 145.399C124.6 145.999 124.3 145.899 124.1 145.699C123.2 144.999 122.3 145.699 121.5 145.899C120.7 146.199 120 146.799 119.3 147.399C119.2 147.499 119.3 147.799 119.1 147.799C118.8 147.799 118.8 148.099 118.7 148.199C118.6 148.299 118.7 148.599 118.4 148.599C117.5 148.899 117.6 149.799 117.5 150.399C117.4 151.099 117.4 151.799 117.7 152.499C117.9 152.899 118.4 153.199 118.5 153.599C118.5 153.799 118.9 153.799 118.5 154.299C118.4 154.399 118.9 154.299 119 154.399C119.2 154.599 119.4 154.899 119.6 155.099C119.9 155.399 120.2 155.799 120.5 155.999C120.7 156.199 121.1 156.099 121.3 156.199C121.5 156.299 121.8 156.499 122 156.699C122.3 156.899 122.5 157.299 122.8 157.499C123.1 157.699 123.6 157.599 123.8 157.999C124.3 158.699 125.1 158.699 125.7 158.799C126.4 158.999 127.1 159.099 127.8 158.999C128.2 158.999 128.6 159.399 129 159.399C129.2 159.399 129.6 160.799 129.6 161.299V161.499C129.2 161.999 128.8 162.799 128.2 162.699C127.4 162.699 126.5 162.699 125.7 162.499L125.3 163.099Z" fill="black"/>
<path d="M186.9 107.501C185.9 107.001 185 106.401 184 105.801C183.6 105.601 183.4 105.201 182.8 105.401C182.5 105.501 182.5 104.801 182.1 104.601C181.2 104.101 180.4 103.401 179.5 102.901C178.6 102.401 177.7 102.001 176.9 101.501C176.1 101.001 175.4 100.201 174.5 100.001C173.7 99.8007 173.3 99.0007 172.6 98.8007C171.9 98.5007 171.1 98.2007 170.5 97.7007C170.1 97.3007 169.7 96.9007 169.1 96.8007C168.8 96.8007 168.4 96.9007 168 96.8007C167.7 96.7007 167.4 96.3007 166.9 96.8007C166.9 96.8007 166.7 96.8007 166.7 96.6007C166.5 96.1007 166 96.0007 165.6 96.3007C165.3 96.5007 165 96.4007 164.7 96.3007C164 96.3007 163.2 96.2007 162.5 96.0007C161.9 96.0007 161.4 95.7007 160.8 95.6007C160.2 95.6007 159.6 95.9007 159 95.6007C158.4 95.4007 157.9 95.4007 157.4 95.6007C157.1 95.6007 156.7 95.4007 156.6 96.1007C156.6 96.1007 156.5 96.1007 156.4 96.1007C155.4 95.5007 154.8 96.7007 153.9 96.8007C153 96.8007 152.2 97.4007 151.3 97.8007C151.1 97.9007 150.8 97.8007 150.8 98.4007C150.8 98.6007 150.6 98.7007 150.4 98.7007C149.5 98.5007 149.1 99.2007 148.5 99.5007C147.8 99.9007 147.3 100.601 146.4 100.701C146 100.701 145.6 101.001 145.7 101.701C145.7 102.001 145.3 102.101 145.1 102.401C145 102.601 145.1 103.001 144.9 103.101C144.8 103.301 144.5 103.201 144.2 103.301C144.2 103.301 144.1 103.301 144.1 103.501C143.9 104.801 142.5 105.201 142 106.301C141.5 107.401 140.9 108.401 140.4 109.501C140.1 110.101 139.7 110.601 138.5 110.701C137.9 110.701 137.4 110.601 137.2 110.201C137 109.901 136.9 109.601 137 109.301C137 108.901 137 108.401 137.2 108.001C137.4 107.101 137.2 106.101 138 105.401C138.2 105.201 138.1 104.701 138.7 104.801C138.7 104.801 138.9 104.801 138.9 104.701C138.9 103.201 140 102.501 140.8 101.501C141.4 100.701 141.7 99.4007 142.6 98.9007C142.6 98.0007 143.2 97.6007 143.8 97.4007C145.9 96.5007 147.4 95.0007 149.4 94.1007C151.4 93.2007 153.4 92.4007 155.6 92.0007C156 92.0007 156.2 91.5007 156.7 91.7007C157.1 91.9007 157.6 91.6007 158.1 91.6007C158.5 91.6007 159 91.4007 159.4 91.5007C161.1 92.0007 162.8 91.7007 164.5 91.9007C166.2 92.2007 167.8 92.6007 169.4 92.9007C170.4 93.1007 171.5 93.2007 172.4 93.7007C172.8 93.9007 173.3 93.8007 173.5 94.5007C173.5 94.7007 174.1 94.5007 174.4 94.5007C175 94.8007 175.6 95.1007 176.2 95.5007C177 96.0007 177.8 96.5007 178.6 97.0007C179.1 97.3007 179.7 97.4007 180.2 97.6007C180.7 97.9007 181.2 98.2007 181.6 98.6007C182.2 99.1007 182.6 99.7007 183.2 100.101C183.8 100.601 184.6 100.801 185 101.401C185.8 102.501 187.1 103.001 188.2 103.701C189.3 104.401 190.5 105.101 191.7 105.601C192.4 105.901 192.8 106.701 193.4 107.001C193.7 107.201 193.4 108.701 193.1 109.101L192.9 109.201C192 109.201 191.1 109.601 190.4 109.201C189.3 108.501 188.2 108.001 187.1 107.401L186.9 107.501Z" fill="black"/>
<path d="M178.9 122.098C179.1 121.799 179.3 121.498 179.5 121.198C179.5 121.098 179.9 121.198 179.5 120.698C179.3 120.498 179.9 120.698 180 120.698C180.1 120.398 180.4 120.199 180.5 119.899C180.6 119.599 180.6 119.199 180.8 118.899C180.9 118.599 181.4 118.498 181.3 118.098C181.3 117.698 181.8 117.799 181.8 117.499C181.8 117.199 182 116.899 182.3 116.799C182.6 116.799 182.8 116.799 182.9 116.499C182.9 116.399 182.7 116.099 182.9 115.999C182.9 115.999 183.3 115.999 182.9 115.499C182.9 115.499 182.9 115.499 183.1 115.499C183.5 115.599 183.6 115.498 183.4 115.198C183.2 114.998 183.4 114.899 183.4 114.799C183.5 114.599 183.7 114.298 183.9 114.098C184.1 113.998 184.4 113.899 184.5 113.799C184.7 113.699 184.5 113.299 184.9 113.299C185.3 113.299 185.4 113.099 185.5 112.999C185.5 112.999 185.9 112.999 185.5 112.499C186.4 112.699 185.6 111.798 186 111.698C186.4 111.598 186.4 111.199 186.6 110.899C186.6 110.899 186.9 110.899 186.6 110.499C186.5 110.399 186.6 110.299 186.6 110.299C187.3 110.499 187.1 109.999 187.3 109.899C187.6 109.699 187.5 109.299 188.1 109.399C188.3 109.399 188.5 109.399 188.1 108.899C187.9 108.699 188.2 108.698 188.2 108.598C188.2 108.498 188 108.298 188.1 108.198C188.1 108.198 188.4 108.198 188.5 108.198C188.2 107.498 189.1 107.698 189.3 107.098C189.4 106.798 189.6 106.499 189.9 106.299C190 106.199 190.2 105.999 190.4 105.899C190.6 105.799 190.8 105.698 190.9 105.598C191.3 105.398 191.9 105.498 192.4 106.598C192.6 107.098 192.8 107.699 192.8 107.899C192.8 108.099 192.8 108.299 192.8 108.399C192.8 108.399 192.8 108.598 192.8 108.698C192.8 108.998 193.1 109.298 192.8 109.198C192.8 109.198 192.9 109.398 192.5 109.198C192.6 109.398 192.7 109.498 192.7 109.598C192.7 109.698 192.7 109.799 192.6 109.899C192.5 109.999 192.3 110.099 192.2 110.299C192.1 110.599 192.4 111.199 192 111.299C192.4 111.799 192.2 111.899 192 111.999C191.1 112.099 191.1 112.899 190.6 113.399C190.1 113.899 189.8 114.499 189.4 114.999C189.4 114.999 189.6 115.399 189.3 115.299C189 115.299 189.1 115.498 189 115.598C189 115.698 189 115.899 188.8 115.899C188 115.899 188 116.599 187.6 116.999C187.2 117.399 186.9 117.799 186.7 118.299C186.7 118.599 186.7 119.098 186.4 119.198C186.3 119.198 186.4 119.599 185.9 119.399C185.7 119.399 186 119.699 186 119.799C186 119.999 185.8 120.199 185.6 120.299C185.4 120.499 185.2 120.799 185.1 120.999C185.1 121.199 185.1 121.498 185.1 121.598C185.1 121.799 184.9 121.898 184.8 122.098C184.6 122.299 184.3 122.299 184.1 122.499C183.9 122.699 184 122.998 183.6 123.098C182.9 123.098 182.9 123.699 182.6 123.999C182.3 124.299 182 124.698 181.9 125.098C181.9 125.299 181.3 125.199 181.1 125.399C181.1 125.399 179.7 124.799 179.4 124.399C179.4 124.399 179.3 124.298 179.2 124.198C179 123.698 178.5 123.099 178.7 122.899C179 122.599 179.2 122.199 179.4 121.899L178.9 122.098Z" fill="black"/>
<path d="M128.4 139.801C128.8 139.501 129.2 139.201 129.5 138.801C129.6 138.701 129.9 138.801 129.7 138.201C129.6 137.901 130.2 138.201 130.3 138.201C130.6 137.801 131 137.501 131.2 137.101C131.4 136.701 131.6 136.201 131.8 135.801C132 135.401 132.5 135.201 132.5 134.701C132.5 134.201 133.1 134.201 133.2 133.901C133.2 133.501 133.4 133.101 133.8 132.901C134.1 132.701 134.4 132.601 134.4 132.301C134.4 132.101 134.2 131.801 134.3 131.701C134.3 131.601 134.7 131.501 134.3 131.101C134.3 131.101 134.3 131.101 134.5 131.101C134.9 131.101 135 130.901 134.8 130.601C134.6 130.401 134.7 130.301 134.8 130.101C134.8 129.701 135 129.401 135.2 129.001C135.3 128.701 135.6 128.501 135.8 128.301C135.9 128.001 135.8 127.601 136.1 127.501C136.5 127.301 136.5 127.001 136.6 126.801C136.6 126.601 137 126.501 136.4 126.301C137.3 126.001 136.4 125.401 136.6 125.001C136.9 124.601 136.8 124.101 136.9 123.601C136.9 123.501 137.1 123.401 136.7 123.201C136.5 123.201 136.5 123.001 136.7 123.001C137.4 122.701 137 122.301 137.2 122.001C137.4 121.601 137.2 121.201 137.6 120.801C137.8 120.601 137.9 120.401 137.4 120.201C137.1 120.101 137.4 119.901 137.4 119.701C137.4 119.601 137.1 119.501 137.1 119.301C137.1 119.201 137.3 119.101 137.4 119.001C137.4 119.001 137.4 119.001 137.4 118.901C136.7 118.301 137.6 117.701 137.4 117.101C137.2 116.501 137.2 115.901 137.2 115.301C137.2 115.001 137.4 114.601 138.5 114.201C139 114.001 139.5 114.001 139.9 114.101C140.2 114.101 140.4 114.301 140.5 114.401C140.6 114.601 140.8 114.801 140.9 115.001C141.1 115.401 141.7 115.801 141.5 116.301C141.5 116.401 141.7 116.601 141.2 116.701C141.2 116.701 141.1 116.701 141.2 116.801C142 117.401 141.5 118.001 141.6 118.601C141.6 119.101 142.3 119.601 142 120.201C142.6 120.501 142.5 120.901 142.3 121.101C141.6 122.101 141.9 123.201 141.7 124.201C141.5 125.201 141.4 126.301 141.1 127.301C141.1 127.501 141.4 127.701 141.1 127.901C140.8 128.001 140.9 128.301 140.9 128.601C140.9 128.801 140.9 129.101 140.7 129.201C139.8 129.801 140 130.701 139.6 131.501C139.3 132.301 138.9 133.001 138.7 133.801C138.6 134.301 138.7 134.901 138.3 135.301C138.1 135.501 138.3 135.801 137.7 135.701C137.5 135.701 137.8 136.101 137.7 136.201C137.6 136.501 137.3 136.801 137.2 137.101C136.9 137.501 136.6 137.901 136.4 138.301C136.3 138.601 136.3 139.001 136.1 139.201C136 139.501 135.8 139.701 135.5 140.001C135.2 140.301 134.8 140.401 134.5 140.701C134.2 141.001 134.1 141.501 133.6 141.601C132.7 141.801 132.4 142.401 131.8 142.901C131.2 143.301 130.6 143.801 130.1 144.301C129.8 144.601 129.2 144.401 128.9 144.601C128.7 144.701 127.7 143.601 127.5 143.201V143.001C127.5 142.401 127.4 141.601 127.7 141.501C128.2 141.201 128.6 140.801 129.1 140.401L128.4 139.801Z" fill="black"/>
<path d="M115.6 174.899C115.8 174.699 116 174.499 116.2 174.199C116.2 174.199 116.5 174.199 116.2 173.699C116 173.499 116.6 173.799 116.6 173.699C116.7 173.399 117 173.299 117.1 172.999C117.2 172.799 117.2 172.399 117.4 172.199C117.5 171.999 117.9 171.899 117.9 171.499C117.9 171.099 118.3 171.299 118.4 171.099C118.4 170.799 118.5 170.599 118.9 170.599C119.1 170.599 119.4 170.599 119.4 170.399C119.4 170.299 119.2 169.999 119.4 169.899C119.4 169.899 119.8 169.899 119.4 169.499C119.4 169.499 119.4 169.499 119.6 169.499C120 169.699 120.1 169.499 119.9 169.299C119.7 169.099 119.9 168.999 119.9 168.899C120 168.699 120.1 168.499 120.3 168.399C120.4 168.299 120.7 168.399 120.9 168.199C121.1 168.099 120.9 167.799 121.3 167.799C121.6 167.799 121.7 167.799 121.8 167.599C121.8 167.599 122.2 167.599 121.7 167.199C122.5 167.499 121.8 166.599 122.1 166.499C122.4 166.499 122.5 166.099 122.6 165.899C122.6 165.899 122.8 165.899 122.6 165.599C122.5 165.499 122.6 165.399 122.6 165.399C123.2 165.599 123 165.199 123.3 165.099C123.5 164.999 123.4 164.599 124 164.699C124.2 164.699 124.4 164.699 124 164.199C123.8 163.999 124.1 164.099 124.1 163.899C124.1 163.899 123.9 163.599 124 163.499C124 163.499 124.3 163.499 124.4 163.499C124.1 162.799 125 163.099 125 162.699C125 162.399 125.1 162.299 125.2 162.199C125.2 162.199 125.4 162.199 126.6 162.199C127.1 162.199 127.7 162.199 128 162.399C128.2 162.399 128.4 162.599 128.5 162.699C128.5 162.899 128.7 163.099 128.7 163.299C128.7 163.699 129.1 164.199 128.7 164.399C128.6 164.399 128.7 164.699 128.3 164.499C128.8 165.299 128.1 165.299 128 165.599C127.9 165.899 128.2 166.399 127.8 166.499C128.2 166.999 128 167.099 127.8 167.099C126.9 167.099 127 167.899 126.5 168.299C126.1 168.699 125.8 169.199 125.4 169.599C125.4 169.599 125.6 169.999 125.3 169.899C125 169.899 125.1 170.099 125 170.199C125 170.199 125 170.499 124.8 170.499C124 170.499 124 170.999 123.7 171.399C123.4 171.699 123 171.999 122.9 172.499C122.9 172.799 122.9 173.199 122.6 173.299C122.5 173.299 122.6 173.699 122.1 173.299C122 173.299 122.2 173.599 122.1 173.699C122.1 173.899 121.9 173.999 121.8 174.099C121.6 174.299 121.4 174.499 121.3 174.699C121.3 174.799 121.3 175.099 121.3 175.299C121.3 175.499 121.1 175.599 121 175.699C120.8 175.799 120.5 175.799 120.3 175.899C120.1 175.999 120.2 176.399 119.8 176.299C119.2 176.299 119.1 176.699 118.8 176.999C118.5 177.199 118.2 177.499 118 177.899C118 178.099 117.4 177.899 117.3 178.099C117.3 178.099 116.1 177.299 115.7 176.899L115.6 176.699C115.4 176.199 115 175.599 115.2 175.499C115.5 175.299 115.7 174.999 115.9 174.799L115.6 174.899Z" fill="black"/>
<path d="M89.9004 200.301C90.2004 199.701 90.5004 199.101 90.7004 198.501C90.7004 198.301 91.1004 198.201 90.7004 197.701C90.5004 197.501 91.2004 197.501 91.3004 197.301C91.5004 196.701 91.9004 196.201 92.2004 195.601C92.4004 195.001 92.5004 194.401 92.8004 193.901C93.1004 193.401 93.6004 193.001 93.7004 192.301C93.7004 191.701 94.4004 191.601 94.6004 191.201C94.8004 190.701 95.0004 190.201 95.5004 190.001C95.9004 189.801 96.2004 189.701 96.4004 189.301C96.4004 189.101 96.4004 188.701 96.5004 188.501C96.7004 188.301 97.0004 188.301 96.6004 187.701C96.6004 187.701 96.7004 187.701 96.8004 187.701C97.3004 187.701 97.4004 187.501 97.4004 187.201C97.4004 186.901 97.4004 186.801 97.6004 186.601C97.9004 186.201 98.2004 185.801 98.6004 185.401C98.9004 185.101 99.3004 185.001 99.6004 184.801C99.9004 184.501 100 184.001 100.5 184.001C101 184.001 101.2 183.701 101.5 183.401C101.6 183.301 102 183.301 101.7 182.701C102.7 182.901 102.4 181.701 102.9 181.401C103.5 181.101 103.8 180.601 104.3 180.201C104.4 180.101 104.7 180.201 104.5 179.701C104.5 179.501 104.5 179.401 104.7 179.401C105.5 179.601 105.6 179.001 106 178.701C106.5 178.501 106.7 177.901 107.5 177.901C107.8 177.901 108.1 177.901 108 177.201C108 176.901 108.3 177.001 108.4 176.801C108.5 176.701 108.4 176.401 108.6 176.301C108.7 176.301 109 176.301 109.1 176.301C109.1 176.301 109.1 176.301 109.2 176.301C109.5 175.301 110.6 175.601 111.2 175.001C111.8 174.401 112.5 174.001 113.3 173.701C113.7 173.501 114.2 173.501 115 174.301C115.4 174.701 115.6 175.201 115.6 175.501C115.6 175.801 115.6 176.001 115.5 176.201C115.3 176.401 115.2 176.601 115.1 176.801C114.8 177.201 114.6 177.901 114.1 177.901C113.9 177.901 113.9 178.301 113.6 177.901H113.5C113.4 178.901 112.5 178.801 112 179.301C111.6 179.701 111.5 180.501 110.9 180.601C111 181.301 110.7 181.401 110.3 181.501C109.7 181.501 109.2 181.901 108.8 182.201C108.4 182.601 108 183.001 107.6 183.301C106.7 184.001 105.9 184.801 105.1 185.601C105 185.701 105.1 186.101 104.7 186.101C104.4 186.101 104.3 186.401 104.1 186.601C103.9 186.801 103.9 187.001 103.6 187.101C102.5 187.301 102.2 188.301 101.6 188.901C101 189.601 100.3 190.201 99.9004 191.001C99.7004 191.501 99.6004 192.101 99.2004 192.501C99.0004 192.701 99.2004 193.101 98.5004 192.901C98.3004 192.901 98.5004 193.301 98.5004 193.401C98.3004 193.701 98.1004 194.001 97.9004 194.301C97.6004 194.701 97.3004 195.201 97.1004 195.601C97.0004 195.901 97.1004 196.301 96.9004 196.601C96.8004 196.901 96.6004 197.201 96.4004 197.501C96.1004 197.801 95.7004 198.101 95.5004 198.401C95.2004 198.701 95.3004 199.301 94.8004 199.501C94.0004 200.001 93.9004 200.801 93.5004 201.401C93.1004 202.101 92.8004 202.801 92.6004 203.501C92.6004 203.901 91.9004 204.101 91.7004 204.501C91.7004 204.701 90.1004 204.501 89.7004 204.201C89.7004 204.201 89.5004 204.101 89.5004 204.001C89.2004 203.401 88.7004 202.801 88.9004 202.301C89.2004 201.601 89.5004 200.901 89.8004 200.201L89.9004 200.301Z" fill="black"/>
<path d="M107.1 207.798C106.8 207.798 106.5 207.798 106.1 207.798C106 207.798 105.9 207.498 105.7 208.098C105.7 208.398 105.6 207.698 105.4 207.698C105.1 207.698 104.8 207.698 104.5 207.698C104.2 207.698 103.9 207.898 103.6 207.898C103.3 207.898 103 207.598 102.7 207.898C102.4 208.098 102.3 207.598 102 207.698C101.7 207.698 101.5 207.798 101.3 207.598C101.2 207.398 101 207.198 100.8 207.198C100.7 207.198 100.5 207.498 100.4 207.498C100.3 207.498 100.2 207.198 100 207.798C100 207.798 100 207.798 100 207.598C100 207.198 99.8002 207.198 99.7002 207.398C99.6002 207.598 99.5002 207.598 99.4002 207.598C99.1002 207.598 98.9002 207.598 98.7002 207.498C98.5002 207.498 98.4002 207.098 98.2002 207.098C98.0002 206.998 97.8002 207.198 97.6002 206.898C97.5002 206.598 97.3002 206.498 97.1002 206.498C97.1002 206.498 97.0002 206.198 96.7002 206.798C96.7002 205.898 96.1002 206.898 95.8002 206.698C95.6002 206.398 95.2002 206.498 94.9002 206.498C94.9002 206.498 94.8002 206.298 94.6002 206.698C94.6002 206.898 94.5002 206.898 94.4002 206.698C94.4002 205.998 94.0002 206.398 93.9002 206.198C93.7002 205.998 93.4002 206.198 93.3002 205.698C93.3002 205.498 93.1002 205.298 92.9002 205.898C92.9002 206.198 92.7002 205.898 92.6002 205.898L92.4002 206.198C92.4002 206.198 92.4002 205.998 92.3002 205.798C91.9002 206.398 91.7002 205.498 91.4002 205.698C91.1002 205.898 90.8002 205.698 90.5002 205.698C90.3002 205.698 90.2002 205.498 89.9002 204.398C89.8002 203.898 89.7002 203.398 89.7002 202.998C89.7002 202.798 89.7002 202.498 89.9002 202.398C90.0002 202.298 90.1002 202.098 90.3002 201.998C90.6002 201.798 90.8002 201.198 91.1002 201.498C91.1002 201.498 91.3002 201.298 91.4002 201.798C91.8002 200.998 92.2002 201.598 92.6002 201.598C92.9002 201.598 93.3002 200.998 93.6002 201.298C93.9002 200.698 94.1002 200.898 94.2002 201.098C94.7002 201.898 95.4002 201.598 95.9002 201.798C96.5002 201.998 97.0002 202.098 97.6002 202.198C97.6002 202.198 97.9002 201.898 97.9002 202.198C97.9002 202.498 98.1002 202.298 98.2002 202.298C98.3002 202.298 98.5002 202.298 98.5002 202.298C98.8002 202.998 99.3002 202.698 99.7002 202.898C100.1 203.098 100.5 203.198 101 203.098C101.3 203.098 101.6 202.698 101.8 202.898C101.9 202.898 102.1 202.698 102.1 203.298C102.1 203.498 102.3 202.998 102.4 202.998C102.6 202.998 102.8 202.998 102.9 202.998C103.2 202.998 103.4 203.098 103.7 202.998C103.9 202.998 104 202.798 104.2 202.698C104.4 202.698 104.5 202.698 104.7 202.698C104.9 202.698 105.1 202.998 105.3 203.098C105.5 203.098 105.8 202.898 105.9 203.198C106.2 203.698 106.6 203.498 107 203.598C107.4 203.598 107.8 203.798 108.1 203.598C108.3 203.598 108.5 204.098 108.7 204.098C108.7 204.098 108.9 205.598 108.8 206.098V206.298C108.6 206.798 108.3 207.498 108.1 207.398C107.7 207.398 107.4 207.398 107 207.398L107.1 207.798Z" fill="black"/>
<path d="M105.6 206.102C105.6 205.902 105.6 205.602 105.5 205.402C105.5 205.402 105.7 205.202 105.2 205.202C104.9 205.202 105.5 205.002 105.5 204.902C105.4 204.702 105.5 204.502 105.4 204.302C105.4 204.102 105.1 203.902 105 203.702C105 203.502 105.2 203.302 104.8 203.102C104.5 203.002 105 202.802 104.8 202.602C104.7 202.402 104.6 202.302 104.8 202.102C105 202.002 105.2 201.802 105 201.702C105 201.702 104.6 201.602 104.6 201.502C104.6 201.502 104.9 201.302 104.2 201.302C104.2 201.302 104.2 201.302 104.3 201.302C104.7 201.202 104.7 201.102 104.3 201.002C104 201.002 104.1 200.902 104 200.802C104 200.602 104 200.502 104 200.302C104 200.202 104.3 200.002 104.3 199.902C104.3 199.802 104.1 199.602 104.3 199.502C104.6 199.402 104.6 199.202 104.6 199.102C104.6 199.102 104.9 198.902 104.2 198.902C105 198.702 103.9 198.502 104.2 198.302C104.4 198.102 104.2 197.902 104.2 197.702C104.2 197.702 104.4 197.602 103.9 197.502C103.7 197.502 103.7 197.502 103.9 197.402C104.5 197.202 104.1 197.102 104.2 196.902C104.3 196.702 104 196.502 104.5 196.302C104.7 196.302 104.8 196.102 104.2 196.002C103.9 196.002 104.2 195.902 104.2 195.802C104.2 195.802 103.9 195.702 103.9 195.602C103.9 195.602 104.1 195.602 104.2 195.502C103.5 195.202 104.4 195.002 104.2 194.702C104 194.402 104.2 194.102 104.2 193.902C104.2 193.802 104.5 193.602 105.6 193.602C106.1 193.602 106.7 193.602 107 193.602C107.2 193.602 107.5 193.702 107.5 193.802C107.6 193.802 107.7 194.002 107.8 194.102C108 194.302 108.5 194.502 108.2 194.602C108.2 194.602 108.4 194.702 107.9 194.702C108.7 195.002 108.2 195.202 108.2 195.402C108.2 195.602 108.9 195.802 108.6 196.002C109.2 196.102 109.1 196.202 108.9 196.302C108.2 196.702 108.7 197.102 108.6 197.402C108.6 197.802 108.6 198.202 108.6 198.602C108.6 198.602 109 198.702 108.6 198.802C108.3 198.802 108.6 199.002 108.6 199.102C108.6 199.102 108.7 199.302 108.6 199.302C108 199.602 108.4 199.902 108.3 200.202C108.3 200.502 108.3 200.802 108.3 201.102C108.4 201.302 108.8 201.402 108.7 201.602C108.7 201.602 109 201.702 108.4 201.902C108.2 201.902 108.7 201.902 108.7 202.002C108.7 202.102 108.7 202.202 108.7 202.402C108.7 202.602 108.7 202.802 108.7 202.902C108.7 203.002 109 203.102 109.1 203.202C109.1 203.302 109.1 203.402 109.1 203.502C109.1 203.602 108.9 203.802 108.8 204.002C108.8 204.202 109.1 204.302 108.8 204.402C108.3 204.702 108.6 205.002 108.6 205.202C108.6 205.502 108.6 205.702 108.8 206.002C108.8 206.102 108.4 206.402 108.5 206.502C108.5 206.502 107.1 206.902 106.6 207.002H106.4C105.9 207.002 105.2 207.002 105.2 206.802C105.2 206.502 105.2 206.302 105.1 206.002L105.6 206.102Z" fill="black"/>
<path d="M124.7 205.3C124.2 205.5 123.8 205.5 123.5 205.6C123.4 205.6 123.3 205.4 123.2 205.9C123.2 206.2 123.1 205.5 123 205.6C122.8 205.6 122.6 205.6 122.5 205.6C122.3 205.6 122.1 205.9 122 205.9C121.8 205.9 121.6 205.7 121.5 205.9C121.4 206.2 121.2 205.7 121.1 205.8C121 205.9 120.8 206 120.7 205.8C120.6 205.6 120.5 205.4 120.4 205.5C120.4 205.5 120.3 205.9 120.2 205.9C120.2 205.9 120.1 205.6 120 206.2C120 206.2 120 206.2 120 206.1C120 205.7 119.8 205.7 119.8 206C119.8 206.3 119.7 206.2 119.6 206.2C119.5 206.2 119.3 206.2 119.2 206.2C119.1 206.2 119 205.9 118.9 205.9C118.8 205.9 118.7 206.1 118.6 205.9C118.5 205.6 118.4 205.6 118.3 205.6C118.3 205.6 118.2 205.3 118.1 205.9C117.9 205.1 117.8 206.2 117.6 205.9C117.4 205.7 117.3 205.9 117.1 205.9C117.1 205.9 117.1 205.7 117 206.2C117 206.4 117 206.4 117 206.2C116.8 205.6 116.8 206 116.7 205.9C116.6 205.8 116.5 206.1 116.3 205.6C116.3 205.4 116.1 205.3 116.2 205.9V206.2C116.2 206.2 116.1 206 116 205.9C116 206.6 115.7 205.8 115.7 205.9C115.7 206.1 115.6 206.1 115.5 206.1C115.5 206.1 115.3 206 114.5 205.1C114.1 204.7 113.7 204.3 113.6 204.1C113.5 203.9 113.4 203.7 113.4 203.6C113.4 203.5 113.4 203.3 113.4 203.2C113.4 202.9 113.4 202.3 113.7 202.5C113.8 202.5 113.7 202.2 114 202.7C114 201.9 114.4 202.2 114.7 202.1C114.9 202 115 201.3 115.3 201.5C115.3 200.9 115.5 200.9 115.7 201.1C116.3 201.7 116.6 201.1 117.1 201.3C117.5 201.3 117.9 201.3 118.3 201.3C118.3 201.3 118.4 200.9 118.5 201.3C118.5 201.6 118.7 201.3 118.7 201.3C118.7 201.3 118.8 201.2 118.9 201.3C119.2 202 119.5 201.6 119.7 201.6C120 201.6 120.3 201.7 120.5 201.6C120.7 201.6 120.8 201.2 121 201.3C121 201.3 121.2 201 121.2 201.6C121.2 201.8 121.2 201.3 121.3 201.3C121.4 201.3 121.5 201.3 121.7 201.3C121.9 201.3 122 201.3 122.2 201.3C122.2 201.3 122.4 201 122.5 201C122.6 201 122.7 201 122.8 201C122.9 201 123.1 201.3 123.2 201.3C123.3 201.3 123.5 201.1 123.6 201.3C123.7 201.6 123.8 201.6 123.8 201.6C123.8 201.9 123.8 202.1 123.8 202.2C123.8 202.3 123.8 202.4 123.8 202.4L123.9 202.7C123.9 202.7 124.1 202.7 124.2 202.7H124.3C124.3 202.7 124.5 202.6 124.6 202.5C124.8 202.4 124.9 202.3 125.1 202.2H125.3C125.6 202.2 125.9 202.4 126.2 202.7C126.4 202.9 126.6 203.3 126.5 203.6C126.3 204 126.1 204.3 125.9 204.6C125.7 204.9 125.3 205.1 125 205.2L124.7 205.3Z" fill="black"/>
<path d="M122.6 203.898C122.5 203.498 122.4 203.098 122.2 202.698C122.2 202.598 122.3 202.298 121.8 202.298C121.5 202.298 122.1 201.998 122 201.798C121.8 201.398 121.8 200.998 121.6 200.698C121.4 200.298 121.1 199.998 120.9 199.698C120.7 199.298 120.9 198.898 120.5 198.598C120.1 198.398 120.5 197.898 120.3 197.698C120.1 197.398 119.9 197.098 120 196.698C120 196.398 120.2 196.098 120 195.898C119.9 195.798 119.5 195.798 119.5 195.598C119.5 195.498 119.7 195.198 119 195.298C119 195.298 119 195.298 119.1 195.098C119.4 194.798 119.3 194.598 119.1 194.598C118.8 194.598 118.8 194.398 118.7 194.298C118.6 193.998 118.4 193.698 118.4 193.398C118.4 193.098 118.5 192.798 118.4 192.598C118.4 192.298 118 192.198 118.2 191.798C118.4 191.498 118.3 191.298 118.2 190.998C118.2 190.898 118.4 190.598 117.7 190.698C118.4 190.098 117.2 190.098 117.3 189.598C117.3 189.198 117.1 188.798 116.9 188.398C116.9 188.398 116.9 188.098 116.5 188.198C116.3 188.198 116.3 188.198 116.4 187.998C116.9 187.498 116.4 187.298 116.4 186.998C116.4 186.598 116 186.398 116.4 185.898C116.5 185.698 116.6 185.498 116 185.498C115.7 185.498 116 185.298 115.8 185.198C115.8 185.198 115.4 185.198 115.4 184.998C115.4 184.998 115.6 184.798 115.6 184.598C114.8 184.298 115.5 183.598 115.1 183.098C114.8 182.698 114.6 182.198 114.6 181.598C114.6 181.298 114.6 180.998 115.6 180.398C116.1 180.098 116.6 179.898 116.9 179.898C117.2 179.898 117.4 179.898 117.5 179.898C117.6 179.998 117.8 180.098 118 180.198C118.3 180.398 118.9 180.598 118.8 180.998C118.8 181.098 119.1 181.098 118.6 181.398C119.5 181.598 119.2 182.198 119.4 182.598C119.6 182.998 120.3 183.098 120.2 183.598C120.9 183.598 120.9 183.898 120.7 184.198C120.3 185.198 121 185.798 121.2 186.498C121.4 187.298 121.7 187.998 122 188.798C122 188.898 122.4 188.898 122.2 189.198C122 189.398 122.2 189.498 122.3 189.698C122.3 189.898 122.5 189.998 122.4 190.198C122 190.998 122.6 191.498 122.7 192.098C122.8 192.698 123 193.298 123.3 193.898C123.5 194.198 124 194.498 124 194.898C124 195.098 124.4 195.098 123.9 195.498C123.8 195.498 124.2 195.498 124.3 195.698C124.4 195.898 124.5 196.198 124.6 196.398C124.7 196.698 124.8 197.098 125 197.398C125.1 197.598 125.4 197.698 125.5 197.898C125.6 198.098 125.7 198.298 125.7 198.598C125.7 198.898 125.7 199.198 125.7 199.498C125.7 199.798 126.1 199.998 125.9 200.398C125.6 201.098 125.9 201.498 126.1 201.998C126.2 202.498 126.3 203.098 126.6 203.498C126.6 203.598 126.6 203.798 126.6 203.998L123.5 203.798C123.7 203.798 123.8 203.698 123.9 203.498C123.9 203.398 125.4 203.898 125.8 204.098C125.8 204.098 126 204.198 126 204.298C126.2 204.598 126.5 204.998 126.6 205.298L127.2 206.798L123.3 204.998C123.2 204.998 123.1 204.898 123.1 204.798C123.1 204.298 122.8 203.898 122.7 203.398L122.6 203.898Z" fill="black"/>
<path d="M158.3 202C158.3 201.7 158.5 201.4 158.5 201C158.5 200.9 158.8 200.8 158.3 200.6C158 200.5 158.7 200.6 158.7 200.4C158.7 200.1 158.9 199.8 158.9 199.5C158.9 199.2 158.8 198.9 158.8 198.6C158.8 198.3 159.2 198.1 158.9 197.7C158.7 197.4 159.2 197.3 159.2 197.1C159.2 196.8 159.2 196.6 159.4 196.4C159.6 196.3 159.9 196.2 159.8 196C159.8 195.9 159.5 195.7 159.5 195.6C159.5 195.6 159.8 195.5 159.3 195.2C159.3 195.2 159.3 195.2 159.5 195.2C159.9 195.2 159.9 195.1 159.7 194.9C159.5 194.7 159.5 194.7 159.5 194.6C159.5 194.4 159.5 194.1 159.7 193.9C159.7 193.7 160.1 193.6 160.2 193.5C160.3 193.3 160.1 193.1 160.4 193C160.7 193 160.8 192.8 160.8 192.6C160.8 192.6 161.1 192.5 160.5 192.2C161.4 192.2 160.5 191.6 160.7 191.4C161 191.2 160.9 190.9 161 190.6C161 190.6 161.2 190.5 160.8 190.3C160.7 190.3 160.7 190.1 160.8 190.1C161.5 190.1 161.2 189.8 161.3 189.6C161.5 189.4 161.3 189.1 161.8 189C162 189 162.2 188.9 161.7 188.6C161.5 188.5 161.7 188.4 161.7 188.3C161.7 188.3 161.4 188.1 161.4 188C161.4 188 161.7 188 161.8 188C161.3 187.5 162.2 187.4 162.2 187C162.2 186.6 162.3 186.3 162.5 185.9C162.6 185.7 162.8 185.6 164 185.8C164.5 185.8 165 186 165.3 186.2C165.5 186.3 165.7 186.5 165.7 186.6C165.7 186.7 165.9 186.9 165.9 187C166 187.3 166.5 187.7 166.1 187.8C166 187.8 166.3 188 165.8 187.9C166.5 188.4 165.8 188.6 165.8 188.9C165.8 189.2 166.3 189.6 166 189.8C166.6 190.1 166.4 190.3 166.2 190.4C165.4 190.7 165.7 191.4 165.4 191.9C165.1 192.4 165.1 193 164.9 193.5C164.9 193.5 165.2 193.8 164.9 193.8C164.6 193.8 164.8 194 164.7 194.1C164.7 194.2 164.7 194.4 164.6 194.4C163.8 194.6 164.1 195.2 163.9 195.6C163.7 196 163.5 196.4 163.6 196.9C163.6 197.2 163.9 197.5 163.6 197.8C163.6 197.8 163.8 198.1 163.2 198C163 198 163.4 198.2 163.4 198.3C163.4 198.5 163.4 198.7 163.3 198.8C163.3 199 163.1 199.3 163.1 199.5C163.1 199.7 163.3 199.9 163.3 200C163.3 200.2 163.3 200.3 163.2 200.5C163.1 200.7 162.8 200.8 162.7 201C162.6 201.2 162.8 201.5 162.5 201.6C161.9 201.9 162.1 202.3 162 202.6C161.9 202.9 161.8 203.3 161.8 203.7C161.8 203.9 161.3 204 161.3 204.2C161.3 204.2 159.8 204.2 159.3 204.2H159.1C158.7 203.9 158 203.6 158.1 203.4C158.2 203 158.2 202.7 158.3 202.3V202Z" fill="black"/>
<path d="M175.4 203.798C175.1 203.798 174.9 203.798 174.6 203.798C174.6 203.798 174.4 203.498 174.3 204.098C174.3 204.398 174.2 203.698 174.1 203.698C173.8 203.698 173.6 203.698 173.4 203.698C173.2 203.698 172.9 203.998 172.7 203.998C172.5 203.998 172.2 203.698 172 203.998C171.8 204.298 171.6 203.798 171.4 203.898C171.2 203.998 171 204.098 170.8 203.898C170.7 203.698 170.5 203.498 170.4 203.598C170.4 203.598 170.2 203.998 170.1 203.998C170.1 203.998 169.9 203.698 169.8 204.298C169.8 204.298 169.8 204.298 169.8 204.198C169.7 203.798 169.6 203.798 169.5 204.198C169.5 204.498 169.4 204.398 169.3 204.498C169.1 204.498 168.9 204.498 168.7 204.498C168.5 204.498 168.4 204.198 168.2 204.198C168 204.198 167.9 204.398 167.7 204.198C167.5 203.898 167.4 203.898 167.3 203.898C167.3 203.898 167.1 203.598 167.1 204.298C166.8 203.498 166.7 204.598 166.4 204.398C166.1 204.198 165.9 204.398 165.7 204.398C165.7 204.398 165.5 204.198 165.5 204.698C165.5 204.898 165.5 204.898 165.4 204.698C165.2 204.098 165 204.498 164.8 204.398C164.6 204.398 164.4 204.598 164.2 204.198C164.1 203.998 164 203.898 164 204.498C164 204.798 163.9 204.498 163.8 204.498C163.8 204.498 163.8 204.798 163.8 204.898C163.8 204.898 163.7 204.698 163.6 204.598C163.6 205.298 163.1 204.498 163 204.698C163 204.898 162.8 204.898 162.7 204.898C162.7 204.898 162.5 204.798 161.6 204.098C161.2 203.798 160.8 203.398 160.6 203.098C160.5 202.898 160.4 202.698 160.4 202.598C160.4 202.398 160.4 202.198 160.5 202.098C160.6 201.798 160.6 201.098 161 201.198C161.1 201.198 161 200.898 161.4 201.298C161.4 200.398 162.1 200.798 162.4 200.598C162.7 200.498 162.9 199.798 163.2 199.998C163.2 199.298 163.5 199.398 163.7 199.598C164.4 200.198 164.8 199.598 165.3 199.698C165.8 199.698 166.3 199.698 166.9 199.698C166.9 199.698 167 199.298 167.2 199.698C167.3 199.998 167.4 199.698 167.5 199.698C167.6 199.698 167.7 199.598 167.8 199.698C168.2 200.298 168.6 199.898 169 199.998C169.4 199.998 169.8 200.098 170.2 199.998C170.4 199.898 170.7 199.598 170.9 199.698C171 199.698 171.1 199.398 171.2 199.998C171.2 200.198 171.3 199.698 171.4 199.698C171.6 199.698 171.7 199.698 171.9 199.698C172.1 199.698 172.4 199.698 172.6 199.698C172.7 199.698 172.9 199.398 173 199.398C173.2 199.398 173.3 199.398 173.5 199.398C173.7 199.398 173.9 199.698 174.1 199.798C174.3 199.798 174.5 199.598 174.7 199.898C175 200.398 175.4 200.198 175.7 200.298C176 200.298 176.4 200.498 176.7 200.298C176.9 200.298 177 200.798 177.2 200.798C177.2 200.798 177.2 202.298 177.2 202.798V202.998C177 203.398 176.7 204.098 176.5 204.098C176.2 203.998 175.9 204.098 175.6 203.998L175.4 203.798Z" fill="black"/>
<path d="M173.4 202.998C173.4 202.698 173.4 202.398 173.3 202.198C173.3 202.198 173.5 201.998 173 201.898C172.7 201.898 173.3 201.698 173.3 201.598C173.2 201.398 173.3 201.098 173.1 200.798C173 200.598 172.7 200.398 172.6 200.098C172.5 199.898 172.7 199.598 172.4 199.398C172.1 199.298 172.5 198.998 172.4 198.798C172.2 198.598 172.1 198.398 172.3 198.198C172.4 197.998 172.6 197.798 172.5 197.698C172.5 197.698 172.1 197.698 172.1 197.498C172.1 197.498 172.3 197.198 171.7 197.298C171.7 197.298 171.7 197.298 171.8 197.198C172.2 196.998 172.1 196.898 171.8 196.898C171.5 196.898 171.5 196.898 171.5 196.698C171.5 196.498 171.3 196.298 171.3 196.098C171.3 195.898 171.5 195.698 171.5 195.498C171.5 195.298 171.2 195.198 171.5 194.998C171.7 194.798 171.7 194.598 171.6 194.498C171.6 194.498 171.8 194.198 171.2 194.398C171.9 193.898 170.8 193.998 170.9 193.698C171 193.398 170.8 193.198 170.7 192.998C170.7 192.998 170.8 192.798 170.4 192.998C170.2 192.998 170.2 192.998 170.3 192.998C170.8 192.598 170.3 192.498 170.3 192.298C170.3 191.998 170 191.998 170.3 191.598C170.4 191.398 170.5 191.298 169.9 191.398C169.6 191.398 169.9 191.298 169.7 191.198C169.7 191.198 169.4 191.198 169.3 191.198C169.3 191.198 169.5 190.998 169.5 190.898C168.8 190.898 169.5 190.198 169.1 189.998C168.8 189.798 168.7 189.498 168.6 189.098C168.6 188.898 168.6 188.698 169.6 187.998C170 187.698 170.5 187.398 170.8 187.298C171 187.298 171.3 187.198 171.4 187.298C171.5 187.298 171.7 187.298 171.8 187.398C172.1 187.498 172.7 187.398 172.5 187.798C172.5 187.898 172.8 187.798 172.3 188.098C173.1 188.098 172.8 188.598 173 188.798C173.2 188.998 173.9 188.998 173.7 189.398C174.3 189.298 174.3 189.398 174.2 189.698C173.8 190.498 174.4 190.798 174.6 191.398C174.7 191.998 175 192.498 175.2 192.998C175.2 192.998 175.6 192.998 175.4 193.198C175.2 193.398 175.4 193.398 175.4 193.598C175.4 193.698 175.6 193.798 175.4 193.898C174.9 194.498 175.4 194.798 175.4 195.298C175.4 195.698 175.5 196.198 175.8 196.598C176 196.798 176.4 196.998 176.3 197.298C176.3 197.398 176.6 197.498 176.1 197.698C175.9 197.698 176.4 197.698 176.4 197.798C176.4 197.998 176.4 198.198 176.5 198.298C176.5 198.498 176.5 198.798 176.7 199.098C176.7 199.198 177 199.398 177.1 199.498C177.1 199.598 177.2 199.798 177.1 199.998C177.1 200.198 176.9 200.498 176.9 200.698C176.9 200.898 177.2 201.098 176.9 201.298C176.4 201.798 176.8 202.098 176.7 202.498C176.7 202.898 176.7 203.298 176.8 203.598C176.8 203.798 176.4 203.998 176.4 204.198C176.4 204.198 175 204.498 174.4 204.498H174.2C173.7 204.298 173 204.198 173 203.998C173 203.698 173 203.398 173 203.098L173.4 202.998Z" fill="black"/>
<path d="M188.5 197.598C188.2 197.198 187.9 196.798 187.6 196.398C187.5 196.298 187.6 195.898 187 196.098C186.7 196.098 187.1 195.698 187 195.498C186.7 195.198 186.4 194.698 186.1 194.398C185.8 194.098 185.3 193.898 185 193.598C184.7 193.298 184.6 192.698 184.1 192.598C183.6 192.498 183.8 191.898 183.5 191.698C183.2 191.498 182.8 191.198 182.8 190.798C182.8 190.498 182.8 190.098 182.5 189.998C182.3 189.998 182 189.998 181.9 189.898C181.9 189.798 181.9 189.398 181.3 189.698C181.3 189.698 181.3 189.598 181.3 189.498C181.5 189.098 181.3 188.898 181 188.998C180.7 188.998 180.6 188.998 180.5 188.898C180.2 188.598 179.9 188.398 179.7 188.098C179.5 187.898 179.5 187.498 179.4 187.198C179.2 186.898 178.8 186.898 178.8 186.498C178.8 186.098 178.6 185.898 178.4 185.698C178.3 185.598 178.4 185.298 177.8 185.698C178.1 184.798 177 185.298 176.8 184.798C176.6 184.298 176.2 184.098 175.8 183.798C175.8 183.798 175.8 183.498 175.3 183.798C175.2 183.798 175.1 183.798 175.1 183.698C175.3 182.998 174.8 182.998 174.6 182.698C174.4 182.298 173.9 182.298 173.9 181.598C173.9 181.298 173.9 181.098 173.3 181.398C173 181.498 173.1 181.198 172.9 181.198C172.8 181.198 172.5 181.198 172.4 181.198C172.4 181.198 172.4 180.898 172.4 180.698C171.5 180.798 171.7 179.798 171.1 179.498C170.5 179.198 170.1 178.798 169.7 178.298C169.5 177.998 169.3 177.698 169.9 176.698C170.1 176.198 170.5 175.798 170.8 175.598C171 175.498 171.3 175.398 171.4 175.398C171.6 175.398 171.8 175.398 172.1 175.498C172.5 175.598 173.2 175.498 173.3 175.898C173.3 176.098 173.7 175.898 173.4 176.398V176.498C174.3 176.298 174.4 176.998 174.9 177.298C175.3 177.598 176.1 177.398 176.2 177.898C176.8 177.598 177 177.898 177 178.198C177.2 179.298 178.2 179.598 178.9 180.398C179.5 181.098 180.3 181.698 180.9 182.398C181 182.498 181.4 182.398 181.3 182.698C181.3 182.998 181.6 182.998 181.7 183.198C181.8 183.298 182.1 183.398 182.1 183.598C182.1 184.598 183 184.898 183.4 185.498C183.9 186.098 184.3 186.698 184.9 187.098C185.3 187.398 185.8 187.498 186 187.898C186 188.098 186.5 187.998 186.2 188.598C186.2 188.798 186.6 188.598 186.7 188.598C186.9 188.798 187.1 189.098 187.3 189.298C187.6 189.598 187.8 189.998 188.2 190.298C188.4 190.498 188.8 190.498 189 190.698C189.2 190.898 189.4 191.098 189.5 191.298C189.7 191.598 189.7 191.998 189.9 192.298C190.1 192.598 190.5 192.798 190.5 193.198C190.5 193.998 191.1 194.398 191.4 194.898C191.7 195.398 192.1 195.998 192.6 196.398C192.6 196.398 192.7 196.498 192.7 196.598C192.7 196.598 192.7 196.798 192.8 196.998C192.8 197.198 193 197.498 193 197.998C193 198.298 193 198.598 192.7 198.898C192.7 198.898 192.7 198.998 192.6 199.098C192.6 199.098 192.4 199.298 192.3 199.398C192 199.598 191.6 199.698 191.3 199.698C190.7 199.698 190.5 199.298 190.4 198.998C190.4 198.698 190.4 198.398 190.6 197.998C190.7 197.798 191 197.698 191.1 197.798C191.2 197.798 191.3 197.998 191.3 198.098V198.198H191.5C191.5 198.198 191.5 198.198 191.5 198.298C191.4 198.298 191.1 198.298 190.8 198.598H190.6C190.6 198.698 190.1 199.098 190.1 199.098C190.1 199.098 190.1 199.098 190.1 198.998C189.8 198.498 189.4 198.098 189.1 197.598H188.5Z" fill="black"/>
</svg>
