<svg width="300" height="300" viewBox="0 0 300 300" fill="none" xmlns="http://www.w3.org/2000/svg">
<path d="M187.5 162.101C186.3 160.801 185.2 159.501 183.9 158.301C183.4 157.801 183.2 157.201 182.3 157.101C181.9 157.101 181.9 156.101 181.5 155.701C180.3 154.601 179.3 153.301 178.2 152.201C177.1 151.101 175.8 150.101 174.7 149.001C173.6 147.901 172.7 146.501 171.4 145.601C170.3 144.801 169.9 143.701 169 143.001C168 142.301 167.2 141.801 166.3 141.201C165.7 140.801 164.9 140.301 164.1 140.301C163.6 140.301 163 140.501 162.5 140.501C162 140.501 161.3 140.101 160.8 140.701C160.8 140.701 160.5 140.701 160.4 140.501C159.8 140.101 159 140.101 158.5 140.401C158 140.701 157.5 140.601 157.1 140.601C155.8 140.601 154.5 140.701 153.2 140.701C152.2 140.701 151.3 140.501 150.3 140.601C149.3 140.601 148.2 141.001 147.3 140.801C146.3 140.601 145.4 140.801 144.5 140.801C144 140.801 143.3 140.701 143 141.401C143 141.401 142.8 141.401 142.7 141.401C141.1 140.801 139.8 142.201 138.3 142.301C136.7 142.401 135.2 143.001 133.7 143.401C133.3 143.501 132.8 143.401 132.6 144.001C132.6 144.201 132.1 144.301 131.9 144.301C130.6 144.101 129.7 144.901 128.7 145.201C127.5 145.701 126.8 146.501 125.7 147.001C125.2 147.201 124.7 147.701 124.9 148.501C124.9 148.901 124.5 149.201 124.4 149.601C124.4 149.901 124.4 150.301 124.4 150.701C124.4 151.001 124 151.201 123.8 151.501C123.8 151.501 123.8 151.701 123.8 151.801C124 153.601 122.9 155.401 123 157.401C123.1 159.401 123.1 161.501 123 163.501C123 164.601 122.8 165.801 121.6 166.601C121.1 167.001 120.5 167.001 120.2 166.601C120 166.201 119.7 165.801 119.7 165.401C119.6 164.701 119.5 164.101 119.4 163.401C119.2 162.101 118.7 160.701 118.9 159.301C118.9 158.901 118.7 158.401 119.2 158.001C119.2 158.001 119.3 157.801 119.2 157.701C118.5 155.801 119.2 153.801 119.5 151.801C119.8 150.101 119.8 148.201 121 146.601C121 145.401 121.9 144.301 122.8 143.701C126 141.501 129.1 139.901 132.3 139.101C135.5 138.301 138.6 137.401 141.8 136.901C142.3 136.901 142.8 136.401 143.4 136.501C144 136.701 144.8 136.301 145.5 136.201C146.1 136.201 146.8 135.901 147.4 136.001C150 136.401 152.5 135.801 155.1 135.801C157.7 135.801 160.2 135.801 162.8 135.801C164.4 135.801 166.2 135.801 167.9 136.501C168.6 136.801 169.6 136.901 169.9 137.801C169.9 138.001 170.8 138.101 171.2 138.401C172.2 139.101 173 139.901 173.8 140.701C174.8 141.801 175.8 142.901 176.8 143.901C177.4 144.501 178.2 145.001 178.9 145.601C179.6 146.201 180.2 146.901 180.8 147.601C181.5 148.501 182.2 149.501 182.9 150.401C183.7 151.301 184.7 152.101 185.3 153.101C186.4 155.001 188.1 156.401 189.5 158.001C190.9 159.601 192.4 161.201 193.9 162.701C194.8 163.501 195.2 164.701 196 165.601C196.4 166.001 195.8 167.601 195.3 167.701C195.3 167.701 195.1 167.701 195 167.701C193.9 167.201 192.6 166.901 191.7 165.901C190.4 164.401 189 163.001 187.7 161.601L187.5 162.101Z" fill="black"/>
<path d="M125.201 193.202C125.201 193.602 125.201 193.902 125.401 194.302C125.401 194.402 125.201 194.602 125.801 194.702C126.101 194.702 125.501 195.002 125.501 195.102C125.601 195.402 125.501 195.802 125.701 196.102C125.801 196.402 126.101 196.702 126.201 197.002C126.301 197.302 126.101 197.702 126.501 198.002C126.801 198.202 126.401 198.602 126.501 198.802C126.701 199.102 126.801 199.302 126.601 199.602C126.501 199.802 126.301 200.102 126.401 200.202C126.401 200.302 126.801 200.402 126.801 200.502C126.801 200.602 126.601 200.802 127.201 200.802C127.201 200.802 127.201 200.802 127.101 200.902C126.701 201.102 126.801 201.302 127.101 201.302C127.401 201.302 127.401 201.502 127.401 201.602C127.401 201.902 127.601 202.102 127.501 202.402C127.501 202.602 127.301 202.902 127.301 203.102C127.301 203.302 127.601 203.502 127.301 203.802C127.001 204.102 127.101 204.202 127.101 204.402C127.101 204.502 126.901 204.702 127.501 204.702C126.701 205.202 127.901 205.302 127.701 205.702C127.601 206.102 127.701 206.402 127.801 206.702C127.801 206.702 127.701 206.902 128.101 206.902C128.301 206.902 128.301 206.902 128.101 207.102C127.501 207.502 128.001 207.702 127.901 207.902C127.901 208.202 128.201 208.502 127.701 208.802C127.501 209.002 127.401 209.202 128.001 209.202C128.301 209.202 128.001 209.402 128.101 209.502C128.101 209.502 128.401 209.602 128.501 209.702C128.501 209.702 128.301 209.902 128.201 210.002C128.901 210.302 128.201 210.902 128.401 211.302C128.701 211.702 128.701 212.202 128.601 212.602C128.601 212.902 128.501 213.102 127.401 213.502C126.901 213.702 126.401 213.802 126.001 213.702C125.801 213.702 125.501 213.702 125.401 213.602C125.301 213.502 125.101 213.402 125.001 213.302C124.801 213.102 124.201 212.902 124.401 212.502C124.401 212.402 124.201 212.302 124.601 212.202C123.801 212.002 124.201 211.502 124.101 211.102C124.001 210.802 123.301 210.602 123.501 210.202C122.801 210.202 122.901 209.902 123.101 209.702C123.601 208.902 123.101 208.302 123.101 207.702C123.101 207.002 122.901 206.402 122.801 205.702C122.801 205.602 122.401 205.502 122.701 205.402C122.901 205.202 122.701 205.102 122.701 205.002C122.701 204.902 122.501 204.702 122.701 204.602C123.301 204.002 122.701 203.502 122.701 203.002C122.701 202.502 122.701 201.902 122.401 201.402C122.201 201.102 121.801 200.802 121.901 200.502C121.901 200.402 121.601 200.302 122.101 200.002C122.301 200.002 121.801 199.902 121.801 199.802C121.801 199.602 121.801 199.402 121.701 199.102C121.701 198.802 121.701 198.502 121.501 198.202C121.501 198.002 121.201 197.902 121.101 197.702C121.101 197.502 121.001 197.302 121.001 197.102C121.001 196.802 121.201 196.602 121.201 196.302C121.201 196.002 120.901 195.802 121.201 195.502C121.601 195.002 121.201 194.602 121.201 194.102C121.201 193.602 121.201 193.202 120.901 192.702C120.801 192.502 121.201 192.102 121.201 191.902C121.201 191.802 122.601 191.402 123.101 191.402H123.301C123.801 191.602 124.601 191.702 124.601 192.002C124.601 192.402 124.701 192.802 124.801 193.202H125.201Z" fill="black"/>
<path d="M174.101 173.302C174.501 173.102 174.801 173.002 175.201 172.702C175.301 172.702 175.601 172.702 175.501 172.202C175.501 171.902 175.901 172.402 176.001 172.402C176.301 172.202 176.701 172.102 177.001 171.902C177.301 171.702 177.501 171.302 177.801 171.102C178.101 170.902 178.601 171.102 178.801 170.602C179.001 170.202 179.401 170.602 179.601 170.302C179.801 170.102 180.101 169.902 180.501 170.002C180.801 170.002 181.101 170.202 181.201 170.002C181.201 169.902 181.201 169.502 181.401 169.502C181.501 169.502 181.801 169.702 181.701 169.002C181.701 169.002 181.701 169.002 181.901 169.002C182.201 169.302 182.401 169.202 182.401 169.002C182.401 168.702 182.501 168.702 182.601 168.602C182.901 168.502 183.201 168.302 183.501 168.302C183.701 168.302 184.001 168.302 184.301 168.302C184.501 168.302 184.701 167.902 185.001 168.102C185.301 168.302 185.501 168.202 185.701 168.102C185.801 168.102 186.101 168.302 185.901 167.602C186.501 168.302 186.501 167.102 186.901 167.202C187.301 167.202 187.601 167.002 188.001 166.902C188.001 166.902 188.301 167.002 188.201 166.502C188.201 166.302 188.201 166.302 188.401 166.402C188.901 166.902 189.001 166.402 189.301 166.402C189.601 166.402 189.901 166.002 190.301 166.402C190.501 166.602 190.701 166.602 190.701 166.002C190.701 165.702 190.901 166.002 191.001 165.802C191.001 165.802 191.001 165.402 191.201 165.402C191.201 165.402 191.401 165.602 191.501 165.702C191.801 164.902 192.501 165.702 192.901 165.302C193.301 165.002 193.801 164.902 194.301 164.902C194.601 164.902 194.901 164.902 195.401 166.002C195.601 166.502 195.801 167.002 195.701 167.402C195.701 167.702 195.701 167.902 195.601 168.002C195.501 168.102 195.401 168.302 195.301 168.402C195.101 168.702 194.901 169.302 194.601 169.102C194.501 169.102 194.501 169.402 194.201 168.902C194.001 169.802 193.501 169.402 193.101 169.602C192.801 169.802 192.601 170.502 192.201 170.302C192.201 171.002 192.001 170.902 191.701 170.802C190.801 170.402 190.301 171.002 189.601 171.202C188.901 171.302 188.301 171.702 187.601 171.902C187.501 171.902 187.601 172.302 187.301 172.102C187.101 171.902 187.001 172.102 186.801 172.202C186.701 172.202 186.601 172.402 186.401 172.302C185.601 171.902 185.301 172.502 184.701 172.602C184.201 172.702 183.601 172.902 183.201 173.302C182.901 173.502 182.801 174.002 182.401 174.002C182.201 174.002 182.201 174.402 181.901 173.902C181.801 173.802 181.901 174.202 181.801 174.302C181.601 174.402 181.401 174.502 181.201 174.602C180.901 174.702 180.601 174.802 180.301 175.002C180.101 175.102 180.101 175.402 179.901 175.602C179.701 175.702 179.601 175.802 179.301 175.902C179.001 175.902 178.701 175.902 178.401 175.902C178.101 175.902 178.001 176.302 177.601 176.202C176.901 176.002 176.601 176.402 176.201 176.602C175.701 176.802 175.301 176.902 174.901 177.302C174.701 177.502 174.201 177.202 174.001 177.302C173.901 177.302 173.101 176.102 172.901 175.702V175.502C172.901 175.002 172.801 174.202 173.101 174.102C173.501 174.002 173.901 173.702 174.301 173.502L174.101 173.302Z" fill="black"/>
<path d="M154.699 167.101C154.699 166.901 154.699 166.701 154.699 166.601C154.699 166.601 154.899 166.501 154.399 166.401C154.099 166.401 154.799 166.301 154.699 166.201C154.699 166.001 154.699 165.901 154.699 165.701C154.699 165.501 154.399 165.401 154.399 165.201C154.399 165.001 154.699 164.901 154.399 164.701C154.099 164.501 154.599 164.501 154.499 164.301C154.399 164.201 154.299 164.001 154.499 163.901C154.699 163.901 154.899 163.701 154.799 163.601C154.799 163.601 154.399 163.401 154.499 163.401C154.499 163.401 154.799 163.401 154.199 163.201C154.199 163.201 154.199 163.201 154.399 163.201C154.799 163.201 154.799 163.201 154.499 163.001C154.199 163.001 154.299 162.901 154.299 162.801C154.299 162.701 154.299 162.501 154.299 162.401C154.299 162.401 154.599 162.201 154.699 162.201C154.699 162.201 154.499 161.901 154.799 161.901C155.099 161.901 155.099 161.801 155.099 161.701C155.099 161.701 155.399 161.701 154.799 161.501C155.599 161.501 154.599 161.101 154.799 161.001C154.999 160.901 154.899 160.701 154.999 160.501C154.999 160.501 155.199 160.501 154.799 160.301C154.599 160.201 154.599 160.301 154.799 160.301C155.399 160.301 155.099 160.101 155.199 160.001C155.399 159.901 155.199 159.701 155.599 159.701C155.799 159.701 155.899 159.701 155.399 159.401C155.199 159.301 155.399 159.401 155.399 159.201L155.099 159.001C155.099 159.001 155.299 159.001 155.499 159.001C154.899 158.601 155.899 158.701 155.799 158.401C155.799 158.101 155.799 158.001 155.999 157.801C155.999 157.801 156.299 157.701 157.399 158.001C157.899 158.201 158.399 158.401 158.699 158.601C158.899 158.701 159.099 158.801 159.099 158.901C159.099 158.901 159.299 159.101 159.299 159.201C159.399 159.401 159.899 159.701 159.599 159.701C159.599 159.701 159.799 159.901 159.299 159.701C159.999 160.101 159.399 160.101 159.399 160.301C159.399 160.401 159.999 160.801 159.699 160.801C160.299 161.101 160.099 161.101 159.899 161.101C159.199 161.101 159.499 161.501 159.399 161.801C159.199 162.001 159.299 162.301 159.199 162.601C159.199 162.601 159.499 162.801 159.199 162.801C158.899 162.801 159.199 162.901 159.199 163.001C159.199 163.001 159.299 163.101 159.199 163.201C158.499 163.201 158.899 163.601 158.799 163.801C158.799 164.001 158.599 164.201 158.799 164.401C158.799 164.501 159.199 164.701 159.099 164.801C159.099 164.801 159.399 164.901 158.799 164.901C158.599 164.901 159.099 164.901 159.099 165.001C159.099 165.001 159.099 165.201 159.099 165.301C159.099 165.401 159.099 165.501 159.099 165.701L159.399 165.901V166.101C159.399 166.101 159.099 166.301 158.999 166.401C158.999 166.501 159.199 166.601 158.999 166.701C158.499 166.901 158.699 167.101 158.699 167.301C158.699 167.501 158.699 167.701 158.699 167.801C158.699 167.801 158.299 168.001 158.299 168.101C158.299 168.101 156.799 168.301 156.299 168.401H156.099C155.599 168.401 154.899 168.301 154.899 168.101C154.899 167.901 154.899 167.701 154.899 167.501L154.699 167.101Z" fill="black"/>
<path d="M165.1 167.902C165.1 167.702 165.1 167.502 165.1 167.402C165.1 167.402 165.3 167.302 164.8 167.202C164.5 167.202 165.2 167.102 165.1 167.002C165.1 166.802 165.1 166.702 165.1 166.502C165.1 166.302 164.8 166.202 164.8 166.002C164.8 165.802 165.1 165.702 164.8 165.502C164.5 165.302 165 165.302 164.9 165.102C164.8 165.002 164.7 164.802 164.9 164.702C165.1 164.702 165.3 164.502 165.2 164.402C165.2 164.402 164.8 164.202 164.9 164.202C164.9 164.202 165.2 164.202 164.6 164.002C164.6 164.002 164.6 164.002 164.8 164.002C165.2 164.002 165.2 164.002 164.9 163.802C164.6 163.802 164.7 163.702 164.7 163.602C164.7 163.502 164.7 163.302 164.7 163.202C164.7 163.202 165 163.002 165.1 163.002C165.1 163.002 164.9 162.702 165.2 162.702C165.5 162.702 165.5 162.602 165.5 162.502C165.5 162.502 165.8 162.502 165.2 162.302C166 162.302 165 161.902 165.2 161.802C165.4 161.702 165.3 161.502 165.4 161.302C165.4 161.302 165.6 161.302 165.2 161.102C165 161.002 165 161.102 165.2 161.102C165.8 161.102 165.5 160.902 165.6 160.802C165.8 160.702 165.6 160.502 166 160.502C166.2 160.502 166.3 160.502 165.8 160.202C165.6 160.102 165.8 160.202 165.8 160.002L165.5 159.802C165.5 159.802 165.7 159.802 165.9 159.802C165.3 159.402 166.3 159.502 166.2 159.202C166.2 158.902 166.2 158.802 166.4 158.602C166.4 158.602 166.7 158.502 167.8 158.802C168.3 159.002 168.8 159.202 169.1 159.402C169.3 159.502 169.5 159.602 169.5 159.702C169.5 159.702 169.7 159.902 169.7 160.002C169.8 160.202 170.3 160.502 170 160.502C170 160.502 170.2 160.702 169.7 160.502C170.4 160.902 169.8 160.902 169.8 161.102C169.8 161.202 170.4 161.602 170.1 161.602C170.7 161.902 170.5 161.902 170.3 161.902C169.6 161.902 169.9 162.302 169.8 162.602C169.6 162.802 169.7 163.102 169.6 163.402C169.6 163.402 169.9 163.602 169.6 163.602C169.3 163.602 169.6 163.702 169.6 163.802C169.6 163.802 169.7 163.902 169.6 164.002C168.9 164.002 169.3 164.402 169.2 164.602C169.2 164.802 169 165.002 169.2 165.202C169.2 165.302 169.6 165.502 169.5 165.602C169.5 165.602 169.8 165.702 169.2 165.702C169 165.702 169.5 165.702 169.5 165.802C169.5 165.802 169.5 166.002 169.5 166.102C169.5 166.202 169.5 166.302 169.5 166.502L169.8 166.702V166.902C169.8 166.902 169.5 167.102 169.4 167.202C169.4 167.302 169.6 167.402 169.4 167.502C168.9 167.702 169.1 167.902 169.1 168.102C169.1 168.302 169.1 168.502 169.1 168.602C169.1 168.602 168.7 168.802 168.7 168.902C168.7 168.902 167.2 169.102 166.7 169.202H166.5C166 169.202 165.3 169.102 165.3 168.902C165.3 168.702 165.3 168.502 165.3 168.302L165.1 167.902Z" fill="black"/>
<path d="M179.501 178.002C180.401 179.002 181.201 180.002 182.001 180.902C182.301 181.302 182.401 181.802 183.201 181.802C183.601 181.802 183.401 182.602 183.701 182.902C184.501 183.802 185.201 184.802 186.001 185.702C186.401 186.202 186.801 186.502 187.201 187.002C187.801 187.702 188.401 188.402 189.101 189.302C190.101 190.502 190.801 191.702 191.701 193.002C191.201 193.202 190.701 193.302 190.301 193.502C189.601 193.802 188.701 194.002 187.901 194.202C187.001 194.302 186.201 194.502 185.501 194.702C185.301 194.702 185.101 194.802 184.901 194.902H184.401C184.201 195.102 183.901 195.202 183.601 195.202C183.101 195.302 182.601 195.302 182.101 195.202C181.401 195.202 180.601 195.002 179.901 195.202C179.501 195.302 179.101 195.702 178.601 195.702C178.101 195.702 177.601 195.502 177.201 196.102C177.201 196.102 177.001 196.102 176.901 196.002C176.401 195.602 175.801 195.702 175.401 196.002C175.001 196.302 174.601 196.202 174.301 196.202C173.301 196.202 172.201 196.202 171.201 196.002C170.401 195.902 169.701 195.602 168.901 195.402C168.101 195.302 167.201 195.402 166.501 195.002C165.801 194.602 165.101 194.402 164.401 194.302C164.001 194.302 163.601 193.802 163.101 194.302C163.101 194.302 162.901 194.302 162.801 194.302C161.901 193.202 160.501 193.902 159.401 193.302C158.301 192.702 157.001 192.402 155.901 191.902C155.601 191.802 155.301 191.402 154.901 191.702C154.701 191.702 154.401 191.702 154.301 191.402C153.801 190.402 152.701 190.202 151.901 189.602C151.001 188.902 150.001 188.402 149.401 187.302C149.201 186.802 148.801 186.302 148.001 186.302C147.601 186.302 147.401 185.702 147.101 185.402C146.801 185.202 146.401 185.102 146.201 184.802C146.001 184.602 146.001 184.202 145.901 183.902C145.901 183.902 145.901 183.702 145.701 183.702C145.001 183.202 144.501 182.402 144.301 181.602L143.901 180.402C143.801 180.002 143.701 179.602 143.501 179.202C142.701 177.702 142.401 175.902 142.301 174.202C142.301 173.302 142.401 172.302 143.501 171.702C144.001 171.402 144.601 171.402 144.901 171.702C145.201 172.002 145.401 172.202 145.501 172.502C145.601 173.002 145.701 173.402 145.901 173.802C146.101 174.202 146.301 174.702 146.501 175.102C146.701 175.502 146.901 175.902 146.901 176.402C146.901 176.702 147.201 176.902 146.901 177.302V177.502C147.501 177.902 147.701 178.502 148.001 179.002C148.101 179.302 148.201 179.602 148.301 179.902C148.401 180.202 148.601 180.502 148.801 180.702C149.101 181.102 149.501 181.502 149.901 181.802C150.301 182.102 150.701 182.402 151.001 182.902C151.801 182.902 152.201 183.402 152.501 183.902C153.601 185.802 155.701 186.602 157.601 187.602C159.501 188.602 161.601 189.302 163.801 189.902C164.201 189.902 164.601 189.702 164.901 190.102C165.201 190.502 165.801 190.402 166.301 190.502C166.701 190.502 167.201 190.502 167.601 190.802C169.201 191.802 171.101 191.602 172.801 191.702C174.501 191.902 176.301 191.902 178.101 191.702C179.201 191.502 180.201 191.102 181.201 191.102C181.701 191.102 182.101 190.702 182.601 191.102C182.801 191.202 183.101 190.702 183.401 190.602H183.801C183.801 190.502 184.001 190.502 184.001 190.502C184.101 190.502 184.301 190.502 184.401 190.502C184.401 190.502 184.401 190.402 184.201 190.302C184.101 190.202 183.701 190.102 183.601 190.102C183.601 190.102 183.501 190.102 183.401 189.902L183.201 189.702L182.901 189.302C182.401 188.602 182.101 187.802 181.601 187.102C181.101 186.402 180.301 185.802 180.001 185.002C179.401 183.502 178.201 182.402 177.201 181.202C176.201 180.002 175.201 178.802 174.101 177.702C173.501 177.102 173.301 176.202 172.701 175.502C172.401 175.202 173.101 173.802 173.601 173.602C173.601 173.602 173.801 173.602 173.901 173.602C174.801 173.902 175.901 174.002 176.501 174.702C177.401 175.802 178.501 176.902 179.401 178.002H179.501Z" fill="black"/>
<path d="M168 213.002L168.5 212.002C168.5 211.802 168.6 211.702 168.7 211.502C168.7 211.502 169.1 211.002 168.4 211.502C168 211.702 169 211.002 169 210.902V210.802H168.8C168.6 210.902 168.5 211.002 168.3 211.002C168.1 211.002 168 211.202 167.8 211.302H167.6C167.3 211.302 167 211.402 166.7 211.402C165.5 211.502 164.4 211.202 163.3 211.402C162.3 211.602 161.6 210.902 160.7 210.802C159.7 210.702 158.8 210.502 158 209.902C157.4 209.502 156.9 209.002 156.3 208.902C155.9 208.802 155.4 208.902 155 208.702C154.6 208.502 154.4 208.002 153.7 208.402C153.7 208.402 153.5 208.202 153.5 208.102C153.3 207.502 152.9 207.202 152.4 207.302C151.9 207.302 151.7 207.102 151.4 206.902C150.6 206.402 149.9 205.802 149.2 205.202C148.7 204.702 148.3 204.102 147.9 203.502C147.4 203.002 146.7 202.602 146.5 201.902C146.3 201.202 145.8 200.802 145.4 200.302C145.2 200.002 145.1 199.502 144.4 199.702C144.4 199.702 144.3 199.702 144.3 199.502C144.3 198.202 142.8 198.002 142.3 196.902C141.9 195.802 141.1 194.802 140.7 193.702C140.6 193.402 140.7 193.002 140.1 192.902C139.9 192.902 139.8 192.502 139.9 192.302C140.1 191.802 140 191.302 139.9 190.902C139.8 190.502 139.6 190.002 139.6 189.602C139.6 189.102 139.5 188.602 139.5 188.102C139.5 187.602 139.5 187.102 139.7 186.602C139.9 186.202 140 185.602 139.5 185.102C139.2 184.902 139.5 184.402 139.5 184.002C139.5 183.702 139.2 183.402 139.3 183.102C139.3 182.802 139.6 182.602 139.7 182.402V182.202C139.3 180.702 140.4 179.502 140.6 178.102C140.8 176.702 141.2 175.402 141.8 174.102C142.1 173.402 142.5 172.702 143.7 172.602C144.3 172.602 144.8 172.702 145 173.102C145.2 173.402 145.3 173.702 145.3 174.002C145.3 174.402 145.3 174.902 145.3 175.302C145.3 176.202 145.5 177.102 145 177.902C144.8 178.102 145 178.502 144.5 178.602C144.5 178.602 144.4 178.702 144.4 178.802C144.9 180.102 144.1 181.102 144 182.302C143.9 183.302 144.4 184.302 144 185.202C144.6 185.802 144.5 186.302 144.3 186.802C143.6 188.602 144.3 190.402 144.9 192.002C145.4 193.702 146.5 195.202 147.7 196.702C147.9 197.002 148.4 197.002 148.4 197.402C148.4 197.902 148.9 198.102 149.2 198.402C149.5 198.702 149.8 198.902 150 199.302C150.6 200.902 152 201.702 153.2 202.702C154.3 203.702 155.6 204.602 157 205.202C157.9 205.502 158.8 205.602 159.6 206.002C159.9 206.202 160.4 206.002 160.6 206.702C160.6 206.902 161.1 206.602 161.4 206.702C162 206.802 162.6 207.002 163.2 207.102C164 207.202 164.9 207.402 165.7 207.302C166.2 207.302 166.7 207.002 167.2 206.902C167.3 206.902 167.5 206.902 167.6 206.902H167.7H167.8L168.2 206.802L169.1 206.602C169.4 206.602 169.7 206.602 170 206.402C170.8 206.202 171.6 206.002 172.4 205.702C173.2 205.502 173.9 205.302 174.7 205.002C175 204.902 175.4 204.802 175.7 204.602V205.102V205.402V205.802C175.4 206.302 175.3 206.902 175 207.502C174.3 208.902 173.9 209.902 173.6 211.002C173.2 212.002 172.8 213.202 172.3 214.202C171.6 215.502 170.9 216.802 170.2 218.102C169.8 218.802 169 219.202 168.5 219.802C168.3 220.102 166.8 219.602 166.5 219.202C166.5 219.202 166.4 219.002 166.4 218.902C166.4 218.002 166.2 217.102 166.7 216.402C167.4 215.402 168 214.302 168.5 213.302L168 213.002Z" fill="black"/>
<path d="M124.901 190.998C124.001 190.998 123.201 190.998 122.301 190.998C122.001 190.998 121.701 190.698 121.301 191.198C121.101 191.498 120.801 190.798 120.601 190.798C119.801 190.798 119.001 190.598 118.201 190.498C117.401 190.398 116.601 190.498 115.801 190.198C115.001 189.998 114.401 189.398 113.501 189.398C112.701 189.398 112.401 188.598 111.801 188.398C111.101 188.098 110.401 187.698 110.001 186.998C109.701 186.498 109.501 185.998 109.101 185.598C108.801 185.398 108.401 185.298 108.201 184.898C108.001 184.598 108.101 184.098 107.401 183.998C107.401 183.998 107.401 183.798 107.401 183.698C107.601 183.198 107.401 182.698 107.101 182.398C106.801 182.098 106.801 181.798 106.701 181.498C106.601 180.698 106.701 179.798 106.701 179.098C106.801 178.498 107.201 178.098 107.301 177.598C107.501 177.098 107.301 176.398 107.801 175.998C108.301 175.598 108.401 175.198 108.601 174.698C108.701 174.398 109.101 174.298 108.601 173.798C108.601 173.798 108.601 173.698 108.601 173.598C109.701 173.298 109.201 172.098 110.001 171.498C110.701 170.898 111.301 170.198 112.001 169.598C112.201 169.398 112.501 169.398 112.401 168.898C112.401 168.698 112.601 168.598 112.801 168.598C113.701 168.798 114.201 168.098 114.901 167.998C115.701 167.798 116.401 167.398 117.201 167.698C117.501 167.898 118.001 167.898 118.301 167.298C118.501 166.998 118.801 167.298 119.101 167.198C119.301 167.198 119.501 166.898 119.801 166.898C120.001 166.898 120.201 167.098 120.401 167.298C120.401 167.298 120.501 167.298 120.601 167.298C121.701 166.698 122.701 167.698 123.801 167.698C124.901 167.698 125.901 168.098 126.901 168.598C127.401 168.898 127.901 169.298 127.801 170.498C127.801 170.998 127.501 171.498 127.101 171.698C126.901 171.798 126.601 171.998 126.401 171.998C126.101 171.998 125.801 171.998 125.501 171.998C124.901 171.998 124.201 172.298 123.801 171.898C123.701 171.798 123.401 171.998 123.401 171.498C123.401 171.498 123.401 171.398 123.301 171.398C122.401 171.998 121.701 171.398 121.001 171.398C120.301 171.398 119.701 171.998 119.101 171.798C118.801 172.398 118.401 172.398 118.101 172.198C117.501 171.998 116.901 171.998 116.401 172.198C115.901 172.398 115.501 172.798 115.001 172.998C114.101 173.598 113.401 174.598 112.801 175.598C112.701 175.798 112.901 176.098 112.601 176.198C112.301 176.198 112.301 176.698 112.201 176.898C112.201 177.098 112.201 177.398 111.901 177.598C111.001 178.298 111.101 179.498 111.001 180.398C110.901 181.298 111.001 182.098 111.501 182.698C111.801 183.098 112.401 183.198 112.701 183.598C112.801 183.798 113.201 183.598 113.001 184.298C113.001 184.498 113.401 184.298 113.501 184.298C113.801 184.498 114.201 184.698 114.501 184.898C115.001 185.198 115.501 185.398 116.101 185.598C116.501 185.598 116.901 185.598 117.201 185.598C117.601 185.598 117.901 185.798 118.301 185.898C118.701 186.098 119.201 186.398 119.601 186.498C120.101 186.598 120.601 186.498 121.101 186.698C122.001 187.298 122.901 186.998 123.801 186.998C124.701 186.998 125.601 186.998 126.501 186.598C127.001 186.398 127.501 186.798 128.001 186.598C128.201 186.598 129.001 187.898 129.001 188.398C129.001 188.398 129.001 188.598 129.001 188.698C128.601 189.298 128.301 190.098 127.601 190.198C126.601 190.298 125.701 190.498 124.701 190.598L124.901 190.998Z" fill="black"/>
<path d="M128.3 167.299C128.7 166.999 129.2 166.799 129.6 166.399C129.7 166.299 130.1 166.399 129.9 165.799C129.9 165.499 130.4 165.799 130.5 165.799C130.8 165.399 131.3 165.099 131.6 164.699C131.9 164.299 132.1 163.799 132.3 163.399C132.6 162.999 133.1 162.799 133.1 162.199C133.1 161.699 133.7 161.699 133.9 161.299C134 160.899 134.2 160.499 134.6 160.199C134.9 159.999 135.3 159.899 135.3 159.599C135.3 159.399 135.2 159.099 135.3 158.899C135.4 158.699 135.8 158.699 135.3 158.199C135.3 158.199 135.4 158.199 135.5 158.199C136 158.199 136.1 157.999 135.9 157.699C135.7 157.399 135.9 157.299 135.9 157.199C136.1 156.799 136.3 156.399 136.5 155.999C136.7 155.699 137 155.499 137.2 155.299C137.4 154.999 137.3 154.599 137.7 154.399C138.1 154.199 138.2 153.899 138.4 153.699C138.4 153.499 138.8 153.499 138.4 153.099C138.4 153.099 138.4 153.099 138.4 152.999C139.4 152.899 138.6 151.999 138.9 151.599C139.3 151.199 139.4 150.599 139.5 150.099C139.5 149.999 139.8 149.899 139.4 149.599C139.3 149.599 139.3 149.399 139.4 149.299C140.1 149.099 139.9 148.599 140.1 148.299C140.4 147.899 140.2 147.399 140.8 147.099C141.1 146.999 141.2 146.699 140.8 146.399C140.6 146.199 140.8 146.099 140.8 145.899C140.8 145.799 140.6 145.599 140.6 145.399C140.6 145.299 140.9 145.199 141 145.099C141 145.099 141 145.099 141 144.999C140.5 144.199 141.5 143.799 141.4 143.099C141.4 142.399 141.4 141.799 141.7 141.099C141.7 140.699 142 140.399 143.2 140.199C143.7 140.199 144.3 140.199 144.6 140.299C144.8 140.399 145 140.599 145.1 140.799C145.1 140.999 145.3 141.299 145.4 141.499C145.5 141.999 146 142.499 145.7 142.999C145.6 143.099 145.9 143.399 145.3 143.399C146 144.199 145.3 144.799 145.3 145.399C145.3 145.999 145.7 146.699 145.3 147.199C145.8 147.699 145.6 147.999 145.3 148.299C144.3 149.199 144.4 150.399 143.9 151.399C143.4 152.399 143.1 153.499 142.6 154.499C142.6 154.699 142.8 154.999 142.4 155.099C142.1 155.099 142.2 155.499 142 155.699C142 155.899 142 156.199 141.7 156.299C140.7 156.799 140.7 157.799 140.2 158.499C139.7 159.299 139.3 159.999 139 160.899C138.8 161.399 138.8 162.099 138.4 162.499C138.2 162.699 138.4 163.099 137.8 162.899C137.6 162.899 137.8 163.299 137.8 163.399C137.6 163.699 137.4 163.999 137.2 164.399C136.9 164.799 136.5 165.199 136.2 165.699C136 165.999 136 166.399 135.8 166.699C135.6 166.999 135.4 167.299 135.1 167.499C134.7 167.799 134.3 167.899 133.9 168.199C133.5 168.499 133.3 168.999 132.8 169.099C131.8 169.199 131.4 169.899 130.6 170.299C129.9 170.699 129.1 171.099 128.4 171.499C128 171.799 127.4 171.499 127 171.599C126.8 171.599 126.1 170.399 126 169.899V169.699C126.2 169.099 126.2 168.299 126.6 168.199C126.9 168.199 127.1 167.999 127.4 167.899L128.2 167.399L128.3 167.299Z" fill="black"/>
<path d="M179.9 154.8H177.6C177.3 154.8 177 154.6 176.7 155.1C176.5 155.4 176.3 154.7 176 154.7C175.3 154.7 174.6 154.6 173.8 154.6C173.1 154.6 172.4 154.7 171.7 154.6C171 154.6 170.3 154.1 169.6 154.3C169 154.5 168.6 153.8 168 153.8C167.4 153.8 166.8 153.8 166.3 153.3C165.9 153 165.6 152.7 165.2 152.7C164.9 152.7 164.6 152.9 164.3 152.8C164.1 152.8 163.9 152.4 163.4 152.8C163.4 152.8 163.3 152.7 163.3 152.6C163.2 152.1 162.8 152 162.5 152.2C162.2 152.4 162 152.2 161.8 152.2C161.2 152 160.7 151.9 160.1 151.6C159.7 151.4 159.4 151 159 150.8C158.6 150.6 158 150.7 157.8 150.2C157.5 149.8 157.2 149.6 156.8 149.5C156.6 149.5 156.4 149 156 149.5H155.9C155.6 148.5 154.6 149.2 154.1 148.7C153.6 148.2 152.8 148.1 152.2 147.8C152 147.8 151.9 147.5 151.6 147.8C151.5 147.9 151.3 147.8 151.3 147.8C151.1 147 150.4 147.1 150 146.8C149.5 146.4 148.8 146.4 148.5 145.7C148.4 145.4 148.1 145.1 147.6 145.5C147.4 145.7 147.2 145.3 147 145.3C146.8 145.3 146.5 145.4 146.4 145.3C146.3 145.3 146.2 145 146.1 144.8C146.1 144.8 146.1 144.8 146 144.8C144.9 145 144.5 143.8 143.7 143.6C142.8 143.4 142.1 142.9 141.3 142.5C140.9 142.3 140.5 141.9 140.7 140.7C140.7 140.2 141 139.7 141.3 139.5C141.5 139.3 141.8 139.2 142 139.2C142.3 139.2 142.6 139.2 142.9 139.2C143.5 139.2 144.2 139 144.7 139.5C144.8 139.7 145.2 139.5 145.1 140V140.1C146.2 139.7 146.7 140.5 147.4 140.8C148 141.1 148.9 140.8 149.4 141.3C150 140.9 150.4 141.2 150.6 141.5C151.5 142.7 152.9 142.9 154.1 143.5C155.3 144.2 156.5 144.6 157.8 145.2C158 145.2 158.3 145 158.5 145.4C158.6 145.7 159 145.7 159.3 145.8C159.5 145.9 159.9 145.8 160 146.1C160.7 147.1 161.9 147.1 162.8 147.5C163.8 147.9 164.7 148.3 165.8 148.5C166.4 148.5 167.1 148.5 167.7 148.7C167.9 148.8 168.3 148.6 168.4 149.2C168.4 149.4 168.8 149 169 149C169.4 149 169.8 149.2 170.3 149.3C170.9 149.4 171.5 149.6 172 149.6C172.4 149.6 172.8 149.4 173.1 149.4C173.5 149.4 173.8 149.4 174.2 149.5C174.7 149.6 175.1 149.9 175.6 150C176.1 150.1 176.6 149.9 177.1 150.2C178 150.7 178.8 150.5 179.7 150.5C180.6 150.5 181.4 150.5 182.3 150.3C182.8 150.2 183.3 150.6 183.8 150.5C184 150.5 184.6 151.9 184.6 152.4V152.6C184.2 153.1 183.8 153.9 183.2 154C182.3 154 181.4 154.2 180.5 154.2L179.9 154.8Z" fill="black"/>
<path d="M132.2 133.8C131.9 133.8 131.6 133.8 131.3 133.9C131.2 133.9 131 133.7 131 134.2C131 134.5 130.8 133.9 130.7 133.9C130.4 134 130.1 133.9 129.9 134.1C129.6 134.2 129.4 134.5 129.2 134.6C129 134.7 128.6 134.6 128.4 134.9C128.3 135.2 127.9 134.9 127.8 134.9C127.6 135.1 127.4 135.2 127.1 135.1C126.9 135 126.7 134.8 126.6 135C126.6 135 126.6 135.4 126.4 135.4C126.3 135.4 126.1 135.2 126.2 135.8C126.2 135.8 126.2 135.8 126.1 135.7C125.9 135.4 125.7 135.4 125.8 135.7C125.8 136 125.8 136 125.7 136C125.5 136.1 125.3 136.2 125.1 136.3C124.9 136.3 124.7 136.2 124.5 136.2C124.3 136.2 124.3 136.5 124 136.4C123.7 136.2 123.6 136.3 123.4 136.4C123.4 136.4 123.1 136.2 123.4 136.8C122.8 136.2 123.1 137.3 122.7 137.2C122.4 137.2 122.2 137.4 122 137.6C122 137.6 121.8 137.6 122 138C122 138.1 122 138.2 122 138.1C121.5 137.7 121.5 138.1 121.3 138.1C121 138.1 121 138.5 120.5 138.3C120.3 138.2 120.1 138.2 120.4 138.7C120.5 139 120.3 138.8 120.2 138.9C120.2 138.9 120.2 139.2 120.2 139.3C120.2 139.3 120 139.2 119.8 139.1C119.9 139.8 119.1 139.4 119 139.7C118.8 140.1 118.5 140.2 118.2 140.4C118 140.4 117.7 140.4 116.9 139.8C116.5 139.5 116.1 139.1 116 138.8C115.9 138.6 115.8 138.4 115.8 138.3C115.8 138.1 115.8 138 115.8 137.8C115.8 137.5 115.7 136.9 116.1 136.9C116.2 136.9 116.1 136.6 116.5 136.9C116.3 136.1 116.9 136.2 117.1 135.9C117.3 135.7 117.1 135 117.6 135C117.4 134.4 117.6 134.4 117.9 134.4C118.8 134.6 119.1 133.9 119.7 133.6C120.3 133.3 120.8 133 121.4 132.7C121.4 132.7 121.4 132.3 121.7 132.5C121.9 132.7 122 132.5 122.1 132.4C122.2 132.4 122.3 132.2 122.5 132.2C123.2 132.6 123.5 132 124 131.9C124.5 131.8 125 131.6 125.4 131.3C125.6 131.1 125.8 130.7 126.2 130.7C126.3 130.7 126.4 130.3 126.7 130.9C126.7 131 126.7 130.6 126.8 130.5C127 130.4 127.2 130.4 127.4 130.3C127.7 130.3 128 130.2 128.2 130.1C128.4 130.1 128.5 129.7 128.6 129.6C128.8 129.5 129 129.5 129.2 129.5C129.4 129.5 129.7 129.7 130 129.7C130.2 129.7 130.5 129.4 130.7 129.7C131.2 130.1 131.6 129.8 132 129.8C132.4 129.8 132.9 129.8 133.3 129.7C133.5 129.7 133.8 130.1 134 130.1C134.1 130.1 134.3 131.6 134.3 132.1V132.3C134.1 132.8 134 133.5 133.7 133.5C133.4 133.5 133 133.5 132.7 133.5L132.2 133.8Z" fill="black"/>
<path d="M115.101 110.798C114.701 111.198 114.201 111.498 113.801 111.998C113.701 112.198 113.301 112.098 113.501 112.698C113.601 112.998 113.001 112.698 112.901 112.798C112.601 113.198 112.201 113.598 111.901 113.998C111.601 114.398 111.501 114.998 111.301 115.398C111.101 115.798 110.601 116.098 110.701 116.598C110.701 117.098 110.201 117.198 110.201 117.598C110.201 117.998 110.201 118.398 109.901 118.698C109.701 118.898 109.401 119.198 109.501 119.398C109.501 119.598 109.801 119.798 109.801 119.898C109.801 120.098 109.501 120.198 110.101 120.398C110.101 120.398 110.101 120.398 110.001 120.498C109.601 120.698 109.601 120.898 110.001 120.998C110.301 121.098 110.301 121.198 110.301 121.298C110.301 121.598 110.501 121.898 110.501 122.198C110.501 122.398 110.501 122.798 110.501 122.998C110.501 123.298 111.001 123.398 110.901 123.798C110.801 124.198 110.901 124.398 111.201 124.598C111.201 124.698 111.201 125.098 111.801 124.698C111.501 125.598 112.601 125.198 112.801 125.698C113.001 126.198 113.501 126.498 113.901 126.798C114.001 126.798 114.001 127.098 114.401 126.798C114.501 126.798 114.701 126.798 114.601 126.898C114.601 127.598 115.101 127.598 115.301 127.898C115.601 128.298 116.101 128.298 116.201 128.898C116.201 129.198 116.401 129.398 116.901 128.998C117.101 128.798 117.201 129.098 117.301 129.198C117.401 129.198 117.701 128.998 117.801 129.098C117.801 129.098 117.801 129.398 117.901 129.498C118.701 129.098 118.901 130.198 119.601 130.098C120.201 130.098 120.701 130.198 121.301 130.298C121.601 130.298 121.901 130.498 122.301 131.698C122.501 132.198 122.501 132.798 122.301 133.098C122.201 133.298 122.001 133.598 121.901 133.698C121.601 133.798 121.401 133.898 121.101 133.998C120.601 134.198 119.901 134.698 119.401 134.298C119.201 134.198 119.001 134.398 118.901 133.898C118.901 133.898 118.901 133.798 118.801 133.798C117.901 134.398 117.301 133.698 116.601 133.398C116.001 133.198 115.201 133.498 114.701 132.998C114.101 133.398 113.801 132.998 113.601 132.698C112.901 131.498 111.701 131.098 110.801 130.298C109.901 129.398 109.001 128.698 108.201 127.698C108.101 127.498 107.701 127.698 107.701 127.198C107.701 126.798 107.401 126.698 107.201 126.498C107.001 126.298 106.801 126.098 106.801 125.798C106.801 124.598 106.001 123.798 105.801 122.698C105.601 121.598 105.601 120.598 105.401 119.498C105.401 118.898 105.101 118.198 105.401 117.498C105.501 117.198 105.201 116.898 105.901 116.798C106.101 116.798 105.701 116.398 105.701 116.198C105.701 115.798 106.001 115.398 106.101 114.998C106.301 114.398 106.601 113.898 106.901 113.398C107.001 113.098 107.001 112.598 107.201 112.298C107.401 111.998 107.601 111.598 107.901 111.398C108.201 111.098 108.701 110.798 109.101 110.498C109.501 110.198 109.601 109.598 110.101 109.498C111.001 109.298 111.401 108.498 112.101 108.098C112.701 107.598 113.401 107.198 113.901 106.598C114.201 106.298 114.801 106.398 115.101 106.198C115.301 106.098 116.401 107.098 116.601 107.498V107.698C116.601 108.298 116.701 109.098 116.301 109.398C115.701 109.798 115.201 110.198 114.701 110.698L115.101 110.798Z" fill="black"/>
<path d="M119.199 107.598C119.699 107.798 120.099 108.098 120.599 108.298C120.799 108.298 120.799 108.698 121.299 108.298C121.499 108.098 121.299 108.798 121.499 108.798C121.999 108.998 122.299 109.298 122.799 109.498C123.199 109.698 123.799 109.698 124.199 109.898C124.599 110.098 124.899 110.598 125.499 110.598C125.999 110.598 125.999 111.198 126.399 111.398C126.799 111.498 127.199 111.798 127.399 112.198C127.499 112.498 127.599 112.898 127.899 112.998C128.099 112.998 128.399 112.998 128.599 113.198C128.699 113.398 128.599 113.698 129.299 113.398C129.299 113.398 129.299 113.498 129.299 113.598C129.099 113.998 129.299 114.198 129.699 114.198C129.999 114.198 130.099 114.298 130.199 114.498C130.499 114.898 130.799 115.298 130.999 115.798C131.099 116.198 130.999 116.598 131.099 116.998C131.099 117.398 131.599 117.698 131.299 118.098C131.099 118.498 131.199 118.798 131.299 119.098C131.299 119.298 131.099 119.498 131.699 119.598C131.699 119.598 131.699 119.598 131.699 119.698C130.899 120.298 132.099 120.698 131.899 121.198C131.699 121.698 131.899 122.198 131.899 122.698C131.899 122.798 131.699 122.998 132.199 123.098C132.399 123.098 132.399 123.298 132.199 123.398C131.599 123.798 131.899 124.198 131.799 124.598C131.599 124.998 131.799 125.498 131.299 125.898C131.099 126.098 130.899 126.298 131.399 126.598C131.599 126.798 131.399 126.898 131.399 127.098C131.399 127.198 131.599 127.398 131.599 127.598C131.599 127.698 131.299 127.798 131.199 127.898C131.199 127.898 131.199 127.898 131.199 127.998C131.599 128.898 130.599 129.298 130.499 129.898C130.399 130.598 129.999 131.298 129.499 131.798C129.199 132.098 128.799 132.298 127.799 131.798C127.299 131.598 126.899 131.198 126.699 130.898C126.599 130.698 126.499 130.498 126.499 130.298C126.499 130.098 126.499 129.898 126.499 129.698C126.499 129.298 126.199 128.798 126.599 128.598C126.699 128.598 126.599 128.298 126.999 128.398C126.499 127.698 126.999 127.398 127.199 126.998C127.199 126.598 126.799 126.098 127.099 125.798C126.499 125.498 126.699 125.198 126.899 125.098C127.699 124.398 127.299 123.498 127.399 122.698C127.499 121.898 127.399 120.998 127.399 120.198C127.399 120.098 126.999 119.998 127.299 119.798C127.499 119.598 127.299 119.498 127.299 119.298C127.299 119.198 127.099 118.998 127.299 118.898C127.799 118.198 127.199 117.698 126.999 117.298C126.799 116.798 126.499 116.298 125.899 115.998C125.599 115.798 125.099 115.798 124.899 115.498C124.899 115.398 124.499 115.498 124.699 114.898C124.699 114.698 124.399 114.898 124.299 114.898C124.099 114.798 123.899 114.598 123.599 114.398C123.299 114.198 122.999 113.898 122.599 113.798C122.399 113.798 121.999 113.798 121.799 113.798C121.599 113.798 121.299 113.598 121.099 113.398C120.899 113.198 120.699 112.798 120.399 112.598C120.099 112.398 119.699 112.398 119.499 112.098C119.199 111.398 118.499 111.298 117.999 110.998C117.499 110.698 116.999 110.298 116.399 110.198C116.099 110.198 115.999 109.498 115.699 109.398C115.599 109.398 115.999 107.898 116.299 107.498C116.299 107.498 116.399 107.298 116.499 107.298C116.999 106.998 117.599 106.498 117.899 106.698C118.399 106.998 118.899 107.198 119.399 107.498L119.199 107.598Z" fill="black"/>
<path d="M107.4 89.9981C107.3 90.1981 107.1 90.4981 107 90.7981C107 90.8981 106.7 90.8981 107.2 91.1981C107.4 91.2981 106.8 91.1981 106.8 91.3981C106.8 91.6981 106.7 91.9981 106.8 92.2981C106.8 92.5981 107.1 92.8981 107.1 93.1981C107.1 93.4981 106.9 93.8981 107.3 94.1981C107.6 94.4981 107.2 94.7981 107.3 95.0981C107.5 95.3981 107.6 95.6981 107.4 95.9981C107.3 96.1981 107.1 96.4981 107.2 96.6981C107.2 96.7981 107.6 96.8981 107.6 96.9981C107.6 97.0981 107.4 97.2981 108 97.2981C108 97.2981 108 97.2981 107.9 97.3981C107.5 97.5981 107.6 97.7981 107.9 97.7981C108.2 97.7981 108.2 97.8981 108.2 97.9981C108.3 98.2981 108.4 98.4981 108.5 98.7981C108.5 98.9981 108.4 99.2981 108.4 99.4981C108.4 99.6981 108.8 99.7981 108.6 100.098C108.4 100.398 108.6 100.598 108.6 100.798C108.6 100.898 108.5 101.198 109.1 100.898C108.5 101.598 109.6 101.298 109.6 101.698C109.6 102.098 109.9 102.298 110.1 102.498C110.1 102.498 110.1 102.798 110.5 102.498C110.6 102.498 110.7 102.498 110.7 102.498C110.4 103.098 110.8 102.998 110.9 103.298C111 103.598 111.4 103.498 111.3 104.098C111.3 104.298 111.3 104.498 111.8 104.098C112 103.898 112 104.198 112.1 104.198C112.1 104.198 112.4 103.998 112.5 103.998C112.5 103.998 112.5 104.298 112.5 104.398C113.1 103.998 113.1 104.998 113.5 104.898C113.9 104.898 114.2 104.998 114.6 105.198C114.8 105.198 115 105.498 115 106.598C115 107.098 115 107.698 114.9 107.998C114.8 108.198 114.7 108.398 114.5 108.498C114.3 108.498 114.1 108.698 113.9 108.698C113.5 108.798 113 109.198 112.6 108.898C112.6 108.798 112.3 108.998 112.3 108.498C111.5 109.098 111.2 108.298 110.7 108.098C110.3 107.898 109.5 108.198 109.3 107.698C108.7 108.098 108.5 107.698 108.4 107.498C108.1 106.398 107.1 106.098 106.6 105.298C106.1 104.498 105.5 103.798 105.1 102.998C105.1 102.898 104.6 102.998 104.8 102.598C105 102.298 104.7 102.198 104.6 102.098C104.6 101.898 104.3 101.798 104.4 101.598C104.7 100.698 104.1 100.198 104 99.5981C103.9 98.8981 103.8 98.2981 103.4 97.6981C103.2 97.2981 102.8 96.9981 102.8 96.5981C102.8 96.3981 102.5 96.2981 103 95.9981C103.2 95.9981 102.7 95.7981 102.6 95.6981C102.6 95.3981 102.5 95.1981 102.5 94.8981C102.5 94.4981 102.5 94.0981 102.4 93.6981C102.4 93.4981 102.1 93.1981 102 92.9981C102 92.6981 102 92.3981 102 92.1981C102 91.7981 102.3 91.4981 102.4 91.0981C102.5 90.6981 102.4 90.2981 102.7 89.9981C103.4 89.3981 103.4 88.6981 103.8 88.0981C104.2 87.4981 104.7 86.9981 105.1 86.3981C105.4 85.9981 106 86.1981 106.3 85.9981C106.5 85.8981 107.3 87.0981 107.5 87.5981V87.7981C107.5 88.2981 107.8 88.9981 107.6 89.0981C107.3 89.1981 107.2 89.4981 107 89.6981L107.4 89.9981Z" fill="black"/>
<path d="M127.8 81.8001C128.1 82.4001 128.3 83.1001 128.4 83.7001C128.4 83.9001 128.3 84.2001 128.8 84.4001C129.1 84.4001 128.5 84.8001 128.5 85.0001C128.6 85.5001 128.5 86.0001 128.6 86.6001C128.6 87.1001 128.9 87.6001 129 88.1001C129 88.6001 128.7 89.1001 129 89.6001C129.2 90.1001 128.7 90.4001 128.8 90.8001C128.8 91.2001 128.8 91.7001 128.6 92.1001C128.4 92.4001 128.1 92.6001 128.1 92.9001C128.1 93.1001 128.4 93.3001 128.3 93.5001C128.3 93.7001 127.9 93.8001 128.5 94.1001C128.5 94.1001 128.5 94.1001 128.3 94.1001C127.8 94.1001 127.8 94.4001 128 94.7001C128.2 94.9001 128.1 95.1001 128 95.2001C128 95.6001 127.8 96.0001 127.6 96.4001C127.4 96.7001 127.1 96.9001 126.9 97.2001C126.7 97.5001 126.9 97.9001 126.4 98.1001C126 98.2001 125.9 98.5001 125.7 98.8001C125.7 99.0001 125.3 99.0001 125.7 99.4001C124.7 99.4001 125.4 100.4 125 100.7C124.5 101 124.4 101.5 124.1 102C124.1 102.1 123.8 102.1 124.1 102.5C124.2 102.6 124.1 102.8 124 102.7C123.3 102.7 123.3 103.2 123 103.4C122.6 103.7 122.5 104.2 121.9 104.2C121.6 104.2 121.4 104.2 121.6 104.9C121.7 105.2 121.4 105.1 121.3 105.3C121.3 105.4 121.3 105.7 121.3 105.8C121.3 105.8 121 105.8 120.8 105.8C120.8 106.8 119.7 106.5 119.2 107.1C118.7 107.7 117.9 108.1 117 108.3C116.5 108.4 115.8 108.3 115.5 107.2C115.3 106.7 115.3 106.1 115.5 105.8C115.5 105.6 115.6 105.3 115.7 105.2C115.8 105.1 115.9 104.9 116 104.8C116.2 104.5 116.2 103.9 116.6 104C116.7 104 116.6 103.7 117 104H117.1C117.1 103.1 117.7 103.2 118 102.8C118.3 102.5 118.2 101.8 118.6 101.6C118.3 101 118.6 100.9 118.9 100.8C119.4 100.8 119.7 100.4 120 100.1C120.2 99.8001 120.4 99.4001 120.7 99.1001C121 98.8001 121.2 98.4001 121.5 98.1001C121.7 97.7001 121.9 97.4001 122.2 97.0001C122.2 96.9001 122 96.6001 122.3 96.6001C122.6 96.6001 122.5 96.3001 122.6 96.1001C122.6 95.9001 122.6 95.7001 122.8 95.7001C123.7 95.4001 123.6 94.6001 123.9 94.0001C124.2 93.4001 124.5 92.7001 124.5 92.1001C124.5 91.7001 124.3 91.2001 124.5 90.8001C124.5 90.6001 124.3 90.4001 124.9 90.3001C125.1 90.3001 124.7 90.0001 124.7 89.9001C124.7 89.6001 124.7 89.3001 124.7 89.1001C124.7 88.7001 124.8 88.3001 124.7 87.9001C124.7 87.7001 124.5 87.4001 124.4 87.2001C124.4 87.0001 124.4 86.7001 124.4 86.5001C124.4 86.2001 124.7 85.9001 124.7 85.6001C124.7 85.3001 124.5 84.9001 124.7 84.7001C125.1 84.1001 124.7 83.7001 124.7 83.3001C124.6 82.9001 124.4 82.5001 124.2 82.5001C124.1 82.5001 124.2 82.0001 124.2 82.0001C124.2 82.0001 124.2 81.6001 124.2 81.2001C124.2 80.8001 124.2 80.3001 124.3 80.0001C124.3 80.0001 124.3 79.8001 124.4 79.8001C124.9 79.4001 125.8 79.0001 126.3 79.4001C127.1 80.1001 127.6 80.8001 127.9 81.5001L127.8 81.8001Z" fill="black"/>
<path d="M116.001 85.0004C115.801 85.1004 115.601 85.2004 115.501 85.4004C115.501 85.4004 115.201 85.3004 115.501 85.8004C115.601 86.0004 115.201 85.6004 115.201 85.6004C115.101 85.8004 114.801 85.8004 114.701 85.9004C114.601 86.1004 114.501 86.3004 114.401 86.5004C114.301 86.7004 113.901 86.5004 113.901 86.9004C113.901 87.2004 113.501 86.9004 113.401 87.0004C113.401 87.2004 113.201 87.3004 112.901 87.2004C112.701 87.2004 112.501 87.0004 112.501 87.2004V87.6004C112.501 87.6004 112.201 87.4004 112.501 88.0004C112.501 88.0004 112.501 88.0004 112.401 87.9004C112.101 87.6004 112.101 87.6004 112.101 87.9004C112.101 88.2004 112.101 88.2004 112.101 88.2004C112.001 88.3004 111.801 88.4004 111.601 88.4004C111.501 88.4004 111.301 88.2004 111.101 88.2004C111.001 88.2004 110.901 88.5004 110.701 88.2004C110.501 88.0004 110.401 88.0004 110.301 88.1004C110.301 88.1004 110.101 87.9004 110.301 88.5004C109.801 87.8004 110.001 88.9004 109.801 88.8004C109.501 88.7004 109.401 88.8004 109.201 89.0004C109.201 89.0004 109.001 88.9004 109.201 89.3004C109.201 89.5004 109.201 89.5004 109.201 89.3004C108.801 88.8004 108.801 89.2004 108.601 89.1004C108.401 89.1004 108.301 89.4004 108.001 89.0004C107.901 88.8004 107.701 88.8004 107.801 89.3004C107.801 89.6004 107.701 89.3004 107.601 89.4004C107.601 89.4004 107.601 89.7004 107.601 89.8004C107.601 89.8004 107.401 89.6004 107.401 89.5004C107.401 90.2004 106.801 89.5004 106.601 89.7004C106.401 89.9004 106.101 89.9004 105.801 89.9004C105.601 89.9004 105.501 89.7004 105.101 88.7004C104.901 88.2004 104.801 87.7004 104.801 87.3004C104.801 87.1004 104.801 86.8004 104.801 86.8004C104.801 86.7004 104.801 86.5004 104.901 86.4004C104.901 86.2004 105.001 85.6004 105.201 85.9004C105.201 85.9004 105.201 85.7004 105.401 86.1004C105.401 85.3004 105.701 85.7004 105.901 85.6004C106.101 85.5004 106.001 84.8004 106.301 85.1004C106.301 84.5004 106.301 84.5004 106.501 84.7004C107.001 85.2004 107.201 84.7004 107.601 84.7004C108.001 84.7004 108.301 84.5004 108.601 84.4004C108.601 84.4004 108.601 84.0004 108.701 84.3004C108.901 84.5004 108.901 84.3004 108.901 84.3004C108.901 84.3004 108.901 84.1004 109.101 84.3004C109.601 84.8004 109.701 84.3004 110.001 84.3004C110.301 84.3004 110.601 84.2004 110.701 83.9004C110.801 83.7004 110.701 83.4004 111.001 83.4004C111.001 83.4004 111.001 83.1004 111.301 83.6004C111.301 83.7004 111.301 83.3004 111.301 83.3004C111.301 83.3004 111.501 83.2004 111.601 83.1004C111.701 83.1004 111.901 83.0004 112.001 82.9004C112.001 82.9004 112.001 82.6004 112.001 82.5004C112.001 82.4004 112.101 82.3004 112.301 82.3004C112.401 82.3004 112.701 82.4004 112.801 82.4004C112.901 82.4004 112.901 82.1004 113.201 82.2004C113.701 82.5004 113.701 82.2004 114.001 82.1004C114.201 82.1004 114.501 81.9004 114.601 81.7004C114.601 81.6004 115.101 81.9004 115.201 81.8004C115.201 81.8004 116.201 82.9004 116.501 83.3004L116.601 83.5004C116.801 84.0004 117.101 84.6004 116.901 84.7004C116.701 84.7004 116.501 85.0004 116.301 85.1004L116.001 85.0004Z" fill="black"/>
<path d="M118.901 84.0992C118.901 84.2992 118.801 84.4992 118.901 84.6992C118.901 84.6992 118.601 84.6992 119.201 84.9992C119.501 84.9992 118.801 84.9992 118.801 85.0992C118.801 85.2992 118.801 85.3992 118.801 85.5992C118.801 85.7992 119.001 85.9992 119.001 86.1992C119.001 86.3992 118.701 86.4992 119.001 86.6992C119.201 86.8992 118.701 86.8992 118.801 87.0992C118.801 87.2992 119.001 87.3992 118.701 87.4992C118.501 87.4992 118.301 87.5992 118.401 87.7992C118.401 87.7992 118.801 87.9992 118.701 88.0992C118.701 88.0992 118.401 88.0992 119.001 88.2992C119.001 88.2992 119.001 88.2992 118.801 88.2992C118.401 88.2992 118.401 88.2992 118.701 88.4992C119.001 88.5992 118.901 88.5992 118.901 88.6992C118.901 88.7992 118.901 88.9992 118.901 89.0992C118.901 89.1992 118.601 89.2992 118.501 89.3992C118.501 89.4992 118.701 89.6992 118.401 89.6992C118.101 89.6992 118.101 89.8992 118.101 89.9992C118.101 89.9992 117.801 89.9992 118.401 90.1992C117.601 90.1992 118.601 90.5992 118.401 90.6992C118.201 90.7992 118.301 91.0992 118.301 91.1992C118.301 91.1992 118.101 91.1992 118.601 91.2992C118.801 91.2992 118.801 91.2992 118.601 91.2992C118.001 91.2992 118.301 91.4992 118.201 91.4992C118.101 91.5992 118.401 91.6992 117.901 91.7992C117.701 91.7992 117.601 91.8992 118.201 91.8992H118.501C118.501 91.8992 118.301 91.8992 118.201 91.8992C118.501 91.8992 118.501 91.8992 118.401 91.8992C118.301 91.8992 118.101 91.9992 118.201 91.9992C118.301 91.9992 118.401 91.9992 118.201 91.9992C118.201 91.9992 118.001 92.1992 117.401 92.9992C117.101 93.3992 116.801 93.7992 116.501 93.9992C116.301 94.1992 116.101 94.2992 116.001 94.2992C115.801 94.2992 115.701 94.2992 115.501 94.2992C115.201 94.2992 114.601 94.2992 114.701 93.9992C114.701 93.8992 114.401 93.9992 114.801 93.6992C113.901 93.6992 114.301 93.1992 114.101 92.8992C114.001 92.5992 113.301 92.4992 113.601 92.1992C113.001 92.1992 113.101 91.8992 113.201 91.7992C113.901 91.2992 113.401 90.8992 113.601 90.3992C113.801 89.9992 113.701 89.6992 113.801 89.2992C113.801 89.2992 113.501 89.0992 113.801 89.0992C114.101 89.0992 113.801 88.9992 113.801 88.8992C113.801 88.8992 113.701 88.6992 113.801 88.6992C114.501 88.4992 114.201 88.1992 114.301 87.8992C114.401 87.5992 114.501 87.3992 114.401 87.0992C114.401 86.8992 114.001 86.6992 114.201 86.4992C114.201 86.4992 113.901 86.2992 114.501 86.2992C114.701 86.2992 114.201 86.1992 114.201 86.0992C114.201 85.9992 114.201 85.8992 114.201 85.7992C114.201 85.5992 114.301 85.4992 114.201 85.2992C114.201 85.1992 114.001 85.0992 113.901 84.8992C113.901 84.7992 113.901 84.6992 113.901 84.5992C113.901 84.4992 114.201 84.3992 114.301 84.2992C114.301 84.1992 114.101 83.9992 114.401 83.8992C114.901 83.7992 114.701 83.4992 114.801 83.1992C114.901 82.9992 115.001 82.6992 114.901 82.4992C114.901 82.3992 115.401 82.2992 115.401 82.1992C115.401 82.1992 116.901 82.3992 117.401 82.4992H117.601C118.001 82.6992 118.701 82.9992 118.601 83.0992C118.501 83.2992 118.601 83.4992 118.501 83.6992L118.901 84.0992Z" fill="black"/>
</svg>
