<svg width="300" height="300" viewBox="0 0 300 300" fill="none" xmlns="http://www.w3.org/2000/svg">
<path d="M200.701 172.301C200.301 171.901 200.001 171.501 199.601 171.101C199.401 171.001 199.601 170.601 199.001 170.901C198.701 171.001 199.001 170.401 199.001 170.301C198.601 170.001 198.301 169.601 197.901 169.201C197.501 168.901 197.001 168.701 196.701 168.401C196.301 168.101 196.201 167.501 195.701 167.401C195.201 167.301 195.301 166.701 195.001 166.501C194.601 166.301 194.301 166.001 194.201 165.601C194.201 165.301 194.101 164.901 193.801 164.801C193.601 164.801 193.301 164.801 193.201 164.701C193.101 164.601 193.201 164.201 192.601 164.501C192.601 164.501 192.601 164.401 192.601 164.301C192.801 163.901 192.601 163.701 192.301 163.801C192.001 163.801 191.901 163.801 191.801 163.601C191.501 163.301 191.201 163.001 191.001 162.701C190.801 162.401 190.801 162.101 190.601 161.801C190.401 161.501 190.001 161.501 190.001 161.001C190.001 160.601 189.801 160.401 189.601 160.201C189.501 160.101 189.601 159.701 189.001 160.101C189.301 159.201 188.201 159.601 188.001 159.101C187.801 158.601 187.401 158.301 187.001 158.001C187.001 158.001 187.001 157.701 186.501 158.001C186.401 158.001 186.201 158.001 186.301 157.901C186.501 157.201 186.001 157.201 185.801 156.801C185.601 156.401 185.101 156.301 185.101 155.601C185.101 155.301 185.101 155.101 184.501 155.301C184.201 155.401 184.301 155.101 184.101 155.001C184.001 155.001 183.701 155.001 183.601 155.001C183.601 155.001 183.601 154.701 183.601 154.501C182.701 154.501 182.901 153.401 182.301 153.101C181.701 152.801 181.301 152.201 181.001 151.701C180.801 151.401 180.701 151.001 181.401 150.101C181.701 149.701 182.101 149.301 182.401 149.201C182.701 149.201 182.901 149.101 183.001 149.201C183.201 149.201 183.401 149.301 183.601 149.401C184.001 149.601 184.701 149.401 184.801 150.001C184.801 150.201 185.201 150.001 184.801 150.501V150.601C185.801 150.501 185.801 151.301 186.201 151.601C186.601 151.901 187.401 151.801 187.501 152.401C188.101 152.201 188.301 152.401 188.301 152.801C188.501 154.001 189.501 154.401 190.101 155.101C190.701 155.901 191.401 156.501 192.101 157.301C192.201 157.401 192.601 157.301 192.501 157.601C192.501 157.901 192.701 157.901 192.901 158.101C193.001 158.201 193.301 158.301 193.301 158.501C193.301 159.501 194.201 159.801 194.601 160.401C195.101 161.001 195.601 161.601 196.201 162.101C196.601 162.401 197.201 162.501 197.401 162.901C197.401 163.101 197.901 163.001 197.601 163.601C197.601 163.801 198.001 163.601 198.101 163.601C198.401 163.801 198.601 164.101 198.801 164.301C199.101 164.601 199.401 165.001 199.701 165.301C199.901 165.501 200.301 165.501 200.501 165.701C200.701 165.901 200.901 166.101 201.101 166.301C201.301 166.601 201.401 167.001 201.601 167.301C201.801 167.601 202.301 167.701 202.301 168.201C202.301 169.001 203.001 169.301 203.401 169.901C203.801 170.401 204.201 170.901 204.801 171.301C205.101 171.501 205.001 172.101 205.201 172.401C205.301 172.501 204.401 173.701 204.001 174.001L203.801 174.101C203.201 174.101 202.501 174.401 202.201 174.101C201.801 173.601 201.401 173.201 201.001 172.801L200.701 172.301Z" fill="black"/>
<path d="M132.9 154.502C132.7 154.802 132.6 155.102 132.5 155.402C132.5 155.502 132.2 155.502 132.6 155.902C132.8 156.102 132.2 155.902 132.2 156.002C132.2 156.302 132 156.602 131.9 156.902C131.9 157.202 131.9 157.602 131.9 157.902C131.9 158.202 131.5 158.502 131.8 158.802C132 159.102 131.5 159.202 131.6 159.502C131.6 159.802 131.7 160.102 131.5 160.302C131.3 160.502 131.1 160.602 131.2 160.802C131.2 160.902 131.6 161.102 131.5 161.202C131.5 161.302 131.2 161.402 131.8 161.602C131.8 161.602 131.8 161.602 131.6 161.602C131.2 161.602 131.2 161.902 131.5 162.002C131.8 162.102 131.7 162.202 131.7 162.302C131.7 162.602 131.7 162.902 131.7 163.102C131.7 163.302 131.4 163.502 131.3 163.702C131.3 163.902 131.5 164.202 131.3 164.402C131 164.602 131 164.802 131 165.002C131 165.102 130.7 165.202 131.4 165.402C130.6 165.702 131.7 166.102 131.4 166.402C131.2 166.702 131.4 167.102 131.4 167.402C131.4 167.402 131.2 167.602 131.7 167.702C131.9 167.702 131.9 167.802 131.7 167.902C131.1 168.202 131.5 168.402 131.4 168.702C131.3 169.002 131.6 169.302 131.1 169.602C130.9 169.702 130.8 169.902 131.4 170.102C131.7 170.102 131.4 170.302 131.4 170.402C131.4 170.402 131.7 170.602 131.7 170.702C131.7 170.702 131.5 170.902 131.4 170.902C132.1 171.302 131.2 171.802 131.4 172.202C131.6 172.602 131.5 173.102 131.4 173.502C131.4 173.702 131.2 174.002 130 174.202C129.5 174.302 128.9 174.302 128.6 174.202C128.4 174.202 128.1 174.102 128.1 174.002C128.1 173.902 127.9 173.702 127.8 173.602C127.6 173.302 127.1 173.002 127.3 172.702C127.3 172.702 127.1 172.502 127.6 172.402C126.8 172.002 127.3 171.602 127.3 171.202C127.3 170.902 126.6 170.502 126.9 170.202C126.3 170.002 126.4 169.802 126.6 169.602C127.3 168.902 126.8 168.202 126.9 167.502C126.9 166.802 126.9 166.102 126.9 165.402C126.9 165.302 126.5 165.202 126.9 165.002C127.2 164.902 126.9 164.702 126.9 164.502C126.9 164.402 126.8 164.202 126.9 164.102C127.6 163.602 127.2 163.002 127.3 162.402C127.3 161.802 127.5 161.302 127.3 160.702C127.3 160.302 126.9 160.002 127.1 159.602C127.1 159.502 126.9 159.202 127.5 159.202C127.7 159.202 127.2 159.002 127.2 158.902C127.2 158.602 127.2 158.402 127.3 158.202C127.3 157.902 127.5 157.502 127.5 157.202C127.5 157.002 127.3 156.702 127.3 156.502C127.3 156.302 127.3 156.002 127.5 155.802C127.7 155.502 127.9 155.302 128.1 155.102C128.3 154.802 128.1 154.402 128.5 154.302C129.2 154.002 129.2 153.402 129.5 152.902C129.8 152.502 130.1 152.002 130.4 151.502C130.5 151.202 131.1 151.302 131.3 151.102C131.3 151.002 132.6 151.802 133 152.202L133.1 152.402C133.3 152.902 133.8 153.502 133.6 153.602C133.3 153.902 133.2 154.202 133 154.502H132.9Z" fill="black"/>
<path d="M133.399 196.6C133.399 197 133.399 197.4 133.599 197.8C133.599 197.9 133.399 198.1 133.999 198.2C134.299 198.2 133.699 198.5 133.699 198.6C133.799 199 133.699 199.3 133.899 199.7C133.999 200.1 134.299 200.4 134.399 200.7C134.499 201 134.299 201.5 134.699 201.8C134.999 202.1 134.599 202.4 134.699 202.7C134.899 203 134.999 203.3 134.799 203.6C134.699 203.8 134.499 204.1 134.599 204.3C134.599 204.4 134.999 204.5 134.999 204.6C134.999 204.7 134.799 204.9 135.399 204.9C135.399 204.9 135.399 204.9 135.299 205C134.899 205.2 134.999 205.4 135.299 205.5C135.599 205.5 135.599 205.7 135.599 205.8C135.599 206.1 135.799 206.4 135.799 206.7C135.799 206.9 135.599 207.2 135.599 207.4C135.599 207.6 135.899 207.9 135.599 208.1C135.299 208.4 135.399 208.6 135.399 208.8C135.399 208.9 135.199 209.1 135.799 209.1C134.999 209.6 136.199 209.7 135.999 210.1C135.899 210.5 135.999 210.9 136.199 211.2C136.199 211.2 136.099 211.4 136.499 211.4C136.699 211.4 136.699 211.5 136.499 211.6C135.899 212 136.399 212.2 136.299 212.5C136.299 212.8 136.599 213.1 136.199 213.5C135.999 213.7 135.899 213.9 136.599 213.9C136.899 213.9 136.599 214.1 136.699 214.2C136.699 214.2 137.099 214.3 137.099 214.4C137.099 214.4 136.899 214.6 136.799 214.7C137.499 215 136.799 215.7 136.999 216.1C137.299 216.5 137.299 217 137.299 217.5C137.299 217.8 137.199 218.1 136.099 218.5C135.599 218.7 135.099 218.8 134.699 218.7C134.399 218.7 134.199 218.7 134.099 218.5C133.999 218.4 133.799 218.2 133.699 218.1C133.499 217.8 132.899 217.6 133.099 217.3C133.099 217.2 132.799 217.1 133.299 216.9C132.399 216.6 132.899 216.1 132.699 215.7C132.599 215.3 131.899 215.1 132.099 214.7C131.399 214.7 131.499 214.4 131.699 214.1C132.199 213.3 131.699 212.6 131.599 211.9C131.599 211.2 131.299 210.4 131.199 209.7C131.199 209.6 130.799 209.5 131.099 209.3C131.299 209.1 131.099 209 131.099 208.8C131.099 208.7 130.899 208.5 131.099 208.4C131.599 207.7 131.099 207.2 131.099 206.6C131.099 206 131.099 205.4 130.799 204.9C130.599 204.6 130.199 204.3 130.299 203.9C130.299 203.7 129.999 203.6 130.499 203.4C130.699 203.4 130.199 203.3 130.199 203.2C130.199 203 130.199 202.7 130.099 202.5C130.099 202.2 130.099 201.8 129.899 201.5C129.899 201.3 129.599 201.1 129.499 200.9C129.499 200.7 129.399 200.5 129.399 200.3C129.399 200 129.599 199.7 129.599 199.4C129.599 199.1 129.299 198.9 129.599 198.5C129.999 197.9 129.599 197.5 129.599 196.9C129.599 196.4 129.599 195.9 129.299 195.4C129.199 195.1 129.599 194.8 129.599 194.5C129.599 194.4 130.999 194 131.499 194H131.699C132.199 194.2 132.999 194.3 132.999 194.7C132.999 195.2 133.099 195.6 133.199 196.1L133.399 196.6Z" fill="black"/>
<path d="M182.601 178.602C183.001 178.402 183.301 178.302 183.701 178.002C183.801 178.002 184.101 178.002 184.001 177.502C184.001 177.202 184.401 177.702 184.501 177.602C184.801 177.402 185.201 177.302 185.501 177.102C185.801 176.902 186.001 176.502 186.301 176.302C186.601 176.102 187.101 176.302 187.301 175.802C187.501 175.402 187.901 175.802 188.101 175.502C188.301 175.302 188.601 175.102 189.001 175.202C189.301 175.202 189.601 175.402 189.701 175.202C189.701 175.102 189.701 174.702 189.901 174.702C190.001 174.702 190.301 174.902 190.201 174.202C190.201 174.202 190.201 174.202 190.401 174.202C190.701 174.502 190.901 174.402 190.901 174.202C190.901 173.902 191.001 173.902 191.101 173.802C191.401 173.702 191.701 173.502 192.001 173.502C192.201 173.502 192.501 173.502 192.801 173.502C193.001 173.502 193.201 173.102 193.501 173.302C193.801 173.502 194.001 173.402 194.201 173.302C194.301 173.302 194.601 173.502 194.401 172.802C195.001 173.502 195.001 172.302 195.401 172.402C195.801 172.402 196.101 172.202 196.501 172.102C196.501 172.102 196.801 172.202 196.701 171.702C196.701 171.502 196.701 171.502 196.901 171.602C197.401 172.102 197.501 171.602 197.801 171.602C198.101 171.602 198.401 171.202 198.801 171.602C199.001 171.802 199.201 171.802 199.201 171.202C199.201 170.902 199.401 171.202 199.501 171.002C199.501 171.002 199.501 170.602 199.701 170.602C199.701 170.602 199.901 170.802 200.001 170.902C200.301 170.102 201.001 170.902 201.401 170.502C201.801 170.202 202.301 170.102 202.801 170.102C203.101 170.102 203.401 170.102 203.901 171.202C204.101 171.702 204.301 172.202 204.201 172.602C204.201 172.902 204.201 173.102 204.101 173.202C204.001 173.302 203.901 173.502 203.801 173.602C203.601 173.902 203.401 174.502 203.101 174.302C203.001 174.302 203.001 174.602 202.701 174.102C202.501 175.002 202.001 174.602 201.601 174.802C201.301 175.002 201.101 175.702 200.701 175.502C200.701 176.202 200.501 176.102 200.201 176.002C199.301 175.602 198.801 176.202 198.101 176.402C197.401 176.502 196.801 176.902 196.101 177.102C196.001 177.102 196.101 177.502 195.801 177.302C195.601 177.102 195.501 177.302 195.301 177.402C195.201 177.402 195.101 177.602 194.901 177.502C194.101 177.102 193.801 177.702 193.201 177.802C192.701 177.902 192.101 178.102 191.701 178.502C191.401 178.702 191.301 179.202 190.901 179.202C190.701 179.202 190.701 179.602 190.401 179.102C190.301 179.002 190.401 179.402 190.301 179.502C190.101 179.602 189.901 179.702 189.701 179.802C189.401 179.902 189.101 180.002 188.801 180.202C188.601 180.302 188.601 180.602 188.401 180.802C188.201 180.902 188.101 181.002 187.801 181.102C187.501 181.102 187.201 181.102 186.901 181.102C186.601 181.102 186.501 181.502 186.101 181.402C185.401 181.202 185.101 181.602 184.701 181.802C184.201 182.002 183.801 182.102 183.401 182.502C183.201 182.702 182.701 182.402 182.501 182.502C182.401 182.502 181.601 181.302 181.401 180.902V180.702C181.401 180.202 181.301 179.402 181.601 179.302C182.001 179.202 182.401 178.902 182.801 178.702L182.601 178.602Z" fill="black"/>
<path d="M163.199 172.402C163.199 172.202 163.199 172.002 163.199 171.902C163.199 171.902 163.399 171.802 162.899 171.702C162.599 171.702 163.299 171.602 163.199 171.502C163.199 171.302 163.199 171.202 163.199 171.002C163.199 170.802 162.899 170.702 162.899 170.502C162.899 170.302 163.199 170.202 162.899 170.002C162.599 169.802 163.099 169.802 162.999 169.602C162.899 169.502 162.799 169.302 162.999 169.202C163.199 169.202 163.399 169.002 163.299 168.902C163.299 168.902 162.899 168.702 162.999 168.702C162.999 168.702 163.299 168.702 162.699 168.502C162.699 168.502 162.699 168.502 162.899 168.502C163.299 168.502 163.299 168.502 162.999 168.302C162.699 168.302 162.799 168.202 162.799 168.102C162.799 168.002 162.799 167.802 162.799 167.702C162.799 167.702 163.099 167.502 163.199 167.502C163.199 167.502 162.999 167.202 163.299 167.202C163.599 167.202 163.599 167.102 163.599 167.002C163.599 167.002 163.899 167.002 163.299 166.802C164.099 166.802 163.099 166.402 163.299 166.302C163.499 166.202 163.399 166.002 163.499 165.802C163.499 165.802 163.699 165.802 163.299 165.602C163.099 165.502 163.099 165.602 163.299 165.602C163.899 165.602 163.599 165.402 163.699 165.302C163.899 165.202 163.699 165.002 164.099 165.002C164.299 165.002 164.399 165.002 163.899 164.702C163.699 164.602 163.899 164.702 163.899 164.502L163.599 164.302C163.599 164.302 163.799 164.302 163.999 164.302C163.399 163.902 164.399 164.002 164.299 163.702C164.299 163.402 164.299 163.302 164.499 163.102C164.499 163.102 164.799 163.002 165.899 163.302C166.399 163.502 166.899 163.702 167.199 163.902C167.399 164.002 167.599 164.102 167.599 164.202C167.599 164.202 167.799 164.402 167.799 164.502C167.899 164.702 168.399 165.002 168.099 165.002C168.099 165.002 168.299 165.202 167.799 165.002C168.499 165.402 167.899 165.402 167.899 165.602C167.899 165.702 168.499 166.102 168.199 166.102C168.799 166.402 168.599 166.402 168.399 166.402C167.699 166.402 167.999 166.802 167.899 167.102C167.699 167.302 167.799 167.602 167.699 167.902C167.699 167.902 167.999 168.102 167.699 168.102C167.399 168.102 167.699 168.202 167.699 168.302C167.699 168.302 167.799 168.402 167.699 168.502C166.999 168.502 167.399 168.902 167.299 169.102C167.299 169.302 167.099 169.502 167.299 169.702C167.299 169.802 167.699 170.002 167.599 170.102C167.599 170.102 167.899 170.202 167.299 170.202C167.099 170.202 167.599 170.202 167.599 170.302C167.599 170.302 167.599 170.502 167.599 170.602C167.599 170.702 167.599 170.802 167.599 171.002L167.899 171.202V171.402C167.899 171.402 167.599 171.602 167.499 171.702C167.499 171.802 167.699 171.902 167.499 172.002C166.999 172.202 167.199 172.402 167.199 172.602C167.199 172.802 167.199 173.002 167.199 173.102C167.199 173.102 166.799 173.302 166.799 173.402C166.799 173.402 165.299 173.602 164.799 173.702H164.599C164.099 173.702 163.399 173.602 163.399 173.402C163.399 173.202 163.399 173.002 163.399 172.802L163.199 172.402Z" fill="black"/>
<path d="M173.699 173.199C173.699 172.999 173.699 172.799 173.699 172.699C173.699 172.699 173.899 172.599 173.399 172.499C173.099 172.499 173.799 172.399 173.699 172.299C173.699 172.099 173.699 171.999 173.699 171.799C173.699 171.599 173.399 171.499 173.399 171.299C173.399 171.099 173.699 170.999 173.399 170.799C173.099 170.599 173.599 170.599 173.499 170.399C173.399 170.299 173.299 170.099 173.499 169.999C173.699 169.999 173.899 169.799 173.799 169.699C173.799 169.699 173.399 169.499 173.499 169.499C173.499 169.499 173.799 169.499 173.199 169.299C173.199 169.299 173.199 169.299 173.399 169.299C173.799 169.299 173.799 169.299 173.499 169.099C173.199 169.099 173.299 168.999 173.299 168.899C173.299 168.799 173.299 168.599 173.299 168.499C173.299 168.499 173.599 168.299 173.699 168.299C173.699 168.299 173.499 167.999 173.799 167.999C174.099 167.999 174.099 167.899 174.099 167.799C174.099 167.799 174.399 167.799 173.799 167.599C174.599 167.599 173.599 167.199 173.799 167.099C173.999 166.999 173.899 166.799 173.999 166.599C173.999 166.599 174.199 166.599 173.799 166.399C173.599 166.299 173.599 166.399 173.799 166.399C174.399 166.399 174.099 166.199 174.199 166.099C174.399 165.999 174.199 165.799 174.599 165.799C174.799 165.799 174.899 165.799 174.399 165.499C174.199 165.399 174.399 165.499 174.399 165.299L174.099 165.099C174.099 165.099 174.299 165.099 174.499 165.099C173.899 164.699 174.899 164.799 174.799 164.499C174.799 164.199 174.799 164.099 174.999 163.899C174.999 163.899 175.299 163.799 176.399 164.099C176.899 164.299 177.399 164.499 177.699 164.699C177.899 164.799 178.099 164.899 178.099 164.999C178.099 164.999 178.299 165.199 178.299 165.299C178.399 165.499 178.899 165.799 178.599 165.799C178.599 165.799 178.799 165.999 178.299 165.799C178.999 166.199 178.399 166.199 178.399 166.399C178.399 166.499 178.999 166.899 178.699 166.899C179.299 167.199 179.099 167.199 178.899 167.199C178.199 167.199 178.499 167.599 178.399 167.899C178.199 168.099 178.299 168.399 178.199 168.699C178.199 168.699 178.499 168.899 178.199 168.899C177.899 168.899 178.199 168.999 178.199 169.099C178.199 169.099 178.299 169.199 178.199 169.299C177.499 169.299 177.899 169.699 177.799 169.899C177.799 170.099 177.599 170.299 177.799 170.499C177.799 170.599 178.199 170.799 178.099 170.899C178.099 170.899 178.399 170.999 177.799 170.999C177.599 170.999 178.099 170.999 178.099 171.099C178.099 171.099 178.099 171.299 178.099 171.399C178.099 171.499 178.099 171.599 178.099 171.799L178.399 171.999V172.199C178.399 172.199 178.099 172.399 177.999 172.499C177.999 172.599 178.199 172.699 177.999 172.799C177.499 172.999 177.699 173.199 177.699 173.399C177.699 173.599 177.699 173.799 177.699 173.899C177.699 173.899 177.299 174.099 177.299 174.199C177.299 174.199 175.799 174.399 175.299 174.499H175.099C174.599 174.499 173.899 174.399 173.899 174.199C173.899 173.999 173.899 173.799 173.899 173.599L173.699 173.199Z" fill="black"/>
<path d="M188.1 183.302C189 184.302 189.8 185.302 190.6 186.202C190.9 186.602 191 187.102 191.8 187.102C192.2 187.102 192 187.902 192.3 188.202C193.1 189.102 193.8 190.102 194.6 191.002C195 191.502 195.4 191.802 195.8 192.302C196.4 193.002 197 193.702 197.7 194.602C198.7 195.802 199.4 197.002 200.3 198.302C199.8 198.502 199.3 198.602 198.9 198.802C198.2 199.102 197.3 199.302 196.5 199.502C195.6 199.602 194.8 199.802 194.1 200.002C193.9 200.002 193.7 200.102 193.5 200.202H193C192.8 200.402 192.5 200.502 192.2 200.502C191.7 200.602 191.2 200.602 190.7 200.502C190 200.502 189.2 200.302 188.5 200.502C188.1 200.602 187.7 201.002 187.2 201.002C186.7 201.002 186.2 200.802 185.8 201.402C185.8 201.402 185.6 201.402 185.5 201.302C185 200.902 184.4 201.002 184 201.302C183.6 201.602 183.2 201.502 182.9 201.502C181.9 201.502 180.8 201.502 179.8 201.302C179 201.202 178.3 200.902 177.5 200.702C176.7 200.602 175.8 200.702 175.1 200.302C174.4 199.902 173.7 199.702 173 199.602C172.6 199.602 172.2 199.102 171.7 199.602C171.7 199.602 171.5 199.602 171.4 199.602C170.5 198.502 169.1 199.202 168 198.602C166.9 198.002 165.6 197.702 164.5 197.202C164.2 197.102 163.9 196.702 163.5 197.002C163.3 197.002 163 197.002 162.9 196.702C162.4 195.702 161.3 195.502 160.5 194.902C159.6 194.202 158.6 193.702 158 192.602C157.8 192.102 157.4 191.602 156.6 191.602C156.2 191.602 156 191.002 155.7 190.702C155.4 190.502 155 190.402 154.8 190.102C154.6 189.902 154.6 189.502 154.5 189.202C154.5 189.202 154.5 189.002 154.3 189.002C153.6 188.502 153.1 187.702 152.9 186.902L152.5 185.702C152.4 185.302 152.3 184.902 152.1 184.502C151.3 183.002 151 181.202 150.9 179.502C150.9 178.602 151 177.602 152.1 177.002C152.6 176.702 153.2 176.702 153.5 177.002C153.8 177.302 154 177.502 154.1 177.802C154.2 178.302 154.3 178.702 154.5 179.102C154.7 179.502 154.9 180.002 155.1 180.402C155.3 180.802 155.5 181.202 155.5 181.702C155.5 182.002 155.8 182.202 155.5 182.602V182.802C156.1 183.202 156.3 183.802 156.6 184.302C156.7 184.602 156.8 184.902 156.9 185.202C157 185.502 157.2 185.802 157.4 186.002C157.7 186.402 158.1 186.802 158.5 187.102C158.9 187.402 159.3 187.702 159.6 188.202C160.4 188.202 160.8 188.702 161.1 189.202C162.2 191.102 164.3 191.902 166.2 192.902C168.1 193.902 170.2 194.602 172.4 195.202C172.8 195.202 173.2 195.002 173.5 195.402C173.8 195.802 174.4 195.702 174.9 195.802C175.3 195.802 175.8 195.802 176.2 196.102C177.8 197.102 179.7 196.902 181.4 197.002C183.1 197.202 184.9 197.202 186.7 197.002C187.8 196.802 188.8 196.402 189.8 196.402C190.3 196.402 190.7 196.002 191.2 196.402C191.4 196.502 191.7 196.002 192 195.902H192.4C192.4 195.802 192.6 195.802 192.6 195.802C192.7 195.802 192.9 195.802 193 195.802C193 195.802 193 195.702 192.8 195.602C192.7 195.502 192.3 195.402 192.2 195.402C192.2 195.402 192.1 195.402 192 195.202L191.8 195.002L191.5 194.602C191 193.902 190.7 193.102 190.2 192.402C189.7 191.702 188.9 191.102 188.6 190.302C188 188.802 186.8 187.702 185.8 186.502C184.8 185.302 183.8 184.102 182.7 183.002C182.1 182.402 181.9 181.502 181.3 180.802C181 180.502 181.7 179.102 182.2 178.902C182.2 178.902 182.4 178.902 182.5 178.902C183.4 179.202 184.5 179.302 185.1 180.002C186 181.102 187.1 182.202 188 183.302H188.1Z" fill="black"/>
<path d="M176.5 218.302L177 217.302C177 217.102 177.1 217.002 177.2 216.802C177.2 216.802 177.6 216.302 176.9 216.802C176.5 217.002 177.5 216.302 177.5 216.202V216.102H177.3C177.1 216.202 177 216.302 176.8 216.302C176.6 216.302 176.5 216.502 176.3 216.602H176.1C175.8 216.602 175.5 216.702 175.2 216.702C174 216.802 172.9 216.502 171.8 216.702C170.8 216.902 170.1 216.202 169.2 216.102C168.2 216.102 167.3 215.802 166.5 215.202C165.9 214.802 165.4 214.302 164.8 214.202C164.4 214.102 163.9 214.202 163.5 214.002C163.1 213.802 162.9 213.302 162.2 213.702C162.2 213.702 162 213.502 162 213.402C161.8 212.802 161.4 212.502 160.9 212.602C160.4 212.602 160.2 212.402 159.9 212.202C159.1 211.702 158.4 211.102 157.7 210.502C157.2 210.002 156.8 209.402 156.4 208.802C155.9 208.302 155.2 207.902 155 207.202C154.8 206.502 154.3 206.102 153.9 205.602C153.7 205.302 153.6 204.802 152.9 205.002C152.9 205.002 152.8 205.002 152.8 204.802C152.8 203.502 151.3 203.302 150.8 202.202C150.4 201.102 149.6 200.102 149.2 199.002C149.1 198.702 149.2 198.302 148.6 198.202C148.4 198.202 148.3 197.802 148.4 197.602C148.6 197.102 148.5 196.602 148.4 196.202C148.3 195.802 148.1 195.302 148.1 194.902C148.1 194.402 148 193.902 148 193.402C148 192.902 148 192.402 148.2 191.902C148.4 191.502 148.5 190.902 148 190.402C147.7 190.202 148 189.702 148 189.302C148 189.002 147.7 188.702 147.8 188.402C147.8 188.102 148.1 187.902 148.2 187.702V187.502C147.8 186.002 148.9 184.802 149.1 183.402C149.3 182.002 149.7 180.702 150.3 179.402C150.6 178.702 151 178.002 152.2 177.902C152.8 177.902 153.3 178.002 153.5 178.402C153.7 178.702 153.8 179.002 153.8 179.302C153.8 179.702 153.8 180.202 153.8 180.602C153.8 181.502 154 182.402 153.5 183.202C153.3 183.402 153.5 183.802 153 183.902C153 183.902 152.9 184.002 152.9 184.102C153.4 185.402 152.6 186.402 152.5 187.602C152.4 188.602 152.9 189.602 152.5 190.502C153.1 191.102 153 191.602 152.8 192.102C152.1 193.902 152.8 195.702 153.4 197.302C153.9 199.002 155 200.502 156.2 202.002C156.4 202.302 156.9 202.302 156.9 202.702C156.9 203.202 157.4 203.402 157.7 203.702C158 204.002 158.3 204.202 158.5 204.602C159.1 206.202 160.5 207.002 161.7 208.002C162.8 209.002 164.1 209.902 165.5 210.502C166.4 210.802 167.3 210.902 168.1 211.302C168.4 211.502 168.9 211.302 169.1 212.002C169.1 212.202 169.6 211.902 169.9 212.002C170.5 212.102 171.1 212.302 171.7 212.402C172.5 212.502 173.4 212.702 174.2 212.602C174.7 212.602 175.2 212.302 175.7 212.202C175.8 212.202 176 212.202 176.1 212.202H176.2H176.3L176.7 212.102L177.6 211.902C177.9 211.902 178.2 211.902 178.5 211.702C179.3 211.502 180.1 211.302 180.9 211.002C181.7 210.802 182.4 210.602 183.2 210.302C183.5 210.202 183.9 210.102 184.2 209.902V210.402V210.702V211.102C183.9 211.602 183.8 212.202 183.5 212.802C182.8 214.202 182.4 215.202 182.1 216.302C181.7 217.302 181.3 218.502 180.8 219.502C180.1 220.802 179.4 222.102 178.7 223.402C178.3 224.102 177.5 224.502 177 225.102C176.8 225.402 175.3 224.902 175 224.502C175 224.502 174.9 224.302 174.9 224.202C174.9 223.302 174.7 222.402 175.2 221.702C175.9 220.702 176.5 219.602 177 218.602L176.5 218.302Z" fill="black"/>
<path d="M131.2 193.998C130.2 194.098 129.3 194.198 128.3 194.398C127.9 194.398 127.5 194.198 127.2 194.798C127 195.098 126.6 194.498 126.3 194.498C125.4 194.598 124.4 194.498 123.5 194.498C122.6 194.498 121.6 194.598 120.7 194.498C119.7 194.498 118.9 193.898 117.9 193.898C117 193.898 116.5 193.198 115.8 192.998C115 192.798 114.2 192.398 113.6 191.798C113.2 191.298 112.9 190.798 112.3 190.498C112 190.298 111.5 190.298 111.2 189.998C110.9 189.698 110.8 189.198 110.1 189.298C110.1 189.298 110.1 189.098 110.1 188.998C110.1 188.398 109.9 187.898 109.4 187.698C109 187.398 108.9 187.098 108.7 186.698C108.3 185.598 108.3 184.298 108.7 183.098C109 182.198 109.6 181.598 110.1 180.998C110.6 180.398 111 179.598 111.7 179.398C112.4 179.198 112.9 178.898 113.4 178.498C113.7 178.298 114.2 178.398 114.1 177.698C114.1 177.698 114.2 177.598 114.3 177.698C115.5 178.098 115.9 176.698 116.8 176.598C117.8 176.498 118.7 176.098 119.6 175.798C119.9 175.798 120.2 175.798 120.3 175.398C120.3 175.198 120.6 175.198 120.8 175.298C121.6 175.798 122.3 175.298 123 175.298C123.8 175.298 124.6 174.998 125.5 175.498C125.9 175.698 126.3 175.798 126.7 175.198C126.9 174.898 127.3 175.198 127.6 175.198C127.8 175.198 128.1 174.898 128.3 174.898C128.5 174.898 128.7 175.198 128.9 175.298C128.9 175.298 129 175.298 129.1 175.298C130.3 174.698 131.4 175.698 132.6 175.698C133.8 175.698 135 175.998 136.1 176.298C136.7 176.498 137.3 176.798 137.5 177.998C137.5 178.498 137.5 179.098 137.1 179.298C136.9 179.498 136.6 179.698 136.4 179.698C136 179.698 135.7 179.698 135.3 179.698C134.6 179.698 133.8 180.098 133.1 179.698C132.9 179.598 132.6 179.798 132.5 179.298C132.5 179.298 132.4 179.198 132.4 179.298C131.3 179.898 130.4 179.298 129.4 179.298C128.6 179.298 127.7 179.898 126.9 179.598C126.4 180.198 125.9 180.098 125.5 179.898C123.9 179.298 122.3 179.898 120.8 180.098C119.2 180.298 117.8 180.898 116.4 181.498C116.2 181.598 116.2 181.998 115.8 181.898C115.4 181.898 115.3 182.198 115 182.298C114.8 182.498 114.7 182.698 114.4 182.798C113.8 182.798 113.4 183.198 113.2 183.598C113 183.998 113 184.298 113 184.698C113 185.398 113.3 186.398 114.2 186.998C114.7 187.398 115.5 187.598 116 188.098C116.2 188.298 116.7 188.098 116.6 188.798C116.6 188.998 117.1 188.798 117.2 188.798C117.7 188.998 118.1 189.198 118.5 189.398C119.1 189.598 119.8 189.898 120.5 189.998C120.9 189.998 121.4 189.898 121.8 189.898C122.2 189.898 122.7 189.898 123.1 189.998C123.7 190.098 124.2 190.298 124.8 190.398C125.4 190.398 126 190.198 126.6 190.398C127.7 190.798 128.8 190.398 130 190.398C131.1 190.298 132.3 190.098 133.4 189.798C134.1 189.598 134.7 189.998 134.9 189.798C134.9 189.798 135.2 190.098 135.5 190.298C135.8 190.598 136.3 190.798 136.4 190.998C136.4 190.998 136.4 191.198 136.4 191.298C136 192.298 135.1 193.198 134.4 193.298C133.3 193.398 132.3 193.698 131.2 193.798V193.998Z" fill="black"/>
<path d="M145.7 152.4C145.7 152.9 145.8 153.5 145.9 154C145.9 154.2 145.7 154.4 146.3 154.6C146.6 154.6 145.9 154.9 146 155.1C146.1 155.6 146 156.1 146 156.6C146 157.1 146.3 157.5 146.3 158C146.3 158.5 146 158.9 146.3 159.4C146.6 159.8 146 160.1 146.1 160.5C146.1 160.9 146.2 161.3 146 161.6C145.8 161.9 145.6 162.1 145.7 162.4C145.7 162.6 146.1 162.8 146 162.9C146 163.1 145.7 163.2 146.3 163.4C146.3 163.4 146.3 163.4 146.1 163.5C145.7 163.6 145.7 163.9 145.9 164.1C146.2 164.3 146.1 164.4 146.1 164.6C146.1 165 146.1 165.4 146 165.8C146 166.1 145.6 166.4 145.5 166.7C145.4 167 145.6 167.4 145.2 167.6C144.8 167.8 144.8 168.1 144.7 168.4C144.7 168.6 144.3 168.7 144.9 169C144.9 169 144.9 169 144.9 169.1C144 169.3 144.9 170.1 144.5 170.5C144.1 170.9 144 171.5 143.8 172C143.8 172.1 143.5 172.2 143.8 172.5C143.9 172.6 143.8 172.8 143.8 172.8C143.1 172.8 143.2 173.4 142.9 173.6C142.6 173.9 142.5 174.4 141.9 174.5C141.6 174.5 141.4 174.6 141.7 175.2C141.8 175.5 141.5 175.4 141.4 175.6C141.4 175.7 141.4 176 141.4 176.1C141.4 176.1 141.1 176.1 140.9 176.1C140.9 177 139.9 176.8 139.6 177.4C139.3 178 138.8 178.3 138.3 178.7C138 178.9 137.7 179 136.7 178.3C136.3 178 135.9 177.6 135.8 177.2C135.8 177 135.6 176.7 135.7 176.6C135.7 176.4 135.8 176.2 135.9 176C136 175.6 135.9 175 136.4 174.9C136.5 174.9 136.4 174.6 136.9 174.9H137C136.8 174 137.5 174 137.8 173.6C138.1 173.3 137.8 172.5 138.3 172.4C138 171.8 138.2 171.7 138.5 171.7C139.5 171.5 139.6 170.6 140 170C140.4 169.4 140.6 168.7 140.9 168C140.9 167.9 140.6 167.7 140.9 167.6C141.2 167.6 141 167.3 141.1 167.1C141.1 166.9 141.1 166.8 141.2 166.6C142 166.1 141.7 165.4 141.8 164.7C141.9 164 142.1 163.4 142 162.7C142 162.3 141.6 161.8 141.8 161.4C141.8 161.2 141.5 161 142.2 160.9C142.4 160.9 141.9 160.7 141.9 160.5C141.9 160.2 141.9 159.9 141.9 159.6C141.9 159.2 141.9 158.8 141.9 158.4C141.9 158.2 141.6 157.9 141.6 157.7C141.6 157.5 141.6 157.2 141.6 157C141.6 156.7 141.9 156.4 141.9 156.1C141.9 155.8 141.7 155.5 141.9 155.2C142.4 154.6 142.1 154.1 142 153.5C142 153 142 152.4 141.7 151.9C141.6 151.6 142 151.2 141.9 150.9C141.9 150.8 143.2 150.1 143.7 150H143.9C144.4 150.2 145.3 150.3 145.3 150.7C145.3 151.3 145.6 151.9 145.7 152.5V152.4Z" fill="black"/>
<path d="M191.6 145.001L189.2 146.201C188.9 146.401 188.5 146.201 188.4 146.901C188.4 147.201 187.8 146.801 187.5 146.901C186.8 147.301 186 147.501 185.2 147.801C184.5 148.101 183.8 148.601 183 148.901C182.3 149.201 181.4 149.101 180.8 149.601C180.2 150.101 179.5 149.701 179 150.001C178.4 150.301 177.7 150.501 177.1 150.401C176.6 150.401 176.1 150.201 175.7 150.401C175.4 150.501 175.2 150.901 174.9 150.901C174.6 150.901 174.2 150.701 174.1 151.401C174.1 151.401 173.9 151.401 173.9 151.301C173.5 151.001 173.1 151.101 172.9 151.301C172.7 151.601 172.5 151.601 172.2 151.701C171.6 151.901 170.9 152.001 170.3 152.001C169.8 152.001 169.3 151.901 168.8 152.001C168.3 152.001 167.8 152.401 167.3 152.201C166.8 152.001 166.3 152.101 165.9 152.201C165.6 152.201 165.3 152.001 165.2 152.701C165.2 152.701 165.1 152.701 165 152.701C164.1 152.001 163.6 153.201 162.8 153.101C162 153.101 161.2 153.301 160.4 153.401C160.2 153.401 159.9 153.301 159.8 153.801C159.8 154.001 159.5 154.001 159.4 153.901C158.7 153.301 158.2 153.901 157.5 153.701C156.8 153.701 156.1 154.001 155.4 153.601C155.1 153.401 154.7 153.301 154.3 153.901C154.1 154.201 153.8 153.901 153.5 153.901C153.3 153.901 153.1 154.201 152.9 154.201C152.7 154.201 152.5 154.001 152.3 153.901C152.3 153.901 152.2 153.901 152.1 153.901C151 154.601 150 153.701 149 153.801C147.9 153.901 146.8 153.801 145.8 153.501C145.2 153.401 144.6 153.101 144.5 151.901C144.5 151.401 144.5 150.801 144.8 150.501C145 150.301 145.2 150.101 145.4 150.101C145.7 150.101 146 150.001 146.4 149.901C147 149.801 147.7 149.301 148.3 149.701C148.5 149.801 148.7 149.501 148.9 150.001C148.9 150.001 148.9 150.101 149 150.001C149.9 149.301 150.7 149.801 151.6 149.801C152.3 149.801 153 149.101 153.8 149.301C154.2 148.701 154.7 148.701 155.1 148.901C156.6 149.501 158.1 148.901 159.5 148.801C161 148.801 162.5 148.401 164 148.201C164.3 148.201 164.4 147.801 164.8 148.001C165.1 148.201 165.5 148.001 165.8 147.901C166.1 147.901 166.4 147.701 166.7 147.801C168 148.201 169.1 147.601 170.3 147.501C171.5 147.401 172.7 147.201 173.8 146.801C174.5 146.601 175.1 146.101 175.9 146.001C176.2 146.001 176.5 145.601 176.9 146.001C177 146.101 177.2 145.601 177.4 145.601C177.9 145.401 178.4 145.301 178.8 145.201C179.5 145.001 180.1 144.901 180.8 144.601C181.2 144.401 181.5 144.101 181.9 143.901C182.3 143.701 182.7 143.601 183.1 143.501C183.6 143.501 184.2 143.401 184.7 143.301C185.3 143.201 185.7 142.701 186.3 142.701C187.4 142.701 188.2 142.101 189.1 141.701C190 141.301 190.9 140.801 191.6 140.201C191.7 140.201 191.8 140.101 192 140.001C192.1 140.001 192.3 140.001 192.3 140.001C192.7 140.501 193 140.701 193.1 140.701C192.9 140.701 193.4 140.701 193.3 140.701H193.2C193.2 140.701 193.3 140.501 193.2 140.501C193.2 140.501 193.2 140.401 193 140.301C192.8 140.201 192.7 140.101 192.6 139.901C192.6 139.801 192.6 139.601 192.9 139.501C193.2 139.401 193.5 139.401 193.7 139.501C193.9 139.501 194.1 139.701 194.3 139.801C194.5 140.001 194.7 140.201 194.8 140.601C194.8 140.601 194.8 140.801 194.8 140.901C194.8 140.901 194.8 141.001 194.8 141.101C194.8 141.201 194.8 141.401 194.8 141.501C194.5 142.501 194 142.901 193.8 143.101C193.4 143.301 192.9 143.601 192.5 143.901L191.2 144.701L191.6 145.001Z" fill="black"/>
<path d="M194.799 129.999C194.499 129.699 194.299 129.499 193.999 129.299C193.699 129.099 193.299 128.899 192.899 128.799C192.599 128.799 192.399 128.299 191.899 128.799C191.699 128.999 191.499 128.299 191.199 128.299C190.399 128.199 189.499 127.999 188.599 127.999C187.699 127.999 186.799 128.299 185.899 128.299C184.999 128.299 184.099 128.099 183.299 128.499C182.599 128.899 181.899 128.499 181.199 128.599C180.499 128.799 179.699 128.999 178.999 128.899C178.399 128.899 177.899 128.699 177.399 128.899C177.099 128.999 176.799 129.399 176.499 129.499C176.199 129.499 175.699 129.399 175.599 130.099C175.599 130.099 175.399 130.099 175.299 130.099C174.799 129.799 174.399 129.899 174.199 130.299C173.999 130.599 173.699 130.699 173.499 130.799C172.799 131.099 172.099 131.299 171.299 131.499C170.699 131.599 170.099 131.499 169.599 131.699C168.999 131.799 168.499 132.299 167.899 132.199C167.299 132.199 166.799 132.299 166.299 132.499C165.999 132.599 165.599 132.499 165.599 133.199C165.599 133.199 165.499 133.299 165.399 133.199C164.299 132.799 163.899 134.099 162.999 134.299C162.099 134.499 161.199 134.999 160.399 135.399C160.199 135.499 159.799 135.399 159.799 135.999C159.799 136.199 159.599 136.299 159.399 136.299C158.499 135.999 157.999 136.699 157.299 136.899C156.499 137.199 155.899 137.799 154.899 137.699C154.499 137.699 153.999 137.699 153.899 138.499C153.899 138.799 153.399 138.799 153.099 138.999C152.899 139.199 152.799 139.499 152.599 139.599C152.399 139.699 152.099 139.599 151.899 139.599C151.899 139.599 151.799 139.599 151.699 139.599C150.899 140.699 149.399 140.499 148.499 141.199C147.599 141.899 146.599 142.399 145.699 142.999C145.199 143.299 144.699 143.499 143.599 142.999C143.099 142.799 142.699 142.399 142.699 141.999C142.699 141.699 142.699 141.299 142.899 141.099C143.099 140.699 143.399 140.399 143.699 139.999C144.299 139.299 144.699 138.399 145.599 138.199C145.899 138.199 145.999 137.699 146.399 138.099H146.599C147.199 136.899 148.499 136.799 149.499 136.299C150.299 135.799 150.899 134.899 151.799 134.699C151.999 133.899 152.599 133.699 153.199 133.699C155.199 133.499 156.699 132.199 158.499 131.499C160.299 130.799 161.999 129.899 163.799 129.199C164.099 129.099 164.199 128.599 164.699 128.799C165.099 128.899 165.499 128.499 165.899 128.399C166.299 128.299 166.599 127.999 166.999 127.999C167.799 127.999 168.599 127.899 169.299 127.599C169.999 127.299 170.699 126.999 171.499 126.899C172.999 126.499 174.499 126.199 175.899 125.699C176.799 125.399 177.599 124.899 178.599 124.799C178.999 124.799 179.399 124.399 179.899 124.899C179.999 124.999 180.299 124.499 180.599 124.499C181.199 124.299 181.899 124.299 182.499 124.299C183.399 124.199 184.299 124.199 185.199 124.099C185.699 124.099 186.299 123.799 186.799 123.699C187.399 123.699 187.999 123.699 188.599 123.699C189.299 123.699 190.099 123.999 190.799 124.199C191.599 124.299 192.499 124.199 193.199 124.699C194.499 125.599 195.999 125.899 197.299 126.999C198.499 128.099 199.399 129.499 199.999 131.099C200.299 132.099 199.799 132.999 199.699 133.899C199.699 134.099 199.199 134.299 198.799 134.299C198.299 134.299 197.899 134.199 197.599 133.999C197.599 133.999 197.399 133.899 197.399 133.799C197.099 133.099 196.399 132.699 196.399 132.299C196.399 131.599 195.899 130.799 195.299 130.199L194.799 129.999Z" fill="black"/>
<path d="M161.499 127.502C160.999 126.802 160.399 126.202 159.699 125.702C159.399 125.502 159.299 125.102 158.699 125.402C158.399 125.502 158.499 124.802 158.199 124.702C157.499 124.302 156.799 123.902 155.999 123.602C155.199 123.302 154.399 123.202 153.599 123.002C152.799 122.802 152.099 122.302 151.299 122.502C150.599 122.602 150.099 122.102 149.499 122.102C148.799 122.102 148.099 122.102 147.499 122.002C146.999 121.802 146.499 121.602 146.099 121.802C145.799 121.802 145.599 122.202 145.299 122.302C144.999 122.302 144.599 122.102 144.499 122.802C144.499 122.802 144.299 122.802 144.299 122.702C143.899 122.402 143.499 122.502 143.299 122.802C143.099 123.102 142.899 123.202 142.699 123.202C142.099 123.402 141.499 123.702 140.899 123.902C140.499 124.102 139.899 124.102 139.499 124.302C138.999 124.502 138.799 125.102 138.199 125.102C137.599 125.102 137.299 125.502 136.999 125.802C136.799 126.002 136.399 126.002 136.699 126.602C136.699 126.602 136.699 126.702 136.599 126.702C135.499 126.702 135.899 128.002 135.299 128.502C134.699 129.102 134.499 129.902 134.199 130.602C134.199 130.802 133.899 131.002 134.199 131.302C134.299 131.402 134.199 131.602 134.199 131.702C133.399 132.102 133.599 132.802 133.299 133.402C132.999 134.102 133.099 134.802 132.599 135.502C132.299 135.802 132.199 136.202 132.699 136.602C132.899 136.802 132.699 137.102 132.699 137.402C132.699 137.602 132.999 137.802 132.999 138.002C132.999 138.202 132.799 138.402 132.599 138.502C132.599 138.502 132.599 138.602 132.599 138.702C133.299 139.702 132.399 140.802 132.799 141.802C133.099 142.802 133.299 143.902 133.499 144.902C133.599 145.502 133.599 146.102 132.699 146.902C132.299 147.302 131.799 147.502 131.399 147.302C131.099 147.202 130.799 147.002 130.699 146.802C130.499 146.502 130.199 146.102 129.999 145.802C129.599 145.102 128.899 144.402 128.999 143.502C128.999 143.202 128.699 143.002 129.099 142.702V142.502C128.099 141.502 128.599 140.302 128.499 139.202C128.499 138.202 127.799 137.302 128.199 136.302C127.599 135.702 127.799 135.002 128.099 134.502C129.099 132.702 129.099 130.702 129.999 128.902C130.799 127.102 131.799 125.302 133.199 123.702C133.399 123.402 133.399 123.002 133.899 122.902C134.399 122.902 134.599 122.302 134.899 122.002C135.199 121.702 135.499 121.302 135.899 121.202C137.599 120.802 138.699 119.702 140.199 119.102C141.699 118.602 143.199 118.202 144.699 117.802C145.599 117.602 146.499 117.102 147.499 117.302C147.899 117.302 148.399 117.002 148.699 117.602C148.799 117.802 149.199 117.302 149.499 117.302C150.199 117.302 150.799 117.402 151.399 117.502C152.299 117.602 153.199 117.902 153.999 118.102C154.499 118.202 155.099 118.102 155.699 118.302C156.299 118.402 156.799 118.602 157.299 118.902C157.899 119.202 158.499 119.702 159.099 120.102C159.699 120.502 160.599 120.702 160.999 121.302C161.799 122.502 162.999 123.102 163.999 124.202C164.899 125.302 165.599 126.402 166.399 127.602C166.799 128.302 166.599 129.102 166.899 129.802C166.999 130.102 165.699 131.002 165.199 131.002C165.199 131.002 164.999 131.002 164.899 131.002C164.299 130.502 163.399 130.302 163.199 129.702C162.899 128.802 162.299 128.002 161.699 127.302L161.499 127.502Z" fill="black"/>
<path d="M138.1 120.898C138.1 120.598 138.1 120.298 137.9 119.998C137.9 119.898 138.1 119.698 137.5 119.698C137.2 119.698 137.8 119.398 137.8 119.298C137.7 118.998 137.7 118.698 137.6 118.398C137.5 118.098 137.2 117.898 137.1 117.598C137 117.298 137.1 116.998 136.8 116.798C136.5 116.598 136.9 116.298 136.8 116.098C136.6 115.898 136.5 115.698 136.7 115.398C136.8 115.198 137 114.998 136.8 114.798C136.8 114.798 136.4 114.698 136.4 114.598C136.4 114.498 136.6 114.298 136 114.398C136 114.398 136 114.398 136.1 114.298C136.5 114.098 136.4 113.898 136.1 113.898C135.8 113.898 135.8 113.798 135.8 113.698C135.8 113.498 135.6 113.198 135.6 112.998C135.6 112.798 135.8 112.598 135.8 112.398C135.8 112.198 135.5 112.098 135.8 111.798C136 111.498 136 111.398 135.9 111.198C135.9 111.198 136.1 110.898 135.5 110.998C136.2 110.498 135.1 110.498 135.2 110.198C135.3 109.898 135.1 109.598 135 109.298C135 109.298 135.1 109.098 134.7 109.198C134.5 109.198 134.5 109.198 134.6 109.098C135.1 108.698 134.6 108.598 134.7 108.298C134.7 107.998 134.4 107.898 134.7 107.498C134.9 107.298 134.9 107.098 134.3 107.198C134 107.198 134.3 106.998 134.2 106.998C134.2 106.998 133.8 106.998 133.8 106.898C133.8 106.898 134 106.698 134.1 106.598C133.3 106.498 134.1 105.798 133.8 105.498C133.5 105.198 133.4 104.798 133.4 104.398C133.4 104.198 133.4 103.898 134.5 103.398C135 103.198 135.5 102.998 135.8 102.898C136 102.898 136.3 102.898 136.4 102.898C136.5 102.898 136.7 103.098 136.8 103.098C137.1 103.298 137.7 103.298 137.5 103.698C137.5 103.798 137.8 103.698 137.3 103.998C138.2 103.998 137.8 104.598 138 104.898C138.1 105.198 138.8 105.298 138.7 105.598C139.4 105.598 139.3 105.798 139.2 105.998C138.8 106.798 139.4 107.198 139.5 107.798C139.5 108.398 139.9 108.998 140 109.598C140 109.698 140.4 109.598 140.2 109.898C140 110.098 140.2 110.198 140.2 110.298C140.2 110.398 140.4 110.498 140.2 110.698C139.7 111.298 140.2 111.698 140.2 112.198C140.2 112.698 140.3 113.198 140.6 113.598C140.8 113.898 141.2 114.098 141.1 114.398C141.1 114.498 141.4 114.598 140.9 114.798C140.7 114.798 141.2 114.798 141.3 114.998C141.3 115.198 141.4 115.398 141.5 115.598C141.5 115.898 141.5 116.198 141.7 116.398C141.7 116.598 142.1 116.698 142.1 116.798C142.2 116.998 142.2 117.098 142.2 117.298C142.2 117.498 142 117.798 142 117.998C142 118.198 142.3 118.398 142 118.698C141.6 119.198 142 119.598 142 119.998C142 120.398 142 120.798 142.3 121.198C142.4 121.398 142 121.698 142 121.898C142 121.998 140.6 122.398 140.1 122.498H139.9C139.4 122.398 138.7 122.298 138.7 122.098C138.7 121.698 138.6 121.398 138.5 120.998L138.1 120.898Z" fill="black"/>
<path d="M126.4 110.198C125.2 110.598 123.9 110.999 122.6 111.399C122.1 111.599 121.6 111.398 121.2 112.098C121 112.398 120.4 111.898 120 112.098C118.8 112.398 117.6 112.599 116.4 112.899C115.2 113.199 114.1 113.599 112.9 113.799C111.7 113.999 110.5 113.798 109.4 114.198C108.4 114.498 107.5 114.098 106.6 114.198C105.6 114.398 104.5 114.398 103.5 114.198C102.7 113.998 102 113.698 101.2 113.698C100.7 113.698 100.2 113.898 99.6 113.698C99.1 113.498 98.6 113.098 98 113.498C98 113.498 97.8 113.298 97.7 113.198C97.3 112.598 96.7 112.298 96.1 112.198C95.5 112.098 95.1 111.698 94.7 111.198C94.4 110.898 94.2 110.498 94 110.098C93.3 108.698 93.3 107.198 93.7 105.998C94.1 104.798 94.9 103.898 95.7 103.198C96.5 102.498 97.3 101.698 98.1 101.498C99 101.398 99.6 101.099 100.3 100.799C100.7 100.599 101.2 100.798 101.3 99.9985C101.3 99.9985 101.5 99.8985 101.5 99.9985C102.2 100.198 102.7 99.9985 103.3 99.5985C103.8 99.2985 104.3 98.8985 105 98.8985C105.6 98.8985 106.3 98.6985 106.9 98.5985C107.5 98.3985 108.1 98.2985 108.8 98.1985C109.1 98.1985 109.5 98.1985 109.8 97.7985C109.8 97.5985 110.2 97.5985 110.4 97.6985C111.4 98.1985 112.3 97.6985 113.3 97.7985C114.4 97.7985 115.5 97.5985 116.6 98.0985C117.1 98.2985 117.7 98.4985 118.3 97.8985C118.6 97.5985 119.1 97.8985 119.5 97.8985C119.8 97.8985 120.2 97.5985 120.5 97.6985C120.8 97.6985 121 97.9985 121.3 98.1985C121.3 98.1985 121.5 98.1985 121.6 98.1985C122.4 97.9985 123.2 98.1985 124 98.4985C124.8 98.7985 125.5 99.0985 126.3 99.2985C127.9 99.4985 129.5 100.199 130.9 100.899C131.7 101.299 132.5 101.898 132.5 103.198C132.5 103.798 132.3 104.299 131.8 104.399C131.5 104.499 131.1 104.598 130.8 104.498C130.3 104.398 129.9 104.298 129.4 104.198C128.9 104.198 128.4 104.198 128 103.998C127.5 103.998 127.1 103.898 126.6 103.598C126.3 103.398 125.9 103.598 125.8 102.998C125.8 102.998 125.7 102.899 125.6 102.899C124.2 103.299 123 102.499 121.7 102.299C120.6 102.099 119.5 102.699 118.4 102.299C117.7 102.899 117.1 102.698 116.4 102.498C114.2 101.798 112 102.398 109.9 102.598C107.7 102.798 105.6 103.498 103.5 104.198C103.1 104.298 103 104.798 102.5 104.698C102 104.698 101.6 104.998 101.2 105.198C100.8 105.398 100.5 105.698 100.1 105.698C99.3 105.698 98.7 106.198 98.4 106.598C98.1 107.098 98 107.599 98.1 107.899C98.1 107.899 98.1 108.098 98.1 108.198C98.1 108.698 99.5 109.498 100.8 109.698C101.7 109.898 102.7 109.699 103.7 109.899C104.1 109.899 104.6 109.699 105 110.299C105.1 110.499 105.6 109.998 105.8 109.998C106.5 109.998 107.3 109.998 108 109.998C109 109.998 110.1 109.998 111.1 109.698C111.7 109.598 112.3 109.298 112.9 109.098C113.5 108.898 114.2 108.899 114.8 108.799C115.6 108.799 116.5 108.798 117.3 108.698C118.2 108.598 119 108.098 119.8 108.198C121.4 108.298 122.8 107.598 124.3 107.198C125.8 106.798 127.2 106.298 128.6 105.598C129.4 105.198 130.3 105.298 131.1 104.998C131.5 104.798 132.6 105.898 132.7 106.498C132.7 106.598 132.7 106.699 132.7 106.799C132.1 107.599 131.7 108.599 130.7 108.899C129.3 109.399 127.9 109.998 126.5 110.498L126.4 110.198Z" fill="black"/>
<path d="M136.601 96.3998C137.201 95.4998 137.801 94.5998 138.301 93.7998C138.501 93.4998 138.901 93.2998 138.601 92.6998C138.501 92.3998 139.201 92.3998 139.301 92.0998C139.601 91.2998 140.101 90.4998 140.301 89.6998C140.501 88.8998 140.401 88.0998 140.401 87.1998C140.401 86.3998 140.701 85.4998 140.401 84.6998C140.101 83.9998 140.501 83.2998 140.401 82.5998C140.201 81.8998 140.001 81.0998 140.201 80.2998C140.301 79.6998 140.501 79.1998 140.201 78.7998C140.101 78.4998 139.701 78.3998 139.601 78.1998C139.601 77.9998 139.601 77.6998 139.201 78.1998C139.201 78.1998 139.201 78.1998 139.201 78.0998C139.501 77.7998 139.201 77.6998 139.201 77.9998C139.101 78.1998 139.201 78.1998 139.101 78.1998C139.001 78.1998 138.801 78.3998 138.601 78.4998C138.301 78.6998 137.801 78.7998 137.401 79.0998C137.001 79.4998 136.801 80.0998 136.301 80.3998C135.801 80.6998 135.501 81.0998 135.201 81.4998C135.001 81.6998 134.601 81.8998 135.101 82.3998C135.101 82.3998 135.101 82.4998 135.101 82.5998C133.901 82.8998 134.601 84.1998 134.101 84.8998C133.601 85.5998 133.401 86.4998 133.201 87.3998C133.201 87.5998 132.901 87.7998 133.201 88.0998C133.301 88.1998 133.301 88.4998 133.201 88.4998C132.501 88.9998 132.701 89.7998 132.501 90.3998C132.301 91.1998 132.501 91.8998 132.001 92.6998C131.801 92.9998 131.701 93.4998 132.301 93.8998C132.601 94.0998 132.301 94.4998 132.301 94.6998C132.301 94.8998 132.701 95.0998 132.701 95.2998C132.701 95.4998 132.501 95.6998 132.401 95.8998C132.401 95.8998 132.401 95.9998 132.401 96.0998C132.801 96.5998 132.901 97.0998 132.801 97.6998C132.801 98.2998 132.801 98.7998 133.001 99.3998C133.201 99.8998 133.501 100.4 133.701 101C133.901 101.5 134.101 102 134.301 102.6C134.501 103.2 134.701 103.8 133.901 104.8C133.601 105.2 133.101 105.5 132.701 105.5C132.401 105.5 132.101 105.3 131.901 105.1C131.601 104.8 131.301 104.5 131.001 104.2C130.501 103.5 129.601 102.9 129.601 102C129.601 101.7 129.201 101.5 129.601 101.1V100.9C129.101 100.5 128.801 99.8998 128.701 99.2998C128.601 98.6998 128.701 98.0998 128.501 97.4998C128.401 96.9998 128.201 96.4998 128.001 95.9998C127.801 95.4998 127.701 94.9998 127.801 94.4998C127.201 93.9998 127.201 93.1998 127.401 92.6998C128.101 90.6998 128.001 88.5998 128.501 86.5998C129.101 84.5998 129.801 82.5998 130.801 80.7998C131.001 80.4998 130.801 79.9998 131.301 79.7998C131.701 79.5998 131.801 79.0998 132.101 78.6998C132.301 78.3998 132.501 77.8998 132.801 77.6998C133.601 77.2998 134.101 76.6998 134.701 75.9998C135.301 75.3998 136.001 74.6998 137.001 74.2998C138.101 73.7998 139.501 73.6998 140.601 74.1998C141.201 74.3998 141.701 74.7998 142.101 75.1998C142.501 75.5998 142.901 76.1998 143.101 76.6998C143.701 77.7998 144.201 78.8998 144.201 79.7998C144.201 80.1998 144.601 80.5998 144.001 80.9998C143.801 81.0998 144.301 81.4998 144.401 81.6998C144.501 82.2998 144.501 82.9998 144.601 83.6998C144.601 84.5998 144.601 85.5998 144.601 86.4998C144.601 87.0998 144.801 87.6998 144.801 88.2998C144.801 88.8998 144.701 89.5998 144.501 90.1998C144.201 90.9998 143.801 91.6998 143.401 92.4998C143.001 93.2998 142.901 94.0998 142.301 94.6998C141.201 95.6998 140.701 96.8998 139.901 97.9998C139.201 98.9998 138.501 100.1 138.101 101.2C137.901 101.8 137.201 102.2 137.001 102.8C137.001 103.1 135.401 103.1 134.901 102.8C134.901 102.8 134.701 102.7 134.701 102.6C134.501 101.8 134.001 100.8 134.401 99.9998C135.001 98.7998 135.601 97.6998 136.301 96.6998L136.601 96.3998Z" fill="black"/>
<path d="M144.1 104.401C145.5 104.401 146.9 104.301 148.3 104.101C148.8 104.101 149.4 104.301 149.9 103.701C150.2 103.401 150.7 104.001 151.2 104.001C152.5 103.901 153.8 103.901 155.1 103.701C156.3 103.601 157.6 103.301 158.8 103.101C160 103.001 161.3 103.101 162.4 102.701C163.3 102.301 164.2 102.701 165.1 102.301C166 101.901 166.8 101.601 167.7 101.401C168.3 101.301 169 101.201 169.4 100.701C169.7 100.401 169.7 99.9005 170 99.7005C170.3 99.5005 170.8 99.3005 170.5 98.7005C170.5 98.7005 170.7 98.6005 170.8 98.6005C171.3 98.6005 171.6 98.1005 171.5 97.7005C171.4 97.3005 171.5 97.1005 171.5 96.9005C171.7 96.2005 171.7 95.6005 171.7 95.0005C171.7 94.6005 171.7 94.2005 171.7 94.0005C171.7 93.8005 171.1 93.9005 170.6 93.4005C170 93.0005 169.3 92.8005 168.7 92.8005C168.3 92.8005 167.9 92.4005 167.5 93.0005H167.3C166.2 92.1005 165.1 93.2005 164 93.1005C162.8 93.0005 161.6 93.3005 160.4 93.6005C160.1 93.6005 159.7 93.6005 159.5 94.1005C159.5 94.3005 159.1 94.4005 158.9 94.3005C157.9 93.9005 157 94.5005 156.1 94.7005C155 94.9005 154.1 95.5005 152.9 95.4005C152.4 95.4005 151.8 95.4005 151.5 96.2005C151.4 96.5005 150.8 96.5005 150.4 96.7005C150.1 96.9005 149.9 97.2005 149.6 97.4005C149.4 97.5005 149 97.4005 148.7 97.4005C148.7 97.4005 148.5 97.4005 148.5 97.5005C147.3 98.8005 145.6 98.7005 144.2 99.6005C142.9 100.501 141.4 101.301 140 102.001C139.2 102.401 138.3 102.801 137.2 102.101C136.7 101.801 136.4 101.401 136.5 100.901C136.6 100.501 136.8 100.201 137 99.9005C137.4 99.5005 137.8 99.1005 138.2 98.8005C139 98.1005 139.7 97.1005 140.8 96.8005C141.1 96.8005 141.4 96.2005 141.9 96.5005C141.9 96.5005 142.1 96.5005 142.2 96.5005C143.1 95.1005 144.8 94.8005 146.1 94.2005C147.2 93.6005 148.2 92.5005 149.5 92.3005C149.9 91.4005 150.8 91.2005 151.5 91.2005C154.2 90.9005 156.5 89.8005 159.1 89.3005C161.7 88.8005 164.4 88.4005 167.2 88.5005C167.7 88.5005 168.1 88.2005 168.6 88.5005C169.1 88.8005 169.8 88.7005 170.4 88.8005C171 88.9005 171.5 88.8005 172.1 89.2005C172.7 89.5005 173.3 89.9005 173.9 90.4005C174.5 90.9005 175.1 91.5005 175.4 92.2005C176.1 93.5005 176.3 94.9005 176.2 96.1005C175.9 98.7005 174.6 100.801 173.1 102.501C172.2 103.601 171.2 104.701 169.8 105.301C169.2 105.501 168.8 106.101 168 105.701C167.8 105.601 167.4 106.201 167.1 106.301C166.2 106.601 165.3 106.801 164.4 106.901C163.2 107.101 161.9 107.201 160.8 107.301C160.1 107.301 159.4 107.701 158.7 107.801C158 107.901 157.2 107.901 156.5 107.901C155.6 107.901 154.6 107.701 153.7 107.701C152.7 107.701 151.7 108.001 150.8 107.801C149.1 107.401 147.3 107.801 145.6 107.801C143.9 107.801 142.2 107.801 140.5 108.101C139.5 108.201 138.6 107.801 137.7 107.801C137.3 107.801 136.6 106.401 136.7 105.901C136.7 105.901 136.7 105.701 136.9 105.701C137.8 105.201 138.6 104.401 139.7 104.401C141.3 104.401 142.8 104.201 144.4 104.201L144.1 104.401Z" fill="black"/>
<path d="M136 118.101C135.6 118.501 135.2 119.001 134.9 119.501C134.8 119.701 134.4 119.701 134.7 120.201C134.8 120.501 134.2 120.201 134.1 120.401C133.8 120.901 133.4 121.201 133.1 121.701C132.8 122.201 132.7 122.701 132.3 123.201C131.9 123.701 131.2 124.101 130.5 124.801C129.9 125.401 129 125.101 128.4 125.301C127.7 125.501 127 125.501 126.6 125.201C126.2 125.001 126 124.701 125.6 124.701C125.4 124.701 125.2 125.001 124.7 124.901C124.3 124.801 124.1 124.401 123.5 124.901C123.5 124.901 123.4 124.801 123.3 124.601C123.2 124.101 122.8 123.901 122.4 123.801C122 123.801 121.8 123.501 121.6 123.301C121.1 122.601 120.8 121.801 120.9 120.901C120.9 120.601 120.9 120.201 121.1 119.901L121.3 119.501C121.3 119.501 121.3 119.301 121.4 119.201C121.5 118.801 121.4 118.301 121.8 118.001C122.2 117.701 122.3 117.401 122.4 117.001C122.4 116.801 122.8 116.701 122.4 116.301V116.201C123.4 116.001 122.7 115.001 123.2 114.601C123.7 114.201 123.9 113.601 124.3 113.101C124.3 113.001 124.6 113.001 124.3 112.601C124.3 112.501 124.3 112.301 124.4 112.301C125.2 112.301 125.1 111.801 125.5 111.501C125.9 111.201 126 110.701 126.6 110.601C126.9 110.601 127.1 110.401 126.8 109.901C126.7 109.601 127 109.601 127.1 109.501C127.1 109.401 127.1 109.101 127.1 109.001C127.1 109.001 127.4 109.001 127.6 109.001C127.6 108.001 128.6 108.101 128.9 107.401C129.2 106.701 129.7 106.301 130.2 105.801C130.5 105.501 130.9 105.301 131.9 105.801C132.4 106.001 132.8 106.401 133 106.701C133.1 106.901 133.2 107.201 133.2 107.301C133.2 107.501 133.2 107.801 133 108.001C132.9 108.501 133 109.101 132.5 109.301C132.3 109.301 132.5 109.701 132 109.401H131.9C132.1 110.401 131.3 110.501 131 111.101C130.7 111.501 130.9 112.301 130.3 112.601C130.6 113.201 130.3 113.401 130 113.501C128.8 113.901 128.5 115.001 127.8 115.701C127.1 116.401 126.7 117.201 126.3 118.001C126.3 118.101 126.5 118.401 126.2 118.401C125.9 118.401 126 118.701 126 118.901C126 119.101 126 119.301 125.8 119.401C125.4 119.601 125.3 120.001 125.2 120.301C125.2 120.401 125.2 120.601 125.2 120.701C125.2 121.001 125.5 121.201 125.8 121.201C125.8 121.201 126.1 121.201 126.3 121.101C126.6 121.101 126.8 121.101 127 121.101C127.2 121.101 127.4 120.901 127.4 121.501C127.4 121.701 127.6 121.201 127.7 121.201C127.9 121.201 128 121.201 128.1 121.201C128.1 121.201 128.3 121.201 128.4 121.001C128.4 120.901 128.4 120.601 128.6 120.301C128.7 120.101 128.9 119.801 129.2 119.601C129.5 119.301 129.9 119.201 130.2 118.901C130.5 118.601 130.6 118.101 131 118.001C131.9 117.801 132.1 117.001 132.6 116.501C133.1 116.001 133.6 115.501 133.9 114.801C134.1 114.401 134.7 114.501 135 114.201C135.1 114.101 136.4 114.801 136.8 115.201L136.9 115.401C137 116.001 137.3 116.701 137 117.001C136.5 117.501 136.2 118.001 135.7 118.501L136 118.101Z" fill="black"/>
</svg>
