<svg width="300" height="300" viewBox="0 0 300 300" fill="none" xmlns="http://www.w3.org/2000/svg">
<path d="M176.6 132.898C174.9 131.098 173.2 129.198 171.5 127.398C170.8 126.698 170.4 125.898 169.3 125.498C168.8 125.298 168.6 124.198 168 123.598C166.4 121.898 164.8 120.198 163.2 118.498C161.6 116.898 160 115.698 158.4 115.198C156.8 114.598 154.7 114.098 152.5 114.398C150.7 114.598 149 114.098 147.3 114.298C145.4 114.498 143.5 114.698 141.7 114.598C140.4 114.598 139 114.498 137.7 114.798C136.9 114.998 136.2 115.398 135.3 115.498C134.5 115.598 133.5 115.498 132.9 116.298C132.9 116.298 132.5 116.298 132.3 116.298C131.3 116.098 130.3 116.298 129.6 116.798C129 117.198 128.3 117.398 127.7 117.498C125.9 117.998 124.1 118.498 122.5 119.098C121.3 119.498 120.1 119.898 119.1 120.498C118 121.198 117.5 122.298 116.7 123.098C115.9 123.898 115.5 124.998 115.2 126.198C115 126.898 114.6 127.598 115.2 128.298C115.2 128.298 115.2 128.598 115.2 128.698C114.1 130.698 115.2 132.898 115 134.998C114.8 137.298 115 139.598 115 141.898C115 142.498 114.9 143.198 115.4 143.698C115.6 143.898 115.6 144.498 115.5 144.798C115 146.498 115.5 148.298 115.5 150.098C115.5 152.098 116.1 154.098 115.8 156.098C115.7 156.998 115.8 158.098 116.4 159.098C116.7 159.498 116.6 160.498 116.8 161.298C116.9 161.898 117.3 162.398 117.4 162.998C117.4 163.498 117.4 163.998 117.3 164.598C117.3 164.798 117.3 164.898 117.3 165.098C118.4 167.898 118 170.898 118.7 173.798C119.4 176.698 119.9 179.698 120.3 182.598C120.6 184.198 120.7 185.898 119.8 187.298C119.4 187.898 118.8 187.998 118.4 187.298C118.1 186.798 117.7 186.298 117.6 185.698C117.3 184.798 117 183.898 116.8 182.998C116.3 181.198 115.4 179.398 115.3 177.398C115.3 176.798 114.9 176.098 115.3 175.498C115.3 175.498 115.3 175.198 115.3 174.998C114.1 172.498 114.1 169.698 113.6 167.098C113.2 164.798 112.2 162.698 112.2 160.398C111.4 159.198 111.3 157.698 111.4 156.398C111.5 151.798 110.7 147.298 110.6 142.698C110.6 140.398 110.5 137.998 110.5 135.698C110.5 133.398 110.5 130.998 110.8 128.598C110.8 127.798 110.6 126.998 111.1 125.998C111.5 125.098 111.7 123.898 112.1 122.798C112.5 121.798 112.9 120.698 113.6 119.998C116.6 116.798 120.3 114.898 123.8 113.798C127.3 112.798 130.9 111.998 134.5 111.298C136.7 110.798 138.8 110.198 141.1 110.098C142.1 110.098 143 109.598 144 110.098C144.3 110.298 145.1 109.798 145.8 109.698C147.3 109.598 148.9 109.598 150.4 109.598C152.5 109.598 154.6 109.598 157 109.998C158.4 110.198 159.9 110.298 161.4 110.998C162.9 111.698 164.2 112.798 165.2 113.798C166.5 115.198 167.4 116.498 168.5 117.798C169.6 119.098 171.1 120.298 172 121.698C173.8 124.298 176.1 126.398 178.1 128.698C180.2 130.998 182.2 133.298 184.4 135.498C185.6 136.698 186.4 138.198 187.5 139.498C188 140.098 187.7 141.898 187.1 141.998C187 141.998 186.8 141.998 186.7 141.998C185.2 141.098 183.6 140.498 182.4 138.998C180.5 136.898 178.5 134.798 176.6 132.798V132.898Z" fill="black"/>
<path d="M166.101 147.298C166.501 147.098 166.801 146.998 167.201 146.698C167.301 146.698 167.601 146.698 167.501 146.198C167.501 145.898 167.901 146.398 168.001 146.398C168.301 146.198 168.701 146.098 169.001 145.898C169.301 145.698 169.501 145.298 169.801 145.098C170.101 144.898 170.601 145.098 170.801 144.598C171.001 144.198 171.401 144.598 171.601 144.298C171.801 144.098 172.101 143.898 172.501 143.998C172.801 143.998 173.101 144.198 173.201 143.998C173.201 143.898 173.201 143.498 173.401 143.498C173.501 143.498 173.801 143.698 173.701 142.998C173.701 142.998 173.701 142.998 173.901 142.998C174.201 143.298 174.401 143.198 174.401 142.998C174.401 142.698 174.501 142.698 174.601 142.598C174.901 142.498 175.201 142.298 175.501 142.298C175.701 142.298 176.001 142.298 176.301 142.298C176.501 142.298 176.701 141.898 177.001 142.098C177.301 142.298 177.501 142.198 177.701 142.098C177.801 142.098 178.101 142.298 177.901 141.598C178.501 142.298 178.501 141.098 178.901 141.198C179.301 141.198 179.601 140.998 180.001 140.898C180.001 140.898 180.301 140.998 180.201 140.498C180.201 140.298 180.201 140.298 180.401 140.398C180.901 140.898 181.001 140.398 181.301 140.398C181.601 140.398 181.901 139.998 182.301 140.398C182.501 140.598 182.701 140.598 182.701 139.998C182.701 139.698 182.901 139.998 183.001 139.798C183.001 139.798 183.001 139.398 183.201 139.398C183.201 139.398 183.401 139.598 183.501 139.698C183.801 138.898 184.501 139.698 184.901 139.298C185.301 138.998 185.801 138.898 186.301 138.898C186.601 138.898 186.901 138.898 187.401 139.998C187.601 140.498 187.801 140.998 187.701 141.398C187.701 141.698 187.701 141.898 187.601 141.998C187.501 142.098 187.401 142.298 187.301 142.398C187.101 142.698 186.901 143.298 186.601 143.098C186.501 143.098 186.501 143.398 186.201 142.898C186.001 143.798 185.501 143.398 185.101 143.598C184.801 143.798 184.601 144.498 184.201 144.298C184.201 144.998 184.001 144.898 183.701 144.798C182.801 144.398 182.301 144.998 181.601 145.198C180.901 145.298 180.301 145.698 179.601 145.898C179.501 145.898 179.601 146.298 179.301 146.098C179.101 145.898 179.001 146.098 178.801 146.198C178.701 146.198 178.601 146.398 178.401 146.298C177.601 145.898 177.301 146.498 176.701 146.598C176.201 146.698 175.601 146.898 175.201 147.298C174.901 147.498 174.801 147.998 174.401 147.998C174.201 147.998 174.201 148.398 173.901 147.898C173.801 147.798 173.901 148.198 173.801 148.298C173.601 148.398 173.401 148.498 173.201 148.598C172.901 148.698 172.601 148.798 172.301 148.998C172.101 149.098 172.101 149.398 171.901 149.598C171.701 149.698 171.601 149.798 171.301 149.898C171.001 149.898 170.701 149.898 170.401 149.898C170.101 149.898 170.001 150.298 169.601 150.198C168.901 149.998 168.601 150.398 168.201 150.598C167.701 150.798 167.301 150.898 166.901 151.298C166.701 151.498 166.201 151.198 166.001 151.298C165.901 151.298 165.101 150.098 164.901 149.698V149.498C164.901 148.998 164.801 148.198 165.101 148.098C165.501 147.998 165.901 147.698 166.301 147.498L166.101 147.298Z" fill="black"/>
<path d="M146.699 141.097C146.699 140.897 146.699 140.697 146.699 140.597C146.699 140.597 146.899 140.497 146.399 140.397C146.099 140.397 146.799 140.297 146.699 140.197C146.699 139.997 146.699 139.897 146.699 139.697C146.699 139.497 146.399 139.397 146.399 139.197C146.399 138.997 146.699 138.897 146.399 138.697C146.099 138.497 146.599 138.497 146.499 138.297C146.399 138.197 146.299 137.997 146.499 137.897C146.699 137.897 146.899 137.697 146.799 137.597C146.799 137.597 146.399 137.397 146.499 137.397C146.499 137.397 146.799 137.397 146.199 137.197C146.199 137.197 146.199 137.197 146.399 137.197C146.799 137.197 146.799 137.197 146.499 136.997C146.199 136.997 146.299 136.897 146.299 136.797C146.299 136.697 146.299 136.497 146.299 136.397C146.299 136.397 146.599 136.197 146.699 136.197C146.699 136.197 146.499 135.897 146.799 135.897C147.099 135.897 147.099 135.797 147.099 135.697C147.099 135.697 147.399 135.697 146.799 135.497C147.599 135.497 146.599 135.097 146.799 134.997C146.999 134.897 146.899 134.697 146.999 134.497C146.999 134.497 147.199 134.497 146.799 134.297C146.599 134.197 146.599 134.297 146.799 134.297C147.399 134.297 147.099 134.097 147.199 133.997C147.399 133.897 147.199 133.697 147.599 133.697C147.799 133.697 147.899 133.697 147.399 133.397C147.199 133.297 147.399 133.397 147.399 133.197L147.099 132.997C147.099 132.997 147.299 132.997 147.499 132.997C146.899 132.597 147.899 132.697 147.799 132.397C147.799 132.097 147.799 131.997 147.999 131.797C147.999 131.797 148.299 131.697 149.399 131.997C149.899 132.197 150.399 132.397 150.699 132.597C150.899 132.697 151.099 132.797 151.099 132.897C151.099 132.897 151.299 133.097 151.299 133.197C151.399 133.397 151.899 133.697 151.599 133.697C151.599 133.697 151.799 133.897 151.299 133.697C151.999 134.097 151.399 134.097 151.399 134.297C151.399 134.397 151.999 134.797 151.699 134.797C152.299 135.097 152.099 135.097 151.899 135.097C151.199 135.097 151.499 135.497 151.399 135.797C151.199 135.997 151.299 136.297 151.199 136.597C151.199 136.597 151.499 136.797 151.199 136.797C150.899 136.797 151.199 136.897 151.199 136.997C151.199 136.997 151.299 137.097 151.199 137.197C150.499 137.197 150.899 137.597 150.799 137.797C150.799 137.997 150.599 138.197 150.799 138.397C150.799 138.497 151.199 138.697 151.099 138.797C151.099 138.797 151.399 138.897 150.799 138.897C150.599 138.897 151.099 138.897 151.099 138.997C151.099 138.997 151.099 139.197 151.099 139.297C151.099 139.397 151.099 139.497 151.099 139.697L151.399 139.897V140.097C151.399 140.097 151.099 140.297 150.999 140.397C150.999 140.497 151.199 140.597 150.999 140.697C150.499 140.897 150.699 141.097 150.699 141.297C150.699 141.497 150.699 141.697 150.699 141.797C150.699 141.797 150.299 141.997 150.299 142.097C150.299 142.097 148.799 142.297 148.299 142.397H148.099C147.599 142.397 146.899 142.297 146.899 142.097C146.899 141.897 146.899 141.697 146.899 141.497L146.699 141.097Z" fill="black"/>
<path d="M157.1 141.898C157.1 141.698 157.1 141.498 157.1 141.398C157.1 141.398 157.3 141.298 156.8 141.198C156.5 141.198 157.2 141.098 157.1 140.998C157.1 140.798 157.1 140.698 157.1 140.498C157.1 140.298 156.8 140.198 156.8 139.998C156.8 139.798 157.1 139.698 156.8 139.498C156.5 139.298 157 139.298 156.9 139.098C156.8 138.998 156.7 138.798 156.9 138.698C157.1 138.698 157.3 138.498 157.2 138.398C157.2 138.398 156.8 138.198 156.9 138.198C156.9 138.198 157.2 138.198 156.6 137.998C156.6 137.998 156.6 137.998 156.8 137.998C157.2 137.998 157.2 137.998 156.9 137.798C156.6 137.798 156.7 137.698 156.7 137.598C156.7 137.498 156.7 137.298 156.7 137.198C156.7 137.198 157 136.998 157.1 136.998C157.1 136.998 156.9 136.698 157.2 136.698C157.5 136.698 157.5 136.598 157.5 136.498C157.5 136.498 157.8 136.498 157.2 136.298C158 136.298 157 135.898 157.2 135.798C157.4 135.698 157.3 135.498 157.4 135.298C157.4 135.298 157.6 135.298 157.2 135.098C157 134.998 157 135.098 157.2 135.098C157.8 135.098 157.5 134.898 157.6 134.798C157.8 134.698 157.6 134.498 158 134.498C158.2 134.498 158.3 134.498 157.8 134.198C157.6 134.098 157.8 134.198 157.8 133.998L157.5 133.798C157.5 133.798 157.7 133.798 157.9 133.798C157.3 133.398 158.3 133.498 158.2 133.198C158.2 132.898 158.2 132.798 158.4 132.598C158.4 132.598 158.7 132.498 159.8 132.798C160.3 132.998 160.8 133.198 161.1 133.398C161.3 133.498 161.5 133.598 161.5 133.698C161.5 133.698 161.7 133.898 161.7 133.998C161.8 134.198 162.3 134.498 162 134.498C162 134.498 162.2 134.698 161.7 134.498C162.4 134.898 161.8 134.898 161.8 135.098C161.8 135.198 162.4 135.598 162.1 135.598C162.7 135.898 162.5 135.898 162.3 135.898C161.6 135.898 161.9 136.298 161.8 136.598C161.6 136.798 161.7 137.098 161.6 137.398C161.6 137.398 161.9 137.598 161.6 137.598C161.3 137.598 161.6 137.698 161.6 137.798C161.6 137.798 161.7 137.898 161.6 137.998C160.9 137.998 161.3 138.398 161.2 138.598C161.2 138.798 161 138.998 161.2 139.198C161.2 139.298 161.6 139.498 161.5 139.598C161.5 139.598 161.8 139.698 161.2 139.698C161 139.698 161.5 139.698 161.5 139.798C161.5 139.798 161.5 139.998 161.5 140.098C161.5 140.198 161.5 140.298 161.5 140.498L161.8 140.698V140.898C161.8 140.898 161.5 141.098 161.4 141.198C161.4 141.298 161.6 141.398 161.4 141.498C160.9 141.698 161.1 141.898 161.1 142.098C161.1 142.298 161.1 142.498 161.1 142.598C161.1 142.598 160.7 142.798 160.7 142.898C160.7 142.898 159.2 143.098 158.7 143.198H158.5C158 143.198 157.3 143.098 157.3 142.898C157.3 142.698 157.3 142.498 157.3 142.298L157.1 141.898Z" fill="black"/>
<path d="M161.899 185.197C161.899 184.497 162.099 183.897 162.099 183.197C162.099 182.897 162.399 182.697 161.899 182.397C161.599 182.197 162.299 182.097 162.299 181.797C162.299 181.197 162.499 180.597 162.499 179.897C162.499 179.297 162.299 178.697 162.299 177.997C162.299 177.397 162.699 176.797 162.299 176.197C162.099 175.697 162.599 175.297 162.499 174.797C162.499 174.297 162.399 173.697 162.699 173.297C162.899 172.997 163.199 172.597 163.099 172.197C163.099 171.997 162.699 171.697 162.799 171.497C162.799 171.297 163.099 170.997 162.499 170.797C162.499 170.797 162.499 170.697 162.699 170.597C163.099 170.397 163.099 170.097 162.899 169.897C162.599 169.697 162.699 169.497 162.699 169.297C162.699 168.797 162.699 168.297 162.799 167.797C162.799 167.397 163.099 167.097 163.199 166.697C163.199 166.297 162.999 165.897 163.399 165.497C163.699 165.097 163.699 164.797 163.799 164.397C163.799 164.197 164.099 163.997 163.499 163.797C163.499 163.797 163.499 163.797 163.499 163.697C164.399 163.197 163.299 162.497 163.499 161.897C163.699 161.297 163.599 160.597 163.599 159.997C163.599 159.797 163.799 159.697 163.299 159.497C163.099 159.497 163.099 159.297 163.299 159.197C163.899 158.797 163.599 158.297 163.699 157.797C163.799 157.297 163.599 156.697 164.099 156.197C164.299 155.997 164.399 155.697 163.899 155.397C163.599 155.297 163.899 154.997 163.899 154.797C163.899 154.597 163.599 154.497 163.599 154.297C163.599 154.197 163.799 153.997 163.999 153.897C163.999 153.897 163.999 153.897 163.999 153.797C163.399 152.997 164.299 152.197 163.999 151.397C163.999 151.197 163.999 150.997 163.999 150.797C163.999 150.597 163.999 150.397 163.999 150.097C163.999 149.297 164.399 148.497 164.799 148.197C164.899 148.197 164.999 148.097 164.999 148.197C164.999 148.197 164.999 148.497 164.999 148.697C164.999 148.797 165.199 148.997 165.299 148.997C165.699 149.197 165.499 149.197 165.599 149.297C165.599 149.397 165.599 149.497 165.599 149.597C165.599 149.797 165.799 149.897 165.999 149.897C166.199 149.897 166.399 149.897 166.699 149.997C166.899 149.997 167.099 150.097 167.299 150.197C167.599 150.197 167.799 150.197 167.899 150.197C167.999 150.097 167.899 149.997 167.899 150.097C167.899 150.097 167.899 150.297 167.999 150.397C167.999 150.497 168.199 150.397 167.999 150.797C167.999 150.997 168.199 151.197 167.699 151.297C167.699 151.297 167.599 151.297 167.699 151.397C168.499 152.097 167.999 152.897 167.999 153.597C167.999 154.197 168.699 154.797 168.399 155.497C168.999 155.897 168.899 156.297 168.699 156.597C167.999 157.797 168.399 159.097 168.299 160.297C168.199 161.497 168.199 162.797 168.099 163.997C168.099 164.197 168.399 164.397 168.099 164.597C167.799 164.797 168.099 165.097 167.999 165.397C167.999 165.597 168.099 165.897 167.999 166.097C167.299 166.997 167.599 167.997 167.499 168.997C167.399 169.997 167.199 170.897 167.299 171.897C167.299 172.497 167.599 173.097 167.499 173.697C167.499 173.897 167.699 174.197 167.099 174.397C166.899 174.397 167.399 174.697 167.399 174.897C167.399 175.297 167.399 175.697 167.399 176.097C167.399 176.697 167.299 177.197 167.299 177.797C167.299 178.097 167.499 178.497 167.499 178.897C167.499 179.297 167.499 179.597 167.399 179.997C167.299 180.497 166.999 180.897 166.899 181.297C166.799 181.797 166.999 182.297 166.699 182.697C166.099 183.497 166.299 184.397 166.099 185.197C165.899 185.997 165.799 186.897 165.799 187.697C165.799 188.197 165.199 188.497 165.199 188.997C165.199 189.197 163.699 189.297 163.199 189.097C163.199 189.097 162.999 189.097 162.999 188.997C162.599 188.497 161.899 187.997 162.099 187.497C162.299 186.797 162.299 185.997 162.399 185.197H161.899Z" fill="black"/>
<path d="M153.099 165.197C152.899 165.197 152.799 165.197 152.599 165.197C152.599 165.197 152.499 164.997 152.499 165.497C152.499 165.797 152.399 165.097 152.299 165.197C152.199 165.197 151.999 165.197 151.899 165.197C151.799 165.197 151.699 165.497 151.499 165.597C151.399 165.597 151.199 165.397 151.099 165.697C151.099 165.997 150.899 165.497 150.799 165.697C150.699 165.797 150.599 165.897 150.399 165.697C150.399 165.497 150.199 165.297 150.099 165.397C150.099 165.397 150.099 165.797 149.999 165.797C149.999 165.797 149.899 165.497 149.899 166.097C149.899 166.097 149.899 166.097 149.899 165.997C149.899 165.597 149.699 165.597 149.699 165.997C149.699 166.297 149.699 166.197 149.599 166.297C149.499 166.297 149.399 166.297 149.199 166.297C149.199 166.297 148.999 165.997 148.899 165.997C148.899 165.997 148.699 166.197 148.599 165.997C148.499 165.697 148.399 165.697 148.299 165.697C148.299 165.697 148.199 165.397 148.199 166.097C147.999 165.297 147.899 166.397 147.799 166.097C147.599 165.897 147.499 166.097 147.399 166.097C147.399 166.097 147.399 165.897 147.299 166.397C147.299 166.597 147.299 166.597 147.299 166.397C147.199 165.797 147.099 166.197 146.999 166.097C146.899 165.997 146.699 166.297 146.599 165.797C146.599 165.597 146.499 165.497 146.399 166.097C146.399 166.397 146.399 166.097 146.299 166.097C146.299 166.097 146.299 166.397 146.199 166.397C146.199 166.397 146.199 166.197 146.199 166.097C145.999 166.797 145.799 165.897 145.599 166.097C145.399 166.297 145.199 166.097 144.999 166.097C144.899 166.097 144.799 165.897 144.799 164.697C144.799 164.197 144.799 163.597 144.799 163.297C144.799 163.097 144.799 162.797 144.899 162.797C144.899 162.697 144.999 162.597 145.099 162.497C145.199 162.297 145.299 161.797 145.399 162.097C145.399 162.097 145.399 161.897 145.499 162.397C145.699 161.597 145.799 162.097 145.999 162.097C146.099 162.097 146.299 161.397 146.399 161.697C146.399 161.097 146.599 161.197 146.599 161.397C146.899 162.097 147.099 161.597 147.399 161.697C147.699 161.697 147.899 161.697 148.199 161.697C148.199 161.697 148.199 161.297 148.299 161.697C148.299 161.997 148.399 161.697 148.499 161.697C148.499 161.697 148.499 161.597 148.699 161.697C148.899 162.297 149.099 161.897 149.299 161.997C149.499 161.997 149.699 162.097 149.899 161.997C149.999 161.897 150.099 161.497 150.199 161.697C150.199 161.697 150.199 161.397 150.399 161.997C150.399 162.197 150.399 161.697 150.399 161.697C150.399 161.697 150.599 161.697 150.699 161.697C150.799 161.697 150.899 161.697 151.099 161.697C151.099 161.697 151.199 161.397 151.299 161.297C151.299 161.297 151.399 161.297 151.499 161.297C151.599 161.297 151.699 161.597 151.799 161.597C151.899 161.597 151.999 161.397 152.099 161.597C152.299 162.097 152.499 161.797 152.699 161.797C152.899 161.797 153.099 161.797 153.199 161.797C153.199 161.797 153.499 162.197 153.599 162.197C153.599 162.197 153.899 163.597 153.999 164.097V164.297C153.999 164.797 153.999 165.497 153.899 165.497C153.699 165.497 153.499 165.497 153.399 165.497L153.099 165.197Z" fill="black"/>
<path d="M131 131.2C132.1 131.3 133.1 131.6 134.2 132.1C134.6 132.3 134.8 132.7 135.5 132.6C135.9 132.6 135.8 133.3 136.1 133.6C136.9 134.4 137.4 135.5 137.7 136.5C138 137.5 138.3 138.5 138.3 139.4C138.3 140.4 137.9 141.2 138 142.1C138 142.9 137.4 143.5 137.2 144.2C137 145 136.7 145.8 136 146.4C135.5 146.8 135 147.1 134.7 147.6C134.5 147.9 134.5 148.4 134.1 148.6C133.8 148.8 133.3 148.8 133.4 149.5C133.4 149.5 133.2 149.5 133.1 149.5C132.5 149.4 132.2 149.6 132 150C131.8 150.4 131.5 150.5 131.2 150.6C130.4 150.9 129.6 151.2 128.7 151.3C128.1 151.3 127.4 151.2 126.8 151.1C126.2 151.1 125.4 151.2 124.9 150.8C124.4 150.4 123.8 150.2 123.3 150.1C123 150 122.8 149.6 122.3 150.1H122.1C121.9 149.5 121.5 149.4 121 149.2C120.5 149.1 120 149 119.7 148.6C119.1 147.8 118.3 147.2 117.7 146.4C117.5 146.2 117.5 145.9 117 145.9C116.8 145.9 116.6 145.7 116.7 145.5C116.9 144.5 116.2 143.9 116.1 142.8C116.1 141.6 116.1 140.4 116.9 139.7C117.2 139.4 117.5 139 117.2 138.4C117.1 138.1 117.5 137.9 117.6 137.6C117.6 137.4 117.6 137 117.8 136.8C117.9 136.6 118.2 136.6 118.5 136.5C118.5 136.5 118.6 136.5 118.6 136.3C118.7 135.6 119.2 135.2 119.8 134.9C120.3 134.6 120.9 134.3 121.4 133.9C122.3 133 123.5 132.5 124.7 132.2C125.4 132 126.1 132 126.8 133.1C127.1 133.6 127.2 134.1 127 134.5C126.9 134.8 126.7 135 126.6 135.1C126.3 135.3 126.1 135.5 125.9 135.7C125.4 136.1 125.1 136.8 124.5 136.8C124.3 136.8 124.3 137.2 123.9 136.8C123.9 136.8 123.8 136.8 123.7 136.8C123.5 137.9 122.6 138 122.1 138.6C121.7 139.1 121.8 140 121.3 140.4C121.7 141 121.4 141.3 121.1 141.4C120.9 141.6 120.7 141.7 120.6 141.9C120.6 142.1 120.6 142.1 120.6 142.3C120.6 142.6 121 143.1 121.3 143.6C121.9 144.7 122.9 145.4 124 146C124.2 146.1 124.5 145.8 124.6 146.2C124.7 146.5 125.1 146.4 125.3 146.5C125.5 146.5 125.8 146.5 126 146.7C126.4 147.1 126.9 147.2 127.4 147.2C127.9 147.2 128.4 147 128.9 146.9C129.9 146.7 130.8 146.3 131.5 145.6C131.9 145.1 132 144.5 132.4 144.1C132.6 143.9 132.4 143.6 133.1 143.6C133.3 143.6 133 143.2 133.1 143C133.2 142.6 133.4 142.2 133.5 141.8C133.7 141.2 133.8 140.6 133.9 140C133.9 139.6 133.7 139.3 133.6 138.9C133.6 138.6 133.6 138.2 133.6 137.9C133.6 137.5 133.7 137.1 133.6 136.8C133.5 136.5 133.1 136.4 133.1 136C133.1 135.6 132.8 135.3 132.4 135.2C132.1 135 131.7 135 131.3 134.9C130.5 134.7 129.6 134.7 128.7 134.9C128.2 135 127.6 134.7 127 134.8C126.7 134.8 126 133.5 126 133C126 133 126 132.8 126 132.7C126.5 132.1 126.9 131.3 127.6 131.2C128.7 131.1 129.8 130.9 131 131V131.2Z" fill="black"/>
<path d="M120.199 100.6C120.199 101.2 120.199 101.8 120.399 102.3C120.399 102.5 120.199 102.8 120.799 102.9C121.099 102.9 120.499 103.3 120.499 103.4C120.599 103.9 120.499 104.5 120.699 105C120.799 105.5 121.099 106 121.199 106.5C121.299 107 121.099 107.6 121.499 108C121.799 108.4 121.399 108.8 121.499 109.2C121.699 109.6 121.799 110 121.699 110.5C121.599 110.8 121.399 111.2 121.599 111.5C121.599 111.7 121.999 111.8 122.099 112C122.099 112.2 121.899 112.5 122.499 112.5C122.499 112.5 122.499 112.6 122.399 112.7C121.999 113 122.099 113.2 122.399 113.3C122.699 113.4 122.699 113.6 122.699 113.7C122.799 114.1 122.899 114.5 122.999 115C122.999 115.3 122.899 115.7 122.899 116C122.899 116.3 123.299 116.6 123.099 117C122.899 117.4 122.999 117.7 123.099 118C123.099 118.2 122.899 118.4 123.599 118.4C123.599 118.4 123.599 118.4 123.599 118.5C122.899 119.2 124.099 119.4 124.099 119.9C124.099 120.5 124.399 120.9 124.499 121.4C124.499 121.5 124.499 121.7 124.899 121.7C125.099 121.7 125.099 121.8 124.999 121.9C124.499 122.5 124.999 122.8 124.999 123.2C124.999 123.7 125.399 124.1 125.099 124.7C124.999 125 124.899 125.3 125.599 125.3C125.899 125.3 125.599 125.6 125.799 125.8C125.799 125.9 126.199 126 126.199 126.1C126.199 126.2 125.999 126.4 125.999 126.6C125.999 126.6 125.999 126.6 125.999 126.7C126.799 127.3 126.099 128.2 126.399 128.9C126.699 129.6 126.699 130.4 126.699 131.2C126.699 131.6 126.499 132.1 125.399 132.4C124.899 132.5 124.299 132.5 123.999 132.4C123.799 132.3 123.499 132.2 123.499 132C123.399 131.8 123.199 131.6 123.099 131.4C122.899 131 122.299 130.7 122.499 130.2C122.499 130.1 122.199 129.9 122.699 129.8C122.699 129.8 122.699 129.8 122.699 129.7C121.799 129.3 122.199 128.6 121.999 128C121.799 127.5 121.099 127.2 121.199 126.6C120.499 126.5 120.499 126.2 120.599 125.8C120.999 124.6 120.199 123.8 119.999 122.7C119.799 121.6 119.299 120.6 119.099 119.5C119.099 119.3 118.699 119.3 118.899 119C119.099 118.7 118.899 118.5 118.799 118.3C118.799 118.1 118.599 117.9 118.699 117.6C119.099 116.6 118.599 115.9 118.499 115C118.399 114.1 118.299 113.3 117.999 112.5C117.799 112 117.399 111.5 117.399 111C117.399 110.8 116.999 110.6 117.599 110.3C117.799 110.3 117.299 110.1 117.199 109.9C117.199 109.6 117.099 109.2 116.999 108.8C116.999 108.3 116.999 107.8 116.799 107.3C116.799 107 116.399 106.7 116.399 106.4C116.399 106.1 116.299 105.8 116.299 105.5C116.299 105.1 116.499 104.7 116.499 104.3C116.499 103.9 116.199 103.5 116.499 103.1C116.899 102.3 116.599 101.6 116.599 100.9C116.599 100.2 116.599 99.4002 116.399 98.7002C116.299 98.3002 116.799 97.9002 116.699 97.5002C116.699 97.3002 118.099 96.9002 118.599 97.0002H118.799C119.299 97.4002 119.999 97.7002 119.999 98.1002C119.999 98.8002 119.999 99.4002 120.099 100.1L120.199 100.6Z" fill="black"/>
<path d="M118.4 94.3986C118.8 93.9986 119.2 93.5986 119.5 93.0986C119.6 92.8986 119.9 92.8986 119.5 92.3986C119.3 92.1986 120 92.3986 120 92.0986C120.2 91.5986 120.5 91.0986 120.6 90.5986C120.6 90.0986 120.6 89.5986 120.5 89.1986C120.5 88.7986 120.7 88.3986 120.3 88.2986C120.1 88.2986 120.2 88.1986 120.2 88.0986C120.2 87.9986 120.2 87.8986 120.2 87.7986C120 87.7986 119.8 87.7986 119.6 87.3986C119.5 87.1986 119.3 86.8986 119 86.9986C118.8 86.9986 118.6 87.2986 118.5 87.2986C118.3 87.2986 118.1 86.9986 118 87.5986C118 87.5986 118 87.5986 117.9 87.4986C117.7 87.0986 117.4 87.0986 117.3 87.4986C117.2 87.7986 117 87.7986 116.9 87.7986C116.5 87.8986 116 87.9986 115.6 88.0986C115.3 88.0986 114.9 87.9986 114.5 88.0986C114.1 88.0986 113.9 88.4986 113.4 88.3986C113 88.1986 112.7 88.3986 112.4 88.4986C112.2 88.4986 111.9 88.4986 112.1 88.9986C111.7 88.6986 111.5 88.9986 111.4 89.1986C111.4 89.3986 111.4 89.6986 111.2 89.6986C110.8 89.6986 110.9 90.0986 110.9 90.0986C110.9 90.0986 110.7 90.0986 111.2 90.0986C111.4 90.0986 111.4 90.0986 111.2 90.0986C110.6 90.2986 111.1 90.5986 111.1 90.8986C111.1 91.2986 111.6 91.5986 111.5 92.1986C111.5 92.4986 111.5 92.7986 112.1 92.5986C112.4 92.5986 112.3 92.7986 112.5 92.8986C112.6 92.8986 112.9 92.8986 113 92.8986C113 92.8986 113 93.1986 113 93.3986C113.9 93.3986 113.8 94.3986 114.5 94.5986C115.2 94.7986 115.7 95.0986 116.3 95.3986C116.6 95.5986 116.9 95.7986 117 96.9986C117 97.4986 117 98.0986 116.7 98.3986C116.5 98.5986 116.3 98.7986 116.1 98.7986C115.8 98.7986 115.5 98.7986 115.2 98.7986C114.6 98.7986 113.8 99.0986 113.3 98.4986C113.2 98.2986 112.8 98.4986 112.9 97.9986V97.8986C111.8 98.1986 111.3 97.1986 110.6 96.6986C110 96.2986 109.1 96.1986 108.8 95.3986C108 95.3986 107.8 94.9986 107.7 94.4986C107.6 93.6986 107.3 92.9986 106.9 92.2986C106.6 91.5986 106.2 90.5986 106.4 89.3986C106.6 88.1986 107.1 87.1986 107.8 86.4986C108.4 85.7986 109.1 85.2986 109.8 84.8986C110 84.7986 110.1 84.2986 110.5 84.4986C110.9 84.5986 111.1 84.2986 111.4 84.1986C111.7 84.0986 111.9 83.8986 112.2 83.8986C113.4 84.0986 114.4 83.4986 115.5 83.2986C116.6 83.1986 117.7 83.0986 118.9 82.9986C119.6 82.9986 120.5 82.6986 121.3 83.0986C121.6 83.2986 122.2 83.0986 122.2 83.7986C122.2 83.9986 122.8 83.7986 123 83.8986C123.6 84.2986 124 84.7986 124.4 85.3986C124.9 86.1986 125.2 87.0986 125.3 87.8986C125.4 88.3986 125.7 88.8986 125.7 89.3986C125.7 89.8986 125.7 90.3986 125.5 90.8986C125.3 91.4986 124.9 91.9986 124.6 92.4986C124.3 92.9986 124.3 93.6986 123.8 93.9986C122.9 94.5986 122.5 95.5986 121.8 96.2986C121.1 96.9986 120.3 97.5986 119.6 98.2986C119.2 98.6986 118.5 98.4986 118 98.7986C117.8 98.8986 116.8 97.6986 116.7 97.1986V96.9986C116.9 96.3986 116.8 95.5986 117.2 95.3986C117.8 95.0986 118.3 94.5986 118.7 94.1986L118.4 94.3986Z" fill="black"/>
<path d="M144.401 110.698C144.401 110.498 144.401 110.198 144.401 109.998C144.401 109.998 144.601 109.798 144.101 109.798C143.801 109.798 144.501 109.598 144.401 109.498C144.401 109.298 144.401 108.998 144.301 108.798C144.301 108.598 144.001 108.398 143.901 108.198C143.901 107.998 144.101 107.698 143.701 107.598C143.401 107.498 143.901 107.198 143.701 107.098C143.601 106.898 143.401 106.798 143.701 106.498C143.901 106.298 144.101 106.198 143.901 106.098C143.901 106.098 143.501 105.998 143.501 105.898C143.501 105.898 143.801 105.698 143.101 105.698C143.101 105.698 143.101 105.698 143.201 105.698C143.601 105.598 143.501 105.398 143.201 105.398C142.901 105.398 142.901 105.398 142.901 105.198C142.901 104.998 142.801 104.798 142.901 104.698C142.901 104.598 143.101 104.398 143.201 104.198C143.201 103.998 142.901 103.898 143.201 103.798C143.501 103.598 143.401 103.498 143.401 103.398C143.401 103.398 143.701 103.198 143.001 103.198C143.801 102.798 142.701 102.798 142.801 102.598C143.001 102.298 142.801 102.098 142.801 101.898C142.801 101.898 143.001 101.698 142.501 101.798C142.301 101.798 142.301 101.798 142.501 101.798C143.101 101.498 142.701 101.398 142.701 101.198C142.701 100.998 142.501 100.898 142.901 100.598C143.101 100.498 143.201 100.298 142.601 100.398C142.301 100.398 142.601 100.298 142.501 100.198C142.501 100.198 142.201 100.198 142.101 100.198C142.101 100.198 142.301 100.098 142.401 99.9984C141.701 99.8984 142.401 99.3984 142.301 99.1984C142.101 98.9984 142.101 98.6984 142.101 98.3984C142.101 98.1984 142.301 97.9984 143.301 97.6984C143.801 97.4984 144.301 97.3984 144.701 97.3984C144.901 97.3984 145.201 97.3984 145.301 97.3984C145.401 97.3984 145.601 97.4984 145.701 97.5984C145.901 97.6984 146.501 97.7984 146.301 98.0984C146.301 98.0984 146.501 98.0984 146.101 98.2984C146.901 98.2984 146.501 98.7984 146.601 98.9984C146.601 99.1984 147.401 99.2984 147.101 99.5984C147.701 99.5984 147.701 99.7984 147.501 99.8984C146.901 100.498 147.501 100.798 147.501 101.298C147.501 101.798 147.701 102.198 147.701 102.698C147.701 102.698 148.101 102.698 147.801 102.898C147.601 102.998 147.801 103.098 147.801 103.198C147.801 103.198 148.001 103.398 147.801 103.498C147.201 103.998 147.701 104.298 147.601 104.598C147.601 104.998 147.601 105.298 147.801 105.698C147.901 105.898 148.301 106.098 148.201 106.298C148.201 106.398 148.501 106.498 147.901 106.598C147.701 106.598 148.201 106.598 148.201 106.698C148.201 106.798 148.201 106.998 148.201 107.098C148.201 107.298 148.201 107.498 148.201 107.698C148.201 107.798 148.501 107.898 148.601 107.998C148.601 108.098 148.601 108.298 148.601 108.398C148.601 108.598 148.401 108.798 148.301 108.898C148.301 109.098 148.501 109.198 148.301 109.398C147.801 109.798 148.101 109.998 148.101 110.398C148.101 110.698 148.101 110.998 148.201 111.298C148.201 111.498 147.801 111.698 147.801 111.798C147.801 111.798 146.301 112.098 145.801 112.098H145.601C145.101 111.998 144.401 111.898 144.401 111.698C144.401 111.398 144.401 111.198 144.401 110.898V110.698Z" fill="black"/>
<path d="M144.3 93.8997C144.7 93.4997 145.1 93.0997 145.4 92.5997C145.5 92.3997 145.8 92.3997 145.5 91.8997C145.3 91.6997 146 91.8997 146 91.6997C146.2 91.2997 146.5 90.8997 146.6 90.3997C146.7 89.8997 146.6 89.5997 146.6 89.1997C146.6 88.9997 146.6 88.8997 146.6 88.6997C146.6 88.5997 146.6 88.3997 146.4 88.4997C146.4 88.4997 146.4 88.2997 146.4 88.3997C146.4 88.3997 146.4 88.3997 146.4 88.1997C146.3 87.9997 146 87.6997 145.7 87.7997C145.5 87.7997 145.3 88.0997 145.1 88.0997C144.9 88.0997 144.7 87.7997 144.6 88.3997C144.6 88.3997 144.6 88.3997 144.5 88.1997C144.3 87.7997 144.1 87.7997 143.9 88.1997C143.8 88.4997 143.6 88.3997 143.5 88.4997C143.1 88.4997 142.8 88.5997 142.4 88.6997C142.1 88.6997 141.8 88.4997 141.5 88.5997C141.2 88.5997 141 88.9997 140.6 88.7997C140.2 88.5997 140 88.7997 139.7 88.7997C139.6 88.7997 139.3 88.7997 139.5 89.2997C139.1 89.0997 139 89.2997 138.9 89.4997C138.9 89.6997 138.9 89.9997 138.7 89.9997C138.3 89.9997 138.3 90.3997 138.3 90.4997C138.3 90.4997 138.1 90.4997 138.6 90.6997C138.8 90.6997 138.8 90.6997 138.6 90.6997C138 90.7997 138.4 90.9997 138.3 91.1997C138.3 91.4997 138.7 91.6997 138.5 92.1997C138.5 92.3997 138.5 92.6997 139.1 92.4997C139.4 92.4997 139.3 92.6997 139.4 92.7997C139.5 92.7997 139.8 92.7997 139.9 92.7997C139.9 92.7997 139.9 93.0997 139.9 93.2997C140.3 93.2997 140.5 93.4997 140.6 93.7997C140.7 94.0997 140.8 94.2997 141.1 94.3997C141.6 94.3997 141.9 94.5997 142.2 94.7997C142.4 94.7997 142.5 94.9997 143 96.0997C143.2 96.5997 143.4 97.0997 143.3 97.4997C143.3 97.7997 143.1 97.9997 142.9 98.0997C142.6 98.1997 142.3 98.3997 142 98.3997C141.4 98.5997 140.6 98.8997 140 98.3997C139.8 98.1997 139.5 98.3997 139.6 97.8997V97.7997C138.5 98.0997 138 97.0997 137.5 96.5997C137 96.1997 136.1 96.0997 135.9 95.3997C135.2 95.3997 135 94.9997 134.9 94.5997C134.8 93.7997 134.5 93.0997 134.3 92.2997C134.1 91.4997 133.9 90.4997 134.1 89.5997C134.3 88.5997 134.8 87.7997 135.3 87.0997C135.8 86.3997 136.5 85.8997 137.1 85.4997C137.3 85.3997 137.3 84.8997 137.7 84.9997C138.1 84.9997 138.3 84.7997 138.5 84.5997C138.7 84.4997 139 84.1997 139.3 84.2997C140.5 84.4997 141.4 83.8997 142.4 83.7997C143.4 83.7997 144.5 83.7997 145.5 83.6997C146.1 83.6997 146.8 83.3997 147.5 83.6997C147.7 83.6997 147.8 83.6997 148 83.7997C148.2 83.7997 148.4 83.9997 148.4 84.3997C148.4 84.5997 149 84.3997 149.2 84.4997H149.4C149.9 84.9997 150.3 85.4997 150.6 85.9997C151.1 86.7997 151.2 87.7997 151.3 88.5997C151.3 89.0997 151.6 89.4997 151.5 89.9997C151.5 90.4997 151.4 90.9997 151.2 91.3997C150.9 91.8997 150.6 92.2997 150.3 92.6997C150 93.0997 150 93.7997 149.5 93.9997C148.6 94.4997 148.3 95.2997 147.6 95.8997C147 96.4997 146.4 96.9997 145.9 97.6997C145.6 98.0997 145 97.9997 144.7 98.2997C144.6 98.3997 143.4 97.4997 143.1 97.0997V96.8997C143.1 96.2997 142.9 95.4997 143.3 95.1997C143.8 94.7997 144.3 94.2997 144.7 93.7997L144.3 93.8997Z" fill="black"/>
</svg>
