<svg width="300" height="300" viewBox="0 0 300 300" fill="none" xmlns="http://www.w3.org/2000/svg">
<path d="M184.1 141C183.7 140.6 183.4 140.2 183 139.8C182.8 139.7 183 139.3 182.4 139.6C182.1 139.7 182.4 139.1 182.4 139C182 138.7 181.7 138.3 181.3 137.9C180.9 137.6 180.4 137.4 180.1 137.1C179.7 136.8 179.6 136.2 179.1 136.1C178.6 136 178.7 135.4 178.4 135.2C178 135 177.7 134.7 177.6 134.3C177.6 134 177.5 133.6 177.2 133.5C177 133.5 176.7 133.5 176.6 133.4C176.5 133.3 176.6 132.9 176 133.2C176 133.2 176 133.1 176 133C176.2 132.6 176 132.4 175.7 132.5C175.4 132.5 175.3 132.5 175.2 132.3C174.9 132 174.6 131.7 174.4 131.4C174.2 131.1 174.2 130.8 174 130.5C173.8 130.2 173.4 130.2 173.4 129.7C173.4 129.3 173.2 129.1 173 128.9C172.9 128.8 173 128.4 172.4 128.8C172.7 127.9 171.6 128.3 171.4 127.8C171.2 127.3 170.8 127 170.4 126.7C170.4 126.7 170.4 126.4 169.9 126.7C169.8 126.7 169.6 126.7 169.7 126.6C169.9 125.9 169.4 125.9 169.2 125.5C169 125.1 168.5 125 168.5 124.3C168.5 124 168.5 123.8 167.9 124C167.6 124.1 167.7 123.8 167.5 123.7C167.4 123.7 167.1 123.7 167 123.7C167 123.7 167 123.4 167 123.2C166.1 123.2 166.3 122.1 165.7 121.8C165.1 121.5 164.7 120.9 164.4 120.4C164.2 120.1 164.1 119.7 164.8 118.8C165.1 118.4 165.5 118 165.8 117.9C166.1 117.9 166.3 117.8 166.4 117.9C166.6 117.9 166.8 118 167 118.1C167.4 118.3 168.1 118.1 168.2 118.7C168.2 118.9 168.6 118.7 168.2 119.2V119.3C169.2 119.2 169.2 120 169.6 120.3C170 120.6 170.8 120.5 170.9 121.1C171.5 120.9 171.7 121.1 171.7 121.5C171.9 122.7 172.9 123.1 173.5 123.8C174.1 124.6 174.8 125.2 175.5 126C175.6 126.1 176 126 175.9 126.3C175.9 126.6 176.1 126.6 176.3 126.8C176.4 126.9 176.7 127 176.7 127.2C176.7 128.2 177.6 128.5 178 129.1C178.5 129.7 179 130.3 179.6 130.8C180 131.1 180.6 131.2 180.8 131.6C180.8 131.8 181.3 131.7 181 132.3C181 132.5 181.4 132.3 181.5 132.3C181.8 132.5 182 132.8 182.2 133C182.5 133.3 182.8 133.7 183.1 134C183.3 134.2 183.7 134.2 183.9 134.4C184.1 134.6 184.3 134.8 184.5 135C184.7 135.3 184.8 135.7 185 136C185.2 136.3 185.7 136.4 185.7 136.9C185.7 137.7 186.4 138 186.8 138.6C187.2 139.1 187.6 139.6 188.2 140C188.5 140.2 188.4 140.8 188.6 141.1C188.7 141.2 187.8 142.4 187.4 142.7L187.2 142.8C186.6 142.8 185.9 143.1 185.6 142.8C185.2 142.3 184.8 141.9 184.4 141.5L184.1 141Z" fill="black"/>
<path d="M114.4 137.801C114.4 138.701 114.4 139.601 114.4 140.501C114.4 140.801 114.2 141.201 114.7 141.501C115 141.701 114.3 142.001 114.4 142.301C114.4 143.101 114.4 144.001 114.6 144.801C114.7 145.601 115 146.401 115.1 147.201C115.2 148.001 115 148.801 115.4 149.601C115.7 150.201 115.3 150.901 115.4 151.501C115.6 152.201 115.7 152.901 115.6 153.501C115.5 154.001 115.3 154.501 115.5 155.001C115.6 155.301 116 155.501 116 155.901C116 156.201 115.8 156.601 116.4 156.801C116.4 156.801 116.4 157.001 116.3 157.001C115.9 157.401 116 157.801 116.3 158.001C116.6 158.201 116.6 158.501 116.6 158.701C116.7 159.401 116.8 160.101 116.9 160.701C116.9 161.201 116.8 161.801 116.8 162.301C116.8 162.801 117.2 163.401 117 163.901C116.8 164.401 116.9 164.901 117 165.401C117 165.701 116.8 166.001 117.5 166.201C117.5 166.201 117.5 166.301 117.5 166.401C116.8 167.301 118 167.901 117.9 168.701C117.9 169.501 118.1 170.401 118.3 171.201C118.3 171.401 118.3 171.701 118.7 171.801C118.9 171.801 118.9 172.101 118.8 172.201C118.3 172.901 118.8 173.501 118.8 174.101C118.8 174.801 119.2 175.501 118.8 176.301C118.7 176.601 118.6 177.101 119.3 177.301C119.6 177.401 119.3 177.801 119.5 178.101C119.5 178.301 119.9 178.501 119.9 178.701C119.9 178.901 119.7 179.101 119.7 179.301C119.7 179.301 119.7 179.401 119.7 179.501C120.5 180.401 119.9 181.601 120.2 182.601C120.6 183.601 120.7 184.701 120.8 185.801C120.8 186.401 120.8 187.001 119.7 187.601C119.2 187.901 118.7 188.001 118.3 187.801C118 187.701 117.8 187.501 117.7 187.301C117.5 187.001 117.4 186.701 117.2 186.401C116.9 185.801 116.2 185.201 116.4 184.401C116.4 184.201 116.1 184.001 116.6 183.701C116.6 183.701 116.6 183.601 116.6 183.501C115.6 182.701 116 181.601 115.7 180.701C115.5 179.901 114.7 179.201 114.8 178.401C114.1 178.101 114.1 177.501 114.2 177.001C114.6 175.301 113.8 173.701 113.6 172.101C113.4 170.401 113 168.801 112.8 167.201C112.8 166.901 112.4 166.701 112.6 166.401C112.8 166.101 112.6 165.701 112.5 165.301C112.5 165.001 112.3 164.601 112.4 164.301C112.9 162.901 112.3 161.701 112.2 160.401C112.2 159.101 112 157.801 111.7 156.501C111.5 155.701 111.1 155.001 111.1 154.201C111.1 153.901 110.7 153.501 111.3 153.101C111.5 153.001 111 152.701 110.9 152.501C110.8 152.001 110.8 151.401 110.7 150.901C110.7 150.101 110.7 149.401 110.5 148.601C110.5 148.101 110.1 147.701 110 147.201C109.9 146.701 109.9 146.201 110 145.701C110 145.101 110.2 144.501 110.2 143.801C110.2 143.201 109.9 142.501 110.2 141.901C110.7 140.701 110.4 139.601 110.4 138.501C110.4 137.401 110.4 136.201 110.4 135.101C110.4 134.501 110.8 133.901 110.9 133.301C110.9 133.001 112.4 132.701 112.9 132.801C112.9 132.801 113.1 132.801 113.1 132.901C113.6 133.501 114.3 134.101 114.2 134.801C114.2 135.801 114.2 136.801 114.2 137.801H114.4Z" fill="black"/>
<path d="M166.1 147.298C166.5 147.098 166.8 146.998 167.2 146.698C167.3 146.698 167.6 146.698 167.5 146.198C167.5 145.898 167.9 146.398 168 146.398C168.3 146.198 168.7 146.098 169 145.898C169.3 145.698 169.5 145.298 169.8 145.098C170.1 144.898 170.6 145.098 170.8 144.598C171 144.198 171.4 144.598 171.6 144.298C171.8 144.098 172.1 143.898 172.5 143.998C172.8 143.998 173.1 144.198 173.2 143.998C173.2 143.898 173.2 143.498 173.4 143.498C173.5 143.498 173.8 143.698 173.7 142.998C173.7 142.998 173.7 142.998 173.9 142.998C174.2 143.298 174.4 143.198 174.4 142.998C174.4 142.698 174.5 142.698 174.6 142.598C174.9 142.498 175.2 142.298 175.5 142.298C175.7 142.298 176 142.298 176.3 142.298C176.5 142.298 176.7 141.898 177 142.098C177.3 142.298 177.5 142.198 177.7 142.098C177.8 142.098 178.1 142.298 177.9 141.598C178.5 142.298 178.5 141.098 178.9 141.198C179.3 141.198 179.6 140.998 180 140.898C180 140.898 180.3 140.998 180.2 140.498C180.2 140.298 180.2 140.298 180.4 140.398C180.9 140.898 181 140.398 181.3 140.398C181.6 140.398 181.9 139.998 182.3 140.398C182.5 140.598 182.7 140.598 182.7 139.998C182.7 139.698 182.9 139.998 183 139.798C183 139.798 183 139.398 183.2 139.398C183.2 139.398 183.4 139.598 183.5 139.698C183.8 138.898 184.5 139.698 184.9 139.298C185.3 138.998 185.8 138.898 186.3 138.898C186.6 138.898 186.9 138.898 187.4 139.998C187.6 140.498 187.8 140.998 187.7 141.398C187.7 141.698 187.7 141.898 187.6 141.998C187.5 142.098 187.4 142.298 187.3 142.398C187.1 142.698 186.9 143.298 186.6 143.098C186.5 143.098 186.5 143.398 186.2 142.898C186 143.798 185.5 143.398 185.1 143.598C184.8 143.798 184.6 144.498 184.2 144.298C184.2 144.998 184 144.898 183.7 144.798C182.8 144.398 182.3 144.998 181.6 145.198C180.9 145.298 180.3 145.698 179.6 145.898C179.5 145.898 179.6 146.298 179.3 146.098C179.1 145.898 179 146.098 178.8 146.198C178.7 146.198 178.6 146.398 178.4 146.298C177.6 145.898 177.3 146.498 176.7 146.598C176.2 146.698 175.6 146.898 175.2 147.298C174.9 147.498 174.8 147.998 174.4 147.998C174.2 147.998 174.2 148.398 173.9 147.898C173.8 147.798 173.9 148.198 173.8 148.298C173.6 148.398 173.4 148.498 173.2 148.598C172.9 148.698 172.6 148.798 172.3 148.998C172.1 149.098 172.1 149.398 171.9 149.598C171.7 149.698 171.6 149.798 171.3 149.898C171 149.898 170.7 149.898 170.4 149.898C170.1 149.898 170 150.298 169.6 150.198C168.9 149.998 168.6 150.398 168.2 150.598C167.7 150.798 167.3 150.898 166.9 151.298C166.7 151.498 166.2 151.198 166 151.298C165.9 151.298 165.1 150.098 164.9 149.698V149.498C164.9 148.998 164.8 148.198 165.1 148.098C165.5 147.998 165.9 147.698 166.3 147.498L166.1 147.298Z" fill="black"/>
<path d="M168.6 166.202C168.6 165.902 168.5 165.502 168.3 165.202C168.3 165.102 168.5 164.902 167.9 164.902C167.6 164.902 168.2 164.602 168.2 164.502C168.1 164.202 168.1 163.902 167.9 163.602C167.8 163.302 167.5 163.102 167.3 162.802C167.2 162.502 167.3 162.102 167 161.902C166.7 161.702 167.1 161.402 167 161.202C166.8 161.002 166.7 160.702 166.8 160.402C166.9 160.202 167.1 160.002 166.9 159.802C166.9 159.802 166.5 159.702 166.5 159.602C166.5 159.502 166.7 159.302 166.1 159.302C166.1 159.302 166.1 159.302 166.2 159.202C166.6 159.002 166.5 158.802 166.2 158.802C165.9 158.802 165.9 158.702 165.9 158.602C165.9 158.402 165.7 158.102 165.7 157.902C165.7 157.702 165.9 157.502 165.9 157.302C165.9 157.102 165.6 157.002 165.9 156.702C166.2 156.402 166.1 156.302 166 156.102C166 156.102 166.2 155.802 165.6 155.902C166.3 155.402 165.2 155.402 165.3 155.102C165.4 154.802 165.3 154.502 165.1 154.202C165.1 154.202 165.2 154.002 164.8 154.002C164.6 154.002 164.6 154.002 164.7 153.902C165.2 153.502 164.8 153.402 164.9 153.102C164.9 152.802 164.6 152.602 164.9 152.202C165.1 152.002 165.1 151.902 164.5 151.902C164.2 151.902 164.5 151.702 164.4 151.602C164.4 151.602 164 151.602 164 151.502C164 151.502 164.2 151.302 164.3 151.202C163.6 151.002 164.3 150.402 164 150.102C163.7 149.802 163.7 149.402 163.6 149.002C163.6 148.802 163.6 148.502 164.7 148.002C165.2 147.802 165.7 147.602 166 147.602C166.2 147.602 166.5 147.602 166.6 147.602C166.7 147.602 166.9 147.802 167 147.902C167.3 148.102 167.9 148.202 167.7 148.502C167.7 148.602 168 148.602 167.5 148.802C168.4 148.902 168 149.402 168.1 149.802C168.2 150.102 168.9 150.202 168.7 150.602C169.4 150.602 169.3 150.802 169.2 151.002C168.7 151.802 169.3 152.202 169.4 152.902C169.4 153.502 169.7 154.102 169.8 154.702C169.8 154.802 170.2 154.802 170 155.002C169.8 155.202 170 155.302 170 155.402C170 155.502 170.2 155.602 170 155.802C169.5 156.402 170 156.802 170 157.302C170 157.802 170 158.302 170.4 158.702C170.6 159.002 171 159.202 170.9 159.502C170.9 159.602 171.2 159.702 170.7 159.902C170.5 159.902 171 159.902 171.1 160.102C171.1 160.302 171.2 160.502 171.3 160.702C171.3 161.002 171.3 161.302 171.5 161.502C171.5 161.702 171.9 161.802 172 161.902C172.1 162.102 172.1 162.202 172.1 162.402C172.1 162.602 171.9 162.902 171.9 163.102C171.9 163.302 172.2 163.502 172 163.802C171.6 164.302 172 164.702 172 165.102C172 165.502 172.1 165.902 172.3 166.302C172.4 166.502 172 166.802 172.1 167.102C172.1 167.102 170.7 167.702 170.2 167.802H170C169.5 167.802 168.7 167.802 168.7 167.402C168.7 167.002 168.5 166.702 168.4 166.302L168.6 166.202Z" fill="black"/>
<path d="M162.2 186.199C162.3 185.799 162.5 185.399 162.5 184.999C162.5 184.799 162.8 184.799 162.4 184.499C162.2 184.299 162.8 184.399 162.8 184.199C162.8 183.799 163.1 183.499 163.1 183.099C163.1 182.699 163.1 182.299 163.1 181.899C163.1 181.499 163.6 181.299 163.4 180.799C163.2 180.399 163.8 180.299 163.8 179.999C163.8 179.699 163.8 179.299 164.1 179.099C164.3 178.899 164.6 178.799 164.6 178.599C164.6 178.399 164.3 178.199 164.4 178.099C164.4 177.999 164.8 177.899 164.2 177.599C164.2 177.599 164.2 177.599 164.4 177.599C164.8 177.599 164.9 177.399 164.6 177.199C164.4 176.999 164.5 176.899 164.5 176.799C164.5 176.499 164.6 176.199 164.8 175.899C164.9 175.699 165.2 175.599 165.4 175.399C165.5 175.199 165.4 174.899 165.7 174.699C166.1 174.599 166.1 174.399 166.2 174.199C166.2 174.099 166.6 173.999 166 173.699C166.9 173.699 166 172.999 166.3 172.699C166.6 172.399 166.6 171.999 166.7 171.699C166.7 171.699 166.9 171.599 166.5 171.299C166.4 171.299 166.4 171.099 166.5 171.099C167.2 171.099 166.9 170.599 167.1 170.399C167.3 170.099 167.1 169.699 167.7 169.599C167.9 169.599 168.1 169.399 167.6 169.099C167.4 168.899 167.6 168.899 167.6 168.799C167.6 168.699 167.3 168.499 167.4 168.399C167.4 168.399 167.7 168.399 167.8 168.299C167.3 167.699 168.3 167.499 168.2 166.999C168.2 166.699 168.2 166.599 168.2 166.299C168.2 165.999 168.4 165.699 168.6 165.299C168.8 164.899 169.3 164.499 170.4 165.099C170.9 165.299 171.3 165.699 171.5 165.999C171.6 166.199 171.8 166.399 171.8 166.499C171.8 166.599 171.9 166.799 172 166.899C172.1 167.099 172.6 167.399 172.2 167.699C172.1 167.699 172.3 167.999 171.8 167.899C172.5 168.499 171.8 168.899 171.8 169.299C171.8 169.699 172.2 170.199 171.8 170.499C172.3 170.899 172.2 171.099 171.9 171.199C171 171.699 171.2 172.499 170.9 173.199C170.6 173.899 170.4 174.599 170.1 175.299C170.1 175.399 170.4 175.599 170.1 175.699C169.8 175.699 169.9 175.999 169.9 176.099C169.9 176.199 169.9 176.399 169.7 176.499C168.9 176.799 169.1 177.499 168.8 177.999C168.5 178.499 168.3 178.999 168.3 179.599C168.3 179.999 168.5 180.399 168.3 180.699C168.2 180.799 168.5 181.099 167.9 180.999C167.7 180.999 168.1 181.299 168.1 181.399C168.1 181.599 168 181.899 167.9 182.099C167.8 182.399 167.6 182.699 167.6 183.099C167.6 183.299 167.7 183.599 167.7 183.799C167.7 183.999 167.7 184.199 167.5 184.399C167.3 184.599 167.1 184.799 166.9 185.099C166.8 185.299 166.9 185.699 166.6 185.899C166 186.199 166.1 186.799 165.9 187.199C165.7 187.599 165.5 188.099 165.5 188.599C165.5 188.899 165 188.999 164.9 189.199C164.9 189.299 163.4 189.199 162.9 188.999H162.7C162.3 188.599 161.7 188.199 161.8 187.899C162 187.399 162.1 186.999 162.2 186.499V186.199Z" fill="black"/>
<path d="M161.8 168C161.4 168.4 161 168.7 160.5 169.1C160.3 169.2 160 169.1 160.1 169.7C160.1 170 159.7 169.5 159.5 169.7C159.1 170 158.6 170 158.1 170.2C157.7 170.4 157.2 170.7 156.8 170.7C156.3 170.7 155.9 170.5 155.4 170.7C155 170.9 154.7 170.4 154.3 170.4C153.9 170.4 153.4 170.4 153.2 170C153 169.7 152.8 169.4 152.5 169.4C152.3 169.4 152 169.6 151.9 169.4C151.7 169.3 151.7 169 151.2 169.4C151.2 169.4 151.2 169.3 151.2 169.2C151.2 168.8 151.1 168.6 150.8 168.8C150.5 168.9 150.4 168.8 150.3 168.8C150 168.6 149.8 168.5 149.7 168.3C149.7 168.3 149.7 168.1 149.7 168C149.7 168 149.6 168.2 149.5 167.9C149.5 167.6 149.3 167.6 149.1 167.6C149.1 167.6 148.9 167.3 148.8 167.9C148.5 167.1 148.1 168.1 147.8 167.9C147.5 167.7 147.1 167.9 146.8 167.9C146.8 167.9 146.6 167.7 146.5 168.2C146.5 168.4 146.4 168.4 146.3 168.2C146 167.6 145.8 168 145.6 167.9C145.3 167.9 145.1 168.1 144.8 167.7C144.7 167.5 144.5 167.4 144.5 168C144.5 168.3 144.3 168 144.3 168.1C144.3 168.1 144.3 168.4 144.3 168.5C144.3 168.5 144.1 168.3 144 168.2C144 168.9 143.3 168.2 143.1 168.6C142.9 168.9 142.7 169 142.4 169.1C142.3 169.1 142 169.1 141 168.6C140.5 168.4 140.1 168.1 139.9 167.8C139.8 167.6 139.6 167.4 139.7 167.2C139.7 167 139.7 166.8 139.8 166.6C139.9 166.2 139.8 165.5 140.4 165.5C140.6 165.5 140.5 165.2 140.9 165.5H141C141 164.5 141.8 164.7 142.2 164.5C142.6 164.3 142.8 163.5 143.3 163.7C143.3 163 143.7 163.1 144 163.2C145 163.7 145.7 163.2 146.5 163.2C147.3 163.2 148.1 163.2 148.8 163.2C148.9 163.2 149.1 162.9 149.2 163.2C149.3 163.5 149.6 163.2 149.8 163.2C150 163.2 150.3 163.2 150.4 163.3C150.7 163.6 151 163.8 151.4 164C151.9 164.3 152.4 164.5 152.7 164.8C153.1 165.3 153.3 165.5 153.8 165.6C154.1 165.6 154.4 165.4 154.6 165.6C154.6 165.6 154.9 165.4 154.8 166C154.8 166.2 155 165.8 155.1 165.8C155.3 165.8 155.4 165.8 155.6 165.8C155.8 165.8 156 165.8 156.3 165.8C156.4 165.8 156.6 165.5 156.7 165.4C156.8 165.4 156.9 165.4 157.1 165.4C157.3 165.4 157.5 165.6 157.7 165.6C157.9 165.6 157.9 165.3 158.2 165.5C158.7 165.8 158.9 165.4 159.1 165.2C159.4 165.1 159.6 164.8 159.6 164.6C159.6 164.5 160.1 164.6 160.1 164.4C160.1 164.4 160.5 164.4 160.9 164.4C161.3 164.4 161.8 164.4 162.1 164.5H162.3C162.7 164.9 163.3 165.5 163.1 165.9C162.8 166.5 162.4 167.1 162 167.6L161.8 168Z" fill="black"/>
<path d="M165.3 136.9C165.1 137 164.9 137.1 164.7 137.2C164.7 137.2 164.5 137 164.6 137.6C164.6 137.9 164.3 137.3 164.3 137.4C164.1 137.5 163.9 137.5 163.8 137.6C163.6 137.7 163.5 138 163.3 138.1C163.1 138.1 162.9 137.9 162.8 138.3C162.7 138.6 162.5 138.1 162.4 138.3C162.3 138.4 162.1 138.5 162 138.3C161.9 138.1 161.8 137.9 161.7 138C161.7 138 161.6 138.4 161.5 138.4C161.5 138.4 161.4 138.1 161.3 138.7C161.3 138.7 161.3 138.7 161.3 138.6C161.3 138.2 161.2 138.2 161.1 138.5C161.1 138.8 161 138.7 160.9 138.7C160.8 138.7 160.6 138.7 160.5 138.7C160.5 138.7 160.3 138.4 160.2 138.3C160.2 138.3 160 138.5 159.9 138.2C159.9 137.9 159.8 137.9 159.7 137.9C159.7 137.9 159.7 137.6 159.5 138.2C159.5 137.4 159.2 138.4 159.1 138.2C159 138 158.8 138.1 158.7 138.1C158.7 138.1 158.7 137.9 158.5 138.4C158.5 138.6 158.5 138.6 158.5 138.4C158.5 137.8 158.3 138.1 158.3 138C158.3 137.9 158 138.1 158 137.6C158 137.4 158 137.3 157.8 137.8C157.8 138.1 157.8 137.8 157.7 137.8C157.7 137.8 157.6 138.1 157.5 138.1C157.5 138.1 157.5 137.9 157.5 137.7C157.2 138.3 157.2 137.4 157 137.6C156.8 137.7 156.6 137.6 156.5 137.6C156.5 137.6 156.3 137.3 156.5 136.2C156.5 135.7 156.7 135.1 156.7 134.8C156.7 134.6 156.8 134.4 156.9 134.3C156.9 134.3 157 134.1 157.1 134C157.2 133.8 157.4 133.3 157.5 133.6C157.5 133.6 157.6 133.4 157.5 133.9C157.8 133.1 157.9 133.7 158 133.7C158.1 133.7 158.4 133.1 158.5 133.4C158.7 132.8 158.7 132.9 158.8 133.1C158.9 133.8 159.3 133.4 159.5 133.5C159.7 133.6 160 133.5 160.2 133.7C160.2 133.7 160.3 133.4 160.3 133.7C160.3 134 160.3 133.7 160.4 133.7C160.4 133.7 160.5 133.6 160.5 133.7C160.5 134.4 160.8 134 161 134.1C161.2 134.1 161.3 134.3 161.5 134.1C161.6 134.1 161.7 133.7 161.8 133.8C161.8 133.8 161.8 133.5 161.9 134.1C161.9 134.3 161.9 133.8 161.9 133.8C161.9 133.8 162 133.8 162.1 133.8H162.3C162.3 133.8 162.3 133.5 162.3 133.4C162.3 133.4 162.3 133.4 162.4 133.4L162.6 133.7C162.6 133.7 162.6 133.5 162.8 133.7C163.1 134.1 163.1 133.9 163.2 133.9C163.3 133.9 163.4 133.9 163.4 133.7C163.4 133.7 163.7 134 163.8 133.9C163.8 133.9 163.8 133.9 164 134.1C164.1 134.2 164.3 134.3 164.4 134.5C164.7 134.8 165.1 135.1 165.2 135.3C165.2 135.3 165.3 135.4 165.3 135.5C165.5 135.9 165.9 136.6 165.8 136.6C165.6 136.7 165.4 136.9 165.2 137L165.3 136.9Z" fill="black"/>
<path d="M143.199 136.701C143.399 136.601 143.499 136.501 143.599 136.301C143.599 136.301 143.899 136.401 143.599 135.901C143.499 135.701 143.899 136.101 143.899 136.101C143.899 135.901 144.199 135.901 144.299 135.801C144.299 135.601 144.299 135.401 144.499 135.201C144.499 135.101 144.899 135.201 144.799 134.801C144.799 134.501 145.099 134.801 145.099 134.601C145.099 134.401 145.099 134.301 145.399 134.401C145.599 134.401 145.799 134.501 145.799 134.401C145.799 134.401 145.599 134.001 145.699 134.001C145.699 134.001 145.999 134.101 145.599 133.601C145.599 133.601 145.599 133.601 145.699 133.601C145.999 133.801 146.099 133.801 145.899 133.601C145.699 133.401 145.799 133.401 145.899 133.301C145.899 133.201 145.999 133.101 146.099 133.001C146.099 133.001 146.399 133.001 146.499 133.001C146.599 133.001 146.499 132.701 146.699 132.801C146.999 132.901 146.999 132.801 147.099 132.801C147.099 132.801 147.399 132.801 146.899 132.501C147.699 132.801 146.799 132.201 146.899 132.201C147.099 132.201 146.999 132.101 146.899 132.001C146.899 132.001 147.099 132.001 146.599 132.001C146.399 132.001 146.399 132.001 146.599 132.001C147.099 132.001 146.999 132.001 146.899 132.001C146.999 132.001 146.699 132.001 147.199 131.901C147.399 131.901 147.499 131.801 146.899 131.901H146.599C146.599 131.901 146.799 131.801 146.899 131.701C146.299 131.901 146.999 131.401 146.799 131.301C146.599 131.301 146.499 131.101 146.499 130.801C146.499 130.701 146.499 130.501 147.499 129.801C147.899 129.501 148.399 129.201 148.699 129.001C148.899 129.001 149.099 128.801 149.199 128.801C149.299 128.801 149.499 128.801 149.599 128.801C149.899 128.801 150.399 128.701 150.299 129.001C150.299 129.001 150.599 129.001 150.099 129.301C150.899 129.101 150.599 129.601 150.799 129.901C150.899 130.101 151.599 130.101 151.499 130.501C152.199 130.501 152.099 130.801 151.899 131.001C151.599 131.401 151.599 131.701 151.599 132.101C151.599 132.401 151.599 132.701 151.599 133.001C151.399 133.601 151.199 134.201 150.899 134.601C150.899 134.601 151.099 134.901 150.899 134.901C150.599 134.901 150.699 135.001 150.699 135.101C150.699 135.101 150.699 135.301 150.499 135.301C149.799 135.201 149.899 135.701 149.599 135.901C149.299 136.101 149.099 136.301 148.999 136.601C148.999 136.801 148.999 137.201 148.799 137.201C148.799 137.201 148.799 137.501 148.399 137.201C148.299 137.101 148.499 137.501 148.399 137.501C148.399 137.601 148.199 137.701 148.099 137.801C147.999 137.901 147.799 138.001 147.699 138.201C147.699 138.301 147.699 138.601 147.699 138.701C147.699 138.801 147.599 138.901 147.399 138.901C147.199 138.901 146.999 138.901 146.799 138.901C146.599 138.901 146.699 139.301 146.399 139.101C145.899 138.801 145.799 139.201 145.599 139.301C145.399 139.401 145.099 139.501 144.999 139.801C144.999 139.901 144.499 139.601 144.399 139.701C144.399 139.701 143.399 138.601 143.199 138.201L143.099 138.001C142.899 137.501 142.599 136.901 142.799 136.801C142.999 136.801 143.199 136.601 143.299 136.401L143.199 136.701Z" fill="black"/>
<path d="M123.2 166.299C122.5 166.199 121.8 165.999 121.2 165.799C121 165.799 120.8 165.399 120.4 165.799C120.2 165.999 120.2 165.299 120 165.199C119.4 164.999 118.9 164.599 118.3 164.399C117.8 164.199 117.1 163.999 116.6 163.799C116.1 163.499 115.8 162.999 115 162.799C114.3 162.599 114.2 161.799 113.7 161.199C113.2 160.599 112.9 159.799 113 159.199C113 158.799 113.3 158.399 113 158.099C113 157.899 112.6 157.699 112.6 157.499C112.6 157.299 112.8 156.999 112.2 156.899C112.2 156.899 112.2 156.799 112.3 156.699C112.7 156.399 112.6 156.099 112.3 155.899C112 155.699 112 155.499 112 155.299C112 154.799 112 154.299 112 153.799C112 153.399 112.3 153.099 112.4 152.699C112.5 152.299 112.3 151.799 112.6 151.499C113 151.199 113 150.799 113.1 150.399C113.1 150.199 113.5 149.999 113 149.599V149.499C113.5 149.299 113.6 148.999 113.6 148.599C113.6 148.199 113.6 147.799 114 147.499C114.7 146.999 115.2 146.399 115.8 145.899C116 145.799 116.2 145.899 116.2 145.299C116.2 145.099 116.4 144.999 116.5 145.099C117.3 145.399 117.7 144.899 118.3 144.799C118.9 144.799 119.5 144.399 120.2 144.799C120.5 144.999 120.8 145.099 121.1 144.499C121.3 144.199 121.6 144.499 121.8 144.499C122 144.499 122.2 144.199 122.4 144.199C122.6 144.199 122.7 144.499 122.8 144.599C122.8 144.599 122.8 144.599 122.9 144.599C123.9 144.099 124.5 145.199 125.3 145.399C126.1 145.499 126.8 145.899 127.5 146.399C127.9 146.599 128.1 146.999 127.8 148.099C127.7 148.599 127.4 149.099 127.1 149.299C126.9 149.499 126.6 149.599 126.5 149.599C126.3 149.599 126 149.599 125.8 149.599C125.3 149.599 124.7 149.899 124.5 149.399C124.5 149.299 124.2 149.399 124.3 148.999V148.899C123.5 149.399 123.2 148.799 122.6 148.699C122.1 148.699 121.6 149.199 121.3 148.899C121.1 149.499 120.9 149.399 120.6 149.199C120.2 148.899 119.8 148.899 119.5 148.999C119.1 149.099 118.9 149.299 118.6 149.499C118 149.799 117.7 150.199 117.4 150.899C117.4 150.999 117.6 151.199 117.4 151.299C117.1 151.299 117.2 151.599 117.2 151.799C117.2 151.999 117.2 152.199 117.1 152.299C116.3 152.899 116.7 153.799 116.6 154.499C116.6 155.299 116.5 156.099 116.7 156.799C116.8 157.299 117.3 157.699 117.2 158.099C117.2 158.299 117.5 158.299 117 158.599C116.9 158.599 117.3 158.599 117.4 158.599C117.4 158.599 117.4 158.699 117.6 158.899C117.7 159.099 118 159.299 118.4 159.499C118.7 159.599 119 159.499 119.3 159.699C119.6 159.799 119.8 159.899 120 160.099C120.3 160.299 120.5 160.699 120.8 160.899C121.1 161.099 121.5 160.999 121.7 161.399C122.1 162.099 122.8 162.099 123.4 162.299C124 162.499 124.6 162.599 125.1 162.399C125.4 162.399 125.7 162.799 126.1 162.699C126.2 162.699 126.8 164.099 126.9 164.599V164.799C126.6 165.399 126.2 166.199 125.7 166.199C124.9 166.199 124 166.199 123.2 166.099V166.299Z" fill="black"/>
<path d="M129.6 123.102C129.6 123.602 129.8 124.102 129.9 124.602C129.9 124.802 129.7 125.002 130.3 125.102C130.6 125.102 130 125.402 130 125.602C130.2 126.002 130.1 126.502 130.2 127.002C130.3 127.402 130.6 127.902 130.7 128.302C130.8 128.702 130.6 129.202 130.9 129.602C131.2 130.002 130.7 130.302 130.9 130.702C131.1 131.102 131.2 131.502 130.9 131.802C130.7 132.102 130.5 132.402 130.7 132.602C130.7 132.802 131.1 132.902 131.1 133.102C131.1 133.302 130.8 133.502 131.5 133.602C131.5 133.602 131.5 133.602 131.4 133.702C131 133.902 131 134.102 131.4 134.302C131.7 134.402 131.6 134.602 131.7 134.702C131.7 135.102 131.7 135.502 131.7 135.902C131.7 136.202 131.4 136.502 131.3 136.802C131.3 137.102 131.5 137.402 131.2 137.702C130.9 138.002 130.9 138.202 130.9 138.502C130.9 138.702 130.6 138.802 131.2 139.002C130.4 139.402 131.4 139.902 131.2 140.302C130.9 140.702 131.1 141.202 131 141.702C131 141.802 130.8 141.902 131.2 142.102C131.4 142.102 131.4 142.302 131.2 142.302C130.5 142.602 130.9 143.002 130.7 143.302C130.5 143.702 130.7 144.102 130.2 144.502C130 144.602 129.8 144.902 130.4 145.102C130.7 145.202 130.4 145.402 130.4 145.502C130.4 145.602 130.7 145.802 130.7 145.902C130.7 146.002 130.4 146.102 130.3 146.102C130.9 146.802 129.9 147.202 129.9 147.802C129.9 148.402 129.8 149.002 129.5 149.602C129.4 149.902 129.1 150.202 128 150.102C127.5 150.102 126.9 149.902 126.7 149.702C126.5 149.502 126.3 149.402 126.3 149.302C126.3 149.102 126.2 148.902 126.1 148.702C126 148.302 125.6 147.802 125.9 147.502C126 147.502 125.7 147.202 126.3 147.202C125.6 146.602 126.3 146.202 126.3 145.602C126.3 145.202 125.8 144.702 126.1 144.302C125.5 144.002 125.7 143.702 125.9 143.502C126.7 142.802 126.3 141.902 126.5 141.002C126.7 140.202 126.7 139.302 126.7 138.402C126.7 138.302 126.4 138.102 126.7 138.002C127 137.902 126.7 137.602 126.7 137.402C126.7 137.202 126.6 137.002 126.7 136.902C127.4 136.202 127 135.602 127.1 134.902C127.1 134.202 127.2 133.502 127.1 132.902C127 132.502 126.6 132.102 126.7 131.702C126.7 131.502 126.4 131.402 127 131.102C127.2 131.102 126.7 130.902 126.7 130.802C126.7 130.502 126.7 130.202 126.7 130.002C126.7 129.602 126.7 129.202 126.6 128.802C126.6 128.602 126.3 128.402 126.2 128.102C126.2 127.902 126.1 127.602 126.2 127.402C126.2 127.102 126.4 126.702 126.4 126.402C126.4 126.102 126.1 125.802 126.4 125.402C126.8 124.702 126.4 124.202 126.4 123.602C126.4 123.002 126.3 122.402 126 121.902C125.9 121.602 126.3 121.202 126.2 120.902C126.2 120.802 127.6 120.202 128.1 120.102H128.3C128.8 120.302 129.6 120.402 129.6 120.802C129.6 121.402 129.8 121.902 129.9 122.502L129.6 123.102Z" fill="black"/>
<path d="M105.4 133.3L102.3 131.8C101.9 131.6 101.6 131.2 100.9 131.4C100.5 131.4 100.5 130.7 100.1 130.5C99.1003 129.8 98.2003 128.8 97.5003 127.5C96.8003 126.3 96.4003 124.7 96.6003 123.3C96.8003 121.9 97.7003 120.8 98.1003 119.6C98.5003 118.6 99.5003 118.3 100.1 117.6C100.7 116.9 101.4 116.2 102.2 115.9C102.8 115.7 103.4 115.5 103.8 115.1C104.1 114.8 104.1 114.4 104.5 114.1C104.8 113.9 105.3 113.9 105.2 113.2C105.2 113.2 105.4 113.2 105.5 113.2C106.1 113.2 106.5 113 106.6 112.5C106.7 112.1 107 111.9 107.2 111.7C107.9 111.2 108.5 110.6 109.2 110.2C109.7 109.9 110.4 109.7 110.9 109.3C111.5 109 111.9 108.3 112.5 108.2C113.2 108.1 113.6 107.7 114.1 107.4C114.4 107.2 114.9 107.2 114.7 106.5C114.7 106.5 114.7 106.4 114.9 106.4C116.2 106.4 116.3 105 117.2 104.6C118.2 104.2 118.8 103.4 119.8 102.7C120.1 102.5 120.4 102.5 120.5 101.9C120.5 101.7 120.8 101.5 121.1 101.5C121.7 101.5 122.2 101.5 122.8 101.3C123.3 101.1 123.9 101 124.5 101C125.7 101 126.8 101 127.6 101.6C127.9 101.9 128.4 102.1 129 101.6C129.3 101.4 129.6 101.7 130 101.7C130.3 101.7 130.6 101.5 130.9 101.6C131.1 101.6 131.3 101.9 131.5 102.1C131.5 102.1 131.6 102.1 131.7 102.1C133.2 101.8 134.3 103 135.7 103.4C137.1 103.8 138.5 104.6 139.7 105.6C140.4 106.1 140.9 106.9 140.5 108.1C140.3 108.6 139.9 109 139.4 109C139.1 109 138.8 109 138.5 108.9C138.1 108.7 137.8 108.6 137.4 108.5C136.7 108.2 135.8 108.3 135.2 107.7C135 107.5 134.6 107.7 134.7 107.1C134.7 107.1 134.7 106.9 134.6 107C133.3 107.3 132.5 106.5 131.3 106.3C130.4 106.1 129.3 106.5 128.4 106.1C127.7 106.6 127.1 106.4 126.6 106.1C125.7 105.6 124.9 105.4 124.3 105.5C123.7 105.5 123.2 105.9 122.5 106.3C121.8 106.7 121 107.4 120.1 108C119.3 108.6 118.5 109.2 117.7 109.8C117.4 110 117.4 110.5 116.9 110.5C116.4 110.5 116.2 111 115.8 111.2C115.5 111.4 115.2 111.8 114.8 111.9C113.1 112.3 112.1 113.6 110.8 114.5C109.5 115.4 108.2 116.3 107 117.4C106.3 118.1 105.7 118.9 104.9 119.4C104.5 119.6 104.4 120.1 103.7 119.9C103.5 119.9 103.5 120.4 103.3 120.6C102.9 121 102.4 121.4 102.1 121.8C101.6 122.3 101.2 122.9 101 123.4C100.9 123.8 101 124.2 101 124.4C101 124.7 101 124.9 101 125.2C101 125.5 101 126 101.3 126.4C101.6 126.8 102.2 127 102.6 127.6C103.3 128.7 104.6 129 105.8 129.7C107 130.3 108.2 131 109.5 131.4C110.2 131.7 110.6 132.4 111.3 132.7C111.6 132.8 111.4 134.4 111.1 134.8L110.9 134.9C110 135 109.1 135.4 108.4 134.9C107.3 134.3 106.1 133.8 105 133.3H105.4Z" fill="black"/>
<path d="M143.8 98.6992C145 97.2992 146.1 96.0992 147.5 94.6992C148 94.1992 148.7 93.8992 149.1 92.9992C149.3 92.4992 150.3 92.6992 151 92.3992C151.9 91.9992 153 91.6992 154 91.6992C155 91.6992 156 91.6992 156.9 91.7992C158.7 91.9992 160.5 92.4992 162 93.0992C163.5 93.6992 164.8 94.6992 166.2 94.7992C167.4 94.8992 168.3 95.6992 169.5 95.8992C170.8 96.0992 172.2 96.2992 173.4 96.8992C174.3 97.2992 175.2 97.7992 176.2 98.0992C176.8 98.2992 177.5 98.0992 178.2 98.5992C178.8 98.8992 179.4 99.5992 180.3 99.4992C180.3 99.4992 180.6 99.7992 180.7 99.9992C181.1 100.899 181.8 101.599 182.4 102.099C183 102.599 183.2 103.099 183.5 103.699C183.8 104.499 184 105.199 184.3 105.899C184.5 106.599 184.6 107.399 184.7 108.199C184.8 109.399 184.7 110.599 184.4 111.799C184.2 112.999 184.1 114.599 183.2 115.599C182.3 116.599 181.5 117.499 180.4 118.199C179.8 118.599 179 118.699 178.8 119.399C178.8 119.399 178.6 119.599 178.4 119.599C177.4 119.599 176.8 119.899 176.1 120.299C175.4 120.699 174.8 121.199 174 121.399C172.4 121.799 170.8 122.499 169.2 122.999C168.8 123.099 168.3 122.999 168 123.599C167.9 123.799 167.4 123.899 167.2 123.899C165.8 123.599 164.6 124.199 163.2 124.299C161.7 124.299 160.2 124.799 158.6 124.299C158 124.099 157.1 123.899 156.3 124.499C155.9 124.699 155.2 124.499 154.7 124.499C154.3 124.499 153.8 124.699 153.3 124.699C152.9 124.699 152.6 124.399 152.2 124.199C152.1 124.199 152 124.199 151.8 124.199C149.6 124.499 147.7 123.199 145.6 122.899C143.5 122.599 141.5 121.999 139.5 121.499C138.4 121.199 137.3 120.799 136.8 119.599C136.5 118.999 136.6 118.499 137.2 118.199C137.6 117.999 138.1 117.899 138.5 117.899C139.2 117.899 139.9 117.899 140.5 117.899C141.9 117.899 143.3 117.799 144.6 118.399C145 118.599 145.6 118.399 145.8 118.999C145.8 118.999 146 119.199 146.1 119.099C148.1 118.699 149.8 119.699 151.6 119.999C153.1 120.199 154.7 119.799 156.2 120.199C157.1 119.699 158 119.799 158.8 119.999C161.7 120.699 164.6 119.799 167.5 118.999C170.5 118.299 173.4 116.999 176.3 115.899C176.8 115.699 177 115.199 177.5 115.299C178 115.299 178.3 114.799 178.6 114.499C178.9 114.199 179 113.799 179.3 113.499C180 112.899 180.2 111.799 180.2 110.699C180.2 109.599 179.9 108.499 179.7 107.399C179.4 106.299 179.1 105.199 178.6 104.399C178.1 103.699 177.4 103.099 176.4 102.699C175.2 102.199 173.7 102.099 172.4 101.499C171.8 101.299 171.1 101.499 170.6 100.699C170.5 100.499 169.8 100.699 169.4 100.699C168.4 100.499 167.3 100.199 166.3 99.8992C164.8 99.4992 163.3 98.7992 161.9 98.1992C161.1 97.8992 160.2 97.6992 159.4 97.3992C158.6 97.0992 157.9 96.7992 157.1 96.5992C156.2 96.2992 155.3 95.8992 154.4 95.8992C153.5 95.8992 152.8 96.3992 151.9 96.5992C150.2 96.9992 148.9 98.7992 147.4 100.399C146 101.899 144.6 103.499 143.5 105.299C142.9 106.299 141.8 106.899 141.2 107.899C140.9 108.299 139.3 108.199 139 107.699C139 107.699 139 107.499 139 107.399C139.3 106.199 139.3 104.799 140.1 103.699C141.3 102.099 142.6 100.499 143.9 98.8992L143.8 98.6992Z" fill="black"/>
</svg>
