<svg width="300" height="300" viewBox="0 0 300 300" fill="none" xmlns="http://www.w3.org/2000/svg">
<path d="M176.6 132.902C174.9 131.102 173.2 129.202 171.5 127.402C170.8 126.702 170.4 125.902 169.3 125.502C168.8 125.302 168.6 124.202 168 123.602C166.4 121.902 164.8 120.202 163.2 118.502C161.6 116.902 160 115.702 158.4 115.202C156.8 114.602 154.7 114.102 152.5 114.402C150.7 114.602 149 114.102 147.3 114.302C145.4 114.502 143.5 114.702 141.7 114.602C140.4 114.602 139 114.502 137.7 114.802C136.9 115.002 136.2 115.402 135.3 115.502C134.5 115.602 133.5 115.502 132.9 116.302C132.9 116.302 132.5 116.302 132.3 116.302C131.3 116.102 130.3 116.302 129.6 116.802C129 117.202 128.3 117.402 127.7 117.502C125.9 118.002 124.1 118.502 122.5 119.102C121.3 119.502 120.1 119.902 119.1 120.502C118 121.202 117.5 122.302 116.7 123.102C115.9 123.902 115.5 125.002 115.2 126.202C115 126.902 114.6 127.602 115.2 128.302C115.2 128.302 115.2 128.602 115.2 128.702C114.1 130.702 115.2 132.902 115 135.002C114.8 137.302 115 139.602 115 141.902C115 142.502 114.9 143.202 115.4 143.702C115.6 143.902 115.6 144.502 115.5 144.802C115 146.502 115.5 148.302 115.5 150.102C115.5 152.102 116.1 154.102 115.8 156.102C115.7 157.002 115.8 158.102 116.4 159.102C116.7 159.502 116.6 160.502 116.8 161.302C116.9 161.902 117.3 162.402 117.4 163.002C117.4 163.502 117.4 164.002 117.3 164.602C117.3 164.802 117.3 164.902 117.3 165.102C118.4 167.902 118 170.902 118.7 173.802C119.4 176.702 119.9 179.702 120.3 182.602C120.6 184.202 120.7 185.902 119.8 187.302C119.4 187.902 118.8 188.002 118.4 187.302C118.1 186.802 117.7 186.302 117.6 185.702C117.3 184.802 117 183.902 116.8 183.002C116.3 181.202 115.4 179.402 115.3 177.402C115.3 176.802 114.9 176.102 115.3 175.502C115.3 175.502 115.3 175.202 115.3 175.002C114.1 172.502 114.1 169.702 113.6 167.102C113.2 164.802 112.2 162.702 112.2 160.402C111.4 159.202 111.3 157.702 111.4 156.402C111.5 151.802 110.7 147.302 110.6 142.702C110.6 140.402 110.5 138.002 110.5 135.702C110.5 133.402 110.5 131.002 110.8 128.602C110.8 127.802 110.6 127.002 111.1 126.002C111.5 125.102 111.7 123.902 112.1 122.802C112.5 121.802 112.9 120.702 113.6 120.002C116.6 116.802 120.3 114.902 123.8 113.802C127.3 112.802 130.9 112.002 134.5 111.302C136.7 110.802 138.8 110.202 141.1 110.102C142.1 110.102 143 109.602 144 110.102C144.3 110.302 145.1 109.802 145.8 109.702C147.3 109.602 148.9 109.602 150.4 109.602C152.5 109.602 154.6 109.602 157 110.002C158.4 110.202 159.9 110.302 161.4 111.002C162.9 111.702 164.2 112.802 165.2 113.802C166.5 115.202 167.4 116.502 168.5 117.802C169.6 119.102 171.1 120.302 172 121.702C173.8 124.302 176.1 126.402 178.1 128.702C180.2 131.002 182.2 133.302 184.4 135.502C185.6 136.702 186.4 138.202 187.5 139.502C188 140.102 187.7 141.902 187.1 142.002C187 142.002 186.8 142.002 186.7 142.002C185.2 141.102 183.6 140.502 182.4 139.002C180.5 136.902 178.5 134.802 176.6 132.802V132.902Z" fill="black"/>
<path d="M166.101 147.302C166.501 147.102 166.801 147.002 167.201 146.702C167.301 146.702 167.601 146.702 167.501 146.202C167.501 145.902 167.901 146.402 168.001 146.402C168.301 146.202 168.701 146.102 169.001 145.902C169.301 145.702 169.501 145.302 169.801 145.102C170.101 144.902 170.601 145.102 170.801 144.602C171.001 144.202 171.401 144.602 171.601 144.302C171.801 144.102 172.101 143.902 172.501 144.002C172.801 144.002 173.101 144.202 173.201 144.002C173.201 143.902 173.201 143.502 173.401 143.502C173.501 143.502 173.801 143.702 173.701 143.002C173.701 143.002 173.701 143.002 173.901 143.002C174.201 143.302 174.401 143.202 174.401 143.002C174.401 142.702 174.501 142.702 174.601 142.602C174.901 142.502 175.201 142.302 175.501 142.302C175.701 142.302 176.001 142.302 176.301 142.302C176.501 142.302 176.701 141.902 177.001 142.102C177.301 142.302 177.501 142.202 177.701 142.102C177.801 142.102 178.101 142.302 177.901 141.602C178.501 142.302 178.501 141.102 178.901 141.202C179.301 141.202 179.601 141.002 180.001 140.902C180.001 140.902 180.301 141.002 180.201 140.502C180.201 140.302 180.201 140.302 180.401 140.402C180.901 140.902 181.001 140.402 181.301 140.402C181.601 140.402 181.901 140.002 182.301 140.402C182.501 140.602 182.701 140.602 182.701 140.002C182.701 139.702 182.901 140.002 183.001 139.802C183.001 139.802 183.001 139.402 183.201 139.402C183.201 139.402 183.401 139.602 183.501 139.702C183.801 138.902 184.501 139.702 184.901 139.302C185.301 139.002 185.801 138.902 186.301 138.902C186.601 138.902 186.901 138.902 187.401 140.002C187.601 140.502 187.801 141.002 187.701 141.402C187.701 141.702 187.701 141.902 187.601 142.002C187.501 142.102 187.401 142.302 187.301 142.402C187.101 142.702 186.901 143.302 186.601 143.102C186.501 143.102 186.501 143.402 186.201 142.902C186.001 143.802 185.501 143.402 185.101 143.602C184.801 143.802 184.601 144.502 184.201 144.302C184.201 145.002 184.001 144.902 183.701 144.802C182.801 144.402 182.301 145.002 181.601 145.202C180.901 145.302 180.301 145.702 179.601 145.902C179.501 145.902 179.601 146.302 179.301 146.102C179.101 145.902 179.001 146.102 178.801 146.202C178.701 146.202 178.601 146.402 178.401 146.302C177.601 145.902 177.301 146.502 176.701 146.602C176.201 146.702 175.601 146.902 175.201 147.302C174.901 147.502 174.801 148.002 174.401 148.002C174.201 148.002 174.201 148.402 173.901 147.902C173.801 147.802 173.901 148.202 173.801 148.302C173.601 148.402 173.401 148.502 173.201 148.602C172.901 148.702 172.601 148.802 172.301 149.002C172.101 149.102 172.101 149.402 171.901 149.602C171.701 149.702 171.601 149.802 171.301 149.902C171.001 149.902 170.701 149.902 170.401 149.902C170.101 149.902 170.001 150.302 169.601 150.202C168.901 150.002 168.601 150.402 168.201 150.602C167.701 150.802 167.301 150.902 166.901 151.302C166.701 151.502 166.201 151.202 166.001 151.302C165.901 151.302 165.101 150.102 164.901 149.702V149.502C164.901 149.002 164.801 148.202 165.101 148.102C165.501 148.002 165.901 147.702 166.301 147.502L166.101 147.302Z" fill="black"/>
<path d="M168.6 166.202C168.6 165.902 168.5 165.502 168.3 165.202C168.3 165.102 168.5 164.902 167.9 164.902C167.6 164.902 168.2 164.602 168.2 164.502C168.1 164.202 168.1 163.902 167.9 163.602C167.8 163.302 167.5 163.102 167.3 162.802C167.2 162.502 167.3 162.102 167 161.902C166.7 161.702 167.1 161.402 167 161.202C166.8 161.002 166.7 160.702 166.8 160.402C166.9 160.202 167.1 160.002 166.9 159.802C166.9 159.802 166.5 159.702 166.5 159.602C166.5 159.502 166.7 159.302 166.1 159.302C166.1 159.302 166.1 159.302 166.2 159.202C166.6 159.002 166.5 158.802 166.2 158.802C165.9 158.802 165.9 158.702 165.9 158.602C165.9 158.402 165.7 158.102 165.7 157.902C165.7 157.702 165.9 157.502 165.9 157.302C165.9 157.102 165.6 157.002 165.9 156.702C166.2 156.402 166.1 156.302 166 156.102C166 156.102 166.2 155.802 165.6 155.902C166.3 155.402 165.2 155.402 165.3 155.102C165.4 154.802 165.3 154.502 165.1 154.202C165.1 154.202 165.2 154.002 164.8 154.002C164.6 154.002 164.6 154.002 164.7 153.902C165.2 153.502 164.8 153.402 164.9 153.102C164.9 152.802 164.6 152.602 164.9 152.202C165.1 152.002 165.1 151.902 164.5 151.902C164.2 151.902 164.5 151.702 164.4 151.602C164.4 151.602 164 151.602 164 151.502C164 151.502 164.2 151.302 164.3 151.202C163.6 151.002 164.3 150.402 164 150.102C163.7 149.802 163.7 149.402 163.6 149.002C163.6 148.802 163.6 148.502 164.7 148.002C165.2 147.802 165.7 147.602 166 147.602C166.2 147.602 166.5 147.602 166.6 147.602C166.7 147.602 166.9 147.802 167 147.902C167.3 148.102 167.9 148.202 167.7 148.502C167.7 148.602 168 148.602 167.5 148.802C168.4 148.902 168 149.402 168.1 149.802C168.2 150.102 168.9 150.202 168.7 150.602C169.4 150.602 169.3 150.802 169.2 151.002C168.7 151.802 169.3 152.202 169.4 152.902C169.4 153.502 169.7 154.102 169.8 154.702C169.8 154.802 170.2 154.802 170 155.002C169.8 155.202 170 155.302 170 155.402C170 155.502 170.2 155.602 170 155.802C169.5 156.402 170 156.802 170 157.302C170 157.802 170 158.302 170.4 158.702C170.6 159.002 171 159.202 170.9 159.502C170.9 159.602 171.2 159.702 170.7 159.902C170.5 159.902 171 159.902 171.1 160.102C171.1 160.302 171.2 160.502 171.3 160.702C171.3 161.002 171.3 161.302 171.5 161.502C171.5 161.702 171.9 161.802 172 161.902C172.1 162.102 172.1 162.202 172.1 162.402C172.1 162.602 171.9 162.902 171.9 163.102C171.9 163.302 172.2 163.502 172 163.802C171.6 164.302 172 164.702 172 165.102C172 165.502 172.1 165.902 172.3 166.302C172.4 166.502 172 166.802 172.1 167.102C172.1 167.102 170.7 167.702 170.2 167.802H170C169.5 167.802 168.7 167.802 168.7 167.402C168.7 167.002 168.5 166.702 168.4 166.302L168.6 166.202Z" fill="black"/>
<path d="M162.2 186.203C162.3 185.803 162.5 185.403 162.5 185.003C162.5 184.803 162.8 184.803 162.4 184.503C162.2 184.303 162.8 184.403 162.8 184.203C162.8 183.803 163.1 183.503 163.1 183.103C163.1 182.703 163.1 182.303 163.1 181.903C163.1 181.503 163.6 181.303 163.4 180.803C163.2 180.403 163.8 180.303 163.8 180.003C163.8 179.703 163.8 179.303 164.1 179.103C164.3 178.903 164.6 178.803 164.6 178.603C164.6 178.403 164.3 178.203 164.4 178.103C164.4 178.003 164.8 177.903 164.2 177.603C164.2 177.603 164.2 177.603 164.4 177.603C164.8 177.603 164.9 177.403 164.6 177.203C164.4 177.003 164.5 176.903 164.5 176.803C164.5 176.503 164.6 176.203 164.8 175.903C164.9 175.703 165.2 175.603 165.4 175.403C165.5 175.203 165.4 174.903 165.7 174.703C166.1 174.603 166.1 174.403 166.2 174.203C166.2 174.103 166.6 174.003 166 173.703C166.9 173.703 166 173.003 166.3 172.703C166.6 172.403 166.6 172.003 166.7 171.703C166.7 171.703 166.9 171.603 166.5 171.303C166.4 171.303 166.4 171.103 166.5 171.103C167.2 171.103 166.9 170.603 167.1 170.403C167.3 170.103 167.1 169.703 167.7 169.603C167.9 169.603 168.1 169.403 167.6 169.103C167.4 168.903 167.6 168.903 167.6 168.803C167.6 168.703 167.3 168.503 167.4 168.403C167.4 168.403 167.7 168.403 167.8 168.303C167.3 167.703 168.3 167.503 168.2 167.003C168.2 166.703 168.2 166.603 168.2 166.303C168.2 166.003 168.4 165.703 168.6 165.303C168.8 164.903 169.3 164.503 170.4 165.103C170.9 165.303 171.3 165.703 171.5 166.003C171.6 166.203 171.8 166.403 171.8 166.503C171.8 166.603 171.9 166.803 172 166.903C172.1 167.103 172.6 167.403 172.2 167.703C172.1 167.703 172.3 168.003 171.8 167.903C172.5 168.503 171.8 168.903 171.8 169.303C171.8 169.703 172.2 170.203 171.8 170.503C172.3 170.903 172.2 171.103 171.9 171.203C171 171.703 171.2 172.503 170.9 173.203C170.6 173.903 170.4 174.603 170.1 175.303C170.1 175.403 170.4 175.603 170.1 175.703C169.8 175.703 169.9 176.003 169.9 176.103C169.9 176.203 169.9 176.403 169.7 176.503C168.9 176.803 169.1 177.503 168.8 178.003C168.5 178.503 168.3 179.003 168.3 179.603C168.3 180.003 168.5 180.403 168.3 180.703C168.2 180.803 168.5 181.103 167.9 181.003C167.7 181.003 168.1 181.303 168.1 181.403C168.1 181.603 168 181.903 167.9 182.103C167.8 182.403 167.6 182.703 167.6 183.103C167.6 183.303 167.7 183.603 167.7 183.803C167.7 184.003 167.7 184.203 167.5 184.403C167.3 184.603 167.1 184.803 166.9 185.103C166.8 185.303 166.9 185.703 166.6 185.903C166 186.203 166.1 186.803 165.9 187.203C165.7 187.603 165.5 188.103 165.5 188.603C165.5 188.903 165 189.003 164.9 189.203C164.9 189.303 163.4 189.203 162.9 189.003H162.7C162.3 188.603 161.7 188.203 161.8 187.903C162 187.403 162.1 187.003 162.2 186.503V186.203Z" fill="black"/>
<path d="M151.001 135.801C151.001 136.001 150.901 136.101 150.901 136.301C150.901 136.301 150.601 136.301 151.101 136.601C151.401 136.601 150.701 136.601 150.701 136.601C150.701 136.801 150.701 136.901 150.701 137.101C150.701 137.301 150.901 137.501 150.901 137.601C150.901 137.801 150.601 137.901 150.901 138.101C151.201 138.301 150.601 138.301 150.701 138.401C150.801 138.601 150.901 138.701 150.701 138.801C150.501 138.801 150.301 138.901 150.401 139.001C150.401 139.001 150.801 139.201 150.701 139.201C150.701 139.201 150.401 139.201 151.001 139.401C151.001 139.401 151.001 139.401 150.801 139.401C150.401 139.401 150.401 139.401 150.701 139.601C151.001 139.601 150.901 139.701 150.901 139.801C150.901 139.901 150.901 140.101 150.901 140.201C150.901 140.201 150.601 140.401 150.501 140.501C150.501 140.501 150.701 140.701 150.401 140.801C150.101 140.801 150.101 141.001 150.101 141.101C150.101 141.101 149.801 141.201 150.401 141.301C149.601 141.401 150.601 141.601 150.401 141.801C150.201 142.001 150.401 142.101 150.401 142.301C150.401 142.301 150.201 142.301 150.701 142.401C150.901 142.401 150.901 142.401 150.701 142.401C150.101 142.501 150.501 142.601 150.301 142.801C150.201 142.901 150.501 143.101 150.001 143.201C149.801 143.201 149.701 143.401 150.301 143.401C150.601 143.401 150.301 143.501 150.301 143.601C150.301 143.601 150.601 143.601 150.601 143.701C150.601 143.701 150.401 143.701 150.301 143.801C151.001 144.001 150.101 144.201 150.301 144.401C150.501 144.601 150.401 144.801 150.301 145.001C150.301 145.101 150.101 145.301 148.901 145.401C148.401 145.401 147.801 145.501 147.501 145.501C147.301 145.501 147.001 145.501 147.001 145.501C146.901 145.501 146.801 145.401 146.701 145.301C146.501 145.201 145.901 145.101 146.201 144.901C146.201 144.901 146.001 144.901 146.501 144.701C145.701 144.501 146.201 144.301 146.101 144.101C146.101 143.901 145.401 143.801 145.701 143.601C145.101 143.601 145.201 143.401 145.401 143.301C146.101 142.901 145.601 142.601 145.701 142.201C145.701 141.801 145.701 141.501 145.701 141.101C145.701 141.101 145.401 141.001 145.701 140.901C146.001 140.901 145.701 140.701 145.701 140.701C145.701 140.701 145.601 140.501 145.701 140.501C146.401 140.301 146.001 139.901 146.101 139.701C146.201 139.401 146.301 139.101 146.101 138.801C146.101 138.601 145.701 138.401 145.901 138.201C145.901 138.201 145.601 138.001 146.201 138.001C146.401 138.001 145.901 137.901 145.901 137.801C145.901 137.701 145.901 137.601 145.901 137.401C145.901 137.201 146.001 137.101 145.901 136.901C145.901 136.801 145.701 136.601 145.601 136.501C145.601 136.401 145.601 136.301 145.601 136.201C145.701 136.101 145.901 136.001 146.001 135.901C146.001 135.801 145.901 135.601 146.201 135.501C146.801 135.401 146.601 135.101 146.701 134.801C146.801 134.601 146.901 134.401 146.901 134.101C146.901 133.901 147.401 134.001 147.401 133.801C147.401 133.801 148.901 134.101 149.301 134.201H149.501C149.901 134.501 150.601 134.801 150.501 134.901C150.401 135.101 150.401 135.301 150.301 135.501L151.001 135.801Z" fill="black"/>
<path d="M162.3 135.801C162.3 136.001 162.2 136.101 162.2 136.301C162.2 136.301 161.9 136.301 162.4 136.601C162.7 136.601 162 136.601 162 136.601C162 136.801 162 136.901 162 137.101C162 137.301 162.2 137.501 162.2 137.601C162.2 137.801 161.9 137.901 162.2 138.101C162.5 138.301 161.9 138.301 162 138.401C162.1 138.601 162.2 138.701 162 138.801C161.8 138.801 161.6 138.901 161.7 139.001C161.7 139.001 162.1 139.201 162 139.201C162 139.201 161.7 139.201 162.3 139.401C162.3 139.401 162.3 139.401 162.1 139.401C161.7 139.401 161.7 139.401 162 139.601C162.3 139.601 162.2 139.701 162.2 139.801C162.2 139.901 162.2 140.101 162.2 140.201C162.2 140.201 161.9 140.401 161.8 140.501C161.8 140.501 162 140.701 161.7 140.801C161.4 140.801 161.4 141.001 161.4 141.101C161.4 141.101 161.1 141.201 161.7 141.301C160.9 141.401 161.9 141.601 161.7 141.801C161.5 142.001 161.7 142.101 161.7 142.301C161.7 142.301 161.5 142.301 162 142.401C162.2 142.401 162.2 142.401 162 142.401C161.4 142.501 161.8 142.601 161.6 142.801C161.5 142.901 161.8 143.101 161.3 143.201C161.1 143.201 161 143.401 161.6 143.401C161.9 143.401 161.6 143.501 161.6 143.601C161.6 143.601 161.9 143.601 161.9 143.701C161.9 143.701 161.7 143.701 161.6 143.801C162.3 144.001 161.4 144.201 161.6 144.401C161.8 144.601 161.7 144.801 161.6 145.001C161.6 145.101 161.4 145.301 160.2 145.401C159.7 145.401 159.1 145.501 158.8 145.501C158.6 145.501 158.3 145.501 158.3 145.501C158.2 145.501 158.1 145.401 158 145.301C157.8 145.201 157.2 145.101 157.5 144.901C157.5 144.901 157.3 144.901 157.8 144.701C157 144.501 157.5 144.301 157.4 144.101C157.4 143.901 156.7 143.801 157 143.601C156.4 143.601 156.5 143.401 156.7 143.301C157.4 142.901 156.9 142.601 157 142.201C157 141.801 157 141.501 157 141.101C157 141.101 156.7 141.001 157 140.901C157.3 140.901 157 140.701 157 140.701C157 140.701 156.9 140.501 157 140.501C157.7 140.301 157.3 139.901 157.4 139.701C157.5 139.401 157.6 139.101 157.4 138.801C157.4 138.601 157 138.401 157.2 138.201C157.2 138.201 156.9 138.001 157.5 138.001C157.7 138.001 157.2 137.901 157.2 137.801C157.2 137.701 157.2 137.601 157.2 137.401C157.2 137.201 157.3 137.101 157.2 136.901C157.2 136.801 157 136.601 156.9 136.501C156.9 136.401 156.9 136.301 156.9 136.201C157 136.101 157.2 136.001 157.3 135.901C157.3 135.801 157.2 135.601 157.5 135.501C158.1 135.401 157.9 135.101 158 134.801C158.1 134.601 158.2 134.401 158.2 134.101C158.2 133.901 158.7 134.001 158.7 133.801C158.7 133.801 160.2 134.101 160.6 134.201H160.8C161.2 134.501 161.9 134.801 161.8 134.901C161.7 135.101 161.7 135.301 161.6 135.501L162.3 135.801Z" fill="black"/>
<path d="M162.599 169.701C162.399 169.701 162.099 169.801 161.899 169.901C161.899 169.901 161.699 169.701 161.699 170.301C161.699 170.601 161.499 170.001 161.399 170.001C161.199 170.101 160.899 170.001 160.699 170.201C160.499 170.201 160.299 170.601 159.999 170.601C159.799 170.601 159.499 170.401 159.299 170.701C159.099 171.001 158.899 170.501 158.699 170.701C158.499 170.801 158.299 170.901 158.099 170.701C157.999 170.501 157.799 170.301 157.699 170.401C157.699 170.401 157.499 170.801 157.399 170.701C157.399 170.701 157.199 170.401 157.099 171.001C157.099 171.001 157.099 171.001 157.099 170.801C157.099 170.401 156.899 170.401 156.799 170.701C156.699 171.001 156.599 170.901 156.499 170.901C156.299 170.901 156.099 170.901 155.899 170.901C155.799 170.901 155.699 170.601 155.499 170.501C155.399 170.501 155.099 170.701 155.099 170.301C155.099 170.001 154.899 169.901 154.799 169.901C154.799 169.901 154.799 169.601 154.499 170.201C154.499 169.401 153.999 170.301 153.799 170.001C153.599 169.701 153.399 169.801 153.099 169.701C153.099 169.701 153.099 169.501 152.799 169.901C152.799 170.001 152.599 170.001 152.699 169.901C152.699 169.201 152.499 169.501 152.299 169.401C152.199 169.201 151.799 169.401 151.899 168.801C151.899 168.601 151.899 168.401 151.499 168.801C151.299 169.001 151.399 168.801 151.299 168.801L150.999 169.001C150.999 169.001 150.999 168.701 150.999 168.601C150.399 169.001 150.599 168.101 150.299 168.001C149.899 168.001 149.699 167.701 149.499 167.401C149.499 167.201 149.399 167.001 150.099 166.101C150.399 165.701 150.799 165.301 151.099 165.101C151.299 165.001 151.499 164.801 151.599 164.801C151.699 164.801 151.899 164.801 151.999 164.701C152.199 164.701 152.699 164.301 152.599 164.701C152.599 164.701 152.799 164.601 152.599 165.001C153.199 164.501 153.099 165.001 153.299 165.001C153.499 165.001 153.899 164.601 153.899 165.001C154.299 164.501 154.299 164.601 154.299 164.801C154.299 165.501 154.799 165.301 154.999 165.501C155.299 165.701 155.599 165.701 155.899 165.901C155.899 165.901 156.099 165.601 156.099 165.901C156.099 166.201 156.199 165.901 156.299 166.001H156.499C156.599 166.701 156.999 166.401 157.199 166.501C157.499 166.501 157.699 166.701 157.999 166.501C158.199 166.501 158.299 166.101 158.499 166.201C158.499 166.201 158.599 165.901 158.699 166.501C158.699 166.701 158.699 166.201 158.799 166.201C158.899 166.201 158.999 166.201 159.099 166.201C159.199 166.201 159.399 166.201 159.499 166.201C159.499 166.201 159.699 165.901 159.699 165.801C159.699 165.801 159.899 165.801 159.999 165.801C160.099 165.801 160.299 166.001 160.399 166.101C160.499 166.101 160.599 165.801 160.799 166.101C161.099 166.501 161.299 166.201 161.499 166.201C161.699 166.201 161.999 166.201 162.099 166.001C162.099 165.901 162.499 166.301 162.599 166.301C162.599 166.301 163.299 167.601 163.499 168.101V168.301C163.499 168.801 163.699 169.501 163.499 169.501C163.199 169.501 162.899 169.701 162.699 169.801L162.599 169.701Z" fill="black"/>
<path d="M126.8 167.6C126.1 167.4 125.4 167.1 124.8 166.8C124.5 166.8 124.4 166.4 123.9 166.8C123.6 167 123.7 166.3 123.5 166.2C122.9 166 122.4 165.5 121.8 165.2C121.2 164.9 120.6 164.7 120.1 164.4C119.6 164.1 119.3 163.5 118.6 163.3C118 163.2 118 162.5 117.6 162.3C117.1 162.1 116.7 161.8 116.5 161.3C116.3 160.9 116.2 160.5 115.8 160.2C115.6 160 115.1 160 114.9 159.7C114.7 159.4 114.8 158.9 114 158.9C114 158.9 114 158.7 114 158.6C114.2 158.1 114.1 157.7 113.8 157.5C113.5 157.3 113.5 157 113.4 156.8C113.4 156.1 113.3 155.6 113.4 155C113.4 154.5 113.7 154.1 113.9 153.7C114 153.2 113.9 152.7 114.2 152.3C114.6 151.9 114.7 151.5 114.9 151.1C114.9 150.9 115.4 150.7 114.9 150.3V150.2C115.4 150.1 115.6 149.7 115.7 149.3C115.7 148.9 115.9 148.5 116.2 148.2C116.9 147.8 117.4 147.1 118.1 146.7C118.3 146.6 118.6 146.7 118.5 146.1C118.5 145.9 118.7 145.8 118.8 145.9C119.6 146.2 120 145.6 120.6 145.6C121.3 145.6 121.9 145.1 122.6 145.6C122.9 145.8 123.2 145.9 123.6 145.3C123.8 145 124.1 145.3 124.3 145.3C124.5 145.3 124.7 145 124.9 145C125.1 145 125.2 145.3 125.4 145.4C125.4 145.4 125.5 145.4 125.6 145.4C126.7 144.9 127.4 146 128.3 146.2C129.2 146.4 130 146.9 130.7 147.4C131.1 147.7 131.4 148.2 131 149.3C130.8 149.8 130.5 150.2 130.1 150.4C129.9 150.5 129.6 150.6 129.5 150.6C129.3 150.6 129 150.6 128.8 150.6C128.3 150.6 127.7 150.8 127.4 150.4C127.4 150.3 127.1 150.4 127.1 150V149.9C126.3 150.4 125.9 149.8 125.3 149.7C124.8 149.7 124.3 150.2 123.9 150C123.7 150.6 123.4 150.5 123.2 150.4C122.8 150.1 122.3 150.2 121.9 150.4C121.5 150.6 121.2 150.8 120.8 151C120 151.4 119.5 152 119.1 152.7C119.1 152.8 119.3 153.1 119 153.1C118.7 153.1 118.8 153.4 118.8 153.6C118.8 153.8 118.8 154 118.6 154.1C117.8 154.7 118.1 155.6 118.1 156.3C118.1 157.1 118.1 157.7 118.5 157.9C118.7 158.1 119.3 158.1 119.6 158.6C119.7 158.8 120.1 158.7 119.9 159.3C119.9 159.5 120.3 159.3 120.4 159.3C120.7 159.5 121 159.8 121.3 160C121.7 160.3 122.1 160.7 122.5 161C122.8 161.2 123.2 161.1 123.4 161.3C123.7 161.4 123.9 161.6 124.2 161.8C124.5 162.1 124.7 162.5 125 162.7C125.3 163 125.8 162.9 126 163.4C126.4 164.2 127.2 164.3 127.8 164.5C128.4 164.8 129.1 165 129.8 165C130.2 165 130.5 165.5 130.9 165.5C131.1 165.5 131.3 167 131.2 167.5V167.7C130.7 168.1 130.2 168.9 129.6 168.7C128.8 168.5 127.9 168.4 127.1 168.1L126.8 167.6Z" fill="black"/>
<path d="M130.801 122.9C130.901 123.3 131.001 123.8 131.201 124.2C131.201 124.4 131.101 124.6 131.601 124.6C131.901 124.6 131.301 124.9 131.401 125.1C131.601 125.5 131.601 125.9 131.801 126.3C132.001 126.7 132.301 127 132.501 127.4C132.701 127.8 132.501 128.3 133.001 128.6C133.401 128.8 133.001 129.3 133.201 129.6C133.401 129.9 133.601 130.2 133.501 130.7C133.501 131 133.301 131.3 133.501 131.5C133.601 131.6 134.001 131.7 134.001 131.9C134.001 132.1 133.801 132.3 134.501 132.3C134.501 132.3 134.501 132.4 134.401 132.5C134.001 132.8 134.101 133 134.401 133.1C134.701 133.1 134.701 133.3 134.701 133.4C134.801 133.8 134.901 134.1 134.901 134.5C134.901 134.8 134.701 135.1 134.701 135.4C134.701 135.7 135.001 136 134.701 136.3C134.401 136.6 134.501 136.9 134.501 137.1C134.501 137.3 134.201 137.5 134.901 137.5C134.101 138 135.201 138.4 134.901 138.9C134.701 139.4 134.901 139.9 134.901 140.4C134.901 140.5 134.701 140.7 135.101 140.8C135.301 140.8 135.301 141 135.101 141.1C134.401 141.4 134.801 141.8 134.601 142.2C134.401 142.6 134.601 143.1 134.001 143.4C133.801 143.5 133.601 143.7 134.001 144.1C134.201 144.3 133.901 144.4 134.001 144.6C134.001 144.7 134.201 145 134.201 145.1C134.201 145.2 133.901 145.2 133.801 145.3C133.801 145.3 133.801 145.3 133.801 145.4C134.201 146.3 133.101 146.5 132.901 147.2C132.901 147.5 132.601 147.8 132.401 148.1C132.201 148.4 131.901 148.6 131.701 148.9C131.401 149.1 131.001 149.3 130.001 148.7C129.601 148.4 129.201 148 129.001 147.7C128.901 147.5 128.801 147.2 128.801 147.1C128.801 146.9 128.801 146.7 128.801 146.6C128.801 146.2 128.601 145.7 129.001 145.6C129.101 145.6 129.001 145.3 129.401 145.6C128.901 144.8 129.601 144.8 129.701 144.3C129.801 143.9 129.301 143.4 129.701 143.2C129.201 142.8 129.301 142.7 129.501 142.5C130.301 142 130.001 141.2 130.101 140.5C130.301 139.8 130.101 139 130.101 138.3C130.101 138.2 129.701 138.1 130.101 137.9C130.401 137.7 130.101 137.6 130.101 137.4C130.101 137.2 129.901 137.1 130.101 136.9C130.701 136.2 130.101 135.7 130.101 135C130.101 134.4 129.901 133.7 129.601 133.2C129.401 132.9 129.001 132.6 129.001 132.2C129.001 132 128.601 132 129.101 131.6C129.201 131.6 128.801 131.5 128.701 131.4C128.601 131.2 128.501 130.9 128.401 130.6C128.301 130.2 128.201 129.9 128.001 129.5C127.901 129.3 127.601 129.1 127.501 128.9C127.401 128.7 127.301 128.4 127.301 128.2C127.301 127.9 127.301 127.5 127.301 127.2C127.301 126.9 126.901 126.6 127.101 126.2C127.401 125.5 127.001 125 126.901 124.4C126.901 123.8 126.701 123.2 126.401 122.7C126.301 122.4 126.701 122 126.601 121.6C126.601 121.4 128.001 121 128.501 121H128.701C129.201 121.2 130.001 121.3 130.001 121.7C130.001 122.2 130.201 122.7 130.301 123.1L130.801 122.9Z" fill="black"/>
<path d="M173.7 114.101C174.4 113.401 175.1 112.501 175.4 111.701C175.5 111.401 175.9 111.101 175.4 110.601C175.2 110.401 175.8 110.201 175.8 109.901C175.8 109.101 175.8 108.201 175.3 107.401C174.9 106.601 174.2 106.001 173.6 105.401C173 104.801 172.4 104.001 171.5 103.901C170.7 103.801 170.3 103.101 169.5 102.901C168.7 102.801 167.9 102.601 167.1 102.301C166.5 102.001 165.9 101.701 165.3 101.801C164.9 101.801 164.5 102.101 164.1 102.101C163.7 102.101 163.3 101.801 162.9 102.401C162.9 102.401 162.7 102.401 162.6 102.201C162.2 101.801 161.6 101.801 161.3 102.001C160.9 102.301 160.6 102.201 160.3 102.201C159.4 102.201 158.5 102.201 157.6 102.201C156.9 102.201 156.2 101.901 155.5 101.901C154.8 101.901 154 102.201 153.4 101.901C152.7 101.701 152.1 101.701 151.4 101.801C151 101.801 150.6 101.601 150.3 102.301H150.1C148.9 101.601 148.1 102.801 147 102.801C145.9 102.801 144.8 103.101 143.7 103.401C143.4 103.401 143.1 103.401 142.9 103.901C142.9 104.101 142.6 104.201 142.4 104.101C141.5 103.701 140.7 104.301 139.9 104.401C139 104.601 138.1 105.101 137.1 105.001C136.7 105.001 136.1 105.001 135.9 105.801C135.9 106.101 135.3 106.101 135 106.301C134.8 106.501 134.7 106.801 134.5 107.001C134.3 107.101 134 107.001 133.8 107.001C133.8 107.001 133.7 107.001 133.6 107.101C133 108.301 131.5 108.401 131 109.401C130.5 110.401 130 111.401 129.7 112.401C129.6 113.001 129.4 113.501 128.4 114.101C127.9 114.401 127.4 114.601 127 114.301C126.7 114.101 126.5 113.801 126.4 113.401C126.3 112.901 126.2 112.301 126.2 111.801C126.2 110.701 126 109.401 126.8 108.501C127 108.201 127 107.701 127.6 107.701C127.6 107.701 127.8 107.701 127.8 107.501C127.8 106.701 128.3 106.001 128.9 105.401C129.5 104.901 130.1 104.501 130.7 104.001C131.7 103.201 132.5 102.101 133.7 101.801C134.1 100.901 134.9 100.701 135.6 100.701C138 100.501 140.1 99.4006 142.4 99.0006C144.7 98.5006 147 98.0006 149.3 97.8006C149.7 97.8006 150 97.4006 150.5 97.6006C151 97.8006 151.5 97.6006 152 97.6006C152.5 97.6006 152.9 97.4006 153.4 97.6006C155.3 98.1006 157.1 97.6006 158.9 97.8006C160.7 97.8006 162.5 98.0006 164.3 97.9006C165.4 97.9006 166.6 97.7006 167.7 97.9006C168.2 98.0006 168.8 97.9006 169.1 98.5006C169.1 98.7006 169.8 98.4006 170.1 98.5006C170.9 98.7006 171.7 99.0006 172.5 99.3006C173.6 99.8006 174.6 100.501 175.6 101.201C176.2 101.601 176.9 102.001 177.5 102.601C178.1 103.201 178.6 103.901 178.9 104.601C179.4 105.601 179.6 106.601 179.7 107.701C179.9 108.801 180.2 110.001 179.7 111.101C178.9 113.001 178.2 114.701 177 116.001C175.8 117.301 174.4 118.301 173.1 119.301C172.4 119.901 171.4 119.801 170.7 120.201C170.4 120.401 169.2 119.401 169.1 118.801C169.1 118.801 169.1 118.601 169.1 118.501C169.6 117.701 169.9 116.701 170.7 116.301C171.9 115.701 172.9 114.901 173.7 114.101Z" fill="black"/>
</svg>
