<svg width="300" height="300" viewBox="0 0 300 300" fill="none" xmlns="http://www.w3.org/2000/svg">
<path d="M186.401 148.402C184.701 146.602 183.001 144.702 181.301 142.902C180.601 142.202 180.201 141.402 179.101 141.002C178.601 140.802 178.401 139.702 177.801 139.102C176.201 137.402 174.601 135.702 173.001 134.002C171.401 132.402 169.801 131.202 168.201 130.702C166.601 130.102 164.501 129.602 162.301 129.902C160.501 130.102 158.801 129.602 157.101 129.802C155.201 130.002 153.301 130.202 151.501 130.102C150.201 130.102 148.801 130.002 147.501 130.302C146.701 130.502 146.001 130.902 145.101 131.002C144.301 131.102 143.301 131.002 142.701 131.802C142.701 131.802 142.301 131.802 142.101 131.802C141.101 131.602 140.101 131.802 139.401 132.302C138.801 132.702 138.101 132.902 137.501 133.002C135.701 133.502 133.901 134.002 132.301 134.602C131.101 135.002 129.901 135.402 128.901 136.002C127.801 136.702 127.301 137.802 126.501 138.602C125.701 139.402 125.301 140.502 125.001 141.702C124.801 142.402 124.401 143.102 125.001 143.802C125.001 143.802 125.001 144.102 125.001 144.202C123.901 146.202 125.001 148.402 124.801 150.502C124.601 152.802 124.801 155.102 124.801 157.402C124.801 158.002 124.701 158.702 125.201 159.202C125.401 159.402 125.401 160.002 125.301 160.302C124.801 162.002 125.301 163.802 125.301 165.602C125.301 167.602 125.901 169.602 125.601 171.602C125.501 172.502 125.601 173.602 126.201 174.602C126.501 175.002 126.401 176.002 126.601 176.802C126.701 177.402 127.101 177.902 127.201 178.502C127.201 179.002 127.201 179.502 127.101 180.102C127.101 180.302 127.101 180.402 127.101 180.602C128.201 183.402 127.801 186.402 128.501 189.302C129.201 192.202 129.701 195.202 130.101 198.102C130.401 199.702 130.501 201.402 129.601 202.802C129.201 203.402 128.601 203.502 128.201 202.802C127.901 202.302 127.501 201.802 127.401 201.202C127.101 200.302 126.801 199.402 126.601 198.502C126.101 196.702 125.201 194.902 125.101 192.902C125.101 192.302 124.701 191.602 125.101 191.002C125.101 191.002 125.101 190.702 125.101 190.502C123.901 188.002 123.901 185.202 123.401 182.602C123.001 180.302 122.001 178.202 122.001 175.902C121.201 174.702 121.101 173.202 121.201 171.902C121.301 167.302 120.501 162.802 120.401 158.202C120.401 155.902 120.301 153.502 120.301 151.202C120.301 148.902 120.301 146.502 120.601 144.102C120.601 143.302 120.401 142.502 120.901 141.502C121.301 140.602 121.501 139.402 121.901 138.302C122.301 137.302 122.701 136.202 123.401 135.502C126.401 132.302 130.101 130.402 133.601 129.302C137.101 128.302 140.701 127.502 144.301 126.802C146.501 126.302 148.601 125.702 150.901 125.602C151.901 125.602 152.801 125.102 153.801 125.602C154.101 125.802 154.901 125.302 155.601 125.202C157.101 125.102 158.701 125.102 160.201 125.102C162.301 125.102 164.401 125.102 166.801 125.502C168.201 125.702 169.701 125.802 171.201 126.502C172.701 127.202 174.001 128.302 175.001 129.302C176.301 130.702 177.201 132.002 178.301 133.302C179.401 134.602 180.901 135.802 181.801 137.202C183.601 139.802 185.901 141.902 187.901 144.202C190.001 146.502 192.001 148.802 194.201 151.002C195.401 152.202 196.201 153.702 197.301 155.002C197.801 155.602 197.501 157.402 196.901 157.502C196.801 157.502 196.601 157.502 196.501 157.502C195.001 156.602 193.401 156.002 192.201 154.502C190.301 152.402 188.301 150.302 186.401 148.302V148.402Z" fill="black"/>
<path d="M175.902 162.802C176.302 162.602 176.602 162.502 177.002 162.202C177.102 162.202 177.402 162.202 177.302 161.702C177.302 161.402 177.702 161.902 177.802 161.902C178.102 161.702 178.502 161.602 178.802 161.402C179.102 161.202 179.302 160.802 179.602 160.602C179.902 160.402 180.402 160.602 180.602 160.102C180.802 159.702 181.202 160.102 181.402 159.802C181.602 159.602 181.902 159.402 182.302 159.502C182.602 159.502 182.902 159.702 183.002 159.502C183.002 159.402 183.002 159.002 183.202 159.002C183.302 159.002 183.602 159.202 183.502 158.502C183.502 158.502 183.502 158.502 183.702 158.502C184.002 158.802 184.202 158.702 184.202 158.502C184.202 158.202 184.302 158.202 184.402 158.102C184.702 158.002 185.002 157.802 185.302 157.802C185.502 157.802 185.802 157.802 186.102 157.802C186.302 157.802 186.502 157.402 186.802 157.602C187.102 157.802 187.302 157.702 187.502 157.602C187.602 157.602 187.902 157.802 187.702 157.102C188.302 157.802 188.302 156.602 188.702 156.702C189.102 156.702 189.402 156.502 189.802 156.402C189.802 156.402 190.102 156.502 190.002 156.002C190.002 155.802 190.002 155.802 190.202 155.902C190.702 156.402 190.802 155.902 191.102 155.902C191.402 155.902 191.702 155.502 192.102 155.902C192.302 156.102 192.502 156.102 192.502 155.502C192.502 155.202 192.702 155.502 192.802 155.302C192.802 155.302 192.802 154.902 193.002 154.902C193.002 154.902 193.202 155.102 193.302 155.202C193.602 154.402 194.302 155.202 194.702 154.802C195.102 154.502 195.602 154.402 196.102 154.402C196.402 154.402 196.702 154.402 197.202 155.502C197.402 156.002 197.602 156.502 197.502 156.902C197.502 157.202 197.502 157.402 197.402 157.502C197.302 157.602 197.202 157.802 197.102 157.902C196.902 158.202 196.702 158.802 196.402 158.602C196.302 158.602 196.302 158.902 196.002 158.402C195.802 159.302 195.302 158.902 194.902 159.102C194.602 159.302 194.402 160.002 194.002 159.802C194.002 160.502 193.802 160.402 193.502 160.302C192.602 159.902 192.102 160.502 191.402 160.702C190.702 160.802 190.102 161.202 189.402 161.402C189.302 161.402 189.402 161.802 189.102 161.602C188.902 161.402 188.802 161.602 188.602 161.702C188.502 161.702 188.402 161.902 188.202 161.802C187.402 161.402 187.102 162.002 186.502 162.102C186.002 162.202 185.402 162.402 185.002 162.802C184.702 163.002 184.602 163.502 184.202 163.502C184.002 163.502 184.002 163.902 183.702 163.402C183.602 163.302 183.702 163.702 183.602 163.802C183.402 163.902 183.202 164.002 183.002 164.102C182.702 164.202 182.402 164.302 182.102 164.502C181.902 164.602 181.902 164.902 181.702 165.102C181.502 165.202 181.402 165.302 181.102 165.402C180.802 165.402 180.502 165.402 180.202 165.402C179.902 165.402 179.802 165.802 179.402 165.702C178.702 165.502 178.402 165.902 178.002 166.102C177.502 166.302 177.102 166.402 176.702 166.802C176.502 167.002 176.002 166.702 175.802 166.802C175.702 166.802 174.902 165.602 174.702 165.202V165.002C174.702 164.502 174.602 163.702 174.902 163.602C175.302 163.502 175.702 163.202 176.102 163.002L175.902 162.802Z" fill="black"/>
<path d="M178.4 181.702C178.4 181.402 178.3 181.002 178.1 180.702C178.1 180.602 178.3 180.402 177.7 180.402C177.4 180.402 178 180.102 178 180.002C177.9 179.702 177.9 179.402 177.7 179.102C177.6 178.802 177.3 178.602 177.1 178.302C177 178.002 177.1 177.602 176.8 177.402C176.5 177.202 176.9 176.902 176.8 176.702C176.6 176.502 176.5 176.202 176.6 175.902C176.7 175.702 176.9 175.502 176.7 175.302C176.7 175.302 176.3 175.202 176.3 175.102C176.3 175.002 176.5 174.802 175.9 174.802C175.9 174.802 175.9 174.802 176 174.702C176.4 174.502 176.3 174.302 176 174.302C175.7 174.302 175.7 174.202 175.7 174.102C175.7 173.902 175.5 173.602 175.5 173.402C175.5 173.202 175.7 173.002 175.7 172.802C175.7 172.602 175.4 172.502 175.7 172.202C176 171.902 175.9 171.802 175.8 171.602C175.8 171.602 176 171.302 175.4 171.402C176.1 170.902 175 170.902 175.1 170.602C175.2 170.302 175.1 170.002 174.9 169.702C174.9 169.702 175 169.502 174.6 169.502C174.4 169.502 174.4 169.502 174.5 169.402C175 169.002 174.6 168.902 174.7 168.602C174.7 168.302 174.4 168.102 174.7 167.702C174.9 167.502 174.9 167.402 174.3 167.402C174 167.402 174.3 167.202 174.2 167.102C174.2 167.102 173.8 167.102 173.8 167.002C173.8 167.002 174 166.802 174.1 166.702C173.4 166.502 174.1 165.902 173.8 165.602C173.5 165.302 173.5 164.902 173.4 164.502C173.4 164.302 173.4 164.002 174.5 163.502C175 163.302 175.5 163.102 175.8 163.102C176 163.102 176.3 163.102 176.4 163.102C176.5 163.102 176.7 163.302 176.8 163.402C177.1 163.602 177.7 163.702 177.5 164.002C177.5 164.102 177.8 164.102 177.3 164.302C178.2 164.402 177.8 164.902 177.9 165.302C178 165.602 178.7 165.702 178.5 166.102C179.2 166.102 179.1 166.302 179 166.502C178.5 167.302 179.1 167.702 179.2 168.402C179.2 169.002 179.5 169.602 179.6 170.202C179.6 170.302 180 170.302 179.8 170.502C179.6 170.702 179.8 170.802 179.8 170.902C179.8 171.002 180 171.102 179.8 171.302C179.3 171.902 179.8 172.302 179.8 172.802C179.8 173.302 179.8 173.802 180.2 174.202C180.4 174.502 180.8 174.702 180.7 175.002C180.7 175.102 181 175.202 180.5 175.402C180.3 175.402 180.8 175.402 180.9 175.602C180.9 175.802 181 176.002 181.1 176.202C181.1 176.502 181.1 176.802 181.3 177.002C181.3 177.202 181.7 177.302 181.8 177.402C181.9 177.602 181.9 177.702 181.9 177.902C181.9 178.102 181.7 178.402 181.7 178.602C181.7 178.802 182 179.002 181.8 179.302C181.4 179.802 181.8 180.202 181.8 180.602C181.8 181.002 181.9 181.402 182.1 181.802C182.2 182.002 181.8 182.302 181.9 182.602C181.9 182.602 180.5 183.202 180 183.302H179.8C179.3 183.302 178.5 183.302 178.5 182.902C178.5 182.502 178.3 182.202 178.2 181.802L178.4 181.702Z" fill="black"/>
<path d="M172.001 201.703C172.101 201.303 172.301 200.903 172.301 200.503C172.301 200.303 172.601 200.303 172.201 200.003C172.001 199.803 172.601 199.903 172.601 199.703C172.601 199.303 172.901 199.003 172.901 198.603C172.901 198.203 172.901 197.803 172.901 197.403C172.901 197.003 173.401 196.803 173.201 196.303C173.001 195.903 173.601 195.803 173.601 195.503C173.601 195.203 173.601 194.803 173.901 194.603C174.101 194.403 174.401 194.303 174.401 194.103C174.401 193.903 174.101 193.703 174.201 193.603C174.201 193.503 174.601 193.403 174.001 193.103C174.001 193.103 174.001 193.103 174.201 193.103C174.601 193.103 174.701 192.903 174.401 192.703C174.201 192.503 174.301 192.403 174.301 192.303C174.301 192.003 174.401 191.703 174.601 191.403C174.701 191.203 175.001 191.103 175.201 190.903C175.301 190.703 175.201 190.403 175.501 190.203C175.901 190.103 175.901 189.903 176.001 189.703C176.001 189.603 176.401 189.503 175.801 189.203C176.701 189.203 175.801 188.503 176.101 188.203C176.401 187.903 176.401 187.503 176.501 187.203C176.501 187.203 176.701 187.103 176.301 186.803C176.201 186.803 176.201 186.603 176.301 186.603C177.001 186.603 176.701 186.103 176.901 185.903C177.101 185.603 176.901 185.203 177.501 185.103C177.701 185.103 177.901 184.903 177.401 184.603C177.201 184.403 177.401 184.403 177.401 184.303C177.401 184.203 177.101 184.003 177.201 183.903C177.201 183.903 177.501 183.903 177.601 183.803C177.101 183.203 178.101 183.003 178.001 182.503C178.001 182.203 178.001 182.103 178.001 181.803C178.001 181.503 178.201 181.203 178.401 180.803C178.601 180.403 179.101 180.003 180.201 180.603C180.701 180.803 181.101 181.203 181.301 181.503C181.401 181.703 181.601 181.903 181.601 182.003C181.601 182.103 181.701 182.303 181.801 182.403C181.901 182.603 182.401 182.903 182.001 183.203C181.901 183.203 182.101 183.503 181.601 183.403C182.301 184.003 181.601 184.403 181.601 184.803C181.601 185.203 182.001 185.703 181.601 186.003C182.101 186.403 182.001 186.603 181.701 186.703C180.801 187.203 181.001 188.003 180.701 188.703C180.401 189.403 180.201 190.103 179.901 190.803C179.901 190.903 180.201 191.103 179.901 191.203C179.601 191.203 179.701 191.503 179.701 191.603C179.701 191.703 179.701 191.903 179.501 192.003C178.701 192.303 178.901 193.003 178.601 193.503C178.301 194.003 178.101 194.503 178.101 195.103C178.101 195.503 178.301 195.903 178.101 196.203C178.001 196.303 178.301 196.603 177.701 196.503C177.501 196.503 177.901 196.803 177.901 196.903C177.901 197.103 177.801 197.403 177.701 197.603C177.601 197.903 177.401 198.203 177.401 198.603C177.401 198.803 177.501 199.103 177.501 199.303C177.501 199.503 177.501 199.703 177.301 199.903C177.101 200.103 176.901 200.303 176.701 200.603C176.601 200.803 176.701 201.203 176.401 201.403C175.801 201.703 175.901 202.303 175.701 202.703C175.501 203.103 175.301 203.603 175.301 204.103C175.301 204.403 174.801 204.503 174.701 204.703C174.701 204.803 173.201 204.703 172.701 204.503H172.501C172.101 204.103 171.501 203.703 171.601 203.403C171.801 202.903 171.901 202.503 172.001 202.003V201.703Z" fill="black"/>
<path d="M168.3 154.7C168.3 154.6 168.3 154.4 168.3 154.3C168.3 154.3 168.5 154.2 168 154.1C167.7 154.1 168.4 154.1 168.3 154C168.3 153.9 168.3 153.7 168.3 153.6C168.3 153.5 168 153.3 167.9 153.2C167.9 153.1 168.1 152.9 167.8 152.8C167.5 152.8 168 152.6 167.8 152.5C167.7 152.5 167.6 152.3 167.8 152.2C168 152.2 168.2 152 168.1 151.9C168.1 151.9 167.7 151.9 167.7 151.8C167.7 151.8 168 151.7 167.4 151.7C167.4 151.7 167.4 151.7 167.5 151.7C167.9 151.6 167.9 151.5 167.5 151.5C167.2 151.5 167.3 151.5 167.2 151.5C167.2 151.4 167.2 151.3 167.2 151.2C167.2 151.2 167.5 151 167.5 150.9C167.5 150.9 167.3 150.8 167.5 150.6C167.8 150.5 167.8 150.4 167.7 150.3C167.7 150.3 168 150.1 167.3 150.3C168.1 150 167 150.1 167.2 149.9C167.4 149.7 167.2 149.6 167.2 149.5C167.2 149.5 167.4 149.4 166.9 149.5C166.7 149.5 166.7 149.5 166.9 149.5C167.5 149.2 167.1 149.2 167.2 149.1C167.2 149 167 148.9 167.4 148.7C167.6 148.6 167.7 148.5 167.1 148.7C166.8 148.7 167.1 148.7 167.1 148.6H166.8C166.8 148.6 167 148.5 167.1 148.4C166.4 148.4 167.1 148 167 147.9C166.8 147.9 166.8 147.6 166.8 147.4C166.8 147.3 166.9 147.1 168 146.6C168.5 146.4 169 146.1 169.3 146.1C169.5 146.1 169.8 146 169.8 146C169.9 146 170.1 146 170.2 146C170.4 146 171 146 170.8 146.2C170.8 146.2 171 146.2 170.6 146.4C171.4 146.3 171 146.7 171.1 146.8C171.1 146.9 171.8 146.8 171.6 147.1C172.2 147 172.2 147.1 172 147.3C171.5 147.8 172 148 172 148.3C172 148.6 172.2 148.9 172.2 149.3C172.2 149.3 172.6 149.3 172.3 149.5C172.1 149.6 172.3 149.7 172.3 149.7C172.3 149.7 172.5 149.8 172.3 149.9C171.7 150.3 172.1 150.5 172.1 150.7C172.1 151 172.1 151.2 172.2 151.5C172.3 151.6 172.7 151.8 172.6 151.9C172.6 151.9 172.9 152 172.3 152.1C172.1 152.1 172.6 152.1 172.6 152.1C172.6 152.2 172.6 152.3 172.6 152.4C172.6 152.5 172.6 152.7 172.6 152.8C172.6 152.8 172.9 153 173 153.1C173 153.1 173 153.3 173 153.4C173 153.5 172.7 153.7 172.7 153.8C172.7 153.9 172.9 154.1 172.7 154.2C172.2 154.4 172.4 154.6 172.4 154.9C172.4 155.1 172.3 155.3 172.4 155.6C172.4 155.7 172 155.8 171.9 155.9C171.9 155.9 170.4 155.9 169.9 155.9H169.7C169.2 155.8 168.5 155.6 168.6 155.5C168.6 155.3 168.6 155.2 168.6 155L168.3 154.7Z" fill="black"/>
<path d="M157.902 155.501C157.902 155.401 157.902 155.201 157.902 155.101C157.902 155.101 158.102 155.001 157.602 154.901C157.302 154.901 158.002 154.901 157.902 154.801C157.902 154.701 157.902 154.501 157.902 154.401C157.902 154.301 157.602 154.101 157.502 154.001C157.502 153.901 157.702 153.701 157.402 153.601C157.102 153.601 157.602 153.401 157.402 153.301C157.302 153.301 157.202 153.101 157.402 153.001C157.602 153.001 157.802 152.801 157.702 152.701C157.702 152.701 157.302 152.701 157.302 152.601C157.302 152.601 157.602 152.501 157.002 152.501C157.002 152.501 157.002 152.501 157.102 152.501C157.502 152.401 157.502 152.301 157.102 152.301C156.802 152.301 156.902 152.301 156.802 152.301C156.802 152.201 156.802 152.101 156.802 152.001C156.802 152.001 157.102 151.801 157.102 151.701C157.102 151.701 156.902 151.601 157.102 151.401C157.402 151.301 157.402 151.201 157.302 151.101C157.302 151.101 157.602 150.901 156.902 151.101C157.702 150.801 156.602 150.901 156.802 150.701C157.002 150.501 156.802 150.401 156.802 150.301C156.802 150.301 157.002 150.201 156.502 150.301C156.302 150.301 156.302 150.301 156.502 150.301C157.102 150.001 156.702 150.001 156.802 149.901C156.802 149.801 156.602 149.701 157.002 149.501C157.202 149.401 157.302 149.301 156.702 149.501C156.402 149.501 156.702 149.501 156.702 149.401H156.402C156.402 149.401 156.602 149.301 156.702 149.201C156.002 149.201 156.702 148.801 156.602 148.701C156.402 148.701 156.402 148.401 156.402 148.201C156.402 148.101 156.502 147.901 157.602 147.401C158.102 147.201 158.602 146.901 158.902 146.901C159.102 146.901 159.402 146.801 159.402 146.801C159.502 146.801 159.702 146.801 159.802 146.801C160.002 146.801 160.602 146.801 160.402 147.001C160.402 147.001 160.602 147.001 160.202 147.201C161.002 147.101 160.602 147.501 160.702 147.601C160.702 147.701 161.402 147.601 161.202 147.901C161.802 147.801 161.802 147.901 161.602 148.101C161.102 148.601 161.602 148.801 161.602 149.101C161.602 149.401 161.802 149.701 161.802 150.101C161.802 150.101 162.202 150.101 161.902 150.301C161.702 150.401 161.902 150.501 161.902 150.501C161.902 150.501 162.102 150.601 161.902 150.701C161.302 151.101 161.702 151.301 161.702 151.501C161.702 151.801 161.702 152.001 161.802 152.301C161.902 152.401 162.302 152.601 162.202 152.701C162.202 152.701 162.502 152.801 161.902 152.901C161.702 152.901 162.202 152.901 162.202 152.901C162.202 153.001 162.202 153.101 162.202 153.201C162.202 153.401 162.202 153.501 162.202 153.601C162.202 153.601 162.502 153.801 162.602 153.901C162.602 153.901 162.602 154.101 162.602 154.201C162.602 154.301 162.302 154.501 162.302 154.601C162.302 154.701 162.502 154.901 162.302 155.001C161.802 155.201 162.002 155.401 162.002 155.701C162.002 155.901 161.902 156.101 162.002 156.401C162.002 156.501 161.602 156.601 161.502 156.701C161.502 156.701 160.002 156.701 159.502 156.701H159.302C158.802 156.601 158.102 156.401 158.202 156.301C158.202 156.101 158.202 156.001 158.202 155.801L157.902 155.501Z" fill="black"/>
<path d="M156.001 171C156.101 171.2 156.201 171.5 156.401 171.7C156.401 171.7 156.301 172 156.801 171.8C157.101 171.8 156.601 172.1 156.601 172.2C156.801 172.4 156.901 172.7 157.001 172.8C157.201 173 157.501 173 157.701 173.2C157.901 173.4 157.801 173.7 158.201 173.7C158.501 173.7 158.201 174.1 158.501 174.2C158.701 174.2 158.901 174.2 158.801 174.5C158.801 174.7 158.801 174.9 158.801 174.9C158.801 174.9 159.101 174.6 159.101 174.7C159.101 174.7 159.101 175 159.301 174.4C159.301 174.4 159.301 174.4 159.301 174.5C159.201 174.9 159.301 174.9 159.301 174.6C159.401 174.4 159.401 174.4 159.501 174.4C159.501 174.4 159.701 174.4 159.801 174.4C159.801 174.4 160.001 174.7 160.101 174.8C160.201 174.8 160.401 174.6 160.501 174.8C160.701 175.1 160.801 175.1 161.001 175.1C161.001 175.1 161.201 175.4 161.201 174.7C161.501 175.5 161.701 174.4 162.001 174.6C162.301 174.8 162.501 174.6 162.801 174.6C162.801 174.6 163.001 174.8 163.001 174.3C163.001 174.1 163.001 174.1 163.101 174.3C163.401 174.9 163.501 174.5 163.801 174.6C164.101 174.6 164.201 174.4 164.601 174.8C164.701 175 164.901 175.1 164.901 174.5C164.901 174.2 165.101 174.5 165.201 174.4C165.201 174.4 165.201 174.1 165.401 174C165.401 174 165.601 174.2 165.601 174.3C165.801 173.6 166.301 174.3 166.701 174.1C167.001 173.9 167.401 173.9 167.801 173.9C168.001 173.9 168.301 174.1 168.601 175.2C168.801 175.7 168.901 176.2 168.801 176.6C168.801 176.8 168.801 177.1 168.701 177.2C168.701 177.3 168.501 177.5 168.401 177.6C168.201 177.8 168.101 178.4 167.801 178.2C167.801 178.2 167.701 178.4 167.501 178C167.301 178.8 166.901 178.4 166.601 178.5C166.301 178.6 166.201 179.3 165.801 179.1C165.801 179.7 165.501 179.7 165.301 179.5C164.601 178.9 164.101 179.5 163.501 179.5C162.901 179.5 162.301 179.6 161.701 179.6C161.601 179.6 161.501 180 161.401 179.6C161.301 179.3 161.101 179.6 161.001 179.6C160.901 179.6 160.701 179.7 160.601 179.6C160.101 179 159.501 179.3 158.901 179.2C158.301 179 157.701 178.8 157.001 178.6C156.601 178.5 156.101 178.6 155.801 178.2C155.801 178.1 155.401 178.2 155.601 177.6C155.601 177.5 155.301 177.6 155.201 177.6C155.001 177.5 154.901 177.3 154.701 177.1C154.501 176.9 154.301 176.6 154.101 176.4C154.001 176.3 153.701 176.3 153.501 176.2C153.301 176.1 153.201 175.9 153.201 175.7C153.201 175.5 153.201 175.1 153.101 174.9C153.101 174.7 152.601 174.6 152.801 174.2C153.001 173.6 152.601 173.3 152.501 172.9C152.401 172.5 152.201 172.1 151.901 171.7C151.701 171.5 152.101 171.1 152.001 170.9C152.001 170.8 153.301 170.2 153.801 170H154.001C154.501 170 155.201 170 155.301 170.1C155.301 170.4 155.501 170.7 155.701 171H156.001Z" fill="black"/>
<path d="M181.4 205.598C180.3 205.598 179.2 205.598 178.1 205.798C177.7 205.798 177.3 205.598 176.9 206.198C176.7 206.498 176.3 205.898 175.9 205.898C174.9 205.998 173.9 205.998 172.9 206.098C171.9 206.198 171 206.498 170 206.698C169 206.798 168 206.698 167.1 206.998C166.3 207.298 165.5 206.898 164.8 206.998C164 207.198 163.1 207.298 162.3 207.198C161.7 207.098 161.1 206.898 160.5 207.098C160.1 207.098 159.8 207.498 159.4 207.498C159 207.498 158.6 207.298 158.3 207.898C158.3 207.898 158.1 207.898 158 207.798C157.6 207.398 157.1 207.498 156.8 207.798C156.5 208.098 156.2 208.098 155.9 208.098C155.1 208.098 154.2 208.298 153.4 208.298C152.8 208.298 152.1 208.098 151.5 208.098C150.8 208.098 150.2 208.398 149.5 208.098C148.9 207.798 148.3 207.898 147.7 207.898C147.4 207.898 147 207.698 146.7 208.298C146.7 208.298 146.6 208.298 146.5 208.298C145.5 207.498 144.6 208.698 143.6 208.498C142.6 208.298 141.6 208.498 140.5 208.598C140.2 208.598 139.9 208.398 139.7 208.898C139.7 209.098 139.3 209.098 139.2 208.898C138.4 208.298 137.6 208.698 136.8 208.598C135.9 208.498 135 208.798 134.1 208.298C133.7 208.098 133.2 207.998 132.7 208.598C132.5 208.898 132 208.598 131.7 208.598C131.4 208.598 131.2 208.898 130.9 208.898C130.7 208.898 130.4 208.698 130.2 208.498H130C128.7 209.098 127.4 208.198 126 208.298C124.6 208.298 123.2 208.098 121.8 207.698C121.4 207.598 121 207.398 120.7 207.098C120.4 206.798 120.1 206.298 120.1 205.698C120.1 205.098 120.3 204.598 120.7 204.398C121 204.298 121.3 204.098 121.5 204.098C121.9 204.098 122.3 204.098 122.7 204.098C123.5 204.098 124.3 203.698 125.1 204.098C125.3 204.198 125.7 203.898 125.8 204.498C125.8 204.498 125.9 204.598 126 204.498C127.2 203.798 128.3 204.398 129.4 204.398C130.4 204.398 131.3 203.798 132.3 203.998C132.8 203.398 133.5 203.498 134 203.698C135.9 204.298 137.9 203.798 139.9 203.798C141.9 203.798 143.9 203.598 145.9 203.498C146.2 203.498 146.5 203.098 146.9 203.398C147.3 203.598 147.8 203.398 148.2 203.398C148.6 203.398 149 203.198 149.4 203.398C151 203.998 152.5 203.398 154.1 203.398C155.7 203.398 157.2 203.398 158.8 202.998C159.7 202.798 160.7 202.398 161.6 202.498C162 202.498 162.4 202.198 162.9 202.698C163 202.898 163.4 202.398 163.6 202.298C164.2 202.198 164.9 202.198 165.6 202.098C166.5 202.098 167.4 202.098 168.3 201.898C168.9 201.898 169.4 201.498 169.9 201.398C170.5 201.298 171.1 201.298 171.6 201.298C172.3 201.298 173.1 201.498 173.8 201.498C174.6 201.498 175.3 201.198 176.1 201.498C177.5 201.898 178.8 201.498 180.2 201.498C181.6 201.498 182.9 201.498 184.3 201.298C185.1 201.198 185.8 201.698 186.5 201.598C186.9 201.598 187.4 202.998 187.2 203.598C187.2 203.598 187.2 203.798 187.1 203.798C186.4 204.298 185.8 204.998 184.9 204.998C183.7 204.998 182.4 204.998 181.2 205.198L181.4 205.598Z" fill="black"/>
<path d="M203.1 181.6C205.3 177.2 206.8 172.5 207.7 167.6C208.1 165.8 208.5 163.9 208.2 162C208 161 208.8 159.3 208.8 157.6C208.8 153 208.6 148.3 207.8 143.8C207 139.4 205.6 135.1 203.9 130.9C202.3 126.8 200.4 122.6 197.7 119.2C195.4 116.3 193.7 113.5 191.1 111.1C188.4 108.7 185.2 106.4 182.2 104.3C180 102.8 177.7 101.3 175.2 100.4C173.6 99.8005 172.1 99.5005 170.4 98.9005C169.6 98.6005 168.8 98.3005 167.9 98.0005C167.1 97.8005 166.2 97.6005 165.4 97.7005C165.3 97.7005 164.6 97.4005 164.2 97.3005C162.5 96.5005 160.3 96.1005 158.8 96.2005C157.3 96.2005 156 96.2005 154.7 96.0005C151 95.8005 147.2 96.0005 143.5 96.3005C140.7 96.6005 137.9 96.9005 135.2 97.6005C132.3 98.3005 129.5 99.6005 126.9 100.4C124.3 101.2 121.9 102.4 119.6 103.8C118.3 104.5 116.6 105.3 116 106.6C116 106.7 115.5 107 115.2 107.2C114.2 107.7 113.3 108.2 112.4 108.9C112 109.2 111.6 109.6 111.2 109.9L110.1 111.1C109.3 111.9 108.6 112.7 107.9 113.5C107.2 114.3 106.5 115.1 105.7 115.9C102.5 119.2 99.9997 123 97.8997 127.1C97.3997 128.2 96.5997 129.3 96.5997 130.5C96.5997 130.9 96.0997 132.1 95.7997 132.6C93.9997 135.5 93.3997 139.1 92.5997 142.5C91.6997 146.4 91.6997 150.4 91.1997 154.4C91.1997 155.3 91.0997 156.3 91.1997 157.3C91.2997 158.3 91.4997 159.4 91.8997 160.4C92.2997 161.3 92.1997 163.3 92.5997 164.7C92.6997 165.3 92.8997 165.8 93.0997 166.4C93.2997 167 93.4997 167.5 93.5997 168.1C93.6997 168.6 93.7997 169.1 93.7997 169.6C93.7997 170.1 93.8997 170.6 93.9997 171.1C93.9997 171.4 94.1997 171.8 94.2997 172C95.4997 174.6 96.4997 177.3 97.6997 180L98.0997 181L98.5997 182C98.8997 182.6 99.1997 183.3 99.5997 183.9C100.3 185.1 101.1 186.4 102 187.5C105.6 192.1 109.9 196.2 114.7 199.4C117.4 201.2 120.3 202.7 122 204.6C122.8 205.5 122.6 206 121.1 205.7C120 205.5 118.8 205.3 117.7 204.8C116.8 204.4 115.9 204.1 115 203.6C114.1 203.1 113.3 202.7 112.4 202.3C108.9 200.3 105.4 198.1 102.8 194.9C101.9 193.9 100.8 192.9 100.5 191.8C100.5 191.6 100.1 191.2 99.9997 191C95.9997 187.1 93.4997 181.6 91.5997 176.4C89.8997 171.9 88.1997 167.5 87.7997 162.6C86.7997 160 86.7997 156.8 86.8997 154.1C87.2997 149.3 87.7997 144.6 88.8997 139.9C89.8997 135.2 91.3997 130.6 93.4997 126.3C95.5997 121.9 98.2997 117.8 101.5 114.1C104.6 110.4 108.2 107 112 104.1C112.7 103.6 113.2 103.1 113.9 102.6C114.5 102.1 115.2 101.6 116.1 101.2C117.8 100.4 119.7 99.1005 121.6 98.1005C123.3 97.2005 125.1 96.3005 126.9 95.7005C134.1 93.5005 141.5 91.6005 149.1 91.4005C156.6 91.2005 164.2 92.4005 171.4 94.6005C175.8 95.9005 180.1 97.5005 184.1 100C184.5 100.3 185 100.5 185.4 100.8L186.7 101.6C187.6 102.2 188.4 102.8 189 103.6C189.3 104.1 191.1 104.8 192.1 105.6C194.6 107.6 196.8 110 198.9 112.4C201.7 115.8 204.1 119.6 206.1 123.5C206.7 124.7 207.3 125.9 207.9 127.1C208.4 128.3 209.1 129.5 209.5 130.8C210 132.1 210.5 133.4 210.8 134.8L211.4 136.8C211.6 137.5 211.7 138.2 211.9 138.9C212.3 140.6 212.5 142.4 212.7 144.2C212.8 146 213.1 147.7 213.1 149.5C213.4 153.2 213.6 157 213.1 160.5C212.7 163.8 212 167 211.4 170.2C211 171.8 210.7 173.4 210.1 174.9C209.8 175.7 209.6 176.5 209.3 177.2L208.4 179.5C207.1 182.5 205.7 185.4 203.8 188.1C203 189.5 201.9 190.8 201 192.1C200.5 192.8 199.9 193.3 199.4 194C198.9 194.6 198.4 195.3 197.8 195.8C197.1 196.5 196.5 197.1 195.8 197.7C195.1 198.3 194.4 198.8 193.7 199.3C193 199.8 192.3 200.3 191.5 200.8C190.7 201.3 190 201.8 189.3 202.2C187.8 203.1 185.2 202.9 185.6 202.2C185.6 202.1 185.8 201.8 186 201.7C186.7 201.2 187.3 200.6 187.9 200.1C188.5 199.6 189.1 199 189.7 198.4C190.3 197.8 190.9 197.3 191.5 196.7C192.1 196.1 192.8 195.5 193.5 194.9C197.6 191.2 200.9 186.6 203.4 181.6H203.1Z" fill="black"/>
<path d="M134.601 179.9C134.201 179.9 133.901 179.8 133.501 179.7C133.101 179.7 132.801 179.5 132.401 179.5C132.101 179.5 131.901 179.1 131.501 179.5C131.301 179.7 131.201 179 131.001 179C130.301 178.8 129.701 178.5 129.101 178.2C128.501 178 127.801 177.8 127.201 177.4C126.601 177.1 126.301 176.4 125.501 176.2C124.901 176 124.901 175.3 124.401 175C123.901 174.7 123.501 174.2 123.301 173.6C123.201 173.2 123.201 172.7 122.901 172.4C122.701 172.2 122.301 172.2 122.201 171.9C122.101 171.6 122.201 171.2 121.501 171.2C121.501 171.2 121.501 171 121.501 170.9C121.801 170.4 121.601 170.1 121.301 169.8C121.001 169.6 121.001 169.3 120.901 168.9C120.801 168 120.901 167.1 121.201 166.4C121.401 165.8 121.901 165.5 122.201 165.1C122.501 164.7 122.601 164.1 123.101 163.9C123.601 163.7 123.901 163.4 124.201 163.1C124.401 162.9 124.801 163 124.501 162.3C124.501 162.3 124.501 162.2 124.601 162.2C125.601 162.4 125.601 161.2 126.301 161C127.001 160.8 127.701 160.4 128.401 160.1C128.601 160.1 128.801 160.1 128.901 159.7C128.901 159.5 129.101 159.5 129.301 159.5C130.001 160 130.501 159.5 131.101 159.5C131.701 159.5 132.401 159.3 133.101 159.8C133.401 160 133.701 160.2 134.101 159.7C134.301 159.5 134.601 159.7 134.801 159.7C135.001 159.7 135.301 159.5 135.501 159.5C135.701 159.5 135.801 159.8 135.901 160C135.901 160 135.901 160 136.101 160C137.301 159.7 137.801 161 138.601 161.3C139.501 161.7 140.201 162.4 140.801 163.2C141.101 163.6 141.301 164.2 140.601 165.1C140.301 165.5 139.801 165.8 139.401 165.9C139.101 165.9 138.901 165.9 138.701 165.9C138.501 165.8 138.301 165.7 138.001 165.6C137.601 165.4 136.901 165.6 136.801 165.1C136.801 165 136.501 165.1 136.701 164.6V164.5C135.801 164.8 135.601 164.1 135.001 164C134.501 163.9 133.901 164.3 133.501 164C133.101 164.6 132.901 164.4 132.701 164.2C132.301 163.8 131.801 163.8 131.401 163.9C131.001 163.9 130.501 164.2 130.101 164.2C129.201 164.4 128.401 164.9 127.701 165.5C127.601 165.5 127.701 166 127.401 165.9C127.101 165.9 127.101 166.1 126.901 166.3C126.801 166.4 126.801 166.7 126.501 166.7C125.501 166.9 125.501 167.8 125.401 168.1C125.301 168.5 125.401 169.1 125.801 169.7C126.101 170.1 126.701 170.3 126.801 170.7C126.801 170.9 127.301 170.9 126.901 171.4C126.901 171.6 127.301 171.4 127.401 171.5C127.701 171.7 127.801 172 128.101 172.2C128.401 172.5 128.701 172.9 129.101 173.1C129.401 173.2 129.701 173.1 130.001 173.3C130.301 173.4 130.501 173.5 130.701 173.8C131.001 174 131.201 174.4 131.501 174.6C131.801 174.8 132.301 174.7 132.601 175.1C133.101 175.8 133.901 175.7 134.501 175.9C135.201 176.1 135.901 176.2 136.601 176C137.001 176 137.401 176.4 137.801 176.4C138.001 176.4 138.401 177.8 138.401 178.3V178.5C138.001 179 137.601 179.8 137.001 179.8H135.701C135.301 179.8 134.901 179.8 134.401 179.6L134.601 179.9Z" fill="black"/>
<path d="M140.501 137.701C140.501 138.201 140.701 138.601 140.801 139.101C140.801 139.301 140.601 139.501 141.201 139.601C141.501 139.601 140.901 139.901 140.901 140.101C141.101 140.501 141.001 141.001 141.201 141.401C141.301 141.801 141.601 142.201 141.801 142.601C141.901 143.001 141.801 143.501 142.101 143.901C142.401 144.201 142.001 144.601 142.101 145.001C142.301 145.301 142.401 145.701 142.201 146.101C142.101 146.401 141.901 146.701 142.001 146.901C142.001 147.101 142.401 147.201 142.401 147.401C142.401 147.601 142.201 147.801 142.801 147.901C142.801 147.901 142.801 147.901 142.701 148.001C142.301 148.201 142.401 148.401 142.701 148.601C143.001 148.701 143.001 148.901 143.001 149.001C143.001 149.401 143.101 149.801 143.001 150.101C143.001 150.401 142.801 150.701 142.701 151.001C142.701 151.301 143.001 151.601 142.701 151.901C142.401 152.201 142.401 152.501 142.401 152.701C142.401 152.901 142.101 153.001 142.801 153.101C142.001 153.601 143.101 154.001 142.801 154.401C142.601 154.901 142.801 155.301 142.801 155.801C142.801 155.901 142.601 156.101 143.101 156.201C143.301 156.201 143.301 156.401 143.101 156.401C142.501 156.701 142.801 157.101 142.701 157.501C142.501 157.901 142.701 158.301 142.301 158.701C142.101 158.901 141.901 159.101 142.501 159.301C142.801 159.401 142.501 159.601 142.501 159.801C142.501 159.901 142.801 160.101 142.801 160.201C142.801 160.301 142.501 160.401 142.401 160.501C143.001 161.201 142.001 161.601 142.001 162.301C142.001 162.901 141.801 163.501 141.601 164.101C141.501 164.401 141.201 164.701 140.001 164.601C139.501 164.601 138.901 164.401 138.701 164.201C138.501 164.001 138.301 163.901 138.301 163.801C138.301 163.601 138.201 163.401 138.101 163.201C138.001 162.801 137.601 162.401 137.901 162.101C138.001 162.101 137.701 161.801 138.301 161.801C137.601 161.201 138.301 160.801 138.301 160.301C138.301 159.901 137.701 159.401 138.101 159.001C137.501 158.701 137.601 158.501 137.801 158.201C138.601 157.501 138.201 156.601 138.301 155.801C138.401 155.001 138.301 154.101 138.301 153.301C138.301 153.201 137.901 153.001 138.301 152.901C138.601 152.701 138.301 152.501 138.301 152.401C138.301 152.201 138.201 152.101 138.301 151.901C138.901 151.201 138.501 150.601 138.501 149.901C138.501 149.201 138.501 148.601 138.301 147.901C138.201 147.501 137.801 147.201 137.801 146.701C137.801 146.501 137.501 146.401 138.001 146.101C138.201 146.101 137.701 145.901 137.601 145.801C137.601 145.501 137.601 145.201 137.501 145.001C137.501 144.601 137.501 144.201 137.301 143.801C137.301 143.601 136.901 143.401 136.801 143.201C136.701 143.001 136.701 142.701 136.701 142.501C136.701 142.201 136.901 141.801 136.901 141.501C136.901 141.201 136.601 140.901 136.801 140.501C137.201 139.801 136.801 139.301 136.801 138.701C136.801 138.101 136.701 137.501 136.401 137.001C136.301 136.701 136.701 136.301 136.601 136.001C136.601 135.901 138.001 135.401 138.501 135.301H138.701C139.201 135.501 140.001 135.701 140.001 136.001C140.001 136.501 140.201 137.101 140.301 137.601L140.501 137.701Z" fill="black"/>
<path d="M187.6 131.998C188.3 130.998 188.7 129.798 188.5 128.898C188.5 128.598 188.5 128.098 187.8 128.198C187.5 128.198 187.8 127.598 187.4 127.398C187 127.098 186.5 126.898 185.9 126.798C185.9 126.798 185.8 126.798 185.7 126.798C185.7 126.798 185.6 126.798 185.4 126.798C185.1 126.798 184.7 126.798 184.4 126.798C183.7 126.798 182.9 126.998 182 127.198C179.8 127.698 177.2 128.498 174.6 129.198C174.9 128.598 175 128.298 175.1 127.998C175.8 127.098 176.5 126.298 177.1 125.498C177.4 125.098 177.7 124.798 178 124.398C178.3 123.998 178.5 123.598 178.9 123.098C179.2 122.698 179.7 122.198 180.3 121.698C180.8 121.198 181.4 120.798 181.7 120.398L181.9 120.098C181.9 119.898 181.9 119.898 182 119.798C182 119.698 182.1 119.598 182 119.498C182 119.298 181.9 119.298 181.8 119.098C181.7 118.898 181.4 118.598 181.2 118.198C180.8 117.698 180.3 117.098 179.6 116.998C179.2 116.998 178.7 117.098 178.2 116.998C177.8 116.898 177.3 116.598 176.8 117.198C176.8 117.198 176.6 117.198 176.5 116.998C176 116.598 175.4 116.698 175 116.998C174.6 117.298 174.3 117.398 173.9 117.498C172.8 117.798 171.8 118.098 170.6 118.498C169.8 118.798 168.8 118.898 167.9 119.198C167 119.498 166.3 120.098 165.5 120.298C164.7 120.398 164.2 120.898 163.8 121.298C163.8 121.398 163.6 121.498 163.5 121.598L160.1 120.398C160.1 120.098 160.1 119.798 159.8 119.498C159.8 119.498 159.8 119.298 159.8 119.198C160.3 118.598 160.3 117.898 160.2 117.098V116.598V116.298C160.2 116.198 160.2 116.098 160.2 116.098C160.2 115.998 160.2 115.998 160.2 115.898C160.2 115.798 160.1 115.698 159.9 115.698H159.8H159.6C159.5 115.598 159.3 115.598 159.2 115.498C158.9 115.498 158.7 115.398 158.4 115.398C158.1 115.398 157.7 115.098 157.4 115.598C157.3 115.798 156.9 115.698 156.8 115.598C155.9 114.998 154.8 115.498 153.9 115.598C152.7 115.798 151.8 116.398 150.5 116.498C150 116.498 149.3 116.798 149.1 117.598C149.1 117.998 148.4 118.098 148.1 118.398C147.9 118.698 147.8 119.098 147.5 119.298C147.3 119.498 146.9 119.498 146.6 119.698C146.6 119.698 146.4 119.798 146.4 119.898C145.6 121.598 143.9 122.398 143 123.998C142.1 125.598 141.2 127.298 140.2 128.898C139.7 129.798 139 130.698 137.7 130.898C137.1 130.898 136.6 130.798 136.5 130.198C136.5 129.798 136.4 129.298 136.5 128.998C136.7 128.398 136.8 127.798 137 127.198C137.4 125.998 137.5 124.598 138.5 123.498C138.8 123.198 138.8 122.598 139.4 122.598C139.4 122.598 139.6 122.498 139.6 122.398C139.9 120.398 141.5 119.198 142.7 117.798C143.2 117.198 143.7 116.498 144.2 115.898C144.7 115.298 145.3 114.698 146.1 114.298C146.5 113.298 147.6 112.698 148.5 112.498C150.2 111.998 151.7 111.498 153.4 111.198C155.1 110.798 156.8 110.598 158.6 110.898C159.5 110.998 160.4 111.198 161.2 111.498C161.7 111.698 162.5 111.898 163 112.298C163.6 112.698 164 113.198 164.3 113.798C164.6 114.398 164.7 114.998 164.7 115.698C164.7 115.998 164.7 116.398 164.7 116.698V117.298L164.4 119.598C164.4 120.098 164.6 120.598 164.4 121.098L160.1 119.598C160.1 119.598 160.1 119.598 160.2 119.498C160.8 118.998 161.3 118.098 162 117.498C162.6 116.998 163.2 116.398 163.9 116.298C165.3 115.898 166.4 115.498 167.6 115.098C168.7 114.698 169.8 114.098 171.1 113.798C173.5 113.098 176.2 112.698 178.9 112.998C180.5 113.198 182.4 113.498 183.9 114.698C184.2 114.998 184.6 115.198 184.9 115.498C185.2 115.798 185.5 116.198 185.5 116.698C185.5 116.998 186.4 117.498 186.6 118.198C186.9 118.998 186.8 119.998 186.6 120.698C186.6 121.098 186.4 121.498 186.2 121.798C186.2 121.898 186 122.198 186 122.198C185.9 122.498 185.6 122.598 185.5 122.798C185.5 122.798 185.9 122.798 186.2 122.598H186.3C186.3 122.598 186.3 122.598 186.3 122.798H186.5C187.9 123.198 189.6 123.698 190.6 125.098C191.5 126.298 192 127.798 192.1 129.198C192.1 130.598 191.9 131.998 191.3 133.098C190.7 134.198 189.8 135.198 188.8 135.998C187.8 136.798 186.8 137.298 185.8 137.798C184.6 138.398 183.4 138.198 182.3 138.498C181.8 138.598 180.7 137.398 180.8 136.798C180.8 136.698 180.8 136.598 180.9 136.498C181.9 135.798 182.6 134.798 183.7 134.498C185.3 133.998 186.7 133.098 187.4 132.098L187.6 131.998Z" fill="black"/>
</svg>
