<svg width="300" height="300" viewBox="0 0 300 300" fill="none" xmlns="http://www.w3.org/2000/svg">
<path d="M184.101 141C183.701 140.6 183.401 140.2 183.001 139.8C182.801 139.7 183.001 139.3 182.401 139.6C182.101 139.7 182.401 139.1 182.401 139C182.001 138.7 181.701 138.3 181.301 137.9C180.901 137.6 180.401 137.4 180.101 137.1C179.701 136.8 179.601 136.2 179.101 136.1C178.601 136 178.701 135.4 178.401 135.2C178.001 135 177.701 134.7 177.601 134.3C177.601 134 177.501 133.6 177.201 133.5C177.001 133.5 176.701 133.5 176.601 133.4C176.501 133.3 176.601 132.9 176.001 133.2C176.001 133.2 176.001 133.1 176.001 133C176.201 132.6 176.001 132.4 175.701 132.5C175.401 132.5 175.301 132.5 175.201 132.3C174.901 132 174.601 131.7 174.401 131.4C174.201 131.1 174.201 130.8 174.001 130.5C173.801 130.2 173.401 130.2 173.401 129.7C173.401 129.3 173.201 129.1 173.001 128.9C172.901 128.8 173.001 128.4 172.401 128.8C172.701 127.9 171.601 128.3 171.401 127.8C171.201 127.3 170.801 127 170.401 126.7C170.401 126.7 170.401 126.4 169.901 126.7C169.801 126.7 169.601 126.7 169.701 126.6C169.901 125.9 169.401 125.9 169.201 125.5C169.001 125.1 168.501 125 168.501 124.3C168.501 124 168.501 123.8 167.901 124C167.601 124.1 167.701 123.8 167.501 123.7C167.401 123.7 167.101 123.7 167.001 123.7C167.001 123.7 167.001 123.4 167.001 123.2C166.101 123.2 166.301 122.1 165.701 121.8C165.101 121.5 164.701 120.9 164.401 120.4C164.201 120.1 164.101 119.7 164.801 118.8C165.101 118.4 165.501 118 165.801 117.9C166.101 117.9 166.301 117.8 166.401 117.9C166.601 117.9 166.801 118 167.001 118.1C167.401 118.3 168.101 118.1 168.201 118.7C168.201 118.9 168.601 118.7 168.201 119.2V119.3C169.201 119.2 169.201 120 169.601 120.3C170.001 120.6 170.801 120.5 170.901 121.1C171.501 120.9 171.701 121.1 171.701 121.5C171.901 122.7 172.901 123.1 173.501 123.8C174.101 124.6 174.801 125.2 175.501 126C175.601 126.1 176.001 126 175.901 126.3C175.901 126.6 176.101 126.6 176.301 126.8C176.401 126.9 176.701 127 176.701 127.2C176.701 128.2 177.601 128.5 178.001 129.1C178.501 129.7 179.001 130.3 179.601 130.8C180.001 131.1 180.601 131.2 180.801 131.6C180.801 131.8 181.301 131.7 181.001 132.3C181.001 132.5 181.401 132.3 181.501 132.3C181.801 132.5 182.001 132.8 182.201 133C182.501 133.3 182.801 133.7 183.101 134C183.301 134.2 183.701 134.2 183.901 134.4C184.101 134.6 184.301 134.8 184.501 135C184.701 135.3 184.801 135.7 185.001 136C185.201 136.3 185.701 136.4 185.701 136.9C185.701 137.7 186.401 138 186.801 138.6C187.201 139.1 187.601 139.6 188.201 140C188.501 140.2 188.401 140.8 188.601 141.1C188.701 141.2 187.801 142.4 187.401 142.7L187.201 142.8C186.601 142.8 185.901 143.1 185.601 142.8C185.201 142.3 184.801 141.9 184.401 141.5L184.101 141Z" fill="black"/>
<path d="M126.401 115.098C125.901 115.398 125.301 115.698 124.801 115.998C124.601 116.098 124.301 115.998 124.401 116.598C124.401 116.898 123.901 116.498 123.801 116.598C123.401 116.998 122.801 117.198 122.401 117.598C122.001 117.998 121.701 118.498 121.301 118.798C120.901 119.198 120.301 119.298 120.101 119.898C119.901 120.398 119.301 120.298 119.101 120.598C118.801 120.998 118.601 121.298 118.101 121.498C117.801 121.498 117.401 121.598 117.301 121.898C117.301 122.098 117.301 122.398 117.301 122.498C117.201 122.598 116.801 122.598 117.301 123.098C117.301 123.098 117.301 123.098 117.101 123.098C116.701 123.098 116.601 123.298 116.701 123.498C116.901 123.798 116.701 123.898 116.701 123.998C116.601 124.398 116.401 124.698 116.201 125.098C116.001 125.398 115.701 125.598 115.601 125.898C115.501 126.198 115.601 126.598 115.301 126.798C114.901 126.998 114.901 127.298 114.801 127.698C114.801 127.898 114.401 127.998 115.101 128.298C115.101 128.298 115.101 128.298 115.101 128.398C114.201 128.798 115.201 129.398 115.001 129.898C114.701 130.398 114.901 130.998 114.901 131.598C114.901 131.798 114.701 131.898 115.201 132.098C115.401 132.098 115.401 132.298 115.201 132.398C114.501 132.798 115.001 133.298 114.801 133.698C114.701 134.198 115.001 134.698 114.501 135.198C114.301 135.398 114.201 135.698 114.801 135.998C115.101 136.098 114.801 136.398 114.801 136.498C114.801 136.698 115.101 136.798 115.101 136.898C115.101 136.998 114.901 137.198 114.801 137.298C114.801 137.298 114.801 137.298 114.801 137.398C115.501 138.098 114.601 138.898 114.801 139.598C115.001 140.298 114.901 141.098 114.801 141.798C114.801 142.198 114.601 142.598 113.401 142.998C112.901 143.198 112.301 143.198 112.001 142.998C111.801 142.898 111.501 142.698 111.501 142.598C111.401 142.398 111.301 142.098 111.201 141.898C111.001 141.398 110.501 140.998 110.701 140.398C110.701 140.198 110.501 140.098 111.001 139.898C111.001 139.898 111.101 139.898 111.001 139.798C110.201 139.098 110.701 138.398 110.601 137.698C110.601 137.098 109.901 136.598 110.201 135.998C109.601 135.698 109.701 135.298 109.901 134.998C110.601 133.798 110.101 132.698 110.201 131.498C110.301 130.298 110.301 129.098 110.501 127.798C110.501 127.598 110.201 127.398 110.501 127.098C110.801 126.898 110.601 126.598 110.701 126.298C110.701 125.998 110.701 125.798 110.901 125.598C111.801 124.798 111.701 123.698 112.101 122.798C112.601 121.898 113.101 120.998 113.601 119.998C113.901 119.398 114.101 118.698 114.601 118.298C114.801 118.098 114.801 117.698 115.401 117.998C115.601 117.998 115.401 117.598 115.501 117.398C115.801 117.098 116.101 116.798 116.401 116.598C116.801 116.198 117.301 115.898 117.701 115.498C117.901 115.298 118.101 114.898 118.301 114.598C118.501 114.298 118.801 114.098 119.201 113.998C119.601 113.798 120.101 113.698 120.501 113.498C120.901 113.298 121.201 112.798 121.701 112.798C122.701 112.798 123.201 112.098 124.001 111.798C124.701 111.398 125.501 111.098 126.201 110.598C126.601 110.298 127.201 110.598 127.701 110.498C127.901 110.498 128.601 111.698 128.701 112.298V112.498C128.501 113.098 128.401 113.898 128.001 113.998C127.401 114.198 126.801 114.498 126.201 114.898L126.401 115.098Z" fill="black"/>
<path d="M117.102 166.298C117.102 166.698 117.102 167.098 117.302 167.398C117.302 167.498 117.102 167.698 117.702 167.798C118.002 167.798 117.402 168.098 117.402 168.198C117.502 168.498 117.502 168.898 117.602 169.298C117.702 169.598 118.002 169.898 118.102 170.298C118.202 170.598 118.002 170.998 118.402 171.298C118.702 171.498 118.302 171.898 118.402 172.098C118.602 172.398 118.702 172.698 118.502 172.998C118.402 173.198 118.202 173.498 118.302 173.698C118.302 173.798 118.702 173.898 118.702 173.998C118.702 174.098 118.502 174.298 119.102 174.298C119.102 174.298 119.102 174.298 119.002 174.398C118.602 174.598 118.702 174.798 119.002 174.798C119.302 174.798 119.302 174.998 119.302 175.098C119.302 175.398 119.502 175.698 119.502 175.998C119.502 176.198 119.302 176.498 119.302 176.698C119.302 176.898 119.602 177.098 119.302 177.398C119.002 177.698 119.102 177.898 119.102 178.098C119.102 178.198 118.902 178.398 119.502 178.398C118.702 178.898 119.902 178.998 119.702 179.398C119.602 179.798 119.702 180.098 119.902 180.498C119.902 180.498 119.802 180.698 120.202 180.698C120.402 180.698 120.402 180.698 120.202 180.898C119.602 181.298 120.102 181.498 120.002 181.798C120.002 182.098 120.302 182.398 119.902 182.798C119.702 182.998 119.602 183.198 120.202 183.198C120.502 183.198 120.202 183.398 120.302 183.498C120.302 183.498 120.602 183.598 120.702 183.698C120.702 183.698 120.502 183.898 120.402 183.998C121.102 184.298 120.402 184.898 120.602 185.298C120.902 185.698 120.902 186.198 120.902 186.698C120.902 186.998 120.802 187.298 119.702 187.598C119.202 187.798 118.702 187.898 118.302 187.798C118.002 187.798 117.802 187.798 117.702 187.598C117.602 187.498 117.402 187.398 117.302 187.198C117.102 186.898 116.502 186.798 116.702 186.398C116.702 186.298 116.502 186.198 116.902 186.098C116.002 185.798 116.502 185.298 116.402 184.898C116.302 184.598 115.602 184.298 115.802 183.898C115.102 183.898 115.202 183.598 115.402 183.298C115.902 182.498 115.402 181.898 115.402 181.198C115.402 180.498 115.202 179.798 115.102 179.098C115.102 178.998 114.702 178.898 115.002 178.798C115.202 178.598 115.002 178.498 115.002 178.298C115.002 178.198 114.802 177.998 115.002 177.898C115.602 177.198 115.002 176.798 115.002 176.198C115.002 175.598 115.002 175.098 114.702 174.598C114.502 174.298 114.102 173.998 114.202 173.698C114.202 173.498 113.902 173.498 114.402 173.198C114.602 173.198 114.102 173.098 114.102 172.998C114.102 172.798 114.102 172.498 114.002 172.298C114.002 171.998 114.002 171.698 113.802 171.298C113.802 171.098 113.502 170.998 113.402 170.798C113.402 170.598 113.302 170.398 113.302 170.198C113.302 169.898 113.502 169.598 113.502 169.398C113.502 169.098 113.202 168.898 113.502 168.598C113.902 167.998 113.502 167.598 113.502 167.098C113.502 166.598 113.502 166.098 113.202 165.698C113.102 165.398 113.502 165.098 113.502 164.898C113.502 164.798 114.902 164.398 115.402 164.398H115.602C116.102 164.598 116.902 164.698 116.902 164.998C116.902 165.398 117.002 165.898 117.102 166.298Z" fill="black"/>
<path d="M166.101 147.298C166.501 147.098 166.801 146.998 167.201 146.698C167.301 146.698 167.601 146.698 167.501 146.198C167.501 145.898 167.901 146.398 168.001 146.398C168.301 146.198 168.701 146.098 169.001 145.898C169.301 145.698 169.501 145.298 169.801 145.098C170.101 144.898 170.601 145.098 170.801 144.598C171.001 144.198 171.401 144.598 171.601 144.298C171.801 144.098 172.101 143.898 172.501 143.998C172.801 143.998 173.101 144.198 173.201 143.998C173.201 143.898 173.201 143.498 173.401 143.498C173.501 143.498 173.801 143.698 173.701 142.998C173.701 142.998 173.701 142.998 173.901 142.998C174.201 143.298 174.401 143.198 174.401 142.998C174.401 142.698 174.501 142.698 174.601 142.598C174.901 142.498 175.201 142.298 175.501 142.298C175.701 142.298 176.001 142.298 176.301 142.298C176.501 142.298 176.701 141.898 177.001 142.098C177.301 142.298 177.501 142.198 177.701 142.098C177.801 142.098 178.101 142.298 177.901 141.598C178.501 142.298 178.501 141.098 178.901 141.198C179.301 141.198 179.601 140.998 180.001 140.898C180.001 140.898 180.301 140.998 180.201 140.498C180.201 140.298 180.201 140.298 180.401 140.398C180.901 140.898 181.001 140.398 181.301 140.398C181.601 140.398 181.901 139.998 182.301 140.398C182.501 140.598 182.701 140.598 182.701 139.998C182.701 139.698 182.901 139.998 183.001 139.798C183.001 139.798 183.001 139.398 183.201 139.398C183.201 139.398 183.401 139.598 183.501 139.698C183.801 138.898 184.501 139.698 184.901 139.298C185.301 138.998 185.801 138.898 186.301 138.898C186.601 138.898 186.901 138.898 187.401 139.998C187.601 140.498 187.801 140.998 187.701 141.398C187.701 141.698 187.701 141.898 187.601 141.998C187.501 142.098 187.401 142.298 187.301 142.398C187.101 142.698 186.901 143.298 186.601 143.098C186.501 143.098 186.501 143.398 186.201 142.898C186.001 143.798 185.501 143.398 185.101 143.598C184.801 143.798 184.601 144.498 184.201 144.298C184.201 144.998 184.001 144.898 183.701 144.798C182.801 144.398 182.301 144.998 181.601 145.198C180.901 145.298 180.301 145.698 179.601 145.898C179.501 145.898 179.601 146.298 179.301 146.098C179.101 145.898 179.001 146.098 178.801 146.198C178.701 146.198 178.601 146.398 178.401 146.298C177.601 145.898 177.301 146.498 176.701 146.598C176.201 146.698 175.601 146.898 175.201 147.298C174.901 147.498 174.801 147.998 174.401 147.998C174.201 147.998 174.201 148.398 173.901 147.898C173.801 147.798 173.901 148.198 173.801 148.298C173.601 148.398 173.401 148.498 173.201 148.598C172.901 148.698 172.601 148.798 172.301 148.998C172.101 149.098 172.101 149.398 171.901 149.598C171.701 149.698 171.601 149.798 171.301 149.898C171.001 149.898 170.701 149.898 170.401 149.898C170.101 149.898 170.001 150.298 169.601 150.198C168.901 149.998 168.601 150.398 168.201 150.598C167.701 150.798 167.301 150.898 166.901 151.298C166.701 151.498 166.201 151.198 166.001 151.298C165.901 151.298 165.101 150.098 164.901 149.698V149.498C164.901 148.998 164.801 148.198 165.101 148.098C165.501 147.998 165.901 147.698 166.301 147.498L166.101 147.298Z" fill="black"/>
<path d="M146.701 141.097C146.701 140.897 146.701 140.697 146.701 140.597C146.701 140.597 146.901 140.497 146.401 140.397C146.101 140.397 146.801 140.297 146.701 140.197C146.701 139.997 146.701 139.897 146.701 139.697C146.701 139.497 146.401 139.397 146.401 139.197C146.401 138.997 146.701 138.897 146.401 138.697C146.101 138.497 146.601 138.497 146.501 138.297C146.401 138.197 146.301 137.997 146.501 137.897C146.701 137.897 146.901 137.697 146.801 137.597C146.801 137.597 146.401 137.397 146.501 137.397C146.501 137.397 146.801 137.397 146.201 137.197C146.201 137.197 146.201 137.197 146.401 137.197C146.801 137.197 146.801 137.197 146.501 136.997C146.201 136.997 146.301 136.897 146.301 136.797C146.301 136.697 146.301 136.497 146.301 136.397C146.301 136.397 146.601 136.197 146.701 136.197C146.701 136.197 146.501 135.897 146.801 135.897C147.101 135.897 147.101 135.797 147.101 135.697C147.101 135.697 147.401 135.697 146.801 135.497C147.601 135.497 146.601 135.097 146.801 134.997C147.001 134.897 146.901 134.697 147.001 134.497C147.001 134.497 147.201 134.497 146.801 134.297C146.601 134.197 146.601 134.297 146.801 134.297C147.401 134.297 147.101 134.097 147.201 133.997C147.401 133.897 147.201 133.697 147.601 133.697C147.801 133.697 147.901 133.697 147.401 133.397C147.201 133.297 147.401 133.397 147.401 133.197L147.101 132.997C147.101 132.997 147.301 132.997 147.501 132.997C146.901 132.597 147.901 132.697 147.801 132.397C147.801 132.097 147.801 131.997 148.001 131.797C148.001 131.797 148.301 131.697 149.401 131.997C149.901 132.197 150.401 132.397 150.701 132.597C150.901 132.697 151.101 132.797 151.101 132.897C151.101 132.897 151.301 133.097 151.301 133.197C151.401 133.397 151.901 133.697 151.601 133.697C151.601 133.697 151.801 133.897 151.301 133.697C152.001 134.097 151.401 134.097 151.401 134.297C151.401 134.397 152.001 134.797 151.701 134.797C152.301 135.097 152.101 135.097 151.901 135.097C151.201 135.097 151.501 135.497 151.401 135.797C151.201 135.997 151.301 136.297 151.201 136.597C151.201 136.597 151.501 136.797 151.201 136.797C150.901 136.797 151.201 136.897 151.201 136.997C151.201 136.997 151.301 137.097 151.201 137.197C150.501 137.197 150.901 137.597 150.801 137.797C150.801 137.997 150.601 138.197 150.801 138.397C150.801 138.497 151.201 138.697 151.101 138.797C151.101 138.797 151.401 138.897 150.801 138.897C150.601 138.897 151.101 138.897 151.101 138.997C151.101 138.997 151.101 139.197 151.101 139.297C151.101 139.397 151.101 139.497 151.101 139.697L151.401 139.897V140.097C151.401 140.097 151.101 140.297 151.001 140.397C151.001 140.497 151.201 140.597 151.001 140.697C150.501 140.897 150.701 141.097 150.701 141.297C150.701 141.497 150.701 141.697 150.701 141.797C150.701 141.797 150.301 141.997 150.301 142.097C150.301 142.097 148.801 142.297 148.301 142.397H148.101C147.601 142.397 146.901 142.297 146.901 142.097C146.901 141.897 146.901 141.697 146.901 141.497L146.701 141.097Z" fill="black"/>
<path d="M157.102 141.898C157.102 141.698 157.102 141.498 157.102 141.398C157.102 141.398 157.302 141.298 156.802 141.198C156.502 141.198 157.202 141.098 157.102 140.998C157.102 140.798 157.102 140.698 157.102 140.498C157.102 140.298 156.802 140.198 156.802 139.998C156.802 139.798 157.102 139.698 156.802 139.498C156.502 139.298 157.002 139.298 156.902 139.098C156.802 138.998 156.702 138.798 156.902 138.698C157.102 138.698 157.302 138.498 157.202 138.398C157.202 138.398 156.802 138.198 156.902 138.198C156.902 138.198 157.202 138.198 156.602 137.998C156.602 137.998 156.602 137.998 156.802 137.998C157.202 137.998 157.202 137.998 156.902 137.798C156.602 137.798 156.702 137.698 156.702 137.598C156.702 137.498 156.702 137.298 156.702 137.198C156.702 137.198 157.002 136.998 157.102 136.998C157.102 136.998 156.902 136.698 157.202 136.698C157.502 136.698 157.502 136.598 157.502 136.498C157.502 136.498 157.802 136.498 157.202 136.298C158.002 136.298 157.002 135.898 157.202 135.798C157.402 135.698 157.302 135.498 157.402 135.298C157.402 135.298 157.602 135.298 157.202 135.098C157.002 134.998 157.002 135.098 157.202 135.098C157.802 135.098 157.502 134.898 157.602 134.798C157.802 134.698 157.602 134.498 158.002 134.498C158.202 134.498 158.302 134.498 157.802 134.198C157.602 134.098 157.802 134.198 157.802 133.998L157.502 133.798C157.502 133.798 157.702 133.798 157.902 133.798C157.302 133.398 158.302 133.498 158.202 133.198C158.202 132.898 158.202 132.798 158.402 132.598C158.402 132.598 158.702 132.498 159.802 132.798C160.302 132.998 160.802 133.198 161.102 133.398C161.302 133.498 161.502 133.598 161.502 133.698C161.502 133.698 161.702 133.898 161.702 133.998C161.802 134.198 162.302 134.498 162.002 134.498C162.002 134.498 162.202 134.698 161.702 134.498C162.402 134.898 161.802 134.898 161.802 135.098C161.802 135.198 162.402 135.598 162.102 135.598C162.702 135.898 162.502 135.898 162.302 135.898C161.602 135.898 161.902 136.298 161.802 136.598C161.602 136.798 161.702 137.098 161.602 137.398C161.602 137.398 161.902 137.598 161.602 137.598C161.302 137.598 161.602 137.698 161.602 137.798C161.602 137.798 161.702 137.898 161.602 137.998C160.902 137.998 161.302 138.398 161.202 138.598C161.202 138.798 161.002 138.998 161.202 139.198C161.202 139.298 161.602 139.498 161.502 139.598C161.502 139.598 161.802 139.698 161.202 139.698C161.002 139.698 161.502 139.698 161.502 139.798C161.502 139.798 161.502 139.998 161.502 140.098C161.502 140.198 161.502 140.298 161.502 140.498L161.802 140.698V140.898C161.802 140.898 161.502 141.098 161.402 141.198C161.402 141.298 161.602 141.398 161.402 141.498C160.902 141.698 161.102 141.898 161.102 142.098C161.102 142.298 161.102 142.498 161.102 142.598C161.102 142.598 160.702 142.798 160.702 142.898C160.702 142.898 159.202 143.098 158.702 143.198H158.502C158.002 143.198 157.302 143.098 157.302 142.898C157.302 142.698 157.302 142.498 157.302 142.298L157.102 141.898Z" fill="black"/>
<path d="M171.501 151.998C172.401 152.998 173.201 153.998 174.001 154.898C174.301 155.298 174.401 155.798 175.201 155.798C175.601 155.798 175.401 156.598 175.701 156.898C176.501 157.798 177.201 158.798 178.001 159.698C178.401 160.198 178.801 160.498 179.201 160.998C179.801 161.698 180.401 162.398 181.101 163.298C182.101 164.498 182.801 165.698 183.701 166.998C183.201 167.198 182.701 167.298 182.301 167.498C181.601 167.798 180.701 167.998 179.901 168.198C179.001 168.298 178.201 168.498 177.501 168.698C177.301 168.698 177.101 168.798 176.901 168.898H176.401C176.201 169.098 175.901 169.198 175.601 169.198C175.101 169.298 174.601 169.298 174.101 169.198C173.401 169.198 172.601 168.998 171.901 169.198C171.501 169.298 171.101 169.698 170.601 169.698C170.101 169.698 169.601 169.498 169.201 170.098C169.201 170.098 169.001 170.098 168.901 169.998C168.401 169.598 167.801 169.698 167.401 169.998C167.001 170.298 166.601 170.198 166.301 170.198C165.301 170.198 164.201 170.198 163.201 169.998C162.401 169.898 161.701 169.598 160.901 169.398C160.101 169.298 159.201 169.398 158.501 168.998C157.801 168.598 157.101 168.398 156.401 168.298C156.001 168.298 155.601 167.798 155.101 168.298C155.101 168.298 154.901 168.298 154.801 168.298C153.901 167.198 152.501 167.898 151.401 167.298C150.301 166.698 149.001 166.398 147.901 165.898C147.601 165.798 147.301 165.398 146.901 165.698C146.701 165.698 146.401 165.698 146.301 165.398C145.801 164.398 144.701 164.198 143.901 163.598C143.001 162.898 142.001 162.398 141.401 161.298C141.201 160.798 140.801 160.298 140.001 160.298C139.601 160.298 139.401 159.698 139.101 159.398C138.801 159.198 138.401 159.098 138.201 158.798C138.001 158.598 138.001 158.198 137.901 157.898C137.901 157.898 137.901 157.698 137.701 157.698C137.001 157.198 136.501 156.398 136.301 155.598L135.901 154.398C135.801 153.998 135.701 153.598 135.501 153.198C134.701 151.698 134.401 149.898 134.301 148.198C134.301 147.298 134.401 146.298 135.501 145.698C136.001 145.398 136.601 145.398 136.901 145.698C137.201 145.998 137.401 146.198 137.501 146.498C137.601 146.998 137.701 147.398 137.901 147.798C138.101 148.198 138.301 148.698 138.501 149.098C138.701 149.498 138.901 149.898 138.901 150.398C138.901 150.698 139.201 150.898 138.901 151.298V151.498C139.501 151.898 139.701 152.498 140.001 152.998C140.101 153.298 140.201 153.598 140.301 153.898C140.401 154.198 140.601 154.498 140.801 154.698C141.101 155.098 141.501 155.498 141.901 155.798C142.301 156.098 142.701 156.398 143.001 156.898C143.801 156.898 144.201 157.398 144.501 157.898C145.601 159.798 147.701 160.598 149.601 161.598C151.501 162.598 153.601 163.298 155.801 163.898C156.201 163.898 156.601 163.698 156.901 164.098C157.201 164.498 157.801 164.398 158.301 164.498C158.701 164.498 159.201 164.498 159.601 164.798C161.201 165.798 163.101 165.598 164.801 165.698C166.501 165.898 168.301 165.898 170.101 165.698C171.201 165.498 172.201 165.098 173.201 165.098C173.701 165.098 174.101 164.698 174.601 165.098C174.801 165.198 175.101 164.698 175.401 164.598H175.801C175.801 164.498 176.001 164.498 176.001 164.498C176.101 164.498 176.301 164.498 176.401 164.498C176.401 164.498 176.401 164.398 176.201 164.298C176.101 164.198 175.701 164.098 175.601 164.098C175.601 164.098 175.501 164.098 175.401 163.898L175.201 163.698L174.901 163.298C174.401 162.598 174.101 161.798 173.601 161.098C173.101 160.398 172.301 159.798 172.001 158.998C171.401 157.498 170.201 156.398 169.201 155.198C168.201 153.998 167.201 152.798 166.101 151.698C165.501 151.098 165.301 150.198 164.701 149.498C164.401 149.198 165.101 147.798 165.601 147.598C165.601 147.598 165.801 147.598 165.901 147.598C166.801 147.898 167.901 147.998 168.501 148.698C169.401 149.798 170.501 150.898 171.401 151.998H171.501Z" fill="black"/>
<path d="M160.002 186.998L160.502 185.998C160.502 185.798 160.602 185.698 160.702 185.498C160.702 185.498 161.102 184.998 160.402 185.498C160.002 185.698 161.002 184.998 161.002 184.898V184.798H160.802C160.602 184.898 160.502 184.998 160.302 184.998C160.102 184.998 160.002 185.198 159.802 185.298H159.602C159.302 185.298 159.002 185.398 158.702 185.398C157.502 185.498 156.402 185.198 155.302 185.398C154.302 185.598 153.602 184.898 152.702 184.798C151.702 184.698 150.802 184.498 150.002 183.898C149.402 183.498 148.902 182.998 148.302 182.898C147.902 182.798 147.402 182.898 147.002 182.698C146.602 182.498 146.402 181.998 145.702 182.398C145.702 182.398 145.502 182.198 145.502 182.098C145.302 181.498 144.902 181.198 144.402 181.298C143.902 181.298 143.702 181.098 143.402 180.898C142.602 180.398 141.902 179.798 141.202 179.198C140.702 178.698 140.302 178.098 139.902 177.498C139.402 176.998 138.702 176.598 138.502 175.898C138.302 175.198 137.802 174.798 137.402 174.298C137.202 173.998 137.102 173.498 136.402 173.698C136.402 173.698 136.302 173.698 136.302 173.498C136.302 172.198 134.802 171.998 134.302 170.898C133.902 169.798 133.102 168.798 132.702 167.698C132.602 167.398 132.702 166.998 132.102 166.898C131.902 166.898 131.802 166.498 131.902 166.298C132.102 165.798 132.002 165.298 131.902 164.898C131.802 164.498 131.602 163.998 131.602 163.598C131.602 163.098 131.502 162.598 131.502 162.098C131.502 161.598 131.502 161.098 131.702 160.598C131.902 160.198 132.002 159.598 131.502 159.098C131.202 158.898 131.502 158.398 131.502 157.998C131.502 157.698 131.202 157.398 131.302 157.098C131.302 156.798 131.602 156.598 131.702 156.398V156.198C131.302 154.698 132.402 153.498 132.602 152.098C132.802 150.698 133.202 149.398 133.802 148.098C134.102 147.398 134.502 146.698 135.702 146.598C136.302 146.598 136.802 146.698 137.002 147.098C137.202 147.398 137.302 147.698 137.302 147.998C137.302 148.398 137.302 148.898 137.302 149.298C137.302 150.198 137.502 151.098 137.002 151.898C136.802 152.098 137.002 152.498 136.502 152.598C136.502 152.598 136.402 152.698 136.402 152.798C136.902 154.098 136.102 155.098 136.002 156.298C135.902 157.298 136.402 158.298 136.002 159.198C136.602 159.798 136.502 160.298 136.302 160.798C135.602 162.598 136.302 164.398 136.902 165.998C137.402 167.698 138.502 169.198 139.702 170.698C139.902 170.998 140.402 170.998 140.402 171.398C140.402 171.898 140.902 172.098 141.202 172.398C141.502 172.698 141.802 172.898 142.002 173.298C142.602 174.898 144.002 175.698 145.202 176.698C146.302 177.698 147.602 178.598 149.002 179.198C149.902 179.498 150.802 179.598 151.602 179.998C151.902 180.198 152.402 179.998 152.602 180.698C152.602 180.898 153.102 180.598 153.402 180.698C154.002 180.798 154.602 180.998 155.202 181.098C156.002 181.198 156.902 181.398 157.702 181.298C158.202 181.298 158.702 180.998 159.202 180.898C159.302 180.898 159.502 180.898 159.602 180.898H159.702H159.802L160.202 180.798L161.102 180.598C161.402 180.598 161.702 180.598 162.002 180.398C162.802 180.198 163.602 179.998 164.402 179.698C165.202 179.498 165.902 179.298 166.702 178.998C167.002 178.898 167.402 178.798 167.702 178.598V179.098V179.398V179.798C167.402 180.298 167.302 180.898 167.002 181.498C166.302 182.898 165.902 183.898 165.602 184.998C165.202 185.998 164.802 187.198 164.302 188.198C163.602 189.498 162.902 190.798 162.202 192.098C161.802 192.798 161.002 193.198 160.502 193.798C160.302 194.098 158.802 193.598 158.502 193.198C158.502 193.198 158.402 192.998 158.402 192.898C158.402 191.998 158.202 191.098 158.702 190.398C159.402 189.398 160.002 188.298 160.502 187.298L160.002 186.998Z" fill="black"/>
<path d="M112.4 164.602C111.5 164.602 110.7 164.602 109.8 164.602C109.5 164.602 109.2 164.302 108.8 164.902C108.6 165.202 108.3 164.502 108 164.502C107.2 164.502 106.4 164.402 105.5 164.302C104.6 164.302 103.7 164.202 102.7 163.802C101.7 163.402 101.1 162.602 100.3 162.302C99.5004 162.002 99.4004 161.102 98.9004 160.702C98.3004 160.202 97.9004 159.702 97.7004 159.102C97.6004 158.602 97.4004 158.102 97.0004 157.702C96.8004 157.402 96.3004 157.202 96.1004 156.802C96.0004 156.302 96.1004 155.802 95.4004 155.402C95.4004 155.402 95.4004 155.102 95.5004 155.002C95.9004 154.502 95.9004 154.002 95.7004 153.602C95.5004 153.202 95.6004 153.002 95.7004 152.702C95.8004 152.002 96.0004 151.302 96.3004 150.602C96.5004 150.102 96.9004 149.702 97.2004 149.202C97.5004 148.702 97.5004 148.002 98.1004 147.702C98.7004 147.402 98.9004 146.902 99.3004 146.502C99.5004 146.202 100 146.202 99.7004 145.502C99.7004 145.502 99.7004 145.402 99.9004 145.402C100.5 145.402 100.8 145.102 101.1 144.702C101.4 144.302 101.7 143.902 102.2 143.802C103.2 143.602 104 143.102 105 142.902C105.2 142.902 105.5 142.902 105.7 142.502C105.7 142.302 106 142.302 106.2 142.402C106.9 142.902 107.6 142.502 108.3 142.602C109 142.702 109.8 142.502 110.5 143.002C110.8 143.202 111.2 143.402 111.6 142.802C111.8 142.602 112.1 142.802 112.4 142.802C112.6 142.802 112.9 142.502 113.1 142.602C113.3 142.602 113.4 142.902 113.6 143.002C113.6 143.002 113.7 143.002 113.8 143.002C114.9 142.502 115.8 143.502 116.8 143.602C117.9 143.602 119 144.102 120 144.602C120.6 144.902 121.1 145.402 120.9 146.602C120.9 147.102 120.5 147.602 120.2 147.802C119.9 147.902 119.7 148.002 119.5 148.002C119.2 148.002 118.9 148.002 118.6 148.002C118 148.002 117.3 148.302 116.8 147.902C116.6 147.802 116.4 148.002 116.3 147.502C116.3 147.502 116.3 147.402 116.2 147.402C115.2 148.002 114.5 147.402 113.6 147.202C112.9 147.202 112.1 147.702 111.4 147.202C110.9 147.802 110.5 147.602 110.1 147.402C108.8 146.602 107.4 147.102 106.2 147.202C105 147.302 104 147.902 103.2 148.502C103.1 148.602 103.2 149.002 102.9 148.902C102.6 148.902 102.6 149.202 102.4 149.402C102.3 149.602 102.3 149.902 102 150.002C100.9 150.502 100.9 151.702 100.6 152.702C100.4 153.202 100.2 153.802 100.2 154.202C100.2 154.602 100.2 154.902 100.3 155.102C100.5 155.402 101.1 155.602 101.4 156.202C101.5 156.502 102 156.502 101.7 157.102C101.7 157.302 102.1 157.202 102.3 157.302C102.6 157.602 102.9 158.002 103.2 158.302C103.6 158.702 104 159.102 104.4 159.302C104.7 159.402 105 159.302 105.3 159.302C105.6 159.302 105.9 159.402 106.2 159.602C106.6 159.802 107 160.002 107.5 160.202C108 160.302 108.6 160.102 109.1 160.402C110.1 161.002 111.1 160.702 112 160.802C113 160.802 114 160.802 114.9 160.602C115.4 160.502 116 160.902 116.5 160.902C116.7 160.902 117.3 162.302 117.3 162.802V163.002C116.8 163.502 116.4 164.302 115.7 164.302C114.7 164.302 113.7 164.402 112.8 164.502L112.4 164.602Z" fill="black"/>
<path d="M132.299 118.501C132.399 119.201 132.499 119.901 132.499 120.601C132.499 120.801 132.299 121.101 132.799 121.301C133.099 121.401 132.399 121.701 132.399 121.901C132.399 122.501 132.399 123.001 132.399 123.601C132.399 124.101 132.599 124.701 132.699 125.301C132.699 125.801 132.399 126.401 132.699 126.901C132.899 127.401 132.399 127.701 132.499 128.201C132.499 128.701 132.599 129.201 132.299 129.601C132.099 129.901 131.799 130.201 131.899 130.501C131.899 130.701 132.199 130.901 132.199 131.201C132.199 131.401 131.799 131.601 132.399 131.901C132.399 131.901 132.399 131.901 132.199 132.001C131.799 132.201 131.699 132.401 131.999 132.701C132.199 132.901 132.199 133.101 132.199 133.301C132.199 133.801 132.099 134.301 131.899 134.701C131.799 135.001 131.499 135.301 131.299 135.701C131.199 136.101 131.299 136.501 130.899 136.801C130.499 137.101 130.399 137.401 130.299 137.701C130.299 137.901 129.899 138.001 130.399 138.401V138.501C129.399 138.701 130.199 139.701 129.799 140.101C129.399 140.601 129.199 141.201 128.899 141.701C128.899 141.801 128.599 141.901 128.899 142.301C128.999 142.401 128.899 142.601 128.799 142.601C127.999 142.601 128.099 143.301 127.699 143.601C127.299 144.001 127.199 144.601 126.499 144.601C126.199 144.601 125.899 144.801 126.199 145.401C126.299 145.701 125.899 145.701 125.799 145.901C125.799 146.101 125.799 146.401 125.699 146.501C125.699 146.501 125.299 146.501 125.199 146.501C124.999 147.501 123.899 147.301 123.299 147.901C122.799 148.501 121.999 148.901 121.299 149.201C120.899 149.401 120.399 149.401 119.699 148.501C119.399 148.101 119.199 147.601 119.199 147.201C119.199 146.901 119.199 146.701 119.299 146.601C119.399 146.401 119.599 146.201 119.699 146.001C119.999 145.601 119.999 145.001 120.499 145.001C120.699 145.001 120.599 144.701 120.999 145.001H121.099C121.099 144.001 121.899 144.101 122.299 143.701C122.599 143.301 122.499 142.601 122.999 142.401C122.699 141.801 122.999 141.601 123.299 141.601C124.399 141.301 124.599 140.301 125.199 139.601C125.799 138.801 126.099 138.001 126.399 137.101C126.399 136.901 126.199 136.701 126.399 136.601C126.699 136.601 126.599 136.201 126.599 136.001C126.599 135.801 126.599 135.601 126.799 135.401C127.599 134.801 127.399 133.901 127.699 133.201C127.899 132.401 128.099 131.601 128.099 130.801C128.099 130.301 127.799 129.801 127.999 129.301C127.999 129.101 127.799 128.801 128.399 128.701C128.599 128.701 128.099 128.401 128.099 128.301C128.099 128.001 128.099 127.601 128.099 127.301C128.099 126.801 128.199 126.401 128.199 125.901C128.199 125.601 127.999 125.301 127.899 125.001C127.899 124.701 127.899 124.401 127.899 124.101C127.899 123.701 128.199 123.401 128.299 123.001C128.299 122.601 128.099 122.201 128.299 121.801C128.799 121.101 128.499 120.501 128.499 119.901C128.499 119.301 128.399 118.801 127.999 118.501C127.799 118.401 128.099 117.901 127.999 117.701C127.999 117.701 128.699 116.401 128.999 116.001L129.199 115.901C129.899 115.901 130.799 115.801 131.099 116.401C131.599 117.301 131.899 118.101 132.099 118.901L132.299 118.501Z" fill="black"/>
<path d="M179.8 122.101L177.2 123.001C176.9 123.101 176.5 123.001 176.3 123.601C176.3 123.901 175.7 123.401 175.4 123.501C174.6 123.801 173.7 123.901 172.9 124.201C172.1 124.401 171.3 124.801 170.5 125.001C169.7 125.201 168.8 125.001 168 125.401C167.3 125.801 166.7 125.401 166 125.401C165.3 125.601 164.6 125.701 163.9 125.401C163.4 125.201 162.9 125.001 162.4 125.101C162.1 125.101 161.8 125.501 161.5 125.501C161.2 125.501 160.8 125.201 160.5 125.801C160.5 125.801 160.3 125.801 160.3 125.601C160 125.201 159.6 125.201 159.3 125.501C159 125.801 158.8 125.701 158.5 125.701C157.8 125.701 157.1 125.701 156.4 125.501C155.9 125.401 155.4 125.101 154.9 125.001C154.4 124.901 153.7 125.001 153.3 124.701C152.8 124.301 152.4 124.301 151.9 124.201C151.6 124.201 151.4 123.801 151 124.401C151 124.401 150.9 124.401 150.8 124.401C150.2 123.401 149.2 124.401 148.4 123.901C147.6 123.501 146.8 123.401 145.9 123.201C145.7 123.201 145.5 122.901 145.2 123.201C145.1 123.301 144.8 123.201 144.8 123.201C144.4 122.401 143.6 122.601 143 122.301C142.3 122.001 141.5 122.001 141 121.301C140.8 121.001 140.4 120.801 139.9 121.201C139.6 121.401 139.4 121.001 139.1 121.001C138.9 121.001 138.6 121.201 138.4 121.001C138.2 121.001 138.1 120.701 138 120.501C138 120.501 137.9 120.501 137.8 120.501C136.6 120.701 135.9 119.501 134.8 119.201C133.7 118.901 132.8 118.401 131.8 117.901C131.3 117.601 130.8 117.201 130.9 116.001C130.9 115.501 131.2 115.001 131.6 114.801C131.9 114.701 132.2 114.501 132.4 114.601C132.7 114.601 133.1 114.601 133.4 114.701C134.1 114.701 134.9 114.601 135.4 115.101C135.6 115.301 135.9 115.101 135.9 115.601C135.9 115.601 135.9 115.701 136 115.701C137.2 115.301 137.8 116.201 138.7 116.501C139.5 116.801 140.4 116.501 141 117.001C141.6 116.601 142.1 116.801 142.4 117.201C143.7 118.301 145.3 118.401 146.8 118.901C148.3 119.401 149.9 119.701 151.4 120.001C151.7 120.001 152 119.701 152.2 120.001C152.4 120.301 152.9 120.201 153.2 120.201C153.5 120.201 153.9 120.201 154.1 120.401C155.2 121.201 156.5 121.001 157.7 121.201C158.9 121.401 160.2 121.501 161.4 121.401C162.2 121.401 162.9 121.001 163.6 121.101C163.9 121.101 164.2 120.801 164.6 121.401C164.6 121.601 165 121.101 165.2 121.101C165.7 121.101 166.2 121.101 166.7 121.001C167.4 121.001 168.1 120.901 168.8 120.701C169.2 120.601 169.6 120.301 170 120.201C170.4 120.101 170.9 120.001 171.3 120.001C171.9 120.001 172.5 120.001 173 120.001C173.6 120.001 174.1 119.501 174.7 119.601C175.9 119.801 176.8 119.201 177.8 118.901C178.8 118.601 179.8 118.201 180.7 117.701C181.2 117.401 181.9 117.601 182.4 117.301C182.6 117.201 183.7 118.301 183.8 118.801C183.8 118.801 183.8 119.001 183.8 119.101C183.5 119.801 183.3 120.701 182.6 121.001C181.6 121.401 180.7 121.901 179.7 122.301L179.8 122.101Z" fill="black"/>
<path d="M177.9 95.2011C177 95.7011 176 96.1012 175 96.6012C174.6 96.8012 174.2 96.6012 174 97.3012C174 97.6012 173.3 97.2012 173 97.3012C172.1 97.7012 171.1 97.9011 170.2 98.2011C169.3 98.5011 168.4 98.9011 167.4 99.2011C166.5 99.4011 165.4 99.2011 164.6 99.7011C163.8 100.101 163.1 99.7011 162.3 99.7011C161.5 99.9011 160.7 100.001 159.9 99.7011C159.3 99.5011 158.8 99.3012 158.2 99.5012C157.9 99.5012 157.5 99.9012 157.2 99.9012C156.9 99.9012 156.5 99.6011 156.2 100.201C156.2 100.201 156 100.201 155.9 100.101C155.5 99.7012 155.1 99.7012 154.8 100.001C154.5 100.301 154.2 100.201 154 100.301C153.2 100.301 152.5 100.301 151.7 100.301C151.1 100.301 150.6 100.001 150 100.001C149.4 100.001 148.8 100.301 148.3 100.001C147.7 99.7012 147.2 99.8012 146.7 99.9012C146.4 99.9012 146 99.7012 145.9 100.301C145.9 100.301 145.8 100.301 145.7 100.301C144.7 99.6012 144.1 100.801 143.3 100.801C142.4 100.801 141.6 101.201 140.8 101.501C140.6 101.501 140.3 101.501 140.3 102.001C140.3 102.201 140.1 102.301 140 102.201C139.7 102.001 139.4 102.001 139.2 102.201C139 102.301 138.8 102.601 138.5 102.701C137.9 103.001 137.5 103.701 136.6 103.901C136.2 103.901 135.8 104.201 136 104.901C136 105.201 135.6 105.301 135.5 105.501C135.4 105.701 135.5 106.001 135.3 106.201C135.2 106.401 134.9 106.301 134.7 106.401C134.7 106.401 134.6 106.401 134.6 106.501C134.4 107.801 133.1 108.101 132.6 109.201C132.1 110.201 131.5 111.201 130.9 112.101C130.6 112.601 130.2 113.101 129 113.001C128.4 113.001 127.9 112.801 127.7 112.401C127.6 112.101 127.4 111.801 127.5 111.501C127.5 111.101 127.6 110.701 127.7 110.301C127.9 109.501 127.8 108.501 128.5 107.901C128.7 107.701 128.6 107.301 129.2 107.401C129.2 107.401 129.4 107.401 129.4 107.301C129.4 105.901 130.5 105.301 131.1 104.401C131.6 103.601 131.8 102.501 132.7 101.901C132.7 101.101 133.2 100.701 133.7 100.401C134.7 99.9012 135.5 99.3011 136.3 98.7011C136.8 98.4011 137.2 98.1012 137.7 97.8012C138 97.7012 138.2 97.5012 138.5 97.4012C138.7 97.4012 139 97.2011 139.2 97.2011C141.1 96.6011 143.1 96.1012 145 95.9012C145.3 95.9012 145.6 95.5011 146 95.7011C146.4 95.9011 146.8 95.7011 147.3 95.7011C147.7 95.7011 148.1 95.5011 148.5 95.7011C150 96.3011 151.5 95.8012 153 95.9012C154.5 95.9012 155.9 96.0012 157.3 95.9012C158.2 95.8012 159 95.4012 159.9 95.6012C160.3 95.6012 160.6 95.3012 161 95.9012C161.1 96.1012 161.4 95.6012 161.7 95.6012C162.3 95.6012 162.9 95.6012 163.4 95.5012C164.2 95.5012 165 95.4011 165.8 95.2011C166.3 95.1011 166.7 94.8012 167.1 94.6012C167.6 94.4012 168.1 94.3012 168.6 94.3012C169.2 94.3012 169.9 94.3012 170.5 94.1012C171.2 94.0012 171.7 93.5012 172.4 93.5012C173.7 93.5012 174.7 92.8012 175.8 92.4012C176.9 91.9012 177.9 91.4012 178.9 90.6012C179.4 90.2012 180.2 90.3012 180.7 89.9012C180.9 89.7012 182.2 90.7012 182.4 91.1012C182.4 91.1012 182.4 91.3012 182.4 91.4012C182.1 92.2012 182 93.2012 181.3 93.6012C180.2 94.2012 179.2 94.8012 178.2 95.4012L177.9 95.2011Z" fill="black"/>
<path d="M184.1 104.201C183.8 104.301 183.5 104.401 183.3 104.501C183.3 104.501 183 104.401 183.1 104.901C183.1 105.201 182.8 104.601 182.7 104.701C182.5 104.901 182.2 104.901 181.9 105.001C181.7 105.201 181.5 105.501 181.3 105.601C181.1 105.801 180.7 105.601 180.6 106.001C180.6 106.301 180.1 106.001 180 106.101C179.8 106.301 179.7 106.401 179.4 106.301C179.2 106.301 179 106.101 178.8 106.301C178.8 106.401 178.8 106.701 178.7 106.801C178.6 106.801 178.4 106.601 178.6 107.201C178.6 107.201 178.6 107.201 178.5 107.101C178.2 106.801 178.1 106.801 178.1 107.101C178.1 107.401 178.1 107.401 178 107.401C177.8 107.501 177.6 107.601 177.4 107.701C177.2 107.701 177 107.601 176.8 107.601C176.6 107.601 176.5 108.001 176.3 107.701C176 107.501 175.9 107.601 175.7 107.701C175.7 107.701 175.4 107.501 175.6 108.101C175 107.401 175.2 108.501 174.8 108.401C174.4 108.301 174.2 108.501 173.9 108.701C173.9 108.701 173.7 108.601 173.7 109.001C173.7 109.201 173.7 109.201 173.6 109.101C173.2 108.601 173.1 109.001 172.8 109.001C172.5 109.001 172.3 109.301 171.9 108.901C171.7 108.701 171.6 108.701 171.5 109.301C171.5 109.601 171.3 109.301 171.2 109.401C171.2 109.401 171.1 109.701 171 109.801C171 109.801 170.8 109.601 170.7 109.501C170.4 110.201 169.8 109.401 169.4 109.501C169 109.701 168.5 109.601 168.1 109.501C167.9 109.501 167.6 109.201 167.6 108.101C167.6 107.601 167.6 107.001 167.8 106.701C167.8 106.501 168 106.201 168 106.201C168.1 106.201 168.2 106.001 168.3 105.901C168.5 105.701 168.7 105.201 168.9 105.501C168.9 105.501 169 105.301 169.1 105.801C169.3 105.001 169.6 105.501 169.9 105.401C170.1 105.401 170.2 104.701 170.5 104.901C170.5 104.301 170.7 104.301 170.8 104.501C171.4 105.101 171.8 104.501 172.3 104.501C172.8 104.501 173.3 104.201 173.7 104.001C173.7 104.001 173.7 103.601 173.9 103.801C174.1 104.001 174.1 103.801 174.2 103.801C174.2 103.801 174.3 103.601 174.5 103.801C175.1 104.301 175.4 103.801 175.8 103.601C176.2 103.501 176.6 103.401 177 103.101C177.2 102.901 177.3 102.501 177.6 102.501C177.7 102.501 177.7 102.201 178 102.701C178 102.801 178 102.401 178 102.301C178.2 102.201 178.3 102.201 178.5 102.101C178.7 102.101 179 102.001 179.2 101.801C179.3 101.801 179.4 101.401 179.5 101.301C179.6 101.201 179.8 101.101 180 101.101C180.2 101.101 180.5 101.201 180.7 101.201C180.9 101.201 181 100.801 181.3 101.001C181.8 101.301 182.1 101.001 182.5 100.901C182.9 100.901 183.2 100.701 183.6 100.501C183.8 100.401 184.1 100.801 184.3 100.701C184.3 100.701 185 102.001 185.1 102.501V102.701C185.1 103.201 185.1 104.001 184.9 104.001C184.6 104.001 184.3 104.201 184 104.301L184.1 104.201Z" fill="black"/>
</svg>
