<svg width="300" height="300" viewBox="0 0 300 300" fill="none" xmlns="http://www.w3.org/2000/svg">
<path d="M179.2 169.101C177.5 167.301 175.8 165.401 174.1 163.601C173.4 162.901 173 162.101 171.9 161.701C171.4 161.501 171.2 160.401 170.6 159.801C169 158.101 167.4 156.401 165.8 154.701C164.2 153.101 162.6 151.901 161 151.401C159.4 150.801 157.3 150.301 155.1 150.601C153.3 150.801 151.6 150.301 149.9 150.501C148 150.701 146.1 150.901 144.3 150.801C143 150.801 141.6 150.701 140.3 151.001C139.5 151.201 138.8 151.601 137.9 151.701C137.1 151.801 136.1 151.701 135.5 152.501C135.5 152.501 135.1 152.501 134.9 152.501C133.9 152.301 132.9 152.501 132.2 153.001C131.6 153.401 130.9 153.601 130.3 153.701C128.5 154.201 126.7 154.701 125.1 155.301C123.9 155.701 122.7 156.101 121.7 156.701C120.6 157.401 120.1 158.501 119.3 159.301C118.5 160.101 118.1 161.201 117.8 162.401C117.6 163.101 117.2 163.801 117.8 164.501C117.8 164.501 117.8 164.801 117.8 164.901C116.7 166.901 117.8 169.101 117.6 171.201C117.4 173.501 117.6 175.801 117.6 178.101C117.6 178.701 117.5 179.401 118 179.901C118.2 180.101 118.2 180.701 118.1 181.001C117.6 182.701 118.1 184.501 118.1 186.301C118.1 188.301 118.7 190.301 118.4 192.301C118.3 193.201 118.4 194.301 119 195.301C119.3 195.701 119.2 196.701 119.4 197.501C119.5 198.101 119.9 198.601 120 199.201C120 199.701 120 200.201 119.9 200.801C119.9 201.001 119.9 201.101 119.9 201.301C121 204.101 120.6 207.101 121.3 210.001C122 212.901 122.5 215.901 122.9 218.801C123.2 220.401 123.3 222.101 122.4 223.501C122 224.101 121.4 224.201 121 223.501C120.7 223.001 120.3 222.501 120.2 221.901C119.9 221.001 119.6 220.101 119.4 219.201C118.9 217.401 118 215.601 117.9 213.601C117.9 213.001 117.5 212.301 117.9 211.701C117.9 211.701 117.9 211.401 117.9 211.201C116.7 208.701 116.7 205.901 116.2 203.301C115.8 201.001 114.8 198.901 114.8 196.601C114 195.401 113.9 193.901 114 192.601C114.1 188.001 113.3 183.501 113.2 178.901C113.2 176.601 113.1 174.201 113.1 171.901C113.1 169.601 113.1 167.201 113.4 164.801C113.4 164.001 113.2 163.201 113.7 162.201C114.1 161.301 114.3 160.101 114.7 159.001C115.1 158.001 115.5 156.901 116.2 156.201C119.2 153.001 122.9 151.101 126.4 150.001C129.9 149.001 133.5 148.201 137.1 147.501C139.3 147.001 141.4 146.401 143.7 146.301C144.7 146.301 145.6 145.801 146.6 146.301C146.9 146.501 147.7 146.001 148.4 145.901C149.9 145.801 151.5 145.801 153 145.801C155.1 145.801 157.2 145.801 159.6 146.201C161 146.401 162.5 146.501 164 147.201C165.5 147.901 166.8 149.001 167.8 150.001C169.1 151.401 170 152.701 171.1 154.001C172.2 155.301 173.7 156.501 174.6 157.901C176.4 160.501 178.7 162.601 180.7 164.901C182.8 167.201 184.8 169.501 187 171.701C188.2 172.901 189 174.401 190.1 175.701C190.6 176.301 190.3 178.101 189.7 178.201C189.6 178.201 189.4 178.201 189.3 178.201C187.8 177.301 186.2 176.701 185 175.201C183.1 173.101 181.1 171.001 179.2 169.001V169.101Z" fill="black"/>
<path d="M168.7 183.5C169.1 183.3 169.4 183.2 169.8 182.9C169.9 182.9 170.2 182.9 170.1 182.4C170.1 182.1 170.5 182.6 170.6 182.5C170.9 182.3 171.3 182.2 171.6 182C171.9 181.8 172.1 181.4 172.4 181.2C172.7 181 173.2 181.2 173.4 180.7C173.6 180.3 174 180.7 174.2 180.4C174.4 180.2 174.7 180 175.1 180.1C175.4 180.1 175.7 180.3 175.8 180.1C175.8 180 175.8 179.6 176 179.6C176.1 179.6 176.4 179.8 176.3 179.1C176.3 179.1 176.3 179.1 176.5 179.1C176.8 179.4 177 179.3 177 179.1C177 178.8 177.1 178.8 177.2 178.7C177.5 178.6 177.8 178.4 178.1 178.4C178.3 178.4 178.6 178.4 178.9 178.4C179.1 178.4 179.3 178 179.6 178.2C179.9 178.4 180.1 178.3 180.3 178.2C180.4 178.2 180.7 178.4 180.5 177.7C181.1 178.4 181.1 177.2 181.5 177.3C181.9 177.3 182.2 177.1 182.6 177C182.6 177 182.9 177.1 182.8 176.6C182.8 176.4 182.8 176.4 183 176.5C183.5 177 183.6 176.5 183.9 176.5C184.2 176.5 184.5 176.1 184.9 176.5C185.1 176.7 185.3 176.7 185.3 176.1C185.3 175.8 185.5 176.1 185.6 175.9C185.6 175.9 185.6 175.5 185.8 175.5C185.8 175.5 186 175.7 186.1 175.8C186.4 175 187.1 175.8 187.5 175.4C187.9 175.1 188.4 175 188.9 175C189.2 175 189.5 175 190 176.1C190.2 176.6 190.4 177.1 190.3 177.5C190.3 177.8 190.3 178 190.2 178.1C190.1 178.2 190 178.4 189.9 178.5C189.7 178.8 189.5 179.4 189.2 179.2C189.1 179.2 189.1 179.5 188.8 179C188.6 179.9 188.1 179.5 187.7 179.7C187.4 179.9 187.2 180.6 186.8 180.4C186.8 181.1 186.6 181 186.3 180.9C185.4 180.5 184.9 181.1 184.2 181.3C183.5 181.4 182.9 181.8 182.2 182C182.1 182 182.2 182.4 181.9 182.2C181.7 182 181.6 182.2 181.4 182.3C181.3 182.3 181.2 182.5 181 182.4C180.2 182 179.9 182.6 179.3 182.7C178.8 182.8 178.2 183 177.8 183.4C177.5 183.6 177.4 184.1 177 184.1C176.8 184.1 176.8 184.5 176.5 184C176.4 183.9 176.5 184.3 176.4 184.4C176.2 184.5 176 184.6 175.8 184.7C175.5 184.8 175.2 184.9 174.9 185.1C174.7 185.2 174.7 185.5 174.5 185.7C174.3 185.8 174.2 185.9 173.9 186C173.6 186 173.3 186 173 186C172.7 186 172.6 186.4 172.2 186.3C171.5 186.1 171.2 186.5 170.8 186.7C170.3 186.9 169.9 187 169.5 187.4C169.3 187.6 168.8 187.3 168.6 187.4C168.5 187.4 167.7 186.2 167.5 185.8V185.6C167.5 185.1 167.4 184.3 167.7 184.2C168.1 184.1 168.5 183.8 168.9 183.6L168.7 183.5Z" fill="black"/>
<path d="M171.199 202.401C171.199 202.101 171.099 201.701 170.899 201.401C170.899 201.301 171.099 201.101 170.499 201.101C170.199 201.101 170.799 200.801 170.799 200.701C170.699 200.401 170.699 200.101 170.499 199.801C170.399 199.501 170.099 199.301 169.899 199.001C169.799 198.701 169.899 198.301 169.599 198.101C169.299 197.901 169.699 197.601 169.599 197.401C169.399 197.201 169.299 196.901 169.399 196.601C169.499 196.401 169.699 196.201 169.499 196.001C169.499 196.001 169.099 195.901 169.099 195.801C169.099 195.701 169.299 195.501 168.699 195.501C168.699 195.501 168.699 195.501 168.799 195.401C169.199 195.201 169.099 195.001 168.799 195.001C168.499 195.001 168.499 194.901 168.499 194.801C168.499 194.601 168.299 194.301 168.299 194.101C168.299 193.901 168.499 193.701 168.499 193.501C168.499 193.301 168.199 193.201 168.499 192.901C168.799 192.601 168.699 192.501 168.599 192.301C168.599 192.301 168.799 192.001 168.199 192.101C168.899 191.601 167.799 191.601 167.899 191.301C167.999 191.001 167.899 190.701 167.699 190.401C167.699 190.401 167.799 190.201 167.399 190.201C167.199 190.201 167.199 190.201 167.299 190.101C167.799 189.701 167.399 189.601 167.499 189.301C167.499 189.001 167.199 188.801 167.499 188.401C167.699 188.201 167.699 188.101 167.099 188.101C166.799 188.101 167.099 187.901 166.999 187.801C166.999 187.801 166.599 187.801 166.599 187.701C166.599 187.701 166.799 187.501 166.899 187.401C166.199 187.201 166.899 186.601 166.599 186.301C166.299 186.001 166.299 185.601 166.199 185.201C166.199 185.001 166.199 184.701 167.299 184.201C167.799 184.001 168.299 183.801 168.599 183.801C168.799 183.801 169.099 183.801 169.199 183.801C169.299 183.801 169.499 184.001 169.599 184.101C169.899 184.301 170.499 184.401 170.299 184.701C170.299 184.801 170.599 184.801 170.099 185.001C170.999 185.101 170.599 185.601 170.699 186.001C170.799 186.301 171.499 186.401 171.299 186.801C171.999 186.801 171.899 187.001 171.799 187.201C171.299 188.001 171.899 188.401 171.999 189.101C171.999 189.701 172.299 190.301 172.399 190.901C172.399 191.001 172.799 191.001 172.599 191.201C172.399 191.401 172.599 191.501 172.599 191.601C172.599 191.701 172.799 191.801 172.599 192.001C172.099 192.601 172.599 193.001 172.599 193.501C172.599 194.001 172.599 194.501 172.999 194.901C173.199 195.201 173.599 195.401 173.499 195.701C173.499 195.801 173.799 195.901 173.299 196.101C173.099 196.101 173.599 196.101 173.699 196.301C173.699 196.501 173.799 196.701 173.899 196.901C173.899 197.201 173.899 197.501 174.099 197.701C174.099 197.901 174.499 198.001 174.599 198.101C174.699 198.301 174.699 198.401 174.699 198.601C174.699 198.801 174.499 199.101 174.499 199.301C174.499 199.501 174.799 199.701 174.599 200.001C174.199 200.501 174.599 200.901 174.599 201.301C174.599 201.701 174.699 202.101 174.899 202.501C174.999 202.701 174.599 203.001 174.699 203.301C174.699 203.301 173.299 203.901 172.799 204.001H172.599C172.099 204.001 171.299 204.001 171.299 203.601C171.299 203.201 171.099 202.901 170.999 202.501L171.199 202.401Z" fill="black"/>
<path d="M164.8 222.4C164.9 222 165.1 221.6 165.1 221.2C165.1 221 165.4 221 165 220.7C164.8 220.5 165.4 220.6 165.4 220.5C165.4 220.1 165.7 219.8 165.7 219.4C165.7 219 165.7 218.6 165.7 218.2C165.7 217.8 166.2 217.6 166 217.1C165.8 216.7 166.4 216.6 166.4 216.3C166.4 216 166.4 215.6 166.7 215.4C166.9 215.2 167.2 215.1 167.2 214.9C167.2 214.7 166.9 214.5 167 214.4C167 214.3 167.4 214.2 166.8 213.9C166.8 213.9 166.8 213.9 167 213.9C167.4 213.9 167.5 213.7 167.2 213.5C167 213.3 167.1 213.2 167.1 213.1C167.1 212.8 167.2 212.5 167.4 212.2C167.5 212 167.8 211.9 168 211.7C168.1 211.5 168 211.2 168.3 211C168.7 210.9 168.7 210.7 168.8 210.5C168.8 210.4 169.2 210.3 168.6 210C169.5 210 168.6 209.3 168.9 209C169.2 208.7 169.2 208.3 169.3 208C169.3 208 169.5 207.9 169.1 207.6C169 207.6 169 207.4 169.1 207.4C169.8 207.4 169.5 206.9 169.7 206.7C169.9 206.4 169.7 206 170.3 205.9C170.5 205.9 170.7 205.7 170.2 205.4C170 205.2 170.2 205.2 170.2 205.1C170.2 205 169.9 204.8 170 204.7C170 204.7 170.3 204.7 170.4 204.6C169.9 204 170.9 203.8 170.8 203.3C170.8 203 170.8 202.9 170.8 202.6C170.8 202.3 171 202 171.2 201.6C171.4 201.2 171.9 200.8 173 201.4C173.5 201.6 173.9 202 174.1 202.3C174.2 202.5 174.4 202.7 174.4 202.8C174.4 202.9 174.5 203.1 174.6 203.2C174.7 203.4 175.2 203.7 174.8 204C174.7 204 174.9 204.3 174.4 204.2C175.1 204.8 174.4 205.2 174.4 205.6C174.4 206 174.8 206.5 174.4 206.8C174.9 207.2 174.8 207.4 174.5 207.5C173.6 208 173.8 208.8 173.5 209.5C173.2 210.2 173 210.9 172.7 211.6C172.7 211.7 173 211.9 172.7 212C172.4 212 172.5 212.3 172.5 212.4C172.5 212.5 172.5 212.7 172.3 212.8C171.5 213.1 171.7 213.8 171.4 214.3C171.1 214.8 170.9 215.3 170.9 215.9C170.9 216.3 171.1 216.7 170.9 217C170.8 217.1 171.1 217.4 170.5 217.3C170.3 217.3 170.7 217.6 170.7 217.7C170.7 217.9 170.6 218.2 170.5 218.4C170.4 218.7 170.2 219 170.2 219.4C170.2 219.6 170.3 219.9 170.3 220.1C170.3 220.3 170.3 220.5 170.1 220.7C169.9 220.9 169.7 221.1 169.5 221.4C169.4 221.6 169.5 222 169.2 222.2C168.6 222.5 168.7 223.1 168.5 223.5C168.3 223.9 168.1 224.4 168.1 224.9C168.1 225.2 167.6 225.3 167.5 225.5C167.5 225.6 166 225.5 165.5 225.3C165.5 225.3 165.3 225.3 165.3 225.2C164.9 224.8 164.3 224.4 164.4 224.1C164.6 223.6 164.7 223.2 164.8 222.7V222.4Z" fill="black"/>
<path d="M150.1 196.601C150.2 196.801 150.4 197.001 150.6 197.101C150.6 197.101 150.6 197.401 151 197.101C151.2 196.901 150.9 197.401 151 197.501C151.2 197.501 151.4 197.801 151.6 197.901C151.8 197.901 152.1 197.901 152.4 197.901C152.6 197.901 152.8 198.301 153.1 198.001C153.3 197.801 153.4 198.301 153.6 198.201C153.8 198.201 154 198.101 154.2 198.201C154.3 198.401 154.5 198.601 154.6 198.501C154.6 198.501 154.8 198.101 154.9 198.201C154.9 198.201 155.1 198.401 155.1 197.901C155.1 197.901 155.1 197.901 155.1 198.001C155.2 198.401 155.4 198.301 155.4 198.001C155.4 197.701 155.5 197.801 155.6 197.701C155.8 197.701 156 197.601 156.2 197.601C156.3 197.601 156.5 197.801 156.7 197.801C156.9 197.801 156.9 197.501 157.2 197.701C157.4 197.901 157.6 197.801 157.7 197.701C157.7 197.701 158 197.801 157.7 197.301C158.3 197.801 158 196.901 158.2 196.901C158.5 196.901 158.6 196.601 158.8 196.501C158.8 196.501 159 196.501 158.8 196.201C158.8 196.101 158.8 196.001 158.8 196.101C159.3 196.301 159.2 196.001 159.4 195.901C159.6 195.801 159.5 195.501 160 195.501C160.2 195.501 160.4 195.501 160 195.101C159.8 194.901 160 195.001 160 194.901C160 194.901 159.8 194.701 159.8 194.601C159.8 194.601 160 194.601 160.1 194.601C159.7 194.101 160.5 194.101 160.4 193.701C160.4 193.301 160.4 193.001 160.6 192.701C160.6 192.501 160.9 192.301 161.9 192.301C162.4 192.301 162.9 192.301 163.1 192.401C163.3 192.401 163.5 192.601 163.5 192.701C163.5 192.801 163.7 193.001 163.7 193.201C163.8 193.501 164.2 193.901 163.9 194.201C163.9 194.201 164 194.501 163.6 194.401C164.2 195.001 163.6 195.301 163.6 195.701C163.6 196.101 163.9 196.601 163.5 196.901C163.9 197.401 163.7 197.601 163.5 197.701C162.6 198.101 162.4 198.901 161.8 199.401C161.2 199.901 160.6 200.501 159.9 200.801C159.8 200.801 159.9 201.201 159.6 201.101C159.4 201.001 159.3 201.201 159.1 201.301C159 201.301 158.9 201.601 158.7 201.501C157.9 201.201 157.5 201.701 156.9 201.801C156.3 201.801 155.7 201.801 155.1 202.101C154.8 202.201 154.4 202.501 154 202.401C153.8 202.401 153.6 202.601 153.5 202.101C153.5 201.901 153.3 202.301 153.2 202.301C152.9 202.301 152.7 202.301 152.4 202.201C152 202.201 151.7 202.001 151.3 201.901C151.1 201.901 150.8 201.901 150.6 201.901C150.4 201.901 150.1 201.801 149.9 201.601C149.6 201.401 149.5 201.101 149.2 200.901C149 200.701 148.5 200.701 148.5 200.301C148.4 199.601 147.8 199.401 147.5 198.901C147.2 198.401 146.9 197.901 146.6 197.401C146.4 197.101 146.7 196.701 146.6 196.401C146.6 196.201 147.8 195.801 148.3 195.801H148.5C148.9 195.901 149.6 195.801 149.6 196.001C149.6 196.301 149.8 196.501 149.9 196.701L150.1 196.601Z" fill="black"/>
<path d="M145.799 178.402C145.799 178.202 145.799 178.002 145.799 177.902C145.799 177.902 145.999 177.802 145.499 177.702C145.199 177.702 145.899 177.602 145.799 177.502C145.799 177.302 145.799 177.202 145.799 177.002C145.799 176.802 145.499 176.702 145.499 176.502C145.499 176.302 145.799 176.202 145.499 176.002C145.199 175.802 145.699 175.802 145.599 175.602C145.499 175.502 145.399 175.302 145.599 175.202C145.799 175.202 145.999 175.002 145.899 174.902C145.899 174.902 145.499 174.702 145.599 174.702C145.599 174.702 145.899 174.702 145.299 174.502C145.299 174.502 145.299 174.502 145.499 174.502C145.899 174.502 145.899 174.502 145.599 174.302C145.299 174.302 145.399 174.202 145.399 174.102C145.399 174.002 145.399 173.802 145.399 173.702C145.399 173.702 145.699 173.502 145.799 173.502C145.799 173.502 145.599 173.202 145.899 173.202C146.199 173.202 146.199 173.102 146.199 173.002C146.199 173.002 146.499 173.002 145.899 172.802C146.699 172.802 145.699 172.402 145.899 172.302C146.099 172.202 145.999 172.002 146.099 171.802C146.099 171.802 146.299 171.802 145.899 171.602C145.699 171.502 145.699 171.602 145.899 171.602C146.499 171.602 146.199 171.402 146.299 171.302C146.499 171.202 146.299 171.002 146.699 171.002C146.899 171.002 146.999 171.002 146.499 170.702C146.299 170.602 146.499 170.702 146.499 170.502L146.199 170.302C146.199 170.302 146.399 170.302 146.599 170.302C145.999 169.902 146.999 170.002 146.899 169.702C146.899 169.402 146.899 169.302 147.099 169.102C147.099 169.102 147.399 169.002 148.499 169.302C148.999 169.502 149.499 169.702 149.799 169.902C149.999 170.002 150.199 170.102 150.199 170.202C150.199 170.202 150.399 170.402 150.399 170.502C150.499 170.702 150.999 171.002 150.699 171.002C150.699 171.002 150.899 171.202 150.399 171.002C151.099 171.402 150.499 171.402 150.499 171.602C150.499 171.702 151.099 172.102 150.799 172.102C151.399 172.402 151.199 172.402 150.999 172.402C150.299 172.402 150.599 172.802 150.499 173.102C150.299 173.302 150.399 173.602 150.299 173.902C150.299 173.902 150.599 174.102 150.299 174.102C149.999 174.102 150.299 174.202 150.299 174.302C150.299 174.302 150.399 174.402 150.299 174.502C149.599 174.502 149.999 174.902 149.899 175.102C149.899 175.302 149.699 175.502 149.899 175.702C149.899 175.802 150.299 176.002 150.199 176.102C150.199 176.102 150.499 176.202 149.899 176.202C149.699 176.202 150.199 176.202 150.199 176.302C150.199 176.302 150.199 176.502 150.199 176.602C150.199 176.702 150.199 176.802 150.199 177.002L150.499 177.202V177.402C150.499 177.402 150.199 177.602 150.099 177.702C150.099 177.802 150.299 177.902 150.099 178.002C149.599 178.202 149.799 178.402 149.799 178.602C149.799 178.802 149.799 179.002 149.799 179.102C149.799 179.102 149.399 179.302 149.399 179.402C149.399 179.402 147.899 179.602 147.399 179.702H147.199C146.699 179.702 145.999 179.602 145.999 179.402C145.999 179.202 145.999 179.002 145.999 178.802L145.799 178.402Z" fill="black"/>
<path d="M156.4 179.302C156.4 179.102 156.4 179.002 156.4 178.802C156.4 178.802 156.6 178.702 156.1 178.602C155.9 178.602 156.4 178.602 156.4 178.502C156.4 178.402 156.4 178.202 156.4 178.102C156.4 178.002 156.1 177.802 156.1 177.702C156.1 177.602 156.3 177.402 156.1 177.302C155.9 177.202 156.3 177.102 156.2 177.002C156.1 176.902 156 176.702 156.2 176.702C156.4 176.702 156.6 176.602 156.5 176.502C156.5 176.502 156.2 176.402 156.2 176.302C156.2 176.302 156.5 176.302 155.9 176.102C155.9 176.102 155.9 176.102 156 176.102C156.4 176.102 156.4 176.102 156.1 175.902C155.9 175.902 155.9 175.802 155.9 175.702C155.9 175.602 155.9 175.502 155.9 175.302C155.9 175.302 156.2 175.202 156.3 175.102C156.3 175.102 156.1 174.902 156.4 174.802C156.7 174.802 156.7 174.802 156.7 174.602C156.7 174.602 157 174.602 156.4 174.402C157.2 174.402 156.2 174.102 156.4 174.002C156.6 174.002 156.5 173.702 156.6 173.602C156.6 173.602 156.8 173.602 156.4 173.402C156.3 173.302 156.3 173.402 156.4 173.402C157 173.402 156.7 173.302 156.8 173.202C156.9 173.202 156.8 172.902 157.2 173.002C157.4 173.002 157.5 173.002 157 172.702C156.8 172.602 157 172.702 157 172.602L156.8 172.402C156.8 172.402 157 172.402 157.1 172.402C156.6 172.002 157.4 172.102 157.4 171.902C157.4 171.702 157.4 171.502 157.6 171.402C157.6 171.402 157.9 171.402 158.8 171.702C159.2 171.902 159.7 172.102 159.9 172.302C160.1 172.402 160.2 172.502 160.3 172.602C160.3 172.602 160.4 172.802 160.5 172.902C160.6 173.102 161 173.402 160.7 173.302C160.7 173.302 160.8 173.402 160.4 173.302C161 173.702 160.5 173.602 160.5 173.802C160.5 173.902 161 174.202 160.7 174.202C161.2 174.502 161.1 174.502 160.9 174.502C160.3 174.502 160.6 174.802 160.4 175.002C160.2 175.202 160.3 175.402 160.2 175.602C160.2 175.602 160.5 175.702 160.2 175.702C160 175.702 160.2 175.702 160.2 175.802V175.902C159.6 175.902 159.9 176.202 159.8 176.302C159.8 176.502 159.6 176.602 159.8 176.802C159.8 176.902 160.2 177.102 160 177.102C160 177.102 160.2 177.202 159.7 177.102C159.5 177.102 160 177.102 160 177.202C160 177.202 160 177.302 160 177.402C160 177.402 160 177.602 160 177.702C160 177.702 160.2 177.802 160.3 177.902C160.3 177.902 160.3 178.002 160.3 178.102C160.3 178.102 160 178.202 160 178.302C160 178.302 160.2 178.502 160 178.502C159.5 178.602 159.8 178.802 159.7 178.902C159.7 179.002 159.7 179.202 159.7 179.302C159.7 179.302 159.3 179.502 159.3 179.602C159.3 179.702 158 179.802 157.5 179.902H157.3C156.9 179.902 156.2 179.902 156.2 179.702C156.2 179.502 156.2 179.402 156.2 179.202L156.4 179.302Z" fill="black"/>
<path d="M130.301 203.902C129.601 203.902 128.801 203.702 128.101 203.602C127.801 203.602 127.601 203.302 127.201 203.802C127.001 204.002 126.801 203.402 126.601 203.302C125.901 203.302 125.101 203.002 124.401 202.802C123.701 202.602 122.801 202.502 122.101 202.202C121.401 201.902 120.901 201.202 120.101 201.102C119.401 201.002 119.301 200.202 118.801 199.902C118.201 199.602 117.701 199.202 117.501 198.602C117.301 198.202 117.201 197.702 116.801 197.402C116.601 197.202 116.201 197.202 116.001 197.002C115.801 196.702 115.901 196.302 115.201 196.502C115.201 196.502 115.201 196.302 115.201 196.202C115.401 195.702 115.201 195.402 114.801 195.302C114.401 195.202 114.401 195.002 114.201 194.702C113.901 194.102 113.601 193.402 113.401 192.702C113.301 192.202 113.401 191.602 113.401 191.002C113.401 190.402 113.101 189.802 113.401 189.202C113.801 188.702 113.801 188.202 114.001 187.702C114.001 187.402 114.501 187.202 114.001 186.702V186.502C114.601 186.302 114.701 185.902 114.901 185.502C115.001 185.102 115.201 184.602 115.601 184.302C116.401 183.802 117.101 183.202 117.901 182.802C118.101 182.702 118.401 182.802 118.401 182.202C118.401 182.002 118.601 181.902 118.801 182.002C119.601 182.402 120.101 181.802 120.801 181.802C121.501 181.802 122.301 181.502 123.001 182.002C123.301 182.202 123.701 182.402 124.101 181.802C124.301 181.602 124.601 181.802 124.901 181.802C125.101 181.802 125.401 181.602 125.601 181.602C125.801 181.602 125.901 181.902 126.001 182.102C126.001 182.102 126.101 182.102 126.201 182.102C127.401 181.702 128.001 183.002 128.901 183.202C129.901 183.402 130.701 184.002 131.401 184.502C131.801 184.802 132.201 185.202 131.801 186.402C131.701 186.902 131.401 187.402 131.001 187.602C130.701 187.702 130.501 187.802 130.301 187.802C130.001 187.802 129.701 187.802 129.401 187.702C128.801 187.602 128.101 187.802 127.801 187.302C127.701 187.102 127.401 187.302 127.501 186.802V186.702C126.501 187.102 126.101 186.402 125.401 186.202C124.801 186.102 124.201 186.602 123.701 186.202C123.301 186.802 123.001 186.602 122.801 186.402C122.301 186.102 121.801 186.002 121.301 186.202C120.801 186.302 120.401 186.602 119.901 186.702C119.001 187.002 118.301 187.702 118.001 188.402C118.001 188.502 118.201 188.802 118.001 188.802C117.701 188.802 117.801 189.102 117.801 189.302C117.801 189.502 117.801 189.602 117.801 189.802C117.501 190.102 117.401 190.502 117.501 190.902C117.501 191.302 117.801 191.702 117.901 192.102C118.101 192.902 118.601 193.802 119.201 194.402C119.601 194.802 120.201 195.002 120.501 195.502C120.601 195.702 121.001 195.702 120.801 196.202C120.801 196.402 121.201 196.202 121.301 196.202C121.601 196.402 121.901 196.702 122.201 196.902C122.601 197.202 123.001 197.602 123.501 197.802C123.801 197.902 124.201 197.802 124.501 197.902C124.801 197.902 125.101 198.102 125.401 198.302C125.701 198.502 126.101 198.802 126.501 199.002C126.901 199.202 127.401 199.002 127.801 199.302C128.501 199.902 129.501 199.802 130.401 200.002C131.301 200.202 132.201 200.302 133.101 200.302C133.601 200.302 134.001 200.802 134.501 200.902C134.701 200.902 134.901 202.402 134.701 202.902C134.701 202.902 134.701 203.102 134.601 203.102C134.101 203.502 133.501 204.202 133.001 204.102C132.201 203.902 131.401 203.902 130.501 203.802L130.301 203.902Z" fill="black"/>
<path d="M155.401 133.802C156.701 129.902 156.001 125.502 153.001 123.002C151.901 122.102 150.701 121.002 149.001 121.002C148.201 121.002 147.001 120.002 145.501 119.802C142.501 119.502 139.401 119.602 136.101 119.902L135.301 116.302L138.301 115.102C140.201 114.302 142.201 113.502 144.101 112.602C146.001 111.802 147.801 111.002 149.201 109.902C150.601 108.902 151.701 107.702 152.001 106.302C152.401 104.902 152.001 103.202 151.201 101.902C150.501 100.802 149.701 99.9016 148.601 99.1016C147.601 98.3016 146.301 97.7016 144.901 97.4016C141.901 96.8016 138.601 97.1016 135.301 97.5016C134.201 97.6016 133.101 97.8016 131.901 97.9016L130.301 94.4016C131.501 93.6016 132.801 92.9016 133.901 92.2016C135.201 91.4016 136.301 90.4016 137.501 89.5016C138.101 89.1016 138.601 88.7016 139.101 88.2016C139.501 87.7016 139.801 87.1016 139.801 86.5016C139.801 86.5016 140.101 86.0016 140.301 85.8016C140.701 85.3016 141.001 84.7016 141.001 84.1016C141.001 83.5016 140.801 83.0016 140.501 82.7016C139.901 82.1016 139.401 81.4016 138.501 80.8016C137.401 80.0016 135.901 79.2016 134.501 78.6016C133.101 78.1016 131.501 77.7016 130.001 77.4016C127.701 77.1016 125.301 77.0016 123.001 77.6016C120.601 78.2016 118.401 79.7016 116.401 80.9016C115.401 81.5016 114.501 82.2016 113.701 83.0016C112.901 83.8016 112.201 84.8016 111.901 85.5016C111.701 85.9016 111.601 86.3016 111.701 86.7016C111.701 87.1016 112.001 87.6016 112.501 87.9016C112.501 87.9016 112.801 88.3016 112.801 88.6016C113.301 90.4016 114.501 92.0016 115.801 92.9016C116.501 93.4016 117.201 93.7016 117.901 93.9016C117.901 93.9016 118.101 93.9016 118.201 93.9016C118.201 93.9016 118.601 94.0016 118.801 94.1016L120.301 94.4016C121.301 94.6016 122.401 94.7016 123.301 94.9016C124.001 95.0016 124.501 95.2016 125.101 95.3016C125.601 95.5016 126.101 95.6016 126.501 95.8016C126.501 96.6016 126.601 97.1016 126.701 97.6016C126.701 97.8016 126.901 98.2016 126.701 98.0016C126.701 98.0016 126.501 98.0016 126.401 98.2016C126.301 98.3016 126.201 98.6016 126.001 98.9016C126.001 99.1016 125.901 99.3016 125.801 99.6016V100.002C125.701 100.002 125.501 100.602 125.501 100.602H124.501C124.301 100.702 124.101 100.802 123.901 100.802C123.501 100.802 123.101 101.002 122.801 101.102C122.401 101.202 122.201 101.302 121.901 101.402C121.301 101.602 120.801 101.902 120.401 102.202C120.201 102.302 119.901 102.502 119.701 102.602L119.401 102.802H119.201C119.001 103.102 118.801 103.302 118.701 103.602C118.501 103.902 117.601 104.602 117.201 104.902C115.901 105.602 114.801 106.602 114.101 107.702C113.301 108.802 113.001 110.002 113.001 111.102C113.001 112.302 113.601 113.602 114.501 114.702C115.501 115.802 116.801 116.702 118.201 117.602C118.501 117.802 118.801 118.002 119.201 118.102C119.401 118.102 119.601 118.302 119.801 118.302H120.001L120.301 118.402H120.901C122.501 118.902 124.301 119.102 127.101 119.002C127.401 119.002 127.801 119.002 128.301 119.002C128.501 119.402 128.501 119.902 128.601 120.202C128.601 120.402 128.601 120.502 128.701 120.602C128.701 120.702 128.701 120.802 128.901 120.902C128.901 121.002 129.101 121.102 129.201 121.202C129.201 121.202 129.201 121.202 129.201 121.302C129.201 121.302 129.201 121.302 129.001 121.602C129.001 121.602 128.901 121.702 128.801 121.802C128.801 121.802 128.601 122.002 128.601 122.102C128.601 122.202 128.401 122.402 128.501 122.702C128.501 123.102 128.501 123.302 128.701 123.902L127.201 124.302C126.701 124.402 126.101 124.502 125.901 124.702L124.001 125.602C123.401 125.902 123.001 126.202 122.401 126.602L122.001 126.802H121.801C121.801 126.902 121.801 127.002 121.801 127.002L121.501 127.302C120.601 128.002 119.801 128.702 119.001 129.502C118.201 130.302 117.501 131.202 117.001 132.102C116.401 133.102 115.901 134.102 115.801 134.902C115.701 135.902 115.801 136.402 116.301 137.202C116.801 138.002 117.701 138.802 118.701 139.702C120.801 141.502 122.801 143.302 124.901 144.502C126.101 145.202 127.301 145.702 128.401 146.202C129.501 146.702 130.601 147.002 131.601 147.502C132.501 147.902 132.701 148.402 131.401 148.902C130.401 149.202 129.201 149.402 128.001 149.202C126.101 148.902 124.301 148.302 122.701 147.402C121.001 146.502 119.401 145.502 118.001 144.502C117.301 144.002 116.501 143.402 115.901 142.802C115.201 142.202 114.501 141.502 113.801 140.702C113.401 140.202 112.901 139.602 112.501 138.902C112.101 138.202 111.901 137.502 112.001 136.802C112.001 136.602 112.001 136.002 112.001 135.702C111.801 134.102 112.101 132.602 112.601 131.302C113.101 130.002 113.801 128.802 114.601 127.702C115.401 126.602 116.401 125.602 117.401 124.702C117.901 124.202 118.501 123.802 119.001 123.402L119.201 123.202L119.301 123.102C119.301 123.102 119.501 123.002 119.601 122.902L120.001 122.602C120.401 122.302 120.501 122.202 120.501 122.202H120.301H120.001C119.801 122.202 119.801 122.202 119.701 122.202C119.501 122.202 119.401 122.202 119.201 122.302C118.801 122.402 118.701 122.502 118.701 122.502H118.501C118.201 122.302 117.901 122.202 117.601 122.102C117.001 121.902 116.501 121.602 115.901 121.302C113.801 120.202 111.701 118.602 110.301 116.502C109.601 115.402 109.001 114.202 108.701 112.902C108.401 111.502 108.401 110.102 108.701 108.802C109.401 106.102 110.901 104.102 112.501 102.502C113.301 101.702 114.201 100.902 115.101 100.302C115.501 100.002 116.001 99.6016 116.501 99.3016L116.901 99.1016H117.001L117.301 98.9016C117.501 98.9016 117.701 98.7016 118.001 98.7016C118.201 98.7016 118.601 98.7016 118.201 98.6016C118.001 98.6016 117.801 98.6016 117.601 98.5016C117.401 98.5016 117.201 98.5016 117.001 98.4016H116.801H116.401C115.801 98.0016 115.101 97.8016 114.501 97.4016C112.101 96.0016 110.401 93.8016 109.201 91.7016C108.801 91.0016 108.401 90.4016 108.001 89.6016C107.601 88.8016 107.201 87.8016 107.401 86.5016C107.501 85.2016 108.001 84.0016 108.601 82.9016C109.201 81.9016 109.801 81.0016 110.501 80.3016C111.701 78.9016 113.201 77.5016 114.701 76.6016C117.901 74.8016 121.401 73.6016 125.001 73.1016C128.601 72.7016 132.301 73.1016 135.701 74.4016C137.401 75.1016 139.001 75.9016 140.501 77.0016C142.001 78.1016 143.501 79.6016 144.301 81.6016C145.101 83.7016 144.701 86.0016 143.901 87.8016C143.101 89.6016 141.801 91.1016 140.401 92.4016C137.701 94.7016 134.801 96.1016 132.601 97.8016L130.801 93.8016C131.701 93.6016 132.601 93.4016 133.501 93.3016C135.201 93.0016 137.101 92.4016 139.001 92.9016C139.501 93.0016 141.201 92.5016 142.501 92.6016C145.601 92.8016 148.701 93.7016 151.401 95.7016C152.301 96.4016 153.201 97.2016 153.901 98.2016C154.601 99.2016 155.201 100.202 155.601 101.302C156.401 103.502 156.601 106.102 155.601 108.502C155.101 110.002 154.201 111.202 153.201 112.302C152.201 113.402 151.101 114.202 149.901 114.902C148.701 115.602 147.501 116.102 146.301 116.602C145.101 117.102 144.001 117.502 142.801 117.902C140.701 118.702 138.601 119.402 136.501 120.102L135.501 115.702C136.401 115.702 137.301 115.702 138.201 115.602C141.501 115.402 145.201 115.202 148.501 116.302C151.501 117.402 154.501 119.002 156.601 121.602C158.701 124.302 159.701 127.702 159.401 131.002C159.101 134.202 157.901 137.302 156.001 139.902C154.101 142.402 151.701 144.402 149.101 146.002C146.201 147.802 143.001 148.502 140.001 149.402C138.601 149.902 136.201 149.102 136.701 148.402C136.701 148.302 137.001 148.102 137.201 148.002C138.601 147.302 139.901 146.602 141.301 145.902C142.601 145.202 144.001 144.402 145.501 143.702C149.901 141.602 153.801 138.102 155.101 133.702L155.401 133.802Z" fill="black"/>
<path d="M168.3 160.999H164.6C164.1 160.999 163.7 160.799 163.2 161.299C162.9 161.599 162.5 160.899 162.1 160.899C160.9 160.899 159.8 160.699 158.6 160.599C157.5 160.599 156.3 160.599 155.2 160.299C154.1 160.099 153 159.499 151.9 159.499C150.9 159.499 150.3 158.699 149.4 158.499C148.5 158.299 147.5 157.999 146.8 157.399C146.3 156.999 145.8 156.499 145.1 156.399C144.7 156.399 144.2 156.399 143.8 156.299C143.4 156.099 143.1 155.699 142.6 156.199C142.6 156.199 142.4 156.099 142.4 155.999C142.2 155.499 141.7 155.299 141.2 155.399C140.8 155.499 140.5 155.399 140.2 155.399L139.6 155.199H139.3V155.099C139.3 155.099 139.3 155.099 139.2 155.099C139.2 155.099 139.2 154.999 139.1 154.899C139.1 154.899 139.1 154.899 139 154.799C139 154.799 139 154.899 139 154.999C139 154.999 139 154.999 138.9 154.999C138.9 154.999 138.9 154.999 138.8 154.999C138.8 154.999 138.8 155.099 138.7 155.199C138.7 155.399 138.6 155.499 138.5 155.699C138.5 155.999 138.4 156.299 138.3 156.699C138.3 157.099 137.9 157.399 138.5 157.799V157.999C137.5 158.899 138.5 160.099 138 161.099C137.6 162.199 137.6 163.299 137.4 164.399C137.4 164.699 137.1 164.999 137.5 165.299C137.6 165.399 137.6 165.699 137.5 165.899C136.7 166.599 137 167.499 136.7 168.399C136.4 169.299 136.5 170.299 135.9 171.199C135.6 171.599 135.4 172.099 135.9 172.699C136.1 172.999 135.8 173.399 135.8 173.799C135.8 174.099 136 174.399 136 174.699C136 174.899 135.7 175.099 135.5 175.399V175.599C135.9 177.099 134.7 178.399 134.5 179.799C134.3 181.299 133.8 182.699 133.2 184.099C132.9 184.899 132.3 185.599 131 185.599C130.4 185.599 129.9 185.399 129.8 184.899C129.7 184.599 129.6 184.199 129.6 183.999C129.6 183.599 129.7 183.099 129.8 182.699C129.9 181.799 129.7 180.799 130.2 180.099C130.4 179.899 130.2 179.499 130.7 179.399C130.7 179.399 130.8 179.299 130.8 179.199C130.3 177.799 131.1 176.699 131.3 175.499C131.5 174.399 131 173.299 131.5 172.299C131 171.599 131.2 170.899 131.5 170.299C132.5 168.299 132.4 166.099 132.9 163.999C133.4 161.899 133.6 159.699 134 157.599C134 157.199 133.8 156.899 134.1 156.499C134.4 156.099 134.3 155.599 134.4 155.099C134.4 154.899 134.4 154.699 134.4 154.399C134.4 153.999 134.5 153.599 134.7 153.199C135 152.499 135.2 151.799 135.4 151.199C135.4 150.899 135.6 150.599 135.7 150.199V149.699C135.8 149.699 135.8 149.699 135.8 149.699H135.9H136.2L138.3 150.199L139.3 150.399L140.3 150.699C141 150.899 141.3 151.099 141.8 151.199L143 151.699C143.8 151.999 144.6 152.299 145.5 152.599C146.5 152.899 147.6 152.999 148.5 153.499C148.9 153.699 149.4 153.499 149.6 154.299C149.6 154.499 150.2 154.299 150.5 154.299C151.2 154.499 151.8 154.799 152.4 154.999C153.3 155.299 154.2 155.599 155.1 155.799C155.7 155.899 156.3 155.799 156.8 155.799C157.4 155.799 158 155.999 158.6 156.099C159.3 156.299 160.1 156.599 160.8 156.699C161.6 156.799 162.4 156.699 163.2 156.899C164.6 157.499 166.1 157.199 167.5 157.299C168.9 157.299 170.4 157.299 171.8 157.099C172.6 156.999 173.4 157.399 174.2 157.399C174.6 157.399 175.2 158.799 175.1 159.299C175.1 159.299 175.1 159.499 175 159.499C174.2 159.999 173.5 160.799 172.6 160.799C171.2 160.799 169.9 160.899 168.5 160.999H168.3Z" fill="black"/>
<path d="M133.099 206.599C132.899 206.799 132.599 206.999 132.499 207.199C132.499 207.199 132.199 207.199 132.499 207.599C132.699 207.799 132.099 207.599 132.099 207.599C132.099 207.799 131.899 207.999 131.899 208.099C131.899 208.299 132.099 208.399 132.199 208.499C132.199 208.499 132.199 208.599 132.199 208.699C132.199 208.699 132.199 208.699 132.399 208.699C132.699 208.599 132.199 208.899 132.399 208.899C132.499 208.899 132.599 208.799 132.399 208.999C132.399 209.199 132.299 209.399 132.399 209.299C132.399 209.299 132.499 209.099 132.499 208.999C132.499 208.999 132.499 209.299 132.499 208.699C132.499 208.699 132.499 208.699 132.499 208.799C132.499 209.199 132.499 209.199 132.499 208.799C132.499 208.499 132.499 208.599 132.599 208.499C132.799 208.499 133.099 208.299 133.299 208.299C133.499 208.299 133.699 208.499 133.899 208.499C134.099 208.499 134.099 208.199 134.299 208.499C134.499 208.699 134.699 208.599 134.799 208.499C134.799 208.499 135.099 208.699 134.799 208.099C135.399 208.699 134.799 207.699 134.999 207.799C135.199 207.799 135.099 207.799 135.099 207.699C135.099 207.699 135.299 207.699 134.799 207.699C134.599 207.699 134.599 207.699 134.799 207.699C135.299 207.699 135.199 207.699 135.099 207.699C135.099 207.599 134.899 207.699 135.299 207.399C135.499 207.299 135.499 207.099 134.999 207.399C134.799 207.599 134.999 207.399 134.799 207.399L134.499 207.599C134.499 207.599 134.499 207.399 134.499 207.199C133.899 207.599 133.999 206.599 133.599 206.599C133.199 206.599 132.899 206.399 132.599 206.099C132.399 205.999 132.299 205.699 132.599 204.599C132.599 204.099 132.899 203.599 133.099 203.299C133.299 203.099 133.399 202.899 133.499 202.899C133.699 202.899 133.899 202.799 134.099 202.799C134.499 202.799 134.999 202.399 135.199 202.799C135.199 202.899 135.499 202.799 135.399 203.199C136.199 202.699 136.399 203.399 136.799 203.699C137.199 203.899 137.899 203.699 138.099 204.299C138.799 204.099 138.999 204.599 139.099 204.999C139.099 205.699 139.399 206.299 139.499 206.899C139.599 207.499 139.699 208.099 139.499 208.699C139.199 209.899 138.399 211.099 137.499 211.799C137.399 211.899 137.499 212.299 137.099 212.199C136.799 212.099 136.699 212.399 136.499 212.499C136.299 212.499 136.199 212.799 135.999 212.699C135.099 212.399 134.599 212.899 133.999 212.999C133.699 212.999 133.499 212.999 132.999 213.099C132.499 213.099 132.099 213.199 131.599 213.199H131.199C130.699 213.199 130.199 213.199 129.799 212.899C129.599 212.699 129.199 212.899 129.399 212.199C129.399 211.999 128.999 212.199 128.899 212.199C128.599 211.899 128.399 211.599 128.199 211.199C127.899 210.699 127.799 210.099 127.599 209.599C127.599 209.199 127.199 208.999 127.199 208.599C127.199 208.299 127.199 207.899 127.199 207.499C127.399 207.099 127.699 206.599 127.899 206.299C128.099 205.999 128.099 205.499 128.499 205.299C129.299 204.999 129.499 204.399 129.899 204.099C130.299 203.699 130.799 203.399 131.099 202.999C131.299 202.799 131.799 202.999 131.999 202.799C131.999 202.799 133.099 203.799 133.399 204.199C133.399 204.199 133.399 204.399 133.499 204.399C133.499 204.899 133.799 205.599 133.499 205.799C133.099 205.999 132.899 206.299 132.599 206.499L133.099 206.599Z" fill="black"/>
</svg>
