<svg width="300" height="300" viewBox="0 0 300 300" fill="none" xmlns="http://www.w3.org/2000/svg">
<path d="M183.199 140.102C182.699 139.502 182.199 139.002 181.599 138.402C181.399 138.202 181.399 137.802 180.799 138.002C180.499 138.002 180.799 137.402 180.599 137.302C180.099 136.802 179.599 136.202 179.099 135.802C178.599 135.302 177.899 135.002 177.399 134.502C176.899 134.002 176.599 133.302 175.899 133.102C175.299 132.902 175.299 132.202 174.899 131.802C174.399 131.502 173.899 131.102 173.699 130.502C173.499 130.102 173.399 129.602 173.099 129.402C172.899 129.302 172.499 129.402 172.299 129.102C172.099 128.902 172.099 128.502 171.499 128.802C171.499 128.802 171.499 128.702 171.499 128.602C171.599 128.102 171.399 127.902 170.999 127.902C170.599 127.902 170.499 127.702 170.399 127.602C169.999 127.202 169.599 126.802 169.199 126.302C168.899 125.902 168.799 125.502 168.599 125.102C168.299 124.702 167.799 124.602 167.699 124.002C167.699 123.502 167.299 123.202 167.099 122.902C166.899 122.702 166.999 122.302 166.399 122.602C166.399 122.602 166.299 122.602 166.299 122.502C166.399 121.402 165.199 121.702 164.899 121.102C164.599 120.402 163.999 120.002 163.499 119.502C163.399 119.402 163.399 119.102 162.899 119.302C162.699 119.302 162.599 119.302 162.599 119.102C162.699 118.302 162.099 118.202 161.799 117.802C161.499 117.302 160.899 117.202 160.799 116.502C160.799 116.202 160.599 115.902 159.999 116.302C159.799 116.502 159.699 116.102 159.499 116.102C159.299 116.102 159.099 116.202 158.999 116.102C158.899 116.102 158.899 115.802 158.799 115.602C158.799 115.602 158.799 115.602 158.699 115.602C157.799 115.902 157.399 114.902 156.599 114.902C155.799 114.902 154.999 114.802 154.199 114.602C153.699 114.602 153.299 114.302 152.999 113.202C152.899 112.702 152.899 112.102 153.099 111.802C153.299 111.602 153.499 111.302 153.599 111.302C153.899 111.302 154.199 111.102 154.499 111.002C155.099 110.802 155.799 110.402 156.399 110.702C156.599 110.802 156.899 110.602 156.999 111.102C156.999 111.102 156.999 111.202 157.099 111.102C158.099 110.502 158.999 111.202 159.899 111.502C160.699 111.702 161.699 111.502 162.299 112.302C162.999 112.002 163.399 112.502 163.699 112.902C164.499 114.402 165.799 115.202 166.699 116.202C167.599 117.302 168.599 118.202 169.499 119.302C169.699 119.502 170.099 119.302 169.999 119.802C169.999 120.202 170.399 120.302 170.599 120.502C170.799 120.702 171.099 120.802 171.199 121.102C171.499 122.302 172.499 122.902 173.199 123.702C173.899 124.502 174.599 125.402 175.499 126.102C175.999 126.502 176.699 126.802 177.099 127.302C177.299 127.502 177.699 127.502 177.499 128.102C177.499 128.302 177.899 128.102 178.099 128.302C178.399 128.602 178.699 129.002 178.999 129.302C179.399 129.802 179.799 130.302 180.299 130.702C180.599 131.002 180.999 131.102 181.299 131.302C181.599 131.602 181.899 131.902 182.099 132.202C182.399 132.602 182.599 133.102 182.899 133.602C183.199 134.002 183.799 134.302 183.899 134.802C184.199 135.802 184.999 136.402 185.599 137.102C186.199 137.802 186.799 138.502 187.499 139.102C187.899 139.402 187.899 140.102 188.199 140.502C188.399 140.702 187.499 141.902 187.099 142.202H186.899C186.199 142.202 185.399 142.202 184.999 141.802C184.499 141.102 183.799 140.502 183.199 139.902V140.102Z" fill="black"/>
<path d="M166.099 147.302C166.499 147.102 166.799 147.002 167.199 146.702C167.299 146.702 167.599 146.702 167.499 146.202C167.499 145.902 167.899 146.402 167.999 146.402C168.299 146.202 168.699 146.102 168.999 145.902C169.299 145.702 169.499 145.302 169.799 145.102C170.099 144.902 170.599 145.102 170.799 144.602C170.999 144.202 171.399 144.602 171.599 144.302C171.799 144.102 172.099 143.902 172.499 144.002C172.799 144.002 173.099 144.202 173.199 144.002C173.199 143.902 173.199 143.502 173.399 143.502C173.499 143.502 173.799 143.702 173.699 143.002C173.699 143.002 173.699 143.002 173.899 143.002C174.199 143.302 174.399 143.202 174.399 143.002C174.399 142.702 174.499 142.702 174.599 142.602C174.899 142.502 175.199 142.302 175.499 142.302C175.699 142.302 175.999 142.302 176.299 142.302C176.499 142.302 176.699 141.902 176.999 142.102C177.299 142.302 177.499 142.202 177.699 142.102C177.799 142.102 178.099 142.302 177.899 141.602C178.499 142.302 178.499 141.102 178.899 141.202C179.299 141.202 179.599 141.002 179.999 140.902C179.999 140.902 180.299 141.002 180.199 140.502C180.199 140.302 180.199 140.302 180.399 140.402C180.899 140.902 180.999 140.402 181.299 140.402C181.599 140.402 181.899 140.002 182.299 140.402C182.499 140.602 182.699 140.602 182.699 140.002C182.699 139.702 182.899 140.002 182.999 139.802C182.999 139.802 182.999 139.402 183.199 139.402C183.199 139.402 183.399 139.602 183.499 139.702C183.799 138.902 184.499 139.702 184.899 139.302C185.299 139.002 185.799 138.902 186.299 138.902C186.599 138.902 186.899 138.902 187.399 140.002C187.599 140.502 187.799 141.002 187.699 141.402C187.699 141.702 187.699 141.902 187.599 142.002C187.499 142.102 187.399 142.302 187.299 142.402C187.099 142.702 186.899 143.302 186.599 143.102C186.499 143.102 186.499 143.402 186.199 142.902C185.999 143.802 185.499 143.402 185.099 143.602C184.799 143.802 184.599 144.502 184.199 144.302C184.199 145.002 183.999 144.902 183.699 144.802C182.799 144.402 182.299 145.002 181.599 145.202C180.899 145.302 180.299 145.702 179.599 145.902C179.499 145.902 179.599 146.302 179.299 146.102C179.099 145.902 178.999 146.102 178.799 146.202C178.699 146.202 178.599 146.402 178.399 146.302C177.599 145.902 177.299 146.502 176.699 146.602C176.199 146.702 175.599 146.902 175.199 147.302C174.899 147.502 174.799 148.002 174.399 148.002C174.199 148.002 174.199 148.402 173.899 147.902C173.799 147.802 173.899 148.202 173.799 148.302C173.599 148.402 173.399 148.502 173.199 148.602C172.899 148.702 172.599 148.802 172.299 149.002C172.099 149.102 172.099 149.402 171.899 149.602C171.699 149.702 171.599 149.802 171.299 149.902C170.999 149.902 170.699 149.902 170.399 149.902C170.099 149.902 169.999 150.302 169.599 150.202C168.899 150.002 168.599 150.402 168.199 150.602C167.699 150.802 167.299 150.902 166.899 151.302C166.699 151.502 166.199 151.202 165.999 151.302C165.899 151.302 165.099 150.102 164.899 149.702V149.502C164.899 149.002 164.799 148.202 165.099 148.102C165.499 148.002 165.899 147.702 166.299 147.502L166.099 147.302Z" fill="black"/>
<path d="M146.699 141.101C146.699 140.901 146.699 140.701 146.699 140.601C146.699 140.601 146.899 140.501 146.399 140.401C146.099 140.401 146.799 140.301 146.699 140.201C146.699 140.001 146.699 139.901 146.699 139.701C146.699 139.501 146.399 139.401 146.399 139.201C146.399 139.001 146.699 138.901 146.399 138.701C146.099 138.501 146.599 138.501 146.499 138.301C146.399 138.201 146.299 138.001 146.499 137.901C146.699 137.901 146.899 137.701 146.799 137.601C146.799 137.601 146.399 137.401 146.499 137.401C146.499 137.401 146.799 137.401 146.199 137.201C146.199 137.201 146.199 137.201 146.399 137.201C146.799 137.201 146.799 137.201 146.499 137.001C146.199 137.001 146.299 136.901 146.299 136.801C146.299 136.701 146.299 136.501 146.299 136.401C146.299 136.401 146.599 136.201 146.699 136.201C146.699 136.201 146.499 135.901 146.799 135.901C147.099 135.901 147.099 135.801 147.099 135.701C147.099 135.701 147.399 135.701 146.799 135.501C147.599 135.501 146.599 135.101 146.799 135.001C146.999 134.901 146.899 134.701 146.999 134.501C146.999 134.501 147.199 134.501 146.799 134.301C146.599 134.201 146.599 134.301 146.799 134.301C147.399 134.301 147.099 134.101 147.199 134.001C147.399 133.901 147.199 133.701 147.599 133.701C147.799 133.701 147.899 133.701 147.399 133.401C147.199 133.301 147.399 133.401 147.399 133.201L147.099 133.001C147.099 133.001 147.299 133.001 147.499 133.001C146.899 132.601 147.899 132.701 147.799 132.401C147.799 132.101 147.799 132.001 147.999 131.801C147.999 131.801 148.299 131.701 149.399 132.001C149.899 132.201 150.399 132.401 150.699 132.601C150.899 132.701 151.099 132.801 151.099 132.901C151.099 132.901 151.299 133.101 151.299 133.201C151.399 133.401 151.899 133.701 151.599 133.701C151.599 133.701 151.799 133.901 151.299 133.701C151.999 134.101 151.399 134.101 151.399 134.301C151.399 134.401 151.999 134.801 151.699 134.801C152.299 135.101 152.099 135.101 151.899 135.101C151.199 135.101 151.499 135.501 151.399 135.801C151.199 136.001 151.299 136.301 151.199 136.601C151.199 136.601 151.499 136.801 151.199 136.801C150.899 136.801 151.199 136.901 151.199 137.001C151.199 137.001 151.299 137.101 151.199 137.201C150.499 137.201 150.899 137.601 150.799 137.801C150.799 138.001 150.599 138.201 150.799 138.401C150.799 138.501 151.199 138.701 151.099 138.801C151.099 138.801 151.399 138.901 150.799 138.901C150.599 138.901 151.099 138.901 151.099 139.001C151.099 139.001 151.099 139.201 151.099 139.301C151.099 139.401 151.099 139.501 151.099 139.701L151.399 139.901V140.101C151.399 140.101 151.099 140.301 150.999 140.401C150.999 140.501 151.199 140.601 150.999 140.701C150.499 140.901 150.699 141.101 150.699 141.301C150.699 141.501 150.699 141.701 150.699 141.801C150.699 141.801 150.299 142.001 150.299 142.101C150.299 142.101 148.799 142.301 148.299 142.401H148.099C147.599 142.401 146.899 142.301 146.899 142.101C146.899 141.901 146.899 141.701 146.899 141.501L146.699 141.101Z" fill="black"/>
<path d="M157.1 141.902C157.1 141.702 157.1 141.502 157.1 141.402C157.1 141.402 157.3 141.302 156.8 141.202C156.5 141.202 157.2 141.102 157.1 141.002C157.1 140.802 157.1 140.702 157.1 140.502C157.1 140.302 156.8 140.202 156.8 140.002C156.8 139.802 157.1 139.702 156.8 139.502C156.5 139.302 157 139.302 156.9 139.102C156.8 139.002 156.7 138.802 156.9 138.702C157.1 138.702 157.3 138.502 157.2 138.402C157.2 138.402 156.8 138.202 156.9 138.202C156.9 138.202 157.2 138.202 156.6 138.002C156.6 138.002 156.6 138.002 156.8 138.002C157.2 138.002 157.2 138.002 156.9 137.802C156.6 137.802 156.7 137.702 156.7 137.602C156.7 137.502 156.7 137.302 156.7 137.202C156.7 137.202 157 137.002 157.1 137.002C157.1 137.002 156.9 136.702 157.2 136.702C157.5 136.702 157.5 136.602 157.5 136.502C157.5 136.502 157.8 136.502 157.2 136.302C158 136.302 157 135.902 157.2 135.802C157.4 135.702 157.3 135.502 157.4 135.302C157.4 135.302 157.6 135.302 157.2 135.102C157 135.002 157 135.102 157.2 135.102C157.8 135.102 157.5 134.902 157.6 134.802C157.8 134.702 157.6 134.502 158 134.502C158.2 134.502 158.3 134.502 157.8 134.202C157.6 134.102 157.8 134.202 157.8 134.002L157.5 133.802C157.5 133.802 157.7 133.802 157.9 133.802C157.3 133.402 158.3 133.502 158.2 133.202C158.2 132.902 158.2 132.802 158.4 132.602C158.4 132.602 158.7 132.502 159.8 132.802C160.3 133.002 160.8 133.202 161.1 133.402C161.3 133.502 161.5 133.602 161.5 133.702C161.5 133.702 161.7 133.902 161.7 134.002C161.8 134.202 162.3 134.502 162 134.502C162 134.502 162.2 134.702 161.7 134.502C162.4 134.902 161.8 134.902 161.8 135.102C161.8 135.202 162.4 135.602 162.1 135.602C162.7 135.902 162.5 135.902 162.3 135.902C161.6 135.902 161.9 136.302 161.8 136.602C161.6 136.802 161.7 137.102 161.6 137.402C161.6 137.402 161.9 137.602 161.6 137.602C161.3 137.602 161.6 137.702 161.6 137.802C161.6 137.802 161.7 137.902 161.6 138.002C160.9 138.002 161.3 138.402 161.2 138.602C161.2 138.802 161 139.002 161.2 139.202C161.2 139.302 161.6 139.502 161.5 139.602C161.5 139.602 161.8 139.702 161.2 139.702C161 139.702 161.5 139.702 161.5 139.802C161.5 139.802 161.5 140.002 161.5 140.102C161.5 140.202 161.5 140.302 161.5 140.502L161.8 140.702V140.902C161.8 140.902 161.5 141.102 161.4 141.202C161.4 141.302 161.6 141.402 161.4 141.502C160.9 141.702 161.1 141.902 161.1 142.102C161.1 142.302 161.1 142.502 161.1 142.602C161.1 142.602 160.7 142.802 160.7 142.902C160.7 142.902 159.2 143.102 158.7 143.202H158.5C158 143.202 157.3 143.102 157.3 142.902C157.3 142.702 157.3 142.502 157.3 142.302L157.1 141.902Z" fill="black"/>
<path d="M171.499 152.002C172.399 153.002 173.199 154.002 173.999 154.902C174.299 155.302 174.399 155.802 175.199 155.802C175.599 155.802 175.399 156.602 175.699 156.902C176.499 157.802 177.199 158.802 177.999 159.702C178.399 160.202 178.799 160.502 179.199 161.002C179.799 161.702 180.399 162.402 181.099 163.302C182.099 164.502 182.799 165.702 183.699 167.002C183.199 167.202 182.699 167.302 182.299 167.502C181.599 167.802 180.699 168.002 179.899 168.202C178.999 168.302 178.199 168.502 177.499 168.702C177.299 168.702 177.099 168.802 176.899 168.902H176.399C176.199 169.102 175.899 169.202 175.599 169.202C175.099 169.302 174.599 169.302 174.099 169.202C173.399 169.202 172.599 169.002 171.899 169.202C171.499 169.302 171.099 169.702 170.599 169.702C170.099 169.702 169.599 169.502 169.199 170.102C169.199 170.102 168.999 170.102 168.899 170.002C168.399 169.602 167.799 169.702 167.399 170.002C166.999 170.302 166.599 170.202 166.299 170.202C165.299 170.202 164.199 170.202 163.199 170.002C162.399 169.902 161.699 169.602 160.899 169.402C160.099 169.302 159.199 169.402 158.499 169.002C157.799 168.602 157.099 168.402 156.399 168.302C155.999 168.302 155.599 167.802 155.099 168.302C155.099 168.302 154.899 168.302 154.799 168.302C153.899 167.202 152.499 167.902 151.399 167.302C150.299 166.702 148.999 166.402 147.899 165.902C147.599 165.802 147.299 165.402 146.899 165.702C146.699 165.702 146.399 165.702 146.299 165.402C145.799 164.402 144.699 164.202 143.899 163.602C142.999 162.902 141.999 162.402 141.399 161.302C141.199 160.802 140.799 160.302 139.999 160.302C139.599 160.302 139.399 159.702 139.099 159.402C138.799 159.202 138.399 159.102 138.199 158.802C137.999 158.602 137.999 158.202 137.899 157.902C137.899 157.902 137.899 157.702 137.699 157.702C136.999 157.202 136.499 156.402 136.299 155.602L135.899 154.402C135.799 154.002 135.699 153.602 135.499 153.202C134.699 151.702 134.399 149.902 134.299 148.202C134.299 147.302 134.399 146.302 135.499 145.702C135.999 145.402 136.599 145.402 136.899 145.702C137.199 146.002 137.399 146.202 137.499 146.502C137.599 147.002 137.699 147.402 137.899 147.802C138.099 148.202 138.299 148.702 138.499 149.102C138.699 149.502 138.899 149.902 138.899 150.402C138.899 150.702 139.199 150.902 138.899 151.302V151.502C139.499 151.902 139.699 152.502 139.999 153.002C140.099 153.302 140.199 153.602 140.299 153.902C140.399 154.202 140.599 154.502 140.799 154.702C141.099 155.102 141.499 155.502 141.899 155.802C142.299 156.102 142.699 156.402 142.999 156.902C143.799 156.902 144.199 157.402 144.499 157.902C145.599 159.802 147.699 160.602 149.599 161.602C151.499 162.602 153.599 163.302 155.799 163.902C156.199 163.902 156.599 163.702 156.899 164.102C157.199 164.502 157.799 164.402 158.299 164.502C158.699 164.502 159.199 164.502 159.599 164.802C161.199 165.802 163.099 165.602 164.799 165.702C166.499 165.902 168.299 165.902 170.099 165.702C171.199 165.502 172.199 165.102 173.199 165.102C173.699 165.102 174.099 164.702 174.599 165.102C174.799 165.202 175.099 164.702 175.399 164.602H175.799C175.799 164.502 175.999 164.502 175.999 164.502C176.099 164.502 176.299 164.502 176.399 164.502C176.399 164.502 176.399 164.402 176.199 164.302C176.099 164.202 175.699 164.102 175.599 164.102C175.599 164.102 175.499 164.102 175.399 163.902L175.199 163.702L174.899 163.302C174.399 162.602 174.099 161.802 173.599 161.102C173.099 160.402 172.299 159.802 171.999 159.002C171.399 157.502 170.199 156.402 169.199 155.202C168.199 154.002 167.199 152.802 166.099 151.702C165.499 151.102 165.299 150.202 164.699 149.502C164.399 149.202 165.099 147.802 165.599 147.602C165.599 147.602 165.799 147.602 165.899 147.602C166.799 147.902 167.899 148.002 168.499 148.702C169.399 149.802 170.499 150.902 171.399 152.002H171.499Z" fill="black"/>
<path d="M160 187.002L160.5 186.002C160.5 185.802 160.6 185.702 160.7 185.502C160.7 185.502 161.1 185.002 160.4 185.502C160 185.702 161 185.002 161 184.902V184.802H160.8C160.6 184.902 160.5 185.002 160.3 185.002C160.1 185.002 160 185.202 159.8 185.302H159.6C159.3 185.302 159 185.402 158.7 185.402C157.5 185.502 156.4 185.202 155.3 185.402C154.3 185.602 153.6 184.902 152.7 184.802C151.7 184.702 150.8 184.502 150 183.902C149.4 183.502 148.9 183.002 148.3 182.902C147.9 182.802 147.4 182.902 147 182.702C146.6 182.502 146.4 182.002 145.7 182.402C145.7 182.402 145.5 182.202 145.5 182.102C145.3 181.502 144.9 181.202 144.4 181.302C143.9 181.302 143.7 181.102 143.4 180.902C142.6 180.402 141.9 179.802 141.2 179.202C140.7 178.702 140.3 178.102 139.9 177.502C139.4 177.002 138.7 176.602 138.5 175.902C138.3 175.202 137.8 174.802 137.4 174.302C137.2 174.002 137.1 173.502 136.4 173.702C136.4 173.702 136.3 173.702 136.3 173.502C136.3 172.202 134.8 172.002 134.3 170.902C133.9 169.802 133.1 168.802 132.7 167.702C132.6 167.402 132.7 167.002 132.1 166.902C131.9 166.902 131.8 166.502 131.9 166.302C132.1 165.802 132 165.302 131.9 164.902C131.8 164.502 131.6 164.002 131.6 163.602C131.6 163.102 131.5 162.602 131.5 162.102C131.5 161.602 131.5 161.102 131.7 160.602C131.9 160.202 132 159.602 131.5 159.102C131.2 158.902 131.5 158.402 131.5 158.002C131.5 157.702 131.2 157.402 131.3 157.102C131.3 156.802 131.6 156.602 131.7 156.402V156.202C131.3 154.702 132.4 153.502 132.6 152.102C132.8 150.702 133.2 149.402 133.8 148.102C134.1 147.402 134.5 146.702 135.7 146.602C136.3 146.602 136.8 146.702 137 147.102C137.2 147.402 137.3 147.702 137.3 148.002C137.3 148.402 137.3 148.902 137.3 149.302C137.3 150.202 137.5 151.102 137 151.902C136.8 152.102 137 152.502 136.5 152.602C136.5 152.602 136.4 152.702 136.4 152.802C136.9 154.102 136.1 155.102 136 156.302C135.9 157.302 136.4 158.302 136 159.202C136.6 159.802 136.5 160.302 136.3 160.802C135.6 162.602 136.3 164.402 136.9 166.002C137.4 167.702 138.5 169.202 139.7 170.702C139.9 171.002 140.4 171.002 140.4 171.402C140.4 171.902 140.9 172.102 141.2 172.402C141.5 172.702 141.8 172.902 142 173.302C142.6 174.902 144 175.702 145.2 176.702C146.3 177.702 147.6 178.602 149 179.202C149.9 179.502 150.8 179.602 151.6 180.002C151.9 180.202 152.4 180.002 152.6 180.702C152.6 180.902 153.1 180.602 153.4 180.702C154 180.802 154.6 181.002 155.2 181.102C156 181.202 156.9 181.402 157.7 181.302C158.2 181.302 158.7 181.002 159.2 180.902C159.3 180.902 159.5 180.902 159.6 180.902H159.7H159.8L160.2 180.802L161.1 180.602C161.4 180.602 161.7 180.602 162 180.402C162.8 180.202 163.6 180.002 164.4 179.702C165.2 179.502 165.9 179.302 166.7 179.002C167 178.902 167.4 178.802 167.7 178.602V179.102V179.402V179.802C167.4 180.302 167.3 180.902 167 181.502C166.3 182.902 165.9 183.902 165.6 185.002C165.2 186.002 164.8 187.202 164.3 188.202C163.6 189.502 162.9 190.802 162.2 192.102C161.8 192.802 161 193.202 160.5 193.802C160.3 194.102 158.8 193.602 158.5 193.202C158.5 193.202 158.4 193.002 158.4 192.902C158.4 192.002 158.2 191.102 158.7 190.402C159.4 189.402 160 188.302 160.5 187.302L160 187.002Z" fill="black"/>
<path d="M115.5 176.999C115.5 175.499 115.6 173.999 115.8 172.499C115.8 171.899 116.2 171.399 115.8 170.699C115.6 170.299 116.3 169.999 116.5 169.499C116.7 168.799 116.9 168.099 117.1 167.499C117.3 166.799 117.6 166.199 117.9 165.499C118.4 164.199 118.9 162.899 119.7 161.699C120.5 160.499 121.6 159.599 122.3 158.399C122.8 157.399 123.8 157.199 124 156.599C124.3 155.899 124.4 155.199 124.7 154.499C124.9 153.999 125.1 153.399 124.9 152.799C124.8 152.499 124.4 152.299 124.3 151.899C124.2 151.599 124.3 151.099 123.5 151.299C123.5 151.299 123.5 151.099 123.5 150.999C123.5 150.399 123.2 149.999 122.7 149.899C122.2 149.799 122 149.499 121.7 149.199C120.9 148.399 119.9 146.999 119.5 145.599C119.2 144.499 119.2 143.399 119.2 142.399C119.2 141.399 119.1 140.199 119.6 139.299C120.1 138.499 120.4 137.599 120.7 136.799C120.9 136.299 121.4 135.999 121.1 135.299C121.1 135.299 121.1 135.099 121.3 134.999C122.1 134.599 122.4 133.999 122.7 133.399C123 132.799 123.4 132.099 123.9 131.699C125.1 130.799 126.1 129.899 127.2 128.999C127.5 128.799 127.9 128.699 128 128.099C128 127.899 128.3 127.699 128.5 127.699C129.7 127.699 130.4 126.799 131.2 126.399C132.2 125.899 133 125.099 134.1 124.799C134.6 124.799 135.2 124.399 135.2 123.599C135.2 123.199 135.8 123.099 136 122.799C136.2 122.599 136.2 122.199 136.4 121.999C136.6 121.799 136.9 121.799 137.2 121.699C137.2 121.699 137.3 121.599 137.4 121.499C137.6 120.799 138.1 120.199 138.5 119.799C138.9 119.299 139.4 118.799 139.6 118.099C139.9 116.799 140.1 115.499 140 114.299C140 113.599 140 112.999 140.6 111.999C140.9 111.499 141.4 111.199 141.9 111.399C142.3 111.599 142.6 111.799 142.8 112.099C143.1 112.599 143.4 113.199 143.6 113.799C144 114.999 144.5 116.399 143.9 117.599C143.7 117.999 143.9 118.499 143.3 118.699L143.1 118.899C143.3 120.799 141.9 122.199 140.9 123.499C140 124.599 139.4 126.099 138.2 126.699C138 127.699 137.2 128.099 136.4 128.399C133.8 129.399 131.8 130.999 129.8 132.299C127.7 133.599 126 135.199 124.8 136.999C124.6 137.299 124.8 137.699 124.3 137.999C123.9 138.199 123.9 138.799 123.7 139.199C123.6 139.599 123.6 139.999 123.4 140.399C122.9 141.099 122.8 141.999 123 142.799C123.1 143.599 123.5 144.299 123.8 144.899C124.2 145.599 124.8 146.199 125.5 146.999C126.2 147.799 127 148.699 127.7 149.799C128.4 151.199 129.1 152.699 128.8 154.299C128.7 154.999 128.9 155.799 128.1 156.299C127.9 156.399 128.1 157.199 128 157.599C127.6 158.599 126.9 159.599 126.2 160.299C125.8 160.799 125.3 161.199 124.9 161.599C124.5 161.999 124.2 162.399 123.9 162.799C123.6 163.299 123.3 163.999 123.1 164.499C122.9 164.799 122.8 165.099 122.6 165.399C122.4 165.699 122.3 165.999 122.1 166.299L121.4 167.399C121.1 167.799 120.9 168.099 120.8 168.499C120.4 169.299 120.4 170.299 119.9 170.999C119 172.399 119.1 174.099 118.9 175.699C118.8 177.299 118.9 178.899 119.3 180.499C119.4 180.899 119.4 181.399 119.4 181.799C119.4 182.299 119.4 182.699 119.6 183.099C119.7 183.499 118.5 184.599 118 184.599C117.9 184.599 117.8 184.599 117.7 184.599C117.3 184.199 116.9 183.899 116.5 183.499C116.1 183.099 115.8 182.599 115.7 181.999C115.4 180.299 115.1 178.599 115.1 176.899L115.5 176.999Z" fill="black"/>
<path d="M195.701 181.8C196.501 180.8 197.201 179.9 197.801 179C198.301 178.1 198.601 177.4 198.601 176.5C198.601 175.9 198.801 175.1 198.101 174.5C197.801 174.2 198.101 173.4 197.801 172.8C196.901 171.2 195.601 169.6 194.001 168.3C193.201 167.7 192.301 167.1 191.401 166.3C190.501 165.6 189.401 164.6 188.701 163.3C188.001 162 187.801 160.3 188.001 158.9C188.201 157.4 188.701 156.2 189.101 155.1C189.801 153.1 191.301 152 192.201 150.6C193.101 149.1 193.901 147.6 194.801 146.2C195.501 145.2 196.101 144.1 196.301 143C196.401 142.3 196.301 141.5 196.301 140.8C196.401 140.1 196.801 139.3 196.201 138.6C196.201 138.6 196.201 138.2 196.301 138.1C196.701 137.3 196.601 136.4 196.201 135.8C195.801 135.2 195.701 134.7 195.601 134.2C195.101 132.7 194.401 131.4 193.601 130.1C193.001 129.2 192.301 128.2 191.401 127.5C190.401 126.7 189.301 126.5 188.201 125.8C187.101 125.1 185.901 124.8 184.501 124.4C183.701 124.1 183.001 123.5 182.001 123.7C182.001 123.7 181.601 123.5 181.501 123.4C180.601 122.4 179.601 121.5 178.701 120.6C177.801 119.6 177.101 118.5 176.701 117.4C176.101 115 175.601 112.7 175.001 110.7C174.801 110.2 174.901 109.5 174.301 109.3C174.101 109.2 173.901 108.7 173.901 108.5C173.901 107 172.801 106.1 171.801 105.2C170.701 104.1 169.101 103.7 167.501 102.8C166.901 102.4 165.801 102.1 164.901 102.6C164.501 102.8 163.701 102.5 163.001 102.6C162.501 102.6 162.001 102.9 161.501 103C161.101 103 160.601 102.8 160.101 102.8C160.001 102.8 159.801 102.8 159.701 102.8C158.501 103.3 157.201 103.5 156.001 103.8C154.701 104.1 153.501 104.4 152.301 105C150.001 106.3 147.901 107.8 146.101 109.6C145.101 110.6 144.201 111.7 142.701 112C142.001 112.2 141.501 112 141.601 111.2C141.601 110.6 141.701 110 142.001 109.5C142.201 109.1 142.501 108.7 142.701 108.2C142.901 107.8 143.201 107.4 143.501 107C144.701 105.4 145.901 103.7 147.701 102.8C148.301 102.5 148.801 101.9 149.501 102.1C149.501 102.1 149.801 102.1 149.901 101.9C151.901 99.9001 154.901 99.4001 157.501 98.9001C158.601 98.6001 159.701 98.3001 160.901 98.1001C162.101 97.9001 163.301 97.8001 164.501 98.1001C165.901 97.6001 167.501 97.9001 168.801 98.5001C171.101 99.5001 173.401 100.7 175.301 102.5C177.301 104.3 178.501 106.8 179.101 109C179.701 111.3 180.101 113.5 180.701 115.4C181.301 117.3 182.201 118.7 183.501 119.6C184.001 119.9 184.501 119.8 185.101 120.3C185.701 120.8 186.701 120.9 187.601 121.2C188.401 121.4 189.401 121.6 190.301 122.1C193.801 124.1 196.901 126.7 198.601 130.2C199.401 131.9 200.001 133.8 200.301 135.7C200.601 137.6 200.601 139.5 200.401 141.4C200.201 143.7 199.901 146 198.801 148C198.401 148.9 198.201 150 197.201 150.5C196.901 150.7 196.901 151.7 196.501 152.2C195.701 153.6 194.801 154.6 194.001 155.8C193.001 157.3 192.101 158.9 192.201 160.2C192.201 160.6 192.301 160.9 192.501 161.2C192.701 161.5 192.901 161.7 193.101 162C193.601 162.6 194.401 163.3 195.401 164.1C196.601 165.2 197.901 166.5 199.001 167.9C199.601 168.6 200.201 169.4 200.801 170.2C201.301 171 201.801 172 202.001 173C202.301 174.8 202.501 176.6 202.001 178.5C201.801 179.4 201.401 180.3 201.001 181.1C200.601 181.9 200.101 182.5 199.601 183.2C198.701 184.4 197.801 185.5 197.501 186.4C197.201 187.4 197.301 187.9 198.101 189.2C198.301 189.5 198.501 189.9 198.701 190.4C198.901 190.9 199.001 191.3 199.101 192C199.101 193.2 199.101 194.3 198.401 195.4C198.101 196 197.101 196.3 196.601 196C196.001 195.7 195.901 195.2 195.901 195C195.901 194.9 195.901 194.8 196.001 194.7C196.301 194.3 196.201 193.8 196.001 193.3C196.001 193.1 195.801 192.8 195.701 192.7C195.701 192.6 195.501 192.3 195.301 191.9C195.101 191.4 194.701 190.8 194.401 190C194.101 189.3 193.801 188.2 193.801 187.3C193.801 186.3 194.101 185.4 194.401 184.6C194.801 183.8 195.201 183.1 195.601 182.5L195.701 181.8Z" fill="black"/>
<path d="M182.3 184.699C182 185.199 181.8 185.599 181.6 186.099C181.6 186.299 181.2 186.299 181.6 186.799C181.8 186.999 181.1 186.899 181.1 187.099C181 187.599 180.7 187.999 180.6 188.499C180.5 188.999 180.6 189.499 180.4 189.899C180.4 190.399 179.9 190.699 180 191.299C180.2 191.799 179.6 191.899 179.6 192.299C179.6 192.699 179.6 193.099 179.3 193.399C179.2 193.499 179.1 193.599 179 193.799C178.9 193.999 178.8 194.299 178.8 194.499C178.8 194.799 179 195.299 178.8 195.599C178.6 195.899 178.2 195.999 178.5 196.699C178.5 196.699 178.3 196.699 178.2 196.699C177.7 196.699 177.3 196.899 177.2 197.299C177.1 197.699 176.8 197.699 176.5 197.799C176.1 197.899 175.7 197.999 175.3 197.999C175.1 197.999 174.9 197.999 174.7 197.999C174.6 197.999 174.5 197.999 174.4 197.999C174.1 197.999 173.7 197.699 173.4 197.699C173.1 197.699 172.7 197.899 172.4 197.699C172.1 197.399 171.8 197.399 171.5 197.399C171.3 197.399 171.1 197.099 171 197.799C171 197.799 171 197.799 170.9 197.799C170.4 196.999 169.9 198.099 169.4 197.799C168.9 197.599 168.3 197.699 167.7 197.699C167.5 197.699 167.4 197.499 167.2 197.899C167.2 198.099 167 198.099 166.9 197.899C166.6 197.199 166.1 197.599 165.7 197.399C165.2 197.199 164.7 197.399 164.3 196.799C164.1 196.599 163.9 196.399 163.5 196.799C163.3 196.999 163.2 196.799 163 196.799C162.8 196.799 162.6 196.999 162.5 196.999C162.4 196.999 162.3 196.699 162.2 196.599C162.2 196.599 162.2 196.599 162.1 196.599C161.2 196.999 160.8 195.999 160.1 195.899C159.4 195.899 158.7 195.399 158.1 194.999C157.8 194.799 157.5 194.399 157.8 193.299C157.9 192.799 158.2 192.299 158.5 192.099C158.7 191.899 158.9 191.799 159.1 191.799C159.3 191.799 159.6 191.799 159.8 191.799C160.2 191.799 160.8 191.499 161.1 191.799C161.1 191.899 161.4 191.799 161.3 192.199V192.299C162.1 191.799 162.4 192.399 163 192.499C163.5 192.499 164.1 192.099 164.4 192.499C164.8 191.999 165 192.099 165.3 192.399C166.1 193.199 167 192.899 167.9 193.099C168.8 193.299 169.8 193.199 170.8 193.199C171 193.199 171.1 192.799 171.3 193.199C171.5 193.499 171.7 193.199 171.9 193.199C172.1 193.199 172.3 193.099 172.5 193.199C172.9 193.499 173.3 193.599 173.7 193.499C173.9 193.499 174.1 193.499 174.3 193.499H174.6C174.6 193.499 174.6 193.499 174.7 193.499C174.9 193.499 175.4 193.499 175.3 193.199C175.3 193.199 175.2 192.999 175.1 192.899C175.1 192.899 175.1 192.899 175.1 192.799C175.1 192.699 175.1 192.499 175.2 192.399C175.3 192.199 175 191.899 175.7 191.799C175.9 191.799 175.5 191.499 175.5 191.299C175.5 190.899 175.7 190.599 175.8 190.299C175.9 189.799 176.1 189.399 176.2 188.899C176.2 188.599 176.2 188.199 176.2 187.899C176.2 187.599 176.4 187.299 176.5 186.999C176.7 186.699 177.1 186.399 177.3 185.999C177.5 185.599 177.4 185.099 177.9 184.899C178.7 184.499 178.8 183.699 179.2 183.099C179.6 182.499 180 181.899 180.3 181.199C180.5 180.799 181.1 180.799 181.3 180.399C181.4 180.199 182.8 180.899 183.1 181.199C183.1 181.199 183.2 181.299 183.3 181.399C183.5 181.999 183.9 182.599 183.7 182.899C183.3 183.399 183.1 183.899 182.8 184.399L182.3 184.699Z" fill="black"/>
<path d="M196.1 196.599C195.9 196.599 195.6 196.599 195.4 196.599C195.4 196.599 195.2 196.399 195.2 196.899C195.2 197.199 195 196.499 195 196.599C194.8 196.599 194.6 196.599 194.3 196.599C194.1 196.599 193.9 196.899 193.7 196.999C193.5 196.999 193.3 196.799 193.1 197.099C192.9 197.399 192.7 196.899 192.6 197.099C192.4 197.199 192.2 197.299 192.1 197.099C192 196.899 191.8 196.699 191.7 196.799C191.7 196.799 191.6 197.199 191.5 197.199C191.5 197.199 191.3 196.899 191.3 197.499C191.3 197.499 191.3 197.499 191.3 197.399C191.3 196.999 191.1 196.999 191 197.299C191 197.599 190.9 197.499 190.8 197.599C190.6 197.599 190.4 197.599 190.2 197.599C190.1 197.599 189.9 197.299 189.8 197.199C189.7 197.199 189.5 197.399 189.4 197.199C189.3 196.899 189.2 196.899 189 196.899C189 196.899 188.9 196.599 188.8 197.199C188.6 196.399 188.4 197.399 188.2 197.199C188 196.999 187.8 197.199 187.5 197.199C187.5 197.199 187.4 196.999 187.3 197.499C187.3 197.699 187.3 197.699 187.2 197.499C187.1 196.899 186.9 197.199 186.7 197.099C186.5 196.999 186.3 197.199 186.2 196.699C186.2 196.499 186 196.399 185.9 196.899C185.9 197.199 185.8 196.899 185.7 196.899L185.5 197.199C185.5 197.199 185.5 196.999 185.4 196.799C185 197.399 184.9 196.499 184.6 196.599C184.3 196.699 184 196.599 183.7 196.499C183.6 196.499 183.4 196.199 183.5 195.099C183.5 194.599 183.6 193.999 183.8 193.699C183.8 193.499 184 193.299 184 193.199C184 193.199 184.2 192.999 184.3 192.899C184.5 192.699 184.7 192.199 184.9 192.499C184.9 192.499 185 192.299 185 192.799C185.3 191.999 185.5 192.599 185.7 192.599C185.9 192.599 186.2 191.999 186.3 192.299C186.5 191.699 186.6 191.799 186.7 191.999C187 192.699 187.5 192.299 187.8 192.399C188.2 192.499 188.6 192.399 189 192.499C189 192.499 189.1 192.199 189.2 192.499C189.2 192.799 189.4 192.499 189.5 192.499C189.5 192.499 189.7 192.399 189.7 192.499C190 193.199 190.3 192.799 190.6 192.899C190.9 192.899 191.2 192.999 191.5 192.899C191.7 192.799 191.9 192.399 192.1 192.599C192.1 192.599 192.3 192.299 192.4 192.899C192.4 193.099 192.4 192.599 192.5 192.599C192.6 192.599 192.8 192.599 192.9 192.599C193.1 192.599 193.3 192.599 193.4 192.599C193.5 192.599 193.6 192.299 193.7 192.199C193.8 192.199 193.9 192.199 194 192.199C194.1 192.199 194.3 192.499 194.5 192.499C194.7 192.499 194.8 192.299 195 192.499C195.3 192.999 195.6 192.699 195.8 192.699C195.9 192.699 196.1 192.699 196.2 192.699V193.199C196.4 193.699 196.5 193.899 196.5 193.999H196.6V193.799C196.6 193.599 196.6 193.399 196.6 193.299C196.6 193.299 196.6 193.099 196.8 193.099C197.1 193.099 197.4 193.099 197.7 193.099C198 193.199 198.2 193.399 198.4 193.599C198.6 193.799 198.7 194.099 198.7 194.499C198.7 194.899 198.4 195.399 198.2 195.499C197.5 196.099 197 196.099 196.8 196.099H196.4L196.1 196.599Z" fill="black"/>
<path d="M79.0004 181.198C79.4004 180.098 80.0004 179.098 80.6004 177.998C81.2004 176.998 82.0004 175.998 82.8004 175.198C83.4004 174.598 84.2004 174.198 84.4004 173.198C84.5004 172.698 85.5004 172.698 85.9004 172.198C87.1004 170.898 88.2004 169.498 88.4004 167.998C88.6004 166.598 88.0004 165.398 87.1004 163.998C86.2004 162.598 85.2004 160.798 83.9004 158.998C83.4004 158.198 83.0004 157.298 82.9004 156.298C82.8004 155.398 82.8004 154.498 82.7004 153.498C82.6004 151.498 83.0004 149.398 84.2004 147.798C85.1004 146.598 86.1004 145.698 86.9004 144.798C87.4004 144.198 87.8004 143.498 88.5004 142.998C89.1004 142.498 90.0004 142.298 90.1004 141.398C90.1004 141.398 90.4004 141.198 90.6004 141.198C91.5004 141.098 92.2004 140.498 92.4004 139.898C92.6004 139.298 93.0004 138.998 93.4004 138.598C94.4004 137.498 95.2004 136.398 96.0004 135.198C96.6004 134.298 97.3004 133.398 97.8004 132.398C98.3004 131.398 98.4004 130.098 98.9004 129.198C99.4004 128.198 99.5004 127.198 99.6004 125.998C99.6004 125.398 100 124.598 99.4004 123.998C99.4004 123.998 99.4004 123.698 99.4004 123.598C99.9004 122.598 100 121.598 100.2 120.498C100.4 119.398 100.6 118.298 101.2 117.398C102.4 115.498 103.6 113.698 105.1 112.098C105.5 111.698 106 111.398 106.1 110.698C106.1 110.498 106.6 109.998 106.9 109.898C108.5 109.298 109.7 108.098 111.1 107.298L113.6 105.998C114.5 105.698 115.3 105.298 116.3 105.198C117.1 105.198 118.1 104.898 118.9 104.098C119.3 103.698 120.2 103.698 120.9 103.598C121.4 103.498 121.9 103.098 122.5 102.998C123 102.998 123.5 103.098 124 103.198C124.1 103.198 124.3 103.198 124.5 103.198C125.2 102.898 125.8 102.898 126.5 102.898C127.2 102.898 127.9 102.898 128.5 102.998C129.2 102.998 129.9 103.198 130.5 103.398C131.2 103.598 131.8 103.598 132.5 103.798C133.2 103.898 133.9 103.998 134.5 104.198C135.2 104.398 135.8 104.598 136.5 104.798C137.1 105.098 137.8 105.398 138.4 105.598C139 105.898 139.8 106.298 140.4 106.798C141.1 107.298 141.8 108.098 142.2 108.998C142.6 109.898 142.5 111.098 141.9 111.698C141.3 112.298 140.8 111.998 140.5 111.498C140.2 111.198 139.9 110.898 139.7 110.698C139.3 110.298 138.7 109.898 138.1 109.598C137.8 109.398 137.5 109.298 137.1 109.298L136 108.998C135.6 108.998 135.3 108.798 134.9 108.698C134.5 108.598 134.2 108.498 133.8 108.298C133.6 108.198 133.3 108.198 133.1 108.098C132.9 108.098 132.6 107.898 132.5 107.598C132.5 107.598 132.3 107.398 132.2 107.398C130 107.698 127.9 106.998 125.8 107.098C124.9 107.098 124 107.398 123.1 107.598C122.2 107.898 121.4 108.098 120.5 108.198C120.1 108.598 119.6 108.898 119.1 108.998C118.6 109.198 118.1 109.298 117.6 109.398C115.9 109.698 114.2 110.398 112.7 111.398C111.2 112.298 109.9 113.498 108.6 114.698C107.3 115.898 106.2 117.298 105.3 118.798C104.9 119.498 104.5 120.298 104.3 121.098C104 121.898 103.9 122.698 103.7 123.498C103.7 124.098 103.9 124.698 103.6 125.398C103.3 126.098 103.4 127.098 103.3 127.998C103.2 128.798 103.2 129.798 102.8 130.498C102.1 132.098 101.5 133.598 100.8 135.098C100.1 136.598 99.3004 138.098 98.2004 139.398C97.2004 140.698 96.0004 141.898 94.7004 142.998C93.4004 144.098 92.2004 144.998 91.1004 145.898C89.7004 147.098 88.8004 148.398 88.0004 149.498C87.6004 149.998 87.7004 150.698 87.0004 151.098C86.8004 151.198 87.0004 151.898 87.0004 152.298C87.0004 153.298 87.0004 154.298 87.2004 155.198C87.5004 156.498 88.3004 157.798 89.3004 159.198C89.9004 160.098 90.8004 160.898 91.4004 161.998C92.1004 163.198 92.6004 164.698 92.6004 166.298C92.6004 168.398 91.7004 170.198 90.8004 171.598C89.8004 173.098 88.8004 174.598 87.6004 175.398C86.4004 176.198 85.5004 176.998 84.7004 177.898C83.9004 178.798 83.3004 179.798 82.8004 180.798C81.7004 182.898 81.0004 185.298 80.8004 187.798C80.8004 188.498 80.5004 189.198 80.3004 189.798C80.3004 190.098 80.1004 190.298 80.1004 190.398V190.498C80.2004 190.498 79.9004 190.498 80.0004 190.498C80.2004 190.498 80.1004 190.498 80.1004 190.498C80.1004 190.498 79.9004 190.798 80.0004 191.298C80.0004 191.698 80.6004 192.098 80.5004 192.398C80.5004 192.498 80.3004 192.698 80.1004 192.698C79.4004 192.798 78.8004 192.698 78.3004 192.298C78.0004 192.098 77.8004 191.898 77.6004 191.598C77.4004 191.298 77.3004 191.098 77.2004 190.798C77.0004 190.198 76.9004 189.698 76.9004 189.298C76.9004 188.798 76.9004 188.498 76.9004 188.098C77.4004 185.698 77.8004 183.098 78.8004 180.698L79.0004 181.198Z" fill="black"/>
<path d="M101.3 193.1C100.9 193.1 100.5 193.1 100.1 193.1C100 193.1 99.8004 192.9 99.6004 193.4C99.6004 193.7 99.4004 193 99.2004 193.1C98.8004 193.1 98.4004 193.1 98.1004 193.1C97.7004 193.1 97.4004 193.4 97.0004 193.5C96.6004 193.5 96.3004 193.3 95.9004 193.6C95.6004 193.9 95.3004 193.4 95.0004 193.6C94.7004 193.7 94.4004 193.8 94.1004 193.6C93.9004 193.4 93.7004 193.2 93.4004 193.3C93.3004 193.3 93.1004 193.7 93.0004 193.7C92.9004 193.7 92.7004 193.4 92.6004 194C92.6004 194 92.6004 194 92.5004 193.9C92.3004 193.5 92.2004 193.5 92.0004 193.9C91.9004 194.2 91.8004 194.1 91.7004 194.2C91.4004 194.2 91.1004 194.2 90.8004 194.2C90.6004 194.2 90.3004 193.9 90.1004 193.9C89.9004 193.9 89.6004 194.1 89.4004 193.9C89.2004 193.6 89.0004 193.6 88.7004 193.6C88.6004 193.6 88.4004 193.3 88.3004 194C87.9004 193.2 87.6004 194.3 87.2004 194C86.8004 193.8 86.4004 194 86.1004 194C86.1004 194 85.9004 193.8 85.8004 194.3C85.8004 194.5 85.7004 194.5 85.6004 194.3C85.3004 193.7 85.0004 194.1 84.7004 194C84.4004 193.9 84.1004 194.2 83.7004 193.7C83.6004 193.5 83.4004 193.4 83.2004 194C83.2004 194.3 83.0004 194 82.8004 194C82.8004 194 82.6004 194.3 82.5004 194.3C82.5004 194.3 82.3004 194.1 82.2004 194C81.7004 194.7 81.2004 193.8 80.8004 194C80.3004 194.2 79.8004 194.1 79.4004 194C79.1004 194 78.9004 193.8 78.6004 192.6C78.5004 192.1 78.5004 191.5 78.6004 191.2C78.6004 191 78.8004 190.7 78.9004 190.7C79.0004 190.7 79.2004 190.5 79.3004 190.4C79.6004 190.2 79.9004 189.7 80.2004 189.9C80.3004 189.9 80.4004 189.7 80.5004 190.2C80.9004 189.4 81.4004 189.9 81.8004 189.8C82.2004 189.8 82.5004 189.1 82.9004 189.4C83.1004 188.8 83.3004 188.9 83.5004 189.1C84.3004 189.8 85.0004 189.3 85.7004 189.4C86.4004 189.4 87.2004 189.4 87.9004 189.4C88.0004 189.4 88.1004 189 88.3004 189.4C88.4004 189.7 88.6004 189.4 88.8004 189.4C88.9004 189.4 89.1004 189.3 89.2004 189.4C89.8004 190 90.4004 189.6 91.0004 189.7C91.6004 189.7 92.2004 189.8 92.7004 189.7C93.0004 189.6 93.4004 189.2 93.8004 189.4C94.0004 189.4 94.1004 189.1 94.3004 189.7C94.3004 189.9 94.5004 189.4 94.6004 189.4C94.8004 189.4 95.1004 189.4 95.3004 189.4C95.6004 189.4 96.0004 189.4 96.3004 189.4C96.5004 189.4 96.7004 189.1 96.9004 189C97.1004 189 97.3004 189 97.5004 189C97.8004 189 98.0004 189.3 98.3004 189.3C98.6004 189.3 98.9004 189.1 99.1004 189.3C99.6004 189.8 100.1 189.5 100.6 189.6C101.1 189.6 101.6 189.6 102.1 189.6C102.4 189.6 102.6 190 102.9 190C103 190 103.2 191.5 103.2 192V192.2C102.9 192.7 102.7 193.4 102.4 193.4C101.9 193.4 101.5 193.4 101 193.4L101.3 193.1Z" fill="black"/>
<path d="M105.6 181.7C105.6 181.9 105.4 182 105.4 182.2C105.4 182.2 105.1 182.2 105.6 182.5C105.8 182.6 105.2 182.5 105.2 182.5C105.2 182.7 105.1 182.8 105.1 183C105.1 183.2 105.3 183.4 105.3 183.6C105.3 183.8 105 183.8 105.3 184.1C105.5 184.3 105 184.3 105.1 184.4C105.1 184.6 105.2 184.7 105 184.8C104.8 184.8 104.6 184.8 104.7 185C104.7 185 105.1 185.2 105 185.2C105 185.2 104.7 185.2 105.3 185.4C105.3 185.4 105.3 185.4 105.1 185.4C104.7 185.4 104.7 185.4 105 185.6C105.3 185.6 105.2 185.7 105.2 185.8C105.2 185.9 105.2 186.1 105.2 186.2C105.2 186.2 104.9 186.3 104.8 186.4C104.8 186.4 105 186.6 104.7 186.7C104.4 186.7 104.4 186.9 104.4 186.9C104.4 186.9 104.1 186.9 104.7 187.1C103.9 187.1 104.9 187.4 104.7 187.6C104.5 187.7 104.7 187.9 104.7 188.1C104.7 188.1 104.5 188.1 105 188.2C105.2 188.2 105.2 188.2 105 188.2C104.4 188.3 104.7 188.4 104.6 188.6C104.5 188.7 104.8 188.9 104.3 189C104.1 189 104 189.2 104.6 189.2C104.9 189.2 104.6 189.2 104.6 189.3C104.6 189.3 104.9 189.3 104.9 189.4C104.9 189.4 104.7 189.4 104.6 189.5C105.3 189.7 104.4 189.9 104.6 190.1C104.8 190.3 104.7 190.5 104.6 190.7C104.6 190.8 104.4 191 103.3 191.2C102.8 191.3 102.2 191.4 101.9 191.4C101.7 191.4 101.4 191.4 101.4 191.4C101.3 191.4 101.2 191.3 101 191.2C100.8 191.1 100.2 191 100.5 190.8C100.5 190.8 100.3 190.8 100.8 190.6C99.9998 190.5 100.5 190.2 100.4 190C100.4 189.8 99.6998 189.7 99.9998 189.4C99.3998 189.4 99.4998 189.2 99.6998 189.1C100.4 188.7 99.8998 188.3 99.9998 187.9C100.1 187.5 99.9998 187.1 100.1 186.7C100.1 186.7 99.7998 186.5 100.1 186.5C100.4 186.5 100.1 186.3 100.1 186.3C100.1 186.3 99.9998 186.1 100.1 186.1C100.8 185.9 100.4 185.5 100.6 185.2C100.7 184.9 100.8 184.6 100.7 184.3C100.7 184.1 100.3 183.8 100.5 183.7C100.5 183.7 100.3 183.5 100.9 183.5C101.1 183.5 100.6 183.3 100.6 183.3C100.6 183.2 100.6 183 100.6 182.9C100.6 182.7 100.7 182.6 100.7 182.4C100.7 182.3 100.5 182.1 100.5 182C100.5 181.9 100.5 181.8 100.6 181.7C100.7 181.6 101 181.5 101.1 181.4C101.2 181.3 101.1 181 101.3 181C101.9 181 101.7 180.6 101.9 180.4C102.1 180.2 102.2 180 102.2 179.7C102.2 179.5 102.7 179.7 102.8 179.5C102.8 179.5 104.2 180 104.6 180.3L104.8 180.4C105.2 180.7 105.8 181.1 105.7 181.2C105.5 181.3 105.5 181.5 105.4 181.7H105.6Z" fill="black"/>
<path d="M118.6 189.998C118.6 189.998 118.5 190.198 118.4 190.398C118.4 190.698 118.4 190.598 118.4 190.698C118.4 190.698 118.4 190.498 118.4 190.998C118.4 191.298 118.4 190.598 118.3 190.698C118.2 190.698 118 190.698 117.8 190.698C117.6 190.698 117.4 190.998 117.3 191.098C117.1 191.098 116.9 190.898 116.7 191.198C116.6 191.498 116.4 190.998 116.2 191.198C116.1 191.298 115.9 191.398 115.7 191.198C115.6 190.998 115.4 190.798 115.3 190.998C115.3 190.998 115.3 191.398 115.1 191.398C115.1 191.398 114.9 191.098 114.9 191.798C114.9 191.798 114.9 191.798 114.9 191.698C114.8 191.298 114.7 191.298 114.7 191.698C114.7 191.998 114.7 191.898 114.6 191.998C114.4 191.998 114.3 191.998 114.1 191.998C114 191.998 113.8 191.698 113.7 191.698C113.6 191.698 113.5 191.898 113.3 191.698C113.2 191.398 113 191.398 112.9 191.498C112.9 191.498 112.7 191.198 112.8 191.898C112.5 191.098 112.5 192.198 112.3 191.998C112.1 191.798 111.9 191.998 111.8 191.998C111.8 191.998 111.7 191.798 111.8 192.298C111.8 192.498 111.8 192.498 111.8 192.298C111.5 191.698 111.5 192.098 111.4 191.998C111.2 191.998 111.2 192.198 110.9 191.798C110.8 191.598 110.7 191.498 110.8 192.098C110.8 192.398 110.8 192.098 110.7 192.198V192.498C110.7 192.498 110.6 192.298 110.5 192.198C110.6 192.898 110.1 192.198 110 192.398C110 192.598 109.8 192.598 109.6 192.698C109.6 192.698 109.3 192.698 108.5 191.798C108.1 191.398 107.7 190.998 107.6 190.798C107.5 190.598 107.4 190.398 107.4 190.298C107.4 190.198 107.4 189.998 107.4 189.898C107.4 189.598 107.4 189.098 107.7 189.198C107.8 189.198 107.7 188.898 108 189.298C107.9 188.498 108.4 188.798 108.6 188.598C108.8 188.498 108.8 187.798 109.1 187.898C109.1 187.298 109.2 187.298 109.4 187.398C110.1 187.898 110.4 187.398 110.8 187.398C111.3 187.398 111.7 187.198 112.1 187.198C112.1 187.198 112.1 186.798 112.3 187.098C112.4 187.298 112.5 187.098 112.6 187.098C112.6 187.098 112.8 186.898 112.8 187.098C113.2 187.698 113.5 187.298 113.8 187.298C114.1 187.298 114.4 187.298 114.7 187.198C114.9 187.098 115 186.698 115.2 186.798C115.2 186.798 115.3 186.498 115.5 187.098C115.5 187.298 115.5 186.798 115.6 186.798C115.7 186.798 115.9 186.798 116 186.798C116.2 186.798 116.4 186.798 116.5 186.798C116.6 186.798 116.7 186.498 116.8 186.398C116.9 186.398 117 186.398 117.1 186.398C117.3 186.398 117.4 186.698 117.6 186.698C117.8 186.698 118 186.498 118.2 186.698C118.6 187.198 119.1 186.998 119.6 187.198C119.9 187.298 120.2 187.598 120.5 187.798L117.7 188.398C117.7 188.298 117.7 188.198 117.7 187.998C117.7 187.798 118.2 187.998 118.3 187.798C118.3 187.798 119.7 188.298 120.2 188.498C120.2 188.498 120.4 188.498 120.4 188.598C120.8 188.898 121.4 189.298 121.3 189.498C121.2 189.598 121.1 189.798 121.1 189.898H118.7C118.7 189.898 118.7 189.898 118.7 189.998H118.6Z" fill="black"/>
</svg>
