<svg width="600" height="600" viewBox="0 0 600 600" fill="none" xmlns="http://www.w3.org/2000/svg">
<path d="M340 266.701C363.9 261.401 387.6 255.501 411.2 249.101C413.4 248.501 415.6 247.901 417.6 246.701C419.6 245.501 421.2 243.801 422.8 242.101C425.7 239.001 428.5 236.001 431.4 232.901C433.2 231.001 435.1 229.001 435.9 226.401C436.9 223.301 435 220.001 435.3 216.701C436.6 202.101 433.8 188.001 431.5 173.701C430.9 170.101 429.8 166.501 427.4 163.701C416.9 151.701 395.7 160.901 383 162.801C372.8 164.301 362.5 165.801 352.3 167.301C331.9 170.401 311.5 174.001 291.6 179.501C289.8 180.001 288 180.501 286.2 181.001C280.8 182.601 275.4 184.401 270.8 187.701C268.9 189.101 267.2 190.701 266.3 192.901C265.7 194.401 265.6 196.001 265.6 197.701C265.2 210.401 267.2 223.101 269.9 235.501C271 240.601 272.4 245.901 273.6 251.101C274.4 254.501 274.6 260.601 278.5 262.001C280.2 262.601 281.5 251.601 282.7 250.301C283.9 249.001 284.5 247.201 285.2 245.501C291.5 228.101 299.4 211.301 308.5 195.301C312.4 188.501 316.9 181.501 324 178.301C327.6 176.701 331.5 176.201 335.4 175.801C343.3 174.901 351.3 174.301 359.2 173.901C360.2 173.901 361.3 173.901 361.9 174.601C362.4 175.201 362.4 176.101 362.3 176.801C362.1 181.101 362.3 185.401 363 189.601C363.1 190.301 363.3 191.101 363.8 191.601C364.7 192.501 366.2 192.101 367.4 191.701C371.8 190.201 376.1 188.701 380.5 187.201C382.5 186.501 384.7 185.801 386.8 186.001C391 186.401 394.4 190.701 393.8 194.801C398.6 196.901 401.2 203.001 399.4 208.001C399.2 208.501 399 209.201 399.3 209.701C399.6 210.201 400.6 209.901 400.4 209.401C399.4 210.301 398.3 211.201 397.3 212.101C398.9 215.101 400.1 218.301 400.8 221.601C401.1 223.201 401.3 225.001 400.5 226.401C399.8 227.501 398.6 228.101 397.4 228.601C383.4 235.101 368.4 239.401 353 241.501C352 241.601 350.8 241.901 350.2 242.801C349.9 243.301 349.9 243.801 349.9 244.401C349.5 251.601 344.4 258.701 341.3 265.101" fill="#FE5102"/>
<path d="M389 230.402C391.1 229.602 393.2 228.702 395.2 227.802C396.2 227.302 397.3 226.902 398.1 226.402C398.9 225.902 399.2 225.502 399.3 224.902C399.6 223.502 398.9 221.102 398.3 219.102C398 218.102 397.6 217.002 397.2 216.102L396.9 215.402L396.7 215.002L396.5 214.502C396.1 213.602 395.6 212.802 395.1 211.902C396.5 210.702 397.9 209.502 399.3 208.202L401.2 206.602L402.1 208.802C402.1 209.002 402.2 209.202 402.3 209.402C402.3 209.602 402.3 209.902 402.3 210.102C402.3 210.602 401.9 211.002 401.7 211.202C401.2 211.702 400.7 211.802 400.3 211.902C399.9 211.902 399.4 211.902 398.9 211.702C398.6 211.602 398.4 211.402 398.1 211.202C398 211.102 397.9 210.902 397.8 210.802C397.8 210.702 397.7 210.602 397.6 210.502C397.2 209.702 397.3 209.002 397.4 208.502C397.4 208.002 397.6 207.702 397.7 207.502C398.2 205.902 398.3 204.002 397.7 202.202C397.1 200.402 396 198.802 394.4 197.902C394.3 197.902 394.2 197.802 394.1 197.702H393.9C393.8 197.502 393.7 197.502 393.6 197.402C393 197.102 392.3 196.702 391.5 196.302C391.6 195.302 391.8 194.002 391.7 193.502C391.7 193.002 391.6 192.502 391.5 192.002C391.2 191.002 390.5 189.902 389.6 189.302C387.9 187.902 385.9 187.702 383.5 188.402C382.3 188.702 381 189.202 379.8 189.602L375.9 190.902L368.2 193.602C367.9 193.702 367.5 193.802 367.1 193.902C366.7 194.002 366.4 194.102 365.7 194.202C364.6 194.302 363.4 194.002 362.5 193.302C362.1 192.902 361.8 192.502 361.5 191.902C361.4 191.602 361.3 191.402 361.2 191.102V190.702L361.1 190.402C361 189.702 360.9 189.002 360.8 188.302C360.5 185.602 360.3 182.902 360.2 180.202C360.2 179.502 360.2 178.802 360.2 178.202V177.202V176.802C360.2 176.502 360.2 176.402 360 176.302C360 176.302 359.9 176.302 359.8 176.302C359.8 176.302 359.8 176.302 359.7 176.302H359.5C354.4 176.602 349.1 177.102 343.9 177.602C341.3 177.902 338.7 178.102 336.1 178.402C333.5 178.702 330.9 178.902 328.5 179.502C326.1 180.102 323.9 180.902 322 182.302C320 183.602 318.3 185.302 316.9 187.102C314.3 190.302 312.2 193.702 310.1 197.202C308 200.702 306 204.202 304.1 207.902C300.1 215.802 296.3 224.002 292.8 231.902C291.5 234.802 290.2 237.602 289.1 240.502C288.5 241.902 287.9 243.402 287.4 244.902C286.8 246.402 286.4 247.802 285.6 249.502C285.2 250.302 284.7 251.302 284.1 252.002C284.1 252.002 284.1 252.102 283.9 252.402C283.9 252.702 283.7 253.002 283.7 253.402C283.5 254.102 283.4 254.802 283.3 255.602C283.1 256.402 283 257.102 282.8 257.902C282.8 258.302 282.6 258.702 282.5 259.102L282.3 259.702C282.3 260.002 282.1 260.402 282 260.802C281.6 262.002 281.1 263.202 280.4 263.902C280 264.202 279.7 264.502 279.1 264.602C278.8 264.602 278.6 264.602 278.3 264.602C278 264.602 277.8 264.602 277.5 264.502C276.6 264.102 275.6 263.502 274.9 262.602C274.5 262.202 274.2 261.702 273.9 261.202C273.6 260.602 273.4 260.302 273.3 260.002C272.7 258.602 272.3 257.302 271.8 256.202C271.7 255.902 271.5 254.102 271.4 253.202C271.4 252.202 271.1 251.102 270.9 250.002C270.7 248.902 270.4 247.702 270.2 246.602C269.7 244.402 269.1 242.202 268.6 240.502C267.5 237.202 266.9 234.102 266.2 230.902C264.4 222.102 263.1 213.002 263 203.902C263 202.202 263 200.502 263 198.802C263 197.102 263.1 195.202 263.8 193.202C264.5 191.102 265.9 189.502 267.3 188.202C268.7 186.902 270.2 186.002 271.8 185.002C275 183.102 278.5 181.702 282 180.602C285.4 179.502 288.8 178.602 291.9 177.802C298.2 176.402 304.3 174.902 310.5 173.502C314 172.702 318.2 172.202 321 171.002C321.3 170.902 322.6 170.602 323.2 170.602C333.4 169.402 343.3 166.802 353.6 165.402C358.9 164.702 364.3 163.902 369.7 163.102C372.4 162.702 375.1 162.302 377.8 161.902L381.8 161.302C383.2 161.102 384.4 160.902 385.7 160.602C388.5 160.002 391.5 159.402 394 158.402C394.9 158.002 397.9 157.302 399.4 157.102C403.5 156.602 407.7 155.902 412.1 156.002C414.3 156.002 416.5 156.202 418.8 156.702C421 157.202 423.2 158.102 425.2 159.402C426.3 160.102 427.3 161.002 428.2 161.902C429.1 162.802 430 163.902 430.7 165.102C432.1 167.402 432.8 169.902 433.3 172.402C433.5 173.702 433.7 174.802 433.9 176.002L434.4 179.502C434.7 181.802 435.1 184.202 435.3 186.602C435.7 190.602 436.3 196.102 437.3 200.902C437.7 203.102 437.7 207.802 437.7 211.302C437.7 212.802 437.7 214.202 437.7 215.602V217.602C437.7 218.102 437.7 218.602 437.7 219.202C437.8 220.202 438.1 221.402 438.2 222.702C438.3 224.002 438.3 225.602 437.8 227.202C437.5 228.102 437.1 229.002 436.7 229.802C435.8 231.602 434.5 233.102 433.4 234.402C432.2 235.702 431.1 236.902 429.9 238.202L426.4 241.902C425.2 243.102 424.1 244.402 422.8 245.602C421.5 246.902 420 248.102 418.2 249.102C416.4 250.102 414.6 250.602 412.9 251.102C409.5 252.002 406.2 252.902 402.9 253.802C389.5 257.502 375.8 260.902 362.2 264.102C354.7 265.802 346.9 267.402 341.6 267.502C339.2 267.502 339.1 267.002 342.2 266.002C344.5 265.302 347.1 264.402 349.8 263.802C354.1 262.702 358.3 261.602 362.4 260.502C371 258.302 379.4 255.702 388.4 253.602C391.2 253.002 394.4 251.802 396.8 251.702C397.1 251.702 398.3 251.402 398.8 251.202C401.7 250.202 404.7 249.302 407.7 248.502C410.7 247.602 413.8 246.902 416.2 245.702C418.6 244.402 420.6 242.102 422.8 239.802C425 237.502 427.1 235.202 429.3 233.002C431.1 231.002 432.9 229.202 433.7 227.202C434.1 226.102 434.3 225.402 434.1 224.302C434 223.202 433.7 222.002 433.4 220.602C433.3 219.902 433.1 219.202 433.1 218.402C433.1 218.002 433.1 217.602 433.1 217.202V216.202C433.2 214.902 433.3 213.602 433.3 212.402C433.3 209.802 433.3 207.202 433.3 204.602C432.4 198.902 431.7 192.102 430.9 186.202C430.6 183.602 430.2 181.002 429.8 178.402L429.2 174.502C429 173.302 428.8 172.102 428.4 170.902C427.7 168.602 426.7 166.502 425.1 164.902C424.7 164.502 424.3 164.102 423.8 163.702C423.3 163.402 422.9 163.002 422.4 162.702C421.4 162.102 420.4 161.602 419.3 161.202C414.8 159.702 409.7 160.002 404.6 160.702C399.5 161.502 394.5 162.802 389.3 164.002C388 164.302 386.7 164.602 385.3 164.802C384.6 164.902 383.9 165.002 383.3 165.202L381.3 165.502L373.4 166.702L357.6 169.002C347 170.602 336.5 172.302 326.1 174.202C322.5 174.902 319.5 175.802 315.3 176.402C311.4 177.002 306.4 178.302 301.9 179.402C297.8 180.402 293.5 181.702 289.6 182.602C285.6 183.602 281.6 184.602 277.8 186.202C275.9 187.002 274.2 187.902 272.5 189.002C270.8 190.102 269.3 191.302 268.4 192.802C267.9 193.502 267.6 194.302 267.4 195.102C267.2 196.002 267.1 196.902 267.1 197.902C267.1 200.002 267.1 202.002 267.1 204.102C267.2 208.202 267.6 212.402 268 216.502C268.9 224.302 270.4 231.902 272.3 239.602C273.2 243.402 274.1 247.302 275 251.102C275.5 253.202 275.7 255.102 276.2 256.802C276.3 257.202 276.5 257.602 276.6 258.102L276.8 258.702L277 259.102C277.2 259.402 277.4 259.602 277.6 259.802C277.7 259.802 277.9 260.002 278 259.802C278 259.702 278.2 259.602 278.2 259.402C278.2 259.302 278.2 259.102 278.3 259.002L278.5 258.202C278.7 257.302 278.9 256.502 279.1 255.602C279.3 254.702 279.5 253.802 279.7 252.902C279.8 252.402 279.9 252.002 280.1 251.502C280.1 251.202 280.3 251.002 280.4 250.702C280.6 250.302 280.8 250.002 281 249.702C281.8 248.702 282.3 247.502 282.8 246.002C283.3 244.502 283.9 242.902 284.5 241.402C285.6 238.302 286.8 235.302 288.1 232.302C289.8 228.302 291.4 223.902 293.7 220.202C294.4 219.202 295.7 215.302 297 212.702C300.1 206.402 303.4 200.202 306.9 194.102C309.4 189.902 312.1 185.602 315.9 182.002C317.8 180.202 320 178.602 322.4 177.502C324.8 176.302 327.4 175.702 329.9 175.202C333 174.702 335.9 174.402 338.8 174.002C341.7 173.602 344.7 173.302 347.6 173.002C350.7 172.702 353.8 172.502 356.9 172.302H358.1C358.5 172.302 358.8 172.202 359.4 172.202C359.6 172.202 360.1 172.202 360.4 172.202C360.8 172.202 361.2 172.302 361.5 172.402C362.2 172.602 362.9 173.002 363.4 173.502C363.9 174.002 364.3 174.702 364.4 175.402C364.4 175.802 364.5 176.102 364.6 176.502C364.6 176.902 364.6 177.302 364.6 177.502C364.6 178.302 364.6 179.002 364.6 179.702C364.6 181.602 364.6 183.502 364.7 185.402C364.7 186.302 364.8 187.302 364.9 188.202L365.1 189.602V190.402C365.2 190.502 365.3 190.602 365.5 190.602C365.5 190.602 365.9 190.602 366.2 190.502C366.5 190.402 367.1 190.202 367.5 190.102C369.4 189.502 371.2 188.902 373.1 188.202C375 187.502 377 186.902 378.9 186.202C380.8 185.502 382.9 184.702 385.4 184.502C386.6 184.502 388.1 184.602 389.3 185.102C390.5 185.602 391.6 186.302 392.6 187.102C394.4 188.802 395.6 191.202 395.8 193.702C395.8 193.902 395.8 194.002 395.8 194.202C395.8 194.202 395.8 194.302 395.8 194.402C395.8 194.402 395.9 194.402 396 194.502L396.4 194.802C396.6 194.902 396.8 195.102 397 195.202C397.7 195.802 398.4 196.502 399 197.202C400.1 198.702 400.9 200.302 401.4 202.102C401.9 203.902 401.9 205.802 401.6 207.602C401.6 208.102 401.4 208.502 401.2 209.002C401.1 209.502 400.9 209.802 400.9 209.802H400.7C400.7 209.802 400.5 209.802 400.4 209.802C400.2 209.802 400.2 209.802 400.1 209.802C400.1 209.802 399.4 210.302 399.7 210.002C399.7 210.002 399.7 210.002 399.7 209.802C399.7 209.502 399.7 209.602 399.7 209.802C399.7 209.902 399.9 210.002 399.9 210.102C399.9 210.102 399.9 210.102 399.8 210.102L401.4 211.202L399.8 212.602C399.6 212.802 399.4 212.902 399.3 213.102L399.5 213.402L399.8 214.002C400.1 214.702 400.5 215.502 400.8 216.202C401.4 217.702 401.9 219.302 402.3 220.902C402.6 222.402 403.1 224.202 402.6 226.402C402.3 227.502 401.6 228.502 400.8 229.202C400 229.902 399.2 230.302 398.4 230.602C385.2 236.702 371.2 240.902 356.9 243.302C355.9 243.502 354.9 243.602 353.9 243.702C353.4 243.702 352.9 243.802 352.6 243.902H352.4C352.4 243.902 352.3 243.902 352.2 244.002C352.1 244.002 352 244.202 351.9 244.402C351.9 244.502 351.9 244.602 351.9 244.602V244.802C351.9 245.002 351.9 245.302 351.9 245.602C351.9 246.102 351.8 246.702 351.7 247.202C351.7 247.702 351.5 248.202 351.3 248.702C350.2 252.702 348.2 256.202 346.3 259.702C345.4 261.302 344.1 263.102 343 264.202C341.9 265.402 341.2 266.002 341.3 265.202C341.3 264.902 341.5 264.302 341.8 263.702C343.4 260.102 345.1 256.802 346.5 253.202C347.2 251.402 347.8 249.602 348.1 247.802C348.3 246.902 348.4 245.902 348.5 245.002C348.5 244.702 348.5 243.502 348.9 242.702C349.3 241.902 350 241.202 350.9 240.802C351.1 240.802 351.2 240.702 351.4 240.602H351.7L351.9 240.502C352.2 240.502 352.4 240.402 352.7 240.302L354 240.102L356.4 239.802C358 239.602 359.6 239.302 361.2 239.002C364.4 238.402 367.6 237.702 370.8 236.902C377.1 235.302 383.3 233.202 389.4 230.902L389 230.402Z" fill="#FE5102"/>
<path d="M311.3 196.899C310 199.399 308.8 201.999 307.6 204.499C307.2 205.499 306.5 206.299 306.5 207.499C306.5 208.099 305.5 208.799 305.1 209.599C304 211.999 302.8 214.399 301.8 216.799C300.8 219.099 299.9 221.599 298.9 223.899C297.9 226.199 296.5 228.499 295.8 230.799C295.2 232.799 293.9 234.399 293.2 236.299C292.4 238.299 291.5 240.399 290.4 242.199C289.6 243.499 288.8 244.799 288.2 246.199C287.9 247.099 287.8 247.999 287.3 248.999C286.9 249.899 286.2 250.699 286.4 251.799C286.4 251.799 286.1 252.199 286 252.399C285.2 253.199 284.7 254.299 284.5 255.199C284.4 256.099 284 256.699 283.7 257.499C282.8 259.499 281.9 261.399 280.9 263.399C280.2 264.799 279.2 266.199 278.5 267.599C277.7 269.099 277.2 270.899 276.2 272.099C275.2 273.399 274.6 274.699 273.9 276.099C273.5 276.899 272.8 277.699 273 278.599C273 278.599 272.9 278.999 272.8 279.099C271 280.999 270.8 283.599 269.5 285.799C268.1 287.999 267 290.499 265.8 292.799C265.5 293.399 265 293.999 265.1 294.799C265.1 295.099 264.8 295.699 264.5 295.999C263 297.399 262.4 299.399 261.4 301.199C260.2 303.199 259.4 305.299 257.8 307.099C257.1 307.899 256.4 308.999 256.3 310.299C256.3 310.899 255.5 311.699 255.1 312.499C254.8 313.099 254.7 313.799 254.4 314.399C254.1 314.899 253.6 315.299 253.2 315.699C253.1 315.799 253 315.999 252.9 316.199C251.7 319.399 249.2 321.799 247.5 324.699C245.7 327.599 243.7 330.499 241.4 333.099C240.2 334.599 238.7 335.899 237 336.099C236.2 336.099 235.8 335.799 236.1 334.999C236.3 334.399 236.6 333.799 237 333.199C237.6 332.399 238.2 331.399 238.7 330.599C239.9 328.799 240.7 326.799 242.2 325.199C242.7 324.699 242.9 323.799 243.6 323.699C243.7 323.699 243.9 323.499 243.9 323.299C244.4 321.899 245.2 320.599 246 319.299C246.8 317.999 247.7 316.799 248.5 315.499C249.8 313.299 250.5 310.799 252 308.699C252.2 307.199 253.1 305.799 253.9 304.599C257 300.499 259 295.799 261.4 291.299C263.9 286.799 266.1 282.099 268.5 277.499C268.9 276.699 268.9 275.899 269.6 275.099C270.3 274.299 270.6 273.099 271.1 272.099C271.6 271.199 271.9 270.099 272.5 269.299C274.9 265.999 276.3 262.099 278.1 258.499C279.9 254.899 281.7 251.199 283.3 247.499C284.3 245.199 285 242.899 286.2 240.699C286.7 239.799 286.9 238.599 287.8 237.899C288.1 237.699 288.1 236.599 288.4 235.999C289.1 234.399 289.8 232.899 290.5 231.399C291.5 229.299 292.5 227.099 293.5 224.999C294.1 223.699 294.4 222.299 295 220.999C295.6 219.599 296.2 218.199 296.9 216.899C297.8 215.199 298.8 213.599 299.6 211.899C300.5 210.099 301.1 208.199 302.2 206.599C304.2 203.599 305.4 200.399 307 197.199C308.6 194.099 310.2 190.999 311.7 187.799C312.6 185.999 313.9 184.599 314.9 182.899C315.4 182.099 317.3 181.799 317.5 182.399C317.5 182.499 317.5 182.699 317.5 182.799C316.9 184.599 316.7 186.499 315.7 188.299C314.2 191.099 312.8 193.899 311.3 196.799V196.899Z" fill="black"/>
<path d="M356.7 179.398C355.9 179.398 355.2 179.398 354.4 179.398C354.1 179.398 353.8 179.098 353.5 179.698C353.3 179.998 353.1 179.298 352.8 179.298C352.1 179.298 351.4 179.298 350.6 179.298C349.9 179.298 349.2 179.598 348.5 179.598C347.8 179.598 347.1 179.398 346.4 179.698C345.8 179.998 345.3 179.498 344.7 179.698C344.1 179.798 343.5 179.898 342.9 179.698C342.5 179.498 342.1 179.298 341.6 179.498C341.3 179.498 341.1 179.898 340.8 179.898C340.5 179.898 340.2 179.598 340 180.298C340 180.298 339.9 180.298 339.8 180.198C339.5 179.798 339.2 179.798 338.9 180.198C338.7 180.498 338.5 180.498 338.3 180.498C337.7 180.498 337.1 180.598 336.5 180.498C336.1 180.498 335.6 180.298 335.2 180.198C334.7 180.198 334.3 180.498 333.8 180.198C333.4 179.898 332.9 179.998 332.5 179.998C332.3 179.998 332 179.798 331.8 180.398H331.7C331 179.598 330.4 180.798 329.7 180.598C329 180.498 328.3 180.698 327.6 180.798C327.4 180.798 327.2 180.698 327.1 181.198C327.1 181.398 326.9 181.398 326.8 181.298C326.2 180.798 325.7 181.298 325.2 181.298C324.6 181.298 324.1 181.698 323.4 181.398C323.1 181.298 322.7 181.298 322.6 181.898C322.6 182.198 322.2 181.998 322 182.098C321.9 182.198 321.8 182.498 321.6 182.598C321.5 182.598 321.3 182.498 321.1 182.398H321C320.5 183.298 319.4 182.798 318.8 183.398C318.2 183.998 317.5 184.298 316.8 184.798C316.4 184.998 316 185.198 314.9 184.598C314.4 184.298 314 183.998 314 183.598C314 183.298 314 182.998 314 182.798C314.2 182.498 314.3 182.198 314.5 181.898C314.9 181.298 315.1 180.498 315.8 180.398C316 180.398 316.1 179.998 316.5 180.398H316.7C316.9 179.798 317.3 179.498 317.7 179.398C318.1 179.198 318.6 179.098 319 178.898C319.7 178.498 320.2 177.698 321 177.698C321.2 176.998 321.7 176.898 322.2 176.998C323.8 177.198 325.2 176.498 326.7 176.398C328.2 176.298 329.6 175.998 331.1 175.898C331.3 175.898 331.5 175.498 331.8 175.798C332.1 175.998 332.4 175.798 332.7 175.798C333 175.798 333.3 175.598 333.6 175.798C334.8 176.398 335.9 175.898 337 175.898C338.1 175.898 339.3 175.898 340.4 175.698C341.1 175.598 341.8 175.198 342.4 175.298C342.7 175.298 343 174.998 343.3 175.598C343.3 175.798 343.7 175.298 343.8 175.298C344.3 175.298 344.7 175.298 345.2 175.298C345.9 175.298 346.5 175.298 347.2 175.298C347.6 175.298 348 174.998 348.4 174.898C348.8 174.898 349.2 174.898 349.7 174.898C350.2 174.898 350.8 175.198 351.3 175.298C351.8 175.298 352.4 175.098 352.9 175.298C353.9 175.798 354.8 175.598 355.8 175.698C356.8 175.698 357.7 175.898 358.7 175.698C359.3 175.698 359.7 176.198 360.3 176.198C360.6 176.198 360.8 177.698 360.7 178.198C360.7 178.198 360.7 178.398 360.6 178.398C360.1 178.798 359.5 179.498 359 179.498C358.1 179.398 357.3 179.498 356.4 179.398H356.7Z" fill="black"/>
<path d="M361.1 189.898C361.1 189.698 361.1 189.498 361.1 189.198C361.1 189.198 361.3 188.998 360.8 188.898C360.5 188.898 361.2 188.798 361.2 188.698C361.2 188.498 361.2 188.298 361.2 188.098C361.2 187.898 360.9 187.698 360.9 187.498C360.9 187.298 361.1 187.098 360.9 186.898C360.6 186.698 361.1 186.598 360.9 186.398C360.8 186.198 360.7 186.098 360.9 185.898C361.1 185.798 361.3 185.598 361.2 185.498C361.2 185.498 360.8 185.398 360.8 185.298C360.8 185.298 361.1 185.098 360.5 185.098C360.5 185.098 360.5 185.098 360.6 185.098C361 184.998 361 184.898 360.6 184.798C360.3 184.798 360.4 184.698 360.3 184.598C360.3 184.398 360.3 184.298 360.3 184.098C360.3 183.998 360.6 183.798 360.6 183.698C360.6 183.598 360.3 183.498 360.6 183.298C360.9 183.098 360.8 182.998 360.8 182.898C360.8 182.898 361.1 182.698 360.4 182.698C361.2 182.398 360.1 182.398 360.2 182.098C360.4 181.898 360.2 181.698 360.2 181.498C360.2 181.498 360.4 181.398 359.9 181.398C359.7 181.398 359.7 181.398 359.9 181.398C360.5 181.098 360.1 180.998 360.1 180.898C360.1 180.698 359.8 180.598 360.3 180.298C360.5 180.198 360.6 179.998 360 180.098C359.7 180.098 360 179.998 359.9 179.898C359.9 179.898 359.6 179.898 359.5 179.898C359.5 179.898 359.7 179.798 359.8 179.698C359.1 179.698 359.8 179.098 359.6 178.898C359.4 178.698 359.3 178.398 359.3 178.098C359.3 177.898 359.4 177.698 360.5 177.298C361 177.098 361.5 176.898 361.8 176.898C362 176.898 362.3 176.898 362.4 176.898C362.5 176.898 362.7 176.998 362.8 177.098C363 177.198 363.6 177.198 363.4 177.498C363.4 177.498 363.6 177.498 363.2 177.798C364 177.798 363.6 178.198 363.7 178.498C363.8 178.698 364.5 178.798 364.3 179.098C364.9 179.098 364.9 179.198 364.7 179.398C364.2 179.998 364.7 180.398 364.7 180.798C364.7 181.298 364.9 181.698 364.9 182.198C364.9 182.198 365.3 182.198 365 182.398C364.8 182.498 365 182.598 365 182.698C365 182.698 365.2 182.898 365 182.998C364.4 183.498 364.8 183.798 364.8 184.098C364.8 184.498 364.8 184.798 364.9 185.198C365 185.398 365.4 185.598 365.3 185.798C365.3 185.798 365.6 185.998 365 186.098C364.8 186.098 365.3 186.198 365.3 186.298C365.3 186.498 365.3 186.598 365.3 186.798C365.3 186.998 365.3 187.198 365.3 187.398C365.3 187.498 365.6 187.698 365.6 187.798C365.6 187.898 365.6 188.098 365.6 188.198C365.6 188.398 365.3 188.498 365.2 188.698C365.2 188.898 365.4 189.098 365.2 189.198C364.7 189.498 364.9 189.798 364.8 190.098C364.8 190.398 364.7 190.698 364.8 190.998C364.8 191.198 364.3 191.298 364.3 191.498C364.3 191.498 362.8 191.498 362.3 191.498H362.1C361.7 191.298 360.9 191.098 361 190.898C361.1 190.698 361 190.398 361 190.098L361.1 189.898Z" fill="black"/>
<path d="M343.6 194.899C343.9 194.899 344.3 194.699 344.6 194.599C344.7 194.599 344.9 194.799 344.9 194.199C344.9 193.899 345.2 194.499 345.3 194.499C345.6 194.299 345.9 194.399 346.2 194.199C346.5 194.099 346.7 193.799 347 193.699C347.3 193.599 347.7 193.699 347.9 193.399C348.1 193.099 348.4 193.499 348.6 193.399C348.8 193.199 349.1 193.099 349.4 193.299C349.6 193.399 349.8 193.599 350 193.499C350.1 193.499 350.2 193.099 350.3 193.099C350.4 193.099 350.6 193.299 350.6 192.699C350.6 192.699 350.6 192.699 350.7 192.799C350.9 193.199 351 193.099 351.1 192.799C351.1 192.499 351.3 192.499 351.3 192.499C351.6 192.499 351.8 192.399 352.1 192.399C352.3 192.399 352.5 192.599 352.7 192.699C352.9 192.699 353.1 192.399 353.3 192.699C353.5 192.999 353.7 192.999 353.9 192.899C354 192.899 354.2 193.199 354.2 192.499C354.6 193.299 354.8 192.199 355.1 192.399C355.4 192.599 355.7 192.399 356.1 192.399C356.1 192.399 356.3 192.599 356.3 192.099C356.3 191.899 356.4 191.899 356.5 192.099C356.8 192.699 357 192.299 357.2 192.399C357.5 192.499 357.7 192.199 358 192.699C358.1 192.899 358.3 192.999 358.4 192.399C358.4 192.099 358.6 192.399 358.7 192.399L358.9 192.099C358.9 192.099 359 192.299 359.1 192.399C359.5 191.699 359.9 192.599 360.3 192.399C360.7 192.199 361.1 192.399 361.5 192.399C361.7 192.399 361.9 192.699 362 193.799C362 194.299 362 194.899 361.9 195.199C361.9 195.399 361.7 195.699 361.7 195.699C361.6 195.699 361.4 195.899 361.3 195.999C361 196.199 360.8 196.699 360.6 196.399C360.6 196.399 360.4 196.599 360.4 196.099C360 196.899 359.7 196.299 359.4 196.399C359.1 196.399 358.8 197.099 358.5 196.799C358.3 197.399 358.2 197.299 358 197.099C357.4 196.399 356.9 196.899 356.3 196.899C355.7 196.899 355.2 196.899 354.6 196.899C354.6 196.899 354.5 197.299 354.3 196.999C354.2 196.799 354 196.999 353.9 196.999C353.8 196.999 353.7 197.199 353.6 196.999C353.1 196.399 352.7 196.799 352.2 196.799C351.7 196.799 351.3 196.799 350.9 196.999C350.6 197.099 350.4 197.499 350.1 197.399C350 197.399 349.9 197.699 349.7 197.199C349.7 196.999 349.7 197.499 349.5 197.499C349.3 197.499 349.1 197.499 349 197.599C348.7 197.599 348.5 197.599 348.2 197.799C348.1 197.799 348 198.099 347.8 198.199C347.7 198.199 347.5 198.299 347.3 198.299C347.1 198.299 346.8 198.099 346.6 198.099C346.4 198.099 346.2 198.399 346 198.199C345.5 197.799 345.2 198.199 344.8 198.199C344.4 198.199 344 198.299 343.7 198.599C343.5 198.699 343.2 198.299 343 198.399C343 198.399 342.3 197.099 342.2 196.599V196.399C342.2 195.899 342.2 195.099 342.5 195.099C342.9 195.099 343.2 194.899 343.6 194.799V194.899Z" fill="black"/>
<path d="M388.6 186.698C388 186.898 387.5 187.098 386.9 187.398C386.7 187.498 386.4 187.398 386.4 187.898C386.4 188.198 386 187.698 385.8 187.798C385.3 188.098 384.7 188.198 384.2 188.498C383.7 188.798 383.3 189.198 382.8 189.398C382.3 189.698 381.7 189.598 381.3 190.098C381 190.498 380.4 190.098 380 190.398C379.6 190.698 379.2 190.898 378.7 190.798C378.3 190.798 377.9 190.598 377.7 190.798C377.5 190.898 377.5 191.298 377.2 191.298C377 191.298 376.7 191.198 376.7 191.798C376.7 191.798 376.6 191.798 376.5 191.798C376.2 191.498 375.9 191.598 375.8 191.898C375.8 192.198 375.5 192.198 375.4 192.298C375 192.498 374.5 192.698 374.1 192.698C373.8 192.698 373.3 192.698 373 192.698C372.6 192.698 372.4 193.098 371.9 192.998C371.5 192.798 371.2 192.998 370.9 192.998C370.7 192.998 370.4 192.798 370.5 193.498C370.5 193.498 370.5 193.498 370.4 193.498C369.6 192.898 369.5 194.098 368.9 193.998C368.3 193.998 367.8 194.298 367.3 194.398C367.2 194.398 367 194.398 366.9 194.798C366.9 194.998 366.7 194.998 366.6 194.898C366 194.398 365.7 194.898 365.3 194.898C364.8 194.898 364.4 195.298 363.8 194.898C363.5 194.798 363.2 194.698 363.1 195.398C363.1 195.698 362.8 195.398 362.6 195.598C362.5 195.598 362.4 195.998 362.3 195.998C362.2 195.998 362 195.798 361.9 195.798C361.9 195.798 361.9 195.798 361.8 195.798C361.3 196.598 360.4 195.898 359.7 196.298C359 196.698 358.3 196.698 357.6 196.798C357.2 196.798 356.8 196.798 356.2 195.698C356 195.198 355.8 194.698 355.9 194.298C355.9 193.998 356.1 193.798 356.2 193.698C356.4 193.598 356.6 193.398 356.8 193.198C357.2 192.898 357.5 192.298 358 192.498C358.2 192.498 358.3 192.198 358.5 192.698H358.6C359 191.798 359.8 192.098 360.4 191.898C360.9 191.698 361.3 190.998 361.9 191.098C362 190.398 362.4 190.398 362.7 190.498C363.9 190.898 364.8 190.098 365.9 189.898C367 189.698 368 189.298 369 188.998C369.2 188.998 369.2 188.598 369.5 188.798C369.8 188.998 370 188.798 370.2 188.598C370.4 188.598 370.6 188.298 370.8 188.398C371.8 188.798 372.5 188.098 373.3 187.898C374.1 187.698 375 187.498 375.7 187.098C376.2 186.798 376.5 186.298 377.1 186.298C377.3 186.298 377.4 185.898 377.8 186.298C377.9 186.398 378 185.898 378.1 185.898C378.4 185.698 378.8 185.598 379.1 185.498C379.6 185.298 380 185.198 380.5 184.998C380.8 184.898 381 184.498 381.2 184.398C381.5 184.198 381.8 184.098 382.1 184.098C382.5 184.098 382.9 184.098 383.3 183.998C383.7 183.998 384 183.498 384.5 183.598C385.4 183.798 386 183.298 386.7 183.098C387.4 182.898 388.1 182.598 388.7 182.198C389.1 181.998 389.6 182.198 390 182.198C390.2 182.198 391 183.398 391.1 183.898V184.098C390.9 184.698 390.9 185.498 390.4 185.598C389.7 185.798 389.1 186.098 388.5 186.398L388.6 186.698Z" fill="black"/>
<path d="M392.6 198.398C392.6 198.198 392.6 197.898 392.6 197.698C392.6 197.698 392.8 197.498 392.3 197.398C392 197.398 392.7 197.298 392.6 197.198C392.6 196.998 392.6 196.798 392.6 196.598C392.6 196.398 392.3 196.198 392.2 195.998C392.2 195.798 392.4 195.598 392 195.398C391.7 195.298 392.2 195.098 392 194.898C391.8 194.698 391.7 194.598 392 194.398C392.1 194.298 392.3 194.098 392.2 193.998C392.2 193.998 391.8 193.998 391.8 193.798C391.8 193.798 392.1 193.598 391.4 193.598C391.4 193.598 391.4 193.598 391.5 193.598C391.9 193.398 391.8 193.298 391.5 193.298C391.2 193.298 391.2 193.298 391.2 193.198C391.2 192.998 391.1 192.898 391.1 192.698C391.1 192.598 391.3 192.398 391.3 192.198C391.3 192.098 391 191.998 391.3 191.798C391.6 191.598 391.5 191.498 391.5 191.398C391.5 191.398 391.7 191.198 391.1 191.398C391.8 190.898 390.7 191.098 390.8 190.898C390.9 190.598 390.8 190.498 390.6 190.298C390.6 190.298 390.7 190.098 390.3 190.298C390.1 190.298 390.1 190.298 390.3 190.298C390.8 189.898 390.4 189.898 390.4 189.698C390.4 189.498 390.1 189.498 390.4 189.098C390.6 188.898 390.6 188.798 390 188.998C389.7 188.998 390 188.898 389.9 188.898C389.9 188.898 389.6 188.898 389.5 188.898C389.5 188.898 389.7 188.698 389.7 188.598C389 188.598 389.7 187.998 389.3 187.898C389 187.798 388.9 187.498 388.9 187.198C388.9 186.998 388.9 186.798 389.8 186.098C390.2 185.798 390.7 185.398 391 185.298C391.2 185.298 391.4 185.098 391.5 185.098C391.6 185.098 391.8 185.098 391.9 185.098C392.2 185.098 392.7 185.098 392.6 185.398C392.6 185.498 392.9 185.398 392.5 185.698C393.3 185.498 393 186.098 393.2 186.298C393.4 186.498 394 186.398 393.9 186.798C394.5 186.598 394.5 186.798 394.4 186.998C394 187.698 394.6 187.998 394.7 188.498C394.8 188.998 395.1 189.398 395.2 189.898C395.2 189.898 395.6 189.898 395.4 190.098C395.2 190.298 395.4 190.298 395.4 190.398C395.4 190.398 395.6 190.598 395.4 190.698C394.9 191.298 395.4 191.498 395.4 191.898C395.4 192.298 395.4 192.698 395.7 192.998C395.8 193.198 396.2 193.398 396.1 193.598C396.1 193.698 396.4 193.798 395.8 193.998C395.6 193.998 396.1 193.998 396.1 194.098C396.1 194.298 396.1 194.398 396.1 194.598C396.1 194.798 396.1 195.098 396.1 195.298C396.1 195.398 396.4 195.498 396.5 195.698C396.5 195.798 396.5 195.998 396.5 196.098C396.5 196.298 396.2 196.498 396.2 196.698C396.2 196.898 396.4 197.098 396.2 197.298C395.7 197.698 396 197.998 395.9 198.298C395.9 198.598 395.8 198.998 395.9 199.298C395.9 199.498 395.4 199.598 395.4 199.798C395.4 199.798 393.9 199.798 393.4 199.798H393.2C392.7 199.598 392 199.398 392.1 199.198C392.1 198.898 392.1 198.698 392.1 198.398H392.6Z" fill="black"/>
<path d="M369.8 206.9C370.2 206.7 370.7 206.6 371 206.4C371.1 206.4 371.4 206.4 371.4 205.9C371.4 205.6 371.8 206.2 371.9 206.1C372.3 205.9 372.7 205.8 373.1 205.6C373.5 205.4 373.7 205 374.1 204.8C374.4 204.6 374.9 204.7 375.2 204.3C375.4 203.9 375.9 204.3 376.1 204C376.4 203.7 376.7 203.5 377.1 203.6C377.4 203.6 377.7 203.8 377.9 203.6C378 203.5 378 203.1 378.2 203.1C378.3 203.1 378.6 203.2 378.5 202.6C378.5 202.6 378.5 202.6 378.7 202.6C379 202.9 379.2 202.8 379.2 202.5C379.2 202.2 379.3 202.2 379.4 202.1C379.7 201.9 380 201.8 380.3 201.7C380.6 201.7 380.9 201.7 381.1 201.7C381.4 201.7 381.5 201.3 381.9 201.4C382.3 201.6 382.5 201.4 382.7 201.4C382.8 201.4 383.1 201.5 382.9 200.9C383.6 201.5 383.5 200.3 383.9 200.3C384.4 200.3 384.7 200 385 199.8C385 199.8 385.3 199.8 385.2 199.4C385.2 199.2 385.2 199.2 385.4 199.2C386 199.6 386.1 199.2 386.4 199.1C386.8 199.1 387 198.6 387.5 198.9C387.7 199 388 199 387.9 198.4C387.9 198.1 388.1 198.3 388.2 198.2C388.2 198.2 388.2 197.8 388.3 197.8C388.3 197.8 388.6 197.9 388.7 198C388.9 197.2 389.7 197.7 390.1 197.3C390.5 196.9 391 196.7 391.5 196.5C391.8 196.5 392.1 196.5 392.9 197.3C393.2 197.7 393.5 198.2 393.5 198.5C393.5 198.8 393.5 199 393.5 199.1C393.4 199.3 393.3 199.5 393.2 199.6C393 199.9 392.9 200.6 392.5 200.5C392.4 200.5 392.4 200.8 392.1 200.4H392C392 201.3 391.3 201.1 390.9 201.4C390.6 201.6 390.5 202.4 390 202.3C390 203 389.8 203 389.5 202.9C388.5 202.7 387.9 203.5 387.1 203.7C386.3 204 385.6 204.4 384.8 204.8C384.7 204.8 384.8 205.2 384.4 205.1C384.1 204.9 384 205.2 383.9 205.3C383.7 205.3 383.6 205.6 383.4 205.5C382.5 205.2 382.1 205.8 381.5 206C380.9 206.2 380.2 206.4 379.7 206.8C379.4 207.1 379.2 207.5 378.7 207.6C378.5 207.6 378.5 208 378.1 207.6C378 207.5 378.1 207.9 377.9 208C377.7 208.2 377.4 208.2 377.1 208.3C376.7 208.5 376.4 208.6 376 208.8C375.8 208.9 375.7 209.2 375.5 209.4C375.3 209.6 375.1 209.6 374.8 209.7C374.5 209.7 374.1 209.7 373.8 209.7C373.5 209.7 373.3 210.1 372.9 210C372.2 209.7 371.8 210.2 371.2 210.3C370.7 210.4 370.1 210.6 369.6 210.9C369.3 211.1 368.9 210.7 368.6 210.9C368.5 210.9 367.8 209.6 367.7 209.1V208.9C367.8 208.4 367.8 207.6 368.2 207.5C368.7 207.4 369.2 207.2 369.6 207L369.8 206.9Z" fill="black"/>
<path d="M399.8 210.9C399.4 211.1 399.1 211.3 398.7 211.6C398.6 211.7 398.3 211.6 398.4 212.1C398.4 212.4 398 211.9 397.9 212.1C397.6 212.4 397.2 212.5 396.9 212.7C396.6 212.9 396.4 213.3 396.1 213.6C395.8 213.8 395.3 213.8 395.1 214.2C395 214.6 394.5 214.3 394.2 214.6C394 214.9 393.7 215.1 393.3 215C393 215 392.7 214.9 392.6 215C392.6 215.1 392.6 215.5 392.4 215.5C392.3 215.5 392 215.4 392.2 216C392.2 216 392.2 216 392 216C391.7 215.7 391.5 215.8 391.5 216.1C391.5 216.4 391.4 216.4 391.3 216.5C391 216.7 390.7 216.9 390.4 216.9C390.2 216.9 389.8 216.9 389.6 216.9C389.3 216.9 389.2 217.3 388.9 217.2C388.6 217 388.4 217.2 388.1 217.2C388 217.2 387.7 217.1 387.9 217.7C387.2 217.1 387.3 218.2 386.9 218.2C386.5 218.2 386.1 218.5 385.8 218.6C385.8 218.6 385.5 218.6 385.6 219C385.6 219.2 385.6 219.2 385.4 219.1C384.9 218.6 384.7 219.1 384.4 219.1C384 219.1 383.8 219.5 383.3 219.1C383.1 219 382.9 218.9 382.9 219.5C382.9 219.8 382.7 219.5 382.6 219.7C382.6 219.7 382.6 220.1 382.4 220.1C382.4 220.1 382.2 219.9 382 219.9C381.8 220.7 381 220 380.6 220.4C380.2 220.7 379.7 220.8 379.1 220.9C378.8 220.9 378.5 220.9 377.9 219.8C377.7 219.3 377.5 218.8 377.5 218.5C377.5 218.2 377.5 218 377.6 217.9C377.7 217.8 377.8 217.6 377.9 217.4C378.1 217.1 378.3 216.5 378.7 216.7C378.8 216.7 378.8 216.4 379.1 216.9C379.2 216 379.8 216.4 380.2 216.1C380.5 215.9 380.6 215.2 381.1 215.3C381.1 214.6 381.3 214.7 381.6 214.8C382.5 215.2 383.1 214.5 383.8 214.2C384.5 214 385.2 213.6 385.9 213.3C386 213.3 385.9 212.9 386.2 213.1C386.4 213.3 386.5 213.1 386.7 212.9C386.8 212.9 386.9 212.6 387.1 212.7C387.9 213 388.3 212.4 388.8 212.2C389.4 212 389.9 211.8 390.4 211.4C390.7 211.1 390.8 210.7 391.2 210.6C391.4 210.6 391.3 210.2 391.8 210.6C391.9 210.7 391.8 210.3 391.9 210.2C392.1 210 392.3 209.9 392.5 209.8C392.8 209.6 393.1 209.5 393.4 209.3C393.6 209.2 393.6 208.9 393.8 208.7C394 208.5 394.1 208.4 394.4 208.4C394.7 208.4 395 208.4 395.3 208.3C395.6 208.3 395.7 207.8 396.1 207.9C396.8 208.1 397.1 207.6 397.6 207.4C398.1 207.2 398.5 206.9 398.9 206.6C399.1 206.4 399.6 206.6 399.8 206.5C399.9 206.5 400.9 207.5 401.1 208V208.2C401.1 208.7 401.3 209.5 401.1 209.6C400.7 209.8 400.3 210.1 399.9 210.4L399.8 210.9Z" fill="black"/>
<path d="M352.8 237.497C353.6 237.497 354.5 237.497 355.4 237.397C355.7 237.397 356.1 237.597 356.4 236.997C356.5 236.697 356.9 237.297 357.2 237.197C358 236.997 358.9 236.897 359.7 236.697C360.5 236.497 361.3 236.097 362.1 235.797C362.9 235.597 363.8 235.697 364.6 235.197C365.2 234.797 366 235.197 366.6 234.897C367.3 234.597 368 234.397 368.7 234.397C369.2 234.397 369.8 234.597 370.2 234.397C370.5 234.297 370.7 233.897 371 233.797C371.3 233.797 371.7 233.897 371.9 233.197C371.9 233.197 372.1 233.197 372.2 233.197C372.6 233.497 373 233.397 373.2 232.997C373.4 232.697 373.7 232.597 373.9 232.597C374.6 232.397 375.3 232.197 376 232.097C376.5 232.097 377.1 232.097 377.6 232.097C378.2 232.097 378.6 231.597 379.2 231.697C379.8 231.897 380.3 231.697 380.7 231.497C381 231.497 381.4 231.497 381.4 230.897C381.4 230.897 381.5 230.897 381.6 230.897C382.6 231.497 383.1 230.197 383.9 230.097C384.8 230.097 385.6 229.597 386.4 229.297C386.6 229.297 386.9 229.297 386.9 228.797C386.9 228.597 387.1 228.497 387.3 228.597C388.1 228.997 388.6 228.397 389.2 228.197C389.9 228.097 390.5 227.497 391.4 227.597C391.8 227.597 392.2 227.597 392.3 226.897C392.3 226.597 392.8 226.697 393 226.497C393.2 226.397 393.3 225.997 393.5 225.897C393.7 225.897 393.9 225.897 394.2 225.897C394.2 225.897 394.3 225.897 394.4 225.897C395.1 224.797 396.4 225.197 397.3 224.497C398.2 223.797 399.2 223.397 400.1 222.897C400.6 222.597 401.3 222.497 402.2 223.197C402.6 223.497 402.9 223.997 402.9 224.397C402.9 224.697 402.8 224.997 402.6 225.197C402.3 225.497 402.1 225.797 401.8 225.997C401.3 226.597 400.9 227.397 400.1 227.497C399.8 227.497 399.7 227.897 399.3 227.497H399.1C398.6 228.697 397.4 228.697 396.5 229.197C395.7 229.597 395.2 230.497 394.3 230.697C394.1 231.497 393.5 231.597 393 231.597C391.1 231.597 389.7 232.697 388 233.197C386.3 233.697 384.7 234.397 383 234.797C382.7 234.797 382.6 235.297 382.2 235.097C381.8 234.897 381.5 235.297 381.1 235.397C380.8 235.397 380.4 235.697 380.1 235.697C378.6 235.497 377.4 236.197 376 236.497C374.7 236.797 373.3 237.097 372 237.497C371.2 237.797 370.5 238.297 369.7 238.397C369.3 238.397 369.1 238.797 368.6 238.397C368.5 238.297 368.2 238.797 368 238.797C367.5 238.997 366.9 239.097 366.3 239.197C365.5 239.397 364.8 239.497 364 239.697C363.5 239.797 363.1 240.197 362.7 240.297C362.2 240.497 361.7 240.597 361.2 240.597C360.5 240.597 359.9 240.597 359.2 240.597C358.5 240.597 357.8 241.097 357.1 240.897C355.8 240.597 354.6 240.897 353.3 240.897C352 240.897 350.8 240.697 349.5 240.597C348.7 240.597 348.2 239.897 347.6 239.597C347.3 239.497 347.4 237.997 347.7 237.497C347.7 237.497 347.8 237.297 347.9 237.297C348.6 237.097 349.3 236.497 349.9 236.697C350.8 236.997 351.7 236.997 352.7 237.097L352.8 237.497Z" fill="black"/>
<path d="M288.8 371.398C290 368.998 291.2 366.698 292.4 364.298C292.8 363.398 293.5 362.598 293.5 361.498C293.5 360.898 294.5 360.398 294.9 359.498C295.9 357.298 297.1 355.098 298.2 352.898C299.2 350.698 300.1 348.498 301.1 346.298C302.1 344.098 303.4 342.098 304.2 339.898C304.8 337.998 306.1 336.598 306.8 334.898C307.6 332.998 308.4 331.098 309.5 329.498C310.3 328.298 311.1 327.098 311.6 325.798C311.9 324.998 312 324.098 312.5 323.198C312.9 322.398 313.6 321.598 313.4 320.598C313.4 320.598 313.7 320.198 313.8 320.098C314.6 319.398 315.1 318.298 315.2 317.498C315.3 316.698 315.6 316.098 316 315.398C316.9 313.598 317.7 311.698 318.7 309.998C319.4 308.698 320.3 307.398 321 306.098C321.7 304.698 322.2 303.098 323.1 301.898C324 300.698 324.6 299.498 325.2 298.198C325.5 297.498 326.2 296.698 325.9 295.898C325.9 295.898 326 295.498 326.1 295.398C327.8 293.698 327.8 291.098 329 289.098C330.2 286.998 331.1 284.698 332.1 282.398C332.4 281.798 332.8 281.198 332.6 280.498C332.6 280.198 332.8 279.598 333 279.298C334.3 277.898 334.7 275.998 335.5 274.298C336.4 272.398 337 270.298 338.2 268.498C338.7 267.698 339.3 266.598 339.1 265.398C339.1 264.798 339.7 263.998 339.9 263.198C340.1 262.598 340.1 261.898 340.3 261.298C340.5 260.798 340.9 260.398 341.2 259.898C341.2 259.798 341.4 259.598 341.4 259.398C341.9 256.298 343.7 253.698 344.6 250.698C345.4 247.698 346.5 244.698 347.5 241.698C348 240.098 348.7 238.398 350.2 237.598C350.8 237.198 351.4 237.398 351.5 238.198C351.5 238.798 351.6 239.498 351.5 240.098C351.3 241.098 351.1 242.098 351 242.998C350.6 244.998 350.5 247.098 349.6 248.998C349.3 249.598 349.4 250.398 348.7 250.798C348.7 250.798 348.5 251.098 348.5 251.198C348.4 254.098 346.9 256.698 346 259.398C345.2 261.698 345 264.098 343.8 266.298C343.9 267.798 343.2 269.198 342.5 270.398C340.1 274.598 338.6 279.198 336.6 283.498C334.6 287.898 332.6 292.398 330.5 296.698C330.1 297.398 330.2 298.198 329.5 298.998C328.9 299.698 328.6 300.898 328.1 301.798C327.7 302.698 327.4 303.698 326.8 304.398C324.6 307.498 323.2 311.098 321.5 314.498C319.8 317.898 318 321.198 316.5 324.698C315.6 326.798 314.9 328.998 313.7 330.998C313.2 331.898 313.1 332.998 312.1 333.598C311.8 333.798 311.8 334.798 311.6 335.398C311 336.798 310.2 338.298 309.5 339.698C308.5 341.698 307.5 343.598 306.6 345.598C306 346.798 305.7 348.098 305.1 349.398C304.5 350.698 303.9 351.998 303.2 353.198C302.3 354.798 301.4 356.298 300.5 357.798C299.6 359.398 299 361.298 298 362.698C296.1 365.398 294.8 368.498 293.3 371.398C291.8 374.298 290.2 377.198 288.8 380.098C288 381.798 286.8 382.998 285.9 384.598C285.5 385.298 283.7 385.698 283.4 385.098C283.4 384.998 283.4 384.798 283.4 384.698C283.8 382.898 283.9 381.198 284.9 379.398C286.4 376.798 287.7 374.098 289 371.398H288.8Z" fill="black"/>
<path d="M156.1 441.501L158.8 435.801C159.1 435.101 159.7 434.501 159.6 433.501C159.6 433.001 160.4 432.601 160.7 431.901C161.5 430.101 162.5 428.401 163.3 426.601C164.1 424.901 164.8 423.101 165.6 421.301C166.4 419.601 167.6 418.001 168.2 416.201C168.7 414.701 169.8 413.701 170.5 412.301C171.2 410.801 171.9 409.301 172.9 408.101C173.6 407.201 174.4 406.301 174.8 405.201C175.1 404.501 175.1 403.801 175.5 403.101C175.9 402.501 176.5 401.901 176.3 401.001C176.3 401.001 176.5 400.701 176.7 400.601C177.4 400.101 177.9 399.301 178 398.601C178 397.901 178.4 397.401 178.7 396.901C179.5 395.501 180.3 394.101 181.2 392.701C181.9 391.701 182.7 390.801 183.4 389.801C184.1 388.701 184.6 387.401 185.4 386.601C186.3 385.801 186.9 384.801 187.5 383.801C187.8 383.201 188.5 382.701 188.2 382.001C188.2 382.001 188.3 381.701 188.4 381.701C190.1 380.601 190.2 378.401 191.3 376.901C192.5 375.401 193.5 373.601 194.5 371.901C194.8 371.501 195.2 371.101 195.1 370.401C195.1 370.201 195.3 369.701 195.6 369.501C196.9 368.601 197.4 367.101 198.4 365.901C199.5 364.601 200.2 363.001 201.5 361.801C202.1 361.301 202.7 360.501 202.7 359.501C202.7 359.001 203.4 358.501 203.7 357.901C204 357.401 204 356.901 204.3 356.501C204.5 356.101 205 355.901 205.3 355.601C205.4 355.601 205.5 355.401 205.5 355.301C206.4 352.901 208.5 351.401 209.9 349.201C211.2 347.001 212.8 345.001 214.4 343.001C215.3 341.901 216.3 340.901 217.8 340.801C218.5 340.801 218.9 341.101 218.8 341.801C218.8 342.301 218.6 342.801 218.4 343.301C218 344.001 217.6 344.701 217.3 345.401C216.5 346.801 216 348.401 214.8 349.601C214.4 350.001 214.3 350.601 213.7 350.701C213.7 350.701 213.5 350.901 213.4 351.001C212.8 353.301 211 354.801 209.7 356.701C208.6 358.301 208.1 360.201 206.8 361.601C206.8 362.801 205.9 363.801 205.2 364.601C203.9 366.001 202.8 367.501 201.7 369.101C200.7 370.701 199.7 372.301 198.6 373.901C196.4 377.101 194.4 380.401 192.3 383.601C191.9 384.201 192 384.801 191.3 385.301C190.7 385.801 190.4 386.701 189.9 387.401C189.5 388.101 189.2 388.801 188.7 389.401C186.6 391.601 185.4 394.501 183.7 397.001C182.1 399.601 180.5 402.201 179.2 404.801C178.4 406.401 177.8 408.201 176.8 409.801C176.4 410.501 176.3 411.301 175.4 411.701C175.1 411.801 175.2 412.701 175 413.101C174.4 414.201 173.8 415.301 173.2 416.401C172.4 417.901 171.5 419.501 170.7 421.001C170.2 422.001 170 423.001 169.5 424.001C169 425.001 168.5 426.001 167.9 427.001C167.2 428.201 166.4 429.401 165.7 430.601C165 431.901 164.5 433.401 163.7 434.501C162.1 436.601 161.1 439.101 160 441.401C158.9 443.701 157.7 446.001 156.7 448.501C156.2 449.901 155.1 450.901 154.6 452.201C154.3 452.801 152.6 453.001 152.3 452.601C152.3 452.601 152.2 452.401 152.2 452.301C152.4 450.801 152.2 449.301 153 447.901C154 445.701 155 443.501 156.1 441.401V441.501Z" fill="black"/>
<path d="M248.8 274.798C248.8 274.798 248.8 274.798 248.7 274.698L250.8 271.698L251.4 270.798L252 269.898C252.7 268.698 253.4 267.498 254 266.198C254.5 265.298 255.2 264.398 255.1 263.198C255.1 262.898 255.3 262.598 255.6 262.198C255.8 262.198 256 261.998 256 261.898C256 261.698 256.1 261.498 256.2 261.298H255.6L254.5 260.998L252.5 260.698C249.9 260.398 247.2 260.198 244.6 259.898C242 259.598 239.4 258.898 236.8 258.798C234.6 258.798 232.7 257.998 230.7 257.798C228.5 257.598 226.4 257.498 224.4 257.298C222.9 257.198 221.5 257.098 220.1 257.498C219.7 257.598 219.3 257.898 218.9 258.098C218.5 258.298 218.1 258.498 217.6 258.698C216.8 258.998 215.7 259.198 215.3 260.098C215.3 260.098 214.9 260.298 214.6 260.298C213.5 260.398 212.5 261.098 212 261.798C211.5 262.498 210.9 262.898 210.3 263.398C208.7 264.698 207.1 266.198 205.5 267.598C204.3 268.698 203 269.698 201.9 270.898C200.7 272.098 199.8 273.598 198.6 274.698C197.4 275.698 196.7 276.998 196 278.298C195.6 278.998 194.9 279.798 195.3 280.698C195.3 280.698 195.3 281.098 195.1 281.198C194.7 281.698 194.4 282.198 194.3 282.798C194.2 283.398 194.1 283.898 194 284.498C194 285.098 194 285.698 194 286.298C194 286.898 194 287.498 194 288.098C193.8 290.498 194.3 293.098 194.9 295.498C195.1 296.198 195.1 296.898 195.7 297.398C195.9 297.598 196.1 298.198 196.2 298.598C196.2 300.598 197.4 302.298 198.2 304.098C199.1 306.198 200.5 307.998 201.3 310.198C201.7 311.098 202.3 312.298 203.5 312.998C204 313.298 204.5 314.398 205 315.098C205.4 315.598 206.1 315.998 206.5 316.598C206.8 317.098 207 317.698 207.3 318.298C207.3 318.498 207.5 318.598 207.6 318.798C210.1 321.198 211.4 324.598 213.3 327.598C215.3 330.598 216.9 333.898 218 337.398C218.6 339.298 218.9 341.498 218 342.998C217.6 343.698 217.1 343.798 216.6 342.998C216.2 342.498 215.9 341.898 215.7 341.198C215.5 340.698 215.3 340.198 215.1 339.698C214.9 339.198 214.7 338.698 214.4 338.298C213.5 336.298 212.2 334.598 211.4 332.498C211.2 331.798 210.5 331.298 210.7 330.498C210.7 330.398 210.7 330.098 210.5 329.998C208.3 327.798 207 324.898 205.2 322.398C203.7 320.298 201.6 318.498 200.3 316.198C198.9 315.298 198 313.798 197.4 312.398C195.1 307.498 192.2 302.798 190.7 297.398C190 294.698 189.5 291.798 189.4 288.898C189.4 285.998 189.7 283.098 190.7 280.298C191 279.398 191 278.398 191.7 277.498C192.4 276.598 192.9 275.298 193.6 274.298C194.2 273.298 194.8 272.298 195.6 271.598C197.2 270.098 198.7 268.498 200.2 266.998C201.7 265.498 203.1 263.898 204.8 262.498C208.1 259.698 211.7 257.098 215.8 255.298C218.3 254.198 221 253.298 223.8 253.298C225 253.298 226.2 252.998 227.3 253.698C227.6 253.898 228.7 253.498 229.4 253.598C231.2 253.698 233 253.998 234.7 254.298C237.1 254.698 239.5 255.098 241.9 255.298C243.4 255.498 244.9 255.398 246.3 255.598C247.8 255.798 249.4 255.998 250.9 256.298C251.9 256.498 252.8 256.698 253.8 256.898L255.2 257.198H255.6L256.1 257.398L257.4 257.598C258.3 257.698 259.2 257.898 260.1 257.998L261.5 258.198H261.7C261.7 258.198 261.9 258.198 261.8 258.198V258.498C261.7 258.498 261.5 259.198 261.5 259.198C261.2 260.098 260.9 260.898 260.5 261.798C260.3 262.198 260.1 262.598 259.9 263.098L259.6 263.698C259.6 263.898 259.4 264.098 259.3 264.198C258.3 265.798 257.5 267.498 256.6 269.098C256.2 269.898 255.7 270.698 255.2 271.498C255 271.898 254.7 272.298 254.5 272.698L254.1 273.298L253.8 273.798L253.4 274.298C253.5 274.498 253.7 274.598 253.9 274.798C253.9 274.798 254.3 275.098 254.5 275.298C254.8 275.498 255 275.698 255.3 275.898C256.4 276.698 257.6 277.298 258.9 277.998C260.7 278.898 262.1 280.098 263.9 281.198C264.3 281.498 264.6 282.098 264.7 282.698C264.7 283.298 264.6 283.798 264.3 283.898C264.2 283.898 264 283.898 263.9 283.898C262.2 283.198 260.3 283.098 258.3 281.998C256.8 281.198 255.3 280.398 253.9 279.398C253.2 278.898 252.5 278.398 251.7 277.898C250.7 276.998 249.6 276.098 248.6 275.098L248.8 274.798Z" fill="black"/>
<path d="M250.8 309.802C249.7 309.602 248.7 309.202 247.6 308.902C247.2 308.802 246.9 308.402 246.3 308.702C246 308.902 245.9 308.102 245.5 308.002C244.5 307.602 243.7 307.002 242.8 306.502C242.4 306.202 241.9 306.002 241.4 305.802C241 305.602 240.5 305.302 240.1 305.002C239.3 304.402 238.7 303.502 237.8 303.002C237 302.602 236.9 301.702 236.2 301.102C235.9 300.802 235.6 300.502 235.3 300.102C235 299.702 234.9 299.502 234.6 298.702C234.4 298.202 234.3 297.802 234.1 297.402C234.1 297.202 233.9 297.002 233.8 296.802C233.7 296.602 233.7 296.402 233.6 296.202C233.4 295.702 232.9 295.202 232.8 294.702C232.8 294.602 232.8 294.402 232.8 294.302C232.8 294.202 232.8 294.102 232.8 294.002C232.8 293.802 232.8 293.502 232.6 293.202C232.6 293.202 232.8 293.002 232.9 292.902C233.6 292.602 233.9 292.402 234.1 292.002C234.1 291.802 234.3 291.602 234.4 291.502C234.6 291.502 234.9 291.402 235.1 291.302C235.7 291.102 236.6 291.102 237.3 291.102H238.5H239H239.3C239.9 291.102 240.5 291.402 241.1 291.502C241.7 291.502 242.4 291.302 242.9 291.502C243.5 291.802 244 291.802 244.5 291.802C244.8 291.802 245.2 292.102 245.4 291.402C245.4 291.402 245.5 291.402 245.6 291.402C246.5 292.202 247.3 291.002 248.1 291.102C248.6 291.102 248.9 291.102 249.3 291.102C249.7 291.002 250.1 290.902 250.6 290.702C250.8 290.702 251.1 290.702 251.2 290.202C251.2 290.002 251.5 289.902 251.6 290.002C252.4 290.402 253 289.802 253.7 289.702C254.5 289.502 255.1 289.002 256.1 289.102C256.5 289.102 257 289.102 257.1 288.402C257.1 288.102 257.6 288.202 257.9 288.002C258.1 287.902 258.2 287.502 258.4 287.402C258.6 287.402 258.9 287.402 259.1 287.402C259.1 287.402 259.2 287.402 259.3 287.402C260 286.302 261.5 286.502 262.4 285.802C263.3 285.102 264.2 284.502 265.1 283.902C265.3 283.702 265.5 283.602 265.8 283.602C266.1 283.602 266.4 283.602 267 283.802C267.5 283.902 268 284.202 268.1 284.602C268.1 284.902 268.1 285.302 268.1 285.602C267.9 286.002 267.7 286.402 267.4 286.802C267.1 287.102 266.9 287.602 266.6 287.902C266.3 288.202 266 288.602 265.6 288.702C265.3 288.702 265.2 289.202 264.8 288.902H264.6C264 290.202 262.7 290.302 261.7 290.902C260.9 291.402 260.3 292.402 259.3 292.502C259.1 293.302 258.4 293.502 257.8 293.502C255.8 293.602 254.1 294.702 252.2 295.202C251.2 295.402 250.2 295.702 249.1 295.902C248.1 296.002 247.1 296.102 246.1 296.202C245.8 296.202 245.5 296.602 245.1 296.302C244.7 296.102 244.3 296.302 243.8 296.302C243.4 296.302 243 296.402 242.6 296.302C241.8 296.002 241.1 295.902 240.4 295.902C240 295.902 239.7 295.902 239.3 295.902H238.9C238.9 295.902 238.8 295.902 238.7 295.902C238.5 295.902 238.2 295.902 237.9 295.902C237.8 295.902 237.6 295.902 237.6 296.002C237.6 296.102 237.6 296.302 237.8 296.402C238.1 296.702 238.5 296.802 238.5 297.002C238.5 297.002 238.5 297.002 238.6 297.102C238.7 297.202 238.8 297.402 238.6 297.702C238.6 297.902 239.1 297.902 239.2 298.002C239.6 298.402 239.9 298.802 240.3 299.302C240.8 299.902 241.3 300.502 242 300.902C242.4 301.202 242.9 301.302 243.3 301.502C243.7 301.702 244.1 302.102 244.5 302.402C245 302.802 245.4 303.302 245.9 303.702C246.4 304.102 247.2 304.102 247.6 304.602C248 305.102 248.6 305.302 249.1 305.602L250.8 306.102C251.9 306.402 253.1 306.702 254.3 306.702C254.6 306.702 254.9 306.802 255.2 307.002C255.5 307.102 255.8 307.202 256.2 307.202C256.5 307.202 257 308.702 256.8 309.202C256.8 309.202 256.8 309.402 256.7 309.402C256 309.802 255.3 310.602 254.4 310.502C253.8 310.502 253.1 310.402 252.5 310.202C251.9 310.202 251.2 310.002 250.6 309.902L250.8 309.802Z" fill="black"/>
<path d="M233.9 281.8C233.8 281.7 233.7 281.5 233.5 281.5C233.5 281.5 233.5 281.2 233.2 281.5C233 281.7 233.4 281.2 233.3 281.1C233.1 281.1 233.1 280.9 232.9 280.8C232.7 280.8 232.5 280.8 232.3 280.8C232.1 280.8 232.3 280.4 231.9 280.6C231.6 280.7 231.9 280.3 231.7 280.3C231.5 280.3 231.4 280.3 231.4 280C231.4 279.8 231.5 279.6 231.4 279.6C231.4 279.6 231.1 279.8 231 279.8C231 279.8 231 279.5 230.6 279.9C230.6 279.9 230.6 279.9 230.6 279.8C230.8 279.4 230.7 279.4 230.6 279.6C230.4 279.8 230.4 279.7 230.3 279.6C230.2 279.6 230.1 279.5 230 279.3C230 279.2 230 279 230 278.8C230 278.7 229.7 278.8 229.8 278.5C229.9 278.2 229.8 278.2 229.8 278.1C229.8 278.1 229.8 277.8 229.4 278.3C229.8 277.6 229 278.3 229 278C229 277.7 228.8 277.7 228.6 277.6C228.6 277.6 228.6 277.4 228.3 277.7C228.2 277.8 228.1 277.7 228.2 277.7C228.5 277.1 228.2 277.3 228.2 277.2C228.2 277 227.9 277.2 228.1 276.7C228.1 276.5 228.1 276.4 227.8 276.7C227.6 276.9 227.8 276.7 227.6 276.7L227.3 276.9C227.3 276.9 227.3 276.7 227.4 276.6C226.8 277 227.2 276.2 227 276.2C226.7 276.2 226.6 276 226.5 275.8C226.5 275.7 226.5 275.5 227.2 274.5C227.5 274.1 227.9 273.7 228.1 273.5C228.3 273.3 228.5 273.2 228.5 273.2C228.6 273.2 228.8 273.2 228.9 273.1C229.1 273.1 229.6 272.7 229.5 273.1C229.5 273.1 229.7 273.1 229.5 273.4C230.2 272.9 230 273.4 230.1 273.5C230.3 273.5 230.8 273.2 230.7 273.5C231.2 273.1 231.2 273.2 231.1 273.5C230.9 274.2 231.4 274.1 231.6 274.4C231.8 274.7 232.1 274.8 232.3 275.1C232.3 275.1 232.6 274.9 232.5 275.1C232.4 275.3 232.5 275.2 232.6 275.3C232.6 275.3 232.8 275.3 232.7 275.4C232.5 276.1 232.9 275.9 233.1 276.2C233.3 276.5 233.4 276.6 233.7 276.7C233.9 276.7 234.2 276.6 234.3 276.7C234.3 276.7 234.6 276.6 234.3 277.1C234.3 277.2 234.5 276.9 234.6 276.9C234.7 276.9 234.8 277 234.9 277.1C235 277.1 235.1 277.3 235.2 277.4C235.2 277.4 235.5 277.4 235.6 277.4C235.7 277.4 235.8 277.4 235.8 277.6C235.8 277.7 235.8 278 235.8 278.1C235.8 278.2 236.1 278.1 236 278.4C235.8 278.9 236.2 278.9 236.3 279.1C236.4 279.3 236.6 279.5 236.8 279.5C236.9 279.5 236.7 280 236.8 280.1C236.8 280.1 235.9 281.3 235.6 281.7C235.6 281.7 235.5 281.8 235.4 281.9C235 282.2 234.4 282.7 234.4 282.5C234.3 282.3 234.1 282.2 234 282.1L233.9 281.8Z" fill="black"/>
<path d="M242.3 274.6C242.2 274.5 242.1 274.3 241.9 274.3C241.9 274.3 241.9 274 241.6 274.3C241.4 274.5 241.8 274 241.7 273.9C241.5 273.9 241.5 273.7 241.3 273.6C241.1 273.6 240.9 273.6 240.7 273.6C240.5 273.6 240.7 273.2 240.3 273.4C240 273.5 240.3 273.1 240.1 273.1C239.9 273.1 239.8 273.1 239.8 272.8C239.8 272.6 239.9 272.4 239.8 272.4C239.8 272.4 239.5 272.6 239.4 272.6C239.4 272.6 239.4 272.3 239 272.7C239 272.7 239 272.7 239 272.6C239.2 272.2 239.1 272.2 239 272.4C238.8 272.6 238.8 272.5 238.7 272.4C238.6 272.4 238.5 272.3 238.4 272.1C238.4 272 238.4 271.8 238.4 271.6C238.4 271.5 238.1 271.6 238.2 271.3C238.3 271 238.2 271 238.2 270.9C238.2 270.9 238.2 270.6 237.8 271.1C238.2 270.4 237.4 271.1 237.4 270.8C237.4 270.5 237.2 270.5 237 270.4C237 270.4 237 270.2 236.7 270.5C236.6 270.6 236.5 270.5 236.6 270.5C236.9 269.9 236.6 270.1 236.6 270C236.6 269.8 236.3 270 236.5 269.5C236.5 269.3 236.5 269.2 236.2 269.5C236 269.7 236.2 269.5 236 269.5L235.7 269.7C235.7 269.7 235.7 269.5 235.8 269.4C235.2 269.8 235.6 269 235.4 269C235.1 269 235 268.8 234.9 268.6C234.9 268.5 234.9 268.3 235.6 267.3C235.9 266.9 236.3 266.5 236.5 266.3C236.7 266.1 236.9 266 236.9 266C237 266 237.2 266 237.3 265.9C237.5 265.9 238 265.5 237.9 265.9C237.9 265.9 238.1 265.9 237.9 266.2C238.6 265.7 238.4 266.2 238.5 266.3C238.7 266.3 239.2 266 239.1 266.3C239.6 265.9 239.6 266 239.5 266.3C239.3 267 239.8 266.9 240 267.2C240.2 267.5 240.5 267.6 240.7 267.9C240.7 267.9 241 267.7 240.9 267.9C240.8 268.1 240.9 268 241 268.1C241 268.1 241.2 268.1 241.1 268.2C240.9 268.9 241.3 268.7 241.5 269C241.7 269.3 241.8 269.4 242.1 269.5C242.3 269.5 242.6 269.4 242.7 269.5C242.7 269.5 243 269.4 242.7 269.9C242.7 270 242.9 269.7 243 269.7C243.1 269.7 243.2 269.8 243.3 269.9C243.4 269.9 243.5 270.1 243.6 270.2C243.6 270.2 243.9 270.2 244 270.2C244.1 270.2 244.2 270.2 244.2 270.4C244.2 270.5 244.2 270.8 244.2 270.9C244.2 271 244.5 270.9 244.4 271.2C244.2 271.7 244.6 271.7 244.7 271.9C244.8 272.1 245 272.3 245.2 272.3C245.3 272.3 245.1 272.8 245.2 272.9C245.2 272.9 244.3 274.1 244 274.5C244 274.5 243.9 274.6 243.8 274.7C243.4 275 242.8 275.5 242.8 275.3C242.7 275.1 242.5 275 242.4 274.9L242.3 274.6Z" fill="black"/>
<path d="M435 220.701C435 219.301 435 217.901 435 216.401C435 215.901 435.5 215.301 434.4 214.801C433.9 214.501 435.1 214.001 435.1 213.501C435 212.201 435.1 210.801 435.1 209.501C435 208.201 434.5 206.901 434.4 205.601C434.3 204.301 434.9 203.001 434.2 201.801C433.6 200.701 434.6 199.801 434.4 198.701C434.1 197.601 434 196.501 434.4 195.401C434.7 194.601 435.2 193.901 435 193.101C434.9 192.601 434.2 192.201 434.3 191.601C434.3 191.101 434.9 190.601 433.6 190.101C433.5 190.101 433.7 189.801 433.9 189.701C434.7 189.201 434.7 188.501 434.1 188.101C433.6 187.701 433.6 187.301 433.6 186.901C433.6 185.801 433.5 184.701 433.6 183.601C433.6 182.801 434.2 182.001 434.3 181.201C434.4 180.301 433.9 179.401 434.5 178.701C435.1 177.901 435.1 177.201 435.1 176.401C435.1 176.001 435.7 175.401 434.4 175.101C434.3 175.101 434.3 174.901 434.4 174.801C436.1 173.501 433.9 172.301 434.3 171.001C434.7 169.701 434.4 168.301 434.3 167.001C434.3 166.601 434.7 166.301 433.7 165.901C433.4 165.801 433.3 165.401 433.6 165.201C434.9 164.201 434.1 163.201 434.3 162.201C434.5 161.101 434 159.901 434.9 158.701C435.3 158.201 435.5 157.501 434.4 157.001C433.9 156.701 434.4 156.201 434.3 155.701C434.2 155.401 433.7 155.001 433.6 154.701C433.6 154.401 434.1 154.101 434.3 153.801C434.3 153.801 434.3 153.601 434.3 153.501C433 151.801 434.7 150.201 434.3 148.501C433.9 146.801 434.1 145.101 434.3 143.401C434.4 142.501 434.8 141.501 437.1 140.901C438.1 140.601 439.2 140.601 439.9 141.001C440.4 141.301 440.8 141.601 441 142.001C441.2 142.501 441.5 143.101 441.7 143.601C442.1 144.701 443.2 145.801 442.6 146.901C442.4 147.301 443 147.701 442 148.001C441.9 148.001 441.8 148.201 441.9 148.301C443.5 149.801 442.4 151.401 442.6 152.901C442.6 154.201 444 155.501 443.4 156.801C444.7 157.501 444.4 158.401 444.1 159.101C442.8 161.701 443.7 164.201 443.5 166.801C443.3 169.401 443.5 172.001 443.5 174.601C443.5 175.001 444.2 175.401 443.7 175.901C443.2 176.401 443.6 177.001 443.6 177.601C443.6 178.201 443.9 178.701 443.6 179.201C442.3 181.201 443.1 183.301 442.9 185.401C442.8 187.401 442.6 189.501 442.9 191.501C443.1 192.701 443.8 194.001 443.5 195.201C443.4 195.701 444.1 196.301 442.9 196.801C442.6 196.901 443.5 197.401 443.5 197.801C443.6 198.701 443.5 199.501 443.5 200.401C443.5 201.301 443.5 202.801 443.5 204.001C443.5 204.701 444.1 205.401 444.2 206.201C444.3 207.001 444.3 207.701 444.2 208.501C444 209.501 443.6 210.401 443.5 211.401C443.4 212.401 443.9 213.401 443.4 214.401C442.4 216.201 442.9 217.901 442.8 219.701C442.7 221.501 442.6 223.201 442.8 225.001C442.9 226.001 441.9 226.901 441.9 227.901C441.9 228.401 439 229.001 437.9 228.801C437.7 228.801 437.5 228.701 437.4 228.601C436.5 227.601 435 226.801 435.1 225.701C435.2 224.101 435.1 222.501 435.1 220.901L435 220.701Z" fill="black"/>
<path d="M390.7 269.799C391.5 268.999 392.4 268.299 393.2 267.499C393.5 267.199 394.2 267.299 393.7 266.199C393.5 265.699 394.7 266.299 394.9 265.999C395.6 265.199 396.5 264.599 397.2 263.799C397.9 262.999 398.3 261.999 399 261.199C399.7 260.399 400.8 260.099 401.1 258.999C401.3 257.999 402.6 258.199 403 257.499C403.5 256.699 404 255.999 404.9 255.799C405.6 255.599 406.3 255.499 406.6 254.899C406.8 254.499 406.6 253.799 406.9 253.599C407.2 253.399 407.9 253.499 407.3 252.299C407.3 252.299 407.5 252.299 407.7 252.299C408.6 252.599 408.9 252.299 408.8 251.599C408.7 250.999 408.9 250.799 409.1 250.599C409.7 249.899 410.3 249.299 411 248.799C411.5 248.399 412.3 248.299 412.9 247.899C413.5 247.499 413.6 246.599 414.5 246.599C415.4 246.599 415.8 246.199 416.2 245.699C416.4 245.499 417.1 245.599 416.5 244.499C416.5 244.399 416.5 244.299 416.7 244.299C418.6 244.799 417.7 242.499 418.7 242.099C419.7 241.699 420.3 240.699 421 239.899C421.2 239.699 421.7 239.699 421.2 238.899C421 238.599 421.2 238.399 421.5 238.399C422.9 238.699 423 237.599 423.7 237.199C424.5 236.699 424.7 235.699 426.1 235.699C426.7 235.699 427.2 235.499 426.7 234.299C426.5 233.799 427.2 233.799 427.3 233.499C427.4 233.199 427.3 232.699 427.4 232.499C427.6 232.299 428.1 232.499 428.4 232.499C428.4 232.499 428.6 232.499 428.6 232.299C428.6 230.399 430.8 230.699 431.5 229.499C432.2 228.299 433.2 227.399 434.3 226.599C434.9 226.099 435.7 225.799 437.7 227.099C438.6 227.699 439.4 228.399 439.6 229.099C439.8 229.599 439.9 230.099 439.8 230.399C439.6 230.799 439.5 231.299 439.4 231.799C439.1 232.699 439.2 234.099 438.2 234.299C437.9 234.299 438.1 234.999 437.2 234.499C437.1 234.499 436.9 234.499 437 234.499C437.3 236.499 435.7 236.599 434.9 237.599C434.2 238.399 434.4 239.999 433.3 240.399C433.8 241.699 433.2 241.999 432.5 242.199C430.1 242.699 429.3 244.799 427.7 246.099C426.1 247.399 424.7 248.999 423.2 250.399C422.9 250.599 423.2 251.399 422.5 251.299C421.9 251.299 421.8 251.799 421.5 252.199C421.2 252.499 421.1 252.999 420.6 252.999C418.5 253.199 417.9 254.899 416.6 255.899C415.3 256.899 414.1 257.999 413.1 259.299C412.5 260.099 412.3 261.299 411.4 261.799C411 261.999 411.2 262.799 410 262.199C409.7 261.999 410 262.999 409.8 263.199C409.4 263.699 408.8 264.199 408.3 264.599C407.6 265.299 406.9 265.799 406.3 266.599C405.9 266.999 405.9 267.799 405.5 268.299C405.1 268.799 404.7 269.199 404.2 269.499C403.5 269.899 402.7 270.099 402 270.599C401.3 271.099 401.1 271.999 400.2 272.099C398.5 272.299 397.8 273.699 396.7 274.499C395.6 275.399 394.5 276.299 393.6 277.399C393.1 277.999 391.9 277.799 391.3 278.299C391 278.499 388.7 276.699 388.1 275.799C388 275.599 387.9 275.399 387.9 275.399C387.9 274.199 387.4 272.699 388.1 272.099C389.1 271.299 390 270.399 391 269.499L390.7 269.799Z" fill="black"/>
<path d="M295.8 450.399C295.8 448.799 295.7 447.299 295.6 445.699C295.6 445.099 295.8 444.499 295.2 443.899C294.9 443.599 295.5 442.999 295.5 442.499C295.4 441.099 295.4 439.599 295.3 438.099C295.2 436.699 294.9 435.299 294.7 433.899C294.6 432.499 294.7 430.999 294.4 429.699C294.1 428.499 294.5 427.499 294.4 426.399C294.2 425.199 294.1 423.999 294.3 422.799C294.4 421.899 294.6 421.099 294.5 420.299C294.5 419.799 294.1 419.299 294.1 418.699C294.1 418.199 294.3 417.599 293.7 417.099C293.7 417.099 293.7 416.799 293.8 416.699C294.2 416.099 294.1 415.399 293.8 414.899C293.5 414.399 293.5 413.999 293.5 413.599C293.5 412.399 293.3 411.199 293.4 409.999C293.4 409.099 293.6 408.199 293.6 407.299C293.6 406.399 293.3 405.399 293.6 404.499C293.9 403.599 293.8 402.799 293.8 401.899C293.8 401.399 294.1 400.799 293.4 400.499C293.4 400.499 293.4 400.299 293.4 400.199C294.2 398.799 293 397.499 293.2 396.099C293.4 394.699 293.2 393.199 293.2 391.699C293.2 391.299 293.4 390.899 292.9 390.499C292.7 390.399 292.7 389.999 292.9 389.799C293.5 388.699 293.1 387.599 293.2 386.499C293.2 385.199 293 383.999 293.5 382.699C293.7 382.199 293.8 381.399 293.2 380.799C292.9 380.499 293.2 379.899 293.2 379.399C293.2 378.999 292.9 378.599 292.9 378.299C292.9 377.999 293.1 377.699 293.3 377.299C293.3 377.299 293.3 377.099 293.3 376.999C292.7 375.099 293.6 373.299 293.5 371.399C293.4 369.499 293.5 367.599 293.7 365.699C293.8 364.699 294.1 363.599 295.3 362.999C295.8 362.699 296.4 362.799 296.7 363.199C296.9 363.499 297.1 363.899 297.2 364.299C297.2 364.899 297.3 365.499 297.4 365.999C297.5 367.199 298 368.399 297.7 369.599C297.6 369.999 297.9 370.399 297.4 370.699C297.4 370.699 297.3 370.899 297.4 370.999C298.1 372.599 297.6 374.299 297.6 375.999C297.6 377.399 298.2 378.799 298 380.199C298.6 380.999 298.5 381.899 298.3 382.699C297.6 385.499 298.1 388.299 298.1 391.099C298.1 393.899 298.2 396.799 298.3 399.599C298.3 400.099 298.7 400.499 298.4 401.099C298.2 401.599 298.4 402.299 298.4 402.899C298.4 403.499 298.6 404.099 298.4 404.599C297.8 406.899 298.4 409.099 298.4 411.299C298.4 413.499 298.4 415.799 298.7 417.999C298.9 419.399 299.3 420.699 299.2 422.099C299.2 422.699 299.5 423.299 299 423.899C298.8 424.099 299.3 424.599 299.4 424.999C299.4 425.899 299.5 426.899 299.6 427.799C299.6 429.099 299.6 430.399 299.8 431.699C299.8 432.499 300.2 433.299 300.3 433.999C300.4 434.799 300.4 435.699 300.4 436.499C300.4 437.599 300.2 438.599 300.2 439.699C300.2 440.799 300.5 441.899 300.2 442.999C299.8 444.999 300.2 446.899 300.2 448.799C300.2 450.699 300.2 452.699 300.5 454.599C300.6 455.699 300.1 456.699 300.2 457.799C300.2 458.299 298.8 458.999 298.3 458.799C298.3 458.799 298.1 458.699 298.1 458.599C297.6 457.599 296.8 456.599 296.8 455.499C296.8 453.699 296.7 451.999 296.6 450.199L295.8 450.399Z" fill="black"/>
<path d="M367.6 282.3C367.2 284.4 366.7 286.5 366.3 288.5C366.2 289.3 365.7 290 366.1 290.9C366.3 291.4 365.5 292 365.4 292.7C365.1 294.7 364.6 296.6 364.2 298.5C363.9 300.4 363.7 302.4 363.1 304.4C362.5 306.4 361.3 308.3 360.5 310.1C359.8 311.7 358.4 312.6 357.4 313.9C356.4 315.3 355.3 316.5 354 317.5C353.1 318.2 352.1 318.9 351.4 319.8C350.9 320.4 350.7 321.1 350.1 321.6C349.6 322.1 348.8 322.5 348.8 323.4C348.8 323.4 348.5 323.6 348.3 323.7C347.4 324 346.8 324.6 346.5 325.3C346.2 325.9 345.8 326.3 345.4 326.7C344.2 327.9 343.1 329 341.8 330.1C340.9 330.9 339.8 331.6 338.9 332.3C337.9 333.1 337.1 334.3 336 334.8C334.9 335.4 334.1 336.1 333.2 336.9C332.7 337.3 331.9 337.6 332 338.5C332 338.5 331.8 338.7 331.7 338.8C329.7 339.4 329.1 341.5 327.5 342.6C325.9 343.7 324.5 345.2 323 346.5C322.6 346.9 322.1 347.1 322 347.7C322 347.9 321.6 348.3 321.3 348.4C319.8 348.9 318.9 350.2 317.6 351.1C316.2 352.1 315.1 353.5 313.5 354.2C312.8 354.5 312 355.1 311.7 356.1C311.6 356.6 310.8 356.9 310.3 357.4C309.9 357.8 309.7 358.3 309.3 358.6C309 358.9 308.5 359 308.1 359.2C308 359.2 307.9 359.4 307.8 359.5C306.3 361.6 303.8 362.6 302 364.3C300.2 366.1 298.2 367.7 296.2 369.3C295.1 370.2 293.9 371 292.4 370.7C291.7 370.6 291.4 370.2 291.6 369.5C291.8 369 292 368.5 292.4 368.2C292.9 367.6 293.5 367 294 366.4C295.1 365.2 296 363.8 297.5 362.9C298 362.6 298.2 362 298.9 362.1C298.9 362.1 299.2 362.1 299.2 361.9C300.4 359.8 302.5 358.7 304.2 357.2C305.6 355.9 306.7 354.2 308.3 353.2C308.7 352 309.7 351.3 310.7 350.7C314.1 348.7 316.7 345.9 319.6 343.5C322.6 341 325.5 338.4 328.4 335.9C328.9 335.5 329.1 334.8 329.8 334.5C330.5 334.2 331.1 333.4 331.7 332.9C332.3 332.4 332.8 331.7 333.4 331.4C336.1 329.8 338.1 327.5 340.3 325.4C341.4 324.4 342.5 323.4 343.6 322.3C344.7 321.2 345.8 320.2 346.8 319C348 317.6 349.1 316.1 350.4 314.8C351 314.3 351.3 313.4 352.3 313.3C352.6 313.3 352.7 312.4 353.1 312C353.9 311 354.7 310.2 355.4 309.2C356.4 307.9 357.3 306.6 357.9 305.1C358.3 304.2 358.3 303.2 358.6 302.2C358.8 301.2 359.1 300.1 359.4 299.1C359.8 297.8 360.3 296.4 360.6 295C361 293.6 361 292 361.6 290.7C362.6 288.2 362.9 285.6 363.5 283C364.1 280.4 364.7 277.9 365.1 275.3C365.3 273.8 366.1 272.6 366.4 271.2C366.5 270.5 368.2 269.9 368.6 270.3C368.6 270.3 368.8 270.5 368.8 270.6C369 272.1 369.4 273.5 369 275.1C368.4 277.4 368 279.8 367.5 282.2L367.6 282.3Z" fill="black"/>
<path d="M293.2 219.601C292.8 219.801 292.3 219.901 291.9 220.101C291.7 220.101 291.5 220.001 291.5 220.601C291.5 220.901 291.1 220.301 291 220.401C290.6 220.601 290.2 220.701 289.8 220.901C289.4 221.101 289.1 221.501 288.7 221.701C288.3 221.901 287.8 221.701 287.6 222.201C287.4 222.601 286.9 222.201 286.6 222.401C286.3 222.601 286 222.801 285.6 222.701C285.3 222.701 285 222.501 284.8 222.701C284.7 222.801 284.6 223.201 284.5 223.201C284.3 223.201 284.1 223.001 284.2 223.701C284.2 223.701 284.2 223.701 284 223.601C283.7 223.301 283.5 223.401 283.5 223.601C283.5 223.901 283.3 223.901 283.2 224.001C282.9 224.101 282.5 224.301 282.2 224.301C281.9 224.301 281.6 224.201 281.3 224.301C281 224.301 280.8 224.701 280.5 224.501C280.2 224.301 279.9 224.401 279.7 224.501C279.6 224.501 279.3 224.301 279.4 225.001C278.8 224.301 278.7 225.501 278.2 225.401C277.7 225.401 277.4 225.601 277 225.801C276.9 225.801 276.7 225.801 276.8 226.201C276.8 226.401 276.8 226.401 276.6 226.301C276.1 225.801 275.9 226.301 275.6 226.301C275.2 226.301 274.9 226.701 274.4 226.301C274.2 226.201 273.9 226.101 273.9 226.701C273.9 227.001 273.6 226.701 273.5 226.901C273.5 226.901 273.4 227.301 273.3 227.301C273.3 227.301 273.1 227.101 272.9 227.101C272.6 227.901 271.8 227.201 271.3 227.501C270.8 227.801 270.3 227.901 269.7 228.001C269.4 228.001 269 228.001 268.5 226.901C268.3 226.401 268.1 225.901 268.1 225.501C268.1 225.201 268.1 225.001 268.3 224.901C268.4 224.801 268.6 224.601 268.7 224.401C269 224.101 269.2 223.501 269.6 223.701C269.7 223.701 269.8 223.401 270 223.901C270.2 223.001 270.9 223.401 271.3 223.201C271.7 223.001 271.9 222.301 272.4 222.401C272.4 221.701 272.7 221.801 273 221.901C274 222.301 274.6 221.601 275.5 221.501C276.3 221.301 277.1 221.001 277.9 220.801C278 220.801 278 220.401 278.3 220.601C278.5 220.801 278.7 220.601 278.8 220.501C279 220.501 279.1 220.301 279.3 220.401C280.1 220.801 280.6 220.201 281.3 220.101C281.9 220.001 282.6 219.801 283.2 219.401C283.5 219.201 283.8 218.701 284.2 218.701C284.4 218.701 284.4 218.301 284.8 218.801C284.9 218.901 284.9 218.501 285 218.401C285.2 218.301 285.5 218.201 285.8 218.101C286.2 218.001 286.5 217.901 286.9 217.701C287.1 217.601 287.2 217.301 287.4 217.101C287.6 217.001 287.8 216.901 288.1 216.801C288.4 216.801 288.8 216.801 289.1 216.801C289.4 216.801 289.6 216.401 290 216.501C290.7 216.801 291.2 216.301 291.7 216.201C292.3 216.101 292.8 215.901 293.3 215.601C293.6 215.401 294 215.801 294.3 215.601C294.4 215.601 295.1 216.901 295.3 217.301V217.501C295.2 218.001 295.2 218.801 294.8 218.901C294.3 219.001 293.8 219.301 293.3 219.401L293.2 219.601Z" fill="white"/>
<path d="M429.1 193.099C428.6 193.099 428 193.099 427.5 193.199C427.3 193.199 427.1 192.999 426.9 193.599C426.9 193.899 426.6 193.299 426.4 193.299C425.9 193.399 425.4 193.399 424.9 193.499C424.4 193.599 424 193.899 423.5 194.099C423 194.199 422.5 194.099 422.1 194.399C421.8 194.699 421.3 194.399 421 194.499C420.6 194.699 420.2 194.899 419.8 194.699C419.5 194.599 419.1 194.399 418.9 194.699C418.7 194.799 418.6 195.199 418.4 195.199C418.2 195.199 417.9 194.999 417.9 195.699C417.9 195.699 417.8 195.699 417.7 195.599C417.4 195.199 417.2 195.299 417.1 195.599C417.1 195.899 416.9 195.899 416.7 195.999C416.3 196.099 415.9 196.299 415.5 196.299C415.2 196.299 414.8 196.199 414.5 196.199C414.2 196.199 413.9 196.599 413.5 196.399C413.1 196.199 412.8 196.299 412.6 196.399C412.4 196.399 412.2 196.199 412.2 196.899C412.2 196.899 412.2 196.899 412.1 196.899C411.4 196.199 411.2 197.399 410.7 197.299C410.1 197.299 409.7 197.499 409.2 197.599C409.1 197.599 408.9 197.499 408.8 197.999C408.8 198.199 408.6 198.199 408.6 198.099C408.1 197.599 407.8 198.099 407.4 197.999C406.9 197.999 406.5 198.299 406 197.999C405.8 197.799 405.5 197.799 405.4 198.399C405.4 198.699 405.1 198.399 404.9 198.499C404.8 198.499 404.7 198.899 404.5 198.899C404.4 198.899 404.2 198.699 404.1 198.599C404.1 198.599 404.1 198.599 404 198.599C403.4 199.399 402.6 198.599 402 198.799C401.3 199.099 400.6 198.999 399.9 198.899C399.5 198.899 399.1 198.699 398.8 197.599C398.7 197.099 398.7 196.499 398.8 196.199C398.9 195.999 399 195.699 399.2 195.699C399.4 195.599 399.6 195.499 399.8 195.399C400.2 195.199 400.6 194.699 401 194.899C401.1 194.899 401.3 194.699 401.4 195.199C401.9 194.399 402.5 194.899 403.1 194.699C403.6 194.599 404 193.899 404.5 194.099C404.7 193.399 405 193.499 405.3 193.599C406.4 194.099 407.2 193.499 408.2 193.399C409.2 193.299 410.1 192.999 411.1 192.799C411.3 192.799 411.3 192.399 411.6 192.599C411.8 192.799 412 192.599 412.2 192.599C412.4 192.599 412.6 192.399 412.8 192.499C413.7 192.999 414.4 192.399 415.2 192.299C416 192.199 416.8 192.099 417.5 191.699C418 191.499 418.3 190.999 418.9 191.099C419.1 191.099 419.3 190.699 419.6 191.299C419.6 191.499 419.8 190.999 419.9 190.899C420.2 190.799 420.6 190.699 420.9 190.699C421.4 190.599 421.8 190.599 422.3 190.399C422.6 190.399 422.8 189.999 423.1 189.899C423.4 189.799 423.7 189.699 424 189.799C424.4 189.799 424.8 189.999 425.2 189.999C425.6 189.999 426 189.699 426.4 189.999C427.2 190.399 427.8 189.999 428.6 190.099C429.3 190.099 430 190.099 430.7 189.999C431.1 189.999 431.5 190.399 431.9 190.399C432.1 190.399 432.3 191.899 432.2 192.399V192.599C431.8 193.099 431.5 193.799 431.1 193.699C430.5 193.699 429.9 193.699 429.3 193.699L429.1 193.099Z" fill="white"/>
<path d="M261.8 230.602C261.2 230.702 260.5 230.802 259.9 231.002C259.7 231.002 259.3 230.602 259.3 231.702C259.3 232.302 258.8 231.002 258.6 231.102C258 231.402 257.4 231.302 256.8 231.502C256.2 231.702 255.7 232.302 255.2 232.502C254.6 232.702 253.9 232.302 253.5 233.002C253.1 233.602 252.5 232.802 252.1 233.002C251.7 233.302 251.1 233.602 250.4 233.302C249.9 233.002 249.3 232.602 248.8 232.902C248.5 233.002 248 233.702 247.6 233.602C247.1 233.602 246.8 232.902 246 234.002C246 234.002 245.8 233.802 245.7 233.602C245.3 232.602 244.7 232.402 244 232.602C243.3 232.802 242.9 232.402 242.5 232.102C241.5 231.202 240.5 230.002 240.2 228.302C240 227.002 240.5 225.502 241.1 224.302C241.4 223.702 241.6 223.102 242 222.502C242.4 222.002 242.8 221.502 243.4 221.502C244.5 221.502 245.1 221.202 245.7 220.902C246 220.802 246.5 221.202 246.5 219.902C246.5 219.802 246.6 219.802 246.7 219.902C247.3 220.602 247.7 220.402 247.9 220.102C248.2 219.802 248.4 219.302 248.8 219.402C249.5 219.702 250.2 219.402 250.8 219.202C251 219.202 251.2 219.502 251.3 218.602C251.3 218.302 251.5 218.202 251.6 218.402C252.2 219.602 252.7 218.802 253.2 219.002C253.8 219.202 254.3 218.602 254.9 219.502C255.2 219.902 255.5 220.102 255.7 218.902C255.8 218.402 256.1 218.902 256.3 218.802C256.5 218.702 256.6 218.102 256.8 218.102C256.9 218.102 257.1 218.602 257.2 218.802C257.2 218.802 257.2 218.802 257.3 218.802C258.1 217.502 258.9 219.202 259.7 218.802C260.5 218.402 261.3 218.602 262.1 218.802C262.5 218.902 263 219.302 263.2 221.602C263.3 222.602 263.2 223.702 263.1 224.402C263 224.902 262.8 225.302 262.6 225.402C262.3 225.602 262.1 225.902 261.8 226.002C261.3 226.402 260.8 227.402 260.3 226.902C260.1 226.702 259.9 227.302 259.8 226.302C259.8 226.202 259.8 226.102 259.7 226.202C259 227.802 258.3 226.702 257.6 226.802C257 226.902 256.5 228.202 255.9 227.602C255.6 228.902 255.3 228.702 254.9 228.302C253.7 227.002 252.7 228.002 251.6 227.902C251 227.902 250.5 227.902 250 228.002H249.2C249.2 228.102 248.8 228.202 248.8 228.202H248.5C248.4 228.202 248.5 229.002 248.3 228.402C248.2 228.202 248.1 228.102 248.1 228.202C248.1 228.002 247.9 227.902 247.9 227.702C247.6 227.202 247.4 226.802 247.2 226.602C247 226.402 246.8 226.302 246.8 226.302H246.7C246.7 226.302 247.3 226.302 247.6 226.002C247.9 225.802 248 225.602 247.9 225.802C247.9 225.802 247.9 225.802 247.9 226.002C247.9 226.102 247.9 226.102 247.9 226.102C248 225.702 247.6 227.002 248.2 225.202L248.3 225.002C248.4 224.802 248.6 224.102 248.9 224.302C249.1 224.302 249.1 223.702 249.5 224.802C249.6 225.102 249.6 224.202 249.8 224.102C250.1 223.902 250.6 223.902 250.9 223.802C251.4 223.702 252 223.702 252.5 223.402C252.8 223.302 253 222.702 253.3 222.502C253.6 222.302 254 222.202 254.3 222.302C254.8 222.302 255.3 222.702 255.7 222.702C256.2 222.702 256.5 222.102 257.1 222.502C258.1 223.302 258.8 222.702 259.6 222.602C260.4 222.602 261.2 222.502 262 222.102C262.4 221.902 263 222.802 263.5 222.702C263.7 222.702 264.6 225.502 264.7 226.502C264.7 226.702 264.7 226.902 264.7 227.002C264.5 228.002 264.3 229.502 263.8 229.502C263 229.502 262.3 229.802 261.6 229.902L261.8 230.602Z" fill="black"/>
<path d="M179.9 272C179.6 272 179.4 271.8 179.1 271.8C179 271.8 179 271.5 178.7 272C178.6 272.2 178.7 271.6 178.5 271.6C178.2 271.6 178 271.5 177.8 271.4C177.5 271.4 177.3 271.5 177 271.5C176.7 271.5 176.6 271.2 176.3 271.4C176 271.6 176 271.1 175.8 271.2C175.6 271.2 175.3 271.2 175.2 271C175.2 270.8 175 270.6 174.8 270.6C174.7 270.6 174.5 270.9 174.4 270.9C174.4 270.9 174.3 270.6 174 271.1C174 271.1 174 271.1 174 270.9C174 270.5 173.9 270.5 173.7 270.7C173.6 270.9 173.5 270.9 173.4 270.9C173.2 270.9 173 270.9 172.8 270.7C172.7 270.7 172.6 270.4 172.4 270.3C172.3 270.2 172 270.4 172 270.1C172 269.8 171.8 269.8 171.7 269.7C171.7 269.7 171.7 269.4 171.4 269.9C171.4 269.1 170.9 269.9 170.7 269.7C170.5 269.4 170.2 269.5 170 269.4C170 269.4 170 269.2 169.7 269.6C169.7 269.7 169.6 269.7 169.6 269.6C169.6 269 169.3 269.3 169.1 269.1C168.9 268.9 168.6 269.1 168.6 268.6C168.6 268.4 168.5 268.2 168.2 268.7C168.1 268.9 168 268.7 168 268.7C168 268.7 167.8 269 167.7 268.9C167.7 268.9 167.7 268.7 167.7 268.5C167.2 269 167.2 268.1 166.8 268.2C166.4 268.2 166.1 268.1 165.9 267.9C165.7 267.8 165.6 267.6 165.9 266.5C165.9 266 166.2 265.5 166.3 265.3C166.4 265.1 166.6 264.9 166.6 264.9C166.7 264.9 166.9 264.8 167 264.7C167.3 264.6 167.6 264.2 167.7 264.5C167.7 264.5 167.9 264.4 167.8 264.8C168.3 264.2 168.4 264.8 168.7 264.8C168.9 264.8 169.4 264.3 169.5 264.7C169.8 264.2 169.9 264.3 170 264.5C170.3 265.2 170.9 265 171.3 265.2C171.7 265.4 172.2 265.5 172.7 265.7C172.7 265.7 172.9 265.4 173 265.7C173 266 173.2 265.8 173.3 265.8C173.3 265.8 173.5 265.8 173.6 265.9C173.8 266.6 174.3 266.4 174.6 266.5C175 266.7 175.3 266.8 175.7 266.8C176 266.8 176.3 266.5 176.5 266.8C176.5 266.8 176.8 266.6 176.7 267.2C176.7 267.4 176.9 267 177 267C177.2 267 177.3 267 177.5 267.1C177.7 267.1 177.9 267.3 178.2 267.3C178.3 267.3 178.5 267.1 178.7 267.1C178.9 267.1 179 267.1 179.1 267.2C179.3 267.3 179.4 267.6 179.5 267.7C179.7 267.8 179.9 267.7 180 267.9C180.2 268.5 180.6 268.3 180.9 268.4C181.2 268.5 181.5 268.7 181.9 268.6C182.1 268.6 182.1 269.1 182.3 269.1C182.3 269.1 182.2 270.5 182 271V271.2C181.7 271.6 181.4 272.2 181.2 272.1C180.9 272 180.6 271.9 180.3 271.9L179.9 272Z" fill="#FE5102"/>
<path d="M190.3 254.702C190.1 254.502 189.9 254.202 189.7 254.102C189.7 254.102 189.7 253.802 189.3 254.102C189.1 254.202 189.4 253.702 189.3 253.702C189.1 253.502 188.9 253.302 188.7 253.102C188.5 252.902 188.1 252.902 187.9 252.702C187.7 252.502 187.7 252.202 187.3 252.202C187 252.202 187.2 251.702 186.9 251.702C186.7 251.702 186.4 251.502 186.4 251.202C186.4 251.002 186.4 250.702 186.3 250.702C186.2 250.702 185.9 250.802 185.8 250.702C185.8 250.702 185.8 250.402 185.4 250.702C185.4 250.702 185.4 250.702 185.4 250.502C185.6 250.202 185.4 250.102 185.2 250.202C185 250.302 184.9 250.202 184.9 250.202C184.7 250.102 184.5 249.902 184.4 249.702C184.4 249.502 184.4 249.302 184.3 249.102C184.3 248.902 183.9 249.002 184 248.702C184 248.402 184 248.302 183.9 248.202C183.9 248.202 183.9 247.902 183.5 248.202C183.9 247.502 183 248.002 182.9 247.702C182.9 247.402 182.6 247.302 182.3 247.102C182.3 247.102 182.3 246.902 182 247.102C181.9 247.102 181.8 247.102 181.9 247.102C182.2 246.502 181.8 246.602 181.7 246.402C181.7 246.102 181.2 246.202 181.4 245.702C181.4 245.502 181.4 245.302 181 245.702C180.8 245.802 180.9 245.602 180.8 245.502C180.8 245.502 180.5 245.602 180.4 245.502C180.4 245.502 180.4 245.302 180.5 245.102C179.8 245.302 180.2 244.402 179.8 244.302C179.4 244.202 179.2 243.802 179 243.502C178.9 243.302 178.9 243.102 179.6 242.202C179.9 241.802 180.3 241.502 180.6 241.302C180.8 241.202 181 241.102 181.1 241.102C181.2 241.102 181.4 241.102 181.6 241.102C181.9 241.102 182.4 241.002 182.4 241.302C182.4 241.402 182.7 241.302 182.4 241.702C183.2 241.402 183 242.002 183.3 242.202C183.5 242.402 184.1 242.202 184.1 242.502C184.6 242.202 184.7 242.502 184.7 242.602C184.7 243.402 185.3 243.502 185.6 244.002C185.9 244.502 186.4 244.802 186.7 245.202C186.7 245.202 187.1 245.102 186.9 245.402C186.8 245.602 187 245.602 187.1 245.702C187.1 245.702 187.3 245.702 187.3 246.002C187.1 246.702 187.7 246.802 188 247.202C188.2 247.602 188.5 247.902 188.9 248.102C189.1 248.202 189.6 248.102 189.7 248.502C189.7 248.602 190.1 248.502 189.7 248.902C189.7 249.002 190 248.902 190.1 248.902C190.3 248.902 190.4 249.102 190.5 249.302C190.7 249.502 190.8 249.702 191 249.802C191.1 249.802 191.4 249.802 191.5 249.902C191.7 249.902 191.8 250.102 191.8 250.202C191.8 250.402 191.8 250.702 192 250.902C192.1 251.102 192.4 251.102 192.4 251.402C192.4 252.002 192.7 252.102 193 252.402C193.2 252.702 193.4 253.002 193.8 253.202C194 253.302 193.8 253.802 193.9 253.902C193.9 253.902 193 255.002 192.7 255.302L192.5 255.402C192 255.602 191.4 255.902 191.3 255.702C191.1 255.402 190.8 255.202 190.6 254.902L190.3 254.702Z" fill="#FE5102"/>
<path d="M208.4 241.7C208.4 241.4 208.2 241.1 208.1 240.8C208.1 240.7 208.2 240.5 207.7 240.6C207.4 240.6 208 240.3 207.9 240.2C207.7 240 207.7 239.7 207.6 239.4C207.5 239.2 207.2 239 207 238.7C206.9 238.5 207 238.1 206.7 238C206.4 237.9 206.7 237.5 206.6 237.4C206.4 237.2 206.3 237 206.4 236.7C206.5 236.5 206.6 236.3 206.4 236.1C206.4 236.1 206 236.1 206 235.9C206 235.8 206.2 235.6 205.6 235.7C205.6 235.7 205.6 235.7 205.7 235.6C206 235.4 206 235.2 205.7 235.2C205.4 235.2 205.4 235.2 205.4 235C205.3 234.8 205.2 234.6 205.2 234.3C205.2 234.1 205.3 233.9 205.3 233.7C205.3 233.5 205 233.4 205.2 233.2C205.4 232.9 205.4 232.8 205.3 232.6C205.3 232.6 205.5 232.3 204.9 232.4C205.6 231.9 204.5 232 204.6 231.7C204.7 231.4 204.5 231.1 204.4 230.9C204.4 230.9 204.5 230.7 204.1 230.8C203.9 230.8 203.9 230.8 204 230.7C204.5 230.3 204 230.2 204.1 230C204.1 229.7 203.8 229.6 204.1 229.2C204.3 229 204.3 228.9 203.7 228.9C203.4 228.9 203.7 228.7 203.6 228.7C203.6 228.7 203.3 228.7 203.2 228.6C203.2 228.6 203.4 228.4 203.4 228.3C202.7 228.2 203.4 227.6 203.1 227.3C202.8 227 202.8 226.6 202.7 226.3C202.7 226.1 202.7 225.8 203.8 225.4C204.2 225.2 204.7 225 205.1 225C205.3 225 205.6 225 205.6 225C205.7 225 205.9 225.1 206 225.2C206.2 225.4 206.8 225.4 206.6 225.7C206.6 225.7 206.8 225.7 206.4 226C207.2 226 206.8 226.5 207 226.8C207.1 227 207.8 227.1 207.6 227.5C208.2 227.5 208.2 227.7 208.1 227.9C207.7 228.6 208.3 229 208.3 229.6C208.3 230.2 208.7 230.7 208.8 231.2C208.8 231.2 209.2 231.2 209 231.5C208.8 231.7 209 231.7 209 231.9C209 232 209.2 232.1 209 232.2C208.5 232.8 209 233.1 209.1 233.5C209.1 233.9 209.3 234.4 209.5 234.7C209.7 234.9 210.1 235.1 210 235.4C210 235.5 210.3 235.5 209.8 235.8C209.7 235.8 210.1 235.8 210.1 235.9C210.2 236.1 210.2 236.2 210.3 236.4C210.3 236.6 210.4 236.9 210.6 237.1C210.6 237.2 211 237.3 211.1 237.4C211.2 237.5 211.3 237.7 211.3 237.9C211.3 238.1 211.2 238.4 211.2 238.6C211.2 238.8 211.5 238.9 211.3 239.2C211 239.7 211.3 240 211.3 240.4C211.3 240.8 211.4 241.1 211.7 241.5C211.8 241.7 211.4 242 211.5 242.2C211.5 242.2 210.3 242.9 209.8 243H209.6C209.1 243 208.4 243 208.4 242.8C208.4 242.5 208.2 242.1 208.1 241.8L208.4 241.7Z" fill="#FE5102"/>
<path d="M226.7 236.999C226.7 236.999 226.7 237.099 226.7 237.199C226.7 237.199 226.5 237.199 226.9 237.399C227.1 237.499 226.6 237.399 226.6 237.399C226.6 237.399 226.6 237.499 226.6 237.599C226.6 237.599 226.8 237.799 226.8 237.899C226.8 237.899 226.6 237.899 226.8 238.099C227 238.199 226.6 238.099 226.7 238.099C226.7 238.099 226.8 238.299 226.7 238.199C226.5 238.199 226.3 238.199 226.4 238.199L226.7 238.399C226.7 238.399 226.4 238.399 227 238.599C227 238.599 227 238.599 226.9 238.599C226.5 238.499 226.5 238.599 226.8 238.599C227 238.699 227 238.699 227 238.699V238.799H226.7C226.7 238.799 226.9 238.899 226.6 238.799C226.3 238.799 226.3 238.799 226.3 238.799C226.3 238.799 226 238.799 226.6 238.999C225.8 238.799 226.8 239.199 226.6 239.199C226.4 239.199 226.6 239.199 226.6 239.399C226.6 239.399 226.4 239.399 226.8 239.499C226.9 239.499 227 239.499 226.8 239.499C226.2 239.299 226.6 239.499 226.4 239.499C226.3 239.499 226.5 239.699 226.1 239.499C225.9 239.499 225.8 239.499 226.3 239.699C226.3 239.699 226.6 239.799 226.6 239.899C226.6 239.899 226.4 239.899 226.3 239.899C226.9 240.199 226 239.899 226.2 240.099C226.3 240.199 226.2 240.299 226.2 240.299C226.2 240.299 226 240.299 224.9 239.899C224.4 239.699 224 239.499 223.7 239.399C223.5 239.399 223.3 239.199 223.3 239.199C223.3 239.199 223.1 239.099 223 238.999C222.8 238.899 222.4 238.699 222.7 238.699C222.7 238.699 222.5 238.599 223 238.699C222.3 238.399 222.8 238.499 222.8 238.399C222.8 238.399 222.2 238.099 222.5 238.099C222 237.899 222.1 237.899 222.2 237.899C222.8 237.999 222.5 237.799 222.6 237.699C222.7 237.699 222.6 237.499 222.8 237.399C223.4 237.499 223.1 237.399 223.2 237.299C223.2 237.299 223.4 237.199 223.2 236.999C223.2 236.999 222.8 236.699 223 236.699C223 236.699 222.8 236.599 223.3 236.699C223.5 236.699 223.1 236.599 223 236.599C223 236.599 223 236.599 223 236.499C223 236.499 223 236.499 223 236.299C223 236.299 222.8 236.099 222.7 236.099C222.7 236.099 223 236.099 223.1 236.099C223.1 236.099 222.9 235.899 223.2 235.999C223.7 236.099 223.5 235.999 223.6 235.899C223.6 235.899 223.7 235.799 223.6 235.699H224C224 235.699 225.3 236.199 225.8 236.299H226C226.4 236.499 227 236.799 227 236.799C227 236.799 227 236.899 227 236.999H226.7Z" fill="#FE5102"/>
<path d="M396.4 334.001C395.8 337.401 394.8 340.701 393.4 343.901C392.9 345.101 392.1 346.101 391.9 347.601C391.8 348.301 390.6 349.101 389.9 350.101C388 352.801 385.6 355.101 382.9 357.001C380.2 358.801 377.2 360.201 373.9 360.801C370.6 361.401 367.2 360.801 364 360.001C362.6 359.601 361.4 358.901 360.3 358.101C359.2 357.301 358.3 356.301 357.4 355.401C356.4 354.401 355.5 353.201 354.8 351.901C354.1 350.601 353.6 349.201 353.4 347.801C353.1 345.701 353.2 343.701 353.6 341.601C353.8 340.301 353.9 339.001 354.7 337.801C355.4 336.601 356.6 335.601 357.3 334.401C357.3 334.301 358 334.001 358.3 333.901C360 333.401 361.8 333.101 363.1 332.901C364.3 332.701 365.4 332.901 366.4 333.201C369.3 333.901 371.9 335.501 374 337.501C375.5 339.001 376.7 340.901 377.6 342.801C378.6 344.801 379.6 346.901 379.7 348.901C379.8 350.901 380 352.801 379.9 354.701C379.9 355.801 379.5 357.001 380 358.001C380 358.001 380 358.501 380 358.701C379.4 360.201 379.1 361.701 378.8 363.201C378.5 364.701 378.2 366.201 377.5 367.601C376.1 370.501 374.5 373.401 372.6 376.001C372.1 376.701 371.4 377.301 371.2 378.201C371.2 378.501 370.6 379.201 370.2 379.501C368.2 380.901 366.6 382.901 364.7 384.401C362.5 386.101 360.4 387.901 357.7 389.001C356.6 389.501 355.2 390.101 354.1 391.201C353.6 391.701 352.3 392.101 351.4 392.501C350.7 392.901 350 393.401 349.3 393.701C348.6 394.001 347.9 394.001 347.2 394.101C347 394.101 346.7 394.201 346.6 394.301C343 396.201 338.9 396.401 335 397.301C331.1 398.201 327 398.601 323 398.801C320.8 398.901 318.5 398.801 317 397.801C316.3 397.301 316.3 396.801 317.2 396.501C317.9 396.201 318.6 396.001 319.4 395.901C320.6 395.701 321.9 395.501 323 395.401C325.5 395.001 327.9 394.301 330.4 394.201C331.2 394.201 332.1 393.701 332.8 394.201C332.9 394.201 333.2 394.201 333.4 394.201C336.6 392.901 340.2 392.501 343.4 391.501C346.2 390.601 348.6 389.001 351.4 388.001C352 387.401 352.7 386.901 353.5 386.501C354.3 386.101 355 385.701 355.8 385.401C361 383.001 365.2 378.801 368.7 374.401C372.3 369.901 374.7 364.501 375.7 358.901C375.9 357.901 375.7 357.101 375.9 356.001C376.2 355.001 376 353.601 375.9 352.401C375.9 351.301 375.5 350.201 375.4 349.201C375.2 347.001 374.3 345.001 373.1 343.201C371.8 341.401 370.2 340.001 368.4 338.901C366.6 337.801 364.5 337.101 362.6 337.101C361.6 337.101 360.8 337.301 360 337.801C359.3 338.301 358.6 339.001 358.1 339.801C357.5 340.801 357.2 342.001 357.1 343.201C357 344.401 357.1 345.601 357.2 346.801C357.3 347.901 358 348.801 358 350.001C358 350.401 358.8 351.001 359.3 351.601C360.3 353.001 361.5 354.201 362.9 355.201C363.9 355.801 364.9 356.301 366.1 356.701C367.2 357.001 368.4 357.201 369.7 357.301C371.2 357.301 372.6 357.001 374.1 356.601C375.6 356.201 377.1 355.701 378.5 355.001C380.3 354.201 382 353.201 383.6 351.801C385.2 350.401 386.4 348.501 387.7 346.901C390.2 343.901 391.4 340.001 392.3 336.201C393.3 332.401 393.7 328.401 393.8 324.401C393.8 322.101 394.4 320.101 394.4 317.801C394.4 316.801 395.8 315.401 396.3 315.801C396.3 315.801 396.5 316.101 396.5 316.201C396.9 318.401 397.6 320.501 397.4 323.001C397.2 326.801 396.9 330.601 396.2 334.401L396.4 334.001Z" fill="#FE5102"/>
<path d="M236.9 291.201C236.9 291.301 236.7 291.401 236.7 291.601C236.7 291.601 236.4 291.601 236.9 291.901C237.1 292.101 236.5 291.801 236.5 291.901C236.5 292.101 236.3 292.101 236.3 292.301C236.3 292.401 236.3 292.701 236.3 292.801C236.3 292.901 236 292.801 236.1 293.201C236.3 293.501 235.8 293.201 235.8 293.401C235.8 293.601 235.8 293.701 235.6 293.701C235.4 293.701 235.2 293.601 235.2 293.701C235.2 293.701 235.5 294.001 235.4 294.001C235.4 294.001 235.1 294.001 235.6 294.301C235.6 294.301 235.6 294.301 235.5 294.301C235.1 294.101 235.1 294.201 235.3 294.301C235.5 294.501 235.4 294.501 235.4 294.601C235.4 294.701 235.4 294.801 235.2 294.901C235.2 294.901 234.9 294.901 234.8 294.901C234.7 294.901 234.8 295.201 234.6 295.101C234.3 295.001 234.3 295.101 234.2 295.101C234.2 295.101 233.9 295.001 234.4 295.401C233.7 295.001 234.4 295.801 234.2 295.701C233.9 295.701 234 295.901 233.9 296.001C233.9 296.001 233.7 296.001 234 296.301C234.1 296.401 234.1 296.501 234 296.301C233.5 296.001 233.7 296.301 233.5 296.301C233.3 296.301 233.5 296.601 233 296.301C232.8 296.201 232.7 296.201 233 296.601C233.2 296.801 233 296.601 233 296.701L233.2 297.001C233.2 297.001 233 296.901 232.9 296.801C233.3 297.401 232.5 296.901 232.5 297.201C232.5 297.501 232.3 297.501 232.1 297.601C232 297.601 231.8 297.601 230.9 296.801C230.5 296.501 230.1 296.101 229.9 295.801C229.7 295.601 229.6 295.401 229.6 295.401C229.6 295.301 229.6 295.201 229.5 295.101C229.5 294.901 229.1 294.401 229.4 294.601C229.4 294.601 229.3 294.401 229.7 294.701C229.2 294.001 229.7 294.301 229.7 294.201C229.7 294.101 229.4 293.601 229.7 293.701C229.3 293.201 229.4 293.201 229.6 293.301C230.3 293.601 230.1 293.101 230.3 293.001C230.5 292.901 230.6 292.601 230.8 292.501C230.8 292.501 230.6 292.201 230.8 292.401C231 292.501 230.9 292.401 230.9 292.401C230.9 292.401 230.9 292.201 231 292.401C231.6 292.701 231.4 292.301 231.6 292.201C231.8 292.101 231.9 292.001 231.9 291.701C231.9 291.501 231.7 291.201 231.9 291.201C231.9 291.201 231.7 291.001 232.2 291.201C232.3 291.201 232 291.001 232 290.901C232 290.901 232 290.801 232.1 290.701C232.1 290.701 232.3 290.501 232.3 290.401C232.3 290.401 232.1 290.101 232.1 290.001C232.1 290.001 232.1 289.901 232.2 289.801C232.3 289.801 232.5 289.801 232.6 289.801C232.7 289.801 232.6 289.501 232.8 289.601C233.3 289.701 233.2 289.501 233.3 289.401C233.4 289.301 233.6 289.201 233.5 289.001C233.5 288.901 234 289.001 234 289.001C234 289.001 235.3 289.701 235.7 289.901L235.9 290.001C236.2 290.301 236.8 290.801 236.7 290.801C236.6 290.901 236.5 291.101 236.4 291.201H236.9Z" fill="black"/>
</svg>
